<svg width="512" height="512" viewBox="0 0 512 512" fill="none" xmlns="http://www.w3.org/2000/svg">
<path d="M398.9 240.741C384.107 240.742 369.458 237.828 355.79 232.168C342.123 226.507 329.704 218.209 319.243 207.749C308.782 197.289 300.484 184.871 294.822 171.203C289.161 157.536 286.247 142.888 286.246 128.094C286.246 75.8031 253.128 36.9481 211.43 21.8711C173.36 8.10308 128.14 14.1571 94.4222 47.9551C69.2007 73.1717 49.2026 103.117 35.574 136.076C21.9453 169.034 14.9539 204.358 15.0002 240.023C15.0002 389.812 137.177 511.989 286.966 511.988C322.63 512.027 357.952 505.032 390.909 491.404C423.867 477.775 453.813 457.781 479.033 432.565C549.85 361.916 498.928 240.741 398.896 240.741H398.9Z" fill="#F2D4D3"/>
<path d="M112 230.023C111.954 194.358 118.945 159.034 132.574 126.075C146.203 93.1166 166.201 63.1712 191.423 37.955C197.477 31.8688 204.187 26.4734 211.431 21.868C173.361 8.10302 128.141 14.157 94.4232 47.955C69.2011 73.1712 49.2026 103.117 35.5737 136.075C21.9449 169.034 14.9535 204.358 15.0002 240.023C15.0002 389.812 137.177 511.989 286.966 511.988C312.707 512.005 338.32 508.369 363.039 501.188C222.963 490.443 112 372.772 112 230.023Z" fill="#E8B5B1"/>
<path d="M164.5 69.3999C151.248 66.9882 137.57 69.1065 125.669 75.4138C113.767 81.721 104.334 91.8501 98.8897 104.17C93.4449 116.49 92.3047 130.284 95.6529 143.331C99.001 156.378 106.643 167.918 117.347 176.094C124.556 181.603 132.922 185.406 141.813 187.215C150.704 189.024 159.89 188.793 168.679 186.539C177.468 184.284 185.631 180.066 192.554 174.201C199.477 168.336 204.98 160.976 208.648 152.677C212.316 144.378 214.053 135.355 213.73 126.287C213.406 117.22 211.03 108.343 206.78 100.327C202.53 92.3101 196.517 85.3619 189.194 80.005C181.871 74.6481 173.427 71.0221 164.5 69.3999Z" fill="#55DAFE"/>
<path d="M153.768 68.424C141.221 68.4222 128.989 72.3545 118.793 79.6678C108.597 86.981 100.951 97.307 96.9306 109.193C92.91 121.079 92.7174 133.926 96.3798 145.927C100.042 157.928 107.375 168.478 117.347 176.094C125.114 137.523 141.2 101.11 164.483 69.394C160.948 68.7505 157.362 68.4252 153.768 68.422V68.424Z" fill="#1CBBEA"/>
<path d="M112.793 209.101C104.629 207.864 96.2972 208.326 88.3196 210.457C80.3419 212.588 72.89 216.343 66.4303 221.487C59.9707 226.63 54.6422 233.052 50.7786 240.35C46.9149 247.648 44.5992 255.664 43.9763 263.898C43.3535 272.132 44.437 280.406 47.1589 288.202C49.8808 295.998 54.1826 303.148 59.795 309.205C65.4075 315.262 72.2097 320.095 79.776 323.402C87.3423 326.709 95.5098 328.419 103.767 328.424C118.903 328.434 133.484 322.722 144.586 312.434C155.689 302.147 162.493 288.043 163.634 272.95C164.776 257.857 160.171 242.89 150.743 231.049C141.314 219.208 127.759 211.368 112.793 209.101Z" fill="#B28AE4"/>
<path d="M112.793 209.101C104.629 207.864 96.2972 208.326 88.3196 210.457C80.3419 212.588 72.89 216.343 66.4303 221.487C59.9707 226.63 54.6422 233.052 50.7786 240.35C46.9149 247.648 44.5992 255.664 43.9763 263.898C43.3535 272.132 44.437 280.406 47.1589 288.202C49.8808 295.998 54.1826 303.148 59.795 309.205C65.4075 315.262 72.2097 320.095 79.776 323.402C87.3423 326.709 95.5098 328.419 103.767 328.424C112.281 328.433 120.698 326.62 128.453 323.107C117.542 293.287 111.972 261.777 112 230.023C112 222.984 112.265 216.01 112.793 209.101Z" fill="#976BCF"/>
<path d="M363.768 448.424C396.905 448.424 423.768 421.561 423.768 388.424C423.768 355.287 396.905 328.424 363.768 328.424C330.631 328.424 303.768 355.287 303.768 388.424C303.768 421.561 330.631 448.424 363.768 448.424Z" fill="#FF8F71"/>
<path d="M203.768 338.424C191.904 338.426 180.306 341.946 170.442 348.538C160.578 355.131 152.89 364.5 148.351 375.462C143.812 386.423 142.624 398.485 144.939 410.121C147.254 421.757 152.968 432.446 161.357 440.835C169.746 449.224 180.435 454.938 192.071 457.253C203.708 459.568 215.769 458.381 226.731 453.841C237.692 449.302 247.062 441.614 253.654 431.75C260.247 421.886 263.766 410.288 263.768 398.424C263.772 390.544 262.223 382.739 259.209 375.458C256.196 368.177 251.776 361.561 246.204 355.988C240.632 350.416 234.016 345.996 226.734 342.983C219.453 339.969 211.649 338.42 203.768 338.424Z" fill="#FF8E9E"/>
<path d="M150.94 369.989C144.982 381.045 142.644 393.693 144.258 406.149C145.871 418.605 151.354 430.24 159.933 439.413C168.512 448.587 179.754 454.836 192.074 457.279C204.394 459.722 217.17 458.236 228.6 453.03C197.203 431.071 170.75 402.784 150.94 369.989Z" fill="#EA5B70"/>
<path d="M464.144 165.18L455.577 153.386C453.266 150.224 451.744 146.554 451.14 142.684C450.536 138.813 450.866 134.855 452.104 131.138C453.248 127.74 453.997 124.221 454.336 120.652C454.437 119.565 454.796 118.517 455.382 117.595C455.968 116.674 456.765 115.905 457.707 115.352C461.171 113.352 463.814 110.191 465.17 106.428C466.525 102.665 466.504 98.5444 465.111 94.7954C463.719 91.0464 461.043 87.9116 457.56 85.9466C454.077 83.9816 450.01 83.3133 446.081 84.0601C445.041 84.2705 443.966 84.2265 442.947 83.9319C441.927 83.6374 440.994 83.1008 440.227 82.3681C438.019 80.2333 435.608 78.3199 433.027 76.6551C430.39 74.917 428.23 72.5472 426.743 69.7614C425.256 66.9755 424.488 63.862 424.511 60.7041V43.7041C424.511 34.5921 417.525 26.7391 408.424 26.2881C406.131 26.1749 403.838 26.5286 401.685 27.3277C399.532 28.1268 397.564 29.3548 395.899 30.9371C394.235 32.5193 392.909 34.4231 392.003 36.5329C391.096 38.6427 390.627 40.9146 390.624 43.2111V60.6381C390.623 63.8504 389.821 67.0117 388.292 69.8366C386.762 72.6614 384.553 75.0608 381.864 76.8181C379.461 78.3906 377.207 80.1797 375.13 82.1631C370.964 86.1411 364.393 86.3571 359.205 83.8541C350.638 79.7211 341.712 84.2941 338.488 92.8291C337.675 94.9743 337.306 97.2623 337.403 99.5545C337.5 101.847 338.062 104.095 339.054 106.164C340.047 108.232 341.449 110.078 343.176 111.588C344.902 113.099 346.918 114.243 349.1 114.951L351.389 115.695C353.968 116.536 356.287 118.025 358.124 120.02C359.961 122.015 361.255 124.448 361.881 127.087C362.427 129.371 363.145 131.611 364.028 133.787C365.281 136.85 365.779 140.17 365.481 143.466C365.183 146.762 364.096 149.938 362.314 152.727L362.298 152.751C360.99 154.551 360.05 156.591 359.531 158.755C359.012 160.918 358.924 163.163 359.272 165.361C359.62 167.558 360.398 169.666 361.56 171.563C362.723 173.46 364.248 175.109 366.048 176.417C367.848 177.725 369.888 178.665 372.052 179.184C374.216 179.704 376.46 179.792 378.658 179.443C380.855 179.095 382.963 178.318 384.86 177.155C386.757 175.992 388.406 174.467 389.714 172.667C391.605 169.735 394.202 167.324 397.266 165.656C400.331 163.988 403.765 163.116 407.254 163.12H407.705C411.751 163.121 415.74 164.079 419.344 165.917C422.949 167.755 426.067 170.42 428.444 173.694L436.727 185.094C438.307 187.253 440.372 189.011 442.756 190.226C445.14 191.44 447.776 192.078 450.451 192.086C453.575 192.082 456.637 191.215 459.298 189.581C461.96 187.947 464.119 185.609 465.536 182.825C466.952 180.041 467.572 176.92 467.326 173.806C467.081 170.692 465.98 167.706 464.144 165.179V165.18Z" fill="#FFCE71"/>
</svg>
