<svg width="512" height="512" viewBox="0 0 512 512" fill="none" xmlns="http://www.w3.org/2000/svg">
<path d="M455 446.5H58C44.7511 446.461 32.0559 441.181 22.6875 431.812C13.3191 422.444 8.03878 409.749 8 396.5L8 316.5C8.03878 303.251 13.3191 290.556 22.6875 281.188C32.0559 271.819 44.7511 266.539 58 266.5H455C468.249 266.539 480.944 271.819 490.312 281.188C499.681 290.556 504.961 303.251 505 316.5V396.5C504.961 409.749 499.681 422.444 490.312 431.812C480.944 441.181 468.249 446.461 455 446.5Z" fill="#976BCF"/>
<path d="M162.5 38V114L202 134L241.5 101.182V38C241.5 30.0435 238.339 22.4129 232.713 16.7868C227.087 11.1607 219.456 8 211.5 8L192.5 8C184.544 8 176.913 11.1607 171.287 16.7868C165.661 22.4129 162.5 30.0435 162.5 38Z" fill="#976BCF"/>
<path d="M271.5 38V101.182L311 134L346.9 114V38C346.9 30.0435 343.739 22.4129 338.113 16.7868C332.487 11.1607 324.856 8 316.9 8L301.5 8C293.544 8 285.913 11.1607 280.287 16.7868C274.661 22.4129 271.5 30.0435 271.5 38Z" fill="#B28AE4"/>
<path d="M408.863 179.808C396.083 152.98 375.313 127.852 353.103 111.024C349.422 108.244 345.545 105.732 341.503 103.508C326.739 95.3948 310.16 91.1545 293.314 91.183H219.689C198.13 91.1062 177.135 98.0739 159.9 111.026C137.691 127.854 116.921 152.982 104.141 179.809C67.908 257.057 48.6 333.354 51.854 401.972C53.98 456.076 116.68 505.165 161.4 505C282.52 504.144 319.53 505.053 356.35 504.836C400.685 501.791 459.087 454.163 461.143 401.971C464.4 333.354 445.088 257.056 408.861 179.808H408.863Z" fill="#55DAFE"/>
<path d="M221.855 401.971C218.598 333.354 237.909 257.056 274.138 179.808C286.918 152.981 307.687 127.853 329.896 111.025C333.577 108.244 337.454 105.732 341.496 103.508C326.732 95.3948 310.153 91.1545 293.307 91.183H219.689C198.13 91.1062 177.135 98.0739 159.9 111.026C137.691 127.854 116.921 152.982 104.141 179.809C67.908 257.057 48.6 333.354 51.854 401.972C53.98 456.076 116.68 505.165 161.4 505C196.348 504.753 221.423 504.631 256.5 504.63C282.707 504.63 303.331 504.7 326.661 504.837C282.38 501.8 223.906 454.19 221.855 401.971Z" fill="#2ED0FC"/>
<path d="M327.515 218.313C323.661 210.508 318.839 203.219 313.164 196.619C309.42 192.255 304.773 188.756 299.545 186.362C294.316 183.969 288.631 182.74 282.881 182.758H230.121C224.371 182.739 218.685 183.969 213.456 186.362C208.228 188.756 203.581 192.256 199.837 196.62C194.163 203.221 189.341 210.51 185.486 218.314C157.012 279.1 141.932 336.33 141.51 384.827C141.482 389.344 142.513 393.805 144.521 397.851C146.529 401.898 149.457 405.417 153.071 408.127C153.241 408.255 153.412 408.382 153.583 408.508C158.567 412.118 164.583 414.025 170.737 413.945C229.996 413.557 275.637 413.513 342.28 413.945C348.436 414.025 354.453 412.117 359.438 408.504C359.604 408.382 359.771 408.259 359.938 408.135C363.551 405.424 366.478 401.905 368.485 397.858C370.491 393.812 371.522 389.351 371.493 384.835C371.073 336.335 355.993 279.107 327.519 218.308L327.515 218.313Z" fill="#B28AE4"/>
<path d="M272.763 182.757H230.122C224.372 182.738 218.686 183.968 213.457 186.362C208.229 188.755 203.582 192.255 199.838 196.619C194.164 203.22 189.342 210.509 185.487 218.313C157.013 279.103 141.933 336.33 141.511 384.827C141.483 389.344 142.514 393.805 144.522 397.851C146.53 401.898 149.458 405.417 153.072 408.127C153.242 408.255 153.413 408.382 153.584 408.508C158.566 412.118 164.579 414.026 170.731 413.946C189.66 413.82 205.931 413.733 223.256 413.685C222.483 409.822 222.015 405.905 221.856 401.969C218.64 334.227 237.421 259 272.763 182.757Z" fill="#976BCF"/>
<path d="M391.288 233.761C386.356 221.192 380.876 208.461 374.999 195.919C374.991 195.901 374.931 195.775 374.922 195.758C365.134 175.293 348.096 154.279 330.457 140.915C319.728 132.92 306.691 128.627 293.311 128.682H219.689C206.309 128.628 193.274 132.92 182.544 140.913C164.904 154.279 147.866 175.294 138.086 195.741C138.065 195.781 138.022 195.876 138.003 195.917C132.125 208.461 126.644 221.193 121.712 233.76C120.985 235.612 121.024 237.676 121.819 239.499C122.614 241.323 124.101 242.755 125.953 243.482C127.805 244.209 129.869 244.17 131.692 243.375C133.516 242.58 134.948 241.093 135.675 239.241C140.49 226.971 145.843 214.541 151.585 202.283C151.585 202.276 151.593 202.265 151.599 202.254L151.611 202.23C160.43 183.793 175.754 164.88 191.603 152.87C199.723 146.847 209.579 143.623 219.689 143.683H293.311C303.422 143.622 313.278 146.847 321.398 152.872C337.248 164.879 352.572 183.793 361.418 202.285C367.159 214.535 372.511 226.969 377.326 239.24C377.676 240.17 378.208 241.021 378.889 241.744C379.571 242.467 380.39 243.047 381.298 243.45C382.206 243.854 383.185 244.073 384.178 244.095C385.172 244.117 386.16 243.942 387.085 243.579C388.01 243.216 388.853 242.673 389.567 241.981C390.28 241.289 390.849 240.462 391.24 239.549C391.631 238.636 391.836 237.654 391.845 236.66C391.853 235.666 391.664 234.681 391.288 233.761Z" fill="#976BCF"/>
</svg>
