<svg width="512" height="512" viewBox="0 0 512 512" fill="none" xmlns="http://www.w3.org/2000/svg">
<path d="M13.7371 395.275V112C13.7371 106.961 15.7388 102.128 19.302 98.565C22.8652 95.0018 27.6979 93 32.7371 93H479.262C484.301 93 489.134 95.0018 492.697 98.565C496.26 102.128 498.262 106.961 498.262 112V395.275C498.262 400.314 496.26 405.147 492.697 408.71C489.134 412.273 484.301 414.275 479.262 414.275H32.7381C30.2429 414.275 27.7721 413.784 25.4668 412.829C23.1615 411.874 21.0668 410.475 19.3024 408.71C17.538 406.946 16.1383 404.851 15.1834 402.546C14.2285 400.241 13.7371 397.77 13.7371 395.275Z" fill="#F2DFA6"/>
<path d="M456.312 125.204H55.688C54.4082 125.204 53.1408 125.456 51.9584 125.946C50.7759 126.436 49.7016 127.154 48.7966 128.059C47.8916 128.964 47.1737 130.038 46.6839 131.22C46.1941 132.403 45.942 133.67 45.942 134.95V372.325C45.942 373.605 46.1941 374.872 46.6839 376.055C47.1737 377.237 47.8916 378.311 48.7966 379.216C49.7016 380.121 50.7759 380.839 51.9584 381.329C53.1408 381.819 54.4082 382.071 55.688 382.071H456.312C458.897 382.071 461.376 381.044 463.203 379.216C465.031 377.389 466.058 374.91 466.058 372.325V134.95C466.058 132.365 465.031 129.886 463.203 128.059C461.376 126.231 458.897 125.204 456.312 125.204Z" fill="#4FBB74"/>
<path d="M120.145 304.261C112.675 304.261 105.373 302.046 99.1627 297.896C92.952 293.746 88.1113 287.848 85.2528 280.947C82.3943 274.046 81.6464 266.452 83.1036 259.126C84.5609 251.8 88.1578 245.071 93.4396 239.789C98.7215 234.507 105.451 230.91 112.777 229.453C120.103 227.995 127.697 228.743 134.598 231.602C141.499 234.46 147.397 239.301 151.547 245.512C155.697 251.723 157.912 259.024 157.912 266.494C157.901 276.507 153.918 286.107 146.838 293.187C139.758 300.267 130.158 304.25 120.145 304.261ZM120.145 243.728C115.642 243.728 111.24 245.063 107.496 247.565C103.752 250.067 100.834 253.622 99.111 257.782C97.3878 261.943 96.9369 266.52 97.8154 270.937C98.6939 275.353 100.862 279.41 104.046 282.594C107.23 285.778 111.287 287.946 115.703 288.825C120.12 289.703 124.697 289.252 128.858 287.529C133.018 285.806 136.573 282.888 139.075 279.144C141.577 275.4 142.912 270.998 142.912 266.495C142.905 260.459 140.505 254.672 136.236 250.404C131.968 246.135 126.181 243.735 120.145 243.728Z" fill="white"/>
<path d="M150.412 305.828C148.423 305.828 146.515 305.038 145.109 303.631C143.702 302.225 142.912 300.317 142.912 298.328V236.228C142.912 234.239 143.702 232.331 145.109 230.925C146.515 229.518 148.423 228.728 150.412 228.728C152.401 228.728 154.309 229.518 155.715 230.925C157.122 232.331 157.912 234.239 157.912 236.228V298.328C157.912 300.317 157.122 302.225 155.715 303.631C154.309 305.038 152.401 305.828 150.412 305.828Z" fill="white"/>
<path d="M266.879 347.421C259.409 347.421 252.107 345.206 245.896 341.056C239.685 336.907 234.844 331.008 231.985 324.107C229.126 317.206 228.378 309.612 229.835 302.285C231.293 294.959 234.89 288.229 240.172 282.947C245.453 277.665 252.183 274.068 259.509 272.611C266.836 271.153 274.43 271.901 281.331 274.76C288.232 277.618 294.131 282.459 298.281 288.67C302.431 294.881 304.646 302.183 304.646 309.653C304.635 319.666 300.652 329.266 293.572 336.346C286.492 343.427 276.892 347.41 266.879 347.421ZM266.879 286.887C262.376 286.887 257.974 288.222 254.229 290.724C250.485 293.225 247.567 296.781 245.843 300.942C244.12 305.102 243.669 309.68 244.547 314.097C245.426 318.513 247.594 322.57 250.778 325.754C253.963 328.939 258.02 331.107 262.436 331.986C266.853 332.864 271.431 332.413 275.591 330.69C279.752 328.966 283.307 326.048 285.809 322.304C288.311 318.559 289.646 314.157 289.646 309.654C289.639 303.618 287.238 297.831 282.97 293.563C278.702 289.294 272.915 286.894 266.879 286.887Z" fill="white"/>
<path d="M236.612 348.987C234.623 348.987 232.715 348.197 231.309 346.79C229.902 345.384 229.112 343.476 229.112 341.487V249.525C229.112 247.536 229.902 245.628 231.309 244.222C232.715 242.815 234.623 242.025 236.612 242.025C238.601 242.025 240.509 242.815 241.915 244.222C243.322 245.628 244.112 247.536 244.112 249.525V341.488C244.112 343.477 243.321 345.384 241.915 346.791C240.508 348.197 238.601 348.987 236.612 348.987Z" fill="white"/>
<path d="M380.874 317.541C374.664 317.541 368.55 316.009 363.073 313.082C357.597 310.154 352.927 305.921 349.477 300.758C346.027 295.594 343.904 289.659 343.296 283.479C342.688 277.299 343.613 271.064 345.99 265.327C348.367 259.59 352.122 254.528 356.923 250.589C361.724 246.65 367.422 243.956 373.513 242.745C379.604 241.535 385.9 241.845 391.842 243.649C397.784 245.453 403.19 248.694 407.58 253.086C408.276 253.782 408.829 254.609 409.206 255.519C409.583 256.429 409.777 257.405 409.777 258.389C409.777 259.374 409.583 260.35 409.206 261.26C408.829 262.17 408.276 262.997 407.58 263.693C406.883 264.389 406.057 264.942 405.147 265.319C404.237 265.696 403.261 265.89 402.276 265.89C401.291 265.89 400.316 265.696 399.406 265.319C398.496 264.942 397.669 264.389 396.973 263.693C393.789 260.51 389.732 258.342 385.316 257.464C380.9 256.586 376.323 257.037 372.164 258.76C368.004 260.484 364.449 263.402 361.947 267.145C359.446 270.889 358.111 275.291 358.111 279.793C358.111 284.295 359.446 288.697 361.947 292.441C364.449 296.184 368.004 299.102 372.164 300.826C376.323 302.549 380.9 303 385.316 302.122C389.732 301.244 393.789 299.076 396.973 295.893C397.669 295.197 398.496 294.644 399.406 294.267C400.316 293.89 401.291 293.696 402.276 293.696C403.261 293.696 404.237 293.89 405.147 294.267C406.057 294.644 406.883 295.197 407.58 295.893C408.276 296.589 408.829 297.416 409.206 298.326C409.583 299.236 409.777 300.212 409.777 301.197C409.777 302.181 409.583 303.157 409.206 304.067C408.829 304.977 408.276 305.804 407.58 306.5C404.075 310.009 399.912 312.79 395.328 314.685C390.745 316.58 385.833 317.55 380.874 317.541Z" fill="white"/>
<path opacity="0.1" d="M479.262 93H456.872C461.911 93 466.744 95.0018 470.307 98.565C473.87 102.128 475.872 106.961 475.872 112V359.92H13.7371V395.275C13.7371 400.314 15.7388 405.147 19.302 408.71C22.8652 412.273 27.6979 414.275 32.7371 414.275H479.262C484.301 414.275 489.134 412.273 492.697 408.71C496.26 405.147 498.262 400.314 498.262 395.275V112C498.262 106.961 496.26 102.128 492.697 98.565C489.134 95.0018 484.301 93 479.262 93Z" fill="black"/>
<path d="M502.554 419.43H9.446C6.94077 419.43 4.53814 418.435 2.76667 416.663C0.995201 414.892 0 412.489 0 409.984L0 391.515C0 389.01 0.995201 386.607 2.76667 384.836C4.53814 383.064 6.94077 382.069 9.446 382.069H502.555C505.06 382.069 507.462 383.065 509.234 384.836C511.005 386.607 512 389.01 512 391.515V409.984C512 412.489 511.004 414.892 509.233 416.663C507.462 418.434 505.059 419.43 502.554 419.43Z" fill="#D59C6E"/>
<path opacity="0.1" d="M502.554 382.07H469.038C471.543 382.07 473.946 383.065 475.717 384.837C477.489 386.608 478.484 389.011 478.484 391.516V409.985C478.484 411.225 478.24 412.454 477.765 413.6C477.29 414.746 476.594 415.787 475.717 416.664C474.84 417.541 473.799 418.237 472.653 418.712C471.507 419.187 470.278 419.431 469.038 419.431H502.554C503.794 419.431 505.023 419.187 506.169 418.712C507.315 418.237 508.356 417.541 509.233 416.664C510.11 415.787 510.806 414.746 511.281 413.6C511.756 412.454 512 411.225 512 409.985V391.515C512 389.01 511.004 386.608 509.233 384.836C507.462 383.065 505.059 382.07 502.554 382.07Z" fill="black"/>
<path d="M189.171 337.77H85.657C83.9166 337.77 82.2476 338.461 81.0169 339.692C79.7863 340.923 79.095 342.592 79.095 344.332V359.92H195.733V344.332C195.733 343.47 195.563 342.617 195.233 341.821C194.904 341.025 194.42 340.301 193.811 339.692C193.202 339.083 192.478 338.599 191.682 338.27C190.886 337.94 190.033 337.77 189.171 337.77Z" fill="#394049"/>
<path d="M195.733 359.915H79.1V375.503C79.1 377.243 79.7913 378.912 81.0219 380.143C82.2526 381.374 83.9216 382.065 85.662 382.065H189.171C190.033 382.065 190.886 381.895 191.682 381.566C192.478 381.236 193.202 380.752 193.811 380.143C194.42 379.534 194.904 378.81 195.233 378.014C195.563 377.218 195.733 376.365 195.733 375.503V359.915Z" fill="#EC8087"/>
<path opacity="0.1" d="M189.171 337.77H169.309C171.049 337.77 172.718 338.461 173.949 339.692C175.18 340.923 175.871 342.592 175.871 344.332V375.508C175.871 377.248 175.18 378.917 173.949 380.148C172.718 381.379 171.049 382.07 169.309 382.07H189.171C190.033 382.07 190.886 381.9 191.682 381.571C192.478 381.241 193.202 380.757 193.811 380.148C194.42 379.539 194.904 378.815 195.233 378.019C195.563 377.223 195.733 376.37 195.733 375.508V344.332C195.733 343.47 195.563 342.617 195.233 341.821C194.904 341.025 194.42 340.301 193.811 339.692C193.202 339.083 192.478 338.599 191.682 338.27C190.886 337.94 190.033 337.77 189.171 337.77Z" fill="black"/>
</svg>
