<svg width="512" height="512" viewBox="0 0 512 512" fill="none" xmlns="http://www.w3.org/2000/svg">
<path d="M497.998 365.37L490.437 462.213C490.437 487.94 477.137 508.796 451.415 508.796H89.0051C48.3261 508.796 14.0051 475.819 14.0051 435.141V80.812C13.9981 36.733 51.0821 1 95.1611 1H449.855C456.177 0.999606 462.437 2.24449 468.278 4.66358C474.119 7.08266 479.427 10.6286 483.897 15.0988C488.368 19.5691 491.914 24.8761 494.333 30.7169C496.753 36.5577 497.998 42.8179 497.998 49.14V365.37Z" fill="#7CE0CF"/>
<path d="M86.8531 1.43103C46.6791 5.58703 13.998 39.539 13.998 80.812V435.141C13.998 475.098 47.17 507.6 86.85 508.741V1.43103H86.8531Z" fill="#65D6C0"/>
<path d="M497.998 367.009H71.934C39.193 367.009 14 393.551 14 426.292V452.718C13.998 485.459 39.193 512 71.934 512H459.734C469.882 511.999 479.615 507.968 486.79 500.792C493.966 493.616 497.998 483.883 497.998 473.735V367.009Z" fill="#FFFDDE"/>
<path d="M497.998 415.1V367.009H71.934C39.193 367.009 14 393.551 14 426.292V452.718C14 481.977 34.126 506.268 61.771 511.108C150.971 394.833 459.335 414.608 497.996 415.1H497.998Z" fill="#FCF3B4"/>
<path d="M391.859 207.611H176.817C166.218 207.58 156.062 203.356 148.567 195.861C141.073 188.366 136.848 178.21 136.817 167.611V117.968C136.848 107.369 141.073 97.2128 148.567 89.7181C156.062 82.2234 166.218 77.9991 176.817 77.968H391.859C402.458 77.9991 412.614 82.2234 420.109 89.7181C427.604 97.2128 431.828 107.369 431.859 117.968V167.611C431.828 178.21 427.604 188.366 420.109 195.861C412.614 203.356 402.458 207.58 391.859 207.611Z" fill="white"/>
<path d="M382.107 269.681H186.568C184.523 269.681 182.562 268.869 181.115 267.423C179.669 265.976 178.857 264.015 178.857 261.97C178.857 259.925 179.669 257.964 181.115 256.518C182.562 255.071 184.523 254.259 186.568 254.259H382.107C384.152 254.259 386.113 255.071 387.559 256.518C389.006 257.964 389.818 259.925 389.818 261.97C389.818 264.015 389.006 265.976 387.559 267.423C386.113 268.869 384.152 269.681 382.107 269.681Z" fill="#65D6C0"/>
<path d="M351.047 316.51H217.629C215.584 316.51 213.623 315.698 212.176 314.251C210.73 312.805 209.918 310.844 209.918 308.799C209.918 306.754 210.73 304.793 212.176 303.346C213.623 301.9 215.584 301.088 217.629 301.088H351.047C353.092 301.088 355.053 301.9 356.499 303.346C357.946 304.793 358.758 306.754 358.758 308.799C358.758 310.844 357.946 312.805 356.499 314.251C355.053 315.698 353.092 316.51 351.047 316.51Z" fill="#65D6C0"/>
<path d="M497.998 456.2H102.022C99.9769 456.2 98.0156 457.012 96.5695 458.458C95.1234 459.905 94.311 461.866 94.311 463.911C94.311 465.956 95.1234 467.917 96.5695 469.363C98.0156 470.81 99.9769 471.622 102.022 471.622H497.998V456.2Z" fill="#F4D37F"/>
<path d="M94.311 415.1C94.311 417.145 95.1234 419.106 96.5695 420.552C98.0156 421.999 99.9769 422.811 102.022 422.811H497.998V407.388H102.022C101.009 407.388 100.007 407.587 99.0709 407.975C98.1353 408.363 97.2852 408.931 96.5692 409.647C95.8531 410.363 95.2852 411.213 94.8977 412.149C94.5103 413.084 94.3109 414.087 94.311 415.1Z" fill="#F4D37F"/>
</svg>
