<svg width="512" height="512" viewBox="0 0 512 512" fill="none" xmlns="http://www.w3.org/2000/svg">
<path d="M391.209 305.976C389.164 305.976 387.203 305.164 385.757 303.718C384.31 302.271 383.498 300.31 383.498 298.265C383.498 296.22 384.31 294.259 385.757 292.813C387.203 291.366 389.164 290.554 391.209 290.554C422.42 290.554 451.453 282.602 466.661 266.92C485.767 247.22 485.2 221.409 485.193 221.151C485.142 219.121 485.893 217.153 487.284 215.673C488.675 214.194 490.593 213.323 492.623 213.249C494.652 213.176 496.628 213.906 498.123 215.281C499.617 216.656 500.509 218.565 500.604 220.593C500.654 221.902 501.548 252.921 477.925 277.456C459.705 296.38 426.881 305.976 391.209 305.976Z" fill="#C18C68"/>
<path d="M299.259 291.022C291.999 291.044 285.042 293.938 279.908 299.072C274.775 304.205 271.881 311.162 271.859 318.422V320.438H194.209V318.422C194.209 311.154 191.322 304.184 186.183 299.045C181.044 293.906 174.074 291.019 166.806 291.019C159.538 291.019 152.568 293.906 147.429 299.045C142.29 304.184 139.403 311.154 139.403 318.422V320.438L112.002 483.6C112.002 490.868 114.889 497.838 120.028 502.977C125.167 508.116 132.137 511.003 139.405 511.003C146.673 511.003 153.643 508.116 158.782 502.977C163.921 497.838 166.808 490.868 166.808 483.6L191.152 385.83C192.026 382.323 194.048 379.209 196.895 376.983C199.743 374.757 203.254 373.548 206.868 373.547H259.034C262.683 373.548 266.225 374.781 269.087 377.046C271.948 379.311 273.96 382.476 274.798 386.028L297.791 483.6C297.791 490.868 300.678 497.838 305.817 502.977C310.956 508.116 317.926 511.003 325.194 511.003C332.462 511.003 339.432 508.116 344.571 502.977C349.71 497.838 352.597 490.868 352.597 483.6L326.663 320.44V318.424C326.641 311.164 323.747 304.207 318.613 299.074C313.48 293.94 306.523 291.046 299.263 291.024L299.259 291.022Z" fill="#E1B191"/>
<path d="M331.298 349.605L326.662 320.44V318.424C326.662 311.156 323.775 304.186 318.636 299.047C313.497 293.908 306.527 291.021 299.259 291.021C291.991 291.021 285.021 293.908 279.882 299.047C274.743 304.186 271.856 311.156 271.856 318.424V320.44H194.209V318.424C194.209 311.156 191.322 304.186 186.183 299.047C181.044 293.908 174.074 291.021 166.806 291.021C159.538 291.021 152.568 293.908 147.429 299.047C142.29 304.186 139.403 311.156 139.403 318.424V320.44L112.002 483.6C112.024 490.509 114.647 497.156 119.348 502.219C124.05 507.281 130.486 510.387 137.374 510.919C139.334 503.126 139.341 493.606 139.74 488.483C140.644 476.895 141.95 465.348 143.657 453.841C145.598 440.758 148.055 427.765 151.026 414.862C155.426 395.762 161.935 375.462 177.867 364.048C192.111 353.848 210.793 352.978 228.309 352.488L331.298 349.608V349.605Z" fill="#D9A37E"/>
<path d="M291.479 308.437H173.12C134.55 308.437 102.994 285.946 102.994 258.456L129.294 49.981C129.291 22.491 160.848 0 199.417 0H265.181C303.751 0 335.309 22.491 335.309 49.981L361.609 258.456C361.609 285.946 330.048 308.437 291.479 308.437Z" fill="#FEE2C1"/>
<path d="M437.283 127.513H302.697C294.605 127.513 286.844 130.727 281.123 136.449C275.401 142.171 272.186 149.932 272.186 158.024V174.339H453.269V143.5C453.269 141.401 452.856 139.322 452.052 137.382C451.249 135.443 450.072 133.68 448.587 132.196C447.103 130.711 445.34 129.534 443.401 128.731C441.461 127.927 439.382 127.514 437.283 127.514V127.513Z" fill="#F9EF90"/>
<path d="M165.292 262.659H79.0151C72.3051 262.659 65.87 259.993 61.1253 255.249C56.3806 250.504 53.7151 244.069 53.7151 237.359V141.942C53.7151 135.232 56.3806 128.797 61.1253 124.052C65.87 119.307 72.3051 116.642 79.0151 116.642H152.598C160.907 116.642 168.876 119.943 174.752 125.818C180.627 131.694 183.928 139.663 183.928 147.972V244.028C183.927 248.97 181.963 253.709 178.468 257.202C174.973 260.696 170.234 262.659 165.292 262.659Z" fill="#B3E6FD"/>
<path d="M150.239 153.219H120.422C118.377 153.219 116.416 154.031 114.969 155.477C113.523 156.924 112.711 158.885 112.711 160.93C112.711 162.975 113.523 164.936 114.969 166.383C116.416 167.829 118.377 168.641 120.422 168.641H150.239C152.284 168.641 154.245 167.829 155.691 166.383C157.138 164.936 157.95 162.975 157.95 160.93C157.95 158.885 157.138 156.924 155.691 155.477C154.245 154.031 152.284 153.219 150.239 153.219Z" fill="#4B555F"/>
<path d="M87.439 116.638H72.016C65.1161 116.638 58.4989 119.379 53.6199 124.258C48.741 129.137 46 135.754 46 142.654V236.643C46 243.543 48.741 250.16 53.6199 255.039C58.4989 259.918 65.1161 262.659 72.016 262.659H87.439V116.638Z" fill="#7DD5FB"/>
<path d="M366.141 331.473H98.4569C90.9452 331.451 83.7475 328.457 78.436 323.145C73.1244 317.834 70.1308 310.636 70.1089 303.124V288.976C70.1308 281.464 73.1246 274.266 78.4363 268.954C83.748 263.643 90.946 260.649 98.4579 260.627H366.14C373.652 260.649 380.85 263.643 386.161 268.954C391.473 274.266 394.467 281.464 394.489 288.976V303.124C394.467 310.636 391.474 317.834 386.162 323.146C380.851 328.457 373.653 331.451 366.141 331.473Z" fill="#FEF2D3"/>
<path d="M312.253 170.351V127.513H303.553C295.233 127.513 287.254 130.818 281.371 136.701C275.488 142.584 272.183 150.563 272.183 158.883V174.338H312.249L312.253 170.351Z" fill="#F4D37F"/>
<path d="M500.618 220.884H239.829C234.507 220.884 229.402 218.77 225.639 215.006C221.875 211.243 219.761 206.138 219.761 200.816V189.384C219.761 184.062 221.875 178.957 225.639 175.194C229.402 171.43 234.507 169.316 239.829 169.316H460.482C471.127 169.316 481.335 173.545 488.862 181.072C496.389 188.599 500.618 198.807 500.618 209.452V220.884Z" fill="#E1B191"/>
</svg>
