<svg width="515" height="512" viewBox="0 0 515 512" fill="none" xmlns="http://www.w3.org/2000/svg">
<path d="M228.689 408.73H198.166V488.107C198.166 489.913 198.884 491.646 200.161 492.923C201.438 494.2 203.171 494.918 204.977 494.918H221.877C223.683 494.918 225.416 494.2 226.693 492.923C227.97 491.646 228.688 489.913 228.688 488.107V408.73H228.689Z" fill="#D2996F"/>
<path d="M321.5 408.73H352.023V488.107C352.023 489.913 351.306 491.645 350.028 492.923C348.751 494.2 347.019 494.918 345.213 494.918H328.313C326.507 494.918 324.774 494.2 323.497 492.923C322.22 491.646 321.502 489.913 321.502 488.107L321.5 408.73Z" fill="#D2996F"/>
<path d="M314.728 191.074H235.46C228.205 191.074 221.248 193.956 216.118 199.085C210.989 204.215 208.107 211.173 208.107 218.427V366.95H342.08V218.427C342.08 214.835 341.373 211.278 339.998 207.96C338.624 204.641 336.609 201.626 334.069 199.086C331.529 196.546 328.514 194.531 325.195 193.156C321.877 191.781 318.32 191.074 314.728 191.074Z" fill="#A3DEFE"/>
<path d="M263.8 191.074H235.46C228.205 191.074 221.248 193.956 216.118 199.085C210.989 204.215 208.107 211.173 208.107 218.427V366.95H295.46C273.117 322.55 259.653 244.132 263.805 191.074H263.8Z" fill="#7ACEFA"/>
<path d="M352.021 408.73H198.165C196.212 408.73 194.282 408.303 192.512 407.478C190.741 406.653 189.173 405.451 187.916 403.955C186.66 402.46 185.746 400.708 185.238 398.821C184.731 396.935 184.642 394.961 184.979 393.037L186.479 384.488C187.339 379.576 189.902 375.125 193.72 371.918C197.537 368.71 202.364 366.951 207.35 366.951H342.85C347.836 366.951 352.663 368.71 356.48 371.918C360.298 375.125 362.862 379.576 363.721 384.488L365.221 393.037C365.558 394.962 365.469 396.938 364.961 398.825C364.452 400.712 363.537 402.465 362.279 403.96C361.021 405.456 359.451 406.658 357.679 407.482C355.906 408.306 353.975 408.732 352.021 408.73Z" fill="#E1B89A"/>
<path d="M494.906 331.619H55.28C49.9508 331.619 44.8398 329.502 41.0714 325.734C37.3031 321.965 35.186 316.854 35.186 311.525V299.386C35.186 294.057 37.3031 288.946 41.0714 285.177C44.8398 281.409 49.9508 279.292 55.28 279.292H494.906C500.235 279.292 505.346 281.409 509.115 285.177C512.883 288.946 515 294.057 515 299.386V311.525C515 316.854 512.883 321.965 509.115 325.734C505.346 329.502 500.235 331.619 494.906 331.619Z" fill="#E1B89A"/>
<path d="M106.395 494.918H80.4288C77.3502 494.918 74.3976 493.695 72.2207 491.518C70.0438 489.341 68.8208 486.389 68.8208 483.31V331.619H118V483.31C118 486.388 116.777 489.34 114.601 491.517C112.425 493.694 109.473 494.917 106.395 494.918Z" fill="#E1B89A"/>
<path d="M68.8208 331.619H118V366.95H68.8208V331.619Z" fill="#D2996F"/>
<path d="M443.792 494.918H469.758C472.837 494.918 475.789 493.695 477.966 491.518C480.143 489.341 481.366 486.389 481.366 483.31V331.619H432.184V483.31C432.184 486.389 433.407 489.341 435.584 491.518C437.761 493.695 440.713 494.918 443.792 494.918Z" fill="#E1B89A"/>
<path d="M432.184 331.619H481.366V366.95H432.184V331.619Z" fill="#D2996F"/>
<path d="M208.4 236.741H30.816C23.4387 236.741 16.3636 233.81 11.1471 228.594C5.93061 223.377 3 216.302 3 208.925L3 102.817C3 95.4397 5.93061 88.3646 11.1471 83.1481C16.3636 77.9316 23.4387 75.001 30.816 75.001H208.4C212.053 75.001 215.67 75.7205 219.045 77.1183C222.42 78.5162 225.486 80.5651 228.069 83.1481C230.652 85.731 232.701 88.7975 234.099 92.1723C235.497 95.547 236.216 99.1641 236.216 102.817V208.925C236.216 212.578 235.497 216.195 234.099 219.57C232.701 222.945 230.652 226.011 228.069 228.594C225.486 231.177 222.42 233.226 219.045 234.624C215.67 236.022 212.053 236.741 208.4 236.741Z" fill="#C6C6C6"/>
<path d="M78.323 75H30.816C23.4386 75.0003 16.3635 77.9311 11.1471 83.1478C5.93057 88.3644 3 95.4396 3 102.817L3 208.925C3 216.302 5.93061 223.377 11.1471 228.594C16.3636 233.81 23.4387 236.741 30.816 236.741H99.329C72.889 209.07 61.252 131.397 78.323 75Z" fill="#9AA3B1"/>
<path d="M122.55 149.624C132.666 147.984 139.538 138.454 137.898 128.338C136.258 118.222 126.728 111.351 116.612 112.991C106.496 114.631 99.6243 124.161 101.264 134.277C102.904 144.393 112.434 151.264 122.55 149.624Z" fill="#9AA3B1"/>
<path d="M133.806 192.859H105.414C102.515 192.859 99.7152 193.912 97.5352 195.823C95.3551 197.733 93.9434 200.37 93.5628 203.244L84.4758 271.859C84.3574 272.752 84.4311 273.659 84.6919 274.521C84.9527 275.383 85.3947 276.179 85.9881 276.857C86.5816 277.534 87.3129 278.076 88.133 278.448C88.9532 278.82 89.8433 279.012 90.7438 279.012H148.476C149.376 279.012 150.266 278.82 151.087 278.448C151.907 278.076 152.638 277.534 153.231 276.857C153.825 276.179 154.267 275.383 154.528 274.521C154.788 273.659 154.862 272.752 154.744 271.859L145.657 203.248C145.277 200.374 143.866 197.735 141.686 195.824C139.505 193.913 136.705 192.859 133.806 192.859Z" fill="#9AA3B1"/>
<path d="M448.564 183.69H469.594C471.381 183.69 473.095 184.4 474.358 185.664C475.622 186.927 476.332 188.641 476.332 190.428V272.559C476.332 274.346 475.622 276.06 474.358 277.323C473.095 278.587 471.381 279.297 469.594 279.297H448.564C446.777 279.297 445.063 278.587 443.799 277.323C442.536 276.06 441.826 274.346 441.826 272.559V190.428C441.826 189.543 442 188.667 442.339 187.849C442.677 187.032 443.173 186.289 443.799 185.663C444.425 185.038 445.168 184.541 445.985 184.203C446.803 183.864 447.679 183.69 448.564 183.69Z" fill="#E8899E"/>
<path d="M414.058 183.69H435.088C436.875 183.69 438.589 184.4 439.853 185.664C441.116 186.927 441.826 188.641 441.826 190.428V272.559C441.826 274.346 441.116 276.06 439.853 277.323C438.589 278.587 436.875 279.297 435.088 279.297H414.058C412.271 279.297 410.557 278.587 409.294 277.323C408.03 276.06 407.32 274.346 407.32 272.559V190.428C407.32 188.641 408.03 186.927 409.294 185.664C410.557 184.4 412.271 183.69 414.058 183.69Z" fill="#89D47F"/>
<path d="M407.32 214.215H441.825V248.767H407.32V214.215Z" fill="#5EC783"/>
<path d="M441.826 200.343H476.331V215.343H441.826V200.343Z" fill="#F7EF87"/>
<path d="M174.355 190.9C172.366 190.9 170.458 190.11 169.052 188.703C167.645 187.297 166.855 185.389 166.855 183.4V176.018C166.855 174.029 167.645 172.121 169.052 170.715C170.458 169.308 172.366 168.518 174.355 168.518C176.344 168.518 178.252 169.308 179.658 170.715C181.065 172.121 181.855 174.029 181.855 176.018V183.4C181.855 185.389 181.065 187.297 179.658 188.703C178.252 190.11 176.344 190.9 174.355 190.9Z" fill="#4E5660"/>
<path d="M200.956 190.9C198.967 190.9 197.059 190.11 195.653 188.703C194.246 187.297 193.456 185.389 193.456 183.4V176.018C193.456 174.029 194.246 172.121 195.653 170.715C197.059 169.308 198.967 168.518 200.956 168.518C202.945 168.518 204.853 169.308 206.259 170.715C207.666 172.121 208.456 174.029 208.456 176.018V183.4C208.456 185.389 207.666 187.297 206.259 188.703C204.853 190.11 202.945 190.9 200.956 190.9Z" fill="#4E5660"/>
</svg>
