<svg width="512" height="512" viewBox="0 0 512 512" fill="none" xmlns="http://www.w3.org/2000/svg">
<path d="M120.393 362.393L410.393 72.3931L431.606 93.6063L141.606 383.606L120.393 362.393Z" fill="#B9BBFC"/>
<path d="M396.562 333.215C423.252 302.666 437.335 263.115 435.957 222.573C434.579 182.03 417.844 143.526 389.142 114.86C388.601 114.319 388.05 113.794 387.503 113.26C357.829 84.4208 318.137 68.1996 276.758 68.0019C235.38 67.8043 195.534 83.6456 165.587 112.2C164.669 113.075 163.76 113.962 162.859 114.86C132.851 144.867 115.992 185.566 115.992 228.002C115.991 270.439 132.849 311.138 162.856 341.146C192.863 371.154 233.561 388.012 275.998 388.013C318.435 388.013 359.134 371.156 389.142 341.149C391.721 338.568 394.194 335.924 396.562 333.215Z" fill="#7CE3FF"/>
<path d="M230.242 182.245C234.801 177.686 239.603 173.376 244.626 169.335C267.349 151.14 294.2 138.815 322.81 133.446C351.421 128.077 380.913 129.829 408.686 138.548C402.942 130.047 396.398 122.115 389.142 114.861C388.601 114.32 388.05 113.795 387.503 113.261C357.83 84.4214 318.137 68.1998 276.759 68.002C235.38 67.8041 195.534 83.6454 165.586 112.2C164.669 113.075 163.76 113.962 162.858 114.86C146.179 131.557 133.397 151.735 125.428 173.95C117.46 196.165 114.501 219.868 116.765 243.36C119.029 266.852 126.458 289.553 138.522 309.838C150.586 330.122 166.985 347.489 186.546 360.694C176.807 329.798 175.732 296.823 183.436 265.358C191.141 233.893 207.331 205.146 230.242 182.245Z" fill="#55DAFE"/>
<path d="M387.502 113.261C357.829 84.4215 318.136 68.1999 276.757 68.0021C235.379 67.8042 195.533 83.6455 165.586 112.2L165.592 164.424C165.591 168.724 163.883 172.848 160.842 175.889C157.802 178.93 153.678 180.639 149.378 180.64H123.141C114.213 209.582 113.643 240.457 121.497 269.709C138.554 269.369 154.799 262.356 166.745 250.174C178.69 237.993 185.384 221.614 185.391 204.553C185.391 193.364 184.151 184.709 192.462 176.397C196.99 171.869 203.13 169.326 209.534 169.325H244.378C244.46 169.325 244.539 169.333 244.62 169.334C247.941 169.381 251.173 170.416 253.904 172.308C256.634 174.2 258.739 176.863 259.95 179.956L264.062 190.47C265.536 194.407 265.532 198.745 264.051 202.679C263.207 205.031 263.079 207.581 263.684 210.006C264.29 212.431 265.6 214.622 267.451 216.302C272.351 220.765 280.439 220.317 285.129 215.628L307.323 193.433C320.014 180.741 336.444 172.455 354.195 169.795C371.95 167.137 388.383 158.851 401.078 146.156L408.687 138.547C403.396 130.721 397.425 123.377 390.845 116.6L387.502 113.261Z" fill="#00CE8E"/>
<path d="M408.686 138.546C403.389 130.727 397.42 123.386 390.846 116.605L387.503 113.262C357.83 84.4223 318.137 68.2006 276.759 68.0026C235.38 67.8045 195.534 83.6456 165.587 112.2L165.593 164.424C165.593 168.725 163.884 172.849 160.843 175.89C157.803 178.932 153.678 180.64 149.378 180.641H123.142C114.214 209.583 113.644 240.458 121.498 269.71C138.555 269.37 154.8 262.357 166.746 250.175C178.691 237.994 185.385 221.615 185.392 204.554C185.392 193.365 184.152 184.71 192.463 176.398C196.991 171.87 203.131 169.327 209.535 169.326H244.384C244.466 169.326 244.545 169.334 244.626 169.335C267.338 151.12 294.188 138.782 322.803 133.412C351.418 128.042 380.915 129.806 408.686 138.547V138.546Z" fill="#00B27A"/>
<path d="M422.426 163.415L420.701 165.14C402.489 183.35 394.883 215.64 412.948 233.708C415.536 236.296 416.99 239.806 416.99 243.466C416.99 247.127 415.536 250.637 412.948 253.225C410.36 255.813 406.85 257.267 403.189 257.267C399.529 257.267 396.019 255.813 393.431 253.225C385.967 245.76 384.431 245.897 373.819 245.897C358.985 245.897 353.325 264.034 361.38 272.088C372.463 283.172 372.18 282.669 385.334 282.669C392.943 282.671 400.25 285.646 405.696 290.961L417.51 302.77C428.762 281.409 435.048 257.783 435.899 233.654C436.75 209.526 432.145 185.516 422.426 163.415Z" fill="#00CE8E"/>
<path d="M389.142 341.148C391.722 338.568 394.195 335.924 396.562 333.215L334.178 270.825C326.389 263.04 315.828 258.667 304.816 258.667C293.804 258.667 283.243 263.04 275.455 270.825L263.942 282.338C254.017 292.264 248.442 305.725 248.442 319.761C248.442 333.396 243.412 346.477 232.622 357.52C226.975 363.288 223.26 370.668 221.989 378.64C250.539 388.876 281.411 390.787 311.006 384.149C340.6 377.511 367.698 362.598 389.142 341.148Z" fill="#00CE8E"/>
<path d="M451.563 92.437L431.563 72.437C411.152 51.9238 386.896 35.6387 360.182 24.5144C333.468 13.3902 304.822 7.64532 275.885 7.60894C246.948 7.57255 218.287 13.2453 191.546 24.3024C164.804 35.3594 140.507 51.5835 120.045 72.0453C99.5831 92.5071 83.3591 116.805 72.302 143.546C61.245 170.288 55.5722 198.948 55.6086 227.885C55.645 256.823 61.3898 285.469 72.514 312.182C83.6383 338.896 99.9234 363.153 120.437 383.563C140.818 404.056 165.061 420.303 191.763 431.364C218.466 442.425 247.097 448.079 276 448H169.5C161.941 448 154.692 451.003 149.347 456.347C144.002 461.692 141 468.941 141 476.5C141 484.059 144.002 491.308 149.347 496.653C154.692 501.997 161.941 505 169.5 505H382.5C390.058 505 397.307 501.997 402.652 496.653C407.997 491.308 411 484.059 411 476.5C411 468.941 407.997 461.692 402.652 456.347C397.307 451.003 390.058 448 382.5 448H296C299.978 448 303.793 446.42 306.606 443.607C309.419 440.794 311 436.978 311 433C311 429.022 309.419 425.206 306.606 422.393C303.793 419.58 299.978 418 296 418H276C225.608 418 177.281 397.982 141.649 362.35C106.017 326.718 85.9996 278.391 85.9996 228C85.9996 123.233 171.233 38 276 38C300.961 37.932 325.688 42.8154 348.749 52.3675C371.81 61.9197 392.748 75.9508 410.351 93.649L430.351 113.649C431.738 115.066 433.393 116.194 435.219 116.968C437.045 117.741 439.006 118.145 440.99 118.156C442.973 118.166 444.939 117.783 446.773 117.029C448.607 116.275 450.274 115.165 451.676 113.763C453.079 112.36 454.189 110.694 454.943 108.859C455.697 107.025 456.08 105.059 456.069 103.076C456.059 101.093 455.655 99.1313 454.881 97.3052C454.108 95.479 452.98 93.8243 451.563 92.437Z" fill="#FF8F71"/>
<path d="M247.5 476.5C247.5 468.941 250.502 461.692 255.847 456.347C261.192 451.003 268.441 448 276 448H169.5C161.941 448 154.692 451.003 149.347 456.347C144.002 461.692 141 468.941 141 476.5C141 484.059 144.002 491.308 149.347 496.653C154.692 501.997 161.941 505 169.5 505H276C268.441 505 261.192 501.997 255.847 496.653C250.502 491.308 247.5 484.059 247.5 476.5Z" fill="#FF6F4D"/>
</svg>
