<svg width="512" height="512" viewBox="0 0 512 512" fill="none" xmlns="http://www.w3.org/2000/svg">
<path d="M237.081 10.006C200.555 66 215.597 128.765 215.597 128.765H295.678C295.678 128.765 310.721 66 274.194 10.006C272.172 6.93146 269.418 4.4075 266.179 2.66099C262.94 0.914469 259.317 0.00012207 255.638 0.00012207C251.958 0.00012207 248.336 0.914469 245.096 2.66099C241.857 4.4075 239.103 6.93146 237.081 10.006Z" fill="#FF737D"/>
<path d="M277.195 14.811C276.235 13.2036 275.235 11.6036 274.195 10.011C272.173 6.93621 269.419 4.41205 266.18 2.66538C262.941 0.918706 259.318 0.00427246 255.638 0.00427246C251.958 0.00427246 248.336 0.918706 245.097 2.66538C241.858 4.41205 239.104 6.93621 237.082 10.011C200.554 66 215.597 128.765 215.597 128.765H258.706C258.706 128.765 244.518 69.527 277.195 14.811Z" fill="#FF5555"/>
<path d="M348.672 216.029H162.603V145.053C162.603 140.364 163.526 135.721 165.321 131.388C167.115 127.056 169.745 123.12 173.061 119.804C176.377 116.488 180.313 113.858 184.645 112.064C188.978 110.269 193.621 109.346 198.31 109.346H312.965C317.654 109.346 322.297 110.269 326.63 112.064C330.962 113.858 334.898 116.488 338.214 119.804C341.53 123.12 344.16 127.056 345.954 131.388C347.749 135.721 348.672 140.364 348.672 145.053V216.029Z" fill="#CAE7FC"/>
<path d="M273.675 109.346H198.31C193.621 109.346 188.977 110.269 184.645 112.064C180.313 113.858 176.376 116.489 173.061 119.804C169.745 123.12 167.115 127.057 165.321 131.389C163.526 135.721 162.603 140.365 162.603 145.054V216.029H237.968V145.053C237.968 140.364 238.891 135.721 240.686 131.388C242.48 127.056 245.11 123.12 248.426 119.804C251.742 116.488 255.678 113.858 260.01 112.064C264.343 110.269 268.986 109.346 273.675 109.346Z" fill="#94CBED"/>
<path d="M368.714 512H142.561C128.621 512 115.252 506.462 105.395 496.605C95.5377 486.748 90 473.379 90 459.439V223.054C90 209.114 95.5377 195.745 105.395 185.888C115.252 176.031 128.621 170.493 142.561 170.493H368.714C382.654 170.493 396.023 176.031 405.88 185.888C415.737 195.745 421.275 209.114 421.275 223.054V459.439C421.275 473.379 415.737 486.748 405.88 496.605C396.023 506.462 382.654 512 368.714 512Z" fill="#E9F6FF"/>
<path d="M202.668 459.439V223.054C202.668 209.114 208.206 195.745 218.063 185.888C227.92 176.031 241.289 170.493 255.229 170.493H142.561C128.621 170.493 115.252 176.031 105.395 185.888C95.5377 195.745 90 209.114 90 223.054V459.439C90 473.379 95.5377 486.748 105.395 496.605C115.252 506.462 128.621 512 142.561 512H255.229C241.289 512 227.92 506.462 218.063 496.605C208.206 486.748 202.668 473.379 202.668 459.439Z" fill="#BAEBF4"/>
<path d="M421.28 259.647H90.0049V422.859H421.28V259.647Z" fill="#7DE2E2"/>
<path d="M202.676 259.647H90.0049V422.859H202.676V259.647Z" fill="#66D3D0"/>
</svg>
