<svg width="512" height="512" viewBox="0 0 512 512" fill="none" xmlns="http://www.w3.org/2000/svg">
<path d="M375.66 472.152L382.46 456.539C387.208 445.643 389.658 433.885 389.658 422C389.658 410.114 387.208 398.356 382.46 387.46L375.66 371.847H146.135C155.2 387.004 159.988 404.335 159.988 421.997C159.988 439.659 155.2 456.99 146.135 472.147L375.66 472.152Z" fill="#EFEDFF"/>
<path d="M264.772 387.46L257.972 371.847H146.135C155.2 387.004 159.988 404.335 159.988 421.997C159.988 439.659 155.2 456.99 146.135 472.147H257.969L264.769 456.534C269.517 445.638 271.967 433.88 271.967 421.995C271.967 410.109 269.517 398.351 264.769 387.455L264.772 387.46Z" fill="#D4D4FF"/>
<path d="M361.051 505H144.425C136.622 505 129.138 501.9 123.62 496.382C118.101 490.864 115.001 483.38 115.001 475.576C115.001 467.772 118.101 460.288 123.62 454.77C129.138 449.252 136.622 446.152 144.425 446.152H356.919C360.237 438.533 361.95 430.312 361.95 422.002C361.95 413.692 360.237 405.471 356.919 397.852H144.425C136.622 397.852 129.138 394.752 123.62 389.234C118.101 383.716 115.001 376.232 115.001 368.428C115.001 360.624 118.101 353.14 123.62 347.622C129.138 342.104 136.622 339.004 144.425 339.004H361.051C370.547 338.951 379.875 341.507 388.017 346.395C396.158 351.282 402.801 358.312 407.218 366.718C416.137 383.782 420.795 402.75 420.795 422.004C420.795 441.258 416.137 460.226 407.218 477.29C402.8 485.695 396.158 492.725 388.016 497.611C379.875 502.498 370.547 505.054 361.051 505Z" fill="#64B3FB"/>
<path d="M254.999 475.576C254.999 467.772 258.099 460.288 263.617 454.77C269.135 449.252 276.619 446.152 284.423 446.152H144.423C136.619 446.152 129.135 449.252 123.617 454.77C118.099 460.288 114.999 467.772 114.999 475.576C114.999 483.38 118.099 490.864 123.617 496.382C129.135 501.9 136.619 505 144.423 505H284.423C276.619 505 269.135 501.9 263.617 496.382C258.099 490.864 254.999 483.38 254.999 475.576Z" fill="#53A3EC"/>
<path d="M254.998 368.424C254.999 364.56 255.76 360.733 257.239 357.163C258.718 353.593 260.885 350.35 263.618 347.617C266.35 344.885 269.594 342.718 273.165 341.239C276.735 339.761 280.561 339 284.425 339H144.425C136.622 339 129.138 342.1 123.62 347.618C118.101 353.136 115.001 360.62 115.001 368.424C115.001 376.228 118.101 383.712 123.62 389.23C129.138 394.748 136.622 397.848 144.425 397.848H284.425C280.561 397.848 276.735 397.087 273.165 395.609C269.594 394.13 266.35 391.963 263.618 389.231C260.885 386.498 258.718 383.255 257.239 379.685C255.76 376.115 254.999 372.288 254.998 368.424Z" fill="#53A3EC"/>
<path d="M345.368 40.8489H115.844L109.044 56.4609C104.296 67.3568 101.845 79.1147 101.845 91.0004C101.845 102.886 104.296 114.644 109.044 125.54L115.844 141.153H345.368C334.006 126.906 327.818 109.224 327.818 91.0009C327.818 72.778 334.006 55.0953 345.368 40.8489Z" fill="#EFEDFF"/>
<path d="M219.041 56.4599L225.841 40.8469H115.841L109.041 56.4599C104.292 67.3558 101.841 79.1138 101.841 90.9994C101.841 102.885 104.292 114.643 109.041 125.539L115.841 141.152H225.841L219.041 125.539C214.293 114.643 211.842 102.885 211.842 90.9994C211.842 79.1139 214.293 67.3559 219.041 56.4599Z" fill="#D4D4FF"/>
<path d="M345.369 174H128.743C119.248 174.053 109.92 171.497 101.778 166.609C93.6367 161.722 86.9944 154.692 82.5765 146.286C73.658 129.222 69 110.254 69 91C69 71.746 73.658 52.7778 82.5765 35.714C86.9944 27.3084 93.6367 20.2781 101.778 15.3907C109.92 10.5033 119.248 7.94671 128.743 7.99996H345.369C353.173 7.99996 360.657 11.1 366.175 16.6181C371.693 22.1361 374.793 29.6202 374.793 37.424C374.793 45.2277 371.693 52.7118 366.175 58.2299C360.657 63.7479 353.173 66.848 345.369 66.848H132.875C129.558 74.467 127.845 82.6879 127.845 90.998C127.845 99.308 129.558 107.529 132.875 115.148H345.369C349.233 115.148 353.06 115.909 356.63 117.388C360.199 118.866 363.443 121.034 366.175 123.766C368.908 126.498 371.075 129.742 372.554 133.312C374.032 136.882 374.793 140.708 374.793 144.572C374.793 148.436 374.032 152.262 372.554 155.832C371.075 159.402 368.908 162.646 366.175 165.378C363.443 168.11 360.199 170.277 356.63 171.756C353.06 173.235 349.233 173.996 345.369 173.996V174Z" fill="#FF8F71"/>
<path d="M215.284 115.152H132.875C129.558 107.533 127.845 99.312 127.845 91.002C127.845 82.6919 129.558 74.471 132.875 66.852H215.284C195.19 46.3 207.865 11.632 236.474 8.88896L245.743 7.99996H128.743C119.248 7.94671 109.92 10.5033 101.778 15.3907C93.6367 20.2781 86.9944 27.3084 82.5765 35.714C73.658 52.7778 69 71.746 69 91C69 110.254 73.658 129.222 82.5765 146.286C86.9944 154.692 93.6367 161.722 101.778 166.609C109.92 171.497 119.248 174.053 128.743 174H245.743L236.475 173.111C207.865 170.368 195.191 135.701 215.284 115.152Z" fill="#FF6F4D"/>
<path d="M208.773 206.348L201.973 221.961C197.225 232.857 194.775 244.615 194.775 256.5C194.775 268.386 197.225 280.144 201.973 291.04L208.773 306.653H438.298L432.998 297.789C425.534 285.31 421.592 271.041 421.592 256.5C421.592 241.959 425.534 227.691 432.998 215.212L438.298 206.348H208.773Z" fill="#EFEDFF"/>
<path d="M311.97 221.96L318.77 206.347H208.77L201.97 221.96C197.222 232.856 194.771 244.614 194.771 256.499C194.771 268.385 197.222 280.143 201.97 291.039L208.77 306.652H318.77L311.97 291.039C307.222 280.143 304.771 268.385 304.771 256.499C304.771 244.614 307.222 232.856 311.97 221.96Z" fill="#D4D4FF"/>
<path d="M437.55 339H222.05C212.612 339.053 203.34 336.512 195.248 331.654C187.155 326.796 180.553 319.808 176.161 311.453C167.298 294.493 162.668 275.64 162.668 256.503C162.668 237.366 167.298 218.513 176.161 201.553C180.551 193.197 187.153 186.208 195.245 181.349C203.337 176.49 212.609 173.948 222.047 174H437.547C445.304 174 452.743 177.081 458.228 182.566C463.713 188.051 466.794 195.49 466.794 203.247C466.794 211.004 463.713 218.443 458.228 223.928C452.743 229.413 445.304 232.494 437.547 232.494H226.147C222.849 240.068 221.147 248.24 221.147 256.5C221.147 264.761 222.849 272.933 226.147 280.507H437.547C441.403 280.484 445.224 281.224 448.792 282.684C452.36 284.144 455.605 286.294 458.339 289.012C461.073 291.73 463.242 294.962 464.723 298.522C466.203 302.081 466.965 305.898 466.965 309.753C466.965 313.609 466.203 317.426 464.723 320.985C463.242 324.545 461.073 327.777 458.339 330.495C455.605 333.213 452.36 335.363 448.792 336.823C445.224 338.283 441.403 339.022 437.547 339H437.55Z" fill="#FF8E9E"/>
<path d="M308.172 280.507H226.688C223.389 272.933 221.687 264.761 221.687 256.5C221.687 248.24 223.389 240.068 226.688 232.494H308.172C288.199 212.068 301.226 177.61 329.664 174.884L338.877 174.001H222.577C213.138 173.948 203.866 176.489 195.774 181.347C187.681 186.205 181.079 193.193 176.688 201.548C167.823 218.509 163.193 237.363 163.193 256.5C163.193 275.638 167.823 294.492 176.688 311.453C181.079 319.809 187.682 326.797 195.775 331.655C203.869 336.513 213.141 339.054 222.581 339H338.881L329.668 338.117C301.231 335.39 288.204 300.932 308.177 280.507H308.172Z" fill="#EA5B70"/>
</svg>
