<svg width="512" height="512" viewBox="0 0 512 512" fill="none" xmlns="http://www.w3.org/2000/svg">
<path d="M98 94V124H415V94H98Z" fill="#D4D4FF"/>
<path d="M98 214H415V184H98V214Z" fill="#D4D4FF"/>
<path d="M98 304H415V274H98V304Z" fill="#D4D4FF"/>
<path d="M325 134C338.807 134 350 122.807 350 109C350 95.1929 338.807 84 325 84C311.193 84 300 95.1929 300 109C300 122.807 311.193 134 325 134Z" fill="#EA5B70"/>
<path d="M188 134C201.807 134 213 122.807 213 109C213 95.1929 201.807 84 188 84C174.193 84 163 95.1929 163 109C163 122.807 174.193 134 188 134Z" fill="#EA5B70"/>
<path d="M238 134C251.807 134 263 122.807 263 109C263 95.1929 251.807 84 238 84C224.193 84 213 95.1929 213 109C213 122.807 224.193 134 238 134Z" fill="#EA5B70"/>
<path d="M325 224C338.807 224 350 212.807 350 199C350 185.193 338.807 174 325 174C311.193 174 300 185.193 300 199C300 212.807 311.193 224 325 224Z" fill="#55DAFE"/>
<path d="M153 224C166.807 224 178 212.807 178 199C178 185.193 166.807 174 153 174C139.193 174 128 185.193 128 199C128 212.807 139.193 224 153 224Z" fill="#55DAFE"/>
<path d="M256.5 224C270.307 224 281.5 212.807 281.5 199C281.5 185.193 270.307 174 256.5 174C242.693 174 231.5 185.193 231.5 199C231.5 212.807 242.693 224 256.5 224Z" fill="#55DAFE"/>
<path d="M360 314C373.807 314 385 302.807 385 289C385 275.193 373.807 264 360 264C346.193 264 335 275.193 335 289C335 302.807 346.193 314 360 314Z" fill="#FFB357"/>
<path d="M188 314C201.807 314 213 302.807 213 289C213 275.193 201.807 264 188 264C174.193 264 163 275.193 163 289C163 302.807 174.193 314 188 314Z" fill="#FFB357"/>
<path d="M310 314C323.807 314 335 302.807 335 289C335 275.193 323.807 264 310 264C296.193 264 285 275.193 285 289C285 302.807 296.193 314 310 314Z" fill="#FFB357"/>
<path d="M415 49C407.044 49 399.413 52.1607 393.787 57.7868C388.161 63.4129 385 71.0435 385 79V404H445V79C445 71.0435 441.839 63.4129 436.213 57.7868C430.587 52.1607 422.956 49 415 49Z" fill="#C9AAF2"/>
<path d="M445 344H68C52.087 344 36.8258 350.321 25.5736 361.574C14.3214 372.826 8 388.087 8 404C8 419.913 14.3214 435.174 25.5736 446.426C36.8258 457.679 52.087 464 68 464H445C460.913 464 476.174 457.679 487.426 446.426C498.679 435.174 505 419.913 505 404C505 388.087 498.679 372.826 487.426 361.574C476.174 350.321 460.913 344 445 344Z" fill="#C9AAF2"/>
<path d="M245.075 344H68C52.087 344 36.8258 350.321 25.5736 361.574C14.3214 372.826 8 388.087 8 404C8 419.913 14.3214 435.174 25.5736 446.426C36.8258 457.679 52.087 464 68 464H245.075C229.162 448.087 220.222 426.504 220.222 404C220.222 381.496 229.162 359.913 245.075 344Z" fill="#B28AE4"/>
<path d="M98 49C90.0435 49 82.4129 52.1607 76.7868 57.7868C71.1607 63.4129 68 71.0435 68 79V404H128V79C128 71.0435 124.839 63.4129 119.213 57.7868C113.587 52.1607 105.956 49 98 49Z" fill="#C9AAF2"/>
<path d="M68 230.5V404H128V230.5C120.043 238.456 109.252 242.926 98 242.926C86.7479 242.926 75.9566 238.456 68 230.5Z" fill="#B28AE4"/>
</svg>
