<svg width="512" height="512" viewBox="0 0 512 512" fill="none" xmlns="http://www.w3.org/2000/svg">
<path d="M184.948 102.054V346.925C170.087 340.88 151.521 339.248 131.248 343.197C129.679 343.503 128.1 343.842 126.511 344.215C74.8689 356.338 33.0039 399.658 33.0039 440.972C33.0039 482.286 74.8679 505.95 126.511 493.826C177.987 481.743 220.016 438.452 220.018 397.072V165.935L416.212 113.365V284.977C401.351 278.932 382.785 277.3 362.512 281.249C360.943 281.555 359.364 281.894 357.775 282.267C306.133 294.39 264.268 337.71 264.268 379.024C264.268 420.338 306.124 444 357.767 431.878C409.254 419.791 451.274 376.496 451.274 335.121V46.7789C451.274 39.6076 449.624 32.5323 446.452 26.1005C443.281 19.6686 438.672 14.0527 432.982 9.68703C427.293 5.32138 420.675 2.32307 413.642 0.924047C406.608 -0.474977 399.347 -0.237214 392.42 1.61894L228.264 45.5999C215.837 48.9299 204.857 56.2671 197.025 66.4737C189.193 76.6803 184.948 89.1859 184.948 102.051V102.054Z" fill="#C9AAF2"/>
<path d="M97.3489 408.8C97.3489 385.611 110.539 361.782 131.249 343.2C129.679 343.506 128.1 343.845 126.512 344.218C74.8689 356.341 33.0049 399.66 33.0049 440.974C33.0049 482.288 74.8689 505.951 126.512 493.828C148.641 488.541 169.11 477.838 186.078 462.68C136.658 472.289 97.3539 448.829 97.3539 408.799L97.3489 408.8Z" fill="#B28AE4"/>
<path d="M328.608 346.848C328.608 323.66 341.798 299.831 362.503 281.248C360.933 281.554 359.354 281.893 357.766 282.266C306.123 294.389 264.259 337.709 264.259 379.022C264.259 420.335 306.123 444 357.766 431.878C379.897 426.592 400.367 415.888 417.336 400.73C367.916 410.338 328.612 386.878 328.612 346.848H328.608Z" fill="#B28AE4"/>
</svg>
