<svg width="512" height="512" viewBox="0 0 512 512" fill="none" xmlns="http://www.w3.org/2000/svg">
<path d="M401.333 495.2H110.905C100.058 495.2 89.6545 490.891 81.9842 483.221C74.314 475.551 70.0049 465.147 70.0049 454.3V57.7051C70.0049 46.8577 74.314 36.4546 81.9842 28.7844C89.6545 21.1141 100.058 16.8051 110.905 16.8051H401.334C412.181 16.8064 422.583 21.1159 430.253 28.7859C437.923 36.4558 442.233 46.8581 442.234 57.7051V454.295C442.233 465.143 437.924 475.546 430.254 483.217C422.584 490.888 412.181 495.198 401.333 495.2Z" fill="#A0F0F2"/>
<path d="M110.905 16.8C100.058 16.8014 89.6556 21.1109 81.9857 28.7808C74.3157 36.4508 70.0062 46.8531 70.0049 57.7V454.29C70.0062 465.137 74.3157 475.539 81.9857 483.209C89.6556 490.879 100.058 495.189 110.905 495.19H305.005C160.648 411.155 183.805 16.79 183.805 16.79L110.905 16.8Z" fill="#7DE2E2"/>
<path d="M140.573 16.8H110.905C100.058 16.8 89.6545 21.1091 81.9842 28.7794C74.314 36.4496 70.0049 46.8527 70.0049 57.7001V454.29C70.0049 465.137 74.314 475.54 81.9842 483.211C89.6545 490.881 100.058 495.19 110.905 495.19H140.573V16.8Z" fill="#4DB9C1"/>
<path d="M393.212 512C389.117 511.988 385.194 510.356 382.299 507.46C379.403 504.565 377.771 500.642 377.759 496.547V15.453C377.771 11.3584 379.403 7.43509 382.299 4.53977C385.194 1.64446 389.117 0.0123971 393.212 0V0C397.306 0.0123971 401.23 1.64446 404.125 4.53977C407.02 7.43509 408.652 11.3584 408.665 15.453V496.553C408.651 500.647 407.018 504.568 404.123 507.462C401.228 510.356 397.305 511.988 393.212 512Z" fill="#787680"/>
</svg>
