<svg width="513" height="512" viewBox="0 0 513 512" fill="none" xmlns="http://www.w3.org/2000/svg">
<path d="M344.012 456.066L115.133 227.184L227.184 115.129L456.066 344.012C465.404 353.351 472.431 364.742 476.586 377.278L510.738 480.317C516.965 499.11 499.109 516.965 480.316 510.739L377.277 476.586C364.743 472.429 353.352 465.403 344.012 456.066Z" fill="#F6E06A"/>
<path d="M377.277 476.586L480.316 510.738C483.93 511.967 487.788 512.305 491.561 511.722C495.334 511.139 498.91 509.653 501.984 507.39C382.66 450.578 247.359 317.469 148.438 193.875L115.138 227.184L344.012 456.066C353.352 465.403 364.743 472.429 377.277 476.586Z" fill="#EBD15E"/>
<path d="M115.129 227.184L55.8672 167.918L167.918 55.8669L227.184 115.133L115.129 227.184Z" fill="#61AE85"/>
<path d="M97.3442 126.441L55.8672 167.918L115.133 227.184L148.433 193.875C130.035 170.883 112.891 148.223 97.3442 126.441Z" fill="#5A9E79"/>
<path d="M55.8672 167.918L13.3362 125.391C4.79682 116.851 -0.000488281 105.268 -0.000488281 93.191C-0.000488281 81.1138 4.79682 69.5313 13.3362 60.991L60.9922 13.336C69.5325 4.79658 81.1151 -0.000732422 93.1922 -0.000732422C105.269 -0.000732422 116.852 4.79658 125.392 13.336L167.919 55.867L55.8672 167.918Z" fill="#F1A18F"/>
<path d="M55.8672 167.918L13.3362 125.391C4.79682 116.851 -0.000488281 105.268 -0.000488281 93.191C-0.000488281 81.1138 4.79682 69.5313 13.3362 60.991L60.9922 13.336C69.5325 4.79658 81.1151 -0.000732422 93.1922 -0.000732422C105.269 -0.000732422 116.852 4.79658 125.392 13.336L167.919 55.867L55.8672 167.918Z" fill="#EB8D9A"/>
<path d="M510.738 480.316L476.586 377.277C473.631 368.399 469.228 360.07 463.555 352.629H450.863C448.999 352.629 447.153 352.997 445.431 353.711C443.709 354.425 442.144 355.471 440.826 356.789C439.509 358.108 438.463 359.673 437.751 361.396C437.038 363.119 436.671 364.965 436.672 366.829V380.466C436.672 384.23 435.177 387.839 432.516 390.501C429.854 393.162 426.245 394.657 422.481 394.657H408.844C405.08 394.657 401.471 396.152 398.81 398.813C396.148 401.475 394.653 405.084 394.653 408.848V422.48C394.653 426.244 393.158 429.853 390.497 432.515C387.835 435.176 384.226 436.671 380.462 436.671H366.824C363.061 436.671 359.451 438.166 356.79 440.827C354.128 443.489 352.633 447.098 352.633 450.862V463.55C360.072 469.226 368.4 473.63 377.278 476.585L480.317 510.737C499.109 516.965 516.965 499.109 510.738 480.316Z" fill="#DDAF89"/>
<path d="M377.277 476.586L480.316 510.738C483.93 511.967 487.788 512.305 491.561 511.722C495.334 511.139 498.91 509.653 501.984 507.39C464.855 489.714 426.175 464.644 387.527 434.777C385.379 436.019 382.942 436.672 380.461 436.672H366.824C363.061 436.672 359.451 438.167 356.79 440.828C354.128 443.49 352.633 447.099 352.633 450.863V463.551C360.072 469.227 368.399 473.631 377.277 476.586Z" fill="#C79E7B"/>
<path d="M510.738 480.316L497.222 439.535C472.948 452.95 452.953 472.945 439.538 497.219L480.315 510.735C499.109 516.965 516.965 499.109 510.738 480.316Z" fill="#495059"/>
<path d="M191.684 80.7579L202.289 91.3629L91.3672 202.285L80.7622 191.68L191.684 80.7579Z" fill="#5A9E79"/>
<path d="M501.984 507.391C484.521 498.991 467.544 489.617 451.132 479.313C446.798 484.964 442.921 490.952 439.538 497.219L480.315 510.735C483.929 511.966 487.787 512.305 491.56 511.723C495.333 511.141 498.91 509.654 501.984 507.391Z" fill="#41464F"/>
<path d="M38.8592 35.469L13.3362 60.992C4.79713 69.5314 -6.10352e-05 81.1132 -6.10352e-05 93.1895C-6.10352e-05 105.266 4.79713 116.848 13.3362 125.387L55.8672 167.918L97.3442 126.441C73.8002 93.453 53.9142 62.492 38.8592 35.469Z" fill="#DB818D"/>
</svg>
