<svg width="512" height="512" viewBox="0 0 512 512" fill="none" xmlns="http://www.w3.org/2000/svg">
<path d="M512 134.2C512 125.097 508.384 116.368 501.948 109.931L455.506 63.494L409.065 17.053C402.629 10.6173 393.901 7.00123 384.8 7V7C380.293 6.99992 375.83 7.88768 371.666 9.61259C367.501 11.3375 363.718 13.8658 360.531 17.053L25.052 352.525C18.6158 358.962 15 367.691 15 376.794H15C15.0001 385.897 18.6159 394.626 25.052 401.063L117.933 493.944C124.369 500.381 133.098 503.998 142.2 504C146.705 504.001 151.166 503.115 155.328 501.391C159.491 499.668 163.272 497.141 166.458 493.956L166.464 493.95L501.952 158.469C505.139 155.282 507.667 151.498 509.391 147.334C511.115 143.17 512.001 138.707 512 134.2Z" fill="#FCE3A0"/>
<path d="M416.865 102.134L141.954 377.046C137.775 381.225 134.461 386.185 132.199 391.645C129.938 397.105 128.774 402.956 128.774 408.866C128.774 414.776 129.938 420.627 132.199 426.087C134.461 431.547 137.775 436.507 141.954 440.686L180.845 479.577L166.465 493.957C163.279 497.142 159.497 499.668 155.335 501.391C151.173 503.115 146.712 504.001 142.207 504C133.104 504 124.375 500.384 117.938 493.948L25.052 401.067C18.6164 394.631 15.0007 385.902 15 376.8H15C15.0001 367.697 18.6159 358.968 25.052 352.531L360.525 17.053C363.712 13.8658 367.495 11.3375 371.66 9.61259C375.824 7.88768 380.287 6.99992 384.794 7V7C389.301 6.99997 393.764 7.88776 397.928 9.61266C402.092 11.3376 405.876 13.8658 409.063 17.053L471.512 79.5C461.363 79.4999 451.314 81.4988 441.937 85.3825C432.561 89.2662 424.041 94.9587 416.865 102.135V102.134Z" fill="#FFCE71"/>
<path d="M98.7869 416.2C97.3708 414.84 95.4779 414.09 93.5147 414.11C91.5515 414.131 89.6746 414.92 88.287 416.309C86.8993 417.698 86.1116 419.575 86.0929 421.539C86.0742 423.502 86.826 425.394 88.1869 426.809C142.093 480.709 139.153 478.998 143.478 478.998C144.959 478.994 146.406 478.552 147.637 477.728C148.868 476.904 149.827 475.734 150.395 474.366C150.963 472.998 151.113 471.493 150.827 470.039C150.541 468.586 149.832 467.249 148.789 466.198L98.7869 416.2Z" fill="#FC8A3D"/>
<path d="M137.158 406.557C135.751 405.15 133.843 404.359 131.853 404.359C129.863 404.359 127.955 405.15 126.547 406.556C125.14 407.963 124.35 409.872 124.35 411.862C124.35 413.851 125.14 415.76 126.547 417.167C165.269 455.889 163.23 455 167.488 455C168.969 454.993 170.415 454.549 171.645 453.723C172.875 452.897 173.833 451.726 174.399 450.357C174.965 448.989 175.114 447.483 174.828 446.03C174.541 444.576 173.832 443.24 172.788 442.189L137.158 406.557Z" fill="#FC8A3D"/>
<path d="M161.158 382.557C160.465 381.844 159.637 381.277 158.723 380.887C157.808 380.497 156.826 380.293 155.832 380.286C154.838 380.28 153.852 380.471 152.933 380.848C152.013 381.226 151.178 381.782 150.475 382.486C149.773 383.189 149.217 384.025 148.841 384.945C148.464 385.864 148.274 386.85 148.282 387.844C148.289 388.838 148.495 389.821 148.885 390.735C149.276 391.648 149.845 392.476 150.558 393.168C189.375 431.985 187.251 431 191.488 431C192.969 430.995 194.415 430.552 195.644 429.727C196.874 428.902 197.833 427.732 198.399 426.364C198.965 424.996 199.115 423.491 198.828 422.039C198.541 420.586 197.832 419.25 196.788 418.2L161.158 382.557Z" fill="#FC8A3D"/>
<path d="M185.158 358.557C183.743 357.191 181.848 356.436 179.881 356.454C177.915 356.472 176.034 357.262 174.644 358.653C173.254 360.045 172.466 361.926 172.45 363.892C172.434 365.859 173.191 367.753 174.558 369.167C213.375 407.984 211.251 407 215.488 407C216.969 406.995 218.415 406.553 219.645 405.728C220.875 404.903 221.834 403.733 222.4 402.365C222.967 400.997 223.116 399.491 222.829 398.039C222.542 396.586 221.832 395.25 220.788 394.2L185.158 358.557Z" fill="#FC8A3D"/>
<path d="M189.488 318C188.007 318.005 186.561 318.447 185.331 319.272C184.101 320.097 183.142 321.267 182.575 322.635C182.009 324.003 181.86 325.509 182.147 326.961C182.434 328.414 183.144 329.75 184.188 330.8C238.046 384.657 235.15 383 239.488 383C240.969 382.996 242.416 382.554 243.646 381.729C244.877 380.904 245.835 379.734 246.402 378.366C246.969 376.997 247.118 375.492 246.83 374.039C246.543 372.586 245.833 371.25 244.788 370.2C190.661 316.048 193.793 318 189.488 318Z" fill="#FC8A3D"/>
<path d="M227.857 308.356C226.375 308.362 224.928 308.805 223.698 309.631C222.468 310.457 221.509 311.628 220.943 312.997C220.376 314.367 220.227 315.873 220.515 317.326C220.802 318.78 221.512 320.116 222.557 321.167C261.326 359.936 259.245 359 263.488 359C264.97 358.994 266.416 358.55 267.647 357.725C268.877 356.899 269.835 355.728 270.402 354.359C270.968 352.989 271.117 351.483 270.83 350.03C270.543 348.576 269.832 347.24 268.788 346.189C230.099 307.5 232.104 308.359 227.857 308.359V308.356Z" fill="#FC8A3D"/>
<path d="M251.857 284.356C250.375 284.361 248.927 284.804 247.696 285.63C246.466 286.455 245.507 287.627 244.94 288.996C244.373 290.366 244.225 291.872 244.512 293.326C244.8 294.78 245.511 296.116 246.557 297.167C285.457 336.067 283.309 334.987 287.488 334.987C288.969 334.983 290.416 334.541 291.646 333.716C292.876 332.891 293.835 331.721 294.402 330.353C294.968 328.984 295.118 327.479 294.83 326.026C294.543 324.572 293.833 323.237 292.788 322.187C253.971 283.37 256.094 284.357 251.857 284.357V284.356Z" fill="#FC8A3D"/>
<path d="M281.168 262.557C279.761 261.15 277.852 260.359 275.862 260.359C273.873 260.359 271.964 261.15 270.557 262.557C269.15 263.964 268.359 265.873 268.359 267.862C268.359 269.852 269.15 271.761 270.557 273.168C309.457 312.068 307.309 310.988 311.488 310.988C312.97 310.985 314.417 310.543 315.648 309.719C316.879 308.895 317.839 307.725 318.407 306.357C318.975 304.988 319.125 303.483 318.839 302.029C318.552 300.575 317.842 299.239 316.798 298.188L281.168 262.557Z" fill="#FC8A3D"/>
<path d="M285.5 221.987C284.018 221.991 282.57 222.434 281.338 223.259C280.107 224.084 279.147 225.255 278.58 226.624C278.012 227.993 277.862 229.499 278.148 230.954C278.435 232.408 279.145 233.745 280.189 234.797C334.273 288.88 331.201 286.987 335.489 286.987C336.97 286.984 338.418 286.542 339.649 285.718C340.88 284.894 341.84 283.724 342.408 282.356C342.976 280.987 343.126 279.482 342.839 278.028C342.553 276.574 341.843 275.238 340.799 274.187C286.9 220.284 289.832 221.987 285.5 221.987Z" fill="#FC8A3D"/>
<path d="M329.169 214.557C328.472 213.86 327.645 213.308 326.735 212.93C325.825 212.553 324.849 212.359 323.864 212.359C322.879 212.359 321.903 212.553 320.993 212.93C320.082 213.307 319.255 213.86 318.558 214.556C317.862 215.253 317.309 216.08 316.932 216.99C316.555 217.901 316.361 218.876 316.361 219.862C316.361 220.847 316.555 221.823 316.932 222.733C317.309 223.643 317.861 224.47 318.558 225.167C357.458 264.067 355.31 262.987 359.489 262.987C360.972 262.988 362.422 262.548 363.656 261.725C364.89 260.902 365.852 259.731 366.42 258.361C366.988 256.991 367.138 255.483 366.849 254.028C366.561 252.573 365.847 251.236 364.799 250.187L329.169 214.557Z" fill="#FC8A3D"/>
<path d="M353.169 190.557C352.477 189.844 351.649 189.275 350.735 188.884C349.822 188.494 348.839 188.288 347.845 188.281C346.851 188.273 345.865 188.463 344.946 188.84C344.026 189.216 343.19 189.772 342.487 190.474C341.783 191.177 341.227 192.012 340.849 192.932C340.472 193.851 340.281 194.837 340.287 195.831C340.294 196.825 340.498 197.807 340.888 198.722C341.278 199.636 341.845 200.464 342.558 201.157C381.469 240.078 379.315 238.987 383.489 238.987C384.97 238.983 386.417 238.542 387.648 237.718C388.879 236.893 389.839 235.724 390.407 234.355C390.974 232.987 391.124 231.481 390.838 230.028C390.552 228.574 389.843 227.238 388.799 226.187L353.169 190.557Z" fill="#FC8A3D"/>
<path d="M371.869 164.356C370.388 164.36 368.941 164.802 367.71 165.626C366.479 166.45 365.52 167.62 364.952 168.988C364.384 170.356 364.234 171.861 364.52 173.315C364.805 174.768 365.515 176.105 366.558 177.156C405.433 216.042 403.292 214.986 407.499 214.986C408.981 214.985 410.43 214.544 411.662 213.72C412.894 212.896 413.855 211.725 414.422 210.355C414.989 208.986 415.137 207.479 414.849 206.025C414.56 204.571 413.846 203.235 412.799 202.186C374.055 163.442 376.111 164.356 371.869 164.356Z" fill="#FC8A3D"/>
<path d="M381.5 125.987C380.018 125.993 378.571 126.436 377.341 127.262C376.111 128.087 375.152 129.259 374.586 130.628C374.019 131.997 373.87 133.503 374.157 134.956C374.445 136.41 375.155 137.746 376.2 138.797C430.333 192.942 427.195 190.987 431.5 190.987C432.98 190.981 434.426 190.538 435.656 189.713C436.885 188.889 437.843 187.719 438.41 186.351C438.976 184.983 439.125 183.478 438.839 182.026C438.553 180.573 437.843 179.238 436.8 178.187C382.941 124.329 385.838 125.987 381.5 125.987Z" fill="#FC8A3D"/>
<path d="M419.869 116.356C418.388 116.36 416.941 116.802 415.711 117.627C414.48 118.452 413.522 119.622 412.955 120.99C412.388 122.359 412.239 123.864 412.526 125.317C412.814 126.77 413.524 128.106 414.569 129.156L450.2 164.786C451.622 166.111 453.502 166.832 455.445 166.798C457.388 166.763 459.242 165.976 460.616 164.602C461.99 163.228 462.777 161.374 462.812 159.431C462.846 157.488 462.125 155.608 460.8 154.186C422.056 115.443 424.113 116.356 419.87 116.356H419.869Z" fill="#FC8A3D"/>
<path d="M484.8 130.187C446.065 91.442 448.128 92.357 443.87 92.357C442.389 92.3604 440.941 92.8019 439.71 93.626C438.479 94.45 437.519 95.6199 436.952 96.9882C436.384 98.3565 436.233 99.8622 436.519 101.316C436.805 102.769 437.515 104.106 438.559 105.157C477.281 143.88 475.242 142.987 479.5 142.987C480.98 142.981 482.426 142.538 483.656 141.713C484.885 140.888 485.843 139.719 486.41 138.351C486.976 136.983 487.125 135.478 486.839 134.025C486.553 132.573 485.843 131.237 484.8 130.187Z" fill="#FC8A3D"/>
</svg>
