<svg width="512" height="512" viewBox="0 0 512 512" fill="none" xmlns="http://www.w3.org/2000/svg">
<path d="M488.995 287.105C455.635 253.746 333.644 253.746 300.284 287.105V384.171H476.359C481.975 384.177 487.389 382.081 491.536 378.295C495.684 374.509 498.264 369.308 498.768 363.715C501.532 332.415 501.058 299.168 488.995 287.105Z" fill="#FFCE71"/>
<path d="M392.423 145.038C373.474 124.968 339.377 110.938 299.25 102.938C205.982 84.359 80.121 98.386 36.077 145.038C4.72399 178.246 14.828 291.738 25.277 364.838C26.0409 370.202 28.7144 375.111 32.8065 378.662C36.8986 382.214 42.1346 384.17 47.553 384.171H400.32C411.42 313.641 426.706 181.348 392.42 145.038H392.423Z" fill="#FFCE71"/>
<path d="M195.276 364.839C184.828 291.739 174.724 178.246 206.076 145.039C225.025 124.969 259.122 110.939 299.249 102.939C205.982 84.36 80.121 98.386 36.077 145.039C4.72399 178.247 14.828 291.739 25.277 364.839C26.0409 370.203 28.7144 375.112 32.8065 378.663C36.8986 382.215 42.1346 384.171 47.553 384.172H217.553C212.135 384.171 206.899 382.215 202.806 378.663C198.714 375.112 196.04 370.203 195.276 364.839Z" fill="#FFB357"/>
<path d="M340.811 175.638C346.742 175.64 352.479 177.75 356.999 181.59C361.518 185.431 364.526 190.752 365.485 196.605C368.532 215.084 370.518 248.247 365.049 305.527C362.233 335.027 358.16 363.153 354.739 384.171H263.762V200.638C263.762 194.008 266.396 187.649 271.084 182.96C275.773 178.272 282.132 175.638 288.762 175.638H340.811Z" fill="#FC8A3D"/>
<path d="M106.889 175.638H87.689C81.7719 175.633 76.0453 177.729 71.5294 181.553C67.0135 185.376 64.0015 190.678 63.03 196.515C61.018 208.673 59.465 227.224 60.203 254.862C60.3829 261.371 63.095 267.552 67.7623 272.092C72.4297 276.632 78.684 279.171 85.195 279.171H106.888C110.171 279.171 113.422 278.524 116.455 277.268C119.488 276.012 122.244 274.17 124.566 271.849C126.887 269.527 128.729 266.771 129.985 263.738C131.241 260.705 131.888 257.454 131.888 254.171V200.638C131.888 197.355 131.241 194.104 129.985 191.071C128.729 188.038 126.887 185.282 124.566 182.96C122.244 180.639 119.488 178.797 116.455 177.541C113.422 176.285 110.171 175.638 106.888 175.638H106.889Z" fill="#7CE3FF"/>
<path d="M208.761 175.638H186.888C180.258 175.638 173.899 178.272 169.21 182.96C164.522 187.649 161.888 194.008 161.888 200.638V254.171C161.888 260.801 164.522 267.16 169.21 271.849C173.899 276.537 180.258 279.171 186.888 279.171H208.761C215.391 279.171 221.75 276.537 226.439 271.849C231.127 267.16 233.761 260.801 233.761 254.171V200.638C233.761 194.008 231.127 187.649 226.439 182.96C221.75 178.272 215.391 175.638 208.761 175.638Z" fill="#7CE3FF"/>
<path d="M72.3 223.992C72.3 225.476 72.7401 226.926 73.5647 228.16C74.3892 229.393 75.5611 230.355 76.9322 230.922C78.3032 231.489 79.8117 231.637 81.2668 231.347C82.722 231.057 84.0583 230.342 85.1068 229.292C86.1553 228.242 86.8688 226.905 87.1571 225.449C87.4453 223.994 87.2954 222.485 86.7262 221.115C86.157 219.745 85.1942 218.574 83.9595 217.751C82.7248 216.928 81.2738 216.49 79.79 216.492C78.8056 216.492 77.8308 216.686 76.9215 217.063C76.0122 217.441 75.1861 217.993 74.4905 218.69C73.7949 219.386 73.2434 220.213 72.8675 221.123C72.4917 222.033 72.2988 223.008 72.3 223.992Z" fill="#B9F0FF"/>
<path d="M112.103 241.622C116.245 241.622 119.603 238.264 119.603 234.122C119.603 229.98 116.245 226.622 112.103 226.622C107.961 226.622 104.603 229.98 104.603 234.122C104.603 238.264 107.961 241.622 112.103 241.622Z" fill="#B9F0FF"/>
<path d="M96.182 250.032C95.4871 249.334 94.6611 248.78 93.7516 248.402C92.8421 248.024 91.8669 247.83 90.882 247.83C89.8971 247.83 88.9219 248.024 88.0123 248.402C87.1028 248.78 86.2769 249.334 85.582 250.032L65.734 269.872C69.0212 273.941 73.5001 276.879 78.542 278.272L96.181 260.628C96.8785 259.933 97.432 259.108 97.8097 258.199C98.1874 257.29 98.3819 256.315 98.382 255.33C98.3821 254.346 98.1878 253.371 97.8103 252.462C97.4327 251.553 96.8794 250.727 96.182 250.032Z" fill="#B9F0FF"/>
<path d="M95.7 208.086C96.3958 208.784 97.2226 209.338 98.1329 209.716C99.0433 210.094 100.019 210.289 101.005 210.289C101.991 210.289 102.967 210.094 103.877 209.716C104.787 209.338 105.614 208.784 106.31 208.086L127.662 186.732C124.794 182.453 120.677 179.162 115.872 177.305L95.7 197.471C94.295 198.88 93.5061 200.789 93.5061 202.779C93.5061 204.768 94.295 206.677 95.7 208.086Z" fill="#B9F0FF"/>
<path d="M173.3 223.992C173.3 225.476 173.74 226.926 174.565 228.16C175.389 229.393 176.561 230.355 177.932 230.922C179.303 231.489 180.812 231.637 182.267 231.347C183.722 231.057 185.058 230.342 186.107 229.292C187.155 228.242 187.869 226.905 188.157 225.449C188.445 223.994 188.295 222.485 187.726 221.115C187.157 219.745 186.194 218.574 184.959 217.751C183.725 216.928 182.274 216.49 180.79 216.492C179.806 216.492 178.831 216.686 177.922 217.063C177.012 217.441 176.186 217.993 175.491 218.69C174.795 219.386 174.243 220.213 173.868 221.123C173.492 222.033 173.299 223.008 173.3 223.992Z" fill="#B9F0FF"/>
<path d="M213.103 241.622C217.245 241.622 220.603 238.264 220.603 234.122C220.603 229.98 217.245 226.622 213.103 226.622C208.961 226.622 205.603 229.98 205.603 234.122C205.603 238.264 208.961 241.622 213.103 241.622Z" fill="#B9F0FF"/>
<path d="M197.182 250.032C196.487 249.334 195.661 248.78 194.752 248.402C193.842 248.024 192.867 247.83 191.882 247.83C190.897 247.83 189.922 248.024 189.012 248.402C188.103 248.78 187.277 249.334 186.582 250.032L167.127 269.486C170.315 273.601 174.708 276.619 179.693 278.119L197.181 260.631C197.879 259.936 198.433 259.11 198.811 258.201C199.189 257.291 199.383 256.316 199.383 255.331C199.383 254.346 199.189 253.371 198.811 252.461C198.433 251.552 197.879 250.726 197.181 250.031L197.182 250.032Z" fill="#B9F0FF"/>
<path d="M196.7 208.086C197.396 208.784 198.223 209.338 199.133 209.716C200.043 210.094 201.019 210.289 202.005 210.289C202.991 210.289 203.967 210.094 204.877 209.716C205.787 209.338 206.614 208.784 207.31 208.086L229.178 186.214C226.193 181.993 221.976 178.799 217.104 177.069L196.704 197.476C195.3 198.884 194.511 200.792 194.51 202.78C194.509 204.769 195.297 206.677 196.7 208.086Z" fill="#B9F0FF"/>
<path d="M172.5 439.793C160.587 444.612 147.441 445.479 134.999 442.266C122.556 439.053 111.474 431.93 103.383 421.946C95.2929 411.961 90.6218 399.643 90.0578 386.805C89.4938 373.966 93.0667 361.286 100.25 350.631C107.434 339.975 117.849 331.908 129.962 327.616C142.075 323.325 155.246 323.035 167.536 326.791C179.826 330.547 190.585 338.149 198.229 348.479C205.874 358.809 210 371.32 210 384.171C210.025 396.129 206.466 407.819 199.782 417.734C193.097 427.649 183.594 435.332 172.5 439.793Z" fill="#676FB2"/>
<path d="M135 384.171C135.001 396.123 138.571 407.802 145.252 417.712C151.933 427.621 161.421 435.31 172.5 439.793C163.392 443.477 153.519 444.868 143.748 443.844C133.976 442.82 124.606 439.412 116.46 433.92C108.313 428.428 101.641 421.019 97.0272 412.345C92.4139 403.67 90.0013 393.996 90.0013 384.171C90.0013 374.346 92.4139 364.672 97.0272 355.997C101.641 347.323 108.313 339.914 116.46 334.422C124.606 328.93 133.976 325.522 143.748 324.498C153.519 323.474 163.392 324.865 172.5 328.549C161.421 333.032 151.933 340.721 145.252 350.63C138.57 360.54 135.001 372.219 135 384.171Z" fill="#4C5699"/>
<path d="M149.999 399.173C158.283 399.173 164.999 392.457 164.999 384.173C164.999 375.889 158.283 369.173 149.999 369.173C141.715 369.173 134.999 375.889 134.999 384.173C134.999 392.457 141.715 399.173 149.999 399.173Z" fill="#9EA2E3"/>
<path d="M406.017 220.091C404.03 220.097 402.125 220.889 400.72 222.294C399.315 223.699 398.523 225.604 398.517 227.591V282.591C398.523 284.578 399.315 286.483 400.72 287.888C402.125 289.293 404.03 290.085 406.017 290.091C411.979 290.074 417.692 287.697 421.908 283.482C426.123 279.266 428.5 273.553 428.517 267.591V242.591C428.5 236.629 426.123 230.916 421.908 226.7C417.692 222.485 411.979 220.108 406.017 220.091Z" fill="#676FB2"/>
<path d="M337.921 264.904C339.008 241.293 338.431 224.356 337.28 212.414C337.1 210.559 336.236 208.837 334.855 207.584C333.475 206.331 331.677 205.637 329.813 205.638H301.26C299.271 205.638 297.363 206.428 295.957 207.835C294.55 209.241 293.76 211.149 293.76 213.138V264.905H337.921V264.904Z" fill="#7CE3FF"/>
<path d="M293.761 294.904V346.671C293.761 348.66 294.551 350.568 295.958 351.974C297.364 353.381 299.272 354.171 301.261 354.171H322.454C324.268 354.17 326.02 353.512 327.387 352.319C328.753 351.126 329.642 349.478 329.888 347.681C332.042 332.033 333.834 316.825 335.188 302.676C335.441 300.027 335.677 297.437 335.896 294.905H293.761V294.904Z" fill="#7CE3FF"/>
<path d="M500 324.171H481.952C478.772 324.18 475.725 325.448 473.477 327.696C471.228 329.944 469.961 332.991 469.952 336.171V372.171C469.961 375.351 471.228 378.398 473.477 380.646C475.725 382.895 478.772 384.162 481.952 384.171H500C503.18 384.162 506.227 382.895 508.475 380.646C510.724 378.398 511.991 375.351 512 372.171V336.171C511.991 332.991 510.724 329.944 508.475 327.696C506.227 325.448 503.18 324.18 500 324.171Z" fill="#9EA2E3"/>
<path d="M55.048 334.171H27C23.8202 334.18 20.7734 335.448 18.5249 337.696C16.2765 339.944 15.0092 342.991 15 346.171L15 382.171C15.0092 385.351 16.2765 388.398 18.5249 390.646C20.7734 392.895 23.8202 394.162 27 394.171H55.048C58.2278 394.162 61.2746 392.895 63.5231 390.646C65.7715 388.398 67.0388 385.351 67.048 382.171V346.171C67.0388 342.991 65.7715 339.944 63.5231 337.696C61.2746 335.448 58.2278 334.18 55.048 334.171Z" fill="#9EA2E3"/>
<path d="M460.987 439.793C449.074 444.612 435.929 445.479 423.486 442.266C411.043 439.053 399.961 431.93 391.87 421.946C383.78 411.961 379.109 399.643 378.545 386.805C377.981 373.966 381.554 361.286 388.737 350.631C395.921 339.975 406.336 331.908 418.449 327.616C430.562 323.325 443.733 323.035 456.023 326.791C468.313 330.547 479.072 338.149 486.716 348.479C494.361 358.809 498.487 371.32 498.487 384.171C498.512 396.129 494.953 407.819 488.269 417.734C481.584 427.649 472.081 435.332 460.987 439.793Z" fill="#676FB2"/>
<path d="M423.487 384.171C423.488 396.123 427.058 407.802 433.739 417.712C440.42 427.621 449.908 435.31 460.987 439.793C451.879 443.477 442.006 444.868 432.235 443.844C422.463 442.82 413.093 439.412 404.947 433.92C396.8 428.428 390.128 421.019 385.514 412.345C380.901 403.67 378.488 393.996 378.488 384.171C378.488 374.346 380.901 364.672 385.514 355.997C390.128 347.323 396.8 339.914 404.947 334.422C413.093 328.93 422.463 325.522 432.235 324.498C442.006 323.474 451.879 324.865 460.987 328.549C449.908 333.032 440.42 340.721 433.739 350.631C427.058 360.54 423.488 372.219 423.487 384.171Z" fill="#4C5699"/>
<path d="M438.483 399.173C446.767 399.173 453.483 392.457 453.483 384.173C453.483 375.889 446.767 369.173 438.483 369.173C430.199 369.173 423.483 375.889 423.483 384.173C423.483 392.457 430.199 399.173 438.483 399.173Z" fill="#9EA2E3"/>
</svg>
