<svg width="512" height="512" viewBox="0 0 512 512" fill="none" xmlns="http://www.w3.org/2000/svg">
<path d="M339.968 48.05C333.353 25.94 311.234 5.32799 277.568 7.10699C250.5 9.57499 224.125 31.3 218.8 62.016C216.206 73.94 217.639 97.539 234.414 116.939C240.698 123.739 248.104 130 257.8 134.039C263.363 136.67 280.143 138.68 281.846 156.103C282.38 161.903 280.652 168.975 275.832 175.409C267.572 186.438 255.732 197.573 255.732 211.352L270.45 219.5L283.887 211.359C283.887 212.415 286.025 201.237 295.225 194.659C308.139 184.559 314.913 172.959 317.202 159.642C318.87 149.953 317.932 139.994 314.485 130.786C309.188 116.723 298.794 105.167 285.368 98.415C273.068 92.484 264.045 89 263.044 72.607C262.502 65.094 267.013 56.453 273.619 51.087C289.282 38.275 316.533 45.122 324.8 72.973C325.338 74.788 326.467 76.3713 328.007 77.4719C329.548 78.5725 331.411 79.1274 333.303 79.0486C335.194 78.9699 337.005 78.2619 338.449 77.037C339.892 75.8121 340.886 74.1404 341.271 72.287C342.857 64.2251 342.41 55.895 339.971 48.049L339.968 48.05Z" fill="#E9DCFA"/>
<path d="M405.358 414L342 304.26V211.36H202V304.26C200.242 307.305 142.245 407.76 138.642 414C115.548 454 144.415 504 190.604 504H353.4C399.585 504 428.452 454 405.358 414Z" fill="#B9F0FF"/>
<path d="M218.642 414C222.242 407.759 280.242 307.3 282 304.26V211.36H202V304.26L138.642 414C115.548 454 144.415 504 190.604 504H270.604C224.415 504 195.548 454 218.642 414Z" fill="#7CE3FF"/>
<path d="M342 271.36H202C194.044 271.36 186.413 268.199 180.787 262.573C175.161 256.947 172 249.316 172 241.36C172 233.403 175.161 225.773 180.787 220.147C186.413 214.521 194.044 211.36 202 211.36H342C349.956 211.36 357.587 214.521 363.213 220.147C368.839 225.773 372 233.403 372 241.36C372 249.316 368.839 256.947 363.213 262.573C357.587 268.199 349.956 271.36 342 271.36Z" fill="#7CE3FF"/>
<path d="M379.379 429L346.4 371.877C343.589 366.898 339.505 362.756 334.567 359.874C329.628 356.992 324.013 355.475 318.295 355.477C309.29 355.477 297.543 363.73 288.134 371.877C282.451 376.822 277.065 382.098 272.003 387.677L197.603 371.877C181.884 399.1 166.349 426.01 164.623 429C161.99 433.56 160.604 438.733 160.604 443.999C160.604 449.265 161.989 454.438 164.622 458.998C167.255 463.559 171.041 467.346 175.601 469.979C180.161 472.613 185.334 473.999 190.6 474H353.4C358.666 474 363.84 472.614 368.4 469.981C372.961 467.348 376.748 463.561 379.382 459.001C382.015 454.44 383.401 449.267 383.401 444C383.401 438.734 382.015 433.561 379.382 429H379.379Z" fill="#C9AAF2"/>
<path d="M225.708 419.887C243.496 419.887 272 387.679 272 387.679C266.938 382.1 261.552 376.824 255.869 371.879C246.46 363.728 234.713 355.479 225.708 355.479C217.166 355.479 208.974 358.872 202.934 364.913C196.893 370.953 193.5 379.145 193.5 387.687C193.5 396.229 196.893 404.421 202.934 410.461C208.974 416.502 217.166 419.895 225.708 419.895V419.887Z" fill="#B28AE4"/>
<path d="M137.48 197.469C135.491 197.469 133.583 198.259 132.177 199.666C130.77 201.072 129.98 202.98 129.98 204.969V210.959C129.98 212.948 130.77 214.856 132.177 216.262C133.583 217.669 135.491 218.459 137.48 218.459C139.469 218.459 141.377 217.669 142.783 216.262C144.19 214.856 144.98 212.948 144.98 210.959V204.969C144.98 202.98 144.19 201.072 142.783 199.666C141.377 198.259 139.469 197.469 137.48 197.469Z" fill="#E9DCFA"/>
<path d="M159.459 181.48H153.469C151.48 181.48 149.572 182.27 148.166 183.677C146.759 185.083 145.969 186.991 145.969 188.98C145.969 190.969 146.759 192.877 148.166 194.283C149.572 195.69 151.48 196.48 153.469 196.48H159.459C163.601 196.48 165.501 193.122 165.501 188.98C165.501 184.838 163.601 181.48 159.459 181.48Z" fill="#E9DCFA"/>
<path d="M121.49 181.48H115.5C113.511 181.48 111.603 182.27 110.197 183.677C108.79 185.083 108 186.991 108 188.98C108 190.969 108.79 192.877 110.197 194.283C111.603 195.69 113.511 196.48 115.5 196.48H121.489C123.478 196.48 125.386 195.69 126.792 194.283C128.199 192.877 128.989 190.969 128.989 188.98C128.989 186.991 128.199 185.083 126.792 183.677C125.386 182.27 123.478 181.48 121.489 181.48H121.49Z" fill="#E9DCFA"/>
<path d="M137.48 159.5C135.491 159.5 133.583 160.29 132.177 161.697C130.77 163.103 129.98 165.011 129.98 167V172.99C129.98 174.979 130.77 176.887 132.177 178.293C133.583 179.7 135.491 180.49 137.48 180.49C139.469 180.49 141.377 179.7 142.783 178.293C144.19 176.887 144.98 174.979 144.98 172.99V167C144.98 165.011 144.19 163.103 142.783 161.697C141.377 160.29 139.469 159.5 137.48 159.5Z" fill="#E9DCFA"/>
<path d="M397.48 87.469C395.491 87.469 393.583 88.2592 392.177 89.6657C390.77 91.0722 389.98 92.9799 389.98 94.969V100.959C389.98 102.948 390.77 104.856 392.177 106.262C393.583 107.669 395.491 108.459 397.48 108.459C399.469 108.459 401.377 107.669 402.783 106.262C404.19 104.856 404.98 102.948 404.98 100.959V94.969C404.98 92.9799 404.19 91.0722 402.783 89.6657C401.377 88.2592 399.469 87.469 397.48 87.469Z" fill="#E9DCFA"/>
<path d="M419.459 71.48H413.469C411.48 71.48 409.572 72.2702 408.166 73.6767C406.759 75.0832 405.969 76.9909 405.969 78.98C405.969 80.9691 406.759 82.8768 408.166 84.2833C409.572 85.6898 411.48 86.48 413.469 86.48H419.459C423.601 86.48 425.501 83.122 425.501 78.98C425.501 74.838 423.6 71.48 419.459 71.48Z" fill="#E9DCFA"/>
<path d="M381.49 71.48H375.5C373.511 71.48 371.603 72.2702 370.197 73.6767C368.79 75.0832 368 76.9909 368 78.98C368 80.9691 368.79 82.8768 370.197 84.2833C371.603 85.6898 373.511 86.48 375.5 86.48H381.489C383.478 86.48 385.386 85.6898 386.792 84.2833C388.199 82.8768 388.989 80.9691 388.989 78.98C388.989 76.9909 388.199 75.0832 386.792 73.6767C385.386 72.2702 383.478 71.48 381.489 71.48H381.49Z" fill="#E9DCFA"/>
<path d="M397.48 49.5C395.491 49.5 393.583 50.2902 392.177 51.6967C390.77 53.1032 389.98 55.0109 389.98 57V62.99C389.98 64.9791 390.77 66.8868 392.177 68.2933C393.583 69.6998 395.491 70.49 397.48 70.49C399.469 70.49 401.377 69.6998 402.783 68.2933C404.19 66.8868 404.98 64.9791 404.98 62.99V57C404.98 55.0109 404.19 53.1032 402.783 51.6967C401.377 50.2902 399.469 49.5 397.48 49.5Z" fill="#E9DCFA"/>
<path d="M122 126.48C146.853 126.48 167 106.333 167 81.48C167 56.6272 146.853 36.48 122 36.48C97.1472 36.48 77 56.6272 77 81.48C77 106.333 97.1472 126.48 122 126.48Z" fill="#C9AAF2"/>
<path d="M437 191.48C453.569 191.48 467 178.049 467 161.48C467 144.911 453.569 131.48 437 131.48C420.431 131.48 407 144.911 407 161.48C407 178.049 420.431 191.48 437 191.48Z" fill="#C9AAF2"/>
</svg>
