<svg width="512" height="512" viewBox="0 0 512 512" fill="none" xmlns="http://www.w3.org/2000/svg">
<path d="M405.461 261.611C405.461 230.74 415.298 204.011 429.631 191.043C442.384 179.506 449.251 162.82 449.251 145.623V70.278C449.25 51.9043 441.951 34.2833 428.959 21.2913C415.967 8.29923 398.346 1.00027 379.972 1L131.278 1C112.904 1 95.2832 8.29891 82.2911 21.2911C69.2989 34.2832 62 51.9043 62 70.278V145.623C62 162.823 68.867 179.506 81.62 191.043C95.953 204.01 105.79 230.743 105.79 261.611C105.79 292.479 95.953 319.211 81.62 332.179C68.867 343.716 62 360.402 62 377.599V442.721C61.9999 451.819 63.7917 460.828 67.2732 469.233C70.7547 477.638 75.8576 485.275 82.2907 491.709C88.7238 498.142 96.361 503.245 104.766 506.726C113.171 510.208 122.18 512 131.278 512H379.972C389.07 512 398.078 510.208 406.484 506.727C414.889 503.245 422.526 498.142 428.959 491.709C435.392 485.276 440.495 477.639 443.977 469.234C447.458 460.828 449.25 451.82 449.25 442.722V377.6C449.25 360.4 442.383 343.717 429.63 332.18C415.298 319.214 405.461 292.48 405.461 261.612V261.611Z" fill="#F7AD55"/>
<path d="M318.352 512C227.544 366.434 184.759 182.34 198.139 1H131.279C122.181 0.999869 113.172 2.7917 104.767 6.27319C96.3618 9.75467 88.7246 14.8576 82.2914 21.2907C75.8582 27.7238 70.7552 35.361 67.2736 43.7662C63.792 52.1715 62 61.1802 62 70.278V145.623C62 162.823 68.867 179.505 81.62 191.042C95.953 204.009 105.79 230.742 105.79 261.61C105.79 292.478 95.953 319.21 81.62 332.178C68.867 343.715 62 360.401 62 377.598V442.721C61.9999 451.819 63.7917 460.828 67.2732 469.233C70.7547 477.638 75.8576 485.275 82.2907 491.709C88.7238 498.142 96.361 503.245 104.766 506.726C113.171 510.208 122.18 512 131.278 512H318.352Z" fill="#F49634"/>
<path d="M232.099 427.029H192.059C181.999 427.03 172.351 423.034 165.237 415.921C158.123 408.808 154.126 399.16 154.125 389.1V123.9C154.125 113.84 158.121 104.192 165.235 97.078C172.349 89.9644 181.997 85.968 192.057 85.968H247.678L232.099 427.029Z" fill="#F9EF90"/>
<path d="M320.23 427.029H210.21V85.9709H320.23C325.075 85.9708 329.873 86.925 334.349 88.779C338.825 90.6329 342.892 93.3504 346.318 96.7762C349.744 100.202 352.462 104.269 354.316 108.745C356.17 113.221 357.125 118.019 357.125 122.864V390.135C357.125 394.98 356.171 399.778 354.317 404.254C352.463 408.73 349.745 412.798 346.319 416.224C342.893 419.65 338.826 422.367 334.349 424.221C329.873 426.075 325.075 427.029 320.23 427.029Z" fill="#FFFDDE"/>
<path d="M283.667 282.537C298.047 282.537 309.704 270.88 309.704 256.5C309.704 242.12 298.047 230.463 283.667 230.463C269.287 230.463 257.63 242.12 257.63 256.5C257.63 270.88 269.287 282.537 283.667 282.537Z" fill="#F9EF90"/>
</svg>
