<svg width="512" height="512" viewBox="0 0 512 512" fill="none" xmlns="http://www.w3.org/2000/svg">
<path d="M283.533 23.6521C264.359 14.9893 242.896 12.7644 222.353 17.3098C201.809 21.8551 183.289 32.9267 169.559 48.8697C155.829 64.8127 147.627 84.7709 146.179 105.761C144.731 126.752 150.115 147.647 161.526 165.324C172.938 183.001 189.763 196.511 209.488 203.833C229.213 211.156 250.778 211.899 270.959 205.951C291.141 200.002 308.856 187.683 321.457 170.833C334.057 153.983 340.866 133.507 340.866 112.467C340.916 93.7056 335.528 75.3317 325.352 59.569C315.177 43.8064 300.651 31.3308 283.533 23.6521Z" fill="#8288CB"/>
<path d="M226.2 112.467C226.2 93.7166 231.609 75.3642 241.779 59.6109C251.948 43.8576 266.446 31.3722 283.533 23.652C268.688 16.9418 252.398 14.0596 236.152 15.2689C219.906 16.4782 204.222 21.7405 190.534 30.5746C176.846 39.4087 165.591 51.5329 157.797 65.8388C150.003 80.1447 145.92 96.1759 145.92 112.467C145.92 128.758 150.003 144.789 157.797 159.095C165.591 173.401 176.846 185.525 190.534 194.359C204.222 203.194 219.906 208.456 236.152 209.665C252.398 210.874 268.688 207.992 283.533 201.282C266.446 193.562 251.948 181.076 241.779 165.323C231.61 149.57 226.2 131.217 226.2 112.467Z" fill="#676FB2"/>
<path d="M284.335 505.8C296.604 500.328 309.374 497.746 322.348 495.133C322.171 489.479 321.518 483.85 320.396 478.305C317.815 465.398 312.574 453.171 305.008 442.4C293.642 426.346 277.514 414.808 259.079 410.577C253.935 409.396 248.673 408.801 243.395 408.802C218.508 408.802 196.275 421.93 181.783 442.402C171.255 457.492 165.262 475.279 164.512 493.663C176.855 497.601 188.801 502.699 201.246 506.34C204.426 507.257 207.183 509.262 209.036 512.004H278.922C279.352 510.656 280.054 509.41 280.985 508.344C281.915 507.278 283.054 506.413 284.331 505.804L284.335 505.8Z" fill="#FFB357"/>
<path d="M244.682 502.034C238.744 480.029 235.741 457.336 235.753 434.544V409.269C214.034 411.756 194.873 424.158 181.893 442.398C179.257 446.113 176.902 450.019 174.847 454.085C168.652 466.402 165.136 479.891 164.53 493.664C176.868 497.6 188.808 502.7 201.248 506.337C204.428 507.254 207.185 509.258 209.038 512H247.376L244.682 502.034Z" fill="#FC8A3D"/>
<path d="M174.099 442.4C161.404 458.321 154.504 478.087 154.533 498.449V512H211.433C203.83 486.884 199.966 460.786 199.966 434.545V420.257C190.008 425.918 181.227 433.434 174.095 442.397L174.099 442.4Z" fill="#EFEDFF"/>
<path d="M312.7 442.4C325.395 458.321 332.295 478.087 332.266 498.449V512H275.366C282.969 486.884 286.833 460.786 286.833 434.545V420.257C296.791 425.918 305.572 433.434 312.704 442.397L312.7 442.4Z" fill="#EFEDFF"/>
<path d="M199.97 434.545V420.257C190.012 425.92 181.231 433.436 174.099 442.4C173.025 443.749 171.979 445.141 170.983 446.553C169.358 448.897 168.558 451.714 168.708 454.562C168.858 457.41 169.95 460.128 171.812 462.288L185.278 478.108L181.603 487.688C180.977 489.32 180.687 491.061 180.751 492.808C180.815 494.555 181.232 496.27 181.975 497.852C182.719 499.433 183.775 500.848 185.079 502.012C186.383 503.175 187.909 504.063 189.565 504.622L211.436 512C203.834 486.884 199.97 460.786 199.97 434.545Z" fill="#D4D4FF"/>
<path d="M286.829 434.545V420.257C296.787 425.92 305.568 433.436 312.7 442.4C313.774 443.749 314.809 445.129 315.806 446.541C317.432 448.886 318.234 451.704 318.086 454.554C317.938 457.404 316.849 460.123 314.988 462.287L301.522 478.107L305.197 487.687C305.823 489.319 306.113 491.06 306.049 492.807C305.985 494.554 305.568 496.269 304.825 497.851C304.081 499.432 303.025 500.847 301.721 502.011C300.417 503.174 298.891 504.062 297.235 504.621L275.363 512C282.966 486.884 286.829 460.786 286.829 434.545Z" fill="#D4D4FF"/>
<path d="M243.4 385.857L199.97 420.257C204.929 450.824 224.164 466.119 243.4 466.124C262.636 466.129 281.867 450.846 286.83 420.257L243.4 385.857Z" fill="#FFBF9D"/>
<path d="M409.666 262.027H77.133C66.4891 262.027 56.2811 266.255 48.7547 273.782C41.2283 281.308 37 291.516 37 302.16C37 312.804 41.2283 323.012 48.7547 330.538C56.2811 338.065 66.4891 342.293 77.133 342.293H409.666C420.31 342.293 430.518 338.065 438.044 330.538C445.571 323.012 449.799 312.804 449.799 302.16C449.799 291.516 445.571 281.308 438.044 273.782C430.518 266.255 420.31 262.027 409.666 262.027Z" fill="#FFBF9D"/>
<path d="M243.4 114.5C233.965 114.5 77.133 177.342 77.133 259.734C77.133 303.831 94.6503 346.121 125.831 377.302C157.012 408.483 199.303 426 243.4 426C287.496 426 329.787 408.483 360.968 377.302C392.149 346.121 409.666 303.831 409.666 259.734C409.666 177.343 252.835 114.5 243.4 114.5Z" fill="#FFD4BD"/>
<path d="M132.287 259.965C132.287 257.588 132.343 255.223 132.441 252.865C114.508 259.93 96.1585 265.886 77.495 270.7C79.0391 293.899 85.4292 316.516 96.253 337.093C107.077 357.67 122.094 375.75 140.335 390.165C158.577 404.581 179.638 415.013 202.159 420.787C224.681 426.562 248.163 427.552 271.09 423.692C192.328 410.544 132.29 342.5 132.29 259.965H132.287Z" fill="#FFBF9D"/>
<path d="M243.4 340.814C239.769 340.813 236.181 340.035 232.877 338.53C229.573 337.025 226.63 334.829 224.246 332.091C222.939 330.591 222.282 328.634 222.418 326.649C222.554 324.665 223.473 322.816 224.973 321.509C226.473 320.202 228.43 319.545 230.415 319.681C232.399 319.817 234.248 320.736 235.555 322.236C236.531 323.359 237.736 324.26 239.089 324.877C240.443 325.494 241.913 325.814 243.401 325.814C244.889 325.814 246.359 325.494 247.713 324.877C249.066 324.26 250.272 323.359 251.247 322.236C251.894 321.494 252.681 320.886 253.563 320.447C254.445 320.009 255.405 319.749 256.388 319.681C257.37 319.614 258.357 319.741 259.29 320.055C260.224 320.368 261.087 320.863 261.829 321.51C262.572 322.157 263.179 322.944 263.618 323.826C264.056 324.708 264.316 325.668 264.384 326.651C264.451 327.633 264.324 328.62 264.01 329.553C263.697 330.487 263.202 331.35 262.555 332.092C260.171 334.83 257.227 337.026 253.923 338.53C250.619 340.035 247.031 340.814 243.4 340.815V340.814Z" fill="#313D40"/>
<path d="M151.666 368.666C170.031 368.666 184.919 356.858 184.919 342.293C184.919 327.728 170.031 315.92 151.666 315.92C133.301 315.92 118.413 327.728 118.413 342.293C118.413 356.858 133.301 368.666 151.666 368.666Z" fill="#FFB5C0"/>
<path d="M335.133 368.666C353.498 368.666 368.386 356.858 368.386 342.293C368.386 327.728 353.498 315.92 335.133 315.92C316.768 315.92 301.88 327.728 301.88 342.293C301.88 356.858 316.768 368.666 335.133 368.666Z" fill="#FFB5C0"/>
<path d="M406.444 227.054H406.455C400.841 199.043 388.092 172.956 369.443 151.315L369.425 151.329C353.825 133.178 334.487 118.611 312.736 108.624C290.985 98.6376 267.333 93.4675 243.399 93.4675C219.465 93.4675 195.813 98.6376 174.062 108.624C152.311 118.611 132.973 133.178 117.373 151.329L117.355 151.315C98.7052 172.955 85.9567 199.043 80.343 227.054H80.354C78.2089 237.815 77.1297 248.761 77.132 259.734C77.132 264.723 77.3504 269.656 77.787 274.534C91.8321 274.273 105.457 269.697 116.812 261.428C128.168 253.158 136.704 241.595 141.263 228.308C145.49 215.788 152.556 204.416 161.908 195.081L162.23 194.761C174.198 182.654 188.883 173.578 205.063 168.285C210.561 166.503 216.397 166.011 222.116 166.848C227.835 167.686 233.284 169.829 238.041 173.113C239.616 174.204 241.486 174.789 243.402 174.789C245.318 174.789 247.188 174.204 248.763 173.113C253.52 169.829 258.969 167.686 264.688 166.848C270.407 166.011 276.243 166.503 281.741 168.285C297.922 173.577 312.606 182.654 324.574 194.761C324.681 194.868 324.788 194.974 324.896 195.081C334.247 204.417 341.312 215.79 345.538 228.31C350.088 241.601 358.622 253.169 369.978 261.44C381.334 269.711 394.962 274.283 409.008 274.536C409.438 269.659 409.656 264.726 409.663 259.736C409.666 248.763 408.587 237.816 406.441 227.055L406.444 227.054Z" fill="#8288CB"/>
<path d="M271.108 95.77C242.868 91.0226 213.881 93.642 186.95 103.375C160.018 113.108 136.054 129.625 117.373 151.329L117.355 151.315C98.7052 172.955 85.9567 199.043 80.343 227.054H80.354C78.2089 237.815 77.1297 248.761 77.132 259.734C77.132 264.723 77.3504 269.656 77.787 274.534C88.6901 274.345 99.3894 271.548 108.99 266.376C118.59 261.205 126.812 253.809 132.968 244.808C136.32 208.204 151.687 173.738 176.674 146.78C201.661 119.822 234.864 101.887 271.108 95.77Z" fill="#676FB2"/>
<path d="M346.708 509.7C344.424 508.379 342.474 506.551 341.008 504.357C339.543 502.163 338.601 499.662 338.256 497.046C337.911 494.43 338.172 491.77 339.019 489.271C339.866 486.772 341.275 484.501 343.139 482.633L468.449 357.323C471.681 354.131 476.046 352.347 480.589 352.361C485.132 352.375 489.485 354.186 492.697 357.399C495.91 360.611 497.721 364.964 497.735 369.507C497.749 374.05 495.965 378.415 492.773 381.647L367.468 506.962C364.791 509.638 361.306 511.357 357.552 511.852C353.799 512.347 349.988 511.591 346.708 509.7Z" fill="#CE857A"/>
<path d="M367.93 473.574C380.595 473.574 390.863 463.307 390.863 450.641C390.863 437.975 380.595 427.708 367.93 427.708C355.264 427.708 344.997 437.975 344.997 450.641C344.997 463.307 355.264 473.574 367.93 473.574Z" fill="#FFBF9D"/>
<path d="M400.145 500.056C419.144 500.056 434.545 484.655 434.545 465.656C434.545 446.657 419.144 431.256 400.145 431.256C381.146 431.256 365.745 446.657 365.745 465.656C365.745 484.655 381.146 500.056 400.145 500.056Z" fill="#FFD4BD"/>
<path d="M418.392 263.522C417.263 261.565 415.759 259.85 413.967 258.474C412.175 257.098 410.13 256.089 407.947 255.504C405.765 254.918 403.489 254.769 401.249 255.064C399.009 255.359 396.849 256.092 394.892 257.222L388.192 261.088C387.022 257.624 385.119 254.454 382.611 251.793C361.948 230.72 284.32 230.515 264.002 251.893C262.456 253.542 261.172 255.417 260.193 257.454C255.225 254.119 249.377 252.337 243.393 252.337C237.409 252.337 231.561 254.119 226.593 257.454L215.559 272.429L227.572 291.329C229.72 285.464 237.055 281.022 243.395 281.014C250.519 281.023 258.919 286.626 259.779 293.562V293.478C263.21 306.056 269.736 319.426 278.546 325.773C297.485 339.418 353.403 340.073 372.346 325.635C378.521 320.929 383.664 311.888 386.931 301.541L412.089 287.016C414.046 285.887 415.76 284.383 417.136 282.59C418.511 280.798 419.52 278.752 420.104 276.57C420.689 274.388 420.837 272.112 420.542 269.872C420.247 267.632 419.513 265.472 418.383 263.516L418.392 263.522Z" fill="#FF8E9E"/>
<path d="M226.597 257.453C225.618 255.416 224.333 253.541 222.788 251.892C202.47 230.518 124.841 230.723 104.179 251.792C101.671 254.453 99.7677 257.623 98.598 261.087L91.903 257.221C89.9469 256.092 87.7874 255.359 85.5479 255.064C83.3085 254.769 81.0329 254.918 78.8511 255.503C76.6693 256.088 74.624 257.096 72.832 258.471C71.04 259.846 69.5364 261.561 68.407 263.517C66.1262 267.468 65.5081 272.163 66.6888 276.569C67.8696 280.975 70.7524 284.732 74.703 287.013L99.861 301.538C103.127 311.885 108.271 320.926 114.446 325.632C133.392 340.072 189.31 339.415 208.246 325.77C217.056 319.423 223.582 306.053 227.013 293.475C227.036 293.391 227.057 293.304 227.08 293.219C227.249 292.593 227.414 291.962 227.575 291.326C230.355 280.226 231.561 267.571 226.594 257.449L226.597 257.453Z" fill="#EA5B70"/>
<path d="M203.477 280.608C201.795 290.408 197.177 301.951 193.166 304.842C182.937 312.212 139.361 312.414 130.094 305.125C126.252 302.103 122.626 289.759 121.955 279.896C121.726 276.777 122.568 273.673 124.341 271.096C126.114 268.519 128.712 266.624 131.707 265.723C148.414 260.791 175.465 260.291 193.454 265.1C196.756 265.972 199.614 268.045 201.468 270.914C203.322 273.782 204.038 277.239 203.477 280.608Z" fill="#B9F0FF"/>
<path d="M364.844 279.9C364.173 289.763 360.544 302.106 356.705 305.129C347.439 312.418 303.863 312.216 293.633 304.846C289.621 301.955 285.004 290.414 283.322 280.612C282.76 277.243 283.475 273.785 285.329 270.915C287.183 268.046 290.041 265.972 293.344 265.1C311.333 260.291 338.384 260.79 355.091 265.723C358.087 266.624 360.686 268.52 362.46 271.097C364.233 273.675 365.074 276.78 364.844 279.9Z" fill="#B9F0FF"/>
<path d="M314.173 287.783H314.139C312.156 287.783 310.253 288.569 308.847 289.968C307.442 291.368 306.648 293.267 306.639 295.25L306.615 300.739C306.611 301.724 306.8 302.7 307.173 303.612C307.546 304.523 308.095 305.353 308.788 306.052C309.482 306.752 310.306 307.308 311.214 307.689C312.123 308.069 313.097 308.268 314.082 308.272H314.116C316.099 308.272 318.002 307.486 319.408 306.087C320.813 304.688 321.607 302.788 321.616 300.805L321.64 295.316C321.644 294.331 321.455 293.355 321.082 292.443C320.709 291.532 320.16 290.702 319.466 290.003C318.773 289.303 317.948 288.747 317.04 288.366C316.132 287.985 315.157 287.787 314.172 287.783H314.173Z" fill="#313D40"/>
<path d="M172.976 287.154H172.942C170.959 287.154 169.056 287.94 167.65 289.339C166.245 290.738 165.451 292.638 165.442 294.621L165.418 300.11C165.414 301.095 165.603 302.071 165.976 302.983C166.349 303.894 166.898 304.724 167.591 305.423C168.285 306.123 169.109 306.679 170.017 307.06C170.926 307.44 171.9 307.639 172.885 307.643H172.919C174.902 307.643 176.805 306.857 178.211 305.458C179.616 304.059 180.41 302.159 180.419 300.176L180.443 294.687C180.447 293.702 180.258 292.726 179.885 291.814C179.512 290.903 178.963 290.074 178.27 289.374C177.576 288.675 176.752 288.118 175.844 287.738C174.935 287.357 173.961 287.158 172.976 287.154Z" fill="#313D40"/>
</svg>
