<svg width="512" height="512" viewBox="0 0 512 512" fill="none" xmlns="http://www.w3.org/2000/svg">
<path d="M189.835 407.285H301.535V437.285H189.835V407.285Z" fill="#9EA2E3"/>
<path d="M352.56 473.085L267.56 288.444H226.683L206.528 332.253L141.683 473.085C139.229 478.5 139.017 484.666 141.094 490.236C143.171 495.806 147.368 500.328 152.768 502.814C158.169 505.3 164.333 505.547 169.915 503.502C175.498 501.457 180.044 497.286 182.56 491.9L233.496 381.254C234.696 378.649 236.616 376.442 239.031 374.896C241.446 373.349 244.254 372.527 247.122 372.527C249.99 372.527 252.797 373.349 255.212 374.896C257.627 376.442 259.548 378.649 260.747 381.254L311.683 491.9C312.919 494.584 314.671 496.998 316.84 499.005C319.009 501.012 321.551 502.572 324.323 503.596C327.095 504.62 330.041 505.089 332.994 504.974C335.946 504.86 338.847 504.165 341.531 502.929C344.215 501.693 346.63 499.941 348.637 497.772C350.643 495.604 352.203 493.061 353.228 490.289C354.252 487.518 354.72 484.571 354.605 481.619C354.491 478.666 353.796 475.765 352.56 473.081V473.085Z" fill="#B9BBFC"/>
<path d="M446.945 134.263C461.675 95.9631 448.082 58.0261 421.29 35.5761C398.553 16.5231 366.311 8.62508 333.808 21.1261V134.263H446.945Z" fill="#B9F0FF"/>
<path d="M421.289 35.5761C398.552 16.5281 366.306 8.62612 333.807 21.1261V79.5561C356.245 54.2146 387.566 38.4686 421.289 35.5761Z" fill="#7CE3FF"/>
<path d="M74.5 342.859L125.211 393.57L206.528 332.253V261.542H135.817L74.5 342.859Z" fill="#C9AAF2"/>
<path d="M135.817 261.542L206.527 332.252C212.153 337.878 219.784 341.039 227.74 341.039C235.696 341.039 243.327 337.878 248.953 332.252L347.948 233.257V120.121H234.812L135.812 219.121C130.186 224.747 127.025 232.378 127.025 240.334C127.025 248.29 130.186 255.921 135.812 261.547L135.817 261.542Z" fill="#B28AE4"/>
<path d="M446.944 134.263L408.462 95.78L333.807 21.126C325.351 12.719 313.912 8.00012 301.988 8.00012C290.064 8.00012 278.624 12.719 270.168 21.126L234.813 56.481C226.406 64.9374 221.687 76.3769 221.688 88.301C221.687 100.225 226.406 111.665 234.813 120.121L287.913 173.221L347.951 233.259C356.407 241.666 367.847 246.385 379.771 246.385C391.695 246.385 403.134 241.666 411.59 233.259L446.945 197.9C455.352 189.443 460.07 178.004 460.07 166.08C460.07 154.155 455.352 142.716 446.945 134.259L446.944 134.263Z" fill="#C9AAF2"/>
<path d="M402.635 95.78H408.465L333.807 21.126C325.351 12.719 313.912 8.00012 301.988 8.00012C290.064 8.00012 278.624 12.719 270.168 21.126L234.813 56.481C226.406 64.9374 221.687 76.3769 221.688 88.301C221.687 100.225 226.406 111.665 234.813 120.121L287.913 173.221L338.993 122.141C347.35 113.783 357.272 107.153 368.192 102.63C379.112 98.1071 390.816 95.7794 402.635 95.78Z" fill="#B28AE4"/>
<path d="M234.813 120.121L135.813 219.116C135.447 219.482 135.092 219.855 134.749 220.235C129.618 225.925 126.858 233.362 127.036 241.022C127.214 248.682 130.315 255.983 135.705 261.429C135.742 261.466 135.775 261.505 135.812 261.542L167.698 293.428L199.585 261.541L287.907 173.219L234.813 120.121Z" fill="#976BCF"/>
<path d="M167.135 294L167.705 293.43L135.819 261.544L74.501 342.86L125.212 393.571L140.775 381.836V357.636C140.776 333.768 150.258 310.877 167.135 294Z" fill="#B28AE4"/>
<path d="M125.211 416.07C122.256 416.074 119.329 415.494 116.598 414.363C113.868 413.232 111.388 411.573 109.301 409.48L58.5901 358.77C56.5008 356.681 54.8435 354.2 53.7127 351.47C52.582 348.741 52 345.815 52 342.86C52 339.905 52.582 336.979 53.7127 334.25C54.8435 331.52 56.5008 329.039 58.5901 326.95C60.6795 324.861 63.1599 323.203 65.8897 322.073C68.6195 320.942 71.5454 320.36 74.5001 320.36C77.4549 320.36 80.3807 320.942 83.1106 322.073C85.8404 323.203 88.3208 324.861 90.4101 326.95L141.121 377.661C144.268 380.808 146.41 384.817 147.278 389.181C148.146 393.546 147.7 398.069 145.998 402.181C144.295 406.292 141.411 409.806 137.711 412.278C134.011 414.75 129.661 416.07 125.211 416.07Z" fill="#976BCF"/>
</svg>
