<svg width="512" height="512" viewBox="0 0 512 512" fill="none" xmlns="http://www.w3.org/2000/svg">
<path d="M316.5 452L286.5 425V395L256.5 375L226.5 395V425L196.5 452C188.544 452 180.913 455.161 175.287 460.787C169.661 466.413 166.5 474.044 166.5 482C166.5 489.956 169.661 497.587 175.287 503.213C180.913 508.839 188.544 512 196.5 512H316.5C324.456 512 332.087 508.839 337.713 503.213C343.339 497.587 346.5 489.956 346.5 482C346.5 474.044 343.339 466.413 337.713 460.787C332.087 455.161 324.456 452 316.5 452Z" fill="#676FB2"/>
<path d="M286.5 470.377V395L256.5 375L226.5 395V425L196.5 452C188.544 452 180.913 455.161 175.287 460.787C169.661 466.413 166.5 474.044 166.5 482C166.5 489.956 169.661 497.587 175.287 503.213C180.913 508.839 188.544 512 196.5 512H316.5C307.764 509.088 300.166 503.501 294.781 496.031C289.397 488.561 286.5 479.586 286.5 470.377Z" fill="#4C5699"/>
<path d="M43.579 445.266L166.5 422L176.5 407L166.5 392L43.579 368.734C39.2435 367.914 34.7805 368.06 30.5078 369.162C26.2352 370.263 22.2583 372.294 18.8605 375.109C15.4627 377.924 12.7277 381.454 10.8505 385.448C8.97324 389.441 7.99995 393.799 8 398.211L8 415.789C7.99995 420.202 8.97324 424.56 10.8505 428.553C12.7277 432.546 15.4627 436.076 18.8605 438.891C22.2583 441.706 26.2352 443.737 30.5078 444.839C34.7805 445.941 39.2435 446.087 43.579 445.266Z" fill="#4C5699"/>
<path d="M166.5 422C166.5 429.957 169.661 437.587 175.287 443.213C180.913 448.84 188.544 452 196.5 452C204.456 452 212.087 448.84 217.713 443.213C223.339 437.587 226.5 429.957 226.5 422V366.656H166.5V422Z" fill="#7CE3FF"/>
<path d="M286.5 366.656V422C286.5 429.957 289.661 437.587 295.287 443.213C300.913 448.84 308.544 452 316.5 452C324.456 452 332.087 448.84 337.713 443.213C343.339 437.587 346.5 429.957 346.5 422V366.656H286.5Z" fill="#7CE3FF"/>
<path d="M355 45H158C126.174 45 95.6516 57.6428 73.1472 80.1472C50.6428 102.652 38 133.174 38 165V275C38 306.826 50.6428 337.348 73.1472 359.853C95.6516 382.357 126.174 395 158 395H355C386.826 395 417.348 382.357 439.853 359.853C462.357 337.348 475 306.826 475 275V165C475 133.174 462.357 102.652 439.853 80.1472C417.348 57.6428 386.826 45 355 45Z" fill="#B9F0FF"/>
<path d="M215 275V165C215 133.174 227.643 102.652 250.147 80.1472C272.652 57.6428 303.174 45 335 45H158C126.174 45 95.6516 57.6428 73.1472 80.1472C50.6428 102.652 38 133.174 38 165V275C38 306.826 50.6428 337.348 73.1472 359.853C95.6516 382.357 126.174 395 158 395H335C303.174 395 272.652 382.357 250.147 359.853C227.643 337.348 215 306.826 215 275Z" fill="#7CE3FF"/>
<path d="M158 335C142.087 335 126.826 328.679 115.574 317.426C104.321 306.174 98 290.913 98 275V165C98 149.087 104.321 133.826 115.574 122.574C126.826 111.321 142.087 105 158 105H355C370.913 105 386.174 111.321 397.426 122.574C408.679 133.826 415 149.087 415 165V275C415 290.913 408.679 306.174 397.426 317.426C386.174 328.679 370.913 335 355 335H158Z" fill="#676FB2"/>
<path d="M231.054 105H158C142.087 105 126.826 111.321 115.574 122.574C104.321 133.826 98 149.087 98 165V275C98 290.913 104.321 306.174 115.574 317.426C126.826 328.679 142.087 335 158 335H231.054C220.505 316.766 214.967 296.066 215 275V165C214.967 143.934 220.505 123.234 231.054 105Z" fill="#4C5699"/>
<path d="M445 15H305C289.087 15 273.826 21.3214 262.574 32.5736C251.321 43.8258 245 59.087 245 75V215C245 230.913 251.321 246.174 262.574 257.426C273.826 268.679 289.087 275 305 275H445C460.913 275 476.174 268.679 487.426 257.426C498.679 246.174 505 230.913 505 215V75C505 59.087 498.679 43.8258 487.426 32.5736C476.174 21.3214 460.913 15 445 15V15Z" fill="#676FB2"/>
<path d="M365 215V75C365 59.087 371.321 43.8258 382.574 32.5736C393.826 21.3214 409.087 15 425 15L305 15C289.087 15 273.826 21.3214 262.574 32.5736C251.321 43.8258 245 59.087 245 75V215C245 230.913 251.321 246.174 262.574 257.426C273.826 268.679 289.087 275 305 275H425C409.087 275 393.826 268.679 382.574 257.426C371.321 246.174 365 230.913 365 215Z" fill="#4C5699"/>
<path d="M405 81.7449C391.293 75.241 375.845 73.3652 360.98 76.3999C346.115 79.4345 332.638 87.2154 322.578 98.5713C312.517 109.927 306.418 124.244 305.197 139.366C303.976 154.488 307.7 169.598 315.809 182.421C323.917 195.243 335.972 205.085 350.157 210.465C364.343 215.845 379.892 216.472 394.464 212.251C409.037 208.03 421.844 199.19 430.958 187.061C440.072 174.932 445 160.171 445 145C445.035 131.745 441.291 118.754 434.206 107.551C427.122 96.3473 416.99 87.3956 405 81.7449Z" fill="#B9F0FF"/>
<path d="M365 145C364.998 131.752 368.756 118.775 375.836 107.578C382.917 96.3808 393.03 87.4228 405 81.745C394.33 76.6882 382.555 74.4123 370.77 75.1292C358.984 75.846 347.572 79.5323 337.594 85.8451C327.616 92.1579 319.397 100.892 313.701 111.235C308.006 121.578 305.02 133.193 305.02 145C305.02 156.807 308.006 168.423 313.701 178.765C319.397 189.108 327.616 197.842 337.594 204.155C347.572 210.468 358.984 214.154 370.77 214.871C382.555 215.588 394.33 213.312 405 208.255C393.03 202.577 382.917 193.619 375.836 182.422C368.756 171.225 364.998 158.248 365 145Z" fill="#C9AAF2"/>
<path d="M179.05 273.6C177.312 273.603 175.626 273.002 174.281 271.901C172.936 270.8 172.015 269.267 171.674 267.563C171.333 265.858 171.593 264.088 172.411 262.554C173.229 261.021 174.554 259.818 176.159 259.152C177.765 258.485 179.551 258.396 181.215 258.9C182.879 259.404 184.316 260.469 185.282 261.914C186.249 263.359 186.684 265.094 186.514 266.824C186.344 268.553 185.579 270.171 184.35 271.4C183.657 272.1 182.831 272.655 181.921 273.032C181.011 273.41 180.035 273.603 179.05 273.6ZM157.84 252.38C156.854 252.383 155.878 252.191 154.966 251.815C154.055 251.439 153.227 250.887 152.53 250.19L63.7499 161.4C62.3831 159.986 61.6262 158.092 61.6423 156.125C61.6585 154.159 62.4464 152.277 63.8363 150.886C65.2262 149.495 67.1069 148.705 69.0734 148.687C71.0399 148.669 72.9348 149.424 74.3499 150.79L163.14 239.58C164.187 240.629 164.901 241.965 165.19 243.419C165.478 244.873 165.33 246.38 164.763 247.749C164.196 249.119 163.235 250.29 162.003 251.114C160.771 251.938 159.322 252.379 157.84 252.38Z" fill="#7CE3FF"/>
<path d="M305 357.12C304.015 357.123 303.039 356.93 302.129 356.552C301.219 356.175 300.393 355.62 299.7 354.92L169.22 224.45C167.817 223.04 167.03 221.133 167.03 219.145C167.03 217.156 167.817 215.249 169.22 213.84C169.916 213.143 170.743 212.59 171.654 212.212C172.564 211.835 173.54 211.641 174.525 211.641C175.511 211.641 176.486 211.835 177.397 212.212C178.307 212.59 179.134 213.143 179.831 213.84L310.3 344.32C311.347 345.369 312.061 346.704 312.349 348.158C312.638 349.612 312.49 351.119 311.923 352.489C311.356 353.859 310.395 355.029 309.163 355.854C307.931 356.678 306.482 357.118 305 357.12ZM153.31 205.43C151.572 205.432 149.886 204.832 148.541 203.731C147.196 202.63 146.275 201.097 145.934 199.392C145.593 197.688 145.853 195.918 146.671 194.384C147.489 192.851 148.814 191.648 150.419 190.982C152.024 190.315 153.811 190.226 155.475 190.73C157.138 191.234 158.576 192.299 159.542 193.743C160.508 195.188 160.944 196.924 160.774 198.653C160.604 200.383 159.839 202.001 158.61 203.23C157.916 203.93 157.091 204.485 156.181 204.862C155.271 205.24 154.295 205.433 153.31 205.43Z" fill="#B9F0FF"/>
</svg>
