<svg width="512" height="512" viewBox="0 0 512 512" fill="none" xmlns="http://www.w3.org/2000/svg">
<path d="M256 320.293C178.172 320.293 114.854 256.975 114.854 179.147C114.854 101.319 178.172 38.001 256 38.001C333.828 38.001 397.146 101.319 397.146 179.149C397.146 256.979 333.828 320.293 256 320.293ZM256 75.763C235.553 75.763 215.565 81.8262 198.564 93.1859C181.563 104.546 168.312 120.692 160.487 139.582C152.662 158.473 150.615 179.26 154.603 199.314C158.592 219.368 168.438 237.789 182.896 252.248C197.354 266.706 215.775 276.553 235.829 280.542C255.883 284.532 276.67 282.485 295.561 274.66C314.452 266.836 330.598 253.586 341.958 236.585C353.319 219.584 359.383 199.596 359.383 179.149C359.353 151.739 348.451 125.46 329.07 106.078C309.688 86.6964 283.41 75.7939 256 75.763Z" fill="#A2735E"/>
<path opacity="0.15" d="M388.965 131.795H365.546C360.01 131.794 354.516 132.77 349.319 134.678C356.833 150.437 360.233 167.842 359.204 185.27C358.174 202.698 352.747 219.581 343.43 234.346C334.113 249.11 321.209 261.275 305.92 269.705C290.632 278.135 273.458 282.556 256 282.556C238.541 282.556 221.367 278.135 206.079 269.705C190.791 261.275 177.886 249.11 168.569 234.346C159.252 219.581 153.825 202.698 152.796 185.27C151.766 167.842 155.166 150.437 162.68 134.678C157.483 132.77 151.99 131.794 146.453 131.795H123.034C117.608 146.992 114.841 163.01 114.854 179.147C114.854 256.975 178.172 320.293 256 320.293C333.828 320.293 397.146 256.975 397.146 179.149C397.159 163.012 394.392 146.993 388.965 131.795Z" fill="black"/>
<path d="M339.313 172.249L331.872 201.849C330.498 207.307 327.341 212.151 322.902 215.611C318.462 219.071 312.995 220.95 307.366 220.949H204.633C199.005 220.949 193.537 219.07 189.098 215.61C184.658 212.15 181.501 207.307 180.127 201.849L172.686 172.249C171.217 166.404 167.838 161.218 163.085 157.512C158.333 153.806 152.479 151.794 146.452 151.794H28.2931C24.169 151.794 20.0948 152.696 16.3559 154.437C12.6171 156.177 9.30407 158.714 6.649 161.87C3.99393 165.026 2.06103 168.724 0.985737 172.706C-0.0895573 176.687 -0.281238 180.856 0.424124 184.919L42.3621 426.449C44.6792 439.79 51.6311 451.884 61.9925 460.601C72.3539 469.318 85.4598 474.097 99.0001 474.097H413C426.54 474.097 439.646 469.318 450.008 460.601C460.369 451.884 467.321 439.79 469.638 426.449L511.576 184.919C512.282 180.856 512.09 176.687 511.015 172.705C509.94 168.724 508.007 165.025 505.352 161.869C502.697 158.714 499.384 156.176 495.645 154.436C491.906 152.696 487.831 151.794 483.707 151.794H365.547C359.521 151.794 353.667 153.806 348.914 157.512C344.161 161.218 340.782 166.404 339.313 172.249Z" fill="#FFCE71"/>
<path d="M441.457 348.459C415.945 348.459 387.736 352.159 360.457 355.731C353.657 356.622 346.971 357.498 340.506 358.292C339.79 358.377 339.063 358.301 338.381 358.068C337.698 357.835 337.076 357.451 336.561 356.946C336.047 356.44 335.652 355.825 335.407 355.147C335.162 354.468 335.072 353.744 335.145 353.026C335.362 350.71 335.479 348.371 335.495 346.011C335.771 302.694 300.757 266.773 257.446 266.011C246.762 265.788 236.143 267.736 226.233 271.736C216.323 275.736 207.328 281.705 199.791 289.282C194.417 294.656 174.391 313.482 142.316 330.09C111.648 345.969 81.2611 354.022 52.0001 354.024C46.6298 354.025 41.2631 353.744 35.9221 353.183L29.5221 352.507L42.3621 426.449C44.679 439.79 51.6308 451.884 61.9922 460.601C72.3537 469.318 85.4596 474.098 99.0001 474.098H413C426.541 474.098 439.647 469.318 450.008 460.601C460.369 451.884 467.321 439.79 469.638 426.449L482.393 352.987C470.911 349.949 457.445 348.459 441.457 348.459Z" fill="white"/>
<path d="M291.478 391.431C290.495 391.374 289.552 391.024 288.77 390.427C287.987 389.829 287.402 389.012 287.088 388.078C286.774 387.145 286.746 386.14 287.008 385.191C287.271 384.242 287.811 383.393 288.559 382.754C293.555 378.384 297.621 373.055 300.515 367.082C303.409 361.109 305.072 354.615 305.405 347.986C305.738 341.357 304.734 334.729 302.454 328.496C300.173 322.263 296.662 316.553 292.129 311.705C287.596 306.856 282.134 302.969 276.069 300.275C270.003 297.581 263.457 296.134 256.821 296.021C250.185 295.908 243.594 297.131 237.44 299.617C231.286 302.103 225.695 305.802 221 310.493C193.9 337.593 119.668 391.18 34.8531 383.214L42.3621 426.449C44.6792 439.79 51.6311 451.884 61.9925 460.601C72.3539 469.318 85.4598 474.097 99.0001 474.097H413C426.54 474.097 439.646 469.318 450.008 460.601C460.369 451.884 467.321 439.79 469.638 426.449L477.238 382.698C431.181 368.687 339.114 394.159 291.478 391.431Z" fill="#95D4E9"/>
<path d="M256 424.383C135.319 424.383 76.0351 416.847 39.0921 407.613L42.3621 426.446C44.6786 439.787 51.6302 451.882 61.9916 460.6C72.3531 469.317 85.4593 474.097 99.0001 474.097H413C426.54 474.097 439.646 469.318 450.008 460.601C460.369 451.884 467.321 439.789 469.638 426.449L472.908 407.616C435.965 416.849 376.681 424.383 256 424.383Z" fill="#5F75A1"/>
<path opacity="0.1" d="M102.791 151.794H28.2911C24.1672 151.794 20.0932 152.697 16.3546 154.437C12.616 156.178 9.3032 158.715 6.64835 161.871C3.9935 165.027 2.06079 168.725 0.985607 172.706C-0.0895733 176.687 -0.28121 180.856 0.424124 184.919L42.3621 426.449C44.6792 439.79 51.6311 451.884 61.9925 460.601C72.3539 469.318 85.4598 474.097 99.0001 474.097H176.982C125.474 400.484 100.541 227.199 102.791 151.794Z" fill="black"/>
</svg>
