<svg width="513" height="512" viewBox="0 0 513 512" fill="none" xmlns="http://www.w3.org/2000/svg">
<path d="M346.108 62.824C344.119 62.824 342.211 62.0338 340.805 60.6273C339.398 59.2208 338.608 57.3131 338.608 55.324V37.5C338.608 35.5109 339.398 33.6032 340.805 32.1967C342.211 30.7902 344.119 30 346.108 30C348.097 30 350.005 30.7902 351.411 32.1967C352.818 33.6032 353.608 35.5109 353.608 37.5V55.324C353.608 57.3131 352.818 59.2208 351.411 60.6273C350.005 62.0338 348.097 62.824 346.108 62.824Z" fill="#4E5660"/>
<path d="M323.14 173.273H369.078V367.52H323.14V173.273Z" fill="#E1B89A"/>
<path d="M323.14 173.273H369.078V243.386H323.14V173.273Z" fill="#D2996F"/>
<path d="M346.108 55.3242C264.499 55.3242 199.199 102.98 180.479 161.5C179.223 165.421 178.91 169.583 179.566 173.647C180.222 177.712 181.829 181.564 184.255 184.89C186.681 188.216 189.859 190.922 193.529 192.788C197.198 194.655 201.257 195.628 205.374 195.629H263.89C270.485 195.635 276.838 193.145 281.672 188.66C286.507 184.175 289.465 178.026 289.953 171.449C292.71 133.676 303.812 77.3952 346.108 55.3242Z" fill="#89D47F"/>
<path d="M346.108 55.3242C427.713 55.3242 493.022 102.98 511.737 161.496C512.992 165.417 513.304 169.579 512.647 173.644C511.991 177.708 510.383 181.56 507.957 184.886C505.53 188.212 502.353 190.918 498.683 192.784C495.013 194.651 490.954 195.624 486.837 195.625H428.323C421.728 195.63 415.376 193.14 410.542 188.655C405.708 184.17 402.749 178.022 402.261 171.445C399.507 133.676 388.405 77.3952 346.108 55.3242Z" fill="#E26E7E"/>
<path d="M401.933 167.316C398.671 129.687 386.89 76.6052 346.109 55.3242C305.328 76.6052 293.543 129.687 290.281 167.316C289.976 170.92 290.424 174.548 291.595 177.97C292.767 181.392 294.636 184.534 297.086 187.195C299.535 189.857 302.51 191.98 305.823 193.432C309.136 194.883 312.715 195.63 316.332 195.625H375.887C379.504 195.63 383.082 194.882 386.394 193.431C389.707 191.98 392.682 189.856 395.131 187.194C397.58 184.533 399.449 181.392 400.62 177.97C401.791 174.548 402.238 170.92 401.933 167.316Z" fill="#F7EF87"/>
<path d="M316.331 195.625H349.699C320.863 178.445 305.863 145.5 301.179 112.973C294.769 131.407 291.706 150.844 290.279 167.317C289.975 170.921 290.423 174.549 291.594 177.971C292.766 181.393 294.635 184.535 297.085 187.196C299.534 189.857 302.509 191.981 305.823 193.432C309.136 194.883 312.714 195.63 316.331 195.625Z" fill="#EFD176"/>
<path d="M400.851 399.895H438.124L461.765 452.848C462.151 453.714 462.315 454.662 462.241 455.607C462.167 456.552 461.858 457.463 461.342 458.258C460.827 459.053 460.12 459.706 459.287 460.159C458.455 460.611 457.522 460.848 456.574 460.848H431.042C429.322 460.848 427.642 460.333 426.218 459.369C424.794 458.404 423.692 457.035 423.054 455.438L400.851 399.895Z" fill="#4E5660"/>
<path d="M231.729 399.895H194.459L170.814 452.848C170.428 453.714 170.265 454.662 170.339 455.607C170.413 456.551 170.721 457.463 171.237 458.258C171.753 459.052 172.459 459.706 173.292 460.158C174.125 460.611 175.057 460.848 176.005 460.848H201.536C203.256 460.848 204.936 460.333 206.36 459.369C207.784 458.404 208.886 457.035 209.524 455.438L231.729 399.895Z" fill="#4E5660"/>
<path d="M469.937 419.32H190.21C181.804 419.343 173.477 417.698 165.712 414.481C157.946 411.264 150.895 406.538 144.968 400.578L8.585 264.2C6.17984 261.795 4.27195 258.939 2.97026 255.797C1.66858 252.655 0.998582 249.287 0.998535 245.885C0.998441 239.016 3.7272 232.428 8.5845 227.57C13.4418 222.713 20.0298 219.984 26.8991 219.984C30.3005 219.984 33.6686 220.654 36.8111 221.955C39.9535 223.257 42.8088 225.165 45.214 227.57L181.599 363.949C182.727 365.084 184.069 365.984 185.548 366.597C187.026 367.21 188.612 367.523 190.212 367.519H469.937C476.806 367.519 483.394 370.248 488.251 375.105C493.108 379.962 495.837 386.55 495.837 393.419C495.837 400.288 493.108 406.876 488.251 411.733C483.394 416.59 476.806 419.319 469.937 419.319V419.32Z" fill="#8EAFE2"/>
<path d="M243.737 367.52H190.21C188.61 367.524 187.024 367.211 185.546 366.598C184.067 365.985 182.725 365.085 181.597 363.95L45.214 227.57C42.8088 225.165 39.9535 223.257 36.8111 221.955C33.6686 220.654 30.3005 219.984 26.8991 219.984C20.0298 219.984 13.4418 222.713 8.5845 227.57C6.17941 229.976 4.2716 232.831 2.96999 235.973C1.66839 239.116 0.998489 242.484 0.998535 245.885C0.998629 252.755 3.72756 259.343 8.585 264.2L144.968 400.578C150.895 406.538 157.946 411.264 165.711 414.481C173.477 417.698 181.804 419.343 190.21 419.32H256.667C247.636 407.25 240.284 386.625 243.737 367.52Z" fill="#6A96D7"/>
<path d="M352.116 410.145C349.99 410.149 347.884 409.732 345.92 408.918C343.955 408.104 342.172 406.909 340.671 405.403L268.944 333.676C268.473 333.203 267.913 332.828 267.296 332.573C266.679 332.318 266.018 332.187 265.35 332.188H97.019C92.7479 332.155 88.6631 330.434 85.6547 327.402C82.6464 324.37 80.9583 320.272 80.9583 316.001C80.9583 311.729 82.6464 307.631 85.6547 304.599C88.6631 301.567 92.7479 299.847 97.019 299.813H265.351C270.271 299.8 275.146 300.762 279.692 302.645C284.238 304.528 288.365 307.294 291.835 310.782L363.565 382.512C365.829 384.776 367.37 387.661 367.994 390.801C368.618 393.941 368.297 397.196 367.072 400.153C365.846 403.111 363.771 405.639 361.109 407.418C358.447 409.196 355.318 410.145 352.116 410.145Z" fill="#A3DEFE"/>
<path d="M205.374 195.625H263.89C270.485 195.631 276.838 193.141 281.672 188.656C286.507 184.17 289.465 178.022 289.953 171.445C291.215 154.156 294.238 132.992 301.191 113C298.468 94.125 299.214 75.4 302.754 59.98C241.972 73.309 195.737 113.789 180.479 161.492C179.222 165.413 178.91 169.575 179.566 173.64C180.222 177.705 181.828 181.557 184.254 184.884C186.681 188.21 189.858 190.917 193.528 192.783C197.198 194.65 201.257 195.624 205.374 195.625Z" fill="#5EC783"/>
</svg>
