<svg width="512" height="512" viewBox="0 0 512 512" fill="none" xmlns="http://www.w3.org/2000/svg">
<path d="M483.654 329.282H39.1389V227.516H443.839C449.067 227.516 454.244 228.546 459.074 230.546C463.905 232.547 468.294 235.48 471.991 239.176C475.687 242.873 478.62 247.262 480.621 252.093C482.621 256.923 483.651 262.1 483.651 267.328L483.654 329.282Z" fill="#FCF2D0"/>
<path d="M147.609 227.516H39.1389V329.282H172.592C155.897 301.151 147.678 264.135 147.609 227.516Z" fill="#F6E3A3"/>
<path d="M443.842 227.516H233.492V329.282H483.654V267.328C483.654 256.769 479.459 246.643 471.993 239.177C464.527 231.711 454.401 227.516 443.842 227.516Z" fill="#8EAFE2"/>
<path d="M233.492 227.516H300.5V329.282H233.492V227.516Z" fill="#6A96D7"/>
<path d="M498.4 329.282H0V375.073C0 378.68 1.43285 382.139 3.98335 384.69C6.53384 387.24 9.99306 388.673 13.6 388.673H498.4C502.007 388.673 505.466 387.24 508.017 384.69C510.567 382.139 512 378.68 512 375.073V342.873C512 341.087 511.648 339.318 510.965 337.668C510.281 336.018 509.28 334.519 508.017 333.256C506.754 331.993 505.255 330.992 503.604 330.308C501.954 329.625 500.186 329.273 498.4 329.273V329.282Z" fill="#E1B89A"/>
<path d="M228.386 329.282H0V375.073C0 378.68 1.43285 382.139 3.98335 384.69C6.53384 387.24 9.99306 388.673 13.6 388.673H235.2C226.636 372.938 224.463 346.073 228.386 329.282Z" fill="#D2996F"/>
<path d="M13.139 101H26C27.7254 101 29.434 101.34 31.0281 102C32.6222 102.66 34.0706 103.628 35.2907 104.848C36.5107 106.068 37.4786 107.517 38.1389 109.111C38.7992 110.705 39.139 112.414 39.139 114.139V329.282H0V114.139C0 110.654 1.38428 107.312 3.84832 104.848C6.31236 102.384 9.65432 101 13.139 101Z" fill="#E1B89A"/>
<path d="M250.416 210.88H216.568C213.384 210.88 210.331 212.145 208.079 214.396C205.828 216.647 204.563 219.701 204.563 222.885V329.285H262.42V222.885C262.421 221.309 262.111 219.748 261.508 218.291C260.905 216.835 260.021 215.511 258.907 214.396C257.793 213.282 256.47 212.397 255.013 211.794C253.557 211.19 251.996 210.88 250.42 210.88H250.416Z" fill="#A3DEFE"/>
<path d="M133.74 167.102H108.94C98.1655 167.102 87.6356 170.314 78.6959 176.329C69.7561 182.343 62.8124 190.886 58.752 200.866C57.8694 203.035 57.4491 205.364 57.518 207.704C57.5869 210.044 58.1434 212.344 59.152 214.457C61.0175 218.366 63.9516 221.667 67.6148 223.978C71.2781 226.289 75.5207 227.516 79.852 227.516H162.817C167.148 227.516 171.391 226.289 175.054 223.978C178.717 221.667 181.651 218.366 183.517 214.457C184.525 212.344 185.082 210.044 185.151 207.704C185.219 205.364 184.799 203.035 183.917 200.866C179.856 190.886 172.912 182.343 163.972 176.329C155.032 170.315 144.503 167.102 133.728 167.102H133.74Z" fill="#A3DEFE"/>
<path d="M111.619 167.102H108.944C98.1694 167.102 87.6395 170.314 78.6998 176.329C69.76 182.343 62.8163 190.886 58.7559 200.866C57.8733 203.035 57.4531 205.364 57.5219 207.704C57.5908 210.044 58.1473 212.344 59.1559 214.457C61.0214 218.366 63.9555 221.667 67.6187 223.978C71.282 226.289 75.5246 227.516 79.8559 227.516H126.305C112.037 211.312 107.23 184.36 111.619 167.102Z" fill="#7ACEFA"/>
<path d="M107.87 447.546H52.6099C50.8407 447.546 49.0888 447.197 47.4542 446.52C45.8196 445.843 44.3344 444.851 43.0834 443.6C41.8324 442.349 40.8401 440.863 40.1631 439.229C39.4862 437.594 39.1378 435.842 39.1379 434.073V388.673H121.338V434.073C121.338 435.842 120.99 437.594 120.314 439.228C119.637 440.863 118.645 442.348 117.394 443.599C116.144 444.85 114.659 445.842 113.025 446.52C111.391 447.197 109.639 447.546 107.87 447.546Z" fill="#E1B89A"/>
<path d="M404.13 447.546H459.39C461.159 447.546 462.911 447.197 464.546 446.52C466.18 445.843 467.666 444.851 468.917 443.6C470.168 442.349 471.16 440.863 471.837 439.229C472.514 437.594 472.862 435.842 472.862 434.073V388.673H390.662V434.073C390.662 435.842 391.01 437.594 391.686 439.228C392.363 440.863 393.355 442.348 394.606 443.599C395.856 444.85 397.341 445.842 398.975 446.52C400.61 447.197 402.361 447.546 404.13 447.546Z" fill="#D2996F"/>
</svg>
