<svg width="512" height="512" viewBox="0 0 512 512" fill="none" xmlns="http://www.w3.org/2000/svg">
<path d="M481.466 130.034L412.216 60.7839L382.966 31.5339C367.897 16.4654 347.46 8 326.15 8C304.84 8 284.403 16.4654 269.334 31.5339L214.074 86.7939L31.534 269.334C16.4655 284.402 8.00006 304.84 8.00006 326.15C8.00006 347.46 16.4655 367.897 31.534 382.966L60.784 412.216L130.034 481.466C145.103 496.534 165.54 505 186.85 505C208.16 505 228.597 496.534 243.666 481.466L278.234 446.9L426.205 298.927L481.465 243.667C488.926 236.206 494.845 227.348 498.883 217.599C502.921 207.851 504.999 197.402 504.999 186.85C504.999 176.299 502.921 165.85 498.883 156.102C494.845 146.353 488.926 137.495 481.465 130.034H481.466Z" fill="#EFEDFF"/>
<path d="M326.15 8C315.598 7.99995 305.15 10.0782 295.401 14.1162C285.653 18.1542 276.795 24.0728 269.334 31.534L214.074 86.794L31.534 269.334C16.4655 284.403 8.00006 304.84 8.00006 326.15C8.00006 347.46 16.4655 367.897 31.534 382.966L60.784 412.216L130.034 481.466C145.103 496.535 165.54 505 186.85 505C208.16 505 228.597 496.535 243.666 481.466L278.234 446.9C244.978 376.437 231.853 298.151 240.309 220.694C248.765 143.238 278.473 69.6275 326.15 8V8Z" fill="#D4D4FF"/>
<path d="M382.966 31.5339C367.897 16.4654 347.46 8 326.15 8C304.84 8 284.403 16.4654 269.334 31.5339L31.534 269.334C16.4655 284.402 8.00006 304.84 8.00006 326.15C8.00006 347.46 16.4655 367.897 31.534 382.966L60.784 412.216L239.095 233.905L412.216 60.7839L382.966 31.5339Z" fill="#ADD8FF"/>
<path d="M269.334 31.534L31.534 269.334C16.4655 284.403 8.00006 304.84 8.00006 326.15C8.00006 347.46 16.4655 367.897 31.534 382.966L60.784 412.216L239.078 233.922C245.404 151.725 275.675 73.1822 326.15 8C315.598 7.99995 305.15 10.0782 295.401 14.1162C285.653 18.1542 276.795 24.0728 269.334 31.534Z" fill="#88C5FD"/>
<path d="M257.754 325.386C286.391 306.46 298.493 259.162 276.164 236.833C253.719 214.388 206.431 226.766 187.611 255.243L130.269 236.129C125.322 234.479 119.938 234.735 115.17 236.848C110.403 238.96 106.596 242.777 104.497 247.55C102.397 252.324 102.155 257.709 103.819 262.651C105.483 267.593 108.932 271.736 113.491 274.267L158.508 299.276L144.008 321.219L134.59 318.08C111.796 310.48 93.629 342.78 120.054 357.464C112.333 369.146 114.783 382.19 122.796 390.202C130.908 398.314 143.959 400.594 155.534 392.944L156.78 395.186C159.312 399.744 163.454 403.193 168.396 404.857C173.338 406.52 178.722 406.279 183.495 404.179C188.268 402.079 192.085 398.273 194.198 393.506C196.311 388.739 196.568 383.355 194.918 378.409L191.778 368.99L213.721 354.49L238.731 399.507C241.262 404.066 245.405 407.515 250.347 409.179C255.289 410.843 260.674 410.601 265.447 408.501C270.221 406.401 274.038 402.595 276.15 397.827C278.263 393.06 278.519 387.675 276.869 382.729L257.754 325.386Z" fill="#4293DD"/>
<path d="M414.991 277.105C414.297 276.396 413.47 275.832 412.557 275.446C411.644 275.059 410.663 274.857 409.671 274.852C408.68 274.846 407.697 275.038 406.78 275.415C405.863 275.792 405.029 276.347 404.328 277.048C403.627 277.749 403.072 278.583 402.695 279.5C402.318 280.417 402.126 281.4 402.132 282.391C402.137 283.383 402.339 284.364 402.726 285.277C403.112 286.19 403.676 287.017 404.385 287.711L420.9 304.229L431.506 293.623L414.991 277.105Z" fill="#4293DD"/>
<path d="M366.146 228.261C364.735 226.879 362.835 226.11 360.86 226.121C358.884 226.131 356.993 226.921 355.596 228.317C354.199 229.714 353.41 231.605 353.4 233.581C353.389 235.556 354.158 237.456 355.54 238.867L371.822 255.149C372.516 255.858 373.343 256.422 374.256 256.809C375.169 257.195 376.15 257.397 377.142 257.403C378.133 257.408 379.116 257.216 380.033 256.839C380.95 256.462 381.784 255.907 382.485 255.206C383.186 254.505 383.741 253.671 384.118 252.754C384.495 251.837 384.687 250.854 384.681 249.863C384.676 248.871 384.474 247.89 384.087 246.977C383.701 246.064 383.137 245.237 382.428 244.543L366.146 228.261Z" fill="#4293DD"/>
<path d="M268.457 130.571C267.045 129.189 265.146 128.42 263.171 128.431C261.195 128.441 259.304 129.231 257.907 130.627C256.51 132.024 255.721 133.915 255.711 135.891C255.7 137.866 256.469 139.766 257.851 141.177L274.133 157.459C275.545 158.841 277.444 159.61 279.419 159.6C281.395 159.589 283.286 158.8 284.683 157.403C286.08 156.006 286.869 154.115 286.879 152.14C286.89 150.164 286.121 148.265 284.739 146.853L268.457 130.571Z" fill="#4293DD"/>
<path d="M219.377 81.4912L208.77 92.1002L225.287 108.617C225.981 109.326 226.808 109.89 227.721 110.277C228.634 110.663 229.615 110.865 230.607 110.871C231.598 110.876 232.581 110.684 233.498 110.307C234.415 109.93 235.249 109.375 235.95 108.674C236.651 107.973 237.206 107.14 237.583 106.222C237.96 105.305 238.152 104.322 238.146 103.331C238.141 102.339 237.939 101.358 237.552 100.445C237.166 99.5322 236.602 98.7049 235.893 98.0112L219.377 81.4912Z" fill="#4293DD"/>
<path d="M317.3 179.416C315.881 178.071 313.994 177.332 312.038 177.358C310.083 177.384 308.216 178.173 306.833 179.556C305.451 180.939 304.664 182.807 304.639 184.762C304.614 186.717 305.354 188.605 306.7 190.022L322.978 206.3C324.396 207.647 326.283 208.386 328.238 208.361C330.194 208.337 332.062 207.549 333.445 206.167C334.828 204.785 335.616 202.917 335.642 200.962C335.668 199.007 334.93 197.119 333.584 195.7L317.3 179.416Z" fill="#4293DD"/>
</svg>
