<svg width="512" height="512" viewBox="0 0 512 512" fill="none" xmlns="http://www.w3.org/2000/svg">
<path d="M269.692 402.907C357.142 402.663 426.392 329.173 424.375 241.747C422.126 144.447 364.716 100.847 300.251 15.4662C296.638 10.6668 291.96 6.77173 286.585 4.08788C281.21 1.40403 275.286 0.00466495 269.279 1.16434e-05C263.271 -0.00464167 257.345 1.38554 251.966 4.06107C246.587 6.73659 241.903 10.6244 238.283 15.4182C172.501 102.555 114.054 146.174 114.054 247.713C114.054 268.131 118.084 288.348 125.911 307.205C133.738 326.063 145.21 343.191 159.668 357.607C174.126 372.024 191.286 383.447 210.166 391.22C229.046 398.993 249.274 402.965 269.692 402.907Z" fill="#EEA849"/>
<path d="M269.236 373.118C294.798 373.118 319.313 362.964 337.388 344.888C355.463 326.813 365.618 302.298 365.618 276.736C365.618 223.812 332.612 165.579 280.834 129.28C277.436 126.894 273.385 125.614 269.234 125.614C265.082 125.614 261.031 126.894 257.634 129.28C205.856 165.58 172.85 223.811 172.85 276.736C172.85 302.298 183.004 326.813 201.079 344.888C219.154 362.963 243.669 373.118 269.231 373.118H269.236Z" fill="#F7EF87"/>
<path d="M113.93 119.154C123.763 119.154 133.193 115.248 140.146 108.295C147.099 101.342 151.006 91.9112 151.006 82.078C151.006 61.719 138.306 39.319 118.392 25.356C117.085 24.4389 115.527 23.9468 113.93 23.9468C112.333 23.9468 110.775 24.4389 109.469 25.356C89.5465 39.319 76.8535 61.72 76.8535 82.079C76.8538 91.912 80.7601 101.342 87.7132 108.295C94.6663 115.248 104.097 119.154 113.93 119.154Z" fill="#EEA849"/>
<path d="M400.705 512H243.546C235.8 512.001 228.186 509.993 221.447 506.172C214.708 502.351 209.075 496.848 205.098 490.2C196.5 475.825 191.96 459.387 191.96 442.636C191.96 425.886 196.5 409.448 205.098 395.072C209.075 388.425 214.708 382.922 221.447 379.101C228.186 375.28 235.8 373.272 243.546 373.272H400.705C408.452 373.272 416.066 375.28 422.805 379.101C429.544 382.922 435.176 388.425 439.153 395.072C447.751 409.448 452.292 425.886 452.292 442.636C452.292 459.387 447.751 475.825 439.153 490.2C435.176 496.848 429.544 502.351 422.805 506.172C416.066 509.993 408.452 512.001 400.705 512Z" fill="#E1B89A"/>
<path d="M243.546 373.262C235.8 373.262 228.186 375.27 221.447 379.091C214.708 382.912 209.075 388.415 205.098 395.062C196.5 409.438 191.96 425.875 191.96 442.626C191.96 459.377 196.5 475.814 205.098 490.19C209.074 496.84 214.706 502.345 221.445 506.167C228.184 509.99 235.799 512 243.546 512H322.126C291.126 486.111 285.167 417.386 303.702 373.262H243.546Z" fill="#D2996F"/>
<path d="M272.932 456.231H255.387C253.398 456.231 251.49 455.441 250.083 454.035C248.677 452.628 247.887 450.721 247.887 448.731C247.887 446.742 248.677 444.835 250.083 443.428C251.49 442.022 253.398 441.231 255.387 441.231H272.932C274.921 441.231 276.828 442.022 278.235 443.428C279.642 444.835 280.432 446.742 280.432 448.731C280.432 450.721 279.642 452.628 278.235 454.035C276.828 455.441 274.921 456.231 272.932 456.231Z" fill="#E1B89A"/>
<path d="M344.238 426.38H314.228C312.238 426.38 310.331 425.59 308.924 424.184C307.518 422.777 306.728 420.869 306.728 418.88C306.728 416.891 307.518 414.984 308.924 413.577C310.331 412.171 312.238 411.38 314.228 411.38H344.238C346.227 411.38 348.134 412.171 349.541 413.577C350.947 414.984 351.738 416.891 351.738 418.88C351.738 420.869 350.947 422.777 349.541 424.184C348.134 425.59 346.227 426.38 344.238 426.38Z" fill="#D2996F"/>
<path d="M400.298 467.948H381.021C379.031 467.948 377.124 467.158 375.717 465.752C374.311 464.345 373.521 462.437 373.521 460.448C373.521 458.459 374.311 456.551 375.717 455.145C377.124 453.738 379.031 452.948 381.021 452.948H400.298C402.287 452.948 404.194 453.738 405.601 455.145C407.007 456.551 407.798 458.459 407.798 460.448C407.798 462.437 407.007 464.345 405.601 465.752C404.194 467.158 402.287 467.948 400.298 467.948Z" fill="#D2996F"/>
<path d="M284.473 455.546L136.792 509.3C129.513 511.95 121.67 512.666 114.031 511.38C106.391 510.093 99.2159 506.848 93.2054 501.96C80.2092 491.392 70.3207 477.499 64.5916 461.758C58.8624 446.018 57.507 429.019 60.6694 412.569C62.132 404.962 65.5425 397.863 70.5678 391.967C75.5931 386.071 82.0615 381.579 89.3414 378.929L237.022 325.177C244.302 322.528 252.145 321.811 259.784 323.098C267.424 324.384 274.599 327.63 280.609 332.517C293.604 343.085 303.492 356.977 309.222 372.715C314.951 388.454 316.307 405.452 313.146 421.9C311.685 429.509 308.274 436.609 303.249 442.506C298.223 448.403 291.754 452.896 284.473 455.546Z" fill="#E1B89A"/>
<path d="M153.213 355.68L89.3416 378.927C82.0617 381.577 75.5933 386.069 70.568 391.965C65.5427 397.861 62.1322 404.959 60.6696 412.567C57.5069 429.017 58.8623 446.016 64.5914 461.756C70.3206 477.497 80.2093 491.39 93.2056 501.958C99.2161 506.846 106.391 510.091 114.031 511.378C121.67 512.664 129.513 511.948 136.793 509.298L184.738 491.847C152.764 458.968 147.67 399.704 153.213 355.68Z" fill="#D2996F"/>
<path d="M105.687 422.365C103.923 422.367 102.214 421.747 100.862 420.613C99.5093 419.48 98.5999 417.906 98.2933 416.168C97.9867 414.43 98.3026 412.64 99.1855 411.112C100.068 409.585 101.462 408.417 103.12 407.815L119.606 401.815C121.476 401.135 123.54 401.225 125.343 402.066C127.146 402.907 128.542 404.43 129.222 406.3C129.902 408.169 129.812 410.233 128.971 412.036C128.13 413.839 126.607 415.235 124.737 415.915L108.251 421.915C107.43 422.215 106.562 422.369 105.687 422.369V422.365Z" fill="#E1B89A"/>
<path d="M174.129 448.349C172.365 448.351 170.656 447.731 169.304 446.597C167.951 445.464 167.042 443.89 166.735 442.152C166.429 440.415 166.745 438.624 167.627 437.097C168.51 435.569 169.904 434.401 171.562 433.799L199.762 423.535C201.632 422.855 203.696 422.945 205.499 423.786C207.302 424.627 208.697 426.15 209.378 428.02C210.058 429.89 209.968 431.953 209.127 433.756C208.286 435.56 206.763 436.955 204.893 437.635L176.693 447.899C175.872 448.199 175.004 448.353 174.129 448.353V448.349Z" fill="#D2996F"/>
<path d="M239.372 396.684C237.607 396.686 235.898 396.066 234.546 394.932C233.193 393.799 232.284 392.225 231.977 390.487C231.671 388.75 231.987 386.959 232.87 385.432C233.753 383.904 235.146 382.736 236.805 382.134L254.92 375.541C256.789 374.861 258.853 374.951 260.656 375.792C262.459 376.633 263.855 378.156 264.535 380.026C265.215 381.895 265.125 383.959 264.284 385.762C263.443 387.565 261.92 388.961 260.05 389.641L241.936 396.234C241.114 396.534 240.246 396.688 239.372 396.688V396.684Z" fill="#D2996F"/>
</svg>
