<svg width="512" height="512" viewBox="0 0 512 512" fill="none" xmlns="http://www.w3.org/2000/svg">
<path d="M99.75 72.501C91.7935 72.501 84.1629 75.6617 78.5368 81.2878C72.9107 86.9139 69.75 94.5445 69.75 102.501V122.03H129.75V102.501C129.75 98.5613 128.974 94.6602 127.466 91.0205C125.959 87.3807 123.749 84.0735 120.963 81.2878C118.177 78.502 114.87 76.2922 111.23 74.7846C107.591 73.277 103.69 72.501 99.75 72.501Z" fill="#FF8E9E"/>
<path d="M415 117.501H390.667L355.139 68.691C349.56 61.0548 342.262 54.8401 333.834 50.5504C325.406 46.2607 316.086 44.0166 306.629 44H213.789C204.329 44 195.004 46.2367 186.573 50.5275C178.143 54.8184 170.846 61.0419 165.279 68.69L129.751 117.5H98C74.1305 117.5 51.2387 126.982 34.3604 143.86C17.4821 160.739 8 183.631 8 207.5L8 377.5C8 401.369 17.4821 424.261 34.3604 441.14C51.2387 458.018 74.1305 467.5 98 467.5H415C438.869 467.5 461.761 458.018 478.64 441.14C495.518 424.261 505 401.369 505 377.5V207.5C505 183.631 495.518 160.739 478.64 143.86C461.761 126.982 438.869 117.5 415 117.5V117.501Z" fill="#8288CB"/>
<path d="M306.629 44.001H213.789C204.329 44.001 195.004 46.2376 186.573 50.5285C178.143 54.8194 170.846 61.0428 165.279 68.691L129.751 117.501H98C74.1305 117.501 51.2387 126.983 34.3604 143.861C17.4821 160.74 8 183.632 8 207.501L8 377.501C8 401.37 17.4821 424.262 34.3604 441.141C51.2387 458.019 74.1305 467.501 98 467.501H392C360.15 467.501 332.5 450.822 316.5 425.858C307.121 411.467 302.087 394.678 302 377.501V207.501L259.75 117.501L295.278 68.691C302.718 58.4795 313.193 50.8786 325.208 46.973C319.21 45.0104 312.94 44.0073 306.629 44.001Z" fill="#676FB2"/>
<path d="M8 207.501H302V347.501H8V207.501Z" fill="#9EA2E3"/>
<path d="M302 207.501H505V347.501H302V207.501Z" fill="#D4D4FF"/>
<path d="M316.5 129.144C284.723 116.282 249.657 113.963 216.463 122.528C183.27 131.093 153.703 150.089 132.117 176.72C110.531 203.351 98.0658 236.209 96.557 270.457C95.0482 304.704 104.575 338.532 123.736 366.958C142.897 395.384 170.678 416.907 202.99 428.357C235.302 439.808 270.436 440.582 303.221 430.564C336.005 420.547 364.707 400.267 385.1 372.712C405.493 345.157 416.5 311.782 416.5 277.501C416.571 245.61 407.082 214.429 389.257 187.984C371.431 161.539 346.089 141.044 316.5 129.144Z" fill="#EFEDFF"/>
<path d="M251.506 377.376C235.957 357.903 225.169 335.068 220.002 310.691C214.835 286.313 215.431 261.065 221.743 236.959C228.055 212.852 239.908 190.552 256.359 171.834C272.809 153.117 293.403 138.499 316.5 129.144C292.213 119.335 265.89 115.639 239.842 118.379C213.793 121.119 188.816 130.213 167.102 144.861C145.389 159.509 127.603 179.263 115.308 202.39C103.012 225.517 96.5815 251.309 96.5815 277.501C96.5815 303.693 103.012 329.485 115.308 352.612C127.603 375.739 145.389 395.493 167.102 410.141C188.816 424.789 213.793 433.883 239.842 436.623C265.89 439.363 292.213 435.667 316.5 425.858C291.041 415.529 268.662 398.835 251.506 377.376Z" fill="#D4D4FF"/>
<path d="M256.5 177.501C254.826 177.501 253.161 177.543 251.506 177.626C225.882 178.908 201.731 189.991 184.048 208.58C166.366 227.17 156.504 251.845 156.504 277.501C156.504 303.157 166.366 327.832 184.048 346.422C201.731 365.011 225.882 376.094 251.506 377.376C253.161 377.458 254.825 377.5 256.5 377.501C283.022 377.501 308.457 366.965 327.211 348.212C345.964 329.458 356.5 304.023 356.5 277.501C356.5 250.979 345.964 225.544 327.211 206.79C308.457 188.037 283.022 177.501 256.5 177.501Z" fill="#7CE3FF"/>
<path d="M156.5 277.501C156.53 303.149 166.402 327.808 184.079 346.391C201.756 364.974 225.891 376.065 251.506 377.376C228.845 349.02 216.5 313.8 216.5 277.501C216.5 241.202 228.845 205.982 251.506 177.626C225.891 178.937 201.756 190.028 184.079 208.611C166.402 227.194 156.53 251.853 156.5 277.501Z" fill="#2ED0FC"/>
<path d="M286.5 65.751H226.5C222.522 65.751 218.706 67.3313 215.893 70.1444C213.08 72.9574 211.5 76.7727 211.5 80.751C211.5 84.7292 213.08 88.5445 215.893 91.3576C218.706 94.1706 222.522 95.751 226.5 95.751H286.5C290.478 95.751 294.294 94.1706 297.107 91.3576C299.92 88.5445 301.5 84.7292 301.5 80.751C301.5 76.7727 299.92 72.9574 297.107 70.1444C294.294 67.3313 290.478 65.751 286.5 65.751Z" fill="#4C5699"/>
</svg>
