<svg width="512" height="512" viewBox="0 0 512 512" fill="none" xmlns="http://www.w3.org/2000/svg">
<path d="M187.422 512C152.844 511.961 119.693 498.207 95.2433 473.756C70.7931 449.306 57.0399 416.155 57.001 381.577V130.423C57.0399 95.845 70.7931 62.6943 95.2433 38.2437C119.693 13.7931 152.844 0.0394369 187.422 0L334.981 0C369.559 0.0397015 402.709 13.7935 427.159 38.244C451.609 62.6946 465.362 95.8451 465.401 130.423V381.578C465.401 453.493 406.901 512 334.981 512H187.422Z" fill="#A3DEFE"/>
<path d="M234.156 0H187.422C152.844 0.0394369 119.693 13.7931 95.2433 38.2437C70.7931 62.6943 57.0399 95.845 57.001 130.423V381.578C57.0401 416.156 70.7934 449.306 95.2436 473.757C119.694 498.207 152.844 511.961 187.422 512H334.981C336.652 512 338.312 511.958 339.967 511.895C247.912 404.269 210.383 128.709 234.156 0Z" fill="#7ACEFA"/>
<path d="M334.981 32.2749H187.422C161.391 32.2749 136.427 42.6155 118.021 61.0218C99.6145 79.4281 89.2739 104.392 89.2739 130.423V381.578C89.2739 407.608 99.6145 432.573 118.021 450.979C136.427 469.385 161.391 479.726 187.422 479.726H334.981C361.011 479.726 385.976 469.385 404.382 450.979C422.788 432.573 433.129 407.608 433.129 381.578V130.423C433.129 104.393 422.788 79.4283 404.382 61.0221C385.975 42.6158 361.011 32.2752 334.981 32.2749Z" fill="#8EAFE2"/>
<path d="M229.742 32.2749H187.422C161.391 32.2749 136.427 42.6155 118.021 61.0218C99.6145 79.4281 89.2739 104.392 89.2739 130.423V381.578C89.2739 407.608 99.6145 432.573 118.021 450.979C136.427 469.385 161.391 479.726 187.422 479.726H316.894C248.13 367.218 217.764 157.058 229.742 32.2749Z" fill="#6A96D7"/>
<path d="M334.033 248.206H188.37C182.901 248.206 177.548 246.631 172.95 243.67C168.352 240.708 164.705 236.485 162.443 231.506C152.453 209.519 147.285 185.648 147.285 161.498C147.285 137.348 152.453 113.477 162.443 91.49C164.705 86.5107 168.352 82.288 172.95 79.3265C177.548 76.3651 182.901 74.7902 188.37 74.79H334.033C339.502 74.7902 344.855 76.3651 349.453 79.3265C354.051 82.288 357.698 86.5107 359.96 91.49C369.95 113.477 375.119 137.348 375.119 161.498C375.119 185.648 369.95 209.519 359.96 231.506C357.698 236.485 354.051 240.708 349.453 243.67C344.855 246.631 339.502 248.206 334.033 248.206Z" fill="#FCF2D0"/>
<path d="M240.909 248.206C230.832 187.556 226.247 126.706 227.356 74.7939H188.369C182.9 74.7941 177.547 76.369 172.949 79.3304C168.351 82.2919 164.704 86.5146 162.442 91.4939C152.452 113.481 147.284 137.352 147.284 161.502C147.284 185.652 152.452 209.523 162.442 231.51C164.704 236.489 168.351 240.712 172.949 243.673C177.547 246.635 182.9 248.21 188.369 248.21L240.909 248.206Z" fill="#F6E3A3"/>
<path d="M211.671 170.493H204.001C201.432 170.493 198.968 169.472 197.152 167.656C195.335 165.839 194.315 163.376 194.315 160.807V116.107C194.315 113.538 195.335 111.074 197.152 109.258C198.968 107.441 201.432 106.42 204.001 106.42H211.668C214.237 106.42 216.701 107.441 218.518 109.257C220.334 111.074 221.355 113.538 221.355 116.107V160.807C221.355 163.375 220.334 165.839 218.518 167.655C216.702 169.471 214.239 170.492 211.671 170.493Z" fill="#4E5660"/>
<path d="M310.732 170.493H318.401C320.97 170.493 323.434 169.472 325.25 167.656C327.067 165.84 328.088 163.376 328.088 160.807V116.107C328.088 113.538 327.067 111.074 325.251 109.257C323.434 107.441 320.97 106.42 318.401 106.42H310.734C308.165 106.42 305.701 107.441 303.884 109.257C302.068 111.074 301.047 113.538 301.047 116.107V160.807C301.047 163.376 302.068 165.839 303.884 167.655C305.7 169.472 308.163 170.492 310.732 170.493Z" fill="#4E5660"/>
<path d="M265.174 173.758H257.229C252.305 173.758 247.582 175.714 244.1 179.196C240.618 182.678 238.662 187.401 238.662 192.325V209.566C238.662 210.783 238.902 211.989 239.368 213.114C239.834 214.238 240.517 215.261 241.377 216.121C242.238 216.982 243.26 217.665 244.385 218.131C245.51 218.597 246.715 218.837 247.933 218.837H274.47C275.687 218.837 276.893 218.597 278.018 218.131C279.143 217.665 280.165 216.982 281.026 216.121C281.886 215.261 282.569 214.238 283.035 213.114C283.501 211.989 283.741 210.783 283.741 209.566V192.325C283.741 187.401 281.784 182.678 278.303 179.196C274.821 175.714 270.098 173.758 265.174 173.758Z" fill="#4E5660"/>
<path d="M313.992 359.642H286.418C285.106 359.642 283.813 359.327 282.647 358.724C281.482 358.121 280.478 357.247 279.72 356.176C278.961 355.105 278.471 353.868 278.29 352.568C278.109 351.269 278.242 349.944 278.678 348.707L297.401 295.586C297.82 294.396 297.948 293.122 297.774 291.873C297.6 290.623 297.128 289.433 296.399 288.403C295.67 287.373 294.705 286.533 293.584 285.953C292.463 285.373 291.22 285.071 289.958 285.071H241.464C237.265 285.071 233.169 286.374 229.741 288.8C226.313 291.226 223.723 294.656 222.327 298.617L200.178 361.465C199.43 363.587 199.202 365.858 199.513 368.087C199.824 370.316 200.665 372.438 201.965 374.275C203.265 376.112 204.987 377.611 206.986 378.645C208.985 379.679 211.202 380.219 213.453 380.219H232.433C233.745 380.219 235.038 380.534 236.204 381.137C237.369 381.74 238.373 382.613 239.131 383.684C239.89 384.755 240.38 385.993 240.561 387.292C240.742 388.592 240.609 389.916 240.173 391.154L221.452 444.275C220.913 445.805 220.898 447.47 221.408 449.01C221.917 450.55 222.924 451.876 224.269 452.782C225.615 453.688 227.223 454.122 228.841 454.016C230.46 453.909 231.997 453.268 233.212 452.194L319.973 375.428C321.345 374.214 322.315 372.611 322.755 370.832C323.194 369.053 323.082 367.183 322.433 365.47C321.783 363.757 320.628 362.281 319.121 361.24C317.613 360.199 315.824 359.642 313.992 359.642Z" fill="#F7EF87"/>
<path d="M247.728 285.071H241.464C237.265 285.071 233.169 286.374 229.741 288.8C226.313 291.226 223.723 294.656 222.327 298.617L200.178 361.465C199.43 363.587 199.202 365.858 199.513 368.087C199.824 370.316 200.665 372.438 201.965 374.275C203.265 376.112 204.987 377.611 206.986 378.645C208.985 379.679 211.202 380.219 213.453 380.219H232.433C233.745 380.219 235.038 380.534 236.204 381.137C237.369 381.74 238.373 382.613 239.131 383.684C239.89 384.755 240.38 385.993 240.561 387.292C240.742 388.592 240.609 389.916 240.173 391.154L221.452 444.275C220.913 445.805 220.898 447.47 221.408 449.01C221.917 450.55 222.924 451.876 224.269 452.782C225.615 453.688 227.223 454.122 228.841 454.016C230.46 453.909 231.997 453.268 233.212 452.194L282.701 408.408C268.266 370.643 256.585 328.396 247.729 285.071H247.728Z" fill="#EFD176"/>
</svg>
