<svg width="512" height="512" viewBox="0 0 512 512" fill="none" xmlns="http://www.w3.org/2000/svg">
<path d="M415 41H98C48.5 41 8 81.5 8 131V381C8 430.5 48.5 471 98 471H415C464.5 471 505 430.5 505 381V131C505 81.5 464.5 41 415 41Z" fill="#8288CB"/>
<path d="M265.9 381V131C265.9 81.5 306.4 41 355.9 41H98C48.5 41 8 81.5 8 131V381C8 430.5 48.5 471 98 471H355.9C306.4 471 265.9 430.5 265.9 381Z" fill="#676FB2"/>
<path d="M445 131C444.977 123.051 441.809 115.434 436.188 109.812C430.566 104.191 422.949 101.023 415 101H98C90.0506 101.023 82.4335 104.191 76.8124 109.812C71.1914 115.434 68.0232 123.051 68 131V351C68.0232 358.949 71.1914 366.566 76.8124 372.188C82.4335 377.809 90.0506 380.977 98 381H415C422.949 380.977 430.566 377.809 436.188 372.188C441.809 366.566 444.977 358.949 445 351V131Z" fill="#D4D4FF"/>
<path d="M271.079 101H98C90.0506 101.023 82.4335 104.191 76.8124 109.812C71.1914 115.434 68.0232 123.051 68 131V351C68.0232 358.949 71.1914 366.566 76.8124 372.188C82.4335 377.809 90.0506 380.977 98 381H265.9V131C265.895 120.777 267.647 110.629 271.079 101Z" fill="#9EA2E3"/>
<path d="M247.1 217.354V101H98C90.0506 101.023 82.4335 104.191 76.8124 109.812C71.1914 115.434 68.0232 123.051 68 131V351C68.0232 358.949 71.1914 366.566 76.8124 372.188C82.4335 377.809 90.0506 380.977 98 381H265.9V257.354L247.1 217.354Z" fill="#00CE8E"/>
<path d="M214.074 283.427C240.719 310.036 258.772 344.024 265.9 381H387.289C379.26 311.963 348.119 247.671 298.927 198.573C272.281 171.964 254.228 137.976 247.1 101H125.711C133.74 170.037 164.881 234.329 214.074 283.427Z" fill="#FFCE71"/>
<path d="M247.1 101H125.711C133.74 170.037 164.881 234.329 214.073 283.427C240.718 310.036 258.772 344.024 265.9 381V154.049C257.011 137.408 250.674 119.525 247.1 101Z" fill="#FFB357"/>
<path d="M201.4 101H171.072C178.866 158.035 205.149 210.94 245.893 251.606L267.106 230.393C232.003 195.345 208.987 150.02 201.4 101Z" fill="#64B3FB"/>
<path d="M278.756 227.266L245.175 210.888C242.966 209.811 240.513 209.335 238.062 209.507C235.611 209.679 233.248 210.493 231.211 211.867C229.174 213.241 227.535 215.127 226.458 217.335C225.381 219.544 224.904 221.997 225.075 224.448L227.681 261.719C227.852 264.171 228.666 266.534 230.04 268.571C231.415 270.609 233.301 272.249 235.51 273.326C237.719 274.403 240.172 274.88 242.624 274.709C245.075 274.537 247.439 273.723 249.476 272.349L280.45 251.456C282.488 250.082 284.127 248.196 285.205 245.987C286.282 243.778 286.759 241.324 286.588 238.873C286.416 236.421 285.603 234.058 284.228 232.021C282.854 229.983 280.968 228.343 278.759 227.266H278.756Z" fill="#EFEDFF"/>
</svg>
