<svg width="512" height="512" viewBox="0 0 512 512" fill="none" xmlns="http://www.w3.org/2000/svg">
<path d="M306.347 217.685C293.084 217.694 280.116 213.768 269.084 206.403C258.053 199.038 249.455 188.567 244.378 176.313C239.301 164.06 237.974 150.576 240.564 137.567C243.154 124.559 249.545 112.612 258.928 103.237C259.621 102.524 260.448 101.956 261.362 101.566C262.277 101.176 263.259 100.971 264.253 100.964C265.247 100.956 266.233 101.147 267.152 101.524C268.072 101.901 268.908 102.457 269.611 103.16C270.314 103.863 270.87 104.698 271.247 105.618C271.624 106.538 271.815 107.523 271.807 108.517C271.8 109.511 271.596 110.494 271.205 111.408C270.815 112.322 270.247 113.15 269.534 113.842C259.771 123.606 254.286 136.848 254.286 150.655C254.286 164.463 259.771 177.705 269.534 187.468C279.298 197.232 292.54 202.717 306.347 202.717C320.155 202.717 333.397 197.232 343.16 187.468C344.569 186.072 346.473 185.291 348.457 185.295C350.44 185.299 352.341 186.089 353.743 187.492C355.146 188.895 355.936 190.796 355.94 192.779C355.944 194.762 355.163 196.667 353.766 198.075C347.543 204.306 340.151 209.246 332.013 212.611C323.876 215.977 315.153 217.701 306.347 217.685Z" fill="#A3DEFE"/>
<path d="M279.056 41.8002L184.492 3.0312C174.636 -1.00975 163.586 -1.00975 153.73 3.0312L59.165 41.8002C51.7218 44.8518 45.3547 50.0486 40.8735 56.7293C36.3923 63.41 33.9997 71.2728 34 79.3172V129.743C34.0001 137.787 36.3929 145.65 40.874 152.33C45.3552 159.01 51.7222 164.207 59.165 167.258L153.729 206.029C163.585 210.07 174.635 210.07 184.491 206.029L279.055 167.258C286.498 164.207 292.865 159.01 297.346 152.33C301.827 145.65 304.22 137.787 304.22 129.743V79.3172C304.221 71.2728 301.829 63.4099 297.348 56.7291C292.867 50.0482 286.499 44.8515 279.056 41.8002Z" fill="#F7EF87"/>
<path d="M147.891 5.42529L59.165 41.8003C51.7218 44.8519 45.3547 50.0487 40.8735 56.7294C36.3923 63.4101 33.9997 71.2729 34 79.3173V129.743C34.0001 137.787 36.3929 145.65 40.874 152.33C45.3552 159.01 51.7222 164.207 59.165 167.258L153.729 206.029C160.885 208.96 168.729 209.782 176.337 208.4C138.501 168.069 128.828 54.8233 147.891 5.42529Z" fill="#EFD176"/>
<path d="M278.584 129.776V79.283C278.584 76.3351 277.707 73.4538 276.065 71.0057C274.423 68.5576 272.09 66.6533 269.362 65.535L174.747 26.743C171.135 25.2621 167.086 25.2621 163.474 26.743L68.859 65.535C66.1314 66.6533 63.7981 68.5576 62.1559 71.0057C60.5137 73.4538 59.6369 76.3351 59.637 79.283V129.776C59.6369 132.724 60.5137 135.605 62.1559 138.053C63.7981 140.502 66.1314 142.406 68.859 143.524L163.474 182.316C167.086 183.797 171.135 183.797 174.747 182.316L269.362 143.524C272.09 142.406 274.423 140.502 276.065 138.053C277.707 135.605 278.584 132.724 278.584 129.776Z" fill="#8EAFE2"/>
<path d="M140.57 36.1333L68.859 65.5333C66.1314 66.6516 63.7981 68.5559 62.1559 71.004C60.5137 73.4521 59.6369 76.3334 59.637 79.2813V129.775C59.6369 132.723 60.5137 135.605 62.1559 138.053C63.7981 140.501 66.1314 142.405 68.859 143.523L158.659 180.341C140.75 140.141 134.666 79.7413 140.569 36.1313L140.57 36.1333Z" fill="#6A96D7"/>
<path d="M174.803 139.314H163.418C158.551 139.309 153.885 137.373 150.444 133.931C147.002 130.49 145.067 125.824 145.061 120.957V88.1002C145.067 83.2333 147.002 78.5673 150.444 75.1259C153.885 71.6845 158.551 69.7487 163.418 69.7432H174.803C179.67 69.7487 184.336 71.6845 187.777 75.1259C191.219 78.5673 193.154 83.2333 193.16 88.1002V120.954C193.155 125.822 191.22 130.488 187.778 133.93C184.337 137.372 179.67 139.309 174.803 139.314ZM163.418 84.7452C162.528 84.7462 161.675 85.1002 161.045 85.7296C160.416 86.3589 160.062 87.2122 160.061 88.1022V120.956C160.062 121.846 160.416 122.7 161.045 123.329C161.675 123.958 162.528 124.312 163.418 124.313H174.803C175.693 124.312 176.546 123.958 177.176 123.329C177.805 122.699 178.159 121.846 178.16 120.956V88.1002C178.159 87.2101 177.805 86.3567 177.176 85.7273C176.547 85.0979 175.693 84.744 174.803 84.7432L163.418 84.7452Z" fill="#A3DEFE"/>
<path d="M119.023 134.64C117.034 134.64 115.126 133.85 113.72 132.443C112.313 131.037 111.523 129.129 111.523 127.14V81.9199C111.523 79.9308 112.313 78.0231 113.72 76.6166C115.126 75.2101 117.034 74.4199 119.023 74.4199C121.012 74.4199 122.92 75.2101 124.326 76.6166C125.733 78.0231 126.523 79.9308 126.523 81.9199V127.14C126.523 129.129 125.733 131.037 124.326 132.443C122.92 133.85 121.012 134.64 119.023 134.64Z" fill="#A3DEFE"/>
<path d="M219.198 134.64C217.209 134.64 215.301 133.85 213.895 132.443C212.488 131.037 211.698 129.129 211.698 127.14V81.9199C211.698 79.9308 212.488 78.0231 213.895 76.6166C215.301 75.2101 217.209 74.4199 219.198 74.4199C221.187 74.4199 223.095 75.2101 224.501 76.6166C225.908 78.0231 226.698 79.9308 226.698 81.9199V127.14C226.698 129.129 225.908 131.037 224.501 132.443C223.095 133.85 221.187 134.64 219.198 134.64Z" fill="#A3DEFE"/>
<path d="M344.249 508.8L321.533 489.548C319.166 487.542 317.265 485.045 315.961 482.23C314.657 479.416 313.981 476.35 313.981 473.248V277.848H391.981V351.042C391.981 352.436 392.277 353.814 392.85 355.085C393.422 356.356 394.258 357.491 395.302 358.414L409.512 370.986C411.08 372.373 412.337 374.077 413.199 375.984C414.062 377.892 414.51 379.961 414.516 382.054C414.522 384.148 414.084 386.219 413.232 388.131C412.38 390.043 411.132 391.754 409.572 393.149L398.402 403.14C397.782 403.694 397.287 404.372 396.947 405.13C396.608 405.888 396.433 406.709 396.433 407.54C396.433 408.371 396.608 409.192 396.947 409.95C397.287 410.709 397.782 411.387 398.402 411.94L409.572 421.931C411.132 423.327 412.38 425.037 413.232 426.949C414.084 428.862 414.521 430.933 414.516 433.026C414.51 435.12 414.061 437.188 413.199 439.096C412.336 441.003 411.08 442.707 409.512 444.094L395.302 456.665C394.258 457.589 393.422 458.723 392.849 459.994C392.277 461.265 391.981 462.643 391.981 464.037V473.249C391.981 476.351 391.305 479.417 390.001 482.231C388.697 485.046 386.796 487.543 384.429 489.549L361.712 508.8C359.272 510.867 356.178 512.002 352.98 512.002C349.783 512.002 346.689 510.867 344.249 508.8Z" fill="#EFD176"/>
<path d="M353.812 466.913C351.823 466.913 349.915 466.123 348.509 464.717C347.102 463.31 346.312 461.402 346.312 459.413V370.469C346.312 368.48 347.102 366.572 348.509 365.166C349.915 363.759 351.823 362.969 353.812 362.969C355.801 362.969 357.709 363.759 359.115 365.166C360.522 366.572 361.312 368.48 361.312 370.469V459.413C361.312 461.402 360.522 463.31 359.115 464.717C357.709 466.123 355.801 466.913 353.812 466.913Z" fill="#F7EF87"/>
<path d="M350.812 334.184C397.542 334.184 435.423 296.303 435.423 249.573C435.423 202.844 397.542 164.962 350.812 164.962C304.083 164.962 266.201 202.844 266.201 249.573C266.201 296.303 304.083 334.184 350.812 334.184Z" fill="#8EAFE2"/>
<path d="M412.97 306.959C299.147 319.278 287.356 208.969 313.482 173.637C302.331 179.117 292.523 186.985 284.756 196.683C276.989 206.381 271.454 217.671 268.542 229.75C265.631 241.829 265.416 254.401 267.913 266.573C270.409 278.745 275.556 290.217 282.987 300.175C290.417 310.133 299.95 318.332 310.908 324.19C321.865 330.047 333.978 333.42 346.386 334.068C358.794 334.715 371.193 332.622 382.701 327.937C394.208 323.252 404.543 316.09 412.97 306.959Z" fill="#6A96D7"/>
<path d="M393.845 292.673C417.641 268.877 417.641 230.296 393.845 206.5C370.05 182.704 331.469 182.704 307.673 206.5C283.877 230.296 283.877 268.877 307.673 292.673C331.469 316.468 370.05 316.468 393.845 292.673Z" fill="#F7EF87"/>
<path d="M289.879 249.573C289.88 259.564 292.337 269.402 297.035 278.22C301.733 287.037 308.527 294.565 316.818 300.139C325.11 305.713 334.645 309.163 344.583 310.185C354.522 311.208 364.56 309.77 373.812 306C319.892 296.2 300.756 250.388 301.919 213.207C294.083 223.71 289.859 236.468 289.879 249.572V249.573Z" fill="#EFD176"/>
<path d="M348.463 200.272C346.981 200.271 345.532 199.83 344.3 199.006C343.068 198.182 342.107 197.011 341.54 195.641C340.973 194.272 340.825 192.765 341.114 191.311C341.402 189.857 342.116 188.521 343.163 187.472C347.997 182.638 351.832 176.899 354.448 170.582C357.065 164.266 358.411 157.496 358.411 150.659C358.411 143.822 357.065 137.053 354.448 130.736C351.832 124.42 347.997 118.681 343.163 113.847C338.328 109.012 332.589 105.178 326.273 102.561C319.956 99.945 313.187 98.5984 306.35 98.5985C299.513 98.5985 292.743 99.9452 286.427 102.562C280.111 105.178 274.371 109.013 269.537 113.847C268.842 114.548 268.015 115.106 267.104 115.487C266.192 115.867 265.215 116.065 264.227 116.067C263.239 116.069 262.261 115.876 261.348 115.499C260.435 115.122 259.606 114.568 258.907 113.87C258.209 113.171 257.656 112.342 257.279 111.429C256.902 110.516 256.709 109.538 256.711 108.55C256.713 107.562 256.91 106.585 257.291 105.674C257.672 104.762 258.23 103.935 258.931 103.24C271.522 90.7304 288.558 83.722 306.306 83.7506C324.055 83.7792 341.068 90.8425 353.618 103.393C366.169 115.943 373.232 132.956 373.26 150.705C373.289 168.454 366.28 185.49 353.77 198.08C353.073 198.777 352.246 199.329 351.335 199.705C350.425 200.081 349.449 200.274 348.463 200.272Z" fill="#A3DEFE"/>
</svg>
