<svg width="524" height="512" viewBox="0 0 524 512" fill="none" xmlns="http://www.w3.org/2000/svg">
<path d="M392.466 315.872H143.534V83.9579C143.534 81.4278 144.032 78.9226 145 76.5851C145.969 74.2477 147.388 72.1238 149.177 70.3348C150.966 68.5458 153.09 67.1266 155.427 66.1584C157.765 65.1902 160.27 64.6919 162.8 64.6919H373.2C378.31 64.6919 383.21 66.7217 386.823 70.3348C390.436 73.9478 392.466 78.8482 392.466 83.9579V315.872Z" fill="#8EAFE2"/>
<path d="M251.763 64.6919H162.8C157.69 64.6919 152.79 66.7217 149.177 70.3348C145.564 73.9478 143.534 78.8482 143.534 83.9579V315.872H292.772C259.852 270.231 250.064 147.808 251.763 64.6919Z" fill="#6A96D7"/>
<path d="M460.645 315.872H75.3549C68.4376 315.872 61.8035 318.62 56.9122 323.511C52.0209 328.403 49.2729 335.037 49.2729 341.954V512H486.726V341.954C486.726 338.529 486.052 335.137 484.741 331.973C483.43 328.809 481.509 325.933 479.087 323.511C476.665 321.089 473.79 319.168 470.626 317.857C467.462 316.547 464.07 315.872 460.645 315.872Z" fill="#8EAFE2"/>
<path d="M215.1 315.872H75.3549C68.4376 315.872 61.8035 318.62 56.9122 323.511C52.0209 328.403 49.2729 335.037 49.2729 341.954V512H242.646C225.89 462.87 213.063 363.918 215.1 315.872Z" fill="#6A96D7"/>
<path d="M207.067 415.909H328.933V512H207.067V415.909Z" fill="#A3DEFE"/>
<path d="M207.067 415.909V512H242.646C234.446 487.963 227.192 452 222.155 415.909H207.067Z" fill="#7ACEFA"/>
<path d="M260.5 415.909H275.5V512H260.5V415.909Z" fill="#7ACEFA"/>
<path d="M234.29 257.143H188.2C185.246 257.143 182.414 255.97 180.325 253.881C178.236 251.793 177.063 248.96 177.063 246.006V234.045C177.063 231.091 178.236 228.259 180.325 226.17C182.414 224.082 185.246 222.908 188.2 222.908H234.29C237.244 222.908 240.076 224.082 242.165 226.17C244.254 228.259 245.427 231.091 245.427 234.045V246.006C245.427 248.96 244.254 251.793 242.165 253.881C240.076 255.97 237.244 257.143 234.29 257.143Z" fill="#7ACEFA"/>
<path d="M301.71 257.143H347.8C350.754 257.143 353.586 255.97 355.675 253.881C357.764 251.793 358.937 248.96 358.937 246.006V234.045C358.937 231.091 357.764 228.259 355.675 226.17C353.586 224.082 350.754 222.908 347.8 222.908H301.71C298.756 222.908 295.924 224.082 293.835 226.17C291.746 228.259 290.573 231.091 290.573 234.045V246.006C290.573 248.96 291.746 251.793 293.835 253.881C295.924 255.97 298.756 257.143 301.71 257.143Z" fill="#A3DEFE"/>
<path d="M234.29 170.728H188.2C185.246 170.728 182.414 169.555 180.325 167.466C178.236 165.378 177.063 162.545 177.063 159.591V147.63C177.063 144.676 178.236 141.844 180.325 139.755C182.414 137.667 185.246 136.493 188.2 136.493H234.29C237.244 136.493 240.076 137.667 242.165 139.755C244.254 141.844 245.427 144.676 245.427 147.63V159.591C245.427 162.545 244.254 165.378 242.165 167.466C240.076 169.555 237.244 170.728 234.29 170.728Z" fill="#7ACEFA"/>
<path d="M301.71 170.728H347.8C350.754 170.728 353.586 169.555 355.675 167.466C357.764 165.378 358.937 162.545 358.937 159.591V147.63C358.937 144.676 357.764 141.844 355.675 139.755C353.586 137.667 350.754 136.493 347.8 136.493H301.71C298.756 136.493 295.924 137.667 293.835 139.755C291.746 141.844 290.573 144.676 290.573 147.63V159.591C290.573 162.545 291.746 165.378 293.835 167.466C295.924 169.555 298.756 170.728 301.71 170.728Z" fill="#A3DEFE"/>
<path d="M345.627 415.909H190.373C189.188 415.909 188.018 415.639 186.954 415.119C185.889 414.598 184.957 413.842 184.228 412.907C183.5 411.972 182.994 410.884 182.75 409.724C182.506 408.564 182.53 407.364 182.82 406.215L185.885 394.058C187.73 386.741 191.964 380.248 197.917 375.61C203.87 370.972 211.201 368.453 218.747 368.453H317.254C324.801 368.453 332.131 370.972 338.084 375.61C344.037 380.248 348.271 386.741 350.116 394.058L353.181 406.215C353.471 407.364 353.494 408.564 353.25 409.724C353.006 410.884 352.5 411.973 351.772 412.907C351.044 413.842 350.111 414.598 349.047 415.119C347.982 415.639 346.812 415.909 345.627 415.909Z" fill="#F7EF87"/>
<path d="M280.989 9.163V30.108H255.011V9.163C255.011 7.95966 254.774 6.76808 254.314 5.65632C253.853 4.54455 253.178 3.53438 252.328 2.68349C251.477 1.8326 250.467 1.15766 249.355 0.697226C248.243 0.236788 247.051 -0.000129983 245.848 1.36449e-06H225.467C224.263 -0.000655528 223.071 0.235875 221.959 0.696077C220.847 1.15628 219.836 1.83113 218.985 2.68207C218.134 3.53302 217.458 4.54337 216.998 5.65539C216.537 6.76742 216.3 7.95932 216.3 9.163V85.637C216.3 86.8403 216.537 88.0319 216.997 89.1437C217.458 90.2554 218.133 91.2656 218.984 92.1165C219.834 92.9674 220.845 93.6423 221.956 94.1028C223.068 94.5632 224.26 94.8001 225.463 94.8H245.844C247.047 94.8001 248.239 94.5632 249.351 94.1028C250.462 93.6423 251.473 92.9674 252.324 92.1165C253.174 91.2656 253.849 90.2554 254.31 89.1437C254.77 88.0319 255.007 86.8403 255.007 85.637V64.692H280.985V85.637C280.985 86.8403 281.222 88.0319 281.682 89.1437C282.143 90.2554 282.818 91.2656 283.669 92.1165C284.519 92.9674 285.53 93.6423 286.641 94.1028C287.753 94.5632 288.945 94.8001 290.148 94.8H310.529C312.959 94.8 315.29 93.8346 317.008 92.1162C318.727 90.3978 319.692 88.0672 319.692 85.637V9.163C319.692 6.73343 318.728 4.40324 317.01 2.6849C315.292 0.966565 312.963 0.000796886 310.533 1.36449e-06H290.152C287.722 1.36449e-06 285.391 0.965386 283.673 2.68378C281.954 4.40218 280.989 6.73282 280.989 9.163Z" fill="#8EE2CF"/>
<path d="M142.182 468.594H18.452C16.7408 468.594 15.0997 469.274 13.8897 470.483C12.6798 471.693 12 473.335 12 475.046V505.546C11.9996 506.393 12.1662 507.233 12.4903 508.016C12.8144 508.799 13.2896 509.51 13.8887 510.11C14.4879 510.709 15.1993 511.184 15.9823 511.509C16.7653 511.833 17.6045 512 18.452 512H142.182C143.893 512 145.534 511.32 146.744 510.11C147.954 508.9 148.634 507.259 148.634 505.548V475.048C148.634 474.2 148.468 473.361 148.143 472.578C147.819 471.795 147.344 471.084 146.745 470.484C146.146 469.885 145.434 469.409 144.652 469.085C143.869 468.761 143.029 468.594 142.182 468.594Z" fill="#E1B89A"/>
<path d="M141.718 468.594C141.718 461.26 138.805 454.226 133.619 449.04C128.433 443.854 121.399 440.941 114.065 440.941C112.281 440.941 110.501 441.115 108.751 441.462C107.821 441.651 106.856 441.555 105.981 441.188C105.107 440.822 104.362 440.2 103.845 439.405C101.326 435.447 97.8498 432.188 93.7372 429.931C89.6247 427.673 85.009 426.489 80.3175 426.489C75.626 426.489 71.0103 427.673 66.8978 429.931C62.7852 432.188 59.3087 435.447 56.79 439.405C56.2728 440.2 55.5285 440.822 54.6536 441.188C53.7787 441.555 52.8137 441.651 51.884 441.462C50.1339 441.115 48.3541 440.941 46.57 440.941C39.236 440.941 32.2023 443.854 27.0164 449.04C21.8304 454.226 18.917 461.26 18.917 468.594H141.718Z" fill="#8EE2CF"/>
<path d="M393.819 468.594H517.549C519.26 468.594 520.901 469.274 522.111 470.484C523.32 471.694 524 473.335 524 475.046V505.546C524 506.393 523.834 507.232 523.509 508.015C523.185 508.798 522.71 509.51 522.111 510.109C521.512 510.708 520.801 511.184 520.018 511.508C519.235 511.833 518.396 512 517.549 512H393.819C392.108 512 390.467 511.32 389.257 510.11C388.047 508.9 387.367 507.259 387.367 505.548V475.048C387.367 474.2 387.534 473.361 387.858 472.579C388.182 471.796 388.657 471.084 389.256 470.485C389.856 469.886 390.567 469.411 391.35 469.087C392.133 468.762 392.972 468.596 393.819 468.596V468.594Z" fill="#E1B89A"/>
<path d="M394.282 468.594C394.282 461.26 397.195 454.226 402.381 449.04C407.567 443.854 414.601 440.941 421.935 440.941C423.719 440.941 425.499 441.115 427.249 441.462C428.179 441.651 429.144 441.555 430.019 441.189C430.893 440.822 431.638 440.2 432.155 439.405C434.674 435.447 438.15 432.188 442.262 429.931C446.375 427.673 450.991 426.489 455.682 426.489C460.373 426.489 464.989 427.673 469.102 429.931C473.214 432.188 476.69 435.447 479.209 439.405C479.726 440.2 480.471 440.822 481.345 441.189C482.22 441.555 483.185 441.651 484.115 441.462C485.865 441.115 487.645 440.941 489.429 440.941C496.763 440.941 503.797 443.854 508.983 449.04C514.169 454.226 517.082 461.26 517.082 468.594H394.282Z" fill="#8EE2CF"/>
<path d="M141.232 399.246H95.14C93.6772 399.246 92.2287 398.958 90.8771 398.399C89.5256 397.839 88.2975 397.019 87.263 395.985C86.2285 394.951 85.4079 393.723 84.848 392.371C84.2882 391.02 84 389.572 84 388.109V376.148C84 374.685 84.2882 373.237 84.848 371.885C85.4079 370.534 86.2285 369.306 87.263 368.272C88.2975 367.237 89.5256 366.417 90.8771 365.858C92.2287 365.298 93.6772 365.01 95.14 365.011H141.232C144.186 365.011 147.018 366.184 149.107 368.273C151.196 370.361 152.369 373.194 152.369 376.148V388.109C152.369 391.062 151.196 393.895 149.107 395.984C147.018 398.072 144.186 399.246 141.232 399.246Z" fill="#7ACEFA"/>
<path d="M394.768 399.246H440.86C442.323 399.246 443.771 398.958 445.123 398.399C446.475 397.839 447.703 397.019 448.737 395.985C449.772 394.951 450.592 393.723 451.152 392.371C451.712 391.02 452 389.572 452 388.109V376.148C452 373.194 450.827 370.361 448.738 368.273C446.65 366.184 443.817 365.011 440.863 365.011H394.768C391.814 365.011 388.982 366.184 386.893 368.273C384.804 370.361 383.631 373.194 383.631 376.148V388.109C383.631 391.062 384.804 393.895 386.893 395.984C388.982 398.072 391.814 399.246 394.768 399.246Z" fill="#A3DEFE"/>
<path d="M255.363 368.452H218.746C211.2 368.452 203.869 370.971 197.916 375.609C191.963 380.247 187.729 386.74 185.884 394.057L182.819 406.214C182.529 407.363 182.505 408.563 182.749 409.723C182.993 410.883 183.499 411.971 184.227 412.906C184.956 413.841 185.888 414.598 186.953 415.118C188.017 415.638 189.187 415.908 190.372 415.908H266.623C258.252 403.121 253.335 382.489 255.363 368.452Z" fill="#EFD176"/>
<path d="M394.282 440.3H382.642C380.653 440.3 378.745 439.51 377.339 438.103C375.932 436.697 375.142 434.789 375.142 432.8C375.142 430.811 375.932 428.903 377.339 427.497C378.745 426.09 380.653 425.3 382.642 425.3H394.282C396.271 425.3 398.179 426.09 399.585 427.497C400.992 428.903 401.782 430.811 401.782 432.8C401.782 434.789 400.992 436.697 399.585 438.103C398.179 439.51 396.271 440.3 394.282 440.3Z" fill="#6A96D7"/>
<path d="M334.753 290.573H323.113C321.124 290.573 319.216 289.783 317.81 288.377C316.403 286.97 315.613 285.062 315.613 283.073C315.613 281.084 316.403 279.176 317.81 277.77C319.216 276.363 321.124 275.573 323.113 275.573H334.753C336.742 275.573 338.65 276.363 340.056 277.77C341.463 279.176 342.253 281.084 342.253 283.073C342.253 285.062 341.463 286.97 340.056 288.377C338.65 289.783 336.742 290.573 334.753 290.573Z" fill="#6A96D7"/>
<path d="M361.043 112.633H349.4C347.411 112.633 345.503 111.843 344.097 110.436C342.69 109.03 341.9 107.122 341.9 105.133C341.9 103.144 342.69 101.236 344.097 99.8295C345.503 98.423 347.411 97.6328 349.4 97.6328H361.04C363.029 97.6328 364.937 98.423 366.343 99.8295C367.75 101.236 368.54 103.144 368.54 105.133C368.54 107.122 367.75 109.03 366.343 110.436C364.937 111.843 363.029 112.633 361.04 112.633H361.043Z" fill="#6A96D7"/>
<path d="M177.061 485.079H165.421C163.432 485.079 161.524 484.289 160.118 482.882C158.711 481.476 157.921 479.568 157.921 477.579C157.921 475.59 158.711 473.682 160.118 472.276C161.524 470.869 163.432 470.079 165.421 470.079H177.061C179.05 470.079 180.958 470.869 182.364 472.276C183.771 473.682 184.561 475.59 184.561 477.579C184.561 479.568 183.771 481.476 182.364 482.882C180.958 484.289 179.05 485.079 177.061 485.079Z" fill="#8EAFE2"/>
<path d="M187.1 348.842H178.06C176.071 348.842 174.163 348.052 172.757 346.645C171.35 345.239 170.56 343.331 170.56 341.342C170.56 339.353 171.35 337.445 172.757 336.038C174.163 334.632 176.071 333.842 178.06 333.842H187.1C189.089 333.842 190.997 334.632 192.403 336.038C193.81 337.445 194.6 339.353 194.6 341.342C194.6 343.331 193.81 345.239 192.403 346.645C190.997 348.052 189.089 348.842 187.1 348.842Z" fill="#8EAFE2"/>
<path d="M229.122 208.544H220.081C218.092 208.544 216.184 207.754 214.778 206.347C213.371 204.941 212.581 203.033 212.581 201.044C212.581 199.055 213.371 197.147 214.778 195.741C216.184 194.334 218.092 193.544 220.081 193.544H229.122C231.111 193.544 233.019 194.334 234.425 195.741C235.832 197.147 236.622 199.055 236.622 201.044C236.622 203.033 235.832 204.941 234.425 206.347C233.019 207.754 231.111 208.544 229.122 208.544Z" fill="#8EAFE2"/>
</svg>
