<svg width="512" height="512" viewBox="0 0 512 512" fill="none" xmlns="http://www.w3.org/2000/svg">
<path d="M460.426 466.144H51.574C44.8013 466.144 38.095 464.81 31.8378 462.219C25.5806 459.627 19.8952 455.828 15.1061 451.039C10.317 446.25 6.51805 440.565 3.92614 434.308C1.33424 428.051 0.000131321 421.345 0 414.572L0 204.911C0 191.233 5.43367 178.115 15.1057 168.443C24.7777 158.771 37.8957 153.337 51.574 153.337H460.427C474.105 153.337 487.223 158.771 496.895 168.443C506.566 178.115 512 191.233 512 204.911V414.572C511.999 428.25 506.565 441.368 496.893 451.04C487.221 460.711 474.103 466.145 460.425 466.145L460.426 466.144Z" fill="#E1B89A"/>
<path d="M153.747 153.338H51.574C44.8013 153.338 38.0948 154.672 31.8376 157.263C25.5803 159.855 19.8948 163.654 15.1057 168.443C10.3166 173.232 6.5177 178.917 3.92586 185.175C1.33401 191.432 -1.27318e-09 198.138 0 204.911L0 414.572C0 428.25 5.43367 441.368 15.1057 451.04C24.7777 460.712 37.8957 466.146 51.574 466.146H209.774C143.044 391.268 144.72 247.591 153.751 153.339L153.747 153.338Z" fill="#D2996F"/>
<path d="M168.935 112.567H116.418C111.038 112.567 105.878 114.704 102.074 118.508C98.27 122.312 96.1328 127.472 96.1328 132.852V153.338H189.22V132.852C189.22 130.188 188.695 127.55 187.676 125.089C186.657 122.628 185.162 120.392 183.279 118.508C181.395 116.624 179.159 115.13 176.698 114.111C174.237 113.091 171.599 112.567 168.935 112.567Z" fill="#4E5660"/>
<path d="M343.065 112.567H395.582C400.962 112.567 406.121 114.704 409.925 118.508C413.73 122.312 415.867 127.472 415.867 132.852V153.338H322.78V132.852C322.78 130.188 323.304 127.55 324.324 125.089C325.343 122.628 326.837 120.392 328.721 118.508C330.604 116.624 332.841 115.13 335.302 114.111C337.763 113.091 340.401 112.567 343.065 112.567Z" fill="#4E5660"/>
<path d="M394.343 112.567H344.3V87.833C344.293 81.5254 341.784 75.4782 337.325 71.0178C332.865 66.5573 326.818 64.0479 320.51 64.04H191.49C185.183 64.0479 179.136 66.5573 174.676 71.0178C170.216 75.4782 167.707 81.5254 167.7 87.833V112.567H117.66V87.833C117.682 68.2585 125.468 49.492 139.309 35.6505C153.149 21.809 171.916 14.0228 191.49 14H320.51C340.085 14.022 358.852 21.8078 372.694 35.6495C386.535 49.4911 394.321 68.258 394.343 87.833V112.567Z" fill="#8EAFE2"/>
<path d="M68.1748 153.337H124.091V466.144H68.1748V153.337Z" fill="#EFD176"/>
<path d="M443.825 466.145H387.909L387.909 153.338H443.825L443.825 466.145Z" fill="#F7EF87"/>
<path d="M205.493 266.796C205.493 279.785 192.27 290.315 175.96 290.315C159.65 290.315 146.426 279.785 146.426 266.796C146.426 253.807 159.649 243.272 175.96 243.272C192.271 243.272 205.493 253.807 205.493 266.796Z" fill="white"/>
<path d="M404.954 398.508H326.179C323.595 398.508 321.037 397.999 318.651 397.01C316.264 396.022 314.095 394.573 312.269 392.746C310.442 390.919 308.993 388.751 308.004 386.364C307.016 383.977 306.507 381.419 306.507 378.836V354.236C306.509 349.02 308.582 344.018 312.271 340.331C315.96 336.643 320.963 334.572 326.179 334.572H404.954C410.171 334.572 415.175 336.644 418.864 340.334C422.553 344.023 424.626 349.026 424.626 354.244V378.844C424.623 384.06 422.55 389.061 418.861 392.749C415.172 396.436 410.17 398.508 404.954 398.508Z" fill="#8EAFE2"/>
<path d="M387.909 374.039H343.223C341.234 374.039 339.326 373.249 337.92 371.842C336.513 370.436 335.723 368.528 335.723 366.539C335.723 364.55 336.513 362.642 337.92 361.236C339.326 359.829 341.234 359.039 343.223 359.039H387.909C389.898 359.039 391.806 359.829 393.212 361.236C394.619 362.642 395.409 364.55 395.409 366.539C395.409 368.528 394.619 370.436 393.212 371.842C391.806 373.249 389.898 374.039 387.909 374.039Z" fill="#4E5660"/>
<path d="M124.091 368.671C149.007 368.671 169.205 348.473 169.205 323.557C169.205 298.641 149.007 278.443 124.091 278.443C99.1753 278.443 78.9771 298.641 78.9771 323.557C78.9771 348.473 99.1753 368.671 124.091 368.671Z" fill="#8EE2CF"/>
<path d="M155.991 355.458C157.026 354.423 157.991 353.348 158.908 352.242C154.719 330.724 151.953 308.954 150.627 287.072C143.654 282.001 135.374 279.034 126.767 278.522C118.16 278.011 109.586 279.977 102.062 284.187C94.5374 288.397 88.377 294.675 84.3101 302.278C80.2431 309.881 78.44 318.49 79.1142 327.086C79.7884 335.681 82.9117 343.904 88.1143 350.78C93.3169 357.656 100.381 362.897 108.47 365.882C116.558 368.868 125.333 369.473 133.756 367.626C142.178 365.779 149.894 361.557 155.991 355.46V355.458Z" fill="#6FCE91"/>
<path d="M113.762 341.386C112.28 341.385 110.831 340.944 109.599 340.12C108.366 339.296 107.406 338.125 106.839 336.755C106.272 335.386 106.123 333.879 106.412 332.425C106.701 330.971 107.414 329.635 108.462 328.586L129.119 307.929C130.526 306.523 132.433 305.732 134.422 305.732C136.412 305.732 138.319 306.523 139.726 307.929C141.133 309.336 141.923 311.243 141.923 313.233C141.923 315.222 141.133 317.13 139.726 318.536L119.069 339.193C118.374 339.891 117.548 340.444 116.638 340.822C115.729 341.199 114.754 341.393 113.769 341.393L113.762 341.386Z" fill="white"/>
<path d="M0 397.972V414.572C0 428.25 5.43367 441.369 15.1057 451.041C24.7777 460.713 37.8957 466.146 51.574 466.146H68.174V428.11C68.174 420.117 64.9985 412.45 59.3462 406.798C53.6939 401.146 46.0276 397.97 38.034 397.97H0V397.972Z" fill="#6A96D7"/>
<path d="M512 397.972V414.572C512 428.25 506.567 441.369 496.895 451.041C487.222 460.713 474.104 466.146 460.426 466.146H443.826V428.11C443.826 420.117 447.002 412.45 452.654 406.798C458.306 401.146 465.973 397.97 473.966 397.97H512V397.972Z" fill="#8EAFE2"/>
<path d="M117.657 89.9141H167.7V112.566H117.66L117.657 89.9141Z" fill="#6A96D7"/>
<path d="M394.347 112.567H344.307V89.9149H394.347V112.567Z" fill="#6A96D7"/>
</svg>
