<svg width="512" height="512" viewBox="0 0 512 512" fill="none" xmlns="http://www.w3.org/2000/svg">
<path d="M198.586 239.592C189.633 223.452 176.514 210.01 160.598 200.665C144.682 191.32 126.55 186.416 108.093 186.463C89.6353 186.408 71.5007 191.309 55.5829 200.654C39.6651 209.999 26.5479 223.446 17.6005 239.591L0.000488686 271.653V481.095C-0.000168113 485.154 0.798765 489.173 2.35165 492.922C3.90454 496.672 6.18096 500.08 9.05089 502.949C11.9208 505.819 15.328 508.096 19.0779 509.649C22.8277 511.202 26.8468 512.001 30.9055 512H336.921C208.788 255.087 233.632 303.442 198.586 239.591V239.592Z" fill="#00C084"/>
<path d="M467.018 89.6938C467.017 68.5352 459.536 48.0581 445.898 31.8814C432.26 15.7046 413.342 4.86969 392.489 1.29131C371.635 -2.28706 350.187 1.62153 331.936 12.3263C313.686 23.0311 299.806 39.843 292.751 59.7908C276.892 59.9102 261.729 66.325 250.598 77.624C239.468 88.9231 233.282 104.181 233.401 120.041C233.521 135.901 239.936 151.064 251.235 162.194C262.534 173.324 277.792 179.51 293.651 179.391H467.151C473.041 179.382 478.872 178.213 484.31 175.951C489.748 173.689 494.687 170.378 498.846 166.208C503.004 162.037 506.301 157.088 508.546 151.643C510.792 146.198 511.944 140.364 511.935 134.474C511.926 128.585 510.758 122.754 508.496 117.316C506.234 111.878 502.923 106.939 498.752 102.78C494.581 98.6215 489.632 95.3252 484.187 93.0794C478.742 90.8335 472.908 89.6821 467.018 89.6908V89.6938Z" fill="#EFEDFF"/>
<path d="M36.2654 64.6048C42.3944 34.2048 78.4744 20.5678 103.2 39.7928C128.05 20.6288 164.1 34.3928 170.047 64.9438C179.094 66.2149 187.47 70.4284 193.883 76.9338C219.377 102.659 202.499 147.991 164.183 147.956L41.8294 147.847C36.3453 147.916 30.9022 146.892 25.8178 144.836C20.7334 142.779 16.1095 139.73 12.2158 135.868C8.32211 132.005 5.23664 127.406 3.13937 122.338C1.0421 117.27 -0.0249555 111.835 0.000442963 106.351V105.791C0.0960226 95.7162 3.81214 86.0121 10.4702 78.4506C17.1282 70.8891 26.284 65.9747 36.2654 64.6048Z" fill="#D4D4FF"/>
<path d="M483.218 247.727L456.136 198.384C449.724 186.719 441.081 176.428 430.697 168.099C412.247 153.295 389.294 145.236 365.638 145.256C347.18 145.201 329.046 150.102 313.128 159.447C297.21 168.792 284.093 182.239 275.145 198.384L103.018 512H481.094C485.153 512 489.172 511.202 492.922 509.649C496.672 508.096 500.079 505.819 502.949 502.949C505.819 500.079 508.095 496.672 509.648 492.922C511.201 489.173 512 485.154 511.999 481.095V305.444L483.218 247.727Z" fill="#00CE8E"/>
<path d="M281.73 423.446L405.252 198.384C411.665 186.719 420.308 176.428 430.691 168.099C412.242 153.296 389.292 145.237 365.638 145.256C347.18 145.201 329.045 150.102 313.128 159.447C297.21 168.793 284.093 182.24 275.145 198.385L103.018 512H277.507C271.418 497.893 268.632 482.581 269.364 467.234C270.096 451.886 274.326 436.909 281.73 423.446Z" fill="#00C084"/>
<path d="M251.749 486.241C226.682 461.173 210.423 428.65 205.415 393.554C200.408 358.459 206.921 322.686 223.977 291.608L225.445 288.934C205.297 288.889 185.633 295.106 169.171 306.723C152.709 318.341 140.264 334.785 133.554 353.784C115.651 404.497 108.392 458.356 112.231 512H277.507L251.749 486.241Z" fill="#55DAFE"/>
</svg>
