<svg width="512" height="512" viewBox="0 0 512 512" fill="none" xmlns="http://www.w3.org/2000/svg">
<path d="M354 8H159C147.065 8 135.619 12.7411 127.18 21.1802C118.741 29.6193 114 41.0653 114 53V445H414C421.956 445 429.587 441.839 435.213 436.213C440.839 430.587 444 422.956 444 415V98C444 86.181 441.672 74.4778 437.149 63.5585C432.626 52.6392 425.997 42.7177 417.64 34.3604C409.282 26.0031 399.361 19.3738 388.441 14.8508C377.522 10.3279 365.819 8 354 8V8Z" fill="#53A3EC"/>
<path d="M280 8H159C147.065 8 135.619 12.7411 127.18 21.1802C118.741 29.6193 114 41.0653 114 53V445H253.246C180.317 305.957 184.394 136.291 280 8Z" fill="#4293DD"/>
<path d="M354 38H159C155.022 38 151.206 39.5804 148.393 42.3934C145.58 45.2064 144 49.0218 144 53C144 56.9782 145.58 60.7936 148.393 63.6066C151.206 66.4196 155.022 68 159 68L384 475C391.956 475 399.587 471.839 405.213 466.213C410.839 460.587 414 452.956 414 445V98C414 82.087 407.679 66.8258 396.426 55.5736C385.174 44.3214 369.913 38 354 38Z" fill="#EFEDFF"/>
<path d="M354 68H114V460C114 471.935 118.741 483.381 127.18 491.82C135.619 500.259 147.065 505 159 505H354C361.956 505 369.587 501.839 375.213 496.213C380.839 490.587 384 482.956 384 475V98C384 90.0435 380.839 82.4129 375.213 76.7868C369.587 71.1607 361.956 68 354 68Z" fill="#53A3EC"/>
<path d="M243.266 68H114V460C114 471.935 118.741 483.381 127.18 491.82C135.619 500.259 147.065 505 159 505H291C195.394 376.709 174.665 207.043 243.266 68Z" fill="#4293DD"/>
<path d="M249.275 132C249.233 132 249.192 132 249.15 132H248.85H248.724C219.03 132.217 190.626 144.165 169.706 165.238C148.786 186.312 137.045 214.802 137.045 244.497C137.045 274.192 148.786 302.682 169.706 323.756C190.626 344.829 219.03 356.777 248.724 356.994H248.85H249.16C249.205 356.994 249.249 356.994 249.293 356.994C278.987 356.775 307.389 344.825 328.308 323.749C349.227 302.674 360.965 274.183 360.962 244.488C360.96 214.794 349.217 186.304 328.295 165.232C307.373 144.16 278.969 132.214 249.275 132ZM249 342C230.071 341.891 218.969 320.193 213.086 302.13H284.909C279.033 320.105 267.976 341.89 249 342ZM209.02 287.13C205.923 273.129 204.327 258.839 204.259 244.5C204.345 230.251 205.923 216.05 208.966 202.13H289.032C292.091 216.048 293.669 230.25 293.739 244.5C293.652 258.838 292.056 273.127 288.976 287.13H209.02ZM151.5 244.5C151.474 229.829 154.771 215.343 161.146 202.13H193.631C190.781 216.075 189.317 230.267 189.26 244.5C189.316 256.228 190.316 267.932 192.25 279.5C192.685 282.091 193.172 284.627 193.687 287.13H161.273C154.816 273.848 151.473 259.268 151.5 244.5ZM249 147C268.037 147.11 279.151 169.055 285 187.13H213C218.866 169.072 229.94 147.11 249 147ZM304.366 202.13H336.854C343.224 215.396 346.522 229.928 346.5 244.644C346.478 259.361 343.138 273.883 336.728 287.13H304.315C310.196 259.104 310.214 230.163 304.366 202.13ZM327.845 187.13H300.673C297.364 175.808 292.673 164.01 286.023 154.256C302.728 161.149 317.201 172.526 327.845 187.13ZM212.006 154.243C205.276 164.094 200.675 175.691 197.326 187.13H170.155C180.804 172.516 195.288 161.134 212.006 154.243ZM170.343 302.13H197.4C200.716 313.407 205.389 325.079 211.98 334.745C195.375 327.894 180.971 316.611 170.343 302.13ZM286 334.755C292.692 324.955 297.262 313.468 300.6 302.13H327.662C317.028 316.619 302.615 327.905 286 334.755Z" fill="#ADD8FF"/>
</svg>
