<svg width="512" height="512" viewBox="0 0 512 512" fill="none" xmlns="http://www.w3.org/2000/svg">
<path d="M206.882 462.179C227.671 441.39 227.671 407.685 206.882 386.896C186.093 366.107 152.388 366.107 131.599 386.896C110.811 407.685 110.811 441.39 131.599 462.179C152.388 482.968 186.093 482.968 206.882 462.179Z" fill="#8EE2CF"/>
<path d="M169.293 446.839C181.594 446.839 191.566 436.867 191.566 424.566C191.566 412.265 181.594 402.293 169.293 402.293C156.992 402.293 147.02 412.265 147.02 424.566C147.02 436.867 156.992 446.839 169.293 446.839Z" fill="#4E5660"/>
<path d="M460.338 433.039C465.042 404.022 445.333 376.685 416.316 371.981C387.298 367.277 359.962 386.987 355.258 416.005C350.554 445.023 370.264 472.359 399.281 477.063C428.298 481.767 455.634 462.057 460.338 433.039Z" fill="#8EE2CF"/>
<path d="M407.91 446.839C420.211 446.839 430.183 436.867 430.183 424.566C430.183 412.265 420.211 402.293 407.91 402.293C395.609 402.293 385.637 412.265 385.637 424.566C385.637 436.867 395.609 446.839 407.91 446.839Z" fill="#4E5660"/>
<path d="M86.787 290.148C83.9675 290.151 81.1751 289.598 78.5702 288.519C75.9653 287.44 73.5992 285.857 71.608 283.861L6.28804 218.541C2.26219 214.515 0.000488281 209.055 0.000488281 203.361C0.000488281 197.668 2.26219 192.207 6.28804 188.182C10.3139 184.156 15.7741 181.894 21.4675 181.894C27.161 181.894 32.6212 184.156 36.647 188.182L101.967 253.501C104.969 256.503 107.014 260.328 107.843 264.492C108.671 268.657 108.246 272.973 106.621 276.896C104.996 280.819 102.244 284.171 98.714 286.53C95.1836 288.889 91.033 290.148 86.787 290.148Z" fill="#4E5660"/>
<path d="M96.432 397.5L116.848 390.562C131.647 385.533 147.692 385.533 162.491 390.562L191.314 400.362C206.113 405.391 222.158 405.391 236.957 400.362L265.78 390.562C280.579 385.533 296.624 385.533 311.423 390.562L340.246 400.362C355.045 405.391 371.09 405.391 385.889 400.362L414.712 390.562C429.511 385.533 445.556 385.533 460.355 390.562L480.771 397.5C484.327 398.708 488.119 399.051 491.834 398.501C495.549 397.951 499.079 396.524 502.132 394.337C505.185 392.15 507.672 389.267 509.388 385.927C511.105 382.586 512 378.885 512 375.13V251.436C512 245.881 509.793 240.553 505.865 236.625C501.937 232.697 496.609 230.49 491.054 230.49H86.15C83.399 230.489 80.6748 231.031 78.133 232.083C75.5913 233.135 73.2818 234.678 71.3363 236.623C69.3909 238.568 67.8476 240.878 66.7948 243.419C65.7419 245.961 65.2 248.685 65.2 251.436V375.129C65.1997 378.884 66.0947 382.585 67.8107 385.926C69.5267 389.266 72.0142 392.149 75.067 394.336C78.1199 396.523 81.6501 397.951 85.365 398.501C89.0798 399.051 92.8723 398.708 96.428 397.5H96.432Z" fill="#8EAFE2"/>
<path d="M480.771 348.861L460.355 341.923C445.556 336.894 429.511 336.894 414.712 341.923L385.889 351.723C371.09 356.752 355.045 356.752 340.246 351.723L311.423 341.923C296.624 336.894 280.579 336.894 265.78 341.923L236.957 351.723C222.158 356.752 206.113 356.752 191.314 351.723L162.491 341.923C147.692 336.894 131.647 336.894 116.848 341.923L96.432 348.861C92.8765 350.07 89.0842 350.414 85.3692 349.864C81.6543 349.315 78.1239 347.888 75.0706 345.701C72.0174 343.515 69.5294 340.632 67.8128 337.292C66.0961 333.952 65.2005 330.251 65.2 326.496V375.13C65.1998 378.885 66.0949 382.586 67.811 385.927C69.5271 389.267 72.0148 392.15 75.0677 394.337C78.1207 396.524 81.651 397.952 85.3659 398.502C89.0808 399.052 92.8733 398.708 96.429 397.5L116.845 390.562C131.644 385.533 147.689 385.533 162.488 390.562L191.311 400.362C206.11 405.391 222.155 405.391 236.954 400.362L265.777 390.562C280.576 385.533 296.621 385.533 311.42 390.562L340.243 400.362C355.042 405.391 371.087 405.391 385.886 400.362L414.709 390.562C429.508 385.533 445.553 385.533 460.352 390.562L480.768 397.5C484.324 398.708 488.117 399.052 491.832 398.502C495.547 397.953 499.078 396.525 502.131 394.338C505.184 392.151 507.672 389.268 509.388 385.927C511.105 382.587 512 378.885 512 375.13V326.496C511.999 330.251 511.104 333.951 509.387 337.291C507.671 340.631 505.183 343.513 502.13 345.7C499.077 347.886 495.547 349.313 491.833 349.863C488.118 350.413 484.326 350.069 480.771 348.861Z" fill="#F7EF87"/>
<path d="M293.612 64.7988C306.771 61.9568 315.135 48.9852 312.293 35.8259C309.451 22.6665 296.48 14.3027 283.32 17.1447C270.161 19.9866 261.797 32.9583 264.639 46.1176C267.481 59.2769 280.453 67.6408 293.612 64.7988Z" fill="#F7EF87"/>
<path d="M423.264 186.727C423.264 151.012 409.076 116.761 383.822 91.5065C358.568 66.2525 324.317 52.0649 288.602 52.0649C252.887 52.0649 218.636 66.2525 193.382 91.5065C168.128 116.761 153.94 151.012 153.94 186.727H423.264Z" fill="#A3DEFE"/>
<path d="M252.752 56.8979C224.348 64.7515 199.303 81.7021 181.456 105.152C163.608 128.602 153.942 157.258 153.939 186.727H246.431C225.476 150.269 237.056 82.8609 252.752 56.8979Z" fill="#7ACEFA"/>
<path d="M433.372 230.49H143.832C138.028 230.49 132.463 228.184 128.359 224.08C124.255 219.977 121.95 214.411 121.95 208.608C121.95 202.804 124.255 197.238 128.359 193.135C132.463 189.031 138.028 186.726 143.832 186.726H433.372C439.175 186.726 444.741 189.031 448.845 193.135C452.949 197.238 455.254 202.804 455.254 208.608C455.254 214.411 452.949 219.977 448.845 224.08C444.741 228.184 439.175 230.49 433.372 230.49Z" fill="#F7EF87"/>
<path d="M208.637 320.809C206.648 320.809 204.74 320.019 203.334 318.612C201.927 317.206 201.137 315.298 201.137 313.309V274.219C201.137 272.23 201.927 270.322 203.334 268.915C204.74 267.509 206.648 266.719 208.637 266.719C210.626 266.719 212.534 267.509 213.94 268.915C215.347 270.322 216.137 272.23 216.137 274.219V313.309C216.137 315.298 215.347 317.206 213.94 318.612C212.534 320.019 210.626 320.809 208.637 320.809Z" fill="#6A96D7"/>
<path d="M368.566 320.809C366.577 320.809 364.669 320.019 363.263 318.612C361.856 317.206 361.066 315.298 361.066 313.309V274.219C361.066 272.23 361.856 270.322 363.263 268.915C364.669 267.509 366.577 266.719 368.566 266.719C370.555 266.719 372.463 267.509 373.869 268.915C375.276 270.322 376.066 272.23 376.066 274.219V313.309C376.066 315.298 375.276 317.206 373.869 318.612C372.463 320.019 370.555 320.809 368.566 320.809Z" fill="#6A96D7"/>
<path d="M141.8 186.727C135.997 186.727 130.431 189.032 126.327 193.136C122.223 197.239 119.918 202.805 119.918 208.609C119.918 214.412 122.223 219.978 126.327 224.081C130.431 228.185 135.997 230.491 141.8 230.491H275.2C260.729 220.72 260.729 197.531 266.49 186.727H141.8Z" fill="#EFD176"/>
</svg>
