<svg width="512" height="512" viewBox="0 0 512 512" fill="none" xmlns="http://www.w3.org/2000/svg">
<path d="M306.664 512C302.761 511.997 298.911 511.104 295.406 509.387C291.902 507.67 288.835 505.176 286.441 502.095C284.047 499.013 282.387 495.425 281.59 491.605C280.793 487.785 280.878 483.833 281.84 480.051C287.516 457.851 283.379 415.512 281.305 401.074C280.335 394.353 282.075 387.522 286.142 382.084C290.209 376.645 296.27 373.046 302.991 372.076C309.712 371.106 316.543 372.846 321.981 376.913C327.419 380.98 331.019 387.041 331.989 393.762C332.903 400.094 340.665 456.684 331.454 492.727C330.046 498.235 326.847 503.118 322.358 506.607C317.87 510.097 312.349 511.994 306.664 512Z" fill="#5F75A1"/>
<path d="M284.387 461.32C284.124 467.629 283.271 473.9 281.84 480.05C280.159 486.629 281.16 493.606 284.624 499.447C288.087 505.288 293.729 509.513 300.308 511.194C306.888 512.875 313.865 511.874 319.706 508.41C325.546 504.947 329.772 499.305 331.453 492.726C333.462 484.405 334.74 475.925 335.273 467.382L284.387 461.32Z" fill="#F8DCCC"/>
<path d="M221.859 506.668C216.911 506.67 212.069 505.239 207.918 502.547C203.767 499.855 200.485 496.018 198.469 491.5C176.269 441.832 199.669 389.07 200.676 386.848L247.317 407.989L247.376 407.864C247.224 408.204 232.544 442.235 245.224 470.606C246.964 474.505 247.702 478.776 247.371 483.032C247.04 487.288 245.651 491.394 243.33 494.977C241.008 498.56 237.829 501.506 234.079 503.547C230.33 505.588 226.13 506.66 221.861 506.665L221.859 506.668Z" fill="#5F75A1"/>
<path d="M198.469 491.5C199.841 494.57 201.804 497.339 204.246 499.65C206.689 501.961 209.562 503.768 212.703 504.969C215.843 506.169 219.19 506.739 222.551 506.646C225.912 506.553 229.222 505.799 232.291 504.427C235.361 503.056 238.13 501.092 240.441 498.65C242.752 496.208 244.56 493.334 245.76 490.194C246.96 487.053 247.53 483.707 247.438 480.345C247.345 476.984 246.591 473.675 245.219 470.605C243.768 467.331 242.632 463.926 241.828 460.437L192.922 475.859C194.357 481.21 196.212 486.44 198.469 491.5Z" fill="#F8DCCC"/>
<path d="M362.879 336.371C349.075 336.305 335.425 333.468 322.738 328.027C316.476 325.402 311.513 320.396 308.941 314.111C306.37 307.827 306.401 300.778 309.026 294.516C311.652 288.254 316.658 283.291 322.942 280.72C329.227 278.148 336.275 278.179 342.538 280.804C350.999 284.351 376.745 295.148 413.257 260.204C418.163 255.509 424.734 252.955 431.523 253.105C438.313 253.254 444.765 256.095 449.46 261.001C454.155 265.908 456.708 272.478 456.559 279.268C456.41 286.057 453.569 292.509 448.663 297.204C431.085 314.032 412.538 325.591 393.546 331.559C383.629 334.721 373.287 336.343 362.879 336.371Z" fill="#F8DCCC"/>
<path d="M144.6 355.879C122.245 355.879 99.7798 348.496 82.5528 335.149C77.2426 330.97 73.7998 324.861 72.9748 318.154C72.1499 311.447 74.0096 304.685 78.1487 299.344C82.2878 294.002 88.3707 290.513 95.0713 289.637C101.772 288.762 108.547 290.57 113.92 294.669C123.764 302.298 137.92 305.978 150.861 304.269C156.131 303.682 161.224 302.019 165.824 299.383C170.425 296.747 174.435 293.194 177.607 288.945C179.639 286.266 182.179 284.014 185.081 282.316C187.984 280.619 191.193 279.51 194.524 279.052C197.855 278.595 201.244 278.798 204.497 279.651C207.749 280.503 210.802 281.987 213.481 284.02C216.16 286.052 218.413 288.592 220.11 291.494C221.807 294.397 222.917 297.605 223.374 300.937C223.831 304.268 223.628 307.657 222.776 310.909C221.924 314.162 220.439 317.215 218.407 319.894C211.118 329.508 201.981 337.568 191.535 343.603C181.088 349.637 169.54 353.524 157.571 355.035C153.27 355.6 148.937 355.882 144.6 355.879Z" fill="#F8DCCC"/>
<path d="M358.4 338.375C358.4 279.301 316.728 231.41 265.326 231.41C213.924 231.41 172.246 279.3 172.246 338.375C172.246 397.45 213.918 432.426 265.324 432.426C316.73 432.426 358.4 397.449 358.4 338.375Z" fill="#A0D9E7"/>
<path d="M182.734 384.879C198.25 415.328 229.398 432.426 265.324 432.426C301.25 432.426 332.394 415.326 347.91 384.879H182.734Z" fill="#5F75A1"/>
<path d="M453.6 187.332C453.6 168.532 435.655 153.285 413.518 153.285C391.381 153.285 373.436 168.527 373.436 187.332C373.436 206.137 391.381 221.379 413.518 221.379C435.655 221.379 453.6 206.137 453.6 187.332Z" fill="#F0CDB9"/>
<path d="M157.211 187.332C157.211 168.532 139.266 153.285 117.129 153.285C94.9919 153.285 77.0469 168.527 77.0469 187.332C77.0469 206.137 94.9919 221.379 117.129 221.379C139.266 221.379 157.211 206.137 157.211 187.332Z" fill="#F8DCCC"/>
<path d="M418.277 187.332C418.277 110.449 349.797 48.125 265.32 48.125C180.843 48.125 112.367 110.449 112.367 187.332C112.367 264.215 180.847 308.957 265.32 308.957C349.793 308.957 418.277 264.215 418.277 187.332Z" fill="#F8DCCC"/>
<path d="M189.2 66.563C143.282 90.586 112.36 135.672 112.36 187.333C112.36 264.216 180.844 308.958 265.317 308.958C273.04 308.958 280.613 308.586 288.036 307.841C133.387 269.547 146.2 132.629 189.2 66.563Z" fill="#F0CDB9"/>
<path d="M293.172 223.98C293.172 206.769 280.703 205.152 265.32 205.152C249.937 205.152 237.472 206.769 237.472 223.98C237.472 241.191 249.941 255.144 265.32 255.144C280.699 255.144 293.172 241.2 293.172 223.98Z" fill="#404656"/>
<path d="M206.246 218.508C206.246 203.317 190.777 191 171.699 191C152.621 191 137.156 203.316 137.156 218.508C137.156 233.7 152.621 246.016 171.699 246.016C190.777 246.016 206.246 233.7 206.246 218.508Z" fill="#F8B8BD"/>
<path d="M393.488 218.508C393.488 203.317 378.019 191 358.941 191C339.863 191 324.4 203.316 324.4 218.508C324.4 233.7 339.865 246.016 358.943 246.016C378.021 246.016 393.488 233.7 393.488 218.508Z" fill="#F8B8BD"/>
<path d="M350.223 139.781H181.313C155.981 139.781 134.762 160.515 135.247 185.847C135.467 196.942 139.762 207.568 147.312 215.7C154.863 223.832 165.142 228.901 176.19 229.942C187.238 230.983 198.282 227.922 207.219 221.343C216.155 214.765 222.359 205.128 224.647 194.269C225.226 191.622 226.696 189.253 228.812 187.56C230.929 185.868 233.562 184.953 236.272 184.969H294.366C297.07 184.947 299.7 185.853 301.815 187.538C303.931 189.223 305.404 191.583 305.987 194.223C307.735 202.584 311.818 210.277 317.76 216.413C323.703 222.548 331.262 226.873 339.563 228.888C347.863 230.902 356.564 230.523 364.658 227.794C372.752 225.065 379.906 220.098 385.292 213.469C390.678 206.84 394.076 198.82 395.09 190.339C396.104 181.859 394.695 173.264 391.024 165.551C387.353 157.839 381.572 151.325 374.35 146.764C367.129 142.203 358.762 139.782 350.221 139.782L350.223 139.781Z" fill="#A0D9E7"/>
<path d="M181.313 139.781C155.981 139.781 134.762 160.515 135.247 185.847C135.464 196.944 139.757 207.573 147.308 215.708C154.859 223.843 165.14 228.914 176.19 229.954C187.24 230.995 198.287 227.932 207.224 221.35C216.161 214.768 222.363 205.127 224.647 194.265C225.228 191.618 226.7 189.251 228.816 187.558C230.933 185.865 233.566 184.95 236.276 184.965H240.561C232.924 171.692 230.026 154.629 231.135 139.781H181.313Z" fill="#7CCBDD"/>
<path d="M191.832 198.566C189.843 198.566 187.935 197.776 186.529 196.37C185.122 194.963 184.332 193.055 184.332 191.066V178.866C184.332 176.877 185.122 174.969 186.529 173.563C187.935 172.156 189.843 171.366 191.832 171.366C193.821 171.366 195.729 172.156 197.135 173.563C198.542 174.969 199.332 176.877 199.332 178.866V191.066C199.332 193.055 198.542 194.963 197.135 196.37C195.729 197.776 193.821 198.566 191.832 198.566Z" fill="#404656"/>
<path d="M338.809 198.566C336.82 198.566 334.912 197.776 333.506 196.37C332.099 194.963 331.309 193.055 331.309 191.066V178.866C331.309 176.877 332.099 174.969 333.506 173.563C334.912 172.156 336.82 171.366 338.809 171.366C340.798 171.366 342.706 172.156 344.112 173.563C345.519 174.969 346.309 176.877 346.309 178.866V191.066C346.309 193.055 345.519 194.963 344.112 196.37C342.706 197.776 340.798 198.566 338.809 198.566Z" fill="#404656"/>
<path d="M416.477 165.922C405.16 99.2069 341.8 48.1289 265.32 48.1289C188.84 48.1289 125.484 99.2069 114.164 165.922C138.691 161.809 170.797 141.363 188.523 117.777C189.141 125.846 191.548 133.677 195.57 140.7C195.984 141.433 196.622 142.014 197.391 142.357C198.16 142.7 199.018 142.787 199.84 142.606C218.371 138.36 257.977 113.829 265.32 96.7309C272.668 113.831 312.273 138.36 330.804 142.606C331.626 142.787 332.484 142.699 333.253 142.356C334.022 142.013 334.66 141.433 335.074 140.7C339.094 133.678 341.501 125.849 342.121 117.782C359.844 141.363 391.949 161.809 416.477 165.922Z" fill="#404656"/>
<path d="M189.2 66.5698C149.763 87.2108 121.388 123.386 114.169 165.922C128.958 163.442 146.501 155.016 161.985 143.555C165.4 114.441 175.84 87.0938 189.2 66.5698Z" fill="#353947"/>
<path d="M171.18 140.922V69.07C171.18 67.9034 170.95 66.7483 170.504 65.6705C170.058 64.5927 169.403 63.6134 168.578 62.7885C167.754 61.9636 166.774 61.3093 165.696 60.8629C164.619 60.4166 163.463 60.1869 162.297 60.187H144.133C142.966 60.1865 141.811 60.4159 140.732 60.862C139.654 61.3082 138.674 61.9625 137.849 62.7874C137.024 63.6123 136.369 64.5917 135.922 65.6697C135.476 66.7477 135.246 67.9031 135.246 69.07V185.848C134.828 163.988 150.574 145.563 171.18 140.922Z" fill="#E8899E"/>
<path d="M158.027 146.105C150.414 120.046 149.093 80.378 151.427 60.187H144.133C142.966 60.1865 141.81 60.4159 140.732 60.862C139.654 61.3082 138.674 61.9625 137.849 62.7874C137.024 63.6123 136.369 64.5917 135.922 65.6697C135.476 66.7477 135.246 67.9031 135.246 69.07V185.848C135.152 177.794 137.216 169.861 141.221 162.873C145.227 155.884 151.029 150.095 158.027 146.105Z" fill="#DF5F7D"/>
<path d="M162.3 60.188H144.133C142.966 60.1875 141.811 60.4168 140.732 60.863C139.654 61.3092 138.675 61.9634 137.849 62.7883C137.024 63.6133 136.369 64.5927 135.923 65.6707C135.476 66.7487 135.246 67.9041 135.246 69.071V91.1H171.18V69.07C171.18 66.7147 170.245 64.4558 168.579 62.7902C166.914 61.1245 164.655 60.1885 162.3 60.188Z" fill="#F5EA72"/>
<path d="M144.133 60.188C142.966 60.1875 141.811 60.4169 140.732 60.8631C139.654 61.3092 138.675 61.9635 137.849 62.7884C137.024 63.6133 136.369 64.5927 135.923 65.6707C135.476 66.7487 135.246 67.9042 135.246 69.071V91.1H150.535C150.119 80.7871 150.417 70.4579 151.426 60.186L144.133 60.188Z" fill="#EAB65F"/>
<path d="M180.422 237.648C166.627 237.648 153.381 232.238 143.532 222.578C133.682 212.919 128.015 199.781 127.746 185.988C127.618 179.049 128.886 172.155 131.474 165.715C134.062 159.275 137.918 153.421 142.813 148.5C147.841 143.387 153.832 139.321 160.44 136.537C167.048 133.754 174.143 132.307 181.313 132.281H350.223C357.447 132.293 364.591 133.785 371.216 136.664C377.841 139.544 383.806 143.75 388.743 149.023C395.532 156.296 400.122 165.343 401.983 175.117C403.844 184.89 402.9 194.991 399.259 204.25C395.618 213.509 389.43 221.548 381.41 227.437C373.391 233.325 363.868 236.822 353.943 237.523C341.244 238.373 328.663 234.618 318.507 226.946C308.351 219.275 301.299 208.201 298.643 195.753C298.412 194.799 297.861 193.953 297.082 193.356C296.303 192.758 295.343 192.445 294.362 192.468H236.273C235.285 192.453 234.32 192.775 233.54 193.383C232.76 193.99 232.211 194.846 231.984 195.808C229.462 207.623 222.97 218.218 213.589 225.831C204.208 233.443 192.503 237.614 180.422 237.648ZM181.313 147.281C176.136 147.303 171.015 148.349 166.244 150.361C161.474 152.372 157.149 155.308 153.52 159C150.027 162.502 147.274 166.67 145.423 171.257C143.572 175.843 142.662 180.755 142.747 185.7C142.935 194.949 146.518 203.806 152.814 210.584C159.11 217.362 167.679 221.587 176.889 222.455C186.099 223.324 195.307 220.775 202.759 215.293C210.211 209.812 215.386 201.781 217.3 192.73C218.243 188.402 220.639 184.527 224.09 181.749C227.541 178.972 231.839 177.46 236.269 177.464H294.363C298.789 177.452 303.086 178.956 306.537 181.728C309.988 184.499 312.385 188.37 313.328 192.694C315.193 201.592 320.211 209.515 327.457 215.004C334.704 220.494 343.69 223.179 352.76 222.565C361.829 221.952 370.372 218.08 376.813 211.665C383.254 205.25 387.159 196.723 387.808 187.655C388.177 182.493 387.478 177.31 385.756 172.43C384.034 167.55 381.325 163.076 377.798 159.288C374.272 155.501 370.003 152.48 365.258 150.414C360.513 148.348 355.393 147.281 350.218 147.28L181.313 147.281Z" fill="#5F75A1"/>
<path d="M108.078 82.813C108.078 87.9629 106.55 92.9972 103.689 97.2792C100.828 101.561 96.761 104.898 92.003 106.869C87.245 108.84 82.0094 109.355 76.9584 108.35C71.9074 107.346 67.2678 104.866 63.6263 101.224C59.9848 97.5823 57.5049 92.9426 56.5003 87.8915C55.4956 82.8405 56.0113 77.605 57.9822 72.847C59.9531 68.0891 63.2906 64.0224 67.5726 61.1612C71.8547 58.3001 76.889 56.7729 82.039 56.7729C85.4586 56.7729 88.8447 57.4465 92.0039 58.7551C95.1632 60.0638 98.0338 61.9819 100.452 64.4C102.87 66.818 104.788 69.6886 106.096 72.8479C107.405 76.0073 108.078 79.3934 108.078 82.813Z" fill="#A0D9E7"/>
<path d="M133.1 20.93C133.1 25.0702 131.873 29.1176 129.573 32.5602C127.273 36.0028 124.004 38.686 120.179 40.2705C116.354 41.8549 112.145 42.2695 108.084 41.4618C104.023 40.654 100.293 38.6602 97.366 35.7325C94.4385 32.8047 92.4451 29.0746 91.6377 25.0139C90.8303 20.9532 91.2453 16.7442 92.8302 12.9194C94.415 9.09449 97.0985 5.82552 100.541 3.52587C103.984 1.22623 108.032 -0.000790773 112.172 3.82349e-07C117.722 0.000795926 123.045 2.20623 126.97 6.13126C130.895 10.0563 133.1 15.3794 133.1 20.93Z" fill="#A0D9E7"/>
<path d="M128.488 34.02C106.832 39.82 93.8788 12.82 107.348 0.582031C104.104 1.34826 101.091 2.87827 98.5584 5.04466C96.0259 7.21104 94.0475 9.95111 92.7881 13.0367C91.5287 16.1223 91.0247 19.4641 91.318 22.7839C91.6113 26.1037 92.6935 29.3053 94.4744 32.1223C96.2554 34.9392 98.6835 37.29 101.557 38.9787C104.43 40.6675 107.665 41.6454 110.992 41.8311C114.32 42.0168 117.644 41.4048 120.687 40.0461C123.73 38.6874 126.405 36.6214 128.488 34.02Z" fill="#7CCBDD"/>
<path d="M101.566 100.027C72.3659 104.152 65.9329 68.172 77.0739 57.25C73.0086 58.0379 69.1899 59.7839 65.9346 62.3433C62.6793 64.9026 60.0813 68.2014 58.3563 71.9659C56.6312 75.7304 55.8289 79.852 56.0158 83.9887C56.2027 88.1254 57.3735 92.1578 59.431 95.7514C61.4885 99.345 64.3734 102.396 67.8462 104.651C71.3191 106.907 75.2797 108.301 79.3995 108.719C83.5192 109.137 87.6793 108.567 91.5344 107.055C95.3895 105.543 98.8285 103.134 101.566 100.027Z" fill="#7CCBDD"/>
</svg>
