<svg width="512" height="512" viewBox="0 0 512 512" fill="none" xmlns="http://www.w3.org/2000/svg">
<path d="M502.852 192.809L480 169.957C471.513 161.471 460.002 156.703 448 156.703C435.998 156.703 424.487 161.471 416 169.957C407.513 178.443 396.002 183.211 384 183.211C371.998 183.211 360.487 178.443 352 169.957C343.513 161.471 332.002 156.703 320 156.703C307.998 156.703 296.487 161.471 288 169.957C279.513 178.443 268.002 183.211 256 183.211C243.998 183.211 232.487 178.443 224 169.957C215.513 161.471 204.002 156.703 192 156.703C179.998 156.703 168.487 161.471 160 169.957C151.513 178.443 140.002 183.211 128 183.211C115.998 183.211 104.487 178.443 96 169.957C87.5128 161.471 76.0022 156.703 64 156.703C51.9978 156.703 40.4872 161.471 32 169.957L9.148 192.809C6.2469 195.71 3.94579 199.154 2.37614 202.944C0.80649 206.735 -0.00093317 210.797 8.09353e-07 214.9V372.527C8.09353e-07 392.843 8.07033 412.326 22.4356 426.691C36.8009 441.057 56.2844 449.127 76.6 449.127H435.4C455.716 449.127 475.199 441.057 489.564 426.691C503.93 412.326 512 392.843 512 372.527V214.9C512.001 210.797 511.194 206.735 509.624 202.944C508.054 199.154 505.753 195.71 502.852 192.809Z" fill="#A3DEFE"/>
<path d="M168.074 163.547C165.148 165.37 162.439 167.52 160 169.957C151.513 178.443 140.002 183.211 128 183.211C115.998 183.211 104.487 178.443 96 169.957C87.5128 161.471 76.0022 156.703 64 156.703C51.9978 156.703 40.4872 161.471 32 169.957L9.148 192.809C6.2469 195.71 3.94579 199.154 2.37614 202.944C0.80649 206.735 -0.00093317 210.797 8.09353e-07 214.9V372.531C8.09353e-07 392.847 8.07033 412.33 22.4356 426.695C36.8009 441.061 56.2844 449.131 76.6 449.131H257.93C173.129 390.125 155.727 256.68 168.074 163.547Z" fill="#7ACEFA"/>
<path d="M176.746 254.945C173.986 255.41 171.162 255.319 168.438 254.676C165.715 254.034 163.147 252.853 160.887 251.203C126.66 226.277 103.844 175.558 101.344 118.844C101.213 116.078 101.629 113.313 102.569 110.709C103.508 108.104 104.953 105.71 106.82 103.665C108.686 101.619 110.938 99.9622 113.446 98.7889C115.955 97.6156 118.67 96.9489 121.436 96.827C124.203 96.7052 126.966 97.1305 129.568 98.0788C132.169 99.027 134.558 100.479 136.598 102.353C138.637 104.226 140.286 106.484 141.451 108.996C142.616 111.508 143.274 114.225 143.387 116.992C145.309 160.551 161.903 199.879 185.66 217.183C189.01 219.622 191.566 222.996 193.006 226.883C194.446 230.769 194.706 234.993 193.754 239.027C192.802 243.06 190.68 246.723 187.654 249.555C184.628 252.386 180.833 254.262 176.746 254.945Z" fill="#FFBF9E"/>
<path d="M272.375 408.98C293.634 387.351 305.488 358.199 305.357 327.871C305.226 297.544 293.121 268.496 271.676 247.051C250.23 225.606 221.182 213.5 190.855 213.369C160.527 213.238 131.375 225.093 109.746 246.352C64.836 291.258 78.285 350.625 123.191 395.532C168.097 440.439 227.465 453.891 272.375 408.98Z" fill="#FFD4BE"/>
<path d="M109.746 246.352C64.836 291.258 78.285 350.625 123.191 395.532C168.097 440.439 227.464 453.891 272.375 408.981L109.746 246.352Z" fill="#E26E7E"/>
<path d="M419.438 291.426C366.379 344.485 286.038 338.805 232.977 285.746C179.916 232.687 174.239 152.346 227.297 99.2852C280.355 46.2242 356.707 55.9002 409.766 108.957C462.825 162.014 472.5 238.371 419.438 291.426Z" fill="#FFD4BE"/>
<path d="M318.137 327.77C223.832 265.707 225.957 148.8 250 81.1562C241.766 86.3138 234.149 92.3978 227.3 99.2893C174.241 152.344 179.925 232.689 232.984 285.746C257.367 310.133 287.52 324.5 318.137 327.77Z" fill="#FFBF9E"/>
<path d="M254.063 135.621C240.915 122.473 221.763 120.301 211.297 130.773C200.831 141.245 202.997 160.386 216.145 173.535C229.293 186.684 248.445 188.855 258.911 178.387C269.377 167.919 267.211 148.77 254.063 135.621Z" fill="#EDA1AB"/>
<path d="M383.1 264.66C369.952 251.512 350.8 249.344 340.334 259.812C329.868 270.28 332.034 289.429 345.182 302.578C358.33 315.727 377.482 317.894 387.948 307.426C398.414 296.958 396.25 277.809 383.1 264.66Z" fill="#EDA1AB"/>
<path d="M267.895 157.043C266.413 157.042 264.964 156.601 263.732 155.777C262.5 154.953 261.54 153.782 260.972 152.412C260.405 151.043 260.257 149.536 260.546 148.082C260.834 146.628 261.548 145.292 262.595 144.243L271 135.832C272.407 134.425 274.314 133.635 276.303 133.634C278.293 133.634 280.2 134.424 281.607 135.83C283.014 137.236 283.805 139.144 283.805 141.133C283.805 143.122 283.016 145.03 281.609 146.437L273.199 154.843C272.504 155.541 271.677 156.095 270.767 156.473C269.857 156.85 268.881 157.044 267.895 157.043Z" fill="#4E5660"/>
<path d="M369.184 258.332C367.702 258.331 366.253 257.89 365.021 257.066C363.789 256.242 362.829 255.071 362.261 253.701C361.694 252.332 361.546 250.825 361.835 249.371C362.124 247.917 362.837 246.581 363.884 245.532L372.29 237.126C373.697 235.72 375.605 234.93 377.594 234.93C379.583 234.931 381.491 235.721 382.897 237.128C384.304 238.535 385.093 240.443 385.093 242.432C385.093 244.421 384.302 246.329 382.895 247.735L374.489 256.141C373.793 256.837 372.966 257.39 372.055 257.766C371.145 258.142 370.169 258.334 369.184 258.332Z" fill="#4E5660"/>
<path d="M329.793 221.469C325.331 221.472 320.916 220.556 316.823 218.778C312.73 217.001 309.046 214.401 306.001 211.139C302.957 207.876 300.616 204.023 299.124 199.817C297.633 195.611 297.023 191.144 297.332 186.692C297.469 184.708 298.388 182.859 299.888 181.552C301.388 180.246 303.346 179.589 305.33 179.725C307.315 179.862 309.164 180.781 310.47 182.281C311.777 183.781 312.434 185.739 312.297 187.723C312.122 190.225 312.485 192.735 313.363 195.084C314.241 197.432 315.613 199.566 317.386 201.339C319.159 203.112 321.291 204.484 323.64 205.363C325.989 206.241 328.499 206.605 331 206.43C331.983 206.363 332.969 206.49 333.903 206.803C334.836 207.117 335.699 207.612 336.441 208.259C337.184 208.906 337.792 209.693 338.23 210.575C338.668 211.457 338.929 212.417 338.996 213.399C339.064 214.382 338.937 215.368 338.623 216.302C338.309 217.235 337.815 218.098 337.168 218.841C336.521 219.583 335.734 220.191 334.852 220.629C333.97 221.068 333.01 221.328 332.027 221.395C331.285 221.445 330.535 221.469 329.793 221.469Z" fill="#4E5660"/>
<path d="M409.766 108.961C357.723 56.9141 283.266 46.6211 230.366 96.3201C250.366 104.156 279.566 109.152 317.116 105.312L413.416 201.612C409.576 239.159 414.572 268.358 422.404 288.362C472.1 235.457 461.813 161 409.766 108.961Z" fill="#4E5660"/>
<path d="M244.047 100.773C245.817 93.89 247.813 87.32 249.996 81.168C242.972 85.5622 236.397 90.6373 230.367 96.32C234.842 98.0556 239.409 99.5422 244.047 100.773Z" fill="#383C43"/>
<path d="M281.8 67.5003C300.823 103.375 330.359 135.77 356.655 162.07C382.951 188.37 415.355 217.902 451.225 236.929C462.37 193.394 446.425 145.617 409.768 108.956C373.111 72.2953 325.328 56.3593 281.8 67.5003Z" fill="#E26E7E"/>
<path d="M467.973 333.918L448.352 314.3C441.064 307.013 431.18 302.918 420.873 302.918C410.567 302.918 400.683 307.013 393.395 314.3C386.107 321.588 376.223 325.682 365.916 325.682C355.61 325.682 345.726 321.588 338.438 314.3C331.15 307.013 321.266 302.918 310.959 302.918C300.653 302.918 290.769 307.013 283.481 314.3C276.193 321.588 266.309 325.682 256.002 325.682C245.696 325.682 235.812 321.588 228.524 314.3C221.236 307.013 211.352 302.918 201.045 302.918C190.739 302.918 180.855 307.013 173.567 314.3C166.279 321.588 156.395 325.682 146.088 325.682C135.782 325.682 125.898 321.588 118.61 314.3C111.322 307.013 101.438 302.918 91.1314 302.918C80.825 302.918 70.9407 307.013 63.6529 314.3L44.0269 333.918C38.9968 338.949 36.1713 345.773 36.1719 352.887V398.067C36.1715 404.773 37.492 411.413 40.058 417.609C42.624 423.804 46.3853 429.433 51.127 434.175C55.8687 438.917 61.498 442.678 67.6934 445.244C73.8889 447.81 80.5291 449.131 87.2349 449.13H424.77C431.475 449.13 438.115 447.809 444.31 445.243C450.505 442.677 456.134 438.916 460.875 434.174C465.616 429.433 469.377 423.804 471.943 417.609C474.509 411.413 475.829 404.774 475.829 398.068V352.888C475.829 349.365 475.136 345.877 473.788 342.622C472.44 339.367 470.464 336.409 467.973 333.918Z" fill="#A3DEFE"/>
<path d="M175.039 312.9C174.539 313.354 174.047 313.82 173.562 314.3C166.274 321.588 156.39 325.682 146.083 325.682C135.777 325.682 125.893 321.588 118.605 314.3C111.317 307.013 101.433 302.918 91.1264 302.918C80.82 302.918 70.9357 307.013 63.6479 314.3L44.0269 333.918C41.5358 336.41 39.56 339.368 38.2122 342.623C36.8645 345.879 36.1712 349.368 36.1719 352.891V398.071C36.1719 411.613 41.5512 424.599 51.1264 434.175C55.8676 438.916 61.4962 442.677 67.6908 445.243C73.8855 447.809 80.5248 449.129 87.2299 449.129H257.93C213.852 418.457 187.984 367.676 175.039 312.9Z" fill="#7ACEFA"/>
<path d="M436.859 349.922C430.885 349.939 424.968 348.77 419.449 346.484C413.93 344.199 408.92 340.841 404.707 336.606C403.3 335.2 402.51 333.292 402.511 331.302C402.511 329.313 403.302 327.405 404.708 325.999C406.115 324.592 408.023 323.802 410.012 323.803C412.002 323.803 413.909 324.594 415.316 326C421.03 331.713 428.779 334.922 436.859 334.922C444.939 334.922 452.688 331.713 458.402 326C459.809 324.594 461.717 323.804 463.706 323.805C465.695 323.805 467.603 324.596 469.009 326.002C470.415 327.409 471.205 329.317 471.205 331.306C471.204 333.295 470.414 335.203 469.007 336.609C464.795 340.844 459.784 344.201 454.266 346.486C448.748 348.771 442.831 349.939 436.859 349.922Z" fill="#7ACEFA"/>
<path d="M57.543 253.219C52.777 253.232 48.0558 252.3 43.6527 250.476C39.2495 248.652 35.2518 245.973 31.891 242.594C30.4845 241.187 29.6945 239.279 29.6948 237.29C29.6951 235.301 30.4856 233.393 31.8925 231.987C33.2993 230.58 35.2072 229.79 37.1965 229.791C39.1858 229.791 41.0935 230.581 42.5 231.988C46.4914 235.978 51.9037 238.219 57.547 238.219C63.1902 238.219 68.6026 235.978 72.594 231.988C74.0055 230.606 75.9052 229.837 77.8804 229.848C79.8557 229.858 81.747 230.648 83.1438 232.044C84.5405 233.441 85.3298 235.332 85.3404 237.308C85.3509 239.283 84.5817 241.183 83.2 242.594C79.8383 245.974 75.8397 248.653 71.4357 250.477C67.0317 252.3 62.3097 253.233 57.543 253.219Z" fill="#A3DEFE"/>
<path d="M313.141 414.918C307.17 414.929 301.256 413.759 295.739 411.477C290.222 409.194 285.211 405.844 280.993 401.618C279.633 400.202 278.882 398.309 278.902 396.346C278.922 394.383 279.711 392.506 281.1 391.118C282.488 389.73 284.366 388.942 286.329 388.923C288.292 388.904 290.185 389.655 291.6 391.016C297.318 396.721 305.065 399.926 313.143 399.926C321.22 399.926 328.968 396.721 334.686 391.016C336.092 389.609 338 388.819 339.989 388.818C341.978 388.818 343.886 389.608 345.293 391.014C346.7 392.42 347.49 394.328 347.491 396.317C347.491 398.306 346.701 400.214 345.295 401.621C341.076 405.847 336.063 409.197 330.545 411.479C325.027 413.761 319.112 414.93 313.141 414.918Z" fill="#7ACEFA"/>
<path d="M137.488 391.352C131.518 391.362 125.604 390.192 120.087 387.91C114.57 385.627 109.559 382.277 105.34 378.052C103.974 376.638 103.218 374.743 103.235 372.777C103.252 370.81 104.041 368.929 105.432 367.538C106.822 366.148 108.703 365.359 110.67 365.342C112.636 365.325 114.531 366.081 115.945 367.447C121.663 373.152 129.411 376.357 137.488 376.357C145.566 376.357 153.313 373.152 159.031 367.447C160.446 366.081 162.34 365.325 164.307 365.342C166.273 365.359 168.154 366.148 169.545 367.538C170.935 368.929 171.724 370.81 171.741 372.777C171.758 374.743 171.002 376.638 169.636 378.052C165.418 382.277 160.406 385.627 154.889 387.91C149.372 390.192 143.459 391.362 137.488 391.352Z" fill="#A3DEFE"/>
</svg>
