<svg width="512" height="512" viewBox="0 0 512 512" fill="none" xmlns="http://www.w3.org/2000/svg">
<path d="M112.759 435.654H142.112V484.169H112.759V435.654Z" fill="#E1B89A"/>
<path d="M152.955 484.169H101.916C98.0153 484.169 94.2512 485.604 91.3412 488.201C88.4311 490.798 86.5786 494.376 86.1367 498.251L85.5367 503.486C85.4146 504.557 85.52 505.641 85.8463 506.668C86.1725 507.695 86.7121 508.641 87.4296 509.445C88.1472 510.249 89.0266 510.892 90.0101 511.333C90.9937 511.773 92.0592 512 93.1367 512H161.737C162.814 512 163.88 511.773 164.863 511.333C165.847 510.892 166.726 510.249 167.444 509.445C168.161 508.641 168.701 507.695 169.027 506.668C169.353 505.641 169.459 504.557 169.337 503.486L168.737 498.251C168.295 494.375 166.442 490.797 163.531 488.2C160.62 485.603 156.856 484.168 152.955 484.169Z" fill="#8EAFE2"/>
<path d="M400.383 484.169H371.03V435.654H400.383V484.169Z" fill="#E1B89A"/>
<path d="M360.187 484.169H411.226C415.126 484.169 418.89 485.604 421.8 488.201C424.71 490.798 426.563 494.376 427.005 498.251L427.605 503.486C427.727 504.557 427.621 505.641 427.295 506.668C426.969 507.695 426.429 508.641 425.712 509.445C424.994 510.249 424.115 510.892 423.131 511.333C422.148 511.773 421.082 512 420.005 512H351.405C350.327 512 349.262 511.773 348.278 511.333C347.295 510.892 346.415 510.249 345.698 509.445C344.98 508.641 344.441 507.695 344.114 506.668C343.788 505.641 343.683 504.557 343.805 503.486L344.405 498.251C344.847 494.376 346.699 490.798 349.609 488.201C352.519 485.604 356.283 484.169 360.184 484.169H360.187Z" fill="#8EAFE2"/>
<path d="M426.671 397.064H86.4707V425.085C86.4707 427.888 87.5843 430.577 89.5666 432.559C91.5488 434.541 94.2374 435.655 97.0407 435.655H416.101C418.904 435.655 421.593 434.541 423.575 432.559C425.557 430.577 426.671 427.888 426.671 425.085V397.064Z" fill="#4E5660"/>
<path d="M391.871 40.8188H121.271C118.177 40.8183 115.113 41.4273 112.254 42.611C109.395 43.7947 106.798 45.53 104.609 47.7177C102.421 49.9054 100.686 52.5027 99.5015 55.3613C98.3173 58.2199 97.7078 61.2837 97.7078 64.3778V133.346C97.7078 136.44 98.3173 139.504 99.5015 142.362C100.686 145.221 102.421 147.818 104.609 150.006C106.798 152.194 109.395 153.929 112.254 155.113C115.113 156.296 118.177 156.905 121.271 156.905H391.871C398.119 156.905 404.111 154.423 408.53 150.005C412.948 145.586 415.43 139.594 415.43 133.346V64.3788C415.43 58.1305 412.948 52.1381 408.53 47.7198C404.111 43.3014 398.119 40.8191 391.871 40.8188Z" fill="#FCF2D0"/>
<path d="M232.61 40.8203H121.271C118.177 40.8198 115.113 41.4288 112.254 42.6125C109.395 43.7962 106.798 45.5315 104.609 47.7192C102.421 49.9069 100.686 52.5042 99.5015 55.3628C98.3173 58.2213 97.7078 61.2852 97.7078 64.3793V133.347C97.7078 136.441 98.3173 139.505 99.5015 142.364C100.686 145.222 102.421 147.82 104.609 150.007C106.798 152.195 109.395 153.93 112.254 155.114C115.113 156.298 118.177 156.907 121.271 156.906H246.921C233.201 125.757 226.471 73.4253 232.61 40.8203Z" fill="#F6E3A3"/>
<path d="M200.85 70.883L167.677 73.592C165.675 73.7556 163.762 74.4885 162.163 75.7042C160.565 76.9199 159.348 78.5677 158.655 80.4529C157.963 82.3381 157.824 84.3821 158.256 86.3435C158.688 88.3049 159.672 90.1018 161.092 91.522L167.698 98.128C146.802 115.68 124.965 132.082 102.286 147.26C104.467 150.248 107.323 152.68 110.621 154.356C113.919 156.032 117.567 156.906 121.267 156.906H152.485C164.426 140.513 176.62 125.066 184.951 115.381L191.557 121.987C192.977 123.407 194.774 124.391 196.735 124.823C198.697 125.254 200.741 125.116 202.626 124.424C204.511 123.731 206.159 122.514 207.375 120.915C208.59 119.317 209.323 117.404 209.487 115.402L212.196 82.229C212.32 80.7076 212.112 79.1773 211.585 77.7444C211.059 76.3115 210.227 75.0102 209.148 73.9308C208.069 72.8514 206.767 72.0198 205.334 71.4935C203.901 70.9672 202.371 70.7589 200.85 70.883Z" fill="#6A96D7"/>
<path d="M350.345 89.1001H267.471C265.482 89.1001 263.574 88.3099 262.167 86.9034C260.761 85.4969 259.971 83.5892 259.971 81.6001C259.971 79.611 260.761 77.7033 262.167 76.2968C263.574 74.8903 265.482 74.1001 267.471 74.1001H350.34C352.329 74.1001 354.236 74.8903 355.643 76.2968C357.05 77.7033 357.84 79.611 357.84 81.6001C357.84 83.5892 357.05 85.4969 355.643 86.9034C354.236 88.3099 352.329 89.1001 350.34 89.1001H350.345Z" fill="#4E5660"/>
<path d="M337.002 123.623H280.82C278.831 123.623 276.923 122.833 275.516 121.426C274.11 120.02 273.32 118.112 273.32 116.123C273.32 114.134 274.11 112.226 275.516 110.82C276.923 109.413 278.831 108.623 280.82 108.623H337.002C338.991 108.623 340.898 109.413 342.305 110.82C343.712 112.226 344.502 114.134 344.502 116.123C344.502 118.112 343.712 120.02 342.305 121.426C340.898 122.833 338.991 123.623 337.002 123.623Z" fill="#4E5660"/>
<path d="M156.771 55.0071C153.123 55.0071 149.626 53.5582 147.047 50.9792C144.468 48.4002 143.019 44.9023 143.019 41.2551V13.7551C142.988 11.9297 143.32 10.1163 143.997 8.42083C144.674 6.72533 145.682 5.18161 146.962 3.8797C148.242 2.57779 149.768 1.54376 151.452 0.837917C153.136 0.132077 154.943 -0.231445 156.769 -0.231445C158.594 -0.231445 160.402 0.132077 162.086 0.837917C163.769 1.54376 165.296 2.57779 166.575 3.8797C167.855 5.18161 168.863 6.72533 169.54 8.42083C170.217 10.1163 170.55 11.9297 170.519 13.7551V41.2551C170.519 44.9016 169.07 48.3989 166.492 50.9778C163.914 53.5567 160.417 55.006 156.771 55.0071Z" fill="#4E5660"/>
<path d="M356.371 55.0073C360.018 55.0073 363.516 53.5584 366.095 50.9794C368.674 48.4004 370.123 44.9025 370.123 41.2553V13.7553C370.061 10.1492 368.585 6.71153 366.014 4.18309C363.442 1.65465 359.979 0.237793 356.373 0.237793C352.766 0.237793 349.304 1.65465 346.732 4.18309C344.16 6.71153 342.684 10.1492 342.623 13.7553V41.2553C342.623 44.9018 344.071 48.3991 346.649 50.978C349.227 53.5569 352.724 55.0062 356.371 55.0073Z" fill="#4E5660"/>
<path d="M182.848 205.67H151.59C135.571 205.67 120.208 212.033 108.881 223.361C97.5534 234.688 91.1898 250.051 91.1898 266.07V388.27H243.245V266.07C243.245 258.138 241.683 250.284 238.647 242.956C235.612 235.628 231.163 228.969 225.554 223.361C219.945 217.752 213.287 213.303 205.959 210.268C198.631 207.232 190.777 205.67 182.845 205.67H182.848Z" fill="#A3DEFE"/>
<path d="M145.447 205.979C130.569 207.501 116.785 214.488 106.763 225.588C96.7407 236.688 91.1926 251.111 91.1927 266.066V388.266H160.536C142.112 352.917 136.006 267.062 145.447 205.979Z" fill="#7ACEFA"/>
<path d="M95.7018 337.493H52.2598C50.962 337.493 49.6825 337.187 48.5251 336.599C47.3678 336.012 46.3652 335.16 45.5988 334.113C44.8323 333.066 44.3236 331.853 44.1139 330.572C43.9041 329.291 43.9994 327.979 44.3918 326.742L47.1188 318.142C48.1823 314.789 50.2857 311.862 53.124 309.785C55.9624 307.708 59.3884 306.588 62.9058 306.588H85.0568C88.5741 306.588 92.0001 307.708 94.8385 309.785C97.6769 311.862 99.7802 314.789 100.844 318.142L103.571 326.742C103.963 327.979 104.058 329.291 103.849 330.572C103.639 331.853 103.13 333.066 102.363 334.114C101.597 335.161 100.594 336.013 99.4367 336.6C98.2793 337.187 96.9996 337.493 95.7018 337.493Z" fill="#6A96D7"/>
<path d="M70.1618 392.469H91.1928V337.493H56.7708V379.075C56.7708 382.627 58.1815 386.033 60.6927 388.545C63.2039 391.057 66.61 392.468 70.1618 392.469Z" fill="#E1B89A"/>
<path d="M330.294 205.67H361.552C377.571 205.67 392.934 212.033 404.261 223.361C415.588 234.688 421.952 250.051 421.952 266.07V388.27H269.898V266.07C269.898 250.051 276.261 234.688 287.588 223.361C298.916 212.033 314.279 205.67 330.298 205.67H330.294Z" fill="#A3DEFE"/>
<path d="M324.151 205.979C309.273 207.501 295.49 214.488 285.468 225.588C275.445 236.688 269.898 251.111 269.898 266.066V388.266H339.241C320.817 352.917 314.711 267.062 324.151 205.979Z" fill="#7ACEFA"/>
<path d="M417.44 337.493H460.882C462.18 337.493 463.459 337.187 464.616 336.599C465.774 336.012 466.776 335.16 467.543 334.113C468.309 333.066 468.818 331.853 469.028 330.572C469.237 329.291 469.142 327.979 468.75 326.742L466.023 318.142C464.959 314.789 462.856 311.862 460.018 309.785C457.179 307.708 453.753 306.588 450.236 306.588H428.085C424.568 306.588 421.141 307.708 418.303 309.785C415.465 311.862 413.361 314.789 412.298 318.142L409.571 326.742C409.179 327.979 409.084 329.291 409.293 330.572C409.503 331.853 410.012 333.066 410.779 334.113C411.545 335.16 412.548 336.012 413.705 336.599C414.863 337.187 416.142 337.493 417.44 337.493Z" fill="#6A96D7"/>
<path d="M442.98 392.469H421.949V337.493H456.371V379.075C456.371 382.627 454.96 386.033 452.449 388.545C449.938 391.057 446.532 392.468 442.98 392.469Z" fill="#E1B89A"/>
<path d="M242.655 410.366H91.7818C89.6522 410.366 87.5511 409.876 85.6405 408.936C83.7299 407.995 82.0608 406.629 80.7618 404.941C79.4629 403.254 78.5688 401.29 78.1485 399.203C77.7283 397.115 77.793 394.959 78.3378 392.9L80.4378 384.967C82.8718 375.78 88.2754 367.657 95.8069 361.861C103.338 356.065 112.575 352.922 122.079 352.922H212.356C221.859 352.922 231.096 356.065 238.628 361.861C246.159 367.657 251.563 375.78 253.997 384.967L256.097 392.9C256.642 394.959 256.707 397.116 256.287 399.204C255.867 401.292 254.972 403.256 253.673 404.944C252.374 406.632 250.705 407.999 248.793 408.94C246.882 409.88 244.781 410.37 242.651 410.37L242.655 410.366Z" fill="#8EAFE2"/>
<path d="M172.137 352.917H122.081C112.577 352.917 103.34 356.06 95.8088 361.856C88.2773 367.652 82.8737 375.775 80.4397 384.962L78.3397 392.895C77.7942 394.954 77.7289 397.111 78.1488 399.199C78.5687 401.287 79.4627 403.251 80.7617 404.939C82.0608 406.627 83.7301 407.994 85.6412 408.935C87.5522 409.876 89.6537 410.365 91.7837 410.365H179.332C169.732 394.802 166.175 367.857 172.139 352.917H172.137Z" fill="#6A96D7"/>
<path d="M270.487 410.366H421.36C423.49 410.366 425.591 409.877 427.502 408.936C429.413 407.995 431.083 406.628 432.382 404.94C433.681 403.252 434.575 401.288 434.995 399.2C435.415 397.112 435.349 394.955 434.804 392.896L432.704 384.963C430.27 375.776 424.866 367.653 417.335 361.857C409.803 356.061 400.566 352.918 391.063 352.918H300.784C291.28 352.918 282.043 356.061 274.512 361.857C266.98 367.653 261.577 375.776 259.143 384.963L257.043 392.896C256.498 394.955 256.433 397.112 256.853 399.2C257.273 401.288 258.167 403.252 259.466 404.94C260.766 406.628 262.435 407.995 264.346 408.936C266.257 409.877 268.359 410.366 270.489 410.366H270.487Z" fill="#8EAFE2"/>
<path d="M350.841 352.917H300.785C291.281 352.917 282.044 356.06 274.513 361.856C266.981 367.652 261.578 375.775 259.144 384.962L257.044 392.895C256.498 394.954 256.433 397.111 256.853 399.199C257.273 401.287 258.167 403.251 259.466 404.939C260.765 406.627 262.434 407.994 264.345 408.935C266.256 409.876 268.358 410.365 270.488 410.365H358.036C348.436 394.802 344.879 367.857 350.843 352.917H350.841Z" fill="#6A96D7"/>
</svg>
