<svg width="512" height="512" viewBox="0 0 512 512" fill="none" xmlns="http://www.w3.org/2000/svg">
<path d="M82.4825 330.832H56.3241C25.2137 330.832 0 305.608 0 274.508V72.7236C0 41.6132 25.2137 16.3984 56.3241 16.3984H455.675C486.785 16.3984 511.999 41.6121 511.999 72.7236V274.508C511.999 305.608 486.785 330.832 455.675 330.832H429.516L256 268.296L82.4825 330.832Z" fill="#ECECEC"/>
<path d="M30.9054 274.508V72.7236C30.9054 41.6132 56.1191 16.3984 87.2296 16.3984H56.3241C25.2137 16.3995 0 41.6132 0 72.7236V274.508C0 305.608 25.2137 330.833 56.3241 330.833H82.4825L82.9728 330.656C53.8537 328.477 30.9054 304.174 30.9054 274.508Z" fill="#C7C5CB"/>
<path d="M429.517 246.178V330.833H82.4824V246.178C82.4824 223.85 100.571 205.76 122.901 205.76H389.099C411.427 205.76 429.517 223.849 429.517 246.178Z" fill="#C7C5CB"/>
<path d="M373.4 284.036H138.599C129.907 284.036 122.86 276.989 122.86 268.297C122.86 259.604 129.907 252.558 138.599 252.558H373.4C382.093 252.558 389.14 259.604 389.14 268.297C389.14 276.989 382.092 284.036 373.4 284.036Z" fill="#A4E6FF"/>
<path d="M449.773 105.856C461.569 105.856 471.132 96.2935 471.132 84.4974C471.132 72.7013 461.569 63.1387 449.773 63.1387C437.977 63.1387 428.414 72.7013 428.414 84.4974C428.414 96.2935 437.977 105.856 449.773 105.856Z" fill="#A4E6FF"/>
<path d="M449.773 175.914C461.569 175.914 471.132 166.351 471.132 154.555C471.132 142.759 461.569 133.196 449.773 133.196C437.977 133.196 428.414 142.759 428.414 154.555C428.414 166.351 437.977 175.914 449.773 175.914Z" fill="#C7C5CB"/>
<path d="M106.517 492.659C95.0869 478.168 95.0869 457.928 106.517 443.438C113.501 434.582 113.501 422.212 106.517 413.357C95.0869 398.866 95.0869 378.625 106.517 364.135C109.16 360.784 114.019 360.212 117.369 362.853C120.719 365.495 121.293 370.355 118.65 373.705C111.665 382.56 111.665 394.931 118.65 403.786C130.08 418.277 130.08 438.517 118.65 453.007C111.665 461.863 111.665 474.233 118.65 483.089C121.293 486.439 120.719 491.297 117.369 493.94C114.016 496.583 109.16 496.009 106.517 492.659V492.659Z" fill="#A4E6FF"/>
<path d="M202.128 492.659C190.698 478.169 190.698 457.929 202.128 443.438C209.112 434.583 209.112 422.212 202.128 413.357C190.698 398.867 190.698 378.626 202.128 364.135C204.77 360.785 209.629 360.211 212.98 362.853C216.33 365.496 216.903 370.354 214.261 373.705C207.275 382.561 207.275 394.931 214.261 403.787C225.691 418.277 225.691 438.517 214.261 453.008C207.276 461.863 207.276 474.234 214.261 483.089C216.903 486.439 216.33 491.297 212.98 493.941C209.621 496.588 204.765 496.002 202.128 492.659V492.659Z" fill="#A4E6FF"/>
<path d="M297.739 492.659C286.309 478.169 286.309 457.929 297.739 443.438C304.724 434.583 304.724 422.212 297.739 413.357C286.309 398.867 286.309 378.626 297.739 364.135C300.382 360.785 305.241 360.211 308.591 362.853C311.941 365.496 312.515 370.354 309.872 373.705C302.887 382.561 302.887 394.931 309.872 403.787C321.302 418.277 321.302 438.517 309.872 453.008C302.888 461.863 302.888 474.234 309.872 483.089C312.515 486.439 311.941 491.297 308.591 493.941C305.232 496.588 300.376 496.002 297.739 492.659V492.659Z" fill="#A4E6FF"/>
<path d="M393.351 492.659C381.921 478.168 381.921 457.928 393.351 443.438C400.336 434.582 400.336 422.212 393.351 413.357C381.921 398.866 381.921 378.625 393.351 364.135C395.993 360.784 400.852 360.212 404.203 362.853C407.553 365.495 408.127 370.355 405.484 373.705C398.499 382.56 398.499 394.931 405.484 403.786C416.914 418.277 416.914 438.517 405.484 453.007C398.499 461.863 398.499 474.233 405.484 483.089C408.127 486.439 407.553 491.297 404.203 493.94C400.851 496.583 395.994 496.009 393.351 492.659V492.659Z" fill="#A4E6FF"/>
</svg>
