<svg width="512" height="512" viewBox="0 0 512 512" fill="none" xmlns="http://www.w3.org/2000/svg">
<g clip-path="url(#clip0)">
<path d="M460.491 451.734H51.5091C23.1791 451.734 0 428.555 0 400.225V317.811C0 289.481 23.1791 266.302 51.5091 266.302H460.491C488.821 266.302 512 289.481 512 317.811V400.225C512 428.555 488.821 451.734 460.491 451.734Z" fill="#976BCF"/>
<path d="M159.163 30.9054V109.199L199.855 129.803L240.547 95.9943V30.9054C240.547 13.8364 226.711 0 209.642 0H190.069C173 0 159.163 13.8364 159.163 30.9054Z" fill="#976BCF"/>
<path d="M271.453 30.9054V95.9943L312.145 129.803L349.13 109.199V30.9054C349.13 13.8364 335.294 0 318.225 0H302.358C285.29 0 271.453 13.8364 271.453 30.9054Z" fill="#B28AE4"/>
<path d="M412.961 176.993C399.796 149.355 378.399 123.469 355.518 106.133C351.711 103.249 347.71 100.678 343.565 98.3903C328.452 90.0448 311.343 85.6934 293.922 85.6934H218.078C195.878 85.6934 174.174 92.7285 156.48 106.135C133.601 123.471 112.204 149.358 99.0384 176.994C61.7159 256.574 41.8221 335.173 45.1774 405.862C47.3676 461.599 111.96 512.17 158.032 512C282.807 511.118 320.934 512.054 358.865 511.831C404.539 508.694 464.703 459.629 466.821 405.861C470.177 335.173 450.282 256.573 412.961 176.993Z" fill="#55DAFE"/>
<path d="M220.309 405.861C216.954 335.173 236.848 256.573 274.17 176.993C287.336 149.356 308.732 123.47 331.611 106.134C335.419 103.249 339.421 100.678 343.565 98.3903C328.452 90.0448 311.343 85.6934 293.922 85.6934H218.078C195.878 85.6934 174.174 92.7285 156.48 106.135C133.601 123.471 112.204 149.358 99.0384 176.994C61.7159 256.574 41.8221 335.173 45.1774 405.862C47.3676 461.599 111.96 512.17 158.032 512C194.034 511.745 219.866 511.62 256 511.619C282.998 511.62 304.244 511.691 328.278 511.832C282.661 508.7 222.422 459.656 220.309 405.861Z" fill="#2ED0FC"/>
<path d="M329.159 216.66C325.525 209.09 320.295 201.265 314.374 194.312C306.609 185.189 295.157 180.032 283.177 180.032H272.753L228.825 180.031C216.844 180.031 205.393 185.188 197.627 194.312C191.708 201.266 186.476 209.091 182.843 216.66C153.51 279.285 137.974 338.239 137.54 388.2C137.457 397.626 141.916 406.54 149.45 412.206C149.625 412.338 149.801 412.469 149.977 412.599C155.077 416.35 161.317 418.242 167.649 418.2C228.696 417.8 275.717 417.755 344.369 418.2C350.703 418.241 356.945 416.35 362.045 412.595C362.216 412.469 362.386 412.342 362.556 412.214C370.087 406.55 374.542 397.636 374.46 388.213C374.027 338.253 358.493 279.294 329.159 216.66Z" fill="#B28AE4"/>
<path d="M272.754 180.031L228.826 180.03C216.845 180.03 205.394 185.187 197.628 194.311C191.709 201.265 186.477 209.09 182.844 216.659C153.511 279.284 137.975 338.238 137.541 388.199C137.458 397.625 141.917 406.539 149.451 412.205C149.626 412.337 149.802 412.468 149.978 412.598C155.078 416.35 161.311 418.241 167.643 418.2C187.143 418.07 203.907 417.98 221.753 417.931C220.962 413.951 220.469 409.923 220.31 405.861C216.998 336.073 236.345 258.572 272.754 180.031Z" fill="#976BCF"/>
<path d="M394.856 232.575C389.775 219.626 384.13 206.509 378.075 193.591C378.067 193.572 378.005 193.442 377.996 193.425C367.913 172.342 350.36 150.694 332.189 136.926C321.467 128.799 307.876 124.324 293.922 124.324H218.078C204.125 124.324 190.536 128.799 179.812 136.924C161.639 150.694 144.087 172.343 134.012 193.407C133.99 193.448 133.946 193.546 133.927 193.588C127.871 206.511 122.225 219.627 117.144 232.574C115.584 236.546 117.542 241.03 121.513 242.589C125.483 244.148 129.969 242.193 131.528 238.22C136.489 225.58 142.003 212.77 147.918 200.147C147.923 200.139 147.927 200.128 147.933 200.117C147.938 200.105 147.942 200.097 147.945 200.092C157.03 181.099 172.817 161.615 189.144 149.242C197.198 143.139 207.474 139.778 218.078 139.778H293.922C304.527 139.778 314.803 143.139 322.857 149.244C339.185 161.614 354.971 181.099 364.084 200.149C369.999 212.768 375.512 225.578 380.473 238.219C382.031 242.191 386.514 244.152 390.487 242.589C394.459 241.03 396.416 236.546 394.856 232.575Z" fill="#976BCF"/>
</g>
<defs>
<clipPath id="clip0">
<rect width="512" height="512" fill="white"/>
</clipPath>
</defs>
</svg>
