<svg width="512" height="512" viewBox="0 0 512 512" fill="none" xmlns="http://www.w3.org/2000/svg">
<g clip-path="url(#clip0)">
<path d="M445.166 355.675L257.556 300.775L66.834 355.675H0V486.953C0 499.479 10.1545 509.633 22.6805 509.633H55.5371C68.063 509.633 78.2175 499.479 78.2175 486.953V443.518C78.2175 437.518 83.082 432.653 89.0818 432.653H422.919C428.92 432.653 433.785 437.518 433.785 443.518V486.953C433.785 499.479 443.939 509.633 456.465 509.633H489.322C501.848 509.633 512.002 499.479 512.002 486.953V355.675H445.166Z" fill="#E8A882"/>
<path d="M30.9054 486.953V355.675H0V486.953C0 499.479 10.1545 509.633 22.6805 509.633H53.5859C41.0599 509.632 30.9054 499.479 30.9054 486.953Z" fill="#E3986D"/>
<path d="M485.36 2.36621H444.409C435.083 2.36621 427.522 9.92671 427.522 19.254V34.992C427.522 41.8469 421.965 47.4037 415.11 47.4037H99.9992C93.1444 47.4037 87.5876 41.8469 87.5876 34.992V19.254C87.5876 9.92774 80.0271 2.36621 70.6998 2.36621H29.7491C20.4218 2.36621 12.8613 9.92671 12.8613 19.254V300.775H502.248V19.254C502.248 9.92774 494.687 2.36621 485.36 2.36621Z" fill="#E3986D"/>
<path d="M60.6545 2.36719H29.7491C20.4218 2.36719 12.8613 9.92769 12.8613 19.2549V300.776H43.7668V19.2539C43.7668 9.92769 51.3273 2.36719 60.6545 2.36719Z" fill="#D97C40"/>
<path d="M257.554 175.379C257.554 152.305 238.849 133.599 215.774 133.599H115.333C92.2588 133.599 73.5527 152.304 73.5527 175.379V270.938H257.554V175.379Z" fill="#ECECEC"/>
<path d="M146.238 133.599H115.333C92.2588 133.599 73.5527 152.305 73.5527 175.379V270.938H104.458V175.379C104.458 152.304 123.164 133.599 146.238 133.599Z" fill="#DEDEDC"/>
<path d="M299.335 133.599H399.776C422.85 133.599 441.556 152.304 441.556 175.379V270.938H257.555V175.379C257.555 152.304 276.261 133.599 299.335 133.599Z" fill="#ECECEC"/>
<path d="M288.46 175.379C288.46 162.153 284.892 149.753 278.694 139.059C266.072 146.247 257.555 159.814 257.555 175.379V270.938H288.46V175.379Z" fill="#DEDEDC"/>
<path d="M421.219 245.875H90.7806C40.6437 245.875 0 286.519 0 336.657V355.675H512V336.657C512 286.519 471.356 245.875 421.219 245.875Z" fill="#FFBDD7"/>
<path d="M121.686 245.875H90.7806C40.6437 245.875 0 286.52 0 336.657V355.675H30.9054V336.657C30.9054 286.52 71.5492 245.875 121.686 245.875Z" fill="#FF97C0"/>
</g>
<defs>
<clipPath id="clip0">
<rect width="512" height="512" fill="white"/>
</clipPath>
</defs>
</svg>
