<svg width="512" height="512" viewBox="0 0 512 512" fill="none" xmlns="http://www.w3.org/2000/svg">
<path d="M473.784 79.3509V160.879L392.116 201.87L322.975 160.879L364.897 79.3509C364.897 65.2704 376.311 53.8457 390.402 53.8457H448.278C462.368 53.8457 473.784 65.2704 473.784 79.3509Z" fill="#C8A9F1"/>
<path d="M473.783 242.862V355.515H364.895L328.871 242.862L392.115 201.871L473.783 242.862Z" fill="#C8A9F1"/>
<path d="M425.3 53.8457H390.402C376.311 53.8457 364.897 65.2704 364.897 79.3509L322.975 160.879L392.116 201.87L398.389 198.721C399.135 122.144 407.78 78.5154 425.3 53.8457Z" fill="#B18AE3"/>
<path d="M398.334 209.83C398.334 208.205 398.337 206.594 398.344 204.998L392.117 201.872L328.873 242.863L364.897 355.516H468.599C425.783 321.405 398.334 268.827 398.334 209.83Z" fill="#B18AE3"/>
<path d="M473.782 160.88V242.862H328.871L310.447 185.253L322.973 160.88H473.782Z" fill="#FFB4BF"/>
<path d="M230.492 84.4268H172.614C158.527 84.4268 147.106 95.8463 147.106 109.934L92.6602 204.68L147.106 355.512H255.999L310.446 185.257L255.999 109.934C255.999 95.8463 244.58 84.4268 230.492 84.4268Z" fill="#FFB4BF"/>
<path d="M147.104 79.3509V119.194L92.6619 163.695L38.2168 119.194V79.3509C38.2168 65.2704 49.6312 53.8457 63.722 53.8457H121.598C135.689 53.8457 147.104 65.2704 147.104 79.3509Z" fill="#71DBBA"/>
<path d="M147.104 201.176V355.515H38.2168V201.176L92.6619 163.696L147.104 201.176Z" fill="#71DBBA"/>
<path d="M398.333 209.83C398.333 191.856 398.734 175.598 399.542 160.88H322.973L310.447 185.253L328.871 242.861H401.255C399.335 232.141 398.333 221.102 398.333 209.83Z" fill="#FF8D9D"/>
<path d="M339.385 15H281.507C267.421 15 256 26.4196 256 40.5073V355.511H364.892V40.5073C364.892 26.4196 353.473 15 339.385 15Z" fill="#7DE2FF"/>
<path d="M96.4643 53.8457H63.722C49.6312 53.8457 38.2168 65.2704 38.2168 79.3509V119.194L75.7844 149.901C77.6367 115.722 84.5719 83.3089 96.4643 53.8457Z" fill="#30CC9B"/>
<path d="M75.3126 175.64L38.2168 201.177V355.515H130.822C92.2096 308.751 76.2871 245.522 75.3126 175.64Z" fill="#30CC9B"/>
<path d="M38.2168 119.194H147.103V201.175H38.2168V119.194Z" fill="#EEEDFF"/>
<path d="M184.676 149.901C185.865 127.981 189.235 105.896 195.094 84.4268H172.616C158.538 84.4268 147.126 95.8298 147.109 109.903V355.51H239.711C205.864 314.515 189.455 260.866 185.265 201.175H185.272C184.133 184.933 183.758 166.562 184.67 149.894L184.676 149.901Z" fill="#FF8D9D"/>
<path d="M201.555 191.581C214.603 191.581 225.18 176.792 225.18 158.548C225.18 140.305 214.603 125.516 201.555 125.516C188.507 125.516 177.93 140.305 177.93 158.548C177.93 176.792 188.507 191.581 201.555 191.581Z" fill="#FCE29F"/>
<path d="M225.18 281.576H177.929C173.662 281.576 170.203 278.116 170.203 273.849C170.203 269.582 173.662 266.123 177.929 266.123H225.18C229.447 266.123 232.906 269.582 232.906 273.849C232.906 278.116 229.447 281.576 225.18 281.576Z" fill="#E95B70"/>
<path d="M290.752 175.529C290.752 114.903 291.855 59.1412 312.357 15H281.507C267.421 15 256 26.4196 256 40.5073V355.511H363.476C318.457 308.896 290.752 245.452 290.752 175.529Z" fill="#2ECFFB"/>
<path d="M332.716 92.4928H288.178C283.911 92.4928 280.451 89.0334 280.451 84.7664C280.451 80.4994 283.911 77.04 288.178 77.04H332.716C336.983 77.04 340.443 80.4994 340.443 84.7664C340.443 89.0334 336.983 92.4928 332.716 92.4928Z" fill="#EEEDFF"/>
<path d="M332.716 124.828H288.178C283.911 124.828 280.451 121.368 280.451 117.101C280.451 112.834 283.911 109.375 288.178 109.375H332.716C336.983 109.375 340.443 112.834 340.443 117.101C340.443 121.368 336.983 124.828 332.716 124.828Z" fill="#EEEDFF"/>
<path d="M332.716 157.164H288.178C283.911 157.164 280.451 153.704 280.451 149.437C280.451 145.17 283.911 141.711 288.178 141.711H332.716C336.983 141.711 340.443 145.17 340.443 149.437C340.443 153.704 336.983 157.164 332.716 157.164Z" fill="#EEEDFF"/>
<path d="M384.93 355.511V474.163C384.93 486.918 395.27 497.258 408.025 497.258H434.243C446.998 497.258 457.339 486.919 457.339 474.163V355.511H384.93Z" fill="#E7B4B0"/>
<path d="M127.07 355.511V474.163C127.07 486.918 116.73 497.258 103.974 497.258H77.7558C65.0011 497.258 54.6602 486.919 54.6602 474.163V355.511H127.07Z" fill="#E7B4B0"/>
<path d="M384.932 355.511H457.34V424.981H384.932V355.511Z" fill="#CD847B"/>
<path d="M54.6621 355.511H127.07V424.981H54.6621V355.511Z" fill="#CD847B"/>
<path d="M421.134 457.592C426.991 457.592 431.739 452.844 431.739 446.988C431.739 441.131 426.991 436.383 421.134 436.383C415.277 436.383 410.529 441.131 410.529 446.988C410.529 452.844 415.277 457.592 421.134 457.592Z" fill="#CD847B"/>
<path d="M90.8664 457.592C96.7232 457.592 101.471 452.844 101.471 446.988C101.471 441.131 96.7232 436.383 90.8664 436.383C85.0096 436.383 80.2617 441.131 80.2617 446.988C80.2617 452.844 85.0096 457.592 90.8664 457.592Z" fill="#CD847B"/>
<path d="M75.2652 168.719C75.2652 151.798 76.488 135.248 78.8904 119.194H38.2168V201.175H76.3788C75.633 190.534 75.2652 179.706 75.2652 168.719Z" fill="#D3D3FF"/>
<path d="M487.672 316.947H24.3277C10.8921 316.947 0 327.839 0 341.275V369.747C0 383.183 10.8921 394.075 24.3277 394.075H487.672C501.108 394.075 512 383.183 512 369.747V341.275C512 327.839 501.108 316.947 487.672 316.947Z" fill="#E7B4B0"/>
</svg>
