<svg width="512" height="512" viewBox="0 0 512 512" fill="none" xmlns="http://www.w3.org/2000/svg">
<g clip-path="url(#clip0)">
<path d="M384.773 512H127.227C98.779 512 75.718 488.939 75.718 460.491V51.509C75.718 23.061 98.78 0 127.227 0H384.772C413.22 0 436.281 23.061 436.281 51.509V460.491C436.282 488.939 413.22 512 384.773 512Z" fill="#988FC4"/>
<path d="M116.926 460.491V51.509C116.926 23.061 139.987 0 168.435 0H127.228C98.78 0 75.718 23.061 75.718 51.509V460.491C75.718 488.939 98.779 512 127.227 512H168.434C139.987 512 116.926 488.939 116.926 460.491Z" fill="#897BAD"/>
<path d="M127.227 419.284C121.546 419.284 116.925 414.663 116.925 408.982V51.509C116.925 45.828 121.546 41.207 127.227 41.207H384.772C390.453 41.207 395.074 45.828 395.074 51.509V408.982C395.074 414.663 390.453 419.284 384.772 419.284H127.227Z" fill="#E3FBFF"/>
<path d="M395.074 320.83L215.262 41.207H173.025L395.074 386.513V320.83Z" fill="white"/>
<path d="M395.074 153.561L322.825 41.207H238.35L395.074 284.927V153.561Z" fill="white"/>
<path d="M158.133 408.982V51.509C158.133 45.828 162.754 41.207 168.435 41.207H127.228C121.547 41.207 116.926 45.828 116.926 51.509V408.982C116.926 414.663 121.547 419.284 127.228 419.284H168.435C162.754 419.284 158.133 414.662 158.133 408.982Z" fill="#B5EFFF"/>
<path d="M256 486.246C267.379 486.246 276.604 477.021 276.604 465.642C276.604 454.263 267.379 445.038 256 445.038C244.621 445.038 235.396 454.263 235.396 465.642C235.396 477.021 244.621 486.246 256 486.246Z" fill="#897BAD"/>
</g>
<defs>
<clipPath id="clip0">
<rect width="512" height="512" fill="white"/>
</clipPath>
</defs>
</svg>
