<svg width="512" height="512" viewBox="0 0 512 512" fill="none" xmlns="http://www.w3.org/2000/svg">
<g clip-path="url(#clip0_303_0)">
<path d="M387.622 380.916H124.378C115.703 380.916 108.671 387.948 108.671 396.623V406.296C108.671 414.971 115.703 422.003 124.378 422.003H387.622C396.297 422.003 403.329 414.971 403.329 406.296V396.623C403.329 387.948 396.297 380.916 387.622 380.916Z" fill="#D9A889"/>
<path d="M393.058 401.46H118.942C113.269 401.46 108.67 406.059 108.67 411.732C108.67 417.405 113.269 422.004 118.942 422.004H393.057C398.73 422.004 403.329 417.405 403.329 411.732C403.329 406.059 398.731 401.46 393.058 401.46Z" fill="#D0926D"/>
<path d="M138.109 156.442H186.466V301.522H138.109V156.442Z" fill="#D9A889"/>
<path d="M138.104 156.441H157.41V301.523H138.104V156.441Z" fill="#D0926D"/>
<path d="M138.109 156.442H186.466V205.644C170.354 205.263 154.232 204.727 138.109 204.068V156.442Z" fill="#D0926D"/>
<path d="M325.54 156.442H373.897V301.522H325.54V156.442Z" fill="#D9A889"/>
<path d="M373.897 156.442V204.067C357.775 204.726 341.663 205.262 325.54 205.643V156.441H373.897V156.442Z" fill="#D0926D"/>
<path d="M325.536 156.441H344.842V301.523H325.536V156.441Z" fill="#D0926D"/>
<path d="M176.896 301.523C170.725 317.965 164.915 335.931 159.568 354.217C137.275 430.378 122.873 511.999 122.873 511.999H77.6582C77.6582 461.984 86.5902 403.624 96.5102 354.216C100.383 334.952 104.401 317.047 108.1 301.522H176.896V301.523Z" fill="#D9A889"/>
<path d="M108.1 301.523H176.896C170.725 317.965 164.915 335.931 159.568 354.217H96.5112C100.384 334.952 104.402 317.048 108.1 301.523V301.523Z" fill="#D0926D"/>
<path d="M434.338 511.999H389.123C389.123 511.999 374.721 430.378 352.428 354.216C347.081 335.93 341.271 317.964 335.1 301.522H403.895C407.593 317.047 411.611 334.952 415.485 354.216C425.406 403.624 434.338 461.984 434.338 511.999V511.999Z" fill="#D9A889"/>
<path d="M130.414 301.523C117.228 356.844 99.9722 442.482 99.9722 511.999H77.6582C77.6582 442.482 94.9032 356.844 108.09 301.523H130.414Z" fill="#D0926D"/>
<path d="M411.437 511.999H389.123C389.123 511.999 366.984 386.482 335.1 301.523H357.414C389.309 386.482 411.437 511.999 411.437 511.999Z" fill="#D0926D"/>
<path d="M415.485 354.216H352.428C347.081 335.93 341.271 317.964 335.1 301.522H403.895C407.594 317.048 411.612 334.952 415.485 354.216Z" fill="#D0926D"/>
<path d="M415.711 250.308H96.289C81.228 250.308 69.019 262.517 69.019 277.578V304.734C69.019 319.795 81.228 332.004 96.289 332.004H415.712C430.773 332.004 442.982 319.795 442.982 304.734V277.578C442.981 262.517 430.772 250.308 415.711 250.308V250.308Z" fill="#EDDC54"/>
<path d="M168.38 332.002H96.288C81.237 332.002 69.019 319.794 69.019 304.733V277.578C69.019 262.517 81.237 250.299 96.288 250.299H168.38C153.319 250.299 141.111 262.517 141.111 277.578V304.733C141.111 319.795 153.319 332.002 168.38 332.002V332.002Z" fill="#EAB14D"/>
<path d="M387.877 3.03975C299.959 -1.01325 212.041 -1.01325 124.123 3.03975C103.009 4.01275 85.6571 20.0807 83.0841 41.0607C78.8021 75.9857 78.8021 110.91 83.0841 145.835C85.6561 166.814 103.009 182.882 124.123 183.856C212.041 187.909 299.959 187.909 387.877 183.856C408.991 182.883 426.343 166.815 428.916 145.835C433.198 110.911 433.198 75.9857 428.916 41.0607C426.343 20.0807 408.991 4.01275 387.877 3.03975V3.03975Z" fill="#EDDC54"/>
<path d="M137.967 184.453C133.352 184.268 128.737 184.072 124.121 183.855C103.002 182.876 85.6538 166.816 83.0788 145.831C78.8038 110.908 78.8038 75.9854 83.0788 41.0614C85.6538 20.0764 103.003 4.01643 124.121 3.03743C128.736 2.82143 133.351 2.62543 137.967 2.44043C124.43 9.09543 114.603 22.2304 112.676 38.0024C108.143 74.9654 108.143 111.928 112.676 148.891C114.602 164.663 124.43 177.798 137.967 184.453Z" fill="#EAB14D"/>
</g>
<defs>
<clipPath id="clip0_303_0">
<rect width="512" height="512" fill="white"/>
</clipPath>
</defs>
</svg>
