<svg width="512" height="512" viewBox="0 0 512 512" fill="none" xmlns="http://www.w3.org/2000/svg">
<g clip-path="url(#clip0_301_270)">
<path d="M385.092 154.166L340.492 198.766C333.819 205.44 322.999 205.44 316.325 198.766L249.765 132.206C243.092 125.532 243.092 114.712 249.765 108.039L294.366 63.4391C301.04 56.7651 311.859 56.7651 318.533 63.4391L385.092 129.999C391.765 136.672 391.765 147.492 385.092 154.166Z" fill="#F7D9A4"/>
<g opacity="0.1">
<path opacity="0.1" d="M385.092 154.166L340.492 198.766C333.819 205.44 322.999 205.44 316.325 198.766L249.765 132.206C243.092 125.532 243.092 114.712 249.765 108.039L294.366 63.4391C301.04 56.7651 311.859 56.7651 318.533 63.4391L385.092 129.999C391.765 136.672 391.765 147.492 385.092 154.166Z" fill="black"/>
</g>
<path d="M244.117 63.4391L288.717 108.039C295.391 114.713 295.391 125.533 288.717 132.206L222.157 198.766C215.483 205.44 204.663 205.44 197.99 198.766L153.39 154.166C146.716 147.492 146.716 136.672 153.39 129.999L219.95 63.4391C226.623 56.7651 237.443 56.7651 244.117 63.4391Z" fill="#F7D9A4"/>
<path d="M447.268 74.3361L468.841 133.607C472.069 142.476 467.496 152.282 458.627 155.51L370.174 187.704C361.305 190.932 351.499 186.359 348.271 177.49L326.699 118.219C323.471 109.35 328.044 99.5441 336.913 96.3161L425.366 64.1221C434.234 60.8941 444.04 65.4671 447.268 74.3361Z" fill="#F7D9A4"/>
<g opacity="0.1">
<path opacity="0.1" d="M469.033 134.228H150.297C146.966 140.662 147.994 148.769 153.39 154.165L197.99 198.765C204.664 205.439 215.483 205.439 222.157 198.765L269.24 151.682L316.323 198.765C322.997 205.439 333.817 205.439 340.49 198.765L354.007 185.249C358.477 188.634 364.513 189.764 370.175 187.703L458.628 155.509C467.291 152.357 471.834 142.929 469.033 134.228Z" fill="black"/>
</g>
<path d="M162.525 378.536H105.516C82.5419 378.536 60.0689 370.559 42.2359 356.075C24.4029 341.59 11.9879 321.23 7.27892 298.742L1.15892 269.522C-2.18908 253.541 1.79592 237.107 12.0899 224.433C22.3839 211.758 37.6529 204.489 53.9819 204.489H141.332C152.102 204.489 160.833 213.219 160.833 223.99C160.833 234.761 152.102 243.491 141.332 243.491H53.9819C47.7819 243.491 44.0419 246.956 42.3629 249.022C40.6859 251.087 38.0609 255.458 39.3319 261.525L45.4519 290.746C51.3719 319.015 76.6329 339.533 105.515 339.533H162.524C173.294 339.533 182.025 348.263 182.025 359.034C182.026 369.806 173.295 378.536 162.525 378.536Z" fill="#59A8ED"/>
<g opacity="0.1">
<path opacity="0.1" d="M160.835 223.991C160.835 213.22 152.104 204.49 141.334 204.49H90.1287L90.0937 215.825C90.0657 225.069 90.3507 234.296 90.9227 243.491H141.334C152.104 243.492 160.835 234.762 160.835 223.991ZM162.526 339.535H108.125C112.1 352.736 116.726 365.752 121.981 378.537H162.526C173.296 378.537 182.027 369.807 182.027 359.036C182.027 348.265 173.296 339.535 162.526 339.535Z" fill="black"/>
</g>
<path d="M426.216 453.568H201.334C190.659 453.568 180.892 447.56 176.078 438.032L161.208 408.602C131.012 348.84 115.377 282.783 115.582 215.825L115.713 172.986C115.752 160.285 126.059 150.009 138.76 150.009H488.806C501.504 150.009 511.81 160.28 511.853 172.978L511.999 215.587C512.228 282.545 496.617 348.608 466.441 408.382L451.477 438.023C446.665 447.556 436.895 453.568 426.216 453.568Z" fill="#59A8ED"/>
<g opacity="0.1">
<path opacity="0.1" d="M511.854 172.978C511.811 160.28 501.505 150.009 488.807 150.009H443.094C455.792 150.009 466.098 160.28 466.141 172.978L466.287 215.587C466.516 282.545 450.905 348.608 420.729 408.382L405.765 438.023C400.952 447.556 391.183 453.568 380.504 453.568H426.217C436.896 453.568 446.665 447.556 451.478 438.023L466.442 408.382C496.618 348.608 512.228 282.545 512 215.587L511.854 172.978Z" fill="black"/>
</g>
</g>
<defs>
<clipPath id="clip0_301_270">
<rect width="512.001" height="512.001" fill="white"/>
</clipPath>
</defs>
</svg>
