<svg width="512" height="512" viewBox="0 0 512 512" fill="none" xmlns="http://www.w3.org/2000/svg">
<g clip-path="url(#clip0)">
<path d="M420.691 182.618H91.3091L143.701 493.691C145.481 504.261 154.633 512 165.352 512H346.648C357.367 512 366.519 504.26 368.299 493.691L420.691 182.618Z" fill="#937254"/>
<g opacity="0.1">
<path opacity="0.1" d="M91.3091 182.617L96.3501 212.549H384.855L337.504 493.69C335.724 504.26 326.572 512 315.853 512H346.648C357.367 512 366.519 504.26 368.299 493.69L420.691 182.617H91.3091Z" fill="black"/>
</g>
<path d="M436.243 182.618H75.7572C67.3382 182.618 60.5142 175.794 60.5142 167.376V140.18C60.5142 131.762 67.3382 124.938 75.7572 124.938H436.243C444.661 124.938 451.486 131.762 451.486 140.18V167.376C451.486 175.794 444.662 182.618 436.243 182.618Z" fill="#E4E7E9"/>
<path d="M396.566 74.1934H115.434C104.472 74.1934 95.5859 83.0794 95.5859 94.0414V124.937H416.413V94.0414C416.414 83.0794 407.527 74.1934 396.566 74.1934Z" fill="#E4E7E9"/>
<g opacity="0.1">
<path opacity="0.1" d="M436.243 124.937H403.025C411.443 124.937 418.268 131.762 418.268 140.18V167.375C418.268 175.794 411.444 182.618 403.025 182.618H436.243C444.661 182.618 451.486 175.794 451.486 167.375V140.18C451.486 131.761 444.662 124.937 436.243 124.937Z" fill="black"/>
</g>
<path d="M93.1232 269.567L114.582 396.975C115.167 400.449 118.176 402.994 121.699 402.994H390.302C393.825 402.994 396.834 400.45 397.419 396.975L418.878 269.567C419.62 265.164 416.226 261.151 411.761 261.151H100.24C95.7752 261.151 92.3812 265.164 93.1232 269.567Z" fill="#E4E7E9"/>
<g opacity="0.1">
<path opacity="0.1" d="M411.76 261.151H376.751C381.216 261.151 384.61 265.164 383.868 269.567L362.409 396.975C361.824 400.449 358.815 402.994 355.292 402.994H390.301C393.824 402.994 396.833 400.45 397.418 396.975L418.877 269.567C419.619 265.164 416.225 261.151 411.76 261.151Z" fill="black"/>
</g>
<g opacity="0.1">
<path opacity="0.1" d="M396.566 74.1934H363.348C374.31 74.1934 383.196 83.0794 383.196 94.0414V106.276H95.5859V124.937H416.413V94.0414C416.414 83.0794 407.527 74.1934 396.566 74.1934Z" fill="black"/>
</g>
<path d="M169.872 0H160.123C155.778 0 152.255 3.523 152.255 7.868V74.193H177.739V7.868C177.739 3.523 174.217 0 169.872 0Z" fill="#60D195"/>
<g opacity="0.1">
<path opacity="0.1" d="M177.734 57.8867H152.25V74.1917H177.734V57.8867Z" fill="black"/>
</g>
</g>
<defs>
<clipPath id="clip0">
<rect width="512" height="512" fill="white"/>
</clipPath>
</defs>
</svg>
