<svg width="512" height="512" viewBox="0 0 512 512" fill="none" xmlns="http://www.w3.org/2000/svg">
<path d="M59.751 454.31H44.298C35.764 454.31 28.845 447.392 28.845 438.857V413.102H75.203V438.857C75.203 447.391 68.285 454.31 59.751 454.31V454.31Z" fill="#D8D8D8"/>
<path d="M254.197 402.801H199.855V438.857C199.855 447.391 206.773 454.31 215.308 454.31H254.455L254.197 402.801Z" fill="#D8D8D8"/>
<path d="M275.058 78.2944C275.058 66.9154 265.833 57.6904 254.454 57.6904H20.604C9.225 57.6904 0 66.9154 0 78.2944V402.801C0 414.18 9.225 423.405 20.604 423.405H275.059V78.2944H275.058Z" fill="#7A8693"/>
<path d="M275.058 78.2944V423.405H244.153V78.2944C244.153 66.9114 234.933 57.6904 223.549 57.6904H254.454C265.838 57.6904 275.058 66.9104 275.058 78.2944V78.2944Z" fill="#5C666D"/>
<path d="M167.92 377.046H41.207C35.517 377.046 30.905 372.434 30.905 366.744V297.722C30.905 292.032 35.517 287.42 41.207 287.42H149.634L167.92 377.046Z" fill="#5C666D"/>
<path d="M275.058 360.048H377.046V436.968H275.058V360.048Z" fill="#659BEA"/>
<path d="M346.141 360.048H377.046V436.968H346.141V360.048Z" fill="#4287CC"/>
<path d="M160.708 101.988H41.207C35.517 101.988 30.905 106.6 30.905 112.29V122.592C30.905 128.282 35.517 132.894 41.207 132.894H150.406L160.708 101.988Z" fill="#5C666D"/>
<path d="M491.396 377.046H160.708C149.329 377.046 140.104 367.821 140.104 356.442V122.592C140.104 111.213 149.329 101.988 160.708 101.988H491.396C502.775 101.988 512 111.213 512 122.592V356.443C512 367.822 502.775 377.046 491.396 377.046Z" fill="#8FB7FF"/>
<path d="M512 122.592V356.443C512 367.826 502.78 377.047 491.396 377.047H460.491C471.874 377.047 481.095 367.827 481.095 356.443V122.592C481.095 111.209 471.875 101.988 460.491 101.988H491.396C502.78 101.988 512 111.208 512 122.592V122.592Z" fill="#659BEA"/>
<path d="M475.944 346.141H176.161C173.316 346.141 171.01 343.835 171.01 340.99V138.044C171.01 135.199 173.316 132.893 176.161 132.893H475.944C478.789 132.893 481.095 135.199 481.095 138.044V340.99C481.095 343.835 478.788 346.141 475.944 346.141Z" fill="white"/>
<path d="M401.771 423.404H250.334C241.8 423.404 234.881 430.322 234.881 438.857C234.881 447.391 241.799 454.31 250.334 454.31H401.771C410.305 454.31 417.224 447.392 417.224 438.857C417.223 430.323 410.305 423.404 401.771 423.404Z" fill="#8FB7FF"/>
<path d="M417.223 438.857C417.223 447.387 410.3 454.31 401.77 454.31H370.865C379.395 454.31 386.318 447.387 386.318 438.857C386.318 434.592 384.587 430.729 381.785 427.937C378.993 425.135 375.13 423.404 370.865 423.404H401.77C406.035 423.404 409.898 425.135 412.69 427.937C415.493 430.729 417.223 434.592 417.223 438.857Z" fill="#659BEA"/>
<path d="M333.779 315.235H318.326C312.636 315.235 308.024 310.623 308.024 304.933V289.48C308.024 283.79 312.636 279.178 318.326 279.178H333.779C339.469 279.178 344.081 283.79 344.081 289.48V304.933C344.08 310.623 339.468 315.235 333.779 315.235Z" fill="#AC95F4"/>
<path d="M400.74 315.235H385.287C379.597 315.235 374.985 310.623 374.985 304.933V289.48C374.985 283.79 379.597 279.178 385.287 279.178H400.74C406.43 279.178 411.042 283.79 411.042 289.48V304.933C411.042 310.623 406.43 315.235 400.74 315.235Z" fill="#AC95F4"/>
<path d="M266.817 315.235H251.364C245.674 315.235 241.062 310.623 241.062 304.933V289.48C241.062 283.79 245.674 279.178 251.364 279.178H266.817C272.507 279.178 277.119 283.79 277.119 289.48V304.933C277.119 310.623 272.506 315.235 266.817 315.235Z" fill="#AC95F4"/>
<path d="M36.5709 194.704H103.533C106.378 194.704 108.684 192.398 108.684 189.553V168.95C108.684 166.105 106.378 163.799 103.533 163.799H36.5709C33.7259 163.799 31.4199 166.105 31.4199 168.95V189.554C31.4209 192.398 33.7269 194.704 36.5709 194.704V194.704Z" fill="#FF9797"/>
<path d="M108.684 233.336H39.1469C34.8799 233.336 31.4209 229.877 31.4209 225.61C31.4209 221.343 34.8799 217.884 39.1469 217.884H108.684C112.951 217.884 116.41 221.343 116.41 225.61C116.41 229.877 112.951 233.336 108.684 233.336Z" fill="#5C666D"/>
<path d="M108.684 264.241H39.1469C34.8799 264.241 31.4209 260.782 31.4209 256.515C31.4209 252.248 34.8799 248.789 39.1469 248.789H108.684C112.951 248.789 116.41 252.248 116.41 256.515C116.41 260.782 112.951 264.241 108.684 264.241Z" fill="#5C666D"/>
<path d="M62.5829 324.507C57.7549 324.507 53.8259 320.579 53.8259 315.75C53.8259 310.922 57.7539 306.993 62.5829 306.993C67.4119 306.993 71.3399 310.921 71.3399 315.75C71.3399 320.579 67.4119 324.507 62.5829 324.507V324.507Z" fill="#3B454C"/>
<path d="M62.5829 357.473C57.7549 357.473 53.8259 353.545 53.8259 348.716C53.8259 343.888 57.7539 339.959 62.5829 339.959C67.4119 339.959 71.3399 343.887 71.3399 348.716C71.3399 353.545 67.4119 357.473 62.5829 357.473V357.473Z" fill="#3B454C"/>
<path d="M100.7 324.507C95.8719 324.507 91.9429 320.579 91.9429 315.75C91.9429 310.922 95.8709 306.993 100.7 306.993C105.528 306.993 109.457 310.921 109.457 315.75C109.457 320.579 105.529 324.507 100.7 324.507Z" fill="#3B454C"/>
<path d="M100.7 357.473C95.8719 357.473 91.9429 353.545 91.9429 348.716C91.9429 343.888 95.8709 339.959 100.7 339.959C105.528 339.959 109.457 343.887 109.457 348.716C109.457 353.545 105.529 357.473 100.7 357.473Z" fill="#3B454C"/>
<path d="M481.095 138.044V163.799H171.01V138.044C171.01 135.201 173.318 132.893 176.161 132.893H475.944C478.787 132.893 481.095 135.201 481.095 138.044V138.044Z" fill="#D8D8D8"/>
</svg>
