<svg width="512" height="512" viewBox="0 0 512 512" fill="none" xmlns="http://www.w3.org/2000/svg">
<path d="M127.402 406.75H92.831C86.78 406.75 81.875 401.845 81.875 395.794V373.466H138.357V395.794C138.358 401.845 133.453 406.75 127.402 406.75Z" fill="#4E5660"/>
<path d="M384.598 406.75H419.169C425.22 406.75 430.125 401.845 430.125 395.794V373.466H373.643V395.794C373.642 401.845 378.547 406.75 384.598 406.75Z" fill="#4E5660"/>
<path d="M436.471 284.527H75.5293V172.403C75.5293 135.316 105.594 105.251 142.681 105.251H369.318C406.405 105.251 436.47 135.316 436.47 172.403V284.527H436.471Z" fill="#8DAEE1"/>
<path d="M436.471 172.403C436.471 163.985 434.908 155.935 432.079 148.51C399.609 158.386 375.687 188.912 375.354 224.667H274.52C267.852 224.667 261.555 226.284 256 229.148C250.445 226.284 244.148 224.667 237.48 224.667H136.646C136.313 188.912 112.392 158.386 79.9213 148.51C77.0923 155.935 75.5293 163.985 75.5293 172.403V284.528H436.471V172.403Z" fill="#6A95D6"/>
<path d="M453.713 167.176C422.291 167.701 397.385 193.992 397.385 225.419V276.927H114.615V225.419C114.615 193.993 89.709 167.701 58.287 167.176C26.189 166.64 0 192.5 0 224.476C0 248.025 14.21 268.248 34.518 277.062V330.852C34.518 354.387 53.597 373.467 77.133 373.467H434.868C458.403 373.467 477.483 354.388 477.483 330.852V277.062C497.79 268.248 512 248.025 512 224.476C512 192.5 485.811 166.64 453.713 167.176V167.176Z" fill="#8DAEE1"/>
<path d="M453.713 167.176C422.291 167.701 397.385 193.992 397.385 225.419V276.927H114.615V225.419C114.615 193.993 89.709 167.701 58.287 167.176C26.189 166.64 0 192.5 0 224.476C0 248.025 14.21 268.248 34.518 277.062V330.852C34.518 354.387 53.597 373.467 77.133 373.467H434.868C458.403 373.467 477.483 354.388 477.483 330.852V277.062C497.79 268.248 512 248.025 512 224.476C512 192.5 485.811 166.64 453.713 167.176V167.176Z" fill="#8DAEE1"/>
<path d="M237.48 322.355H93.5141C83.2861 322.355 74.9941 314.063 74.9941 303.835V277.887C74.9941 260.663 88.9571 246.7 106.181 246.7H224.814C242.038 246.7 256.001 260.663 256.001 277.887V303.835C256 314.063 247.708 322.355 237.48 322.355V322.355Z" fill="#7ACDF9"/>
<path d="M418.486 322.355H274.52C264.292 322.355 256 314.063 256 303.835V277.887C256 260.663 269.963 246.7 287.187 246.7H405.82C423.044 246.7 437.007 260.663 437.007 277.887V303.835C437.006 314.063 428.715 322.355 418.486 322.355V322.355Z" fill="#A2DDFD"/>
</svg>
