<svg width="512" height="512" viewBox="0 0 512 512" fill="none" xmlns="http://www.w3.org/2000/svg">
<path d="M93.2871 136.195H418.713V380.799H93.2871V136.195Z" fill="#A2DDFD"/>
<path d="M298.396 380.799L418.713 260.481V136.195H367.423L122.819 380.799H298.396Z" fill="#7ACDF9"/>
<path d="M436.216 380.8H75.7835C68.4345 380.8 62.4775 386.757 62.4775 394.106V414.528C62.4775 421.877 68.4345 427.834 75.7835 427.834H436.216C443.565 427.834 449.522 421.876 449.522 414.528V394.106C449.522 386.757 443.565 380.8 436.216 380.8Z" fill="#F5E2A2"/>
<path d="M489.176 65.1768H22.8236C12.2996 65.1768 3.76758 73.7088 3.76758 84.2328V117.139C3.76758 127.663 12.2996 136.195 22.8236 136.195H489.177C499.702 136.195 508.233 127.663 508.233 117.139V84.2328C508.232 73.7088 499.701 65.1768 489.176 65.1768Z" fill="#F5E2A2"/>
<path d="M93.2871 235.86H418.714V281.134H93.2871V235.86Z" fill="#FBF1CF"/>
<path d="M209.943 235.86H302.056V281.134H209.943V235.86Z" fill="#F5E2A2"/>
<path d="M233.363 136.194H278.637V380.799H233.363V136.194Z" fill="#FBF1CF"/>
<path d="M27.0987 431.964C50.7487 453.968 94.5577 447.886 117.019 437.026C125.244 433.049 130.129 424.355 129.156 415.271C125.853 384.436 112.883 317.128 83.2827 277.445C107.92 262.284 140.771 183.949 140.771 136.194H22.6367V421.662C22.6367 425.564 24.2417 429.306 27.0987 431.964Z" fill="#EDA1AB"/>
<path d="M22.6367 166.12H137.485C139.579 155.469 140.771 145.278 140.771 136.194H22.6367V166.12Z" fill="#E16E7E"/>
<path d="M100.261 300.084H22.637C10.135 300.084 0 289.949 0 277.447C0 264.945 10.135 254.81 22.637 254.81H100.261C112.763 254.81 122.898 264.945 122.898 277.447C122.898 289.949 112.763 300.084 100.261 300.084Z" fill="#F5E2A2"/>
<path d="M484.901 431.964C461.251 453.968 417.442 447.886 394.981 437.026C386.756 433.049 381.871 424.355 382.844 415.271C386.147 384.436 399.117 317.128 428.717 277.445C404.079 262.284 371.23 183.949 371.23 136.194H489.364V421.662C489.363 425.564 487.758 429.306 484.901 431.964Z" fill="#EDA1AB"/>
<path d="M374.515 166.12H489.363V136.194H371.229C371.229 145.278 372.42 155.469 374.515 166.12Z" fill="#E16E7E"/>
<path d="M411.739 300.084H489.363C501.865 300.084 512 289.949 512 277.447C512 264.945 501.865 254.81 489.363 254.81H411.739C399.237 254.81 389.102 264.945 389.102 277.447C389.102 289.949 399.237 300.084 411.739 300.084Z" fill="#F5E2A2"/>
</svg>
