<svg width="512" height="512" viewBox="0 0 512 512" fill="none" xmlns="http://www.w3.org/2000/svg">
<g clip-path="url(#clip0)">
<path d="M225.689 379.771H195.166V459.148C195.166 462.91 198.215 465.96 201.977 465.96H218.879C222.64 465.96 225.69 462.91 225.69 459.148V379.771H225.689Z" fill="#D2996F"/>
<path d="M318.498 379.771H349.021V459.148C349.021 462.91 345.972 465.96 342.211 465.96H325.309C321.548 465.96 318.498 462.91 318.498 459.148V379.771Z" fill="#D2996F"/>
<path d="M311.728 162.115H232.46C217.353 162.115 205.107 174.361 205.107 189.468V337.991H339.08V189.468C339.08 174.361 326.834 162.115 311.728 162.115Z" fill="#A3DEFE"/>
<path d="M260.805 162.115H232.46C217.353 162.115 205.107 174.361 205.107 189.468V337.991H292.46C270.117 293.586 256.653 215.173 260.805 162.115Z" fill="#7ACEFA"/>
<path d="M349.02 379.771H195.164C186.848 379.771 180.545 372.269 181.978 364.078L183.474 355.529C185.248 345.39 194.052 337.992 204.345 337.992H339.84C350.133 337.992 358.937 345.39 360.711 355.529L362.207 364.078C363.64 372.269 357.336 379.771 349.02 379.771Z" fill="#E1B89A"/>
<path d="M491.906 302.66H52.2795C41.1825 302.66 32.1855 293.664 32.1855 282.566V270.427C32.1855 259.33 41.1815 250.333 52.2795 250.333H491.906C503.003 250.333 512 259.329 512 270.427V282.566C512 293.664 503.004 302.66 491.906 302.66Z" fill="#E1B89A"/>
<path d="M103.394 465.959H77.4283C71.0173 465.959 65.8203 460.762 65.8203 454.351V302.66H115.002V454.351C115.002 460.762 109.805 465.959 103.394 465.959Z" fill="#E1B89A"/>
<path d="M65.8213 302.66H115.003V337.991H65.8213V302.66Z" fill="#D2996F"/>
<path d="M440.792 465.959H466.758C473.169 465.959 478.366 460.762 478.366 454.351V302.66H429.184V454.351C429.184 460.762 434.381 465.959 440.792 465.959Z" fill="#E1B89A"/>
<path d="M429.184 302.66H478.366V337.991H429.184V302.66Z" fill="#D2996F"/>
<path d="M205.404 207.782H27.816C12.454 207.782 0 195.328 0 179.966V73.858C0 58.495 12.454 46.042 27.816 46.042H205.403C220.766 46.042 233.219 58.496 233.219 73.858V179.966C233.22 195.328 220.766 207.782 205.404 207.782Z" fill="#C6C6C6"/>
<path d="M75.323 46.041H27.816C12.454 46.041 0 58.495 0 73.858V179.966C0 195.329 12.454 207.782 27.816 207.782H96.329C69.889 180.111 58.252 102.438 75.323 46.041Z" fill="#9AA3B1"/>
<path d="M119.55 120.665C129.666 119.025 136.538 109.495 134.898 99.3792C133.258 89.2631 123.728 82.3918 113.612 84.0317C103.496 85.6716 96.6243 95.2017 98.2642 105.318C99.9041 115.434 109.434 122.305 119.55 120.665Z" fill="#9AA3B1"/>
<path d="M130.806 163.904H102.414C96.4187 163.904 91.3497 168.345 90.5627 174.289L81.4757 242.9C80.9737 246.689 83.9217 250.053 87.7437 250.053H145.476C149.298 250.053 152.246 246.689 151.744 242.9L142.657 174.289C141.87 168.346 136.802 163.904 130.806 163.904Z" fill="#9AA3B1"/>
<path d="M171.355 161.941C167.213 161.941 163.855 158.584 163.855 154.441V147.059C163.855 142.916 167.213 139.559 171.355 139.559C175.497 139.559 178.855 142.916 178.855 147.059V154.441C178.855 158.584 175.497 161.941 171.355 161.941Z" fill="#4E5660"/>
<path d="M197.956 161.941C193.814 161.941 190.456 158.584 190.456 154.441V147.059C190.456 142.916 193.814 139.559 197.956 139.559C202.098 139.559 205.456 142.916 205.456 147.059V154.441C205.456 158.584 202.098 161.941 197.956 161.941Z" fill="#4E5660"/>
<path d="M457.151 207H390.851C386.984 207 384.182 210.776 385.217 214.588L393.401 244.683C394.573 249.008 398.423 252 402.807 252H445.192C449.579 252 453.426 249.008 454.601 244.683L462.782 214.588C463.82 210.776 461.018 207 457.151 207Z" fill="#DDAF89"/>
<path d="M424.001 146C416.24 146 408.922 149.595 404.208 155.724C394.345 168.549 392.239 185.681 398.697 200.493L401.538 207H446.464L449.301 200.493C455.763 185.681 453.654 168.549 443.794 155.724C439.077 149.595 431.762 146 424.001 146Z" fill="#7BD0A7"/>
<path d="M436.423 187.58C434.805 187.58 433.187 186.964 431.952 185.728C429.481 183.257 429.481 179.251 431.952 176.78L443.885 164.847C446.356 162.376 450.359 162.376 452.83 164.847C455.3 167.318 455.3 171.324 452.83 173.792L440.897 185.728C439.661 186.964 438.043 187.58 436.423 187.58Z" fill="#ECECED"/>
<path d="M414.418 168.02C412.8 168.02 411.183 167.404 409.947 166.168L398.574 154.799C396.107 152.328 396.107 148.322 398.574 145.851C401.045 143.383 405.051 143.383 407.522 145.851L418.892 157.224C421.363 159.694 421.363 163.697 418.892 166.168C417.656 167.404 416.039 168.02 414.418 168.02Z" fill="#ECECED"/>
<path d="M406.864 196.775C405.246 196.775 403.629 196.159 402.393 194.923C399.922 192.452 399.922 188.446 402.393 185.979L408.729 179.64C411.2 177.172 415.206 177.172 417.673 179.64C420.144 182.111 420.144 186.117 417.673 188.588L411.338 194.923C410.103 196.155 408.485 196.775 406.864 196.775Z" fill="#ECECED"/>
<path d="M390.875 207C386.993 207 384.179 210.776 385.217 214.589L393.436 244.686C394.613 249.008 398.479 252 402.88 252H432C419.166 242.073 415.05 220.439 415.649 207H390.875Z" fill="#C79E7B"/>
</g>
<defs>
<clipPath id="clip0">
<rect width="512" height="512" fill="white"/>
</clipPath>
</defs>
</svg>
