<svg width="512" height="512" viewBox="0 0 512 512" fill="none" xmlns="http://www.w3.org/2000/svg">
<g clip-path="url(#clip0)">
<path d="M289.684 289.684L286.043 363.402L351.052 351.052L500.933 201.171C515.688 186.416 515.688 162.492 500.933 147.737L466.283 113.087L289.684 289.684Z" fill="#00A5C7"/>
<path d="M289.684 289.684L113.086 466.283L147.736 500.933C162.491 515.688 186.415 515.688 201.17 500.933L351.051 351.052L289.684 289.684Z" fill="#BF4E57"/>
<path d="M310.826 11.0709L160.949 160.949L199.994 277.353L316.398 316.398L466.276 166.52C481.036 151.76 481.036 127.839 466.283 113.086L364.261 11.0639C349.507 -3.68913 325.587 -3.68913 310.826 11.0709Z" fill="#42C3E2"/>
<path d="M160.949 160.949L316.398 316.398L166.52 466.276C151.76 481.036 127.839 481.036 113.086 466.283L11.064 364.261C-3.689 349.508 -3.689 325.587 11.071 310.827L160.949 160.949Z" fill="#DC5A64"/>
</g>
<defs>
<clipPath id="clip0">
<rect width="511.999" height="511.999" fill="white"/>
</clipPath>
</defs>
</svg>
