<svg width="512" height="512" viewBox="0 0 512 512" fill="none" xmlns="http://www.w3.org/2000/svg">
<path d="M164.559 491.014C161.122 491.014 157.651 490.021 154.591 487.948L108.761 456.901C100.622 451.386 98.4946 440.319 104.008 432.179C109.522 424.041 120.589 421.913 128.729 427.426L174.559 458.474C182.699 463.988 184.826 475.056 179.312 483.195C175.872 488.276 170.265 491.014 164.559 491.014Z" fill="#A4E6FF"/>
<path d="M399.67 489.943C386.966 439.267 334.926 405.27 334.926 405.27H177.074C177.074 405.27 125.034 439.267 112.33 489.943C109.52 501.154 118.096 512 129.652 512H382.347C393.905 512 402.48 501.154 399.67 489.943Z" fill="#FFBDD7"/>
<path d="M143.235 489.943C155.94 439.267 207.979 405.27 207.979 405.27H177.074C177.074 405.27 125.034 439.267 112.33 489.943C109.52 501.154 118.096 512 129.652 512H160.558C149.001 512 140.425 501.154 143.235 489.943Z" fill="#FF97C0"/>
<path d="M256 429.542C374.615 429.542 470.771 333.386 470.771 214.771C470.771 96.1563 374.615 0 256 0C137.385 0 41.2289 96.1563 41.2289 214.771C41.2289 333.386 137.385 429.542 256 429.542Z" fill="#C7C5CB"/>
<path d="M256 358.978C335.643 358.978 400.207 294.414 400.207 214.771C400.207 135.128 335.643 70.5645 256 70.5645C176.357 70.5645 111.793 135.128 111.793 214.771C111.793 294.414 176.357 358.978 256 358.978Z" fill="#A4E6FF"/>
<path d="M256 307.033C306.955 307.033 348.262 265.726 348.262 214.771C348.262 163.816 306.955 122.509 256 122.509C205.045 122.509 163.738 163.816 163.738 214.771C163.738 265.726 205.045 307.033 256 307.033Z" fill="#5BD6FD"/>
<path d="M213.604 170.419C171.13 107.752 178.703 45.2354 256 45.2354C333.296 45.2354 369.491 92.2405 323.425 140.185C306.151 158.165 297.404 173.148 293.217 184.854L213.604 170.419Z" fill="#ECECEC"/>
<path d="M315.929 201.614L262.206 262.118C270.029 271.78 278.28 287.042 284.658 311.146C301.664 375.422 360.633 368.943 400.821 302.915C441.008 236.887 391.543 197.913 315.929 201.614Z" fill="#ECECEC"/>
<path d="M212.33 195.456C200.009 197.116 182.681 196.229 158.776 189.145C95.027 170.255 69.9029 223.996 105.412 292.653C140.922 361.311 199.93 339.319 236.081 272.803L212.33 195.456Z" fill="#ECECEC"/>
<path d="M166.756 191.34C164.79 198.825 163.738 206.677 163.738 214.771C163.738 252.394 186.376 284.824 218.744 299.168C224.919 291.444 230.75 282.613 236.081 272.805L212.33 195.456C201.426 196.925 186.592 196.39 166.756 191.34Z" fill="#DEDEDC"/>
<path d="M315.929 201.614L262.206 262.117C269.129 270.668 276.384 283.616 282.382 303.183C320.44 291.806 348.262 256.479 348.262 214.771C348.262 210.686 347.992 206.665 347.475 202.719C337.662 201.457 327.084 201.068 315.929 201.614Z" fill="#DEDEDC"/>
<path d="M317.776 146.303C301.409 131.522 279.738 122.508 256.001 122.508C234.121 122.508 214.001 130.168 198.168 142.941C202.19 151.965 207.35 161.189 213.605 170.417L293.219 184.852C296.92 174.503 304.199 161.585 317.776 146.303Z" fill="#DEDEDC"/>
<path d="M256 276.127C289.886 276.127 317.357 248.657 317.357 214.771C317.357 180.884 289.886 153.414 256 153.414C222.114 153.414 194.643 180.884 194.643 214.771C194.643 248.657 222.114 276.127 256 276.127Z" fill="#FFBDD7"/>
<path d="M256 238.193C268.936 238.193 279.422 227.707 279.422 214.771C279.422 201.835 268.936 191.349 256 191.349C243.064 191.349 232.578 201.835 232.578 214.771C232.578 227.707 243.064 238.193 256 238.193Z" fill="#A4E6FF"/>
</svg>
