<svg width="512" height="512" viewBox="0 0 512 512" fill="none" xmlns="http://www.w3.org/2000/svg">
<g clip-path="url(#clip0_298_27)">
<path d="M209.206 308.656C197.023 293.236 174.647 290.612 159.228 302.794L21.3574 411.72C18.0824 414.34 14.8126 417.544 12.1022 420.976C-7.13537 445.325 -2.99198 480.659 21.3574 499.898C45.7067 519.135 81.0409 514.992 100.28 490.642L209.206 352.771C219.192 340.136 219.626 321.844 209.206 308.656V308.656ZM76.3557 467.338C67.6084 476.085 53.4249 476.085 44.6776 467.338C35.9303 458.591 35.9303 444.407 44.6776 435.66C53.4249 426.913 67.6084 426.913 76.3557 435.66C85.104 444.408 85.104 458.591 76.3557 467.338Z" fill="#FFBDD7"/>
<path d="M159.227 302.794L89.7012 357.725C98.2939 370.214 108.08 382.018 119.03 392.969C129.981 403.92 141.784 413.706 154.275 422.298L209.205 352.772C219.192 340.136 219.626 321.844 209.205 308.656C197.022 293.236 174.647 290.612 159.227 302.794V302.794Z" fill="#FF97C0"/>
<path d="M294.606 434.788C414.669 434.788 512 337.457 512 217.394C512 97.3306 414.669 0 294.606 0C174.543 0 77.2119 97.3306 77.2119 217.394C77.2119 337.457 174.543 434.788 294.606 434.788Z" fill="#6A647F"/>
<path d="M439.483 163.568L439.401 163.497C430.178 155.439 424.417 144.135 423.319 131.937L423.308 131.807C421.245 108.904 403.096 90.7541 380.193 88.6916L380.062 88.6803C367.863 87.5821 356.559 81.8214 348.501 72.5981L348.43 72.5178C333.292 55.1891 307.921 51.1786 288.176 62.9927L288.112 63.0309C277.577 69.3335 265.014 71.3207 253.049 68.5763L253.042 68.5743C230.585 63.4223 207.664 75.1035 198.636 96.3005C193.82 107.607 184.816 116.611 173.511 121.427H173.509C152.312 130.456 140.631 153.377 145.783 175.833L145.785 175.84C148.531 187.805 146.543 200.368 140.241 210.903L140.203 210.967C128.389 230.712 132.399 256.083 149.728 271.22L149.809 271.291C159.032 279.349 164.793 290.653 165.891 302.852L165.903 302.982C167.965 325.885 186.115 344.034 209.018 346.097L209.149 346.108C221.347 347.206 232.651 352.967 240.709 362.191L240.78 362.272C255.919 379.6 281.289 383.611 301.035 371.797L301.098 371.759C311.633 365.456 324.196 363.469 336.162 366.213L336.169 366.215C358.626 371.367 381.546 359.686 390.575 338.489C395.391 327.183 404.395 318.179 415.7 313.363H415.701C436.898 304.334 448.579 281.413 443.427 258.956L443.425 258.949C440.68 246.983 442.667 234.42 448.97 223.885L449.008 223.822C460.822 204.077 456.811 178.707 439.483 163.568V163.568Z" fill="#ECECEC"/>
<path d="M294.606 317.701C350.004 317.701 394.913 272.792 394.913 217.394C394.913 161.995 350.004 117.086 294.606 117.086C239.207 117.086 194.298 161.995 194.298 217.394C194.298 272.792 239.207 317.701 294.606 317.701Z" fill="#F9D888"/>
<path d="M244.281 267.718C208.608 232.045 205.435 176.196 234.733 136.917C230.879 139.791 227.178 142.965 223.677 146.465C184.505 185.637 184.505 249.149 223.677 288.322C262.85 327.494 326.362 327.494 365.534 288.322C369.035 284.822 372.208 281.12 375.082 277.266C335.802 306.564 279.953 303.391 244.281 267.718V267.718Z" fill="#FFBE73"/>
</g>
<defs>
<clipPath id="clip0_298_27">
<rect width="512" height="512" fill="white"/>
</clipPath>
</defs>
</svg>
