<svg width="512" height="512" viewBox="0 0 512 512" fill="none" xmlns="http://www.w3.org/2000/svg">
<g clip-path="url(#clip0_293_341)">
<path d="M381.43 298.004H264.891V237.488C264.891 216.844 281.625 200.109 302.266 200.109H344.051C364.695 200.109 381.43 216.844 381.43 237.488V298.004Z" fill="#FF938A"/>
<path d="M344.051 200.109H302.266C281.625 200.109 264.891 216.844 264.891 237.488V298.004H311.641V237.488C311.641 207.719 344.051 200.109 344.051 200.109V200.109Z" fill="#FB695B"/>
<path d="M142.75 139.531H212.031V290.145H142.75V139.531Z" fill="#546370"/>
<path d="M142.75 229.27C174.039 228.355 196.352 221.82 212.031 213.934V139.531H142.75V229.27Z" fill="#3D4751"/>
<path d="M256 107.609C256 151.023 220.805 186.219 177.391 186.219C133.977 186.219 98.7812 151.023 98.7812 107.609C98.7812 64.1953 133.977 29 177.391 29C220.805 29 256 64.1953 256 107.609Z" fill="#FF938A"/>
<path d="M221.359 149.566C177.945 149.566 142.75 114.371 142.75 70.957C142.75 57.2109 146.305 44.2617 152.504 33.0195C121.297 43.4375 98.7812 72.9023 98.7812 107.609C98.7812 151.027 133.977 186.223 177.391 186.223C207.059 186.223 232.895 169.773 246.277 145.512C238.449 148.125 230.066 149.566 221.359 149.566Z" fill="#FB695B"/>
<path d="M498.609 350.531C494.059 342.914 488.422 335.902 481.797 329.746L440.258 291.121C419.832 272.125 392.973 261.566 365.078 261.566H146.922C119.027 261.566 92.168 272.125 71.7422 291.121L30.2031 329.746C23.5781 335.902 17.9414 342.914 13.3945 350.531H498.609Z" fill="#8697A6"/>
<path d="M159.844 350.531C201.188 316.855 212.031 261.566 212.031 261.566H146.922C119.027 261.566 92.168 272.125 71.7422 291.121L30.2031 329.746C23.5781 335.902 17.9414 342.914 13.3945 350.531H159.844Z" fill="#6B7D8E"/>
<path d="M0 399.066V428.395C0 458.633 24.5117 483.145 54.75 483.145H457.25C487.488 483.145 512 458.633 512 428.395V399.066C512 377.566 504.687 356.859 491.492 340.23H20.5117C7.31641 356.859 0 377.566 0 399.066H0Z" fill="#76E7E7"/>
<path d="M20.5117 340.23C7.31641 356.859 0 377.566 0 399.066V428.395C0 458.633 24.5117 483.145 54.75 483.145H125.629C122.555 475.824 120.312 467.098 118.699 457.793C111.715 417.539 127.266 376.664 159.141 351.102C163.402 347.684 167.34 344.031 170.988 340.23H20.5117Z" fill="#2EDDDA"/>
</g>
<defs>
<clipPath id="clip0_293_341">
<rect width="512" height="512" fill="white"/>
</clipPath>
</defs>
</svg>
