<svg width="512" height="511" viewBox="0 0 512 511" fill="none" xmlns="http://www.w3.org/2000/svg">
<path d="M107.144 504.209C93.6052 504.209 81.5114 494.669 78.8044 480.907L28.3551 224.474C25.2808 208.837 35.4879 193.667 51.1598 190.599C66.8395 187.527 82.0271 197.718 85.1013 213.356L135.551 469.784C138.625 485.425 128.418 500.591 112.746 503.663C110.867 504.029 108.992 504.209 107.144 504.209Z" fill="#495059"/>
<path d="M56.7498 247.777C48.1131 247.777 39.5701 243.929 33.8709 236.588C24.0935 223.992 26.3982 205.863 39.0232 196.105L246.02 36.07C258.645 26.3117 276.805 28.6119 286.586 41.2123C296.364 53.8126 294.059 71.9374 281.434 81.6995L74.4374 241.73C69.1678 245.804 62.9334 247.777 56.7498 247.777V247.777Z" fill="#495059"/>
<path d="M456.11 150.428C456.11 178.599 433.223 201.437 404.996 201.437C376.77 201.437 353.887 178.599 353.887 150.428C353.887 122.256 376.77 99.418 404.996 99.418C433.223 99.418 456.11 122.256 456.11 150.428Z" fill="#F2D073"/>
<path d="M302.055 16.2139C278.929 0.0540388 247.062 5.66417 230.871 28.744C214.679 51.82 220.3 83.6289 243.422 99.7848L278.937 124.607L337.57 41.0325L302.055 16.2139Z" fill="#7E9BDE"/>
<path d="M278.937 124.607L309.961 80.3887C278.566 77.8507 242.097 53.2855 233.789 24.9775C232.769 26.1783 231.793 27.4298 230.871 28.7436C214.679 51.8196 220.3 83.6285 243.422 99.7844L278.937 124.607Z" fill="#5A7CCC"/>
<path d="M305.004 18.2842L317.293 26.869L258.66 110.444L246.371 101.859L305.004 18.2842Z" fill="#AAD7EF"/>
<path d="M466.673 62.5184L343.322 238.343C337.486 246.662 325.365 247.29 318.697 239.617L280.47 195.637C263.767 176.421 262.306 148.319 276.927 127.477L339.583 38.1636C354.208 17.3216 381.162 9.08376 404.974 18.1754L459.455 38.9862C468.959 42.6159 472.513 54.1948 466.673 62.5184Z" fill="#97D1C2"/>
<path d="M107.953 218.916C107.953 247.15 85.0197 270.038 56.7306 270.038C28.4414 270.038 5.50781 247.15 5.50781 218.916C5.50781 190.682 28.4414 167.793 56.7306 167.793C85.0197 167.793 107.953 190.682 107.953 218.916V218.916Z" fill="#97D1C2"/>
<path d="M70.1993 255.067C42.7579 255.067 20.5117 232.86 20.5117 205.473C20.5117 193.738 24.6055 182.962 31.4297 174.471C15.9531 183.266 5.50781 199.87 5.50781 218.915C5.50781 247.149 28.4415 270.038 56.7306 270.038C75.8126 270.038 92.4494 259.613 101.262 244.166C92.7541 250.981 81.9572 255.067 70.1993 255.067V255.067Z" fill="#73C9BA"/>
<path d="M79.6798 218.915C79.6798 231.566 69.4063 241.82 56.7305 241.82C44.0547 241.82 33.7812 231.566 33.7812 218.915C33.7812 206.264 44.0547 196.011 56.7305 196.011C69.4063 196.011 79.6798 206.264 79.6798 218.915Z" fill="#495059"/>
<path d="M171.286 446.751H43.0707C29.7504 446.751 17.4535 453.874 10.848 465.418L2.06676 480.774C-3.83951 491.098 3.62926 503.94 15.5394 503.94H198.817C210.727 503.94 218.196 491.102 212.29 480.774L203.505 465.422C196.899 453.874 184.602 446.751 171.286 446.751Z" fill="#97D1C2"/>
<path d="M291.906 106.124L276.926 127.477C262.301 148.319 263.762 176.416 280.469 195.637L318.696 239.613C325.364 247.289 337.485 246.662 343.321 238.338L392.243 168.611C343.95 176.412 305.535 132.576 291.906 106.124V106.124Z" fill="#73C9BA"/>
<path d="M85.6958 446.751H43.0707C29.7504 446.751 17.4535 453.874 10.848 465.418L2.06676 480.774C-3.83951 491.098 3.62926 503.94 15.5394 503.94H103.27C80.0083 490.751 71.7505 461.827 85.6958 446.751Z" fill="#73C9BA"/>
<path d="M422.649 257.224C419.075 257.224 415.911 254.666 415.27 251.037L411.235 228.187C410.513 224.117 413.239 220.234 417.317 219.512C421.395 218.799 425.286 221.512 426.005 225.586L430.04 248.436C430.763 252.506 428.036 256.389 423.958 257.107C423.52 257.185 423.079 257.224 422.649 257.224Z" fill="#F2D073"/>
<path d="M487.837 215.672C486.353 215.672 484.853 215.236 483.54 214.319L464.497 201.009C461.103 198.639 460.278 193.972 462.653 190.585C465.032 187.201 469.708 186.374 473.099 188.748L492.146 202.054C495.536 204.429 496.364 209.095 493.985 212.479C492.528 214.561 490.2 215.672 487.837 215.672V215.672Z" fill="#F2D073"/>
<path d="M481.595 144.319C478.024 144.319 474.86 141.762 474.22 138.132C473.497 134.062 476.224 130.179 480.302 129.462L503.196 125.434C507.27 124.713 511.165 127.434 511.884 131.504C512.606 135.575 509.88 139.458 505.802 140.175L482.907 144.206C482.466 144.284 482.028 144.319 481.595 144.319Z" fill="#F2D073"/>
</svg>
