<svg width="511" height="511" viewBox="0 0 511 511" fill="none" xmlns="http://www.w3.org/2000/svg">
<path d="M106.935 504.209C93.422 504.209 81.3518 494.669 78.6501 480.907L28.2993 224.474C25.2311 208.837 35.4182 193.667 51.0595 190.599C66.7086 187.527 81.8665 197.718 84.9347 213.356L135.285 469.784C138.354 485.425 128.167 500.591 112.525 503.663C110.65 504.029 108.779 504.209 106.935 504.209Z" fill="#495059"/>
<path d="M56.6386 247.777C48.0188 247.777 39.4925 243.929 33.8044 236.588C24.0461 223.992 26.3463 205.863 38.9466 196.105L245.539 36.07C258.139 26.3117 276.264 28.6119 286.026 41.2123C295.784 53.8126 293.484 71.9374 280.884 81.6995L74.2916 241.73C69.0324 245.804 62.8102 247.777 56.6386 247.777Z" fill="#495059"/>
<path d="M455.219 150.428C455.219 178.599 432.376 201.437 404.205 201.437C376.033 201.437 353.195 178.599 353.195 150.428C353.195 122.256 376.033 99.418 404.205 99.418C432.376 99.418 455.219 122.256 455.219 150.428Z" fill="#F2D073"/>
<path d="M301.466 16.2139C278.386 0.054039 246.581 5.66417 230.421 28.744C214.261 51.82 219.871 83.6289 242.947 99.7849L278.394 124.607L336.912 41.0325L301.466 16.2139Z" fill="#7E9BDE"/>
<path d="M278.394 124.607L309.357 80.3887C278.023 77.8507 241.626 53.2855 233.333 24.9775C232.316 26.1783 231.341 27.4298 230.421 28.7436C214.261 51.8196 219.871 83.6285 242.947 99.7844L278.394 124.607Z" fill="#5A7CCC"/>
<path d="M304.409 18.2842L316.674 26.869L258.156 110.444L245.891 101.859L304.409 18.2842Z" fill="#AAD7EF"/>
<path d="M465.762 62.5184L342.651 238.343C336.826 246.662 324.729 247.29 318.074 239.617L279.922 195.637C263.251 176.421 261.793 148.319 276.386 127.477L338.92 38.1636C353.516 17.3216 380.417 9.08376 404.183 18.1754L458.557 38.9862C468.042 42.6159 471.59 54.1948 465.762 62.5184Z" fill="#97D1C2"/>
<path d="M107.742 218.916C107.742 247.15 84.8527 270.038 56.6188 270.038C28.3849 270.038 5.49609 247.15 5.49609 218.916C5.49609 190.682 28.3849 167.793 56.6188 167.793C84.8527 167.793 107.742 190.682 107.742 218.916Z" fill="#97D1C2"/>
<path d="M70.0613 255.067C42.6734 255.067 20.4707 232.86 20.4707 205.473C20.4707 193.738 24.5565 182.962 31.3674 174.471C15.921 183.266 5.49609 199.87 5.49609 218.915C5.49609 247.149 28.3849 270.038 56.6188 270.038C75.6636 270.038 92.2679 259.613 101.063 244.166C92.572 250.981 81.7962 255.067 70.0613 255.067Z" fill="#73C9BA"/>
<path d="M79.5237 218.915C79.5237 231.566 69.2703 241.82 56.6193 241.82C43.9682 241.82 33.7148 231.566 33.7148 218.915C33.7148 206.264 43.9682 196.011 56.6193 196.011C69.2703 196.011 79.5237 206.264 79.5237 218.915Z" fill="#495059"/>
<path d="M170.951 446.751H42.9866C29.6923 446.751 17.4194 453.874 10.8268 465.418L2.06272 480.774C-3.832 491.098 3.62217 503.94 15.5091 503.94H198.429C210.316 503.94 217.77 491.102 211.875 480.774L203.107 465.422C196.515 453.874 184.242 446.751 170.951 446.751Z" fill="#97D1C2"/>
<path d="M291.336 106.124L276.385 127.477C261.788 148.319 263.246 176.416 279.921 195.637L318.073 239.613C324.728 247.289 336.825 246.662 342.65 238.338L391.476 168.611C343.278 176.412 304.938 132.576 291.336 106.124Z" fill="#73C9BA"/>
<path d="M85.5285 446.751H42.9866C29.6923 446.751 17.4194 453.874 10.8268 465.418L2.06272 480.774C-3.832 491.098 3.62217 503.94 15.5091 503.94H103.068C79.8521 490.751 71.6104 461.827 85.5285 446.751Z" fill="#73C9BA"/>
<path d="M421.824 257.224C418.257 257.224 415.099 254.666 414.46 251.037L410.432 228.187C409.711 224.117 412.432 220.234 416.502 219.512C420.573 218.799 424.456 221.512 425.173 225.586L429.2 248.436C429.922 252.506 427.2 256.389 423.13 257.107C422.693 257.185 422.253 257.224 421.824 257.224Z" fill="#F2D073"/>
<path d="M486.885 215.672C485.403 215.672 483.906 215.236 482.596 214.319L463.59 201.009C460.202 198.639 459.38 193.972 461.75 190.585C464.125 187.201 468.791 186.374 472.175 188.748L491.185 202.054C494.569 204.429 495.395 209.095 493.021 212.479C491.567 214.561 489.243 215.672 486.885 215.672Z" fill="#F2D073"/>
<path d="M480.654 144.319C477.091 144.319 473.933 141.762 473.294 138.132C472.572 134.062 475.294 130.179 479.364 129.462L502.214 125.434C506.28 124.713 510.167 127.434 510.884 131.504C511.605 135.575 508.884 139.458 504.814 140.175L481.964 144.206C481.524 144.284 481.087 144.319 480.654 144.319Z" fill="#F2D073"/>
</svg>
