<svg width="512" height="512" viewBox="0 0 512 512" fill="none" xmlns="http://www.w3.org/2000/svg">
<g clip-path="url(#clip0)">
<path d="M23.4375 420.41V101.891C23.4375 73.4428 46.4985 50.3818 74.9465 50.3818H432.419C460.867 50.3818 483.928 73.4428 483.928 101.891V420.41H23.4375Z" fill="#988FC4"/>
<path d="M116.154 50.3818H74.9465C46.4985 50.3818 23.4375 73.4428 23.4375 101.891V420.41H64.6445V101.891C64.6445 73.4438 87.7055 50.3818 116.154 50.3818Z" fill="#897BAD"/>
<path d="M64.6445 310.2V100.855C64.6445 95.7379 68.7925 91.5898 73.9095 91.5898H433.455C438.572 91.5898 442.72 95.7379 442.72 100.855V310.2H64.6445Z" fill="#E3FBFF"/>
<path d="M115.117 91.5889H73.9095C68.7925 91.5889 64.6445 95.7369 64.6445 100.854V310.2H105.852V100.855C105.851 95.7379 110 91.5889 115.117 91.5889Z" fill="#B5EFFF"/>
<path d="M312.586 91.5889L442.72 293.959V203.435L370.798 91.5889H312.586Z" fill="white"/>
<path d="M392.458 309.091H430.22L290.355 91.5889H252.594L392.458 309.091Z" fill="white"/>
<path d="M433.455 337.996H73.9095C68.7925 337.996 64.6445 333.848 64.6445 328.731V282.404H442.72V328.731C442.72 333.848 438.572 337.996 433.455 337.996Z" fill="#897BAD"/>
<path d="M105.852 328.731V282.404H64.6445V328.731C64.6445 333.848 68.7925 337.997 73.9095 337.997H115.117C110.001 337.996 105.852 333.848 105.852 328.731Z" fill="#806E9C"/>
<path d="M491.396 461.618H20.604C9.225 461.618 0 452.393 0 441.014V399.807C0 388.428 9.225 379.203 20.604 379.203H491.397C502.776 379.203 512.001 388.428 512.001 399.807V441.014C512 452.393 502.775 461.618 491.396 461.618Z" fill="#897BAD"/>
<path d="M41.207 441.014V399.807C41.207 388.428 50.432 379.203 61.811 379.203H20.604C9.225 379.203 0 388.428 0 399.807V441.014C0 452.393 9.225 461.618 20.604 461.618H61.811C50.432 461.618 41.207 452.393 41.207 441.014Z" fill="#806E9C"/>
<path d="M343.168 427.911H168.83C164.687 427.911 161.33 424.553 161.33 420.411C161.33 416.269 164.687 412.911 168.83 412.911H343.168C347.311 412.911 350.668 416.269 350.668 420.411C350.668 424.553 347.311 427.911 343.168 427.911Z" fill="#806E9C"/>
</g>
<defs>
<clipPath id="clip0">
<rect width="512" height="512" fill="white"/>
</clipPath>
</defs>
</svg>
