<svg width="512" height="512" viewBox="0 0 512 512" fill="none" xmlns="http://www.w3.org/2000/svg">
<g clip-path="url(#clip0)">
<path d="M318.076 357.844H256H193.924C193.924 400.391 178.22 441.441 149.823 473.125L142.68 481.095H369.32L362.177 473.125C333.78 441.441 318.076 400.391 318.076 357.844Z" fill="#897BAD"/>
<path d="M235.131 357.844H193.924C193.924 400.391 178.22 441.441 149.823 473.125L142.68 481.095H183.887L191.03 473.125C219.428 441.441 235.131 400.391 235.131 357.844Z" fill="#806E9C"/>
<path d="M256 357.844H193.924C193.924 379.461 189.863 400.688 182.15 420.499H329.85C322.138 400.687 318.076 379.46 318.076 357.844H256Z" fill="#806E9C"/>
<path d="M460.491 379.292H51.509C23.061 379.292 0 356.23 0 327.783V51.509C0 23.061 23.061 0 51.509 0H460.491C488.939 0 512 23.061 512 51.509V327.783C512 356.23 488.939 379.292 460.491 379.292Z" fill="#988FC4"/>
<path d="M41.207 327.783V51.509C41.207 23.061 64.269 0 92.716 0H51.509C23.061 0 0 23.061 0 51.509V327.783C0 356.231 23.061 379.292 51.509 379.292H92.716C64.269 379.292 41.207 356.23 41.207 327.783Z" fill="#897BAD"/>
<path d="M41.207 307.179V51.509C41.207 45.819 45.819 41.207 51.509 41.207H460.491C466.181 41.207 470.793 45.819 470.793 51.509V307.179H41.207Z" fill="#E3FBFF"/>
<path d="M92.716 41.207H51.509C45.819 41.207 41.207 45.819 41.207 51.509V307.179H82.414V51.509C82.414 45.819 87.027 41.207 92.716 41.207Z" fill="#B5EFFF"/>
<path d="M470.793 188.472L376.094 41.207H311.371L470.793 289.122V188.472Z" fill="white"/>
<path d="M456.894 305.946L286.654 41.207H244.668L414.909 305.946H456.894Z" fill="white"/>
<path d="M364.856 512H147.144C135.765 512 126.54 502.775 126.54 491.396C126.54 480.017 135.765 470.792 147.144 470.792H364.856C376.235 470.792 385.46 480.017 385.46 491.396C385.459 502.775 376.235 512 364.856 512Z" fill="#988FC4"/>
<path d="M167.748 491.396C167.748 480.017 176.973 470.792 188.352 470.792H147.145C135.766 470.792 126.541 480.017 126.541 491.396C126.541 502.775 135.766 512 147.145 512H188.352C176.972 512 167.748 502.775 167.748 491.396Z" fill="#897BAD"/>
<path d="M460.491 338.085H51.509C45.819 338.085 41.207 333.473 41.207 327.783V276.274H470.793V327.783C470.793 333.472 466.18 338.085 460.491 338.085Z" fill="#897BAD"/>
<path d="M82.414 327.783V276.274H41.207V327.783C41.207 333.473 45.819 338.085 51.509 338.085H92.716C87.027 338.085 82.414 333.472 82.414 327.783Z" fill="#806E9C"/>
</g>
<defs>
<clipPath id="clip0">
<rect width="512" height="512" fill="white"/>
</clipPath>
</defs>
</svg>
