<svg width="512" height="512" viewBox="0 0 512 512" fill="none" xmlns="http://www.w3.org/2000/svg">
<g clip-path="url(#clip0)">
<path d="M322.645 416.638C322.645 469.305 266.218 512 196.612 512C127.005 512 70.5781 469.305 70.5781 416.638L70.5781 154.594L322.644 154.594L322.644 416.638H322.645Z" fill="#CEEAFB"/>
<path d="M322.395 422.568C248.099 446.553 153.917 451.926 74.1152 439.132C87.4782 480.942 137.247 512 196.612 512C263.585 512 318.347 472.472 322.395 422.568Z" fill="#A3DEFE"/>
<path d="M322.645 154.595V249.957L196.612 249.957C266.218 249.957 322.645 207.262 322.645 154.595Z" fill="#7ACEFA"/>
<path d="M322.645 154.595C322.645 101.928 266.218 59.233 196.612 59.233C127.006 59.233 70.5791 101.928 70.5791 154.595C70.5791 207.262 127.006 249.957 196.612 249.957C266.218 249.957 322.645 207.262 322.645 154.595Z" fill="#A3DEFE"/>
<path d="M157.826 154.595L157.826 38.7859C157.826 17.3649 175.191 -0.000152588 196.612 -0.000152588C218.033 -0.000152588 235.398 17.3649 235.398 38.7859L235.398 154.595C235.398 176.016 218.033 193.381 196.612 193.381C175.191 193.381 157.826 176.016 157.826 154.595Z" fill="#F7EF87"/>
<path d="M428.441 467.207L425.008 460.419C420.578 451.661 420.578 441.318 425.008 432.56L432.788 417.177C444.299 394.417 444.299 367.54 432.788 344.78L425.008 329.397C420.578 320.639 420.578 310.296 425.008 301.538L428.441 294.75C438.824 274.221 423.905 249.957 400.899 249.957L196.612 249.957L196.612 512H400.9C423.905 512 438.824 487.736 428.441 467.207Z" fill="#CEEAFB"/>
<path d="M400.9 512C423.906 512 438.825 487.736 428.442 467.207L425.009 460.419C420.579 451.661 420.579 441.318 425.009 432.56L432.789 417.177C443.6 395.8 444.256 370.791 434.758 348.973C396.636 407.28 298.215 438.996 196.612 444.868V512H400.9Z" fill="#A3DEFE"/>
<path d="M309.424 365.033V396.924C309.424 401.067 306.066 404.424 301.924 404.424C297.782 404.424 294.424 401.067 294.424 396.924V365.033C294.424 360.89 297.782 357.533 301.924 357.533C306.066 357.533 309.424 360.891 309.424 365.033Z" fill="#A3DEFE"/>
<path d="M309.424 290.537V322.427C309.424 326.57 306.066 329.927 301.924 329.927C297.782 329.927 294.424 326.57 294.424 322.427V290.537C294.424 286.394 297.782 283.037 301.924 283.037C306.066 283.037 309.424 286.395 309.424 290.537Z" fill="#A3DEFE"/>
<path d="M309.424 439.529V471.42C309.424 475.563 306.066 478.92 301.924 478.92C297.782 478.92 294.424 475.563 294.424 471.42V439.529C294.424 435.386 297.782 432.029 301.924 432.029C306.066 432.029 309.424 435.387 309.424 439.529Z" fill="#CEEAFB"/>
</g>
<defs>
<clipPath id="clip0">
<rect width="512" height="512" fill="white" transform="translate(0 512) rotate(-90)"/>
</clipPath>
</defs>
</svg>
