<svg width="512" height="512" viewBox="0 0 512 512" fill="none" xmlns="http://www.w3.org/2000/svg">
<g clip-path="url(#clip0_297_79)">
<path d="M167.988 456.066L396.867 227.184L284.816 115.129L55.9336 344.012C46.5938 353.352 39.5703 364.742 35.4141 377.277L1.26172 480.316C-4.96484 499.109 12.8906 516.965 31.6836 510.738L134.723 476.586C147.258 472.43 158.648 465.402 167.988 456.066V456.066Z" fill="#F6E06A"/>
<path d="M134.723 476.586L31.6836 510.738C23.6953 513.383 15.8867 511.668 10.0156 507.391C129.34 450.578 264.641 317.469 363.562 193.875L396.867 227.184L167.988 456.066C158.648 465.402 147.258 472.43 134.723 476.586V476.586Z" fill="#EBD15E"/>
<path d="M396.871 227.184L456.133 167.918L344.082 55.8672L284.816 115.133L396.871 227.184Z" fill="#61AE85"/>
<path d="M414.656 126.441L456.133 167.918L396.867 227.184L363.562 193.875C381.965 170.883 399.109 148.223 414.656 126.441Z" fill="#5A9E79"/>
<path d="M456.133 167.918L498.664 125.391C516.445 107.605 516.445 78.7773 498.664 60.9922L451.008 13.3359C433.223 -4.44531 404.391 -4.44531 386.609 13.3359L344.082 55.8672L456.133 167.918Z" fill="#F1A18F"/>
<path d="M456.133 167.918L498.664 125.391C516.445 107.605 516.445 78.7773 498.664 60.9922L451.008 13.3359C433.223 -4.44531 404.391 -4.44531 386.609 13.3359L344.082 55.8672L456.133 167.918Z" fill="#EB8D9A"/>
<path d="M1.26172 480.316L35.4141 377.277C38.3672 368.371 42.7969 360.055 48.4453 352.629H61.1367C68.9727 352.629 75.3281 358.984 75.3281 366.824V380.461C75.3281 388.297 81.6797 394.652 89.5195 394.652H103.156C110.992 394.652 117.348 401.004 117.348 408.844V422.48C117.348 430.32 123.703 436.672 131.539 436.672H145.176C153.016 436.672 159.367 443.027 159.367 450.863V463.551C151.941 469.203 143.629 473.633 134.723 476.586L31.6836 510.738C12.8906 516.965 -4.96484 499.109 1.26172 480.316V480.316Z" fill="#DDAF89"/>
<path d="M134.723 476.586L31.6836 510.738C23.6953 513.383 15.8867 511.668 10.0156 507.391C47.1445 489.715 85.8242 464.645 124.473 434.777C126.555 435.977 128.965 436.672 131.539 436.672H145.176C153.016 436.672 159.367 443.027 159.367 450.863V463.551C151.941 469.203 143.629 473.633 134.723 476.586V476.586Z" fill="#C79E7B"/>
<path d="M1.26172 480.316L14.7773 439.535C27.1016 446.176 37.8398 454.453 47.6914 464.305C57.5469 474.16 65.8203 484.898 72.4609 497.219L31.6836 510.734C12.8906 516.965 -4.96484 499.109 1.26172 480.316V480.316Z" fill="#495059"/>
<path d="M320.316 80.7578L309.711 91.3633L420.633 202.285L431.238 191.68L320.316 80.7578Z" fill="#5A9E79"/>
<path d="M10.0156 507.391C26.6992 499.449 43.6992 490.004 60.8672 479.312C65.1602 484.926 69.0352 490.859 72.4609 497.219L31.6836 510.734C23.6953 513.383 15.8867 511.668 10.0156 507.391Z" fill="#41464F"/>
<path d="M473.141 35.4688L498.664 60.9922C516.445 78.7734 516.445 107.605 498.664 125.387L456.133 167.918L414.656 126.441C438.203 93.4531 458.086 62.4922 473.141 35.4688Z" fill="#DB818D"/>
</g>
<defs>
<clipPath id="clip0_297_79">
<rect width="512" height="512" fill="white" transform="matrix(-1 0 0 1 512 0)"/>
</clipPath>
</defs>
</svg>
