<svg width="512" height="512" viewBox="0 0 512 512" fill="none" xmlns="http://www.w3.org/2000/svg">
<g clip-path="url(#clip0_240_1148)">
<path d="M26.5572 216.9C12.0646 216.9 0.316406 228.649 0.316406 243.141V268.859C0.316406 283.351 12.0646 295.099 26.5572 295.099H68.0127V216.899H26.5572V216.9Z" fill="#5BD6FD"/>
<path d="M485.444 216.9C499.936 216.9 511.685 228.649 511.685 243.141V268.859C511.685 283.351 499.936 295.099 485.444 295.099H443.988V216.899H485.444V216.9Z" fill="#A4E6FF"/>
<path d="M433.109 0H333.823C320.264 0 306.904 3.3007 294.911 9.62807C282.739 16.0399 269.37 19.2458 255.999 19.2458L219.486 256L256 492.744C269.37 492.744 282.74 495.96 294.912 502.372C300.904 505.525 307.252 507.943 313.779 509.551C320.316 511.17 327.043 512 333.823 512H433.109C454.393 512 471.642 494.741 471.642 473.467V38.5329C471.642 17.2483 454.393 0 433.109 0V0Z" fill="#5BD6FD"/>
<path d="M256.001 19.2458V492.744C242.631 492.744 229.261 495.96 217.089 502.372C205.096 508.689 191.736 512 178.177 512H78.8923C57.6077 512 40.3594 494.741 40.3594 473.467V38.5329C40.3594 17.2483 57.6077 0 78.8923 0H178.178C184.958 0 191.685 0.830326 198.222 2.43844C204.749 4.05685 211.098 6.46439 217.089 9.62807C229.261 16.0399 242.631 19.2458 256.001 19.2458V19.2458Z" fill="#A4E6FF"/>
<path d="M158.572 87.2653C151.223 79.9572 139.33 79.9572 131.982 87.2653C115.487 103.671 92.1941 137.712 115.305 185.517L145.277 213.005L175.249 185.517C198.359 137.711 175.067 103.67 158.572 87.2653V87.2653Z" fill="#5C586F"/>
<path d="M115.305 185.517H175.248V288.585H115.305V185.517Z" fill="#FF97C0"/>
<path d="M115.305 233.356H175.248V288.584H115.305V233.356Z" fill="#FF71A7"/>
<path d="M389.027 137.148L366.724 118.559L344.42 137.148L336.756 185.515L366.724 213.011L396.692 185.515L389.027 137.148Z" fill="#F9F097"/>
<path d="M336.754 185.517H396.697V288.585H336.754V185.517Z" fill="#FF97C0"/>
<path d="M336.754 233.356H396.697V288.584H336.754V233.356Z" fill="#FF71A7"/>
<path d="M183.581 264.263H106.972C100.658 264.263 95.5391 269.382 95.5391 275.696V387.792C95.5391 415.26 117.807 437.529 145.276 437.529C172.745 437.529 195.013 415.26 195.013 387.792V275.696C195.014 269.381 189.896 264.263 183.581 264.263Z" fill="#5BD6FD"/>
<path d="M328.42 264.263H405.03C411.344 264.263 416.463 269.382 416.463 275.696V387.792C416.463 415.26 394.194 437.529 366.725 437.529C339.257 437.529 316.988 415.26 316.988 387.792V275.696C316.987 269.381 322.105 264.263 328.42 264.263Z" fill="#A4E6FF"/>
<path d="M389.027 137.148H344.42L347.737 116.173C349.221 106.84 357.266 99.9688 366.723 99.9688C371.452 99.9688 375.83 101.689 379.209 104.574C382.588 107.458 384.968 111.507 385.71 116.173L389.027 137.148Z" fill="#5C586F"/>
</g>
<defs>
<clipPath id="clip0_240_1148">
<rect width="512" height="512" fill="white"/>
</clipPath>
</defs>
</svg>
