<svg width="512" height="512" viewBox="0 0 512 512" fill="none" xmlns="http://www.w3.org/2000/svg">
<path d="M476.785 381.069C490.557 324.786 490.557 265.999 476.785 209.715C475.731 205.406 477.371 200.834 481.018 198.307C484.316 196.022 487.463 193.44 490.382 190.521C501.076 179.827 507.274 166.106 510.83 152.959C517.419 128.601 495.095 106.277 470.738 112.867C457.591 116.423 443.87 122.621 433.176 133.315C429.127 137.364 425.731 141.849 422.876 146.571C420.558 150.406 416.055 152.316 411.646 151.515C308.726 132.806 203.273 132.806 100.354 151.515C95.9448 152.316 91.4428 150.406 89.1238 146.571C86.2688 141.848 82.8728 137.363 78.8238 133.315C68.1298 122.621 54.4078 116.423 41.2618 112.867C16.9038 106.278 -5.42019 128.602 1.16981 152.96C4.72581 166.107 10.9248 179.828 21.6188 190.522C24.5378 193.442 27.6848 196.023 30.9828 198.308C34.6298 200.834 36.2708 205.406 35.2158 209.716C21.4438 265.999 21.4438 324.786 35.2158 381.07C36.2698 385.379 34.6298 389.951 30.9828 392.478C27.6848 394.763 24.5378 397.345 21.6188 400.264C10.9238 410.957 4.72581 424.678 1.16981 437.825C-5.41919 462.183 16.9048 484.507 41.2618 477.917C54.4088 474.361 68.1298 468.163 78.8238 457.469C82.8728 453.42 86.2688 448.935 89.1238 444.213C91.4418 440.378 95.9448 438.468 100.354 439.269C203.274 457.977 308.727 457.977 411.646 439.269C416.055 438.468 420.557 440.378 422.876 444.213C425.731 448.936 429.127 453.421 433.176 457.469C443.87 468.163 457.591 474.361 470.738 477.917C495.096 484.506 517.42 462.182 510.83 437.825C507.274 424.678 501.076 410.957 490.382 400.263C487.462 397.343 484.316 394.762 481.018 392.477C477.371 389.95 475.73 385.379 476.785 381.069V381.069Z" fill="#FBF1CF"/>
<path d="M89.1238 444.212C91.4418 440.378 95.9448 438.467 100.354 439.268C151.388 448.545 203.045 453.216 254.708 453.292C151.733 408.317 148.828 244.798 165.297 142.234C143.57 144.511 121.906 147.597 100.354 151.514C95.9448 152.315 91.4428 150.405 89.1238 146.57C86.2688 141.847 82.8728 137.362 78.8238 133.313C68.1298 122.619 54.4088 116.421 41.2618 112.864C16.9038 106.278 -5.42019 128.602 1.16981 152.96C4.72581 166.107 10.9238 179.828 21.6178 190.522C24.5368 193.442 27.6838 196.023 30.9818 198.308C34.6288 200.834 36.2698 205.406 35.2148 209.716C21.4428 265.999 21.4428 324.787 35.2148 381.07C36.2688 385.38 34.6288 389.951 30.9818 392.478C27.6838 394.763 24.5368 397.345 21.6178 400.264C10.9238 410.957 4.72581 424.678 1.16981 437.825C-5.42019 462.183 16.9038 484.507 41.2618 477.917C54.4088 474.36 68.1298 468.162 78.8238 457.468C82.8728 453.42 86.2688 448.935 89.1238 444.212V444.212Z" fill="#F5E2A2"/>
<path d="M94.3673 388.717C105.922 388.717 115.289 346.934 115.289 295.392C115.289 243.85 105.922 202.067 94.3673 202.067C82.8124 202.067 73.4453 243.85 73.4453 295.392C73.4453 346.934 82.8124 388.717 94.3673 388.717Z" fill="#8DAEE1"/>
<path d="M94.3673 388.717C105.922 388.717 115.289 346.934 115.289 295.392C115.289 243.85 105.922 202.067 94.3673 202.067C82.8124 202.067 73.4453 243.85 73.4453 295.392C73.4453 346.934 82.8124 388.717 94.3673 388.717Z" fill="#8DAEE1"/>
<path d="M114.817 244.722L67.5681 291.971C67.2621 310.044 69.3741 328.127 73.9151 346.062L121.164 298.813C121.47 280.74 119.357 262.657 114.817 244.722V244.722Z" fill="#A2DDFD"/>
<path d="M351.635 226.567H311.41C308.37 226.567 305.632 224.732 304.475 221.921C303.318 219.11 303.972 215.879 306.131 213.739L333.413 186.7H311.41C307.268 186.7 303.91 183.342 303.91 179.2C303.91 175.058 307.268 171.7 311.41 171.7H351.635C354.675 171.7 357.413 173.534 358.571 176.345C359.728 179.156 359.074 182.387 356.915 184.527L329.633 211.566H351.636C355.779 211.566 359.136 214.924 359.136 219.066C359.136 223.208 355.777 226.567 351.635 226.567V226.567Z" fill="#8DAEE1"/>
<path d="M396.366 101.619H342.177C339.137 101.619 336.399 99.7851 335.241 96.9731C334.084 94.1621 334.738 90.9311 336.897 88.7911L378.144 47.9131H342.176C338.033 47.9131 334.676 44.5551 334.676 40.4131C334.676 36.2711 338.033 32.9131 342.176 32.9131H396.365C399.405 32.9131 402.143 34.7471 403.301 37.5591C404.458 40.3701 403.804 43.6011 401.645 45.7411L360.398 86.6191H396.366C400.509 86.6191 403.866 89.9771 403.866 94.1191C403.866 98.2611 400.509 101.619 396.366 101.619Z" fill="#A2DDFD"/>
</svg>
