<svg width="512" height="512" viewBox="0 0 512 512" fill="none" xmlns="http://www.w3.org/2000/svg">
<g clip-path="url(#clip0_240_1163)">
<path d="M202.977 156.204C179.273 90.2119 136.303 40.2821 91.2575 19.663C84.7416 16.6806 77.0523 19.4425 73.9226 25.8894C52.2929 70.4581 50.9145 136.319 74.619 202.311C100.323 273.869 148.68 326.543 197.771 343.435C224.893 299.167 228.682 227.763 202.977 156.204V156.204Z" fill="#00DCC3"/>
<path d="M105.524 202.311C81.9456 136.669 83.1932 71.1659 104.494 26.6095C100.113 24.0217 95.6955 21.6945 91.2575 19.663C84.7416 16.6806 77.0523 19.4425 73.9226 25.8894C52.2929 70.4581 50.9145 136.319 74.619 202.311C100.323 273.869 148.68 326.543 197.771 343.435C200.015 339.773 202.083 335.908 204.004 331.889C163.918 308.211 126.891 261.798 105.524 202.311V202.311Z" fill="#00C4A2"/>
<path d="M197.771 351.165C194.603 351.165 191.632 349.201 190.499 346.049L107.111 113.899C105.669 109.883 107.755 105.457 111.771 104.015C115.783 102.574 120.211 104.659 121.654 108.675L205.042 340.825C206.484 344.84 204.398 349.266 200.383 350.708C199.52 351.018 198.638 351.165 197.771 351.165V351.165Z" fill="#00C4A2"/>
<path d="M309.025 156.204C332.73 90.2119 375.7 40.2811 420.745 19.663C427.261 16.6806 434.95 19.4425 438.08 25.8894C459.711 70.4571 461.089 136.319 437.385 202.31C411.681 273.868 363.324 326.542 314.233 343.434C287.11 299.167 283.321 227.763 309.025 156.204V156.204Z" fill="#00DCC3"/>
<path d="M314.23 351.165C313.363 351.165 312.482 351.017 311.619 350.708C307.603 349.266 305.516 344.84 306.959 340.825L390.347 108.674C391.789 104.66 396.215 102.574 400.231 104.015C404.246 105.457 406.334 109.883 404.89 113.898L321.502 346.049C320.369 349.201 317.399 351.165 314.23 351.165V351.165Z" fill="#00C4A2"/>
<path d="M265.21 3.75733C260.086 -1.25244 251.916 -1.25244 246.792 3.75733C211.369 38.39 187.807 99.9072 187.807 170.028C187.807 246.062 215.51 311.981 256.001 344.475C296.491 311.981 324.194 246.061 324.194 170.028C324.194 99.9072 300.633 38.39 265.21 3.75733V3.75733Z" fill="#00C4A2"/>
<path d="M256.002 352.202C251.734 352.202 248.275 348.742 248.275 344.475V97.8035C248.275 93.5365 251.734 90.0771 256.002 90.0771C260.27 90.0771 263.728 93.5365 263.728 97.8035V344.476C263.728 348.743 260.27 352.202 256.002 352.202V352.202Z" fill="#00DCC3"/>
<path d="M394.015 237.379H117.986C100.039 237.379 85.4902 251.928 85.4902 269.875V413.35C85.4902 467.832 129.657 511.999 184.139 511.999H327.862C382.344 511.999 426.511 467.832 426.511 413.35V269.876C426.511 251.928 411.963 237.379 394.015 237.379V237.379Z" fill="#E3986D"/>
<path d="M126.697 413.351V269.876C126.697 251.929 141.247 237.38 159.194 237.38H117.986C100.039 237.38 85.4902 251.929 85.4902 269.876V413.351C85.4902 467.833 129.657 512 184.139 512H225.347C170.864 512 126.697 467.833 126.697 413.351Z" fill="#D97C40"/>
</g>
<defs>
<clipPath id="clip0_240_1163">
<rect width="512" height="512" fill="white"/>
</clipPath>
</defs>
</svg>
