<svg width="512" height="512" viewBox="0 0 512 512" fill="none" xmlns="http://www.w3.org/2000/svg">
<g clip-path="url(#clip0)">
<path d="M112.696 210.129C87.3012 182.802 72.5922 134.133 85.3842 75.1581C87.9322 63.4131 101.856 58.6681 111.186 66.2451C135.324 85.8481 178.866 85.8371 210.305 117.275C236.674 143.644 236.614 186.432 210.127 212.727C182.83 239.826 138.88 238.305 112.696 210.129Z" fill="#7FD49D"/>
<path d="M194.868 196.106C193.948 196.106 193.014 195.936 192.107 195.577C165.736 185.129 148.108 167.607 128.212 142.723C125.626 139.488 126.151 134.768 129.387 132.181C132.623 129.594 137.343 130.12 139.929 133.355C161.607 160.47 177.245 173.554 197.632 181.63C201.483 183.156 203.367 187.514 201.842 191.365C200.677 194.311 197.854 196.106 194.868 196.106Z" fill="#5EC783"/>
<path d="M403.503 210.129C428.898 182.802 443.607 134.133 430.815 75.1581C428.267 63.4131 414.343 58.6681 405.013 66.2451C380.875 85.8481 337.333 85.8371 305.894 117.275C279.525 143.644 279.585 186.432 306.072 212.727C333.369 239.826 377.32 238.305 403.503 210.129Z" fill="#7FD49D"/>
<path d="M321.332 196.106C318.347 196.106 315.524 194.311 314.357 191.367C312.832 187.516 314.716 183.157 318.567 181.632C338.954 173.555 354.592 160.471 376.27 133.357C378.857 130.122 383.577 129.596 386.812 132.183C390.047 134.769 390.573 139.489 387.987 142.725C368.092 167.609 350.464 185.131 324.092 195.579C323.187 195.936 322.251 196.106 321.332 196.106Z" fill="#5EC783"/>
<path d="M258.1 250.825C307.271 250.825 347.132 222.63 347.132 187.849C347.132 153.068 307.271 124.873 258.1 124.873C208.929 124.873 169.068 153.068 169.068 187.849C169.068 222.63 208.929 250.825 258.1 250.825Z" fill="#5EC783"/>
<path d="M258.1 512.001C433.07 512.001 481.872 512.165 481.872 411.621C481.872 288.035 381.686 187.849 258.1 187.849C134.514 187.849 34.3281 288.036 34.3281 411.621C34.3281 512.165 83.1301 512.001 258.1 512.001Z" fill="#7FD49D"/>
<path d="M147.105 217.278C79.7301 255.841 34.3281 328.427 34.3281 411.62C34.3281 509.905 80.9841 511.956 246.518 511.998C136.345 463.111 116.392 282.291 147.105 217.278Z" fill="#5EC783"/>
<path d="M467.286 360.001C482.597 360.001 495.009 372.413 495.009 387.724C495.009 403.035 482.597 415.447 467.286 415.447C451.975 415.447 439.562 403.035 439.562 387.724V360.001H467.286Z" fill="#B9E6FF"/>
<path d="M467.286 339.848C482.597 339.848 495.009 327.436 495.009 312.125C495.009 296.814 482.597 284.402 467.286 284.402C451.975 284.402 439.562 296.814 439.562 312.125V339.848H467.286Z" fill="#B9E6FF"/>
<path d="M459.955 381.505C477.452 374.253 485.756 354.19 478.504 336.694C471.251 319.197 451.189 310.892 433.692 318.145C416.195 325.397 407.891 345.46 415.143 362.957C422.396 380.453 442.459 388.758 459.955 381.505Z" fill="#4E5660"/>
<path d="M82.7687 47.3272C71.9417 36.5002 71.9417 18.9473 82.7687 8.12025C93.5957 -2.70675 111.149 -2.70675 121.976 8.12025C132.803 18.9473 132.803 36.5002 121.976 47.3272L102.372 66.9303L82.7687 47.3272Z" fill="#B9E6FF"/>
<path d="M68.5187 61.5773C57.6917 50.7503 40.1387 50.7503 29.3117 61.5773C18.4847 72.4043 18.4847 89.9573 29.3117 100.784C40.1387 111.611 57.6917 111.611 68.5187 100.784L88.1217 81.1803L68.5187 61.5773Z" fill="#B9E6FF"/>
<path d="M90.2294 103.323C109.165 103.323 124.515 87.9726 124.515 69.037C124.515 50.1013 109.165 34.751 90.2294 34.751C71.2937 34.751 55.9434 50.1013 55.9434 69.037C55.9434 87.9726 71.2937 103.323 90.2294 103.323Z" fill="#4E5660"/>
<path d="M73.9259 379.471L123.077 382.785C131.266 383.337 138.29 388.828 140.801 396.642L154.334 438.741C158.083 450.402 150.581 462.668 138.492 464.643L123.881 467.03C119.023 467.824 114.626 470.379 111.532 474.207L91.0709 499.519C82.1349 510.573 64.8509 509.064 57.9659 496.63L45.8779 474.8C44.9309 473.09 43.7399 471.528 42.3409 470.164L23.0369 451.334C15.6619 444.14 14.9459 432.524 21.3819 424.479L48.4069 390.698C54.5609 383.002 64.0939 378.809 73.9259 379.471Z" fill="#F1D88C"/>
<path d="M77.9238 456.794C73.7808 456.794 70.4238 453.436 70.4238 449.294V435.734C70.4238 429.108 74.4128 423.273 80.5868 420.867L99.6128 413.454C103.474 411.949 107.82 413.86 109.324 417.72C110.828 421.579 108.918 425.927 105.058 427.431L86.0318 434.844C85.6678 434.986 85.4238 435.344 85.4238 435.734V449.294C85.4238 453.436 82.0658 456.794 77.9238 456.794Z" fill="#F7EF87"/>
</g>
<defs>
<clipPath id="clip0">
<rect width="512" height="512" fill="white"/>
</clipPath>
</defs>
</svg>
