<svg width="512" height="512" viewBox="0 0 512 512" fill="none" xmlns="http://www.w3.org/2000/svg">
<path d="M412.977 74.9297H99.0234C89.2148 74.9297 81.2578 82.8828 81.2578 92.6953V147.152H430.738V92.6914C430.742 82.8828 422.785 74.9297 412.977 74.9297Z" fill="#BEBFC0"/>
<path d="M357.27 38H154.73C144.918 38 136.965 45.9531 136.965 55.7656V147.152H375.035V55.7656C375.035 45.9531 367.082 38 357.27 38Z" fill="#ECECED"/>
<path d="M471.187 408.953H40.8124C18.2695 408.953 0 390.683 0 368.14V198.043C0 169.934 22.7851 147.152 50.8944 147.152H461.108C489.214 147.152 511.999 169.934 511.999 198.043V368.144C511.999 390.683 493.726 408.953 471.187 408.953Z" fill="#88C8E9"/>
<path d="M194.336 147.152H50.8906C22.7852 147.152 0 169.934 0 198.043V368.145C0 390.684 18.2734 408.953 40.8125 408.953H281.41C203.34 332.336 195.137 229.891 194.336 147.152Z" fill="#73B6D9"/>
<path d="M0 317.641V368.141C0 390.68 18.2734 408.953 40.8124 408.953H471.19C493.729 408.953 511.999 390.68 511.999 368.141V317.641H0Z" fill="#ADE9F0"/>
<path d="M0 368.145C0 390.684 18.2734 408.953 40.8125 408.953H281.41C253.117 381.188 234.004 350.031 221.094 317.645H0L0 368.145Z" fill="#98DAE3"/>
<path d="M399.191 286.09H112.812C95.3867 286.09 81.2617 300.219 81.2617 317.641V344.738C81.2617 358.711 92.5859 370.035 106.555 370.035H405.445C419.414 370.035 430.738 358.711 430.738 344.738V317.641C430.742 300.219 416.613 286.09 399.191 286.09Z" fill="#5C586F"/>
<path d="M375.035 286.09H136.965V390.406C136.965 437.113 174.832 474.98 221.543 474.98H357.27C367.082 474.98 375.035 467.027 375.035 457.215V286.09Z" fill="#ECECED"/>
<path d="M136.965 390.406C136.965 437.113 174.832 474.98 221.539 474.98H302.605C241.77 419.441 239.219 331.797 237.688 286.09H136.965V390.406Z" fill="#D6D5D4"/>
<path d="M221.539 474.98C212.141 458.082 209.527 438.238 214.238 419.484C217.543 406.328 205.617 394.402 192.461 397.707C173.707 402.418 153.863 399.805 136.965 390.406C136.965 437.113 174.832 474.98 221.539 474.98Z" fill="#ECECED"/>
<path d="M311.609 335.562H200.391C196.246 335.562 192.891 332.207 192.891 328.062C192.891 323.922 196.246 320.562 200.391 320.562H311.613C315.754 320.562 319.113 323.922 319.113 328.062C319.109 332.207 315.754 335.562 311.609 335.562Z" fill="#495059"/>
<path d="M311.609 377.535H200.391C196.246 377.535 192.891 374.176 192.891 370.035C192.891 365.895 196.246 362.535 200.391 362.535H311.613C315.754 362.535 319.113 365.895 319.113 370.035C319.113 374.176 315.754 377.535 311.609 377.535Z" fill="#495059"/>
<path d="M454.652 205.168C454.652 218.371 443.945 229.078 430.742 229.078C417.535 229.078 406.832 218.371 406.832 205.168C406.832 191.961 417.535 181.258 430.742 181.258C443.945 181.258 454.652 191.961 454.652 205.168Z" fill="#5C586F"/>
<path d="M93.8008 207.07H68.7188C62.5781 207.07 57.5977 202.094 57.5977 195.953V192.375C57.5977 186.234 62.5781 181.258 68.7188 181.258H93.8008C99.9414 181.258 104.922 186.234 104.922 192.375V195.953C104.922 202.094 99.9414 207.07 93.8008 207.07Z" fill="#C6C6C6"/>
<path d="M93.8008 255.117H68.7188C62.5781 255.117 57.5977 250.141 57.5977 244V240.422C57.5977 234.281 62.5781 229.305 68.7188 229.305H93.8008C99.9414 229.305 104.922 234.281 104.922 240.422V244C104.922 250.141 99.9414 255.117 93.8008 255.117Z" fill="#C6C6C6"/>
</svg>
