<svg width="512" height="512" viewBox="0 0 512 512" fill="none" xmlns="http://www.w3.org/2000/svg">
<g clip-path="url(#clip0)">
<path d="M361.722 260.996L251.003 150.277C230.483 129.758 197.214 129.758 176.694 150.277L15.3896 311.582C-5.12988 332.102 -5.12988 365.371 15.3896 385.891L126.108 496.609C146.628 517.129 179.897 517.129 200.417 496.609L361.722 335.305C382.241 314.785 382.241 281.516 361.722 260.996Z" fill="#334151"/>
<path d="M361.723 260.996L341.117 240.391C361.637 260.91 361.637 294.18 341.117 314.699L179.812 476.008C159.293 496.527 126.023 496.527 105.504 476.008L126.109 496.609C146.629 517.129 179.898 517.129 200.418 496.609L361.723 335.305C382.242 314.785 382.242 281.516 361.723 260.996Z" fill="#293441"/>
<path d="M381.855 157.879C381.855 173.199 369.434 185.617 354.117 185.617C338.797 185.617 326.379 173.199 326.379 157.879C326.379 142.559 338.797 130.141 354.117 130.141C369.434 130.141 381.855 142.559 381.855 157.879Z" fill="#A7E0F5"/>
<path d="M484.505 167.133C481.63 164.258 479.833 160.297 479.79 155.91C479.458 123.008 466.462 92.0702 443.192 68.8006C419.923 45.535 388.993 32.5389 356.095 32.2069C347.204 32.1131 340.067 24.8319 340.157 15.9413C340.247 7.04674 347.528 -0.0899813 356.423 -0.000137511C397.798 0.421737 436.704 16.7655 465.966 46.0311C495.231 75.2928 511.575 114.203 511.993 155.586C512.083 164.48 504.946 171.762 496.052 171.848C491.548 171.894 487.458 170.086 484.505 167.133Z" fill="#A7E0F5"/>
<path d="M420.798 177.703C417.923 174.828 416.126 170.867 416.083 166.48C415.895 147.711 408.477 130.066 395.204 116.789C381.93 103.515 364.286 96.1014 345.52 95.9139C336.626 95.8202 329.493 88.5389 329.579 79.6483C329.673 70.7538 336.954 63.6171 345.845 63.7069C373.091 63.9842 398.708 74.7499 417.977 94.0155C437.247 113.289 448.012 138.91 448.286 166.156C448.376 175.051 441.239 182.332 432.345 182.422C427.841 182.465 423.751 180.656 420.798 177.703Z" fill="#59C2E7"/>
<path d="M203.078 264.289C203.078 281.883 188.816 296.145 171.227 296.145C153.633 296.145 139.371 281.883 139.371 264.289C139.371 246.699 153.633 232.438 171.227 232.438C188.816 232.438 203.078 246.699 203.078 264.289Z" fill="#A7E0F5"/>
<path d="M193.746 241.77C191.973 239.996 190.039 238.484 187.996 237.215C195.625 249.5 194.113 265.848 183.445 276.512C172.781 287.18 156.434 288.691 144.148 281.062C145.418 283.105 146.93 285.039 148.703 286.812C161.141 299.254 181.309 299.254 193.746 286.812C206.188 274.375 206.188 254.207 193.746 241.77Z" fill="#59C2E7"/>
<path d="M279.562 340.773C279.562 358.367 265.301 372.625 247.711 372.625C230.117 372.625 215.855 358.367 215.855 340.773C215.855 323.184 230.117 308.922 247.711 308.922C265.301 308.922 279.562 323.184 279.562 340.773Z" fill="#A7E0F5"/>
<path d="M270.23 318.25C268.461 316.48 266.523 314.969 264.484 313.699C272.109 325.984 270.598 342.328 259.93 352.996C249.266 363.66 232.922 365.172 220.633 357.547C221.902 359.59 223.414 361.523 225.188 363.297C237.625 375.738 257.793 375.738 270.23 363.297C282.672 350.859 282.672 330.691 270.23 318.25Z" fill="#59C2E7"/>
<path d="M132.691 334.676C132.691 352.266 118.434 366.527 100.84 366.527C83.25 366.527 68.9883 352.266 68.9883 334.676C68.9883 317.082 83.25 302.824 100.84 302.824C118.434 302.824 132.691 317.082 132.691 334.676Z" fill="#A7E0F5"/>
<path d="M123.363 312.152C121.59 310.379 119.656 308.867 117.613 307.598C125.238 319.887 123.727 336.23 113.062 346.895C102.395 357.562 86.0508 359.074 73.7656 351.449C75.0312 353.492 76.543 355.426 78.3164 357.199C90.7578 369.637 110.926 369.637 123.363 357.199C135.805 344.758 135.805 324.59 123.363 312.152Z" fill="#59C2E7"/>
<path d="M209.176 411.16C209.176 428.75 194.918 443.012 177.324 443.012C159.734 443.012 145.473 428.75 145.473 411.16C145.473 393.566 159.734 379.309 177.324 379.309C194.918 379.309 209.176 393.566 209.176 411.16Z" fill="#A7E0F5"/>
<path d="M199.848 388.637C198.074 386.863 196.141 385.352 194.098 384.086C201.723 396.371 200.215 412.715 189.547 423.379C178.879 434.047 162.535 435.559 150.25 427.934C151.516 429.977 153.031 431.91 154.801 433.684C167.242 446.121 187.41 446.121 199.848 433.684C212.285 421.242 212.285 401.074 199.848 388.637Z" fill="#59C2E7"/>
</g>
<defs>
<clipPath id="clip0">
<rect width="512" height="512" fill="white"/>
</clipPath>
</defs>
</svg>
