<svg width="512" height="512" viewBox="0 0 512 512" fill="none" xmlns="http://www.w3.org/2000/svg">
<path d="M474.91 228.41H377.539V194.906H474.91C484.16 194.906 491.66 202.406 491.66 211.66C491.66 220.91 484.16 228.41 474.91 228.41V228.41Z" fill="#D1986F"/>
<path d="M474.91 293.762H377.539V260.258H474.91C484.16 260.258 491.66 267.758 491.66 277.008C491.66 286.262 484.16 293.762 474.91 293.762V293.762Z" fill="#D1986F"/>
<path d="M474.91 359.113H377.539V325.609H474.91C484.16 325.609 491.66 333.105 491.66 342.359C491.66 351.613 484.16 359.113 474.91 359.113V359.113Z" fill="#D1986F"/>
<path d="M474.91 424.461H377.539V390.957H474.91C484.16 390.957 491.66 398.457 491.66 407.707C491.66 416.961 484.16 424.461 474.91 424.461V424.461Z" fill="#D1986F"/>
<path d="M474.91 489.812H377.539V456.309H474.91C484.16 456.309 491.66 463.809 491.66 473.059C491.66 482.312 484.16 489.812 474.91 489.812V489.812Z" fill="#D1986F"/>
<path d="M397.715 511.008H103.492V173.715H397.715C414.906 173.715 428.84 187.648 428.84 204.836V479.883C428.84 497.07 414.906 511.008 397.715 511.008V511.008Z" fill="#F5E2A2"/>
<path d="M103 511.297H262.527C249.938 481.211 238.039 433.691 249.441 373.672C269.707 267.02 249.441 174.996 249.441 174.996L247.324 174H103V511.297Z" fill="#FBF1CF"/>
<path d="M103.492 116.434C57.9336 116.434 21 139.344 21 167.609V459.828H185.988V167.609C185.988 139.344 149.055 116.434 103.492 116.434Z" fill="#D1986F"/>
<path d="M185.988 459.828C185.988 431.566 149.055 408.652 103.492 408.652C57.9336 408.652 21 431.566 21 459.828C21 488.094 57.9336 511.008 103.492 511.008C149.055 511.008 185.988 488.094 185.988 459.828Z" fill="#FFD4A3"/>
<path d="M331.586 174.707H366.375V512H331.586V174.707Z" fill="#D1986F"/>
<path d="M143.633 459.828C143.633 449.414 125.664 440.969 103.492 440.969C81.3242 440.969 63.3555 449.414 63.3555 459.828C63.3555 470.246 81.3242 478.691 103.492 478.691C125.664 478.691 143.633 470.246 143.633 459.828Z" fill="#E0B799"/>
<path d="M71.2539 471.066C78.5703 466.445 90.2891 463.445 103.492 463.445C116.699 463.445 128.414 466.441 135.727 471.066C140.695 467.93 143.633 464.043 143.633 459.828C143.633 449.414 125.66 440.969 103.492 440.969C81.3242 440.969 63.3516 449.414 63.3516 459.828C63.3555 464.043 66.2891 467.93 71.2539 471.066V471.066Z" fill="#D1986F"/>
<path d="M380.864 99.1641L386.478 109.426C392.075 119.664 400.497 128.082 410.731 133.684L420.997 139.297C431.501 145.039 431.501 160.125 420.997 165.871L410.731 171.484C400.497 177.086 392.075 185.504 386.478 195.742L380.864 206.004C375.118 216.508 360.032 216.508 354.286 206.004L348.673 195.742C343.075 185.504 334.657 177.086 324.419 171.484L314.153 165.871C303.649 160.125 303.649 145.039 314.153 139.297L324.419 133.684C334.657 128.082 343.075 119.664 348.673 109.426L354.286 99.1641C360.032 88.6562 375.118 88.6562 380.864 99.1641Z" fill="#F6EE86"/>
<path d="M184.681 6.19922L189.099 14.2734C193.505 22.3281 200.126 28.9531 208.181 33.3555L216.255 37.7734C224.521 42.293 224.521 54.1602 216.255 58.6797L208.181 63.0977C200.126 67.5039 193.505 74.125 189.099 82.1797L184.681 90.2578C180.161 98.5195 168.294 98.5195 163.774 90.2578L159.356 82.1797C154.95 74.125 148.329 67.5039 140.274 63.0977L132.196 58.6797C123.935 54.1602 123.935 42.293 132.196 37.7734L140.274 33.3555C148.329 28.9531 154.95 22.3281 159.356 14.2734L163.774 6.19922C168.294 -2.06641 180.161 -2.06641 184.681 6.19922V6.19922Z" fill="#F6EE86"/>
</svg>
