<svg width="512" height="512" viewBox="0 0 512 512" fill="none" xmlns="http://www.w3.org/2000/svg">
<g clip-path="url(#clip0)">
<path d="M496.007 177.328L177.328 496.007C156.004 517.331 121.429 517.331 100.106 496.007L15.9939 411.896C-5.33 390.572 -5.33 355.997 15.9939 334.674L334.673 15.9939C355.996 -5.33 390.571 -5.33 411.895 15.9939L496.006 100.106C517.331 121.43 517.331 156.004 496.007 177.328Z" fill="#FFFDDE"/>
<path d="M99.2702 495.173C121.056 516.959 156.378 516.959 178.163 495.173L226.411 446.925C226.084 446.615 225.757 446.303 225.43 445.999C190.321 435.492 150.543 417.195 135.916 341.487C124.707 265.214 137.326 232.509 146.671 203.995L16.8287 333.838C-4.95723 355.624 -4.95723 390.945 16.8287 412.73L99.2702 495.173Z" fill="#FCF3B4"/>
<path d="M113.675 391.952L36.1949 314.472L25.3584 325.308L102.839 402.788C104.336 404.285 106.297 405.033 108.257 405.033C110.217 405.033 112.179 404.285 113.675 402.788C116.668 399.795 116.668 394.944 113.675 391.952Z" fill="#F4D37F"/>
<path d="M94.0181 256.648L83.1816 267.485L137.464 321.767C138.961 323.264 140.921 324.011 142.882 324.011C144.842 324.011 146.804 323.263 148.3 321.767C151.293 318.775 151.293 313.923 148.3 310.931L94.0181 256.648Z" fill="#F4D37F"/>
<path d="M200.705 266.191C202.666 266.191 204.628 265.443 206.124 263.947C209.116 260.955 209.116 256.103 206.124 253.11L151.84 198.827L141.004 209.664L195.287 263.947C196.783 265.442 198.744 266.191 200.705 266.191Z" fill="#F4D37F"/>
<path d="M253.11 206.123C254.607 207.619 256.568 208.367 258.528 208.367C260.488 208.367 262.45 207.619 263.946 206.123C266.938 203.131 266.938 198.278 263.946 195.286L209.663 141.003L198.826 151.839L253.11 206.123Z" fill="#F4D37F"/>
<path d="M310.932 148.3C312.429 149.797 314.39 150.545 316.35 150.545C318.31 150.545 320.272 149.797 321.768 148.3C324.76 145.308 324.76 140.456 321.768 137.464L267.485 83.1807L256.648 94.0171L310.932 148.3Z" fill="#F4D37F"/>
<path d="M314.472 36.1949L391.952 113.675C393.449 115.171 395.41 115.919 397.37 115.919C399.33 115.919 401.292 115.171 402.788 113.675C405.781 110.683 405.781 105.831 402.788 102.839L325.308 25.3584L314.472 36.1949Z" fill="#F4D37F"/>
</g>
<defs>
<clipPath id="clip0">
<rect width="512" height="512" fill="white"/>
</clipPath>
</defs>
</svg>
