<svg width="512" height="512" viewBox="0 0 512 512" fill="none" xmlns="http://www.w3.org/2000/svg">
<g clip-path="url(#clip0_300_289)">
<path d="M302.139 109.43H209.859V176.51H302.139V109.43Z" fill="#5D6671"/>
<path opacity="0.1" d="M302.139 109.43H209.859V134.053H302.139V109.43Z" fill="black"/>
<path d="M440.424 109.428H71.5759C39.4179 109.428 11.9199 86.3 6.40787 54.618L0.246868 19.203C-1.49713 9.177 6.22087 0 16.3979 0H495.602C505.779 0 513.497 9.176 511.753 19.203L505.592 54.618C500.081 86.3 472.582 109.428 440.424 109.428Z" fill="#C3E9F1"/>
<path d="M495.602 0H16.3979C6.22087 0 -1.49713 9.177 0.246868 19.203L2.81387 33.961H509.185L511.753 19.203C513.497 9.177 505.779 0 495.602 0Z" fill="#7CD9D2"/>
<path opacity="0.1" d="M0.246868 19.203L6.40787 54.618C11.9189 86.3 39.4179 109.428 71.5759 109.428H170.484C132.427 79.579 125.099 29.306 123.732 0H16.3979C6.22087 0 -1.49713 9.177 0.246868 19.203Z" fill="black"/>
<path d="M368.934 176.512H143.064C119.568 176.512 99.6533 193.8 96.3513 217.062L58.2923 485.192C56.2833 499.346 67.2683 512 81.5643 512H430.434C444.729 512 455.715 499.345 453.706 485.192L415.647 217.062C412.345 193.8 392.43 176.512 368.934 176.512Z" fill="#7CD9D2"/>
<path opacity="0.1" d="M58.2923 485.192C56.2833 499.346 67.2683 512 81.5643 512H430.434C444.729 512 455.715 499.345 453.706 485.192L447.898 444.27H64.1013L58.2923 485.192Z" fill="black"/>
<path d="M377.642 352.55C377.642 419.875 322.948 474.425 255.569 474.192C188.34 473.959 134.357 418.459 134.357 351.23V265.43C134.357 243.433 152.19 225.6 174.187 225.6H337.812C359.809 225.6 377.642 243.433 377.642 265.43V352.55Z" fill="#C3E9F1"/>
<path d="M255.999 444.27C306.655 444.27 347.719 403.206 347.719 352.55C347.719 301.895 306.655 260.83 255.999 260.83C205.344 260.83 164.279 301.895 164.279 352.55C164.279 403.206 205.344 444.27 255.999 444.27Z" fill="white"/>
<path d="M256 296.497C251.858 296.497 248.5 293.139 248.5 288.997V285.114C248.5 280.972 251.858 277.614 256 277.614C260.142 277.614 263.5 280.972 263.5 285.114V288.997C263.5 293.139 260.142 296.497 256 296.497Z" fill="#5D6671"/>
<path d="M300.938 315.111C299.019 315.111 297.1 314.379 295.635 312.915C292.706 309.986 292.705 305.238 295.634 302.308L298.379 299.562C301.308 296.632 306.057 296.632 308.985 299.561C311.914 302.49 311.915 307.238 308.986 310.168L306.241 312.914C304.777 314.378 302.857 315.111 300.938 315.111Z" fill="#5D6671"/>
<path d="M323.435 360.049H319.553C315.411 360.049 312.053 356.691 312.053 352.549C312.053 348.407 315.411 345.049 319.553 345.049H323.435C327.577 345.049 330.935 348.407 330.935 352.549C330.935 356.691 327.577 360.049 323.435 360.049Z" fill="#5D6671"/>
<path d="M303.684 407.733C301.765 407.733 299.845 407.001 298.381 405.536L295.636 402.791C292.707 399.862 292.707 395.113 295.636 392.185C298.565 389.256 303.314 389.256 306.243 392.185L308.988 394.93C311.917 397.859 311.917 402.608 308.988 405.536C307.523 407.001 305.604 407.733 303.684 407.733Z" fill="#5D6671"/>
<path d="M256 427.486C251.858 427.486 248.5 424.128 248.5 419.986V416.104C248.5 411.962 251.858 408.604 256 408.604C260.142 408.604 263.5 411.962 263.5 416.104V419.986C263.5 424.128 260.142 427.486 256 427.486Z" fill="#5D6671"/>
<path d="M208.316 407.733C206.397 407.733 204.477 407.001 203.013 405.536C200.084 402.607 200.084 397.858 203.013 394.93L205.758 392.185C208.687 389.256 213.436 389.256 216.364 392.185C219.293 395.114 219.293 399.863 216.364 402.791L213.619 405.536C212.155 407.001 210.235 407.733 208.316 407.733Z" fill="#5D6671"/>
<path d="M192.446 360.049H188.564C184.422 360.049 181.064 356.691 181.064 352.549C181.064 348.407 184.422 345.049 188.564 345.049H192.446C196.588 345.049 199.946 348.407 199.946 352.549C199.946 356.691 196.588 360.049 192.446 360.049Z" fill="#5D6671"/>
<path d="M211.06 315.111C209.141 315.111 207.221 314.379 205.756 312.914L203.011 310.168C200.082 307.239 200.083 302.49 203.012 299.561C205.941 296.632 210.69 296.632 213.618 299.562L216.363 302.308C219.292 305.237 219.291 309.986 216.362 312.915C214.898 314.379 212.98 315.111 211.06 315.111Z" fill="#5D6671"/>
<path d="M256 360.049C251.858 360.049 248.5 356.691 248.5 352.549V318.74C248.5 314.598 251.858 311.24 256 311.24C260.142 311.24 263.5 314.598 263.5 318.74V352.549C263.5 356.691 260.142 360.049 256 360.049Z" fill="#5D6671"/>
<path opacity="0.1" d="M183.664 176.512H143.065C119.569 176.512 99.6545 193.8 96.3535 217.062L58.2945 485.192C56.2845 499.346 67.2695 512 81.5655 512H235.48C182.586 431.013 170.422 302.237 183.664 176.512Z" fill="black"/>
</g>
<defs>
<clipPath id="clip0_300_289">
<rect width="512" height="512" fill="white"/>
</clipPath>
</defs>
</svg>
