<svg width="512" height="512" viewBox="0 0 512 512" fill="none" xmlns="http://www.w3.org/2000/svg">
<path d="M256 386.871L99.142 409.77V490.782C99.142 502.5 108.641 512 120.36 512H391.64C403.358 512 412.858 502.501 412.858 490.782V409.77L256 386.871Z" fill="#937FE6"/>
<path d="M412.858 105.602V22.123C412.858 9.905 402.953 0 390.735 0H308.833L256 16.547L203.167 0H121.265C109.047 0 99.142 9.905 99.142 22.123V105.602C99.142 105.602 152.915 142.298 152.915 204.885C152.915 267.472 99.142 304.168 99.142 304.168V409.77H412.859V304.167C412.859 304.167 359.086 267.471 359.086 204.884C359.086 142.297 412.858 105.602 412.858 105.602Z" fill="#B6A4FF"/>
<path d="M203.167 0V308.12C203.167 337.299 226.821 360.953 256 360.953C285.179 360.953 308.833 337.299 308.833 308.12V0H203.167Z" fill="#D4D2D3"/>
<path d="M256 228.731C269.171 228.731 279.849 218.054 279.849 204.882C279.849 191.711 269.171 181.033 256 181.033C242.829 181.033 232.151 191.711 232.151 204.882C232.151 218.054 242.829 228.731 256 228.731Z" fill="#9E9C9D"/>
<path d="M256 488.25C271.115 488.25 283.368 475.997 283.368 460.882C283.368 445.767 271.115 433.514 256 433.514C240.885 433.514 228.632 445.767 228.632 460.882C228.632 475.997 240.885 488.25 256 488.25Z" fill="#3A484A"/>
</svg>
