<svg width="512" height="512" viewBox="0 0 512 512" fill="none" xmlns="http://www.w3.org/2000/svg">
<g clip-path="url(#clip0_297_155)">
<path d="M347.314 116.713H229.723C216.16 116.713 205.165 127.708 205.165 141.271V201.038H371.872V141.271C371.872 127.708 360.877 116.713 347.314 116.713Z" fill="#F7EF87"/>
<path d="M243.09 39.1533H333.948V116.713H243.09V39.1533Z" fill="#F1D88C"/>
<path d="M92.856 92.868C80.317 83.463 77.776 65.675 87.18 53.136C102.063 33.291 137.182 0 205.165 0H371.872C387.546 0 400.252 12.706 400.252 28.38C400.252 44.054 387.546 56.76 371.872 56.76H205.165C186.584 56.76 152.447 60.713 132.588 87.192C123.165 99.755 105.375 102.257 92.856 92.868V92.868Z" fill="#F7EF87"/>
<path d="M376.367 512H200.671C168.496 512 143.426 484.099 146.854 452.108L152.912 395.578C156.343 363.561 156.343 331.269 152.912 299.253L148.394 257.089C144.143 217.424 175.228 182.831 215.12 182.831H361.919C401.811 182.831 432.896 217.424 428.645 257.089L424.127 299.253C420.696 331.27 420.696 363.562 424.127 395.578L430.185 452.108C433.612 484.099 408.541 512 376.367 512V512Z" fill="#CEEAFB"/>
<path d="M236.541 182.829H215.119C175.227 182.829 144.142 217.422 148.393 257.087L152.911 299.251C156.342 331.268 156.342 363.56 152.911 395.576L146.853 452.106C143.425 484.099 168.496 512 200.671 512H323.91C226.355 423.804 234.572 249.554 236.541 182.829V182.829Z" fill="#A3DEFE"/>
<path d="M430.184 452.108L424.126 395.578C420.695 363.561 420.695 331.269 424.126 299.253L425.617 285.342C341.525 308.905 225.853 261.048 150.049 272.54L152.911 299.252C156.342 331.269 156.342 363.561 152.911 395.577L146.853 452.107C143.425 484.099 168.496 512 200.671 512H376.367C408.541 512 433.612 484.099 430.184 452.108V452.108Z" fill="#7FD49D"/>
<path d="M236.525 275.993C205.034 271.476 175.324 268.707 150.049 272.539L152.911 299.251C156.342 331.268 156.342 363.56 152.911 395.576L146.853 452.106C143.425 484.099 168.496 512 200.671 512H323.91C258.252 452.642 240.506 354.306 236.525 275.993V275.993Z" fill="#5EC783"/>
<path d="M288.519 411.688C330.208 411.688 364.003 371.499 364.003 321.924C364.003 272.349 330.208 232.16 288.519 232.16C246.831 232.16 213.035 272.349 213.035 321.924C213.035 371.499 246.831 411.688 288.519 411.688Z" fill="#FBF1CF"/>
<path d="M235.815 257.671C221.763 273.973 213.034 296.734 213.034 321.924C213.034 358.597 231.53 390.128 258.032 404.059C242.053 354.747 237.001 301.884 235.815 257.671V257.671Z" fill="#F7DFB7"/>
<path d="M215.872 346.384C224.827 384.071 253.961 411.687 288.519 411.687C323.077 411.687 352.21 384.07 361.166 346.384H215.872Z" fill="#F5C9D3"/>
<path d="M244.064 346.384H215.872C222.016 372.239 237.659 393.352 258.033 404.062C251.898 385.129 247.376 365.676 244.064 346.384V346.384Z" fill="#F1AACB"/>
<path d="M303.992 307.88H273.045C268.902 307.88 265.545 304.522 265.545 300.38C265.545 296.238 268.902 292.88 273.045 292.88H303.992C308.135 292.88 311.492 296.238 311.492 300.38C311.492 304.522 308.135 307.88 303.992 307.88Z" fill="#4E5660"/>
<path d="M281.019 116.713H296.019V182.829H281.019V116.713Z" fill="#F1D88C"/>
</g>
<defs>
<clipPath id="clip0_297_155">
<rect width="512" height="512" fill="white"/>
</clipPath>
</defs>
</svg>
