<svg width="512" height="512" viewBox="0 0 512 512" fill="none" xmlns="http://www.w3.org/2000/svg">
<g clip-path="url(#clip0)">
<path d="M424.16 0C439.207 0 451.406 12.1992 451.406 27.25V253.512C451.406 288.633 437.453 322.316 412.621 347.152L286.558 473.215C260.699 499.07 226.808 512 192.918 512C158.883 512 124.848 498.961 98.9491 472.887C47.3046 420.895 48.8475 336.355 100.668 284.535L186.547 198.656V27.25C186.547 12.1992 198.746 0 213.793 0L424.16 0Z" fill="#8ED2E2"/>
<path d="M286.558 473.211L350.211 409.559C273.683 313.578 266.848 106.848 275.16 0H213.793C198.746 0 186.547 12.1992 186.547 27.25V198.656L100.668 284.535C48.8475 336.355 47.3046 420.895 98.9491 472.887C124.848 498.961 158.883 512 192.918 512C226.808 512 260.699 499.07 286.558 473.211Z" fill="#6FB6E1"/>
<path d="M68.9257 334.613C52.1953 381.367 61.8437 435.527 98.9492 472.887C124.848 498.961 158.883 512 192.918 512C207.859 512 222.797 509.481 237.051 504.453C242.535 459.567 228.051 412.699 193.594 378.242C159.531 344.18 113.344 329.645 68.9257 334.613Z" fill="#EFD176"/>
<path d="M424.16 0H213.793C198.746 0 186.547 12.1992 186.547 27.25V99.9023H451.406V27.25C451.406 12.1992 439.207 0 424.16 0Z" fill="#F7EF87"/>
<path d="M424.16 0H213.793C198.746 0 186.547 12.1992 186.547 27.25V99.9023H451.406V27.25C451.406 12.1992 439.207 0 424.16 0Z" fill="#F7EF87"/>
<path d="M275.16 0H213.793C198.746 0 186.547 12.1992 186.547 27.25V99.9023H272.707C271.863 62.3164 272.996 27.7812 275.16 0Z" fill="#EFD176"/>
<path d="M311.477 0H326.477V99.9023H311.477V0Z" fill="#EFD176"/>
<path d="M240.453 0H255.453V99.9023H240.453V0Z" fill="#F7EF87"/>
<path d="M382.5 0H397.5V99.9023H382.5V0Z" fill="#EFD176"/>
<path d="M336.137 331.07C336.137 357.387 343.988 381.863 357.469 402.301L412.617 347.152C437.453 322.316 451.406 288.633 451.406 253.508V202.297C386.578 209.414 336.137 264.348 336.137 331.07Z" fill="#F7EF87"/>
<path d="M160.875 297.449C158.953 297.449 157.035 296.715 155.57 295.25C152.641 292.32 152.641 287.574 155.57 284.645L167.07 273.148C169.996 270.219 174.746 270.219 177.676 273.148C180.605 276.074 180.605 280.824 177.676 283.754L166.176 295.25C164.711 296.715 162.793 297.449 160.875 297.449Z" fill="#8ED2E2"/>
<path d="M279.641 418.949C277.719 418.949 275.801 418.219 274.336 416.754L265.191 407.605C262.262 404.676 262.262 399.93 265.191 397C268.121 394.07 272.867 394.07 275.797 397L284.945 406.145C287.871 409.074 287.871 413.824 284.945 416.754C283.477 418.219 281.559 418.949 279.641 418.949Z" fill="#8ED2E2"/>
<path d="M265.719 314.211C263.801 314.211 261.883 313.477 260.418 312.012C257.488 309.082 257.488 304.336 260.418 301.406L269.762 292.059C272.691 289.133 277.441 289.133 280.371 292.059C283.297 294.988 283.297 299.738 280.371 302.664L271.023 312.012C269.559 313.477 267.641 314.211 265.719 314.211Z" fill="#8ED2E2"/>
<path d="M303.875 232.098C301.957 232.098 300.039 231.367 298.574 229.902L290.578 221.906C287.648 218.977 287.648 214.227 290.574 211.297C293.504 208.367 298.254 208.367 301.18 211.297L309.18 219.297C312.109 222.223 312.109 226.973 309.18 229.902C307.715 231.367 305.797 232.098 303.875 232.098Z" fill="#6FB6E1"/>
</g>
<defs>
<clipPath id="clip0">
<rect width="512" height="512" fill="white"/>
</clipPath>
</defs>
</svg>
