<svg width="512" height="512" viewBox="0 0 512 512" fill="none" xmlns="http://www.w3.org/2000/svg">
<path d="M402.936 26.2744H109.066C92.1917 26.2744 78.5127 39.9534 78.5127 56.8274V153.611H433.488V56.8274C433.489 39.9534 419.81 26.2744 402.936 26.2744Z" fill="#FBF1CF"/>
<path d="M402.936 26.2744H109.066C92.1917 26.2744 78.5127 39.9534 78.5127 56.8274V153.611H433.488V56.8274C433.489 39.9534 419.81 26.2744 402.936 26.2744Z" fill="#FBF1CF"/>
<path d="M78.5127 96.584H433.488V153.61H78.5127V96.584Z" fill="#F5E2A2"/>
<path d="M433.488 469.745H78.5124C61.5604 469.745 47.8184 456.003 47.8184 439.051V184.305C47.8184 167.353 61.5604 153.611 78.5124 153.611H433.487C450.439 153.611 464.181 167.353 464.181 184.305V439.05C464.182 456.002 450.44 469.745 433.488 469.745Z" fill="#FBF1CF"/>
<path d="M167.06 153.611H78.5124C61.5604 153.611 47.8184 167.353 47.8184 184.305V439.05C47.8184 456.002 61.5604 469.744 78.5124 469.744H237.8C184.746 404.057 168.678 278.764 167.06 153.611Z" fill="#F5E2A2"/>
<path d="M47.8184 356.082V439.05C47.8184 456.002 61.5604 469.744 78.5124 469.744H433.487C450.439 469.744 464.181 456.002 464.181 439.05V356.082H47.8184Z" fill="#8DAEE1"/>
<path d="M187.943 356.082H47.8184V439.05C47.8184 456.002 61.5604 469.744 78.5124 469.744H237.8C214.886 441.373 198.874 401.879 187.943 356.082Z" fill="#6A95D6"/>
<path d="M380.771 300.482H131.229V404.334C131.229 413.24 138.449 420.46 147.355 420.46H364.646C373.552 420.46 380.772 413.24 380.772 404.334V300.482H380.771Z" fill="#4E5660"/>
<path d="M205.721 109.583H144.931C131.533 109.583 120.671 120.445 120.671 133.843V153.611H229.981V133.843C229.981 120.444 219.12 109.583 205.721 109.583Z" fill="#4E5660"/>
<path d="M367.07 109.583H306.28C292.882 109.583 282.02 120.445 282.02 133.843V153.611H391.33V133.843C391.33 120.444 380.468 109.583 367.07 109.583Z" fill="#4E5660"/>
<path d="M155.845 512H111.754C103.358 512 96.5518 505.194 96.5518 496.798V469.745H171.048V496.798C171.047 505.194 164.241 512 155.845 512Z" fill="#4E5660"/>
<path d="M356.156 512H400.247C408.643 512 415.449 505.194 415.449 496.798V469.745H340.953V496.798C340.954 505.194 347.76 512 356.156 512Z" fill="#4E5660"/>
<path d="M151.028 224.658C159.379 216.308 159.379 202.77 151.028 194.42C142.678 186.07 129.14 186.07 120.79 194.42C112.44 202.77 112.44 216.308 120.79 224.658C129.14 233.008 142.678 233.008 151.028 224.658Z" fill="#6A95D6"/>
<path d="M234.559 217.777C239.082 206.864 233.902 194.351 222.989 189.827C212.076 185.304 199.563 190.484 195.039 201.397C190.516 212.31 195.695 224.823 206.608 229.347C217.521 233.87 230.035 228.69 234.559 217.777Z" fill="#8DAEE1"/>
<path d="M387.49 227.718C397.54 221.506 400.652 208.322 394.44 198.271C388.227 188.22 375.043 185.108 364.993 191.321C354.942 197.533 351.83 210.717 358.042 220.768C364.255 230.819 377.439 233.93 387.49 227.718Z" fill="#8DAEE1"/>
<path d="M305.587 229.237C316.5 224.714 321.68 212.2 317.156 201.287C312.633 190.374 300.119 185.194 289.206 189.718C278.293 194.241 273.113 206.755 277.637 217.668C282.16 228.581 294.674 233.761 305.587 229.237Z" fill="#6A95D6"/>
<path d="M396.114 300.482H115.886C108.585 300.482 102.666 294.563 102.666 287.262V278.704C102.666 271.403 108.585 265.484 115.886 265.484H396.115C403.416 265.484 409.335 271.403 409.335 278.704V287.262C409.334 294.563 403.415 300.482 396.114 300.482Z" fill="#8DAEE1"/>
<path d="M131.229 300.482H380.772V328.198H131.229V300.482Z" fill="#383C43"/>
</svg>
