<svg width="512" height="512" viewBox="0 0 512 512" fill="none" xmlns="http://www.w3.org/2000/svg">
<path d="M403.764 281.301L402.348 274.276L406.983 275.563L411.877 281.301H403.764Z" fill="#EEC3CA"/>
<path d="M237.301 300.555L125.758 331.174V365.074L237.301 389.996L348.844 365.074V331.174L237.301 300.555Z" fill="#FDD974"/>
<path d="M166.966 365.074V331.174L257.905 306.21L237.301 300.555L125.758 331.174V365.074L237.301 389.996L257.905 385.393L166.966 365.074Z" fill="#E6C468"/>
<path d="M417.829 332.947C411.474 332.947 405.426 329.232 402.754 323.024C394.463 303.758 399.611 280.555 415.871 263.913C425.544 254.014 437.635 248.106 449.326 242.393C470.073 232.254 478.58 226.786 479.17 213.305C479.594 203.615 474.091 196.265 465.151 194.58C444.761 190.743 421.227 200.201 402.997 208.874C394.815 212.769 385.03 209.288 381.138 201.11C377.245 192.929 380.722 183.143 388.902 179.251C411.628 168.438 441.527 156.747 471.226 162.342C496.345 167.077 513.087 188.624 511.944 214.74C510.444 249.04 483.444 262.234 463.73 271.869C454.119 276.566 445.044 281.001 439.334 286.844C434.07 292.232 429.223 301.544 432.887 310.057C436.468 318.378 432.625 328.027 424.305 331.608C422.192 332.516 419.992 332.947 417.829 332.947Z" fill="#FDD974"/>
<path d="M471.227 162.339C441.528 156.743 411.628 168.435 388.903 179.248C380.721 183.14 377.245 192.927 381.139 201.107C385.03 209.287 394.817 212.767 402.998 208.873C418.403 201.543 437.595 193.656 455.476 193.702C458.447 181.921 463.065 175.542 472.895 169.969L481.186 165.268C478.043 163.992 474.72 162.998 471.227 162.339Z" fill="#E6C468"/>
<path d="M16.9512 143.082C86.3912 182.45 14.2172 272.121 125.759 331.173H348.845C460.388 272.121 388.213 182.45 457.654 143.082L237.302 126.131L16.9512 143.082Z" fill="#E3E6E8"/>
<path d="M58.1572 143.083L257.905 127.718L237.301 126.133L16.9502 143.083C86.3912 182.45 14.2172 272.121 125.759 331.173H166.966C55.4242 272.122 127.598 182.45 58.1572 143.083Z" fill="#CCCED0"/>
<path d="M457.653 109.182H16.951C7.588 109.182 0 116.771 0 126.133C0 135.494 7.588 143.084 16.951 143.084H457.653C467.014 143.084 474.604 135.496 474.604 126.133C474.602 116.771 467.014 109.182 457.653 109.182Z" fill="#FDD974"/>
<path d="M41.207 126.133C41.207 116.772 48.795 109.182 58.157 109.182H16.95C7.589 109.182 0 116.771 0 126.133C0 135.494 7.588 143.084 16.95 143.084H58.157C48.796 143.083 41.207 135.494 41.207 126.133Z" fill="#E6C468"/>
<path d="M114.866 168.594H95.8249C87.9369 168.594 81.5439 174.988 81.5439 182.875V232.638C81.5439 240.526 87.9379 246.919 95.8249 246.919H114.866C122.753 246.919 129.147 240.525 129.147 232.638V182.875C129.148 174.987 122.753 168.594 114.866 168.594Z" fill="#BF7CBF"/>
<path d="M105.346 186.532C101.078 186.532 97.6201 183.073 97.6201 178.806V104.809C97.6201 100.542 101.078 97.083 105.346 97.083C109.614 97.083 113.072 100.542 113.072 104.809V178.806C113.073 183.073 109.613 186.532 105.346 186.532Z" fill="#3B484A"/>
<path d="M459.341 365.074H15.2619C8.10287 365.074 3.84587 373.066 7.84687 379.002C17.7869 393.749 37.4549 414.918 68.4559 414.918H406.149C437.149 414.918 456.817 393.748 466.758 379.002C470.758 373.066 466.499 365.074 459.341 365.074Z" fill="#E3E6E8"/>
<path d="M49.0529 379.002C45.0519 373.066 49.3109 365.074 56.4679 365.074H15.2609C8.10189 365.074 3.84489 373.066 7.84589 379.002C17.7859 393.748 37.4539 414.918 68.4549 414.918H109.662C78.6619 414.919 58.9929 393.749 49.0529 379.002Z" fill="#CCCED0"/>
</svg>
