<svg width="512" height="512" viewBox="0 0 512 512" fill="none" xmlns="http://www.w3.org/2000/svg">
<g clip-path="url(#clip0)">
<path d="M251.495 101.825C270.617 101.825 286.118 86.3234 286.118 67.2015C286.118 48.0795 270.617 32.5781 251.495 32.5781C232.373 32.5781 216.872 48.0795 216.872 67.2015C216.872 86.3234 232.373 101.825 251.495 101.825Z" fill="#FFBDD7"/>
<path d="M247.777 67.2015C247.777 53.635 255.585 41.8971 266.948 36.2188C262.295 33.8937 257.05 32.5781 251.495 32.5781C232.373 32.5781 216.872 48.0793 216.872 67.2015C216.872 86.3237 232.373 101.824 251.495 101.824C257.05 101.824 262.295 100.508 266.948 98.1831C255.585 92.5048 247.777 80.7679 247.777 67.2015Z" fill="#FF97C0"/>
<path d="M35.1569 182.708C31.6707 175.319 22.3847 172.796 15.5144 177.219L11.4606 179.83C3.63538 184.868 -0.766583 193.849 0.109071 203.114C7.61806 282.598 71.4223 311.053 71.4223 311.053L94.7456 230.537C94.7456 230.537 52.3207 219.095 35.1569 182.708Z" fill="#FFBDD7"/>
<path d="M385.344 367.283L367.888 331.972L460.539 286.167C469.194 281.889 474.012 272.27 472.255 262.776C471.069 256.352 467.283 251.046 461.596 247.833C455.908 244.619 449.408 244.116 443.295 246.412L388.927 266.839L375.073 229.963L429.441 209.537C446.411 203.162 465.192 204.62 480.975 213.537C496.755 222.453 507.696 237.79 510.991 255.614C515.934 282.345 502.367 309.43 477.997 321.478L385.344 367.283Z" fill="#FFBDD7"/>
<path d="M470.441 276.117C468.389 280.377 464.973 283.974 460.539 286.166L367.888 331.969L385.344 367.281L467.828 326.503C471.745 310.059 472.671 292.953 470.441 276.117Z" fill="#FF97C0"/>
<path d="M388.927 266.838L443.295 246.411C449.408 244.115 455.908 244.618 461.596 247.832C462.641 248.422 463.62 249.085 464.532 249.81C459.341 232.517 452.579 217.685 446.081 205.824C440.454 206.275 434.856 207.503 429.441 209.537L375.073 229.963L388.927 266.838Z" fill="#FF97C0"/>
<path d="M29.8339 262.192C28.9036 266.216 28.165 270.269 27.5942 274.34C47.7868 300.51 71.4223 311.052 71.4223 311.052L94.7456 230.536C94.7456 230.536 70.6187 224.026 51.3935 205.221C43.3622 220.194 35.0795 239.492 29.8339 262.192Z" fill="#FF97C0"/>
<path d="M443.044 269.15C431.896 220.912 405.183 190.814 405.183 190.814L251.494 164.431L97.8052 190.815C97.8052 190.815 71.0927 220.913 59.9451 269.151C52.9769 299.304 58.8387 331.005 75.9046 356.823C96.8853 388.564 132.395 407.657 170.443 407.657L251.494 443.54L332.544 407.657C370.593 407.657 406.102 388.564 427.083 356.823C444.15 331.005 450.012 299.304 443.044 269.15Z" fill="#ECECEC"/>
<path d="M201.35 407.656C163.301 407.656 127.792 388.563 106.811 356.822C89.7451 331.004 83.8823 299.304 90.8515 269.149C101.999 220.912 128.712 190.813 128.712 190.813H97.8062C97.8062 190.813 71.0936 220.912 59.946 269.149C52.9779 299.303 58.8396 331.004 75.9056 356.822C96.8863 388.563 132.396 407.656 170.444 407.656H201.35Z" fill="#DEDEDC"/>
<path d="M97.8052 138.048C97.8052 138.048 149.409 66.2168 251.495 66.2168C353.581 66.2168 405.184 138.048 405.184 138.048L251.495 164.431L97.8052 138.048Z" fill="#ECECEC"/>
<path d="M128.711 138.048C128.711 138.048 175.114 73.4775 266.948 66.7855C261.93 66.4197 256.784 66.2168 251.495 66.2168C149.41 66.2168 97.8052 138.048 97.8052 138.048H128.711Z" fill="#DEDEDC"/>
<path d="M405.183 138.048H97.8053C83.2344 138.048 71.4224 149.86 71.4224 164.431C71.4224 179.002 83.2344 190.814 97.8053 190.814H405.183C419.754 190.814 431.566 179.002 431.566 164.431C431.568 149.86 419.755 138.048 405.183 138.048Z" fill="#FFBDD7"/>
<path d="M102.328 164.431C102.328 149.86 114.14 138.048 128.711 138.048H97.8053C83.2344 138.048 71.4224 149.86 71.4224 164.431C71.4224 179.003 83.2344 190.814 97.8053 190.814H128.711C114.14 190.815 102.328 179.003 102.328 164.431Z" fill="#FF97C0"/>
<path d="M477.62 407.656H25.3701C15.8368 407.656 8.1084 415.385 8.1084 424.918C8.1084 455.019 32.5103 479.421 62.6112 479.421H440.38C470.48 479.421 494.882 455.019 494.882 424.918C494.881 415.385 487.153 407.656 477.62 407.656Z" fill="#FFBDD7"/>
<path d="M39.0138 424.919C39.0138 415.386 46.7422 407.658 56.2755 407.658H25.3701C15.8368 407.658 8.1084 415.386 8.1084 424.919C8.1084 455.02 32.5103 479.422 62.6112 479.422H93.5166C63.4157 479.422 39.0138 455.02 39.0138 424.919Z" fill="#FF97C0"/>
</g>
<defs>
<clipPath id="clip0">
<rect width="512" height="512" fill="white"/>
</clipPath>
</defs>
</svg>
