<svg width="512" height="512" viewBox="0 0 512 512" fill="none" xmlns="http://www.w3.org/2000/svg">
<path d="M141.866 512H89.0603C81.1503 512 74.7383 505.588 74.7383 497.678V466.463H156.188V497.678C156.188 505.588 149.776 512 141.866 512Z" fill="#4E5660"/>
<path d="M370.134 512H422.94C430.85 512 437.262 505.588 437.262 497.678V466.463H355.812V497.678C355.812 505.588 362.224 512 370.134 512Z" fill="#4E5660"/>
<path d="M15.784 290.433H74.737V339.644H15.784C7.067 339.644 0 332.577 0 323.859V306.217C0 297.5 7.067 290.433 15.784 290.433Z" fill="#4E5660"/>
<path d="M496.217 290.433H437.264V339.644H496.217C504.935 339.644 512.001 332.577 512.001 323.86V306.218C512.001 297.5 504.934 290.433 496.217 290.433Z" fill="#4E5660"/>
<path d="M111.695 258.248V160.24C70.8536 87.882 125.554 0 210.634 0C226.398 0 241.826 3.164 256 9.158C270.174 3.164 285.602 0 301.366 0C386.462 0 441.138 87.899 400.305 160.242V258.249C400.305 287.978 376.205 312.079 346.475 312.079H165.525C135.795 312.078 111.695 287.978 111.695 258.248Z" fill="#E0B799"/>
<path d="M216.419 0.144C214.496 0.049 212.567 0 210.633 0C125.554 0 70.8541 87.882 111.694 160.241V258.249C111.694 287.978 135.794 312.079 165.524 312.079H285.357C189.657 229.857 181.141 48.845 216.419 0.144Z" fill="#D1986F"/>
<path d="M368.836 108.398C368.836 73.4942 338.629 45.1992 301.367 45.1992C283.9 45.1992 267.983 51.4172 256.001 61.6182C244.019 51.4162 228.102 45.1992 210.635 45.1992C173.373 45.1992 143.166 73.4942 143.166 108.398C143.166 122.755 148.285 135.988 156.896 146.599V255.213C156.896 261.656 162.119 266.879 168.562 266.879H343.442C349.885 266.879 355.108 261.656 355.108 255.213V146.599C363.717 135.988 368.836 122.755 368.836 108.398Z" fill="#FBF1CF"/>
<path d="M200.432 45.918C168.011 50.524 143.164 76.742 143.164 108.398C143.164 122.755 148.283 135.988 156.894 146.599V255.213C156.894 261.656 162.117 266.879 168.56 266.879H246.516C202.559 198.705 190.88 105.443 200.432 45.918Z" fill="#F5E2A2"/>
<path d="M316.182 167.217C320.276 166.249 322.81 162.145 321.843 158.051C320.875 153.957 316.771 151.422 312.677 152.39C308.583 153.358 306.048 157.462 307.016 161.556C307.984 165.65 312.087 168.185 316.182 167.217Z" fill="#F5E2A2"/>
<path d="M303.83 103.618C308.038 103.618 311.449 100.207 311.449 95.9989C311.449 91.791 308.038 88.3799 303.83 88.3799C299.622 88.3799 296.211 91.791 296.211 95.9989C296.211 100.207 299.622 103.618 303.83 103.618Z" fill="#F5E2A2"/>
<path d="M194.84 103.618C199.048 103.618 202.459 100.207 202.459 95.9989C202.459 91.791 199.048 88.3799 194.84 88.3799C190.632 88.3799 187.221 91.791 187.221 95.9989C187.221 100.207 190.632 103.618 194.84 103.618Z" fill="#FBF1CF"/>
<path d="M234.196 152.899C238.349 152.226 241.17 148.313 240.497 144.16C239.824 140.007 235.911 137.186 231.758 137.859C227.605 138.532 224.784 142.445 225.457 146.598C226.131 150.751 230.043 153.572 234.196 152.899Z" fill="#F5E2A2"/>
<path d="M437.263 407.226H74.7383V260.139C74.7383 225.216 103.049 196.905 137.972 196.905H374.028C408.951 196.905 437.262 225.216 437.262 260.139V407.226H437.263Z" fill="#A2DDFD"/>
<path d="M191.142 196.905H137.972C103.049 196.905 74.7383 225.216 74.7383 260.139V407.226H224.737C181.912 351.735 181.15 241.541 191.142 196.905Z" fill="#7ACDF9"/>
<path d="M451.535 407.226H60.4676C49.1946 407.226 40.0566 416.364 40.0566 427.637V446.053C40.0566 457.326 49.1946 466.464 60.4676 466.464H451.535C462.807 466.464 471.946 457.326 471.946 446.053V427.637C471.945 416.364 462.807 407.226 451.535 407.226Z" fill="#6A95D6"/>
</svg>
