<svg width="512" height="512" viewBox="0 0 512 512" fill="none" xmlns="http://www.w3.org/2000/svg">
<g clip-path="url(#clip0)">
<path d="M305.419 151.564C315.847 100.341 273.062 36.8594 185.525 36.8594C97.9876 36.8594 55.2026 100.341 65.6306 151.564H305.419Z" fill="#5EC783"/>
<path d="M273.516 109.19C254.724 88.9666 243.838 52.9506 253.304 9.30862C255.189 0.616617 265.495 -2.89438 272.399 2.71262C290.262 17.2186 322.484 17.2106 345.748 40.4756C365.261 59.9886 365.216 91.6526 345.616 111.112C325.415 131.166 292.892 130.041 273.516 109.19Z" fill="#5EC783"/>
<path d="M437.535 110.446C456.328 90.224 467.212 54.208 457.746 10.565C455.861 1.87301 445.556 -1.63699 438.652 3.96901C420.789 18.475 388.567 18.467 365.303 41.732C345.79 61.245 345.834 92.91 365.434 112.368C385.635 132.422 418.159 131.297 437.535 110.446Z" fill="#5EC783"/>
<path d="M444.89 158.77C454.829 109.947 414.049 49.4414 330.615 49.4414C247.181 49.4414 206.4 109.948 216.34 158.77H444.89Z" fill="#7FD49D"/>
<path d="M440.66 205.57H71.3418L108.835 468.159C112.427 493.314 133.97 511.999 159.38 511.999H352.622C378.032 511.999 399.575 493.314 403.167 468.158L440.66 205.57Z" fill="#CEEAFB"/>
<path d="M440.66 205.57H71.3418L108.835 468.159C112.427 493.314 133.97 511.999 159.38 511.999H352.622C378.032 511.999 399.575 493.314 403.167 468.158L440.66 205.57Z" fill="#CEEAFB"/>
<path d="M81.0938 273.869H430.908L440.66 205.57H71.3418L81.0938 273.869Z" fill="#A3DEFE"/>
<path d="M162.324 311.781L146.263 164.747C144.63 149.799 155.424 136.357 170.373 134.724C185.327 133.098 198.764 143.886 200.396 158.834L216.457 305.868C218.089 320.816 207.296 334.258 192.347 335.891C177.397 337.524 163.958 326.729 162.324 311.781Z" fill="#A3DEFE"/>
<path d="M158.183 273.869H212.962L205.501 205.57H150.723L158.183 273.869Z" fill="#7ACEFA"/>
<path d="M319.654 335.89C304.706 334.257 293.912 320.815 295.544 305.867L311.605 158.833C313.238 143.885 326.668 133.088 341.628 134.723C356.576 136.356 367.37 149.798 365.738 164.746L349.677 311.78C348.047 326.703 334.63 337.523 319.654 335.89Z" fill="#A3DEFE"/>
<path d="M299.039 273.869H353.818L361.278 205.57H306.5L299.039 273.869Z" fill="#7ACEFA"/>
<path d="M464.155 205.571H47.8469C34.4909 205.571 24.3389 193.565 26.5599 180.394L33.0879 141.678C34.8399 131.287 43.8379 123.68 54.3749 123.68H457.626C468.163 123.68 477.161 131.287 478.913 141.678L485.441 180.394C487.662 193.564 477.511 205.571 464.155 205.571Z" fill="#CEEAFB"/>
<path d="M107.65 459.857L108.835 468.158C112.427 493.313 133.97 511.999 159.38 511.999H352.622C378.032 511.999 399.575 493.313 403.167 468.158L404.352 459.857H107.65Z" fill="#A3DEFE"/>
</g>
<defs>
<clipPath id="clip0">
<rect width="512" height="512" fill="white"/>
</clipPath>
</defs>
</svg>
