<svg width="512" height="512" viewBox="0 0 512 512" fill="none" xmlns="http://www.w3.org/2000/svg">
<path d="M92.0547 88.207H420.912V394.206H92.0547V88.207Z" fill="#E0B799"/>
<path d="M92.0547 88.207V394.206H224.11C166.485 339.615 169.174 149.374 176.726 88.207H92.0547Z" fill="#D1986F"/>
<path d="M92.0547 394.206V466.216C92.0547 472.402 97.0692 477.418 103.257 477.418H127.823C134.009 477.418 139.024 472.402 139.024 466.216V443.794C139.024 439.049 142.296 434.929 146.92 433.865C164.983 429.705 178.453 413.533 178.453 394.206H92.0547Z" fill="#E0B799"/>
<path d="M420.91 394.206V466.216C420.91 472.402 415.895 477.418 409.709 477.418H385.143C378.956 477.418 373.941 472.402 373.941 466.216V443.794C373.941 439.049 370.669 434.929 366.045 433.865C347.982 429.705 334.512 413.533 334.512 394.206H420.91Z" fill="#D1986F"/>
<path d="M248.113 88.207H264.851V394.205H248.113V88.207Z" fill="#D1986F"/>
<path d="M203.236 220.658H168.113C161.331 220.658 155.833 226.156 155.833 232.938V249.475C155.833 256.257 161.331 261.754 168.113 261.754H203.236C210.018 261.754 215.515 256.257 215.515 249.475V232.938C215.515 226.156 210.018 220.658 203.236 220.658Z" fill="#F6EE86"/>
<path d="M309.73 220.658H344.853C351.635 220.658 357.133 226.156 357.133 232.938V249.475C357.133 256.257 351.635 261.754 344.853 261.754H309.73C302.948 261.754 297.45 256.257 297.45 249.475V232.938C297.45 226.156 302.948 220.658 309.73 220.658Z" fill="#F6EE86"/>
<path d="M434.432 35H78.5326C67.7448 35 59 43.7448 59 54.5326V68.6735C59 79.4614 67.7448 88.2062 78.5326 88.2062H434.432C445.22 88.2062 453.965 79.4614 453.965 68.6735V54.5326C453.965 43.7448 445.219 35 434.432 35Z" fill="#FBF1CF"/>
<path d="M200.095 35H78.5326C67.7448 35 59 43.7448 59 54.5326V68.6735C59 79.4614 67.7448 88.2062 78.5326 88.2062H204.375C193.729 79.1478 191.526 53.6879 200.095 35Z" fill="#F5E2A2"/>
</svg>
