<svg width="512" height="512" viewBox="0 0 512 512" fill="none" xmlns="http://www.w3.org/2000/svg">
<g clip-path="url(#clip0_293_70)">
<path d="M363.44 227.016H148.56V495.711C148.56 504.707 155.853 512 164.849 512H347.152C356.148 512 363.441 504.707 363.441 495.711L363.44 227.016Z" fill="#C584E8"/>
<g opacity="0.3">
<path opacity="0.3" d="M363.44 227.016H148.56V495.711C148.56 504.707 155.853 512 164.849 512H347.152C356.148 512 363.441 504.707 363.441 495.711L363.44 227.016Z" fill="white"/>
</g>
<path d="M307.935 98.3388V52.2578H204.066V98.3388C204.066 100.968 202.631 103.385 200.321 104.642C163.559 124.644 137.079 163.831 131.87 210.207C130.862 219.18 137.951 227.017 146.981 227.017H365.019C374.049 227.017 381.137 219.181 380.13 210.207C374.922 163.831 348.442 124.644 311.679 104.642C309.37 103.385 307.935 100.967 307.935 98.3388Z" fill="#C584E8"/>
<g opacity="0.3">
<path opacity="0.3" d="M307.935 98.3388V52.2578H204.066V98.3388C204.066 100.968 202.631 103.385 200.321 104.642C163.559 124.644 137.079 163.831 131.87 210.207C130.862 219.18 137.951 227.017 146.981 227.017H365.019C374.049 227.017 381.137 219.181 380.13 210.207C374.922 163.831 348.442 124.644 311.679 104.642C309.37 103.385 307.935 100.967 307.935 98.3388Z" fill="white"/>
</g>
<g opacity="0.1">
<path opacity="0.1" d="M380.13 210.206C374.922 163.83 348.442 124.643 311.679 104.641C309.37 103.385 307.934 100.967 307.934 98.3378V52.2568H204.066V93.9818H275.424C276.884 93.9818 278.067 95.1648 278.067 96.6248V98.5138C278.067 101.043 279.455 103.362 281.679 104.568C318.529 124.558 345.075 163.813 350.271 210.276C351.271 219.222 344.154 227.015 335.152 227.015H365.02C374.049 227.016 381.138 219.18 380.13 210.206Z" fill="black"/>
</g>
<path d="M314.756 52.258H197.245C192.471 52.258 188.601 48.388 188.601 43.614V8.644C188.601 3.87 192.471 0 197.245 0H314.756C319.53 0 323.4 3.87 323.4 8.644V43.614C323.399 48.388 319.529 52.258 314.756 52.258Z" fill="#E4E7E9"/>
<g opacity="0.1">
<path opacity="0.1" d="M314.756 0H295.538C300.312 0 304.182 3.87 304.182 8.644V43.614C304.182 48.388 300.312 52.258 295.538 52.258H314.756C319.53 52.258 323.4 48.388 323.4 43.614V8.644C323.399 3.87 319.529 0 314.756 0Z" fill="black"/>
</g>
<path d="M363.44 227.02H148.56V433.55H363.44V227.02Z" fill="#E4E7E9"/>
<path d="M363.44 227.02H148.56V309.965H363.44V227.02Z" fill="#C584E8"/>
<path d="M213.894 400.168H195.273C188.514 400.168 183.035 394.689 183.035 387.93V309.961H226.131V387.93C226.132 394.689 220.653 400.168 213.894 400.168Z" fill="#3E4B58"/>
<path d="M213.894 265.207H195.273C188.514 265.207 183.035 270.686 183.035 277.445V309.961H226.131V277.445C226.132 270.686 220.653 265.207 213.894 265.207Z" fill="white"/>
<path d="M320.274 286.755H263.963C259.82 286.755 256.463 283.398 256.463 279.255C256.463 275.112 259.82 271.755 263.963 271.755H320.274C324.417 271.755 327.774 275.112 327.774 279.255C327.774 283.398 324.417 286.755 320.274 286.755Z" fill="#3E4B58"/>
<path d="M295.333 344.822H263.964C259.821 344.822 256.464 341.465 256.464 337.322C256.464 333.179 259.821 329.822 263.964 329.822H295.333C299.476 329.822 302.833 333.179 302.833 337.322C302.833 341.465 299.476 344.822 295.333 344.822Z" fill="#3E4B58"/>
<path d="M295.333 377.008H263.964C259.821 377.008 256.464 373.651 256.464 369.508C256.464 365.365 259.821 362.008 263.964 362.008H295.333C299.476 362.008 302.833 365.365 302.833 369.508C302.833 373.651 299.476 377.008 295.333 377.008Z" fill="#3E4B58"/>
<path d="M316.349 86.3525H195.651C191.509 86.3525 188.151 82.9955 188.151 78.8525C188.151 74.7095 191.509 71.3525 195.651 71.3525H316.349C320.492 71.3525 323.849 74.7095 323.849 78.8525C323.849 82.9955 320.491 86.3525 316.349 86.3525Z" fill="#C584E8"/>
<g opacity="0.3">
<path opacity="0.3" d="M316.349 86.3525H195.651C191.509 86.3525 188.151 82.9955 188.151 78.8525C188.151 74.7095 191.509 71.3525 195.651 71.3525H316.349C320.492 71.3525 323.849 74.7095 323.849 78.8525C323.849 82.9955 320.491 86.3525 316.349 86.3525Z" fill="white"/>
</g>
<g opacity="0.1">
<path opacity="0.1" d="M218.92 18.6289C214.778 18.6289 211.42 21.9859 211.42 26.1289V52.2579H226.42V26.1289C226.42 21.9859 223.062 18.6289 218.92 18.6289ZM256 18.6289C251.858 18.6289 248.5 21.9859 248.5 26.1289V52.2579H263.5V26.1289C263.5 21.9859 260.143 18.6289 256 18.6289ZM293.08 18.6289C288.937 18.6289 285.58 21.9859 285.58 26.1289V52.2579H300.58V26.1289C300.58 21.9859 297.223 18.6289 293.08 18.6289Z" fill="black"/>
</g>
<g opacity="0.1">
<path opacity="0.1" d="M148.56 227.016V246.737H334.278V470.223C334.278 478.297 327.732 484.843 319.658 484.843H148.56V495.711C148.56 504.707 155.853 512 164.849 512H347.152C356.148 512 363.441 504.707 363.441 495.711V227.016H148.56Z" fill="black"/>
</g>
</g>
<defs>
<clipPath id="clip0_293_70">
<rect width="512" height="512" fill="white"/>
</clipPath>
</defs>
</svg>
