<svg width="512" height="512" viewBox="0 0 512 512" fill="none" xmlns="http://www.w3.org/2000/svg">
<path d="M255.944 197.891L115.262 276.676V310.541L140.881 421.906L255.944 441.934L371.007 421.906L396.625 310.541V274.777L255.944 197.891Z" fill="#FFCE1C"/>
<path d="M344.105 107.089C396.626 88.4988 385.832 189.779 317.138 186.639L344.105 107.089Z" fill="#00AD94"/>
<path d="M255.944 341.956C276.96 341.956 293.997 324.919 293.997 303.903C293.997 282.887 276.96 265.85 255.944 265.85C234.928 265.85 217.891 282.887 217.891 303.903C217.891 324.919 234.928 341.956 255.944 341.956Z" fill="#3B484A"/>
<path d="M255.944 397.983C264.696 397.983 271.792 390.888 271.792 382.135C271.792 373.383 264.696 366.287 255.944 366.287C247.191 366.287 240.096 373.383 240.096 382.135C240.096 390.888 247.191 397.983 255.944 397.983Z" fill="#FAA330"/>
<path d="M277.386 441.937H234.495V512H277.386V441.937Z" fill="#FFCE1C"/>
<path d="M344.254 96.1401C345.114 132.679 332.334 171.53 308.814 196.71H203.074C179.554 171.53 166.774 132.68 167.634 96.1401H344.254Z" fill="#2FC8B4"/>
<path d="M344.254 96.14C320.114 113.26 289.394 123.5 255.944 123.5C222.494 123.5 191.774 113.26 167.634 96.14C168.793 45.89 195.734 0 255.944 0C316.154 0 343.094 45.89 344.254 96.14Z" fill="#FFCE1C"/>
<path d="M192.358 96.1401H167.634C167.607 97.2808 167.593 98.4251 167.593 99.5731C167.593 101.865 167.645 104.163 167.749 106.466C167.758 106.678 167.777 106.891 167.787 107.104V107.091C115.266 88.5021 126.06 189.781 194.754 186.641L194.713 186.52C195.23 187.227 195.733 187.949 196.264 188.641C196.5 188.949 196.735 189.258 196.974 189.563C198.921 192.048 200.954 194.431 203.074 196.711H227.798C204.278 171.53 191.498 132.68 192.358 96.1401Z" fill="#00AD94"/>
<path d="M192.703 110.346C192.367 105.595 192.248 100.846 192.358 96.14C193.435 49.47 216.758 6.57 268.297 0.69C267.343 0.582 266.379 0.485333 265.406 0.4C262.26 0.133333 259.106 0 255.944 0C227.72 0 206.807 10.083 192.433 25.972C175.305 44.905 168.227 71.015 167.633 96.072C167.633 96.095 167.633 96.117 167.633 96.141C175.494 101.701 183.893 106.46 192.703 110.346Z" fill="#FAA330"/>
<path d="M215.66 72.661C213.611 72.661 211.645 71.847 210.196 70.3981C208.748 68.9492 207.934 66.984 207.934 64.935V57.644C207.934 55.5949 208.748 53.6298 210.196 52.1809C211.645 50.732 213.611 49.918 215.66 49.918C217.709 49.918 219.674 50.732 221.123 52.1809C222.572 53.6298 223.386 55.5949 223.386 57.644V64.935C223.385 66.9839 222.571 68.9489 221.122 70.3978C219.674 71.8466 217.709 72.6607 215.66 72.661Z" fill="#3B484A"/>
<path d="M296.227 72.661C294.178 72.661 292.213 71.847 290.764 70.3981C289.315 68.9492 288.501 66.984 288.501 64.935V57.644C288.501 55.5949 289.315 53.6298 290.764 52.1809C292.213 50.732 294.178 49.918 296.227 49.918C298.277 49.918 300.242 50.732 301.691 52.1809C303.139 53.6298 303.953 55.5949 303.953 57.644V64.935C303.953 66.984 303.139 68.9492 301.691 70.3981C300.242 71.847 298.277 72.661 296.227 72.661Z" fill="#3B484A"/>
<path d="M237.301 74.7891C236.736 78.9373 237.236 83.1609 238.755 87.0623C240.274 90.9636 242.76 94.4142 245.981 97.0891C248.745 99.4882 252.283 100.809 255.943 100.809C259.604 100.809 263.141 99.4882 265.906 97.0891C269.126 94.4143 271.613 90.9637 273.132 87.0624C274.65 83.161 275.151 78.9373 274.586 74.7891H237.301Z" fill="#F09318"/>
<path d="M274.587 74.7892C269.083 78.5142 262.59 80.5051 255.944 80.5051C249.298 80.5051 242.805 78.5142 237.301 74.7892C238.752 63.5342 247.301 53.8892 255.944 53.8892C264.587 53.8892 273.136 63.5332 274.587 74.7892Z" fill="#FAA330"/>
<path d="M115.262 276.675V310.541L121.122 336.013C123.854 335.119 126.469 333.9 128.911 332.382L255.944 252.995L382.977 332.382C385.418 333.901 388.033 335.12 390.766 336.013L396.626 310.541V274.777L255.944 197.891L115.262 276.675Z" fill="#FAA330"/>
<path d="M423.123 268.141L269.192 171.941C265.218 169.458 260.627 168.142 255.942 168.142C251.256 168.142 246.665 169.458 242.692 171.941L88.7626 268.141C86.4851 269.566 84.8667 271.836 84.2631 274.454C83.6594 277.072 84.12 279.822 85.5436 282.1L101.302 307.314C102.726 309.593 104.997 311.213 107.616 311.817C110.234 312.422 112.986 311.961 115.265 310.537L255.944 222.624L396.626 310.541C398.905 311.965 401.656 312.426 404.275 311.821C406.893 311.217 409.164 309.597 410.589 307.318L426.349 282.1C427.77 279.821 428.229 277.07 427.624 274.453C427.02 271.836 425.4 269.565 423.123 268.141Z" fill="#FF5E6B"/>
<path d="M277.386 441.937H234.495V487.718H277.386V441.937Z" fill="#FAA330"/>
<path d="M378.228 421.906H133.659C130.707 421.906 127.877 423.079 125.79 425.166C123.703 427.252 122.531 430.083 122.531 433.034V450.834C122.531 453.786 123.703 456.616 125.79 458.703C127.877 460.79 130.707 461.962 133.659 461.962H378.227C381.178 461.962 384.009 460.79 386.095 458.703C388.182 456.616 389.355 453.786 389.355 450.834V433.034C389.355 431.573 389.067 430.126 388.508 428.776C387.949 427.426 387.129 426.199 386.096 425.166C385.063 424.132 383.836 423.313 382.486 422.753C381.136 422.194 379.689 421.906 378.228 421.906Z" fill="#FF5E6B"/>
</svg>
