<svg width="512" height="512" viewBox="0 0 512 512" fill="none" xmlns="http://www.w3.org/2000/svg">
<path d="M292.565 155.451C301.598 155.447 310.527 153.526 318.763 149.814C326.998 146.103 334.352 140.686 340.338 133.922C346.325 127.158 350.807 119.2 353.49 110.575C356.172 101.949 356.994 92.8527 355.9 83.8863C354.805 74.9199 351.821 66.2878 347.143 58.5605C342.465 50.8333 336.2 44.1868 328.763 39.0604C321.326 33.934 312.885 30.4445 303.999 28.8224C295.113 27.2003 285.984 27.4827 277.215 29.6508C271.646 21.8721 264.398 15.4456 256.008 10.847C247.619 6.24833 238.303 3.5953 228.749 3.08426C219.196 2.57321 209.65 4.21724 200.818 7.89464C191.986 11.572 184.094 17.1887 177.726 24.3288C166.414 18.6054 153.654 16.3803 141.073 17.937C128.492 19.4937 116.659 24.7618 107.083 33.0697C97.5079 41.3775 90.6232 52.3488 87.3071 64.5846C83.991 76.8205 84.3938 89.7667 88.4642 101.773C83.7082 98.5821 78.2709 96.5502 72.5881 95.8398C66.9053 95.1295 61.1351 95.7605 55.7401 97.6823C50.3452 99.6041 45.4755 102.763 41.5216 106.906C37.5677 111.05 34.6395 116.061 32.9719 121.54C31.3042 127.019 30.9435 132.813 31.9185 138.456C32.8936 144.099 35.1773 149.436 38.5866 154.038C41.996 158.639 46.4361 162.378 51.5509 164.954C56.6658 167.531 62.3131 168.873 68.0402 168.873H268.6L292.565 155.451Z" fill="#00AE95"/>
<path d="M133.985 349.561C133.985 349.561 64.2764 294.528 66.3404 234.913L100.14 210.928L125.722 234.913C130.369 271.807 201.259 301.459 201.259 301.459L202.853 349.559H133.984L133.985 349.561Z" fill="#C86D5C"/>
<path d="M119.3 322.368L110.35 327.203C117.703 335.193 125.602 342.664 133.988 349.562H202.857L201.263 301.462C191.063 297.005 181.174 291.868 171.663 286.084C155.254 299.622 137.739 311.759 119.3 322.368Z" fill="#B24D40"/>
<path d="M342.6 349.561C342.6 349.561 385.459 280.121 381.844 210.927L335.888 184.095L269.788 210.927C236.741 294.063 133.988 349.561 133.988 349.561L257.4 370.319L342.6 349.561Z" fill="#C86D5C"/>
<path d="M117.979 462.966V497.949C117.979 501.792 119.505 505.477 122.222 508.194C124.939 510.912 128.625 512.439 132.468 512.439H188.368C192.211 512.439 195.896 510.912 198.613 508.195C201.331 505.477 202.858 501.792 202.858 497.949V462.966H117.979Z" fill="#FAA330"/>
<path d="M159.187 497.949V462.966H117.979V497.949C117.979 501.792 119.506 505.477 122.223 508.194C124.94 510.912 128.626 512.439 132.468 512.439H173.675C169.833 512.438 166.148 510.911 163.43 508.194C160.713 505.477 159.187 501.792 159.187 497.949Z" fill="#F09318"/>
<path d="M396.817 462.966V497.949C396.817 501.792 395.291 505.477 392.573 508.195C389.856 510.912 386.17 512.439 382.327 512.439H326.427C322.585 512.439 318.899 510.912 316.182 508.195C313.464 505.477 311.938 501.792 311.938 497.949V462.966H396.817Z" fill="#FAA330"/>
<path d="M15.4194 391.077C15.4194 391.077 36.7374 480.819 117.979 480.819H396.818C478.06 480.819 499.378 391.08 499.378 391.08L257.4 370.319L15.4194 391.077Z" fill="#FFCE1C"/>
<path d="M66.9284 391.077L283.153 372.529L257.4 370.319L15.4194 391.077C15.4194 391.077 36.7374 480.819 117.979 480.819H169.488C88.2454 480.819 66.9284 391.077 66.9284 391.077Z" fill="#FAA330"/>
<path d="M163.684 234.913C170.917 234.912 177.925 232.403 183.515 227.814C189.105 223.224 192.931 216.838 194.339 209.744C195.748 202.65 194.652 195.287 191.24 188.91C187.827 182.533 182.309 177.536 175.625 174.773C174.178 164.128 169.199 154.277 161.485 146.8C153.771 139.323 143.771 134.653 133.086 133.538C122.401 132.423 111.652 134.928 102.56 140.652C93.4695 146.375 86.5637 154.986 82.9503 165.103C78.2284 161.804 72.7383 159.773 67.0063 159.206C61.2742 158.638 55.4925 159.553 50.2154 161.861C44.9383 164.17 40.3428 167.796 36.8694 172.391C33.396 176.986 31.1612 182.396 30.3793 188.103C27.098 187.171 23.6551 186.953 20.2826 187.464C16.9101 187.976 13.6865 189.205 10.8292 191.068C7.97183 192.931 5.54722 195.385 3.71884 198.264C1.89046 201.144 0.700822 204.382 0.23016 207.761C-0.240502 211.139 0.0187529 214.579 0.99044 217.849C1.96213 221.119 3.62365 224.142 5.86297 226.715C8.10228 229.288 10.8673 231.351 13.9716 232.765C17.0759 234.179 20.4472 234.91 23.8583 234.911L163.684 234.913Z" fill="#2FC8B4"/>
<path d="M354.108 313.399C348.639 313.399 343.34 311.502 339.113 308.032C334.886 304.562 331.994 299.733 330.929 294.369C329.864 289.005 330.692 283.437 333.273 278.615C335.853 273.794 340.026 270.016 345.08 267.926C346.174 259.877 349.939 252.429 355.771 246.775C361.604 241.121 369.166 237.59 377.245 236.747C385.325 235.904 393.453 237.798 400.327 242.126C407.201 246.454 412.422 252.965 415.154 260.615C418.725 258.122 422.876 256.587 427.21 256.158C431.544 255.729 435.916 256.421 439.906 258.167C443.896 259.913 447.371 262.655 449.997 266.129C452.623 269.604 454.313 273.694 454.904 278.009C457.385 277.305 459.988 277.141 462.537 277.528C465.087 277.914 467.524 278.844 469.684 280.252C471.844 281.661 473.677 283.516 475.059 285.693C476.442 287.87 477.341 290.319 477.697 292.873C478.053 295.427 477.857 298.028 477.122 300.5C476.387 302.972 475.131 305.257 473.438 307.203C471.746 309.148 469.655 310.708 467.308 311.777C464.962 312.846 462.413 313.399 459.834 313.399H354.108Z" fill="#2FC8B4"/>
<path d="M499.376 349.561H15.4193C12.0721 349.562 8.86262 350.893 6.4963 353.26C4.12998 355.627 2.80056 358.837 2.80029 362.185V378.455C2.80056 381.802 4.12998 385.012 6.4963 387.379C8.86262 389.746 12.0721 391.077 15.4193 391.079H499.376C502.724 391.078 505.935 389.748 508.303 387.381C510.67 385.013 512 381.803 512 378.455V362.185C512 360.527 511.674 358.885 511.04 357.353C510.405 355.822 509.475 354.43 508.303 353.258C507.131 352.085 505.739 351.156 504.207 350.521C502.676 349.887 501.034 349.56 499.376 349.561Z" fill="#FAA330"/>
<path d="M54.3003 378.453V362.183C54.3006 358.835 55.6307 355.624 57.9981 353.257C60.3656 350.889 63.5764 349.56 66.9243 349.56H15.4193C12.0722 349.561 8.86271 350.891 6.49636 353.258C4.13001 355.626 2.80056 358.836 2.80029 362.183V378.453C2.80056 381.8 4.1307 385.011 6.49813 387.378C8.86556 389.746 12.0764 391.076 15.4243 391.076H66.9283C65.2702 391.076 63.6282 390.75 62.0961 390.116C60.5641 389.482 59.1719 388.552 57.9993 387.38C56.8266 386.208 55.8963 384.816 55.2616 383.284C54.627 381.753 54.3003 380.111 54.3003 378.453Z" fill="#F09318"/>
<path d="M454.28 210.927C464.716 210.925 474.828 207.304 482.893 200.682C490.958 194.06 496.477 184.845 498.509 174.61C500.541 164.374 498.961 153.75 494.038 144.549C489.114 135.348 481.153 128.139 471.509 124.151C469.422 108.791 462.237 94.577 451.107 83.788C439.977 72.999 425.547 66.2599 410.129 64.6514C394.712 63.043 379.201 66.6582 366.084 74.9175C352.966 83.1768 343.002 95.6016 337.789 110.2C330.976 105.44 323.054 102.511 314.783 101.692C306.512 100.874 298.169 102.194 290.555 105.525C282.94 108.857 276.31 114.089 271.298 120.719C266.286 127.35 263.062 135.156 261.934 143.391C257.199 142.045 252.23 141.73 247.364 142.467C242.497 143.205 237.845 144.977 233.721 147.665C229.597 150.353 226.098 153.894 223.459 158.05C220.821 162.205 219.104 166.878 218.425 171.753C217.745 176.629 218.119 181.593 219.522 186.311C220.924 191.03 223.322 195.392 226.554 199.105C229.786 202.818 233.776 205.795 238.256 207.834C242.736 209.874 247.601 210.929 252.523 210.929H454.28V210.927Z" fill="#2FC8B4"/>
</svg>
