<svg width="512" height="512" viewBox="0 0 512 512" fill="none" xmlns="http://www.w3.org/2000/svg">
<path d="M418.669 195.6C414.551 195.601 410.602 193.965 407.69 191.054C404.777 188.143 403.14 184.195 403.139 180.077V178.058C403.139 97.001 337.194 31.058 256.139 31.058C175.084 31.058 109.139 97 109.139 178.058V180.077C109.139 184.195 107.503 188.145 104.591 191.057C101.679 193.969 97.7293 195.605 93.611 195.605C89.4927 195.605 85.5431 193.969 82.6311 191.057C79.719 188.145 78.083 184.195 78.083 180.077V178.058C78.081 79.876 157.958 0 256.139 0C354.32 0 434.197 79.876 434.197 178.058V180.077C434.196 184.194 432.559 188.143 429.647 191.054C426.735 193.965 422.786 195.6 418.669 195.6Z" fill="#D9D9D9"/>
<path d="M380.46 470.591L442.573 200.781L256.139 180.077L69.705 200.777L131.818 470.587L256.139 491.3L380.46 470.591Z" fill="#42C3E2"/>
<path d="M173.025 470.591L110.912 200.781L276.739 182.365L256.139 180.077L69.705 200.777L131.818 470.587L256.139 491.3L276.739 487.869L173.025 470.591Z" fill="#00A6C8"/>
<path d="M403.139 178.058V180.077C403.139 182.116 403.541 184.135 404.321 186.019C405.101 187.903 406.245 189.615 407.687 191.057C409.129 192.499 410.841 193.642 412.725 194.423C414.609 195.203 416.628 195.605 418.667 195.605C420.706 195.605 422.725 195.203 424.609 194.423C426.493 193.642 428.205 192.499 429.647 191.057C431.089 189.615 432.233 187.903 433.013 186.019C433.793 184.135 434.195 182.116 434.195 180.077V178.058C434.205 161.278 431.837 144.582 427.16 128.467H394.524C400.238 144.376 403.153 161.154 403.139 178.058Z" fill="#B3B3B3"/>
<path d="M93.6101 195.6C97.7277 195.6 101.677 193.965 104.589 191.054C107.501 188.143 109.138 184.194 109.139 180.077V178.058C109.125 161.154 112.041 144.375 117.755 128.467H85.1171C80.4404 144.582 78.0718 161.278 78.0821 178.058V180.077C78.0831 184.194 79.7196 188.143 82.6316 191.054C85.5436 193.965 89.4926 195.6 93.6101 195.6Z" fill="#B3B3B3"/>
<path d="M442.573 159.372H69.705C64.2137 159.372 58.9473 161.553 55.0644 165.436C51.1814 169.319 49 174.586 49 180.077C49 185.568 51.1814 190.835 55.0644 194.718C58.9473 198.601 64.2137 200.782 69.705 200.782H442.573C448.064 200.782 453.331 198.601 457.214 194.718C461.097 190.835 463.278 185.568 463.278 180.077C463.278 174.586 461.097 169.319 457.214 165.436C453.331 161.553 448.064 159.372 442.573 159.372Z" fill="#00A6C8"/>
<path d="M90.208 180.077C90.208 174.586 92.3894 169.319 96.2724 165.436C100.155 161.553 105.422 159.372 110.913 159.372H69.705C64.2137 159.372 58.9473 161.553 55.0644 165.436C51.1814 169.319 49 174.586 49 180.077C49 185.568 51.1814 190.835 55.0644 194.718C58.9473 198.601 64.2137 200.782 69.705 200.782H110.912C108.193 200.783 105.5 200.247 102.988 199.207C100.476 198.167 98.1932 196.642 96.2705 194.719C94.3479 192.796 92.8229 190.513 91.7826 188.001C90.7424 185.489 90.2073 182.796 90.208 180.077Z" fill="#0095B3"/>
<path d="M380.46 470.591H131.818C126.327 470.591 121.061 472.772 117.178 476.655C113.295 480.538 111.114 485.804 111.114 491.295C111.114 496.786 113.295 502.053 117.178 505.936C121.061 509.818 126.327 512 131.818 512H380.459C385.95 512 391.216 509.818 395.099 505.936C398.982 502.053 401.164 496.786 401.164 491.295C401.164 485.804 398.982 480.538 395.099 476.655C391.216 472.772 385.95 470.591 380.459 470.591H380.46Z" fill="#00A6C8"/>
<path d="M152.321 491.3C152.322 485.81 154.504 480.545 158.387 476.663C162.27 472.781 167.536 470.6 173.026 470.6H131.819C126.328 470.6 121.061 472.782 117.178 476.664C113.295 480.547 111.114 485.814 111.114 491.305C111.114 496.796 113.295 502.063 117.178 505.946C121.061 509.829 126.328 512.01 131.819 512.01H173.026C170.307 512.01 167.614 511.474 165.101 510.434C162.589 509.393 160.306 507.867 158.384 505.944C156.461 504.021 154.936 501.738 153.896 499.225C152.855 496.712 152.32 494.02 152.321 491.3Z" fill="#0095B3"/>
</svg>
