<svg width="512" height="512" viewBox="0 0 512 512" fill="none" xmlns="http://www.w3.org/2000/svg">
<path d="M474.359 350.019H37.641C32.6979 350.019 27.8031 349.046 23.2363 347.154C18.6694 345.263 14.5198 342.49 11.0245 338.995C7.52918 335.499 4.75657 331.35 2.86498 326.783C0.973392 322.216 -0.000131315 317.321 1.32853e-08 312.378L1.32853e-08 244.284C-0.000131315 239.341 0.973392 234.446 2.86498 229.879C4.75657 225.312 7.52918 221.163 11.0245 217.668C14.5198 214.172 18.6694 211.4 23.2363 209.508C27.8031 207.616 32.6979 206.643 37.641 206.643H474.359C479.302 206.643 484.197 207.616 488.764 209.508C493.331 211.4 497.48 214.172 500.975 217.668C504.471 221.163 507.243 225.312 509.135 229.879C511.027 234.446 512 239.341 512 244.284V312.378C512 317.321 511.027 322.216 509.135 326.783C507.243 331.35 504.471 335.499 500.975 338.995C497.48 342.49 493.331 345.263 488.764 347.154C484.197 349.046 479.302 350.019 474.359 350.019Z" fill="#F2614A"/>
<path d="M251.363 312.378V244.284C251.363 234.302 255.328 224.728 262.386 217.67C269.445 210.611 279.018 206.645 289 206.644H37.641C32.698 206.644 27.8033 207.617 23.2365 209.509C18.6697 211.4 14.5202 214.173 11.0249 217.668C7.52955 221.163 4.75692 225.313 2.86527 229.88C0.973621 234.446 1.15408e-08 239.341 1.32853e-08 244.284L1.32853e-08 312.378C-0.000131315 317.321 0.973392 322.216 2.86498 326.783C4.75657 331.35 7.52918 335.499 11.0245 338.995C14.5198 342.49 18.6694 345.262 23.2363 347.154C27.8031 349.046 32.6979 350.019 37.641 350.019H289C279.018 350.018 269.444 346.052 262.386 338.993C255.328 331.934 251.363 322.36 251.363 312.378Z" fill="#C74B36"/>
<path d="M171.609 459.987H100.73C90.7715 459.986 81.2213 456.029 74.18 448.987C67.1387 441.945 63.183 432.394 63.183 422.436V156.769C63.184 140.053 68.6676 123.799 78.793 110.499L114.328 63.8189C116.89 60.4555 120.194 57.729 123.982 55.8523C127.771 53.9755 131.942 52.999 136.17 52.999C140.398 52.999 144.569 53.9755 148.358 55.8523C152.146 57.729 155.45 60.4555 158.012 63.8189L193.547 110.499C203.673 123.8 209.156 140.055 209.156 156.772V422.437C209.156 427.368 208.185 432.251 206.298 436.806C204.412 441.362 201.646 445.501 198.159 448.988C194.673 452.475 190.534 455.241 185.978 457.128C181.423 459.015 176.54 459.987 171.609 459.987Z" fill="#FC8978"/>
<path d="M417.8 459.987H346.93C336.971 459.987 327.42 456.031 320.377 448.989C313.335 441.946 309.379 432.395 309.379 422.436V156.769C309.38 140.053 314.863 123.799 324.988 110.499L360.523 63.8189C363.085 60.4555 366.389 57.729 370.177 55.8523C373.966 53.9755 378.137 52.999 382.365 52.999C386.593 52.999 390.764 53.9755 394.553 55.8523C398.341 57.729 401.645 60.4555 404.207 63.8189L439.742 110.499C449.869 123.799 455.353 140.055 455.351 156.772V422.437C455.351 427.368 454.38 432.251 452.493 436.807C450.606 441.363 447.84 445.503 444.353 448.99C440.866 452.477 436.726 455.243 432.17 457.129C427.614 459.016 422.731 459.987 417.8 459.987Z" fill="#FC8978"/>
<path d="M155.324 278.331C155.324 282.119 154.2 285.822 152.095 288.972C149.99 292.122 146.998 294.576 143.498 296.026C139.998 297.475 136.147 297.854 132.431 297.114C128.716 296.375 125.303 294.55 122.625 291.871C119.946 289.192 118.122 285.779 117.384 282.064C116.645 278.348 117.025 274.497 118.475 270.997C119.925 267.497 122.38 264.506 125.53 262.402C128.68 260.297 132.384 259.174 136.172 259.175C141.252 259.176 146.123 261.194 149.715 264.787C153.307 268.379 155.324 273.251 155.324 278.331Z" fill="#516980"/>
<path d="M401.52 278.331C401.52 282.119 400.396 285.822 398.291 288.972C396.186 292.122 393.194 294.576 389.694 296.026C386.194 297.475 382.343 297.854 378.627 297.114C374.912 296.375 371.499 294.55 368.821 291.871C366.142 289.192 364.318 285.779 363.58 282.064C362.841 278.348 363.221 274.497 364.671 270.997C366.121 267.497 368.576 264.506 371.726 262.402C374.876 260.297 378.58 259.174 382.368 259.175C387.448 259.176 392.319 261.194 395.911 264.787C399.503 268.379 401.52 273.251 401.52 278.331Z" fill="#516980"/>
<path d="M126.77 146.843V54.644C121.824 56.4377 117.503 59.6246 114.329 63.82L92.734 92.183V146.843C92.7684 151.334 94.5765 155.629 97.7642 158.792C100.952 161.955 105.261 163.731 109.752 163.731C114.242 163.731 118.551 161.955 121.739 158.792C124.927 155.629 126.735 151.334 126.769 146.843H126.77Z" fill="#F2614A"/>
<path d="M166.98 230.12C162.467 230.119 158.14 228.326 154.949 225.135C151.758 221.944 149.965 217.617 149.964 213.104V189.019C149.998 184.528 151.806 180.233 154.994 177.07C158.182 173.906 162.491 172.131 166.981 172.131C171.472 172.131 175.781 173.906 178.969 177.07C182.156 180.233 183.965 184.528 183.999 189.019V213.105C183.997 217.618 182.203 221.945 179.012 225.135C175.82 228.326 171.493 230.119 166.98 230.12Z" fill="#F2614A"/>
<path d="M164.02 459.987H129.984V361.899C130.018 357.409 131.827 353.113 135.014 349.95C138.202 346.787 142.511 345.012 147.002 345.012C151.492 345.012 155.801 346.787 158.989 349.95C162.177 353.113 163.985 357.409 164.019 361.899L164.02 459.987Z" fill="#F2614A"/>
<path d="M382.367 209.124C380.132 209.125 377.919 208.685 375.854 207.83C373.789 206.975 371.913 205.721 370.333 204.141C368.752 202.561 367.499 200.685 366.643 198.621C365.788 196.556 365.347 194.343 365.347 192.108V143.233C365.381 138.743 367.189 134.447 370.377 131.284C373.565 128.121 377.874 126.346 382.364 126.346C386.855 126.346 391.164 128.121 394.352 131.284C397.539 134.447 399.348 138.743 399.382 143.233V192.108C399.382 196.621 397.589 200.949 394.398 204.14C391.207 207.331 386.88 209.124 382.367 209.124Z" fill="#F2614A"/>
<path d="M382.367 459.987H348.336V419.452C348.37 414.962 350.178 410.667 353.366 407.504C356.553 404.341 360.861 402.566 365.351 402.566C369.842 402.566 374.15 404.341 377.337 407.504C380.525 410.667 382.333 414.962 382.367 419.452V459.987Z" fill="#F2614A"/>
<path d="M413.371 396.507C411.136 396.507 408.923 396.066 406.859 395.211C404.794 394.355 402.918 393.102 401.338 391.521C399.758 389.941 398.505 388.065 397.65 386C396.795 383.935 396.355 381.722 396.355 379.487V345.987C396.389 341.497 398.197 337.202 401.385 334.039C404.572 330.876 408.88 329.102 413.37 329.102C417.861 329.102 422.169 330.876 425.356 334.039C428.544 337.202 430.352 341.497 430.386 345.987V379.487C430.386 384 428.594 388.329 425.403 391.521C422.212 394.713 417.884 396.506 413.371 396.507Z" fill="#F2614A"/>
</svg>
