<svg width="512" height="512" viewBox="0 0 512 512" fill="none" xmlns="http://www.w3.org/2000/svg">
<path d="M323.32 84.867C323.32 55.117 297.293 31 265.184 31C233.075 31 207.051 55.117 207.051 84.867C207.051 114.617 233.078 138.73 265.184 138.73C297.29 138.73 323.32 114.613 323.32 84.867Z" fill="#C74B36"/>
<path d="M323.316 84.8671C323.313 75.8776 320.915 67.0512 316.367 59.2971C304.514 60.6665 292.788 62.9747 281.3 66.2001C276.815 67.4649 272.084 67.5807 267.542 66.5369C263 65.4931 258.795 63.3232 255.312 60.2271C246.761 52.6101 236.593 47.2431 227.804 43.6021C215.104 53.4811 207.046 68.302 207.046 84.8601C207.046 114.61 233.073 138.727 265.179 138.727C297.285 138.727 323.316 114.613 323.316 84.8671Z" fill="#B83822"/>
<path d="M386.227 129.313C386.226 139.296 383.265 149.055 377.718 157.356C372.172 165.656 364.288 172.126 355.064 175.946C345.841 179.766 335.692 180.765 325.9 178.817C316.109 176.869 307.115 172.061 300.056 165.002C292.997 157.942 288.19 148.948 286.243 139.156C284.295 129.365 285.295 119.216 289.115 109.993C292.936 100.769 299.406 92.8861 307.707 87.3397C316.007 81.7934 325.767 78.833 335.75 78.833C342.379 78.8327 348.943 80.1383 355.068 82.6751C361.192 85.2119 366.757 88.9303 371.444 93.6179C376.131 98.3054 379.849 103.87 382.386 109.995C384.922 116.12 386.228 122.684 386.227 129.313Z" fill="#F2614A"/>
<path d="M306.3 88.313C300.791 92.2748 296.138 97.3066 292.618 103.107C289.098 108.908 286.784 115.359 285.813 122.075C284.843 128.79 285.236 135.633 286.97 142.193C288.704 148.753 291.742 154.896 295.904 160.255C300.066 165.615 305.265 170.08 311.191 173.384C317.118 176.688 323.649 178.764 330.396 179.487C337.143 180.21 343.966 179.565 350.458 177.592C356.95 175.618 362.977 172.356 368.18 168C356.555 123.82 326.8 99.941 306.3 88.313Z" fill="#C74B36"/>
<path d="M301.379 117.211C296.326 110.9 289.91 105.815 282.612 102.337C275.313 98.8587 267.322 97.0783 259.238 97.129C254.222 97.1116 249.278 95.9302 244.797 93.6779C240.315 91.4255 236.417 88.1636 233.41 84.149C225.796 74.1825 215.249 66.8537 203.252 63.1936C191.256 59.5336 178.414 59.7263 166.533 63.7448C154.652 67.7633 144.33 75.4054 137.018 85.5959C129.707 95.7865 125.774 108.013 125.773 120.555C125.773 180.532 269.973 211.211 293.097 192.664C298.595 188.254 303.171 182.803 306.563 176.624C309.954 170.446 312.096 163.659 312.865 156.653C313.634 149.646 313.015 142.557 311.045 135.789C309.074 129.022 305.789 122.709 301.379 117.211Z" fill="#FC8978"/>
<path d="M474.938 321.762C470.303 268.116 460.156 215.09 444.657 163.524C440.605 150.116 431.628 138.739 419.531 131.68C407.433 124.62 393.112 122.401 379.446 125.469C338.924 134.577 297.532 139.248 256 139.4C214.469 139.249 173.079 134.578 132.559 125.47C118.892 122.402 104.571 124.62 92.4735 131.68C80.3761 138.74 71.3994 150.117 67.3478 163.525C51.8468 215.091 41.6992 268.116 37.0658 321.762C35.6264 338.929 29.5405 355.381 19.4608 369.352C5.01184 389.387 -7.51216 413.9 5.37084 426.785C17.0308 438.445 38.2228 429.293 56.9958 416.734C60.8395 414.174 65.1938 412.481 69.757 411.772C74.3201 411.064 78.9829 411.356 83.4218 412.629C139.605 428.328 197.664 436.307 256 436.348C314.334 436.307 372.392 428.328 428.574 412.629C433.013 411.356 437.676 411.065 442.239 411.773C446.802 412.482 451.156 414.175 455 416.734C473.77 429.293 494.961 438.449 506.625 426.785C519.508 413.902 506.984 389.385 492.535 369.351C482.46 355.378 476.377 338.928 474.938 321.762Z" fill="#FFE0B7"/>
<path d="M196.109 169.137C237.953 157.77 256 139.4 256 139.4C214.468 139.249 173.076 134.578 132.555 125.47C118.889 122.403 104.568 124.622 92.4718 131.681C80.3752 138.741 71.3991 150.118 67.3478 163.525C51.8474 215.091 41.6989 268.116 37.0628 321.762C35.6251 338.929 29.5409 355.38 19.4628 369.352C5.01183 389.387 -7.51217 413.9 5.37083 426.785C17.0308 438.445 38.2228 429.293 56.9958 416.734C60.8394 414.174 65.1938 412.481 69.757 411.773C74.3201 411.064 78.9829 411.356 83.4218 412.629C108.556 419.71 134.112 425.197 159.938 429.059C113.817 376.329 109.738 310.829 116.313 260.207C119.136 238.845 128.22 218.796 142.421 202.589C156.622 186.382 175.303 174.742 196.109 169.137Z" fill="#FDCB89"/>
<path d="M361.926 289.59C361.927 310.54 355.715 331.02 344.076 348.44C332.437 365.86 315.894 379.438 296.539 387.456C277.183 395.474 255.885 397.572 235.337 393.485C214.789 389.398 195.915 379.31 181.1 364.496C166.286 349.683 156.197 330.808 152.109 310.261C148.022 289.713 150.119 268.414 158.137 249.059C166.154 229.703 179.731 213.159 197.15 201.52C214.57 189.881 235.049 183.668 256 183.668C284.092 183.668 311.034 194.828 330.899 214.692C350.764 234.556 361.924 261.497 361.926 289.59Z" fill="#9CDA82"/>
<path d="M311.762 260.09C311.318 253.27 308.409 246.845 303.576 242.013C298.744 237.181 292.319 234.272 285.5 233.828C263.934 232.414 231.848 235.187 210.758 259.187C176.481 298.187 234.558 311.031 234.558 311.031C234.558 311.031 247.398 369.105 286.402 334.831C310.4 313.738 313.176 281.652 311.762 260.09Z" fill="#59C230"/>
<path d="M203.082 342.508C202.364 341.791 201.794 340.94 201.406 340.002C201.017 339.065 200.817 338.06 200.817 337.045C200.817 336.03 201.017 335.026 201.406 334.088C201.794 333.151 202.364 332.299 203.082 331.582L262.871 271.793C264.32 270.344 266.285 269.53 268.334 269.529C270.384 269.529 272.349 270.343 273.798 271.792C275.248 273.241 276.062 275.206 276.062 277.255C276.063 279.304 275.249 281.27 273.8 282.719L214.011 342.512C212.522 343.886 210.571 344.648 208.546 344.647C206.52 344.647 204.569 343.883 203.082 342.508Z" fill="#48A024"/>
</svg>
