<svg width="512" height="512" viewBox="0 0 512 512" fill="none" xmlns="http://www.w3.org/2000/svg">
<path d="M156.566 276.574C156.565 284.792 154.128 292.825 149.562 299.657C144.997 306.49 138.507 311.815 130.915 314.959C123.323 318.103 114.968 318.926 106.909 317.322C98.849 315.718 91.4459 311.761 85.6354 305.95C79.825 300.139 75.8683 292.735 74.2656 284.675C72.663 276.615 73.4863 268.261 76.6316 260.669C79.7768 253.077 85.1027 246.589 91.9358 242.024C98.7688 237.459 106.802 235.022 115.02 235.023C120.476 235.023 125.879 236.098 130.92 238.186C135.961 240.274 140.541 243.335 144.399 247.194C148.257 251.052 151.317 255.632 153.404 260.674C155.492 265.715 156.566 271.118 156.566 276.574Z" fill="#FFB39D"/>
<path d="M438.359 276.574C438.358 284.791 435.921 292.824 431.356 299.657C426.79 306.489 420.301 311.814 412.709 314.959C405.117 318.103 396.763 318.926 388.703 317.322C380.644 315.719 373.241 311.762 367.43 305.952C361.62 300.141 357.662 292.738 356.059 284.678C354.456 276.619 355.279 268.265 358.423 260.673C361.568 253.081 366.893 246.592 373.725 242.026C380.558 237.46 388.59 235.023 396.808 235.023C402.264 235.023 407.668 236.097 412.709 238.185C417.75 240.273 422.331 243.334 426.19 247.192C430.048 251.051 433.109 255.631 435.197 260.673C437.285 265.714 438.359 271.117 438.359 276.574Z" fill="#FFCBBE"/>
<path d="M368.813 512H143.012C130.373 512 118.251 506.979 109.314 498.042C100.377 489.105 95.356 476.983 95.356 464.344V437.2C95.3562 416.955 103.399 397.539 117.715 383.223C132.03 368.907 151.446 360.865 171.692 360.864H340.137C360.382 360.865 379.799 368.907 394.114 383.223C408.43 397.539 416.473 416.955 416.473 437.2V464.345C416.472 476.985 411.45 489.106 402.512 498.043C393.574 506.98 381.452 512.001 368.813 512Z" fill="#FFB39D"/>
<path d="M367.031 512H144.8V467.082C144.8 457.53 148.594 448.369 155.349 441.615C162.103 434.86 171.264 431.066 180.816 431.066H331.016C340.568 431.066 349.729 434.86 356.483 441.615C363.237 448.369 367.032 457.53 367.032 467.082L367.031 512Z" fill="#5AD6FF"/>
<path d="M135.266 404.188C148.197 416.664 158.438 431.656 165.356 448.239C169.313 457.923 175.915 464.219 189.856 464.219C207.274 464.219 219.29 446.711 213.415 430.319C204.903 406.569 187.294 375.163 151.142 354.085C150.888 353.831 146.755 355.999 141.029 359.202C137.192 361.366 133.914 364.395 131.455 368.049C128.995 371.703 127.423 375.881 126.864 380.25C126.304 384.618 126.772 389.058 128.231 393.214C129.689 397.37 132.098 401.127 135.266 404.188Z" fill="#A4E7FF"/>
<path d="M376.559 404.188C363.63 416.665 353.391 431.657 346.473 448.239C342.516 457.923 335.914 464.219 321.973 464.219C304.555 464.219 292.536 446.711 298.414 430.319C306.926 406.569 324.535 375.163 360.687 354.085C360.941 353.831 365.074 355.999 370.8 359.202C374.637 361.365 377.915 364.395 380.375 368.049C382.834 371.703 384.406 375.881 384.965 380.25C385.524 384.619 385.056 389.059 383.596 393.215C382.137 397.37 379.727 401.128 376.559 404.188Z" fill="#A4E7FF"/>
<path d="M284.391 398.438H227.438C213.161 398.438 199.023 395.626 185.833 390.163C172.642 384.699 160.657 376.691 150.562 366.595C140.466 356.5 132.458 344.515 126.994 331.324C121.531 318.134 118.719 303.996 118.719 289.719V209.211C119.012 173.017 133.596 138.405 159.293 112.915C184.991 87.4249 219.72 73.1221 255.915 73.1221C292.11 73.1221 326.839 87.4249 352.536 112.915C378.233 138.405 392.817 173.017 393.11 209.211V289.719C393.11 318.553 381.656 346.206 361.267 366.594C340.878 386.983 313.225 398.438 284.391 398.438Z" fill="#FFDDCF"/>
<path d="M182.871 226.027C172.191 135.191 259.328 86.8401 284.271 74.9491C264.289 70.7508 243.622 71.0616 223.775 75.8588C203.928 80.656 185.401 89.8189 169.542 102.68C153.683 115.542 140.892 131.778 132.101 150.206C123.309 168.635 118.737 188.793 118.719 209.211V289.719C118.723 317.187 129.122 343.636 147.827 363.752C166.531 383.867 192.156 396.159 219.551 398.156C172.973 372.434 192.891 311.2 182.871 226.027Z" fill="#FFCBBE"/>
<path d="M198.41 309.016C198.41 299.664 188.89 292.086 177.148 292.086C165.406 292.086 155.882 299.664 155.882 309.016C155.882 318.368 165.405 325.95 177.148 325.95C188.891 325.95 198.41 318.367 198.41 309.016Z" fill="#FFB3DD"/>
<path d="M355.941 309.016C355.941 299.664 346.421 292.086 334.679 292.086C322.937 292.086 313.413 299.664 313.413 309.016C313.413 318.368 322.933 325.95 334.679 325.95C346.425 325.95 355.941 318.367 355.941 309.016Z" fill="#FFB3DD"/>
<path d="M261.191 290.719C260.612 291.59 259.828 292.306 258.908 292.802C257.987 293.299 256.959 293.562 255.914 293.567C254.866 293.572 253.834 293.314 252.912 292.817C251.99 292.319 251.207 291.598 250.637 290.719C249.512 289.006 247.753 287.81 245.747 287.394C243.74 286.978 241.651 287.376 239.938 288.5C238.225 289.625 237.028 291.384 236.612 293.39C236.196 295.397 236.594 297.486 237.719 299.199C239.7 302.215 242.4 304.691 245.576 306.405C248.751 308.118 252.303 309.016 255.912 309.016C259.521 309.016 263.073 308.118 266.248 306.405C269.424 304.691 272.124 302.215 274.106 299.199C274.663 298.351 275.048 297.402 275.238 296.405C275.428 295.408 275.42 294.384 275.215 293.39C275.009 292.397 274.61 291.453 274.039 290.614C273.469 289.775 272.739 289.056 271.891 288.499C270.582 287.645 264.8 285.418 261.191 290.719Z" fill="#454545"/>
<path d="M194.7 294.336C194.02 293.727 193.154 293.367 192.243 293.316C191.786 293.315 191.333 293.405 190.91 293.58C190.488 293.755 190.104 294.012 189.782 294.336C188.33 295.77 186.369 296.571 184.329 296.565C182.288 296.558 180.333 295.745 178.89 294.302C177.447 292.859 176.633 290.904 176.627 288.863C176.621 286.822 177.422 284.862 178.856 283.41C180.613 281.652 182.7 280.257 184.997 279.305C187.294 278.353 189.756 277.863 192.242 277.863C194.729 277.863 197.19 278.353 199.487 279.305C201.784 280.257 203.871 281.652 205.629 283.41C206.346 284.127 206.915 284.979 207.304 285.916C207.692 286.854 207.892 287.858 207.892 288.873C207.892 289.888 207.692 290.892 207.304 291.83C206.915 292.767 206.346 293.619 205.629 294.336C204.121 295.844 199.578 298.418 194.7 294.336Z" fill="#454545"/>
<path d="M322.043 294.336C321.363 293.727 320.497 293.367 319.586 293.316C319.128 293.315 318.676 293.405 318.253 293.58C317.831 293.755 317.447 294.012 317.125 294.336C315.67 295.758 313.714 296.548 311.68 296.536C309.646 296.525 307.699 295.712 306.261 294.273C304.823 292.835 304.01 290.888 303.999 288.854C303.987 286.821 304.778 284.864 306.2 283.41C307.957 281.651 310.043 280.256 312.34 279.305C314.637 278.353 317.098 277.863 319.585 277.863C322.071 277.863 324.532 278.353 326.829 279.305C329.126 280.256 331.212 281.651 332.97 283.41C333.688 284.127 334.257 284.979 334.646 285.916C335.034 286.853 335.234 287.858 335.234 288.873C335.234 289.888 335.034 290.893 334.646 291.83C334.257 292.767 333.688 293.619 332.97 294.336C331.465 295.844 326.922 298.418 322.043 294.336Z" fill="#454545"/>
<path d="M193.719 207.379C193.719 207.379 198.875 290.7 86.5078 285.8C83.7071 285.689 80.9812 284.865 78.5882 283.405C76.1953 281.946 74.2147 279.9 72.8341 277.461C71.4535 275.021 70.7186 272.27 70.6991 269.467C70.6796 266.664 71.3762 263.903 72.7228 261.445C82.2728 244.125 94.2298 216.1 100.6 176.359L193.719 207.379Z" fill="#C74B36"/>
<path d="M318.105 207.379C318.105 207.379 312.953 290.7 425.32 285.8C428.121 285.689 430.847 284.865 433.24 283.406C435.633 281.946 437.613 279.9 438.994 277.461C440.374 275.021 441.109 272.27 441.129 269.467C441.148 266.664 440.452 263.903 439.105 261.445C429.554 244.121 417.597 216.093 411.226 176.355L318.105 207.379Z" fill="#F2614A"/>
<path d="M451.828 149.539C451.828 102.129 364.113 63.6948 255.914 63.6948C147.715 63.6948 60 102.129 60 149.539C60 196.949 147.715 235.387 255.914 235.387C364.113 235.387 451.828 196.949 451.828 149.539Z" fill="#FFAA75"/>
<path d="M60 149.539C60 193.551 135.582 229.824 232.973 234.801C237.102 227.486 242.696 221.103 249.405 216.05C256.115 210.997 263.795 207.383 271.965 205.434C322.57 192.672 336.778 157.071 336.778 157.071L335.57 71.0859C309.315 66.087 282.641 63.6137 255.914 63.6999C147.715 63.6999 60 102.129 60 149.539Z" fill="#FF8C42"/>
<path d="M351.617 125.715C347.691 106.024 340.797 74.395 331.93 45.699C328.917 35.8985 323.471 27.0206 316.1 19.8931C308.729 12.7656 299.673 7.6207 289.777 4.938C278.751 1.83208 267.368 0.172181 255.914 0C244.459 0.172174 233.074 1.83207 222.047 4.938C212.152 7.62117 203.097 12.7665 195.727 19.8942C188.357 27.0218 182.912 35.8997 179.9 45.7C171.033 74.4 164.138 106.024 160.209 125.716C158.984 131.844 159.766 138.203 162.44 143.851C165.114 149.499 169.537 154.135 175.053 157.071C191.666 165.899 219.116 176.36 255.916 176.36C292.716 176.36 320.17 165.899 336.783 157.071C342.298 154.134 346.719 149.497 349.391 143.849C352.063 138.201 352.844 131.842 351.617 125.715Z" fill="#FFC7A4"/>
<path d="M223.488 112.531C205.605 54.344 236.016 2.492 236.453 1.75C231.453 2.602 226.59 3.711 222.047 4.938C212.152 7.62117 203.097 12.7665 195.727 19.8942C188.357 27.0218 182.912 35.8997 179.9 45.7C171.033 74.4 164.138 106.024 160.209 125.716C158.984 131.844 159.766 138.203 162.44 143.851C165.114 149.499 169.537 154.135 175.053 157.071C191.666 165.899 219.116 176.36 255.916 176.36C261.482 176.36 266.838 176.122 271.975 175.684C256.137 166.309 234.266 147.594 223.488 112.531Z" fill="#FFAA75"/>
<path d="M344.266 91.7808C329.184 101.054 298.957 115.355 255.914 115.355C212.871 115.355 182.644 101.055 167.562 91.7808C164.531 104.687 162.042 116.508 160.207 125.715C158.982 131.842 159.765 138.202 162.438 143.85C165.112 149.498 169.535 154.133 175.051 157.07C191.664 165.898 219.114 176.359 255.914 176.359C292.714 176.359 320.168 165.898 336.781 157.07C342.296 154.133 346.718 149.496 349.391 143.849C352.064 138.201 352.846 131.842 351.621 125.715C349.781 116.508 347.3 104.688 344.266 91.7808Z" fill="#6A829A"/>
<path d="M175.047 157.07C191.66 165.898 219.113 176.359 255.914 176.359C261.48 176.359 266.836 176.121 271.973 175.683C256.137 166.304 234.266 147.597 223.489 112.538C203.718 109.158 184.751 102.118 167.563 91.7798C164.528 104.686 162.043 116.507 160.208 125.714C158.983 131.841 159.764 138.2 162.437 143.848C165.11 149.496 169.532 154.132 175.047 157.07Z" fill="#516980"/>
<path d="M281.625 479.266H230.2C225.214 479.266 220.432 481.247 216.906 484.773C213.381 488.298 211.4 493.08 211.4 498.066V512H300.416V498.066C300.416 493.082 298.436 488.301 294.913 484.776C291.389 481.25 286.609 479.268 281.625 479.266Z" fill="#00B4FD"/>
</svg>
