<svg width="512" height="512" viewBox="0 0 512 512" fill="none" xmlns="http://www.w3.org/2000/svg">
<path d="M153.101 34.2299C156.165 33.083 159.425 32.5508 162.695 32.6638C165.965 32.7768 169.18 33.5327 172.158 34.8885C175.136 36.2442 177.817 38.1732 180.049 40.5653C182.282 42.9574 184.021 45.7657 185.168 48.8299L221.168 145.017L174.499 162.484L138.499 66.2969C136.183 60.1082 136.42 53.2531 139.159 47.2394C141.897 41.2258 146.912 36.5461 153.101 34.2299Z" fill="#F09318"/>
<path d="M339.608 80.9881C342.018 78.5787 344.878 76.6674 348.026 75.3634C351.174 74.0595 354.548 73.3883 357.955 73.3883C361.363 73.3883 364.737 74.0595 367.885 75.3634C371.033 76.6674 373.893 78.5787 376.302 80.9881C378.712 83.3974 380.623 86.2578 381.927 89.4058C383.231 92.5537 383.902 95.9277 383.902 99.3351C383.902 102.742 383.231 106.117 381.927 109.264C380.623 112.412 378.712 115.273 376.302 117.682C381.178 112.862 387.763 110.167 394.619 110.187C401.475 110.207 408.044 112.939 412.892 117.787C417.74 122.635 420.472 129.204 420.492 136.06C420.511 142.916 417.817 149.501 412.996 154.376L367.154 200.218L247.273 320.1L207.126 360.241L60.3545 213.466L100.498 173.322L220.378 53.4421L266.22 7.60012C271.096 2.78007 277.681 0.0854949 284.537 0.105087C291.393 0.124678 297.962 2.85684 302.81 7.70468C307.658 12.5525 310.39 19.122 310.41 25.9778C310.429 32.8337 307.735 39.4187 302.914 44.2941C305.324 41.8847 308.184 39.9734 311.332 38.6694C314.48 37.3655 317.854 36.6943 321.261 36.6943C324.669 36.6943 328.043 37.3655 331.191 38.6694C334.339 39.9734 337.199 41.8847 339.608 44.2941C342.018 46.7034 343.929 49.5638 345.233 52.7118C346.537 55.8597 347.208 59.2337 347.208 62.6411C347.208 66.0485 346.537 69.4225 345.233 72.5705C343.929 75.7185 342.018 78.5788 339.608 80.9881Z" fill="#FAA330"/>
<path d="M100.499 173.322L247.274 320.1C249.009 321.836 250.386 323.896 251.326 326.164C252.265 328.432 252.749 330.863 252.749 333.317C252.749 335.772 252.265 338.202 251.326 340.47C250.386 342.738 249.009 344.799 247.274 346.534L202.407 391.4C196.518 397.289 188.531 400.597 180.204 400.597C171.876 400.597 163.889 397.289 158.001 391.4L29.1967 262.6C23.3081 256.712 20 248.725 20 240.397C20 232.069 23.3081 224.083 29.1967 218.194L74.0637 173.327C77.5686 169.821 82.3227 167.851 87.2802 167.85C92.2376 167.849 96.9925 169.818 100.499 173.322Z" fill="#F09318"/>
<path d="M224.359 145.634C227.423 144.487 230.683 143.955 233.953 144.068C237.223 144.181 240.438 144.937 243.416 146.293C246.394 147.649 249.075 149.577 251.307 151.97C253.54 154.362 255.279 157.17 256.426 160.234L292.426 256.421L245.757 273.888L209.757 177.701C207.441 171.513 207.678 164.657 210.417 158.644C213.155 152.63 218.17 147.95 224.359 145.634Z" fill="#F09318"/>
<path d="M410.866 192.391C413.275 189.982 416.135 188.07 419.283 186.766C422.431 185.462 425.805 184.791 429.213 184.791C432.62 184.791 435.994 185.462 439.142 186.766C442.29 188.07 445.15 189.982 447.56 192.391C449.969 194.8 451.88 197.661 453.184 200.809C454.488 203.957 455.16 207.331 455.16 210.738C455.16 214.145 454.488 217.519 453.184 220.667C451.88 223.815 449.969 226.676 447.56 229.085C452.435 224.265 459.02 221.57 465.876 221.59C472.732 221.61 479.301 224.342 484.149 229.19C488.997 234.037 491.729 240.607 491.749 247.463C491.768 254.319 489.074 260.904 484.254 265.779L318.532 431.5L278.388 471.644L131.613 324.87L171.757 284.726L337.479 119C339.889 116.591 342.749 114.68 345.898 113.376C349.046 112.072 352.42 111.401 355.828 111.401C359.236 111.402 362.61 112.073 365.758 113.377C368.906 114.682 371.766 116.593 374.176 119.003C376.585 121.413 378.496 124.274 379.8 127.422C381.104 130.57 381.775 133.945 381.774 137.352C381.774 140.76 381.103 144.134 379.798 147.282C378.494 150.43 376.583 153.291 374.173 155.7C376.582 153.291 379.442 151.379 382.59 150.075C385.738 148.771 389.112 148.1 392.52 148.1C395.927 148.1 399.301 148.771 402.449 150.075C405.597 151.379 408.457 153.291 410.867 155.7C415.732 160.566 418.465 167.165 418.465 174.046C418.464 180.927 415.731 187.525 410.866 192.391Z" fill="#FFCE1C"/>
<path d="M484.254 229.085C480.586 225.405 475.892 222.918 470.787 221.948C471.587 226.108 471.354 230.401 470.11 234.45C468.865 238.499 466.648 242.182 463.65 245.175L297.926 410.9L257.782 451.044L278.382 471.644L318.532 431.5L484.254 265.78C489.12 260.914 491.854 254.314 491.854 247.433C491.854 240.551 489.12 233.952 484.254 229.085Z" fill="#FAA330"/>
<path d="M171.757 284.727L318.527 431.5C320.262 433.236 321.639 435.297 322.579 437.564C323.518 439.832 324.001 442.263 324.001 444.717C324.001 447.172 323.518 449.603 322.579 451.87C321.639 454.138 320.262 456.199 318.527 457.934L273.665 502.8C267.776 508.689 259.789 511.997 251.462 511.997C243.134 511.997 235.147 508.689 229.259 502.8L100.455 374C94.566 368.112 91.2578 360.125 91.2578 351.797C91.2578 343.47 94.566 335.483 100.455 329.594L145.326 284.727C148.832 281.223 153.585 279.255 158.542 279.255C163.498 279.255 168.251 281.223 171.757 284.727Z" fill="#FAA330"/>
<path d="M229.259 502.8C235.147 508.689 243.134 511.997 251.462 511.997C259.789 511.997 267.776 508.689 273.665 502.8L318.532 457.933C320.268 456.197 321.644 454.137 322.584 451.869C323.523 449.601 324.007 447.171 324.007 444.716C324.007 442.261 323.523 439.831 322.584 437.563C321.644 435.295 320.268 433.235 318.532 431.499L287.627 400.6C289.363 402.336 290.739 404.396 291.679 406.664C292.618 408.932 293.102 411.362 293.102 413.817C293.102 416.272 292.618 418.702 291.679 420.97C290.739 423.238 289.363 425.298 287.627 427.034L242.76 471.9C236.871 477.789 228.884 481.097 220.557 481.097C212.229 481.097 204.242 477.789 198.354 471.9L229.259 502.8Z" fill="#F09318"/>
</svg>
