<svg width="512" height="512" viewBox="0 0 512 512" fill="none" xmlns="http://www.w3.org/2000/svg">
<path d="M451.32 264.746H401.076V428.534H451.32V264.746Z" fill="#00A6C8"/>
<path d="M401.075 428.533L412.348 486.038L426.197 499.02L440.047 486.038L451.319 428.533H401.075Z" fill="#D9D9D9"/>
<path d="M451.319 350.386V264.749H401.075V407.616C406.925 402.793 412.57 397.666 418.008 392.234C430.662 379.593 441.838 365.553 451.319 350.386Z" fill="#0095B3"/>
<path d="M252.426 18.2168C137.314 18.2168 44 111.531 44 226.643C44 341.755 137.314 435.069 252.426 435.069C367.538 435.069 460.842 341.755 460.842 226.643C460.842 111.531 367.528 18.2168 252.426 18.2168ZM252.426 333.579C231.276 333.579 210.601 327.307 193.016 315.557C175.43 303.807 161.724 287.105 153.63 267.565C145.536 248.025 143.419 226.524 147.545 205.781C151.671 185.037 161.856 165.983 176.811 151.028C191.766 136.072 210.82 125.888 231.564 121.762C252.307 117.635 273.809 119.753 293.349 127.847C312.889 135.941 329.59 149.647 341.34 167.232C353.09 184.818 359.362 205.493 359.362 226.643C359.33 254.994 348.053 282.175 328.006 302.223C307.958 322.27 280.777 333.547 252.426 333.579Z" fill="#42C3E2"/>
<path d="M252.426 61.0928C161.142 61.0928 86.876 135.359 86.876 226.643C86.876 317.927 161.142 392.193 252.426 392.193C343.71 392.193 417.976 317.927 417.976 226.643C417.976 135.359 343.711 61.0928 252.426 61.0928ZM252.426 349.327C228.161 349.327 204.442 342.132 184.266 328.651C164.091 315.17 148.366 296.009 139.081 273.592C129.795 251.174 127.366 226.507 132.099 202.708C136.833 178.91 148.518 157.05 165.675 139.892C182.833 122.734 204.693 111.05 228.492 106.316C252.29 101.582 276.958 104.012 299.375 113.298C321.793 122.583 340.953 138.308 354.434 158.483C367.915 178.658 375.11 202.378 375.11 226.643C375.073 259.169 362.135 290.353 339.135 313.352C316.136 336.352 284.952 349.289 252.426 349.327Z" fill="#00A6C8"/>
<path d="M252.426 103.959C228.162 103.959 204.442 111.154 184.267 124.635C164.091 138.116 148.367 157.276 139.081 179.694C129.795 202.111 127.366 226.779 132.1 250.577C136.833 274.376 148.518 296.236 165.676 313.394C182.833 330.551 204.693 342.236 228.492 346.97C252.29 351.703 276.958 349.274 299.375 339.988C321.793 330.703 340.954 314.978 354.434 294.803C367.915 274.627 375.11 250.908 375.11 226.643C375.075 194.116 362.138 162.932 339.138 139.931C316.138 116.931 284.953 103.994 252.426 103.959ZM252.426 306.451C236.642 306.451 221.212 301.77 208.087 293.001C194.963 284.231 184.734 271.767 178.693 257.184C172.653 242.601 171.072 226.554 174.152 211.073C177.231 195.592 184.832 181.372 195.993 170.21C207.155 159.049 221.375 151.448 236.856 148.368C252.338 145.289 268.384 146.87 282.967 152.91C297.55 158.95 310.015 169.18 318.784 182.304C327.554 195.428 332.234 210.858 332.234 226.643C332.211 247.802 323.796 268.088 308.834 283.05C293.872 298.012 273.586 306.428 252.426 306.451Z" fill="#0095B3"/>
<path d="M252.424 1.68955e-06C244.572 1.68507e-06 237.041 3.11916 231.489 8.67134C225.937 14.2235 222.817 21.7539 222.817 29.606V135.443C222.817 143.295 225.936 150.825 231.488 156.378C237.04 161.93 244.571 165.049 252.423 165.049C256.311 165.05 260.162 164.284 263.754 162.797C267.347 161.309 270.611 159.129 273.361 156.379C276.11 153.63 278.292 150.366 279.78 146.774C281.268 143.182 282.034 139.331 282.034 135.443V29.606C282.035 25.7175 281.269 21.867 279.781 18.2744C278.294 14.6818 276.113 11.4176 273.363 8.66823C270.613 5.91884 267.349 3.7382 263.756 2.25087C260.163 0.763544 256.312 -0.00131206 252.424 1.68955e-06Z" fill="#3B484A"/>
<path d="M459.021 411.843H393.374C391.028 411.843 388.777 412.775 387.118 414.434C385.459 416.093 384.527 418.343 384.527 420.69V436.376C384.527 438.722 385.459 440.972 387.118 442.632C388.777 444.291 391.028 445.223 393.374 445.223H459.021C461.367 445.223 463.618 444.291 465.277 442.632C466.936 440.972 467.868 438.722 467.868 436.376V420.69C467.868 418.343 466.936 416.093 465.277 414.434C463.618 412.775 461.367 411.843 459.021 411.843Z" fill="#B3B3B3"/>
<path d="M405.134 436.375V420.69C405.134 418.343 406.066 416.093 407.725 414.434C409.385 412.775 411.635 411.843 413.981 411.843H393.381C391.035 411.843 388.785 412.775 387.125 414.434C385.466 416.093 384.534 418.343 384.534 420.69V436.376C384.534 438.722 385.466 440.972 387.125 442.632C388.785 444.291 391.035 445.223 393.381 445.223H413.981C412.819 445.223 411.669 444.994 410.595 444.55C409.522 444.105 408.546 443.453 407.725 442.632C406.903 441.81 406.252 440.834 405.807 439.761C405.363 438.687 405.134 437.537 405.134 436.375Z" fill="#999999"/>
<path d="M440.047 486.038H412.347C408.905 486.038 405.603 487.406 403.169 489.84C400.735 492.274 399.367 495.576 399.367 499.018C399.367 502.461 400.735 505.762 403.169 508.196C405.603 510.631 408.905 511.998 412.347 511.998H440.047C443.49 511.998 446.791 510.631 449.225 508.196C451.66 505.762 453.027 502.461 453.027 499.018C453.027 495.576 451.66 492.274 449.225 489.84C446.791 487.406 443.49 486.038 440.047 486.038Z" fill="#B3B3B3"/>
<path d="M419.972 499.02C419.972 497.315 420.308 495.627 420.96 494.053C421.612 492.478 422.568 491.047 423.773 489.841C424.979 488.636 426.41 487.68 427.985 487.027C429.559 486.375 431.247 486.039 432.952 486.039H412.352C408.909 486.039 405.608 487.407 403.173 489.841C400.739 492.275 399.372 495.577 399.372 499.02C399.372 502.462 400.739 505.764 403.173 508.198C405.608 510.632 408.909 512 412.352 512H432.952C429.51 512 426.208 510.633 423.774 508.198C421.34 505.764 419.972 502.463 419.972 499.02Z" fill="#999999"/>
</svg>
