<svg width="512" height="512" viewBox="0 0 512 512" fill="none" xmlns="http://www.w3.org/2000/svg">
<path d="M334.024 512H177.974C168.599 512 159.316 510.153 150.655 506.566C141.994 502.978 134.124 497.719 127.495 491.09C120.866 484.46 115.608 476.59 112.021 467.929C108.433 459.267 106.587 449.984 106.587 440.609V127.137H405.411V440.609C405.412 449.984 403.566 459.267 399.978 467.929C396.391 476.59 391.133 484.46 384.504 491.09C377.875 497.719 370.005 502.978 361.344 506.566C352.683 510.153 343.399 512 334.024 512Z" fill="#B0F0EF"/>
<path d="M212.966 440.609V127.137H106.587V440.609C106.587 449.984 108.433 459.267 112.021 467.929C115.608 476.59 120.866 484.46 127.495 491.09C134.124 497.719 141.994 502.978 150.655 506.566C159.316 510.153 168.599 512 177.974 512H284.356C274.981 512 265.698 510.154 257.036 506.566C248.374 502.979 240.504 497.72 233.875 491.091C227.246 484.461 221.987 476.591 218.4 467.93C214.812 459.268 212.966 449.984 212.966 440.609Z" fill="#76E7E7"/>
<path d="M106.587 345.492V440.609C106.587 449.984 108.433 459.267 112.021 467.929C115.608 476.59 120.866 484.46 127.495 491.09C134.124 497.719 141.994 502.978 150.655 506.566C159.316 510.153 168.599 512 177.974 512H334.024C343.399 512 352.683 510.153 361.344 506.566C370.005 502.978 377.875 497.719 384.504 491.09C391.133 484.46 396.391 476.59 399.978 467.929C403.566 459.267 405.412 449.984 405.411 440.609V345.492H106.587Z" fill="#FD5C6F"/>
<path d="M106.587 440.609C106.587 449.984 108.433 459.267 112.021 467.929C115.608 476.59 120.866 484.46 127.495 491.09C134.124 497.719 141.994 502.978 150.655 506.566C159.316 510.153 168.599 512 177.974 512H284.356C265.422 512 247.264 504.479 233.875 491.09C220.487 477.702 212.965 459.543 212.965 440.609V345.492H106.587V440.609Z" fill="#F6334C"/>
<path d="M393.236 153.813H118.768C69.9506 184.613 56.1266 228.762 53.0956 260.3C51.5096 276.847 70.1956 287.511 83.6156 277.7L104.167 262.68C109.304 258.925 115.503 256.901 121.867 256.901C128.23 256.901 134.429 258.925 139.567 262.68L171.712 286.18C176.85 289.936 183.05 291.96 189.415 291.96C195.779 291.96 201.979 289.936 207.118 286.18L238.298 263.387C243.435 259.632 249.634 257.608 255.998 257.608C262.361 257.608 268.56 259.632 273.698 263.387L304.878 286.18C310.016 289.936 316.216 291.96 322.581 291.96C328.945 291.96 335.145 289.936 340.284 286.18L372.429 262.68C377.566 258.925 383.765 256.901 390.129 256.901C396.492 256.901 402.691 258.925 407.829 262.68L428.38 277.7C441.802 287.513 460.489 276.852 458.9 260.3C455.877 228.762 442.049 184.613 393.236 153.813Z" fill="#FF8A98"/>
<path d="M283.584 153.813H118.768C69.9506 184.613 56.1266 228.762 53.0956 260.3C51.5096 276.847 70.1956 287.511 83.6156 277.7L104.167 262.68C109.304 258.925 115.503 256.901 121.867 256.901C128.23 256.901 134.429 258.925 139.567 262.68L171.712 286.18C176.85 289.936 183.05 291.96 189.415 291.96C195.779 291.96 201.979 289.936 207.118 286.18L212.966 281.903C213.083 251.356 226.939 223.176 252.388 205.762C263.373 198.224 273.8 189.902 283.588 180.862L283.584 153.813Z" fill="#FD5C6F"/>
<path d="M347.747 8.67202e-09H164.251C156.679 -0.000131317 149.18 1.4913 142.184 4.38914C135.188 7.28698 128.831 11.5345 123.477 16.8891C118.122 22.2437 113.874 28.6006 110.977 35.5968C108.079 42.593 106.587 50.0914 106.587 57.664V142.617H405.411V57.664C405.412 50.0914 403.92 42.593 401.022 35.5968C398.124 28.6006 393.877 22.2437 388.522 16.8891C383.168 11.5345 376.811 7.28698 369.815 4.38914C362.818 1.4913 355.32 -0.000131317 347.747 8.67202e-09V8.67202e-09Z" fill="#FF8A98"/>
<path d="M405.411 78.176C353.571 62.7 291.337 59.91 248.556 60.25C214.301 60.52 198.04 25.34 209.63 8.67202e-09H164.251C156.679 -0.000131317 149.18 1.4913 142.184 4.38914C135.188 7.28698 128.831 11.5345 123.477 16.8891C118.122 22.2437 113.874 28.6006 110.977 35.5968C108.079 42.593 106.587 50.0914 106.587 57.664V142.617H405.411V78.176Z" fill="#FD5C6F"/>
<path d="M408.693 180.855H103.311C93.1693 180.855 83.4432 176.826 76.2721 169.655C69.101 162.484 65.0723 152.758 65.0723 142.616C65.0723 132.475 69.101 122.749 76.2721 115.578C83.4432 108.407 93.1693 104.378 103.311 104.378H408.69C418.831 104.378 428.557 108.407 435.728 115.578C442.9 122.749 446.928 132.475 446.928 142.616C446.928 152.758 442.9 162.484 435.728 169.655C428.557 176.826 418.831 180.855 408.69 180.855H408.693Z" fill="#FDCB89"/>
<path d="M182.846 142.617C182.846 137.595 183.835 132.623 185.756 127.984C187.678 123.344 190.494 119.129 194.045 115.578C197.596 112.028 201.811 109.211 206.451 107.289C211.09 105.368 216.062 104.379 221.084 104.379H103.311C93.1693 104.379 83.4432 108.408 76.2721 115.579C69.101 122.75 65.0723 132.476 65.0723 142.617C65.0723 152.759 69.101 162.485 76.2721 169.656C83.4432 176.827 93.1693 180.856 103.311 180.856H221.084C216.062 180.856 211.09 179.867 206.45 177.945C201.811 176.024 197.596 173.207 194.045 169.656C190.494 166.105 187.677 161.89 185.756 157.25C183.834 152.611 182.845 147.639 182.846 142.617Z" fill="#FAB658"/>
<path d="M329.154 392.723C329.153 407.191 324.862 421.335 316.823 433.364C308.785 445.394 297.359 454.77 283.992 460.306C270.625 465.843 255.916 467.291 241.726 464.468C227.535 461.645 214.501 454.677 204.27 444.446C194.04 434.215 187.073 421.18 184.251 406.989C181.429 392.799 182.878 378.09 188.415 364.723C193.952 351.356 203.329 339.931 215.359 331.893C227.39 323.856 241.533 319.566 256.002 319.566C265.609 319.566 275.121 321.459 283.997 325.135C292.872 328.812 300.936 334.201 307.729 340.994C314.522 347.787 319.91 355.852 323.586 364.728C327.262 373.603 329.154 383.116 329.154 392.723Z" fill="#FFFCDC"/>
<path d="M283.583 392.316C283.583 407.55 271.231 432.066 256.001 432.066C240.771 432.066 228.419 407.55 228.419 392.316C228.419 385.001 231.325 377.985 236.498 372.812C241.671 367.64 248.686 364.734 256.001 364.734C263.317 364.734 270.332 367.64 275.505 372.812C280.677 377.985 283.583 385.001 283.583 392.316Z" fill="#FD5C6F"/>
<path d="M256.001 395.176C254.987 395.176 253.982 394.977 253.044 394.588C252.106 394.2 251.254 393.631 250.537 392.914C249.819 392.196 249.25 391.344 248.862 390.406C248.474 389.469 248.274 388.464 248.274 387.449V353.379C248.298 351.345 249.122 349.402 250.568 347.972C252.015 346.542 253.967 345.74 256.001 345.74C258.035 345.74 259.987 346.542 261.434 347.972C262.88 349.402 263.704 351.345 263.727 353.379V387.449C263.728 388.464 263.528 389.468 263.14 390.406C262.751 391.343 262.182 392.195 261.465 392.913C260.747 393.63 259.896 394.199 258.958 394.588C258.021 394.976 257.016 395.176 256.001 395.176Z" fill="#6A829A"/>
</svg>
