<svg width="512" height="512" viewBox="0 0 512 512" fill="none" xmlns="http://www.w3.org/2000/svg">
<path d="M455.644 271.833C452.344 245.946 440.429 230.392 429.457 221.345C424.008 216.888 419.544 211.348 416.348 205.076C413.151 198.803 411.292 191.936 410.887 184.908C410.235 172.959 407.071 158.553 397.629 146.008C386.402 131.09 373.852 123.66 363.508 119.992C357.63 117.887 352.332 114.424 348.045 109.884C343.759 105.345 340.604 99.8569 338.839 93.8678C335.801 84.1178 331.601 74.7685 326.331 66.0208C313.765 44.6578 295.62 30.7508 281.14 22.3368C274.013 18.1884 265.914 16.0029 257.668 16.0029C249.422 16.0029 241.322 18.1884 234.195 22.3368C219.714 30.7508 201.569 44.6568 188.999 66.0208C183.732 74.7688 179.535 84.1182 176.499 93.8678C174.735 99.8572 171.581 105.345 167.295 109.885C163.008 114.425 157.71 117.888 151.831 119.993C141.487 123.661 128.936 131.093 117.71 146.009C108.269 158.552 105.105 172.958 104.452 184.909C104.048 191.937 102.189 198.805 98.9923 205.077C95.7957 211.349 91.3315 216.89 85.8824 221.347C74.9054 230.392 62.9994 245.946 59.6904 271.833C56.3154 298.29 65.9134 314.618 75.9904 324.228C86.6105 334.355 93.6876 347.632 96.1744 362.095C102.166 397.033 131.154 455.126 257.674 455.126C384.194 455.126 413.174 397.032 419.174 362.095C421.658 347.632 428.734 334.354 439.354 324.228C449.421 314.618 459.019 298.29 455.644 271.833Z" fill="#59C230"/>
<path d="M281.14 22.3369C274.013 18.1866 265.913 16 257.666 16C249.419 16 241.318 18.1866 234.191 22.3369C219.71 30.7509 201.565 44.6569 188.999 66.0209C183.733 74.7696 179.536 84.1192 176.499 93.8689C174.735 99.8584 171.581 105.346 167.293 109.885C163.006 114.425 157.707 117.887 151.827 119.99C141.479 123.661 128.929 131.091 117.699 146.009C108.262 158.552 105.099 172.954 104.445 184.909C104.04 191.937 102.18 198.805 98.9832 205.078C95.7859 211.35 91.3211 216.89 85.8714 221.347C74.9054 230.392 62.9994 245.946 59.6904 271.833C56.3114 298.29 65.9094 314.618 75.9834 324.228C86.6063 334.353 93.684 347.631 96.1674 362.095C100.05 384.728 113.597 417.083 157.038 437.064C164.138 394.822 148.761 357.337 139.186 299.888C132.409 259.24 152.303 239.009 171.413 228.56C188.104 219.435 197.964 201.56 197.765 182.54C196.749 86.2779 281.14 22.3399 281.14 22.3399V22.3369Z" fill="#48A024"/>
<path d="M303.645 495.981C303.645 521.376 283.058 528.001 257.667 528.001C232.276 528.001 211.688 521.376 211.688 495.981C211.688 470.586 232.273 216.781 257.667 216.781C283.061 216.781 303.645 470.591 303.645 495.981Z" fill="#9CDA82"/>
</svg>
