<svg width="512" height="512" viewBox="0 0 512 512" fill="none" xmlns="http://www.w3.org/2000/svg">
<path d="M283.117 361.254H228.742V27.1882C228.786 20.0061 231.669 13.1331 236.763 8.07001C241.857 3.00689 248.747 0.165039 255.93 0.165039C263.112 0.165039 270.002 3.00689 275.096 8.07001C280.19 13.1331 283.073 20.0061 283.117 27.1882V361.254Z" fill="#FC8978"/>
<path d="M283.117 269.629C264.378 266.644 246.102 261.255 228.742 253.594V361.254H283.117V269.629Z" fill="#F2614A"/>
<path d="M282.77 317.125H229.09C225.199 317.125 221.346 317.892 217.751 319.381C214.156 320.87 210.889 323.053 208.138 325.805C205.387 328.557 203.204 331.823 201.716 335.418C200.227 339.014 199.461 342.867 199.461 346.758V415.836H312.4V346.758C312.4 342.867 311.634 339.013 310.145 335.418C308.657 331.823 306.474 328.556 303.723 325.804C300.971 323.053 297.705 320.87 294.11 319.381C290.515 317.892 286.661 317.125 282.77 317.125Z" fill="#7DCE5C"/>
<path d="M266.848 317.125H229.09C225.199 317.125 221.346 317.892 217.751 319.381C214.156 320.87 210.889 323.053 208.138 325.805C205.387 328.557 203.204 331.823 201.716 335.418C200.227 339.014 199.461 342.867 199.461 346.758V415.836H312.4V385.4C295.979 380.478 279.193 376.866 262.2 374.6C243.591 372.038 233.888 350.889 244.263 335.233C253.621 321.113 266.848 317.125 266.848 317.125Z" fill="#59C230"/>
<path d="M411.262 512C405.776 512 400.515 509.82 396.637 505.941C392.758 502.062 390.578 496.802 390.578 491.316V427.773H431.945V491.316C431.945 494.032 431.41 496.722 430.371 499.231C429.332 501.741 427.808 504.021 425.887 505.942C423.967 507.862 421.687 509.386 419.177 510.425C416.668 511.465 413.978 512 411.262 512Z" fill="#6A829A"/>
<path d="M333.6 512C328.114 512 322.853 509.82 318.974 505.941C315.096 502.062 312.916 496.802 312.916 491.316V427.773H354.283V491.316C354.283 496.801 352.104 502.062 348.225 505.941C344.346 509.82 339.085 511.999 333.6 512Z" fill="#6A829A"/>
<path d="M255.93 512C253.214 512 250.525 511.464 248.015 510.425C245.506 509.385 243.227 507.862 241.306 505.941C239.386 504.02 237.863 501.74 236.824 499.231C235.784 496.721 235.25 494.032 235.25 491.316V427.773H276.613V491.316C276.613 494.032 276.078 496.722 275.039 499.231C274 501.741 272.476 504.021 270.555 505.942C268.635 507.862 266.355 509.386 263.845 510.425C261.336 511.465 258.646 512 255.93 512Z" fill="#6A829A"/>
<path d="M178.266 512C172.78 512 167.519 509.82 163.64 505.941C159.762 502.062 157.582 496.802 157.582 491.316V427.773H198.949V491.316C198.949 496.801 196.77 502.062 192.891 505.941C189.012 509.82 183.751 511.999 178.266 512Z" fill="#6A829A"/>
<path d="M100.6 512C97.884 512 95.1946 511.464 92.6855 510.425C90.1763 509.385 87.8965 507.862 85.9762 505.941C84.0559 504.02 82.5327 501.74 81.4935 499.231C80.4544 496.721 79.9197 494.032 79.92 491.316V427.773H121.281V491.316C121.281 496.801 119.103 502.062 115.224 505.941C111.346 509.82 106.085 511.999 100.6 512Z" fill="#6A829A"/>
<path d="M124.664 427.773C124.664 424.37 125.334 421 126.636 417.856C127.939 414.712 129.847 411.855 132.254 409.449C134.66 407.043 137.517 405.134 140.661 403.832C143.805 402.529 147.175 401.859 150.578 401.859H72.914C66.0412 401.859 59.4499 404.59 54.59 409.449C49.7302 414.309 47 420.901 47 427.773C47 434.646 49.7302 441.238 54.59 446.097C59.4499 450.957 66.0412 453.687 72.914 453.687H150.578C147.175 453.688 143.805 453.017 140.661 451.715C137.517 450.413 134.66 448.504 132.254 446.098C129.847 443.691 127.939 440.834 126.636 437.69C125.334 434.546 124.664 431.176 124.664 427.773Z" fill="#889CB0"/>
<path d="M438.949 453.688H72.914C66.0412 453.688 59.4499 450.958 54.59 446.098C49.7302 441.239 47 434.647 47 427.774C47 420.902 49.7302 414.31 54.59 409.45C59.4499 404.591 66.0412 401.86 72.914 401.86H438.949C445.822 401.86 452.413 404.591 457.273 409.45C462.133 414.31 464.863 420.902 464.863 427.774C464.863 434.647 462.133 441.239 457.273 446.098C452.413 450.958 445.822 453.688 438.949 453.688Z" fill="#A7B6C5"/>
</svg>
