<svg width="512" height="512" viewBox="0 0 512 512" fill="none" xmlns="http://www.w3.org/2000/svg">
<path d="M441.109 277.207H71.8482C68.309 277.229 64.8005 276.55 61.5245 275.211C58.2485 273.871 55.2697 271.897 52.7594 269.402C50.2492 266.907 48.257 263.941 46.8976 260.673C45.5382 257.405 44.8384 253.901 44.8384 250.362C44.8384 246.822 45.5382 243.318 46.8976 240.05C48.257 236.783 50.2492 233.816 52.7594 231.321C55.2697 228.826 58.2485 226.852 61.5245 225.512C64.8005 224.173 68.309 223.495 71.8482 223.516H441.113C448.205 223.559 454.991 226.407 459.99 231.437C464.989 236.466 467.795 243.27 467.795 250.362C467.795 257.453 464.989 264.257 459.99 269.287C454.991 274.316 448.205 277.164 441.113 277.207H441.109Z" fill="#FC8978"/>
<path d="M230.023 374.523V485.156C230.066 492.247 232.914 499.034 237.944 504.033C242.974 509.032 249.777 511.838 256.869 511.838C263.96 511.838 270.764 509.032 275.794 504.033C280.823 499.034 283.671 492.247 283.714 485.156V374.523H230.023Z" fill="#FC8978"/>
<path d="M230.023 451.426C254.203 452.918 271.703 446.226 283.714 438.297V374.523H230.023V451.426Z" fill="#F2614A"/>
<path d="M371.9 213.934C353.667 213.43 335.422 214.374 317.338 216.758H196.016C177.931 214.374 159.685 213.43 141.45 213.934C133.917 214.227 126.79 217.426 121.565 222.861C116.34 228.296 113.424 235.543 113.427 243.082C113.435 258.039 115.388 276.672 123.197 291.482C125.389 295.57 128.552 299.055 132.408 301.632C136.264 304.209 140.695 305.798 145.31 306.259C162.099 308.025 189.869 310.29 189.869 310.29L167.283 392.876C166.575 395.463 166.649 398.202 167.497 400.747C168.344 403.292 169.927 405.529 172.045 407.175C174.163 408.821 176.721 409.802 179.396 409.995C182.071 410.188 184.744 409.584 187.076 408.259L215.367 392.2L237.957 409.809C243.306 413.979 249.894 416.243 256.676 416.243C263.458 416.243 270.046 413.979 275.395 409.809L297.98 392.2L326.28 408.266C328.613 409.59 331.285 410.193 333.96 410C336.635 409.806 339.192 408.825 341.31 407.179C343.427 405.533 345.01 403.297 345.858 400.753C346.705 398.208 346.78 395.47 346.073 392.883L323.487 310.297C323.487 310.297 351.253 308.031 368.046 306.266C372.661 305.805 377.091 304.216 380.947 301.639C384.802 299.062 387.965 295.576 390.155 291.489C397.964 276.677 399.921 258.044 399.925 243.089C399.931 235.549 397.014 228.299 391.789 222.863C386.563 217.427 379.435 214.226 371.9 213.934Z" fill="#7DCE5C"/>
<path d="M275.395 409.8L297.985 392.187L326.278 408.257C328.61 409.582 331.283 410.185 333.958 409.992C336.633 409.799 339.191 408.817 341.309 407.172C343.426 405.526 345.009 403.289 345.857 400.745C346.704 398.2 346.779 395.461 346.071 392.874L323.485 310.288L305.512 279.804H207.836L189.867 310.288L167.281 392.874C166.573 395.461 166.648 398.2 167.496 400.745C168.343 403.289 169.926 405.526 172.044 407.172C174.161 408.817 176.719 409.799 179.394 409.992C182.07 410.185 184.742 409.582 187.074 408.257L215.367 392.187L237.957 409.8C243.306 413.97 249.894 416.234 256.676 416.234C263.458 416.234 270.046 413.97 275.395 409.8Z" fill="#5AD6FF"/>
<path d="M174.992 232.371C179.472 257.199 185.726 294.797 188.015 322.758C188.89 333.488 195.277 341.582 209.23 341.582C214.461 341.54 219.473 339.483 223.227 335.84C226.98 332.196 229.184 327.247 229.382 322.02C230.308 300.161 229.601 262.329 218.269 222.82C213.519 206.265 196.816 206.265 196.816 206.265C193.571 206.264 190.365 206.976 187.425 208.35C184.485 209.723 181.882 211.726 179.801 214.216C177.719 216.706 176.21 219.622 175.379 222.759C174.548 225.896 174.416 229.177 174.992 232.371Z" fill="#A4E7FF"/>
<path d="M338.359 232.371C333.879 257.199 327.621 294.797 325.336 322.758C324.457 333.488 318.074 341.582 304.121 341.582C298.89 341.54 293.877 339.484 290.123 335.841C286.369 332.197 284.163 327.248 283.965 322.02C283.043 300.161 283.75 262.329 295.078 222.82C299.828 206.265 316.535 206.265 316.535 206.265C319.78 206.265 322.986 206.976 325.926 208.35C328.866 209.724 331.469 211.727 333.55 214.216C335.631 216.706 337.141 219.622 337.972 222.759C338.803 225.896 338.935 229.177 338.359 232.371Z" fill="#A4E7FF"/>
<path d="M256.48 242.211C234.052 242.211 212.543 233.302 196.684 217.444C180.825 201.585 171.915 180.077 171.914 157.649V127.508C171.914 105.08 180.824 83.5706 196.683 67.7117C212.541 51.8528 234.051 42.9434 256.479 42.9434C278.907 42.9434 300.416 51.8528 316.275 67.7117C332.134 83.5706 341.043 105.08 341.043 127.508V157.649C341.043 168.754 338.856 179.75 334.606 190.01C330.357 200.269 324.128 209.591 316.275 217.444C308.423 225.296 299.101 231.525 288.841 235.774C278.581 240.024 267.585 242.211 256.48 242.211Z" fill="#FFDDCF"/>
<path d="M305.316 185.1C304.301 185.1 303.297 184.9 302.359 184.512C301.422 184.124 300.57 183.554 299.852 182.837C299.135 182.119 298.565 181.268 298.177 180.33C297.789 179.392 297.589 178.388 297.589 177.373V164.547C297.612 162.513 298.437 160.57 299.883 159.14C301.33 157.71 303.282 156.908 305.316 156.908C307.35 156.908 309.302 157.71 310.748 159.14C312.195 160.57 313.019 162.513 313.042 164.547V177.375C313.042 179.424 312.228 181.389 310.779 182.837C309.33 184.286 307.365 185.1 305.316 185.1Z" fill="#454545"/>
<path d="M207.641 185.1C206.626 185.1 205.622 184.9 204.684 184.512C203.746 184.124 202.895 183.554 202.177 182.837C201.46 182.119 200.89 181.268 200.502 180.33C200.114 179.392 199.914 178.388 199.914 177.373V164.547C199.937 162.513 200.762 160.57 202.208 159.14C203.655 157.71 205.607 156.908 207.641 156.908C209.675 156.908 211.627 157.71 213.073 159.14C214.52 160.57 215.344 162.513 215.367 164.547V177.375C215.367 179.424 214.553 181.389 213.104 182.837C211.655 184.286 209.69 185.1 207.641 185.1Z" fill="#454545"/>
<path d="M261.758 169.656C261.18 170.527 260.396 171.243 259.476 171.739C258.556 172.236 257.527 172.499 256.481 172.504C255.433 172.51 254.4 172.252 253.477 171.755C252.554 171.257 251.771 170.535 251.2 169.656C250.068 167.961 248.311 166.782 246.313 166.377C244.315 165.971 242.238 166.372 240.534 167.491C238.831 168.61 237.638 170.358 237.217 172.352C236.796 174.347 237.18 176.427 238.286 178.14C240.267 181.156 242.968 183.632 246.143 185.345C249.319 187.059 252.871 187.956 256.48 187.956C260.088 187.956 263.64 187.059 266.816 185.345C269.992 183.632 272.692 181.156 274.673 178.14C275.231 177.292 275.615 176.342 275.806 175.346C275.996 174.349 275.988 173.324 275.782 172.331C275.577 171.337 275.177 170.394 274.607 169.555C274.036 168.715 273.306 167.997 272.458 167.44C271.148 166.582 265.367 164.359 261.758 169.656Z" fill="#454545"/>
<path d="M141.969 93.6372L103.652 140.418C102.758 141.51 102.193 142.833 102.021 144.233C101.849 145.634 102.079 147.054 102.683 148.329C103.287 149.604 104.241 150.681 105.433 151.436C106.625 152.19 108.007 152.59 109.418 152.59H138.105L139.925 175.344C140.083 177.32 140.837 179.201 142.087 180.738C143.337 182.276 145.025 183.397 146.927 183.955C148.828 184.512 150.855 184.479 152.737 183.859C154.619 183.24 156.269 182.063 157.468 180.485L215.368 104.305L141.969 93.6372Z" fill="#FAB658"/>
<path d="M370.988 93.6372L409.3 140.418C410.194 141.51 410.76 142.833 410.931 144.233C411.103 145.634 410.873 147.054 410.269 148.329C409.665 149.604 408.712 150.681 407.519 151.436C406.327 152.19 404.945 152.59 403.534 152.59H374.852L373.032 175.344C372.875 177.32 372.121 179.201 370.87 180.738C369.62 182.276 367.932 183.397 366.031 183.955C364.129 184.512 362.103 184.479 360.221 183.859C358.338 183.24 356.688 182.063 355.489 180.485L297.589 104.305L370.988 93.6372Z" fill="#FAB658"/>
<path d="M169.773 86.707C169.773 63.7114 178.908 41.6576 195.168 25.3973C211.429 9.13692 233.483 0.00195313 256.478 0.00195312C279.474 0.00195313 301.528 9.13692 317.788 25.3973C334.048 41.6576 343.183 63.7114 343.183 86.707H169.773Z" fill="#F2614A"/>
<path d="M256.48 2.82633e-07C245.093 -0.000919103 233.818 2.2412 223.298 6.59831C212.778 10.9554 203.219 17.3422 195.167 25.3938C187.115 33.4455 180.729 43.0044 176.371 53.5246C172.014 64.0448 169.772 75.3202 169.773 86.707H332.1C303.373 67.453 272.307 58.734 251.225 54.816C230.684 51 223 25.383 238.23 11.078C243.489 6.17208 249.701 2.40116 256.48 2.82633e-07Z" fill="#C74B36"/>
<path d="M256.871 124.984C215.863 124.963 175.229 117.183 137.113 102.054C132.032 100.043 127.958 96.0952 125.788 91.0801C123.617 86.065 123.528 80.393 125.539 75.312C127.551 70.231 131.498 66.1571 136.513 63.9866C141.528 61.816 147.2 61.7266 152.281 63.738C219.451 90.4451 294.292 90.4451 361.461 63.738C363.977 62.7421 366.665 62.2514 369.37 62.2941C372.076 62.3367 374.746 62.9118 377.229 63.9866C379.713 65.0613 381.96 66.6146 383.843 68.5579C385.726 70.5011 387.207 72.7962 388.203 75.312C389.199 77.8279 389.69 80.5153 389.647 83.2208C389.605 85.9263 389.029 88.5969 387.955 91.0801C386.88 93.5633 385.327 95.8105 383.383 97.6934C381.44 99.5763 379.145 101.058 376.629 102.054C338.513 117.182 297.88 124.962 256.871 124.984Z" fill="#FC8978"/>
<path d="M125.539 75.3129C123.529 80.394 123.618 86.0657 125.789 91.0806C127.959 96.0955 132.033 100.043 137.113 102.055C149.937 107.132 163.067 111.397 176.426 114.825C171.66 109.813 169.77 102.903 171.914 93.6379C176.121 75.4469 199.894 77.9579 199.894 77.9579C183.641 74.6098 167.709 69.8522 152.281 63.7389C147.2 61.7285 141.529 61.8184 136.514 63.9888C131.499 66.1592 127.551 70.2325 125.539 75.3129Z" fill="#F2614A"/>
</svg>
