<svg width="512" height="512" viewBox="0 0 512 512" fill="none" xmlns="http://www.w3.org/2000/svg">
<path d="M436.446 71.0341L255.987 35.5171L75.5287 71.0341C75.5287 71.0341 -14.4893 276.245 48.1867 453.5C54.3309 470.662 65.6394 485.501 80.5582 495.976C95.477 506.451 113.274 512.049 131.503 512H380.47C398.699 512.049 416.496 506.451 431.415 495.976C446.334 485.501 457.642 470.663 463.787 453.5C526.464 276.245 436.446 71.0341 436.446 71.0341Z" fill="#2FC8B4"/>
<path d="M89.3957 453.5C26.7187 276.246 116.736 71.0361 116.736 71.0361L276.587 39.5721L255.987 35.5181L75.5287 71.0341C75.5287 71.0341 -14.4893 276.244 48.1867 453.5C54.3308 470.663 65.6395 485.501 80.5585 495.976C95.4775 506.452 113.275 512.049 131.504 512H172.711C154.482 512.049 136.685 506.451 121.767 495.976C106.848 485.501 95.5397 470.662 89.3957 453.5Z" fill="#00AE95"/>
<path d="M355.415 143.467H156.559C148.079 143.467 139.947 146.836 133.951 152.832C127.955 158.828 124.587 166.96 124.587 175.44V406.463C124.587 414.943 127.955 423.075 133.951 429.071C139.947 435.067 148.08 438.436 156.56 438.436H355.414C363.893 438.436 372.026 435.067 378.022 429.071C384.018 423.075 387.387 414.943 387.387 406.463V175.441C387.387 171.242 386.56 167.084 384.953 163.205C383.347 159.326 380.992 155.801 378.023 152.832C375.054 149.863 371.529 147.508 367.65 145.901C363.771 144.294 359.613 143.467 355.415 143.467Z" fill="#F0F0F0"/>
<path d="M261.781 325.122C144.143 308.366 169.974 245.532 152.52 205.738C152.52 205.738 205.579 192.473 243.977 228.777C282.375 265.081 261.781 325.122 261.781 325.122Z" fill="#00AE95"/>
<path d="M261.772 332.849C259.916 332.846 258.123 332.176 256.721 330.961C255.319 329.745 254.401 328.066 254.135 326.23C254.052 325.665 245.783 272.102 206.058 247.443C204.328 246.357 203.099 244.63 202.639 242.64C202.179 240.65 202.525 238.559 203.602 236.824C204.679 235.089 206.4 233.851 208.387 233.38C210.374 232.91 212.467 233.245 214.208 234.313C260.152 262.833 269.072 321.535 269.43 324.021C269.574 325.025 269.519 326.048 269.268 327.031C269.017 328.014 268.575 328.938 267.967 329.75C267.359 330.563 266.597 331.247 265.725 331.765C264.852 332.283 263.886 332.623 262.882 332.768C262.514 332.822 262.143 332.849 261.772 332.849Z" fill="#2FC8B4"/>
<path d="M250.194 378.531C367.832 361.775 342.001 298.941 359.455 259.147C359.455 259.147 306.396 245.882 267.998 282.186C229.6 318.49 250.194 378.531 250.194 378.531Z" fill="#2FC8B4"/>
<path d="M250.203 386.258C249.832 386.258 249.461 386.231 249.094 386.179C248.089 386.035 247.123 385.694 246.251 385.176C245.378 384.659 244.616 383.974 244.008 383.162C243.4 382.35 242.958 381.425 242.707 380.442C242.456 379.459 242.401 378.436 242.546 377.432C242.903 374.947 251.824 316.243 297.768 287.725C299.509 286.657 301.601 286.322 303.589 286.792C305.576 287.263 307.296 288.501 308.373 290.236C309.45 291.972 309.796 294.063 309.336 296.052C308.876 298.042 307.647 299.769 305.918 300.855C266.028 325.616 257.918 379.095 257.843 379.633C257.577 381.471 256.659 383.151 255.256 384.368C253.853 385.584 252.06 386.255 250.203 386.258Z" fill="#00AE95"/>
<path d="M396.717 5.12593L396.344 5.33693C390.24 8.83369 383.328 10.6734 376.294 10.6734C369.259 10.6734 362.347 8.83369 356.244 5.33693C350.14 1.84017 343.228 0.000488281 336.194 0.000488281C329.159 0.000488281 322.247 1.84017 316.144 5.33693C310.04 8.83369 303.128 10.6734 296.094 10.6734C289.059 10.6734 282.147 8.83369 276.044 5.33693C269.94 1.84017 263.028 0.000488281 255.994 0.000488281C248.959 0.000488281 242.047 1.84017 235.944 5.33693C229.84 8.83369 222.928 10.6734 215.894 10.6734C208.859 10.6734 201.947 8.83369 195.844 5.33693C189.74 1.84017 182.828 0.000488281 175.794 0.000488281C168.759 0.000488281 161.847 1.84017 155.744 5.33693C149.64 8.83369 142.728 10.6734 135.694 10.6734C128.659 10.6734 121.747 8.83369 115.644 5.33693L115.271 5.12593C97.4566 -4.82307 75.5266 8.35393 75.5266 28.7439V71.0339H436.444V28.7439C436.446 8.35393 414.517 -4.82307 396.717 5.12593Z" fill="#F0F0F0"/>
<path d="M125.087 9.24804C121.783 8.35128 118.606 7.03702 115.635 5.33704C115.51 5.26604 115.387 5.19604 115.261 5.12604C97.4607 -4.82296 75.5337 8.35405 75.5337 28.744V71.034H116.741V28.744C116.724 25.0963 117.456 21.4839 118.892 18.1305C120.327 14.777 122.436 11.7539 125.087 9.24804Z" fill="#D9D9D9"/>
</svg>
