<svg width="512" height="512" viewBox="0 0 512 512" fill="none" xmlns="http://www.w3.org/2000/svg">
<path d="M413.266 485.1C392.666 461.551 338.279 386.251 376.717 282.763L354.173 251.288L291.089 277.726C291.089 277.726 283.08 477.284 396.26 511.3C399.634 512.328 403.25 512.231 406.564 511.023C409.877 509.815 412.708 507.562 414.628 504.603C416.548 501.645 417.454 498.142 417.208 494.624C416.962 491.106 415.579 487.763 413.266 485.1Z" fill="#FF5E6B"/>
<path d="M193.636 292.951L145.892 237.5L135.192 247.1C129.145 252.528 124.543 259.376 121.802 267.026C119.061 274.676 118.267 282.888 119.492 290.921C121.03 300.947 119.406 311.203 114.846 320.264C71.2041 406.752 107.226 478.97 122.462 503.255C124.143 505.934 126.476 508.142 129.244 509.672C132.012 511.202 135.124 512.003 138.286 512C141.153 511.999 143.98 511.338 146.55 510.068C149.12 508.798 151.364 506.954 153.106 504.678C154.849 502.402 156.044 499.755 156.599 496.943C157.155 494.131 157.055 491.229 156.308 488.461C123.09 365.041 193.636 292.951 193.636 292.951Z" fill="#FF5E6B"/>
<path d="M374.029 280.515C374.221 280.278 374.401 280.033 374.588 279.793L354.17 251.288L291.089 277.727C290.73 293.381 291.252 309.043 292.651 324.639C294.078 324.761 295.518 324.839 296.976 324.839H296.981C302.307 324.837 307.6 323.993 312.662 322.339C336.74 314.641 358.06 300.11 374.029 280.515Z" fill="#E63E4C"/>
<path d="M350.835 237.5C338.299 219.412 322.489 203.829 304.22 191.556L277.236 240.667V274.085C277.232 277.206 277.965 280.284 279.377 283.067C280.789 285.85 282.839 288.26 285.36 290.1C287.882 291.94 290.802 293.157 293.883 293.652C296.965 294.148 300.12 293.908 303.09 292.951C321.49 287.121 337.79 276.049 349.99 261.092C352.658 257.778 354.182 253.689 354.334 249.437C354.487 245.184 353.259 240.997 350.835 237.5Z" fill="#B3B3B3"/>
<path d="M145.892 237.5L135.192 247.1C126.773 254.665 121.235 264.912 119.52 276.1C120.498 277.63 121.558 279.105 122.696 280.52C136.56 297.571 154.535 310.813 174.929 319C184.843 301.947 193.635 292.953 193.635 292.953L145.892 237.5Z" fill="#E63E4C"/>
<path d="M145.892 237.5C158.545 219.415 174.445 203.837 192.785 191.556L219.491 234.341V274.084C219.496 277.205 218.762 280.283 217.35 283.066C215.938 285.849 213.888 288.259 211.367 290.099C208.846 291.939 205.925 293.156 202.844 293.651C199.763 294.147 196.608 293.907 193.637 292.95C175.237 287.12 158.938 276.048 146.737 261.091C144.069 257.777 142.545 253.688 142.393 249.436C142.241 245.184 143.468 240.997 145.892 237.5Z" fill="#B3B3B3"/>
<path d="M282.929 90.4261C307.718 56.9901 307.796 24.6521 305.929 9.29012C305.824 8.4321 305.962 7.5617 306.328 6.77871C306.695 5.99572 307.275 5.33182 308.001 4.86314C308.727 4.39445 309.571 4.13995 310.436 4.1288C311.3 4.11766 312.15 4.35032 312.888 4.80012C398.367 57.6471 304.221 181.51 304.221 181.51H248.365L282.929 90.4261Z" fill="#999999"/>
<path d="M192.507 0V130.077L282.929 216.426V90.426C282.929 66.4442 273.403 43.4446 256.445 26.4866C239.488 9.52853 216.489 0.00106084 192.507 0V0Z" fill="#B3B3B3"/>
<path d="M218.409 143.859C222.764 143.859 226.294 140.329 226.294 135.974C226.294 131.619 222.764 128.089 218.409 128.089C214.054 128.089 210.524 131.619 210.524 135.974C210.524 140.329 214.054 143.859 218.409 143.859Z" fill="black"/>
<path d="M304.221 191.556L277.237 240.667V266.422H296.437C305.333 266.422 313.865 262.888 320.156 256.598C326.446 250.307 329.98 241.775 329.98 232.879V212.63C322.11 204.773 313.482 197.714 304.221 191.556Z" fill="#999999"/>
<path d="M169.692 209.956C173.143 222.06 179.477 233.146 188.15 242.266C196.823 251.387 207.577 258.269 219.492 262.323V234.341L192.786 191.556C184.573 197.013 176.846 203.17 169.692 209.956Z" fill="#999999"/>
<path d="M276.49 153.779H244.315V129.494C244.315 122.711 241.655 116.199 236.905 111.356C232.156 106.513 225.697 103.726 218.915 103.594C204.395 103.319 192.509 115.554 192.509 130.077V188.858C192.509 195.662 193.849 202.399 196.453 208.684C199.056 214.97 202.873 220.681 207.684 225.492C217.4 235.208 230.577 240.667 244.318 240.667H304.218V181.509C304.218 177.867 303.501 174.262 302.108 170.897C300.715 167.533 298.672 164.476 296.097 161.901C293.523 159.326 290.466 157.283 287.102 155.89C283.737 154.496 280.131 153.779 276.49 153.779Z" fill="#D9D9D9"/>
<path d="M248.366 211.797C257.755 211.797 265.366 204.186 265.366 194.797C265.366 185.408 257.755 177.797 248.366 177.797C238.977 177.797 231.366 185.408 231.366 194.797C231.366 204.186 238.977 211.797 248.366 211.797Z" fill="#B3B3B3"/>
</svg>
