<svg width="512" height="512" viewBox="0 0 512 512" fill="none" xmlns="http://www.w3.org/2000/svg">
<path d="M285.36 385.8C285.36 428.215 242.721 455.9 190.122 455.9C137.523 455.9 94.8838 428.213 94.8838 385.8C94.8838 343.387 137.523 302.3 190.122 302.3C242.721 302.3 285.36 343.385 285.36 385.8Z" fill="#D9A884"/>
<path d="M390.468 481.008C451.404 481.008 500.802 438.291 500.802 385.597C500.802 332.903 451.404 290.186 390.468 290.186C329.532 290.186 280.134 332.903 280.134 385.597C280.134 438.291 329.532 481.008 390.468 481.008Z" fill="#CA895A"/>
<path d="M63.4355 109.75L109.751 63.4345L223.595 177.279L177.28 223.594L63.4355 109.75Z" fill="#D9A884"/>
<path d="M63.4351 109.75L109.751 63.434L135.644 89.3276L89.3286 135.643L63.4351 109.75Z" fill="#CA895A"/>
<path d="M81.2257 5.8002L5.80068 81.2262C2.08625 84.9407 -0.000488281 89.9786 -0.000488281 95.2317C-0.000488281 100.485 2.08625 105.523 5.80068 109.237L20.8687 124.305C24.5832 128.02 29.6211 130.106 34.8742 130.106C40.1272 130.106 45.1652 128.02 48.8797 124.305L124.304 48.8812C128.018 45.1667 130.105 40.1288 130.105 34.8757C130.105 29.6226 128.018 24.5847 124.304 20.8702L109.234 5.8002C105.519 2.08576 100.481 -0.000976562 95.2282 -0.000976562C89.9751 -0.000976562 84.9372 2.08576 81.2227 5.8002H81.2257Z" fill="#6FCD90"/>
<path d="M57.1567 29.8701L5.80068 81.2261C2.08625 84.9406 -0.000488281 89.9785 -0.000488281 95.2316C-0.000488281 100.485 2.08625 105.523 5.80068 109.237L20.8687 124.305C24.5832 128.02 29.6211 130.106 34.8742 130.106C40.1272 130.106 45.1652 128.02 48.8797 124.305L70.2267 102.958C56.3897 87.4491 50.5447 54.8581 57.1567 29.8701Z" fill="#3CB667"/>
<path d="M279.934 175.892C285.364 170.462 292.729 167.411 300.409 167.411C308.089 167.411 315.454 170.462 320.885 175.892L393.434 248.437C414.504 269.507 392.059 326.886 378.302 359.969C374.854 368.263 368.263 374.854 359.969 378.3C326.887 392.058 269.508 414.5 248.437 393.432L175.892 320.89C170.461 315.46 167.411 308.095 167.411 300.415C167.411 292.735 170.461 285.37 175.892 279.939L279.934 175.892Z" fill="#A2DDFD"/>
<path d="M332.892 348.317C318.158 354.132 298.037 361.36 283.026 363.481C280.065 363.893 277.048 363.612 274.215 362.659C271.381 361.706 268.808 360.108 266.698 357.99L182.269 273.561L273.561 182.269L357.99 266.7C360.107 268.811 361.706 271.385 362.658 274.22C363.611 277.054 363.892 280.071 363.48 283.033C361.355 298.059 354.119 318.194 348.316 332.896C346.939 336.387 344.859 339.557 342.206 342.21C339.553 344.863 336.382 346.943 332.892 348.319V348.317Z" fill="#7ACDF9"/>
<path d="M209.634 170.321L170.322 209.633C168.72 211.235 167.449 213.136 166.583 215.229C165.716 217.322 165.27 219.565 165.27 221.83C165.27 224.095 165.716 226.338 166.583 228.431C167.449 230.523 168.72 232.425 170.322 234.026L196.065 259.768L259.77 196.063L234.026 170.32C230.791 167.086 226.403 165.269 221.829 165.269C217.254 165.269 212.867 167.086 209.632 170.32L209.634 170.321Z" fill="#A2DDFD"/>
<path d="M500.164 448.876C483.538 402.066 433.164 368.84 374.93 373.262C346.76 348.011 308.073 332.399 265.348 332.399C222.623 332.399 183.934 348.011 155.766 373.262C97.3877 368.829 47.1287 402.156 30.5337 448.9C23.6557 468.268 34.2587 489.445 53.6337 496.318C80.6427 505.9 115.722 512 145.567 512C164.471 511.844 183.315 509.842 201.831 506.023C222.79 509.85 244.042 511.849 265.348 512C286.653 511.849 307.905 509.85 328.865 506.023C347.38 509.842 366.224 511.844 385.129 512C414.975 512 450.056 505.9 477.074 496.311C496.451 489.436 507.046 468.25 500.164 448.876Z" fill="#D9A884"/>
<path d="M191.234 507.959C132.205 480.916 135.34 408.229 154.322 373.181C96.5647 369.4 46.9907 402.542 30.5337 448.9C23.6557 468.268 34.2587 489.445 53.6337 496.318C80.6427 505.9 115.722 512 145.567 512C160.873 511.894 176.146 510.543 191.234 507.959Z" fill="#CA895A"/>
<path d="M422.289 436.807C425.651 433.446 425.651 427.996 422.289 424.634C418.928 421.272 413.477 421.272 410.116 424.634C406.754 427.996 406.754 433.446 410.116 436.807C413.477 440.169 418.928 440.169 422.289 436.807Z" fill="#CA895A"/>
<path d="M223.575 405.536C226.937 402.174 226.937 396.724 223.575 393.362C220.213 390 214.763 390 211.401 393.362C208.04 396.724 208.04 402.174 211.401 405.536C214.763 408.897 220.213 408.897 223.575 405.536Z" fill="#CA895A"/>
<path d="M299.122 461.976C303.876 461.976 307.73 458.122 307.73 453.368C307.73 448.614 303.876 444.76 299.122 444.76C294.368 444.76 290.514 448.614 290.514 453.368C290.514 458.122 294.368 461.976 299.122 461.976Z" fill="#CA895A"/>
<path d="M93.3323 451.757C97.9588 450.663 100.823 446.026 99.7291 441.399C98.6355 436.773 93.9983 433.909 89.3718 435.003C84.7452 436.096 81.8812 440.733 82.9749 445.36C84.0686 449.987 88.7057 452.851 93.3323 451.757Z" fill="#D9A884"/>
</svg>
