<svg width="512" height="512" viewBox="0 0 512 512" fill="none" xmlns="http://www.w3.org/2000/svg">
<path d="M158.559 11.1431H130.892C127.776 11.1431 124.788 12.3808 122.585 14.584C120.382 16.7872 119.144 19.7753 119.144 22.8911V38.2121C119.144 41.3278 120.382 44.316 122.585 46.5192C124.788 48.7223 127.776 49.9601 130.892 49.9601H158.559L176.492 30.5511L158.559 11.1431Z" fill="#42C3E2"/>
<path d="M199.544 55.1069L173.698 62.4739C173.698 62.4739 166.048 102.297 137.089 120.155C135.943 120.876 134.953 121.819 134.175 122.927C133.398 124.036 132.85 125.289 132.562 126.612C132.275 127.935 132.254 129.302 132.502 130.634C132.749 131.965 133.26 133.233 134.003 134.365L137.112 139.148C138.409 141.145 140.362 142.628 142.634 143.341C144.906 144.054 147.356 143.952 149.561 143.054C184.101 128.942 202.408 85.6339 202.408 85.6339L199.544 55.1069Z" fill="#42C3E2"/>
<path d="M199.544 55.1069L173.698 62.4739C171.83 70.8788 168.991 79.038 165.238 86.7869C168.383 87.7799 173.511 90.4539 178.421 98.6769C181.09 103.22 183.088 108.125 184.355 113.239L184.633 114.817C191.708 105.838 197.676 96.0393 202.408 85.6329L199.544 55.1069Z" fill="#00A6C8"/>
<path d="M158.559 49.9611L176.493 30.5521L158.559 11.1431H137.959V49.9611H158.559Z" fill="#00A6C8"/>
<path d="M391.652 97.34L345.498 33.246C330.466 12.371 316.789 0 291.065 0H169.703C166.748 0 163.913 1.17399 161.824 3.26371C159.734 5.35343 158.56 8.18769 158.56 11.143V49.96C158.564 52.5648 159.479 55.086 161.147 57.0867C162.815 59.0874 165.131 60.4414 167.692 60.914C201.653 67.267 209.618 108.214 209.618 108.214L256.644 140.415L303.672 108.215H322.427L370.45 124.315C374.045 125.775 378.018 126.024 381.767 125.024C385.516 124.024 388.837 121.83 391.228 118.774C393.609 115.729 394.938 111.993 395.015 108.128C395.091 104.263 393.911 100.477 391.652 97.34Z" fill="#D9D9D9"/>
<path d="M209.616 108.215V172.615L256.644 194.663L303.672 172.617V108.217L209.616 108.215Z" fill="#00A6C8"/>
<path d="M250.823 172.617V108.217H209.616V172.617L256.644 194.663L277.244 185L250.823 172.617Z" fill="#0095B3"/>
<path d="M350.479 512C356.626 512 362.712 510.79 368.391 508.437C374.07 506.085 379.23 502.637 383.577 498.291C387.923 493.944 391.371 488.784 393.723 483.105C396.075 477.427 397.286 471.34 397.286 465.193V293.558C397.286 225.982 303.671 172.616 303.671 172.616H209.615C209.615 172.616 116 225.982 116 293.558V465.191C116 471.338 117.21 477.425 119.562 483.104C121.915 488.783 125.362 493.943 129.709 498.29C134.055 502.637 139.215 506.085 144.894 508.437C150.573 510.789 156.66 512 162.807 512H350.477H350.479Z" fill="#42C3E2"/>
<path d="M157.209 465.193V293.558C157.209 225.983 250.824 172.616 250.824 172.616H209.617C209.617 172.616 116.002 225.982 116.002 293.558V465.191C116.002 471.338 117.212 477.425 119.564 483.104C121.917 488.783 125.364 493.943 129.711 498.29C134.057 502.637 139.217 506.085 144.896 508.437C150.575 510.789 156.662 512 162.809 512H204.016C197.869 512.001 191.782 510.791 186.103 508.439C180.423 506.087 175.263 502.639 170.916 498.293C166.57 493.946 163.122 488.786 160.77 483.107C158.418 477.427 157.208 471.34 157.209 465.193Z" fill="#00A6C8"/>
<path d="M342.55 296.4H170.738C168.113 296.4 165.513 296.916 163.087 297.92C160.662 298.925 158.458 300.397 156.601 302.253C154.745 304.109 153.272 306.313 152.267 308.738C151.262 311.163 150.744 313.763 150.744 316.388V462.821C150.744 466.775 152.315 470.567 155.111 473.363C157.907 476.159 161.699 477.73 165.653 477.73H347.63C351.584 477.73 355.376 476.159 358.172 473.363C360.968 470.567 362.539 466.775 362.539 462.821V316.388C362.538 311.087 360.432 306.003 356.684 302.254C352.935 298.506 347.851 296.4 342.55 296.4Z" fill="#F0F0F0"/>
<path d="M157.209 465.193V301.7C155.173 303.566 153.547 305.835 152.435 308.363C151.323 310.891 150.749 313.623 150.749 316.385V462.82C150.749 465.485 151.463 468.1 152.817 470.395C154.172 472.689 156.116 474.579 158.449 475.866C157.627 472.368 157.211 468.787 157.209 465.193Z" fill="#D9D9D9"/>
</svg>
