<svg width="512" height="512" viewBox="0 0 512 512" fill="none" xmlns="http://www.w3.org/2000/svg">
<path d="M306.269 128.027L256 113.169L205.731 128.027C204.968 132.282 204.749 136.617 205.081 140.927L206.061 153.827L256 173.001L305.939 153.817L306.919 140.917C307.25 136.61 307.031 132.279 306.269 128.027Z" fill="#FF5E6B"/>
<path d="M107.792 192.677L94.0206 188.835C91.6873 188.184 89.235 188.081 86.8554 188.535C84.4759 188.99 82.2338 189.988 80.3046 191.453C78.3753 192.919 76.8113 194.81 75.7348 196.98C74.6583 199.151 74.0987 201.54 74.0996 203.963V260.504C74.0995 262.926 74.6597 265.315 75.7364 267.484C76.8132 269.654 78.3772 271.545 80.3063 273.009C82.2353 274.474 84.477 275.472 86.856 275.926C89.235 276.38 91.6868 276.278 94.0196 275.627L107.791 271.79L127.42 234.868L107.792 192.677Z" fill="#FF5E6B"/>
<path d="M404.208 192.677L417.979 188.84C420.311 188.189 422.763 188.087 425.142 188.541C427.521 188.995 429.763 189.993 431.692 191.458C433.621 192.922 435.185 194.813 436.262 196.982C437.339 199.152 437.899 201.541 437.899 203.963V260.504C437.899 262.926 437.339 265.315 436.262 267.485C435.185 269.654 433.621 271.545 431.692 273.009C429.763 274.474 427.521 275.472 425.142 275.926C422.763 276.38 420.311 276.278 417.979 275.627L404.208 271.79L384.579 234.868L404.208 192.677Z" fill="#FF5E6B"/>
<path d="M295.26 236.269H216.75V395.133H295.26V236.269Z" fill="#B3B3B3"/>
<path d="M295.255 311.959C279.377 316.892 266.292 323.111 256 330.614C245.733 323.112 232.648 316.894 216.745 311.959V395.135H295.255V311.959Z" fill="#999999"/>
<path d="M494 349.459C465.246 350.964 437.839 362.113 416.2 381.107C418.572 368.554 423.555 356.639 430.827 346.135C436.094 338.494 429.722 328.25 420.578 329.835C394.186 334.414 355.39 346.177 330.213 376.39C330.213 376.39 331.794 360.054 338.833 345.358C339.685 343.622 340.038 341.684 339.851 339.76C339.665 337.835 338.948 336 337.779 334.461C336.609 332.921 335.035 331.736 333.232 331.039C331.428 330.343 329.466 330.162 327.566 330.516C301.5 335.435 264.238 346.546 256 370.505C247.765 346.546 210.5 335.437 184.436 330.521C182.535 330.167 180.573 330.348 178.77 331.044C176.966 331.741 175.392 332.926 174.223 334.465C173.054 336.005 172.336 337.84 172.15 339.765C171.964 341.689 172.316 343.627 173.169 345.363C180.207 360.063 181.789 376.395 181.789 376.395C156.611 346.182 117.815 334.419 91.4237 329.84C82.2797 328.254 75.9067 338.497 81.1747 346.14C88.4446 356.643 93.4272 368.556 95.7997 381.107C74.1621 362.114 46.7563 350.965 18.0047 349.459C16.032 349.342 14.0668 349.789 12.3384 350.747C10.61 351.705 9.18969 353.135 8.24307 354.869C7.29645 356.604 6.86261 358.572 6.99214 360.544C7.12168 362.516 7.80926 364.41 8.97466 366.006C16.3337 376.106 22.5827 388.091 27.3817 398.673C31.0574 406.782 36.9919 413.66 44.4749 418.484C51.958 423.307 60.6725 425.873 69.5757 425.873H442.427C451.33 425.873 460.044 423.307 467.527 418.484C475.01 413.66 480.945 406.782 484.621 398.673C489.421 388.091 495.67 376.107 503.028 366.006C504.193 364.41 504.88 362.516 505.01 360.544C505.14 358.573 504.706 356.605 503.76 354.87C502.813 353.136 501.393 351.706 499.665 350.748C497.937 349.79 495.972 349.343 494 349.459Z" fill="#2FC8B4"/>
<path d="M58.2858 398.673C53.4858 388.091 47.2368 376.107 39.8788 366.006C38.4361 364.049 37.7272 361.647 37.876 359.221C38.0248 356.794 39.0218 354.497 40.6928 352.732C33.2378 350.984 25.6448 349.889 17.9998 349.459C16.0271 349.342 14.0619 349.789 12.3336 350.747C10.6052 351.705 9.18481 353.134 8.23819 354.869C7.29157 356.604 6.85772 358.572 6.98726 360.543C7.11679 362.515 7.80437 364.41 8.96978 366.006C16.3288 376.106 22.5778 388.091 27.3768 398.673C31.0524 406.782 36.9869 413.66 44.4699 418.484C51.953 423.307 60.6676 425.873 69.5708 425.873H100.471C91.5692 425.871 82.8567 423.304 75.3755 418.481C67.8942 413.657 61.9611 406.78 58.2858 398.673Z" fill="#00AE95"/>
<path d="M305.939 153.817L299.616 237.303H212.384L206.061 153.817H305.939Z" fill="#B3B3B3"/>
<path d="M185.058 214.226V250.235L107.792 271.785V192.677L185.058 214.226Z" fill="#B3B3B3"/>
<path d="M3.59967 175.376C-8.17433 187.15 9.45468 212.636 48.9837 220.76C40.8587 181.235 15.3727 163.601 3.59967 175.376Z" fill="#42C3E2"/>
<path d="M3.59967 289.088C-8.17433 277.314 9.45468 251.828 48.9837 243.704C40.8587 283.235 15.3727 300.861 3.59967 289.088Z" fill="#00A6C8"/>
<path d="M326.943 214.226V250.235L404.208 271.785V192.677L326.943 214.226Z" fill="#B3B3B3"/>
<path d="M508.4 175.376C520.174 187.15 502.545 212.636 463.016 220.76C471.141 181.235 496.628 163.601 508.4 175.376Z" fill="#42C3E2"/>
<path d="M508.4 289.088C520.174 277.314 502.545 251.828 463.016 243.704C471.141 283.235 496.628 300.861 508.4 289.088Z" fill="#00A6C8"/>
<path d="M311.845 188.012H200.155C194.347 188.012 188.597 189.156 183.232 191.378C177.867 193.601 172.992 196.858 168.886 200.965C164.78 205.071 161.523 209.946 159.301 215.312C157.079 220.677 155.935 226.428 155.936 232.235C155.936 243.962 160.594 255.21 168.887 263.503C177.18 271.795 188.427 276.454 200.155 276.455H311.844C323.571 276.455 334.819 271.796 343.111 263.503C351.404 255.211 356.063 243.963 356.064 232.236C356.064 226.428 354.921 220.678 352.699 215.312C350.477 209.947 347.22 205.072 343.114 200.965C339.008 196.858 334.133 193.601 328.768 191.378C323.402 189.156 317.652 188.012 311.845 188.012Z" fill="#D9D9D9"/>
<path d="M306.268 128.027H205.73C207.852 116.239 214.049 105.572 223.238 97.8902C232.426 90.2079 244.023 85.999 255.999 85.999C267.976 85.999 279.573 90.2079 288.761 97.8902C297.95 105.572 304.147 116.239 306.268 128.027Z" fill="#D9D9D9"/>
</svg>
