<svg width="512" height="512" viewBox="0 0 512 512" fill="none" xmlns="http://www.w3.org/2000/svg">
<path d="M138.613 4.79993C126.49 36.3079 137.569 78.7599 169.094 110.284C200.619 141.808 243.07 152.884 274.578 140.765C286.701 109.257 275.622 66.8049 244.097 35.2809C212.572 3.75693 170.121 -7.32207 138.613 4.79993Z" fill="#00AE95"/>
<path d="M279.384 155.861C277.944 155.862 276.533 155.46 275.309 154.702C274.085 153.943 273.097 152.858 272.457 151.568C272.088 150.826 236.035 79.5418 167.557 44.2988C166.647 43.8389 165.838 43.2034 165.175 42.4292C164.512 41.655 164.008 40.7572 163.694 39.7876C163.379 38.818 163.26 37.7958 163.342 36.7797C163.424 35.7637 163.707 34.774 164.173 33.8677C164.64 32.9613 165.281 32.1562 166.06 31.4987C166.839 30.8412 167.74 30.3443 168.712 30.0366C169.684 29.729 170.707 29.6166 171.722 29.7061C172.737 29.7955 173.725 30.085 174.628 30.5578C247.749 68.1878 284.762 141.593 286.302 144.7C286.885 145.878 287.158 147.184 287.095 148.497C287.033 149.81 286.637 151.085 285.944 152.202C285.252 153.319 284.287 154.241 283.139 154.881C281.992 155.521 280.7 155.858 279.386 155.861H279.384Z" fill="#2FC8B4"/>
<path d="M141.812 239.715C135.945 265.015 148.929 296.18 176.321 316.829C203.713 337.478 237.246 341.378 259.956 328.77C265.823 303.47 252.839 272.305 225.447 251.656C198.055 231.007 164.523 227.107 141.812 239.715Z" fill="#00AE95"/>
<path d="M264.411 341.6C263.153 341.602 261.914 341.296 260.801 340.71C259.689 340.123 258.736 339.274 258.027 338.235C257.553 337.547 222.775 287.69 167.503 268.4C166.54 268.07 165.652 267.553 164.889 266.878C164.127 266.203 163.505 265.385 163.06 264.469C162.615 263.553 162.355 262.558 162.296 261.542C162.237 260.526 162.379 259.507 162.714 258.546C163.05 257.585 163.572 256.699 164.251 255.941C164.929 255.182 165.751 254.565 166.67 254.125C167.588 253.685 168.584 253.43 169.601 253.377C170.617 253.323 171.635 253.47 172.594 253.811C232.884 274.852 269.262 327.291 270.782 329.511C271.575 330.671 272.037 332.026 272.118 333.429C272.198 334.833 271.894 336.231 271.239 337.475C270.584 338.718 269.601 339.759 268.398 340.486C267.195 341.213 265.817 341.598 264.411 341.599V341.6Z" fill="#2FC8B4"/>
<path d="M439.017 110.533C449.899 138.815 439.954 176.919 411.657 205.215C383.36 233.511 345.257 243.456 316.975 232.575C306.093 204.293 316.038 166.189 344.335 137.893C372.632 109.597 410.737 99.651 439.017 110.533Z" fill="#00AE95"/>
<path d="M312.66 246.91C311.346 246.908 310.054 246.571 308.907 245.931C307.76 245.291 306.794 244.37 306.102 243.253C305.41 242.136 305.014 240.862 304.952 239.549C304.889 238.237 305.162 236.931 305.745 235.753C307.132 232.953 340.467 166.843 406.332 132.948C408.152 132.028 410.263 131.864 412.203 132.494C414.143 133.123 415.756 134.494 416.689 136.308C417.623 138.122 417.801 140.231 417.185 142.176C416.569 144.121 415.21 145.743 413.403 146.689C352.168 178.202 319.908 241.982 319.589 242.622C318.947 243.911 317.959 244.995 316.735 245.752C315.51 246.51 314.099 246.911 312.66 246.91Z" fill="#2FC8B4"/>
<path d="M239.128 463.667C236.321 447.178 234.578 430.525 233.911 413.812C232.697 381.273 238.689 348.112 254.146 319.25C264.569 299.788 277.691 281.877 287.346 261.987C298.571 238.867 293.965 213.322 285.495 190.201C279.535 173.956 271.769 158.491 263.739 143.19L263.639 143.008C262.347 140.542 262.052 137.674 262.816 134.997C263.58 132.32 265.344 130.04 267.743 128.628C270.142 127.215 272.992 126.779 275.703 127.41C278.415 128.041 280.78 129.69 282.309 132.016C292.487 147.406 302.209 163.31 309.777 180.171C320.613 204.305 327.786 230.809 322.043 257.271C316.089 284.72 297.694 306.76 286.029 331.755C275.023 355.341 271.019 381.276 271.458 407.155C271.744 424.073 273.928 440.89 276.572 457.58C277.346 462.532 276.129 467.589 273.187 471.646C270.245 475.703 265.817 478.432 260.87 479.235C255.922 480.038 250.859 478.851 246.784 475.933C242.709 473.014 239.955 468.602 239.123 463.66L239.128 463.667Z" fill="#2FC8B4"/>
<path d="M239.128 463.667C239.963 468.607 242.718 473.015 246.792 475.931C250.865 478.847 255.927 480.033 260.872 479.23C265.817 478.427 270.244 475.701 273.186 471.646C276.128 467.592 277.347 462.538 276.577 457.588C273.935 440.897 271.751 424.079 271.463 407.163C271.383 402.488 271.456 397.816 271.68 393.147C259.175 391.767 246.544 392.013 234.103 393.878C233.732 400.522 233.663 407.178 233.91 413.812C234.579 430.525 236.322 447.178 239.128 463.667Z" fill="#00AE95"/>
<path d="M487.368 512C473.868 493.519 447.704 480.863 417.494 480.423C403.286 459.949 374.519 445.935 341.317 445.935C335.172 445.935 329.038 446.428 322.972 447.41C307.292 432.657 282.99 423.173 255.684 423.173C228.378 423.173 204.076 432.657 188.396 447.41C182.33 446.428 176.196 445.935 170.051 445.935C136.851 445.935 108.083 459.95 93.874 480.423C63.664 480.863 37.499 493.523 24.001 512H487.368Z" fill="#C86D5C"/>
<path d="M170.05 445.935C136.85 445.935 108.082 459.95 93.873 480.423C63.663 480.863 37.498 493.523 24 512H160.952C188.355 452.453 255.684 423.173 255.684 423.173C228.378 423.173 204.076 432.657 188.396 447.41C182.33 446.428 176.195 445.935 170.05 445.935Z" fill="#B24D40"/>
</svg>
