<svg width="512" height="512" viewBox="0 0 512 512" fill="none" xmlns="http://www.w3.org/2000/svg">
<path d="M90.0952 74.336C90.0952 79.0834 91.9811 83.6363 95.338 86.9932C98.6949 90.3501 103.248 92.236 107.995 92.236H120.565C122.74 92.236 124.826 93.0999 126.363 94.6377C127.901 96.1755 128.765 98.2612 128.765 100.436V189.87H164.565V80.117C164.565 77.0073 163.953 73.928 162.763 71.0549C161.573 68.1819 159.829 65.5713 157.63 63.3724C155.431 61.1735 152.82 59.4293 149.947 58.2393C147.074 57.0493 143.995 56.4369 140.885 56.437H107.993C103.246 56.4375 98.6941 58.3235 95.3376 61.6802C91.9812 65.0368 90.0955 69.5892 90.0952 74.336Z" fill="#3E4F61"/>
<path d="M25.1528 372.84V242.973C25.1528 222.703 33.2048 203.264 47.5375 188.932C61.8701 174.599 81.3094 166.547 101.579 166.547H250.845L164.564 399.8L25.1528 372.84Z" fill="#59C230"/>
<path d="M473.181 243.219L449.571 63C448.05 51.384 442.356 40.7178 433.551 32.9901C424.746 25.2624 413.431 21.0008 401.716 21L312.548 21C299.346 20.9995 286.503 25.3015 275.965 33.2544C265.427 41.2073 257.768 52.3778 254.148 65.074L164.562 379.274H381.423L473.181 243.219Z" fill="#7DCE5C"/>
<path d="M164.564 379.273H340.29V112.5C340.29 102.927 336.488 93.747 329.72 86.9772C322.953 80.2075 313.773 76.4028 304.201 76.3999H250.923L164.564 379.273Z" fill="#B0F0EF"/>
<path d="M381.423 379.273L473.181 243.219L451.329 76.3999H417.517C407.944 76.4015 398.763 80.2056 391.994 86.9755C385.225 93.7454 381.423 102.927 381.423 112.5V379.273Z" fill="#B0F0EF"/>
<path d="M128.767 350.742H331.501V398.02H128.767V350.742Z" fill="#3E4F61"/>
<path d="M381.423 206.137C358.713 206.123 336.224 210.591 315.245 219.284C294.265 227.978 275.208 240.727 259.165 256.8C256.18 259.812 253.899 263.448 252.488 267.447C251.077 271.446 250.57 275.709 251.004 279.927C251.437 284.146 252.801 288.216 254.997 291.844C257.192 295.472 260.165 298.568 263.701 300.91L381.424 379.273L499.146 300.91C502.682 298.568 505.654 295.472 507.85 291.844C510.045 288.215 511.408 284.145 511.842 279.927C512.275 275.708 511.768 271.446 510.356 267.447C508.944 263.448 506.663 259.812 503.677 256.801C487.635 240.727 468.578 227.978 447.599 219.284C426.62 210.59 404.132 206.122 381.423 206.137Z" fill="#9CDA82"/>
<path d="M504.931 366.727C504.931 391.154 497.687 415.033 484.116 435.344C470.545 455.655 451.256 471.485 428.688 480.833C406.119 490.181 381.286 492.627 357.328 487.862C333.37 483.096 311.363 471.333 294.09 454.06C276.817 436.787 265.054 414.78 260.288 390.822C255.523 366.864 257.969 342.03 267.317 319.462C276.665 296.894 292.495 277.605 312.806 264.034C333.117 250.462 356.996 243.219 381.423 243.219C414.179 243.219 445.594 256.232 468.756 279.394C491.918 302.556 504.931 333.97 504.931 366.727Z" fill="#6A829A"/>
<path d="M197.532 391.469C197.531 411.003 191.738 430.098 180.885 446.34C170.032 462.582 154.607 475.24 136.56 482.715C118.513 490.19 98.6541 492.145 79.4955 488.334C60.337 484.523 42.7389 475.116 28.9265 461.303C15.1142 447.49 5.70802 429.891 1.89746 410.733C-1.91309 391.574 0.0431261 371.716 7.51873 353.669C14.9943 335.622 27.6536 320.197 43.8956 309.345C60.1377 298.492 79.2331 292.7 98.767 292.7C111.737 292.7 124.581 295.255 136.564 300.219C148.547 305.182 159.435 312.458 168.606 321.629C177.777 330.801 185.052 341.689 190.015 353.672C194.978 365.655 197.533 378.499 197.532 391.469Z" fill="#6A829A"/>
<path d="M164.564 224.551V166.551H101.579C81.3094 166.551 61.8701 174.603 47.5375 188.935C33.2048 203.268 25.1528 222.707 25.1528 242.977V258.942H130.181C139.301 258.94 148.046 255.316 154.494 248.866C160.942 242.417 164.564 233.671 164.564 224.551Z" fill="#516980"/>
<path d="M223.423 220.965C220.023 220.965 216.657 220.296 213.516 218.995C210.374 217.695 207.52 215.788 205.116 213.384C202.712 210.98 200.805 208.126 199.503 204.985C198.202 201.844 197.532 198.478 197.532 195.078V160.793C197.575 153.955 200.321 147.411 205.171 142.591C210.022 137.77 216.582 135.065 223.421 135.065C230.259 135.065 236.82 137.77 241.67 142.591C246.52 147.411 249.267 153.955 249.309 160.793V195.078C249.309 201.944 246.582 208.528 241.727 213.383C236.873 218.237 230.289 220.965 223.423 220.965Z" fill="#9CDA82"/>
<path d="M139.493 391.469C139.493 399.524 137.104 407.398 132.629 414.096C128.154 420.793 121.794 426.014 114.352 429.096C106.91 432.179 98.7209 432.985 90.8206 431.414C82.9204 429.842 75.6635 425.963 69.9677 420.268C64.272 414.572 60.3931 407.315 58.8216 399.415C57.2502 391.514 58.0567 383.326 61.1392 375.884C64.2218 368.442 69.4419 362.081 76.1394 357.606C82.8369 353.131 90.711 350.742 98.7661 350.742C109.568 350.742 119.927 355.033 127.564 362.671C135.202 370.309 139.493 380.668 139.493 391.469Z" fill="#516980"/>
<path d="M436.821 366.727C436.821 377.684 433.572 388.395 427.484 397.506C421.397 406.616 412.745 413.717 402.622 417.91C392.499 422.103 381.36 423.2 370.613 421.063C359.866 418.925 349.995 413.649 342.247 405.901C334.499 398.153 329.223 388.282 327.086 377.535C324.948 366.789 326.045 355.65 330.238 345.526C334.431 335.403 341.532 326.751 350.642 320.664C359.753 314.576 370.464 311.327 381.421 311.327C396.114 311.327 410.205 317.164 420.595 327.553C430.984 337.943 436.821 352.034 436.821 366.727Z" fill="#516980"/>
<path d="M98.767 384.523C106.582 384.526 114.23 386.776 120.802 391.005C127.373 395.234 132.59 401.264 135.83 408.375C138.656 402.171 139.88 395.357 139.389 388.557C138.898 381.757 136.707 375.19 133.019 369.456C129.33 363.723 124.262 359.007 118.277 355.741C112.293 352.476 105.585 350.764 98.7675 350.764C91.9502 350.764 85.2418 352.476 79.2576 355.741C73.2733 359.007 68.2046 363.723 64.5162 369.456C60.8277 375.19 58.6375 381.757 58.1464 388.557C57.6552 395.357 58.8788 402.171 61.705 408.375C64.9451 401.264 70.1617 395.235 76.7328 391.005C83.304 386.776 90.9526 384.526 98.767 384.523Z" fill="#3E4F61"/>
<path d="M381.423 353C392.449 353.005 403.224 356.298 412.369 362.458C421.515 368.618 428.615 377.366 432.763 387.582C436.173 379.172 437.465 370.052 436.525 361.026C435.585 351.999 432.441 343.341 427.371 335.814C422.301 328.287 415.459 322.121 407.447 317.858C399.435 313.594 390.499 311.365 381.423 311.365C372.347 311.365 363.411 313.594 355.399 317.858C347.387 322.121 340.545 328.287 335.475 335.814C330.405 343.341 327.261 351.999 326.321 361.026C325.381 370.052 326.673 379.172 330.083 387.582C334.23 377.365 341.331 368.617 350.476 362.457C359.621 356.297 370.396 353.004 381.423 353Z" fill="#3E4F61"/>
<path d="M93.2863 166.988C79.8404 168.456 67.0245 173.464 56.1461 181.502C45.2678 189.54 36.7164 200.32 31.3643 212.742H88.7553C94.49 212.745 100.021 210.615 104.272 206.766C108.524 202.918 111.191 197.625 111.757 191.918C112.322 186.211 110.744 180.498 107.33 175.89C103.916 171.283 98.9103 168.109 93.2863 166.988Z" fill="#F4E74D"/>
</svg>
