<svg width="512" height="512" viewBox="0 0 512 512" fill="none" xmlns="http://www.w3.org/2000/svg">
<path d="M205.465 512.002C205.465 512.002 213.817 463.428 183.742 451.729C165.887 444.784 152.449 449.329 144.476 454.163C138.169 457.934 130.851 459.666 123.523 459.124C112.273 458.354 94.5738 459.448 86.6598 471.437C75.1758 488.83 87.3998 512.002 108.238 512.002H205.465Z" fill="#59C230"/>
<path d="M183.742 451.729C165.887 444.788 152.449 449.329 144.476 454.163C140.615 456.495 136.338 458.054 131.882 458.753C129.292 472.187 128.917 490.21 135.667 512.003H205.467C205.467 512.003 213.82 463.428 183.742 451.729Z" fill="#48A024"/>
<path d="M322.555 52.5176C322.555 52.5176 440.755 21.8176 473.043 110.995C493.551 167.628 470.371 210.729 450.727 234.643C445.447 241.137 442.142 249.009 441.202 257.325C440.263 265.641 441.729 274.053 445.427 281.561C454.986 301.272 462.49 329.077 446.865 353.19C419.088 396.061 315.693 426.362 249.553 343.737C248.043 343.436 322.555 52.5176 322.555 52.5176Z" fill="#7DCE5C"/>
<path d="M397.547 228.416C426.414 154.881 397.238 76.2008 384.715 48.2158C363.898 46.3853 342.922 47.8339 322.555 52.5088C322.555 52.5088 248.039 343.428 249.547 343.732C299.094 405.627 369.555 404.154 413.461 381.494C375.852 349.018 371.328 295.202 397.547 228.416Z" fill="#59C230"/>
<path d="M353.988 197.74C353.988 197.74 411.367 15.8768 267.414 1.20182C177.445 -7.97018 145.285 37.4638 133.814 72.8308C130.548 82.665 124.81 91.4949 117.15 98.4733C109.49 105.452 100.165 110.344 90.0698 112.682C70.6998 117.291 48.5428 129.772 36.0158 160.967C23.7158 191.612 32.5158 218.639 42.5548 236.405C50.9012 251.166 54.3335 268.2 52.3548 285.042C49.3548 310.776 54.5108 348.296 103.281 365.421C181.308 392.816 216.289 355.968 216.289 355.968L353.988 197.74Z" fill="#9CDA82"/>
<path d="M282.336 249.213C282.336 249.213 305.536 205.443 347.484 182.994C353.227 179.95 359.93 179.263 366.171 181.079C372.412 182.895 377.7 187.071 380.914 192.721C385.934 201.604 385.422 214.858 377.945 223.002C359.086 243.553 325.039 288.381 311.145 355.967L282.336 249.213Z" fill="#F2614A"/>
<path d="M355.41 251.479C351.861 230.197 345.166 209.562 335.543 190.252C301.156 213.705 282.336 249.213 282.336 249.213L311.149 355.967C318.793 318.536 333.841 283.011 355.41 251.479Z" fill="#C74B36"/>
<path d="M329.313 512.002C329.313 512.002 297.528 444.514 311.149 355.967C323.415 276.252 319.118 188.26 285.008 129.256C283.397 126.506 281.259 124.101 278.716 122.179C276.173 120.258 273.275 118.857 270.189 118.059C267.104 117.26 263.891 117.079 260.735 117.526C257.579 117.973 254.543 119.038 251.8 120.662C240.5 127.248 237.632 137.568 240.464 147.975C246.187 168.991 253.264 206.854 244.175 244.717C243.375 243.908 228.245 218.252 207.753 199.061C195.179 187.28 175.788 191.315 166.953 206.104C162.094 214.237 162.969 225.862 168.73 233.752C182.25 252.268 203.73 288.643 190.824 318.967C172.664 361.643 155.633 453.487 166.984 512.002H329.313Z" fill="#FC8978"/>
<path d="M271.492 512.002C271.492 512.002 263.14 463.428 293.215 451.729C311.07 444.784 324.515 449.329 332.485 454.163C338.792 457.934 346.109 459.667 353.438 459.124C364.688 458.354 382.387 459.448 390.301 471.437C401.781 488.832 389.563 512.003 368.719 512.003L271.492 512.002Z" fill="#7DCE5C"/>
<path d="M141.8 273.947C141.8 277.496 140.747 280.966 138.775 283.917C136.803 286.868 134 289.168 130.721 290.526C127.442 291.884 123.833 292.24 120.352 291.547C116.871 290.854 113.674 289.145 111.164 286.635C108.655 284.125 106.946 280.927 106.254 277.445C105.562 273.964 105.918 270.356 107.277 267.077C108.636 263.798 110.936 260.996 113.888 259.024C116.84 257.053 120.309 256.001 123.859 256.002C128.617 256.003 133.18 257.894 136.545 261.26C139.909 264.625 141.799 269.188 141.8 273.947Z" fill="#FD5C6F"/>
<path d="M123.855 180.072C123.854 183.621 122.802 187.09 120.83 190.04C118.858 192.991 116.055 195.29 112.776 196.648C109.498 198.006 105.89 198.361 102.409 197.668C98.9288 196.975 95.7318 195.266 93.2227 192.756C90.7136 190.246 89.0051 187.049 88.3131 183.568C87.6212 180.088 87.9769 176.48 89.3354 173.202C90.6938 169.923 92.9939 167.121 95.9448 165.15C98.8958 163.179 102.365 162.127 105.914 162.127C108.27 162.127 110.603 162.592 112.78 163.494C114.957 164.396 116.935 165.717 118.601 167.384C120.267 169.05 121.588 171.028 122.49 173.205C123.391 175.382 123.855 177.716 123.855 180.072Z" fill="#FD5C6F"/>
<path d="M245.449 76.795C245.449 80.3436 244.397 83.8127 242.426 86.7635C240.455 89.7144 237.653 92.0145 234.375 93.373C231.097 94.7316 227.489 95.0875 224.009 94.3959C220.528 93.7043 217.331 91.9961 214.821 89.4874C212.311 86.9788 210.602 83.7822 209.908 80.3019C209.215 76.8217 209.57 73.214 210.927 69.9351C212.284 66.6563 214.583 63.8534 217.533 61.881C220.483 59.9086 223.951 58.8552 227.5 58.854C229.856 58.853 232.19 59.3162 234.368 60.2174C236.546 61.1185 238.524 62.4399 240.191 64.106C241.858 65.7721 243.18 67.7502 244.082 69.9274C244.984 72.1047 245.449 74.4383 245.449 76.795Z" fill="#FD5C6F"/>
<path d="M441.078 144.182C441.078 147.731 440.026 151.201 438.055 154.152C436.083 157.103 433.281 159.403 430.002 160.761C426.723 162.119 423.116 162.475 419.635 161.783C416.154 161.09 412.957 159.381 410.447 156.872C407.938 154.362 406.229 151.165 405.536 147.684C404.844 144.203 405.2 140.596 406.558 137.317C407.916 134.038 410.216 131.236 413.167 129.264C416.118 127.293 419.588 126.241 423.137 126.241C427.895 126.242 432.458 128.132 435.822 131.497C439.187 134.861 441.077 139.424 441.078 144.182Z" fill="#FD5C6F"/>
<path d="M397.547 319.85C397.546 323.399 396.493 326.868 394.521 329.819C392.549 332.769 389.746 335.069 386.467 336.427C383.188 337.784 379.58 338.139 376.1 337.447C372.619 336.754 369.422 335.045 366.912 332.536C364.403 330.026 362.694 326.829 362.002 323.348C361.309 319.867 361.664 316.259 363.022 312.98C364.38 309.701 366.68 306.899 369.631 304.927C372.582 302.955 376.051 301.902 379.6 301.902C381.957 301.902 384.291 302.366 386.468 303.268C388.646 304.17 390.624 305.492 392.291 307.158C393.957 308.825 395.279 310.804 396.181 312.981C397.083 315.159 397.547 317.493 397.547 319.85Z" fill="#FD5C6F"/>
</svg>
