<svg width="512" height="512" viewBox="0 0 512 512" fill="none" xmlns="http://www.w3.org/2000/svg">
<path d="M0.000150985 324.746V413.332C0.000150985 423.965 8.13315 433.109 18.7072 433.613C21.3716 433.736 24.0333 433.317 26.5309 432.381C29.0284 431.445 31.3099 430.011 33.2369 428.167C35.1639 426.323 36.6964 424.106 37.7414 421.652C38.7864 419.198 39.3221 416.557 39.3162 413.89V367.254C39.3162 357.578 46.8512 349.277 56.4842 349.102C58.8133 349.064 61.1266 349.49 63.289 350.357C65.4514 351.223 67.4194 352.511 69.0782 354.147C70.7369 355.782 72.0531 357.732 72.9497 359.882C73.8463 362.032 74.3054 364.339 74.3002 366.668V394.468C74.3002 405.097 82.4372 414.245 93.0112 414.745C95.6755 414.869 98.3371 414.449 100.835 413.513C103.332 412.577 105.613 411.143 107.54 409.299C109.467 407.455 110.999 405.238 112.043 402.784C113.088 400.33 113.623 397.689 113.616 395.022V263.222H61.2542C53.1924 263.24 45.213 264.845 37.7717 267.947C30.3304 271.048 23.5728 275.585 17.8848 281.298C12.1968 287.011 7.68979 293.788 4.62114 301.243C1.55249 308.698 -0.0177284 316.684 0.000150985 324.746Z" fill="#A4E7FF"/>
<path d="M400.383 221.531C355.645 221.531 320.598 172.875 320.598 110.765C320.598 48.655 355.645 0 400.383 0C445.121 0 480.172 48.656 480.172 110.766C480.172 172.876 445.125 221.531 400.383 221.531ZM400.383 41.949C382.399 41.949 362.363 70.211 362.363 110.765C362.363 151.319 382.398 179.581 400.383 179.581C418.368 179.581 438.406 151.319 438.406 110.765C438.406 70.211 418.367 41.949 400.383 41.949Z" fill="#6A829A"/>
<path d="M126.094 331.289L306.2 359.063L259.77 269.82L119.836 273.328L126.094 331.289Z" fill="#6A829A"/>
<path d="M223.2 346.262L306.2 359.062L259.77 269.82L188.6 271.605L223.2 346.262Z" fill="#516980"/>
<path d="M270.082 53.09L178.469 145.1C171.918 151.692 167.89 160.375 167.086 169.633C166.283 178.892 168.756 188.139 174.074 195.76L296.828 371.547C300.053 376.182 304.258 380.052 309.144 382.882C314.03 385.712 319.479 387.434 325.104 387.926C330.729 388.418 336.394 387.668 341.697 385.728C347 383.789 351.812 380.708 355.793 376.703L500.68 231.188C504.67 227.175 507.737 222.339 509.666 217.019C511.596 211.699 512.342 206.023 511.853 200.385C511.364 194.747 509.652 189.283 506.835 184.375C504.018 179.466 500.164 175.232 495.543 171.965L320.523 48.676C312.948 43.3364 303.728 40.8503 294.495 41.6582C285.263 42.4661 276.614 46.5159 270.082 53.09Z" fill="#889CB0"/>
<path d="M284.973 250.395C276.975 240.141 271.985 227.865 270.562 214.938C269.139 202.012 271.338 188.944 276.914 177.195C288.738 152.586 285.172 133.242 285.172 133.242L237.551 85.6172L178.4 145.031C171.848 151.622 167.818 160.304 167.014 169.563C166.209 178.822 168.682 188.069 174 195.691L296.758 371.477C299.983 376.112 304.188 379.982 309.074 382.812C313.96 385.642 319.409 387.364 325.034 387.856C330.659 388.348 336.324 387.598 341.627 385.658C346.93 383.719 351.742 380.638 355.723 376.633L380.508 351.738C347.6 327.527 310.473 283.313 284.973 250.395Z" fill="#6A829A"/>
<path d="M279.934 143.746L264.965 158.781C263.207 160.55 261.116 161.953 258.813 162.911C256.511 163.869 254.041 164.362 251.547 164.362C249.053 164.362 246.584 163.869 244.281 162.911C241.978 161.953 239.887 160.55 238.129 158.781L158.414 78.715C152.869 73.1356 149.757 65.589 149.757 57.723C149.757 49.8569 152.869 42.3104 158.414 36.731C161.153 33.9761 164.409 31.7898 167.996 30.298C171.583 28.8061 175.429 28.0381 179.314 28.0381C183.199 28.0381 187.045 28.8061 190.632 30.298C194.219 31.7898 197.475 33.9761 200.214 36.731L279.934 116.8C283.493 120.381 285.49 125.224 285.49 130.273C285.49 135.321 283.493 140.165 279.934 143.746Z" fill="#A7B6C5"/>
<path d="M89.5471 263.914C89.5471 248.031 106.578 237.714 120.363 245.504C130.109 251.03 138.215 259.043 143.854 268.724C149.494 278.404 152.465 289.408 152.465 300.611C152.465 311.815 149.494 322.819 143.854 332.499C138.215 342.18 130.109 350.193 120.363 355.719C106.578 363.512 89.5471 353.196 89.5471 337.309V263.914Z" fill="#A7B6C5"/>
<path d="M117.461 487.922C117.482 491.083 116.876 494.218 115.681 497.144C114.485 500.071 112.722 502.732 110.494 504.975C108.266 507.217 105.616 508.997 102.697 510.212C99.7783 511.426 96.6481 512.052 93.4866 512.052C90.3251 512.052 87.1949 511.426 84.276 510.212C81.3572 508.997 78.7073 507.217 76.4791 504.975C74.2508 502.732 72.4881 500.071 71.2924 497.144C70.0967 494.218 69.4917 491.083 69.5121 487.922C69.5121 474.622 80.2461 443.567 93.4891 443.567C106.732 443.567 117.461 474.621 117.461 487.922Z" fill="#5AD6FF"/>
<path d="M480.5 161.367L285.93 355.937L296.83 371.546C300.055 376.181 304.26 380.051 309.146 382.881C314.032 385.711 319.481 387.433 325.106 387.925C330.731 388.417 336.396 387.667 341.699 385.727C347.002 383.788 351.814 380.707 355.795 376.702L500.68 231.188C504.67 227.175 507.737 222.34 509.666 217.02C511.596 211.7 512.342 206.023 511.853 200.385C511.364 194.747 509.652 189.283 506.835 184.375C504.018 179.467 500.164 175.232 495.543 171.965L480.5 161.367Z" fill="#A7B6C5"/>
<path d="M262.277 133.129C262.277 134.657 261.824 136.151 260.975 137.422C260.126 138.692 258.919 139.683 257.507 140.268C256.095 140.853 254.542 141.006 253.043 140.707C251.544 140.409 250.167 139.673 249.086 138.593C248.006 137.512 247.27 136.135 246.972 134.636C246.673 133.137 246.826 131.584 247.411 130.172C247.996 128.76 248.987 127.553 250.257 126.704C251.528 125.855 253.022 125.402 254.55 125.402C255.565 125.402 256.57 125.601 257.507 125.99C258.445 126.378 259.297 126.947 260.014 127.665C260.732 128.382 261.301 129.234 261.689 130.172C262.077 131.109 262.277 132.114 262.277 133.129Z" fill="#516980"/>
<path d="M333.586 308.277L285.926 355.937L296.826 371.546C300.051 376.181 304.256 380.05 309.142 382.881C314.028 385.711 319.477 387.433 325.102 387.925C330.727 388.417 336.392 387.666 341.695 385.727C346.998 383.788 351.81 380.707 355.791 376.702L380.58 351.807C365.3 340.566 349.105 325.02 333.586 308.277Z" fill="#889CB0"/>
</svg>
