<svg width="512" height="512" viewBox="0 0 512 512" fill="none" xmlns="http://www.w3.org/2000/svg">
<path d="M423.454 252.555L395.554 383.173C393.887 391.12 389.856 398.376 383.989 403.99C378.123 409.603 370.695 413.311 362.683 414.626L332.211 419.744C329.975 420.12 327.712 420.309 325.444 420.31C317.544 420.31 309.818 417.991 303.223 413.642C296.628 409.292 291.455 403.102 288.344 395.84L251.662 310.64L282.142 297.518L318.823 382.718C319.465 384.217 320.592 385.456 322.024 386.236C323.455 387.016 325.108 387.291 326.715 387.018L357.187 381.901C358.629 381.664 359.965 380.997 361.02 379.986C362.076 378.976 362.801 377.671 363.101 376.241L391 245.618L423.454 252.555Z" fill="#B3B3B3"/>
<path d="M351.6 187.613C378.829 187.613 400.9 171.766 400.9 152.213C400.9 132.66 378.826 116.813 351.6 116.813C348.852 116.815 346.107 116.982 343.379 117.313C336.853 103.252 318.386 93.1131 296.608 93.1131C292.652 93.1116 288.704 93.4553 284.808 94.1401C276.179 83.8661 260.489 76.9951 242.56 76.9951C224.631 76.9951 208.941 83.8661 200.312 94.1401C196.416 93.4547 192.467 93.1111 188.512 93.1131C166.734 93.1131 148.267 103.255 141.741 117.313C139.013 116.982 136.268 116.815 133.52 116.813C106.291 116.813 84.2197 132.66 84.2197 152.213C84.2197 171.766 106.294 187.613 133.52 187.613H351.6Z" fill="#B24D40"/>
<path d="M113.371 435.712C157.84 435.712 193.89 399.663 193.89 355.193C193.89 310.724 157.84 274.674 113.371 274.674C68.9016 274.674 32.8521 310.724 32.8521 355.193C32.8521 399.663 68.9016 435.712 113.371 435.712Z" fill="#3B484A"/>
<path d="M113.371 392.1C133.754 392.1 150.278 375.576 150.278 355.193C150.278 334.81 133.754 318.286 113.371 318.286C92.9877 318.286 76.4639 334.81 76.4639 355.193C76.4639 375.576 92.9877 392.1 113.371 392.1Z" fill="#D9D9D9"/>
<path d="M242.568 161.382L68.7441 178.133L228.234 313.468L397.061 252.955L416.392 178.13L242.568 161.382Z" fill="#FF5E6B"/>
<path d="M416.392 178.133L242.568 161.382L68.7441 178.133L105.165 209.033H408.408L416.392 178.133Z" fill="#E63E4C"/>
<path d="M416.392 144.632H68.7437C64.301 144.632 60.0404 146.397 56.8989 149.539C53.7575 152.68 51.9927 156.941 51.9927 161.383C51.9927 165.826 53.7575 170.087 56.8989 173.228C60.0404 176.369 64.301 178.134 68.7437 178.134H416.392C420.834 178.134 425.095 176.369 428.236 173.228C431.378 170.087 433.143 165.826 433.143 161.383C433.143 156.941 431.378 152.68 428.236 149.539C425.095 146.397 420.834 144.632 416.392 144.632Z" fill="#FF5E6B"/>
<path d="M282.143 297.515L251.664 310.636L268.615 350.01L299.915 338.792L282.143 297.515Z" fill="#999999"/>
<path d="M423.454 252.555L391 245.619L377 311.163L413.746 297.993L423.454 252.555Z" fill="#999999"/>
<path d="M16.5999 406.478C12.695 406.472 8.91734 405.089 5.93114 402.573C2.94494 400.057 0.941339 396.568 0.272609 392.721C-0.396121 388.874 0.312826 384.914 2.27481 381.538C4.23679 378.162 7.32621 375.585 10.9999 374.261L489.806 202.649C493.949 201.164 498.512 201.385 502.491 203.264C506.471 205.144 509.541 208.527 511.026 212.669C512.511 216.812 512.29 221.375 510.411 225.354C508.532 229.334 505.149 232.404 501.006 233.889L22.1949 405.501C20.4 406.147 18.5072 406.477 16.5999 406.478Z" fill="#B3B3B3"/>
</svg>
