<svg width="512" height="512" viewBox="0 0 512 512" fill="none" xmlns="http://www.w3.org/2000/svg">
<path d="M221.82 184.717L113.4 484.619C111.557 489.715 111.814 495.334 114.115 500.24C116.415 505.146 120.57 508.937 125.665 510.78C130.761 512.622 136.38 512.365 141.286 510.065C146.192 507.765 149.983 503.61 151.826 498.514L262.648 191.955L221.82 184.717Z" fill="#516980"/>
<path d="M398.574 484.619L289.086 181.775L250.625 195.564L360.148 498.514C361.06 501.038 362.461 503.356 364.269 505.338C366.078 507.32 368.259 508.926 370.688 510.065C373.117 511.204 375.747 511.853 378.427 511.976C381.107 512.099 383.785 511.692 386.309 510.78C388.832 509.868 391.15 508.467 393.132 506.659C395.114 504.85 396.72 502.669 397.859 500.24C398.998 497.811 399.648 495.181 399.77 492.501C399.893 489.821 399.486 487.142 398.574 484.619Z" fill="#6A829A"/>
<path d="M364.621 150.342H274.477L338.219 86.6025L327.293 75.6745L263.551 139.416V49.2725H248.1V139.412L184.359 75.6745L173.434 86.6025L237.172 150.344H147.031V165.797H237.172L173.434 229.533L184.36 240.459L248.1 176.721V266.862H263.553V176.721L327.295 240.459L338.221 229.533L274.479 165.795H364.624L364.621 150.342Z" fill="#A7B6C5"/>
<path d="M281.254 79.4162L286.578 22.5062C286.837 19.8099 286.556 17.0891 285.752 14.5025C284.947 11.916 283.636 9.51546 281.895 7.44104C280.153 5.36661 278.015 3.65981 275.607 2.42023C273.199 1.18065 270.567 0.433106 267.867 0.221215C263.945 -0.0717852 248.027 -0.0717852 244.101 0.221215C241.402 0.433756 238.771 1.18163 236.364 2.42124C233.956 3.66084 231.82 5.36736 230.078 7.44129C228.337 9.51522 227.026 11.915 226.222 14.5008C225.418 17.0866 225.137 19.8066 225.395 22.5022L230.719 79.4672C230.852 80.9417 231.282 82.3742 231.982 83.6787C232.682 84.9832 233.639 86.133 234.794 87.0591C235.949 87.9852 237.279 88.6685 238.705 89.0682C240.13 89.4679 241.622 89.5758 243.09 89.3852C251.568 88.2276 260.163 88.1959 268.649 89.2912C270.132 89.5208 271.647 89.4435 273.099 89.0641C274.551 88.6848 275.91 88.0114 277.092 87.0858C278.273 86.1601 279.252 85.0019 279.968 83.6826C280.684 82.3634 281.122 80.9113 281.254 79.4162Z" fill="#F2614A"/>
<path d="M217.9 84.174L181.773 40.592C180.048 38.5025 177.924 36.7773 175.525 35.5173C173.126 34.2572 170.501 33.4875 167.801 33.2529C165.102 33.0183 162.383 33.3236 159.803 34.151C157.222 34.9784 154.833 36.3113 152.773 38.072C146.769 43.2402 141.16 48.8498 135.992 54.854C134.232 56.9136 132.899 59.303 132.071 61.883C131.244 64.463 130.938 67.182 131.172 69.8813C131.407 72.5806 132.176 75.2063 133.435 77.6053C134.695 80.0042 136.419 82.1284 138.508 83.854L182.094 119.982C183.271 120.985 184.647 121.725 186.132 122.155C187.616 122.585 189.175 122.695 190.706 122.476C192.236 122.257 193.702 121.716 195.007 120.887C196.312 120.059 197.425 118.962 198.274 117.67C202.996 110.936 208.856 105.076 215.59 100.354C216.882 99.5052 217.978 98.3914 218.807 97.0864C219.635 95.7815 220.177 94.3153 220.395 92.7851C220.613 91.2549 220.504 89.6958 220.074 88.2112C219.644 86.7265 218.903 85.3504 217.9 84.174Z" fill="#C74B36"/>
<path d="M176.875 132.752L120.426 127.475C117.73 127.216 115.009 127.497 112.422 128.302C109.836 129.106 107.435 130.417 105.361 132.159C103.286 133.9 101.579 136.038 100.34 138.446C99.1003 140.854 98.3528 143.486 98.1409 146.186C97.8479 150.108 97.8479 166.026 98.1409 169.948C98.3528 172.648 99.1003 175.28 100.34 177.688C101.579 180.096 103.286 182.234 105.361 183.975C107.435 185.717 109.836 187.028 112.422 187.833C115.009 188.637 117.73 188.918 120.426 188.659L176.895 183.378C178.414 183.236 179.888 182.781 181.223 182.042C182.558 181.304 183.726 180.298 184.655 179.087C185.583 177.875 186.251 176.486 186.617 175.004C186.983 173.523 187.039 171.982 186.782 170.478C185.346 162.209 185.313 153.758 186.682 145.478C186.932 143.991 186.872 142.468 186.507 141.004C186.141 139.541 185.477 138.169 184.556 136.974C183.636 135.78 182.478 134.788 181.156 134.061C179.835 133.335 178.377 132.889 176.875 132.752Z" fill="#F2614A"/>
<path d="M182.094 196.15L138.508 232.279C136.419 234.005 134.695 236.129 133.435 238.528C132.176 240.927 131.406 243.552 131.172 246.251C130.937 248.951 131.242 251.669 132.069 254.25C132.896 256.83 134.228 259.219 135.988 261.279C141.157 267.283 146.767 272.892 152.77 278.061C154.83 279.822 157.219 281.155 159.799 281.982C162.38 282.81 165.099 283.115 167.798 282.88C170.498 282.646 173.123 281.876 175.522 280.616C177.921 279.356 180.045 277.631 181.77 275.541L217.9 231.959C218.902 230.783 219.643 229.406 220.073 227.921C220.502 226.436 220.611 224.877 220.392 223.347C220.173 221.817 219.631 220.351 218.802 219.046C217.973 217.741 216.876 216.628 215.584 215.779C208.85 211.057 202.99 205.197 198.268 198.463C197.42 197.172 196.307 196.075 195.003 195.246C193.698 194.418 192.233 193.876 190.703 193.657C189.173 193.438 187.614 193.548 186.13 193.977C184.646 194.407 183.27 195.148 182.094 196.15Z" fill="#C74B36"/>
<path d="M230.719 236.674L225.395 293.627C225.136 296.323 225.417 299.043 226.221 301.63C227.025 304.216 228.335 306.616 230.076 308.69C231.818 310.765 233.954 312.472 236.362 313.711C238.77 314.951 241.4 315.699 244.1 315.912C248.026 316.205 263.944 316.205 267.866 315.912C270.566 315.7 273.197 314.953 275.606 313.713C278.014 312.474 280.152 310.767 281.893 308.692C283.635 306.618 284.946 304.217 285.75 301.631C286.555 299.044 286.836 296.323 286.577 293.627L281.234 236.502C281.096 235.019 280.658 233.578 279.947 232.269C279.237 230.959 278.268 229.807 277.1 228.882C275.931 227.957 274.588 227.279 273.15 226.888C271.712 226.497 270.21 226.401 268.734 226.607C260.23 227.794 251.607 227.847 243.089 226.763C241.622 226.575 240.132 226.684 238.707 227.085C237.283 227.485 235.955 228.168 234.8 229.093C233.646 230.018 232.689 231.166 231.988 232.468C231.287 233.771 230.855 235.201 230.719 236.674Z" fill="#F2614A"/>
<path d="M294.07 231.959L330.2 275.541C331.925 277.631 334.049 279.356 336.448 280.616C338.847 281.876 341.472 282.646 344.172 282.881C346.871 283.115 349.59 282.81 352.171 281.982C354.751 281.155 357.14 279.822 359.2 278.061C365.204 272.893 370.813 267.284 375.981 261.28C377.741 259.221 379.074 256.831 379.901 254.251C380.728 251.671 381.033 248.952 380.799 246.252C380.564 243.553 379.795 240.927 378.535 238.528C377.275 236.13 375.55 234.006 373.461 232.28L329.875 196.151C328.699 195.15 327.322 194.409 325.838 193.98C324.354 193.55 322.795 193.441 321.265 193.66C319.736 193.879 318.27 194.42 316.966 195.249C315.661 196.077 314.548 197.173 313.699 198.464C308.977 205.198 303.117 211.058 296.383 215.78C295.091 216.629 293.995 217.743 293.166 219.047C292.337 220.352 291.796 221.818 291.577 223.348C291.358 224.878 291.467 226.437 291.897 227.922C292.327 229.407 293.068 230.783 294.07 231.959Z" fill="#C74B36"/>
<path d="M334.727 183.346L391.543 188.659C394.24 188.918 396.96 188.637 399.547 187.832C402.134 187.028 404.535 185.717 406.609 183.975C408.684 182.234 410.391 180.096 411.631 177.688C412.871 175.28 413.619 172.649 413.832 169.948C414.121 166.026 414.121 150.108 413.832 146.186C413.619 143.486 412.871 140.855 411.631 138.447C410.391 136.038 408.684 133.901 406.609 132.159C404.535 130.418 402.134 129.106 399.547 128.302C396.96 127.498 394.24 127.217 391.543 127.475L334.965 132.768C333.461 132.898 332 133.336 330.674 134.057C329.347 134.778 328.184 135.765 327.258 136.957C326.331 138.149 325.661 139.519 325.289 140.983C324.918 142.446 324.853 143.97 325.098 145.459C326.229 153.88 326.14 162.419 324.832 170.814C324.618 172.293 324.707 173.8 325.095 175.243C325.482 176.686 326.159 178.035 327.085 179.208C328.011 180.38 329.166 181.352 330.48 182.064C331.794 182.775 333.239 183.212 334.727 183.346Z" fill="#F2614A"/>
<path d="M329.875 119.982L373.461 83.853C375.55 82.1277 377.275 80.0037 378.535 77.6049C379.795 75.2061 380.564 72.5805 380.799 69.8811C381.033 67.1818 380.728 64.4628 379.901 61.8826C379.074 59.3025 377.741 56.9128 375.981 54.853C370.813 48.8492 365.204 43.2399 359.2 38.072C357.14 36.3113 354.751 34.9784 352.171 34.151C349.59 33.3236 346.871 33.0183 344.172 33.2529C341.472 33.4875 338.847 34.2572 336.448 35.5173C334.049 36.7773 331.925 38.5025 330.2 40.592L294.07 84.178C293.068 85.3545 292.328 86.7305 291.899 88.2149C291.469 89.6992 291.36 91.2579 291.579 92.7876C291.797 94.3173 292.339 95.783 293.167 97.0875C293.996 98.392 295.092 99.5054 296.383 100.354C303.117 105.076 308.977 110.936 313.7 117.67C314.549 118.961 315.662 120.057 316.967 120.885C318.271 121.713 319.737 122.255 321.266 122.473C322.796 122.692 324.354 122.583 325.839 122.153C327.323 121.724 328.699 120.984 329.875 119.982Z" fill="#C74B36"/>
<path d="M290.891 158.068C290.891 165.003 288.834 171.782 284.981 177.548C281.128 183.314 275.652 187.808 269.245 190.462C262.838 193.115 255.788 193.81 248.986 192.457C242.185 191.104 235.937 187.764 231.033 182.861C226.13 177.957 222.79 171.71 221.437 164.908C220.084 158.107 220.778 151.057 223.431 144.65C226.085 138.243 230.579 132.766 236.344 128.913C242.11 125.06 248.889 123.003 255.824 123.002C260.429 123.002 264.989 123.909 269.244 125.671C273.498 127.433 277.364 130.016 280.62 133.272C283.877 136.529 286.46 140.394 288.222 144.649C289.984 148.903 290.891 153.463 290.891 158.068Z" fill="#FDCB89"/>
<path d="M363.918 381.377H148.055C142.552 381.377 137.274 379.191 133.382 375.3C129.491 371.409 127.305 366.131 127.305 360.627C127.305 355.124 129.491 349.846 133.382 345.955C137.274 342.064 142.552 339.877 148.055 339.877H363.918C369.421 339.877 374.699 342.064 378.59 345.955C382.482 349.846 384.668 355.124 384.668 360.627C384.668 366.131 382.482 371.409 378.59 375.3C374.699 379.191 369.421 381.377 363.918 381.377Z" fill="#A7B6C5"/>
<path d="M175.8 360.627C175.8 357.902 176.337 355.204 177.379 352.687C178.422 350.169 179.95 347.882 181.877 345.955C183.804 344.028 186.092 342.499 188.609 341.457C191.127 340.414 193.825 339.877 196.55 339.877H148.05C142.547 339.877 137.269 342.064 133.378 345.955C129.486 349.846 127.3 355.124 127.3 360.627C127.3 366.131 129.486 371.409 133.378 375.3C137.269 379.191 142.547 381.377 148.05 381.377H196.55C191.047 381.377 185.769 379.191 181.878 375.3C177.987 371.408 175.8 366.131 175.8 360.627Z" fill="#889CB0"/>
<path d="M399.219 465.916H112.75C107.247 465.916 101.969 463.73 98.0775 459.838C94.1862 455.947 92 450.669 92 445.166C92 439.663 94.1862 434.385 98.0775 430.494C101.969 426.602 107.247 424.416 112.75 424.416H399.219C404.722 424.416 410 426.602 413.891 430.494C417.783 434.385 419.969 439.663 419.969 445.166C419.969 450.669 417.783 455.947 413.891 459.838C410 463.73 404.722 465.916 399.219 465.916Z" fill="#A7B6C5"/>
<path d="M140.5 445.166C140.5 442.441 141.036 439.743 142.079 437.225C143.122 434.708 144.65 432.42 146.577 430.493C148.504 428.566 150.792 427.038 153.309 425.995C155.827 424.953 158.525 424.416 161.25 424.416H112.75C107.247 424.416 101.969 426.602 98.0775 430.494C94.1862 434.385 92 439.663 92 445.166C92 450.669 94.1862 455.947 98.0775 459.838C101.969 463.73 107.247 465.916 112.75 465.916H161.25C155.747 465.916 150.469 463.73 146.578 459.838C142.687 455.947 140.5 450.669 140.5 445.166Z" fill="#889CB0"/>
</svg>
