<svg width="512" height="512" viewBox="0 0 512 512" fill="none" xmlns="http://www.w3.org/2000/svg">
<path d="M275.822 100.035C283.378 100.034 290.649 97.1494 296.151 91.97C301.653 86.7905 304.971 79.7066 305.427 72.1641C305.884 64.6217 303.445 57.1893 298.608 51.384C293.771 45.5787 286.901 41.8382 279.4 40.9258C277.367 29.9288 271.707 19.9303 263.325 12.5273C254.943 5.12425 244.321 0.743862 233.157 0.0857459C221.993 -0.57237 210.931 2.52975 201.736 8.89663C192.542 15.2635 185.747 24.5278 182.436 35.2098C174.03 35.7549 166.166 39.5476 160.506 45.786C154.846 52.0244 151.834 60.2194 152.107 68.6384C152.379 77.0574 155.916 85.0403 161.967 90.8993C168.019 96.7582 176.113 100.034 184.536 100.034H275.825L275.822 100.035Z" fill="#A3DEFE"/>
<path d="M458.759 512C466.315 511.999 473.586 509.114 479.088 503.934C484.589 498.755 487.907 491.671 488.363 484.129C488.82 476.586 486.381 469.154 481.544 463.349C476.707 457.544 469.837 453.803 462.336 452.891C460.302 441.894 454.642 431.896 446.26 424.493C437.877 417.091 427.256 412.71 416.092 412.053C404.928 411.395 393.866 414.497 384.672 420.863C375.478 427.23 368.682 436.494 365.371 447.176C356.965 447.721 349.101 451.514 343.441 457.752C337.781 463.99 334.769 472.185 335.041 480.604C335.314 489.023 338.85 497.006 344.902 502.865C350.954 508.724 359.048 512 367.471 512H458.759Z" fill="#A3DEFE"/>
<path d="M300.91 157.269C238.01 157.269 184.999 162.655 141.839 172.132L107.56 85.5589C104.04 76.6695 97.9296 69.0431 90.0219 63.6691C82.1142 58.295 72.774 55.4214 63.213 55.4209H31.013C22.7875 55.422 14.8992 58.6903 9.08325 64.507C3.2673 70.3237 -6.83997e-08 78.2124 0 86.4379L0 279.818C0 347.499 120.475 387.918 300.91 387.918C417.492 387.918 512 347.503 512 279.818C512 212.133 417.492 157.269 300.91 157.269Z" fill="#FCF2D0"/>
<path d="M253.151 158.384C210.711 160.412 173.597 165.16 141.839 172.133L107.56 85.5589C104.04 76.6695 97.9296 69.0431 90.0219 63.6691C82.1142 58.295 72.774 55.4214 63.213 55.4209H31.013C22.7875 55.422 14.8992 58.6903 9.08325 64.507C3.2673 70.3237 -6.83997e-08 78.2124 0 86.4379L0 279.818C0 346.946 118.523 387.244 296.5 387.9C254.224 329.294 238.014 216.9 253.147 158.385L253.151 158.384Z" fill="#F6E3A3"/>
<path d="M125.554 131L107.56 85.5589C104.04 76.6695 97.9296 69.0431 90.0219 63.6691C82.1142 58.295 72.774 55.4214 63.213 55.4209H31.013C22.7875 55.422 14.8992 58.6903 9.08325 64.507C3.2673 70.3237 -6.83997e-08 78.2124 0 86.4379L0 279.818C0 315.772 34 344.031 92.921 362.625C36.664 249.874 82.256 171.436 125.554 131Z" fill="#7ACEFA"/>
<path d="M117.162 109.807L107.562 85.5589C104.042 76.6694 97.9314 69.0428 90.0235 63.6688C82.1156 58.2947 72.7751 55.4212 63.214 55.4209H31.014C22.7883 55.4217 14.8998 58.6899 9.08361 64.5066C3.26744 70.3234 -3.84756e-08 78.2122 0 86.4379L0 225.708C17.484 180.682 56.385 113.965 117.162 109.808V109.807Z" fill="#6A96D7"/>
<path d="M256.008 442.755C231.532 449.854 205.543 449.854 181.067 442.755C177.221 441.639 173.841 439.305 171.436 436.103C169.03 432.901 167.729 429.004 167.729 425V387.925C167.729 383.92 169.03 380.023 171.435 376.821C173.84 373.619 177.221 371.284 181.067 370.169C205.543 363.069 231.532 363.069 256.008 370.169C259.854 371.284 263.234 373.619 265.64 376.821C268.045 380.023 269.346 383.92 269.346 387.925V425C269.345 429.004 268.045 432.901 265.639 436.102C263.234 439.304 259.854 441.639 256.008 442.755Z" fill="#6A96D7"/>
<path d="M169.59 480.44H151.083C147.888 480.44 144.725 479.811 141.773 478.588C138.821 477.365 136.139 475.573 133.88 473.314C131.621 471.055 129.829 468.373 128.607 465.422C127.384 462.47 126.755 459.307 126.755 456.112V327.94C126.755 318.217 130.617 308.892 137.493 302.017C144.368 295.141 153.693 291.279 163.416 291.279H228.907C233.05 291.279 237.132 292.279 240.806 294.195C244.48 296.111 247.637 298.886 250.008 302.284C252.379 305.682 253.895 309.602 254.426 313.711C254.958 317.82 254.489 321.997 253.06 325.886L205.467 455.4C202.769 462.744 197.881 469.083 191.465 473.561C185.05 478.039 177.414 480.44 169.59 480.44V480.44Z" fill="#FCF2D0"/>
<path d="M153.757 270.068C149.116 270.068 144.665 268.224 141.383 264.942C138.101 261.661 136.257 257.209 136.257 252.568V239.214C136.342 234.63 138.223 230.262 141.495 227.05C144.767 223.838 149.169 222.038 153.754 222.038C158.339 222.038 162.741 223.838 166.013 227.05C169.285 230.262 171.166 234.63 171.251 239.214V252.571C171.25 257.211 169.407 261.66 166.127 264.941C162.846 268.222 158.397 270.066 153.757 270.068V270.068Z" fill="#7ACEFA"/>
<path d="M225.7 270.068C221.059 270.068 216.608 268.224 213.326 264.942C210.044 261.66 208.2 257.209 208.2 252.568V239.214C208.153 236.887 208.572 234.574 209.43 232.41C210.288 230.247 211.57 228.276 213.199 226.614C214.828 224.952 216.773 223.631 218.919 222.73C221.065 221.828 223.369 221.364 225.697 221.364C228.024 221.364 230.328 221.828 232.474 222.73C234.62 223.631 236.565 224.952 238.194 226.614C239.823 228.276 241.105 230.247 241.963 232.41C242.821 234.574 243.24 236.887 243.193 239.214V252.571C243.192 257.21 241.349 261.66 238.069 264.941C234.789 268.222 230.34 270.066 225.7 270.068V270.068Z" fill="#7ACEFA"/>
<path d="M297.644 270.068C293.003 270.068 288.552 268.224 285.27 264.942C281.988 261.661 280.144 257.209 280.144 252.568V239.214C280.229 234.63 282.11 230.262 285.382 227.05C288.654 223.838 293.056 222.038 297.641 222.038C302.226 222.038 306.628 223.838 309.9 227.05C313.172 230.262 315.053 234.63 315.138 239.214V252.571C315.137 257.211 313.294 261.66 310.013 264.941C306.733 268.222 302.284 270.066 297.644 270.068V270.068Z" fill="#A3DEFE"/>
<path d="M369.644 270.068C365.003 270.068 360.552 268.224 357.27 264.942C353.988 261.661 352.144 257.209 352.144 252.568V239.214C352.229 234.63 354.11 230.262 357.382 227.05C360.654 223.838 365.056 222.038 369.641 222.038C374.226 222.038 378.628 223.838 381.9 227.05C385.172 230.262 387.053 234.63 387.138 239.214V252.571C387.137 257.211 385.294 261.66 382.013 264.941C378.733 268.222 374.284 270.066 369.644 270.068V270.068Z" fill="#A3DEFE"/>
<path d="M471.928 267.783C462.265 267.783 424.147 262.235 424.147 252.571V239.214C424.147 229.551 469.659 216.562 479.323 216.562C488.987 216.562 503.373 240.974 507.532 254.84C508.728 268.579 481.591 267.783 471.928 267.783Z" fill="#A3DEFE"/>
<path d="M151.083 480.44H169.59C177.414 480.44 185.05 478.039 191.466 473.561C197.882 469.083 202.769 462.744 205.468 455.4L227.968 394.179C199.301 409.953 159.975 415.508 126.759 417.441V456.111C126.759 459.306 127.388 462.469 128.61 465.421C129.833 468.372 131.625 471.054 133.884 473.313C136.143 475.573 138.824 477.365 141.776 478.587C144.728 479.81 147.891 480.439 151.086 480.439L151.083 480.44Z" fill="#A3DEFE"/>
</svg>
