<svg width="512" height="512" viewBox="0 0 512 512" fill="none" xmlns="http://www.w3.org/2000/svg">
<path d="M404.59 202.21L380.671 159.441C373.971 147.46 364.197 137.482 352.357 130.537C340.516 123.592 327.037 119.93 313.31 119.93H69.9069C55.9475 119.93 42.5599 125.476 32.6891 135.346C22.8183 145.217 17.2729 158.605 17.2729 172.564V381.43H497.755V277.53C497.755 269.762 495.412 262.174 491.032 255.757C486.652 249.341 480.439 244.395 473.205 241.564L430.646 224.916C419.593 220.594 410.384 212.568 404.59 202.21V202.21Z" fill="#DDEFF5"/>
<path d="M37.7359 269.33H17.2729V187.247H37.7359C39.7491 187.247 41.7426 187.644 43.6025 188.414C45.4624 189.184 47.1524 190.314 48.5759 191.737C49.9994 193.161 51.1286 194.851 51.899 196.711C52.6694 198.57 53.0659 200.564 53.0659 202.577V253.994C53.0667 256.008 52.6708 258.002 51.9007 259.862C51.1307 261.723 50.0016 263.414 48.578 264.838C47.1544 266.262 45.4642 267.392 43.6039 268.163C41.7436 268.933 39.7496 269.33 37.7359 269.33V269.33Z" fill="#A8D1EC"/>
<path opacity="0.15" d="M146.643 119.93H69.9069C55.9475 119.93 42.5599 125.476 32.6891 135.346C22.8183 145.217 17.2729 158.605 17.2729 172.564V381.43H268.505C194.788 321.944 135.728 221.062 146.643 119.93Z" fill="#003A63"/>
<path d="M201.85 190.737H172.25V161.13C172.25 159.133 171.457 157.217 170.044 155.804C168.632 154.392 166.716 153.598 164.718 153.598H145.991C145.002 153.598 144.023 153.793 143.109 154.171C142.195 154.55 141.365 155.105 140.665 155.804C139.966 156.504 139.411 157.334 139.032 158.248C138.654 159.162 138.459 160.141 138.459 161.13V190.73H108.859C106.862 190.73 104.946 191.524 103.533 192.936C102.121 194.349 101.327 196.265 101.327 198.262V216.984C101.327 218.982 102.121 220.898 103.533 222.31C104.946 223.723 106.862 224.516 108.859 224.516H138.459V254.13C138.459 255.119 138.654 256.099 139.032 257.013C139.411 257.926 139.966 258.757 140.665 259.456C141.365 260.155 142.195 260.71 143.109 261.089C144.023 261.467 145.002 261.662 145.991 261.662H164.713C166.711 261.662 168.627 260.869 170.039 259.456C171.452 258.044 172.245 256.128 172.245 254.13V224.53H201.845C203.843 224.53 205.759 223.737 207.171 222.324C208.584 220.912 209.377 218.996 209.377 216.998V198.269C209.377 196.272 208.584 194.357 207.173 192.945C205.761 191.533 203.847 190.738 201.85 190.737V190.737Z" fill="#E68392"/>
<path opacity="0.15" d="M497.753 328.599H17.2729V381.43H497.753V328.599Z" fill="#003A63"/>
<path d="M6.441 345.16H53.066C54.7743 345.16 56.4126 345.839 57.6205 347.047C58.8284 348.255 59.507 349.893 59.507 351.601V383.593C59.507 385.301 58.8284 386.94 57.6205 388.148C56.4126 389.356 54.7743 390.034 53.066 390.034H6.441C4.73274 390.034 3.09445 389.356 1.88653 388.148C0.678603 386.94 0 385.301 0 383.593L0 351.601C0 349.893 0.678603 348.255 1.88653 347.047C3.09445 345.839 4.73274 345.16 6.441 345.16V345.16Z" fill="#495059"/>
<path d="M455.382 345.16H504.823C506.727 345.16 508.552 345.916 509.898 347.262C511.244 348.608 512 350.434 512 352.337V382.856C512 384.76 511.244 386.585 509.898 387.931C508.552 389.277 506.727 390.033 504.823 390.033H455.382C453.479 390.033 451.653 389.277 450.307 387.931C448.961 386.585 448.205 384.76 448.205 382.856V352.337C448.205 350.434 448.961 348.608 450.307 347.262C451.653 345.916 453.479 345.16 455.382 345.16V345.16Z" fill="#495059"/>
<path d="M132.01 434.26C161.188 434.26 184.841 410.607 184.841 381.429C184.841 352.251 161.188 328.598 132.01 328.598C102.832 328.598 79.1792 352.251 79.1792 381.429C79.1792 410.607 102.832 434.26 132.01 434.26Z" fill="#495059"/>
<path d="M132.01 405.279C145.182 405.279 155.86 394.601 155.86 381.429C155.86 368.257 145.182 357.579 132.01 357.579C118.838 357.579 108.16 368.257 108.16 381.429C108.16 394.601 118.838 405.279 132.01 405.279Z" fill="#E8E9EA"/>
<path d="M357.47 434.26C386.648 434.26 410.301 410.607 410.301 381.429C410.301 352.251 386.648 328.598 357.47 328.598C328.292 328.598 304.639 352.251 304.639 381.429C304.639 410.607 328.292 434.26 357.47 434.26Z" fill="#495059"/>
<path d="M357.47 405.279C370.642 405.279 381.32 394.601 381.32 381.429C381.32 368.257 370.642 357.579 357.47 357.579C344.298 357.579 333.62 368.257 333.62 381.429C333.62 394.601 344.298 405.279 357.47 405.279Z" fill="#E8E9EA"/>
<path d="M295.441 78H250.424C248.193 78 246.027 78.7516 244.275 80.1335C242.523 81.5154 241.288 83.4471 240.768 85.617L232.554 119.93H313.31L305.1 85.617C304.581 83.4464 303.345 81.5141 301.593 80.1321C299.84 78.7501 297.673 77.999 295.441 78Z" fill="#E68392"/>
<path d="M404.59 202.21L380.671 159.441C379.545 157.428 378.329 155.484 377.043 153.6H291.16C287.742 153.6 284.465 154.958 282.048 157.374C279.632 159.791 278.274 163.069 278.274 166.486V208.01C278.274 211.428 279.632 214.705 282.048 217.122C284.465 219.538 287.742 220.896 291.16 220.896H422.56C415.067 216.311 408.879 209.876 404.59 202.21V202.21Z" fill="#A8D1EC"/>
<path d="M309.715 261.683H278.273C276.284 261.683 274.376 260.893 272.97 259.486C271.563 258.08 270.773 256.172 270.773 254.183C270.773 252.194 271.563 250.286 272.97 248.88C274.376 247.473 276.284 246.683 278.273 246.683H309.715C311.704 246.683 313.612 247.473 315.018 248.88C316.425 250.286 317.215 252.194 317.215 254.183C317.215 256.172 316.425 258.08 315.018 259.486C313.612 260.893 311.704 261.683 309.715 261.683V261.683Z" fill="#495059"/>
<path d="M476.343 304.794H497.755V345.16H461.962V319.175C461.962 315.361 463.477 311.703 466.174 309.006C468.871 306.309 472.529 304.794 476.343 304.794Z" fill="#F1C372"/>
<path d="M38.6859 304.794H17.2729V345.16H53.0659V319.175C53.0659 315.361 51.5509 311.703 48.8542 309.006C46.1575 306.309 42.4999 304.794 38.6859 304.794V304.794Z" fill="#F1C372"/>
<path opacity="0.15" d="M108.853 224.523H138.453V254.13C138.453 256.128 139.247 258.044 140.659 259.456C142.072 260.869 143.988 261.662 145.985 261.662H164.707C166.139 261.661 167.54 261.252 168.748 260.483C169.955 259.714 170.918 258.616 171.523 257.319C156.433 224.603 146.935 189.419 145.523 153.619C143.611 153.737 141.815 154.579 140.502 155.975C139.189 157.37 138.458 159.214 138.458 161.13V190.73H108.858C106.861 190.73 104.945 191.524 103.532 192.936C102.12 194.349 101.326 196.265 101.326 198.262V216.99C101.326 218.987 102.119 220.902 103.53 222.315C104.942 223.727 106.856 224.522 108.853 224.523V224.523Z" fill="#8D4330"/>
<path opacity="0.15" d="M261.934 78H250.425C248.194 78 246.028 78.7516 244.276 80.1335C242.524 81.5154 241.289 83.4471 240.769 85.617L232.555 119.93H282.665C270.865 107.87 262.578 90.737 261.934 78Z" fill="#8D4330"/>
<path opacity="0.15" d="M448.2 276.607C446.211 276.607 444.303 277.397 442.897 278.804C441.49 280.21 440.7 282.118 440.7 284.107C440.7 286.096 441.49 288.004 442.897 289.41C444.303 290.817 446.211 291.607 448.2 291.607H497.75V277.53C497.75 277.22 497.74 276.913 497.732 276.604L448.2 276.607Z" fill="#003A63"/>
</svg>
