<svg width="512" height="512" viewBox="0 0 512 512" fill="none" xmlns="http://www.w3.org/2000/svg">
<path d="M433.6 303.475L389.687 95.2822C389.308 93.4232 388.564 91.6577 387.5 90.0872C386.435 88.5167 385.071 87.1722 383.485 86.1312C381.899 85.0901 380.122 84.3731 378.258 84.0214C376.393 83.6696 374.478 83.6901 372.622 84.0817C370.765 84.4732 369.004 85.2281 367.441 86.3028C365.877 87.3775 364.542 88.7509 363.511 90.3438C362.481 91.9367 361.775 93.7178 361.436 95.5844C361.096 97.451 361.129 99.3664 361.533 101.22L371.692 149.381H207.97L197.434 114.993C196.316 111.345 193.795 108.291 190.425 106.501C187.055 104.712 183.112 104.335 179.464 105.453C175.816 106.571 172.761 109.092 170.972 112.462C169.183 115.832 168.806 119.775 169.924 123.423L181.46 161.072L80.881 297.924C79.3059 300.068 78.3558 302.606 78.1363 305.256C77.9167 307.907 78.4363 310.567 79.6372 312.94C80.8382 315.314 82.6736 317.308 84.9395 318.701C87.2054 320.094 89.8131 320.832 92.473 320.832H241.046C244.782 320.832 248.372 319.379 251.055 316.779L380.548 191.367L405.448 309.414C405.829 311.271 406.574 313.035 407.639 314.603C408.704 316.171 410.069 317.514 411.654 318.553C413.24 319.592 415.015 320.308 416.878 320.658C418.741 321.009 420.655 320.988 422.51 320.597C424.365 320.206 426.125 319.452 427.687 318.378C429.25 317.305 430.585 315.933 431.616 314.342C432.646 312.751 433.353 310.972 433.693 309.107C434.034 307.242 434.003 305.328 433.602 303.475H433.6ZM191.965 195.365L221.591 292.059H120.9L191.965 195.365ZM247.918 279.765L216.787 178.159H352.829L247.918 279.765Z" fill="#E8899E"/>
<path d="M433.6 303.475L389.687 95.2822C389.308 93.4232 388.564 91.6577 387.5 90.0872C386.435 88.5167 385.071 87.1722 383.485 86.1312C381.899 85.0901 380.122 84.3731 378.258 84.0214C376.393 83.6696 374.478 83.6901 372.622 84.0817C370.765 84.4732 369.004 85.2281 367.441 86.3028C365.877 87.3775 364.542 88.7509 363.511 90.3438C362.481 91.9367 361.775 93.7178 361.436 95.5844C361.096 97.451 361.129 99.3664 361.533 101.22L371.692 149.381H207.97L197.434 114.993C196.316 111.345 193.795 108.291 190.425 106.501C187.055 104.712 183.112 104.335 179.464 105.453C175.816 106.571 172.761 109.092 170.972 112.462C169.183 115.832 168.806 119.775 169.924 123.423L181.46 161.072L80.881 297.924C79.3059 300.068 78.3558 302.606 78.1363 305.256C77.9167 307.907 78.4363 310.567 79.6372 312.94C80.8382 315.314 82.6736 317.308 84.9395 318.701C87.2054 320.094 89.8131 320.832 92.473 320.832H241.046C244.782 320.832 248.372 319.379 251.055 316.779L380.548 191.367L405.448 309.414C405.829 311.271 406.574 313.035 407.639 314.603C408.704 316.171 410.069 317.514 411.654 318.553C413.24 319.592 415.015 320.308 416.878 320.658C418.741 321.009 420.655 320.988 422.51 320.597C424.365 320.206 426.125 319.452 427.687 318.378C429.25 317.305 430.585 315.933 431.616 314.342C432.646 312.751 433.353 310.972 433.693 309.107C434.034 307.242 434.003 305.328 433.602 303.475H433.6ZM191.965 195.365L221.591 292.059H120.9L191.965 195.365ZM247.918 279.765L216.787 178.159H352.829L247.918 279.765Z" fill="#E8899E"/>
<path d="M247.918 279.759L216.787 178.159H258.387C256.586 168.645 255.305 159.039 254.549 149.385H207.97L197.434 114.997C196.316 111.349 193.795 108.294 190.425 106.505C187.055 104.716 183.112 104.339 179.464 105.457C175.816 106.575 172.761 109.096 170.972 112.466C169.183 115.836 168.806 119.779 169.924 123.427L181.46 161.076L80.881 297.924C79.3059 300.067 78.3558 302.606 78.1363 305.256C77.9167 307.907 78.4363 310.567 79.6372 312.94C80.8382 315.314 82.6736 317.308 84.9395 318.701C87.2054 320.094 89.8131 320.832 92.473 320.832H241.046C244.782 320.832 248.372 319.379 251.055 316.779L288.055 280.943C284.303 271.606 280.683 261.598 277.298 251.304L247.918 279.759ZM120.9 292.059L191.962 195.367L221.591 292.059H120.9Z" fill="#DE5C6E"/>
<path d="M237.611 149.382V178.159H322.935C327.719 169.172 330.959 159.445 332.518 149.385L237.611 149.382Z" fill="#F7EF87"/>
<path d="M237.611 149.382V178.159H258.391C256.59 168.644 255.309 159.039 254.553 149.385L237.611 149.382Z" fill="#EFD176"/>
<path d="M221.659 123.206L200.436 123.024C190.161 122.936 179.923 124.284 170.021 127.029L159.241 130.017C156.082 130.892 152.763 131.026 149.543 130.407C146.324 129.788 143.291 128.434 140.681 126.449C138.072 124.465 135.956 121.904 134.5 118.967C133.043 116.029 132.285 112.795 132.285 109.517C132.285 106.162 132.994 102.844 134.365 99.7818C135.736 96.7194 137.738 93.981 140.241 91.7461C142.743 89.5111 145.69 87.8298 148.887 86.8124C152.084 85.7949 155.46 85.4642 158.794 85.8419L177.817 87.9969C182.567 88.535 187.346 88.7638 192.125 88.6819L218.125 88.2379C220.668 88.1944 223.194 88.6578 225.556 89.6009C227.918 90.544 230.068 91.9479 231.882 93.7308C233.696 95.5137 235.136 97.6399 236.119 99.9854C237.103 102.331 237.609 104.849 237.609 107.392C237.608 109.48 237.194 111.547 236.391 113.474C235.587 115.401 234.41 117.151 232.928 118.621C231.445 120.091 229.686 121.253 227.752 122.04C225.818 122.827 223.747 123.223 221.659 123.206V123.206Z" fill="#4E5660"/>
<path d="M399.27 103.801H333.326C328.711 103.801 324.286 101.968 321.022 98.7046C317.759 95.4415 315.926 91.0157 315.926 86.401C315.926 81.7862 317.759 77.3605 321.022 74.0973C324.286 70.8342 328.711 69.001 333.326 69.001H399.27C403.885 69.001 408.311 70.8342 411.574 74.0973C414.837 77.3605 416.67 81.7862 416.67 86.401C416.67 91.0157 414.837 95.4415 411.574 98.7046C408.311 101.968 403.885 103.801 399.27 103.801Z" fill="#8EAFE2"/>
<path d="M419.526 398.918C401.236 398.918 383.358 393.494 368.15 383.333C352.943 373.172 341.09 358.729 334.091 341.832C327.092 324.935 325.261 306.341 328.829 288.403C332.397 270.465 341.204 253.988 354.137 241.055C367.07 228.122 383.547 219.315 401.485 215.747C419.423 212.178 438.017 214.01 454.914 221.009C471.812 228.008 486.254 239.861 496.415 255.068C506.577 270.275 512 288.154 512 306.444C511.972 330.961 502.221 354.466 484.884 371.802C467.548 389.138 444.043 398.89 419.526 398.918V398.918ZM419.526 251.27C408.614 251.27 397.946 254.506 388.873 260.568C379.8 266.631 372.728 275.248 368.552 285.33C364.376 295.411 363.283 306.505 365.412 317.208C367.541 327.91 372.796 337.741 380.512 345.458C388.228 353.174 398.059 358.429 408.762 360.558C419.465 362.687 430.558 361.594 440.64 357.418C450.722 353.242 459.339 346.17 465.402 337.097C471.464 328.023 474.7 317.356 474.7 306.444C474.683 291.816 468.865 277.792 458.522 267.448C448.178 257.105 434.154 251.286 419.526 251.27V251.27Z" fill="#4E5660"/>
<path d="M92.474 398.918C74.1844 398.918 56.3055 393.494 41.0982 383.333C25.891 373.172 14.0383 358.729 7.03921 341.832C0.0400672 324.935 -1.79123 306.341 1.7769 288.403C5.34503 270.465 14.1523 253.988 27.085 241.055C40.0178 228.122 56.4951 219.315 74.4333 215.747C92.3715 212.178 110.965 214.01 127.862 221.009C144.76 228.008 159.202 239.861 169.363 255.068C179.525 270.275 184.948 288.154 184.948 306.444C184.92 330.961 175.169 354.466 157.832 371.802C140.496 389.138 116.991 398.89 92.474 398.918V398.918ZM92.474 251.27C81.5617 251.27 70.8943 254.506 61.821 260.568C52.7477 266.631 45.6759 275.248 41.4999 285.33C37.3239 295.411 36.2313 306.505 38.3602 317.208C40.4891 327.91 45.7439 337.741 53.4601 345.458C61.1764 353.174 71.0074 358.429 81.7101 360.558C92.4128 362.687 103.506 361.594 113.588 357.418C123.67 353.242 132.287 346.17 138.35 337.097C144.412 328.023 147.648 317.356 147.648 306.444C147.631 291.816 141.813 277.792 131.47 267.448C121.126 257.105 107.102 251.286 92.474 251.27V251.27Z" fill="#4E5660"/>
<path d="M360.863 69H333.326C328.711 69 324.286 70.8332 321.022 74.0963C317.759 77.3595 315.926 81.7852 315.926 86.4C315.926 91.0148 317.759 95.4405 321.022 98.7037C324.286 101.967 328.711 103.8 333.326 103.8H367.656C362.135 94.587 359.613 79.994 360.863 69Z" fill="#6A96D7"/>
</svg>
