<svg width="529" height="512" viewBox="0 0 529 512" fill="none" xmlns="http://www.w3.org/2000/svg">
<path d="M84.4182 443.241C83.1995 443.241 81.9992 442.943 80.9212 442.375C79.8433 441.806 78.9201 440.983 78.2316 439.978C77.5431 438.972 77.11 437.814 76.9699 436.603C76.8297 435.393 76.9867 434.166 77.4272 433.03L107.194 356.189C107.541 355.258 108.069 354.406 108.748 353.681C109.427 352.956 110.243 352.374 111.149 351.967C112.054 351.56 113.032 351.337 114.025 351.311C115.017 351.285 116.005 351.456 116.931 351.815C117.857 352.173 118.703 352.712 119.419 353.4C120.135 354.088 120.707 354.912 121.102 355.823C121.497 356.734 121.708 357.714 121.721 358.707C121.735 359.7 121.551 360.686 121.18 361.607L91.4132 438.448C90.867 439.859 89.9065 441.072 88.6581 441.928C87.4097 442.783 85.9316 443.241 84.4182 443.241V443.241Z" fill="#4A5359"/>
<path d="M494.709 335.119C522.032 153.129 373.217 47.8059 290.971 30.8569V364.537L468.471 358.356C474.868 358.151 480.992 355.716 485.783 351.472C490.575 347.229 493.732 341.444 494.709 335.119V335.119Z" fill="#6CB6DE"/>
<path d="M290.971 30.8569V177.987C341.346 162.04 347.187 102.562 410.402 96.7729C370.69 60.1419 325.1 37.8899 290.971 30.8569Z" fill="#F284B9"/>
<path opacity="0.1" d="M320.343 39.6989C310.811 35.9526 300.987 32.996 290.971 30.8589V364.539L383.283 361.324C316.022 310.963 311.29 148.821 320.343 39.6989Z" fill="black"/>
<path d="M95.6912 353.651L252.8 34.7681V365.868L106.873 370.948C104.799 371.02 102.742 370.554 100.903 369.594C99.0634 368.633 97.5042 367.213 96.3777 365.47C95.2512 363.728 94.5958 361.723 94.4755 359.651C94.3551 357.58 94.774 355.512 95.6912 353.651V353.651Z" fill="#95D4E9"/>
<path opacity="0.1" d="M115.928 312.577L252.8 307.811V292.799L123.452 297.299L115.928 312.577ZM151.164 241.059L252.8 237.52V222.51L158.688 225.787L151.164 241.059ZM193.924 154.268L186.4 169.539L252.8 167.227V152.218L193.924 154.268Z" fill="black"/>
<path d="M290.971 432.625H252.8V11.913C252.8 10.3486 253.108 8.79944 253.707 7.35404C254.305 5.90864 255.183 4.59528 256.289 3.48897C257.395 2.38265 258.708 1.50503 260.153 0.906229C261.599 0.307424 263.148 -0.000845246 264.712 -0.000976562L279.058 -0.000976562C282.218 -0.000976562 285.248 1.25414 287.482 3.48826C289.716 5.72238 290.971 8.7525 290.971 11.912V432.625Z" fill="#5F75A1"/>
<path opacity="0.1" d="M252.8 390.353V432.625H290.972V389.025L252.8 390.353Z" fill="black"/>
<path d="M399.7 511.999H60.3382C53.428 511.999 46.7142 509.7 41.2538 505.465C35.7934 501.231 31.8967 495.3 30.1772 488.607L16.4352 435.116C15.9294 433.147 15.8718 431.09 16.2664 429.096C16.6611 427.102 17.498 425.222 18.7156 423.595C19.9332 421.967 21.5004 420.633 23.3018 419.692C25.1031 418.75 27.0928 418.225 29.1242 418.154L508.77 401.454C526.164 400.848 534.735 422.376 521.684 433.891L458.246 489.866C442.078 504.129 421.26 511.999 399.7 511.999V511.999Z" fill="#E8E9EA"/>
<path d="M363.169 443.239C361.18 443.255 359.266 442.481 357.848 441.086C356.43 439.691 355.624 437.79 355.607 435.801C355.591 433.812 356.365 431.898 357.76 430.48C359.155 429.061 361.056 428.255 363.045 428.239C377.719 427.99 411.607 426.602 425.495 426.016C426.492 425.952 427.492 426.087 428.436 426.415C429.379 426.742 430.248 427.255 430.991 427.923C431.734 428.59 432.336 429.4 432.762 430.304C433.188 431.207 433.429 432.187 433.471 433.185C433.513 434.183 433.355 435.179 433.007 436.116C432.658 437.052 432.127 437.909 431.442 438.637C430.758 439.365 429.936 439.949 429.023 440.354C428.11 440.76 427.125 440.979 426.126 440.999C412.181 441.587 378.143 442.981 363.299 443.233C363.256 443.239 363.212 443.239 363.169 443.239Z" fill="#95D4E9"/>
<path d="M27.6462 478.757L30.1772 488.609C31.8971 495.302 35.794 501.232 41.2544 505.466C46.7147 509.701 53.4283 511.999 60.3382 511.999H399.7C421.261 511.999 442.081 504.127 458.248 489.862L489.456 462.325C386.893 466.652 136.758 476.908 27.6462 478.757Z" fill="#F284B9"/>
<path opacity="0.1" d="M166.737 413.362L29.1232 418.154C27.0918 418.225 25.1022 418.75 23.3008 419.692C21.4994 420.633 19.9322 421.967 18.7146 423.595C17.4971 425.222 16.6601 427.102 16.2654 429.096C15.8708 431.09 15.9285 433.147 16.4342 435.116L30.1762 488.609C31.8964 495.301 35.7936 501.232 41.254 505.466C46.7145 509.7 53.4282 511.999 60.3382 511.999H186.116C142.128 497.45 146.848 429.108 166.737 413.362Z" fill="black"/>
<path opacity="0.1" d="M186 170.355L95.6932 353.655C94.7753 355.516 94.3558 357.584 94.4758 359.656C94.5958 361.728 95.2511 363.733 96.3777 365.476C97.5043 367.219 99.0637 368.64 100.904 369.601C102.744 370.561 104.801 371.028 106.875 370.955L242.337 366.238C192.17 339.193 177.316 241.566 186 170.355Z" fill="black"/>
</svg>
