<svg width="512" height="512" viewBox="0 0 512 512" fill="none" xmlns="http://www.w3.org/2000/svg">
<path d="M480.54 347.323H31.46C28.5161 347.323 25.601 346.743 22.8812 345.617C20.1614 344.49 17.6901 342.839 15.6085 340.758C13.5269 338.676 11.8756 336.205 10.7491 333.485C9.62261 330.765 9.04287 327.85 9.043 324.906V121.179C9.043 109.462 13.6976 98.2249 21.9827 89.9397C30.2679 81.6546 41.505 77 53.222 77H458.777C470.494 77 481.731 81.6545 490.017 89.9397C498.302 98.2248 502.957 109.462 502.957 121.179V324.906C502.957 327.85 502.377 330.765 501.251 333.485C500.124 336.204 498.473 338.676 496.391 340.757C494.31 342.839 491.838 344.49 489.119 345.617C486.399 346.743 483.484 347.323 480.54 347.323Z" fill="#FCF2D0"/>
<path d="M480.54 347.323H31.46C28.5161 347.323 25.601 346.743 22.8812 345.617C20.1614 344.49 17.6901 342.839 15.6085 340.758C13.5269 338.676 11.8756 336.205 10.7491 333.485C9.62261 330.765 9.04287 327.85 9.043 324.906V121.179C9.043 109.462 13.6976 98.2249 21.9827 89.9397C30.2679 81.6546 41.505 77 53.222 77H458.777C470.494 77 481.731 81.6545 490.017 89.9397C498.302 98.2248 502.957 109.462 502.957 121.179V324.906C502.957 327.85 502.377 330.765 501.251 333.485C500.124 336.204 498.473 338.676 496.391 340.757C494.31 342.839 491.838 344.49 489.119 345.617C486.399 346.743 483.484 347.323 480.54 347.323Z" fill="#FCF2D0"/>
<path d="M216.218 77H53.223C41.506 77 30.2689 81.6546 21.9837 89.9397C13.6986 98.2249 9.04401 109.462 9.04401 121.179V324.906C9.04388 327.85 9.62362 330.765 10.7501 333.485C11.8766 336.205 13.5279 338.676 15.6095 340.758C17.6911 342.839 20.1624 344.49 22.8822 345.617C25.6021 346.743 28.5171 347.323 31.461 347.323H238.709C223.128 294.369 204.419 177.109 216.218 77V77Z" fill="#F6E3A3"/>
<path d="M216.218 77H53.223C41.506 77 30.2689 81.6546 21.9837 89.9397C13.6986 98.2249 9.04401 109.462 9.04401 121.179V324.906C9.04388 327.85 9.62362 330.765 10.7501 333.485C11.8766 336.205 13.5279 338.676 15.6095 340.758C17.6911 342.839 20.1624 344.49 22.8822 345.617C25.6021 346.743 28.5171 347.323 31.461 347.323H238.709C223.128 294.369 204.419 177.109 216.218 77V77Z" fill="#F6E3A3"/>
<path d="M123.459 191.582H73.389C70.2311 191.582 67.2025 190.328 64.9695 188.095C62.7365 185.862 61.482 182.833 61.482 179.675V158.752C61.482 155.594 62.7365 152.566 64.9695 150.333C67.2025 148.1 70.2311 146.845 73.389 146.845H123.459C126.617 146.845 129.646 148.1 131.879 150.333C134.112 152.566 135.366 155.594 135.366 158.752V179.675C135.366 182.833 134.112 185.862 131.879 188.095C129.646 190.328 126.617 191.582 123.459 191.582V191.582Z" fill="#7ACEFA"/>
<path d="M248.279 191.582H198.209C196.645 191.582 195.097 191.275 193.652 190.676C192.207 190.078 190.894 189.201 189.788 188.095C188.682 186.99 187.805 185.677 187.207 184.232C186.608 182.788 186.3 181.239 186.3 179.675V158.752C186.3 155.594 187.554 152.566 189.787 150.333C192.02 148.1 195.049 146.845 198.207 146.845H248.277C249.841 146.845 251.389 147.153 252.834 147.752C254.278 148.35 255.591 149.227 256.697 150.333C257.802 151.438 258.679 152.751 259.278 154.196C259.876 155.64 260.184 157.189 260.184 158.752V179.675C260.184 181.239 259.876 182.787 259.278 184.232C258.679 185.676 257.802 186.989 256.697 188.095C255.591 189.2 254.278 190.077 252.834 190.676C251.389 191.274 249.841 191.582 248.277 191.582H248.279Z" fill="#A3DEFE"/>
<path d="M212.51 146.845H198.21C196.646 146.845 195.097 147.153 193.652 147.751C192.207 148.349 190.895 149.226 189.789 150.332C188.683 151.437 187.805 152.75 187.207 154.195C186.608 155.64 186.3 157.188 186.3 158.752V179.675C186.3 182.833 187.554 185.862 189.787 188.095C192.02 190.328 195.049 191.582 198.207 191.582H213.98C213.08 176.862 212.552 161.868 212.507 146.845H212.51Z" fill="#7ACEFA"/>
<path d="M373.1 191.582H323.03C319.872 191.582 316.843 190.328 314.61 188.095C312.377 185.862 311.123 182.833 311.123 179.675V158.752C311.123 155.594 312.377 152.566 314.61 150.333C316.843 148.1 319.872 146.845 323.03 146.845H373.1C376.258 146.845 379.287 148.1 381.52 150.333C383.753 152.566 385.007 155.594 385.007 158.752V179.675C385.007 182.833 383.752 185.862 381.519 188.094C379.286 190.327 376.258 191.582 373.1 191.582V191.582Z" fill="#A3DEFE"/>
<path d="M373.1 191.582C376.258 191.582 379.287 190.328 381.52 188.095C383.753 185.862 385.007 182.833 385.007 179.675V158.752C385.008 156.813 384.535 154.903 383.628 153.188C382.722 151.474 381.41 150.007 379.807 148.916L337.141 191.581H373.1V191.582Z" fill="#7ACEFA"/>
<path d="M448.8 229.753H502.952V124.668H448.8C444.141 124.668 439.674 126.519 436.38 129.813C433.086 133.107 431.235 137.574 431.235 142.233V212.188C431.235 214.495 431.689 216.779 432.572 218.91C433.455 221.041 434.749 222.977 436.38 224.608C438.011 226.239 439.947 227.533 442.078 228.416C444.209 229.299 446.493 229.753 448.8 229.753Z" fill="#A3DEFE"/>
<path d="M502.957 133.355V124.668H448.8C446.493 124.668 444.209 125.122 442.078 126.005C439.947 126.888 438.011 128.182 436.38 129.813C434.749 131.444 433.455 133.38 432.573 135.511C431.69 137.642 431.236 139.926 431.236 142.233V205.068L502.957 133.355Z" fill="#7ACEFA"/>
<path d="M503.953 315.868H449.08V359.026H503.954C505.011 359.026 506.058 358.817 507.034 358.412C508.011 358.008 508.898 357.414 509.645 356.667C510.392 355.919 510.985 355.031 511.389 354.055C511.793 353.078 512.001 352.031 512 350.974V323.909C511.999 321.775 511.151 319.728 509.642 318.22C508.133 316.711 506.086 315.863 503.952 315.863L503.953 315.868Z" fill="#4E5660"/>
<path d="M8.047 315.868H62.92V359.026H8.047C6.98983 359.026 5.94303 358.818 4.96639 358.413C3.98976 358.008 3.10244 357.415 2.35514 356.667C1.60785 355.92 1.01521 355.032 0.611107 354.055C0.207002 353.078 -0.000655317 352.031 1.55352e-06 350.974V323.909C0.00159208 321.776 0.850101 319.731 2.35903 318.223C3.86797 316.715 5.91384 315.868 8.047 315.868V315.868Z" fill="#4E5660"/>
<path d="M478.568 284.11H502.957V315.868H478.568C476.615 315.868 474.742 315.092 473.361 313.711C471.98 312.33 471.204 310.457 471.204 308.504V291.474C471.204 289.521 471.98 287.648 473.361 286.267C474.742 284.886 476.615 284.11 478.568 284.11V284.11Z" fill="#E8899E"/>
<path d="M33.432 284.11H9.043V315.868H33.432C35.3851 315.868 37.2581 315.092 38.6391 313.711C40.0202 312.33 40.796 310.457 40.796 308.504V291.474C40.796 289.521 40.0202 287.648 38.6391 286.267C37.2581 284.886 35.3851 284.11 33.432 284.11V284.11Z" fill="#E8899E"/>
<path d="M385.005 119.968H61.482C59.4929 119.968 57.5852 119.178 56.1787 117.771C54.7722 116.365 53.982 114.457 53.982 112.468C53.982 110.479 54.7722 108.571 56.1787 107.164C57.5852 105.758 59.4929 104.968 61.482 104.968H385.005C386.994 104.968 388.902 105.758 390.308 107.164C391.715 108.571 392.505 110.479 392.505 112.468C392.505 114.457 391.715 116.365 390.308 117.771C388.902 119.178 386.994 119.968 385.005 119.968Z" fill="#E8899E"/>
<path d="M9.043 255.413H307.013C308.889 255.413 310.746 255.043 312.479 254.325C314.212 253.608 315.787 252.555 317.113 251.229L339.241 229.101C339.964 228.378 340.456 227.457 340.655 226.455C340.854 225.452 340.752 224.413 340.361 223.469C339.97 222.525 339.308 221.718 338.458 221.15C337.608 220.582 336.609 220.279 335.587 220.279H9.043V255.413Z" fill="#8EAFE2"/>
<path d="M216.227 220.279H9.043V255.413H220.29C218.755 244.113 217.378 232.358 216.227 220.279V220.279Z" fill="#6A96D7"/>
<path d="M280.629 299.974H231.37C228.952 299.974 226.558 300.45 224.325 301.375C222.091 302.3 220.061 303.656 218.352 305.366C216.642 307.076 215.286 309.105 214.361 311.339C213.436 313.572 212.96 315.966 212.96 318.384V347.323H299.039V318.384C299.039 313.501 297.099 308.819 293.647 305.366C290.194 301.914 285.512 299.974 280.629 299.974V299.974Z" fill="#8EAFE2"/>
<path d="M159.894 391.995C184.58 367.309 184.58 327.285 159.894 302.599C135.208 277.912 95.1836 277.912 70.4974 302.599C45.8111 327.285 45.8111 367.309 70.4974 391.995C95.1836 416.681 135.208 416.681 159.894 391.995Z" fill="#8EAFE2"/>
<path d="M115.233 375.727C130.92 375.727 143.637 363.01 143.637 347.323C143.637 331.636 130.92 318.919 115.233 318.919C99.5459 318.919 86.829 331.636 86.829 347.323C86.829 363.01 99.5459 375.727 115.233 375.727Z" fill="#4E5660"/>
<path d="M441.397 392.025C466.083 367.339 466.083 327.315 441.397 302.629C416.711 277.943 376.687 277.943 352 302.629C327.314 327.315 327.314 367.339 352 392.025C376.687 416.712 416.711 416.712 441.397 392.025Z" fill="#8EAFE2"/>
<path d="M396.767 375.727C412.454 375.727 425.171 363.01 425.171 347.323C425.171 331.636 412.454 318.919 396.767 318.919C381.08 318.919 368.363 331.636 368.363 347.323C368.363 363.01 381.08 375.727 396.767 375.727Z" fill="#4E5660"/>
<path d="M212.96 318.384V347.323H238.707C235.043 334.87 231.207 318.86 227.634 300.354C223.488 301.215 219.766 303.478 217.093 306.761C214.42 310.045 212.961 314.15 212.96 318.384V318.384Z" fill="#6A96D7"/>
</svg>
