<svg width="512" height="512" viewBox="0 0 512 512" fill="none" xmlns="http://www.w3.org/2000/svg">
<path d="M357.05 280.335L328.415 161.991C327.052 156.358 323.834 151.347 319.279 147.763C314.724 144.18 309.096 142.232 303.3 142.233H51.4311C45.636 142.233 40.0093 144.181 35.455 147.765C30.9007 151.348 27.6834 156.359 26.3201 161.991L3.94408 254.469C-0.191849 271.561 -1.08496 289.277 1.31108 306.698L8.67508 360.238C9.53191 366.46 12.612 372.161 17.3461 376.289C22.0803 380.416 28.1484 382.69 34.4291 382.691H478.294C484.575 382.69 490.643 380.416 495.377 376.288C500.111 372.16 503.191 366.459 504.047 360.237L511.803 303.837C512.206 300.91 511.977 297.93 511.131 295.099C510.286 292.267 508.843 289.65 506.902 287.422C504.96 285.195 502.563 283.41 499.873 282.186C497.184 280.963 494.263 280.33 491.308 280.33H357.05V280.335Z" fill="#E77587"/>
<path opacity="0.08" d="M357.05 322.641C341.124 322.641 325.85 328.968 314.589 340.23C303.327 351.491 297 366.765 297 382.691H417.1C417.1 366.765 410.773 351.491 399.511 340.23C388.25 328.968 372.976 322.641 357.05 322.641Z" fill="black"/>
<path opacity="0.08" d="M107.4 322.641C92.6416 322.643 78.4006 328.079 67.3954 337.913C56.3902 347.746 49.3914 361.288 47.735 375.953C43.1967 371.859 40.2513 366.293 39.419 360.238L32.055 306.698C29.6589 289.277 30.552 271.561 34.688 254.469L57.063 161.991C58.4259 156.358 61.6431 151.347 66.1975 147.764C70.7518 144.18 76.3788 142.232 82.174 142.232H51.431C45.6358 142.232 40.0089 144.18 35.4546 147.764C30.9003 151.348 27.6831 156.358 26.32 161.991L3.94398 254.469C-0.191456 271.561 -1.08456 289.277 1.31098 306.698L8.67498 360.238C9.53181 366.46 12.6119 372.161 17.346 376.289C22.0802 380.416 28.1483 382.69 34.429 382.691H167.45C167.449 366.765 161.123 351.491 149.861 340.23C138.6 328.968 123.326 322.641 107.4 322.641Z" fill="black"/>
<path d="M107.4 433.182C135.285 433.182 157.89 410.577 157.89 382.692C157.89 354.807 135.285 332.202 107.4 332.202C79.5153 332.202 56.9102 354.807 56.9102 382.692C56.9102 410.577 79.5153 433.182 107.4 433.182Z" fill="#4A5058"/>
<path d="M107.4 402.792C118.501 402.792 127.5 393.793 127.5 382.692C127.5 371.591 118.501 362.592 107.4 362.592C96.2991 362.592 87.3 371.591 87.3 382.692C87.3 393.793 96.2991 402.792 107.4 402.792Z" fill="#BCBCBC"/>
<path d="M357.05 433.182C384.935 433.182 407.54 410.577 407.54 382.692C407.54 354.807 384.935 332.202 357.05 332.202C329.165 332.202 306.56 354.807 306.56 382.692C306.56 410.577 329.165 433.182 357.05 433.182Z" fill="#4A5058"/>
<path d="M357.05 402.792C368.151 402.792 377.15 393.793 377.15 382.692C377.15 371.591 368.151 362.592 357.05 362.592C345.949 362.592 336.95 371.591 336.95 382.692C336.95 393.793 345.949 402.792 357.05 402.792Z" fill="#BCBCBC"/>
<path d="M331.562 174.991H216.445C213.565 174.991 210.804 176.135 208.767 178.171C206.731 180.208 205.587 182.969 205.587 185.849V269.471C205.587 272.351 206.731 275.113 208.767 277.149C210.804 279.185 213.565 280.329 216.445 280.329H357.045L331.562 174.991Z" fill="#F1F1F1"/>
<path d="M40.511 268.754L60.8 184.891C61.4827 182.069 63.0945 179.558 65.3763 177.763C67.6581 175.967 70.4775 174.991 73.381 174.991H154.2C157.08 174.991 159.842 176.135 161.878 178.171C163.914 180.208 165.058 182.969 165.058 185.849V269.471C165.059 270.898 164.778 272.31 164.233 273.628C163.688 274.946 162.888 276.143 161.88 277.152C160.871 278.161 159.674 278.961 158.356 279.507C157.039 280.053 155.626 280.334 154.2 280.334H49.624C48.2052 280.334 46.8049 280.012 45.5286 279.393C44.2522 278.773 43.1332 277.872 42.2558 276.757C41.3783 275.642 40.7654 274.342 40.4632 272.956C40.161 271.57 40.1773 270.133 40.511 268.754V268.754Z" fill="#F1F1F1"/>
<path d="M459.629 306.891C457.176 306.891 454.824 307.865 453.09 309.6C451.355 311.334 450.381 313.686 450.381 316.139V338.475C450.381 340.928 451.355 343.28 453.09 345.014C454.824 346.749 457.176 347.723 459.629 347.723H505.767L511.383 306.891H459.629Z" fill="#F0B0B7"/>
<path d="M459.629 306.891C458.415 306.891 457.212 307.13 456.09 307.595C454.968 308.06 453.948 308.741 453.089 309.6C452.231 310.458 451.549 311.478 451.085 312.6C450.62 313.722 450.381 314.925 450.381 316.139V338.475C450.381 340.928 451.355 343.28 453.09 345.014C454.824 346.749 457.176 347.723 459.629 347.723H476.229V306.891H459.629Z" fill="white"/>
<path d="M311.436 78H49.2942C44.3742 78.0003 39.6558 79.9548 36.1769 83.4338C32.698 86.9127 30.7434 91.6311 30.7432 96.551V123.681C30.7434 128.601 32.698 133.319 36.1769 136.798C39.6558 140.277 44.3742 142.232 49.2942 142.232H311.436C316.356 142.232 321.074 140.277 324.553 136.798C328.032 133.319 329.987 128.601 329.987 123.681V96.551C329.987 91.631 328.033 86.9125 324.554 83.4335C321.075 79.9545 316.356 78 311.436 78V78Z" fill="#5EC08B"/>
<path opacity="0.08" d="M61.9642 123.681V96.551C61.9642 91.631 63.9186 86.9125 67.3976 83.4335C70.8766 79.9545 75.5951 78 80.5152 78H49.2942C46.858 77.9999 44.4456 78.4796 42.1948 79.4118C39.9441 80.3441 37.899 81.7105 36.1763 83.4332C34.4537 85.1558 33.0872 87.2009 32.155 89.4517C31.2228 91.7025 30.743 94.1148 30.7432 96.551V123.681C30.7434 128.601 32.698 133.319 36.1769 136.798C39.6558 140.277 44.3742 142.232 49.2942 142.232H80.5152C75.5951 142.232 70.8766 140.278 67.3976 136.799C63.9186 133.32 61.9642 128.601 61.9642 123.681Z" fill="black"/>
<path d="M195.666 78.002H165.07V142.232H195.666V78.002Z" fill="#4A5058"/>
<path d="M233.977 320.499H205.586C203.597 320.499 201.689 319.709 200.283 318.302C198.876 316.896 198.086 314.988 198.086 312.999C198.086 311.01 198.876 309.102 200.283 307.696C201.689 306.289 203.597 305.499 205.586 305.499H233.977C235.966 305.499 237.874 306.289 239.28 307.696C240.687 309.102 241.477 311.01 241.477 312.999C241.477 314.988 240.687 316.896 239.28 318.302C237.874 319.709 235.966 320.499 233.977 320.499Z" fill="#4A5058"/>
<path d="M350.337 252.591H279.106C275.159 252.59 271.324 253.902 268.204 256.319C265.083 258.736 262.855 262.122 261.869 265.944L258.155 280.334H357.049L350.337 252.591Z" fill="#BCBCBC"/>
</svg>
