<svg width="516" height="512" viewBox="0 0 516 512" fill="none" xmlns="http://www.w3.org/2000/svg">
<path d="M389.829 83C384.67 83.0001 379.675 84.8127 375.717 88.121C371.759 91.4293 369.088 96.0231 368.173 101.1L366.136 112.387H413.52L411.483 101.1C410.568 96.0229 407.899 91.4287 403.941 88.1202C399.982 84.8117 394.988 82.9994 389.829 83Z" fill="#F1C372"/>
<path d="M320.825 367.298H16.7002V198.425C16.7002 191.837 19.3173 185.519 23.9757 180.86C28.6341 176.202 34.9522 173.585 41.5402 173.585H320.826V367.298H320.825Z" fill="#E68392"/>
<path opacity="0.15" d="M41.5402 173.585C34.9522 173.585 28.6341 176.202 23.9757 180.86C19.3173 185.519 16.7002 191.837 16.7002 198.425V367.298H231.9C167.333 334.811 128.977 228.003 137.623 173.585H41.5402Z" fill="#8D4330"/>
<path d="M320.83 303.062H16.7002V337.667H320.83V303.062Z" fill="#DDEFF5"/>
<path opacity="0.15" d="M16.7002 303.059V337.664H194.436C184.996 327.02 176.689 315.423 169.649 303.059H16.7002Z" fill="#003A63"/>
<path d="M320.825 367.298H503.365V196.278C503.365 174.029 494.527 152.69 478.794 136.958C463.061 121.225 441.723 112.386 419.473 112.386H360.185C349.746 112.386 339.735 116.533 332.353 123.915C324.972 131.296 320.825 141.307 320.825 151.746V367.298Z" fill="#E68392"/>
<path opacity="0.15" d="M503.366 356.463C386.479 334.518 381.66 169.199 388.75 112.385H360.185C349.746 112.385 339.735 116.532 332.353 123.913C324.972 131.294 320.825 141.306 320.825 151.745V367.298H503.365V356.463H503.366Z" fill="#8D4330"/>
<path d="M465.3 378.792H506.66C509.137 378.792 511.513 377.808 513.264 376.056C515.016 374.304 516 371.928 516 369.451V347.005C516 344.528 515.016 342.152 513.264 340.4C511.512 338.648 509.136 337.664 506.659 337.664H465.3C462.823 337.664 460.447 338.648 458.695 340.4C456.943 342.152 455.959 344.528 455.959 347.005V369.451C455.959 371.928 456.943 374.304 458.695 376.056C460.447 377.808 462.823 378.792 465.3 378.792V378.792Z" fill="#495059"/>
<path d="M11.731 378.792H37.4C39.4504 378.792 41.4168 377.978 42.8666 376.528C44.3165 375.078 45.131 373.111 45.131 371.061V345.395C45.131 343.345 44.3165 341.378 42.8666 339.928C41.4168 338.479 39.4504 337.664 37.4 337.664H11.731C9.68061 337.664 7.7142 338.479 6.26436 339.928C4.81451 341.378 4 343.345 4 345.395L4 371.061C4 373.111 4.81451 375.078 6.26436 376.528C7.7142 377.978 9.68061 378.792 11.731 378.792Z" fill="#495059"/>
<path d="M128.91 428.622C161.252 428.622 187.47 402.404 187.47 370.062C187.47 337.72 161.252 311.502 128.91 311.502C96.5683 311.502 70.3501 337.72 70.3501 370.062C70.3501 402.404 96.5683 428.622 128.91 428.622Z" fill="#495059"/>
<path d="M128.91 396.5C143.511 396.5 155.348 384.663 155.348 370.062C155.348 355.461 143.511 343.624 128.91 343.624C114.309 343.624 102.472 355.461 102.472 370.062C102.472 384.663 114.309 396.5 128.91 396.5Z" fill="#E8E9EA"/>
<path d="M360.21 428.622C392.552 428.622 418.77 402.404 418.77 370.062C418.77 337.72 392.552 311.502 360.21 311.502C327.868 311.502 301.65 337.72 301.65 370.062C301.65 402.404 327.868 428.622 360.21 428.622Z" fill="#495059"/>
<path d="M360.21 396.5C374.811 396.5 386.648 384.663 386.648 370.062C386.648 355.461 374.811 343.624 360.21 343.624C345.609 343.624 333.772 355.461 333.772 370.062C333.772 384.663 345.609 396.5 360.21 396.5Z" fill="#E8E9EA"/>
<path d="M277.6 216.024H59.9258C57.9367 216.024 56.029 215.234 54.6225 213.827C53.216 212.421 52.4258 210.513 52.4258 208.524C52.4258 206.535 53.216 204.627 54.6225 203.221C56.029 201.814 57.9367 201.024 59.9258 201.024H277.6C279.589 201.024 281.497 201.814 282.903 203.221C284.31 204.627 285.1 206.535 285.1 208.524C285.1 210.513 284.31 212.421 282.903 213.827C281.497 215.234 279.589 216.024 277.6 216.024Z" fill="white"/>
<path d="M277.6 267.954H59.9258C57.9367 267.954 56.029 267.164 54.6225 265.757C53.216 264.351 52.4258 262.443 52.4258 260.454C52.4258 258.465 53.216 256.557 54.6225 255.151C56.029 253.744 57.9367 252.954 59.9258 252.954H277.6C279.589 252.954 281.497 253.744 282.903 255.151C284.31 256.557 285.1 258.465 285.1 260.454C285.1 262.443 284.31 264.351 282.903 265.757C281.497 267.164 279.589 267.954 277.6 267.954Z" fill="white"/>
<path d="M168.763 267.954C166.774 267.954 164.866 267.164 163.459 265.757C162.053 264.351 161.263 262.443 161.263 260.454V208.525C161.263 206.536 162.053 204.628 163.459 203.222C164.866 201.815 166.774 201.025 168.763 201.025C170.752 201.025 172.659 201.815 174.066 203.222C175.473 204.628 176.263 206.536 176.263 208.525V260.454C176.263 262.443 175.473 264.351 174.066 265.757C172.659 267.164 170.752 267.954 168.763 267.954Z" fill="white"/>
<path d="M113.229 267.954C111.24 267.954 109.332 267.164 107.926 265.757C106.519 264.351 105.729 262.443 105.729 260.454V208.525C105.729 206.536 106.519 204.628 107.926 203.222C109.332 201.815 111.24 201.025 113.229 201.025C115.218 201.025 117.126 201.815 118.532 203.222C119.939 204.628 120.729 206.536 120.729 208.525V260.454C120.729 262.443 119.939 264.351 118.532 265.757C117.126 267.164 115.218 267.954 113.229 267.954Z" fill="white"/>
<path d="M224.3 267.954C222.311 267.954 220.403 267.164 218.997 265.757C217.59 264.351 216.8 262.443 216.8 260.454V208.525C216.8 206.536 217.59 204.628 218.997 203.222C220.403 201.815 222.311 201.025 224.3 201.025C226.289 201.025 228.197 201.815 229.603 203.222C231.01 204.628 231.8 206.536 231.8 208.525V260.454C231.8 262.443 231.01 264.351 229.603 265.757C228.197 267.164 226.289 267.954 224.3 267.954Z" fill="white"/>
<path d="M419.473 112.385H360.185C349.746 112.385 339.735 116.532 332.353 123.913C324.972 131.294 320.825 141.306 320.825 151.745V257.128H413.812C424.629 257.127 435.309 259.553 445.064 264.228L503.364 292.174V196.274C503.364 174.025 494.525 152.687 478.792 136.955C463.06 121.223 441.722 112.385 419.473 112.385V112.385Z" fill="#DDEFF5"/>
<path opacity="0.15" d="M388.75 112.385H360.185C349.746 112.385 339.735 116.532 332.353 123.913C324.972 131.294 320.825 141.306 320.825 151.745V257.128H402.584C384.58 203.439 384.982 142.585 388.75 112.385Z" fill="#003A63"/>
<path d="M425.968 221.766H503.368V196.278C503.388 179.918 498.6 163.913 489.6 150.252H425.969C421.349 150.252 416.919 152.087 413.653 155.353C410.387 158.62 408.552 163.05 408.552 167.669V204.349C408.552 206.636 409.002 208.901 409.877 211.014C410.752 213.127 412.035 215.047 413.652 216.665C415.27 218.282 417.19 219.565 419.303 220.44C421.416 221.315 423.681 221.766 425.968 221.766V221.766Z" fill="#A8D1EC"/>
<path d="M377.664 229.266H351.712C349.723 229.266 347.815 228.476 346.409 227.069C345.002 225.663 344.212 223.755 344.212 221.766C344.212 219.777 345.002 217.869 346.409 216.463C347.815 215.056 349.723 214.266 351.712 214.266H377.664C379.653 214.266 381.561 215.056 382.967 216.463C384.374 217.869 385.164 219.777 385.164 221.766C385.164 223.755 384.374 225.663 382.967 227.069C381.561 228.476 379.653 229.266 377.664 229.266Z" fill="#495059"/>
<path d="M487.031 317.182H503.365V267.172H487.031C482.313 267.172 477.789 269.046 474.453 272.382C471.117 275.718 469.243 280.242 469.243 284.96V299.394C469.243 304.112 471.117 308.636 474.453 311.972C477.789 315.308 482.313 317.182 487.031 317.182V317.182Z" fill="#F1C372"/>
</svg>
