<svg width="512" height="512" viewBox="0 0 512 512" fill="none" xmlns="http://www.w3.org/2000/svg">
<path d="M110.117 100.399H81.303V174.881H110.117V100.399Z" fill="#3B484A"/>
<path d="M373.235 100.399H344.421V174.881H373.235V100.399Z" fill="#3B484A"/>
<path d="M317.074 154.285H56.5659C52.0044 154.284 47.4873 155.182 43.2727 156.927C39.0581 158.672 35.2285 161.23 32.0025 164.455C28.7766 167.68 26.2175 171.509 24.4713 175.723C22.7252 179.937 21.8263 184.454 21.8259 189.015V416.397L36.2259 451.05H317.075L354.533 316.507L317.074 154.285Z" fill="#80E2FF"/>
<path d="M500.121 378.939L484.235 361.716L500.121 344.494C500.119 337.22 497.228 330.245 492.084 325.103C486.94 319.96 479.964 317.072 472.69 317.073H458.341L418.101 179.275C415.995 172.064 411.608 165.73 405.597 161.224C399.586 156.718 392.275 154.283 384.763 154.284H317.075V451.05H475.775L500.12 416.397V378.939H500.121Z" fill="#EB98A3"/>
<path d="M504.574 416.397H475.774C473.804 416.397 471.915 417.179 470.522 418.572C469.129 419.965 468.347 421.854 468.347 423.824V443.624C468.347 444.599 468.539 445.565 468.912 446.466C469.286 447.367 469.833 448.186 470.522 448.876C471.212 449.565 472.031 450.112 472.932 450.486C473.833 450.859 474.799 451.051 475.774 451.051H504.574C505.549 451.051 506.515 450.859 507.416 450.486C508.317 450.112 509.136 449.565 509.826 448.876C510.515 448.186 511.062 447.367 511.436 446.466C511.809 445.565 512.001 444.599 512.001 443.624V423.824C512.001 421.854 511.218 419.965 509.826 418.572C508.433 417.179 506.544 416.397 504.574 416.397V416.397Z" fill="#D4D2D3"/>
<path d="M36.227 416.397H7.42698C5.45739 416.397 3.56856 417.18 2.17594 418.573C0.783325 419.965 0.000976545 421.854 0.000976563 423.824V443.624C0.000976562 444.599 0.193082 445.565 0.566323 446.466C0.939565 447.367 1.48663 448.186 2.17629 448.876C2.86596 449.565 3.6847 450.112 4.58579 450.486C5.48687 450.859 6.45265 451.051 7.42798 451.051H36.228C37.2033 451.051 38.1691 450.859 39.0702 450.486C39.9713 450.112 40.79 449.565 41.4797 448.876C42.1693 448.186 42.7164 447.367 43.0896 446.466C43.4629 445.565 43.655 444.599 43.655 443.624V423.824C43.6551 422.849 43.4631 421.883 43.0898 420.981C42.7165 420.08 42.1694 419.261 41.4796 418.572C40.7898 417.882 39.9709 417.335 39.0696 416.962C38.1684 416.589 37.2024 416.397 36.227 416.397Z" fill="#D4D2D3"/>
<path d="M429.756 311.706H343.006V180.216H384.757C386.656 180.223 388.503 180.841 390.023 181.979C391.544 183.118 392.657 184.715 393.199 186.536L429.756 311.706Z" fill="#80E2FF"/>
<path d="M369.901 352.088H343.008C340.959 352.088 338.994 351.274 337.545 349.825C336.096 348.376 335.282 346.411 335.282 344.362C335.282 342.313 336.096 340.348 337.545 338.899C338.994 337.45 340.959 336.636 343.008 336.636H369.901C371.95 336.636 373.915 337.45 375.364 338.899C376.813 340.348 377.627 342.313 377.627 344.362C377.627 346.411 376.813 348.376 375.364 349.825C373.915 351.274 371.95 352.088 369.901 352.088Z" fill="#D4D2D3"/>
<path d="M500.125 344.501H468.352V378.943H500.125V344.501Z" fill="#FECE00"/>
<path d="M128.825 498.832C155.213 498.832 176.605 477.44 176.605 451.052C176.605 424.664 155.213 403.272 128.825 403.272C102.437 403.272 81.0449 424.664 81.0449 451.052C81.0449 477.44 102.437 498.832 128.825 498.832Z" fill="#3B484A"/>
<path d="M128.825 475.063C142.086 475.063 152.836 464.313 152.836 451.052C152.836 437.791 142.086 427.041 128.825 427.041C115.564 427.041 104.814 437.791 104.814 451.052C104.814 464.313 115.564 475.063 128.825 475.063Z" fill="#D4D2D3"/>
<path d="M391.748 498.832C418.136 498.832 439.528 477.44 439.528 451.052C439.528 424.664 418.136 403.272 391.748 403.272C365.36 403.272 343.968 424.664 343.968 451.052C343.968 477.44 365.36 498.832 391.748 498.832Z" fill="#3B484A"/>
<path d="M391.748 475.063C405.009 475.063 415.759 464.313 415.759 451.052C415.759 437.791 405.009 427.041 391.748 427.041C378.487 427.041 367.737 437.791 367.737 451.052C367.737 464.313 378.487 475.063 391.748 475.063Z" fill="#D4D2D3"/>
<path d="M267.13 191.628H71.7119V319.39L169.449 337.159L267.188 319.39L267.13 191.628Z" fill="#FA7578"/>
<path d="M120.581 243.429C127.856 248.15 136.343 250.663 145.016 250.663C153.689 250.663 162.176 248.15 169.451 243.429C176.726 248.15 185.213 250.663 193.885 250.663C202.558 250.663 211.045 248.15 218.32 243.429C225.589 248.147 234.068 250.659 242.734 250.663C251.4 250.667 259.882 248.162 267.155 243.451L267.131 191.628H71.7119V243.428C78.9868 248.149 87.4738 250.662 96.1464 250.662C104.819 250.662 113.306 248.149 120.581 243.428V243.429Z" fill="#E0696C"/>
<path d="M100.526 337.158V201.232H238.326L238.361 337.16L100.526 337.158Z" fill="#FECE00"/>
<path d="M238.328 201.232H100.528V250.444C107.679 249.749 114.558 247.342 120.583 243.428C127.858 248.149 136.345 250.662 145.018 250.662C153.691 250.662 162.178 248.149 169.453 243.428C176.728 248.149 185.215 250.662 193.887 250.662C202.56 250.662 211.047 248.149 218.322 243.428C224.338 247.336 231.205 249.74 238.345 250.439L238.328 201.232Z" fill="#E6BB00"/>
<path d="M71.7119 191.628V205.628C71.7119 212.108 74.2863 218.324 78.8688 222.906C83.4512 227.489 89.6664 230.063 96.1469 230.063C102.627 230.063 108.843 227.489 113.425 222.906C118.008 218.324 120.582 212.108 120.582 205.628V191.628H71.7119Z" fill="#EB98A3"/>
<path d="M120.581 191.628V205.628C120.581 212.108 123.155 218.324 127.738 222.906C132.32 227.489 138.535 230.063 145.016 230.063C151.496 230.063 157.712 227.489 162.294 222.906C166.877 218.324 169.451 212.108 169.451 205.628V191.628H120.581Z" fill="#EEECED"/>
<path d="M169.449 191.628V205.628C169.449 208.837 170.081 212.014 171.309 214.979C172.537 217.943 174.337 220.637 176.606 222.906C178.875 225.175 181.569 226.975 184.533 228.203C187.498 229.431 190.675 230.063 193.884 230.063C197.093 230.063 200.27 229.431 203.235 228.203C206.199 226.975 208.893 225.175 211.162 222.906C213.431 220.637 215.231 217.943 216.459 214.979C217.687 212.014 218.319 208.837 218.319 205.628V191.628H169.449Z" fill="#EB98A3"/>
<path d="M218.319 191.628V205.628C218.319 212.108 220.893 218.324 225.476 222.906C230.058 227.489 236.273 230.063 242.754 230.063C249.235 230.063 255.45 227.489 260.032 222.906C264.615 218.324 267.189 212.108 267.189 205.628V191.628H218.319Z" fill="#EEECED"/>
<path d="M389.658 13H64.883C59.8598 13 55.0423 14.9955 51.4904 18.5474C47.9385 22.0993 45.943 26.9168 45.943 31.94V98.632C45.943 103.655 47.9385 108.473 51.4904 112.025C55.0423 115.577 59.8598 117.572 64.883 117.572H389.658C394.681 117.572 399.499 115.577 403.051 112.025C406.603 108.473 408.598 103.655 408.598 98.632V31.94C408.598 26.9168 406.603 22.0993 403.051 18.5474C399.499 14.9955 394.681 13 389.658 13Z" fill="#EB98A3"/>
<path d="M384.582 37.0122H69.954V93.5602H384.582V37.0122Z" fill="#EEECED"/>
<path d="M94.678 37.0122H69.954V93.5602H94.678V37.0122Z" fill="#D4D2D3"/>
<path d="M267.188 319.39H71.712C65.5353 319.39 59.6117 321.844 55.2442 326.211C50.8766 330.579 48.423 336.503 48.423 342.679V354.927H290.478V342.679C290.478 336.502 288.024 330.579 283.656 326.211C279.288 321.844 273.365 319.39 267.188 319.39V319.39Z" fill="#EB98A3"/>
</svg>
