<svg width="512" height="512" viewBox="0 0 512 512" fill="none" xmlns="http://www.w3.org/2000/svg">
<path d="M369.814 181.736H103.147C99.3136 181.736 95.567 180.594 92.3846 178.457C89.2021 176.32 86.7279 173.284 85.2771 169.736V169.736C83.2511 164.783 79.797 160.546 75.3546 157.564C70.9122 154.581 65.6827 152.989 60.3321 152.989H35.6521C32.1246 152.989 28.6443 153.798 25.4788 155.355C22.3133 156.911 19.5471 159.173 17.3931 161.966C15.2391 164.76 13.7546 168.01 13.0541 171.467C12.3535 174.924 12.4554 178.496 13.3521 181.908L18.0581 199.815C21.5986 213.287 29.5014 225.207 40.5319 233.713C51.5624 242.219 65.0996 246.833 79.0291 246.833H158.479C169.526 246.833 180.198 250.834 188.522 258.095C196.846 265.357 202.258 275.388 203.757 286.333L206.957 309.71C209.601 329.035 219.156 346.749 233.853 359.573C248.55 372.396 267.395 379.463 286.9 379.464H442.52C456.465 379.464 470.025 374.886 481.117 366.434C492.209 357.982 500.22 346.123 503.92 332.678C507.481 319.738 507.713 306.108 504.594 293.055C501.475 280.002 495.106 267.949 486.08 258.017L448.33 216.478C438.386 205.536 426.264 196.793 412.743 190.81C399.222 184.827 384.6 181.736 369.814 181.736V181.736Z" fill="#DDEFF5"/>
<path opacity="0.15" d="M442.524 379.47C456.877 379.474 470.809 374.62 482.053 365.7C280.921 369.9 256.084 235.881 262.509 181.741H103.147C99.3136 181.741 95.567 180.6 92.3846 178.463C89.2021 176.325 86.7279 173.289 85.2771 169.741V169.741C83.2511 164.789 79.797 160.552 75.3546 157.569C70.9122 154.587 65.6827 152.994 60.3321 152.994H35.6521C32.1246 152.994 28.6443 153.804 25.4788 155.36C22.3133 156.916 19.5471 159.178 17.3931 161.972C15.2391 164.765 13.7546 168.015 13.0541 171.473C12.3535 174.93 12.4554 178.502 13.3521 181.913L18.0581 199.82C21.5986 213.292 29.5014 225.212 40.5319 233.718C51.5624 242.225 65.0996 246.838 79.0291 246.838H158.479C169.526 246.838 180.198 250.839 188.522 258.101C196.846 265.363 202.258 275.394 203.757 286.338L206.957 309.715C209.602 329.04 219.157 346.752 233.854 359.575C248.551 372.398 267.395 379.463 286.9 379.464L442.524 379.47Z" fill="#003A63"/>
<path d="M182.956 181.736H103.147C99.3136 181.736 95.567 180.594 92.3846 178.457C89.2021 176.32 86.7279 173.284 85.2771 169.736V169.736C83.2511 164.783 79.797 160.546 75.3546 157.564C70.9122 154.581 65.6827 152.989 60.3321 152.989H35.6521C32.1246 152.989 28.6443 153.798 25.4788 155.355C22.3133 156.911 19.5471 159.173 17.3931 161.966C15.2391 164.76 13.7546 168.01 13.0541 171.467C12.3535 174.924 12.4554 178.496 13.3521 181.908L18.0581 199.815C21.5986 213.287 29.5014 225.207 40.5319 233.713C51.5624 242.219 65.0996 246.833 79.0291 246.833H117.856L182.956 181.736Z" fill="#7397DA"/>
<path d="M371.884 238.492L375.584 249.892C379.895 263.194 388.308 274.789 399.617 283.014C410.926 291.238 424.549 295.668 438.532 295.67H505.173C502.317 281.63 495.722 268.621 486.084 258.019L448.334 216.48C447.534 215.604 446.725 214.749 445.903 213.903H389.763C386.799 213.904 383.877 214.606 381.235 215.952C378.594 217.298 376.309 219.249 374.565 221.647C372.822 224.044 371.67 226.82 371.204 229.748C370.738 232.675 370.971 235.671 371.884 238.492V238.492Z" fill="#A8D1EC"/>
<path d="M255.579 112.07H101.3C90.7117 112.07 80.2979 109.372 71.042 104.23C61.7861 99.0871 53.9935 91.6705 48.4002 82.68V82.68C47.1251 80.631 46.4213 78.2783 46.3616 75.8657C46.3019 73.4531 46.8885 71.0684 48.0607 68.9588C49.2329 66.8493 50.948 65.0916 53.0281 63.8681C55.1083 62.6445 57.4778 61.9995 59.8912 62H217.678C227.73 62 237.37 65.993 244.478 73.1007C251.585 80.2083 255.578 89.8483 255.578 99.9V112.07H255.579Z" fill="#C7C9CC"/>
<path d="M15.9 259.205C12.7557 259.204 9.68205 258.272 7.06774 256.525C4.45342 254.778 2.41579 252.295 1.21243 249.39C0.00908244 246.485 -0.305952 243.288 0.307158 240.204C0.920269 237.12 2.434 234.288 4.65697 232.064L88.134 148.587C89.6021 147.074 91.3564 145.869 93.2947 145.04C95.233 144.212 97.3168 143.777 99.4247 143.761C101.533 143.745 103.623 144.149 105.573 144.948C107.524 145.748 109.296 146.927 110.786 148.417C112.277 149.908 113.456 151.68 114.256 153.631C115.055 155.581 115.459 157.671 115.443 159.779C115.427 161.887 114.993 163.97 114.164 165.909C113.336 167.847 112.131 169.602 110.618 171.07L27.141 254.548C25.6665 256.026 23.9144 257.199 21.9853 257.998C20.0561 258.797 17.9881 259.207 15.9 259.205V259.205Z" fill="#495059"/>
<path d="M451.267 112.07C453.68 112.07 456.049 111.424 458.129 110.201C460.209 108.977 461.923 107.219 463.095 105.11C464.267 103 464.853 100.616 464.794 98.2037C464.734 95.7914 464.031 93.4389 462.756 91.39V91.39C457.162 82.3998 449.37 74.9836 440.114 69.8416C430.858 64.6996 420.444 62.0014 409.856 62.002H293.481C283.429 62.002 273.789 65.995 266.682 73.1026C259.574 80.2102 255.581 89.8502 255.581 99.902V112.07H451.267Z" fill="#C7C9CC"/>
<path d="M255.579 62C249.217 62 243.115 64.5273 238.617 69.0259C234.118 73.5245 231.591 79.626 231.591 85.988V181.736H279.567V85.988C279.567 79.626 277.04 73.5245 272.541 69.0259C268.042 64.5273 261.941 62 255.579 62V62Z" fill="#495059"/>
<path d="M354.629 379.47H326.25V419.68H354.629V379.47Z" fill="#495059"/>
<path opacity="0.15" d="M354.629 379.47H326.25V399.58H354.629V379.47Z" fill="black"/>
<path d="M434.465 450.34H231.681C227.615 450.34 223.716 448.725 220.84 445.85C217.965 442.974 216.35 439.075 216.35 435.009C216.35 430.943 217.965 427.043 220.84 424.168C223.716 421.293 227.615 419.678 231.681 419.678H434.466C441.298 419.697 448.066 418.36 454.378 415.745C460.691 413.131 466.421 409.29 471.239 404.446L485.828 389.857C487.252 388.433 488.942 387.304 490.802 386.533C492.662 385.763 494.655 385.366 496.669 385.366C498.682 385.366 500.676 385.763 502.536 386.533C504.396 387.304 506.086 388.433 507.51 389.856C508.933 391.28 510.063 392.97 510.833 394.83C511.604 396.69 512 398.684 512 400.697C512 402.71 511.604 404.704 510.833 406.564C510.063 408.424 508.934 410.114 507.51 411.538L492.921 426.128C485.262 433.828 476.152 439.933 466.118 444.089C456.084 448.245 445.326 450.369 434.465 450.34Z" fill="#495059"/>
<path d="M57.6372 217.465C66.4158 217.465 73.5322 210.348 73.5322 201.57C73.5322 192.791 66.4158 185.675 57.6372 185.675C48.8586 185.675 41.7422 192.791 41.7422 201.57C41.7422 210.348 48.8586 217.465 57.6372 217.465Z" fill="#C7C9CC"/>
</svg>
