<svg width="512" height="512" viewBox="0 0 512 512" fill="none" xmlns="http://www.w3.org/2000/svg">
<path d="M290.925 366.335C304.273 366.335 310.24 362.241 312.712 356.035C328.052 317.491 421.544 275.755 421.544 165.276C421.544 121.443 404.131 79.4055 373.137 48.411C342.142 17.4164 300.105 0.00390625 256.272 0.00390625C212.439 0.00390625 170.402 17.4164 139.407 48.411C108.413 79.4055 91 121.443 91 165.276C91 275.755 184.492 317.491 199.832 356.035C201.031 359.069 203.113 361.674 205.81 363.51C208.506 365.347 211.692 366.331 214.955 366.335H290.925Z" fill="#95D4E9"/>
<path d="M313.355 443.389H199.189V497.438C199.189 501.3 200.724 505.004 203.455 507.735C206.186 510.466 209.89 512 213.752 512H298.792C302.654 512 306.358 510.466 309.09 507.735C311.821 505.004 313.355 501.3 313.355 497.437V443.389Z" fill="#A2735E"/>
<path opacity="0.1" d="M199.189 486.092V497.438C199.189 501.3 200.724 505.004 203.455 507.735C206.186 510.466 209.89 512 213.752 512H298.792C302.654 512 306.358 510.465 309.09 507.734C311.821 505.003 313.355 501.299 313.355 497.437V486.092H199.189Z" fill="black"/>
<path d="M323.077 443.389H189.471C188.434 443.389 187.406 443.184 186.448 442.787C185.489 442.39 184.618 441.809 183.885 441.075C183.151 440.341 182.569 439.47 182.172 438.512C181.775 437.554 181.571 436.526 181.571 435.489V419.159C181.571 418.121 181.775 417.094 182.172 416.136C182.569 415.177 183.151 414.306 183.885 413.573C184.618 412.839 185.489 412.257 186.448 411.86C187.406 411.463 188.434 411.259 189.471 411.259H323.081C325.176 411.259 327.186 412.091 328.667 413.573C330.149 415.054 330.981 417.064 330.981 419.159V435.489C330.981 436.527 330.777 437.554 330.379 438.513C329.982 439.472 329.4 440.343 328.666 441.076C327.932 441.81 327.06 442.392 326.101 442.789C325.143 443.185 324.115 443.389 323.077 443.389V443.389Z" fill="#FFCE71"/>
<path d="M228.292 366.33H213.292V411.246H228.292V366.33Z" fill="#5F75A1"/>
<path d="M299.252 366.33H284.252V411.246H299.252V366.33Z" fill="#5F75A1"/>
<path d="M307.253 8.02601C274.108 -2.67534 238.436 -2.67534 205.291 8.02601C150.142 57.026 135.534 140.091 176.182 210.232C216.951 280.581 236.294 314.573 236.294 366.332H276.249C276.249 314.57 295.592 280.578 336.361 210.232C377.01 140.091 362.402 57.023 307.253 8.02601Z" fill="#6CB6DE"/>
<path opacity="0.1" d="M161.992 242.256C98.53 169.611 120.655 83.2371 160.163 30.8091C138.755 46.0899 121.309 66.2655 109.279 89.6549C97.2479 113.044 90.981 138.97 91 165.272C91 275.751 184.492 317.487 199.832 356.031C201.031 359.066 203.113 361.67 205.81 363.507C208.506 365.343 211.692 366.327 214.955 366.331H236.295C236.294 339.617 231.59 321.925 161.992 242.256Z" fill="black"/>
<path opacity="0.1" d="M227.581 411.251H189.466C187.371 411.251 185.362 412.083 183.88 413.565C182.398 415.046 181.566 417.056 181.566 419.151V435.481C181.566 437.576 182.398 439.586 183.88 441.067C185.362 442.549 187.371 443.381 189.466 443.381H227.866C220.271 436.168 221.171 416.3 227.581 411.251Z" fill="black"/>
<path opacity="0.1" d="M313.355 443.389H199.189V497.438C199.189 501.3 200.724 505.004 203.455 507.735C206.186 510.466 209.89 512 213.752 512H242.385C230.885 498.632 228.469 473.334 228.057 455.138H313.357V443.388L313.355 443.389Z" fill="black"/>
</svg>
