<svg width="513" height="512" viewBox="0 0 513 512" fill="none" xmlns="http://www.w3.org/2000/svg">
<path d="M424.874 360.55H32.643C24.2507 360.55 16.2021 357.216 10.268 351.281C4.33377 345.347 1 337.298 1 328.906L1 168.806C1 154.27 6.7744 140.329 17.0529 130.051C27.3314 119.772 41.272 113.998 55.808 113.998H350.966C366.583 113.998 381.798 118.95 394.423 128.143C407.048 137.336 416.432 150.296 421.227 165.159L448.773 250.55C453.904 266.456 456.517 283.066 456.517 299.779V328.903C456.517 333.059 455.699 337.174 454.109 341.013C452.519 344.853 450.188 348.342 447.25 351.28C444.312 354.219 440.823 356.55 436.984 358.141C433.145 359.731 429.03 360.55 424.874 360.55Z" fill="#F284B9"/>
<path opacity="0.1" d="M1 320.136V328.906C1 337.298 4.33381 345.347 10.268 351.281C16.2022 357.215 24.2508 360.549 32.643 360.549H424.874C433.266 360.549 441.315 357.215 447.249 351.281C453.183 345.347 456.517 337.298 456.517 328.906V320.136H1Z" fill="black"/>
<path d="M269.857 292.37H40.3C38.648 292.37 37.0636 291.714 35.8954 290.545C34.7273 289.377 34.071 287.793 34.071 286.141V272.316C34.071 270.664 34.7273 269.08 35.8954 267.911C37.0636 266.743 38.648 266.087 40.3 266.087H286.6C287.273 266.087 287.932 266.275 288.504 266.63C289.076 266.985 289.536 267.493 289.834 268.097C290.132 268.7 290.256 269.375 290.19 270.045C290.125 270.715 289.873 271.353 289.464 271.887L276.164 289.258C275.422 290.226 274.467 291.01 273.374 291.55C272.28 292.09 271.077 292.37 269.857 292.37Z" fill="#FFCE71"/>
<path d="M364.31 266.087H329.637C328.418 266.088 327.216 266.369 326.124 266.908C325.032 267.448 324.078 268.232 323.337 269.199L310.037 286.57C309.628 287.104 309.376 287.742 309.311 288.412C309.245 289.082 309.369 289.757 309.667 290.36C309.964 290.963 310.425 291.471 310.997 291.827C311.568 292.182 312.228 292.37 312.901 292.37H364.31C365.962 292.37 367.546 291.714 368.714 290.545C369.883 289.377 370.539 287.793 370.539 286.141V272.316C370.539 271.498 370.378 270.688 370.065 269.932C369.752 269.176 369.293 268.489 368.715 267.911C368.136 267.333 367.45 266.874 366.694 266.561C365.938 266.248 365.128 266.087 364.31 266.087Z" fill="#FFCE71"/>
<path d="M426.772 182.35H338.32C334.53 182.35 330.894 183.856 328.214 186.536C325.534 189.216 324.028 192.852 324.028 196.642V221.922C324.028 225.713 325.534 229.348 328.214 232.028C330.894 234.708 334.53 236.214 338.32 236.214H444.147L426.772 182.35Z" fill="#95D4E9"/>
<path d="M191.317 236.21H259.486C263.276 236.21 266.91 234.705 269.591 232.025C272.271 229.346 273.777 225.712 273.778 221.922V196.641C273.778 192.851 272.272 189.215 269.592 186.535C266.912 183.855 263.276 182.349 259.486 182.349H191.317C189.44 182.349 187.582 182.719 185.848 183.437C184.114 184.155 182.538 185.208 181.211 186.535C179.884 187.862 178.831 189.438 178.113 191.172C177.395 192.906 177.025 194.764 177.025 196.641V221.922C177.026 225.712 178.532 229.346 181.212 232.025C183.893 234.705 187.527 236.21 191.317 236.21Z" fill="#95D4E9"/>
<path d="M48.363 236.21H116.532C120.322 236.21 123.956 234.705 126.637 232.025C129.317 229.346 130.823 225.712 130.824 221.922V196.641C130.824 192.851 129.318 189.215 126.638 186.535C123.958 183.855 120.322 182.349 116.532 182.349H48.363C44.5725 182.349 40.9373 183.855 38.257 186.535C35.5767 189.215 34.071 192.851 34.071 196.641V221.922C34.072 225.712 35.5783 229.346 38.2584 232.025C40.9386 234.705 44.5732 236.21 48.363 236.21V236.21Z" fill="#95D4E9"/>
<path d="M491.207 204.861C489.218 204.861 487.31 204.071 485.904 202.664C484.497 201.258 483.707 199.35 483.707 197.361V184.88C483.7 179.403 481.521 174.152 477.647 170.279C473.774 166.407 468.522 164.228 463.045 164.222H381.991C380.002 164.222 378.094 163.432 376.688 162.025C375.281 160.619 374.491 158.711 374.491 156.722C374.491 154.733 375.281 152.825 376.688 151.419C378.094 150.012 380.002 149.222 381.991 149.222H463.045C472.5 149.232 481.565 152.993 488.251 159.678C494.936 166.364 498.697 175.429 498.707 184.884V197.365C498.706 199.354 497.915 201.26 496.509 202.666C495.102 204.072 493.195 204.861 491.207 204.861V204.861Z" fill="#95D4E9"/>
<path d="M492.874 257.992H479.99C477.185 257.992 474.495 256.878 472.512 254.895C470.528 252.911 469.414 250.221 469.414 247.416V192.922C469.414 190.117 470.528 187.427 472.512 185.444C474.495 183.46 477.185 182.346 479.99 182.346H492.873C495.516 182.346 498.134 182.867 500.576 183.878C503.018 184.89 505.237 186.373 507.106 188.242C508.975 190.111 510.458 192.331 511.469 194.773C512.48 197.215 513.001 199.833 513 202.476V237.866C513 240.509 512.48 243.126 511.468 245.568C510.457 248.01 508.974 250.229 507.106 252.098C505.237 253.967 503.018 255.449 500.576 256.46C498.134 257.472 495.517 257.992 492.874 257.992V257.992Z" fill="#5F75A1"/>
<path opacity="0.1" d="M101.355 114.001H55.808C48.6106 114.001 41.4836 115.418 34.834 118.173C28.1844 120.927 22.1424 124.964 17.053 130.053C11.9635 135.143 7.9264 141.184 5.17203 147.834C2.41766 154.484 1 161.611 1 168.808L1 328.908C1 333.063 1.81847 337.178 3.40868 341.017C4.99889 344.856 7.3297 348.345 10.268 351.283C13.2063 354.221 16.6946 356.552 20.5337 358.142C24.3729 359.732 28.4876 360.551 32.643 360.551H154.824C80.335 297.397 87.944 156.231 101.355 114.001Z" fill="black"/>
<path d="M72.37 398.842C93.517 398.842 110.66 381.699 110.66 360.552C110.66 339.405 93.517 322.262 72.37 322.262C51.223 322.262 34.08 339.405 34.08 360.552C34.08 381.699 51.223 398.842 72.37 398.842Z" fill="#5F75A1"/>
<path d="M72.37 375.35C80.5427 375.35 87.168 368.725 87.168 360.552C87.168 352.379 80.5427 345.754 72.37 345.754C64.1973 345.754 57.572 352.379 57.572 360.552C57.572 368.725 64.1973 375.35 72.37 375.35Z" fill="white"/>
<path d="M332.2 398.842C353.347 398.842 370.49 381.699 370.49 360.552C370.49 339.405 353.347 322.262 332.2 322.262C311.053 322.262 293.91 339.405 293.91 360.552C293.91 381.699 311.053 398.842 332.2 398.842Z" fill="#5F75A1"/>
<path d="M332.2 375.35C340.373 375.35 346.998 368.725 346.998 360.552C346.998 352.379 340.373 345.754 332.2 345.754C324.027 345.754 317.402 352.379 317.402 360.552C317.402 368.725 324.027 375.35 332.2 375.35Z" fill="white"/>
<path opacity="0.1" d="M483.835 182.35H479.99C477.186 182.35 474.496 183.464 472.513 185.446C470.53 187.429 469.415 190.118 469.414 192.922V247.412C469.414 248.801 469.687 250.177 470.218 251.461C470.749 252.744 471.528 253.911 472.51 254.893C473.492 255.876 474.658 256.655 475.942 257.187C477.225 257.718 478.601 257.992 479.99 257.992H492.874C496.641 257.992 500.332 256.928 503.521 254.923C481.9 246.949 481.091 197.602 483.835 182.35Z" fill="black"/>
<path d="M148.96 398.842C170.107 398.842 187.25 381.699 187.25 360.552C187.25 339.405 170.107 322.262 148.96 322.262C127.813 322.262 110.67 339.405 110.67 360.552C110.67 381.699 127.813 398.842 148.96 398.842Z" fill="#5F75A1"/>
<path d="M148.96 375.35C157.133 375.35 163.758 368.725 163.758 360.552C163.758 352.379 157.133 345.754 148.96 345.754C140.787 345.754 134.162 352.379 134.162 360.552C134.162 368.725 140.787 375.35 148.96 375.35Z" fill="white"/>
<path d="M454.1 272.077H434.4C431.57 272.077 428.856 273.201 426.855 275.202C424.854 277.203 423.73 279.917 423.73 282.747V309.466C423.73 312.296 424.854 315.01 426.855 317.011C428.856 319.012 431.57 320.136 434.4 320.136H456.51V299.782C456.51 290.495 455.704 281.225 454.1 272.077V272.077Z" fill="#FFCE71"/>
<path d="M423.737 300.056V309.466C423.737 310.867 424.013 312.255 424.549 313.549C425.085 314.844 425.871 316.02 426.862 317.011C427.853 318.002 429.029 318.788 430.324 319.324C431.618 319.86 433.006 320.136 434.407 320.136H456.517V300.056H423.737Z" fill="#6CB6DE"/>
</svg>
