<svg width="513" height="512" viewBox="0 0 513 512" fill="none" xmlns="http://www.w3.org/2000/svg">
<path d="M173.941 201.025L135.381 220.969L91.3119 152.731C89.0404 149.214 86.0692 146.201 82.5834 143.882C79.0976 141.562 75.1718 139.985 71.0502 139.248C66.9285 138.511 62.6994 138.631 58.6258 139.599C54.5522 140.567 50.7215 142.363 47.3719 144.875V144.875C43.6513 147.665 41.1272 151.763 40.3088 156.341C39.4903 160.919 40.4385 165.637 42.9619 169.544L95.4959 250.887V293.436H209.343V219.641L173.941 201.025Z" fill="#454F58"/>
<path d="M259.664 234.816L185.53 254.545C180.812 260.108 176.729 266.178 173.354 272.645L154.267 289.717L219.814 312.717L302.842 289.717L326.842 254.545L259.664 234.816Z" fill="#BEBFC0"/>
<path d="M363.947 152.141C267.682 121.241 197.211 156.478 173.947 201.02L209.347 251.546L330.247 249.555L399.309 190.223L363.947 152.141Z" fill="#69D283"/>
<path d="M330.246 347.103L359.454 354.522L476.403 347.922L512.003 312.327C501.798 294.754 486.384 280.787 467.895 272.356C449.405 263.926 428.752 261.449 408.793 265.268C388.834 269.088 370.555 279.014 356.484 293.675C342.413 308.337 333.246 327.008 330.249 347.107L330.246 347.103Z" fill="#69D283"/>
<path d="M303.417 30.0049H246.739C244.432 29.9802 242.142 30.4133 240.004 31.2792C237.865 32.145 235.919 33.4265 234.279 35.0493C232.638 36.6721 231.336 38.6042 230.447 40.7336C229.559 42.863 229.101 45.1475 229.101 47.4549C229.101 49.7623 229.559 52.0468 230.447 54.1762C231.336 56.3056 232.638 58.2377 234.279 59.8605C235.919 61.4833 237.865 62.7648 240.004 63.6306C242.142 64.4965 244.432 64.9296 246.739 64.9049H303.417L318.202 47.4539L303.417 30.0049Z" fill="#454F58"/>
<path d="M430.231 83.9507C417.389 85.2354 405.483 91.2458 396.823 100.815C388.163 110.385 383.368 122.83 383.368 135.736C383.368 148.642 388.163 161.088 396.823 170.657C405.483 180.227 417.389 186.237 430.231 187.522L446.77 135.737L430.231 83.9507Z" fill="#A9ABAC"/>
<path d="M406.626 265.727C389.992 269.314 374.581 277.176 361.911 288.535L376.023 353.588L423.211 350.923L406.626 265.727Z" fill="#00B617"/>
<path d="M427.236 429.719C464.87 429.719 495.379 399.21 495.379 361.576C495.379 323.942 464.87 293.433 427.236 293.433C389.602 293.433 359.093 323.942 359.093 361.576C359.093 399.21 389.602 429.719 427.236 429.719Z" fill="#454F58"/>
<path d="M427.236 398.141C447.43 398.141 463.801 381.77 463.801 361.576C463.801 341.381 447.43 325.011 427.236 325.011C407.042 325.011 390.671 341.381 390.671 361.576C390.671 381.77 407.042 398.141 427.236 398.141Z" fill="#ECECED"/>
<path d="M302.844 289.714L284.963 315.914L237.763 354.527H101.674V336.765L154.268 289.714H302.844Z" fill="#A9ABAC"/>
<path d="M101.672 429.72C143.371 429.72 177.175 395.916 177.175 354.217C177.175 312.518 143.371 278.714 101.672 278.714C59.9728 278.714 26.1689 312.518 26.1689 354.217C26.1689 395.916 59.9728 429.72 101.672 429.72Z" fill="#454F58"/>
<path d="M101.672 400.468C127.216 400.468 147.923 379.761 147.923 354.217C147.923 328.673 127.216 307.966 101.672 307.966C76.1282 307.966 55.4209 328.673 55.4209 354.217C55.4209 379.761 76.1282 400.468 101.672 400.468Z" fill="#ECECED"/>
<path d="M333.796 219.362L330.246 249.562L326.846 254.548H185.529C234.523 197.004 333.796 219.362 333.796 219.362Z" fill="#A9ABAC"/>
<path d="M399.31 190.227L363.947 152.145C353.003 148.611 341.833 145.823 330.512 143.801L349.812 232.752L399.31 190.227Z" fill="#00B617"/>
<path d="M399.309 190.226L288.076 338.403C280.3 348.709 270.244 357.075 258.696 362.847C247.147 368.618 234.419 371.638 221.509 371.669H101.667C97.0713 371.62 92.6806 369.76 89.4482 366.492C86.2159 363.225 84.4028 358.815 84.4028 354.219C84.4028 349.623 86.2159 345.213 89.4482 341.945C92.6806 338.678 97.0713 336.818 101.667 336.769H221.51C229.007 336.751 236.399 334.997 243.105 331.646C249.812 328.294 255.652 323.435 260.167 317.45L371.396 169.274L399.309 190.226Z" fill="#BEBFC0"/>
<path d="M399.309 190.227L371.397 169.273L343.965 205.815L353.75 250.915L399.309 190.227Z" fill="#A9ABAC"/>
<path d="M430.936 378.629C429.714 378.894 428.467 379.028 427.216 379.029C423.234 379.024 419.373 377.657 416.275 375.155C413.177 372.654 411.027 369.168 410.183 365.277L353.84 105.56C351.293 94.0696 344.915 83.7868 335.753 76.3992C326.591 69.0117 315.19 64.9585 303.421 64.9049V30.0049C323.175 30.0095 342.333 36.7735 357.712 49.1729C373.09 61.5724 383.763 78.8606 387.956 98.1649L444.289 357.876C444.776 360.115 444.816 362.429 444.409 364.684C444.001 366.939 443.153 369.092 441.913 371.019C440.673 372.947 439.065 374.611 437.182 375.916C435.298 377.222 433.176 378.144 430.936 378.629V378.629Z" fill="#BEBFC0"/>
<path d="M463.304 95.3489V176.114C463.302 179.207 462.073 182.174 459.885 184.361C457.697 186.548 454.731 187.777 451.637 187.778H435.404C433.659 187.778 431.933 187.688 430.228 187.518V83.9509C431.928 83.7809 433.658 83.6909 435.404 83.6909H451.639C453.17 83.6904 454.687 83.9915 456.102 84.5771C457.517 85.1627 458.803 86.0213 459.886 87.1039C460.969 88.1864 461.829 89.4718 462.415 90.8864C463.002 92.3011 463.304 93.8175 463.304 95.3489Z" fill="#FFD46B"/>
<path d="M203.343 315.913C195.556 295.242 181.654 277.436 163.489 264.867C145.324 252.299 123.76 245.566 101.672 245.566C79.5827 245.566 58.0186 252.299 39.8538 264.867C21.6891 277.436 7.7867 295.242 0 315.913H203.343Z" fill="#69D283"/>
<path d="M117.124 246.682C92.6341 243.143 67.6702 248.078 46.3689 260.669C25.0676 273.26 8.70765 292.751 0 315.913H30.905C37.7929 297.731 49.4202 281.722 64.5809 269.549C79.7415 257.375 97.8832 249.48 117.124 246.682V246.682Z" fill="#00B617"/>
</svg>
