<svg width="512" height="512" viewBox="0 0 512 512" fill="none" xmlns="http://www.w3.org/2000/svg">
<path d="M410.669 229.064L369.256 149.322C366.324 143.676 361.898 138.943 356.461 135.641C351.024 132.338 344.784 130.591 338.422 130.591H173.578C167.216 130.591 160.976 132.338 155.539 135.641C150.102 138.943 145.676 143.676 142.744 149.322L101.331 229.064C99.9597 231.705 97.8895 233.918 95.3464 235.463C92.8032 237.008 89.8846 237.825 86.909 237.825H42.182C36.1221 237.825 30.3103 240.232 26.0253 244.517C21.7403 248.802 19.333 254.614 19.333 260.674V369.316H492.668V260.675C492.668 254.615 490.261 248.803 485.976 244.518C481.691 240.233 475.879 237.826 469.819 237.826H425.09C422.115 237.825 419.196 237.008 416.653 235.463C414.111 233.918 412.041 231.704 410.669 229.064Z" fill="#7397DA"/>
<path d="M492.663 297.375H19.333V369.322H492.663V297.375Z" fill="#DDEFF5"/>
<path d="M305.558 85H267.267C264.375 85.0004 261.549 85.8719 259.159 87.5009C256.769 89.1299 254.925 91.441 253.867 94.133L239.542 130.591H333.285L318.959 94.133C317.901 91.4408 316.057 89.1297 313.666 87.5006C311.276 85.8716 308.451 85.0002 305.558 85V85Z" fill="#E68392"/>
<path d="M375.254 160.871H289.441C287.807 160.871 286.189 161.193 284.679 161.819C283.17 162.445 281.798 163.361 280.643 164.517C279.488 165.673 278.571 167.044 277.946 168.554C277.321 170.064 277 171.682 277 173.316V216.616C277 219.916 278.311 223.081 280.644 225.415C282.978 227.748 286.143 229.059 289.443 229.059H410.668L375.254 160.871Z" fill="#DDEFF5"/>
<path d="M222.559 160.871H136.746L101.331 229.063H222.558C224.192 229.063 225.811 228.741 227.32 228.115C228.83 227.49 230.202 226.573 231.357 225.417C232.513 224.261 233.429 222.889 234.054 221.379C234.679 219.869 235.001 218.25 235 216.616V173.316C235 171.682 234.679 170.064 234.054 168.554C233.429 167.044 232.513 165.672 231.357 164.517C230.202 163.361 228.83 162.444 227.321 161.819C225.811 161.193 224.193 160.871 222.559 160.871V160.871Z" fill="#DDEFF5"/>
<path d="M352.234 278.107H324.184C322.195 278.107 320.287 277.317 318.881 275.91C317.474 274.504 316.684 272.596 316.684 270.607C316.684 268.618 317.474 266.71 318.881 265.304C320.287 263.897 322.195 263.107 324.184 263.107H352.234C354.223 263.107 356.131 263.897 357.537 265.304C358.944 266.71 359.734 268.618 359.734 270.607C359.734 272.596 358.944 274.504 357.537 275.91C356.131 277.317 354.223 278.107 352.234 278.107Z" fill="#495059"/>
<path opacity="0.15" d="M492.667 263.107H451.673C449.684 263.107 447.776 263.897 446.37 265.304C444.963 266.71 444.173 268.618 444.173 270.607C444.173 272.596 444.963 274.504 446.37 275.91C447.776 277.317 449.684 278.107 451.673 278.107H492.667V263.107Z" fill="#003A63"/>
<path opacity="0.15" d="M217.327 130.59H173.578C167.216 130.59 160.976 132.337 155.539 135.64C150.102 138.943 145.676 143.675 142.744 149.321L101.331 229.063C99.9597 231.704 97.8895 233.917 95.3464 235.462C92.8032 237.007 89.8846 237.824 86.909 237.824H42.182C36.1221 237.824 30.3103 240.231 26.0253 244.516C21.7403 248.801 19.333 254.613 19.333 260.673V369.316H347.248C211.271 320.276 204.434 196.636 217.327 130.59Z" fill="#003A63"/>
<path d="M253.178 328.736L236.054 334.825C234.765 335.283 233.383 335.421 232.029 335.225C230.675 335.03 229.389 334.507 228.282 333.703C227.176 332.899 226.281 331.838 225.677 330.61C225.073 329.383 224.776 328.027 224.814 326.659L225.314 308.492C225.367 306.556 224.751 304.66 223.57 303.125L212.487 288.725C211.653 287.641 211.095 286.37 210.863 285.021C210.63 283.673 210.73 282.289 211.152 280.988C211.575 279.687 212.308 278.508 213.289 277.554C214.269 276.6 215.468 275.899 216.78 275.512L234.212 270.373C236.07 269.825 237.682 268.654 238.777 267.056L249.051 252.065C249.824 250.937 250.861 250.013 252.071 249.376C253.282 248.738 254.629 248.404 255.997 248.404C257.365 248.404 258.713 248.738 259.923 249.376C261.134 250.013 262.17 250.937 262.944 252.065L273.218 267.056C274.313 268.654 275.925 269.825 277.783 270.373L295.215 275.512C296.527 275.899 297.725 276.6 298.706 277.554C299.687 278.508 300.42 279.686 300.843 280.987C301.266 282.289 301.365 283.673 301.132 285.021C300.9 286.37 300.342 287.641 299.508 288.725L288.425 303.125C287.244 304.66 286.628 306.556 286.681 308.492L287.181 326.659C287.218 328.027 286.922 329.383 286.318 330.61C285.713 331.838 284.819 332.899 283.712 333.703C282.605 334.507 281.319 335.03 279.965 335.225C278.611 335.421 277.23 335.283 275.941 334.825L258.817 328.736C256.993 328.086 255.001 328.086 253.178 328.736Z" fill="#F1C372"/>
<path opacity="0.15" d="M223.571 303.125C224.752 304.66 225.368 306.556 225.315 308.492L224.815 326.659C224.777 328.027 225.073 329.383 225.678 330.61C226.282 331.838 227.176 332.9 228.283 333.704C229.39 334.508 230.676 335.03 232.03 335.226C233.384 335.421 234.766 335.284 236.055 334.825L253.179 328.736C255.004 328.087 256.997 328.087 258.822 328.736L275.946 334.825C277.094 335.238 278.318 335.394 279.533 335.283C280.747 335.171 281.923 334.794 282.976 334.179C261.575 317.191 244.357 295.519 232.647 270.832L216.783 275.508C215.471 275.895 214.272 276.596 213.292 277.55C212.311 278.504 211.578 279.682 211.155 280.983C210.732 282.285 210.633 283.669 210.865 285.017C211.098 286.366 211.656 287.637 212.49 288.721L223.571 303.125Z" fill="#8D4330"/>
<path d="M477.68 297.374H492.667V342.274H463.314V311.741C463.314 309.854 463.685 307.986 464.407 306.243C465.129 304.5 466.187 302.916 467.521 301.582C468.855 300.248 470.439 299.19 472.182 298.468C473.925 297.746 475.793 297.374 477.68 297.374V297.374Z" fill="#F1C372"/>
<path d="M34.319 297.374H19.333V342.274H48.686V311.741C48.686 309.854 48.3144 307.986 47.5924 306.243C46.8704 304.5 45.8121 302.916 44.478 301.582C43.1439 300.248 41.5601 299.19 39.817 298.468C38.0739 297.746 36.2057 297.374 34.319 297.374V297.374Z" fill="#F1C372"/>
<path d="M136.23 427.232C168.079 427.232 193.897 401.414 193.897 369.565C193.897 337.716 168.079 311.898 136.23 311.898C104.381 311.898 78.563 337.716 78.563 369.565C78.563 401.414 104.381 427.232 136.23 427.232Z" fill="#495059"/>
<path d="M136.23 395.595C150.606 395.595 162.26 383.941 162.26 369.565C162.26 355.189 150.606 343.535 136.23 343.535C121.854 343.535 110.2 355.189 110.2 369.565C110.2 383.941 121.854 395.595 136.23 395.595Z" fill="#E8E9EA"/>
<path d="M375.77 427.232C407.619 427.232 433.437 401.414 433.437 369.565C433.437 337.716 407.619 311.898 375.77 311.898C343.921 311.898 318.103 337.716 318.103 369.565C318.103 401.414 343.921 427.232 375.77 427.232Z" fill="#495059"/>
<path d="M375.77 395.595C390.146 395.595 401.8 383.941 401.8 369.565C401.8 355.189 390.146 343.535 375.77 343.535C361.394 343.535 349.74 355.189 349.74 369.565C349.74 383.941 361.394 395.595 375.77 395.595Z" fill="#E8E9EA"/>
<path d="M499.218 380.396H469.368C465.978 380.396 462.727 379.049 460.33 376.653C457.933 374.256 456.586 371.005 456.586 367.616V344.5C456.586 342.821 456.916 341.159 457.558 339.608C458.201 338.057 459.142 336.647 460.329 335.46C461.516 334.273 462.925 333.331 464.476 332.689C466.027 332.046 467.689 331.716 469.368 331.716H499.218C500.897 331.716 502.559 332.046 504.11 332.689C505.661 333.331 507.07 334.273 508.257 335.46C509.444 336.647 510.385 338.057 511.028 339.608C511.67 341.159 512 342.821 512 344.5V367.616C511.999 371.005 510.652 374.256 508.255 376.653C505.858 379.049 502.608 380.396 499.218 380.396Z" fill="#495059"/>
<path d="M12.782 380.396H42.632C46.0217 380.396 49.2725 379.049 51.6695 376.653C54.0666 374.256 55.4135 371.005 55.414 367.616V344.5C55.4143 342.821 55.0838 341.159 54.4416 339.608C53.7994 338.057 52.8579 336.647 51.6709 335.46C50.484 334.273 49.0748 333.331 47.5239 332.689C45.973 332.046 44.3107 331.716 42.632 331.716H12.782C11.1033 331.716 9.44097 332.046 7.89 332.688C6.33903 333.331 4.92981 334.272 3.74282 335.459C2.55584 336.646 1.61435 338.056 0.97215 339.607C0.329946 341.158 -0.000393733 342.82 3.52182e-07 344.499V367.616C0.000795829 371.005 1.34779 374.256 3.74476 376.652C6.14174 379.049 9.39243 380.396 12.782 380.396V380.396Z" fill="#495059"/>
<path opacity="0.15" d="M274.594 85H267.267C264.375 85.0004 261.549 85.8719 259.159 87.5009C256.769 89.1299 254.925 91.441 253.867 94.133L239.542 130.591H297.186C279.8 117.589 271.851 96.474 274.594 85Z" fill="#8D4330"/>
</svg>
