<svg width="512" height="512" viewBox="0 0 512 512" fill="none" xmlns="http://www.w3.org/2000/svg">
<path d="M210.662 32H165.378C159.626 32 154.11 34.285 150.042 38.3523C145.975 42.4196 143.69 47.936 143.69 53.688V143.575H232.35V53.688C232.35 47.9361 230.065 42.4198 225.997 38.3526C221.93 34.2853 216.414 32.0003 210.662 32V32Z" fill="#8EAFE2"/>
<path d="M143.689 119.087H232.349V143.575H143.689V119.087Z" fill="#6A96D7"/>
<path d="M210.662 32H165.378C159.626 32 154.11 34.285 150.042 38.3523C145.975 42.4196 143.69 47.936 143.69 53.688V68.024H232.35V53.688C232.35 47.936 230.065 42.4196 225.998 38.3523C221.93 34.285 216.414 32 210.662 32V32Z" fill="#8EAFE2"/>
<path d="M210.662 32H165.378C159.626 32 154.11 34.285 150.042 38.3523C145.975 42.4196 143.69 47.936 143.69 53.688V68.024H232.35V53.688C232.35 47.936 230.065 42.4196 225.998 38.3523C221.93 34.285 216.414 32 210.662 32V32Z" fill="#4E5660"/>
<path d="M346.623 32H301.339C295.587 32 290.071 34.285 286.003 38.3523C281.936 42.4196 279.651 47.936 279.651 53.688V143.575H368.311V53.688C368.311 47.936 366.026 42.4196 361.959 38.3523C357.891 34.285 352.375 32 346.623 32V32Z" fill="#8EAFE2"/>
<path d="M279.65 119.087H368.31V143.575H279.65V119.087Z" fill="#6A96D7"/>
<path d="M346.623 32H301.339C295.587 32 290.071 34.285 286.003 38.3523C281.936 42.4196 279.651 47.936 279.651 53.688V68.024H368.311V53.688C368.311 47.936 366.026 42.4196 361.959 38.3523C357.891 34.285 352.375 32 346.623 32V32Z" fill="#8EAFE2"/>
<path d="M346.623 32H301.339C295.587 32 290.071 34.285 286.003 38.3523C281.936 42.4196 279.651 47.936 279.651 53.688V68.024H368.311V53.688C368.311 47.936 366.026 42.4196 361.959 38.3523C357.891 34.285 352.375 32 346.623 32V32Z" fill="#4E5660"/>
<path d="M385.269 143.575H126.731C119.061 143.575 111.706 146.622 106.283 152.045C100.86 157.468 97.813 164.824 97.813 172.493V280.37H414.186V172.493C414.186 168.696 413.438 164.935 411.985 161.427C410.532 157.918 408.402 154.73 405.717 152.045C403.032 149.36 399.844 147.23 396.335 145.776C392.827 144.323 389.067 143.575 385.269 143.575V143.575Z" fill="#FCF2D0"/>
<path d="M229.2 143.575H126.863C119.193 143.575 111.838 146.622 106.415 152.045C100.992 157.468 97.945 164.824 97.945 172.493V280.37H252.912C216.675 250.714 216.076 182.744 229.2 143.575Z" fill="#F6E3A3"/>
<path d="M177.995 198.992C180.697 187.446 173.528 175.895 161.982 173.192C150.436 170.489 138.886 177.658 136.183 189.204C133.48 200.75 140.649 212.301 152.195 215.004C163.741 217.706 175.292 210.538 177.995 198.992Z" fill="#7ACEFA"/>
<path d="M370.398 209.265C378.783 200.88 378.783 187.286 370.398 178.901C362.013 170.516 348.418 170.516 340.033 178.901C331.648 187.286 331.648 200.88 340.033 209.265C348.418 217.65 362.013 217.65 370.398 209.265Z" fill="#A3DEFE"/>
<path d="M277.46 197.844C279.534 186.168 271.751 175.022 260.075 172.948C248.4 170.874 237.254 178.657 235.18 190.332C233.105 202.007 240.889 213.154 252.564 215.228C264.239 217.302 275.385 209.519 277.46 197.844Z" fill="#A3DEFE"/>
<path d="M382.487 357.924H104.677C94.7645 357.924 85.0108 355.435 76.3099 350.686C67.6091 345.937 60.2396 339.08 54.877 330.743L27.217 287.743C25.6625 285.329 24.7448 282.56 24.5496 279.696C24.3544 276.831 24.8879 273.963 26.1005 271.361C27.313 268.758 29.1651 266.505 31.4839 264.811C33.8027 263.118 36.5127 262.039 39.361 261.676L467.252 206.951C470.337 206.555 473.472 207.012 476.315 208.274C479.158 209.536 481.6 211.554 483.376 214.108C485.151 216.661 486.192 219.653 486.385 222.758C486.578 225.862 485.916 228.96 484.47 231.714L434.934 326.204C429.917 335.773 422.379 343.787 413.134 349.378C403.889 354.969 393.291 357.924 382.487 357.924V357.924Z" fill="#FCF2D0"/>
<path d="M238.838 236.167L39.358 261.68C36.5097 262.043 33.7997 263.122 31.4809 264.815C29.1621 266.509 27.3101 268.762 26.0975 271.365C24.8849 273.967 24.3514 276.835 24.5466 279.699C24.7419 282.564 25.6595 285.333 27.214 287.747L54.874 330.747C60.2367 339.084 67.6063 345.941 76.3071 350.689C85.0079 355.438 94.7616 357.927 104.674 357.928H271.911C247.921 331.253 224.982 267.472 238.838 236.168V236.167Z" fill="#F6E3A3"/>
<path d="M361.559 336.143C352.301 336.157 343.253 333.383 335.595 328.181C333.949 327.064 332.814 325.339 332.439 323.386C332.065 321.432 332.481 319.41 333.598 317.764C334.715 316.118 336.439 314.982 338.393 314.608C340.346 314.233 342.369 314.65 344.015 315.767C349.195 319.27 355.305 321.143 361.559 321.143C367.813 321.143 373.923 319.27 379.103 315.767C379.918 315.214 380.834 314.827 381.799 314.628C382.763 314.429 383.758 314.422 384.725 314.608C385.692 314.793 386.614 315.167 387.436 315.709C388.259 316.25 388.967 316.949 389.52 317.764C390.073 318.579 390.46 319.495 390.659 320.46C390.857 321.424 390.864 322.419 390.679 323.386C390.493 324.353 390.119 325.274 389.578 326.097C389.036 326.92 388.338 327.628 387.523 328.181C379.865 333.382 370.817 336.157 361.559 336.143V336.143Z" fill="#4E5660"/>
<path d="M361.559 336.143C359.57 336.143 357.662 335.353 356.256 333.946C354.849 332.54 354.059 330.632 354.059 328.643V287.652C354.059 285.663 354.849 283.755 356.256 282.349C357.662 280.942 359.57 280.152 361.559 280.152C363.548 280.152 365.456 280.942 366.862 282.349C368.269 283.755 369.059 285.663 369.059 287.652V328.643C369.059 330.632 368.269 332.54 366.862 333.946C365.456 335.353 363.548 336.143 361.559 336.143V336.143Z" fill="#4E5660"/>
<path d="M374.8 306.353H348.318C346.329 306.353 344.421 305.563 343.015 304.156C341.608 302.75 340.818 300.842 340.818 298.853C340.818 296.864 341.608 294.956 343.015 293.55C344.421 292.143 346.329 291.353 348.318 291.353H374.8C376.789 291.353 378.697 292.143 380.103 293.55C381.51 294.956 382.3 296.864 382.3 298.853C382.3 300.842 381.51 302.75 380.103 304.156C378.697 305.563 376.789 306.353 374.8 306.353Z" fill="#4E5660"/>
<path d="M484.467 231.717C485.913 228.963 486.575 225.865 486.382 222.761C486.189 219.656 485.148 216.664 483.372 214.111C481.597 211.557 479.155 209.539 476.312 208.277C473.469 207.015 470.334 206.558 467.249 206.954L39.359 261.68C36.5107 262.043 33.8007 263.122 31.4819 264.815C29.1631 266.509 27.311 268.762 26.0985 271.365C24.8859 273.967 24.3523 276.835 24.5476 279.699C24.7428 282.564 25.6605 285.333 27.215 287.747L37.115 303.147L476.478 246.954L484.467 231.717Z" fill="#8EAFE2"/>
<path d="M238.838 236.167L39.358 261.68C36.5097 262.043 33.7997 263.122 31.4809 264.815C29.1621 266.509 27.3101 268.762 26.0975 271.365C24.8849 273.967 24.3514 276.835 24.5466 279.699C24.7419 282.564 25.6595 285.333 27.214 287.747L37.114 303.147L236.228 277.681C233.652 261.868 234.016 247.055 238.834 236.171L238.838 236.167Z" fill="#6A96D7"/>
<path d="M476.214 336.239L452.819 344.19C435.862 349.952 417.476 349.952 400.519 344.19L367.49 332.965C350.533 327.203 332.147 327.203 315.19 332.965L282.161 344.19C265.204 349.952 246.818 349.952 229.861 344.19L196.82 332.965C179.863 327.203 161.477 327.203 144.52 332.965L111.491 344.19C94.5338 349.952 76.1482 349.952 59.191 344.19L35.791 336.239C31.7162 334.854 27.3697 334.459 23.1122 335.089C18.8546 335.719 14.8085 337.355 11.3095 339.861C7.81046 342.368 4.95932 345.672 2.99248 349.5C1.02565 353.328 -0.000205404 357.57 3.08489e-08 361.874L3.08489e-08 424.146C3.08489e-08 438.707 5.78409 452.671 16.0798 462.966C26.3756 473.262 40.3396 479.046 54.9 479.046H457.1C471.66 479.046 485.624 473.262 495.92 462.966C506.216 452.671 512 438.707 512 424.146V361.874C512 357.571 510.974 353.329 509.008 349.501C507.041 345.674 504.191 342.37 500.692 339.864C497.194 337.357 493.149 335.721 488.892 335.091C484.634 334.461 480.289 334.854 476.214 336.239V336.239Z" fill="#A3DEFE"/>
<path d="M187.354 330.378C173.1 327.386 158.305 328.279 144.515 332.965L111.486 344.189C94.5288 349.951 76.1432 349.951 59.186 344.189L35.786 336.239C31.7115 334.854 27.3656 334.461 23.1087 335.091C18.8517 335.722 14.8064 337.358 11.308 339.864C7.80965 342.37 4.95902 345.674 2.99246 349.501C1.0259 353.329 6.47262e-05 357.57 0 361.874V424.146C0 438.706 5.78409 452.67 16.0798 462.966C26.3756 473.262 40.3396 479.046 54.9 479.046H221.6C195.645 453.224 173.566 377.108 187.354 330.378Z" fill="#7ACEFA"/>
<path d="M99.55 437.79C94.6798 437.789 89.8664 436.744 85.434 434.726C81.0017 432.707 77.0534 429.763 73.855 426.09C73.2078 425.347 72.7133 424.485 72.3995 423.551C72.0858 422.617 71.959 421.631 72.0264 420.649C72.0938 419.666 72.3541 418.706 72.7924 417.824C73.2307 416.942 73.8385 416.155 74.581 415.508C75.3235 414.861 76.1862 414.366 77.1198 414.052C78.0534 413.739 79.0397 413.612 80.0224 413.679C81.005 413.747 81.9647 414.007 82.8467 414.445C83.7288 414.884 84.5158 415.491 85.163 416.234C86.9523 418.293 89.1628 419.944 91.6449 421.075C94.1271 422.207 96.8232 422.792 99.551 422.792C102.279 422.792 104.975 422.207 107.457 421.075C109.939 419.944 112.15 418.293 113.939 416.234C114.584 415.485 115.371 414.87 116.254 414.426C117.138 413.982 118.1 413.717 119.086 413.647C120.073 413.576 121.063 413.701 122.001 414.014C122.938 414.328 123.805 414.824 124.55 415.473C125.296 416.123 125.905 416.913 126.344 417.8C126.783 418.686 127.042 419.65 127.106 420.636C127.171 421.623 127.04 422.612 126.721 423.548C126.402 424.484 125.901 425.347 125.247 426.089C122.048 429.762 118.099 432.707 113.666 434.726C109.232 436.744 104.418 437.788 99.547 437.789L99.55 437.79Z" fill="#A3DEFE"/>
<path d="M256.131 415.91C251.26 415.91 246.446 414.865 242.012 412.847C237.579 410.828 233.63 407.883 230.431 404.21C229.777 403.469 229.276 402.605 228.957 401.669C228.638 400.734 228.507 399.744 228.572 398.757C228.636 397.771 228.895 396.807 229.334 395.921C229.773 395.035 230.382 394.244 231.128 393.594C231.873 392.945 232.74 392.449 233.677 392.136C234.615 391.822 235.605 391.697 236.592 391.768C237.578 391.838 238.54 392.103 239.424 392.547C240.307 392.991 241.094 393.606 241.739 394.355C243.528 396.414 245.738 398.065 248.22 399.196C250.702 400.328 253.398 400.913 256.126 400.913C258.854 400.913 261.55 400.328 264.032 399.196C266.514 398.065 268.724 396.414 270.513 394.355C271.82 392.855 273.669 391.936 275.653 391.8C277.638 391.664 279.595 392.321 281.095 393.628C282.595 394.935 283.514 396.784 283.65 398.768C283.786 400.753 283.129 402.71 281.822 404.21C278.623 407.884 274.674 410.829 270.241 412.847C265.808 414.866 260.993 415.91 256.122 415.91H256.131Z" fill="#7ACEFA"/>
<path d="M412.712 437.79C407.841 437.79 403.027 436.745 398.593 434.727C394.16 432.709 390.211 429.763 387.012 426.09C385.705 424.59 385.048 422.633 385.184 420.648C385.32 418.664 386.239 416.815 387.739 415.508C389.239 414.201 391.196 413.543 393.181 413.68C395.165 413.816 397.014 414.735 398.321 416.235C400.11 418.294 402.321 419.945 404.803 421.076C407.285 422.208 409.981 422.793 412.709 422.793C415.436 422.793 418.132 422.208 420.614 421.076C423.096 419.945 425.307 418.294 427.096 416.235C428.403 414.735 430.252 413.816 432.236 413.68C434.221 413.543 436.178 414.201 437.678 415.508C439.178 416.815 440.097 418.664 440.233 420.648C440.369 422.633 439.712 424.59 438.405 426.09C435.206 429.763 431.257 432.708 426.823 434.726C422.39 436.744 417.576 437.789 412.705 437.79H412.712Z" fill="#7ACEFA"/>
</svg>
