<svg width="512" height="512" viewBox="0 0 512 512" fill="none" xmlns="http://www.w3.org/2000/svg">
<path d="M462.391 0H437.34C433.789 -2.18562e-08 430.272 0.69951 426.992 2.05858C423.711 3.41766 420.73 5.40968 418.219 7.92089C415.708 10.4321 413.716 13.4133 412.357 16.6943C410.999 19.9753 410.3 23.4918 410.3 27.043V58.477C410.301 65.1071 408.996 71.6724 406.459 77.7979C403.922 83.9234 400.203 89.4891 395.515 94.177L94.168 395.516C84.7006 404.98 71.8632 410.297 58.477 410.3H27.039C23.4881 410.3 19.972 410.999 16.6914 412.358C13.4108 413.717 10.43 415.709 7.91919 418.22C5.40837 420.731 3.41671 423.712 2.05793 426.992C0.699156 430.273 -0.000131306 433.789 1.85227e-08 437.34V462.391C-0.000265229 469.563 2.84827 476.441 7.919 481.512C12.9897 486.584 19.8674 489.433 27.039 489.434H58.477C75.5052 489.48 92.3735 486.148 108.105 479.631C123.837 473.114 138.121 463.542 150.129 451.469L451.469 150.129C463.543 138.121 473.115 123.838 479.632 108.106C486.148 92.3736 489.48 75.5053 489.434 58.477V27.043C489.434 19.8707 486.585 12.9923 481.513 7.92071C476.442 2.84917 469.563 0 462.391 0Z" fill="#78CBEC"/>
<path d="M467.578 5.18778V36.6248C467.624 53.6528 464.293 70.5209 457.777 86.2529C451.261 101.985 441.69 116.268 429.617 128.277L128.273 429.617C116.266 441.691 101.984 451.263 86.252 457.779C70.5205 464.295 53.6526 467.625 36.625 467.578H5.18803C3.59121 467.577 1.9976 467.435 0.426025 467.152C1.54296 473.398 4.82082 479.052 9.68601 483.126C14.5512 487.199 20.6938 489.431 27.039 489.433H58.477C75.5053 489.479 92.3735 486.147 108.105 479.63C123.838 473.113 138.121 463.541 150.129 451.468L451.469 150.128C463.543 138.12 473.115 123.837 479.632 108.104C486.148 92.3724 489.48 75.5041 489.434 58.4758V27.0388C489.433 20.6935 487.2 14.5507 483.126 9.68549C479.053 4.82028 473.398 1.54251 467.152 0.425781C467.435 1.99736 467.577 3.59096 467.578 5.18778V5.18778Z" fill="#00ACDC"/>
<path d="M261.5 417.109C253.726 409.335 243.822 404.041 233.04 401.897C222.257 399.752 211.081 400.853 200.924 405.06C190.767 409.267 182.086 416.391 175.978 425.532C169.87 434.673 166.61 445.42 166.61 456.414C166.61 467.407 169.87 478.154 175.978 487.295C182.086 496.436 190.767 503.56 200.924 507.768C211.081 511.975 222.257 513.075 233.04 510.931C243.822 508.786 253.726 503.492 261.5 495.718C271.924 485.294 277.78 471.156 277.78 456.414C277.78 441.672 271.924 427.533 261.5 417.109Z" fill="#423E4F"/>
<path d="M236.578 442.023C233.732 439.177 230.106 437.239 226.159 436.454C222.212 435.668 218.12 436.071 214.402 437.611C210.683 439.152 207.505 441.76 205.269 445.106C203.033 448.452 201.84 452.387 201.84 456.412C201.84 460.436 203.033 464.371 205.269 467.717C207.505 471.063 210.683 473.672 214.402 475.212C218.12 476.752 222.212 477.155 226.159 476.369C230.106 475.584 233.732 473.646 236.578 470.8C240.393 466.984 242.537 461.808 242.537 456.412C242.537 451.015 240.393 445.839 236.578 442.023V442.023Z" fill="#C5C3C9"/>
<path d="M495.715 182.895C487.942 175.121 478.038 169.827 467.255 167.682C456.473 165.537 445.297 166.637 435.14 170.844C424.983 175.051 416.302 182.175 410.194 191.316C404.086 200.457 400.826 211.204 400.826 222.197C400.826 233.191 404.086 243.938 410.194 253.079C416.302 262.219 424.983 269.344 435.14 273.551C445.297 277.757 456.473 278.858 467.255 276.713C478.038 274.568 487.942 269.274 495.715 261.5C506.138 251.076 511.993 236.938 511.993 222.197C511.993 207.456 506.138 193.319 495.715 182.895V182.895Z" fill="#423E4F"/>
<path d="M470.8 207.809C467.954 204.963 464.328 203.025 460.381 202.24C456.434 201.454 452.342 201.857 448.624 203.398C444.905 204.938 441.727 207.546 439.491 210.892C437.255 214.239 436.062 218.173 436.062 222.198C436.062 226.222 437.255 230.157 439.491 233.503C441.727 236.849 444.905 239.458 448.624 240.998C452.342 242.538 456.434 242.941 460.381 242.156C464.328 241.37 467.954 239.432 470.8 236.586C474.615 232.77 476.759 227.594 476.759 222.198C476.759 216.801 474.615 211.626 470.8 207.809V207.809Z" fill="#C5C3C9"/>
</svg>
