<svg width="513" height="512" viewBox="0 0 513 512" fill="none" xmlns="http://www.w3.org/2000/svg">
<path d="M123.677 316.517C123.677 316.517 -27.8504 349.243 5.89961 507.106L5.88961 507.096C163.753 540.852 196.479 389.324 196.479 389.324L202.707 311.444L123.677 316.517Z" fill="#FFCD38"/>
<path d="M137.755 330.6C137.755 330.6 57.6627 369.676 69.4727 443.54C143.336 455.35 182.417 375.257 182.417 375.257L182.359 330.657L137.755 330.6Z" fill="#DA5B65"/>
<path d="M257.045 46.4307C257.047 39.1227 254.932 31.9704 250.954 25.8399C246.976 19.7095 241.306 14.8636 234.63 11.889C227.955 8.91435 220.561 7.93855 213.342 9.07971C206.124 10.2209 199.391 13.4301 193.959 18.3187C186.934 10.9123 177.858 5.77169 167.893 3.5554C157.929 1.33911 147.529 2.14806 138.027 5.87864C128.525 9.60921 120.353 16.0915 114.558 24.4952C108.763 32.8989 105.609 42.8413 105.5 53.0487C100.614 49.702 95.01 47.5498 89.14 46.7657C83.27 45.9815 77.2978 46.5872 71.7048 48.5341C66.1118 50.4809 61.0543 53.7144 56.9399 57.974C52.8255 62.2336 49.7693 67.4001 48.0175 73.0573C46.2658 78.7145 45.8675 84.704 46.8547 90.5434C47.8419 96.3827 50.1871 101.908 53.7012 106.675C57.2153 111.442 61.8001 115.317 67.0861 117.987C72.3721 120.658 78.2115 122.049 84.1336 122.049H257.006V48.0077C257.026 47.4837 257.045 46.9597 257.045 46.4307Z" fill="#EFEDEE"/>
<path d="M471.172 336.091C468.04 336.09 464.918 336.46 461.872 337.191C463.873 328.875 463.141 320.136 459.784 312.27C456.426 304.403 450.623 297.828 443.235 293.52C435.847 289.211 427.266 287.399 418.767 288.351C410.267 289.303 402.3 292.969 396.048 298.806L264.628 350.636V415.672H471.172C481.726 415.672 491.846 411.48 499.309 404.017C506.771 396.555 510.963 386.434 510.963 375.881C510.963 365.328 506.771 355.207 499.309 347.745C491.846 340.283 481.726 336.091 471.172 336.091Z" fill="#EFEDEE"/>
<path d="M511.163 29.951C510.426 22.7459 507.227 16.0152 502.106 10.8939C496.984 5.77257 490.254 2.57381 483.049 1.83696C446.883 -1.84804 375.681 -3.11204 303.2 29.489L372.924 140.077L483.512 209.8C516.112 137.318 514.848 66.116 511.163 29.951Z" fill="#DA5B65"/>
<path d="M511.163 29.9508C510.426 22.7457 507.227 16.0151 502.106 10.8938C496.984 5.77242 490.254 2.57366 483.049 1.83682C482.225 1.75282 481.363 1.67182 480.503 1.59082C483.981 38.4758 484.463 108.064 452.603 178.891L360.973 121.12L372.924 140.074L483.512 209.8C516.112 137.318 514.848 66.1148 511.163 29.9508Z" fill="#C0344A"/>
<path d="M145.778 213.6L63.3517 217.582C62.789 217.615 62.2473 217.808 61.7899 218.137C61.3325 218.467 60.9783 218.92 60.7687 219.443L31.0147 293.607C30.7592 294.243 30.7312 294.947 30.9353 295.601C31.1393 296.255 31.5631 296.818 32.1347 297.196C32.7063 297.573 33.3908 297.741 34.0723 297.672C34.7538 297.603 35.3905 297.301 35.8747 296.816L73.9997 258.687C74.3733 258.314 74.8396 258.046 75.3507 257.913C75.8618 257.78 76.3993 257.785 76.9077 257.928L130.698 273.089L145.778 213.6Z" fill="#DA5B65"/>
<path d="M299.395 367.223L295.413 449.649C295.38 450.212 295.187 450.754 294.858 451.211C294.528 451.668 294.075 452.023 293.552 452.232L219.393 481.986C218.757 482.242 218.053 482.27 217.399 482.066C216.745 481.861 216.182 481.438 215.804 480.866C215.427 480.295 215.259 479.61 215.328 478.929C215.397 478.247 215.699 477.61 216.184 477.126L254.313 439C254.686 438.627 254.953 438.16 255.087 437.649C255.22 437.138 255.215 436.601 255.072 436.092L239.911 382.3L299.395 367.223Z" fill="#DA5B65"/>
<path d="M483.511 209.8L303.2 29.4888C228.61 63.0338 152.681 132.449 112.238 272.021C109.988 279.783 109.862 288.007 111.874 295.834C113.886 303.661 117.962 310.805 123.676 316.521L196.482 389.327C202.197 395.041 209.341 399.116 217.168 401.128C224.996 403.14 233.219 403.015 240.982 400.765C380.551 360.318 449.967 284.39 483.511 209.8Z" fill="#D4D2D3"/>
<path d="M452.606 178.894C419.061 253.483 349.646 329.413 210.074 369.856C202.311 372.106 194.088 372.231 186.26 370.219C178.433 368.207 171.289 364.132 165.574 358.418L196.474 389.318C202.189 395.032 209.333 399.108 217.16 401.12C224.988 403.132 233.211 403.006 240.974 400.756C380.551 360.318 449.967 284.389 483.511 209.8L452.606 178.894Z" fill="#BAB8B9"/>
<path d="M285.897 315.926C334.952 315.926 374.719 276.159 374.719 227.104C374.719 178.049 334.952 138.282 285.897 138.282C236.842 138.282 197.075 178.049 197.075 227.104C197.075 276.159 236.842 315.926 285.897 315.926Z" fill="#DA5B65"/>
<path d="M285.897 287.504C319.255 287.504 346.297 260.462 346.297 227.104C346.297 193.746 319.255 166.704 285.897 166.704C252.539 166.704 225.497 193.746 225.497 227.104C225.497 260.462 252.539 287.504 285.897 287.504Z" fill="#51D7F7"/>
</svg>
