<svg width="512" height="512" viewBox="0 0 512 512" fill="none" xmlns="http://www.w3.org/2000/svg">
<path d="M396.821 332.944H128.901V364.014H396.821V332.944Z" fill="#7397DA"/>
<path opacity="0.15" d="M157.051 332.944H128.901V364.014H157.051V332.944Z" fill="black"/>
<path opacity="0.15" d="M396.821 332.944H368.671V364.014H396.821V332.944Z" fill="black"/>
<path d="M128.901 222.174H97.8311V409.514H128.901V222.174Z" fill="#C7C9CC"/>
<path d="M113.371 447.606C130.819 447.606 144.963 433.462 144.963 416.014C144.963 398.566 130.819 384.422 113.371 384.422C95.923 384.422 81.7788 398.566 81.7788 416.014C81.7788 433.462 95.923 447.606 113.371 447.606Z" fill="#495059"/>
<path d="M427.891 264.464H396.821V409.524H427.891V264.464Z" fill="#C7C9CC"/>
<path opacity="0.15" d="M427.891 264.464H396.821V290.134H427.891V264.464Z" fill="black"/>
<path opacity="0.15" d="M97.8311 258.015L128.9 269.327V222.177H97.8311V258.015Z" fill="black"/>
<path d="M412.361 447.606C429.809 447.606 443.953 433.462 443.953 416.014C443.953 398.566 429.809 384.422 412.361 384.422C394.913 384.422 380.769 398.566 380.769 416.014C380.769 433.462 394.913 447.606 412.361 447.606Z" fill="#495059"/>
<path d="M113.371 423.389C117.444 423.389 120.746 420.087 120.746 416.014C120.746 411.941 117.444 408.639 113.371 408.639C109.298 408.639 105.996 411.941 105.996 416.014C105.996 420.087 109.298 423.389 113.371 423.389Z" fill="#7397DA"/>
<path d="M412.361 423.389C416.434 423.389 419.736 420.087 419.736 416.014C419.736 411.941 416.434 408.639 412.361 408.639C408.288 408.639 404.986 411.941 404.986 416.014C404.986 420.087 408.288 423.389 412.361 423.389Z" fill="#7397DA"/>
<path d="M150.836 140.821L96.5209 121.052C89.0252 118.324 80.8085 118.323 73.3117 121.047C65.8149 123.771 59.5165 129.048 55.5209 135.952V135.952C54.4548 137.794 53.8052 139.847 53.618 141.967C53.4308 144.087 53.7104 146.222 54.4371 148.222C55.1639 150.222 56.3202 152.039 57.8246 153.544C59.3291 155.05 61.1451 156.207 63.1449 156.935L153.345 189.765C155.345 190.493 157.48 190.773 159.6 190.587C161.72 190.401 163.773 189.753 165.615 188.688C167.458 187.623 169.044 186.167 170.264 184.423C171.483 182.678 172.305 180.688 172.672 178.592V178.592C174.048 170.734 172.615 162.642 168.622 155.736C164.629 148.829 158.332 143.549 150.836 140.821V140.821Z" fill="#A8D1EC"/>
<path d="M174.853 197.591L31.6252 145.461C29.4795 144.68 27.2008 144.329 24.9195 144.429C22.6381 144.528 20.3987 145.076 18.3292 146.041C16.2596 147.006 14.4004 148.37 12.8578 150.053C11.3151 151.737 10.1192 153.708 9.33825 155.854L1.05425 178.613C0.272699 180.759 -0.0784562 183.038 0.020837 185.319C0.12013 187.601 0.667927 189.841 1.63294 191.911C2.59796 193.981 3.96129 195.84 5.64507 197.384C7.32885 198.927 9.30011 200.123 11.4462 200.904L164.417 256.59C178.731 261.8 193.845 264.466 209.077 264.466H494.611C496.895 264.466 499.157 264.016 501.267 263.142C503.377 262.268 505.294 260.987 506.908 259.372C508.523 257.757 509.804 255.84 510.678 253.729C511.551 251.619 512.001 249.358 512 247.074V222.854C512 218.242 510.168 213.82 506.907 210.559C503.647 207.298 499.224 205.466 494.612 205.466H219.512C204.281 205.466 189.166 202.8 174.853 197.591Z" fill="#7397DA"/>
<path opacity="0.15" d="M219.506 205.465C204.276 205.465 189.164 202.8 174.852 197.591L31.625 145.461C29.4792 144.68 27.2006 144.329 24.9193 144.429C22.6379 144.528 20.3985 145.076 18.329 146.041C16.2594 147.006 14.4002 148.37 12.8576 150.053C11.3149 151.737 10.119 153.708 9.33804 155.854L1.05404 178.613C0.272357 180.759 -0.0789031 183.038 0.020326 185.319C0.119555 187.601 0.667329 189.841 1.63236 191.911C2.59739 193.981 3.96077 195.841 5.64463 197.384C7.32848 198.927 9.29982 200.123 11.446 200.904L164.417 256.59C178.73 261.8 193.845 264.466 209.077 264.466H327.046C297.271 252.715 281.664 233.333 281.546 205.466H219.506V205.465Z" fill="#003A63"/>
<path d="M457.6 242.465C455.905 242.463 454.26 241.887 452.934 240.83C451.609 239.774 450.68 238.299 450.3 236.647L441.451 198.219C440.044 192.003 436.56 186.452 431.574 182.483C426.587 178.514 420.396 176.364 414.023 176.388H288.268C281.895 176.364 275.703 178.514 270.717 182.483C265.73 186.452 262.246 192.003 260.839 198.219L251.991 236.647C251.529 238.569 250.327 240.231 248.647 241.272C246.966 242.313 244.942 242.648 243.016 242.204C241.089 241.761 239.416 240.575 238.359 238.904C237.303 237.233 236.949 235.213 237.374 233.282L246.222 194.854C248.378 185.325 253.719 176.816 261.364 170.732C269.008 164.648 278.498 161.352 288.268 161.389H414.022C423.792 161.353 433.282 164.648 440.926 170.732C448.569 176.817 453.91 185.325 456.067 194.854L464.916 233.281C465.137 234.241 465.167 235.235 465.004 236.206C464.841 237.177 464.488 238.107 463.965 238.942C463.443 239.777 462.761 240.501 461.959 241.073C461.157 241.644 460.25 242.052 459.29 242.273C458.736 242.4 458.169 242.464 457.6 242.465V242.465Z" fill="#495059"/>
<path d="M310.375 242.463C308.386 242.463 306.478 241.673 305.072 240.266C303.665 238.859 302.875 236.952 302.875 234.963V168.887C302.875 166.898 303.665 164.99 305.072 163.583C306.478 162.177 308.386 161.387 310.375 161.387C312.364 161.387 314.272 162.177 315.678 163.583C317.085 164.99 317.875 166.898 317.875 168.887V234.963C317.875 236.952 317.085 238.859 315.678 240.266C314.272 241.673 312.364 242.463 310.375 242.463Z" fill="#495059"/>
<path d="M391.913 242.463C389.924 242.463 388.016 241.673 386.61 240.266C385.203 238.859 384.413 236.952 384.413 234.963V168.887C384.413 166.898 385.203 164.99 386.61 163.583C388.016 162.177 389.924 161.387 391.913 161.387C393.902 161.387 395.81 162.177 397.216 163.583C398.623 164.99 399.413 166.898 399.413 168.887V234.963C399.413 236.952 398.623 238.859 397.216 240.266C395.81 241.673 393.902 242.463 391.913 242.463Z" fill="#495059"/>
<path opacity="0.15" d="M170.39 184.216C126.508 174.696 81.2801 140.216 81.6901 119.156C76.3046 119.667 71.1194 121.458 66.5663 124.379C62.0132 127.3 58.2243 131.267 55.515 135.95C54.4489 137.792 53.7994 139.845 53.6121 141.965C53.4249 144.085 53.7045 146.22 54.4313 148.22C55.1581 150.22 56.3143 152.037 57.8188 153.542C59.3232 155.048 61.1392 156.205 63.139 156.933L153.339 189.763C156.393 190.873 159.73 190.93 162.82 189.925C165.909 188.92 168.574 186.91 170.39 184.216Z" fill="#003A63"/>
</svg>
