<svg width="512" height="512" viewBox="0 0 512 512" fill="none" xmlns="http://www.w3.org/2000/svg">
<path d="M409.444 229.551L395.117 167.279C392.746 156.972 386.949 147.773 378.674 141.185C370.398 134.598 360.134 131.011 349.557 131.011H162.443C151.866 131.011 141.602 134.598 133.327 141.185C125.052 147.773 119.255 156.972 116.883 167.279L102.556 229.551C101.849 232.625 100.12 235.369 97.652 237.334C95.1839 239.298 92.1226 240.368 88.9681 240.368H52.3301C43.7453 240.368 35.5121 243.779 29.4417 249.849C23.3714 255.919 19.9611 264.152 19.9611 272.737V361.043H492.04V272.737C492.04 264.152 488.63 255.919 482.559 249.849C476.489 243.779 468.256 240.368 459.671 240.368H423.033C419.878 240.368 416.817 239.298 414.349 237.333C411.881 235.369 410.152 232.625 409.444 229.551V229.551Z" fill="#F7EF87"/>
<path d="M248.718 131.011H162.444C151.867 131.011 141.603 134.598 133.328 141.185C125.052 147.773 119.256 156.972 116.884 167.279L102.557 229.551C101.85 232.625 100.121 235.369 97.653 237.334C95.1849 239.298 92.1236 240.368 88.9691 240.368H52.3301C43.7453 240.368 35.5121 243.779 29.4417 249.849C23.3714 255.919 19.9611 264.152 19.9611 272.737V361.043H277.336C235.491 301.368 240.314 190.277 248.718 131.011V131.011Z" fill="#EFD176"/>
<path d="M117.81 413.671C146.937 406.786 164.967 377.592 158.082 348.464C151.197 319.337 122.003 301.307 92.8755 308.192C63.7483 315.077 45.7177 344.271 52.6031 373.399C59.4885 402.526 88.6824 420.556 117.81 413.671Z" fill="#8EAFE2"/>
<path d="M110.86 384.297C123.767 381.246 131.756 368.31 128.705 355.404C125.654 342.497 112.718 334.508 99.8121 337.559C86.9057 340.61 78.9164 353.546 81.9673 366.452C85.0182 379.358 97.9541 387.348 110.86 384.297Z" fill="#4E5660"/>
<path d="M42.252 383.637H8.82C6.48096 383.637 4.23771 382.708 2.58367 381.054C0.92963 379.4 0.000265197 377.157 0 374.818L0 344.376C0 342.037 0.929247 339.794 2.58332 338.139C4.23739 336.485 6.48079 335.556 8.82 335.556H42.253C44.5922 335.556 46.8356 336.485 48.4897 338.139C50.1438 339.794 51.073 342.037 51.073 344.376V374.818C51.0725 377.157 50.1429 379.4 48.4887 381.054C46.8345 382.708 44.5911 383.637 42.252 383.637V383.637Z" fill="#4E5660"/>
<path d="M459.495 373.695C466.381 344.567 448.35 315.374 419.223 308.488C390.096 301.603 360.902 319.633 354.016 348.761C347.131 377.888 365.161 407.082 394.289 413.967C423.416 420.852 452.61 402.822 459.495 373.695Z" fill="#8EAFE2"/>
<path d="M430.118 366.756C433.169 353.849 425.18 340.913 412.273 337.862C399.367 334.812 386.431 342.801 383.38 355.707C380.329 368.614 388.319 381.549 401.225 384.6C414.131 387.651 427.067 379.662 430.118 366.756Z" fill="#4E5660"/>
<path d="M469.747 383.637H503.18C505.519 383.637 507.762 382.708 509.416 381.054C511.07 379.4 512 377.157 512 374.818V344.376C512 342.037 511.071 339.794 509.417 338.139C507.763 336.485 505.519 335.556 503.18 335.556H469.747C467.408 335.556 465.164 336.485 463.51 338.139C461.856 339.794 460.927 342.037 460.927 344.376V374.818C460.928 377.157 461.857 379.4 463.511 381.054C465.165 382.708 467.408 383.637 469.747 383.637V383.637Z" fill="#4E5660"/>
<path d="M267.736 281.026H291.208V304.498H267.736V281.026Z" fill="white"/>
<path d="M244.264 281.026H267.736V304.498H244.264V281.026Z" fill="#4E5660"/>
<path d="M220.791 281.026H244.263V304.498H220.791V281.026Z" fill="white"/>
<path d="M314.681 304.499H291.208V281.026H309.224C310.671 281.026 312.059 281.601 313.082 282.625C314.105 283.648 314.68 285.036 314.68 286.483V304.499H314.681Z" fill="#4E5660"/>
<path d="M197.319 304.499H220.792V281.026H202.776C201.329 281.026 199.941 281.601 198.917 282.624C197.894 283.648 197.319 285.036 197.319 286.483V304.499Z" fill="#4E5660"/>
<path d="M267.736 304.499H291.208V327.971H267.736V304.499Z" fill="#4E5660"/>
<path d="M244.264 304.499H267.736V327.971H244.264V304.499Z" fill="white"/>
<path d="M220.791 304.499H244.263V327.971H220.791V304.499Z" fill="#4E5660"/>
<path d="M309.225 327.971H291.209V304.499H314.682V322.518C314.681 323.965 314.106 325.353 313.083 326.376C312.06 327.399 310.672 327.974 309.225 327.974V327.971Z" fill="white"/>
<path d="M202.775 327.971H220.791V304.499H197.318V322.518C197.318 323.965 197.894 325.353 198.917 326.376C199.94 327.399 201.328 327.974 202.775 327.974V327.971Z" fill="white"/>
<path d="M323.834 86H309.216C305.626 85.9999 302.133 87.1611 299.257 89.3103C296.382 91.4594 294.279 94.4811 293.263 97.924L283.493 131.011H349.557L339.787 97.924C338.77 94.4813 336.667 91.4598 333.792 89.3107C330.917 87.1616 327.424 86.0002 323.834 86V86Z" fill="#F6E3A3"/>
<path d="M474.884 272.737H492.039V313.692H474.884C471.183 313.692 467.633 312.221 465.016 309.604C462.398 306.987 460.928 303.437 460.928 299.736V286.693C460.928 282.991 462.398 279.442 465.016 276.824C467.633 274.207 471.183 272.737 474.884 272.737V272.737Z" fill="#E8899E"/>
<path d="M37.1161 272.737H19.9611V313.692H37.1171C40.8184 313.692 44.3682 312.221 46.9854 309.604C49.6027 306.987 51.0731 303.437 51.0731 299.736V286.693C51.0728 282.991 49.6022 279.442 46.9848 276.824C44.3674 274.207 40.8175 272.737 37.1161 272.737Z" fill="#E8899E"/>
<path d="M213.947 160.686H158.589C155.635 160.686 152.771 161.698 150.474 163.554C148.177 165.411 146.585 167.998 145.965 170.886L134.4 224.744C133.996 226.627 134.018 228.576 134.465 230.449C134.911 232.322 135.771 234.072 136.981 235.57C138.192 237.067 139.722 238.275 141.459 239.105C143.197 239.935 145.098 240.366 147.024 240.366H213.946C215.642 240.366 217.321 240.032 218.887 239.383C220.454 238.734 221.877 237.783 223.076 236.584C224.275 235.385 225.226 233.962 225.875 232.395C226.524 230.829 226.858 229.15 226.858 227.454V173.598C226.858 171.902 226.524 170.223 225.875 168.657C225.226 167.09 224.275 165.667 223.076 164.468C221.877 163.269 220.454 162.318 218.887 161.669C217.321 161.02 215.642 160.686 213.946 160.686H213.947Z" fill="#8EAFE2"/>
<path d="M266.048 160.686H321.406C324.359 160.686 327.224 161.699 329.521 163.555C331.818 165.411 333.41 167.998 334.03 170.886L345.594 224.743C345.998 226.626 345.976 228.575 345.529 230.448C345.083 232.321 344.223 234.071 343.012 235.569C341.802 237.066 340.272 238.274 338.534 239.104C336.797 239.934 334.896 240.365 332.97 240.365H266.048C262.624 240.365 259.339 239.005 256.918 236.583C254.496 234.162 253.136 230.878 253.136 227.453V173.598C253.136 171.902 253.47 170.223 254.119 168.657C254.768 167.09 255.719 165.667 256.918 164.468C258.117 163.269 259.54 162.318 261.107 161.669C262.673 161.02 264.352 160.686 266.048 160.686V160.686Z" fill="#8EAFE2"/>
<path d="M378.422 223.503C379.447 228.277 382.078 232.556 385.876 235.625C389.674 238.694 394.409 240.368 399.292 240.368H423.032C419.877 240.368 416.816 239.298 414.348 237.334C411.88 235.369 410.151 232.625 409.444 229.551L395.117 167.279C394.598 165.034 393.913 162.831 393.07 160.687H376C374.666 160.687 373.35 160.985 372.147 161.56C370.944 162.134 369.884 162.971 369.046 164.008C368.208 165.045 367.613 166.257 367.303 167.554C366.994 168.851 366.979 170.2 367.259 171.504L378.422 223.503Z" fill="#8EAFE2"/>
<path d="M213.947 240.367C215.643 240.367 217.322 240.033 218.888 239.384C220.455 238.735 221.878 237.784 223.077 236.585C224.276 235.386 225.227 233.963 225.876 232.396C226.525 230.83 226.859 229.151 226.859 227.455V173.598C226.859 171.531 226.361 169.494 225.406 167.661L152.7 240.367H213.947Z" fill="#6A96D7"/>
<path d="M266.048 160.686C262.624 160.686 259.339 162.046 256.918 164.468C254.496 166.889 253.136 170.174 253.136 173.598V227.455C253.138 227.929 253.165 228.403 253.218 228.874L321.406 160.686H266.048Z" fill="#6A96D7"/>
<path d="M351.4 262.497H341.278C337.636 262.497 334.143 261.05 331.568 258.475C328.993 255.9 327.546 252.407 327.546 248.765V235.904C327.546 232.262 328.993 228.769 331.568 226.194C334.143 223.619 337.636 222.172 341.278 222.172H351.4C356.723 222.209 361.815 224.35 365.565 228.127C369.316 231.904 371.421 237.011 371.421 242.334C371.421 247.657 369.316 252.764 365.565 256.541C361.815 260.319 356.723 262.459 351.4 262.497V262.497Z" fill="#EFD176"/>
</svg>
