<svg width="512" height="512" viewBox="0 0 512 512" fill="none" xmlns="http://www.w3.org/2000/svg">
<path d="M346.785 338.421L191.061 320.23L28.075 338.421C26.358 338.421 24.6578 338.759 23.0715 339.416C21.4852 340.073 20.0438 341.036 18.8296 342.25C17.6155 343.464 16.6524 344.905 15.9953 346.492C15.3382 348.078 15 349.778 15 351.495L15 383.816C15 387.284 16.3775 390.609 18.8296 393.061C21.2816 395.513 24.6073 396.891 28.075 396.891H346.785L367.123 367.656L346.785 338.421Z" fill="#344050"/>
<path d="M346.785 114.283V85.572C346.785 78.5247 343.986 71.766 339.002 66.7828C334.019 61.7995 327.261 59 320.213 59H54.6472C47.5999 59 40.8412 61.7995 35.858 66.7828C30.8747 71.766 28.0752 78.5247 28.0752 85.572V338.42H346.785L376.02 198.71L346.785 114.283Z" fill="#599CDE"/>
<path d="M84.6472 59H54.6472C51.1577 59 47.7024 59.6873 44.4785 61.0227C41.2547 62.358 38.3254 64.3153 35.858 66.7828C30.8747 71.766 28.0752 78.5247 28.0752 85.572V338.42H58.0752V85.572C58.0752 78.5247 60.8747 71.766 65.858 66.7828C70.8412 61.7995 77.5999 59 84.6472 59V59Z" fill="#4981C8"/>
<path d="M496.408 296.517V281.899L468.868 261.619C466.276 259.71 464.093 257.301 462.447 254.534C460.801 251.768 459.726 248.699 459.286 245.51L445.453 145.219C444.271 136.646 440.025 128.79 433.5 123.103C426.975 117.417 418.613 114.284 409.958 114.284H346.786V396.892H480.539L496.409 355.313V328.027L481.954 312.272L496.408 296.517Z" fill="#FF7290"/>
<path d="M302.932 102.853H71.9282V294.568H302.932V102.853Z" fill="#ECECED"/>
<path d="M101.928 102.853H71.9282V294.568H101.928V102.853Z" fill="#DFDFDD"/>
<path d="M430.324 249.504L416.491 149.213C416.269 147.636 415.487 146.192 414.287 145.145C413.087 144.098 411.55 143.519 409.957 143.513H376.02V249.504H430.32H430.324Z" fill="#75DAE4"/>
<path d="M502.867 355.312H489.667C487.245 355.312 484.922 356.274 483.209 357.987C481.496 359.7 480.534 362.023 480.534 364.445V396.891H502.863C504.063 396.892 505.251 396.656 506.359 396.197C507.468 395.738 508.475 395.066 509.324 394.217C510.172 393.369 510.845 392.362 511.305 391.254C511.764 390.146 512 388.958 512 387.758V364.445C512 363.246 511.764 362.058 511.305 360.95C510.846 359.842 510.174 358.835 509.325 357.987C508.477 357.139 507.471 356.466 506.362 356.007C505.254 355.548 504.067 355.312 502.867 355.312Z" fill="#BEBFC0"/>
<path d="M475.785 296.517C473.587 296.517 471.479 297.39 469.925 298.945C468.37 300.499 467.497 302.607 467.497 304.805V319.739C467.497 321.937 468.37 324.045 469.925 325.6C471.479 327.154 473.587 328.027 475.785 328.027H496.408V296.518H475.785V296.517Z" fill="#FFD46B"/>
<path d="M407.89 280.924H388.2C384.969 280.924 381.871 282.207 379.587 284.492C377.302 286.776 376.019 289.874 376.019 293.105V293.105C376.019 296.335 377.302 299.434 379.587 301.718C381.871 304.002 384.969 305.286 388.2 305.286H407.89C411.121 305.286 414.219 304.002 416.503 301.718C418.788 299.434 420.071 296.335 420.071 293.105V293.105C420.071 289.874 418.788 286.776 416.503 284.492C414.219 282.207 411.121 280.924 407.89 280.924V280.924Z" fill="#ECECED"/>
<path d="M415.361 453.9C441.464 453.9 462.625 432.739 462.625 406.636C462.625 380.533 441.464 359.372 415.361 359.372C389.258 359.372 368.097 380.533 368.097 406.636C368.097 432.739 389.258 453.9 415.361 453.9Z" fill="#454F58"/>
<path d="M415.361 424.502C425.228 424.502 433.227 416.503 433.227 406.636C433.227 396.769 425.228 388.77 415.361 388.77C405.494 388.77 397.495 396.769 397.495 406.636C397.495 416.503 405.494 424.502 415.361 424.502Z" fill="#BEBFC0"/>
<path d="M261.03 453.9C287.133 453.9 308.294 432.739 308.294 406.636C308.294 380.533 287.133 359.372 261.03 359.372C234.927 359.372 213.766 380.533 213.766 406.636C213.766 432.739 234.927 453.9 261.03 453.9Z" fill="#454F58"/>
<path d="M261.03 424.502C270.897 424.502 278.896 416.503 278.896 406.636C278.896 396.769 270.897 388.77 261.03 388.77C251.163 388.77 243.164 396.769 243.164 406.636C243.164 416.503 251.163 424.502 261.03 424.502Z" fill="#BEBFC0"/>
<path d="M106.699 453.9C132.802 453.9 153.963 432.739 153.963 406.636C153.963 380.533 132.802 359.372 106.699 359.372C80.5959 359.372 59.4351 380.533 59.4351 406.636C59.4351 432.739 80.5959 453.9 106.699 453.9Z" fill="#454F58"/>
<path d="M106.699 424.502C116.566 424.502 124.565 416.503 124.565 406.636C124.565 396.769 116.566 388.77 106.699 388.77C96.8319 388.77 88.833 396.769 88.833 406.636C88.833 416.503 96.8319 424.502 106.699 424.502Z" fill="#BEBFC0"/>
</svg>
