<svg width="512" height="512" viewBox="0 0 512 512" fill="none" xmlns="http://www.w3.org/2000/svg">
<path d="M77.7899 373.798C97.7495 373.798 113.93 357.618 113.93 337.658C113.93 317.698 97.7495 301.518 77.7899 301.518C57.8303 301.518 41.6499 317.698 41.6499 337.658C41.6499 357.618 57.8303 373.798 77.7899 373.798Z" fill="#5F75A1"/>
<path d="M180.79 373.798C200.749 373.798 216.93 357.618 216.93 337.658C216.93 317.698 200.749 301.518 180.79 301.518C160.83 301.518 144.65 317.698 144.65 337.658C144.65 357.618 160.83 373.798 180.79 373.798Z" fill="#5F75A1"/>
<path d="M283.79 373.798C303.749 373.798 319.93 357.618 319.93 337.658C319.93 317.698 303.749 301.518 283.79 301.518C263.83 301.518 247.65 317.698 247.65 337.658C247.65 357.618 263.83 373.798 283.79 373.798Z" fill="#5F75A1"/>
<path d="M386.79 373.798C406.749 373.798 422.93 357.618 422.93 337.658C422.93 317.698 406.749 301.518 386.79 301.518C366.83 301.518 350.65 317.698 350.65 337.658C350.65 357.618 366.83 373.798 386.79 373.798Z" fill="#5F75A1"/>
<path d="M424.125 337.654H18.33C13.4686 337.654 8.80627 335.723 5.36873 332.285C1.93119 328.848 0 324.185 0 319.324L0 108.33C0 103.469 1.93119 98.8063 5.36873 95.3687C8.80627 91.9312 13.4686 90 18.33 90H229.64C319.542 90.0003 406.432 122.397 474.39 181.253V181.253C486.195 191.477 495.663 204.121 502.152 218.326C508.641 232.531 512 247.965 512 263.582V276.015C512 284.821 509.737 293.478 505.428 301.158C501.119 308.837 494.909 315.28 487.393 319.868V319.868C468.34 331.5 446.448 337.654 424.125 337.654Z" fill="#E8E9EA"/>
<path d="M352.568 275.268L340.178 263.575C334.634 258.328 327.289 255.41 319.656 255.421H0V270.421H319.656C323.46 270.415 327.12 271.87 329.883 274.484L342.273 286.176C343.724 287.515 345.645 288.228 347.618 288.16C349.591 288.091 351.458 287.248 352.813 285.812C354.169 284.376 354.903 282.463 354.857 280.489C354.811 278.515 353.989 276.639 352.568 275.268V275.268Z" fill="#95D4E9"/>
<path d="M0 301.22V319.32C-7.23384e-09 324.181 1.93116 328.844 5.36867 332.281C8.80619 335.719 13.4685 337.651 18.33 337.651H424.13C446.453 337.651 468.345 331.497 487.398 319.865C494.894 315.291 501.092 308.87 505.398 301.217L0 301.22Z" fill="#95D4E9"/>
<path d="M474.39 181.254C454.548 164.077 432.952 149.038 409.959 136.386H351.893C350.105 136.386 348.358 136.923 346.878 137.927C345.398 138.931 344.254 140.357 343.593 142.019C342.933 143.681 342.787 145.502 343.174 147.249C343.56 148.995 344.463 150.584 345.763 151.812L364.409 169.412C387.619 191.314 418.324 203.513 450.236 203.512H493.936C488.465 195.237 481.889 187.748 474.39 181.254V181.254Z" fill="#6CB6DE"/>
<path d="M0 203.514H317.5C319.71 203.514 321.868 202.85 323.697 201.61C325.525 200.369 326.938 198.608 327.754 196.554C328.57 194.501 328.751 192.25 328.273 190.092C327.795 187.935 326.68 185.971 325.073 184.455L281.173 143.019C276.657 138.757 270.682 136.383 264.473 136.385H0V203.514Z" fill="#6CB6DE"/>
<path opacity="0.1" d="M232.29 136.388H129.29V337.658H232.29V136.388Z" fill="black"/>
<path d="M493.67 421.276H18.33C13.4686 421.276 8.80627 419.345 5.36873 415.907C1.93119 412.47 0 407.807 0 402.946L0 392.128C0 387.266 1.93119 382.604 5.36873 379.167C8.80627 375.729 13.4686 373.798 18.33 373.798H493.67C498.531 373.798 503.194 375.729 506.631 379.167C510.069 382.604 512 387.266 512 392.128V402.945C512 407.806 510.069 412.469 506.631 415.906C503.194 419.344 498.532 421.276 493.67 421.276Z" fill="#4A5359"/>
<path opacity="0.1" d="M124.66 373.798H18.33C13.4686 373.798 8.80627 375.729 5.36873 379.167C1.93119 382.604 0 387.266 0 392.128L0 402.945C-7.23384e-09 407.806 1.93116 412.469 5.36867 415.906C8.80619 419.344 13.4685 421.276 18.33 421.276H126.236C112.451 411.86 113.615 381.622 124.66 373.798Z" fill="black"/>
<path d="M207.584 241.457H188.612C186.623 241.457 184.715 240.667 183.309 239.26C181.902 237.854 181.112 235.946 181.112 233.957C181.112 231.968 181.902 230.06 183.309 228.654C184.715 227.247 186.623 226.457 188.612 226.457H207.584C209.573 226.457 211.481 227.247 212.887 228.654C214.294 230.06 215.084 231.968 215.084 233.957C215.084 235.946 214.294 237.854 212.887 239.26C211.481 240.667 209.573 241.457 207.584 241.457V241.457Z" fill="#4A5359"/>
<path d="M467.925 278.909H459.4C455.55 278.909 451.786 277.773 448.58 275.642C445.374 273.512 442.868 270.482 441.376 266.933L431.584 243.638C431.138 242.578 430.962 241.424 431.07 240.279C431.178 239.134 431.568 238.033 432.204 237.075C432.841 236.117 433.704 235.331 434.718 234.788C435.732 234.244 436.864 233.96 438.014 233.96H442.314C448.933 233.96 455.404 235.914 460.917 239.577C466.429 243.24 470.738 248.448 473.303 254.55L477.491 264.514C478.153 266.091 478.415 267.808 478.254 269.511C478.092 271.214 477.512 272.85 476.566 274.275C475.619 275.7 474.335 276.868 472.827 277.677C471.32 278.485 469.636 278.908 467.925 278.909V278.909Z" fill="#FFCE71"/>
<path opacity="0.05" d="M61.548 90H18.33C13.4686 90 8.80627 91.9312 5.36873 95.3687C1.93119 98.8063 0 103.469 0 108.33L0 319.323C-7.23384e-09 324.185 1.93116 328.847 5.36867 332.285C8.80619 335.722 13.4685 337.654 18.33 337.654H102.354C52.509 296.22 61.548 134.738 61.548 90Z" fill="black"/>
</svg>
