<svg width="512" height="512" viewBox="0 0 512 512" fill="none" xmlns="http://www.w3.org/2000/svg">
<path d="M120.64 113.77H155.417V154.048H120.64V113.77Z" fill="#4E5660"/>
<path d="M310.99 113.77H345.767V154.048H310.99V113.77Z" fill="#4E5660"/>
<path d="M458.417 76H53.5841C49.4751 76 45.5344 77.6323 42.6289 80.5378C39.7234 83.4433 38.0911 87.384 38.0911 91.493V98.275C38.0911 102.384 39.7234 106.325 42.6289 109.23C45.5344 112.136 49.4751 113.768 53.5841 113.768H458.417C462.526 113.768 466.467 112.136 469.372 109.23C472.278 106.325 473.91 102.384 473.91 98.275V91.493C473.91 87.3841 472.277 83.4435 469.372 80.5381C466.467 77.6326 462.526 76.0003 458.417 76V76Z" fill="#C5C5C5"/>
<path d="M202.66 76H53.5841C51.5494 76 49.5347 76.4008 47.6549 77.1794C45.7752 77.9581 44.0672 79.0994 42.6285 80.5381C41.1898 81.9769 40.0486 83.685 39.2701 85.5648C38.4916 87.4446 38.0909 89.4593 38.0911 91.494V98.276C38.0911 102.385 39.7234 106.326 42.6289 109.231C45.5344 112.137 49.4751 113.769 53.5841 113.769H209.89C203.217 105.078 198.754 89.602 202.66 76V76Z" fill="#99A2B0"/>
<path d="M460.516 397.257H51.484C47.63 397.257 43.8137 396.498 40.253 395.023C36.6923 393.548 33.457 391.386 30.7318 388.661C28.0066 385.936 25.8448 382.701 24.37 379.14C22.8951 375.579 22.136 371.763 22.136 367.909V230.442C22.136 210.18 30.1846 190.748 44.5113 176.421C58.838 162.093 78.2693 154.043 98.531 154.042H376.613C388.446 154.042 400.118 156.792 410.708 162.073C421.297 167.354 430.515 175.023 437.635 184.475L457.223 210.481C478.406 238.605 489.862 272.858 489.862 308.067V367.904C489.863 371.758 489.105 375.575 487.63 379.136C486.156 382.698 483.994 385.934 481.269 388.659C478.544 391.385 475.309 393.547 471.748 395.022C468.187 396.498 464.37 397.257 460.516 397.257V397.257Z" fill="#FBF1CF"/>
<path d="M133.6 154.047H98.531C78.2693 154.048 58.838 162.098 44.5113 176.426C30.1846 190.753 22.136 210.185 22.136 230.447V367.91C22.136 375.693 25.228 383.158 30.7318 388.662C36.2356 394.166 43.7004 397.258 51.484 397.258H173.254C129.064 340.633 129.493 245.964 133.602 154.047H133.6Z" fill="#F5E2A2"/>
<path d="M22.137 367.91C22.137 371.764 22.8961 375.58 24.3709 379.141C25.8458 382.702 28.0076 385.937 30.7328 388.662C33.458 391.387 36.6933 393.549 40.254 395.024C43.8146 396.499 47.6309 397.258 51.485 397.258H460.516C468.3 397.258 475.764 394.166 481.268 388.662C486.772 383.158 489.864 375.693 489.864 367.91V308.073C489.864 302.905 489.587 297.762 489.099 292.651H22.137V367.91Z" fill="#B39BDB"/>
<path d="M135.766 292.651H22.137V367.91C22.137 371.764 22.8961 375.58 24.3709 379.141C25.8458 382.702 28.0076 385.937 30.7328 388.662C33.458 391.387 36.6933 393.549 40.254 395.024C43.8146 396.499 47.6309 397.258 51.485 397.258H173.255C151.817 369.788 140.874 333.372 135.766 292.651Z" fill="#8F8BD5"/>
<path d="M489.863 327.594H465.045C460.858 327.594 456.842 329.258 453.881 332.218C450.92 335.179 449.256 339.195 449.256 343.382V362.859H489.863V327.594Z" fill="#F6EE86"/>
<path d="M22.137 327.594H46.955C51.1422 327.594 55.1579 329.258 58.1188 332.218C61.0796 335.179 62.743 339.195 62.743 343.382V362.859H22.137V327.594Z" fill="#F6EE86"/>
<path d="M68.158 412.193H15.146C11.129 412.193 7.27659 410.597 4.43616 407.757C1.59573 404.916 0 401.064 0 397.047L0 378.005C0 373.988 1.59573 370.135 4.43616 367.295C7.27659 364.455 11.129 362.859 15.146 362.859H68.158V412.193Z" fill="#A2DDFD"/>
<path d="M116.484 461.055C151.719 461.055 180.282 432.492 180.282 397.257C180.282 362.022 151.719 333.459 116.484 333.459C81.2494 333.459 52.686 362.022 52.686 397.257C52.686 432.492 81.2494 461.055 116.484 461.055Z" fill="#4E5660"/>
<path d="M140.824 407.426C146.379 394.025 140.018 378.658 126.617 373.103C113.216 367.548 97.8488 373.909 92.294 387.31C86.7391 400.711 93.0999 416.078 106.501 421.633C119.902 427.188 135.269 420.827 140.824 407.426Z" fill="#C5C5C5"/>
<path d="M443.842 412.193H496.854C500.871 412.193 504.723 410.597 507.564 407.757C510.404 404.916 512 401.064 512 397.047V378.005C512 373.988 510.404 370.135 507.564 367.295C504.723 364.455 500.871 362.859 496.854 362.859H443.842V412.193Z" fill="#A2DDFD"/>
<path d="M395.516 461.055C430.751 461.055 459.314 432.492 459.314 397.257C459.314 362.022 430.751 333.459 395.516 333.459C360.281 333.459 331.718 362.022 331.718 397.257C331.718 432.492 360.281 461.055 395.516 461.055Z" fill="#4E5660"/>
<path d="M409.552 419.625C421.892 411.997 425.712 395.811 418.085 383.471C410.458 371.131 394.271 367.31 381.931 374.938C369.591 382.565 365.771 398.752 373.398 411.091C381.026 423.431 397.212 427.252 409.552 419.625Z" fill="#C5C5C5"/>
<path d="M457.224 210.487L443.753 192.603H399.121C394.943 192.603 390.936 194.263 387.981 197.217C385.027 200.172 383.367 204.179 383.367 208.357V237.534C383.367 239.603 383.774 241.651 384.566 243.563C385.358 245.474 386.518 247.211 387.981 248.673C389.444 250.136 391.181 251.297 393.092 252.088C395.004 252.88 397.052 253.287 399.121 253.287H480.3C474.804 237.942 467.026 223.513 457.228 210.487H457.224Z" fill="#A2DDFD"/>
<path d="M167.7 253.286H295.326C300.307 253.286 305.085 251.307 308.607 247.785C312.129 244.263 314.108 239.485 314.108 234.504V211.384C314.108 206.403 312.129 201.625 308.607 198.103C305.085 194.581 300.307 192.602 295.326 192.602H167.7C162.719 192.602 157.941 194.581 154.419 198.103C150.897 201.625 148.918 206.403 148.918 211.384V234.504C148.918 236.971 149.404 239.413 150.348 241.692C151.292 243.97 152.675 246.041 154.419 247.785C156.163 249.529 158.234 250.912 160.512 251.856C162.791 252.8 165.233 253.286 167.7 253.286V253.286Z" fill="#A2DDFD"/>
<path d="M49.309 253.286C51.3782 253.286 53.4271 252.878 55.3387 252.086C57.2504 251.294 58.9872 250.134 60.4502 248.67C61.9131 247.207 63.0735 245.47 63.865 243.558C64.6564 241.646 65.0635 239.597 65.063 237.528V208.356C65.063 204.178 63.4032 200.171 60.4488 197.216C57.4943 194.262 53.4872 192.602 49.309 192.602H32.177C25.5839 204.122 22.1224 217.168 22.137 230.442V253.286H49.309Z" fill="#7ACDF9"/>
<path d="M293.486 335.92H278.029C276.04 335.92 274.132 335.13 272.726 333.723C271.319 332.317 270.529 330.409 270.529 328.42C270.529 326.431 271.319 324.523 272.726 323.117C274.132 321.71 276.04 320.92 278.029 320.92H293.486C295.475 320.92 297.383 321.71 298.789 323.117C300.196 324.523 300.986 326.431 300.986 328.42C300.986 330.409 300.196 332.317 298.789 333.723C297.383 335.13 295.475 335.92 293.486 335.92Z" fill="white"/>
<path d="M167.7 192.602C165.233 192.602 162.791 193.088 160.512 194.032C158.234 194.976 156.163 196.359 154.419 198.103C152.675 199.847 151.292 201.918 150.348 204.196C149.404 206.475 148.918 208.918 148.918 211.384V234.504C148.918 239.485 150.897 244.263 154.419 247.785C157.941 251.307 162.719 253.286 167.7 253.286H178.406L239.09 192.602H167.7Z" fill="#7ACDF9"/>
<path d="M480.3 253.286C475.585 240.143 469.196 227.662 461.289 216.153L424.156 253.286H480.3Z" fill="#7ACDF9"/>
</svg>
