<svg width="512" height="512" viewBox="0 0 512 512" fill="none" xmlns="http://www.w3.org/2000/svg">
<path d="M103.773 56.8682C102.788 56.8687 101.813 56.6746 100.903 56.2971C99.9939 55.9195 99.1679 55.366 98.473 54.6682L65.933 22.1282C63.6767 19.8606 60.9931 18.063 58.0374 16.8395C55.0818 15.616 51.9129 14.9908 48.714 15.0002H36.5C34.5109 15.0002 32.6032 14.21 31.1967 12.8035C29.7902 11.3969 29 9.48928 29 7.50016C29 5.51104 29.7902 3.60338 31.1967 2.19686C32.6032 0.790335 34.5109 0.000158868 36.5 0.000158868H48.713C53.8832 -0.0145807 59.0049 0.996464 63.7816 2.97475C68.5583 4.95304 72.8952 7.85927 76.541 11.5252L109.081 44.0652C110.129 45.114 110.842 46.4498 111.131 47.9038C111.419 49.3578 111.271 50.8648 110.704 52.2344C110.137 53.604 109.176 54.7749 107.944 55.5991C106.712 56.4233 105.263 56.8639 103.781 56.8652L103.773 56.8682Z" fill="#287D99"/>
<path d="M378.563 316.686H123.702C120.529 316.687 117.387 316.062 114.456 314.848C111.525 313.634 108.861 311.855 106.617 309.611C104.374 307.368 102.594 304.704 101.38 301.773C100.166 298.842 99.5409 295.7 99.541 292.527V97.4793C99.5569 91.7144 98.4294 86.0036 96.2237 80.6773C94.0181 75.3511 90.778 70.5151 86.691 66.4493C82.1606 61.9186 79.6155 55.7738 79.6157 49.3666C79.6159 42.9594 82.1613 36.8147 86.692 32.2843C91.2227 27.7539 97.3676 25.2088 103.775 25.209C110.182 25.2092 116.327 27.7546 120.857 32.2853C129.444 40.8272 136.252 50.9873 140.886 62.1776C145.521 73.3679 147.89 85.3663 147.857 97.4783V268.368H378.557C384.964 268.368 391.109 270.914 395.64 275.444C400.171 279.975 402.716 286.12 402.716 292.527C402.716 298.935 400.171 305.08 395.64 309.61C391.109 314.141 384.964 316.686 378.557 316.686H378.563Z" fill="#7FDBD5"/>
<path opacity="0.1" d="M147.86 227.633C116.56 234.627 104.69 170.008 99.543 124.166V292.528C99.543 298.935 102.088 305.08 106.619 309.61C111.149 314.141 117.294 316.686 123.701 316.686H310.711C294.811 307.307 275.834 291.737 268.504 268.369H147.86V227.633Z" fill="black"/>
<path d="M432.979 411.394C423.031 411.394 413.306 414.344 405.034 419.871C396.762 425.398 390.315 433.254 386.508 442.445C382.701 451.636 381.705 461.75 383.645 471.507C385.586 481.264 390.377 490.227 397.412 497.262C404.446 504.296 413.409 509.087 423.166 511.028C432.923 512.968 443.037 511.972 452.228 508.165C461.419 504.358 469.275 497.911 474.802 489.639C480.329 481.367 483.279 471.642 483.279 461.694C483.279 448.354 477.98 435.56 468.546 426.127C459.113 416.693 446.319 411.394 432.979 411.394ZM432.979 486.461C428.081 486.461 423.293 485.009 419.22 482.288C415.147 479.567 411.973 475.7 410.098 471.174C408.224 466.649 407.733 461.67 408.689 456.866C409.644 452.062 412.003 447.649 415.467 444.186C418.93 440.722 423.343 438.364 428.147 437.409C432.951 436.453 437.93 436.944 442.455 438.819C446.98 440.693 450.848 443.868 453.569 447.941C456.29 452.014 457.742 456.802 457.741 461.7C457.74 468.267 455.131 474.565 450.487 479.208C445.844 483.852 439.546 486.46 432.979 486.461V486.461Z" fill="#495059"/>
<path d="M307.473 324.186C305.484 324.186 303.576 323.396 302.17 321.989C300.763 320.583 299.973 318.675 299.973 316.686V210.772C299.967 205.655 297.931 200.75 294.313 197.132C290.695 193.514 285.79 191.479 280.673 191.472H135.132C133.143 191.472 131.235 190.682 129.829 189.275C128.422 187.869 127.632 185.961 127.632 183.972C127.632 181.983 128.422 180.075 129.829 178.669C131.235 177.262 133.143 176.472 135.132 176.472H280.671C289.765 176.483 298.483 180.1 304.913 186.53C311.343 192.961 314.96 201.679 314.971 210.772V316.686C314.971 318.675 314.181 320.582 312.775 321.989C311.369 323.395 309.462 324.186 307.473 324.186Z" fill="#287D99"/>
<path d="M432.979 469.2C431.994 469.2 431.019 469.006 430.109 468.629C429.2 468.251 428.374 467.698 427.679 467L405.838 445.16C400.773 440.123 396.757 434.131 394.024 427.531C391.29 420.931 389.892 413.854 389.912 406.711V247.094C389.905 241.977 387.87 237.072 384.252 233.454C380.634 229.836 375.729 227.801 370.612 227.794H307.472C305.483 227.794 303.575 227.004 302.169 225.597C300.762 224.191 299.972 222.283 299.972 220.294C299.972 218.305 300.762 216.397 302.169 214.991C303.575 213.584 305.483 212.794 307.472 212.794H370.606C379.7 212.805 388.418 216.422 394.848 222.852C401.278 229.282 404.895 238 404.906 247.094V406.711C404.892 411.884 405.905 417.008 407.885 421.787C409.865 426.566 412.773 430.905 416.441 434.553L438.282 456.393C439.329 457.442 440.043 458.778 440.332 460.232C440.62 461.686 440.472 463.193 439.905 464.562C439.338 465.932 438.377 467.103 437.145 467.927C435.913 468.751 434.464 469.192 432.982 469.193L432.979 469.2Z" fill="#287D99"/>
<path d="M397.409 324.186H239.114C237.125 324.186 235.217 323.396 233.811 321.989C232.404 320.583 231.614 318.675 231.614 316.686C231.614 314.697 232.404 312.789 233.811 311.383C235.217 309.976 237.125 309.186 239.114 309.186H397.409C399.398 309.186 401.306 309.976 402.712 311.383C404.119 312.789 404.909 314.697 404.909 316.686C404.909 318.675 404.119 320.583 402.712 321.989C401.306 323.396 399.398 324.186 397.409 324.186Z" fill="#287D99"/>
<path d="M256.967 313.581L239.114 295.729L169.608 365.234L100.102 295.729L82.25 313.581L151.75 383.087L82.25 452.593L100.102 470.446L169.608 400.94L239.114 470.446L256.967 452.593L187.461 383.087L256.967 313.581Z" fill="#BDC0C3"/>
<g opacity="0.1">
<path opacity="0.1" d="M124.194 319.821L100.102 295.729L82.249 313.582L106.341 337.674C111.291 330.799 117.319 324.771 124.194 319.821V319.821Z" fill="black"/>
<path opacity="0.1" d="M232.875 337.673L256.967 313.581L239.114 295.728L215.022 319.82C221.896 324.77 227.925 330.799 232.875 337.673V337.673Z" fill="black"/>
<path opacity="0.1" d="M106.341 428.5L82.25 452.593L100.103 470.446L124.195 446.354C117.32 441.404 111.291 435.375 106.341 428.5V428.5Z" fill="black"/>
<path opacity="0.1" d="M215.022 446.353L239.114 470.445L256.967 452.592L232.875 428.5C227.925 435.375 221.897 441.403 215.022 446.353V446.353Z" fill="black"/>
</g>
<path d="M169.611 417.567C188.652 417.567 204.088 402.131 204.088 383.09C204.088 364.049 188.652 348.613 169.611 348.613C150.57 348.613 135.134 364.049 135.134 383.09C135.134 402.131 150.57 417.567 169.611 417.567Z" fill="#495059"/>
<path d="M169.608 254.174C144.111 254.174 119.187 261.735 97.9878 275.9C76.7881 290.065 60.265 310.199 50.5079 333.754C40.7508 357.31 38.1979 383.23 43.172 408.237C48.1462 433.244 60.4239 456.214 78.4527 474.243C96.4816 492.271 119.452 504.549 144.458 509.523C169.465 514.497 195.385 511.945 218.941 502.187C242.497 492.43 262.63 475.907 276.795 454.708C290.96 433.508 298.521 408.584 298.521 383.087C298.482 348.909 284.888 316.142 260.721 291.975C236.553 267.807 203.786 254.213 169.608 254.174V254.174ZM169.608 476.014C151.229 476.014 133.262 470.564 117.981 460.353C102.699 450.142 90.7881 435.629 83.7547 418.649C76.7212 401.669 74.881 382.984 78.4666 364.958C82.0522 346.932 90.9026 330.374 103.899 317.378C116.895 304.382 133.453 295.531 151.479 291.946C169.505 288.36 188.189 290.201 205.17 297.234C222.15 304.267 236.663 316.178 246.874 331.46C257.085 346.742 262.535 364.708 262.535 383.087C262.507 407.725 252.708 431.345 235.287 448.766C217.865 466.187 194.245 475.987 169.608 476.014V476.014Z" fill="#495059"/>
<path d="M290.841 197.823H198.096C195.361 197.823 192.737 196.736 190.803 194.802C188.869 192.868 187.782 190.244 187.782 187.509V179.174C187.782 174.94 189.464 170.879 192.458 167.885C195.452 164.891 199.513 163.209 203.747 163.209H285.185C289.419 163.209 293.48 164.891 296.474 167.885C299.468 170.879 301.15 174.94 301.15 179.174V187.509C301.15 190.244 300.064 192.866 298.131 194.801C296.198 196.735 293.576 197.822 290.841 197.823V197.823Z" fill="#7FDBD5"/>
<path opacity="0.1" d="M241.063 197.823C221.472 191.809 217.314 170.452 220.538 163.209H203.748C199.514 163.209 195.453 164.891 192.459 167.885C189.465 170.879 187.783 174.94 187.783 179.174V187.509C187.783 190.244 188.87 192.868 190.804 194.802C192.738 196.736 195.362 197.823 198.097 197.823H241.063Z" fill="black"/>
</svg>
