<svg width="512" height="512" viewBox="0 0 512 512" fill="none" xmlns="http://www.w3.org/2000/svg">
<path d="M241.531 57.488C236.605 57.172 231.645 57 226.641 57C101.469 57 -0.000233032 158.469 -0.000233032 283.641C-0.0552599 320.221 8.78755 356.266 25.7658 388.668C33.6253 403.616 45.4238 416.13 59.8842 424.855C74.3446 433.58 90.9161 438.184 107.805 438.168H160.278C159.329 436.547 158.403 434.91 157.528 433.238L241.531 57.488Z" fill="#53A3EC"/>
<path d="M430.227 183.945C412.677 148.131 385.99 117.581 352.86 95.378C319.729 73.175 281.327 60.1053 241.531 57.488C185.409 100.111 146.186 161.223 130.811 229.998C115.436 298.773 124.901 370.77 157.531 433.234C158.406 434.91 159.331 436.547 160.281 438.164H194.191C205.014 438.164 215.731 436.033 225.73 431.892C235.73 427.75 244.815 421.68 252.469 414.027C260.122 406.374 266.193 397.288 270.335 387.289C274.477 377.29 276.609 366.573 276.609 355.75C276.608 339.516 279.806 323.441 286.018 308.443C292.23 293.444 301.336 279.817 312.815 268.337C324.294 256.858 337.921 247.752 352.92 241.539C367.918 235.327 383.993 232.129 400.227 232.129C405.906 232.127 411.491 230.679 416.455 227.921C421.42 225.163 425.6 221.185 428.602 216.364C431.603 211.543 433.328 206.037 433.612 200.365C433.896 194.693 432.731 189.042 430.227 183.945Z" fill="#64B3FB"/>
<path d="M214.793 355.754V375.324C214.792 385.906 216.875 396.384 220.924 406.16C224.972 415.936 230.907 424.819 238.39 432.302C245.872 439.784 254.755 445.719 264.531 449.768C274.307 453.817 284.785 455.901 295.367 455.9H444.723C462.566 455.9 479.678 448.812 492.295 436.195C504.912 423.578 512 406.466 512 388.623C512 370.779 504.912 353.667 492.295 341.05C479.678 328.433 462.566 321.345 444.723 321.345H342.535V212.4C360.868 205 380.456 201.207 400.226 201.228H440.265C444.363 201.228 448.294 199.6 451.192 196.702C454.09 193.804 455.718 189.873 455.718 185.775C455.718 181.677 454.09 177.746 451.192 174.848C448.294 171.95 444.363 170.322 440.265 170.322H400.227C297.977 170.32 214.793 253.5 214.793 355.754ZM311.629 321.344H249.559C258.149 284.016 280.262 251.194 311.629 229.211V321.344ZM342.535 424.992V352.246H392.785C396.062 354.023 403.672 366.762 403.672 388.621C403.672 410.48 396.063 423.221 392.781 424.992H342.535ZM444.723 424.992H428.465C436.616 401.428 436.616 375.81 428.465 352.246H444.723C454.369 352.246 463.621 356.078 470.442 362.899C477.264 369.721 481.096 378.972 481.096 388.619C481.096 398.266 477.264 407.517 470.442 414.339C463.621 421.16 454.369 424.992 444.723 424.992ZM245.738 352.246H311.629V424.992H295.367C282.195 424.99 269.562 419.757 260.248 410.443C250.934 401.129 245.701 388.496 245.7 375.324C245.7 354.051 245.684 354.574 245.738 352.246Z" fill="#D4D4D5"/>
</svg>
