<svg width="513" height="512" viewBox="0 0 513 512" fill="none" xmlns="http://www.w3.org/2000/svg">
<path d="M473.386 22.1841C452.17 5.32618 425.127 -2.41395 398.205 0.666299C371.283 3.74654 346.687 17.3949 329.827 38.6091L52.7571 407.738V459.25H104.265L473.386 182.172C479.44 177.306 484.948 171.797 489.812 165.742C498.16 155.238 504.357 143.192 508.049 130.292C511.742 117.392 512.857 103.892 511.332 90.5611C509.807 77.2304 505.67 64.3307 499.16 52.5985C492.649 40.8664 483.891 30.5315 473.386 22.1841Z" fill="#CE857A"/>
<path d="M473.386 22.1841C452.17 5.32618 425.127 -2.41395 398.205 0.666299C371.283 3.74654 346.687 17.3949 329.827 38.6091L52.7571 407.738V459.25H104.265L139.39 432.883L377.983 115.02C384.042 106.947 391.658 100.17 400.381 95.0906C409.104 90.0109 418.756 86.7313 428.768 85.4454C438.78 84.1596 448.948 84.8937 458.671 87.6043C468.394 90.3149 477.475 94.9471 485.378 101.227L510.261 121C513.685 102.733 512.061 83.8775 505.563 66.465C499.065 49.0525 487.94 33.7425 473.386 22.1841Z" fill="#C77464"/>
<path d="M82.4131 512C78.3535 512.006 74.3329 511.209 70.5823 509.656C66.8317 508.102 63.425 505.823 60.5581 502.949L9.05006 451.438C3.28182 445.636 0.0492799 437.784 0.0610673 429.603C0.0728547 421.422 3.32801 413.579 9.11294 407.794C14.8979 402.009 22.7406 398.754 30.9218 398.742C39.103 398.73 46.9552 401.962 52.7571 407.73L104.269 459.242C108.594 463.564 111.539 469.071 112.733 475.067C113.927 481.063 113.315 487.278 110.975 492.926C108.635 498.575 104.672 503.402 99.5882 506.797C94.504 510.192 88.5268 512.003 82.4131 512Z" fill="#CE857A"/>
<path d="M385.042 67.047C383.592 65.5987 381.627 64.7852 379.577 64.7852C377.528 64.7852 375.562 65.5987 374.112 67.047L366.831 74.332C365.382 75.7809 364.567 77.7462 364.567 79.7956C364.567 81.845 365.38 83.8106 366.829 85.26C368.278 86.7095 370.243 87.5239 372.293 87.5243C374.342 87.5247 376.308 86.7109 377.757 85.262L385.042 77.977C386.49 76.5271 387.304 74.5615 387.304 72.512C387.304 70.4626 386.49 68.497 385.042 67.047Z" fill="#313D40"/>
<path d="M441.858 123.867C441.141 123.149 440.289 122.58 439.352 122.191C438.415 121.802 437.41 121.602 436.395 121.602C435.38 121.602 434.375 121.802 433.438 122.191C432.501 122.58 431.649 123.149 430.932 123.867L423.647 131.152C422.213 132.604 421.412 134.564 421.418 136.605C421.425 138.646 422.238 140.601 423.681 142.044C425.124 143.487 427.079 144.301 429.12 144.307C431.161 144.313 433.121 143.512 434.573 142.078L441.858 134.793C442.576 134.076 443.146 133.224 443.534 132.287C443.923 131.35 444.123 130.345 444.123 129.33C444.123 128.315 443.923 127.311 443.534 126.373C443.146 125.436 442.576 124.584 441.858 123.867Z" fill="#313D40"/>
<path d="M421.464 116.2C421.126 115.243 420.603 114.362 419.925 113.608C419.246 112.853 418.426 112.24 417.511 111.802C416.595 111.365 415.602 111.112 414.589 111.058C413.576 111.004 412.562 111.151 411.605 111.489C409.731 112.122 407.717 112.218 405.791 111.768C403.864 111.317 402.102 110.337 400.703 108.938C399.304 107.539 398.324 105.777 397.874 103.851C397.423 101.924 397.519 99.9104 398.152 98.036C398.497 97.0777 398.649 96.0607 398.599 95.0434C398.549 94.0262 398.299 93.0288 397.863 92.1087C397.426 91.1886 396.812 90.3638 396.055 89.6819C395.299 89 394.415 88.4743 393.455 88.1352C392.495 87.7961 391.477 87.6502 390.46 87.7059C389.443 87.7616 388.447 88.0178 387.529 88.4598C386.612 88.9018 385.791 89.5208 385.113 90.2813C384.436 91.0418 383.916 91.9287 383.582 92.891C381.978 97.5151 381.709 102.497 382.805 107.267C383.9 112.037 386.317 116.403 389.778 119.863C393.238 123.324 397.604 125.741 402.374 126.836C407.144 127.932 412.126 127.663 416.75 126.059C417.707 125.721 418.588 125.199 419.343 124.52C420.098 123.842 420.712 123.022 421.15 122.106C421.588 121.191 421.841 120.198 421.895 119.184C421.949 118.171 421.802 117.157 421.464 116.2Z" fill="#313D40"/>
<path d="M291.026 166.375C291.026 188.788 284.38 210.697 271.928 229.332C259.476 247.968 241.778 262.492 221.072 271.069C200.365 279.646 177.58 281.89 155.598 277.518C133.616 273.145 113.425 262.353 97.5767 246.505C81.7286 230.656 70.9359 210.465 66.5635 188.483C62.191 166.501 64.4351 143.716 73.012 123.009C81.5889 102.303 96.1134 84.6048 114.749 72.153C133.384 59.7013 155.293 53.0552 177.706 53.0552C207.76 53.0557 236.583 64.9949 257.835 86.2464C279.086 107.498 291.026 136.321 291.026 166.375Z" fill="#EFEDEE"/>
<path d="M181.757 57.1052C183.046 55.8202 184.357 54.5702 185.679 53.3352C170.165 52.2406 154.591 54.3514 139.927 59.5362C125.264 64.7211 111.825 72.8689 100.447 83.4725C89.0689 94.0761 79.9954 106.908 73.7914 121.171C67.5874 135.433 64.3857 150.819 64.3857 166.372C64.3857 181.925 67.5874 197.312 73.7914 211.574C79.9954 225.836 89.0689 238.668 100.447 249.272C111.825 259.875 125.264 268.023 139.927 273.208C154.591 278.393 170.165 280.504 185.679 279.409C184.355 278.179 183.046 276.929 181.757 275.639C167.408 261.29 156.025 244.255 148.26 225.507C140.494 206.759 136.497 186.665 136.497 166.372C136.497 146.079 140.494 125.985 148.26 107.237C156.025 88.4892 167.408 71.4543 181.757 57.1052Z" fill="#D4D4D5"/>
<path d="M179.019 226.344C169.479 204.988 153.961 186.849 134.339 174.119C114.716 161.389 91.8274 154.612 68.4371 154.605C67.0311 154.605 65.6011 154.628 64.1951 154.679C62.173 154.752 60.2601 155.615 58.8676 157.083C57.4752 158.551 56.7144 160.507 56.7487 162.53C56.783 164.553 57.6097 166.482 59.0512 167.902C60.4926 169.322 62.4337 170.12 64.4571 170.124C64.5511 170.124 64.6411 170.124 64.7341 170.124C65.9611 170.081 67.2111 170.058 68.4411 170.058C88.8446 170.066 108.81 175.978 125.927 187.083C143.045 198.187 156.582 214.008 164.906 232.636C165.311 233.575 165.898 234.425 166.633 235.135C167.369 235.846 168.238 236.403 169.191 236.775C170.143 237.147 171.16 237.326 172.182 237.302C173.205 237.278 174.212 237.052 175.146 236.635C176.08 236.219 176.922 235.622 177.623 234.878C178.325 234.133 178.872 233.257 179.232 232.3C179.592 231.343 179.759 230.324 179.722 229.303C179.686 228.281 179.447 227.276 179.019 226.347V226.344Z" fill="#EA5B70"/>
<path d="M179.417 251.43C178.413 251.577 177.448 251.921 176.577 252.441C175.706 252.961 174.946 253.648 174.341 254.462C173.735 255.276 173.296 256.202 173.048 257.185C172.801 258.169 172.749 259.192 172.897 260.196C173.645 265.311 174.021 270.472 174.022 275.641C174.022 276.871 174.002 278.118 173.956 279.348C173.885 281.396 174.63 283.389 176.028 284.887C177.426 286.386 179.361 287.268 181.409 287.34C181.503 287.34 181.593 287.34 181.686 287.34C183.688 287.339 185.61 286.56 187.049 285.169C188.488 283.778 189.331 281.883 189.401 279.883C189.452 278.477 189.475 277.047 189.475 275.637C189.474 269.718 189.043 263.807 188.186 257.95C187.888 255.923 186.796 254.097 185.152 252.874C183.507 251.651 181.445 251.132 179.417 251.43Z" fill="#EA5B70"/>
<path d="M174.858 81.4002C175.237 81.3998 175.616 81.3724 175.991 81.3182C178.019 81.0193 179.845 79.9277 181.068 78.2833C182.291 76.6388 182.811 74.576 182.514 72.5482C181.763 67.4354 181.386 62.2748 181.385 57.1072C181.385 55.8772 181.408 54.6302 181.451 53.4002C181.522 51.3525 180.777 49.3605 179.379 47.8622C177.982 46.3638 176.047 45.4818 173.999 45.4102C173.909 45.4102 173.815 45.4102 173.726 45.4102C171.724 45.411 169.801 46.1889 168.361 47.5798C166.921 48.9708 166.077 50.8664 166.007 52.8672C165.96 54.2732 165.933 55.7032 165.933 57.1132C165.934 63.0322 166.365 68.9435 167.222 74.8002C167.493 76.6326 168.413 78.3069 169.814 79.5182C171.216 80.7295 173.006 81.3973 174.858 81.4002Z" fill="#EA5B70"/>
<path d="M290.952 162.621C290.862 162.621 290.768 162.621 290.679 162.629C289.449 162.668 288.202 162.692 286.972 162.692C266.568 162.686 246.601 156.775 229.482 145.671C212.363 134.567 198.824 118.746 190.499 100.117C190.094 99.1781 189.507 98.3287 188.772 97.6182C188.036 96.9078 187.167 96.3504 186.215 95.9784C185.262 95.6064 184.245 95.4271 183.223 95.4511C182.201 95.4751 181.193 95.7017 180.259 96.1179C179.325 96.5342 178.483 97.1317 177.782 97.8758C177.08 98.6199 176.534 99.4959 176.173 100.453C175.813 101.41 175.646 102.429 175.683 103.451C175.719 104.473 175.958 105.477 176.386 106.406C185.926 127.762 201.444 145.901 221.067 158.63C240.69 171.36 263.578 178.138 286.968 178.144C288.378 178.144 289.804 178.117 291.214 178.07C293.237 177.997 295.151 177.134 296.544 175.665C297.936 174.196 298.697 172.239 298.662 170.215C298.627 168.191 297.8 166.262 296.357 164.842C294.915 163.422 292.972 162.624 290.948 162.621H290.952Z" fill="#EA5B70"/>
</svg>
