<svg width="512" height="512" viewBox="0 0 512 512" fill="none" xmlns="http://www.w3.org/2000/svg">
<path d="M61.813 309.055H450.188C458.305 309.055 466.343 307.456 473.843 304.35C481.342 301.243 488.156 296.69 493.896 290.95C499.636 285.21 504.189 278.396 507.295 270.897C510.401 263.397 512 255.359 512 247.242V105.727C511.991 94.0476 508.677 82.6091 502.442 72.7331C496.208 62.857 487.306 54.9463 476.766 49.915C407.81 17.0537 332.387 0.000976562 256 0.000976562C179.614 0.000976562 104.191 17.0537 35.235 49.915C24.6947 54.9462 15.7929 62.8568 9.558 72.7329C3.32308 82.6089 0.00947778 94.0474 8.08991e-09 105.727L8.08992e-09 247.242C-0.000131318 255.359 1.59862 263.397 4.70497 270.897C7.81131 278.396 12.3644 285.211 18.1043 290.951C23.8442 296.691 30.6585 301.244 38.158 304.35C45.6576 307.456 53.6956 309.055 61.813 309.055Z" fill="#9EA2A3"/>
<path d="M123.621 241.063V85.3949C123.63 72.547 127.275 59.964 134.133 49.0998C140.992 38.2357 150.784 29.5339 162.379 23.9999C180.01 15.5644 198.071 8.05945 216.488 1.51587C153.592 6.27577 92.13 22.688 35.234 49.9159C24.6941 54.9472 15.7926 62.8577 9.55784 72.7336C3.32312 82.6094 0.00957621 94.0476 8.08992e-09 105.727L8.08992e-09 247.242C-0.000131318 255.359 1.59862 263.397 4.70497 270.897C7.81131 278.396 12.3644 285.211 18.1043 290.951C23.8442 296.69 30.6585 301.244 38.158 304.35C45.6576 307.456 53.6956 309.055 61.813 309.055H191.613C173.58 309.055 156.287 301.891 143.536 289.14C130.785 276.389 123.621 259.095 123.621 241.063Z" fill="#82888B"/>
<path d="M61.8132 278.148C53.6192 278.139 45.7634 274.88 39.9693 269.086C34.1753 263.292 30.9162 255.436 30.9072 247.242V105.727C30.9355 99.882 32.6076 94.1628 35.7325 89.2231C38.8573 84.2834 43.3088 80.3225 48.5782 77.793C113.369 46.9246 184.232 30.9062 256 30.9062C327.768 30.9062 398.632 46.9246 463.422 77.793C468.692 80.3223 473.144 84.2832 476.269 89.2229C479.394 94.1626 481.066 99.8818 481.094 105.727V247.242C481.085 255.436 477.826 263.292 472.032 269.086C466.238 274.88 458.382 278.139 450.188 278.148H61.8132Z" fill="#EFEDEE"/>
<path d="M123.621 85.3949C123.622 71.2029 128.072 57.3682 136.344 45.8359C106.114 53.5922 76.7175 64.2958 48.5778 77.7929C43.3082 80.3223 38.8565 84.2832 35.7314 89.2229C32.6064 94.1626 30.9341 99.8818 30.9058 105.727V247.242C30.9148 255.436 34.1738 263.292 39.9679 269.086C45.7619 274.88 53.6177 278.139 61.8118 278.148H134.636C127.432 267.122 123.604 254.233 123.62 241.062L123.621 85.3949Z" fill="#D4D4D5"/>
<path d="M351.293 74.688H160.707C156.61 74.693 152.682 76.3227 149.786 79.2196C146.889 82.1165 145.259 86.0441 145.254 90.141V208.613C145.259 212.709 146.889 216.636 149.786 219.533C152.683 222.429 156.611 224.058 160.707 224.062H351.293C355.389 224.058 359.317 222.429 362.214 219.533C365.111 216.636 366.741 212.709 366.746 208.613V90.141C366.741 86.0441 365.111 82.1165 362.214 79.2196C359.317 76.3227 355.39 74.693 351.293 74.688ZM160.707 208.613V90.141H351.293L351.301 208.614L160.707 208.613Z" fill="#EA5B70"/>
<path d="M340.215 288.922L334.4 303.238C333.748 304.851 327.521 320.355 320.037 344.597H271.453V293.597H240.547V344.597H191.965C184.481 320.355 178.254 304.851 177.602 303.238L171.786 288.922L143.153 300.551L148.969 314.867C149.348 315.808 185.496 392.902 188.797 496.883C188.901 500.995 190.631 504.899 193.609 507.738C196.586 510.576 200.568 512.118 204.681 512.026C208.794 511.933 212.702 510.213 215.549 507.243C218.395 504.273 219.948 500.296 219.867 496.183V496.011H240.551V496.542C240.551 500.64 242.179 504.571 245.077 507.469C247.975 510.367 251.905 511.995 256.004 511.995C260.102 511.995 264.033 510.367 266.931 507.469C269.829 504.571 271.457 500.64 271.457 496.542V496.011H292.141C292.141 496.058 292.141 496.105 292.141 496.156C292.063 500.265 293.614 504.237 296.454 507.207C299.294 510.177 303.194 511.903 307.302 512.009C311.41 512.115 315.393 510.591 318.383 507.771C321.372 504.951 323.124 501.063 323.258 496.956C326.832 401.925 362.664 315.8 363.043 314.862L368.856 300.546L340.215 288.922ZM240.547 473.352H218.176C217.059 460.715 215.469 448.297 213.551 436.282H240.551L240.547 473.352ZM240.547 405.375H207.8C205.57 394.863 203.175 384.855 200.749 375.504H240.549L240.547 405.375ZM293.824 473.352H271.453V436.282H298.453C296.531 448.3 294.941 460.715 293.824 473.352ZM304.2 405.375H271.45V375.5H311.25C308.828 384.855 306.434 394.863 304.2 405.375Z" fill="#D4D4D5"/>
<path d="M138.016 247.242C129.819 247.242 121.958 250.498 116.162 256.294C110.366 262.09 107.109 269.952 107.109 278.148C107.109 286.345 110.366 294.207 116.162 300.003C121.958 305.799 129.819 309.055 138.016 309.055H261.637V247.242H138.016Z" fill="#D34459"/>
<path d="M395.559 278.148C395.549 269.954 392.29 262.099 386.496 256.305C380.702 250.511 372.847 247.251 364.653 247.242H261.637C253.44 247.242 245.579 250.498 239.783 256.294C233.987 262.09 230.73 269.952 230.73 278.148C230.73 286.345 233.987 294.207 239.783 300.003C245.579 305.799 253.44 309.055 261.637 309.055H364.652C372.846 309.046 380.703 305.787 386.497 299.993C392.291 294.199 395.55 286.342 395.559 278.148Z" fill="#EA5B70"/>
</svg>
