<svg width="512" height="512" viewBox="0 0 512 512" fill="none" xmlns="http://www.w3.org/2000/svg">
<path d="M415.6 56.348C400.366 39.2481 381.803 25.4379 361.045 15.7629C340.288 6.08803 317.774 0.75212 294.883 0.082C293.2 0.031 250.3 0 248.605 0C155.742 0 80 75.262 80 168.605C79.9977 201.416 89.5671 233.514 107.535 260.967C125.504 288.421 151.09 310.036 181.16 323.164L248.605 417.582L282.613 338.227L306.082 333.489C381.113 318.348 411.582 226.446 359.203 170.63C358.562 169.95 357.914 169.275 357.25 168.603H365.188C423.383 168.605 454.375 99.742 415.6 56.348Z" fill="#EA5B70"/>
<path d="M213.277 168.605H250.988L248.711 166.324C202.551 120.164 204.18 44.547 252.738 0.914L253.676 0.082C251.988 0.031 250.3 0 248.605 0C155.742 0 80 75.262 80 168.605C79.9977 201.416 89.5671 233.514 107.535 260.967C125.504 288.421 151.09 310.036 181.16 323.164L248.605 417.582L282.613 338.227C258.173 323.061 237.077 303.077 220.613 279.492C204.148 255.908 192.659 229.217 186.847 201.047C186.04 197.123 186.115 193.069 187.069 189.178C188.023 185.287 189.83 181.657 192.36 178.551C194.89 175.446 198.08 172.942 201.698 171.221C205.316 169.501 209.271 168.607 213.277 168.605Z" fill="#D34459"/>
<path d="M181.16 323.164C170.169 323.165 159.384 326.15 149.957 331.801C140.53 337.452 132.814 345.556 127.633 355.25C122.451 364.943 119.999 375.861 120.538 386.839C121.076 397.817 124.586 408.443 130.691 417.582C124.586 426.721 121.076 437.347 120.538 448.325C119.999 459.303 122.451 470.221 127.633 479.915C132.814 489.608 140.53 497.712 149.957 503.363C159.384 509.014 170.169 511.999 181.16 512H263.441V323.164H181.16Z" fill="#D34459"/>
<path d="M376.742 451.3C376.76 439.292 373.2 427.552 366.515 417.577C372.621 408.437 376.13 397.811 376.668 386.833C377.207 375.855 374.754 364.936 369.573 355.243C364.391 345.549 356.674 337.445 347.246 331.794C337.819 326.144 327.033 323.159 316.042 323.159H263.442C252.451 323.159 241.665 326.144 232.237 331.794C222.81 337.445 215.093 345.549 209.911 355.243C204.729 364.936 202.277 375.855 202.816 386.833C203.354 397.811 206.863 408.437 212.969 417.577C206.862 426.717 203.352 437.343 202.812 448.322C202.273 459.301 204.725 470.22 209.907 479.915C215.089 489.609 222.806 497.714 232.234 503.365C241.663 509.016 252.449 512 263.441 512H316.041C324.012 512 331.906 510.43 339.27 507.38C346.635 504.329 353.326 499.858 358.963 494.222C364.6 488.585 369.071 481.894 372.121 474.529C375.172 467.165 376.742 459.271 376.742 451.3Z" fill="#EA5B70"/>
<path d="M297.367 391.359L266.773 421.953C263.945 424.866 262.378 428.774 262.408 432.833C262.439 436.892 264.065 440.776 266.936 443.646C269.807 446.515 273.692 448.14 277.751 448.169C281.81 448.198 285.717 446.629 288.629 443.8L319.223 413.206C322.094 410.302 323.699 406.38 323.687 402.297C323.675 398.213 322.048 394.301 319.16 391.414C316.273 388.526 312.36 386.899 308.276 386.888C304.193 386.877 300.271 388.483 297.368 391.354L297.367 391.359Z" fill="#E8B5B1"/>
<path d="M266.773 391.359C265.338 392.794 264.2 394.497 263.423 396.372C262.646 398.247 262.247 400.256 262.247 402.285C262.247 404.314 262.646 406.324 263.423 408.198C264.2 410.073 265.338 411.776 266.773 413.211L297.367 443.8C298.799 445.248 300.503 446.399 302.381 447.187C304.259 447.974 306.275 448.382 308.311 448.388C310.348 448.394 312.366 447.997 314.248 447.221C316.131 446.444 317.842 445.303 319.282 443.863C320.722 442.423 321.863 440.712 322.64 438.83C323.417 436.947 323.814 434.93 323.809 432.893C323.803 430.856 323.395 428.841 322.608 426.963C321.821 425.084 320.67 423.38 319.222 421.948L288.628 391.354C285.729 388.457 281.798 386.829 277.699 386.83C273.601 386.831 269.67 388.46 266.773 391.359Z" fill="#F2D4D3"/>
<path d="M205.93 235.91H195.63C193.596 235.933 191.653 236.757 190.223 238.204C188.793 239.65 187.991 241.602 187.991 243.636C187.991 245.671 188.793 247.623 190.223 249.069C191.653 250.516 193.596 251.34 195.63 251.363H205.93C207.964 251.34 209.907 250.516 211.337 249.069C212.767 247.623 213.569 245.671 213.569 243.636C213.569 241.602 212.767 239.65 211.337 238.204C209.907 236.757 207.964 235.933 205.93 235.91Z" fill="#FF8E9E"/>
<path d="M337.793 235.91H327.493C325.459 235.933 323.516 236.757 322.086 238.204C320.656 239.65 319.854 241.602 319.854 243.636C319.854 245.671 320.656 247.623 322.086 249.069C323.516 250.516 325.459 251.34 327.493 251.363H337.793C339.827 251.34 341.77 250.516 343.2 249.069C344.63 247.623 345.432 245.671 345.432 243.636C345.432 241.602 344.63 239.65 343.2 238.204C341.77 236.757 339.827 235.933 337.793 235.91Z" fill="#FF8E9E"/>
</svg>
