<svg width="512" height="512" viewBox="0 0 512 512" fill="none" xmlns="http://www.w3.org/2000/svg">
<path d="M91.771 504.609C91.985 461.294 109.342 419.825 140.047 389.272C170.751 358.719 212.305 341.567 255.621 341.567C298.937 341.567 340.491 358.719 371.195 389.272C401.9 419.825 419.257 461.294 419.471 504.609H91.771Z" fill="#6E5A64"/>
<path d="M281.001 342.715C257.625 339.071 233.737 340.529 210.977 346.989C188.217 353.448 167.125 364.756 149.148 380.136C131.171 395.516 116.735 414.604 106.831 436.09C96.9265 457.576 91.7891 480.95 91.771 504.609H142.536C142.539 465.551 156.491 427.779 181.877 398.096C207.264 368.414 242.416 348.774 281.001 342.715Z" fill="#64505A"/>
<path d="M190.958 354.02V504.61H320.286V354.02C299.851 345.27 277.852 340.758 255.622 340.758C233.392 340.758 211.393 345.27 190.958 354.02Z" fill="#FFD164"/>
<path d="M255.622 299.348H196.872V351.618L255.622 410.36L314.372 351.618V299.348H255.622Z" fill="#E3AA75"/>
<path d="M274.888 429.629L255.618 410.359L322.684 343.289L341.957 362.562C344.122 364.728 345.338 367.666 345.338 370.728C345.338 373.791 344.122 376.728 341.957 378.894L291.219 429.628C290.147 430.701 288.874 431.552 287.473 432.132C286.072 432.713 284.57 433.012 283.054 433.012C281.537 433.012 280.035 432.713 278.634 432.133C277.233 431.552 275.96 430.702 274.888 429.629Z" fill="#FFE17D"/>
<path d="M344.564 366.578C343.988 365.071 343.1 363.703 341.959 362.562L322.686 343.289L279.53 386.449C302.205 383.688 324.218 376.962 344.564 366.578Z" fill="#FFD164"/>
<path d="M236.345 429.629L255.618 410.359L188.548 343.289L169.278 362.562C168.205 363.634 167.354 364.907 166.774 366.308C166.193 367.71 165.894 369.211 165.894 370.728C165.894 372.245 166.193 373.747 166.774 375.148C167.354 376.549 168.205 377.822 169.278 378.894L220.012 429.628C221.084 430.701 222.357 431.552 223.758 432.133C225.159 432.714 226.661 433.013 228.178 433.013C229.695 433.013 231.197 432.714 232.598 432.134C234 431.553 235.273 430.702 236.345 429.629Z" fill="#FFE17D"/>
<path d="M231.701 386.445L188.545 343.293L169.275 362.563C168.135 363.703 167.247 365.07 166.67 366.575C187.014 376.959 209.027 383.685 231.701 386.445Z" fill="#FFD164"/>
<path d="M196.872 299.348V351.618L231.708 386.45C247.592 388.393 263.653 388.393 279.536 386.45L314.372 351.618V299.348H196.872Z" fill="#D29B6E"/>
<path d="M458.243 201.059C458.242 207.96 456.195 214.706 452.36 220.444C448.525 226.182 443.075 230.654 436.698 233.294C430.322 235.934 423.306 236.625 416.537 235.278C409.769 233.931 403.552 230.607 398.672 225.727C393.792 220.846 390.469 214.629 389.123 207.86C387.777 201.091 388.469 194.075 391.11 187.699C393.751 181.323 398.224 175.874 403.962 172.039C409.7 168.205 416.447 166.159 423.348 166.159C427.931 166.159 432.469 167.062 436.703 168.816C440.937 170.57 444.784 173.14 448.024 176.381C451.265 179.622 453.835 183.469 455.588 187.704C457.342 191.938 458.244 196.476 458.243 201.059Z" fill="#E3AA75"/>
<path d="M122.79 201.059C122.789 207.96 120.742 214.706 116.907 220.444C113.072 226.182 107.622 230.654 101.245 233.294C94.869 235.934 87.8529 236.625 81.0843 235.278C74.3156 233.931 68.0984 230.607 63.2188 225.727C58.3391 220.846 55.0162 214.629 53.6701 207.86C52.3241 201.091 53.0155 194.075 55.6567 187.699C58.298 181.323 62.7706 175.874 68.5089 172.039C74.2473 168.205 80.9936 166.159 87.895 166.159C92.4779 166.159 97.0159 167.062 101.25 168.816C105.484 170.57 109.331 173.14 112.571 176.381C115.812 179.622 118.382 183.469 120.135 187.704C121.889 191.938 122.791 196.476 122.79 201.059Z" fill="#D29B6E"/>
<path d="M431.653 191.262C431.653 226.078 421.328 260.111 401.986 289.059C382.643 318.007 355.151 340.569 322.985 353.893C290.82 367.216 255.426 370.702 221.279 363.909C187.133 357.117 155.767 340.352 131.149 315.733C106.531 291.115 89.7653 259.749 82.9732 225.603C76.1811 191.456 79.6672 156.062 92.9906 123.897C106.314 91.7312 128.876 64.239 157.824 44.8965C186.773 25.554 220.806 15.23 255.622 15.23C278.739 15.2297 301.629 19.7827 322.987 28.6291C344.344 37.4755 363.75 50.4419 380.096 66.788C396.442 83.1342 409.408 102.54 418.254 123.897C427.1 145.255 431.653 168.145 431.653 191.262Z" fill="#F5B97D"/>
<path d="M130.356 191.262C130.36 148.974 145.585 108.1 173.246 76.1137C200.907 44.1271 239.156 23.1647 281.001 17.059C257.064 13.5707 232.666 15.0531 209.327 21.4138C185.989 27.7744 164.212 38.8767 145.355 54.028C126.499 69.1792 110.967 88.0542 99.7293 109.475C88.4918 130.896 81.7897 154.403 80.0411 178.529C78.2925 202.655 81.5351 226.883 89.5664 249.701C97.5978 272.518 110.246 293.435 126.72 311.147C143.195 328.859 163.144 342.986 185.321 352.645C207.498 362.304 231.429 367.289 255.618 367.289C264.112 367.287 272.595 366.676 281.001 365.461C239.156 359.357 200.906 338.396 173.245 306.41C145.584 274.423 130.36 233.55 130.356 191.262Z" fill="#E3AA75"/>
<path d="M255.622 0C155.642 0 73.3101 77.027 64.8601 174.859C69.516 170.756 75.1846 167.974 81.2781 166.8V166.792L114.301 143.2H396.95L429.966 166.794V166.802C436.058 167.979 441.725 170.763 446.38 174.865C437.935 77.027 355.606 0 255.622 0Z" fill="#EDEBED"/>
<path d="M281.001 1.688C272.588 0.565663 264.11 0.00176194 255.622 0C155.642 0 73.3101 77.027 64.8601 174.859C69.516 170.756 75.1846 167.974 81.2781 166.8V166.792L114.301 143.2H121.25C140.552 68.891 203.521 12.012 281.001 1.688Z" fill="#DBD9DC"/>
<path d="M397.814 144.855C397.524 143.784 396.841 142.862 395.9 142.273C385.228 135.566 317.49 94.593 255.623 94.593C193.756 94.593 126.017 135.566 115.345 142.273C114.406 142.863 113.725 143.785 113.435 144.855C110.556 155.433 96.0249 212.918 120.287 211.539C147.001 210.02 198.701 153.066 255.622 153.066C312.543 153.066 364.239 210.019 390.958 211.539C415.224 212.918 400.689 155.434 397.814 144.855Z" fill="white"/>
<path d="M255.622 255.52C250.872 255.512 246.208 254.255 242.097 251.875C237.986 249.495 234.573 246.076 232.201 241.961C231.717 241.119 231.404 240.191 231.279 239.228C231.154 238.266 231.22 237.288 231.473 236.351C231.726 235.414 232.161 234.536 232.754 233.767C233.346 232.998 234.084 232.353 234.926 231.87C235.767 231.386 236.696 231.073 237.658 230.948C238.621 230.823 239.598 230.889 240.536 231.142C241.473 231.395 242.351 231.83 243.12 232.422C243.889 233.014 244.533 233.752 245.017 234.594C246.088 236.461 247.633 238.013 249.495 239.092C251.358 240.171 253.472 240.739 255.625 240.739C257.777 240.739 259.891 240.171 261.754 239.092C263.616 238.013 265.161 236.461 266.232 234.594C267.209 232.894 268.821 231.653 270.714 231.142C272.606 230.631 274.624 230.893 276.324 231.87C278.023 232.846 279.265 234.458 279.776 236.351C280.287 238.244 280.025 240.261 279.048 241.961C276.675 246.076 273.261 249.496 269.149 251.875C265.038 254.255 260.373 255.512 255.622 255.52Z" fill="#5A4650"/>
<path d="M320.286 225.8C319.315 225.8 318.354 225.609 317.457 225.237C316.56 224.865 315.745 224.32 315.058 223.634C314.372 222.947 313.828 222.132 313.456 221.234C313.085 220.337 312.894 219.376 312.895 218.405V206.875C312.918 204.93 313.706 203.072 315.09 201.704C316.473 200.337 318.34 199.57 320.285 199.57C322.231 199.57 324.098 200.337 325.481 201.704C326.865 203.072 327.653 204.93 327.676 206.875V218.4C327.677 219.371 327.486 220.333 327.115 221.23C326.744 222.128 326.2 222.943 325.514 223.631C324.828 224.318 324.013 224.863 323.116 225.235C322.219 225.607 321.257 225.799 320.286 225.8Z" fill="#5A4650"/>
<path d="M190.958 225.8C189.987 225.8 189.026 225.609 188.129 225.237C187.232 224.865 186.417 224.32 185.73 223.634C185.044 222.947 184.5 222.132 184.128 221.235C183.757 220.337 183.566 219.376 183.567 218.405V206.875C183.59 204.929 184.378 203.071 185.762 201.703C187.146 200.335 189.014 199.568 190.959 199.568C192.905 199.568 194.773 200.335 196.157 201.703C197.54 203.071 198.329 204.929 198.352 206.875V218.4C198.352 220.361 197.573 222.243 196.187 223.63C194.8 225.018 192.919 225.798 190.958 225.8Z" fill="#5A4650"/>
<path d="M326.052 247.59H314.524C313.546 247.601 312.575 247.419 311.668 247.052C310.762 246.686 309.936 246.143 309.241 245.455C308.545 244.768 307.993 243.949 307.616 243.046C307.239 242.144 307.045 241.176 307.045 240.197C307.045 239.219 307.239 238.251 307.616 237.348C307.993 236.446 308.545 235.627 309.241 234.939C309.936 234.252 310.762 233.709 311.668 233.343C312.575 232.976 313.546 232.794 314.524 232.805H326.051C327.997 232.828 329.855 233.616 331.223 235C332.591 236.384 333.358 238.252 333.358 240.197C333.358 242.143 332.591 244.011 331.223 245.395C329.855 246.779 327.997 247.567 326.051 247.59H326.052Z" fill="#E6646E"/>
<path d="M196.724 247.59H185.192C183.246 247.567 181.388 246.778 180.02 245.395C178.652 244.011 177.885 242.143 177.885 240.197C177.885 238.252 178.652 236.384 180.02 235C181.388 233.616 183.246 232.828 185.192 232.805H196.723C198.669 232.828 200.527 233.616 201.895 235C203.263 236.384 204.03 238.252 204.03 240.197C204.03 242.143 203.263 244.011 201.895 245.395C200.527 246.778 198.669 247.567 196.723 247.59H196.724Z" fill="#E6646E"/>
<path d="M255.622 512C254.651 512 253.69 511.809 252.793 511.438C251.897 511.066 251.082 510.522 250.395 509.836C249.709 509.149 249.165 508.334 248.793 507.438C248.422 506.541 248.231 505.58 248.231 504.609V410.359C248.254 408.414 249.042 406.556 250.426 405.188C251.809 403.821 253.676 403.054 255.621 403.054C257.567 403.054 259.434 403.821 260.817 405.188C262.201 406.556 262.989 408.414 263.012 410.359V504.609C263.012 505.58 262.821 506.541 262.45 507.438C262.079 508.334 261.535 509.149 260.848 509.836C260.162 510.522 259.347 511.067 258.451 511.438C257.554 511.809 256.593 512 255.622 512Z" fill="#5A4650"/>
</svg>
