<svg width="513" height="512" viewBox="0 0 513 512" fill="none" xmlns="http://www.w3.org/2000/svg">
<path d="M23.793 400.617C23.625 400.73 23.461 400.851 23.305 400.976C13.2376 409.068 5.92968 420.085 2.38963 432.507C-1.15042 444.928 -0.748106 458.143 3.54105 470.326C7.83022 482.509 15.7948 493.061 26.3358 500.526C36.8768 507.99 49.4746 512 62.391 512C71.7846 511.959 81.0498 509.815 89.5066 505.726C97.9633 501.636 105.397 495.705 111.262 488.367L150.512 315.238L23.793 400.617Z" fill="#4C5659"/>
<path d="M150.512 315.238C130.239 338.645 116.051 366.69 109.205 396.889C102.359 427.088 103.065 458.51 111.262 488.371L196.762 361.484L150.512 315.238Z" fill="#676F72"/>
<path d="M202.516 367.758L144.243 309.485C138.503 303.746 133.95 296.932 130.843 289.432C127.737 281.933 126.138 273.895 126.138 265.778C126.138 257.661 127.737 249.623 130.843 242.124C133.95 234.624 138.503 227.811 144.243 222.071L348.207 18.105C353.946 12.365 360.76 7.81171 368.26 4.70519C375.759 1.59867 383.797 -0.000244141 391.914 -0.000244141C400.031 -0.000244141 408.069 1.59867 415.568 4.70519C423.068 7.81171 429.882 12.365 435.621 18.105L493.9 76.379C505.491 87.9714 512.002 103.693 512.002 120.086C512.002 136.479 505.491 152.201 493.9 163.793L289.93 367.758C284.19 373.498 277.377 378.051 269.877 381.158C262.378 384.264 254.34 385.863 246.223 385.863C238.106 385.863 230.068 384.264 222.569 381.158C215.069 378.051 208.255 373.498 202.516 367.758Z" fill="#E8B5B1"/>
<path d="M297.215 200.215L408.621 88.809C417.693 79.7363 428.464 72.5394 440.318 67.6293C452.172 62.7192 464.876 60.192 477.707 60.192L435.621 18.105C429.882 12.365 423.068 7.81171 415.568 4.70519C408.069 1.59867 400.031 -0.000244141 391.914 -0.000244141C383.797 -0.000244141 375.759 1.59867 368.26 4.70519C360.76 7.81171 353.946 12.365 348.207 18.105L144.242 222.07C138.502 227.81 133.949 234.623 130.842 242.123C127.736 249.622 126.137 257.66 126.137 265.777C126.137 273.894 127.736 281.932 130.842 289.431C133.949 296.931 138.502 303.745 144.242 309.484L202.515 367.757C208.254 373.497 215.068 378.05 222.568 381.157C230.067 384.263 238.105 385.862 246.222 385.862C254.339 385.862 262.377 384.263 269.876 381.157C277.376 378.05 284.189 373.497 289.929 367.757L311.784 345.905L297.214 331.335C279.827 313.947 270.06 290.364 270.06 265.775C270.06 241.185 279.828 217.603 297.215 200.215Z" fill="#D6948C"/>
<path d="M291.027 167.406C291.027 189.819 284.381 211.728 271.929 230.363C259.477 248.999 241.779 263.523 221.073 272.1C200.366 280.677 177.581 282.921 155.599 278.549C133.617 274.176 113.426 263.383 97.5777 247.535C81.7296 231.687 70.9369 211.496 66.5644 189.514C62.1919 167.532 64.4361 144.747 73.013 124.04C81.5899 103.334 96.1144 85.6356 114.75 73.1838C133.385 60.732 155.294 54.0859 177.707 54.0859C192.588 54.0857 207.324 57.0166 221.073 62.7114C234.822 68.4061 247.314 76.7532 257.837 87.276C268.36 97.7988 276.707 110.291 282.402 124.04C288.096 137.789 291.027 152.524 291.027 167.406Z" fill="#EA5B70"/>
<path d="M181.758 58.1369C183.047 56.8519 184.358 55.5979 185.68 54.3669C170.166 53.2723 154.592 55.3831 139.928 60.568C125.265 65.7528 111.826 73.9007 100.448 84.5043C89.0698 95.1078 79.9964 107.94 73.7924 122.202C67.5884 136.464 64.3867 151.851 64.3867 167.404C64.3867 182.957 67.5884 198.344 73.7924 212.606C79.9964 226.868 89.0698 239.7 100.448 250.304C111.826 260.907 125.265 269.055 139.928 274.24C154.592 279.425 170.166 281.536 185.68 280.441C184.36 279.211 183.047 277.957 181.758 276.671C167.409 262.322 156.026 245.287 148.261 226.539C140.495 207.791 136.498 187.697 136.498 167.404C136.498 147.111 140.495 127.017 148.261 108.269C156.026 89.5209 167.409 72.486 181.758 58.1369Z" fill="#D34459"/>
<path d="M97.5699 255.258C95.5517 255.251 93.6163 254.454 92.1779 253.038C90.7395 251.622 89.9122 249.7 89.873 247.682C89.8338 245.664 90.5859 243.711 91.9682 242.24C93.3505 240.77 95.2535 239.899 97.2699 239.813C103.817 239.553 110.342 238.896 116.809 237.844C117.814 237.673 118.842 237.702 119.835 237.93C120.829 238.158 121.767 238.581 122.596 239.173C123.426 239.765 124.13 240.516 124.668 241.381C125.206 242.247 125.567 243.21 125.731 244.216C125.896 245.222 125.859 246.25 125.624 247.242C125.389 248.234 124.96 249.169 124.362 249.994C123.764 250.82 123.008 251.518 122.139 252.05C121.27 252.582 120.304 252.937 119.297 253.094C112.208 254.247 105.055 254.968 97.8789 255.254C97.7769 255.258 97.6759 255.258 97.5699 255.258ZM147.914 245.422C146.096 245.422 144.337 244.782 142.944 243.613C141.552 242.444 140.617 240.822 140.302 239.032C139.988 237.241 140.315 235.397 141.225 233.824C142.136 232.251 143.572 231.049 145.281 230.43C175.075 219.709 200.98 200.318 219.663 174.752C238.346 149.187 248.952 118.616 250.117 86.973C250.146 85.9513 250.377 84.9454 250.797 84.0137C251.217 83.0819 251.818 82.2428 252.565 81.5448C253.311 80.8469 254.189 80.304 255.147 79.9477C256.105 79.5914 257.124 79.4286 258.145 79.4689C259.167 79.5092 260.17 79.7517 261.097 80.1824C262.024 80.613 262.856 81.2234 263.545 81.9779C264.235 82.7325 264.768 83.6164 265.113 84.5783C265.459 85.5403 265.61 86.5612 265.558 87.582C264.185 122.27 252.512 155.763 232.029 183.792C211.546 211.82 183.179 233.113 150.547 244.957C149.703 245.265 148.812 245.422 147.914 245.422Z" fill="#C13247"/>
</svg>
