<svg width="513" height="512" viewBox="0 0 513 512" fill="none" xmlns="http://www.w3.org/2000/svg">
<path d="M481.092 0.000117283C476.351 -0.000982631 471.673 1.08888 467.421 3.18534C463.169 5.28181 459.456 8.32865 456.57 12.09C453.684 15.8514 451.702 20.2265 450.778 24.8765C449.854 29.5266 450.012 34.327 451.24 38.9061L90.5452 399.6C87.6473 402.498 86.0193 406.428 86.0193 410.527C86.0193 414.625 87.6473 418.555 90.5452 421.453C93.4431 424.351 97.3735 425.979 101.472 425.979C105.57 425.979 109.5 424.351 112.398 421.453L473.098 60.7531C477.348 61.8923 481.791 62.111 486.132 61.3948C490.473 60.6785 494.611 59.0437 498.269 56.5996C501.928 54.1556 505.022 50.9587 507.345 47.2227C509.669 43.4866 511.168 39.2976 511.742 34.9357C512.316 30.5738 511.953 26.1395 510.676 21.9294C509.399 17.7193 507.237 13.8303 504.336 10.5227C501.435 7.21498 497.862 4.56477 493.854 2.74926C489.847 0.933748 485.498 -0.00522899 481.098 -0.00488272L481.092 0.000117283Z" fill="#B9BBBC"/>
<path d="M272.912 349.02C272.121 327.11 265.037 305.892 252.507 287.901C239.977 269.91 222.532 255.907 202.256 247.567L153.268 271.273L105.904 512H175.127C187.98 512.001 200.706 509.47 212.58 504.552C224.455 499.634 235.244 492.425 244.332 483.337C253.42 474.249 260.63 463.46 265.548 451.586C270.467 439.712 272.998 426.986 272.998 414.133V348.848L272.912 349.02ZM205.186 473.957C195.862 478.653 185.567 481.097 175.127 481.094H116.162L184.862 379.157C213.562 407.857 210.913 405.192 212.085 406.173C234.662 425.07 231.49 460.723 205.186 473.957Z" fill="#FFCE71"/>
<path d="M167.717 239.348C151.722 238.107 135.645 240.237 120.526 245.602C97.1511 253.915 90.3741 283.594 107.245 301.481C107.483 301.735 107.71 301.997 107.96 302.247L132.851 327.138C132.078 327.661 24.0581 400.423 23.3081 400.974C16.1371 406.713 10.3279 413.971 6.2989 422.225C2.26993 430.479 0.121437 439.524 0.0081498 448.708C-0.48585 483.516 28.6231 512 63.4321 512H105.905C106.768 508.2 142.159 352.074 145.05 339.336L149.859 318.117C153.206 303.36 159.595 289.463 168.618 277.314C177.64 265.166 189.098 255.034 202.259 247.566C191.244 243.043 179.589 240.27 167.717 239.348Z" fill="#FFB357"/>
</svg>
