<svg width="513" height="512" viewBox="0 0 513 512" fill="none" xmlns="http://www.w3.org/2000/svg">
<path d="M451.957 16.335L230.668 237.624L161.91 134.491H120.129V362.12C132.037 370.785 146.648 374.914 161.33 373.765C176.011 372.615 189.801 366.262 200.215 355.85C200.653 355.416 205.43 350.276 495.664 60.041L451.957 16.335Z" fill="#B9BBBC"/>
<path d="M161.91 134.491C156.838 126.881 150.14 120.492 142.3 115.784C134.46 111.076 125.672 108.167 116.572 107.265C107.471 106.364 98.2835 107.493 89.6721 110.572C81.0607 113.651 73.2398 118.602 66.7733 125.069L18.1053 173.737C12.3652 179.476 7.81196 186.29 4.70543 193.79C1.59891 201.289 0 209.327 0 217.444C0 225.561 1.59891 233.599 4.70543 241.098C7.81196 248.598 12.3652 255.412 18.1053 261.151L112.805 355.851C115.081 358.128 117.531 360.224 120.133 362.121V176.269C120.134 165.189 124.536 154.564 132.371 146.729C140.205 138.894 150.831 134.492 161.91 134.491Z" fill="#9EA2A3"/>
<path d="M488.379 9.05L502.949 23.62C505.82 26.4895 508.097 29.8964 509.65 33.646C511.204 37.3957 512.004 41.4147 512.004 45.4735C512.004 49.5323 511.204 53.5513 509.65 57.301C508.097 61.0506 505.82 64.4575 502.949 67.327L432.549 137.727C431.099 139.175 429.134 139.989 427.084 139.989C425.035 139.989 423.069 139.175 421.619 137.727L374.273 90.378C372.825 88.928 372.011 86.9624 372.011 84.913C372.011 82.8636 372.825 80.898 374.273 79.448L444.673 9.048C450.47 3.25401 458.331 -0.000619158 466.527 -0.000244108C474.723 0.000130942 482.583 3.25548 488.379 9.05Z" fill="#FF8F71"/>
<path d="M226.642 398.679C226.642 421.091 219.995 443.001 207.544 461.636C195.092 480.271 177.394 494.796 156.687 503.373C135.981 511.95 113.196 514.194 91.2139 509.822C69.232 505.449 49.0403 494.656 33.1922 478.808C17.3441 462.96 6.5514 442.768 2.17893 420.787C-2.19355 398.805 0.0505648 376.02 8.62749 355.313C17.2044 334.607 31.7289 316.909 50.3643 304.457C68.9997 292.005 90.9089 285.359 113.322 285.359C128.203 285.359 142.939 288.29 156.687 293.985C170.436 299.679 182.928 308.026 193.451 318.549C203.974 329.072 212.321 341.564 218.016 355.313C223.711 369.062 226.642 383.797 226.642 398.679Z" fill="#EFEDEE"/>
<path d="M117.371 507.948C56.7774 447.348 55.7154 346.577 120.129 285.573C104.129 284.591 88.1019 287.023 73.1131 292.709C58.1243 298.394 44.5163 307.203 33.1924 318.55C-10.8506 362.593 -10.8506 434.765 33.1924 478.808C44.655 490.295 58.4561 499.18 73.658 504.859C88.8598 510.537 105.106 512.877 121.292 511.718C119.973 510.483 118.66 509.233 117.371 507.948Z" fill="#D4D4D5"/>
<path d="M51.5085 399.599C51.5081 402.655 50.6016 405.642 48.9037 408.182C47.2057 410.723 44.7926 412.703 41.9694 413.872C39.1462 415.041 36.0396 415.347 33.0426 414.751C30.0456 414.155 27.2927 412.683 25.1319 410.522C22.9712 408.362 21.4997 405.609 20.9034 402.612C20.3072 399.615 20.613 396.508 21.7822 393.685C22.9514 390.862 24.9315 388.449 27.4721 386.751C30.0127 385.053 32.9997 384.146 36.0555 384.146C38.0848 384.146 40.0943 384.545 41.9692 385.322C43.8441 386.099 45.5477 387.237 46.9827 388.672C48.4176 390.107 49.5559 391.81 50.3324 393.685C51.109 395.56 51.5086 397.57 51.5085 399.599Z" fill="#B9BBBC"/>
<path d="M74.1414 344.968C74.1414 348.024 73.2351 351.012 71.5371 353.553C69.8391 356.094 67.4256 358.075 64.602 359.245C61.7783 360.414 58.6712 360.72 55.6736 360.124C52.676 359.528 49.9226 358.056 47.7614 355.895C45.6003 353.734 44.1285 350.98 43.5323 347.983C42.936 344.985 43.242 341.878 44.4116 339.054C45.5812 336.231 47.5619 333.817 50.1031 332.119C52.6444 330.421 55.632 329.515 58.6884 329.515C60.7177 329.515 62.7272 329.914 64.6021 330.691C66.477 331.467 68.1806 332.606 69.6156 334.041C71.0505 335.476 72.1888 337.179 72.9653 339.054C73.7419 340.929 74.1415 342.939 74.1414 344.968Z" fill="#B9BBBC"/>
<path d="M74.1414 454.233C74.1414 457.289 73.2351 460.277 71.5371 462.818C69.8391 465.359 67.4256 467.34 64.602 468.51C61.7783 469.679 58.6712 469.985 55.6736 469.389C52.676 468.793 49.9226 467.321 47.7614 465.16C45.6003 462.999 44.1285 460.245 43.5323 457.248C42.936 454.25 43.242 451.143 44.4116 448.319C45.5812 445.496 47.5619 443.082 50.1031 441.384C52.6444 439.686 55.632 438.78 58.6884 438.78C60.7177 438.78 62.7272 439.18 64.6021 439.956C66.477 440.733 68.1806 441.871 69.6156 443.306C71.0505 444.741 72.1888 446.444 72.9653 448.319C73.7419 450.194 74.1415 452.204 74.1414 454.233Z" fill="#B9BBBC"/>
<path d="M128.773 322.339C128.773 325.395 127.867 328.383 126.169 330.924C124.471 333.465 122.057 335.446 119.234 336.616C116.41 337.785 113.303 338.091 110.305 337.495C107.308 336.899 104.554 335.427 102.393 333.266C100.232 331.105 98.7604 328.351 98.1641 325.354C97.5679 322.356 97.8739 319.249 99.0435 316.425C100.213 313.602 102.194 311.188 104.735 309.49C107.276 307.792 110.264 306.886 113.32 306.886C117.418 306.887 121.349 308.515 124.247 311.413C127.144 314.311 128.773 318.241 128.773 322.339Z" fill="#D4D4D5"/>
<path d="M128.773 476.866C128.773 479.922 127.867 482.91 126.169 485.451C124.471 487.993 122.057 489.973 119.234 491.143C116.41 492.312 113.303 492.618 110.305 492.022C107.308 491.426 104.554 489.954 102.393 487.793C100.232 485.632 98.7604 482.878 98.1641 479.881C97.5679 476.883 97.8739 473.776 99.0435 470.952C100.213 468.129 102.194 465.715 104.735 464.017C107.276 462.319 110.264 461.413 113.32 461.413C117.418 461.414 121.349 463.042 124.247 465.94C127.144 468.838 128.773 472.768 128.773 476.866Z" fill="#D4D4D5"/>
<path d="M206.035 399.599C206.035 402.655 205.128 405.642 203.431 408.182C201.733 410.723 199.319 412.703 196.496 413.872C193.673 415.041 190.566 415.347 187.569 414.751C184.572 414.155 181.82 412.683 179.659 410.522C177.498 408.362 176.027 405.609 175.43 402.612C174.834 399.615 175.14 396.508 176.309 393.685C177.478 390.862 179.458 388.449 181.999 386.751C184.54 385.053 187.527 384.146 190.582 384.146C192.612 384.146 194.621 384.545 196.496 385.322C198.371 386.099 200.075 387.237 201.51 388.672C202.944 390.107 204.083 391.81 204.859 393.685C205.636 395.56 206.035 397.57 206.035 399.599Z" fill="#D4D4D5"/>
<path d="M108.168 378.077C108.168 381.133 107.261 384.12 105.563 386.66C103.865 389.201 101.452 391.181 98.629 392.35C95.8058 393.519 92.6993 393.825 89.7023 393.229C86.7053 392.633 83.9524 391.161 81.7916 389.001C79.6309 386.84 78.1593 384.087 77.5631 381.09C76.9669 378.093 77.2727 374.986 78.4419 372.163C79.6111 369.34 81.5912 366.927 84.1318 365.229C86.6724 363.531 89.6594 362.624 92.7151 362.624C96.8133 362.625 100.744 364.253 103.641 367.151C106.539 370.049 108.168 373.979 108.168 378.077Z" fill="#D4D4D5"/>
<path d="M149.375 378.077C149.375 381.133 148.468 384.12 146.77 386.66C145.072 389.201 142.659 391.181 139.836 392.35C137.013 393.519 133.906 393.825 130.909 393.229C127.912 392.633 125.159 391.161 122.999 389.001C120.838 386.84 119.366 384.087 118.77 381.09C118.174 378.093 118.48 374.986 119.649 372.163C120.818 369.34 122.798 366.927 125.339 365.229C127.879 363.531 130.866 362.624 133.922 362.624C138.02 362.625 141.951 364.253 144.848 367.151C147.746 370.049 149.375 373.979 149.375 378.077Z" fill="#D4D4D5"/>
<path d="M108.168 419.284C108.168 422.34 107.261 425.327 105.563 427.867C103.865 430.408 101.452 432.388 98.629 433.557C95.8058 434.727 92.6993 435.032 89.7023 434.436C86.7053 433.84 83.9524 432.368 81.7916 430.208C79.6309 428.047 78.1593 425.294 77.5631 422.297C76.9669 419.3 77.2727 416.193 78.4419 413.37C79.6111 410.547 81.5912 408.134 84.1318 406.436C86.6724 404.738 89.6594 403.831 92.7151 403.831C96.8133 403.832 100.744 405.46 103.641 408.358C106.539 411.256 108.168 415.186 108.168 419.284Z" fill="#D4D4D5"/>
<path d="M149.375 419.284C149.375 422.34 148.468 425.327 146.77 427.867C145.072 430.408 142.659 432.388 139.836 433.557C137.013 434.727 133.906 435.032 130.909 434.436C127.912 433.84 125.159 432.368 122.999 430.208C120.838 428.047 119.366 425.294 118.77 422.297C118.174 419.3 118.48 416.193 119.649 413.37C120.818 410.547 122.798 408.134 125.339 406.436C127.879 404.738 130.866 403.831 133.922 403.831C138.02 403.832 141.951 405.46 144.848 408.358C147.746 411.256 149.375 415.186 149.375 419.284Z" fill="#D4D4D5"/>
<path d="M183.406 344.968C183.406 348.024 182.5 351.012 180.802 353.553C179.104 356.094 176.69 358.075 173.867 359.245C171.043 360.414 167.936 360.72 164.938 360.124C161.941 359.528 159.187 358.056 157.026 355.895C154.865 353.734 153.393 350.98 152.797 347.983C152.201 344.985 152.507 341.878 153.676 339.054C154.846 336.231 156.827 333.817 159.368 332.119C161.909 330.421 164.897 329.515 167.953 329.515C169.982 329.515 171.992 329.914 173.867 330.691C175.742 331.467 177.445 332.606 178.88 334.041C180.315 335.476 181.453 337.179 182.23 339.054C183.007 340.929 183.406 342.939 183.406 344.968Z" fill="#D4D4D5"/>
<path d="M183.406 454.233C183.406 457.289 182.5 460.277 180.802 462.818C179.104 465.359 176.69 467.34 173.867 468.51C171.043 469.679 167.936 469.985 164.938 469.389C161.941 468.793 159.187 467.321 157.026 465.16C154.865 462.999 153.393 460.245 152.797 457.248C152.201 454.25 152.507 451.143 153.676 448.319C154.846 445.496 156.827 443.082 159.368 441.384C161.909 439.686 164.897 438.78 167.953 438.78C169.982 438.78 171.992 439.18 173.867 439.956C175.742 440.733 177.445 441.871 178.88 443.306C180.315 444.741 181.453 446.444 182.23 448.319C183.007 450.194 183.406 452.204 183.406 454.233Z" fill="#D4D4D5"/>
</svg>
