<svg width="512" height="512" viewBox="0 0 512 512" fill="none" xmlns="http://www.w3.org/2000/svg">
<path d="M120.299 271.422C96.5115 271.423 73.2586 278.477 53.4806 291.694C33.7026 304.91 18.2877 323.694 9.1851 345.671C0.0825367 367.648 -2.29885 391.83 2.34207 415.16C6.98299 438.49 18.4378 459.921 35.258 476.741C52.0781 493.561 73.5083 505.016 96.8385 509.657C120.169 514.298 144.351 511.916 166.328 502.814C188.305 493.711 207.089 478.296 220.305 458.518C233.521 438.74 240.576 415.487 240.577 391.7C240.577 375.905 237.467 360.264 231.423 345.671C225.378 331.078 216.519 317.818 205.35 306.649C194.181 295.48 180.921 286.62 166.328 280.576C151.735 274.532 136.094 271.421 120.299 271.422ZM120.299 450.16C108.736 450.159 97.4329 446.73 87.819 440.305C78.2052 433.881 70.7123 424.75 66.2879 414.067C61.8635 403.384 60.7064 391.629 62.9628 380.288C65.2191 368.948 70.7877 358.531 78.9644 350.355C87.141 342.179 97.5584 336.612 108.899 334.357C120.24 332.101 131.995 333.26 142.677 337.685C153.36 342.111 162.49 349.605 168.914 359.219C175.337 368.834 178.765 380.137 178.765 391.7C178.746 407.2 172.58 422.059 161.62 433.019C150.659 443.979 135.799 450.143 120.299 450.16Z" fill="#D4D4D5"/>
<path d="M63.8308 406.828C57.8353 384.451 57.0012 361.004 61.3916 338.257C65.782 315.511 75.2821 294.059 89.1748 275.52C58.363 283.776 32.0928 303.934 16.1434 331.559C0.194009 359.184 -4.12815 392.013 4.12778 422.825C12.3837 453.637 32.5414 479.907 60.1665 495.856C87.7915 511.806 120.621 516.128 151.433 507.872C130.131 498.765 111.178 484.937 96.0021 467.433C80.8265 449.929 69.8259 429.205 63.8308 406.828Z" fill="#B9BBBC"/>
<path d="M104.851 0V269.418C104.851 273.516 106.479 277.447 109.377 280.345C112.275 283.243 116.205 284.871 120.304 284.871C124.402 284.871 128.333 283.243 131.231 280.345C134.129 277.447 135.757 273.516 135.757 269.418V0H104.851Z" fill="#E8B5B1"/>
<path d="M137.315 349.7C134.509 349.702 131.755 348.94 129.349 347.495C126.943 346.051 124.976 343.978 123.659 341.5L89.6589 277.629C88.7055 275.838 88.1142 273.876 87.9189 271.856C87.7236 269.837 87.928 267.798 88.5205 265.857C89.113 263.916 90.0819 262.111 91.372 260.545C92.6621 258.979 94.2481 257.682 96.0394 256.728C97.8307 255.775 99.7922 255.184 101.812 254.988C103.832 254.793 105.87 254.998 107.811 255.59C109.752 256.183 111.557 257.152 113.123 258.442C114.69 259.732 115.986 261.318 116.94 263.109L150.94 326.98C152.193 329.334 152.815 331.972 152.747 334.637C152.679 337.303 151.922 339.905 150.551 342.192C149.179 344.479 147.24 346.372 144.921 347.687C142.601 349.003 139.981 349.696 137.315 349.7Z" fill="#D6948C"/>
<path d="M103.292 349.7C100.626 349.696 98.0068 349.002 95.6881 347.687C93.3695 346.372 91.4303 344.48 90.0588 342.194C88.6873 339.908 87.9301 337.306 87.8607 334.641C87.7913 331.977 88.4121 329.339 89.6628 326.985L123.663 263.114C124.616 261.323 125.913 259.737 127.479 258.447C129.046 257.157 130.851 256.188 132.792 255.595C134.732 255.003 136.771 254.798 138.791 254.994C140.81 255.189 142.772 255.78 144.563 256.734C146.355 257.687 147.941 258.984 149.231 260.55C150.521 262.117 151.49 263.922 152.082 265.862C152.675 267.803 152.879 269.842 152.684 271.861C152.488 273.881 151.897 275.843 150.944 277.634L116.944 341.505C115.627 343.982 113.661 346.054 111.255 347.498C108.85 348.942 106.097 349.703 103.292 349.7Z" fill="#E8B5B1"/>
<path d="M391.726 204.293C367.938 204.293 344.684 211.347 324.906 224.563C305.127 237.778 289.711 256.562 280.608 278.539C271.505 300.517 269.123 324.699 273.764 348.03C278.404 371.361 289.859 392.791 306.68 409.612C323.5 426.432 344.931 437.887 368.262 442.528C391.592 447.169 415.775 444.787 437.752 435.684C459.729 426.581 478.513 411.165 491.729 391.386C504.945 371.607 511.999 348.354 511.999 324.566C511.998 292.668 499.326 262.076 476.771 239.521C454.216 216.965 423.624 204.293 391.726 204.293ZM391.726 383.031C380.163 383.031 368.859 379.603 359.245 373.179C349.631 366.756 342.137 357.625 337.712 346.943C333.286 336.26 332.128 324.505 334.384 313.164C336.639 301.824 342.207 291.406 350.383 283.23C358.559 275.053 368.976 269.485 380.316 267.229C391.657 264.973 403.412 266.13 414.095 270.554C424.778 274.979 433.908 282.472 440.333 292.086C446.757 301.7 450.186 313.003 450.187 324.566C450.17 340.066 444.006 354.927 433.046 365.887C422.086 376.848 407.226 383.014 391.726 383.031Z" fill="#D4D4D5"/>
<path d="M335.257 339.7C329.26 317.323 328.425 293.876 332.815 271.129C337.205 248.382 346.705 226.929 360.599 208.391C329.787 216.647 303.517 236.805 287.567 264.43C271.618 292.055 267.296 324.884 275.552 355.696C283.808 386.508 303.965 412.778 331.591 428.727C359.216 444.677 392.045 448.999 422.857 440.743C401.556 431.636 382.602 417.808 367.427 400.304C352.252 382.8 341.252 362.077 335.257 339.7Z" fill="#B9BBBC"/>
<path d="M376.257 0V197.3C376.257 201.398 377.885 205.329 380.783 208.227C383.681 211.125 387.611 212.753 391.71 212.753C395.808 212.753 399.739 211.125 402.637 208.227C405.535 205.329 407.163 201.398 407.163 197.3V0H376.257Z" fill="#E8B5B1"/>
<path d="M408.737 282.57C405.931 282.572 403.177 281.81 400.771 280.365C398.365 278.92 396.398 276.848 395.081 274.37L361.081 210.499C359.155 206.881 358.746 202.647 359.942 198.727C361.139 194.808 363.844 191.524 367.461 189.599C371.079 187.673 375.313 187.264 379.233 188.46C383.153 189.657 386.436 192.361 388.362 195.979L422.362 259.85C423.615 262.204 424.237 264.841 424.169 267.507C424.101 270.172 423.345 272.774 421.973 275.061C420.602 277.347 418.662 279.24 416.343 280.555C414.023 281.87 411.403 282.562 408.737 282.565V282.57Z" fill="#D6948C"/>
<path d="M374.714 282.57C372.048 282.567 369.427 281.875 367.108 280.56C364.788 279.245 362.849 277.352 361.477 275.066C360.105 272.78 359.348 270.177 359.279 267.512C359.211 264.847 359.833 262.209 361.085 259.855L395.085 195.984C396.038 194.193 397.335 192.607 398.901 191.317C400.468 190.027 402.273 189.058 404.214 188.465C406.154 187.873 408.193 187.668 410.213 187.863C412.232 188.059 414.194 188.65 415.985 189.603C417.777 190.557 419.363 191.854 420.653 193.42C421.943 194.986 422.912 196.791 423.504 198.732C424.097 200.673 424.301 202.712 424.106 204.731C423.91 206.751 423.319 208.713 422.366 210.504L388.366 274.375C387.049 276.852 385.083 278.924 382.677 280.368C380.272 281.811 377.519 282.573 374.714 282.57Z" fill="#E8B5B1"/>
</svg>
