<svg width="512" height="512" viewBox="0 0 512 512" fill="none" xmlns="http://www.w3.org/2000/svg">
<path d="M123.621 476.973V421.073C123.621 411.895 125.428 402.807 128.941 394.328C132.453 385.849 137.6 378.145 144.09 371.655C150.58 365.166 158.284 360.018 166.763 356.506C175.242 352.993 184.33 351.186 193.508 351.186H80.367C59.0523 351.186 38.6107 359.653 23.5389 374.725C8.46721 389.797 0 410.238 0 431.553C0 452.868 8.46721 473.309 23.5389 488.381C38.6107 503.453 59.0523 511.92 80.367 511.92H158.567C153.978 511.92 149.433 511.017 145.193 509.26C140.953 507.504 137.101 504.93 133.856 501.685C130.61 498.44 128.036 494.587 126.28 490.347C124.524 486.107 123.621 481.562 123.621 476.973Z" fill="#CE857A"/>
<path d="M495.824 3.63298C481.047 -4.36702 462.531 1.34798 454.124 15.903C317.207 253.035 335.734 220.758 290.133 299.7C281.088 315.354 268.084 328.353 252.425 337.391C236.767 346.429 219.006 351.187 200.926 351.188H193.508C184.33 351.188 175.242 352.995 166.763 356.508C158.284 360.02 150.58 365.167 144.09 371.657C137.601 378.147 132.453 385.851 128.941 394.33C125.429 402.809 123.621 411.897 123.621 421.075V476.981C123.621 481.57 124.525 486.114 126.282 490.353C128.038 494.592 130.612 498.444 133.857 501.689C137.102 504.933 140.954 507.507 145.194 509.263C149.433 511.019 153.977 511.922 158.566 511.922H167.6C189.254 511.922 210.526 506.223 229.28 495.398C248.034 484.573 263.609 469.004 274.44 450.254C375.702 274.938 275.565 448.539 507.866 46.184C509.928 42.6137 511.253 38.6662 511.763 34.5749C512.272 30.4837 511.957 26.3317 510.834 22.3646C509.711 18.3975 507.804 14.6958 505.226 11.4785C502.648 8.26107 499.451 5.59333 495.824 3.63298Z" fill="#D6948C"/>
<path d="M72.113 210.074V240.98C72.113 264.648 84.527 287.089 106.176 302.55C124.992 315.991 149.476 323.394 175.129 323.394C200.782 323.394 225.27 315.994 244.086 302.55C265.734 287.089 278.149 264.65 278.149 240.98V210.074H72.113Z" fill="#676F72"/>
<path d="M175.129 292.488C149.481 292.488 124.992 285.088 106.176 271.648C84.528 256.183 72.114 233.742 72.114 210.074C72.114 186.406 84.528 163.965 106.177 148.504C124.993 135.063 149.477 127.66 175.13 127.66C200.783 127.66 225.271 135.06 244.087 148.504C265.735 163.969 278.15 186.41 278.15 210.074C278.15 233.738 265.736 256.183 244.088 271.648C225.27 285.086 200.781 292.488 175.129 292.488Z" fill="#82888B"/>
<path d="M247.242 210.074C247.242 181.629 214.957 158.566 175.129 158.566C135.301 158.566 103.02 181.629 103.02 210.074C103.02 238.519 135.305 261.582 175.129 261.582C214.953 261.582 247.242 238.523 247.242 210.074Z" fill="#676F72"/>
</svg>
