<svg width="512" height="512" viewBox="0 0 512 512" fill="none" xmlns="http://www.w3.org/2000/svg">
<path d="M197.34 167.525L27.02 337.846C23.6698 341.205 19.7236 343.911 15.383 345.826C10.8083 347.836 6.91782 351.135 4.1862 355.319C1.45459 359.503 1.50369e-05 364.392 0 369.389L0 486.236C0.00195418 489.937 0.800814 493.594 2.34226 496.958C3.8837 500.323 6.13159 503.316 8.93306 505.734C11.7345 508.152 15.0239 509.939 18.5775 510.973C22.1311 512.006 25.8656 512.262 29.527 511.724C46.0731 509.292 62.2541 504.82 77.7 498.408C102.347 488.228 124.734 473.27 143.571 454.396L254.453 343.51V167.525H197.34Z" fill="#3085D1"/>
<path d="M496.617 345.826C492.277 343.912 488.332 341.206 484.984 337.846L314.664 167.526H254.453V343.51L256 341.967L368.434 454.397C399.306 485.254 439.291 505.355 482.473 511.725C486.135 512.263 489.869 512.007 493.423 510.974C496.977 509.94 500.266 508.153 503.067 505.735C505.869 503.317 508.117 500.323 509.658 496.959C511.2 493.594 511.998 489.937 512 486.236V369.389C512 364.392 510.546 359.503 507.814 355.319C505.082 351.135 501.192 347.836 496.617 345.826Z" fill="#53A3EC"/>
<path d="M151.828 410.529V450.189C151.828 466.583 158.341 482.305 169.933 493.897C181.525 505.489 197.247 512.002 213.641 512.002H286.141V410.529H151.828Z" fill="#4C5659"/>
<path d="M357.082 450.19V410.53H224.336V450.19C224.336 466.583 230.847 482.305 242.439 493.897C254.03 505.489 269.752 512.001 286.145 512.002H295.27C311.663 512.001 327.385 505.489 338.977 493.897C350.569 482.305 357.081 466.583 357.082 450.19Z" fill="#676F72"/>
<path d="M257.723 0.0249556C144.27 -1.74404 50.2579 89.85 49.1999 203.311C48.7055 248.158 62.9777 291.923 89.8159 327.857C96.4118 336.757 99.9574 347.549 99.9249 358.627C99.9249 372.392 105.393 385.593 115.126 395.326C124.859 405.059 138.06 410.527 151.825 410.527H265.922L311.652 8.08796C294.114 3.01355 275.978 0.30196 257.723 0.0249556Z" fill="#676F72"/>
<path d="M408.98 358.627C408.989 347.456 412.597 336.586 419.269 327.627C445.598 292.274 459.787 249.354 459.718 205.275C459.718 111.759 397.179 32.8649 311.652 8.09888C226.93 32.7019 164.156 110.717 163.293 203.311C162.798 248.159 177.07 291.924 203.91 327.857C210.506 336.757 214.051 347.549 214.019 358.627C214.019 372.392 219.487 385.593 229.22 395.326C238.953 405.059 252.154 410.527 265.919 410.527H357.075C363.891 410.528 370.64 409.186 376.938 406.578C383.235 403.97 388.957 400.147 393.777 395.328C398.597 390.508 402.42 384.786 405.029 378.489C407.637 372.192 408.98 365.443 408.98 358.627Z" fill="#82888B"/>
<path d="M208.211 340.99C197.796 341.014 187.598 338.02 178.848 332.37C170.099 326.72 163.174 318.656 158.911 309.154C155.32 301.057 150.84 293.385 145.552 286.279C127.779 262.546 118.35 233.603 118.732 203.955C119.423 129.838 180.322 69.5369 254.486 69.5369C255.197 69.5369 255.924 69.5449 256.634 69.5569C281.59 69.9586 305.952 77.2339 327.042 90.5828C348.131 103.932 365.131 122.837 376.174 145.221C387.216 167.605 391.872 192.6 389.631 217.458C387.389 242.316 378.337 266.075 363.469 286.123C358.152 293.284 353.644 301.012 350.028 309.166C345.765 318.665 338.842 326.726 330.094 332.374C321.347 338.022 311.151 341.014 300.739 340.99H208.211Z" fill="#FF8E9E"/>
<path d="M163.293 203.311C163.701 157.671 179.408 113.487 207.9 77.8301C156.412 96.7871 119.275 146.17 118.736 203.955C118.355 233.603 127.784 262.545 145.556 286.279C150.843 293.386 155.323 301.058 158.915 309.154C163.178 318.656 170.103 326.72 178.852 332.37C187.601 338.02 197.8 341.014 208.215 340.99H210.953C209.266 336.29 206.895 331.864 203.914 327.857C177.074 291.924 162.8 248.159 163.293 203.311Z" fill="#EA5B70"/>
<path d="M208.211 310.084C203.774 310.111 199.425 308.852 195.689 306.46C191.952 304.068 188.989 300.644 187.156 296.604C182.631 286.41 176.987 276.751 170.328 267.804C156.613 249.478 149.339 227.133 149.637 204.245C150.172 147.011 197.207 100.445 254.489 100.445C255.04 100.445 255.602 100.445 256.157 100.457C275.426 100.771 294.235 106.391 310.518 116.698C326.801 127.006 339.927 141.602 348.455 158.884C356.982 176.166 360.581 195.464 358.855 214.658C357.129 233.852 350.146 252.199 338.672 267.682C331.995 276.672 326.333 286.373 321.789 296.608C319.957 300.648 316.994 304.071 313.258 306.462C309.522 308.854 305.174 310.112 300.738 310.085L208.211 310.084Z" fill="#313D40"/>
<path d="M360.2 243.916C361.751 239.685 363.041 235.364 364.063 230.975C364.39 229.576 364.397 228.12 364.083 226.718C363.769 225.315 363.142 224.002 362.249 222.875C361.357 221.749 360.221 220.839 358.927 220.213C357.634 219.587 356.215 219.261 354.778 219.26H279.478C276.95 219.26 274.526 218.255 272.739 216.468C270.952 214.681 269.947 212.257 269.947 209.729V197.885C269.947 195.357 270.952 192.933 272.739 191.146C274.526 189.359 276.95 188.354 279.478 188.354H354.056C355.515 188.354 356.955 188.019 358.264 187.376C359.574 186.732 360.718 185.797 361.609 184.641C362.501 183.486 363.115 182.142 363.405 180.712C363.695 179.282 363.654 177.804 363.283 176.393C362.121 171.997 360.69 167.676 359 163.455C358.292 161.683 357.069 160.163 355.49 159.092C353.91 158.022 352.046 157.448 350.137 157.447H279.473C278.221 157.447 276.982 157.201 275.825 156.722C274.669 156.243 273.618 155.541 272.733 154.656C271.848 153.771 271.146 152.72 270.667 151.564C270.188 150.407 269.942 149.168 269.942 147.916V136.076C269.942 134.824 270.188 133.585 270.667 132.428C271.146 131.272 271.848 130.221 272.733 129.336C273.618 128.451 274.669 127.749 275.825 127.27C276.982 126.791 278.221 126.545 279.473 126.545H307.645C317.245 126.545 320.875 113.873 312.665 108.9C295.14 98.3153 275.055 92.7207 254.581 92.7207C234.107 92.7207 214.023 98.3153 196.497 108.9C188.282 113.869 191.903 126.545 201.509 126.545H229.509C230.761 126.545 232 126.791 233.157 127.27C234.313 127.749 235.364 128.451 236.249 129.336C237.134 130.221 237.836 131.272 238.315 132.428C238.794 133.585 239.04 134.824 239.04 136.076V147.916C239.04 149.168 238.794 150.407 238.315 151.564C237.836 152.72 237.134 153.771 236.249 154.656C235.364 155.541 234.313 156.243 233.157 156.722C232 157.201 230.761 157.447 229.509 157.447H158.871C156.969 157.447 155.11 158.016 153.534 159.08C151.957 160.145 150.735 161.656 150.023 163.42C148.318 167.64 146.874 171.961 145.699 176.358C145.322 177.771 145.275 179.252 145.561 180.686C145.847 182.12 146.459 183.469 147.35 184.628C148.241 185.788 149.386 186.728 150.698 187.374C152.009 188.021 153.452 188.358 154.914 188.358H229.5C230.752 188.358 231.991 188.604 233.148 189.083C234.304 189.562 235.355 190.264 236.24 191.149C237.125 192.034 237.827 193.085 238.306 194.241C238.785 195.398 239.031 196.637 239.031 197.889V209.729C239.031 210.981 238.785 212.22 238.306 213.377C237.827 214.533 237.125 215.584 236.24 216.469C235.355 217.354 234.304 218.056 233.148 218.535C231.991 219.014 230.752 219.26 229.5 219.26H154.141C152.704 219.261 151.286 219.586 149.992 220.212C148.698 220.837 147.562 221.747 146.669 222.873C145.776 223.999 145.149 225.312 144.834 226.714C144.52 228.116 144.526 229.571 144.852 230.971C145.875 235.36 147.162 239.683 148.707 243.916C149.381 245.75 150.602 247.333 152.204 248.451C153.807 249.568 155.714 250.167 157.668 250.166H229.5C230.752 250.166 231.991 250.412 233.148 250.891C234.304 251.37 235.355 252.072 236.24 252.957C237.125 253.842 237.827 254.893 238.306 256.049C238.785 257.206 239.031 258.445 239.031 259.697V271.537C239.031 272.789 238.785 274.028 238.306 275.185C237.827 276.341 237.125 277.392 236.24 278.277C235.355 279.162 234.304 279.864 233.148 280.343C231.991 280.822 230.752 281.068 229.5 281.068H186.336C184.718 281.067 183.126 281.479 181.712 282.264C180.297 283.049 179.105 284.182 178.25 285.555C177.394 286.928 176.902 288.497 176.821 290.113C176.74 291.729 177.071 293.339 177.785 294.791C177.844 294.916 177.906 295.041 177.965 295.166C181.287 301.964 186.453 307.691 192.873 311.695C199.292 315.7 206.708 317.82 214.274 317.814H294.674C302.242 317.818 309.659 315.696 316.079 311.689C322.499 307.683 327.665 301.954 330.987 295.154C331.046 295.033 331.104 294.912 331.167 294.791C331.88 293.338 332.211 291.728 332.129 290.112C332.047 288.496 331.554 286.928 330.699 285.555C329.843 284.182 328.651 283.05 327.236 282.264C325.821 281.479 324.23 281.068 322.612 281.068H279.473C278.221 281.068 276.982 280.822 275.825 280.343C274.669 279.864 273.618 279.162 272.733 278.277C271.848 277.392 271.146 276.341 270.667 275.185C270.188 274.028 269.942 272.789 269.942 271.537V259.702C269.942 258.45 270.188 257.211 270.667 256.054C271.146 254.898 271.848 253.847 272.733 252.962C273.618 252.077 274.669 251.375 275.825 250.896C276.982 250.417 278.221 250.171 279.473 250.171H351.246C353.199 250.17 355.105 249.57 356.707 248.452C358.308 247.333 359.527 245.75 360.2 243.916Z" fill="#D4D4D5"/>
<path d="M265.383 462.037L280.524 446.896C281.973 445.446 282.787 443.481 282.786 441.431C282.786 439.382 281.971 437.417 280.522 435.968C279.073 434.519 277.107 433.705 275.058 433.706C273.008 433.706 271.043 434.52 269.594 435.97L254.453 451.111L239.316 435.97C238.599 435.252 237.747 434.683 236.809 434.294C235.872 433.906 234.867 433.706 233.852 433.706C232.838 433.705 231.833 433.905 230.895 434.293C229.958 434.681 229.106 435.25 228.388 435.968C227.67 436.685 227.101 437.537 226.713 438.474C226.324 439.412 226.124 440.417 226.124 441.431C226.124 442.446 226.323 443.451 226.711 444.389C227.1 445.326 227.669 446.178 228.386 446.896L243.527 462.037L228.386 477.178C227.669 477.896 227.1 478.747 226.711 479.685C226.323 480.623 226.124 481.627 226.124 482.642C226.124 483.657 226.324 484.662 226.713 485.599C227.101 486.537 227.67 487.388 228.388 488.106C229.106 488.823 229.958 489.392 230.895 489.78C231.833 490.169 232.838 490.368 233.852 490.368C234.867 490.368 235.872 490.168 236.809 489.779C237.747 489.391 238.599 488.821 239.316 488.104L254.453 472.963L269.594 488.102C271.043 489.551 273.008 490.366 275.058 490.366C277.107 490.366 279.073 489.553 280.522 488.104C281.971 486.655 282.786 484.69 282.786 482.64C282.787 480.591 281.973 478.625 280.524 477.176L265.383 462.037Z" fill="#82888B"/>
</svg>
