<svg width="512" height="512" viewBox="0 0 512 512" fill="none" xmlns="http://www.w3.org/2000/svg">
<path d="M371.918 54C366.692 41.9746 358.677 31.3668 348.537 23.0545C338.396 14.7423 326.422 8.96471 313.605 6.20001C275.717 -2.06309 236.493 -2.06309 198.605 6.20001C183.331 9.4947 169.306 17.0539 158.156 28L172.956 98.535H198.882C191.882 86.398 198.398 70.668 212.105 67.656C241.097 61.3325 271.112 61.3325 300.105 67.656C313.789 70.656 320.347 86.379 313.328 98.531L256.1 197.793V241.063H303.7L367.82 130C374.409 118.539 378.213 105.69 378.925 92.4883C379.637 79.2871 377.237 66.1033 371.918 54Z" fill="#EA5B70"/>
<path d="M198.883 98.539L176.254 59.348C163.684 37.574 175.691 11.609 197.8 6.38696C182.834 9.76832 169.106 17.2525 158.156 28C144.927 41.0991 136.402 58.2064 133.911 76.6561C131.42 95.1057 135.102 113.861 144.383 130L208.5 241.063H256.1V197.793L198.883 98.539Z" fill="#D34459"/>
<path d="M256.1 512C169.477 512 99 441.523 99 354.9C99 268.277 169.477 197.793 256.1 197.793C342.723 197.793 413.207 268.27 413.207 354.9C413.207 441.53 342.73 512 256.1 512Z" fill="#FFCE71"/>
<path d="M160.813 354.9C160.812 322.503 169.695 290.727 186.495 263.027C203.296 235.327 227.37 212.764 256.1 197.793C169.477 197.793 99 268.27 99 354.9C99 441.53 169.477 512 256.1 512C227.37 497.03 203.296 474.469 186.496 446.77C169.695 419.071 160.812 387.296 160.813 354.9Z" fill="#FFB357"/>
<path d="M351.395 354.9C351.394 373.746 345.805 392.169 335.334 407.839C324.863 423.509 309.98 435.722 292.568 442.934C275.156 450.146 255.997 452.033 237.513 448.356C219.028 444.679 202.05 435.603 188.723 422.277C175.397 408.95 166.321 391.972 162.644 373.487C158.967 355.003 160.854 335.844 168.066 318.432C175.278 301.02 187.491 286.137 203.161 275.666C218.831 265.195 237.254 259.606 256.1 259.605C268.615 259.604 281.007 262.069 292.569 266.858C304.131 271.646 314.636 278.666 323.485 287.515C332.334 296.364 339.354 306.869 344.142 318.431C348.931 329.993 351.396 342.385 351.395 354.9Z" fill="#FC8A3D"/>
<path d="M292.2 399.246C292.2 401.278 291.8 403.29 291.022 405.167C290.245 407.044 289.105 408.75 287.668 410.186C286.231 411.623 284.525 412.762 282.648 413.539C280.771 414.316 278.759 414.716 276.727 414.715H235.477C231.395 414.682 227.492 413.038 224.618 410.14C221.743 407.242 220.13 403.326 220.13 399.245C220.13 395.163 221.743 391.247 224.618 388.349C227.492 385.451 231.395 383.807 235.477 383.774H240.633V341.645C237.324 342.814 233.716 342.824 230.401 341.672C227.086 340.521 224.26 338.277 222.388 335.308C220.516 332.34 219.709 328.823 220.099 325.336C220.488 321.848 222.052 318.596 224.533 316.114L245.166 295.489C247.329 293.328 250.085 291.856 253.085 291.26C256.084 290.665 259.193 290.971 262.018 292.142C264.844 293.313 267.259 295.294 268.958 297.837C270.657 300.38 271.565 303.369 271.566 306.427V383.775H276.722C280.826 383.775 284.762 385.404 287.664 388.305C290.567 391.207 292.198 395.142 292.2 399.246Z" fill="#FFCE71"/>
</svg>
