<svg width="512" height="512" viewBox="0 0 512 512" fill="none" xmlns="http://www.w3.org/2000/svg">
<path d="M341.332 251.035V75.906C341.333 71.8471 340.534 67.8279 338.981 64.0779C337.428 60.3278 335.152 56.9204 332.282 54.0504C329.412 51.1804 326.004 48.9039 322.254 47.351C318.504 45.7981 314.485 44.9992 310.426 45H201.574C197.515 44.9992 193.496 45.7981 189.746 47.351C185.996 48.9039 182.588 51.1804 179.718 54.0504C176.848 56.9204 174.572 60.3278 173.019 64.0779C171.466 67.8279 170.667 71.8471 170.668 75.906V148.02H30.906C26.8475 148.019 22.8286 148.818 19.0788 150.371C15.329 151.923 11.9218 154.199 9.05181 157.069C6.18182 159.939 3.90525 163.346 2.35212 167.095C0.798994 170.845 -0.000262699 174.863 6.47686e-08 178.922V440.949C2.52085e-08 444.437 0.687101 447.891 2.02207 451.114C3.35703 454.336 5.31371 457.264 7.78036 459.73C10.247 462.197 13.1753 464.153 16.3981 465.487C19.6208 466.822 23.0749 467.509 26.563 467.508H485.438C488.926 467.508 492.38 466.822 495.603 465.487C498.825 464.153 501.753 462.196 504.22 459.73C506.687 457.264 508.643 454.336 509.978 451.113C511.313 447.891 512 444.437 512 440.949V281.941C512.001 277.882 511.202 273.863 509.649 270.113C508.096 266.363 505.82 262.955 502.95 260.085C500.08 257.215 496.672 254.939 492.922 253.386C489.172 251.833 485.153 251.034 481.094 251.035H341.332Z" fill="#82888B"/>
<path d="M72.113 412.23V251.03C72.1133 242.833 75.3695 234.972 81.1655 229.176C86.9614 223.381 94.8223 220.124 103.019 220.124H170.667C189.792 220.124 208.133 212.527 221.657 199.004C235.181 185.481 242.779 167.14 242.78 148.015V100.277C242.779 89.3081 245.509 78.5115 250.723 68.8613C255.938 59.211 263.473 51.0107 272.648 45H201.574C197.515 44.9992 193.496 45.7981 189.746 47.351C185.996 48.9039 182.588 51.1804 179.718 54.0504C176.848 56.9204 174.572 60.3278 173.019 64.0779C171.466 67.8279 170.667 71.8471 170.668 75.906V148.02H30.906C26.8471 148.019 22.8279 148.818 19.0779 150.371C15.3278 151.924 11.9204 154.2 9.0504 157.07C6.18036 159.94 3.90387 163.348 2.35097 167.098C0.798082 170.848 -0.000787621 174.867 5.82691e-07 178.926V440.949C5.82691e-07 447.994 2.79859 454.75 7.78012 459.732C12.7617 464.713 19.5181 467.512 26.563 467.512H101.985C92.8091 461.5 85.2738 453.299 80.0588 443.648C74.8439 433.997 72.1132 423.2 72.113 412.23Z" fill="#676F72"/>
<path d="M452.945 374.727C458.528 382.171 461.241 391.378 460.585 400.66C459.929 409.942 455.949 418.677 449.374 425.262C442.8 431.847 434.071 435.84 424.79 436.511C415.509 437.181 406.298 434.483 398.845 428.911C397.217 427.696 395.845 426.171 394.806 424.425C393.768 422.68 393.083 420.746 392.792 418.736C392.5 416.725 392.608 414.677 393.108 412.708C393.608 410.739 394.491 408.888 395.707 407.261C396.922 405.633 398.446 404.261 400.192 403.222C401.938 402.183 403.871 401.499 405.882 401.207C407.892 400.916 409.94 401.023 411.909 401.523C413.878 402.024 415.729 402.907 417.357 404.122C418.338 404.863 419.481 405.359 420.691 405.571C421.902 405.782 423.146 405.702 424.319 405.338C425.493 404.973 426.563 404.335 427.441 403.475C428.319 402.615 428.98 401.559 429.369 400.393C429.757 399.227 429.863 397.985 429.677 396.77C429.491 395.556 429.018 394.403 428.298 393.407C427.578 392.411 426.632 391.6 425.536 391.043C424.441 390.485 423.229 390.196 422 390.2C419.958 390.217 417.933 389.828 416.041 389.058C414.15 388.288 412.43 387.151 410.98 385.713C409.53 384.275 408.38 382.564 407.594 380.679C406.809 378.794 406.405 376.772 406.405 374.73C406.405 372.687 406.809 370.665 407.594 368.78C408.38 366.895 409.53 365.184 410.98 363.746C412.43 362.308 414.15 361.171 416.041 360.401C417.933 359.631 419.958 359.243 422 359.259C423.223 359.255 424.428 358.961 425.516 358.401C426.603 357.841 427.542 357.03 428.256 356.037C428.969 355.043 429.437 353.895 429.621 352.685C429.804 351.476 429.698 350.24 429.312 349.08C428.925 347.919 428.268 346.867 427.396 346.01C426.523 345.152 425.46 344.514 424.293 344.147C423.126 343.78 421.889 343.695 420.683 343.9C419.477 344.104 418.336 344.591 417.355 345.322C415.727 346.537 413.875 347.419 411.906 347.918C409.936 348.417 407.888 348.523 405.878 348.231C403.867 347.938 401.934 347.253 400.189 346.213C398.443 345.174 396.92 343.8 395.705 342.172C394.49 340.544 393.608 338.692 393.109 336.723C392.61 334.753 392.504 332.705 392.796 330.695C393.089 328.684 393.774 326.751 394.814 325.006C395.854 323.26 397.227 321.737 398.855 320.522C406.31 314.948 415.526 312.249 424.81 312.921C434.094 313.593 442.825 317.591 449.4 324.18C455.975 330.77 459.953 339.509 460.604 348.795C461.255 358.081 458.536 367.29 452.945 374.733V374.727Z" fill="#FFDBE0"/>
<path d="M131.742 317.949C131.743 319.981 131.343 321.993 130.565 323.87C129.788 325.747 128.648 327.453 127.211 328.89C125.774 330.326 124.068 331.466 122.191 332.243C120.313 333.02 118.301 333.419 116.269 333.418H54.395C51.2484 333.422 48.1755 332.465 45.5873 330.676C42.9991 328.886 41.0188 326.349 39.9112 323.404C38.8037 320.459 38.6217 317.246 39.3895 314.194C40.1573 311.143 41.8384 308.398 44.208 306.328C45.302 305.375 94.595 268.461 94.595 268.461C96.4335 267.085 97.9429 265.318 99.0135 263.287C100.084 261.256 100.689 259.012 100.785 256.718C100.881 254.424 100.464 252.137 99.5666 250.024C98.6688 247.91 97.3119 246.023 95.5943 244.5C93.8767 242.976 91.8415 241.854 89.6363 241.214C87.431 240.575 85.1111 240.434 82.8448 240.802C80.5785 241.171 78.4226 242.039 76.5335 243.344C74.6444 244.649 73.0695 246.359 71.923 248.348C69.8676 251.899 66.4856 254.489 62.5209 255.547C58.5563 256.604 54.3339 256.044 50.7825 253.988C47.2311 251.933 44.6417 248.551 43.5839 244.586C42.5261 240.622 43.0866 236.399 45.142 232.848C50.2535 224.003 58.1402 217.092 67.5794 213.185C77.0186 209.279 87.4829 208.596 97.3498 211.242C107.217 213.888 115.935 219.715 122.153 227.82C128.371 235.925 131.742 245.855 131.742 256.071C131.769 266.014 128.577 275.698 122.642 283.676C119.959 287.299 116.764 290.513 113.158 293.219L100.8 302.484H116.27C120.372 302.483 124.307 304.112 127.209 307.012C130.11 309.912 131.741 313.846 131.742 317.949Z" fill="#B9F0FF"/>
<path d="M43.6722 306.813C33.6292 316.739 40.6602 333.418 54.3952 333.418H72.1132V285.324C43.6172 306.691 44.9572 305.617 43.6722 306.813Z" fill="#7CE3FF"/>
<path d="M45.1448 232.852C44.127 234.61 43.4655 236.552 43.1981 238.565C42.9307 240.579 43.0625 242.626 43.5861 244.589C44.1097 246.552 45.0148 248.392 46.2496 250.005C47.4845 251.619 49.0251 252.973 50.7833 253.99C54.3341 256.046 58.5561 256.607 62.5203 255.549C64.4832 255.026 66.3237 254.12 67.9368 252.886C69.5499 251.651 70.904 250.11 71.9218 248.352C72.0388 248.152 72.1638 247.961 72.2888 247.766C73.0964 240.179 76.6822 233.16 82.3557 228.059C88.0292 222.958 95.3893 220.136 103.019 220.137H114.652C109.448 215.883 103.381 212.811 96.8727 211.134C90.364 209.457 83.5685 209.216 76.957 210.425C70.3455 211.635 64.076 214.268 58.5828 218.141C53.0896 222.014 48.5041 227.035 45.1438 232.856L45.1448 232.852Z" fill="#7CE3FF"/>
<path d="M295.453 215.1C295.453 217.132 295.053 219.144 294.275 221.021C293.497 222.898 292.357 224.603 290.921 226.04C289.484 227.476 287.778 228.616 285.901 229.393C284.024 230.17 282.012 230.57 279.98 230.57H238.73C234.649 230.537 230.745 228.893 227.871 225.995C224.996 223.097 223.383 219.181 223.383 215.099C223.383 211.018 224.996 207.102 227.871 204.204C230.745 201.306 234.649 199.662 238.73 199.629H243.886V157.5C240.577 158.67 236.969 158.681 233.653 157.531C230.338 156.38 227.512 154.136 225.639 151.168C223.767 148.199 222.96 144.682 223.35 141.194C223.74 137.706 225.304 134.455 227.786 131.973L248.422 111.34C250.586 109.178 253.342 107.706 256.342 107.11C259.342 106.514 262.452 106.82 265.278 107.991C268.104 109.162 270.519 111.144 272.219 113.686C273.919 116.229 274.827 119.219 274.828 122.278V199.63H279.98C282.012 199.63 284.024 200.029 285.901 200.807C287.778 201.584 289.484 202.723 290.921 204.16C292.358 205.597 293.498 207.302 294.275 209.179C295.053 211.056 295.453 213.068 295.453 215.1Z" fill="#FFF1D4"/>
<path d="M242.781 116.98L227.793 131.969C225.427 134.335 223.892 137.405 223.418 140.718C222.945 144.031 223.56 147.407 225.169 150.341C226.779 153.275 229.297 155.608 232.345 156.989C235.393 158.37 238.807 158.724 242.074 158C242.539 154.692 242.775 151.356 242.781 148.016V116.98Z" fill="#FCE3A0"/>
</svg>
