<svg width="512" height="512" viewBox="0 0 512 512" fill="none" xmlns="http://www.w3.org/2000/svg">
<path d="M481.844 196.984L420.031 89.9219L347.172 131.988C319.452 147.993 288.008 156.419 256 156.419C223.992 156.419 192.548 147.993 164.828 131.988L91.969 89.9219L30.156 196.984L103.019 239.05C130.738 255.054 153.756 278.072 169.759 305.791C185.762 333.51 194.187 364.953 194.187 396.96V481.093H317.813V396.961C317.813 364.954 326.238 333.511 342.241 305.792C358.244 278.073 381.262 255.055 408.981 239.051L481.844 196.984Z" fill="#82888B"/>
<path d="M223.289 274.887C217.565 264.975 211.149 255.479 204.089 246.469C177.675 212.75 197.167 162.848 239.429 155.879L240.386 155.727C213.763 153.451 187.966 145.347 164.824 131.989L99.57 94.313C69.3483 123.498 47.8965 160.558 37.641 201.3L49.489 208.144C104.7 240.016 113.75 244.48 127.508 256C148.354 273.104 165.147 294.618 176.678 318.993C188.209 343.368 194.191 369.996 194.192 396.961V458.774H256V396.961C255.985 354.106 244.705 312.008 223.289 274.887Z" fill="#676F72"/>
<path d="M256 0C114.613 0 0 114.613 0 256C0 397.387 114.613 512 256 512C397.387 512 512 397.387 512 256C512 114.613 397.387 0 256 0ZM256 419.285C165.965 419.285 92.715 346.035 92.715 256C92.715 165.965 165.965 92.715 256 92.715C346.035 92.715 419.285 165.965 419.285 256C419.285 346.035 346.035 419.285 256 419.285Z" fill="#9EA2A3"/>
<path d="M92.715 256C92.715 130.445 183.106 26.012 302.36 4.2C287.065 1.40329 271.548 -0.00244765 256 3.19916e-06C114.613 3.19916e-06 0 114.613 0 256C0 397.387 114.613 512 256 512C271.548 512.002 287.064 510.597 302.359 507.8C183.105 485.988 92.715 381.555 92.715 256Z" fill="#82888B"/>
<path d="M302.359 234.816C302.359 243.985 299.64 252.948 294.546 260.572C289.452 268.195 282.212 274.137 273.741 277.646C265.27 281.155 255.949 282.073 246.956 280.284C237.963 278.495 229.703 274.08 223.219 267.597C216.736 261.113 212.321 252.853 210.532 243.86C208.743 234.867 209.661 225.546 213.17 217.075C216.679 208.604 222.621 201.364 230.244 196.27C237.868 191.176 246.831 188.457 256 188.457C268.295 188.458 280.086 193.342 288.78 202.036C297.474 210.73 302.358 222.521 302.359 234.816Z" fill="#9EA2A3"/>
</svg>
