<svg width="512" height="512" viewBox="0 0 512 512" fill="none" xmlns="http://www.w3.org/2000/svg">
<path d="M53.309 387.707C75.5658 387.707 96.9111 378.866 112.649 363.128C128.388 347.391 137.229 326.046 137.23 303.789V191.23C125.775 191.23 114.432 193.485 103.849 197.869C93.2655 202.252 83.6494 208.677 75.5493 216.777C67.4492 224.877 61.0238 234.493 56.64 245.076C52.2563 255.659 50 267.002 50 278.457L50 384.4C50.0001 384.834 50.0858 385.265 50.2522 385.666C50.4186 386.067 50.6623 386.432 50.9696 386.739C51.2769 387.046 51.6416 387.289 52.043 387.456C52.4444 387.622 52.8746 387.707 53.309 387.707Z" fill="#DC4655"/>
<path d="M89.34 512C89.2326 490.099 93.4535 468.393 101.76 448.128C110.067 427.863 122.296 409.44 137.744 393.915C153.193 378.391 171.556 366.072 191.78 357.666C212.004 349.26 233.689 344.933 255.59 344.933C277.491 344.933 299.176 349.26 319.4 357.666C339.624 366.072 357.987 378.391 373.436 393.915C388.884 409.44 401.113 427.863 409.42 448.128C417.727 468.393 421.947 490.099 421.84 512H89.34Z" fill="#FFD164"/>
<path d="M281.344 347.734C257.625 344.033 233.385 345.51 210.291 352.063C187.196 358.616 165.793 370.089 147.552 385.695C129.31 401.301 114.662 420.671 104.614 442.473C94.5659 464.275 89.3552 487.994 89.34 512H140.848C140.851 472.37 155.007 434.043 180.766 403.926C206.525 373.809 242.193 353.882 281.344 347.734Z" fill="#FFC350"/>
<path d="M155.84 512H222.34V349.074C198.225 353.977 175.507 364.197 155.84 378.988V512Z" fill="#64505A"/>
<path d="M222.34 368.961V349.078C198.224 353.978 175.505 364.198 155.84 378.992V442.926C169.974 412.086 193.171 386.285 222.34 368.961Z" fill="#5A4650"/>
<path d="M288.84 512H355.34V378.992C335.675 364.198 312.956 353.978 288.84 349.078V512Z" fill="#64505A"/>
<path d="M255.59 303.73H195.98V356.765L255.589 416.37L315.2 356.766V303.73H255.59Z" fill="#E3AA75"/>
<path d="M275.137 435.926L255.586 416.371L323.637 348.32L343.188 367.871C344.276 368.959 345.14 370.251 345.729 371.673C346.318 373.095 346.622 374.619 346.622 376.158C346.622 377.697 346.318 379.221 345.729 380.643C345.14 382.065 344.276 383.357 343.188 384.445L291.711 435.925C289.513 438.122 286.532 439.356 283.424 439.356C280.316 439.357 277.335 438.123 275.137 435.926Z" fill="#FFE17D"/>
<path d="M345.832 371.945C345.246 370.417 344.344 369.029 343.187 367.871L323.637 348.32L279.844 392.109C302.852 389.309 325.188 382.483 345.832 371.945Z" fill="#FFD164"/>
<path d="M236.031 435.926L255.586 416.371L187.531 348.32L167.98 367.871C166.891 368.959 166.028 370.251 165.439 371.673C164.85 373.095 164.546 374.619 164.546 376.158C164.546 377.697 164.85 379.221 165.439 380.643C166.028 382.065 166.891 383.357 167.98 384.445L219.457 435.925C221.655 438.122 224.636 439.356 227.744 439.356C230.852 439.357 233.832 438.123 236.031 435.926Z" fill="#FFE17D"/>
<path d="M231.32 392.109L187.531 348.32L167.98 367.871C166.825 369.028 165.925 370.415 165.339 371.941C185.98 382.481 208.314 389.307 231.32 392.109Z" fill="#FFD164"/>
<path d="M195.98 303.73V356.765L231.324 392.109C247.441 394.083 263.738 394.083 279.855 392.109L315.2 356.766V303.73H195.98Z" fill="#D29B6E"/>
<path d="M461.18 204C461.181 211.003 459.106 217.849 455.216 223.672C451.326 229.495 445.797 234.034 439.328 236.715C432.858 239.396 425.739 240.098 418.871 238.733C412.002 237.367 405.693 233.996 400.741 229.044C395.788 224.093 392.416 217.784 391.049 210.916C389.682 204.048 390.383 196.929 393.062 190.459C395.742 183.989 400.28 178.459 406.102 174.568C411.925 170.677 418.77 168.6 425.773 168.6C430.422 168.599 435.026 169.514 439.322 171.293C443.618 173.071 447.521 175.679 450.809 178.966C454.097 182.253 456.705 186.156 458.485 190.451C460.264 194.747 461.18 199.351 461.18 204Z" fill="#E3AA75"/>
<path d="M120.813 204C120.814 211.003 118.739 217.849 114.849 223.672C110.959 229.495 105.43 234.034 98.9607 236.715C92.4912 239.396 85.3721 240.098 78.5037 238.733C71.6352 237.367 65.3259 233.996 60.3736 229.044C55.4214 224.093 52.0486 217.784 50.6819 210.916C49.3151 204.048 50.0158 196.929 52.6953 190.459C55.3747 183.989 59.9126 178.459 65.7351 174.568C71.5576 170.677 78.4031 168.6 85.406 168.6C90.0554 168.599 94.6594 169.514 98.9551 171.293C103.251 173.071 107.154 175.679 110.442 178.966C113.73 182.253 116.338 186.156 118.118 190.451C119.897 194.747 120.813 199.351 120.813 204Z" fill="#D29B6E"/>
<path d="M434.2 194.063C434.2 229.388 423.724 263.92 404.099 293.292C384.473 322.664 356.578 345.557 323.941 359.075C291.305 372.594 255.393 376.131 220.746 369.239C186.099 362.347 154.274 345.336 129.295 320.358C104.317 295.379 87.3057 263.554 80.414 228.907C73.5223 194.26 77.0593 158.348 90.5776 125.712C104.096 93.0751 126.989 65.1802 156.361 45.5543C185.732 25.9285 220.265 15.4531 255.59 15.4529C302.96 15.4529 348.39 34.2707 381.886 67.7665C415.382 101.262 434.2 146.693 434.2 194.063Z" fill="#F5B97D"/>
<path d="M128.488 194.063C128.491 151.155 143.939 109.681 172.006 77.226C200.074 44.7707 238.885 23.5021 281.344 17.3091C257.057 13.7717 232.302 15.2774 208.624 21.7323C184.945 28.1872 162.85 39.4528 143.719 54.8261C124.587 70.1993 108.829 89.3504 97.4282 111.084C86.027 132.818 79.2272 156.669 77.4532 181.147C75.6792 205.626 78.9689 230.208 87.1172 253.358C95.2655 276.509 108.097 297.732 124.812 315.703C141.527 333.674 161.767 348.008 184.267 357.81C206.768 367.611 231.047 372.671 255.59 372.672C264.208 372.671 272.815 372.051 281.344 370.817C194.906 358.328 128.488 283.957 128.488 194.063Z" fill="#E3AA75"/>
<path d="M255.59 0C154.145 0 70.609 78.156 62.035 177.418C66.7584 173.255 72.509 170.431 78.691 169.238V169.23L112.191 145.289H398.984L432.484 169.23V169.238C438.666 170.43 444.417 173.254 449.14 177.418C440.57 78.156 357.035 0 255.59 0Z" fill="#64505A"/>
<path d="M281.34 1.715C272.804 0.575892 264.202 0.00297329 255.59 0C154.145 0 70.609 78.156 62.035 177.418C66.7584 173.255 72.509 170.431 78.691 169.238V169.23L112.191 145.289H119.242C138.832 69.9 202.723 12.188 281.34 1.715Z" fill="#5A4650"/>
<path d="M399.863 146.977C399.569 145.89 398.876 144.954 397.922 144.356C387.094 137.556 318.36 95.981 255.59 95.981C192.82 95.981 124.09 137.551 113.258 144.356C112.304 144.954 111.611 145.89 111.317 146.977C108.399 157.711 93.653 216.036 118.27 214.637C145.383 213.098 197.836 155.309 255.59 155.309C313.344 155.309 365.8 213.1 392.91 214.637C417.527 216.035 402.781 157.711 399.863 146.977Z" fill="#6E5A64"/>
<path d="M255.59 259.266C250.769 259.258 246.035 257.981 241.864 255.565C237.692 253.149 234.23 249.678 231.824 245.5C231.302 244.645 230.957 243.695 230.809 242.704C230.661 241.714 230.712 240.704 230.96 239.733C231.209 238.763 231.649 237.853 232.255 237.055C232.861 236.258 233.62 235.59 234.488 235.091C235.357 234.592 236.316 234.272 237.31 234.149C238.304 234.027 239.312 234.105 240.276 234.379C241.239 234.652 242.138 235.116 242.919 235.743C243.7 236.369 244.348 237.146 244.824 238.027C245.911 239.921 247.478 241.495 249.367 242.59C251.257 243.684 253.402 244.261 255.586 244.261C257.769 244.261 259.914 243.684 261.804 242.59C263.693 241.495 265.261 239.921 266.347 238.027C266.827 237.152 267.476 236.382 268.257 235.761C269.039 235.14 269.936 234.681 270.897 234.411C271.857 234.142 272.862 234.066 273.852 234.19C274.842 234.314 275.798 234.633 276.663 235.131C277.528 235.628 278.285 236.294 278.89 237.087C279.494 237.881 279.935 238.787 280.185 239.754C280.435 240.72 280.489 241.726 280.345 242.713C280.202 243.701 279.862 244.649 279.347 245.504C276.941 249.679 273.479 253.148 269.31 255.563C265.14 257.979 260.409 259.256 255.59 259.266Z" fill="#5A4650"/>
<path d="M321.2 229.1C319.211 229.1 317.303 228.31 315.897 226.903C314.49 225.497 313.7 223.589 313.7 221.6V209.9C313.7 207.911 314.49 206.003 315.897 204.597C317.303 203.19 319.211 202.4 321.2 202.4C323.189 202.4 325.097 203.19 326.503 204.597C327.91 206.003 328.7 207.911 328.7 209.9V221.6C328.7 223.589 327.91 225.497 326.503 226.903C325.097 228.31 323.189 229.1 321.2 229.1Z" fill="#5A4650"/>
<path d="M189.977 229.1C187.988 229.1 186.08 228.31 184.674 226.903C183.267 225.497 182.477 223.589 182.477 221.6V209.9C182.477 207.911 183.267 206.003 184.674 204.597C186.08 203.19 187.988 202.4 189.977 202.4C191.966 202.4 193.874 203.19 195.28 204.597C196.687 206.003 197.477 207.911 197.477 209.9V221.6C197.477 223.589 196.687 225.497 195.28 226.903C193.874 228.31 191.966 229.1 189.977 229.1Z" fill="#5A4650"/>
<path d="M327.051 251.215H315.351C313.362 251.215 311.454 250.425 310.048 249.018C308.641 247.612 307.851 245.704 307.851 243.715C307.851 241.726 308.641 239.818 310.048 238.412C311.454 237.005 313.362 236.215 315.351 236.215H327.051C329.04 236.215 330.948 237.005 332.354 238.412C333.761 239.818 334.551 241.726 334.551 243.715C334.551 245.704 333.761 247.612 332.354 249.018C330.948 250.425 329.04 251.215 327.051 251.215Z" fill="#E6646E"/>
<path d="M195.828 251.215H184.128C182.139 251.215 180.231 250.425 178.825 249.018C177.418 247.612 176.628 245.704 176.628 243.715C176.628 241.726 177.418 239.818 178.825 238.412C180.231 237.005 182.139 236.215 184.128 236.215H195.828C197.817 236.215 199.725 237.005 201.131 238.412C202.538 239.818 203.328 241.726 203.328 243.715C203.328 245.704 202.538 247.612 201.131 249.018C199.725 250.425 197.817 251.215 195.828 251.215Z" fill="#E6646E"/>
</svg>
