<svg width="512" height="512" viewBox="0 0 512 512" fill="none" xmlns="http://www.w3.org/2000/svg">
<path d="M106.5 429.5C106.5 447.402 113.612 464.571 126.27 477.23C138.929 489.888 156.098 497 174 497C191.902 497 209.071 489.888 221.73 477.23C234.388 464.571 241.5 447.402 241.5 429.5V318.5L106.5 183.5V429.5Z" fill="#E9DCFA"/>
<path d="M174 0C156.098 0 138.929 7.11159 126.27 19.7703C113.612 32.429 106.5 49.5979 106.5 67.5V183.5L241.5 318.5V67.5C241.5 49.5979 234.388 32.429 221.73 19.7703C209.071 7.11159 191.902 0 174 0V0Z" fill="#B9F0FF"/>
<path d="M106.5 223.426L241.5 358.426V273.574L106.5 138.574V223.426Z" fill="#EFEDEE"/>
<path d="M241.5 429.5H196.5C188.544 429.5 180.913 426.339 175.287 420.713C169.661 415.087 166.5 407.456 166.5 399.5V223.426H106.5V428.477C106.5 465.27 135.523 496.071 172.3 496.977C181.303 497.197 190.258 495.615 198.641 492.324C207.023 489.032 214.663 484.098 221.11 477.811C227.558 471.524 232.683 464.012 236.184 455.715C239.686 447.418 241.493 438.505 241.5 429.5Z" fill="#C9AAF2"/>
<path d="M166.5 67.4999C166.498 54.9282 170.008 42.606 176.634 31.922C183.26 21.2381 192.738 12.6171 204 7.03088C193.709 1.92496 182.285 -0.469814 170.809 0.0732799C159.334 0.616374 148.187 4.07937 138.423 10.1344C128.66 16.1894 120.604 24.6361 115.018 34.6747C109.431 44.7133 106.5 56.0116 106.5 67.4999V198.574H166.5V67.4999Z" fill="#7CE3FF"/>
<path d="M166.5 198.574L106.5 138.574V223.426L166.5 283.426V198.574Z" fill="#D4D4D5"/>
<path d="M271.5 178.5V429.5C271.5 447.402 278.612 464.571 291.27 477.23C303.929 489.888 321.098 497 339 497C356.902 497 374.071 489.888 386.73 477.23C399.388 464.571 406.5 447.402 406.5 429.5V313.5L271.5 178.5Z" fill="#E9DCFA"/>
<path d="M406.5 67.5C406.5 49.5979 399.388 32.429 386.73 19.7703C374.071 7.11159 356.902 0 339 0C321.098 0 303.929 7.11159 291.27 19.7703C278.612 32.429 271.5 49.5979 271.5 67.5V178.5L406.5 313.5V67.5Z" fill="#B9F0FF"/>
<path d="M271.5 223.426L406.5 358.426V273.574L271.5 138.574V223.426Z" fill="#EFEDEE"/>
<path d="M406.5 429.5H361.5C353.544 429.5 345.913 426.339 340.287 420.713C334.661 415.087 331.5 407.456 331.5 399.5V223.426H271.5V428.477C271.5 465.27 300.523 496.071 337.3 496.977C346.303 497.197 355.258 495.615 363.641 492.324C372.023 489.032 379.663 484.098 386.11 477.811C392.558 471.524 397.683 464.012 401.184 455.715C404.686 447.418 406.493 438.505 406.5 429.5Z" fill="#C9AAF2"/>
<path d="M331.5 67.4999C331.498 54.9282 335.008 42.606 341.634 31.922C348.259 21.2381 357.738 12.6171 369 7.03088C358.709 1.92496 347.284 -0.469814 335.809 0.0732799C324.334 0.616374 313.187 4.07937 303.423 10.1344C293.66 16.1894 285.604 24.6361 280.018 34.6747C274.431 44.7133 271.5 56.0116 271.5 67.4999V198.574H331.5V67.4999Z" fill="#7CE3FF"/>
<path d="M331.5 198.574L271.5 138.574V223.426L331.5 283.426V198.574Z" fill="#D4D4D5"/>
<path d="M23 45V512C23 490.285 29.715 497 38 497C46.285 497 53 490.285 53 512V45H23Z" fill="#D4D4D5"/>
<path d="M53 471H23C19.0218 471 15.2064 469.42 12.3934 466.607C9.58035 463.794 8 459.978 8 456C8 452.022 9.58035 448.206 12.3934 445.393C15.2064 442.58 19.0218 441 23 441H53C56.9782 441 60.7936 442.58 63.6066 445.393C66.4196 448.206 68 452.022 68 456C68 459.978 66.4196 463.794 63.6066 466.607C60.7936 469.42 56.9782 471 53 471Z" fill="#B9BBBC"/>
<path d="M37.156 0.0118754C20.816 0.460875 8 14.2769 8 30.6249V115C8 118.978 9.58035 122.793 12.3934 125.606C15.2064 128.42 19.0218 130 23 130H53C56.9782 130 60.7936 128.42 63.6066 125.606C66.4196 122.793 68 118.978 68 115V29.9999C68 25.9892 67.1958 22.0192 65.6349 18.3247C64.074 14.6302 61.7882 11.2862 58.9126 8.49042C56.037 5.69463 52.63 3.50381 48.8931 2.04752C45.1561 0.591234 41.1651 -0.100959 37.156 0.0118754Z" fill="#C9AAF2"/>
<path d="M460 45V512C460 490.285 466.715 497 475 497C483.285 497 490 490.285 490 512V45H460Z" fill="#D4D4D5"/>
<path d="M490 471H460C456.022 471 452.206 469.42 449.393 466.607C446.58 463.794 445 459.978 445 456C445 452.022 446.58 448.206 449.393 445.393C452.206 442.58 456.022 441 460 441H490C493.978 441 497.794 442.58 500.607 445.393C503.42 448.206 505 452.022 505 456C505 459.978 503.42 463.794 500.607 466.607C497.794 469.42 493.978 471 490 471Z" fill="#B9BBBC"/>
<path d="M474.156 0.0118754C457.816 0.460875 445 14.2769 445 30.6249V115C445 118.978 446.58 122.793 449.393 125.606C452.206 128.42 456.022 130 460 130H490C493.978 130 497.794 128.42 500.607 125.606C503.42 122.793 505 118.978 505 115V29.9999C505 25.9892 504.196 22.0192 502.635 18.3247C501.074 14.6302 498.788 11.2862 495.913 8.49042C493.037 5.69463 489.63 3.50381 485.893 2.04752C482.156 0.591234 478.165 -0.100959 474.156 0.0118754Z" fill="#C9AAF2"/>
</svg>
