<svg width="512" height="512" viewBox="0 0 512 512" fill="none" xmlns="http://www.w3.org/2000/svg">
<path d="M1.69463e-07 185.727V313.691H154.871V159.164H26.563C23.0746 159.164 19.6203 159.85 16.3973 161.185C13.1744 162.52 10.2459 164.477 7.77924 166.943C5.31256 169.41 3.35596 172.338 2.02119 175.561C0.686409 178.784 -0.000393875 182.239 1.69462e-07 185.727H1.69463e-07Z" fill="#D4D4D5"/>
<path d="M485.438 159.164H154.871V313.691H512V185.727C512 182.239 511.314 178.784 509.979 175.562C508.644 172.339 506.688 169.41 504.221 166.944C501.755 164.477 498.826 162.52 495.603 161.186C492.381 159.851 488.926 159.164 485.438 159.164Z" fill="#EFEDEE"/>
<path d="M512 450.191V304.168C503.903 304.32 495.859 302.82 488.36 299.76C480.862 296.699 474.066 292.143 468.387 286.368L468.305 286.282C462.754 280.621 456.13 276.124 448.82 273.054C441.51 269.983 433.661 268.402 425.733 268.402C417.804 268.402 409.955 269.983 402.645 273.054C395.335 276.124 388.711 280.621 383.16 286.282C377.603 291.951 370.973 296.456 363.656 299.534C356.338 302.612 348.481 304.202 340.543 304.21C332.605 304.218 324.745 302.644 317.421 299.581C310.098 296.517 303.458 292.026 297.89 286.368L297.808 286.282C292.242 280.628 285.606 276.139 278.286 273.077C270.967 270.015 263.111 268.443 255.177 268.451C247.242 268.459 239.389 270.047 232.076 273.124C224.763 276.2 218.135 280.702 212.581 286.368C207.028 292.033 200.401 296.533 193.087 299.605C185.773 302.677 177.92 304.26 169.988 304.26C162.055 304.26 154.202 302.677 146.888 299.605C139.575 296.533 132.947 292.033 127.394 286.368L127.332 286.306C126.132 285.091 124.895 283.954 123.621 282.865V512H450.191C458.308 512 466.345 510.402 473.845 507.295C481.344 504.189 488.157 499.636 493.897 493.897C499.636 488.157 504.189 481.344 507.295 473.844C510.402 466.345 512 458.308 512 450.191Z" fill="#7CE3FF"/>
<path d="M123.621 450.191V377.691C123.622 349.395 134.863 322.259 154.871 302.25C144.443 299.541 134.946 294.052 127.394 286.367L127.332 286.305C126.132 285.09 124.891 283.957 123.621 282.864C112.127 273.019 97.328 267.899 82.2078 268.537C67.0877 269.174 52.7719 275.522 42.148 286.3L42.086 286.363C36.5889 291.957 30.0415 296.41 22.8193 299.467C15.5972 302.525 7.84248 304.126 8.09358e-09 304.18L8.09359e-09 450.191C-0.000131349 458.308 1.59865 466.346 4.70505 473.845C7.81144 481.345 12.3646 488.159 18.1046 493.898C23.8445 499.638 30.6588 504.19 38.1583 507.296C45.6579 510.402 53.6958 512.001 61.813 512H185.434C177.317 512 169.279 510.402 161.78 507.296C154.28 504.19 147.466 499.637 141.726 493.897C135.987 488.158 131.433 481.344 128.327 473.845C125.22 466.346 123.621 458.308 123.621 450.191Z" fill="#55DAFE"/>
<path d="M275.832 0C251.25 0.0277909 227.683 9.8053 210.3 27.1875C192.918 44.5696 183.141 68.1369 183.113 92.719H244.926C244.926 84.5221 248.182 76.6609 253.978 70.8648C259.774 65.0687 267.636 61.8125 275.833 61.8125C284.029 61.8125 291.891 65.0687 297.687 70.8648C303.483 76.6609 306.739 84.5221 306.739 92.719V385.762C306.739 393.958 309.995 401.819 315.791 407.615C321.586 413.41 329.447 416.667 337.644 416.667C345.84 416.667 353.701 413.41 359.496 407.615C365.292 401.819 368.548 393.958 368.548 385.762V92.719C368.521 68.1374 358.744 44.5704 341.362 27.1882C323.98 9.80609 300.414 0.0283206 275.832 0V0Z" fill="#D4D4D5"/>
<path d="M306.738 251.863H244.926V190.055H306.739C314.936 190.055 322.797 186.799 328.593 181.003C334.389 175.207 337.645 167.346 337.645 159.149C337.645 150.952 334.389 143.091 328.593 137.295C322.797 131.499 314.936 128.243 306.739 128.243H244.926V92.719C244.926 68.1289 235.158 44.5459 217.77 27.1581C200.382 9.77032 176.799 0.00195313 152.209 0.00195312C127.619 0.00195313 104.036 9.77032 86.6481 27.1581C69.2603 44.5459 59.4919 68.1289 59.4919 92.719V159.164H121.3V92.719C121.3 84.5226 124.556 76.6619 130.352 70.8662C136.147 65.0705 144.008 61.8145 152.204 61.8145C160.401 61.8145 168.262 65.0705 174.057 70.8662C179.853 76.6619 183.109 84.5226 183.109 92.719V385.762C183.109 393.959 186.365 401.82 192.161 407.616C197.957 413.412 205.819 416.668 214.015 416.668C222.212 416.668 230.074 413.412 235.87 407.616C241.666 401.82 244.922 393.959 244.922 385.762V313.676H306.735C314.932 313.676 322.793 310.42 328.589 304.624C334.385 298.828 337.641 290.967 337.641 282.77C337.641 274.573 334.385 266.712 328.589 260.916C322.793 255.12 314.932 251.864 306.735 251.864L306.738 251.863Z" fill="#B9BBBC"/>
<path d="M509.941 368.715L509.879 368.778C504.316 374.425 497.685 378.909 490.373 381.97C483.061 385.031 475.213 386.608 467.286 386.608C459.358 386.608 451.511 385.031 444.198 381.97C436.886 378.909 430.255 374.425 424.692 368.778L424.63 368.716C419.067 363.069 412.437 358.584 405.125 355.523C397.813 352.462 389.965 350.886 382.038 350.886C374.111 350.886 366.263 352.462 358.951 355.523C351.639 358.584 345.009 363.069 339.446 368.716L339.384 368.779C333.821 374.426 327.191 378.911 319.879 381.972C312.567 385.033 304.719 386.609 296.792 386.609C288.865 386.609 281.017 385.033 273.705 381.972C266.393 378.911 259.763 374.426 254.2 368.779L254.138 368.717C248.575 363.07 241.944 358.585 234.632 355.525C227.32 352.464 219.472 350.887 211.545 350.887C203.617 350.887 195.77 352.464 188.457 355.525C181.145 358.585 174.514 363.07 168.951 368.717L168.889 368.78C163.016 374.756 155.95 379.428 148.15 382.489C140.35 385.55 131.993 386.932 123.623 386.546L95.8091 416.336L123.622 450.051C134.955 439.127 150.138 433.114 165.877 433.316C181.615 433.518 196.639 439.918 207.688 451.129L207.751 451.192C213.314 456.839 219.945 461.324 227.257 464.385C234.57 467.446 242.418 469.022 250.345 469.022C258.272 469.022 266.12 467.446 273.433 464.385C280.745 461.324 287.376 456.839 292.939 451.192L293.002 451.13C298.565 445.484 305.196 441 312.508 437.939C319.82 434.879 327.667 433.303 335.594 433.303C343.521 433.303 351.368 434.879 358.68 437.939C365.992 441 372.623 445.484 378.186 451.13L378.249 451.193C383.812 456.84 390.442 461.325 397.754 464.386C405.066 467.447 412.914 469.023 420.841 469.023C428.768 469.023 436.616 467.447 443.928 464.386C451.24 461.325 457.87 456.84 463.433 451.193L463.496 451.131C469.755 444.766 477.361 439.887 485.756 436.852C494.15 433.817 503.118 432.703 512 433.594V366.727C511.3 367.371 510.613 368.031 509.941 368.715Z" fill="#B9F0FF"/>
<path d="M83.7 368.777L83.638 368.715C72.6616 357.577 57.7583 351.184 42.1234 350.905C26.4885 350.626 11.3666 356.484 0 367.223L0 433.551C14.0919 434.805 27.2765 441.037 37.191 451.129L37.254 451.192C42.8168 456.839 49.4472 461.324 56.7592 464.385C64.0713 467.446 71.9191 469.022 79.846 469.022C87.7729 469.022 95.6207 467.446 102.933 464.385C110.245 461.324 116.875 456.839 122.438 451.192L122.501 451.13C122.868 450.759 123.251 450.411 123.622 450.052V386.543C108.544 385.893 94.2756 379.544 83.7 368.777Z" fill="#7CE3FF"/>
</svg>
