<svg width="512" height="512" viewBox="0 0 512 512" fill="none" xmlns="http://www.w3.org/2000/svg">
<path d="M23.7271 400.664C23.5591 400.777 23.3991 400.894 23.2391 401.023C13.2001 409.093 5.913 420.08 2.38321 432.467C-1.14657 444.855 -0.745053 458.033 3.53237 470.182C7.80979 482.332 15.7523 492.855 26.264 500.299C36.7757 507.743 49.3385 511.741 62.2191 511.742C71.5868 511.701 80.8265 509.563 89.2602 505.485C97.6939 501.407 105.107 495.493 110.957 488.176L150.1 315.52L23.7271 400.664Z" fill="#CE857A"/>
<path d="M150.1 315.52C129.882 338.862 115.733 366.829 108.905 396.946C102.077 427.062 102.781 458.397 110.955 488.176L196.225 361.641V315.52H150.1Z" fill="#D6948C"/>
<path d="M446.094 65.9769C357.649 -22.7851 213.394 -21.5501 124.794 67.0509L80.125 111.719C62.7864 129.06 53.0459 152.578 53.0459 177.1C53.0459 201.622 62.7864 225.14 80.125 242.481L269 431.359C286.341 448.698 309.859 458.438 334.381 458.438C358.903 458.438 382.421 448.698 399.762 431.359L445.8 385.32C533.969 297.152 534.066 154.266 446.094 65.9769Z" fill="#FFB5C0"/>
<path d="M227.027 69.945L295.093 1.87497C263.401 0.4882 231.768 5.71496 202.208 17.2225C172.647 28.7301 145.806 46.2663 123.393 68.715L78.7229 113.383C70.1369 121.968 63.326 132.161 58.6793 143.379C54.0325 154.597 51.6409 166.62 51.6409 178.762C51.6409 190.904 54.0325 202.927 58.6793 214.145C63.326 225.363 70.1369 235.555 78.7229 244.141L267.6 433.02C284.055 449.47 306.107 459.111 329.357 460.018C352.606 460.926 375.343 453.033 393.03 437.915L227.03 271.915C213.767 258.654 203.246 242.911 196.068 225.584C188.891 208.257 185.196 189.686 185.196 170.931C185.195 152.176 188.889 133.604 196.067 116.277C203.244 98.9499 213.765 83.2061 227.027 69.945Z" fill="#FF8E9E"/>
<path d="M226.02 168.094C226.02 190.445 219.391 212.294 206.974 230.878C194.556 249.462 176.906 263.947 156.256 272.5C135.606 281.053 112.884 283.291 90.9624 278.93C69.0408 274.57 48.9045 263.807 33.0999 248.002C17.2953 232.198 6.53218 212.061 2.1716 190.14C-2.18898 168.218 0.048831 145.496 8.60204 124.846C17.1553 104.196 31.6397 86.5463 50.2238 74.1285C68.8079 61.7106 90.657 55.0824 113.008 55.082C127.849 55.082 142.545 58.0052 156.256 63.6846C169.967 69.3639 182.425 77.6883 192.92 88.1825C203.414 98.6766 211.738 111.135 217.418 124.846C223.097 138.557 226.02 153.253 226.02 168.094Z" fill="#EFEDEE"/>
<path d="M117.051 59.125C118.336 57.84 119.645 56.594 120.961 55.363C104.819 54.2084 88.6168 56.5421 73.4564 62.2053C58.2959 67.8686 44.5321 76.7288 33.1001 88.184C-10.8179 132.106 -10.8179 204.084 33.1001 248.004C44.5321 259.46 58.2963 268.32 73.4573 273.982C88.6183 279.645 104.821 281.977 120.963 280.82C119.647 279.59 118.338 278.343 117.053 277.058C102.743 262.749 91.3917 245.761 83.647 227.064C75.9023 208.368 71.9161 188.329 71.9159 168.092C71.9157 147.855 75.9016 127.816 83.6459 109.119C91.3902 90.4228 102.741 73.4347 117.051 59.125Z" fill="#D4D4D5"/>
</svg>
