<svg width="512" height="512" viewBox="0 0 512 512" fill="none" xmlns="http://www.w3.org/2000/svg">
<path d="M98.2499 54.3711C67.6445 78.3187 42.8923 108.919 25.8695 143.854C8.84668 178.788 0 217.139 0 256C0 294.861 8.84668 333.212 25.8695 368.147C42.8923 403.081 67.6445 433.681 98.2499 457.629L257.758 256L98.2499 54.3711Z" fill="#FFCE71"/>
<path d="M512 256C512.033 217.599 503.411 179.685 486.773 145.075C470.135 110.466 445.911 80.0517 415.9 56.094L257.758 256L415.9 455.906C445.911 431.948 470.135 401.534 486.773 366.925C503.411 332.315 512.033 294.401 512 256Z" fill="#FFCE71"/>
<path d="M415.9 56.094C370.557 19.7074 314.137 -0.08499 256 2.86197e-05V253.777L257.758 256L415.9 56.094Z" fill="#B9F0FF"/>
<path d="M98.2499 54.3711L256 253.777V6.36414e-05C198.806 -0.0887864 143.244 19.0615 98.2499 54.3711Z" fill="#FCE3A0"/>
<path d="M256 258.223V512C314.137 512.085 370.557 492.293 415.9 455.906L257.758 256L256 258.223Z" fill="#FCE3A0"/>
<path d="M98.2499 457.629C143.244 492.939 198.806 512.089 256 512V258.223L98.2499 457.629Z" fill="#B9F0FF"/>
<path d="M92.7149 256C92.7134 280.635 98.2932 304.949 109.035 327.119C119.778 349.288 135.403 368.735 154.738 384C221.286 400.098 290.713 400.098 357.261 384C376.596 368.735 392.221 349.288 402.963 327.119C413.706 304.949 419.285 280.635 419.284 256H92.7149Z" fill="#EFEDEE"/>
<path d="M357.262 128C290.714 144.098 221.287 144.098 154.739 128C135.404 143.265 119.778 162.712 109.036 184.881C98.2935 207.05 92.7135 231.365 92.7149 256C199.838 283.473 312.162 283.473 419.285 256C419.286 231.365 413.707 207.051 402.964 184.881C392.222 162.712 376.597 143.265 357.262 128Z" fill="#7CE3FF"/>
<path d="M254.523 0.0200195C197.839 0.260944 142.854 19.3918 98.2619 54.387L137.184 103.587C165.849 58.7767 206.499 22.8974 254.523 0.0200195Z" fill="#FFCE71"/>
<path d="M137.184 408.41L98.2619 457.61C142.855 492.606 197.842 511.738 254.527 511.98C206.501 489.103 165.849 453.223 137.184 408.41Z" fill="#7CE3FF"/>
<path d="M92.7149 256C92.6317 201.986 108.067 149.085 137.184 103.59L98.2619 54.3901C67.6535 78.3323 42.8982 108.929 25.8731 143.862C8.84802 178.794 3.05176e-05 217.144 3.05176e-05 256.004C3.05176e-05 294.864 8.84802 333.214 25.8731 368.146C42.8982 403.078 67.6535 433.675 98.2619 457.617L137.184 408.417C108.065 362.921 92.6298 310.017 92.7149 256Z" fill="#FFB357"/>
</svg>
