<svg width="512" height="512" viewBox="0 0 512 512" fill="none" xmlns="http://www.w3.org/2000/svg">
<path d="M439.985 278.278C466.504 266.528 478.477 235.504 466.726 208.985C454.976 182.465 423.952 170.493 397.432 182.244C370.913 193.994 358.941 225.018 370.691 251.537C382.442 278.057 413.466 290.029 439.985 278.278Z" fill="#FFBE9D"/>
<path d="M112.078 238.454C116.719 209.825 97.2726 182.855 68.6436 178.214C40.0147 173.573 13.0442 193.019 8.4032 221.648C3.76224 250.277 23.2083 277.247 51.8372 281.888C80.4662 286.529 107.437 267.083 112.078 238.454Z" fill="#FFD3BD"/>
<path d="M372.956 487.839C375.572 487.849 378.16 487.3 380.547 486.229C382.935 485.159 385.065 483.59 386.798 481.63C388.53 479.669 389.824 477.362 390.593 474.861C391.362 472.36 391.588 469.724 391.256 467.129C386.25 430.45 368.125 396.827 340.235 372.485C312.346 348.143 276.581 334.73 239.562 334.73C202.543 334.73 166.778 348.143 138.889 372.485C110.999 396.827 92.8733 430.45 87.8679 467.129C87.5361 469.724 87.7621 472.36 88.5309 474.861C89.2997 477.362 90.5936 479.669 92.3259 481.63C94.0583 483.59 96.1893 485.159 98.5764 486.229C100.963 487.3 103.552 487.849 106.168 487.839H372.956Z" fill="#A2DDFD"/>
<path d="M311.777 341.108L323.085 369.325L297.593 414.269C297.593 414.269 248.668 431.861 239.557 435.478C230.447 431.862 181.521 414.269 181.521 414.269L156.029 369.325L167.337 341.108H311.777Z" fill="#FFD3BD"/>
<path d="M171.158 357.412C179.274 382.966 213.403 422.144 239.558 435.478C216.524 428.156 189.643 428.95 171.921 443.694C170.663 444.767 169.189 445.556 167.598 446.007C166.007 446.457 164.338 446.559 162.704 446.304C161.071 446.049 159.512 445.444 158.134 444.53C156.756 443.616 155.591 442.416 154.721 441.01C141.921 419.988 127.15 377.71 147.076 351.891L171.158 357.412Z" fill="#7ACDF9"/>
<path d="M307.958 357.412C299.842 382.966 265.713 422.144 239.558 435.478C262.592 428.156 289.473 428.95 307.195 443.694C308.453 444.767 309.927 445.556 311.518 446.007C313.109 446.457 314.778 446.559 316.412 446.304C318.045 446.049 319.605 445.444 320.982 444.53C322.36 443.616 323.525 442.416 324.395 441.01C337.195 419.988 351.966 377.71 332.04 351.891L307.958 357.412Z" fill="#7ACDF9"/>
<path d="M420.097 218.801C420.097 126.739 339.267 55.139 239.559 55.139C139.851 55.139 59.02 126.738 59.02 218.801C59.02 310.864 139.85 383.811 239.559 383.811C339.268 383.811 420.097 310.861 420.097 218.801Z" fill="#FFD3BD"/>
<path d="M181.552 63.601C110.298 85.128 59.02 145.473 59.02 218.801C59.02 310.863 139.85 383.811 239.559 383.811C264.28 383.875 288.789 379.26 311.794 370.211C90.327 357.98 121.585 130.424 181.552 63.601Z" fill="#FFBE9D"/>
<path d="M133.941 290.741C155.464 290.741 172.912 276.847 172.912 259.707C172.912 242.567 155.464 228.673 133.941 228.673C112.418 228.673 94.97 242.567 94.97 259.707C94.97 276.847 112.418 290.741 133.941 290.741Z" fill="#E7889D"/>
<path d="M345.175 290.741C366.698 290.741 384.146 276.847 384.146 259.707C384.146 242.567 366.698 228.673 345.175 228.673C323.652 228.673 306.204 242.567 306.204 259.707C306.204 276.847 323.652 290.741 345.175 290.741Z" fill="#E7889D"/>
<path d="M156.653 236.95C154.664 236.95 152.756 236.16 151.35 234.753C149.943 233.347 149.153 231.439 149.153 229.45V214.284C149.153 212.295 149.943 210.387 151.35 208.981C152.756 207.574 154.664 206.784 156.653 206.784C158.642 206.784 160.55 207.574 161.956 208.981C163.363 210.387 164.153 212.295 164.153 214.284V229.45C164.153 231.439 163.363 233.347 161.956 234.753C160.55 236.16 158.642 236.95 156.653 236.95Z" fill="#4E5660"/>
<path d="M239.558 246.815C234.343 246.814 229.19 245.694 224.444 243.533C219.698 241.372 215.471 238.218 212.047 234.285C211.392 233.544 210.89 232.68 210.569 231.744C210.249 230.808 210.118 229.818 210.182 228.831C210.246 227.843 210.505 226.879 210.944 225.992C211.382 225.105 211.992 224.314 212.738 223.664C213.484 223.014 214.351 222.518 215.289 222.204C216.227 221.891 217.218 221.766 218.205 221.837C219.192 221.908 220.155 222.174 221.039 222.619C221.922 223.063 222.709 223.679 223.354 224.429C225.369 226.748 227.859 228.607 230.654 229.881C233.45 231.155 236.486 231.814 239.558 231.814C242.63 231.814 245.666 231.155 248.462 229.881C251.257 228.607 253.747 226.748 255.762 224.429C257.069 222.93 258.918 222.011 260.903 221.874C262.887 221.738 264.844 222.396 266.344 223.703C267.844 225.01 268.762 226.859 268.899 228.844C269.035 230.828 268.377 232.786 267.07 234.285C263.646 238.218 259.418 241.372 254.673 243.533C249.927 245.695 244.773 246.814 239.558 246.815Z" fill="#4E5660"/>
<path d="M342.967 236.527C340.978 236.527 339.07 235.737 337.664 234.33C336.257 232.924 335.467 231.016 335.467 229.027C335.467 226.355 334.405 223.792 332.516 221.902C330.626 220.013 328.063 218.951 325.391 218.951C322.719 218.951 320.156 220.013 318.266 221.902C316.377 223.792 315.315 226.355 315.315 229.027C315.315 231.016 314.525 232.924 313.118 234.33C311.712 235.737 309.804 236.527 307.815 236.527C305.826 236.527 303.918 235.737 302.512 234.33C301.105 232.924 300.315 231.016 300.315 229.027C300.315 222.376 302.957 215.998 307.66 211.296C312.362 206.593 318.74 203.951 325.391 203.951C332.042 203.951 338.42 206.593 343.122 211.296C347.825 215.998 350.467 222.376 350.467 229.027C350.467 231.016 349.677 232.924 348.27 234.33C346.864 235.737 344.956 236.527 342.967 236.527Z" fill="#4E5660"/>
<path d="M66.4411 135.231C56.1041 151.857 43.6251 194.837 52.4411 228.199C52.9885 230.332 54.0962 232.281 55.6494 233.843C57.2027 235.404 59.145 236.523 61.2755 237.082C63.406 237.641 65.6472 237.62 67.7671 237.022C69.8871 236.424 71.8087 235.271 73.3331 233.681C90.5331 215.466 110.361 178.151 119.433 139.761L66.4411 135.231Z" fill="#D1986F"/>
<path d="M412.676 135.231C423.013 151.857 435.492 194.837 426.671 228.199C426.124 230.332 425.016 232.281 423.463 233.843C421.909 235.404 419.967 236.523 417.837 237.082C415.706 237.641 413.465 237.62 411.345 237.022C409.225 236.424 407.303 235.271 405.779 233.681C388.579 215.466 368.751 178.151 359.679 139.761L412.676 135.231Z" fill="#D1986F"/>
<path d="M239.558 145.488L383.193 118.635L385.427 91.041C382.778 69.854 344.185 24.361 305.727 3.441C301.011 0.929944 295.698 -0.240654 290.363 0.0564165C285.029 0.353487 279.878 2.10686 275.471 5.126C264.858 12.3073 252.37 16.214 239.557 16.361C226.742 16.214 214.253 12.3066 203.64 5.124C199.232 2.10507 194.081 0.351822 188.747 0.0547547C183.413 -0.242313 178.099 0.928162 173.384 3.439C134.929 24.361 96.3358 69.854 93.6838 91.039L97.4348 118.633L239.558 145.488Z" fill="#E0B799"/>
<path d="M385.428 91.041C384.345 82.378 377.247 69.65 366.611 56.2C333.989 62.836 276.64 72.7509 239.558 72.7509C202.476 72.7509 145.128 62.835 112.509 56.201C101.873 69.651 94.7749 82.379 93.6919 91.042L97.4429 118.636L239.562 145.488L383.197 118.636L385.428 91.041Z" fill="#B7856B"/>
<path d="M239.558 111.674C285.689 111.674 363.195 96.327 385.428 91.041C395.57 94.109 414.702 103.141 433.558 115.624C448.714 125.657 442.227 149.187 424.087 150.324C359.909 154.342 281.445 172.131 239.558 172.131C197.671 172.131 119.204 154.342 55.0289 150.323C36.8879 149.187 30.4009 125.657 45.5579 115.623C64.4149 103.141 83.5469 94.108 93.6879 91.04C115.921 96.326 193.427 111.673 239.558 111.673V111.674Z" fill="#E0B799"/>
<path d="M363.151 435.209L400.873 397.487C401.7 396.671 402.224 395.599 402.36 394.445C402.496 393.292 402.235 392.126 401.62 391.141C395.012 380.785 395.788 367.389 404.247 358.93C414.138 349.039 430.78 349.645 441.418 360.283C445.658 364.484 448.469 369.913 449.453 375.8C449.633 376.875 450.144 377.868 450.914 378.639C451.685 379.409 452.678 379.92 453.753 380.1C459.641 381.083 465.069 383.894 469.27 388.135C479.908 398.773 480.514 415.415 470.623 425.306C462.163 433.766 448.768 434.542 438.412 427.933C437.427 427.318 436.261 427.057 435.108 427.193C433.955 427.329 432.882 427.853 432.066 428.68L394.346 466.401C393.519 467.217 392.995 468.29 392.859 469.443C392.723 470.596 392.984 471.762 393.599 472.747C400.207 483.103 399.431 496.499 390.972 504.958C381.081 514.849 364.439 514.243 353.801 503.605C349.561 499.404 346.75 493.975 345.766 488.088C345.586 487.013 345.075 486.02 344.305 485.249C343.534 484.479 342.541 483.968 341.466 483.788C335.579 482.805 330.15 479.994 325.949 475.753C315.311 465.115 314.705 448.473 324.596 438.582C333.056 430.122 346.451 429.346 356.807 435.955C357.792 436.57 358.958 436.831 360.111 436.695C361.265 436.559 362.337 436.035 363.153 435.208L363.151 435.209Z" fill="#FBF1CF"/>
<path d="M395.926 464.824C387.57 447.761 387.095 421.41 391.697 406.663L363.15 435.21C362.334 436.037 361.262 436.561 360.108 436.697C358.955 436.833 357.789 436.572 356.804 435.957C346.448 429.349 333.052 430.125 324.593 438.584C314.702 448.475 315.308 465.117 325.946 475.755C330.147 479.995 335.576 482.806 341.463 483.79C342.538 483.97 343.531 484.481 344.302 485.251C345.073 486.022 345.583 487.015 345.763 488.09C346.746 493.977 349.557 499.406 353.798 503.607C364.436 514.245 381.078 514.851 390.969 504.96C399.429 496.5 400.205 483.105 393.596 472.749C392.982 471.764 392.721 470.598 392.856 469.445C392.992 468.292 393.517 467.219 394.343 466.403L395.926 464.824Z" fill="#F5E2A2"/>
<path d="M101.509 426.031C115.572 432.35 142.232 436.695 155.686 438.59C156.869 438.754 158.004 439.166 159.017 439.799C160.03 440.431 160.898 441.27 161.564 442.261C162.23 443.252 162.68 444.373 162.884 445.549C163.088 446.726 163.041 447.933 162.747 449.09C159.803 460.567 151.472 475.366 139.407 487.431C127.342 499.496 112.543 507.831 101.067 510.771C99.9097 511.065 98.7033 511.112 97.5266 510.908C96.35 510.704 95.2296 510.254 94.2387 509.588C93.2477 508.921 92.4085 508.053 91.7759 507.04C91.1432 506.028 90.7313 504.893 90.5671 503.71C88.6721 490.256 84.3261 463.596 78.0081 449.533L101.509 426.031Z" fill="#FBF1CF"/>
<path d="M111.955 473.678C110.592 473.679 109.255 473.309 108.087 472.607C106.919 471.905 105.964 470.898 105.325 469.694C100.137 459.925 88.9641 446.656 87.5441 445.217C86.1785 443.802 85.4235 441.907 85.4415 439.94C85.4595 437.974 86.2491 436.093 87.6404 434.703C89.0316 433.313 90.9131 432.526 92.8795 432.509C94.846 432.493 96.7402 433.25 98.1541 434.617C100.571 437.034 112.614 451.442 118.573 462.661C119.18 463.803 119.482 465.084 119.448 466.377C119.414 467.67 119.046 468.933 118.38 470.042C117.714 471.151 116.772 472.069 115.646 472.707C114.521 473.345 113.249 473.68 111.955 473.681V473.678Z" fill="#F5E2A2"/>
<path d="M21.2591 364.567L16.5431 369.283C14.4913 371.335 13.2151 374.035 12.9323 376.923C12.6494 379.811 13.3774 382.707 14.9921 385.118L33.0861 412.135C41.7374 425.054 52.3763 436.524 64.6091 446.121L78.7921 457.247C80.4507 458.548 82.5286 459.197 84.6329 459.07C86.7373 458.944 88.7224 458.051 90.2131 456.56L108.533 438.24C110.024 436.749 110.917 434.764 111.043 432.66C111.17 430.555 110.521 428.478 109.22 426.819L98.0941 412.636C88.4977 400.402 77.0278 389.762 64.1091 381.11L37.0941 363.016C34.6832 361.401 31.7867 360.673 28.8989 360.956C26.011 361.239 23.3109 362.515 21.2591 364.567Z" fill="#88D37F"/>
<path d="M90.2161 456.559L108.536 438.239C110.027 436.748 110.92 434.763 111.046 432.659C111.173 430.555 110.524 428.477 109.223 426.818L98.0971 412.635C95.4221 409.225 92.5871 405.954 89.6311 402.8L54.7771 437.654C57.9311 440.611 61.2021 443.446 64.6121 446.12L78.7951 457.246C80.4538 458.547 82.5316 459.196 84.6359 459.069C86.7403 458.943 88.7254 458.05 90.2161 456.559Z" fill="#4E5660"/>
</svg>
