<svg width="513" height="512" viewBox="0 0 513 512" fill="none" xmlns="http://www.w3.org/2000/svg">
<path d="M442.087 275.865C473.28 275.865 498.567 250.578 498.567 219.385C498.567 188.192 473.28 162.905 442.087 162.905C410.894 162.905 385.607 188.192 385.607 219.385C385.607 250.578 410.894 275.865 442.087 275.865Z" fill="#FFBE9D"/>
<path d="M451.129 315.315H441.276C438.643 315.315 436.036 314.796 433.603 313.789C431.171 312.781 428.96 311.304 427.099 309.443C425.237 307.581 423.76 305.37 422.752 302.938C421.745 300.505 421.226 297.898 421.226 295.265V272.552C421.226 267.234 423.338 262.135 427.099 258.375C430.859 254.614 435.958 252.502 441.276 252.502H451.129C456.447 252.502 461.546 254.614 465.307 258.375C469.067 262.135 471.179 267.234 471.179 272.552V295.264C471.179 300.582 469.067 305.682 465.307 309.442C461.547 313.202 456.447 315.315 451.129 315.315Z" fill="#A2DDFD"/>
<path d="M56.48 275.865C87.673 275.865 112.96 250.578 112.96 219.385C112.96 188.192 87.673 162.905 56.48 162.905C25.287 162.905 0 188.192 0 219.385C0 250.578 25.287 275.865 56.48 275.865Z" fill="#FFD3BD"/>
<path d="M47.4179 315.315H57.2709C59.9039 315.315 62.5111 314.796 64.9437 313.789C67.3763 312.781 69.5866 311.304 71.4484 309.443C73.3102 307.581 74.7871 305.37 75.7947 302.938C76.8023 300.505 77.3209 297.898 77.3209 295.265V272.552C77.3209 267.234 75.2085 262.135 71.4484 258.375C67.6883 254.614 62.5885 252.502 57.2709 252.502H47.4179C42.1003 252.502 37.0005 254.614 33.2404 258.375C29.4803 262.135 27.3679 267.234 27.3679 272.552V295.264C27.3678 297.897 27.8863 300.504 28.8938 302.937C29.9014 305.37 31.3782 307.58 33.2401 309.442C35.1019 311.304 37.3122 312.781 39.7449 313.789C42.1775 314.796 44.7848 315.315 47.4179 315.315Z" fill="#A2DDFD"/>
<path d="M396.724 487.052C399.615 487.062 402.476 486.455 405.113 485.271C407.751 484.088 410.106 482.354 412.02 480.188C413.935 478.021 415.364 475.47 416.214 472.707C417.064 469.943 417.314 467.03 416.947 464.162C411.407 423.628 391.37 386.474 360.545 359.575C329.72 332.677 290.194 317.856 249.283 317.856C208.372 317.856 168.846 332.677 138.022 359.575C107.197 386.474 87.1595 423.628 81.6191 464.162C81.2524 467.03 81.5022 469.943 82.3518 472.707C83.2013 475.471 84.6311 478.021 86.5454 480.188C88.4598 482.355 90.8146 484.088 93.4526 485.272C96.0905 486.456 98.9508 487.062 101.842 487.052H396.724Z" fill="#FFD3BD"/>
<path d="M145.953 487.052H352.614C349.696 460.327 347.534 401.798 361.296 360.241C330.375 332.928 290.54 317.853 249.283 317.853C208.026 317.853 168.191 332.928 137.27 360.241C151.033 401.798 148.87 460.327 145.953 487.052Z" fill="#E7889D"/>
<path d="M322.087 359.595C311.754 392.265 291.662 436.588 249.273 436.588C206.884 436.588 186.792 392.265 176.459 359.595H322.087Z" fill="#FFD3BD"/>
<path d="M443.435 211.617C443.435 112.617 356.51 35.6171 249.283 35.6171C142.056 35.6171 55.1311 112.617 55.1311 211.617C55.1311 310.617 142.056 389.069 249.283 389.069C356.51 389.069 443.435 310.621 443.435 211.617Z" fill="#FFD3BD"/>
<path d="M186.9 44.717C110.274 67.865 55.1289 132.761 55.1289 211.617C55.1289 310.617 142.054 389.069 249.281 389.069C275.866 389.137 302.223 384.175 326.963 374.443C88.7999 361.293 122.415 116.578 186.9 44.717Z" fill="#FFBE9D"/>
<path d="M144.612 285.782C165.94 285.782 183.23 272.013 183.23 255.028C183.23 238.043 165.94 224.274 144.612 224.274C123.284 224.274 105.994 238.043 105.994 255.028C105.994 272.013 123.284 285.782 144.612 285.782Z" fill="#E7889D"/>
<path d="M353.935 285.782C375.263 285.782 392.553 272.013 392.553 255.028C392.553 238.043 375.263 224.274 353.935 224.274C332.607 224.274 315.317 238.043 315.317 255.028C315.317 272.013 332.607 285.782 353.935 285.782Z" fill="#E7889D"/>
<path d="M167.118 232.923C165.129 232.923 163.221 232.133 161.815 230.726C160.408 229.32 159.618 227.412 159.618 225.423V209.637C159.618 207.648 160.408 205.74 161.815 204.334C163.221 202.927 165.129 202.137 167.118 202.137C169.107 202.137 171.015 202.927 172.421 204.334C173.828 205.74 174.618 207.648 174.618 209.637V225.423C174.618 227.412 173.828 229.32 172.421 230.726C171.015 232.133 169.107 232.923 167.118 232.923Z" fill="#4E5660"/>
<path d="M331.429 232.923C329.44 232.923 327.532 232.133 326.126 230.726C324.719 229.32 323.929 227.412 323.929 225.423V209.637C323.929 207.648 324.719 205.74 326.126 204.334C327.532 202.927 329.44 202.137 331.429 202.137C333.418 202.137 335.326 202.927 336.732 204.334C338.139 205.74 338.929 207.648 338.929 209.637V225.423C338.929 227.412 338.139 229.32 336.732 230.726C335.326 232.133 333.418 232.923 331.429 232.923Z" fill="#4E5660"/>
<path d="M249.273 242.322C244.096 242.321 238.979 241.209 234.267 239.064C229.556 236.918 225.359 233.787 221.959 229.882C220.652 228.382 219.995 226.425 220.131 224.441C220.267 222.456 221.186 220.607 222.686 219.3C224.186 217.993 226.143 217.336 228.128 217.472C230.112 217.608 231.961 218.527 233.268 220.027C235.258 222.318 237.717 224.155 240.478 225.414C243.239 226.673 246.238 227.325 249.273 227.325C252.308 227.325 255.307 226.673 258.068 225.414C260.829 224.155 263.288 222.318 265.278 220.027C265.925 219.285 266.712 218.677 267.594 218.238C268.476 217.8 269.436 217.54 270.418 217.472C271.401 217.404 272.387 217.531 273.321 217.845C274.255 218.159 275.117 218.653 275.86 219.3C276.603 219.947 277.21 220.734 277.649 221.616C278.087 222.498 278.348 223.458 278.415 224.441C278.483 225.423 278.356 226.409 278.042 227.343C277.729 228.277 277.234 229.14 276.587 229.882C273.187 233.787 268.99 236.918 264.279 239.064C259.567 241.209 254.45 242.321 249.273 242.322Z" fill="#4E5660"/>
<path d="M249.283 17.781C422.104 17.781 460.055 118.662 454.335 203.381C454.111 206.517 453.116 209.549 451.437 212.207C449.759 214.865 447.449 217.067 444.715 218.618C441.98 220.168 438.904 221.018 435.761 221.093C432.618 221.168 429.506 220.465 426.7 219.047C371.9 191.721 327.743 129.247 314.146 105.763C300.687 132.682 242.485 144.963 166.092 156.063C108.769 164.386 83.8421 219.539 80.4021 274.309C79.7201 285.168 64.8221 287.615 60.7831 277.509C28.1331 195.857 19.6721 17.781 249.283 17.781Z" fill="#4E5660"/>
<path d="M56.1929 118.252C34.3389 172.719 44.5789 236.986 60.7809 277.507C64.8209 287.607 79.7179 285.163 80.3999 274.307C83.2159 229.474 100.434 184.392 138.027 164.941C123.192 144.506 90.8809 119.619 56.1929 118.255V118.252Z" fill="#8DAEE1"/>
<path d="M356.025 511.61C353.47 511.475 351.055 510.399 349.246 508.589C347.436 506.78 346.36 504.365 346.225 501.81C344.889 475.203 351.959 452.057 365.325 438.687C380.188 423.824 400.636 427.473 415.499 442.336C430.362 457.199 434.011 477.647 419.148 492.51C405.778 505.879 382.632 512.949 356.025 511.61Z" fill="#FCF2D0"/>
<path d="M352.2 459.712C347.587 471.69 345.438 486.138 346.225 501.806C346.36 504.361 347.436 506.776 349.246 508.585C351.055 510.395 353.47 511.471 356.025 511.606C381.632 512.892 404.006 506.374 417.572 493.966C383.039 492.276 371.064 465.805 352.197 459.709L352.2 459.712Z" fill="#88D37F"/>
<path d="M395.937 434.509L423.323 461.895C425.43 464.002 428.217 465.292 431.186 465.536C434.156 465.779 437.116 464.96 439.538 463.225L443.815 460.16C457.901 450.066 469.95 437.398 479.327 422.825L508.778 377.052C511.285 373.161 512.384 368.529 511.892 363.927C511.399 359.325 509.346 355.03 506.073 351.757C502.8 348.484 498.505 346.431 493.903 345.939C489.301 345.446 484.669 346.545 480.778 349.052L435.003 378.503C420.429 387.88 407.761 399.929 397.667 414.015L394.602 418.292C392.867 420.714 392.048 423.674 392.292 426.644C392.536 429.614 393.826 432.4 395.933 434.507L395.937 434.509Z" fill="#A2DDFD"/>
<path d="M435.008 378.504C420.434 387.881 407.766 399.93 397.672 414.016L394.607 418.293C392.872 420.715 392.053 423.675 392.296 426.644C392.539 429.614 393.829 432.401 395.936 434.508L423.322 461.894C425.429 464.001 428.216 465.291 431.185 465.535C434.155 465.778 437.115 464.959 439.537 463.224L443.814 460.159C446.79 458.026 449.671 455.778 452.457 453.417C442.438 432.552 438.674 400.503 444.793 372.208L435.008 378.504Z" fill="#7ACDF9"/>
<path d="M394.607 418.294C392.871 420.716 392.052 423.676 392.296 426.646C392.54 429.615 393.83 432.402 395.937 434.509L423.323 461.895C425.43 464.002 428.217 465.292 431.186 465.536C434.156 465.779 437.116 464.96 439.538 463.225L443.815 460.16C452.906 453.642 461.167 446.039 468.415 437.518L420.315 389.418C411.794 396.665 404.19 404.927 397.672 414.018L394.607 418.294Z" fill="#4E5660"/>
<path d="M443.815 460.159C446.792 458.026 449.667 455.766 452.454 453.409C446.945 441.932 443.335 427.075 442.212 411.315L420.312 389.415C411.791 396.663 404.187 404.924 397.669 414.015L394.604 418.292C392.868 420.714 392.049 423.674 392.293 426.644C392.537 429.613 393.827 432.4 395.934 434.507L423.32 461.893C425.427 464 428.214 465.29 431.183 465.534C434.153 465.777 437.113 464.958 439.535 463.223L443.815 460.159Z" fill="#383C43"/>
<path d="M426.605 104.364C436.115 78.2276 403.822 42.486 354.477 24.5329C305.133 6.57977 257.422 13.2136 247.913 39.35C238.404 65.4864 270.697 101.228 320.041 119.181C369.386 137.134 417.096 130.5 426.605 104.364Z" fill="#88D37F"/>
<path d="M378.479 53.0873C383.188 40.1455 373.413 24.709 356.647 18.6089C339.88 12.5087 322.471 18.055 317.763 30.9968C313.054 43.9386 322.829 59.3752 339.595 65.4753C356.362 71.5754 373.77 66.0291 378.479 53.0873Z" fill="#5EC682"/>
</svg>
