<svg width="512" height="512" viewBox="0 0 512 512" fill="none" xmlns="http://www.w3.org/2000/svg">
<path d="M108.8 394L127.436 402.859C128.971 403.589 130.305 404.681 131.322 406.042C132.34 407.403 133.011 408.992 133.277 410.671C133.543 412.349 133.396 414.067 132.848 415.676C132.301 417.285 131.37 418.737 130.136 419.905L115.146 434.09C113.398 435.744 112.274 437.95 111.964 440.336L109.3 460.8C109.08 462.485 108.453 464.092 107.474 465.48C106.494 466.869 105.19 467.997 103.676 468.769C102.162 469.541 100.482 469.932 98.7829 469.908C97.0835 469.885 95.4155 469.448 93.923 468.635L75.8 458.763C73.6871 457.611 71.2418 457.223 68.876 457.663L48.592 461.45C46.9219 461.761 45.2012 461.661 43.5786 461.158C41.9559 460.655 40.4802 459.764 39.279 458.563C38.0778 457.362 37.1871 455.886 36.6841 454.263C36.1811 452.641 36.0808 450.92 36.392 449.25L40.179 428.966C40.6197 426.6 40.2312 424.155 39.079 422.042L29.209 403.921C28.3961 402.428 27.959 400.76 27.9357 399.061C27.9123 397.362 28.3033 395.682 29.0749 394.168C29.8464 392.654 30.9753 391.35 32.3638 390.37C33.7524 389.39 35.3587 388.764 37.044 388.544L57.5 385.877C59.8859 385.566 62.0917 384.442 63.746 382.695L77.93 367.708C79.0982 366.474 80.5496 365.542 82.1586 364.995C83.7676 364.448 85.4858 364.3 87.1644 364.566C88.8431 364.832 90.4317 365.503 91.7927 366.521C93.1538 367.539 94.2464 368.873 94.976 370.408L103.835 389.044C104.87 391.218 106.624 392.969 108.8 394Z" fill="#A2DDFD"/>
<path d="M82.509 225.673H30.326C22.283 225.673 14.5695 222.478 8.88228 216.791C3.19505 211.103 1.64901e-08 203.39 1.64901e-08 195.347L1.64901e-08 94.8409C-0.000131313 90.8584 0.784184 86.9149 2.30816 83.2355C3.83214 79.5561 6.06593 76.2129 8.88199 73.3969C11.698 70.5808 15.0412 68.347 18.7206 66.8231C22.4 65.2991 26.3435 64.5148 30.326 64.5149H82.509C86.4915 64.5148 90.435 65.2991 94.1144 66.8231C97.7938 68.347 101.137 70.5808 103.953 73.3969C106.769 76.2129 109.003 79.5561 110.527 83.2355C112.051 86.9149 112.835 90.8584 112.835 94.8409V195.346C112.835 199.328 112.051 203.272 110.527 206.951C109.003 210.631 106.769 213.974 103.953 216.79C101.137 219.606 97.7939 221.84 94.1145 223.364C90.4351 224.888 86.4916 225.673 82.509 225.673Z" fill="#8DAEE1"/>
<path d="M96.216 67.792C54.238 106.4 31.137 158.067 31.137 213.555C31.137 217.616 31.275 221.655 31.52 225.672H82.509C86.4915 225.672 90.435 224.888 94.1144 223.364C97.7938 221.84 101.137 219.606 103.953 216.79C106.769 213.974 109.003 210.631 110.527 206.951C112.051 203.272 112.835 199.328 112.835 195.346V94.841C112.836 89.2368 111.283 83.7422 108.349 78.9673C105.415 74.1924 101.215 70.3241 96.216 67.792Z" fill="#6A95D6"/>
<path d="M58.877 148.645C70.3579 148.645 79.665 139.338 79.665 127.857C79.665 116.376 70.3579 107.069 58.877 107.069C47.3961 107.069 38.089 116.376 38.089 127.857C38.089 139.338 47.3961 148.645 58.877 148.645Z" fill="#4E5660"/>
<path d="M403.978 512C406.88 512.011 409.751 511.402 412.399 510.214C415.047 509.026 417.411 507.287 419.333 505.112C421.255 502.937 422.69 500.377 423.543 497.603C424.395 494.829 424.646 491.905 424.278 489.026C418.718 448.344 398.609 411.053 367.672 384.056C336.734 357.059 297.064 342.184 256.004 342.184C214.944 342.184 175.273 357.059 144.336 384.056C113.399 411.053 93.2895 448.344 87.73 489.026C87.3621 491.904 87.6127 494.827 88.4651 497.601C89.3175 500.374 90.7521 502.934 92.6729 505.109C94.5937 507.283 96.9565 509.023 99.6034 510.211C102.25 511.4 105.121 512.01 108.022 512H403.978Z" fill="#FBF1CF"/>
<path d="M58.877 148.645C64.0675 148.649 69.0717 146.711 72.905 143.211C76.7382 139.712 79.1229 134.904 79.5897 129.735C80.0566 124.565 78.5718 119.408 75.4276 115.279C72.2833 111.149 67.7073 108.345 62.6 107.42C55.3481 118.551 49.2499 130.393 44.4 142.762C48.2705 146.538 53.4648 148.649 58.872 148.645H58.877Z" fill="#383C43"/>
<path d="M429.491 225.673H481.674C485.657 225.673 489.6 224.889 493.279 223.365C496.959 221.841 500.302 219.607 503.118 216.791C505.934 213.975 508.168 210.632 509.692 206.952C511.216 203.273 512 199.329 512 195.347V94.8409C512 90.8584 511.216 86.9149 509.692 83.2355C508.168 79.5561 505.934 76.2129 503.118 73.3969C500.302 70.5808 496.959 68.347 493.279 66.8231C489.6 65.2991 485.657 64.5148 481.674 64.5149H429.491C425.509 64.5148 421.565 65.2991 417.886 66.8231C414.206 68.347 410.863 70.5808 408.047 73.3969C405.231 76.2129 402.997 79.5561 401.473 83.2355C399.949 86.9149 399.165 90.8584 399.165 94.8409V195.346C399.165 199.328 399.949 203.272 401.473 206.951C402.997 210.631 405.231 213.974 408.047 216.79C410.863 219.606 414.206 221.84 417.886 223.364C421.565 224.888 425.508 225.673 429.491 225.673Z" fill="#8DAEE1"/>
<path d="M415.784 67.792C457.762 106.4 480.863 158.067 480.863 213.555C480.863 217.616 480.725 221.655 480.48 225.672H429.491C425.509 225.672 421.565 224.888 417.886 223.364C414.206 221.84 410.863 219.606 408.047 216.79C405.231 213.974 402.997 210.631 401.473 206.951C399.949 203.272 399.165 199.328 399.165 195.346V94.841C399.164 89.2368 400.717 83.7422 403.651 78.9673C406.585 74.1924 410.785 70.3241 415.784 67.792Z" fill="#6A95D6"/>
<path d="M453.123 148.645C464.604 148.645 473.911 139.338 473.911 127.857C473.911 116.376 464.604 107.069 453.123 107.069C441.642 107.069 432.335 116.376 432.335 127.857C432.335 139.338 441.642 148.645 453.123 148.645Z" fill="#4E5660"/>
<path d="M453.123 148.645C447.933 148.649 442.928 146.711 439.095 143.211C435.262 139.712 432.877 134.904 432.41 129.735C431.943 124.565 433.428 119.408 436.572 115.279C439.717 111.149 444.293 108.345 449.4 107.42C456.648 118.552 462.743 130.394 467.59 142.762C463.72 146.538 458.525 148.649 453.118 148.645H453.123Z" fill="#383C43"/>
<path d="M456.271 213.555C456.271 111.431 366.607 32 256 32C145.393 32 55.729 111.432 55.729 213.555C55.729 315.678 145.393 396.6 256 396.6C366.607 396.6 456.271 315.678 456.271 213.554V213.555Z" fill="#FBF1CF"/>
<path d="M191.653 41.3999C112.612 65.2739 55.729 132.215 55.729 213.556C55.729 315.68 145.394 396.6 256 396.6C283.423 396.671 310.611 391.551 336.13 381.513C90.458 367.948 125.133 115.521 191.653 41.3999Z" fill="#F5E2A2"/>
<path d="M294.012 35.218C268.852 30.9353 243.148 30.9353 217.988 35.218V148.931H294.012V35.218Z" fill="#A2DDFD"/>
<path d="M123.137 259.776C123.113 266.497 124.878 273.104 128.253 278.916C131.627 284.729 136.488 289.539 142.337 292.851C168.944 307.751 206.392 321.58 256 321.58C305.608 321.58 343.056 307.753 369.663 292.851C375.512 289.539 380.373 284.729 383.747 278.917C387.122 273.104 388.887 266.497 388.863 259.776V168.83C388.887 162.109 387.122 155.502 383.747 149.689C380.373 143.876 375.512 139.067 369.663 135.755C343.055 120.855 305.608 107.026 256 107.026C206.392 107.026 168.945 120.853 142.337 135.755C136.488 139.067 131.627 143.876 128.253 149.689C124.878 155.502 123.113 162.109 123.137 168.83V259.776Z" fill="#8DAEE1"/>
<path d="M142.337 292.851C153.865 299.308 165.948 304.718 178.443 309.015C140.592 258.142 136.8 189.374 149.727 131.8C147.178 133.104 144.715 134.422 142.337 135.755C136.488 139.067 131.627 143.876 128.253 149.689C124.878 155.502 123.113 162.109 123.137 168.83V259.776C123.113 266.497 124.878 273.104 128.253 278.917C131.627 284.729 136.488 289.539 142.337 292.851Z" fill="#6A95D6"/>
<path d="M170.146 255.737C187.641 255.737 201.824 244.442 201.824 230.51C201.824 216.577 187.641 205.283 170.146 205.283C152.651 205.283 138.468 216.577 138.468 230.51C138.468 244.442 152.651 255.737 170.146 255.737Z" fill="white"/>
<path d="M341.854 255.737C359.35 255.737 373.533 244.442 373.533 230.51C373.533 216.577 359.35 205.283 341.854 205.283C324.358 205.283 310.175 216.577 310.175 230.51C310.175 244.442 324.358 255.737 341.854 255.737Z" fill="white"/>
<path d="M188.608 213.726C186.619 213.726 184.711 212.936 183.305 211.529C181.898 210.123 181.108 208.215 181.108 206.226V193.276C181.108 191.287 181.898 189.379 183.305 187.973C184.711 186.566 186.619 185.776 188.608 185.776C190.597 185.776 192.505 186.566 193.911 187.973C195.318 189.379 196.108 191.287 196.108 193.276V206.226C196.108 208.215 195.318 210.123 193.911 211.529C192.505 212.936 190.597 213.726 188.608 213.726Z" fill="#4E5660"/>
<path d="M323.392 213.726C321.403 213.726 319.495 212.936 318.089 211.529C316.682 210.123 315.892 208.215 315.892 206.226V193.276C315.892 191.287 316.682 189.379 318.089 187.973C319.495 186.566 321.403 185.776 323.392 185.776C325.381 185.776 327.289 186.566 328.695 187.973C330.102 189.379 330.892 191.287 330.892 193.276V206.226C330.892 208.215 330.102 210.123 328.695 211.529C327.289 212.936 325.381 213.726 323.392 213.726Z" fill="#4E5660"/>
<path d="M256 221.435C251.561 221.434 247.173 220.481 243.133 218.641C239.093 216.801 235.494 214.116 232.579 210.768C231.924 210.027 231.422 209.163 231.101 208.227C230.781 207.291 230.65 206.301 230.714 205.313C230.778 204.326 231.037 203.361 231.476 202.475C231.914 201.588 232.524 200.797 233.27 200.147C234.016 199.497 234.883 199 235.821 198.687C236.759 198.373 237.75 198.249 238.737 198.32C239.724 198.391 240.687 198.656 241.571 199.101C242.454 199.546 243.241 200.162 243.886 200.912C245.392 202.645 247.254 204.036 249.343 204.988C251.433 205.941 253.703 206.434 256 206.434C258.297 206.434 260.567 205.941 262.657 204.988C264.746 204.036 266.607 202.645 268.114 200.912C269.421 199.412 271.27 198.493 273.255 198.357C275.239 198.221 277.196 198.879 278.696 200.186C280.196 201.493 281.114 203.342 281.251 205.326C281.387 207.311 280.729 209.268 279.422 210.768C276.507 214.116 272.908 216.801 268.868 218.641C264.827 220.481 260.44 221.434 256 221.435Z" fill="#4E5660"/>
<path d="M150.3 482.164C148.818 482.163 147.369 481.722 146.137 480.898C144.905 480.074 143.944 478.903 143.377 477.533C142.81 476.164 142.662 474.657 142.95 473.203C143.239 471.749 143.952 470.413 145 469.364L194.9 419.464C195.588 418.73 196.416 418.142 197.335 417.735C198.254 417.328 199.246 417.11 200.251 417.094C201.257 417.077 202.255 417.263 203.187 417.641C204.119 418.018 204.965 418.579 205.676 419.29C206.387 420.001 206.948 420.848 207.325 421.78C207.702 422.712 207.888 423.71 207.871 424.715C207.855 425.721 207.637 426.712 207.229 427.631C206.822 428.551 206.234 429.379 205.5 430.066L155.6 479.966C154.905 480.664 154.079 481.217 153.17 481.595C152.26 481.972 151.285 482.167 150.3 482.166V482.164Z" fill="#E7889D"/>
<path d="M175.249 472.049C187.584 472.049 197.584 462.049 197.584 449.714C197.584 437.379 187.584 427.379 175.249 427.379C162.914 427.379 152.914 437.379 152.914 449.714C152.914 462.049 162.914 472.049 175.249 472.049Z" fill="#8DAEE1"/>
<path d="M342.234 470.632H296.267C293.082 470.632 290.027 469.366 287.774 467.114C285.522 464.861 284.256 461.806 284.256 458.621V440.8C284.256 439.223 284.567 437.661 285.17 436.204C285.774 434.746 286.659 433.422 287.774 432.307C288.889 431.192 290.213 430.307 291.671 429.703C293.128 429.1 294.69 428.789 296.267 428.789H342.234C343.811 428.789 345.373 429.1 346.83 429.703C348.288 430.307 349.612 431.192 350.727 432.307C351.842 433.422 352.727 434.746 353.331 436.204C353.934 437.661 354.245 439.223 354.245 440.8V458.616C354.246 460.194 353.935 461.756 353.332 463.214C352.729 464.672 351.844 465.996 350.729 467.112C349.613 468.228 348.289 469.113 346.832 469.717C345.374 470.321 343.812 470.632 342.234 470.632Z" fill="#4E5660"/>
<path d="M408.873 457.512L403.273 441.753C402.811 440.455 402.673 439.064 402.87 437.701C403.066 436.337 403.592 435.042 404.402 433.928C405.212 432.814 406.281 431.913 407.517 431.305C408.753 430.696 410.118 430.398 411.495 430.436L428.214 430.896C430.162 430.949 432.07 430.329 433.614 429.14L446.87 418.94C447.962 418.101 449.241 417.54 450.598 417.306C451.956 417.073 453.349 417.173 454.659 417.599C455.968 418.024 457.154 418.762 458.115 419.749C459.075 420.736 459.78 421.942 460.17 423.263L464.899 439.306C465.45 441.178 466.63 442.802 468.239 443.906L482.039 453.361C483.175 454.14 484.105 455.184 484.747 456.402C485.389 457.621 485.725 458.978 485.725 460.355C485.725 461.733 485.389 463.09 484.747 464.308C484.105 465.527 483.175 466.571 482.039 467.35L468.239 476.805C466.63 477.908 465.45 479.533 464.899 481.405L460.17 497.448C459.78 498.769 459.075 499.975 458.115 500.962C457.154 501.948 455.968 502.687 454.659 503.112C453.349 503.538 451.956 503.638 450.598 503.405C449.241 503.171 447.962 502.61 446.87 501.771L433.614 491.571C432.069 490.382 430.162 489.762 428.214 489.815L411.495 490.275C410.118 490.313 408.753 490.015 407.517 489.406C406.281 488.798 405.212 487.897 404.402 486.783C403.592 485.668 403.066 484.373 402.87 483.01C402.673 481.647 402.811 480.256 403.273 478.958L408.873 463.199C409.527 461.361 409.527 459.354 408.873 457.516V457.512Z" fill="#6A95D6"/>
<path d="M384.418 85.5859L366.868 91.8269C365.423 92.3403 363.874 92.4938 362.356 92.2744C360.838 92.0549 359.397 91.469 358.156 90.5674C356.915 89.6657 355.913 88.4754 355.236 87.0994C354.558 85.7234 354.226 84.2031 354.268 82.6699L354.78 64.0509C354.84 61.8798 354.149 59.7545 352.825 58.0329L341.464 43.2709C340.529 42.0551 339.903 40.6296 339.643 39.1179C339.382 37.6061 339.493 36.0536 339.967 34.5945C340.441 33.1355 341.264 31.814 342.363 30.7442C343.463 29.6745 344.807 28.8887 346.278 28.4549L364.144 23.1879C366.227 22.5736 368.035 21.2602 369.263 19.4689L379.793 4.09994C380.66 2.83441 381.823 1.79922 383.18 1.08395C384.537 0.36868 386.048 -0.00512695 387.582 -0.00512695C389.116 -0.00512695 390.627 0.36868 391.984 1.08395C393.341 1.79922 394.504 2.83441 395.371 4.09994L405.9 19.4689C407.128 21.2605 408.936 22.574 411.019 23.1879L428.885 28.4549C430.357 28.8886 431.7 29.6743 432.8 30.744C433.9 31.8137 434.722 33.1352 435.196 34.5942C435.671 36.0533 435.782 37.6058 435.521 39.1177C435.261 40.6295 434.636 42.055 433.7 43.2709L422.342 58.0329C421.017 59.7542 420.327 61.8797 420.387 64.0509L420.9 82.6699C420.942 84.2031 420.61 85.7234 419.933 87.0994C419.255 88.4754 418.253 89.6657 417.012 90.5674C415.771 91.469 414.33 92.0549 412.812 92.2744C411.294 92.4938 409.745 92.3403 408.3 91.8269L390.75 85.5859C388.702 84.857 386.466 84.857 384.418 85.5859Z" fill="#EED076"/>
</svg>
