<svg width="542" height="512" viewBox="0 0 542 512" fill="none" xmlns="http://www.w3.org/2000/svg">
<path d="M504.663 113.806L511.356 132.627C511.907 134.177 512.072 135.838 511.837 137.466C511.602 139.095 510.974 140.641 510.007 141.972C509.04 143.303 507.763 144.379 506.287 145.105C504.811 145.832 503.181 146.188 501.536 146.143L481.568 145.594C479.239 145.531 476.96 146.272 475.114 147.694L459.283 159.875C457.979 160.878 456.45 161.549 454.829 161.828C453.208 162.108 451.543 161.988 449.978 161.48C448.413 160.971 446.996 160.089 445.849 158.91C444.702 157.731 443.859 156.29 443.394 154.712L437.746 135.552C437.087 133.318 435.678 131.379 433.757 130.062L417.28 118.769C415.923 117.839 414.813 116.592 414.046 115.137C413.279 113.681 412.878 112.061 412.878 110.415C412.878 108.77 413.279 107.15 414.046 105.694C414.813 104.239 415.923 102.992 417.28 102.062L433.757 90.769C435.678 89.4519 437.087 87.5131 437.746 85.279L443.394 66.119C443.859 64.5409 444.702 63.0999 445.849 61.9207C446.996 60.7415 448.413 59.8595 449.978 59.3511C451.543 58.8426 453.208 58.7231 454.829 59.0027C456.45 59.2823 457.979 59.9528 459.283 60.956L475.114 73.137C476.96 74.5588 479.239 75.3005 481.568 75.237L501.536 74.688C503.181 74.6428 504.811 74.9989 506.287 75.7256C507.763 76.4523 509.04 77.5276 510.007 78.8586C510.974 80.1896 511.602 81.7362 511.837 83.3645C512.072 84.9928 511.907 86.6539 511.356 88.204L504.663 107.025C503.882 109.22 503.882 111.617 504.663 113.812V113.806Z" fill="#E7889D"/>
<path d="M500.694 316.689C500.694 309.474 499.174 302.341 496.233 295.753C493.293 289.165 488.998 283.27 483.627 278.453C478.257 273.635 471.933 270.003 465.065 267.792C458.198 265.581 450.942 264.841 443.77 265.621C436.598 266.401 429.67 268.683 423.439 272.318C417.207 275.953 411.811 280.86 407.602 286.719C403.393 292.579 400.465 299.259 399.009 306.325C397.553 313.391 397.602 320.684 399.152 327.73C388.915 329.142 379.342 333.608 371.683 340.546C364.025 347.484 358.636 356.571 356.223 366.619C353.809 376.667 354.483 387.209 358.155 396.869C361.827 406.528 368.327 414.856 376.805 420.763C385.284 426.671 395.348 429.883 405.681 429.982C416.015 430.08 426.138 427.06 434.727 421.315C443.317 415.57 449.975 407.368 453.83 397.78C457.685 388.192 458.559 377.664 456.337 367.572C468.629 365.878 479.892 359.792 488.046 350.438C496.199 341.085 500.692 329.097 500.694 316.689Z" fill="#F6EE86"/>
<path d="M49.9612 316.689C49.9602 309.474 51.4792 302.339 54.4192 295.75C57.3591 289.161 61.6541 283.265 67.0244 278.447C72.3946 273.628 78.7197 269.995 85.5877 267.784C92.4556 265.572 99.7124 264.832 106.885 265.612C114.058 266.392 120.986 268.674 127.219 272.31C133.451 275.946 138.847 280.854 143.056 286.714C147.265 292.574 150.193 299.256 151.648 306.322C153.103 313.389 153.053 320.684 151.501 327.73C161.738 329.142 171.311 333.609 178.97 340.546C186.629 347.484 192.017 356.571 194.43 366.619C196.844 376.667 196.171 387.21 192.499 396.869C188.827 406.529 182.327 414.856 173.848 420.763C165.369 426.671 155.305 429.884 144.972 429.982C134.638 430.08 124.516 427.06 115.926 421.315C107.336 415.57 100.679 407.368 96.8233 397.78C92.9681 388.192 92.0944 377.664 94.3162 367.572C82.0246 365.877 70.7618 359.791 62.6087 350.438C54.4555 341.085 49.963 329.097 49.9612 316.689Z" fill="#F6EE86"/>
<path d="M454.995 287.839C483.195 287.839 506.056 264.978 506.056 236.778C506.056 208.578 483.195 185.717 454.995 185.717C426.795 185.717 403.934 208.578 403.934 236.778C403.934 264.978 426.795 287.839 454.995 287.839Z" fill="#FFBE9D"/>
<path d="M95.6611 287.839C123.861 287.839 146.722 264.978 146.722 236.778C146.722 208.578 123.861 185.717 95.6611 185.717C67.4609 185.717 44.6001 208.578 44.6001 236.778C44.6001 264.978 67.4609 287.839 95.6611 287.839Z" fill="#FFD3BD"/>
<path d="M450.194 321.293H438.031C433.578 321.293 429.307 319.524 426.159 316.375C423.01 313.227 421.241 308.956 421.241 304.503V279.428C421.241 274.975 423.01 270.704 426.159 267.556C429.307 264.407 433.578 262.638 438.031 262.638H450.194C454.647 262.638 458.918 264.407 462.066 267.556C465.215 270.704 466.984 274.975 466.984 279.428V304.503C466.984 306.708 466.55 308.891 465.706 310.928C464.862 312.965 463.626 314.816 462.067 316.376C460.507 317.935 458.657 319.171 456.619 320.015C454.582 320.859 452.399 321.293 450.194 321.293Z" fill="#6A95D6"/>
<path d="M100.461 321.293H112.624C117.077 321.293 121.348 319.524 124.496 316.375C127.645 313.227 129.414 308.956 129.414 304.503V279.428C129.414 274.975 127.645 270.704 124.496 267.556C121.348 264.407 117.077 262.638 112.624 262.638H100.461C96.0082 262.638 91.7376 264.407 88.5888 267.556C85.4401 270.704 83.6711 274.975 83.6711 279.428V304.503C83.6711 308.956 85.4401 313.227 88.5888 316.375C91.7376 319.524 96.0082 321.293 100.461 321.293Z" fill="#6A95D6"/>
<path d="M398.527 482.891C400.943 482.9 403.334 482.393 405.538 481.404C407.743 480.415 409.711 478.967 411.31 477.156C412.91 475.346 414.105 473.214 414.815 470.905C415.525 468.595 415.734 466.161 415.427 463.764C410.797 429.895 394.054 398.85 368.298 376.375C342.541 353.899 309.514 341.516 275.33 341.516C241.146 341.516 208.119 353.899 182.363 376.375C156.606 398.85 139.863 429.895 135.233 463.764C134.927 466.161 135.136 468.595 135.846 470.904C136.556 473.214 137.751 475.345 139.35 477.156C140.95 478.966 142.918 480.415 145.122 481.404C147.327 482.393 149.717 482.9 152.133 482.891H398.527Z" fill="#8DAEE1"/>
<path d="M275.328 386.232C266.597 402.925 240.866 424.716 213.742 417.727C186.618 410.738 189.542 381.412 207.076 355.021L275.328 386.232Z" fill="#A2DDFD"/>
<path d="M275.328 386.232C284.059 402.925 309.79 424.716 336.914 417.727C364.038 410.738 361.114 381.412 343.58 355.021L275.328 386.232Z" fill="#A2DDFD"/>
<path d="M450.852 225.805C450.852 136.305 372.267 66.688 275.328 66.688C178.389 66.688 99.801 136.3 99.801 225.805C99.801 315.31 178.386 386.232 275.326 386.232C372.266 386.232 450.85 315.309 450.85 225.805H450.852Z" fill="#FFD3BD"/>
<path d="M218.932 74.918C149.658 95.847 99.801 154.515 99.801 225.805C99.801 315.31 178.386 386.232 275.326 386.232C299.36 386.294 323.189 381.808 345.555 373.009C130.241 361.12 160.631 139.884 218.932 74.918Z" fill="#FFBE9D"/>
<path d="M177.73 298.473C197.619 298.473 213.742 285.633 213.742 269.795C213.742 253.957 197.619 241.117 177.73 241.117C157.841 241.117 141.718 253.957 141.718 269.795C141.718 285.633 157.841 298.473 177.73 298.473Z" fill="#E7889D"/>
<path d="M372.925 298.473C392.814 298.473 408.937 285.633 408.937 269.795C408.937 253.957 392.814 241.117 372.925 241.117C353.036 241.117 336.913 253.957 336.913 269.795C336.913 285.633 353.036 298.473 372.925 298.473Z" fill="#E7889D"/>
<path d="M198.717 249.336C196.728 249.336 194.82 248.546 193.414 247.139C192.007 245.733 191.217 243.825 191.217 241.836V227.821C191.217 225.832 192.007 223.924 193.414 222.518C194.82 221.111 196.728 220.321 198.717 220.321C200.706 220.321 202.614 221.111 204.02 222.518C205.427 223.924 206.217 225.832 206.217 227.821V241.836C206.217 243.825 205.427 245.733 204.02 247.139C202.614 248.546 200.706 249.336 198.717 249.336Z" fill="#4E5660"/>
<path d="M275.328 258.447C270.428 258.446 265.585 257.394 261.126 255.364C256.666 253.333 252.694 250.37 249.476 246.674C248.169 245.174 247.512 243.217 247.648 241.232C247.784 239.248 248.703 237.399 250.203 236.092C251.703 234.785 253.66 234.128 255.645 234.264C257.629 234.4 259.478 235.319 260.785 236.819C262.594 238.9 264.828 240.569 267.337 241.713C269.846 242.856 272.572 243.448 275.329 243.448C278.087 243.448 280.812 242.856 283.321 241.713C285.83 240.569 288.064 238.9 289.873 236.819C291.18 235.319 293.029 234.4 295.014 234.264C296.998 234.128 298.955 234.785 300.455 236.092C301.955 237.399 302.874 239.248 303.01 241.232C303.147 243.217 302.489 245.174 301.182 246.674C297.964 250.369 293.991 253.332 289.531 255.363C285.072 257.394 280.228 258.445 275.328 258.447Z" fill="#4E5660"/>
<path d="M370.884 248.947C368.895 248.947 366.987 248.157 365.581 246.75C364.174 245.344 363.384 243.436 363.384 241.447C363.384 239.129 362.463 236.905 360.824 235.266C359.185 233.627 356.961 232.706 354.643 232.706C352.325 232.706 350.102 233.627 348.462 235.266C346.823 236.905 345.902 239.129 345.902 241.447C345.902 243.436 345.112 245.344 343.705 246.75C342.299 248.157 340.391 248.947 338.402 248.947C336.413 248.947 334.505 248.157 333.099 246.75C331.692 245.344 330.902 243.436 330.902 241.447C330.902 235.15 333.403 229.112 337.856 224.66C342.308 220.207 348.347 217.706 354.643 217.706C360.94 217.706 366.978 220.207 371.431 224.66C375.883 229.112 378.384 235.15 378.384 241.447C378.384 243.436 377.594 245.344 376.187 246.75C374.781 248.157 372.873 248.947 370.884 248.947Z" fill="#4E5660"/>
<path d="M276.565 168.517C294.904 168.517 339.21 162.602 357.765 140.264C358.947 157.211 381.388 183.645 404.026 183.199C400.096 210.849 421.081 235.706 445.208 235.706C466.874 235.706 484.438 215.533 484.438 190.649C484.438 166.788 468.286 147.271 447.856 145.705C456.512 115.422 420.648 65.1619 365.333 73.1559C346.154 43.7399 313.907 36.0669 276.565 36.0669C239.223 36.0669 206.976 43.7409 187.792 73.1559C132.478 65.1629 96.613 115.422 105.269 145.705C84.839 147.271 68.687 166.788 68.687 190.649C68.687 215.533 86.251 235.706 107.917 235.706C132.044 235.706 153.029 210.848 149.099 183.199C171.737 183.646 194.179 157.211 195.36 140.264C213.921 162.603 258.226 168.517 276.565 168.517Z" fill="#F6EE86"/>
<path d="M435.707 491.156L416.886 497.847C415.336 498.398 413.675 498.563 412.047 498.328C410.418 498.093 408.872 497.465 407.541 496.498C406.21 495.531 405.134 494.254 404.408 492.778C403.681 491.302 403.325 489.671 403.37 488.027L403.919 468.059C403.982 465.73 403.24 463.451 401.819 461.605L389.641 445.775C388.638 444.471 387.968 442.942 387.688 441.321C387.408 439.7 387.528 438.035 388.036 436.47C388.545 434.905 389.427 433.488 390.606 432.341C391.785 431.194 393.226 430.351 394.804 429.886L413.964 424.238C416.198 423.579 418.137 422.17 419.454 420.249L430.747 403.772C431.677 402.415 432.924 401.305 434.379 400.538C435.835 399.771 437.455 399.37 439.101 399.37C440.746 399.37 442.366 399.771 443.822 400.538C445.277 401.305 446.524 402.415 447.454 403.772L458.747 420.247C460.064 422.168 462.003 423.577 464.237 424.236L483.397 429.884C484.975 430.349 486.416 431.192 487.595 432.339C488.775 433.486 489.657 434.903 490.165 436.468C490.673 438.033 490.793 439.698 490.513 441.319C490.234 442.94 489.563 444.469 488.56 445.773L476.379 461.607C474.958 463.453 474.216 465.732 474.279 468.061L474.828 488.029C474.873 489.674 474.517 491.304 473.791 492.78C473.064 494.256 471.988 495.533 470.657 496.5C469.327 497.467 467.78 498.095 466.152 498.33C464.523 498.565 462.862 498.4 461.312 497.849L442.491 491.156C440.296 490.376 437.899 490.376 435.704 491.156H435.707Z" fill="#6A95D6"/>
<path d="M11.2221 177.734C10.2373 177.734 9.26225 177.54 8.35275 177.162C7.44325 176.785 6.61723 176.231 5.92208 175.534C-13.7779 155.834 18.5761 102.858 60.7221 60.7129C102.868 18.5679 155.838 -13.7871 175.543 5.91294C176.24 6.60974 176.793 7.43695 177.17 8.34736C177.547 9.25776 177.741 10.2335 177.741 11.2189C177.741 12.2044 177.547 13.1801 177.17 14.0905C176.793 15.0009 176.24 15.8281 175.543 16.5249C174.846 17.2217 174.019 17.7745 173.109 18.1516C172.198 18.5287 171.222 18.7228 170.237 18.7228C169.252 18.7228 168.276 18.5287 167.365 18.1516C166.455 17.7745 165.628 17.2217 164.931 16.5249C162.581 14.1719 153.204 13.0349 132.967 23.6749C113.934 33.6839 92.0421 50.6059 71.3241 71.3229C50.6061 92.0399 33.6841 113.932 23.6771 132.966C13.0351 153.202 14.1771 162.579 16.5261 164.93C17.5736 165.979 18.2869 167.315 18.5757 168.769C18.8646 170.223 18.7161 171.73 18.1489 173.099C17.5818 174.469 16.6216 175.64 15.3894 176.464C14.1572 177.288 12.7085 177.729 11.2261 177.73L11.2221 177.734Z" fill="#6A95D6"/>
<path d="M90.7291 157.203C127.442 157.203 157.204 127.441 157.204 90.7279C157.204 54.0148 127.442 24.2529 90.7291 24.2529C54.016 24.2529 24.2542 54.0148 24.2542 90.7279C24.2542 127.441 54.016 157.203 90.7291 157.203Z" fill="#A2DDFD"/>
<path d="M141.501 133.614C61.367 139.247 45.562 63.296 67.872 28.287C58.3071 31.785 49.6739 37.4337 42.6383 44.7973C35.6027 52.1608 30.353 61.0424 27.2942 70.7566C24.2354 80.4708 23.4493 90.7578 24.9966 100.824C26.5439 110.89 30.3832 120.466 36.2182 128.813C42.0533 137.16 49.7281 144.055 58.6503 148.966C67.5726 153.877 77.5038 156.672 87.6776 157.136C97.8514 157.6 107.996 155.72 117.328 151.642C126.66 147.563 134.93 141.395 141.501 133.614Z" fill="#7ACDF9"/>
<path d="M22.001 181.455C15.48 181.455 9.99402 179.608 5.92402 175.538C4.57311 174.121 3.82979 172.232 3.85281 170.274C3.87584 168.317 4.66339 166.446 6.04724 165.061C7.4311 163.676 9.30157 162.888 11.2591 162.863C13.2167 162.839 15.1062 163.581 16.524 164.931C18.876 167.28 28.252 168.419 48.489 157.78C67.522 147.771 89.415 130.849 110.132 110.132C130.849 89.4149 147.772 67.5239 157.779 48.4889C168.421 28.2539 167.279 18.8769 164.93 16.5259C163.523 15.1194 162.733 13.2116 162.733 11.2224C162.733 9.23325 163.523 7.32552 164.93 5.91895C166.337 4.51237 168.244 3.72217 170.234 3.72217C172.223 3.72217 174.13 4.51237 175.537 5.91895C181.987 12.3699 186.445 26.2019 171.056 55.4709C160.364 75.8039 142.493 98.9839 120.739 120.74C87.301 154.176 47.043 181.455 22.001 181.455Z" fill="#6A95D6"/>
</svg>
