<svg width="512" height="512" viewBox="0 0 512 512" fill="none" xmlns="http://www.w3.org/2000/svg">
<path d="M87.6684 288.796C115.203 288.796 137.523 266.475 137.523 238.941C137.523 211.407 115.203 189.086 87.6684 189.086C60.1342 189.086 37.8134 211.407 37.8134 238.941C37.8134 266.475 60.1342 288.796 87.6684 288.796Z" fill="#FFD3BD"/>
<path d="M428.044 288.796C455.578 288.796 477.899 266.475 477.899 238.941C477.899 211.407 455.578 189.086 428.044 189.086C400.51 189.086 378.189 211.407 378.189 238.941C378.189 266.475 400.51 288.796 428.044 288.796Z" fill="#FFBE9D"/>
<path d="M384.485 483.615C386.968 483.623 389.424 483.101 391.689 482.084C393.954 481.067 395.976 479.579 397.62 477.718C399.263 475.857 400.491 473.667 401.22 471.294C401.95 468.92 402.164 466.419 401.849 463.956C397.092 429.142 379.884 397.231 353.41 374.128C326.936 351.026 292.989 338.296 257.852 338.296C222.715 338.296 188.768 351.026 162.294 374.128C135.82 397.231 118.612 429.142 113.855 463.956C113.54 466.419 113.755 468.921 114.484 471.295C115.214 473.668 116.442 475.859 118.086 477.72C119.73 479.581 121.752 481.069 124.018 482.086C126.284 483.103 128.74 483.624 131.223 483.615H384.485Z" fill="#FBF1CF"/>
<path d="M334.471 360.124C324.393 353.86 313.583 348.859 302.284 345.235V367.708C302.284 415.217 272.941 426.343 257.856 426.343C242.771 426.343 213.428 415.217 213.428 367.708V345.235C202.129 348.859 191.319 353.86 181.241 360.124C184.541 397.085 188.356 451.131 183.771 483.615H331.942C327.356 451.132 331.167 397.086 334.471 360.124Z" fill="#A2DDFD"/>
<path d="M429.234 228.227C429.234 140.836 352.505 72.8689 257.856 72.8689C163.207 72.8689 86.4784 140.837 86.4784 228.227C86.4784 315.617 163.207 384.864 257.856 384.864C352.505 384.864 429.234 315.617 429.234 228.227Z" fill="#FFD3BD"/>
<path d="M202.793 80.9049C135.155 101.338 86.4784 158.621 86.4784 228.227C86.4784 315.617 163.207 384.864 257.856 384.864C281.323 384.925 304.589 380.544 326.426 371.953C116.197 360.346 145.869 144.336 202.793 80.9049Z" fill="#FFBE9D"/>
<path d="M197.882 265.553C197.882 280.487 182.682 292.592 163.928 292.592C145.174 292.592 129.974 280.486 129.974 265.553C129.974 250.62 145.174 238.513 163.928 238.513C182.682 238.513 197.882 250.619 197.882 265.553Z" fill="#E7889D"/>
<path d="M314.016 265.553C314.016 280.487 329.216 292.592 347.97 292.592C366.724 292.592 381.924 280.486 381.924 265.553C381.924 250.62 366.724 238.513 347.97 238.513C329.216 238.513 314.016 250.619 314.016 265.553Z" fill="#E7889D"/>
<path d="M283.324 244.777C283.324 227.858 271.067 226.269 255.949 226.269C240.831 226.269 228.573 227.859 228.573 244.777C228.573 261.695 240.83 275.41 255.949 275.41C271.068 275.41 283.324 261.695 283.324 244.777Z" fill="#4E5660"/>
<path d="M169.604 240.771C167.615 240.771 165.708 239.981 164.301 238.574C162.895 237.168 162.104 235.26 162.104 233.271V219.406C162.104 217.417 162.895 215.509 164.301 214.103C165.708 212.696 167.615 211.906 169.604 211.906C171.593 211.906 173.501 212.696 174.908 214.103C176.314 215.509 177.104 217.417 177.104 219.406V233.271C177.104 235.26 176.314 237.168 174.908 238.574C173.501 239.981 171.593 240.771 169.604 240.771Z" fill="#4E5660"/>
<path d="M342.295 240.771C340.306 240.771 338.399 239.981 336.992 238.574C335.586 237.168 334.795 235.26 334.795 233.271V219.406C334.795 217.417 335.586 215.509 336.992 214.103C338.399 212.696 340.306 211.906 342.295 211.906C344.285 211.906 346.192 212.696 347.599 214.103C349.005 215.509 349.795 217.417 349.795 219.406V233.271C349.795 235.26 349.005 237.168 347.599 238.574C346.192 239.981 344.285 240.771 342.295 240.771Z" fill="#4E5660"/>
<path d="M257.856 65.3409C378.678 65.3409 432.315 147.961 436.926 207.728C437.132 210.504 436.589 213.284 435.354 215.778C434.119 218.272 432.238 220.39 429.907 221.91C427.576 223.43 424.879 224.298 422.099 224.421C419.318 224.545 416.555 223.92 414.098 222.613C390.99 210.283 366.415 193.148 350.771 159.013C303.074 190.099 204.039 189.086 143.549 182.399C133.832 199.943 119.702 211.465 102.17 221.714C91.3824 228.02 77.8104 219.562 78.8394 207.108C83.7704 147.389 137.449 65.3409 257.856 65.3409Z" fill="#4E5660"/>
<path d="M257.856 117.939C295.689 117.939 348.217 106.926 363.529 92.8269C350.536 65.2269 315.578 25.7069 280.063 5.79494C273.279 1.99503 265.632 -0.000366211 257.856 -0.000366211C250.079 -0.000366211 242.433 1.99503 235.648 5.79494C200.134 25.7079 165.176 65.2309 152.182 92.8269C167.495 106.926 220.023 117.939 257.856 117.939Z" fill="#FBF1CF"/>
<path d="M207.995 25.127C183.188 45.781 161.741 72.527 152.183 92.827C162.327 102.168 188.808 110.15 216.528 114.477C200.233 94.491 196.548 49.07 207.995 25.128V25.127Z" fill="#F5E2A2"/>
<path d="M228.837 116.145C238.469 117.289 248.157 117.888 257.856 117.939C267.555 117.888 277.244 117.289 286.875 116.145C284.047 94.4554 277.917 73.3261 268.699 53.49C267.747 51.4143 266.22 49.6555 264.298 48.4224C262.376 47.1894 260.14 46.5339 257.856 46.5339C255.573 46.5339 253.337 47.1894 251.415 48.4224C249.493 49.6555 247.965 51.4143 247.013 53.49C237.796 73.3263 231.667 94.4555 228.837 116.145Z" fill="#F5E2A2"/>
<path d="M198.784 500.033C216.284 517.533 235.832 513.548 246.723 502.658C275.723 473.658 263.071 424.691 226.203 387.823L158.176 319.799C121.308 282.931 72.3424 270.278 43.3413 299.279C32.4503 310.169 28.4633 329.715 45.9663 347.218L198.784 500.033Z" fill="#E0B799"/>
<path d="M127.149 358.579C128.7 360.129 130.54 361.359 132.565 362.198C134.591 363.037 136.762 363.469 138.954 363.469C141.147 363.469 143.318 363.037 145.343 362.198C147.369 361.359 149.209 360.129 150.759 358.579L173.859 335.479L158.176 319.799C155.498 317.121 152.76 314.574 149.96 312.158L127.149 334.969C125.599 336.519 124.369 338.359 123.53 340.385C122.691 342.41 122.259 344.581 122.259 346.774C122.259 348.966 122.691 351.137 123.53 353.163C124.369 355.188 125.599 357.029 127.149 358.579Z" fill="#D1986F"/>
<path d="M226.203 387.823L210.522 372.142L187.422 395.242C184.317 398.378 182.58 402.616 182.591 407.03C182.603 411.443 184.361 415.672 187.481 418.793C190.602 421.914 194.831 423.672 199.245 423.683C203.658 423.694 207.896 421.957 211.032 418.852L233.846 396.037C231.43 393.243 228.883 390.504 226.205 387.821L226.203 387.823Z" fill="#D1986F"/>
</svg>
