<svg width="512" height="512" viewBox="0 0 512 512" fill="none" xmlns="http://www.w3.org/2000/svg">
<path d="M409.959 265.906C438.885 265.906 462.335 242.457 462.335 213.53C462.335 184.604 438.885 161.154 409.959 161.154C381.033 161.154 357.583 184.604 357.583 213.53C357.583 242.457 381.033 265.906 409.959 265.906Z" fill="#FFBE9D"/>
<path d="M52.376 265.906C81.3025 265.906 104.752 242.457 104.752 213.53C104.752 184.604 81.3025 161.154 52.376 161.154C23.4495 161.154 0 184.604 0 213.53C0 242.457 23.4495 265.906 52.376 265.906Z" fill="#FFD3BD"/>
<path d="M367.894 468.546C370.575 468.555 373.228 467.992 375.674 466.895C378.12 465.797 380.304 464.189 382.079 462.18C383.854 460.171 385.18 457.806 385.968 455.243C386.755 452.68 386.987 449.979 386.647 447.319C381.51 409.73 362.929 375.276 334.344 350.332C305.759 325.388 269.106 311.644 231.168 311.644C193.23 311.644 156.576 325.388 127.991 350.332C99.4065 375.276 80.8257 409.73 75.6882 447.319C75.3482 449.979 75.5798 452.68 76.3676 455.243C77.1554 457.806 78.4812 460.171 80.2564 462.18C82.0316 464.19 84.2153 465.797 86.6615 466.895C89.1077 467.993 91.76 468.556 94.4412 468.546H367.894Z" fill="#FCF2D0"/>
<path d="M312.768 421H149.568C147.401 421 145.323 421.861 143.791 423.393C142.259 424.925 141.398 427.003 141.398 429.17V468.546H320.938V429.17C320.938 427.003 320.077 424.925 318.545 423.393C317.013 421.861 314.935 421 312.768 421Z" fill="#E16E7E"/>
<path d="M309.795 421H277.763V319.623H309.795V421Z" fill="#E7889D"/>
<path d="M152.54 319.623H184.572V421H152.54V319.623Z" fill="#E7889D"/>
<path d="M411.21 202.274C411.21 110.465 330.602 39.061 231.167 39.061C131.732 39.061 51.124 110.465 51.124 202.274C51.124 294.083 131.73 366.831 231.167 366.831C330.604 366.831 411.21 294.083 411.21 202.274Z" fill="#FFD3BD"/>
<path d="M173.32 47.5C102.263 68.969 51.1299 129.149 51.1299 202.274C51.1299 294.083 131.738 366.83 231.173 366.83C255.825 366.894 280.268 362.292 303.209 353.267C82.3469 341.072 113.519 114.141 173.32 47.5Z" fill="#FFBE9D"/>
<path d="M128.06 278.102C149.072 278.102 166.105 264.538 166.105 247.805C166.105 231.072 149.072 217.508 128.06 217.508C107.048 217.508 90.0151 231.072 90.0151 247.805C90.0151 264.538 107.048 278.102 128.06 278.102Z" fill="#E7889D"/>
<path d="M334.275 278.102C355.287 278.102 372.32 264.538 372.32 247.805C372.32 231.072 355.287 217.508 334.275 217.508C313.264 217.508 296.23 231.072 296.23 247.805C296.23 264.538 313.264 278.102 334.275 278.102Z" fill="#E7889D"/>
<path d="M150.23 226.141C148.241 226.141 146.333 225.351 144.927 223.944C143.52 222.538 142.73 220.63 142.73 218.641V203.089C142.73 201.1 143.52 199.192 144.927 197.786C146.333 196.379 148.241 195.589 150.23 195.589C152.219 195.589 154.127 196.379 155.533 197.786C156.94 199.192 157.73 201.1 157.73 203.089V218.641C157.73 220.63 156.94 222.538 155.533 223.944C154.127 225.351 152.219 226.141 150.23 226.141Z" fill="#4E5660"/>
<path d="M312.103 226.141C310.113 226.141 308.206 225.351 306.799 223.944C305.393 222.538 304.603 220.63 304.603 218.641V203.089C304.603 201.1 305.393 199.192 306.799 197.786C308.206 196.379 310.113 195.589 312.103 195.589C314.092 195.589 315.999 196.379 317.406 197.786C318.812 199.192 319.603 201.1 319.603 203.089V218.641C319.603 220.63 318.812 222.538 317.406 223.944C315.999 225.351 314.092 226.141 312.103 226.141Z" fill="#4E5660"/>
<path d="M231.167 235.4C226.05 235.398 220.993 234.299 216.337 232.177C211.681 230.055 207.534 226.96 204.175 223.1C203.521 222.359 203.02 221.495 202.701 220.559C202.382 219.624 202.251 218.634 202.315 217.647C202.38 216.661 202.639 215.697 203.078 214.811C203.517 213.925 204.126 213.134 204.872 212.484C205.617 211.835 206.484 211.339 207.421 211.026C208.359 210.712 209.349 210.587 210.336 210.658C211.322 210.728 212.284 210.993 213.168 211.437C214.051 211.881 214.838 212.496 215.483 213.245C217.434 215.489 219.843 217.289 222.549 218.522C225.255 219.755 228.194 220.393 231.167 220.393C234.141 220.393 237.08 219.755 239.786 218.522C242.491 217.289 244.901 215.489 246.852 213.245C247.497 212.495 248.284 211.879 249.167 211.434C250.051 210.99 251.014 210.724 252.001 210.653C252.987 210.582 253.979 210.707 254.917 211.02C255.855 211.334 256.722 211.83 257.468 212.48C258.214 213.13 258.824 213.921 259.262 214.808C259.701 215.695 259.96 216.659 260.024 217.647C260.088 218.634 259.957 219.624 259.636 220.56C259.316 221.496 258.814 222.36 258.159 223.101C254.8 226.961 250.653 230.056 245.997 232.177C241.34 234.299 236.284 235.398 231.167 235.4Z" fill="#4E5660"/>
<path d="M231.168 31.756C392.824 31.756 420.858 151.365 415.679 211.389C415.468 213.699 414.596 215.9 413.167 217.727C411.737 219.554 409.812 220.931 407.62 221.692C405.428 222.453 403.064 222.566 400.81 222.017C398.556 221.469 396.507 220.283 394.91 218.6C379.068 201.905 356.058 174.155 343.366 143.213C320.081 150.471 265.117 156.173 231.166 156.173C197.215 156.173 142.253 150.473 118.966 143.213C106.278 174.155 83.2691 201.9 67.4301 218.6C65.833 220.283 63.7847 221.469 61.5305 222.017C59.2763 222.566 56.9119 222.453 54.7203 221.692C52.5287 220.931 50.603 219.554 49.1736 217.727C47.7443 215.9 46.872 213.699 46.6611 211.389C41.4771 151.365 69.5111 31.756 231.168 31.756Z" fill="#F6EE86"/>
<path d="M329.49 31.781C329.492 29.3207 328.806 26.9089 327.51 24.8177C326.214 22.7265 324.359 21.0391 322.155 19.946C300.356 9.129 262.175 -10 231.167 -10C200.159 -10 161.978 9.129 140.18 19.946C137.977 21.0397 136.122 22.7272 134.826 24.8183C133.53 26.9094 132.844 29.3209 132.845 31.781V80.181C132.842 83.712 133.943 87.1555 135.995 90.0297C138.046 92.9039 140.944 95.0648 144.284 96.21C166.544 103.821 202.024 110.358 231.168 110.358C260.312 110.358 295.792 103.821 318.052 96.21C321.393 95.0648 324.291 92.9038 326.342 90.0294C328.394 87.155 329.495 83.7112 329.491 80.18V31.78L329.49 31.781Z" fill="#FCF2D0"/>
<path d="M188.111 -1.23804C169.754 5.21496 152.395 13.884 140.18 19.945C137.977 21.0387 136.122 22.7262 134.826 24.8172C133.53 26.9083 132.844 29.3198 132.845 31.78V80.18C132.842 83.711 133.943 87.1545 135.995 90.0287C138.046 92.9028 140.944 95.0637 144.284 96.209C160.036 101.595 182.408 106.44 204.47 108.809C186.747 87.422 182.47 24.031 188.111 -1.24304V-1.23804Z" fill="#F6E3A3"/>
<path d="M329.49 80.1801C329.493 83.711 328.392 87.1546 326.341 90.0288C324.29 92.9029 321.391 95.0638 318.051 96.2091C295.791 103.82 260.311 110.357 231.167 110.357C202.023 110.357 166.543 103.82 144.283 96.2091C140.943 95.064 138.045 92.9031 135.993 90.0289C133.942 87.1547 132.841 83.7111 132.844 80.1801V50.1801C152.359 59.5381 196.298 68.8961 231.167 68.8961C266.036 68.8961 309.974 59.5381 329.49 50.1801V80.1801Z" fill="#E7889D"/>
<path d="M132.845 50.178V80.178C132.842 83.709 133.943 87.1526 135.995 90.0267C138.046 92.9009 140.944 95.0618 144.284 96.207C160.036 101.593 182.408 106.438 204.47 108.807C196.988 99.778 191.905 83.261 188.951 65.285C166.198 61.708 144.878 55.941 132.845 50.171V50.178Z" fill="#E16E7E"/>
<path d="M418.616 408.715L453.24 374.091C453.855 373.48 454.66 373.097 455.521 373.005C456.383 372.913 457.251 373.118 457.98 373.585C466.226 378.814 476.989 378.085 483.85 371.222C495.55 359.522 488.45 339.341 472.63 335.515C471.966 335.357 471.358 335.017 470.875 334.534C470.392 334.051 470.053 333.443 469.894 332.779C466.069 316.979 445.9 309.846 434.187 321.559C427.325 328.421 426.595 339.183 431.824 347.429C432.292 348.159 432.496 349.026 432.404 349.888C432.312 350.75 431.929 351.554 431.318 352.169L396.694 386.793L418.616 408.715Z" fill="#F6E3A3"/>
<path d="M312.182 401.393C353.895 359.68 398.782 352.963 425.614 379.793C452.446 406.623 445.73 451.511 404.014 493.225L312.182 401.393Z" fill="#E0B799"/>
<path d="M403.939 493.22C420.34 476.82 413.078 442.966 387.718 417.607C362.359 392.247 328.505 384.985 312.105 401.386C295.704 417.787 302.966 451.64 328.326 476.999C353.685 502.359 387.538 509.621 403.939 493.22Z" fill="#E7889D"/>
<path d="M352.15 453.259C347.07 448.179 345.615 441.397 348.901 438.112C352.187 434.827 358.968 436.281 364.048 441.361C369.128 446.441 370.583 453.223 367.297 456.508C364.011 459.793 357.23 458.339 352.15 453.259Z" fill="#FCF2D0"/>
</svg>
