<svg width="512" height="512" viewBox="0 0 512 512" fill="none" xmlns="http://www.w3.org/2000/svg">
<path d="M418.457 227.542C458.209 295.155 452.511 401.142 244.357 401.142C36.2028 401.142 30.5038 295.155 70.2558 227.542H418.457Z" fill="#E7889D"/>
<path d="M459.299 221.486C461.53 194.694 441.619 171.167 414.827 168.936C388.035 166.706 364.507 186.617 362.277 213.409C360.046 240.201 379.957 263.728 406.749 265.959C433.541 268.189 457.069 248.278 459.299 221.486Z" fill="#FFBE9D"/>
<path d="M83.079 265.861C109.832 263.199 129.361 239.354 126.699 212.602C124.037 185.849 100.192 166.32 73.4398 168.981C46.6872 171.643 27.1578 195.488 29.8196 222.241C32.4813 248.993 56.3264 268.523 83.079 265.861Z" fill="#FFD3BD"/>
<path d="M371.414 453.683C373.906 453.692 376.371 453.169 378.645 452.148C380.918 451.128 382.948 449.634 384.598 447.767C386.247 445.899 387.48 443.701 388.212 441.319C388.944 438.937 389.159 436.426 388.843 433.954C384.069 399.018 366.8 366.995 340.233 343.811C313.665 320.627 279.598 307.853 244.338 307.853C209.077 307.853 175.011 320.627 148.443 343.811C121.876 366.995 104.607 399.018 99.8329 433.954C99.5167 436.426 99.7319 438.937 100.464 441.319C101.196 443.701 102.428 445.899 104.078 447.767C105.728 449.634 107.758 451.128 110.031 452.148C112.305 453.169 114.77 453.692 117.262 453.683H371.414Z" fill="#A2DDFD"/>
<path d="M317.053 403.97H171.623C169.512 403.97 167.422 404.386 165.472 405.193C163.522 406.001 161.751 407.185 160.258 408.677C158.766 410.17 157.582 411.942 156.774 413.891C155.966 415.841 155.551 417.931 155.551 420.042V453.683H333.127V420.042C333.127 417.931 332.711 415.841 331.903 413.891C331.095 411.941 329.911 410.169 328.418 408.677C326.926 407.185 325.154 406.001 323.204 405.193C321.254 404.385 319.164 403.97 317.053 403.97Z" fill="#8DAEE1"/>
<path d="M199.784 416.73H181.816C179.407 416.73 177.096 415.773 175.392 414.069C173.689 412.365 172.731 410.054 172.731 407.645V314.345H208.868V407.645C208.869 408.838 208.634 410.019 208.177 411.122C207.721 412.224 207.052 413.225 206.208 414.069C205.365 414.913 204.363 415.582 203.261 416.038C202.159 416.495 200.977 416.73 199.784 416.73Z" fill="#6A95D6"/>
<path d="M301.131 416.73H319.104C321.513 416.73 323.824 415.773 325.528 414.069C327.232 412.365 328.189 410.054 328.189 407.645V314.345H292.047V407.645C292.047 408.838 292.282 410.019 292.738 411.122C293.195 412.224 293.864 413.225 294.707 414.069C295.551 414.913 296.552 415.582 297.654 416.038C298.757 416.495 299.938 416.73 301.131 416.73Z" fill="#6A95D6"/>
<path d="M411.673 210.786C411.673 125.457 336.755 59.093 244.338 59.093C151.921 59.093 77.0039 125.457 77.0039 210.786C77.0039 296.115 151.923 363.728 244.339 363.728C336.755 363.728 411.673 296.115 411.673 210.786Z" fill="#FFD3BD"/>
<path d="M190.574 66.939C124.531 86.89 77.0039 142.822 77.0039 210.786C77.0039 296.115 151.923 363.728 244.339 363.728C267.252 363.787 289.969 359.51 311.291 351.122C106.021 339.788 134.993 128.874 190.574 66.939Z" fill="#FFBE9D"/>
<path d="M154.139 272.388C172.521 272.388 187.421 260.522 187.421 245.884C187.421 231.246 172.521 219.38 154.139 219.38C135.758 219.38 120.857 231.246 120.857 245.884C120.857 260.522 135.758 272.388 154.139 272.388Z" fill="#E7889D"/>
<path d="M334.538 272.388C352.919 272.388 367.82 260.522 367.82 245.884C367.82 231.246 352.919 219.38 334.538 219.38C316.157 219.38 301.256 231.246 301.256 245.884C301.256 260.522 316.157 272.388 334.538 272.388Z" fill="#E7889D"/>
<path d="M173.535 227.87C171.546 227.87 169.638 227.08 168.232 225.673C166.825 224.267 166.035 222.359 166.035 220.37V206.77C166.035 204.781 166.825 202.873 168.232 201.467C169.638 200.06 171.546 199.27 173.535 199.27C175.524 199.27 177.432 200.06 178.838 201.467C180.245 202.873 181.035 204.781 181.035 206.77V220.37C181.035 222.359 180.245 224.267 178.838 225.673C177.432 227.08 175.524 227.87 173.535 227.87Z" fill="#4E5660"/>
<path d="M315.142 227.87C313.152 227.87 311.245 227.08 309.838 225.673C308.432 224.267 307.642 222.359 307.642 220.37V206.77C307.642 204.781 308.432 202.873 309.838 201.467C311.245 200.06 313.152 199.27 315.142 199.27C317.131 199.27 319.038 200.06 320.445 201.467C321.851 202.873 322.642 204.781 322.642 206.77V220.37C322.642 222.359 321.851 224.267 320.445 225.673C319.038 227.08 317.131 227.87 315.142 227.87Z" fill="#4E5660"/>
<path d="M244.339 235.969C239.729 235.968 235.173 234.979 230.977 233.068C226.782 231.157 223.045 228.37 220.018 224.893C218.711 223.393 218.053 221.436 218.19 219.451C218.326 217.467 219.245 215.618 220.745 214.311C222.244 213.004 224.202 212.347 226.186 212.483C228.171 212.619 230.02 213.538 231.327 215.038C232.945 216.9 234.944 218.394 237.189 219.417C239.434 220.441 241.872 220.97 244.34 220.97C246.807 220.97 249.245 220.441 251.49 219.417C253.735 218.394 255.734 216.9 257.353 215.038C258 214.295 258.787 213.688 259.669 213.249C260.551 212.811 261.51 212.55 262.493 212.483C263.476 212.415 264.462 212.542 265.396 212.856C266.329 213.169 267.192 213.664 267.935 214.311C268.677 214.958 269.285 215.745 269.723 216.627C270.162 217.509 270.422 218.469 270.49 219.451C270.557 220.434 270.431 221.42 270.117 222.354C269.803 223.288 269.309 224.15 268.662 224.893C265.634 228.37 261.896 231.157 257.701 233.068C253.505 234.978 248.949 235.968 244.339 235.969Z" fill="#4E5660"/>
<path d="M124.904 146.04C124.904 135.777 96.7551 134.362 76.8041 134.362C56.8531 134.362 40.6641 155.429 40.6641 181.416C40.6641 207.403 56.8421 228.469 76.7981 228.469C96.7541 228.469 124.904 197.781 124.904 146.04Z" fill="#E7889D"/>
<path d="M363.804 146.04C363.804 135.777 391.953 134.362 411.909 134.362C431.865 134.362 448.043 155.429 448.043 181.415C448.043 207.401 431.865 228.468 411.909 228.468C391.953 228.468 363.804 197.781 363.804 146.04Z" fill="#E7889D"/>
<path d="M244.338 8.82703C362.701 8.82703 430.328 69.427 442.254 128.797C442.71 131.149 442.667 133.57 442.128 135.904C441.59 138.238 440.566 140.433 439.125 142.347C437.684 144.261 435.857 145.85 433.763 147.013C431.668 148.176 429.353 148.886 426.967 149.097C383.632 153.084 308.598 159.117 244.338 159.117C180.078 159.117 105.044 153.083 61.7088 149.1C59.3225 148.889 57.0071 148.179 54.9125 147.016C52.818 145.854 50.991 144.264 49.5499 142.35C48.1087 140.437 47.0856 138.242 46.5468 135.907C46.0079 133.573 45.9653 131.152 46.4218 128.8C58.3488 69.426 125.975 8.82703 244.338 8.82703Z" fill="#F6EE86"/>
<path d="M129.722 32.6121C81.8683 55.6971 53.7223 92.4751 46.4223 128.797C45.9655 131.149 46.0077 133.57 46.5461 135.904C47.0845 138.238 48.1071 140.433 49.5477 142.347C50.9883 144.261 52.8148 145.851 54.9089 147.015C57.0031 148.178 59.3181 148.888 61.7043 149.1C81.8143 150.95 108.755 153.24 138.274 155.164C122.628 135.764 108.674 80.0581 129.717 32.6161L129.722 32.6121Z" fill="#EED076"/>
<path d="M260.913 0H227.764C225.369 0.000105201 223 0.500019 220.81 1.46777C218.619 2.43553 216.654 3.84982 215.041 5.62022C213.428 7.39061 212.202 9.47814 211.442 11.7493C210.682 14.0205 210.404 16.4253 210.626 18.81L220.915 129.184H267.763L278.05 18.81C278.272 16.4254 277.995 14.0206 277.235 11.7494C276.474 9.47822 275.249 7.39067 273.636 5.62026C272.023 3.84985 270.058 2.43553 267.867 1.46777C265.677 0.500005 263.308 9.16323e-05 260.913 0V0Z" fill="#EED076"/>
<path d="M244.356 177.619C275.656 177.619 321.612 172.75 350.433 155.161C332.533 136.745 294.566 116.4 244.356 116.4C194.146 116.4 156.178 136.745 138.279 155.161C167.1 172.749 213.059 177.619 244.356 177.619Z" fill="#EED076"/>
<path d="M144.637 95.9C142.648 95.9 140.74 95.1098 139.333 93.7033C137.927 92.2968 137.137 90.3891 137.137 88.4V70.109C137.137 68.1199 137.927 66.2122 139.333 64.8057C140.74 63.3992 142.648 62.609 144.637 62.609C146.626 62.609 148.533 63.3992 149.94 64.8057C151.347 66.2122 152.137 68.1199 152.137 70.109V88.4C152.137 90.3891 151.347 92.2968 149.94 93.7033C148.533 95.1098 146.626 95.9 144.637 95.9Z" fill="#EED076"/>
<path d="M344.041 95.9C342.052 95.9 340.144 95.1098 338.738 93.7033C337.331 92.2968 336.541 90.3891 336.541 88.4V70.109C336.541 68.1199 337.331 66.2122 338.738 64.8057C340.144 63.3992 342.052 62.609 344.041 62.609C346.03 62.609 347.938 63.3992 349.344 64.8057C350.751 66.2122 351.541 68.1199 351.541 70.109V88.4C351.541 90.3891 350.751 92.2968 349.344 93.7033C347.938 95.1098 346.03 95.9 344.041 95.9Z" fill="#EED076"/>
<path d="M361.343 488.925L313.315 440.9C310.574 438.159 309.034 434.441 309.034 430.564C309.034 426.687 310.574 422.969 313.315 420.228L414.54 319C417.282 316.259 421 314.719 424.876 314.719C428.753 314.719 432.471 316.259 435.212 319L483.24 367.028C485.981 369.769 487.521 373.487 487.521 377.364C487.521 381.241 485.981 384.959 483.24 387.7L382.015 488.925C380.658 490.283 379.047 491.359 377.273 492.094C375.5 492.829 373.599 493.207 371.679 493.207C369.76 493.207 367.859 492.829 366.085 492.094C364.312 491.359 362.7 490.283 361.343 488.925Z" fill="#FCF2D0"/>
<path d="M327.212 454.794C338.749 444.535 355.793 435.42 376.639 442.153C391.018 446.799 403.681 452.203 416.07 454.871L429.88 441.061C416.038 440.878 401.4 433.914 381.39 427.448C358.881 420.175 335.784 426.16 316.264 443.848L327.212 454.794Z" fill="#F6E3A3"/>
<path d="M420.817 377.4C410.311 378.887 402.786 377.453 398.449 373.142C392.049 366.779 391.459 353.596 392.364 341.177L376.843 356.7C377.643 367.565 380.589 377.176 387.553 384.1C395.506 392.008 407.426 394.9 422.983 392.7C447.191 389.277 460.683 395.328 468.202 402.741L479.118 391.825C469.096 381.852 451.446 373.063 420.818 377.4H420.817Z" fill="#F6E3A3"/>
<path d="M334.732 401.314C338.024 401.314 341.267 402.108 344.186 403.628C347.106 405.147 349.616 407.349 351.504 410.045C353.392 412.741 354.602 415.853 355.032 419.116C355.461 422.379 355.098 425.698 353.972 428.791L325.955 505.767C325.523 506.954 324.799 508.013 323.85 508.846C322.9 509.678 321.756 510.258 320.523 510.532C319.289 510.805 318.007 510.763 316.795 510.409C315.582 510.056 314.478 509.402 313.585 508.509L302.985 497.909C300.791 495.715 297.815 494.482 294.712 494.482C291.609 494.482 288.634 495.715 286.439 497.909L275.773 508.575C273.579 510.769 270.603 512.002 267.5 512.002C264.397 512.002 261.422 510.769 259.227 508.575L248.561 497.909C246.367 495.715 243.391 494.482 240.288 494.482C237.185 494.482 234.21 495.715 232.015 497.909L221.349 508.575C219.155 510.769 216.179 512.002 213.076 512.002C209.973 512.002 206.998 510.769 204.803 508.575L194.137 497.909C191.943 495.715 188.967 494.482 185.864 494.482C182.761 494.482 179.786 495.715 177.591 497.909L167.825 507.675C167.074 508.427 166.116 508.939 165.074 509.146C164.032 509.354 162.951 509.247 161.969 508.84C160.987 508.434 160.148 507.745 159.557 506.861C158.967 505.977 158.652 504.938 158.652 503.875V401.313H334.732V401.314Z" fill="#8DAEE1"/>
<path d="M66.7653 425.623L49.6353 472.688C48.6261 475.461 48.3002 478.436 48.6853 481.362C49.0705 484.287 50.1552 487.077 51.8477 489.494C53.5402 491.911 55.7905 493.885 58.4079 495.247C61.0253 496.61 63.9326 497.321 66.8833 497.321H158.649V401.314H101.483C93.9014 401.314 86.503 403.647 80.2922 407.995C74.0814 412.344 69.3588 418.498 66.7653 425.623Z" fill="#E0B799"/>
<path d="M106.542 464C105.336 464 104.148 463.709 103.079 463.152C102.009 462.595 101.09 461.788 100.398 460.801C99.7071 459.813 99.264 458.673 99.1069 457.477C98.9498 456.282 99.0832 455.066 99.4959 453.933L104.838 439.255C105.518 437.385 106.914 435.862 108.717 435.021C110.52 434.18 112.584 434.09 114.453 434.771C116.323 435.451 117.846 436.846 118.687 438.65C119.528 440.453 119.618 442.516 118.938 444.386L113.596 459.064C113.069 460.512 112.11 461.762 110.848 462.645C109.586 463.528 108.082 464.001 106.542 464Z" fill="#4E5660"/>
</svg>
