<svg width="512" height="512" viewBox="0 0 512 512" fill="none" xmlns="http://www.w3.org/2000/svg">
<path d="M426.692 306.654C426.692 338.193 415.607 392.093 425.286 433.301C426.643 438.916 425.821 444.836 422.987 449.869C420.152 454.902 415.515 458.673 410.01 460.423C363.661 474.874 302.97 479.687 256.01 479.687C209.05 479.687 148.355 474.874 102.01 460.423C96.505 458.673 91.8679 454.902 89.0332 449.868C86.1985 444.835 85.3769 438.915 86.734 433.3C96.413 392.093 85.327 338.192 85.327 306.653L426.692 306.654Z" fill="#4E5660"/>
<path d="M437.416 339.437C461.987 329.588 473.921 301.684 464.072 277.112C454.222 252.541 426.318 240.607 401.747 250.456C377.175 260.306 365.241 288.21 375.091 312.782C384.94 337.353 412.844 349.287 437.416 339.437Z" fill="#B7856B"/>
<path d="M136.816 313.09C146.665 288.518 134.731 260.614 110.16 250.765C85.5882 240.915 57.6843 252.849 47.8346 277.421C37.9848 301.992 49.9191 329.896 74.4905 339.746C99.0619 349.595 126.966 337.661 136.816 313.09Z" fill="#CB9D82"/>
<path d="M61.134 361.84C61.134 369.578 64.208 377 69.6797 382.471C75.1515 387.943 82.5728 391.017 90.311 391.017C98.0492 391.017 105.47 387.943 110.942 382.471C116.414 377 119.488 369.578 119.488 361.84C119.488 345.726 106.425 314.352 90.311 314.352C74.197 314.352 61.134 345.727 61.134 361.84Z" fill="#8DAEE1"/>
<path d="M450.886 361.84C450.886 369.578 447.812 377 442.34 382.471C436.869 387.943 429.447 391.017 421.709 391.017C413.971 391.017 406.55 387.943 401.078 382.471C395.606 377 392.532 369.578 392.532 361.84C392.532 345.726 405.595 314.352 421.709 314.352C437.823 314.352 450.886 345.727 450.886 361.84Z" fill="#8DAEE1"/>
<path d="M377.7 512C380.086 512.008 382.447 511.507 384.624 510.53C386.802 509.553 388.745 508.123 390.325 506.334C391.905 504.546 393.085 502.441 393.786 500.16C394.487 497.879 394.694 495.474 394.391 493.107C389.819 459.652 373.282 428.985 347.841 406.784C322.399 384.582 289.776 372.349 256.01 372.349C222.244 372.349 189.621 384.582 164.179 406.784C138.738 428.985 122.201 459.652 117.629 493.107C117.326 495.474 117.532 497.879 118.233 500.16C118.935 502.441 120.115 504.546 121.695 506.335C123.275 508.123 125.218 509.554 127.396 510.531C129.573 511.508 131.934 512.009 134.32 512H377.7Z" fill="#FBF1CF"/>
<path d="M237.694 477.849C240.594 474.948 240.594 470.246 237.694 467.345C234.794 464.445 230.091 464.445 227.191 467.345C224.29 470.246 224.29 474.948 227.191 477.849C230.091 480.749 234.794 480.749 237.694 477.849Z" fill="#88D37F"/>
<path d="M264.298 372.6C261.555 372.439 258.798 372.349 256.01 372.349C222.244 372.351 189.622 384.585 164.181 406.786C138.74 428.987 122.202 459.653 117.629 493.108C117.326 495.475 117.533 497.88 118.234 500.161C118.935 502.442 120.115 504.547 121.695 506.335C123.275 508.123 125.219 509.554 127.396 510.531C129.573 511.508 131.934 512.009 134.32 512H194.72V465.723C194.72 458.257 196.19 450.864 199.047 443.967C201.903 437.069 206.091 430.802 211.37 425.523L264.298 372.6Z" fill="#F5E2A2"/>
<path d="M420.777 284.85C420.777 200.831 347.01 135.485 256.01 135.485C165.01 135.485 91.243 200.831 91.243 284.85C91.243 368.869 165.01 435.445 256.01 435.445C347.01 435.445 420.777 368.87 420.777 284.85Z" fill="#CB9D82"/>
<path d="M203.071 143.211C138.042 162.856 91.243 217.93 91.243 284.85C91.243 368.869 165.012 435.45 256.01 435.45C278.571 435.508 300.94 431.296 321.935 423.037C119.816 411.873 148.343 204.2 203.071 143.211Z" fill="#B7856B"/>
<path d="M162.322 356.688C181.414 356.688 196.891 344.363 196.891 329.159C196.891 313.955 181.414 301.63 162.322 301.63C143.23 301.63 127.753 313.955 127.753 329.159C127.753 344.363 143.23 356.688 162.322 356.688Z" fill="white"/>
<path d="M349.698 356.688C368.79 356.688 384.267 344.363 384.267 329.159C384.267 313.955 368.79 301.63 349.698 301.63C330.606 301.63 315.129 313.955 315.129 329.159C315.129 344.363 330.606 356.688 349.698 356.688Z" fill="white"/>
<path d="M182.469 309.819C180.48 309.819 178.572 309.029 177.166 307.622C175.759 306.216 174.969 304.308 174.969 302.319V288.866C174.969 286.877 175.759 284.969 177.166 283.563C178.572 282.156 180.48 281.366 182.469 281.366C184.458 281.366 186.366 282.156 187.772 283.563C189.179 284.969 189.969 286.877 189.969 288.866V302.319C189.969 303.304 189.775 304.279 189.398 305.189C189.021 306.099 188.469 306.926 187.772 307.622C187.076 308.319 186.249 308.871 185.339 309.248C184.429 309.625 183.454 309.819 182.469 309.819Z" fill="#4E5660"/>
<path d="M256.01 318.571C251.263 318.57 246.572 317.551 242.252 315.584C237.932 313.616 234.084 310.746 230.967 307.165C229.672 305.664 229.023 303.711 229.164 301.733C229.305 299.755 230.223 297.913 231.718 296.611C233.213 295.308 235.163 294.65 237.142 294.782C239.12 294.913 240.966 295.822 242.276 297.311C243.984 299.276 246.094 300.851 248.464 301.931C250.833 303.01 253.406 303.569 256.01 303.569C258.614 303.569 261.187 303.01 263.556 301.931C265.925 300.851 268.036 299.276 269.744 297.311C271.054 295.822 272.9 294.913 274.878 294.782C276.857 294.65 278.807 295.308 280.302 296.611C281.797 297.913 282.715 299.755 282.856 301.733C282.997 303.711 282.348 305.664 281.053 307.165C277.936 310.746 274.088 313.616 269.768 315.584C265.448 317.551 260.757 318.57 256.01 318.571Z" fill="#4E5660"/>
<path d="M347.738 309.444C345.749 309.444 343.841 308.654 342.435 307.247C341.028 305.841 340.238 303.933 340.238 301.944C340.238 299.798 339.386 297.74 337.868 296.223C336.351 294.706 334.293 293.854 332.148 293.854C330.002 293.854 327.944 294.706 326.427 296.223C324.909 297.74 324.057 299.798 324.057 301.944C324.057 303.933 323.267 305.841 321.86 307.247C320.454 308.654 318.546 309.444 316.557 309.444C314.568 309.444 312.66 308.654 311.254 307.247C309.847 305.841 309.057 303.933 309.057 301.944C309.057 295.82 311.49 289.947 315.82 285.617C320.15 281.286 326.024 278.854 332.148 278.854C338.272 278.854 344.145 281.286 348.475 285.617C352.805 289.947 355.238 295.82 355.238 301.944C355.238 303.933 354.448 305.841 353.041 307.247C351.635 308.654 349.727 309.444 347.738 309.444Z" fill="#4E5660"/>
<path d="M414.57 170.209C436.703 206.796 432.07 261.282 423.621 289.729C423.026 291.743 421.938 293.578 420.456 295.066C418.973 296.554 417.143 297.649 415.131 298.252C413.119 298.854 410.988 298.946 408.932 298.517C406.875 298.089 404.958 297.155 403.354 295.799C383.337 278.88 357.803 243.108 354.936 191.475L414.57 170.209Z" fill="#4E5660"/>
<path d="M96.22 170.209C74.087 206.796 78.72 261.282 87.169 289.729C87.7639 291.743 88.8518 293.578 90.3342 295.066C91.8166 296.554 93.6467 297.649 95.6589 298.252C97.6711 298.854 99.8018 298.946 101.858 298.517C103.915 298.089 105.832 297.155 107.436 295.799C127.453 278.88 152.987 243.108 155.854 191.475L96.22 170.209Z" fill="#4E5660"/>
<path d="M428.148 45.619V193.491C428.144 197.828 426.724 202.046 424.102 205.502C421.481 208.957 417.802 211.462 413.626 212.634C374.397 223.694 294.833 233.49 255.396 233.49C215.959 233.49 136.396 223.69 97.166 212.634C92.9899 211.462 89.3112 208.957 86.6897 205.502C84.0682 202.046 82.6476 197.828 82.644 193.491V45.619C82.6421 39.6841 84.6009 33.9149 88.2159 29.208C91.8309 24.5011 96.8995 21.1203 102.634 19.591C202.8 -6.53033 307.991 -6.53033 408.157 19.591C413.892 21.1203 418.96 24.501 422.575 29.2079C426.191 33.9148 428.15 39.684 428.148 45.619Z" fill="#FBF1CF"/>
<path d="M255.395 199.7C253.406 199.7 251.498 198.91 250.092 197.503C248.685 196.097 247.895 194.189 247.895 192.2V92.355C247.895 90.3659 248.685 88.4582 250.092 87.0517C251.498 85.6452 253.406 84.855 255.395 84.855C257.384 84.855 259.292 85.6452 260.698 87.0517C262.105 88.4582 262.895 90.3659 262.895 92.355V192.2C262.895 194.189 262.105 196.097 260.698 197.503C259.292 198.91 257.384 199.7 255.395 199.7Z" fill="#F5E2A2"/>
<path d="M172.99 199.7C171.001 199.7 169.093 198.91 167.687 197.503C166.28 196.097 165.49 194.189 165.49 192.2V92.355C165.49 90.3659 166.28 88.4582 167.687 87.0517C169.093 85.6452 171.001 84.855 172.99 84.855C174.979 84.855 176.887 85.6452 178.293 87.0517C179.7 88.4582 180.49 90.3659 180.49 92.355V192.2C180.49 194.189 179.7 196.097 178.293 197.503C176.887 198.91 174.979 199.7 172.99 199.7Z" fill="#F5E2A2"/>
<path d="M337.799 199.7C335.81 199.7 333.902 198.91 332.496 197.503C331.089 196.097 330.299 194.189 330.299 192.2V92.355C330.299 90.3659 331.089 88.4582 332.496 87.0517C333.902 85.6452 335.81 84.855 337.799 84.855C339.788 84.855 341.696 85.6452 343.102 87.0517C344.509 88.4582 345.299 90.3659 345.299 92.355V192.2C345.299 194.189 344.509 196.097 343.102 197.503C341.696 198.91 339.788 199.7 337.799 199.7Z" fill="#F5E2A2"/>
<path d="M82.642 141.161C111.927 154.076 210.113 166.991 255.395 166.991C300.677 166.991 398.863 154.076 428.148 141.161V193.491C428.144 197.828 426.724 202.046 424.102 205.502C421.481 208.957 417.802 211.462 413.626 212.634C374.397 223.694 294.833 233.49 255.396 233.49C215.959 233.49 136.396 223.69 97.166 212.634C92.9894 211.463 89.3102 208.958 86.6885 205.503C84.0669 202.047 82.6466 197.829 82.644 193.491V141.161H82.642Z" fill="#88D37F"/>
</svg>
