<svg width="512" height="512" viewBox="0 0 512 512" fill="none" xmlns="http://www.w3.org/2000/svg">
<path d="M146.9 354.825C147.329 344.251 144.778 333.769 139.54 324.573C134.301 315.378 126.584 307.839 117.269 302.816C107.954 297.793 97.4157 295.488 86.8543 296.163C76.293 296.839 66.1337 300.467 57.5342 306.635C48.9348 312.804 42.241 321.264 38.2158 331.051C34.1906 340.839 32.9959 351.56 34.7677 361.994C36.5396 372.427 41.2068 382.153 48.2374 390.063C55.268 397.973 64.3794 403.749 74.533 406.733C74.1042 417.307 76.6546 427.789 81.8934 436.985C87.1322 446.18 94.8488 453.719 104.164 458.742C113.479 463.765 124.017 466.07 134.579 465.395C145.14 464.719 155.299 461.091 163.899 454.923C172.498 448.754 179.192 440.294 183.217 430.507C187.242 420.719 188.437 409.998 186.665 399.564C184.893 389.131 180.226 379.405 173.196 371.495C166.165 363.585 157.054 357.809 146.9 354.825Z" fill="#4E5660"/>
<path d="M365.1 354.825C364.671 344.251 367.222 333.769 372.46 324.573C377.699 315.378 385.416 307.839 394.731 302.816C404.046 297.793 414.584 295.488 425.146 296.163C435.707 296.839 445.866 300.467 454.466 306.635C463.065 312.804 469.759 321.264 473.784 331.051C477.809 340.839 479.004 351.56 477.232 361.994C475.46 372.427 470.793 382.153 463.763 390.063C456.732 397.973 447.621 403.749 437.467 406.733C437.896 417.307 435.345 427.789 430.107 436.985C424.868 446.18 417.151 453.719 407.836 458.742C398.521 463.765 387.983 466.07 377.421 465.395C366.86 464.719 356.701 461.091 348.101 454.923C339.502 448.754 332.808 440.294 328.783 430.507C324.758 420.719 323.563 409.998 325.335 399.564C327.107 389.131 331.774 379.405 338.804 371.495C345.835 363.585 354.946 357.809 365.1 354.825Z" fill="#4E5660"/>
<path d="M453.998 307.595C486.032 307.595 512 281.627 512 249.593C512 217.559 486.032 191.591 453.998 191.591C421.964 191.591 395.996 217.559 395.996 249.593C395.996 281.627 421.964 307.595 453.998 307.595Z" fill="#FFBE9D"/>
<path d="M58.002 307.595C90.0356 307.595 116.004 281.627 116.004 249.593C116.004 217.559 90.0356 191.591 58.002 191.591C25.9684 191.591 0 217.559 0 249.593C0 281.627 25.9684 307.595 58.002 307.595Z" fill="#FFD3BD"/>
<path d="M60.666 342.778H50.312C45.532 342.778 40.9478 340.879 37.5678 337.499C34.1878 334.119 32.289 329.535 32.289 324.755V289.4C32.289 284.62 34.1878 280.036 37.5678 276.656C40.9478 273.276 45.532 271.377 50.312 271.377H60.666C65.446 271.377 70.0302 273.276 73.4102 276.656C76.7902 280.036 78.689 284.62 78.689 289.4V324.759C78.6879 329.538 76.7886 334.121 73.4088 337.501C70.0289 340.88 65.4453 342.778 60.666 342.778Z" fill="#8DAEE1"/>
<path d="M451.334 342.778H461.688C466.468 342.778 471.052 340.879 474.432 337.499C477.812 334.119 479.711 329.535 479.711 324.755V289.4C479.711 284.62 477.812 280.036 474.432 276.656C471.052 273.276 466.468 271.377 461.688 271.377H451.334C446.554 271.377 441.97 273.276 438.59 276.656C435.21 280.036 433.311 284.62 433.311 289.4V324.759C433.312 329.538 435.211 334.121 438.591 337.501C441.971 340.88 446.555 342.778 451.334 342.778Z" fill="#8DAEE1"/>
<path d="M403.256 512C406.144 512.011 409.001 511.405 411.636 510.223C414.271 509.041 416.623 507.31 418.536 505.145C420.448 502.981 421.876 500.434 422.724 497.673C423.573 494.913 423.822 492.003 423.456 489.138C417.923 448.654 397.912 411.546 367.126 384.68C336.339 357.815 296.863 343.013 256.002 343.013C215.142 343.013 175.666 357.815 144.879 384.68C114.093 411.546 94.0816 448.654 88.549 489.138C88.1828 492.002 88.4322 494.911 89.2804 497.671C90.1287 500.432 91.5563 502.979 93.4678 505.143C95.3794 507.307 97.7309 509.038 100.365 510.221C102.999 511.403 105.856 512.01 108.743 512H403.256Z" fill="#E0B799"/>
<path d="M352.462 512C354.922 461.875 372.113 425.683 386.218 404.3C370.363 385.128 350.469 369.694 327.959 359.1C305.449 348.506 280.878 343.012 255.999 343.012C231.12 343.012 206.549 348.506 184.039 359.1C161.529 369.694 141.635 385.128 125.78 404.3C139.88 425.682 157.08 461.875 159.537 512H352.462Z" fill="#F6EE86"/>
<path d="M232.191 401.406H279.81V512H232.191V401.406Z" fill="#4E5660"/>
<path d="M330.161 453.467H313.887C311.898 453.467 309.99 452.677 308.584 451.27C307.177 449.864 306.387 447.956 306.387 445.967C306.387 443.978 307.177 442.07 308.584 440.664C309.99 439.257 311.898 438.467 313.887 438.467H330.161C332.15 438.467 334.058 439.257 335.464 440.664C336.871 442.07 337.661 443.978 337.661 445.967C337.661 447.956 336.871 449.864 335.464 451.27C334.058 452.677 332.15 453.467 330.161 453.467Z" fill="#4E5660"/>
<path d="M198.113 453.467H181.839C179.85 453.467 177.942 452.677 176.536 451.27C175.129 449.864 174.339 447.956 174.339 445.967C174.339 443.978 175.129 442.07 176.536 440.664C177.942 439.257 179.85 438.467 181.839 438.467H198.113C200.102 438.467 202.01 439.257 203.416 440.664C204.823 442.07 205.613 443.978 205.613 445.967C205.613 447.956 204.823 449.864 203.416 451.27C202.01 452.677 200.102 453.467 198.113 453.467Z" fill="#4E5660"/>
<path d="M455.383 237.128C455.383 135.457 366.116 56.3831 256 56.3831C145.884 56.3831 56.617 135.457 56.617 237.128C56.617 338.799 145.884 419.362 256 419.362C366.116 419.362 455.383 338.8 455.383 237.128Z" fill="#FFD3BD"/>
<path d="M191.939 65.7321C113.248 89.5001 56.617 156.148 56.617 237.128C56.617 338.8 145.884 419.362 256 419.362C283.301 419.433 310.369 414.336 335.775 404.341C91.192 390.837 125.713 139.528 191.939 65.7321Z" fill="#FFBE9D"/>
<path d="M141.817 328.125C165.085 328.125 183.948 313.104 183.948 294.574C183.948 276.044 165.085 261.023 141.817 261.023C118.549 261.023 99.686 276.044 99.686 294.574C99.686 313.104 118.549 328.125 141.817 328.125Z" fill="#E7889D"/>
<path d="M370.183 328.125C393.451 328.125 412.314 313.104 412.314 294.574C412.314 276.044 393.451 261.023 370.183 261.023C346.915 261.023 328.052 276.044 328.052 294.574C328.052 313.104 346.915 328.125 370.183 328.125Z" fill="#E7889D"/>
<path d="M186.425 265.564C184.436 265.564 182.528 264.774 181.122 263.367C179.715 261.961 178.925 260.053 178.925 258.064C178.925 254.734 177.602 251.541 175.248 249.187C172.894 246.833 169.701 245.51 166.371 245.51C163.041 245.51 159.848 246.833 157.494 249.187C155.14 251.541 153.817 254.734 153.817 258.064C153.817 260.053 153.027 261.961 151.62 263.367C150.214 264.774 148.306 265.564 146.317 265.564C144.328 265.564 142.42 264.774 141.014 263.367C139.607 261.961 138.817 260.053 138.817 258.064C138.817 250.756 141.72 243.748 146.887 238.58C152.055 233.413 159.063 230.51 166.371 230.51C173.679 230.51 180.687 233.413 185.855 238.58C191.022 243.748 193.925 250.756 193.925 258.064C193.925 260.053 193.135 261.961 191.728 263.367C190.322 264.774 188.414 265.564 186.425 265.564Z" fill="#4E5660"/>
<path d="M365.683 265.564C363.694 265.564 361.786 264.774 360.38 263.367C358.973 261.961 358.183 260.053 358.183 258.064C358.183 254.734 356.86 251.541 354.506 249.187C352.152 246.833 348.959 245.51 345.629 245.51C342.299 245.51 339.106 246.833 336.752 249.187C334.398 251.541 333.075 254.734 333.075 258.064C333.075 260.053 332.285 261.961 330.878 263.367C329.472 264.774 327.564 265.564 325.575 265.564C323.586 265.564 321.678 264.774 320.272 263.367C318.865 261.961 318.075 260.053 318.075 258.064C318.075 250.756 320.978 243.748 326.145 238.58C331.313 233.413 338.321 230.51 345.629 230.51C352.937 230.51 359.945 233.413 365.113 238.58C370.28 243.748 373.183 250.756 373.183 258.064C373.183 260.053 372.393 261.961 370.986 263.367C369.58 264.774 367.672 265.564 365.683 265.564Z" fill="#4E5660"/>
<path d="M256 298.693C250.896 298.692 245.852 297.596 241.207 295.481C236.562 293.365 232.425 290.279 229.074 286.429C227.767 284.929 227.11 282.972 227.246 280.987C227.382 279.003 228.301 277.154 229.801 275.847C231.301 274.54 233.258 273.883 235.243 274.019C237.227 274.155 239.076 275.074 240.383 276.574C242.325 278.809 244.725 280.601 247.419 281.829C250.113 283.057 253.039 283.692 256 283.692C258.961 283.692 261.887 283.057 264.581 281.829C267.276 280.601 269.675 278.809 271.617 276.574C272.924 275.074 274.773 274.155 276.757 274.019C278.742 273.883 280.699 274.54 282.199 275.847C283.699 277.154 284.618 279.003 284.754 280.987C284.89 282.972 284.233 284.929 282.926 286.429C279.575 290.279 275.438 293.366 270.793 295.481C266.148 297.597 261.104 298.692 256 298.693Z" fill="#4E5660"/>
<path d="M339.958 147.271C364.468 185.093 402.271 217.452 442.558 222.011C445.616 222.367 448.699 221.584 451.216 219.811C453.734 218.038 455.51 215.4 456.205 212.4C461.736 188.375 458.227 138.929 414.467 103.023L339.958 147.271Z" fill="#4E5660"/>
<path d="M172.042 147.271C147.532 185.093 109.729 217.452 69.442 222.011C66.3832 222.368 63.3003 221.585 60.7823 219.812C58.2644 218.039 56.4882 215.4 55.793 212.4C50.262 188.375 53.771 138.929 97.531 103.023L172.042 147.271Z" fill="#4E5660"/>
<path d="M256 13.637C380.192 13.637 439.017 74.778 459.645 130.337C460.325 132.195 460.618 134.173 460.504 136.149C460.391 138.124 459.875 140.056 458.988 141.824C458.1 143.593 456.86 145.161 455.343 146.432C453.827 147.703 452.066 148.651 450.17 149.216C406.37 162.278 324.878 167.635 256 167.635C187.122 167.635 105.63 162.278 61.83 149.216C59.9337 148.651 58.1731 147.703 56.6566 146.432C55.1402 145.161 53.9 143.593 53.0124 141.824C52.1248 140.056 51.6086 138.124 51.4955 136.149C51.3825 134.173 51.675 132.195 52.355 130.337C72.983 74.778 131.808 13.637 256 13.637Z" fill="#F6EE86"/>
<path d="M123.908 81.4621C125.515 87.7399 129.549 93.1223 135.125 96.4253C140.7 99.7283 147.359 100.681 153.636 99.0746C159.914 97.4679 165.297 93.4331 168.6 87.858C171.903 82.2828 172.856 75.6239 171.249 69.3461L159.909 25.0401C159.586 23.7807 158.998 22.6047 158.185 21.5904C157.371 20.5761 156.351 19.7467 155.192 19.1576C154.033 18.5685 152.762 18.2332 151.463 18.1739C150.164 18.1147 148.868 18.3329 147.66 18.8141C139.346 22.1179 131.246 25.9374 123.408 30.2501C120.252 31.9727 117.759 34.6955 116.32 37.9902C114.881 41.2849 114.578 44.9644 115.459 48.4501L123.908 81.4621Z" fill="#EED076"/>
<path d="M388.092 81.4621C386.485 87.7399 382.451 93.1223 376.875 96.4253C371.3 99.7283 364.641 100.681 358.364 99.0746C352.086 97.4679 346.703 93.4331 343.4 87.858C340.097 82.2828 339.144 75.6239 340.751 69.3461L352.09 25.0401C352.413 23.7807 353.001 22.6047 353.814 21.5904C354.628 20.5761 355.648 19.7467 356.807 19.1576C357.966 18.5685 359.237 18.2332 360.536 18.1739C361.835 18.1147 363.131 18.3329 364.339 18.8141C372.653 22.118 380.753 25.9374 388.591 30.2501C391.747 31.9727 394.24 34.6955 395.679 37.9902C397.118 41.2849 397.421 44.9644 396.54 48.4501L388.092 81.4621Z" fill="#EED076"/>
<path d="M213.389 15.619L225.839 143.419H286.16L298.61 15.619C298.781 13.8945 298.608 12.1531 298.102 10.4958C297.595 8.83849 296.765 7.29808 295.659 5.96371C294.553 4.62935 293.194 3.52753 291.66 2.72203C290.125 1.91653 288.446 1.42334 286.72 1.271C276.784 0.423667 266.544 0 256 0C245.456 0 235.216 0.424 225.279 1.272C223.553 1.42434 221.874 1.9175 220.34 2.72294C218.805 3.52838 217.446 4.6301 216.34 5.96436C215.234 7.29861 214.404 8.83891 213.898 10.4961C213.391 12.1533 213.218 13.8945 213.389 15.619Z" fill="#EED076"/>
<path d="M256 194.768C311.924 194.768 365 173.026 370.183 162.627C363.52 145.527 308.264 124.309 256 124.309C203.736 124.309 148.48 145.53 141.817 162.626C147 173.026 200.076 194.768 256 194.768Z" fill="#EED076"/>
</svg>
