<svg width="512" height="512" viewBox="0 0 512 512" fill="none" xmlns="http://www.w3.org/2000/svg">
<path d="M444.532 269.749C444.532 289.528 446.215 336.608 456.901 368.331C459.117 374.873 458.862 382 456.186 388.368C453.51 394.736 448.596 399.905 442.372 402.9C409.944 418.417 348.198 439.9 252.155 439.9C156.112 439.9 94.3621 418.423 61.9381 402.9C55.7126 399.905 50.7981 394.735 48.1217 388.366C45.4453 381.997 45.1918 374.869 47.4091 368.326C58.0951 336.603 59.7781 289.526 59.7781 269.744L444.532 269.749Z" fill="#4E5660"/>
<path d="M394.391 512C397.223 512.01 400.025 511.415 402.609 510.256C405.193 509.096 407.5 507.398 409.375 505.276C411.25 503.153 412.651 500.655 413.483 497.947C414.315 495.24 414.56 492.386 414.201 489.577C408.775 449.87 389.148 413.474 358.952 387.124C328.757 360.775 290.038 346.256 249.963 346.256C209.887 346.256 171.168 360.775 140.973 387.124C110.777 413.474 91.1503 449.87 85.7241 489.577C85.365 492.386 85.6097 495.24 86.4419 497.947C87.274 500.654 88.6745 503.153 90.5496 505.275C92.4248 507.398 94.7314 509.096 97.3153 510.255C99.8992 511.415 102.701 512.01 105.533 512H394.391Z" fill="#E0B799"/>
<path d="M333.836 346.258L311.392 425.169C301.483 436.258 258.625 499.9 252.154 512C245.683 499.9 202.825 436.257 192.916 425.169L170.472 346.258H333.836Z" fill="white"/>
<path d="M252.154 512C247.176 470.012 200.054 388.5 169.421 354.045C169.421 354.045 134.847 364.406 113.534 393.02C112.582 394.303 111.968 395.805 111.749 397.387C111.53 398.969 111.713 400.581 112.28 402.075C112.848 403.568 113.783 404.894 114.998 405.931C116.213 406.968 117.67 407.682 119.234 408.008C136.087 411.522 164.172 418.673 175.592 429.129C169.734 433.752 161.605 442.354 154.892 450.545C153.844 451.822 153.145 453.349 152.865 454.978C152.584 456.606 152.732 458.279 153.293 459.833C153.854 461.387 154.809 462.769 156.064 463.843C157.32 464.917 158.833 465.646 160.455 465.959C187.008 471.212 229.13 487.529 252.154 512Z" fill="#D1986F"/>
<path d="M252.154 512C257.132 470.012 304.254 388.5 334.887 354.045C334.887 354.045 369.461 364.406 390.774 393.02C391.726 394.303 392.34 395.805 392.559 397.387C392.778 398.969 392.596 400.581 392.028 402.075C391.46 403.568 390.525 404.894 389.31 405.931C388.095 406.968 386.638 407.682 385.074 408.008C368.221 411.522 340.136 418.673 328.716 429.129C334.574 433.752 342.703 442.354 349.416 450.545C350.464 451.822 351.163 453.349 351.443 454.978C351.724 456.606 351.576 458.279 351.015 459.833C350.455 461.387 349.5 462.769 348.244 463.843C346.988 464.917 345.475 465.646 343.853 465.959C317.3 471.212 275.178 487.529 252.154 512Z" fill="#D1986F"/>
<path d="M444.598 291.25C475.154 291.25 499.924 266.48 499.924 235.924C499.924 205.368 475.154 180.598 444.598 180.598C414.042 180.598 389.272 205.368 389.272 235.924C389.272 266.48 414.042 291.25 444.598 291.25Z" fill="#FFBE9D"/>
<path d="M55.326 291.25C85.8817 291.25 110.652 266.48 110.652 235.924C110.652 205.368 85.8817 180.598 55.326 180.598C24.7703 180.598 0 205.368 0 235.924C0 266.48 24.7703 291.25 55.326 291.25Z" fill="#FFD3BD"/>
<path d="M82.902 297.979L68.926 320.667C67.3344 323.251 65.1077 325.385 62.458 326.865C59.8084 328.344 56.8239 329.121 53.789 329.121C50.7541 329.121 47.7697 328.344 45.12 326.865C42.4703 325.385 40.2437 323.251 38.652 320.667L24.676 297.979C22.9489 295.175 22.0344 291.947 22.0344 288.654C22.0344 285.362 22.9489 282.133 24.676 279.33L38.652 256.642C40.2437 254.058 42.4703 251.924 45.12 250.444C47.7697 248.964 50.7541 248.188 53.789 248.188C56.8239 248.188 59.8084 248.964 62.458 250.444C65.1077 251.924 67.3344 254.058 68.926 256.642L82.902 279.33C84.6295 282.133 85.5443 285.362 85.5443 288.654C85.5443 291.947 84.6295 295.176 82.902 297.979Z" fill="#6A95D6"/>
<path d="M417.022 297.979L430.998 320.667C432.59 323.251 434.816 325.385 437.466 326.865C440.116 328.344 443.1 329.121 446.135 329.121C449.17 329.121 452.154 328.344 454.804 326.865C457.454 325.385 459.68 323.251 461.272 320.667L475.248 297.979C476.975 295.175 477.89 291.947 477.89 288.654C477.89 285.362 476.975 282.133 475.248 279.33L461.272 256.642C459.68 254.058 457.454 251.924 454.804 250.444C452.154 248.964 449.17 248.188 446.135 248.188C443.1 248.188 440.116 248.964 437.466 250.444C434.816 251.924 432.59 254.058 430.998 256.642L417.022 279.33C415.295 282.133 414.38 285.362 414.38 288.654C414.38 291.947 415.295 295.175 417.022 297.979Z" fill="#6A95D6"/>
<path d="M440.148 224.852C440.148 127.871 354.999 52.444 249.962 52.444C144.925 52.444 59.7759 127.871 59.7759 224.852C59.7759 321.833 144.925 398.679 249.962 398.679C354.999 398.679 440.148 321.833 440.148 224.852Z" fill="#FFD3BD"/>
<path d="M188.856 61.3621C113.795 84.0371 59.7759 147.608 59.7759 224.852C59.7759 321.833 144.925 398.68 249.962 398.68C276.005 398.748 301.826 393.886 326.062 384.352C92.7569 371.47 125.685 131.754 188.856 61.3621Z" fill="#FFBE9D"/>
<path d="M143.113 312.534C164.887 312.534 182.538 298.478 182.538 281.138C182.538 263.799 164.887 249.742 143.113 249.742C121.339 249.742 103.688 263.799 103.688 281.138C103.688 298.478 121.339 312.534 143.113 312.534Z" fill="#E7889D"/>
<path d="M356.811 312.534C378.585 312.534 396.236 298.478 396.236 281.138C396.236 263.799 378.585 249.742 356.811 249.742C335.037 249.742 317.386 263.799 317.386 281.138C317.386 298.478 335.037 312.534 356.811 312.534Z" fill="#E7889D"/>
<path d="M166.09 258.415C164.101 258.415 162.193 257.625 160.787 256.218C159.38 254.812 158.59 252.904 158.59 250.915V234.8C158.59 232.811 159.38 230.903 160.787 229.497C162.193 228.09 164.101 227.3 166.09 227.3C168.079 227.3 169.987 228.09 171.393 229.497C172.8 230.903 173.59 232.811 173.59 234.8V250.917C173.59 252.906 172.799 254.813 171.393 256.219C169.986 257.625 168.079 258.415 166.09 258.415Z" fill="#4E5660"/>
<path d="M333.834 258.415C331.845 258.415 329.937 257.625 328.531 256.218C327.124 254.812 326.334 252.904 326.334 250.915V234.8C326.334 232.811 327.124 230.903 328.531 229.497C329.937 228.09 331.845 227.3 333.834 227.3C335.823 227.3 337.731 228.09 339.137 229.497C340.544 230.903 341.334 232.811 341.334 234.8V250.917C341.333 252.906 340.543 254.813 339.137 256.219C337.73 257.625 335.823 258.415 333.834 258.415Z" fill="#4E5660"/>
<path d="M249.962 268.009C244.699 268.008 239.497 266.878 234.708 264.697C229.918 262.516 225.651 259.333 222.195 255.364C220.888 253.864 220.231 251.907 220.367 249.922C220.503 247.938 221.422 246.089 222.922 244.782C224.422 243.475 226.379 242.818 228.364 242.954C230.348 243.09 232.197 244.009 233.504 245.509C235.551 247.864 238.08 249.752 240.919 251.046C243.758 252.34 246.842 253.01 249.963 253.01C253.083 253.01 256.167 252.34 259.006 251.046C261.846 249.752 264.374 247.864 266.421 245.509C267.735 244.036 269.577 243.141 271.547 243.017C273.517 242.894 275.457 243.552 276.945 244.849C278.433 246.146 279.35 247.977 279.496 249.945C279.643 251.914 279.008 253.861 277.728 255.364C274.272 259.333 270.006 262.515 265.216 264.697C260.426 266.878 255.225 268.007 249.962 268.009Z" fill="#4E5660"/>
<path d="M182.538 114.267C180.533 164.209 118.864 224.24 82.7999 252.367C80.3052 254.315 77.3463 255.581 74.2141 256.039C71.082 256.497 67.8845 256.132 64.9362 254.98C61.9878 253.828 59.3902 251.928 57.3987 249.468C55.4072 247.007 54.0904 244.071 53.5779 240.947C42.4029 173.727 46.3159 30.2 249.962 30.2C452.381 30.2 457.467 172 446.546 239.721C444.158 254.531 425.765 260.336 415.446 249.448C397.139 230.135 382.208 201.731 375.224 180.595C312.277 183.721 201.283 140.653 182.539 114.265L182.538 114.267Z" fill="#4E5660"/>
<path d="M357.302 113.018C379.062 43.5 340.801 0 249.962 0C159.123 0 120.862 43.505 142.622 113.018H357.302Z" fill="#E0B799"/>
<path d="M249.962 84.109C287.145 84.109 337.256 94.819 357.302 113.018C328.733 159.196 277.313 172.968 249.962 172.968C222.611 172.968 171.191 159.196 142.622 113.018C162.668 94.818 212.779 84.109 249.962 84.109Z" fill="#D1986F"/>
<path d="M390.332 409.519L361.162 438.69L417.201 500.274C418.737 501.961 420.599 503.32 422.675 504.267C424.751 505.214 426.997 505.73 429.278 505.784C431.559 505.837 433.827 505.428 435.945 504.579C438.064 503.731 439.988 502.462 441.601 500.849L452.491 489.959C454.104 488.346 455.373 486.421 456.222 484.303C457.07 482.185 457.479 479.917 457.426 477.636C457.372 475.355 456.856 473.109 455.909 471.033C454.962 468.957 453.604 467.095 451.916 465.559L390.332 409.519Z" fill="#4E5660"/>
<path d="M369.7 443.423C393.84 433.417 405.298 405.736 395.292 381.595C385.286 357.455 357.605 345.997 333.465 356.003C309.324 366.009 297.866 393.691 307.873 417.831C317.879 441.971 345.56 453.429 369.7 443.423Z" fill="#A2DDFD"/>
<path d="M351.427 447.1C359.986 447.1 368.385 444.779 375.729 440.383C383.073 435.987 389.087 429.681 393.13 422.137C397.173 414.593 399.094 406.094 398.689 397.544C398.283 388.995 395.566 380.715 390.827 373.588L325.227 439.188C332.984 444.363 342.103 447.118 351.427 447.104V447.1Z" fill="#7ACDF9"/>
<path d="M351.427 454.6C340.586 454.6 329.988 451.385 320.974 445.362C311.959 439.339 304.933 430.778 300.785 420.762C296.636 410.746 295.55 399.724 297.665 389.091C299.78 378.458 305.001 368.691 312.667 361.025C320.333 353.359 330.1 348.138 340.733 346.023C351.366 343.908 362.388 344.994 372.404 349.143C382.42 353.291 390.981 360.317 397.004 369.331C403.027 378.346 406.242 388.944 406.242 399.785C406.226 414.318 400.445 428.251 390.169 438.527C379.893 448.803 365.96 454.584 351.427 454.6ZM351.427 359.969C343.552 359.969 335.855 362.304 329.307 366.679C322.76 371.054 317.656 377.272 314.643 384.547C311.629 391.823 310.841 399.828 312.377 407.552C313.913 415.275 317.705 422.369 323.274 427.937C328.842 433.506 335.936 437.298 343.66 438.834C351.383 440.37 359.388 439.582 366.664 436.568C373.939 433.555 380.157 428.452 384.532 421.904C388.907 415.356 391.242 407.659 391.242 399.784C391.23 389.228 387.032 379.108 379.567 371.644C372.103 364.18 361.983 359.981 351.427 359.969Z" fill="#6A95D6"/>
</svg>
