<svg width="512" height="512" viewBox="0 0 512 512" fill="none" xmlns="http://www.w3.org/2000/svg">
<path d="M94.1678 119.861C128.326 119.861 156.016 94.4174 156.016 63.0311C156.016 31.6447 128.326 6.20105 94.1678 6.20105C60.0101 6.20105 32.3198 31.6447 32.3198 63.0311C32.3198 94.4174 60.0101 119.861 94.1678 119.861Z" fill="#383C43"/>
<path d="M443.201 292.406C474.214 291.476 498.601 265.581 497.671 234.568C496.741 203.555 470.846 179.169 439.833 180.099C408.82 181.029 384.433 206.924 385.363 237.937C386.293 268.95 412.188 293.336 443.201 292.406Z" fill="#FFBE9D"/>
<path d="M113.991 237.993C114.921 206.98 90.5342 181.085 59.5213 180.155C28.5084 179.225 2.61348 203.611 1.68328 234.624C0.753093 265.637 25.1399 291.532 56.1528 292.462C87.1656 293.393 113.061 269.006 113.991 237.993Z" fill="#FFD3BD"/>
<path d="M396.176 512C399.052 512.01 401.897 511.407 404.521 510.229C407.145 509.052 409.487 507.328 411.391 505.172C413.295 503.017 414.717 500.48 415.562 497.731C416.407 494.982 416.656 492.085 416.291 489.232C410.781 448.913 390.852 411.956 360.191 385.2C329.53 358.444 290.214 343.702 249.521 343.702C208.828 343.702 169.512 358.444 138.851 385.2C108.19 411.956 88.2608 448.913 82.751 489.232C82.3863 492.085 82.6348 494.982 83.4798 497.731C84.3249 500.48 85.747 503.017 87.6511 505.172C89.5552 507.328 91.8975 509.052 94.5213 510.229C97.1452 511.407 99.9901 512.01 102.866 512H396.176Z" fill="#FCF2D0"/>
<path d="M202.695 411.888H296.347V512H202.695V411.888Z" fill="#8DAEE1"/>
<path d="M333.633 343.7C333.633 343.7 327.523 384.434 313.266 408.365C299.009 432.296 268.458 444.011 249.521 444.011C230.584 444.011 200.033 432.3 185.777 408.369C171.521 384.438 165.41 343.7 165.41 343.7H333.633Z" fill="#FFD3BD"/>
<path d="M192.121 351.411L234.075 512H193.587L147.521 456.668C145.07 453.725 143.679 450.044 143.57 446.216C143.461 442.387 144.641 438.633 146.921 435.556L157.121 421.787C157.931 420.695 158.328 419.351 158.241 417.994C158.155 416.637 157.591 415.354 156.65 414.373L134.321 391.093C132.553 389.25 131.22 387.033 130.422 384.607C129.623 382.181 129.378 379.607 129.705 377.074C130.031 374.541 130.922 372.113 132.311 369.969C133.699 367.825 135.551 366.02 137.729 364.686L171.992 343.7L192.121 351.411Z" fill="#A2DDFD"/>
<path d="M306.921 351.411L264.967 512H305.455L351.521 456.668C353.972 453.725 355.363 450.044 355.472 446.216C355.581 442.387 354.401 438.633 352.121 435.556L341.921 421.787C341.111 420.695 340.714 419.351 340.801 417.994C340.887 416.637 341.451 415.354 342.392 414.373L364.724 391.093C366.492 389.25 367.825 387.034 368.624 384.607C369.423 382.181 369.668 379.607 369.341 377.074C369.014 374.54 368.124 372.113 366.735 369.969C365.346 367.825 363.494 366.02 361.316 364.686L327.05 343.7L306.921 351.411Z" fill="#A2DDFD"/>
<path d="M442.638 224.19C442.638 125.714 356.176 49.125 249.521 49.125C142.866 49.125 56.4038 125.714 56.4038 224.19C56.4038 322.666 142.866 400.7 249.521 400.7C356.176 400.7 442.638 322.666 442.638 224.19Z" fill="#FFD3BD"/>
<path d="M187.473 58.181C111.256 81.206 56.4038 145.756 56.4038 224.191C56.4038 322.667 142.866 400.7 249.521 400.7C275.964 400.768 302.181 395.832 326.789 386.152C89.8888 373.071 123.329 129.661 187.473 58.184V58.181Z" fill="#FFBE9D"/>
<path d="M350.389 164.014V130.641C362.273 145.355 394.918 197.641 425.948 228.206C434.277 236.406 448.348 231.264 449.619 219.643C460.451 120.248 383.629 34.6641 249.521 34.6641C115.413 34.6641 38.591 120.248 49.421 219.642C50.687 231.263 64.762 236.408 73.092 228.205C104.122 197.644 136.767 145.354 148.651 130.64V164.013C148.651 168.114 150.28 172.046 153.179 174.946C156.079 177.845 160.012 179.474 164.112 179.474H334.929C336.959 179.474 338.97 179.074 340.845 178.298C342.721 177.521 344.426 176.382 345.861 174.946C347.297 173.511 348.436 171.806 349.212 169.93C349.989 168.055 350.389 166.044 350.389 164.014Z" fill="#4E5660"/>
<path d="M138.926 308.878C161.463 308.878 179.733 294.329 179.733 276.381C179.733 258.433 161.463 243.884 138.926 243.884C116.389 243.884 98.1191 258.433 98.1191 276.381C98.1191 294.329 116.389 308.878 138.926 308.878Z" fill="#E7889D"/>
<path d="M360.116 308.878C382.653 308.878 400.923 294.329 400.923 276.381C400.923 258.433 382.653 243.884 360.116 243.884C337.579 243.884 319.309 258.433 319.309 276.381C319.309 294.329 337.579 308.878 360.116 308.878Z" fill="#E7889D"/>
<path d="M162.709 252.2C160.72 252.2 158.812 251.41 157.406 250.003C155.999 248.597 155.209 246.689 155.209 244.7V228.817C155.209 226.828 155.999 224.92 157.406 223.514C158.812 222.107 160.72 221.317 162.709 221.317C164.698 221.317 166.606 222.107 168.012 223.514C169.419 224.92 170.209 226.828 170.209 228.817V244.7C170.209 246.689 169.419 248.597 168.012 250.003C166.606 251.41 164.698 252.2 162.709 252.2Z" fill="#4E5660"/>
<path d="M249.521 262.528C244.111 262.526 238.764 261.365 233.84 259.123C228.917 256.88 224.531 253.608 220.979 249.528C220.324 248.787 219.821 247.923 219.501 246.987C219.181 246.051 219.049 245.061 219.114 244.074C219.178 243.086 219.437 242.122 219.876 241.235C220.314 240.348 220.924 239.557 221.67 238.907C222.416 238.257 223.283 237.761 224.221 237.447C225.159 237.134 226.15 237.009 227.137 237.08C228.124 237.151 229.087 237.417 229.97 237.861C230.854 238.306 231.641 238.922 232.286 239.672C234.429 242.138 237.077 244.116 240.05 245.471C243.023 246.826 246.252 247.527 249.52 247.527C252.787 247.527 256.017 246.826 258.99 245.471C261.963 244.116 264.611 242.138 266.754 239.672C268.061 238.172 269.91 237.254 271.895 237.117C273.879 236.981 275.836 237.639 277.336 238.946C278.835 240.253 279.754 242.102 279.89 244.087C280.027 246.071 279.369 248.028 278.062 249.528C274.51 253.609 270.125 256.881 265.201 259.123C260.278 261.366 254.931 262.527 249.521 262.528Z" fill="#4E5660"/>
<path d="M357.804 251.755C355.815 251.755 353.907 250.965 352.501 249.558C351.094 248.152 350.304 246.244 350.304 244.255C350.304 242.823 350.022 241.405 349.474 240.082C348.926 238.759 348.123 237.557 347.11 236.545C346.098 235.532 344.896 234.729 343.573 234.181C342.25 233.633 340.832 233.351 339.4 233.351C337.968 233.351 336.55 233.633 335.227 234.181C333.904 234.729 332.702 235.532 331.69 236.545C330.677 237.557 329.874 238.759 329.326 240.082C328.778 241.405 328.496 242.823 328.496 244.255C328.496 246.244 327.706 248.152 326.299 249.558C324.893 250.965 322.985 251.755 320.996 251.755C319.007 251.755 317.099 250.965 315.693 249.558C314.286 248.152 313.496 246.244 313.496 244.255C313.496 237.385 316.225 230.796 321.083 225.938C325.941 221.08 332.53 218.351 339.4 218.351C346.27 218.351 352.859 221.08 357.717 225.938C362.575 230.796 365.304 237.385 365.304 244.255C365.304 246.244 364.514 248.152 363.107 249.558C361.701 250.965 359.793 251.755 357.804 251.755Z" fill="#4E5660"/>
<path d="M59.1851 141.218H439.858C441.203 141.217 442.525 140.878 443.704 140.231C444.883 139.583 445.879 138.65 446.601 137.515C447.324 136.381 447.749 135.083 447.837 133.742C447.925 132.4 447.673 131.058 447.105 129.839C443.197 121.501 438.594 113.506 433.347 105.939C431.75 103.643 429.62 101.768 427.141 100.474C424.661 99.1805 421.905 98.5065 419.108 98.51H79.9341C77.1372 98.5065 74.3811 99.1805 71.9014 100.474C69.4217 101.768 67.2923 103.643 65.6951 105.939C60.4477 113.506 55.8455 121.501 51.9371 129.839C51.3691 131.058 51.1176 132.4 51.2057 133.742C51.2937 135.084 51.7186 136.382 52.441 137.516C53.1634 138.65 54.1601 139.584 55.3388 140.231C56.5176 140.878 57.8404 141.217 59.1851 141.218Z" fill="#8DAEE1"/>
<path d="M249.521 143.66C289.192 143.66 321.351 111.501 321.351 71.83C321.351 32.1594 289.192 0 249.521 0C209.85 0 177.691 32.1594 177.691 71.83C177.691 111.501 209.85 143.66 249.521 143.66Z" fill="#A2DDFD"/>
<path d="M273.642 80.5723C278.432 67.1987 271.473 52.4747 258.099 47.6852C244.726 42.8957 230.002 49.8545 225.212 63.228C220.423 76.6016 227.381 91.3256 240.755 96.1151C254.129 100.905 268.853 93.9458 273.642 80.5723Z" fill="#8DAEE1"/>
</svg>
