<svg width="512" height="512" viewBox="0 0 512 512" fill="none" xmlns="http://www.w3.org/2000/svg">
<path d="M424.65 276.88C452.426 276.88 474.942 254.364 474.942 226.588C474.942 198.813 452.426 176.296 424.65 176.296C396.875 176.296 374.358 198.813 374.358 226.588C374.358 254.364 396.875 276.88 424.65 276.88Z" fill="#B7856B"/>
<path d="M81.292 276.88C109.068 276.88 131.584 254.364 131.584 226.588C131.584 198.813 109.068 176.296 81.292 176.296C53.5165 176.296 31 198.813 31 226.588C31 254.364 53.5165 276.88 81.292 276.88Z" fill="#CB9D82"/>
<path d="M384.258 473.679C386.833 473.688 389.379 473.148 391.728 472.094C394.076 471.04 396.173 469.497 397.878 467.568C399.582 465.639 400.855 463.368 401.612 460.908C402.369 458.447 402.591 455.854 402.265 453.3C397.332 417.207 379.491 384.123 352.043 360.172C324.595 336.22 289.4 323.023 252.971 323.023C216.543 323.023 181.347 336.22 153.9 360.172C126.452 384.123 108.61 417.207 103.677 453.3C103.351 455.854 103.573 458.448 104.33 460.909C105.086 463.37 106.359 465.641 108.064 467.57C109.768 469.499 111.865 471.043 114.214 472.097C116.563 473.151 119.11 473.691 121.684 473.682L384.258 473.679Z" fill="#8DAEE1"/>
<path d="M254.724 440.186C258.714 439.243 261.184 435.244 260.24 431.255C259.297 427.265 255.299 424.795 251.309 425.738C247.319 426.681 244.85 430.68 245.793 434.67C246.736 438.66 250.735 441.129 254.724 440.186Z" fill="#4E5660"/>
<path d="M185.603 449.883H165.164C163.175 449.883 161.267 449.093 159.861 447.686C158.454 446.28 157.664 444.372 157.664 442.383C157.664 440.394 158.454 438.486 159.861 437.08C161.267 435.673 163.175 434.883 165.164 434.883H185.603C187.592 434.883 189.5 435.673 190.906 437.08C192.313 438.486 193.103 440.394 193.103 442.383C193.103 444.372 192.313 446.28 190.906 447.686C189.5 449.093 187.592 449.883 185.603 449.883Z" fill="#F6EE86"/>
<path d="M252.971 377.681C243.377 387.233 226.261 402.528 203.962 411.36C201.269 412.445 198.361 412.891 195.467 412.662C192.572 412.433 189.77 411.535 187.282 410.04C184.793 408.545 182.685 406.493 181.123 404.046C179.561 401.598 178.589 398.821 178.282 395.934C176.482 378.355 182.471 356.456 194.155 345.41L252.971 377.681Z" fill="#6A95D6"/>
<path d="M252.971 377.681C262.565 387.233 279.681 402.528 301.98 411.36C304.673 412.445 307.581 412.891 310.475 412.662C313.37 412.433 316.171 411.535 318.66 410.04C321.149 408.545 323.257 406.493 324.819 404.046C326.38 401.598 327.353 398.821 327.66 395.934C329.46 378.355 323.471 356.456 311.787 345.41L252.971 377.681Z" fill="#6A95D6"/>
<path d="M425.851 219.671C425.851 131.515 348.451 62.952 252.971 62.952C157.491 62.952 80.0908 131.514 80.0908 219.671C80.0908 307.828 157.491 377.681 252.971 377.681C348.451 377.681 425.851 307.827 425.851 219.671Z" fill="#CB9D82"/>
<path d="M197.425 71.057C129.195 91.669 80.0908 149.455 80.0908 219.671C80.0908 307.827 157.491 377.681 252.971 377.681C276.643 377.742 300.112 373.323 322.141 364.657C110.07 352.947 140.001 135.044 197.424 71.057H197.425Z" fill="#B7856B"/>
<path d="M159.768 285.71C178.759 285.71 194.155 273.45 194.155 258.326C194.155 243.202 178.759 230.942 159.768 230.942C140.776 230.942 125.381 243.202 125.381 258.326C125.381 273.45 140.776 285.71 159.768 285.71Z" fill="white"/>
<path d="M346.156 285.71C365.147 285.71 380.543 273.45 380.543 258.326C380.543 243.202 365.147 230.942 346.156 230.942C327.164 230.942 311.769 243.202 311.769 258.326C311.769 273.45 327.164 285.71 346.156 285.71Z" fill="white"/>
<path d="M179.808 239.465C177.818 239.465 175.911 238.675 174.504 237.268C173.098 235.862 172.308 233.954 172.308 231.965V217.908C172.308 215.919 173.098 214.011 174.504 212.605C175.911 211.198 177.818 210.408 179.808 210.408C181.797 210.408 183.704 211.198 185.111 212.605C186.517 214.011 187.308 215.919 187.308 217.908V231.965C187.308 232.95 187.114 233.925 186.737 234.835C186.36 235.745 185.807 236.572 185.111 237.268C184.414 237.965 183.588 238.517 182.678 238.894C181.768 239.271 180.793 239.465 179.808 239.465Z" fill="#4E5660"/>
<path d="M326.114 239.465C324.125 239.465 322.217 238.675 320.811 237.268C319.404 235.862 318.614 233.954 318.614 231.965V217.908C318.614 215.919 319.404 214.011 320.811 212.605C322.217 211.198 324.125 210.408 326.114 210.408C328.103 210.408 330.011 211.198 331.418 212.605C332.824 214.011 333.614 215.919 333.614 217.908V231.965C333.614 232.95 333.42 233.925 333.043 234.835C332.666 235.745 332.114 236.572 331.418 237.268C330.721 237.965 329.894 238.517 328.984 238.894C328.074 239.271 327.099 239.465 326.114 239.465Z" fill="#4E5660"/>
<path d="M252.962 247.833C248.235 247.832 243.563 246.817 239.261 244.858C234.958 242.899 231.126 240.04 228.022 236.475C227.368 235.734 226.867 234.87 226.548 233.934C226.229 232.999 226.098 232.009 226.163 231.022C226.227 230.036 226.487 229.072 226.925 228.186C227.364 227.3 227.974 226.509 228.719 225.859C229.464 225.21 230.331 224.714 231.268 224.401C232.206 224.087 233.196 223.962 234.183 224.033C235.169 224.103 236.131 224.368 237.015 224.812C237.898 225.256 238.685 225.871 239.33 226.62C241.025 228.571 243.12 230.135 245.471 231.207C247.823 232.279 250.378 232.834 252.962 232.834C255.547 232.834 258.101 232.279 260.453 231.207C262.805 230.135 264.899 228.571 266.594 226.62C267.241 225.877 268.028 225.27 268.91 224.831C269.792 224.393 270.752 224.132 271.735 224.065C272.717 223.997 273.703 224.124 274.637 224.438C275.571 224.751 276.434 225.246 277.176 225.893C277.919 226.54 278.526 227.327 278.965 228.209C279.403 229.091 279.664 230.051 279.731 231.033C279.799 232.016 279.672 233.002 279.358 233.936C279.045 234.87 278.55 235.732 277.903 236.475C274.799 240.04 270.966 242.899 266.664 244.858C262.362 246.817 257.689 247.832 252.962 247.833Z" fill="#4E5660"/>
<path d="M94.4224 106.788C53.0074 146.877 62.5504 195.188 73.8914 223.057C74.7379 225.161 76.0763 227.031 77.7945 228.511C79.5127 229.991 81.5607 231.038 83.7668 231.563C85.9729 232.089 88.2728 232.078 90.4737 231.531C92.6746 230.985 94.7125 229.918 96.4164 228.422C114.816 212.088 139.948 174.861 137.294 123.747L94.4224 106.788Z" fill="#4E5660"/>
<path d="M411.502 106.788C452.917 146.877 443.374 195.188 432.033 223.057C431.186 225.161 429.848 227.031 428.13 228.511C426.411 229.991 424.363 231.038 422.157 231.563C419.951 232.089 417.651 232.078 415.45 231.531C413.249 230.985 411.212 229.918 409.508 228.422C391.108 212.088 365.976 174.861 368.63 123.747L411.502 106.788Z" fill="#4E5660"/>
<path d="M252.962 161.659C323.081 161.659 401.313 144.376 428.37 137.846C429.723 137.52 430.999 136.928 432.12 136.104C433.242 135.28 434.189 134.24 434.904 133.046C435.62 131.852 436.09 130.527 436.287 129.149C436.484 127.771 436.405 126.367 436.053 125.02C419.008 60.17 337.597 13.1 252.962 13.1C168.327 13.1 86.9159 60.169 69.8709 125.02C69.5192 126.367 69.4396 127.771 69.6369 129.149C69.8341 130.527 70.3042 131.852 71.0195 133.046C71.7349 134.24 72.6813 135.28 73.8033 136.104C74.9253 136.928 76.2003 137.52 77.5539 137.846C104.611 144.376 182.841 161.659 252.962 161.659Z" fill="#F6EE86"/>
<path d="M167.473 29.323C119.002 48.441 80.9168 82.992 69.8728 125.023C69.5211 126.37 69.4416 127.774 69.6388 129.152C69.836 130.53 70.3061 131.855 71.0215 133.049C71.7369 134.243 72.6833 135.283 73.8052 136.107C74.9272 136.931 76.2023 137.523 77.5558 137.849C91.4408 141.2 118.806 147.383 151.633 152.609C146.5 127.009 143.141 60.365 167.475 29.326L167.473 29.323Z" fill="#EED076"/>
<path d="M289.031 12.621C289.027 9.82191 287.986 7.12341 286.111 5.04599C284.235 2.96857 281.656 1.6594 278.872 1.37099C261.647 -0.456345 244.277 -0.456345 227.052 1.37099C224.267 1.6594 221.689 2.96857 219.813 5.04599C217.937 7.12341 216.896 9.82191 216.893 12.621V153.156H289.031V12.621Z" fill="#EED076"/>
<path d="M252.962 181.385C289.031 181.385 336.888 174.311 354.293 152.605C343.952 144.428 306.547 119.379 252.962 119.379C199.377 119.379 161.972 144.428 151.631 152.6C169.041 174.311 216.893 181.385 252.962 181.385Z" fill="#EED076"/>
<path d="M447.872 328.58L368.341 415.482C366.864 417.096 365.888 419.105 365.533 421.263C365.177 423.422 365.457 425.637 366.339 427.639C367.221 429.642 368.666 431.344 370.498 432.539C372.331 433.735 374.471 434.371 376.659 434.371H386.203C386.765 434.371 387.319 434.503 387.82 434.757C388.321 435.011 388.755 435.38 389.086 435.834C389.418 436.288 389.637 436.814 389.727 437.368C389.817 437.923 389.774 438.491 389.603 439.026L372.789 491.538C367.682 507.489 387.865 519.194 399.173 506.838L478.706 419.938C480.183 418.324 481.158 416.316 481.514 414.157C481.869 411.998 481.589 409.783 480.707 407.781C479.826 405.778 478.381 404.076 476.548 402.881C474.716 401.685 472.575 401.049 470.388 401.049H460.841C460.279 401.05 459.725 400.917 459.224 400.663C458.723 400.409 458.289 400.04 457.957 399.586C457.626 399.132 457.406 398.607 457.317 398.052C457.227 397.497 457.269 396.929 457.441 396.394L474.254 343.882C479.364 327.929 459.18 316.224 447.872 328.58Z" fill="#EED076"/>
</svg>
