<svg width="512" height="512" viewBox="0 0 512 512" fill="none" xmlns="http://www.w3.org/2000/svg">
<path d="M190.916 512H81.2324C82.5924 467.065 98.1554 433.717 114.591 410.778H190.916V512Z" fill="#475066"/>
<path d="M367.581 410.778C384.017 433.717 399.581 467.066 400.94 512H291.256V410.778H367.581Z" fill="#475066"/>
<path d="M316.255 371.159L303.155 469.48L241.086 512L176.198 469.48L179.867 445L165.918 371.16L316.255 371.159Z" fill="white"/>
<path d="M336.87 472.777L291.256 512H241.086L263.786 469.48L307.073 445L336.87 472.777Z" fill="#CECECC"/>
<path d="M241.085 512H190.916L145.297 472.777L175.097 445L218.388 469.481L241.085 512Z" fill="#CECECC"/>
<path d="M367.58 410.778L307.072 445L263.781 469.48L316.254 371.16H327.576C327.576 371.16 348.192 383.73 367.576 410.778H367.58Z" fill="#DCDCDC"/>
<path d="M218.391 469.48L175.098 445L114.59 410.779C133.978 383.731 154.59 371.161 154.59 371.161H165.918L218.391 469.48Z" fill="#DCDCDC"/>
<path d="M477.205 144.63C468.826 137.739 459.724 124.19 459.724 97.847C459.724 87.2261 456.575 76.8438 450.674 68.0129C444.774 59.182 436.387 52.2991 426.574 48.2347C416.762 44.1702 405.965 43.1068 395.548 45.1788C385.131 47.2509 375.563 52.3653 368.053 59.8754C360.543 67.3854 355.428 76.9539 353.356 87.3706C351.284 97.7874 352.347 108.585 356.412 118.397C360.476 128.209 367.359 136.596 376.19 142.497C385.021 148.398 395.403 151.547 406.024 151.547V180.88C441.602 187.073 463.978 177.12 476.777 167.167C478.487 165.843 479.879 164.153 480.849 162.22C481.82 160.288 482.345 158.162 482.386 156C482.426 153.838 481.982 151.694 481.084 149.726C480.187 147.759 478.86 146.017 477.201 144.63H477.205Z" fill="#DE8957"/>
<path d="M71.0801 236.878H436.451C436.451 129.152 348.81 41.511 241.084 41.511C206.507 41.5352 172.554 50.7296 142.689 68.1566C112.825 85.5835 88.1163 110.619 71.0841 140.711L71.0801 236.878Z" fill="#E3986D"/>
<path d="M400.943 278.982C424.197 278.982 443.048 260.131 443.048 236.877C443.048 213.623 424.197 194.772 400.943 194.772C377.689 194.772 358.838 213.623 358.838 236.877C358.838 260.131 377.689 278.982 400.943 278.982Z" fill="#FFCABD"/>
<path d="M251.758 41.806C248.225 41.6153 244.667 41.5153 241.086 41.506C206.509 41.5302 172.556 50.7246 142.691 68.1516C112.827 85.5785 88.1182 110.614 71.0859 140.706V236.878H114.112C116.814 147.975 173.09 72.555 251.758 41.806Z" fill="#DE8957"/>
<path d="M91.2552 71.2999V231.12H50.9062V71.2999L71.0802 43.1489L91.2552 71.2999Z" fill="#FF6F7F"/>
<path d="M81.228 288.105C109.52 288.105 132.456 265.169 132.456 236.877C132.456 208.584 109.52 185.649 81.228 185.649C52.9356 185.649 30 208.584 30 236.877C30 265.169 52.9356 288.105 81.228 288.105Z" fill="#3B4556"/>
<path d="M91.2557 35.179V71.3H50.9068V35.179C50.888 32.5177 51.396 29.879 52.4015 27.4148C53.4069 24.9507 54.89 22.7099 56.7652 20.8214C58.6405 18.9329 60.8708 17.4341 63.3278 16.4113C65.7848 15.3885 68.4199 14.8619 71.0812 14.8619C73.7426 14.8619 76.3777 15.3885 78.8347 16.4113C81.2917 17.4341 83.522 18.9329 85.3973 20.8214C87.2725 22.7099 88.7556 24.9507 89.761 27.4148C90.7665 29.879 91.2745 32.5177 91.2557 35.179Z" fill="#3B4556"/>
<path d="M400.918 234.062C400.411 204.862 389.856 176.571 369.984 155.172C347.695 131.172 309.979 111.055 253.784 143.905C249.991 146.162 245.664 147.367 241.25 147.397C236.836 147.427 232.494 146.28 228.67 144.075C172.357 111.009 134.563 131.101 112.23 155.122C92.5971 176.243 81.9761 204.11 81.2761 232.941C81.2301 234.836 81.2175 236.74 81.2381 238.651C82.1831 325.32 152.93 395.942 239.601 396.729C260.718 396.925 281.664 392.935 301.23 384.99C320.796 377.044 338.594 365.301 353.596 350.438C368.598 335.575 380.506 317.887 388.632 298.395C396.759 278.904 400.943 257.996 400.943 236.878C400.943 235.937 400.935 234.999 400.918 234.062Z" fill="#FFDCCE"/>
<path d="M113.997 243.588C113.936 204.267 124.632 165.679 144.926 132C131.64 137.28 120.798 145.91 112.233 155.123C92.5971 176.243 81.9761 204.11 81.2761 232.941C81.2301 234.836 81.2175 236.74 81.2381 238.651C81.8501 294.826 111.793 344.251 156.383 372.296C128.789 335.064 113.926 289.931 113.997 243.588Z" fill="#FFCABD"/>
<path d="M145.327 289.818C164.841 289.818 180.66 277.221 180.66 261.681C180.66 246.141 164.841 233.544 145.327 233.544C125.813 233.544 109.994 246.141 109.994 261.681C109.994 277.221 125.813 289.818 145.327 289.818Z" fill="#FFA0AB"/>
<path d="M336.845 289.818C356.359 289.818 372.178 277.221 372.178 261.681C372.178 246.141 356.359 233.544 336.845 233.544C317.331 233.544 301.512 246.141 301.512 261.681C301.512 277.221 317.331 289.818 336.845 289.818Z" fill="#FFA0AB"/>
<path d="M165.92 242.1C163.931 242.1 162.023 241.31 160.617 239.903C159.21 238.497 158.42 236.589 158.42 234.6V220.151C158.42 218.162 159.21 216.254 160.617 214.848C162.023 213.441 163.931 212.651 165.92 212.651C167.909 212.651 169.817 213.441 171.223 214.848C172.63 216.254 173.42 218.162 173.42 220.151V234.6C173.42 236.589 172.63 238.497 171.223 239.903C169.817 241.31 167.909 242.1 165.92 242.1Z" fill="#303646"/>
<path d="M316.252 242.1C314.263 242.1 312.355 241.31 310.949 239.903C309.542 238.497 308.752 236.589 308.752 234.6V220.151C308.752 218.162 309.542 216.254 310.949 214.848C312.355 213.441 314.263 212.651 316.252 212.651C318.241 212.651 320.149 213.441 321.555 214.848C322.962 216.254 323.752 218.162 323.752 220.151V234.6C323.752 236.589 322.962 238.497 321.555 239.903C320.149 241.31 318.241 242.1 316.252 242.1Z" fill="#303646"/>
<path d="M241.084 250.693C236.256 250.692 231.485 249.656 227.091 247.655C222.697 245.654 218.784 242.734 215.613 239.093C214.966 238.35 214.472 237.488 214.158 236.554C213.844 235.62 213.718 234.634 213.785 233.651C213.853 232.669 214.113 231.709 214.552 230.827C214.99 229.945 215.598 229.158 216.34 228.511C217.083 227.864 217.946 227.369 218.879 227.056C219.813 226.742 220.799 226.615 221.782 226.683C222.765 226.75 223.724 227.011 224.606 227.449C225.488 227.888 226.275 228.495 226.922 229.238C228.684 231.265 230.859 232.89 233.303 234.004C235.746 235.118 238.4 235.694 241.085 235.694C243.771 235.694 246.425 235.118 248.868 234.004C251.311 232.89 253.487 231.265 255.248 229.238C255.895 228.495 256.682 227.888 257.564 227.449C258.446 227.011 259.406 226.75 260.389 226.683C261.371 226.615 262.358 226.742 263.291 227.056C264.225 227.369 265.088 227.864 265.83 228.511C266.573 229.158 267.181 229.945 267.619 230.827C268.058 231.709 268.318 232.669 268.385 233.651C268.453 234.634 268.326 235.62 268.013 236.554C267.699 237.488 267.204 238.35 266.557 239.093C263.387 242.734 259.472 245.654 255.078 247.655C250.684 249.656 245.913 250.692 241.084 250.693Z" fill="#303646"/>
</svg>
