<svg width="512" height="512" viewBox="0 0 512 512" fill="none" xmlns="http://www.w3.org/2000/svg">
<path d="M486.982 308.536C486.982 293.745 481.106 279.559 470.647 269.1C460.188 258.64 446.002 252.765 431.211 252.765C416.419 252.765 402.233 258.64 391.774 269.1C381.315 279.559 375.439 293.745 375.439 308.536C375.439 308.868 375.458 309.194 375.464 309.524C366.154 315.605 358.672 324.102 353.818 334.107C348.964 344.112 346.921 355.248 347.907 366.324C348.892 377.4 352.87 388 359.414 396.991C365.959 405.981 374.824 413.023 385.061 417.365C395.299 421.707 406.524 423.184 417.536 421.639C428.548 420.094 438.933 415.585 447.581 408.594C456.229 401.603 462.814 392.393 466.632 381.949C470.45 371.505 471.357 360.22 469.257 349.3C474.856 344.09 479.32 337.78 482.37 330.766C485.42 323.752 486.99 316.184 486.982 308.536Z" fill="#E7889D"/>
<path d="M434.97 276.106C463.696 276.106 486.982 252.819 486.982 224.094C486.982 195.369 463.696 172.082 434.97 172.082C406.245 172.082 382.958 195.369 382.958 224.094C382.958 252.819 406.245 276.106 434.97 276.106Z" fill="#FFBE9D"/>
<path d="M25.7961 308.536C25.7961 293.745 31.6721 279.559 42.1312 269.1C52.5904 258.64 66.7761 252.765 81.5676 252.765C96.3592 252.765 110.545 258.64 121.004 269.1C131.463 279.559 137.339 293.745 137.339 308.536C137.339 308.868 137.32 309.194 137.314 309.524C146.624 315.605 154.106 324.102 158.96 334.107C163.814 344.112 165.857 355.248 164.872 366.324C163.886 377.4 159.908 388 153.364 396.991C146.819 405.981 137.954 413.023 127.717 417.365C117.48 421.707 106.254 423.184 95.2423 421.639C84.2301 420.094 73.8449 415.585 65.1972 408.594C56.5495 401.603 49.9645 392.393 46.1465 381.949C42.3285 371.505 41.4211 360.22 43.5211 349.3C37.9221 344.09 33.458 337.78 30.4082 330.766C27.3584 323.752 25.7883 316.184 25.7961 308.536Z" fill="#E7889D"/>
<path d="M77.8081 276.106C106.534 276.106 129.82 252.819 129.82 224.094C129.82 195.369 106.534 172.082 77.8081 172.082C49.0827 172.082 25.7961 195.369 25.7961 224.094C25.7961 252.819 49.0827 276.106 77.8081 276.106Z" fill="#FFD3BD"/>
<path d="M382.304 463.7C384.773 463.709 387.216 463.19 389.469 462.179C391.721 461.168 393.732 459.688 395.367 457.837C397.002 455.987 398.223 453.809 398.949 451.448C399.674 449.088 399.887 446.6 399.574 444.151C394.844 409.534 377.733 377.802 351.408 354.83C325.083 331.858 291.327 319.2 256.389 319.2C221.45 319.2 187.694 331.858 161.369 354.83C135.044 377.802 117.933 409.534 113.203 444.151C112.89 446.6 113.103 449.088 113.829 451.448C114.554 453.809 115.775 455.987 117.41 457.837C119.045 459.688 121.056 461.168 123.309 462.179C125.561 463.19 128.004 463.709 130.473 463.7H382.304Z" fill="#FBF1CF"/>
<path d="M173.558 333.863H206.189V421.324H173.558V333.863Z" fill="#8DAEE1"/>
<path d="M339.225 421.324H306.599V333.863H339.225V421.324Z" fill="#8DAEE1"/>
<path d="M173.558 421.324H339.22V463.7H173.558V421.324Z" fill="#A2DDFD"/>
<path d="M435.181 212.916C435.181 121.745 355.133 50.837 256.389 50.837C157.645 50.837 77.5971 121.745 77.5971 212.916C77.5971 304.087 157.645 376.33 256.389 376.33C355.133 376.33 435.181 304.087 435.181 212.916Z" fill="#FFD3BD"/>
<path d="M198.943 59.22C128.379 80.537 77.5961 140.3 77.5961 212.916C77.5961 304.087 157.644 376.33 256.389 376.33C280.871 376.393 305.143 371.823 327.925 362.861C108.601 350.751 139.557 125.4 198.943 59.22Z" fill="#FFBE9D"/>
<path d="M152.218 289.593C173.446 289.593 190.655 275.889 190.655 258.984C190.655 242.079 173.446 228.375 152.218 228.375C130.99 228.375 113.781 242.079 113.781 258.984C113.781 275.889 130.99 289.593 152.218 289.593Z" fill="#E7889D"/>
<path d="M360.559 289.593C381.787 289.593 398.996 275.889 398.996 258.984C398.996 242.079 381.787 228.375 360.559 228.375C339.331 228.375 322.122 242.079 322.122 258.984C322.122 275.889 339.331 289.593 360.559 289.593Z" fill="#E7889D"/>
<path d="M192.914 233.176C190.925 233.176 189.017 232.386 187.611 230.979C186.204 229.573 185.414 227.665 185.414 225.676C185.414 222.813 184.277 220.067 182.252 218.043C180.228 216.018 177.482 214.881 174.619 214.881C171.756 214.881 169.01 216.018 166.986 218.043C164.961 220.067 163.824 222.813 163.824 225.676C163.824 227.665 163.034 229.573 161.627 230.979C160.221 232.386 158.313 233.176 156.324 233.176C154.335 233.176 152.427 232.386 151.021 230.979C149.614 229.573 148.824 227.665 148.824 225.676C148.824 218.835 151.542 212.274 156.379 207.436C161.217 202.599 167.778 199.881 174.619 199.881C181.46 199.881 188.021 202.599 192.859 207.436C197.696 212.274 200.414 218.835 200.414 225.676C200.414 227.665 199.624 229.573 198.217 230.979C196.811 232.386 194.903 233.176 192.914 233.176Z" fill="#4E5660"/>
<path d="M356.453 233.176C354.464 233.176 352.556 232.386 351.15 230.979C349.743 229.573 348.953 227.665 348.953 225.676C348.868 222.87 347.693 220.207 345.678 218.253C343.663 216.298 340.966 215.205 338.158 215.205C335.351 215.205 332.654 216.298 330.638 218.253C328.623 220.207 327.449 222.87 327.363 225.676C327.363 227.665 326.573 229.573 325.166 230.979C323.76 232.386 321.852 233.176 319.863 233.176C317.874 233.176 315.966 232.386 314.56 230.979C313.153 229.573 312.363 227.665 312.363 225.676C312.496 218.923 315.272 212.491 320.095 207.762C324.918 203.033 331.404 200.384 338.158 200.384C344.913 200.384 351.398 203.033 356.221 207.762C361.044 212.491 363.82 218.923 363.953 225.676C363.953 227.665 363.163 229.573 361.756 230.979C360.35 232.386 358.442 233.176 356.453 233.176Z" fill="#4E5660"/>
<path d="M256.389 263.4C251.639 263.399 246.944 262.379 242.621 260.411C238.298 258.442 234.447 255.569 231.328 251.987C230.021 250.487 229.364 248.53 229.5 246.545C229.636 244.561 230.555 242.712 232.055 241.405C233.555 240.098 235.512 239.441 237.497 239.577C239.481 239.713 241.33 240.632 242.637 242.132C244.347 244.099 246.46 245.677 248.832 246.758C251.204 247.839 253.78 248.399 256.387 248.399C258.994 248.399 261.57 247.839 263.943 246.758C266.315 245.677 268.427 244.099 270.137 242.132C270.784 241.389 271.571 240.782 272.453 240.343C273.335 239.905 274.295 239.644 275.278 239.577C276.26 239.509 277.247 239.636 278.18 239.95C279.114 240.263 279.977 240.758 280.719 241.405C281.462 242.052 282.07 242.839 282.508 243.721C282.946 244.603 283.207 245.563 283.274 246.545C283.342 247.528 283.215 248.514 282.901 249.448C282.588 250.382 282.093 251.244 281.446 251.987C278.327 255.569 274.477 258.441 270.155 260.41C265.833 262.378 261.139 263.398 256.389 263.4Z" fill="#4E5660"/>
<path d="M78.8391 133.768C60.3721 165.509 64.9591 200.268 73.0231 220.412C73.6471 222.004 74.6048 223.443 75.8319 224.634C77.059 225.824 78.5269 226.738 80.1368 227.313C81.7467 227.889 83.4612 228.112 85.1649 227.969C86.8685 227.826 88.5217 227.32 90.0131 226.484C107.665 216.374 133.913 189.352 149.171 148.535L78.8391 133.768Z" fill="#E7889D"/>
<path d="M433.939 133.768C452.406 165.509 447.819 200.268 439.755 220.412C439.131 222.004 438.173 223.443 436.946 224.634C435.719 225.824 434.251 226.738 432.641 227.313C431.032 227.889 429.317 228.112 427.613 227.969C425.91 227.826 424.257 227.32 422.765 226.484C405.113 216.374 378.87 189.352 363.607 148.535L433.939 133.768Z" fill="#E7889D"/>
<path d="M256.389 164.822C298.689 164.822 438.016 151.532 438.016 151.532C429.253 61.086 347.736 0 256.389 0C165.042 0 83.5251 61.086 74.7621 151.532C74.7621 151.532 214.089 164.822 256.389 164.822Z" fill="#E0B799"/>
<path d="M74.7621 151.532C74.7621 151.532 144.168 158.152 199.88 162.048C170.451 137.891 160.427 57.0999 187.453 12.1219C127.174 34.1999 81.2191 84.892 74.7621 151.532Z" fill="#D1986F"/>
<path d="M438.016 151.532C435.22 121.882 424.061 93.6356 405.838 70.08C366.376 75.545 317.369 79.521 256.389 79.521C195.409 79.521 146.402 75.545 106.941 70.08C88.7179 93.6354 77.559 121.882 74.7631 151.532C74.7631 151.532 214.089 164.822 256.389 164.822C298.689 164.822 438.016 151.532 438.016 151.532Z" fill="#F6EE86"/>
<path d="M171.68 76.712C147.657 75.044 126.157 72.741 106.94 70.08C88.7169 93.6354 77.5581 121.882 74.7621 151.532C74.7621 151.532 144.168 158.152 199.88 162.048C182.114 147.464 171.419 112.239 171.68 76.712Z" fill="#EED076"/>
<path d="M256.389 174.19C148.442 174.19 82.3121 160.767 41.9601 150.672C38.9342 149.922 36.0859 148.582 33.5784 146.729C31.0709 144.876 28.9534 142.548 27.3471 139.876C25.7408 137.204 24.6773 134.241 24.2174 131.157C23.7575 128.074 23.9103 124.93 24.667 121.906C25.4237 118.881 26.7694 116.036 28.6272 113.532C30.485 111.028 32.8183 108.916 35.4936 107.315C38.1689 105.714 41.1337 104.657 44.2182 104.203C47.3027 103.75 50.4463 103.909 53.4691 104.672C91.3891 114.159 153.677 126.772 256.389 126.772C359.101 126.772 421.389 114.159 459.308 104.672C462.331 103.909 465.475 103.75 468.559 104.203C471.644 104.657 474.608 105.714 477.284 107.315C479.959 108.916 482.292 111.028 484.15 113.532C486.008 116.036 487.354 118.881 488.11 121.906C488.867 124.93 489.02 128.074 488.56 131.157C488.1 134.241 487.036 137.204 485.43 139.876C483.824 142.548 481.706 144.876 479.199 146.729C476.691 148.582 473.843 149.922 470.817 150.672C430.467 160.772 364.337 174.19 256.39 174.19H256.389Z" fill="#E0B799"/>
<path d="M418.355 443.18C418.355 435.951 414.015 429.397 406.976 424.587C410.022 423.716 412.994 422.606 415.865 421.266C436.042 411.857 447.344 393.39 441.108 380.019C437.545 372.377 429.022 368.061 418.608 367.514C430.275 351.736 432.401 333.363 422.686 323.647C412.971 313.931 394.597 316.058 378.82 327.725C378.273 317.312 373.957 308.789 366.315 305.225C352.944 298.99 334.477 310.292 325.068 330.469C323.729 333.34 322.618 336.312 321.747 339.358C316.939 332.32 310.389 327.98 303.155 327.98C282.363 327.98 266.855 358.034 277.314 385.168C245.946 425.886 217.726 472.168 245.947 500.387C274.168 528.606 320.447 500.387 361.166 469.021C388.529 479.57 418.355 463.721 418.355 443.18Z" fill="#88D37F"/>
<path d="M301.227 452.579C299.745 452.578 298.296 452.137 297.064 451.313C295.832 450.489 294.871 449.318 294.304 447.948C293.737 446.579 293.589 445.072 293.878 443.618C294.166 442.164 294.88 440.828 295.927 439.779L351.64 384.066C352.335 383.365 353.162 382.807 354.074 382.426C354.985 382.045 355.962 381.848 356.95 381.846C357.938 381.844 358.916 382.036 359.829 382.413C360.742 382.79 361.572 383.344 362.27 384.042C362.968 384.741 363.522 385.57 363.899 386.483C364.276 387.396 364.469 388.374 364.467 389.362C364.465 390.35 364.268 391.327 363.887 392.238C363.506 393.15 362.949 393.977 362.247 394.672L306.534 450.385C305.838 451.083 305.011 451.635 304.1 452.012C303.189 452.389 302.213 452.581 301.227 452.579Z" fill="#5EC682"/>
</svg>
