<svg width="512" height="512" viewBox="0 0 512 512" fill="none" xmlns="http://www.w3.org/2000/svg">
<path d="M398.509 266.259C394.234 334.113 401.109 371.048 411.693 403.993C413.656 410.021 413.214 416.575 410.458 422.285C407.702 427.994 402.845 432.418 396.904 434.63C363.911 446.8 304.698 460.43 231.732 460.43C158.766 460.43 99.5528 446.8 66.5598 434.63C60.6183 432.418 55.7618 427.994 53.0057 422.285C50.2496 416.575 49.8071 410.021 51.7708 403.993C62.3548 371.049 69.2318 334.114 64.9548 266.259H398.509Z" fill="#4E5660"/>
<path d="M461.383 259.222C462.704 230.53 440.515 206.198 411.822 204.877C383.13 203.556 358.798 225.745 357.477 254.438C356.156 283.131 378.345 307.462 407.038 308.783C435.731 310.104 460.062 287.915 461.383 259.222Z" fill="#FFBE9D"/>
<path d="M56.6324 308.677C85.3249 307.384 107.537 283.077 106.245 254.384C104.952 225.692 80.6448 203.48 51.9523 204.772C23.2598 206.064 1.04768 230.372 2.34006 259.064C3.63244 287.757 27.94 309.969 56.6324 308.677Z" fill="#FFD3BD"/>
<path d="M367.49 512C370.152 512.01 372.786 511.452 375.216 510.362C377.645 509.272 379.813 507.676 381.576 505.681C383.339 503.686 384.655 501.337 385.437 498.792C386.219 496.247 386.448 493.564 386.11 490.923C381.009 453.601 362.56 419.389 334.178 394.622C305.795 369.855 269.401 356.208 231.732 356.208C194.062 356.208 157.668 369.855 129.286 394.622C100.903 419.389 82.4545 453.601 77.3539 490.923C77.0154 493.564 77.2448 496.247 78.0267 498.792C78.8085 501.337 80.1249 503.686 81.8877 505.681C83.6504 507.676 85.819 509.272 88.2482 510.362C90.6774 511.452 93.3114 512.01 95.9739 512H367.49Z" fill="#E7889D"/>
<path d="M210.089 370.777H253.375V512H210.089V370.777Z" fill="#F6EE86"/>
<path d="M95.9739 512C93.3114 512.01 90.6774 511.452 88.2482 510.362C85.819 509.272 83.6504 507.676 81.8877 505.681C80.1249 503.686 78.8085 501.337 78.0267 498.792C77.2448 496.247 77.0154 493.564 77.3539 490.923C80.738 465.918 90.1782 442.118 104.854 421.592C123.632 441.388 134.888 473.4 136.422 512H95.9739Z" fill="#F6EE86"/>
<path d="M367.49 512C370.152 512.01 372.786 511.452 375.216 510.362C377.645 509.272 379.813 507.676 381.576 505.681C383.339 503.686 384.655 501.337 385.437 498.792C386.219 496.247 386.448 493.564 386.11 490.923C382.726 465.918 373.286 442.118 358.61 421.592C339.832 441.388 328.576 473.4 327.042 512H367.49Z" fill="#F6EE86"/>
<path d="M410.5 245.576C410.5 154.417 330.463 83.519 231.732 83.519C133.001 83.519 52.9639 154.417 52.9639 245.576C52.9639 336.735 133.001 408.967 231.732 408.967C330.463 408.967 410.5 336.734 410.5 245.576Z" fill="#FFD3BD"/>
<path d="M174.294 91.9C103.74 113.214 52.9639 172.968 52.9639 245.575C52.9639 336.734 133.001 408.967 231.732 408.967C256.21 409.03 280.48 404.461 303.259 395.5C83.9639 383.391 114.916 158.067 174.294 91.9Z" fill="#FFBE9D"/>
<path d="M129.355 326.848C150.218 326.848 167.13 313.38 167.13 296.766C167.13 280.152 150.218 266.684 129.355 266.684C108.493 266.684 91.5801 280.152 91.5801 296.766C91.5801 313.38 108.493 326.848 129.355 326.848Z" fill="#E7889D"/>
<path d="M334.109 326.848C354.972 326.848 371.884 313.38 371.884 296.766C371.884 280.152 354.972 266.684 334.109 266.684C313.246 266.684 296.334 280.152 296.334 296.766C296.334 313.38 313.246 326.848 334.109 326.848Z" fill="#E7889D"/>
<path d="M169.35 271.532C167.361 271.532 165.453 270.742 164.047 269.335C162.64 267.929 161.85 266.021 161.85 264.032C161.85 261.253 160.746 258.587 158.781 256.622C156.815 254.656 154.15 253.552 151.37 253.552C148.591 253.552 145.925 254.656 143.96 256.622C141.994 258.587 140.89 261.253 140.89 264.032C140.89 266.021 140.1 267.929 138.693 269.335C137.287 270.742 135.379 271.532 133.39 271.532C131.401 271.532 129.493 270.742 128.087 269.335C126.68 267.929 125.89 266.021 125.89 264.032C125.89 257.274 128.575 250.793 133.353 246.015C138.131 241.236 144.612 238.552 151.37 238.552C158.128 238.552 164.609 241.236 169.387 246.015C174.166 250.793 176.85 257.274 176.85 264.032C176.85 266.021 176.06 267.929 174.653 269.335C173.247 270.742 171.339 271.532 169.35 271.532Z" fill="#4E5660"/>
<path d="M330.074 271.532C328.085 271.532 326.177 270.742 324.771 269.335C323.364 267.929 322.574 266.021 322.574 264.032C322.574 261.253 321.47 258.587 319.505 256.622C317.539 254.656 314.874 253.552 312.094 253.552C309.315 253.552 306.649 254.656 304.684 256.622C302.718 258.587 301.614 261.253 301.614 264.032C301.614 266.021 300.824 267.929 299.418 269.335C298.011 270.742 296.103 271.532 294.114 271.532C292.125 271.532 290.217 270.742 288.811 269.335C287.404 267.929 286.614 266.021 286.614 264.032C286.614 257.274 289.299 250.793 294.077 246.015C298.856 241.236 305.337 238.552 312.094 238.552C318.852 238.552 325.333 241.236 330.111 246.015C334.89 250.793 337.574 257.274 337.574 264.032C337.574 266.021 336.784 267.929 335.378 269.335C333.971 270.742 332.063 271.532 330.074 271.532Z" fill="#4E5660"/>
<path d="M231.732 301.236C227.045 301.235 222.413 300.229 218.148 298.286C213.882 296.344 210.083 293.51 207.005 289.975C205.712 288.474 205.066 286.521 205.208 284.545C205.349 282.569 206.267 280.729 207.761 279.427C209.255 278.126 211.203 277.468 213.18 277.598C215.157 277.727 217.002 278.634 218.313 280.12C219.982 282.04 222.043 283.58 224.358 284.635C226.673 285.691 229.187 286.237 231.731 286.237C234.275 286.237 236.79 285.691 239.105 284.635C241.42 283.58 243.481 282.04 245.15 280.12C246.457 278.62 248.306 277.701 250.29 277.565C252.275 277.429 254.232 278.086 255.732 279.393C257.232 280.7 258.151 282.549 258.287 284.533C258.423 286.518 257.766 288.475 256.459 289.975C253.381 293.51 249.582 296.344 245.316 298.286C241.051 300.229 236.419 301.235 231.732 301.236Z" fill="#4E5660"/>
<path d="M55.1599 166.529C50.7979 170.916 37.2229 224.66 49.8599 266.242C53.9939 279.849 71.9459 282.701 80.2329 271.142C96.1799 248.899 115.991 210.953 127.154 178.917L55.1599 166.529Z" fill="#4E5660"/>
<path d="M408.304 166.529C412.666 170.916 426.241 224.66 413.604 266.242C409.469 279.849 391.518 282.701 383.231 271.142C367.284 248.899 347.473 210.953 336.31 178.917L408.304 166.529Z" fill="#4E5660"/>
<path d="M418.858 163.059C376.964 76.621 314.284 8.97803 231.732 8.97803C149.18 8.97803 86.5 76.621 44.606 163.059H418.858Z" fill="#E7889D"/>
<path d="M151.181 32.49C107.197 59.518 71.589 107.39 44.606 163.059H141.406C127.354 123.072 135.906 62.4 151.18 32.49H151.181Z" fill="#E16E7E"/>
<path d="M244.225 2.44588e-07H219.238C214.358 2.44588e-07 209.678 1.93857 206.227 5.38924C202.776 8.8399 200.838 13.52 200.838 18.4V173.22H262.628V18.4C262.628 15.9834 262.152 13.5905 261.227 11.3579C260.302 9.12535 258.947 7.09681 257.238 5.38818C255.529 3.67954 253.5 2.32427 251.267 1.39976C249.034 0.475246 246.641 -0.000393762 244.225 2.44588e-07Z" fill="#E16E7E"/>
<path d="M231.732 163.737C273.557 163.737 287.16 106.277 290.917 81.237C291.413 78.0368 290.831 74.7625 289.261 71.9297C287.692 69.0969 285.225 66.8666 282.249 65.59C270.777 60.752 254.732 56.71 231.732 56.71C208.732 56.71 192.686 60.753 181.215 65.592C178.24 66.8696 175.773 69.1001 174.204 71.9326C172.635 74.7651 172.052 78.0389 172.547 81.239C176.304 106.277 189.907 163.737 231.732 163.737Z" fill="#F6EE86"/>
<path d="M231.732 203.832C178.008 203.832 77.9718 197.232 42.1428 189.817C38.6197 189.102 35.2726 187.698 32.2933 185.686C29.314 183.674 26.7613 181.094 24.7816 178.093C22.8018 175.092 21.4341 171.73 20.7567 168.199C20.0794 164.669 20.1057 161.039 20.8344 157.519C21.563 153.999 22.9796 150.657 25.0027 147.685C27.0259 144.713 29.6159 142.171 32.6241 140.202C35.6323 138.234 38.9996 136.879 42.5327 136.215C46.0658 135.551 49.6953 135.591 53.2128 136.333C82.2938 142.352 177.392 149.214 231.732 149.214C286.072 149.214 381.171 142.352 410.251 136.333C413.768 135.591 417.398 135.551 420.931 136.215C424.464 136.879 427.831 138.234 430.84 140.202C433.848 142.171 436.438 144.713 438.461 147.685C440.484 150.657 441.901 153.999 442.629 157.519C443.358 161.039 443.384 164.669 442.707 168.199C442.03 171.73 440.662 175.092 438.682 178.093C436.702 181.094 434.15 183.674 431.17 185.686C428.191 187.698 424.844 189.102 421.321 189.817C385.492 197.234 285.456 203.832 231.732 203.832Z" fill="#E16E7E"/>
<path d="M242.337 110.894H221.126C219.137 110.894 217.229 110.104 215.823 108.697C214.416 107.291 213.626 105.383 213.626 103.394C213.626 101.405 214.416 99.4973 215.823 98.0907C217.229 96.6842 219.137 95.894 221.126 95.894H242.337C244.326 95.894 246.234 96.6842 247.64 98.0907C249.047 99.4973 249.837 101.405 249.837 103.394C249.837 105.383 249.047 107.291 247.64 108.697C246.234 110.104 244.326 110.894 242.337 110.894Z" fill="#EED076"/>
</svg>
