<svg width="517" height="512" viewBox="0 0 517 512" fill="none" xmlns="http://www.w3.org/2000/svg">
<path d="M58.9913 284.303C86.1632 281.6 105.999 257.381 103.295 230.209C100.592 203.037 76.3729 183.201 49.201 185.905C22.0291 188.608 2.19357 212.827 4.89706 239.999C7.60056 267.171 31.8194 287.007 58.9913 284.303Z" fill="#FFD3BD"/>
<path d="M456.682 239.484C459.085 212.284 438.983 188.286 411.783 185.883C384.583 183.48 360.584 203.582 358.181 230.782C355.778 257.982 375.88 281.98 403.08 284.383C430.28 286.786 454.279 266.684 456.682 239.484Z" fill="#FFBE9D"/>
<path d="M61.9889 312.339C79.1235 312.339 93.0139 299.918 93.0139 284.597C93.0139 269.275 79.1235 256.855 61.9889 256.855C44.8542 256.855 30.9639 269.275 30.9639 284.597C30.9639 299.918 44.8542 312.339 61.9889 312.339Z" fill="#88D37F"/>
<path d="M399.545 312.339C416.679 312.339 430.57 299.918 430.57 284.597C430.57 269.275 416.679 256.855 399.545 256.855C382.41 256.855 368.52 269.275 368.52 284.597C368.52 299.918 382.41 312.339 399.545 312.339Z" fill="#88D37F"/>
<path d="M359.835 474.049C362.366 474.057 364.869 473.526 367.178 472.489C369.487 471.453 371.548 469.935 373.223 468.039C374.899 466.142 376.15 463.909 376.894 461.49C377.637 459.071 377.856 456.521 377.535 454.011C372.686 418.527 355.147 386.001 328.163 362.454C301.179 338.907 266.578 325.932 230.764 325.932C194.951 325.932 160.35 338.907 133.366 362.454C106.382 386.001 88.842 418.527 83.9932 454.011C83.6722 456.521 83.8908 459.071 84.6344 461.491C85.3779 463.91 86.6292 466.142 88.3047 468.039C89.9801 469.936 92.0412 471.453 94.35 472.49C96.6589 473.526 99.1624 474.058 101.693 474.049H359.835Z" fill="#F6EE86"/>
<path d="M359.835 474.049C362.366 474.057 364.869 473.526 367.178 472.489C369.487 471.453 371.548 469.935 373.223 468.039C374.899 466.142 376.15 463.909 376.894 461.49C377.637 459.071 377.856 456.521 377.535 454.011C372.686 418.527 355.147 386.001 328.163 362.454C301.179 338.907 266.578 325.932 230.764 325.932C194.951 325.932 160.35 338.907 133.366 362.454C106.382 386.001 88.842 418.527 83.9932 454.011C83.6722 456.521 83.8908 459.071 84.6344 461.491C85.3779 463.91 86.6292 466.142 88.3047 468.039C89.9801 469.936 92.0412 471.453 94.35 472.49C96.6589 473.526 99.1624 474.058 101.693 474.049H359.835Z" fill="#8DAEE1"/>
<path d="M300.406 349.759H161.129L173.529 426.353H288.001L300.406 349.759Z" fill="white"/>
<path d="M281.508 426.353H180.026L192.934 474.053H268.6L281.508 426.353Z" fill="#F6EE86"/>
<path d="M192.934 474.049C198.822 434.028 178.173 364.784 143.314 336.376C121.347 344.51 89.947 380.5 121.758 392.91C167.785 410.875 179.789 445.757 192.934 474.049Z" fill="#E0B799"/>
<path d="M268.6 474.049C262.712 434.028 283.361 364.784 318.22 336.376C340.183 344.51 371.585 380.496 339.776 392.91C293.747 410.875 281.747 445.757 268.6 474.049Z" fill="#E0B799"/>
<path d="M400.726 228.355C400.726 141.688 324.633 74.2839 230.767 74.2839C136.901 74.2839 60.8086 141.688 60.8086 228.355C60.8086 315.022 136.902 383.7 230.768 383.7C324.634 383.7 400.726 315.026 400.726 228.36V228.355Z" fill="#FFD3BD"/>
<path d="M176.16 82.252C109.082 102.516 60.8086 159.325 60.8086 228.352C60.8086 315.019 136.902 383.692 230.768 383.692C254.039 383.753 277.111 379.41 298.768 370.892C90.2806 359.379 119.707 145.158 176.16 82.252Z" fill="#FFBE9D"/>
<path d="M141.103 299.518C159.375 299.518 174.188 287.722 174.188 273.171C174.188 258.62 159.375 246.824 141.103 246.824C122.83 246.824 108.018 258.62 108.018 273.171C108.018 287.722 122.83 299.518 141.103 299.518Z" fill="#E7889D"/>
<path d="M320.432 299.518C338.704 299.518 353.517 287.722 353.517 273.171C353.517 258.62 338.704 246.824 320.432 246.824C302.159 246.824 287.347 258.62 287.347 273.171C287.347 287.722 302.159 299.518 320.432 299.518Z" fill="#E7889D"/>
<path d="M160.384 254.984C158.395 254.984 156.487 254.194 155.08 252.787C153.674 251.381 152.884 249.473 152.884 247.484V234.609C152.884 232.62 153.674 230.712 155.08 229.306C156.487 227.899 158.395 227.109 160.384 227.109C162.373 227.109 164.281 227.899 165.687 229.306C167.094 230.712 167.884 232.62 167.884 234.609V247.484C167.884 249.473 167.094 251.381 165.687 252.787C164.281 254.194 162.373 254.984 160.384 254.984Z" fill="#4E5660"/>
<path d="M230.767 263.36C226.177 263.359 221.642 262.374 217.466 260.472C213.29 258.569 209.57 255.794 206.557 252.333C205.897 251.592 205.392 250.728 205.068 249.791C204.745 248.853 204.611 247.861 204.674 246.871C204.737 245.882 204.996 244.915 205.435 244.026C205.874 243.137 206.485 242.343 207.232 241.692C207.98 241.041 208.849 240.544 209.79 240.231C210.731 239.918 211.724 239.794 212.713 239.867C213.702 239.941 214.667 240.209 215.551 240.658C216.435 241.106 217.222 241.725 217.866 242.48C219.47 244.326 221.452 245.806 223.677 246.82C225.903 247.834 228.32 248.359 230.766 248.359C233.211 248.359 235.628 247.834 237.854 246.82C240.079 245.806 242.061 244.326 243.666 242.48C244.311 241.731 245.097 241.116 245.981 240.672C246.864 240.228 247.827 239.963 248.813 239.893C249.799 239.822 250.79 239.947 251.727 240.26C252.665 240.574 253.531 241.07 254.277 241.719C255.022 242.369 255.632 243.16 256.07 244.046C256.509 244.932 256.768 245.896 256.833 246.882C256.898 247.869 256.767 248.858 256.448 249.794C256.129 250.73 255.628 251.593 254.974 252.335C251.96 255.795 248.241 258.57 244.065 260.472C239.89 262.373 235.355 263.358 230.767 263.36Z" fill="#4E5660"/>
<path d="M318.557 254.626C316.568 254.626 314.66 253.836 313.254 252.429C311.847 251.023 311.057 249.115 311.057 247.126C311.057 245.158 310.275 243.27 308.883 241.879C307.492 240.487 305.604 239.705 303.636 239.705C301.668 239.705 299.78 240.487 298.388 241.879C296.997 243.27 296.215 245.158 296.215 247.126C296.215 249.115 295.425 251.023 294.018 252.429C292.612 253.836 290.704 254.626 288.715 254.626C286.726 254.626 284.818 253.836 283.412 252.429C282.005 251.023 281.215 249.115 281.215 247.126C281.215 244.182 281.795 241.266 282.922 238.546C284.048 235.826 285.7 233.354 287.782 231.272C289.864 229.19 292.335 227.538 295.056 226.412C297.776 225.285 300.691 224.705 303.636 224.705C306.58 224.705 309.496 225.285 312.216 226.412C314.936 227.538 317.408 229.19 319.49 231.272C321.572 233.354 323.223 235.826 324.35 238.546C325.477 241.266 326.057 244.182 326.057 247.126C326.057 249.115 325.267 251.023 323.86 252.429C322.454 253.836 320.546 254.626 318.557 254.626Z" fill="#4E5660"/>
<path d="M46.7087 181.737C38.5756 204.508 42.7027 234.217 51.3727 254.767C56.7847 267.597 74.4627 268.847 81.8946 257.067C93.8167 238.177 107.346 207.267 111.431 175.53L46.7087 181.737Z" fill="#4E5660"/>
<path d="M414.825 181.737C422.959 204.508 418.83 234.217 410.161 254.767C404.749 267.597 387.071 268.847 379.638 257.067C367.716 238.177 354.187 207.267 350.102 175.53L414.825 181.737Z" fill="#4E5660"/>
<path d="M421.147 175.535C421.147 112.896 361.771 58.835 299.586 37.26C267.913 26.273 264.513 0 230.767 0C197.021 0 193.621 26.273 161.953 37.26C99.7676 58.836 40.3916 112.9 40.3916 175.535H421.147Z" fill="#6A95D6"/>
<path d="M230.767 126.541C284.267 126.541 374.2 138.498 422.822 154.641C425.801 155.63 428.392 157.533 430.228 160.078C432.063 162.624 433.051 165.683 433.049 168.821V195.083C433.047 197.409 432.502 199.702 431.457 201.781C430.413 203.859 428.898 205.665 427.033 207.055C425.168 208.445 423.005 209.381 420.715 209.788C418.425 210.195 416.071 210.062 413.841 209.4C363.759 194.693 281.121 184.1 230.767 184.1C180.413 184.1 97.7754 194.691 47.6934 209.4C45.4638 210.062 43.1105 210.195 40.8206 209.788C38.5307 209.381 36.3674 208.445 34.5025 207.055C32.6377 205.666 31.1228 203.86 30.0782 201.782C29.0336 199.704 28.4882 197.411 28.4854 195.085V168.821C28.484 165.683 29.4713 162.624 31.3071 160.078C33.143 157.533 35.734 155.63 38.7124 154.641C87.3344 138.498 177.27 126.541 230.767 126.541Z" fill="#8DAEE1"/>
<path d="M223.267 126.615V184.179C225.83 184.131 228.346 184.099 230.767 184.099C233.188 184.099 235.704 184.131 238.267 184.179V126.615C235.697 126.566 233.197 126.541 230.767 126.541C228.336 126.541 225.836 126.566 223.267 126.615Z" fill="#A2DDFD"/>
<path d="M117.394 194.444C122.363 193.648 127.363 192.89 132.394 192.171V134.612C127.37 135.328 122.37 136.085 117.394 136.882V194.444Z" fill="#A2DDFD"/>
<path d="M329.14 192.171C334.164 192.888 339.164 193.645 344.14 194.444V136.882C339.172 136.087 334.172 135.331 329.14 134.612V192.171Z" fill="#A2DDFD"/>
<path d="M352.806 486.689C365.594 499.477 378.732 506.889 389.924 511.04C391.966 511.799 394.147 512.111 396.32 511.954C398.493 511.798 400.608 511.176 402.52 510.131C404.432 509.087 406.097 507.644 407.403 505.9C408.71 504.157 409.626 502.153 410.091 500.024C414.999 477.624 415.764 451.783 401.738 437.757C387.712 423.731 361.868 424.497 339.471 429.404C337.342 429.869 335.338 430.785 333.594 432.091C331.851 433.398 330.408 435.063 329.363 436.975C328.319 438.887 327.697 441.001 327.54 443.174C327.384 445.347 327.695 447.529 328.455 449.571C332.612 460.762 340.019 473.901 352.806 486.689Z" fill="#6A95D6"/>
<path d="M495.608 417.027C469.059 443.576 406.473 473.416 386.276 453.219C366.079 433.022 395.918 370.437 422.468 343.887C449.018 317.337 482.036 317.064 502.234 337.261C522.432 357.458 522.158 390.477 495.608 417.027Z" fill="#A2DDFD"/>
<path d="M419.8 346.667C393.982 374.567 366.755 433.696 386.277 453.219C399.347 466.293 430.185 458.4 457.511 444C422.699 427.276 413.203 377.712 419.8 346.667Z" fill="#7ACDF9"/>
<path d="M468.326 374.193C467.341 374.193 466.366 373.999 465.457 373.622C464.547 373.244 463.721 372.691 463.026 371.993L462.135 371.101C460.77 369.686 460.015 367.791 460.033 365.825C460.051 363.858 460.84 361.977 462.231 360.587C463.623 359.197 465.504 358.41 467.471 358.393C469.437 358.377 471.331 359.134 472.745 360.501L473.636 361.393C474.684 362.442 475.397 363.778 475.686 365.232C475.975 366.686 475.826 368.193 475.259 369.562C474.692 370.932 473.732 372.103 472.499 372.927C471.267 373.751 469.819 374.192 468.336 374.193H468.326Z" fill="#4E5660"/>
</svg>
