<svg width="516" height="512" viewBox="0 0 516 512" fill="none" xmlns="http://www.w3.org/2000/svg">
<path d="M487.379 188.716C490.161 158.594 467.998 131.92 437.876 129.138C407.754 126.356 381.079 148.519 378.297 178.641C375.515 208.763 397.679 235.437 427.801 238.22C457.923 241.002 484.597 218.838 487.379 188.716Z" fill="#B7856B"/>
<path d="M62.9407 238.246C93.1035 235.947 115.691 209.631 113.392 179.468C111.093 149.306 84.7774 126.718 54.6146 129.017C24.4518 131.316 1.86386 157.632 4.16305 187.794C6.46224 217.957 32.7779 240.545 62.9407 238.246Z" fill="#CB9D82"/>
<path d="M384.727 464.077C387.454 464.087 390.152 463.514 392.639 462.398C395.127 461.281 397.348 459.646 399.154 457.603C400.959 455.559 402.308 453.154 403.109 450.547C403.91 447.94 404.146 445.193 403.8 442.488C398.578 404.256 379.682 369.209 350.609 343.837C321.536 318.465 284.255 304.485 245.668 304.485C207.081 304.485 169.8 318.465 140.727 343.837C111.654 369.209 92.7577 404.256 87.5361 442.488C87.1902 445.193 87.4257 447.941 88.2269 450.547C89.0282 453.154 90.3766 455.559 92.1821 457.603C93.9876 459.647 96.2086 461.281 98.6965 462.398C101.184 463.514 103.882 464.087 106.609 464.077H384.727Z" fill="#FBF1CF"/>
<path d="M147.851 337.99C155.308 379.758 156.285 430.913 153.532 464.077H337.804C335.051 430.913 336.028 379.758 343.485 337.99C328.783 326.56 312.188 317.798 294.457 312.104V328.604C294.457 380.776 262.234 392.994 245.668 392.994C229.102 392.994 196.879 380.776 196.879 328.604V312.104C179.148 317.798 162.554 326.56 147.851 337.99Z" fill="#A2DDFD"/>
<path d="M433.952 182.913C433.952 86.902 349.652 12.229 245.668 12.229C141.684 12.229 57.3838 86.896 57.3838 182.913C57.3838 278.93 141.684 355.002 245.668 355.002C349.652 355.002 433.952 278.924 433.952 182.913Z" fill="#CB9D82"/>
<path d="M185.173 21.058C110.863 43.506 57.3838 106.441 57.3838 182.913C57.3838 278.924 141.684 355.002 245.668 355.002C271.449 355.069 297.01 350.256 321.002 340.818C90.0348 328.065 122.634 90.746 185.173 21.058Z" fill="#B7856B"/>
<path d="M127.55 266.133C151.62 266.133 171.133 250.594 171.133 231.425C171.133 212.256 151.62 196.717 127.55 196.717C103.48 196.717 83.9668 212.256 83.9668 231.425C83.9668 250.594 103.48 266.133 127.55 266.133Z" fill="white"/>
<path d="M363.787 266.133C387.857 266.133 407.37 250.594 407.37 231.425C407.37 212.256 387.857 196.717 363.787 196.717C339.716 196.717 320.204 212.256 320.204 231.425C320.204 250.594 339.716 266.133 363.787 266.133Z" fill="white"/>
<path d="M152.95 205.514C150.961 205.514 149.053 204.724 147.646 203.317C146.24 201.911 145.45 200.003 145.45 198.014V180.196C145.45 178.207 146.24 176.299 147.646 174.893C149.053 173.486 150.961 172.696 152.95 172.696C154.939 172.696 156.846 173.486 158.253 174.893C159.66 176.299 160.45 178.207 160.45 180.196V198.012C160.45 198.997 160.256 199.973 159.879 200.883C159.503 201.793 158.95 202.62 158.254 203.317C157.557 204.013 156.73 204.566 155.82 204.943C154.91 205.32 153.935 205.514 152.95 205.514Z" fill="#4E5660"/>
<path d="M338.386 205.514C336.397 205.514 334.489 204.724 333.082 203.317C331.676 201.911 330.886 200.003 330.886 198.014V180.196C330.886 178.207 331.676 176.299 333.082 174.893C334.489 173.486 336.397 172.696 338.386 172.696C340.375 172.696 342.283 173.486 343.689 174.893C345.096 176.299 345.886 178.207 345.886 180.196V198.012C345.886 198.997 345.692 199.973 345.315 200.883C344.939 201.793 344.386 202.62 343.69 203.317C342.993 204.013 342.166 204.566 341.256 204.943C340.346 205.32 339.371 205.514 338.386 205.514Z" fill="#4E5660"/>
<path d="M245.668 216.12C239.962 216.118 234.324 214.894 229.131 212.529C223.939 210.164 219.314 206.714 215.568 202.411C214.272 200.91 213.624 198.957 213.765 196.979C213.906 195.001 214.824 193.159 216.319 191.857C217.814 190.554 219.764 189.896 221.743 190.028C223.721 190.159 225.567 191.068 226.877 192.557C229.214 195.245 232.101 197.401 235.343 198.878C238.584 200.355 242.105 201.119 245.667 201.119C249.23 201.119 252.75 200.355 255.992 198.878C259.234 197.401 262.121 195.245 264.458 192.557C265.765 191.057 267.614 190.138 269.598 190.002C271.583 189.865 273.54 190.523 275.04 191.83C276.54 193.137 277.459 194.986 277.595 196.97C277.731 198.955 277.074 200.912 275.767 202.412C272.02 206.715 267.395 210.165 262.203 212.53C257.011 214.894 251.372 216.119 245.667 216.121L245.668 216.12Z" fill="#4E5660"/>
<path d="M277.719 426.438H213.619C209.586 426.438 205.718 428.04 202.867 430.892C200.015 433.743 198.413 437.611 198.413 441.644V464.078H292.931V441.644C292.931 437.612 291.33 433.745 288.48 430.894C285.629 428.042 281.763 426.439 277.731 426.438H277.719Z" fill="#8DAEE1"/>
<path d="M315.357 473.218C314.925 468.198 316.506 463.212 319.75 459.357C322.994 455.502 327.637 453.093 332.657 452.661C375.02 449.02 403.813 410.212 430.738 383.287C434.304 379.736 439.133 377.745 444.165 377.75C449.197 377.755 454.022 379.756 457.58 383.315C461.139 386.873 463.14 391.698 463.145 396.73C463.15 401.762 461.159 406.591 457.608 410.157C429.18 438.585 394.439 485.492 335.908 490.522C330.888 490.952 325.903 489.37 322.049 486.125C318.196 482.88 315.788 478.238 315.357 473.218Z" fill="#88D37F"/>
<path d="M507.219 375.708C501.646 370.135 494.087 367.004 486.206 367.004C478.324 367.004 470.766 370.135 465.193 375.708L444.18 396.721L465.193 417.734C470.771 423.28 478.321 426.387 486.187 426.376C494.054 426.364 501.594 423.234 507.157 417.672C512.719 412.11 515.849 404.569 515.86 396.703C515.872 388.837 512.764 381.287 507.219 375.708Z" fill="#E16E7E"/>
<path d="M423.163 333.682C417.59 339.255 414.459 346.814 414.459 354.695C414.459 362.576 417.59 370.135 423.163 375.708L444.176 396.721L465.189 375.708C470.735 370.129 473.842 362.579 473.831 354.713C473.819 346.847 470.689 339.306 465.127 333.744C459.564 328.182 452.024 325.052 444.158 325.04C436.291 325.029 428.741 328.136 423.163 333.682Z" fill="#E7889D"/>
<path d="M381.136 417.734C386.709 423.307 394.268 426.438 402.149 426.438C410.03 426.438 417.589 423.307 423.162 417.734L444.175 396.721L423.162 375.708C417.583 370.162 410.033 367.055 402.167 367.066C394.301 367.078 386.76 370.208 381.198 375.77C375.636 381.332 372.506 388.873 372.494 396.739C372.483 404.605 375.59 412.155 381.136 417.734Z" fill="#E16E7E"/>
<path d="M465.189 459.76C470.762 454.187 473.893 446.628 473.893 438.747C473.893 430.866 470.762 423.307 465.189 417.734L444.176 396.721L423.163 417.734C417.617 423.313 414.509 430.863 414.521 438.729C414.533 446.595 417.663 454.136 423.225 459.698C428.787 465.26 436.328 468.39 444.194 468.402C452.06 468.413 459.61 465.306 465.189 459.76Z" fill="#E7889D"/>
<path d="M444.176 426.438C460.588 426.438 473.893 413.133 473.893 396.721C473.893 380.309 460.588 367.004 444.176 367.004C427.764 367.004 414.459 380.309 414.459 396.721C414.459 413.133 427.764 426.438 444.176 426.438Z" fill="#F6EE86"/>
<path d="M245.668 -0.00402832C178.732 -0.00402832 121.51 28.882 85.7281 71.786C83.7713 74.1209 82.4158 76.8993 81.7798 79.8787C81.1439 82.8581 81.2469 85.9478 82.0799 88.8782C82.9128 91.8086 84.4504 94.4906 86.5584 96.69C88.6664 98.8894 91.2807 100.539 94.1731 101.496C113.946 107.976 131.397 110.634 143.646 110.634L245.667 89.646L347.688 110.634C359.937 110.634 377.388 107.976 397.161 101.496C400.053 100.539 402.667 98.8892 404.774 96.6901C406.881 94.491 408.419 91.8095 409.252 88.8797C410.085 85.9499 410.188 82.8608 409.552 79.8819C408.917 76.903 407.562 74.1249 405.606 71.79C369.825 28.89 312.606 -2.76566e-05 245.668 -2.76566e-05V-0.00402832Z" fill="#F6EE86"/>
<path d="M245.668 101.802C279.095 101.802 306.193 86.2492 306.193 67.0639C306.193 47.8787 279.095 32.3259 245.668 32.3259C212.241 32.3259 185.143 47.8787 185.143 67.0639C185.143 86.2492 212.241 101.802 245.668 101.802Z" fill="white"/>
<path d="M85.7289 71.79C83.773 74.1249 82.4182 76.903 81.7828 79.8819C81.1473 82.8608 81.2506 85.9499 82.0835 88.8797C82.9164 91.8095 84.4536 94.491 86.5611 96.6901C88.6686 98.8892 91.2822 100.539 94.1739 101.496C113.947 107.976 131.398 110.634 143.647 110.634L172.562 104.686C155.321 90.648 153.47 39.758 164.033 15.486C133.68 27.4954 106.777 46.8401 85.7289 71.79Z" fill="#EED076"/>
<path d="M336.546 127.037C312.035 118.711 278.911 113.937 245.668 113.937C212.425 113.937 179.301 118.712 154.79 127.037C148.648 129.123 141.928 128.684 136.11 125.816C130.291 122.949 125.85 117.887 123.764 111.744C121.677 105.602 122.116 98.8826 124.984 93.064C127.852 87.2454 132.914 82.8044 139.056 80.7179C168.862 70.5939 206.724 65.0179 245.667 65.0179C284.61 65.0179 322.467 70.5939 352.278 80.7179C358.401 82.8196 363.44 87.2626 366.293 93.0733C369.146 98.8841 369.578 105.589 367.497 111.718C365.415 117.847 360.988 122.901 355.187 125.773C349.385 128.644 342.682 129.099 336.546 127.037Z" fill="#EED076"/>
</svg>
