<svg width="512" height="512" viewBox="0 0 512 512" fill="none" xmlns="http://www.w3.org/2000/svg">
<path d="M440.649 203.444C440.649 176.188 440.649 111.878 453.081 58.253C453.921 54.6609 453.372 50.8839 451.543 47.68C449.714 44.4762 446.741 42.0827 443.221 40.98C407.705 29.928 346.521 21.205 277.892 21.205C209.263 21.205 148.079 29.928 112.563 40.98C109.042 42.0821 106.068 44.4753 104.238 47.6792C102.409 50.8831 101.859 54.6605 102.7 58.253C115.132 111.878 115.132 176.188 115.132 203.444H440.649Z" fill="#D1986F"/>
<path d="M458.957 292.805C488.251 292.805 511.999 269.057 511.999 239.763C511.999 210.469 488.251 186.721 458.957 186.721C429.663 186.721 405.915 210.469 405.915 239.763C405.915 269.057 429.663 292.805 458.957 292.805Z" fill="#FFBE9D"/>
<path d="M96.8252 292.805C126.119 292.805 149.867 269.057 149.867 239.763C149.867 210.469 126.119 186.721 96.8252 186.721C67.5309 186.721 43.7832 210.469 43.7832 239.763C43.7832 269.057 67.5309 292.805 96.8252 292.805Z" fill="#FFD3BD"/>
<path d="M416.357 491.132C419.072 491.142 421.759 490.572 424.236 489.46C426.714 488.348 428.926 486.72 430.723 484.685C432.521 482.649 433.864 480.254 434.662 477.658C435.459 475.062 435.693 472.326 435.349 469.632C430.146 431.566 411.329 396.673 382.38 371.412C353.432 346.151 316.312 332.233 277.892 332.233C239.471 332.233 202.352 346.151 173.403 371.412C144.455 396.673 125.638 431.566 120.435 469.632C120.09 472.326 120.324 475.062 121.122 477.658C121.919 480.254 123.262 482.649 125.06 484.685C126.858 486.72 129.069 488.348 131.547 489.46C134.025 490.572 136.711 491.142 139.427 491.132H416.357Z" fill="#88D37F"/>
<path d="M344.627 346.78C336.244 397.193 318.68 429.349 288.027 448.561C285.017 450.446 281.536 451.446 277.984 451.446C274.432 451.446 270.952 450.446 267.942 448.561C237.291 429.349 219.726 397.193 211.342 346.78H344.627Z" fill="white"/>
<path d="M460.225 232.466C460.225 139.489 378.592 67.177 277.892 67.177C177.192 67.177 95.5586 139.49 95.5586 232.466C95.5586 325.442 177.192 399.116 277.892 399.116C378.592 399.116 460.225 325.444 460.225 232.466Z" fill="#FFD3BD"/>
<path d="M219.309 75.7281C147.348 97.4661 95.5586 158.412 95.5586 232.466C95.5586 325.443 177.192 399.116 277.892 399.116C302.858 399.18 327.611 394.52 350.845 385.38C127.178 373.03 158.745 143.213 219.309 75.7271V75.7281Z" fill="#FFBE9D"/>
<path d="M210.934 279.443C210.88 296.67 193.3 310.579 171.668 310.512C150.036 310.445 132.544 296.425 132.598 279.198C132.652 261.971 150.232 248.061 171.864 248.129C193.496 248.197 210.988 262.216 210.934 279.443Z" fill="#E7889D"/>
<path d="M344.9 279.866C344.846 297.093 362.339 311.112 383.97 311.18C405.601 311.248 423.182 297.338 423.236 280.111C423.29 262.884 405.798 248.864 384.165 248.796C362.532 248.728 344.956 262.636 344.9 279.866Z" fill="#E7889D"/>
<path d="M309.571 255.786C309.632 236.27 295.499 234.392 278.059 234.337C260.619 234.282 246.474 236.072 246.413 255.588C246.352 275.104 260.441 290.969 277.882 291.024C295.323 291.079 309.51 275.302 309.571 255.786Z" fill="#4E5660"/>
<path d="M213.343 253.008H213.319C212.334 253.005 211.359 252.808 210.45 252.428C209.542 252.049 208.716 251.494 208.022 250.795C207.328 250.096 206.778 249.268 206.404 248.357C206.03 247.446 205.839 246.47 205.842 245.485C205.846 244.022 205.563 242.572 205.007 241.218C204.451 239.864 203.635 238.633 202.603 237.595C201.572 236.557 200.346 235.733 198.996 235.168C197.646 234.604 196.198 234.311 194.734 234.307C193.271 234.302 191.821 234.585 190.467 235.141C189.114 235.697 187.883 236.514 186.845 237.545C185.807 238.577 184.982 239.802 184.418 241.152C183.853 242.503 183.56 243.951 183.556 245.414C183.55 247.399 182.757 249.301 181.351 250.702C179.945 252.104 178.041 252.891 176.056 252.891H176.032C175.047 252.888 174.072 252.691 173.163 252.311C172.255 251.932 171.429 251.377 170.735 250.678C170.041 249.98 169.491 249.151 169.117 248.24C168.743 247.329 168.552 246.353 168.555 245.368C168.584 238.451 171.351 231.826 176.25 226.943C181.149 222.059 187.782 219.314 194.7 219.306H194.783C201.714 219.336 208.35 222.114 213.236 227.03C218.122 231.947 220.858 238.601 220.844 245.532C220.837 247.517 220.044 249.419 218.638 250.82C217.232 252.222 215.328 253.008 213.343 253.008Z" fill="#4E5660"/>
<path d="M379.993 253.53H379.969C378.984 253.527 378.01 253.33 377.101 252.95C376.192 252.571 375.367 252.016 374.673 251.317C373.978 250.619 373.428 249.79 373.054 248.879C372.68 247.968 372.489 246.992 372.492 246.007C372.497 244.544 372.213 243.094 371.658 241.74C371.102 240.386 370.285 239.155 369.253 238.117C368.222 237.079 366.996 236.255 365.646 235.69C364.296 235.126 362.847 234.834 361.384 234.829H361.348C358.4 234.833 355.573 236.003 353.485 238.084C351.397 240.166 350.218 242.989 350.205 245.937C350.202 246.922 350.005 247.897 349.625 248.805C349.246 249.714 348.691 250.539 347.992 251.234C347.294 251.928 346.465 252.478 345.554 252.852C344.643 253.226 343.667 253.417 342.682 253.414C341.697 253.411 340.723 253.214 339.814 252.834C338.905 252.455 338.08 251.9 337.386 251.201C336.691 250.503 336.141 249.674 335.767 248.763C335.393 247.852 335.202 246.876 335.205 245.891C335.235 238.974 338.001 232.351 342.9 227.468C347.798 222.584 354.43 219.838 361.347 219.83H361.43C368.364 219.852 375.005 222.627 379.892 227.545C384.78 232.463 387.514 239.121 387.492 246.055C387.486 248.04 386.692 249.941 385.287 251.342C383.881 252.743 381.977 253.53 379.992 253.53H379.993Z" fill="#4E5660"/>
<path d="M406.626 50.431L404.157 112.609C386.657 98.915 327.572 102.515 294.923 130.031C290.149 134.03 284.119 136.222 277.891 136.222C271.663 136.222 265.634 134.03 260.859 130.031C228.209 102.515 169.128 98.915 151.625 112.609L149.156 50.431H406.626Z" fill="#D1986F"/>
<path d="M125.241 144.176V98.811H79.8764C78.8666 91.1683 75.6758 83.9785 70.6859 78.1022C65.696 72.2258 59.1184 67.912 51.7404 65.6768C44.3625 63.4417 36.4967 63.3801 29.0846 65.4993C21.6725 67.6185 15.0281 71.8288 9.94671 77.6262C4.86534 83.4237 1.56226 90.5626 0.432828 98.1885C-0.6966 105.814 0.395477 113.604 3.57834 120.626C6.76121 127.647 11.9 133.602 18.3797 137.779C24.8593 141.956 32.4053 144.177 40.1144 144.176C40.2144 144.176 40.3194 144.169 40.4224 144.168V144.176H125.241Z" fill="#6A95D6"/>
<path d="M125.241 98.81V144.175H190.493C194.854 144.175 199.172 143.316 203.201 141.647C207.23 139.978 210.891 137.532 213.974 134.448C217.058 131.364 219.504 127.703 221.172 123.674C222.841 119.645 223.7 115.327 223.699 110.966C223.699 109.369 223.385 107.788 222.774 106.313C222.163 104.838 221.267 103.497 220.138 102.368C219.009 101.239 217.668 100.344 216.193 99.7326C214.718 99.1215 213.137 98.807 211.54 98.807L125.241 98.81Z" fill="#7ACDF9"/>
<path d="M40.4221 113.321C45.5363 113.321 49.6821 109.175 49.6821 104.061C49.6821 98.9469 45.5363 94.801 40.4221 94.801C35.308 94.801 31.1621 98.9469 31.1621 104.061C31.1621 109.175 35.308 113.321 40.4221 113.321Z" fill="#4E5660"/>
<path d="M79.876 98.8101H125.241V144.175C132.884 145.185 140.073 148.376 145.95 153.366C151.826 158.355 156.14 164.933 158.375 172.311C160.61 179.689 160.672 187.555 158.553 194.967C156.433 202.379 152.223 209.023 146.426 214.105C140.628 219.186 133.489 222.489 125.863 223.619C118.238 224.748 110.448 223.656 103.426 220.473C96.4049 217.29 90.4495 212.151 86.2729 205.672C82.0962 199.192 79.8753 191.646 79.876 183.937C79.876 183.837 79.883 183.732 79.884 183.63H79.876V98.8101Z" fill="#8DAEE1"/>
<path d="M125.241 98.81H79.876V33.206C79.876 24.3992 83.3745 15.9531 89.6018 9.72581C95.8291 3.49848 104.275 0 113.082 0C116.307 0 119.399 1.28103 121.68 3.56129C123.96 5.84154 125.241 8.93423 125.241 12.159V98.81Z" fill="#A2DDFD"/>
<path d="M119.991 192.89C125.106 192.89 129.251 188.744 129.251 183.63C129.251 178.516 125.106 174.37 119.991 174.37C114.877 174.37 110.731 178.516 110.731 183.63C110.731 188.744 114.877 192.89 119.991 192.89Z" fill="#4E5660"/>
<path d="M372.423 456.637H356.237C354.248 456.637 352.341 455.847 350.934 454.44C349.527 453.034 348.737 451.126 348.737 449.137C348.737 447.148 349.527 445.24 350.934 443.834C352.341 442.427 354.248 441.637 356.237 441.637H372.423C374.412 441.637 376.32 442.427 377.727 443.834C379.133 445.24 379.923 447.148 379.923 449.137C379.923 451.126 379.133 453.034 377.727 454.44C376.32 455.847 374.412 456.637 372.423 456.637Z" fill="#4E5660"/>
</svg>
