<svg width="512" height="512" viewBox="0 0 512 512" fill="none" xmlns="http://www.w3.org/2000/svg">
<path d="M124.455 512C124.455 447.254 167.53 406.918 167.53 406.918H340.691C340.691 406.918 383.766 447.254 383.766 512H124.455Z" fill="#FF6F7F"/>
<path d="M64.3418 263.441C64.3418 158.803 149.471 73.673 254.11 73.673C358.749 73.673 443.878 158.8 443.878 263.441H64.3418Z" fill="#FBC072"/>
<path d="M64.3424 263.441C64.3424 285.906 58.0164 306.041 51.9504 320.176C48.6575 327.897 48.114 336.515 50.4107 344.589C52.7075 352.663 57.7054 359.705 64.5694 364.537C84.4954 378.578 118.954 393.737 174.874 393.737V323.861L64.3424 263.441Z" fill="#FBC072"/>
<path d="M448.654 263.441C448.654 285.906 454.98 306.041 461.046 320.176C464.339 327.897 464.882 336.515 462.586 344.589C460.289 352.663 455.291 359.705 448.427 364.537C428.501 378.578 394.042 393.737 338.127 393.737V323.861L448.654 263.441Z" fill="#FBC072"/>
<path d="M125.587 216.433C125.498 179.72 131.835 143.274 144.31 108.745C119.593 126.269 99.4346 149.459 85.5216 176.375C71.6085 203.29 64.3459 233.146 64.3418 263.445H129.029C126.735 247.881 125.585 232.169 125.587 216.437V216.433Z" fill="#FFB25A"/>
<path d="M64.3424 263.441C64.3424 285.906 58.0164 306.041 51.9504 320.176C48.6575 327.898 48.114 336.515 50.4107 344.589C52.7075 352.663 57.7054 359.705 64.5694 364.537C84.4954 378.578 118.954 393.737 174.874 393.737V323.861L64.3424 263.441Z" fill="#FFB25A"/>
<path d="M408.821 306.881C432.812 306.881 452.261 287.432 452.261 263.441C452.261 239.45 432.812 220.001 408.821 220.001C384.83 220.001 365.381 239.45 365.381 263.441C365.381 287.432 384.83 306.881 408.821 306.881Z" fill="#FFBE9C"/>
<path d="M130.617 364.56C122.277 364.556 114.08 366.72 106.83 370.839C99.5786 374.958 93.5227 380.89 89.2555 388.055C88.2331 389.773 87.6934 391.734 87.6934 393.733C87.6934 395.732 88.2331 397.694 89.2555 399.411C93.8031 407.038 100.371 413.259 108.233 417.387C116.095 421.514 124.945 423.388 133.805 422.8C142.666 422.213 151.191 419.187 158.439 414.057C165.687 408.927 171.376 401.894 174.877 393.733C171.162 385.074 164.989 377.694 157.122 372.509C149.254 367.324 140.039 364.56 130.617 364.56Z" fill="#00BED6"/>
<path d="M174.876 393.733C166.631 390.438 157.634 389.486 148.882 390.984C140.129 392.482 131.961 396.371 125.28 402.22C118.6 408.07 113.667 415.653 111.026 424.131C108.386 432.609 108.141 441.652 110.318 450.261C110.809 452.199 111.814 453.968 113.228 455.381C114.641 456.795 116.41 457.8 118.348 458.291C126.957 460.469 136 460.224 144.478 457.583C152.956 454.943 160.539 450.01 166.389 443.329C172.239 436.648 176.127 428.48 177.625 419.728C179.123 410.975 178.172 401.979 174.876 393.733Z" fill="#3CCADD"/>
<path d="M361.534 374.765C361.534 374.765 350.507 460.651 254.11 460.651C157.713 460.651 146.686 374.765 146.686 374.765H361.534Z" fill="#80D8E6"/>
<path d="M168.431 374.765H146.686C146.686 374.765 157.513 458.965 251.324 460.612C218.224 439.862 189.824 410.346 168.431 374.765Z" fill="#00BED6"/>
<path d="M402.758 220.432C402.712 220.432 346.569 216.558 277.245 161.778C270.66 156.566 262.509 153.731 254.111 153.731C245.713 153.731 237.562 156.566 230.978 161.778C161.653 216.559 105.509 220.429 105.465 220.432C101.427 234.425 99.3852 248.917 99.3985 263.48C99.4195 348.995 170.992 419.428 256.499 418.134C280.28 417.751 303.654 411.894 324.806 401.017C345.958 390.14 364.319 374.535 378.465 355.414C392.611 336.293 402.16 314.169 406.373 290.761C410.586 267.352 409.348 243.287 402.757 220.434L402.758 220.432Z" fill="#FFD3BC"/>
<path d="M186.898 32.558C190.051 27.2088 194.546 22.7752 199.938 19.6958C205.33 16.6164 211.432 14.9978 217.641 15H290.579C296.788 14.9981 302.89 16.6169 308.281 19.6963C313.673 22.7757 318.167 27.2091 321.319 32.558L295.747 57.664L254.111 68.153L210.854 57.664L186.898 32.558Z" fill="#FF6F7F"/>
<path d="M328.851 61.736L334.21 91.436L272.54 112.67C260.598 116.787 247.622 116.787 235.68 112.67L174.01 91.436L179.369 61.736H328.851Z" fill="#FF6F7F"/>
<path d="M328.851 61.736L280.598 78.353C272.073 81.2828 263.12 82.7754 254.105 82.77C245.09 82.7754 236.137 81.2828 227.612 78.353L179.369 61.736L182.514 44.348C183.258 40.1876 184.743 36.1946 186.898 32.559L237.398 49.947C248.228 53.653 259.982 53.653 270.812 49.947L321.312 32.559C323.468 36.1943 324.954 40.1874 325.699 44.348L328.851 61.736Z" fill="#F8D070"/>
<path d="M187.765 402.891C149.172 353.677 125.64 288.349 125.59 216.66C112.873 219.919 105.48 220.431 105.463 220.432C105.446 220.433 105.455 220.463 105.45 220.479C103.45 220.152 101.426 219.991 99.3985 220C87.8776 220 76.8286 224.577 68.6821 232.723C60.5356 240.87 55.959 251.919 55.959 263.44C55.959 274.96 60.5356 286.009 68.6821 294.156C76.8286 302.302 87.8776 306.879 99.3985 306.879C101.476 306.889 103.55 306.722 105.598 306.379C111.846 327.288 122.378 346.667 136.524 363.283C150.671 379.899 168.121 393.388 187.765 402.891Z" fill="#FFBE9C"/>
<path d="M160.229 313.505C179.361 313.505 194.87 301.154 194.87 285.919C194.87 270.684 179.361 258.333 160.229 258.333C141.097 258.333 125.588 270.684 125.588 285.919C125.588 301.154 141.097 313.505 160.229 313.505Z" fill="#FFA0AB"/>
<path d="M347.993 313.505C367.124 313.505 382.634 301.154 382.634 285.919C382.634 270.684 367.124 258.333 347.993 258.333C328.861 258.333 313.352 270.684 313.352 285.919C313.352 301.154 328.861 313.505 347.993 313.505Z" fill="#FFA0AB"/>
<path d="M180.416 266.864C178.427 266.864 176.519 266.074 175.113 264.667C173.706 263.261 172.916 261.353 172.916 259.364V245.2C172.916 243.211 173.706 241.303 175.113 239.897C176.519 238.49 178.427 237.7 180.416 237.7C182.405 237.7 184.313 238.49 185.719 239.897C187.126 241.303 187.916 243.211 187.916 245.2V259.361C187.916 260.346 187.723 261.322 187.346 262.232C186.969 263.142 186.417 263.969 185.72 264.666C185.024 265.363 184.197 265.916 183.287 266.293C182.377 266.67 181.401 266.864 180.416 266.864Z" fill="#303646"/>
<path d="M327.799 266.864C325.81 266.864 323.902 266.074 322.496 264.667C321.089 263.261 320.299 261.353 320.299 259.364V245.2C320.299 243.211 321.089 241.303 322.496 239.897C323.902 238.49 325.81 237.7 327.799 237.7C329.788 237.7 331.696 238.49 333.102 239.897C334.509 241.303 335.299 243.211 335.299 245.2V259.361C335.299 260.346 335.106 261.322 334.729 262.232C334.352 263.142 333.8 263.969 333.103 264.666C332.407 265.363 331.58 265.916 330.67 266.293C329.76 266.67 328.784 266.864 327.799 266.864Z" fill="#303646"/>
<path d="M254.11 275.294C249.356 275.293 244.657 274.273 240.33 272.302C236.003 270.331 232.149 267.456 229.027 263.87C227.721 262.37 227.063 260.413 227.199 258.428C227.336 256.444 228.255 254.595 229.754 253.288C231.254 251.981 233.211 251.324 235.196 251.46C237.18 251.596 239.03 252.515 240.336 254.015C242.049 255.986 244.166 257.566 246.542 258.65C248.918 259.733 251.499 260.293 254.11 260.293C256.722 260.293 259.303 259.733 261.679 258.65C264.055 257.566 266.171 255.986 267.884 254.015C269.191 252.515 271.04 251.596 273.025 251.46C275.009 251.324 276.967 251.981 278.466 253.288C279.966 254.595 280.885 256.444 281.021 258.428C281.158 260.413 280.5 262.37 279.193 263.87C276.072 267.456 272.217 270.331 267.891 272.302C263.564 274.273 258.865 275.293 254.11 275.294Z" fill="#303646"/>
</svg>
