<svg width="512" height="512" viewBox="0 0 512 512" fill="none" xmlns="http://www.w3.org/2000/svg">
<path d="M422.168 211.654C419.209 240.17 419.492 260.154 421.942 278.654C422.498 282.903 421.507 287.211 419.151 290.79C416.796 294.37 413.231 296.984 409.109 298.154C374.823 307.914 322.197 315.91 239.232 315.91C156.267 315.91 103.641 307.91 69.3547 298.158C65.2323 296.988 61.668 294.374 59.3122 290.794C56.9564 287.215 55.966 282.907 56.5217 278.658C58.9717 260.158 59.2547 240.169 56.2957 211.658L422.168 211.654Z" fill="#E7889D"/>
<path d="M417.173 233.825C445.961 233.825 469.299 210.487 469.299 181.699C469.299 152.911 445.961 129.573 417.173 129.573C388.384 129.573 365.047 152.911 365.047 181.699C365.047 210.487 388.384 233.825 417.173 233.825Z" fill="#FFBE9D"/>
<path d="M61.2906 233.825C90.0789 233.825 113.417 210.487 113.417 181.699C113.417 152.911 90.0789 129.573 61.2906 129.573C32.5022 129.573 9.16455 152.911 9.16455 181.699C9.16455 210.487 32.5022 233.825 61.2906 233.825Z" fill="#FFD3BD"/>
<path d="M54.1126 246.98C70.7977 246.98 84.3236 233.454 84.3236 216.769C84.3236 200.084 70.7977 186.558 54.1126 186.558C37.4275 186.558 23.9016 200.084 23.9016 216.769C23.9016 233.454 37.4275 246.98 54.1126 246.98Z" fill="#8DAEE1"/>
<path d="M424.351 246.98C441.036 246.98 454.562 233.454 454.562 216.769C454.562 200.084 441.036 186.558 424.351 186.558C407.666 186.558 394.14 200.084 394.14 216.769C394.14 233.454 407.666 246.98 424.351 246.98Z" fill="#8DAEE1"/>
<path d="M375.307 433.562C377.975 433.571 380.615 433.011 383.049 431.919C385.484 430.826 387.657 429.226 389.424 427.227C391.191 425.227 392.51 422.873 393.294 420.322C394.078 417.772 394.309 415.083 393.971 412.436C388.859 375.026 370.367 340.734 341.918 315.908C313.469 291.083 276.99 277.404 239.232 277.404C201.474 277.404 164.994 291.083 136.545 315.908C108.096 340.734 89.6046 375.026 84.4926 412.436C84.1543 415.083 84.3849 417.772 85.169 420.322C85.953 422.873 87.2726 425.227 89.0393 427.227C90.8061 429.226 92.9794 430.826 95.4139 431.919C97.8485 433.011 100.488 433.571 103.157 433.562H375.307Z" fill="#88D37F"/>
<path d="M239.232 338.3C239.232 338.3 212.754 361.672 193.737 380.624C192.613 381.743 191.242 382.583 189.734 383.074C188.226 383.566 186.624 383.696 185.057 383.453C183.49 383.211 182.001 382.603 180.712 381.68C179.423 380.756 178.37 379.541 177.637 378.135C167.722 359.119 164.498 328.214 172.53 308.397L239.232 338.3Z" fill="white"/>
<path d="M239.232 338.3C239.232 338.3 265.71 361.672 284.727 380.624C285.85 381.743 287.221 382.583 288.729 383.074C290.237 383.566 291.839 383.696 293.406 383.453C294.974 383.211 296.462 382.603 297.751 381.68C299.04 380.756 300.094 379.541 300.827 378.135C310.742 359.119 313.966 328.214 305.933 308.397L239.232 338.3Z" fill="white"/>
<path d="M418.417 174.529C418.417 83.157 338.193 12.093 239.232 12.093C140.271 12.093 60.0457 83.157 60.0457 174.529C60.0457 265.901 140.27 338.3 239.232 338.3C338.194 338.3 418.417 265.9 418.417 174.529Z" fill="#FFD3BD"/>
<path d="M181.66 20.5C110.941 41.859 60.0457 101.753 60.0457 174.529C60.0457 265.9 140.27 338.3 239.232 338.3C263.767 338.363 288.093 333.783 310.926 324.8C91.1187 312.667 122.143 86.816 181.66 20.495V20.5Z" fill="#FFBE9D"/>
<path d="M147.328 243.821C166.056 243.821 181.239 231.73 181.239 216.816C181.239 201.902 166.056 189.811 147.328 189.811C128.599 189.811 113.417 201.902 113.417 216.816C113.417 231.73 128.599 243.821 147.328 243.821Z" fill="#E7889D"/>
<path d="M331.136 243.821C349.864 243.821 365.047 231.73 365.047 216.816C365.047 201.902 349.864 189.811 331.136 189.811C312.407 189.811 297.225 201.902 297.225 216.816C297.225 231.73 312.407 243.821 331.136 243.821Z" fill="#E7889D"/>
<path d="M183.232 194.93C181.243 194.93 179.335 194.14 177.928 192.733C176.522 191.327 175.732 189.419 175.732 187.43C175.732 185.138 174.821 182.94 173.201 181.32C171.58 179.699 169.382 178.789 167.091 178.789C164.799 178.789 162.601 179.699 160.981 181.32C159.36 182.94 158.45 185.138 158.45 187.43C158.45 189.419 157.66 191.327 156.253 192.733C154.846 194.14 152.939 194.93 150.95 194.93C148.961 194.93 147.053 194.14 145.646 192.733C144.24 191.327 143.45 189.419 143.45 187.43C143.45 181.16 145.94 175.147 150.374 170.713C154.808 166.28 160.821 163.789 167.091 163.789C173.361 163.789 179.374 166.28 183.807 170.713C188.241 175.147 190.732 181.16 190.732 187.43C190.732 189.419 189.942 191.327 188.535 192.733C187.128 194.14 185.221 194.93 183.232 194.93Z" fill="#4E5660"/>
<path d="M327.513 194.93C325.524 194.93 323.616 194.14 322.209 192.733C320.803 191.327 320.013 189.419 320.013 187.43C320.013 185.138 319.102 182.94 317.482 181.32C315.861 179.699 313.663 178.789 311.372 178.789C309.08 178.789 306.882 179.699 305.262 181.32C303.641 182.94 302.731 185.138 302.731 187.43C302.731 189.419 301.941 191.327 300.534 192.733C299.128 194.14 297.22 194.93 295.231 194.93C293.242 194.93 291.334 194.14 289.927 192.733C288.521 191.327 287.731 189.419 287.731 187.43C287.731 181.16 290.221 175.147 294.655 170.713C299.089 166.28 305.102 163.789 311.372 163.789C317.642 163.789 323.655 166.28 328.088 170.713C332.522 175.147 335.013 181.16 335.013 187.43C335.013 189.419 334.223 191.327 332.816 192.733C331.409 194.14 329.502 194.93 327.513 194.93Z" fill="#4E5660"/>
<path d="M239.232 221.6C234.915 221.599 230.648 220.673 226.719 218.884C222.791 217.094 219.291 214.484 216.457 211.228C215.809 210.485 215.315 209.623 215.001 208.689C214.688 207.755 214.561 206.769 214.628 205.786C214.696 204.804 214.956 203.844 215.395 202.962C215.833 202.08 216.441 201.293 217.184 200.646C217.926 199.999 218.789 199.504 219.723 199.191C220.656 198.877 221.643 198.75 222.625 198.818C223.608 198.885 224.567 199.146 225.449 199.584C226.331 200.023 227.118 200.63 227.766 201.373C229.192 203.014 230.953 204.33 232.932 205.232C234.91 206.133 237.059 206.6 239.233 206.6C241.407 206.6 243.555 206.133 245.534 205.232C247.512 204.33 249.274 203.014 250.7 201.373C251.347 200.63 252.134 200.023 253.016 199.584C253.898 199.146 254.857 198.885 255.84 198.818C256.823 198.75 257.809 198.877 258.743 199.191C259.676 199.504 260.539 199.999 261.282 200.646C262.024 201.293 262.632 202.08 263.07 202.962C263.509 203.844 263.769 204.804 263.837 205.786C263.904 206.769 263.777 207.755 263.464 208.689C263.15 209.623 262.656 210.485 262.009 211.228C259.173 214.484 255.673 217.094 251.744 218.883C247.815 220.672 243.549 221.599 239.232 221.6Z" fill="#4E5660"/>
<path d="M239.232 0C395.953 0 423.095 101.744 425.632 151.628C425.738 153.624 425.367 155.617 424.549 157.44C423.731 159.264 422.491 160.867 420.93 162.115C419.369 163.364 417.533 164.223 415.574 164.62C413.615 165.017 411.59 164.942 409.666 164.4C338.553 144 258.091 92.667 239.232 72.533C220.373 92.668 139.911 144 68.7977 164.4C66.8735 164.943 64.8475 165.019 62.8879 164.623C60.9283 164.226 59.0916 163.368 57.5301 162.119C55.9686 160.87 54.7274 159.267 53.9094 157.443C53.0914 155.619 52.7202 153.626 52.8267 151.629C55.3687 101.744 82.5107 0 239.232 0Z" fill="#E7889D"/>
<path d="M464.565 411.871C481.704 394.732 480.536 365.775 461.955 347.194C443.374 328.614 414.417 327.445 397.278 344.585C380.139 361.724 381.307 390.681 399.888 409.261C418.469 427.842 447.426 429.011 464.565 411.871Z" fill="#4E5660"/>
<path d="M386.789 469.474L339.751 422.436L300.832 472.776C298.266 476.094 296.997 480.233 297.264 484.419C297.53 488.605 299.314 492.55 302.28 495.516L313.713 506.949C316.678 509.915 320.623 511.698 324.809 511.964C328.995 512.231 333.135 510.963 336.453 508.397L386.789 469.474Z" fill="#A2DDFD"/>
<path d="M327.231 438.626L370.598 481.992L386.788 469.474L339.75 422.436L327.231 438.626Z" fill="#7ACDF9"/>
<path d="M387.71 470.395L338.829 421.515C337.621 420.307 336.662 418.872 336.008 417.293C335.354 415.714 335.017 414.021 335.017 412.312C335.017 410.603 335.354 408.91 336.008 407.331C336.662 405.752 337.621 404.318 338.829 403.109L367.062 374.876C368.271 373.667 369.706 372.709 371.285 372.054C372.864 371.4 374.556 371.064 376.266 371.064C377.975 371.064 379.667 371.4 381.246 372.054C382.825 372.709 384.26 373.667 385.469 374.876L434.349 423.756C435.557 424.965 436.516 426.399 437.17 427.978C437.824 429.557 438.161 431.25 438.161 432.959C438.161 434.668 437.824 436.361 437.17 437.94C436.516 439.519 435.557 440.954 434.349 442.162L406.116 470.395C404.907 471.604 403.472 472.562 401.893 473.217C400.314 473.871 398.622 474.207 396.913 474.207C395.203 474.207 393.511 473.871 391.932 473.217C390.353 472.562 388.918 471.604 387.71 470.395Z" fill="#8DAEE1"/>
<path d="M393.5 437.045C392.515 437.045 391.54 436.851 390.63 436.474C389.721 436.096 388.895 435.543 388.2 434.845L374.381 421.026C373.679 420.331 373.122 419.504 372.741 418.592C372.36 417.681 372.163 416.704 372.161 415.716C372.159 414.728 372.352 413.75 372.729 412.837C373.106 411.924 373.659 411.095 374.358 410.396C375.056 409.698 375.886 409.144 376.799 408.767C377.712 408.39 378.69 408.198 379.678 408.2C380.665 408.202 381.643 408.399 382.554 408.78C383.465 409.161 384.292 409.719 384.988 410.42L398.807 424.239C399.854 425.288 400.567 426.624 400.856 428.078C401.145 429.532 400.997 431.039 400.429 432.408C399.862 433.778 398.902 434.949 397.67 435.773C396.438 436.597 394.989 437.038 393.507 437.039L393.5 437.045Z" fill="white"/>
<path d="M156.483 431.465L93.9636 493.984C92.7365 495.211 91.2796 496.185 89.6763 496.849C88.073 497.513 86.3545 497.855 84.6191 497.855C82.8836 497.855 81.1652 497.513 79.5619 496.849C77.9585 496.185 76.5017 495.211 75.2746 493.984L3.87457 422.584C2.64742 421.357 1.67399 419.9 1.00986 418.297C0.345728 416.693 0.00390625 414.975 0.00390625 413.24C0.00390625 411.504 0.345728 409.786 1.00986 408.182C1.67399 406.579 2.64742 405.122 3.87457 403.895L66.3936 341.376C67.6207 340.149 69.0775 339.175 70.6809 338.511C72.2842 337.847 74.0026 337.505 75.7381 337.505C77.4735 337.505 79.192 337.847 80.7953 338.511C82.3986 339.175 83.8554 340.149 85.0826 341.376L156.483 412.776C158.961 415.255 160.353 418.616 160.353 422.121C160.353 425.626 158.961 428.988 156.483 431.466V431.465Z" fill="#FCF2D0"/>
<path d="M74.4906 337.561C71.4283 337.846 68.5625 339.194 66.3906 341.372L3.87164 403.891C2.64449 405.118 1.67106 406.575 1.00693 408.178C0.342801 409.782 0.000976562 411.5 0.000976562 413.236C0.000976563 414.971 0.342801 416.689 1.00693 418.293C1.67106 419.896 2.64449 421.353 3.87164 422.58L75.2716 493.98C76.4988 495.207 77.9556 496.181 79.5589 496.845C81.1623 497.509 82.8807 497.851 84.6161 497.851C86.3516 497.851 88.07 497.509 89.6734 496.845C91.2767 496.181 92.7335 495.207 93.9606 493.98L108.494 479.447C88.3416 451.178 66.8576 375.868 74.4876 337.558L74.4906 337.561Z" fill="#F6E3A3"/>
<path d="M68.7656 447.423C67.2832 447.422 65.8345 446.981 64.6023 446.157C63.3701 445.333 62.4099 444.162 61.8428 442.792C61.2756 441.423 61.1271 439.916 61.416 438.462C61.7048 437.008 62.4181 435.672 63.4656 434.623L97.1216 400.967C98.5302 399.571 100.435 398.789 102.418 398.793C104.401 398.797 106.302 399.587 107.705 400.99C109.108 402.392 109.897 404.293 109.902 406.276C109.906 408.26 109.125 410.164 107.729 411.573L74.0686 445.225C73.3733 445.923 72.5468 446.476 71.6367 446.854C70.7265 447.231 69.7508 447.424 68.7656 447.423Z" fill="#4E5660"/>
<path d="M33.5697 408C32.5849 408.001 31.6098 407.806 30.7002 407.429C29.7907 407.051 28.9647 406.498 28.2697 405.8L6.84271 384.381C5.44643 382.972 4.66502 381.068 4.66945 379.085C4.67389 377.101 5.46382 375.2 6.86638 373.798C8.26895 372.395 10.1699 371.606 12.1534 371.601C14.1368 371.597 16.0411 372.379 17.4497 373.775L38.8727 395.2C39.9203 396.249 40.6335 397.585 40.9224 399.039C41.2112 400.493 41.0627 402 40.4956 403.369C39.9285 404.739 38.9682 405.91 37.736 406.734C36.5039 407.558 35.0551 407.999 33.5727 408H33.5697Z" fill="#8DAEE1"/>
<path d="M63.0016 378.57C62.0169 378.57 61.0417 378.376 60.1322 377.999C59.2227 377.621 58.3967 377.068 57.7017 376.37L36.2747 354.95C35.5732 354.255 35.0161 353.428 34.6352 352.516C34.2542 351.605 34.0571 350.628 34.0549 349.64C34.0528 348.652 34.2458 347.674 34.6228 346.761C34.9998 345.848 35.5535 345.019 36.2519 344.32C36.9503 343.622 37.7798 343.068 38.6927 342.691C39.6056 342.314 40.584 342.122 41.5717 342.124C42.5594 342.126 43.5369 342.323 44.4481 342.704C45.3594 343.085 46.1864 343.643 46.8817 344.344L68.3057 365.767C69.3532 366.816 70.0665 368.152 70.3553 369.606C70.6441 371.06 70.4956 372.567 69.9285 373.936C69.3614 375.306 68.4011 376.477 67.169 377.301C65.9368 378.125 64.4881 378.566 63.0057 378.567L63.0016 378.57Z" fill="#8DAEE1"/>
</svg>
