<svg width="532" height="512" viewBox="0 0 532 512" fill="none" xmlns="http://www.w3.org/2000/svg">
<path d="M370.379 447.714C372.921 447.723 375.437 447.189 377.757 446.148C380.076 445.107 382.147 443.583 383.831 441.677C385.514 439.771 386.772 437.528 387.519 435.098C388.266 432.667 388.486 430.105 388.164 427.583C383.291 391.935 365.669 359.259 338.56 335.603C311.451 311.947 276.689 298.912 240.71 298.912C204.73 298.912 169.968 311.947 142.859 335.603C115.75 359.259 98.128 391.935 93.2555 427.583C92.9331 430.105 93.1529 432.667 93.9 435.098C94.6472 437.528 95.9046 439.771 97.5881 441.677C99.2717 443.583 101.343 445.107 103.662 446.148C105.982 447.189 108.498 447.723 111.041 447.714H370.379Z" fill="#4E5660"/>
<path d="M265.99 335.395H215.432L202.792 393.387C202.303 395.628 202.323 397.95 202.85 400.182C203.377 402.414 204.397 404.5 205.836 406.286C207.275 408.072 209.096 409.513 211.165 410.502C213.234 411.492 215.498 412.006 217.792 412.005H263.635C265.928 412.005 268.192 411.492 270.261 410.502C272.33 409.512 274.151 408.071 275.59 406.285C277.029 404.499 278.049 402.414 278.576 400.182C279.103 397.95 279.123 395.628 278.635 393.387L265.99 335.395Z" fill="#F6E3A3"/>
<path d="M240.71 345.975L192.032 374.146C189.101 375.842 185.767 376.715 182.381 376.673C178.995 376.631 175.683 375.676 172.794 373.908C169.906 372.14 167.549 369.625 165.972 366.628C164.394 363.632 163.655 360.265 163.832 356.883L166.11 313.468L240.71 345.975Z" fill="#FCF2D0"/>
<path d="M240.711 345.975L289.389 374.146C292.32 375.842 295.655 376.715 299.041 376.673C302.427 376.631 305.739 375.676 308.627 373.908C311.515 372.14 313.872 369.625 315.45 366.628C317.027 363.632 317.766 360.265 317.589 356.883L315.312 313.468L240.711 345.975Z" fill="#FCF2D0"/>
<path d="M411.461 189.912C411.461 102.842 335.014 35.124 240.712 35.124C146.41 35.124 69.9629 102.842 69.9629 189.912C69.9629 276.982 146.41 345.974 240.712 345.974C335.014 345.974 411.461 276.982 411.461 189.912Z" fill="#CB9D82"/>
<path d="M185.851 43.131C118.461 63.488 69.9629 120.562 69.9629 189.912C69.9629 276.982 146.41 345.974 240.712 345.974C264.092 346.035 287.273 341.67 309.03 333.111C99.5729 321.546 129.136 106.329 185.851 43.131Z" fill="#B7856B"/>
<path d="M145.672 265.994C165.039 265.994 180.739 253.491 180.739 238.068C180.739 222.645 165.039 210.142 145.672 210.142C126.306 210.142 110.605 222.645 110.605 238.068C110.605 253.491 126.306 265.994 145.672 265.994Z" fill="white"/>
<path d="M335.751 265.994C355.118 265.994 370.818 253.491 370.818 238.068C370.818 222.645 355.118 210.142 335.751 210.142C316.384 210.142 300.684 222.645 300.684 238.068C300.684 253.491 316.384 265.994 335.751 265.994Z" fill="white"/>
<path d="M166.109 218.686C164.12 218.686 162.213 217.896 160.806 216.489C159.4 215.083 158.609 213.175 158.609 211.186V196.85C158.609 194.861 159.4 192.953 160.806 191.547C162.213 190.14 164.12 189.35 166.109 189.35C168.098 189.35 170.006 190.14 171.413 191.547C172.819 192.953 173.609 194.861 173.609 196.85V211.186C173.609 213.175 172.819 215.083 171.413 216.489C170.006 217.896 168.098 218.686 166.109 218.686Z" fill="#4E5660"/>
<path d="M315.312 218.686C313.323 218.686 311.416 217.896 310.009 216.489C308.603 215.083 307.812 213.175 307.812 211.186V196.85C307.812 194.861 308.603 192.953 310.009 191.547C311.416 190.14 313.323 189.35 315.312 189.35C317.302 189.35 319.209 190.14 320.616 191.547C322.022 192.953 322.812 194.861 322.812 196.85V211.186C322.812 213.175 322.022 215.083 320.616 216.489C319.209 217.896 317.302 218.686 315.312 218.686Z" fill="#4E5660"/>
<path d="M240.712 227.219C235.912 227.218 231.168 226.188 226.8 224.199C222.432 222.209 218.541 219.307 215.389 215.687C214.082 214.187 213.424 212.23 213.561 210.245C213.697 208.261 214.616 206.412 216.116 205.105C217.615 203.798 219.573 203.141 221.557 203.277C223.542 203.413 225.391 204.332 226.698 205.832C228.441 207.838 230.593 209.446 233.011 210.548C235.429 211.65 238.055 212.22 240.712 212.22C243.369 212.22 245.995 211.65 248.412 210.548C250.83 209.446 252.983 207.838 254.726 205.832C256.033 204.332 257.882 203.413 259.866 203.277C261.851 203.141 263.808 203.798 265.308 205.105C266.807 206.412 267.726 208.261 267.863 210.245C267.999 212.23 267.342 214.187 266.035 215.687C262.883 219.307 258.992 222.209 254.623 224.198C250.255 226.188 245.512 227.218 240.712 227.219Z" fill="#4E5660"/>
<path d="M461.422 233.542C461.422 220.382 454.927 208.636 444.758 200.913C454.927 193.19 461.422 181.444 461.422 168.285C461.422 151.443 450.784 136.916 435.422 130.179C424.679 66.295 344.628 -22.45 240.712 25.811C136.794 -22.45 56.744 66.295 46 130.179C30.638 136.917 20 151.443 20 168.285C20 181.444 26.495 193.185 36.664 200.913C26.5 208.637 20 220.383 20 233.542C20 246.701 26.495 258.442 36.664 266.17C26.5 273.895 20 285.64 20 298.795C20 322.055 40.283 340.91 65.3 340.91C90.317 340.91 110.6 322.059 110.6 298.795C110.6 285.636 104.1 273.895 93.936 266.166C104.109 258.447 110.6 246.701 110.6 233.542C110.6 220.383 104.1 208.636 93.936 200.913C104.109 193.19 110.6 181.444 110.6 168.285C110.582 159.571 107.713 151.103 102.431 144.173H178.309C211.009 144.173 232.567 132.745 240.709 116.419C248.848 132.745 270.409 144.173 303.109 144.173H378.987C373.705 151.103 370.836 159.571 370.818 168.285C370.818 181.444 377.313 193.185 387.482 200.913C377.313 208.636 370.818 220.382 370.818 233.542C370.818 246.702 377.313 258.442 387.482 266.17C377.313 273.893 370.818 285.639 370.818 298.799C370.818 322.059 391.101 340.914 416.118 340.914C441.135 340.914 461.418 322.059 461.418 298.799C461.418 285.64 454.923 273.899 444.754 266.17C454.924 258.447 461.42 246.701 461.42 233.542H461.422Z" fill="#FCF2D0"/>
<path d="M110.605 298.795C110.605 285.636 104.105 273.895 93.941 266.167C104.11 258.444 110.605 246.698 110.605 233.539C110.605 220.38 104.105 208.633 93.941 200.91C104.11 193.195 110.605 181.445 110.605 168.286C110.587 159.572 107.718 151.104 102.436 144.174H174.067C132.067 124.345 125.045 48.599 145.928 17.395C90.9 34.295 53.142 87.723 46 130.179C30.638 136.917 20 151.443 20 168.285C20 181.444 26.495 193.185 36.664 200.913C26.495 208.637 20 220.383 20 233.542C20 246.701 26.495 258.442 36.664 266.17C26.495 273.895 20 285.639 20 298.795C20 322.055 40.283 340.91 65.3 340.91C90.317 340.91 110.6 322.058 110.6 298.795H110.605Z" fill="#F6E3A3"/>
<path d="M439.916 445.507L346.238 351.828L406.14 291.927L499.818 385.605L439.916 445.507Z" fill="#D1986F"/>
<path d="M445.107 473.165L436.422 464.48C432.648 460.705 430.527 455.586 430.527 450.247C430.527 444.909 432.648 439.79 436.422 436.015L490.322 382.115C494.097 378.341 499.217 376.22 504.555 376.22C509.893 376.22 515.012 378.341 518.787 382.115L527.472 390.8C530.369 393.697 531.996 397.626 531.996 401.723C531.996 405.819 530.369 409.748 527.472 412.645L466.952 473.165C464.055 476.062 460.126 477.689 456.03 477.689C451.933 477.689 448.004 476.062 445.107 473.165Z" fill="#E0B799"/>
<path d="M421.155 426.746L365 370.59L298.942 436.648C296.6 438.99 294.742 441.77 293.474 444.83C292.207 447.89 291.555 451.169 291.555 454.481C291.555 457.793 292.207 461.072 293.474 464.132C294.742 467.192 296.6 469.972 298.942 472.314L319.432 492.804C321.773 495.146 324.554 497.004 327.613 498.271C330.673 499.539 333.953 500.191 337.265 500.191C340.577 500.191 343.856 499.539 346.916 498.271C349.976 497.004 352.756 495.146 355.098 492.804L421.155 426.746Z" fill="#E0B799"/>
<path d="M327.266 355.322L318.581 346.637C315.684 343.74 314.057 339.811 314.057 335.715C314.057 331.618 315.684 327.689 318.581 324.792L379.1 264.27C381.997 261.373 385.926 259.746 390.022 259.746C394.119 259.746 398.048 261.373 400.945 264.27L409.63 272.955C413.404 276.73 415.525 281.849 415.525 287.188C415.525 292.526 413.404 297.645 409.63 301.42L355.73 355.32C351.955 359.094 346.836 361.215 341.498 361.215C336.16 361.215 331.04 359.094 327.266 355.32V355.322Z" fill="#E0B799"/>
</svg>
