<svg width="517" height="512" viewBox="0 0 517 512" fill="none" xmlns="http://www.w3.org/2000/svg">
<path d="M67.465 302.769C67.465 329.243 60.404 348.201 51.687 360.74C50.4162 362.593 49.6719 364.756 49.5333 366.998C49.3947 369.241 49.867 371.479 50.8999 373.474C51.9328 375.469 53.4876 377.147 55.3987 378.328C57.3098 379.509 59.5055 380.15 61.752 380.182C101.416 380.682 130.033 367.146 157.229 339.95C163.344 333.836 167.856 326.307 170.367 318.032C172.877 309.757 173.308 300.991 171.621 292.509C169.934 284.028 166.181 276.094 160.695 269.409C155.209 262.725 148.16 257.496 140.17 254.187C132.181 250.878 123.499 249.59 114.893 250.438C106.288 251.285 98.0237 254.242 90.8337 259.047C83.6437 263.851 77.7495 270.355 73.6733 277.981C69.5971 285.608 67.4647 294.122 67.465 302.769Z" fill="#4E5660"/>
<path d="M480.213 196.602C484.978 167.207 465.012 139.514 435.616 134.749C406.221 129.984 378.528 149.951 373.763 179.346C368.998 208.741 388.965 236.434 418.36 241.199C447.755 245.964 475.448 225.998 480.213 196.602Z" fill="#FFBE9D"/>
<path d="M64.3392 241.587C93.9753 238.638 115.61 212.223 112.661 182.587C109.712 152.951 83.2972 131.316 53.661 134.265C24.0249 137.214 2.39038 163.629 5.33906 193.265C8.28774 222.901 34.703 244.536 64.3392 241.587Z" fill="#FFD3BD"/>
<path d="M383.772 448.529C386.532 448.538 389.263 447.958 391.781 446.828C394.299 445.697 396.547 444.042 398.375 441.974C400.202 439.905 401.567 437.47 402.379 434.832C403.19 432.193 403.429 429.412 403.08 426.674C397.791 387.973 378.66 352.498 349.229 326.815C319.799 301.133 282.06 286.982 242.999 286.982C203.938 286.982 166.199 301.133 136.768 326.815C107.337 352.498 88.207 387.973 82.9179 426.674C82.5686 429.412 82.8076 432.193 83.619 434.832C84.4304 437.47 85.7955 439.905 87.6231 441.974C89.4507 444.042 91.6987 445.697 94.2169 446.828C96.7351 447.958 99.4656 448.538 102.226 448.529H383.772Z" fill="#FFD3BD"/>
<path d="M139.418 324.562C146.94 360.886 147.811 419.462 147.91 448.529H338.09C338.19 419.465 339.06 360.887 346.582 324.562C317.526 300.284 280.865 286.983 243.001 286.983C205.137 286.983 168.476 300.284 139.42 324.562H139.418Z" fill="#E7889D"/>
<path d="M241.15 412.172C224.15 412.172 207.324 401.678 193.759 382.623C181.646 365.606 173.242 343.163 170.705 321.051C170.514 319.093 171.1 317.139 172.336 315.609C173.573 314.08 175.361 313.097 177.315 312.872C179.269 312.648 181.233 313.2 182.783 314.41C184.334 315.62 185.347 317.391 185.605 319.341C190.363 360.802 216.317 397.173 241.147 397.173C265.977 397.173 291.93 360.803 296.688 319.341C296.946 317.391 297.959 315.62 299.51 314.41C301.061 313.2 303.024 312.648 304.979 312.872C306.933 313.097 308.72 314.08 309.957 315.609C311.193 317.139 311.779 319.093 311.588 321.051C309.051 343.164 300.648 365.606 288.534 382.623C274.969 401.678 258.134 412.172 241.144 412.172H241.15Z" fill="white"/>
<path d="M241.15 394.271C233.84 394.738 226.981 397.964 221.96 403.296C216.938 408.628 214.13 415.669 214.102 422.993C214.075 430.318 216.831 437.379 221.812 442.749C226.794 448.119 233.629 451.396 240.935 451.917V472.95C240.935 474.606 241.593 476.194 242.764 477.364C243.934 478.535 245.522 479.193 247.178 479.193H265.648C267.304 479.193 268.892 478.535 270.062 477.364C271.233 476.194 271.891 474.606 271.891 472.95V423.106C271.891 419.156 271.081 415.248 269.512 411.623C267.942 407.998 265.646 404.734 262.765 402.032C259.884 399.329 256.479 397.246 252.762 395.911C249.044 394.577 245.092 394.018 241.15 394.271Z" fill="#E16E7E"/>
<path d="M428.37 180.555C428.37 86.029 345.377 12.512 242.999 12.512C140.621 12.512 57.6281 86.029 57.6281 180.555C57.6281 275.081 140.621 349.982 242.999 349.982C345.377 349.982 428.37 275.08 428.37 180.555Z" fill="#FFD3BD"/>
<path d="M183.44 21.2C110.279 43.3 57.6281 105.263 57.6281 180.552C57.6281 275.078 140.621 349.979 242.999 349.979C268.381 350.045 293.547 345.306 317.167 336.014C89.774 323.461 121.868 89.8139 183.44 21.2Z" fill="#FFBE9D"/>
<path d="M145.203 258.172C165.132 258.172 181.288 245.306 181.288 229.436C181.288 213.565 165.132 200.7 145.203 200.7C125.274 200.7 109.118 213.565 109.118 229.436C109.118 245.306 125.274 258.172 145.203 258.172Z" fill="#E7889D"/>
<path d="M340.795 258.172C360.724 258.172 376.88 245.306 376.88 229.436C376.88 213.565 360.724 200.7 340.795 200.7C320.866 200.7 304.71 213.565 304.71 229.436C304.71 245.306 320.866 258.172 340.795 258.172Z" fill="#E7889D"/>
<path d="M166.233 208.919C164.244 208.919 162.336 208.129 160.93 206.722C159.523 205.316 158.733 203.408 158.733 201.419V187.376C158.733 185.387 159.523 183.479 160.93 182.073C162.336 180.666 164.244 179.876 166.233 179.876C168.222 179.876 170.13 180.666 171.536 182.073C172.943 183.479 173.733 185.387 173.733 187.376V201.419C173.733 203.408 172.943 205.316 171.536 206.722C170.13 208.129 168.222 208.919 166.233 208.919Z" fill="#4E5660"/>
<path d="M242.999 218.054C238.091 218.053 233.24 216.999 228.774 214.965C224.307 212.931 220.329 209.963 217.106 206.261C215.811 204.76 215.162 202.807 215.303 200.829C215.444 198.851 216.362 197.009 217.857 195.707C219.352 194.404 221.302 193.746 223.281 193.878C225.259 194.009 227.105 194.918 228.415 196.407C230.229 198.494 232.469 200.168 234.985 201.315C237.501 202.461 240.234 203.055 243 203.055C245.765 203.055 248.498 202.461 251.014 201.315C253.53 200.168 255.77 198.494 257.584 196.407C258.894 194.918 260.74 194.009 262.718 193.878C264.697 193.746 266.647 194.404 268.142 195.707C269.637 197.009 270.555 198.851 270.696 200.829C270.837 202.807 270.188 204.76 268.893 206.261C265.67 209.963 261.691 212.931 257.225 214.965C252.758 217 247.907 218.053 242.999 218.054Z" fill="#4E5660"/>
<path d="M338.75 208.528C336.761 208.528 334.853 207.738 333.447 206.331C332.04 204.925 331.25 203.017 331.25 201.028C331.25 198.701 330.326 196.47 328.68 194.824C327.035 193.179 324.803 192.255 322.477 192.255C320.15 192.255 317.918 193.179 316.273 194.824C314.627 196.47 313.703 198.701 313.703 201.028C313.703 203.017 312.913 204.925 311.506 206.331C310.1 207.738 308.192 208.528 306.203 208.528C304.214 208.528 302.306 207.738 300.9 206.331C299.493 204.925 298.703 203.017 298.703 201.028C298.703 194.723 301.208 188.676 305.666 184.218C310.124 179.759 316.171 177.255 322.477 177.255C328.782 177.255 334.828 179.759 339.287 184.218C343.745 188.676 346.25 194.723 346.25 201.028C346.25 203.017 345.46 204.925 344.053 206.331C342.647 207.738 340.739 208.528 338.75 208.528Z" fill="#4E5660"/>
<path d="M362.071 108.229C370.895 141.681 390.264 181.046 413.197 203.629C414.502 204.9 416.114 205.811 417.876 206.274C419.638 206.737 421.49 206.736 423.251 206.27C425.012 205.805 426.623 204.892 427.927 203.62C429.23 202.348 430.182 200.759 430.69 199.01C446.812 144.18 442.499 0 242.999 0C43.4989 0 39.1899 144.18 55.3119 199.011C55.8205 200.759 56.7729 202.346 58.0763 203.618C59.3798 204.889 60.9901 205.801 62.7506 206.266C64.5111 206.731 66.3618 206.732 68.123 206.27C69.8841 205.808 71.4957 204.897 72.8009 203.628C95.7349 181.047 115.101 141.682 123.927 108.228H362.071V108.229Z" fill="#4E5660"/>
<path d="M242.999 75.047C221.545 75.047 160.084 75.047 77.1501 61.396C74.1501 60.9044 71.0717 61.3191 68.3087 62.587C65.5457 63.8548 63.2238 65.9181 61.6401 68.513C53.9131 81.2347 48.0643 95.0059 44.2751 109.4C43.9188 110.709 43.838 112.078 44.038 113.421C44.2379 114.763 44.7142 116.049 45.4367 117.198C46.1591 118.346 47.1121 119.333 48.2353 120.094C49.3585 120.856 50.6275 121.376 51.9621 121.622C115.007 132.97 178.94 138.665 242.998 138.639C267.057 138.639 338.473 138.639 433.988 121.604C435.326 121.361 436.599 120.843 437.727 120.082C438.854 119.321 439.811 118.334 440.538 117.184C441.264 116.034 441.743 114.746 441.946 113.401C442.148 112.056 442.069 110.684 441.713 109.371C437.929 95.0096 432.095 81.2686 424.39 68.572C422.812 65.9738 420.493 63.9071 417.73 62.6375C414.968 61.368 411.89 60.9537 408.89 61.448C354.056 70.4997 298.572 75.0482 242.996 75.048L242.999 75.047Z" fill="#E7889D"/>
<path d="M242.999 159.707C285.842 159.707 319.432 146.163 334.755 134.737C329.98 127.68 285.642 113.395 242.999 113.395C200.356 113.395 156.018 127.68 151.243 134.737C166.566 146.163 200.156 159.707 242.999 159.707Z" fill="#E16E7E"/>
<path d="M385.902 507.26C365.276 494.477 347.89 477.091 335.107 456.465C331.354 450.41 329.758 443.265 330.578 436.189C331.397 429.112 334.584 422.521 339.621 417.484L407.352 349.753C415.158 341.947 424.438 335.773 434.653 331.588C444.868 327.403 455.813 325.293 466.852 325.379C480.117 325.482 492.81 330.797 502.19 340.176C511.57 349.556 516.886 362.248 516.99 375.513C517.076 386.552 514.966 397.497 510.781 407.712C506.597 417.927 500.422 427.208 492.616 435.013L424.885 502.744C419.849 507.782 413.257 510.969 406.181 511.789C399.105 512.608 391.96 511.012 385.905 507.259L385.902 507.26Z" fill="#E7889D"/>
<path d="M385.902 507.26C365.276 494.477 347.89 477.091 335.107 456.465C331.354 450.41 329.758 443.265 330.578 436.189C331.397 429.112 334.584 422.521 339.621 417.484L407.352 349.753C415.158 341.947 424.438 335.773 434.653 331.588C444.868 327.403 455.813 325.293 466.852 325.379C480.117 325.482 492.81 330.797 502.19 340.176C511.57 349.556 516.886 362.248 516.99 375.513C517.076 386.552 514.966 397.497 510.781 407.712C506.597 417.927 500.422 427.208 492.616 435.013L424.885 502.744C419.849 507.782 413.257 510.969 406.181 511.789C399.105 512.608 391.96 511.012 385.905 507.259L385.902 507.26Z" fill="#E7889D"/>
<path d="M404.83 352.275L339.621 417.484C334.584 422.521 331.397 429.113 330.578 436.189C329.759 443.265 331.355 450.41 335.107 456.465C347.891 477.093 365.279 494.481 385.907 507.265C391.962 511.018 399.107 512.614 406.183 511.794C413.259 510.975 419.851 507.788 424.888 502.751L440.92 486.719C399.558 454.85 397.655 386.111 404.83 352.275Z" fill="#E16E7E"/>
<path d="M389.462 425.635C387.98 425.634 386.531 425.193 385.299 424.369C384.067 423.545 383.106 422.374 382.539 421.004C381.972 419.635 381.824 418.128 382.112 416.674C382.401 415.22 383.114 413.884 384.162 412.835L420.69 376.305C422.109 374.959 423.997 374.221 425.952 374.247C427.907 374.273 429.774 375.061 431.157 376.444C432.539 377.827 433.326 379.695 433.351 381.65C433.376 383.606 432.637 385.493 431.29 386.911L394.763 423.438C394.068 424.135 393.241 424.688 392.332 425.065C391.422 425.442 390.447 425.636 389.462 425.635Z" fill="#4E5660"/>
<path d="M424.232 460.4C422.75 460.399 421.301 459.958 420.069 459.134C418.837 458.31 417.876 457.139 417.309 455.769C416.742 454.4 416.594 452.893 416.882 451.439C417.171 449.985 417.884 448.649 418.932 447.6L455.459 411.073C456.868 409.677 458.772 408.895 460.755 408.899C462.739 408.903 464.64 409.693 466.042 411.096C467.445 412.498 468.235 414.399 468.239 416.382C468.244 418.366 467.462 420.27 466.066 421.679L429.539 458.206C428.843 458.903 428.015 459.456 427.105 459.833C426.194 460.21 425.218 460.402 424.232 460.4Z" fill="#4E5660"/>
</svg>
