<svg width="512" height="512" viewBox="0 0 512 512" fill="none" xmlns="http://www.w3.org/2000/svg">
<path d="M169.935 286.453C169.935 271.646 164.053 257.445 153.583 246.975C143.113 236.505 128.912 230.623 114.105 230.623C73.5053 230.623 46.6433 272.612 63.1883 309.348C55.7858 317.306 50.8679 327.253 49.038 337.967C47.2081 348.68 48.546 359.695 52.8873 369.659C57.2287 379.624 64.3846 388.104 73.477 394.059C82.5693 400.013 93.2024 403.184 104.071 403.182C144.671 403.182 171.533 361.194 154.988 324.458C164.609 314.143 169.952 300.558 169.935 286.453Z" fill="#4E5660"/>
<path d="M327.535 286.453C327.535 271.646 333.417 257.445 343.887 246.975C354.358 236.505 368.558 230.623 383.365 230.623C423.965 230.623 450.827 272.612 434.282 309.348C441.685 317.306 446.603 327.253 448.433 337.967C450.262 348.68 448.925 359.695 444.583 369.659C440.242 379.624 433.086 388.104 423.994 394.059C414.901 400.013 404.268 403.184 393.399 403.182C352.799 403.182 325.937 361.194 342.482 324.458C332.861 314.143 327.519 300.558 327.535 286.453Z" fill="#4E5660"/>
<path d="M478.884 215.659C481.708 186.988 460.755 161.456 432.083 158.632C403.412 155.809 377.88 176.762 375.056 205.433C372.233 234.104 393.186 259.636 421.857 262.46C450.528 265.284 476.06 244.331 478.884 215.659Z" fill="#FFBE9D"/>
<path d="M75.8645 262.196C104.536 259.372 125.489 233.84 122.665 205.169C119.841 176.498 94.3096 155.544 65.6384 158.368C36.9672 161.192 16.0138 186.724 18.8377 215.395C21.6615 244.066 47.1933 265.02 75.8645 262.196Z" fill="#FFD3BD"/>
<path d="M67.056 286.612C78.0166 286.612 86.902 277.727 86.902 266.766C86.902 255.805 78.0166 246.92 67.056 246.92C56.0953 246.92 47.21 255.805 47.21 266.766C47.21 277.727 56.0953 286.612 67.056 286.612Z" fill="#88D37F"/>
<path d="M430.414 286.612C441.375 286.612 450.26 277.727 450.26 266.766C450.26 255.805 441.375 246.92 430.414 246.92C419.454 246.92 410.568 255.805 410.568 266.766C410.568 277.727 419.454 286.612 430.414 286.612Z" fill="#88D37F"/>
<path d="M384.911 461.359C387.581 461.369 390.223 460.808 392.659 459.714C395.096 458.621 397.271 457.02 399.039 455.019C400.807 453.018 402.127 450.662 402.912 448.109C403.697 445.557 403.928 442.866 403.589 440.217C398.473 402.779 379.968 368.462 351.498 343.617C323.028 318.773 286.521 305.084 248.735 305.084C210.949 305.084 174.442 318.773 145.972 343.617C117.502 368.462 98.9966 402.779 93.8809 440.217C93.5423 442.866 93.7731 445.557 94.5577 448.109C95.3424 450.662 96.6629 453.018 98.431 455.019C100.199 457.02 102.374 458.621 104.81 459.714C107.247 460.808 109.888 461.369 112.559 461.359H384.911Z" fill="#E7889D"/>
<path d="M170.207 313.7H206.2V407.179H170.207V313.7Z" fill="#FBF1CF"/>
<path d="M208.535 407.175H167.874C164.901 407.175 162.049 408.356 159.946 410.459C157.843 412.562 156.662 415.413 156.662 418.387V461.36H219.747V418.387C219.747 416.915 219.457 415.457 218.894 414.096C218.33 412.736 217.504 411.5 216.463 410.459C215.422 409.418 214.186 408.592 212.826 408.029C211.465 407.465 210.007 407.175 208.535 407.175Z" fill="#4E5660"/>
<path d="M327.263 407.17H291.27V313.691H327.263V407.17Z" fill="#FBF1CF"/>
<path d="M288.935 407.175H329.596C332.569 407.175 335.421 408.356 337.524 410.459C339.626 412.562 340.808 415.413 340.808 418.387V461.36H277.724V418.387C277.724 416.915 278.013 415.457 278.577 414.096C279.14 412.736 279.966 411.5 281.007 410.459C282.048 409.418 283.284 408.592 284.644 408.029C286.004 407.465 287.462 407.175 288.935 407.175Z" fill="#4E5660"/>
<path d="M428.053 202.135C428.053 110.7 347.769 39.579 248.735 39.579C149.701 39.579 69.417 110.7 69.417 202.135C69.417 293.57 149.701 366.03 248.735 366.03C347.769 366.03 428.053 293.574 428.053 202.135Z" fill="#FFD3BD"/>
<path d="M191.12 47.9871C120.349 69.3661 69.4199 129.304 69.4199 202.135C69.4199 293.574 149.704 366.035 248.738 366.035C273.292 366.099 297.636 361.515 320.485 352.526C100.513 340.375 131.559 114.357 191.12 47.9871Z" fill="#FFBE9D"/>
<path d="M151.914 286.453C171.645 286.453 187.639 273.715 187.639 258.003C187.639 242.29 171.645 229.553 151.914 229.553C132.184 229.553 116.189 242.29 116.189 258.003C116.189 273.715 132.184 286.453 151.914 286.453Z" fill="#E7889D"/>
<path d="M345.556 286.453C365.286 286.453 381.281 273.715 381.281 258.003C381.281 242.29 365.286 229.553 345.556 229.553C325.826 229.553 309.831 242.29 309.831 258.003C309.831 273.715 325.826 286.453 345.556 286.453Z" fill="#E7889D"/>
<path d="M189.736 234.545C187.746 234.545 185.839 233.755 184.432 232.348C183.026 230.942 182.236 229.034 182.236 227.045C182.236 224.524 181.234 222.107 179.452 220.324C177.669 218.542 175.252 217.541 172.731 217.541C170.21 217.541 167.793 218.542 166.01 220.324C164.228 222.107 163.227 224.524 163.227 227.045C163.227 229.034 162.436 230.942 161.03 232.348C159.623 233.755 157.716 234.545 155.727 234.545C153.737 234.545 151.83 233.755 150.423 232.348C149.017 230.942 148.227 229.034 148.227 227.045C148.227 220.546 150.808 214.313 155.404 209.718C159.999 205.122 166.232 202.541 172.731 202.541C179.23 202.541 185.463 205.122 190.058 209.718C194.654 214.313 197.236 220.546 197.236 227.045C197.236 229.034 196.445 230.942 195.039 232.348C193.632 233.755 191.725 234.545 189.736 234.545Z" fill="#4E5660"/>
<path d="M341.74 234.545C339.751 234.545 337.844 233.755 336.437 232.348C335.031 230.942 334.24 229.034 334.24 227.045C334.24 224.524 333.239 222.107 331.457 220.324C329.674 218.542 327.257 217.541 324.736 217.541C322.215 217.541 319.798 218.542 318.015 220.324C316.233 222.107 315.231 224.524 315.231 227.045C315.231 229.034 314.441 230.942 313.035 232.348C311.628 233.755 309.721 234.545 307.731 234.545C305.742 234.545 303.835 233.755 302.428 232.348C301.022 230.942 300.231 229.034 300.231 227.045C300.231 220.546 302.813 214.313 307.409 209.718C312.004 205.122 318.237 202.541 324.736 202.541C331.235 202.541 337.468 205.122 342.063 209.718C346.659 214.313 349.24 220.546 349.24 227.045C349.24 229.034 348.45 230.942 347.044 232.348C345.637 233.755 343.73 234.545 341.74 234.545Z" fill="#4E5660"/>
<path d="M248.736 262.637C244.245 262.636 239.807 261.672 235.721 259.811C231.634 257.95 227.994 255.234 225.045 251.847C223.738 250.347 223.081 248.39 223.217 246.406C223.353 244.421 224.272 242.572 225.772 241.265C227.272 239.958 229.229 239.301 231.214 239.437C233.198 239.573 235.047 240.492 236.354 241.992C237.893 243.765 239.796 245.187 241.932 246.161C244.068 247.135 246.389 247.639 248.737 247.639C251.085 247.639 253.406 247.135 255.542 246.161C257.678 245.187 259.58 243.765 261.12 241.992C262.427 240.492 264.276 239.573 266.26 239.437C268.245 239.301 270.202 239.958 271.702 241.265C273.202 242.572 274.121 244.421 274.257 246.406C274.393 248.39 273.736 250.347 272.429 251.847C269.48 255.234 265.839 257.949 261.752 259.811C257.665 261.672 253.227 262.636 248.736 262.637Z" fill="#4E5660"/>
<path d="M116.189 167.809C116.19 163.251 115.108 158.758 113.032 154.699C110.956 150.641 107.946 147.135 104.248 144.469C100.551 141.802 96.2734 140.053 91.7674 139.364C87.2615 138.676 82.6564 139.068 78.3317 140.509C74.007 141.949 70.0865 144.397 66.8933 147.649C63.7001 150.902 61.3257 154.868 59.9656 159.218C58.6056 163.569 58.2988 168.18 59.0707 172.673C59.8426 177.165 61.671 181.41 64.4053 185.057C65.2261 186.136 65.6843 187.448 65.7141 188.803C65.7439 190.159 65.3439 191.489 64.5713 192.603C61.8538 196.531 60.2485 201.12 59.9251 205.886C59.6017 210.651 60.5722 215.415 62.7341 219.675C64.8959 223.934 68.1687 227.529 72.2063 230.081C76.2438 232.633 80.896 234.046 85.6707 234.171C90.4454 234.296 95.1651 233.128 99.3307 230.791C103.496 228.454 106.953 225.035 109.334 220.895C111.716 216.754 112.935 212.048 112.861 207.272C112.787 202.496 111.424 197.829 108.916 193.764C108.206 192.62 107.877 191.281 107.975 189.939C108.073 188.596 108.594 187.319 109.462 186.291C113.816 181.117 116.199 174.571 116.189 167.809Z" fill="#4E5660"/>
<path d="M381.282 167.809C381.281 163.251 382.363 158.758 384.439 154.699C386.515 150.641 389.526 147.135 393.223 144.469C396.92 141.802 401.198 140.053 405.704 139.364C410.21 138.676 414.815 139.068 419.14 140.509C423.465 141.949 427.385 144.397 430.578 147.649C433.771 150.902 436.146 154.868 437.506 159.218C438.866 163.569 439.173 168.18 438.401 172.673C437.629 177.165 435.8 181.41 433.066 185.057C432.245 186.136 431.787 187.448 431.757 188.803C431.728 190.159 432.128 191.489 432.9 192.603C435.618 196.531 437.223 201.12 437.546 205.886C437.87 210.651 436.899 215.415 434.737 219.675C432.576 223.934 429.303 227.529 425.265 230.081C421.228 232.633 416.576 234.046 411.801 234.171C407.026 234.296 402.306 233.128 398.141 230.791C393.975 228.454 390.519 225.035 388.137 220.895C385.755 216.754 384.537 212.048 384.61 207.272C384.684 202.496 386.047 197.829 388.555 193.764C389.265 192.62 389.595 191.281 389.497 189.939C389.399 188.596 388.878 187.319 388.009 186.291C383.655 181.118 381.272 174.571 381.282 167.809Z" fill="#4E5660"/>
<path d="M248.735 141.064C272.408 141.064 363.703 133.875 418.446 127.515C411.815 48.3 335.459 0 248.735 0C162.011 0 85.6554 48.3 79.0244 127.516C133.767 133.875 225.062 141.064 248.735 141.064Z" fill="#E7889D"/>
<path d="M167.961 15.342C118.999 35.486 83.4534 74.6 79.0244 127.516C97.0094 129.605 118.94 131.784 141.124 133.768C132.036 98.315 142.424 49.225 167.963 15.342H167.961Z" fill="#E16E7E"/>
<path d="M314.779 51.663C302.444 31.981 285.292 14.817 263.719 0.492037C258.767 0.170037 253.772 0.00603675 248.735 3.67532e-05C243.699 -0.00596325 238.704 0.158037 233.751 0.492037C212.177 14.817 195.025 31.982 182.691 51.663C167.522 75.863 159.569 104.001 158.984 135.319C164.031 135.744 169.037 136.156 173.962 136.549C174.699 81.414 199.835 38.431 248.735 8.72004C297.635 38.43 322.771 81.414 323.508 136.549C328.433 136.155 333.439 135.749 338.486 135.319C337.9 104.001 329.947 75.867 314.779 51.663Z" fill="#E16E7E"/>
<path d="M248.735 173.893C181.309 173.893 106.03 166.522 74.4174 161.876C66.0644 160.648 58.5412 156.153 53.5029 149.378C48.4645 142.604 46.3237 134.105 47.5514 125.752C48.7791 117.399 53.2747 109.876 60.0493 104.838C66.8238 99.7992 75.3224 97.6584 83.6754 98.8861C113.507 103.271 184.7 110.227 248.735 110.227C312.77 110.227 383.963 103.271 413.795 98.8861C422.148 97.6584 430.647 99.7992 437.422 104.838C444.196 109.876 448.692 117.399 449.919 125.752C451.147 134.105 449.006 142.604 443.968 149.378C438.93 156.153 431.406 160.648 423.053 161.876C391.435 166.522 316.161 173.893 248.735 173.893Z" fill="#E16E7E"/>
<path d="M100.944 502.466C116.403 517.925 145.202 514.19 165.269 494.124C185.336 474.058 189.069 445.258 173.611 429.799L100.699 356.887L28.0352 429.554L100.944 502.466Z" fill="#E0B799"/>
<path d="M149.341 448.544C162.229 448.544 172.29 444.789 180.641 440.625C179.073 436.568 176.679 432.881 173.612 429.797L171.96 428.145C164.922 431.621 157.191 433.467 149.342 433.545C137.563 433.545 109.952 417.145 104.633 368.395C104.526 367.416 104.227 366.467 103.754 365.604C103.28 364.74 102.641 363.978 101.873 363.361C101.105 362.744 100.223 362.285 99.2779 362.009C98.3324 361.733 97.3418 361.646 96.3626 361.753C96.1486 361.776 95.9386 361.814 95.7316 361.853L89.8136 367.771C89.6695 368.512 89.6382 369.27 89.7206 370.02C95.6346 424.183 128.143 448.544 149.341 448.544Z" fill="#D1986F"/>
<path d="M87.5561 489.078C113.524 476.978 142.211 483.921 159.341 499.389C163.292 496.281 166.878 492.734 170.029 488.817C158.477 478.342 144.113 471.475 128.706 469.064C110.774 466.134 92.3765 469.255 76.4141 477.935L87.5561 489.078Z" fill="#D1986F"/>
<path d="M92.317 421.175C112.384 401.109 116.119 372.309 100.659 356.85C85.2002 341.39 56.4007 345.125 36.334 365.192C16.2673 385.259 12.5322 414.058 27.9915 429.518C43.4508 444.977 72.2503 441.242 92.317 421.175Z" fill="#FBF1CF"/>
<path d="M58.3398 387.2C54.0208 391.519 53.2168 397.718 56.5398 401.046C59.8628 404.374 66.0668 403.57 70.3858 399.246C74.7048 394.922 75.5088 388.728 72.1858 385.4C68.8628 382.072 62.6598 382.876 58.3398 387.2Z" fill="#F5E2A2"/>
<path d="M475.985 329.467L462.985 316.467C461.072 314.554 458.478 313.48 455.773 313.48C453.068 313.48 450.474 314.554 448.561 316.467L347.788 417.239L375.213 444.664L475.985 343.891C477.898 341.978 478.972 339.384 478.972 336.679C478.972 333.974 477.898 331.38 475.985 329.467Z" fill="#E0B799"/>
<path d="M375.213 444.664L421.025 398.852C415.125 396.694 404.458 391.122 388.237 376.79L347.788 417.239L375.213 444.664Z" fill="#D1986F"/>
<path d="M366.444 387.462C394.88 414.262 414.144 422.331 425.695 422.78C427.901 422.867 430.022 423.658 431.747 425.037C433.472 426.416 434.71 428.311 435.28 430.445C442.299 456.979 431.611 477.111 418.862 489.86C406.113 502.609 385.982 513.297 359.448 506.278C357.314 505.708 355.419 504.47 354.039 502.746C352.66 501.021 351.869 498.9 351.783 496.693C351.333 485.144 343.26 465.878 316.464 437.442C314.616 435.468 313.609 432.853 313.656 430.149C313.703 427.446 314.8 424.867 316.715 422.958L351.961 387.712C353.869 385.797 356.448 384.7 359.152 384.653C361.855 384.606 364.47 385.614 366.444 387.462Z" fill="#A2DDFD"/>
<path d="M435.28 430.445C434.71 428.311 433.472 426.416 431.747 425.037C430.023 423.657 427.902 422.867 425.695 422.78C420.477 422.58 413.677 420.808 405.174 416.469C410.042 437.025 401.642 452.669 391.655 462.654C381.668 472.639 366.026 481.041 345.47 476.173C349.81 484.673 351.578 491.473 351.781 496.693C351.867 498.9 352.658 501.021 354.038 502.746C355.417 504.47 357.312 505.708 359.446 506.278C385.98 513.297 406.112 502.608 418.86 489.86C431.608 477.112 442.299 456.979 435.28 430.445Z" fill="#8DAEE1"/>
</svg>
