<svg width="512" height="512" viewBox="0 0 512 512" fill="none" xmlns="http://www.w3.org/2000/svg">
<path d="M400.385 290.664C400.385 333.349 397.38 379.046 415.385 418.994C416.973 422.533 417.183 426.536 415.975 430.222C414.767 433.908 412.228 437.01 408.854 438.923C368.77 461.634 287.031 475.712 243.291 475.712C199.551 475.712 117.814 461.633 77.73 438.923C74.3558 437.01 71.8165 433.908 70.6086 430.222C69.4008 426.536 69.6113 422.533 71.199 418.994C89.206 379.046 86.199 333.349 86.199 290.664H400.385Z" fill="#D1986F"/>
<path d="M403.519 323.738C429.442 323.738 450.456 302.724 450.456 276.801C450.456 250.878 429.442 229.864 403.519 229.864C377.596 229.864 356.582 250.878 356.582 276.801C356.582 302.724 377.596 323.738 403.519 323.738Z" fill="#FFBE9D"/>
<path d="M83.0683 323.738C108.991 323.738 130.005 302.724 130.005 276.801C130.005 250.878 108.991 229.864 83.0683 229.864C57.1458 229.864 36.1313 250.878 36.1313 276.801C36.1313 302.724 57.1458 323.738 83.0683 323.738Z" fill="#FFD3BD"/>
<path d="M362.51 507.153C364.848 507.161 367.161 506.671 369.294 505.713C371.427 504.756 373.331 503.355 374.879 501.603C376.427 499.85 377.583 497.788 378.269 495.553C378.956 493.319 379.158 490.963 378.861 488.644C374.383 455.869 358.182 425.826 333.257 404.076C308.333 382.326 276.373 370.342 243.293 370.342C210.214 370.342 178.254 382.326 153.33 404.076C128.405 425.826 112.204 455.869 107.725 488.644C107.429 490.963 107.631 493.319 108.318 495.553C109.005 497.788 110.161 499.85 111.709 501.603C113.257 503.355 115.161 504.756 117.294 505.713C119.427 506.671 121.739 507.161 124.077 507.153H362.51Z" fill="#4E5660"/>
<path d="M287.672 426.468H198.911L213.756 507.153H272.831L287.672 426.468Z" fill="#FBF1CF"/>
<path d="M404.64 266.714C404.64 184.439 332.403 120.45 243.294 120.45C154.185 120.45 81.9482 184.439 81.9482 266.714C81.9482 348.989 154.185 414.183 243.294 414.183C332.403 414.183 404.64 348.989 404.64 266.714Z" fill="#FFD3BD"/>
<path d="M191.453 128.015C127.772 147.252 81.9473 201.182 81.9473 266.714C81.9473 348.989 154.184 414.183 243.294 414.183C265.387 414.24 287.291 410.116 307.85 402.028C109.926 391.1 137.861 187.733 191.453 128.015Z" fill="#FFBE9D"/>
<path d="M148.904 331.34C168.139 331.34 183.732 318.922 183.732 303.605C183.732 288.287 168.139 275.87 148.904 275.87C129.669 275.87 114.076 288.287 114.076 303.605C114.076 318.922 129.669 331.34 148.904 331.34Z" fill="#E7889D"/>
<path d="M337.683 331.34C356.918 331.34 372.511 318.922 372.511 303.605C372.511 288.287 356.918 275.87 337.683 275.87C318.448 275.87 302.855 288.287 302.855 303.605C302.855 318.922 318.448 331.34 337.683 331.34Z" fill="#E7889D"/>
<path d="M169.202 284.406C167.213 284.406 165.305 283.616 163.899 282.209C162.492 280.803 161.702 278.895 161.702 276.906V262.669C161.702 260.68 162.492 258.772 163.899 257.366C165.305 255.959 167.213 255.169 169.202 255.169C171.191 255.169 173.099 255.959 174.505 257.366C175.912 258.772 176.702 260.68 176.702 262.669V276.906C176.702 278.895 175.912 280.803 174.505 282.209C173.099 283.616 171.191 284.406 169.202 284.406Z" fill="#4E5660"/>
<path d="M317.385 284.406C315.396 284.406 313.488 283.616 312.082 282.209C310.675 280.803 309.885 278.895 309.885 276.906V262.669C309.885 260.68 310.675 258.772 312.082 257.366C313.488 255.959 315.396 255.169 317.385 255.169C319.374 255.169 321.282 255.959 322.689 257.366C324.095 258.772 324.885 260.68 324.885 262.669V276.906C324.885 278.895 324.095 280.803 322.689 282.209C321.282 283.616 319.374 284.406 317.385 284.406Z" fill="#4E5660"/>
<path d="M243.293 292.881C238.519 292.88 233.8 291.855 229.455 289.876C225.11 287.898 221.239 285.011 218.104 281.41C217.457 280.667 216.962 279.805 216.649 278.871C216.335 277.937 216.208 276.951 216.276 275.968C216.343 274.986 216.604 274.026 217.042 273.144C217.481 272.262 218.088 271.475 218.831 270.828C219.574 270.181 220.436 269.686 221.37 269.373C222.304 269.059 223.29 268.932 224.273 269C225.255 269.067 226.215 269.328 227.097 269.766C227.979 270.205 228.766 270.812 229.413 271.555C231.139 273.541 233.271 275.134 235.666 276.226C238.06 277.317 240.661 277.882 243.293 277.882C245.924 277.882 248.525 277.317 250.919 276.226C253.314 275.134 255.446 273.541 257.172 271.555C258.479 270.055 260.328 269.136 262.312 269C264.297 268.863 266.254 269.521 267.754 270.828C269.254 272.135 270.173 273.984 270.309 275.968C270.445 277.953 269.788 279.91 268.481 281.41C265.346 285.011 261.476 287.898 257.131 289.876C252.786 291.855 248.067 292.88 243.293 292.881Z" fill="#4E5660"/>
<path d="M243.293 120.45C394.051 120.45 421.958 238.15 409.472 283.464C409.055 284.944 408.299 286.306 407.263 287.443C406.228 288.579 404.941 289.459 403.507 290.011C402.072 290.564 400.528 290.774 398.997 290.626C397.467 290.478 395.992 289.975 394.69 289.157C361.82 268.79 344.253 234.204 334.655 207.543C320.72 221.517 277.887 229.865 243.293 209.811C208.699 229.864 165.866 221.516 151.931 207.543C142.331 234.204 124.766 268.79 91.8963 289.157C90.5943 289.975 89.1195 290.478 87.5891 290.626C86.0588 290.774 84.5149 290.564 83.0801 290.011C81.6453 289.459 80.359 288.579 79.3234 287.443C78.2879 286.306 77.5315 284.944 77.1143 283.464C64.6283 238.146 92.5353 120.45 243.293 120.45Z" fill="#D1986F"/>
<path d="M338.057 157.625C334.369 131.712 334.863 82.879 343.63 28.493C344.368 24.0338 343.385 19.4609 340.881 15.6982C338.377 11.9355 334.538 9.26349 330.14 8.222C308.36 3.167 272.023 0 243.293 0C214.563 0 178.227 3.167 156.446 8.223C152.048 9.26427 148.209 11.9363 145.705 15.699C143.201 19.4618 142.218 24.0348 142.956 28.494C151.722 82.88 152.217 131.713 148.529 157.626H338.057V157.625Z" fill="#4E5660"/>
<path d="M214.353 157.625C192.872 132.782 187.824 50.583 193.958 2.53296C181.35 3.66292 168.822 5.56313 156.446 8.22296C152.048 9.26423 148.209 11.9362 145.705 15.699C143.201 19.4618 142.218 24.0348 142.956 28.494C151.722 82.88 152.217 131.713 148.529 157.625H214.353Z" fill="#383C43"/>
<path d="M338.057 157.625C335.788 141.68 335.106 117.05 336.957 87.7959C309.043 84.8709 271.349 83.5129 243.294 83.5129C215.239 83.5129 177.545 84.8709 149.631 87.7959C151.481 117.05 150.8 141.68 148.531 157.625H338.057Z" fill="#8DAEE1"/>
<path d="M338.057 157.625C335.788 141.68 335.106 117.05 336.957 87.7959C309.043 84.8709 271.349 83.5129 243.294 83.5129C215.239 83.5129 177.545 84.8709 149.631 87.7959C151.481 117.05 150.8 141.68 148.531 157.625H338.057Z" fill="#8DAEE1"/>
<path d="M214.353 157.625C203.119 144.635 196.38 115.971 193.385 84.696C177.985 85.396 162.729 86.423 149.63 87.796C151.48 117.05 150.799 141.68 148.53 157.625H214.353Z" fill="#6A95D6"/>
<path d="M349.007 173.824C325.178 169.753 277.789 167.624 243.293 167.624C208.797 167.624 161.408 169.754 137.579 173.824C134.976 174.269 132.31 174.196 129.734 173.611C127.159 173.026 124.724 171.939 122.568 170.412C120.413 168.886 118.579 166.949 117.172 164.714C115.764 162.479 114.811 159.989 114.366 157.385C113.922 154.781 113.994 152.116 114.579 149.54C115.165 146.964 116.252 144.529 117.778 142.374C120.861 138.021 125.547 135.07 130.805 134.172C158.054 129.517 208.216 127.397 243.293 127.397C278.37 127.397 328.531 129.517 355.78 134.172C361.038 135.07 365.725 138.02 368.808 142.373C371.891 146.727 373.118 152.126 372.22 157.384C371.322 162.643 368.372 167.329 364.018 170.412C359.665 173.495 354.266 174.722 349.007 173.824Z" fill="#4E5660"/>
<path d="M258.991 413.845L296.378 402.408C298.599 401.729 300.968 401.703 303.203 402.332C305.438 402.961 307.445 404.22 308.985 405.958C310.525 407.696 311.533 409.84 311.889 412.134C312.245 414.429 311.933 416.777 310.992 418.9L306.105 429.918C305.489 431.308 305.17 432.812 305.17 434.333C305.17 435.853 305.489 437.357 306.105 438.747L310.992 449.764C311.934 451.887 312.245 454.235 311.889 456.53C311.534 458.825 310.526 460.969 308.986 462.707C307.446 464.445 305.438 465.704 303.203 466.333C300.968 466.963 298.599 466.936 296.378 466.257L258.991 454.82V413.845Z" fill="#E7889D"/>
<path d="M227.595 413.845L190.208 402.408C187.988 401.729 185.619 401.703 183.384 402.332C181.149 402.961 179.142 404.22 177.602 405.958C176.062 407.696 175.054 409.84 174.698 412.134C174.342 414.429 174.653 416.777 175.594 418.9L180.481 429.918C181.098 431.308 181.417 432.812 181.417 434.333C181.417 435.853 181.098 437.357 180.481 438.747L175.594 449.764C174.653 451.887 174.341 454.235 174.697 456.53C175.053 458.825 176.061 460.969 177.601 462.707C179.141 464.445 181.148 465.704 183.383 466.333C185.619 466.963 187.988 466.936 190.208 466.257L227.595 454.82V413.845Z" fill="#E7889D"/>
<path d="M243.293 459.791C258.487 459.791 270.803 448.393 270.803 434.333C270.803 420.273 258.487 408.875 243.293 408.875C228.1 408.875 215.783 420.273 215.783 434.333C215.783 448.393 228.1 459.791 243.293 459.791Z" fill="#E16E7E"/>
<path d="M403.823 415.93L342.758 476.995C339.51 480.244 337.685 484.651 337.685 489.245C337.685 493.839 339.51 498.246 342.758 501.495L348.186 506.923C351.435 510.171 355.842 511.996 360.436 511.996C365.03 511.996 369.437 510.171 372.686 506.923L433.751 445.858L403.823 415.93Z" fill="#8DAEE1"/>
<path d="M374.948 444.8L342.757 476.99C339.509 480.239 337.684 484.646 337.684 489.24C337.684 493.834 339.509 498.241 342.757 501.49L348.185 506.918C351.434 510.166 355.841 511.991 360.435 511.991C365.029 511.991 369.436 510.166 372.685 506.918L384.91 494.7C377.052 484.877 372.516 463.3 374.948 444.8Z" fill="#6A95D6"/>
<path d="M433.753 445.86L403.822 415.929L421.501 398.25C424.75 395.002 429.157 393.177 433.751 393.177C438.346 393.177 442.752 395.002 446.001 398.25L451.429 403.678C454.678 406.927 456.503 411.333 456.503 415.928C456.503 420.522 454.678 424.929 451.429 428.178L433.753 445.86Z" fill="#FBF1CF"/>
<path d="M489.042 413.7L482.257 426.671C481.398 428.313 480.106 429.688 478.521 430.648C476.936 431.608 475.118 432.115 473.265 432.115C471.412 432.115 469.595 431.608 468.01 430.648C466.424 429.688 465.132 428.313 464.273 426.671L457.488 413.7C456.529 411.866 455.033 410.37 453.199 409.411L440.228 402.626C438.586 401.767 437.211 400.475 436.251 398.89C435.292 397.305 434.784 395.487 434.784 393.634C434.784 391.781 435.292 389.963 436.251 388.378C437.211 386.793 438.586 385.501 440.228 384.642L453.199 377.857C455.033 376.898 456.529 375.401 457.488 373.568L464.272 360.6C465.131 358.958 466.423 357.583 468.009 356.623C469.594 355.663 471.411 355.156 473.264 355.156C475.117 355.156 476.935 355.663 478.52 356.623C480.105 357.583 481.397 358.958 482.256 360.6L489.041 373.571C490 375.404 491.496 376.901 493.329 377.86L506.3 384.645C507.942 385.504 509.318 386.796 510.277 388.381C511.237 389.966 511.745 391.784 511.745 393.637C511.745 395.49 511.237 397.308 510.277 398.893C509.318 400.478 507.942 401.77 506.3 402.629L493.329 409.414C491.497 410.373 490.001 411.868 489.042 413.7Z" fill="#EED076"/>
<path d="M71.2572 114.419L64.4722 127.39C63.6133 129.032 62.3212 130.407 60.736 131.367C59.1509 132.327 57.3332 132.834 55.4802 132.834C53.6272 132.834 51.8095 132.327 50.2244 131.367C48.6392 130.407 47.3471 129.032 46.4882 127.39L39.7032 114.419C38.7443 112.586 37.2482 111.089 35.4152 110.13L22.4442 103.345C20.8022 102.486 19.4268 101.194 18.4671 99.6088C17.5074 98.0237 17 96.206 17 94.353C17 92.5 17.5074 90.6823 18.4671 89.0972C19.4268 87.512 20.8022 86.2199 22.4442 85.361L35.4152 78.576C37.2486 77.6173 38.7449 76.1207 39.7032 74.287L46.4882 61.316C47.3471 59.6741 48.6392 58.2986 50.2244 57.3389C51.8095 56.3792 53.6272 55.8718 55.4802 55.8718C57.3332 55.8718 59.1509 56.3792 60.736 57.3389C62.3212 58.2986 63.6133 59.6741 64.4722 61.316L71.2572 74.287C72.2162 76.1205 73.7127 77.617 75.5462 78.576L88.5172 85.361C90.1591 86.2199 91.5346 87.512 92.4943 89.0972C93.454 90.6823 93.9614 92.5 93.9614 94.353C93.9614 96.206 93.454 98.0237 92.4943 99.6088C91.5346 101.194 90.1591 102.486 88.5172 103.345L75.5462 110.13C73.7127 111.089 72.2162 112.586 71.2572 114.419Z" fill="#8DAEE1"/>
</svg>
