<svg width="512" height="512" viewBox="0 0 512 512" fill="none" xmlns="http://www.w3.org/2000/svg">
<path d="M497.872 223.425C500.925 192.744 478.527 165.398 447.846 162.345C417.164 159.292 389.817 181.689 386.765 212.37C383.712 243.051 406.11 270.398 436.791 273.45C467.472 276.503 494.819 254.106 497.872 223.425Z" fill="#FFBE9D"/>
<path d="M66.6102 273.241C97.2917 270.188 119.689 242.842 116.637 212.161C113.584 181.48 86.2371 159.083 55.5557 162.136C24.8742 165.188 2.4766 192.535 5.52922 223.216C8.58185 253.897 35.9287 276.294 66.6102 273.241Z" fill="#FFD3BD"/>
<path d="M397.298 492.03C400.156 492.04 402.984 491.44 405.591 490.27C408.199 489.099 410.527 487.386 412.419 485.243C414.311 483.101 415.725 480.58 416.564 477.847C417.403 475.115 417.65 472.235 417.287 469.4C411.811 429.335 392.005 392.61 361.536 366.022C331.068 339.435 291.999 324.786 251.561 324.786C211.123 324.786 172.054 339.435 141.585 366.022C111.117 392.61 91.3114 429.335 85.8349 469.4C85.4725 472.235 85.7195 475.114 86.5592 477.846C87.3989 480.578 88.8121 483.099 90.7043 485.241C92.5965 487.383 94.9241 489.096 97.5315 490.266C100.139 491.436 102.966 492.036 105.824 492.026H397.298V492.03Z" fill="#8DAEE1"/>
<path d="M443.469 210.064C443.469 112.2 357.549 36.1 251.561 36.1C145.573 36.1 59.6533 112.205 59.6533 210.064C59.6533 307.923 145.573 385.464 251.561 385.464C357.549 385.464 443.469 307.922 443.469 210.064Z" fill="#FFD3BD"/>
<path d="M189.901 45.094C114.161 67.974 59.6533 132.12 59.6533 210.064C59.6533 307.923 145.573 385.464 251.561 385.464C277.839 385.532 303.892 380.627 328.345 371.007C92.9323 358.01 126.161 116.124 189.901 45.094Z" fill="#FFBE9D"/>
<path d="M148.099 283.372C169.181 283.372 186.271 269.762 186.271 252.974C186.271 236.186 169.181 222.576 148.099 222.576C127.017 222.576 109.927 236.186 109.927 252.974C109.927 269.762 127.017 283.372 148.099 283.372Z" fill="#E7889D"/>
<path d="M355.003 283.372C376.085 283.372 393.175 269.762 393.175 252.974C393.175 236.186 376.085 222.576 355.003 222.576C333.921 222.576 316.831 236.186 316.831 252.974C316.831 269.762 333.921 283.372 355.003 283.372Z" fill="#E7889D"/>
<path d="M170.345 231.212C168.356 231.212 166.448 230.422 165.041 229.015C163.635 227.609 162.845 225.701 162.845 223.712V208.112C162.845 206.123 163.635 204.215 165.041 202.809C166.448 201.402 168.356 200.612 170.345 200.612C172.334 200.612 174.242 201.402 175.648 202.809C177.055 204.215 177.845 206.123 177.845 208.112V223.712C177.845 225.701 177.055 227.609 175.648 229.015C174.242 230.422 172.334 231.212 170.345 231.212Z" fill="#4E5660"/>
<path d="M332.761 231.212C330.772 231.212 328.864 230.422 327.457 229.015C326.051 227.609 325.261 225.701 325.261 223.712V208.112C325.261 206.123 326.051 204.215 327.457 202.809C328.864 201.402 330.772 200.612 332.761 200.612C334.75 200.612 336.658 201.402 338.064 202.809C339.471 204.215 340.261 206.123 340.261 208.112V223.712C340.261 225.701 339.471 227.609 338.064 229.015C336.658 230.422 334.75 231.212 332.761 231.212Z" fill="#4E5660"/>
<path d="M251.551 240.5C246.421 240.499 241.351 239.398 236.682 237.271C232.014 235.145 227.856 232.042 224.488 228.173C223.207 226.67 222.571 224.723 222.717 222.753C222.863 220.784 223.78 218.952 225.269 217.655C226.758 216.357 228.698 215.699 230.669 215.824C232.64 215.948 234.482 216.845 235.796 218.319C237.755 220.574 240.175 222.382 242.893 223.62C245.611 224.859 248.563 225.5 251.551 225.5C254.538 225.5 257.49 224.859 260.208 223.62C262.926 222.382 265.346 220.574 267.306 218.319C267.953 217.577 268.74 216.969 269.622 216.53C270.504 216.092 271.463 215.831 272.446 215.764C273.429 215.696 274.415 215.823 275.349 216.137C276.282 216.45 277.145 216.945 277.888 217.592C278.63 218.239 279.238 219.026 279.676 219.908C280.115 220.79 280.375 221.75 280.443 222.733C280.51 223.715 280.383 224.701 280.07 225.635C279.756 226.569 279.262 227.432 278.615 228.174C275.246 232.043 271.087 235.145 266.419 237.271C261.75 239.397 256.68 240.498 251.551 240.5Z" fill="#4E5660"/>
<path d="M251.541 20.257C453.708 20.257 463.663 158.912 450.841 216.232C450.268 218.798 448.967 221.145 447.094 222.991C445.221 224.837 442.856 226.103 440.281 226.638C437.707 227.174 435.033 226.955 432.579 226.009C430.126 225.063 427.997 223.429 426.449 221.304C408.349 196.295 384.462 147.639 378.493 124.192C363.985 147.871 305.473 167.206 251.552 120.713C197.631 167.206 139.119 147.871 124.611 124.192C118.643 147.638 94.7568 196.292 76.6548 221.304C75.1065 223.43 72.9779 225.064 70.5242 226.011C68.0705 226.957 65.3958 227.176 62.821 226.64C60.2461 226.105 57.8803 224.838 56.0072 222.992C54.1342 221.146 52.8334 218.799 52.2608 216.232C39.4388 158.913 49.3938 20.257 251.561 20.257H251.541Z" fill="#F6EE86"/>
<path d="M408.326 300.8C396.024 300.802 384.206 305.597 375.382 314.169C366.557 322.74 361.42 334.413 361.061 346.71L288.073 419.7C283.8 418.312 279.35 417.547 274.859 417.43C267.001 417.216 259.214 418.967 252.205 422.524C245.195 426.081 239.184 431.332 234.718 437.8C234.107 438.7 233.752 439.749 233.693 440.835C233.634 441.921 233.873 443.002 234.383 443.963C234.893 444.923 235.656 445.726 236.589 446.286C237.521 446.845 238.589 447.139 239.677 447.136H258.638C261.072 447.136 263.406 448.103 265.127 449.824C266.848 451.545 267.815 453.879 267.816 456.313V473.1C267.816 474.305 267.578 475.499 267.117 476.612C266.656 477.726 265.98 478.737 265.128 479.59C264.275 480.442 263.263 481.118 262.15 481.579C261.036 482.04 259.843 482.277 258.638 482.277H239.677C238.589 482.274 237.521 482.568 236.589 483.128C235.656 483.687 234.893 484.49 234.383 485.45C233.873 486.411 233.634 487.492 233.693 488.578C233.752 489.664 234.107 490.714 234.718 491.613C240.384 499.807 248.494 506.001 257.889 509.312C267.285 512.624 277.486 512.883 287.037 510.054C296.589 507.224 305.003 501.45 311.078 493.555C317.154 485.66 320.581 476.048 320.87 466.09L393.855 393.1C398.128 394.488 402.579 395.253 407.07 395.37C414.927 395.584 422.714 393.833 429.724 390.276C436.734 386.719 442.745 381.468 447.212 375C447.823 374.1 448.177 373.051 448.236 371.965C448.295 370.879 448.057 369.798 447.546 368.837C447.036 367.877 446.274 367.074 445.341 366.515C444.408 365.955 443.34 365.661 442.253 365.664H423.291C420.857 365.664 418.523 364.697 416.802 362.976C415.081 361.255 414.114 358.921 414.114 356.487V339.7C414.114 337.266 415.081 334.931 416.802 333.21C418.523 331.489 420.858 330.522 423.292 330.522H442.253C443.34 330.525 444.408 330.231 445.341 329.672C446.274 329.112 447.036 328.309 447.546 327.349C448.057 326.388 448.295 325.307 448.236 324.221C448.177 323.135 447.823 322.086 447.212 321.186C442.866 314.893 437.056 309.75 430.282 306.199C423.509 302.648 415.974 300.795 408.326 300.8Z" fill="#4E5660"/>
<path d="M328.428 426.435C326.946 426.434 325.497 425.993 324.265 425.169C323.033 424.345 322.072 423.174 321.505 421.804C320.938 420.435 320.789 418.928 321.078 417.474C321.367 416.02 322.08 414.684 323.128 413.635L348.2 388.563C349.607 387.156 351.514 386.366 353.503 386.366C355.493 386.366 357.4 387.156 358.807 388.563C360.214 389.97 361.004 391.877 361.004 393.867C361.004 395.856 360.214 397.763 358.807 399.17L333.731 424.239C333.035 424.936 332.209 425.489 331.299 425.866C330.389 426.243 329.413 426.436 328.428 426.435Z" fill="#383C43"/>
<path d="M186.947 445.027H151.161C149.172 445.027 147.264 444.237 145.858 442.83C144.451 441.424 143.661 439.516 143.661 437.527C143.661 435.538 144.451 433.63 145.858 432.224C147.264 430.817 149.172 430.027 151.161 430.027H186.95C188.939 430.027 190.847 430.817 192.253 432.224C193.66 433.63 194.45 435.538 194.45 437.527C194.45 439.516 193.66 441.424 192.253 442.83C190.847 444.237 188.939 445.027 186.95 445.027H186.947Z" fill="white"/>
<path d="M251.551 0C326.52 0 350.883 26.37 354.506 56.679C355.102 61.9205 353.876 67.2073 351.034 71.6517C348.193 76.0962 343.909 79.4277 338.901 81.087C318.913 87.82 286.085 94.466 251.55 94.466C217.015 94.466 184.187 87.821 164.199 81.087C159.193 79.4267 154.91 76.0947 152.069 71.6504C149.229 67.206 148.004 61.9198 148.599 56.679C152.219 26.37 176.582 0 251.551 0Z" fill="#A2DDFD"/>
<path d="M251.561 83.892C267.89 83.892 281.127 72.6777 281.127 58.844C281.127 45.0104 267.89 33.796 251.561 33.796C235.232 33.796 221.995 45.0104 221.995 58.844C221.995 72.6777 235.232 83.892 251.561 83.892Z" fill="white"/>
<path d="M251.551 73.2109C272.451 73.2109 307.142 77.0039 319.781 86.4709C308.399 120.907 274.271 130.735 251.551 130.735C228.831 130.735 194.703 120.907 183.322 86.4709C195.961 76.9999 230.654 73.2109 251.551 73.2109Z" fill="#8DAEE1"/>
</svg>
