<svg width="535" height="512" viewBox="0 0 535 512" fill="none" xmlns="http://www.w3.org/2000/svg">
<path d="M497.917 256.687C517.939 236.665 517.939 204.203 497.917 184.181C477.895 164.16 445.434 164.16 425.412 184.181C405.39 204.203 405.39 236.665 425.412 256.687C445.434 276.709 477.895 276.709 497.917 256.687Z" fill="#FFBE9D"/>
<path d="M147.923 256.649C167.945 236.627 167.945 204.165 147.923 184.143C127.901 164.122 95.4395 164.122 75.4177 184.143C55.3959 204.165 55.3959 236.627 75.4177 256.649C95.4395 276.67 127.901 276.67 147.923 256.649Z" fill="#FFD3BD"/>
<path d="M420.55 468.134C423.175 468.143 425.771 467.592 428.166 466.517C430.56 465.443 432.698 463.869 434.435 461.902C436.173 459.936 437.471 457.62 438.242 455.112C439.013 452.603 439.24 449.958 438.907 447.355C433.878 410.561 415.69 376.834 387.709 352.417C359.728 328 323.849 314.547 286.712 314.547C249.576 314.547 213.696 328 185.715 352.417C157.734 376.834 139.546 410.561 134.517 447.355C134.184 449.958 134.411 452.603 135.182 455.112C135.953 457.621 137.251 459.936 138.989 461.903C140.726 463.87 142.864 465.443 145.259 466.518C147.653 467.592 150.249 468.143 152.874 468.134H420.55Z" fill="#D1986F"/>
<path d="M200.397 329.649H252.097V468.135H200.397V329.649Z" fill="#FBF1CF"/>
<path d="M373.032 468.134H321.332V329.648H373.032V468.134Z" fill="#FBF1CF"/>
<path d="M462.953 213.359C462.953 123.489 384.053 53.594 286.713 53.594C189.373 53.594 110.473 123.494 110.473 213.359C110.473 303.224 189.373 374.44 286.713 374.44C384.053 374.44 462.953 303.229 462.953 213.359Z" fill="#FFD3BD"/>
<path d="M230.088 61.858C160.531 82.87 110.473 141.779 110.473 213.358C110.473 303.228 189.378 374.439 286.713 374.439C310.844 374.503 334.77 370 357.228 361.167C141.035 349.226 171.549 127.089 230.088 61.858Z" fill="#FFBE9D"/>
<path d="M197.403 278.985C215.603 278.985 230.356 267.236 230.356 252.743C230.356 238.25 215.603 226.501 197.403 226.501C179.204 226.501 164.45 238.25 164.45 252.743C164.45 267.236 179.204 278.985 197.403 278.985Z" fill="#E7889D"/>
<path d="M376.021 278.985C394.221 278.985 408.974 267.236 408.974 252.743C408.974 238.25 394.221 226.501 376.021 226.501C357.822 226.501 343.068 238.25 343.068 252.743C343.068 267.236 357.822 278.985 376.021 278.985Z" fill="#E7889D"/>
<path d="M216.608 234.981C214.619 234.981 212.712 234.191 211.305 232.784C209.899 231.378 209.108 229.47 209.108 227.481V214.01C209.108 212.021 209.899 210.113 211.305 208.707C212.712 207.3 214.619 206.51 216.608 206.51C218.598 206.51 220.505 207.3 221.912 208.707C223.318 210.113 224.108 212.021 224.108 214.01V227.481C224.108 229.47 223.318 231.378 221.912 232.784C220.505 234.191 218.598 234.981 216.608 234.981Z" fill="#4E5660"/>
<path d="M356.816 234.981C354.827 234.981 352.92 234.191 351.513 232.784C350.107 231.378 349.316 229.47 349.316 227.481V214.01C349.316 212.021 350.107 210.113 351.513 208.707C352.92 207.3 354.827 206.51 356.816 206.51C358.806 206.51 360.713 207.3 362.12 208.707C363.526 210.113 364.316 212.021 364.316 214.01V227.481C364.316 229.47 363.526 231.378 362.12 232.784C360.713 234.191 358.806 234.981 356.816 234.981Z" fill="#4E5660"/>
<path d="M286.712 243C282.137 242.999 277.616 242.017 273.452 240.121C269.288 238.225 265.579 235.458 262.575 232.008C261.268 230.508 260.611 228.551 260.747 226.567C260.883 224.582 261.803 222.733 263.302 221.426C264.802 220.119 266.759 219.462 268.744 219.598C270.728 219.734 272.577 220.653 273.884 222.153C275.48 223.989 277.45 225.461 279.663 226.47C281.877 227.479 284.281 228.001 286.713 228.001C289.145 228.001 291.549 227.479 293.762 226.47C295.975 225.461 297.946 223.989 299.541 222.153C300.848 220.653 302.697 219.734 304.682 219.598C306.666 219.462 308.624 220.119 310.123 221.426C311.623 222.733 312.542 224.582 312.678 226.567C312.815 228.551 312.157 230.508 310.85 232.008C307.846 235.458 304.137 238.225 299.973 240.121C295.809 242.017 291.287 242.999 286.712 243Z" fill="#4E5660"/>
<path d="M108.274 161.105C100.18 191.092 103.734 238.951 112.396 265.356C112.941 267.042 114.003 268.512 115.432 269.559C116.862 270.605 118.585 271.174 120.356 271.184C122.127 271.194 123.856 270.645 125.297 269.614C126.738 268.584 127.817 267.125 128.38 265.446C133.93 248.73 140.533 223.069 144.127 207.059C146.418 217.271 148.865 224.459 151.735 230.134C152.439 231.514 153.51 232.673 154.831 233.483C156.151 234.293 157.669 234.723 159.218 234.725C160.767 234.728 162.287 234.303 163.61 233.497C164.932 232.691 166.007 231.536 166.715 230.158C176.148 211.958 185.973 177.892 186.367 158.969L108.274 161.105Z" fill="#4E5660"/>
<path d="M465.151 161.105C473.245 191.092 469.691 238.951 461.029 265.356C460.484 267.042 459.422 268.512 457.993 269.559C456.563 270.605 454.84 271.174 453.069 271.184C451.298 271.194 449.569 270.645 448.128 269.614C446.687 268.584 445.608 267.125 445.045 265.446C439.498 248.73 432.892 223.067 429.298 207.059C427.007 217.271 424.56 224.459 421.69 230.134C420.986 231.514 419.915 232.673 418.594 233.483C417.274 234.293 415.756 234.723 414.207 234.725C412.658 234.728 411.138 234.303 409.815 233.497C408.493 232.691 407.418 231.536 406.71 230.158C397.277 211.958 387.452 177.892 387.058 158.969L465.151 161.105Z" fill="#4E5660"/>
<path d="M487.965 154.961C480.88 145.984 471.884 138.697 461.63 133.632C442.83 61.272 371.655 7.44202 286.713 7.44202C201.771 7.44202 130.597 61.272 111.797 133.632C101.543 138.697 92.5472 145.983 85.4622 154.961C77.8942 164.472 85.9142 178.355 97.9622 176.782C140.962 171.17 210.272 165.152 286.71 165.152C363.148 165.152 432.458 171.17 475.459 176.782C487.513 178.355 495.532 164.467 487.965 154.961Z" fill="#8DAEE1"/>
<path d="M314.098 13.778C314.091 10.4121 312.808 7.17395 310.509 4.71635C308.209 2.25875 305.063 0.764548 301.705 0.535016C296.745 0.18035 291.745 0.00201664 286.705 1.66359e-05C281.664 -0.00198336 276.664 0.17635 271.705 0.535016C268.346 0.764548 265.2 2.25875 262.901 4.71635C260.601 7.17395 259.318 10.4121 259.312 13.778V120.446H314.098V13.778Z" fill="#6A95D6"/>
<path d="M413.835 132.257C413.167 132.257 412.503 132.167 411.86 131.991C374.219 121.742 306.554 120.946 286.713 120.946C266.872 120.946 199.206 121.746 161.565 131.991C160.61 132.264 159.61 132.345 158.624 132.229C157.638 132.113 156.684 131.802 155.819 131.315C154.954 130.827 154.194 130.173 153.584 129.389C152.974 128.606 152.525 127.709 152.264 126.751C152.004 125.792 151.936 124.792 152.064 123.807C152.193 122.823 152.516 121.873 153.015 121.015C153.514 120.156 154.178 119.405 154.969 118.804C155.76 118.204 156.663 117.767 157.625 117.519C170.404 114.039 208.563 105.947 286.713 105.947C364.863 105.947 403.022 114.04 415.801 117.519C417.555 117.995 419.076 119.092 420.082 120.606C421.088 122.12 421.51 123.947 421.27 125.749C421.029 127.55 420.143 129.203 418.775 130.4C417.408 131.597 415.652 132.257 413.835 132.257Z" fill="#6A95D6"/>
<path d="M286.713 171.728C310.269 171.728 329.365 152.632 329.365 129.076C329.365 105.52 310.269 86.4241 286.713 86.4241C263.156 86.4241 244.061 105.52 244.061 129.076C244.061 152.632 263.156 171.728 286.713 171.728Z" fill="#F6EE86"/>
<path d="M286.713 179.229C276.793 179.229 267.097 176.288 258.85 170.777C250.602 165.266 244.174 157.433 240.378 148.269C236.582 139.105 235.589 129.021 237.524 119.293C239.459 109.564 244.236 100.628 251.25 93.6143C258.264 86.6004 267.2 81.8239 276.928 79.8887C286.657 77.9536 296.741 78.9468 305.905 82.7427C315.069 86.5385 322.902 92.9667 328.412 101.214C333.923 109.462 336.865 119.158 336.865 129.077C336.849 142.374 331.561 155.121 322.159 164.523C312.757 173.925 300.009 179.214 286.713 179.229ZM286.713 93.9241C279.76 93.9241 272.964 95.9857 267.183 99.8483C261.402 103.711 256.897 109.201 254.236 115.624C251.576 122.047 250.88 129.115 252.236 135.934C253.592 142.753 256.94 149.016 261.856 153.932C266.772 158.848 273.036 162.196 279.855 163.553C286.674 164.909 293.741 164.213 300.165 161.552C306.588 158.892 312.078 154.386 315.94 148.605C319.803 142.825 321.865 136.028 321.865 129.076C321.854 119.756 318.147 110.822 311.557 104.232C304.967 97.6416 296.032 93.9347 286.713 93.9241Z" fill="#4E5660"/>
<path d="M57.1482 340.806L50.1262 354.229C49.2378 355.929 47.9008 357.353 46.2603 358.346C44.6198 359.34 42.7386 359.865 40.8207 359.865C38.9028 359.865 37.0215 359.34 35.3811 358.346C33.7406 357.353 32.4036 355.929 31.5152 354.229L24.4972 340.806C23.5049 338.909 21.9564 337.36 20.0592 336.368L6.63218 329.346C4.93247 328.458 3.50855 327.121 2.51497 325.48C1.52139 323.84 0.996094 321.958 0.996094 320.041C0.996094 318.123 1.52139 316.241 2.51497 314.601C3.50855 312.96 4.93247 311.623 6.63218 310.735L20.0562 303.713C21.9534 302.721 23.5019 301.172 24.4942 299.275L31.5152 285.851C32.4036 284.151 33.7406 282.727 35.3811 281.734C37.0215 280.74 38.9028 280.215 40.8207 280.215C42.7386 280.215 44.6198 280.74 46.2603 281.734C47.9008 282.727 49.2378 284.151 50.1262 285.851L57.1482 299.275C58.1404 301.172 59.689 302.721 61.5862 303.713L75.0102 310.735C76.7099 311.623 78.1338 312.96 79.1274 314.601C80.121 316.241 80.6463 318.123 80.6463 320.041C80.6463 321.958 80.121 323.84 79.1274 325.48C78.1338 327.121 76.7099 328.458 75.0102 329.346L61.5862 336.367C59.6884 337.359 58.1397 338.908 57.1482 340.806Z" fill="#F6EE86"/>
<path d="M204.409 395.667L136.597 458.89C131.957 463.216 125.849 465.622 119.504 465.622C113.16 465.622 107.052 463.216 102.412 458.89L34.591 395.667C32.1051 393.35 30.1164 390.551 28.7459 387.441C27.3753 384.331 26.6515 380.975 26.6184 377.577C26.5853 374.179 27.2436 370.809 28.5533 367.673C29.863 364.537 31.7967 361.7 34.237 359.335L64.15 330.335C68.8268 325.802 75.084 323.267 81.597 323.267H157.404C163.917 323.267 170.175 325.802 174.851 330.336L204.764 359.336C207.204 361.702 209.138 364.538 210.447 367.674C211.757 370.81 212.415 374.18 212.382 377.578C212.348 380.977 211.625 384.333 210.254 387.442C208.883 390.552 206.895 393.351 204.409 395.668V395.667Z" fill="#A2DDFD"/>
<path d="M80.7461 377.687L115.704 465.309C118.22 465.693 120.78 465.693 123.296 465.309L158.254 377.687H80.7461Z" fill="#7ACDF9"/>
<path d="M80.7462 377.687L103.116 323.268H81.5972C75.084 323.268 68.8264 325.803 64.1502 330.337L34.2372 359.337C31.7804 361.713 29.8372 364.567 28.5281 367.724C27.2189 370.881 26.5716 374.273 26.6262 377.69L80.7462 377.687Z" fill="#7ACDF9"/>
<path d="M158.255 377.687L135.885 323.267H157.404C163.917 323.267 170.175 325.802 174.851 330.336L204.764 359.336C207.221 361.712 209.164 364.566 210.473 367.723C211.782 370.88 212.429 374.272 212.375 377.689H158.255V377.687Z" fill="#7ACDF9"/>
</svg>
