<svg width="512" height="512" viewBox="0 0 512 512" fill="none" xmlns="http://www.w3.org/2000/svg">
<path d="M70.375 256.418C100.405 256.418 124.75 232.073 124.75 202.043C124.75 172.012 100.405 147.668 70.375 147.668C40.3445 147.668 16 172.012 16 202.043C16 232.073 40.3445 256.418 70.375 256.418Z" fill="#FFD3BD"/>
<path d="M441.611 256.418C471.641 256.418 495.986 232.073 495.986 202.043C495.986 172.012 471.641 147.668 441.611 147.668C411.58 147.668 387.236 172.012 387.236 202.043C387.236 232.073 411.58 256.418 441.611 256.418Z" fill="#FFBE9D"/>
<path d="M394.103 468.9C396.811 468.91 399.491 468.341 401.962 467.232C404.433 466.123 406.638 464.5 408.432 462.47C410.225 460.44 411.564 458.051 412.36 455.462C413.155 452.873 413.389 450.145 413.046 447.458C407.857 409.489 389.088 374.685 360.214 349.489C331.34 324.293 294.315 310.41 255.993 310.41C217.671 310.41 180.646 324.293 151.772 349.489C122.898 374.685 104.129 409.489 98.94 447.458C98.5965 450.145 98.8305 452.873 99.6263 455.462C100.422 458.051 101.761 460.44 103.554 462.47C105.348 464.5 107.553 466.123 110.024 467.232C112.495 468.341 115.175 468.91 117.883 468.9H394.103Z" fill="#E7889D"/>
<path d="M442.909 190.357C442.909 95.0429 359.224 20.9139 255.993 20.9139C152.762 20.9139 69.0769 95.0429 69.0769 190.357C69.0769 285.671 152.762 361.2 255.993 361.2C359.224 361.2 442.909 285.675 442.909 190.361V190.357Z" fill="#FFD3BD"/>
<path d="M195.937 29.678C122.167 51.963 69.0769 114.441 69.0769 190.357C69.0769 285.671 152.762 361.2 255.993 361.2C281.587 361.266 306.962 356.488 330.78 347.119C101.493 334.454 133.852 98.86 195.937 29.678Z" fill="#FFBE9D"/>
<path d="M155.628 260.558C176.081 260.558 192.661 247.354 192.661 231.067C192.661 214.779 176.081 201.576 155.628 201.576C135.175 201.576 118.595 214.779 118.595 231.067C118.595 247.354 135.175 260.558 155.628 260.558Z" fill="#E7889D"/>
<path d="M356.358 260.558C376.811 260.558 393.391 247.354 393.391 231.067C393.391 214.779 376.811 201.576 356.358 201.576C335.905 201.576 319.325 214.779 319.325 231.067C319.325 247.354 335.905 260.558 356.358 260.558Z" fill="#E7889D"/>
<path d="M285.851 208.408C285.851 189.956 272.483 188.222 255.994 188.222C239.505 188.222 226.137 189.956 226.137 208.408C226.137 226.86 239.505 241.818 255.994 241.818C272.483 241.818 285.851 226.86 285.851 208.408Z" fill="#4E5660"/>
<path d="M161.819 203.358C159.83 203.358 157.922 202.568 156.516 201.161C155.109 199.755 154.319 197.847 154.319 195.858V180.736C154.319 178.747 155.109 176.839 156.516 175.433C157.922 174.026 159.83 173.236 161.819 173.236C163.808 173.236 165.716 174.026 167.122 175.433C168.529 176.839 169.319 178.747 169.319 180.736V195.858C169.319 197.847 168.529 199.755 167.122 201.161C165.716 202.568 163.808 203.358 161.819 203.358Z" fill="#4E5660"/>
<path d="M350.167 203.358C348.178 203.358 346.27 202.568 344.864 201.161C343.457 199.755 342.667 197.847 342.667 195.858V180.736C342.667 178.747 343.457 176.839 344.864 175.433C346.27 174.026 348.178 173.236 350.167 173.236C352.156 173.236 354.064 174.026 355.47 175.433C356.877 176.839 357.667 178.747 357.667 180.736V195.858C357.667 197.847 356.877 199.755 355.47 201.161C354.064 202.568 352.156 203.358 350.167 203.358Z" fill="#4E5660"/>
<path d="M258.073 12.7C308.685 -3.32604 388.293 -4.27204 429.822 10.358C431.681 11.0026 433.379 12.0406 434.8 13.4013C436.221 14.7619 437.331 16.413 438.056 18.242C438.781 20.071 439.102 22.0349 438.999 23.9995C438.895 25.9641 438.369 27.8832 437.456 29.626C428.356 46.847 417.828 60.026 404.328 70.692C431.297 79.241 455.1 109.501 460.71 140.237C461.056 142.156 460.986 144.127 460.506 146.018C460.025 147.908 459.146 149.673 457.926 151.195C456.706 152.716 455.175 153.959 453.435 154.839C451.694 155.719 449.786 156.216 447.837 156.297C389.362 158.829 287.122 127.059 258.074 110.073C229.026 127.059 126.786 158.829 68.3111 156.3C66.3626 156.219 64.4539 155.722 62.7136 154.842C60.9733 153.962 59.4418 152.719 58.2221 151.198C57.0023 149.676 56.1228 147.911 55.6426 146.021C55.1623 144.13 55.0926 142.159 55.4381 140.24C61.0481 109.504 84.8511 79.24 111.82 70.695C98.3201 60.021 87.7871 46.846 78.6931 29.626C77.7803 27.8832 77.2542 25.9641 77.1506 23.9995C77.0471 22.0349 77.3687 20.071 78.0933 18.242C78.818 16.413 79.9287 14.7619 81.3497 13.4013C82.7706 12.0406 84.4684 11.0026 86.3271 10.358C127.854 -4.27304 207.461 -3.32604 258.073 12.7Z" fill="#4E5660"/>
<path d="M262.06 352.611C258.229 352.148 254.607 350.616 251.606 348.19C248.606 345.765 246.348 342.543 245.093 338.895C242.138 330.563 237.362 322.996 231.113 316.744C205.597 291.228 165.072 296.711 136.695 325.089C108.318 353.467 102.834 393.989 128.351 419.507C134.603 425.756 142.17 430.532 150.502 433.487C154.15 434.742 157.371 436.998 159.796 439.998C162.222 442.997 163.754 446.619 164.218 450.449C165.86 466.673 173.023 481.842 184.509 493.418C214.433 523.342 260.409 515.364 293.691 482.084C326.973 448.804 334.949 402.827 305.025 372.902C293.448 361.417 278.279 354.254 262.055 352.611H262.06Z" fill="#8DAEE1"/>
<path d="M201.845 301.325C180.114 297.382 155.69 306.1 136.701 325.089C108.324 353.466 102.84 393.989 128.357 419.507C134.609 425.756 142.177 430.532 150.508 433.487C154.156 434.742 157.377 436.998 159.802 439.998C162.228 442.998 163.76 446.619 164.224 450.449C165.866 466.673 173.029 481.842 184.515 493.418C208.234 517.137 242.034 517.024 271.606 499.393C210.339 485.903 171.896 352.949 201.845 301.325Z" fill="#6A95D6"/>
<path d="M70.73 289.584L101.201 259.113L222.945 380.858L192.475 411.329L70.73 289.584Z" fill="#FBF1CF"/>
<path d="M215.198 435.597C232.877 435.597 247.209 421.265 247.209 403.586C247.209 385.907 232.877 371.575 215.198 371.575C197.519 371.575 183.187 385.907 183.187 403.586C183.187 421.265 197.519 435.597 215.198 435.597Z" fill="#4E5660"/>
<path d="M44.5929 218L41.0669 226.748C40.8205 227.359 40.4533 227.914 39.9873 228.38C39.5213 228.846 38.9661 229.213 38.3549 229.46L29.6069 232.986C26.6787 234.166 24.1026 236.079 22.1255 238.54C20.1484 241.002 18.8366 243.93 18.3158 247.044C17.795 250.158 18.0826 253.353 19.1511 256.324C20.2196 259.295 22.0331 261.942 24.4179 264.011L57.0929 292.356C60.3839 295.211 64.6347 296.713 68.989 296.559C73.3433 296.405 77.4772 294.606 80.5579 291.525L103.137 268.946C106.218 265.865 108.017 261.731 108.171 257.377C108.325 253.023 106.823 248.772 103.968 245.481L75.6199 212.807C73.5508 210.422 70.9036 208.608 67.9323 207.539C64.9609 206.471 61.7649 206.184 58.6506 206.705C55.5362 207.226 52.608 208.538 50.1465 210.516C47.685 212.494 45.7727 215.071 44.5929 218Z" fill="#6A95D6"/>
<path d="M141.527 360.406L171.997 329.936L182.604 340.542L152.133 371.013L141.527 360.406Z" fill="#EED076"/>
<path d="M101.477 320.354L131.947 289.884L142.554 300.49L112.083 330.961L101.477 320.354Z" fill="#EED076"/>
<path d="M251.635 469.518C250.153 469.517 248.704 469.076 247.472 468.252C246.24 467.428 245.279 466.257 244.712 464.887C244.145 463.518 243.997 462.011 244.285 460.557C244.574 459.103 245.287 457.767 246.335 456.718L268.335 434.723C269.744 433.326 271.648 432.545 273.631 432.549C275.615 432.553 277.516 433.343 278.918 434.746C280.321 436.148 281.111 438.049 281.115 440.032C281.12 442.016 280.338 443.92 278.942 445.329L256.938 467.32C256.243 468.018 255.417 468.571 254.508 468.949C253.598 469.327 252.623 469.521 251.638 469.52L251.635 469.518Z" fill="#FBF1CF"/>
</svg>
