<svg width="512" height="512" viewBox="0 0 512 512" fill="none" xmlns="http://www.w3.org/2000/svg">
<path d="M0 229.594V412.463C0 426.843 5.71224 440.633 15.8801 450.801C26.0479 460.969 39.8385 466.681 54.218 466.681H441.492C455.872 466.681 469.662 460.969 479.83 450.801C489.998 440.633 495.71 426.843 495.71 412.463V229.594C495.71 99.348 383.214 0 247.855 0C112.562 0 0 99.3 0 229.594Z" fill="#4E5660"/>
<path d="M66.7246 209.214H428.986V466.681H66.7246V209.214Z" fill="#383C43"/>
<path d="M396.209 512C399.118 512.01 401.996 511.399 404.65 510.208C407.304 509.017 409.673 507.273 411.599 505.092C413.525 502.912 414.964 500.346 415.818 497.565C416.673 494.785 416.924 491.854 416.555 488.968C410.978 448.185 390.817 410.803 359.801 383.741C328.786 356.678 289.017 341.767 247.855 341.767C206.693 341.767 166.924 356.678 135.909 383.741C104.894 410.803 84.7321 448.185 79.1553 488.968C78.7863 491.854 79.0376 494.785 79.8923 497.565C80.747 500.346 82.1854 502.912 84.1113 505.092C86.0373 507.273 88.4065 509.017 91.0605 510.208C93.7145 511.399 96.5922 512.01 99.5013 512H396.209Z" fill="#4E5660"/>
<path d="M210.755 441.633C210.176 439.73 208.864 438.135 207.109 437.198C205.354 436.262 203.299 436.061 201.395 436.641C199.492 437.22 197.897 438.531 196.961 440.286C196.025 442.042 195.824 444.097 196.403 446L216.503 512H232.183L210.755 441.633Z" fill="#F6E3A3"/>
<path d="M279.212 512L299.312 446C299.871 444.103 299.659 442.062 298.72 440.322C297.782 438.581 296.195 437.281 294.303 436.705C292.411 436.129 290.368 436.323 288.619 437.246C286.87 438.169 285.556 439.745 284.963 441.631L263.532 512H279.212Z" fill="#F6E3A3"/>
<path d="M102.593 423.186C136.745 451.12 189.122 469 247.855 469C306.588 469 358.964 451.117 393.117 423.183C377.903 398.308 356.555 377.756 331.12 363.497C305.685 349.239 277.014 341.75 247.855 341.75C218.696 341.75 190.026 349.239 164.59 363.497C139.155 377.756 117.808 398.308 102.594 423.183L102.593 423.186Z" fill="#FCF2D0"/>
<path d="M443.209 229.594C443.209 129.978 355.746 52.5 247.855 52.5C139.964 52.5 52.501 129.977 52.501 229.594C52.501 329.211 139.964 408.145 247.855 408.145C355.746 408.145 443.209 329.21 443.209 229.594Z" fill="#CB9D82"/>
<path d="M185.088 61.661C107.988 84.952 52.501 150.25 52.501 229.594C52.501 329.21 139.964 408.145 247.855 408.145C274.604 408.214 301.125 403.22 326.018 393.428C86.378 380.2 120.201 133.967 185.088 61.661Z" fill="#B7856B"/>
<path d="M247.855 133.344C338.516 133.344 423.955 184.672 440.842 201.563H453.869V133.854C453.869 133.854 369.611 32.519 247.855 32.519C126.099 32.519 41.8408 133.854 41.8408 133.854V201.563H54.8678C71.7548 184.673 157.194 133.344 247.855 133.344Z" fill="#4E5660"/>
<path d="M147.659 305.944C168.077 305.944 184.629 292.763 184.629 276.503C184.629 260.243 168.077 247.062 147.659 247.062C127.241 247.062 110.689 260.243 110.689 276.503C110.689 292.763 127.241 305.944 147.659 305.944Z" fill="white"/>
<path d="M348.051 305.944C368.47 305.944 385.022 292.763 385.022 276.503C385.022 260.243 368.47 247.062 348.051 247.062C327.633 247.062 311.08 260.243 311.08 276.503C311.08 292.763 327.633 305.944 348.051 305.944Z" fill="white"/>
<path d="M186.802 251.966C184.813 251.966 182.906 251.176 181.499 249.769C180.093 248.363 179.302 246.455 179.302 244.466C179.335 243.119 179.098 241.78 178.606 240.526C178.113 239.272 177.375 238.13 176.434 237.166C175.493 236.202 174.369 235.435 173.127 234.912C171.886 234.389 170.553 234.12 169.205 234.12C167.858 234.12 166.525 234.389 165.284 234.912C164.042 235.435 162.918 236.202 161.977 237.166C161.036 238.13 160.298 239.272 159.805 240.526C159.313 241.78 159.076 243.119 159.108 244.466C159.108 246.455 158.318 248.363 156.912 249.769C155.505 251.176 153.598 251.966 151.608 251.966C149.619 251.966 147.712 251.176 146.305 249.769C144.899 248.363 144.108 246.455 144.108 244.466C144.057 241.138 144.668 237.832 145.906 234.742C147.144 231.652 148.985 228.839 151.32 226.467C153.656 224.095 156.44 222.212 159.511 220.926C162.581 219.64 165.877 218.978 169.205 218.978C172.534 218.978 175.83 219.64 178.9 220.926C181.971 222.212 184.755 224.095 187.091 226.467C189.426 228.839 191.267 231.652 192.505 234.742C193.743 237.832 194.354 241.138 194.302 244.466C194.302 246.455 193.512 248.363 192.106 249.769C190.699 251.176 188.792 251.966 186.802 251.966Z" fill="#4E5660"/>
<path d="M344.102 251.966C342.113 251.966 340.206 251.176 338.799 249.769C337.393 248.363 336.602 246.455 336.602 244.466C336.602 241.787 335.538 239.218 333.644 237.324C331.75 235.43 329.181 234.366 326.502 234.366C323.824 234.366 321.255 235.43 319.361 237.324C317.466 239.218 316.402 241.787 316.402 244.466C316.402 246.455 315.612 248.363 314.206 249.769C312.799 251.176 310.891 251.966 308.902 251.966C306.913 251.966 305.006 251.176 303.599 249.769C302.193 248.363 301.402 246.455 301.402 244.466C301.495 237.871 304.181 231.578 308.877 226.947C313.574 222.316 319.904 219.72 326.5 219.72C333.095 219.72 339.426 222.316 344.123 226.947C348.819 231.578 351.504 237.871 351.597 244.466C351.597 246.455 350.807 248.363 349.401 249.769C347.994 251.176 346.086 251.966 344.097 251.966H344.102Z" fill="#4E5660"/>
<path d="M247.856 281.037C243.246 281.036 238.69 280.047 234.495 278.136C230.299 276.225 226.562 273.437 223.536 269.96C222.24 268.459 221.592 266.506 221.733 264.528C221.874 262.55 222.792 260.708 224.287 259.406C225.782 258.103 227.732 257.445 229.71 257.577C231.689 257.708 233.535 258.617 234.845 260.106C236.463 261.968 238.462 263.461 240.707 264.485C242.951 265.508 245.39 266.038 247.857 266.038C250.324 266.038 252.762 265.508 255.007 264.485C257.252 263.461 259.251 261.968 260.869 260.106C262.176 258.606 264.025 257.687 266.009 257.551C267.994 257.415 269.952 258.073 271.451 259.38C272.951 260.686 273.87 262.536 274.006 264.52C274.142 266.505 273.485 268.462 272.178 269.962C269.15 273.438 265.413 276.226 261.217 278.136C257.022 280.046 252.466 281.036 247.856 281.037Z" fill="#4E5660"/>
<path d="M247.855 161.186C309.274 161.186 398.662 183.151 440.842 201.564C426.217 115.816 345.387 91.86 247.855 91.86C150.323 91.86 69.4922 115.816 54.8682 201.564C97.0482 183.15 186.436 161.186 247.855 161.186Z" fill="#FCF2D0"/>
<path d="M54.8682 201.564C75.0682 192.744 106.107 183.112 139.71 175.464C142.886 149.588 149.931 124.336 160.61 100.553C105.198 113.659 64.7952 143.386 54.8732 201.562L54.8682 201.564Z" fill="#F6E3A3"/>
</svg>
