<svg width="531" height="512" viewBox="0 0 531 512" fill="none" xmlns="http://www.w3.org/2000/svg">
<path d="M472.83 285.188C504.447 280.062 525.923 250.276 520.798 218.659C515.672 187.042 485.887 165.566 454.269 170.692C422.652 175.817 401.176 205.603 406.302 237.22C411.427 268.837 441.213 290.313 472.83 285.188Z" fill="#FFBE9D"/>
<path d="M124.625 238.53C130.456 207.032 109.649 176.77 78.1509 170.938C46.6526 165.107 16.3907 185.914 10.5591 217.412C4.72746 248.911 25.5344 279.172 57.0328 285.004C88.5311 290.836 118.793 270.029 124.625 238.53Z" fill="#FFD3BD"/>
<path d="M417.047 500.864C420.016 500.875 422.953 500.251 425.662 499.036C428.371 497.82 430.789 496.04 432.755 493.815C434.721 491.589 436.189 488.97 437.062 486.132C437.934 483.294 438.19 480.302 437.814 477.357C432.124 435.731 411.547 397.576 379.892 369.953C348.236 342.33 307.646 327.11 265.633 327.11C223.62 327.11 183.029 342.33 151.374 369.953C119.718 397.576 99.1414 435.731 93.4517 477.357C93.0751 480.302 93.3315 483.294 94.2039 486.132C95.0764 488.971 96.5446 491.59 98.5106 493.815C100.477 496.04 102.895 497.82 105.604 499.036C108.313 500.251 111.25 500.875 114.22 500.864H417.047Z" fill="#A2DDFD"/>
<path d="M349.112 372.798L279.412 446.59C277.641 448.465 275.506 449.959 273.137 450.98C270.768 452 268.216 452.527 265.637 452.527C263.057 452.527 260.505 452 258.137 450.98C255.768 449.959 253.632 448.465 251.861 446.59L182.156 372.798H349.112Z" fill="white"/>
<path d="M465.014 219.898C465.014 118.232 375.747 39.153 265.631 39.153C155.515 39.153 66.248 118.232 66.248 219.898C66.248 321.564 155.515 402.132 265.631 402.132C375.747 402.132 465.014 321.569 465.014 219.898Z" fill="#FFD3BD"/>
<path d="M201.57 48.502C122.879 72.274 66.248 138.918 66.248 219.902C66.248 321.569 155.515 402.132 265.631 402.132C292.932 402.202 320 397.106 345.406 387.111C100.823 373.607 135.344 122.299 201.57 48.502Z" fill="#FFBE9D"/>
<path d="M162.885 302.846C183.823 302.846 200.797 289.329 200.797 272.655C200.797 255.981 183.823 242.464 162.885 242.464C141.946 242.464 124.973 255.981 124.973 272.655C124.973 289.329 141.946 302.846 162.885 302.846Z" fill="#E7889D"/>
<path d="M368.379 302.846C389.317 302.846 406.291 289.329 406.291 272.655C406.291 255.981 389.317 242.464 368.379 242.464C347.441 242.464 330.467 255.981 330.467 272.655C330.467 289.329 347.441 302.846 368.379 302.846Z" fill="#E7889D"/>
<path d="M296.198 249.458C296.198 230.568 282.513 228.793 265.632 228.793C248.751 228.793 235.066 230.568 235.066 249.458C235.066 268.348 248.751 283.658 265.632 283.658C282.513 283.658 296.198 268.348 296.198 249.458Z" fill="#4E5660"/>
<path d="M169.223 244.111C167.234 244.111 165.326 243.321 163.919 241.914C162.513 240.508 161.723 238.6 161.723 236.611V221.132C161.723 219.143 162.513 217.235 163.919 215.829C165.326 214.422 167.234 213.632 169.223 213.632C171.212 213.632 173.119 214.422 174.526 215.829C175.932 217.235 176.723 219.143 176.723 221.132V236.613C176.722 238.602 175.932 240.509 174.525 241.915C173.119 243.321 171.211 244.111 169.223 244.111Z" fill="#4E5660"/>
<path d="M362.041 244.111C360.052 244.111 358.144 243.321 356.738 241.914C355.331 240.508 354.541 238.6 354.541 236.611V221.132C354.541 219.143 355.331 217.235 356.738 215.829C358.144 214.422 360.052 213.632 362.041 213.632C364.03 213.632 365.938 214.422 367.344 215.829C368.751 217.235 369.541 219.143 369.541 221.132V236.613C369.54 238.602 368.75 240.509 367.344 241.915C365.937 243.321 364.03 244.111 362.041 244.111Z" fill="#4E5660"/>
<path d="M55.4629 165.301C55.4629 220.642 59.1019 244.45 79.5379 244.45C99.9739 244.45 125.638 238.527 131.416 146.963L55.4629 165.301Z" fill="#D1986F"/>
<path d="M475.803 165.301C475.803 220.642 472.164 244.45 451.728 244.45C431.292 244.45 405.632 238.532 399.85 146.963L475.803 165.301Z" fill="#D1986F"/>
<path d="M265.633 175.756C293.423 175.756 413.333 173.705 475.803 165.301C475.803 129.94 439.183 12.001 265.633 12.001C92.0829 12.001 55.4629 129.94 55.4629 165.301C117.93 173.701 237.843 175.756 265.633 175.756Z" fill="#A2DDFD"/>
<path d="M230.059 13.798C86.991 28.67 55.459 132.498 55.459 165.298C81.906 168.856 118.65 171.275 154.34 172.882H154.345C156.215 144.625 172.989 62.489 230.056 13.796L230.059 13.798Z" fill="#7ACDF9"/>
<path d="M308.832 76.516H283.389V51.072C283.389 49.4823 282.758 47.9577 281.634 46.8336C280.51 45.7095 278.985 45.078 277.396 45.078H253.867C252.278 45.0796 250.755 45.7116 249.631 46.8354C248.507 47.9591 247.875 49.4828 247.874 51.072V76.517H222.432C220.842 76.5186 219.319 77.1506 218.195 78.2744C217.071 79.3981 216.439 80.9218 216.438 82.511V106.039C216.439 107.628 217.071 109.151 218.195 110.275C219.319 111.399 220.842 112.03 222.432 112.032H247.876V137.478C247.878 139.067 248.51 140.591 249.634 141.715C250.758 142.838 252.281 143.47 253.87 143.472H277.398C278.988 143.47 280.511 142.838 281.635 141.715C282.759 140.591 283.391 139.067 283.392 137.478V112.032H308.832C310.421 112.032 311.946 111.4 313.07 110.276C314.194 109.152 314.826 107.628 314.826 106.038V82.51C314.824 80.9208 314.192 79.3971 313.068 78.2734C311.944 77.1496 310.421 76.5176 308.832 76.516Z" fill="white"/>
<path d="M365.112 456.688H353.143C351.153 456.688 349.246 455.898 347.839 454.491C346.433 453.085 345.643 451.177 345.643 449.188C345.643 447.199 346.433 445.291 347.839 443.885C349.246 442.478 351.153 441.688 353.143 441.688H365.112C367.101 441.688 369.008 442.478 370.415 443.885C371.821 445.291 372.612 447.199 372.612 449.188C372.612 451.177 371.821 453.085 370.415 454.491C369.008 455.898 367.101 456.688 365.112 456.688Z" fill="#7ACDF9"/>
</svg>
