<svg width="512" height="512" viewBox="0 0 512 512" fill="none" xmlns="http://www.w3.org/2000/svg">
<path d="M439.183 300.272C468.587 295.416 488.487 267.643 483.631 238.239C478.775 208.835 451.002 188.934 421.598 193.79C392.194 198.646 372.294 226.42 377.15 255.824C382.006 285.228 409.779 305.128 439.183 300.272Z" fill="#B7856B"/>
<path d="M467.909 290.46C470.559 274.311 459.617 259.071 443.467 256.42C427.318 253.769 412.078 264.712 409.427 280.861C406.777 297.011 417.719 312.251 433.869 314.901C450.018 317.552 465.258 306.609 467.909 290.46Z" fill="#A2DDFD"/>
<path d="M115.274 255.765C120.13 226.361 100.23 198.588 70.8258 193.732C41.4218 188.876 13.6485 208.776 8.79255 238.18C3.93656 267.584 23.8367 295.358 53.2408 300.214C82.6448 305.07 110.418 285.169 115.274 255.765Z" fill="#CB9D82"/>
<path d="M74.5875 306.561C86.1595 294.989 86.1595 276.227 74.5875 264.655C63.0155 253.083 44.2535 253.083 32.6815 264.655C21.1095 276.227 21.1095 294.989 32.6815 306.561C44.2535 318.133 63.0155 318.133 74.5875 306.561Z" fill="#A2DDFD"/>
<path d="M386.889 512C389.65 512.01 392.382 511.431 394.902 510.3C397.421 509.17 399.67 507.514 401.499 505.445C403.327 503.375 404.693 500.939 405.504 498.299C406.315 495.66 406.553 492.877 406.203 490.138C400.911 451.426 381.775 415.942 352.335 390.253C322.896 364.563 285.147 350.409 246.075 350.409C207.003 350.409 169.254 364.563 139.814 390.253C110.375 415.942 91.2384 451.426 85.9469 490.138C85.5964 492.877 85.8348 495.66 86.646 498.299C87.4573 500.939 88.8228 503.375 90.6511 505.445C92.4795 507.514 94.7286 509.17 97.2481 510.3C99.7676 511.431 102.499 512.01 105.261 512H386.889Z" fill="#E7889D"/>
<path d="M306.791 512C304.796 497.313 297.544 483.848 286.38 474.098C275.216 464.349 260.897 458.977 246.075 458.977C231.254 458.977 216.934 464.349 205.771 474.098C194.607 483.848 187.355 497.313 185.359 512H306.791Z" fill="#4E5660"/>
<path d="M431.5 239.559C431.5 145.005 348.482 71.467 246.075 71.467C143.668 71.467 60.6494 145.006 60.6494 239.559C60.6494 334.112 143.667 409.035 246.075 409.035C348.483 409.035 431.5 334.112 431.5 239.559Z" fill="#CB9D82"/>
<path d="M186.498 80.161C113.316 102.269 60.6494 164.248 60.6494 239.561C60.6494 334.114 143.667 409.037 246.075 409.037C271.465 409.102 296.638 404.363 320.265 395.068C92.8054 382.509 124.908 148.794 186.498 80.168V80.161Z" fill="#B7856B"/>
<path d="M146.108 310.39C166.477 310.39 182.99 297.24 182.99 281.019C182.99 264.798 166.477 251.648 146.108 251.648C125.738 251.648 109.226 264.798 109.226 281.019C109.226 297.24 125.738 310.39 146.108 310.39Z" fill="white"/>
<path d="M346.023 310.39C366.392 310.39 382.905 297.24 382.905 281.019C382.905 264.798 366.392 251.648 346.023 251.648C325.653 251.648 309.141 264.798 309.141 281.019C309.141 297.24 325.653 310.39 346.023 310.39Z" fill="white"/>
<path d="M167.603 260.245C165.613 260.245 163.706 259.455 162.299 258.048C160.893 256.642 160.103 254.734 160.103 252.745V237.668C160.103 235.679 160.893 233.771 162.299 232.365C163.706 230.958 165.613 230.168 167.603 230.168C169.592 230.168 171.499 230.958 172.906 232.365C174.312 233.771 175.103 235.679 175.103 237.668V252.745C175.103 254.734 174.312 256.642 172.906 258.048C171.499 259.455 169.592 260.245 167.603 260.245Z" fill="#4E5660"/>
<path d="M324.527 260.245C322.538 260.245 320.631 259.455 319.224 258.048C317.818 256.642 317.027 254.734 317.027 252.745V237.668C317.027 235.679 317.818 233.771 319.224 232.365C320.631 230.958 322.538 230.168 324.527 230.168C326.516 230.168 328.424 230.958 329.831 232.365C331.237 233.771 332.027 235.679 332.027 237.668V252.745C332.027 254.734 331.237 256.642 329.831 258.048C328.424 259.455 326.516 260.245 324.527 260.245Z" fill="#4E5660"/>
<path d="M246.065 269.221C241.072 269.219 236.137 268.147 231.593 266.077C227.05 264.007 223.003 260.987 219.725 257.221C218.418 255.721 217.76 253.764 217.897 251.779C218.033 249.795 218.952 247.946 220.452 246.639C221.951 245.332 223.909 244.675 225.893 244.811C227.878 244.947 229.727 245.866 231.034 247.366C232.903 249.517 235.212 251.242 237.806 252.424C240.399 253.606 243.216 254.218 246.066 254.218C248.916 254.218 251.732 253.606 254.326 252.424C256.919 251.242 259.228 249.517 261.098 247.366C262.405 245.866 264.254 244.947 266.238 244.811C268.223 244.675 270.18 245.332 271.68 246.639C273.179 247.946 274.098 249.795 274.235 251.779C274.371 253.764 273.714 255.721 272.407 257.221C269.128 260.987 265.081 264.007 260.537 266.077C255.993 268.147 251.058 269.219 246.065 269.221Z" fill="#4E5660"/>
<path d="M400.449 61.5C388.037 16.2 335.275 -3.924 295.911 20.943C289.415 14.3122 281.661 9.04434 273.104 5.44806C264.546 1.85179 255.357 -0.000610352 246.075 -0.000610352C236.793 -0.000610352 227.603 1.85179 219.046 5.44806C210.489 9.04434 202.735 14.3122 196.239 20.943C156.852 -3.94 104.104 16.243 91.701 61.504C82.1133 60.661 72.474 62.3842 63.7722 66.4967C55.0704 70.6092 47.6195 76.9629 42.1841 84.9059C36.7487 92.8488 33.5245 102.095 32.8425 111.695C32.1604 121.296 34.0449 130.905 38.3028 139.536C42.5606 148.168 49.0383 155.511 57.0713 160.813C65.1043 166.114 74.4031 169.183 84.0136 169.704C93.6242 170.225 103.2 168.18 111.759 163.778C120.318 159.376 127.552 152.776 132.718 144.655C145.544 149.871 159.632 151.154 173.189 148.341C186.747 145.527 199.161 138.744 208.852 128.855C219.994 135.886 232.9 139.618 246.075 139.618C259.25 139.618 272.156 135.886 283.298 128.855C292.989 138.744 305.403 145.527 318.961 148.341C332.518 151.154 346.606 149.871 359.432 144.655C364.599 152.775 371.832 159.373 380.391 163.774C388.95 168.175 398.526 170.22 408.136 169.698C417.746 169.177 427.044 166.108 435.076 160.806C443.108 155.505 449.585 148.162 453.843 139.53C458.1 130.899 459.984 121.291 459.302 111.691C458.62 102.091 455.397 92.8456 449.962 84.903C444.527 76.9605 437.077 70.6069 428.376 66.4942C419.675 62.3815 410.036 60.6578 400.449 61.5Z" fill="#4E5660"/>
<path d="M246.075 164.636C318.23 164.636 380.3 180.347 423.848 209.036C425.279 209.967 426.935 210.493 428.64 210.56C430.346 210.627 432.038 210.232 433.538 209.417C435.037 208.601 436.288 207.395 437.159 205.927C438.029 204.459 438.487 202.783 438.483 201.076V180C438.51 170.663 436.058 161.487 431.376 153.409C426.694 145.332 419.95 138.642 411.835 134.025C369.215 110 311.833 96.948 246.075 96.948C180.317 96.948 122.935 110 80.3142 134.029C72.1997 138.646 65.4567 145.334 60.7746 153.411C56.0926 161.489 53.6395 170.664 53.6662 180V201.078C53.6627 202.785 54.1205 204.461 54.9912 205.929C55.862 207.397 57.1132 208.603 58.6127 209.418C60.1122 210.234 61.8042 210.629 63.5099 210.562C65.2155 210.495 66.8713 209.969 68.3022 209.038C111.851 180.347 173.92 164.636 246.075 164.636Z" fill="#F6EE86"/>
<path d="M437.752 512H305.264C296.65 512 288.389 508.578 282.298 502.487C276.207 496.396 272.785 488.135 272.785 479.521V417.421C272.785 408.807 276.207 400.546 282.298 394.455C288.389 388.364 296.65 384.942 305.264 384.942H437.752C446.366 384.942 454.627 388.364 460.718 394.455C466.809 400.546 470.231 408.807 470.231 417.421V479.521C470.231 488.135 466.809 496.396 460.718 502.487C454.627 508.578 446.366 512 437.752 512Z" fill="#A2DDFD"/>
<path d="M272.785 462.137V479.52C272.785 483.785 273.625 488.009 275.257 491.949C276.889 495.89 279.282 499.471 282.298 502.487C285.314 505.503 288.894 507.895 292.835 509.528C296.775 511.16 300.999 512 305.264 512H437.752C446.366 512 454.627 508.578 460.718 502.487C466.809 496.396 470.231 488.135 470.231 479.521V462.137H272.785Z" fill="#F6EE86"/>
<path d="M399.134 337.918H343.883C339.958 337.918 336.193 339.477 333.418 342.253C330.642 345.028 329.083 348.793 329.083 352.718V384.94H413.925V352.713C413.924 348.79 412.365 345.028 409.592 342.254C406.818 339.48 403.057 337.92 399.134 337.918Z" fill="#F6EE86"/>
<path d="M378.296 477.242C394.194 473.536 404.078 457.645 400.373 441.747C396.668 425.849 380.776 415.965 364.878 419.67C348.981 423.375 339.096 439.267 342.801 455.165C346.507 471.062 362.398 480.947 378.296 477.242Z" fill="#8DAEE1"/>
<path d="M435.168 426.413H427.16C425.171 426.413 423.263 425.623 421.857 424.216C420.45 422.81 419.66 420.902 419.66 418.913C419.66 416.924 420.45 415.016 421.857 413.61C423.263 412.203 425.171 411.413 427.16 411.413H435.168C437.157 411.413 439.065 412.203 440.471 413.61C441.878 415.016 442.668 416.924 442.668 418.913C442.668 420.902 441.878 422.81 440.471 424.216C439.065 425.623 437.157 426.413 435.168 426.413Z" fill="white"/>
</svg>
