<svg width="512" height="512" viewBox="0 0 512 512" fill="none" xmlns="http://www.w3.org/2000/svg">
<path d="M332.96 390.389H180.212C180.212 390.389 112.875 433.145 105.887 505H221.08L257.86 495.887L291.094 505H407.287C400.297 433.145 332.96 390.389 332.96 390.389Z" fill="#DCDCDC"/>
<path d="M95.6863 137.739C71.6002 171.169 58.5911 211.305 58.4863 252.508H454.686C454.736 211.387 441.88 171.287 417.93 137.859L256.586 171.671L95.6863 137.739Z" fill="#B2B0BC"/>
<path d="M93.912 296.42C118.164 296.42 137.824 276.76 137.824 252.508C137.824 228.256 118.164 208.596 93.912 208.596C69.6601 208.596 50 228.256 50 252.508C50 276.76 69.6601 296.42 93.912 296.42Z" fill="#FFBD86"/>
<path d="M418.26 296.42C442.512 296.42 462.172 276.76 462.172 252.508C462.172 228.256 442.512 208.596 418.26 208.596C394.008 208.596 374.348 228.256 374.348 252.508C374.348 276.76 394.008 296.42 418.26 296.42Z" fill="#FFBD86"/>
<path d="M291.092 505L274.578 445.746H237.592L221.078 505H291.092Z" fill="#3B4556"/>
<path d="M229.141 401.209V426.159C229.141 433.305 231.98 440.159 237.033 445.213C242.086 450.266 248.94 453.105 256.087 453.105C263.233 453.105 270.087 450.266 275.14 445.213C280.194 440.159 283.033 433.305 283.033 426.159V401.209H229.141Z" fill="#475066"/>
<path d="M256.585 415.181C346.427 415.181 419.258 342.35 419.258 252.508C419.258 162.666 346.427 89.835 256.585 89.835C166.743 89.835 93.9121 162.666 93.9121 252.508C93.9121 342.35 166.743 415.181 256.585 415.181Z" fill="#FED2A4"/>
<path d="M400.285 57.784C370.359 53.584 327.696 43.727 296.169 20.609C284.785 12.4111 271.111 8.00012 257.082 8.00012C243.053 8.00012 229.379 12.4111 217.994 20.609C186.467 43.727 143.804 53.584 113.878 57.784C110.073 58.3299 106.423 59.6663 103.165 61.7073C99.9069 63.7483 97.1119 66.4487 94.96 69.6347C92.808 72.8207 91.3468 76.4219 90.6702 80.2066C89.9936 83.9913 90.1167 87.8757 91.0314 91.61C93.8014 103.11 95.9074 118.26 95.9074 137.739L256.585 171.671L417.93 137.859C417.821 122.291 419.568 106.765 423.135 91.61C424.05 87.8755 424.173 83.9909 423.496 80.206C422.82 76.4211 421.358 72.8198 419.206 69.6337C417.054 66.4476 414.258 63.7473 411 61.7065C407.741 59.6657 404.091 58.3295 400.285 57.784Z" fill="#3B4556"/>
<path d="M296.825 61.969H215.347C213.45 61.9692 211.605 62.5804 210.084 63.7119C208.562 64.8435 207.446 66.4352 206.9 68.2511C206.355 70.067 206.409 72.0103 207.055 73.793C207.7 75.5757 208.904 77.1028 210.485 78.148L250.873 104.839C252.306 105.786 253.984 106.294 255.702 106.301C257.419 106.307 259.101 105.813 260.541 104.877L301.632 78.186C303.227 77.1502 304.445 75.6267 305.103 73.8425C305.762 72.0584 305.826 70.1093 305.286 68.2857C304.746 66.4622 303.632 64.862 302.108 63.7236C300.585 62.5853 298.734 61.9698 296.833 61.969H296.825Z" fill="#F8D070"/>
<path d="M158.57 416.179L151.479 412.299C147.501 410.131 142.886 409.435 138.446 410.335C134.006 411.235 130.025 413.672 127.205 417.218C118.587 427.941 110.89 439.373 104.197 451.393C102.979 453.606 102.21 456.037 101.934 458.548C101.657 461.059 101.879 463.6 102.587 466.024C103.295 468.449 104.474 470.71 106.057 472.678C107.641 474.647 109.597 476.283 111.814 477.493L117.162 480.419C118.252 481.013 119.451 481.379 120.687 481.497C121.923 481.615 123.17 481.48 124.352 481.103C125.535 480.725 126.629 480.112 127.567 479.3C128.506 478.488 129.271 477.494 129.815 476.378C138.177 459.706 148.686 444.201 161.074 430.258C161.978 429.225 162.639 428.002 163.007 426.68C163.375 425.357 163.441 423.969 163.201 422.618C162.961 421.266 162.42 419.986 161.618 418.871C160.817 417.757 159.775 416.837 158.57 416.179Z" fill="#475066"/>
<path d="M354.6 416.179L361.691 412.299C365.669 410.131 370.284 409.435 374.724 410.335C379.164 411.235 383.145 413.672 385.965 417.218C394.583 427.941 402.28 439.373 408.973 451.393C410.191 453.606 410.96 456.037 411.236 458.548C411.513 461.059 411.291 463.6 410.583 466.024C409.875 468.449 408.696 470.71 407.113 472.678C405.529 474.647 403.573 476.283 401.356 477.493L396.008 480.419C394.918 481.013 393.718 481.379 392.483 481.497C391.247 481.615 390 481.48 388.818 481.103C387.635 480.725 386.541 480.112 385.602 479.3C384.664 478.488 383.899 477.494 383.355 476.378C374.993 459.706 364.484 444.201 352.096 430.258C351.191 429.225 350.53 428.002 350.161 426.68C349.792 425.357 349.725 423.969 349.965 422.617C350.205 421.265 350.746 419.984 351.547 418.869C352.349 417.755 353.391 416.834 354.596 416.176L354.6 416.179Z" fill="#475066"/>
<path d="M124.733 217.268C124.733 193.089 128.955 167.658 136.692 142.568C115.35 165.838 101.242 194.817 96.0892 225.969C90.9361 257.121 94.9608 289.099 107.672 318.002C120.384 346.906 141.233 371.485 167.675 388.741C194.118 405.997 225.011 415.184 256.586 415.182C261.07 415.182 265.508 415 269.9 414.637C185.567 387.189 124.733 309.2 124.733 217.268Z" fill="#FFBD86"/>
<path d="M256.586 137.739H95.6855C110.858 176.461 176.906 205.6 256.086 205.6H257.086C336.267 205.6 402.763 176.578 417.932 137.856L256.586 137.739Z" fill="#475066"/>
<path d="M195.916 33.976C168.385 47.775 137.247 54.5 113.879 57.784C110.074 58.3297 106.424 59.6661 103.166 61.707C99.9074 63.7479 97.1123 66.4483 94.9603 69.6343C92.8082 72.8204 91.3469 76.4216 90.6703 80.2064C89.9936 83.9911 90.1166 87.8756 91.0314 91.61C93.8014 103.11 95.6884 118.26 95.6884 137.739L135.613 146.124C147.813 105.003 168.338 66.8298 195.913 33.976H195.916Z" fill="#303646"/>
<path d="M138.226 137.739H95.6855C101.014 151.339 112.625 163.755 128.871 174.139C131.183 161.813 134.308 149.653 138.226 137.739Z" fill="#3B4556"/>
<path d="M187.616 226.557H152.844C149.423 226.557 146.045 227.322 142.957 228.796C139.87 230.271 137.152 232.417 135.001 235.078C132.85 237.738 131.322 240.847 130.527 244.174C129.733 247.502 129.693 250.966 130.41 254.311L132.336 263.292C133.907 270.617 137.942 277.182 143.769 281.892C149.595 286.601 156.86 289.17 164.352 289.17H176.109C183.601 289.17 190.866 286.601 196.693 281.892C202.519 277.182 206.554 270.617 208.125 263.292L210.051 254.311C210.768 250.966 210.728 247.502 209.934 244.174C209.139 240.847 207.611 237.738 205.46 235.078C203.309 232.417 200.59 230.271 197.503 228.797C194.416 227.322 191.038 226.557 187.616 226.557Z" fill="#475066"/>
<path d="M328.101 226.557H362.873C366.294 226.557 369.672 227.322 372.76 228.796C375.847 230.271 378.566 232.417 380.717 235.078C382.867 237.738 384.396 240.847 385.19 244.174C385.984 247.502 386.024 250.966 385.307 254.311L383.381 263.292C381.81 270.617 377.775 277.182 371.949 281.892C366.122 286.601 358.857 289.17 351.365 289.17H339.608C332.116 289.17 324.851 286.601 319.025 281.892C313.198 277.182 309.163 270.617 307.592 263.292L305.666 254.311C304.949 250.966 304.989 247.502 305.783 244.174C306.577 240.846 308.106 237.738 310.257 235.077C312.408 232.417 315.127 230.27 318.214 228.796C321.302 227.322 324.68 226.557 328.101 226.557Z" fill="#475066"/>
<path d="M284.201 273.716C283.458 273.069 282.596 272.574 281.662 272.261C280.728 271.947 279.742 271.82 278.759 271.888C277.777 271.955 276.817 272.216 275.935 272.654C275.053 273.093 274.266 273.7 273.619 274.443C271.424 276.969 268.712 278.994 265.667 280.382C262.623 281.77 259.315 282.488 255.969 282.488C252.622 282.488 249.315 281.77 246.27 280.382C243.225 278.994 240.514 276.969 238.319 274.443C237.012 272.943 235.163 272.024 233.178 271.888C231.194 271.752 229.236 272.409 227.737 273.716C226.237 275.023 225.318 276.872 225.182 278.856C225.045 280.841 225.703 282.798 227.01 284.298C230.613 288.439 235.062 291.759 240.057 294.034C245.053 296.309 250.478 297.486 255.967 297.486C261.456 297.486 266.881 296.309 271.876 294.034C276.871 291.759 281.321 288.439 284.924 284.298C285.571 283.556 286.066 282.693 286.38 281.76C286.694 280.826 286.821 279.84 286.754 278.857C286.687 277.875 286.427 276.915 285.989 276.033C285.551 275.151 284.943 274.363 284.201 273.716Z" fill="#303646"/>
<path d="M386.55 230.363C383.702 226.825 380.096 223.973 375.998 222.016C371.9 220.059 367.415 219.048 362.874 219.057H328.102C320.845 219.044 313.826 221.637 308.32 226.364C274.827 221.911 240.892 221.911 207.4 226.364C201.894 221.637 194.874 219.045 187.618 219.057H152.846C148.306 219.057 143.824 220.073 139.727 222.029C135.631 223.985 132.024 226.833 129.17 230.364C126.316 233.894 124.288 238.018 123.234 242.434C122.18 246.85 122.127 251.445 123.079 255.884L125.004 264.865C126.97 273.85 131.939 281.897 139.092 287.679C146.245 293.461 155.155 296.633 164.353 296.671H176.11C185.307 296.633 194.217 293.461 201.371 287.679C208.524 281.897 213.493 273.85 215.459 264.865L217.385 255.884C218.495 250.731 218.245 245.377 216.658 240.35C244.037 237.249 271.679 237.249 299.058 240.35C297.471 245.377 297.22 250.731 298.331 255.884L300.257 264.865C302.223 273.85 307.192 281.897 314.345 287.679C321.498 293.461 330.408 296.633 339.606 296.671H351.363C360.56 296.633 369.469 293.462 376.622 287.682C383.775 281.901 388.744 273.855 390.711 264.871L392.638 255.89C393.6 251.451 393.552 246.853 392.498 242.436C391.444 238.018 389.41 233.894 386.548 230.368L386.55 230.363ZM202.719 252.738L200.793 261.719C199.56 267.355 196.443 272.403 191.956 276.03C187.469 279.656 181.88 281.646 176.111 281.67H164.354C158.584 281.646 152.996 279.657 148.509 276.03C144.022 272.404 140.905 267.356 139.672 261.72L137.747 252.739C137.264 250.487 137.29 248.156 137.825 245.916C138.359 243.676 139.388 241.583 140.836 239.792C142.284 238.001 144.114 236.557 146.192 235.564C148.27 234.572 150.544 234.057 152.847 234.057H187.619C189.651 234.054 191.663 234.453 193.54 235.233C195.416 236.013 197.12 237.157 198.551 238.6C198.882 239.071 199.266 239.502 199.697 239.885C201.123 241.668 202.135 243.747 202.658 245.971C203.18 248.194 203.201 250.506 202.719 252.738ZM377.975 252.738L376.048 261.719C374.815 267.355 371.698 272.402 367.211 276.029C362.724 279.656 357.135 281.645 351.366 281.669H339.609C333.839 281.645 328.25 279.656 323.763 276.029C319.276 272.402 316.16 267.354 314.927 261.718L313.001 252.737C312.518 250.504 312.539 248.192 313.062 245.969C313.585 243.745 314.597 241.666 316.025 239.883C316.451 239.502 316.833 239.074 317.163 238.607C318.594 237.162 320.298 236.016 322.176 235.234C324.054 234.453 326.068 234.053 328.102 234.056H362.874C365.177 234.056 367.45 234.571 369.529 235.564C371.607 236.556 373.437 238.001 374.884 239.792C376.332 241.583 377.361 243.675 377.895 245.915C378.43 248.155 378.457 250.486 377.974 252.738H377.975Z" fill="#303646"/>
</svg>
