<svg width="513" height="512" viewBox="0 0 513 512" fill="none" xmlns="http://www.w3.org/2000/svg">
<path d="M446.618 247.217C474.843 247.217 497.724 224.336 497.724 196.111C497.724 167.886 474.843 145.005 446.618 145.005C418.393 145.005 395.512 167.886 395.512 196.111C395.512 224.336 418.393 247.217 446.618 247.217Z" fill="#FFBE9D"/>
<path d="M97.7027 247.217C125.928 247.217 148.809 224.336 148.809 196.111C148.809 167.886 125.928 145.005 97.7027 145.005C69.4776 145.005 46.5967 167.886 46.5967 196.111C46.5967 224.336 69.4776 247.217 97.7027 247.217Z" fill="#FFD3BD"/>
<path d="M405.571 444.089C408.187 444.099 410.776 443.55 413.163 442.479C415.55 441.408 417.681 439.839 419.413 437.879C421.146 435.918 422.439 433.61 423.208 431.109C423.977 428.608 424.203 425.972 423.871 423.377C418.859 386.699 400.729 353.079 372.837 328.74C344.945 304.4 309.18 290.989 272.161 290.989C235.143 290.989 199.377 304.4 171.485 328.74C143.593 353.079 125.463 386.699 120.451 423.377C120.119 425.972 120.345 428.608 121.114 431.109C121.883 433.61 123.177 435.918 124.909 437.879C126.641 439.839 128.772 441.408 131.16 442.479C133.547 443.55 136.135 444.099 138.751 444.089H405.571Z" fill="#8DAEE1"/>
<path d="M328.244 291.312V350.218L272.161 395.567L216.076 350.218V291.312H328.244Z" fill="white"/>
<path d="M368.562 444.089H309.062V421.441C309.062 420.165 309.314 418.901 309.802 417.721C310.291 416.542 311.007 415.47 311.909 414.568C312.812 413.665 313.884 412.949 315.063 412.461C316.242 411.972 317.506 411.721 318.783 411.721H358.842C361.42 411.721 363.893 412.745 365.716 414.568C367.538 416.391 368.562 418.863 368.562 421.441V444.089Z" fill="#A2DDFD"/>
<path d="M272.162 395.567L216.077 320.71L187.508 359.394C186.445 360.828 185.804 362.529 185.656 364.307C185.508 366.086 185.859 367.87 186.669 369.46C187.48 371.049 188.718 372.381 190.244 373.306C191.77 374.231 193.523 374.711 195.308 374.694C218.15 374.446 250.327 380.268 272.162 395.567Z" fill="#A2DDFD"/>
<path d="M272.161 395.567L328.245 320.71L356.814 359.394C357.876 360.828 358.518 362.529 358.666 364.307C358.814 366.086 358.463 367.87 357.652 369.46C356.842 371.049 355.604 372.381 354.078 373.306C352.552 374.231 350.798 374.711 349.014 374.694C326.17 374.446 293.993 380.268 272.161 395.567Z" fill="#A2DDFD"/>
<path d="M447.837 189.082C447.837 99.499 369.183 29.826 272.159 29.826C175.135 29.826 96.4814 99.5 96.4814 189.082C96.4814 278.664 175.135 349.649 272.161 349.649C369.187 349.649 447.839 278.665 447.839 189.082H447.837Z" fill="#FFD3BD"/>
<path d="M215.715 38.064C146.38 59.009 96.4824 117.73 96.4824 189.082C96.4824 278.665 175.136 349.649 272.16 349.649C296.216 349.711 320.065 345.221 342.45 336.414C126.947 324.516 157.361 103.086 215.715 38.064Z" fill="#FFBE9D"/>
<path d="M177.464 253.755C196.762 253.755 212.405 241.297 212.405 225.93C212.405 210.563 196.762 198.105 177.464 198.105C158.167 198.105 142.523 210.563 142.523 225.93C142.523 241.297 158.167 253.755 177.464 253.755Z" fill="#E7889D"/>
<path d="M366.855 253.755C386.152 253.755 401.796 241.297 401.796 225.93C401.796 210.563 386.152 198.105 366.855 198.105C347.558 198.105 331.914 210.563 331.914 225.93C331.914 241.297 347.558 253.755 366.855 253.755Z" fill="#E7889D"/>
<path d="M197.827 206.645C195.838 206.645 193.93 205.855 192.524 204.448C191.117 203.042 190.327 201.134 190.327 199.145V184.86C190.327 182.871 191.117 180.963 192.524 179.557C193.93 178.15 195.838 177.36 197.827 177.36C199.816 177.36 201.724 178.15 203.13 179.557C204.537 180.963 205.327 182.871 205.327 184.86V199.144C205.327 200.129 205.133 201.104 204.757 202.014C204.38 202.924 203.827 203.751 203.131 204.448C202.434 205.144 201.608 205.697 200.697 206.074C199.787 206.451 198.812 206.645 197.827 206.645Z" fill="#4E5660"/>
<path d="M346.492 206.645C344.503 206.645 342.595 205.855 341.189 204.448C339.782 203.042 338.992 201.134 338.992 199.145V184.86C338.992 182.871 339.782 180.963 341.189 179.557C342.595 178.15 344.503 177.36 346.492 177.36C348.481 177.36 350.389 178.15 351.795 179.557C353.202 180.963 353.992 182.871 353.992 184.86V199.144C353.992 200.129 353.798 201.104 353.422 202.014C353.045 202.924 352.492 203.751 351.796 204.448C351.099 205.144 350.273 205.697 349.363 206.074C348.453 206.451 347.477 206.645 346.492 206.645Z" fill="#4E5660"/>
<path d="M272.161 215.148C267.375 215.147 262.644 214.12 258.288 212.136C253.932 210.152 250.052 207.258 246.909 203.648C246.262 202.905 245.768 202.043 245.454 201.109C245.14 200.175 245.014 199.189 245.081 198.206C245.149 197.224 245.409 196.264 245.847 195.382C246.286 194.5 246.894 193.713 247.636 193.066C248.379 192.419 249.242 191.924 250.175 191.611C251.109 191.297 252.095 191.17 253.078 191.238C254.06 191.305 255.02 191.566 255.902 192.004C256.784 192.443 257.571 193.05 258.218 193.793C259.952 195.789 262.094 197.389 264.499 198.486C266.905 199.583 269.518 200.15 272.161 200.15C274.805 200.15 277.418 199.583 279.823 198.486C282.229 197.389 284.371 195.789 286.104 193.793C286.751 193.05 287.538 192.443 288.42 192.004C289.302 191.566 290.262 191.305 291.245 191.238C292.227 191.17 293.214 191.297 294.147 191.611C295.081 191.924 295.944 192.419 296.686 193.066C297.429 193.713 298.037 194.5 298.475 195.382C298.913 196.264 299.174 197.224 299.241 198.206C299.309 199.189 299.182 200.175 298.868 201.109C298.555 202.043 298.06 202.905 297.413 203.648C294.27 207.257 290.39 210.152 286.034 212.135C281.678 214.119 276.948 215.146 272.161 215.148Z" fill="#4E5660"/>
<path d="M328.604 38.064C425.561 47.506 465.004 135.438 455.141 192.032C454.765 194.222 453.83 196.277 452.425 197.999C451.021 199.721 449.195 201.05 447.126 201.859C445.056 202.668 442.813 202.928 440.613 202.614C438.414 202.3 436.332 201.424 434.571 200.069C400.161 173.534 335.661 90.173 308.816 75H235.501C208.653 90.175 144.154 173.536 109.746 200.071C107.985 201.426 105.904 202.302 103.704 202.616C101.505 202.93 99.2613 202.67 97.1918 201.861C95.1223 201.052 93.2968 199.723 91.8924 198.001C90.4881 196.279 89.5524 194.224 89.1763 192.034C79.3183 135.438 118.761 47.506 215.713 38.064H328.604Z" fill="#4E5660"/>
<path d="M334.455 101.6C346.431 99.561 367.07 88.2 380.391 76.728C382.689 74.7552 384.564 72.3382 385.904 69.6223C387.244 66.9064 388.02 63.9477 388.188 60.9239C388.355 57.9002 387.909 54.8738 386.876 52.0268C385.844 49.1798 384.247 46.5709 382.18 44.357C361.88 22.621 318.381 0 272.179 0C225.977 0 182.479 22.621 162.179 44.352C160.113 46.5659 158.516 49.1747 157.483 52.0218C156.451 54.8688 156.005 57.8951 156.172 60.9189C156.339 63.9427 157.116 66.9015 158.456 69.6175C159.796 72.3334 161.671 74.7503 163.968 76.723C177.288 88.198 197.928 99.556 209.904 101.595L334.455 101.6Z" fill="#8DAEE1"/>
<path d="M324.933 119.6C305.909 111.119 285.745 109.339 272.179 109.339C258.613 109.339 238.449 111.119 219.424 119.6C214.341 121.818 208.586 121.937 203.415 119.931C198.244 117.925 194.076 113.957 191.817 108.891C189.559 103.825 189.394 98.0723 191.359 92.8855C193.324 87.6988 197.259 83.4986 202.306 81.2C228.084 69.709 254.532 67.3 272.178 67.3C289.824 67.3 316.272 69.712 342.05 81.2C347.092 83.5025 351.02 87.7026 352.98 92.8866C354.94 98.0705 354.774 103.819 352.518 108.881C350.261 113.943 346.097 117.909 340.931 119.917C335.765 121.924 330.016 121.81 324.933 119.6Z" fill="#A2DDFD"/>
<path d="M285.935 41.53H258.386C256.397 41.53 254.489 40.7399 253.082 39.3333C251.676 37.9268 250.886 36.0192 250.886 34.03C250.886 32.0409 251.676 30.1333 253.082 28.7267C254.489 27.3202 256.397 26.53 258.386 26.53H285.935C287.924 26.53 289.832 27.3202 291.238 28.7267C292.645 30.1333 293.435 32.0409 293.435 34.03C293.435 36.0192 292.645 37.9268 291.238 39.3333C289.832 40.7399 287.924 41.53 285.935 41.53Z" fill="white"/>
<path d="M108.225 452.694L150.114 410.806C151.029 409.891 151.755 408.805 152.25 407.61C152.745 406.414 153 405.133 153 403.839C153 402.545 152.745 401.264 152.25 400.068C151.755 398.873 151.029 397.787 150.114 396.872L135.594 382.352C134.679 381.437 133.593 380.711 132.398 380.216C131.202 379.721 129.921 379.466 128.627 379.466C127.333 379.466 126.052 379.721 124.856 380.216C123.661 380.711 122.575 381.437 121.66 382.352L79.7709 424.24C78.8559 425.155 78.1301 426.241 77.6349 427.436C77.1396 428.632 76.8848 429.913 76.8848 431.207C76.8848 432.501 77.1396 433.782 77.6349 434.978C78.1301 436.173 78.8559 437.259 79.7709 438.174L94.2909 452.694C95.2058 453.609 96.2919 454.335 97.4874 454.83C98.6828 455.325 99.964 455.58 101.258 455.58C102.552 455.58 103.833 455.325 105.029 454.83C106.224 454.335 107.31 453.609 108.225 452.694Z" fill="#4E5660"/>
<path d="M207.234 487.539L184.962 509.815C183.563 511.214 181.665 512 179.687 512C177.708 512 175.811 511.214 174.412 509.815L112.759 448.162L145.585 415.336L207.238 476.989C207.93 477.682 208.48 478.504 208.854 479.41C209.229 480.315 209.422 481.285 209.421 482.265C209.421 483.245 209.227 484.215 208.852 485.12C208.477 486.024 207.927 486.847 207.234 487.539Z" fill="#6A95D6"/>
<path d="M81.7616 286.5L105.837 310.575C106.848 311.586 107.507 312.896 107.717 314.311C107.926 315.726 107.674 317.171 106.998 318.431C101.118 329.417 98.929 342.003 100.754 354.33C102.578 366.656 108.32 378.068 117.13 386.88L84.3016 419.709C67.1598 402.564 56.5132 379.991 54.1859 355.859C51.8585 331.726 57.9952 307.535 71.5446 287.43C72.0985 286.622 72.824 285.946 73.6692 285.45C74.5145 284.954 75.4586 284.651 76.4344 284.563C77.4102 284.474 78.3936 284.601 79.3144 284.936C80.2353 285.271 81.0708 285.805 81.7616 286.5Z" fill="#6A95D6"/>
<path d="M41.0464 458.818C69.4224 456.318 63.2984 429.018 85.1604 426.338C86.5676 426.161 87.9028 425.614 89.03 424.754C90.1572 423.893 91.036 422.748 91.5769 421.437C92.1178 420.126 92.3015 418.695 92.1092 417.29C91.9169 415.885 91.3556 414.556 90.4824 413.438C79.2324 399.152 63.7944 387.6 36.6994 387.6C31.9702 387.6 27.288 388.539 22.9249 390.363C18.5617 392.187 14.6044 394.86 11.283 398.227C7.96153 401.593 5.34206 405.586 3.57669 409.973C1.81132 414.361 0.935259 419.055 0.999375 423.784C1.27838 444.86 20.0464 460.669 41.0434 458.817L41.0464 458.818Z" fill="#A2DDFD"/>
<path d="M212.361 478.863C187.943 476.71 193.213 453.223 174.4 450.913C173.189 450.762 172.039 450.292 171.068 449.552C170.098 448.811 169.341 447.826 168.875 446.698C168.409 445.569 168.252 444.337 168.418 443.128C168.584 441.918 169.068 440.774 169.82 439.813C179.501 427.519 192.785 417.579 216.101 417.579C220.17 417.579 224.199 418.387 227.953 419.957C231.708 421.527 235.113 423.828 237.971 426.725C240.828 429.621 243.082 433.057 244.601 436.832C246.12 440.608 246.874 444.647 246.819 448.716C246.579 466.853 230.429 480.456 212.361 478.863Z" fill="#A2DDFD"/>
</svg>
