<svg width="513" height="512" viewBox="0 0 513 512" fill="none" xmlns="http://www.w3.org/2000/svg">
<path d="M454.832 291.737C486.501 291.737 512.174 266.064 512.174 234.395C512.174 202.726 486.501 177.053 454.832 177.053C423.163 177.053 397.49 202.726 397.49 234.395C397.49 266.064 423.163 291.737 454.832 291.737Z" fill="#B7856B"/>
<path d="M63.342 291.737C95.0111 291.737 120.684 266.064 120.684 234.395C120.684 202.726 95.0111 177.053 63.342 177.053C31.6729 177.053 6 202.726 6 234.395C6 266.064 31.6729 291.737 63.342 291.737Z" fill="#CB9D82"/>
<path d="M402.087 512C404.891 512.01 407.666 511.422 410.224 510.274C412.783 509.126 415.066 507.445 416.923 505.343C418.78 503.242 420.166 500.768 420.99 498.088C421.814 495.407 422.056 492.582 421.7 489.8C416.327 450.487 396.893 414.452 366.997 388.364C337.101 362.276 298.766 347.902 259.087 347.902C219.409 347.902 181.074 362.276 151.177 388.364C121.281 414.452 101.848 450.487 96.4742 489.8C96.1183 492.582 96.3604 495.407 97.1842 498.088C98.008 500.768 99.3946 503.242 101.251 505.343C103.108 507.445 105.392 509.126 107.95 510.274C110.509 511.422 113.283 512.01 116.087 512H402.087Z" fill="#8DAEE1"/>
<path d="M259.087 479.48C268.987 479.48 277.013 471.454 277.013 461.554C277.013 451.654 268.987 443.628 259.087 443.628C249.187 443.628 241.161 451.654 241.161 461.554C241.161 471.454 249.187 479.48 259.087 479.48Z" fill="#4E5660"/>
<path d="M259.087 402.232C259.087 402.232 219.435 427.124 196.356 443.691C194.916 444.729 193.262 445.433 191.516 445.752C189.769 446.071 187.973 445.996 186.259 445.533C184.545 445.071 182.956 444.231 181.607 443.077C180.258 441.923 179.184 440.482 178.462 438.86C171.528 423.241 166.908 396.816 173.812 363.701L259.087 402.232Z" fill="#FCF2D0"/>
<path d="M259.087 402.232C259.087 402.232 298.74 427.124 321.818 443.691C323.258 444.729 324.912 445.433 326.658 445.752C328.405 446.071 330.2 445.996 331.914 445.533C333.628 445.071 335.218 444.231 336.567 443.077C337.915 441.923 338.99 440.482 339.712 438.86C346.646 423.241 351.266 396.816 344.362 363.701L259.087 402.232Z" fill="#FCF2D0"/>
<path d="M456.202 222.072C456.202 121.558 367.951 43.3831 259.087 43.3831C150.223 43.3831 61.9722 121.557 61.9722 222.072C61.9722 322.587 150.223 402.232 259.087 402.232C367.951 402.232 456.202 322.586 456.202 222.072Z" fill="#CB9D82"/>
<path d="M195.754 52.625C117.959 76.125 61.9722 142.013 61.9722 222.072C61.9722 322.586 150.223 402.233 259.087 402.233C286.078 402.303 312.837 397.264 337.954 387.383C96.1542 374.032 130.287 125.582 195.754 52.625Z" fill="#B7856B"/>
<path d="M143.773 312.645C167.272 312.645 186.322 297.475 186.322 278.761C186.322 260.047 167.272 244.877 143.773 244.877C120.274 244.877 101.224 260.047 101.224 278.761C101.224 297.475 120.274 312.645 143.773 312.645Z" fill="white"/>
<path d="M374.401 312.645C397.9 312.645 416.95 297.475 416.95 278.761C416.95 260.047 397.9 244.877 374.401 244.877C350.902 244.877 331.852 260.047 331.852 278.761C331.852 297.475 350.902 312.645 374.401 312.645Z" fill="white"/>
<path d="M188.822 249.39C186.833 249.39 184.925 248.6 183.519 247.193C182.112 245.787 181.322 243.879 181.322 241.89C181.292 238.528 179.935 235.313 177.547 232.945C175.159 230.578 171.932 229.25 168.569 229.25C165.207 229.25 161.98 230.578 159.592 232.945C157.203 235.313 155.847 238.528 155.817 241.89C155.817 243.879 155.027 245.787 153.62 247.193C152.214 248.6 150.306 249.39 148.317 249.39C146.328 249.39 144.42 248.6 143.014 247.193C141.607 245.787 140.817 243.879 140.817 241.89C140.861 234.559 143.804 227.542 149.004 222.374C154.204 217.205 161.238 214.304 168.569 214.304C175.901 214.304 182.935 217.205 188.135 222.374C193.335 227.542 196.278 234.559 196.322 241.89C196.322 243.879 195.532 245.787 194.125 247.193C192.719 248.6 190.811 249.39 188.822 249.39Z" fill="#4E5660"/>
<path d="M369.857 249.39C367.868 249.39 365.96 248.6 364.554 247.193C363.147 245.787 362.357 243.879 362.357 241.89C362.327 238.528 360.971 235.313 358.582 232.945C356.194 230.578 352.967 229.25 349.605 229.25C346.242 229.25 343.015 230.578 340.627 232.945C338.239 235.313 336.882 238.528 336.852 241.89C336.852 243.879 336.062 245.787 334.655 247.193C333.249 248.6 331.341 249.39 329.352 249.39C327.363 249.39 325.455 248.6 324.049 247.193C322.642 245.787 321.852 243.879 321.852 241.89C321.896 234.559 324.839 227.542 330.039 222.374C335.239 217.205 342.273 214.304 349.605 214.304C356.936 214.304 363.97 217.205 369.17 222.374C374.37 227.542 377.313 234.559 377.357 241.89C377.357 243.879 376.567 245.787 375.16 247.193C373.754 248.6 371.846 249.39 369.857 249.39Z" fill="#4E5660"/>
<path d="M259.087 282.848C253.943 282.846 248.86 281.742 244.179 279.61C239.498 277.479 235.328 274.368 231.95 270.489C230.643 268.989 229.985 267.032 230.122 265.047C230.258 263.063 231.177 261.214 232.677 259.907C234.176 258.6 236.134 257.942 238.118 258.078C240.103 258.214 241.952 259.133 243.259 260.633C245.227 262.898 247.659 264.715 250.39 265.959C253.12 267.204 256.086 267.848 259.087 267.848C262.088 267.848 265.054 267.204 267.785 265.959C270.515 264.715 272.947 262.898 274.915 260.633C276.222 259.133 278.071 258.214 280.056 258.078C282.04 257.942 283.998 258.6 285.498 259.907C286.997 261.214 287.916 263.063 288.053 265.047C288.189 267.032 287.531 268.989 286.224 270.489C282.846 274.368 278.676 277.479 273.995 279.61C269.314 281.742 264.231 282.846 259.087 282.848Z" fill="#4E5660"/>
<path d="M136.967 138.206C118.577 179.619 100.953 207.406 86.5262 224.23C75.8452 236.685 55.4802 230.674 53.1382 214.435C33.2022 76.19 161.468 33.724 259.087 33.724C356.706 33.724 484.972 76.19 465.036 214.435C462.694 230.674 442.329 236.685 431.648 224.23C417.221 207.407 399.597 179.618 381.207 138.206H136.967Z" fill="#4E5660"/>
<path d="M269.542 2.80706C297.887 19.2001 369.014 43.1331 439.325 34.9721C442.583 34.5896 445.885 34.8913 449.02 35.8579C452.155 36.8245 455.054 38.4347 457.531 40.5855C460.008 42.7364 462.009 45.3805 463.406 48.3488C464.803 51.3172 465.565 54.5444 465.644 57.8241C466.361 91.0681 461.037 120.405 455.466 128.916C435.973 136.816 398.873 141.042 378.778 139.606C355.334 147.261 282.826 152.593 259.087 152.593C235.348 152.593 162.84 147.262 139.396 139.606C119.296 141.041 82.2008 136.821 62.7078 128.916C57.1368 120.405 51.8078 91.0681 52.5298 57.8241C52.6083 54.5444 53.3704 51.3172 54.7673 48.3488C56.1642 45.3805 58.1653 42.7364 60.6424 40.5855C63.1196 38.4347 66.0183 36.8245 69.1533 35.8579C72.2883 34.8913 75.5905 34.5896 78.8488 34.9721C149.16 43.1341 220.287 19.2001 248.632 2.80706C251.809 0.968093 255.416 -0.000244141 259.087 -0.000244141C262.758 -0.000244141 266.364 0.968093 269.542 2.80706Z" fill="#8DAEE1"/>
<path d="M135.628 35.293C116.742 37.1672 97.7123 37.0599 78.8489 34.973C75.5907 34.5906 72.2885 34.8923 69.1535 35.8589C66.0185 36.8255 63.1198 38.4357 60.6426 40.5865C58.1654 42.7374 56.1644 45.3815 54.7675 48.3498C53.3705 51.3182 52.6084 54.5454 52.5299 57.825C51.8129 91.069 57.1369 120.406 62.7079 128.917C82.2009 136.817 119.301 141.043 139.396 139.607C125.832 119.127 125.796 64.007 135.628 35.293Z" fill="#6A95D6"/>
<path d="M464.679 87.8211C403.103 104.74 307.98 103.6 256.495 103.6C206.469 103.6 115.241 104.671 53.6221 89.2101C55.4021 108.344 58.9991 123.246 62.7081 128.91C82.2011 136.81 119.301 141.036 139.396 139.6C162.84 147.255 235.348 152.587 259.087 152.587C282.826 152.587 355.334 147.256 378.778 139.6C398.878 141.035 435.978 136.815 455.466 128.91C459.266 123.11 462.947 107.617 464.679 87.8101V87.8211Z" fill="#F6EE86"/>
<path d="M129.224 100.371C102.378 98.2711 76.04 94.8401 53.624 89.2151C55.404 108.349 59.001 123.251 62.71 128.915C82.203 136.815 119.302 141.041 139.397 139.606C133.745 131.072 130.445 116.519 129.225 100.369L129.224 100.371Z" fill="#EED076"/>
<path d="M259.087 131.806C276.712 131.806 291 113.451 291 90.8081C291 68.1655 276.712 49.8101 259.087 49.8101C241.462 49.8101 227.174 68.1655 227.174 90.8081C227.174 113.451 241.462 131.806 259.087 131.806Z" fill="#EED076"/>
<path d="M259.087 118.753C291.749 118.753 357.344 122.229 378.778 139.607C360.82 161.041 334.032 194.231 259.087 194.231C184.142 194.231 157.354 161.041 139.396 139.607C160.83 122.228 226.425 118.753 259.087 118.753Z" fill="#4E5660"/>
</svg>
