<svg width="512" height="512" viewBox="0 0 512 512" fill="none" xmlns="http://www.w3.org/2000/svg">
<path d="M426.952 223.418C426.952 263.178 430.419 327.455 438.252 375.901C439.267 382.152 437.988 388.56 434.65 393.943C431.313 399.325 426.141 403.319 420.09 405.189C372.795 419.734 281.648 434.363 249.307 434.363C216.966 434.363 125.816 419.735 78.5221 405.189C72.4708 403.319 67.2994 399.325 63.9616 393.942C60.6238 388.56 59.3447 382.152 60.3602 375.9C68.1942 327.455 71.6601 263.178 71.6601 223.417L426.952 223.418Z" fill="#F6EE86"/>
<path d="M442.122 288.343C473.318 288.343 498.607 263.054 498.607 231.858C498.607 200.662 473.318 175.373 442.122 175.373C410.926 175.373 385.637 200.662 385.637 231.858C385.637 263.054 410.926 288.343 442.122 288.343Z" fill="#FFBE9D"/>
<path d="M56.485 288.343C87.6808 288.343 112.97 263.054 112.97 231.858C112.97 200.662 87.6808 175.373 56.485 175.373C25.2892 175.373 0 200.662 0 231.858C0 263.054 25.2892 288.343 56.485 288.343Z" fill="#FFD3BD"/>
<path d="M43.1652 260.9L22.7652 281.3C21.5775 282.488 20.6354 283.898 19.9926 285.449C19.3499 287.001 19.019 288.664 19.019 290.344C19.019 292.023 19.3499 293.686 19.9926 295.238C20.6354 296.79 21.5775 298.199 22.7652 299.387L43.1652 319.787C44.3527 320.975 45.7626 321.917 47.3143 322.56C48.866 323.202 50.5291 323.533 52.2087 323.533C53.8882 323.533 55.5513 323.202 57.103 322.56C58.6547 321.917 60.0646 320.975 61.2522 319.787L81.6522 299.387C84.0503 296.988 85.3975 293.735 85.3975 290.344C85.3975 286.952 84.0503 283.699 81.6522 281.3L61.2522 260.9C60.0646 259.712 58.6547 258.77 57.103 258.128C55.5513 257.485 53.8882 257.154 52.2087 257.154C50.5291 257.154 48.866 257.485 47.3143 258.128C45.7626 258.77 44.3527 259.712 43.1652 260.9Z" fill="#88D37F"/>
<path d="M455.442 260.9L475.842 281.3C477.03 282.488 477.972 283.898 478.615 285.449C479.257 287.001 479.588 288.664 479.588 290.344C479.588 292.023 479.257 293.686 478.615 295.238C477.972 296.79 477.03 298.199 475.842 299.387L455.442 319.787C454.255 320.975 452.845 321.917 451.293 322.56C449.741 323.202 448.078 323.533 446.399 323.533C444.719 323.533 443.056 323.202 441.504 322.56C439.953 321.917 438.543 320.975 437.355 319.787L416.955 299.387C415.767 298.199 414.825 296.79 414.183 295.238C413.54 293.686 413.209 292.023 413.209 290.344C413.209 288.664 413.54 287.001 414.183 285.449C414.825 283.898 415.767 282.488 416.955 281.3L437.355 260.9C438.543 259.712 439.953 258.77 441.504 258.128C443.056 257.485 444.719 257.154 446.399 257.154C448.078 257.154 449.741 257.485 451.293 258.128C452.845 258.77 454.255 259.712 455.442 260.9Z" fill="#88D37F"/>
<path d="M396.752 509.094C399.644 509.105 402.505 508.498 405.144 507.314C407.782 506.131 410.138 504.397 412.053 502.23C413.968 500.063 415.398 497.512 416.247 494.747C417.097 491.983 417.347 489.069 416.98 486.2C411.439 445.663 391.401 408.505 360.573 381.605C329.746 354.704 290.217 339.882 249.303 339.882C208.389 339.882 168.86 354.704 138.032 381.605C107.205 408.505 87.1665 445.663 81.6258 486.2C81.2587 489.069 81.5082 491.982 82.3577 494.747C83.2072 497.511 84.6371 500.062 86.5519 502.23C88.4666 504.397 90.8219 506.13 93.4605 507.314C96.099 508.498 98.9599 509.105 101.852 509.094H396.752Z" fill="#A2DDFD"/>
<path d="M241.452 509.094H352.591C279.377 476.786 203.363 411.587 153.601 356.42C143.442 362.787 133.945 370.155 125.252 378.413C121.319 382.167 119.036 387.329 118.904 392.765C118.773 398.201 120.804 403.467 124.552 407.407C158.678 443.407 200.176 479.902 241.452 509.094Z" fill="#4E5660"/>
<path d="M443.471 219.719C443.471 120.708 356.539 43.702 249.304 43.702C142.069 43.702 55.1362 120.708 55.1362 219.719C55.1362 318.73 142.068 397.186 249.304 397.186C356.54 397.186 443.471 318.731 443.471 219.719Z" fill="#FFD3BD"/>
<path d="M186.918 52.806C110.286 75.956 55.1362 140.857 55.1362 219.719C55.1362 318.73 142.068 397.186 249.304 397.186C275.891 397.255 302.251 392.291 326.992 382.558C88.8073 369.407 122.424 124.673 186.918 52.806Z" fill="#FFBE9D"/>
<path d="M135.713 297.492C158.86 297.492 177.625 282.549 177.625 264.115C177.625 245.681 158.86 230.738 135.713 230.738C112.565 230.738 93.8008 245.681 93.8008 264.115C93.8008 282.549 112.565 297.492 135.713 297.492Z" fill="#E7889D"/>
<path d="M362.893 297.492C386.041 297.492 404.806 282.549 404.806 264.115C404.806 245.681 386.041 230.738 362.893 230.738C339.745 230.738 320.98 245.681 320.98 264.115C320.98 282.549 339.745 297.492 362.893 297.492Z" fill="#E7889D"/>
<path d="M160.14 239.485C158.151 239.485 156.243 238.695 154.836 237.288C153.43 235.882 152.64 233.974 152.64 231.985V214.852C152.64 212.863 153.43 210.955 154.836 209.549C156.243 208.142 158.151 207.352 160.14 207.352C162.129 207.352 164.036 208.142 165.443 209.549C166.849 210.955 167.64 212.863 167.64 214.852V231.985C167.64 233.974 166.849 235.882 165.443 237.288C164.036 238.695 162.129 239.485 160.14 239.485Z" fill="#4E5660"/>
<path d="M338.467 239.485C336.478 239.485 334.57 238.695 333.164 237.288C331.757 235.882 330.967 233.974 330.967 231.985V214.852C330.967 212.863 331.757 210.955 333.164 209.549C334.57 208.142 336.478 207.352 338.467 207.352C340.456 207.352 342.364 208.142 343.77 209.549C345.177 210.955 345.967 212.863 345.967 214.852V231.985C345.967 233.974 345.177 235.882 343.77 237.288C342.364 238.695 340.456 239.485 338.467 239.485Z" fill="#4E5660"/>
<path d="M249.303 249.684C243.775 249.682 238.312 248.496 233.282 246.204C228.251 243.913 223.771 240.57 220.142 236.4C218.835 234.9 218.177 232.943 218.314 230.958C218.45 228.974 219.369 227.125 220.869 225.818C222.368 224.511 224.326 223.854 226.31 223.99C228.295 224.126 230.144 225.045 231.451 226.545C233.671 229.1 236.414 231.148 239.494 232.552C242.574 233.955 245.919 234.682 249.304 234.682C252.688 234.682 256.034 233.955 259.114 232.552C262.193 231.148 264.936 229.1 267.157 226.545C267.804 225.802 268.591 225.195 269.473 224.756C270.355 224.318 271.314 224.057 272.297 223.99C273.28 223.922 274.266 224.049 275.2 224.363C276.133 224.676 276.996 225.171 277.739 225.818C278.481 226.465 279.089 227.252 279.527 228.134C279.966 229.016 280.226 229.976 280.294 230.958C280.361 231.941 280.235 232.927 279.921 233.861C279.607 234.795 279.113 235.657 278.466 236.4C274.836 240.569 270.355 243.912 265.324 246.203C260.294 248.494 254.83 249.681 249.303 249.682V249.684Z" fill="#4E5660"/>
<path d="M85.4821 106.048C52.7671 120.912 24.3921 229.626 62.1891 285.612C63.5937 287.708 65.5747 289.352 67.8932 290.347C70.2116 291.342 72.7684 291.645 75.2551 291.219C77.7419 290.793 80.0522 289.657 81.9075 287.947C83.7628 286.238 85.0838 284.028 85.7111 281.584C96.1391 240.798 102.788 155.831 160.14 141.715L85.4821 106.048Z" fill="#F6EE86"/>
<path d="M413.125 106.048C445.84 120.912 474.215 229.626 436.418 285.612C435.013 287.708 433.032 289.352 430.714 290.347C428.395 291.342 425.838 291.645 423.352 291.219C420.865 290.793 418.555 289.657 416.699 287.947C414.844 286.238 413.523 284.028 412.896 281.584C402.468 240.798 395.819 155.831 338.467 141.715L413.125 106.048Z" fill="#F6EE86"/>
<path d="M380.616 133.549C439.006 133.549 476.903 101.004 457.972 61.388C431.02 4.991 326.116 0 249.303 0C172.49 0 67.586 4.991 40.635 61.388C21.704 101 59.601 133.549 117.991 133.549H380.616Z" fill="#A2DDFD"/>
<path d="M158.652 4.31201C106.007 10.587 57.698 25.683 40.635 61.388C21.704 101 59.601 133.549 117.991 133.549H180.591C142.266 110.649 115.547 51.083 158.653 4.31201H158.652Z" fill="#7ACDF9"/>
<path d="M249.303 114.8C290.181 114.8 349.169 120.76 380.615 133.55C360.915 152.821 331.525 182.663 249.303 182.663C167.081 182.663 137.692 152.82 117.991 133.549C149.438 120.759 208.425 114.799 249.303 114.799V114.8Z" fill="#4E5660"/>
<path d="M254.667 80.17C267.302 77.1832 275.123 64.5194 272.136 51.8845C269.149 39.2496 256.486 31.4282 243.851 34.415C231.216 37.4017 223.394 50.0656 226.381 62.7005C229.368 75.3354 242.032 83.1567 254.667 80.17Z" fill="white"/>
<path d="M470.352 512H315.835C308.049 512 300.582 508.907 295.077 503.402C289.572 497.896 286.479 490.43 286.479 482.644V400.363C286.479 392.577 289.572 385.11 295.077 379.605C300.582 374.1 308.049 371.007 315.835 371.007H470.352C478.138 371.007 485.604 374.1 491.11 379.605C496.615 385.11 499.708 392.577 499.708 400.363V482.644C499.708 490.43 496.615 497.896 491.11 503.402C485.604 508.907 478.138 512 470.352 512Z" fill="#FBF1CF"/>
<path d="M407.296 429.662L490.596 503.886C485.146 509.099 477.894 512.006 470.352 512H315.835C308.291 512.008 301.036 509.101 295.585 503.886L378.885 429.662C382.796 426.177 387.852 424.251 393.09 424.251C398.329 424.251 403.385 426.177 407.296 429.662Z" fill="#F5E2A2"/>
<path d="M407.296 453.345L490.596 379.121C485.145 373.906 477.89 370.999 470.346 371.007H315.835C308.291 370.999 301.036 373.906 295.585 379.121L378.885 453.345C382.796 456.83 387.852 458.756 393.09 458.756C398.329 458.756 403.385 456.83 407.296 453.345Z" fill="#8DAEE1"/>
</svg>
