<svg width="524" height="512" viewBox="0 0 524 512" fill="none" xmlns="http://www.w3.org/2000/svg">
<path d="M517.685 194.608C520.857 162.732 497.587 134.32 465.711 131.149C433.835 127.977 405.423 151.247 402.251 183.123C399.08 214.999 422.35 243.411 454.226 246.583C486.102 249.754 514.514 226.484 517.685 194.608Z" fill="#B7856B"/>
<path d="M70.0845 246.317C101.934 242.888 124.974 214.29 121.545 182.44C118.117 150.591 89.5185 127.551 57.6688 130.979C25.8192 134.408 2.77933 163.006 6.20782 194.856C9.6363 226.705 38.2349 249.745 70.0845 246.317Z" fill="#CB9D82"/>
<path d="M413.194 477.7C416.163 477.71 419.101 477.087 421.809 475.871C424.518 474.656 426.936 472.876 428.902 470.65C430.868 468.425 432.336 465.806 433.209 462.968C434.081 460.13 434.338 457.138 433.961 454.193C428.273 412.566 407.697 374.409 376.041 346.784C344.386 319.16 303.794 303.939 261.78 303.939C219.766 303.939 179.175 319.16 147.519 346.784C115.863 374.409 95.2873 412.566 89.5992 454.193C89.2225 457.138 89.479 460.13 90.3514 462.968C91.2238 465.807 92.6921 468.426 94.6581 470.651C96.624 472.876 99.0424 474.656 101.751 475.872C104.461 477.088 107.398 477.711 110.367 477.7H413.194Z" fill="#4E5660"/>
<path d="M254.28 390.818H269.28V477.7H254.28V390.818Z" fill="#383C43"/>
<path d="M129.051 365.555C168.197 389.014 213.951 401.614 261.78 401.614C309.609 401.614 355.363 389.014 394.509 365.555V284.855H129.051V365.555Z" fill="#383C43"/>
<path d="M226.753 399.326C250.005 402.375 273.555 402.375 296.807 399.326V284.858H226.753V399.326Z" fill="white"/>
<path d="M461.163 180.745C461.163 79.074 371.896 0 261.78 0C151.664 0 62.3975 79.074 62.3975 180.745C62.3975 282.416 151.664 362.979 261.78 362.979C371.896 362.979 461.163 282.416 461.163 180.745Z" fill="#CB9D82"/>
<path d="M197.719 9.349C119.028 33.121 62.3975 99.765 62.3975 180.745C62.3975 282.416 151.664 362.979 261.78 362.979C289.081 363.049 316.149 357.953 341.555 347.959C96.9725 334.454 131.493 83.146 197.719 9.349Z" fill="#B7856B"/>
<path d="M193.962 215.156C193.907 232.597 176.108 246.68 154.207 246.611C132.306 246.542 114.595 232.348 114.65 214.911C114.705 197.474 132.503 183.386 154.405 183.455C176.307 183.524 194.017 197.719 193.962 215.16V215.156Z" fill="white"/>
<path d="M329.598 215.581C329.543 233.022 347.254 247.216 369.155 247.281C391.056 247.346 408.855 233.267 408.91 215.826C408.965 198.385 391.255 184.19 369.353 184.126C347.451 184.062 329.653 198.14 329.598 215.581Z" fill="white"/>
<path d="M293.828 191.205C293.89 171.446 279.581 169.544 261.928 169.489C244.275 169.434 229.95 171.245 229.888 191.005C229.826 210.765 244.088 226.827 261.748 226.882C279.408 226.937 293.766 210.964 293.828 191.205Z" fill="#4E5660"/>
<path d="M196.4 188.3H196.379C195.395 188.297 194.42 188.1 193.511 187.72C192.602 187.341 191.777 186.786 191.083 186.087C190.389 185.388 189.839 184.56 189.465 183.649C189.09 182.738 188.899 181.762 188.902 180.777C188.909 177.761 187.718 174.865 185.592 172.726C183.466 170.587 180.578 169.378 177.562 169.366H177.526C174.517 169.37 171.631 170.564 169.5 172.689C167.368 174.814 166.164 177.696 166.151 180.706C166.145 182.691 165.352 184.593 163.947 185.994C162.541 187.396 160.637 188.183 158.651 188.183H158.627C157.643 188.18 156.668 187.983 155.759 187.603C154.85 187.224 154.025 186.669 153.331 185.97C152.637 185.271 152.087 184.443 151.713 183.532C151.338 182.621 151.147 181.645 151.15 180.66C151.181 173.682 153.972 166.999 158.914 162.072C163.856 157.146 170.547 154.375 177.525 154.367H177.607C184.6 154.397 191.296 157.199 196.225 162.159C201.155 167.119 203.915 173.832 203.901 180.825C203.895 182.81 203.102 184.711 201.696 186.112C200.29 187.513 198.386 188.3 196.401 188.3H196.4Z" fill="#4E5660"/>
<path d="M365.125 188.827H365.102C364.117 188.824 363.142 188.627 362.234 188.247C361.325 187.868 360.5 187.313 359.805 186.614C359.111 185.915 358.561 185.087 358.187 184.176C357.813 183.265 357.622 182.289 357.625 181.304C357.63 179.81 357.34 178.33 356.772 176.948C356.205 175.566 355.371 174.31 354.318 173.25C353.265 172.191 352.014 171.349 350.635 170.773C349.257 170.197 347.779 169.898 346.285 169.894H346.249C343.24 169.899 340.356 171.094 338.225 173.218C336.095 175.343 334.892 178.224 334.879 181.233C334.873 183.218 334.08 185.12 332.674 186.521C331.268 187.923 329.364 188.71 327.379 188.71H327.356C326.371 188.707 325.396 188.51 324.488 188.13C323.579 187.751 322.754 187.196 322.059 186.497C321.365 185.798 320.815 184.97 320.441 184.059C320.067 183.148 319.876 182.172 319.879 181.187C319.91 174.211 322.701 167.531 327.642 162.605C332.582 157.68 339.271 154.91 346.247 154.9H346.332C349.796 154.911 353.223 155.604 356.419 156.939C359.615 158.274 362.516 160.226 364.958 162.683C367.399 165.14 369.333 168.053 370.649 171.257C371.964 174.461 372.636 177.893 372.625 181.357C372.618 183.342 371.825 185.243 370.419 186.644C369.014 188.045 367.11 188.832 365.125 188.832V188.827Z" fill="#4E5660"/>
<path d="M500.56 404.369H472.46C472.187 404.369 471.916 404.315 471.664 404.211C471.412 404.106 471.182 403.953 470.989 403.759C470.796 403.566 470.642 403.337 470.538 403.084C470.433 402.832 470.379 402.561 470.379 402.288V374.188C470.379 371.785 469.425 369.48 467.725 367.78C466.026 366.081 463.721 365.126 461.317 365.126H440.206C437.803 365.126 435.498 366.081 433.799 367.78C432.099 369.48 431.144 371.785 431.144 374.188V402.288C431.144 402.84 430.925 403.369 430.535 403.759C430.145 404.15 429.615 404.369 429.063 404.369H400.963C398.56 404.369 396.255 405.324 394.556 407.023C392.856 408.723 391.901 411.028 391.901 413.431V434.546C391.901 436.949 392.856 439.254 394.556 440.954C396.255 442.653 398.56 443.608 400.963 443.608H429.063C429.615 443.608 430.145 443.827 430.535 444.217C430.925 444.608 431.144 445.137 431.144 445.689V502.939C431.145 505.342 432.099 507.647 433.799 509.346C435.498 511.045 437.803 512 440.206 512H461.321C463.725 512 466.03 511.045 467.729 509.346C469.429 507.646 470.383 505.341 470.383 502.938V445.688C470.383 445.136 470.603 444.607 470.993 444.216C471.383 443.826 471.912 443.607 472.464 443.607H500.564C501.754 443.607 502.933 443.373 504.032 442.917C505.132 442.462 506.131 441.794 506.972 440.953C507.814 440.111 508.481 439.112 508.937 438.013C509.392 436.913 509.626 435.735 509.626 434.545V413.431C509.626 411.028 508.671 408.723 506.972 407.023C505.272 405.324 502.968 404.369 500.564 404.369H500.56Z" fill="#F6EE86"/>
<path d="M470.38 502.938V460.221C450.28 447.63 437.307 422.155 430.87 403.296C430.692 403.62 430.43 403.891 430.112 404.079C429.793 404.268 429.43 404.368 429.06 404.369H400.96C398.557 404.369 396.252 405.324 394.553 407.023C392.853 408.723 391.898 411.028 391.898 413.431V434.546C391.898 436.949 392.853 439.254 394.553 440.954C396.252 442.653 398.557 443.608 400.96 443.608H429.06C429.612 443.608 430.142 443.827 430.532 444.218C430.922 444.608 431.141 445.137 431.141 445.689V502.939C431.142 504.129 431.376 505.308 431.832 506.407C432.287 507.507 432.955 508.506 433.797 509.347C434.639 510.189 435.638 510.856 436.738 511.311C437.838 511.766 439.016 512 440.206 512H461.321C463.724 511.999 466.028 511.044 467.727 509.344C469.426 507.645 470.38 505.341 470.38 502.938Z" fill="#EED076"/>
</svg>
