<svg width="512" height="512" viewBox="0 0 512 512" fill="none" xmlns="http://www.w3.org/2000/svg">
<path d="M256.201 118.816C294.991 118.816 326.437 92.2181 326.437 59.408C326.437 26.5979 294.991 0 256.201 0C217.411 0 185.965 26.5979 185.965 59.408C185.965 92.2181 217.411 118.816 256.201 118.816Z" fill="#FBF1CF"/>
<path d="M298.301 106.962C238.451 96.488 217.753 35.5 234.892 2.79102C206.521 10.424 185.965 32.882 185.965 59.407C185.965 92.217 217.411 118.815 256.201 118.815C271.073 118.926 285.671 114.816 298.301 106.962Z" fill="#F5E2A2"/>
<path d="M87.438 318.812C114.742 318.812 136.876 296.678 136.876 269.374C136.876 242.07 114.742 219.936 87.438 219.936C60.1341 219.936 38 242.07 38 269.374C38 296.678 60.1341 318.812 87.438 318.812Z" fill="#CB9D82"/>
<path d="M82.04 348.671C97.2267 348.671 109.538 336.36 109.538 321.173C109.538 305.986 97.2267 293.675 82.04 293.675C66.8533 293.675 54.542 305.986 54.542 321.173C54.542 336.36 66.8533 348.671 82.04 348.671Z" fill="#A2DDFD"/>
<path d="M424.964 318.812C452.268 318.812 474.402 296.678 474.402 269.374C474.402 242.07 452.268 219.936 424.964 219.936C397.66 219.936 375.526 242.07 375.526 269.374C375.526 296.678 397.66 318.812 424.964 318.812Z" fill="#B7856B"/>
<path d="M430.362 348.671C445.549 348.671 457.86 336.36 457.86 321.173C457.86 305.986 445.549 293.675 430.362 293.675C415.175 293.675 402.864 305.986 402.864 321.173C402.864 336.36 415.175 348.671 430.362 348.671Z" fill="#A2DDFD"/>
<path d="M381.77 512C384.232 512.009 386.669 511.492 388.915 510.484C391.162 509.476 393.168 508 394.798 506.154C396.428 504.309 397.646 502.136 398.369 499.783C399.093 497.429 399.305 494.948 398.993 492.505C394.276 457.983 377.211 426.339 350.959 403.43C324.707 380.521 291.044 367.898 256.201 367.898C221.358 367.898 187.695 380.521 161.443 403.43C135.19 426.339 118.126 457.983 113.409 492.505C113.097 494.948 113.309 497.429 114.033 499.783C114.756 502.136 115.974 504.309 117.604 506.154C119.234 508 121.24 509.476 123.487 510.484C125.733 511.492 128.169 512.009 130.632 512H381.77Z" fill="#FBF1CF"/>
<path d="M256.201 356.1C216.528 356.087 178.344 371.211 149.441 398.388C147.421 400.301 145.85 402.639 144.842 405.231C143.833 407.824 143.411 410.608 143.606 413.384C143.802 416.159 144.61 418.857 145.972 421.283C147.334 423.709 149.217 425.803 151.485 427.414C185.619 451.67 218.901 437.291 256.201 437.291C293.501 437.291 326.783 451.67 360.917 427.409C363.185 425.798 365.068 423.704 366.43 421.278C367.793 418.852 368.601 416.154 368.796 413.379C368.992 410.604 368.57 407.82 367.561 405.227C366.552 402.634 364.982 400.296 362.962 398.383C334.058 371.208 295.874 356.085 256.201 356.1Z" fill="#8DAEE1"/>
<path d="M245.257 465.081C236.713 473.625 224.779 477.208 214.771 478.633C212.272 478.988 209.724 478.757 207.33 477.958C204.936 477.159 202.76 475.814 200.975 474.029C199.19 472.244 197.845 470.068 197.046 467.674C196.247 465.28 196.016 462.732 196.371 460.233C197.797 450.225 201.379 438.291 209.923 429.747C218.467 421.203 230.401 417.615 240.401 416.19C242.9 415.835 245.448 416.066 247.842 416.865C250.236 417.664 252.412 419.009 254.197 420.794C255.982 422.579 257.327 424.755 258.126 427.149C258.925 429.543 259.156 432.091 258.801 434.59C257.383 444.6 253.801 456.536 245.257 465.081Z" fill="#A2DDFD"/>
<path d="M267.145 465.081C275.689 473.625 287.623 477.208 297.631 478.633C300.13 478.988 302.677 478.757 305.072 477.958C307.466 477.159 309.642 475.813 311.427 474.029C313.211 472.244 314.557 470.068 315.356 467.674C316.155 465.279 316.386 462.732 316.031 460.233C314.605 450.225 311.023 438.291 302.478 429.747C293.933 421.203 282.001 417.615 272.001 416.19C269.502 415.835 266.954 416.066 264.56 416.865C262.166 417.664 259.99 419.009 258.205 420.794C256.42 422.579 255.075 424.755 254.276 427.149C253.477 429.543 253.246 432.091 253.601 434.59C255.019 444.6 258.601 456.536 267.145 465.081Z" fill="#A2DDFD"/>
<path d="M256.201 448.592C273.308 448.592 287.176 434.724 287.176 417.617C287.176 400.51 273.308 386.642 256.201 386.642C239.094 386.642 225.226 400.51 225.226 417.617C225.226 434.724 239.094 448.592 256.201 448.592Z" fill="#6A95D6"/>
<path d="M426.144 258.75C426.144 172.091 350.058 104.692 256.201 104.692C162.344 104.692 86.2581 172.091 86.2581 258.75C86.2581 345.409 162.344 414.076 256.201 414.076C350.058 414.076 426.144 345.409 426.144 258.75Z" fill="#CB9D82"/>
<path d="M201.601 112.66C134.527 132.922 86.257 189.727 86.257 258.75C86.257 345.409 162.343 414.076 256.201 414.076C279.472 414.137 302.545 409.794 324.201 401.276C115.728 389.763 145.151 175.561 201.601 112.66Z" fill="#B7856B"/>
<path d="M156.676 321.221C176.958 321.221 193.399 308.128 193.399 291.977C193.399 275.826 176.958 262.733 156.676 262.733C136.394 262.733 119.953 275.826 119.953 291.977C119.953 308.128 136.394 321.221 156.676 321.221Z" fill="white"/>
<path d="M355.726 321.221C376.008 321.221 392.449 308.128 392.449 291.977C392.449 275.826 376.008 262.733 355.726 262.733C335.444 262.733 319.003 275.826 319.003 291.977C319.003 308.128 335.444 321.221 355.726 321.221Z" fill="white"/>
<path d="M178.078 271.326C176.089 271.326 174.181 270.536 172.775 269.129C171.368 267.723 170.578 265.815 170.578 263.826V248.814C170.578 246.825 171.368 244.917 172.775 243.511C174.181 242.104 176.089 241.314 178.078 241.314C180.067 241.314 181.975 242.104 183.381 243.511C184.788 244.917 185.578 246.825 185.578 248.814V263.826C185.578 265.815 184.788 267.723 183.381 269.129C181.975 270.536 180.067 271.326 178.078 271.326Z" fill="#4E5660"/>
<path d="M334.324 271.326C332.335 271.326 330.427 270.536 329.021 269.129C327.614 267.723 326.824 265.815 326.824 263.826V248.814C326.824 246.825 327.614 244.917 329.021 243.511C330.427 242.104 332.335 241.314 334.324 241.314C336.313 241.314 338.221 242.104 339.627 243.511C341.034 244.917 341.824 246.825 341.824 248.814V263.826C341.824 265.815 341.034 267.723 339.627 269.129C338.221 270.536 336.313 271.326 334.324 271.326Z" fill="#4E5660"/>
<path d="M256.201 280.262C251.225 280.26 246.308 279.192 241.779 277.13C237.251 275.068 233.217 272.059 229.95 268.306C229.296 267.564 228.795 266.701 228.476 265.765C228.157 264.829 228.026 263.84 228.091 262.853C228.155 261.867 228.415 260.903 228.853 260.017C229.292 259.131 229.902 258.34 230.647 257.69C231.392 257.041 232.259 256.545 233.196 256.232C234.134 255.918 235.124 255.793 236.111 255.864C237.097 255.934 238.059 256.199 238.943 256.643C239.826 257.087 240.613 257.702 241.258 258.451C243.117 260.589 245.412 262.303 247.99 263.478C250.568 264.652 253.368 265.26 256.201 265.26C259.033 265.26 261.833 264.652 264.411 263.478C266.989 262.303 269.284 260.589 271.143 258.451C271.79 257.708 272.577 257.101 273.459 256.662C274.341 256.224 275.301 255.964 276.284 255.896C277.266 255.829 278.253 255.956 279.186 256.269C280.12 256.583 280.983 257.078 281.725 257.725C282.468 258.372 283.075 259.159 283.514 260.041C283.952 260.923 284.212 261.883 284.28 262.866C284.347 263.848 284.22 264.834 283.907 265.768C283.593 266.702 283.098 267.564 282.451 268.307C279.184 272.06 275.15 275.069 270.622 277.131C266.094 279.193 261.177 280.261 256.201 280.262Z" fill="#4E5660"/>
<path d="M256.201 97.2271C376.983 97.2271 430.057 180.489 433.873 239.859C434.052 242.424 433.487 244.987 432.246 247.239C431.005 249.491 429.141 251.338 426.877 252.557C424.613 253.777 422.046 254.318 419.482 254.115C416.919 253.912 414.468 252.974 412.424 251.414C394.188 237.614 379.524 219.427 369.554 201.421C339.833 211.45 273.439 172.965 256.201 154.189C238.962 172.964 172.568 211.449 142.847 201.421C132.874 219.427 118.214 237.614 99.977 251.414C97.9331 252.974 95.4825 253.912 92.919 254.115C90.3556 254.318 87.788 253.777 85.5241 252.557C83.2603 251.338 81.3962 249.491 80.1553 247.239C78.9144 244.987 78.3494 242.424 78.528 239.859C82.345 180.489 135.419 97.2271 256.201 97.2271Z" fill="#4E5660"/>
<path d="M256.201 48.574C291.593 48.7571 326.843 53.0614 361.239 61.4C363.76 62.0133 366.116 63.1742 368.138 64.8002C370.16 66.4262 371.799 68.4774 372.939 70.8082C374.08 73.1391 374.693 75.6923 374.735 78.2867C374.778 80.8811 374.248 83.4531 373.185 85.82L348.701 140.383C347.417 143.244 345.395 145.712 342.843 147.535C340.29 149.357 337.299 150.468 334.176 150.754C319.715 152.083 291.253 154.19 256.199 154.19C221.145 154.19 192.683 152.083 178.222 150.754C175.1 150.468 172.109 149.356 169.558 147.534C167.006 145.712 164.985 143.244 163.701 140.383L139.217 85.818C138.154 83.4512 137.625 80.8794 137.668 78.2853C137.71 75.6911 138.324 73.1381 139.464 70.8075C140.604 68.477 142.243 66.4259 144.265 64.8001C146.287 63.1742 148.642 62.0134 151.163 61.4C185.559 53.0614 220.809 48.7571 256.201 48.574Z" fill="#FBF1CF"/>
<path d="M144.942 98.576C181.294 89.2151 218.664 84.3818 256.201 84.186C293.738 84.3813 331.108 89.2146 367.46 98.576L373.185 85.817C374.248 83.4502 374.777 80.8786 374.734 78.2845C374.691 75.6905 374.078 73.1376 372.938 70.8072C371.798 68.4767 370.158 66.4258 368.137 64.8C366.115 63.1742 363.76 62.0134 361.239 61.4C326.843 53.062 291.593 48.7577 256.201 48.574C220.809 48.757 185.56 53.0613 151.164 61.4C148.643 62.0133 146.287 63.1742 144.265 64.8002C142.243 66.4262 140.604 68.4774 139.464 70.8082C138.323 73.1391 137.71 75.6923 137.668 78.2867C137.625 80.8811 138.155 83.4531 139.218 85.82L144.942 98.576Z" fill="#8DAEE1"/>
<path d="M361.907 486.3H345.715C343.726 486.3 341.818 485.51 340.412 484.103C339.005 482.697 338.215 480.789 338.215 478.8C338.215 476.811 339.005 474.903 340.412 473.497C341.818 472.09 343.726 471.3 345.715 471.3H361.907C363.896 471.3 365.804 472.09 367.21 473.497C368.617 474.903 369.407 476.811 369.407 478.8C369.407 480.789 368.617 482.697 367.21 484.103C365.804 485.51 363.896 486.3 361.907 486.3Z" fill="#EED076"/>
</svg>
