<svg width="512" height="512" viewBox="0 0 512 512" fill="none" xmlns="http://www.w3.org/2000/svg">
<path d="M461.177 486.419C460.192 486.419 459.217 486.225 458.307 485.848C457.398 485.47 456.572 484.917 455.877 484.219L391.198 419.54C389.792 418.134 389.001 416.226 389.001 414.237C389.001 412.248 389.792 410.341 391.198 408.934L459.191 340.94C459.887 340.244 460.714 339.691 461.624 339.314C462.534 338.937 463.509 338.743 464.494 338.743C465.479 338.743 466.455 338.937 467.365 339.314C468.275 339.691 469.101 340.244 469.798 340.94C470.494 341.637 471.047 342.463 471.424 343.373C471.801 344.283 471.995 345.259 471.995 346.244C471.995 347.229 471.801 348.204 471.424 349.114C471.047 350.024 470.494 350.851 469.798 351.547L407.108 414.237L466.484 473.612C467.531 474.661 468.245 475.997 468.534 477.451C468.822 478.905 468.674 480.412 468.107 481.781C467.54 483.151 466.579 484.322 465.347 485.146C464.115 485.97 462.666 486.411 461.184 486.412L461.177 486.419Z" fill="#4E5660"/>
<path d="M427.338 418.946C429.911 402.098 418.339 386.356 401.491 383.784C384.644 381.211 368.902 392.783 366.329 409.631C363.757 426.478 375.329 442.22 392.176 444.793C409.024 447.365 424.766 435.793 427.338 418.946Z" fill="#8DAEE1"/>
<path d="M470.827 502.324C483.696 497.104 489.896 482.441 484.677 469.572C479.457 456.703 464.793 450.502 451.924 455.722C439.055 460.942 432.854 475.605 438.074 488.474C443.294 501.343 457.958 507.544 470.827 502.324Z" fill="#D1986F"/>
<path d="M471.307 368.63C487.433 368.63 500.506 355.557 500.506 339.431C500.506 323.305 487.433 310.232 471.307 310.232C455.181 310.232 442.108 323.305 442.108 339.431C442.108 355.557 455.181 368.63 471.307 368.63Z" fill="#EED076"/>
<path d="M416.679 279.272C444.867 279.272 467.718 256.421 467.718 228.233C467.718 200.045 444.867 177.194 416.679 177.194C388.491 177.194 365.64 200.045 365.64 228.233C365.64 256.421 388.491 279.272 416.679 279.272Z" fill="#FFBE9D"/>
<path d="M68.2192 279.272C96.4072 279.272 119.258 256.421 119.258 228.233C119.258 200.045 96.4072 177.194 68.2192 177.194C40.0311 177.194 17.1802 200.045 17.1802 228.233C17.1802 256.421 40.0311 279.272 68.2192 279.272Z" fill="#FFD3BD"/>
<path d="M375.687 478.743C378.3 478.752 380.884 478.204 383.268 477.134C385.652 476.064 387.78 474.498 389.51 472.54C391.24 470.582 392.532 468.277 393.299 465.78C394.067 463.282 394.293 460.65 393.962 458.058C388.955 421.429 370.848 387.854 342.992 363.547C315.137 339.24 279.419 325.847 242.449 325.847C205.479 325.847 169.761 339.24 141.905 363.547C114.05 387.854 95.9428 421.429 90.9358 458.058C90.6045 460.65 90.8302 463.282 91.5979 465.78C92.3656 468.277 93.6576 470.582 95.3876 472.54C97.1176 474.498 99.2456 476.065 101.629 477.134C104.013 478.204 106.598 478.753 109.211 478.743H375.687Z" fill="#FCF2D0"/>
<path d="M199.907 387.79H284.991V478.743H199.907V387.79Z" fill="#8DAEE1"/>
<path d="M294.96 320.998V358.915C276.001 405.155 249.645 419.027 242.449 419.027C235.253 419.027 208.897 405.155 189.938 358.915V320.998H294.96Z" fill="#FFD3BD"/>
<path d="M194.053 334.128L222.453 478.743H193.113L135.595 375.198C133.43 371.3 132.65 366.784 133.383 362.386C134.115 357.987 136.317 353.967 139.629 350.982L158.329 334.127L194.053 334.128Z" fill="#F6E3A3"/>
<path d="M334.527 448.77H303.227C301.238 448.77 299.33 447.98 297.924 446.573C296.517 445.167 295.727 443.259 295.727 441.27C295.727 439.281 296.517 437.373 297.924 435.967C299.33 434.56 301.238 433.77 303.227 433.77H334.527C336.516 433.77 338.424 434.56 339.83 435.967C341.237 437.373 342.027 439.281 342.027 441.27C342.027 443.259 341.237 445.167 339.83 446.573C338.424 447.98 336.516 448.77 334.527 448.77Z" fill="#4E5660"/>
<path d="M290.843 334.128L262.443 478.743H291.786L349.304 375.198C351.469 371.3 352.249 366.784 351.517 362.386C350.784 357.988 348.582 353.968 345.271 350.982L326.571 334.127L290.843 334.128Z" fill="#F6E3A3"/>
<path d="M417.898 217.264C417.898 127.798 339.347 58.2151 242.449 58.2151C145.551 58.2151 67 127.798 67 217.264C67 306.73 145.553 377.622 242.453 377.622C339.353 377.622 417.902 306.731 417.902 217.264H417.898Z" fill="#FFD3BD"/>
<path d="M186.078 66.4431C116.833 87.3611 67 146.006 67 217.265C67 306.731 145.551 377.623 242.449 377.623C266.473 377.685 290.292 373.201 312.649 364.406C97.425 352.522 127.802 131.381 186.078 66.4431Z" fill="#FFBE9D"/>
<path d="M141.972 295.053C162.447 295.053 179.046 281.835 179.046 265.529C179.046 249.223 162.447 236.005 141.972 236.005C121.497 236.005 104.898 249.223 104.898 265.529C104.898 281.835 121.497 295.053 141.972 295.053Z" fill="#E7889D"/>
<path d="M342.926 295.053C363.401 295.053 380 281.835 380 265.529C380 249.223 363.401 236.005 342.926 236.005C322.451 236.005 305.852 249.223 305.852 265.529C305.852 281.835 322.451 295.053 342.926 295.053Z" fill="#E7889D"/>
<path d="M272.34 242.844C272.34 224.371 258.957 222.635 242.449 222.635C225.941 222.635 212.553 224.371 212.553 242.844C212.553 261.317 225.936 276.292 242.444 276.292C258.952 276.292 272.335 261.317 272.335 242.844H272.34Z" fill="#4E5660"/>
<path d="M148.17 237.781C146.181 237.781 144.273 236.991 142.867 235.584C141.46 234.178 140.67 232.27 140.67 230.281V215.142C140.67 213.153 141.46 211.245 142.867 209.839C144.273 208.432 146.181 207.642 148.17 207.642C150.159 207.642 152.067 208.432 153.473 209.839C154.88 211.245 155.67 213.153 155.67 215.142V230.281C155.67 231.266 155.476 232.241 155.099 233.151C154.722 234.061 154.17 234.888 153.473 235.584C152.777 236.281 151.95 236.833 151.04 237.21C150.13 237.587 149.155 237.781 148.17 237.781Z" fill="#4E5660"/>
<path d="M336.729 237.781C334.74 237.781 332.832 236.991 331.426 235.584C330.019 234.178 329.229 232.27 329.229 230.281V215.142C329.229 213.153 330.019 211.245 331.426 209.839C332.832 208.432 334.74 207.642 336.729 207.642C338.718 207.642 340.626 208.432 342.032 209.839C343.439 211.245 344.229 213.153 344.229 215.142V230.281C344.229 231.266 344.035 232.241 343.658 233.151C343.281 234.061 342.729 234.888 342.032 235.584C341.336 236.281 340.509 236.833 339.599 237.21C338.689 237.587 337.714 237.781 336.729 237.781Z" fill="#4E5660"/>
<path d="M443.474 94.8981C429.089 92.4821 408.874 91.4221 391.427 92.4091C401.912 78.1811 414.62 58.3941 420.927 32.8531C421.307 31.3509 421.336 29.7814 421.011 28.2664C420.686 26.7514 420.016 25.3316 419.054 24.1173C418.092 22.9029 416.862 21.9267 415.462 21.2644C414.061 20.602 412.526 20.2714 410.977 20.2981C388.528 20.7631 351.396 28.7651 324.229 44.3411C325.279 30.6068 325.194 16.8094 323.976 3.08906C323.816 1.45314 323.257 -0.118568 322.349 -1.48862C321.44 -2.85867 320.21 -3.98535 318.766 -4.77012C317.322 -5.55489 315.707 -5.97386 314.063 -5.99039C312.42 -6.00692 310.797 -5.6205 309.337 -4.86494C291.267 4.45806 258.378 21.8601 242.45 33.7161C226.522 21.8571 193.633 4.45506 175.563 -4.86794C174.103 -5.6235 172.48 -6.00992 170.837 -5.99339C169.193 -5.97686 167.578 -5.55789 166.134 -4.77312C164.69 -3.98835 163.46 -2.86167 162.551 -1.49162C161.643 -0.121569 161.084 1.45014 160.924 3.08606C159.705 16.8064 159.621 30.6038 160.671 44.3381C133.505 28.7611 96.373 20.7611 73.923 20.2981C72.3738 20.2715 70.8392 20.6022 69.4385 21.2647C68.0378 21.9272 66.8086 22.9035 65.8463 24.118C64.884 25.3324 64.2146 26.7523 63.8899 28.2674C63.5651 29.7824 63.5939 31.3519 63.974 32.8541C70.28 58.3951 82.987 78.1821 93.474 92.4101C76.025 91.4241 55.811 92.4831 41.427 94.8991C39.8005 95.1694 38.2653 95.835 36.9562 96.8374C35.6471 97.8398 34.6042 99.1483 33.9191 100.648C33.234 102.148 32.9277 103.793 33.0271 105.439C33.1265 107.084 33.6285 108.681 34.489 110.087C43.53 124.836 60.389 143.953 70.089 154.508C61.889 174.213 58.418 193.313 58.477 208.252C58.504 210.36 59.0798 212.424 60.1477 214.241C61.2156 216.058 62.7386 217.565 64.5666 218.615C66.3947 219.664 68.4646 220.218 70.5723 220.224C72.68 220.229 74.7527 219.685 76.586 218.645C96.703 207.345 112.558 188.245 125.257 159.054C143.192 117.827 172.793 85.9131 235.126 115.163C237.418 116.24 239.919 116.799 242.451 116.799C244.983 116.799 247.484 116.24 249.776 115.163C312.11 85.9131 341.711 117.827 359.646 159.054C372.346 188.246 388.201 207.345 408.317 218.645C410.15 219.685 412.223 220.229 414.331 220.224C416.438 220.218 418.508 219.664 420.336 218.615C422.164 217.565 423.687 216.058 424.755 214.241C425.823 212.424 426.399 210.36 426.426 208.252C426.485 193.314 423.01 174.213 414.814 154.509C424.514 143.954 441.374 124.837 450.414 110.088C451.274 108.681 451.776 107.085 451.875 105.439C451.974 103.793 451.668 102.148 450.983 100.649C450.298 99.149 449.255 97.8404 447.946 96.8379C446.637 95.8354 445.101 95.1696 443.475 94.8991L443.474 94.8981Z" fill="#E7889D"/>
<path d="M81.0727 399.698L44.8677 435.906L108.868 499.906C112.771 503.809 118.065 506.002 123.585 506.002C129.105 506.002 134.398 503.809 138.302 499.906L145.073 493.135C148.976 489.232 151.169 483.938 151.169 478.418C151.169 472.898 148.976 467.604 145.073 463.701L81.0727 399.698Z" fill="#A2DDFD"/>
<path d="M138.299 499.898L145.07 493.127C148.973 489.224 151.166 483.93 151.166 478.41C151.166 472.89 148.973 467.596 145.07 463.693L112.614 431.237C100.765 441.658 83.4217 452.15 73.7217 464.754L108.865 499.898C110.797 501.831 113.092 503.364 115.617 504.41C118.142 505.456 120.848 505.994 123.582 505.994C126.315 505.994 129.021 505.456 131.547 504.41C134.072 503.364 136.366 501.831 138.299 499.898Z" fill="#88D37F"/>
<path d="M87.6699 393.104L38.2699 442.504C37.0533 443.721 35.609 444.686 34.0193 445.345C32.4295 446.004 30.7256 446.343 29.0049 446.343C27.2841 446.343 25.5802 446.004 23.9905 445.345C22.4008 444.686 20.9564 443.721 19.7399 442.504L12.2529 435.011C11.0358 433.794 10.0704 432.35 9.41175 430.76C8.75308 429.171 8.41406 427.467 8.41406 425.746C8.41406 424.025 8.75308 422.321 9.41175 420.732C10.0704 419.142 11.0358 417.698 12.2529 416.481L61.6529 367.081C62.8694 365.864 64.3138 364.899 65.9035 364.24C67.4932 363.581 69.1971 363.242 70.9179 363.242C72.6386 363.242 74.3426 363.581 75.9323 364.24C77.522 364.899 78.9663 365.864 80.1829 367.081L87.6739 374.572C88.8909 375.789 89.8563 377.233 90.515 378.823C91.1736 380.412 91.5127 382.116 91.5127 383.837C91.5127 385.558 91.1736 387.262 90.515 388.851C89.8563 390.441 88.8909 391.885 87.6739 393.102L87.6699 393.104Z" fill="#7ACDF9"/>
<path d="M21.073 349.172C32.7113 349.172 42.146 339.737 42.146 328.099C42.146 316.461 32.7113 307.026 21.073 307.026C9.4347 307.026 0 316.461 0 328.099C0 339.737 9.4347 349.172 21.073 349.172Z" fill="#88D37F"/>
</svg>
