<svg width="533" height="512" viewBox="0 0 533 512" fill="none" xmlns="http://www.w3.org/2000/svg">
<path d="M465.823 33.5519L486.623 43.4399C488.336 44.2543 489.825 45.4739 490.961 46.993C492.097 48.5121 492.845 50.2851 493.142 52.1586C493.439 54.0321 493.275 55.9496 492.664 57.7454C492.053 59.5412 491.014 61.161 489.636 62.4649L472.909 78.2999C470.958 80.1458 469.704 82.6079 469.357 85.2709L466.381 108.1C466.136 109.981 465.436 111.774 464.342 113.324C463.249 114.873 461.794 116.133 460.104 116.995C458.413 117.856 456.539 118.292 454.642 118.266C452.746 118.24 450.884 117.752 449.218 116.845L428.993 105.829C426.635 104.544 423.906 104.112 421.266 104.605L398.627 108.832C396.762 109.18 394.841 109.069 393.029 108.508C391.217 107.946 389.569 106.952 388.228 105.611C386.887 104.27 385.892 102.622 385.331 100.81C384.77 98.9979 384.659 97.0765 385.007 95.2119L389.234 72.5729C389.727 69.9328 389.295 67.2034 388.01 64.8449L376.994 44.6249C376.087 42.9592 375.599 41.0974 375.573 39.2008C375.547 37.3041 375.983 35.4297 376.844 33.7396C377.705 32.0495 378.965 30.5947 380.515 29.5011C382.065 28.4074 383.858 27.7079 385.739 27.4629L408.576 24.4869C411.239 24.1401 413.701 22.8856 415.547 20.9349L431.378 4.20794C432.682 2.83096 434.302 1.79231 436.097 1.1818C437.892 0.57128 439.81 0.407272 441.683 0.703953C443.556 1.00063 445.328 1.74907 446.847 2.88456C448.366 4.02005 449.585 5.5084 450.4 7.22093L460.288 28.0209C461.441 30.446 463.395 32.3995 465.82 33.5519H465.823Z" fill="#EED076"/>
<path d="M402.944 225.319C458.044 296.704 389.839 325.119 406.369 373.419C407.196 375.773 407.547 378.268 407.4 380.759C407.254 383.25 406.614 385.686 405.517 387.927C404.42 390.169 402.888 392.169 401.01 393.812C399.133 395.456 396.947 396.709 394.581 397.5C355.389 410.492 290.527 416.289 234.373 416.289C178.219 416.289 113.357 410.489 74.1648 397.5C71.7978 396.709 69.6117 395.456 67.7339 393.812C65.8561 392.168 64.3241 390.168 63.2271 387.926C62.1301 385.685 61.4901 383.247 61.3443 380.756C61.1985 378.265 61.5498 375.769 62.3778 373.415C78.9078 325.115 10.6998 296.703 65.8028 225.315L402.944 225.319Z" fill="#4E5660"/>
<path d="M363.283 456.537C365.811 456.546 368.311 456.015 370.617 454.98C372.924 453.945 374.983 452.43 376.656 450.535C378.33 448.641 379.58 446.411 380.323 443.995C381.066 441.578 381.284 439.031 380.964 436.524C376.12 401.085 358.601 368.6 331.65 345.082C304.7 321.565 270.142 308.607 234.373 308.607C198.604 308.607 164.046 321.565 137.095 345.082C110.144 368.6 92.6258 401.085 87.7818 436.524C87.4613 439.031 87.6797 441.579 88.4225 443.995C89.1652 446.411 90.4153 448.641 92.089 450.536C93.7627 452.43 95.8215 453.945 98.1279 454.98C100.434 456.015 102.935 456.546 105.463 456.537H363.283Z" fill="#CB9D82"/>
<path d="M139.887 342.714C143.143 376.666 145.8 423.749 146.728 456.536H322.018C322.946 423.749 325.603 376.666 328.859 342.714C302.307 320.67 268.883 308.603 234.373 308.603C199.863 308.603 166.439 320.67 139.887 342.714Z" fill="#F6EE86"/>
<path d="M289.692 398.841C293.719 398.841 296.983 395.577 296.983 391.55C296.983 387.523 293.719 384.259 289.692 384.259C285.665 384.259 282.401 387.523 282.401 391.55C282.401 395.577 285.665 398.841 289.692 398.841Z" fill="#EED076"/>
<path d="M174.319 430.304C178.238 429.378 180.663 425.45 179.737 421.532C178.811 417.613 174.883 415.187 170.964 416.114C167.046 417.04 164.62 420.968 165.546 424.886C166.473 428.805 170.4 431.231 174.319 430.304Z" fill="#EED076"/>
<path d="M191.439 396.684C194.287 393.837 194.287 389.221 191.439 386.373C188.592 383.526 183.976 383.526 181.128 386.373C178.281 389.221 178.281 393.837 181.128 396.684C183.976 399.532 188.592 399.532 191.439 396.684Z" fill="white"/>
<path d="M226.99 434.993C229.838 432.146 229.838 427.53 226.99 424.682C224.143 421.835 219.527 421.835 216.679 424.682C213.832 427.53 213.832 432.146 216.679 434.993C219.527 437.841 224.143 437.841 226.99 434.993Z" fill="white"/>
<path d="M289.692 333.921C280.28 340.51 251.774 378.015 237.779 404.599C237.454 405.221 236.964 405.743 236.364 406.107C235.763 406.471 235.074 406.663 234.372 406.663C233.67 406.663 232.981 406.471 232.381 406.107C231.78 405.743 231.291 405.221 230.966 404.599C216.971 378.015 188.466 340.509 179.053 333.921H289.692Z" fill="#CB9D82"/>
<path d="M408.094 259.508C435.367 259.508 457.476 237.399 457.476 210.126C457.476 182.853 435.367 160.744 408.094 160.744C380.821 160.744 358.712 182.853 358.712 210.126C358.712 237.399 380.821 259.508 408.094 259.508Z" fill="#B7856B"/>
<path d="M60.6508 259.508C87.9237 259.508 110.033 237.399 110.033 210.126C110.033 182.853 87.9237 160.744 60.6508 160.744C33.3779 160.744 11.2688 182.853 11.2688 210.126C11.2688 237.399 33.3779 259.508 60.6508 259.508Z" fill="#CB9D82"/>
<path d="M404.123 200.243C404.123 113.683 328.123 46.361 234.373 46.361C140.623 46.361 64.6228 113.683 64.6228 200.243C64.6228 286.803 140.623 355.392 234.373 355.392C328.123 355.392 404.123 286.8 404.123 200.243Z" fill="#CB9D82"/>
<path d="M179.832 54.3199C112.832 74.5589 64.6218 131.298 64.6218 200.243C64.6218 286.803 140.622 355.392 234.372 355.392C257.616 355.45 280.661 351.11 302.291 342.6C94.0588 331.107 123.449 117.149 179.832 54.3199Z" fill="#B7856B"/>
<path d="M141.693 277.822C160.579 277.822 175.89 265.629 175.89 250.589C175.89 235.549 160.579 223.356 141.693 223.356C122.806 223.356 107.496 235.549 107.496 250.589C107.496 265.629 122.806 277.822 141.693 277.822Z" fill="white"/>
<path d="M327.052 277.822C345.938 277.822 361.249 265.629 361.249 250.589C361.249 235.549 345.938 223.356 327.052 223.356C308.165 223.356 292.855 235.549 292.855 250.589C292.855 265.629 308.165 277.822 327.052 277.822Z" fill="white"/>
<path d="M234.373 221.655C220.806 221.655 208.725 212.538 201.126 223.781C193.418 235.181 210.681 252.869 234.373 252.869C258.065 252.869 275.328 235.185 267.62 223.781C260.02 212.538 247.939 221.655 234.373 221.655Z" fill="#4E5660"/>
<path d="M161.623 229.991C157.69 229.99 153.804 229.146 150.225 227.517C146.646 225.887 143.458 223.509 140.876 220.543C139.569 219.043 138.911 217.086 139.048 215.101C139.184 213.117 140.103 211.268 141.603 209.961C143.102 208.654 145.06 207.997 147.044 208.133C149.029 208.269 150.878 209.188 152.185 210.688C153.358 212.039 154.808 213.123 156.436 213.865C158.064 214.608 159.833 214.992 161.623 214.992C163.412 214.992 165.181 214.608 166.809 213.865C168.438 213.123 169.887 212.039 171.061 210.688C172.368 209.188 174.217 208.269 176.201 208.133C178.186 207.997 180.143 208.654 181.643 209.961C183.142 211.268 184.062 213.117 184.198 215.101C184.334 217.086 183.677 219.043 182.37 220.543C179.788 223.509 176.6 225.887 173.021 227.517C169.442 229.146 165.555 229.99 161.623 229.991Z" fill="#4E5660"/>
<path d="M307.122 229.991C303.189 229.99 299.303 229.146 295.724 227.517C292.145 225.887 288.957 223.509 286.375 220.543C285.068 219.043 284.41 217.086 284.547 215.101C284.683 213.117 285.602 211.268 287.102 209.961C288.601 208.654 290.559 207.997 292.543 208.133C294.528 208.269 296.377 209.188 297.684 210.688C298.857 212.039 300.307 213.123 301.935 213.866C303.564 214.608 305.333 214.993 307.122 214.993C308.912 214.993 310.681 214.608 312.309 213.866C313.938 213.123 315.387 212.039 316.561 210.688C317.868 209.188 319.717 208.269 321.701 208.133C323.686 207.997 325.643 208.654 327.143 209.961C328.642 211.268 329.562 213.117 329.698 215.101C329.834 217.086 329.177 219.043 327.87 220.543C325.287 223.509 322.099 225.887 318.52 227.517C314.941 229.146 311.054 229.99 307.122 229.991Z" fill="#4E5660"/>
<path d="M234.373 27.7C429.506 -14.282 453.642 163.872 409.534 224.26C407.922 226.466 405.689 228.141 403.12 229.071C400.55 230 397.762 230.141 395.112 229.476C392.462 228.811 390.071 227.37 388.245 225.338C386.419 223.306 385.241 220.775 384.862 218.069C372.185 129.777 261.349 157.926 234.373 106.73C207.4 157.926 96.5598 129.776 83.8838 218.069C83.5048 220.775 82.3269 223.306 80.5007 225.338C78.6746 227.37 76.2834 228.811 73.6334 229.476C70.9834 230.141 68.1952 230 65.626 229.071C63.0567 228.141 60.8233 226.466 59.2118 224.26C15.0998 163.872 39.2388 -14.282 234.373 27.7Z" fill="#4E5660"/>
<path d="M495.454 405.28C515.882 384.852 514.489 350.339 492.344 328.193C470.198 306.048 435.685 304.655 415.257 325.083C394.829 345.511 396.222 380.024 418.367 402.17C440.513 424.315 475.026 425.708 495.454 405.28Z" fill="#8DAEE1"/>
<path d="M478.343 417.577C444.143 397.003 437.656 333.848 451.668 308.623C439.436 308.484 426.968 313.443 415.333 325.073C389.884 350.521 396.298 380.014 418.444 402.16C435.738 419.454 457.513 427.153 478.343 417.577Z" fill="#6A95D6"/>
<path d="M449.336 415.4L405.2 371.268C404.439 370.508 403.53 369.913 402.528 369.521C401.527 369.129 400.455 368.949 399.381 368.991C398.306 369.034 397.252 369.298 396.285 369.768C395.318 370.237 394.458 370.902 393.76 371.72L313.5 465.785C310.161 469.699 308.42 474.728 308.624 479.869C308.828 485.009 310.962 489.884 314.6 493.522L327.087 506.009C330.724 509.647 335.599 511.781 340.74 511.985C345.881 512.189 350.91 510.448 354.824 507.109L448.889 426.845C449.708 426.147 450.373 425.286 450.843 424.318C451.312 423.35 451.577 422.296 451.619 421.22C451.661 420.145 451.479 419.073 451.087 418.071C450.694 417.069 450.098 416.16 449.336 415.4Z" fill="#A2DDFD"/>
<path d="M449.336 415.4L405.2 371.268C404.439 370.508 403.53 369.913 402.528 369.521C401.527 369.129 400.455 368.949 399.381 368.991C398.306 369.034 397.252 369.298 396.285 369.768C395.318 370.237 394.458 370.902 393.76 371.72L313.5 465.785C310.161 469.699 308.42 474.728 308.624 479.869C308.828 485.009 310.962 489.884 314.6 493.522L327.087 506.009C330.724 509.647 335.599 511.781 340.74 511.985C345.881 512.189 350.91 510.448 354.824 507.109L448.889 426.845C449.708 426.147 450.373 425.286 450.843 424.318C451.312 423.35 451.577 422.296 451.619 421.22C451.661 420.145 451.479 419.073 451.087 418.071C450.694 417.069 450.098 416.16 449.336 415.4Z" fill="#A2DDFD"/>
<path d="M387.424 440.68C385.941 440.679 384.493 440.238 383.261 439.414C382.028 438.59 381.068 437.419 380.501 436.049C379.934 434.68 379.785 433.173 380.074 431.719C380.363 430.265 381.076 428.929 382.124 427.88L388.761 421.243C389.457 420.546 390.284 419.994 391.194 419.617C392.104 419.24 393.079 419.046 394.064 419.046C395.049 419.046 396.025 419.24 396.935 419.617C397.845 419.994 398.671 420.546 399.368 421.243C400.064 421.939 400.617 422.766 400.994 423.676C401.371 424.586 401.565 425.561 401.565 426.546C401.565 427.531 401.371 428.507 400.994 429.417C400.617 430.327 400.064 431.153 399.368 431.85L392.731 438.487C392.034 439.184 391.207 439.737 390.296 440.113C389.385 440.489 388.409 440.682 387.424 440.68Z" fill="white"/>
<path d="M326.839 450.15L313.5 465.786C310.161 469.7 308.42 474.729 308.624 479.87C308.828 485.01 310.962 489.885 314.6 493.523L327.087 506.01C330.724 509.648 335.599 511.782 340.74 511.986C345.881 512.19 350.91 510.449 354.824 507.11L370.46 493.769L326.839 450.15Z" fill="#8DAEE1"/>
<path d="M33.9948 415.3L17.0568 407.249C15.6612 406.586 14.4482 405.593 13.5227 404.356C12.5971 403.119 11.987 401.675 11.745 400.149C11.5031 398.624 11.6366 397.062 12.134 395.599C12.6314 394.136 13.4777 392.817 14.5998 391.755L28.2208 378.863C29.8095 377.36 30.831 375.355 31.1128 373.186L33.5358 354.586C33.7354 353.054 34.3052 351.594 35.1959 350.332C36.0866 349.07 37.2713 348.044 38.6476 347.343C40.0238 346.642 41.5503 346.286 43.0947 346.308C44.6392 346.329 46.1553 346.726 47.5118 347.465L63.9818 356.435C65.9021 357.482 68.1245 357.835 70.2748 357.435L88.7098 353.993C90.2281 353.71 91.7926 353.8 93.2679 354.257C94.7433 354.714 96.0851 355.524 97.1772 356.616C98.2693 357.709 99.0788 359.05 99.5358 360.526C99.9927 362.001 100.083 363.566 99.7998 365.084L96.3578 383.519C95.9576 385.669 96.3108 387.892 97.3578 389.812L106.328 406.281C107.067 407.637 107.464 409.153 107.485 410.698C107.506 412.242 107.151 413.769 106.45 415.145C105.748 416.521 104.722 417.706 103.46 418.597C102.198 419.487 100.738 420.057 99.2068 420.257L80.6068 422.68C78.4383 422.963 76.4335 423.984 74.9298 425.572L62.0418 439.193C60.9801 440.315 59.661 441.161 58.1986 441.659C56.7363 442.156 55.1748 442.29 53.6491 442.048C52.1235 441.807 50.6797 441.197 49.4427 440.272C48.2057 439.347 47.2128 438.134 46.5498 436.739L38.4998 419.8C37.56 417.827 35.9691 416.237 33.9948 415.3Z" fill="#88D37F"/>
<path d="M45.0848 85.8999L27.4698 92.1649C26.0191 92.6808 24.4645 92.8355 22.9406 92.6156C21.4166 92.3957 19.9692 91.8078 18.7235 90.9028C17.4778 89.9979 16.4714 88.803 15.7912 87.4217C15.111 86.0403 14.7776 84.5141 14.8198 82.9749L15.3338 64.2869C15.3939 62.1077 14.7006 59.9745 13.3708 58.2469L1.97182 43.4299C1.0328 42.2098 0.405143 40.7794 0.143135 39.2622C-0.118872 37.745 -0.00734243 36.1869 0.468079 34.7225C0.943501 33.2581 1.7685 31.9316 2.87172 30.8577C3.97495 29.7838 5.32318 28.9948 6.79982 28.5589L24.7318 23.2729C26.8229 22.6567 28.6376 21.3383 29.8698 19.5399L40.4418 4.11995C41.3123 2.84987 42.4791 1.811 43.8413 1.09318C45.2035 0.375374 46.7201 0.000244141 48.2598 0.000244141C49.7996 0.000244141 51.3161 0.375374 52.6783 1.09318C54.0405 1.811 55.2073 2.84987 56.0778 4.11995L66.6468 19.5409C67.8791 21.3393 69.6937 22.6577 71.7848 23.2739L89.7168 28.5599C91.1936 28.9955 92.5421 29.7843 93.6457 30.858C94.7492 31.9318 95.5746 33.2582 96.0504 34.7225C96.5262 36.1869 96.6381 37.7451 96.3765 39.2624C96.1149 40.7797 95.4876 42.2105 94.5488 43.4309L83.1488 58.2479C81.8199 59.9759 81.1267 62.1089 81.1858 64.2879L81.6998 82.9759C81.7422 84.515 81.409 86.0413 80.7289 87.4227C80.0489 88.804 79.0425 89.9989 77.7968 90.9039C76.5512 91.8089 75.1038 92.3968 73.5799 92.6167C72.056 92.8366 70.5015 92.6819 69.0508 92.1659L51.4358 85.8999C49.3819 85.1689 47.1387 85.1689 45.0848 85.8999Z" fill="#E7889D"/>
</svg>
