<svg width="512" height="512" viewBox="0 0 512 512" fill="none" xmlns="http://www.w3.org/2000/svg">
<path d="M454.836 244.123C454.836 287.411 454.115 350.798 464.768 378.331C466.406 382.624 466.653 387.323 465.473 391.763C464.293 396.203 461.746 400.16 458.193 403.073C431.122 425.291 386.032 442.446 347.041 420.683C336.967 435.324 297.818 462.483 251.612 462.483C205.407 462.483 166.256 435.325 156.183 420.683C117.192 442.446 72.1025 425.291 45.0315 403.073C41.4787 400.16 38.9322 396.203 37.7522 391.763C36.5722 387.323 36.8186 382.624 38.4565 378.331C49.1095 350.798 48.3885 287.411 48.3885 244.123H454.836Z" fill="#D1986F"/>
<path d="M499 244.761C501.568 213.925 478.651 186.847 447.816 184.279C416.98 181.712 389.902 204.629 387.335 235.464C384.768 266.3 407.684 293.378 438.519 295.945C469.355 298.512 496.433 275.596 499 244.761Z" fill="#FFBE9D"/>
<path d="M65.1292 296.022C95.9648 293.454 118.881 266.376 116.314 235.541C113.747 204.705 86.6685 181.789 55.8328 184.356C24.9972 186.923 2.08106 214.001 4.64818 244.837C7.2153 275.673 34.2936 298.589 65.1292 296.022Z" fill="#FFD3BD"/>
<path d="M397.867 512C400.736 512.01 403.573 511.408 406.189 510.234C408.806 509.06 411.142 507.34 413.041 505.191C414.94 503.042 416.358 500.512 417.201 497.77C418.043 495.029 418.291 492.139 417.927 489.294C412.432 449.085 392.557 412.229 361.979 385.546C331.402 358.864 292.194 344.162 251.611 344.162C211.029 344.162 171.821 358.864 141.243 385.546C110.666 412.229 90.7906 449.085 85.2955 489.294C84.9318 492.139 85.1796 495.029 86.0223 497.77C86.8651 500.512 88.2833 503.042 90.1822 505.191C92.0811 507.34 94.417 509.06 97.0336 510.234C99.6503 511.408 102.487 512.01 105.355 512H397.867Z" fill="#88D37F"/>
<path d="M244.111 444.814H259.111V512H244.111V444.814Z" fill="#5EC682"/>
<path d="M365.944 486.274H353.284C351.295 486.274 349.387 485.484 347.981 484.077C346.574 482.671 345.784 480.763 345.784 478.774C345.784 476.785 346.574 474.877 347.981 473.471C349.387 472.064 351.295 471.274 353.284 471.274H365.944C367.933 471.274 369.841 472.064 371.247 473.471C372.654 474.877 373.444 476.785 373.444 478.774C373.444 480.763 372.654 482.671 371.247 484.077C369.841 485.484 367.933 486.274 365.944 486.274Z" fill="#F6EE86"/>
<path d="M314.805 360.926V411.585L251.632 462L188.459 411.584V360.926H314.805Z" fill="white"/>
<path d="M251.632 462L183.132 367.472L161.661 414.7C160.769 416.661 160.302 418.788 160.288 420.942C160.275 423.096 160.716 425.228 161.583 427.2C162.45 429.172 163.723 430.939 165.319 432.386C166.915 433.832 168.798 434.926 170.846 435.595L251.632 462Z" fill="#5EC682"/>
<path d="M251.632 462L320.132 367.472L341.603 414.7C342.494 416.661 342.962 418.788 342.975 420.942C342.988 423.096 342.547 425.228 341.68 427.2C340.814 429.172 339.541 430.939 337.945 432.386C336.348 433.832 334.465 434.926 332.418 435.595L251.632 462Z" fill="#5EC682"/>
<path d="M444.202 232.441C444.202 134.233 357.976 57.8521 251.611 57.8521C145.246 57.8521 59.0186 134.233 59.0186 232.441C59.0186 330.649 145.245 408.467 251.611 408.467C357.977 408.467 444.202 330.649 444.202 232.441Z" fill="#FFD3BD"/>
<path d="M189.732 66.8831C113.721 89.8451 59.0186 154.22 59.0186 232.441C59.0186 330.649 145.245 408.467 251.611 408.467C277.982 408.535 304.128 403.612 328.669 393.958C92.4166 380.914 125.762 138.166 189.732 66.8831Z" fill="#FFBE9D"/>
<path d="M147.798 303.34C168.953 303.34 186.103 289.683 186.103 272.836C186.103 255.989 168.953 242.332 147.798 242.332C126.643 242.332 109.493 255.989 109.493 272.836C109.493 289.683 126.643 303.34 147.798 303.34Z" fill="#E7889D"/>
<path d="M355.424 303.34C376.579 303.34 393.729 289.683 393.729 272.836C393.729 255.989 376.579 242.332 355.424 242.332C334.269 242.332 317.119 255.989 317.119 272.836C317.119 289.683 334.269 303.34 355.424 303.34Z" fill="#E7889D"/>
<path d="M170.122 250.972C168.133 250.972 166.225 250.182 164.819 248.775C163.412 247.369 162.622 245.461 162.622 243.472V227.814C162.622 225.825 163.412 223.917 164.819 222.511C166.225 221.104 168.133 220.314 170.122 220.314C172.111 220.314 174.019 221.104 175.425 222.511C176.832 223.917 177.622 225.825 177.622 227.814V243.472C177.622 245.461 176.832 247.369 175.425 248.775C174.019 250.182 172.111 250.972 170.122 250.972Z" fill="#4E5660"/>
<path d="M333.1 250.972C331.11 250.972 329.203 250.182 327.796 248.775C326.39 247.369 325.6 245.461 325.6 243.472V227.814C325.6 225.825 326.39 223.917 327.796 222.511C329.203 221.104 331.11 220.314 333.1 220.314C335.089 220.314 336.996 221.104 338.403 222.511C339.809 223.917 340.6 225.825 340.6 227.814V243.472C340.6 245.461 339.809 247.369 338.403 248.775C336.996 250.182 335.089 250.972 333.1 250.972Z" fill="#4E5660"/>
<path d="M251.611 260.294C246.467 260.292 241.383 259.188 236.701 257.056C232.02 254.924 227.85 251.814 224.472 247.934C223.165 246.434 222.507 244.477 222.644 242.492C222.78 240.508 223.699 238.659 225.199 237.352C226.698 236.045 228.656 235.388 230.64 235.524C232.625 235.66 234.474 236.579 235.781 238.079C237.749 240.344 240.181 242.161 242.913 243.406C245.644 244.651 248.61 245.295 251.611 245.295C254.613 245.295 257.579 244.651 260.31 243.406C263.041 242.161 265.473 240.344 267.442 238.079C268.756 236.606 270.598 235.711 272.568 235.587C274.538 235.464 276.477 236.122 277.965 237.419C279.454 238.716 280.37 240.547 280.517 242.515C280.664 244.484 280.028 246.431 278.749 247.934C275.371 251.813 271.201 254.924 266.52 257.056C261.838 259.188 256.755 260.292 251.611 260.294Z" fill="#4E5660"/>
<path d="M53.3592 175.937C48.7272 191.685 46.6802 236.237 56.0502 261.31C56.8274 263.413 58.1253 265.284 59.8224 266.749C61.5196 268.214 63.5606 269.225 65.7546 269.686C67.9485 270.148 70.2236 270.045 72.3672 269.388C74.5107 268.731 76.4526 267.542 78.0112 265.93C95.7172 247.559 122.448 206.589 124.243 159.568L53.3592 175.937Z" fill="#D1986F"/>
<path d="M449.905 175.937C454.537 191.685 456.584 236.237 447.214 261.31C446.437 263.412 445.139 265.282 443.442 266.747C441.745 268.211 439.705 269.221 437.512 269.682C435.319 270.144 433.045 270.042 430.902 269.385C428.759 268.729 426.817 267.54 425.258 265.93C407.552 247.559 380.821 206.589 379.026 159.568L449.905 175.937Z" fill="#D1986F"/>
<path d="M467.765 165.225C465.448 164.01 463.079 162.821 460.656 161.657C459.448 161.068 458.399 160.199 457.595 159.122C456.792 158.046 456.258 156.792 456.037 155.467C442.354 75.868 386.741 0 251.611 0C116.452 0 60.8441 75.9 47.1751 155.519C46.9552 156.844 46.4215 158.097 45.6187 159.174C44.8159 160.251 43.7672 161.12 42.5601 161.709C40.1741 162.859 37.8364 164.033 35.5471 165.231C23.3921 171.606 18.0471 186.522 24.1771 198.805C25.662 201.789 27.7292 204.445 30.2566 206.617C32.7841 208.79 35.7208 210.434 38.8937 211.454C42.0666 212.474 45.4115 212.848 48.7313 212.555C52.0512 212.262 55.2788 211.308 58.2241 209.748C102.848 186.126 171.556 173.065 251.633 172.971C331.77 173.065 400.478 186.126 445.102 209.748C448.048 211.308 451.276 212.262 454.597 212.554C457.917 212.847 461.263 212.472 464.436 211.451C467.609 210.431 470.546 208.785 473.073 206.612C475.601 204.439 477.668 201.782 479.152 198.797C485.271 186.512 479.922 171.6 467.765 165.225Z" fill="#88D37F"/>
<path d="M166.194 12.569C91.7764 37.351 57.5014 95.369 47.1754 155.519C46.9553 156.844 46.4215 158.097 45.6185 159.174C44.8155 160.251 43.7666 161.12 42.5594 161.709C40.1734 162.859 37.8357 164.033 35.5464 165.231C23.3914 171.606 18.0524 186.522 24.1764 198.806C25.6614 201.79 27.7285 204.446 30.256 206.618C32.7834 208.791 35.7201 210.435 38.893 211.455C42.0659 212.475 45.4108 212.849 48.7307 212.556C52.0505 212.263 55.2781 211.309 58.2234 209.749C85.5604 195.278 121.946 184.779 164.437 178.788C136.253 147.386 140.656 48.724 166.194 12.569Z" fill="#5EC682"/>
<path d="M251.631 133.014C250.646 133.014 249.671 132.82 248.762 132.443C247.852 132.065 247.026 131.512 246.331 130.814L225.26 109.751C223.854 108.344 223.063 106.437 223.063 104.448C223.063 102.458 223.854 100.551 225.26 99.144C226.667 97.7375 228.575 96.9473 230.564 96.9473C232.553 96.9473 234.461 97.7375 235.867 99.144L251.631 114.909L267.397 99.144C268.093 98.4426 268.92 97.8855 269.831 97.5045C270.742 97.1236 271.72 96.9264 272.707 96.9243C273.695 96.9222 274.673 97.1152 275.586 97.4922C276.499 97.8692 277.329 98.4228 278.027 99.1213C278.725 99.8197 279.279 100.649 279.656 101.562C280.033 102.475 280.226 103.453 280.223 104.441C280.221 105.429 280.024 106.406 279.643 107.318C279.262 108.229 278.705 109.056 278.003 109.751L256.935 130.818C256.239 131.515 255.412 132.068 254.502 132.445C253.592 132.821 252.616 133.015 251.631 133.014Z" fill="#F6EE86"/>
<path d="M251.632 80.74C250.647 80.7403 249.672 80.5461 248.762 80.1685C247.853 79.791 247.027 79.2376 246.332 78.54L225.261 57.477C223.854 56.0704 223.064 54.1626 223.063 52.1734C223.063 50.1841 223.854 48.2762 225.26 46.8695C226.667 45.4628 228.574 44.6725 230.564 44.6724C232.553 44.6723 234.461 45.4624 235.868 46.869L251.632 62.634L267.398 46.869C268.804 45.4626 270.712 44.6725 272.701 44.6727C274.691 44.6729 276.598 45.4633 278.005 46.87C279.411 48.2767 280.201 50.1845 280.201 52.1737C280.201 54.1629 279.41 56.0706 278.004 57.477L256.936 78.544C256.24 79.2411 255.413 79.794 254.503 80.1709C253.592 80.5477 252.617 80.7411 251.632 80.74Z" fill="#F6EE86"/>
<path d="M320.081 486.274H307.421C305.432 486.274 303.524 485.484 302.118 484.077C300.711 482.671 299.921 480.763 299.921 478.774C299.921 476.785 300.711 474.877 302.118 473.471C303.524 472.064 305.432 471.274 307.421 471.274H320.081C322.07 471.274 323.978 472.064 325.384 473.471C326.791 474.877 327.581 476.785 327.581 478.774C327.581 480.763 326.791 482.671 325.384 484.077C323.978 485.484 322.07 486.274 320.081 486.274Z" fill="white"/>
</svg>
