<svg width="524" height="512" viewBox="0 0 524 512" fill="none" xmlns="http://www.w3.org/2000/svg">
<path d="M66.4348 366.024C93.6248 388.807 112.267 359.381 133.882 376.269C135.277 377.352 136.934 378.046 138.684 378.28C140.434 378.515 142.216 378.281 143.846 377.603C145.477 376.925 146.898 375.827 147.967 374.42C149.035 373.014 149.711 371.35 149.927 369.597C152.602 347.11 149.179 323.344 125.32 299.485C121.156 295.32 116.205 292.024 110.757 289.789C105.308 287.553 99.4694 286.422 93.5801 286.462C87.6907 286.502 81.868 287.712 76.4501 290.021C71.0322 292.33 66.1271 295.693 62.0198 299.914C43.7048 318.714 46.3108 349.165 66.4308 366.024H66.4348Z" fill="#A2DDFD"/>
<path d="M517.278 194.608C520.45 162.732 497.18 134.32 465.304 131.149C433.428 127.977 405.016 151.247 401.844 183.123C398.673 214.999 421.942 243.411 453.819 246.583C485.695 249.754 514.107 226.484 517.278 194.608Z" fill="#B7856B"/>
<path d="M69.2022 246.392C101.078 243.221 124.348 214.809 121.177 182.933C118.005 151.057 89.5932 127.787 57.717 130.958C25.8408 134.13 2.57105 162.542 5.74261 194.418C8.91417 226.294 37.326 249.564 69.2022 246.392Z" fill="#CB9D82"/>
<path d="M412.787 457.943C415.756 457.954 418.693 457.33 421.402 456.115C424.111 454.899 426.53 453.119 428.495 450.894C430.461 448.669 431.929 446.049 432.802 443.211C433.674 440.373 433.931 437.381 433.554 434.436C427.866 392.809 407.29 354.652 375.634 327.027C343.978 299.403 303.387 284.182 261.373 284.182C219.359 284.182 178.767 299.403 147.112 327.027C115.456 354.652 94.88 392.809 89.1919 434.436C88.8153 437.381 89.0718 440.373 89.9442 443.211C90.8166 446.05 92.2849 448.669 94.2508 450.894C96.2168 453.119 98.6352 454.899 101.344 456.115C104.053 457.33 106.991 457.954 109.96 457.943H412.787Z" fill="#CB9D82"/>
<path d="M460.756 180.745C460.756 79.074 371.489 0 261.373 0C151.257 0 61.9902 79.074 61.9902 180.745C61.9902 282.416 151.257 362.979 261.373 362.979C371.489 362.979 460.756 282.416 460.756 180.745Z" fill="#CB9D82"/>
<path d="M460.756 180.745C460.756 79.074 371.489 0 261.373 0C151.257 0 61.9902 79.074 61.9902 180.745C61.9902 282.416 151.257 362.979 261.373 362.979C371.489 362.979 460.756 282.416 460.756 180.745Z" fill="#CB9D82"/>
<path d="M460.756 180.745C460.756 79.074 371.489 0 261.373 0C151.257 0 61.9902 79.074 61.9902 180.745C61.9902 282.416 151.257 362.979 261.373 362.979C371.489 362.979 460.756 282.416 460.756 180.745Z" fill="#CB9D82"/>
<path d="M197.312 9.349C118.621 33.121 61.9902 99.765 61.9902 180.745C61.9902 282.416 151.257 362.979 261.373 362.979C288.674 363.049 315.742 357.953 341.148 347.958C96.5652 334.454 131.086 83.146 197.312 9.349Z" fill="#B7856B"/>
<path d="M153.881 256.908C175.784 256.908 193.54 242.768 193.54 225.326C193.54 207.884 175.784 193.744 153.881 193.744C131.978 193.744 114.222 207.884 114.222 225.326C114.222 242.768 131.978 256.908 153.881 256.908Z" fill="white"/>
<path d="M368.844 256.908C390.747 256.908 408.503 242.768 408.503 225.326C408.503 207.884 390.747 193.744 368.844 193.744C346.941 193.744 329.185 207.884 329.185 225.326C329.185 242.768 346.941 256.908 368.844 256.908Z" fill="white"/>
<path d="M176.994 202.424C175.005 202.424 173.097 201.634 171.691 200.227C170.284 198.821 169.494 196.913 169.494 194.924V178.712C169.494 176.723 170.284 174.815 171.691 173.409C173.097 172.002 175.005 171.212 176.994 171.212C178.983 171.212 180.891 172.002 182.297 173.409C183.704 174.815 184.494 176.723 184.494 178.712V194.924C184.494 196.913 183.704 198.821 182.297 200.227C180.891 201.634 178.983 202.424 176.994 202.424Z" fill="#4E5660"/>
<path d="M345.731 202.424C343.742 202.424 341.835 201.634 340.428 200.227C339.022 198.821 338.231 196.913 338.231 194.924V178.712C338.231 176.723 339.022 174.815 340.428 173.409C341.835 172.002 343.742 171.212 345.731 171.212C347.721 171.212 349.628 172.002 351.035 173.409C352.441 174.815 353.231 176.723 353.231 178.712V194.924C353.231 196.913 352.441 198.821 351.035 200.227C349.628 201.634 347.721 202.424 345.731 202.424Z" fill="#4E5660"/>
<path d="M261.363 249.051C256.074 249.05 250.848 247.915 246.035 245.724C241.222 243.532 236.935 240.334 233.463 236.345C232.156 234.845 231.498 232.888 231.635 230.903C231.771 228.918 232.691 227.069 234.19 225.763C235.69 224.456 237.648 223.798 239.632 223.935C241.617 224.071 243.466 224.99 244.773 226.49C246.836 228.864 249.385 230.767 252.246 232.072C255.108 233.376 258.217 234.051 261.362 234.051C264.507 234.051 267.615 233.376 270.477 232.072C273.339 230.767 275.888 228.864 277.951 226.49C279.258 224.99 281.107 224.071 283.091 223.935C285.076 223.799 287.033 224.456 288.533 225.763C290.032 227.07 290.952 228.919 291.088 230.903C291.224 232.888 290.567 234.845 289.26 236.345C285.788 240.333 281.501 243.531 276.689 245.722C271.877 247.914 266.651 249.049 261.363 249.051Z" fill="#4E5660"/>
<path d="M66.3018 142.69C121.373 147.682 218.873 149.074 261.363 149.074H261.384C303.874 149.074 401.372 147.682 456.445 142.69C437.392 60.011 357.299 0 261.373 0C165.447 0 85.3538 60.011 66.3018 142.69Z" fill="#88D37F"/>
<path d="M66.3018 142.69C121.373 147.682 218.873 149.074 261.363 149.074H261.384C303.874 149.074 401.372 147.682 456.445 142.69C437.392 60.011 357.299 0 261.373 0C165.447 0 85.3538 60.011 66.3018 142.69Z" fill="#88D37F"/>
<path d="M318.137 192.9C311.262 189.774 291.047 186.619 261.384 186.619C231.721 186.619 211.506 189.774 204.631 192.9L186.011 151.956C196.359 147.25 217.836 141.64 261.384 141.64C304.932 141.64 326.408 147.25 336.756 151.956L318.137 192.9Z" fill="#F6EE86"/>
<path d="M66.2988 142.69C88.9868 144.747 118.87 146.19 149.148 147.181C151.663 90.811 172.206 37.325 197.312 9.349C131.352 29.274 80.9008 79.326 66.2988 142.69Z" fill="#5EC682"/>
<path d="M79.8047 105.2C105.605 98.118 138.86 90.913 172.405 90.913C177.758 90.913 182.891 88.7866 186.676 85.0015C190.461 81.2165 192.588 76.0829 192.588 70.73C192.588 65.3771 190.461 60.2435 186.676 56.4585C182.891 52.6734 177.758 50.547 172.405 50.547C153.776 50.6587 135.188 52.3286 116.838 55.539C101.695 69.8097 89.1628 86.616 79.8047 105.2Z" fill="#F6EE86"/>
<path d="M157.492 91.368C161.034 77.3847 165.765 63.7297 171.632 50.552C153.26 50.7088 134.931 52.3767 116.832 55.539C101.702 69.8094 89.1802 86.6129 79.832 105.192C101.789 99.166 129.15 93.053 157.492 91.368Z" fill="#EED076"/>
<path d="M183.526 219.319C205.945 215.685 221.173 194.565 217.538 172.147C213.904 149.728 192.784 134.5 170.366 138.135C147.947 141.769 132.72 162.889 136.354 185.307C139.988 207.726 161.108 222.954 183.526 219.319Z" fill="#8DAEE1"/>
<path d="M386.267 185.289C389.901 162.871 374.673 141.751 352.255 138.117C329.836 134.482 308.716 149.71 305.082 172.129C301.448 194.547 316.676 215.667 339.094 219.301C361.513 222.935 382.633 207.708 386.267 185.289Z" fill="#8DAEE1"/>
<path d="M345.752 227.339C336.135 227.339 326.733 224.487 318.736 219.144C310.74 213.801 304.507 206.206 300.827 197.321C297.146 188.435 296.183 178.658 298.059 169.225C299.936 159.793 304.567 151.128 311.368 144.328C318.168 137.527 326.833 132.896 336.265 131.019C345.698 129.143 355.475 130.106 364.361 133.787C373.246 137.467 380.841 143.7 386.184 151.696C391.527 159.693 394.379 169.094 394.379 178.712C394.365 191.604 389.237 203.964 380.121 213.081C371.004 222.197 358.644 227.325 345.752 227.339ZM345.752 145.085C339.101 145.085 332.6 147.057 327.07 150.752C321.54 154.447 317.23 159.699 314.685 165.843C312.14 171.988 311.474 178.749 312.771 185.272C314.069 191.795 317.271 197.787 321.974 202.49C326.677 207.193 332.669 210.395 339.192 211.693C345.715 212.99 352.476 212.324 358.621 209.779C364.765 207.234 370.017 202.924 373.712 197.394C377.407 191.864 379.379 185.363 379.379 178.712C379.369 169.797 375.823 161.249 369.519 154.945C363.215 148.641 354.667 145.095 345.752 145.085Z" fill="#A2DDFD"/>
<path d="M176.994 227.339C167.377 227.339 157.975 224.487 149.978 219.144C141.981 213.801 135.749 206.207 132.068 197.321C128.387 188.436 127.424 178.659 129.3 169.226C131.177 159.793 135.808 151.129 142.608 144.328C149.409 137.527 158.073 132.896 167.506 131.019C176.939 129.143 186.716 130.106 195.602 133.786C204.487 137.467 212.082 143.699 217.425 151.696C222.768 159.693 225.62 169.094 225.62 178.712C225.606 191.604 220.478 203.964 211.362 213.08C202.246 222.197 189.886 227.324 176.994 227.339ZM176.994 145.085C170.343 145.085 163.842 147.057 158.312 150.752C152.782 154.447 148.472 159.698 145.926 165.843C143.381 171.987 142.715 178.749 144.012 185.272C145.31 191.795 148.512 197.787 153.215 202.49C157.918 207.192 163.91 210.395 170.433 211.693C176.956 212.99 183.717 212.324 189.861 209.779C196.006 207.234 201.258 202.924 204.953 197.394C208.648 191.864 210.62 185.363 210.62 178.712C210.61 169.797 207.064 161.25 200.76 154.946C194.456 148.641 185.909 145.095 176.994 145.085Z" fill="#A2DDFD"/>
<path d="M477.099 458.457C449.909 481.24 431.267 451.814 409.652 468.702C408.257 469.785 406.6 470.479 404.849 470.713C403.099 470.948 401.318 470.714 399.687 470.036C398.057 469.358 396.635 468.26 395.567 466.853C394.499 465.447 393.822 463.783 393.607 462.03C390.933 439.543 394.355 415.777 418.215 391.918C422.379 387.753 427.329 384.457 432.778 382.222C438.226 379.986 444.065 378.855 449.954 378.895C455.843 378.935 461.666 380.145 467.084 382.454C472.502 384.763 477.407 388.125 481.515 392.346C499.825 411.151 497.219 441.6 477.099 458.457Z" fill="#A2DDFD"/>
<path d="M69.623 511.8C108.785 508.346 100.334 470.678 130.507 466.973C132.448 466.729 134.291 465.974 135.846 464.786C137.401 463.598 138.613 462.019 139.359 460.21C140.106 458.402 140.36 456.427 140.095 454.488C139.83 452.55 139.056 450.715 137.852 449.173C122.326 429.455 101.019 413.513 63.624 413.513C57.0978 413.513 50.6367 414.81 44.6158 417.327C38.5948 419.845 33.1341 423.534 28.5505 428.179C23.967 432.825 20.352 438.335 17.9154 444.389C15.4789 450.443 14.2693 456.921 14.357 463.447C14.742 492.534 40.644 514.347 69.623 511.797V511.8Z" fill="#A2DDFD"/>
<path d="M330.161 70.729C330.161 76.0819 332.288 81.2155 336.073 85.0005C339.858 88.7856 344.991 90.912 350.344 90.912C383.886 90.912 417.144 98.117 442.944 105.199C433.588 86.6152 421.057 69.8091 405.915 55.539C387.564 52.3286 368.977 50.6587 350.348 50.547C347.697 50.5465 345.073 51.0681 342.623 52.0821C340.174 53.0961 337.949 54.5826 336.074 56.4567C334.2 58.3308 332.713 60.5558 331.698 63.0047C330.684 65.4535 330.161 68.0783 330.161 70.729Z" fill="#F6EE86"/>
</svg>
