<svg width="529" height="512" viewBox="0 0 529 512" fill="none" xmlns="http://www.w3.org/2000/svg">
<path d="M27.6589 453.294C26.4437 453.294 25.2468 452.998 24.1712 452.433C23.0955 451.868 22.1733 451.05 21.4839 450.049C20.7946 449.048 20.3586 447.895 20.2137 446.689C20.0688 445.482 20.2191 444.258 20.6519 443.123L56.6079 348.715C56.6289 348.658 56.6519 348.601 56.6749 348.544C57.3975 346.766 58.6346 345.244 60.2275 344.174C61.8204 343.103 63.6967 342.532 65.6159 342.535H65.6259C67.5435 342.531 69.4189 343.098 71.012 344.166C72.6051 345.233 73.8436 346.752 74.5689 348.527C74.5969 348.595 74.6239 348.663 74.6499 348.727L110.279 443.139C110.982 445 110.916 447.064 110.097 448.877C109.279 450.69 107.773 452.103 105.912 452.806C104.051 453.509 101.987 453.444 100.174 452.625C98.361 451.806 96.9477 450.3 96.2449 448.439L65.6019 367.239L34.6689 448.461C34.1282 449.882 33.1682 451.106 31.9162 451.969C30.6643 452.832 29.1795 453.294 27.6589 453.294Z" fill="#E7889D"/>
<path d="M92.23 429.779H38.875C36.8859 429.779 34.9782 428.989 33.5717 427.582C32.1652 426.176 31.375 424.268 31.375 422.279C31.375 420.29 32.1652 418.382 33.5717 416.976C34.9782 415.569 36.8859 414.779 38.875 414.779H92.23C94.2191 414.779 96.1268 415.569 97.5333 416.976C98.9398 418.382 99.73 420.29 99.73 422.279C99.73 424.268 98.9398 426.176 97.5333 427.582C96.1268 428.989 94.2191 429.779 92.23 429.779Z" fill="#E7889D"/>
<path d="M49.412 127.225C11.87 47.868 124.845 -11.825 163.808 77.82V127.22L49.412 127.225Z" fill="#4E5660"/>
<path d="M480.278 127.225C517.821 47.868 404.845 -11.8239 365.882 77.8201V127.22L480.278 127.225Z" fill="#4E5660"/>
<path d="M471.216 268.014C502.906 263.336 524.804 233.853 520.125 202.163C515.447 170.473 485.964 148.575 454.274 153.254C422.584 157.932 400.687 187.415 405.365 219.105C410.044 250.795 439.526 272.692 471.216 268.014Z" fill="#B7856B"/>
<path d="M124.008 220.332C129.326 188.747 108.032 158.831 76.4466 153.513C44.8615 148.196 14.9459 169.49 9.62833 201.075C4.31075 232.66 25.6048 262.576 57.19 267.893C88.7751 273.211 118.691 251.917 124.008 220.332Z" fill="#CB9D82"/>
<path d="M416.258 490.976C419.227 490.987 422.165 490.363 424.874 489.148C427.583 487.932 430.001 486.152 431.967 483.927C433.933 481.702 435.401 479.082 436.274 476.244C437.146 473.406 437.403 470.414 437.026 467.469C431.338 425.842 410.762 387.685 379.106 360.06C347.451 332.436 306.859 317.215 264.845 317.215C222.831 317.215 182.24 332.436 150.584 360.06C118.928 387.685 98.3522 425.842 92.6641 467.469C92.2875 470.414 92.5439 473.406 93.4163 476.244C94.2888 479.083 95.757 481.702 97.723 483.927C99.689 486.152 102.107 487.932 104.816 489.148C107.525 490.364 110.463 490.987 113.432 490.976H416.258Z" fill="#88D37F"/>
<path d="M464.228 202.745C464.228 101.074 374.961 22 264.845 22C154.729 22 65.4619 101.074 65.4619 202.745C65.4619 304.416 154.729 384.979 264.845 384.979C374.961 384.979 464.228 304.416 464.228 202.745Z" fill="#CB9D82"/>
<path d="M200.784 31.349C122.093 55.121 65.4619 121.765 65.4619 202.749C65.4619 304.42 154.729 384.983 264.845 384.983C292.146 385.053 319.214 379.957 344.62 369.963C100.037 356.454 134.558 105.145 200.784 31.349Z" fill="#B7856B"/>
<path d="M162.582 277.591C183.421 277.591 200.315 264.138 200.315 247.542C200.315 230.946 183.421 217.493 162.582 217.493C141.743 217.493 124.849 230.946 124.849 247.542C124.849 264.138 141.743 277.591 162.582 277.591Z" fill="white"/>
<path d="M367.108 277.591C387.947 277.591 404.841 264.138 404.841 247.542C404.841 230.946 387.947 217.493 367.108 217.493C346.269 217.493 329.375 230.946 329.375 247.542C329.375 264.138 346.269 277.591 367.108 277.591Z" fill="white"/>
<path d="M295.267 224.454C295.267 205.654 281.646 203.886 264.845 203.886C248.044 203.886 234.423 205.652 234.423 224.454C234.423 243.256 248.045 258.496 264.845 258.496C281.645 258.496 295.267 243.255 295.267 224.454Z" fill="#4E5660"/>
<path d="M168.89 219.167C166.901 219.167 164.993 218.377 163.587 216.97C162.18 215.564 161.39 213.656 161.39 211.667V196.259C161.39 194.27 162.18 192.362 163.587 190.956C164.993 189.549 166.901 188.759 168.89 188.759C170.879 188.759 172.787 189.549 174.193 190.956C175.6 192.362 176.39 194.27 176.39 196.259V211.667C176.39 213.656 175.6 215.564 174.193 216.97C172.787 218.377 170.879 219.167 168.89 219.167Z" fill="#4E5660"/>
<path d="M360.8 219.167C358.811 219.167 356.904 218.377 355.497 216.97C354.09 215.564 353.3 213.656 353.3 211.667V196.259C353.3 194.27 354.09 192.362 355.497 190.956C356.904 189.549 358.811 188.759 360.8 188.759C362.789 188.759 364.697 189.549 366.104 190.956C367.51 192.362 368.3 194.27 368.3 196.259V211.667C368.3 213.656 367.51 215.564 366.104 216.97C364.697 218.377 362.789 219.167 360.8 219.167Z" fill="#4E5660"/>
<path d="M49.4121 127.225C49.4121 177.819 53.1841 227.793 80.5281 227.793C107.872 227.793 111.645 136.9 111.645 86.307L49.4121 127.225Z" fill="#4E5660"/>
<path d="M480.278 127.225C480.278 177.819 476.506 227.793 449.162 227.793C421.818 227.793 418.045 136.9 418.045 86.307L480.278 127.225Z" fill="#4E5660"/>
<path d="M323.666 486.996L287.212 450.542C284.664 447.994 283.232 444.538 283.232 440.934C283.232 437.33 284.664 433.874 287.212 431.326L454.312 264.226C456.86 261.678 460.316 260.246 463.92 260.246C467.524 260.246 470.98 261.678 473.528 264.226L509.982 300.68C512.53 303.228 513.962 306.684 513.962 310.288C513.962 313.892 512.53 317.348 509.982 319.896L342.882 486.996C341.62 488.258 340.123 489.259 338.474 489.942C336.825 490.625 335.058 490.976 333.274 490.976C331.49 490.976 329.723 490.625 328.074 489.942C326.426 489.259 324.928 488.258 323.666 486.996Z" fill="#FCF2D0"/>
<path d="M287.212 431.326C284.664 433.874 283.232 437.33 283.232 440.934C283.232 444.538 284.664 447.994 287.212 450.542L323.666 486.996C326.214 489.544 329.67 490.976 333.274 490.976C336.878 490.976 340.334 489.544 342.882 486.996L383.545 446.338C371.764 421.123 363.816 383.119 363.416 355.126L287.212 431.326Z" fill="#F6E3A3"/>
<path d="M376.065 342.473L403.9 370.308C404.601 371.003 405.159 371.83 405.54 372.742C405.921 373.653 406.118 374.63 406.12 375.618C406.122 376.606 405.929 377.584 405.553 378.497C405.176 379.41 404.622 380.239 403.924 380.938C403.225 381.636 402.396 382.19 401.483 382.567C400.57 382.944 399.592 383.137 398.604 383.135C397.616 383.133 396.639 382.935 395.728 382.555C394.816 382.174 393.989 381.616 393.294 380.915L365.459 353.079L376.065 342.473Z" fill="#8DAEE1"/>
<path d="M344.156 374.382L362.072 392.298C362.781 392.992 363.345 393.819 363.731 394.732C364.118 395.645 364.32 396.626 364.325 397.618C364.331 398.609 364.139 399.592 363.762 400.509C363.385 401.426 362.83 402.26 362.129 402.961C361.427 403.662 360.594 404.217 359.677 404.594C358.76 404.971 357.777 405.163 356.785 405.157C355.794 405.152 354.813 404.95 353.9 404.564C352.987 404.177 352.16 403.613 351.466 402.904L333.545 384.988L344.156 374.382Z" fill="#8DAEE1"/>
<path d="M312.245 406.288L340.08 434.123C340.781 434.818 341.339 435.645 341.72 436.557C342.101 437.468 342.298 438.445 342.3 439.433C342.302 440.421 342.11 441.399 341.733 442.312C341.356 443.225 340.802 444.054 340.104 444.753C339.405 445.451 338.576 446.005 337.663 446.382C336.75 446.759 335.772 446.952 334.784 446.95C333.797 446.948 332.819 446.75 331.908 446.369C330.996 445.989 330.169 445.431 329.474 444.73L301.645 416.897L312.245 406.288Z" fill="#8DAEE1"/>
<path d="M407.974 310.565L425.89 328.481C426.592 329.176 427.149 330.003 427.53 330.914C427.911 331.826 428.108 332.803 428.11 333.791C428.113 334.779 427.92 335.757 427.543 336.67C427.166 337.583 426.612 338.412 425.914 339.111C425.216 339.809 424.386 340.363 423.473 340.74C422.56 341.117 421.582 341.31 420.594 341.308C419.607 341.306 418.629 341.108 417.718 340.727C416.807 340.347 415.98 339.789 415.284 339.088L397.368 321.172L407.974 310.565Z" fill="#8DAEE1"/>
<path d="M439.883 278.656L467.718 306.488C468.426 307.182 468.99 308.009 469.377 308.922C469.764 309.835 469.966 310.816 469.971 311.808C469.977 312.799 469.785 313.782 469.408 314.699C469.031 315.616 468.476 316.45 467.775 317.151C467.073 317.852 466.24 318.407 465.323 318.784C464.406 319.161 463.423 319.353 462.431 319.347C461.44 319.342 460.459 319.14 459.546 318.753C458.633 318.367 457.806 317.803 457.112 317.094L429.277 289.259L439.883 278.656Z" fill="#8DAEE1"/>
<path d="M189.645 414.508H167.445C165.445 414.508 163.527 415.302 162.113 416.716C160.699 418.13 159.905 420.048 159.905 422.048V450.836H197.192V422.048C197.192 421.058 196.997 420.077 196.618 419.162C196.239 418.248 195.684 417.416 194.984 416.716C194.283 416.016 193.452 415.461 192.537 415.082C191.623 414.703 190.642 414.508 189.652 414.508H189.645Z" fill="#F6EE86"/>
<path d="M218.114 458.336H152.956C150.967 458.336 149.059 457.546 147.653 456.139C146.246 454.733 145.456 452.825 145.456 450.836C145.456 448.847 146.246 446.939 147.653 445.533C149.059 444.126 150.967 443.336 152.956 443.336H218.114C220.103 443.336 222.011 444.126 223.417 445.533C224.824 446.939 225.614 448.847 225.614 450.836C225.614 452.825 224.824 454.733 223.417 456.139C222.011 457.546 220.103 458.336 218.114 458.336Z" fill="#4E5660"/>
</svg>
