<svg width="512" height="512" viewBox="0 0 512 512" fill="none" xmlns="http://www.w3.org/2000/svg">
<path d="M456.964 246.812C487.232 246.812 511.768 222.275 511.768 192.008C511.768 161.741 487.232 137.204 456.964 137.204C426.697 137.204 402.16 161.741 402.16 192.008C402.16 222.275 426.697 246.812 456.964 246.812Z" fill="#FFBE9D"/>
<path d="M82.804 246.812C113.071 246.812 137.608 222.275 137.608 192.008C137.608 161.741 113.071 137.204 82.804 137.204C52.5366 137.204 28 161.741 28 192.008C28 222.275 52.5366 246.812 82.804 246.812Z" fill="#FFD3BD"/>
<path d="M83.1096 285.646H73.4586C71.3647 285.646 69.2912 285.234 67.3567 284.432C65.4221 283.631 63.6644 282.456 62.1838 280.975C60.7033 279.495 59.5289 277.737 58.7277 275.802C57.9266 273.868 57.5144 271.794 57.5146 269.7V241.4C57.5146 237.171 59.1945 233.116 62.1845 230.126C65.1746 227.136 69.23 225.456 73.4586 225.456H83.1096C87.3383 225.456 91.3937 227.136 94.3838 230.126C97.3738 233.116 99.0536 237.171 99.0536 241.4V269.7C99.0539 271.794 98.6417 273.868 97.8406 275.802C97.0394 277.737 95.865 279.495 94.3845 280.975C92.9039 282.456 91.1462 283.631 89.2116 284.432C87.2771 285.234 85.2036 285.646 83.1096 285.646Z" fill="#88D37F"/>
<path d="M456.658 285.646H466.309C468.403 285.646 470.476 285.234 472.411 284.432C474.345 283.631 476.103 282.456 477.584 280.975C479.064 279.495 480.239 277.737 481.04 275.802C481.841 273.868 482.253 271.794 482.253 269.7V241.4C482.253 237.171 480.573 233.116 477.583 230.126C474.593 227.136 470.537 225.456 466.309 225.456H456.658C454.564 225.456 452.491 225.868 450.556 226.67C448.622 227.471 446.864 228.645 445.384 230.126C443.903 231.606 442.729 233.364 441.928 235.299C441.126 237.233 440.714 239.306 440.714 241.4V269.7C440.714 271.794 441.126 273.868 441.927 275.802C442.728 277.737 443.902 279.495 445.383 280.975C446.864 282.456 448.621 283.631 450.556 284.432C452.49 285.234 454.564 285.646 456.658 285.646Z" fill="#88D37F"/>
<path d="M412.948 438.531C415.754 438.541 418.529 437.952 421.088 436.803C423.648 435.654 425.933 433.972 427.79 431.87C429.647 429.767 431.035 427.293 431.859 424.611C432.683 421.929 432.926 419.103 432.57 416.32C427.193 376.99 407.75 340.94 377.841 314.841C347.931 288.743 309.579 274.363 269.884 274.363C230.188 274.363 191.837 288.743 161.927 314.841C132.017 340.94 112.574 376.99 107.197 416.32C106.841 419.103 107.084 421.929 107.908 424.611C108.733 427.293 110.12 429.767 111.977 431.87C113.835 433.972 116.119 435.654 118.679 436.803C121.238 437.952 124.014 438.541 126.819 438.531H412.948Z" fill="#A2DDFD"/>
<path d="M325.565 310.143C317.995 348.111 297.771 408.925 269.884 408.925C241.997 408.925 221.773 348.111 214.203 310.143H325.565Z" fill="white"/>
<path d="M370.738 398.263H341.028C339.039 398.263 337.132 397.473 335.725 396.066C334.318 394.66 333.528 392.752 333.528 390.763C333.528 388.774 334.318 386.866 335.725 385.46C337.132 384.053 339.039 383.263 341.028 383.263H370.738C372.727 383.263 374.635 384.053 376.042 385.46C377.448 386.866 378.238 388.774 378.238 390.763C378.238 392.752 377.448 394.66 376.042 396.066C374.635 397.473 372.727 398.263 370.738 398.263Z" fill="white"/>
<path d="M458.273 180.23C458.273 84.165 373.928 9.45105 269.884 9.45105C165.84 9.45105 81.4951 84.165 81.4951 180.23C81.4951 276.295 165.84 352.415 269.884 352.415C373.928 352.415 458.273 276.294 458.273 180.23Z" fill="#FFD3BD"/>
<path d="M209.355 18.2841C135.003 40.7451 81.4951 103.715 81.4951 180.229C81.4951 276.294 165.84 352.414 269.884 352.414C295.68 352.481 321.255 347.665 345.26 338.222C114.164 325.463 146.784 88.0121 209.355 18.2841Z" fill="#FFBE9D"/>
<path d="M161.997 259.573C183.983 259.573 201.805 245.38 201.805 227.872C201.805 210.364 183.983 196.171 161.997 196.171C140.012 196.171 122.189 210.364 122.189 227.872C122.189 245.38 140.012 259.573 161.997 259.573Z" fill="#E7889D"/>
<path d="M377.772 259.573C399.757 259.573 417.58 245.38 417.58 227.872C417.58 210.364 399.757 196.171 377.772 196.171C355.787 196.171 337.964 210.364 337.964 227.872C337.964 245.38 355.787 259.573 377.772 259.573Z" fill="#E7889D"/>
<path d="M185.197 204.855C183.208 204.855 181.3 204.065 179.894 202.658C178.487 201.252 177.697 199.344 177.697 197.355V181.082C177.697 179.093 178.487 177.185 179.894 175.779C181.3 174.372 183.208 173.582 185.197 173.582C187.186 173.582 189.094 174.372 190.501 175.779C191.907 177.185 192.697 179.093 192.697 181.082V197.355C192.697 199.344 191.907 201.252 190.501 202.658C189.094 204.065 187.186 204.855 185.197 204.855Z" fill="#4E5660"/>
<path d="M354.57 204.855C352.581 204.855 350.674 204.065 349.267 202.658C347.86 201.252 347.07 199.344 347.07 197.355V181.082C347.07 179.093 347.86 177.185 349.267 175.779C350.674 174.372 352.581 173.582 354.57 173.582C356.559 173.582 358.467 174.372 359.874 175.779C361.28 177.185 362.07 179.093 362.07 181.082V197.355C362.07 199.344 361.28 201.252 359.874 202.658C358.467 204.065 356.559 204.855 354.57 204.855Z" fill="#4E5660"/>
<path d="M269.884 214.543C264.58 214.542 259.338 213.404 254.512 211.206C249.685 209.008 245.385 205.8 241.903 201.8C241.249 201.059 240.748 200.195 240.429 199.259C240.11 198.324 239.979 197.334 240.043 196.347C240.108 195.361 240.367 194.397 240.806 193.511C241.245 192.625 241.854 191.834 242.6 191.185C243.345 190.535 244.212 190.039 245.149 189.726C246.087 189.412 247.077 189.287 248.064 189.358C249.05 189.428 250.012 189.693 250.896 190.137C251.779 190.582 252.566 191.196 253.211 191.945C255.285 194.331 257.846 196.244 260.722 197.555C263.599 198.866 266.723 199.544 269.884 199.544C273.045 199.544 276.169 198.866 279.045 197.555C281.922 196.244 284.483 194.331 286.557 191.945C287.204 191.203 287.991 190.595 288.873 190.156C289.755 189.718 290.715 189.457 291.697 189.39C292.68 189.322 293.666 189.449 294.6 189.763C295.534 190.076 296.396 190.571 297.139 191.218C297.882 191.865 298.489 192.652 298.928 193.534C299.366 194.416 299.627 195.376 299.694 196.359C299.762 197.341 299.635 198.327 299.321 199.261C299.008 200.195 298.513 201.058 297.866 201.8C294.383 205.8 290.084 209.008 285.257 211.206C280.43 213.404 275.188 214.542 269.884 214.543Z" fill="#4E5660"/>
<path d="M388.432 112.5C395.105 153.653 419.299 187.032 438.752 202.744C440.758 204.339 443.142 205.389 445.673 205.792C448.203 206.195 450.795 205.939 453.197 205.046C455.6 204.154 457.731 202.657 459.385 200.7C461.039 198.743 462.16 196.391 462.638 193.874C490.051 53.306 369.999 0 269.884 0C169.769 0 49.7174 53.306 77.1304 193.871C77.6093 196.388 78.7299 198.74 80.3839 200.697C82.0379 202.654 84.1692 204.151 86.5715 205.043C88.9737 205.936 91.5656 206.192 94.0963 205.789C96.6269 205.386 99.0105 204.336 101.016 202.741C120.469 187.029 144.663 153.65 151.336 112.497C221.992 36.23 316.036 141.19 388.436 112.497L388.432 112.5Z" fill="#D1986F"/>
<path d="M170.184 111L159.484 121.7C158.306 122.878 156.907 123.813 155.367 124.451C153.828 125.089 152.178 125.417 150.511 125.417C148.845 125.417 147.195 125.089 145.655 124.451C144.115 123.813 142.717 122.878 141.538 121.7L98.7512 78.922C97.5728 77.7437 96.638 76.3448 96.0002 74.8052C95.3624 73.2656 95.0342 71.6155 95.0342 69.949C95.0342 68.2825 95.3624 66.6324 96.0002 65.0928C96.638 63.5532 97.5728 62.1543 98.7512 60.976L109.451 50.276C110.63 49.0976 112.028 48.1628 113.568 47.525C115.108 46.8872 116.758 46.559 118.424 46.559C120.091 46.559 121.741 46.8872 123.28 47.525C124.82 48.1628 126.219 49.0976 127.397 50.276L170.184 93.058C172.563 95.4375 173.899 98.6644 173.899 102.029C173.899 105.394 172.563 108.62 170.184 111Z" fill="#88D37F"/>
<path d="M230.004 473.723C215.659 488.068 206.745 517.594 180.404 511.073C137.408 500.431 138.641 442.848 168.884 412.6C199.127 382.352 256.711 381.123 267.353 424.116C273.874 450.465 244.348 459.379 230.004 473.723Z" fill="#4E5660"/>
<path d="M175.697 362.642C186.101 353.909 185.504 336.071 174.363 322.799C163.222 309.527 145.757 305.847 135.353 314.58C124.949 323.314 125.547 341.152 136.688 354.424C147.829 367.696 165.294 371.375 175.697 362.642Z" fill="#4E5660"/>
<path d="M245.142 355.688C256.712 352.586 262.883 338.106 258.925 323.345C254.968 308.585 242.38 299.134 230.81 302.236C219.241 305.338 213.07 319.819 217.027 334.579C220.985 349.339 233.572 358.79 245.142 355.688Z" fill="#4E5660"/>
<path d="M118.966 419.441C127.699 409.037 124.02 391.572 110.748 380.431C97.4761 369.29 79.6375 368.693 70.9044 379.097C62.1714 389.5 65.8508 406.965 79.1227 418.106C92.3947 429.247 110.233 429.845 118.966 419.441Z" fill="#4E5660"/>
<path d="M112.032 488.873C115.134 477.304 105.683 464.716 90.9226 460.759C76.1622 456.801 61.6818 462.972 58.5797 474.542C55.4776 486.112 64.9285 498.699 79.6889 502.657C94.4493 506.614 108.93 500.443 112.032 488.873Z" fill="#4E5660"/>
</svg>
