<svg width="517" height="512" viewBox="0 0 517 512" fill="none" xmlns="http://www.w3.org/2000/svg">
<path d="M501.988 202.099C504.57 171.079 481.517 143.839 450.496 141.257C419.476 138.674 392.235 161.727 389.653 192.747C387.07 223.767 410.124 251.008 441.144 253.59C472.165 256.173 499.405 233.119 501.988 202.099Z" fill="#FFBE9D"/>
<path d="M65.5196 253.669C96.5402 251.087 119.594 223.847 117.011 192.827C114.429 161.807 87.1882 138.753 56.1677 141.336C25.1471 143.918 2.09351 171.159 4.67598 202.179C7.25845 233.199 34.4991 256.252 65.5196 253.669Z" fill="#FFD3BD"/>
<path d="M400.265 471.889C403.15 471.899 406.004 471.294 408.637 470.112C411.269 468.931 413.619 467.202 415.529 465.039C417.439 462.877 418.866 460.332 419.714 457.574C420.562 454.816 420.811 451.909 420.445 449.047C414.916 408.598 394.922 371.521 364.161 344.679C333.401 317.837 293.958 303.048 253.133 303.048C212.308 303.048 172.865 317.837 142.105 344.679C111.345 371.521 91.3502 408.598 85.8218 449.047C85.456 451.909 85.7053 454.816 86.5531 457.574C87.4009 460.332 88.8276 462.877 90.7378 465.039C92.6481 467.201 94.9979 468.931 97.6302 470.112C100.262 471.293 103.117 471.899 106.002 471.889H400.265Z" fill="#FCF2D0"/>
<path d="M253.133 471.889V439.145C242.612 408.783 208.949 353.435 173.672 322.887C157.601 331.48 143.021 342.609 130.494 355.845C145.113 379.101 153.222 424.963 153.949 471.889H253.133Z" fill="#383C43"/>
<path d="M253.133 471.889V439.145C263.654 408.783 297.317 353.435 332.594 322.887C348.665 331.48 363.246 342.609 375.773 355.845C361.154 379.101 353.045 424.963 352.318 471.889H253.133Z" fill="#4E5660"/>
<path d="M446.874 185.354C446.874 86.5539 360.132 9.72095 253.13 9.72095C146.128 9.72095 59.3887 86.5579 59.3887 185.354C59.3887 284.15 146.131 362.433 253.133 362.433C360.135 362.433 446.874 284.145 446.874 185.354Z" fill="#FFD3BD"/>
<path d="M190.884 18.8051C114.419 41.9051 59.3887 106.664 59.3887 185.354C59.3887 284.149 146.131 362.433 253.133 362.433C279.662 362.5 305.964 357.546 330.652 347.833C92.9867 334.715 126.531 90.5141 190.884 18.8051Z" fill="#FFBE9D"/>
<path d="M142.82 277.535C165.3 277.535 183.523 263.023 183.523 245.121C183.523 227.219 165.3 212.707 142.82 212.707C120.341 212.707 102.117 227.219 102.117 245.121C102.117 263.023 120.341 277.535 142.82 277.535Z" fill="#E7889D"/>
<path d="M363.443 277.535C385.923 277.535 404.146 263.023 404.146 245.121C404.146 227.219 385.923 212.707 363.443 212.707C340.964 212.707 322.74 227.219 322.74 245.121C322.74 263.023 340.964 277.535 363.443 277.535Z" fill="#E7889D"/>
<path d="M285.948 220.216C285.948 199.935 271.255 198.03 253.132 198.03C235.009 198.03 220.316 199.93 220.316 220.216C220.316 240.502 235.009 256.937 253.132 256.937C271.255 256.937 285.948 240.497 285.948 220.216Z" fill="#4E5660"/>
<path d="M149.625 213.922C147.636 213.922 145.728 213.132 144.322 211.725C142.915 210.319 142.125 208.411 142.125 206.422V189.802C142.125 187.813 142.915 185.905 144.322 184.499C145.728 183.092 147.636 182.302 149.625 182.302C151.614 182.302 153.522 183.092 154.928 184.499C156.335 185.905 157.125 187.813 157.125 189.802V206.422C157.125 208.411 156.335 210.319 154.928 211.725C153.522 213.132 151.614 213.922 149.625 213.922Z" fill="#4E5660"/>
<path d="M356.639 213.922C354.65 213.922 352.742 213.132 351.335 211.725C349.929 210.319 349.139 208.411 349.139 206.422V189.802C349.139 187.813 349.929 185.905 351.335 184.499C352.742 183.092 354.65 182.302 356.639 182.302C358.628 182.302 360.535 183.092 361.942 184.499C363.349 185.905 364.139 187.813 364.139 189.802V206.422C364.139 208.411 363.349 210.319 361.942 211.725C360.535 213.132 358.628 213.922 356.639 213.922Z" fill="#4E5660"/>
<path d="M375.051 115.696C381.914 158.016 406.792 192.342 426.798 208.502C428.854 210.141 431.299 211.223 433.896 211.642C436.493 212.061 439.154 211.804 441.622 210.895C444.09 209.986 446.282 208.456 447.987 206.452C449.691 204.449 450.85 202.04 451.353 199.458C460.46 152.838 453.798 115.549 437.137 86.418C386.285 41.334 318.688 25.163 253.137 0.000976562C150.177 0.000976562 26.7135 54.821 54.9025 199.378C55.395 201.968 56.5478 204.386 58.2491 206.399C59.9504 208.413 62.1428 209.953 64.6139 210.871C67.085 211.788 69.7511 212.052 72.3542 211.637C74.9573 211.222 77.4092 210.142 79.4725 208.502C99.4785 192.342 124.357 158.016 131.22 115.696H375.051Z" fill="#E7889D"/>
<path d="M437.135 86.4179C401.004 54.3849 356.417 36.9499 310.117 20.5179V115.701H375.049C377.356 129.63 381.554 143.18 387.527 155.973C408.258 150.745 428.363 143.291 447.491 133.742C449.376 132.78 451.205 131.711 452.969 130.542C450.271 115.034 444.914 100.108 437.135 86.4239V86.4179Z" fill="#E16E7E"/>
<path d="M131.215 115.696C160.442 152.907 335.753 167.527 438.141 115.378C461.507 103.478 462.452 70.378 440.003 56.826C401.814 33.777 347.263 0 253.133 0L131.215 115.696Z" fill="#E7889D"/>
<path d="M413.085 317.559C426.589 317.559 437.537 306.611 437.537 293.107C437.537 279.603 426.589 268.655 413.085 268.655C399.58 268.655 388.633 279.603 388.633 293.107C388.633 306.611 399.58 317.559 413.085 317.559Z" fill="#8DAEE1"/>
<path d="M505.268 397.398H320.9C317.955 397.398 315.13 398.568 313.048 400.651C310.965 402.733 309.795 405.558 309.795 408.503V423.914C309.795 426.859 310.965 429.684 313.048 431.766C315.13 433.849 317.955 435.019 320.9 435.019H505.267C506.725 435.019 508.169 434.732 509.517 434.174C510.864 433.616 512.089 432.798 513.12 431.767C514.151 430.736 514.969 429.511 515.527 428.164C516.086 426.817 516.373 425.372 516.373 423.914V408.503C516.374 407.045 516.087 405.6 515.529 404.253C514.971 402.905 514.153 401.68 513.122 400.649C512.09 399.618 510.866 398.8 509.518 398.242C508.171 397.684 506.726 397.397 505.268 397.398Z" fill="#8DAEE1"/>
<path d="M320.9 397.398C317.955 397.398 315.13 398.568 313.048 400.651C310.965 402.733 309.795 405.558 309.795 408.503V423.914C309.795 426.859 310.965 429.684 313.048 431.766C315.13 433.849 317.955 435.019 320.9 435.019H404.146C395.038 427.228 391.646 407.782 395.2 397.398H320.9Z" fill="#6A95D6"/>
<path d="M505.207 397.398C505.207 372.966 495.501 349.534 478.225 332.258C460.949 314.982 437.517 305.276 413.085 305.276C388.653 305.276 365.221 314.982 347.945 332.258C330.669 349.534 320.963 372.966 320.963 397.398H505.207Z" fill="#A2DDFD"/>
<path d="M385.998 397.398C376.227 372.938 377.82 326.806 392.321 307.654C372.036 312.349 353.939 323.776 340.981 340.074C328.022 356.371 320.965 376.577 320.961 397.398H385.998Z" fill="#7ACDF9"/>
<path d="M442.454 435.019H352.621C346.314 435.019 340.266 437.524 335.807 441.984C331.347 446.443 328.842 452.491 328.842 458.798C328.842 462.27 330.221 465.6 332.676 468.055C335.131 470.51 338.461 471.889 341.933 471.889H423.795C429.734 471.89 435.58 470.403 440.798 467.566C446.016 464.729 450.44 460.631 453.669 455.645C454.976 453.628 455.714 451.295 455.807 448.893C455.899 446.492 455.342 444.109 454.194 441.998C453.045 439.886 451.349 438.123 449.283 436.895C447.217 435.667 444.857 435.019 442.454 435.019Z" fill="#FFD3BD"/>
<path d="M199.701 444.396H188.258C186.269 444.396 184.361 443.606 182.955 442.199C181.548 440.793 180.758 438.885 180.758 436.896C180.758 434.907 181.548 432.999 182.955 431.593C184.361 430.186 186.269 429.396 188.258 429.396H199.701C201.69 429.396 203.598 430.186 205.004 431.593C206.411 432.999 207.201 434.907 207.201 436.896C207.201 438.885 206.411 440.793 205.004 442.199C203.598 443.606 201.69 444.396 199.701 444.396Z" fill="white"/>
</svg>
