<svg width="513" height="512" viewBox="0 0 513 512" fill="none" xmlns="http://www.w3.org/2000/svg">
<path d="M476.287 421.134L471.962 419.947C469.833 419.362 467.941 418.127 466.551 416.412C465.16 414.698 464.341 412.592 464.208 410.389L463.308 395.51C463.133 392.606 462.124 389.815 460.402 387.47C458.68 385.126 456.319 383.328 453.601 382.291C450.883 381.255 447.923 381.025 445.078 381.628C442.232 382.231 439.621 383.642 437.557 385.692L431.485 391.723C430.285 392.915 428.817 393.801 427.204 394.308C425.591 394.815 423.879 394.927 422.214 394.636L406.792 391.936C404.011 391.45 401.15 391.751 398.532 392.807C395.914 393.862 393.644 395.63 391.978 397.909C390.313 400.187 389.318 402.887 389.107 405.702C388.896 408.517 389.477 411.334 390.785 413.836L396.014 423.846C396.844 425.435 397.256 427.21 397.212 429.003C397.168 430.796 396.668 432.548 395.76 434.094L380.267 460.482C378.662 463.213 377.894 466.355 378.057 469.519C378.219 472.683 379.306 475.729 381.182 478.282C383.058 480.834 385.641 482.78 388.612 483.88C391.583 484.98 394.811 485.184 397.897 484.468L410.479 481.551C414.646 480.585 419.026 481.306 422.663 483.557L435.163 491.295C438.637 493.444 442.632 494.603 446.717 494.647C450.802 494.691 454.821 493.619 458.341 491.546C461.861 489.473 464.748 486.479 466.69 482.885C468.633 479.291 469.557 475.235 469.363 471.155L468.791 459.142C468.703 457.308 469.095 455.483 469.927 453.847C470.759 452.21 472.003 450.819 473.537 449.809L480.137 445.467C482.308 444.037 484.022 442.012 485.072 439.634C486.122 437.255 486.464 434.625 486.057 432.057C485.651 429.489 484.512 427.093 482.778 425.155C481.045 423.218 478.789 421.821 476.282 421.133L476.287 421.134Z" fill="#A2DDFD"/>
<path d="M507.758 233.716C510.309 203.071 487.534 176.16 456.889 173.608C426.244 171.057 399.333 193.832 396.782 224.477C394.23 255.122 417.005 282.033 447.65 284.584C478.295 287.136 505.206 264.361 507.758 233.716Z" fill="#FFBE9D"/>
<path d="M76.725 284.929C107.37 282.377 130.145 255.466 127.594 224.821C125.042 194.176 98.1313 171.401 67.4861 173.953C36.8409 176.504 14.0663 203.415 16.6175 234.06C19.1688 264.705 46.0798 287.48 76.725 284.929Z" fill="#FFD3BD"/>
<path d="M407.579 499.511C410.429 499.521 413.249 498.922 415.849 497.755C418.45 496.588 420.771 494.88 422.658 492.744C424.546 490.607 425.955 488.093 426.793 485.369C427.63 482.644 427.876 479.772 427.515 476.945C422.055 436.985 402.302 400.355 371.914 373.837C341.526 347.319 302.56 332.708 262.228 332.708C221.896 332.708 182.93 347.319 152.542 373.837C122.154 400.355 102.401 436.985 96.941 476.945C96.5795 479.772 96.8257 482.644 97.6631 485.369C98.5006 488.093 99.91 490.608 101.797 492.744C103.684 494.88 106.006 496.589 108.606 497.756C111.207 498.923 114.027 499.521 116.877 499.511H407.579Z" fill="#8DAEE1"/>
<path d="M183.686 369.4H220.71V462.514H183.686V369.4Z" fill="#F6E3A3"/>
<path d="M340.771 462.519H303.747V369.405H340.771V462.519Z" fill="#F6E3A3"/>
<path d="M352.701 448.823H171.757C168.321 448.823 165.025 450.188 162.596 452.618C160.166 455.047 158.801 458.343 158.801 461.779V499.511H365.658V461.779C365.658 460.078 365.323 458.393 364.671 456.821C364.02 455.249 363.066 453.82 361.863 452.617C360.66 451.414 359.231 450.46 357.659 449.809C356.087 449.158 354.402 448.823 352.701 448.823Z" fill="#FCF2D0"/>
<path d="M453.628 221.682C453.628 124.082 367.935 48.174 262.228 48.174C156.521 48.174 70.8281 124.082 70.8281 221.682C70.8281 319.282 156.521 396.619 262.228 396.619C367.935 396.619 453.628 319.282 453.628 221.682Z" fill="#FFD3BD"/>
<path d="M200.728 57.1479C125.188 79.9679 70.8281 143.948 70.8281 221.682C70.8281 319.282 156.521 396.619 262.228 396.619C288.436 396.686 314.42 391.794 338.809 382.2C104.019 369.236 137.158 127.99 200.728 57.1479Z" fill="#FFBE9D"/>
<path d="M158.655 294.878C179.762 294.878 196.871 281.252 196.871 264.444C196.871 247.636 179.762 234.01 158.655 234.01C137.549 234.01 120.439 247.636 120.439 264.444C120.439 281.252 137.549 294.878 158.655 294.878Z" fill="#E7889D"/>
<path d="M365.802 294.878C386.908 294.878 404.018 281.252 404.018 264.444C404.018 247.636 386.908 234.01 365.802 234.01C344.696 234.01 327.586 247.636 327.586 264.444C327.586 281.252 344.696 294.878 365.802 294.878Z" fill="#E7889D"/>
<path d="M180.928 242.273C178.939 242.273 177.031 241.483 175.624 240.076C174.218 238.67 173.428 236.762 173.428 234.773V219.9C173.428 217.911 174.218 216.003 175.624 214.597C177.031 213.19 178.939 212.4 180.928 212.4C182.917 212.4 184.825 213.19 186.231 214.597C187.638 216.003 188.428 217.911 188.428 219.9V234.773C188.428 236.762 187.638 238.67 186.231 240.076C184.825 241.483 182.917 242.273 180.928 242.273Z" fill="#4E5660"/>
<path d="M262.228 251.947C257.093 251.945 252.018 250.843 247.346 248.715C242.673 246.587 238.51 243.482 235.139 239.61C233.832 238.11 233.174 236.153 233.311 234.168C233.447 232.184 234.366 230.335 235.866 229.028C237.365 227.721 239.323 227.063 241.307 227.2C243.292 227.336 245.141 228.255 246.448 229.755C248.41 232.013 250.835 233.824 253.557 235.064C256.279 236.305 259.236 236.947 262.228 236.947C265.219 236.947 268.176 236.305 270.899 235.064C273.621 233.824 276.045 232.013 278.008 229.755C278.655 229.012 279.442 228.404 280.324 227.966C281.206 227.528 282.166 227.267 283.148 227.2C284.131 227.132 285.117 227.259 286.051 227.573C286.984 227.886 287.847 228.381 288.59 229.028C289.332 229.675 289.94 230.462 290.379 231.344C290.817 232.226 291.077 233.186 291.145 234.168C291.212 235.151 291.086 236.137 290.772 237.071C290.458 238.005 289.964 238.867 289.317 239.61C285.945 243.482 281.783 246.587 277.11 248.715C272.437 250.843 267.362 251.945 262.228 251.947Z" fill="#4E5660"/>
<path d="M363.634 241.858C362.649 241.858 361.674 241.664 360.764 241.287C359.854 240.91 359.027 240.358 358.331 239.661C357.634 238.965 357.082 238.138 356.705 237.228C356.328 236.318 356.134 235.343 356.134 234.358C356.134 231.776 355.108 229.299 353.283 227.474C351.457 225.648 348.98 224.622 346.398 224.622C343.816 224.622 341.34 225.648 339.514 227.474C337.688 229.299 336.662 231.776 336.662 234.358C336.662 236.347 335.872 238.255 334.465 239.661C333.059 241.068 331.151 241.858 329.162 241.858C327.173 241.858 325.265 241.068 323.859 239.661C322.452 238.255 321.662 236.347 321.662 234.358C321.662 227.798 324.268 221.506 328.907 216.867C333.546 212.228 339.838 209.622 346.398 209.622C352.958 209.622 359.25 212.228 363.889 216.867C368.528 221.506 371.134 227.798 371.134 234.358C371.134 235.343 370.94 236.318 370.563 237.228C370.186 238.138 369.634 238.965 368.937 239.661C368.241 240.358 367.414 240.91 366.504 241.287C365.594 241.664 364.619 241.858 363.634 241.858Z" fill="#4E5660"/>
<path d="M66.0577 507.9C67.3577 509.2 68.9011 510.231 70.5998 510.935C72.2984 511.639 74.119 512.001 75.9577 512.001C77.7963 512.001 79.6169 511.639 81.3156 510.935C83.0142 510.231 84.5576 509.2 85.8577 507.9L88.1297 505.63C89.4297 504.33 90.9731 503.298 92.6718 502.595C94.3704 501.891 96.191 501.529 98.0297 501.529C99.8683 501.529 101.689 501.891 103.388 502.595C105.086 503.298 106.63 504.33 107.93 505.63L110.199 507.899C111.499 509.199 113.042 510.23 114.741 510.934C116.439 511.638 118.26 512 120.099 512C121.937 512 123.758 511.638 125.457 510.934C127.155 510.23 128.699 509.199 129.999 507.899L132.268 505.63C133.568 504.33 135.111 503.298 136.81 502.595C138.508 501.891 140.329 501.529 142.168 501.529C144.006 501.529 145.827 501.891 147.526 502.595C149.224 503.298 150.768 504.33 152.068 505.63L154.337 507.899C155.637 509.199 157.18 510.23 158.879 510.934C160.577 511.638 162.398 512 164.237 512C166.075 512 167.896 511.638 169.595 510.934C171.293 510.23 172.837 509.199 174.137 507.899C181.929 500.107 186.306 489.539 186.307 478.519V411.464H53.8887V478.519C53.8884 483.975 54.963 489.379 57.0509 494.42C59.1389 499.461 62.1994 504.042 66.0577 507.9Z" fill="#4E5660"/>
<path d="M143.35 467.144C141.36 467.144 139.453 466.354 138.046 464.947C136.64 463.541 135.85 461.633 135.85 459.644V411.464C135.85 409.475 136.64 407.567 138.046 406.161C139.453 404.754 141.36 403.964 143.35 403.964C145.339 403.964 147.246 404.754 148.653 406.161C150.059 407.567 150.85 409.475 150.85 411.464V459.644C150.85 461.633 150.059 463.541 148.653 464.947C147.246 466.354 145.339 467.144 143.35 467.144Z" fill="#383C43"/>
<path d="M96.8477 467.144C94.8585 467.144 92.9509 466.354 91.5443 464.947C90.1378 463.541 89.3477 461.633 89.3477 459.644V411.464C89.3477 409.475 90.1378 407.567 91.5443 406.161C92.9509 404.754 94.8585 403.964 96.8477 403.964C98.8368 403.964 100.744 404.754 102.151 406.161C103.557 407.567 104.348 409.475 104.348 411.464V459.644C104.348 461.633 103.557 463.541 102.151 464.947C100.744 466.354 98.8368 467.144 96.8477 467.144Z" fill="#383C43"/>
<path d="M53.8877 411.464H186.309V382.7C186.309 376.33 183.778 370.221 179.274 365.717C174.77 361.213 168.661 358.683 162.292 358.683H149.535C148.435 358.683 147.347 358.456 146.338 358.018C145.329 357.579 144.422 356.938 143.671 356.134C142.921 355.33 142.344 354.38 141.977 353.343C141.609 352.306 141.459 351.205 141.535 350.108L145.463 293.497C145.602 291.493 145.327 289.483 144.656 287.59C143.985 285.697 142.931 283.963 141.561 282.494C140.191 281.026 138.534 279.855 136.692 279.055C134.85 278.254 132.863 277.841 130.855 277.841H109.341C107.332 277.84 105.344 278.253 103.502 279.054C101.659 279.854 100.001 281.025 98.6305 282.494C97.26 283.963 96.2063 285.698 95.5351 287.591C94.8638 289.485 94.5893 291.496 94.7287 293.5L98.6567 350.111C98.7328 351.208 98.5824 352.309 98.2149 353.346C97.8473 354.383 97.2705 355.333 96.5201 356.137C95.7698 356.941 94.8621 357.582 93.8534 358.021C92.8447 358.459 91.7566 358.686 90.6567 358.686H77.9037C71.5345 358.686 65.4262 361.216 60.9222 365.719C56.4182 370.223 53.8875 376.331 53.8867 382.7V411.461L53.8877 411.464Z" fill="#88D37F"/>
<path d="M461 150.6C480.156 116.837 455.861 74.291 416.515 74.291H416.506C414.681 46.307 384.871 29.397 359.997 41.713C357.705 36.6025 354.37 32.0279 350.206 28.2827C346.041 24.5376 341.14 21.7048 335.816 19.9663C330.492 18.2279 324.863 17.6221 319.291 18.1879C313.719 18.7538 308.327 20.4787 303.461 23.252C299.17 16.1561 293.12 10.2877 285.897 6.2145C278.673 2.14132 270.521 0.0012207 262.229 0.0012207C253.936 0.0012207 245.784 2.14132 238.561 6.2145C231.338 10.2877 225.288 16.1561 220.997 23.252C216.131 20.4785 210.739 18.7535 205.167 18.1876C199.595 17.6216 193.966 18.2274 188.642 19.9659C183.318 21.7044 178.416 24.5372 174.252 28.2824C170.087 32.0276 166.752 36.6024 164.461 41.713C139.629 29.416 109.779 46.27 107.952 74.29H107.943C68.6427 74.29 44.2767 116.79 63.4577 150.599C54.0531 152.738 45.7663 158.268 40.1807 166.13C34.5951 173.993 32.1023 183.639 33.1787 193.223C34.2551 202.808 38.8251 211.66 46.0155 218.088C53.206 224.516 62.5128 228.07 72.1577 228.07C103.382 228.07 134.396 181.379 158.8 131.894C176.422 151.823 247.485 152.729 262.229 119.212C276.972 152.729 348.036 151.823 365.658 131.894C390.058 181.379 421.076 228.07 452.3 228.07C461.945 228.07 471.251 224.516 478.442 218.088C485.632 211.66 490.202 202.808 491.279 193.223C492.355 183.639 489.862 173.993 484.277 166.13C478.691 158.268 470.404 152.738 461 150.599V150.6Z" fill="#4E5660"/>
<path d="M375.842 314.887L369.993 318.687C366.581 320.902 362.659 322.207 358.6 322.478C354.541 322.748 350.481 321.974 346.806 320.231L335.528 314.877C332.165 313.281 328.475 312.495 324.753 312.582C321.032 312.67 317.382 313.628 314.098 315.38C310.814 317.132 307.986 319.63 305.841 322.672C303.696 325.715 302.294 329.218 301.748 332.9L300.748 339.614C300 344.651 297.658 349.316 294.065 352.925C290.472 356.533 285.817 358.896 280.784 359.666C262.995 362.387 255.068 382.646 264.658 396.589C324.473 395.915 377.676 370.482 412.267 330.705C411.58 326.833 409.945 323.19 407.508 320.104C405.071 317.017 401.907 314.582 398.3 313.015C394.693 311.448 390.754 310.799 386.834 311.125C382.915 311.451 379.137 312.743 375.839 314.884L375.842 314.887Z" fill="#88D37F"/>
<path d="M338.809 382.2C310.736 380.65 286.503 375.829 265.685 368.434C262.548 372.411 260.758 377.283 260.574 382.345C260.39 387.407 261.822 392.397 264.662 396.591C290.049 396.37 315.181 391.492 338.809 382.2Z" fill="#5EC682"/>
</svg>
