<svg width="512" height="512" viewBox="0 0 512 512" fill="none" xmlns="http://www.w3.org/2000/svg">
<path d="M125.503 505L229.146 480.5L332.789 505H403.031C403.031 408.178 339.931 367.408 339.931 367.408H118.36C118.36 367.408 55.2598 408.178 55.2598 505H125.503Z" fill="#FBC072"/>
<path d="M492.799 248.954L484.606 240.761C483.68 239.835 482.581 239.101 481.371 238.6C480.162 238.099 478.865 237.841 477.556 237.841C476.246 237.841 474.95 238.099 473.74 238.6C472.531 239.101 471.432 239.835 470.506 240.761L458.46 252.8C449.031 262.229 441.552 273.423 436.449 285.742C431.346 298.062 428.72 311.266 428.721 324.6V363.626H460.248V324.6C460.223 315.403 462.023 306.293 465.542 297.796C469.062 289.3 474.232 281.585 480.753 275.1L492.794 263.059C493.72 262.133 494.454 261.034 494.956 259.825C495.457 258.615 495.715 257.318 495.715 256.009C495.715 254.7 495.457 253.403 494.956 252.193C494.454 250.984 493.72 249.885 492.794 248.959L492.799 248.954Z" fill="#C7C5CB"/>
<path d="M444.489 343.842C441.455 343.842 438.451 344.44 435.649 345.6C432.846 346.761 430.3 348.463 428.155 350.608C426.009 352.753 424.308 355.299 423.147 358.102C421.986 360.905 421.389 363.908 421.389 366.942V467.777H467.589V366.942C467.589 363.908 466.991 360.905 465.83 358.102C464.669 355.299 462.968 352.753 460.823 350.608C458.678 348.463 456.131 346.761 453.329 345.6C450.526 344.44 447.522 343.842 444.489 343.842Z" fill="#475066"/>
<path d="M152.938 367.408H118.36C118.36 367.408 55.2598 408.178 55.2598 505H125.502L228.419 480.669C195.261 448.904 169.493 410.238 152.938 367.408Z" fill="#FFB25A"/>
<path d="M300.513 418.892H157.777C149.217 418.892 141.008 422.292 134.955 428.345C128.902 434.398 125.502 442.607 125.502 451.167V505H332.788V451.167C332.788 442.607 329.388 434.398 323.335 428.345C317.282 422.292 309.073 418.892 300.513 418.892Z" fill="#475066"/>
<path d="M53.152 112.419C43.5639 112.419 34.3685 116.228 27.5887 123.008C20.8089 129.787 17 138.983 17 148.571V173.8C17 183.388 20.8089 192.583 27.5887 199.363C34.3685 206.143 43.5639 209.952 53.152 209.952H93.519V112.42H53.152V112.419Z" fill="#B2B0BC"/>
<path d="M405.138 112.419C414.726 112.419 423.921 116.228 430.701 123.008C437.481 129.787 441.29 138.983 441.29 148.571V173.8C441.29 183.388 437.481 192.583 430.701 199.363C423.921 206.143 414.726 209.952 405.138 209.952H364.77V112.42H405.138V112.419Z" fill="#C7C5CB"/>
<path d="M178.49 418.892H157.777C149.217 418.892 141.008 422.292 134.955 428.345C128.902 434.398 125.502 442.607 125.502 451.167V505H257.037C225.718 481.442 199.078 452.238 178.49 418.892Z" fill="#3B4556"/>
<path d="M143.084 367.408V418.891C143.084 424.387 145.267 429.658 149.154 433.544C153.04 437.431 158.311 439.614 163.807 439.614C169.303 439.614 174.574 437.431 178.46 433.544C182.347 429.658 184.53 424.387 184.53 418.891V367.408H143.084Z" fill="#E3986D"/>
<path d="M315.206 367.408V418.891C315.206 424.387 313.022 429.658 309.136 433.544C305.25 437.431 299.979 439.614 294.483 439.614C288.987 439.614 283.716 437.431 279.829 433.544C275.943 429.658 273.76 424.387 273.76 418.891V367.408H315.206Z" fill="#E3986D"/>
<path d="M152.938 367.408H143.086V418.891C143.084 423.739 144.782 428.433 147.885 432.158C150.988 435.882 155.298 438.4 160.067 439.274C164.835 440.147 169.758 439.32 173.98 436.937C178.201 434.554 181.453 430.766 183.169 426.232C171.035 407.751 160.901 388.032 152.938 367.408Z" fill="#DE8957"/>
<path d="M308.169 8H150.123C127.751 8 106.295 16.8872 90.476 32.7064C74.6567 48.5257 65.7695 69.9812 65.7695 92.353V296.89C65.7695 316.398 73.5189 335.107 87.313 348.901C101.107 362.695 119.816 370.444 139.324 370.444H318.968C328.627 370.444 338.191 368.541 347.115 364.845C356.039 361.149 364.148 355.731 370.978 348.901C377.808 342.07 383.226 333.962 386.923 325.038C390.619 316.114 392.522 306.549 392.522 296.89V92.353C392.522 81.2756 390.34 70.3067 386.101 60.0725C381.861 49.8383 375.648 40.5393 367.815 32.7064C359.982 24.8735 350.683 18.6601 340.449 14.421C330.215 10.1819 319.246 8 308.169 8V8Z" fill="#475066"/>
<path d="M132.047 254.824C132.005 207.21 142.851 160.217 163.756 117.438C184.66 74.6581 215.07 37.225 252.66 8L150.123 8C127.751 8 106.295 16.8872 90.476 32.7064C74.6567 48.5257 65.7695 69.9812 65.7695 92.353V296.89C65.7695 316.398 73.5189 335.107 87.313 348.901C101.107 362.695 119.816 370.444 139.324 370.444H154.118C139.491 333.654 132.001 294.415 132.047 254.824Z" fill="#3B4556"/>
<path d="M310.059 112.419H148.228C143.804 112.419 139.423 113.29 135.335 114.984C131.248 116.677 127.533 119.158 124.405 122.287C121.276 125.415 118.795 129.129 117.102 133.217C115.409 137.305 114.537 141.686 114.537 146.11V176.265C114.537 185.2 118.087 193.77 124.405 200.088C130.723 206.406 139.293 209.956 148.228 209.956H310.059C318.995 209.956 327.564 206.406 333.882 200.088C340.201 193.77 343.75 185.2 343.75 176.265V146.11C343.75 141.686 342.879 137.305 341.186 133.217C339.493 129.129 337.011 125.415 333.883 122.287C330.754 119.158 327.04 116.677 322.953 114.984C318.865 113.29 314.484 112.419 310.06 112.419H310.059Z" fill="#80D8E6"/>
<path d="M424.616 425.355C411.506 425.355 398.934 430.563 389.665 439.832C380.395 449.102 375.188 461.674 375.188 474.783C375.188 482.797 378.371 490.483 384.038 496.15C389.705 501.816 397.39 505 405.405 505H443.826C451.84 505 459.525 501.816 465.192 496.15C470.859 490.483 474.043 482.797 474.043 474.783C474.043 468.292 472.764 461.865 470.281 455.868C467.797 449.871 464.156 444.422 459.566 439.832C454.977 435.242 449.528 431.601 443.531 429.117C437.534 426.633 431.106 425.355 424.616 425.355Z" fill="#E3986D"/>
<path d="M166.259 112.419H148.228C143.804 112.419 139.423 113.29 135.335 114.984C131.248 116.677 127.533 119.158 124.405 122.287C121.276 125.415 118.795 129.129 117.102 133.217C115.409 137.305 114.537 141.686 114.537 146.11V176.265C114.538 182.978 116.544 189.537 120.297 195.102C124.051 200.667 129.381 204.985 135.605 207.5C140.627 174.36 150.979 142.251 166.259 112.419Z" fill="#3CCADD"/>
</svg>
