<svg width="522" height="512" viewBox="0 0 522 512" fill="none" xmlns="http://www.w3.org/2000/svg">
<path d="M457.029 206.807C457.029 252.207 443.54 298.316 466.709 320.646C468.64 322.433 470.001 324.749 470.625 327.305C471.249 329.861 471.106 332.543 470.216 335.019C464.955 348.797 448.181 360.748 431.173 358.209C438.867 379.415 407.609 414.457 372.992 389.409C366.149 418.655 331.54 430.709 305.346 410.593C304.41 423.222 286.323 438.935 257.007 438.935C227.691 438.935 209.607 423.222 208.668 410.593C182.468 430.707 147.868 418.655 141.022 389.409C106.405 414.451 75.1471 379.409 82.8411 358.209C65.8331 360.748 49.0591 348.798 43.7981 335.019C42.9072 332.544 42.7646 329.861 43.3883 327.305C44.0119 324.749 45.3742 322.433 47.3051 320.646C70.4741 298.317 56.9851 252.204 56.9851 206.807H457.029Z" fill="#D1986F"/>
<path d="M457.07 255.912C487.598 250.963 508.334 222.204 503.386 191.676C498.437 161.148 469.677 140.412 439.149 145.36C408.621 150.309 387.885 179.069 392.834 209.597C397.783 240.125 426.542 260.861 457.07 255.912Z" fill="#FFBE9D"/>
<path d="M120.801 211.399C126.832 181.056 107.124 151.569 76.7815 145.538C46.439 139.507 16.9522 159.215 10.9208 189.557C4.8894 219.9 24.5974 249.386 54.9399 255.418C85.2824 261.449 114.769 241.741 120.801 211.399Z" fill="#FFD3BD"/>
<path d="M392.132 460.271C394.782 460.28 397.403 459.724 399.821 458.639C402.238 457.554 404.396 455.966 406.151 453.98C407.905 451.994 409.216 449.657 409.994 447.124C410.773 444.591 411.002 441.921 410.666 439.293C405.59 402.144 387.227 368.091 358.976 343.439C330.726 318.786 294.501 305.202 257.006 305.202C219.511 305.202 183.286 318.786 155.036 343.439C126.785 368.091 108.422 402.144 103.346 439.293C103.01 441.921 103.239 444.591 104.018 447.124C104.796 449.657 106.107 451.994 107.861 453.98C109.616 455.966 111.774 457.554 114.191 458.639C116.609 459.724 119.23 460.28 121.88 460.271H392.132Z" fill="#88D37F"/>
<path d="M314.166 296.95V354.7L275.66 411.528C273.694 414.43 271.047 416.806 267.95 418.449C264.853 420.092 261.401 420.951 257.895 420.951C254.389 420.951 250.937 420.092 247.84 418.449C244.744 416.806 242.096 414.43 240.13 411.528L201.623 354.7V296.95H314.166Z" fill="#FFD3BD"/>
<path d="M449.523 188.538C449.523 90.3689 363.331 14.0179 257.007 14.0179C150.683 14.0179 64.4902 90.3679 64.4902 188.538C64.4902 286.708 150.682 364.495 257.006 364.495C363.33 364.495 449.523 286.707 449.523 188.538Z" fill="#FFD3BD"/>
<path d="M195.151 23.045C119.171 46 64.4902 110.347 64.4902 188.538C64.4902 286.707 150.682 364.495 257.006 364.495C283.367 364.564 309.502 359.644 334.033 349.995C97.8752 336.952 131.206 94.3 195.151 23.045Z" fill="#FFBE9D"/>
<path d="M149.96 282.985C171.774 282.985 189.458 268.902 189.458 251.531C189.458 234.159 171.774 220.077 149.96 220.077C128.146 220.077 110.462 234.159 110.462 251.531C110.462 268.902 128.146 282.985 149.96 282.985Z" fill="#E7889D"/>
<path d="M364.051 282.985C385.865 282.985 403.549 268.902 403.549 251.531C403.549 234.159 385.865 220.077 364.051 220.077C342.237 220.077 324.553 234.159 324.553 251.531C324.553 268.902 342.237 282.985 364.051 282.985Z" fill="#E7889D"/>
<path d="M172.98 228.752C170.991 228.752 169.083 227.962 167.677 226.555C166.27 225.149 165.48 223.241 165.48 221.252V205.106C165.48 203.117 166.27 201.209 167.677 199.803C169.083 198.396 170.991 197.606 172.98 197.606C174.969 197.606 176.877 198.396 178.283 199.803C179.69 201.209 180.48 203.117 180.48 205.106V221.252C180.48 223.241 179.69 225.149 178.283 226.555C176.877 227.962 174.969 228.752 172.98 228.752Z" fill="#4E5660"/>
<path d="M341.032 228.752C339.043 228.752 337.135 227.962 335.729 226.555C334.322 225.149 333.532 223.241 333.532 221.252V205.106C333.532 203.117 334.322 201.209 335.729 199.803C337.135 198.396 339.043 197.606 341.032 197.606C343.021 197.606 344.929 198.396 346.336 199.803C347.742 201.209 348.532 203.117 348.532 205.106V221.252C348.532 223.241 347.742 225.149 346.336 226.555C344.929 227.962 343.021 228.752 341.032 228.752Z" fill="#4E5660"/>
<path d="M257.006 238.364C251.735 238.363 246.526 237.231 241.729 235.047C236.933 232.862 232.66 229.675 229.199 225.7C227.892 224.2 227.234 222.243 227.371 220.258C227.507 218.274 228.426 216.425 229.926 215.118C231.425 213.811 233.383 213.154 235.367 213.29C237.352 213.426 239.201 214.345 240.508 215.845C242.559 218.207 245.094 220.1 247.941 221.398C250.787 222.696 253.879 223.367 257.008 223.367C260.136 223.367 263.228 222.696 266.075 221.398C268.921 220.1 271.456 218.207 273.508 215.845C274.155 215.102 274.942 214.495 275.824 214.056C276.706 213.618 277.666 213.357 278.648 213.29C279.631 213.222 280.617 213.349 281.551 213.663C282.484 213.976 283.347 214.471 284.09 215.118C284.832 215.765 285.44 216.552 285.879 217.434C286.317 218.316 286.577 219.276 286.645 220.258C286.712 221.241 286.586 222.227 286.272 223.161C285.958 224.095 285.464 224.957 284.817 225.7C281.355 229.675 277.082 232.863 272.284 235.047C267.487 237.232 262.277 238.363 257.006 238.364Z" fill="#4E5660"/>
<path d="M257.006 0C390.573 0 446.4 82.476 456.497 135.561C457.747 141.965 456.52 148.605 453.063 154.139C449.606 159.673 444.177 163.689 437.873 165.374C371.83 183.027 280.511 104.118 257.005 80.613C233.405 104.213 141.414 183.689 75.3049 165.148C69.2477 163.402 64.0583 159.461 60.7489 154.096C57.4394 148.731 56.2473 142.325 57.4049 136.128C67.2149 83.065 122.963 0 257.006 0Z" fill="#D1986F"/>
<path d="M501.436 418.011C476.516 442.931 396.685 487.175 374.736 465.225C352.787 443.275 397.03 363.444 421.95 338.525C446.87 313.606 484.866 311.196 506.816 333.146C528.766 355.096 526.357 393.091 501.436 418.011Z" fill="#FCF2D0"/>
<path d="M439.423 325.665C432.978 329.037 427.085 333.373 421.949 338.524C397.029 363.444 352.785 443.275 374.735 465.224C388.913 479.402 427.24 465.96 459.321 447.949C427.023 431.187 422.18 360.9 439.423 325.665Z" fill="#F6E3A3"/>
<path d="M347.617 499.844C346.135 499.843 344.686 499.402 343.454 498.578C342.221 497.754 341.261 496.583 340.694 495.213C340.127 493.844 339.978 492.337 340.267 490.883C340.556 489.429 341.269 488.093 342.317 487.044L441.268 388.092C441.961 387.379 442.788 386.811 443.703 386.421C444.617 386.031 445.6 385.827 446.594 385.82C447.588 385.813 448.573 386.004 449.493 386.381C450.412 386.758 451.248 387.315 451.95 388.018C452.653 388.721 453.209 389.556 453.586 390.476C453.963 391.396 454.153 392.381 454.146 393.375C454.138 394.369 453.933 395.352 453.543 396.266C453.152 397.18 452.584 398.008 451.871 398.7L352.923 497.648C352.227 498.345 351.4 498.899 350.489 499.275C349.578 499.652 348.602 499.845 347.617 499.844Z" fill="#4E5660"/>
<path d="M154.188 387.611H96.4229C94.7486 387.611 93.0908 387.94 91.5439 388.58C89.997 389.221 88.5914 390.16 87.4074 391.343C86.2234 392.527 85.2842 393.932 84.6434 395.479C84.0027 397.026 83.6729 398.684 83.6729 400.358V445.923H166.934V400.358C166.934 398.684 166.604 397.027 165.964 395.48C165.323 393.933 164.385 392.528 163.201 391.345C162.017 390.161 160.612 389.222 159.066 388.581C157.519 387.941 155.862 387.611 154.188 387.611Z" fill="#A2DDFD"/>
<path d="M162.461 512H88.1462C81.8723 512 75.8553 509.508 71.4189 505.071C66.9826 500.635 64.4902 494.618 64.4902 488.344V458.6C64.4902 452.326 66.9826 446.309 71.4189 441.873C75.8553 437.436 81.8723 434.944 88.1462 434.944H162.461C168.735 434.944 174.752 437.436 179.189 441.873C183.625 446.309 186.117 452.326 186.117 458.6V488.344C186.117 491.451 185.506 494.527 184.317 497.397C183.128 500.267 181.386 502.875 179.189 505.072C176.992 507.268 174.384 509.011 171.514 510.2C168.644 511.388 165.568 512 162.461 512Z" fill="#4E5660"/>
<path d="M88.1462 434.943C85.0396 434.943 81.9634 435.555 79.0932 436.744C76.2231 437.933 73.6152 439.675 71.4186 441.872C69.2219 444.069 67.4794 446.677 66.2907 449.547C65.1019 452.417 64.4901 455.493 64.4902 458.6V488.345C64.4905 494.619 66.9829 500.636 71.4193 505.072C75.8556 509.508 81.8724 512 88.1462 512H127.523C102.964 494.637 103.436 456.555 110.901 434.943H88.1462Z" fill="#383C43"/>
</svg>
