<svg width="512" height="512" viewBox="0 0 512 512" fill="none" xmlns="http://www.w3.org/2000/svg">
<path d="M269.943 175.816C267.786 175.924 265.63 175.579 263.614 174.803C261.598 174.026 259.768 172.836 258.24 171.309C256.713 169.781 255.523 167.951 254.746 165.935C253.97 163.919 253.625 161.763 253.733 159.606C255.054 132.852 262.301 79.197 297.606 43.892C332.911 8.58698 386.566 1.33998 413.319 0.0189812C415.476 -0.08941 417.633 0.255668 419.648 1.03195C421.664 1.80823 423.495 2.99847 425.022 4.52588C426.55 6.05329 427.74 7.88394 428.516 9.89972C429.292 11.9155 429.637 14.0716 429.529 16.229C428.208 42.983 420.961 96.638 385.656 131.943C350.351 167.248 296.697 174.495 269.943 175.816Z" fill="#74CD80"/>
<path opacity="0.15" d="M321.091 115.956C319.609 115.955 318.16 115.514 316.928 114.69C315.696 113.866 314.735 112.695 314.168 111.325C313.601 109.956 313.453 108.449 313.741 106.995C314.03 105.541 314.743 104.205 315.791 103.156L356.868 62.079C358.277 60.6826 360.181 59.901 362.164 59.9053C364.148 59.9095 366.049 60.6993 367.451 62.1017C368.854 63.5042 369.644 65.4051 369.648 67.3885C369.653 69.3719 368.871 71.2764 367.475 72.685L326.391 113.759C325.696 114.456 324.87 115.009 323.96 115.386C323.051 115.763 322.076 115.957 321.091 115.956Z" fill="black"/>
<path opacity="0.1" d="M330.339 84.216C307.422 84.1797 284.952 90.5609 265.474 102.637C264.746 103.088 264.006 103.51 263.255 103.905C257.823 122.014 254.626 140.72 253.733 159.605C253.625 161.762 253.97 163.918 254.746 165.934C255.522 167.95 256.713 169.781 258.24 171.308C259.767 172.835 261.598 174.026 263.614 174.802C265.63 175.578 267.786 175.923 269.943 175.815C296.697 174.494 350.353 167.247 385.657 131.942C392.645 124.894 398.761 117.031 403.871 108.522C382.624 92.7008 356.83 84.1746 330.339 84.216Z" fill="black"/>
<path d="M259.179 178.4C254.936 178.4 250.866 176.714 247.865 173.714C244.865 170.713 243.179 166.643 243.179 162.4C243.179 118.158 229.464 85.538 201.25 62.676C197.974 59.9977 195.893 56.1309 195.461 51.9216C195.029 47.7124 196.282 43.5035 198.946 40.216C201.61 36.9285 205.468 34.8301 209.675 34.3799C213.883 33.9298 218.097 35.1645 221.396 37.814C257.083 66.733 275.178 108.65 275.178 162.4C275.178 166.643 273.492 170.713 270.492 173.713C267.492 176.714 263.422 178.4 259.179 178.4Z" fill="#806761"/>
<path opacity="0.1" d="M270.258 117.1C264.95 119.353 259.178 120.3 253.428 119.86C247.678 119.419 242.117 117.605 237.214 114.57C236.914 114.385 236.614 114.213 236.314 114.031C240.914 128.312 243.183 144.392 243.183 162.398C243.183 166.641 244.869 170.711 247.869 173.712C250.87 176.712 254.94 178.398 259.183 178.398C263.426 178.398 267.496 176.712 270.497 173.712C273.497 170.711 275.183 166.641 275.183 162.398C275.28 147.16 273.628 131.961 270.258 117.1Z" fill="black"/>
<path d="M340.033 118.85C317.116 118.814 294.646 125.195 275.168 137.271C269.468 140.802 262.896 142.672 256.191 142.672C249.487 142.672 242.915 140.802 237.215 137.271C218.528 125.723 197.097 119.375 175.136 118.881C153.175 118.388 131.48 123.767 112.293 134.463C93.1069 145.16 77.1244 160.785 65.9974 179.725C54.8704 198.666 49.0025 220.233 49 242.2C49 318.884 124.506 460.438 155.809 491.742H155.823C166.17 502.428 179.798 509.34 194.532 511.378C209.266 513.415 224.258 510.459 237.117 502.982C242.911 499.619 249.492 497.848 256.191 497.848C262.89 497.848 269.471 499.619 275.265 502.982C288.124 510.459 303.116 513.415 317.85 511.378C332.584 509.34 346.212 502.428 356.559 491.742H356.572C387.872 460.442 463.382 318.884 463.382 242.2C463.382 226.001 460.192 209.962 453.993 194.996C447.794 180.031 438.708 166.433 427.254 154.978C415.8 143.524 402.202 134.438 387.237 128.239C372.271 122.041 356.232 118.85 340.033 118.85Z" fill="#DC5371"/>
<path opacity="0.1" d="M372.02 123.047C388.041 134.696 401.076 149.973 410.059 167.628C419.042 185.283 423.718 204.813 423.704 224.622C423.704 302.741 346.785 446.943 314.896 478.832H314.883C308.671 485.258 301.246 490.389 293.039 493.928C284.832 497.467 276.004 499.344 267.067 499.451C269.931 500.297 272.684 501.482 275.267 502.98C288.125 510.457 303.117 513.413 317.852 511.375C332.586 509.338 346.214 502.425 356.561 491.74H356.574C387.874 460.44 463.384 318.883 463.384 242.198C463.38 215.054 454.426 188.668 437.909 167.128C421.392 145.587 398.233 130.094 372.02 123.047Z" fill="black"/>
</svg>
