<svg width="512" height="512" viewBox="0 0 512 512" fill="none" xmlns="http://www.w3.org/2000/svg">
<path d="M464 133.321C461.221 119.702 454.505 107.199 444.684 97.363C437.204 89.9124 432.779 79.9361 432.275 69.391C432.237 68.654 432.216 67.914 432.216 67.173V38.483C432.216 22.212 419.459 8.45801 403.194 8.01201C399.203 7.89998 395.231 8.5892 391.511 10.0389C387.792 11.4886 384.401 13.6694 381.539 16.4523C378.677 19.2352 376.401 22.5637 374.848 26.2411C373.294 29.9184 372.494 33.87 372.494 37.862V53.6C372.498 60.6062 370.78 67.5059 367.49 73.6916C364.2 79.8773 359.44 85.1592 353.628 89.072C342.1 96.822 332.498 108.344 326.692 123.772C306.334 177.857 274.664 226.973 233.799 267.834C192.938 308.699 143.823 340.368 89.7389 360.724C56.2819 373.324 41.1949 403.765 43.1709 432.994C45.1549 462.343 64.3429 490.466 99.4259 498.06C149.579 508.907 201.653 506.998 250.877 492.506C300.102 478.014 344.903 451.404 381.179 415.112C417.455 378.82 444.045 334.006 458.514 284.775C472.984 235.544 474.87 183.47 464 133.321Z" fill="#FFCE71"/>
<path d="M432.278 69.391C432.24 68.654 432.219 67.914 432.219 67.173V38.483C432.219 22.212 419.462 8.45801 403.197 8.01201C399.206 7.89998 395.234 8.5892 391.514 10.0389C387.795 11.4886 384.404 13.6694 381.542 16.4523C378.68 19.2352 376.404 22.5637 374.851 26.2411C373.297 29.9184 372.497 33.87 372.497 37.862V53.6C372.501 60.6062 370.783 67.5059 367.493 73.6916C364.203 79.8773 359.443 85.1592 353.631 89.072C342.103 96.822 332.501 108.344 326.695 123.772C306.337 177.857 274.667 226.973 233.802 267.834C192.94 308.699 143.824 340.368 89.7389 360.724C56.2819 373.324 41.1949 403.765 43.1709 432.994C93.2895 437.764 143.85 431.836 191.506 415.602C239.161 399.368 282.826 373.198 319.611 338.825C356.396 304.452 385.461 262.659 404.884 216.211C424.307 169.763 433.644 119.721 432.278 69.394V69.391Z" fill="#FFB357"/>
<path d="M432.219 52.124V38.483C432.219 22.212 419.462 8.45801 403.197 8.01201C399.206 7.89998 395.234 8.5892 391.514 10.0389C387.795 11.4886 384.404 13.6694 381.542 16.4523C378.68 19.2352 376.404 22.5637 374.851 26.2411C373.297 29.9184 372.497 33.87 372.497 37.862V52.411C392.11 57.3554 412.655 57.2567 432.22 52.124H432.219Z" fill="#00C084"/>
</svg>
