<svg width="512" height="512" viewBox="0 0 512 512" fill="none" xmlns="http://www.w3.org/2000/svg">
<path d="M341.138 396.855C275.814 401.238 221.126 347.195 219.255 281.755C218.954 271.082 216.045 260.645 210.78 251.356C205.516 242.066 198.057 234.208 189.055 228.466C162.557 211.545 143.866 184.791 137.095 154.09C130.323 123.388 136.024 91.2537 152.945 64.7559C169.866 38.2581 196.62 19.5674 227.321 12.7955C258.023 6.02352 290.157 11.7251 316.655 28.6459C358.263 55.1882 392.739 91.5153 417.071 134.454C441.403 177.392 454.851 225.635 456.239 274.969C457.54 320.406 427.743 391.043 341.138 396.855Z" fill="#7DCE5C"/>
<path d="M385.587 246.371C384.274 191.988 358.634 118.285 279.901 86.1598C226.271 64.2768 170.747 78.5198 140.79 89.8238C132.098 114.996 132.132 142.361 140.887 167.511C149.642 192.661 166.608 214.132 189.052 228.465C198.053 234.206 205.512 242.065 210.776 251.353C216.04 260.641 218.95 271.078 219.252 281.75C221.123 347.195 275.815 401.238 341.135 396.855C405.826 392.511 438.835 352.003 450.842 312.843C413.146 312.43 386.544 285.891 385.587 246.371Z" fill="#59C230"/>
<path d="M97.101 493.4C45.718 452.83 41.421 376.06 83.937 326.275C90.8737 318.159 95.7175 308.467 98.0452 298.048C100.373 287.628 100.114 276.796 97.29 266.5C89.0402 236.191 93.1571 203.847 108.737 176.572C124.316 149.296 150.084 129.319 180.382 121.028C210.679 112.737 243.028 116.81 270.325 132.353C297.622 147.895 317.634 173.636 325.966 203.922C339.016 251.518 340.213 301.586 329.451 349.752C318.689 397.917 296.296 442.715 264.228 480.23C234.708 514.8 165.224 547.191 97.101 493.4Z" fill="#9CDA82"/>
<path d="M194.301 319.574C197.37 305.835 196.885 291.541 192.891 278.042C188.897 264.543 181.526 252.286 171.476 242.43C161.425 232.573 149.026 225.443 135.452 221.713C121.878 217.983 107.577 217.776 93.9009 221.113C92.0719 236.318 93.2189 251.733 97.2779 266.5C100.099 276.796 100.357 287.626 98.0292 298.045C95.7013 308.464 90.8582 318.154 83.9229 326.27C73.9794 337.918 66.3472 351.354 61.4349 365.86C72.3855 374.725 85.4174 380.648 99.2969 383.068C113.176 385.488 127.444 384.326 140.748 379.691C154.053 375.056 165.955 367.102 175.326 356.582C184.697 346.062 191.229 333.324 194.301 319.574Z" fill="#F9EE80"/>
</svg>
