<svg width="513" height="512" viewBox="0 0 513 512" fill="none" xmlns="http://www.w3.org/2000/svg">
<path d="M510.557 121.121C526.37 50.129 462.87 -13.3711 391.877 2.44095C323.19 17.7409 234.139 55.55 145.342 144.347C56.5448 233.144 18.7358 322.191 3.43875 390.879C-12.3732 461.871 51.1268 525.371 122.119 509.559C190.807 494.259 279.857 456.45 368.65 367.653C457.443 278.856 495.26 189.809 510.557 121.121Z" fill="#FDCB89"/>
<path d="M3.43875 390.879C-12.3732 461.871 51.1268 525.371 122.119 509.559C155.739 501.996 188.377 490.587 219.389 475.559C217.819 391.309 163.42 341.727 188.416 265.805C194.6 247.02 206.807 229.934 224.635 206.77C348.598 45.738 508.131 68.719 508.131 68.719C492.975 22.563 444.482 -9.27302 391.877 2.44098C323.19 17.741 234.139 55.55 145.342 144.347C56.5448 233.144 18.7358 322.191 3.43875 390.879Z" fill="#FAB658"/>
<path d="M303.998 150.215C305.849 156.233 308.868 161.828 312.882 166.679C316.896 171.531 321.826 175.544 327.391 178.49C332.955 181.437 339.046 183.258 345.315 183.85C351.583 184.443 357.907 183.795 363.926 181.943C369.944 180.091 375.538 177.072 380.39 173.059C385.241 169.045 389.255 164.115 392.201 158.55C395.147 152.985 396.969 146.895 397.561 140.626C398.153 134.357 397.505 128.033 395.654 122.015C383.854 83.6302 363.704 48.333 336.65 18.656C304.612 30.4562 273.922 45.6331 245.098 63.93C273 86.0781 293.536 116.162 303.998 150.215Z" fill="#FC8978"/>
<path d="M245.098 63.9299C268.248 82.3053 286.404 106.208 297.898 133.438C323.582 113.935 351.983 98.2979 382.198 87.0239C370.562 62.0623 355.204 39.0117 336.65 18.6599C304.612 30.457 273.921 45.6326 245.098 63.9299Z" fill="#F2614A"/>
<path d="M188.416 265.8C190.267 271.818 193.286 277.413 197.3 282.264C201.314 287.116 206.244 291.129 211.809 294.075C217.373 297.022 223.464 298.843 229.733 299.435C236.002 300.028 242.326 299.38 248.344 297.528C254.362 295.676 259.957 292.657 264.808 288.644C269.66 284.63 273.673 279.7 276.619 274.135C279.565 268.57 281.387 262.479 281.979 256.211C282.572 249.942 281.923 243.618 280.072 237.6C263.926 185.057 232.243 138.637 189.198 104.453C174.628 116.453 159.998 129.699 145.346 144.344C136.123 153.571 127.442 162.787 119.303 171.992C152.306 194.525 176.676 227.601 188.416 265.8Z" fill="#FC8978"/>
<path d="M189.198 104.453C174.632 116.453 159.998 129.699 145.346 144.344C136.123 153.571 127.442 162.787 119.303 171.992C152.308 194.523 176.677 227.601 188.416 265.8C194.6 247.015 206.807 229.929 224.635 206.769C233.13 195.722 242.175 185.108 251.735 174.969C235.147 148.007 213.984 124.144 189.198 104.453Z" fill="#F2614A"/>
<path d="M132.76 413.117C144.914 409.377 155.085 400.962 161.035 389.723C166.985 378.484 168.227 365.341 164.487 353.187C148.951 302.629 119.02 257.693 78.353 223.875C59.4733 250.803 43.3045 279.533 30.083 309.645C49.8709 329.791 64.5307 354.395 72.829 381.387C76.5695 393.541 84.9847 403.712 96.2237 409.663C107.463 415.613 120.605 416.856 132.76 413.117Z" fill="#F2614A"/>
</svg>
