<svg width="512" height="512" viewBox="0 0 512 512" fill="none" xmlns="http://www.w3.org/2000/svg">
<path d="M459.211 385.712H52.789C38.7887 385.711 25.3621 380.149 15.4624 370.25C5.56273 360.35 0.000795568 346.923 0 332.923L0 306.856C0.000795568 292.856 5.56273 279.429 15.4624 269.53C25.3621 259.63 38.7887 254.068 52.789 254.067H459.211C473.211 254.068 486.638 259.63 496.538 269.53C506.437 279.429 511.999 292.856 512 306.856V332.922C511.999 346.923 506.438 360.349 496.538 370.249C486.638 380.149 473.211 385.711 459.211 385.712Z" fill="#A8503C"/>
<path d="M52.789 254.067C38.7887 254.068 25.3621 259.63 15.4624 269.529C5.56273 279.429 0.000795568 292.856 0 306.856L0 332.922C0.000795568 346.922 5.56273 360.349 15.4624 370.249C25.3621 380.148 38.7887 385.71 52.789 385.711H295.574C266.828 358.141 261.25 294.824 283.16 254.066L52.789 254.067Z" fill="#993E29"/>
<path d="M388.633 290.056C388.633 291.5 388.205 292.911 387.403 294.112C386.601 295.312 385.461 296.248 384.127 296.8C382.793 297.353 381.325 297.497 379.909 297.216C378.493 296.934 377.192 296.239 376.171 295.218C375.15 294.197 374.455 292.896 374.173 291.48C373.892 290.064 374.036 288.596 374.589 287.263C375.141 285.929 376.077 284.789 377.278 283.986C378.478 283.184 379.889 282.756 381.333 282.756C383.269 282.758 385.125 283.527 386.493 284.896C387.862 286.265 388.632 288.12 388.633 290.056Z" fill="#C47B46"/>
<path d="M326.9 330.056C326.9 331.5 326.472 332.911 325.67 334.112C324.867 335.312 323.727 336.248 322.393 336.8C321.059 337.353 319.592 337.497 318.176 337.216C316.76 336.934 315.459 336.239 314.438 335.218C313.417 334.197 312.722 332.896 312.44 331.48C312.158 330.064 312.303 328.596 312.855 327.263C313.408 325.929 314.344 324.788 315.544 323.986C316.745 323.184 318.156 322.756 319.6 322.756C321.536 322.756 323.393 323.525 324.762 324.894C326.131 326.263 326.9 328.12 326.9 330.056Z" fill="#C47B46"/>
<path d="M179.594 352.571C179.594 354.015 179.166 355.426 178.364 356.627C177.562 357.827 176.422 358.763 175.088 359.315C173.754 359.868 172.286 360.012 170.87 359.731C169.454 359.449 168.153 358.754 167.132 357.733C166.111 356.712 165.416 355.411 165.134 353.995C164.853 352.579 164.997 351.111 165.55 349.777C166.102 348.444 167.038 347.303 168.238 346.501C169.439 345.699 170.85 345.271 172.294 345.271C173.253 345.271 174.202 345.46 175.088 345.827C175.973 346.194 176.778 346.731 177.456 347.409C178.134 348.087 178.672 348.892 179.038 349.777C179.405 350.663 179.594 351.612 179.594 352.571Z" fill="#D2996F"/>
<path d="M123.176 308.727C123.176 310.171 122.748 311.582 121.946 312.783C121.144 313.983 120.004 314.919 118.67 315.471C117.336 316.024 115.868 316.168 114.452 315.887C113.036 315.605 111.735 314.91 110.714 313.889C109.693 312.868 108.998 311.567 108.716 310.151C108.435 308.735 108.579 307.267 109.132 305.933C109.684 304.6 110.62 303.459 111.821 302.657C113.021 301.855 114.432 301.427 115.876 301.427C116.835 301.427 117.784 301.616 118.67 301.983C119.555 302.35 120.36 302.887 121.038 303.565C121.716 304.243 122.254 305.048 122.62 305.933C122.987 306.819 123.176 307.768 123.176 308.727Z" fill="#D2996F"/>
<path d="M63.4838 337.356C63.4838 338.8 63.0557 340.211 62.2535 341.412C61.4514 342.612 60.3113 343.548 58.9774 344.1C57.6435 344.653 56.1757 344.797 54.7596 344.516C53.3436 344.234 52.0428 343.539 51.0219 342.518C50.001 341.497 49.3057 340.196 49.0241 338.78C48.7424 337.364 48.8869 335.896 49.4395 334.562C49.992 333.228 50.9277 332.088 52.1281 331.286C53.3286 330.484 54.74 330.056 56.1838 330.056C58.1194 330.057 59.9752 330.827 61.3439 332.196C62.7126 333.564 63.4822 335.42 63.4838 337.356Z" fill="#D2996F"/>
<path d="M470.43 341.446C470.43 342.89 470.002 344.301 469.2 345.502C468.398 346.702 467.258 347.638 465.924 348.19C464.59 348.743 463.122 348.887 461.706 348.606C460.29 348.324 458.989 347.629 457.968 346.608C456.947 345.587 456.252 344.286 455.97 342.87C455.689 341.454 455.833 339.986 456.386 338.652C456.938 337.319 457.874 336.178 459.074 335.376C460.275 334.574 461.686 334.146 463.13 334.146C465.066 334.146 466.923 334.915 468.292 336.284C469.661 337.653 470.43 339.51 470.43 341.446Z" fill="#C47B46"/>
<path d="M341.016 254.067C319.057 254.067 297.997 262.79 282.469 278.317L232.395 328.391C230.572 330.214 228.408 331.661 226.026 332.648C223.645 333.634 221.092 334.142 218.514 334.142C215.936 334.142 213.383 333.634 211.001 332.648C208.619 331.661 206.455 330.214 204.633 328.391L154.559 278.317C139.031 262.79 117.971 254.067 96.0117 254.067H341.016Z" fill="#F7EF87"/>
<path d="M456.391 478.919H55.6093C41.5653 478.919 28.0967 473.34 18.1661 463.409C8.23556 453.479 2.65652 440.01 2.65625 425.966V407.392C2.65599 404.545 3.21658 401.725 4.30601 399.095C5.39544 396.465 6.99236 394.074 9.00559 392.061C11.0188 390.048 13.4089 388.451 16.0394 387.362C18.6698 386.272 21.4891 385.712 24.3363 385.712H487.664C493.414 385.712 498.928 387.996 502.994 392.062C507.06 396.128 509.344 401.642 509.344 407.392V425.966C509.344 440.01 503.765 453.479 493.834 463.409C483.904 473.34 470.435 478.919 456.391 478.919Z" fill="#EFD176"/>
<path d="M405.465 48.927C306.954 27.6887 205.047 27.6887 106.535 48.927C77.1208 55.2692 50.7675 71.4986 31.8657 94.9114C12.9639 118.324 2.65492 147.507 2.65625 177.597C2.65625 184.396 5.35728 190.917 10.1652 195.725C14.973 200.533 21.4939 203.234 28.2932 203.234H483.7C487.068 203.235 490.402 202.572 493.513 201.284C496.624 199.996 499.451 198.108 501.833 195.727C504.214 193.347 506.103 190.52 507.392 187.409C508.681 184.299 509.344 180.964 509.344 177.597C509.346 147.507 499.037 118.324 480.135 94.9114C461.233 71.4986 434.88 55.2692 405.465 48.927Z" fill="#EFD176"/>
<path d="M483.676 203.231H28.3242C22.9532 203.232 17.8026 205.366 14.0051 209.165C10.2076 212.963 8.07422 218.114 8.07422 223.485V233.813C8.07382 236.473 8.59731 239.106 9.61478 241.563C10.6322 244.021 12.1238 246.253 14.0042 248.134C15.8846 250.015 18.1171 251.507 20.5741 252.525C23.0312 253.543 25.6647 254.067 28.3242 254.067H483.676C486.336 254.067 488.969 253.543 491.426 252.525C493.883 251.507 496.116 250.015 497.996 248.134C499.877 246.253 501.368 244.021 502.386 241.563C503.403 239.106 503.927 236.473 503.926 233.813V223.485C503.926 218.114 501.793 212.963 497.995 209.165C494.198 205.366 489.047 203.232 483.676 203.231Z" fill="#89D47F"/>
<path d="M154.547 40.2971C138.473 42.6211 122.469 45.4961 106.535 48.9221C77.1199 55.2645 50.766 71.4946 31.8641 94.9084C12.9622 118.322 2.65377 147.506 2.65625 177.597C2.65678 180.964 3.32051 184.298 4.60955 187.409C5.89859 190.519 7.78769 193.345 10.169 195.725C12.5503 198.106 15.3771 199.994 18.4881 201.282C21.5991 202.569 24.9333 203.232 28.3002 203.231H185.266C141.492 173.997 124.141 87.7701 154.547 40.2971Z" fill="#E3B72E"/>
<path d="M242.691 203.231H28.3242C22.9532 203.232 17.8026 205.366 14.0051 209.165C10.2076 212.963 8.07422 218.114 8.07422 223.485V233.813C8.07382 236.473 8.59731 239.106 9.61478 241.563C10.6322 244.021 12.1238 246.253 14.0042 248.134C15.8846 250.015 18.1171 251.507 20.5741 252.525C23.0312 253.543 25.6647 254.067 28.3242 254.067H247.477C236.945 240.688 235.422 218.145 242.691 203.231Z" fill="#5EC783"/>
<path d="M181.988 385.712H24.3363C18.5864 385.712 13.0722 387.996 9.00647 392.062C4.94074 396.128 2.65652 401.642 2.65625 407.392V425.966C2.65652 440.01 8.23556 453.479 18.1661 463.409C28.0967 473.34 41.5653 478.919 55.6093 478.919H193.8C174.332 455.528 171.625 413.197 181.988 385.712Z" fill="#E3B72E"/>
<path d="M110.68 110.286C108.691 110.286 106.783 109.496 105.376 108.089C103.97 106.683 103.18 104.775 103.18 102.786V87.9861C103.18 85.997 103.97 84.0893 105.376 82.6828C106.783 81.2763 108.691 80.4861 110.68 80.4861C112.669 80.4861 114.576 81.2763 115.983 82.6828C117.39 84.0893 118.18 85.997 118.18 87.9861V102.786C118.18 104.775 117.39 106.683 115.983 108.089C114.576 109.496 112.669 110.286 110.68 110.286Z" fill="#F6E3A3"/>
<path d="M56.1797 167.817C54.1906 167.817 52.2829 167.027 50.8764 165.62C49.4699 164.214 48.6797 162.306 48.6797 160.317V145.517C48.6797 143.528 49.4699 141.62 50.8764 140.214C52.2829 138.807 54.1906 138.017 56.1797 138.017C58.1688 138.017 60.0765 138.807 61.483 140.214C62.8895 141.62 63.6797 143.528 63.6797 145.517V160.317C63.6797 162.306 62.8895 164.214 61.483 165.62C60.0765 167.027 58.1688 167.817 56.1797 167.817Z" fill="#F6E3A3"/>
<path d="M401.32 110.286C399.331 110.286 397.424 109.496 396.017 108.089C394.61 106.683 393.82 104.775 393.82 102.786V87.9861C393.82 85.997 394.61 84.0893 396.017 82.6828C397.424 81.2763 399.331 80.4861 401.32 80.4861C403.309 80.4861 405.217 81.2763 406.624 82.6828C408.03 84.0893 408.82 85.997 408.82 87.9861V102.786C408.82 104.775 408.03 106.683 406.624 108.089C405.217 109.496 403.309 110.286 401.32 110.286Z" fill="#FCF2D0"/>
<path d="M455.82 167.817C453.831 167.817 451.924 167.027 450.517 165.62C449.11 164.214 448.32 162.306 448.32 160.317V145.517C448.32 143.528 449.11 141.62 450.517 140.214C451.924 138.807 453.831 138.017 455.82 138.017C457.809 138.017 459.717 138.807 461.124 140.214C462.53 141.62 463.32 143.528 463.32 145.517V160.317C463.32 162.306 462.53 164.214 461.124 165.62C459.717 167.027 457.809 167.817 455.82 167.817Z" fill="#FCF2D0"/>
<path d="M256 76.9811C254.011 76.9811 252.103 76.1909 250.697 74.7844C249.29 73.3779 248.5 71.4702 248.5 69.4811V54.6731C248.5 52.684 249.29 50.7763 250.697 49.3698C252.103 47.9633 254.011 47.1731 256 47.1731C257.989 47.1731 259.897 47.9633 261.303 49.3698C262.71 50.7763 263.5 52.684 263.5 54.6731V69.4811C263.5 71.4702 262.71 73.3779 261.303 74.7844C259.897 76.1909 257.989 76.9811 256 76.9811Z" fill="#FCF2D0"/>
<path d="M334.547 137.02C332.558 137.02 330.65 136.23 329.244 134.823C327.837 133.417 327.047 131.509 327.047 129.52V116.263C327.047 114.274 327.837 112.366 329.244 110.96C330.65 109.553 332.558 108.763 334.547 108.763C336.536 108.763 338.444 109.553 339.85 110.96C341.257 112.366 342.047 114.274 342.047 116.263V129.52C342.047 131.509 341.257 133.417 339.85 134.823C338.444 136.23 336.536 137.02 334.547 137.02Z" fill="#FCF2D0"/>
<path d="M224.547 137.02C222.558 137.02 220.65 136.23 219.244 134.823C217.837 133.417 217.047 131.509 217.047 129.52V116.263C217.047 114.274 217.837 112.366 219.244 110.96C220.65 109.553 222.558 108.763 224.547 108.763C226.536 108.763 228.444 109.553 229.85 110.96C231.257 112.366 232.047 114.274 232.047 116.263V129.52C232.047 131.509 231.257 133.417 229.85 134.823C228.444 136.23 226.536 137.02 224.547 137.02Z" fill="#FCF2D0"/>
</svg>
