<svg width="512" height="512" viewBox="0 0 512 512" fill="none" xmlns="http://www.w3.org/2000/svg">
<path d="M242.466 140.51C255.706 112.758 286.232 59.6659 335.587 33.6999C336.936 32.9961 338.417 32.5799 339.935 32.4779C341.453 32.3758 342.976 32.5901 344.407 33.1071C345.838 33.6241 347.146 34.4326 348.248 35.4814C349.351 36.5302 350.224 37.7964 350.811 39.1999L355.926 51.3799C356.982 53.9162 357.053 56.7549 356.128 59.3413C355.202 61.9277 353.345 64.0758 350.919 65.3659C311.237 86.7659 285.758 132.415 274.195 155.712C266.971 170.266 252.211 164.623 252.211 164.623C249.917 163.77 247.826 162.449 246.072 160.743C244.317 159.037 242.937 156.985 242.02 154.716C241.104 152.447 240.67 150.012 240.746 147.566C240.823 145.12 241.409 142.717 242.466 140.51Z" fill="#7EC66A"/>
<path d="M320.781 42.634C280.073 70.449 254.329 115.651 242.467 140.509C241.409 142.716 240.822 145.119 240.745 147.565C240.668 150.012 241.102 152.447 242.019 154.716C242.936 156.985 244.317 159.038 246.072 160.744C247.828 162.449 249.92 163.77 252.214 164.621C252.214 164.621 266.974 170.264 274.198 155.71C281.94 140.11 295.929 114.487 316.233 92.836C315.42 75.9722 316.951 59.0772 320.781 42.634Z" fill="#67B758"/>
<path d="M277.528 147.192C276.006 116.479 268.306 55.7249 232.773 12.7409C231.799 11.5716 230.593 10.6172 229.231 9.93814C227.869 9.2591 226.381 8.87019 224.861 8.79602C223.341 8.72186 221.823 8.96405 220.401 9.50728C218.98 10.0505 217.686 10.8829 216.603 11.9519L207.19 21.2139C205.238 23.1473 204.078 25.739 203.935 28.4826C203.792 31.2261 204.678 33.9243 206.418 36.0499C234.782 71.0969 240.699 123.035 242.389 148.988C243.445 165.202 259.24 165.688 259.24 165.688C261.686 165.786 264.125 165.373 266.402 164.475C268.679 163.578 270.744 162.215 272.465 160.475C274.186 158.734 275.525 156.654 276.397 154.367C277.269 152.08 277.654 149.636 277.528 147.192Z" fill="#7EC66A"/>
<path d="M277.528 147.192C276.134 119.074 269.551 65.759 241.184 23.97C233.099 35.3994 226.658 47.9071 222.049 61.127C237.176 92.654 241.07 128.735 242.389 148.989C243.445 165.203 259.24 165.689 259.24 165.689C261.686 165.787 264.125 165.374 266.402 164.476C268.679 163.578 270.744 162.216 272.465 160.475C274.186 158.735 275.525 156.654 276.397 154.367C277.269 152.08 277.654 149.636 277.528 147.192Z" fill="#67B758"/>
<path d="M344.664 426.793L362.931 420.298C368.688 418.268 373.466 414.138 376.306 408.734C401.985 359.465 417.606 302.371 417.606 260.877C417.5 218.033 400.405 176.98 370.072 146.722C339.739 116.464 298.644 99.4722 255.8 99.4722C212.955 99.4722 171.86 116.464 141.527 146.722C111.194 176.98 94.0997 218.033 93.9932 260.877C93.9932 286.154 99.7932 317.222 110.132 348.783C111.293 352.317 113.248 355.538 115.847 358.2C118.446 360.861 121.62 362.892 125.125 364.137L140.982 369.775L134.495 379.289C132.048 382.87 130.603 387.04 130.309 391.367C130.016 395.694 130.885 400.021 132.826 403.9C162.506 462.923 206.586 512 255.806 512C290.247 512 322.174 487.971 348.406 453.321C350.606 450.434 351.843 446.929 351.943 443.301C352.043 439.673 351 436.106 348.961 433.103L344.664 426.793Z" fill="#FF8F71"/>
<path d="M255.806 99.071C212.893 99.071 171.737 116.118 141.392 146.463C111.047 176.807 94.0001 217.963 94.0001 260.877C94.0001 286.154 99.8001 317.222 110.139 348.783C111.3 352.317 113.255 355.539 115.854 358.2C118.453 360.862 121.627 362.892 125.132 364.137L140.989 369.775L134.502 379.289C132.049 382.894 130.606 387.09 130.323 391.441C130.04 395.793 130.927 400.14 132.892 404.033C162.568 463 206.622 512 255.806 512C271.648 512 286.967 506.91 301.437 498.047C191.686 409.138 196.145 299.854 211.206 236.963C214.473 223.585 221.745 211.522 232.05 202.387C242.355 193.252 255.203 187.48 268.876 185.841C330.897 178.041 356.79 134.441 356.79 134.441C328.141 111.492 292.514 99.0135 255.806 99.071Z" fill="#FF6F4D"/>
<path d="M365.058 377.5H259.006C256.957 377.5 254.992 376.686 253.543 375.237C252.094 373.788 251.28 371.823 251.28 369.774C251.28 367.725 252.094 365.76 253.543 364.311C254.992 362.862 256.957 362.048 259.006 362.048H365.058C367.107 362.048 369.072 362.862 370.521 364.311C371.97 365.76 372.784 367.725 372.784 369.774C372.784 371.823 371.97 373.788 370.521 375.237C369.072 376.686 367.107 377.5 365.058 377.5Z" fill="#FF6F4D"/>
<path d="M317.532 434.519H270.781C268.732 434.519 266.767 433.705 265.318 432.256C263.869 430.807 263.055 428.842 263.055 426.793C263.055 424.744 263.869 422.779 265.318 421.33C266.767 419.881 268.732 419.067 270.781 419.067H317.532C319.581 419.067 321.546 419.881 322.995 421.33C324.444 422.779 325.258 424.744 325.258 426.793C325.258 428.842 324.444 430.807 322.995 432.256C321.546 433.705 319.581 434.519 317.532 434.519Z" fill="#FF6F4D"/>
<path d="M240.794 136.724C243.255 106.072 252.806 45.582 289.636 3.69997C290.645 2.56057 291.879 1.64301 293.261 1.0054C294.643 0.367777 296.142 0.0239848 297.663 -0.00421563C299.185 -0.0324161 300.696 0.25559 302.1 0.841567C303.504 1.42755 304.772 2.29873 305.822 3.39997L314.947 12.946C316.839 14.9382 317.919 17.5641 317.978 20.3107C318.037 23.0572 317.069 25.7269 315.264 27.798C285.842 61.962 278.341 113.698 275.864 139.584C274.314 155.758 258.512 155.757 258.512 155.757C256.065 155.782 253.64 155.296 251.392 154.33C249.143 153.365 247.121 151.941 245.454 150.15C243.786 148.359 242.511 146.24 241.709 143.928C240.906 141.616 240.595 139.163 240.794 136.724Z" fill="#92DD7A"/>
<path d="M277.543 19.4861C250.628 59.6591 242.959 109.746 240.793 136.724C240.592 139.163 240.903 141.617 241.704 143.93C242.506 146.242 243.78 148.362 245.447 150.154C247.114 151.946 249.136 153.371 251.385 154.337C253.634 155.303 256.059 155.79 258.506 155.766C258.506 155.766 274.306 155.766 275.858 139.593C275.861 139.593 259.14 87.2401 277.543 19.4861Z" fill="#7EC66A"/>
</svg>
