<svg width="512" height="512" viewBox="0 0 512 512" fill="none" xmlns="http://www.w3.org/2000/svg">
<path d="M392.677 417.243C383.137 400.099 372.388 377.443 369.443 365.465H142.557C139.612 377.445 128.863 400.099 119.323 417.243C118.092 419.46 117.462 421.961 117.495 424.497C117.528 427.033 118.223 429.516 119.51 431.701C120.798 433.886 122.633 435.697 124.836 436.954C127.038 438.212 129.531 438.873 132.067 438.871H379.933C382.469 438.873 384.961 438.212 387.164 436.954C389.366 435.697 391.202 433.886 392.489 431.701C393.776 429.516 394.471 427.033 394.504 424.497C394.537 421.961 393.907 419.46 392.677 417.243Z" fill="#FDC464"/>
<path d="M114 148.045C131.944 165.989 133.57 193.457 117.631 209.395C101.692 225.333 74.2247 223.708 56.2807 205.764C38.3367 187.82 19.6107 143.252 35.5497 127.313C51.4887 111.374 96.0557 130.101 114 148.045Z" fill="#D9A884"/>
<path d="M337.628 174.825C337.628 200.202 319.355 220.774 296.814 220.774C274.273 220.774 256 200.202 256 174.825C256 149.448 274.273 104.693 296.814 104.693C319.355 104.693 337.628 149.448 337.628 174.825Z" fill="#D9A884"/>
<path d="M406.677 119.291C424.621 101.347 452.089 99.7209 468.027 115.66C483.965 131.599 482.34 159.066 464.396 177.01C446.452 194.954 401.884 213.68 385.945 197.741C370.006 181.802 388.733 137.235 406.677 119.291Z" fill="#E6C6AE"/>
<path d="M134.34 220.362C161.29 220.362 183.136 190.754 183.136 154.231C183.136 117.708 161.29 88.0999 134.34 88.0999C107.391 88.0999 85.5444 117.708 85.5444 154.231C85.5444 190.754 107.391 220.362 134.34 220.362Z" fill="#F0B160"/>
<path d="M413.05 201.017C432.106 181.961 426.618 145.578 400.792 119.752C374.966 93.926 338.582 88.438 319.526 107.494C300.47 126.55 305.958 162.934 331.784 188.76C357.61 214.585 393.994 220.073 413.05 201.017Z" fill="#F0B160"/>
<path d="M244.147 205.764C226.203 223.708 198.735 225.333 182.797 209.395C166.859 193.457 168.484 165.989 186.428 148.045C204.372 130.101 248.94 111.375 264.879 127.314C280.818 143.253 262.091 187.82 244.147 205.764Z" fill="#E6C6AE"/>
<path d="M326.632 386.81H185.368C150.823 386.81 117.088 376.351 88.6027 356.809C60.1171 337.267 38.216 309.558 25.7815 277.329L1.68153 214.864C0.234147 211.113 -0.27801 207.065 0.189317 203.072C0.656645 199.078 2.0894 195.259 4.36377 191.943C6.63813 188.627 9.6857 185.915 13.2431 184.041C16.8005 182.167 20.7607 181.187 24.7815 181.187H487.213C491.233 181.187 495.194 182.167 498.751 184.041C502.308 185.915 505.356 188.627 507.63 191.943C509.905 195.259 511.337 199.078 511.805 203.072C512.272 207.065 511.76 211.113 510.313 214.864L486.213 277.329C473.779 309.557 451.878 337.266 423.394 356.808C394.909 376.35 361.175 386.809 326.632 386.81Z" fill="#FECE00"/>
<path d="M24.7854 181.186C20.7646 181.187 16.8044 182.166 13.247 184.04C9.6896 185.914 6.64204 188.626 4.36767 191.942C2.09331 195.258 0.660551 199.077 0.193223 203.071C-0.274104 207.064 0.238053 211.112 1.68544 214.863L25.7854 277.328C38.2191 309.557 60.1194 337.266 88.6043 356.808C117.089 376.35 150.823 386.81 185.367 386.811H189.479C134.699 345.169 117.227 229.836 121.274 181.186H24.7854Z" fill="#FDC464"/>
<path d="M487.212 181.186H24.7864C20.7657 181.187 16.8056 182.166 13.2484 184.041C9.69109 185.915 6.64363 188.627 4.36931 191.942C2.09499 195.258 0.662215 199.078 0.19478 203.071C-0.272656 207.065 0.239312 211.112 1.68644 214.863L15.7144 251.222C25.381 254.441 35.7813 254.744 45.6188 252.093C55.4563 249.441 64.2958 243.953 71.0354 236.312C71.77 235.484 72.6718 234.821 73.6813 234.367C74.6908 233.913 75.7851 233.679 76.8919 233.679C77.9988 233.679 79.0931 233.913 80.1026 234.367C81.1121 234.821 82.0139 235.484 82.7484 236.312C87.6188 241.834 93.6082 246.256 100.319 249.285C107.03 252.314 114.308 253.88 121.67 253.88C129.033 253.88 136.311 252.314 143.022 249.285C149.733 246.256 155.722 241.834 160.592 236.312C161.327 235.484 162.229 234.821 163.238 234.367C164.248 233.913 165.342 233.679 166.449 233.679C167.556 233.679 168.65 233.913 169.66 234.367C170.669 234.821 171.571 235.484 172.305 236.312C177.176 241.834 183.165 246.256 189.876 249.285C196.587 252.314 203.865 253.88 211.227 253.88C218.59 253.88 225.868 252.314 232.579 249.285C239.29 246.256 245.279 241.834 250.149 236.312C250.884 235.484 251.786 234.821 252.795 234.367C253.805 233.913 254.899 233.679 256.006 233.679C257.113 233.679 258.207 233.913 259.217 234.367C260.226 234.821 261.128 235.484 261.862 236.312C266.733 241.834 272.722 246.256 279.433 249.285C286.144 252.314 293.422 253.88 300.784 253.88C308.147 253.88 315.425 252.314 322.136 249.285C328.847 246.256 334.836 241.834 339.706 236.312C340.441 235.484 341.343 234.821 342.352 234.367C343.362 233.913 344.456 233.679 345.563 233.679C346.67 233.679 347.764 233.913 348.774 234.367C349.783 234.821 350.685 235.484 351.419 236.312C356.29 241.834 362.279 246.256 368.99 249.285C375.701 252.314 382.979 253.88 390.341 253.88C397.704 253.88 404.982 252.314 411.693 249.285C418.404 246.256 424.393 241.834 429.263 236.312C429.998 235.484 430.9 234.821 431.909 234.367C432.919 233.913 434.013 233.679 435.12 233.679C436.227 233.679 437.321 233.913 438.331 234.367C439.34 234.821 440.242 235.484 440.976 236.312C447.716 243.953 456.556 249.441 466.393 252.093C476.231 254.744 486.631 254.441 496.297 251.222L510.325 214.863C511.772 211.111 512.283 207.063 511.815 203.068C511.346 199.074 509.912 195.254 507.636 191.939C505.361 188.623 502.312 185.911 498.754 184.038C495.195 182.164 491.234 181.186 487.212 181.186Z" fill="#4CC7B3"/>
<path d="M24.7864 181.186C20.7657 181.187 16.8056 182.166 13.2484 184.041C9.69109 185.915 6.64363 188.627 4.36931 191.942C2.09499 195.258 0.662215 199.078 0.19478 203.071C-0.272656 207.065 0.239312 211.112 1.68644 214.863L15.7144 251.222C25.381 254.441 35.7813 254.744 45.6188 252.093C55.4563 249.441 64.2958 243.953 71.0354 236.312C71.77 235.484 72.6718 234.821 73.6813 234.367C74.6908 233.913 75.7851 233.679 76.8919 233.679C77.9988 233.679 79.0931 233.913 80.1026 234.367C81.1121 234.821 82.0139 235.484 82.7484 236.312C87.6128 241.84 93.6003 246.267 100.311 249.298C107.023 252.328 114.303 253.893 121.666 253.886C123.166 253.886 124.641 253.804 126.107 253.679C121.169 225.207 119.807 198.822 121.276 181.192L24.7864 181.186Z" fill="#2AAC92"/>
</svg>
