<svg width="512" height="512" viewBox="0 0 512 512" fill="none" xmlns="http://www.w3.org/2000/svg">
<path d="M88.1182 132.73V161.145C88.1465 165.451 89.5916 169.628 92.2304 173.031C94.8691 176.434 98.5548 178.873 102.718 179.973C114.323 183.172 124.557 190.09 131.85 199.667C139.143 209.243 143.093 220.947 143.093 232.984C143.093 245.022 139.143 256.726 131.85 266.302C124.557 275.879 114.323 282.797 102.718 285.996C98.5548 287.096 94.8691 289.535 92.2304 292.938C89.5916 296.341 88.1465 300.518 88.1182 304.824V335.957H423.946V158.8C423.947 151.604 422.531 144.478 419.777 137.829C417.024 131.181 412.988 125.14 407.9 120.051C402.812 114.962 396.771 110.926 390.123 108.172C383.475 105.417 376.349 104 369.153 104H116.853C113.08 103.999 109.343 104.742 105.857 106.186C102.371 107.629 99.2034 109.745 96.535 112.413C93.8667 115.081 91.75 118.249 90.3059 121.735C88.8617 125.22 88.1183 128.957 88.1182 132.73Z" fill="#FECE00"/>
<path d="M204.601 104H116.851C109.232 104 101.924 107.027 96.5362 112.415C91.1483 117.803 88.1214 125.11 88.1211 132.73V161.145C88.1494 165.451 89.5945 169.628 92.2333 173.031C94.8721 176.434 98.5577 178.873 102.721 179.973C114.325 183.172 124.56 190.09 131.853 199.667C139.146 209.243 143.096 220.947 143.096 232.984C143.096 245.022 139.146 256.726 131.853 266.302C124.56 275.879 114.325 282.797 102.721 285.996C98.5571 287.094 94.8708 289.534 92.2319 292.937C89.5929 296.34 88.1483 300.518 88.1211 304.824V335.953H208.901C210.51 276.653 224.366 235.844 230.772 191.715C236.868 149.742 219.208 120.426 204.601 104Z" fill="#FEE333"/>
<path d="M274.231 181.648C274.233 190.243 271.686 198.646 266.911 205.794C262.137 212.941 255.351 218.513 247.41 221.803C239.47 225.094 230.732 225.956 222.301 224.28C213.871 222.604 206.127 218.466 200.048 212.389C193.97 206.312 189.83 198.568 188.153 190.138C186.475 181.708 187.335 172.97 190.624 165.029C193.913 157.088 199.483 150.3 206.63 145.524C213.776 140.749 222.179 138.2 230.774 138.2C242.298 138.2 253.35 142.778 261.499 150.925C269.649 159.073 274.228 170.124 274.231 181.648Z" fill="#FEE333"/>
<path d="M371.579 245.762C371.58 250.862 370.068 255.848 367.236 260.088C364.403 264.329 360.376 267.635 355.665 269.587C350.953 271.539 345.768 272.05 340.766 271.056C335.764 270.062 331.169 267.606 327.563 264C323.956 260.394 321.5 255.8 320.505 250.798C319.51 245.796 320.02 240.611 321.972 235.899C323.923 231.188 327.228 227.16 331.468 224.327C335.709 221.493 340.694 219.981 345.794 219.981C352.632 219.981 359.19 222.697 364.025 227.532C368.861 232.367 371.578 238.924 371.579 245.762Z" fill="#FEE333"/>
<path d="M365.122 154.117C365.122 157.266 364.187 160.344 362.437 162.962C360.687 165.58 358.2 167.62 355.29 168.824C352.381 170.029 349.18 170.343 346.091 169.728C343.003 169.114 340.166 167.597 337.94 165.37C335.714 163.143 334.198 160.306 333.584 157.217C332.97 154.129 333.286 150.927 334.491 148.018C335.696 145.109 337.737 142.623 340.356 140.873C342.974 139.124 346.052 138.191 349.201 138.191C351.293 138.191 353.363 138.603 355.295 139.404C357.227 140.204 358.982 141.377 360.461 142.856C361.939 144.335 363.112 146.091 363.912 148.023C364.711 149.955 365.123 152.026 365.122 154.117Z" fill="#FEE333"/>
<path d="M241.056 280.5C241.057 284.502 239.871 288.414 237.648 291.742C235.425 295.07 232.265 297.664 228.568 299.197C224.871 300.729 220.802 301.13 216.877 300.35C212.952 299.57 209.346 297.643 206.516 294.813C203.686 291.984 201.758 288.379 200.977 284.454C200.196 280.528 200.596 276.46 202.127 272.762C203.659 269.065 206.252 265.904 209.579 263.681C212.907 261.457 216.819 260.27 220.821 260.27C226.187 260.271 231.332 262.402 235.127 266.196C238.921 269.989 241.054 275.134 241.056 280.5Z" fill="#FEE333"/>
<path d="M489.314 333.555H22.6892C18.7462 333.555 14.8714 334.584 11.448 336.541C8.02464 338.497 5.17113 341.313 3.16961 344.71C1.16808 348.108 0.0878387 351.969 0.0356746 355.911C-0.0164896 359.854 0.961229 363.742 2.87218 367.191L15.0952 389.242C18.2332 394.904 22.8297 399.623 28.4074 402.908C33.9851 406.194 40.3407 407.926 46.8142 407.926H465.185C471.659 407.926 478.015 406.194 483.593 402.908C489.172 399.623 493.769 394.904 496.908 389.242L509.127 367.191C511.039 363.742 512.017 359.854 511.966 355.912C511.914 351.969 510.835 348.108 508.833 344.711C506.832 341.313 503.979 338.497 500.555 336.54C497.132 334.584 493.257 333.555 489.314 333.555Z" fill="#D4F1F4"/>
<path d="M175.157 389.242L162.934 367.191C161.023 363.742 160.046 359.854 160.098 355.911C160.15 351.969 161.23 348.108 163.232 344.711C165.233 341.313 168.086 338.497 171.509 336.541C174.933 334.584 178.807 333.554 182.75 333.554H22.6892C18.7461 333.554 14.8712 334.583 11.4477 336.54C8.02413 338.496 5.17052 341.312 3.16897 344.71C1.16741 348.107 0.0872178 351.968 0.0351768 355.911C-0.0168641 359.854 0.961051 363.742 2.87224 367.191L15.0952 389.242C18.233 394.905 22.8293 399.624 28.407 402.91C33.9847 406.196 40.3404 407.93 46.8142 407.93H206.876C200.403 407.929 194.047 406.195 188.47 402.909C182.892 399.623 178.296 394.904 175.157 389.242Z" fill="#BEE8EA"/>
<path d="M200.587 280.5C200.588 284.23 201.619 287.887 203.566 291.068C205.513 294.249 208.301 296.83 211.622 298.527C213.2 285.097 215.306 272.527 217.587 260.527C212.845 261.298 208.531 263.731 205.417 267.39C202.303 271.048 200.591 275.695 200.587 280.5Z" fill="#FECE00"/>
<path d="M225.532 138.5C215.05 139.774 205.391 144.82 198.358 152.696C191.325 160.572 187.399 170.739 187.315 181.298C187.231 191.857 190.994 202.085 197.9 210.072C204.807 218.06 214.385 223.259 224.845 224.7C227.083 213.688 229.165 202.8 230.775 191.712C233.801 170.844 230.954 153.09 225.532 138.5Z" fill="#FECE00"/>
</svg>
