<svg width="513" height="512" viewBox="0 0 513 512" fill="none" xmlns="http://www.w3.org/2000/svg">
<path d="M200.282 379.389H394.082C414.491 379.39 434.576 374.286 452.509 364.542C470.441 354.797 485.652 340.722 496.755 323.598C503.966 312.475 507.803 299.503 507.801 286.247C507.8 272.991 503.961 260.019 496.747 248.898C485.486 231.536 470.41 216.973 452.668 206.319C434.926 195.665 414.986 189.202 394.368 187.421C355.088 184.025 316.995 172.237 282.661 152.855L258.261 139.078C236.531 126.809 211.189 122.544 186.64 127.024C162.091 131.504 139.888 144.445 123.892 163.598C104.152 187.236 92.6256 216.648 91.0503 247.405C89.4751 278.162 97.9358 308.598 115.158 334.129C124.558 348.065 137.236 359.479 152.078 367.371C166.92 375.262 183.473 379.389 200.282 379.389Z" fill="#D2996F"/>
<path d="M348.86 379.389C252.989 350.698 229.071 241.869 287.032 155.237C285.571 154.448 284.11 153.667 282.665 152.85L258.265 139.073C236.534 126.804 211.19 122.539 186.64 127.02C162.091 131.5 139.888 144.443 123.892 163.598C104.152 187.237 92.6265 216.649 91.0513 247.405C89.4761 278.162 97.9362 308.597 115.158 334.129C124.559 348.064 137.237 359.478 152.079 367.369C166.921 375.26 183.473 379.387 200.283 379.387H348.86V379.389Z" fill="#C47B46"/>
<path d="M26.2591 91.8339C26.8633 85.7879 29.7005 80.1844 34.2161 76.1189C38.765 72.0165 44.6836 69.7634 50.809 69.8025C56.9344 69.8416 62.8238 72.1699 67.32 76.33C71.8162 80.4901 74.5942 86.1813 75.108 92.2852C75.6219 98.3892 73.8345 104.465 70.0971 109.318C69.5519 109.993 69.2738 110.845 69.3157 111.711C69.3575 112.578 69.7164 113.399 70.3241 114.018L120.57 164.268L95.3941 189.448L45.1421 139.198C44.5218 138.592 43.7011 138.235 42.8352 138.193C41.9692 138.151 41.1179 138.428 40.4421 138.971C35.5623 142.727 29.4487 144.511 23.3147 143.969C17.1807 143.427 11.4746 140.598 7.32911 136.045C3.26708 131.523 1.01325 125.663 0.998124 119.584C0.982997 113.505 3.20763 107.634 7.24711 103.092C11.311 98.5742 16.9153 95.7365 22.9621 95.1349C23.8071 95.0468 24.5961 94.6707 25.1965 94.0695C25.7968 93.4684 26.1721 92.679 26.2591 91.8339Z" fill="#F2D98D"/>
<path d="M123.259 150.76C117.765 145.314 110.337 142.266 102.601 142.283C94.8643 142.3 87.4498 145.381 81.9794 150.851C76.5091 156.322 73.4283 163.736 73.4112 171.472C73.3941 179.209 76.4421 186.637 81.8883 192.131C119.646 229.893 101.001 262.291 133.22 294.51C139.289 300.578 146.493 305.392 154.421 308.676C162.35 311.96 170.847 313.65 179.429 313.65C188.011 313.65 196.509 311.96 204.437 308.676C212.366 305.392 219.57 300.578 225.638 294.51C231.707 288.442 236.52 281.238 239.804 273.309C243.088 265.381 244.779 256.883 244.779 248.301C244.779 239.719 243.088 231.222 239.804 223.293C236.52 215.364 231.707 208.16 225.638 202.092C193.415 169.873 161.017 188.521 123.259 150.76Z" fill="#D2996F"/>
<path d="M400.385 335.853H347.768C341.939 335.853 336.206 334.383 331.097 331.578C325.988 328.774 321.669 324.726 318.54 319.809C315.412 314.892 313.574 309.265 313.198 303.449C312.822 297.633 313.919 291.816 316.389 286.537L342.377 230.955C343.559 228.426 345.639 226.427 348.213 225.346C350.787 224.266 353.671 224.181 356.304 225.109C358.937 226.036 361.131 227.909 362.46 230.365C363.789 232.82 364.157 235.681 363.494 238.393L352.65 282.748C352.29 284.216 352.269 285.746 352.588 287.222C352.907 288.699 353.558 290.084 354.491 291.273C355.423 292.462 356.614 293.423 357.973 294.084C359.331 294.744 360.823 295.088 362.334 295.088H400.385C405.79 295.088 410.975 297.235 414.797 301.058C418.62 304.88 420.768 310.065 420.768 315.471C420.768 320.877 418.62 326.061 414.797 329.884C410.975 333.706 405.79 335.854 400.385 335.854V335.853Z" fill="#C47B46"/>
<path d="M492.845 410.623H91.3921C87.9172 410.624 84.5232 409.574 81.656 407.61C78.7887 405.647 76.5822 402.863 75.3261 399.623L71.7971 390.541C71.3159 389.3 71.1444 387.96 71.2975 386.638C71.4507 385.315 71.9238 384.05 72.676 382.952C73.4281 381.854 74.4366 380.955 75.6142 380.334C76.7918 379.713 78.1029 379.389 79.4341 379.389H504.797C506.128 379.389 507.439 379.713 508.617 380.334C509.795 380.955 510.803 381.854 511.555 382.952C512.307 384.05 512.78 385.315 512.934 386.638C513.087 387.96 512.915 389.3 512.434 390.541L508.911 399.623C507.655 402.863 505.448 405.647 502.581 407.61C499.714 409.574 496.32 410.624 492.845 410.623Z" fill="#EFD176"/>
<path d="M294.177 379.389H79.4381C78.1066 379.388 76.7949 379.712 75.6168 380.333C74.4388 380.953 73.4297 381.852 72.6771 382.95C71.9245 384.049 71.451 385.314 71.2977 386.637C71.1443 387.959 71.3157 389.299 71.7971 390.541L75.3201 399.623C76.5769 402.862 78.7836 405.646 81.6507 407.609C84.5178 409.572 87.9113 410.623 91.3861 410.623H300.897C294.052 403.959 289.325 393.475 294.177 379.389Z" fill="#E3B72E"/>
<path d="M481.697 410.623H102.544L109.306 426.764C111.585 432.199 115.418 436.84 120.325 440.103C125.232 443.367 130.995 445.108 136.888 445.108H447.352C453.245 445.108 459.006 443.367 463.913 440.104C468.82 436.84 472.652 432.199 474.93 426.764L481.697 410.623Z" fill="#E3748E"/>
<path d="M102.544 410.623L109.306 426.764C111.585 432.199 115.418 436.84 120.325 440.103C125.232 443.367 130.995 445.108 136.888 445.108H272.212C262.212 436.749 260.091 422.569 263.298 410.628H102.544V410.623Z" fill="#DE5C6E"/>
<path d="M343.927 144.342C342.444 144.341 340.996 143.9 339.763 143.076C338.531 142.252 337.571 141.081 337.004 139.711C336.437 138.342 336.288 136.835 336.577 135.381C336.866 133.927 337.579 132.591 338.627 131.542C343.336 126.822 345.98 120.426 345.98 113.759C345.98 107.092 343.336 100.696 338.627 95.976C331.108 88.4408 326.885 78.2305 326.885 67.5855C326.885 56.9405 331.108 46.7302 338.627 39.195C340.044 37.8445 341.933 37.1017 343.891 37.1253C345.849 37.1489 347.719 37.937 349.104 39.3212C350.488 40.7055 351.276 42.5761 351.3 44.5337C351.324 46.4913 350.581 48.3806 349.231 49.798C344.522 54.5184 341.878 60.9136 341.878 67.581C341.878 74.2484 344.522 80.6436 349.231 85.364C356.75 92.8992 360.973 103.109 360.973 113.755C360.973 124.4 356.75 134.61 349.231 142.145C348.535 142.843 347.708 143.396 346.798 143.773C345.888 144.15 344.912 144.344 343.927 144.342Z" fill="#F2D98D"/>
<path d="M402.997 144.342C401.515 144.341 400.066 143.9 398.834 143.076C397.602 142.252 396.641 141.081 396.074 139.711C395.507 138.342 395.359 136.835 395.648 135.381C395.936 133.927 396.65 132.591 397.697 131.542C402.406 126.822 405.05 120.426 405.05 113.759C405.05 107.092 402.406 100.696 397.697 95.9759C390.18 88.4399 385.958 78.2299 385.958 67.5854C385.958 56.941 390.18 46.731 397.697 39.1949C399.117 37.8605 401.001 37.1313 402.95 37.1618C404.899 37.1923 406.759 37.9801 408.137 39.3583C409.515 40.7366 410.302 42.597 410.332 44.5456C410.362 46.4943 409.632 48.378 408.297 49.7979C403.588 54.5183 400.944 60.9135 400.944 67.5809C400.944 74.2484 403.588 80.6436 408.297 85.3639C415.816 92.8991 420.039 103.109 420.039 113.754C420.039 124.399 415.816 134.61 408.297 142.145C407.602 142.842 406.776 143.395 405.866 143.772C404.957 144.15 403.982 144.343 402.997 144.342Z" fill="#F2D98D"/>
<path d="M159.048 269.24C159.048 270.715 158.61 272.157 157.791 273.383C156.972 274.609 155.807 275.565 154.444 276.13C153.082 276.694 151.583 276.842 150.136 276.554C148.689 276.266 147.361 275.556 146.318 274.513C145.275 273.47 144.565 272.142 144.277 270.695C143.989 269.248 144.137 267.749 144.701 266.387C145.266 265.024 146.222 263.859 147.448 263.04C148.674 262.221 150.116 261.783 151.591 261.783C153.568 261.784 155.465 262.57 156.863 263.968C158.261 265.366 159.047 267.263 159.048 269.24Z" fill="#C47B46"/>
<path d="M193.349 284.154C193.349 285.629 192.911 287.071 192.092 288.297C191.272 289.523 190.108 290.479 188.745 291.043C187.383 291.608 185.883 291.755 184.437 291.468C182.99 291.18 181.662 290.47 180.619 289.427C179.576 288.384 178.866 287.055 178.578 285.609C178.29 284.162 178.438 282.663 179.002 281.3C179.567 279.938 180.522 278.773 181.749 277.954C182.975 277.134 184.417 276.697 185.892 276.697C186.871 276.697 187.841 276.89 188.745 277.264C189.65 277.639 190.472 278.188 191.165 278.881C191.857 279.573 192.407 280.395 192.781 281.3C193.156 282.205 193.349 283.175 193.349 284.154Z" fill="#C47B46"/>
<path d="M181.72 248.318C181.72 249.793 181.282 251.235 180.463 252.461C179.644 253.687 178.479 254.643 177.116 255.207C175.754 255.772 174.254 255.92 172.808 255.632C171.361 255.344 170.033 254.634 168.99 253.591C167.947 252.548 167.237 251.219 166.949 249.773C166.661 248.326 166.809 246.827 167.373 245.464C167.938 244.102 168.893 242.937 170.12 242.118C171.346 241.298 172.788 240.861 174.263 240.861C175.242 240.861 176.212 241.054 177.116 241.428C178.021 241.803 178.843 242.352 179.536 243.045C180.228 243.737 180.778 244.559 181.152 245.464C181.527 246.369 181.72 247.339 181.72 248.318Z" fill="#C47B46"/>
<path d="M252.235 350.518C252.235 351.993 251.798 353.435 250.979 354.661C250.159 355.887 248.995 356.843 247.632 357.407C246.269 357.972 244.77 358.119 243.324 357.832C241.877 357.544 240.548 356.834 239.505 355.791C238.463 354.748 237.752 353.419 237.465 351.973C237.177 350.526 237.325 349.027 237.889 347.664C238.453 346.302 239.409 345.137 240.635 344.318C241.862 343.498 243.303 343.061 244.778 343.061C245.758 343.061 246.727 343.254 247.632 343.628C248.537 344.003 249.359 344.552 250.051 345.245C250.744 345.937 251.293 346.759 251.668 347.664C252.043 348.569 252.235 349.539 252.235 350.518Z" fill="#D2996F"/>
<path d="M433.372 240.861C433.372 242.336 432.935 243.778 432.115 245.004C431.296 246.23 430.131 247.186 428.769 247.75C427.406 248.315 425.907 248.462 424.46 248.175C423.014 247.887 421.685 247.177 420.642 246.134C419.599 245.091 418.889 243.762 418.601 242.316C418.314 240.869 418.461 239.37 419.026 238.007C419.59 236.645 420.546 235.48 421.772 234.661C422.998 233.841 424.44 233.404 425.915 233.404C427.893 233.405 429.789 234.19 431.187 235.589C432.586 236.987 433.371 238.883 433.372 240.861Z" fill="#C47B46"/>
<path d="M472.247 261.783C472.247 263.258 471.81 264.7 470.99 265.926C470.171 267.152 469.006 268.108 467.644 268.672C466.281 269.237 464.782 269.384 463.335 269.097C461.889 268.809 460.56 268.099 459.517 267.056C458.474 266.013 457.764 264.684 457.476 263.238C457.189 261.791 457.336 260.292 457.901 258.929C458.465 257.567 459.421 256.402 460.647 255.583C461.873 254.763 463.315 254.326 464.79 254.326C465.769 254.326 466.739 254.519 467.644 254.893C468.549 255.268 469.371 255.817 470.063 256.51C470.756 257.202 471.305 258.024 471.68 258.929C472.054 259.834 472.247 260.804 472.247 261.783Z" fill="#C47B46"/>
</svg>
