<svg width="512" height="512" viewBox="0 0 512 512" fill="none" xmlns="http://www.w3.org/2000/svg">
<path d="M98.2359 158.363L26.1309 230.473C23.2358 233.368 20.9392 236.805 19.3723 240.587C17.8055 244.37 16.999 248.424 16.999 252.518C16.999 256.612 17.8055 260.666 19.3723 264.449C20.9392 268.231 23.2358 271.668 26.1309 274.563L254.431 502.863C257.326 505.758 260.763 508.055 264.545 509.622C268.328 511.188 272.382 511.995 276.476 511.995C280.57 511.995 284.624 511.188 288.407 509.622C292.189 508.055 295.626 505.758 298.521 502.863L442.537 358.859C448.384 353.012 451.669 345.081 451.669 336.812C451.669 328.543 448.384 320.612 442.537 314.765L296.721 168.949C294.033 166.26 290.62 164.412 286.899 163.632C283.177 162.852 279.309 163.174 275.768 164.558C206.655 191.601 158.737 180.722 123.068 156.011C119.307 153.438 114.763 152.264 110.226 152.694C105.69 153.123 101.447 155.129 98.2359 158.363Z" fill="#D2996F"/>
<path d="M116.936 153.207C113.639 152.371 110.182 152.407 106.904 153.311C103.625 154.215 100.638 155.956 98.2359 158.363L26.1309 230.473C23.2358 233.368 20.9392 236.805 19.3723 240.587C17.8055 244.37 16.999 248.424 16.999 252.518C16.999 256.612 17.8055 260.666 19.3723 264.449C20.9392 268.231 23.2358 271.668 26.1309 274.563L123.592 372.024C98.3979 306.527 90.2359 216.734 116.936 153.207Z" fill="#C47B46"/>
<path d="M156.482 264.844L120.392 300.934C117.146 304.18 112.744 306.003 108.153 306.003C103.563 306.003 99.161 304.18 95.9149 300.934L59.8289 264.844C58.2208 263.238 56.9451 261.33 56.0747 259.23C55.2043 257.13 54.7563 254.879 54.7563 252.606C54.7563 250.333 55.2043 248.082 56.0747 245.982C56.9451 243.882 58.2208 241.974 59.8289 240.367L95.9149 204.277C99.161 201.032 103.563 199.209 108.153 199.209C112.744 199.209 117.146 201.032 120.392 204.277L156.482 240.367C159.727 243.613 161.55 248.016 161.55 252.606C161.55 257.196 159.727 261.598 156.482 264.844Z" fill="#C47B46"/>
<path d="M240.598 348.961L204.512 385.051C201.266 388.296 196.864 390.12 192.273 390.12C187.683 390.12 183.281 388.296 180.035 385.051L143.945 348.961C140.7 345.715 138.876 341.313 138.876 336.723C138.876 332.132 140.7 327.73 143.945 324.484L180.035 288.398C181.642 286.79 183.549 285.514 185.649 284.644C187.749 283.773 190 283.325 192.273 283.325C194.547 283.325 196.798 283.773 198.897 284.644C200.997 285.514 202.905 286.79 204.512 288.398L240.598 324.484C242.206 326.091 243.482 327.999 244.352 330.099C245.223 332.198 245.671 334.449 245.671 336.723C245.671 338.996 245.223 341.247 244.352 343.347C243.482 345.447 242.206 347.354 240.598 348.961Z" fill="#C47B46"/>
<path d="M324.721 264.844L288.631 300.934C285.385 304.18 280.983 306.003 276.392 306.003C271.802 306.003 267.4 304.18 264.154 300.934L228.068 264.844C226.46 263.238 225.184 261.33 224.314 259.23C223.443 257.13 222.995 254.879 222.995 252.606C222.995 250.333 223.443 248.082 224.314 245.982C225.184 243.882 226.46 241.974 228.068 240.367L264.154 204.277C267.4 201.032 271.802 199.209 276.392 199.209C280.983 199.209 285.385 201.032 288.631 204.277L324.721 240.367C327.966 243.613 329.789 248.016 329.789 252.606C329.789 257.196 327.966 261.598 324.721 264.844Z" fill="#C47B46"/>
<path d="M324.721 433.082L288.631 469.172C285.385 472.417 280.983 474.24 276.392 474.24C271.802 474.24 267.4 472.417 264.154 469.172L228.068 433.082C226.46 431.475 225.184 429.568 224.314 427.468C223.443 425.368 222.995 423.117 222.995 420.844C222.995 418.57 223.443 416.319 224.314 414.219C225.184 412.119 226.46 410.212 228.068 408.605L264.154 372.515C267.4 369.27 271.802 367.447 276.392 367.447C280.983 367.447 285.385 369.27 288.631 372.515L324.721 408.605C327.966 411.851 329.789 416.253 329.789 420.844C329.789 425.434 327.966 429.836 324.721 433.082Z" fill="#C47B46"/>
<path d="M408.842 348.961L372.752 385.051C369.506 388.296 365.104 390.12 360.513 390.12C355.923 390.12 351.521 388.296 348.275 385.051L312.185 348.961C308.94 345.715 307.116 341.313 307.116 336.723C307.116 332.132 308.94 327.73 312.185 324.484L348.275 288.398C349.882 286.79 351.789 285.514 353.889 284.644C355.989 283.773 358.24 283.325 360.513 283.325C362.787 283.325 365.038 283.773 367.137 284.644C369.237 285.514 371.145 286.79 372.752 288.398L408.842 324.484C412.087 327.73 413.91 332.132 413.91 336.723C413.91 341.313 412.087 345.715 408.842 348.961Z" fill="#C47B46"/>
<path d="M139.123 165.68C138.671 168.391 138.873 171.17 139.712 173.786C140.551 176.403 142.003 178.781 143.947 180.723L180.037 216.813C181.644 218.42 183.552 219.695 185.651 220.564C187.751 221.434 190.001 221.882 192.273 221.882C194.546 221.882 196.796 221.434 198.896 220.564C200.995 219.695 202.903 218.42 204.51 216.813L240.6 180.723C242.325 178.997 243.665 176.924 244.53 174.641C200.744 185.582 166.623 179.852 139.123 165.68Z" fill="#C47B46"/>
<path d="M180.26 31.176V101.938C180.26 103.708 180.646 105.456 181.392 107.062C182.137 108.667 183.224 110.091 184.575 111.233C185.927 112.375 187.512 113.209 189.219 113.676C190.926 114.144 192.715 114.233 194.46 113.938C236.55 106.786 277.694 82.028 307.644 17.333C308.511 15.4788 308.897 13.4357 308.766 11.3928C308.635 9.34993 307.99 7.37313 306.892 5.64528C305.795 3.91743 304.279 2.49432 302.485 1.50758C300.691 0.520838 298.678 0.00232509 296.631 0L211.431 0C203.163 0.00159106 195.235 3.28687 189.39 9.1333C183.544 14.9797 180.26 22.9086 180.26 31.176Z" fill="#D2996F"/>
<path d="M211.084 48.0079V99.047C211.084 102.665 212.224 106.191 214.342 109.125C243.815 99.699 271.99 79.625 295.213 40.9249C293.849 37.88 291.634 35.2945 288.834 33.4802C286.033 31.6659 282.768 30.7004 279.432 30.7H228.393C223.802 30.7 219.4 32.5234 216.154 35.7693C212.908 39.0151 211.084 43.4175 211.084 48.0079Z" fill="#C47B46"/>
<path d="M298.561 126.977V106.067C298.561 104.745 298.898 103.444 299.541 102.288C300.184 101.133 301.111 100.16 302.235 99.4628C303.358 98.7653 304.641 98.3659 305.962 98.3024C307.283 98.2389 308.598 98.5134 309.783 99.0999L329.083 108.659C330.339 109.281 331.403 110.231 332.163 111.409C332.923 112.586 333.351 113.947 333.401 115.347C333.451 116.748 333.121 118.136 332.447 119.365C331.773 120.593 330.779 121.617 329.571 122.327L310.271 133.682C309.09 134.375 307.747 134.744 306.377 134.751C305.008 134.758 303.661 134.404 302.473 133.723C301.284 133.043 300.297 132.061 299.61 130.876C298.923 129.691 298.561 128.346 298.561 126.977Z" fill="#D2996F"/>
<path d="M340.275 48.3001L347.541 67.0301C348.067 68.3861 348.934 69.5834 350.058 70.5059C351.182 71.4284 352.526 72.0448 353.959 72.2955C355.391 72.5462 356.864 72.4226 358.235 71.9367C359.606 71.4508 360.828 70.619 361.783 69.5221L376.963 52.0811C378 50.8898 378.681 49.4317 378.931 47.8724C379.18 46.3131 378.988 44.715 378.374 43.2598C377.761 41.8045 376.752 40.5503 375.462 39.6397C374.172 38.729 372.653 38.1984 371.076 38.1081L348.631 36.8151C347.22 36.7343 345.811 37.009 344.534 37.614C343.256 38.219 342.151 39.135 341.32 40.2779C340.488 41.4208 339.957 42.7542 339.774 44.1557C339.592 45.5573 339.764 46.9823 340.275 48.3001Z" fill="#D2996F"/>
</svg>
