<svg width="512" height="512" viewBox="0 0 512 512" fill="none" xmlns="http://www.w3.org/2000/svg">
<path d="M311.162 133.064C309.94 133.064 308.735 132.774 307.646 132.217C306.558 131.661 305.617 130.855 304.901 129.864C304.184 128.874 303.713 127.728 303.526 126.52C303.339 125.312 303.44 124.077 303.823 122.916L335.545 26.725C335.863 25.7614 336.367 24.8699 337.029 24.1012C337.692 23.3326 338.499 22.702 339.405 22.2454C340.311 21.7887 341.298 21.5151 342.31 21.4399C343.322 21.3648 344.339 21.4897 345.302 21.8075C346.266 22.1253 347.157 22.6298 347.926 23.2921C348.695 23.9545 349.325 24.7617 349.782 25.6678C350.239 26.5738 350.512 27.561 350.587 28.5728C350.663 29.5847 350.538 30.6014 350.22 31.565L318.498 127.756C317.988 129.3 317.005 130.643 315.688 131.596C314.371 132.549 312.787 133.063 311.162 133.064Z" fill="#51D09A"/>
<path d="M255.562 165.585L111.562 203.96L158.782 488.247C159.884 494.883 163.306 500.912 168.437 505.261C173.568 509.611 180.075 511.999 186.802 512H324.32C331.047 512 337.556 509.613 342.688 505.263C347.82 500.913 351.242 494.883 352.344 488.247L399.562 203.96L255.562 165.585Z" fill="#51D09A"/>
<path d="M189.684 488.247L142.462 203.96L271.015 169.7L255.562 165.587L111.562 203.961L158.782 488.248C159.885 494.883 163.306 500.913 168.437 505.262C173.568 509.611 180.076 511.999 186.803 512H217.703C210.977 511.999 204.469 509.611 199.338 505.261C194.207 500.912 190.786 494.882 189.684 488.247Z" fill="#42AA7E"/>
<path d="M379.741 266.234H131.383C129.579 266.234 127.796 266.627 126.158 267.385C124.521 268.144 123.068 269.25 121.901 270.627C120.734 272.003 119.881 273.617 119.4 275.357C118.92 277.096 118.824 278.92 119.119 280.7L140.028 406.582C140.51 409.487 142.007 412.126 144.253 414.031C146.499 415.935 149.348 416.98 152.292 416.98H358.832C361.776 416.98 364.625 415.935 366.871 414.032C369.117 412.128 370.614 409.489 371.096 406.585L392.006 280.7C392.301 278.919 392.205 277.096 391.725 275.357C391.244 273.617 390.391 272.003 389.224 270.626C388.057 269.25 386.604 268.144 384.966 267.385C383.329 266.627 381.546 266.234 379.741 266.234Z" fill="#E3E6E8"/>
<path d="M170.933 406.585L150.023 280.7C149.727 278.919 149.823 277.096 150.303 275.356C150.783 273.616 151.636 272.001 152.803 270.624C153.97 269.247 155.423 268.141 157.061 267.382C158.699 266.624 160.482 266.231 162.287 266.231H131.387C129.582 266.23 127.798 266.623 126.16 267.381C124.521 268.14 123.068 269.246 121.9 270.623C120.733 272 119.879 273.614 119.398 275.355C118.918 277.095 118.822 278.919 119.118 280.7L140.028 406.582C140.51 409.487 142.007 412.126 144.253 414.031C146.499 415.935 149.348 416.98 152.292 416.98H183.192C180.249 416.979 177.402 415.933 175.157 414.03C172.912 412.126 171.416 409.488 170.933 406.585Z" fill="#CCCED0"/>
<path d="M308.742 132.673C309.705 132.991 310.722 133.117 311.735 133.042C312.747 132.967 313.734 132.693 314.64 132.236C315.547 131.779 316.354 131.148 317.016 130.379C317.679 129.61 318.183 128.718 318.5 127.754L335.662 75.7H319.395L303.825 122.912C303.506 123.876 303.381 124.893 303.456 125.905C303.53 126.917 303.804 127.905 304.26 128.811C304.717 129.718 305.348 130.526 306.117 131.188C306.886 131.851 307.778 132.355 308.742 132.673Z" fill="#42AA7E"/>
<path d="M383.062 122.533C381.829 116.579 378.581 111.232 373.866 107.393C369.151 103.555 363.256 101.459 357.176 101.459H153.945C147.865 101.46 141.972 103.556 137.257 107.395C132.542 111.233 129.295 116.58 128.062 122.533L121.795 152.795L255.562 165.585L389.332 152.793L383.062 122.533Z" fill="#E3E6E8"/>
<path d="M152.697 152.795L158.964 122.533C160.197 116.579 163.444 111.232 168.16 107.393C172.875 103.554 178.769 101.458 184.85 101.458H153.95C147.869 101.457 141.974 103.553 137.258 107.392C132.543 111.231 129.295 116.579 128.062 122.533L121.795 152.795L255.562 165.587L271.015 164.109L152.697 152.795Z" fill="#CCCED0"/>
<path d="M389.332 178.377L255.562 165.585L121.792 178.377L111.562 203.96H399.562L389.332 178.377Z" fill="#E3E6E8"/>
<path d="M271.014 167.064L255.562 165.587L121.792 178.377L111.562 203.961H142.462L152.696 178.377L271.014 167.064Z" fill="#CCCED0"/>
<path d="M389.332 152.795H121.792C118.399 152.795 115.146 154.143 112.747 156.542C110.348 158.941 109 162.194 109 165.587C109 168.98 110.348 172.233 112.747 174.632C115.146 177.031 118.399 178.379 121.792 178.379H389.333C392.726 178.379 395.979 177.031 398.378 174.632C400.777 172.233 402.125 168.98 402.125 165.587C402.124 162.194 400.776 158.941 398.377 156.542C395.978 154.143 392.725 152.795 389.332 152.795Z" fill="#CCCED0"/>
<path d="M139.905 165.587C139.906 162.195 141.255 158.943 143.653 156.545C146.052 154.147 149.305 152.8 152.697 152.8H121.792C120.112 152.8 118.449 153.131 116.897 153.774C115.345 154.416 113.935 155.359 112.747 156.546C111.559 157.734 110.617 159.145 109.974 160.697C109.331 162.249 109 163.912 109 165.592C109 167.272 109.331 168.935 109.974 170.487C110.617 172.039 111.559 173.449 112.747 174.637C113.935 175.825 115.345 176.767 116.897 177.41C118.449 178.053 120.112 178.384 121.792 178.384H152.697C151.017 178.384 149.353 178.052 147.801 177.409C146.249 176.766 144.838 175.823 143.651 174.635C142.463 173.446 141.52 172.036 140.878 170.483C140.235 168.931 139.905 167.267 139.905 165.587Z" fill="#B3B5B7"/>
<path d="M359.618 5.98291L342.812 0.569912C341.34 0.0960606 339.789 -0.0832353 338.248 0.042263C336.707 0.167761 335.206 0.595595 333.83 1.30133C332.454 2.00707 331.231 2.97689 330.23 4.15541C329.229 5.33393 328.47 6.69806 327.997 8.16991L318.554 37.4929C318.08 38.9647 317.901 40.5154 318.026 42.0565C318.152 43.5976 318.579 45.0988 319.285 46.4746C319.991 47.8503 320.961 49.0735 322.139 50.0744C323.318 51.0753 324.682 51.8343 326.154 52.3079L342.962 57.7189C344.434 58.1928 345.984 58.3721 347.525 58.2466C349.066 58.1211 350.568 57.6932 351.943 56.9875C353.319 56.2818 354.542 55.3119 355.543 54.1334C356.544 52.9549 357.303 51.5908 357.777 50.1189L367.216 20.7999C367.69 19.3281 367.87 17.7773 367.744 16.2361C367.619 14.6949 367.192 13.1935 366.486 11.8175C365.78 10.4416 364.811 9.21816 363.632 8.21704C362.454 7.21592 361.09 6.45676 359.618 5.98291Z" fill="#42AA7E"/>
</svg>
