<svg width="513" height="512" viewBox="0 0 513 512" fill="none" xmlns="http://www.w3.org/2000/svg">
<path d="M379.208 437.209C384.288 432.129 388.263 426.054 390.885 419.364C393.506 412.675 394.717 405.517 394.442 398.338C394.166 391.158 392.41 384.114 389.284 377.645C386.157 371.177 381.728 365.424 376.274 360.748L194.989 205.334L147.333 252.99L302.751 434.275C307.426 439.729 313.179 444.158 319.647 447.285C326.115 450.411 333.16 452.167 340.338 452.443C347.517 452.718 354.675 451.507 361.364 448.886C368.053 446.264 374.128 442.289 379.208 437.209Z" fill="#89D47F"/>
<path d="M183.701 295.402L270.411 396.553L332.946 323.602L241.876 245.524L183.701 295.402Z" fill="#5EC783"/>
<path d="M197.017 255.018C179.989 272.043 156.896 281.607 132.817 281.607C108.738 281.607 85.6446 272.043 68.6168 255.018C-4.14024 182.26 -12.7692 105.084 17.1568 75.1581C47.0828 45.2321 124.257 53.8581 197.016 126.615C214.042 143.643 223.607 166.737 223.607 190.816C223.607 214.896 214.043 237.99 197.017 255.018Z" fill="#F7EF87"/>
<path d="M17.1569 75.1582C-12.7691 105.084 -4.14314 182.258 68.6139 255.017C79.8129 266.222 93.7508 274.3 109.041 278.446C124.331 282.592 140.44 282.663 155.766 278.65C99.3249 246.045 65.0279 140.471 89.1099 61.9552C57.8369 55.0962 31.8209 60.4942 17.1569 75.1582Z" fill="#EFD176"/>
<path d="M171.567 229.565C181.83 219.281 187.594 205.345 187.594 190.815C187.594 176.286 181.83 162.35 171.567 152.065C143.044 123.542 111.532 104.135 82.8369 97.4282C62.2079 92.6082 50.7939 98.9672 45.8839 103.877C40.9739 108.787 34.6059 120.202 39.4309 140.834C46.1379 169.525 65.5399 201.034 94.0679 229.564C104.353 239.826 118.288 245.589 132.817 245.59C147.346 245.59 161.282 239.827 171.567 229.565Z" fill="#EFD176"/>
<path d="M119.466 243.947C92.5359 205.842 77.3009 149.178 82.2349 97.3022C61.9849 92.7402 50.7429 99.0172 45.8799 103.88C40.9659 108.791 34.6059 120.202 39.4309 140.834C46.1379 169.525 65.5399 201.034 94.0679 229.564C101.067 236.581 109.849 241.554 119.466 243.947Z" fill="#E3B72E"/>
<path d="M347.356 412.857C346.371 412.858 345.396 412.664 344.486 412.286C343.577 411.909 342.751 411.355 342.056 410.657L309.626 378.231C308.93 377.534 308.377 376.708 308.001 375.797C307.624 374.887 307.43 373.912 307.43 372.927C307.43 371.942 307.625 370.967 308.002 370.057C308.379 369.147 308.931 368.32 309.628 367.624C310.325 366.928 311.151 366.375 312.062 365.999C312.972 365.622 313.947 365.428 314.932 365.428C315.917 365.428 316.892 365.623 317.802 366C318.712 366.377 319.539 366.929 320.235 367.626L352.661 400.052C353.709 401.101 354.422 402.437 354.711 403.891C354.999 405.345 354.851 406.852 354.284 408.221C353.717 409.591 352.756 410.762 351.524 411.586C350.292 412.41 348.843 412.851 347.361 412.852L347.356 412.857Z" fill="#F7EF87"/>
<path d="M135.267 437.209C140.347 442.289 146.422 446.264 153.112 448.886C159.801 451.507 166.959 452.718 174.138 452.443C181.317 452.167 188.362 450.411 194.831 447.285C201.299 444.159 207.052 439.729 211.728 434.275L367.142 252.99L319.486 205.334L138.201 360.748C132.747 365.424 128.318 371.177 125.192 377.646C122.066 384.114 120.31 391.159 120.035 398.338C119.759 405.517 120.97 412.675 123.591 419.364C126.213 426.053 130.188 432.128 135.267 437.209Z" fill="#A3DEFE"/>
<path d="M167.118 412.857C165.636 412.856 164.187 412.415 162.955 411.591C161.722 410.767 160.762 409.596 160.195 408.226C159.628 406.857 159.479 405.35 159.768 403.896C160.057 402.442 160.77 401.106 161.818 400.057L194.244 367.631C194.94 366.935 195.767 366.382 196.677 366.005C197.587 365.628 198.562 365.434 199.547 365.433C200.532 365.433 201.507 365.627 202.417 366.004C203.327 366.38 204.154 366.933 204.851 367.629C205.548 368.325 206.1 369.152 206.477 370.062C206.854 370.972 207.049 371.947 207.049 372.932C207.049 373.917 206.855 374.893 206.478 375.803C206.102 376.713 205.549 377.54 204.853 378.236L172.423 410.662C171.727 411.359 170.9 411.912 169.989 412.289C169.079 412.666 168.103 412.859 167.118 412.857Z" fill="#8EAFE2"/>
<path d="M411.157 88.7022L362.731 137.123C359.536 140.336 357.745 144.685 357.751 149.217C357.757 153.748 359.56 158.092 362.765 161.297C365.969 164.501 370.313 166.304 374.844 166.31C379.376 166.316 383.725 164.526 386.938 161.33L435.364 112.902C438.574 109.692 442.928 107.889 447.468 107.889C452.008 107.889 456.362 109.693 459.572 112.903C462.782 116.114 464.585 120.468 464.585 125.007C464.585 129.547 462.781 133.901 459.571 137.111L411.145 185.537C407.95 188.75 406.159 193.099 406.165 197.631C406.171 202.162 407.974 206.506 411.179 209.711C414.383 212.915 418.727 214.718 423.258 214.724C427.79 214.73 432.139 212.94 435.352 209.744L483.778 161.322C486.991 158.127 491.34 156.336 495.872 156.342C500.403 156.349 504.747 158.152 507.951 161.356C511.156 164.56 512.959 168.904 512.965 173.436C512.971 177.967 511.18 182.316 507.985 185.529L437.758 255.756C421.683 271.688 399.951 280.605 377.318 280.554C354.685 280.503 332.993 271.49 316.99 255.486C300.986 239.482 291.972 217.79 291.922 195.157C291.871 172.524 300.788 150.793 316.72 134.717L386.946 64.4902C390.157 61.2796 394.511 59.476 399.052 59.4761C403.592 59.4762 407.947 61.28 411.157 64.4907C414.368 67.7014 416.172 72.056 416.172 76.5965C416.172 81.1371 414.368 85.4916 411.157 88.7022Z" fill="#8EAFE2"/>
<path d="M341.911 109.525L316.72 134.717C303.812 147.624 295.369 164.32 292.625 182.367C289.881 200.413 292.979 218.864 301.466 235.025C309.954 251.186 323.386 264.209 339.802 272.193C356.217 280.177 374.755 282.703 392.708 279.402C352.884 244.44 334.11 165.623 341.911 109.525Z" fill="#6A96D7"/>
</svg>
