<svg width="512" height="512" viewBox="0 0 512 512" fill="none" xmlns="http://www.w3.org/2000/svg">
<path d="M488.6 208.67L488.468 208.502C477.231 194.202 471.439 176.376 472.126 158.202L472.133 158.026C472.784 140.836 467.639 123.927 457.523 110.013C447.408 96.0995 432.91 85.9892 416.358 81.3059L416.242 81.2729C398.696 76.3084 383.492 65.2563 373.356 50.0979L373.347 50.0849C363.773 35.7664 349.658 25.0867 333.276 19.7652C316.894 14.4437 299.198 14.7902 283.036 20.7489C265.907 27.0649 247.087 27.0649 229.958 20.7489C213.798 14.7905 196.103 14.4436 179.721 19.7641C163.34 25.0846 149.225 35.7629 139.65 50.0799L139.642 50.0929C129.506 65.2523 114.302 76.3052 96.7552 81.2699L96.6402 81.3029C80.088 85.986 65.5901 96.0963 55.4749 110.01C45.3597 123.924 40.2144 140.833 40.8652 158.023L40.8722 158.2C41.5595 176.374 35.7677 194.2 24.5302 208.5L24.3982 208.668C13.7768 222.185 8.00293 238.877 8.00293 256.068C8.00293 273.259 13.7768 289.951 24.3982 303.468L24.5302 303.636C35.7676 317.935 41.5594 335.762 40.8722 353.936L40.8652 354.112C40.2147 371.301 45.3602 388.211 55.4753 402.125C65.5905 416.038 80.0882 426.148 96.6402 430.832L96.7562 430.865C114.303 435.829 129.507 446.881 139.642 462.04L139.651 462.053C149.226 476.371 163.34 487.051 179.723 492.373C196.105 497.694 213.801 497.348 229.962 491.389C247.091 485.073 265.911 485.073 283.04 491.389C299.202 497.348 316.898 497.694 333.28 492.373C349.662 487.051 363.777 476.371 373.351 462.053L373.359 462.04C383.496 446.883 398.701 435.833 416.246 430.87L416.361 430.837C432.913 426.154 447.411 416.044 457.527 402.13C467.642 388.216 472.787 371.307 472.136 354.117L472.129 353.94C471.442 335.766 477.234 317.939 488.471 303.64L488.603 303.472C499.225 289.955 504.999 273.263 504.999 256.072C504.999 238.881 499.225 222.188 488.603 208.672L488.6 208.67Z" fill="#FFFCDC"/>
<path d="M56.8453 203.522C56.7981 164.337 64.1573 125.497 78.5353 89.0449C66.6209 96.0776 56.8297 106.201 50.1981 118.343C43.5666 130.485 40.3415 144.195 40.8643 158.02L40.8713 158.197C41.5586 176.371 35.7668 194.197 24.5293 208.497L24.3973 208.665C13.7758 222.182 8.00195 238.874 8.00195 256.065C8.00195 273.256 13.7758 289.948 24.3973 303.465L24.5293 303.633C35.7664 317.933 41.5581 335.759 40.8713 353.933L40.8643 354.109C40.2138 371.298 45.3593 388.208 55.4744 402.122C65.5895 416.035 80.0872 426.146 96.6393 430.829L96.7553 430.862C114.301 435.826 129.505 446.879 139.641 462.037L139.65 462.05C149.225 476.369 163.339 487.048 179.722 492.37C196.104 497.691 213.8 497.344 229.961 491.385C233.661 490.028 237.461 488.958 241.325 488.185C132.6 439.503 56.8453 330.364 56.8453 203.522Z" fill="#F8EA69"/>
<path d="M256.5 401.406C336.767 401.406 401.836 336.337 401.836 256.07C401.836 175.803 336.767 110.734 256.5 110.734C176.233 110.734 111.164 175.803 111.164 256.07C111.164 336.337 176.233 401.406 256.5 401.406Z" fill="#F8EA69"/>
<path d="M286.5 371.406C259.566 371.405 233.162 363.92 210.235 349.786C187.307 335.652 168.758 315.425 156.658 291.362C144.557 267.3 139.381 240.348 141.707 213.514C144.033 186.681 153.769 161.022 169.829 139.4C153.069 151.851 139.189 167.767 129.132 186.065C119.076 204.362 113.08 224.612 111.553 245.435C110.025 266.258 113.002 287.166 120.281 306.735C127.559 326.304 138.969 344.075 153.732 358.839C168.496 373.602 186.267 385.012 205.837 392.29C225.406 399.569 246.314 402.546 267.137 401.018C287.96 399.491 308.209 393.495 326.507 383.438C344.804 373.382 360.72 359.501 373.171 342.741C348.131 361.398 317.727 371.454 286.5 371.406Z" fill="#F8AD3E"/>
</svg>
