<svg width="512" height="512" viewBox="0 0 512 512" fill="none" xmlns="http://www.w3.org/2000/svg">
<path d="M182.425 402.422C182.425 402.422 183.339 468.801 157.464 504.022C149.691 514.6 133.898 514.604 125.675 504.374C117.323 493.974 107.866 479.124 104.738 462.358C98.718 430.12 88.57 423.358 88.57 423.358C88.57 423.358 81.804 413.21 49.57 407.186C32.812 404.057 17.961 394.608 7.57003 386.26C5.13621 384.307 3.18771 381.817 1.87722 378.986C0.566743 376.154 -0.0701063 373.057 0.0165911 369.938C0.103289 366.819 0.911177 363.762 2.37694 361.007C3.8427 358.252 5.9265 355.875 8.46503 354.06C43.815 328.594 109.499 329.5 109.499 329.5L182.425 402.422Z" fill="#A6B6C4"/>
<path d="M154.612 395.211C154.612 395.211 155.522 461.59 129.647 496.811C128.092 498.933 126.122 500.717 123.858 502.057C124.467 502.85 125.073 503.622 125.674 504.373C133.897 514.603 149.69 514.6 157.463 504.021C183.338 468.802 182.424 402.421 182.424 402.421L154.612 395.211Z" fill="#96A9BA"/>
<path d="M262.815 71.2341C262.815 71.2341 183.338 61.5341 124.272 113.808C122.873 115.035 121.795 116.586 121.133 118.325C120.471 120.065 120.245 121.94 120.475 123.786C120.704 125.633 121.383 127.396 122.45 128.92C123.518 130.444 124.943 131.684 126.6 132.531C143.959 141.363 172.545 157.758 186.19 175.937L262.815 71.2341Z" fill="#96A9BA"/>
<path d="M137.206 213.941C137.206 213.941 96.8942 223.859 70.7222 253.453C69.3921 254.95 68.433 256.74 67.9222 258.676C67.4114 260.613 67.3634 262.643 67.782 264.601C68.2005 266.56 69.074 268.393 70.3317 269.951C71.5895 271.51 73.1962 272.751 75.0222 273.574C84.2642 277.715 95.8502 285 104.182 297.426L137.206 213.941Z" fill="#A6B6C4"/>
<path d="M297.983 374.715C297.983 374.715 288.065 415.028 258.467 441.199C256.97 442.529 255.18 443.489 253.244 443.999C251.307 444.51 249.277 444.558 247.319 444.14C245.36 443.721 243.527 442.848 241.969 441.59C240.41 440.332 239.169 438.725 238.346 436.899C234.209 427.657 226.924 416.075 214.494 407.743L297.983 374.715Z" fill="#69829A"/>
<path d="M312.944 37.453C363.933 8.13298 413.159 -4.94902 450.099 1.69998C451.33 1.92707 452.469 2.50281 453.382 3.35871C454.294 4.21462 454.942 5.31466 455.247 6.52798L462.392 34.462C462.775 35.9654 463.473 37.37 464.441 38.5823C465.409 39.7946 466.624 40.7867 468.006 41.4927C469.387 42.1986 470.903 42.6021 472.453 42.6763C474.002 42.7505 475.55 42.4937 476.992 41.923L494.137 35.165C495.647 34.5701 497.324 34.5564 498.844 35.1264C500.364 35.6965 501.618 36.8097 502.364 38.251C523.075 77.989 509.325 142.396 468.723 208.657L392.875 236.04L279.222 122.383L312.944 37.453Z" fill="#96A9BA"/>
<path d="M122.399 389.527C71.7229 338.851 112.993 215.418 214.579 113.827C246.208 82.202 279.95 56.427 312.946 37.448C316.885 71.699 329.719 104.323 350.173 132.077L122.399 389.527Z" fill="#69829A"/>
<path d="M502.362 38.246C501.984 37.5209 501.476 36.8719 500.862 36.332C500.563 36.0707 500.241 35.8364 499.901 35.632C499.562 35.431 499.207 35.2597 498.839 35.12C498.468 34.9818 498.087 34.8748 497.699 34.8C497.508 34.769 497.308 34.741 497.113 34.722C496.098 34.6311 495.076 34.7797 494.129 35.156L488.793 37.256C497.688 76.877 482.582 131.791 448.113 188.041C440.211 200.895 431.664 213.341 422.504 225.33L468.719 208.646C484.719 182.529 498.231 154.384 505.953 124.654C514.757 90.758 514.011 60.6 502.362 38.246Z" fill="#69829A"/>
<path d="M468.722 208.652C450.41 238.547 426.632 268.804 398.089 297.352C296.507 398.93 173.069 440.2 122.399 389.527C226.84 181.627 350.172 132.086 350.172 132.086C356.121 140.155 362.668 147.765 369.758 154.852C396.827 182.008 431.213 200.701 468.722 208.652Z" fill="#A6B6C4"/>
<path d="M418.425 69.0631C417.411 69.0643 416.406 68.8652 415.469 68.477C414.532 68.0888 413.681 67.5192 412.964 66.8011L402.472 56.3091C401.023 54.8601 400.209 52.8948 400.209 50.8457C400.21 48.7966 401.024 46.8315 402.473 45.3826C403.922 43.9337 405.887 43.1198 407.936 43.1199C409.985 43.12 411.95 43.9341 413.399 45.3831L423.891 55.8751C424.972 56.9556 425.708 58.3323 426.006 59.8312C426.304 61.33 426.151 62.8836 425.566 64.2954C424.981 65.7072 423.99 66.9137 422.719 67.7624C421.448 68.6111 419.954 69.0637 418.426 69.0631H418.425Z" fill="#333941"/>
<path d="M440.28 200.344C421.954 227.846 400.915 253.441 377.48 276.744C289.156 365.068 184.32 407.783 125.148 384.123C124.23 385.923 123.308 387.705 122.39 389.529C141.39 408.529 170.628 414.603 205.105 409.416C266.418 400.189 322.805 363.967 369.015 324.303C407.683 291.116 442.07 252.158 468.715 208.655C459.043 206.598 449.538 203.82 440.28 200.344Z" fill="#96A9BA"/>
<path d="M420.706 244.9C404.929 255.126 390.199 266.883 376.729 280C375.319 281.351 374.272 283.036 373.683 284.898C373.094 286.761 372.984 288.741 373.361 290.657C373.738 292.574 374.592 294.364 375.842 295.865C377.093 297.365 378.701 298.526 380.518 299.242C400.092 306.902 434.995 315.496 467.19 297.484C470.271 295.748 472.826 293.213 474.586 290.146C476.346 287.079 477.246 283.594 477.19 280.058C477.081 272.624 474.76 262.578 465.971 251.992C460.58 245.506 453.009 241.208 444.677 239.903C436.345 238.597 427.823 240.374 420.706 244.9Z" fill="#69829A"/>
</svg>
