<svg width="512" height="512" viewBox="0 0 512 512" fill="none" xmlns="http://www.w3.org/2000/svg">
<path d="M68.7213 84.984L38.7083 89.947C34.7362 90.6043 31.1878 92.8125 28.8436 96.0859C26.4994 99.3592 25.5515 103.43 26.2083 107.402L80.0843 433.255L140.055 423.34L86.1773 97.488C85.5205 93.5151 83.3124 89.9659 80.0388 87.621C76.7652 85.276 72.6942 84.3275 68.7213 84.984Z" fill="#FEDD00"/>
<path d="M409.188 84.9841L439.202 89.9461C443.175 90.6034 446.723 92.8116 449.067 96.085C451.411 99.3583 452.359 103.429 451.702 107.401L397.826 433.254L337.855 423.34L391.733 97.4871C392.059 95.52 392.768 93.6362 393.821 91.9433C394.874 90.2503 396.251 88.7814 397.871 87.6204C399.492 86.4594 401.326 85.629 403.268 85.1767C405.21 84.7243 407.221 84.6589 409.188 84.9841Z" fill="#FEDD00"/>
<path d="M238.955 433.493L84.8301 459.666L89.7501 478.855C92.0327 487.764 97.2151 495.66 104.48 501.299C111.746 506.938 120.681 509.999 129.878 510H348.03C357.226 509.998 366.161 506.937 373.425 501.298C380.69 495.659 385.872 487.763 388.155 478.855L393.075 459.666L238.955 433.493Z" fill="#E6BB00"/>
<path d="M130.955 478.855L126.035 459.666L259.555 436.993L238.955 433.493L84.8311 459.666L89.7511 478.855C92.0337 487.764 97.2161 495.66 104.481 501.299C111.747 506.938 120.682 509.999 129.879 510H171.086C161.889 510 152.953 506.939 145.687 501.3C138.421 495.661 133.238 487.764 130.955 478.855Z" fill="#CCA600"/>
<path d="M147.776 76.0001C147.776 71.9736 146.177 68.112 143.33 65.2648C140.482 62.4176 136.621 60.8181 132.594 60.8181H102.173C98.1467 60.8181 94.2851 62.4176 91.4379 65.2648C88.5907 68.112 86.9912 71.9736 86.9912 76.0001V406.274H147.777L178.169 202.115L147.776 76.0001Z" fill="#FECE00"/>
<path d="M375.736 60.814H345.315C343.321 60.814 341.347 61.2068 339.504 61.97C337.662 62.7332 335.988 63.8519 334.578 65.2621C333.169 66.6723 332.05 68.3464 331.288 70.1888C330.525 72.0313 330.133 74.0059 330.133 76L299.741 202.115L330.133 406.274H390.919V76C390.92 74.0059 390.527 72.0312 389.764 70.1888C389.001 68.3463 387.883 66.6722 386.473 65.262C385.063 63.8518 383.389 62.7332 381.547 61.97C379.705 61.2068 377.73 60.814 375.736 60.814Z" fill="#FECE00"/>
<path d="M269.347 374.867L299.739 170.73L269.347 44.589V13.182C269.347 9.15548 267.747 5.29388 264.9 2.4467C262.053 -0.400472 258.191 -2 254.165 -2L223.744 -2C219.717 -2 215.856 -0.400472 213.009 2.4467C210.161 5.29388 208.562 9.15548 208.562 13.182V44.589L178.17 202.114L208.562 374.866L213.238 343.459H263.822L269.347 374.867Z" fill="#FECE00"/>
<path d="M193.379 29.407H162.955C158.929 29.407 155.067 31.0065 152.22 33.8537C149.373 36.7009 147.773 40.5625 147.773 44.589V374.867H208.559V44.589C208.559 40.5628 206.96 36.7015 204.113 33.8544C201.267 31.0073 197.406 29.4075 193.379 29.407Z" fill="#FEDD00"/>
<path d="M284.531 29.407H314.956C318.982 29.407 322.844 31.0065 325.691 33.8537C328.538 36.7009 330.138 40.5625 330.138 44.589V374.867H269.348V44.589C269.348 42.5952 269.74 40.6209 270.503 38.7789C271.266 36.9368 272.385 35.2631 273.795 33.8533C275.205 32.4435 276.878 31.3253 278.72 30.5624C280.563 29.7994 282.537 29.4069 284.531 29.407Z" fill="#FEDD00"/>
<path d="M441.33 271.276L393.078 459.665H84.8305L36.5795 271.276C35.5978 267.445 35.821 263.404 37.2185 259.704C38.6161 256.005 41.12 252.826 44.3895 250.6C76.1215 228.992 118.907 211.425 141.342 202.956C143.027 202.314 144.827 202.034 146.627 202.133C148.426 202.233 150.185 202.71 151.788 203.533C153.391 204.356 154.804 205.508 155.933 206.913C157.062 208.318 157.883 209.944 158.342 211.687C166.32 242.121 199.38 264.942 238.953 264.942C278.526 264.942 311.587 242.119 319.564 211.687C320.024 209.944 320.845 208.318 321.974 206.913C323.103 205.508 324.515 204.356 326.119 203.533C327.722 202.71 329.481 202.233 331.28 202.133C333.08 202.034 334.88 202.314 336.564 202.956C358.999 211.425 401.786 228.993 433.517 250.6C436.788 252.825 439.292 256.004 440.69 259.704C442.088 263.404 442.312 267.445 441.33 271.276Z" fill="#F9545B"/>
<path d="M327.387 202.972C325.638 203.643 324.056 204.687 322.752 206.032C324.332 205.061 325.877 204.041 327.387 202.972Z" fill="#E64047"/>
<path d="M44.3883 250.6C41.119 252.825 38.6151 256.004 37.2176 259.704C35.8201 263.404 35.5969 267.445 36.5783 271.276L84.8303 459.665H126.037L78.7263 230.487C66.8876 236.497 55.4209 243.213 44.3883 250.6Z" fill="#E64047"/>
</svg>
