<svg width="512" height="513" viewBox="0 0 512 513" fill="none" xmlns="http://www.w3.org/2000/svg">
<path d="M303.453 512C299.639 512 295.862 511.248 292.338 509.788C288.814 508.328 285.612 506.189 282.916 503.492C280.219 500.794 278.079 497.592 276.62 494.068C275.161 490.544 274.41 486.767 274.41 482.953V382.035C274.41 374.332 277.47 366.944 282.917 361.497C288.364 356.05 295.752 352.99 303.455 352.99C311.158 352.99 318.546 356.05 323.993 361.497C329.44 366.944 332.5 374.332 332.5 382.035V482.953C332.5 486.768 331.749 490.545 330.289 494.069C328.829 497.593 326.69 500.795 323.993 503.493C321.295 506.19 318.093 508.329 314.569 509.789C311.045 511.249 307.267 512 303.453 512V512Z" fill="#5F75A1"/>
<path d="M274.41 468.215V482.957C274.41 490.66 277.47 498.048 282.917 503.495C288.364 508.942 295.752 512.002 303.455 512.002C311.158 512.002 318.546 508.942 323.993 503.495C329.44 498.048 332.5 490.66 332.5 482.957V468.215H274.41Z" fill="#404656"/>
<path d="M209.7 512C205.886 512 202.109 511.248 198.585 509.788C195.061 508.328 191.86 506.189 189.163 503.492C186.466 500.794 184.327 497.592 182.867 494.068C181.408 490.544 180.657 486.767 180.657 482.953V382.035C180.657 374.332 183.717 366.944 189.164 361.497C194.611 356.05 201.999 352.99 209.702 352.99C217.405 352.99 224.793 356.05 230.24 361.497C235.687 366.944 238.747 374.332 238.747 382.035V482.953C238.747 490.657 235.686 498.045 230.239 503.492C224.792 508.939 217.404 512 209.7 512V512Z" fill="#5F75A1"/>
<path d="M180.652 468.215V482.957C180.652 490.66 183.712 498.047 189.159 503.494C194.605 508.94 201.992 512 209.695 512C217.398 512 224.785 508.94 230.232 503.494C235.678 498.047 238.738 490.66 238.738 482.957V468.215H180.652Z" fill="#404656"/>
<path d="M362.16 315.051C362.16 248.035 314.887 193.711 256.574 193.711C198.261 193.711 150.988 248.035 150.988 315.051C150.988 382.067 198.261 421.742 256.574 421.742C314.887 421.742 362.16 382.063 362.16 315.051Z" fill="#A0D9E7"/>
<path d="M162.887 367.8C180.492 402.343 215.825 421.741 256.575 421.741C297.325 421.741 332.661 402.341 350.263 367.8H162.887Z" fill="#5F75A1"/>
<path d="M470.148 157.91C470.148 136.582 449.793 119.289 424.679 119.289C399.565 119.289 379.21 136.582 379.21 157.91C379.21 179.238 399.569 196.535 424.679 196.535C449.789 196.535 470.148 179.242 470.148 157.91Z" fill="#F0CDB9"/>
<path d="M133.938 157.91C133.938 136.582 113.579 119.289 88.469 119.289C63.359 119.289 43 136.582 43 157.91C43 179.238 63.355 196.535 88.469 196.535C113.583 196.535 133.938 179.242 133.938 157.91Z" fill="#F8DCCC"/>
<path d="M430.086 157.91C430.086 70.7 352.4 0 256.574 0C160.748 0 83.0659 70.7 83.0659 157.91C83.0659 245.12 160.746 295.879 256.574 295.879C352.402 295.879 430.086 245.125 430.086 157.91Z" fill="#F8DCCC"/>
<path d="M170.227 20.9099C118.141 48.1639 83.0669 99.3099 83.0669 157.91C83.0669 245.125 160.747 295.879 256.575 295.879C265.333 295.879 273.924 295.457 282.348 294.613C106.91 251.176 121.441 95.8589 170.227 20.9099Z" fill="#F0CDB9"/>
<path d="M428.043 133.625C415.2 57.941 343.324 0 256.574 0C169.824 0 97.9449 57.941 85.1089 133.625C112.929 128.957 149.351 105.766 169.457 79.012C170.159 88.1642 172.889 97.0454 177.449 105.012C177.919 105.843 178.643 106.502 179.514 106.892C180.386 107.281 181.36 107.381 182.293 107.176C203.313 102.36 248.242 74.531 256.574 55.137C264.906 74.532 309.836 102.36 330.855 107.176C331.788 107.381 332.761 107.281 333.633 106.892C334.505 106.502 335.229 105.843 335.699 105.012C340.258 97.0454 342.988 88.1642 343.691 79.012C363.8 105.766 400.219 128.957 428.043 133.625Z" fill="#404656"/>
<path d="M170.219 20.9221C125.48 44.3361 93.2929 85.3711 85.1089 133.625C101.882 130.813 121.781 121.254 139.347 108.25C143.227 75.2271 155.07 44.2001 170.219 20.9221Z" fill="#353947"/>
<path d="M285.413 370.495C278.811 368.621 273.087 364.471 269.253 358.779C265.419 353.088 263.724 346.223 264.467 339.401C265.211 332.58 268.345 326.241 273.315 321.509C278.284 316.777 284.769 313.958 291.619 313.549L293.212 313.457C304.315 312.833 312.34 312.379 326.676 291.671C328.847 288.536 331.614 285.858 334.82 283.792C338.026 281.725 341.607 280.31 345.359 279.628C349.112 278.946 352.962 279.009 356.69 279.815C360.418 280.62 363.951 282.152 367.086 284.323C370.222 286.494 372.9 289.262 374.966 292.467C377.033 295.673 378.448 299.254 379.13 303.007C379.812 306.759 379.749 310.609 378.943 314.337C378.138 318.065 376.606 321.598 374.435 324.734C343.947 368.78 313.068 370.519 296.481 371.453L295.052 371.536C291.804 371.731 288.545 371.38 285.413 370.495Z" fill="#7CCBDD"/>
<path d="M303.404 312.192C300.059 312.963 296.643 313.388 293.211 313.46L291.618 313.552C287.805 313.77 284.072 314.738 280.634 316.4C277.196 318.063 274.119 320.387 271.58 323.24C269.041 326.092 267.089 329.418 265.837 333.026C264.585 336.634 264.056 340.453 264.282 344.266C264.508 348.078 265.483 351.809 267.153 355.244C268.822 358.679 271.152 361.751 274.01 364.284C276.868 366.817 280.198 368.762 283.808 370.007C287.419 371.252 291.239 371.772 295.051 371.539L296.476 371.455C303.587 371.222 310.656 370.278 317.579 368.638L303.404 312.192Z" fill="#F8DCCC"/>
<path d="M227.03 370.781C223.871 371.565 220.602 371.812 217.361 371.513L215.936 371.385C199.39 369.921 168.58 367.198 139.512 322.202C137.417 318.999 135.976 315.413 135.272 311.65C134.568 307.888 134.614 304.024 135.408 300.279C136.203 296.535 137.729 292.984 139.9 289.832C142.072 286.68 144.845 283.988 148.06 281.911C151.275 279.834 154.869 278.413 158.635 277.73C162.401 277.046 166.265 277.114 170.005 277.93C173.745 278.745 177.287 280.292 180.427 282.48C183.567 284.669 186.244 287.457 188.303 290.684C201.969 311.834 209.975 312.544 221.054 313.526L222.643 313.666C229.477 314.293 235.868 317.318 240.684 322.206C245.5 327.094 248.431 333.53 248.956 340.372C249.481 347.214 247.568 354.021 243.554 359.587C239.541 365.153 233.687 369.119 227.029 370.781L227.03 370.781Z" fill="#7CCBDD"/>
<path d="M210.907 311.934C214.226 312.811 217.626 313.345 221.055 313.526L222.644 313.669C226.448 314.009 230.148 315.095 233.532 316.866C236.915 318.637 239.916 321.058 242.363 323.991C244.81 326.923 246.654 330.309 247.791 333.955C248.927 337.601 249.334 341.436 248.986 345.239C248.639 349.043 247.545 352.74 245.767 356.12C243.989 359.5 241.562 362.496 238.624 364.937C235.687 367.378 232.297 369.215 228.649 370.344C225 371.473 221.165 371.872 217.362 371.516L215.941 371.387C208.841 370.928 201.806 369.759 194.939 367.899L210.907 311.934Z" fill="#F8DCCC"/>
<path d="M191.605 193.855C191.605 177.085 174.535 163.488 153.476 163.488C132.417 163.488 115.347 177.088 115.347 193.855C115.347 210.622 132.417 224.218 153.476 224.218C174.535 224.218 191.605 210.625 191.605 193.855Z" fill="#F8B8BD"/>
<path d="M398.273 193.855C398.273 177.085 381.203 163.488 360.144 163.488C339.085 163.488 322.015 177.088 322.015 193.855C322.015 210.622 339.089 224.218 360.144 224.218C381.199 224.218 398.273 210.625 398.273 193.855Z" fill="#F8B8BD"/>
<path d="M159.852 165.5C157.863 165.5 155.955 164.71 154.549 163.303C153.142 161.897 152.352 159.989 152.352 158V141.637C152.352 139.648 153.142 137.74 154.549 136.334C155.955 134.927 157.863 134.137 159.852 134.137C161.841 134.137 163.749 134.927 165.155 136.334C166.562 137.74 167.352 139.648 167.352 141.637V158C167.352 159.989 166.562 161.897 165.155 163.303C163.749 164.71 161.841 165.5 159.852 165.5Z" fill="#404656"/>
<path d="M353.773 165.5C351.784 165.5 349.876 164.71 348.47 163.303C347.063 161.897 346.273 159.989 346.273 158V141.637C346.273 139.648 347.063 137.74 348.47 136.334C349.876 134.927 351.784 134.137 353.773 134.137C355.762 134.137 357.67 134.927 359.076 136.334C360.483 137.74 361.273 139.648 361.273 141.637V158C361.273 159.989 360.483 161.897 359.076 163.303C357.67 164.71 355.762 165.5 353.773 165.5Z" fill="#404656"/>
<path d="M260.436 197.216C255.861 197.208 251.335 196.264 247.138 194.443C242.94 192.622 239.159 189.963 236.027 186.628C235.354 185.909 234.828 185.065 234.481 184.143C234.134 183.222 233.972 182.24 234.004 181.256C234.036 180.272 234.262 179.303 234.668 178.406C235.074 177.509 235.653 176.7 236.372 176.027C237.091 175.354 237.935 174.828 238.857 174.481C239.779 174.134 240.76 173.972 241.744 174.004C242.728 174.036 243.697 174.262 244.594 174.668C245.491 175.074 246.3 175.653 246.973 176.372C248.697 178.216 250.781 179.687 253.097 180.692C255.413 181.697 257.91 182.216 260.435 182.216C262.96 182.216 265.457 181.697 267.773 180.692C270.089 179.687 272.173 178.216 273.897 176.372C274.57 175.653 275.379 175.074 276.276 174.668C277.173 174.262 278.142 174.036 279.126 174.004C280.11 173.972 281.092 174.134 282.013 174.481C282.935 174.828 283.779 175.354 284.498 176.027C285.217 176.7 285.796 177.509 286.202 178.406C286.608 179.303 286.834 180.272 286.866 181.256C286.898 182.24 286.736 183.222 286.389 184.143C286.042 185.065 285.516 185.909 284.843 186.628C281.711 189.963 277.93 192.622 273.733 194.443C269.536 196.264 265.011 197.208 260.436 197.216Z" fill="#4A5058"/>
<path d="M467.427 378H381.573C376.117 378.001 370.885 380.127 367.027 383.91C363.169 387.693 361.001 392.823 361 398.173V482.362C361.001 487.712 363.169 492.842 367.027 496.625C370.885 500.408 376.117 502.534 381.573 502.535H467.427C472.883 502.534 478.115 500.408 481.973 496.625C485.831 492.842 487.999 487.712 488 482.362V398.173C487.999 392.823 485.831 387.693 481.973 383.91C478.115 380.127 472.883 378.001 467.427 378V378Z" fill="#B2E59C"/>
<path d="M432.067 378H381.573C376.117 378.001 370.885 380.127 367.027 383.91C363.169 387.693 361.001 392.823 361 398.173V482.362C361.001 487.712 363.169 492.842 367.027 496.625C370.885 500.408 376.117 502.534 381.573 502.535H408.063C387.211 478.016 395.063 432.705 410.809 415.029C426.018 397.961 430.66 384.299 432.067 378Z" fill="#9AD880"/>
<path d="M418.912 470.983C416.298 470.983 413.783 470 411.885 468.238L385.122 443.394C384.147 442.489 383.364 441.405 382.816 440.203C382.269 439.001 381.968 437.706 381.931 436.39C381.894 435.074 382.122 433.764 382.602 432.535C383.081 431.305 383.803 430.181 384.726 429.225C385.648 428.269 386.754 427.5 387.98 426.964C389.205 426.427 390.527 426.132 391.868 426.096C393.21 426.06 394.546 426.283 395.8 426.753C397.054 427.223 398.201 427.931 399.175 428.836L418.322 446.611L449.249 412.877C450.144 411.892 451.23 411.09 452.442 410.517C453.654 409.944 454.97 409.612 456.314 409.539C457.658 409.466 459.003 409.654 460.273 410.093C461.542 410.531 462.711 411.211 463.712 412.093C464.713 412.975 465.526 414.043 466.105 415.234C466.684 416.425 467.017 417.717 467.086 419.035C467.155 420.353 466.957 421.672 466.505 422.915C466.053 424.158 465.355 425.301 464.451 426.278L426.513 467.664C425.601 468.658 424.496 469.463 423.262 470.033C422.028 470.602 420.69 470.923 419.327 470.978C419.185 470.979 419.048 470.983 418.912 470.983Z" fill="white"/>
<path d="M399.176 428.836C398.203 427.92 397.055 427.202 395.798 426.723C394.541 426.243 393.2 426.013 391.852 426.044C390.504 426.075 389.175 426.368 387.943 426.905C386.71 427.442 385.598 428.213 384.671 429.174C383.744 430.134 383.02 431.265 382.541 432.501C382.061 433.737 381.836 435.054 381.878 436.376C381.92 437.698 382.228 438.998 382.785 440.203C383.342 441.407 384.136 442.492 385.122 443.394L395.973 453.467C396.804 445.765 398.653 438.202 401.472 430.968L399.176 428.836Z" fill="#CCF8FF"/>
</svg>
