<svg width="512" height="512" viewBox="0 0 512 512" fill="none" xmlns="http://www.w3.org/2000/svg">
<path d="M424.227 481.404C420.997 250.431 406.762 152.104 406.762 152.104L35.0159 153.104C35.0159 153.104 5.71092 250.447 0.659922 481.064C0.530506 487.049 1.59758 493 3.79856 498.567C5.99953 504.134 9.29008 509.205 13.4772 513.484C17.6643 517.762 22.6636 521.162 28.182 523.482C33.7003 525.803 39.6265 526.998 45.6129 526.998H379.266C385.223 526.997 391.122 525.812 396.617 523.513C402.113 521.214 407.098 517.845 411.281 513.603C415.464 509.361 418.762 504.33 420.985 498.803C423.207 493.275 424.309 487.361 424.227 481.404Z" fill="#C68D6D"/>
<path d="M35.016 153.103C35.016 153.103 13.116 225.876 3.91602 394.603C59.092 434.322 132.178 458.509 212.35 458.509C293.276 458.509 366.979 433.868 422.33 393.489C417.346 225.243 406.76 152.11 406.76 152.11L35.016 153.103Z" fill="#B2785B"/>
<path d="M355.113 526.998H69.5859C65.5835 526.998 61.6204 526.21 57.9227 524.678C54.225 523.147 50.8652 520.902 48.0351 518.072C45.205 515.242 42.9601 511.882 41.4285 508.184C39.897 504.487 39.1088 500.523 39.1089 496.521V481.846C39.1092 457.492 48.7839 434.135 66.005 416.914C83.226 399.693 106.583 390.018 130.937 390.018H293.762C318.116 390.018 341.473 399.693 358.694 416.914C375.915 434.135 385.59 457.492 385.59 481.846V496.522C385.59 500.524 384.802 504.487 383.27 508.185C381.738 511.883 379.493 515.242 376.663 518.072C373.833 520.902 370.473 523.147 366.776 524.679C363.078 526.21 359.115 526.998 355.113 526.998Z" fill="#8ED7E8"/>
<path d="M244.645 390.018H130.938C106.584 390.018 83.227 399.693 66.006 416.914C48.7849 434.135 39.1101 457.492 39.1099 481.846V496.522C39.1099 500.524 39.8981 504.487 41.4297 508.185C42.9613 511.882 45.2061 515.242 48.0361 518.072C50.866 520.902 54.2257 523.147 57.9232 524.678C61.6207 526.21 65.5837 526.998 69.5859 526.998H171.086C217.918 486.498 236.949 430.814 244.645 390.018Z" fill="#7AC1DD"/>
<path d="M284.824 413.619C284.824 375.689 252.375 344.943 212.351 344.943C172.327 344.943 139.878 375.689 139.878 413.619C139.878 451.549 172.324 482.298 212.352 482.298C252.38 482.298 284.824 451.549 284.824 413.619Z" fill="#FFCFC2"/>
<path d="M249.23 354.486C237.955 348.212 225.254 344.948 212.351 345.009C172.324 345.009 139.878 375.759 139.878 413.685C139.878 450.697 170.773 480.798 209.456 482.24C239.711 434.568 247.363 381.713 249.23 354.486Z" fill="#FFB9A9"/>
<path d="M88.1 291.967C88.0996 300.679 85.5158 309.195 80.6753 316.439C75.8348 323.683 68.955 329.328 60.9059 332.662C52.8569 335.995 44.0001 336.867 35.4555 335.167C26.9109 333.467 19.0623 329.272 12.9022 323.111C6.74213 316.95 2.54722 309.101 0.847972 300.557C-0.85128 292.012 0.0214388 283.155 3.35577 275.106C6.6901 267.058 12.3363 260.178 19.5803 255.339C26.8244 250.499 35.3409 247.916 44.053 247.916C49.8376 247.916 55.5656 249.056 60.9098 251.27C66.254 253.483 71.1098 256.728 75.2 260.819C79.2902 264.909 82.5346 269.765 84.748 275.11C86.9613 280.454 88.1004 286.182 88.1 291.967Z" fill="#FFB9A9"/>
<path d="M424.7 291.967C424.7 300.679 422.116 309.195 417.275 316.439C412.435 323.683 405.555 329.328 397.506 332.662C389.457 335.995 380.6 336.867 372.056 335.167C363.511 333.467 355.662 329.272 349.502 323.111C343.342 316.95 339.147 309.101 337.448 300.557C335.749 292.012 336.622 283.155 339.956 275.106C343.29 267.058 348.936 260.178 356.18 255.339C363.424 250.499 371.941 247.916 380.653 247.916C386.438 247.916 392.166 249.056 397.51 251.27C402.854 253.483 407.71 256.728 411.8 260.819C415.89 264.909 419.135 269.765 421.348 275.11C423.561 280.454 424.7 286.182 424.7 291.967Z" fill="#FFCFC2"/>
<path d="M228.336 430.779H196.367C112.594 430.779 44.0508 362.236 44.0508 278.463V208.486C44.0508 115.92 119.785 40.186 212.351 40.186C304.917 40.186 380.651 115.92 380.651 208.486V278.463C380.652 362.236 312.109 430.779 228.336 430.779Z" fill="#FFE2D9"/>
<path d="M124.633 315.775C116.781 274.209 129.617 231.675 157.723 200.06C199.523 153.044 212.352 40.1851 212.352 40.1851C119.786 40.1851 44.0518 115.919 44.0518 208.485V278.462C44.0518 361.669 111.685 429.849 194.681 430.771C150.391 394.088 131.508 352.182 124.633 315.775Z" fill="#FFCFC2"/>
<path d="M222.129 163.432C222.129 163.432 199.051 252.198 78.914 271.619C72.1584 272.703 65.2474 272.299 58.6644 270.434C52.0813 268.569 45.9851 265.289 40.8019 260.822C35.6186 256.356 31.4735 250.812 28.6563 244.576C25.8392 238.341 24.4179 231.566 24.492 224.724C25.137 160.779 46.851 56.3371 177.508 33.9741C178.2 36.1781 222.129 163.432 222.129 163.432Z" fill="#C68D6D"/>
<path d="M222.129 163.432C222.129 163.432 178.2 36.1781 177.508 33.9751C150.789 38.5491 128.633 46.5611 110.274 56.9481C98.1447 101.639 89.3357 183.603 162.133 240.158C210.711 207.346 222.129 163.432 222.129 163.432Z" fill="#B2785B"/>
<path d="M145.238 87.8461C152.312 208.291 279.746 252.358 351.797 267.686C358.283 269.071 364.989 269.065 371.473 267.67C377.957 266.274 384.071 263.52 389.413 259.59C394.755 255.659 399.204 250.641 402.466 244.866C405.727 239.091 407.728 232.691 408.336 226.086C412.543 179.723 410.059 110.734 368.848 64.8131C329.48 20.9391 261.406 13.6311 211.355 15.1891C202.194 15.4703 193.184 17.5909 184.859 21.4247C176.535 25.2585 169.067 30.7272 162.898 37.5056C156.73 44.284 151.988 52.2336 148.954 60.8817C145.92 69.5298 144.656 78.6997 145.238 87.8461Z" fill="#DD9F80"/>
<path d="M146.395 329.756C146.395 316.174 132.571 305.166 115.516 305.166C98.4611 305.166 84.6411 316.174 84.6411 329.756C84.6411 343.338 98.4651 354.346 115.516 354.346C132.567 354.346 146.395 343.334 146.395 329.756Z" fill="#FFA6BB"/>
<path d="M340.063 329.756C340.063 316.174 326.239 305.166 309.184 305.166C292.129 305.166 278.3 316.174 278.3 329.756C278.3 343.338 292.124 354.346 309.179 354.346C326.234 354.346 340.063 343.334 340.063 329.756Z" fill="#FFA6BB"/>
<path d="M295.441 316.256C294.426 316.256 293.421 316.057 292.483 315.669C291.546 315.28 290.694 314.711 289.976 313.994C289.259 313.276 288.689 312.424 288.301 311.486C287.913 310.549 287.713 309.544 287.714 308.529V295.705C287.737 293.671 288.561 291.728 290.008 290.298C291.454 288.868 293.406 288.066 295.44 288.066C297.474 288.066 299.427 288.868 300.873 290.298C302.32 291.728 303.144 293.671 303.167 295.705V308.529C303.167 309.544 302.967 310.548 302.579 311.486C302.191 312.423 301.622 313.275 300.904 313.993C300.187 314.71 299.335 315.279 298.398 315.668C297.46 316.056 296.456 316.256 295.441 316.256Z" fill="#57565C"/>
<path d="M129.258 316.256C128.243 316.256 127.238 316.056 126.301 315.668C125.363 315.28 124.511 314.711 123.794 313.993C123.076 313.276 122.507 312.424 122.119 311.486C121.73 310.549 121.531 309.544 121.531 308.529V295.705C121.554 293.671 122.378 291.728 123.825 290.298C125.271 288.868 127.223 288.066 129.257 288.066C131.291 288.066 133.243 288.868 134.69 290.298C136.136 291.728 136.961 293.671 136.984 295.705V308.529C136.984 309.544 136.785 310.549 136.396 311.486C136.008 312.424 135.439 313.276 134.722 313.993C134.004 314.711 133.152 315.28 132.215 315.668C131.277 316.057 130.273 316.256 129.258 316.256Z" fill="#57565C"/>
<path d="M233.836 323.525C233.836 309.474 224.219 298.08 212.352 298.08C200.485 298.08 190.864 309.475 190.864 323.525C190.864 337.575 200.485 348.966 212.352 348.966C224.219 348.966 233.836 337.576 233.836 323.525Z" fill="#57565C"/>
<path d="M447.863 80.064C447.863 83.1872 446.936 86.2401 445.201 88.8367C443.465 91.4333 440.999 93.4569 438.113 94.6517C435.228 95.8466 432.052 96.1589 428.989 95.5492C425.926 94.9395 423.113 93.4352 420.905 91.2265C418.697 89.0178 417.193 86.2039 416.584 83.1407C415.975 80.0775 416.288 76.9025 417.484 74.0172C418.679 71.1319 420.704 68.666 423.301 66.9311C425.898 65.1963 428.951 64.2706 432.074 64.271C436.262 64.2718 440.278 65.9361 443.239 68.8978C446.2 71.8595 447.863 75.876 447.863 80.064Z" fill="white"/>
<path d="M476.156 98.8422C476.156 100.37 475.703 101.864 474.854 103.135C474.005 104.406 472.798 105.396 471.386 105.981C469.974 106.566 468.42 106.719 466.921 106.421C465.423 106.123 464.046 105.387 462.965 104.306C461.884 103.225 461.149 101.849 460.85 100.35C460.552 98.8508 460.705 97.2972 461.29 95.8852C461.875 94.4733 462.865 93.2665 464.136 92.4175C465.407 91.5684 466.901 91.1152 468.429 91.1152C469.444 91.1148 470.449 91.3144 471.386 91.7026C472.324 92.0908 473.176 92.6599 473.894 93.3775C474.611 94.0951 475.18 94.9471 475.569 95.8848C475.957 96.8224 476.156 97.8274 476.156 98.8422Z" fill="white"/>
<path d="M483.026 167.726H340.383C339.538 167.726 338.706 167.935 337.962 168.335C337.218 168.735 336.584 169.313 336.119 170.018C335.653 170.723 335.369 171.533 335.293 172.374C335.217 173.216 335.351 174.063 335.683 174.84L392.013 306.74C399.413 324.075 423.989 324.075 431.391 306.74L487.721 174.84C488.053 174.063 488.186 173.217 488.111 172.376C488.035 171.534 487.752 170.725 487.286 170.02C486.821 169.316 486.189 168.737 485.445 168.337C484.702 167.936 483.87 167.727 483.026 167.726Z" fill="#F3DE6A"/>
<path opacity="0.1" d="M488.01 171.693C487.752 170.565 487.119 169.557 486.214 168.836C485.308 168.114 484.184 167.722 483.027 167.723H340.383C339.538 167.723 338.706 167.932 337.962 168.332C337.218 168.732 336.584 169.31 336.119 170.015C335.653 170.72 335.369 171.53 335.293 172.371C335.217 173.213 335.351 174.06 335.683 174.837L392.013 306.737C398.291 321.437 416.913 323.666 426.943 313.437C421.801 315.294 416.142 315.109 411.132 312.919C406.122 310.73 402.143 306.703 400.013 301.667L376.318 246.183C378.887 243.65 380.927 240.631 382.317 237.302C383.708 233.973 384.422 230.401 384.418 226.793V208.693C384.418 201.456 387.293 194.516 392.41 189.399C397.527 184.282 404.467 181.407 411.704 181.407C415.287 181.407 418.836 182.112 422.147 183.483C425.458 184.854 428.466 186.864 431.001 189.398C433.535 191.931 435.545 194.94 436.916 198.25C438.288 201.561 438.994 205.11 438.994 208.693V210.08C438.995 216.439 441.216 222.598 445.275 227.494C449.333 232.389 454.974 235.714 461.223 236.893L487.723 174.839C487.983 174.236 488.124 173.588 488.138 172.931C488.147 172.515 488.104 172.099 488.01 171.693Z" fill="black"/>
<path d="M329.842 129.306V217.982C329.842 225.219 332.717 232.159 337.834 237.276C342.951 242.393 349.891 245.268 357.128 245.268C364.365 245.268 371.305 242.393 376.422 237.276C381.539 232.159 384.414 225.219 384.414 217.982V199.882C384.414 192.645 387.289 185.705 392.406 180.588C397.523 175.471 404.463 172.596 411.7 172.596C418.937 172.596 425.877 175.471 430.994 180.588C436.111 185.705 438.986 192.645 438.986 199.882V201.269C438.986 208.506 441.861 215.446 446.978 220.563C452.095 225.68 459.035 228.555 466.272 228.555C473.509 228.555 480.449 225.68 485.566 220.563C490.683 215.446 493.558 208.506 493.558 201.269V128.42C493.558 117.646 491.431 106.978 487.3 97.0282C483.168 87.0781 477.113 78.0414 469.482 70.4363C461.85 62.8313 452.793 56.8075 442.828 52.7105C432.864 48.6134 422.189 46.5237 411.415 46.561C366.174 46.717 329.842 84.066 329.842 129.306Z" fill="#E883AB"/>
<g opacity="0.3">
<path opacity="0.3" d="M329.842 129.306V217.982C329.842 225.219 332.717 232.159 337.834 237.276C342.951 242.393 349.891 245.268 357.128 245.268C364.365 245.268 371.305 242.393 376.422 237.276C381.539 232.159 384.414 225.219 384.414 217.982V199.882C384.414 192.645 387.289 185.705 392.406 180.588C397.523 175.471 404.463 172.596 411.7 172.596C418.937 172.596 425.877 175.471 430.994 180.588C436.111 185.705 438.986 192.645 438.986 199.882V201.269C438.986 208.506 441.861 215.446 446.978 220.563C452.095 225.68 459.035 228.555 466.272 228.555C473.509 228.555 480.449 225.68 485.566 220.563C490.683 215.446 493.558 208.506 493.558 201.269V128.42C493.558 117.646 491.431 106.978 487.3 97.0282C483.168 87.0781 477.113 78.0414 469.482 70.4363C461.85 62.8313 452.793 56.8075 442.828 52.7105C432.864 48.6134 422.189 46.5237 411.415 46.561C366.174 46.717 329.842 84.066 329.842 129.306Z" fill="white"/>
</g>
<path opacity="0.1" d="M452.369 201.271V199.884C452.369 192.647 449.494 185.707 444.377 180.59C439.26 175.473 432.32 172.598 425.083 172.598H411.707C418.944 172.598 425.884 175.473 431.001 180.59C436.117 185.707 438.992 192.648 438.992 199.884V201.271C438.992 208.508 441.867 215.448 446.984 220.565C452.101 225.682 459.041 228.557 466.278 228.557C468.533 228.558 470.779 228.279 472.966 227.728C467.079 226.237 461.858 222.826 458.127 218.034C454.397 213.242 452.371 207.344 452.369 201.271ZM411.416 46.561C366.174 46.717 329.842 84.066 329.842 129.306V217.982C329.842 225.219 332.717 232.159 337.834 237.276C342.951 242.393 349.891 245.268 357.128 245.268C359.383 245.269 361.629 244.99 363.816 244.439C357.929 242.949 352.707 239.538 348.976 234.746C345.245 229.954 343.218 224.055 343.216 217.982V144.476C365.073 142.13 388.206 143.966 406.707 149.476C434.207 157.662 464.746 153.946 490.607 145.487C491.666 145.141 492.662 144.628 493.559 143.968V128.42C493.559 117.646 491.433 106.978 487.301 97.0281C483.17 87.0779 477.115 78.0411 469.483 70.4361C461.852 62.831 452.794 56.8072 442.829 52.7102C432.865 48.6132 422.19 46.5235 411.416 46.561Z" fill="black"/>
<path d="M411.401 44C363.827 44.165 325.627 83.438 325.627 131.013C325.627 132.303 325.907 133.577 326.446 134.749C326.985 135.921 327.771 136.962 328.751 137.802C329.73 138.641 330.879 139.259 332.12 139.613C333.36 139.966 334.662 140.048 335.937 139.851C359.837 136.193 386.137 137.781 406.713 143.904C434.213 152.09 464.752 148.374 490.613 139.915C492.693 139.242 494.507 137.928 495.795 136.161C497.082 134.394 497.778 132.265 497.783 130.079C497.783 118.749 495.547 107.531 491.202 97.0677C486.857 86.6043 480.49 77.1015 472.464 69.1043C464.439 61.1072 454.914 54.773 444.435 50.465C433.957 46.157 422.731 43.96 411.401 44Z" fill="#926D68"/>
<path d="M350.873 116.631C350.073 116.632 349.291 116.395 348.626 115.951C347.961 115.506 347.443 114.875 347.137 114.136C346.832 113.397 346.752 112.584 346.909 111.8C347.065 111.016 347.451 110.296 348.017 109.731L354.576 103.172C355.334 102.415 356.362 101.99 357.433 101.99C358.505 101.991 359.532 102.417 360.289 103.176C361.047 103.934 361.472 104.962 361.471 106.033C361.47 107.105 361.044 108.132 360.286 108.889L353.727 115.448C353.353 115.823 352.908 116.121 352.418 116.324C351.928 116.527 351.403 116.632 350.873 116.631Z" fill="white"/>
<path d="M466.459 127.913C465.66 127.913 464.879 127.676 464.215 127.232C463.551 126.789 463.033 126.158 462.727 125.42C462.422 124.682 462.342 123.87 462.498 123.086C462.653 122.303 463.038 121.583 463.603 121.018L470.162 114.459C470.535 114.076 470.981 113.77 471.473 113.561C471.965 113.351 472.494 113.241 473.029 113.238C473.564 113.234 474.094 113.337 474.589 113.54C475.084 113.743 475.533 114.042 475.912 114.42C476.29 114.799 476.589 115.248 476.793 115.743C476.996 116.238 477.098 116.768 477.095 117.303C477.091 117.838 476.982 118.367 476.772 118.859C476.562 119.351 476.257 119.797 475.874 120.17L469.315 126.729C468.94 127.105 468.495 127.403 468.005 127.606C467.515 127.809 466.989 127.914 466.459 127.913Z" fill="#F3DE6A"/>
<path d="M440.06 108.19C439.103 108.19 438.177 107.85 437.447 107.231C436.717 106.612 436.23 105.753 436.074 104.809C435.918 103.865 436.103 102.895 436.594 102.074C437.086 101.253 437.854 100.633 438.76 100.325L447.543 97.3422C448.555 97.0069 449.658 97.0853 450.613 97.5601C451.567 98.035 452.295 98.8678 452.638 99.8772C452.981 100.887 452.912 101.991 452.444 102.949C451.977 103.907 451.15 104.641 450.143 104.992L441.36 107.975C440.941 108.118 440.502 108.19 440.06 108.19Z" fill="#F5A85B"/>
<path d="M432.06 71.1902C431.103 71.1901 430.177 70.8501 429.447 70.2309C428.717 69.6117 428.23 68.7534 428.074 67.809C427.918 66.8646 428.103 65.8955 428.594 65.0743C429.086 64.2531 429.854 63.6333 430.76 63.3252L439.543 60.3422C440.555 60.0069 441.658 60.0853 442.613 60.5601C443.567 61.035 444.295 61.8678 444.638 62.8772C444.981 63.8865 444.912 64.9906 444.444 65.9487C443.977 66.9068 443.15 67.6413 442.143 67.9922L433.36 70.9752C432.941 71.1176 432.502 71.1902 432.06 71.1902Z" fill="#F5A85B"/>
<path d="M390.923 113.503C390.393 113.504 389.867 113.4 389.377 113.197C388.887 112.994 388.442 112.696 388.067 112.32L381.508 105.761C380.75 105.004 380.325 103.976 380.325 102.905C380.325 101.834 380.75 100.806 381.508 100.049C382.265 99.291 383.292 98.8653 384.364 98.8652C385.435 98.8651 386.462 99.2906 387.22 100.048L393.779 106.607C394.346 107.172 394.732 107.892 394.889 108.676C395.045 109.46 394.966 110.274 394.66 111.013C394.354 111.752 393.836 112.383 393.17 112.827C392.505 113.272 391.723 113.508 390.923 113.507V113.503Z" fill="#9DD3EC"/>
<path d="M395.923 78.5031C395.393 78.5037 394.867 78.3996 394.377 78.1965C393.887 77.9935 393.442 77.6957 393.067 77.3201L386.508 70.7611C385.75 70.0036 385.325 68.9762 385.325 67.9049C385.325 66.8336 385.75 65.8062 386.508 65.0486C387.265 64.291 388.292 63.8653 389.364 63.8652C390.435 63.8651 391.462 64.2906 392.22 65.0481L398.779 71.6071C399.346 72.1717 399.732 72.8918 399.889 73.6761C400.045 74.4605 399.966 75.2737 399.66 76.0128C399.354 76.7518 398.836 77.3834 398.17 77.8275C397.505 78.2715 396.723 78.5081 395.923 78.5071V78.5031Z" fill="#9DD3EC"/>
<path d="M433.82 129.691C433.289 129.691 432.763 129.585 432.273 129.381L423.706 125.825C423.216 125.622 422.771 125.324 422.396 124.948C422.022 124.572 421.725 124.127 421.522 123.636C421.32 123.146 421.216 122.621 421.216 122.09C421.217 121.56 421.322 121.035 421.525 120.545C421.729 120.055 422.027 119.61 422.403 119.235C422.778 118.86 423.224 118.563 423.714 118.361C424.204 118.158 424.73 118.054 425.26 118.055C425.791 118.056 426.316 118.161 426.806 118.364L435.373 121.92C436.236 122.279 436.948 122.925 437.388 123.749C437.828 124.574 437.968 125.525 437.785 126.441C437.603 127.358 437.108 128.182 436.385 128.775C435.663 129.367 434.757 129.691 433.823 129.691H433.82Z" fill="#6CC5A4"/>
<path d="M425.82 92.6911C425.289 92.6908 424.763 92.5854 424.273 92.3811L415.706 88.8251C415.216 88.6216 414.771 88.3235 414.396 87.948C414.022 87.5725 413.725 87.1268 413.522 86.6365C413.32 86.1461 413.216 85.6207 413.216 85.0902C413.217 84.5597 413.322 84.0345 413.525 83.5446C413.729 83.0547 414.027 82.6097 414.403 82.235C414.778 81.8603 415.224 81.5632 415.714 81.3607C416.204 81.1583 416.73 81.0544 417.26 81.0549C417.791 81.0555 418.316 81.1606 418.806 81.3641L427.373 84.9201C428.236 85.2785 428.948 85.9249 429.388 86.7493C429.828 87.5737 429.968 88.525 429.785 89.4414C429.603 90.3577 429.108 91.1824 428.385 91.7749C427.663 92.3674 426.757 92.6912 425.823 92.6911H425.82Z" fill="#6CC5A4"/>
<path opacity="0.1" d="M418.628 44.2801C416.244 44.0901 413.835 43.9921 411.401 44.0011C363.827 44.1651 325.627 83.4391 325.627 131.013C325.627 132.303 325.907 133.577 326.446 134.749C326.985 135.921 327.771 136.962 328.751 137.802C329.73 138.641 330.879 139.259 332.12 139.613C333.36 139.966 334.662 140.048 335.937 139.851C338.626 139.44 341.341 139.096 344.084 138.819C342.693 138.047 341.533 136.916 340.726 135.544C339.919 134.173 339.494 132.61 339.495 131.019C339.495 85.674 374.189 47.8741 418.628 44.2801Z" fill="black"/>
<g opacity="0.1">
<path opacity="0.1" d="M403.072 283.94C405.311 283.94 407.126 282.125 407.126 279.886C407.126 277.647 405.311 275.832 403.072 275.832C400.833 275.832 399.018 277.647 399.018 279.886C399.018 282.125 400.833 283.94 403.072 283.94Z" fill="black"/>
<path opacity="0.1" d="M426.807 274.569C429.046 274.569 430.861 272.754 430.861 270.515C430.861 268.276 429.046 266.461 426.807 266.461C424.568 266.461 422.753 268.276 422.753 270.515C422.753 272.754 424.568 274.569 426.807 274.569Z" fill="black"/>
<path opacity="0.1" d="M418.626 301.728C420.865 301.728 422.68 299.913 422.68 297.674C422.68 295.435 420.865 293.62 418.626 293.62C416.387 293.62 414.572 295.435 414.572 297.674C414.572 299.913 416.387 301.728 418.626 301.728Z" fill="black"/>
<path opacity="0.1" d="M392.904 244.56C395.143 244.56 396.958 242.745 396.958 240.506C396.958 238.267 395.143 236.452 392.904 236.452C390.665 236.452 388.85 238.267 388.85 240.506C388.85 242.745 390.665 244.56 392.904 244.56Z" fill="black"/>
<path opacity="0.1" d="M426.807 221.698C429.046 221.698 430.861 219.883 430.861 217.644C430.861 215.405 429.046 213.59 426.807 213.59C424.568 213.59 422.753 215.405 422.753 217.644C422.753 219.883 424.568 221.698 426.807 221.698Z" fill="black"/>
<path opacity="0.1" d="M409.416 259.677C411.655 259.677 413.47 257.862 413.47 255.623C413.47 253.384 411.655 251.569 409.416 251.569C407.177 251.569 405.362 253.384 405.362 255.623C405.362 257.862 407.177 259.677 409.416 259.677Z" fill="black"/>
<path opacity="0.1" d="M434.912 248.61C437.151 248.61 438.966 246.795 438.966 244.556C438.966 242.317 437.151 240.502 434.912 240.502C432.673 240.502 430.858 242.317 430.858 244.556C430.858 246.795 432.673 248.61 434.912 248.61Z" fill="black"/>
<path opacity="0.1" d="M403.072 221.698C405.311 221.698 407.126 219.883 407.126 217.644C407.126 215.405 405.311 213.59 403.072 213.59C400.833 213.59 399.018 215.405 399.018 217.644C399.018 219.883 400.833 221.698 403.072 221.698Z" fill="black"/>
<path opacity="0.1" d="M415.761 201.701C418 201.701 419.815 199.886 419.815 197.647C419.815 195.408 418 193.593 415.761 193.593C413.522 193.593 411.707 195.408 411.707 197.647C411.707 199.886 413.522 201.701 415.761 201.701Z" fill="black"/>
</g>
</svg>
