<svg width="512" height="512" viewBox="0 0 512 512" fill="none" xmlns="http://www.w3.org/2000/svg">
<path d="M400.258 229.733H135.399C133.831 229.733 132.287 230.122 130.906 230.865C129.524 231.608 128.349 232.682 127.485 233.991C126.62 235.3 126.094 236.803 125.953 238.365C125.812 239.927 126.061 241.5 126.677 242.942L231.27 487.86C245.016 520.047 290.642 520.047 304.387 487.86L408.98 242.942C409.596 241.5 409.845 239.927 409.704 238.365C409.563 236.803 409.037 235.3 408.173 233.991C407.308 232.682 406.133 231.608 404.752 230.865C403.371 230.122 401.827 229.733 400.258 229.733Z" fill="#F3DE6A"/>
<path opacity="0.1" d="M409.512 237.1C409.034 235.004 407.858 233.133 406.177 231.794C404.495 230.454 402.409 229.726 400.259 229.728H135.399C133.831 229.728 132.287 230.117 130.906 230.86C129.524 231.603 128.349 232.677 127.485 233.986C126.62 235.295 126.094 236.798 125.953 238.36C125.812 239.922 126.061 241.495 126.677 242.937L231.27 487.86C242.927 515.16 277.502 519.293 296.128 500.293C277.709 506.755 255.108 499.475 246.128 478.438L202.128 375.416C206.898 370.713 210.683 365.108 213.264 358.927C215.846 352.747 217.171 346.114 217.163 339.416V305.806C217.163 299.153 218.474 292.564 221.02 286.417C223.566 280.27 227.298 274.685 232.003 269.98C236.708 265.275 242.293 261.543 248.44 258.997C254.587 256.451 261.176 255.141 267.829 255.141C281.266 255.141 294.153 260.479 303.655 269.98C313.156 279.482 318.494 292.369 318.494 305.806V308.381C318.497 320.189 322.622 331.625 330.159 340.715C337.696 349.804 348.171 355.976 359.774 358.165L408.979 242.943C409.462 241.823 409.723 240.62 409.749 239.401C409.767 238.627 409.687 237.854 409.512 237.1Z" fill="black"/>
<path d="M115.829 158.4V323.052C115.829 336.489 121.167 349.376 130.669 358.878C140.17 368.379 153.057 373.717 166.494 373.717C179.931 373.717 192.818 368.379 202.32 358.878C211.821 349.376 217.159 336.489 217.159 323.052V289.445C217.159 282.791 218.47 276.203 221.016 270.055C223.563 263.908 227.295 258.322 232 253.618C236.706 248.913 242.291 245.181 248.439 242.635C254.586 240.089 261.175 238.779 267.829 238.78C281.266 238.78 294.153 244.118 303.655 253.62C313.156 263.121 318.494 276.008 318.494 289.445V292.02C318.494 305.457 323.832 318.344 333.334 327.846C342.835 337.347 355.722 342.685 369.159 342.685C382.596 342.685 395.483 337.347 404.985 327.846C414.486 318.344 419.824 305.457 419.824 292.02V156.75C419.824 136.744 415.874 116.936 408.201 98.4599C400.529 79.984 389.285 63.2045 375.114 49.0835C360.942 34.9625 344.123 23.7779 325.62 16.171C307.117 8.56414 287.295 4.68468 267.289 4.75509C183.286 5.04509 115.829 74.3941 115.829 158.4Z" fill="#E883AB"/>
<g opacity="0.3">
<path opacity="0.3" d="M115.829 158.4V323.052C115.829 336.489 121.167 349.376 130.669 358.878C140.17 368.379 153.057 373.717 166.494 373.717C179.931 373.717 192.818 368.379 202.32 358.878C211.821 349.376 217.159 336.489 217.159 323.052V289.445C217.159 282.791 218.47 276.203 221.016 270.055C223.563 263.908 227.295 258.322 232 253.618C236.706 248.913 242.291 245.181 248.439 242.635C254.586 240.089 261.175 238.779 267.829 238.78C281.266 238.78 294.153 244.118 303.655 253.62C313.156 263.121 318.494 276.008 318.494 289.445V292.02C318.494 305.457 323.832 318.344 333.334 327.846C342.835 337.347 355.722 342.685 369.159 342.685C382.596 342.685 395.483 337.347 404.985 327.846C414.486 318.344 419.824 305.457 419.824 292.02V156.75C419.824 136.744 415.874 116.936 408.201 98.4599C400.529 79.984 389.285 63.2045 375.114 49.0835C360.942 34.9625 344.123 23.7779 325.62 16.171C307.117 8.56414 287.295 4.68468 267.289 4.75509C183.286 5.04509 115.829 74.3941 115.829 158.4Z" fill="white"/>
</g>
<path opacity="0.1" d="M343.329 292.02V289.445C343.329 276.008 337.991 263.121 328.49 253.62C318.988 244.118 306.101 238.78 292.664 238.78H267.829C281.266 238.781 294.152 244.119 303.653 253.62C313.154 263.122 318.492 276.008 318.492 289.445V292.02C318.492 305.457 323.83 318.344 333.332 327.846C342.833 337.347 355.72 342.685 369.157 342.685C373.344 342.686 377.516 342.17 381.576 341.146C370.644 338.379 360.947 332.046 354.02 323.148C347.093 314.25 343.331 303.297 343.329 292.02ZM267.291 4.75509C183.286 5.04509 115.829 74.3941 115.829 158.4V323.052C115.829 336.489 121.167 349.376 130.669 358.878C140.17 368.379 153.057 373.717 166.494 373.717C170.681 373.718 174.853 373.202 178.913 372.178C167.981 369.411 158.284 363.078 151.357 354.18C144.43 345.282 140.668 334.329 140.666 323.052V186.564C181.25 182.208 224.203 185.617 258.555 195.842C309.621 211.042 366.321 204.142 414.339 188.436C416.305 187.793 418.155 186.841 419.82 185.615V156.75C419.82 136.745 415.871 116.936 408.2 98.4604C400.528 79.9845 389.284 63.2049 375.113 49.0839C360.943 34.9628 344.124 23.7781 325.621 16.1711C307.119 8.56418 287.296 4.68468 267.291 4.75509Z" fill="black"/>
<path d="M267.264 2.21742e-05C178.929 0.307022 108 73.229 108 161.564C108.001 163.959 108.52 166.325 109.521 168.501C110.522 170.677 111.981 172.61 113.8 174.169C115.618 175.728 117.752 176.875 120.055 177.532C122.358 178.188 124.776 178.339 127.143 177.974C171.527 171.182 220.361 174.13 258.56 185.5C309.625 200.7 366.326 193.8 414.344 178.094C418.206 176.844 421.574 174.404 423.966 171.123C426.357 167.843 427.65 163.89 427.658 159.83C427.658 138.793 423.506 117.963 415.438 98.535C407.371 79.1066 395.547 61.462 380.646 46.613C365.745 31.764 348.058 20.0027 328.602 12.0038C309.145 4.00491 288.301 -0.0743433 267.264 2.21742e-05Z" fill="#926D68"/>
<path d="M154.877 134.86C153.395 134.859 151.946 134.418 150.714 133.594C149.482 132.77 148.521 131.599 147.954 130.229C147.387 128.86 147.239 127.353 147.528 125.899C147.816 124.445 148.53 123.109 149.577 122.06L161.755 109.882C163.164 108.486 165.068 107.704 167.052 107.709C169.035 107.713 170.936 108.503 172.339 109.906C173.741 111.308 174.531 113.209 174.535 115.193C174.539 117.176 173.758 119.08 172.361 120.489L160.183 132.667C159.487 133.364 158.66 133.917 157.749 134.293C156.839 134.67 155.863 134.862 154.877 134.86Z" fill="white"/>
<path d="M369.496 155.808C368.013 155.807 366.565 155.366 365.333 154.542C364.1 153.718 363.14 152.547 362.573 151.177C362.006 149.808 361.857 148.301 362.146 146.847C362.435 145.393 363.148 144.057 364.196 143.008L376.374 130.829C377.063 130.102 377.891 129.521 378.808 129.12C379.725 128.718 380.714 128.505 381.715 128.491C382.716 128.478 383.71 128.665 384.638 129.042C385.566 129.419 386.409 129.978 387.117 130.686C387.825 131.394 388.384 132.236 388.762 133.164C389.139 134.091 389.327 135.085 389.314 136.086C389.302 137.088 389.088 138.076 388.688 138.994C388.287 139.911 387.706 140.739 386.98 141.429L374.799 153.61C374.103 154.308 373.277 154.861 372.367 155.238C371.457 155.616 370.481 155.809 369.496 155.808Z" fill="#F3DE6A"/>
<path d="M320.478 119.188C318.701 119.187 316.983 118.555 315.629 117.405C314.275 116.256 313.373 114.663 313.084 112.91C312.794 111.157 313.136 109.359 314.049 107.835C314.961 106.311 316.385 105.16 318.067 104.588L334.375 99.049C336.247 98.452 338.278 98.6133 340.032 99.4982C341.786 100.383 343.123 101.921 343.755 103.781C344.387 105.642 344.264 107.676 343.412 109.446C342.56 111.217 341.048 112.582 339.2 113.249L322.892 118.788C322.115 119.053 321.299 119.188 320.478 119.188Z" fill="#F5A85B"/>
<path d="M301.478 50.188C299.701 50.1867 297.983 49.5549 296.629 48.4052C295.275 47.2556 294.373 45.6626 294.084 43.91C293.794 42.1574 294.136 40.359 295.049 38.835C295.961 37.311 297.385 36.1604 299.067 35.588L315.375 30.049C317.247 29.452 319.278 29.6133 321.032 30.4982C322.786 31.3832 324.123 32.9211 324.755 34.7814C325.387 36.6417 325.264 38.6757 324.412 40.4462C323.56 42.2166 322.048 43.5821 320.2 44.249L303.892 49.788C303.115 50.0528 302.299 50.188 301.478 50.188Z" fill="#F5A85B"/>
<path d="M229.241 129.053C228.256 129.053 227.281 128.859 226.372 128.482C225.462 128.104 224.636 127.551 223.941 126.853L211.763 114.675C210.367 113.266 209.585 111.362 209.589 109.379C209.594 107.395 210.383 105.494 211.786 104.092C213.188 102.689 215.089 101.899 217.073 101.895C219.056 101.89 220.96 102.672 222.369 104.068L234.547 116.246C235.595 117.295 236.308 118.631 236.597 120.085C236.886 121.539 236.737 123.046 236.17 124.415C235.603 125.785 234.643 126.956 233.41 127.78C232.178 128.604 230.73 129.045 229.247 129.046L229.241 129.053Z" fill="#9DD3EC"/>
<path d="M210.241 60.053C209.256 60.0534 208.281 59.8593 207.372 59.4817C206.462 59.1042 205.636 58.5507 204.941 57.853L192.763 45.6751C191.367 44.2665 190.585 42.3621 190.589 40.3787C190.594 38.3953 191.383 36.4943 192.786 35.0917C194.188 33.6892 196.089 32.8992 198.073 32.8948C200.056 32.8904 201.96 33.6718 203.369 35.0681L215.547 47.2461C216.595 48.2949 217.308 49.6307 217.597 51.0847C217.886 52.5387 217.737 54.0457 217.17 55.4153C216.603 56.7849 215.643 57.9558 214.41 58.78C213.178 59.6042 211.73 60.0448 210.247 60.0461L210.241 60.053Z" fill="#9DD3EC"/>
<path d="M308.89 159.11C307.904 159.109 306.928 158.914 306.018 158.535L290.111 151.935C289.197 151.56 288.366 151.009 287.666 150.312C286.966 149.616 286.41 148.788 286.031 147.876C285.652 146.964 285.456 145.986 285.456 144.998C285.456 144.011 285.65 143.033 286.029 142.121C286.408 141.208 286.963 140.38 287.662 139.683C288.362 138.986 289.192 138.434 290.106 138.058C291.019 137.683 291.998 137.492 292.986 137.496C293.973 137.5 294.95 137.698 295.861 138.081L311.768 144.681C313.372 145.345 314.695 146.545 315.513 148.076C316.331 149.607 316.592 151.375 316.253 153.077C315.913 154.779 314.994 156.311 313.651 157.411C312.308 158.511 310.626 159.112 308.89 159.11Z" fill="#6CC5A4"/>
<path d="M275.89 82.11C274.904 82.1095 273.928 81.9141 273.018 81.535L257.111 74.935C256.197 74.5603 255.366 74.0089 254.666 73.3123C253.966 72.6157 253.41 71.7877 253.031 70.8758C252.652 69.9639 252.456 68.986 252.456 67.9984C252.456 67.0107 252.65 66.0328 253.029 65.1206C253.408 64.2084 253.963 63.38 254.662 62.6828C255.362 61.9857 256.192 61.4337 257.106 61.0583C258.019 60.683 258.998 60.4918 259.986 60.4957C260.973 60.4996 261.95 60.6985 262.861 61.081L278.768 67.681C280.372 68.3453 281.695 69.5453 282.513 71.0764C283.331 72.6074 283.592 74.3748 283.253 76.0771C282.913 77.7793 281.994 79.3111 280.651 80.4113C279.308 81.5114 277.626 82.1118 275.89 82.11Z" fill="#6CC5A4"/>
<path opacity="0.1" d="M280.683 0.518972C276.257 0.166972 271.783 -0.0150284 267.264 0.000971552C178.929 0.305972 108 73.23 108 161.564C108.001 163.959 108.52 166.325 109.521 168.501C110.522 170.677 111.981 172.61 113.8 174.169C115.618 175.728 117.752 176.875 120.055 177.531C122.358 178.188 124.776 178.339 127.143 177.974C132.135 177.21 137.177 176.571 142.27 176.057C139.685 174.622 137.532 172.521 136.034 169.973C134.536 167.424 133.747 164.521 133.75 161.565C133.75 77.38 198.17 7.19397 280.683 0.518972Z" fill="black"/>
<g opacity="0.1">
<path opacity="0.1" d="M251.799 445.517C255.956 445.517 259.326 442.147 259.326 437.99C259.326 433.833 255.956 430.463 251.799 430.463C247.642 430.463 244.272 433.833 244.272 437.99C244.272 442.147 247.642 445.517 251.799 445.517Z" fill="black"/>
<path opacity="0.1" d="M295.869 428.117C300.026 428.117 303.396 424.747 303.396 420.59C303.396 416.433 300.026 413.063 295.869 413.063C291.712 413.063 288.342 416.433 288.342 420.59C288.342 424.747 291.712 428.117 295.869 428.117Z" fill="black"/>
<path opacity="0.1" d="M280.679 478.547C284.836 478.547 288.206 475.177 288.206 471.02C288.206 466.863 284.836 463.493 280.679 463.493C276.522 463.493 273.152 466.863 273.152 471.02C273.152 475.177 276.522 478.547 280.679 478.547Z" fill="black"/>
<path opacity="0.1" d="M232.919 372.397C237.076 372.397 240.446 369.027 240.446 364.87C240.446 360.713 237.076 357.343 232.919 357.343C228.762 357.343 225.392 360.713 225.392 364.87C225.392 369.027 228.762 372.397 232.919 372.397Z" fill="black"/>
<path opacity="0.1" d="M295.869 329.947C300.026 329.947 303.396 326.577 303.396 322.42C303.396 318.263 300.026 314.893 295.869 314.893C291.712 314.893 288.342 318.263 288.342 322.42C288.342 326.577 291.712 329.947 295.869 329.947Z" fill="black"/>
<path opacity="0.1" d="M263.579 400.467C267.736 400.467 271.106 397.097 271.106 392.94C271.106 388.783 267.736 385.413 263.579 385.413C259.422 385.413 256.052 388.783 256.052 392.94C256.052 397.097 259.422 400.467 263.579 400.467Z" fill="black"/>
<path opacity="0.1" d="M310.919 379.917C315.076 379.917 318.446 376.547 318.446 372.39C318.446 368.233 315.076 364.863 310.919 364.863C306.762 364.863 303.392 368.233 303.392 372.39C303.392 376.547 306.762 379.917 310.919 379.917Z" fill="black"/>
<path opacity="0.1" d="M251.799 329.947C255.956 329.947 259.326 326.577 259.326 322.42C259.326 318.263 255.956 314.893 251.799 314.893C247.642 314.893 244.272 318.263 244.272 322.42C244.272 326.577 247.642 329.947 251.799 329.947Z" fill="black"/>
<path opacity="0.1" d="M275.359 292.817C279.516 292.817 282.886 289.447 282.886 285.29C282.886 281.133 279.516 277.763 275.359 277.763C271.202 277.763 267.832 281.133 267.832 285.29C267.832 289.447 271.202 292.817 275.359 292.817Z" fill="black"/>
</g>
</svg>
