<svg width="512" height="512" viewBox="0 0 512 512" fill="none" xmlns="http://www.w3.org/2000/svg">
<path d="M185.569 376.965L476.869 85.6649C478.677 83.857 480.111 81.7106 481.089 79.3484C482.068 76.9861 482.571 74.4543 482.571 71.8974C482.571 69.3406 482.068 66.8087 481.089 64.4465C480.111 62.0843 478.677 59.9379 476.869 58.1299C475.061 56.322 472.914 54.8878 470.552 53.9093C468.19 52.9309 465.658 52.4272 463.101 52.4272C460.544 52.4272 458.012 52.9309 455.65 53.9093C453.288 54.8878 451.142 56.322 449.334 58.1299L158.034 349.43C139.704 337.873 117.757 333.476 96.3897 337.081C75.0222 340.686 55.7327 352.039 42.2089 368.97C28.685 385.901 21.8755 407.223 23.0821 428.859C24.2887 450.495 33.4267 470.927 48.7493 486.249C64.0719 501.572 84.5041 510.71 106.14 511.917C127.776 513.123 149.097 506.314 166.029 492.79C182.96 479.266 194.313 459.976 197.918 438.609C201.523 417.241 197.126 395.295 185.569 376.965ZM76.2987 458.7C69.4235 451.825 64.7415 443.065 62.8447 433.529C60.9479 423.993 61.9215 414.109 65.6423 405.126C69.3631 396.143 75.664 388.465 83.7484 383.064C91.8327 377.662 101.337 374.779 111.06 374.779C120.783 374.779 130.288 377.662 138.372 383.064C146.456 388.465 152.757 396.143 156.478 405.126C160.199 414.109 161.172 423.993 159.276 433.529C157.379 443.065 152.697 451.825 145.822 458.7C136.594 467.904 124.093 473.073 111.06 473.073C98.0272 473.073 85.5261 467.904 76.2987 458.7Z" fill="#4E5660"/>
<path d="M435.072 72.3909L173.529 333.934C183.197 342.609 192.389 351.801 201.064 361.469L462.607 99.9259C453.9 90.2886 444.71 81.0985 435.072 72.3909Z" fill="#424952"/>
<path d="M485.846 175.117C455.194 123.145 411.852 79.8022 359.881 49.148C355.726 46.6983 350.875 45.6988 346.09 46.3069C341.305 46.9149 336.857 49.0959 333.447 52.5071L319.709 66.2461C317.361 68.5933 315.582 71.4467 314.507 74.5877C313.433 77.7287 313.091 81.0741 313.509 84.3675C313.927 87.6609 315.093 90.815 316.917 93.5883C318.742 96.3615 321.178 98.6803 324.037 100.367C369.666 127.279 407.719 165.332 434.631 210.961C436.318 213.82 438.637 216.256 441.41 218.081C444.183 219.906 447.337 221.072 450.631 221.489C453.924 221.907 457.27 221.566 460.411 220.491C463.552 219.416 466.405 217.637 468.752 215.289L482.49 201.551C485.902 198.141 488.083 193.693 488.69 188.908C489.298 184.123 488.297 179.271 485.846 175.117Z" fill="#89D47F"/>
<path d="M381.037 62.668C374.155 57.926 367.103 53.4193 359.881 49.148C355.727 46.6973 350.876 45.6967 346.091 46.3035C341.306 46.9102 336.858 49.09 333.447 52.5L319.709 66.242C317.361 68.5895 315.582 71.4433 314.507 74.5846C313.433 77.726 313.091 81.0716 313.509 84.3653C313.927 87.659 315.093 90.8134 316.917 93.587C318.742 96.3606 321.178 98.6798 324.037 100.367C348.77 114.965 371.375 132.898 391.217 153.66C375.728 127.961 370.709 87.121 381.037 62.668Z" fill="#5EC783"/>
<path d="M374.21 286.754C343.556 234.784 300.215 191.443 248.245 160.789C244.089 158.339 239.238 157.339 234.452 157.946C229.667 158.553 225.219 160.734 221.808 164.144L208.069 177.883C205.722 180.23 203.944 183.084 202.87 186.224C201.796 189.365 201.454 192.71 201.872 196.003C202.29 199.296 203.456 202.449 205.281 205.222C207.105 207.995 209.54 210.313 212.399 212C258.028 238.914 296.08 276.969 322.991 322.6C324.677 325.46 326.996 327.896 329.77 329.721C332.543 331.546 335.698 332.712 338.991 333.131C342.285 333.549 345.631 333.208 348.772 332.133C351.914 331.059 354.768 329.28 357.116 326.932L370.854 313.194C374.265 309.782 376.446 305.334 377.053 300.548C377.661 295.762 376.66 290.91 374.21 286.754Z" fill="#F7EF87"/>
<path d="M269.399 174.3C262.52 169.562 255.469 165.057 248.247 160.784C244.091 158.334 239.24 157.334 234.454 157.941C229.669 158.548 225.221 160.728 221.81 164.139L208.069 177.883C205.722 180.23 203.944 183.084 202.87 186.224C201.796 189.365 201.454 192.71 201.872 196.003C202.29 199.295 203.456 202.449 205.281 205.222C207.105 207.995 209.54 210.313 212.399 212C237.131 226.599 259.735 244.534 279.575 265.3C264.093 239.6 259.069 198.762 269.399 174.3Z" fill="#EFD176"/>
<path d="M237.569 364.613C218.025 339.538 195.46 316.972 170.385 297.429C166.778 294.618 163.809 291.073 161.676 287.029C159.543 282.984 158.294 278.532 158.012 273.968C157.731 269.404 158.422 264.832 160.042 260.555C161.661 256.279 164.171 252.396 167.405 249.163L185.686 230.878C192.813 223.752 202.299 219.476 212.359 218.855C222.418 218.234 232.358 221.311 240.307 227.507C265.384 247.048 287.95 269.614 307.491 294.691C313.687 302.64 316.764 312.58 316.143 322.639C315.522 332.699 311.246 342.185 304.12 349.312L285.835 367.593C282.602 370.827 278.719 373.336 274.442 374.955C270.166 376.574 265.594 377.266 261.03 376.984C256.466 376.702 252.014 375.453 247.97 373.321C243.925 371.188 240.38 368.22 237.569 364.613Z" fill="#D2996F"/>
<path d="M349.206 252.977C329.664 227.9 307.099 205.334 282.022 185.793C278.415 182.982 275.448 179.436 273.315 175.391C271.182 171.346 269.934 166.894 269.652 162.33C269.37 157.765 270.062 153.194 271.681 148.917C273.299 144.64 275.809 140.756 279.042 137.523L297.327 119.242C304.454 112.115 313.939 107.838 323.999 107.217C334.058 106.595 343.998 109.672 351.948 115.867C377.023 135.411 399.588 157.976 419.132 183.051C425.327 191.001 428.404 200.941 427.782 211C427.16 221.06 422.884 230.545 415.757 237.672L397.472 255.957C394.239 259.19 390.355 261.699 386.079 263.318C381.803 264.937 377.231 265.628 372.667 265.346C368.103 265.065 363.652 263.816 359.607 261.684C355.562 259.551 352.017 256.583 349.206 252.977Z" fill="#D2996F"/>
<path d="M353.991 117.512C353.304 116.969 352.636 116.407 351.948 115.867C343.998 109.672 334.058 106.595 323.999 107.217C313.939 107.838 304.454 112.115 297.327 119.242L279.042 137.523C275.809 140.756 273.299 144.64 271.681 148.917C270.062 153.194 269.37 157.765 269.652 162.33C269.934 166.894 271.182 171.346 273.315 175.391C275.448 179.436 278.415 182.982 282.022 185.793C307.098 205.335 329.663 227.901 349.206 252.977C353.341 258.283 359.032 262.165 365.482 264.077C371.932 265.99 378.819 265.839 385.179 263.645C359.827 232.719 347.276 164.785 353.991 117.512Z" fill="#C47B46"/>
<path d="M242.351 229.152C241.667 228.609 240.999 228.047 240.308 227.507C232.359 221.311 222.419 218.234 212.36 218.855C202.3 219.476 192.814 223.752 185.687 230.878L167.406 249.163C164.172 252.396 161.662 256.279 160.043 260.555C158.423 264.832 157.732 269.404 158.013 273.968C158.295 278.532 159.544 282.984 161.677 287.029C163.81 291.073 166.779 294.618 170.386 297.429C195.461 316.972 218.026 339.538 237.57 364.613C241.705 369.919 247.395 373.8 253.844 375.714C260.293 377.627 267.179 377.477 273.539 375.285C248.187 344.355 235.636 276.422 242.351 229.152Z" fill="#C47B46"/>
<path d="M219.312 282.059H205.386C203.397 282.059 201.489 281.269 200.082 279.862C198.676 278.456 197.886 276.548 197.886 274.559C197.886 272.57 198.676 270.662 200.082 269.256C201.489 267.849 203.397 267.059 205.386 267.059H219.312C221.301 267.059 223.209 267.849 224.615 269.256C226.022 270.662 226.812 272.57 226.812 274.559C226.812 276.548 226.022 278.456 224.615 279.862C223.209 281.269 221.301 282.059 219.312 282.059Z" fill="#D2996F"/>
<path d="M284.588 322.84H258.576C256.587 322.84 254.679 322.05 253.273 320.643C251.866 319.237 251.076 317.329 251.076 315.34C251.076 313.351 251.866 311.443 253.273 310.037C254.679 308.63 256.587 307.84 258.576 307.84H284.588C286.577 307.84 288.485 308.63 289.891 310.037C291.298 311.443 292.088 313.351 292.088 315.34C292.088 317.329 291.298 319.237 289.891 320.643C288.485 322.05 286.577 322.84 284.588 322.84Z" fill="#C47B46"/>
<path d="M332.214 168.313H320.014C318.025 168.313 316.117 167.523 314.71 166.116C313.304 164.71 312.514 162.802 312.514 160.813C312.514 158.824 313.304 156.916 314.71 155.51C316.117 154.103 318.025 153.313 320.014 153.313H332.214C334.203 153.313 336.11 154.103 337.517 155.51C338.923 156.916 339.714 158.824 339.714 160.813C339.714 162.802 338.923 164.71 337.517 166.116C336.11 167.523 334.203 168.313 332.214 168.313Z" fill="#D2996F"/>
<path d="M387.632 213.039H357.468C355.479 213.039 353.571 212.249 352.164 210.842C350.758 209.436 349.968 207.528 349.968 205.539C349.968 203.55 350.758 201.642 352.164 200.236C353.571 198.829 355.479 198.039 357.468 198.039H387.632C389.621 198.039 391.529 198.829 392.935 200.236C394.342 201.642 395.132 203.55 395.132 205.539C395.132 207.528 394.342 209.436 392.935 210.842C391.529 212.249 389.621 213.039 387.632 213.039Z" fill="#C47B46"/>
<path d="M166.14 175.676C164.657 175.675 163.209 175.234 161.976 174.41C160.744 173.586 159.784 172.415 159.217 171.045C158.65 169.676 158.501 168.169 158.79 166.715C159.079 165.261 159.792 163.925 160.84 162.876C166.535 157.18 169.734 149.456 169.734 141.402C169.734 133.347 166.535 125.623 160.84 119.927C152.345 111.41 147.574 99.8721 147.574 87.843C147.574 75.8139 152.345 64.2758 160.84 55.759L171.449 66.364C165.76 72.0635 162.564 79.7875 162.564 87.8405C162.564 95.8935 165.76 103.618 171.449 109.317C179.955 117.827 184.734 129.367 184.734 141.399C184.734 153.431 179.955 164.971 171.449 173.481C170.752 174.179 169.924 174.732 169.013 175.108C168.102 175.485 167.126 175.678 166.14 175.676Z" fill="#F2D98D"/>
<path d="M234.654 122.117C233.172 122.116 231.723 121.675 230.491 120.851C229.259 120.027 228.299 118.856 227.731 117.486C227.164 116.117 227.016 114.61 227.305 113.156C227.594 111.702 228.307 110.366 229.354 109.317C232.175 106.497 234.413 103.15 235.94 99.465C237.467 95.7803 238.253 91.8309 238.253 87.8425C238.253 83.854 237.467 79.9046 235.94 76.2199C234.413 72.5353 232.175 69.1875 229.354 66.368C220.859 57.8512 216.089 46.3131 216.089 34.284C216.089 22.2549 220.859 10.7167 229.354 2.19996C230.773 0.857573 232.659 0.121467 234.612 0.148162C236.565 0.174858 238.43 0.96225 239.811 2.34291C241.193 3.72357 241.981 5.58859 242.009 7.54141C242.036 9.49422 241.301 11.3808 239.959 12.8C237.138 15.6199 234.9 18.968 233.374 22.653C231.847 26.338 231.061 30.2877 231.061 34.2765C231.061 38.2652 231.847 42.215 233.374 45.9C234.9 49.585 237.138 52.933 239.959 55.753C248.454 64.2697 253.225 75.8079 253.225 87.837C253.225 99.8661 248.454 111.404 239.959 119.921C239.263 120.618 238.436 121.171 237.526 121.548C236.615 121.924 235.64 122.118 234.654 122.117Z" fill="#F2D98D"/>
</svg>
