<svg width="512" height="512" viewBox="0 0 512 512" fill="none" xmlns="http://www.w3.org/2000/svg">
<path d="M353.193 -8H160.859C157.371 -8.00013 153.918 -7.3133 150.696 -5.97874C147.474 -4.64417 144.546 -2.688 142.08 -0.221928C139.614 2.24414 137.658 5.17182 136.323 8.39392C134.989 11.616 134.302 15.0694 134.302 18.557V60.857L259.802 94.176L379.751 60.858V18.558C379.751 11.5145 376.953 4.75949 371.972 -0.221049C366.992 -5.20158 360.237 -7.99973 353.193 -8V-8Z" fill="#F3F5E6"/>
<path d="M296.453 171.922L183.169 121.944L51.004 171.922V473.022C51.0048 481.238 54.2692 489.118 60.0792 494.927C65.8892 500.736 73.7688 504 81.985 504H296.453L379.753 337.961L296.453 171.922Z" fill="#F3F5E6"/>
<path d="M379.75 133.05L296.45 171.922V504H432.067C440.284 504 448.164 500.736 453.974 494.926C459.784 489.116 463.048 481.236 463.048 473.019V171.919L379.75 133.05Z" fill="#D7D9CC"/>
<path d="M296.451 261.887H51V414.045H296.451V261.887Z" fill="#80E2FF"/>
<path d="M379.75 60.8589L296.45 171.922H463.05L379.75 60.8589Z" fill="#55C2E3"/>
<path d="M51.004 171.922L134.304 60.8589H379.75L296.45 171.922H51.004Z" fill="#80E2FF"/>
<path d="M463.042 261.887H296.451V414.045H463.042V261.887Z" fill="#55C2E3"/>
</svg>
