<svg width="512" height="512" viewBox="0 0 512 512" fill="none" xmlns="http://www.w3.org/2000/svg">
<path d="M256 279.595C237.745 279.595 219.9 274.182 204.721 264.04C189.542 253.897 177.712 239.482 170.726 222.617C163.74 205.751 161.912 187.193 165.474 169.288C169.035 151.384 177.826 134.937 190.734 122.029C203.643 109.121 220.089 100.33 237.993 96.7684C255.898 93.207 274.456 95.0349 291.322 102.021C308.188 109.007 322.603 120.837 332.745 136.016C342.887 151.194 348.3 169.04 348.3 187.295C348.274 211.766 338.541 235.228 321.237 252.532C303.933 269.836 280.472 279.568 256 279.595Z" fill="#FEE333"/>
<path d="M256 248.829C243.83 248.829 231.933 245.22 221.814 238.459C211.696 231.698 203.809 222.088 199.152 210.844C194.494 199.601 193.276 187.229 195.65 175.293C198.024 163.357 203.885 152.393 212.49 143.787C221.096 135.182 232.059 129.321 243.996 126.947C255.932 124.573 268.304 125.792 279.547 130.449C290.791 135.106 300.401 142.993 307.162 153.112C313.923 163.23 317.532 175.127 317.532 187.297C317.514 203.611 311.025 219.251 299.49 230.787C287.954 242.322 272.314 248.811 256 248.829Z" fill="#FECE00"/>
<path d="M256 218.06C272.992 218.06 286.766 204.285 286.766 187.294C286.766 170.302 272.992 156.528 256 156.528C239.009 156.528 225.234 170.302 225.234 187.294C225.234 204.285 239.009 218.06 256 218.06Z" fill="#FEE333"/>
<path d="M31.5386 183.656C30.4774 179.488 30.5051 175.117 31.6189 170.963C32.7328 166.808 34.8955 163.01 37.8996 159.932C40.8303 156.929 42.9619 153.24 44.0996 149.201C45.2639 145.06 47.4727 141.289 50.514 138.247C53.5553 135.206 57.3271 132.997 61.4676 131.833C65.5066 130.696 69.1961 128.564 72.1986 125.633C75.2774 122.63 79.0762 120.468 83.2306 119.355C87.385 118.242 91.7557 118.214 95.9236 119.276C99.9894 120.311 104.25 120.311 108.316 119.276C112.483 118.214 116.854 118.241 121.008 119.354C125.163 120.468 128.961 122.629 132.04 125.633C135.042 128.564 138.732 130.695 142.771 131.833C146.91 132.999 150.681 135.208 153.721 138.25C156.761 141.292 158.968 145.064 160.132 149.205C161.269 153.244 163.4 156.933 166.332 159.936C169.335 163.014 171.497 166.813 172.61 170.967C173.723 175.121 173.75 179.492 172.689 183.66C171.654 187.726 171.654 191.986 172.689 196.052C173.75 200.22 173.723 204.59 172.61 208.744C171.497 212.899 169.335 216.697 166.332 219.776C163.401 222.779 161.269 226.468 160.132 230.507C158.967 234.647 156.758 238.419 153.717 241.46C150.676 244.502 146.904 246.71 142.764 247.875C138.725 249.012 135.035 251.144 132.033 254.075C128.954 257.078 125.156 259.24 121.001 260.353C116.847 261.467 112.476 261.494 108.309 260.432C104.243 259.397 99.9824 259.397 95.9166 260.432C91.7487 261.494 87.3779 261.467 83.2234 260.354C79.0689 259.24 75.2702 257.078 72.1916 254.075C69.1888 251.144 65.4994 249.013 61.4606 247.875C57.3199 246.71 53.5479 244.501 50.5066 241.46C47.4653 238.418 45.2566 234.646 44.0926 230.505C42.9554 226.466 40.8237 222.776 37.8926 219.774C34.8892 216.695 32.7273 212.897 31.6141 208.742C30.5009 204.588 30.4739 200.218 31.5356 196.05C32.5719 191.984 32.573 187.723 31.5386 183.656Z" fill="#A8503C"/>
<path d="M103.1 254.068C100.097 251.137 96.4074 249.006 92.3686 247.868C88.2286 246.704 84.457 244.496 81.4155 241.456C78.3741 238.416 76.1648 234.645 74.9996 230.505C73.8624 226.466 71.7308 222.777 68.7996 219.774C65.7963 216.696 63.6343 212.897 62.5211 208.743C61.408 204.588 61.3809 200.218 62.4426 196.05C63.4777 191.984 63.4777 187.724 62.4426 183.658C61.3806 179.49 61.4074 175.119 62.5206 170.964C63.6338 166.81 65.7959 163.011 68.7996 159.932C71.7298 156.93 73.8613 153.242 74.9996 149.205C76.164 145.065 78.3727 141.293 81.4141 138.251C84.4554 135.21 88.2272 133.001 92.3676 131.837C96.4069 130.7 100.096 128.569 103.099 125.637C107.032 121.803 112.114 119.365 117.567 118.699C114.472 118.315 111.332 118.512 108.31 119.28C104.244 120.315 99.9835 120.315 95.9176 119.28C91.7495 118.217 87.3782 118.244 83.2231 119.356C79.0681 120.469 75.2687 122.631 72.1896 125.635C69.1868 128.566 65.4974 130.697 61.4586 131.835C57.3179 132.999 53.546 135.209 50.5046 138.25C47.4633 141.292 45.2547 145.064 44.0906 149.205C42.9534 153.244 40.8218 156.933 37.8906 159.936C34.8873 163.014 32.7253 166.813 31.6121 170.967C30.499 175.122 30.4719 179.492 31.5336 183.66C32.5687 187.726 32.5687 191.986 31.5336 196.052C30.4719 200.22 30.499 204.59 31.6121 208.745C32.7253 212.899 34.8873 216.698 37.8906 219.776C40.8212 222.779 42.9527 226.468 44.0906 230.507C45.255 234.647 47.4637 238.419 50.5051 241.461C53.5464 244.502 57.3182 246.711 61.4586 247.875C65.4976 249.012 69.1871 251.144 72.1896 254.075C75.2682 257.079 79.067 259.241 83.2214 260.354C87.3759 261.467 91.7468 261.494 95.9146 260.432C99.9805 259.397 104.241 259.397 108.307 260.432C111.329 261.2 114.469 261.397 117.564 261.013C112.112 260.344 107.03 257.904 103.1 254.068Z" fill="#993E29"/>
<path d="M480.461 183.656C481.523 179.488 481.496 175.118 480.382 170.963C479.269 166.809 477.107 163.011 474.104 159.932C471.173 156.929 469.042 153.24 467.904 149.201C466.74 145.061 464.531 141.289 461.49 138.247C458.448 135.206 454.676 132.997 450.536 131.833C446.497 130.696 442.808 128.564 439.805 125.633C436.727 122.63 432.928 120.468 428.774 119.355C424.619 118.241 420.249 118.214 416.081 119.276C412.015 120.311 407.755 120.311 403.689 119.276C399.521 118.214 395.15 118.241 390.996 119.354C386.841 120.467 383.043 122.629 379.964 125.633C376.961 128.564 373.272 130.695 369.233 131.833C365.093 132.998 361.321 135.208 358.28 138.25C355.239 141.292 353.031 145.064 351.868 149.205C350.731 153.244 348.599 156.933 345.668 159.936C342.665 163.015 340.503 166.813 339.389 170.967C338.276 175.122 338.249 179.492 339.311 183.66C340.346 187.726 340.346 191.986 339.311 196.052C338.249 200.22 338.276 204.59 339.389 208.745C340.503 212.899 342.665 216.698 345.668 219.776C348.599 222.779 350.731 226.468 351.868 230.507C353.032 234.647 355.241 238.419 358.282 241.461C361.324 244.502 365.096 246.711 369.236 247.875C373.275 249.012 376.964 251.144 379.967 254.075C383.046 257.079 386.844 259.241 390.999 260.354C395.153 261.467 399.524 261.494 403.692 260.432C407.758 259.397 412.018 259.397 416.084 260.432C420.252 261.494 424.622 261.467 428.777 260.354C432.931 259.24 436.73 257.078 439.808 254.075C442.811 251.144 446.5 249.013 450.539 247.875C454.68 246.711 458.452 244.501 461.493 241.46C464.534 238.418 466.743 234.646 467.907 230.505C469.044 226.466 471.176 222.777 474.107 219.774C477.11 216.696 479.272 212.897 480.385 208.743C481.499 204.588 481.526 200.218 480.464 196.05C479.428 191.984 479.427 187.723 480.461 183.656Z" fill="#A8503C"/>
<path d="M410.873 254.068C407.87 251.137 404.181 249.006 400.142 247.868C396.002 246.704 392.231 244.496 389.189 241.456C386.148 238.415 383.939 234.644 382.774 230.505C381.637 226.466 379.505 222.776 376.574 219.774C373.571 216.695 371.409 212.897 370.295 208.743C369.182 204.588 369.155 200.218 370.217 196.05C371.252 191.984 371.252 187.724 370.217 183.658C369.155 179.49 369.182 175.12 370.295 170.965C371.409 166.811 373.571 163.012 376.574 159.934C379.505 156.931 381.636 153.242 382.774 149.203C383.938 145.062 386.147 141.291 389.188 138.249C392.23 135.208 396.002 132.999 400.142 131.835C404.181 130.698 407.871 128.567 410.873 125.635C414.806 121.801 419.889 119.363 425.341 118.697C422.246 118.313 419.107 118.51 416.084 119.278C412.018 120.313 407.758 120.313 403.692 119.278C399.524 118.216 395.153 118.243 390.999 119.356C386.844 120.469 383.046 122.631 379.967 125.634C376.964 128.565 373.275 130.696 369.236 131.834C365.095 132.999 361.323 135.208 358.282 138.25C355.24 141.292 353.032 145.064 351.868 149.205C350.731 153.244 348.599 156.933 345.668 159.936C342.665 163.014 340.503 166.813 339.389 170.967C338.276 175.122 338.249 179.492 339.311 183.66C340.346 187.726 340.346 191.986 339.311 196.052C338.249 200.22 338.276 204.59 339.389 208.745C340.503 212.899 342.665 216.697 345.668 219.776C348.599 222.779 350.73 226.468 351.868 230.507C353.032 234.647 355.241 238.419 358.282 241.461C361.324 244.502 365.096 246.711 369.236 247.875C373.275 249.012 376.964 251.144 379.967 254.075C383.046 257.078 386.844 259.241 390.999 260.354C395.153 261.467 399.524 261.494 403.692 260.432C407.758 259.397 412.018 259.397 416.084 260.432C419.107 261.2 422.246 261.397 425.341 261.013C419.888 260.345 414.805 257.905 410.873 254.068Z" fill="#993E29"/>
<path d="M130.933 368.805C149.188 368.805 167.033 363.392 182.212 353.25C197.391 343.107 209.221 328.692 216.207 311.827C223.193 294.961 225.021 276.402 221.459 258.498C217.898 240.594 209.107 224.147 196.199 211.239C183.29 198.331 166.844 189.54 148.94 185.978C131.035 182.417 112.477 184.245 95.6111 191.231C78.7455 198.217 64.3302 210.047 54.1882 225.226C44.0461 240.404 38.6328 258.25 38.6328 276.505C38.6593 300.976 48.3922 324.438 65.6961 341.742C83 359.045 106.461 368.778 130.933 368.805Z" fill="#FECE00"/>
<path d="M130.933 338.035C143.103 338.035 155 334.426 165.119 327.664C175.237 320.903 183.124 311.293 187.781 300.049C192.438 288.805 193.656 276.433 191.282 264.497C188.907 252.561 183.047 241.597 174.441 232.992C165.835 224.387 154.871 218.527 142.935 216.153C130.999 213.779 118.627 214.998 107.383 219.655C96.1401 224.313 86.5303 232.2 79.7694 242.319C73.0084 252.438 69.4 264.335 69.4004 276.505C69.4189 292.819 75.9079 308.459 87.4436 319.994C98.9794 331.529 114.62 338.017 130.933 338.035Z" fill="#FEE333"/>
<path d="M130.936 307.273C147.928 307.273 161.702 293.499 161.702 276.507C161.702 259.515 147.928 245.741 130.936 245.741C113.944 245.741 100.17 259.515 100.17 276.507C100.17 293.499 113.944 307.273 130.936 307.273Z" fill="#FECE00"/>
<path d="M381.067 368.805C362.811 368.805 344.966 363.392 329.788 353.25C314.609 343.107 302.779 328.692 295.793 311.827C288.807 294.961 286.979 276.402 290.54 258.498C294.102 240.594 302.892 224.147 315.801 211.239C328.709 198.331 345.155 189.54 363.06 185.978C380.964 182.417 399.523 184.245 416.388 191.231C433.254 198.217 447.669 210.047 457.811 225.226C467.953 240.404 473.367 258.25 473.367 276.505C473.34 300.976 463.607 324.438 446.303 341.742C428.999 359.045 405.538 368.778 381.067 368.805Z" fill="#FECE00"/>
<path d="M381.067 338.035C368.897 338.035 357.001 334.426 346.882 327.664C336.763 320.903 328.877 311.293 324.22 300.049C319.563 288.805 318.344 276.433 320.719 264.497C323.093 252.561 328.954 241.597 337.56 232.992C346.165 224.387 357.129 218.527 369.065 216.153C381.002 213.779 393.374 214.998 404.617 219.655C415.86 224.313 425.47 232.2 432.231 242.319C438.992 252.438 442.601 264.335 442.6 276.505C442.582 292.819 436.093 308.459 424.557 319.994C413.021 331.529 397.381 338.017 381.067 338.035Z" fill="#FEE333"/>
<path d="M381.064 307.273C398.055 307.273 411.83 293.499 411.83 276.507C411.83 259.515 398.055 245.741 381.064 245.741C364.072 245.741 350.298 259.515 350.298 276.507C350.298 293.499 364.072 307.273 381.064 307.273Z" fill="#FECE00"/>
<path d="M185.427 249.732C184.365 245.564 184.393 241.193 185.506 237.039C186.619 232.885 188.781 229.086 191.784 226.008C194.715 223.005 196.846 219.316 197.984 215.277C199.148 211.136 201.356 207.364 204.397 204.322C207.437 201.28 211.209 199.07 215.349 197.905C219.388 196.768 223.078 194.636 226.08 191.705C229.159 188.703 232.957 186.543 237.111 185.431C241.264 184.319 245.634 184.293 249.8 185.355C253.866 186.39 258.126 186.39 262.192 185.355C266.36 184.293 270.731 184.32 274.885 185.433C279.039 186.547 282.838 188.708 285.916 191.712C288.919 194.643 292.608 196.774 296.647 197.912C300.788 199.076 304.559 201.285 307.601 204.326C310.642 207.368 312.851 211.139 314.015 215.28C315.152 219.319 317.284 223.008 320.215 226.011C323.219 229.089 325.381 232.888 326.494 237.042C327.607 241.196 327.634 245.567 326.572 249.735C325.537 253.801 325.537 258.061 326.572 262.127C327.634 266.295 327.607 270.666 326.494 274.82C325.381 278.975 323.219 282.773 320.215 285.852C317.284 288.855 315.153 292.544 314.015 296.583C312.851 300.723 310.642 304.495 307.601 307.536C304.559 310.578 300.788 312.787 296.647 313.951C292.608 315.088 288.919 317.22 285.916 320.151C282.838 323.152 279.041 325.313 274.888 326.426C270.735 327.538 266.367 327.565 262.2 326.505C258.134 325.47 253.874 325.47 249.808 326.505C245.64 327.567 241.27 327.54 237.116 326.426C232.961 325.313 229.163 323.151 226.084 320.148C223.081 317.217 219.392 315.086 215.353 313.948C211.213 312.783 207.441 310.575 204.4 307.533C201.358 304.492 199.15 300.72 197.985 296.58C196.848 292.541 194.716 288.851 191.785 285.849C188.782 282.77 186.62 278.972 185.506 274.817C184.393 270.663 184.366 266.292 185.428 262.124C186.464 258.058 186.464 253.797 185.427 249.732Z" fill="#A8503C"/>
<path d="M256.985 320.144C253.983 317.212 250.293 315.081 246.254 313.944C242.114 312.779 238.342 310.571 235.301 307.529C232.259 304.488 230.051 300.716 228.886 296.576C227.749 292.537 225.617 288.847 222.686 285.845C219.683 282.766 217.521 278.968 216.408 274.814C215.295 270.659 215.268 266.289 216.329 262.121C217.364 258.055 217.364 253.795 216.329 249.729C215.268 245.561 215.295 241.19 216.408 237.036C217.521 232.882 219.683 229.083 222.686 226.005C225.617 223.002 227.748 219.313 228.886 215.274C230.051 211.133 232.259 207.362 235.301 204.32C238.342 201.279 242.114 199.07 246.254 197.906C250.293 196.769 253.983 194.637 256.985 191.706C260.918 187.872 266.001 185.434 271.453 184.768C268.358 184.384 265.219 184.581 262.196 185.349C258.13 186.384 253.87 186.384 249.804 185.349C245.637 184.287 241.266 184.314 237.112 185.427C232.957 186.54 229.159 188.702 226.08 191.706C223.077 194.637 219.388 196.768 215.349 197.906C211.209 199.07 207.437 201.279 204.396 204.32C201.354 207.362 199.146 211.133 197.981 215.274C196.844 219.313 194.712 223.002 191.781 226.005C188.778 229.083 186.616 232.882 185.503 237.036C184.39 241.19 184.363 245.561 185.424 249.729C186.459 253.795 186.459 258.055 185.424 262.121C184.363 266.289 184.39 270.659 185.503 274.814C186.616 278.968 188.778 282.766 191.781 285.845C194.712 288.848 196.844 292.537 197.981 296.576C199.146 300.716 201.354 304.488 204.396 307.529C207.437 310.571 211.209 312.779 215.349 313.944C219.388 315.081 223.078 317.213 226.08 320.144C229.158 323.147 232.956 325.31 237.109 326.423C241.263 327.537 245.633 327.565 249.8 326.505C253.866 325.47 258.126 325.47 262.192 326.505C265.215 327.273 268.354 327.47 271.449 327.086C265.998 326.418 260.917 323.979 256.985 320.144Z" fill="#993E29"/>
<path d="M256 296.705L22.5693 319.271L37.8003 359.287C44.1742 376.026 55.4849 390.433 70.2331 400.598C84.9813 410.763 102.47 416.206 120.382 416.205H391.616C409.529 416.206 427.018 410.764 441.767 400.599C456.515 390.434 467.826 376.027 474.2 359.287L489.434 319.271L256 296.705Z" fill="#A2DDFD"/>
<path d="M489.431 274.133H22.569C19.605 274.133 16.67 274.717 13.9317 275.851C11.1933 276.986 8.70528 278.648 6.60954 280.744C4.5138 282.84 2.85144 285.329 1.71737 288.067C0.583301 290.806 -0.000262565 293.741 8.86233e-08 296.705C0.000265284 302.69 2.37815 308.431 6.6106 312.663C10.8431 316.896 16.5834 319.274 22.569 319.274H489.431C495.417 319.274 501.157 316.896 505.389 312.663C509.622 308.431 512 302.69 512 296.705C512 293.741 511.417 290.806 510.283 288.067C509.149 285.329 507.487 282.84 505.391 280.744C503.295 278.648 500.807 276.985 498.068 275.851C495.33 274.717 492.395 274.133 489.431 274.133Z" fill="#6A95D6"/>
</svg>
