<svg width="518" height="512" viewBox="0 0 518 512" fill="none" xmlns="http://www.w3.org/2000/svg">
<path d="M35.0295 234.198C35.0295 234.198 99.8215 128 262.001 128C424.18 128 488.973 234.2 488.973 234.2V257.877H450.288L405.909 242.866L332.161 257.875L262.001 243.516L193.801 257.874L123.316 243.516L58.0515 257.874H35.0295V234.198Z" fill="#FDCA74"/>
<path d="M71.0855 243.122C71.0855 243.122 125.901 153.278 259.233 128.029C99.1005 129.234 35.0295 234.198 35.0295 234.198V257.875H58.0535L71.0865 255.007V243.122H71.0855Z" fill="#E6B25B"/>
<path d="M27.1005 273.612C27.1005 327.712 48.9125 384.486 82.2005 384.486H441.8C475.084 384.486 496.9 327.707 496.9 273.612L488.975 257.875H450.286L405.907 242.864L332.159 257.875L262 243.516L193.8 257.874L123.315 243.516L58.0515 257.874H35.0295L27.1005 273.612Z" fill="#FA7578"/>
<path d="M69.3405 273.612L77.2655 257.875H100.289L145.246 247.984L123.316 243.517L58.0525 257.876H35.0295L27.1005 273.613C27.1005 327.713 48.9125 384.486 82.2005 384.486H124.437C91.1525 384.486 69.3405 327.707 69.3405 273.612Z" fill="#F9545B"/>
<path d="M262.001 188.263C260.986 188.263 259.981 188.063 259.044 187.675C258.106 187.287 257.255 186.718 256.537 186C255.82 185.283 255.251 184.431 254.862 183.494C254.474 182.556 254.275 181.552 254.275 180.537V158.342C254.275 156.293 255.089 154.328 256.538 152.879C257.986 151.43 259.952 150.616 262.001 150.616C264.05 150.616 266.015 151.43 267.464 152.879C268.913 154.328 269.727 156.293 269.727 158.342V180.532C269.727 181.547 269.528 182.552 269.14 183.49C268.752 184.428 268.183 185.281 267.466 185.999C266.748 186.717 265.896 187.286 264.959 187.675C264.021 188.063 263.016 188.263 262.001 188.263Z" fill="#FA7578"/>
<path d="M176.41 188.592C175.154 188.591 173.918 188.284 172.807 187.697C171.697 187.111 170.746 186.263 170.037 185.227C169.328 184.19 168.882 182.997 168.738 181.75C168.594 180.502 168.756 179.239 169.21 178.068C173.486 167.05 184.224 159.601 185.434 158.787C187.133 157.665 189.207 157.259 191.204 157.658C193.202 158.057 194.961 159.228 196.099 160.917C197.237 162.606 197.662 164.676 197.282 166.677C196.902 168.678 195.748 170.448 194.07 171.602C191.883 173.093 185.751 178.159 183.617 183.659C183.052 185.112 182.062 186.36 180.776 187.24C179.49 188.12 177.968 188.592 176.41 188.592Z" fill="#FA7578"/>
<path d="M347.594 188.592C346.036 188.591 344.516 188.119 343.231 187.239C341.946 186.359 340.957 185.111 340.394 183.659C338.258 178.159 332.122 173.088 329.938 171.6C328.245 170.452 327.077 168.679 326.689 166.671C326.301 164.663 326.725 162.583 327.869 160.887C329.012 159.191 330.781 158.018 332.788 157.625C334.795 157.231 336.877 157.649 338.576 158.788C339.786 159.601 350.525 167.051 354.801 178.069C355.255 179.24 355.417 180.503 355.273 181.751C355.129 182.998 354.683 184.192 353.974 185.228C353.265 186.264 352.314 187.112 351.203 187.698C350.093 188.284 348.856 188.591 347.601 188.592H347.594Z" fill="#FA7578"/>
<path d="M194.453 279.677C179.333 279.663 164.464 275.817 151.234 268.498C143.789 264.371 135.417 262.206 126.905 262.206C118.392 262.206 110.02 264.371 102.576 268.498C89.3506 275.83 74.4778 279.677 59.3565 279.677C44.2352 279.677 29.3624 275.83 16.1375 268.498C11.5891 265.993 8.22203 261.784 6.77716 256.796C5.33228 251.808 5.92791 246.451 8.43301 241.903C10.9381 237.354 15.1475 233.987 20.1351 232.542C25.1227 231.097 30.4801 231.693 35.0285 234.198C42.4729 238.326 50.8452 240.492 59.3575 240.492C67.8698 240.492 76.2421 238.326 83.6865 234.198C96.9114 226.866 111.784 223.019 126.906 223.019C142.027 223.019 156.9 226.866 170.125 234.198C177.569 238.326 185.941 240.492 194.454 240.492C202.966 240.492 211.338 238.326 218.783 234.198C232.008 226.866 246.88 223.02 262.002 223.02C277.123 223.02 291.996 226.866 305.221 234.198C312.665 238.325 321.037 240.491 329.55 240.491C338.062 240.491 346.434 238.325 353.879 234.198C367.104 226.867 381.976 223.02 397.098 223.02C412.219 223.02 427.091 226.867 440.317 234.198C447.761 238.325 456.133 240.491 464.646 240.491C473.158 240.491 481.53 238.325 488.975 234.198C493.521 231.719 498.864 231.142 503.835 232.593C508.806 234.045 513 237.406 515.498 241.943C517.996 246.479 518.595 251.82 517.165 256.797C515.734 261.774 512.39 265.981 507.865 268.498C494.64 275.83 479.767 279.677 464.646 279.677C449.524 279.677 434.651 275.83 421.427 268.498C413.982 264.372 405.609 262.207 397.098 262.207C388.586 262.207 380.214 264.372 372.769 268.498C359.544 275.83 344.671 279.677 329.55 279.677C314.428 279.677 299.555 275.83 286.331 268.498C278.886 264.372 270.513 262.207 262.002 262.207C253.49 262.207 245.118 264.372 237.673 268.498C224.442 275.816 209.572 279.662 194.453 279.677Z" fill="#E6B25B"/>
</svg>
