<svg width="513" height="512" viewBox="0 0 513 512" fill="none" xmlns="http://www.w3.org/2000/svg">
<path d="M511.865 13.571C511.698 10.0613 510.229 6.73986 507.745 4.25535C505.26 1.77083 501.939 0.30174 498.429 0.135017C370.01 -5.86498 74.851 189.384 74.851 189.384L50.8 241.478L142.56 369.439L273.055 463.739L322.616 437.156C322.616 437.156 517.867 141.991 511.865 13.571Z" fill="#FEE333"/>
<path d="M322.831 436.827C322.845 436.804 322.856 436.789 322.872 436.765C327.516 429.711 331.972 422.539 336.572 415.455C336.583 415.436 336.595 415.42 336.606 415.401C381.206 344.885 516.885 120.945 511.867 13.572C511.7 10.0621 510.231 6.7405 507.746 4.25596C505.262 1.77142 501.94 0.302434 498.43 0.135953C495.922 0.0189527 493.343 -0.0120473 490.711 0.0209527C491.022 1.07846 491.207 2.16902 491.262 3.26995C496.293 110.934 359.875 335.788 315.646 405.661C283.685 390.326 231.197 361.445 190.878 321.125C142.3 272.549 110.055 205.593 98.447 179.063C97.894 177.799 97.2811 176.575 96.6231 175.383C82.7881 184.134 74.852 189.383 74.852 189.383L50.8 241.478L142.56 369.439L273.055 463.739L322.616 437.156L322.672 437.072C322.678 437.063 322.684 437.053 322.692 437.043C322.726 436.986 322.772 436.916 322.831 436.827Z" fill="#FECE00"/>
<path d="M318.271 499.772L332.64 460.725C334.286 456.256 334.161 451.327 332.291 446.948C330.421 442.568 326.947 439.069 322.581 437.167C291.871 423.78 223.861 390.531 172.665 339.335C121.734 288.4 88.3102 220.146 74.8502 189.383C72.9439 185.023 69.4442 181.557 65.0668 179.692C60.6893 177.827 55.7648 177.705 51.3002 179.35L12.2282 193.73C9.84772 194.605 7.67067 195.957 5.82994 197.702C3.98921 199.446 2.52342 201.548 1.52207 203.878C0.520716 206.209 0.00481404 208.719 0.00586097 211.255C0.00690789 213.791 0.524882 216.301 1.52816 218.63C16.7592 254.01 60.0762 328.718 121.679 390.321C183.282 451.924 257.99 495.242 293.37 510.473C295.7 511.476 298.209 511.994 300.746 511.995C303.282 511.996 305.792 511.48 308.122 510.479C310.453 509.477 312.555 508.011 314.299 506.171C316.044 504.33 317.396 502.153 318.271 499.772Z" fill="#FB8D4B"/>
<path d="M322.582 437.168C318.104 435.216 312.812 432.828 306.915 430.037C309.719 432.527 311.708 435.804 312.622 439.441C313.535 443.078 313.332 446.906 312.037 450.425L297.668 489.471C296.793 491.852 295.442 494.029 293.697 495.87C291.952 497.711 289.85 499.177 287.52 500.178C285.19 501.179 282.68 501.695 280.143 501.694C277.607 501.693 275.098 501.175 272.768 500.171C270.978 499.399 269.06 498.538 267.074 497.624C277.185 503.024 286.116 507.349 293.374 510.472C295.704 511.475 298.213 511.993 300.749 511.994C303.286 511.995 305.796 511.48 308.126 510.478C310.456 509.477 312.558 508.011 314.303 506.17C316.047 504.33 317.399 502.153 318.274 499.772L332.643 460.726C334.289 456.257 334.163 451.328 332.293 446.948C330.423 442.569 326.948 439.07 322.582 437.168Z" fill="#E86D24"/>
<path d="M423.787 129.309C442.108 129.309 456.959 114.457 456.959 96.1371C456.959 77.8167 442.108 62.9651 423.787 62.9651C405.467 62.9651 390.615 77.8167 390.615 96.1371C390.615 114.457 405.467 129.309 423.787 129.309Z" fill="#FECE00"/>
<path d="M413.485 119.007C431.805 119.007 446.657 104.155 446.657 85.8351C446.657 67.5147 431.805 52.6631 413.485 52.6631C395.165 52.6631 380.313 67.5147 380.313 85.8351C380.313 104.155 395.165 119.007 413.485 119.007Z" fill="#F9545B"/>
<path d="M303.719 360.018C326.119 360.018 344.277 341.86 344.277 319.46C344.277 297.061 326.119 278.902 303.719 278.902C281.32 278.902 263.161 297.061 263.161 319.46C263.161 341.86 281.32 360.018 303.719 360.018Z" fill="#FECE00"/>
<path d="M314.021 349.716C336.421 349.716 354.579 331.558 354.579 309.158C354.579 286.759 336.421 268.6 314.021 268.6C291.622 268.6 273.463 286.759 273.463 309.158C273.463 331.558 291.622 349.716 314.021 349.716Z" fill="#E64047"/>
<path d="M212.208 295.188C228.258 295.188 241.269 282.177 241.269 266.127C241.269 250.077 228.258 237.066 212.208 237.066C196.158 237.066 183.147 250.077 183.147 266.127C183.147 282.177 196.158 295.188 212.208 295.188Z" fill="#FECE00"/>
<path d="M353.208 203.188C369.258 203.188 382.269 190.177 382.269 174.127C382.269 158.077 369.258 145.066 353.208 145.066C337.158 145.066 324.147 158.077 324.147 174.127C324.147 190.177 337.158 203.188 353.208 203.188Z" fill="#FECE00"/>
<path d="M201.907 305.49C217.957 305.49 230.968 292.479 230.968 276.429C230.968 260.379 217.957 247.368 201.907 247.368C185.857 247.368 172.846 260.379 172.846 276.429C172.846 292.479 185.857 305.49 201.907 305.49Z" fill="#F9545B"/>
<path d="M342.907 213.49C358.957 213.49 371.968 200.479 371.968 184.429C371.968 168.379 358.957 155.368 342.907 155.368C326.857 155.368 313.846 168.379 313.846 184.429C313.846 200.479 326.857 213.49 342.907 213.49Z" fill="#F9545B"/>
<path d="M248.388 223.447C269.508 223.447 286.628 206.326 286.628 185.207C286.628 164.088 269.508 146.967 248.388 146.967C227.269 146.967 210.148 164.088 210.148 185.207C210.148 206.326 227.269 223.447 248.388 223.447Z" fill="#FECE00"/>
<path d="M238.086 213.145C259.206 213.145 276.326 196.024 276.326 174.905C276.326 153.786 259.206 136.665 238.086 136.665C216.967 136.665 199.846 153.786 199.846 174.905C199.846 196.024 216.967 213.145 238.086 213.145Z" fill="#E64047"/>
</svg>
