<svg width="513" height="512" viewBox="0 0 513 512" fill="none" xmlns="http://www.w3.org/2000/svg">
<path d="M479.677 270.484C484.42 263.964 486.975 256.108 486.975 248.045C486.975 239.981 484.42 232.126 479.677 225.605C476.265 220.913 473.968 215.504 472.961 209.79C471.954 204.076 472.263 198.208 473.865 192.632C476.091 184.882 475.805 176.625 473.047 169.048C470.288 161.471 465.201 154.962 458.513 150.456C453.702 147.214 449.693 142.916 446.792 137.891C443.892 132.865 442.176 127.245 441.775 121.456C441.216 113.412 438.123 105.751 432.939 99.574C427.756 93.3968 420.749 89.0205 412.923 87.0731C407.293 85.673 402.056 83.0069 397.612 79.2778C393.167 75.5486 389.632 70.8546 387.275 65.5531C384 58.1849 378.474 52.0441 371.491 48.0123C364.508 43.9804 356.427 42.2649 348.408 43.1121C342.638 43.7209 336.805 43.0058 331.353 41.0211C325.9 39.0365 320.972 35.8347 316.943 31.6591C311.345 25.8561 304.051 21.976 296.11 20.5759C288.169 19.1758 279.989 20.3277 272.743 23.8661C267.53 26.4125 261.804 27.7361 256.001 27.7361C250.199 27.7361 244.473 26.4125 239.259 23.8661C232.014 20.3278 223.833 19.1761 215.892 20.5761C207.951 21.9762 200.658 25.8562 195.059 31.6591C191.031 35.8352 186.103 39.0374 180.65 41.0221C175.198 43.0067 169.365 43.7216 163.594 43.1121C155.576 42.2654 147.495 43.9811 140.512 48.0129C133.529 52.0447 128.003 58.1852 124.727 65.5531C122.371 70.8546 118.835 75.5486 114.391 79.2778C109.946 83.0069 104.71 85.673 99.0793 87.0731C91.2534 89.0202 84.2458 93.3972 79.0628 99.5756C73.8798 105.754 70.788 113.416 70.2313 121.461C69.8295 127.25 68.1127 132.871 65.2116 137.896C62.3104 142.921 58.3013 147.218 53.4893 150.461C46.802 154.967 41.7142 161.476 38.9561 169.053C36.198 176.63 35.9113 184.887 38.1373 192.637C39.7403 198.213 40.0499 204.082 39.0428 209.795C38.0356 215.509 35.7382 220.918 32.3253 225.61C27.5823 232.131 25.0273 239.986 25.0273 248.05C25.0273 256.113 27.5823 263.969 32.3253 270.489L479.677 270.484Z" fill="#E9E9E9"/>
<path d="M63.2283 225.605C66.6419 220.913 68.9401 215.503 69.9479 209.789C70.9558 204.074 70.6467 198.205 69.0443 192.628C66.8178 184.879 67.1037 176.623 69.8612 169.046C72.6186 161.47 77.7057 154.962 84.3923 150.456C89.2052 147.214 93.2149 142.917 96.1161 137.892C99.0174 132.866 100.734 127.245 101.134 121.456C101.694 113.413 104.788 105.754 109.97 99.5783C115.152 93.4022 122.158 89.0262 129.981 87.078C135.613 85.678 140.85 83.0117 145.295 79.282C149.741 75.5522 153.276 70.8575 155.633 65.555C158.909 58.1872 164.435 52.0467 171.419 48.0154C178.402 43.9841 186.483 42.2692 194.501 43.117C200.272 43.7258 206.105 43.0107 211.557 41.0261C217.009 39.0415 221.937 35.8396 225.966 31.664C229.384 28.1154 233.46 25.2655 237.966 23.273C230.816 20.104 222.865 19.2094 215.19 20.7103C207.514 22.2112 200.486 26.0351 195.056 31.664C191.027 35.8396 186.099 39.0415 180.647 41.0261C175.195 43.0107 169.362 43.7258 163.591 43.117C155.573 42.2699 147.492 43.9851 140.509 48.0164C133.527 52.0476 128 58.1876 124.724 65.555C122.368 70.8566 118.833 75.5508 114.389 79.2805C109.945 83.0101 104.709 85.677 99.0793 87.078C91.2542 89.0249 84.2472 93.4011 79.0642 99.5785C73.8813 105.756 70.789 113.417 70.2313 121.461C69.829 127.25 68.112 132.87 65.2109 137.895C62.3098 142.921 58.301 147.218 53.4893 150.461C46.8023 154.966 41.7145 161.474 38.9564 169.051C36.1982 176.628 35.9115 184.883 38.1373 192.633C39.7395 198.21 40.0488 204.079 39.0416 209.793C38.0345 215.507 35.7375 220.917 32.3253 225.61C27.5823 232.131 25.0273 239.986 25.0273 248.05C25.0273 256.113 27.5823 263.968 32.3253 270.489H63.2253C58.4835 263.967 55.9296 256.11 55.9301 248.047C55.9306 239.983 58.4856 232.127 63.2283 225.605Z" fill="#D3D2D8"/>
<path d="M504.587 291.316C474.587 391.293 378.978 433.543 378.978 433.543L256.001 463.191L133.028 433.543C133.028 433.543 37.415 391.293 7.41504 291.313L256.001 260.2L504.587 291.316Z" fill="#04BDFC"/>
<path d="M163.935 433.543C163.935 433.543 68.321 391.293 38.321 291.313L271.454 262.133L256.001 260.2L7.41504 291.316C37.415 391.293 133.024 433.543 133.024 433.543L256.001 463.191L271.454 459.468L163.935 433.543Z" fill="#04A4FA"/>
<path d="M511.81 256.895C510.372 268.55 507.956 280.063 504.587 291.313H7.41514C4.04596 280.063 1.62976 268.55 0.192136 256.895C-0.244134 253.415 0.064558 249.882 1.09773 246.531C2.1309 243.18 3.86494 240.086 6.18478 237.456C8.50463 234.826 11.3573 232.719 14.5534 231.276C17.7495 229.832 21.2161 229.085 24.7231 229.083H487.278C490.785 229.085 494.252 229.832 497.448 231.275C500.644 232.719 503.497 234.826 505.817 237.456C508.137 240.086 509.871 243.179 510.904 246.531C511.938 249.882 512.246 253.415 511.81 256.895Z" fill="#5BD5FF"/>
<path d="M55.6263 229.082H24.7263C21.2189 229.083 17.7519 229.83 14.5553 231.274C11.3587 232.717 8.50568 234.824 6.18549 237.454C3.8653 240.085 2.13102 243.178 1.09774 246.53C0.0644597 249.882 -0.244194 253.415 0.192261 256.895C1.62989 268.551 4.04608 280.066 7.41526 291.317H38.3213C34.9531 280.066 32.5379 268.551 31.1013 256.895C30.6649 253.416 30.9733 249.883 32.0061 246.532C33.0388 243.181 34.7723 240.088 37.0915 237.458C39.4107 234.828 42.2627 232.721 45.4581 231.277C48.6536 229.833 52.1196 229.085 55.6263 229.082Z" fill="#04BDFC"/>
<path d="M211.06 126.355C209.03 126.358 207.019 125.96 205.143 125.183C203.267 124.406 201.564 123.266 200.13 121.828L184.677 106.375C181.806 103.472 180.201 99.5495 180.213 95.4661C180.225 91.3827 181.852 87.4699 184.74 84.5827C187.627 81.6955 191.54 80.0686 195.624 80.0574C199.707 80.0463 203.629 81.6518 206.532 84.5232L221.985 99.9762C224.146 102.137 225.617 104.891 226.214 107.888C226.81 110.885 226.504 113.992 225.334 116.816C224.165 119.639 222.184 122.052 219.644 123.75C217.103 125.448 214.115 126.355 211.059 126.355H211.06Z" fill="#D3D2D8"/>
<path d="M300.942 126.355C302.973 126.358 304.984 125.96 306.859 125.183C308.735 124.406 310.439 123.266 311.872 121.828L327.325 106.375C330.196 103.472 331.801 99.5495 331.79 95.4661C331.778 91.3827 330.15 87.4699 327.263 84.5827C324.375 81.6955 320.462 80.0686 316.379 80.0574C312.295 80.0463 308.374 81.6518 305.47 84.5232L290.017 99.9772C287.857 102.138 286.385 104.892 285.789 107.889C285.193 110.886 285.499 113.993 286.668 116.817C287.838 119.64 289.818 122.053 292.359 123.751C294.9 125.449 297.887 126.356 300.943 126.356L300.942 126.355Z" fill="#D3D2D8"/>
<path d="M149.247 197.758C147.218 197.761 145.208 197.363 143.332 196.586C141.457 195.809 139.754 194.669 138.321 193.231L122.868 177.778C119.971 174.881 118.343 170.95 118.343 166.852C118.343 162.754 119.971 158.824 122.868 155.926C125.766 153.029 129.696 151.401 133.794 151.401C137.893 151.401 141.823 153.029 144.72 155.926L160.173 171.379C162.334 173.54 163.806 176.294 164.402 179.291C164.998 182.288 164.692 185.395 163.522 188.219C162.353 191.042 160.373 193.455 157.832 195.153C155.291 196.851 152.304 197.758 149.247 197.758Z" fill="#D3D2D8"/>
<path d="M362.756 197.758C364.786 197.761 366.796 197.363 368.671 196.586C370.546 195.809 372.249 194.669 373.682 193.231L389.135 177.778C390.57 176.344 391.708 174.64 392.484 172.765C393.261 170.891 393.661 168.881 393.661 166.852C393.661 164.823 393.261 162.814 392.484 160.939C391.708 159.065 390.57 157.361 389.135 155.926C387.7 154.492 385.997 153.353 384.122 152.577C382.247 151.8 380.238 151.401 378.209 151.401C376.18 151.401 374.17 151.8 372.296 152.577C370.421 153.353 368.718 154.492 367.283 155.926L351.83 171.379C349.669 173.54 348.198 176.294 347.602 179.291C347.005 182.288 347.311 185.395 348.481 188.219C349.65 191.042 351.631 193.455 354.172 195.153C356.712 196.851 359.7 197.758 362.756 197.758Z" fill="#D3D2D8"/>
<path d="M248.274 197.758C250.304 197.761 252.315 197.363 254.19 196.586C256.066 195.809 257.769 194.668 259.201 193.23L274.654 177.777C276.089 176.342 277.227 174.639 278.004 172.764C278.78 170.889 279.18 168.88 279.18 166.851C279.18 164.822 278.78 162.813 278.003 160.938C277.227 159.063 276.088 157.36 274.653 155.925C273.219 154.49 271.515 153.352 269.64 152.576C267.766 151.799 265.756 151.4 263.727 151.4C261.698 151.4 259.689 151.8 257.814 152.576C255.939 153.353 254.236 154.491 252.801 155.926L237.348 171.379C235.188 173.54 233.716 176.294 233.12 179.291C232.524 182.288 232.83 185.395 233.999 188.218C235.169 191.042 237.149 193.455 239.69 195.153C242.231 196.851 245.218 197.758 248.274 197.758Z" fill="#D3D2D8"/>
<path d="M133.028 433.539V470.355C133.028 473.307 133.61 476.231 134.74 478.959C135.87 481.686 137.526 484.164 139.614 486.252C141.702 488.339 144.181 489.995 146.909 491.125C149.636 492.254 152.56 492.835 155.512 492.835H356.489C359.442 492.835 362.365 492.254 365.093 491.125C367.821 489.995 370.3 488.339 372.387 486.252C374.475 484.164 376.131 481.686 377.261 478.959C378.392 476.231 378.973 473.307 378.973 470.355V433.539H133.028Z" fill="#5BD5FF"/>
<path d="M163.935 470.355V433.539H133.028V470.355C133.029 476.318 135.398 482.036 139.615 486.251C143.831 490.467 149.55 492.835 155.512 492.835H186.418C180.456 492.835 174.738 490.467 170.521 486.251C166.305 482.035 163.936 476.317 163.935 470.355Z" fill="#04BDFC"/>
</svg>
