<svg width="512" height="512" viewBox="0 0 512 512" fill="none" xmlns="http://www.w3.org/2000/svg">
<path d="M502.515 314.027L367.399 449.141C364.392 452.148 360.822 454.534 356.892 456.162C352.963 457.789 348.752 458.627 344.499 458.627C340.246 458.627 336.035 457.789 332.105 456.162C328.176 454.534 324.606 452.148 321.599 449.141L186.483 314.027C180.41 307.953 176.999 299.716 176.999 291.127C176.999 282.538 180.41 274.301 186.483 268.227L321.599 133.109C327.673 127.036 335.91 123.625 344.499 123.625C353.088 123.625 361.325 127.036 367.399 133.109L502.515 268.223C508.586 274.299 511.996 282.536 511.996 291.125C511.996 299.714 508.586 307.952 502.515 314.027Z" fill="#EDA1AB"/>
<path d="M502.534 169.371C502.534 184.086 498.17 198.47 489.995 210.705C481.82 222.94 470.2 232.476 456.606 238.108C443.011 243.739 428.051 245.212 413.619 242.341C399.187 239.471 385.93 232.385 375.525 221.98C365.12 211.575 358.034 198.318 355.163 183.886C352.293 169.453 353.766 154.494 359.397 140.899C365.028 127.304 374.564 115.685 386.799 107.51C399.034 99.3344 413.419 94.9709 428.134 94.9709C447.866 94.9709 466.79 102.809 480.743 116.762C494.695 130.715 502.534 149.639 502.534 169.371Z" fill="#DE5C6E"/>
<path d="M480.62 169.371C480.62 179.752 477.542 189.9 471.775 198.531C466.008 207.163 457.811 213.891 448.22 217.863C438.63 221.836 428.076 222.876 417.895 220.851C407.713 218.825 398.361 213.827 391.021 206.486C383.68 199.146 378.681 189.793 376.656 179.612C374.631 169.431 375.671 158.877 379.644 149.287C383.616 139.696 390.344 131.499 398.976 125.732C407.607 119.965 417.755 116.887 428.136 116.887C442.055 116.887 455.405 122.417 465.247 132.259C475.09 142.102 480.62 155.451 480.62 169.371Z" fill="#E3748E"/>
<path d="M447.722 198.465C446.737 198.465 445.762 198.27 444.853 197.893C443.943 197.515 443.117 196.962 442.422 196.265L439.36 193.203C438.636 192.513 438.057 191.685 437.658 190.768C437.258 189.851 437.046 188.864 437.034 187.864C437.022 186.863 437.21 185.871 437.587 184.945C437.965 184.018 438.523 183.177 439.231 182.47C439.938 181.762 440.779 181.204 441.706 180.827C442.632 180.45 443.625 180.262 444.625 180.274C445.625 180.286 446.612 180.498 447.529 180.897C448.446 181.297 449.274 181.876 449.964 182.6L453.023 185.659C454.07 186.708 454.784 188.044 455.073 189.498C455.361 190.952 455.213 192.459 454.646 193.828C454.079 195.198 453.118 196.369 451.886 197.193C450.654 198.017 449.205 198.458 447.723 198.459L447.722 198.465Z" fill="#FCF2D0"/>
<path d="M441.948 164.336C440.465 164.335 439.017 163.894 437.785 163.07C436.552 162.246 435.592 161.075 435.025 159.705C434.458 158.336 434.309 156.829 434.598 155.375C434.887 153.921 435.6 152.585 436.648 151.536L442.394 145.794C443.812 144.448 445.699 143.708 447.655 143.733C449.61 143.758 451.478 144.546 452.861 145.928C454.243 147.311 455.032 149.178 455.058 151.134C455.083 153.089 454.345 154.977 452.999 156.395L447.253 162.141C446.557 162.839 445.73 163.392 444.82 163.768C443.909 164.145 442.933 164.338 441.948 164.336Z" fill="#FCF2D0"/>
<path d="M325.515 324.445L190.399 459.559C187.392 462.566 183.822 464.952 179.892 466.58C175.963 468.207 171.752 469.045 167.499 469.045C163.246 469.045 159.035 468.207 155.105 466.58C151.176 464.952 147.606 462.566 144.599 459.559L9.4829 324.445C3.413 318.37 0.00341797 310.133 0.00341797 301.545C0.00341797 292.957 3.413 284.72 9.4829 278.645L144.599 143.527C147.606 140.519 151.176 138.134 155.105 136.506C159.035 134.879 163.246 134.041 167.499 134.041C171.752 134.041 175.963 134.879 179.892 136.506C183.822 138.134 187.392 140.519 190.399 143.527L325.519 278.641C331.591 284.716 335.002 292.954 335.001 301.544C335.001 310.133 331.588 318.371 325.515 324.445Z" fill="#F7EF87"/>
<path d="M120.433 281.738C120.433 287.894 118.607 293.913 115.187 299.032C111.767 304.151 106.905 308.141 101.218 310.497C95.5298 312.853 89.271 313.47 83.2327 312.269C77.1945 311.068 71.6478 308.104 67.2941 303.751C62.9405 299.398 59.9753 293.852 58.7736 287.814C57.5719 281.776 58.1877 275.517 60.543 269.829C62.8983 264.141 66.8874 259.279 72.0059 255.858C77.1244 252.436 83.1424 250.61 89.2989 250.609C93.3873 250.608 97.4358 251.412 101.213 252.976C104.991 254.54 108.423 256.833 111.314 259.724C114.205 262.615 116.499 266.047 118.063 269.824C119.628 273.601 120.433 277.649 120.433 281.738Z" fill="#EFD176"/>
<path d="M43.8469 358.809L87.2989 402.262C91.6244 396.266 93.6743 388.926 93.0816 381.556C92.4888 374.186 89.2921 367.268 84.0639 362.04C78.8356 356.812 71.9172 353.616 64.5474 353.024C57.1776 352.432 49.8377 354.483 43.8419 358.809H43.8469Z" fill="#EFD176"/>
<path d="M145.276 460.2C151.403 465.985 159.544 469.154 167.969 469.034C176.395 468.913 184.442 465.513 190.401 459.555L218.491 431.465C212.486 425.827 205.005 422.008 196.916 420.453C188.828 418.898 180.464 419.669 172.796 422.679C165.129 425.688 158.473 430.811 153.601 437.453C148.73 444.095 145.843 451.983 145.276 460.2Z" fill="#EFD176"/>
<path d="M158.104 398.484C143.886 398.468 130.256 392.814 120.203 382.76C110.149 372.707 104.495 359.076 104.479 344.859V242.159C104.485 240.78 104.195 239.416 103.63 238.158C103.065 236.9 102.237 235.777 101.202 234.866C80.1199 216.452 68.5019 191.108 68.5019 163.499C68.5019 134.933 80.8019 108.987 103.15 90.437C125.033 72.269 154.666 62.664 188.841 62.664C209.739 62.5802 230.473 66.3586 249.999 73.809C269.525 66.357 290.26 62.5772 311.159 62.66C345.331 62.66 374.959 72.26 396.85 90.433C419.199 108.984 431.499 134.93 431.499 163.5C431.499 191.109 419.89 216.453 398.808 234.863C397.772 235.775 396.943 236.899 396.378 238.158C395.813 239.417 395.524 240.783 395.531 242.163V344.863C395.514 359.081 389.857 372.711 379.803 382.764C369.748 392.816 356.117 398.47 341.899 398.484H158.104Z" fill="#D2996F"/>
<path d="M223.366 66.0699C212 63.798 200.437 62.6557 188.846 62.6599C154.674 62.6599 125.046 72.2649 103.155 90.4369C80.8119 108.984 68.5069 134.934 68.5069 163.5C68.5069 191.109 80.1199 216.453 101.207 234.867C102.243 235.778 103.071 236.9 103.636 238.158C104.202 239.416 104.491 240.781 104.484 242.16V344.863C104.501 359.079 110.157 372.709 120.21 382.761C130.263 392.813 143.892 398.468 158.109 398.484H269.019C218.491 331.77 197.944 147.5 223.366 66.0699Z" fill="#C47B46"/>
<path d="M403.269 163.5C403.269 123.4 368.769 90.8949 311.16 90.8949C292.39 90.7617 273.786 94.4261 256.469 101.668C254.427 102.545 252.227 102.998 250.004 102.998C247.781 102.998 245.581 102.545 243.539 101.668C226.221 94.4261 207.618 90.7617 188.848 90.8949C131.235 90.8949 96.7389 123.395 96.7389 163.5C96.7389 182.934 104.856 200.574 119.774 213.6C123.843 217.162 127.103 221.553 129.335 226.479C131.566 231.405 132.718 236.751 132.712 242.159V344.859C132.713 351.594 135.389 358.052 140.151 362.814C144.914 367.577 151.372 370.253 158.107 370.254H341.899C345.234 370.255 348.537 369.598 351.619 368.322C354.701 367.047 357.501 365.176 359.859 362.818C362.218 360.46 364.089 357.66 365.366 354.578C366.642 351.497 367.299 348.194 367.299 344.859V242.159C367.293 236.751 368.444 231.405 370.675 226.48C372.906 221.554 376.165 217.162 380.233 213.6C395.151 200.57 403.269 182.93 403.269 163.5Z" fill="#FCF2D0"/>
<path d="M252.394 370.254C218.636 298.844 204.328 171.629 217.078 93.59C207.777 91.7847 198.323 90.8805 188.848 90.89C131.235 90.89 96.7389 123.39 96.7389 163.495C96.7389 182.929 104.856 200.569 119.774 213.595C123.843 217.157 127.103 221.548 129.335 226.474C131.566 231.4 132.718 236.746 132.712 242.154V344.854C132.713 351.589 135.389 358.047 140.151 362.809C144.914 367.572 151.372 370.248 158.107 370.249L252.394 370.254Z" fill="#F2D98D"/>
<path d="M178.726 172.379C177.741 172.379 176.766 172.185 175.857 171.807C174.947 171.43 174.121 170.876 173.426 170.179L126.996 123.749C125.645 122.332 124.903 120.442 124.926 118.485C124.95 116.527 125.738 114.657 127.122 113.272C128.506 111.888 130.377 111.1 132.335 111.076C134.292 111.052 136.181 111.795 137.599 113.145L184.029 159.579C185.076 160.628 185.79 161.964 186.079 163.418C186.367 164.872 186.219 166.379 185.652 167.748C185.085 169.118 184.124 170.289 182.892 171.113C181.66 171.937 180.211 172.378 178.729 172.379H178.726Z" fill="#4E5660"/>
<path d="M83.1669 126.742C100.644 144.219 127.667 145.531 143.522 129.676C159.377 113.821 158.062 86.7999 140.589 69.3199C123.116 51.8399 96.0889 50.5309 80.2339 66.3899C64.3789 82.2489 65.6989 109.266 83.1669 126.742Z" fill="#89D47F"/>
<path d="M83.1669 126.742C100.644 144.219 127.667 145.531 143.522 129.676C159.377 113.821 158.062 86.7999 140.589 69.3199C123.116 51.8399 96.0889 50.5309 80.2339 66.3899C64.3789 82.2489 65.6989 109.266 83.1669 126.742Z" fill="#89D47F"/>
<path d="M143.519 129.676C145.308 127.885 146.91 125.917 148.299 123.8C96.2989 132.491 83.9989 90.3 83.2209 63.718C82.1785 64.5553 81.1824 65.4486 80.2369 66.394C64.3779 82.246 65.6899 109.266 83.1669 126.742C100.644 144.218 127.663 145.531 143.519 129.676Z" fill="#5EC783"/>
<path d="M102.628 55.6289C104.503 56.2314 106.21 57.2686 107.608 58.6559C114.331 65.3789 111.924 78.6869 102.229 88.3829C92.5339 98.0789 79.2289 100.488 72.4989 93.7619C71.1127 92.3628 70.0756 90.6567 69.4719 88.7819C70.4131 80.3125 74.209 72.4156 80.235 66.3903C86.261 60.365 94.1583 56.5701 102.628 55.6299V55.6289Z" fill="#E3748E"/>
<path d="M102.628 55.6289C104.503 56.2314 106.21 57.2686 107.608 58.6559C114.331 65.3789 111.924 78.6869 102.229 88.3829C92.5339 98.0789 79.2289 100.488 72.4989 93.7619C71.1127 92.3628 70.0756 90.6567 69.4719 88.7819C70.4131 80.3125 74.209 72.4156 80.235 66.3903C86.261 60.365 94.1583 56.5701 102.628 55.6299V55.6289Z" fill="#E3748E"/>
<path d="M90.1899 96.1639C85.3539 85.4489 83.4989 73.5229 83.2179 63.7229C82.1746 64.5563 81.1784 65.447 80.2339 66.3909C74.233 72.4332 70.4419 80.3204 69.4719 88.7809C70.0756 90.6557 71.1127 92.3618 72.4989 93.7609C76.6749 97.9379 83.3819 98.5859 90.1899 96.1639Z" fill="#DE5C6E"/>
<path d="M85.3389 78.992C84.3541 78.9922 83.379 78.798 82.4695 78.4204C81.56 78.0429 80.734 77.4895 80.0389 76.792L58.0419 54.8C56.7002 53.3808 55.965 51.4942 55.9926 49.5414C56.0202 47.5886 56.8085 45.7236 58.1898 44.3429C59.5711 42.9622 61.4365 42.1749 63.3893 42.1482C65.3421 42.1215 67.2284 42.8576 68.6469 44.2L90.6469 66.2C91.6945 67.2488 92.4077 68.5846 92.6965 70.0386C92.9854 71.4926 92.8369 72.9996 92.2698 74.3692C91.7026 75.7388 90.7424 76.9097 89.5102 77.7339C88.2781 78.5581 86.8293 78.9987 85.3469 79L85.3389 78.992Z" fill="#4E5660"/>
<path d="M348.132 161.824C348.132 163.317 347.689 164.777 346.859 166.019C346.03 167.261 344.85 168.229 343.471 168.8C342.091 169.372 340.573 169.521 339.108 169.23C337.643 168.939 336.298 168.219 335.242 167.163C334.186 166.107 333.466 164.762 333.175 163.297C332.884 161.832 333.033 160.314 333.605 158.934C334.176 157.555 335.144 156.375 336.386 155.546C337.628 154.716 339.087 154.273 340.581 154.273C341.573 154.273 342.555 154.468 343.471 154.847C344.387 155.226 345.22 155.782 345.921 156.484C346.622 157.185 347.179 158.018 347.558 158.934C347.937 159.85 348.132 160.832 348.132 161.824Z" fill="#F2D98D"/>
<path d="M367.147 130.539C367.147 132.032 366.703 133.491 365.874 134.732C365.044 135.973 363.865 136.941 362.486 137.512C361.107 138.083 359.589 138.232 358.125 137.941C356.66 137.65 355.316 136.931 354.26 135.875C353.204 134.819 352.485 133.474 352.194 132.01C351.903 130.546 352.052 129.028 352.623 127.649C353.194 126.27 354.162 125.091 355.403 124.261C356.644 123.431 358.103 122.988 359.596 122.988C360.588 122.988 361.57 123.183 362.486 123.562C363.402 123.941 364.235 124.498 364.936 125.199C365.637 125.9 366.194 126.733 366.573 127.649C366.952 128.565 367.147 129.547 367.147 130.539Z" fill="#F2D98D"/>
<path d="M201.608 128.109C201.609 129.603 201.167 131.063 200.337 132.305C199.508 133.547 198.329 134.516 196.949 135.088C195.57 135.66 194.051 135.81 192.586 135.519C191.121 135.229 189.775 134.51 188.719 133.454C187.663 132.398 186.943 131.052 186.651 129.588C186.36 128.123 186.509 126.604 187.08 125.224C187.652 123.844 188.62 122.665 189.861 121.835C191.103 121.005 192.563 120.562 194.057 120.562C196.059 120.562 197.979 121.357 199.395 122.772C200.811 124.187 201.607 126.107 201.608 128.109Z" fill="#FCF2D0"/>
<path d="M222.265 320.664C222.265 322.157 221.821 323.616 220.992 324.858C220.162 326.099 218.982 327.066 217.603 327.637C216.223 328.208 214.705 328.357 213.241 328.066C211.777 327.774 210.432 327.055 209.377 325.999C208.321 324.943 207.602 323.597 207.312 322.133C207.021 320.668 207.171 319.151 207.742 317.771C208.314 316.392 209.282 315.213 210.524 314.384C211.765 313.555 213.225 313.113 214.718 313.113C216.72 313.114 218.64 313.91 220.055 315.326C221.47 316.742 222.265 318.662 222.265 320.664Z" fill="#FCF2D0"/>
<path d="M194.265 236.664C194.265 238.157 193.821 239.616 192.992 240.858C192.162 242.099 190.982 243.066 189.603 243.637C188.223 244.208 186.705 244.357 185.241 244.066C183.777 243.774 182.432 243.055 181.377 241.999C180.321 240.943 179.602 239.597 179.312 238.133C179.021 236.668 179.171 235.151 179.742 233.771C180.314 232.392 181.282 231.213 182.524 230.384C183.765 229.555 185.225 229.113 186.718 229.113C188.72 229.114 190.64 229.91 192.055 231.326C193.47 232.742 194.265 234.662 194.265 236.664Z" fill="#FCF2D0"/>
<path d="M352.046 331.156C352.045 332.649 351.602 334.108 350.773 335.349C349.943 336.59 348.764 337.558 347.385 338.129C346.006 338.7 344.488 338.849 343.024 338.558C341.559 338.266 340.215 337.548 339.159 336.492C338.103 335.436 337.384 334.091 337.093 332.627C336.802 331.163 336.951 329.645 337.522 328.266C338.093 326.887 339.061 325.708 340.302 324.878C341.543 324.048 343.002 323.605 344.495 323.605C346.498 323.605 348.418 324.401 349.834 325.817C351.25 327.233 352.046 329.153 352.046 331.156Z" fill="#F2D98D"/>
<path d="M312.046 244.156C312.045 245.649 311.602 247.108 310.773 248.349C309.943 249.59 308.764 250.558 307.385 251.129C306.006 251.7 304.488 251.849 303.024 251.558C301.559 251.266 300.215 250.548 299.159 249.492C298.103 248.436 297.384 247.091 297.093 245.627C296.802 244.163 296.951 242.645 297.522 241.266C298.093 239.887 299.061 238.708 300.302 237.878C301.543 237.048 303.002 236.605 304.495 236.605C306.498 236.605 308.418 237.401 309.834 238.817C311.25 240.233 312.046 242.153 312.046 244.156Z" fill="#F2D98D"/>
<path d="M308.604 346.258C308.604 347.751 308.16 349.21 307.331 350.452C306.501 351.693 305.321 352.66 303.942 353.231C302.562 353.802 301.045 353.951 299.58 353.66C298.116 353.368 296.771 352.649 295.716 351.593C294.66 350.537 293.941 349.191 293.651 347.727C293.36 346.262 293.51 344.745 294.081 343.365C294.653 341.986 295.621 340.807 296.863 339.978C298.104 339.149 299.564 338.707 301.057 338.707C302.048 338.707 303.03 338.902 303.946 339.282C304.862 339.661 305.694 340.218 306.395 340.919C307.096 341.62 307.652 342.453 308.031 343.369C308.41 344.285 308.604 345.267 308.604 346.258Z" fill="#F2D98D"/>
<path d="M276.604 214.258C276.604 215.751 276.16 217.21 275.331 218.452C274.501 219.693 273.321 220.66 271.942 221.231C270.562 221.802 269.045 221.951 267.58 221.66C266.116 221.368 264.771 220.649 263.716 219.593C262.66 218.537 261.941 217.191 261.651 215.727C261.36 214.262 261.51 212.745 262.081 211.365C262.653 209.986 263.621 208.807 264.863 207.978C266.104 207.149 267.564 206.707 269.057 206.707C270.048 206.707 271.03 206.902 271.946 207.282C272.862 207.661 273.694 208.218 274.395 208.919C275.096 209.62 275.652 210.453 276.031 211.369C276.41 212.285 276.604 213.267 276.604 214.258Z" fill="#F2D98D"/>
</svg>
