<svg width="512" height="512" viewBox="0 0 512 512" fill="none" xmlns="http://www.w3.org/2000/svg">
<path d="M327.427 486.873L173.604 430.886C168.053 428.866 163.018 425.641 158.861 421.444C154.703 417.246 151.527 412.181 149.56 406.61C147.593 401.04 146.883 395.103 147.483 389.226C148.082 383.349 149.976 377.678 153.027 372.619L178.727 330.012C204.694 286.964 222.049 239.28 229.827 189.612L237.527 140.453C238.441 134.617 240.636 129.055 243.955 124.168C247.273 119.28 251.633 115.188 256.72 112.185C261.808 109.183 267.497 107.344 273.379 106.801C279.262 106.257 285.192 107.024 290.743 109.044L444.566 165.031C450.118 167.052 455.153 170.276 459.31 174.474C463.468 178.671 466.644 183.737 468.611 189.308C470.578 194.878 471.288 200.815 470.688 206.693C470.088 212.57 468.195 218.241 465.143 223.3L439.443 265.907C413.476 308.955 396.121 356.639 388.343 406.307L380.643 455.466C379.729 461.302 377.534 466.864 374.215 471.751C370.897 476.638 366.537 480.73 361.45 483.733C356.362 486.735 350.673 488.574 344.79 489.117C338.908 489.66 332.978 488.894 327.427 486.873Z" fill="#F8D662"/>
<path d="M327.427 486.873L173.604 430.886C168.053 428.866 163.018 425.641 158.861 421.444C154.703 417.246 151.527 412.181 149.56 406.61C147.593 401.04 146.883 395.103 147.483 389.226C148.082 383.349 149.976 377.678 153.027 372.619L178.727 330.012C204.694 286.964 222.049 239.28 229.827 189.612L237.527 140.453C238.441 134.617 240.636 129.055 243.955 124.168C247.273 119.28 251.633 115.188 256.72 112.185C261.808 109.183 267.497 107.344 273.379 106.801C279.262 106.257 285.192 107.024 290.743 109.044L444.566 165.031C450.118 167.052 455.153 170.276 459.31 174.474C463.468 178.671 466.644 183.737 468.611 189.308C470.578 194.878 471.288 200.815 470.688 206.693C470.088 212.57 468.195 218.241 465.143 223.3L439.443 265.907C413.476 308.955 396.121 356.639 388.343 406.307L380.643 455.466C379.729 461.302 377.534 466.864 374.215 471.751C370.897 476.638 366.537 480.73 361.45 483.733C356.362 486.735 350.673 488.574 344.79 489.117C338.908 489.66 332.978 488.894 327.427 486.873Z" fill="#F8D662"/>
<path d="M441.171 107.694L330.203 67.305C327.228 66.2233 323.945 66.3675 321.076 67.7059C318.206 69.0442 315.986 71.4671 314.903 74.442L300.955 112.763L434.355 161.32L448.308 123C449.391 120.024 449.248 116.739 447.909 113.869C446.571 110.998 444.147 108.777 441.171 107.694Z" fill="#F8D662"/>
<path opacity="0.2" d="M441.171 107.694L330.203 67.305C327.228 66.2233 323.945 66.3675 321.076 67.7059C318.206 69.0442 315.986 71.4671 314.903 74.442L300.955 112.763L434.355 161.32L448.308 123C449.391 120.024 449.248 116.739 447.909 113.869C446.571 110.998 444.147 108.777 441.171 107.694Z" fill="black"/>
<g opacity="0.1">
<path opacity="0.1" d="M360.613 134.464L374.708 139.594L392.739 90.0521L378.643 84.9221L360.613 134.464Z" fill="black"/>
<path opacity="0.1" d="M323.954 121.111L338.05 126.241L356.08 76.7001L341.985 71.57L323.954 121.111Z" fill="black"/>
<path opacity="0.1" d="M397.285 147.811L411.381 152.941L429.412 103.398L415.317 98.2681L397.285 147.811Z" fill="black"/>
</g>
<path d="M427.6 102.755L343.771 72.244L384.702 6.84398C386.471 4.01559 389.157 1.88024 392.312 0.794877C395.467 -0.290489 398.899 -0.260095 402.034 0.880978L428.84 10.638C431.974 11.779 434.623 13.9614 436.342 16.8205C438.061 19.6795 438.747 23.042 438.284 26.346L427.6 102.755Z" fill="#F8D662"/>
<path opacity="0.1" d="M403.578 1.44208L402.034 0.880079C398.899 -0.260773 395.468 -0.291165 392.313 0.79398C389.158 1.87912 386.471 4.01407 384.702 6.84208L343.771 72.2421L378.832 85.0031C374.918 62.2161 394.492 17.9131 403.578 1.44208Z" fill="black"/>
<path d="M395.455 218.077C384.091 202.656 368.426 190.934 350.426 184.383C332.425 177.831 312.89 176.741 294.272 181.25C291.478 181.927 288.895 183.284 286.752 185.2C284.609 187.117 282.973 189.534 281.989 192.235L225.614 347.124C224.762 349.465 224.38 351.951 224.489 354.44C224.598 356.929 225.196 359.373 226.249 361.631C227.302 363.888 228.79 365.917 230.627 367.6C232.464 369.283 234.614 370.587 236.955 371.439L317.116 400.615C321.844 402.336 327.062 402.108 331.622 399.982C336.182 397.856 339.71 394.005 341.431 389.277L397.806 234.388C398.789 231.686 399.089 228.783 398.679 225.937C398.269 223.092 397.161 220.392 395.455 218.077Z" fill="white"/>
<path d="M331.927 336.849C331.052 336.848 330.185 336.695 329.363 336.395L268.847 314.37C266.977 313.69 265.454 312.294 264.613 310.491C263.772 308.688 263.682 306.624 264.362 304.755C265.043 302.885 266.438 301.362 268.241 300.521C270.045 299.68 272.108 299.59 273.978 300.27L334.494 322.3C336.153 322.902 337.546 324.07 338.429 325.598C339.312 327.125 339.628 328.916 339.321 330.653C339.015 332.391 338.105 333.965 336.753 335.098C335.4 336.232 333.691 336.852 331.927 336.85V336.849Z" fill="#5D6671"/>
<path d="M311.408 358.8C310.534 358.8 309.666 358.646 308.844 358.346L270.455 344.372C268.586 343.692 267.063 342.296 266.222 340.493C265.381 338.69 265.29 336.626 265.971 334.757C266.651 332.887 268.047 331.364 269.85 330.523C271.653 329.682 273.717 329.592 275.586 330.272L313.974 344.244C315.632 344.847 317.025 346.014 317.907 347.542C318.79 349.069 319.105 350.859 318.799 352.596C318.492 354.333 317.583 355.907 316.231 357.04C314.879 358.174 313.171 358.794 311.407 358.793L311.408 358.8Z" fill="#5D6671"/>
<path d="M323.076 291.73C340.86 291.73 355.276 277.314 355.276 259.53C355.276 241.747 340.86 227.33 323.076 227.33C305.292 227.33 290.876 241.747 290.876 259.53C290.876 277.314 305.292 291.73 323.076 291.73Z" fill="#F8D662"/>
<path opacity="0.1" d="M204.604 391.392L230.304 348.785C256.27 305.737 273.625 258.053 281.404 208.385L289.104 159.226C290.018 153.39 292.213 147.828 295.532 142.941C298.85 138.053 303.21 133.961 308.297 130.959C313.385 127.956 319.074 126.117 324.956 125.574C330.839 125.031 336.769 125.797 342.32 127.818L290.743 109.045C285.192 107.025 279.262 106.258 273.379 106.802C267.497 107.345 261.808 109.184 256.72 112.186C251.633 115.189 247.273 119.281 243.955 124.169C240.636 129.056 238.441 134.618 237.527 140.454L229.827 189.613C222.049 239.281 204.694 286.965 178.727 330.013L153.027 372.62C149.976 377.679 148.082 383.35 147.483 389.227C146.883 395.104 147.593 401.041 149.56 406.611C151.527 412.182 154.703 417.247 158.861 421.445C163.018 425.642 168.053 428.867 173.604 430.887L225.181 449.66C219.63 447.639 214.595 444.414 210.438 440.217C206.281 436.019 203.105 430.954 201.138 425.383C199.171 419.813 198.461 413.876 199.061 407.999C199.66 402.122 201.553 396.451 204.604 391.392Z" fill="black"/>
<path d="M261.722 512H98.0269C92.1194 512 86.2851 510.692 80.9431 508.17C75.601 505.648 70.8838 501.974 67.13 497.412C63.3762 492.851 60.6791 487.514 59.2323 481.787C57.7854 476.059 57.6248 470.082 58.7619 464.285L68.3399 415.458C78.0169 366.125 78.0169 315.383 68.3399 266.05L58.7619 217.223C57.6248 211.426 57.7854 205.449 59.2323 199.721C60.6791 193.994 63.3762 188.658 67.13 184.096C70.8838 179.534 75.601 175.861 80.9431 173.338C86.2851 170.816 92.1194 169.508 98.0269 169.508H261.722C267.629 169.508 273.464 170.816 278.806 173.338C284.148 175.861 288.865 179.534 292.619 184.096C296.372 188.658 299.069 193.994 300.516 199.721C301.963 205.449 302.123 211.426 300.986 217.223L291.408 266.05C281.731 315.383 281.731 366.125 291.408 415.458L300.986 464.285C302.123 470.082 301.963 476.059 300.516 481.787C299.069 487.514 296.372 492.85 292.619 497.412C288.865 501.974 284.148 505.648 278.806 508.17C273.464 510.692 267.629 512 261.722 512Z" fill="#F18290"/>
<path d="M261.722 512H98.0269C92.1194 512 86.2851 510.692 80.9431 508.17C75.601 505.648 70.8838 501.974 67.13 497.412C63.3762 492.851 60.6791 487.514 59.2323 481.787C57.7854 476.059 57.6248 470.082 58.7619 464.285L68.3399 415.458C78.0169 366.125 78.0169 315.383 68.3399 266.05L58.7619 217.223C57.6248 211.426 57.7854 205.449 59.2323 199.721C60.6791 193.994 63.3762 188.658 67.13 184.096C70.8838 179.534 75.601 175.861 80.9431 173.338C86.2851 170.816 92.1194 169.508 98.0269 169.508H261.722C267.629 169.508 273.464 170.816 278.806 173.338C284.148 175.861 288.865 179.534 292.619 184.096C296.372 188.658 299.069 193.994 300.516 199.721C301.963 205.449 302.123 211.426 300.986 217.223L291.408 266.05C281.731 315.383 281.731 366.125 291.408 415.458L300.986 464.285C302.123 470.082 301.963 476.059 300.516 481.787C299.069 487.514 296.372 492.85 292.619 497.412C288.865 501.974 284.148 505.648 278.806 508.17C273.464 510.692 267.629 512 261.722 512Z" fill="#F18290"/>
<path d="M238.92 116.786H120.83C117.663 116.786 114.625 118.044 112.386 120.284C110.147 122.523 108.889 125.56 108.889 128.727V169.507H250.861V128.727C250.861 125.56 249.603 122.523 247.363 120.284C245.124 118.044 242.087 116.786 238.92 116.786Z" fill="#F18290"/>
<path opacity="0.2" d="M238.92 116.786H120.83C117.663 116.786 114.625 118.044 112.386 120.284C110.147 122.523 108.889 125.56 108.889 128.727V169.507H250.861V128.727C250.861 125.56 249.603 122.523 247.363 120.284C245.124 118.044 242.087 116.786 238.92 116.786Z" fill="black"/>
<g opacity="0.1">
<path opacity="0.1" d="M187.375 116.78H172.375V169.502H187.375V116.78Z" fill="black"/>
<path opacity="0.1" d="M148.355 116.78H133.355V169.502H148.355V116.78Z" fill="black"/>
<path opacity="0.1" d="M226.396 116.78H211.396V169.502H226.396V116.78Z" fill="black"/>
</g>
<path d="M224.479 116.786H135.271L151.364 41.329C152.059 38.0665 153.854 35.1416 156.447 33.0432C159.041 30.9447 162.276 29.7999 165.612 29.8H194.139C197.475 29.8 200.71 30.9449 203.303 33.0436C205.896 35.1422 207.691 38.0673 208.387 41.3301L224.479 116.786Z" fill="#F18290"/>
<path opacity="0.1" d="M167.255 29.8H165.612C162.275 29.8 159.04 30.9449 156.447 33.0436C153.854 35.1422 152.059 38.0673 151.364 41.3301L135.271 116.787H172.581C161.108 96.7101 164.355 48.384 167.255 29.8Z" fill="black"/>
<path d="M233.713 236.148C217.76 225.544 199.031 219.886 179.875 219.886C160.719 219.886 141.99 225.544 126.037 236.148C123.643 237.74 121.679 239.898 120.321 242.432C118.962 244.966 118.252 247.797 118.252 250.672V415.5C118.252 420.531 120.251 425.357 123.809 428.914C127.366 432.472 132.192 434.471 137.223 434.471H222.523C225.015 434.472 227.482 433.981 229.784 433.028C232.087 432.075 234.179 430.678 235.941 428.916C237.703 427.155 239.101 425.063 240.054 422.761C241.008 420.459 241.499 417.992 241.499 415.5V250.671C241.499 247.796 240.788 244.966 239.429 242.432C238.071 239.898 236.107 237.74 233.713 236.148Z" fill="white"/>
<path d="M212.074 369.935H147.674C145.685 369.935 143.777 369.145 142.371 367.738C140.964 366.332 140.174 364.424 140.174 362.435C140.174 360.446 140.964 358.538 142.371 357.132C143.777 355.725 145.685 354.935 147.674 354.935H212.074C214.063 354.935 215.971 355.725 217.377 357.132C218.784 358.538 219.574 360.446 219.574 362.435C219.574 364.424 218.784 366.332 217.377 367.738C215.971 369.145 214.063 369.935 212.074 369.935Z" fill="#5D6671"/>
<path d="M200.301 397.578H159.449C157.46 397.578 155.552 396.788 154.146 395.381C152.739 393.975 151.949 392.067 151.949 390.078C151.949 388.089 152.739 386.181 154.146 384.775C155.552 383.368 157.46 382.578 159.449 382.578H200.301C202.29 382.578 204.198 383.368 205.605 384.775C207.011 386.181 207.801 388.089 207.801 390.078C207.801 392.067 207.011 393.975 205.605 395.381C204.198 396.788 202.29 397.578 200.301 397.578Z" fill="#5D6671"/>
<path d="M179.876 332.06C197.659 332.06 212.076 317.644 212.076 299.86C212.076 282.077 197.659 267.66 179.876 267.66C162.092 267.66 147.676 282.077 147.676 299.86C147.676 317.644 162.092 332.06 179.876 332.06Z" fill="#F18290"/>
<path opacity="0.1" d="M113.65 464.285L123.228 415.458C132.905 366.125 132.905 315.383 123.228 266.05L113.65 217.223C112.513 211.426 112.674 205.449 114.12 199.721C115.567 193.994 118.264 188.658 122.018 184.096C125.772 179.534 130.489 175.861 135.831 173.338C141.173 170.816 147.008 169.508 152.915 169.508H98.0271C92.1196 169.508 86.2854 170.816 80.9434 173.338C75.6013 175.861 70.8841 179.534 67.1304 184.096C63.3767 188.658 60.6797 193.994 59.233 199.721C57.7863 205.449 57.6258 211.426 58.7631 217.223L68.3421 266.05C78.0191 315.383 78.0191 366.125 68.3421 415.458L58.7631 464.285C57.6258 470.082 57.7863 476.059 59.233 481.787C60.6797 487.514 63.3767 492.85 67.1304 497.412C70.8841 501.974 75.6013 505.648 80.9434 508.17C86.2854 510.692 92.1196 512 98.0271 512H152.915C147.008 512 141.173 510.692 135.831 508.17C130.489 505.648 125.772 501.974 122.018 497.412C118.264 492.851 115.567 487.514 114.12 481.787C112.674 476.059 112.513 470.082 113.65 464.285Z" fill="black"/>
</svg>
