<svg width="512" height="512" viewBox="0 0 512 512" fill="none" xmlns="http://www.w3.org/2000/svg">
<path d="M178.37 361.256L122.91 305.8C119.825 302.715 117.378 299.053 115.709 295.022C114.039 290.992 113.18 286.672 113.18 282.309C113.18 277.946 114.039 273.626 115.709 269.596C117.378 265.565 119.825 261.903 122.91 258.818L174.021 207.7L276.464 310.145L225.353 361.256C219.123 367.486 210.673 370.986 201.862 370.986C193.051 370.986 184.6 367.486 178.37 361.256Z" fill="#FFC477"/>
<path d="M174.021 207.7L122.91 258.814C119.825 261.899 117.378 265.561 115.709 269.592C114.039 273.622 113.18 277.942 113.18 282.305C113.18 286.668 114.039 290.988 115.709 295.018C117.378 299.049 119.825 302.711 122.91 305.796L143.422 326.308C150.789 310.64 169.294 303.85 185.634 309.914C201.168 315.679 216.734 313.656 216.734 313.656L248.357 282.033L174.021 207.7Z" fill="#FFAB50"/>
<path d="M419.314 163.985C418.999 164.121 320.591 65.7129 320.727 65.3979C304.554 121.047 264.674 142.644 242.932 150.486C232.018 154.419 222.106 160.711 213.902 168.913L167.25 215.565L269.144 317.463L315.796 270.811C323.998 262.607 330.29 252.695 334.223 241.781C342.067 220.038 363.664 180.158 419.314 163.985Z" fill="#FFC477"/>
<path d="M273.166 197.382C284.43 192.088 298.398 180.807 308.548 171.868C312.203 168.654 316.819 166.739 321.676 166.424C326.533 166.108 331.358 167.409 335.398 170.123C359.077 186.023 380.256 182.144 380.258 182.144C392.227 174.051 405.412 167.92 419.314 163.985C418.999 164.121 320.591 65.7129 320.727 65.3979C304.554 121.047 264.674 142.644 242.932 150.486C232.018 154.419 222.106 160.711 213.902 168.913L167.25 215.565L212.508 260.823C225.588 233.929 249.173 208.659 273.166 197.382Z" fill="#FFAB50"/>
<path d="M435.459 49.8309C431.743 46.0933 429.657 41.0369 429.657 35.7664C429.657 30.4958 431.743 25.4395 435.459 21.7019L451.359 5.80189C455.097 2.08585 460.153 0 465.424 0C470.694 0 475.75 2.08585 479.488 5.80189C483.204 9.53949 485.29 14.5958 485.29 19.8664C485.29 25.1369 483.204 30.1933 479.488 33.9309L463.588 49.8309C459.85 53.5462 454.794 55.6315 449.524 55.6315C444.253 55.6315 439.197 53.5462 435.459 49.8309Z" fill="#FFEB99"/>
<path d="M449.523 35.7659L465.423 19.8659C467.894 17.4092 470.965 15.6435 474.332 14.745C477.698 13.8466 481.241 13.8469 484.607 14.7459C483.725 11.3627 481.957 8.27538 479.487 5.80091C475.75 2.08487 470.693 -0.000976562 465.423 -0.000976562C460.152 -0.000976563 455.096 2.08487 451.358 5.80091L435.458 21.7009C431.742 25.4385 429.656 30.4949 429.656 35.7654C429.656 41.0359 431.742 46.0923 435.458 49.8299C437.933 52.3001 441.02 54.0673 444.403 54.9499C443.504 51.5838 443.504 48.0407 444.402 44.6744C445.301 41.3081 447.066 38.2364 449.523 35.7659Z" fill="#FFDE55"/>
<path d="M427.883 148.717L459.737 116.863C471.8 104.73 478.571 88.3166 478.571 71.2079C478.571 54.0991 471.8 37.6856 459.737 25.5529C447.604 13.4903 431.191 6.71948 414.082 6.71948C396.973 6.71948 380.56 13.4903 368.427 25.5529L336.573 57.4069L427.883 148.717Z" fill="#FFC477"/>
<path d="M414.759 58.0829C439.026 17.9329 470.832 41.3009 471.551 41.8359C468.496 35.819 464.509 30.3228 459.737 25.5509C447.604 13.4883 431.191 6.71753 414.082 6.71753C396.973 6.71753 380.56 13.4883 368.427 25.5509L336.573 57.3999L390.236 111.063C396.72 93.5549 405.027 74.1859 414.759 58.0829Z" fill="#FFAB50"/>
<path d="M231.628 328.556L156.155 253.083C149.733 246.623 146.128 237.885 146.128 228.776C146.128 219.668 149.733 210.929 156.155 204.47C162.614 198.048 171.353 194.443 180.461 194.443C189.57 194.443 198.308 198.048 204.768 204.47L280.244 279.943C286.666 286.402 290.27 295.141 290.27 304.249C290.27 313.358 286.666 322.096 280.244 328.556C273.784 334.979 265.045 338.584 255.936 338.584C246.826 338.584 238.087 334.979 231.628 328.556Z" fill="#C68D6D"/>
<path d="M392.224 167.959L316.751 92.4859C310.329 86.0264 306.725 77.288 306.725 68.1794C306.725 59.0708 310.329 50.3323 316.751 43.8729C323.211 37.4509 331.949 33.8462 341.058 33.8462C350.166 33.8462 358.905 37.4509 365.364 43.8729L440.837 119.346C447.259 125.805 450.864 134.544 450.864 143.652C450.864 152.761 447.259 161.499 440.837 167.959C434.378 174.381 425.639 177.986 416.531 177.986C407.422 177.986 398.684 174.381 392.224 167.959Z" fill="#C68D6D"/>
<path d="M356.581 83.6999C363.041 77.2779 371.779 73.6732 380.888 73.6732C389.996 73.6732 398.735 77.2779 405.194 83.6999L365.363 43.8719C358.904 37.4499 350.165 33.8452 341.057 33.8452C331.948 33.8452 323.21 37.4499 316.75 43.8719C310.328 50.3314 306.724 59.0698 306.724 68.1784C306.724 77.287 310.328 86.0255 316.75 92.4849L356.581 132.316C350.158 125.856 346.553 117.117 346.553 108.008C346.553 98.8986 350.158 90.1595 356.581 83.6999Z" fill="#B2785B"/>
<path d="M195.985 244.3C202.444 237.878 211.183 234.273 220.291 234.273C229.4 234.273 238.138 237.878 244.598 244.3L204.767 204.47C198.307 198.048 189.569 194.443 180.46 194.443C171.352 194.443 162.613 198.048 156.154 204.47C149.732 210.929 146.127 219.668 146.127 228.776C146.127 237.885 149.732 246.623 156.154 253.083L195.985 292.914C189.562 286.454 185.957 277.716 185.957 268.607C185.957 259.498 189.562 250.759 195.985 244.3Z" fill="#B2785B"/>
<path d="M167.079 511.999C179.583 511.999 189.721 501.862 189.721 489.357C189.721 476.852 179.583 466.715 167.079 466.715C154.574 466.715 144.437 476.852 144.437 489.357C144.437 501.862 154.574 511.999 167.079 511.999Z" fill="#7C897C"/>
<path d="M115.642 420.416C128.147 420.416 138.284 410.279 138.284 397.774C138.284 385.269 128.147 375.132 115.642 375.132C103.137 375.132 93 385.269 93 397.774C93 410.279 103.137 420.416 115.642 420.416Z" fill="#7C897C"/>
<path d="M190.33 433.964C198.949 433.964 205.937 426.976 205.937 418.357C205.937 409.737 198.949 402.75 190.33 402.75C181.71 402.75 174.723 409.737 174.723 418.357C174.723 426.976 181.71 433.964 190.33 433.964Z" fill="#7C897C"/>
</svg>
