<svg width="512" height="512" viewBox="0 0 512 512" fill="none" xmlns="http://www.w3.org/2000/svg">
<path d="M250.601 210.3C247.493 202.82 242.755 196.127 236.734 190.71C226.773 181.749 219.617 169.987 217.334 156.784C215.49 146.157 210.596 136.295 203.247 128.399C195.899 120.503 186.414 114.913 175.947 112.311C163.768 109.188 152.906 102.254 144.947 92.5221C125.474 69.0471 92.3166 58.4001 63.3636 70.4731C34.4106 82.5461 18.6416 113.59 21.6096 143.949C22.9257 156.453 20.2087 169.05 13.8556 179.9C8.33809 189.168 5.63358 199.839 6.07122 210.616C6.50886 221.393 10.0698 231.81 16.3206 240.6C24.0906 251.514 27.4146 264.877 26.7656 278.26C26.3068 288.041 28.4817 297.767 33.0633 306.421C37.6449 315.075 44.4653 322.341 52.8126 327.46C64.5915 334.658 73.4085 345.831 77.6716 358.96C78.4641 361.417 79.3953 363.827 80.4606 366.179C84.4893 375.035 90.4 382.907 97.781 389.247C105.162 395.586 113.836 400.241 123.199 402.886C132.562 405.531 142.389 406.104 151.997 404.565C161.604 403.026 170.76 399.411 178.828 393.972C188.839 387.227 200.09 382.537 211.928 380.172C221.47 378.27 230.482 374.31 238.338 368.568C246.193 362.827 252.703 355.442 257.413 346.928C262.123 338.414 264.92 328.976 265.61 319.27C266.3 309.565 264.866 299.826 261.408 290.731C260.487 288.319 259.431 285.961 258.244 283.669C251.917 271.401 250.186 257.274 253.365 243.841C256.01 232.65 255.043 220.908 250.601 210.3Z" fill="#00B72F"/>
<path d="M111.367 366.18C110.301 363.829 109.37 361.418 108.578 358.961C104.316 345.831 95.4987 334.659 83.7193 327.461C75.3717 322.34 68.5514 315.073 63.9698 306.418C59.3883 297.763 57.2135 288.036 57.6723 278.254C58.3203 264.875 55.0003 251.516 47.2273 240.6C40.9771 231.809 37.4166 221.39 36.979 210.613C36.5413 199.835 39.2454 189.162 44.7623 179.893C51.1133 169.043 53.8301 156.447 52.5163 143.944C49.5473 113.589 65.3163 82.5441 94.2703 70.4671C97.4777 69.1356 100.787 68.0631 104.165 67.2601C90.5661 64.0164 76.2907 65.1385 63.3653 70.4671C34.4163 82.5411 18.6423 113.588 21.6153 143.944C22.9277 156.448 20.2095 169.044 13.8573 179.893C8.33778 189.161 5.63229 199.835 6.0703 210.613C6.50831 221.392 10.0709 231.81 16.3243 240.6C24.0943 251.514 27.4143 264.873 26.7653 278.256C26.3065 288.038 28.4813 297.765 33.0628 306.42C37.6444 315.075 44.4647 322.342 52.8123 327.463C64.5917 334.661 73.4089 345.833 77.6713 358.963C82.8392 375.025 93.8814 388.543 108.588 396.812C123.296 405.081 140.583 407.493 156.991 403.563C147.037 401.229 137.75 396.646 129.841 390.166C121.933 383.686 115.613 375.481 111.367 366.18Z" fill="#00A42C"/>
<path d="M260.989 210.3C264.096 202.82 268.834 196.127 274.856 190.71C284.817 181.749 291.969 169.987 294.256 156.784C296.1 146.156 300.994 136.294 308.343 128.397C315.692 120.501 325.178 114.912 335.647 112.311C347.825 109.188 358.687 102.254 366.647 92.522C386.124 69.045 419.28 58.397 448.233 70.471C477.186 82.545 492.956 113.588 489.987 143.948C488.671 156.451 491.388 169.048 497.741 179.897C503.258 189.165 505.963 199.836 505.525 210.613C505.087 221.39 501.526 231.807 495.276 240.597C487.503 251.511 484.182 264.874 484.831 278.257C485.289 288.038 483.114 297.764 478.533 306.418C473.951 315.072 467.131 322.338 458.784 327.457C447.004 334.654 438.186 345.827 433.925 358.957C430.746 368.842 425.311 377.852 418.051 385.274C410.79 392.697 401.902 398.329 392.09 401.725C382.278 405.121 371.811 406.189 361.515 404.842C351.219 403.496 341.378 399.774 332.769 393.969C322.757 387.225 311.506 382.534 299.669 380.169C290.126 378.267 281.114 374.307 273.258 368.565C265.403 362.824 258.893 355.439 254.183 346.925C249.473 338.411 246.676 328.973 245.986 319.267C245.296 309.562 246.73 299.823 250.189 290.728C251.107 288.316 252.162 285.958 253.349 283.666C259.677 271.398 261.409 257.271 258.232 243.838C255.583 232.648 256.548 220.907 260.989 210.3Z" fill="#00B72F"/>
<path d="M428.481 239.609C428.513 225.37 425.351 211.304 419.227 198.449C415.086 189.734 413.821 180.469 415.665 172.363C419.583 155.118 418.719 137.131 413.166 120.341C407.614 103.551 397.584 88.595 384.157 77.0859C377.555 81.2951 371.646 86.5031 366.641 92.5239C358.681 102.256 347.819 109.189 335.641 112.313C325.172 114.914 315.686 120.503 308.337 128.399C300.988 136.295 296.094 146.158 294.25 156.786C291.965 169.986 284.813 181.751 274.85 190.712C267.578 197.27 262.199 205.66 259.275 215.006C256.35 224.352 255.988 234.311 258.225 243.845C261.4 257.278 259.668 271.404 253.342 283.673C252.156 285.966 251.101 288.324 250.182 290.736C246.723 299.831 245.289 309.57 245.979 319.275C246.669 328.981 249.466 338.419 254.176 346.933C258.886 355.447 265.396 362.832 273.251 368.573C281.107 374.315 290.12 378.274 299.662 380.177C311.499 382.542 322.75 387.233 332.762 393.977C337.165 396.943 341.903 399.376 346.879 401.227C355.638 404.49 364.989 405.86 374.317 405.247C392.291 385.765 402.641 360.456 403.469 333.962C403.597 329.713 403.486 325.46 403.137 321.224C402.407 312.198 404.934 303.21 410.262 295.888C422.147 279.534 428.527 259.826 428.481 239.609Z" fill="#00A42C"/>
<path d="M397.574 239.609C397.587 229.959 395.447 220.427 391.308 211.709C384.46 197.291 381.988 181.072 385.527 165.509C388.377 152.977 387.519 139.886 383.058 127.833C378.598 115.78 370.728 105.284 360.406 97.626C348.451 88.6073 339.689 76.0045 335.4 61.656C324.746 26.91 293.164 0 255.793 0C218.422 0 186.844 26.91 176.193 61.652C171.904 76.004 163.14 88.6095 151.18 97.629C140.862 105.29 132.994 115.786 128.534 127.838C124.074 139.891 123.214 152.98 126.059 165.512C129.602 181.075 127.129 197.289 120.282 211.712C115.291 222.258 113.222 233.95 114.291 245.568C115.36 257.187 119.528 268.305 126.36 277.763C136.013 291.077 140.587 307.403 139.255 323.794C139 326.86 138.919 329.938 139.013 333.013C139.381 344.599 142.27 355.966 147.479 366.322C152.688 376.678 160.092 385.774 169.175 392.977C178.258 400.179 188.803 405.315 200.073 408.027C211.344 410.738 223.07 410.96 234.435 408.677C248.536 405.849 263.058 405.849 277.158 408.677C288.524 410.96 300.25 410.738 311.521 408.027C322.791 405.315 333.335 400.179 342.419 392.977C351.502 385.774 358.906 376.678 364.115 366.322C369.324 355.966 372.213 344.599 372.58 333.013C372.675 329.938 372.594 326.86 372.338 323.794C371.007 307.403 375.58 291.076 385.233 277.763C393.277 266.669 397.598 253.312 397.574 239.609Z" fill="#29CE69"/>
<path d="M321.941 248.164C329.376 244.25 332.765 235.172 329.211 227.564C328.319 225.649 327.048 223.936 325.474 222.528C323.899 221.119 322.056 220.045 320.054 219.371C318.053 218.696 315.935 218.435 313.829 218.603C311.724 218.771 309.675 219.365 307.805 220.349L271.395 239.513V196.263L321.942 169.658C329.376 165.744 332.766 156.666 329.212 149.058C328.32 147.143 327.048 145.429 325.473 144.021C323.899 142.612 322.054 141.538 320.052 140.863C318.05 140.188 315.932 139.927 313.826 140.095C311.72 140.262 309.67 140.856 307.8 141.84L271.391 161.008V112.754C271.433 108.692 269.917 104.768 267.156 101.788C264.394 98.8085 260.596 96.9999 256.542 96.734C254.434 96.6336 252.327 96.9622 250.349 97.6999C248.371 98.4377 246.563 99.5692 245.035 101.026C243.507 102.483 242.291 104.235 241.46 106.175C240.629 108.116 240.201 110.205 240.2 112.316V161.007L203.781 141.84C200.123 139.942 195.862 139.568 191.929 140.801C187.996 142.035 184.711 144.774 182.792 148.421C180.872 152.069 180.474 156.327 181.684 160.267C182.894 164.207 185.614 167.508 189.25 169.449L240.2 196.262V239.512L203.786 220.348C200.128 218.45 195.867 218.076 191.934 219.309C188.001 220.543 184.716 223.282 182.797 226.929C180.877 230.577 180.479 234.835 181.689 238.775C182.899 242.715 185.619 246.016 189.255 247.957L240.2 274.766V318.02L204.177 299.059C196.743 295.149 187.341 297.493 183.083 304.735C182.011 306.554 181.319 308.573 181.05 310.668C180.781 312.762 180.94 314.89 181.517 316.921C182.095 318.953 183.079 320.846 184.41 322.486C185.74 324.126 187.39 325.479 189.259 326.462L240.2 353.273V501.957C240.2 504.62 241.258 507.173 243.14 509.057C245.023 510.94 247.576 511.999 250.238 512H261.351C264.015 512 266.57 510.942 268.453 509.058C270.336 507.175 271.395 504.621 271.395 501.957V353.273L321.945 326.668C329.38 322.754 332.769 313.676 329.211 306.068C328.319 304.155 327.047 302.442 325.473 301.035C323.9 299.627 322.056 298.554 320.056 297.88C318.055 297.206 315.938 296.945 313.833 297.113C311.729 297.281 309.68 297.874 307.811 298.857L271.395 318.02V274.766L321.941 248.164Z" fill="#00B72F"/>
</svg>
