<svg width="521" height="512" viewBox="0 0 521 512" fill="none" xmlns="http://www.w3.org/2000/svg">
<path d="M358.023 249.109C345.246 236.332 345.323 214.309 346.191 203.898C346.328 202.234 347.052 200.672 348.233 199.491C349.414 198.31 350.976 197.586 352.64 197.449C363.046 196.578 385.074 196.504 397.851 209.285C410.628 222.066 410.551 244.085 409.687 254.496C409.549 256.161 408.825 257.723 407.643 258.904C406.461 260.085 404.899 260.808 403.234 260.945C392.832 261.816 370.8 261.891 358.023 249.109Z" fill="#89D47F"/>
<path d="M386.469 245.227C385.484 245.227 384.509 245.032 383.6 244.655C382.69 244.277 381.864 243.724 381.169 243.027L364.11 225.968C363.414 225.271 362.861 224.445 362.485 223.534C362.108 222.624 361.914 221.649 361.914 220.664C361.914 219.679 362.109 218.704 362.486 217.794C362.863 216.884 363.415 216.057 364.112 215.361C365.519 213.955 367.427 213.165 369.416 213.165C370.401 213.165 371.376 213.36 372.286 213.737C373.196 214.114 374.023 214.666 374.719 215.363L391.774 232.418C392.822 233.467 393.535 234.803 393.824 236.257C394.112 237.711 393.964 239.218 393.397 240.587C392.83 241.957 391.869 243.128 390.637 243.952C389.405 244.776 387.956 245.217 386.474 245.218L386.469 245.227Z" fill="#5EC783"/>
<path d="M392.281 171.719C379.504 158.938 379.581 136.91 380.445 126.508C380.584 124.843 381.308 123.281 382.489 122.099C383.671 120.918 385.233 120.194 386.898 120.055C397.298 119.188 419.328 119.114 432.109 131.891C444.89 144.668 444.809 166.691 443.941 177.102C443.804 178.767 443.081 180.329 441.9 181.51C440.719 182.691 439.157 183.414 437.492 183.551C427.086 184.422 405.059 184.5 392.281 171.719Z" fill="#89D47F"/>
<path d="M420.723 167.832C419.738 167.833 418.763 167.64 417.853 167.262C416.943 166.884 416.118 166.33 415.423 165.632L398.368 148.577C397.002 147.163 396.246 145.268 396.263 143.302C396.28 141.335 397.069 139.454 398.459 138.063C399.85 136.673 401.731 135.884 403.698 135.867C405.664 135.85 407.559 136.606 408.973 137.972L426.028 155.027C427.076 156.076 427.789 157.412 428.078 158.866C428.367 160.32 428.218 161.827 427.651 163.196C427.084 164.566 426.124 165.737 424.891 166.561C423.659 167.385 422.21 167.826 420.728 167.827L420.723 167.832Z" fill="#5EC783"/>
<path d="M436.98 257.359C455.05 257.359 470.574 272.988 477.316 280.959C478.396 282.233 478.989 283.849 478.989 285.519C478.989 287.19 478.396 288.806 477.316 290.08C470.574 298.053 455.05 313.68 436.98 313.68C418.91 313.68 403.38 298.051 396.64 290.08C395.56 288.806 394.967 287.19 394.967 285.519C394.967 283.849 395.56 282.233 396.64 280.959C403.383 272.988 418.906 257.359 436.98 257.359Z" fill="#89D47F"/>
<path d="M449.039 293.023H424.918C422.929 293.023 421.021 292.233 419.615 290.826C418.208 289.42 417.418 287.512 417.418 285.523C417.418 283.534 418.208 281.626 419.615 280.22C421.021 278.813 422.929 278.023 424.918 278.023H449.039C451.028 278.023 452.936 278.813 454.342 280.22C455.749 281.626 456.539 283.534 456.539 285.523C456.539 287.512 455.749 289.42 454.342 290.826C452.936 292.233 451.028 293.023 449.039 293.023Z" fill="#5EC783"/>
<path d="M478.988 180.754C497.062 180.754 512.588 196.383 519.328 204.354C520.408 205.629 521.001 207.245 521.001 208.916C521.001 210.587 520.408 212.204 519.328 213.479C512.586 221.448 497.062 237.079 478.988 237.079C460.914 237.079 445.394 221.45 438.652 213.479C437.572 212.204 436.979 210.587 436.979 208.916C436.979 207.245 437.572 205.629 438.652 204.354C445.395 196.383 460.918 180.754 478.988 180.754Z" fill="#89D47F"/>
<path d="M491.051 216.418H466.93C464.941 216.418 463.033 215.628 461.627 214.221C460.22 212.815 459.43 210.907 459.43 208.918C459.43 206.929 460.22 205.021 461.627 203.615C463.033 202.208 464.941 201.418 466.93 201.418H491.051C493.04 201.418 494.948 202.208 496.354 203.615C497.761 205.021 498.551 206.929 498.551 208.918C498.551 210.907 497.761 212.815 496.354 214.221C494.948 215.628 493.04 216.418 491.051 216.418Z" fill="#5EC783"/>
<path d="M361.652 320.672C360.17 320.671 358.721 320.23 357.489 319.406C356.257 318.582 355.296 317.411 354.729 316.041C354.162 314.672 354.013 313.165 354.302 311.711C354.591 310.257 355.304 308.921 356.352 307.872C391.481 272.747 444.567 219.661 444.567 119.731C444.567 117.742 445.357 115.834 446.764 114.428C448.17 113.021 450.078 112.231 452.067 112.231C454.056 112.231 455.964 113.021 457.37 114.428C458.777 115.834 459.567 117.742 459.567 119.731C459.567 165.649 449.348 205.879 428.325 242.723C410.68 273.653 388.337 297.106 366.962 318.481C366.264 319.177 365.436 319.729 364.525 320.105C363.614 320.481 362.638 320.674 361.652 320.672Z" fill="#5EC783"/>
<path d="M280.563 511.664C264.578 511.708 248.742 508.581 233.974 502.464C219.205 496.347 205.797 487.361 194.524 476.027L60.574 342.078C-8.19199 273.312 -8.19199 161.422 60.574 92.656C85.2394 67.9904 116.665 51.1928 150.877 44.3875C185.089 37.5823 220.551 41.0749 252.778 54.4238C285.005 67.7727 312.55 90.3784 331.929 119.382C351.309 148.386 361.652 182.485 361.652 217.367C361.652 226.289 360.871 235.82 360.113 245.039C358.25 267.754 356.136 293.496 366.597 303.953C383.613 320.969 395.202 342.649 399.897 366.252C404.592 389.854 402.182 414.319 392.973 436.552C383.764 458.785 368.169 477.788 348.16 491.158C328.151 504.528 304.627 511.664 280.562 511.664H280.563Z" fill="#FCF2D0"/>
<path d="M341.207 495.527C183.293 461.48 138.516 193.359 207.672 42.4059C200.246 41.4691 192.769 40.9995 185.285 40.9999C162.115 40.9364 139.162 45.4692 117.755 54.336C96.3486 63.2027 76.9132 76.2274 60.574 92.6559C-8.19199 161.422 -8.19199 273.312 60.574 342.078L194.523 476.027C213.442 494.928 238.055 507.077 264.565 510.601C291.074 514.126 318.007 508.828 341.207 495.527Z" fill="#F2D98D"/>
<path d="M213.664 456.891L79.715 322.941C62.3538 305.58 49.5422 284.205 42.415 260.71C35.2877 237.215 34.0648 212.324 38.8546 188.244C43.6445 164.163 54.2991 141.635 69.8749 122.656C85.4506 103.676 105.467 88.8312 128.15 79.4352C150.833 70.0392 175.484 66.3823 199.918 68.7886C224.352 71.1949 247.816 79.5899 268.231 93.2302C288.646 106.871 305.381 125.335 316.956 146.988C328.53 168.641 334.586 192.815 334.586 217.367C334.586 250.137 322.086 297.726 347.457 323.094C356.242 331.879 363.212 342.308 367.966 353.787C372.721 365.265 375.169 377.567 375.169 389.991C375.169 402.416 372.722 414.718 367.968 426.197C363.214 437.675 356.246 448.105 347.461 456.89C338.676 465.676 328.246 472.645 316.768 477.4C305.29 482.155 292.987 484.602 280.563 484.602C268.139 484.603 255.836 482.156 244.358 477.402C232.879 472.647 222.449 465.679 213.664 456.894V456.891Z" fill="#E3748E"/>
<path d="M303.156 481.871C184.145 420.43 148.672 208.453 197.219 68.5511C166.77 66.108 136.304 73.0641 109.933 88.4806C83.5619 103.897 62.5544 127.032 49.7453 154.764C36.9363 182.495 32.9422 213.489 38.3021 243.561C43.662 273.634 58.1179 301.339 79.719 322.938L213.664 456.887C225.168 468.403 239.451 476.754 255.129 481.131C270.807 485.508 287.35 485.763 303.156 481.871Z" fill="#DE5C6E"/>
<path d="M241.621 217.367C241.621 228.509 238.317 239.401 232.127 248.666C225.936 257.93 217.138 265.151 206.844 269.415C196.55 273.679 185.223 274.794 174.294 272.621C163.366 270.447 153.328 265.081 145.449 257.203C137.571 249.324 132.205 239.286 130.031 228.358C127.858 217.429 128.973 206.102 133.237 195.808C137.501 185.514 144.722 176.716 153.986 170.525C163.251 164.335 174.143 161.031 185.285 161.031C200.226 161.031 214.556 166.966 225.121 177.531C235.686 188.096 241.621 202.426 241.621 217.367Z" fill="#FCF2D0"/>
<path d="M177.977 161.52C164.113 163.327 151.416 170.226 142.357 180.876C133.298 191.526 128.524 205.165 128.965 219.14C129.405 233.115 135.028 246.426 144.74 256.484C154.451 266.543 167.557 272.629 181.508 273.559C175.9 236.484 174.714 198.874 177.977 161.52Z" fill="#F2D98D"/>
<path d="M277.719 278.332C276.237 278.331 274.788 277.89 273.556 277.066C272.323 276.242 271.363 275.071 270.796 273.701C270.229 272.332 270.08 270.825 270.369 269.371C270.658 267.917 271.371 266.581 272.419 265.532L284.689 253.259C286.096 251.852 288.004 251.062 289.993 251.062C291.983 251.062 293.891 251.852 295.298 253.259C296.705 254.666 297.495 256.574 297.495 258.563C297.495 260.553 296.705 262.461 295.298 263.868L283.025 276.138C282.329 276.836 281.502 277.389 280.591 277.765C279.681 278.142 278.704 278.334 277.719 278.332Z" fill="#DE5C6E"/>
<path d="M99.375 154.773C97.8926 154.772 96.4438 154.331 95.2117 153.507C93.9795 152.683 93.0192 151.512 92.4521 150.142C91.885 148.773 91.7365 147.266 92.0253 145.812C92.3142 144.358 93.0274 143.022 94.075 141.973L110.368 125.673C111.775 124.266 113.683 123.476 115.673 123.476C117.662 123.476 119.57 124.266 120.977 125.673C122.384 127.08 123.174 128.988 123.174 130.978C123.174 132.967 122.384 134.875 120.977 136.282L104.68 152.578C103.984 153.275 103.157 153.828 102.246 154.205C101.336 154.581 100.36 154.775 99.375 154.773Z" fill="#E3748E"/>
<path d="M85.859 201.676C84.3766 201.675 82.9278 201.234 81.6957 200.41C80.4635 199.586 79.5032 198.415 78.9361 197.045C78.369 195.676 78.2205 194.169 78.5094 192.715C78.7982 191.261 79.5114 189.925 80.559 188.876L95.372 174.067C96.0607 173.339 96.8884 172.756 97.8063 172.352C98.7242 171.949 99.7135 171.734 100.716 171.72C101.718 171.706 102.713 171.893 103.642 172.27C104.571 172.647 105.415 173.206 106.124 173.915C106.833 174.624 107.393 175.467 107.77 176.396C108.148 177.325 108.335 178.32 108.321 179.322C108.308 180.324 108.093 181.314 107.69 182.232C107.288 183.15 106.705 183.978 105.977 184.667L91.164 199.477C90.4681 200.175 89.6412 200.728 88.7308 201.106C87.8204 201.483 86.8445 201.677 85.859 201.676Z" fill="#E3748E"/>
</svg>
