<svg width="512" height="512" viewBox="0 0 512 512" fill="none" xmlns="http://www.w3.org/2000/svg">
<path d="M366.988 397.148V352.191C393.207 352.191 415.168 345.55 432.265 332.457C445.87 322.035 456.828 307.312 464.835 288.699C466.592 284.622 467.308 280.172 466.92 275.749C466.532 271.326 465.051 267.069 462.61 263.36C460.169 259.651 456.845 256.607 452.937 254.501C449.028 252.394 444.658 251.292 440.218 251.293H376.98V206.336H440.218C452.102 206.336 463.8 209.288 474.261 214.927C484.723 220.565 493.62 228.713 500.155 238.64C506.689 248.566 510.656 259.96 511.699 271.798C512.743 283.637 510.829 295.549 506.132 306.465C495.046 332.235 479.394 352.988 459.605 368.145C434.48 387.391 403.316 397.148 366.988 397.148Z" fill="#C9D3FF"/>
<path d="M446.637 318.7C442.353 323.788 437.535 328.4 432.266 332.458C415.166 345.552 393.207 352.196 366.989 352.196V397.149C391.942 397.149 414.458 392.549 434.251 383.426C439.571 362.096 443.706 340.487 446.637 318.7Z" fill="#8FA1F5"/>
<path d="M376.979 206.336V251.293H440.217C444.373 251.276 448.475 252.227 452.199 254.07C452.844 236.953 452.793 221.242 452.363 207.37C448.351 206.682 444.287 206.336 440.215 206.335L376.979 206.336Z" fill="#8FA1F5"/>
<path d="M419.945 180.016C419.405 173.198 416.314 166.834 411.289 162.195C406.264 157.555 399.675 154.98 392.836 154.985H28.9376C22.0984 154.981 15.509 157.555 10.4841 162.195C5.45918 166.835 2.36814 173.198 1.82762 180.016C-2.38338 233.762 -4.55538 364.75 57.2336 480.664C62.1962 490.003 69.6049 497.818 78.6667 503.271C87.7286 508.724 98.1026 511.61 108.679 511.621H313.094C323.67 511.61 334.044 508.724 343.106 503.271C352.167 497.818 359.576 490.003 364.539 480.664C426.328 364.75 424.156 233.762 419.945 180.016Z" fill="#C9D3FF"/>
<path d="M88.1404 480.664C26.3514 364.75 28.5224 233.762 32.7334 180.016C33.2744 173.198 36.3655 166.835 41.3903 162.195C46.4151 157.556 53.0042 154.981 59.8434 154.984H28.9434C22.1033 154.979 15.5128 157.554 10.4868 162.193C5.46077 166.833 2.36871 173.197 1.82745 180.016C-2.37955 233.762 -4.55555 364.75 57.2334 480.664C62.1961 490.003 69.6047 497.818 78.6666 503.271C87.7284 508.724 98.1024 511.61 108.678 511.621H139.584C129.009 511.61 118.635 508.723 109.573 503.27C100.511 497.817 93.103 490.003 88.1404 480.664Z" fill="#8FA1F5"/>
<path d="M188.57 244.387L163.67 219.487H133.7L108.8 244.387C101.876 251.313 97.9869 260.706 97.9878 270.5V323.293C97.9879 325.579 98.4384 327.843 99.3136 329.955C100.189 332.067 101.471 333.986 103.088 335.603C104.705 337.219 106.625 338.501 108.737 339.376C110.849 340.25 113.113 340.7 115.4 340.7H181.978C184.264 340.7 186.528 340.25 188.641 339.375C190.753 338.5 192.672 337.218 194.289 335.601C195.906 333.984 197.188 332.065 198.063 329.953C198.938 327.84 199.388 325.576 199.388 323.29V270.5C199.388 265.65 198.433 260.848 196.577 256.367C194.721 251.886 192 247.815 188.57 244.387Z" fill="#E9E9E9"/>
<path d="M128.895 323.293V270.5C128.895 260.706 132.786 251.313 139.711 244.387L164.141 219.957L163.672 219.488H133.7L108.8 244.388C101.876 251.314 97.9872 260.707 97.9878 270.5V323.293C97.9879 325.579 98.4384 327.843 99.3136 329.955C100.189 332.067 101.471 333.986 103.088 335.603C104.705 337.219 106.625 338.501 108.737 339.376C110.849 340.25 113.113 340.7 115.4 340.7H146.3C141.684 340.699 137.257 338.865 133.992 335.601C130.728 332.336 128.895 327.909 128.895 323.293Z" fill="#D3D2D8"/>
<path d="M148.688 234.477C146.719 234.477 144.77 234.09 142.952 233.336C141.133 232.583 139.48 231.479 138.089 230.087C136.697 228.695 135.593 227.043 134.84 225.224C134.087 223.406 133.699 221.456 133.7 219.488V154.988C133.7 151.014 135.278 147.202 138.089 144.392C140.899 141.582 144.71 140.003 148.684 140.003C152.658 140.003 156.47 141.582 159.28 144.392C162.09 147.202 163.669 151.014 163.669 154.988V219.488C163.67 223.462 162.092 227.274 159.282 230.085C156.473 232.896 152.662 234.476 148.688 234.477Z" fill="#333941"/>
<path d="M150.853 127.033C149.26 127.035 147.709 126.529 146.423 125.59C145.137 124.651 144.183 123.328 143.7 121.81C143.216 120.293 143.228 118.662 143.734 117.152C144.239 115.642 145.212 114.332 146.512 113.412C149.411 111.358 151.775 108.64 153.407 105.484C155.039 102.328 155.891 98.8273 155.891 95.2746C155.891 91.7218 155.039 88.2209 153.407 85.0651C151.775 81.9093 149.411 79.1907 146.512 77.1371C141.656 73.6976 137.696 69.1443 134.962 63.8587C132.229 58.5732 130.803 52.7095 130.803 46.7591C130.803 40.8087 132.229 34.9449 134.962 29.6594C137.696 24.3739 141.656 19.8205 146.512 16.3811C148.135 15.2312 150.148 14.7733 152.109 15.1079C154.07 15.4426 155.817 16.5424 156.967 18.1656C158.117 19.7887 158.575 21.8021 158.24 23.7629C157.906 25.7237 156.806 27.4712 155.183 28.6211C152.284 30.6747 149.919 33.3933 148.287 36.5491C146.655 39.7049 145.804 43.2058 145.804 46.7586C145.804 50.3113 146.655 53.8123 148.287 56.9681C149.919 60.1238 152.284 62.8425 155.183 64.8961C160.038 68.3355 163.999 72.8889 166.732 78.1744C169.465 83.4599 170.892 89.3237 170.892 95.2741C170.892 101.224 169.465 107.088 166.732 112.374C163.999 117.659 160.038 122.213 155.183 125.652C153.918 126.551 152.404 127.033 150.853 127.033Z" fill="#E5E5E5"/>
<path d="M219.529 127.033C217.936 127.035 216.385 126.53 215.099 125.591C213.813 124.652 212.859 123.328 212.375 121.811C211.891 120.294 211.903 118.662 212.409 117.152C212.914 115.642 213.887 114.332 215.187 113.412C218.086 111.358 220.45 108.64 222.082 105.484C223.714 102.328 224.566 98.8273 224.566 95.2745C224.566 91.7218 223.714 88.2208 222.082 85.065C220.45 81.9093 218.086 79.1906 215.187 77.137C210.331 73.6974 206.371 69.1441 203.638 63.8585C200.905 58.573 199.479 52.7094 199.479 46.759C199.479 40.8087 200.905 34.9451 203.638 29.6595C206.371 24.374 210.331 19.8207 215.187 16.381C215.99 15.8117 216.898 15.4062 217.859 15.1878C218.819 14.9693 219.813 14.9422 220.784 15.1079C221.755 15.2736 222.684 15.6289 223.517 16.1535C224.351 16.6782 225.073 17.3618 225.642 18.1655C226.212 18.9692 226.617 19.8772 226.835 20.8376C227.054 21.798 227.081 22.792 226.915 23.7629C226.75 24.7338 226.394 25.6625 225.87 26.4961C225.345 27.3296 224.661 28.0517 223.858 28.621C220.959 30.6746 218.594 33.3933 216.962 36.5491C215.33 39.7048 214.479 43.2058 214.479 46.7585C214.479 50.3113 215.33 53.8123 216.962 56.968C218.594 60.1238 220.959 62.8424 223.858 64.896C228.713 68.3355 232.674 72.8888 235.407 78.1744C238.14 83.4599 239.567 89.3236 239.567 95.274C239.567 101.224 238.14 107.088 235.407 112.374C232.674 117.659 228.713 122.213 223.858 125.652C222.593 126.551 221.08 127.034 219.529 127.033Z" fill="#E5E5E5"/>
<path d="M288.206 127.033C286.614 127.035 285.063 126.529 283.777 125.59C282.491 124.651 281.537 123.328 281.054 121.81C280.57 120.293 280.582 118.662 281.087 117.152C281.593 115.642 282.566 114.332 283.865 113.412C286.765 111.358 289.129 108.64 290.761 105.484C292.393 102.328 293.244 98.8273 293.244 95.2745C293.244 91.7218 292.393 88.2208 290.761 85.065C289.129 81.9093 286.765 79.1906 283.865 77.137C279.01 73.6974 275.05 69.1441 272.317 63.8585C269.584 58.573 268.157 52.7094 268.157 46.759C268.157 40.8087 269.584 34.9451 272.317 29.6595C275.05 24.374 279.01 19.8207 283.865 16.381C284.669 15.8117 285.577 15.4062 286.537 15.1878C287.498 14.9693 288.492 14.9422 289.463 15.1079C290.434 15.2736 291.362 15.6289 292.196 16.1535C293.03 16.6782 293.752 17.3618 294.321 18.1655C294.89 18.9692 295.296 19.8772 295.514 20.8376C295.733 21.798 295.76 22.792 295.594 23.7629C295.428 24.7338 295.073 25.6625 294.548 26.4961C294.024 27.3296 293.34 28.0517 292.536 28.621C289.637 30.6746 287.273 33.3933 285.641 36.5491C284.009 39.7048 283.157 43.2058 283.157 46.7585C283.157 50.3113 284.009 53.8123 285.641 56.968C287.273 60.1238 289.637 62.8424 292.536 64.896C297.392 68.3357 301.352 72.889 304.085 78.1745C306.818 83.4601 308.245 89.3237 308.245 95.274C308.245 101.224 306.818 107.088 304.085 112.374C301.352 117.659 297.392 122.212 292.536 125.652C291.271 126.551 289.758 127.033 288.206 127.033Z" fill="#E5E5E5"/>
</svg>
