<svg width="512" height="512" viewBox="0 0 512 512" fill="none" xmlns="http://www.w3.org/2000/svg">
<path d="M371.906 457C354.154 406.079 316.306 383.534 316.306 383.534H137.252C137.252 383.534 99.4011 406.079 81.6521 457C75.5642 474.693 72.5177 493.289 72.6421 512H380.916C381.041 493.289 377.995 474.693 371.906 457Z" fill="#FF995D"/>
<path d="M167.252 383.534H137.252C137.252 383.534 99.4011 406.079 81.6521 457C75.5642 474.693 72.5177 493.289 72.6421 512H102.642C102.518 493.289 105.564 474.693 111.652 457C129.401 406.079 167.252 383.534 167.252 383.534Z" fill="#FF7E27"/>
<path d="M13.1941 228.584C13.194 186.341 25.7204 145.047 49.1893 109.923C72.6582 74.7989 106.016 47.4232 145.043 31.2575C184.07 15.0918 227.015 10.8621 268.446 19.1034C309.878 27.3446 347.935 47.6866 377.805 77.557C397.7 97.344 413.473 120.881 424.211 146.804C434.949 172.728 440.439 200.524 440.362 228.584H13.1941Z" fill="#5C586F"/>
<path d="M244.277 15.715C238.487 15.249 232.652 15 226.777 15C198.729 15 170.955 20.5245 145.042 31.2581C119.129 41.9917 95.5838 57.7242 75.7507 77.5574C55.9177 97.3905 40.1853 120.936 29.4518 146.849C18.7184 172.762 13.194 200.536 13.1941 228.584H48.1941C48.1944 174.967 68.36 123.312 104.686 83.8763C141.012 44.4406 190.841 20.1095 244.277 15.715Z" fill="#423E4F"/>
<path d="M414.79 274.906C439.246 270.941 455.859 247.901 451.894 223.445C447.929 198.988 424.889 182.376 400.433 186.34C375.976 190.305 359.364 213.345 363.328 237.802C367.293 262.258 390.333 278.871 414.79 274.906Z" fill="#C7856A"/>
<path d="M226.777 118.878C226.777 118.878 99.5999 29.3779 52.8999 186.243C46.5076 212.567 46.1759 240 51.9298 266.471C57.6837 292.942 69.3731 317.762 86.1163 339.057C102.86 360.353 124.22 377.569 148.586 389.407C172.952 401.245 199.687 407.395 226.777 407.395C253.866 407.395 280.602 401.245 304.968 389.407C329.334 377.569 350.694 360.353 367.438 339.057C384.181 317.762 395.87 292.942 401.624 266.471C407.378 240 407.046 212.567 400.654 186.243C353.955 29.382 226.777 118.878 226.777 118.878Z" fill="#DA9D81"/>
<path d="M77.847 228.584C77.8411 214.32 79.5374 200.105 82.9 186.243C101.774 122.843 133.791 99.696 165.247 94.608C125.977 88.9 77.904 102.259 52.9 186.243C52.894 186.267 52.889 186.291 52.884 186.315C50.5687 185.896 48.2199 185.689 45.867 185.697C39.9751 185.697 34.1409 186.857 28.6975 189.112C23.2541 191.367 18.3081 194.672 14.1419 198.838C9.97573 203.004 6.67092 207.95 4.4162 213.394C2.16147 218.837 1.00098 224.671 1.00098 230.563C1.00098 236.455 2.16147 242.289 4.4162 247.732C6.67092 253.176 9.97573 258.122 14.1419 262.288C18.3081 266.454 23.2541 269.759 28.6975 272.014C34.1409 274.269 39.9751 275.429 45.867 275.429C48.5448 275.443 51.2166 275.172 53.837 274.62C63.9959 312.729 86.4567 346.416 117.73 370.447C149.003 394.479 187.337 407.509 226.777 407.513C231.83 407.513 236.83 407.293 241.777 406.882C197.077 403.12 155.42 382.706 125.06 349.683C94.6989 316.661 77.8486 273.44 77.847 228.582V228.584Z" fill="#C7856A"/>
<path d="M161.104 257.625C161.104 274.515 143.911 288.207 122.704 288.207C101.497 288.207 84.304 274.515 84.304 257.625C84.304 240.735 101.497 227.044 122.704 227.044C143.911 227.044 161.104 240.736 161.104 257.625Z" fill="#ECECEC"/>
<path d="M292.451 257.625C292.451 274.515 309.644 288.207 330.851 288.207C352.058 288.207 369.251 274.515 369.251 257.625C369.251 240.735 352.058 227.044 330.851 227.044C309.644 227.044 292.451 240.736 292.451 257.625Z" fill="#ECECEC"/>
<path d="M247.162 234.128C247.162 221.528 238.036 211.317 226.777 211.317C215.518 211.317 206.393 221.53 206.393 234.128C206.393 246.726 215.519 256.938 226.777 256.938C238.035 256.938 247.162 246.726 247.162 234.128Z" fill="#423E4F"/>
<path d="M166.763 227.98C164.774 227.98 162.866 227.19 161.46 225.783C160.053 224.377 159.263 222.469 159.263 220.48C159.237 217.954 158.216 215.541 156.421 213.764C154.626 211.988 152.202 210.991 149.677 210.991C147.151 210.991 144.727 211.988 142.932 213.764C141.137 215.541 140.116 217.954 140.09 220.48C140.09 222.469 139.3 224.377 137.893 225.783C136.487 227.19 134.579 227.98 132.59 227.98C130.601 227.98 128.693 227.19 127.287 225.783C125.88 224.377 125.09 222.469 125.09 220.48C125.132 213.986 127.74 207.773 132.346 203.196C136.953 198.619 143.183 196.05 149.677 196.05C156.17 196.05 162.4 198.619 167.007 203.196C171.613 207.773 174.222 213.986 174.263 220.48C174.263 222.469 173.473 224.377 172.066 225.783C170.66 227.19 168.752 227.98 166.763 227.98Z" fill="#423E4F"/>
<path d="M319.493 227.98C317.504 227.98 315.596 227.19 314.19 225.783C312.783 224.377 311.993 222.469 311.993 220.48C311.993 217.938 310.983 215.499 309.185 213.702C307.388 211.904 304.949 210.894 302.407 210.894C299.865 210.894 297.426 211.904 295.629 213.702C293.831 215.499 292.821 217.938 292.821 220.48C292.821 222.469 292.031 224.377 290.624 225.783C289.218 227.19 287.31 227.98 285.321 227.98C283.332 227.98 281.424 227.19 280.018 225.783C278.611 224.377 277.821 222.469 277.821 220.48C277.821 213.959 280.411 207.706 285.022 203.095C289.633 198.484 295.886 195.894 302.407 195.894C308.928 195.894 315.181 198.484 319.792 203.095C324.403 207.706 326.993 213.959 326.993 220.48C326.993 222.469 326.203 224.377 324.796 225.783C323.39 227.19 321.482 227.98 319.493 227.98Z" fill="#423E4F"/>
<path d="M474.609 109.1H338.846L352.246 272.568C352.538 276.133 354.161 279.458 356.792 281.882C359.422 284.306 362.869 285.652 366.446 285.652H462.473C466.05 285.652 469.497 284.306 472.127 281.882C474.758 279.458 476.381 276.133 476.673 272.568L488.809 124.512C488.97 122.549 488.722 120.575 488.082 118.713C487.441 116.85 486.422 115.141 485.087 113.693C483.753 112.245 482.133 111.089 480.329 110.298C478.526 109.508 476.578 109.1 474.609 109.1Z" fill="#96D7E8"/>
<path d="M343.101 161.011C356.129 159.927 368.274 153.99 377.132 144.376C385.99 134.762 390.915 122.172 390.931 109.1H338.846L343.101 161.011Z" fill="#68C9E0"/>
<path d="M338.849 146.853C359.701 146.853 376.604 129.95 376.604 109.098C376.604 88.2465 359.701 71.343 338.849 71.343C317.997 71.343 301.094 88.2465 301.094 109.098C301.094 129.95 317.997 146.853 338.849 146.853Z" fill="#E6C468"/>
<path d="M338.848 133.4C352.27 133.4 363.15 122.52 363.15 109.098C363.15 95.6763 352.27 84.7959 338.848 84.7959C325.426 84.7959 314.546 95.6763 314.546 109.098C314.546 122.52 325.426 133.4 338.848 133.4Z" fill="#FDD974"/>
<path d="M363.149 105.516H347.497L358.565 94.4489C359.229 93.7753 359.6 92.8665 359.596 91.9206C359.593 90.9748 359.216 90.0686 358.547 89.3998C357.878 88.7309 356.972 88.3537 356.026 88.3504C355.08 88.347 354.172 88.7178 353.498 89.3819L342.429 100.448V84.7959C342.429 83.8456 342.051 82.9343 341.38 82.2623C340.708 81.5904 339.796 81.2129 338.846 81.2129C337.896 81.2129 336.984 81.5904 336.312 82.2623C335.64 82.9343 335.263 83.8456 335.263 84.7959V100.448L324.195 89.3809C323.521 88.7168 322.613 88.346 321.667 88.3494C320.721 88.3527 319.815 88.7299 319.146 89.3988C318.477 90.0676 318.1 90.9738 318.096 91.9196C318.093 92.8655 318.464 93.7743 319.128 94.4479L330.195 105.515H314.543C314.072 105.515 313.607 105.608 313.172 105.788C312.737 105.968 312.342 106.232 312.009 106.564C311.677 106.897 311.413 107.292 311.233 107.727C311.053 108.161 310.96 108.627 310.96 109.098C310.96 109.568 311.053 110.034 311.233 110.469C311.413 110.904 311.677 111.299 312.009 111.631C312.342 111.964 312.737 112.228 313.172 112.408C313.607 112.588 314.072 112.681 314.543 112.681H330.195L319.128 123.749C318.791 124.081 318.524 124.476 318.341 124.912C318.157 125.347 318.062 125.815 318.061 126.288C318.059 126.76 318.151 127.229 318.331 127.666C318.511 128.103 318.776 128.5 319.11 128.834C319.444 129.168 319.841 129.433 320.278 129.613C320.715 129.793 321.184 129.885 321.656 129.883C322.129 129.882 322.597 129.786 323.032 129.603C323.468 129.42 323.863 129.152 324.195 128.816L335.262 117.749V133.401C335.262 134.351 335.639 135.263 336.311 135.934C336.983 136.606 337.895 136.984 338.845 136.984C339.795 136.984 340.707 136.606 341.379 135.934C342.05 135.263 342.428 134.351 342.428 133.401V117.75L353.495 128.817C354.169 129.481 355.077 129.852 356.023 129.848C356.969 129.845 357.875 129.468 358.544 128.799C359.213 128.13 359.59 127.224 359.593 126.278C359.597 125.332 359.226 124.423 358.562 123.75L347.496 112.682H363.148C364.098 112.682 365.01 112.304 365.682 111.632C366.353 110.961 366.731 110.049 366.731 109.099C366.731 108.149 366.353 107.237 365.682 106.565C365.01 105.893 364.098 105.516 363.148 105.516H363.149Z" fill="#E6C468"/>
<path d="M505.151 70.2879L503.224 62.4359C503.125 62.0282 502.946 61.6439 502.698 61.3052C502.451 60.9665 502.139 60.6799 501.78 60.4618C501.421 60.2438 501.023 60.0985 500.609 60.0344C500.194 59.9702 499.771 59.9884 499.363 60.0879L460.108 69.7219C456.011 70.7114 452.275 72.8328 449.326 75.8441C446.376 78.8553 444.334 82.6351 443.43 86.7519L418.493 198.409L432.618 201.563L457.554 89.9109C457.879 88.4296 458.614 87.0694 459.675 85.9856C460.736 84.9019 462.08 84.1383 463.554 83.7819L502.809 74.1479C503.216 74.0483 503.6 73.8695 503.938 73.6216C504.276 73.3737 504.562 73.0616 504.78 72.7031C504.997 72.3447 505.142 71.9469 505.205 71.5325C505.269 71.1181 505.251 70.6952 505.151 70.2879Z" fill="#E3E6E8"/>
<path d="M431.945 189.856C404.215 189.856 393.895 176.426 359.521 184.156L366.655 271.182H462.269L469.481 183.197C459.567 186.56 446.217 189.856 431.945 189.856Z" fill="#FDD974"/>
<path d="M359.52 184.15L364.275 242.168L366.653 271.177H380.986L373.529 181.986C368.813 182.366 364.131 183.09 359.52 184.15Z" fill="#E6C468"/>
<path d="M386.398 226.568C385.448 226.568 384.536 226.19 383.864 225.518C383.192 224.847 382.815 223.935 382.815 222.985V217.899C382.815 216.949 383.192 216.037 383.864 215.365C384.536 214.693 385.448 214.316 386.398 214.316C387.348 214.316 388.26 214.693 388.932 215.365C389.603 216.037 389.981 216.949 389.981 217.899V222.985C389.981 223.935 389.603 224.847 388.932 225.518C388.26 226.19 387.348 226.568 386.398 226.568Z" fill="#3B484A"/>
<path d="M442.6 226.568C441.65 226.568 440.738 226.19 440.066 225.518C439.394 224.847 439.017 223.935 439.017 222.985V217.899C439.017 216.949 439.394 216.037 440.066 215.365C440.738 214.693 441.65 214.316 442.6 214.316C443.55 214.316 444.461 214.693 445.133 215.365C445.805 216.037 446.183 216.949 446.183 217.899V222.985C446.183 223.935 445.805 224.847 445.133 225.518C444.461 226.19 443.55 226.568 442.6 226.568Z" fill="#3B484A"/>
<path d="M414.499 230.327C412.38 230.342 410.283 229.903 408.348 229.041C406.413 228.178 404.685 226.912 403.28 225.327C402.97 224.972 402.733 224.56 402.583 224.114C402.432 223.668 402.371 223.197 402.403 222.727C402.435 222.257 402.559 221.798 402.768 221.376C402.977 220.955 403.267 220.578 403.621 220.268C403.976 219.959 404.388 219.722 404.834 219.571C405.28 219.421 405.752 219.36 406.221 219.391C406.691 219.423 407.15 219.547 407.572 219.756C407.994 219.965 408.37 220.255 408.68 220.61C409.423 221.413 410.323 222.053 411.326 222.491C412.328 222.929 413.41 223.155 414.503 223.155C415.597 223.155 416.679 222.929 417.681 222.491C418.683 222.053 419.584 221.413 420.327 220.61C420.637 220.255 421.013 219.965 421.435 219.756C421.857 219.547 422.316 219.423 422.785 219.391C423.255 219.36 423.726 219.421 424.173 219.571C424.619 219.722 425.031 219.959 425.385 220.268C425.74 220.578 426.03 220.955 426.239 221.376C426.448 221.798 426.572 222.257 426.604 222.727C426.635 223.197 426.574 223.668 426.424 224.114C426.273 224.56 426.037 224.972 425.727 225.327C424.321 226.913 422.591 228.18 420.654 229.043C418.718 229.905 416.619 230.343 414.499 230.327Z" fill="#3B484A"/>
</svg>
