<svg width="512" height="512" viewBox="0 0 512 512" fill="none" xmlns="http://www.w3.org/2000/svg">
<path d="M512 272.43C512 389.371 417.2 484.168 300.258 484.168C183.316 484.168 88.5161 389.371 88.5161 272.43C88.5161 155.489 183.316 60.688 300.258 60.688C417.2 60.688 512 155.488 512 272.43Z" fill="#F9545B"/>
<path d="M171.508 110.246C168.981 110.246 166.465 110.309 163.957 110.402C140.306 130.256 121.295 155.052 108.261 183.046C95.2265 211.04 88.4869 241.551 88.5162 272.43C88.5162 382.668 172.762 473.215 280.383 483.23C309.044 464.941 332.637 439.728 348.985 409.918C365.333 380.107 373.909 346.659 373.922 312.66C373.922 201.051 283.121 110.246 171.508 110.246Z" fill="#E64047"/>
<path d="M343.016 312.66C343.016 346.581 332.957 379.74 314.112 407.945C295.266 436.149 268.48 458.132 237.141 471.113C205.802 484.094 171.318 487.49 138.049 480.873C104.779 474.255 74.2194 457.92 50.2336 433.935C26.2478 409.949 9.91323 379.389 3.29556 346.12C-3.32212 312.85 0.0743122 278.366 13.0553 247.027C26.0364 215.688 48.019 188.902 76.2233 170.056C104.428 151.211 137.587 141.152 171.508 141.152C194.031 141.152 216.333 145.588 237.142 154.207C257.95 162.826 276.857 175.459 292.783 191.385C308.709 207.311 321.342 226.218 329.961 247.027C338.58 267.835 343.016 290.137 343.016 312.66Z" fill="#F9545B"/>
<path d="M124.453 190.473C99.7696 199.987 78.5465 216.754 63.5781 238.565C48.6098 260.376 40.5981 286.209 40.5981 312.663C40.5981 339.116 48.6098 364.949 63.5781 386.76C78.5465 408.572 99.7696 425.338 124.453 434.852C127.586 436.039 130.96 436.447 134.285 436.041C137.611 435.634 140.788 434.426 143.542 432.52C146.297 430.613 148.548 428.066 150.1 425.098C151.652 422.129 152.46 418.827 152.453 415.477V209.848C152.46 206.498 151.653 203.196 150.101 200.227C148.549 197.258 146.298 194.711 143.543 192.804C140.788 190.898 137.611 189.69 134.286 189.284C130.96 188.877 127.586 189.286 124.453 190.473Z" fill="#E64047"/>
<path d="M218.566 190.473C215.433 189.285 212.059 188.877 208.733 189.283C205.407 189.689 202.23 190.897 199.475 192.804C196.72 194.71 194.47 197.257 192.918 200.227C191.366 203.196 190.559 206.498 190.566 209.848V415.477C190.559 418.827 191.367 422.129 192.919 425.098C194.471 428.066 196.722 430.613 199.476 432.52C202.231 434.426 205.408 435.634 208.734 436.041C212.059 436.447 215.433 436.039 218.566 434.852C243.248 425.337 264.471 408.57 279.438 386.759C294.406 364.948 302.417 339.115 302.417 312.663C302.417 286.21 294.406 260.377 279.438 238.566C264.471 216.755 243.248 199.988 218.566 190.473Z" fill="#E64047"/>
<path d="M116.168 317.117C116.767 316.621 117.25 316.001 117.586 315.299C117.921 314.598 118.1 313.832 118.111 313.054C118.121 312.277 117.962 311.506 117.646 310.796C117.329 310.086 116.862 309.453 116.277 308.941C108.86 302.343 99.3348 298.603 89.4099 298.391C87.5177 298.365 85.6391 298.715 83.8835 299.421C82.1279 300.128 80.5303 301.177 79.1839 302.506C77.8374 303.836 76.7688 305.42 76.0404 307.167C75.312 308.914 74.9382 310.788 74.9409 312.68C75.0107 316.488 76.5738 320.116 79.2934 322.782C82.013 325.449 85.6714 326.94 89.4799 326.934C99.2498 326.881 108.693 323.408 116.168 317.117Z" fill="#F3C13B"/>
<path d="M120.352 267.8C121.126 267.872 121.906 267.776 122.639 267.517C123.372 267.259 124.04 266.844 124.597 266.302C125.154 265.76 125.587 265.104 125.866 264.378C126.144 263.653 126.262 262.876 126.211 262.1C125.633 252.187 121.542 242.805 114.672 235.635C113.352 234.279 111.776 233.199 110.035 232.458C108.294 231.717 106.423 231.329 104.53 231.317C102.638 231.306 100.762 231.67 99.0123 232.39C97.2622 233.11 95.6727 234.17 94.3362 235.51C91.6924 238.251 90.2318 241.922 90.2693 245.73C90.3067 249.539 91.8391 253.18 94.5362 255.869C101.482 262.742 110.616 266.964 120.352 267.8Z" fill="#F3E64D"/>
<path d="M120.352 357.516C121.126 357.444 121.906 357.541 122.639 357.8C123.371 358.059 124.039 358.473 124.596 359.015C125.153 359.557 125.586 360.213 125.864 360.938C126.143 361.664 126.262 362.441 126.211 363.216C125.633 373.128 121.542 382.509 114.672 389.677C113.353 391.034 111.777 392.115 110.036 392.857C108.295 393.598 106.424 393.987 104.531 393.999C102.639 394.011 100.763 393.646 99.0125 392.926C97.2623 392.207 95.6727 391.146 94.3362 389.806C91.6924 387.064 90.2318 383.393 90.2693 379.584C90.3067 375.775 91.839 372.133 94.5362 369.443C101.483 362.572 110.617 358.352 120.352 357.516Z" fill="#F3E64D"/>
<path d="M226.848 317.117C226.25 316.621 225.766 316 225.431 315.299C225.096 314.597 224.917 313.832 224.907 313.054C224.896 312.277 225.055 311.506 225.371 310.796C225.688 310.086 226.154 309.453 226.739 308.941C234.158 302.342 243.684 298.602 253.61 298.39C255.502 298.364 257.381 298.714 259.136 299.421C260.891 300.127 262.489 301.176 263.835 302.506C265.181 303.836 266.249 305.42 266.977 307.166C267.705 308.913 268.078 310.787 268.075 312.679C268.007 316.487 266.444 320.116 263.724 322.783C261.005 325.45 257.345 326.94 253.536 326.933C243.766 326.88 234.324 323.407 226.848 317.117Z" fill="#F3C13B"/>
<path d="M222.664 267.8C221.891 267.872 221.11 267.776 220.378 267.517C219.645 267.258 218.978 266.844 218.421 266.302C217.864 265.76 217.432 265.103 217.153 264.378C216.875 263.653 216.758 262.875 216.809 262.1C217.386 252.187 221.477 242.804 228.348 235.635C229.668 234.279 231.244 233.199 232.984 232.458C234.725 231.717 236.596 231.329 238.488 231.317C240.38 231.306 242.255 231.67 244.005 232.39C245.755 233.11 247.344 234.17 248.68 235.51C251.324 238.252 252.784 241.922 252.747 245.731C252.71 249.539 251.177 253.18 248.48 255.869C241.534 262.742 232.4 266.964 222.664 267.8Z" fill="#F3E64D"/>
<path d="M222.664 357.516C221.89 357.444 221.111 357.541 220.378 357.8C219.646 358.059 218.978 358.473 218.421 359.015C217.865 359.557 217.432 360.213 217.154 360.939C216.876 361.664 216.758 362.441 216.809 363.216C217.386 373.128 221.477 382.51 228.348 389.677C229.667 391.034 231.243 392.114 232.983 392.856C234.724 393.598 236.595 393.986 238.487 393.998C240.379 394.01 242.255 393.646 244.005 392.926C245.755 392.206 247.344 391.146 248.68 389.806C251.324 387.064 252.784 383.392 252.747 379.584C252.709 375.775 251.177 372.133 248.48 369.443C241.532 362.573 232.399 358.353 222.664 357.516Z" fill="#F3E64D"/>
<path d="M338.293 76.6C337.427 75.981 336.722 75.1643 336.235 74.2179C335.749 73.2715 335.495 72.2227 335.495 71.1585C335.495 70.0943 335.749 69.0455 336.235 68.0991C336.722 67.1527 337.427 66.3361 338.293 65.717C339.129 65.131 339.94 64.51 340.727 63.854C350.536 55.654 353.887 44.12 350.797 33.631C350.449 32.495 349.803 31.4728 348.927 30.6706C348.05 29.8684 346.975 29.3154 345.813 29.069C333.09 26.254 318.977 29.008 309 37.344C305.259 40.4113 302.269 44.2928 300.258 48.692C298.246 44.2928 295.256 40.4113 291.516 37.344C281.539 29.008 267.422 26.254 254.704 29.067C253.541 29.3135 252.466 29.8666 251.59 30.669C250.713 31.4714 250.068 32.4938 249.72 33.63C246.63 44.118 249.982 55.657 259.79 63.853C260.575 64.509 261.386 65.13 262.224 65.716C263.089 66.3351 263.795 67.1517 264.281 68.0981C264.768 69.0445 265.022 70.0933 265.022 71.1575C265.022 72.2217 264.768 73.2705 264.281 74.2169C263.795 75.1633 263.089 75.98 262.224 76.599C261.388 77.185 260.577 77.806 259.79 78.462C249.99 86.662 246.63 98.196 249.72 108.685C250.067 109.821 250.713 110.843 251.588 111.646C252.464 112.448 253.538 113.002 254.7 113.25C267.419 116.059 281.536 113.305 291.513 104.969C292.918 103.799 294.227 102.517 295.427 101.137C296.026 100.444 296.767 99.8878 297.6 99.5067C298.433 99.1255 299.339 98.9283 300.255 98.9283C301.171 98.9283 302.076 99.1255 302.909 99.5067C303.743 99.8878 304.484 100.444 305.083 101.137C306.283 102.518 307.593 103.799 309 104.969C318.977 113.305 333.09 116.059 345.813 113.25C346.975 113.003 348.051 112.449 348.927 111.646C349.803 110.843 350.449 109.821 350.797 108.684C353.887 98.196 350.535 86.657 340.727 78.461C339.941 77.805 339.13 77.1847 338.293 76.6Z" fill="#73D98B"/>
</svg>
