<svg width="512" height="512" viewBox="0 0 512 512" fill="none" xmlns="http://www.w3.org/2000/svg">
<path d="M332.221 0C312.017 0 292.64 8.02608 278.354 22.3126C264.067 36.5991 256.041 55.9758 256.041 76.18V101.868H279.861C300.065 101.868 319.442 93.8419 333.728 79.5554C348.015 65.2689 356.041 45.8922 356.041 25.688V23.82C356.041 17.5025 353.531 11.4438 349.064 6.97672C344.597 2.5096 338.538 0 332.221 0V0Z" fill="#00CE8E"/>
<path d="M296.641 61.267C295.235 59.8607 293.327 59.0706 291.338 59.0706C289.349 59.0706 287.442 59.8607 286.035 61.267L262.454 84.85C258.029 89.2503 254.521 94.4846 252.133 100.25C249.745 106.015 248.524 112.197 248.541 118.437V126.482H263.541V118.437C263.53 114.167 264.365 109.938 265.999 105.994C267.633 102.049 270.033 98.4677 273.06 95.457L296.641 71.875C297.338 71.1785 297.89 70.3517 298.268 69.4416C298.645 68.5315 298.839 67.5561 298.839 66.571C298.839 65.5859 298.645 64.6105 298.268 63.7004C297.89 62.7904 297.338 61.9635 296.641 61.267Z" fill="#00B27A"/>
<path d="M331.574 118.955C306.153 115.571 280.294 118.148 256.041 126.482C231.021 117.906 204.316 115.426 178.145 119.249C151.974 123.072 127.094 133.087 105.573 148.461C84.0519 163.836 66.5119 184.125 54.411 207.643C42.3102 231.161 35.9983 257.228 36 283.677C36 375.453 110.4 497 202.172 497H309.91C400.926 497 476.082 376.079 476.082 283.676C476.074 243.362 461.412 204.426 434.826 174.121C408.24 143.817 371.544 124.21 331.574 118.955Z" fill="#FF7B94"/>
<path d="M187.066 283.676C187.066 228.199 214.26 156.65 256.041 126.482C231.021 117.906 204.315 115.426 178.144 119.249C151.973 123.072 127.092 133.088 105.571 148.463C84.0498 163.838 66.5098 184.128 54.4093 207.647C42.3088 231.165 35.9975 257.233 36 283.682C36 375.458 110.4 497.005 202.172 497.005H309.91C317.155 496.99 324.392 496.505 331.574 495.553C250.041 484.924 187.066 368.1 187.066 283.676Z" fill="#EA5B70"/>
</svg>
