<svg width="512" height="512" viewBox="0 0 512 512" fill="none" xmlns="http://www.w3.org/2000/svg">
<path d="M353.938 8C327.486 8 302.117 18.5081 283.413 37.2126C264.708 55.9171 254.2 81.2858 254.2 107.738V141.369H285.385C311.837 141.369 337.206 130.861 355.91 112.156C374.615 93.4519 385.123 68.0832 385.123 41.631V39.185C385.123 30.9142 381.837 22.9822 375.989 17.1339C370.141 11.2856 362.209 8 353.938 8V8Z" fill="#00CE8E"/>
<path d="M254.2 190.913C252.211 190.913 250.303 190.123 248.897 188.716C247.49 187.31 246.7 185.402 246.7 183.413V163.061C246.679 155.196 248.218 147.405 251.228 140.138C254.237 132.872 258.659 126.275 264.235 120.728L302.051 82.91C303.457 81.5034 305.365 80.7132 307.354 80.7132C309.344 80.7132 311.251 81.5034 312.658 82.91C314.064 84.3166 314.855 86.2243 314.855 88.2135C314.855 90.2027 314.064 92.1104 312.658 93.517L274.841 131.334C270.662 135.491 267.348 140.435 265.092 145.881C262.837 151.327 261.684 157.166 261.7 163.061V183.413C261.7 185.402 260.91 187.31 259.503 188.716C258.097 190.123 256.189 190.913 254.2 190.913Z" fill="#00B27A"/>
<path d="M332.6 335C332.6 428.888 305.356 505 226.214 505C147.072 505 46 428.888 46 335C46 241.112 110.157 165 189.3 165C268.443 165 332.6 241.112 332.6 335Z" fill="#F9973E"/>
<path d="M466 335C466 428.888 364.931 505 285.79 505C206.649 505 162.49 428.888 162.49 335C162.49 241.112 243.561 165 322.7 165C401.839 165 466 241.112 466 335Z" fill="#FFB357"/>
</svg>
