<svg width="512" height="512" viewBox="0 0 512 512" fill="none" xmlns="http://www.w3.org/2000/svg">
<path d="M420.477 132.185C406.619 119.035 395.77 103.041 388.677 85.302C379.318 62.4418 363.367 42.8837 342.857 29.1179C322.346 15.352 298.203 8.00101 273.501 8.00079C248.799 8.00058 224.656 15.3511 204.145 29.1167C183.634 42.8822 167.684 62.4399 158.324 85.3C151.112 102.913 140.624 119.045 126.703 132.019C95.0605 161.49 73.0209 199.802 63.4522 241.971C53.8835 284.14 57.2287 328.212 73.0525 368.454C88.8763 408.695 116.446 443.242 152.174 467.599C187.902 491.956 230.135 504.996 273.375 505.021C316.616 505.046 358.863 492.055 394.62 467.739C430.376 443.423 457.985 408.908 473.855 368.684C489.726 328.461 493.121 284.392 483.601 242.213C474.081 200.033 452.086 161.695 420.477 132.188V132.185Z" fill="#00CE8E"/>
<path d="M443.047 214.51C432.927 191.675 418.283 171.128 400 154.111C383.274 138.492 370.124 119.167 360.912 96.67C355.151 82.6859 346.134 70.2795 334.612 60.483C334.374 60.283 334.142 60.072 333.902 59.872C322.503 50.3758 309.026 43.6998 294.564 40.3852C280.103 37.0706 265.064 37.2108 250.667 40.7945C236.269 44.3781 222.92 51.3043 211.699 61.0113C200.479 70.7184 191.704 82.9331 186.087 96.665C176.851 119.223 163.752 138.501 147.154 153.965C119.826 179.296 100.774 212.282 92.4879 248.612C84.2021 284.942 87.0677 322.926 100.71 357.602C114.353 392.277 138.138 422.031 168.957 442.976C199.777 463.92 236.197 475.081 273.46 475H273.48C274.347 475 275.205 474.994 276.08 474.982C307.918 474.554 339.109 465.929 366.643 449.938C366.968 449.749 367.285 449.546 367.608 449.355C395.421 432.987 418.474 409.638 434.486 381.618C450.497 353.599 458.911 321.883 458.893 289.612C458.952 263.743 453.554 238.153 443.051 214.512L443.047 214.51Z" fill="#FCE3A0"/>
<path d="M228.127 271.889C227.774 246.05 232.845 220.424 243.013 196.666C253.18 172.909 268.217 151.548 287.154 133.964C318.815 104.464 323.078 78.064 334.61 60.483C286.424 19.421 210.748 36.44 186.087 96.666C176.851 119.224 163.752 138.502 147.154 153.966C128.562 171.229 113.725 192.137 103.568 215.386C50.0518 337.659 139.691 476.819 276.075 474.986C307.913 474.558 339.103 465.933 366.638 449.942C366.963 449.753 367.28 449.55 367.603 449.359C327.999 439.371 292.825 416.533 267.587 384.42C242.348 352.307 228.471 312.731 228.127 271.889Z" fill="#FFCE71"/>
<path d="M273.48 195C248.775 195.013 225.047 204.65 207.329 221.866C189.611 239.082 179.296 262.523 178.572 287.218C177.849 311.912 186.773 335.917 203.453 354.141C220.133 372.365 243.256 383.374 267.918 384.834C269.758 384.94 271.61 385 273.476 385C298.672 385 322.835 374.991 340.651 357.175C358.467 339.359 368.476 315.196 368.476 290C368.476 264.804 358.467 240.641 340.651 222.825C322.835 205.009 298.672 195 273.476 195H273.48Z" fill="#CE857A"/>
<path d="M241.4 200.557C220.79 207.951 203.367 222.237 192.077 240.998C180.788 259.76 176.324 281.844 179.443 303.517C182.561 325.19 193.069 345.121 209.191 359.938C225.312 374.756 246.056 383.55 267.914 384.834C247.735 359.135 234.664 328.584 230.011 296.242C225.357 263.9 229.285 230.903 241.4 200.557Z" fill="#C77464"/>
</svg>
