<svg width="512" height="512" viewBox="0 0 512 512" fill="none" xmlns="http://www.w3.org/2000/svg">
<path d="M463 125.321C460.221 111.702 453.505 99.199 443.684 89.363C436.204 81.9124 431.779 71.9361 431.275 61.391C431.237 60.654 431.216 59.914 431.216 59.173V30.483C431.216 14.212 418.459 0.458005 402.194 0.0120054C398.203 -0.100021 394.231 0.589199 390.511 2.03891C386.792 3.48863 383.401 5.66941 380.539 8.45231C377.677 11.2352 375.401 14.5637 373.848 18.2411C372.294 21.9184 371.494 25.87 371.494 29.862V45.6C371.498 52.6062 369.78 59.5059 366.49 65.6916C363.2 71.8773 358.44 77.1592 352.628 81.072C341.1 88.822 331.498 100.344 325.692 115.772C305.334 169.857 273.664 218.973 232.799 259.834C191.938 300.699 142.823 332.368 88.7389 352.724C55.2819 365.324 40.1949 395.765 42.1709 424.994C44.1549 454.343 63.3429 482.466 98.4259 490.06C148.579 500.907 200.653 498.998 249.877 484.506C299.102 470.014 343.903 443.404 380.179 407.112C416.455 370.82 443.045 326.006 457.514 276.775C471.984 227.544 473.87 175.47 463 125.321Z" fill="#FFCE71"/>
<path d="M431.278 61.391C431.24 60.654 431.219 59.914 431.219 59.173V30.483C431.219 14.212 418.462 0.458005 402.197 0.0120054C398.206 -0.100021 394.234 0.589199 390.514 2.03891C386.795 3.48863 383.404 5.66941 380.542 8.45231C377.68 11.2352 375.404 14.5637 373.851 18.2411C372.297 21.9184 371.497 25.87 371.497 29.862V45.6C371.501 52.6062 369.783 59.5059 366.493 65.6916C363.203 71.8773 358.443 77.1592 352.631 81.072C341.103 88.822 331.501 100.344 325.695 115.772C305.337 169.857 273.667 218.973 232.802 259.834C191.94 300.699 142.824 332.368 88.7389 352.724C55.2819 365.324 40.1949 395.765 42.1709 424.994C92.2895 429.764 142.85 423.836 190.506 407.602C238.161 391.368 281.826 365.198 318.611 330.825C355.396 296.452 384.461 254.659 403.884 208.211C423.307 161.763 432.644 111.721 431.278 61.394V61.391Z" fill="#FFB357"/>
<path d="M431.219 44.124V30.483C431.219 14.212 418.462 0.458005 402.197 0.0120054C398.206 -0.100021 394.234 0.589199 390.514 2.03891C386.795 3.48863 383.404 5.66941 380.542 8.45231C377.68 11.2352 375.404 14.5637 373.851 18.2411C372.297 21.9184 371.497 25.87 371.497 29.862V44.411C391.11 49.3554 411.655 49.2567 431.22 44.124H431.219Z" fill="#00C084"/>
</svg>
