<svg width="512" height="512" viewBox="0 0 512 512" fill="none" xmlns="http://www.w3.org/2000/svg">
<path d="M401.383 32.781C407.847 34.0709 413.784 37.2465 418.446 41.9073C423.107 46.568 426.283 52.5049 427.574 58.969C432.557 83.8037 430.846 109.517 422.616 133.472C414.385 157.428 399.932 178.763 380.738 195.292C361.544 211.82 338.3 222.946 313.388 227.53C288.476 232.113 262.794 229.989 238.974 221.375C230.363 197.555 228.241 171.874 232.827 146.964C237.412 122.053 248.538 98.8107 265.066 79.6179C281.594 60.4252 302.929 45.9728 326.883 37.7425C350.837 29.5121 376.549 27.7998 401.383 32.781Z" fill="#00C655"/>
<path d="M292.91 92.426C309.536 75.7774 330.023 63.5001 352.544 56.688C375.065 49.8759 398.921 48.7405 421.988 53.383C423.474 53.6854 424.938 54.0863 426.371 54.583C424.468 49.0859 421.161 44.182 416.778 40.3578C412.394 36.5337 407.087 33.9224 401.383 32.783C376.549 27.8026 350.838 29.5154 326.885 37.746C302.931 45.9766 281.597 60.4288 265.07 79.6212C248.542 98.8135 237.416 122.056 232.831 146.965C228.245 171.875 230.367 197.555 238.977 221.375C244.182 223.251 249.493 224.821 254.883 226.075C249.304 202.404 249.869 177.699 256.525 154.308C263.18 130.916 275.705 109.615 292.91 92.426Z" fill="#00B72F"/>
<path d="M238.977 229.1C237.449 229.1 235.955 228.648 234.685 227.799C233.414 226.951 232.424 225.744 231.839 224.333C231.254 222.921 231.1 221.368 231.398 219.869C231.696 218.37 232.432 216.994 233.512 215.913L348.773 100.652C349.491 99.9345 350.343 99.3655 351.28 98.9772C352.218 98.589 353.223 98.3893 354.238 98.3894C355.253 98.3895 356.257 98.5896 357.195 98.978C358.132 99.3665 358.984 99.9359 359.702 100.654C360.419 101.371 360.988 102.223 361.376 103.161C361.765 104.098 361.964 105.103 361.964 106.118C361.964 107.133 361.764 108.138 361.376 109.075C360.987 110.013 360.418 110.865 359.7 111.582L244.438 226.84C243.722 227.558 242.87 228.127 241.933 228.515C240.996 228.903 239.991 229.102 238.977 229.1Z" fill="#00B72F"/>
<path d="M110.617 32.781C104.153 34.0709 98.2154 37.2465 93.5541 41.9073C88.8928 46.568 85.7165 52.5049 84.4259 58.969C79.4427 83.8037 81.154 109.517 89.3842 133.472C97.6145 157.428 112.068 178.763 131.262 195.292C150.456 211.82 173.7 222.946 198.612 227.53C223.523 232.113 249.206 229.989 273.026 221.375C281.637 197.555 283.758 171.874 279.173 146.964C274.588 122.053 263.461 98.8107 246.933 79.6179C230.405 60.4252 209.071 45.9728 185.117 37.7425C161.163 29.5121 135.451 27.7998 110.617 32.781Z" fill="#73D98B"/>
<path d="M144.063 167.449C127.414 150.821 115.137 130.333 108.327 107.81C101.517 85.2875 100.384 61.4297 105.031 38.363C105.331 36.8779 105.732 35.4149 106.231 33.984C100.733 35.8856 95.8285 39.1919 92.0035 43.5748C88.1785 47.9577 85.5662 53.2646 84.4259 58.969C79.4427 83.8038 81.154 109.517 89.3842 133.472C97.6145 157.428 112.068 178.763 131.262 195.292C150.456 211.82 173.7 222.946 198.612 227.53C223.523 232.113 249.206 229.989 273.026 221.375C274.901 216.171 276.47 210.862 277.726 205.475C254.053 211.056 229.345 210.492 205.951 203.837C182.557 197.181 161.253 184.656 144.063 167.449Z" fill="#29CE69"/>
<path d="M273.023 229.1C272.008 229.101 271.003 228.902 270.065 228.514C269.127 228.125 268.275 227.556 267.558 226.838L152.3 111.578C150.866 110.126 150.065 108.166 150.071 106.125C150.078 104.084 150.891 102.129 152.334 100.686C153.777 99.2431 155.732 98.4296 157.773 98.4233C159.814 98.4169 161.774 99.2181 163.226 100.652L278.488 215.914C279.569 216.995 280.305 218.371 280.603 219.87C280.901 221.369 280.748 222.923 280.163 224.334C279.578 225.746 278.587 226.953 277.316 227.801C276.045 228.65 274.551 229.103 273.023 229.102V229.1Z" fill="#29CE69"/>
<path d="M512 331.1C512 360.965 503.144 390.159 486.552 414.991C469.96 439.823 446.377 459.177 418.785 470.606C391.194 482.035 360.833 485.025 331.541 479.199C302.25 473.372 275.345 458.991 254.227 437.873C233.109 416.755 218.728 389.85 212.901 360.559C207.075 331.267 210.065 300.906 221.494 273.315C232.923 245.723 252.277 222.14 277.109 205.548C301.941 188.956 331.135 180.1 361 180.1C401.048 180.1 439.455 196.009 467.773 224.327C496.091 252.645 512 291.052 512 331.1Z" fill="#827CD1"/>
<path d="M210 331.1C209.987 356.601 216.438 381.689 228.751 404.021C241.063 426.352 258.835 445.199 280.406 458.8C314.04 424.806 332.906 378.916 332.906 331.095C332.906 283.274 314.04 237.384 280.406 203.39C258.833 216.992 241.061 235.84 228.748 258.174C216.436 280.507 209.986 305.597 210 331.1Z" fill="#625AC5"/>
<path d="M302 331.1C302 360.965 293.144 390.159 276.552 414.991C259.96 439.823 236.377 459.177 208.785 470.606C181.194 482.035 150.833 485.025 121.541 479.199C92.2503 473.372 65.3447 458.991 44.2269 437.873C23.1092 416.755 8.72786 389.85 2.90149 360.559C-2.92488 331.267 0.0654249 300.906 11.4943 273.315C22.9231 245.723 42.2771 222.14 67.109 205.548C91.9408 188.956 121.135 180.1 151 180.1C191.048 180.1 229.455 196.009 257.773 224.327C286.091 252.645 302 291.052 302 331.1Z" fill="#918BD7"/>
<path d="M30.906 331.1C30.9072 293.727 44.7663 257.682 69.8034 229.935C94.8404 202.189 129.277 184.711 166.453 180.883C161.319 180.362 156.161 180.1 151 180.1C130.525 180.11 110.267 184.284 91.4556 192.369C72.6445 200.453 55.674 212.278 41.5758 227.126C27.4775 241.973 16.546 259.533 9.44596 278.737C2.34587 297.941 -0.774516 318.389 0.274499 338.836C1.32351 359.284 6.52001 379.305 15.5481 397.682C24.5762 416.058 37.2472 432.407 52.7909 445.734C68.3345 459.061 86.4261 469.088 105.966 475.204C125.505 481.321 146.085 483.4 166.453 481.315C129.277 477.487 94.8412 460.009 69.8043 432.263C44.7673 404.517 30.9079 368.473 30.906 331.1Z" fill="#827CD1"/>
</svg>
