<svg width="512" height="512" viewBox="0 0 512 512" fill="none" xmlns="http://www.w3.org/2000/svg">
<path d="M512 129.889C512 62.572 458.429 8 392.347 8H352V46.111C352 113.429 405.571 168 471.653 168H474.587C495.25 168 512 150.937 512 129.889Z" fill="#00CE8E"/>
<path d="M431.539 81.741L368.424 22.168C368.211 18.34 366.541 14.7388 363.756 12.1039C360.971 9.46898 357.283 8.00049 353.449 8C342.308 8 314.912 8 310.005 8.008C305.14 8.0132 300.288 8.50093 295.519 9.464C291.731 10.2219 288.011 11.2837 284.394 12.639C260.72 21.556 216.565 44.5 183.088 90.718C154.95 129.474 139.861 176.172 140 224.065V239.065H170V224.065C170 152.81 207.442 89.055 266.445 54.665C268.586 53.4187 271.002 52.7223 273.478 52.6381C275.953 52.554 278.411 53.0846 280.632 54.1827C282.852 55.2808 284.766 56.9121 286.202 58.9307C287.638 60.9492 288.551 63.2922 288.86 65.75C296.806 127.116 321.499 185.107 360.23 233.365L369.771 245.165L393.513 226.646L383.581 214.534C343.205 164.211 319.729 102.437 316.492 38H353.025C355.837 37.9961 358.596 37.2362 361.013 35.8L421.243 92.65C422.69 94.0159 424.62 94.7511 426.608 94.694C428.597 94.6369 430.482 93.7921 431.847 92.3455C433.213 90.8989 433.949 88.9689 433.891 86.9802C433.834 84.9915 432.99 83.1069 431.543 81.741H431.539Z" fill="#00B27A"/>
<path d="M210 236.223C182.311 224.386 151.544 221.79 122.262 228.818C92.9809 235.846 66.7446 252.126 47.4449 275.241C28.1452 298.356 16.81 327.077 15.1206 357.143C13.4311 387.208 21.4774 417.018 38.0659 442.15C54.6545 467.282 78.9018 486.398 107.212 496.663C135.521 506.927 166.385 507.794 195.226 499.134C224.067 490.473 249.349 472.748 267.321 448.586C285.294 424.424 295 395.113 295 365C295.067 337.555 287.039 310.699 271.92 287.793C256.801 264.888 235.262 246.95 210 236.223Z" fill="#FF7B94"/>
<path d="M125 365C124.998 337.569 133.052 310.742 148.163 287.848C163.274 264.955 184.776 247.004 210 236.223C188.709 227.142 165.498 223.483 142.446 225.571C119.394 227.659 97.2187 235.431 77.906 248.19C58.5933 260.949 42.7455 278.298 31.781 298.683C20.8165 319.068 15.0774 341.853 15.0774 365C15.0774 388.147 20.8165 410.932 31.781 431.317C42.7455 451.703 58.5933 469.051 77.906 481.81C97.2187 494.569 119.394 502.341 142.446 504.429C165.498 506.517 188.709 502.858 210 493.777C184.776 482.997 163.274 465.045 148.163 442.152C133.052 419.258 124.998 392.431 125 365Z" fill="#EA5B70"/>
<path d="M427 236.223C399.311 224.386 368.544 221.79 339.262 228.818C309.981 235.846 283.745 252.126 264.445 275.241C245.145 298.356 233.81 327.077 232.121 357.143C230.431 387.208 238.477 417.018 255.066 442.15C271.654 467.282 295.902 486.398 324.211 496.663C352.521 506.927 383.385 507.794 412.226 499.134C441.067 490.473 466.349 472.748 484.321 448.586C502.294 424.424 512 395.113 512 365C512.067 337.555 504.039 310.699 488.92 287.793C473.801 264.888 452.262 246.95 427 236.223Z" fill="#FF7B94"/>
<path d="M342 365C341.998 337.569 350.052 310.742 365.163 287.848C380.274 264.955 401.776 247.004 427 236.223C405.709 227.142 382.498 223.483 359.446 225.571C336.394 227.659 314.219 235.431 294.906 248.19C275.593 260.949 259.746 278.298 248.781 298.683C237.816 319.068 232.077 341.853 232.077 365C232.077 388.147 237.816 410.932 248.781 431.317C259.746 451.703 275.593 469.051 294.906 481.81C314.219 494.569 336.394 502.341 359.446 504.429C382.498 506.517 405.709 502.858 427 493.777C401.776 482.997 380.274 465.045 365.163 442.152C350.052 419.258 341.998 392.431 342 365Z" fill="#EA5B70"/>
</svg>
