<svg width="514" height="512" viewBox="0 0 514 512" fill="none" xmlns="http://www.w3.org/2000/svg">
<path d="M342 41.04C315.306 28.8887 286.329 22.5682 257 22.5C128.043 22.5 23.4995 145.835 23.4995 274.794C23.4995 403.753 128.043 489.5 257 489.5C285.866 489.614 314.564 485.095 342 476.116C428.926 447.273 490.5 373.76 490.5 274.793C490.5 175.826 428.928 80.179 342 41.04Z" fill="#D6948C"/>
<path d="M193.5 274.794C193.5 175.826 255.074 80.178 342 41.04C315.306 28.8887 286.329 22.5682 257 22.5C128.043 22.5 23.4995 145.835 23.4995 274.794C23.4995 403.753 128.043 489.5 257 489.5C285.866 489.614 314.564 485.095 342 476.116C255.076 447.275 193.5 373.762 193.5 274.794Z" fill="#CE857A"/>
<path d="M444.98 242.418C445.676 241.722 446.229 240.895 446.606 239.985C446.982 239.075 447.176 238.099 447.176 237.115C447.176 236.13 446.982 235.154 446.606 234.244C446.229 233.334 445.676 232.507 444.98 231.811L427.2 214.032L420.327 190.989L464.918 164.434C462.759 159.915 460.478 155.463 458.075 151.077C457.965 151.135 457.853 151.187 457.745 151.251L407.635 181.09C406.2 181.944 405.091 183.253 404.484 184.808C403.877 186.364 403.806 188.078 404.284 189.678L410.839 211.657L357.346 218.374C356.16 218.523 355.027 218.953 354.042 219.628C353.056 220.303 352.246 221.204 351.679 222.256L342.286 239.676L299.819 229.748C298.857 229.517 297.859 229.478 296.883 229.634C295.906 229.79 294.97 230.137 294.128 230.656C293.286 231.175 292.555 231.856 291.978 232.658C291.4 233.461 290.986 234.37 290.761 235.333C290.536 236.296 290.504 237.294 290.666 238.27C290.828 239.245 291.182 240.179 291.706 241.018C292.231 241.856 292.916 242.582 293.722 243.155C294.528 243.728 295.44 244.135 296.405 244.354L338.665 254.234V278.693C338.665 280.682 339.455 282.59 340.861 283.996C342.268 285.403 344.175 286.193 346.165 286.193C348.154 286.193 350.061 285.403 351.468 283.996C352.874 282.59 353.665 280.682 353.665 278.693V250.179L363.048 232.779L417.848 225.899L434.373 242.424C435.069 243.12 435.897 243.672 436.807 244.049C437.717 244.425 438.692 244.618 439.677 244.618C440.662 244.617 441.637 244.423 442.547 244.045C443.457 243.668 444.284 243.115 444.98 242.418Z" fill="#AC6757"/>
<path d="M199.129 141.432C215.698 141.432 229.129 128.001 229.129 111.432C229.129 94.8635 215.698 81.432 199.129 81.432C182.561 81.432 169.129 94.8635 169.129 111.432C169.129 128.001 182.561 141.432 199.129 141.432Z" fill="#AC6757"/>
<path d="M119.129 211.432C135.698 211.432 149.129 198.001 149.129 181.432C149.129 164.863 135.698 151.432 119.129 151.432C102.561 151.432 89.1294 164.863 89.1294 181.432C89.1294 198.001 102.561 211.432 119.129 211.432Z" fill="#AC6757"/>
<path d="M209.129 231.432C225.698 231.432 239.129 218.001 239.129 201.432C239.129 184.863 225.698 171.432 209.129 171.432C192.561 171.432 179.129 184.863 179.129 201.432C179.129 218.001 192.561 231.432 209.129 231.432Z" fill="#AC6757"/>
<path d="M216.764 466.939C214.798 466.638 212.793 467.129 211.19 468.306C209.586 469.483 208.516 471.249 208.214 473.215L203.593 503.364C203.428 504.344 203.46 505.348 203.686 506.316C203.912 507.284 204.328 508.197 204.911 509.003C205.493 509.809 206.23 510.491 207.078 511.009C207.927 511.528 208.869 511.872 209.852 512.023C210.835 512.174 211.838 512.127 212.802 511.887C213.767 511.647 214.674 511.217 215.471 510.623C216.268 510.029 216.939 509.282 217.445 508.426C217.951 507.571 218.282 506.623 218.418 505.638L223.039 475.489C223.341 473.523 222.849 471.518 221.672 469.915C220.496 468.311 218.73 467.241 216.764 466.939Z" fill="#AC6757"/>
<path d="M311.527 478.614C311.356 477.644 310.996 476.717 310.467 475.886C309.938 475.055 309.251 474.337 308.444 473.771C307.637 473.206 306.727 472.805 305.766 472.592C304.804 472.378 303.81 472.356 302.84 472.527C301.87 472.698 300.943 473.058 300.112 473.587C299.281 474.116 298.562 474.803 297.997 475.61C297.432 476.416 297.031 477.327 296.817 478.288C296.604 479.25 296.582 480.244 296.753 481.214L299.753 498.28C300.058 500.016 300.965 501.588 302.314 502.722C303.663 503.856 305.368 504.478 307.131 504.48C307.569 504.48 308.007 504.442 308.439 504.366C309.409 504.195 310.336 503.835 311.167 503.307C311.998 502.778 312.716 502.09 313.282 501.284C313.847 500.477 314.248 499.567 314.462 498.606C314.675 497.644 314.697 496.65 314.527 495.68L311.527 478.614Z" fill="#AC6757"/>
<path d="M135.9 442.159C134.174 441.17 132.126 440.907 130.206 441.429C128.287 441.95 126.653 443.212 125.664 444.938L113.664 465.882C113.174 466.737 112.858 467.679 112.732 468.656C112.607 469.633 112.675 470.625 112.933 471.576C113.192 472.526 113.634 473.417 114.237 474.196C114.839 474.976 115.589 475.629 116.443 476.119C117.298 476.608 118.241 476.925 119.218 477.05C120.195 477.175 121.187 477.107 122.137 476.849C123.088 476.591 123.978 476.148 124.758 475.546C125.537 474.943 126.19 474.194 126.68 473.339L138.68 452.395C139.169 451.54 139.486 450.598 139.611 449.621C139.736 448.644 139.668 447.652 139.41 446.701C139.152 445.751 138.709 444.86 138.107 444.081C137.504 443.302 136.754 442.649 135.9 442.159Z" fill="#AC6757"/>
<path d="M393.944 444.771C392.91 443.071 391.244 441.851 389.312 441.38C387.379 440.908 385.339 441.224 383.639 442.257C381.939 443.29 380.719 444.956 380.247 446.889C379.776 448.821 380.091 450.862 381.125 452.562L390.125 467.368C390.636 468.21 391.309 468.942 392.103 469.524C392.898 470.106 393.8 470.526 394.757 470.759C395.714 470.992 396.707 471.035 397.681 470.885C398.654 470.734 399.588 470.393 400.43 469.881C401.272 469.37 402.005 468.697 402.586 467.903C403.168 467.108 403.588 466.206 403.821 465.249C404.055 464.292 404.097 463.299 403.947 462.325C403.796 461.352 403.455 460.418 402.944 459.576L393.944 444.771Z" fill="#AC6757"/>
<path d="M61.6116 385.278L45.6116 396.613C44.8079 397.182 44.1243 397.905 43.5997 398.738C43.075 399.572 42.7198 400.501 42.5541 401.472C42.3885 402.442 42.4157 403.436 42.6342 404.397C42.8527 405.357 43.2582 406.265 43.8276 407.069C44.397 407.873 45.1192 408.556 45.9528 409.081C46.7864 409.606 47.7152 409.961 48.6861 410.126C49.6571 410.292 50.6511 410.265 51.6115 410.046C52.572 409.828 53.4799 409.422 54.2836 408.853L70.2836 397.518C71.0873 396.949 71.771 396.226 72.2956 395.393C72.8202 394.559 73.1755 393.63 73.3411 392.659C73.5068 391.689 73.4796 390.694 73.2611 389.734C73.0426 388.774 72.637 387.866 72.0676 387.062C71.4982 386.258 70.7761 385.575 69.9424 385.05C69.1088 384.525 68.18 384.17 67.2091 384.004C66.2382 383.839 65.2441 383.866 64.2837 384.085C63.3233 384.303 62.4153 384.709 61.6116 385.278Z" fill="#AC6757"/>
<path d="M470.132 390.836L455.132 380.866C453.475 379.804 451.467 379.435 449.541 379.84C447.615 380.245 445.926 381.39 444.837 383.029C443.748 384.668 443.346 386.67 443.72 388.602C444.093 390.534 445.21 392.242 446.832 393.358L461.832 403.328C462.651 403.892 463.575 404.288 464.55 404.491C465.524 404.695 466.529 404.702 467.506 404.514C468.483 404.325 469.413 403.944 470.241 403.392C471.069 402.84 471.78 402.129 472.33 401.3C472.881 400.471 473.261 399.541 473.449 398.564C473.637 397.586 473.628 396.581 473.423 395.607C473.219 394.634 472.822 393.71 472.257 392.891C471.692 392.072 470.969 391.373 470.132 390.836Z" fill="#AC6757"/>
<path d="M45.8276 307.688C45.6683 306.716 45.3191 305.785 44.7999 304.948C44.2807 304.111 43.6017 303.384 42.8017 302.81C42.0018 302.235 41.0964 301.824 40.1374 301.599C39.1784 301.374 38.1846 301.341 37.2126 301.5L7.28759 306.407C6.30251 306.551 5.35604 306.891 4.50341 307.405C3.65077 307.919 2.90902 308.598 2.32143 309.401C1.73383 310.205 1.31215 311.118 1.08096 312.086C0.84978 313.055 0.813729 314.059 0.974911 315.042C1.13609 316.024 1.49128 316.965 2.01976 317.809C2.54825 318.652 3.23944 319.383 4.05304 319.956C4.86664 320.53 5.78636 320.936 6.75856 321.151C7.73076 321.366 8.73598 321.385 9.71559 321.207L39.6406 316.3C41.6032 315.978 43.3576 314.89 44.5179 313.274C45.6781 311.659 46.1492 309.649 45.8276 307.686V307.688Z" fill="#AC6757"/>
<path d="M506.509 300L476.462 295.921C475.482 295.778 474.482 295.83 473.522 296.076C472.561 296.321 471.659 296.755 470.867 297.351C470.075 297.947 469.409 298.695 468.908 299.55C468.407 300.405 468.08 301.351 467.947 302.334C467.814 303.316 467.876 304.315 468.132 305.273C468.387 306.231 468.829 307.129 469.434 307.914C470.038 308.7 470.792 309.358 471.652 309.851C472.513 310.343 473.462 310.661 474.445 310.784L504.492 314.863C505.473 315.006 506.473 314.954 507.433 314.708C508.394 314.463 509.296 314.029 510.088 313.433C510.88 312.836 511.545 312.089 512.047 311.234C512.548 310.379 512.875 309.432 513.008 308.45C513.141 307.468 513.078 306.469 512.823 305.511C512.568 304.553 512.126 303.655 511.521 302.87C510.917 302.084 510.163 301.426 509.303 300.933C508.442 300.44 507.493 300.123 506.509 300Z" fill="#AC6757"/>
<path d="M18.6544 224.518L31.6544 227.486C32.6187 227.717 33.6193 227.754 34.5983 227.596C35.5772 227.438 36.5151 227.087 37.3575 226.564C38.2 226.041 38.9304 225.356 39.5064 224.549C40.0824 223.742 40.4926 222.828 40.7133 221.861C40.934 220.895 40.9608 219.894 40.7921 218.917C40.6234 217.939 40.2626 217.005 39.7305 216.168C39.1985 215.332 38.5058 214.609 37.6925 214.041C36.8792 213.474 35.9614 213.073 34.9924 212.863L21.9924 209.895C20.0621 209.476 18.0444 209.835 16.3775 210.895C14.7106 211.955 13.5291 213.63 13.0895 215.555C12.6499 217.481 12.9877 219.502 14.0297 221.18C15.0716 222.859 16.7334 224.058 18.6544 224.518Z" fill="#AC6757"/>
<path d="M475.21 222.232C475.836 222.232 476.46 222.153 477.067 221.998L496.067 217.158C497.97 216.645 499.595 215.404 500.59 213.702C501.585 212.001 501.87 209.976 501.384 208.066C500.897 206.156 499.679 204.514 497.991 203.496C496.304 202.477 494.284 202.163 492.367 202.623L473.367 207.463C471.595 207.913 470.049 208.995 469.019 210.505C467.989 212.014 467.545 213.849 467.772 215.662C467.998 217.476 468.88 219.144 470.25 220.354C471.62 221.564 473.385 222.232 475.213 222.232H475.21Z" fill="#AC6757"/>
<path d="M79.2934 134.879L53.7094 118.509C52.8799 117.964 51.9505 117.59 50.9752 117.407C49.9999 117.224 48.998 117.237 48.0275 117.444C47.057 117.651 46.1373 118.049 45.3217 118.614C44.506 119.179 43.8107 119.9 43.2758 120.736C42.741 121.572 42.3774 122.506 42.206 123.483C42.0346 124.461 42.0589 125.462 42.2774 126.43C42.4959 127.398 42.9044 128.313 43.4791 129.122C44.0538 129.931 44.7833 130.618 45.6254 131.143L71.2094 147.513C72.0389 148.058 72.9683 148.432 73.9436 148.615C74.9189 148.798 75.9209 148.785 76.8913 148.578C77.8618 148.371 78.7815 147.973 79.5971 147.408C80.4128 146.843 81.1081 146.122 81.643 145.286C82.1778 144.45 82.5415 143.516 82.7128 142.539C82.8842 141.561 82.8599 140.56 82.6414 139.592C82.4229 138.624 82.0144 137.709 81.4397 136.9C80.865 136.091 80.1355 135.404 79.2934 134.879Z" fill="#AC6757"/>
<path d="M465.86 114.855C465.31 114.038 464.604 113.338 463.783 112.794C462.962 112.25 462.042 111.873 461.075 111.685C460.108 111.496 459.114 111.5 458.149 111.696C457.183 111.892 456.266 112.277 455.45 112.827L430.259 129.8C428.609 130.912 427.468 132.633 427.088 134.586C426.708 136.539 427.119 138.562 428.23 140.212C429.342 141.862 431.064 143.002 433.016 143.382C434.969 143.763 436.993 143.352 438.643 142.24L463.834 125.265C464.65 124.715 465.351 124.008 465.895 123.187C466.439 122.366 466.815 121.446 467.004 120.479C467.192 119.512 467.188 118.518 466.992 117.552C466.796 116.587 466.411 115.67 465.86 114.853V114.855Z" fill="#AC6757"/>
<path d="M123.683 75.515C124.272 76.3181 125.014 76.996 125.867 77.5091C126.721 78.0223 127.667 78.3604 128.653 78.5039C129.638 78.6473 130.642 78.5932 131.606 78.3446C132.57 78.096 133.475 77.6579 134.268 77.056C135.061 76.454 135.726 75.7002 136.225 74.8385C136.723 73.9767 137.045 73.0244 137.172 72.0369C137.299 71.0494 137.228 70.0465 136.963 69.0868C136.698 68.1271 136.245 67.2297 135.629 66.447L125.629 53.273C124.419 51.711 122.641 50.6899 120.682 50.4315C118.722 50.1732 116.74 50.6985 115.166 51.8934C113.592 53.0882 112.554 54.856 112.276 56.8125C111.998 58.769 112.503 60.7561 113.682 62.342L123.683 75.515Z" fill="#AC6757"/>
<path d="M384.314 71.857L394.314 57.94C394.891 57.1403 395.305 56.2345 395.532 55.2744C395.759 54.3144 395.795 53.3191 395.636 52.3454C395.478 51.3717 395.129 50.4388 394.61 49.6001C394.09 48.7615 393.411 48.0335 392.61 47.4579C391.808 46.8824 390.902 46.4705 389.941 46.2459C388.98 46.0213 387.985 45.9884 387.012 46.1491C386.038 46.3099 385.106 46.661 384.269 47.1824C383.432 47.7039 382.705 48.3854 382.132 49.188L372.132 63.105C371.554 63.9047 371.14 64.8105 370.913 65.7705C370.686 66.7305 370.651 67.7259 370.809 68.6996C370.967 69.6733 371.316 70.6062 371.836 71.4448C372.355 72.2835 373.035 73.0115 373.836 73.5871C374.637 74.1626 375.544 74.5745 376.504 74.7991C377.465 75.0237 378.46 75.0565 379.434 74.8958C380.407 74.7351 381.339 74.384 382.176 73.8625C383.014 73.3411 383.74 72.6596 384.314 71.857Z" fill="#AC6757"/>
<path d="M202.145 33.821C202.368 34.7893 202.782 35.7035 203.361 36.5107C203.94 37.3179 204.674 38.002 205.52 38.5231C206.366 39.0442 207.308 39.3921 208.289 39.5464C209.271 39.7007 210.273 39.6585 211.238 39.4221C212.203 39.1857 213.112 38.76 213.911 38.1695C214.71 37.579 215.384 36.8357 215.893 35.9826C216.403 35.1295 216.738 34.1837 216.878 33.2001C217.019 32.2165 216.963 31.2147 216.713 30.253L212.713 13.925C212.49 12.9567 212.077 12.0425 211.498 11.2353C210.918 10.428 210.184 9.74401 209.338 9.22289C208.492 8.70176 207.551 8.35393 206.57 8.1996C205.588 8.04527 204.586 8.08752 203.621 8.32389C202.656 8.56026 201.747 8.98604 200.948 9.5765C200.149 10.167 199.475 10.9103 198.965 11.7634C198.456 12.6165 198.121 13.5623 197.98 14.5459C197.84 15.5295 197.896 16.5313 198.145 17.493L202.145 33.821Z" fill="#AC6757"/>
<path d="M303.5 38.891L309.841 9.06101C310.254 7.11538 309.878 5.08508 308.795 3.41676C307.712 1.74844 306.01 0.578746 304.065 0.165008C302.119 -0.24873 300.089 0.127376 298.42 1.21059C296.752 2.2938 295.582 3.99538 295.169 5.94101L288.828 35.771C288.623 36.7344 288.61 37.7287 288.789 38.6971C288.968 39.6656 289.337 40.5892 289.873 41.4153C290.41 42.2413 291.103 42.9537 291.915 43.5116C292.727 44.0695 293.64 44.4621 294.604 44.667C295.567 44.8719 296.561 44.885 297.53 44.7056C298.498 44.5262 299.422 44.1578 300.248 43.6214C301.916 42.5382 303.086 40.8366 303.5 38.891Z" fill="#AC6757"/>
</svg>
