<svg width="512" height="512" viewBox="0 0 512 512" fill="none" xmlns="http://www.w3.org/2000/svg">
<path d="M335.833 179.039C329.674 175.548 323.836 171.52 318.387 167C317.895 166.592 317.402 166.166 316.909 165.734C299.129 150.154 280.4 118.695 269.647 88.9C268.958 87.0849 267.731 85.5238 266.13 84.4261C264.529 83.3284 262.63 82.7467 260.689 82.759C258.748 82.7713 256.857 83.377 255.27 84.4949C253.682 85.6128 252.475 87.1893 251.81 89.013C238.554 125.473 212.133 163.882 185.363 179.042C134.177 208.029 99.2917 265.67 99.2917 332.054C99.2907 427.568 171.51 505 260.6 505C280.115 505.004 299.447 501.238 317.534 493.908C378.525 469.234 421.907 406.079 421.907 332.051C421.907 265.667 387.021 208.026 335.835 179.039H335.833Z" fill="#EA5B70"/>
<path d="M213.154 332.051C213.154 265.667 248.039 208.026 299.225 179.039C305.618 175.308 311.553 170.842 316.908 165.732C299.128 150.152 280.399 118.693 269.646 88.898C268.957 87.0829 267.73 85.5217 266.129 84.4241C264.528 83.3264 262.629 82.7447 260.688 82.757C258.747 82.7693 256.856 83.375 255.269 84.4929C253.681 85.6107 252.474 87.1873 251.809 89.011C238.553 125.471 212.132 163.88 185.362 179.04C134.176 208.027 99.2908 265.668 99.2908 332.052C99.2908 427.568 171.51 505 260.6 505C280.115 505.004 299.447 501.238 317.534 493.908C256.541 469.233 213.156 406.079 213.156 332.051H213.154Z" fill="#D34459"/>
<path d="M274.628 24.16C271.304 20.0196 267.666 16.1414 263.746 12.56C261.999 10.8234 259.867 9.52254 257.523 8.76282C255.18 8.00311 252.691 7.80584 250.257 8.187C248.022 8.50727 245.886 9.3215 244.005 10.5705C242.124 11.8195 240.545 13.4719 239.382 15.4077C238.22 17.3434 237.503 19.5138 237.284 21.7612C237.066 24.0086 237.35 26.2765 238.118 28.4C238.772 30.175 239.47 32.124 240.212 34.482C243.288 44.244 245.448 56.497 239.468 69.204C234.561 79.631 226.63 88.411 220.235 98.03C205.125 120.757 219.135 150.667 245.911 154.66C266.382 157.71 285.5 143.9 288.608 123.8C293.446 92.534 301.922 58.234 274.628 24.16Z" fill="#00CE8E"/>
<path d="M198.677 138C196.613 136.095 193.927 135.005 191.119 134.933C188.311 134.86 185.572 135.811 183.413 137.607C174.63 145.057 167.139 153.906 161.24 163.797C154.613 175.108 146.94 202.142 119.662 211.997C118.876 212.281 118.086 212.553 117.292 212.812C96.1997 219.7 85.1537 242.634 94.3737 263C97.165 269.19 101.617 274.486 107.235 278.3L120.135 263.766L120.463 265.118C124.003 279.729 142.228 285.563 153.622 275.54C153.705 275.467 153.788 275.394 153.87 275.32C175.903 255.602 193.604 230.142 194.509 188.609C193.65 175.633 195.972 162.644 201.273 150.769C202.242 148.638 202.512 146.255 202.045 143.961C201.578 141.667 200.398 139.579 198.673 137.996L198.677 138Z" fill="#00CE8E"/>
<path d="M167.336 409.529C166.34 403.01 163.391 396.946 158.878 392.137C126.81 357.61 95.4388 356.56 75.0258 356.029C71.2616 355.914 67.5517 356.948 64.3898 358.994C61.2278 361.039 58.7639 363.999 57.3258 367.48C55.607 371.742 55.5797 376.499 57.2495 380.78C58.9193 385.062 62.1603 388.544 66.3108 390.517C79.7108 397.001 94.6048 405.043 101.251 424.637C103.924 432.493 109.353 439.114 116.532 443.275C123.711 447.436 132.155 448.855 140.3 447.27V430.51C154.509 435.91 169.573 424.323 167.335 409.529H167.336Z" fill="#00CE8E"/>
<path d="M262.77 354.677C255.309 343.454 246.055 333.211 240.33 321.045C233.23 305.945 235.97 291.399 239.661 279.91C240.991 275.772 242.253 272.573 243.394 269.381C244.205 267.035 244.489 264.54 244.225 262.072C243.962 259.604 243.158 257.225 241.87 255.103C240.583 252.981 238.843 251.169 236.776 249.796C234.709 248.423 232.364 247.523 229.909 247.159C227.063 246.692 224.147 246.939 221.42 247.878C218.694 248.817 216.243 250.418 214.289 252.538C208.372 259.005 203.035 262.527 194.364 275.144C168.553 312.699 177.664 350.3 182.999 384.744C183.865 390.309 185.825 395.648 188.766 400.452C191.706 405.256 195.569 409.43 200.131 412.733C208.743 419.022 221.074 413.711 222.304 403.244L223.5 393.089L250.837 400.469C254.285 401.419 257.966 401.017 261.128 399.346C264.29 397.674 266.694 394.859 267.851 391.474C269.888 385.362 270.489 378.863 269.608 372.481C268.727 366.099 266.388 360.006 262.772 354.674L262.77 354.677Z" fill="#00CE8E"/>
<path d="M403.9 212.811C372.275 202.489 367.959 174.56 355.5 156.963C345.473 142.806 322.6 152.137 325.6 169.278C326.7 175.659 327.062 182.146 326.68 188.61C327.419 222.51 340.217 253.155 368.58 276.403C378.662 284.669 394.057 277.324 394.057 264.382L414.053 278.6C419.661 274.908 423.8 269.662 426.821 263C436.041 242.631 424.992 219.7 403.903 212.809L403.9 212.811Z" fill="#5FD9B3"/>
<path d="M454.451 372.93C452.651 368.403 449.49 364.547 445.403 361.895C441.316 359.244 436.506 357.928 431.639 358.13C397.083 359.383 367.418 371.638 341.116 400.543C327.575 415.453 338.584 439.102 358.932 439.102H363.761V465C373.251 466.717 383.042 464.971 391.354 460.08C399.666 455.189 405.947 447.477 409.054 438.347C409.335 437.52 409.629 436.697 409.936 435.876C416.668 417.92 430.808 408.114 443.399 401.585C448.463 399.027 452.397 394.68 454.439 389.387C456.481 384.093 456.485 378.23 454.451 372.934V372.93Z" fill="#5FD9B3"/>
</svg>
