<svg width="512" height="512" viewBox="0 0 512 512" fill="none" xmlns="http://www.w3.org/2000/svg">
<path d="M454.302 338.732C454.302 387.444 432.23 424.845 402.802 453.062C320.844 531.645 190.463 531.645 108.502 453.062C79.072 424.844 57.002 387.443 57.002 338.732C57.002 192.6 200.829 0 255.652 0C310.475 0 454.302 192.6 454.302 338.732Z" fill="#99CE64"/>
<path d="M194.183 453.063C164.753 424.845 142.683 387.444 142.683 338.733C142.683 222.5 233.671 76.878 298.494 22.148C281.816 8.068 266.87 0 255.652 0C200.829 0 57.002 192.6 57.002 338.732C57.002 387.444 79.074 424.844 108.502 453.062C160.566 502.983 232.171 521.178 298.49 507.673C259.246 499.727 223.07 480.788 194.181 453.063H194.183Z" fill="#6AC75E"/>
<path d="M346.436 145.656C328.526 116.708 308.155 89.809 289.077 69.913C272.638 52.769 261.128 44.957 255.652 42.139V94.676L296.859 277.583L255.652 429.586V470.793C299.854 470.941 342.386 453.92 374.282 423.318C400.399 398.278 413.095 370.609 413.095 338.732C413.095 284.498 388.795 214.125 346.436 145.656Z" fill="#FCF2D0"/>
<path d="M296.859 78.344C294.252 75.418 291.652 72.6 289.076 69.913C272.638 52.769 261.128 44.957 255.652 42.139V94.676L283.512 283.249L255.652 429.586V470.793C269.536 470.801 283.371 469.143 296.859 465.853V78.344Z" fill="#F6E3A3"/>
<path d="M345.764 393.573C363.83 376.25 371.888 359.337 371.888 338.732C371.888 292.632 349.273 228.559 311.394 167.332C294.959 140.77 276.47 116.299 259.334 98.432C258.056 97.0987 256.829 95.8463 255.653 94.675V429.585C289.223 429.714 321.53 416.803 345.764 393.573Z" fill="#E8899E"/>
<path d="M296.859 145.167C284.486 127.322 271.567 111.191 259.333 98.433C258.055 97.0997 256.828 95.8473 255.652 94.676V429.585C269.651 429.599 283.562 427.376 296.859 423V145.167Z" fill="#DE5C6E"/>
<path d="M317.464 277.584C325.998 277.584 332.917 270.665 332.917 262.131C332.917 253.597 325.998 246.678 317.464 246.678C308.929 246.678 302.011 253.597 302.011 262.131C302.011 270.665 308.929 277.584 317.464 277.584Z" fill="#DE5C6E"/>
<path d="M293.166 395.938C301.7 395.938 308.619 389.019 308.619 380.485C308.619 371.951 301.7 365.032 293.166 365.032C284.631 365.032 277.713 371.951 277.713 380.485C277.713 389.019 284.631 395.938 293.166 395.938Z" fill="#DE5C6E"/>
<path d="M334.373 361.101C342.907 361.101 349.826 354.182 349.826 345.648C349.826 337.114 342.907 330.195 334.373 330.195C325.838 330.195 318.92 337.114 318.92 345.648C318.92 354.182 325.838 361.101 334.373 361.101Z" fill="#DE5C6E"/>
<path d="M293.166 327.105C301.7 327.105 308.619 320.186 308.619 311.652C308.619 303.118 301.7 296.199 293.166 296.199C284.631 296.199 277.713 303.118 277.713 311.652C277.713 320.186 284.631 327.105 293.166 327.105Z" fill="#DE5C6E"/>
<path d="M293.166 226.706C301.7 226.706 308.619 219.787 308.619 211.253C308.619 202.719 301.7 195.8 293.166 195.8C284.631 195.8 277.713 202.719 277.713 211.253C277.713 219.787 284.631 226.706 293.166 226.706Z" fill="#DE5C6E"/>
</svg>
