<svg width="512" height="512" viewBox="0 0 512 512" fill="none" xmlns="http://www.w3.org/2000/svg">
<path d="M152.198 351.608C195.519 351.608 230.638 316.489 230.638 273.168C230.638 229.847 195.519 194.728 152.198 194.728C108.877 194.728 73.7578 229.847 73.7578 273.168C73.7578 316.489 108.877 351.608 152.198 351.608Z" fill="#976BCF"/>
<path d="M378.803 351.608C422.124 351.608 457.243 316.489 457.243 273.168C457.243 229.847 422.124 194.728 378.803 194.728C335.482 194.728 300.363 229.847 300.363 273.168C300.363 316.489 335.482 351.608 378.803 351.608Z" fill="#C9AAF2"/>
<path d="M265.501 512C308.822 512 343.941 476.881 343.941 433.56C343.941 390.239 308.822 355.12 265.501 355.12C222.18 355.12 187.061 390.239 187.061 433.56C187.061 476.881 222.18 512 265.501 512Z" fill="#976BCF"/>
<path d="M373.798 69.019C370.727 68.766 367.612 68.638 364.541 68.638C303.182 68.638 253.263 118.62 253.263 180.057C253.263 184.035 254.843 187.851 257.656 190.664C260.469 193.477 264.285 195.057 268.263 195.057C272.241 195.057 276.056 193.477 278.87 190.664C281.683 187.851 283.263 184.035 283.263 180.057C283.268 158.489 291.829 137.805 307.066 122.541C322.304 107.277 342.973 98.6809 364.541 98.638C366.795 98.638 369.082 98.732 371.341 98.917C373.481 99.0792 375.547 99.7728 377.352 100.935C379.156 102.097 380.642 103.692 381.675 105.573C382.708 107.455 383.254 109.564 383.266 111.711C383.278 113.857 382.753 115.972 381.741 117.865L388.019 138.128L408.282 131.85C411.606 125.57 413.318 118.562 413.264 111.456C413.21 104.351 411.392 97.37 407.973 91.1407C404.555 84.9115 399.642 79.629 393.677 75.7678C387.712 71.9066 380.881 69.5876 373.798 69.019Z" fill="#00C084"/>
<path d="M381.741 117.866C380.747 119.982 379.16 121.764 377.174 122.997C375.187 124.229 372.885 124.859 370.548 124.81C366.26 124.81 357.985 122.274 357.356 112.667C357.229 110.743 357.165 108.785 357.165 106.849C357.179 94.4325 359.838 82.1614 364.963 70.8522C370.089 59.5429 377.564 49.4548 386.891 41.259C389.877 38.6302 391.697 34.9228 391.949 30.9525C392.202 26.9821 390.867 23.0741 388.238 20.088C385.609 17.1019 381.902 15.2825 377.931 15.0298C373.961 14.7772 370.053 16.1122 367.067 18.741C354.543 29.753 344.507 43.3055 337.628 58.4972C330.748 73.6888 327.182 90.1712 327.167 106.848C327.167 109.44 327.253 112.062 327.423 114.633C328.071 125.589 332.913 135.875 340.943 143.356C348.974 150.837 359.577 154.938 370.551 154.809C378.35 154.853 386.008 152.729 392.671 148.675C399.334 144.621 404.739 138.796 408.285 131.849C406.619 126.475 402.887 121.983 397.909 119.361C392.931 116.739 387.116 116.201 381.742 117.866H381.741Z" fill="#5FD9B3"/>
<path d="M180.268 71.112C169.769 75.9961 160.615 83.3588 153.594 92.566C143.559 87.9542 132.691 85.4311 121.651 85.1501C110.611 84.869 99.6285 86.8358 89.3719 90.931C86.5689 92.0547 84.0227 93.7351 81.8873 95.8704C79.752 98.0058 78.0716 100.552 76.9479 103.355C72.8528 113.612 70.886 124.594 71.1671 135.634C71.4481 146.674 73.9712 157.542 78.5829 167.577C69.3757 174.598 62.013 183.752 57.1289 194.25C55.7279 197.263 55.0012 200.545 54.9995 203.868C54.9978 207.191 55.7211 210.474 57.1189 213.488C62.7434 225.622 71.6739 235.926 82.8864 243.217C94.0989 250.507 107.139 254.491 120.512 254.709C125.896 262.473 133.08 268.818 141.451 273.2C144.663 274.869 148.231 275.736 151.85 275.727C155.47 275.718 159.034 274.835 162.238 273.151C174.18 266.871 183.575 256.643 188.819 244.211C194.064 231.779 194.834 217.912 190.998 204.976C203.934 208.813 217.801 208.044 230.234 202.8C242.667 197.555 252.895 188.16 259.174 176.216C260.858 173.012 261.741 169.448 261.75 165.829C261.758 162.209 260.891 158.641 259.223 155.429C258.539 154.122 257.716 152.853 256.938 151.606C252.757 144.856 247.241 139.031 240.728 134.489C240.509 121.117 236.525 108.078 229.234 96.8658C221.944 85.6541 211.641 76.7242 199.507 71.1C196.492 69.7027 193.209 68.9799 189.886 68.982C186.563 68.9841 183.281 69.711 180.268 71.112Z" fill="#5FD9B3"/>
<path d="M198.499 204.976V103.037C198.499 101.048 197.709 99.1402 196.302 97.7337C194.896 96.3272 192.988 95.537 190.999 95.537C189.01 95.537 187.102 96.3272 185.696 97.7337C184.289 99.1402 183.499 101.048 183.499 103.037V186.873L124.222 127.592C122.815 126.185 120.907 125.394 118.917 125.394C116.928 125.394 115.02 126.184 113.612 127.59C112.205 128.997 111.415 130.905 111.414 132.895C111.414 134.885 112.204 136.793 113.611 138.2L172.892 197.48H89.0549C87.0658 197.48 85.1582 198.27 83.7516 199.677C82.3451 201.083 81.5549 202.991 81.5549 204.98C81.5549 206.969 82.3451 208.877 83.7516 210.283C85.1582 211.69 87.0658 212.48 89.0549 212.48H190.998C192.986 212.476 194.891 211.684 196.297 210.279C197.702 208.873 198.494 206.968 198.498 204.98L198.499 204.976Z" fill="#00C084"/>
<path d="M326.51 292.647C320.808 292.646 315.123 293.265 309.555 294.493C323.438 285.069 333.933 271.442 339.499 255.613C345.065 239.784 345.409 222.587 340.48 206.549C335.55 190.51 325.608 176.474 312.113 166.504C298.617 156.533 282.28 151.152 265.501 151.152C248.722 151.152 232.385 156.533 218.889 166.504C205.394 176.474 195.452 190.51 190.522 206.549C185.593 222.587 185.937 239.784 191.503 255.613C197.069 271.442 207.564 285.069 221.447 294.493L265.501 420.386C273.829 430.692 284.632 438.721 296.903 443.722C309.173 448.724 322.51 450.536 335.67 448.988C348.83 447.441 361.383 442.585 372.159 434.874C382.934 427.163 391.581 416.848 397.291 404.891C403.002 392.935 405.59 379.726 404.815 366.498C404.04 353.27 399.927 340.455 392.859 329.247C385.792 318.038 376 308.804 364.397 302.404C352.795 296.003 339.76 292.647 326.51 292.647Z" fill="#B28AE4"/>
<path d="M221.446 294.493C207.801 291.471 193.596 292.15 180.301 296.459C167.006 300.767 155.104 308.55 145.825 319.001C136.547 329.452 130.228 342.192 127.524 355.904C124.82 369.615 125.828 383.8 130.444 396.991C135.06 410.183 143.117 421.901 153.781 430.935C164.444 439.969 177.327 445.99 191.098 448.375C204.869 450.76 219.027 449.423 232.107 444.502C245.188 439.581 256.716 431.254 265.5 420.384L221.446 294.493Z" fill="#976BCF"/>
<path d="M265.501 420.386C314.553 420.386 354.318 380.621 354.318 331.569C354.318 282.517 314.553 242.752 265.501 242.752C216.449 242.752 176.684 282.517 176.684 331.569C176.684 380.621 216.449 420.386 265.501 420.386Z" fill="#C9AAF2"/>
</svg>
