<svg width="512" height="512" viewBox="0 0 512 512" fill="none" xmlns="http://www.w3.org/2000/svg">
<path d="M434.16 246.3C407.546 233.727 377.57 230.136 348.74 236.067C319.91 241.998 293.785 257.13 274.295 279.187C254.805 301.243 243.004 329.032 240.667 358.373C238.33 387.714 245.584 417.021 261.337 441.884C277.089 466.748 300.49 485.824 328.018 496.244C355.546 506.663 385.713 507.862 413.981 499.661C442.249 491.459 467.09 474.301 484.767 450.766C502.444 427.231 512.001 398.593 512 369.159C512.07 343.394 504.781 318.145 490.992 296.381C477.203 274.617 457.486 257.242 434.16 246.3Z" fill="#B0EBD8"/>
<path d="M356.319 369.159C356.316 343.409 363.631 318.187 377.413 296.435C391.194 274.683 410.874 257.296 434.159 246.3C413.455 236.535 390.619 232.161 367.773 233.583C344.926 235.006 322.809 242.179 303.476 254.436C284.143 266.693 268.221 283.637 257.189 303.694C246.157 323.751 240.372 346.271 240.372 369.162C240.372 392.053 246.157 414.573 257.189 434.63C268.221 454.687 284.143 471.631 303.476 483.888C322.809 496.145 344.926 503.318 367.773 504.741C390.619 506.163 413.455 501.789 434.159 492.024C410.891 481.006 391.225 463.613 377.447 441.865C363.668 420.118 356.341 394.907 356.318 369.162L356.319 369.159Z" fill="#5FD9B3"/>
<path d="M402.929 266.743C381.557 261.153 358.972 262.39 338.338 270.279C317.704 278.168 300.055 292.316 287.864 310.738C275.673 329.161 269.551 350.936 270.356 373.012C271.161 395.088 278.853 416.359 292.353 433.845C305.853 451.331 324.485 464.156 345.639 470.522C366.792 476.887 389.408 476.476 410.316 469.344C431.224 462.213 449.377 448.719 462.232 430.754C475.087 412.788 481.999 391.251 482 369.16C482.041 345.738 474.296 322.967 459.982 304.427C445.669 285.887 425.599 272.631 402.929 266.743Z" fill="#FFF1D4"/>
<path d="M356.319 369.159C356.299 349.745 360.45 330.554 368.492 312.884C376.533 295.214 388.277 279.479 402.929 266.742C387.276 262.655 370.894 262.211 355.042 265.443C339.19 268.676 324.291 275.499 311.487 285.389C298.684 295.278 288.318 307.971 281.186 322.492C274.054 337.013 270.346 352.976 270.346 369.154C270.346 385.332 274.054 401.295 281.186 415.816C288.318 430.337 298.684 443.03 311.487 452.919C324.291 462.809 339.19 469.632 355.042 472.865C370.894 476.097 387.276 475.653 402.929 471.566C388.277 458.832 376.533 443.098 368.492 425.429C360.45 407.761 356.299 388.571 356.319 369.159Z" fill="#FCE3A0"/>
<path d="M379.4 293.4C378.325 293.355 377.248 293.318 376.162 293.318C356.048 293.318 336.758 301.308 322.535 315.531C308.312 329.754 300.322 349.044 300.322 369.159C300.322 389.273 308.312 408.563 322.535 422.786C336.758 437.009 356.048 444.999 376.162 444.999C377.249 444.999 378.329 444.962 379.405 444.917C398.94 444.085 417.399 435.74 430.927 421.623C444.456 407.506 452.008 388.709 452.007 369.156C452.007 349.603 444.453 330.807 430.924 316.691C417.394 302.575 398.935 294.23 379.4 293.4Z" fill="#FFB5C0"/>
<path d="M379.4 293.4C378.325 293.355 377.248 293.318 376.162 293.318C356.048 293.318 336.758 301.308 322.535 315.531C308.312 329.754 300.322 349.044 300.322 369.159C300.322 389.273 308.312 408.563 322.535 422.786C336.758 437.009 356.048 444.999 376.162 444.999C377.249 444.999 378.329 444.962 379.405 444.917C364.359 422.517 356.323 396.144 356.322 369.159C356.321 342.175 364.355 315.801 379.4 293.4Z" fill="#FF8E9E"/>
<path d="M376.159 315.819C374.17 315.819 372.262 316.609 370.856 318.016C369.449 319.422 368.659 321.33 368.659 323.319V330.819C368.659 332.808 369.449 334.716 370.856 336.122C372.262 337.529 374.17 338.319 376.159 338.319C378.148 338.319 380.056 337.529 381.462 336.122C382.869 334.716 383.659 332.808 383.659 330.819V323.319C383.659 321.33 382.869 319.422 381.462 318.016C380.056 316.609 378.148 315.819 376.159 315.819Z" fill="#FCE3A0"/>
<path d="M376.159 400C374.17 400 372.262 400.79 370.856 402.197C369.449 403.603 368.659 405.511 368.659 407.5V415C368.659 416.989 369.449 418.897 370.856 420.303C372.262 421.71 374.17 422.5 376.159 422.5C378.148 422.5 380.056 421.71 381.462 420.303C382.869 418.897 383.659 416.989 383.659 415V407.5C383.659 405.511 382.869 403.603 381.462 402.197C380.056 400.79 378.148 400 376.159 400Z" fill="#FCE3A0"/>
<path d="M422 361.659H414.5C412.511 361.659 410.603 362.449 409.197 363.856C407.79 365.262 407 367.17 407 369.159C407 371.148 407.79 373.056 409.197 374.462C410.603 375.869 412.511 376.659 414.5 376.659H422C423.989 376.659 425.897 375.869 427.303 374.462C428.71 373.056 429.5 371.148 429.5 369.159C429.5 367.17 428.71 365.262 427.303 363.856C425.897 362.449 423.989 361.659 422 361.659Z" fill="#FCE3A0"/>
<path d="M345.318 369.159C345.318 367.17 344.528 365.262 343.121 363.856C341.715 362.449 339.807 361.659 337.818 361.659H330.318C328.329 361.659 326.421 362.449 325.015 363.856C323.608 365.262 322.818 367.17 322.818 369.159C322.818 371.148 323.608 373.056 325.015 374.462C326.421 375.869 328.329 376.659 330.318 376.659H337.818C339.807 376.659 341.715 375.869 343.121 374.462C344.528 373.056 345.318 371.148 345.318 369.159Z" fill="#FFCE71"/>
<path d="M408.574 347.352L413.874 342.052C415.281 340.645 416.071 338.738 416.071 336.749C416.071 334.759 415.281 332.852 413.874 331.445C412.467 330.038 410.56 329.248 408.571 329.248C406.581 329.248 404.674 330.038 403.267 331.445L397.967 336.745C396.56 338.152 395.77 340.059 395.77 342.049C395.77 344.038 396.56 345.945 397.967 347.352C399.374 348.759 401.281 349.549 403.271 349.549C405.26 349.549 407.167 348.759 408.574 347.352Z" fill="#FCE3A0"/>
<path d="M343.744 390.967L338.444 396.267C337.037 397.674 336.247 399.581 336.247 401.571C336.247 403.56 337.037 405.467 338.444 406.874C339.851 408.281 341.758 409.071 343.747 409.071C345.737 409.071 347.644 408.281 349.051 406.874L354.351 401.574C355.758 400.167 356.548 398.26 356.548 396.271C356.548 394.281 355.758 392.374 354.351 390.967C352.944 389.56 351.037 388.77 349.047 388.77C347.058 388.77 345.151 389.56 343.744 390.967Z" fill="#FFCE71"/>
<path d="M408.574 390.967C407.167 389.56 405.26 388.77 403.271 388.77C401.281 388.77 399.374 389.56 397.967 390.967C396.56 392.374 395.77 394.281 395.77 396.271C395.77 398.26 396.56 400.167 397.967 401.574L403.267 406.874C403.963 407.57 404.79 408.123 405.7 408.5C406.61 408.877 407.586 409.071 408.571 409.071C409.555 409.071 410.531 408.877 411.441 408.5C412.351 408.123 413.178 407.57 413.874 406.874C414.57 406.178 415.123 405.351 415.5 404.441C415.877 403.531 416.071 402.555 416.071 401.571C416.071 400.586 415.877 399.61 415.5 398.7C415.123 397.79 414.57 396.963 413.874 396.267L408.574 390.967Z" fill="#FCE3A0"/>
<path d="M349.049 331.442C347.642 330.035 345.735 329.245 343.746 329.245C341.756 329.245 339.849 330.035 338.442 331.442C337.035 332.849 336.245 334.756 336.245 336.746C336.245 338.735 337.035 340.642 338.442 342.049L343.742 347.349C345.149 348.756 347.056 349.546 349.046 349.546C351.035 349.546 352.942 348.756 354.349 347.349C355.756 345.942 356.546 344.035 356.546 342.046C356.546 340.056 355.756 338.149 354.349 336.742L349.049 331.442Z" fill="#FFCE71"/>
<path d="M238.5 8C215.256 8 192.965 17.2335 176.529 33.6692C160.093 50.1049 150.86 72.3964 150.86 95.64V107.461C150.86 93.5155 145.32 80.1412 135.46 70.2799C125.599 60.4186 112.225 54.8781 98.28 54.877C93.9193 54.877 89.7372 56.6093 86.6538 59.6927C83.5703 62.7762 81.838 66.9583 81.838 71.319V72.608C81.838 86.5541 87.3781 99.9291 97.2395 109.791C107.101 119.652 120.476 125.192 134.422 125.192H178.267C201.511 125.192 223.802 115.959 240.238 99.5228C256.674 83.0871 265.907 60.7956 265.907 37.552V35.4C265.907 31.8012 265.198 28.2376 263.821 24.9129C262.443 21.5881 260.424 18.5672 257.879 16.0228C255.334 13.4784 252.313 11.4603 248.988 10.0837C245.663 8.70713 242.099 7.99908 238.5 8Z" fill="#00CE8E"/>
<path d="M197.693 78.364C196.074 76.7475 193.88 75.8395 191.593 75.8395C189.305 75.8395 187.111 76.7475 185.493 78.364L150.864 112.99L133.078 95.2C131.448 93.6433 129.273 92.7863 127.019 92.8123C124.765 92.8384 122.611 93.7453 121.017 95.3391C119.423 96.933 118.516 99.0873 118.49 101.341C118.464 103.595 119.321 105.77 120.878 107.4L142.238 128.76V164.218H159.494V128.766L197.694 90.566C199.312 88.9481 200.221 86.7539 200.221 84.466C200.221 82.1781 199.312 79.9838 197.694 78.366L197.693 78.364Z" fill="#C77464"/>
<path d="M194.741 191.619C191.914 190.475 189.048 189.438 186.141 188.509C160.189 180.229 132.153 181.326 106.927 191.609C53.453 213.245 15 293.3 15 364C15 452.915 75.818 505 150.841 505C162.606 504.995 174.303 503.201 185.529 499.68C248.753 479.958 286.682 433.774 286.681 364C286.681 293.3 248.218 213.253 194.741 191.619Z" fill="#B0EBD8"/>
<path d="M168.662 155.548C162.125 155.543 155.802 157.882 150.842 162.141C146.283 158.259 140.581 155.973 134.603 155.63C128.625 155.288 122.699 156.908 117.726 160.244C112.754 163.58 109.008 168.449 107.058 174.111C105.108 179.772 105.061 185.916 106.925 191.606H106.917C53.441 213.246 15 293.3 15 364C15 452.915 75.818 505 150.841 505C162.606 504.995 174.303 503.201 185.529 499.68C99.886 414.028 110.135 276.229 194.741 191.619C196.1 187.493 196.461 183.104 195.795 178.812C195.129 174.52 193.454 170.446 190.909 166.926C188.365 163.406 185.021 160.54 181.154 158.562C177.287 156.584 173.006 155.551 168.662 155.548Z" fill="#5FD9B3"/>
</svg>
