<svg width="529" height="512" viewBox="0 0 529 512" fill="none" xmlns="http://www.w3.org/2000/svg">
<path d="M303.537 59.594C296.435 52.447 288.783 45.8697 280.649 39.923C214.61 -8.047 142.263 12.589 77.9002 76.949C6.00018 148.835 -11.3568 230.676 60.5382 302.562C112.158 354.176 168.911 359.782 223.426 332.233C244.838 321.413 265.905 305.479 286.18 285.207C358.075 213.321 375.433 131.48 303.537 59.594Z" fill="#CE857A"/>
<path d="M217.9 86.949C238.175 66.677 259.242 50.743 280.654 39.923C214.61 -8.047 142.263 12.589 77.9002 76.949C6.00018 148.835 -11.3568 230.676 60.5382 302.562C112.158 354.176 168.911 359.782 223.426 332.233C215.293 326.286 207.64 319.709 200.538 312.562C128.643 240.676 146 158.835 217.9 86.949Z" fill="#C77464"/>
<path d="M326.333 112.132C324.661 112.134 323.036 111.577 321.716 110.55C320.397 109.522 319.458 108.083 319.051 106.461C318.643 104.839 318.789 103.128 319.465 101.598C320.142 100.069 321.31 98.8094 322.784 98.02L339.011 89.325C340.761 88.4201 342.797 88.2401 344.678 88.8238C346.56 89.4076 348.136 90.7082 349.067 92.4447C349.997 94.1811 350.207 96.2139 349.651 98.1039C349.095 99.9938 347.818 101.589 346.095 102.545L329.868 111.24C328.782 111.825 327.567 112.132 326.333 112.132Z" fill="#AC6757"/>
<path d="M62.1342 115.818C60.4438 115.82 58.8029 115.247 57.4802 114.195L43.0542 102.757C41.4951 101.521 40.4907 99.717 40.262 97.7408C40.0333 95.7646 40.599 93.7786 41.8347 92.2195C43.0703 90.6604 44.8747 89.6561 46.8509 89.4274C48.827 89.1987 50.8131 89.7643 52.3722 91L66.8002 102.441C68.0205 103.408 68.9094 104.732 69.3434 106.227C69.7775 107.723 69.7353 109.317 69.2226 110.787C68.7099 112.258 67.7522 113.532 66.4823 114.434C65.2125 115.335 63.6935 115.819 62.1362 115.818H62.1342Z" fill="#AC6757"/>
<path d="M284.836 62.383C283.407 62.3822 282.009 61.9733 280.804 61.2044C279.6 60.4355 278.641 59.3387 278.039 58.0429C277.437 56.7472 277.217 55.3064 277.406 53.8903C277.596 52.4741 278.185 51.1414 279.106 50.049L290.971 35.975C291.603 35.2129 292.38 34.5835 293.256 34.1231C294.133 33.6626 295.092 33.3803 296.078 33.2923C297.064 33.2043 298.057 33.3124 299.002 33.6103C299.946 33.9083 300.822 34.3903 301.578 35.0284C302.335 35.6665 302.958 36.4482 303.412 37.3283C303.865 38.2084 304.14 39.1696 304.22 40.1564C304.3 41.1432 304.184 42.1361 303.878 43.0777C303.572 44.0194 303.083 44.8913 302.439 45.643L290.574 59.717C289.871 60.5536 288.992 61.2259 288.001 61.6865C287.01 62.1471 285.929 62.3848 284.836 62.383Z" fill="#AC6757"/>
<path d="M109.075 68.851C107.945 68.8527 106.83 68.5987 105.812 68.1079C104.794 67.6171 103.9 66.9022 103.198 66.017L91.7472 51.6C90.5097 50.0426 89.9415 48.0575 90.1677 46.0812C90.3939 44.105 91.3958 42.2995 92.9532 41.062C94.5105 39.8245 96.4957 39.2563 98.4719 39.4825C100.448 39.7087 102.254 40.7106 103.491 42.268L114.942 56.68C115.82 57.7841 116.368 59.1132 116.524 60.5148C116.68 61.9163 116.438 63.3335 115.826 64.6038C115.213 65.8741 114.255 66.9459 113.061 67.6962C111.867 68.4466 110.485 68.8451 109.075 68.846V68.851Z" fill="#AC6757"/>
<path d="M228.455 32.96C227.33 32.9594 226.219 32.7059 225.205 32.2181C224.19 31.7304 223.299 31.0209 222.596 30.1421C221.893 29.2633 221.396 28.2377 221.143 27.1411C220.889 26.0446 220.886 24.9051 221.132 23.807L225.183 5.85C225.4 4.88918 225.804 3.98045 226.372 3.1757C226.939 2.37094 227.66 1.68591 228.493 1.15973C229.326 0.633545 230.254 0.27651 231.224 0.109008C232.195 -0.0584929 233.189 -0.0331804 234.15 0.183501C235.111 0.400182 236.019 0.803988 236.824 1.37186C237.629 1.93974 238.314 2.66056 238.84 3.49318C239.366 4.3258 239.723 5.2539 239.891 6.2245C240.058 7.1951 240.033 8.18918 239.816 9.15L235.765 27.107C235.392 28.7672 234.464 30.2509 233.136 31.3146C231.808 32.3782 230.157 32.9584 228.455 32.96Z" fill="#AC6757"/>
<path d="M165.747 36.841C164.174 36.8406 162.641 36.3455 161.364 35.4257C160.088 34.506 159.133 33.2082 158.635 31.716L152.8 14.257C152.488 13.3228 152.363 12.3362 152.431 11.3535C152.5 10.3709 152.762 9.41146 153.202 8.53C154.09 6.74981 155.649 5.39532 157.536 4.7645C159.422 4.13368 161.482 4.27821 163.263 5.16629C165.043 6.05437 166.397 7.61325 167.028 9.5L172.861 26.959C173.237 28.0867 173.34 29.2876 173.16 30.4627C172.981 31.6378 172.526 32.7536 171.831 33.7183C171.137 34.6829 170.223 35.4687 169.165 36.0111C168.107 36.5535 166.936 36.8369 165.747 36.838V36.841Z" fill="#AC6757"/>
<path d="M358.509 174.431C358.35 174.431 358.19 174.426 358.028 174.416L339.654 173.251C338.671 173.189 337.71 172.933 336.826 172.5C335.941 172.066 335.151 171.462 334.5 170.723C333.849 169.984 333.35 169.124 333.031 168.192C332.713 167.26 332.581 166.274 332.643 165.291C332.706 164.308 332.961 163.347 333.395 162.463C333.828 161.578 334.432 160.788 335.171 160.137C335.91 159.486 336.77 158.987 337.702 158.668C338.635 158.35 339.62 158.218 340.603 158.28L358.977 159.445C360.924 159.564 362.748 160.437 364.062 161.878C365.376 163.319 366.076 165.216 366.016 167.165C365.955 169.114 365.137 170.963 363.736 172.32C362.334 173.676 360.46 174.434 358.509 174.431Z" fill="#AC6757"/>
<path d="M41.9322 303.441C40.3951 303.442 38.895 302.97 37.6349 302.09C36.3748 301.209 35.4156 299.963 34.887 298.52C34.3585 297.077 34.2862 295.506 34.6799 294.02C35.0736 292.534 35.9143 291.205 37.0882 290.213L51.1482 278.33C52.6698 277.066 54.6294 276.454 56.6002 276.628C58.5709 276.801 60.3931 277.747 61.67 279.258C62.9469 280.769 63.575 282.723 63.4175 284.696C63.26 286.668 62.3297 288.498 60.8292 289.787L46.7692 301.67C45.4177 302.815 43.7034 303.442 41.9322 303.441Z" fill="#AC6757"/>
<path d="M8.49519 239.308C6.65068 239.308 4.87084 238.628 3.49585 237.399C2.12087 236.169 1.24719 234.476 1.04178 232.643C0.836379 230.81 1.31366 228.966 2.38241 227.462C3.45116 225.959 5.03642 224.902 6.83519 224.494L24.7842 220.4C25.7451 220.18 26.74 220.151 27.712 220.315C28.6841 220.479 29.6142 220.834 30.4491 221.358C31.2841 221.882 32.0075 222.566 32.578 223.37C33.1485 224.174 33.5549 225.082 33.7739 226.044C33.993 227.005 34.0204 228 33.8546 228.972C33.6888 229.943 33.333 230.873 32.8076 231.707C32.2822 232.541 31.5975 233.264 30.7927 233.833C29.9879 234.402 29.0787 234.807 28.1172 235.025L10.1682 239.119C9.61929 239.244 9.05815 239.307 8.49519 239.308Z" fill="#AC6757"/>
<path d="M30.2002 172.525C29.3971 172.524 28.5992 172.395 27.8372 172.141L10.3642 166.341C8.47575 165.714 6.91374 164.362 6.02182 162.583C5.12989 160.805 4.98112 158.744 5.60822 156.856C6.23533 154.968 7.58694 153.405 9.36572 152.514C11.1445 151.622 13.2047 151.473 15.0932 152.1L32.5662 157.9C34.2585 158.46 35.6958 159.605 36.6207 161.129C37.5456 162.652 37.8974 164.456 37.6133 166.216C37.3291 167.975 36.4274 169.576 35.0699 170.732C33.7124 171.887 31.9878 172.521 30.2052 172.52L30.2002 172.525Z" fill="#AC6757"/>
<path d="M159.172 365C157.183 365 155.275 364.21 153.869 362.803C152.462 361.397 151.672 359.489 151.672 357.5V339.134C151.672 337.145 152.462 335.237 153.869 333.831C155.275 332.424 157.183 331.634 159.172 331.634C161.161 331.634 163.069 332.424 164.476 333.831C165.882 335.237 166.672 337.145 166.672 339.134V357.5C166.672 359.489 165.882 361.397 164.476 362.803C163.069 364.21 161.161 365 159.172 365Z" fill="#AC6757"/>
<path d="M97.1232 349.2C95.8282 349.199 94.5557 348.862 93.4294 348.223C92.3031 347.585 91.3613 346.665 90.6959 345.554C90.0305 344.443 89.664 343.179 89.6322 341.884C89.6003 340.59 89.9042 339.309 90.5142 338.167L99.1822 321.927C100.134 320.201 101.727 318.919 103.617 318.358C105.507 317.798 107.542 318.004 109.281 318.932C111.02 319.86 112.324 321.436 112.91 323.318C113.497 325.2 113.318 327.237 112.414 328.989L103.746 345.229C103.106 346.429 102.152 347.433 100.985 348.132C99.8184 348.832 98.4834 349.201 97.1232 349.2Z" fill="#AC6757"/>
<path d="M347.423 504.5C434.727 504.5 505.5 433.727 505.5 346.423C505.5 259.119 434.727 188.346 347.423 188.346C260.12 188.346 189.346 259.119 189.346 346.423C189.346 433.727 260.12 504.5 347.423 504.5Z" fill="#C77464"/>
<path d="M437.941 436.987C487.959 386.97 487.959 305.876 437.942 255.858C387.925 205.841 306.831 205.842 256.813 255.859C206.795 305.877 206.795 386.971 256.812 436.988C306.829 487.005 387.924 487.005 437.941 436.987Z" fill="#5FD9B3"/>
<path d="M384.574 315.787C381.145 315.289 377.888 313.964 375.084 311.927C372.28 309.89 370.014 307.202 368.48 304.094C366.715 300.518 363.984 297.506 360.597 295.401C357.21 293.295 353.301 292.179 349.313 292.179C345.324 292.179 341.415 293.295 338.028 295.401C334.641 297.506 331.91 300.518 330.145 304.094C328.611 307.202 326.345 309.89 323.541 311.927C320.738 313.964 317.481 315.289 314.051 315.787C310.104 316.36 306.396 318.027 303.347 320.597C300.298 323.168 298.029 326.541 296.796 330.334C295.564 334.127 295.417 338.189 296.373 342.062C297.329 345.934 299.349 349.461 302.205 352.245C304.687 354.664 306.543 357.65 307.614 360.946C308.685 364.242 308.938 367.748 308.352 371.164C307.677 375.095 308.116 379.137 309.618 382.832C311.121 386.527 313.627 389.728 316.854 392.073C320.081 394.417 323.899 395.812 327.878 396.1C331.856 396.388 335.836 395.556 339.366 393.7C342.434 392.087 345.847 391.245 349.313 391.245C352.778 391.245 356.192 392.087 359.259 393.7C362.789 395.556 366.769 396.387 370.747 396.1C374.725 395.812 378.543 394.417 381.77 392.073C384.996 389.729 387.503 386.528 389.006 382.834C390.508 379.139 390.947 375.098 390.273 371.167C389.687 367.751 389.941 364.245 391.012 360.949C392.083 357.653 393.939 354.667 396.42 352.248C399.276 349.464 401.296 345.937 402.252 342.065C403.208 338.192 403.062 334.13 401.829 330.337C400.597 326.544 398.327 323.171 395.278 320.6C392.229 318.03 388.521 316.363 384.574 315.79V315.787Z" fill="#B0EBD8"/>
<path d="M314.386 346.422C314.386 344.433 313.596 342.525 312.189 341.119C310.783 339.712 308.875 338.922 306.886 338.922H285.55C283.561 338.922 281.653 339.712 280.247 341.119C278.84 342.525 278.05 344.433 278.05 346.422C278.05 348.411 278.84 350.319 280.247 351.725C281.653 353.132 283.561 353.922 285.55 353.922H306.886C308.875 353.922 310.783 353.132 312.189 351.725C313.596 350.319 314.386 348.411 314.386 346.422Z" fill="#313D40"/>
<path d="M287.627 310.666C286.633 312.389 286.363 314.436 286.878 316.357C287.393 318.278 288.65 319.916 290.372 320.911L308.851 331.58C310.573 332.559 312.612 332.817 314.523 332.298C316.434 331.779 318.063 330.525 319.053 328.81C320.043 327.095 320.315 325.058 319.809 323.143C319.303 321.228 318.06 319.592 316.351 318.59L297.872 307.921C296.15 306.926 294.102 306.657 292.181 307.172C290.26 307.687 288.622 308.943 287.627 310.666Z" fill="#313D40"/>
<path d="M324.047 287.236C323.046 285.527 321.409 284.284 319.494 283.778C317.579 283.272 315.542 283.544 313.827 284.534C312.112 285.524 310.858 287.153 310.339 289.064C309.82 290.975 310.078 293.014 311.057 294.736L321.726 313.215C322.215 314.075 322.869 314.829 323.651 315.435C324.433 316.042 325.326 316.487 326.281 316.746C327.236 317.005 328.232 317.073 329.213 316.946C330.194 316.818 331.14 316.498 331.996 316.003C332.853 315.509 333.603 314.85 334.204 314.064C334.805 313.278 335.244 312.381 335.497 311.425C335.75 310.469 335.811 309.472 335.677 308.492C335.543 307.512 335.216 306.568 334.716 305.715L324.047 287.236Z" fill="#313D40"/>
<path d="M349.559 274.914C347.57 274.914 345.662 275.704 344.256 277.111C342.849 278.517 342.059 280.425 342.059 282.414V303.75C342.059 305.739 342.849 307.647 344.256 309.053C345.662 310.46 347.57 311.25 349.559 311.25C351.548 311.25 353.456 310.46 354.863 309.053C356.269 307.647 357.059 305.739 357.059 303.75V282.414C357.059 280.425 356.269 278.517 354.863 277.111C353.456 275.704 351.548 274.914 349.559 274.914Z" fill="#313D40"/>
<path d="M367.146 315.96C368.869 316.955 370.916 317.224 372.837 316.709C374.758 316.194 376.397 314.938 377.391 313.215L388.059 294.736C388.559 293.883 388.886 292.939 389.02 291.959C389.154 290.979 389.093 289.982 388.84 289.026C388.587 288.07 388.148 287.173 387.547 286.387C386.946 285.601 386.196 284.942 385.339 284.448C384.483 283.953 383.537 283.633 382.556 283.505C381.575 283.378 380.579 283.446 379.624 283.705C378.669 283.964 377.776 284.409 376.994 285.016C376.212 285.622 375.558 286.376 375.069 287.236L364.4 305.715C363.908 306.568 363.588 307.51 363.46 308.486C363.331 309.463 363.396 310.455 363.651 311.406C363.906 312.358 364.346 313.249 364.946 314.031C365.545 314.812 366.293 315.468 367.146 315.96Z" fill="#313D40"/>
<path d="M380.021 328.835C381.016 330.558 382.654 331.814 384.575 332.329C386.496 332.844 388.544 332.574 390.266 331.58L408.745 320.911C409.605 320.422 410.36 319.768 410.966 318.986C411.572 318.205 412.017 317.311 412.276 316.356C412.535 315.402 412.603 314.405 412.476 313.424C412.348 312.444 412.028 311.498 411.533 310.641C411.039 309.784 410.38 309.034 409.594 308.433C408.808 307.833 407.912 307.393 406.955 307.14C405.999 306.887 405.002 306.826 404.022 306.96C403.042 307.094 402.098 307.421 401.245 307.921L382.766 318.59C381.044 319.585 379.787 321.223 379.272 323.144C378.757 325.065 379.027 327.112 380.021 328.835Z" fill="#313D40"/>
<path d="M331.971 376.886C330.249 375.891 328.202 375.622 326.28 376.137C324.359 376.652 322.721 377.908 321.726 379.631L311.057 398.11C310.557 398.963 310.23 399.907 310.096 400.887C309.962 401.867 310.024 402.864 310.276 403.82C310.529 404.776 310.969 405.673 311.57 406.459C312.17 407.245 312.921 407.904 313.777 408.398C314.634 408.893 315.58 409.213 316.561 409.341C317.542 409.468 318.538 409.4 319.492 409.141C320.447 408.882 321.341 408.437 322.123 407.831C322.904 407.225 323.558 406.47 324.047 405.61L334.716 387.131C335.711 385.408 335.98 383.361 335.465 381.44C334.951 379.519 333.694 377.881 331.971 376.886Z" fill="#313D40"/>
<path d="M319.1 364.01C318.106 362.287 316.467 361.031 314.546 360.516C312.625 360.001 310.578 360.27 308.855 361.265L290.376 371.934C288.668 372.936 287.425 374.572 286.918 376.487C286.412 378.402 286.684 380.439 287.674 382.154C288.664 383.869 290.293 385.123 292.204 385.642C294.115 386.161 296.154 385.903 297.876 384.924L316.355 374.255C318.078 373.26 319.335 371.622 319.849 369.701C320.364 367.78 320.095 365.733 319.1 364.01Z" fill="#313D40"/>
<path d="M377.392 379.631C376.391 377.922 374.754 376.679 372.839 376.173C370.924 375.667 368.887 375.939 367.172 376.929C365.457 377.919 364.203 379.548 363.684 381.459C363.165 383.37 363.423 385.409 364.402 387.131L375.07 405.61C375.559 406.47 376.213 407.224 376.995 407.831C377.777 408.437 378.671 408.882 379.625 409.141C380.58 409.4 381.576 409.468 382.557 409.341C383.538 409.213 384.484 408.893 385.34 408.398C386.197 407.904 386.947 407.245 387.548 406.459C388.149 405.673 388.588 404.776 388.841 403.82C389.094 402.864 389.155 401.867 389.021 400.887C388.887 399.907 388.56 398.963 388.06 398.11L377.392 379.631Z" fill="#313D40"/>
<path d="M349.559 381.6C347.57 381.6 345.662 382.39 344.256 383.797C342.849 385.203 342.059 387.111 342.059 389.1V410.436C342.059 412.425 342.849 414.333 344.256 415.739C345.662 417.146 347.57 417.936 349.559 417.936C351.548 417.936 353.456 417.146 354.863 415.739C356.269 414.333 357.059 412.425 357.059 410.436V389.1C357.059 387.111 356.269 385.203 354.863 383.797C353.456 382.39 351.548 381.6 349.559 381.6Z" fill="#313D40"/>
<path d="M413.567 338.922H392.23C390.241 338.922 388.333 339.712 386.927 341.119C385.52 342.525 384.73 344.433 384.73 346.422C384.73 348.411 385.52 350.319 386.927 351.725C388.333 353.132 390.241 353.922 392.23 353.922H413.567C415.556 353.922 417.464 353.132 418.871 351.725C420.277 350.319 421.067 348.411 421.067 346.422C421.067 344.433 420.277 342.525 418.871 341.119C417.464 339.712 415.556 338.922 413.567 338.922Z" fill="#313D40"/>
<path d="M408.745 371.934L390.266 361.265C388.545 360.286 386.506 360.028 384.594 360.547C382.683 361.066 381.054 362.32 380.064 364.035C379.074 365.75 378.802 367.787 379.308 369.702C379.815 371.617 381.058 373.253 382.766 374.255L401.245 384.924C402.099 385.424 403.042 385.751 404.022 385.885C405.002 386.019 405.999 385.958 406.955 385.705C407.912 385.452 408.808 385.012 409.594 384.412C410.38 383.811 411.039 383.061 411.533 382.204C412.028 381.347 412.348 380.401 412.476 379.421C412.603 378.44 412.535 377.443 412.276 376.489C412.017 375.534 411.572 374.64 410.966 373.859C410.36 373.077 409.605 372.423 408.745 371.934Z" fill="#313D40"/>
</svg>
