<svg width="513" height="512" viewBox="0 0 513 512" fill="none" xmlns="http://www.w3.org/2000/svg">
<path d="M325.769 29.62C318.204 31.8435 310.098 31.3304 302.874 28.171C230.499 -2.548 136.999 17.022 70.5111 83.511C4.02308 150 -15.5479 243.499 15.1711 315.878C18.3306 323.101 18.8437 331.206 16.6201 338.769C13.9186 347.567 13.6648 356.935 15.8858 365.866C18.1069 374.797 22.7189 382.955 29.2267 389.462C35.7344 395.97 43.892 400.582 52.8233 402.803C61.7546 405.024 71.1222 404.77 79.9201 402.069C87.4845 399.843 95.5916 400.356 102.815 403.518C175.194 434.237 268.694 414.666 335.182 348.178C401.67 281.69 421.241 188.19 390.522 115.811C387.361 108.587 386.847 100.48 389.073 92.916C391.775 84.1181 392.028 74.7505 389.807 65.8192C387.586 56.8879 382.974 48.7303 376.466 42.2226C369.959 35.7149 361.801 31.1028 352.87 28.8817C343.939 26.6607 334.571 26.9145 325.773 29.616L325.769 29.62Z" fill="#F3E64D"/>
<path d="M60.128 389.468C53.6182 382.96 49.0053 374.801 46.7852 365.868C44.5652 356.935 44.822 347.566 47.528 338.768C49.7524 331.204 49.2379 323.099 46.075 315.877C15.358 243.499 34.929 149.999 101.413 83.511C143.136 41.788 195.491 18.546 246.589 14.604C186.308 9.862 120.71 33.304 70.511 83.51C4.02203 149.999 -15.548 243.499 15.171 315.878C18.3306 323.101 18.8436 331.206 16.62 338.769C13.9186 347.567 13.6647 356.935 15.8858 365.866C18.1068 374.797 22.7189 382.955 29.2266 389.462C35.7344 395.97 43.8919 400.582 52.8232 402.803C61.7545 405.024 71.1221 404.77 79.92 402.069C80.12 402.007 80.33 401.956 80.533 401.897C72.8335 399.449 65.8352 395.187 60.128 389.468Z" fill="#F3C13B"/>
<path d="M152.299 334.222C152.27 363.077 158.657 391.578 170.999 417.66C227.905 418.652 288.272 395.101 335.19 348.183C392.913 290.456 415.264 212.374 400.053 145.425C383.131 140.766 365.659 138.409 348.108 138.417C240.136 138.417 152.299 226.253 152.299 334.222Z" fill="#F3C13B"/>
<path d="M512.999 334.222C512.999 366.836 503.328 398.718 485.208 425.836C467.089 452.953 441.335 474.089 411.204 486.57C381.072 499.051 347.916 502.316 315.929 495.954C283.941 489.591 254.559 473.886 231.497 450.824C208.435 427.762 192.73 398.38 186.368 366.392C180.005 334.405 183.27 301.249 195.751 271.118C208.232 240.986 229.368 215.232 256.486 197.113C283.603 178.993 315.485 169.322 348.099 169.322C391.833 169.322 433.776 186.695 464.701 217.62C495.626 248.545 512.999 290.488 512.999 334.222Z" fill="#00CE8E"/>
<path d="M468.542 334.222C468.542 358.043 461.478 381.329 448.244 401.135C435.009 420.941 416.199 436.378 394.191 445.494C372.184 454.61 347.967 456.995 324.604 452.348C301.241 447.701 279.781 436.23 262.937 419.386C246.093 402.542 234.622 381.082 229.974 357.719C225.327 334.356 227.712 310.139 236.828 288.131C245.943 266.124 261.38 247.313 281.186 234.079C300.992 220.844 324.278 213.78 348.099 213.78C363.916 213.78 379.578 216.894 394.191 222.947C408.804 229 422.082 237.871 433.266 249.055C444.45 260.24 453.322 273.517 459.375 288.13C465.427 302.743 468.542 318.405 468.542 334.222Z" fill="#F3E64D"/>
<path d="M468.542 326.499H366.753L438.729 254.519C440.178 253.07 440.992 251.104 440.991 249.055C440.991 247.005 440.177 245.04 438.727 243.591C437.278 242.142 435.312 241.328 433.263 241.329C431.213 241.329 429.248 242.144 427.799 243.593L355.827 315.569V213.78C355.804 211.746 354.98 209.803 353.533 208.373C352.087 206.943 350.135 206.141 348.101 206.141C346.067 206.141 344.114 206.943 342.668 208.373C341.221 209.803 340.397 211.746 340.374 213.78V315.569L268.399 243.593C266.947 242.159 264.987 241.358 262.946 241.364C260.905 241.371 258.95 242.184 257.507 243.627C256.064 245.07 255.251 247.025 255.244 249.066C255.238 251.107 256.039 253.067 257.473 254.519L329.448 326.499H227.659C225.625 326.522 223.682 327.346 222.252 328.793C220.822 330.239 220.02 332.191 220.02 334.225C220.02 336.26 220.822 338.212 222.252 339.658C223.682 341.105 225.625 341.929 227.659 341.952H329.448L257.471 413.929C256.058 415.385 255.275 417.339 255.291 419.368C255.306 421.397 256.12 423.339 257.555 424.773C258.99 426.208 260.932 427.02 262.961 427.034C264.99 427.049 266.943 426.265 268.399 424.851L340.376 352.874V454.663C340.399 456.697 341.223 458.64 342.67 460.07C344.116 461.5 346.068 462.302 348.103 462.302C350.137 462.302 352.089 461.5 353.535 460.07C354.982 458.64 355.806 456.697 355.829 454.663V352.874L427.799 424.851C429.251 426.285 431.211 427.086 433.252 427.08C435.293 427.073 437.248 426.26 438.691 424.817C440.134 423.374 440.947 421.419 440.954 419.378C440.96 417.337 440.159 415.377 438.725 413.925L366.748 341.948H468.542C470.576 341.925 472.519 341.101 473.949 339.654C475.379 338.208 476.181 336.256 476.181 334.221C476.181 332.187 475.379 330.235 473.949 328.789C472.519 327.342 470.576 326.518 468.542 326.495V326.499Z" fill="#29CE69"/>
</svg>
