<svg width="513" height="512" viewBox="0 0 513 512" fill="none" xmlns="http://www.w3.org/2000/svg">
<path d="M489.987 108.822C473.551 92.3865 451.26 83.1532 428.017 83.1532C404.773 83.1532 382.482 92.3865 366.046 108.822L357.687 117.181C367.548 107.319 373.088 93.9446 373.088 79.9985C373.088 66.0525 367.548 52.6776 357.687 42.816C356.16 41.2892 354.348 40.078 352.353 39.2517C350.358 38.4254 348.22 38.0001 346.061 38.0001C343.902 38.0001 341.764 38.4254 339.769 39.2517C337.774 40.078 335.962 41.2892 334.435 42.816L333.523 43.728C323.662 53.5895 318.122 66.9644 318.122 80.9105C318.122 94.8566 323.662 108.231 333.523 118.093L345.149 129.719L364.526 149.1C380.962 165.535 403.253 174.769 426.497 174.769C449.74 174.769 472.031 165.535 488.467 149.1L489.987 147.58C492.533 145.036 494.552 142.014 495.93 138.689C497.308 135.364 498.017 131.8 498.017 128.201C498.017 124.602 497.308 121.038 495.93 117.713C494.552 114.388 492.533 111.366 489.987 108.822Z" fill="#00CE8E"/>
<path d="M411.375 129.719C411.374 127.431 410.465 125.236 408.847 123.618C407.229 122 405.035 121.091 402.746 121.09H353.777V95.937C353.777 93.6485 352.868 91.4536 351.25 89.8354C349.632 88.2171 347.437 87.308 345.148 87.308C342.86 87.308 340.665 88.2171 339.047 89.8354C337.428 91.4536 336.519 93.6485 336.519 95.937V126.145L311.447 151.217L323.647 163.417L348.719 138.345H402.742C403.875 138.345 404.998 138.122 406.044 137.689C407.091 137.255 408.043 136.62 408.844 135.818C409.646 135.017 410.281 134.066 410.715 133.019C411.149 131.972 411.372 130.85 411.372 129.717L411.375 129.719Z" fill="#009D6B"/>
<path d="M330.001 215.818C328.64 212.608 327.16 209.452 325.561 206.349C319.281 194.178 311.155 183.052 301.472 173.365C240.817 112.714 133.376 121.819 61.4941 193.7C-10.3879 265.581 -19.4939 373.025 41.1571 433.677C50.6729 443.184 61.5788 451.19 73.5011 457.419C73.7161 457.532 73.9251 457.654 74.1401 457.765C135.845 489.689 220.948 473.523 281.131 413.339C338.293 356.179 355.74 276.539 329.997 215.818H330.001Z" fill="#FCE3A0"/>
<path d="M338.074 165.574C332.793 160.284 325.79 157.064 318.337 156.497C317.801 149.667 315.046 143.201 310.491 138.084C305.936 132.967 299.831 129.482 293.11 128.159C286.388 126.837 279.418 127.75 273.264 130.759C267.11 133.769 262.11 138.71 259.027 144.827C198.301 119.082 118.656 136.54 61.493 193.7C1.10102 254.093 -14.999 339.594 17.369 401.349C12.7097 404.775 8.84595 409.168 6.04246 414.227C3.23898 419.285 1.56198 424.89 1.12633 430.657C0.690681 436.424 1.50667 442.217 3.51842 447.64C5.53017 453.062 8.69013 457.986 12.7819 462.073C16.8736 466.16 21.8005 469.315 27.225 471.321C32.6495 473.327 38.4435 474.137 44.2101 473.695C49.9767 473.253 55.5797 471.57 60.6353 468.761C65.6909 465.952 70.0797 462.084 73.501 457.421C73.509 318.94 193.201 215.821 330.001 215.821C334.436 213.585 338.277 210.329 341.21 206.32C344.142 202.312 346.082 197.665 346.87 192.761C347.659 187.858 347.273 182.837 345.745 178.111C344.217 173.385 341.589 169.09 338.079 165.576L338.074 165.574Z" fill="#FFCE71"/>
<path d="M186.27 392.802C190.412 392.802 193.77 389.444 193.77 385.302C193.77 381.16 190.412 377.802 186.27 377.802C182.128 377.802 178.77 381.16 178.77 385.302C178.77 389.444 182.128 392.802 186.27 392.802Z" fill="#FFCE71"/>
<path d="M186.27 192.802C190.412 192.802 193.77 189.444 193.77 185.302C193.77 181.16 190.412 177.802 186.27 177.802C182.128 177.802 178.77 181.16 178.77 185.302C178.77 189.444 182.128 192.802 186.27 192.802Z" fill="#FFB357"/>
<path d="M256.27 215.802C260.412 215.802 263.77 212.444 263.77 208.302C263.77 204.16 260.412 200.802 256.27 200.802C252.128 200.802 248.77 204.16 248.77 208.302C248.77 212.444 252.128 215.802 256.27 215.802Z" fill="#FFB357"/>
<path d="M236.27 415.802C240.412 415.802 243.77 412.444 243.77 408.302C243.77 404.16 240.412 400.802 236.27 400.802C232.128 400.802 228.77 404.16 228.77 408.302C228.77 412.444 232.128 415.802 236.27 415.802Z" fill="#FFCE71"/>
<path d="M125.27 435.802C129.412 435.802 132.77 432.444 132.77 428.302C132.77 424.16 129.412 420.802 125.27 420.802C121.128 420.802 117.77 424.16 117.77 428.302C117.77 432.444 121.128 435.802 125.27 435.802Z" fill="#FFCE71"/>
<path d="M65.27 375.802C69.4122 375.802 72.77 372.444 72.77 368.302C72.77 364.16 69.4122 360.802 65.27 360.802C61.1279 360.802 57.77 364.16 57.77 368.302C57.77 372.444 61.1279 375.802 65.27 375.802Z" fill="#FFB357"/>
<path d="M105.27 325.802C109.412 325.802 112.77 322.444 112.77 318.302C112.77 314.16 109.412 310.802 105.27 310.802C101.128 310.802 97.77 314.16 97.77 318.302C97.77 322.444 101.128 325.802 105.27 325.802Z" fill="#FFB357"/>
<path d="M35.27 305.802C39.4122 305.802 42.77 302.444 42.77 298.302C42.77 294.16 39.4122 290.802 35.27 290.802C31.1279 290.802 27.77 294.16 27.77 298.302C27.77 302.444 31.1279 305.802 35.27 305.802Z" fill="#FFB357"/>
<path d="M285.27 285.802C289.412 285.802 292.77 282.444 292.77 278.302C292.77 274.16 289.412 270.802 285.27 270.802C281.128 270.802 277.77 274.16 277.77 278.302C277.77 282.444 281.128 285.802 285.27 285.802Z" fill="#FFCE71"/>
</svg>
