<svg width="512" height="512" viewBox="0 0 512 512" fill="none" xmlns="http://www.w3.org/2000/svg">
<path d="M19.0259 43.264C41.6051 20.686 72.2284 8.00183 104.159 8.00183C136.09 8.00183 166.714 20.686 189.293 43.264L218 71.971L191.381 98.59C168.802 121.168 138.178 133.852 106.247 133.852C74.3164 133.852 43.6931 121.168 21.1139 98.59L19.0259 96.5C11.9661 89.4402 8 79.8651 8 69.881C8 59.897 11.9661 50.3218 19.0259 43.262V43.264Z" fill="#00CE8E"/>
<path d="M176.922 79.472C176.257 79.4719 175.595 79.3831 174.953 79.208C139.575 69.6195 102.282 69.6195 66.903 79.208C64.9896 79.7098 62.9555 79.4354 61.2435 78.4445C59.5315 77.4536 58.2803 75.8265 57.7622 73.9174C57.2442 72.0084 57.5014 69.972 58.4777 68.2516C59.454 66.5312 61.0704 65.2662 62.975 64.732C100.925 54.446 140.93 54.446 178.88 64.732C180.635 65.2066 182.158 66.3025 183.166 67.816C184.173 69.3294 184.596 71.1573 184.357 72.9596C184.118 74.7619 183.232 76.4159 181.864 77.6138C180.496 78.8118 178.74 79.4721 176.922 79.472Z" fill="#00B27A"/>
<path d="M367.6 137.969C354.583 131.013 340.059 127.356 325.3 127.318C264.652 127.318 215.487 189.318 215.487 265.807C215.487 342.296 264.657 404.3 325.3 404.3C346.47 404.3 366.237 396.737 383.006 383.649C414.277 359.241 435.112 315.598 435.112 265.811C435.112 208.23 407.246 158.862 367.594 137.973L367.6 137.969Z" fill="#FFF1D4"/>
<path d="M325.3 265.776C325.3 215.989 336.323 162.376 367.594 137.969C354.579 131.014 340.057 127.357 325.3 127.318C264.652 127.318 215.487 189.318 215.487 265.807C215.487 342.296 264.657 404.3 325.3 404.3C346.47 404.3 366.237 396.737 383.006 383.649C343.36 362.756 325.3 323.357 325.3 265.776Z" fill="#FCE3A0"/>
<path d="M505 325.3C505 301.623 486.233 286.908 477.155 284.625C377.48 259.504 273.13 259.504 173.455 284.625C165.254 287.808 158.207 293.395 153.239 300.653C148.27 307.912 145.611 316.503 145.611 325.299C145.611 334.095 148.27 342.686 153.239 349.945C158.207 357.203 165.254 362.79 173.455 365.973C167.942 372.833 164.632 381.199 163.959 389.973C163.286 398.747 165.282 407.52 169.684 415.14C174.085 422.76 180.688 428.872 188.626 432.672C196.563 436.472 205.463 437.784 214.16 436.436C212.806 445.132 214.116 454.034 217.915 461.972C221.715 469.911 227.828 476.513 235.45 480.913C243.072 485.313 251.847 487.303 260.622 486.623C269.396 485.943 277.759 482.624 284.613 477.103C287.79 485.315 293.376 492.373 300.639 497.351C307.902 502.328 316.501 504.992 325.306 504.992C334.111 504.992 342.709 502.328 349.972 497.351C357.235 492.373 362.822 485.315 365.999 477.103C372.852 482.625 381.216 485.943 389.99 486.623C398.765 487.303 407.54 485.313 415.162 480.913C422.784 476.513 428.897 469.91 432.696 461.972C436.496 454.033 437.805 445.131 436.452 436.435C445.148 437.783 454.048 436.47 461.985 432.669C469.921 428.869 476.523 422.757 480.925 415.137C485.326 407.517 487.321 398.745 486.648 389.971C485.974 381.197 482.664 372.831 477.152 365.972C485.347 362.782 492.389 357.193 497.357 349.937C502.326 342.681 504.989 334.094 505 325.3Z" fill="#FF6F4D"/>
<path d="M291.437 367.452V347.54C291.437 316.879 303.614 287.474 325.292 265.79C274.099 265.837 223.105 272.165 173.454 284.631C165.253 287.814 158.206 293.401 153.238 300.659C148.269 307.918 145.61 316.509 145.61 325.305C145.61 334.101 148.269 342.692 153.238 349.951C158.206 357.209 165.253 362.796 173.454 365.979C167.941 372.839 164.631 381.205 163.958 389.979C163.285 398.753 165.281 407.526 169.683 415.146C174.085 422.766 180.687 428.878 188.625 432.678C196.562 436.478 205.462 437.79 214.159 436.442C212.805 445.138 214.115 454.04 217.914 461.978C221.714 469.917 227.827 476.519 235.449 480.919C243.071 485.319 251.846 487.309 260.621 486.629C269.395 485.949 277.758 482.63 284.612 477.109C287.789 485.321 293.375 492.379 300.638 497.357C307.901 502.335 316.5 504.998 325.305 504.998C334.11 504.998 342.708 502.335 349.971 497.357C357.234 492.379 362.821 485.321 365.998 477.109L349.937 467.982C332.173 457.888 317.402 443.267 307.126 425.608C296.85 407.949 291.436 387.883 291.437 367.452Z" fill="#EC5334"/>
<path d="M378.567 18.33C373.991 14.4627 368.668 11.5782 362.929 9.85595C357.191 8.13374 351.159 7.61062 345.21 8.31915C339.26 9.02767 333.52 10.9527 328.347 13.9744C323.173 16.9962 318.677 21.0501 315.137 25.884C309.945 18.7778 302.724 13.4088 294.424 10.4825C286.124 7.55624 277.133 7.20965 268.632 9.4883C260.131 11.7669 252.519 16.5642 246.795 23.2496C241.072 29.935 237.505 38.1957 236.563 46.946C228.51 43.3855 219.568 42.3447 210.913 43.9604C202.258 45.5762 194.294 49.7728 188.068 55.9988C181.842 62.2248 177.645 70.1888 176.029 78.8441C174.414 87.4995 175.454 96.4412 179.015 104.494C170.264 105.435 162.003 109.002 155.317 114.726C148.632 120.449 143.834 128.062 141.555 136.563C139.277 145.064 139.623 154.055 142.55 162.355C145.477 170.656 150.846 177.876 157.953 183.068C153.237 186.522 149.262 190.887 146.264 195.905C143.266 200.923 141.306 206.492 140.499 212.282C139.693 218.072 140.057 223.964 141.57 229.611C143.084 235.257 145.715 240.542 149.308 245.153C159.96 258.786 179.436 261.753 194.022 252.453C229.419 229.644 262.536 203.476 292.912 174.312C330.986 137.793 361.48 99.733 385.048 61.563C393.716 47.525 391.148 29.002 378.567 18.331V18.33Z" fill="#FF6F4D"/>
<path d="M236.564 46.946C228.511 43.3855 219.569 42.3447 210.914 43.9605C202.259 45.5762 194.295 49.7728 188.069 55.9988C181.843 62.2248 177.646 70.1888 176.03 78.8441C174.415 87.4995 175.455 96.4412 179.016 104.494C170.265 105.435 162.004 109.002 155.318 114.726C148.633 120.449 143.835 128.062 141.556 136.563C139.278 145.064 139.624 154.055 142.551 162.356C145.478 170.656 150.847 177.876 157.954 183.068C153.238 186.522 149.263 190.887 146.265 195.905C143.267 200.923 141.306 206.492 140.5 212.282C139.694 218.072 140.058 223.964 141.571 229.611C143.084 235.257 145.716 240.542 149.309 245.153C159.961 258.786 179.437 261.753 194.023 252.453C229.42 229.644 262.537 203.476 292.913 174.312C257.055 142.092 236.564 95.162 236.564 46.947V46.946Z" fill="#EC5334"/>
</svg>
