<svg width="512" height="512" viewBox="0 0 512 512" fill="none" xmlns="http://www.w3.org/2000/svg">
<path d="M405.262 46.002H386.621C386.624 42.7622 385.578 39.6086 383.638 37.0134C381.699 34.4182 378.971 32.521 375.863 31.606C372.755 30.691 369.435 30.8073 366.398 31.9376C363.362 33.0679 360.774 35.1514 359.021 37.876L304.634 122.262C302.504 125.606 301.785 129.656 302.633 133.529C303.481 137.402 305.827 140.781 309.159 142.929C312.492 145.076 316.538 145.817 320.415 144.99C324.293 144.163 327.684 141.835 329.85 138.514L371.63 73.696V77.196C371.63 103.648 382.138 129.017 400.843 147.721C419.547 166.426 444.916 176.934 471.368 176.934H473.814C477.91 176.934 481.966 176.127 485.75 174.56C489.534 172.992 492.972 170.694 495.868 167.798C498.765 164.901 501.062 161.462 502.628 157.678C504.195 153.893 505.001 149.837 505 145.741C505 132.643 502.42 119.673 497.408 107.573C492.396 95.4717 485.049 84.4766 475.788 75.2149C466.526 65.9533 455.531 58.6066 443.43 53.5942C431.329 48.5818 418.36 46.002 405.262 46.002Z" fill="#00CE8E"/>
<path d="M364.45 128.464C362.269 126.313 360.048 124.228 357.785 122.209C286.3 58.313 176.4 59.473 106.279 125.396C104.918 126.676 103.567 127.972 102.236 129.296C83.8842 147.576 69.5604 169.494 60.1854 193.64C50.8103 217.787 46.5914 243.628 47.7999 269.502C49.0758 297.008 40.7566 324.103 24.2649 346.154C-10.0161 391.854 12.4559 457.884 67.6649 472.588C94.2935 479.672 121.749 483.17 149.303 482.988C230.431 482.579 308.109 450.116 365.403 392.675C373.851 384.228 381.471 374.991 388.158 365.091C437.309 292.331 429.416 192.522 364.458 128.466L364.45 128.464Z" fill="#FFCE71"/>
<path d="M154.265 393.154C170.757 371.103 179.076 344.008 177.8 316.502C173.15 213.708 252.9 125.552 357.784 122.209C286.3 58.313 176.4 59.473 106.278 125.396C104.917 126.676 103.566 127.972 102.235 129.296C83.8835 147.576 69.56 169.494 60.1852 193.64C50.8103 217.787 46.5915 243.628 47.7999 269.502C49.0758 297.008 40.7566 324.103 24.2649 346.154C-10.0161 391.854 12.4559 457.884 67.6649 472.588C94.2935 479.672 121.749 483.17 149.303 482.988C141.127 469.21 137.234 453.312 138.117 437.316C139.001 421.32 144.622 405.948 154.265 393.154Z" fill="#FFB357"/>
<path d="M364.45 128.464C362.269 126.313 360.047 124.228 357.785 122.209C286.3 58.313 176.4 59.473 106.279 125.396C156.933 123.029 207.241 134.857 251.534 159.546C288.959 180.536 320.862 210.117 344.615 245.853C368.368 281.588 383.291 322.456 388.155 365.089C437.306 292.329 429.413 192.52 364.455 128.464H364.45Z" fill="#FFCE71"/>
<path d="M106.278 125.396C156.927 123.027 207.231 134.852 251.52 159.539C282.207 136.366 319.346 123.32 357.784 122.209C286.3 58.313 176.4 59.472 106.278 125.396Z" fill="#FFB357"/>
<path d="M487.613 149.167C464.345 112.247 432.593 81.4208 395 59.256C393.286 58.2595 391.248 57.9818 389.331 58.4837C387.413 58.9856 385.772 60.2262 384.766 61.9343C383.761 63.6424 383.472 65.6792 383.964 67.5995C384.455 69.5197 385.687 71.1673 387.39 72.182C422.9 93.1197 452.897 122.234 474.885 157.103C475.937 158.791 477.617 159.992 479.555 160.441C481.493 160.891 483.53 160.552 485.217 159.5C486.905 158.447 488.106 156.767 488.556 154.83C489.005 152.892 488.666 150.855 487.614 149.167H487.613Z" fill="#009D6B"/>
</svg>
