<svg width="512" height="512" viewBox="0 0 512 512" fill="none" xmlns="http://www.w3.org/2000/svg">
<path d="M331.928 8C311.724 8 292.347 16.0261 278.061 30.3126C263.774 44.5991 255.748 63.9758 255.748 84.18V94.455C255.748 82.3325 250.932 70.7065 242.36 62.1346C233.789 53.5627 222.163 48.747 210.04 48.747C206.25 48.747 202.614 50.2528 199.934 52.933C197.254 55.6133 195.748 59.2485 195.748 63.039V64.16C195.748 76.2825 200.564 87.9085 209.136 96.4804C217.708 105.052 229.334 109.868 241.456 109.868H279.568C299.772 109.868 319.149 101.842 333.435 87.5554C347.722 73.2689 355.748 53.8922 355.748 33.688V31.82C355.748 25.5026 353.238 19.4441 348.771 14.977C344.304 10.51 338.245 8.00027 331.928 8V8Z" fill="#00CE8E"/>
<path d="M296.454 69.163C295.758 68.4665 294.931 67.914 294.021 67.5371C293.111 67.1601 292.136 66.9661 291.151 66.9661C290.166 66.9661 289.19 67.1601 288.28 67.5371C287.37 67.914 286.544 68.4665 285.847 69.163L255.747 99.263L240.288 83.8C238.882 82.3934 236.974 81.6032 234.985 81.6032C232.995 81.6032 231.088 82.3934 229.681 83.8C228.275 85.2066 227.484 87.1143 227.484 89.1035C227.484 91.0927 228.275 93.0004 229.681 94.407L248.248 112.974V143.8H263.248V112.975L296.453 79.77C297.15 79.0735 297.702 78.2467 298.079 77.3367C298.456 76.4268 298.65 75.4515 298.65 74.4665C298.65 73.4815 298.456 72.5062 298.079 71.5962C297.702 70.6863 297.15 69.8594 296.453 69.163H296.454Z" fill="#009D6B"/>
<path d="M273.439 136.256C266.942 136.251 260.658 138.575 255.729 142.808C252.386 139.953 248.403 137.948 244.118 136.964C239.834 135.98 235.375 136.046 231.121 137.156C226.868 138.267 222.946 140.388 219.689 143.341C216.432 146.293 213.937 149.989 212.416 154.114C210.894 158.238 210.393 162.669 210.953 167.029C211.513 171.39 213.119 175.55 215.633 179.156C218.147 182.762 221.495 185.707 225.393 187.74C229.29 189.774 233.622 190.835 238.018 190.834H273.44C277.023 190.834 280.572 190.128 283.883 188.757C287.194 187.385 290.202 185.375 292.736 182.841C295.27 180.307 297.28 177.299 298.651 173.988C300.023 170.677 300.729 167.129 300.729 163.545C300.729 159.961 300.023 156.413 298.651 153.102C297.28 149.791 295.27 146.783 292.736 144.249C290.202 141.715 287.194 139.705 283.883 138.333C280.572 136.962 277.023 136.256 273.44 136.256H273.439Z" fill="#F9973E"/>
<path d="M300.091 169.379C285.943 165.579 226.466 165.442 212.728 169.006C172.592 179.444 137.626 204.132 114.359 238.462C91.0919 272.791 81.1138 314.415 86.2875 355.562C91.4612 396.709 111.433 434.567 142.474 462.068C173.516 489.569 213.505 504.832 254.976 505.009C296.446 505.187 336.564 490.265 367.839 463.03C399.114 435.795 419.409 398.109 424.934 357.008C430.458 315.906 420.836 274.199 397.863 239.672C374.89 205.145 340.136 180.159 300.091 169.379Z" fill="#FFB357"/>
<path d="M210.644 334.359C210.583 301.576 218.737 269.301 234.363 240.481C249.988 211.661 272.585 187.216 300.091 169.379C274.793 162.59 248.272 161.713 222.58 166.815C196.889 171.918 172.716 182.863 151.933 198.805C131.149 214.746 114.313 235.256 102.725 258.747C91.1381 282.237 85.1113 308.079 85.1113 334.272C85.1113 360.466 91.1381 386.308 102.725 409.798C114.313 433.289 131.149 453.799 151.933 469.74C172.716 485.682 196.889 496.627 222.58 501.73C248.272 506.832 274.793 505.955 300.091 499.166C244.067 463.141 210.772 400.966 210.644 334.359Z" fill="#F9973E"/>
<path d="M282.485 416.272C286.627 416.272 289.985 412.914 289.985 408.772C289.985 404.63 286.627 401.272 282.485 401.272C278.343 401.272 274.985 404.63 274.985 408.772C274.985 412.914 278.343 416.272 282.485 416.272Z" fill="#F9973E"/>
<path d="M352.485 379.272C356.627 379.272 359.985 375.914 359.985 371.772C359.985 367.63 356.627 364.272 352.485 364.272C348.343 364.272 344.985 367.63 344.985 371.772C344.985 375.914 348.343 379.272 352.485 379.272Z" fill="#F9973E"/>
<path d="M332.485 439.272C336.627 439.272 339.985 435.914 339.985 431.772C339.985 427.63 336.627 424.272 332.485 424.272C328.343 424.272 324.985 427.63 324.985 431.772C324.985 435.914 328.343 439.272 332.485 439.272Z" fill="#F9973E"/>
<path d="M221.485 459.272C225.627 459.272 228.985 455.914 228.985 451.772C228.985 447.63 225.627 444.272 221.485 444.272C217.343 444.272 213.985 447.63 213.985 451.772C213.985 455.914 217.343 459.272 221.485 459.272Z" fill="#F58133"/>
<path d="M161.485 399.272C165.627 399.272 168.985 395.914 168.985 391.772C168.985 387.63 165.627 384.272 161.485 384.272C157.343 384.272 153.985 387.63 153.985 391.772C153.985 395.914 157.343 399.272 161.485 399.272Z" fill="#F58133"/>
<path d="M201.485 349.272C205.627 349.272 208.985 345.914 208.985 341.772C208.985 337.63 205.627 334.272 201.485 334.272C197.343 334.272 193.985 337.63 193.985 341.772C193.985 345.914 197.343 349.272 201.485 349.272Z" fill="#F58133"/>
<path d="M131.485 329.272C135.627 329.272 138.985 325.914 138.985 321.772C138.985 317.63 135.627 314.272 131.485 314.272C127.343 314.272 123.985 317.63 123.985 321.772C123.985 325.914 127.343 329.272 131.485 329.272Z" fill="#F58133"/>
<path d="M381.485 309.272C385.627 309.272 388.985 305.914 388.985 301.772C388.985 297.63 385.627 294.272 381.485 294.272C377.343 294.272 373.985 297.63 373.985 301.772C373.985 305.914 377.343 309.272 381.485 309.272Z" fill="#F9973E"/>
</svg>
