<svg width="513" height="512" viewBox="0 0 513 512" fill="none" xmlns="http://www.w3.org/2000/svg">
<path d="M451.012 247.479C449.812 212.339 490.147 188.557 503.73 156.129C511.928 136.576 514.122 115.025 510.034 94.2211C505.945 73.4168 495.757 54.2999 480.769 39.304C465.78 24.3081 446.668 14.1117 425.866 10.0128C405.063 5.91392 383.512 8.09801 363.955 16.287C331.594 29.851 307.918 70.276 272.855 69.037C247.109 68.0904 221.45 72.5531 197.536 82.1371C173.621 91.721 151.982 106.213 134.016 124.678L67.7747 190.946C50.7383 208.312 37.3059 228.876 28.251 251.455C19.1961 274.034 14.6976 298.181 15.0147 322.506C15.3317 346.831 20.458 370.853 30.0984 393.188C39.7387 415.523 53.7025 435.73 71.1857 452.646C143.467 523.021 259.158 522.477 330.756 450.846L396.995 384.578C414.939 366.666 428.997 345.247 438.291 321.658C447.586 298.068 451.916 272.816 451.012 247.478V247.479Z" fill="#5FD9B3"/>
<path d="M459.529 60.49C452.42 53.3382 443.963 47.6679 434.648 43.8074C425.333 39.9469 415.344 37.973 405.261 38C377.147 38 363.769 50.185 347.32 64.027C330.189 78.443 312.901 92.073 291.739 97.06C285.208 98.6038 278.5 99.2623 271.794 99.018C250.221 98.1865 228.715 101.907 208.675 109.938C188.636 117.969 170.513 130.13 155.485 145.63L89.1257 212.023C60.5435 241.307 44.7127 280.713 45.0918 321.632C45.4709 362.551 62.0291 401.657 91.1489 430.407C120.269 459.156 159.583 475.213 200.504 475.069C241.424 474.924 280.624 458.59 309.541 429.636L375.779 363.367C390.865 348.398 402.677 330.459 410.466 310.685C418.256 290.912 421.853 269.736 421.03 248.5C419.918 215.922 439.916 192.056 455.985 172.88C464.42 162.814 472.385 153.306 476.06 144.537C481.989 130.475 483.583 114.962 480.638 99.9873C477.693 85.0128 470.342 71.2592 459.529 60.49Z" fill="#FF8F71"/>
<path d="M291.738 97.061C285.207 98.6048 278.499 99.2634 271.793 99.019C250.22 98.1875 228.714 101.908 208.674 109.939C188.635 117.97 170.512 130.131 155.484 145.631L89.1247 212.024C64.9395 236.867 49.7864 269.104 46.0903 303.577C42.3942 338.05 50.3686 372.767 68.7375 402.172C87.1064 431.577 114.808 453.971 147.41 465.769C180.011 477.568 215.628 478.09 248.562 467.251C217.24 408.482 204.592 341.556 212.307 275.41C220.022 209.263 247.732 147.045 291.738 97.061Z" fill="#FF6F4D"/>
<path d="M345.15 196.18C352.137 190.039 351.344 180.847 346.463 174.918C345.071 173.142 343.298 171.7 341.276 170.699C339.253 169.698 337.032 169.163 334.776 169.133C332.519 169.104 330.285 169.58 328.237 170.528C326.188 171.475 324.379 172.87 322.941 174.609C320.08 157.156 293.492 158.945 292.292 176.479C283.703 163.919 263.928 170.846 264.962 186C254.646 174.666 235.178 184.684 238.352 199.649C235.816 197.562 232.665 196.365 229.383 196.24C226.101 196.116 222.869 197.071 220.182 198.96C220.179 198.96 220.176 198.961 220.175 198.963C220.173 198.965 220.172 198.967 220.172 198.97C217.23 200.792 215.006 203.571 213.873 206.84C212.74 210.109 212.768 213.669 213.952 216.92C201.019 208.995 185.752 223.303 192.852 236.73C178.867 230.546 165.108 247.591 174.062 259.991C159.315 255.831 148.091 274.667 158.722 285.661C155.463 285.226 152.151 285.874 149.296 287.506C146.441 289.137 144.202 291.661 142.922 294.69V294.701C141.643 297.729 141.395 301.094 142.215 304.277C143.036 307.461 144.879 310.286 147.462 312.32C144.177 312.345 140.991 313.444 138.391 315.451C135.791 317.457 133.919 320.259 133.062 323.43V323.44C130.845 331.807 134.484 338.591 140.572 341.64C139.572 342.152 134.691 343.016 131.482 348.85C130.524 350.571 129.918 352.465 129.7 354.422C129.482 356.38 129.656 358.361 130.212 360.25V360.26C133.206 370.771 142.986 373.915 150.462 370.92C149.836 372.829 149.6 374.844 149.768 376.846C149.936 378.848 150.504 380.796 151.439 382.574C152.375 384.353 153.657 385.925 155.212 387.198C156.766 388.47 158.56 389.418 160.488 389.984C162.415 390.551 164.437 390.724 166.433 390.494C168.429 390.264 170.358 389.635 172.106 388.645C173.854 387.655 175.386 386.324 176.61 384.731C177.834 383.138 178.726 381.315 179.232 379.371C186.449 393.343 208.472 387.958 208.472 372.251C217.966 384.233 238.12 375.632 235.962 360.461C238.35 362.722 241.414 364.136 244.684 364.486C247.954 364.836 251.249 364.104 254.062 362.4C254.062 362.39 254.062 362.39 254.072 362.39C256.878 360.683 259.048 358.103 260.247 355.045C261.447 351.987 261.61 348.62 260.713 345.46C263.384 347.369 266.608 348.349 269.89 348.25C273.173 348.15 276.331 346.977 278.883 344.91H278.893C285.393 339.543 286.518 332.483 283.883 326.569C297.746 333.796 312.096 317.269 304.213 304.639C307.309 305.739 310.68 305.793 313.81 304.794C316.939 303.796 319.656 301.799 321.543 299.109V299.099C323.428 296.403 324.374 293.163 324.237 289.876C324.099 286.589 322.885 283.439 320.782 280.91C324 281.589 327.352 281.188 330.32 279.771C333.288 278.354 335.707 275.999 337.203 273.069V273.059C341.026 265.35 339.059 258.516 334.343 254.259C349.623 255.233 356.659 234.501 343.993 225.959C361.416 224.61 362.841 199.144 345.151 196.18H345.15Z" fill="#4C5699"/>
<path d="M303.345 225.788C311.629 225.788 318.345 219.072 318.345 210.788C318.345 202.504 311.629 195.788 303.345 195.788C295.06 195.788 288.345 202.504 288.345 210.788C288.345 219.072 295.06 225.788 303.345 225.788Z" fill="#676FB2"/>
<path d="M287.345 285.788C295.629 285.788 302.345 279.072 302.345 270.788C302.345 262.504 295.629 255.788 287.345 255.788C279.06 255.788 272.345 262.504 272.345 270.788C272.345 279.072 279.06 285.788 287.345 285.788Z" fill="#676FB2"/>
<path d="M253.345 245.788C261.629 245.788 268.345 239.072 268.345 230.788C268.345 222.504 261.629 215.788 253.345 215.788C245.06 215.788 238.345 222.504 238.345 230.788C238.345 239.072 245.06 245.788 253.345 245.788Z" fill="#676FB2"/>
<path d="M233.345 289.788C241.629 289.788 248.345 283.072 248.345 274.788C248.345 266.504 241.629 259.788 233.345 259.788C225.06 259.788 218.345 266.504 218.345 274.788C218.345 283.072 225.06 289.788 233.345 289.788Z" fill="#676FB2"/>
<path d="M187.345 315.788C195.629 315.788 202.345 309.072 202.345 300.788C202.345 292.504 195.629 285.788 187.345 285.788C179.06 285.788 172.345 292.504 172.345 300.788C172.345 309.072 179.06 315.788 187.345 315.788Z" fill="#676FB2"/>
<path d="M231.345 338.788C239.629 338.788 246.345 332.072 246.345 323.788C246.345 315.504 239.629 308.788 231.345 308.788C223.06 308.788 216.345 315.504 216.345 323.788C216.345 332.072 223.06 338.788 231.345 338.788Z" fill="#676FB2"/>
<path d="M176.345 361.788C184.629 361.788 191.345 355.072 191.345 346.788C191.345 338.504 184.629 331.788 176.345 331.788C168.06 331.788 161.345 338.504 161.345 346.788C161.345 355.072 168.06 361.788 176.345 361.788Z" fill="#676FB2"/>
</svg>
