<svg width="512" height="512" viewBox="0 0 512 512" fill="none" xmlns="http://www.w3.org/2000/svg">
<path d="M409.2 128.282C409.2 70.136 362.928 23 305.849 23H271V55.919C271 114.064 317.272 161.2 374.351 161.2H376.885C394.732 161.2 409.2 146.462 409.2 128.282Z" fill="#00CE8E"/>
<path d="M350.355 102.355L271 23L260 34.013C274.236 47.213 260.566 33.78 339.748 112.961C341.157 114.357 343.061 115.139 345.044 115.135C347.028 115.131 348.929 114.341 350.331 112.938C351.734 111.536 352.524 109.635 352.528 107.652C352.533 105.668 351.751 103.764 350.355 102.355Z" fill="#00B27A"/>
<path d="M335.29 156.326C328.792 152.586 322.639 148.276 316.904 143.446C302.486 131.236 290.909 116.025 282.981 98.8764C275.053 81.7273 270.965 63.0539 271.004 44.161V23C271.004 19.0218 269.424 15.2064 266.611 12.3934C263.798 9.58035 259.982 8 256.004 8C252.026 8 248.21 9.58035 245.397 12.3934C242.584 15.2064 241.004 19.0218 241.004 23V44.161C241.004 90.311 216.726 133.329 176.714 156.327C122.765 187.333 86 248.991 86 320C86 422.173 162.112 505 256 505C269.213 505.004 282.374 503.342 295.172 500.056C370.175 480.8 426 407.5 426 320C426 248.991 389.235 187.333 335.29 156.326Z" fill="#FFCE71"/>
<path d="M216 329.338C216 249.275 256.748 179.578 316.9 143.446C302.482 131.236 290.905 116.025 282.977 98.8764C275.049 81.7273 270.961 63.0539 271 44.161V23C271 19.0218 269.42 15.2064 266.607 12.3934C263.794 9.58035 259.978 8 256 8C252.022 8 248.206 9.58035 245.393 12.3934C242.58 15.2064 241 19.0218 241 23V44.161C241 90.311 216.722 133.329 176.71 156.327C122.765 187.333 86 248.991 86 320C86 422.173 162.112 505 256 505C269.213 505.004 282.374 503.342 295.172 500.056C247.146 461.4 216 399.332 216 329.338Z" fill="#FFB357"/>
</svg>
