<svg width="512" height="512" viewBox="0 0 512 512" fill="none" xmlns="http://www.w3.org/2000/svg">
<path d="M60.3939 48.73C57.4042 49.6684 54.6567 51.251 52.3449 53.3665C50.0332 55.4819 48.2136 58.0786 47.0143 60.9736C45.815 63.8685 45.2652 66.9913 45.4038 70.1218C45.5423 73.2522 46.3657 76.3143 47.8159 79.092C61.7549 105.732 91.5769 149.869 143.909 171.545C183.84 188.085 234.298 177.445 248.052 144.245C261.806 111.045 233.648 67.843 193.716 51.3C141.384 29.627 89.0869 39.749 60.3939 48.73Z" fill="#7ACF90"/>
<path d="M196.748 130.5C195.764 130.5 194.789 130.305 193.881 129.927L115.881 97.618C114.965 97.2452 114.132 96.6949 113.43 95.999C112.728 95.303 112.17 94.4751 111.789 93.5628C111.407 92.6505 111.21 91.6718 111.209 90.6831C111.207 89.6943 111.402 88.715 111.78 87.8016C112.158 86.8881 112.713 86.0585 113.414 85.3604C114.114 84.6623 114.945 84.1095 115.86 83.7339C116.774 83.3583 117.754 83.1672 118.743 83.1717C119.732 83.1762 120.71 83.3761 121.621 83.76L199.621 116.069C201.225 116.732 202.55 117.932 203.369 119.463C204.188 120.994 204.45 122.762 204.111 124.464C203.772 126.167 202.853 127.7 201.51 128.8C200.167 129.901 198.484 130.502 196.748 130.5Z" fill="#5FB87D"/>
<path d="M256.416 189.455C250.492 189.455 244.811 187.102 240.622 182.913C236.433 178.724 234.08 173.043 234.08 167.119C234.08 116.994 221.674 66.063 201.703 34.202C198.598 29.1834 197.606 23.14 198.942 17.392C200.279 11.644 203.835 6.65839 208.836 3.52418C213.836 0.389975 219.873 -0.638139 225.629 0.664402C231.385 1.96694 236.391 5.49429 239.555 10.476C264.099 49.634 278.755 108.193 278.755 167.119C278.755 170.052 278.177 172.957 277.054 175.667C275.931 178.377 274.286 180.84 272.212 182.914C270.137 184.988 267.675 186.633 264.964 187.755C262.254 188.878 259.349 189.455 256.416 189.455Z" fill="#B38A82"/>
<path opacity="0.1" d="M241.76 120.131C237.736 117.339 233.567 114.764 229.27 112.415C232.453 130.475 234.063 148.777 234.08 167.115C234.08 173.039 236.433 178.72 240.622 182.909C244.811 187.098 250.492 189.451 256.416 189.451C262.34 189.451 268.021 187.098 272.21 182.909C276.399 178.72 278.752 173.039 278.752 167.115C278.746 150.453 277.59 133.81 275.294 117.307C273.869 118.222 272.462 119.162 271.072 120.126C266.766 123.106 261.654 124.703 256.417 124.704C251.18 124.705 246.067 123.11 241.76 120.131Z" fill="black"/>
<path d="M25 255.248C25 352.277 94.815 457.811 212.632 503.764C240.789 514.746 272.044 514.746 300.201 503.764C418.016 457.811 487.833 352.278 487.833 255.248C487.831 230.042 480.931 205.317 467.879 183.753C454.827 162.19 436.122 144.609 413.791 132.919C391.46 121.228 366.355 115.872 341.197 117.432C316.039 118.992 291.789 127.409 271.073 141.769C266.766 144.749 261.654 146.345 256.417 146.345C251.18 146.345 246.068 144.749 241.761 141.769C221.045 127.409 196.794 118.993 171.637 117.433C146.479 115.873 121.374 121.228 99.0429 132.919C76.7119 144.61 58.0067 162.19 44.9547 183.753C31.9027 205.317 25.0018 230.042 25 255.248Z" fill="#F49E73"/>
<path d="M246.638 144.411C233.65 162.271 226.592 183.15 226.251 199.401C226.23 200.386 226.404 201.365 226.762 202.283C227.119 203.2 227.654 204.039 228.336 204.749C229.018 205.46 229.833 206.03 230.735 206.426C231.636 206.822 232.607 207.036 233.592 207.057H233.752C235.714 207.056 237.596 206.287 238.998 204.914C240.399 203.542 241.206 201.675 241.247 199.714C241.596 183.121 250.625 160.941 265.985 144.501C259.768 146.979 252.832 146.946 246.638 144.411Z" fill="#EA8962"/>
<path d="M448.724 21.832C451.713 22.7706 454.461 24.3534 456.772 26.469C459.084 28.5845 460.903 31.1812 462.102 34.0761C463.301 36.9711 463.851 40.0938 463.712 43.2241C463.574 46.3545 462.75 49.4164 461.3 52.194C447.361 78.834 417.539 122.971 365.207 144.648C325.276 161.188 274.818 150.548 261.064 117.348C247.31 84.148 275.47 40.948 315.401 24.405C367.734 2.729 420.03 12.851 448.724 21.832Z" fill="#8ADBA1"/>
<path d="M312.369 103.6C310.634 103.601 308.951 103 307.609 101.9C306.267 100.799 305.348 99.2669 305.009 97.5645C304.67 95.8621 304.932 94.0948 305.75 92.5641C306.568 91.0333 307.892 89.8337 309.496 89.17L387.496 56.861C389.331 56.1139 391.387 56.1232 393.216 56.887C395.044 57.6507 396.495 59.1068 397.254 60.9373C398.012 62.7677 398.015 64.8238 397.262 66.6566C396.509 68.4893 395.062 69.9497 393.236 70.719L315.236 103.028C314.328 103.406 313.353 103.6 312.369 103.6Z" fill="#5FB87D"/>
<path d="M300.2 503.764C315.194 497.921 329.728 490.963 343.683 482.949C157.575 445.412 111.468 187.48 184.47 118.817C164.77 115.746 144.639 116.974 125.459 122.418C106.279 127.861 88.5034 137.39 73.3535 150.352C58.2036 163.313 46.0378 179.399 37.6913 197.505C29.3448 215.612 25.0153 235.31 25 255.248C25 352.277 94.815 457.811 212.632 503.764C240.789 514.745 272.043 514.745 300.2 503.764Z" fill="#EF9067"/>
</svg>
