<svg width="512" height="512" viewBox="0 0 512 512" fill="none" xmlns="http://www.w3.org/2000/svg">
<path d="M223.355 37.285C213.882 27.801 202.202 20.8182 189.363 16.9634C176.525 13.1087 162.93 12.5027 149.8 15.2C146.547 15.8621 143.561 17.4667 141.214 19.8139C138.867 22.1612 137.262 25.1472 136.6 28.4C133.727 42.4228 134.619 56.9564 139.187 70.5221C143.755 84.0879 151.834 96.2015 162.604 105.631C173.374 115.06 186.449 121.468 200.499 124.202C214.55 126.937 229.074 125.901 242.594 121.2C247.598 106.818 248.447 91.3176 245.044 76.4754C241.641 61.6332 234.124 48.0505 223.355 37.285Z" fill="#00C655"/>
<path d="M168.988 81.352C160.573 72.9527 154.115 62.8005 150.074 51.619C146.033 40.4375 144.508 28.5023 145.609 16.664C143.316 17.8089 141.313 19.4605 139.752 21.4938C138.191 23.527 137.113 25.8887 136.6 28.4C133.727 42.4228 134.619 56.9564 139.187 70.5221C143.755 84.0878 151.834 96.2015 162.604 105.631C173.374 115.06 186.449 121.468 200.499 124.202C214.55 126.937 229.074 125.901 242.594 121.2C244.697 115.14 246.073 108.851 246.694 102.466C233.025 106.031 218.662 105.958 205.03 102.254C191.398 98.5503 178.973 91.3443 168.988 81.352Z" fill="#00A42C"/>
<path d="M242.594 128.922C241.579 128.923 240.574 128.724 239.637 128.335C238.7 127.946 237.849 127.375 237.133 126.656L176.91 66.434C175.476 64.982 174.675 63.0217 174.681 60.981C174.688 58.9404 175.501 56.9851 176.944 55.5421C178.387 54.0991 180.342 53.2856 182.383 53.2792C184.424 53.2729 186.384 54.0741 187.836 55.508L248.059 115.731C249.139 116.812 249.874 118.189 250.172 119.688C250.469 121.186 250.316 122.74 249.731 124.151C249.146 125.563 248.156 126.77 246.886 127.619C245.615 128.468 244.122 128.921 242.594 128.922Z" fill="#73D98B"/>
<path d="M307.957 16.875L296.875 4.84001C295.749 3.6251 294.383 2.65668 292.865 1.99586C291.346 1.33504 289.706 0.996145 288.05 1.00056C286.394 1.00498 284.756 1.35261 283.241 2.02152C281.725 2.69043 280.365 3.66611 279.246 4.88701C231.523 56.442 236.578 118.75 236.832 121.532L276.867 117.872C276.82 117.38 273.094 71.388 308.086 32.923C310.07 30.7142 311.158 27.8433 311.134 24.874C311.11 21.9047 309.977 19.0516 307.957 16.875Z" fill="#E1966D"/>
<path d="M288.059 63.18C277.83 60.7767 267.356 59.5686 256.848 59.58C253.203 59.58 249.61 59.732 246.048 60.002C234.478 92.787 236.661 119.721 236.829 121.529L276.864 117.869C276.832 117.508 274.77 92.027 288.059 63.18Z" fill="#D77C40"/>
<path d="M256.848 513C330.215 513 426.7 484.859 426.7 383.008C426.7 314.117 393.684 263.848 374.634 240.574C353.31 214.527 358.876 172.262 343.04 142.09C325.661 108.981 294.251 90.49 256.849 90.49C221.97 90.49 191.579 106.49 173.697 136.631C154.814 168.451 162.517 211.931 139.072 240.572C120.016 263.844 87 314.113 87 383.008C87 484.859 183.484 513 256.848 513Z" fill="#73D98B"/>
<path d="M128.207 383.008C128.207 314.113 161.227 263.844 180.277 240.571C203.722 211.93 196.019 168.45 214.902 136.63C221.54 125.207 230.562 115.349 241.353 107.727C252.145 100.105 264.452 94.8986 277.437 92.462C270.654 91.1362 263.758 90.4754 256.847 90.489C221.968 90.489 191.577 106.497 173.695 136.634C154.812 168.45 162.515 211.934 139.07 240.575C120.016 263.844 87 314.117 87 383.008C87 484.859 183.484 513 256.848 513C263.555 513 270.453 512.762 277.453 512.258C207.859 507.238 128.207 475.551 128.207 383.008Z" fill="#29CE69"/>
</svg>
