<svg width="512" height="512" viewBox="0 0 512 512" fill="none" xmlns="http://www.w3.org/2000/svg">
<path d="M216.272 14.231C216.074 11.8119 216.55 9.38507 217.648 7.22019C218.746 5.05531 220.422 3.23708 222.491 1.96743C224.559 0.697792 226.939 0.0264442 229.367 0.0279567C231.794 0.0294691 234.173 0.703783 236.24 1.976C247.036 8.61983 256.251 17.541 263.242 28.1161C270.232 38.6911 274.828 50.6651 276.71 63.2011C278.592 75.7372 277.714 88.5329 274.136 100.694C270.559 112.856 264.37 124.089 256 133.61L202.964 80.4C213.531 60.0326 218.143 37.0997 216.272 14.231Z" fill="#00B27A"/>
<path d="M295.728 14.231C295.927 11.8119 295.451 9.38507 294.353 7.22019C293.255 5.05531 291.579 3.23708 289.51 1.96743C287.442 0.697792 285.061 0.0264442 282.634 0.0279567C280.207 0.0294691 277.828 0.703783 275.76 1.976C264.964 8.61983 255.749 17.541 248.759 28.1161C241.769 38.6911 237.173 50.6651 235.291 63.2011C233.409 75.7372 234.287 88.5329 237.864 100.694C241.441 112.856 247.631 124.089 256 133.61L309.036 80.4C298.47 60.0326 293.858 37.0997 295.728 14.231Z" fill="#00C084"/>
<path d="M242.533 67.047C225.09 57.8477 204.903 55.2877 185.715 59.842C183.51 60.3672 181.494 61.4934 179.89 63.0954C178.286 64.6975 177.158 66.7127 176.63 68.9173C176.102 71.122 176.196 73.4298 176.9 75.5844C177.605 77.739 178.893 79.6562 180.621 81.123C196.96 94.9909 209.059 113.183 215.531 133.612H285.814C284.877 119.746 280.407 106.351 272.832 94.7001C265.256 83.0491 254.826 73.5297 242.533 67.047Z" fill="#00C084"/>
<path d="M331.379 81.123C333.108 79.6562 334.396 77.739 335.101 75.5844C335.805 73.4298 335.899 71.122 335.371 68.9173C334.843 66.7127 333.715 64.6975 332.111 63.0954C330.507 61.4934 328.491 60.3672 326.285 59.842C314.771 57.1089 302.799 56.9173 291.203 59.2804C279.606 61.6436 268.664 66.5048 259.137 73.5258C249.61 80.5468 241.727 89.5592 236.036 99.9358C230.346 110.312 226.984 121.804 226.185 133.612H296.468C302.941 113.182 315.041 94.9907 331.379 81.123Z" fill="#00CE8E"/>
<path d="M237.416 112.257C213.348 99.5638 185.492 96.031 159.016 102.314C155.973 103.039 153.191 104.593 150.977 106.803C148.764 109.014 147.207 111.795 146.479 114.837C145.751 117.879 145.88 121.064 146.852 124.037C147.825 127.01 149.602 129.656 151.987 131.68C174.533 150.816 191.228 175.919 200.16 204.109H297.14C295.846 184.976 289.679 166.492 279.225 150.415C268.772 134.338 254.379 121.202 237.416 112.257Z" fill="#00B27A"/>
<path d="M360.016 131.681C362.402 129.657 364.179 127.011 365.152 124.038C366.124 121.065 366.253 117.88 365.525 114.838C364.797 111.796 363.24 109.015 361.027 106.804C358.813 104.594 356.031 103.04 352.987 102.315C337.098 98.5441 320.578 98.2802 304.576 101.542C288.574 104.803 273.475 111.511 260.329 121.2C247.183 130.889 236.305 143.325 228.453 157.645C220.601 171.964 215.962 187.821 214.86 204.115H311.843C320.774 175.923 337.47 150.818 360.016 131.681Z" fill="#00C084"/>
<path d="M398.07 337L404.487 315.083C405.9 310.246 406.325 305.175 405.738 300.17C405.15 295.166 403.561 290.331 401.066 285.953L388.205 262.953L383.971 242.804C381.277 229.984 371.976 218.929 358.711 212.783L337.711 203.049L320.4 188.781C318.995 187.626 317.526 186.55 316 185.56C305.238 178.729 292.441 175.841 279.787 177.386L256 180.17L232.213 177.386C217.38 175.65 202.44 179.842 191.599 188.786L174.293 203.056L153.293 212.79C140.028 218.937 130.727 229.99 128.033 242.811L123.799 262.96L110.938 285.96C108.444 290.338 106.855 295.173 106.267 300.177C105.679 305.182 106.105 310.253 107.517 315.09L113.93 337L107.513 358.917C106.101 363.754 105.675 368.825 106.263 373.83C106.851 378.834 108.44 383.669 110.934 388.047L123.795 411.047L128.029 431.196C130.723 444.016 140.029 455.071 153.289 461.217L174.289 470.951L191.595 485.221C202.436 494.16 217.377 498.352 232.209 496.616L256 493.83L279.787 496.614C292.441 498.16 305.238 495.271 316 488.44C317.527 487.45 318.996 486.375 320.4 485.219L337.706 470.949L358.706 461.215C371.971 455.068 381.272 444.015 383.966 431.194L388.2 411.045L401.061 388.045C403.556 383.667 405.145 378.832 405.733 373.828C406.32 368.823 405.895 363.752 404.482 358.915L398.07 337Z" fill="#FFCE71"/>
<path d="M294.293 470.95L273.293 461.216C260.028 455.069 250.727 444.016 248.033 431.195L243.8 411.046L230.939 388.046C228.445 383.668 226.856 378.833 226.269 373.829C225.681 368.824 226.106 363.753 227.518 358.916L233.93 337L227.513 315.083C226.101 310.246 225.676 305.175 226.263 300.17C226.851 295.166 228.44 290.331 230.934 285.953L243.795 262.953L248.029 242.804C250.723 229.984 260.024 218.929 273.289 212.783L294.289 203.049L311.595 188.779C313 187.624 314.469 186.548 315.995 185.558C305.233 178.727 292.436 175.839 279.782 177.384L256 180.17L232.213 177.386C217.38 175.65 202.44 179.842 191.599 188.786L174.293 203.056L153.293 212.79C140.028 218.937 130.727 229.99 128.033 242.811L123.8 262.955L110.939 285.955C108.445 290.333 106.856 295.168 106.268 300.172C105.68 305.177 106.106 310.248 107.518 315.085L113.93 337L107.513 358.917C106.101 363.754 105.675 368.825 106.263 373.83C106.851 378.834 108.44 383.669 110.934 388.047L123.795 411.047L128.029 431.196C130.723 444.016 140.029 455.071 153.289 461.217L174.289 470.951L191.595 485.221C202.436 494.16 217.377 498.352 232.209 496.616L256 493.83L279.787 496.614C292.441 498.16 305.238 495.271 316 488.44C314.474 487.45 313.005 486.375 311.6 485.219L294.293 470.95Z" fill="#FFB357"/>
<path d="M211.16 253.29L196.161 243.29C194.929 242.469 193.481 242.031 192 242.031C190.52 242.031 189.072 242.469 187.84 243.29L172.84 253.29C172.009 253.831 171.294 254.532 170.735 255.351C170.176 256.171 169.786 257.093 169.586 258.064C169.386 259.036 169.381 260.037 169.57 261.011C169.76 261.984 170.141 262.911 170.692 263.736C171.242 264.561 171.95 265.269 172.776 265.819C173.601 266.368 174.528 266.749 175.501 266.938C176.475 267.127 177.477 267.121 178.448 266.921C179.419 266.72 180.341 266.329 181.161 265.77L192 258.543L202.84 265.77C204.496 266.847 206.509 267.228 208.443 266.83C210.377 266.432 212.077 265.288 213.172 263.644C214.268 262.001 214.671 259.992 214.294 258.054C213.918 256.115 212.792 254.403 211.16 253.29Z" fill="#F9973E"/>
<path d="M330.841 265.771C332.496 266.848 334.509 267.229 336.443 266.831C338.378 266.433 340.077 265.289 341.172 263.645C342.268 262.002 342.671 259.993 342.294 258.055C341.918 256.116 340.792 254.404 339.161 253.291L324.161 243.291C322.929 242.47 321.481 242.031 320.001 242.031C318.52 242.031 317.072 242.47 315.841 243.291L300.841 253.291C299.209 254.404 298.083 256.116 297.707 258.055C297.33 259.993 297.733 262.002 298.829 263.645C299.924 265.289 301.624 266.433 303.558 266.831C305.492 267.229 307.505 266.848 309.161 265.771L320.001 258.544L330.841 265.771Z" fill="#F9973E"/>
<path d="M275.161 223.29L260.161 213.29C258.929 212.469 257.481 212.031 256.001 212.031C254.52 212.031 253.072 212.469 251.841 213.29L236.841 223.29C235.209 224.403 234.083 226.115 233.707 228.054C233.33 229.992 233.733 232.001 234.829 233.644C235.924 235.288 237.624 236.432 239.558 236.83C241.492 237.228 243.505 236.847 245.161 235.77L256.001 228.543L266.841 235.77C268.496 236.847 270.509 237.228 272.443 236.83C274.377 236.432 276.077 235.288 277.172 233.644C278.268 232.001 278.671 229.992 278.294 228.054C277.918 226.115 276.792 224.403 275.161 223.29Z" fill="#F9973E"/>
<path d="M191.16 393.29L176.161 383.29C174.929 382.469 173.481 382.031 172 382.031C170.52 382.031 169.072 382.469 167.84 383.29L152.84 393.29C152.009 393.831 151.294 394.532 150.735 395.351C150.176 396.171 149.786 397.093 149.586 398.064C149.386 399.036 149.381 400.037 149.57 401.011C149.76 401.984 150.141 402.911 150.692 403.736C151.242 404.561 151.95 405.269 152.776 405.819C153.601 406.368 154.528 406.749 155.501 406.938C156.475 407.127 157.477 407.121 158.448 406.921C159.419 406.72 160.341 406.329 161.161 405.77L172 398.543L182.84 405.77C184.496 406.847 186.509 407.228 188.443 406.83C190.377 406.432 192.077 405.288 193.172 403.644C194.268 402.001 194.671 399.992 194.294 398.054C193.918 396.115 192.792 394.403 191.16 393.29Z" fill="#F9973E"/>
<path d="M191.16 328.29L176.161 318.29C174.929 317.469 173.481 317.031 172 317.031C170.52 317.031 169.072 317.469 167.84 318.29L152.84 328.29C152.009 328.831 151.294 329.532 150.735 330.351C150.176 331.171 149.786 332.093 149.586 333.064C149.386 334.036 149.381 335.037 149.57 336.011C149.76 336.984 150.141 337.911 150.692 338.736C151.242 339.561 151.95 340.269 152.776 340.819C153.601 341.368 154.528 341.749 155.501 341.938C156.475 342.127 157.477 342.121 158.448 341.921C159.419 341.72 160.341 341.329 161.161 340.77L172 333.543L182.84 340.77C184.496 341.847 186.509 342.228 188.443 341.83C190.377 341.432 192.077 340.288 193.172 338.644C194.268 337.001 194.671 334.992 194.294 333.054C193.918 331.115 192.792 329.403 191.16 328.29Z" fill="#F9973E"/>
<path d="M359.161 393.29L344.161 383.29C342.929 382.469 341.481 382.031 340.001 382.031C338.52 382.031 337.072 382.469 335.841 383.29L320.841 393.29C319.209 394.403 318.083 396.115 317.707 398.054C317.33 399.992 317.733 402.001 318.829 403.644C319.924 405.288 321.624 406.432 323.558 406.83C325.492 407.228 327.505 406.847 329.161 405.77L340.001 398.543L350.841 405.77C352.496 406.847 354.509 407.228 356.443 406.83C358.378 406.432 360.077 405.288 361.172 403.644C362.268 402.001 362.671 399.992 362.294 398.054C361.918 396.115 360.792 394.403 359.161 393.29Z" fill="#F9973E"/>
<path d="M359.161 328.29L344.161 318.29C342.929 317.469 341.481 317.031 340.001 317.031C338.52 317.031 337.072 317.469 335.841 318.29L320.841 328.29C319.209 329.403 318.083 331.115 317.707 333.054C317.33 334.992 317.733 337.001 318.829 338.644C319.924 340.288 321.624 341.432 323.558 341.83C325.492 342.228 327.505 341.847 329.161 340.77L340.001 333.543L350.841 340.77C352.496 341.847 354.509 342.228 356.443 341.83C358.378 341.432 360.077 340.288 361.172 338.644C362.268 337.001 362.671 334.992 362.294 333.054C361.918 331.115 360.792 329.403 359.161 328.29Z" fill="#F9973E"/>
<path d="M275.16 353.29L260.161 343.29C258.929 342.469 257.481 342.031 256 342.031C254.52 342.031 253.072 342.469 251.84 343.29L236.84 353.29C236.009 353.831 235.294 354.532 234.735 355.351C234.176 356.171 233.786 357.093 233.586 358.064C233.386 359.036 233.381 360.037 233.57 361.011C233.76 361.984 234.141 362.911 234.692 363.736C235.242 364.561 235.95 365.269 236.776 365.819C237.601 366.368 238.528 366.749 239.501 366.938C240.475 367.127 241.477 367.121 242.448 366.921C243.419 366.72 244.341 366.329 245.161 365.77L256 358.543L266.84 365.77C268.496 366.847 270.509 367.228 272.443 366.83C274.377 366.432 276.077 365.288 277.172 363.644C278.268 362.001 278.671 359.992 278.294 358.054C277.918 356.115 276.792 354.403 275.16 353.29Z" fill="#F9973E"/>
<path d="M275.16 288.29L260.161 278.29C258.929 277.469 257.481 277.031 256 277.031C254.52 277.031 253.072 277.469 251.84 278.29L236.84 288.29C236.009 288.831 235.294 289.532 234.735 290.351C234.176 291.171 233.786 292.093 233.586 293.064C233.386 294.036 233.381 295.037 233.57 296.011C233.76 296.984 234.141 297.911 234.692 298.736C235.242 299.561 235.95 300.269 236.776 300.819C237.601 301.368 238.528 301.749 239.501 301.938C240.475 302.127 241.477 302.121 242.448 301.921C243.419 301.72 244.341 301.329 245.161 300.77L256 293.543L266.84 300.77C268.496 301.847 270.509 302.228 272.443 301.83C274.377 301.432 276.077 300.288 277.172 298.644C278.268 297.001 278.671 294.992 278.294 293.054C277.918 291.115 276.792 289.403 275.16 288.29Z" fill="#F9973E"/>
<path d="M275.16 443.29L260.161 433.29C258.929 432.469 257.481 432.031 256 432.031C254.52 432.031 253.072 432.469 251.84 433.29L236.84 443.29C236.009 443.831 235.294 444.532 234.735 445.351C234.176 446.171 233.786 447.093 233.586 448.064C233.386 449.036 233.381 450.037 233.57 451.011C233.76 451.984 234.141 452.911 234.692 453.736C235.242 454.561 235.95 455.269 236.776 455.819C237.601 456.368 238.528 456.749 239.501 456.938C240.475 457.127 241.477 457.121 242.448 456.921C243.419 456.72 244.341 456.329 245.161 455.77L256 448.543L266.84 455.77C268.496 456.847 270.509 457.228 272.443 456.83C274.377 456.432 276.077 455.288 277.172 453.644C278.268 452.001 278.671 449.992 278.294 448.054C277.918 446.115 276.792 444.403 275.16 443.29Z" fill="#F9973E"/>
</svg>
