<svg width="512" height="512" viewBox="0 0 512 512" fill="none" xmlns="http://www.w3.org/2000/svg">
<path d="M459.025 199.172C472.166 186.031 480.098 156.793 466.957 143.652C458.046 134.741 441.739 135.526 428.063 141.052C429.434 136.058 429.633 130.816 428.646 125.732C427.658 120.649 425.511 115.862 422.371 111.744C419.23 107.626 415.182 104.289 410.541 101.992C405.9 99.6948 400.792 98.4998 395.613 98.5C377.029 98.5 350.746 113.566 350.746 132.15C350.809 136.246 351.991 140.247 354.163 143.72H326.106V284.42H447.606V275.7C466.191 275.7 481.256 249.417 481.256 230.833C481.256 223.911 479.121 217.158 475.144 211.493C471.166 205.828 465.54 201.527 459.029 199.175L459.025 199.172Z" fill="#D34459"/>
<path d="M481.789 279.511C478.082 274.259 472.799 270.325 466.705 268.279C460.611 266.233 454.024 266.182 447.898 268.132L424.143 275.7L419.695 255.361C418.213 248.583 414.817 242.373 409.912 237.468C405.006 232.562 398.796 229.166 392.018 227.684L371.679 223.236L377.996 203.397C380.101 196.786 380.266 189.711 378.47 183.009C376.675 176.308 372.995 170.263 367.866 165.59L352.476 151.568L367.423 137.95C371.957 133.884 375.413 128.758 377.48 123.03C379.548 117.302 380.163 111.15 379.271 105.126C378.221 98.439 375.323 92.1789 370.903 87.0524C366.482 81.926 360.717 78.1376 354.257 76.115C347.997 74.157 341.606 72.5033 335.082 71.154C333.363 70.8078 331.745 70.0785 330.347 69.0201C328.949 67.9618 327.808 66.6018 327.008 65.0413C326.208 63.4808 325.771 61.7601 325.729 60.0072C325.686 58.2543 326.039 56.5144 326.762 54.917C335.735 35.195 316.042 14.617 297.162 23.994L282.727 31.163L277.372 15.429C275.894 10.9618 273.052 7.07061 269.246 4.30293C265.44 1.53525 260.863 0.030364 256.157 0C247.394 0 238.92 5.443 235.52 15.431L230.165 31.165L215.73 24C196.853 14.625 177.16 35.2 186.13 54.923V54.928C186.88 56.5781 187.251 58.3747 187.217 60.1866C187.184 61.9985 186.746 63.78 185.936 65.4012C185.126 67.0223 183.964 68.4421 182.535 69.5569C181.106 70.6717 179.447 71.4534 177.677 71.845C81.0034 93.425 11.7094 184.576 22.0154 287.634L24.8824 316.3C29.8339 365.817 53.0081 411.728 89.9061 445.12C126.804 478.511 174.793 497.001 224.557 497H291.357C296.901 497 302.392 496.76 307.83 496.317C354.595 492.463 398.53 472.342 431.998 439.454C465.466 406.566 486.351 362.99 491.022 316.3L491.147 315.045C492.221 304.312 488.01 288.32 481.789 279.508V279.511Z" fill="#EA5B70"/>
<path d="M181.605 274.769C184.505 229.549 200.585 186.168 227.86 149.983C255.135 113.798 292.411 86.3944 335.084 71.155C333.366 70.8088 331.747 70.0795 330.349 69.0211C328.951 67.9628 327.81 66.6028 327.01 65.0423C326.21 63.4818 325.773 61.7611 325.731 60.0082C325.688 58.2553 326.041 56.5154 326.764 54.918C335.737 35.2 316.044 14.62 297.167 24L282.732 31.169L277.377 15.43C275.899 10.9618 273.056 7.06983 269.249 4.30189C265.443 1.53394 260.864 0.0293915 256.157 0C247.392 0 238.921 5.441 235.52 15.431L230.165 31.165L215.73 24C196.853 14.625 177.16 35.2 186.13 54.923V54.928C186.88 56.5781 187.251 58.3747 187.217 60.1866C187.184 61.9985 186.746 63.78 185.936 65.4012C185.126 67.0223 183.964 68.4421 182.535 69.5569C181.106 70.6717 179.447 71.4534 177.677 71.845C81.0034 93.425 11.7094 184.576 22.0154 287.634L24.8824 316.3C29.8339 365.817 53.0081 411.728 89.9061 445.12C126.804 478.511 174.793 497.001 224.557 497H291.357C296.901 497 302.392 496.76 307.83 496.317C267.451 475.753 233.979 443.813 211.548 404.442C189.116 365.07 178.707 319.99 181.605 274.769Z" fill="#D34459"/>
</svg>
