<svg width="512" height="512" viewBox="0 0 512 512" fill="none" xmlns="http://www.w3.org/2000/svg">
<path d="M256.5 8C250.533 8 244.81 10.3705 240.59 14.5901C236.37 18.8097 234 24.5326 234 30.5V119.108H279V30.5C279 24.5326 276.629 18.8097 272.41 14.5901C268.19 10.3705 262.467 8 256.5 8V8Z" fill="#00B27A"/>
<path d="M299.042 109.537L283.96 116.706L278.36 100.972C271.043 80.397 241.946 80.397 234.629 100.972L229.029 116.706L213.947 109.537C194.225 100.162 173.647 120.737 183.024 140.46L190.193 155.542L256.488 215.542L322.788 155.542L329.957 140.461C339.334 120.737 318.757 100.161 299.036 109.537H299.042Z" fill="#00CE8E"/>
<path d="M433 290.886C432.98 275.142 426.978 259.994 416.209 248.51C405.44 237.025 390.71 230.061 375 229.029C377.553 221.138 378.497 212.814 377.776 204.551C377.054 196.289 374.683 188.254 370.801 180.925C366.92 173.595 361.607 167.118 355.178 161.878C348.749 156.638 341.333 152.741 333.371 150.418C325.409 148.095 317.062 147.393 308.823 148.353C300.585 149.313 292.623 151.917 285.409 156.009C278.194 160.102 271.875 165.6 266.823 172.178C261.772 178.757 258.091 186.282 256 194.308C245.626 154.8 200.55 135.742 165 156.272C152.697 163.367 143.204 174.473 138.111 187.73C133.018 200.988 132.633 215.593 137.021 229.1C122.118 230.298 108.15 236.842 97.6915 247.526C87.2327 258.21 80.9875 272.314 80.1067 287.239C79.226 302.164 83.769 316.904 92.8987 328.744C102.028 340.584 115.129 348.725 129.788 351.668C123.609 364.852 122.308 379.8 126.114 393.854C134.271 424.292 163.626 439.231 194.193 439.231C191.478 475.6 220.873 505 256.5 505C292.173 505 320.495 475.56 317.81 439.274C347.657 439.274 377.672 424.512 385.886 393.858C389.675 379.864 388.4 364.982 382.286 351.837C396.519 349.184 409.378 341.64 418.639 330.511C427.899 319.381 432.979 305.365 433 290.886Z" fill="#EA5B70"/>
<path d="M251.253 181.8C244.167 167.903 232.103 157.187 217.467 151.788C202.83 146.39 186.698 146.707 172.284 152.675C157.871 158.643 146.237 169.824 139.701 183.989C133.166 198.153 132.208 214.261 137.021 229.1C122.118 230.298 108.15 236.842 97.6915 247.526C87.2327 258.21 80.9875 272.314 80.1067 287.239C79.226 302.164 83.769 316.904 92.8987 328.744C102.028 340.584 115.129 348.725 129.788 351.668C123.609 364.852 122.308 379.8 126.114 393.854C134.271 424.292 163.626 439.231 194.193 439.231C191.478 475.6 220.873 505 256.5 505C292.173 505 320.495 475.56 317.81 439.274C284.783 439.274 254.27 424.296 246.11 393.858C242.304 379.804 243.605 364.856 249.784 351.672C235.122 348.732 222.017 340.591 212.885 328.75C203.753 316.909 199.208 302.166 200.09 287.238C200.971 272.311 207.219 258.205 217.681 247.521C228.143 236.836 242.115 230.294 257.021 229.1C253.359 217.837 253.004 205.759 256 194.3C254.842 189.984 253.252 185.796 251.253 181.8Z" fill="#D34459"/>
</svg>
