<svg width="512" height="512" viewBox="0 0 512 512" fill="none" xmlns="http://www.w3.org/2000/svg">
<path d="M325.609 128.656C292.148 113.174 254.498 109.226 218.554 117.43C182.61 125.635 150.401 145.528 126.972 173.995C103.543 202.462 90.2168 237.895 89.0794 274.746C87.9419 311.597 99.058 347.785 120.687 377.643L188.148 470.579C195.874 481.238 206.015 489.914 217.741 495.897C229.467 501.88 242.444 504.999 255.609 504.999C268.773 504.999 281.75 501.88 293.476 495.897C305.202 489.914 315.344 481.238 323.07 470.579L325.609 467.079L390.53 377.641C404.957 357.721 414.797 334.854 419.343 310.681C423.889 286.509 423.028 261.63 416.822 237.829C410.616 214.029 399.219 191.897 383.449 173.021C367.679 154.146 347.926 138.995 325.609 128.656Z" fill="#FF7B94"/>
<path d="M337.795 450.293C315.536 441.554 296.243 426.627 282.195 407.275L260.686 377.643C246.258 357.723 236.418 334.856 231.872 310.683C227.326 286.51 228.187 261.63 234.393 237.829C240.599 214.028 251.996 191.896 267.767 173.021C283.537 154.145 303.291 138.995 325.609 128.656C303.536 118.425 279.484 113.172 255.156 113.269C163.749 113.513 89.074 188.334 89.001 279.741C88.9173 314.908 100.013 349.192 120.687 377.641L188.148 470.577C195.874 481.236 206.016 489.912 217.742 495.895C229.468 501.878 242.445 504.997 255.609 504.997C268.774 504.997 281.751 501.878 293.477 495.895C305.203 489.912 315.345 481.236 323.071 470.577L325.61 467.077L337.795 450.293Z" fill="#EA5B70"/>
<path d="M255.609 8C249.641 8 243.918 10.3705 239.699 14.5901C235.479 18.8097 233.109 24.5326 233.109 30.5V119.108H278.109V30.5C278.109 24.5326 275.738 18.8097 271.519 14.5901C267.299 10.3705 261.576 8 255.609 8V8Z" fill="#00B27A"/>
<path d="M353.461 125.355C324.276 106.587 290.309 96.608 255.611 96.608C220.912 96.608 186.945 106.587 157.761 125.355C134.353 140.455 164.468 176.767 194.834 162.332L216.381 152.09L224.374 174.569C226.346 180.369 229.922 185.492 234.687 189.343C239.451 193.194 245.21 195.616 251.295 196.329C265.638 198.141 281.045 190.898 286.851 174.569L294.845 152.09L316.392 162.333C346.76 176.769 376.876 140.456 353.464 125.355H353.461Z" fill="#00CE8E"/>
<path d="M316.462 107.108C290.374 97.8175 262.503 94.6315 234.992 97.7949C207.48 100.958 181.06 110.387 157.762 125.356C134.354 140.456 164.469 176.768 194.835 162.333L216.382 152.091L224.375 174.57C226.347 180.37 229.923 185.493 234.688 189.344C239.452 193.195 245.211 195.617 251.296 196.33C252.331 176.74 259.044 157.873 270.615 142.031C282.185 126.189 298.115 114.055 316.462 107.108Z" fill="#00B27A"/>
<path d="M145.609 241.5C153.893 241.5 160.609 232.546 160.609 221.5C160.609 210.454 153.893 201.5 145.609 201.5C137.325 201.5 130.609 210.454 130.609 221.5C130.609 232.546 137.325 241.5 145.609 241.5Z" fill="#FFCE71"/>
<path d="M218.942 251.5C227.226 251.5 233.942 242.546 233.942 231.5C233.942 220.454 227.226 211.5 218.942 211.5C210.658 211.5 203.942 220.454 203.942 231.5C203.942 242.546 210.658 251.5 218.942 251.5Z" fill="#FFCE71"/>
<path d="M292.276 251.5C300.56 251.5 307.276 242.546 307.276 231.5C307.276 220.454 300.56 211.5 292.276 211.5C283.992 211.5 277.276 220.454 277.276 231.5C277.276 242.546 283.992 251.5 292.276 251.5Z" fill="#FCE3A0"/>
<path d="M365.609 241.5C373.893 241.5 380.609 232.546 380.609 221.5C380.609 210.454 373.893 201.5 365.609 201.5C357.325 201.5 350.609 210.454 350.609 221.5C350.609 232.546 357.325 241.5 365.609 241.5Z" fill="#FCE3A0"/>
<path d="M218.942 472.5C227.226 472.5 233.942 463.546 233.942 452.5C233.942 441.454 227.226 432.5 218.942 432.5C210.658 432.5 203.942 441.454 203.942 452.5C203.942 463.546 210.658 472.5 218.942 472.5Z" fill="#FFCE71"/>
<path d="M292.276 472.5C300.56 472.5 307.276 463.546 307.276 452.5C307.276 441.454 300.56 432.5 292.276 432.5C283.992 432.5 277.276 441.454 277.276 452.5C277.276 463.546 283.992 472.5 292.276 472.5Z" fill="#FFCE71"/>
<path d="M182.276 412.5C190.56 412.5 197.276 403.546 197.276 392.5C197.276 381.454 190.56 372.5 182.276 372.5C173.992 372.5 167.276 381.454 167.276 392.5C167.276 403.546 173.992 412.5 182.276 412.5Z" fill="#FFCE71"/>
<path d="M255.609 422.5C263.893 422.5 270.609 413.546 270.609 402.5C270.609 391.454 263.893 382.5 255.609 382.5C247.325 382.5 240.609 391.454 240.609 402.5C240.609 413.546 247.325 422.5 255.609 422.5Z" fill="#FFCE71"/>
<path d="M328.942 412.5C337.226 412.5 343.942 403.546 343.942 392.5C343.942 381.454 337.226 372.5 328.942 372.5C320.658 372.5 313.942 381.454 313.942 392.5C313.942 403.546 320.658 412.5 328.942 412.5Z" fill="#FCE3A0"/>
<path d="M133.942 323C142.226 323 148.942 314.046 148.942 303C148.942 291.954 142.226 283 133.942 283C125.658 283 118.942 291.954 118.942 303C118.942 314.046 125.658 323 133.942 323Z" fill="#FFCE71"/>
<path d="M255.609 273C247.325 273 240.609 281.954 240.609 293C240.609 304.046 247.325 313 255.609 313C263.893 313 270.609 304.046 270.609 293C270.609 281.954 263.893 273 255.609 273Z" fill="#FCE3A0"/>
<path d="M377.276 323C385.56 323 392.276 314.046 392.276 303C392.276 291.954 385.56 283 377.276 283C368.992 283 362.276 291.954 362.276 303C362.276 314.046 368.992 323 377.276 323Z" fill="#FCE3A0"/>
</svg>
