<svg xmlns="http://www.w3.org/2000/svg" width="512" height="512" fill="none"><g clip-path="url(#a)"><path fill="#8DAEE1" d="M369.681 474.25c15.014 0 26.122-13.951 22.797-28.592-13.779-60.691-70.519-106.167-138.42-106.167-67.901 0-124.64 45.475-138.42 106.167-3.324 14.642 7.783 28.592 22.797 28.592h231.246Z"/><path fill="#FFD3BD" d="M68.289 272.455c29.817-7.048 48.275-36.934 41.227-66.751-7.049-29.817-36.934-48.275-66.751-41.227-29.817 7.049-48.275 36.934-41.227 66.751 7.048 29.817 36.934 48.275 66.75 41.227Z"/><path fill="#FFBE9D" d="M510.559 231.465c7.049-29.817-11.409-59.703-41.226-66.751-29.818-7.048-59.703 11.41-66.751 41.227-7.049 29.817 11.409 59.702 41.227 66.751 29.817 7.048 59.702-11.41 66.75-41.227Z"/><path fill="#FFD3BD" d="M256 399.32c109.928 0 199.042-80.94 199.042-180.785S365.928 37.75 256 37.75 56.958 118.69 56.958 218.535 146.072 399.32 256 399.32Z"/><path fill="#FFBE9D" d="M338.986 382.896c-216.26-5.246-227.561-234.492-174.993-324.7-63.609 30.174-107.035 90.646-107.035 160.34 0 99.845 89.114 180.786 199.042 180.786 29.62-.001 57.724-5.887 82.986-16.426Z"/><path fill="#4E5660" d="M444.524 160.398C417.871 89.074 343.535 37.75 256 37.75S94.129 89.074 67.476 160.398c67.348 3.362 166.742-19.955 188.524-57.156 21.783 37.201 121.177 60.518 188.524 57.156Z"/><path fill="#383C43" d="M138.087 155.893c1.946-38.016 11.542-73.05 25.91-97.703-45.049 21.368-79.975 57.931-96.521 102.209 21.465 1.071 46.185-.572 70.611-4.506Z"/><path fill="#E7889D" d="M157.84 300.904c20.003 0 36.219-12.914 36.219-28.843 0-15.93-16.216-28.843-36.219-28.843s-36.219 12.913-36.219 28.843c0 15.929 16.216 28.843 36.219 28.843Zm196.32.17c20.003 0 36.219-12.914 36.219-28.843 0-15.93-16.216-28.843-36.219-28.843s-36.219 12.913-36.219 28.843c0 15.929 16.216 28.843 36.219 28.843Z"/><path fill="#4E5660" d="M178.974 251.63h-.006a7.5 7.5 0 0 1-7.494-7.505l.011-14.456a7.5 7.5 0 0 1 7.5-7.495h.006a7.5 7.5 0 0 1 7.494 7.505l-.011 14.456a7.5 7.5 0 0 1-7.5 7.495Zm154.102.151h-.006a7.5 7.5 0 0 1-7.494-7.505l.011-14.456a7.5 7.5 0 0 1 7.5-7.495h.006a7.5 7.5 0 0 1 7.494 7.505l-.011 14.456a7.5 7.5 0 0 1-7.5 7.495Zm-56.743 6.359h-.007l-40.629-.035a7.5 7.5 0 0 1 .007-15h.007l40.629.035a7.5 7.5 0 0 1-.007 15Zm-20.314 144.628a7.5 7.5 0 0 1-7.5-7.5v-64.88a7.5 7.5 0 0 1 7.5-7.5 7.5 7.5 0 0 1 7.5 7.5v64.88a7.5 7.5 0 0 1-7.5 7.5Z"/><path fill="#F6EE86" d="M262.192 421.075c14.342-3.39 23.221-17.765 19.83-32.108-3.39-14.342-17.765-23.221-32.108-19.83-14.342 3.39-23.221 17.765-19.83 32.108 3.39 14.342 17.765 23.221 32.108 19.83Z"/><path fill="#4E5660" d="M193.102 183.132a7.5 7.5 0 0 1-7.5-7.5v-59.256a7.5 7.5 0 0 1 15 0v59.256a7.5 7.5 0 0 1-7.5 7.5Z"/><path fill="#F6EE86" d="M199.222 142.269c14.343-3.391 23.221-17.766 19.831-32.108-3.39-14.343-17.766-23.221-32.108-19.831-14.343 3.39-23.221 17.766-19.831 32.108 3.391 14.343 17.766 23.221 32.108 19.831Z"/><path fill="#4E5660" d="M62.895 385.385a7.5 7.5 0 0 1-5.304-12.804l62.647-62.648a7.5 7.5 0 0 1 10.607 10.606l-62.648 62.648a7.47 7.47 0 0 1-5.302 2.198Z"/><path fill="#98CD64" d="M62.894 404.575c14.74 0 26.69-11.949 26.69-26.69 0-14.74-11.95-26.69-26.69-26.69-14.74 0-26.69 11.95-26.69 26.69 0 14.741 11.95 26.69 26.69 26.69Z"/><path fill="#4E5660" d="M449.143 385.385a7.476 7.476 0 0 1-5.304-2.197l-62.647-62.648a7.5 7.5 0 0 1 10.607-10.606l62.647 62.648a7.5 7.5 0 0 1-5.303 12.803Z"/><path fill="#A2DDFD" d="M449.143 404.575c14.74 0 26.69-11.949 26.69-26.69 0-14.74-11.95-26.69-26.69-26.69-14.74 0-26.69 11.95-26.69 26.69 0 14.741 11.95 26.69 26.69 26.69Z"/><path fill="#4E5660" d="M112.718 214.849a7.476 7.476 0 0 1-5.304-2.197l-49.75-49.751a7.5 7.5 0 0 1 10.607-10.606l49.75 49.751a7.5 7.5 0 0 1-5.303 12.803Z"/><path fill="#A2DDFD" d="M62.967 184.288c14.74 0 26.69-11.949 26.69-26.69 0-14.74-11.95-26.69-26.69-26.69-14.74 0-26.69 11.95-26.69 26.69 0 14.741 11.95 26.69 26.69 26.69Z"/><path fill="#4E5660" d="M318.934 183.132a7.5 7.5 0 0 1-7.5-7.5v-59.256a7.5 7.5 0 0 1 7.5-7.5 7.5 7.5 0 0 1 7.5 7.5v59.256a7.5 7.5 0 0 1-7.5 7.5Z"/><path fill="#E7889D" d="M344.954 122.622c3.39-14.342-5.488-28.717-19.831-32.108-14.342-3.39-28.717 5.489-32.108 19.831-3.39 14.343 5.488 28.718 19.831 32.108 14.342 3.39 28.718-5.488 32.108-19.831Z"/><path fill="#4E5660" d="M399.319 214.849a7.5 7.5 0 0 1-5.304-12.804l49.75-49.751a7.501 7.501 0 0 1 10.607 0 7.5 7.5 0 0 1 0 10.606l-49.75 49.751a7.475 7.475 0 0 1-5.303 2.198Z"/><path fill="#8DAEE1" d="M449.069 184.288c14.74 0 26.69-11.949 26.69-26.69 0-14.74-11.95-26.69-26.69-26.69-14.741 0-26.69 11.95-26.69 26.69 0 14.741 11.949 26.69 26.69 26.69Z"/></g><defs><clipPath id="a"><path fill="#fff" d="M0 0h512v512H0z"/></clipPath></defs></svg>