<svg width="512" height="512" viewBox="0 0 512 512" fill="none" xmlns="http://www.w3.org/2000/svg">
<g clip-path="url(#clip0)">
<path d="M369.681 474.25C384.695 474.25 395.803 460.299 392.478 445.658C378.699 384.967 321.959 339.491 254.058 339.491C186.157 339.491 129.418 384.966 115.638 445.658C112.314 460.3 123.421 474.25 138.435 474.25H369.681Z" fill="#8DAEE1"/>
<path d="M68.2889 272.455C98.1061 265.407 116.564 235.521 109.516 205.704C102.467 175.887 72.5821 157.429 42.7649 164.477C12.9477 171.526 -5.51022 201.411 1.53804 231.228C8.58631 261.045 38.4717 279.503 68.2889 272.455Z" fill="#FFD3BD"/>
<path d="M510.559 231.465C517.608 201.648 499.15 171.762 469.333 164.714C439.515 157.666 409.63 176.124 402.582 205.941C395.533 235.758 413.991 265.643 443.809 272.692C473.626 279.74 503.511 261.282 510.559 231.465Z" fill="#FFBE9D"/>
<path d="M256 399.32C365.928 399.32 455.042 318.38 455.042 218.535C455.042 118.69 365.928 37.75 256 37.75C146.072 37.75 56.958 118.69 56.958 218.535C56.958 318.38 146.072 399.32 256 399.32Z" fill="#FFD3BD"/>
<path d="M338.986 382.896C122.726 377.65 111.425 148.404 163.993 58.1963C100.384 88.3703 56.958 148.842 56.958 218.536C56.958 318.381 146.072 399.322 256 399.322C285.62 399.321 313.724 393.435 338.986 382.896Z" fill="#FFBE9D"/>
<path d="M444.524 160.398C417.871 89.074 343.535 37.75 256 37.75C168.465 37.75 94.129 89.074 67.476 160.398C134.824 163.76 234.218 140.443 256 103.242C277.783 140.443 377.177 163.76 444.524 160.398Z" fill="#4E5660"/>
<path d="M138.087 155.893C140.033 117.877 149.629 82.8425 163.997 58.1895C118.948 79.5575 84.022 116.121 67.476 160.399C88.941 161.47 113.661 159.827 138.087 155.893Z" fill="#383C43"/>
<path d="M157.84 300.904C177.843 300.904 194.059 287.99 194.059 272.061C194.059 256.131 177.843 243.218 157.84 243.218C137.837 243.218 121.621 256.131 121.621 272.061C121.621 287.99 137.837 300.904 157.84 300.904Z" fill="#E7889D"/>
<path d="M354.16 301.074C374.163 301.074 390.379 288.16 390.379 272.231C390.379 256.301 374.163 243.388 354.16 243.388C334.157 243.388 317.941 256.301 317.941 272.231C317.941 288.16 334.157 301.074 354.16 301.074Z" fill="#E7889D"/>
<path d="M178.974 251.63C178.972 251.63 178.97 251.63 178.968 251.63C174.826 251.627 171.471 248.267 171.474 244.125L171.485 229.669C171.488 225.529 174.845 222.174 178.985 222.174H178.991C183.133 222.177 186.488 225.537 186.485 229.679L186.474 244.135C186.471 248.276 183.113 251.63 178.974 251.63Z" fill="#4E5660"/>
<path d="M333.076 251.781C333.074 251.781 333.072 251.781 333.07 251.781C328.928 251.778 325.573 248.418 325.576 244.276L325.587 229.82C325.59 225.68 328.947 222.325 333.087 222.325H333.093C337.235 222.328 340.59 225.688 340.587 229.83L340.576 244.286C340.573 248.426 337.216 251.781 333.076 251.781Z" fill="#4E5660"/>
<path d="M276.333 258.14C276.331 258.14 276.329 258.14 276.326 258.14L235.697 258.105C231.555 258.102 228.2 254.741 228.204 250.599C228.208 246.459 231.565 243.105 235.704 243.105H235.711L276.34 243.14C280.482 243.143 283.837 246.504 283.833 250.646C283.829 254.787 280.472 258.14 276.333 258.14Z" fill="#4E5660"/>
<path d="M256.019 402.768C251.876 402.768 248.519 399.41 248.519 395.268V330.388C248.519 326.246 251.876 322.888 256.019 322.888C260.162 322.888 263.519 326.246 263.519 330.388V395.268C263.519 399.41 260.161 402.768 256.019 402.768Z" fill="#4E5660"/>
<path d="M262.192 421.075C276.534 417.685 285.413 403.31 282.022 388.967C278.632 374.625 264.257 365.746 249.914 369.137C235.572 372.527 226.693 386.902 230.084 401.245C233.474 415.587 247.849 424.466 262.192 421.075Z" fill="#F6EE86"/>
<path d="M193.102 183.132C188.96 183.132 185.602 179.774 185.602 175.632V116.376C185.602 112.234 188.96 108.876 193.102 108.876C197.245 108.876 200.602 112.234 200.602 116.376V175.632C200.602 179.774 197.245 183.132 193.102 183.132Z" fill="#4E5660"/>
<path d="M199.222 142.269C213.565 138.878 222.443 124.503 219.053 110.161C215.663 95.8182 201.287 86.9397 186.945 90.33C172.602 93.7204 163.724 108.096 167.114 122.438C170.505 136.781 184.88 145.659 199.222 142.269Z" fill="#F6EE86"/>
<path d="M62.895 385.385C60.976 385.385 59.056 384.652 57.591 383.188C54.662 380.259 54.662 375.51 57.591 372.581L120.238 309.933C123.168 307.004 127.916 307.004 130.845 309.933C133.774 312.862 133.774 317.611 130.845 320.539L68.197 383.187C66.733 384.653 64.813 385.385 62.895 385.385Z" fill="#4E5660"/>
<path d="M62.894 404.575C77.6345 404.575 89.584 392.626 89.584 377.885C89.584 363.145 77.6345 351.195 62.894 351.195C48.1535 351.195 36.204 363.145 36.204 377.885C36.204 392.626 48.1535 404.575 62.894 404.575Z" fill="#98CD64"/>
<path d="M449.143 385.385C447.223 385.385 445.304 384.653 443.839 383.188L381.192 320.54C378.263 317.611 378.263 312.862 381.192 309.934C384.122 307.005 388.87 307.005 391.799 309.934L454.446 372.582C457.375 375.511 457.375 380.26 454.446 383.189C452.981 384.653 451.061 385.385 449.143 385.385Z" fill="#4E5660"/>
<path d="M449.143 404.575C463.883 404.575 475.833 392.626 475.833 377.885C475.833 363.145 463.883 351.195 449.143 351.195C434.403 351.195 422.453 363.145 422.453 377.885C422.453 392.626 434.403 404.575 449.143 404.575Z" fill="#A2DDFD"/>
<path d="M112.718 214.849C110.798 214.849 108.879 214.117 107.414 212.652L57.664 162.901C54.735 159.972 54.735 155.223 57.664 152.295C60.595 149.366 65.343 149.366 68.271 152.295L118.021 202.046C120.95 204.975 120.95 209.724 118.021 212.653C116.557 214.116 114.637 214.849 112.718 214.849Z" fill="#4E5660"/>
<path d="M62.967 184.288C77.7075 184.288 89.657 172.339 89.657 157.598C89.657 142.858 77.7075 130.908 62.967 130.908C48.2265 130.908 36.277 142.858 36.277 157.598C36.277 172.339 48.2265 184.288 62.967 184.288Z" fill="#A2DDFD"/>
<path d="M318.934 183.132C314.791 183.132 311.434 179.774 311.434 175.632V116.376C311.434 112.234 314.791 108.876 318.934 108.876C323.077 108.876 326.434 112.234 326.434 116.376V175.632C326.434 179.774 323.076 183.132 318.934 183.132Z" fill="#4E5660"/>
<path d="M344.954 122.622C348.344 108.28 339.466 93.9047 325.123 90.5144C310.781 87.1241 296.406 96.0026 293.015 110.345C289.625 124.688 298.503 139.063 312.846 142.453C327.188 145.843 341.564 136.965 344.954 122.622Z" fill="#E7889D"/>
<path d="M399.319 214.849C397.399 214.849 395.48 214.117 394.015 212.652C391.086 209.723 391.086 204.974 394.015 202.045L443.765 152.294C446.696 149.365 451.444 149.366 454.372 152.294C457.301 155.223 457.301 159.972 454.372 162.9L404.622 212.651C403.158 214.116 401.238 214.849 399.319 214.849Z" fill="#4E5660"/>
<path d="M449.069 184.288C463.809 184.288 475.759 172.339 475.759 157.598C475.759 142.858 463.809 130.908 449.069 130.908C434.328 130.908 422.379 142.858 422.379 157.598C422.379 172.339 434.328 184.288 449.069 184.288Z" fill="#8DAEE1"/>
</g>
<defs>
<clipPath id="clip0">
<rect width="512" height="512" fill="white"/>
</clipPath>
</defs>
</svg>
