<svg xmlns="http://www.w3.org/2000/svg" width="512" height="512" fill="none"><g clip-path="url(#a)"><path fill="#B9E6FF" d="M401.793 510.965c11.55 0 20.558-10.129 19.073-21.583C410.285 407.759 340.505 344.711 256 344.711c-84.505 0-154.285 63.048-164.866 144.671-1.485 11.454 7.523 21.583 19.073 21.583h291.586Z"/><path fill="#8DAEE1" d="M324.564 391.037c0-37.867-30.697-68.564-68.564-68.564-37.867 0-68.564 30.697-68.564 68.564 0 37.867 30.697 57.197 68.564 57.197 37.867 0 68.564-19.33 68.564-57.197Z"/><path fill="#FFD3BD" d="M74.154 304.13c39.4 0 71.34-29.605 71.34-66.124 0-36.519-31.94-66.124-71.34-66.124-39.4 0-71.34 29.605-71.34 66.124 0 36.519 31.94 66.124 71.34 66.124Z"/><path fill="#FFBE9D" d="M437.881 304.13c39.4 0 71.34-29.605 71.34-66.124 0-36.519-31.94-66.124-71.34-66.124-39.4 0-71.34 29.605-71.34 66.124 0 36.519 31.94 66.124 71.34 66.124Z"/><path fill="#FFD3BD" d="M453.257 238.005c0 102.116-88.315 167.168-197.257 167.168-108.942 0-197.257-65.052-197.257-167.168S147.058 53.107 256 53.107c108.942 0 197.257 82.781 197.257 184.898Z"/><path fill="#FFBE9D" d="M345.032 389.003c-238.641-5.376-235.091-247.684-166.758-320.978-70.293 28.278-119.53 93.736-119.53 169.98 0 102.116 88.314 167.168 197.256 167.168 32.036.001 62.284-5.631 89.032-16.17Z"/><path fill="#EDA1AB" d="M182.058 260.243c.01 19.016-19.341 34.441-43.22 34.453-23.879.012-43.245-15.394-43.254-34.41-.01-19.016 19.341-34.442 43.22-34.454 23.878-.011 43.244 15.395 43.254 34.411Zm147.885-.074c.01 19.016 19.375 34.422 43.254 34.41 23.879-.012 43.229-15.437 43.22-34.453-.01-19.016-19.375-34.423-43.254-34.41-23.88.011-43.23 15.436-43.22 34.453Z"/><path fill="#fff" d="M298.375 274.633c-.013-26.193-18.989-28.645-42.397-28.633-23.407.012-42.381 2.482-42.368 28.675.013 26.193 18.999 47.416 42.406 47.404 23.407-.01 42.372-21.253 42.359-47.446Z"/><path fill="#4E5660" d="M143.42 230.294a7.5 7.5 0 0 1-7.5-7.496c-.004-7.5 2.913-14.553 8.214-19.859 5.301-5.307 12.351-8.231 19.851-8.235h.014c15.478 0 28.073 12.587 28.081 28.066a7.5 7.5 0 0 1-7.496 7.504h-.004a7.5 7.5 0 0 1-7.5-7.496c-.004-7.21-5.871-13.074-13.081-13.074h-.006a12.997 12.997 0 0 0-9.247 3.836 12.994 12.994 0 0 0-3.826 9.251 7.5 7.5 0 0 1-7.496 7.504l-.004-.001Zm183.962-.092a7.5 7.5 0 0 1-7.5-7.497c-.003-7.5 2.914-14.553 8.214-19.859 5.301-5.307 12.351-8.231 19.852-8.234h.015c15.477 0 28.071 12.587 28.079 28.065a7.5 7.5 0 0 1-7.496 7.504h-.004a7.5 7.5 0 0 1-7.5-7.496c-.004-7.21-5.871-13.073-13.08-13.073h-.007a12.994 12.994 0 0 0-9.247 3.836 13 13 0 0 0-3.827 9.251 7.5 7.5 0 0 1-7.497 7.503h-.002Z"/><path fill="#81DCD9" d="m48.15 83.205-5.244 12.514c-2.88 6.872-12.615 6.872-15.495 0l-5.244-12.514a8.4 8.4 0 0 0-4.501-4.501L5.154 73.46c-6.872-2.879-6.872-12.615 0-15.495l12.514-5.244a8.4 8.4 0 0 0 4.501-4.501l5.244-12.514c2.879-6.871 12.615-6.871 15.495 0l5.244 12.514a8.4 8.4 0 0 0 4.501 4.501l12.514 5.244c6.871 2.88 6.871 12.615 0 15.495l-12.514 5.244a8.4 8.4 0 0 0-4.503 4.501Z"/><path fill="#4E5660" d="M244.718 5.254a17.193 17.193 0 0 1 22.563 0c31.697 27.525 86.071 38.19 119.777 63.32 48.974 36.515 67.951 91.594 70.243 132.562.532 9.512-9.582 15.885-18.017 11.457-32.076-16.84-65.142-50.92-90.49-93.525-22.729 11.561-67.15 14.23-92.794 14.23-25.644 0-70.065-2.669-92.795-14.23-25.348 42.606-58.413 76.685-90.49 93.525-8.434 4.428-18.548-1.945-18.016-11.457 2.292-40.968 21.269-96.047 70.243-132.561 33.706-25.131 88.079-35.797 119.776-63.321Z"/><path fill="#3A4351" d="M169.963 44.465c-16.406 7.093-32.208 14.556-45.022 24.109-48.974 36.514-67.951 91.593-70.243 132.561-.532 9.511 9.582 15.885 18.017 11.457 32.076-16.84 65.142-50.919 90.489-93.525 6.197 3.152 14.012 5.638 22.613 7.594-17.705-19.564-23.392-59.267-15.854-82.196Z"/><path fill="#8BD5FD" d="m463.85 77.024 5.244 12.514c2.879 6.871 12.615 6.871 15.495 0l5.244-12.514a8.4 8.4 0 0 1 4.501-4.5l12.514-5.245c6.871-2.879 6.871-12.615 0-15.495l-12.514-5.244a8.4 8.4 0 0 1-4.501-4.5l-5.244-12.515c-2.879-6.872-12.615-6.872-15.495 0L463.85 42.04a8.4 8.4 0 0 1-4.501 4.501l-12.514 5.244c-6.871 2.88-6.871 12.615 0 15.495l12.514 5.244a8.398 8.398 0 0 1 4.501 4.5Z"/><path fill="#8DAEE1" d="M123.971 409.925c-17.333 22.615-28.993 49.808-32.837 79.457-1.485 11.454 7.523 21.583 19.073 21.583h44.412c6.489-39.152-13.843-80.061-30.648-101.04Zm264.059 0c17.333 22.615 28.993 49.808 32.837 79.457 1.485 11.454-7.523 21.583-19.073 21.583h-44.412c-6.49-39.152 13.842-80.061 30.648-101.04Z"/><path fill="#fff" d="M361.742 287.591c0-12.477-10.114-22.591-22.591-22.591-12.402 0-22.455 9.993-22.58 22.363a46.46 46.46 0 0 0-4.678-.714c-6.647-.643-13.035.139-18.904 2.071-4.593 1.51-9.599.803-13.762-1.655-7.816-4.615-16.928-7.261-26.659-7.261-13.187 0-25.233 4.867-34.452 12.899-4.235 3.687-10.129 5.052-15.497 3.4a37.766 37.766 0 0 0-4.323-1.041c-3.101-8.779-11.446-15.077-21.283-15.077-12.477 0-22.591 10.114-22.591 22.59 0 4.477 1.318 8.637 3.563 12.147a37.279 37.279 0 0 0-4.284 15.119 36.447 36.447 0 0 0-.068 2.718c-6.785-.959-13.922 1.148-19.141 6.37-8.825 8.821-8.825 23.123 0 31.948 8.821 8.821 23.124 8.821 31.948 0a22.572 22.572 0 0 0 4.601-6.693 37.7 37.7 0 0 0 20.452 5.997c3.702 0 7.279-.533 10.661-1.524 5.556-1.627 11.596-.54 15.962 3.261 9.219 8.032 21.265 12.903 34.452 12.903 9.734 0 18.847-2.647 26.662-7.265 4.185-2.469 9.212-3.141 13.834-1.627a45.745 45.745 0 0 0 14.264 2.266c26.395 0 47.586-22.289 45.774-49.071-.493-7.343-2.767-14.242-6.376-20.271 8.742-3.116 15.016-11.447 15.016-21.262Z"/><path fill="#F3E5B7" d="m191.457 355.573 7.908 44.862 124.524-21.959-7.908-44.861c-1.787-10.122-14.462-13.72-21.297-6.047l-3.446 3.869a12.302 12.302 0 0 1-15.017 2.647l-2.849-1.535c-14.107-7.599-31.586-4.515-42.244 7.45l-2.153 2.415a12.295 12.295 0 0 1-15.016 2.647l-4.558-2.455c-9.049-4.874-19.731 2.846-17.944 12.967Z"/><path fill="#E0D29D" d="M236.084 400.779a6.825 6.825 0 0 1-6.71-5.635l-4.086-23.177a6.82 6.82 0 0 1 5.532-7.9 6.818 6.818 0 0 1 7.904 5.534l4.085 23.174a6.82 6.82 0 0 1-6.725 8.004Zm51.076-9.006a6.82 6.82 0 0 1-6.711-5.635l-4.086-23.173a6.822 6.822 0 0 1 5.532-7.904c3.709-.658 7.247 1.822 7.904 5.535l4.086 23.173a6.821 6.821 0 0 1-6.725 8.004Z"/><path fill="#81DCD9" d="m25.947 476.938-9.763-3.563C3.56 468.767.645 452.23 10.93 443.583l7.954-6.686a34.022 34.022 0 0 1 15.973-7.456l289.033-50.965 5.172 29.319c1.918 10.892-5.354 21.28-16.249 23.202l-269.31 47.487a33.995 33.995 0 0 1-17.556-1.546Z"/><path fill="#6DC8DD" d="m109.944 416.215 8.65 49.039-13.436 2.37-8.65-49.04 13.436-2.369Zm38.555-6.8 8.651 49.043-13.436 2.37-8.651-49.043 13.436-2.37Z"/><path fill="#fff" d="M351.958 373.364c0 12.477-10.114 22.591-22.59 22.591-12.477 0-22.591-10.114-22.591-22.591 0-12.476 10.114-22.591 22.591-22.591 12.476 0 22.59 10.115 22.59 22.591Z"/></g><defs><clipPath id="a"><path fill="#fff" d="M0 0h512v512H0z"/></clipPath></defs></svg>