<svg xmlns="http://www.w3.org/2000/svg" width="512" height="512" fill="none"><g clip-path="url(#a)"><path fill="#FFD3BD" d="M0 394.464c0 64.351 51.542 117.58 115.892 118 64.672.425 113.728-50.515 117.386-109.584 1.784-28.81 13.367-56.329 34.25-76.256a157.83 157.83 0 0 0 49.009-116.712C315.379 124.659 245.854 55.078 160.6 53.855A158.275 158.275 0 0 0 0 212.113v182.351Z"/><path fill="#FFBE9D" d="M254.618 86.763a146.576 146.576 0 0 0 58.414 158.631 158.024 158.024 0 0 0-58.414-158.631ZM27.761 122.558a158.884 158.884 0 0 0-6.318 9.961L3.268 179.962A158.978 158.978 0 0 0 0 212.113v182.351c0 64.351 51.542 117.58 115.892 118 44.424.292 81.478-23.652 101.512-57.82C-6.572 478.858 15.768 195.485 27.761 122.558Z"/><path fill="#FFBE9D" d="M158.275 115.508a96.715 96.715 0 0 0-96.605 96.6V339.29a7.499 7.499 0 0 0 12.803 5.303 7.499 7.499 0 0 0 2.197-5.303v-48.981a47.062 47.062 0 1 1 33.911 79.687 7.497 7.497 0 0 0-7.5 7.5 7.497 7.497 0 0 0 7.5 7.5 62.067 62.067 0 0 0 61.181-51.192 62.075 62.075 0 0 0-68.176-72.545 62.074 62.074 0 0 0-26.916 9.726v-58.872a81.606 81.606 0 0 1 163.21 0 7.497 7.497 0 0 0 7.5 7.5 7.497 7.497 0 0 0 7.5-7.5 96.715 96.715 0 0 0-96.605-96.605Z"/><path fill="#F6EE86" d="M462.556 410.849a7.483 7.483 0 0 1-5.3-2.2 70.343 70.343 0 0 1 0-99.48 7.499 7.499 0 1 1 10.606 10.607 55.34 55.34 0 0 0 0 78.266 7.498 7.498 0 0 1 1.623 8.169 7.5 7.5 0 0 1-6.923 4.631l-.006.007Z"/><path fill="#7ACEFA" d="M388.55 484.856a7.49 7.49 0 0 1-5.3-2.2c-68.233-68.234-68.233-179.259 0-247.493a7.499 7.499 0 0 1 12.804 5.303c0 1.989-.79 3.897-2.197 5.304-62.386 62.385-62.386 163.894 0 226.278a7.493 7.493 0 0 1 1.623 8.169 7.507 7.507 0 0 1-6.923 4.631l-.007.008Z"/><path fill="#A0E7E7" d="M425.553 447.852a7.47 7.47 0 0 1-5.3-2.2 122.814 122.814 0 0 1 0-173.487 7.503 7.503 0 0 1 12.233 2.434 7.503 7.503 0 0 1-1.626 8.174 107.802 107.802 0 0 0 0 152.272 7.507 7.507 0 0 1 2.05 3.839 7.502 7.502 0 0 1-7.35 8.961l-.007.007Z"/><path fill="#EDA1AB" d="M396.264 240.47c63.918 0 115.735-51.816 115.735-115.735S460.182 9 396.264 9c-63.919 0-115.735 51.816-115.735 115.735S332.345 240.47 396.264 240.47Z"/><path fill="#fff" d="M419.122 95.815V62.226a6.063 6.063 0 0 0-6.063-6.063H379.47a6.063 6.063 0 0 0-6.063 6.063v33.59a6.062 6.062 0 0 1-6.063 6.062h-33.589a6.063 6.063 0 0 0-6.063 6.063v33.593a6.063 6.063 0 0 0 6.063 6.063h33.589a6.063 6.063 0 0 1 6.063 6.063v33.589a6.063 6.063 0 0 0 6.063 6.063h33.589a6.063 6.063 0 0 0 6.063-6.063v-33.595a6.063 6.063 0 0 1 6.063-6.063h33.589a6.063 6.063 0 0 0 6.063-6.063v-33.589a6.063 6.063 0 0 0-6.063-6.063h-33.589a6.063 6.063 0 0 1-6.063-6.06Z"/></g><defs><clipPath id="a"><path fill="#fff" d="M0 0h512v512H0z"/></clipPath></defs></svg>