<svg xmlns="http://www.w3.org/2000/svg" width="512" height="512" fill="none"><g clip-path="url(#a)"><path fill="#FF5E6B" d="M413.266 485.1c-20.6-23.549-74.987-98.849-36.549-202.337l-22.544-31.475-63.084 26.438S283.08 477.284 396.26 511.3a16.253 16.253 0 0 0 18.368-6.697 16.248 16.248 0 0 0-1.362-19.503Zm-219.63-192.149L145.892 237.5l-10.7 9.6a48.976 48.976 0 0 0-15.7 43.821 48.81 48.81 0 0 1-4.646 29.343c-43.642 86.488-7.62 158.706 7.616 182.991a18.668 18.668 0 0 0 24.088 6.813 18.673 18.673 0 0 0 9.758-21.607c-33.218-123.42 37.328-195.51 37.328-195.51Z"/><path fill="#E63E4C" d="M374.029 280.515c.192-.237.372-.482.559-.722l-20.418-28.505-63.081 26.439a417.845 417.845 0 0 0 1.562 46.912c1.427.122 2.867.2 4.325.2h.005a50.553 50.553 0 0 0 15.681-2.5 130.385 130.385 0 0 0 61.367-41.824Z"/><path fill="#B3B3B3" d="M350.835 237.5a176.367 176.367 0 0 0-46.615-45.944l-26.984 49.111v33.418a19.798 19.798 0 0 0 8.124 16.014 19.799 19.799 0 0 0 17.73 2.852 99.198 99.198 0 0 0 46.9-31.859 19.714 19.714 0 0 0 .845-23.592Z"/><path fill="#E63E4C" d="m145.892 237.5-10.7 9.6a48.96 48.96 0 0 0-15.672 29 50.15 50.15 0 0 0 3.176 4.42A129.498 129.498 0 0 0 174.929 319c9.914-17.053 18.706-26.047 18.706-26.047L145.892 237.5Z"/><path fill="#B3B3B3" d="M145.892 237.5a178.304 178.304 0 0 1 46.893-45.944l26.706 42.785v39.743a19.785 19.785 0 0 1-16.647 19.567 19.803 19.803 0 0 1-9.207-.701 99.203 99.203 0 0 1-46.9-31.859 19.711 19.711 0 0 1-.845-23.591Z"/><path fill="#999" d="M282.929 90.426c24.789-33.436 24.867-65.774 23-81.136a4.609 4.609 0 0 1 .399-2.512 4.608 4.608 0 0 1 4.108-2.65 4.598 4.598 0 0 1 2.452.672c85.479 52.847-8.667 176.71-8.667 176.71h-55.856l34.564-91.084Z"/><path fill="#B3B3B3" d="M192.507 0v130.077l90.422 86.349v-126A90.426 90.426 0 0 0 192.507 0Z"/><path fill="#000" d="M218.409 143.859a7.885 7.885 0 0 0 7.885-7.885 7.885 7.885 0 0 0-7.885-7.885 7.885 7.885 0 0 0-7.885 7.885 7.885 7.885 0 0 0 7.885 7.885Z"/><path fill="#999" d="m304.221 191.556-26.984 49.111v25.755h19.2a33.544 33.544 0 0 0 33.543-33.543V212.63a168.558 168.558 0 0 0-25.759-21.074Zm-134.529 18.4a77.873 77.873 0 0 0 49.8 52.367v-27.982l-26.706-42.785a171.33 171.33 0 0 0-23.094 18.4Z"/><path fill="#D9D9D9" d="M276.49 153.779h-32.175v-24.285a25.906 25.906 0 0 0-25.4-25.9c-14.52-.275-26.406 11.96-26.406 26.483v58.781a51.805 51.805 0 0 0 15.175 36.635 51.809 51.809 0 0 0 36.634 15.174h59.9v-59.158a27.73 27.73 0 0 0-27.728-27.73Z"/><path fill="#B3B3B3" d="M248.366 211.797c9.389 0 17-7.611 17-17s-7.611-17-17-17-17 7.611-17 17 7.611 17 17 17Z"/></g><defs><clipPath id="a"><path fill="#fff" d="M0 0h512v512H0z"/></clipPath></defs></svg>