<svg xmlns="http://www.w3.org/2000/svg" width="512" height="512" fill="none"><g clip-path="url(#a)"><path fill="#6A95D6" d="M288.73 268.591c1.086-15.514 14.544-27.209 30.058-26.123 22.144 1.551 91.988-9.774 119.094-23.208 13.935-6.904 30.83-1.208 37.736 12.725 6.906 13.934 1.209 30.829-12.725 37.736-37.677 18.674-117.73 31.052-148.04 28.928-15.548-1.089-27.207-14.576-26.123-30.058ZM72.176 350.559c-11.044-10.95-11.121-28.779-.172-39.823 19.57-19.74 84.212-62.423 137.995-73.622 15.232-3.173 30.139 6.602 33.309 21.827 3.171 15.225-6.602 30.138-21.827 33.309-40.65 8.465-95.996 44.534-109.482 58.137-10.939 11.035-28.769 11.132-39.823.172Z"/><path fill="#FFD3BD" d="M89.595 295.908c-7.48 5.609-13.515 10.717-17.59 14.828-10.95 11.044-10.874 28.873.171 39.823 11.054 10.959 28.884 10.862 39.823-.172 2.829-2.854 7.52-6.704 13.513-11.074l-35.917-43.405Zm55.375-124.739c15.774-15.773 15.774-41.346 0-57.12-15.773-15.773-41.346-15.773-57.12 0-15.773 15.774-15.773 41.347 0 57.12 15.774 15.774 41.347 15.774 57.12 0Z"/><path fill="#FFBE9D" d="M436.897 171.201c15.773-15.774 15.773-41.347 0-57.12-15.773-15.774-41.347-15.774-57.12 0-15.773 15.773-15.773 41.346 0 57.12 15.773 15.773 41.347 15.773 57.12 0Z"/><path fill="#8DAEE1" d="M360.493 316.693c0-60.255-43.91-109.101-98.076-109.101s-98.076 48.846-98.076 109.101 43.91 89.993 98.076 89.993 98.076-29.738 98.076-89.993Z"/><path fill="#FFD3BD" d="M322.949 253.064c-26.42 30.686-41.969 44.884-54.984 57.836a7.87 7.87 0 0 1-11.097 0c-13.015-12.952-28.564-27.15-54.984-57.836h121.065Z"/><path fill="#383C43" d="M237.56 451.871c-11.242-10.07-17.117-21.604-17.461-34.282-.369-13.599 5.607-24.772 9.46-28.619 7.481-7.471 9.876-18.102 7.194-27.602h-56.852c-9.276 14.102-16.74 34.151-16.1 57.748.536 19.775 7.249 48.788 36.182 74.706 11.636 10.422 29.435 9.344 39.764-2.186 10.376-11.586 9.397-29.388-2.187-39.765Zm82.919-90.504h-51.926c-4.384 9.342-3.458 20.756 3.365 29.413 12.419 15.758 59.818 73.995 73.072 92.779 9.002 12.757 26.586 15.704 39.243 6.773 12.707-8.966 15.739-26.536 6.773-39.243-13.32-18.879-53.425-68.3-70.527-89.722Z"/><path fill="#D1986F" d="M237.56 451.872c-3.325-2.978-6.167-6.087-8.549-9.313l-45.692 32.979c4.507 6.158 9.988 12.304 16.664 18.284 11.636 10.422 29.435 9.344 39.764-2.186 10.376-11.585 9.397-29.387-2.187-39.764Zm153.447-.782c-3.27-4.634-8.161-11.117-13.924-18.568l-46.008 32.567c5.899 7.597 10.835 14.106 13.915 18.47 9.002 12.757 26.586 15.704 39.243 6.773 12.708-8.966 15.74-26.535 6.774-39.242Z"/><path fill="#4E5660" d="M170.07 351.246c13.577 37.083 49.794 55.44 92.346 55.44 42.552 0 78.769-18.357 92.346-55.44H170.07Z"/><path fill="#FFD3BD" d="M262.417 274.229c80.031 0 144.908-58.927 144.908-131.617S342.448 10.995 262.417 10.995c-80.03 0-144.908 58.927-144.908 131.617s64.878 131.617 144.908 131.617Z"/><path fill="#FFBE9D" d="M322.832 262.271c-157.443-3.819-165.67-170.717-127.4-236.391-46.309 21.967-77.924 65.993-77.924 116.732 0 72.69 64.878 131.617 144.908 131.617 21.565-.001 42.025-4.285 60.416-11.958Z"/><path fill="#E7889D" d="M210.978 181.624c0 13.229-13.466 23.953-30.078 23.953-16.612 0-30.078-10.724-30.078-23.953s13.467-23.953 30.078-23.953c16.611 0 30.078 10.724 30.078 23.953Zm102.877 0c0 13.229 13.466 23.953 30.078 23.953 16.612 0 30.078-10.724 30.078-23.953s-13.466-23.953-30.078-23.953c-16.611 0-30.078 10.724-30.078 23.953Z"/><path fill="#4E5660" d="M286.667 163.22c0-14.987-10.857-16.395-24.25-16.395s-24.251 1.408-24.251 16.395 10.857 27.136 24.251 27.136c13.393 0 24.25-12.149 24.25-27.136Zm-100.739-2.693a7.5 7.5 0 0 1-7.5-7.5v-12.282a7.5 7.5 0 0 1 15 0v12.282a7.5 7.5 0 0 1-7.5 7.5Zm152.977 0a7.5 7.5 0 0 1-7.5-7.5v-12.282a7.5 7.5 0 0 1 15 0v12.282a7.5 7.5 0 0 1-7.5 7.5Zm60.763-60.241c-19.404-51.926-73.523-89.29-137.251-89.29-63.728 0-117.847 37.364-137.252 89.29 49.031 2.448 121.393-14.528 137.251-41.61 15.859 27.082 88.221 44.058 137.252 41.61Z"/><path fill="#383C43" d="M176.572 97.006c1.417-27.677 8.402-53.183 18.863-71.132-32.797 15.557-58.224 42.176-70.27 74.412 15.628.78 33.625-.416 51.407-3.28Z"/><path fill="#FFD3BD" d="M437.882 219.261c-4.903 2.43-11.208 4.79-18.372 7.018l18.521 53.166c9.359-2.988 17.846-6.246 24.861-9.723 13.934-6.906 19.632-23.801 12.725-37.736-6.905-13.933-23.8-19.63-37.735-12.725Z"/><path fill="#E7889D" d="m511.387 343.955-1.669-3.473a6.64 6.64 0 0 1-.157-5.399l1.716-4.177c1.575-3.834-1.697-7.899-5.779-7.179l-30.533 5.384-8.818 1.555c-7.458 1.315-12.593 8.222-11.705 15.742l4.55 38.519c-3.631-1.236-7.691-1.93-11.978-1.93-15.436 0-27.95 8.967-27.95 20.029s12.514 20.029 27.95 20.029 27.95-8.967 27.95-20.029v-44.698l31.934-5.631c4.024-.708 6.258-5.061 4.489-8.742Z"/><path fill="#98CD64" d="m77.467 222.619-1.4-2.914a5.57 5.57 0 0 1-.132-4.53l1.44-3.505c1.322-3.217-1.424-6.628-4.849-6.024l-25.62 4.518-7.399 1.305c-6.258 1.103-10.567 6.899-9.821 13.209l3.818 32.321c-3.047-1.037-6.453-1.619-10.051-1.619C10.5 255.379 0 262.904 0 272.186s10.5 16.806 23.453 16.806 23.453-7.524 23.453-16.806V234.68l26.796-4.725c3.374-.595 5.249-4.247 3.765-7.336Z"/></g><defs><clipPath id="a"><path fill="#fff" d="M0 0h512v512H0z"/></clipPath></defs></svg>