<svg xmlns="http://www.w3.org/2000/svg" width="512" height="512" fill="none"><g clip-path="url(#a)"><path fill="#E16E7E" d="M376.458 358.161c-10.048-17.404 6.232-39.847 32.907-39.847 26.675 0 42.955 22.443 32.907 39.847l-32.907 56.996-32.907-56.996Z"/><path fill="#E7889D" d="M343.551 415.158c-20.096 0-31.393-25.321-18.055-48.422 13.337-23.101 40.913-25.978 50.962-8.574l32.907 56.996h-65.814Z"/><path fill="#E7889D" d="M475.178 415.158c20.096 0 31.392-25.321 18.055-48.422-13.337-23.101-40.913-25.978-50.962-8.574l-32.907 56.996h65.814Z"/><path fill="#E7889D" d="M376.458 472.153C366.41 489.557 382.689 512 409.364 512c26.675 0 42.955-22.443 32.907-39.847l-32.907-56.996-32.906 56.996Z"/><path fill="#E16E7E" d="M343.551 415.157c-20.096 0-31.393 25.32-18.055 48.421 13.337 23.101 40.913 25.979 50.962 8.575l32.907-56.996h-65.814Z"/><path fill="#E16E7E" d="M475.178 415.157c20.096 0 31.392 25.32 18.055 48.421s-40.913 25.979-50.962 8.575l-32.907-56.996h65.814Z"/><path fill="#F6EE86" d="M418.518 453.678c21.388-5.056 34.627-26.492 29.572-47.88-5.056-21.387-26.492-34.627-47.88-29.571-21.387 5.055-34.627 26.492-29.571 47.879 5.055 21.388 26.492 34.627 47.879 29.572Z"/><path fill="#98CD64" d="M362.447 93.816h-186.91c-7.824 0-14.167-6.343-14.167-14.167v-44.62C161.371 15.683 177.053 0 196.399 0h145.186c19.346 0 35.029 15.683 35.029 35.029v44.62c0 7.824-6.343 14.167-14.167 14.167Z"/><path fill="#6AC65E" d="M233.408 101.315a7.5 7.5 0 0 1-7.5-7.5V46.908a7.5 7.5 0 0 1 15 0v46.908a7.5 7.5 0 0 1-7.5 7.499Zm71.169 0a7.5 7.5 0 0 1-7.5-7.5V46.908a7.5 7.5 0 0 1 15 0v46.908a7.5 7.5 0 0 1-7.5 7.499Z"/><path fill="#E0B799" d="M332.132 107.248V93.816H205.853v13.433c0 9.79-5.874 18.606-14.889 22.422-36.636 15.507-62.344 51.781-62.344 94.068v236.335c0 28.679 23.249 51.927 51.927 51.927h176.889c28.679 0 51.927-23.249 51.927-51.927V223.738c0-42.287-25.707-78.56-62.344-94.068-9.013-3.816-14.887-12.632-14.887-22.422Z"/><path fill="#D1986F" d="M200.801 122.077a24.411 24.411 0 0 1-9.836 7.594c-36.636 15.507-62.344 51.781-62.344 94.068v236.335c0 28.679 23.249 51.927 51.927 51.927h81.209c-49.686-56.286-67.314-288.917-60.956-389.924Z"/><path fill="#FBF1CF" d="M128.62 236.142h280.744v178.49H128.62v-178.49Z"/><path fill="#F5E2A2" d="M128.62 236.142v178.49h95.185c-11.762-53.659-19.021-119.277-22.261-178.49H128.62Z"/><path fill="#98CD64" d="M189.856 236.142c0 28.633 35.431 51.845 79.136 51.845 43.706 0 79.137-23.212 79.137-51.845H189.856Z"/><path fill="#6AC65E" d="M201.549 236.142h-11.693c0 10.761 5.006 20.756 13.574 29.041a1455.544 1455.544 0 0 1-1.881-29.041Z"/><path fill="#8DAEE1" d="M269.108 373.312c19.239-.06 35.448-15.362 36.266-34.584.958-22.52-16.024-44.716-27.116-56.724-5.009-5.422-13.547-5.4-18.554.024-10.791 11.687-27.133 32.996-27.133 54.864.001 20.153 16.37 36.483 36.537 36.42Z"/><path fill="#D1986F" d="M268.992 481.329a7.5 7.5 0 0 1-7.5-7.5v-6.82a7.5 7.5 0 0 1 15 0v6.82a7.5 7.5 0 0 1-7.5 7.5Z"/><path fill="#E0B799" d="M192.635 481.329a7.5 7.5 0 0 1-7.5-7.5v-6.82a7.5 7.5 0 0 1 15 0v6.82a7.5 7.5 0 0 1-7.5 7.5Z"/><path fill="#D1986F" d="M345.35 481.329a7.5 7.5 0 0 1-7.5-7.5v-6.82a7.5 7.5 0 0 1 15 0v6.82a7.5 7.5 0 0 1-7.5 7.5Z"/><path fill="#E7889D" d="M69.729 160.583c-10.048-17.404 6.232-39.847 32.907-39.847 26.675 0 42.955 22.443 32.907 39.847l-32.907 56.996-32.907-56.996Z"/><path fill="#E16E7E" d="M36.822 217.579c-20.096 0-31.392-25.32-18.055-48.421s40.913-25.979 50.962-8.574l32.907 56.996H36.822v-.001Z"/><path fill="#E16E7E" d="M168.449 217.579c20.096 0 31.393-25.32 18.055-48.421-13.337-23.101-40.913-25.979-50.962-8.574l-32.907 56.996h65.814v-.001Z"/><path fill="#E16E7E" d="M69.729 274.574c-10.048 17.404 6.232 39.847 32.907 39.847 26.675 0 42.955-22.443 32.907-39.847l-32.907-56.996-32.907 56.996Z"/><path fill="#E7889D" d="M36.822 217.579c-20.096 0-31.392 25.32-18.055 48.421s40.913 25.979 50.962 8.575l32.907-56.996H36.822Z"/><path fill="#E7889D" d="M168.449 217.579c20.096 0 31.393 25.32 18.055 48.421-13.337 23.101-40.913 25.979-50.962 8.575l-32.907-56.996h65.814Z"/><path fill="#F6EE86" d="M130.74 245.705c15.54-15.541 15.54-40.737 0-56.277-15.541-15.541-40.737-15.541-56.277 0-15.54 15.54-15.54 40.736 0 56.277 15.54 15.541 40.736 15.541 56.277 0Z"/></g><defs><clipPath id="a"><path fill="#fff" d="M0 0h512v512H0z"/></clipPath></defs></svg>