<svg xmlns="http://www.w3.org/2000/svg" width="512" height="512" fill="none"><g clip-path="url(#a)"><path fill="#4F4C5F" d="M335.589 345.61v67.937l-88.084 10.996-35.547 43.727-35.557-43.727V345.61L256 330.125l79.589 15.485Z"/><path fill="#423E4F" d="M132.4 94.531c24.72 0 44.759-20.04 44.759-44.759 0-24.72-20.039-44.76-44.759-44.76s-44.76 20.04-44.76 44.76 20.04 44.76 44.76 44.76Z"/><path fill="#4F4C5F" d="M379.6 94.531c24.72 0 44.759-20.04 44.759-44.759 0-24.72-20.039-44.76-44.759-44.76s-44.759 20.04-44.759 44.76 20.039 44.76 44.759 44.76Z"/><path fill="#5C586F" d="M407.027 201.41a156.875 156.875 0 0 0 6.294-44.078c0-10.511-1.041-20.797-3.012-30.74L255.995 93.34l-154.314 33.252a158.13 158.13 0 0 0-3.012 30.74c0 15.296 2.203 30.085 6.294 44.078h302.064ZM132.4 60.087C161.232 23.52 205.919 0 256 0c50.071 0 94.758 23.519 123.59 60.087L255.995 93.34 132.4 60.087Z"/><path fill="#4F4C5F" d="M137.638 157.165c0-13.653 2.048-26.912 5.884-39.59l-41.84 9.016a158.13 158.13 0 0 0-3.012 30.74c0 15.296 2.203 30.085 6.294 44.078h40.048c-4.8-14.072-7.374-28.911-7.374-44.244Z"/><path fill="#FFCABD" d="M142.816 163.74a34.954 34.954 0 0 0-20.173-6.409c-22.847 0-39.633 21.582-33.854 43.687C108.191 275.215 175.803 330.125 256 330.125v-86.397L142.816 163.74Zm226.368 0a34.954 34.954 0 0 1 20.173-6.409c22.847 0 39.633 21.582 33.854 43.687C403.81 275.214 336.198 330.124 256 330.124v-86.397l113.184-79.987Z"/><path fill="#423E4F" d="M202.72 385.275c0-16.878.988-31.915 2.857-45.341l-29.176 5.675v78.933l35.558 43.727 1.659-2.041c-7.508-21.488-10.898-48.226-10.898-80.953Z"/><path fill="#FF889E" d="M176.401 231.2h159.188v114.409H176.401V231.2Z"/><path fill="#FF748F" d="M328.894 231.2H176.401v114.409h28.452c10.698-91.682 60.707-111.163 124.041-114.409Z"/><path fill="#FFDCCE" d="M374.896 157.331c0 65.658-53.237 118.897-118.896 118.897-65.668 0-118.907-53.238-118.907-118.897 0-10.625 1.393-20.93 4.023-30.739h229.756c2.631 9.809 4.024 20.114 4.024 30.739Z"/><path fill="#4F4C5F" d="M276.373 1.33A157.938 157.938 0 0 0 256 0c-50.081 0-94.768 23.519-123.6 60.087l36.01 9.688c24.81-32.183 62.914-56.741 107.963-68.445Z"/><path fill="#FF889E" d="M379.59 60.087H132.401c-15.071 19.105-25.799 41.768-30.719 66.503H410.31c-4.921-24.735-15.66-47.398-30.72-66.503Z"/><path fill="#FFDCCE" d="M176.404 424.548v51.902c0 19.634 15.916 35.55 35.55 35.55 19.633 0 35.549-15.916 35.549-35.55v-51.902h-71.099Z"/><path fill="#FF9DB0" d="M182.611 207.372c14.954 0 27.077-9.654 27.077-21.563 0-11.909-12.123-21.563-27.077-21.563-14.954 0-27.077 9.654-27.077 21.563 0 11.909 12.123 21.563 27.077 21.563Zm146.768 0c14.954 0 27.077-9.654 27.077-21.563 0-11.909-12.123-21.563-27.077-21.563-14.955 0-27.077 9.654-27.077 21.563 0 11.909 12.122 21.563 27.077 21.563Z"/><path fill="#423E4F" d="M198.391 171.748a26.257 26.257 0 0 1-19.796-9.016 7.727 7.727 0 0 1 11.651-10.152 10.808 10.808 0 0 0 8.145 3.715c3.12 0 6.089-1.354 8.146-3.715a7.727 7.727 0 0 1 11.65 10.152 26.254 26.254 0 0 1-19.796 9.016Zm115.207 0a26.253 26.253 0 0 1-19.794-9.016 7.726 7.726 0 1 1 11.65-10.152 10.808 10.808 0 0 0 8.145 3.715c3.12 0 6.089-1.354 8.146-3.715a7.728 7.728 0 0 1 10.902-.749 7.726 7.726 0 0 1 .748 10.901 26.26 26.26 0 0 1-19.797 9.016Zm-57.603 16.499c5.966 0 10.802-5.158 10.802-11.52 0-6.363-4.836-11.521-10.802-11.521-5.966 0-10.803 5.158-10.803 11.521 0 6.362 4.837 11.52 10.803 11.52Z"/><path fill="#5C586F" d="M329.087 377.021h-33.255l-14.213 35.549 14.213 35.549h33.255c19.634 0 35.55-15.916 35.55-35.549s-15.916-35.549-35.55-35.549Z"/><path fill="#FFCABD" d="M295.832 377.021H264.56c-19.633 0-35.55 15.916-35.55 35.549s15.917 35.549 35.55 35.549h31.272v-71.098Z"/><path fill="#FF748F" d="M176.486 60.087H132.4c-15.071 19.104-25.799 41.767-30.72 66.504h39.444c5.65-24.554 17.97-47.162 35.362-66.504Z"/><path fill="#FFCABD" d="M204.691 424.548h-28.288v51.902c0 19.634 15.916 35.55 35.55 35.55 8.893 0 17.017-3.274 23.251-8.671-16.971-18.291-26.658-44.077-30.513-78.781Z"/></g><defs><clipPath id="a"><path fill="#fff" d="M0 0h512v512H0z"/></clipPath></defs></svg>