<svg xmlns="http://www.w3.org/2000/svg" width="512" height="512" fill="none"><g clip-path="url(#a)"><path fill="#FCF2D0" d="M.015 141.314C-1.075 68.079 57.26 6.447 130.5 6.003a130.801 130.801 0 0 1 88.7 33.758 37.476 37.476 0 0 0 50.03 0 130.792 130.792 0 0 1 88.7-33.758c73.242.444 131.578 62.076 130.487 135.311-1.567 105.13-64.937 133.024-64.937 222.042 0 88.416-40.853 142.495-80.829 142.495-42.27 0-66.67-49.388-83.6-91.829-5.335-13.371-24.33-13.371-29.665 0-16.933 42.441-41.333 91.829-83.6 91.829-39.976 0-80.829-54.08-80.829-142.495 0-89.018-63.37-116.913-64.936-222.042H.015Z"/><path fill="#FAE0BD" d="M92.836 11.855C38.271 28.91-.88 81.198.016 141.314 1.58 246.442 64.95 274.337 64.95 363.355c0 88.416 40.853 142.495 80.829 142.495 39.072 0 62.876-42.2 79.627-82.1C121.021 386.43 52.015 129.779 92.837 11.856Z"/><path fill="#EDA1AB" d="M479.192 406.318c43.672-43.672 43.672-114.478 0-158.149-43.671-43.672-114.477-43.672-158.148 0-43.672 43.671-43.672 114.477 0 158.149 43.671 43.671 114.477 43.671 158.148 0Z"/><path fill="#fff" d="M422.257 299.291v-32.455a5.846 5.846 0 0 0-1.716-4.143 5.863 5.863 0 0 0-4.142-1.715h-32.455c-.769 0-1.531.151-2.242.445a5.874 5.874 0 0 0-3.17 3.171 5.865 5.865 0 0 0-.446 2.242v32.455a5.86 5.86 0 0 1-5.858 5.858h-32.455a5.858 5.858 0 0 0-5.858 5.858v32.455a5.858 5.858 0 0 0 5.858 5.858h32.455a5.863 5.863 0 0 1 5.858 5.858v32.455a5.858 5.858 0 0 0 5.858 5.858H416.4a5.859 5.859 0 0 0 5.858-5.858v-32.455a5.858 5.858 0 0 1 5.858-5.858h32.454a5.859 5.859 0 0 0 5.858-5.858v-32.455a5.858 5.858 0 0 0-5.858-5.858h-32.455a5.859 5.859 0 0 1-5.858-5.858Z"/></g><defs><clipPath id="a"><path fill="#fff" d="M0 0h512v512H0z"/></clipPath></defs></svg>