<svg xmlns="http://www.w3.org/2000/svg" width="512" height="512" fill="none"><path fill="#E8899E" d="M427.042 165.407c46.921 0 84.958-38.037 84.958-84.958V36.804c0-16.003-12.973-28.977-28.977-28.977-16.003 0-28.977 12.973-28.977 28.977V68.03c0 7.187-5.827 13.014-13.014 13.014h-19.108c-7.187 0-13.014-5.827-13.014-13.014V36.804c0-16.003-12.973-28.977-28.977-28.977-16.003 0-28.977 12.973-28.977 28.977V68.03c0 7.187-5.827 13.014-13.014 13.014h-19.108c-7.187 0-13.014-5.827-13.014-13.014V36.804c0-16.003-12.973-28.977-28.977-28.977-16.003 0-28.977 12.973-28.977 28.977V68.03c0 7.187-5.827 13.014-13.014 13.014h-19.108c-7.187 0-13.014-5.827-13.014-13.014V36.804c0-16.003-12.973-28.977-28.977-28.977-16.004 0-28.977 12.973-28.977 28.977V80.45c0 46.921 38.037 84.958 84.958 84.958h197.308Z"/><path fill="#E26E7E" d="M323.232 165.407c-30.522-16.783-35.964-66.475-36.368-155.799a28.917 28.917 0 0 0-10.02-1.78c-16.003 0-28.977 12.972-28.977 28.976V68.03c0 7.187-5.827 13.014-13.014 13.014h-19.108c-7.187 0-13.014-5.826-13.014-13.014V36.804c0-16.003-12.973-28.977-28.977-28.977-16.004 0-28.977 12.973-28.977 28.977V80.45c0 46.921 38.037 84.958 84.958 84.958h93.497Z"/><path fill="#fff" d="M361.356 130.725h-58.622a7.5 7.5 0 0 1-7.5-7.5 7.5 7.5 0 0 1 7.5-7.5h58.622a7.5 7.5 0 0 1 7.5 7.5 7.5 7.5 0 0 1-7.5 7.5Z"/><path fill="#6A96D7" d="M243.195 79.832c-39.869 0-72.189 32.32-72.189 72.189V418.67c0 47.222 38.281 85.503 85.503 85.503s85.503-38.281 85.503-85.503-38.281-85.503-85.503-85.503V93.146c0-7.353-5.961-13.314-13.314-13.314Zm13.314 309.657c16.116 0 29.181 13.065 29.181 29.181s-13.065 29.181-29.181 29.181-29.181-13.065-29.181-29.181 13.065-29.181 29.181-29.181Z"/><path fill="#A3DEFE" d="M256.509 93.146v155.027h-85.503v-96.152c0-39.869 32.32-72.189 72.189-72.189 7.353 0 13.314 5.961 13.314 13.314Z"/><path fill="#7ACEFA" d="M171.006 220.188h85.503v27.476h-85.503v-27.476Z"/><path fill="#8EAFE2" d="M411.027 247.664H171.006c0-47.222-38.281-85.503-85.503-85.503S0 200.442 0 247.664s38.281 85.503 85.503 85.503h266.649c39.869 0 72.189-32.32 72.189-72.189 0-7.354-5.961-13.314-13.314-13.314Zm-325.524 29.18c-16.116 0-29.181-13.065-29.181-29.181s13.065-29.181 29.181-29.181 29.181 13.065 29.181 29.181c0 16.117-13.065 29.181-29.181 29.181Z"/><path fill="#A3DEFE" d="M411.027 247.664H256v85.503h96.152c39.869 0 72.189-32.32 72.189-72.189 0-7.354-5.961-13.314-13.314-13.314Z"/><path fill="#6A96D7" d="M143.941 185.276c-15.289-14.327-35.832-23.116-58.438-23.116C38.281 162.161 0 200.442 0 247.664c0 47.222 38.281 85.503 85.503 85.503h73.631c-20.333-21.485-41.886-66.891-15.193-147.891Zm-58.438 91.568c-16.116 0-29.181-13.065-29.181-29.181s13.065-29.181 29.181-29.181 29.181 13.065 29.181 29.181c0 16.117-13.065 29.181-29.181 29.181Z"/><path fill="#4E5660" d="M213.758 300.164c5.384 0 9.749-4.365 9.749-9.749s-4.365-9.749-9.749-9.749-9.749 4.365-9.749 9.749 4.365 9.749 9.749 9.749Z"/></svg>