<svg xmlns="http://www.w3.org/2000/svg" width="512" height="512" fill="none"><path fill="#6A95D6" d="M46.041 369.531c-18.167-1.47-31.701-17.39-30.231-35.556 1.47-18.166 17.357-31.707 35.557-30.232 38.592 3.118 70.776-17.08 104.331-65.506 10.382-14.982 30.94-18.71 45.923-8.33 14.981 10.381 18.709 30.941 8.329 45.922-40.696 58.729-92.703 99.464-163.909 93.702Z"/><path fill="#FFD3BD" d="M79.687 301.51c-9.112 2.303-18.508 3.026-28.321 2.233-18.199-1.475-34.087 12.066-35.557 30.232-1.47 18.167 12.065 34.086 30.231 35.556 14.72 1.191 28.616.39 41.765-2.141l-8.118-65.88Z"/><path fill="#6A95D6" d="M465.959 369.531c18.167-1.47 31.701-17.39 30.231-35.556-1.47-18.166-17.357-31.707-35.557-30.232-38.592 3.118-70.776-17.08-104.331-65.506-10.382-14.982-30.94-18.71-45.923-8.33-14.981 10.381-18.709 30.941-8.329 45.922 40.696 58.729 92.703 99.464 163.909 93.702Z"/><path fill="#FFD3BD" d="M432.313 301.51c9.112 2.303 18.509 3.026 28.321 2.233 18.199-1.475 34.087 12.066 35.557 30.232 1.47 18.167-12.065 34.086-30.231 35.556-14.72 1.191-28.616.39-41.765-2.141l8.118-65.88Z"/><path fill="#8DAEE1" d="M254.405 458.906c64.254 0 116.342-55.121 116.342-123.115 0-67.995-52.088-123.115-116.342-123.115-64.254 0-116.342 55.12-116.342 123.115 0 67.994 52.088 123.115 116.342 123.115Z"/><path fill="#7ACDF9" d="M169.53 490.274c-6.234-17.127 2.598-36.065 19.725-42.298l150.18-54.662c17.128-6.233 36.064 2.598 42.299 19.724 6.234 17.127-2.598 36.065-19.725 42.298l-150.18 54.662c-17.193 6.257-36.087-2.659-42.299-19.724Z"/><path fill="#FFD3BD" d="m232.849 432.109-43.594 15.867c-17.127 6.233-25.959 25.171-19.725 42.298 6.212 17.065 25.106 25.981 42.299 19.724l45.766-16.657-24.746-61.232Z"/><path fill="#A2DDFD" d="M342.47 490.274c6.234-17.127-2.598-36.065-19.725-42.298l-150.18-54.662c-17.128-6.233-36.064 2.598-42.299 19.724-6.234 17.127 2.598 36.065 19.725 42.298l150.18 54.662c17.193 6.257 36.087-2.659 42.299-19.724Z"/><path fill="#FFD3BD" d="m279.151 432.109 43.594 15.867c17.127 6.233 25.959 25.171 19.725 42.298-6.212 17.065-25.106 25.981-42.299 19.724l-45.766-16.657 24.746-61.232ZM101.769 192.818c24.496-5.791 39.66-30.343 33.869-54.839-5.79-24.496-30.342-39.66-54.839-33.87-24.496 5.791-39.66 30.343-33.87 54.839 5.791 24.496 30.343 39.66 54.84 33.87Z"/><path fill="#FFBE9D" d="M465.151 159.148c5.79-24.496-9.374-49.048-33.87-54.839-24.496-5.79-49.048 9.374-54.838 33.87-5.791 24.496 9.373 49.048 33.869 54.839 24.496 5.79 49.049-9.374 54.839-33.87Z"/><path fill="#FFD3BD" d="M256 297.046c90.311 0 163.522-66.496 163.522-148.523S346.311 0 256 0C165.689 0 92.478 66.496 92.478 148.523S165.689 297.046 256 297.046Z"/><path fill="#FFBE9D" d="M324.176 283.552c-177.666-4.31-186.95-192.645-143.764-266.755-52.258 24.789-87.934 74.47-87.934 131.726 0 82.027 73.211 148.523 163.522 148.523 24.334 0 47.423-4.835 68.176-13.494Z"/><path fill="#E7889D" d="M171.691 193.987c17.181 0 31.109-11.091 31.109-24.773 0-13.681-13.928-24.773-31.109-24.773s-31.109 11.092-31.109 24.773c0 13.682 13.928 24.773 31.109 24.773Zm168.619 0c17.181 0 31.109-11.091 31.109-24.773 0-13.681-13.928-24.773-31.109-24.773s-31.109 11.092-31.109 24.773c0 13.682 13.928 24.773 31.109 24.773Z"/><path fill="#4E5660" d="M189.82 151.684a28.792 28.792 0 0 1-21.705-9.885 7.5 7.5 0 0 1 .727-10.581 7.5 7.5 0 0 1 10.582.726 13.79 13.79 0 0 0 10.396 4.74c3.982 0 7.771-1.728 10.396-4.74a7.5 7.5 0 0 1 11.309 9.854 28.78 28.78 0 0 1-21.705 9.886Zm132.36 0a28.786 28.786 0 0 1-21.705-9.885 7.5 7.5 0 1 1 11.308-9.854 13.792 13.792 0 0 0 10.396 4.74c3.981 0 7.772-1.728 10.397-4.74a7.5 7.5 0 0 1 11.309 9.855 28.795 28.795 0 0 1-21.705 9.884ZM256 172.016c6.854 0 12.41-5.926 12.41-13.235 0-7.31-5.556-13.235-12.41-13.235s-12.41 5.925-12.41 13.235c0 7.309 5.556 13.235 12.41 13.235Zm154.881-71.255C388.984 42.165 327.914 0 256 0S123.016 42.165 101.119 100.761C156.448 103.523 238.105 84.367 256 53.805c17.895 30.562 99.552 49.718 154.881 46.956Z"/><path fill="#383C43" d="M159.129 97.059c1.599-31.232 9.482-60.015 21.286-80.268-37.01 17.555-65.703 47.594-79.296 83.97 17.635.88 37.944-.469 58.01-3.702Z"/></svg>