<svg xmlns="http://www.w3.org/2000/svg" width="512" height="512" fill="none"><g clip-path="url(#a)"><path fill="#D6948C" d="M163.555 312.989 23.793 452.751a30.021 30.021 0 0 0 42.455 42.455L206.01 355.444l-42.455-42.455Z"/><path fill="#FF8E9E" d="M482.181 269.886h-73.444v84.661a12.304 12.304 0 0 1-9.977 12.471c-1.34.533-2.767.813-4.209.824h-17.81a13.066 13.066 0 0 1-12.02-7.655 11.99 11.99 0 0 1-2.76-8.016V278.79H285.55v40.136c.459 6.9-5.9 13.3-12.7 13.3h-13.36a13.508 13.508 0 0 1-3.813-.54c-5.755-.656-10.967-4.67-10.967-12.162V174.899h-73.444v53.493c0 10.94-11.072 14.977-18.765 11.811H136.7c-7.654 3.054-18.146-.584-18.146-11.218V100.524c-40.492 70.881-52.07 171.146.276 223.49l76.181 76.185c64.358 64.358 203.005 32 268.344-33.342A167.82 167.82 0 0 0 475 353.941a164.699 164.699 0 0 0 7.18-9.526v-74.529h.001Z"/><path fill="#F46C86" d="M244.71 178.569V174.9h-73.444v53.493c0 10.94-11.072 14.977-18.765 11.811H136.7c-7.654 3.054-18.146-.584-18.146-11.218V100.515a277.944 277.944 0 0 0-3.6 6.5c-37.543 70.394-46.893 166.235 3.872 217l76.186 76.185a167.536 167.536 0 0 0 16.345 14.292c-46-59.79-17.737-171.747 33.353-235.92v-.003Z"/><path fill="#FFCE71" d="M477.648 148.2a165.295 165.295 0 0 0-58.731-48.09 166.166 166.166 0 0 0-199.964-85.184 166.156 166.156 0 0 0-66.782 40.745c-14.131 14.129-26.763 31.756-37.213 51.351v125.252a30.007 30.007 0 0 0 33.412 29.811c15.307-1.688 26.588-15.2 26.588-30.6v-19.546a30 30 0 0 1 30-30 29.606 29.606 0 0 1 26.125 15.683 31.502 31.502 0 0 1 3.875 15.1v98.424c0 15.4 11.281 28.91 26.588 30.6a30.022 30.022 0 0 0 23.382-7.423 30.013 30.013 0 0 0 10.03-22.388 30 30 0 0 1 30-30c17.259 0 30 14.436 30 30.785v39.212a30.002 30.002 0 0 0 20.926 28.604 30.014 30.014 0 0 0 12.486 1.214c15.307-1.688 26.588-15.2 26.588-30.6v-49.211a30 30 0 0 1 30-30c17.273 0 30 14.449 30 30.785v49.548c0 .553.015 1.121.044 1.666a166.226 166.226 0 0 0 2.646-205.738Z"/><path fill="#FFB357" d="M418.917 100.11a166.166 166.166 0 0 0-199.964-85.184 166.156 166.156 0 0 0-66.782 40.745c-14.131 14.129-26.763 31.756-37.213 51.351v125.252a30.007 30.007 0 0 0 33.412 29.811c15.307-1.688 26.588-15.2 26.588-30.6v-19.546a30 30 0 0 1 30-30 29.606 29.606 0 0 1 26.125 15.683 211.29 211.29 0 0 1 27.908-35.133c39.228-39.226 109.051-70.59 159.926-62.379Z"/></g><defs><clipPath id="a"><path fill="#fff" d="M0 0h512v512H0z"/></clipPath></defs></svg>