<svg xmlns="http://www.w3.org/2000/svg" width="512" height="512" fill="none"><g clip-path="url(#a)"><path fill="#FFBE9D" d="M436.626 196.631c-14.808-14.808-38.816-14.807-53.623 0l39.724-39.724c14.808-14.808 14.808-38.815 0-53.623s-38.816-14.808-53.623 0l31.547-31.547c14.538-14.538 15.615-38.225 1.603-53.271-14.711-15.795-39.451-16.127-54.583-.995l-47.257 47.257c14.808-14.808 14.808-38.815 0-53.623s-38.815-14.808-53.623 0L138.453 119.442V81.588c0-26.03-21.101-47.131-47.131-47.131S44.19 55.558 44.19 81.588v193.124a65.929 65.929 0 0 1-19.31 46.617l-4.223 4.224c-17.08 17.08-17.08 44.773 0 61.853L84.98 451.73c17.08 17.08 44.773 17.08 61.854 0l36.817-36.817a27.413 27.413 0 0 1 19.386-8.03h30.74a111.584 111.584 0 0 0 78.902-32.682l123.947-123.947c14.807-14.807 14.807-38.815-.001-53.623Z"/><path fill="#FFD3BD" d="M493.047 235.129c-14.808-14.808-38.815-14.807-53.623 0l39.724-39.724c14.808-14.808 14.808-38.816 0-53.623-14.808-14.808-38.816-14.808-53.623 0l31.547-31.547c14.538-14.538 15.615-38.225 1.603-53.27-14.711-15.797-39.451-16.128-54.583-.996l-47.257 47.257c14.808-14.808 14.808-38.815 0-53.623s-38.815-14.808-53.623 0L194.874 157.94v-37.854c0-26.03-21.101-47.13-47.131-47.13s-47.131 21.101-47.131 47.13V313.21a65.929 65.929 0 0 1-19.31 46.617l-13.184 13.185c-17.08 17.08-17.08 44.773 0 61.854l64.324 64.324c17.08 17.08 44.773 17.08 61.854 0l45.778-45.778a27.417 27.417 0 0 1 19.386-8.03h30.74a111.584 111.584 0 0 0 78.902-32.682l123.947-123.947c14.806-14.809 14.806-38.817-.002-53.624Z"/><path fill="#FFBE9D" d="M291.316 176.244a7.5 7.5 0 0 1-5.303-12.803l65.518-65.518a7.501 7.501 0 0 1 10.606 10.607l-65.518 65.518a7.477 7.477 0 0 1-5.303 2.196Zm63.158 44.088a7.5 7.5 0 0 1-5.303-12.803l71.051-71.051a7.501 7.501 0 0 1 10.606 10.607l-71.051 71.051a7.477 7.477 0 0 1-5.303 2.196Zm44.089 63.158a7.5 7.5 0 0 1-5.303-12.803l40.861-40.861a7.5 7.5 0 0 1 10.607 10.607l-40.861 40.861a7.483 7.483 0 0 1-5.304 2.196Z"/></g><defs><clipPath id="a"><path fill="#fff" d="M0 0h512v512H0z"/></clipPath></defs></svg>