<svg xmlns="http://www.w3.org/2000/svg" width="512" height="512" fill="none"><path fill="#E0B799" d="M444.537 441.675H67.464c-10.185 0-18.442-8.257-18.442-18.442v-32.815c0-10.185 8.257-18.442 18.442-18.442h377.073c10.185 0 18.442 8.257 18.442 18.442v32.815c-.001 10.185-8.257 18.442-18.442 18.442Z"/><path fill="#D1986F" d="M431.201 441.675H80.8v48.013c0 12.323 9.99 22.312 22.312 22.312h305.776c12.323 0 22.312-9.99 22.312-22.312v-48.013h.001Z"/><path fill="#FFBE9D" d="M80.876 286.607c-12.286-5.902-17.463-20.646-11.562-32.933 5.9-12.286 20.645-17.464 32.933-11.562 17.378 8.347 68.942 14.923 85.768 6.853 12.294-5.895 27.032-.706 32.925 11.583 5.893 12.29.707 27.031-11.583 32.925-34.174 16.387-101.45 6.115-128.481-6.866Zm221.767 6.866c-12.291-5.894-17.477-20.635-11.583-32.925 5.893-12.29 20.633-17.474 32.925-11.583 16.828 8.069 68.391 1.494 85.768-6.853 12.287-5.903 27.031-.723 32.933 11.562 5.901 12.287.724 27.031-11.562 32.933-26.178 12.573-93.663 23.562-128.481 6.866Z"/><path fill="#FFD3BD" d="M151.839 181.093c13.989-13.988 13.989-36.668 0-50.657-13.988-13.988-36.668-13.988-50.656 0-13.989 13.989-13.989 36.669 0 50.657 13.988 13.988 36.668 13.988 50.656 0Z"/><path fill="#FFBE9D" d="M410.728 181.121c13.988-13.988 13.988-36.668 0-50.656-13.988-13.989-36.668-13.989-50.657 0-13.988 13.988-13.988 36.668 0 50.656 13.989 13.989 36.669 13.989 50.657 0Z"/><path fill="#FFD3BD" d="M342.977 315.888c0-53.436-38.941-96.754-86.977-96.754s-86.977 43.318-86.977 96.754c0 53.436 38.941 79.808 86.977 79.808s86.977-26.372 86.977-79.808Z"/><path fill="#FFD3BD" d="M256 272.49c70.974 0 128.509-52.258 128.509-116.722S326.974 39.046 256 39.046c-70.973 0-128.509 52.258-128.509 116.722S185.027 272.49 256 272.49Z"/><path fill="#FFBE9D" d="M309.579 261.885c-139.625-3.387-146.921-151.397-112.982-209.638-41.068 19.481-69.106 58.525-69.106 103.521 0 64.463 57.535 116.721 128.509 116.721 19.124.001 37.269-3.799 53.579-10.604Z"/><path fill="#E7889D" d="M210.383 190.365c0 11.732-11.942 21.242-26.674 21.242s-26.674-9.51-26.674-21.242c0-11.732 11.943-21.242 26.674-21.242s26.674 9.511 26.674 21.242Zm91.235 0c0 11.732 11.943 21.242 26.674 21.242 14.732 0 26.674-9.51 26.674-21.242 0-11.732-11.943-21.242-26.674-21.242-14.732 0-26.674 9.511-26.674 21.242Z"/><path fill="#4E5660" d="M277.506 174.044c0-13.291-9.628-14.54-21.506-14.54-11.877 0-21.506 1.249-21.506 14.54 0 13.291 9.629 24.065 21.506 24.065 11.878 0 21.506-10.774 21.506-24.065Zm-89.338-1.539a7.499 7.499 0 0 1-7.5-7.5v-10.892c0-4.143 3.357-7.5 7.5-7.5a7.5 7.5 0 0 1 7.5 7.5v10.892a7.5 7.5 0 0 1-7.5 7.5Zm135.664 0a7.499 7.499 0 0 1-7.5-7.5v-10.892c0-4.143 3.357-7.5 7.5-7.5s7.5 3.357 7.5 7.5v10.892a7.5 7.5 0 0 1-7.5 7.5Zm53.886-54.272C360.51 72.183 312.516 39.047 256 39.047c-56.516 0-104.51 33.137-121.718 79.186 43.482 2.171 107.654-12.884 121.718-36.902 14.064 24.018 78.236 39.073 121.718 36.902Z"/><path fill="#383C43" d="M179.871 115.324c1.257-24.544 7.452-47.165 16.729-63.082-29.085 13.796-51.635 37.403-62.318 65.99 13.859.693 29.819-.368 45.589-2.908Z"/><path fill="#FFD3BD" d="M298.082 466.089c-13.573-1.255-23.559-13.275-22.305-26.847 2.455-26.555.024-53.825-.001-54.098-1.238-13.568 8.753-25.58 22.32-26.826 13.553-1.251 25.577 8.73 26.832 22.298.119 1.289 2.885 31.943 0 63.168-1.248 13.501-13.188 23.554-26.846 22.305Zm-111.01-22.304c-2.885-31.225-.119-61.879 0-63.168 1.255-13.573 13.288-23.55 26.847-22.305 13.568 1.254 23.551 13.266 22.306 26.832-.025.272-2.456 27.543-.001 54.098 1.254 13.572-8.732 25.592-22.305 26.847-13.647 1.25-25.598-8.791-26.847-22.304Z"/><path fill="#8DAEE1" d="M342.553 405.866H169.448c-14.57 0-25.214-13.762-21.55-27.864 4.815-18.533 21.544-31.471 40.692-31.471h134.821c19.148 0 35.877 12.938 40.692 31.471 3.663 14.102-6.98 27.864-21.55 27.864Z"/><path fill="#6A95D6" d="M234.507 346.531H188.59c-19.148 0-35.877 12.938-40.692 31.471-3.664 14.102 6.98 27.864 21.55 27.864h75.912c-14.44-12.074-19.369-38.232-10.853-59.335Z"/><path fill="#F5E2A2" d="M483.992 174.732a7.481 7.481 0 0 1-5.304-2.196c-5.63-5.631-8.73-13.116-8.73-21.077 0-7.962 3.101-15.447 8.731-21.077 5.772-5.773 5.772-15.167-.001-20.941a7.498 7.498 0 0 1 .001-10.606 7.5 7.5 0 0 1 10.606 0c11.62 11.623 11.62 30.533 0 42.154a14.708 14.708 0 0 0-4.338 10.471 14.71 14.71 0 0 0 4.338 10.47 7.5 7.5 0 0 1-5.303 12.802Zm-62.759-96.638a7.485 7.485 0 0 1-5.304-2.196c-11.621-11.621-11.621-30.531 0-42.153a14.708 14.708 0 0 0 4.338-10.471 14.71 14.71 0 0 0-4.338-10.47 7.5 7.5 0 0 1 10.607-10.607c5.63 5.631 8.73 13.116 8.73 21.077 0 7.962-3.101 15.447-8.731 21.077-5.772 5.773-5.772 15.167.001 20.939a7.5 7.5 0 0 1-5.303 12.804ZM28.008 174.732a7.476 7.476 0 0 1-5.304-2.197c-11.621-11.622-11.621-30.532 0-42.153a14.71 14.71 0 0 0 4.338-10.47 14.71 14.71 0 0 0-4.338-10.471 7.5 7.5 0 0 1 10.607-10.607c11.622 11.622 11.622 30.533 0 42.155-5.773 5.772-5.773 15.166 0 20.94a7.498 7.498 0 0 1-.001 10.606 7.47 7.47 0 0 1-5.302 2.197Zm62.76-96.638a7.481 7.481 0 0 1-5.303-2.196c-5.631-5.63-8.731-13.115-8.731-21.077 0-7.96 3.101-15.446 8.73-21.077 5.773-5.772 5.773-15.166 0-20.94A7.5 7.5 0 0 1 96.072 2.2c11.621 11.622 11.621 30.532 0 42.153a14.71 14.71 0 0 0-4.338 10.47c0 3.955 1.54 7.674 4.337 10.47a7.498 7.498 0 0 1 .001 10.604 7.479 7.479 0 0 1-5.304 2.198Z"/></svg>