<svg xmlns="http://www.w3.org/2000/svg" width="512" height="512" fill="none"><path fill="#CDE9FA" d="m253.849 159.4-61.754-61.754C157.33 62.88 108.078 51.548 63.863 63.633v68.977c26.125-15.652 60.448-12.224 82.971 10.298l61.754 61.754c12.497 12.499 32.763 12.499 45.261 0 12.498-12.499 12.498-32.763 0-45.262Z"/><path fill="#A2DDFD" d="M117.534 125.616V60.307c-17.873-2.558-36.166-1.459-53.671 3.326v68.978c16.317-9.776 35.831-12.108 53.671-6.995Z"/><path fill="#8EAFE2" d="M46.139 180.939H17.118C7.664 180.939 0 173.275 0 163.82V28.808C0 19.354 7.664 11.69 17.118 11.69h29.021c22.362 0 40.49 18.128 40.49 40.49v88.27c0 22.361-18.128 40.489-40.49 40.489Z"/><path fill="#4E5660" d="M231.219 237.498c30.634 0 55.467-24.833 55.467-55.467 0-30.633-24.833-55.467-55.467-55.467s-55.467 24.834-55.467 55.467c0 30.634 24.833 55.467 55.467 55.467Z"/><path fill="#8EAFE2" d="M238.503 321.454c17.1-3.577 60.127-33.832 79.217-52.921 19.09-19.09 49.344-62.117 52.921-79.217l-68.865-47.96c-15.22-10.6-35.848-8.769-48.963 4.346l-57.925 57.925c-13.115 13.115-14.946 33.743-4.346 48.963l47.961 68.864Z"/><path fill="#F6EE86" d="M210.025 327.412c-3.28-15.682 6.734-31.055 22.384-34.407 9.482-2.571 46.336-26.643 64.739-45.046 18.402-18.403 42.474-55.255 45.045-64.737 3.349-15.65 18.72-25.67 34.406-22.384 15.728 3.29 25.812 18.707 22.522 34.435-5.649 27.004-43.145 76.151-60.827 93.833-17.682 17.683-66.829 55.178-93.832 60.827-15.738 3.295-31.148-6.804-34.437-22.521Z"/><path fill="#F2D98D" d="M290.96 253.759c-19.478 17.305-50.04 36.939-58.552 39.247-15.65 3.352-25.664 18.725-22.384 34.407 3.289 15.717 18.7 25.816 34.437 22.521 18.139-3.795 46.258-21.956 68.132-38.832-19.321-8.581-27.704-38.877-21.633-57.343Z"/><path fill="#CDE9FA" d="M325.105 365.85c26.473 4.636 44.383 3.399 61.622 19.226 15.941 14.635 17.665 39.773 2.802 55.502-14.937 15.808-39.867 16.075-55.141.801-17.872-17.872-16.349-36.135-21.166-63.643-1.228-7.022 4.862-13.116 11.883-11.886Zm112.258-127.33c26.473 4.636 44.383 3.399 61.622 19.226 15.941 14.635 17.665 39.773 2.802 55.502-14.937 15.808-39.867 16.075-55.141.801-17.872-17.872-16.349-36.135-21.166-63.643-1.228-7.022 4.862-13.116 11.883-11.886Z"/><path fill="#D1C4E9" d="M470.321 435.605c20.609 0 37.316-16.707 37.316-37.316s-16.707-37.316-37.316-37.316-37.316 16.707-37.316 37.316 16.707 37.316 37.316 37.316ZM216.216 395.75c-8.022-10.05-20.738-16.187-34.833-15.081-20.352 1.596-36.492 18.581-37.117 38.986-.66 21.544 15.384 38.909 35.367 41.386 7.925.982 14.717 5.874 18.307 13.006 8.589 17.062 27.121 28.257 47.991 25.966 24.328-2.67 42.355-23.056 42.279-47.53-.088-28.617-24.763-49.508-51.343-47.412-7.997.631-15.646-3.051-20.651-9.321Z"/><path fill="#B0ADE2" d="M197.94 474.048c8.589 17.062 27.121 28.257 47.991 25.966a47.768 47.768 0 0 0 13.125-3.361c-50.979-16.124-68.323-81.023-60.471-113.633-5.301-1.951-11.122-2.828-17.203-2.352-20.352 1.596-36.492 18.581-37.117 38.986-.66 21.544 15.383 38.909 35.367 41.386 7.925.985 14.718 5.876 18.308 13.008Zm299.84-50.497c-40.158.019-50.218-45.785-38.763-60.83-15.082 4.789-26.012 18.9-26.012 35.568 0 20.609 16.707 37.316 37.316 37.316 10.864 0 20.639-4.645 27.459-12.054Z"/></svg>