<svg width="512" height="512" viewBox="0 0 512 512" fill="none" xmlns="http://www.w3.org/2000/svg">
<path d="M253.849 159.4L192.095 97.6464C157.33 62.8804 108.078 51.5484 63.863 63.6334V132.61C89.988 116.958 124.311 120.386 146.834 142.908L208.588 204.662C221.085 217.161 241.351 217.161 253.849 204.662C266.347 192.163 266.347 171.899 253.849 159.4Z" fill="#CDE9FA"/>
<path d="M117.534 125.616V60.3075C99.661 57.7495 81.368 58.8485 63.863 63.6335V132.611C80.18 122.835 99.694 120.503 117.534 125.616Z" fill="#A2DDFD"/>
<path d="M46.139 180.939H17.118C7.664 180.939 0 173.275 0 163.82V28.8084C0 19.3544 7.664 11.6904 17.118 11.6904H46.139C68.501 11.6904 86.629 29.8184 86.629 52.1804V140.45C86.629 162.811 68.501 180.939 46.139 180.939Z" fill="#8EAFE2"/>
<path d="M231.219 237.498C261.853 237.498 286.686 212.665 286.686 182.031C286.686 151.398 261.853 126.564 231.219 126.564C200.585 126.564 175.752 151.398 175.752 182.031C175.752 212.665 200.585 237.498 231.219 237.498Z" fill="#4E5660"/>
<path d="M238.503 321.454C255.603 317.877 298.63 287.622 317.72 268.533C336.81 249.443 367.064 206.416 370.641 189.316L301.776 141.356C286.556 130.756 265.928 132.587 252.813 145.702L194.888 203.627C181.773 216.742 179.942 237.37 190.542 252.59L238.503 321.454Z" fill="#8EAFE2"/>
<path d="M210.025 327.412C206.745 311.73 216.759 296.357 232.409 293.005C241.891 290.434 278.745 266.362 297.148 247.959C315.55 229.556 339.622 192.704 342.193 183.222C345.542 167.572 360.913 157.552 376.599 160.838C392.327 164.128 402.411 179.545 399.121 195.273C393.472 222.277 355.976 271.424 338.294 289.106C320.612 306.789 271.465 344.284 244.462 349.933C228.724 353.228 213.314 343.129 210.025 327.412Z" fill="#F6EE86"/>
<path d="M290.96 253.759C271.482 271.064 240.92 290.698 232.408 293.006C216.758 296.358 206.744 311.731 210.024 327.413C213.313 343.13 228.724 353.229 244.461 349.934C262.6 346.139 290.719 327.978 312.593 311.102C293.272 302.521 284.889 272.225 290.96 253.759Z" fill="#F2D98D"/>
<path d="M325.105 365.85C351.578 370.486 369.488 369.249 386.727 385.076C402.668 399.711 404.392 424.849 389.529 440.578C374.592 456.386 349.662 456.653 334.388 441.379C316.516 423.507 318.039 405.244 313.222 377.736C311.994 370.714 318.084 364.62 325.105 365.85Z" fill="#CDE9FA"/>
<path d="M437.363 238.52C463.836 243.156 481.746 241.919 498.985 257.746C514.926 272.381 516.65 297.519 501.787 313.248C486.85 329.056 461.92 329.323 446.646 314.049C428.774 296.177 430.297 277.914 425.48 250.406C424.252 243.384 430.342 237.29 437.363 238.52Z" fill="#CDE9FA"/>
<path d="M470.321 435.605C490.93 435.605 507.637 418.898 507.637 398.289C507.637 377.68 490.93 360.973 470.321 360.973C449.712 360.973 433.005 377.68 433.005 398.289C433.005 418.898 449.712 435.605 470.321 435.605Z" fill="#D1C4E9"/>
<path d="M216.216 395.75C208.194 385.7 195.478 379.563 181.383 380.669C161.031 382.265 144.891 399.25 144.266 419.655C143.606 441.199 159.65 458.564 179.633 461.041C187.558 462.023 194.35 466.915 197.94 474.047C206.529 491.109 225.061 502.304 245.931 500.013C270.259 497.343 288.286 476.957 288.21 452.483C288.122 423.866 263.447 402.975 236.867 405.071C228.87 405.702 221.221 402.02 216.216 395.75Z" fill="#D1C4E9"/>
<path d="M197.94 474.048C206.529 491.11 225.061 502.305 245.931 500.014C250.562 499.506 254.963 498.352 259.056 496.653C208.077 480.529 190.733 415.63 198.585 383.02C193.284 381.069 187.463 380.192 181.382 380.668C161.03 382.264 144.89 399.249 144.265 419.654C143.605 441.198 159.648 458.563 179.632 461.04C187.557 462.025 194.35 466.916 197.94 474.048Z" fill="#B0ADE2"/>
<path d="M497.78 423.551C457.622 423.57 447.562 377.766 459.017 362.721C443.935 367.51 433.005 381.621 433.005 398.289C433.005 418.898 449.712 435.605 470.321 435.605C481.185 435.605 490.96 430.96 497.78 423.551Z" fill="#B0ADE2"/>
</svg>
