<svg xmlns="http://www.w3.org/2000/svg" width="512" height="512" fill="none"><g clip-path="url(#a)"><path fill="#B9E6FF" d="M401.793 510.965c11.55 0 20.558-10.129 19.073-21.583C410.285 407.759 340.505 344.711 256 344.711c-84.505 0-154.285 63.048-164.866 144.671-1.485 11.454 7.523 21.583 19.073 21.583h291.586Z"/><path fill="#8DAEE1" d="M324.564 391.037c0-37.867-30.697-68.564-68.564-68.564-37.867 0-68.564 30.697-68.564 68.564 0 37.867 30.697 57.197 68.564 57.197 37.867 0 68.564-19.33 68.564-57.197Z"/><path fill="#FFD3BD" d="M74.154 304.13c39.4 0 71.34-29.605 71.34-66.124 0-36.519-31.94-66.124-71.34-66.124-39.4 0-71.34 29.605-71.34 66.124 0 36.519 31.94 66.124 71.34 66.124Z"/><path fill="#FFBE9D" d="M437.881 304.13c39.4 0 71.34-29.605 71.34-66.124 0-36.519-31.94-66.124-71.34-66.124-39.4 0-71.34 29.605-71.34 66.124 0 36.519 31.94 66.124 71.34 66.124Z"/><path fill="#FFD3BD" d="M453.257 238.005c0 102.116-88.315 167.168-197.257 167.168-108.942 0-197.257-65.052-197.257-167.168S147.058 53.107 256 53.107c108.942 0 197.257 82.781 197.257 184.898Z"/><path fill="#FFBE9D" d="M345.032 389.003c-238.641-5.376-235.091-247.684-166.758-320.978-70.293 28.278-119.531 93.736-119.531 169.98 0 102.116 88.315 167.168 197.257 167.168 32.036.001 62.284-5.631 89.032-16.17Z"/><path fill="#EDA1AB" d="M182.058 260.243c.01 19.016-19.341 34.441-43.22 34.453-23.879.012-43.245-15.394-43.254-34.41-.01-19.016 19.341-34.442 43.22-34.454 23.878-.011 43.244 15.395 43.254 34.411Zm147.885-.073c.01 19.016 19.375 34.422 43.254 34.41 23.879-.012 43.229-15.437 43.22-34.453-.01-19.016-19.375-34.423-43.254-34.41-23.88.011-43.23 15.436-43.22 34.453Z"/><path fill="#fff" d="M298.375 244.618c-.013-26.193-18.989-28.645-42.397-28.633-23.407.012-42.381 2.482-42.368 28.675.013 26.193 18.999 47.416 42.406 47.404 23.407-.01 42.372-21.253 42.359-47.446Z"/><path fill="#4E5660" d="M143.42 230.294a7.5 7.5 0 0 1-7.5-7.496c-.004-7.5 2.913-14.553 8.214-19.859 5.301-5.307 12.351-8.231 19.851-8.235h.014c15.478 0 28.073 12.587 28.081 28.066a7.5 7.5 0 0 1-7.496 7.504h-.004a7.5 7.5 0 0 1-7.5-7.496c-.004-7.21-5.871-13.074-13.081-13.074h-.006a12.997 12.997 0 0 0-9.247 3.836 12.994 12.994 0 0 0-3.826 9.251 7.5 7.5 0 0 1-7.496 7.504l-.004-.001Zm183.962-.092a7.5 7.5 0 0 1-7.5-7.497c-.003-7.5 2.914-14.553 8.214-19.859 5.301-5.307 12.351-8.231 19.852-8.234h.015c15.477 0 28.071 12.587 28.079 28.065a7.5 7.5 0 0 1-7.496 7.504h-.004a7.5 7.5 0 0 1-7.5-7.496c-.004-7.21-5.871-13.073-13.08-13.073h-.007a12.994 12.994 0 0 0-9.247 3.836 13 13 0 0 0-3.827 9.251 7.5 7.5 0 0 1-7.497 7.503h-.002Z"/><path fill="#6DC8DD" d="m332.469 288.888 5.244-12.514c2.88-6.872 12.615-6.872 15.495 0l5.244 12.514a8.4 8.4 0 0 0 4.501 4.501l12.514 5.244c6.871 2.88 6.871 12.615 0 15.495l-12.514 5.244a8.4 8.4 0 0 0-4.501 4.501l-5.244 12.514c-2.879 6.871-12.615 6.871-15.495 0l-5.244-12.514a8.4 8.4 0 0 0-4.501-4.501l-12.514-5.244c-6.871-2.879-6.871-12.615 0-15.495l12.514-5.244a8.403 8.403 0 0 0 4.501-4.501Z"/><path fill="#81DCD9" d="m48.15 83.205-5.244 12.514c-2.88 6.872-12.615 6.872-15.495 0l-5.244-12.514a8.4 8.4 0 0 0-4.501-4.501L5.154 73.46c-6.872-2.879-6.872-12.615 0-15.495l12.514-5.244a8.4 8.4 0 0 0 4.501-4.501l5.244-12.514c2.879-6.871 12.615-6.871 15.495 0l5.244 12.514a8.4 8.4 0 0 0 4.501 4.501l12.514 5.244c6.871 2.88 6.871 12.615 0 15.495l-12.514 5.244a8.4 8.4 0 0 0-4.503 4.501Z"/><path fill="#4E5660" d="M244.718 5.254a17.193 17.193 0 0 1 22.563 0c31.697 27.525 86.071 38.19 119.777 63.32 48.974 36.515 67.951 91.594 70.243 132.562.532 9.512-9.582 15.885-18.017 11.457-32.076-16.84-65.142-50.92-90.49-93.525-22.729 11.561-67.15 14.23-92.794 14.23-25.644 0-70.065-2.669-92.795-14.23-25.348 42.606-58.413 76.685-90.489 93.525-8.435 4.428-18.549-1.945-18.017-11.457 2.292-40.968 21.27-96.047 70.243-132.561 33.706-25.131 88.079-35.797 119.776-63.321Z"/><path fill="#3A4351" d="M169.963 44.465c-16.406 7.093-32.208 14.556-45.022 24.109-48.974 36.514-67.95 91.593-70.243 132.561-.532 9.511 9.582 15.885 18.017 11.457 32.076-16.84 65.142-50.919 90.489-93.525 6.197 3.152 14.012 5.638 22.613 7.594-17.705-19.564-23.392-59.267-15.854-82.196Z"/><path fill="#8BD5FD" d="m463.85 77.024 5.244 12.514c2.879 6.871 12.615 6.871 15.495 0l5.244-12.514a8.4 8.4 0 0 1 4.501-4.5l12.514-5.245c6.871-2.879 6.871-12.615 0-15.495l-12.514-5.244a8.4 8.4 0 0 1-4.501-4.5l-5.244-12.515c-2.879-6.872-12.615-6.872-15.495 0L463.85 42.04a8.4 8.4 0 0 1-4.501 4.501l-12.514 5.244c-6.871 2.88-6.871 12.615 0 15.495l12.514 5.244a8.398 8.398 0 0 1 4.501 4.5Z"/><path fill="#8DAEE1" d="M123.971 409.925c-17.333 22.615-28.993 49.808-32.837 79.457-1.485 11.454 7.523 21.583 19.073 21.583h44.412c6.489-39.152-13.843-80.061-30.648-101.04Zm264.059 0c17.333 22.615 28.993 49.808 32.837 79.457 1.485 11.454-7.523 21.583-19.073 21.583h-44.412c-6.49-39.152 13.842-80.061 30.648-101.04Z"/></g><defs><clipPath id="a"><path fill="#fff" d="M0 0h512v512H0z"/></clipPath></defs></svg>