<svg xmlns="http://www.w3.org/2000/svg" width="512" height="512" fill="none"><g clip-path="url(#a)"><path fill="#EED076" d="M80.752 167.883h350.496v166.181H80.752V167.883Z"/><path fill="#8DAEE1" d="M388.508 37.11H123.492c-29.61 0-53.613 24.002-53.613 53.612v77.16c0 29.61 24.004 53.613 53.613 53.613h265.016c29.61 0 53.613-24.004 53.613-53.613v-77.16c0-29.61-24.003-53.613-53.613-53.613Z"/><path fill="#6A95D6" d="M419.1 131.647c.692-35.336-12.249-68.323-35.109-94.538H123.492a53.407 53.407 0 0 0-21.539 4.516c2.058 6.746 4.693 14.15 8.002 21.318-10.739 19.871-17.086 41.404-17.086 66.002 0 34.151 12.56 66.409 35.707 92.549h259.931c29.61 0 53.613-24.003 53.613-53.613v-26.73a59.021 59.021 0 0 0-23.02-9.504Z"/><path fill="#FFD3BD" d="M428.797 170.201c-10.527-11.06-28.025-11.493-39.085-.965-39.031 37.151-79.954 51.938-87.857 52.716-15.093.049-27.391 12.22-27.548 27.359-.158 15.267 12.091 27.772 27.358 27.93l.406.002c26.225 0 81.528-25.856 125.762-67.957 11.059-10.527 11.491-28.026.964-39.085Z"/><path fill="#B0ADE2" d="M380.049 177.949c-35.885 30.762-70.942 43.288-78.194 44.001-15.093.049-27.391 12.22-27.548 27.359-.158 15.267 12.091 27.772 27.358 27.93l.406.002c23.891 0 71.91-21.464 113.711-57.113-21.042-7.914-32.379-27.479-35.733-42.179Z"/><path fill="#D1C4E9" d="M279.483 216.985h-46.966c-31.877 0-57.719 25.841-57.719 57.719v63.98c0 44.846 36.355 81.202 81.202 81.202 44.846 0 81.202-36.355 81.202-81.202v-63.98c0-31.877-25.842-57.719-57.719-57.719Z"/><path fill="#FFD3BD" d="M320.071 68.109c-2.502-1.618-5.848-.121-6.29 2.825-.989 6.596-3.171 13.956-5.802 18.969-1.396 2.66-4.491 3.905-7.363 3.02-16.095-4.955-35.42-21.36-42.645-34.093-1.172-2.066-3.82-2.764-5.808-1.464-32.871 21.494-99.74 25.513-118.592 27.266-6.31 13.672-9.797 28.631-9.797 44.315 0 64.706 59.199 117.16 132.226 117.16 73.026 0 132.226-52.454 132.226-117.16a104.9 104.9 0 0 0-5.972-34.914c-14.591-.157-46.907-16.046-62.183-25.924Z"/><path fill="#EDA1AB" d="M180.533 178.782c15.379 0 27.846-9.928 27.846-22.175s-12.467-22.175-27.846-22.175-27.846 9.928-27.846 22.175 12.467 22.175 27.846 22.175Zm150.934 0c15.379 0 27.846-9.928 27.846-22.175s-12.467-22.175-27.846-22.175-27.846 9.928-27.846 22.175 12.467 22.175 27.846 22.175Z"/><path fill="#4E5660" d="M196.761 141.699a26.548 26.548 0 0 1-20.021-9.118 7.5 7.5 0 0 1 .727-10.582 7.5 7.5 0 0 1 10.581.727 11.558 11.558 0 0 0 8.713 3.973c3.337 0 6.514-1.448 8.715-3.973a7.497 7.497 0 0 1 10.581-.726 7.5 7.5 0 0 1 .726 10.581 26.557 26.557 0 0 1-20.022 9.118Zm118.478 0a26.551 26.551 0 0 1-20.021-9.118 7.498 7.498 0 0 1 .726-10.581 7.498 7.498 0 0 1 10.581.726 11.563 11.563 0 0 0 8.715 3.973c3.337 0 6.513-1.448 8.714-3.973a7.497 7.497 0 0 1 10.581-.726 7.5 7.5 0 0 1 .726 10.581 26.558 26.558 0 0 1-20.022 9.118Zm-48.13 5.567c0-6.543-4.974-11.847-11.109-11.847s-11.109 5.304-11.109 11.847c0 6.543 4.973 11.847 11.109 11.847 6.135 0 11.109-5.304 11.109-11.847Z"/><path fill="#8DAEE1" d="M437.127 313.726H74.873v136.629c0 34.046 27.6 61.646 61.646 61.646H375.48c34.046 0 61.646-27.6 61.646-61.646V313.726h.001Z"/><path fill="#6A95D6" d="M74.873 313.726h362.254v56.605H74.873v-56.605Z"/><path fill="#F6EE86" d="M307.359 325.491c-8.289-7.689-21.684-1.59-21.429 9.713.474 20.96-7.281 42.068-23.277 58.065-15.997 15.997-37.105 23.751-58.065 23.277-11.303-.255-17.401 13.14-9.713 21.429 14.83 15.987 36.146 25.871 59.767 25.463 42.606-.736 77.443-35.573 78.18-78.179.408-23.622-9.476-44.938-25.463-59.768Z"/><path fill="#EED076" d="M285.93 335.204a79.652 79.652 0 0 1-7.279 35.126h53.037c-3.011-17.59-11.792-33.209-24.329-44.839-8.289-7.688-21.685-1.59-21.429 9.713Z"/><path fill="#FBF1CF" d="M439.439 339.425H72.561c-10.805 0-19.565-8.759-19.565-19.565v-17.485c0-10.805 8.76-19.565 19.565-19.565h366.877c10.805 0 19.565 8.76 19.565 19.565v17.485c.001 10.806-8.759 19.565-19.564 19.565Z"/><path fill="#6E768F" d="M344.001 41.523c4.15-11.058 3.663-26.052.485-36.306-1.694-5.465-8.693-7.018-12.584-2.824-5.881 6.34-14.728 14.293-21.681 19.688C293.672 15.48 275.327 11.787 256 11.787c-26.792 0-51.708 7.076-72.535 19.213-13.822-.645-30.519-6.692-43.246-12.947-5.723-2.812-12.069 2.433-10.416 8.592 3.412 12.717 9.189 28.461 16.431 37.007-4.977 6.556-9.244 13.573-12.663 20.98 18.851-1.754 85.721-5.773 118.592-27.267 1.988-1.3 4.636-.602 5.808 1.465 7.225 12.734 26.55 29.139 42.645 34.094 2.872.883 5.967-.36 7.363-3.022 2.631-5.013 4.813-12.373 5.802-18.969.442-2.946 3.788-4.443 6.29-2.825 15.276 9.879 47.592 25.767 62.183 25.923-7.211-20.493-20.614-38.559-38.253-52.509Z"/><path fill="#FFD3BD" d="M174.798 274.704c0-16.82 7.199-31.954 18.679-42.504-11.912-5.675-22.725-12.922-32.094-21.426-42.623 31.168-47.969 87.13-48.555 104.719-.508 15.26 11.449 28.043 26.71 28.551 15.262.507 28.043-11.451 28.551-26.71.152-4.586 1.093-19.524 6.709-34.501v-8.129Z"/><path fill="#B0ADE2" d="M114.353 298.286c14.02-.237 37.878.808 54.855 6.941.924-6.406 2.59-14.394 5.59-22.394v-8.13c0-16.82 7.199-31.954 18.679-42.504-11.911-5.675-22.725-12.922-32.093-21.426-32.939 24.088-43.609 62.965-47.031 87.513Z"/></g><defs><clipPath id="a"><path fill="#fff" d="M0 0h512v512H0z"/></clipPath></defs></svg>