<svg xmlns="http://www.w3.org/2000/svg" width="512" height="512" fill="none"><g clip-path="url(#a)"><path fill="#FFBE9D" d="M140.299 273.91c-31.219-31.048-64.363-62.658-78.733-126.339-3.725-16.506 6.637-32.909 23.144-36.633 16.51-3.726 32.909 6.638 36.633 23.144 10.457 46.336 33.719 68.078 62.173 96.38 11.998 11.934 12.049 31.335.115 43.333-11.923 11.988-31.326 12.058-43.332.115Z"/><path fill="#FFD3BD" d="M210.921 133.008c24.249 0 43.907-19.657 43.907-43.907 0-24.249-19.658-43.907-43.907-43.907-24.249 0-43.907 19.658-43.907 43.907 0 24.25 19.658 43.907 43.907 43.907Z"/><path fill="#FFBE9D" d="M435.31 357.398c24.249 0 43.907-19.658 43.907-43.907 0-24.249-19.658-43.907-43.907-43.907-24.249 0-43.907 19.658-43.907 43.907 0 24.249 19.658 43.907 43.907 43.907Z"/><path fill="#FFD3BD" d="M259.726 415.441c46.31-46.31 50.103-117.599 8.473-159.23-41.63-41.63-112.92-37.836-159.23 8.473-46.31 46.31-35.418 102.913 6.213 144.544 41.631 41.631 98.234 52.523 144.544 6.213Z"/><path fill="#FFD3BD" d="M434.414 312.664c55.859-55.859 51.286-150.997-10.213-212.496-61.5-61.5-156.638-66.072-212.496-10.214-55.859 55.859-51.286 150.997 10.213 212.496 61.499 61.5 156.637 66.072 212.496 10.214Z"/><path fill="#FFBE9D" d="M277.583 339.696C159.513 215.755 281.461 81.16 361.35 60.099c-52.475-18.708-110.61-9.17-149.607 29.826-55.867 55.867-51.294 151.019 10.215 212.528 16.574 16.574 35.593 29.006 55.625 37.243Z"/><path fill="#E7889D" d="M253.682 189.778c10.402-10.402 8.246-29.424-4.816-42.487-13.062-13.062-32.084-15.218-42.487-4.816-10.402 10.403-8.246 29.425 4.817 42.487 13.062 13.062 32.084 15.218 42.486 4.816Zm128.192 128.218c10.402-10.402 8.246-29.424-4.817-42.487-13.062-13.063-32.084-15.219-42.487-4.817-10.402 10.403-8.246 29.425 4.817 42.487 13.063 13.063 32.085 15.219 42.487 4.817Z"/><path fill="#4E5660" d="M261.993 169.271a7.5 7.5 0 0 1-5.304-12.803l9.67-9.67a7.5 7.5 0 0 1 10.607 10.607l-9.67 9.67a7.477 7.477 0 0 1-5.303 2.196ZM362.64 269.919a7.5 7.5 0 0 1-5.304-12.803l9.67-9.67a7.5 7.5 0 0 1 10.607 10.607l-9.67 9.67a7.483 7.483 0 0 1-5.303 2.196Zm-38.482-37.286a32.37 32.37 0 0 1-22.901-9.479 32.386 32.386 0 0 1-9.402-25.128 7.5 7.5 0 1 1 14.965 1.027 17.389 17.389 0 0 0 5.045 13.494 17.417 17.417 0 0 0 13.494 5.045c4.125-.264 7.713 2.836 7.996 6.969a7.5 7.5 0 0 1-6.969 7.996 33.25 33.25 0 0 1-2.228.076Zm136.974 41.62c24.995-54.822 12.119-125.133-36.86-174.113-48.98-48.98-119.292-61.855-174.114-36.86 35.802 39.565 104.464 82.133 137.467 73.506-8.626 33.003 33.942 101.665 73.507 137.467Z"/><path fill="#383C43" d="M292.189 100.269c22.36-20.182 47.333-34.417 69.167-40.172-37.163-13.25-77.165-12.334-111.198 3.183 11.411 12.61 26.162 25.523 42.031 36.989Z"/><path fill="#A2DDFD" d="M512 314.462c0-16.45-10.077-31.308-25.456-37.146-25.83-9.806-56.141-4.307-76.944 16.496-28.277 28.277-74.123 28.277-102.4 0s-74.123-28.277-102.4 0-74.123 28.277-102.4 0c-20.803-20.803-51.115-26.301-76.944-16.496C10.077 283.154 0 298.013 0 314.462v107.139c0 24.966 20.239 45.204 45.204 45.204h421.592c24.966 0 45.204-20.238 45.204-45.204V314.462Z"/><path fill="#7ACDF9" d="M166.758 313.807c-22.63 4.161-46.857-2.495-64.357-19.996-20.803-20.803-51.115-26.301-76.944-16.496C10.077 283.154 0 298.013 0 314.462v107.139c0 24.966 20.238 45.204 45.204 45.204h153.367c-30.613-26.562-41.098-103.296-31.813-152.998Z"/><path fill="#A2DDFD" d="M114.793 408.766c-13.47 0-26.94-5.128-37.195-15.382a7.5 7.5 0 0 1 10.607-10.607c14.66 14.662 38.516 14.662 53.176 0a7.5 7.5 0 0 1 10.607 10.607c-10.255 10.254-23.725 15.382-37.195 15.382Z"/><path fill="#7ACDF9" d="M271.217 392.471c-14.051 0-27.26-5.472-37.195-15.406a7.5 7.5 0 0 1 10.607-10.607c7.102 7.103 16.544 11.014 26.588 11.014 10.043 0 19.485-3.911 26.587-11.013a7.5 7.5 0 0 1 10.606-.001 7.5 7.5 0 0 1 .001 10.607c-9.934 9.934-23.144 15.406-37.194 15.406Zm142.04 22.925c-14.05 0-27.26-5.472-37.194-15.407a7.498 7.498 0 0 1 .001-10.606 7.5 7.5 0 0 1 10.606.001c7.102 7.102 16.544 11.013 26.587 11.013 10.044 0 19.486-3.911 26.588-11.014a7.5 7.5 0 0 1 10.607 10.607c-9.935 9.934-23.144 15.406-37.195 15.406Z"/></g><defs><clipPath id="a"><path fill="#fff" d="M0 0h512v512H0z"/></clipPath></defs></svg>