<svg xmlns="http://www.w3.org/2000/svg" width="512" height="512" fill="none"><g clip-path="url(#a)"><path fill="#CEEAFB" d="M299.385 509.765c33.843 0 61.278-27.435 61.278-61.278s-27.435-61.278-61.278-61.278-61.278 27.435-61.278 61.278 27.435 61.278 61.278 61.278ZM294.67 2.258c-30.191-.725-56.343 16.876-68.143 42.463-3.066 6.649-10.494 10.054-17.468 7.824-51.791-16.564-108.647 21.47-108.647 79.579 0 46.086 37.36 83.446 83.446 83.446 37.394 0 69.025-24.602 79.629-58.5 2.189-6.997 9.268-11.18 16.48-9.862 42.06 7.683 83.085-23.219 85.804-67.27 2.537-41.105-29.931-76.691-71.101-77.68Z"/><path fill="#A3DEFE" d="M255.172 175.43c-67.841-3.905-92.726-78.992-75.173-126.679-41.934 2.095-79.586 36.086-79.586 83.373 0 46.086 37.36 83.446 83.446 83.446 30.225 0 56.678-16.077 71.313-40.14ZM355.4 423.648c-9.532-21.463-31.018-36.439-56.016-36.439-33.843 0-61.278 27.435-61.278 61.278 0 20.256 9.834 38.209 24.981 49.365 18.439-6.583 35.34-17.231 49.595-31.486l42.718-42.718Z"/><path fill="#FFD3BD" d="M439.658 245.664c-13.812-13.812-36.204-13.813-50.017-.002l23.53-23.53c13.812-13.812 13.812-36.207 0-50.019-13.812-13.812-36.207-13.812-50.019 0l12.895-12.895c13.813-13.812 13.813-36.207 0-50.019-13.812-13.812-36.207-13.812-50.019 0l-32.821 32.821c13.81-13.813 13.81-36.205-.002-50.017-13.812-13.812-36.207-13.812-50.019 0l-89.241 89.241v-20.882c0-25.79-20.907-46.697-46.697-46.697-25.79 0-46.697 20.907-46.697 46.697v156.989c0 26.391 10.068 52.781 30.203 72.916l54.244 54.244c40.271 40.271 105.562 40.271 145.833 0l21.205-21.206 127.623-127.623c13.812-13.811 13.812-36.205-.001-50.018Z"/><path fill="#FFBE9D" d="M142.899 130.218c-8.566-10.121-21.355-16.553-35.652-16.553-25.79 0-46.697 20.907-46.697 46.697v156.989c0 26.391 10.068 52.781 30.203 72.917l54.244 54.244c23.795 23.795 56.325 33.526 87.268 29.201-139.882-89.98-117.845-262.765-89.366-343.495Zm85.766 83.844a7.474 7.474 0 0 1-5.303-2.197 7.5 7.5 0 0 1 0-10.606l64.54-64.54a7.5 7.5 0 0 1 10.606 0 7.5 7.5 0 0 1 0 10.606l-64.539 64.54a7.482 7.482 0 0 1-5.304 2.197Zm59.648 40.39a7.5 7.5 0 0 1-5.303-12.804l74.839-74.839a7.5 7.5 0 0 1 10.607 10.606l-74.839 74.839a7.479 7.479 0 0 1-5.304 2.198Zm38.5 61.538a7.474 7.474 0 0 1-5.303-2.197 7.5 7.5 0 0 1 0-10.606l62.828-62.828a7.5 7.5 0 0 1 10.606 0 7.5 7.5 0 0 1 0 10.606l-62.828 62.828a7.476 7.476 0 0 1-5.303 2.197Z"/><path fill="#CEEAFB" d="M512 253.706c0-40.925-33.656-73.988-74.8-73.022-38.854.912-70.497 32.678-71.27 71.536-.374 18.78 6.351 35.975 17.665 49.107 5.111 5.932 6.236 14.433 2.773 21.457-4.415 8.956-6.649 19.18-6.006 29.979 1.799 30.21 26.47 54.521 56.701 55.911 34.21 1.573 62.439-25.697 62.439-59.56 0-9.759-2.35-18.966-6.511-27.095-3.612-7.057-2.88-15.59 2.185-21.689C505.682 287.682 512 271.433 512 253.706Z"/><path fill="#A3DEFE" d="M484.551 388.581c-57.468 6.88-81.042-46.818-56.374-82.019 2.791-3.982 1.756-9.549-2.291-12.245-29.959-19.962-39.533-78.34-6.466-110.979-30.3 8.477-52.84 36.164-53.491 68.883-.375 18.847 6.399 36.098 17.786 49.247 5.134 5.928 6.121 14.281 2.653 21.315-4.416 8.956-6.649 19.18-6.006 29.98 1.812 30.432 26.824 54.827 57.29 55.936 18.68.679 35.521-7.249 46.899-20.118Z"/><path fill="#CEEAFB" d="M112.399 278.988c6.689-30.681-12.76-60.976-43.441-67.665-30.682-6.689-60.976 12.761-67.665 43.442-6.689 30.681 12.76 60.976 43.442 67.665 30.681 6.689 60.976-12.761 67.664-43.442Z"/><path fill="#A3DEFE" d="M56.861 323.657c16.513 0 31.376-7.046 41.764-18.287-81.321 4.638-84.218-68.042-64.676-90.614C13.96 223.57 0 243.547 0 266.796c0 31.404 25.457 56.861 56.861 56.861Z"/></g><defs><clipPath id="a"><path fill="#fff" d="M0 0h512v512H0z"/></clipPath></defs></svg>