<svg xmlns="http://www.w3.org/2000/svg" width="512" height="512" fill="none"><path fill="#4E5660" d="M386.53 126.991c0 31.641 22.338 64.797 36.73 82.241 4.518 5.477 4.07 13.526-1.118 18.372-26.311 24.579-91.344 47.938-165.636 47.938S117.181 252.183 90.87 227.604c-5.188-4.847-5.636-12.896-1.118-18.372 14.392-17.444 36.73-50.6 36.73-82.241H386.53Z"/><path fill="#4E5660" d="M386.53 126.991c0 31.641 22.338 64.797 36.73 82.241 4.518 5.477 4.07 13.526-1.118 18.372-26.311 24.579-91.344 47.938-165.636 47.938S117.181 252.183 90.87 227.604c-5.188-4.847-5.636-12.896-1.118-18.372 14.392-17.444 36.73-50.6 36.73-82.241H386.53Z"/><path fill="#383C43" d="M119.963 223.295c-6.843 8.999-3.57 21.993 6.738 26.634 32.708 14.727 79.094 25.613 129.806 25.613 50.296 0 96.332-10.709 128.993-25.252 10.36-4.613 13.649-17.661 6.775-26.681-18.992-24.921-41.928-61.695-56.329-96.618H176.054c-14.342 34.777-37.146 71.389-56.091 96.304Z"/><path fill="#FFD4BE" d="M36.38 393.277C15.147 392.105-1.113 373.945.06 352.714c1.172-21.231 19.332-37.491 40.563-36.319 26.227 1.448 35.376-3.132 41.356-8.297 11.334-9.788 21.769-32.48 31.016-67.447 5.436-20.556 26.506-32.817 47.063-27.376 20.556 5.436 32.813 26.507 27.376 47.063-13.849 52.366-30.851 85.069-55.129 106.035-31.059 26.825-67.58 28.469-95.926 26.904Z"/><path fill="#3CB767" d="M160.059 213.275c-20.558-5.44-41.628 6.821-47.063 27.376-5.054 19.111-10.464 34.547-16.181 46.223l72.634 26.437c6.644-14.96 12.559-32.45 17.987-52.972 5.435-20.557-6.822-41.628-27.377-47.064Z"/><path fill="#FFD4BE" d="M475.621 393.277c21.231-1.172 37.491-19.332 36.319-40.563-1.172-21.231-19.332-37.491-40.563-36.319-26.227 1.448-35.376-3.132-41.356-8.297-11.334-9.788-21.769-32.48-31.016-67.447-5.436-20.556-26.506-32.817-47.063-27.376-20.556 5.436-32.813 26.507-27.376 47.063 13.849 52.366 30.851 85.069 55.129 106.035 31.059 26.825 67.579 28.469 95.926 26.904Z"/><path fill="#3CB767" d="M351.941 213.275c20.558-5.44 41.628 6.821 47.063 27.376 5.054 19.111 10.464 34.547 16.181 46.223l-72.634 26.437c-6.644-14.96-12.559-32.45-17.987-52.972-5.435-20.557 6.822-41.628 27.377-47.064Z"/><path fill="#6FCE91" d="M374.696 312.839c0-68.409-53.142-129.569-118.696-129.569s-118.696 61.16-118.696 129.569c0 68.409 53.142 111.302 118.696 111.302s118.696-42.893 118.696-111.302Z"/><path fill="#FFD4BE" d="M142.971 507.237c4.373 0 8.817-.75 13.164-2.332L382.2 422.624c19.98-7.272 30.283-29.365 23.01-49.345s-29.367-30.282-49.345-23.01L129.8 432.549c-19.98 7.272-30.283 29.365-23.011 49.345 5.691 15.633 20.457 25.343 36.182 25.343Z"/><path fill="#FFBF9E" d="M288.162 374.91 129.8 432.549a38.373 38.373 0 0 0-13.357 8.271 60.884 60.884 0 0 0 5.832 2.476l101.563 36.966L382.2 422.623a38.367 38.367 0 0 0 13.357-8.271 60.884 60.884 0 0 0-5.832-2.476L288.162 374.91Z"/><path fill="#F7EF87" d="m170.204 417.843 185.661-67.575c19.978-7.272 42.073 3.03 49.345 23.01 7.272 19.98-3.03 42.073-23.01 49.345l-185.66 67.575-26.336-72.355Z"/><path fill="#EFD176" d="M382.201 422.623a38.367 38.367 0 0 0 13.357-8.271 60.884 60.884 0 0 0-5.832-2.476L288.162 374.91l-117.957 42.933 17.998 49.449 35.636 12.97 158.362-57.639Z"/><path fill="#FFD4BE" d="M369.029 507.237a38.42 38.42 0 0 1-13.164-2.332L129.8 422.623c-19.98-7.272-30.283-29.365-23.01-49.345s29.367-30.282 49.345-23.01L382.2 432.549c19.98 7.272 30.283 29.365 23.011 49.345-5.69 15.633-20.456 25.343-36.182 25.343Z"/><path fill="#F7EF87" d="m341.796 417.843-185.661-67.575c-19.978-7.272-42.073 3.03-49.345 23.01-7.272 19.98 3.03 42.073 23.01 49.345l185.661 67.575 26.335-72.355Z"/><path fill="#FFD4BE" d="M135.071 165.695c25.845 0 46.797-17.328 46.797-38.704s-20.952-38.704-46.797-38.704c-25.845 0-46.797 17.328-46.797 38.704s20.952 38.704 46.797 38.704Z"/><path fill="#FFBF9E" d="M376.928 165.695c25.845 0 46.797-17.328 46.797-38.704s-20.952-38.704-46.797-38.704c-25.845 0-46.797 17.328-46.797 38.704s20.952 38.704 46.797 38.704Z"/><path fill="#FFD4BE" d="M256 249.218c71.53 0 129.516-54.723 129.516-122.227S327.53 4.764 256 4.764 126.484 59.487 126.484 126.99 184.47 249.218 256 249.218Z"/><path fill="#FFD4BE" d="M256 249.218c71.53 0 129.516-54.723 129.516-122.227S327.53 4.764 256 4.764 126.484 59.487 126.484 126.99 184.47 249.218 256 249.218Z"/><path fill="#FFBF9E" d="M320.209 233.161C157.958 234.838 147.906 93.628 189.456 22.115 151.732 43.48 126.483 82.45 126.483 126.99c0 67.504 57.986 122.227 129.516 122.227 23.366.001 45.284-5.841 64.21-16.056Z"/><path fill="#EDA1AB" d="M178.665 187.092c15.759 0 28.535-10.174 28.535-22.724 0-12.551-12.776-22.724-28.535-22.724-15.76 0-28.535 10.173-28.535 22.724 0 12.55 12.775 22.724 28.535 22.724Zm154.67 0c15.759 0 28.535-10.174 28.535-22.724 0-12.551-12.776-22.724-28.535-22.724-15.76 0-28.535 10.173-28.535 22.724 0 12.55 12.775 22.724 28.535 22.724Z"/><path fill="#4E5660" d="M195.295 148.907a27.023 27.023 0 0 1-20.377-9.28 7.5 7.5 0 0 1 11.309-9.855 12.029 12.029 0 0 0 9.068 4.135 12.03 12.03 0 0 0 9.069-4.135 7.501 7.501 0 0 1 11.309 9.855 27.03 27.03 0 0 1-20.378 9.28Zm121.41 0a27.027 27.027 0 0 1-20.378-9.28 7.5 7.5 0 0 1 11.309-9.855 12.03 12.03 0 0 0 9.069 4.135c3.473 0 6.778-1.507 9.068-4.135a7.5 7.5 0 0 1 11.309 9.855 27.026 27.026 0 0 1-20.377 9.28Zm-49.321 5.889c0-6.705-5.097-12.141-11.384-12.141s-11.383 5.436-11.383 12.141 5.097 12.141 11.383 12.141c6.287-.001 11.384-5.436 11.384-12.141ZM256 4.763c-61.834 0-113.538 40.896-126.422 95.588 35.379 1.88 125.043-1.661 163.425-41.011 27.855 45.982 62.467 50.627 90.433 45.734C372.492 48.029 319.601 4.763 256 4.763Z"/><path fill="#383C43" d="M168.702 100.049c.377-28.415 8.208-56.322 20.733-77.896-29.953 16.978-52.046 45.042-59.856 78.198 9.689.515 23.456.621 39.123-.302Z"/></svg>