<svg width="513" height="512" viewBox="0 0 513 512" fill="none" xmlns="http://www.w3.org/2000/svg">
<path d="M505.114 134.83L379.392 134.831V9.10802L190.807 9.10797C174.135 9.10824 127.946 9.10802 127.946 9.10802C127.946 9.10802 127.946 55.2973 127.946 71.9689V134.83H2.22342V386.276H127.945L127.946 511.999H379.392L379.391 386.277H505.114V134.83Z" fill="#FF8E9E"/>
<path d="M127.94 134.831H65.0841C48.4138 134.836 2.22392 134.831 2.22392 134.831C2.22392 134.831 2.22792 181.022 2.22314 197.692V323.415C2.22341 340.087 2.22331 386.276 2.22331 386.276C2.22331 386.276 48.4124 386.276 65.0841 386.276H127.945V449.137C127.945 465.809 127.945 511.998 127.945 511.998C127.945 511.998 174.134 511.998 190.806 511.998H316.53C325.117 511.997 342 511.998 342 511.998H380C273.676 413.974 175.508 271.399 127.94 134.831Z" fill="#EA5B70"/>
</svg>
