<svg width="512" height="512" viewBox="0 0 512 512" fill="none" xmlns="http://www.w3.org/2000/svg">
<path d="M195.614 442.869L67.0282 312.66C51.1045 296.535 42.1492 274.834 42.1322 252.329C42.1151 229.825 51.0378 208.361 66.9374 192.66L195.329 65.8689C211.228 50.1676 232.802 41.5148 255.305 41.8141C277.807 42.1135 299.395 51.3403 315.318 67.465L443.904 197.674L466.523 220.578L503.944 258.472L474.425 287.624L443.995 317.674L315.604 444.465C307.731 452.24 298.382 458.365 288.092 462.493C277.801 466.62 266.77 468.668 255.628 468.52C244.486 468.372 233.451 466.03 223.154 461.629C212.857 457.228 203.499 450.853 195.614 442.869Z" fill="#BF86FC"/>
<path d="M315.318 67.465C299.395 51.3404 255.278 6.66699 255.278 6.66699C255.278 6.66699 211.228 50.1676 195.329 65.8689L66.9373 192.66C51.0378 208.361 6.98808 251.862 6.98808 251.862C6.98808 251.862 51.1046 296.535 67.0282 312.66L195.614 442.869L255.654 503.667L315.604 444.465C211.427 338.973 211.301 170.186 315.318 67.465Z" fill="#996ACC"/>
</svg>
