<svg width="512" height="512" viewBox="0 0 512 512" fill="none" xmlns="http://www.w3.org/2000/svg">
<path d="M217.5 25.5C229.819 15.85 255.5 0 255.5 0C255.5 0 284.181 15.85 296.5 25.5L474.34 158.032C485.435 166.723 509 187.5 509 187.5C509 187.5 502.262 219.838 498.196 233.332L429.225 462.2C424.885 476.6 416.023 489.219 403.951 498.188C391.879 507.158 377.24 512.001 362.2 512H149.8C134.761 512 98.5 512 98.5 512C98.5 512 87.117 476.599 82.7772 462.2L13.8002 233.336C9.73426 219.842 0 188.5 0 188.5C0 188.5 26.5617 166.727 37.6562 158.036L217.5 25.5Z" fill="#E26E7E"/>
<path d="M313.8 512L414.333 218.294L187.5 47L218.5 25C230.82 15.3495 255.5 0 255.5 0C255.5 0 280.18 13.3495 292.5 23L474.34 158.029C485.434 166.72 509.5 187 509.5 187C509.5 187 502.26 219.835 498.194 233.329L429.225 462.193C424.885 476.592 412 510.5 412 510.5C412 510.5 377.242 511.994 362.203 511.994L313.8 512Z" fill="#E26274"/>
</svg>
