<svg width="512" height="512" viewBox="0 0 512 512" fill="none" xmlns="http://www.w3.org/2000/svg">
<path d="M388.459 511.333H123.875C91.1096 511.333 59.6865 498.317 36.518 475.149C13.3496 451.98 0.33374 420.557 0.33374 387.792V123.208C0.33374 90.4429 13.3496 59.0197 36.518 35.8513C59.6865 12.6829 91.1096 -0.333008 123.875 -0.333008H388.459H435H512V60.5V123.208V387.792C512 404.016 508.804 420.08 502.596 435.069C496.387 450.058 487.287 463.677 475.815 475.149C464.344 486.62 450.724 495.72 435.736 501.929C420.747 508.137 404.682 511.333 388.459 511.333Z" fill="#FF8A98"/>
<path d="M123.875 -0.333008C91.1096 -0.333008 0.33374 -0.333008 0.33374 -0.333008C0.33374 -0.333008 0.33374 90.4429 0.33374 123.208V387.792C0.33374 420.557 0.33374 511.333 0.33374 511.333C0.33374 511.333 91.1096 511.333 123.875 511.333H388.459H512V387.792C297.642 387.792 123.875 214.022 123.875 -0.333008Z" fill="#FD5C6F"/>
</svg>
