<svg width="512" height="512" viewBox="0 0 512 512" fill="none" xmlns="http://www.w3.org/2000/svg">
<path d="M97 0H415C427.465 0 439.42 4.95177 448.234 13.766C457.048 22.5802 462 34.5348 462 47L512 465C512 477.465 507.048 489.42 498.234 498.234C489.42 507.048 477.465 512 465 512H47C34.5348 512 22.5802 507.048 13.766 498.234C4.95177 489.42 0 477.465 0 465L50 47C50 34.5348 54.9518 22.5802 63.766 13.766C72.5802 4.95177 84.5348 0 97 0V0Z" fill="#FDCBD8"/>
<path d="M47 511.998C34.5348 511.998 22.5802 507.047 13.766 498.233C4.95178 489.419 0 477.464 0 464.998L50 46.9984C50 34.5332 54.9518 22.5782 63.766 13.764C72.5802 4.94983 84.5348 -0.00158691 97 -0.00158691H128.654L76.844 391.957C76.844 391.957 43.402 474.408 309.855 510.996C312.229 511.322 314.525 511.654 316.77 511.996L47 511.998Z" fill="#FF8A98"/>
</svg>
