<svg xmlns="http://www.w3.org/2000/svg" width="512" height="512" fill="none"><g clip-path="url(#a)"><path fill="#FFB357" d="M106.616 317.156H310.63v130.38H106.616v-130.38Z"/><path fill="#FFCE71" d="M412.764 423.902 269.663 42.3H184.84v184.773l23.784 23.783 82.06 218.827c9.814 26.172 34.654 42.32 61.049 42.317 7.604 0 15.342-1.34 22.882-4.167 33.71-12.644 50.79-50.219 38.149-83.931Z"/><path fill="#FFB357" d="M269.663 42.3C260.122 16.857 235.798 0 208.623 0c-27.175 0-51.499 16.857-61.041 42.3L4.483 423.903c-12.641 33.711 4.44 71.286 38.15 83.929 33.708 12.638 71.288-4.438 83.931-38.151l82.06-218.827.001.002v-59.875a211.593 211.593 0 0 1 61.038-148.68Z"/><path fill="#FF8E9E" d="M126.666 250.125c16.701 0 30.241-10.782 30.241-24.082 0-13.301-13.54-24.083-30.241-24.083-16.702 0-30.241 10.782-30.241 24.083 0 13.3 13.539 24.082 30.241 24.082Zm163.916 0c16.701 0 30.241-10.782 30.241-24.082 0-13.301-13.54-24.083-30.241-24.083-16.702 0-30.241 10.782-30.241 24.083 0 13.3 13.539 24.082 30.241 24.082Z"/><path fill="#313D40" d="M144.29 182.771a7.728 7.728 0 0 0-7.727 7.727v12.362a7.727 7.727 0 0 0 15.453 0v-12.362a7.726 7.726 0 0 0-7.726-7.727Zm128.667 0a7.727 7.727 0 0 0-7.726 7.727v12.362a7.727 7.727 0 0 0 15.453 0v-12.362a7.727 7.727 0 0 0-7.727-7.727Zm-42.296 13.896a7.725 7.725 0 0 0-10.901.749 14.774 14.774 0 0 1-11.136 5.077c-4.266 0-8.325-1.85-11.137-5.077a7.727 7.727 0 0 0-11.65 10.152 30.222 30.222 0 0 0 22.787 10.377 30.222 30.222 0 0 0 22.786-10.377 7.727 7.727 0 0 0-.749-10.901Z"/><path fill="#C77464" d="M404.244 174.262h-19.299c-7.995 0-14.476 6.481-14.476 14.475v212.755a16.835 16.835 0 0 0 16.838 16.838h14.574c9.293 0 16.837-7.54 16.837-16.838V188.736c0-7.994-6.48-14.474-14.474-14.474Z"/><path fill="#D4D4FF" d="m491.191 237.167 20.493 20.492a153.936 153.936 0 0 1-1.377 20.601 153.649 153.649 0 0 1-9.031 35.031c-3.759 9.677-14.233 14.943-24.263 12.269-9.358-2.495-17.593-4.744-26.515-6.695v-81.7h40.693v.002Z"/><path fill="#9EA2E3" d="M450.499 244.255v-44.669c8.13-2.195 17.133-5.684 25.709-8.543 12.109-3.46 22.073 2.948 25.572 12.204a153.7 153.7 0 0 1 9.906 54.413 95.5 95.5 0 0 0-61.187-13.405Z"/><path fill="#FF8E9E" d="M374.453 310.688h-3.873c-11.992 0-21.713-9.721-21.713-21.712v-31.362l-29.716-29.717c-6.839-6.839-1.996-18.532 7.676-18.532h43.752c29.335 0 53.536-2.654 79.919-9.779 8.635 13.594 14.579 28.314 16.803 44.162.636 4.53.984 9.149.984 13.866 0 9.057-.962 17.948-2.923 26.524-2.831 12.381-7.744 24.106-14.864 34.728-23.428-5.123-47.247-8.179-76.045-8.178Z"/><path fill="#EA5B70" d="M428.177 249.681a95.506 95.506 0 0 0-57.597 61.007c-11.992 0-21.713-9.721-21.713-21.712v-31.362l-29.716-29.717c-6.839-6.839-1.996-18.532 7.676-18.532h43.752c29.335 0 53.536-2.654 79.919-9.779 8.635 13.594 14.579 28.314 16.803 44.162a95.416 95.416 0 0 0-39.124 5.933Z"/></g><defs><clipPath id="a"><path fill="#fff" d="M0 0h512v512H0z"/></clipPath></defs></svg>