<svg xmlns="http://www.w3.org/2000/svg" width="512" height="512" fill="none"><g clip-path="url(#a)"><path fill="#55DAFE" d="m315.243 255.999-129.106-65.193c16.961 0 30.703-14.052 30.196-31.125-.488-16.431-14.4-29.296-30.838-29.296H65.298V0h119.304c88.565 0 161.596 71.062 162.12 159.63.213 36.068-11.524 69.435-31.479 96.369Z"/><path fill="#1CBBEA" d="M346.725 351.403c0-35.699-11.704-68.71-31.481-95.404-28.701-38.739-80.896-65.193-129.107-65.193h-55.649v-60.421C87.848 98.039 65.298 49.627 65.298 0 29.295 0 .109 29.188.109 65.193v381.614C.11 482.812 29.295 512 65.298 512h120.838c88.549 0 160.589-72.044 160.589-160.597Zm-130.379 0c0 16.658-13.552 30.211-30.21 30.211h-55.649v-60.422h55.649c16.658 0 30.21 13.553 30.21 30.211Z"/><path fill="#FF8E9E" d="M91.46 291.332c16.701 0 30.24-10.782 30.24-24.082 0-13.301-13.539-24.083-30.24-24.083-16.702 0-30.241 10.782-30.241 24.083 0 13.3 13.539 24.082 30.24 24.082Zm163.915 0c16.701 0 30.241-10.782 30.241-24.082 0-13.301-13.54-24.083-30.241-24.083-16.702 0-30.241 10.782-30.241 24.083 0 13.3 13.539 24.082 30.241 24.082Z"/><path fill="#313D40" d="M109.084 223.979a7.727 7.727 0 0 0-7.727 7.726v12.363a7.727 7.727 0 0 0 15.453 0v-12.363a7.725 7.725 0 0 0-7.726-7.726Zm128.666 0a7.726 7.726 0 0 0-7.726 7.726v12.363a7.727 7.727 0 0 0 15.453 0v-12.363a7.726 7.726 0 0 0-7.727-7.726Zm-42.296 13.895a7.727 7.727 0 0 0-10.901.749 14.771 14.771 0 0 1-11.136 5.078 14.77 14.77 0 0 1-11.137-5.078 7.727 7.727 0 0 0-11.65 10.152 30.219 30.219 0 0 0 22.787 10.377 30.218 30.218 0 0 0 22.786-10.377 7.727 7.727 0 0 0-.749-10.901Z"/><path fill="#CE857A" d="m342.829 421.95-51.081 75.815a4.405 4.405 0 0 1-.215.293c-7.13 8.86-17.735 13.942-29.097 13.942-20.583 0-37.327-16.746-37.327-37.328 0-11.362 5.278-22.11 14.138-29.239l75.913-51.152h27.669v27.669Z"/><path fill="#FCE3A0" d="M426.166 251.615c16.383-16.383 42.944-16.383 59.327 0 16.383 16.383 16.383 42.944 0 59.327h-59.327v-59.327Z"/><path fill="#FFCE71" d="m502.672 328.12-2.001-2.001-44.842-44.841-1.999-2.001-5.03-5.029c-20.616-20.616-54.929-17.264-71.165 6.953l-68.104 101.582 44.817 44.817c27.391 10.642 59.539 5.373 82.21-15.82a142.308 142.308 0 0 1 52.178-31.068l1.65-.55c22.166-7.388 28.807-35.52 12.286-52.042Z"/><path fill="#FFB357" d="M401.238 293.213a113.44 113.44 0 0 1-29.193 50.239c-22.751 22.751-28.647 55.969-17.697 84.151-9.88-3.84-19.143-9.744-27.116-17.726-30.746-30.715-30.755-80.539-.029-111.267a113.418 113.418 0 0 0 29.192-50.237v-.001c6.379-23.285 35.522-31.006 52.592-13.935l44.842 44.842c-17.071-17.071-46.212-9.35-52.591 13.934Z"/></g><defs><clipPath id="a"><path fill="#fff" d="M0 0h512v512H0z"/></clipPath></defs></svg>