<svg xmlns="http://www.w3.org/2000/svg" width="512" height="512" fill="none"><g clip-path="url(#a)"><path fill="#B9F0FF" d="m228.778 147.557 10.66 29.973c4.151 11.673 20.659 11.673 24.81 0l2.555-7.184 12.813 36.029c4.151 11.673 20.659 11.673 24.811 0l20.916-58.818-51.865-30.906-44.7 30.906Zm-127.026 218.8 43.455 122.196c4.547 12.786 22.631 12.786 27.178 0l43.455-122.196H101.752Zm100.046 60.138 17.036 47.905c4.152 11.673 20.659 11.673 24.811 0l2.555-7.183 12.812 36.028c4.152 11.673 20.66 11.673 24.811 0l13.11-36.865 4.318 12.141c4.151 11.673 20.659 11.673 24.811 0l18.499-52.026H201.798Zm154.767-27.574 20.917 58.818c4.152 11.673 20.659 11.673 24.811 0l20.917-58.818h-66.645Zm8.242-228.7 20.916 58.818c4.152 11.673 20.66 11.673 24.811 0l20.917-58.818h-66.644Z"/><path fill="#7CE3FF" d="M279.2 138.421c23.87 0 46.278 9.216 63.095 25.953 27.076 26.944 70.871 26.942 97.915-.271 26.912-27.081 26.789-71.02-.273-97.949C395.973 22.401 338.166 0 279.195 0l-88.952 42.237v180.885c.88-21.437 9.578-42.551 25.854-58.747 16.82-16.737 39.23-25.954 63.103-25.954Zm161.01 150.747c-27.036-27.204-70.83-27.222-97.913-.274-34.805 34.635-91.393 34.634-126.199 0-16.348-16.268-24.874-37.072-25.847-58.092v187.324l88.946 35.154c60.78 0 117.866-23.498 160.739-66.163 27.063-26.93 27.186-70.87.274-97.949Z"/><path fill="#1CBBEA" d="M190.242 223.122C191.084 142.927 220.72 62.978 279.195 0 151.814 0 51.689 102.831 51.686 226.634c0 60.644 23.713 117.638 66.77 160.484 42.878 42.664 99.963 66.162 160.741 66.162-58.318-62.808-87.953-142.499-88.948-222.478a87.424 87.424 0 0 1-.007-7.68Z"/><path fill="#FF8E9E" d="M178.127 124.203c16.701 0 30.241-10.782 30.241-24.083 0-13.3-13.54-24.082-30.241-24.082-16.702 0-30.241 10.782-30.241 24.082 0 13.301 13.539 24.083 30.241 24.083Zm186.58 0c16.701 0 30.241-10.782 30.241-24.083 0-13.3-13.54-24.082-30.241-24.082-16.702 0-30.241 10.782-30.241 24.082 0 13.301 13.539 24.083 30.241 24.083Z"/><path fill="#fff" d="m249.963 107.969 7.502-3.087 7.5 4.307c3.808.084 9.084.084 12.904 0l7.499-4.307 7.502 3.087c10.996-1.902 18.281-6.52 18.281-17.516 0-10.995-7.287-20.653-18.281-26.187l-7.502-.005-7.499-4.51a50.983 50.983 0 0 0-12.904 0l-7.5 4.51-7.502.005c-10.994 5.534-18.28 15.192-18.28 26.187.001 10.997 7.284 15.614 18.28 17.516Z"/><path fill="#D4D4FF" d="M292.869 64.267c-4.467-2.25-9.546-3.817-15.001-4.515v49.437c5.455-.121 10.533-.446 15.001-1.219V64.267Zm-27.904-4.515c-5.455.698-10.533 2.266-15.002 4.515v43.702c4.468.774 9.547 1.098 15.002 1.219V59.752Z"/><path fill="#fff" d="M195.751 42.237c-12.78 0-23.179 10.398-23.179 23.18v10.678c0 12.782 10.399 23.18 23.179 23.18 12.781 0 23.179-10.398 23.179-23.18V65.416c0-12.781-10.397-23.179-23.179-23.179Zm151.332 0c-12.781 0-23.179 10.398-23.179 23.18v10.678c0 12.782 10.398 23.18 23.179 23.18 12.78 0 23.179-10.398 23.179-23.18V65.416c0-12.781-10.399-23.179-23.179-23.179Z"/><path fill="#313D40" d="M195.751 57.69a7.726 7.726 0 0 0-7.726 7.726v10.68a7.726 7.726 0 1 0 15.452 0v-10.68a7.726 7.726 0 0 0-7.726-7.726Zm151.332 0a7.727 7.727 0 0 0-7.727 7.726v10.68a7.727 7.727 0 0 0 15.453 0v-10.68a7.726 7.726 0 0 0-7.726-7.726Z"/></g><defs><clipPath id="a"><path fill="#fff" d="M0 0h512v512H0z"/></clipPath></defs></svg>