<svg xmlns="http://www.w3.org/2000/svg" width="512" height="512" fill="none"><g clip-path="url(#a)"><path fill="#676FB2" d="M170.804 0 99.516 40.383v89.935h71.288c68.919 0 124.961 56.351 124.961 125.579s-56.042 125.579-124.961 125.579H99.516v66.241l30.905 64.077h40.383c140.826 0 255.279-114.865 255.279-256S311.63 0 170.804 0Z"/><path fill="#4C5699" d="M130.421 97.558c0-36.571 14.525-71.7 40.383-97.558H65.21C29.154 0 0 29.154 0 65.21v381.58C0 482.846 29.154 512 65.21 512h105.594c-25.858-25.858-40.383-60.987-40.383-97.558V97.558Z"/><path fill="#FF8E9E" d="M90.14 122.076c16.728 0 30.288-10.792 30.288-24.106 0-13.314-13.56-24.106-30.287-24.106-16.727 0-30.288 10.792-30.288 24.106 0 13.314 13.56 24.106 30.288 24.106Zm163.903 0c16.727 0 30.287-10.792 30.287-24.106 0-13.314-13.56-24.106-30.287-24.106-16.728 0-30.288 10.792-30.288 24.106 0 13.314 13.56 24.106 30.288 24.106Z"/><path fill="#313D40" d="M107.757 54.703c-4.224 0-7.726 3.502-7.726 7.726v12.362c0 4.224 3.502 7.727 7.726 7.727s7.726-3.503 7.726-7.727V62.43c0-4.327-3.502-7.726-7.726-7.726Zm128.67 0c-4.224 0-7.727 3.502-7.727 7.726v12.362c0 4.224 3.503 7.727 7.727 7.727 4.223 0 7.726-3.503 7.726-7.727V62.43c0-4.327-3.503-7.726-7.726-7.726Zm-42.341 13.804c-3.193-2.781-8.138-2.472-10.92.721-5.872 6.8-16.38 6.8-22.252 0-2.781-3.193-7.726-3.502-10.92-.72-3.193 2.78-3.502 7.725-.721 10.919 12.053 13.804 33.481 13.804 45.534 0 2.885-3.194 2.473-8.035-.721-10.92Z"/><path fill="#FF8E9E" d="m499.741 381.064-6.799-6.799c-11.641-11.641-27.815-17.41-44.092-15.762l-28.227 2.781-59.338 59.339-2.782 28.227c-1.648 16.277 4.121 32.554 15.762 44.092l6.799 6.799c16.38 16.38 42.959 16.38 59.338 0l59.339-59.339c16.38-16.38 16.38-42.958 0-59.338Z"/><path fill="#EA5B70" d="m381.064 440.402 59.338-59.338c16.38-16.38 42.959-16.38 59.339 0l-59.339-59.339c-16.379-16.38-42.958-16.38-59.338 0l-59.338 59.339c-16.38 16.38-16.38 42.958 0 59.338l59.338 59.339c-16.38-16.38-16.38-43.062 0-59.339Z"/><path fill="#EFEDFF" d="M410.63 421.241c5.803 0 10.508-4.705 10.508-10.508 0-5.803-4.705-10.508-10.508-10.508-5.803 0-10.508 4.705-10.508 10.508 0 5.803 4.705 10.508 10.508 10.508Zm0-59.442c5.803 0 10.508-4.704 10.508-10.507 0-5.804-4.705-10.508-10.508-10.508-5.803 0-10.508 4.704-10.508 10.508 0 5.803 4.705 10.507 10.508 10.507Zm-59.338 59.442c5.803 0 10.508-4.705 10.508-10.508 0-5.803-4.705-10.508-10.508-10.508-5.804 0-10.508 4.705-10.508 10.508 0 5.803 4.704 10.508 10.508 10.508Zm118.78 0c5.803 0 10.508-4.705 10.508-10.508 0-5.803-4.705-10.508-10.508-10.508-5.804 0-10.508 4.705-10.508 10.508 0 5.803 4.704 10.508 10.508 10.508Zm-59.442 59.338c5.803 0 10.508-4.704 10.508-10.508 0-5.803-4.705-10.508-10.508-10.508-5.803 0-10.508 4.705-10.508 10.508 0 5.804 4.705 10.508 10.508 10.508Z"/></g><defs><clipPath id="a"><path fill="#fff" d="M0 0h512v512H0z"/></clipPath></defs></svg>