<svg xmlns="http://www.w3.org/2000/svg" width="512" height="512" fill="none"><path fill="#FF8E9E" d="M232.715 190.808H104.417v130.386h128.298c36.005 0 65.189-29.188 65.189-65.193 0-36.005-29.184-65.193-65.189-65.193Z"/><path fill="#FAD5CB" d="M448.308 258.436h-8.575v-13.278c-15.569-21.667-35.636-37.659-57.987-43.186l-70.858 53.919v179.425h112.636l16.818-9.033c20.011-19.735 32.43-47.225 32.43-77.634 0-31.557-9.176-63.827-24.464-90.213Z"/><path fill="#FFB39D" d="M338.848 317.744c0-42.749 16.837-86.804 42.897-115.771-5.584-1.38-11.308-2.118-17.142-2.118-57.621 0-104.713 70.97-107.982 141.069l8.288 7.17-8.2 8.283C260.651 412.83 307.447 457.4 364.603 457.4c29.494 0 56.225-11.873 75.739-31.117-56.63-3.468-101.494-50.733-101.494-108.539Z"/><path fill="#FF8F71" d="M296.145 361.006a7.725 7.725 0 0 0 10.927-.001 7.724 7.724 0 0 0-.001-10.926l-4.629-4.628v-13.622l6.992-6.992a7.724 7.724 0 0 0 0-10.926 7.724 7.724 0 0 0-10.926 0l-9.255 9.255a7.724 7.724 0 0 0-2.263 5.463v12.296h-30.367c-.12 2.577-.187 5.154-.187 7.726 0 2.598.097 5.174.275 7.727h34.806l4.628 4.628Z"/><path fill="#FFB39D" d="M412.74 256.574a7.726 7.726 0 0 0-10.928 0l-16.334 16.333-7.023-7.025a7.726 7.726 0 1 0-10.928 10.926l7.025 7.025-7.026 7.026a7.727 7.727 0 0 0 10.928 10.926l28.823-28.823 7.789 7.79a7.728 7.728 0 0 0 10.928 0l22.316-22.316a161.787 161.787 0 0 0-8.575-13.278l-19.204 19.205-7.791-7.789Z"/><path fill="#FF8E9E" d="M169.607 130.386h125.606c36.005 0 65.189-29.188 65.189-65.193C360.402 29.188 331.217 0 295.212 0h-65.48l-80.73 29.881v72.194l20.605 28.311Z"/><path fill="#EA5B70" d="M294.24 381.614H169.607V130.386c0-47.824 19.633-95 60.126-130.386H104.417C68.414 0 39.228 29.188 39.228 65.193v381.614c0 36.005 29.186 65.193 65.189 65.193h190.795c36.292 0 65.656-29.657 65.183-66.059-.464-35.826-30.328-64.327-66.155-64.327Z"/><path fill="#FFDBE0" d="M87.982 295.429c16.701 0 30.241-10.782 30.241-24.082 0-13.301-13.54-24.083-30.241-24.083-16.702 0-30.241 10.782-30.241 24.083 0 13.3 13.539 24.082 30.24 24.082Zm153.613 0c16.702 0 30.241-10.782 30.241-24.082 0-13.301-13.539-24.083-30.241-24.083-16.702 0-30.241 10.782-30.241 24.083 0 13.3 13.539 24.082 30.241 24.082Z"/><path fill="#313D40" d="M100.455 228.077a7.726 7.726 0 0 0-7.726 7.727v12.362a7.726 7.726 0 0 0 7.726 7.726 7.725 7.725 0 0 0 7.726-7.726v-12.362a7.726 7.726 0 0 0-7.726-7.727Zm128.668 0a7.726 7.726 0 0 0-7.727 7.727v12.362a7.726 7.726 0 0 0 7.727 7.726 7.725 7.725 0 0 0 7.726-7.726v-12.362a7.726 7.726 0 0 0-7.726-7.727Zm-42.297 13.895a7.727 7.727 0 0 0-10.901.749 14.769 14.769 0 0 1-11.136 5.077c-4.266 0-8.325-1.85-11.137-5.077a7.729 7.729 0 0 0-10.901-.749 7.728 7.728 0 0 0-.749 10.902 30.226 30.226 0 0 0 22.787 10.376 30.222 30.222 0 0 0 22.786-10.376 7.728 7.728 0 0 0-.749-10.902Z"/></svg>