<svg xmlns="http://www.w3.org/2000/svg" width="512" height="512" fill="none"><path fill="#4C5699" d="M409.038 247.32c-10.066-10.066-26.387-10.066-36.451 0L257.883 362.022l36.451 36.452 114.704-114.703c10.065-10.065 10.065-26.385 0-36.451Z"/><path fill="#FFB5C0" d="M288.901 190.808H160.603v130.386h128.298c36.005 0 65.189-29.188 65.189-65.193 0-36.005-29.185-65.193-65.189-65.193Zm-63.109-60.422h125.606c36.005 0 65.189-29.188 65.189-65.193C416.587 29.188 387.402 0 351.397 0h-65.479l-80.731 29.881v72.194l20.605 28.311Z"/><path fill="#FF8E9E" d="M160.603 0C124.6 0 95.414 29.188 95.414 65.193v381.614c0 36.005 29.186 65.193 65.189 65.193l.007-.014c36.113-.005 65.181-29.3 65.181-65.189v-65.18l.001-.003V130.386c0-47.824 19.633-95 60.127-130.386H160.603Z"/><path fill="#FFDBE0" d="M144.167 295.429c16.701 0 30.241-10.782 30.241-24.082 0-13.301-13.54-24.083-30.241-24.083-16.702 0-30.241 10.782-30.241 24.083 0 13.3 13.539 24.082 30.241 24.082Zm153.614 0c16.702 0 30.241-10.782 30.241-24.082 0-13.301-13.539-24.083-30.241-24.083-16.702 0-30.241 10.782-30.241 24.083 0 13.3 13.539 24.082 30.241 24.082Z"/><path fill="#313D40" d="M156.64 228.077a7.726 7.726 0 0 0-7.726 7.727v12.362a7.725 7.725 0 0 0 7.726 7.726 7.725 7.725 0 0 0 7.726-7.726v-12.362a7.726 7.726 0 0 0-7.726-7.727Zm128.668 0a7.726 7.726 0 0 0-7.727 7.727v12.362a7.726 7.726 0 0 0 7.727 7.726 7.725 7.725 0 0 0 7.726-7.726v-12.362a7.726 7.726 0 0 0-7.726-7.727Zm-42.297 13.895a7.727 7.727 0 0 0-10.901.749 14.769 14.769 0 0 1-11.136 5.077c-4.266 0-8.325-1.85-11.136-5.077a7.728 7.728 0 0 0-11.651 10.153 30.226 30.226 0 0 0 22.787 10.376 30.222 30.222 0 0 0 22.786-10.376 7.726 7.726 0 0 0-.749-10.902Z"/><path fill="#FFCE71" d="m190.62 439.04 16.204-41.992c4.337-11.239 13.765-19.86 25.449-22.797a71.737 71.737 0 0 0 25.609-12.229l36.452 36.452a71.737 71.737 0 0 0-12.229 25.609c-2.937 11.684-11.558 21.112-22.797 25.449l-41.992 16.205a10.027 10.027 0 0 1-10.697-2.264l-1.404-1.404v-10.927h-10.927l-1.404-1.404a10.023 10.023 0 0 1-2.264-10.698Z"/><path fill="#4C5699" d="M230.189 413.488c6.992 0 12.68 5.687 12.68 12.68 0 7.683-6.809 13.582-14.318 12.566l-10.928-10.927c-1.018-7.481 4.862-14.319 12.566-14.319Z"/><path fill="#FFB357" d="M248.917 353.056c4.953-4.952 12.98-4.952 17.933 0 5.395 5.396 31.066 31.068 36.451 36.451 4.952 4.952 4.952 12.982 0 17.932-4.95 4.952-12.978 4.953-17.933 0l-36.451-36.451c-4.952-4.951-4.952-12.98 0-17.932Z"/><path fill="#4C5699" d="m194.217 451.115 24.179-24.178 10.925 10.925-24.179 24.178-10.925-10.925Z"/></svg>