<svg xmlns="http://www.w3.org/2000/svg" width="512" height="512" fill="none"><g clip-path="url(#a)"><path fill="#70DCBA" d="M255.998 130.385h56.991c36.007 0 65.193-29.188 65.193-65.192C378.182 29.188 348.996 0 312.99 0h-56.991L95.405 73.887v220.918h41.123c-26.434-81.196 34.535-164.42 119.47-164.42Zm190.808 60.422H336.61c-36.006 0-65.192 29.188-65.192 65.193 0 36.005 29.186 65.193 65.192 65.193h26.82a126.606 126.606 0 0 1-18.606 23.63c-23.727 23.725-55.273 36.789-88.826 36.789-48.923 0-91.397-28.115-112.128-69.035v165.322h226.731l66.418-40.881.004-.004c48.348-48.357 74.975-112.642 74.975-181.015.001-36.004-29.186-65.192-65.192-65.192Z"/><path fill="#30CD9C" d="M143.87 312.579a124.845 124.845 0 0 1-7.343-17.774C94.777 180.999 145.866 53.154 255.998 0 114.84 0 .001 114.842.001 256.001.001 397.159 114.84 512 255.999 512c68.38 0 132.665-26.626 181.022-74.979-115.624 40.347-242.341-14.137-293.151-124.442Z"/><path fill="#4C5699" d="M206.247 412.129h-25.31c-10.632 0-18.558 9.805-16.329 20.202l1.402 6.537c2.356 10.987 12.066 18.837 23.304 18.837h8.557c11.237 0 20.948-7.849 23.304-18.837l1.402-6.537c2.228-10.397-5.697-20.202-16.33-20.202Zm102.255 0h25.309c10.634 0 18.559 9.805 16.33 20.202l-1.402 6.537c-2.356 10.987-12.067 18.837-23.304 18.837h-8.558c-11.237 0-20.947-7.849-23.303-18.837l-1.402-6.537c-2.229-10.397 5.696-20.202 16.33-20.202Z"/><path fill="#313D40" d="M278.038 444.745a7.728 7.728 0 0 0-10.902.749c-5.897 6.768-16.38 6.764-22.272 0a7.727 7.727 0 1 0-11.65 10.153c12.059 13.836 33.526 13.82 45.571 0a7.726 7.726 0 0 0-.747-10.902Z"/><path fill="#EA5B70" d="M352.809 413.474a24.323 24.323 0 0 0-18.997-9.072h-25.309a24.31 24.31 0 0 0-15.088 5.21c-9.197-1.167-21.173-2.322-36.04-2.322-14.865 0-26.841 1.155-36.038 2.322a24.319 24.319 0 0 0-15.088-5.21h-25.31a24.32 24.32 0 0 0-18.997 9.073 24.316 24.316 0 0 0-4.886 20.475l1.401 6.537c3.099 14.453 16.077 24.943 30.858 24.943h8.557c14.781 0 27.759-10.49 30.859-24.943l1.401-6.537a24.42 24.42 0 0 0 .094-9.806 262.315 262.315 0 0 1 27.15-1.401c10.568 0 19.601.622 27.151 1.401a24.402 24.402 0 0 0 .093 9.806l1.401 6.537c3.1 14.453 16.077 24.943 30.859 24.943h8.558c14.781 0 27.759-10.49 30.859-24.943l1.401-6.537a24.339 24.339 0 0 0-4.889-20.476ZM215.022 430.71l-1.401 6.537c-1.582 7.377-8.206 12.729-15.75 12.729h-8.557c-7.544 0-14.167-5.352-15.749-12.729l-1.402-6.538a8.932 8.932 0 0 1 1.796-7.521 8.934 8.934 0 0 1 6.979-3.333h25.31c5.708 0 9.966 5.294 8.774 10.855Zm127.563 0-1.401 6.537c-1.581 7.377-8.205 12.729-15.749 12.729h-8.558c-7.544 0-14.167-5.352-15.749-12.729l-1.401-6.537c-1.19-5.552 3.049-10.855 8.774-10.855h25.309a8.936 8.936 0 0 1 6.98 3.333 8.93 8.93 0 0 1 1.795 7.522Z"/></g><defs><clipPath id="a"><path fill="#fff" d="M0 0h512v512H0z"/></clipPath></defs></svg>