<svg xmlns="http://www.w3.org/2000/svg" width="512" height="512" fill="none"><g clip-path="url(#a)"><path fill="#E8B5B1" d="M416.373 0c-36.005 0-65.193 29.188-65.193 65.193v125.615H161.963v130.386H351.18v125.614c0 36.005 29.187 65.193 65.193 65.193s65.193-29.188 65.193-65.193V65.193C481.566 29.188 452.38 0 416.373 0Z"/><path fill="#D6948C" d="M161.963 512c-36.006 0-65.193-29.188-65.193-65.193V96.098c0-36.005 29.186-65.193 65.193-65.193s65.193 29.188 65.193 65.193v350.709c0 36.005-29.187 65.193-65.193 65.193Z"/><path fill="#FFDBE0" d="M206.778 251.343c-16.8-.037-30.444 10.779-30.473 24.158-.029 13.379 13.567 24.255 30.367 24.292 16.8.037 30.444-10.779 30.473-24.159.03-13.378-13.567-24.254-30.367-24.291Zm195.186 24.594c.027-13.378-13.571-24.251-30.372-24.285-16.801-.034-30.442 10.785-30.469 24.164-.026 13.379 13.572 24.252 30.372 24.285 16.801.034 30.442-10.785 30.469-24.164Z"/><path fill="#313D40" d="M224.746 237.436a7.725 7.725 0 0 0-7.726 7.726v12.363a7.725 7.725 0 0 0 7.726 7.726 7.726 7.726 0 0 0 7.727-7.726v-12.363a7.727 7.727 0 0 0-7.727-7.726Zm128.667 0a7.725 7.725 0 0 0-7.726 7.726v12.363a7.725 7.725 0 0 0 7.726 7.726 7.725 7.725 0 0 0 7.726-7.726v-12.363a7.726 7.726 0 0 0-7.726-7.726Zm-34.363 19.733a7.725 7.725 0 0 0-7.726 7.726 7.173 7.173 0 0 1-7.166 7.166 7.173 7.173 0 0 1-7.166-7.166 7.725 7.725 0 0 0-7.726-7.726 7.726 7.726 0 0 0-7.727 7.726 7.173 7.173 0 0 1-7.166 7.166c-3.951 0-7.166-3.214-7.166-7.166a7.725 7.725 0 0 0-7.726-7.726 7.725 7.725 0 0 0-7.726 7.726c0 19.4 22.949 29.772 37.51 17.003 14.549 12.76 37.509 2.408 37.509-17.003a7.721 7.721 0 0 0-7.724-7.726Z"/><path fill="#676FB2" d="M246.908 46.72a210.35 210.35 0 0 0-29.61-5.022c-26.262-2.55-53.31-.28-79.607 6.759l-10.708 18.546 20.323 75.844 33.717 8.615c30.546-10.39 58.289-27.036 80.907-48.676 20.846-19.945 13.004-49.216-15.022-56.065Z"/><path fill="#4C5699" d="M137.691 48.456a.858.858 0 0 0-.052.014l-.011.003c-26.251 7.034-50.79 18.593-72.258 33.934a210.39 210.39 0 0 0-23.13 19.154c-20.846 19.946-13.005 49.216 15.023 56.066 35.146 8.59 72.931 7.985 109.268-1.749l.011-.003a229.111 229.111 0 0 0 14.482-4.413 53.367 53.367 0 0 1-24.328-32.082l-19.005-70.923Z"/><path fill="#676FB2" d="m217.298 41.698-8.866-16.108C190.635-6.747 142.78-9.49 130.977 23.4v.001L120.27 41.946l13.116 48.95 90.591-24.274-6.679-24.925Z"/><path fill="#4C5699" d="M129.034 50.983a42.398 42.398 0 0 1 1.943-27.583C104.338.84 64.238 27.116 64.993 64.023l.376 18.383 6.679 24.924 67.255-18.02-10.269-38.327Z"/><path fill="#D4D4FF" d="m217.298 41.698-7.213 6.901c-18.134 17.35-38.837 29.432-71.869 36.652l-4.076 8.461 5.143 19.192 17.413 6.477c32.504-8.33 57.973-23.27 79.312-43.688l-18.71-33.995Z"/><path fill="#9EA2E3" d="m140.684 94.46-2.468-9.209c-33.696 7.367-52.84 2.045-72.847-2.844l.794 38.795c28.69 7.013 58.216 7.218 90.532-1.821a48.662 48.662 0 0 1-16.011-24.92Z"/></g><defs><clipPath id="a"><path fill="#fff" d="M0 0h512v512H0z"/></clipPath></defs></svg>