<svg xmlns="http://www.w3.org/2000/svg" width="512" height="512" fill="none"><path fill="#FFCE71" d="M312.977 381.614h-29.24V130.385h29.24c35.829 0 65.694-28.5 66.159-64.326C379.608 29.657 350.243 0 313.949 0h-41.223c-52.682 0-95.389 42.707-95.389 95.388v321.223c0 52.682 42.708 95.388 95.389 95.388h41.223c36.294 0 65.66-29.657 65.187-66.06-.465-35.824-30.33-64.325-66.159-64.325Z"/><path fill="#FFB357" d="m218.546 416.597 57.693-61.331-57.693-57.487V95.389c0-52.331 42.135-94.813 94.329-95.389H123.144C87.137 0 57.952 29.189 57.952 65.193c0 36.005 29.186 65.192 65.192 65.192h30.209v251.228h-30.209c-36.007 0-65.192 29.189-65.192 65.193s29.186 65.193 65.192 65.193h190.805c-52.69.001-95.403-42.713-95.403-95.402Z"/><path fill="#FF8E9E" d="M136.584 57.81c-16.702 0-30.242 10.782-30.242 24.082 0 13.302 13.54 24.084 30.242 24.084 16.703 0 30.243-10.782 30.243-24.084 0-13.299-13.54-24.082-30.243-24.082Zm163.924 0c-16.702 0-30.242 10.782-30.242 24.082 0 13.302 13.54 24.084 30.242 24.084s30.243-10.782 30.243-24.084c0-13.299-13.541-24.082-30.243-24.082Z"/><path fill="#313D40" d="M154.21 43.772a7.726 7.726 0 0 0-7.727 7.726v12.363a7.726 7.726 0 0 0 7.727 7.727 7.726 7.726 0 0 0 7.726-7.727V51.498a7.726 7.726 0 0 0-7.726-7.726Zm128.673 0a7.727 7.727 0 0 0-7.727 7.726v12.363a7.727 7.727 0 0 0 7.727 7.727 7.727 7.727 0 0 0 7.727-7.727V51.498a7.727 7.727 0 0 0-7.727-7.726Zm-42.297 13.895a7.727 7.727 0 0 0-10.902.75c-5.897 6.768-16.381 6.764-22.274 0a7.728 7.728 0 0 0-11.651 10.153c12.06 13.836 33.528 13.82 45.575 0a7.729 7.729 0 0 0-.748-10.903Z"/><path fill="#D6948C" d="m254.597 323.336-50.994 50.993c-12.07 12.071-12.07 31.64 0 43.709 12.071 12.07 31.64 12.07 43.709 0l50.994-50.993-43.709-43.709Z"/><path fill="#FF8E9E" d="M429.712 250.857 382.255 203.4 266.069 319.588c-12.249 12.249-12.249 32.109 0 44.357l17.668 17.669 18.107 18.107c12.25 12.249 32.109 12.248 44.358 0l61.598-61.598c23.619-23.619 30.92-57.375 21.912-87.266Z"/><path fill="#EA5B70" d="m280.638 334.158 60.925-60.925c23.793-23.794 57.979-31.399 88.149-22.375-4.062-13.478-11.435-26.172-22.132-36.795-34.341-34.104-90.073-33.332-124.295.891l-60.925 60.925c-12.249 12.249-12.249 32.109 0 44.358l58.279 58.28c-12.249-12.251-12.249-32.111-.001-44.359Zm152.596 39.858a6.733 6.733 0 0 0-9.784-.099c-9.461 9.863-20.9 25.037-20.9 37.884 0 14.132 11.526 25.592 25.749 25.591 14.155 0 25.749-11.05 25.749-25.591 0-12.529-11.478-27.987-20.814-37.785Z"/><path fill="#D34459" d="m302.474 247.715-39.271 39.27c-5.961 5.961-6.013 15.624-.142 21.672 5.996 6.178 15.908 6.272 21.996.184l39.27-39.271c6.024-6.023 6.004-15.811-.019-21.834-6.024-6.025-15.81-6.045-21.834-.021Z"/><path fill="#EA5B70" d="m353.09 297.174-39.909 39.908c-6.065 6.065-6.017 15.913.105 21.919 6.037 5.923 15.717 5.88 21.702-.096l39.939-39.878c6.068-6.059 6.016-15.918-.099-21.931-6.037-5.937-15.749-5.911-21.738.078Z"/></svg>