<svg xmlns="http://www.w3.org/2000/svg" width="512" height="512" fill="none"><g clip-path="url(#a)"><path fill="#70DCBA" d="M288.526.007h-41.221c-52.679 0-95.383 42.705-95.383 95.383v282.98h97.136c6.004-18.535 9.259-38.284 9.259-58.774v-189.21h29.239c35.826 0 65.69-28.499 66.155-64.324.471-36.4-28.892-66.055-65.185-66.055Z"/><path fill="#18C08B" d="M193.129 292.073V95.39c0-52.328 42.133-94.807 94.325-95.383H98.704c-35.827 0-65.69 28.499-66.156 64.322-.473 36.4 28.89 66.057 65.183 66.057h30.207v189.209c0 34.232-28.01 62.274-62.24 62.015-36.463-.277-66.064 29.382-65.694 65.865.366 36.144 31.18 64.903 67.323 64.506 83.692-.92 156.54-55.85 181.731-133.613-34.025-15.223-55.929-49.019-55.929-86.295Z"/><path fill="#EA5B70" d="M351.596 163.091a22.08 22.08 0 0 0-12.156-16.615l-136.6-63.361a21.93 21.93 0 0 0-16.872-1.04 21.938 21.938 0 0 0-12.662 11.193 21.945 21.945 0 0 0-1.04 16.869 21.935 21.935 0 0 0 11.194 12.664l126.146 58.257 14.126 74.375 21.784 14.299 22.747-15.072-16.667-91.569Z"/><path fill="#B9F0FF" d="M490.398 216.816h-61.222c-23.065 0-41.762 18.698-41.762 41.761V470.23c0 23.065 18.698 41.762 41.762 41.762h42.874c11.301 0 20.691-8.711 21.54-19.98l18.348-251.975c.944-12.532-8.972-23.221-21.54-23.221Z"/><path fill="#7CE3FF" d="M401.814 483.408v-237.79c0-15.906 12.895-28.802 28.802-28.802H313.23c-12.57 0-22.484 10.689-21.54 23.222l18.348 251.975c.849 11.27 10.239 19.98 21.54 19.98h95.559c-14.266-1.719-25.323-13.856-25.323-28.585Z"/><path fill="#FF8E9E" d="M111.171 110.216c16.702 0 30.241-10.782 30.241-24.083 0-13.3-13.539-24.082-30.241-24.082-16.702 0-30.241 10.782-30.241 24.082s13.54 24.083 30.241 24.083Zm163.916 0c16.702 0 30.241-10.782 30.241-24.083 0-13.3-13.539-24.082-30.241-24.082-16.701 0-30.241 10.782-30.241 24.082s13.54 24.083 30.241 24.083Z"/><path fill="#fff" d="M241.271 63.57c0-17.76 14.397-32.157 32.156-32.157 17.758 0 32.156 14.397 32.156 32.156 0 17.76-14.397 11.552-32.156 11.552-17.76 0-32.156 6.207-32.156-11.552Zm-96.284 0c0-17.76-14.397-32.157-32.155-32.157-17.76 0-32.156 14.397-32.156 32.156 0 17.76 14.396 11.552 32.155 11.552s32.156 6.207 32.156-11.552Z"/><path fill="#000" d="M132.458 59.326a7.468 7.468 0 1 0-10.562-10.562 7.468 7.468 0 1 0 10.562 10.562Zm133.925-4.081a7.47 7.47 0 1 0-14.746-2.39 7.47 7.47 0 0 0 14.746 2.39Z"/><path fill="#FCE3A0" d="M477.298 290.619h-75.484l-14.401 13.446v151.318l14.401 11.33h43.448c10.803 0 19.772-8.344 20.55-19.119l11.486-156.975Z"/><path fill="#FFCE71" d="M401.814 290.619h-75.486l11.487 156.974c.778 10.775 9.746 19.119 20.55 19.119h43.448V290.619h.001Z"/></g><defs><clipPath id="a"><path fill="#fff" d="M0 0h512v512H0z"/></clipPath></defs></svg>