<svg xmlns="http://www.w3.org/2000/svg" width="512" height="512" fill="none"><path fill="#676FB2" d="M396.177 412.404 280.132 220.2l61.335-62.816c25.154-25.762 24.661-67.037-1.1-92.192-25.762-25.154-67.031-24.667-92.185 1.095-51.596 52.841-131.792 134.977-131.792 134.977l168.167 278.533C296.805 500.081 318.346 512 340.43 512c50.276 0 82.08-55.977 55.747-99.596Z"/><path fill="#4C5699" d="M186.13 129.837V65.193c0-36.292-29.654-65.658-66.054-65.187C84.247.47 55.744 30.334 55.744 66.164v379.67c0 35.831 28.503 65.696 64.331 66.16 36.401.47 66.054-28.896 66.054-65.187V316.774l-18.145-30.052c-30.383-50.324-22.923-114.824 18.146-156.885Z"/><path fill="#FF8E9E" d="M107.983 293.478c16.701 0 30.241-10.783 30.241-24.083 0-13.3-13.54-24.083-30.241-24.083-16.702 0-30.241 10.783-30.241 24.083 0 13.3 13.539 24.083 30.241 24.083Zm143.311 0c16.702 0 30.241-10.783 30.241-24.083 0-13.3-13.539-24.083-30.241-24.083-16.701 0-30.241 10.783-30.241 24.083 0 13.3 13.54 24.083 30.241 24.083Z"/><path fill="#313D40" d="M125.606 226.125a7.725 7.725 0 0 0-7.726 7.726v12.362a7.725 7.725 0 0 0 7.726 7.726 7.725 7.725 0 0 0 7.726-7.726v-12.362a7.725 7.725 0 0 0-7.726-7.726Zm108.064 0a7.725 7.725 0 0 0-7.726 7.726v12.362a7.725 7.725 0 0 0 7.726 7.726 7.725 7.725 0 0 0 7.726-7.726v-12.362a7.725 7.725 0 0 0-7.726-7.726Zm-31.994 13.895a7.726 7.726 0 0 0-10.902.749 14.769 14.769 0 0 1-11.136 5.077c-4.266 0-8.325-1.85-11.136-5.077a7.727 7.727 0 0 0-11.651 10.152 30.227 30.227 0 0 0 22.787 10.377 30.227 30.227 0 0 0 22.787-10.377 7.727 7.727 0 0 0-.749-10.901Z"/><path fill="#FFB357" d="m289.917 337.925-30.244 33.212-21.85 23.995c-18.191 19.976-4.889 52.683 21.85 52.683 0-.004 0 .004 0 0h25.35c8.65 0 16.01-7.075 15.979-15.725-.019-5.481-2.855-10.296-7.134-13.081l37.228-39.905v-41.179h-41.179Z"/><path fill="#D4D4FF" d="M456.256 213.917c0-16.177-19.255-23.075-30.01-12.321l-1.208 1.207-105.837 157.122 15.545 15.545c6.035 6.027 16.292 5.545 22.324-.485l55.431-55.432c27.279-27.279 43.755-64.984 43.755-105.636Z"/><path fill="#9EA2E3" d="m425.038 202.803-131.48 131.48 26.352 26.352 61.686-61.685c25.142-25.144 41.097-59.146 43.442-96.147Z"/><path fill="#FFCE71" d="M333.748 423.332c-.489 0-.984-.022-1.482-.065-8.555-.743-15.258-8.189-15.258-16.954a2.96 2.96 0 0 0-.872-2.105l-48.787-48.788c-6.515-6.514-6.786-16.808-.618-23.434a16.813 16.813 0 0 1 12.259-5.34c4.471 0 8.675 1.741 11.836 4.903l48.789 48.79c7.012 7.011 10.874 16.333 10.874 26.252a16.63 16.63 0 0 1-4.902 11.837 16.633 16.633 0 0 1-11.837 4.903l-.002.001Z"/></svg>