<svg xmlns="http://www.w3.org/2000/svg" width="512" height="512" fill="none"><g clip-path="url(#a)"><path fill="#FF6F4D" d="M163.093 381.615V65.193C163.093 29.188 133.906 0 97.9 0 61.893 0 32.707 29.188 32.707 65.193v381.615c0 36.005 29.186 65.193 65.193 65.193h130.386l-65.193-130.386Z"/><path fill="#FF8F71" d="M291.889 381.615H163.093v65.193c0 36.005 29.186 65.193 65.193 65.193h63.603c36.005 0 65.192-29.188 65.192-65.193 0-36.006-29.187-65.193-65.192-65.193Z"/><path fill="#FFDBE0" d="M112.937 429.506c-16.701 0-30.241 10.782-30.241 24.083 0 13.301 13.54 24.081 30.241 24.081s30.241-10.781 30.241-24.081c0-13.3-13.54-24.083-30.241-24.083Zm163.915 0c-16.701 0-30.241 10.782-30.241 24.083 0 13.301 13.54 24.081 30.241 24.081s30.241-10.781 30.241-24.081c0-13.3-13.54-24.083-30.241-24.083Z"/><path fill="#313D40" d="M130.561 410.318a7.725 7.725 0 0 0-7.726 7.726v12.362a7.726 7.726 0 1 0 15.452 0v-12.362a7.725 7.725 0 0 0-7.726-7.726Zm128.666 0a7.725 7.725 0 0 0-7.726 7.726v12.362a7.726 7.726 0 1 0 15.453 0v-12.362a7.726 7.726 0 0 0-7.727-7.726Zm-42.296 13.895a7.726 7.726 0 0 0-10.901.749 14.772 14.772 0 0 1-11.136 5.077 14.772 14.772 0 0 1-11.136-5.077 7.727 7.727 0 0 0-11.651 10.152 30.226 30.226 0 0 0 22.787 10.376 30.222 30.222 0 0 0 22.786-10.376 7.725 7.725 0 0 0-.749-10.901Z"/><path fill="#FCE3A0" d="M410.183 167.4c-34.299-34.298-89.908-34.298-124.208 0l-34.553 34.554v76.933l23.589 23.589 27.317 5.463c5.828-5.828 13.039-8.01 20.155-7.192 26.157 3.005 53.387-5.525 73.451-25.588 29.181-29.181 33.887-73.586 14.249-107.759Z"/><path fill="#FFCE71" d="M276.735 254.955c-2.971-25.984 5.44-53.023 25.233-73.04 29.054-29.38 73.893-34.205 108.214-14.516a89.501 89.501 0 0 0-14.249-18.625c-34.931-34.799-92.077-34.697-126.747.361-19.792 20.017-28.204 47.055-25.233 73.04.816 7.136-1.347 14.365-7.186 20.204l10.927 54.633 27.317 5.464-5.463-27.318c5.839-5.838 8.002-13.067 7.187-20.203Z"/><path fill="#676FB2" d="M198.524 313.403c-6.035 6.034-6.035 15.818 0 21.853l10.927 10.927c6.035 6.035 15.819 6.035 21.854 0l10.927-10.927-5.463-27.316-27.317-5.463-10.928 10.926Z"/><path fill="#D4D4FF" d="M302.328 329.793c6.019-6.018 6.052-15.802 0-21.853l-32.78-32.781-47.349-3.642 10.927 54.633 18.211 18.212c6.035 6.035 15.819 6.035 21.854 0 6.034-6.035 6.034-15.819 0-21.854l7.284 7.285c6.047 6.048 15.831 6.022 21.853 0Z"/><path fill="#9EA2E3" d="M254.979 304.298c-7.099-7.099-6.434-18.986 1.663-24.921a21.755 21.755 0 0 1 12.906-4.217l-32.781-32.78c-6.034-6.035-15.818-6.035-21.853 0-6.035 6.035-6.035 15.819 0 21.853l7.285 7.285c-6.035-6.035-15.819-6.035-21.854 0-6.034 6.035-6.034 15.818 0 21.853l32.781 32.78c0-12.069 9.783-21.853 21.853-21.853Z"/><path fill="#FCE3A0" d="M212.343 204.187a7.69 7.69 0 0 0-3.228.705h-15.307a7.725 7.725 0 0 0-7.726 7.726 7.725 7.725 0 0 0 7.726 7.726h18.543a7.73 7.73 0 0 0 7.727-7.759l-.009-.671a7.726 7.726 0 0 0-7.726-7.727Zm186.891 108.239a7.726 7.726 0 0 0-13.382 7.726l15.45 26.759a7.722 7.722 0 0 0 10.554 2.828 7.726 7.726 0 0 0 2.828-10.554l-15.45-26.759Zm-66.546 12.104a7.727 7.727 0 0 0-7.727 7.727V350.8a7.726 7.726 0 0 0 7.727 7.726 7.725 7.725 0 0 0 7.726-7.726v-18.543a7.727 7.727 0 0 0-7.726-7.727Zm138.878-119.638h-18.543a7.725 7.725 0 0 0-7.726 7.726 7.725 7.725 0 0 0 7.726 7.726h18.543a7.726 7.726 0 0 0 7.727-7.726 7.726 7.726 0 0 0-7.727-7.726Zm-4.37 76.462-26.759-15.449a7.727 7.727 0 0 0-7.726 13.382l26.759 15.449a7.724 7.724 0 0 0 10.554-2.827 7.725 7.725 0 0 0-2.828-10.555ZM332.688 65.299a7.726 7.726 0 0 0-7.727 7.726v18.543a7.726 7.726 0 0 0 15.453 0V73.025a7.726 7.726 0 0 0-7.726-7.726Zm-69.22 11.974a7.726 7.726 0 0 0-13.382 7.726l15.449 26.76a7.722 7.722 0 0 0 10.555 2.828 7.726 7.726 0 0 0 2.827-10.554l-15.449-26.76Zm-31.421 68.318-26.761-15.449a7.727 7.727 0 0 0-7.726 13.382l26.761 15.449a7.723 7.723 0 0 0 10.554-2.828 7.725 7.725 0 0 0-2.828-10.554Z"/></g><defs><clipPath id="a"><path fill="#fff" d="M0 0h512v512H0z"/></clipPath></defs></svg>