<svg xmlns="http://www.w3.org/2000/svg" width="512" height="512" fill="none"><g clip-path="url(#a)"><path fill="#B28AE4" d="M471.755 4.966C447.394-5.127 419.354.453 400.708 19.098L256.002 163.805h-97.608L209.903 302.1c25.442 25.443 66.742 25.458 92.199 0l79.512-79.514v86.415l-20.603 68.112 20.603 58.768v10.927c0 36.005 29.186 65.192 65.193 65.192S512 482.813 512 446.808V65.195c0-26.367-15.885-50.14-40.245-60.23Z"/><path fill="#976BCF" d="M256.002 163.805 111.293 19.097C92.643.457 64.615-5.129 40.246 4.965 15.886 15.055 0 38.827 0 65.195v380.641c0 35.83 28.503 65.695 64.33 66.159 36.402.471 66.056-28.896 66.056-65.187V222.583l79.515 79.516v-27a157.395 157.395 0 0 1 46.101-111.294Z"/><path fill="#FF8E9E" d="M203.945 209.172c.027-13.379-13.571-24.252-30.372-24.286-16.8-.033-30.442 10.785-30.468 24.164-.027 13.379 13.571 24.252 30.371 24.286 16.801.033 30.442-10.785 30.469-24.164Zm164.856.361c.027-13.379-13.571-24.252-30.372-24.285-16.8-.034-30.442 10.785-30.468 24.164-.027 13.378 13.571 24.251 30.371 24.285 16.801.034 30.442-10.785 30.469-24.164Z"/><path fill="#313D40" d="M191.577 178.23a7.726 7.726 0 0 0-7.726 7.727v12.362a7.725 7.725 0 0 0 7.726 7.726 7.726 7.726 0 0 0 7.727-7.726v-12.362a7.727 7.727 0 0 0-7.727-7.727Zm128.667 0a7.726 7.726 0 0 0-7.726 7.727v12.362a7.725 7.725 0 0 0 7.726 7.726 7.725 7.725 0 0 0 7.726-7.726v-12.362a7.726 7.726 0 0 0-7.726-7.727Zm-34.362 19.733a7.726 7.726 0 0 0-7.726 7.727 7.173 7.173 0 0 1-7.166 7.166 7.173 7.173 0 0 1-7.166-7.166 7.726 7.726 0 1 0-15.452 0c0 3.952-3.215 7.166-7.166 7.166a7.173 7.173 0 0 1-7.166-7.166 7.727 7.727 0 0 0-15.453 0c0 19.399 22.949 29.771 37.51 17.003 14.549 12.76 37.51 2.407 37.51-17.003a7.725 7.725 0 0 0-7.725-7.727Z"/><path fill="#7CE3FF" d="M130.385 222.583c-8.572 0-15.522 6.95-15.522 15.522v70.349l-55.659 31.314 36.225 50.9c27.455-6.444 50.478-29.614 50.479-52.232v-100.33c0-8.573-6.949-15.523-15.523-15.523Z"/><path fill="#2ED0FC" d="M114.863 308.454c-32.99-3.295-69.913 24.784-69.913 53.68 0 22.303 22.6 35.078 50.479 28.533-12.609-28.669-4.676-62.224 19.434-82.213Z"/><path fill="#FCE3A0" d="m423.748 297.711-3.667.983-18.692 5.009a35.14 35.14 0 0 0-24.92 25.114l-5.157 19.864 10.302 28.433 46.904-12.568v32.321c-26.116 5.209-39.811 33.673-22.992 47 18.27 14.478 53.914-3.51 53.914-27.223v-91.545c.001-18.643-17.666-32.217-35.692-27.388Z"/><path fill="#FFCE71" d="m420.081 298.693-44.552 11.938c-14.624 3.918-24.837 17.229-24.837 32.369v71.603c-26.497 4.774-40 34.321-22.988 47.8 18.593 14.734 53.911-4.314 53.911-26.524v-87.054c-.001-23.489 15.776-44.051 38.466-50.132Z"/></g><defs><clipPath id="a"><path fill="#fff" d="M0 0h512v512H0z"/></clipPath></defs></svg>