<svg xmlns="http://www.w3.org/2000/svg" width="512" height="512" fill="none"><g clip-path="url(#a)"><path fill="#70DCBA" d="M345.036.007c-36.005 0-65.19 29.187-65.19 65.191v182.47l-89.509-122.056h-59.954v138.722l162.083 221.023C304.982 502.425 324.671 512 345.046 512a65.05 65.05 0 0 0 20.273-3.241c26.791-8.77 44.908-33.766 44.908-61.956V65.198c.001-36.004-29.185-65.19-65.191-65.19Z"/><path fill="#30CD9C" d="m190.337 125.612-72.575-98.965C101.095 3.916 71.698-5.535 44.909 3.243 18.118 12.013 0 37.009 0 65.198v380.635c0 35.829 28.503 65.694 64.33 66.157 36.4.469 66.053-28.895 66.053-65.186v-182.47a190.16 190.16 0 0 1 55.697-134.463l4.257-4.259Z"/><path fill="#FF8E9E" d="M151.08 232.9c9.91-9.91 7.855-28.033-4.59-40.477-12.445-12.445-30.567-14.5-40.477-4.59-9.91 9.911-7.856 28.033 4.589 40.478 12.445 12.444 30.567 14.499 40.478 4.589Zm122.129 122.156c9.911-9.911 7.856-28.033-4.589-40.478s-30.567-14.499-40.477-4.589c-9.91 9.91-7.856 28.033 4.589 40.477 12.445 12.445 30.567 14.5 40.477 4.59Z"/><path fill="#313D40" d="M215.363 269.622c7.392-7.392 8.029-18.74 1.423-25.346-6.606-6.606-17.954-5.969-25.346 1.423-7.392 7.392-8.029 18.74-1.423 25.346 6.606 6.606 17.954 5.969 25.346-1.423Zm-61.167-88.251-8.742 8.741a7.727 7.727 0 0 0 10.927 10.927l8.741-8.741a7.727 7.727 0 0 0-10.926-10.927Zm125.547 114.62a7.726 7.726 0 0 0-10.926 0l-8.741 8.741a7.725 7.725 0 0 0 5.463 13.189 7.704 7.704 0 0 0 5.463-2.262l8.741-8.741a7.727 7.727 0 0 0 0-10.927Z"/><path fill="#CE857A" d="M405.758 166.595c-8.534 0-15.452 6.918-15.452 15.452v51.509h30.905v-51.509c0-8.534-6.919-15.452-15.453-15.452Z"/><path fill="#FFB39D" d="M394.901 329.65v99.712h47.61c29.042-23.506 47.61-59.439 47.61-99.712l-47.61-12.251-47.61 12.251Z"/><path fill="#FF8F71" d="m394.901 329.65-38.489-12.251-35.015 12.251c0 48.743 27.199 91.132 67.247 112.82a35.914 35.914 0 0 0 17.116 4.334c5.89 0 11.781-1.444 17.115-4.334a128.381 128.381 0 0 0 19.636-13.108c-29.041-23.506-47.61-59.439-47.61-99.712Z"/><path fill="#E8B5B1" d="M511.545 303.319c-8.36-40.791-36.145-66.576-69.058-77.352h-28.445l-48.1 48.1v55.583h124.179c13.873 0 24.208-12.741 21.424-26.331Z"/><path fill="#CE857A" d="M373.476 303.321c8.351-40.798 36.117-66.579 69.011-77.353-11.803-3.865-24.266-5.801-36.728-5.804-47.218-.01-94.436 27.702-105.788 83.157-2.78 13.585 7.545 26.329 21.426 26.329h73.504c-13.881 0-24.206-12.745-21.425-26.329Z"/><path fill="#AC6757" d="M405.759 277.066a7.726 7.726 0 0 0 7.726-7.726 7.726 7.726 0 1 0-7.726 7.726Zm0 30.905a7.726 7.726 0 1 0 0-15.452 7.726 7.726 0 1 0 0 15.452Zm-72.113-11.332a7.726 7.726 0 1 0 0-15.452 7.727 7.727 0 1 0 0 15.452Zm144.225 0a7.726 7.726 0 1 0 0-15.452 7.726 7.726 0 0 0 0 15.452Zm-113.32-30.905a7.726 7.726 0 0 0 7.726-7.726 7.726 7.726 0 1 0-15.452 0 7.726 7.726 0 0 0 7.726 7.726Zm82.415 0a7.726 7.726 0 0 0 7.726-7.726 7.726 7.726 0 1 0-7.726 7.726Z"/></g><defs><clipPath id="a"><path fill="#fff" d="M0 0h512v512H0z"/></clipPath></defs></svg>