<svg xmlns="http://www.w3.org/2000/svg" width="512" height="512" fill="none"><g clip-path="url(#a)"><path fill="#FF8F71" d="M256 0 130.385 80.975V256c0-69.263 56.351-125.615 125.615-125.615S381.615 186.736 381.615 256 325.264 381.615 256 381.615 130.385 325.264 130.385 256v170.22L256 512c141.158 0 256-114.843 256-256C512 114.843 397.158 0 256 0Z"/><path fill="#FF6F4D" d="M130.385 256c0-100.174 46.384-194.703 125.615-256C114.841 0 0 114.843 0 256c0 141.157 114.841 256 256 256-79.231-61.297-125.615-155.826-125.615-256Z"/><path fill="#FFDBE0" d="M143.136 92.699c-16.701 0-30.24 10.782-30.24 24.081 0 13.301 13.539 24.083 30.24 24.083 16.702 0 30.241-10.782 30.241-24.083 0-13.299-13.538-24.081-30.241-24.081Zm225.728 0c-16.702 0-30.241 10.782-30.241 24.081 0 13.301 13.539 24.083 30.241 24.083 16.701 0 30.24-10.782 30.24-24.083-.001-13.299-13.539-24.081-30.24-24.081Z"/><path fill="#4C5699" d="M325.567 120.917c-10.007 0-19.39-4.292-26.455-11.378-5.252-5.267-12.513-8.527-20.539-8.527-9.12 0-17.252 4.208-22.572 10.787-5.32-6.579-13.452-10.787-22.571-10.787-8.026 0-15.289 3.26-20.54 8.527-7.065 7.086-16.449 11.378-26.455 11.378-4.504 0-7.861 4.129-6.981 8.547 3.971 19.948 21.576 34.984 42.691 34.984 13.679 0 25.878-6.314 33.857-16.181 7.98 9.867 20.179 16.181 33.857 16.181 21.116 0 38.721-15.036 42.692-34.984.878-4.418-2.48-8.547-6.984-8.547Z"/><path fill="#313D40" d="M171.063 81.751a7.726 7.726 0 0 0-7.727 7.726v12.363a7.726 7.726 0 0 0 7.727 7.726 7.725 7.725 0 0 0 7.726-7.726V89.477a7.726 7.726 0 0 0-7.726-7.726Zm169.873 0a7.725 7.725 0 0 0-7.726 7.726v12.363a7.725 7.725 0 0 0 7.726 7.726 7.726 7.726 0 0 0 7.727-7.726V89.477a7.726 7.726 0 0 0-7.727-7.726Z"/></g><defs><clipPath id="a"><path fill="#fff" d="M0 0h512v512H0z"/></clipPath></defs></svg>