<svg xmlns="http://www.w3.org/2000/svg" width="512" height="512" fill="none"><g clip-path="url(#a)"><path fill="#B28AE4" d="M209.461 0c-50.188 0-84.588 50.58-66.148 97.256l13.089 33.129h53.059c30.363 0 55.065 24.252 55.065 54.063 0 29.811-24.702 54.062-55.065 54.062h-53.059l-30.907 65.225 30.907 65.159h53.059c102.258 0 185.45-82.742 185.45-184.446C394.911 82.743 311.718 0 209.461 0Z"/><path fill="#976BCF" d="M156.402 130.385v-77.34c0-29.301 23.757-53.052 53.059-53.045H91.209C55.202 0 26.016 29.188 26.016 65.192v381.615c0 36.004 29.186 65.192 65.193 65.192 36.005 0 65.192-29.188 65.192-65.192V130.385h.001Z"/><path fill="#FF8E9E" d="M138.215 91.087c.026-13.38-13.572-24.254-30.374-24.287-16.801-.034-30.443 10.785-30.47 24.165-.027 13.38 13.572 24.253 30.374 24.287 16.801.033 30.443-10.786 30.47-24.165Zm164.864.36c.027-13.38-13.572-24.253-30.373-24.287-16.802-.033-30.444 10.786-30.471 24.165-.026 13.38 13.572 24.254 30.374 24.287 16.801.034 30.443-10.785 30.47-24.165Z"/><path fill="#313D40" d="M122.781 57.31a7.726 7.726 0 0 0-7.726 7.727V77.4a7.726 7.726 0 0 0 7.726 7.727 7.726 7.726 0 0 0 7.727-7.727V65.037a7.726 7.726 0 0 0-7.727-7.727Zm137.545-2.308c-12.161 0-22.054 9.893-22.054 22.053a7.727 7.727 0 0 0 7.727 7.727 7.727 7.727 0 0 0 7.727-7.727c0-3.639 2.961-6.6 6.6-6.6a6.607 6.607 0 0 1 6.598 6.6 7.727 7.727 0 0 0 7.727 7.727 7.727 7.727 0 0 0 7.727-7.727c0-12.16-9.894-22.053-22.052-22.053Zm-40.18 22.793a7.726 7.726 0 0 0-7.727 7.727c0 3.95-3.215 7.166-7.167 7.166-3.95 0-7.165-3.214-7.165-7.166a7.726 7.726 0 0 0-7.727-7.727 7.726 7.726 0 0 0-7.726 7.727c0 3.95-3.215 7.166-7.167 7.166-3.951 0-7.165-3.214-7.165-7.166a7.726 7.726 0 0 0-7.727-7.727 7.726 7.726 0 0 0-7.726 7.727c0 19.401 22.95 29.771 37.511 17.003 14.549 12.759 37.512 2.407 37.512-17.003a7.726 7.726 0 0 0-7.726-7.727Z"/><path fill="#FF8E9E" d="M467.881 332.143c24.04-24.04 24.235-63.181 0-87.414-11.186-11.185-26.638-18.104-43.707-18.104h-.012a61.81 61.81 0 0 0-43.707 18.104l-20.846 20.846 87.418 87.418 20.854-20.85Z"/><path fill="#FFCE71" d="M447.027 352.993c0-24.134-9.785-45.988-25.602-61.807-15.82-15.822-37.677-25.61-61.815-25.61l-83.665 83.665 87.406 87.428 83.676-83.676Z"/><path fill="#FAD5CB" d="M363.35 436.668v-.021c0-24.131-9.779-45.979-25.591-61.795-15.818-15.823-37.673-25.61-61.815-25.61l-35.876 65.729 57.559 57.575 65.723-35.878Zm-26.17-61.239c-.175.176-.126.126 0 0Z"/><path fill="#676FB2" d="m238.809 508.273 58.818-35.729c-8.503-27.429-30.137-49.064-57.559-57.575L204.337 473.8c-5.974 9.835-4.538 22.737 3.537 30.936.056.057.113.111.168.168 8.199 8.075 20.933 9.343 30.767 3.369Z"/><path fill="#EA5B70" d="M441.934 270.675a49.464 49.464 0 0 1 34.976-14.487 62.112 62.112 0 0 0-9.029-11.459c-11.186-11.185-26.638-18.104-43.707-18.104a61.839 61.839 0 0 0-43.727 18.112l-20.837 20.838c24.139 0 45.994 9.787 61.815 25.61l20.509-20.51Z"/><path fill="#FFB357" d="M421.424 291.185c-15.821-15.822-37.677-25.61-61.815-25.61l-83.665 83.665c24.141 0 45.997 9.787 61.815 25.61l83.665-83.665Z"/><path fill="#FFB39D" d="m319.652 392.959 18.107-18.108c-15.818-15.823-37.673-25.61-61.815-25.61l-35.876 65.729a87.377 87.377 0 0 1 35.877 21.696l43.707-43.707Z"/><path fill="#4C5699" d="M224.525 511.969a57.663 57.663 0 0 1 16.889-40.773l34.531-34.532c-9.876-9.879-22.135-17.431-35.877-21.696l-35.731 58.831c-5.974 9.835-4.538 22.737 3.537 30.936 4.528 4.461 10.609 7 16.651 7.234Z"/></g><defs><clipPath id="a"><path fill="#fff" d="M0 0h512v512H0z"/></clipPath></defs></svg>