<svg xmlns="http://www.w3.org/2000/svg" width="512" height="512" fill="none"><g clip-path="url(#a)"><path fill="#FFCE71" d="M347.803 42.28h-16.35c-18.417 15.529-45.889 14.228-62.735-3.411h-14.344l-14.433 37.236 16.06 30.542h91.803l-.001-64.366Z"/><path fill="#FFB357" d="M268.717 38.869a46.08 46.08 0 0 1-6.344-8.37h-12.746c-14.518 24.549-47.479 29.993-69.081 11.78h-16.35v64.367H256c-8.403-22.382-5.113-55.703 12.717-67.777Z"/><path fill="#FFCE71" d="M256 0c-11.883 0-21.516 9.633-21.516 21.516 0 11.901 9.663 21.517 21.516 21.517 4.76 0 9.155-1.549 12.718-4.164 5.334-3.916 8.799-10.229 8.799-17.353C277.517 9.633 267.883 0 256 0Zm-91.803 57.377c11.883 0 21.516-9.633 21.516-21.516 0-11.884-9.633-21.517-21.516-21.517-11.884 0-21.517 9.633-21.517 21.517 0 11.883 9.633 21.516 21.517 21.516Zm183.606-43.033c-15.657 0-26.053 16.226-19.584 30.423 3.388 7.437 10.879 12.61 19.584 12.61 11.884 0 21.517-9.633 21.517-21.516s-9.633-21.517-21.517-21.517Z"/><path fill="#E8B5B1" d="M440.621 405.873c18.512-31.632 29.141-68.414 29.141-107.636 0-117.868-95.893-213.762-213.762-213.762L151.11 152.09v146.147c0-57.835 47.053-104.89 104.89-104.89 57.836 0 104.89 47.055 104.89 104.89 0 8.581-1.044 16.92-2.996 24.907l-10.29-10.291c-21.264-21.258-55.731-21.257-76.985-.001-21.259 21.259-21.262 55.727-.003 76.986l10.293 10.292A104.712 104.712 0 0 1 256 403.127c-57.837 0-104.89-47.053-104.89-104.89v142.136L256 512c39.221 0 76.002-10.63 107.634-29.142l13.197 13.198c10.632 10.63 24.56 15.944 38.494 15.944 13.931 0 27.864-5.316 38.49-15.943 21.259-21.259 21.262-55.727.003-76.986l-13.197-13.198Z"/><path fill="#D6948C" d="M151.11 298.237c0-83.646 38.731-162.579 104.89-213.762-117.868 0-213.763 95.894-213.763 213.762S138.132 512 256 512c-66.159-51.184-104.89-130.116-104.89-213.763Z"/><path fill="#FFDBE0" d="M174.042 198.248c16.701 0 30.241-10.782 30.241-24.082 0-13.301-13.54-24.083-30.241-24.083-16.702 0-30.241 10.782-30.241 24.083 0 13.3 13.539 24.082 30.241 24.082Zm163.916 0c16.701 0 30.241-10.782 30.241-24.082 0-13.301-13.54-24.083-30.241-24.083-16.702 0-30.241 10.782-30.241 24.083 0 13.3 13.539 24.082 30.241 24.082Z"/><path fill="#313D40" d="M191.666 130.895a7.725 7.725 0 0 0-7.726 7.726v12.363a7.725 7.725 0 0 0 7.726 7.726 7.726 7.726 0 0 0 7.727-7.726v-12.363a7.727 7.727 0 0 0-7.727-7.726Zm128.667 0a7.726 7.726 0 0 0-7.727 7.726v12.363a7.726 7.726 0 0 0 7.727 7.726 7.725 7.725 0 0 0 7.726-7.726v-12.363a7.725 7.725 0 0 0-7.726-7.726Zm-42.296 13.895a7.727 7.727 0 0 0-10.901.749A14.769 14.769 0 0 1 256 150.616a14.77 14.77 0 0 1-11.136-5.077 7.727 7.727 0 0 0-11.651 10.152 30.22 30.22 0 0 0 22.786 10.379 30.22 30.22 0 0 0 22.786-10.379 7.725 7.725 0 0 0-.748-10.901Z"/></g><defs><clipPath id="a"><path fill="#fff" d="M0 0h512v512H0z"/></clipPath></defs></svg>