<svg xmlns="http://www.w3.org/2000/svg" width="512" height="512" fill="none"><g clip-path="url(#a)"><path fill="#FF8E9E" d="M284.741 338.85c50.621-32.965 84.135-89.861 84.135-154.405 0-101.7-83.188-184.438-185.441-184.438-50.185 0-84.584 50.577-66.144 97.251l13.088 33.128h53.056c30.362 0 55.063 24.25 55.063 54.06 0 29.809-24.701 54.06-55.063 54.06h-53.056l-8.027 16.939a65.893 65.893 0 0 0-7.087 6.129l.958 6.805-16.75 35.348 30.906 65.156L254.395 492.9c12.73 12.729 29.416 19.094 46.1 19.094s33.37-6.365 46.1-19.094c25.456-25.46 25.456-66.737 0-92.197l-61.854-61.853Z"/><path fill="#EA5B70" d="M130.379 130.385V53.049c0-29.3 23.756-53.05 53.056-53.043H65.19C29.185.006 0 29.193 0 65.196V446.79c0 36.003 29.185 65.202 65.19 65.202 36.004 0 65.189-29.199 65.189-65.202V130.385Z"/><path fill="#FFDBE0" d="M82.378 115.2c16.701 0 30.241-10.782 30.241-24.083 0-13.3-13.54-24.082-30.241-24.082-16.702 0-30.241 10.782-30.241 24.082 0 13.301 13.54 24.083 30.24 24.083Zm163.915 0c16.701 0 30.241-10.782 30.241-24.083 0-13.3-13.54-24.082-30.241-24.082-16.702 0-30.241 10.782-30.241 24.082 0 13.301 13.539 24.083 30.241 24.083Z"/><path fill="#313D40" d="M100.003 55.058a7.726 7.726 0 0 0-7.727 7.727v12.362a7.726 7.726 0 0 0 7.727 7.726 7.726 7.726 0 0 0 7.726-7.726V62.784a7.726 7.726 0 0 0-7.726-7.726Zm128.665 0a7.726 7.726 0 0 0-7.727 7.727v12.362a7.726 7.726 0 0 0 15.453 0V62.784a7.726 7.726 0 0 0-7.726-7.726Zm-42.296 13.896a7.727 7.727 0 0 0-10.902.75c-5.899 6.767-16.377 6.76-22.271 0a7.728 7.728 0 0 0-11.65 10.152c12.057 13.835 33.525 13.822 45.571 0a7.726 7.726 0 0 0-.748-10.902Z"/><path fill="#FCE3A0" d="m505.838 225.596-18.654-18.654H438.98L320.319 325.601v45.219h70.046l11.708-11.708v-10.927h10.928l11.708-11.708V325.55h10.927l11.708-11.708v-10.927h10.927l11.708-11.708v-10.928h10.927l11.708-11.708v-10.927h10.927l2.3-2.299a21.03 21.03 0 0 0 6.158-14.872 21.033 21.033 0 0 0-6.161-14.877Z"/><path fill="#FFCE71" d="M453.69 220.815a47.366 47.366 0 0 1 33.493-13.873l-38.275-38.275a21.043 21.043 0 0 0-14.875-6.161h-.001c-5.58 0-10.93 2.216-14.875 6.161l-151.329 151.33a21.03 21.03 0 0 0-6.162 14.875v.002a21.03 21.03 0 0 0 6.162 14.874l56.928 56.929a21.035 21.035 0 0 0 14.875 6.162h.003a21.019 21.019 0 0 0 14.869-6.157l2.301-2.301v-10.926h10.926l16.19-16.189-23.837-23.838c-10.771-10.771-10.771-28.235 0-39.005l93.607-93.608Z"/><path fill="#4C5699" d="m337.668 363.393-.266-.266a7.726 7.726 0 1 0-10.927 10.926l.267.266 30.061 30.062 10.927-10.926-30.062-30.062Zm32.664-12.606a7.725 7.725 0 0 0-10.925.014 7.725 7.725 0 0 0 .013 10.926l20.02 20.019 4.48-4.48 6.446-6.446-20.034-20.033Z"/><path fill="#676FB2" d="M382.047 328.158a7.726 7.726 0 0 0 0 10.926l20.027 20.027 10.927-10.927-20.026-20.026a7.73 7.73 0 0 0-10.928 0Zm23.268-32.93a7.727 7.727 0 0 0-10.94 10.914l30.334 30.335 10.927-10.927-30.321-30.322Zm22.004-12.34a7.724 7.724 0 0 0 0 10.926l20.026 20.027 10.928-10.927-20.027-20.026a7.727 7.727 0 0 0-10.927 0Zm33.558-22.637a7.726 7.726 0 1 0-10.921 10.931c.563.561 16.721 16.72 20.024 20.024l10.927-10.928-20.03-20.027Zm12.339-32.935a7.727 7.727 0 0 0-10.928 10.926l30.329 30.327 10.927-10.927-30.328-30.326Z"/></g><defs><clipPath id="a"><path fill="#fff" d="M0 0h512v512H0z"/></clipPath></defs></svg>