<svg xmlns="http://www.w3.org/2000/svg" width="512" height="512" fill="none"><path fill="#9EA2E3" d="M401.926 271.035c-28.832-49.822-81.64-65.785-120.196-77.442-9.648-2.916-24.968-7.548-35.19-12.006-10.99-4.795-15.039-15.16-13.6-25.319h-51.777V265.04l98.003 65.356c23.728 10.342 15.222 46.602-11.2 50.811l-62.108 59.002L262.867 512c88.552 0 160.596-72.044 160.596-160.596.001-28.229-7.446-56.019-21.537-80.369Zm-144.08-140.256c12.883-2.02 24.908 3.835 31.229 14.754 18.034 31.162 57.916 41.804 89.078 23.773 31.164-18.032 41.808-57.915 23.773-89.078-13.73-23.726-33.136-43.127-55.906-56.913H234.478v126.857c3.448-9.406 11.648-17.555 23.368-19.393Z"/><path fill="#8288CB" d="M232.94 156.268a29.846 29.846 0 0 1 1.538-6.095c15.428-57.132 56.524-104.119 111.543-126.858C321.298 8.347 292.609 0 262.866 0c-88.552 0-160.595 72.044-160.595 160.596 0 28.219 7.444 56.003 21.527 80.349 28.83 49.834 81.64 65.798 120.202 77.455 9.641 2.916 24.942 7.541 35.165 11.997-42.699-45.822-61.115-110.771-46.225-174.129Zm35.026 224.939c-12.908 2.057-24.969-3.799-31.304-14.74-18.028-31.162-57.903-41.811-89.078-23.776-31.162 18.032-41.808 57.915-23.773 89.078C152.448 481.257 205.731 512 262.867 512c-25.167-39.821-20.067-90.972 5.099-130.793Z"/><path fill="#313D40" d="M207.539 244.377a7.727 7.727 0 0 0-7.727 7.727v12.362a7.726 7.726 0 0 0 7.727 7.726 7.725 7.725 0 0 0 7.726-7.726v-12.362a7.726 7.726 0 0 0-7.726-7.727Zm80.167 14.188a7.728 7.728 0 0 0-10.902.749c-6.351 7.287-17.637 7.28-23.981 0a7.726 7.726 0 1 0-11.65 10.152c12.509 14.354 34.785 14.34 47.281 0a7.727 7.727 0 0 0-.748-10.901Zm36.767-16.496c-12.16 0-22.052 9.893-22.052 22.052a7.725 7.725 0 0 0 7.726 7.726 7.726 7.726 0 0 0 7.727-7.726 6.606 6.606 0 0 1 6.599-6.599 6.606 6.606 0 0 1 6.599 6.599 7.726 7.726 0 0 0 7.727 7.726 7.725 7.725 0 0 0 7.726-7.726c0-12.159-9.892-22.052-22.052-22.052Z"/><path fill="#FFCE71" d="m148.121 83.443-19.981-2.92-8.935-18.207c-6.904-14.068-26.927-14.147-33.869 0L76.4 80.523l-19.98 2.92c-15.49 2.264-21.674 21.407-10.467 32.395l14.458 14.173-3.413 20.013c-2.645 15.515 13.546 27.346 27.4 20.021l17.87-9.449 17.871 9.449c13.854 7.325 30.046-4.506 27.4-20.021l-3.413-20.013 14.458-14.173c11.211-10.988 5.025-30.132-10.463-32.396Z"/><path fill="#FCE3A0" d="M443.35 416.699a60.1 60.1 0 0 0-16.391-6.945 60.058 60.058 0 0 0-6.946-16.391c-3.745-6.12-12.515-6.12-16.26 0a60.1 60.1 0 0 0-6.945 16.391 60.15 60.15 0 0 0-16.392 6.945c-6.12 3.745-6.12 12.514 0 16.26a60.137 60.137 0 0 0 16.395 6.956 60.01 60.01 0 0 0 6.942 16.38c3.745 6.12 12.515 6.12 16.26 0a60.012 60.012 0 0 0 6.943-16.38 60.125 60.125 0 0 0 16.393-6.956c6.12-3.746 6.121-12.514.001-16.26Zm20.693-220.595h-6.181a7.727 7.727 0 0 0 0 15.453h6.181a7.728 7.728 0 0 0 0-15.453Zm-35.026 0h-6.181a7.727 7.727 0 1 0 0 15.453h6.181a7.727 7.727 0 0 0 0-15.453Zm14.422 14.423a7.726 7.726 0 0 0-7.726 7.726v6.181a7.727 7.727 0 1 0 15.453 0v-6.181a7.727 7.727 0 0 0-7.727-7.726Zm0-13.393a7.727 7.727 0 0 0 7.727-7.726v-6.181a7.728 7.728 0 0 0-15.453 0v6.181a7.726 7.726 0 0 0 7.726 7.726ZM113.781 299.122H107.6a7.727 7.727 0 0 0 0 15.453h6.181a7.728 7.728 0 0 0 0-15.453Zm-35.026 0h-6.181a7.726 7.726 0 1 0 0 15.453h6.181a7.727 7.727 0 0 0 0-15.453Zm14.422 14.423a7.726 7.726 0 0 0-7.726 7.726v6.181a7.727 7.727 0 0 0 15.453 0v-6.181a7.726 7.726 0 0 0-7.727-7.726Zm0-13.393a7.726 7.726 0 0 0 7.727-7.726v-6.181a7.726 7.726 0 0 0-15.453 0v6.181a7.726 7.726 0 0 0 7.727 7.726Z"/></svg>