<svg xmlns="http://www.w3.org/2000/svg" width="512" height="512" fill="none"><g clip-path="url(#a)"><path fill="#7CE3FF" d="M402.286 0h-62.262c-52.192.576-94.326 43.07-94.326 95.398v400.689h52.957c13.798-11.954 22.537-29.59 22.537-49.279V130.385h81.094c36.006 0 65.193-29.188 65.193-65.192C467.479 29.188 438.292 0 402.286 0Z"/><path fill="#2ED0FC" d="M256 416.589V95.398C256 43.07 298.134.577 350.326 0H109.714C73.709 0 44.522 29.188 44.522 65.193c0 36.005 29.185 65.192 65.192 65.192h81.093v316.422C190.807 482.812 219.993 512 256 512c16.317 0 31.221-6.008 42.655-15.914C272.948 478.996 256 449.774 256 416.589Z"/><path fill="#00B27A" d="M399.191 251.408a61.107 61.107 0 0 0-10.87 1.061c-29.419 5.52-50.676 31.363-51.439 61.286l-.12 4.739 38.834 5.942v-20.671c0-4.41.832-8.811 2.697-12.807 3.765-8.062 10.762-13.375 21.282-13.375 7.359 0 13.31-5.975 13.192-13.3-.115-7.221-6.296-12.923-13.576-12.875Z"/><path fill="#00CE8E" d="m382.228 313.422-10.674 5.073-3.96-11.134c-4.497-12.643-22.378-12.643-26.874 0l-3.96 11.134-10.674-5.073c-12.12-5.761-24.765 6.882-19.003 19.001l4.575 9.624 42.498 22.386 42.498-22.386 4.575-9.624c5.763-12.119-6.881-24.762-19.001-19.001Z"/><path fill="#FF8E9E" d="M394.511 338.714c-14.921-.016-28.781 5.125-40.354 13.948h-32.405V493l67.823 14.54c54.421-14.208 77.841-61.051 77.903-94.77.04-42.097-36.335-74.132-72.967-74.056Z"/><path fill="#EA5B70" d="M333.052 446.778a96.318 96.318 0 0 1 21.107-94.116c-11.572-8.822-25.432-13.964-40.353-13.948-36.487-.076-73.008 31.798-72.967 74.056.036 20.247 7.98 40.824 21 57.958 5.689 7.414 12.348 14.17 19.74 19.621C301.151 504.782 327.654 512 354.159 512c12.022 0 24.042-1.49 35.416-4.46-26.796-10.582-47.745-32.763-56.523-60.762Z"/><path fill="#FF8E9E" d="M174.042 112.019c16.701 0 30.241-10.783 30.241-24.083 0-13.3-13.54-24.083-30.241-24.083-16.702 0-30.241 10.783-30.241 24.083 0 13.3 13.539 24.083 30.241 24.083Zm163.916 0c16.701 0 30.241-10.783 30.241-24.083 0-13.3-13.54-24.083-30.241-24.083-16.702 0-30.241 10.783-30.241 24.083 0 13.3 13.539 24.083 30.241 24.083Z"/><path fill="#313D40" d="M191.667 44.665a7.726 7.726 0 0 0-7.727 7.726v12.362a7.726 7.726 0 0 0 15.453 0V52.391a7.726 7.726 0 0 0-7.726-7.726Zm128.667 0a7.726 7.726 0 0 0-7.727 7.726v12.362a7.726 7.726 0 0 0 15.453 0V52.391a7.726 7.726 0 0 0-7.726-7.726ZM278.038 58.56a7.727 7.727 0 0 0-10.902.75A14.773 14.773 0 0 1 256 64.386c-4.266 0-8.324-1.85-11.136-5.076a7.726 7.726 0 0 0-11.65 10.152A30.22 30.22 0 0 0 256 79.839a30.22 30.22 0 0 0 22.786-10.377 7.727 7.727 0 0 0-.748-10.901Z"/></g><defs><clipPath id="a"><path fill="#fff" d="M0 0h512v512H0z"/></clipPath></defs></svg>