<svg xmlns="http://www.w3.org/2000/svg" width="512" height="512" fill="none"><path fill="#676FB2" d="M92.646 435.989c-7.353 7.354-19.615 7.581-26.83.092H39.78v26.443c21.44 21.49 56.771 22.037 78.23.578l51.553-51.553-26.238-26.237-50.678 50.677Z"/><path fill="#D4D4FF" d="M322.547 206.089 143.324 385.312l26.238 26.237 179.223-179.222-26.238-26.238Z"/><path fill="#FFCE71" d="M422.899 0c-36.005 0-65.193 29.188-65.193 65.193v230.25c0 47.515-39.231 86.172-87.452 86.172l-71.871 65.192L270.253 512c120.118 0 217.839-97.147 217.839-216.557V65.193C488.092 29.188 458.905 0 422.899 0Z"/><path fill="#FFB357" d="M270.255 381.615c-48.221 0-87.452-38.656-87.452-86.172V65.193C182.804 29.188 153.617 0 117.611 0 81.605 0 52.418 29.188 52.418 65.193v230.25C52.418 414.853 150.139 512 270.254 512c-27.15-39.222-27.147-91.163.001-130.385Z"/><path fill="#FF8E9E" d="M218.197 438.859c.027-13.379-13.571-24.252-30.371-24.286-16.801-.033-30.442 10.785-30.469 24.164-.027 13.379 13.571 24.252 30.372 24.286 16.8.033 30.442-10.785 30.468-24.164Zm164.856.361c.027-13.379-13.571-24.252-30.372-24.285-16.8-.034-30.442 10.785-30.468 24.164-.027 13.378 13.571 24.251 30.371 24.285 16.801.034 30.442-10.785 30.469-24.164Z"/><path fill="#313D40" d="M205.833 400.75a7.726 7.726 0 0 0-7.727 7.726v12.362a7.726 7.726 0 0 0 7.727 7.726 7.725 7.725 0 0 0 7.726-7.726v-12.362a7.725 7.725 0 0 0-7.726-7.726Zm128.668 0a7.726 7.726 0 0 0-7.727 7.726v12.362a7.726 7.726 0 0 0 7.727 7.726 7.725 7.725 0 0 0 7.726-7.726v-12.362a7.725 7.725 0 0 0-7.726-7.726Zm-34.364 19.732a7.726 7.726 0 0 0-7.726 7.727c0 3.952-3.214 7.166-7.165 7.166a7.173 7.173 0 0 1-7.166-7.166 7.726 7.726 0 1 0-15.453 0c0 3.952-3.214 7.166-7.165 7.166s-7.166-3.214-7.166-7.166a7.726 7.726 0 0 0-7.726-7.727 7.726 7.726 0 0 0-7.726 7.727c0 12.471 10.147 22.618 22.618 22.618 5.7 0 10.91-2.124 14.892-5.615a22.515 22.515 0 0 0 14.892 5.615c12.471 0 22.618-10.147 22.618-22.618a7.726 7.726 0 0 0-7.727-7.727Z"/><path fill="#D4D4FF" d="M420.691 133.443c-7.341-6.949-18.988-6.511-26.136.637l-72.009 72.009 26.238 26.237 72.281-72.281c7.368-7.367 7.243-19.391-.374-26.602Z"/><path fill="#4C5699" d="M215.889 127.836c-13.713 8.177-14.61 28.371-.905 37.773a112.266 112.266 0 0 1 37.86 44.323 41.378 41.378 0 0 0 8.086 11.436h72.573l70.07-70.07c-50.898-50.897-128.56-58.718-187.684-23.462Z"/><path fill="#8288CB" d="m403.574 151.299-70.069 70.069v72.572a41.183 41.183 0 0 0 11.435 8.087 112.28 112.28 0 0 1 44.324 37.861c9.383 13.679 29.582 12.83 37.773-.904 35.256-59.124 27.435-136.788-23.463-187.685Z"/><path fill="#676FB2" d="M260.931 221.369a41.1 41.1 0 0 0 11.393 8.064 112.43 112.43 0 0 1 53.115 53.114 41.213 41.213 0 0 0 8.065 11.393c58.518-59.417 89.833-122.878 70.069-142.642-19.763-19.763-83.225 11.553-142.642 70.071Z"/><path fill="#D4D4FF" d="M39.827 462.571c-.176-.178-.087-.089 0 0Zm.063.061c.04.042.051.052 0 0Z"/><path fill="#4C5699" d="M89.764 360.66c-7.215-7.489-19.477-7.263-26.83.091l-22.476 22.475c-21.622 21.623-22.276 57.648-.68 79.296 0-15.474 12.198-26.442 26.038-26.442-6.996-7.263-6.913-18.824.248-25.985l23.452-23.451c7.161-7.162 7.244-18.721.248-25.984Z"/></svg>