<svg xmlns="http://www.w3.org/2000/svg" width="512" height="512" fill="none"><g clip-path="url(#a)"><path fill="#70DCBA" d="M469.683 4.174c-33.719-12.643-71.286 4.438-83.928 38.15L257.651 383.932l59.435 85.764h47.649L507.831 88.101c12.642-33.711-4.437-71.287-38.148-83.927Z"/><path fill="#30CD9C" d="M303.696 316.843v-55.696L221.634 42.322c-12.639-33.71-50.219-50.794-83.929-38.149-33.71 12.643-50.79 50.219-38.148 83.93l143.101 381.595c9.539 25.442 33.865 42.299 61.038 42.299 27.176 0 51.498-16.857 61.038-42.3a221.913 221.913 0 0 1-61.038-152.854Z"/><path fill="#313D40" d="M263.9 286.422a7.728 7.728 0 0 0-10.902.749 11.328 11.328 0 0 1-8.542 3.895 11.33 11.33 0 0 1-8.543-3.895 7.73 7.73 0 0 0-10.902-.749 7.729 7.729 0 0 0-.749 10.902 26.784 26.784 0 0 0 20.194 9.195c7.74 0 15.098-3.351 20.193-9.195a7.729 7.729 0 0 0-.749-10.902Zm118.478 0a7.727 7.727 0 0 0-10.901.749 11.333 11.333 0 0 1-8.544 3.895 11.33 11.33 0 0 1-8.542-3.895 7.729 7.729 0 0 0-10.901-.749 7.729 7.729 0 0 0-.749 10.902 26.781 26.781 0 0 0 20.192 9.195c7.741 0 15.1-3.351 20.194-9.195a7.729 7.729 0 0 0-.749-10.902Zm-55.87 8.411a7.727 7.727 0 0 0-10.902.749 15.905 15.905 0 0 1-11.991 5.467 15.906 15.906 0 0 1-11.991-5.467 7.728 7.728 0 0 0-11.651 10.152 31.353 31.353 0 0 0 23.641 10.767 31.358 31.358 0 0 0 23.641-10.767 7.726 7.726 0 0 0-.747-10.901Z"/><path fill="#E8B5B1" d="M236.942 424.462c0-33.498-15.087-63.468-38.835-83.494-8.418-7.099-8.994-19.88-1.207-27.666 9.093-9.093 2.69-24.679-10.169-24.679h-61.659L71.279 345.5v166.497h101.51c15.374 0 30.035-6.792 39.733-18.72 15.268-18.779 24.42-42.727 24.42-68.815Z"/><path fill="#D6948C" d="M82.094 426.32c-.569-34.214 14.605-64.899 38.751-85.297 8.439-7.128 9.085-19.912 1.274-27.723-9.094-9.093-2.689-24.677 10.171-24.677H50.211c-12.86 0-19.264 15.584-10.17 24.677 7.81 7.811 7.164 20.595-1.274 27.723C14.62 361.421-.554 392.106.016 426.32c.423 25.47 9.653 48.82 24.729 67.191 9.685 11.801 24.27 18.486 39.536 18.486h61.903c-4.419-3.294-8.992-6.915-12.864-10.826-19.125-19.311-30.74-45.692-31.226-74.851Z"/></g><defs><clipPath id="a"><path fill="#fff" d="M0 0h512v512H0z"/></clipPath></defs></svg>