<svg xmlns="http://www.w3.org/2000/svg" width="512" height="512" fill="none"><g clip-path="url(#a)"><path fill="#976BCF" d="M305.194 178.444c-7.739-20.454-27.325-33.985-49.194-33.985-21.869 0-41.456 13.531-49.194 33.985l-20.29 53.626-59.992-158.567c-12.679-33.51-49.902-51.355-83.573-39.113C8.74 46.83-8.607 84.79 4.236 118.732l121.309 320.624c9.593 25.348 33.868 42.121 60.972 42.121s51.38-16.772 60.973-42.121l8.511-22.497h69.484V232.07l-20.291-53.626Z"/><path fill="#B28AE4" d="M469.049 34.39c-33.672-12.242-70.894 5.604-83.573 39.113L256 416.86l8.511 22.496c9.593 25.349 33.868 42.121 60.973 42.121 27.104 0 51.379-16.771 60.972-42.121l121.309-320.623c12.841-33.943-4.504-71.903-38.716-84.342Z"/><path fill="#FF8E9E" d="M173.61 317.1c-16.801-.037-30.444 10.78-30.473 24.158-.029 13.379 13.566 24.255 30.366 24.292 16.801.037 30.444-10.779 30.473-24.158.03-13.381-13.565-24.255-30.366-24.292Zm164.886.36c-16.8-.037-30.444 10.779-30.473 24.158-.029 13.379 13.567 24.254 30.367 24.291 16.8.038 30.444-10.779 30.473-24.158.03-13.379-13.566-24.255-30.367-24.291Z"/><path fill="#313D40" d="M191.578 303.192a7.726 7.726 0 0 0-7.726 7.727v12.362a7.725 7.725 0 0 0 7.726 7.726 7.725 7.725 0 0 0 7.726-7.726v-12.362a7.726 7.726 0 0 0-7.726-7.727Zm128.667 0a7.726 7.726 0 0 0-7.726 7.727v12.362a7.725 7.725 0 0 0 7.726 7.726 7.725 7.725 0 0 0 7.726-7.726v-12.362a7.726 7.726 0 0 0-7.726-7.727Zm-34.363 19.733a7.726 7.726 0 0 0-7.726 7.727c0 3.95-3.214 7.165-7.165 7.165-3.952 0-7.166-3.215-7.166-7.165a7.726 7.726 0 1 0-15.453 0c0 3.95-3.214 7.165-7.164 7.165-3.952 0-7.166-3.215-7.166-7.165a7.726 7.726 0 1 0-15.453 0c0 19.398 22.95 29.771 37.51 17.002 14.55 12.759 37.51 2.408 37.51-17.002a7.727 7.727 0 0 0-7.727-7.727Z"/><path fill="#FFCE71" d="m60.053 115.063 37.354-.653-.217-12.408"/><path fill="#AC6757" d="m39.856 144.134-29.642 11.379c-8.204 3.149-12.302 12.354-9.153 20.558l16.475 42.917c3.149 8.205 12.354 12.303 20.558 9.153l30.696-11.783-28.934-72.224Z"/><path fill="#FFCE71" d="M92.31 91.028C88.437 80.937 77.118 75.894 67.022 79.77 56.93 83.645 51.89 94.968 55.765 105.06l4.69 12.232L97 103.26l-4.69-12.232Z"/><path fill="#CE857A" d="m189.409 153.289-16.474-42.918c-3.15-8.204-12.354-12.303-20.56-9.153l-24.135 8.99 26.796 73.046 25.22-9.406c8.205-3.15 12.303-12.355 9.153-20.559Z"/><path fill="#FFCE71" d="M144.032 202.324c-9.807 11.504-22.975 18.444-36.822 20.62-.132.021-.262.049-.394.068l-35.469-13.226L56.33 176.91l24.897-68.78 15.962-6.128a60.761 60.761 0 0 1 22.018 3.916 60.684 60.684 0 0 1 17.998 10.63 60.783 60.783 0 0 1 11.974 13.792 60.82 60.82 0 0 1 9.203 27.683c.171 2.146.216 4.3.161 6.455-.351 13.427-5.117 26.829-14.511 37.846Z"/><path fill="#FFB357" d="M54.252 205.409c-27.181-27.742-21.787-73.958 11.774-94.483a60.768 60.768 0 0 1 31.163-8.923c-32.48 35.526-28.074 91.062 9.627 121.012-18.969 2.851-38.48-3.23-52.564-17.606Z"/><path fill="#FFF1D4" d="M97.204 132.912c19.152-.335 33.961 17.206 29.759 36.329-3.087 14.065-15.351 23.34-28.682 23.573-12.542.219-23.993-7.511-28.494-19.235-7.414-19.319 6.65-40.303 27.414-40.666l.003-.001Z"/></g><defs><clipPath id="a"><path fill="#fff" d="M0 0h512v512H0z"/></clipPath></defs></svg>