<svg xmlns="http://www.w3.org/2000/svg" width="512" height="512" fill="none"><g clip-path="url(#a)"><path fill="#30CD9C" d="M188.744 36.857c-25.35-38.025-76.727-48.301-114.753-22.95-38.026 25.351-48.302 76.727-22.95 114.753l84.963 127.445-84.965 127.447c-25.554 38.33-14.907 90.225 23.87 115.355 38.164 24.733 89.292 13.259 114.519-24.581l46.028-69.042V106.927l-46.712-70.07Z"/><path fill="#70DCBA" d="m334.909 256.105 84.963-127.445c25.35-38.026 15.075-89.402-22.951-114.753-38.025-25.35-89.401-15.075-114.752 22.95l-46.713 70.07c-60.224 90.335-60.224 208.021 0 298.356l46.029 69.042c25.227 37.841 76.354 49.313 114.518 24.581 38.778-25.131 49.423-77.026 23.87-115.356l-84.964-127.445Z"/><path fill="#FF8E9E" d="M156.916 223.102c18.013 0 32.616-11.417 32.616-25.5 0-14.084-14.603-25.5-32.616-25.5-18.013 0-32.615 11.416-32.615 25.5 0 14.083 14.602 25.5 32.615 25.5Zm157.079 0c18.013 0 32.616-11.417 32.616-25.5 0-14.084-14.603-25.5-32.616-25.5-18.013 0-32.615 11.416-32.615 25.5 0 14.083 14.602 25.5 32.615 25.5Z"/><path fill="#313D40" d="M173.407 151.667c-5.417 0-9.807 4.39-9.807 9.808v15.693c0 5.418 4.39 9.808 9.807 9.808a9.806 9.806 0 0 0 9.808-9.808v-15.693c0-5.416-4.391-9.808-9.808-9.808Zm124.096 0a9.806 9.806 0 0 0-9.808 9.807v15.693a9.806 9.806 0 0 0 9.808 9.808 9.806 9.806 0 0 0 9.808-9.808v-15.693c0-5.416-4.39-9.807-9.808-9.807Zm-39.258 18.819c-4.084-3.559-10.278-3.133-13.838.951a11.878 11.878 0 0 1-8.953 4.084c-3.427 0-6.69-1.489-8.952-4.084-3.561-4.082-9.756-4.507-13.838-.951-4.083 3.56-4.509 9.755-.951 13.839a31.491 31.491 0 0 0 23.74 10.812 31.491 31.491 0 0 0 23.74-10.812c3.563-4.084 3.136-10.279-.948-13.839Z"/><path fill="#E8B5B1" d="M262.345 318.7h216.6v44.164h-216.6V318.7Z"/><path fill="#FFCE71" d="M271.322 257.838a22.73 22.73 0 0 0-8.977-1.838H251.8c-12.592 0-22.8 10.208-22.8 22.8v125.4c0 12.592 10.208 22.8 22.8 22.8h10.545a22.73 22.73 0 0 0 8.977-1.838c8.129-3.486 13.823-11.558 13.823-20.962V278.8c0-9.404-5.694-17.476-13.823-20.962Z"/><path fill="#FFB357" d="M257.5 404.2V278.8c0-9.404 5.695-17.476 13.822-20.962a22.73 22.73 0 0 0-8.977-1.838H251.8c-12.592 0-22.8 10.208-22.8 22.8v125.4c0 12.592 10.208 22.8 22.8 22.8h10.545a22.73 22.73 0 0 0 8.977-1.838c-8.127-3.486-13.822-11.558-13.822-20.962Z"/><path fill="#5FD9B3" d="M347.037 271.138a22.712 22.712 0 0 0-8.977-1.838h-10.545c-12.592 0-22.8 10.208-22.8 22.8v98.8c0 12.591 10.208 22.8 22.8 22.8h10.545c3.188 0 6.222-.657 8.977-1.839 8.128-3.485 13.823-11.558 13.823-20.961v-98.8c-.001-9.404-5.695-17.476-13.823-20.962Z"/><path fill="#00CE8E" d="M333.215 390.9v-98.8c0-9.405 5.695-17.476 13.822-20.962a22.712 22.712 0 0 0-8.977-1.838h-10.545c-12.592 0-22.8 10.208-22.8 22.8v98.8c0 12.591 10.208 22.8 22.8 22.8h10.545c3.188 0 6.222-.657 8.977-1.839-8.128-3.485-13.822-11.557-13.822-20.961Z"/><path fill="#7CE3FF" d="M422.753 284.438a22.73 22.73 0 0 0-8.977-1.838h-10.545c-12.593 0-22.8 10.208-22.8 22.8v72.2c0 12.593 10.207 22.8 22.8 22.8h10.545c3.188 0 6.222-.656 8.977-1.838 8.128-3.486 13.823-11.558 13.823-20.962v-72.2c0-9.404-5.695-17.476-13.823-20.962Z"/><path fill="#2ED0FC" d="M408.931 377.6v-72.2c0-9.404 5.694-17.476 13.822-20.962a22.73 22.73 0 0 0-8.977-1.838h-10.545c-12.593 0-22.8 10.208-22.8 22.8v72.2c0 12.593 10.207 22.8 22.8 22.8h10.545c3.188 0 6.222-.656 8.977-1.838-8.128-3.486-13.822-11.558-13.822-20.962Z"/><path fill="#C9AAF2" d="M498.468 297.738a22.73 22.73 0 0 0-8.977-1.838h-10.545c-12.592 0-22.8 10.208-22.8 22.8v45.6c0 12.592 10.208 22.8 22.8 22.8h10.545a22.73 22.73 0 0 0 8.977-1.838c8.128-3.486 13.823-11.558 13.823-20.962v-45.6c0-9.404-5.695-17.476-13.823-20.962Z"/><path fill="#B28AE4" d="M484.646 364.3v-45.6c0-9.404 5.694-17.476 13.822-20.962a22.73 22.73 0 0 0-8.977-1.838h-10.545c-12.592 0-22.8 10.208-22.8 22.8v45.6c0 12.592 10.208 22.8 22.8 22.8h10.545a22.73 22.73 0 0 0 8.977-1.838c-8.128-3.486-13.822-11.558-13.822-20.962Z"/><path fill="#E8B5B1" d="m444.119 430.179-59.001 59.001c-5.491 5.49-5.491 14.391 0 19.881 5.49 5.49 14.391 5.49 19.881 0L464 450.06l-19.881-19.881Z"/><path fill="#FFB5C0" d="M476.617 402.973A30.409 30.409 0 0 0 463.463 400c-16.865 0-30.537 13.672-30.537 30.537s13.672 30.537 30.537 30.537c4.71 0 9.17-1.068 13.154-2.973C486.898 453.186 494 442.692 494 430.537s-7.102-22.65-17.383-27.564Z"/><path fill="#FF8E9E" d="M459.235 430.537c0-12.155 7.102-22.649 17.382-27.564A30.409 30.409 0 0 0 463.463 400c-16.865 0-30.537 13.672-30.537 30.537s13.672 30.537 30.537 30.537c4.71 0 9.17-1.068 13.154-2.973-10.28-4.915-17.382-15.409-17.382-27.564Z"/></g><defs><clipPath id="a"><path fill="#fff" d="M0 0h512v512H0z"/></clipPath></defs></svg>