<svg xmlns="http://www.w3.org/2000/svg" width="512" height="512" fill="none"><g clip-path="url(#a)"><path fill="#FFCE71" d="M386.816 10.873C356.822-9.026 316.357-.845 296.454 29.155l-72.881 109.852v137.411h65.304l116.221-175.179c19.907-30.003 11.721-70.46-18.282-90.366Z"/><path fill="#FFB357" d="m223.573 139.007-72.881-109.85C130.788-.85 90.323-9.027 60.329 10.872c-30.003 19.906-38.19 60.363-18.282 90.366l116.446 175.515v169.083c0 35.83 28.503 65.695 64.33 66.158 36.401.47 66.054-28.896 66.054-65.187V276.419c-39.342-31.033-65.304-78.866-65.304-137.412Z"/><path fill="#FF8E9E" d="M161.699 230.001c14.191 0 25.694-8.994 25.694-20.089 0-11.095-11.503-20.089-25.694-20.089-14.191 0-25.695 8.994-25.695 20.089 0 11.095 11.504 20.089 25.695 20.089Zm123.748 0c14.191 0 25.695-8.994 25.695-20.089 0-11.095-11.504-20.089-25.695-20.089s-25.695 8.994-25.695 20.089c0 11.095 11.504 20.089 25.695 20.089Z"/><path fill="#313D40" d="M174.69 173.723a7.726 7.726 0 0 0-7.727 7.727v12.362a7.725 7.725 0 0 0 7.727 7.727 7.725 7.725 0 0 0 7.726-7.727V181.45a7.726 7.726 0 0 0-7.726-7.727Zm97.764 0a7.726 7.726 0 0 0-7.726 7.727v12.362a7.725 7.725 0 0 0 7.726 7.727 7.726 7.726 0 0 0 7.727-7.727V181.45a7.726 7.726 0 0 0-7.727-7.727Zm-30.928 14.826a7.725 7.725 0 0 0-10.901.749 9.36 9.36 0 0 1-7.053 3.217 9.359 9.359 0 0 1-7.053-3.217 7.73 7.73 0 0 0-10.902-.749 7.729 7.729 0 0 0-.749 10.902 24.806 24.806 0 0 0 18.703 8.518 24.805 24.805 0 0 0 18.702-8.518 7.723 7.723 0 0 0-.747-10.902Z"/><path fill="#FFB5C0" d="m469.548 350.415-57.526-22.331-38.813-63.958a121.833 121.833 0 0 0-20.272-1.698c-4.118 0-8.006.212-12.015.613l-.125 109.88h132.897a120.81 120.81 0 0 0-4.146-22.506Z"/><path fill="#FF8E9E" d="M340.922 264.434c-.17-.468.183-.931 0-1.392-10.853 1.084-21.455 3.594-31.261 7.343l-22.22 56.302-49.603 18.858a121.03 121.03 0 0 0-6.127 38.109c0 13.997 2.379 27.434 6.741 39.936l63.667 28.913 37.559 51.652c4.356.474 8.778.725 13.259.725 21.454 0 41.603-5.584 59.086-15.365l7.392-30.983a229.404 229.404 0 0 0 27.627 46.196c3.947 5.124 10.268 7.851 16.7 7.168 15.371-1.631 21.906-18.626 13.18-29.94a192.166 192.166 0 0 1-31.717-61.505l27.11-15.623a121.908 121.908 0 0 0 1.848-21.174c0-3.617-.159-7.197-.469-10.734a47.574 47.574 0 0 0-1.463-.259c-60.069-9.557-110.604-51.028-131.309-108.227Z"/><path fill="#FFB5C0" d="M436.627 279.853c-12.022-9.716-28.66-2.32-30.491 11.851-2.151 16.196-6.212 31.709-12.038 46.401v20.277h32.29a229.538 229.538 0 0 0 16.978-61.65c.833-6.415-1.707-12.812-6.739-16.879Z"/><path fill="#FAD5CB" d="M394.738 257.011c-12.517-4.129-24.202 4.803-24.73 16.775a155.156 155.156 0 0 1-5.312 33.987v30.357h29.403c7.752-19.497 12.444-40.592 13.44-62.729.366-8.298-4.913-15.787-12.801-18.39Zm77.413 66.869c-7.911-15.743-30.05-13.693-34.923 3.558a228.727 228.727 0 0 1-10.839 30.943V370.7h35.578a267.642 267.642 0 0 0 11.542-33.461 18.77 18.77 0 0 0-1.358-13.359Z"/><path fill="#FFB39D" d="M347.069 407.257H281.49a154.398 154.398 0 0 1-34.169 11.628c-11.983 2.565-18.138 15.963-12.427 26.806 4.338 8.236 12.882 11.526 20.638 9.852 5.852-1.263 15.311-3.976 14.571-3.695h39.961v25.064c-14.285 7.699-12.559 29.179 3.335 34.106 5.081 1.575 9.717 1.198 13.878-.728a265.915 265.915 0 0 0 53.042-32.531v-50.564l-33.25-19.938Z"/><path fill="#FF8E9E" d="M380.319 427.196v-19.939h-33.25c-21.534 20.406-47.793 35.875-76.967 44.591-12.892 4.911-16.378 21.988-5.855 31.366 5.383 4.799 12.125 5.973 18.144 4.127 22.396-6.869 35.283-14.532 27.672-10.428 26.5-12.068 50.301-29.024 70.256-49.717Z"/><path fill="#FFB39D" d="M426.389 358.382h-27.061v46.582l48.69-5.87a268.534 268.534 0 0 0 13.959-28.395 166.843 166.843 0 0 1-35.588-12.317Zm-61.694-50.59a154.589 154.589 0 0 1-13.06 32.661l17.886 41.657h24.586v-43.979a167.353 167.353 0 0 1-29.412-30.339Z"/><path fill="#FF8E9E" d="M394.106 338.131c-6.215 15.667-14.455 30.387-24.585 43.979l10.797 25.147 19.009-2.291a230.206 230.206 0 0 0 27.061-46.583 167.752 167.752 0 0 1-32.282-20.252Z"/><path fill="#FAD5CB" d="M467.374 403.185c-71.127-11.318-130.648-60.523-155.157-128.232-3.337-9.218-14.077-13.282-22.696-8.61-7.622 4.133-10.219 12.551-7.656 19.629 1.088 3.003 2.494 6.565 3.251 8.457-4.31-10.544-17.969-13.469-26.059-5.444-5.179 5.135-6.128 11.988-3.8 17.698 2.746 6.733 5.892 13.411 7.296 16.314-5.97-11.525-22.502-11.512-28.447.142-2.608 5.11-2.363 10.328-.234 14.651 37.66 76.493 106.085 132.05 186.507 154.162 4.845 1.332 10.044.333 14.02-2.74 10.965-8.477 7.328-24.614-4.926-28.228 3.198.853 10.386 2.692 17.454 4.108 6.31 1.264 12.795-1.339 16.409-6.665 6.858-10.105 1.024-22.769-10.161-25.005 2.066.401 5.956 1.136 9.097 1.636 7.792 1.241 15.337-3.396 17.73-10.914 3.212-10.09-3.316-19.477-12.628-20.959Z"/><path fill="#FFB5C0" d="M285.117 294.429c-4.31-10.544-17.969-13.469-26.059-5.445-5.179 5.136-6.128 11.989-3.799 17.699 2.745 6.733 5.891 13.411 7.296 16.314 33.036 67.17 94.586 117.972 166.918 137.986 3.198.853 10.386 2.692 17.454 4.108 6.31 1.264 12.796-1.34 16.41-6.665 6.857-10.105 1.023-22.769-10.161-25.005-73.907-16.146-139.386-68.593-168.059-138.992Z"/></g><defs><clipPath id="a"><path fill="#fff" d="M0 0h512v512H0z"/></clipPath></defs></svg>