<svg xmlns="http://www.w3.org/2000/svg" width="512" height="512" fill="none"><g clip-path="url(#a)"><path fill="#55DAFE" d="M440.681 34.43A65.191 65.191 0 0 0 383.203 0H219.587l-57.58 28.87v72.646l57.58 28.869h41.802l-151.236 251.23h140.456l186.836-280.262a65.188 65.188 0 0 0 3.236-66.924Z"/><path fill="#1CBBEA" d="M219.587 0h-90.79C92.791 0 63.603 29.188 63.603 65.192c0 36.005 29.187 65.192 65.194 65.192h90.79c-36.005-36.004-36.005-94.38 0-130.384Zm163.616 381.615H250.61c-31.963 0-54.909-30.78-45.781-61.412l56.561-189.818L74.554 410.646A65.193 65.193 0 0 0 128.797 512h254.406c36.006 0 65.194-29.188 65.194-65.192 0-36.005-29.188-65.193-65.194-65.193Z"/><path fill="#4C5699" d="M255.998 76.886c-17.166 0-31.082 13.916-31.082 31.082h62.163c.001-17.166-13.915-31.082-31.081-31.082Z"/><path fill="#676FB2" d="m236.52 214.301-35.776-99.99c17.711-6.968 36.263-10.509 55.143-10.522H256c18.92 0 37.511 3.54 55.257 10.522l-35.779 99.99c-6.266-2.467-12.82-3.716-19.478-3.716h-.076c-6.608.005-13.149 1.255-19.404 3.716Z"/><path fill="#FFCE71" d="M180.54 100.497h-19.207a26.17 26.17 0 0 0-22.826 13.369l-36.88 65.768 36.88 65.768a26.168 26.168 0 0 0 22.826 13.37h19.207c37.098-7.244 65.098-39.919 65.098-79.138 0-39.218-27.999-71.893-65.098-79.137Z"/><path fill="#FFB357" d="M115.441 179.635c0-39.219 28-71.894 65.099-79.138a81.064 81.064 0 0 0-15.541-1.502c-44.536 0-80.64 36.104-80.64 80.64 0 44.535 36.104 80.639 80.64 80.639 5.317 0 10.511-.52 15.541-1.502-37.099-7.244-65.099-39.919-65.099-79.137Z"/><path fill="#B9F0FF" d="M185.721 134.633h-13.814l-28.838 45 28.838 45.001h13.814c17.004-7.861 28.837-25.07 28.837-45.001 0-19.931-11.833-37.138-28.837-45Z"/><path fill="#7CE3FF" d="M156.884 179.634c0-19.93 11.833-37.139 28.837-45A49.244 49.244 0 0 0 165 130.077c-27.327 0-49.559 22.232-49.559 49.558 0 27.327 22.232 49.559 49.559 49.559 7.396 0 14.412-1.64 20.721-4.557-17.004-7.863-28.837-25.072-28.837-45.003Z"/><path fill="#FFCE71" d="M362.541 100.497h-19.207a26.17 26.17 0 0 0-22.826 13.369l-36.88 65.768 36.88 65.768a26.168 26.168 0 0 0 22.826 13.37h19.207c37.098-7.244 65.098-39.919 65.098-79.138 0-39.218-28-71.893-65.098-79.137Z"/><path fill="#FFB357" d="M297.442 179.635c0-39.219 27.999-71.894 65.098-79.138a81.064 81.064 0 0 0-15.541-1.502c-44.536 0-80.64 36.104-80.64 80.64 0 44.535 36.104 80.639 80.64 80.639 5.317 0 10.511-.52 15.541-1.502-37.099-7.244-65.098-39.919-65.098-79.137Z"/><path fill="#B9F0FF" d="M367.721 134.633h-13.814l-28.838 45 28.838 45.001h13.814c17.004-7.861 28.837-25.07 28.837-45.001 0-19.931-11.833-37.138-28.837-45Z"/><path fill="#7CE3FF" d="M338.884 179.634c0-19.93 11.833-37.139 28.837-45A49.244 49.244 0 0 0 347 130.077c-27.327 0-49.559 22.232-49.559 49.558 0 27.327 22.232 49.559 49.559 49.559 7.396 0 14.412-1.64 20.721-4.557-17.004-7.863-28.837-25.072-28.837-45.003Z"/><path fill="#313D40" d="M163.797 167.252a7.726 7.726 0 0 0-7.727 7.727v12.362a7.726 7.726 0 0 0 7.727 7.727 7.726 7.726 0 0 0 7.727-7.727v-12.362a7.726 7.726 0 0 0-7.727-7.727Zm180.186 0a7.725 7.725 0 0 0-7.727 7.727v12.362a7.725 7.725 0 0 0 7.727 7.727 7.725 7.725 0 0 0 7.726-7.727v-12.362a7.726 7.726 0 0 0-7.726-7.727Zm-65.996 75.709a7.725 7.725 0 0 0-10.901.751c-5.899 6.767-16.378 6.762-22.272 0a7.726 7.726 0 1 0-11.651 10.15c12.056 13.837 33.529 13.825 45.573 0a7.725 7.725 0 0 0-.749-10.901Z"/></g><defs><clipPath id="a"><path fill="#fff" d="M0 0h512v512H0z"/></clipPath></defs></svg>