<svg width="512" height="512" viewBox="0 0 512 512" fill="none" xmlns="http://www.w3.org/2000/svg">
<path d="M313.319 381.046H23.991C17.6291 381.046 11.5276 378.519 7.02857 374.021C2.52953 369.523 0.0013259 363.422 0 357.06L0 166.67C0 152.701 5.54925 139.304 15.427 129.426C25.3047 119.548 38.7018 113.999 52.671 113.999H260.647C274.616 113.999 288.013 119.548 297.891 129.426C307.769 139.304 313.318 152.701 313.318 166.67V381.046H313.319Z" fill="#FCF2D0"/>
<path d="M88.909 113.999H52.671C38.7018 113.999 25.3047 119.548 15.427 129.426C5.54925 139.304 0 152.701 0 166.67L0 357.059C0.00106075 363.421 2.52915 369.522 7.02822 374.021C11.5273 378.519 17.6289 381.046 23.991 381.046H154.248C90.615 312.217 89.558 183.409 88.909 113.999Z" fill="#FAE0BD"/>
<path d="M45.1 381.046H313.319V347.222H44.725L45.1 381.046Z" fill="#A0E7E7"/>
<path d="M45.1 348.475V381.046H23.991C17.6291 381.046 11.5276 378.519 7.02857 374.021C2.52953 369.523 0.0013259 363.422 0 357.06L0 335.939H32.56C34.2066 335.938 35.8372 336.262 37.3587 336.892C38.8802 337.521 40.2626 338.445 41.4272 339.609C42.5917 340.773 43.5154 342.155 44.1456 343.677C44.7758 345.198 45.1001 346.828 45.1 348.475Z" fill="#EDA1AB"/>
<path d="M313.319 381.046H487.839C494.246 381.046 500.391 378.501 504.922 373.971C509.453 369.441 511.999 363.296 512 356.889V312.672C512.001 285.012 504.402 257.882 490.034 234.246L463.628 190.805C460.655 185.914 456.473 181.871 451.484 179.066C446.496 176.26 440.868 174.786 435.145 174.786H313.319V381.046Z" fill="#FCF2D0"/>
<path d="M313.319 381.046H381.135C344.725 336.146 341.806 223.696 341.806 174.784H313.318V381.046H313.319Z" fill="#FAE0BD"/>
<path d="M412.66 435.293C442.618 435.293 466.903 411.008 466.903 381.05C466.903 351.093 442.618 326.807 412.66 326.807C382.702 326.807 358.417 351.093 358.417 381.05C358.417 411.008 382.702 435.293 412.66 435.293Z" fill="#4E5660"/>
<path d="M412.66 402.543C424.53 402.543 434.153 392.92 434.153 381.05C434.153 369.18 424.53 359.557 412.66 359.557C400.79 359.557 391.167 369.18 391.167 381.05C391.167 392.92 400.79 402.543 412.66 402.543Z" fill="#A0E7E7"/>
<path d="M138.058 435.293C168.016 435.293 192.301 411.008 192.301 381.05C192.301 351.093 168.016 326.807 138.058 326.807C108.1 326.807 83.8149 351.093 83.8149 381.05C83.8149 411.008 108.1 435.293 138.058 435.293Z" fill="#4E5660"/>
<path d="M138.058 402.543C149.928 402.543 159.551 392.92 159.551 381.05C159.551 369.18 149.928 359.557 138.058 359.557C126.188 359.557 116.565 369.18 116.565 381.05C116.565 392.92 126.188 402.543 138.058 402.543Z" fill="#A0E7E7"/>
<path d="M425.4 174.789H341.8L354.863 134.57C356.019 131.01 358.273 127.908 361.301 125.708C364.328 123.507 367.975 122.322 371.718 122.322H395.479C399.222 122.322 402.869 123.507 405.897 125.708C408.924 127.908 411.178 131.01 412.334 134.57L425.4 174.789Z" fill="#EDA1AB"/>
<path d="M466.9 348.475V381.046H487.836C494.244 381.047 500.389 378.502 504.921 373.972C509.453 369.442 511.999 363.297 512 356.889V335.938H479.44C477.793 335.938 476.163 336.262 474.641 336.891C473.12 337.521 471.738 338.445 470.573 339.609C469.409 340.773 468.485 342.155 467.855 343.677C467.224 345.198 466.9 346.828 466.9 348.475Z" fill="#EDA1AB"/>
<path d="M398.3 267.01H504.93C501.289 255.534 496.289 244.534 490.035 234.246L474.807 209.196H398.3C396.603 209.196 394.923 209.53 393.356 210.179C391.789 210.828 390.364 211.78 389.165 212.98C387.965 214.179 387.014 215.604 386.364 217.171C385.715 218.738 385.381 220.418 385.381 222.115V254.092C385.381 257.518 386.742 260.804 389.165 263.226C391.588 265.649 394.874 267.01 398.3 267.01Z" fill="#A3DEFE"/>
<path d="M398.3 267.01H504.93C501.289 255.534 496.289 244.534 490.035 234.246L474.807 209.196H398.3C396.603 209.196 394.923 209.53 393.356 210.179C391.789 210.828 390.364 211.78 389.165 212.98C387.965 214.179 387.014 215.604 386.364 217.171C385.715 218.738 385.381 220.418 385.381 222.115V254.092C385.381 257.518 386.742 260.804 389.165 263.226C391.588 265.649 394.874 267.01 398.3 267.01Z" fill="#A3DEFE"/>
<path d="M504.929 267.01C501.288 255.534 496.288 244.534 490.034 234.246L482.75 222.266L438.006 267.01H504.929Z" fill="#7ACEFA"/>
<path d="M375.991 305.396H358.416C356.427 305.396 354.519 304.606 353.113 303.199C351.706 301.793 350.916 299.885 350.916 297.896C350.916 295.907 351.706 293.999 353.113 292.593C354.519 291.186 356.427 290.396 358.416 290.396H375.991C377.98 290.396 379.888 291.186 381.294 292.593C382.701 293.999 383.491 295.907 383.491 297.896C383.491 299.885 382.701 301.793 381.294 303.199C379.888 304.606 377.98 305.396 375.991 305.396Z" fill="#FAE0BD"/>
<path d="M174.407 189.046V162.966C174.407 161.717 173.911 160.52 173.028 159.637C172.146 158.755 170.948 158.259 169.7 158.259H143.62C142.372 158.259 141.174 158.755 140.292 159.637C139.409 160.52 138.913 161.717 138.913 162.966V189.046C138.913 190.294 138.417 191.491 137.534 192.374C136.652 193.257 135.454 193.753 134.206 193.753H108.126C106.878 193.753 105.68 194.249 104.798 195.131C103.915 196.014 103.419 197.211 103.419 198.46V224.546C103.419 225.794 103.915 226.991 104.798 227.874C105.68 228.757 106.878 229.253 108.126 229.253H134.206C135.454 229.253 136.652 229.749 137.534 230.631C138.417 231.514 138.913 232.711 138.913 233.96V260.04C138.913 260.658 139.034 261.27 139.271 261.841C139.507 262.412 139.854 262.931 140.291 263.368C140.728 263.806 141.247 264.152 141.819 264.389C142.39 264.625 143.002 264.747 143.62 264.747H169.7C170.318 264.747 170.93 264.625 171.501 264.389C172.073 264.152 172.591 263.806 173.029 263.368C173.466 262.931 173.812 262.412 174.049 261.841C174.285 261.27 174.407 260.658 174.407 260.04V233.96C174.407 233.342 174.528 232.729 174.765 232.158C175.001 231.587 175.348 231.068 175.785 230.631C176.222 230.194 176.741 229.847 177.313 229.611C177.884 229.374 178.496 229.253 179.114 229.253H205.194C206.442 229.253 207.639 228.756 208.522 227.874C209.404 226.991 209.9 225.794 209.9 224.546V198.466C209.9 197.217 209.404 196.02 208.521 195.137C207.639 194.255 206.441 193.759 205.193 193.759H179.113C178.494 193.759 177.882 193.636 177.311 193.399C176.739 193.162 176.22 192.815 175.783 192.377C175.346 191.94 175 191.42 174.764 190.849C174.528 190.277 174.406 189.664 174.407 189.046Z" fill="#EDA1AB"/>
<path d="M84.479 300.852H47.1C44.3226 300.852 41.6591 299.748 39.6952 297.785C37.7313 295.821 36.628 293.157 36.628 290.38V273.523C36.628 270.745 37.7313 268.082 39.6952 266.118C41.6591 264.154 44.3226 263.051 47.1 263.051H84.479C87.2563 263.051 89.9199 264.154 91.8838 266.118C93.8477 268.082 94.951 270.745 94.951 273.523V290.38C94.9507 293.157 93.8473 295.82 91.8835 297.784C89.9197 299.748 87.2563 300.852 84.479 300.852Z" fill="#7ACEFA"/>
<path d="M228.84 300.852H266.216C268.993 300.852 271.657 299.748 273.621 297.785C275.585 295.821 276.688 293.157 276.688 290.38V273.523C276.688 270.745 275.585 268.082 273.621 266.118C271.657 264.154 268.993 263.051 266.216 263.051H228.84C226.063 263.051 223.399 264.154 221.435 266.118C219.471 268.082 218.368 270.745 218.368 273.523V290.38C218.368 293.157 219.472 295.82 221.435 297.784C223.399 299.748 226.063 300.852 228.84 300.852Z" fill="#7ACEFA"/>
</svg>
