<svg width="559" height="512" viewBox="0 0 559 512" fill="none" xmlns="http://www.w3.org/2000/svg">
<path d="M0.0150566 141.314C-1.07594 68.0788 57.2601 6.44684 130.5 6.00284C163.25 5.75378 194.902 17.8001 219.2 39.7608C226.075 45.9235 234.982 49.3316 244.215 49.3316C253.448 49.3316 262.355 45.9235 269.23 39.7608C293.527 17.7994 325.18 5.7529 357.93 6.00284C431.172 6.44684 489.508 68.0788 488.417 141.314C486.85 246.444 423.48 274.338 423.48 363.356C423.48 451.772 382.627 505.851 342.651 505.851C300.381 505.851 275.981 456.463 259.051 414.022C253.716 400.651 234.721 400.651 229.386 414.022C212.453 456.463 188.053 505.851 145.786 505.851C105.81 505.851 64.9571 451.771 64.9571 363.356C64.9571 274.338 1.58706 246.443 0.0210566 141.314H0.0150566Z" fill="#FCF2D0"/>
<path d="M92.8361 11.856C38.2711 28.91 -0.880931 81.198 0.0150694 141.314C1.58107 246.443 64.9511 274.338 64.9511 363.356C64.9511 451.772 105.804 505.851 145.78 505.851C184.852 505.851 208.656 463.651 225.407 423.751C121.021 386.431 52.0151 129.78 92.8361 11.856Z" fill="#FAE0BD"/>
<path d="M479.192 406.317C522.864 362.645 522.864 291.84 479.192 248.168C435.521 204.497 364.715 204.497 321.043 248.168C277.372 291.84 277.372 362.645 321.043 406.317C364.715 449.989 435.521 449.989 479.192 406.317Z" fill="#EDA1AB"/>
<path d="M422.257 299.291V266.836C422.257 266.067 422.106 265.305 421.811 264.594C421.517 263.884 421.085 263.238 420.541 262.694C419.997 262.15 419.352 261.718 418.641 261.424C417.93 261.13 417.168 260.978 416.399 260.978H383.944C383.175 260.978 382.413 261.13 381.702 261.424C380.992 261.718 380.346 262.15 379.802 262.694C379.258 263.238 378.826 263.884 378.532 264.594C378.238 265.305 378.086 266.067 378.086 266.836V299.291C378.086 300.06 377.934 300.822 377.64 301.533C377.346 302.243 376.914 302.889 376.37 303.433C375.826 303.977 375.181 304.409 374.47 304.703C373.759 304.998 372.997 305.149 372.228 305.149H339.773C338.219 305.149 336.729 305.766 335.631 306.865C334.532 307.963 333.915 309.453 333.915 311.007V343.462C333.915 345.016 334.532 346.506 335.631 347.604C336.729 348.703 338.219 349.32 339.773 349.32H372.228C372.997 349.32 373.759 349.472 374.47 349.766C375.181 350.06 375.826 350.492 376.37 351.036C376.914 351.58 377.346 352.226 377.64 352.936C377.934 353.647 378.086 354.409 378.086 355.178V387.633C378.086 389.187 378.703 390.677 379.802 391.775C380.9 392.874 382.39 393.491 383.944 393.491H416.4C417.954 393.491 419.444 392.874 420.542 391.775C421.641 390.677 422.258 389.187 422.258 387.633V355.178C422.258 353.624 422.875 352.134 423.974 351.036C425.072 349.937 426.562 349.32 428.116 349.32H460.57C462.124 349.32 463.614 348.703 464.712 347.604C465.811 346.506 466.428 345.016 466.428 343.462V311.007C466.428 309.453 465.811 307.963 464.712 306.865C463.614 305.766 462.124 305.149 460.57 305.149H428.115C426.561 305.149 425.071 304.532 423.973 303.433C422.874 302.335 422.257 300.845 422.257 299.291Z" fill="white"/>
</svg>
