<svg width="564" height="512" viewBox="0 0 564 512" fill="none" xmlns="http://www.w3.org/2000/svg">
<path d="M418.92 489.176C421.842 489.176 424.729 488.546 427.385 487.331C430.042 486.115 432.406 484.342 434.316 482.131C436.226 479.921 437.638 477.325 438.456 474.52C439.273 471.715 439.477 468.767 439.054 465.876C433.459 428.13 414.485 393.652 385.593 368.727C356.7 343.801 319.812 330.089 281.654 330.089C243.496 330.089 206.608 343.801 177.715 368.727C148.823 393.652 129.849 428.13 124.254 465.876C123.831 468.767 124.035 471.715 124.852 474.52C125.67 477.324 127.082 479.92 128.992 482.131C130.902 484.341 133.266 486.115 135.923 487.331C138.579 488.546 141.466 489.176 144.388 489.176H418.92Z" fill="#FCF2D0"/>
<path d="M200.196 339.799L228.086 458.438L255.967 489.176H307.339L335.22 458.438L363.11 339.799H200.196Z" fill="#FCF2D0"/>
<path d="M281.653 422.293C321.576 422.293 353.94 398.708 353.94 369.614C353.94 340.52 321.576 316.935 281.653 316.935C241.73 316.935 209.366 340.52 209.366 369.614C209.366 398.708 241.73 422.293 281.653 422.293Z" fill="#FFCABD"/>
<path d="M201.939 330.08L159.746 363.638C158.465 364.657 157.44 365.961 156.752 367.445C156.064 368.93 155.732 370.555 155.782 372.191C155.832 373.827 156.264 375.428 157.042 376.867C157.82 378.307 158.924 379.545 160.265 380.483L194.643 404.525C196.595 405.891 197.936 407.964 198.381 410.304C198.827 412.644 198.34 415.066 197.026 417.052L185.393 434.634C184.128 436.546 183.522 438.82 183.669 441.108C183.816 443.396 184.706 445.574 186.205 447.309L222.37 489.175H255.97C251.718 447.668 227.44 367.287 201.943 330.075L201.939 330.08Z" fill="#A3DEFE"/>
<path d="M361.367 330.08L403.56 363.638C404.841 364.657 405.866 365.961 406.554 367.445C407.242 368.93 407.574 370.555 407.524 372.191C407.473 373.827 407.042 375.428 406.264 376.867C405.485 378.307 404.382 379.545 403.041 380.483L368.663 404.525C366.711 405.891 365.37 407.964 364.924 410.304C364.479 412.644 364.966 415.066 366.28 417.052L377.913 434.634C379.178 436.546 379.783 438.82 379.637 441.108C379.49 443.396 378.6 445.574 377.101 447.309L340.936 489.175H307.336C311.587 447.668 335.866 367.287 361.363 330.075L361.367 330.08Z" fill="#A3DEFE"/>
<path d="M131.303 253.085C155.476 228.912 155.476 189.721 131.303 165.549C107.131 141.377 67.9401 141.377 43.7678 165.549C19.5955 189.721 19.5955 228.912 43.7678 253.085C67.9401 277.257 107.131 277.257 131.303 253.085Z" fill="#FFCABD"/>
<path d="M519.465 253.127C543.638 228.954 543.638 189.763 519.465 165.591C495.293 141.419 456.102 141.419 431.93 165.591C407.758 189.763 407.758 228.954 431.93 253.127C456.102 277.299 495.293 277.299 519.465 253.127Z" fill="#FFCABD"/>
<path d="M470.38 218.457C470.38 314.378 385.88 381.009 281.653 381.009C177.426 381.009 92.926 314.378 92.926 218.457C92.926 122.536 177.422 44.7759 281.653 44.7759C385.884 44.7759 470.38 122.536 470.38 218.457Z" fill="#FFDCCE"/>
<path d="M193.741 274.581C211.656 274.581 226.179 263.016 226.179 248.749C226.179 234.482 211.656 222.917 193.741 222.917C175.826 222.917 161.303 234.482 161.303 248.749C161.303 263.016 175.826 274.581 193.741 274.581Z" fill="#EDA1AB"/>
<path d="M369.565 274.581C387.48 274.581 402.003 263.016 402.003 248.749C402.003 234.482 387.48 222.917 369.565 222.917C351.65 222.917 337.127 234.482 337.127 248.749C337.127 263.016 351.65 274.581 369.565 274.581Z" fill="#EDA1AB"/>
<path d="M228.086 228.14C226.097 228.14 224.189 227.35 222.783 225.943C221.376 224.537 220.586 222.629 220.586 220.64C220.586 219.598 220.381 218.565 219.982 217.602C219.583 216.639 218.998 215.764 218.261 215.026C217.524 214.289 216.648 213.704 215.685 213.305C214.722 212.907 213.69 212.701 212.647 212.701C211.604 212.701 210.572 212.907 209.609 213.305C208.646 213.704 207.77 214.289 207.033 215.026C206.296 215.764 205.711 216.639 205.312 217.602C204.913 218.565 204.708 219.598 204.708 220.64C204.708 222.629 203.918 224.537 202.511 225.943C201.105 227.35 199.197 228.14 197.208 228.14C195.219 228.14 193.311 227.35 191.905 225.943C190.498 224.537 189.708 222.629 189.708 220.64C189.708 217.628 190.301 214.645 191.454 211.862C192.607 209.079 194.297 206.55 196.427 204.42C198.557 202.29 201.086 200.6 203.869 199.447C206.652 198.295 209.635 197.701 212.647 197.701C215.659 197.701 218.642 198.295 221.425 199.447C224.208 200.6 226.737 202.29 228.867 204.42C230.997 206.55 232.687 209.079 233.84 211.862C234.993 214.645 235.586 217.628 235.586 220.64C235.586 222.629 234.796 224.537 233.389 225.943C231.983 227.35 230.075 228.14 228.086 228.14Z" fill="#4E5660"/>
<path d="M366.099 228.14C364.11 228.14 362.202 227.35 360.796 225.943C359.389 224.537 358.599 222.629 358.599 220.64C358.599 219.598 358.394 218.565 357.995 217.602C357.596 216.639 357.011 215.764 356.274 215.026C355.536 214.289 354.661 213.704 353.698 213.305C352.735 212.907 351.703 212.701 350.66 212.701C349.617 212.701 348.585 212.907 347.622 213.305C346.659 213.704 345.783 214.289 345.046 215.026C344.309 215.764 343.724 216.639 343.325 217.602C342.926 218.565 342.721 219.598 342.721 220.64C342.721 222.629 341.931 224.537 340.524 225.943C339.118 227.35 337.21 228.14 335.221 228.14C333.232 228.14 331.324 227.35 329.918 225.943C328.511 224.537 327.721 222.629 327.721 220.64C327.721 214.556 330.138 208.722 334.44 204.42C338.742 200.118 344.576 197.701 350.66 197.701C356.744 197.701 362.578 200.118 366.88 204.42C371.182 208.722 373.599 214.556 373.599 220.64C373.599 222.629 372.809 224.537 371.402 225.943C369.996 227.35 368.088 228.14 366.099 228.14Z" fill="#4E5660"/>
<path d="M281.653 253.647C277.477 253.646 273.349 252.75 269.549 251.019C265.748 249.288 262.363 246.763 259.621 243.613C258.314 242.114 257.656 240.156 257.793 238.172C257.929 236.187 258.848 234.338 260.348 233.031C261.848 231.724 263.805 231.067 265.789 231.203C267.774 231.34 269.623 232.259 270.93 233.758C272.263 235.293 273.911 236.524 275.761 237.367C277.611 238.211 279.621 238.647 281.654 238.647C283.687 238.647 285.697 238.211 287.547 237.367C289.397 236.524 291.044 235.293 292.378 233.758C293.025 233.016 293.812 232.408 294.694 231.969C295.576 231.531 296.536 231.271 297.518 231.203C298.501 231.136 299.487 231.262 300.421 231.576C301.355 231.89 302.217 232.384 302.96 233.031C303.702 233.678 304.31 234.465 304.749 235.347C305.187 236.229 305.447 237.189 305.515 238.172C305.583 239.154 305.456 240.141 305.142 241.074C304.828 242.008 304.334 242.871 303.687 243.613C300.944 246.763 297.558 249.288 293.758 251.019C289.957 252.75 285.829 253.646 281.653 253.647Z" fill="#4E5660"/>
<path d="M281.653 23C163.388 23 70.4921 112.6 71.1601 219.362C71.1736 222.441 72.4054 225.39 74.5863 227.563C76.7672 229.737 79.7199 230.959 82.7991 230.962H97.0191C100.078 230.963 103.014 229.758 105.19 227.607C107.366 225.457 108.606 222.535 108.64 219.476C109.332 155.866 153.75 99.686 203.84 80.515C206.175 79.628 208.737 79.5342 211.131 80.2483C213.524 80.9624 215.616 82.4446 217.083 84.466C229.183 100.943 250.037 113.732 281.652 113.732C313.267 113.732 334.122 100.942 346.221 84.467C347.688 82.4457 349.78 80.9637 352.174 80.2496C354.567 79.5355 357.129 79.6291 359.464 80.516C409.554 99.686 453.972 155.867 454.664 219.477C454.699 222.536 455.938 225.458 458.114 227.608C460.29 229.759 463.226 230.964 466.285 230.963H480.505C483.584 230.96 486.537 229.738 488.718 227.564C490.898 225.39 492.13 222.442 492.144 219.363C492.816 112.537 399.824 23 281.653 23Z" fill="#EDA1AB"/>
<path d="M193.614 84.9819C185.695 76.3149 180.847 58.2249 184.106 45.1479C116.163 78.188 70.6921 144.559 71.1591 219.362C71.1726 222.441 72.4044 225.39 74.5853 227.563C76.7662 229.737 79.7189 230.959 82.7981 230.962H97.0181C100.077 230.963 103.013 229.758 105.189 227.607C107.365 225.457 108.605 222.535 108.639 219.476C109.285 160.232 147.853 107.44 193.614 84.9819Z" fill="#E8899E"/>
</svg>
