<svg width="512" height="512" viewBox="0 0 512 512" fill="none" xmlns="http://www.w3.org/2000/svg">
<path d="M470.084 512H42.8521C38.4462 512 34.0989 510.991 30.1439 509.049C26.1888 507.108 22.7312 504.286 20.0365 500.8C17.3418 497.315 15.4817 493.258 14.5989 488.941C13.7161 484.625 13.8342 480.164 14.9441 475.9L26.6921 430.733C29.694 419.191 36.441 408.972 45.8755 401.678C55.31 394.383 66.8985 390.426 78.8241 390.426H434.113C446.039 390.426 457.627 394.383 467.061 401.678C476.496 408.972 483.243 419.191 486.245 430.733L497.993 475.9C499.103 480.164 499.22 484.625 498.337 488.941C497.454 493.258 495.594 497.314 492.899 500.8C490.205 504.286 486.747 507.108 482.792 509.049C478.837 510.99 474.49 512 470.084 512Z" fill="#F6EE86"/>
<path d="M161.523 390.431H78.823C66.8975 390.431 55.3091 394.389 45.8746 401.683C36.4402 408.978 29.693 419.197 26.691 430.738L14.943 475.9C13.8335 480.164 13.7158 484.625 14.5988 488.942C15.4817 493.258 17.342 497.315 20.0367 500.8C22.7315 504.286 26.189 507.108 30.144 509.049C34.099 510.991 38.4462 512 42.852 512H188.368C158.188 486.677 151.156 413.18 161.525 390.431H161.523Z" fill="#F2D98D"/>
<path d="M308.175 147.324H204.761C176.631 147.324 149.534 157.922 128.868 177.006C108.202 196.09 95.4838 222.259 93.2481 250.3L82.0781 390.432H430.858L419.688 250.3C417.452 222.259 404.735 196.09 384.068 177.006C363.402 157.922 336.305 147.324 308.175 147.324Z" fill="#EDA1AB"/>
<path d="M171.253 152.442C149.982 159.126 131.192 172.013 117.295 189.449C103.397 206.884 95.0254 228.075 93.2531 250.301L82.0781 390.431H226.973C170.108 340.307 152.391 219.048 171.253 152.442Z" fill="#E8899E"/>
<path d="M280.145 238.921V204.127C280.145 202.462 279.483 200.864 278.306 199.687C277.128 198.509 275.531 197.847 273.865 197.847H239.068C237.402 197.847 235.805 198.509 234.627 199.687C233.45 200.864 232.788 202.462 232.788 204.127V238.921C232.788 240.587 232.126 242.184 230.949 243.362C229.771 244.54 228.174 245.201 226.508 245.201H191.718C190.052 245.201 188.455 245.863 187.277 247.041C186.1 248.218 185.438 249.816 185.438 251.481V286.274C185.438 287.94 186.1 289.537 187.277 290.715C188.455 291.893 190.052 292.554 191.718 292.554H226.512C228.178 292.554 229.775 293.216 230.953 294.394C232.13 295.571 232.792 297.169 232.792 298.834V333.628C232.792 335.294 233.454 336.891 234.631 338.069C235.809 339.247 237.406 339.908 239.072 339.908H273.868C275.534 339.908 277.131 339.247 278.309 338.069C279.486 336.891 280.148 335.294 280.148 333.628V298.834C280.148 297.169 280.81 295.571 281.987 294.394C283.165 293.216 284.762 292.554 286.428 292.554H321.218C322.884 292.554 324.481 291.893 325.659 290.715C326.836 289.537 327.498 287.94 327.498 286.274V251.481C327.498 249.816 326.836 248.218 325.659 247.041C324.481 245.863 322.884 245.201 321.218 245.201H286.425C284.759 245.201 283.162 244.54 281.984 243.362C280.807 242.184 280.145 240.587 280.145 238.921Z" fill="white"/>
<path d="M256.468 84.893C251.164 84.893 246.077 82.7859 242.326 79.0351C238.575 75.2844 236.468 70.1973 236.468 64.893V20C236.468 14.6957 238.575 9.60859 242.326 5.85786C246.077 2.10714 251.164 0 256.468 0C261.772 0 266.859 2.10714 270.61 5.85786C274.361 9.60859 276.468 14.6957 276.468 20V64.89C276.468 67.5167 275.951 70.1177 274.946 72.5446C273.942 74.9714 272.468 77.1766 270.611 79.0341C268.754 80.8916 266.549 82.365 264.122 83.3703C261.696 84.3756 259.095 84.893 256.468 84.893Z" fill="#E8899E"/>
<path d="M76.0091 125.034L41.3441 90.3699C37.5926 86.6185 35.485 81.5306 35.4849 76.2252C35.4848 70.9199 37.5922 65.8319 41.3436 62.0804C45.0949 58.3289 50.1829 56.2213 55.4882 56.2212C60.7935 56.2211 65.8816 58.3285 69.6331 62.0799L104.297 96.7439C108.049 100.495 110.156 105.583 110.156 110.888C110.157 116.193 108.049 121.281 104.298 125.033C100.547 128.784 95.459 130.892 90.1538 130.892C84.8485 130.892 79.7605 128.785 76.0091 125.034Z" fill="#E8899E"/>
<path d="M408.638 125.034C406.78 123.177 405.306 120.972 404.301 118.545C403.295 116.118 402.778 113.516 402.778 110.889C402.778 108.262 403.295 105.661 404.301 103.234C405.306 100.807 406.78 98.6021 408.638 96.7449L443.302 62.0809C445.16 60.2234 447.365 58.75 449.792 57.7447C452.219 56.7395 454.82 56.2221 457.447 56.2222C460.074 56.2222 462.675 56.7397 465.102 57.745C467.529 58.7503 469.734 60.2238 471.592 62.0814C473.449 63.9389 474.922 66.1441 475.928 68.5711C476.933 70.9981 477.45 73.5993 477.45 76.2262C477.45 78.8531 476.933 81.4543 475.927 83.8813C474.922 86.3082 473.449 88.5134 471.591 90.3709L436.928 125.035C433.176 128.786 428.088 130.893 422.783 130.893C417.478 130.893 412.39 128.785 408.638 125.034Z" fill="#E8899E"/>
</svg>
