<svg width="512" height="512" viewBox="0 0 512 512" fill="none" xmlns="http://www.w3.org/2000/svg">
<path d="M338.318 383.239V504.999H142.794L113.655 444.12L142.794 383.239H338.318Z" fill="#F9ED80"/>
<path d="M142.794 383.239V504.999H84.5161C84.5161 410.806 142.794 383.239 142.794 383.239Z" fill="#DA9D81"/>
<path d="M437.882 235.338V235.333C437.913 207.389 432.297 179.727 421.37 154.008L229.262 125.146L37.1432 154.008C26.2256 179.729 20.6135 207.39 20.6432 235.333V235.338H437.882Z" fill="#5C586F"/>
<path d="M85.0472 226.67C85.0472 198.501 91.3372 170.324 102.606 144.17L37.1432 154.004C26.2256 179.725 20.6135 207.386 20.6432 235.329V235.334H85.2572C85.1252 232.461 85.0472 229.573 85.0472 226.667V226.67Z" fill="#4F4C5F"/>
<path d="M400.568 281.286C425.944 281.286 446.516 260.715 446.516 235.338C446.516 209.962 425.944 189.39 400.568 189.39C375.192 189.39 354.62 209.962 354.62 235.338C354.62 260.715 375.192 281.286 400.568 281.286Z" fill="#C7856A"/>
<path d="M229.258 406.647C323.869 406.647 400.567 329.949 400.567 235.338C400.567 140.726 323.869 64.0288 229.258 64.0288C134.646 64.0288 57.9487 140.726 57.9487 235.338C57.9487 329.949 134.646 406.647 229.258 406.647Z" fill="#DA9D81"/>
<path d="M216.038 406.144C139.817 380.513 85.047 309.844 85.047 226.67C85.047 179.306 102.81 131.912 132.177 94.187C98.9427 117.065 74.8336 150.923 64.0849 189.813C57.5846 188.921 50.9686 189.432 44.682 191.31C38.3955 193.189 32.5842 196.392 27.639 200.704C22.6938 205.017 18.7295 210.338 16.0127 216.31C13.296 222.283 11.8898 228.768 11.8887 235.329C11.8876 241.89 13.2917 248.376 16.0065 254.349C18.7213 260.322 22.6838 265.645 27.6276 269.959C32.5713 274.273 38.3816 277.478 44.6675 279.358C50.9535 281.239 57.5693 281.752 64.0699 280.862C73.4511 314.833 93.0742 345.087 120.267 367.505C147.46 389.922 180.902 403.415 216.038 406.144Z" fill="#C7856A"/>
<path d="M362.296 65.858C361.954 65.7767 361.611 65.698 361.267 65.622L361.153 65.597L361.147 65.585C353.821 50.0985 341.411 37.5888 325.984 30.1388C310.557 22.6888 293.043 20.7482 276.359 24.64L276.295 24.589C262.965 13.8493 246.36 7.99447 229.242 7.99756C212.123 8.00065 195.522 13.8615 182.195 24.606L182.153 24.64C165.634 20.511 148.194 22.2439 132.811 29.5427C117.427 36.8414 105.054 49.2536 97.804 64.66L97.363 65.597L97.236 65.625C96.892 65.701 96.549 65.7797 96.207 65.861C53.353 76.019 60.742 139.117 104.784 139.131L353.716 139.114C397.758 139.114 405.151 76.014 362.296 65.858Z" fill="#5C586F"/>
<path d="M104.856 139.131C134.607 74.477 194.956 23.324 265.746 17.476C252.694 10.2071 237.769 7.00227 222.883 8.27262C207.998 9.54297 193.831 15.2305 182.2 24.606L182.158 24.64C165.638 20.51 148.198 22.2423 132.813 29.5412C117.429 36.84 105.055 49.2528 97.8049 64.66L97.3639 65.597L97.2369 65.625C96.8929 65.7017 96.5499 65.7803 96.2079 65.861C53.3539 76.02 60.7429 139.117 104.785 139.131H104.856Z" fill="#4F4C5F"/>
<path d="M421.369 154.008H37.1431C44.8796 135.809 55.1613 118.8 67.6801 103.491H390.824C403.35 118.797 413.636 135.806 421.371 154.008H421.369Z" fill="#F9ED80"/>
<path d="M238.88 386.767H437.75V426.949H238.88V386.767Z" fill="#C7C5CB"/>
<path d="M338.314 359.974C333.286 359.974 328.307 360.964 323.661 362.888C319.015 364.813 314.794 367.633 311.239 371.188C307.683 374.744 304.863 378.965 302.939 383.61C301.014 388.256 300.024 393.235 300.024 398.263V466.709C300.024 476.864 304.058 486.603 311.238 493.784C318.419 500.964 328.158 504.998 338.313 504.998C348.468 504.998 358.207 500.964 365.387 493.784C372.568 486.603 376.602 476.864 376.602 466.709V398.263C376.602 393.235 375.612 388.256 373.688 383.61C371.763 378.965 368.943 374.744 365.388 371.188C361.832 367.633 357.611 364.813 352.966 362.888C348.32 360.964 343.341 359.974 338.313 359.974H338.314Z" fill="#DA9D81"/>
<path d="M479.556 386.767H437.749V426.949H479.556C484.884 426.949 489.995 424.832 493.763 421.065C497.53 417.297 499.647 412.187 499.647 406.858C499.647 401.53 497.53 396.419 493.763 392.652C489.995 388.884 484.884 386.767 479.556 386.767Z" fill="#C7C5CB"/>
<path d="M437.749 340.162C431.316 340.162 425.146 342.718 420.598 347.267C416.049 351.815 413.493 357.985 413.493 364.418V449.299C413.493 455.732 416.049 461.902 420.598 466.451C425.146 471 431.316 473.555 437.749 473.555C444.182 473.555 450.352 471 454.901 466.451C459.45 461.902 462.005 455.732 462.005 449.299V364.419C462.005 361.234 461.378 358.079 460.159 355.136C458.94 352.193 457.153 349.519 454.901 347.267C452.649 345.014 449.975 343.228 447.032 342.009C444.089 340.79 440.935 340.162 437.749 340.162Z" fill="#5C586F"/>
<path d="M197.072 386.767H238.879V426.949H197.072C191.743 426.949 186.633 424.832 182.865 421.065C179.098 417.297 176.981 412.187 176.981 406.858C176.981 401.53 179.098 396.419 182.865 392.652C186.633 388.884 191.743 386.767 197.072 386.767Z" fill="#C7C5CB"/>
<path d="M238.879 340.162C245.312 340.162 251.482 342.718 256.031 347.267C260.58 351.815 263.135 357.985 263.135 364.418V449.299C263.135 455.732 260.58 461.902 256.031 466.451C251.482 471 245.312 473.555 238.879 473.555C232.446 473.555 226.276 471 221.727 466.451C217.179 461.902 214.623 455.732 214.623 449.299V364.419C214.623 361.234 215.25 358.079 216.469 355.136C217.688 352.193 219.475 349.519 221.727 347.267C223.98 345.014 226.654 343.228 229.596 342.009C232.539 340.79 235.694 340.162 238.879 340.162Z" fill="#5C586F"/>
<path d="M121.615 299.371C143.549 299.371 161.331 285.211 161.331 267.743C161.331 250.276 143.549 236.115 121.615 236.115C99.6804 236.115 81.8989 250.276 81.8989 267.743C81.8989 285.211 99.6804 299.371 121.615 299.371Z" fill="white"/>
<path d="M336.888 299.371C358.822 299.371 376.604 285.211 376.604 267.743C376.604 250.276 358.822 236.115 336.888 236.115C314.953 236.115 297.172 250.276 297.172 267.743C297.172 285.211 314.953 299.371 336.888 299.371Z" fill="white"/>
<path d="M229.252 267.033C240.895 267.033 250.334 256.471 250.334 243.442C250.334 230.413 240.895 219.851 229.252 219.851C217.609 219.851 208.17 230.413 208.17 243.442C208.17 256.471 217.609 267.033 229.252 267.033Z" fill="#423E4F"/>
<path d="M167.183 236.828C165.194 236.828 163.286 236.038 161.88 234.631C160.473 233.225 159.683 231.317 159.683 229.328C159.696 227.984 159.443 226.651 158.938 225.405C158.433 224.159 157.686 223.026 156.74 222.071C155.794 221.116 154.668 220.358 153.428 219.84C152.187 219.323 150.856 219.056 149.512 219.056C148.168 219.056 146.837 219.323 145.597 219.84C144.356 220.358 143.231 221.116 142.285 222.071C141.339 223.026 140.592 224.159 140.087 225.405C139.582 226.651 139.328 227.984 139.342 229.328C139.342 231.317 138.552 233.225 137.145 234.631C135.739 236.038 133.831 236.828 131.842 236.828C129.853 236.828 127.945 236.038 126.539 234.631C125.132 233.225 124.342 231.317 124.342 229.328C124.321 226.009 124.957 222.719 126.212 219.647C127.468 216.575 129.318 213.781 131.658 211.427C133.997 209.073 136.779 207.205 139.843 205.93C142.907 204.655 146.193 203.999 149.512 203.999C152.831 203.999 156.117 204.655 159.181 205.93C162.246 207.205 165.028 209.073 167.367 211.427C169.706 213.781 171.557 216.575 172.813 219.647C174.068 222.719 174.704 226.009 174.683 229.328C174.683 231.317 173.893 233.225 172.486 234.631C171.08 236.038 169.172 236.828 167.183 236.828Z" fill="#423E4F"/>
<path d="M325.139 236.828C323.15 236.828 321.242 236.038 319.836 234.631C318.429 233.225 317.639 231.317 317.639 229.328C317.652 227.984 317.399 226.651 316.894 225.405C316.389 224.159 315.642 223.026 314.696 222.071C313.75 221.116 312.624 220.358 311.384 219.84C310.143 219.323 308.813 219.056 307.468 219.056C306.124 219.056 304.793 219.323 303.553 219.84C302.312 220.358 301.187 221.116 300.241 222.071C299.295 223.026 298.548 224.159 298.043 225.405C297.538 226.651 297.285 227.984 297.298 229.328C297.298 231.317 296.508 233.225 295.101 234.631C293.695 236.038 291.787 236.828 289.798 236.828C287.809 236.828 285.901 236.038 284.495 234.631C283.088 233.225 282.298 231.317 282.298 229.328C282.277 226.009 282.913 222.719 284.168 219.647C285.424 216.575 287.274 213.781 289.614 211.427C291.953 209.073 294.735 207.205 297.799 205.93C300.863 204.655 304.15 203.999 307.468 203.999C310.787 203.999 314.073 204.655 317.138 205.93C320.202 207.205 322.984 209.073 325.323 211.427C327.662 213.781 329.513 216.575 330.769 219.647C332.024 222.719 332.66 226.009 332.639 229.328C332.639 231.317 331.849 233.225 330.442 234.631C329.036 236.038 327.128 236.828 325.139 236.828Z" fill="#423E4F"/>
<path d="M125.318 103.491H67.6801C55.1613 118.8 44.8796 135.809 37.1431 154.008H98.6351C105.382 136.12 114.346 119.148 125.318 103.491Z" fill="#F8D070"/>
<path d="M319.639 431.056C319.639 403.215 329.892 378.171 346.226 360.797C340.649 359.622 334.88 359.705 329.34 361.043C323.8 362.38 318.628 364.936 314.202 368.526C309.775 372.116 306.205 376.649 303.753 381.793C301.301 386.938 300.027 392.565 300.026 398.264V466.71C300.025 472.606 301.387 478.423 304.003 483.706C306.62 488.99 310.422 493.597 315.112 497.17C319.802 500.743 325.254 503.184 331.043 504.304C336.832 505.423 342.801 505.191 348.485 503.624C330.844 486.199 319.639 460.158 319.639 431.056Z" fill="#C7856A"/>
</svg>
