<svg width="513" height="512" viewBox="0 0 513 512" fill="none" xmlns="http://www.w3.org/2000/svg">
<path d="M256 482.186C247.428 482.188 238.906 480.873 230.733 478.286C141.4 450.008 76.8881 392.546 38.9881 307.494C13.3781 250.021 0.626107 181.894 0.000107028 99.221C-0.103175 80.5395 7.18042 62.5742 20.264 49.239C33.3477 35.9038 51.1711 28.2794 69.8511 28.027C172.738 26.827 204.285 11.162 213.073 4.48098C225.412 -4.91355 240.492 -10.001 256 -10.001C271.508 -10.001 286.587 -4.91355 298.926 4.48098C307.715 11.163 339.262 26.831 442.148 28.028C460.829 28.2802 478.652 35.9046 491.736 49.24C504.82 62.5754 512.104 80.5412 512 99.223C511.376 181.895 498.624 250.023 473.014 307.494C435.114 392.547 370.602 450.009 281.268 478.283C273.096 480.869 264.574 482.185 256.002 482.183L256 482.186Z" fill="#F6EE86"/>
<path d="M365.382 374.634L165.468 70.5339C147.248 67.7189 137.422 34.7799 155.268 22.2339C134.479 25.3039 106.757 27.5949 69.8561 28.0239C51.1747 28.275 33.3496 35.8993 20.2648 49.2352C7.17999 62.5712 -0.10394 80.538 0.000123323 99.2209C0.627123 181.894 13.3791 250.021 38.9891 307.494C76.8891 392.547 141.401 450.009 230.734 478.283C247.176 483.488 264.825 483.488 281.267 478.283C327.183 463.75 366.454 441.572 399.081 411.75C372.115 415.021 360.274 383.488 365.381 374.635L365.382 374.634Z" fill="#F2D98D"/>
<path d="M266.472 431.538C436.68 377.668 462.114 212.301 462.972 98.851C463.017 93.126 460.79 87.6169 456.78 83.5306C452.77 79.4444 447.304 77.1143 441.579 77.051C391.379 76.467 307.205 72.362 269.255 43.509C265.449 40.6009 260.792 39.0254 256.002 39.0254C251.212 39.0254 246.555 40.6009 242.749 43.509C204.8 72.364 120.621 76.469 70.4222 77.052C64.6974 77.1153 59.2312 79.4454 55.2213 83.5316C51.2113 87.6179 48.9847 93.127 49.0292 98.852C49.8852 212.302 75.3202 377.669 245.529 431.539C252.344 433.698 259.659 433.698 266.473 431.539L266.472 431.538Z" fill="#EDA1AB"/>
<path d="M148.709 72.5332C120.586 75.8752 92.2832 76.7982 70.4232 77.0532C64.6984 77.1165 59.2322 79.4466 55.2222 83.5329C51.2123 87.6191 48.9857 93.1283 49.0302 98.8532C49.8862 212.303 75.3212 377.67 245.53 431.54C252.344 433.699 259.659 433.699 266.473 431.54C288.944 424.556 310.441 414.758 330.452 402.379C131.962 384.843 135.271 159.194 148.709 72.5332Z" fill="#E8899E"/>
<path d="M274.114 403.255H237.886C232 403.255 226.326 405.448 221.97 409.406C217.614 413.365 214.89 418.804 214.328 424.663L209.741 472.539C209.423 475.927 210.256 479.324 212.107 482.18C213.958 485.036 216.718 487.184 219.941 488.278C232.041 492.413 242.704 494.988 255.997 494.988C269.345 494.988 279.948 492.428 292.128 488.254C295.337 487.153 298.081 485.004 299.918 482.153C301.756 479.302 302.579 475.915 302.256 472.539L297.669 424.662C297.107 418.803 294.382 413.364 290.027 409.406C285.671 405.448 279.997 403.255 274.111 403.255H274.114Z" fill="#A0E7E7"/>
<path d="M256 465.981C254.011 465.981 252.103 465.191 250.697 463.784C249.29 462.378 248.5 460.47 248.5 458.481V439.764C248.5 437.775 249.29 435.867 250.697 434.461C252.103 433.054 254.011 432.264 256 432.264C257.989 432.264 259.897 433.054 261.303 434.461C262.71 435.867 263.5 437.775 263.5 439.764V458.481C263.5 459.466 263.306 460.441 262.929 461.351C262.552 462.261 262 463.088 261.303 463.784C260.607 464.481 259.78 465.033 258.87 465.41C257.96 465.787 256.985 465.981 256 465.981Z" fill="#8ED2E2"/>
<path d="M281.525 181.666V144.156C281.525 142.36 280.812 140.638 279.542 139.369C278.273 138.099 276.551 137.386 274.755 137.386H237.245C235.45 137.386 233.728 138.099 232.458 139.369C231.188 140.638 230.475 142.36 230.475 144.156V181.666C230.475 183.461 229.762 185.183 228.492 186.453C227.223 187.722 225.501 188.436 223.705 188.436H186.2C185.311 188.436 184.431 188.611 183.609 188.951C182.788 189.291 182.042 189.79 181.413 190.419C180.784 191.047 180.286 191.794 179.946 192.615C179.605 193.436 179.43 194.317 179.43 195.206V232.716C179.43 233.605 179.605 234.485 179.946 235.307C180.286 236.128 180.784 236.874 181.413 237.503C182.042 238.132 182.788 238.63 183.609 238.97C184.431 239.311 185.311 239.486 186.2 239.486H223.71C225.506 239.486 227.228 240.199 228.497 241.469C229.767 242.738 230.48 244.46 230.48 246.256V283.766C230.48 285.561 231.193 287.283 232.463 288.553C233.733 289.822 235.455 290.536 237.25 290.536H274.76C276.556 290.536 278.278 289.822 279.547 288.553C280.817 287.283 281.53 285.561 281.53 283.766V246.256C281.53 244.46 282.243 242.738 283.513 241.469C284.783 240.199 286.505 239.486 288.3 239.486H325.8C327.596 239.486 329.318 238.772 330.587 237.503C331.857 236.233 332.57 234.511 332.57 232.716V195.206C332.57 193.41 331.857 191.688 330.587 190.419C329.318 189.149 327.596 188.436 325.8 188.436H288.29C286.495 188.435 284.775 187.721 283.506 186.451C282.237 185.182 281.525 183.46 281.525 181.666Z" fill="white"/>
</svg>
