<svg width="512" height="512" viewBox="0 0 512 512" fill="none" xmlns="http://www.w3.org/2000/svg">
<path d="M0 394.464C0 458.815 51.542 512.044 115.892 512.464C180.564 512.889 229.62 461.949 233.278 402.88C235.062 374.07 246.645 346.551 267.528 326.624C283.31 311.606 295.812 293.483 304.247 273.397C312.681 253.31 316.866 231.695 316.537 209.912C315.379 124.659 245.854 55.078 160.6 53.855C139.622 53.5468 118.791 57.4125 99.3205 65.2274C79.8496 73.0423 62.1268 84.6504 47.1827 99.3766C32.2386 114.103 20.3714 131.653 12.2714 151.007C4.17131 170.361 -1.02875e-05 191.132 0 212.113L0 394.464Z" fill="#FFD3BD"/>
<path d="M254.618 86.7632C246.784 116 248.193 146.945 258.652 175.348C269.111 203.752 288.108 228.221 313.032 245.394C319.315 216.135 317.16 185.694 306.819 157.611C296.478 129.529 278.376 104.96 254.618 86.7632Z" fill="#FFBE9D"/>
<path d="M27.761 122.558C25.5357 125.794 23.4297 129.114 21.443 132.519L3.26802 179.962C1.08947 190.54 -0.00551577 201.313 2.08912e-05 212.113V394.464C2.08912e-05 458.815 51.542 512.044 115.892 512.464C160.316 512.756 197.37 488.812 217.404 454.644C-6.57198 478.858 15.768 195.485 27.761 122.558Z" fill="#FFBE9D"/>
<path d="M158.275 115.508C132.664 115.537 108.109 125.724 89.9989 143.834C71.8884 161.943 61.7005 186.497 61.67 212.108V339.29C61.67 341.279 62.4602 343.187 63.8667 344.594C65.2733 346 67.1809 346.79 69.17 346.79C71.1592 346.79 73.0668 346 74.4733 344.594C75.8799 343.187 76.67 341.279 76.67 339.29V290.309C82.0623 284.703 88.76 280.521 96.164 278.137C103.568 275.753 111.448 275.242 119.098 276.648C126.748 278.054 133.93 281.335 140.002 286.197C146.074 291.058 150.846 297.349 153.892 304.506C156.938 311.663 158.162 319.464 157.456 327.21C156.749 334.956 154.133 342.407 149.842 348.895C145.552 355.383 139.72 360.706 132.868 364.388C126.017 368.071 118.359 369.997 110.581 369.996C108.592 369.996 106.684 370.786 105.278 372.193C103.871 373.6 103.081 375.507 103.081 377.496C103.081 379.485 103.871 381.393 105.278 382.8C106.684 384.206 108.592 384.996 110.581 384.996C120.251 385.007 129.79 382.759 138.437 378.431C147.084 374.102 154.6 367.813 160.386 360.065C166.172 352.317 170.067 343.324 171.762 333.804C173.457 324.284 172.904 314.499 170.147 305.231C167.39 295.962 162.506 287.466 155.883 280.419C149.261 273.373 141.084 267.971 132.004 264.644C122.925 261.318 113.193 260.159 103.586 261.26C93.979 262.361 84.762 265.691 76.67 270.985V212.113C76.67 190.47 85.2677 169.714 100.572 154.41C115.875 139.106 136.632 130.508 158.275 130.508C179.918 130.508 200.675 139.106 215.979 154.41C231.282 169.714 239.88 190.47 239.88 212.113C239.88 214.102 240.67 216.01 242.077 217.417C243.483 218.823 245.391 219.613 247.38 219.613C249.369 219.613 251.277 218.823 252.683 217.417C254.09 216.01 254.88 214.102 254.88 212.113C254.851 186.501 244.664 161.946 226.554 143.835C208.443 125.724 183.888 115.537 158.275 115.508Z" fill="#FFBE9D"/>
<path d="M462.556 410.849C461.571 410.849 460.596 410.655 459.687 410.278C458.777 409.9 457.951 409.347 457.256 408.649C444.064 395.457 436.653 377.565 436.653 358.909C436.653 340.253 444.064 322.361 457.256 309.169C457.951 308.468 458.778 307.91 459.69 307.529C460.601 307.149 461.579 306.951 462.566 306.949C463.554 306.947 464.532 307.14 465.445 307.517C466.358 307.894 467.187 308.448 467.886 309.146C468.584 309.845 469.138 310.674 469.515 311.587C469.892 312.5 470.084 313.478 470.082 314.466C470.08 315.454 469.883 316.431 469.502 317.342C469.121 318.254 468.564 319.081 467.862 319.776C457.483 330.155 451.653 344.231 451.653 358.909C451.653 373.587 457.483 387.663 467.862 398.042C468.91 399.091 469.623 400.427 469.912 401.881C470.201 403.335 470.052 404.842 469.485 406.211C468.918 407.581 467.957 408.752 466.725 409.576C465.493 410.4 464.044 410.841 462.562 410.842L462.556 410.849Z" fill="#F6EE86"/>
<path d="M388.55 484.856C387.565 484.856 386.59 484.662 385.681 484.284C384.771 483.907 383.945 483.353 383.25 482.656C315.017 414.422 315.017 303.397 383.25 235.163C384.657 233.757 386.564 232.966 388.554 232.966C390.543 232.966 392.45 233.757 393.857 235.163C395.264 236.57 396.054 238.477 396.054 240.467C396.054 242.456 395.264 244.364 393.857 245.77C331.471 308.155 331.471 409.664 393.857 472.048C394.905 473.097 395.618 474.433 395.907 475.887C396.196 477.341 396.047 478.848 395.48 480.217C394.913 481.587 393.953 482.758 392.72 483.582C391.488 484.406 390.039 484.847 388.557 484.848L388.55 484.856Z" fill="#7ACEFA"/>
<path d="M425.553 447.853C424.568 447.853 423.593 447.659 422.684 447.281C421.774 446.904 420.948 446.35 420.253 445.653C397.282 422.629 384.381 391.433 384.381 358.909C384.381 326.386 397.282 295.19 420.253 272.166C420.95 271.469 421.776 270.917 422.686 270.54C423.597 270.163 424.572 269.969 425.557 269.969C426.542 269.969 427.517 270.163 428.427 270.54C429.337 270.917 430.164 271.47 430.861 272.166C431.557 272.863 432.109 273.69 432.486 274.6C432.863 275.51 433.057 276.485 433.057 277.47C433.057 278.455 432.863 279.431 432.486 280.341C432.109 281.251 431.557 282.077 430.86 282.774C410.699 302.983 399.376 330.364 399.376 358.91C399.376 387.456 410.699 414.837 430.86 435.046C431.908 436.095 432.621 437.431 432.91 438.885C433.199 440.339 433.05 441.845 432.483 443.215C431.916 444.585 430.956 445.756 429.723 446.58C428.491 447.404 427.042 447.845 425.56 447.846L425.553 447.853Z" fill="#A0E7E7"/>
<path d="M396.264 240.47C460.183 240.47 511.999 188.654 511.999 124.735C511.999 60.8163 460.183 9 396.264 9C332.345 9 280.529 60.8163 280.529 124.735C280.529 188.654 332.345 240.47 396.264 240.47Z" fill="#EDA1AB"/>
<path d="M419.122 95.8151V62.2261C419.122 60.6181 418.483 59.0759 417.346 57.9389C416.209 56.8019 414.667 56.1631 413.059 56.1631H379.47C377.862 56.1631 376.32 56.8019 375.183 57.9389C374.046 59.0759 373.407 60.6181 373.407 62.2261V95.8151C373.407 97.4231 372.768 98.9652 371.631 100.102C370.494 101.239 368.952 101.878 367.344 101.878H333.755C332.147 101.878 330.605 102.517 329.468 103.654C328.331 104.791 327.692 106.333 327.692 107.941V141.534C327.692 143.142 328.331 144.684 329.468 145.821C330.605 146.958 332.147 147.597 333.755 147.597H367.344C368.952 147.597 370.494 148.236 371.631 149.373C372.768 150.51 373.407 152.052 373.407 153.66V187.249C373.407 188.857 374.046 190.399 375.183 191.536C376.32 192.673 377.862 193.312 379.47 193.312H413.059C414.667 193.312 416.209 192.673 417.346 191.536C418.483 190.399 419.122 188.857 419.122 187.249V153.654C419.122 152.046 419.761 150.504 420.898 149.367C422.035 148.23 423.577 147.591 425.185 147.591H458.774C460.382 147.591 461.924 146.952 463.061 145.815C464.198 144.678 464.837 143.136 464.837 141.528V107.939C464.837 106.331 464.198 104.789 463.061 103.652C461.924 102.515 460.382 101.876 458.774 101.876H425.185C424.389 101.876 423.6 101.72 422.865 101.416C422.129 101.111 421.461 100.665 420.898 100.102C420.335 99.539 419.888 98.8707 419.583 98.1351C419.279 97.3996 419.122 96.6112 419.122 95.8151Z" fill="white"/>
</svg>
