<svg width="512" height="512" viewBox="0 0 512 512" fill="none" xmlns="http://www.w3.org/2000/svg">
<path d="M83.0601 307.062H428.94V397.606H83.0601V307.062Z" fill="#A0E7E7"/>
<path d="M83.0601 307.062H428.94V337.962H83.0601V307.062Z" fill="#8ED2E2"/>
<path d="M314.138 360.576H197.862C192.495 360.576 187.348 358.444 183.553 354.649C179.758 350.854 177.626 345.707 177.626 340.34V307.062H334.374V340.34C334.374 345.707 332.242 350.854 328.447 354.649C324.652 358.444 319.505 360.576 314.138 360.576Z" fill="#C0ADE2"/>
<path d="M177.626 307.062H334.374V337.962H177.626V307.062Z" fill="#A09CDC"/>
<path d="M488.1 252.057H229.5C199.97 252.057 171.65 240.326 150.769 219.446L77.4688 146.146C72.7753 141.451 70.1387 135.085 70.1387 128.446C70.1387 121.807 72.7753 115.441 77.4688 110.746L104.878 83.337C109.573 78.6435 115.939 76.0068 122.578 76.0068C129.216 76.0068 135.583 78.6435 140.278 83.337L213.578 156.637C215.664 158.733 218.146 160.395 220.879 161.525C223.612 162.656 226.542 163.233 229.5 163.224H463.07C469.71 163.224 476.077 165.862 480.772 170.557C485.467 175.252 488.105 181.619 488.105 188.259V252.059L488.1 252.057Z" fill="#FCF2D0"/>
<path d="M202.5 225.55C200.511 225.55 198.603 224.76 197.197 223.353C195.79 221.947 195 220.039 195 218.05V163.426C195 161.437 195.79 159.529 197.197 158.122C198.603 156.716 200.511 155.926 202.5 155.926C204.489 155.926 206.397 156.716 207.803 158.122C209.21 159.529 210 161.437 210 163.426V218.05C210 220.039 209.21 221.947 207.803 223.353C206.397 224.76 204.489 225.55 202.5 225.55Z" fill="#A0E7E7"/>
<path d="M309.5 225.55C307.511 225.55 305.603 224.76 304.197 223.353C302.79 221.947 302 220.039 302 218.05V163.426C302 161.437 302.79 159.529 304.197 158.122C305.603 156.716 307.511 155.926 309.5 155.926C311.489 155.926 313.397 156.716 314.803 158.122C316.21 159.529 317 161.437 317 163.426V218.05C317 220.039 316.21 221.947 314.803 223.353C313.397 224.76 311.489 225.55 309.5 225.55Z" fill="#A0E7E7"/>
<path d="M353.124 252.057H158.876C145.338 252.042 132.359 246.657 122.786 237.084C113.213 227.511 107.828 214.532 107.813 200.994V180.481C107.827 166.942 113.212 153.962 122.785 144.388C132.357 134.815 145.337 129.429 158.876 129.414H353.124C366.662 129.429 379.641 134.814 389.214 144.387C398.787 153.96 404.172 166.939 404.187 180.477V200.994C404.172 214.532 398.787 227.511 389.214 237.084C379.641 246.657 366.662 252.042 353.124 252.057ZM158.876 163.426C154.354 163.431 150.019 165.23 146.821 168.427C143.624 171.624 141.825 175.959 141.82 180.481V200.994C141.825 205.516 143.624 209.851 146.821 213.048C150.019 216.246 154.354 218.044 158.876 218.049H353.124C357.646 218.044 361.981 216.245 365.178 213.048C368.375 209.851 370.174 205.516 370.179 200.994V180.481C370.174 175.959 368.375 171.624 365.178 168.427C361.981 165.23 357.646 163.431 353.124 163.426H158.876Z" fill="#8ED2E2"/>
<path d="M495.272 158.155H480.252C475.815 158.155 471.561 159.917 468.424 163.054C465.286 166.191 463.524 170.446 463.524 174.883V239.668C463.524 242.954 462.219 246.105 459.895 248.429C457.571 250.752 454.42 252.058 451.134 252.058H60.865C57.579 252.058 54.4275 250.752 52.1039 248.429C49.7804 246.105 48.475 242.954 48.475 239.668V174.883C48.475 172.686 48.0423 170.511 47.2017 168.481C46.361 166.452 45.1288 164.608 43.5755 163.054C42.0221 161.501 40.1781 160.269 38.1485 159.428C36.119 158.587 33.9438 158.155 31.747 158.155H16.727C14.5303 158.155 12.3551 158.587 10.3256 159.428C8.29615 160.269 6.45213 161.501 4.89887 163.054C3.34561 164.608 2.11353 166.452 1.27298 168.481C0.432428 170.511 -0.000131297 172.686 2.98945e-08 174.883V249.657C1.29497e-09 257.195 1.48486 264.66 4.36979 271.624C7.25473 278.588 11.4832 284.916 16.8138 290.246C22.1445 295.577 28.4728 299.805 35.4374 302.689C42.4021 305.573 49.8667 307.057 57.405 307.057H454.6C469.823 307.057 484.423 301.009 495.188 290.245C505.953 279.48 512 264.88 512 249.657V174.883C512 170.446 510.238 166.191 507.1 163.054C503.963 159.917 499.709 158.155 495.272 158.155Z" fill="#A0E7E7"/>
<path d="M83.0601 436.627C104.611 436.627 122.081 419.157 122.081 397.606C122.081 376.055 104.611 358.585 83.0601 358.585C61.5094 358.585 44.0391 376.055 44.0391 397.606C44.0391 419.157 61.5094 436.627 83.0601 436.627Z" fill="#4E5660"/>
<path d="M83.0602 405.069C87.1819 405.069 90.5232 401.728 90.5232 397.606C90.5232 393.484 87.1819 390.143 83.0602 390.143C78.9385 390.143 75.5972 393.484 75.5972 397.606C75.5972 401.728 78.9385 405.069 83.0602 405.069Z" fill="#A0E7E7"/>
<path d="M428.94 436.627C450.491 436.627 467.961 419.157 467.961 397.606C467.961 376.055 450.491 358.585 428.94 358.585C407.389 358.585 389.919 376.055 389.919 397.606C389.919 419.157 407.389 436.627 428.94 436.627Z" fill="#4E5660"/>
<path d="M428.94 405.069C433.062 405.069 436.403 401.728 436.403 397.606C436.403 393.484 433.062 390.143 428.94 390.143C424.818 390.143 421.477 393.484 421.477 397.606C421.477 401.728 424.818 405.069 428.94 405.069Z" fill="#A0E7E7"/>
</svg>
