<svg width="512" height="512" viewBox="0 0 512 512" fill="none" xmlns="http://www.w3.org/2000/svg">
<path d="M150.177 512C128.39 511.976 107.502 503.31 92.0963 487.905C76.6905 472.499 68.0246 451.611 68 429.824V148.958C68.0246 127.171 76.6905 106.284 92.0963 90.8779C107.502 75.4722 128.39 66.8066 150.177 66.7822H362.512C384.299 66.8066 405.187 75.4722 420.593 90.8779C435.999 106.284 444.664 127.171 444.689 148.958V429.824C444.664 451.611 435.999 472.499 420.593 487.905C405.187 503.31 384.299 511.976 362.512 512H150.177Z" fill="#A3DEFE"/>
<path d="M150.177 66.7822C143.154 66.7796 136.16 67.6789 129.366 69.4582C124.821 88.6248 124.673 108.572 128.935 127.804C133.196 147.035 141.756 165.053 153.972 180.505C166.189 195.958 181.745 208.444 199.474 217.028C217.203 225.613 236.646 230.072 256.344 230.072C276.042 230.072 295.485 225.613 313.214 217.028C330.944 208.444 346.5 195.958 358.716 180.505C370.933 165.053 379.493 147.035 383.754 127.804C388.015 108.572 387.868 88.6248 383.322 69.4582C376.528 67.6789 369.534 66.7795 362.511 66.7822H150.177Z" fill="#7ACEFA"/>
<path d="M309.159 469.571H150.177C144.958 469.571 139.789 468.543 134.967 466.545C130.144 464.548 125.763 461.62 122.072 457.929C118.381 454.238 115.453 449.857 113.456 445.034C111.458 440.212 110.43 435.044 110.43 429.824V148.958C110.43 138.416 114.618 128.307 122.072 120.853C129.526 113.399 139.636 109.211 150.177 109.211H362.512C373.054 109.211 383.164 113.399 390.618 120.853C398.072 128.307 402.259 138.416 402.259 148.958V376.471C402.259 398.423 331.11 469.571 309.159 469.571Z" fill="#FCF2D0"/>
<path d="M385.718 116.7C378.964 111.823 370.842 109.202 362.511 109.212H150.177C141.846 109.201 133.724 111.822 126.97 116.7C135.37 180.6 190.187 230.088 256.344 230.088C322.501 230.088 377.313 180.6 385.718 116.7Z" fill="#FAE0BD"/>
<path d="M256.344 199.182C311.347 199.182 355.935 154.594 355.935 99.591C355.935 44.5884 311.347 0 256.344 0C201.341 0 156.753 44.5884 156.753 99.591C156.753 154.594 201.341 199.182 256.344 199.182Z" fill="#EDA1AB"/>
<path d="M256.344 199.181C270.207 199.197 283.919 196.311 296.6 190.709C309.28 185.107 320.647 176.912 329.97 166.653C213.205 176.919 187.944 49.7 217.923 7.68604C196.688 16.5625 179.181 32.5196 168.381 52.8445C157.581 73.1694 154.153 96.6076 158.681 119.174C163.209 141.74 175.412 162.042 193.217 176.628C211.021 191.214 233.328 199.183 256.344 199.181Z" fill="#E8899E"/>
<path d="M276.013 74.705V45.8C276.013 44.4164 275.463 43.0894 274.485 42.111C273.507 41.1327 272.18 40.583 270.796 40.583H241.896C241.211 40.583 240.532 40.718 239.9 40.9801C239.267 41.2423 238.691 41.6266 238.207 42.111C237.723 42.5955 237.338 43.1706 237.076 43.8035C236.814 44.4365 236.679 45.1149 236.679 45.8V74.7C236.679 76.0836 236.129 77.4106 235.151 78.389C234.173 79.3674 232.846 79.917 231.462 79.917H202.562C201.876 79.9169 201.197 80.0519 200.564 80.3143C199.931 80.5767 199.355 80.9615 198.871 81.4464C198.386 81.9314 198.002 82.5072 197.74 83.1408C197.478 83.7744 197.343 84.4534 197.344 85.139V114.039C197.344 115.423 197.894 116.75 198.872 117.728C199.85 118.706 201.177 119.256 202.561 119.256H231.461C232.845 119.256 234.172 119.806 235.15 120.784C236.128 121.762 236.678 123.089 236.678 124.473V153.373C236.678 154.757 237.228 156.084 238.206 157.062C239.184 158.04 240.511 158.59 241.895 158.59H270.795C272.179 158.59 273.506 158.04 274.484 157.062C275.462 156.084 276.012 154.757 276.012 153.373V124.473C276.012 123.089 276.562 121.762 277.54 120.784C278.518 119.806 279.845 119.256 281.229 119.256H310.129C311.513 119.256 312.84 118.706 313.818 117.728C314.796 116.75 315.346 115.423 315.346 114.039V85.139C315.346 83.7554 314.796 82.4284 313.818 81.45C312.84 80.4717 311.513 79.922 310.129 79.922H281.229C279.845 79.922 278.518 79.3724 277.54 78.394C276.562 77.4156 276.012 76.0886 276.012 74.705H276.013Z" fill="white"/>
<path d="M357.968 385.533C347.427 385.533 337.317 389.72 329.863 397.174C322.409 404.628 318.221 414.738 318.221 425.28V435.357C318.221 444.431 314.616 453.133 308.2 459.55C301.784 465.966 293.081 469.571 284.007 469.571H309.159C333.851 469.571 357.531 459.762 374.991 442.302C392.45 424.843 402.259 401.162 402.259 376.471V351.32C402.259 355.813 401.374 360.262 399.655 364.413C397.935 368.564 395.415 372.336 392.238 375.513C389.061 378.69 385.289 381.21 381.138 382.93C376.986 384.649 372.537 385.534 368.044 385.534H357.968V385.533Z" fill="#FAE0BD"/>
<path d="M330.813 336.773H181.875C179.886 336.773 177.978 335.983 176.572 334.576C175.165 333.17 174.375 331.262 174.375 329.273C174.375 327.284 175.165 325.376 176.572 323.97C177.978 322.563 179.886 321.773 181.875 321.773H330.813C332.802 321.773 334.71 322.563 336.116 323.97C337.523 325.376 338.313 327.284 338.313 329.273C338.313 331.262 337.523 333.17 336.116 334.576C334.71 335.983 332.802 336.773 330.813 336.773Z" fill="#4E5660"/>
<path d="M330.813 294.773H181.875C179.886 294.773 177.978 293.983 176.572 292.576C175.165 291.17 174.375 289.262 174.375 287.273C174.375 285.284 175.165 283.376 176.572 281.97C177.978 280.563 179.886 279.773 181.875 279.773H330.813C332.802 279.773 334.71 280.563 336.116 281.97C337.523 283.376 338.313 285.284 338.313 287.273C338.313 289.262 337.523 291.17 336.116 292.576C334.71 293.983 332.802 294.773 330.813 294.773Z" fill="#4E5660"/>
<path d="M291.909 374.054H220.78C218.791 374.054 216.883 373.264 215.477 371.858C214.07 370.451 213.28 368.543 213.28 366.554C213.28 364.565 214.07 362.657 215.477 361.251C216.883 359.844 218.791 359.054 220.78 359.054H291.909C293.898 359.054 295.806 359.844 297.212 361.251C298.619 362.657 299.409 364.565 299.409 366.554C299.409 368.543 298.619 370.451 297.212 371.858C295.806 373.264 293.898 374.054 291.909 374.054Z" fill="#4E5660"/>
<path d="M241.892 158.6H270.792C271.05 158.593 271.308 158.567 271.562 158.522C258.24 152.84 246.329 144.3 236.672 133.506V153.383C236.672 154.766 237.222 156.093 238.2 157.072C239.178 158.05 240.505 158.6 241.889 158.6H241.892Z" fill="#FCF2D0"/>
<path d="M202.555 119.259H225.855C218.222 107.174 212.72 93.8682 209.587 79.9219H202.556C201.172 79.9219 199.845 80.4715 198.867 81.4499C197.889 82.4283 197.339 83.7552 197.339 85.1389V114.039C197.339 115.422 197.889 116.749 198.867 117.728C199.846 118.706 201.172 119.256 202.556 119.256L202.555 119.259Z" fill="#FCF2D0"/>
<path d="M172.29 428.366C183.697 428.366 192.945 419.119 192.945 407.711C192.945 396.304 183.697 387.056 172.29 387.056C160.882 387.056 151.635 396.304 151.635 407.711C151.635 419.119 160.882 428.366 172.29 428.366Z" fill="#EDA1AB"/>
</svg>
