<svg width="512" height="512" viewBox="0 0 512 512" fill="none" xmlns="http://www.w3.org/2000/svg">
<path d="M41.914 327.27C14.886 303.968 3.35861e-09 268.511 3.35861e-09 227.43C-0.000128049 215.082 3.6614 203.012 10.5215 192.745C17.3817 182.478 27.1323 174.476 38.5403 169.751C49.9483 165.026 62.5013 163.79 74.6117 166.2C86.7222 168.609 97.8462 174.555 106.577 183.287C113.393 190.245 119.56 197.811 125 205.891C133.335 217.728 136.785 222.627 153.847 226.143C158.388 227.079 162.372 229.781 164.922 233.654C167.471 237.527 168.378 242.254 167.442 246.795C166.506 251.337 163.805 255.32 159.932 257.87C156.059 260.419 151.331 261.326 146.79 260.39C116.169 254.079 106.125 239.817 96.412 226.023C92.1194 219.587 87.2464 213.557 81.854 208.01C78.013 204.169 73.1193 201.554 67.7918 200.494C62.4643 199.435 56.9422 199.978 51.9238 202.057C46.9054 204.136 42.616 207.656 39.5981 212.172C36.5802 216.689 34.9693 221.998 34.969 227.43C34.969 258.179 45.545 284.23 64.748 300.786C83.892 317.286 110.548 323.553 141.826 318.891C146.402 318.231 151.053 319.409 154.761 322.169C158.47 324.93 160.935 329.046 161.616 333.619C162.297 338.191 161.139 342.848 158.396 346.569C155.653 350.29 151.548 352.773 146.978 353.475C109.04 359.127 71.318 352.617 41.915 327.275L41.914 327.27Z" fill="#A0E7E7"/>
<path d="M470.086 327.27C497.114 303.968 512 268.511 512 227.43C512 215.082 508.339 203.012 501.478 192.745C494.618 182.478 484.868 174.476 473.46 169.751C462.052 165.026 449.499 163.79 437.388 166.2C425.278 168.609 414.154 174.555 405.423 183.287C398.607 190.245 392.44 197.811 387 205.891C378.665 217.728 375.215 222.627 358.153 226.143C355.904 226.607 353.769 227.508 351.869 228.797C349.969 230.086 348.341 231.736 347.078 233.654C345.816 235.571 344.944 237.719 344.511 239.974C344.079 242.229 344.095 244.546 344.558 246.795C345.021 249.044 345.923 251.179 347.212 253.079C348.5 254.98 350.151 256.607 352.068 257.87C353.986 259.132 356.134 260.005 358.389 260.437C360.643 260.869 362.961 260.854 365.21 260.39C395.831 254.079 405.875 239.817 415.588 226.023C419.881 219.587 424.754 213.557 430.146 208.01C433.987 204.169 438.881 201.554 444.208 200.494C449.536 199.435 455.058 199.978 460.076 202.057C465.095 204.136 469.384 207.656 472.402 212.172C475.42 216.689 477.031 221.998 477.031 227.43C477.031 258.179 466.455 284.23 447.252 300.786C428.108 317.286 401.452 323.553 370.174 318.891C367.898 318.542 365.576 318.645 363.34 319.196C361.104 319.746 358.999 320.733 357.146 322.099C355.292 323.465 353.727 325.184 352.54 327.157C351.353 329.13 350.567 331.318 350.228 333.596C349.888 335.873 350.002 338.195 350.563 340.428C351.124 342.661 352.12 344.762 353.494 346.609C354.869 348.456 356.595 350.014 358.573 351.192C360.552 352.37 362.743 353.146 365.022 353.475C402.96 359.127 440.682 352.617 470.085 327.275L470.086 327.27Z" fill="#A0E7E7"/>
<path d="M91.2839 218.933C93.1009 221.333 94.7709 223.698 96.4089 226.024C106.123 239.817 116.166 254.08 146.787 260.391C149.036 260.855 151.354 260.87 153.608 260.438C155.863 260.006 158.011 259.133 159.929 257.871C161.846 256.608 163.497 254.981 164.785 253.08C166.074 251.18 166.976 249.045 167.439 246.796C167.902 244.547 167.918 242.23 167.486 239.975C167.053 237.72 166.181 235.572 164.919 233.655C163.656 231.737 162.028 230.087 160.128 228.798C158.228 227.509 156.093 226.608 153.844 226.144C136.782 222.628 133.332 217.729 124.997 205.891C123.033 203.103 120.856 200.012 118.307 196.701L118.043 196.811C107.087 201.303 97.7555 209.018 91.2839 218.933Z" fill="#8ED2E2"/>
<path d="M146.976 353.478C151.545 352.776 155.651 350.293 158.394 346.572C161.137 342.851 162.295 338.194 161.614 333.622C160.933 329.049 158.468 324.932 154.759 322.172C151.051 319.412 146.4 318.234 141.824 318.894C118.961 322.301 98.576 319.865 81.783 311.868V330.724C81.7909 337.452 82.9615 344.129 85.243 350.458C104.823 355.994 125.865 356.623 146.976 353.478Z" fill="#8ED2E2"/>
<path d="M365.212 260.39C395.833 254.079 405.877 239.817 415.59 226.023C417.229 223.697 418.898 221.336 420.715 218.932C414.243 209.017 404.91 201.302 393.954 196.81L393.69 196.7C391.141 200.012 388.964 203.1 387 205.89C378.665 217.727 375.215 222.626 358.153 226.143C353.612 227.079 349.628 229.781 347.079 233.654C344.529 237.527 343.623 242.255 344.559 246.796C345.495 251.338 348.197 255.321 352.07 257.871C355.943 260.42 360.671 261.326 365.212 260.39Z" fill="#8ED2E2"/>
<path d="M430.217 330.721V311.865C413.424 319.865 393.039 322.299 370.176 318.891C367.9 318.542 365.578 318.645 363.342 319.196C361.106 319.746 359.001 320.733 357.148 322.099C355.294 323.465 353.729 325.184 352.542 327.157C351.355 329.13 350.569 331.318 350.23 333.596C349.89 335.873 350.004 338.195 350.565 340.428C351.126 342.662 352.122 344.762 353.496 346.609C354.871 348.456 356.597 350.014 358.575 351.192C360.554 352.37 362.745 353.146 365.024 353.475C386.134 356.62 407.176 355.992 426.757 350.455C429.039 344.126 430.21 337.45 430.217 330.721Z" fill="#8ED2E2"/>
<path d="M256 172.621C288.218 172.621 311.751 196.4 382.193 225.39C387.261 227.482 391.594 231.032 394.641 235.59C397.689 240.147 399.315 245.507 399.312 250.99V330.719C399.31 335.058 398.29 339.336 396.334 343.209C394.378 347.082 391.541 350.442 388.05 353.019C360.4 373.458 326.219 391.156 256 391.156C185.781 391.156 151.6 373.456 123.95 353.025C120.459 350.448 117.622 347.088 115.666 343.215C113.71 339.342 112.69 335.064 112.688 330.725V250.992C112.685 245.509 114.31 240.149 117.358 235.591C120.406 231.034 124.739 227.484 129.807 225.392C200.249 196.402 223.782 172.623 256 172.623V172.621Z" fill="#FCF2D0"/>
<path d="M151.409 216.044V370.268C175.366 382.478 206.848 391.155 256 391.155C305.152 391.155 336.634 382.479 360.591 370.268V216.044C306.474 191.46 284.677 172.621 256 172.621C227.323 172.621 205.526 191.46 151.409 216.044Z" fill="#A0E7E7"/>
<path d="M187.413 198.44C177.102 203.781 165.331 209.72 151.413 216.04V370.269C172.134 380.83 198.495 388.743 237.038 390.689C194.638 351.824 182.206 257.121 187.417 198.44H187.413Z" fill="#8ED2E2"/>
<path d="M151.409 251.543V267.867C185.075 253.023 231.135 240.933 256 240.933C280.865 240.933 326.925 253.023 360.591 267.867V251.543C325.691 237.031 281.536 225.933 256 225.933C230.464 225.933 186.312 237.031 151.409 251.543Z" fill="#8ED2E2"/>
<path d="M151.409 312.179V327.373C176.252 331.408 215.217 337.893 256 337.893C296.783 337.893 335.753 331.407 360.591 327.373V312.179C335.951 316.16 296.76 322.893 256 322.893C215.24 322.893 176.048 316.159 151.409 312.179Z" fill="#8ED2E2"/>
</svg>
