<svg width="512" height="512" viewBox="0 0 512 512" fill="none" xmlns="http://www.w3.org/2000/svg">
<path d="M130.773 383.235H243.688V454.23H130.773V383.235Z" fill="#FCF2D0"/>
<path d="M108.413 512H351.679C354.289 512 356.792 510.963 358.638 509.117C360.484 507.272 361.521 504.768 361.521 502.158V483.995C361.521 476.101 358.385 468.529 352.803 462.947C347.22 457.365 339.649 454.229 331.755 454.229H128.337C120.442 454.229 112.871 457.365 107.289 462.947C101.707 468.529 98.5708 476.101 98.5708 483.995V502.158C98.5711 504.768 99.6081 507.271 101.454 509.117C103.299 510.963 105.803 512 108.413 512Z" fill="#C0ADE2"/>
<path d="M210.981 85.8203L253.434 43.367L320.158 110.091L277.705 152.544L210.981 85.8203Z" fill="#A3DEFE"/>
<path d="M228.857 2.88479L170.498 61.2428C168.651 63.0896 167.614 65.5945 167.614 68.2063C167.614 70.8181 168.651 73.3229 170.498 75.1698L189.098 93.7698C190.945 95.6166 193.45 96.6542 196.062 96.6542C198.674 96.6542 201.179 95.6166 203.026 93.7698L261.388 35.4138C263.235 33.5668 264.272 31.0618 264.272 28.4498C264.272 25.8378 263.235 23.3328 261.388 21.4858L242.788 2.88579C240.941 1.03898 238.436 0.00146484 235.825 0.00146484C233.213 0.00146484 230.708 1.03898 228.861 2.88579L228.857 2.88479Z" fill="#EDA1AB"/>
<path d="M215.666 316.254H130.773C130.773 261.33 150.282 209.539 185.708 170.423C221.253 131.174 270.259 108.664 320.158 108.664V193.557C293.803 193.557 268.402 205.579 248.631 227.409C227.374 250.882 215.666 282.435 215.666 316.254Z" fill="#FCF2D0"/>
<path d="M371.415 256.325H335.207C331.511 256.325 327.966 254.857 325.352 252.243C322.738 249.629 321.27 246.084 321.27 242.388V199.421H385.352V242.388C385.352 244.218 384.992 246.031 384.291 247.722C383.591 249.412 382.564 250.949 381.27 252.243C379.976 253.537 378.44 254.564 376.749 255.264C375.058 255.965 373.245 256.325 371.415 256.325Z" fill="#F6EE86"/>
<path d="M411.857 102.8H294.765C288.687 102.8 282.858 105.214 278.56 109.512C274.262 113.81 271.847 119.64 271.847 125.718V176.5C271.847 182.578 274.262 188.407 278.56 192.705C282.858 197.003 288.687 199.418 294.765 199.418H411.857C417.935 199.418 423.765 197.003 428.063 192.705C432.361 188.407 434.775 182.578 434.775 176.5V125.718C434.775 122.708 434.183 119.728 433.031 116.947C431.879 114.167 430.191 111.64 428.063 109.512C425.935 107.384 423.408 105.696 420.628 104.544C417.847 103.392 414.867 102.8 411.857 102.8Z" fill="#EDA1AB"/>
<path d="M294.765 102.8C291.755 102.8 288.775 103.393 285.995 104.544C283.214 105.696 280.687 107.384 278.559 109.513C276.431 111.641 274.743 114.168 273.591 116.948C272.44 119.729 271.847 122.709 271.847 125.719V176.5C271.847 182.578 274.262 188.407 278.56 192.705C282.858 197.003 288.687 199.418 294.765 199.418H345.565C323.978 185.972 315.888 139.34 324.464 102.8H294.765Z" fill="#E8899E"/>
<path d="M130.773 383.235H243.688V414.141H130.773V383.235Z" fill="#FAE0BD"/>
<path d="M132.866 285.349C131.471 295.589 130.771 305.913 130.773 316.249H215.666C215.654 305.856 216.785 295.494 219.04 285.349H132.866Z" fill="#FAE0BD"/>
<path d="M411.001 383.235H123.85C119.951 383.235 116.212 381.686 113.455 378.929C110.699 376.173 109.15 372.434 109.15 368.535V330.952C109.15 327.053 110.699 323.314 113.455 320.557C116.212 317.801 119.951 316.252 123.85 316.252H411.001C417.118 316.252 422.985 318.682 427.31 323.008C431.636 327.333 434.066 333.2 434.066 339.317V360.167C434.066 366.284 431.635 372.151 427.31 376.476C422.985 380.802 417.118 383.232 411.001 383.232V383.235Z" fill="#A3DEFE"/>
<path d="M264.445 316.255H123.845C119.946 316.255 116.207 317.804 113.451 320.56C110.694 323.317 109.145 327.056 109.145 330.955V368.541C109.145 372.44 110.694 376.179 113.451 378.935C116.207 381.692 119.946 383.241 123.845 383.241H276.545C262.228 368.635 260.928 332.391 264.445 316.261V316.255Z" fill="#7ACEFA"/>
<path d="M130.773 403.518C160.471 403.518 184.546 379.443 184.546 349.745C184.546 320.047 160.471 295.972 130.773 295.972C101.075 295.972 77 320.047 77 349.745C77 379.443 101.075 403.518 130.773 403.518Z" fill="#EDA1AB"/>
<path d="M144.996 363.992C152.878 356.111 152.878 343.333 144.996 335.452C137.115 327.57 124.337 327.57 116.456 335.452C108.575 343.333 108.575 356.111 116.456 363.992C124.337 371.873 137.115 371.873 144.996 363.992Z" fill="#F6EE86"/>
</svg>
