<svg width="514" height="512" viewBox="0 0 514 512" fill="none" xmlns="http://www.w3.org/2000/svg">
<path d="M144.739 166.912C179.018 166.912 206.807 141.291 206.807 109.685C206.807 78.0794 179.018 52.458 144.739 52.458C110.46 52.458 82.6709 78.0794 82.6709 109.685C82.6709 141.291 110.46 166.912 144.739 166.912Z" fill="#3A4351"/>
<path d="M383.108 512C385.791 512 388.443 511.421 390.883 510.305C393.323 509.188 395.494 507.56 397.248 505.529C399.003 503.499 400.3 501.115 401.05 498.539C401.801 495.963 401.989 493.255 401.6 490.6C396.461 455.932 379.035 424.265 352.499 401.372C325.962 378.479 292.082 365.884 257.035 365.884C221.989 365.884 188.109 378.479 161.572 401.372C135.036 424.265 117.61 455.932 112.471 490.6C112.082 493.255 112.27 495.963 113.021 498.539C113.772 501.115 115.069 503.499 116.823 505.529C118.578 507.56 120.749 509.188 123.189 510.305C125.629 511.421 128.281 512 130.964 512H383.108Z" fill="#A0E7E7"/>
<path d="M202.236 376.505C178.639 386.067 157.946 401.623 142.203 421.633C126.46 441.643 116.212 465.415 112.471 490.6C112.082 493.255 112.27 495.963 113.021 498.539C113.772 501.115 115.069 503.499 116.823 505.529C118.578 507.56 120.749 509.188 123.189 510.305C125.629 511.421 128.281 511.999 130.964 512H238.673C202.724 492.667 188.856 409.332 202.236 376.505Z" fill="#8ED2E2"/>
<path d="M249.536 412.654H264.536V512H249.536V412.654Z" fill="#8ED2E2"/>
<path d="M257.036 412.654L190.022 455.121C188.19 456.283 186.104 456.982 183.943 457.159C181.781 457.337 179.609 456.987 177.612 456.14C175.616 455.293 173.855 453.974 172.481 452.296C171.106 450.619 170.16 448.632 169.722 446.508L153.984 370.178L257.036 412.654Z" fill="#FCF2D0"/>
<path d="M257.036 412.654L324.05 455.121C325.882 456.283 327.968 456.982 330.129 457.159C332.291 457.337 334.463 456.987 336.46 456.14C338.456 455.293 340.217 453.974 341.591 452.296C342.966 450.619 343.913 448.632 344.35 446.508L360.088 370.178L257.036 412.654Z" fill="#FCF2D0"/>
<path d="M126.255 286.047C143.468 259.788 136.135 224.548 109.876 207.336C83.6181 190.124 48.3782 197.457 31.1658 223.715C13.9534 249.973 21.2865 285.213 47.5448 302.426C73.803 319.638 109.043 312.305 126.255 286.047Z" fill="#B7856B"/>
<path d="M81.5031 294.656L93.6031 290.356C94.5139 290.032 95.4898 289.935 96.4465 290.073C97.4032 290.212 98.3119 290.581 99.0939 291.149C99.8759 291.717 100.508 292.467 100.935 293.334C101.361 294.202 101.571 295.16 101.544 296.126L101.191 308.966C101.154 310.334 101.589 311.673 102.423 312.758L110.256 322.939C110.845 323.705 111.239 324.604 111.403 325.556C111.568 326.509 111.498 327.487 111.199 328.406C110.9 329.325 110.382 330.158 109.689 330.832C108.997 331.506 108.15 332.002 107.223 332.275L94.9051 335.9C93.5922 336.287 92.4528 337.115 91.6791 338.244L84.4171 348.844C83.8708 349.642 83.1383 350.294 82.2831 350.745C81.428 351.196 80.4758 351.431 79.5091 351.431C78.5424 351.431 77.5902 351.196 76.735 350.745C75.8798 350.294 75.1474 349.642 74.6011 348.844L67.3391 338.244C66.5653 337.115 65.426 336.287 64.1131 335.9L51.7921 332.268C50.8648 331.995 50.0182 331.5 49.3253 330.826C48.6324 330.152 48.1142 329.319 47.8155 328.399C47.5169 327.48 47.4467 326.502 47.6111 325.549C47.7755 324.596 48.1695 323.698 48.7591 322.932L56.5921 312.751C57.4269 311.667 57.8621 310.327 57.8241 308.959L57.4711 296.119C57.4445 295.153 57.6537 294.195 58.0806 293.327C58.5075 292.46 59.1393 291.71 59.9213 291.142C60.7033 290.574 61.6119 290.205 62.5686 290.066C63.5254 289.928 64.5013 290.025 65.4121 290.349L77.5121 294.649C78.8021 295.11 80.2115 295.113 81.5031 294.656Z" fill="#A0E7E7"/>
<path d="M465.635 303.032C492.222 286.332 500.238 251.241 483.538 224.654C466.839 198.067 431.748 190.051 405.161 206.751C378.573 223.45 370.558 258.541 387.257 285.128C403.957 311.716 439.048 319.731 465.635 303.032Z" fill="#B7856B"/>
<path d="M432.569 294.656L420.469 290.356C419.558 290.032 418.582 289.935 417.626 290.073C416.669 290.211 415.76 290.58 414.978 291.149C414.196 291.717 413.564 292.467 413.138 293.334C412.711 294.202 412.501 295.16 412.528 296.126L412.881 308.966C412.919 310.334 412.483 311.673 411.649 312.758L403.816 322.939C403.227 323.705 402.833 324.603 402.669 325.556C402.504 326.508 402.575 327.487 402.873 328.406C403.172 329.325 403.69 330.158 404.383 330.832C405.075 331.506 405.922 332.001 406.849 332.275L419.17 335.907C420.483 336.294 421.622 337.122 422.396 338.251L429.658 348.851C430.204 349.648 430.937 350.301 431.792 350.751C432.647 351.202 433.599 351.437 434.566 351.437C435.533 351.437 436.485 351.202 437.34 350.751C438.195 350.301 438.928 349.648 439.474 348.851L446.736 338.251C447.51 337.122 448.649 336.294 449.962 335.907L462.283 332.275C463.21 332.002 464.057 331.507 464.75 330.832C465.443 330.158 465.961 329.326 466.26 328.406C466.558 327.487 466.628 326.509 466.464 325.556C466.3 324.603 465.906 323.705 465.316 322.939L457.483 312.758C456.648 311.673 456.213 310.334 456.251 308.966L456.604 296.126C456.631 295.16 456.421 294.202 455.995 293.334C455.568 292.467 454.936 291.717 454.154 291.149C453.372 290.58 452.463 290.211 451.506 290.073C450.55 289.935 449.574 290.032 448.663 290.356L436.563 294.656C435.271 295.115 433.861 295.115 432.569 294.656Z" fill="#A0E7E7"/>
<path d="M430.371 263.359C430.371 351.459 352.766 412.654 257.036 412.654C161.306 412.654 83.7009 351.458 83.7009 263.359C83.7009 175.26 161.306 103.842 257.036 103.842C352.766 103.842 430.371 175.26 430.371 263.359Z" fill="#CB9D82"/>
<path d="M257.036 96.3441C352.02 63.0371 436.11 147.307 443.258 211.244C443.551 213.781 443.258 216.352 442.4 218.758C441.542 221.164 440.142 223.34 438.31 225.119C436.477 226.899 434.26 228.233 431.83 229.019C429.4 229.806 426.822 230.023 424.294 229.655C377.64 222.995 297.894 188.037 262.523 160.745C260.952 159.53 259.023 158.87 257.036 158.87C255.05 158.87 253.121 159.53 251.55 160.745C216.183 188.039 136.436 223 89.779 229.657C87.2514 230.025 84.673 229.808 82.2427 229.022C79.8125 228.235 77.5955 226.901 75.7628 225.122C73.9301 223.343 72.5308 221.166 71.6729 218.76C70.8151 216.354 70.5215 213.783 70.815 211.246C77.962 147.307 162.052 63.0371 257.036 96.3441Z" fill="#4E5660"/>
<path d="M339.114 113.874L356.436 58.065C358.312 52.0842 358.203 45.6572 356.126 39.7433C354.049 33.8293 350.115 28.7456 344.912 25.251C323.849 11.241 292.814 0 257.036 0C221.258 0 190.223 11.241 169.161 25.251C163.957 28.7452 160.023 33.8288 157.946 39.7428C155.868 45.6569 155.76 52.0841 157.636 58.065L174.957 113.874C175.919 116.972 177.846 119.681 180.458 121.605C183.07 123.529 186.228 124.567 189.472 124.567H324.598C327.842 124.567 331.001 123.529 333.613 121.605C336.224 119.681 338.152 116.972 339.114 113.874Z" fill="#A0E7E7"/>
<path d="M210.605 6.47705C195.914 10.5863 181.938 16.917 169.161 25.25C163.957 28.7442 160.023 33.8278 157.946 39.7419C155.868 45.6559 155.76 52.0832 157.636 58.064L174.957 113.873C175.919 116.971 177.846 119.68 180.458 121.604C183.07 123.528 186.228 124.566 189.472 124.566H236.781C209.306 100.09 192.903 24.4591 210.605 6.47705Z" fill="#8ED2E2"/>
<path d="M277.736 56.8099H264.536V43.6099C264.536 41.6207 263.746 39.7131 262.339 38.3066C260.933 36.9 259.025 36.1099 257.036 36.1099C255.047 36.1099 253.139 36.9 251.733 38.3066C250.326 39.7131 249.536 41.6207 249.536 43.6099V56.8099H236.336C234.347 56.8099 232.439 57.6 231.033 59.0066C229.626 60.4131 228.836 62.3207 228.836 64.3099C228.836 66.299 229.626 68.2066 231.033 69.6132C232.439 71.0197 234.347 71.8099 236.336 71.8099H249.536V85.0099C249.536 86.999 250.326 88.9066 251.733 90.3132C253.139 91.7197 255.047 92.5099 257.036 92.5099C259.025 92.5099 260.933 91.7197 262.339 90.3132C263.746 88.9066 264.536 86.999 264.536 85.0099V71.8099H277.736C279.725 71.8099 281.633 71.0197 283.039 69.6132C284.446 68.2066 285.236 66.299 285.236 64.3099C285.236 62.3207 284.446 60.4131 283.039 59.0066C281.633 57.6 279.725 56.8099 277.736 56.8099Z" fill="white"/>
<path d="M176.294 314.906C192.748 314.906 206.086 304.284 206.086 291.181C206.086 278.078 192.748 267.456 176.294 267.456C159.84 267.456 146.502 278.078 146.502 291.181C146.502 304.284 159.84 314.906 176.294 314.906Z" fill="white"/>
<path d="M337.778 314.906C354.232 314.906 367.57 304.284 367.57 291.181C367.57 278.078 354.232 267.456 337.778 267.456C321.324 267.456 307.986 278.078 307.986 291.181C307.986 304.284 321.324 314.906 337.778 314.906Z" fill="white"/>
<path d="M207.836 272.864C205.847 272.864 203.939 272.074 202.533 270.667C201.126 269.261 200.336 267.353 200.336 265.364C200.336 263.592 199.632 261.893 198.379 260.64C197.126 259.387 195.427 258.684 193.655 258.684C191.884 258.684 190.184 259.387 188.932 260.64C187.679 261.893 186.975 263.592 186.975 265.364C186.975 267.353 186.185 269.261 184.778 270.667C183.372 272.074 181.464 272.864 179.475 272.864C177.486 272.864 175.578 272.074 174.172 270.667C172.765 269.261 171.975 267.353 171.975 265.364C171.975 259.614 174.259 254.1 178.325 250.034C182.391 245.968 187.905 243.684 193.655 243.684C199.405 243.684 204.92 245.968 208.986 250.034C213.052 254.1 215.336 259.614 215.336 265.364C215.336 267.353 214.546 269.261 213.139 270.667C211.733 272.074 209.825 272.864 207.836 272.864Z" fill="#4E5660"/>
<path d="M334.596 272.864C332.607 272.864 330.699 272.074 329.293 270.667C327.886 269.261 327.096 267.353 327.096 265.364C327.096 263.592 326.392 261.893 325.139 260.64C323.886 259.387 322.187 258.684 320.415 258.684C318.644 258.684 316.944 259.387 315.692 260.64C314.439 261.893 313.735 263.592 313.735 265.364C313.735 267.353 312.945 269.261 311.538 270.667C310.132 272.074 308.224 272.864 306.235 272.864C304.246 272.864 302.338 272.074 300.932 270.667C299.525 269.261 298.735 267.353 298.735 265.364C298.735 259.614 301.019 254.1 305.085 250.034C309.151 245.968 314.665 243.684 320.415 243.684C326.165 243.684 331.68 245.968 335.746 250.034C339.812 254.1 342.096 259.614 342.096 265.364C342.096 267.353 341.306 269.261 339.899 270.667C338.493 272.074 336.585 272.864 334.596 272.864Z" fill="#4E5660"/>
<path d="M257.036 296.29C253.112 296.29 249.234 295.448 245.664 293.822C242.093 292.197 238.912 289.824 236.336 286.865C235.675 286.125 235.168 285.261 234.844 284.323C234.519 283.385 234.384 282.392 234.446 281.402C234.509 280.412 234.767 279.443 235.206 278.553C235.645 277.664 236.256 276.87 237.004 276.218C237.752 275.566 238.622 275.069 239.563 274.755C240.505 274.442 241.499 274.319 242.489 274.392C243.478 274.466 244.443 274.735 245.328 275.185C246.213 275.634 247 276.255 247.643 277.01C248.81 278.354 250.252 279.431 251.872 280.17C253.492 280.908 255.251 281.29 257.031 281.29C258.811 281.29 260.57 280.908 262.19 280.17C263.809 279.431 265.251 278.354 266.419 277.01C267.062 276.255 267.849 275.634 268.733 275.185C269.618 274.735 270.583 274.466 271.573 274.392C272.562 274.319 273.557 274.442 274.498 274.755C275.44 275.069 276.31 275.566 277.058 276.218C277.806 276.87 278.417 277.664 278.856 278.553C279.295 279.443 279.553 280.412 279.615 281.402C279.677 282.392 279.542 283.385 279.218 284.323C278.894 285.261 278.386 286.125 277.726 286.865C275.151 289.823 271.972 292.195 268.403 293.821C264.834 295.447 260.958 296.289 257.036 296.29Z" fill="#4E5660"/>
</svg>
