<svg width="512" height="512" viewBox="0 0 512 512" fill="none" xmlns="http://www.w3.org/2000/svg">
<path d="M372.363 176.284C421.043 176.284 460.505 136.821 460.505 88.142C460.505 39.4625 421.043 0 372.363 0C323.684 0 284.221 39.4625 284.221 88.142C284.221 136.821 323.684 176.284 372.363 176.284Z" fill="#FCF2D0"/>
<path d="M372.363 176.284C421.043 176.284 460.505 136.821 460.505 88.142C460.505 39.4625 421.043 0 372.363 0C323.684 0 284.221 39.4625 284.221 88.142C284.221 136.821 323.684 176.284 372.363 176.284Z" fill="#FCF2D0"/>
<path d="M372.363 176.284C421.043 176.284 460.505 136.821 460.505 88.142C460.505 39.4625 421.043 0 372.363 0C323.684 0 284.221 39.4625 284.221 88.142C284.221 136.821 323.684 176.284 372.363 176.284Z" fill="#FCF2D0"/>
<path d="M315.581 20.7529C313.681 22.3529 311.825 24.0279 310.037 25.8159C308.249 27.6039 306.577 29.4619 304.974 31.3599L429.144 155.53C431.044 153.93 432.9 152.255 434.688 150.467C436.476 148.679 438.149 146.821 439.751 144.923L315.581 20.7529Z" fill="#FAE0BD"/>
<path d="M428.135 156.4C334.895 156.755 296.897 79.431 321.119 16.438C311.509 23.3078 303.378 32.0394 297.209 42.1139C291.04 52.1884 286.959 63.4002 285.209 75.083C283.459 86.7659 284.075 98.6813 287.021 110.121C289.967 121.561 295.182 132.292 302.358 141.677C309.533 151.061 318.522 158.907 328.79 164.749C339.057 170.591 350.395 174.309 362.128 175.682C373.861 177.056 385.75 176.056 397.089 172.744C408.429 169.432 418.986 163.873 428.135 156.4Z" fill="#FAE0BD"/>
<path d="M268.44 311.829C253.381 326.887 232.957 335.347 211.661 335.347C190.365 335.347 169.941 326.887 154.882 311.829L73.5191 230.466C65.9685 223.031 59.9644 214.174 55.8527 204.407C51.7411 194.641 49.6033 184.156 49.5626 173.56C49.5219 162.963 51.5791 152.462 55.6156 142.664C59.6521 132.866 65.5881 123.964 73.0813 116.47C80.5746 108.977 89.4769 103.041 99.275 99.0048C109.073 94.9683 119.573 92.9111 130.17 92.9518C140.767 92.9925 151.251 95.1302 161.018 99.2419C170.785 103.354 179.642 109.358 187.077 116.908L268.44 198.271C283.498 213.33 291.958 233.754 291.958 255.05C291.958 276.346 283.498 296.77 268.44 311.829Z" fill="#F6EE86"/>
<path d="M227.759 157.589L114.201 271.147L73.5191 230.466C65.9685 223.031 59.9644 214.174 55.8527 204.407C51.7411 194.641 49.6033 184.156 49.5626 173.56C49.5219 162.963 51.5791 152.462 55.6156 142.664C59.6521 132.866 65.5881 123.964 73.0813 116.47C80.5746 108.977 89.4769 103.041 99.275 99.0048C109.073 94.9683 119.573 92.9111 130.17 92.9518C140.767 92.9925 151.251 95.1302 161.018 99.2419C170.785 103.354 179.642 109.358 187.077 116.908L227.759 157.589Z" fill="#EDA1AB"/>
<path d="M72.5332 229.428C72.8652 229.772 73.1802 230.128 73.5192 230.465L154.882 311.828C167.759 324.701 184.627 332.816 202.721 334.843C220.816 336.869 239.062 332.687 254.467 322.982C269.872 313.277 281.523 298.625 287.507 281.429C293.491 264.233 293.455 245.514 287.403 228.342H82.8602C79.3896 228.346 75.9287 228.709 72.5332 229.428Z" fill="#F2D98D"/>
<path d="M72.5332 229.428C72.8652 229.772 73.1802 230.128 73.5192 230.465L114.201 271.147L157.006 228.347H82.8602C79.3896 228.351 75.9287 228.715 72.5332 229.433V229.428Z" fill="#E8899E"/>
<path d="M425.596 312.88H99.4001L118.294 487.645C119.017 494.335 122.187 500.523 127.195 505.018C132.203 509.513 138.695 512 145.424 512H379.569C386.299 512 392.791 509.514 397.799 505.018C402.806 500.523 405.976 494.335 406.699 487.645L425.596 312.88Z" fill="#FCF2D0"/>
<path d="M254.998 463.844H269.998V512H254.998V463.844Z" fill="#FAE0BD"/>
<path d="M178.545 463.844H193.545V512H178.545V463.844Z" fill="#FAE0BD"/>
<path d="M331.451 463.844H346.451V512H331.451V463.844Z" fill="#FAE0BD"/>
<path d="M409.275 463.844L425.596 312.88H99.4001L115.721 463.844H409.275Z" fill="#A0E7E7"/>
<path d="M103.298 348.936H421.698L425.598 312.88H99.4001L103.298 348.936Z" fill="#8ED2E2"/>
<path d="M439.241 312.88H85.755C81.3169 312.879 77.0191 311.325 73.6072 308.487C70.1953 305.649 67.8846 301.706 67.076 297.342L64.181 281.7C63.6746 278.959 63.7774 276.141 64.482 273.444C65.1867 270.748 66.4759 268.239 68.2583 266.097C70.0407 263.954 72.2727 262.23 74.7959 261.046C77.3192 259.863 80.0719 259.249 82.859 259.248H442.135C444.922 259.249 447.675 259.863 450.198 261.046C452.721 262.23 454.953 263.954 456.736 266.097C458.518 268.239 459.807 270.748 460.512 273.444C461.217 276.141 461.319 278.959 460.813 281.7L457.918 297.34C457.11 301.704 454.8 305.647 451.389 308.486C447.977 311.324 443.679 312.878 439.241 312.878V312.88Z" fill="#FCF2D0"/>
</svg>
