<svg width="512" height="512" viewBox="0 0 512 512" fill="none" xmlns="http://www.w3.org/2000/svg">
<path d="M281.962 48.538L223.862 69.684C219.079 71.4224 214.839 74.3904 211.568 78.2892C208.297 82.1879 206.111 86.8797 205.23 91.892C204.35 96.9043 204.805 102.06 206.551 106.84C208.297 111.621 211.272 115.856 215.176 119.121L302.426 192.154C306.907 195.905 309.715 201.283 310.231 207.104C310.747 212.925 308.93 218.713 305.178 223.194C301.427 227.676 296.05 230.483 290.228 230.999C284.407 231.516 278.619 229.698 274.138 225.947L186.888 152.914C143.758 116.814 155.866 47.533 208.788 28.272L266.888 7.12598L281.962 48.538Z" fill="#A3DEFE"/>
<path d="M381.008 7.12598L439.108 28.272C491.961 47.509 504.196 116.766 461.008 152.914L373.758 225.947C369.273 229.665 363.498 231.456 357.696 230.928C351.894 230.399 346.537 227.594 342.798 223.127C339.058 218.66 337.24 212.893 337.741 207.089C338.242 201.284 341.021 195.915 345.471 192.154L432.721 119.121C436.625 115.857 439.6 111.621 441.347 106.841C443.093 102.061 443.549 96.9051 442.669 91.8927C441.788 86.8803 439.603 82.1884 436.332 78.2895C433.061 74.3907 428.821 71.4225 424.038 69.684L365.938 48.538L381.008 7.12598Z" fill="#A3DEFE"/>
<path d="M426.603 173.807C421.452 161.867 412.593 151.902 401.338 145.389L345.471 192.153C343.237 194.006 341.39 196.281 340.038 198.849C338.685 201.417 337.854 204.227 337.59 207.118C337.327 210.008 337.637 212.923 338.504 215.693C339.37 218.463 340.775 221.035 342.638 223.26C344.501 225.486 346.785 227.322 349.36 228.662C351.934 230.002 354.748 230.821 357.64 231.07C360.531 231.32 363.444 230.995 366.21 230.116C368.976 229.237 371.541 227.82 373.758 225.946L428.837 179.846C428.197 177.797 427.451 175.783 426.601 173.811L426.603 173.807Z" fill="#7ACEFA"/>
<path d="M288.271 231.086C292.796 231.089 297.213 229.698 300.92 227.103C304.627 224.508 307.446 220.834 308.992 216.581C310.539 212.328 310.738 207.702 309.563 203.332C308.389 198.961 305.897 195.059 302.427 192.154L246.538 145.371C235.271 151.869 226.402 161.83 221.248 173.771C220.398 175.741 219.652 177.754 219.014 179.802L274.138 225.947C278.096 229.271 283.1 231.091 288.269 231.086H288.271Z" fill="#7ACEFA"/>
<path d="M273.538 511.998C213.928 511.998 168.999 487.192 140 438.268C112 391.039 104.607 333.057 94.778 285.583C93.6098 279.867 94.7563 273.921 97.9661 269.049C101.176 264.177 106.187 260.776 111.9 259.594C117.614 258.411 123.563 259.543 128.443 262.74C133.323 265.938 136.736 270.94 137.933 276.65C147.007 320.485 154.187 375.774 177.911 415.796C198.99 451.363 229.377 467.928 273.538 467.928C287.052 467.913 300.008 462.538 309.564 452.982C319.119 443.426 324.495 430.47 324.51 416.956C324.51 373.924 299.51 357.064 299.51 245.523C299.51 239.679 301.832 234.075 305.964 229.942C310.096 225.81 315.701 223.488 321.545 223.488C327.389 223.488 332.994 225.81 337.126 229.942C341.258 234.075 343.58 239.679 343.58 245.523C343.58 352.947 368.58 362.328 368.58 416.956C368.551 442.154 358.529 466.312 340.711 484.129C322.893 501.947 298.736 511.969 273.538 511.998Z" fill="#A3DEFE"/>
<path d="M352.348 336.398C347.563 315.649 343.58 288.398 343.58 245.523C343.58 239.679 341.258 234.075 337.126 229.942C332.994 225.81 327.389 223.488 321.545 223.488C315.701 223.488 310.096 225.81 305.964 229.942C301.832 234.075 299.51 239.679 299.51 245.523C299.51 286.959 302.961 315.323 307.297 336.823H346.146C348.22 336.822 350.291 336.681 352.346 336.4L352.348 336.398Z" fill="#7ACEFA"/>
<path d="M323.95 266.848C358.605 266.848 383.95 238.698 397.556 211.397C399.503 207.506 400.578 203.237 400.706 198.887C400.834 194.538 400.012 190.213 398.297 186.214C396.582 182.215 394.016 178.638 390.777 175.732C387.539 172.827 383.705 170.662 379.544 169.39C360.053 163.526 342.359 161.895 323.95 161.895C305.515 161.895 287.767 163.534 268.216 169.432C264.074 170.701 260.258 172.857 257.034 175.751C253.81 178.645 251.255 182.207 249.548 186.188C247.84 190.17 247.021 194.476 247.147 198.806C247.273 203.137 248.342 207.388 250.278 211.263C263.869 238.606 289.238 266.848 323.95 266.848Z" fill="#F6EE86"/>
<path d="M195.738 293.951C202.849 250.082 173.052 208.755 129.183 201.644C85.315 194.532 43.9877 224.33 36.8763 268.198C29.7649 312.067 59.5624 353.394 103.431 360.505C147.299 367.617 188.627 337.819 195.738 293.951Z" fill="#F6EE86"/>
<path d="M195.738 293.951C202.849 250.082 173.052 208.755 129.183 201.644C85.315 194.532 43.9877 224.33 36.8763 268.198C29.7649 312.067 59.5624 353.394 103.431 360.505C147.299 367.617 188.627 337.819 195.738 293.951Z" fill="#F6EE86"/>
<path d="M146.43 311.054L97.83 242.041C84.13 240.941 75.514 221.316 81.648 208.494C71.1581 213.503 61.8778 220.725 54.4455 229.662C47.0132 238.6 41.6054 249.042 38.5941 260.27C35.5828 271.497 35.0395 283.244 37.0017 294.701C38.9638 306.159 43.3847 317.055 49.9603 326.641C56.5359 336.227 65.11 344.274 75.0928 350.23C85.0756 356.185 96.2301 359.908 107.789 361.14C119.348 362.373 131.036 361.087 142.051 357.371C153.065 353.655 163.144 347.597 171.593 339.614C153.821 338.446 140.887 318.65 146.43 311.054Z" fill="#F2D98D"/>
<path d="M133.724 322.807C156.752 313.261 167.683 286.855 158.137 263.826C148.592 240.798 122.185 229.868 99.1569 239.413C76.1283 248.958 65.198 275.365 74.7434 298.393C84.2887 321.422 110.695 332.352 133.724 322.807Z" fill="#4E5660"/>
<path d="M369.555 234.539H278.299L286.381 292.574C286.896 296.273 288.731 299.662 291.549 302.114C294.366 304.566 297.975 305.916 301.71 305.916H346.145C349.88 305.916 353.489 304.566 356.306 302.114C359.123 299.662 360.959 296.273 361.474 292.574L369.555 234.539Z" fill="#F6EE86"/>
<path d="M281.873 54.1271L264.181 60.5671C259.266 62.3558 253.843 62.1189 249.103 59.9086C244.363 57.6983 240.695 53.6956 238.906 48.7811L233.219 33.1571C231.43 28.2425 231.667 22.8186 233.877 18.0787C236.088 13.3387 240.09 9.67089 245.005 7.88208L262.697 1.44308C268.637 -0.718796 275.193 -0.432425 280.922 2.2392C286.652 4.91082 291.085 9.74886 293.247 15.6891L296.118 23.5781C297.189 26.5193 297.669 29.6426 297.533 32.7696C297.396 35.8966 296.645 38.9661 295.323 41.8029C294 44.6396 292.131 47.1881 289.824 49.3027C287.516 51.4172 284.814 53.0566 281.873 54.1271Z" fill="#4E5660"/>
<path d="M366.026 54.1271L383.718 60.5671C388.633 62.3558 394.056 62.1189 398.796 59.9086C403.536 57.6983 407.204 53.6956 408.993 48.7811L414.68 33.1571C416.469 28.2425 416.232 22.8186 414.021 18.0787C411.811 13.3387 407.808 9.67089 402.894 7.88208L385.202 1.44308C379.262 -0.718796 372.706 -0.432425 366.977 2.2392C361.247 4.91082 356.814 9.74886 354.652 15.6891L351.781 23.5781C350.71 26.5193 350.23 29.6426 350.366 32.7696C350.503 35.8966 351.254 38.9661 352.576 41.8029C353.899 44.6396 355.768 47.1881 358.075 49.3027C360.383 51.4172 363.085 53.0566 366.026 54.1271Z" fill="#4E5660"/>
<path d="M379.543 169.39C373.442 167.553 367.241 166.061 360.972 164.922C359.29 188.096 343.362 206.27 323.95 206.27C304.538 206.27 288.61 188.097 286.928 164.923C280.61 166.07 274.363 167.576 268.216 169.432C264.074 170.701 260.258 172.857 257.034 175.751C253.81 178.645 251.255 182.207 249.548 186.188C247.84 190.17 247.021 194.476 247.147 198.806C247.273 203.136 248.342 207.387 250.278 211.263C263.87 238.606 289.239 266.848 323.95 266.848C358.605 266.848 383.95 238.698 397.556 211.397C399.503 207.505 400.577 203.236 400.705 198.887C400.833 194.538 400.011 190.213 398.296 186.214C396.581 182.215 394.015 178.638 390.776 175.732C387.538 172.827 383.704 170.662 379.543 169.39Z" fill="#EDA1AB"/>
</svg>
