<svg width="513" height="512" viewBox="0 0 513 512" fill="none" xmlns="http://www.w3.org/2000/svg">
<path d="M8.79391 446.843L83.9409 360.431C100.488 341.404 110.593 317.63 112.812 292.512C115.148 266.062 126.718 241.278 145.494 222.502L350.137 17.8592C355.799 12.1971 362.52 7.70573 369.918 4.64145C377.316 1.57717 385.245 0 393.252 0C401.259 0 409.188 1.57717 416.586 4.64145C423.983 7.70573 430.705 12.1971 436.367 17.8592L495.141 76.6332C500.803 82.2951 505.294 89.0167 508.359 96.4144C511.423 103.812 513 111.741 513 119.748C513 127.755 511.423 135.684 508.359 143.082C505.294 150.48 500.803 157.201 495.141 162.863L290.5 367.506C271.724 386.282 246.94 397.852 220.49 400.188C195.372 402.407 171.599 412.512 152.571 429.059L66.1569 504.206C60.0896 509.483 52.2462 512.262 44.2098 511.983C36.1734 511.703 28.5424 508.385 22.8569 502.698L10.2999 490.14C4.6136 484.455 1.29572 476.824 1.01584 468.787C0.735963 460.751 3.51492 452.908 8.79191 446.84L8.79391 446.843Z" fill="#FCF2D0"/>
<path d="M220.487 400.188C238.762 398.57 256.368 392.53 271.787 382.588C221.752 323.388 211.453 212.442 226.926 141.068L145.494 222.5C126.718 241.276 115.149 266.06 112.812 292.51C110.594 317.629 100.488 341.402 83.941 360.429L8.79401 446.843C3.51741 452.91 0.738486 460.753 1.01799 468.789C1.2975 476.824 4.61462 484.455 10.3 490.14L22.86 502.7C28.5457 508.387 36.1766 511.705 44.2129 511.984C52.2492 512.264 60.0926 509.485 66.16 504.208L152.572 429.061C171.599 412.515 195.372 402.41 220.49 400.191L220.487 400.188Z" fill="#FAE0BD"/>
<path d="M125.616 394.884C124.134 394.883 122.685 394.442 121.453 393.618C120.22 392.794 119.26 391.623 118.693 390.253C118.126 388.884 117.977 387.377 118.266 385.923C118.555 384.469 119.268 383.133 120.316 382.084L147.588 354.812C148.284 354.116 149.111 353.563 150.021 353.186C150.931 352.809 151.907 352.615 152.891 352.615C153.876 352.615 154.852 352.809 155.762 353.186C156.672 353.563 157.499 354.116 158.195 354.812C158.891 355.509 159.444 356.335 159.821 357.245C160.198 358.155 160.392 359.131 160.392 360.116C160.392 361.1 160.198 362.076 159.821 362.986C159.444 363.896 158.891 364.723 158.195 365.419L130.922 392.691C130.227 393.389 129.401 393.942 128.491 394.32C127.582 394.697 126.607 394.891 125.622 394.891L125.616 394.884Z" fill="#FCF2D0"/>
<path d="M347.665 20.3312L350.137 17.8592C355.799 12.1971 362.521 7.70573 369.918 4.64145C377.316 1.57717 385.245 0 393.252 0C401.259 0 409.188 1.57717 416.586 4.64145C423.983 7.70573 430.705 12.1971 436.367 17.8592L495.141 76.6332C500.803 82.2951 505.294 89.0167 508.359 96.4144C511.423 103.812 513 111.741 513 119.748C513 127.755 511.423 135.684 508.359 143.082C505.294 150.48 500.803 157.201 495.141 162.863L492.669 165.335L347.665 20.3312Z" fill="#C0ADE2"/>
<path d="M269.09 335.4L401.264 203.226C406.319 198.17 409.159 191.314 409.159 184.164C409.159 177.015 406.319 170.159 401.264 165.103L347.9 111.736C342.844 106.681 335.988 103.841 328.838 103.841C321.689 103.841 314.833 106.681 309.777 111.736L177.6 243.91C172.545 248.966 169.705 255.822 169.705 262.971C169.705 270.121 172.545 276.977 177.6 282.033L230.967 335.4C236.023 340.455 242.879 343.295 250.028 343.295C257.178 343.295 264.034 340.455 269.09 335.4Z" fill="#A3DEFE"/>
<path d="M230.967 335.4C235.312 339.757 241.023 342.488 247.143 343.136C227.62 301.1 219.487 248.583 220.367 201.143L177.6 243.91C172.545 248.966 169.705 255.822 169.705 262.972C169.705 270.121 172.545 276.978 177.6 282.033L230.967 335.4Z" fill="#7ACEFA"/>
<path d="M420.167 122.132C436.348 122.132 449.466 109.015 449.466 92.8332C449.466 76.6518 436.348 63.5342 420.167 63.5342C403.986 63.5342 390.868 76.6518 390.868 92.8332C390.868 109.015 403.986 122.132 420.167 122.132Z" fill="#A0E7E7"/>
<path d="M8.79391 446.844L58.1179 390.126L122.874 454.882L66.1559 504.206C60.0886 509.483 52.2452 512.262 44.2088 511.982C36.1724 511.703 28.5414 508.384 22.8559 502.698L10.2999 490.141C4.6136 484.455 1.29572 476.824 1.01584 468.788C0.735963 460.752 3.51492 452.908 8.79191 446.841L8.79391 446.844Z" fill="#A0E7E7"/>
</svg>
