<svg width="512" height="512" viewBox="0 0 512 512" fill="none" xmlns="http://www.w3.org/2000/svg">
<path d="M460.95 109H51.05C44.3459 109 37.7075 110.32 31.5138 112.886C25.32 115.452 19.6923 119.212 14.9518 123.953C10.2114 128.693 6.45111 134.321 3.88566 140.515C1.32022 146.708 -0.000131314 153.347 9.79522e-09 160.051V408.751C0.000265223 422.29 5.37885 435.275 14.9526 444.848C24.5263 454.422 37.5109 459.8 51.05 459.8H460.95C474.489 459.8 487.474 454.422 497.048 444.848C506.622 435.274 512 422.289 512 408.75V160.05C512 153.346 510.68 146.708 508.114 140.514C505.549 134.32 501.788 128.693 497.048 123.952C492.307 119.212 486.68 115.451 480.486 112.886C474.292 110.32 467.654 109 460.95 109Z" fill="#4E5660"/>
<path d="M51.05 109C44.3459 109 37.7075 110.32 31.5138 112.886C25.32 115.452 19.6923 119.212 14.9518 123.953C10.2114 128.693 6.45111 134.321 3.88566 140.515C1.32022 146.708 -0.000131314 153.347 9.79522e-09 160.051V408.751C0.000265223 422.29 5.37885 435.275 14.9526 444.848C24.5263 454.422 37.5109 459.8 51.05 459.8H183.044C108.162 391.283 76.905 242.576 100.044 109H51.05Z" fill="#3A4351"/>
<path d="M450.6 417.561H433.3C429.901 417.561 426.642 416.211 424.239 413.808C421.836 411.405 420.486 408.146 420.486 404.747V387.453C420.486 385.77 420.817 384.104 421.461 382.55C422.105 380.995 423.049 379.582 424.239 378.393C425.429 377.203 426.842 376.259 428.396 375.615C429.951 374.971 431.617 374.64 433.3 374.64H450.6C453.998 374.64 457.257 375.99 459.66 378.393C462.063 380.796 463.413 384.055 463.413 387.453V404.747C463.413 408.145 462.063 411.405 459.66 413.808C457.257 416.211 453.998 417.561 450.6 417.561Z" fill="white"/>
<path d="M364.5 194.549C360.338 190.336 354.814 187.739 348.915 187.221C343.015 186.703 337.124 188.297 332.291 191.72C310.081 207.747 283.387 216.373 255.998 216.373C228.609 216.373 201.915 207.747 179.705 191.72C174.872 188.297 168.98 186.703 163.081 187.221C157.182 187.739 151.658 190.336 147.496 194.549L66.8299 275.216C64.1871 277.852 62.1253 281.013 60.7768 284.494C59.4284 287.975 58.8233 291.699 59.0003 295.428C59.1774 299.157 60.1327 302.807 61.8049 306.145C63.4771 309.482 65.8292 312.433 68.7099 314.807C121.545 358.056 187.719 381.687 255.998 381.687C324.277 381.687 390.451 358.056 443.286 314.807C446.167 312.433 448.519 309.482 450.191 306.145C451.863 302.807 452.818 299.157 452.995 295.428C453.173 291.699 452.567 287.975 451.219 284.494C449.871 281.013 447.809 277.852 445.166 275.216L364.5 194.549Z" fill="#A0E7E7"/>
<path d="M445.168 275.216L364.5 194.549C360.338 190.336 354.815 187.739 348.915 187.221C343.016 186.703 337.124 188.297 332.292 191.72C310.082 207.748 283.388 216.373 255.999 216.373C228.61 216.373 201.916 207.748 179.706 191.72C174.873 188.297 168.982 186.703 163.082 187.221C157.183 187.739 151.66 190.336 147.498 194.549L66.8319 275.216C64.1891 277.853 62.1272 281.013 60.7788 284.494C59.4304 287.975 58.8252 291.699 59.0023 295.428C59.1793 299.157 60.1347 302.807 61.8069 306.145C63.4791 309.482 65.8312 312.433 68.7119 314.807C89.9455 332.217 113.501 346.583 138.7 357.491C134.594 338.711 132.463 319.553 132.342 300.329C132.342 292.71 135.368 285.404 140.756 280.016C146.143 274.629 153.45 271.602 161.069 271.602C168.688 271.602 175.995 274.629 181.382 280.016C186.769 285.404 189.796 292.71 189.796 300.329C189.796 319.929 194.522 358.847 207.142 377.651C218.671 379.564 230.302 380.794 241.976 381.334C235.994 369.707 232.724 356.876 232.411 343.804C232.098 330.733 234.75 317.76 240.168 305.86C245.586 293.96 253.63 283.442 263.695 275.095C273.76 266.749 285.585 260.791 298.282 257.669C310.98 254.547 324.219 254.341 337.007 257.068C349.795 259.795 361.799 265.384 372.118 273.414C382.437 281.444 390.803 291.708 396.588 303.434C402.372 315.161 405.426 328.045 405.518 341.12C418.771 333.342 431.4 324.544 443.289 314.807C446.169 312.433 448.521 309.482 450.193 306.145C451.865 302.807 452.82 299.157 452.997 295.428C453.174 291.699 452.569 287.975 451.221 284.494C449.872 281.013 447.811 277.853 445.168 275.216Z" fill="#8ED2E2"/>
<path d="M91.379 412.148H57.979C55.9899 412.148 54.0822 411.358 52.6757 409.951C51.2692 408.545 50.479 406.637 50.479 404.648C50.479 402.659 51.2692 400.751 52.6757 399.345C54.0822 397.938 55.9899 397.148 57.979 397.148H91.379C93.3681 397.148 95.2758 397.938 96.6823 399.345C98.0888 400.751 98.879 402.659 98.879 404.648C98.879 406.637 98.0888 408.545 96.6823 409.951C95.2758 411.358 93.3681 412.148 91.379 412.148Z" fill="white"/>
<path d="M468.391 167.889H430.76C428.771 167.889 426.863 167.099 425.456 165.692C424.05 164.286 423.26 162.378 423.26 160.389C423.26 158.4 424.05 156.492 425.456 155.086C426.863 153.679 428.771 152.889 430.76 152.889H468.391C470.38 152.889 472.288 153.679 473.694 155.086C475.101 156.492 475.891 158.4 475.891 160.389C475.891 162.378 475.101 164.286 473.694 165.692C472.288 167.099 470.38 167.889 468.391 167.889Z" fill="white"/>
<path d="M468.391 205.712H449.576C447.587 205.712 445.679 204.922 444.273 203.515C442.866 202.109 442.076 200.201 442.076 198.212C442.076 196.223 442.866 194.315 444.273 192.909C445.679 191.502 447.587 190.712 449.576 190.712H468.391C470.38 190.712 472.288 191.502 473.694 192.909C475.101 194.315 475.891 196.223 475.891 198.212C475.891 200.201 475.101 202.109 473.694 203.515C472.288 204.922 470.38 205.712 468.391 205.712Z" fill="white"/>
<path d="M322.331 349.301C331.736 339.896 329.786 322.698 317.976 310.889C306.166 299.079 288.968 297.129 279.564 306.533C270.159 315.938 272.109 333.136 283.919 344.946C295.729 356.755 312.926 358.705 322.331 349.301Z" fill="white"/>
<path d="M304.935 306.563C303.453 306.562 302.004 306.121 300.772 305.297C299.54 304.473 298.58 303.302 298.012 301.932C297.445 300.563 297.297 299.056 297.586 297.602C297.874 296.148 298.588 294.812 299.635 293.763L308.376 285.022C309.785 283.626 311.689 282.844 313.673 282.848C315.656 282.852 317.557 283.642 318.96 285.045C320.362 286.447 321.152 288.348 321.157 290.331C321.161 292.315 320.38 294.219 318.983 295.628L310.242 304.369C309.546 305.066 308.718 305.619 307.808 305.996C306.897 306.372 305.921 306.565 304.935 306.563Z" fill="#4E5660"/>
</svg>
