<svg width="512" height="512" viewBox="0 0 512 512" fill="none" xmlns="http://www.w3.org/2000/svg">
<path d="M435.552 161.28C434.779 156.629 432.571 152.337 429.237 149.003C425.903 145.669 421.611 143.461 416.96 142.688C406.002 140.851 394.752 142.005 384.395 146.027C374.038 150.049 364.957 156.79 358.111 165.54C351.264 174.29 346.904 184.725 345.492 195.746C344.079 206.766 345.665 217.964 350.083 228.158C360.277 232.576 371.475 234.162 382.495 232.75C393.516 231.337 403.951 226.977 412.701 220.13C421.452 213.283 428.193 204.203 432.214 193.845C436.236 183.488 437.389 172.238 435.552 161.28Z" fill="#00CD8C"/>
<path d="M347.94 232.754L179.063 267.816L10.1851 232.754C15.878 188.733 32.5568 146.852 58.6851 110.97L179.062 60.4888L299.454 110.97C325.575 146.855 342.249 188.735 347.94 232.754Z" fill="#FFA875"/>
<path d="M348.974 422.697C348.36 426.63 347.489 430.518 346.367 434.338C340.714 453.612 328.97 470.536 312.892 482.576C296.815 494.615 277.27 501.123 257.184 501.124H100.94C78.8066 501.127 57.3989 493.228 40.5712 478.85C23.7435 464.472 12.6012 444.56 9.15015 422.697L179.062 398.197L348.974 422.697Z" fill="#FFA875"/>
<path d="M131.852 80.2861L58.6809 110.97C32.5528 146.853 15.874 188.734 10.1809 232.755L50.1429 241.055C63.0429 177.615 92.1189 121.799 131.848 80.2891L131.852 80.2861Z" fill="#FF995D"/>
<path d="M280.352 10.001H77.7779C63.6928 10.001 50.1846 15.5963 40.2249 25.556C30.2652 35.5156 24.6699 49.0239 24.6699 63.109V76.963C24.6699 85.9827 28.253 94.633 34.6309 101.011C41.0089 107.389 49.6592 110.972 58.6789 110.972H299.45C303.916 110.972 308.338 110.092 312.465 108.383C316.591 106.674 320.34 104.169 323.498 101.011C326.656 97.8529 329.161 94.1038 330.87 89.9777C332.579 85.8515 333.459 81.4291 333.459 76.963V63.108C333.459 56.1338 332.085 49.228 329.417 42.7847C326.748 36.3414 322.836 30.4868 317.905 25.5554C312.973 20.6239 307.119 16.7121 300.675 14.0432C294.232 11.3744 287.326 10.0008 280.352 10.001Z" fill="#60D9A7"/>
<path d="M56.6411 415.849L9.15112 422.698C12.4119 443.379 22.5642 462.352 37.9613 476.538C53.3584 490.725 73.097 499.294 93.9751 500.854C77.6508 474.386 65.0859 445.778 56.6411 415.849Z" fill="#FF995D"/>
<path d="M350.124 266.663V408.185C350.128 413.045 349.743 417.898 348.974 422.697H9.15003C8.38096 417.898 7.99641 413.045 8.00003 408.185V266.663C8.00154 255.324 8.73138 243.998 10.185 232.753H347.94C349.393 243.998 350.123 255.324 350.124 266.663Z" fill="#60D9A7"/>
<path d="M352.975 173.146C346.687 166.85 338.958 162.183 330.459 159.549C321.96 156.915 312.946 156.393 304.2 158.03C300.389 158.726 296.88 160.566 294.14 163.305C291.401 166.044 289.56 169.552 288.863 173.363C287.041 183.136 287.913 193.22 291.384 202.535C294.856 211.85 300.796 220.045 308.569 226.242C316.342 232.44 325.655 236.405 335.509 237.714C345.364 239.023 355.389 237.627 364.51 233.674C368.877 223.591 370.112 212.428 368.055 201.634C365.998 190.84 360.744 180.914 352.975 173.143V173.146Z" fill="#60D9A7"/>
<path d="M362.169 490.834C441.053 490.834 505 426.886 505 348.003C505 269.119 441.053 205.172 362.169 205.172C283.286 205.172 219.338 269.119 219.338 348.003C219.338 426.886 283.286 490.834 362.169 490.834Z" fill="#F8D070"/>
<path d="M362.169 442.166C414.174 442.166 456.332 400.008 456.332 348.003C456.332 295.998 414.174 253.84 362.169 253.84C310.164 253.84 268.006 295.998 268.006 348.003C268.006 400.008 310.164 442.166 362.169 442.166Z" fill="#F9ED80"/>
<path d="M456.332 340.503H380.276L434.056 286.723C434.758 286.027 435.315 285.2 435.696 284.289C436.077 283.378 436.274 282.4 436.276 281.413C436.278 280.425 436.085 279.447 435.708 278.534C435.331 277.621 434.777 276.791 434.079 276.093C433.38 275.395 432.551 274.841 431.638 274.464C430.725 274.087 429.747 273.894 428.759 273.897C427.771 273.899 426.794 274.096 425.883 274.477C424.971 274.858 424.144 275.415 423.449 276.117L369.669 329.897V253.84C369.669 251.851 368.879 249.943 367.472 248.537C366.066 247.13 364.158 246.34 362.169 246.34C360.18 246.34 358.272 247.13 356.866 248.537C355.459 249.943 354.669 251.851 354.669 253.84V329.896L300.89 276.117C300.195 275.415 299.368 274.858 298.457 274.477C297.545 274.096 296.568 273.899 295.58 273.897C294.592 273.894 293.614 274.087 292.701 274.464C291.788 274.841 290.959 275.395 290.26 276.093C289.562 276.791 289.008 277.621 288.631 278.534C288.254 279.447 288.061 280.425 288.063 281.413C288.066 282.4 288.263 283.378 288.644 284.289C289.025 285.2 289.582 286.027 290.283 286.723L344.063 340.503H268.006C266.017 340.503 264.109 341.293 262.703 342.7C261.296 344.106 260.506 346.014 260.506 348.003C260.506 349.992 261.296 351.9 262.703 353.306C264.109 354.713 266.017 355.503 268.006 355.503H344.063L290.283 409.283C288.877 410.69 288.087 412.597 288.087 414.587C288.087 416.576 288.877 418.483 290.284 419.89C291.691 421.296 293.599 422.086 295.588 422.086C297.577 422.086 299.485 421.296 300.891 419.889L354.67 366.11V442.163C354.67 444.152 355.46 446.06 356.867 447.466C358.273 448.873 360.181 449.663 362.17 449.663C364.159 449.663 366.067 448.873 367.473 447.466C368.88 446.06 369.67 444.152 369.67 442.163V366.109L423.45 419.889C424.857 421.296 426.764 422.086 428.753 422.086C430.743 422.086 432.65 421.296 434.057 419.89C435.464 418.483 436.254 416.576 436.254 414.587C436.255 412.597 435.465 410.69 434.058 409.283L380.278 355.503H456.334C458.323 355.503 460.231 354.713 461.637 353.306C463.044 351.9 463.834 349.992 463.834 348.003C463.834 346.014 463.044 344.106 461.637 342.7C460.231 341.293 458.323 340.503 456.334 340.503H456.332Z" fill="#F8D070"/>
<path d="M160.359 335.226H68.3901C66.401 335.226 64.4934 334.436 63.0868 333.029C61.6803 331.623 60.8901 329.715 60.8901 327.726C60.8901 325.737 61.6803 323.829 63.0868 322.423C64.4934 321.016 66.401 320.226 68.3901 320.226H160.359C162.348 320.226 164.256 321.016 165.662 322.423C167.069 323.829 167.859 325.737 167.859 327.726C167.859 329.715 167.069 331.623 165.662 333.029C164.256 334.436 162.348 335.226 160.359 335.226Z" fill="white"/>
<path d="M160.359 292.086H68.3901C66.401 292.086 64.4934 291.296 63.0868 289.889C61.6803 288.483 60.8901 286.575 60.8901 284.586C60.8901 282.597 61.6803 280.689 63.0868 279.283C64.4934 277.876 66.401 277.086 68.3901 277.086H160.359C162.348 277.086 164.256 277.876 165.662 279.283C167.069 280.689 167.859 282.597 167.859 284.586C167.859 286.575 167.069 288.483 165.662 289.889C164.256 291.296 162.348 292.086 160.359 292.086Z" fill="white"/>
<path d="M160.359 378.363H68.3901C66.401 378.363 64.4934 377.573 63.0868 376.166C61.6803 374.76 60.8901 372.852 60.8901 370.863C60.8901 368.874 61.6803 366.966 63.0868 365.56C64.4934 364.153 66.401 363.363 68.3901 363.363H160.359C162.348 363.363 164.256 364.153 165.662 365.56C167.069 366.966 167.859 368.874 167.859 370.863C167.859 372.852 167.069 374.76 165.662 376.166C164.256 377.573 162.348 378.363 160.359 378.363Z" fill="white"/>
<path d="M42.745 315.094C42.7194 287.39 45.8017 259.771 51.934 232.754H10.185C8.73139 243.998 8.00155 255.325 8.00003 266.663V408.186C7.99641 413.046 8.38096 417.899 9.15003 422.698H58.664C48.0384 387.821 42.6731 351.554 42.745 315.094Z" fill="#00CD8C"/>
<path d="M73.6379 37.8291C73.5515 28.4363 74.7629 19.0765 77.2379 10.0151C63.2485 10.1553 49.8797 15.8106 40.0365 25.7521C30.1932 35.6936 24.6711 49.118 24.6699 63.1081V76.9631C24.6699 85.9829 28.253 94.6332 34.6309 101.011C41.0089 107.389 49.6592 110.972 58.6789 110.972H106.163C86.1999 89.4741 73.6379 63.4161 73.6379 37.8291Z" fill="#00CD8C"/>
</svg>
