<svg width="512" height="512" viewBox="0 0 512 512" fill="none" xmlns="http://www.w3.org/2000/svg">
<path d="M256.392 395.72L285.909 428.901L256.392 462.081L226.875 483.541L197.358 462.081V422.114C187.345 415.148 178.907 406.156 172.592 395.72L214.492 362.585L256.392 395.72Z" fill="#5C586F"/>
<path d="M340.192 395.72C333.878 406.156 325.442 415.148 315.429 422.114V462.081L285.912 483.541L256.392 462.081V395.72L298.292 362.585L340.192 395.72Z" fill="#4F4C5F"/>
<path d="M136.302 66.382C150.589 48.1908 168.822 33.4832 189.625 23.3697C210.428 13.2561 233.256 8.00098 256.387 8.00098C279.518 8.00098 302.347 13.2561 323.149 23.3697C343.952 33.4832 362.185 48.1908 376.472 66.382L256.392 98.69L136.302 66.382Z" fill="#ED9B83"/>
<path d="M403.13 203.691C410.009 180.068 411.103 155.136 406.319 131.001L256.387 98.6899L106.455 131.001C101.67 155.137 102.764 180.07 109.644 203.694L403.13 203.691Z" fill="#ED9B83"/>
<path d="M167.592 154.907C167.582 142.175 168.863 129.475 171.413 117.001L106.455 131.001C101.67 155.137 102.764 180.07 109.644 203.694H173.831C169.753 189.262 167.59 173.014 167.59 154.91L167.592 154.907Z" fill="#E7886E"/>
<path d="M170.475 305.055C166.614 312.783 163.79 320.988 162.075 329.455L256.385 362.589L350.705 329.455C348.991 320.987 346.167 312.783 342.305 305.055C380.142 282.452 407.621 245.929 418.855 203.311C420.591 196.576 420.218 189.47 417.786 182.953C415.354 176.437 410.979 170.825 405.254 166.874C399.53 162.924 392.73 160.827 385.775 160.866C378.819 160.905 372.043 163.078 366.363 167.092H146.422C140.742 163.078 133.966 160.905 127.01 160.866C120.055 160.827 113.255 162.924 107.531 166.874C101.806 170.825 97.4314 176.437 94.999 182.953C92.5667 189.47 92.1936 196.576 93.93 203.311C105.162 245.929 132.639 282.452 170.475 305.055Z" fill="#FFCABD"/>
<path d="M198.067 167.091H146.422C140.742 163.077 133.966 160.904 127.01 160.865C120.055 160.826 113.255 162.923 107.531 166.873C101.806 170.824 97.4314 176.436 94.999 182.952C92.5667 189.469 92.1936 196.575 93.93 203.31C105.162 245.928 132.64 282.451 170.476 305.054C166.615 312.782 163.791 320.987 162.076 329.454L211.154 346.697C210.499 341.6 210.169 336.467 210.166 331.328C210.166 297.568 224.157 266.617 247.426 242.514L198.067 167.091Z" fill="#FFBFB0"/>
<path d="M371.912 160.865C371.903 177.302 368.386 193.548 361.596 208.517C354.807 223.487 344.901 236.835 332.541 247.67C320.18 258.505 305.65 266.578 289.921 271.349C274.191 276.121 257.625 277.48 241.328 275.338C225.031 273.195 209.379 267.599 195.417 258.924C181.456 250.249 169.506 238.695 160.367 225.033C151.227 211.371 145.109 195.916 142.419 179.7C139.73 163.485 140.532 146.882 144.771 131.001H368.003C370.608 140.743 371.923 150.784 371.912 160.868V160.865Z" fill="#FFDCCE"/>
<path d="M244.712 8.45898C223.616 10.0798 203.086 16.0654 184.424 26.0365C165.763 36.0076 149.376 49.7467 136.302 66.383L183.639 79.118C197.203 49.075 218.581 24.366 244.712 8.45898Z" fill="#E7886E"/>
<path d="M376.472 66.3818H136.302C121.386 85.2602 111.158 107.405 106.455 131.001H406.319C401.612 107.407 391.384 85.2626 376.472 66.3818Z" fill="#59C2E7"/>
<path d="M187.514 180.016C185.525 180.016 183.617 179.226 182.211 177.82C180.804 176.413 180.014 174.505 180.014 172.516V159.281C180.014 157.292 180.804 155.384 182.211 153.978C183.617 152.571 185.525 151.781 187.514 151.781C189.503 151.781 191.411 152.571 192.817 153.978C194.224 155.384 195.014 157.292 195.014 159.281V172.516C195.014 174.505 194.224 176.413 192.817 177.82C191.411 179.226 189.503 180.016 187.514 180.016Z" fill="#423E4F"/>
<path d="M325.27 180.016C323.281 180.016 321.373 179.226 319.967 177.82C318.56 176.413 317.77 174.505 317.77 172.516V159.281C317.77 157.292 318.56 155.384 319.967 153.978C321.373 152.571 323.281 151.781 325.27 151.781C327.259 151.781 329.167 152.571 330.573 153.978C331.98 155.384 332.77 157.292 332.77 159.281V172.516C332.77 174.505 331.98 176.413 330.573 177.82C329.167 179.226 327.259 180.016 325.27 180.016Z" fill="#423E4F"/>
<path d="M256.392 187.895C251.878 187.894 247.417 186.926 243.31 185.055C239.202 183.184 235.543 180.454 232.579 177.049C231.272 175.549 230.615 173.591 230.752 171.606C230.888 169.622 231.808 167.772 233.308 166.465C234.808 165.159 236.766 164.501 238.751 164.638C240.736 164.775 242.585 165.694 243.892 167.194C245.447 168.984 247.368 170.419 249.526 171.402C251.683 172.386 254.026 172.894 256.397 172.894C258.768 172.894 261.111 172.386 263.269 171.402C265.426 170.419 267.347 168.984 268.902 167.194C270.209 165.695 272.058 164.776 274.043 164.639C276.028 164.503 277.985 165.161 279.485 166.468C280.984 167.775 281.903 169.624 282.04 171.609C282.176 173.593 281.518 175.551 280.211 177.05C277.246 180.455 273.586 183.185 269.478 185.055C265.369 186.926 260.907 187.895 256.392 187.895Z" fill="#423E4F"/>
<path d="M468.086 329.451H44.698C38.9429 329.451 33.4234 331.737 29.3538 335.807C25.2843 339.876 22.998 345.396 22.998 351.151V374.021C22.998 379.776 25.2843 385.296 29.3538 389.365C33.4234 393.435 38.9429 395.721 44.698 395.721H468.092C473.847 395.721 479.367 393.435 483.436 389.365C487.506 385.296 489.792 379.776 489.792 374.021V351.149C489.792 348.299 489.23 345.477 488.139 342.844C487.048 340.211 485.449 337.819 483.433 335.804C481.418 333.789 479.025 332.191 476.392 331.101C473.758 330.011 470.936 329.45 468.086 329.451Z" fill="#59C2E7"/>
<path d="M74.814 329.451V359.706C74.814 361.695 74.0238 363.603 72.6173 365.009C71.2107 366.416 69.3031 367.206 67.314 367.206C65.3248 367.206 63.4172 366.416 62.0107 365.009C60.6041 363.603 59.814 361.695 59.814 359.706V329.451H74.814Z" fill="#D8D8D8"/>
<path d="M116.404 329.451V359.706C116.404 361.695 115.614 363.603 114.207 365.009C112.801 366.416 110.893 367.206 108.904 367.206C106.915 367.206 105.007 366.416 103.601 365.009C102.194 363.603 101.404 361.695 101.404 359.706V329.451H116.404Z" fill="#D8D8D8"/>
<path d="M157.992 329.451V359.706C157.992 361.695 157.202 363.603 155.795 365.009C154.389 366.416 152.481 367.206 150.492 367.206C148.503 367.206 146.595 366.416 145.189 365.009C143.782 363.603 142.992 361.695 142.992 359.706V329.451H157.992Z" fill="#D8D8D8"/>
<path d="M199.582 329.451V359.706C199.582 361.695 198.792 363.603 197.385 365.009C195.979 366.416 194.071 367.206 192.082 367.206C190.093 367.206 188.185 366.416 186.779 365.009C185.372 363.603 184.582 361.695 184.582 359.706V329.451H199.582Z" fill="#D8D8D8"/>
<path d="M241.171 329.451V359.706C241.171 361.695 240.381 363.603 238.974 365.009C237.568 366.416 235.66 367.206 233.671 367.206C231.682 367.206 229.774 366.416 228.368 365.009C226.961 363.603 226.171 361.695 226.171 359.706V329.451H241.171Z" fill="#D8D8D8"/>
<path d="M282.761 329.451V359.706C282.761 361.695 281.971 363.603 280.564 365.009C279.158 366.416 277.25 367.206 275.261 367.206C273.272 367.206 271.364 366.416 269.957 365.009C268.551 363.603 267.761 361.695 267.761 359.706V329.451H282.761Z" fill="#D8D8D8"/>
<path d="M324.35 329.451V359.706C324.35 361.695 323.56 363.603 322.153 365.009C320.747 366.416 318.839 367.206 316.85 367.206C314.861 367.206 312.953 366.416 311.547 365.009C310.14 363.603 309.35 361.695 309.35 359.706V329.451H324.35Z" fill="#D8D8D8"/>
<path d="M365.939 329.451V359.706C365.939 361.695 365.149 363.603 363.742 365.009C362.336 366.416 360.428 367.206 358.439 367.206C356.45 367.206 354.542 366.416 353.136 365.009C351.729 363.603 350.939 361.695 350.939 359.706V329.451H365.939Z" fill="#D8D8D8"/>
<path d="M407.528 329.451V359.706C407.528 361.695 406.738 363.603 405.331 365.009C403.925 366.416 402.017 367.206 400.028 367.206C398.039 367.206 396.131 366.416 394.725 365.009C393.318 363.603 392.528 361.695 392.528 359.706V329.451H407.528Z" fill="#D8D8D8"/>
<path d="M452.97 329.451V359.706C452.97 361.695 452.18 363.603 450.773 365.009C449.366 366.416 447.459 367.206 445.47 367.206C443.481 367.206 441.573 366.416 440.166 365.009C438.76 363.603 437.97 361.695 437.97 359.706V329.451H452.97Z" fill="#D8D8D8"/>
<path d="M256.392 462.081V475.481C256.392 483.309 253.282 490.817 247.747 496.353C242.211 501.888 234.703 504.998 226.875 504.998C219.047 504.998 211.539 501.888 206.003 496.353C200.468 490.817 197.358 483.309 197.358 475.481V462.081H256.392Z" fill="#FFDCCE"/>
<path d="M256.392 462.081V475.481C256.392 483.309 259.502 490.817 265.037 496.353C270.573 501.888 278.081 504.998 285.909 504.998C293.737 504.998 301.245 501.888 306.781 496.353C312.316 490.817 315.426 483.309 315.426 475.481V462.081H256.392Z" fill="#FFBFB0"/>
<path d="M167.592 154.907C167.592 146.915 168.096 138.93 169.101 131.001H144.771C136.935 160.369 140.977 191.641 156.024 218.05C171.071 244.459 195.912 263.882 225.171 272.114C189.236 251.101 167.592 212.284 167.592 154.907Z" fill="#FFCABD"/>
<path d="M190.037 66.3818H136.302C121.386 85.2602 111.158 107.405 106.455 131.001H169.101C171.91 108.328 179.016 86.398 190.037 66.3858V66.3818Z" fill="#34B5E1"/>
</svg>
