<svg width="512" height="512" viewBox="0 0 512 512" fill="none" xmlns="http://www.w3.org/2000/svg">
<path d="M228.795 259.115V140.827C228.795 134.149 226.142 127.745 221.42 123.023C216.698 118.301 210.294 115.648 203.616 115.648H185.436V301.566H395.076V287.819C395.076 281.862 392.71 276.149 388.498 271.937C384.286 267.725 378.573 265.359 372.616 265.359H235.04C234.22 265.359 233.408 265.198 232.65 264.884C231.893 264.57 231.204 264.11 230.624 263.53C230.044 262.951 229.584 262.262 229.27 261.505C228.957 260.747 228.795 259.935 228.795 259.115Z" fill="#FAE0BD"/>
<path d="M388.828 480.967C383.181 480.967 377.766 478.724 373.773 474.731C369.78 470.738 367.537 465.323 367.537 459.676V341.921C367.537 336.274 369.78 330.859 373.773 326.866C377.766 322.873 383.181 320.63 388.828 320.63C394.475 320.63 399.89 322.873 403.883 326.866C407.876 330.859 410.119 336.274 410.119 341.921V459.676C410.119 465.323 407.876 470.738 403.883 474.731C399.89 478.724 394.475 480.967 388.828 480.967Z" fill="#C0ADE2"/>
<path d="M423.962 490.585C439.009 475.538 439.009 451.143 423.962 436.097C408.916 421.05 384.521 421.05 369.474 436.097C354.428 451.143 354.428 475.538 369.474 490.585C384.521 505.631 408.916 505.631 423.962 490.585Z" fill="#4E5660"/>
<path d="M398.511 470.29C402.465 469.356 404.912 465.394 403.977 461.441C403.043 457.488 399.081 455.041 395.127 455.975C391.174 456.909 388.727 460.872 389.662 464.825C390.596 468.778 394.558 471.225 398.511 470.29Z" fill="#A0E7E7"/>
<path d="M147.966 158.59C142.32 158.589 136.906 156.345 132.914 152.353C128.922 148.36 126.679 142.945 126.679 137.299V49.799C126.675 46.2947 125.281 42.9351 122.803 40.4572C120.325 37.9792 116.965 36.5853 113.461 36.581H81.291C78.495 36.581 75.7264 36.0303 73.1433 34.9603C70.5601 33.8904 68.213 32.3221 66.236 30.345C64.2589 28.368 62.6907 26.0209 61.6207 23.4377C60.5507 20.8546 60 18.086 60 15.29C60 12.494 60.5507 9.72545 61.6207 7.14231C62.6907 4.55917 64.2589 2.21206 66.236 0.235013C68.213 -1.74204 70.5601 -3.31032 73.1433 -4.3803C75.7264 -5.45027 78.495 -6.00098 81.291 -6.00098L113.461 -6.00098C128.255 -5.98457 142.438 -0.100385 152.899 10.3606C163.36 20.8216 169.245 35.005 169.261 49.799V137.299C169.261 140.095 168.711 142.864 167.641 145.447C166.571 148.03 165.003 150.377 163.026 152.354C161.049 154.331 158.702 155.899 156.119 156.969C153.535 158.039 150.767 158.59 147.971 158.59H147.966Z" fill="#C0ADE2"/>
<path d="M185.436 322.72H110.503V105.978C110.503 102.024 112.074 98.2321 114.869 95.4363C117.665 92.6405 121.457 91.0698 125.411 91.0698H170.528C174.482 91.0698 178.274 92.6405 181.069 95.4363C183.865 98.2321 185.436 102.024 185.436 105.978V322.72Z" fill="#A0E7E7"/>
<path d="M185.436 265.045C182.219 264.817 178.973 264.693 175.699 264.693C152.909 264.665 130.482 270.396 110.499 281.353V322.719H185.436V265.045Z" fill="#8ED2E2"/>
<path d="M308.588 227.299H346.788V301.565H308.588V227.299Z" fill="#C0ADE2"/>
<path d="M411.494 362.083H140.709V301.566H411.494C415.486 301.566 419.314 303.152 422.136 305.975C424.959 308.797 426.545 312.625 426.545 316.617V347.032C426.545 351.024 424.959 354.852 422.137 357.675C419.314 360.497 415.486 362.083 411.494 362.083Z" fill="#A0E7E7"/>
<path d="M140.709 362.083H306.186C299.284 338.952 286.365 318.068 268.748 301.566H140.709V362.083Z" fill="#8ED2E2"/>
<path d="M372.566 227.299H162.077C158.658 227.299 155.38 225.941 152.962 223.524C150.545 221.106 149.186 217.828 149.186 214.409V193.937C149.186 187.147 151.883 180.636 156.684 175.835C161.485 171.034 167.996 168.337 174.786 168.337H345.372C353.767 168.337 361.952 170.955 368.789 175.826C375.625 180.697 380.772 187.579 383.513 195.514L387.333 206.574C388.146 208.927 388.384 211.441 388.029 213.905C387.673 216.37 386.734 218.713 385.289 220.741C383.844 222.769 381.936 224.422 379.723 225.562C377.51 226.703 375.056 227.299 372.566 227.299Z" fill="#A0E7E7"/>
<path d="M230.49 168.336H174.79C168 168.336 161.489 171.033 156.688 175.834C151.887 180.635 149.19 187.146 149.19 193.936V214.408C149.19 216.101 149.523 217.777 150.171 219.341C150.819 220.905 151.769 222.326 152.966 223.523C154.163 224.72 155.584 225.669 157.148 226.317C158.712 226.965 160.388 227.298 162.081 227.298H243.781C234.324 216.446 226.428 184.086 230.49 168.336Z" fill="#8ED2E2"/>
<path d="M175.699 505.999C233.799 505.999 280.899 458.899 280.899 400.799C280.899 342.699 233.799 295.599 175.699 295.599C117.599 295.599 70.499 342.699 70.499 400.799C70.499 458.899 117.599 505.999 175.699 505.999Z" fill="#4E5660"/>
<path d="M137.292 302.832C122.544 308.613 109.291 317.65 98.5234 329.269C87.7555 340.887 79.7502 354.787 75.1046 369.931C70.459 385.076 69.2931 401.074 71.6938 416.732C74.0945 432.39 79.9999 447.303 88.9694 460.36C97.9389 473.417 109.741 484.28 123.495 492.139C137.249 499.997 152.6 504.649 168.403 505.746C184.206 506.843 200.053 504.358 214.761 498.475C229.469 492.593 242.659 483.465 253.347 471.773C133.749 459.267 123.64 326.328 137.292 302.832Z" fill="#3A4351"/>
<path d="M180.851 347.114L204.361 338.754C206.715 337.917 209.237 337.666 211.709 338.023C214.182 338.38 216.53 339.334 218.551 340.802C220.572 342.27 222.205 344.209 223.309 346.45C224.412 348.691 224.953 351.168 224.884 353.665L224.198 378.608C224.101 382.144 225.225 385.605 227.382 388.408L242.598 408.184C244.121 410.164 245.139 412.485 245.564 414.947C245.989 417.408 245.807 419.937 245.035 422.312C244.263 424.688 242.924 426.84 241.134 428.582C239.343 430.324 237.155 431.604 234.759 432.31L210.825 439.365C207.432 440.365 204.488 442.504 202.489 445.422L188.383 466.004C186.971 468.065 185.078 469.75 182.868 470.915C180.658 472.079 178.197 472.688 175.699 472.688C173.201 472.688 170.74 472.079 168.53 470.915C166.32 469.75 164.427 468.065 163.015 466.004L148.909 445.422C146.909 442.505 143.965 440.365 140.573 439.365L116.639 432.31C114.243 431.604 112.055 430.324 110.265 428.582C108.474 426.84 107.135 424.688 106.363 422.312C105.591 419.937 105.41 417.408 105.834 414.947C106.259 412.485 107.277 410.164 108.8 408.184L124.016 388.408C126.173 385.605 127.297 382.144 127.2 378.608L126.514 353.665C126.445 351.168 126.986 348.691 128.09 346.45C129.193 344.209 130.826 342.27 132.847 340.802C134.868 339.334 137.216 338.38 139.689 338.023C142.161 337.666 144.683 337.917 147.037 338.754L170.547 347.114C173.878 348.298 177.516 348.298 180.847 347.114H180.851Z" fill="#F6EE86"/>
<path d="M189.531 414.666C197.203 406.994 197.203 394.556 189.531 386.884C181.859 379.212 169.421 379.212 161.749 386.884C154.077 394.556 154.077 406.994 161.749 414.666C169.421 422.338 181.859 422.338 189.531 414.666Z" fill="#C0ADE2"/>
<path d="M133.072 340.649C130.981 342.1 129.285 344.051 128.14 346.324C126.995 348.597 126.436 351.121 126.515 353.665L127.201 378.608C127.298 382.144 126.174 385.605 124.017 388.408L108.801 408.184C107.278 410.164 106.26 412.485 105.835 414.947C105.41 417.409 105.592 419.937 106.364 422.312C107.136 424.688 108.475 426.84 110.265 428.582C112.056 430.324 114.244 431.604 116.64 432.31L140.574 439.365C143.967 440.365 146.911 442.504 148.91 445.422L163.016 465.999C164.428 468.06 166.321 469.745 168.531 470.91C170.741 472.074 173.202 472.683 175.7 472.683C178.198 472.683 180.659 472.074 182.869 470.91C185.079 469.745 186.972 468.06 188.384 465.999L196.947 453.505C152.514 426.425 135.863 376.383 133.072 340.644V340.649Z" fill="#F2D98D"/>
</svg>
