<svg width="512" height="512" viewBox="0 0 512 512" fill="none" xmlns="http://www.w3.org/2000/svg">
<path d="M35.6505 82.598C33.6098 81.9717 31.448 81.8477 29.3492 82.2367C27.2503 82.6256 25.2764 83.5158 23.5956 84.8317C21.9148 86.1475 20.5767 87.8499 19.6954 89.7941C18.814 91.7383 18.4154 93.8666 18.5335 95.998C19.9675 124.146 10.4555 141.154 22.8965 160.162C36.8415 181.462 60.0375 184.455 78.3765 172.451C96.7155 160.447 103.249 137.99 89.3025 116.689C77.6155 98.834 58.1025 89.525 35.6505 82.598Z" fill="#6FCE91"/>
<path d="M74.6745 180.898C73.2996 180.899 71.951 180.521 70.7759 179.808C69.6007 179.094 68.6441 178.071 68.0105 176.851L44.2405 131.051C43.7868 130.177 43.5098 129.222 43.4252 128.24C43.3406 127.259 43.4501 126.27 43.7476 125.331C44.3482 123.435 45.6777 121.854 47.4435 120.938C49.2093 120.022 51.2668 119.844 53.1634 120.445C55.0599 121.046 56.6402 122.375 57.5565 124.141L81.3225 169.941C81.9136 171.084 82.2011 172.36 82.1573 173.646C82.1135 174.931 81.74 176.185 81.0725 177.285C80.4051 178.385 79.4661 179.295 78.3458 179.928C77.2254 180.56 75.9612 180.894 74.6745 180.898Z" fill="#99DA90"/>
<path d="M0.0614974 238.018C-0.133879 240.144 0.187032 242.285 0.996936 244.26C1.80684 246.235 3.08178 247.986 4.71331 249.362C6.34484 250.739 8.2847 251.701 10.3679 252.167C12.4511 252.633 14.616 252.588 16.6785 252.038C43.9405 244.882 62.5305 250.718 78.5965 234.655C96.5965 216.655 94.7965 193.335 79.2965 177.835C63.7965 162.335 40.4845 160.535 22.4805 178.535C7.3855 193.619 2.2565 214.623 0.0614974 238.018Z" fill="#6FCE91"/>
<path d="M40.4472 219.576C38.8697 219.577 37.3318 219.081 36.0525 218.158C34.7731 217.235 33.8173 215.932 33.3211 214.435C32.8249 212.937 32.8135 211.322 33.2886 209.817C33.7637 208.313 34.701 206.997 35.9672 206.056L73.7442 177.975C74.5328 177.366 75.4349 176.92 76.3977 176.664C77.3605 176.407 78.3648 176.345 79.3518 176.481C80.3389 176.617 81.2889 176.949 82.1465 177.456C83.0041 177.963 83.752 178.636 84.3465 179.436C84.941 180.235 85.3703 181.145 85.6092 182.113C85.8481 183.08 85.8919 184.085 85.738 185.07C85.5841 186.054 85.2355 186.998 84.7128 187.846C84.19 188.694 83.5034 189.43 82.6932 190.01L44.9162 218.092C43.6259 219.056 42.0581 219.577 40.4472 219.576Z" fill="#99DA90"/>
<path d="M117.726 179.459C117.726 158.725 103.039 141.916 84.926 141.916C66.813 141.916 52.126 158.725 52.126 179.459C52.126 200.193 66.803 216.998 84.925 216.998C103.047 216.998 117.726 200.198 117.726 179.459Z" fill="#99DA90"/>
<path d="M303.397 120.021C240.729 120.021 152.155 137.873 108.565 161.821L303.397 264.921L498.225 161.818C454.639 137.873 366.061 120.021 303.397 120.021Z" fill="#6FCE91"/>
<path d="M313.455 404.298C373.802 338.568 494.67 337.33 511.842 179.298C512.295 175.01 511.698 170.676 510.105 166.669C508.512 162.662 505.969 159.102 502.695 156.295C499.421 153.488 495.515 151.519 491.312 150.556C487.108 149.593 482.734 149.666 478.565 150.768C426.318 164.404 346.674 175.998 303.397 175.998C260.12 175.998 180.475 164.404 128.225 150.768C124.056 149.666 119.682 149.593 115.479 150.555C111.275 151.518 107.369 153.487 104.095 156.294C100.822 159.101 98.2791 162.661 96.6863 166.668C95.0934 170.676 94.4979 175.01 94.9511 179.298C112.119 337.33 232.99 338.568 293.338 404.298C294.621 405.685 296.177 406.792 297.908 407.549C299.639 408.306 301.507 408.697 303.397 408.697C305.286 408.697 307.155 408.306 308.886 407.549C310.617 406.792 312.172 405.685 313.455 404.298Z" fill="#99DA90"/>
<path d="M313.455 404.298C373.802 338.568 494.67 337.33 511.842 179.298C512.295 175.01 511.698 170.676 510.105 166.669C508.512 162.662 505.969 159.102 502.695 156.295C499.421 153.488 495.515 151.519 491.312 150.556C487.108 149.593 482.734 149.666 478.565 150.768C426.318 164.404 346.674 175.998 303.397 175.998C260.12 175.998 180.475 164.404 128.225 150.768C124.056 149.666 119.682 149.593 115.479 150.555C111.275 151.518 107.369 153.487 104.095 156.294C100.822 159.101 98.2791 162.661 96.6863 166.668C95.0934 170.676 94.4979 175.01 94.9511 179.298C112.119 337.33 232.99 338.568 293.338 404.298C294.621 405.685 296.177 406.792 297.908 407.549C299.639 408.306 301.507 408.697 303.397 408.697C305.286 408.697 307.155 408.306 308.886 407.549C310.617 406.792 312.172 405.685 313.455 404.298Z" fill="#99DA90"/>
<path d="M193.468 164.447C170.136 160.47 147.347 155.756 128.226 150.767C124.057 149.665 119.682 149.592 115.479 150.555C111.275 151.517 107.368 153.487 104.095 156.294C100.821 159.101 98.2778 162.661 96.6845 166.668C95.0912 170.675 94.4952 175.009 94.9478 179.298C112.12 337.33 232.991 338.568 293.335 404.298C294.618 405.686 296.174 406.793 297.905 407.55C299.636 408.308 301.506 408.699 303.395 408.699C305.285 408.699 307.154 408.308 308.886 407.55C310.617 406.793 312.173 405.686 313.456 404.298C321.898 395.29 331.283 387.214 341.448 380.208C291.046 336.518 160.23 296.861 193.468 164.447Z" fill="#6FCE91"/>
<path d="M434.765 267.822C433.282 267.821 431.834 267.38 430.602 266.556C429.369 265.732 428.409 264.561 427.842 263.191C427.275 261.822 427.126 260.315 427.415 258.861C427.704 257.407 428.417 256.071 429.465 255.022L451.165 233.322C451.856 232.602 452.683 232.028 453.599 231.632C454.514 231.236 455.5 231.027 456.497 231.017C457.494 231.006 458.484 231.195 459.408 231.572C460.331 231.949 461.17 232.506 461.876 233.211C462.582 233.916 463.139 234.755 463.517 235.678C463.895 236.601 464.084 237.59 464.075 238.588C464.065 239.585 463.857 240.571 463.462 241.487C463.067 242.403 462.493 243.23 461.774 243.922L440.067 265.629C439.371 266.326 438.545 266.879 437.635 267.255C436.725 267.631 435.75 267.824 434.765 267.822Z" fill="#6FCE91"/>
<path d="M435.655 228.49C434.172 228.489 432.723 228.048 431.491 227.224C430.259 226.4 429.299 225.229 428.732 223.859C428.165 222.49 428.016 220.983 428.305 219.529C428.594 218.075 429.307 216.739 430.355 215.69L447.335 198.706C448.031 198.009 448.858 197.457 449.768 197.08C450.678 196.703 451.654 196.509 452.639 196.509C453.624 196.509 454.6 196.703 455.51 197.08C456.42 197.457 457.247 198.009 457.944 198.706C458.64 199.403 459.193 200.23 459.57 201.14C459.947 202.05 460.141 203.025 460.141 204.01C460.141 204.996 459.947 205.971 459.57 206.881C459.193 207.791 458.64 208.618 457.944 209.315L440.96 226.298C440.263 226.994 439.436 227.546 438.525 227.922C437.615 228.299 436.64 228.491 435.655 228.49Z" fill="#6FCE91"/>
<path d="M230.394 234.752L241.902 240.225C244.021 241.232 245.863 242.74 247.269 244.62C248.675 246.499 249.601 248.692 249.968 251.01C250.336 253.327 250.133 255.7 249.377 257.921C248.621 260.143 247.336 262.147 245.632 263.76L236.374 272.522C233.961 274.806 232.408 277.852 231.979 281.147L230.334 293.784C230.031 296.111 229.165 298.33 227.812 300.247C226.459 302.165 224.659 303.724 222.568 304.789C220.477 305.855 218.157 306.395 215.811 306.363C213.464 306.33 211.161 305.727 209.1 304.604L197.909 298.504C194.99 296.916 191.612 296.384 188.347 296.998L175.82 299.334C173.513 299.765 171.136 299.627 168.894 298.933C166.653 298.239 164.614 297.009 162.955 295.35C161.295 293.691 160.065 291.652 159.37 289.411C158.676 287.17 158.537 284.793 158.968 282.486L161.308 269.955C161.916 266.69 161.382 263.314 159.796 260.396L153.703 249.198C152.58 247.137 151.976 244.834 151.944 242.488C151.911 240.141 152.451 237.822 153.516 235.731C154.581 233.64 156.14 231.84 158.057 230.487C159.974 229.134 162.192 228.268 164.519 227.964L177.16 226.319C180.454 225.887 183.499 224.336 185.785 221.924L194.543 212.666C196.156 210.962 198.16 209.676 200.382 208.921C202.604 208.165 204.976 207.962 207.294 208.329C209.612 208.696 211.805 209.622 213.685 211.027C215.564 212.432 217.074 214.274 218.082 216.393L223.555 227.905C224.978 230.907 227.394 233.325 230.394 234.752Z" fill="#F7EF87"/>
<path d="M159.795 260.393C161.382 263.311 161.916 266.687 161.307 269.952L158.967 282.483C158.536 284.79 158.674 287.167 159.369 289.409C160.063 291.65 161.294 293.689 162.953 295.348C164.613 297.007 166.652 298.237 168.894 298.931C171.135 299.625 173.512 299.762 175.819 299.331L188.346 296.998C191.613 296.385 194.991 296.919 197.909 298.51L209.1 304.61C210.786 305.527 212.637 306.098 214.546 306.291C216.455 306.485 218.384 306.296 220.219 305.736C222.054 305.176 223.76 304.256 225.236 303.03C226.711 301.803 227.928 300.296 228.815 298.594C208.065 277.617 192.264 251.965 188.838 218.699L185.776 221.933C183.494 224.347 180.449 225.899 177.155 226.328L164.514 227.973C162.189 228.278 159.973 229.144 158.057 230.497C156.142 231.85 154.585 233.649 153.52 235.739C152.456 237.829 151.916 240.146 151.948 242.491C151.979 244.836 152.582 247.138 153.702 249.198L159.795 260.393Z" fill="#EFD176"/>
<path d="M428.002 322.92L420.229 312.82C418.204 310.189 417.147 306.939 417.237 303.62L417.589 290.878C417.653 288.533 417.145 286.207 416.108 284.103C415.071 281.998 413.537 280.178 411.639 278.799C409.741 277.421 407.535 276.525 405.213 276.191C402.891 275.856 400.522 276.092 398.312 276.878L386.304 281.148C383.173 282.261 379.755 282.261 376.624 281.148L364.612 276.878C362.402 276.092 360.033 275.856 357.711 276.191C355.389 276.526 353.184 277.421 351.286 278.8C349.387 280.178 347.854 281.999 346.817 284.103C345.78 286.208 345.271 288.533 345.335 290.878L345.687 303.62C345.777 306.939 344.721 310.189 342.695 312.82L334.925 322.92C333.494 324.78 332.537 326.96 332.138 329.273C331.739 331.585 331.909 333.96 332.634 336.192C333.36 338.424 334.618 340.446 336.3 342.082C337.982 343.719 340.037 344.921 342.288 345.584L354.511 349.189C357.699 350.127 360.465 352.136 362.343 354.877L368.105 363.283C388.305 351.412 409.705 340.076 429.71 325.783C429.251 324.767 428.678 323.807 428.002 322.92Z" fill="#F7EF87"/>
<path d="M298.451 175.947C298.024 176.84 297.506 177.687 296.904 178.474L289.134 188.574C287.703 190.433 286.747 192.614 286.347 194.926C285.948 197.238 286.118 199.613 286.843 201.845C287.567 204.076 288.825 206.098 290.506 207.735C292.188 209.371 294.243 210.574 296.493 211.238L308.72 214.838C311.907 215.778 314.673 217.788 316.552 220.529L323.752 231.041C325.079 232.976 326.857 234.559 328.933 235.653C331.009 236.747 333.32 237.319 335.666 237.319C338.013 237.319 340.324 236.747 342.4 235.653C344.475 234.559 346.254 232.976 347.58 231.041L354.787 220.529C356.665 217.789 359.43 215.779 362.615 214.838L374.842 211.238C377.093 210.574 379.148 209.372 380.83 207.735C382.511 206.099 383.769 204.077 384.494 201.846C385.219 199.614 385.39 197.239 384.991 194.927C384.592 192.614 383.636 190.434 382.205 188.574L374.435 178.474C372.706 176.227 371.679 173.521 371.482 170.693C345.565 173.998 321.35 175.998 303.397 175.998C301.802 175.998 300.143 175.978 298.451 175.947Z" fill="#F7EF87"/>
</svg>
