<svg width="512" height="512" viewBox="0 0 512 512" fill="none" xmlns="http://www.w3.org/2000/svg">
<path d="M199.848 134.652C199.848 122.141 187.27 112 171.758 112C156.246 112 143.672 122.141 143.672 134.652C143.672 147.163 156.246 157.3 171.758 157.3C187.27 157.3 199.848 147.164 199.848 134.652Z" fill="#8ED2E2"/>
<path d="M32.668 400.867H277.824L343.515 341.14V281.406C343.514 246.347 329.587 212.724 304.797 187.934C280.006 163.143 246.383 149.216 211.324 149.215H132.191C97.1319 149.216 63.5089 163.143 38.7184 187.934C13.9279 212.724 0.000530418 246.347 0 281.406L0 368.2C-2.01005e-09 372.49 0.84499 376.738 2.48672 380.701C4.12846 384.665 6.53478 388.266 9.5683 391.299C12.6018 394.333 16.2031 396.739 20.1666 398.381C24.13 400.022 28.378 400.867 32.668 400.867Z" fill="#FCF2D0"/>
<path d="M32.668 400.867H277.824L343.515 341.14V281.406C343.514 246.347 329.587 212.724 304.797 187.934C280.006 163.143 246.383 149.216 211.324 149.215H132.191C97.1319 149.216 63.5089 163.143 38.7184 187.934C13.9279 212.724 0.000530418 246.347 0 281.406L0 368.2C-2.01005e-09 372.49 0.84499 376.738 2.48672 380.701C4.12846 384.665 6.53478 388.266 9.5683 391.299C12.6018 394.333 16.2031 396.739 20.1666 398.381C24.13 400.022 28.378 400.867 32.668 400.867Z" fill="#FCF2D0"/>
<path d="M187.863 400.867C121.98 342.914 120.875 226.445 142.52 149.215H132.191C97.1319 149.216 63.5089 163.143 38.7184 187.934C13.9279 212.724 0.000530434 246.347 1.53079e-08 281.406L1.53078e-08 368.2C-0.000131314 372.49 0.844762 376.738 2.48644 380.702C4.12811 384.665 6.53441 388.267 9.56794 391.3C12.6015 394.334 16.2028 396.74 20.1663 398.382C24.1299 400.023 28.3779 400.868 32.668 400.868L187.863 400.867Z" fill="#F6E3A3"/>
<path d="M343.516 281.406C314.329 306.195 289.216 353.449 277.825 400.867C433.938 400.867 458.977 402.832 505.278 338.015C522.196 314.328 505.231 281.406 476.122 281.406H343.516Z" fill="#8ED2E2"/>
<path d="M314.727 199.055C275.981 205.84 252.427 222.02 234.969 237.778C233.069 239.491 231.538 241.573 230.469 243.897C229.4 246.221 228.815 248.738 228.749 251.296C228.684 253.853 229.139 256.397 230.088 258.772C231.037 261.148 232.46 263.306 234.269 265.114L257.308 288.153C260.721 291.543 265.297 293.505 270.106 293.64C274.914 293.775 279.593 292.073 283.191 288.88C296.773 276.974 312.418 268.22 342.656 266.333C339.863 241.725 330.183 218.406 314.727 199.055Z" fill="#EDA1AB"/>
<path d="M330.691 224.6C307.66 227.1 288.75 233.358 272.339 243.784C271.495 244.306 270.762 244.99 270.184 245.798C269.606 246.605 269.194 247.519 268.972 248.486C268.75 249.454 268.722 250.456 268.89 251.434C269.059 252.413 269.419 253.348 269.952 254.186C270.484 255.024 271.177 255.748 271.992 256.315C272.806 256.883 273.725 257.284 274.695 257.494C275.665 257.704 276.668 257.72 277.644 257.539C278.62 257.359 279.551 256.987 280.382 256.444C295.765 246.671 313.933 241.044 336.589 239.116C334.914 234.164 332.945 229.317 330.691 224.6Z" fill="white"/>
<path d="M24.367 320.8H0V352.7H24.367C25.356 352.7 26.3354 352.505 27.2491 352.127C28.1629 351.749 28.9932 351.194 29.6925 350.495C30.3919 349.795 30.9466 348.965 31.325 348.051C31.7034 347.137 31.8981 346.158 31.898 345.169V328.332C31.8983 327.343 31.7037 326.363 31.3253 325.45C30.9469 324.536 30.3922 323.705 29.6929 323.006C28.9935 322.306 28.1632 321.752 27.2494 321.373C26.3355 320.995 25.3561 320.8 24.367 320.8Z" fill="#4E5660"/>
<path d="M108.145 380.414C106.156 380.414 104.248 379.624 102.842 378.217C101.435 376.811 100.645 374.903 100.645 372.914V363.98C100.645 361.991 101.435 360.083 102.842 358.677C104.248 357.27 106.156 356.48 108.145 356.48C110.134 356.48 112.042 357.27 113.448 358.677C114.855 360.083 115.645 361.991 115.645 363.98V372.914C115.645 374.903 114.855 376.811 113.448 378.217C112.042 379.624 110.134 380.414 108.145 380.414Z" fill="#FCF2D0"/>
<path d="M108.145 333.438C106.156 333.438 104.248 332.648 102.842 331.241C101.435 329.835 100.645 327.927 100.645 325.938V317.008C100.645 315.019 101.435 313.111 102.842 311.705C104.248 310.298 106.156 309.508 108.145 309.508C110.134 309.508 112.042 310.298 113.448 311.705C114.855 313.111 115.645 315.019 115.645 317.008V325.938C115.645 327.927 114.855 329.835 113.448 331.241C112.042 332.648 110.134 333.438 108.145 333.438Z" fill="#FCF2D0"/>
<path d="M108.145 286.465C106.156 286.465 104.248 285.675 102.842 284.268C101.435 282.862 100.645 280.954 100.645 278.965V270.035C100.645 268.046 101.435 266.138 102.842 264.732C104.248 263.325 106.156 262.535 108.145 262.535C110.134 262.535 112.042 263.325 113.448 264.732C114.855 266.138 115.645 268.046 115.645 270.035V278.965C115.645 280.954 114.855 282.862 113.448 284.268C112.042 285.675 110.134 286.465 108.145 286.465Z" fill="#FCF2D0"/>
<path d="M108.145 239.488C106.156 239.488 104.248 238.698 102.842 237.291C101.435 235.885 100.645 233.977 100.645 231.988V223.058C100.645 221.069 101.435 219.161 102.842 217.755C104.248 216.348 106.156 215.558 108.145 215.558C110.134 215.558 112.042 216.348 113.448 217.755C114.855 219.161 115.645 221.069 115.645 223.058V231.988C115.645 233.977 114.855 235.885 113.448 237.291C112.042 238.698 110.134 239.488 108.145 239.488Z" fill="#FCF2D0"/>
<path d="M112.043 192.516C110.561 192.515 109.112 192.074 107.88 191.25C106.648 190.426 105.687 189.255 105.12 187.885C104.553 186.515 104.405 185.009 104.693 183.555C104.982 182.101 105.695 180.765 106.743 179.716L113.059 173.404C114.482 172.088 116.359 171.373 118.297 171.411C120.235 171.448 122.083 172.234 123.454 173.605C124.825 174.975 125.613 176.823 125.651 178.761C125.689 180.699 124.976 182.576 123.66 184L117.348 190.316C116.653 191.014 115.826 191.568 114.915 191.946C114.005 192.323 113.029 192.517 112.043 192.516Z" fill="#FCF2D0"/>
<path d="M476.121 281.406H471.562C471.043 286.293 469.257 290.96 466.382 294.945C427.417 349.492 405.655 354.254 293.312 354.629C291.179 359.555 289.176 364.56 287.304 369.645C342.39 369.528 378.144 368.555 404.589 361.598C420.448 357.426 433.316 351.039 445.081 341.498C455.729 332.861 466.065 321.198 478.589 303.662C482.97 297.533 485.673 290.365 486.429 282.869C483.081 281.889 479.609 281.396 476.121 281.406Z" fill="#6FB6E1"/>
</svg>
