<svg width="513" height="512" viewBox="0 0 513 512" fill="none" xmlns="http://www.w3.org/2000/svg">
<path d="M433.875 269.512L482.23 221.157L382.23 121.157C374.805 113.73 365.989 107.838 356.286 103.819C346.583 99.799 336.183 97.7301 325.68 97.73H186.32C175.819 97.7298 165.42 99.7982 155.717 103.817C146.015 107.836 137.199 113.726 129.773 121.152L29.7734 221.152L78.1254 269.507L153.2 194.438V265.958C153.198 281.535 151.006 297.034 146.688 312L125.317 386.113C124.357 389.444 124.184 392.952 124.812 396.361C125.44 399.771 126.852 402.987 128.936 405.757C131.021 408.527 133.72 410.775 136.822 412.323C139.924 413.87 143.343 414.676 146.809 414.676H365.191C368.658 414.676 372.077 413.87 375.178 412.323C378.28 410.775 380.98 408.527 383.064 405.757C385.148 402.988 386.56 399.771 387.188 396.362C387.816 392.953 387.644 389.445 386.683 386.114L365.313 312C360.997 297.032 358.806 281.531 358.805 265.953V194.433L433.875 269.512Z" fill="#FCF2D0"/>
<path d="M187.477 97.73H186.32C175.819 97.7298 165.42 99.7982 155.717 103.817C146.015 107.836 137.199 113.726 129.773 121.152L29.7734 221.152L78.1254 269.507L153.2 194.438V265.958C153.198 281.535 151.006 297.034 146.688 312L125.317 386.113C124.357 389.444 124.184 392.952 124.812 396.361C125.44 399.771 126.852 402.987 128.936 405.757C131.021 408.527 133.72 410.775 136.822 412.323C139.924 413.87 143.343 414.676 146.809 414.676H240.989C192.156 337.828 176.906 174.121 187.477 97.73Z" fill="#F6E3A3"/>
<path d="M207.146 97.73H304.856L256.001 182.918L207.146 97.73Z" fill="#F6E3A3"/>
<path d="M276.086 217.824C279.55 191.697 289.378 166.822 304.707 145.383L337.477 99.59C338.194 98.5896 338.621 97.411 338.711 96.1838C338.801 94.9566 338.551 93.7283 337.989 92.6339C337.426 91.5394 336.573 90.6212 335.523 89.9801C334.473 89.339 333.266 88.9999 332.035 89H304.859C301.213 89 297.62 89.8697 294.377 91.5369C291.134 93.2041 288.336 95.6206 286.214 98.586L252.726 145.386C246.792 153.685 241.66 162.529 237.4 171.8C250.664 186.82 263.406 202.3 276.086 217.824Z" fill="#6FCE91"/>
<path d="M82.3597 278.652L65.0477 295.965C63.9967 297.016 62.749 297.85 61.3756 298.419C60.0023 298.988 58.5303 299.281 57.0437 299.281C55.5571 299.281 54.0851 298.988 52.7118 298.419C51.3384 297.85 50.0906 297.016 49.0397 295.965L3.31669 250.242C2.26518 249.191 1.43107 247.943 0.861988 246.569C0.292906 245.195 0 243.723 0 242.236C0 240.749 0.292906 239.277 0.861988 237.903C1.43107 236.529 2.26518 235.281 3.31669 234.23L20.6257 216.921C21.677 215.869 22.9251 215.035 24.2988 214.466C25.6725 213.897 27.1448 213.604 28.6317 213.604C30.1186 213.604 31.5909 213.897 32.9646 214.466C34.3383 215.035 35.5864 215.869 36.6377 216.921L82.3607 262.644C83.412 263.695 84.246 264.943 84.8149 266.316C85.3838 267.69 85.6766 269.162 85.6765 270.648C85.6764 272.135 85.3835 273.607 84.8144 274.98C84.2452 276.353 83.4111 277.601 82.3597 278.652Z" fill="#6FCE91"/>
<path d="M429.642 278.652L446.951 295.965C448.002 297.016 449.25 297.851 450.624 298.42C451.997 298.989 453.47 299.282 454.957 299.282C456.443 299.282 457.916 298.989 459.289 298.42C460.663 297.851 461.911 297.016 462.963 295.965L508.686 250.242C509.737 249.191 510.571 247.943 511.14 246.569C511.709 245.195 512.002 243.723 512.002 242.236C512.002 240.749 511.709 239.277 511.14 237.903C510.571 236.529 509.737 235.281 508.686 234.23L491.377 216.921C490.325 215.869 489.077 215.035 487.703 214.466C486.33 213.897 484.857 213.604 483.371 213.604C481.884 213.604 480.411 213.897 479.038 214.466C477.664 215.035 476.416 215.869 475.365 216.921L429.642 262.644C428.59 263.695 427.756 264.943 427.187 266.316C426.618 267.689 426.325 269.161 426.325 270.648C426.325 272.135 426.618 273.607 427.187 274.98C427.756 276.353 428.59 277.601 429.642 278.652Z" fill="#99DA90"/>
<path d="M237.349 414.68V239.035C237.348 205.446 226.839 172.7 207.294 145.383L174.524 99.59C173.808 98.5896 173.381 97.411 173.29 96.1838C173.2 94.9566 173.45 93.7283 174.012 92.6339C174.575 91.5394 175.428 90.6212 176.478 89.9801C177.529 89.339 178.735 88.9999 179.966 89H207.142C210.788 89 214.382 89.8697 217.624 91.5369C220.867 93.2041 223.665 95.6206 225.787 98.586L259.275 145.386C278.821 172.702 289.331 205.449 289.33 239.038V414.68H237.349Z" fill="#99DA90"/>
<path d="M364.524 305.668H147.478C146.25 305.668 145.037 305.411 143.915 304.913C142.794 304.416 141.788 303.689 140.964 302.78C140.14 301.871 139.515 300.8 139.13 299.635C138.745 298.47 138.608 297.237 138.728 296.016L140.836 274.528C141.052 272.356 142.067 270.343 143.684 268.877C145.301 267.412 147.404 266.6 149.586 266.598H362.411C364.593 266.598 366.698 267.41 368.315 268.875C369.932 270.341 370.947 272.356 371.161 274.528L373.27 296.016C373.39 297.237 373.253 298.47 372.869 299.635C372.484 300.8 371.86 301.871 371.036 302.78C370.212 303.69 369.207 304.416 368.085 304.914C366.964 305.411 365.75 305.668 364.524 305.668Z" fill="#6FCE91"/>
<path d="M339.189 170.168C337.706 170.167 336.258 169.726 335.025 168.902C333.793 168.078 332.833 166.907 332.266 165.537C331.699 164.167 331.55 162.661 331.839 161.207C332.128 159.753 332.841 158.417 333.889 157.368L343.174 148.083C344.588 146.717 346.483 145.961 348.449 145.978C350.416 145.995 352.297 146.784 353.687 148.174C355.078 149.565 355.867 151.446 355.884 153.412C355.901 155.379 355.145 157.273 353.779 158.688L344.494 167.973C343.798 168.67 342.971 169.223 342.06 169.6C341.15 169.977 340.174 170.17 339.189 170.168Z" fill="#F6E3A3"/>
<path d="M201.872 243.832C200.887 243.833 199.912 243.639 199.002 243.261C198.092 242.884 197.267 242.33 196.572 241.632L187.287 232.347C185.921 230.932 185.165 229.038 185.182 227.071C185.199 225.105 185.988 223.224 187.378 221.833C188.769 220.443 190.65 219.654 192.616 219.637C194.583 219.62 196.477 220.376 197.892 221.742L207.177 231.023C208.225 232.072 208.938 233.407 209.227 234.861C209.515 236.315 209.367 237.822 208.8 239.192C208.233 240.562 207.272 241.733 206.04 242.557C204.808 243.381 203.359 243.822 201.877 243.823L201.872 243.832Z" fill="#F6E3A3"/>
<path d="M430.634 218.988C429.649 218.988 428.674 218.794 427.764 218.416C426.855 218.039 426.029 217.486 425.334 216.788L417.924 209.378C417.227 208.681 416.675 207.854 416.298 206.944C415.921 206.034 415.727 205.059 415.727 204.073C415.727 203.088 415.921 202.113 416.298 201.203C416.675 200.293 417.227 199.466 417.924 198.769C418.62 198.072 419.447 197.52 420.357 197.143C421.268 196.766 422.243 196.572 423.228 196.572C424.213 196.572 425.189 196.766 426.099 197.143C427.009 197.52 427.836 198.072 428.533 198.769L435.943 206.179C436.99 207.228 437.704 208.564 437.992 210.018C438.281 211.472 438.133 212.979 437.566 214.348C436.999 215.718 436.038 216.889 434.806 217.713C433.574 218.537 432.125 218.978 430.643 218.979L430.634 218.988Z" fill="#F6E3A3"/>
<path d="M85.677 225.324C84.1946 225.323 82.7458 224.882 81.5137 224.058C80.2815 223.234 79.3212 222.063 78.7541 220.693C78.187 219.324 78.0385 217.817 78.3273 216.363C78.6162 214.909 79.3294 213.573 80.377 212.524L85.334 207.571C86.7485 206.205 88.643 205.449 90.6095 205.466C92.576 205.483 94.4571 206.272 95.8476 207.662C97.2382 209.053 98.027 210.934 98.0441 212.9C98.0611 214.867 97.3052 216.761 95.939 218.176L90.982 223.133C90.2861 223.83 89.459 224.383 88.5485 224.759C87.638 225.135 86.6621 225.327 85.677 225.324Z" fill="#FCF2D0"/>
<path d="M178.728 362.684C177.245 362.683 175.797 362.242 174.564 361.418C173.332 360.594 172.372 359.423 171.805 358.053C171.238 356.683 171.089 355.177 171.378 353.723C171.667 352.269 172.38 350.933 173.428 349.884L182.713 340.599C184.131 339.257 186.018 338.521 187.971 338.548C189.923 338.574 191.789 339.362 193.17 340.743C194.551 342.124 195.339 343.989 195.367 345.942C195.394 347.894 194.659 349.781 193.317 351.2L184.032 360.485C183.336 361.183 182.509 361.736 181.599 362.114C180.689 362.491 179.713 362.685 178.728 362.684Z" fill="#FCF2D0"/>
<path d="M336.059 374.168C335.075 374.168 334.1 373.973 333.19 373.596C332.281 373.218 331.455 372.665 330.759 371.968L321.478 362.683C320.112 361.269 319.356 359.374 319.373 357.408C319.39 355.441 320.179 353.56 321.57 352.169C322.96 350.779 324.841 349.99 326.808 349.973C328.774 349.956 330.669 350.712 332.083 352.078L341.368 361.363C342.416 362.412 343.129 363.748 343.418 365.202C343.707 366.656 343.558 368.163 342.991 369.532C342.424 370.902 341.464 372.073 340.232 372.897C339 373.721 337.551 374.162 336.068 374.163L336.059 374.168Z" fill="#F6E3A3"/>
<path d="M147.126 163.945C146.141 163.946 145.165 163.752 144.256 163.374C143.346 162.997 142.52 162.443 141.826 161.745L135.764 155.683C134.397 154.268 133.641 152.374 133.658 150.407C133.676 148.441 134.464 146.56 135.855 145.169C137.245 143.779 139.127 142.99 141.093 142.973C143.06 142.956 144.954 143.712 146.369 145.078L152.432 151.141C153.479 152.19 154.192 153.526 154.481 154.98C154.77 156.434 154.622 157.941 154.054 159.31C153.487 160.68 152.527 161.851 151.295 162.675C150.063 163.499 148.614 163.94 147.132 163.941L147.126 163.945Z" fill="#FCF2D0"/>
</svg>
