<svg width="512" height="512" viewBox="0 0 512 512" fill="none" xmlns="http://www.w3.org/2000/svg">
<path d="M484.82 305.984H27.18C19.9721 305.985 13.0592 303.122 7.96202 298.025C2.86481 292.929 0.000795629 286.017 1.83989e-08 278.809L1.83989e-08 233.785C-0.000131312 230.216 0.70281 226.681 2.06869 223.383C3.43456 220.086 5.43662 217.089 7.96054 214.566C10.4845 212.042 13.4808 210.04 16.7785 208.674C20.0762 207.308 23.6106 206.605 27.18 206.605H484.82C488.389 206.605 491.924 207.308 495.221 208.674C498.519 210.04 501.516 212.042 504.039 214.566C506.563 217.089 508.565 220.086 509.931 223.383C511.297 226.681 512 230.216 512 233.785V278.808C512 282.377 511.296 285.911 509.93 289.208C508.564 292.506 506.562 295.502 504.038 298.025C501.514 300.549 498.518 302.55 495.221 303.916C491.923 305.282 488.389 305.984 484.82 305.984Z" fill="#E1B89A"/>
<path d="M355.012 213.184C355.013 210.981 354.843 208.782 354.504 206.606H27.18C23.6107 206.606 20.0764 207.309 16.7787 208.675C13.4811 210.04 10.4848 212.042 7.9609 214.566C5.43699 217.09 3.43491 220.086 2.06897 223.384C0.703039 226.681 -2.41592e-09 230.216 0 233.785L0 278.808C0.000262634 282.377 0.703502 285.911 2.06957 289.208C3.43563 292.506 5.43777 295.502 7.96167 298.025C10.4856 300.549 13.4818 302.55 16.7793 303.916C20.0768 305.282 23.6109 305.984 27.18 305.984H354.5C354.84 303.808 355.009 301.608 355.008 299.406L355.012 213.184Z" fill="#D2996F"/>
<path d="M197.813 305.984C100.805 305.984 54.493 262.793 32.913 215.199C30.7074 210.294 29.6375 204.954 29.7828 199.578C29.9282 194.201 31.2852 188.927 33.7527 184.148C36.2201 179.369 39.7344 175.209 44.0335 171.977C48.3326 168.746 53.3056 166.526 58.582 165.484L87.953 159.645C102.836 156.688 117.605 164.118 124.753 177.504C133.769 194.379 152.441 206.604 197.812 206.604L197.813 305.984Z" fill="#E1B89A"/>
<path d="M156.988 213.184V299.41C156.988 300.668 157.054 301.91 157.16 303.144C170.623 305.088 184.21 306.037 197.812 305.984V206.605C181.484 206.605 168.628 205.015 158.425 202.205C157.47 205.787 156.987 209.477 156.988 213.184Z" fill="#D2996F"/>
<path d="M199.754 195.266H312.246C314.599 195.266 316.93 195.729 319.104 196.629C321.279 197.529 323.254 198.849 324.919 200.513C326.583 202.177 327.903 204.152 328.804 206.326C329.704 208.5 330.168 210.831 330.168 213.184V299.41C330.168 301.763 329.704 304.094 328.803 306.268C327.902 308.442 326.582 310.417 324.918 312.081C323.254 313.745 321.278 315.064 319.104 315.965C316.93 316.865 314.599 317.328 312.246 317.328H199.754C197.401 317.328 195.07 316.865 192.896 315.965C190.722 315.064 188.746 313.745 187.082 312.081C185.418 310.417 184.098 308.442 183.197 306.268C182.296 304.094 181.832 301.763 181.832 299.41V213.184C181.832 210.831 182.296 208.5 183.196 206.326C184.097 204.152 185.417 202.177 187.082 200.513C188.746 198.849 190.722 197.529 192.896 196.629C195.07 195.729 197.401 195.266 199.754 195.266Z" fill="#F7EF87"/>
<path d="M199.754 195.266H312.246C314.599 195.266 316.93 195.729 319.104 196.629C321.279 197.529 323.254 198.849 324.919 200.513C326.583 202.177 327.903 204.152 328.804 206.326C329.704 208.5 330.168 210.831 330.168 213.184V299.41C330.168 301.763 329.704 304.094 328.803 306.268C327.902 308.442 326.582 310.417 324.918 312.081C323.254 313.745 321.278 315.064 319.104 315.965C316.93 316.865 314.599 317.328 312.246 317.328H199.754C197.401 317.328 195.07 316.865 192.896 315.965C190.722 315.064 188.746 313.745 187.082 312.081C185.418 310.417 184.098 308.442 183.197 306.268C182.296 304.094 181.832 301.763 181.832 299.41V213.184C181.832 210.831 182.296 208.5 183.196 206.326C184.097 204.152 185.417 202.177 187.082 200.513C188.746 198.849 190.722 197.529 192.896 196.629C195.07 195.729 197.401 195.266 199.754 195.266Z" fill="#F7EF87"/>
<path d="M199.754 195.266C197.401 195.266 195.07 195.729 192.896 196.629C190.722 197.529 188.746 198.849 187.082 200.513C185.417 202.177 184.097 204.152 183.196 206.326C182.296 208.5 181.832 210.831 181.832 213.184V299.41C181.832 301.763 182.296 304.094 183.197 306.268C184.098 308.442 185.418 310.417 187.082 312.081C188.746 313.745 190.722 315.064 192.896 315.965C195.07 316.865 197.401 317.328 199.754 317.328H276.766C234.348 290.7 230.559 226.855 243.012 195.266H199.754Z" fill="#EFD176"/>
<path d="M209.16 284.1V228.492C209.16 226.927 209.782 225.427 210.888 224.32C211.994 223.214 213.495 222.592 215.06 222.592H296.939C298.504 222.592 300.004 223.214 301.111 224.32C302.217 225.427 302.839 226.927 302.839 228.492V284.1C302.839 285.665 302.217 287.166 301.111 288.272C300.004 289.378 298.504 290 296.939 290H215.059C213.494 290 211.994 289.378 210.888 288.272C209.781 287.165 209.16 285.665 209.16 284.1Z" fill="#E1B89A"/>
<path d="M302.594 243.637H286.055C284.724 243.637 283.405 243.898 282.175 244.408C280.944 244.917 279.827 245.664 278.885 246.605C277.943 247.546 277.196 248.664 276.686 249.894C276.177 251.124 275.914 252.442 275.914 253.774V258.82C275.914 260.151 276.177 261.47 276.686 262.7C277.196 263.93 277.943 265.048 278.885 265.989C279.827 266.93 280.944 267.677 282.175 268.186C283.405 268.695 284.724 268.957 286.055 268.957H302.594C305.282 268.956 307.86 267.888 309.761 265.987C311.662 264.086 312.73 261.508 312.73 258.82V253.773C312.73 251.085 311.661 248.507 309.761 246.606C307.86 244.706 305.282 243.637 302.594 243.637Z" fill="#EFD176"/>
<path d="M253.676 256.3C253.676 258.121 253.135 259.902 252.123 261.416C251.111 262.93 249.673 264.11 247.99 264.807C246.308 265.503 244.456 265.685 242.67 265.33C240.884 264.975 239.243 264.098 237.955 262.81C236.668 261.522 235.79 259.881 235.435 258.095C235.08 256.309 235.262 254.458 235.959 252.775C236.655 251.092 237.835 249.654 239.35 248.642C240.864 247.63 242.644 247.09 244.465 247.089C245.675 247.089 246.873 247.327 247.99 247.79C249.108 248.253 250.123 248.931 250.979 249.786C251.834 250.642 252.513 251.657 252.975 252.775C253.438 253.893 253.676 255.09 253.676 256.3Z" fill="#4E5660"/>
<path d="M132.188 244.887C132.188 246.708 131.647 248.489 130.635 250.003C129.623 251.517 128.184 252.697 126.501 253.394C124.818 254.09 122.967 254.272 121.18 253.917C119.394 253.561 117.753 252.684 116.466 251.395C115.178 250.107 114.302 248.466 113.947 246.68C113.592 244.893 113.774 243.042 114.472 241.359C115.169 239.676 116.35 238.238 117.864 237.227C119.379 236.215 121.16 235.676 122.981 235.676C124.19 235.676 125.388 235.914 126.505 236.377C127.623 236.84 128.638 237.518 129.493 238.374C130.348 239.229 131.026 240.245 131.489 241.362C131.951 242.48 132.189 243.678 132.188 244.887Z" fill="#4E5660"/>
<path d="M390.051 256.3C390.051 258.121 389.51 259.902 388.498 261.416C387.486 262.93 386.048 264.11 384.365 264.807C382.683 265.503 380.831 265.685 379.045 265.33C377.259 264.975 375.618 264.098 374.33 262.81C373.043 261.522 372.166 259.881 371.81 258.095C371.455 256.309 371.637 254.458 372.334 252.775C373.03 251.092 374.21 249.654 375.725 248.642C377.239 247.63 379.019 247.09 380.84 247.089C382.05 247.089 383.248 247.327 384.365 247.79C385.483 248.253 386.498 248.931 387.354 249.786C388.209 250.642 388.888 251.657 389.35 252.775C389.813 253.893 390.051 255.09 390.051 256.3Z" fill="#4E5660"/>
<path d="M459.934 256.3C459.934 258.121 459.393 259.902 458.381 261.416C457.369 262.93 455.931 264.11 454.248 264.807C452.566 265.503 450.714 265.685 448.928 265.33C447.142 264.975 445.501 264.098 444.213 262.81C442.926 261.522 442.049 259.881 441.693 258.095C441.338 256.309 441.52 254.458 442.217 252.775C442.913 251.092 444.094 249.654 445.608 248.642C447.122 247.63 448.902 247.09 450.723 247.089C451.933 247.089 453.131 247.327 454.248 247.79C455.366 248.253 456.381 248.931 457.237 249.786C458.092 250.642 458.771 251.657 459.234 252.775C459.696 253.893 459.934 255.09 459.934 256.3Z" fill="#4E5660"/>
</svg>
