<svg width="512" height="512" viewBox="0 0 512 512" fill="none" xmlns="http://www.w3.org/2000/svg">
<path d="M235.313 104.191C235.313 113.129 232.662 121.866 227.697 129.298C222.731 136.729 215.673 142.522 207.416 145.942C199.158 149.362 190.072 150.257 181.306 148.514C172.54 146.77 164.487 142.466 158.167 136.146C151.847 129.826 147.543 121.774 145.799 113.008C144.055 104.242 144.95 95.1554 148.37 86.8978C151.791 78.6403 157.583 71.5823 165.014 66.6165C172.446 61.6508 181.183 59.0002 190.121 59C196.055 58.9999 201.932 60.1687 207.415 62.4397C212.898 64.7107 217.88 68.0394 222.076 72.2358C226.273 76.4322 229.602 81.414 231.873 86.8969C234.144 92.3798 235.313 98.2564 235.313 104.191Z" fill="#F7EF87"/>
<path d="M190.121 149.383C198.726 149.384 207.152 146.928 214.409 142.303C221.666 137.679 227.452 131.078 231.086 123.278C182.172 133.344 158.686 82.559 180.57 60.02C169.668 62.3776 160.023 68.6835 153.491 77.7245C146.958 86.7656 144 97.9029 145.186 108.994C146.371 120.085 151.616 130.345 159.912 137.801C168.207 145.258 178.967 149.383 190.121 149.383Z" fill="#EFD176"/>
<path d="M91.9772 379.293L91.6652 378.707C90.5514 376.615 89.8656 374.322 89.6478 371.962C89.43 369.601 89.6845 367.221 90.3964 364.961C91.1084 362.7 92.2636 360.604 93.7945 358.794C95.3255 356.985 97.2015 355.499 99.3132 354.422C222.145 291.578 311.231 278.574 450.501 277.622C452.854 277.604 455.187 278.052 457.366 278.94C459.544 279.828 461.526 281.137 463.197 282.794C464.867 284.451 466.194 286.422 467.099 288.593C468.005 290.764 468.472 293.093 468.474 295.446C468.472 308.408 463.399 320.855 454.34 330.125C445.28 339.395 432.953 344.752 419.994 345.051C317.381 347.418 246.06 359.203 156.748 400.875C145.241 406.247 132.111 407.004 120.063 402.989C108.014 398.975 97.9625 390.494 91.9772 379.293Z" fill="#F7EF87"/>
<path d="M99.3132 354.422C97.2015 355.498 95.3255 356.985 93.7945 358.794C92.2636 360.604 91.1084 362.7 90.3964 364.961C89.6845 367.221 89.43 369.601 89.6478 371.961C89.8656 374.322 90.5514 376.615 91.6652 378.707L91.9782 379.293C97.9635 390.494 108.015 398.974 120.063 402.989C132.112 407.004 145.241 406.247 156.748 400.875C191.643 384.594 223.787 372.891 256.123 364.516C234.7 351.328 223.5 328.1 231.73 301.656C189.4 313.238 146.887 330.078 99.3132 354.422Z" fill="#EFD176"/>
<path d="M206.715 112.316C31.438 151.391 0 248.867 0 283.621C0 319.828 28.176 355.199 91.3 362.672V362.699C201.734 374.234 265.823 291.929 312.613 285.512C354.558 279.977 399.105 277.973 450.5 277.621C452.861 277.603 455.203 278.055 457.388 278.949C459.573 279.844 461.559 281.163 463.23 282.832C488.63 265.578 512 234.98 512 207.059C512 132.984 395.8 70.16 206.715 112.316Z" fill="#8ED2E2"/>
<path d="M0 283.621C0 319.828 28.176 355.199 91.3 362.672V362.699C164.222 370.316 216.933 337.019 257.8 311.672C145.515 324.36 135.741 190.395 200.839 113.672C30.754 153.6 0 249.262 0 283.621Z" fill="#6FB6E1"/>
<path d="M76.1555 244.316C74.6731 244.315 73.2243 243.874 71.9922 243.05C70.76 242.226 69.7998 241.055 69.2326 239.685C68.6655 238.316 68.517 236.809 68.8059 235.355C69.0947 233.901 69.808 232.565 70.8555 231.516L84.3325 218.039C85.747 216.673 87.6415 215.917 89.608 215.934C91.5745 215.951 93.4556 216.74 94.8462 218.13C96.2367 219.521 97.0255 221.402 97.0426 223.368C97.0597 225.335 96.3037 227.229 94.9375 228.644L81.4605 242.121C80.7644 242.818 79.9374 243.371 79.027 243.748C78.1166 244.124 77.1408 244.317 76.1555 244.316Z" fill="#8ED2E2"/>
<path d="M79.5002 299.918C78.0178 299.917 76.5691 299.476 75.3369 298.652C74.1048 297.828 73.1445 296.657 72.5774 295.287C72.0103 293.918 71.8617 292.411 72.1506 290.957C72.4394 289.503 73.1527 288.167 74.2002 287.118L103.161 258.157C103.858 257.461 104.685 256.908 105.595 256.532C106.505 256.155 107.48 255.961 108.465 255.961C109.45 255.961 110.425 256.156 111.335 256.533C112.245 256.91 113.072 257.462 113.768 258.159C114.465 258.856 115.017 259.682 115.394 260.593C115.77 261.503 115.964 262.478 115.964 263.463C115.964 264.448 115.77 265.423 115.393 266.333C115.015 267.243 114.463 268.07 113.766 268.766L84.8002 297.723C84.1052 298.42 83.2791 298.973 82.3695 299.35C81.4599 299.727 80.4848 299.92 79.5002 299.918Z" fill="#8ED2E2"/>
</svg>
