<svg width="512" height="512" viewBox="0 0 512 512" fill="none" xmlns="http://www.w3.org/2000/svg">
<path d="M318.813 228.469V120.309C318.813 112.051 317.187 103.874 314.027 96.2444C310.867 88.615 306.235 81.6827 300.396 75.8434C294.556 70.0042 287.624 65.3722 279.995 62.2122C272.365 59.0521 264.188 57.4258 255.93 57.426H81.34C73.0822 57.4259 64.9053 59.0523 57.2762 62.2125C49.647 65.3727 42.7151 70.0047 36.8761 75.844C31.0372 81.6833 26.4056 88.6155 23.246 96.2449C20.0863 103.874 18.4603 112.051 18.461 120.309V412.1H493.539V352.176C493.539 323.665 482.213 296.322 462.053 276.162C441.893 256.002 414.55 244.676 386.039 244.676H335.016C330.718 244.675 326.597 242.967 323.558 239.928C320.52 236.889 318.813 232.767 318.813 228.469Z" fill="#E1B89A"/>
<path d="M126.527 57.426H81.34C73.0822 57.4259 64.9053 59.0523 57.2762 62.2125C49.647 65.3727 42.7151 70.0047 36.8761 75.844C31.0372 81.6833 26.4056 88.6155 23.246 96.2449C20.0863 103.874 18.4603 112.051 18.461 120.309V412.1H215C154.852 332.156 118 212.75 126.527 57.426Z" fill="#D2996F"/>
<path d="M284.211 244.676H225.511C216.335 244.676 207.534 241.031 201.045 234.542C194.556 228.053 190.911 219.253 190.911 210.076V95.9491C190.911 78.9877 197.649 62.721 209.642 50.7275C221.636 38.734 237.903 31.9961 254.864 31.9961C271.825 31.9961 288.092 38.734 300.086 50.7275C312.079 62.721 318.817 78.9877 318.817 95.9491V210.074C318.817 214.618 317.922 219.118 316.183 223.317C314.444 227.515 311.895 231.33 308.682 234.543C305.468 237.757 301.653 240.305 297.454 242.044C293.255 243.782 288.755 244.677 284.211 244.676Z" fill="#D2996F"/>
<path d="M318.8 219.52C317.107 219.52 315.464 218.945 314.14 217.891L186.242 116.2C185.444 115.597 184.775 114.84 184.274 113.974C183.773 113.109 183.45 112.151 183.325 111.159C183.199 110.167 183.273 109.159 183.543 108.196C183.812 107.233 184.272 106.333 184.894 105.55C185.517 104.767 186.29 104.117 187.167 103.637C188.045 103.157 189.01 102.858 190.005 102.756C191 102.655 192.005 102.753 192.962 103.046C193.918 103.339 194.806 103.821 195.574 104.462L323.48 206.148C324.699 207.117 325.587 208.441 326.019 209.938C326.452 211.434 326.408 213.028 325.893 214.498C325.379 215.968 324.419 217.241 323.148 218.141C321.877 219.041 320.357 219.523 318.8 219.52Z" fill="#FCF2D0"/>
<path d="M190.914 219.52C189.357 219.522 187.838 219.039 186.568 218.139C185.298 217.239 184.339 215.965 183.825 214.496C183.312 213.026 183.268 211.433 183.7 209.938C184.132 208.442 185.019 207.118 186.238 206.149L314.145 104.457C314.916 103.844 315.8 103.389 316.747 103.118C317.694 102.847 318.685 102.765 319.664 102.876C320.642 102.988 321.59 103.292 322.451 103.769C323.312 104.247 324.071 104.89 324.684 105.661C325.297 106.432 325.752 107.316 326.023 108.263C326.294 109.21 326.376 110.201 326.265 111.18C326.153 112.159 325.849 113.106 325.372 113.967C324.894 114.828 324.251 115.587 323.48 116.2L195.574 217.9C194.25 218.953 192.606 219.525 190.914 219.52Z" fill="#FCF2D0"/>
<path d="M291.641 334.816V412.093H493.541V352.172C493.541 323.661 482.215 296.318 462.055 276.158C441.895 255.998 414.552 244.672 386.041 244.672H381.783C357.876 244.673 334.948 254.17 318.043 271.075C301.138 287.981 291.641 310.909 291.641 334.816Z" fill="#D2996F"/>
<path d="M190.906 184.008H22.836C16.7795 184.008 10.9711 181.602 6.68851 177.32C2.40593 173.037 0 167.229 0 161.172C0 155.116 2.40593 149.307 6.68851 145.025C10.9711 140.742 16.7795 138.336 22.836 138.336H190.906V184.008Z" fill="#4E5660"/>
<path d="M209.754 110.328C209.754 114.055 208.648 117.699 206.577 120.798C204.506 123.896 201.563 126.312 198.119 127.738C194.676 129.164 190.886 129.537 187.231 128.81C183.575 128.083 180.217 126.288 177.582 123.652C174.946 121.017 173.151 117.659 172.424 114.003C171.697 110.348 172.07 106.558 173.496 103.115C174.922 99.6713 177.338 96.7279 180.436 94.6569C183.535 92.586 187.179 91.4804 190.906 91.48C193.381 91.4797 195.832 91.9671 198.119 92.9142C200.406 93.8613 202.484 95.2496 204.234 96.9998C205.984 98.7501 207.373 100.828 208.32 103.115C209.267 105.402 209.754 107.853 209.754 110.328Z" fill="#F7EF87"/>
<path d="M209.754 212.02C209.754 215.747 208.65 219.391 206.579 222.491C204.509 225.59 201.565 228.006 198.122 229.433C194.678 230.859 190.889 231.233 187.233 230.506C183.577 229.78 180.219 227.985 177.583 225.35C174.947 222.714 173.152 219.356 172.425 215.701C171.697 212.045 172.07 208.256 173.496 204.812C174.922 201.368 177.337 198.424 180.436 196.353C183.535 194.282 187.179 193.176 190.906 193.176C193.381 193.176 195.832 193.663 198.118 194.61C200.405 195.557 202.483 196.945 204.233 198.694C205.983 200.444 207.371 202.522 208.319 204.808C209.266 207.095 209.754 209.545 209.754 212.02Z" fill="#F7EF87"/>
<path d="M18.461 304.754V412.1H125.8C125.801 398.004 123.025 384.045 117.631 371.022C112.236 357.998 104.33 346.164 94.3627 336.196C84.3954 326.228 72.5623 318.321 59.539 312.926C46.5158 307.531 32.5574 304.755 18.461 304.754Z" fill="#E1B89A"/>
<path d="M117.492 227.629H58.2C56.2109 227.629 54.3032 226.839 52.8967 225.432C51.4902 224.026 50.7 222.118 50.7 220.129C50.7 218.14 51.4902 216.232 52.8967 214.826C54.3032 213.419 56.2109 212.629 58.2 212.629H117.489C119.478 212.629 121.386 213.419 122.792 214.826C124.199 216.232 124.989 218.14 124.989 220.129C124.989 222.118 124.199 224.026 122.792 225.432C121.386 226.839 119.478 227.629 117.489 227.629H117.492Z" fill="#FCF2D0"/>
<path d="M417.844 323.852C416.362 323.851 414.913 323.41 413.681 322.586C412.448 321.762 411.488 320.591 410.921 319.221C410.354 317.852 410.205 316.345 410.494 314.891C410.783 313.437 411.496 312.101 412.544 311.052L421.954 301.638C422.651 300.942 423.478 300.389 424.388 300.012C425.298 299.635 426.273 299.441 427.258 299.441C428.244 299.441 429.219 299.635 430.129 300.012C431.039 300.389 431.866 300.942 432.563 301.638C433.26 302.335 433.812 303.162 434.189 304.072C434.566 304.982 434.76 305.957 434.76 306.943C434.76 307.928 434.566 308.903 434.189 309.813C433.812 310.724 433.26 311.551 432.563 312.247L423.149 321.657C422.453 322.354 421.626 322.907 420.716 323.284C419.805 323.661 418.829 323.854 417.844 323.852Z" fill="#E1B89A"/>
<path d="M417.324 371.9C415.842 371.899 414.393 371.458 413.161 370.634C411.929 369.81 410.968 368.639 410.401 367.269C409.834 365.9 409.685 364.393 409.974 362.939C410.263 361.485 410.976 360.149 412.024 359.1L433.087 338.038C434.502 336.672 436.396 335.916 438.363 335.933C440.329 335.95 442.21 336.739 443.601 338.13C444.991 339.52 445.78 341.401 445.797 343.368C445.814 345.334 445.058 347.229 443.692 348.643L422.629 369.7C421.933 370.398 421.106 370.952 420.196 371.329C419.285 371.707 418.31 371.901 417.324 371.9Z" fill="#E1B89A"/>
<path d="M31.262 479.57H40.492C47.5716 479.57 54.5921 478.282 61.211 475.77L78.781 469.102C86.2368 466.273 94.193 465.001 102.159 465.364C110.125 465.726 117.933 467.716 125.101 471.211L128.001 472.625C135.975 476.514 144.73 478.535 153.601 478.535C162.472 478.535 171.227 476.514 179.201 472.625C187.175 468.737 195.93 466.716 204.801 466.716C213.672 466.716 222.427 468.737 230.401 472.625C238.375 476.514 247.13 478.535 256.001 478.535C264.872 478.535 273.627 476.514 281.601 472.625C289.575 468.737 298.33 466.717 307.201 466.717C316.072 466.717 324.827 468.737 332.801 472.625C340.775 476.514 349.53 478.535 358.401 478.535C367.272 478.535 376.027 476.514 384.001 472.625L386.896 471.211C394.064 467.716 401.872 465.726 409.838 465.364C417.804 465.001 425.76 466.273 433.216 469.102L450.786 475.77C457.406 478.282 464.428 479.57 471.509 479.57H480.736C484.841 479.571 488.907 478.762 492.7 477.191C496.493 475.621 499.94 473.318 502.843 470.415C505.746 467.512 508.049 464.066 509.62 460.273C511.191 456.48 512 452.415 512 448.309V426.867C512 424.927 511.618 423.007 510.876 421.215C510.134 419.423 509.046 417.794 507.675 416.423C506.303 415.051 504.675 413.963 502.883 413.221C501.09 412.479 499.17 412.097 497.23 412.097H14.77C10.8528 412.097 7.09594 413.653 4.32603 416.423C1.55612 419.193 1.59964e-08 422.95 1.59964e-08 426.867L1.59964e-08 448.308C-0.000131313 452.414 0.808394 456.479 2.37941 460.272C3.95043 464.065 6.25316 467.511 9.15613 470.414C12.0591 473.317 15.5055 475.62 19.2984 477.191C23.0913 478.762 27.1566 479.57 31.262 479.57Z" fill="#4E5660"/>
</svg>
