<svg width="512" height="512" viewBox="0 0 512 512" fill="none" xmlns="http://www.w3.org/2000/svg">
<path d="M177.555 309.138C164.2 328.216 131.655 375.486 68.8748 395.904C32.9448 407.587 -3.28523 378.86 0.237769 341.239C3.02677 311.446 12.6998 283.907 26.4998 266.431C28.9053 263.399 30.2145 259.643 30.2145 255.773C30.2145 251.903 28.9053 248.147 26.4998 245.115C12.6998 227.634 3.02677 200.101 0.237769 170.301C-3.28523 132.685 32.9448 103.954 68.8748 115.638C131.652 136.056 164.199 183.326 177.555 202.408V309.138Z" fill="#EDA1AB"/>
<path d="M124.207 226.466V263.731C124.207 315.887 123.007 358.786 99.5308 382.766C142.601 359.559 166.574 324.825 177.554 309.137V202.407C169.65 190.744 160.907 179.673 151.394 169.282C142.891 176.189 136.038 184.907 131.335 194.8C126.631 204.693 124.196 215.512 124.207 226.466Z" fill="#E68A97"/>
<path d="M155.089 245.95C153.884 245.95 152.696 245.657 151.628 245.098L75.4284 205.364C73.6884 204.431 72.3863 202.85 71.8046 200.963C71.2229 199.077 71.4086 197.037 72.3213 195.286C73.2339 193.536 74.8 192.216 76.6798 191.612C78.5596 191.009 80.6014 191.171 82.3624 192.064L158.565 231.801C160.055 232.577 161.242 233.831 161.934 235.361C162.627 236.892 162.785 238.611 162.385 240.242C161.984 241.874 161.047 243.324 159.724 244.359C158.401 245.394 156.768 245.956 155.088 245.953L155.089 245.95Z" fill="#E68A97"/>
<path d="M78.8995 320.329C77.2213 320.329 75.5914 319.767 74.2707 318.731C72.95 317.696 72.0148 316.247 71.6147 314.617C71.2146 312.987 71.3727 311.27 72.0638 309.741C72.7549 308.211 73.9389 306.958 75.4265 306.181L151.627 266.447C152.5 265.992 153.454 265.712 154.435 265.626C155.417 265.539 156.405 265.647 157.345 265.942C158.284 266.237 159.157 266.715 159.912 267.347C160.667 267.98 161.29 268.755 161.746 269.628C162.201 270.501 162.48 271.456 162.567 272.437C162.654 273.418 162.546 274.407 162.251 275.346C161.955 276.286 161.478 277.158 160.845 277.913C160.213 278.668 159.438 279.292 158.565 279.747L82.3585 319.481C81.2904 320.037 80.1039 320.328 78.8995 320.329Z" fill="#E68A97"/>
<path d="M334.445 309.138C347.8 328.216 380.345 375.486 443.125 395.904C479.055 407.588 515.285 378.861 511.762 341.24C508.973 311.447 499.293 283.908 485.5 266.431C483.096 263.398 481.788 259.643 481.788 255.773C481.788 251.903 483.096 248.147 485.5 245.115C499.293 227.635 508.973 200.099 511.762 170.303C515.285 132.686 479.055 103.955 443.125 115.639C380.348 136.057 347.801 183.327 334.445 202.409V309.138Z" fill="#EDA1AB"/>
<path d="M387.793 226.466V263.731C387.793 315.887 388.993 358.786 412.469 382.766C369.399 359.559 345.426 324.825 334.446 309.137V202.407C342.349 190.744 351.092 179.673 360.606 169.282C369.108 176.189 375.962 184.907 380.665 194.8C385.369 204.693 387.804 215.512 387.793 226.466Z" fill="#E68A97"/>
<path d="M356.906 245.95C355.226 245.952 353.594 245.39 352.272 244.354C350.95 243.318 350.013 241.869 349.613 240.237C349.213 238.606 349.372 236.888 350.064 235.357C350.757 233.827 351.943 232.574 353.433 231.798L429.64 192.064C430.514 191.595 431.473 191.305 432.461 191.209C433.448 191.113 434.445 191.215 435.393 191.507C436.341 191.799 437.222 192.277 437.984 192.912C438.746 193.547 439.375 194.327 439.834 195.207C440.292 196.087 440.572 197.049 440.656 198.037C440.74 199.026 440.628 200.021 440.324 200.966C440.021 201.911 439.534 202.786 438.89 203.541C438.246 204.296 437.459 204.915 436.574 205.364L360.367 245.101C359.299 245.66 358.111 245.951 356.906 245.95Z" fill="#E68A97"/>
<path d="M433.1 320.329C431.894 320.33 430.707 320.039 429.639 319.481L353.432 279.747C352.547 279.298 351.759 278.679 351.116 277.924C350.472 277.169 349.984 276.294 349.681 275.349C349.378 274.404 349.265 273.409 349.349 272.42C349.434 271.432 349.713 270.47 350.172 269.59C350.631 268.71 351.259 267.93 352.021 267.295C352.784 266.66 353.664 266.182 354.612 265.89C355.561 265.598 356.557 265.496 357.545 265.592C358.532 265.688 359.491 265.978 360.366 266.447L436.573 306.181C438.06 306.958 439.244 308.211 439.935 309.741C440.626 311.27 440.785 312.987 440.384 314.617C439.984 316.247 439.049 317.695 437.728 318.731C436.408 319.767 434.778 320.329 433.1 320.329Z" fill="#E68A97"/>
<path d="M331.246 174.841C282.395 158.611 229.605 158.611 180.754 174.841C169.91 178.443 160.475 185.369 153.789 194.636C147.103 203.902 143.504 215.039 143.504 226.466V285.079C143.505 296.506 147.104 307.642 153.79 316.908C160.476 326.175 169.91 333.101 180.754 336.704C229.605 352.934 282.395 352.934 331.246 336.704C342.09 333.102 351.525 326.176 358.211 316.909C364.897 307.643 368.496 296.506 368.496 285.079V226.466C368.497 215.039 364.898 203.902 358.212 194.635C351.526 185.368 342.091 178.443 331.246 174.841Z" fill="#EDA1AB"/>
<path d="M310.395 324.778C308.912 324.777 307.464 324.336 306.231 323.512C304.999 322.688 304.039 321.517 303.472 320.147C302.905 318.778 302.756 317.271 303.045 315.817C303.334 314.363 304.047 313.027 305.095 311.978L309.04 308.037C310.454 306.671 312.349 305.915 314.315 305.932C316.282 305.949 318.163 306.738 319.553 308.128C320.944 309.519 321.733 311.4 321.75 313.366C321.767 315.333 321.011 317.227 319.645 318.642L315.704 322.583C315.007 323.281 314.18 323.834 313.269 324.211C312.357 324.588 311.381 324.78 310.395 324.778Z" fill="#E68A97"/>
<path d="M278.129 329.349C276.646 329.348 275.197 328.907 273.965 328.083C272.733 327.259 271.773 326.088 271.206 324.718C270.639 323.349 270.49 321.842 270.779 320.388C271.068 318.934 271.781 317.598 272.829 316.549L281.029 308.349C281.725 307.652 282.552 307.1 283.462 306.723C284.372 306.345 285.347 306.151 286.332 306.151C287.317 306.151 288.292 306.345 289.202 306.721C290.112 307.098 290.939 307.651 291.636 308.347C292.332 309.043 292.885 309.87 293.262 310.78C293.639 311.69 293.833 312.665 293.833 313.65C293.834 314.635 293.64 315.61 293.263 316.52C292.886 317.43 292.334 318.257 291.638 318.954L283.438 327.154C282.741 327.851 281.913 328.404 281.002 328.781C280.091 329.158 279.115 329.351 278.129 329.349Z" fill="#E68A97"/>
</svg>
