<svg width="512" height="512" viewBox="0 0 512 512" fill="none" xmlns="http://www.w3.org/2000/svg">
<path d="M401.039 141.664H1.17304e-08V414.156C-0.000265213 425.478 4.49703 436.336 12.5026 444.342C20.5081 452.348 31.3661 456.847 42.688 456.847H142.575C152.63 456.847 162.362 453.298 170.056 446.825C177.751 440.352 182.913 431.371 184.634 421.464L201.454 324.636C218.274 333.487 236.995 338.113 256.001 338.113C275.007 338.113 293.728 333.487 310.548 324.636L327.368 421.464C329.089 431.371 334.251 440.352 341.946 446.825C349.64 453.298 359.372 456.847 369.427 456.847H469.314C480.636 456.846 491.493 452.348 499.498 444.342C507.503 436.336 512 425.478 512 414.156V141.664H401.039Z" fill="#4E5660"/>
<path d="M171.395 445.648C128.024 391.548 111.051 255.773 111.477 141.664H1.17304e-08V414.156C-0.000265213 425.478 4.49703 436.336 12.5026 444.342C20.5081 452.348 31.3661 456.847 42.688 456.847H142.575C153.245 456.853 163.529 452.857 171.395 445.648Z" fill="#424952"/>
<path d="M42.688 456.848H142.575C152.63 456.848 162.362 453.299 170.056 446.826C177.751 440.353 182.913 431.371 184.634 421.465L186.22 412.348H1.17304e-08V414.157C-0.000265213 425.479 4.49703 436.337 12.5026 444.343C20.5081 452.349 31.3661 456.847 42.688 456.848Z" fill="#646F7E"/>
<path d="M171.395 445.648C164.18 436.648 157.695 425.39 151.903 412.348H1.17304e-08V414.157C-0.000265213 425.479 4.49703 436.337 12.5026 444.343C20.5081 452.349 31.3661 456.847 42.688 456.848H142.575C153.245 456.854 163.529 452.857 171.395 445.648Z" fill="#4E5660"/>
<path d="M325.781 412.348L327.367 421.465C329.088 431.371 334.251 440.353 341.945 446.826C349.639 453.299 359.371 456.848 369.426 456.848H469.313C480.635 456.847 491.493 452.349 499.498 444.343C507.504 436.336 512.001 425.478 512 414.156V412.347L325.781 412.348Z" fill="#646F7E"/>
<path d="M301.715 328.824C304.727 327.547 307.672 326.151 310.551 324.637L313.051 339.055C334.133 304.969 346.035 264.379 348.434 218.348C349.661 192.696 348.121 166.986 343.84 141.664H328.582C336.2 185.941 341.035 263.242 301.715 328.824Z" fill="#646F7E"/>
<path d="M178.418 189.484C179.021 173.451 180.691 157.475 183.418 141.664H168.156C165.305 158.704 163.657 175.924 163.222 193.195C163.214 193.304 163.214 193.418 163.214 193.527C163.03 201.535 163.114 209.827 163.562 218.347C165.962 264.378 177.862 304.968 198.945 339.054L201.445 324.636C204.321 326.151 207.265 327.547 210.277 328.824C186.597 289.324 178.925 245.574 178.242 207.347C194.342 218.765 206.23 232.171 214.375 248.062C226.199 271.148 230.098 300.105 226.02 334.218C230.874 335.502 235.804 336.473 240.782 337.124C249.277 269.211 228.824 220.82 178.418 189.484Z" fill="#646F7E"/>
<path d="M477.906 56H34.094C25.0522 56.0016 16.3812 59.5941 9.98766 65.9877C3.59414 72.3812 0.00159079 81.0522 0 90.094L0 141.664H512V90.094C511.998 81.0522 508.406 72.3812 502.012 65.9877C495.619 59.5941 486.948 56.0016 477.906 56V56Z" fill="#8ED2E2"/>
<path d="M34.094 56C25.0522 56.0016 16.3812 59.5941 9.98766 65.9877C3.59414 72.3812 0.00159079 81.0522 0 90.094L0 141.664H111.477C111.594 110.848 112.977 81.621 115.45 56H34.094Z" fill="#6FB6E1"/>
<path d="M119.488 106.332H63.3594C61.3703 106.332 59.4626 105.542 58.0561 104.135C56.6495 102.729 55.8594 100.821 55.8594 98.832C55.8594 96.8429 56.6495 94.9353 58.0561 93.5287C59.4626 92.1222 61.3703 91.332 63.3594 91.332H119.488C121.477 91.332 123.385 92.1222 124.792 93.5287C126.198 94.9353 126.988 96.8429 126.988 98.832C126.988 100.821 126.198 102.729 124.792 104.135C123.385 105.542 121.477 106.332 119.488 106.332Z" fill="white"/>
<path d="M448.641 106.332H392.512C390.523 106.332 388.615 105.542 387.208 104.135C385.802 102.729 385.012 100.821 385.012 98.832C385.012 96.8429 385.802 94.9353 387.208 93.5287C388.615 92.1222 390.523 91.332 392.512 91.332H448.641C450.63 91.332 452.538 92.1222 453.944 93.5287C455.351 94.9353 456.141 96.8429 456.141 98.832C456.141 100.821 455.351 102.729 453.944 104.135C452.538 105.542 450.63 106.332 448.641 106.332Z" fill="white"/>
</svg>
