<svg width="512" height="512" viewBox="0 0 512 512" fill="none" xmlns="http://www.w3.org/2000/svg">
<path d="M432.943 298.367L490.787 240.523L385.314 135.055C367.903 117.645 344.288 107.864 319.666 107.864H192.33C180.138 107.864 168.066 110.265 156.802 114.93C145.538 119.596 135.303 126.434 126.682 135.055L21.209 240.523L79.053 298.367L153.873 223.551V304.52C153.874 313.572 152.048 322.53 148.506 330.86L125.906 383.993C124.692 386.848 124.1 389.929 124.168 393.03C124.237 396.132 124.965 399.184 126.304 401.982C127.643 404.781 129.562 407.262 131.935 409.262C134.307 411.261 137.077 412.733 140.062 413.579L172.228 422.7C226.993 438.231 284.998 438.231 339.763 422.7L371.927 413.579C374.912 412.733 377.683 411.262 380.055 409.262C382.427 407.263 384.347 404.781 385.686 401.983C387.025 399.184 387.753 396.132 387.821 393.031C387.89 389.929 387.297 386.848 386.083 383.993L363.483 330.86C359.943 322.53 358.117 313.571 358.116 304.52V223.551L432.943 298.367Z" fill="#EDA1AB"/>
<path d="M432.943 298.367L490.787 240.523L385.314 135.055C367.903 117.645 344.288 107.864 319.666 107.864H192.33C180.138 107.864 168.066 110.265 156.802 114.93C145.538 119.596 135.303 126.434 126.682 135.055L21.209 240.523L79.053 298.367L153.873 223.551V304.52C153.874 313.572 152.048 322.53 148.506 330.86L125.906 383.993C124.692 386.848 124.1 389.929 124.168 393.03C124.237 396.132 124.965 399.184 126.304 401.982C127.643 404.781 129.562 407.262 131.935 409.262C134.307 411.261 137.077 412.733 140.062 413.579L172.228 422.7C226.993 438.231 284.998 438.231 339.763 422.7L371.927 413.579C374.912 412.733 377.683 411.262 380.055 409.262C382.427 407.263 384.347 404.781 385.686 401.983C387.025 399.184 387.753 396.132 387.821 393.031C387.89 389.929 387.297 386.848 386.083 383.993L363.483 330.86C359.943 322.53 358.117 313.571 358.116 304.52V223.551L432.943 298.367Z" fill="#EDA1AB"/>
<path d="M360.49 130.016C360.487 125.496 359.968 120.992 358.943 116.59C346.646 110.845 333.239 107.866 319.666 107.863H192.33C180.138 107.863 168.066 110.264 156.802 114.929C145.538 119.595 135.303 126.433 126.682 135.054L21.209 240.523L79.053 298.367L153.873 223.551V304.52C153.874 313.572 152.048 322.53 148.506 330.86L125.906 383.993C124.692 386.848 124.1 389.929 124.168 393.03C124.237 396.132 124.965 399.184 126.304 401.982C127.643 404.781 129.562 407.262 131.935 409.262C134.307 411.261 137.077 412.733 140.062 413.579L172.228 422.7C199.668 430.482 228.058 434.401 256.58 434.345C218.748 393.531 202.975 298.7 205.592 208.3C212.671 217.685 222.231 224.907 233.194 229.15C244.157 233.393 256.088 234.489 267.64 232.315C279.193 230.14 289.909 224.782 298.579 216.844C307.25 208.905 313.53 198.703 316.713 187.386C329.315 183.989 340.44 176.522 348.358 166.146C356.275 155.77 360.541 143.068 360.49 130.016Z" fill="#E68A97"/>
<path d="M279.998 188.691H231.998V430.637C231.998 433.83 233.267 436.892 235.524 439.149C237.782 441.407 240.844 442.676 244.037 442.676H267.967C271.159 442.674 274.218 441.404 276.474 439.147C278.73 436.889 279.998 433.828 279.998 430.637V188.691Z" fill="#FCF2D0"/>
<path d="M231.998 188.691V228.668C247.377 234.98 264.623 234.986 280.006 228.684V188.691H231.998Z" fill="#F6E3A3"/>
<path d="M93.8498 275.023C90.8388 271.468 86.9591 268.752 82.5878 267.14C81.2839 266.671 80.1068 265.905 79.1495 264.903C78.1922 263.901 77.4809 262.691 77.0718 261.367C75.7354 256.906 73.3123 252.847 70.02 249.554C66.7276 246.261 62.6692 243.837 58.2088 242.5C56.8857 242.091 55.6758 241.38 54.6745 240.424C53.6731 239.467 52.9078 238.291 52.4388 236.988C50.8664 232.735 48.2505 228.946 44.8315 225.968C41.4124 222.99 37.2998 220.919 32.8716 219.946C28.4433 218.972 23.8414 219.127 19.4886 220.396C15.1358 221.665 11.1718 224.008 7.96065 227.209C4.74955 230.41 2.39436 234.367 1.11148 238.715C-0.171406 243.064 -0.340841 247.665 0.618737 252.097C1.57832 256.528 3.63614 260.647 6.60313 264.076C9.57012 267.504 13.3511 270.132 17.5988 271.718C18.9156 272.187 20.1057 272.954 21.0757 273.961C22.0457 274.967 22.769 276.185 23.1888 277.518C24.5258 281.978 26.9492 286.036 30.2414 289.328C33.5337 292.62 37.5919 295.044 42.0518 296.381C43.385 296.802 44.6025 297.526 45.6088 298.497C46.6151 299.467 47.3828 300.658 47.8518 301.975C49.4873 306.358 52.2313 310.243 55.8162 313.25C59.401 316.256 63.7041 318.282 68.3055 319.129C72.9069 319.976 77.6494 319.616 82.07 318.084C86.4906 316.551 90.4383 313.898 93.5278 310.385C97.7936 305.499 100.171 299.249 100.23 292.763C100.289 286.278 98.0259 279.985 93.8498 275.023Z" fill="#F6E3A3"/>
<path d="M418.146 275.023C421.157 271.468 425.037 268.752 429.408 267.14C430.712 266.67 431.889 265.904 432.846 264.903C433.803 263.901 434.514 262.69 434.924 261.367C436.261 256.907 438.683 252.848 441.975 249.555C445.266 246.263 449.324 243.838 453.783 242.5C455.107 242.092 456.318 241.381 457.319 240.424C458.321 239.468 459.087 238.291 459.556 236.988C461.129 232.735 463.744 228.946 467.164 225.968C470.583 222.99 474.695 220.919 479.123 219.946C483.552 218.972 488.154 219.127 492.506 220.396C496.859 221.665 500.823 224.008 504.034 227.209C507.245 230.41 509.601 234.367 510.884 238.715C512.166 243.064 512.336 247.665 511.376 252.097C510.417 256.528 508.359 260.647 505.392 264.076C502.425 267.504 498.644 270.132 494.396 271.718C493.079 272.187 491.889 272.954 490.919 273.961C489.949 274.967 489.226 276.185 488.806 277.518C487.469 281.978 485.046 286.036 481.754 289.328C478.461 292.62 474.403 295.044 469.943 296.381C468.61 296.802 467.393 297.526 466.386 298.497C465.38 299.467 464.612 300.658 464.143 301.975C462.764 305.674 460.591 309.027 457.778 311.798C454.965 314.569 451.58 316.691 447.86 318.015C444.14 319.338 440.176 319.832 436.245 319.461C432.314 319.09 428.512 317.863 425.105 315.866C421.699 313.869 418.771 311.152 416.526 307.903C414.281 304.655 412.775 300.954 412.112 297.062C411.45 293.169 411.647 289.179 412.69 285.371C413.733 281.563 415.597 278.029 418.151 275.018L418.146 275.023Z" fill="#FCF2D0"/>
<path d="M343.197 130.016C343.21 119.965 339.617 110.243 333.072 102.616C332.307 101.7 331.757 100.625 331.463 99.4691C331.169 98.313 331.138 97.1056 331.372 95.9359C332.202 91.4381 331.84 86.8013 330.321 82.487C328.803 78.1727 326.181 74.3313 322.716 71.3451C319.252 68.3588 315.066 66.332 310.575 65.4661C306.084 64.6003 301.444 64.9257 297.118 66.4099C295.559 66.9487 293.873 67.0028 292.283 66.5649C290.692 66.127 289.272 65.2178 288.208 63.9569C284.25 59.2709 279.318 55.5049 273.754 52.9216C268.191 50.3383 262.131 49 255.997 49C249.863 49 243.803 50.3383 238.24 52.9216C232.677 55.5049 227.744 59.2709 223.786 63.9569C222.722 65.2176 221.302 66.1266 219.711 66.5645C218.121 67.0023 216.435 66.9485 214.876 66.4099C210.549 64.9203 205.907 64.5908 201.413 65.4545C196.919 66.3182 192.73 68.3447 189.264 71.3322C185.797 74.3196 183.175 78.1635 181.657 82.4807C180.139 86.7979 179.78 91.4375 180.614 95.9369C180.848 97.1066 180.817 98.314 180.523 99.4701C180.229 100.626 179.679 101.701 178.914 102.617C174.052 108.3 170.789 115.174 169.46 122.534C168.131 129.894 168.784 137.475 171.352 144.499C173.92 151.524 178.311 157.739 184.073 162.506C189.836 167.274 196.763 170.422 204.144 171.629C205.825 171.894 207.381 172.677 208.597 173.868C209.812 175.059 210.626 176.599 210.925 178.274C212.787 188.875 218.326 198.481 226.568 205.402C234.811 212.324 245.23 216.118 255.994 216.118C266.757 216.118 277.176 212.324 285.419 205.402C293.662 198.481 299.201 188.875 301.062 178.274C301.361 176.599 302.174 175.058 303.39 173.867C304.605 172.676 306.162 171.893 307.843 171.629C317.714 170.012 326.688 164.939 333.164 157.317C339.64 149.694 343.196 140.018 343.197 130.016Z" fill="#FCF2D0"/>
<path d="M253.822 147.75C254.106 148.039 254.445 148.268 254.818 148.424C255.192 148.581 255.593 148.661 255.998 148.661C256.403 148.661 256.804 148.581 257.177 148.424C257.551 148.268 257.89 148.039 258.174 147.75C261.637 144.183 265.781 141.348 270.361 139.414C274.941 137.48 279.862 136.486 284.834 136.492C285.367 136.492 285.902 136.504 286.439 136.527C286.983 136.541 287.521 136.41 287.998 136.149C288.476 135.888 288.876 135.505 289.157 135.039C289.439 134.574 289.593 134.042 289.603 133.498C289.614 132.954 289.48 132.417 289.216 131.941C286.664 127.155 285.188 121.869 284.891 116.453C284.595 111.037 285.484 105.622 287.498 100.586C287.77 99.9164 287.799 99.1725 287.58 98.4838C287.361 97.795 286.907 97.2049 286.298 96.8159C280.264 92.9425 275.473 87.4136 272.498 80.8899C272.183 80.1948 271.624 79.6394 270.927 79.3297C270.23 79.0199 269.443 78.9773 268.717 79.2099C264.604 80.5205 260.314 81.1864 255.998 81.1839C251.684 81.1859 247.397 80.5204 243.287 79.2109C242.56 78.9762 241.773 79.0178 241.075 79.3279C240.377 79.6379 239.818 80.1944 239.506 80.8909C236.531 87.4151 231.74 92.9442 225.706 96.8169C225.097 97.206 224.643 97.7962 224.424 98.4849C224.205 99.1736 224.234 99.9173 224.506 100.587C226.519 105.624 227.407 111.039 227.11 116.455C226.812 121.871 225.335 127.156 222.783 131.942C222.519 132.418 222.385 132.955 222.395 133.499C222.405 134.043 222.559 134.575 222.841 135.04C223.123 135.506 223.523 135.889 224 136.15C224.478 136.411 225.016 136.542 225.56 136.528C226.093 136.505 226.628 136.493 227.165 136.493C232.136 136.488 237.057 137.482 241.636 139.415C246.215 141.349 250.359 144.183 253.822 147.75Z" fill="#4E5660"/>
<path d="M204.514 359.234H168.225C166.235 359.234 164.328 358.444 162.921 357.037C161.515 355.631 160.725 353.723 160.725 351.734C160.725 349.745 161.515 347.837 162.921 346.431C164.328 345.024 166.235 344.234 168.225 344.234H204.514C206.503 344.234 208.41 345.024 209.817 346.431C211.223 347.837 212.014 349.745 212.014 351.734C212.014 353.723 211.223 355.631 209.817 357.037C208.41 358.444 206.503 359.234 204.514 359.234Z" fill="#FCF2D0"/>
<path d="M343.771 359.234H307.482C305.493 359.234 303.586 358.444 302.179 357.037C300.773 355.631 299.982 353.723 299.982 351.734C299.982 349.745 300.773 347.837 302.179 346.431C303.586 345.024 305.493 344.234 307.482 344.234H343.771C345.761 344.234 347.668 345.024 349.075 346.431C350.481 347.837 351.271 349.745 351.271 351.734C351.271 353.723 350.481 355.631 349.075 357.037C347.668 358.444 345.761 359.234 343.771 359.234Z" fill="#FCF2D0"/>
<path d="M263.598 255.43C263.598 256.933 263.153 258.402 262.318 259.652C261.483 260.902 260.296 261.876 258.907 262.451C257.518 263.027 255.99 263.177 254.516 262.884C253.042 262.591 251.687 261.867 250.624 260.804C249.562 259.741 248.838 258.387 248.544 256.913C248.251 255.438 248.402 253.91 248.977 252.521C249.552 251.133 250.526 249.946 251.776 249.111C253.026 248.276 254.495 247.83 255.998 247.83C258.014 247.83 259.947 248.631 261.372 250.056C262.798 251.481 263.598 253.414 263.598 255.43Z" fill="#4E5660"/>
<path d="M263.598 327.629C263.598 329.132 263.153 330.601 262.318 331.851C261.483 333.101 260.296 334.075 258.907 334.65C257.518 335.226 255.99 335.376 254.516 335.083C253.042 334.79 251.687 334.066 250.624 333.003C249.562 331.94 248.838 330.586 248.544 329.112C248.251 327.637 248.402 326.109 248.977 324.72C249.552 323.332 250.526 322.145 251.776 321.31C253.026 320.475 254.495 320.029 255.998 320.029C258.014 320.029 259.947 320.83 261.372 322.255C262.798 323.68 263.598 325.613 263.598 327.629Z" fill="#4E5660"/>
<path d="M263.598 399.828C263.6 401.331 263.155 402.801 262.321 404.052C261.486 405.302 260.3 406.277 258.911 406.854C257.522 407.43 255.994 407.581 254.519 407.289C253.045 406.996 251.69 406.273 250.627 405.21C249.563 404.147 248.839 402.793 248.545 401.319C248.251 399.844 248.401 398.316 248.976 396.927C249.551 395.538 250.526 394.351 251.775 393.515C253.025 392.68 254.495 392.234 255.998 392.234C258.013 392.234 259.945 393.034 261.37 394.458C262.795 395.882 263.597 397.813 263.598 399.828Z" fill="#4E5660"/>
</svg>
