<svg width="512" height="512" viewBox="0 0 512 512" fill="none" xmlns="http://www.w3.org/2000/svg">
<path d="M17.23 124.855V419.719H185.914L256 237.055L326.086 419.719H494.77V124.855C494.769 111.898 489.622 99.4718 480.459 90.3098C471.297 81.1479 458.871 76.0005 445.914 76H66.086C53.1289 76.0005 40.7026 81.1479 31.5405 90.3098C22.3784 99.4718 17.2308 111.898 17.23 124.855Z" fill="#8ED2E2"/>
<path d="M66.086 76C53.1289 76.0005 40.7026 81.1479 31.5405 90.3098C22.3784 99.4718 17.2308 111.898 17.23 124.855V412.055L31.63 419.723H185.914L217.766 336.715C189.762 272.387 170.914 148.02 174.836 76H66.086Z" fill="#6FB6E1"/>
<path d="M494.77 143.891H17.23V124.855C17.2308 111.898 22.3784 99.4718 31.5405 90.3098C40.7026 81.1479 53.1289 76.0005 66.086 76H445.914C458.871 76.0005 471.297 81.1479 480.459 90.3098C489.622 99.4718 494.769 111.898 494.77 124.855V143.891Z" fill="#FCF2D0"/>
<path d="M174.84 76H66.086C53.1289 76.0005 40.7026 81.1479 31.5405 90.3098C22.3784 99.4718 17.2308 111.898 17.23 124.855V143.891H176.4C174.387 118.9 173.773 95.527 174.84 76Z" fill="#F6E3A3"/>
<path d="M9.4195e-08 387.746V414.146C-0.000131239 416.935 0.549013 419.696 1.61607 422.272C2.68314 424.848 4.24722 427.189 6.219 429.161C8.19079 431.133 10.5317 432.697 13.1079 433.764C15.6842 434.831 18.4455 435.38 21.234 435.38H185.219C189.514 435.38 193.707 434.078 197.247 431.646C200.786 429.213 203.504 425.765 205.043 421.755L215.176 395.349C216.409 392.133 216.842 388.665 216.436 385.245C216.031 381.825 214.8 378.554 212.848 375.716C210.897 372.877 208.285 370.556 205.237 368.952C202.189 367.348 198.796 366.51 195.352 366.509H21.234C18.4453 366.509 15.6839 367.059 13.1076 368.126C10.5312 369.193 8.1903 370.758 6.21853 372.73C4.24675 374.702 2.68273 377.043 1.61575 379.619C0.54877 382.196 -0.000262561 384.957 9.4195e-08 387.746Z" fill="#FCF2D0"/>
<path d="M120.551 366.512H21.234C15.6025 366.512 10.2017 368.749 6.21959 372.732C2.2375 376.714 0.000265194 382.114 0 387.746L0 414.146C0.000265194 419.777 2.2375 425.178 6.21959 429.16C10.2017 433.142 15.6025 435.38 21.234 435.38H131.352C117.684 419.809 113.094 387.609 120.551 366.512Z" fill="#F6E3A3"/>
<path d="M512 387.746V414.146C512 416.935 511.451 419.696 510.384 422.272C509.317 424.848 507.753 427.189 505.781 429.161C503.809 431.133 501.468 432.697 498.892 433.764C496.316 434.831 493.555 435.38 490.766 435.38H326.781C322.486 435.38 318.293 434.078 314.753 431.646C311.214 429.213 308.496 425.765 306.957 421.755L296.824 395.349C295.591 392.133 295.158 388.665 295.564 385.245C295.969 381.825 297.201 378.554 299.152 375.716C301.103 372.877 303.715 370.556 306.763 368.952C309.811 367.348 313.204 366.51 316.648 366.509H490.77C496.401 366.51 501.802 368.748 505.783 372.731C509.764 376.714 512.001 382.115 512 387.746Z" fill="#FCF2D0"/>
<path d="M257.41 218.414C254.917 218.414 252.526 217.424 250.763 215.661C249 213.898 248.01 211.507 248.01 209.014V143.891H317.596V158.234C317.596 166.138 316.039 173.964 313.014 181.265C309.989 188.567 305.556 195.201 299.967 200.79C294.378 206.378 287.743 210.811 280.441 213.835C273.139 216.859 265.313 218.415 257.41 218.414Z" fill="#6FB6E1"/>
<path d="M136.32 164.184H114.2C111.195 164.184 108.313 162.99 106.188 160.865C104.062 158.74 102.868 155.857 102.868 152.852V76H147.657V152.852C147.657 154.341 147.364 155.814 146.794 157.19C146.224 158.565 145.389 159.814 144.336 160.866C143.283 161.919 142.033 162.753 140.658 163.323C139.283 163.892 137.809 164.185 136.32 164.184Z" fill="#8ED2E2"/>
<path d="M375.68 164.184H397.8C400.805 164.184 403.688 162.99 405.813 160.865C407.938 158.74 409.132 155.857 409.132 152.852V76H364.348V152.852C364.348 155.857 365.542 158.74 367.668 160.865C369.793 162.99 372.675 164.184 375.68 164.184Z" fill="#6FB6E1"/>
<path d="M407.742 366.512H316.648C313.203 366.512 309.811 367.35 306.762 368.954C303.714 370.558 301.102 372.879 299.15 375.718C297.199 378.556 295.968 381.827 295.563 385.248C295.157 388.668 295.59 392.136 296.824 395.352L306.953 421.758C308.493 425.767 311.211 429.215 314.75 431.647C318.289 434.08 322.483 435.382 326.777 435.383H418.677C404.953 419.875 400.316 387.66 407.742 366.512Z" fill="#F6E3A3"/>
<path d="M456.859 410.395C455.874 410.395 454.899 410.201 453.99 409.823C453.08 409.446 452.254 408.892 451.559 408.195L447.426 404.062C446.019 402.656 445.228 400.748 445.228 398.759C445.228 396.77 446.018 394.862 447.424 393.455C448.83 392.048 450.738 391.258 452.727 391.257C454.716 391.257 456.624 392.047 458.031 393.453L462.164 397.59C463.211 398.639 463.925 399.975 464.213 401.429C464.502 402.883 464.354 404.39 463.787 405.759C463.22 407.129 462.259 408.3 461.027 409.124C459.795 409.948 458.346 410.389 456.864 410.39L456.859 410.395Z" fill="#F6E3A3"/>
<path d="M360.1 415.4C358.617 415.399 357.169 414.958 355.937 414.134C354.704 413.31 353.744 412.139 353.177 410.769C352.61 409.4 352.461 407.893 352.75 406.439C353.039 404.985 353.752 403.649 354.8 402.6L360.109 397.3C360.801 396.584 361.628 396.012 362.543 395.619C363.458 395.226 364.442 395.019 365.438 395.011C366.434 395.002 367.422 395.192 368.344 395.569C369.265 395.946 370.103 396.503 370.807 397.207C371.511 397.911 372.068 398.749 372.445 399.67C372.822 400.592 373.012 401.58 373.003 402.575C372.995 403.571 372.788 404.555 372.395 405.47C372.002 406.385 371.43 407.213 370.714 407.905L365.414 413.205C364.717 413.903 363.888 414.456 362.976 414.833C362.064 415.21 361.087 415.402 360.1 415.4Z" fill="#FCF2D0"/>
<path d="M17.23 233.617C33.175 233.617 60.222 223.117 64.921 194.926C65.2484 192.963 66.342 191.211 67.9613 190.055C69.5806 188.899 71.5929 188.433 73.5555 188.761C75.5181 189.088 77.2702 190.182 78.4265 191.801C79.5827 193.42 80.0484 195.432 79.721 197.395C78.4453 205.541 75.4511 213.322 70.9374 220.222C66.4236 227.122 60.4935 232.983 53.541 237.415C42.803 244.431 29.229 248.615 17.232 248.615L17.23 233.617Z" fill="#8ED2E2"/>
<path d="M494.77 248.617C482.77 248.617 469.2 244.43 458.461 237.417C451.508 232.985 445.577 227.124 441.063 220.223C436.549 213.323 433.556 205.541 432.281 197.394C431.954 195.431 432.42 193.419 433.577 191.8C434.734 190.181 436.486 189.088 438.449 188.761C440.411 188.435 442.423 188.901 444.042 190.057C445.661 191.214 446.754 192.966 447.081 194.929C451.781 223.117 478.827 233.62 494.772 233.62L494.77 248.617Z" fill="#6FB6E1"/>
<path d="M59.9182 406.387C58.4358 406.386 56.987 405.945 55.7549 405.121C54.5227 404.297 53.5625 403.126 52.9953 401.756C52.4282 400.387 52.2797 398.88 52.5686 397.426C52.8574 395.972 53.5706 394.636 54.6182 393.587L58.7512 389.45C60.1575 388.043 62.0651 387.253 64.0543 387.252C66.0435 387.252 67.9514 388.042 69.3582 389.448C70.7651 390.854 71.5556 392.762 71.556 394.751C71.5564 396.74 70.7665 398.648 69.3602 400.055L65.2272 404.188C64.531 404.887 63.7036 405.44 62.7924 405.818C61.8812 406.195 60.9044 406.389 59.9182 406.387Z" fill="#FCF2D0"/>
<path d="M150.848 417.508C149.863 417.509 148.888 417.315 147.978 416.937C147.069 416.56 146.243 416.006 145.548 415.308L140.248 409.999C138.937 408.575 138.227 406.7 138.267 404.765C138.307 402.83 139.093 400.985 140.462 399.617C141.83 398.248 143.674 397.461 145.609 397.421C147.544 397.38 149.42 398.09 150.844 399.4L156.144 404.709C157.192 405.758 157.905 407.094 158.194 408.548C158.482 410.002 158.334 411.509 157.767 412.878C157.2 414.248 156.239 415.419 155.007 416.243C153.775 417.067 152.326 417.508 150.844 417.509L150.848 417.508Z" fill="#F6E3A3"/>
</svg>
