<svg width="512" height="512" viewBox="0 0 512 512" fill="none" xmlns="http://www.w3.org/2000/svg">
<path d="M140.69 3.80003C130.253 2.80003 108.44 3.70603 93.178 8.09303C91.7209 8.51453 90.3813 9.2678 89.2641 10.2938C88.1469 11.3198 87.2825 12.5906 86.7388 14.0066C86.195 15.4226 85.9867 16.9453 86.13 18.4553C86.2733 19.9653 86.7645 21.4216 87.565 22.71C99.635 42.289 109.959 62.574 137.102 51.383L140.69 3.80003Z" fill="#6FCE91"/>
<path d="M383.217 3.80003C393.658 2.80003 415.467 3.70603 430.729 8.09303C432.186 8.51453 433.526 9.2678 434.643 10.2938C435.76 11.3198 436.624 12.5906 437.168 14.0066C437.712 15.4226 437.92 16.9453 437.777 18.4553C437.634 19.9653 437.142 21.4216 436.342 22.71C424.272 42.289 413.947 62.574 386.802 51.383L383.217 3.80003Z" fill="#99DA90"/>
<path d="M319.647 158.031L350.693 48.168H330.654C319.482 70.359 274.224 76.481 261.954 76.481C249.684 76.481 204.423 70.36 193.254 48.169H173.217L204.26 158.032L319.647 158.031Z" fill="#4E5660"/>
<path d="M114.873 470.8C138.701 464.6 178.99 483.636 190.607 496.265L211.615 312.058L163.244 309.374L114.873 470.8Z" fill="#4E5660"/>
<path d="M409.037 470.8C385.205 464.6 344.92 483.636 333.299 496.265L312.299 312.058L360.67 309.374L409.037 470.8Z" fill="#4E5660"/>
<path d="M371.861 201.484C371.861 142.66 407.466 91.574 407.466 55.25C407.467 22.438 397.315 -3.7834e-05 376.502 -3.7834e-05C355.689 -3.7834e-05 344.342 -1.11304 335.69 33.281C326.6 69.418 288.319 118.254 267.772 131.211C266.031 132.312 264.013 132.896 261.953 132.896C259.894 132.896 257.876 132.312 256.135 131.211C235.592 118.254 197.307 69.418 188.217 33.281C179.565 -1.11304 168.209 -3.7834e-05 147.402 -3.7834e-05C126.595 -3.7834e-05 116.443 22.438 116.443 55.25C116.443 91.574 152.043 142.656 152.043 201.484C152.045 259.02 54.302 345.137 50.014 441.07C49.9271 443.144 50.3123 445.211 51.1405 447.114C51.9687 449.017 53.2183 450.708 54.795 452.058C68.049 463.476 86.424 473.726 107.717 482.382C109.134 482.956 110.655 483.228 112.183 483.18C113.711 483.133 115.212 482.767 116.591 482.106C117.97 481.446 119.195 480.504 120.189 479.343C121.184 478.182 121.925 476.826 122.365 475.362C131.826 443.878 153.002 383.186 187.822 333.522C188.398 332.703 189.237 332.106 190.199 331.829C191.161 331.552 192.189 331.612 193.113 332C194.036 332.387 194.799 333.079 195.275 333.959C195.752 334.84 195.913 335.857 195.732 336.842C186.099 390.127 182.744 456.397 182.912 492.662C182.921 495.895 184.073 499.021 186.165 501.487C188.257 503.953 191.153 505.599 194.342 506.135C216.683 509.92 239.296 511.881 261.955 512C284.613 511.882 307.224 509.921 329.564 506.137C332.753 505.601 335.649 503.955 337.741 501.489C339.833 499.023 340.985 495.897 340.994 492.664C341.162 456.398 337.807 390.129 328.174 336.844C327.993 335.859 328.154 334.842 328.631 333.961C329.107 333.081 329.87 332.389 330.793 332.002C331.717 331.614 332.745 331.554 333.707 331.831C334.669 332.108 335.508 332.705 336.084 333.524C370.908 383.188 392.084 443.879 401.545 475.364C401.985 476.828 402.726 478.184 403.721 479.345C404.715 480.506 405.94 481.448 407.319 482.108C408.698 482.769 410.199 483.135 411.727 483.182C413.255 483.23 414.776 482.958 416.193 482.384C437.482 473.728 455.857 463.478 469.115 452.06C470.69 450.709 471.939 449.018 472.766 447.115C473.594 445.212 473.979 443.146 473.892 441.072C469.607 345.137 371.861 259.02 371.861 201.484Z" fill="#F7EF87"/>
<path d="M237.291 114.621C217.619 93.652 194.94 60 188.217 33.281C179.565 -1.11304 168.209 -3.7834e-05 147.402 -3.7834e-05C126.595 -3.7834e-05 116.443 22.438 116.443 55.25C116.443 91.574 152.043 142.656 152.043 201.484C152.045 259.02 54.302 345.137 50.014 441.07C49.9275 443.144 50.3128 445.212 51.141 447.116C51.9691 449.02 53.2185 450.711 54.795 452.062C68.049 463.48 86.424 473.726 107.717 482.382C109.134 482.956 110.655 483.228 112.183 483.18C113.711 483.133 115.212 482.767 116.591 482.106C117.97 481.446 119.195 480.504 120.189 479.343C121.184 478.182 121.925 476.826 122.365 475.362C131.826 443.882 153.002 383.186 187.822 333.526C188.398 332.707 189.236 332.109 190.198 331.831C191.16 331.554 192.188 331.614 193.111 332.001C194.035 332.388 194.798 333.079 195.275 333.96C195.751 334.84 195.913 335.857 195.732 336.842C186.102 390.129 182.744 456.4 182.912 492.668C182.922 495.901 184.075 499.026 186.167 501.492C188.258 503.957 191.154 505.604 194.342 506.141C216.684 509.922 239.296 511.881 261.955 512C278.074 511.944 294.175 510.914 310.17 508.918C249.24 429.668 225.213 249.438 237.291 114.621Z" fill="#EFD176"/>
<path d="M375.17 221.52C336.643 226.426 286.299 228.489 261.955 228.489C237.611 228.489 187.264 226.427 148.736 221.52C144.256 236.344 135.615 252.61 125.228 270.075C163.607 277.661 232.197 280.739 261.955 280.739C291.713 280.739 360.303 277.657 398.682 270.075C388.291 252.609 379.65 236.344 375.17 221.52Z" fill="#99DA90"/>
<path d="M235.279 227.953C209.525 227.058 176.146 225.008 148.736 221.519C144.256 236.343 135.615 252.609 125.228 270.074C155.712 276.097 205.24 279.274 239.248 280.332C237.42 262.938 236.102 245.4 235.279 227.953Z" fill="#6FCE91"/>
</svg>
