<svg width="513" height="512" viewBox="0 0 513 512" fill="none" xmlns="http://www.w3.org/2000/svg">
<path d="M351.84 117.487L311.356 130.287C275.981 141.471 238.017 141.471 202.641 130.287L162.157 117.487C155.048 115.24 147.545 114.518 140.138 115.368C132.731 116.219 125.586 118.622 119.171 122.422C112.757 126.222 107.216 131.333 102.911 137.42C98.6056 143.507 95.6334 150.435 94.1882 157.749L61.6172 322.737H452.383L419.809 157.749C418.365 150.434 415.394 143.506 411.089 137.418C406.784 131.33 401.243 126.219 394.828 122.419C388.413 118.619 381.268 116.215 373.86 115.365C366.453 114.516 358.949 115.238 351.84 117.487Z" fill="#E1B89A"/>
<path d="M185.758 124.948L162.158 117.487C155.049 115.238 147.546 114.515 140.138 115.365C132.731 116.215 125.586 118.618 119.171 122.418C112.756 126.219 107.215 131.33 102.91 137.418C98.606 143.506 95.6348 150.434 94.1912 157.749L61.6172 322.737H188.617C167.848 257.288 169.457 176.308 185.758 124.948Z" fill="#D2996F"/>
<path d="M436.035 239.94C386.935 250.628 313.859 258.37 257 258.37C200.141 258.37 127.063 250.628 77.9612 239.94L61.6172 322.74H452.383L436.035 239.94Z" fill="#F7EF87"/>
<path d="M77.9612 239.94L61.6172 322.74H188.617C181.712 300.431 177.169 277.457 175.063 254.199C139.891 250.899 105.227 245.874 77.9612 239.94Z" fill="#EFD176"/>
<path d="M378.906 312.847L314.445 318.488C311.197 318.771 307.97 317.753 305.472 315.657C302.974 313.561 301.411 310.56 301.125 307.312L297.262 263.148C296.979 259.9 297.998 256.672 300.093 254.175C302.189 251.677 305.19 250.114 308.438 249.828L372.899 244.191C374.507 244.05 376.128 244.227 377.667 244.713C379.207 245.198 380.636 245.982 381.873 247.02C383.109 248.058 384.129 249.329 384.874 250.762C385.619 252.194 386.075 253.759 386.215 255.367L390.082 299.531C390.364 302.778 389.345 306.005 387.25 308.502C385.154 310.998 382.153 312.561 378.906 312.847Z" fill="#4E5660"/>
<path d="M257 398.788C182.641 398.788 85.8361 387.022 31.8241 371.421C20.9564 368.281 11.7811 360.953 6.31658 351.049C0.852049 341.144 -0.454064 329.474 2.68557 318.607C5.8252 307.739 13.1534 298.564 23.058 293.099C32.9627 287.635 44.6324 286.328 55.5001 289.468C102.121 302.933 190.629 313.484 257 313.484C323.371 313.484 411.879 302.933 458.5 289.468C469.368 286.328 481.037 287.635 490.942 293.099C500.847 298.564 508.175 307.739 511.315 318.607C514.454 329.474 513.148 341.144 507.684 351.049C502.219 360.953 493.044 368.281 482.176 371.421C428.164 387.022 331.359 398.788 257 398.788Z" fill="#E1B89A"/>
<path d="M241.531 313.299C177.431 311.862 98.586 301.916 55.5 289.467C44.6319 286.327 32.9616 287.634 23.0566 293.099C13.1516 298.563 5.82317 307.739 2.68354 318.607C-0.456096 329.476 0.850228 341.146 6.31513 351.051C11.78 360.956 20.9559 368.284 31.824 371.424C84.679 386.694 178.508 398.279 252.191 398.768C223.828 379.272 224.859 334.382 241.531 313.299Z" fill="#D2996F"/>
<path d="M326.477 290.343C324.542 290.345 322.681 289.6 321.283 288.262C319.885 286.925 319.058 285.099 318.975 283.166C318.891 281.233 319.558 279.342 320.836 277.89C322.114 276.437 323.904 275.534 325.832 275.37L360.207 272.362C361.198 272.257 362.2 272.351 363.154 272.638C364.109 272.925 364.996 273.399 365.765 274.033C366.534 274.667 367.169 275.448 367.633 276.33C368.097 277.212 368.38 278.178 368.467 279.17C368.553 280.163 368.441 281.163 368.136 282.112C367.832 283.061 367.341 283.94 366.693 284.697C366.045 285.454 365.253 286.075 364.362 286.522C363.472 286.969 362.501 287.235 361.507 287.303L327.136 290.311C326.918 290.331 326.7 290.343 326.477 290.343Z" fill="#F7EF87"/>
<path d="M369.52 369.534C368.037 369.533 366.589 369.092 365.356 368.268C364.124 367.444 363.164 366.273 362.597 364.903C362.03 363.534 361.881 362.027 362.17 360.573C362.459 359.119 363.172 357.783 364.22 356.734L372.693 348.261C374.107 346.895 376.002 346.139 377.968 346.156C379.935 346.173 381.816 346.962 383.206 348.352C384.597 349.743 385.386 351.624 385.403 353.591C385.42 355.557 384.664 357.452 383.298 358.866L374.829 367.339C374.132 368.037 373.304 368.59 372.393 368.966C371.482 369.343 370.506 369.536 369.52 369.534Z" fill="#D2996F"/>
<path d="M407.543 358.327C406.061 358.326 404.612 357.885 403.38 357.061C402.148 356.237 401.187 355.066 400.62 353.696C400.053 352.327 399.905 350.82 400.194 349.366C400.482 347.912 401.196 346.576 402.243 345.527L412.958 334.808C414.365 333.401 416.272 332.611 418.261 332.61C420.25 332.61 422.158 333.4 423.565 334.806C424.972 336.212 425.763 338.12 425.763 340.109C425.763 342.098 424.974 344.006 423.567 345.413L412.848 356.132C412.152 356.83 411.325 357.383 410.415 357.759C409.504 358.136 408.529 358.329 407.543 358.327Z" fill="#D2996F"/>
<path d="M109.727 223.882C108.244 223.881 106.796 223.44 105.563 222.616C104.331 221.792 103.371 220.621 102.804 219.251C102.237 217.882 102.088 216.375 102.377 214.921C102.666 213.467 103.379 212.131 104.427 211.082L114.411 201.098C115.831 199.767 117.714 199.04 119.661 199.072C121.608 199.103 123.466 199.891 124.842 201.267C126.219 202.644 127.006 204.502 127.038 206.449C127.07 208.396 126.343 210.278 125.012 211.699L115.032 221.683C114.336 222.381 113.509 222.934 112.599 223.312C111.688 223.689 110.712 223.883 109.727 223.882Z" fill="#E1B89A"/>
</svg>
