<svg width="512" height="512" viewBox="0 0 512 512" fill="none" xmlns="http://www.w3.org/2000/svg">
<path d="M446.469 412.086H430.387C425.896 412.086 421.588 410.302 418.412 407.126C415.236 403.95 413.451 399.643 413.45 395.152V359.426C413.451 340.656 408.79 322.18 399.888 305.656L369.66 249.574H507.2L476.973 305.656C468.07 322.18 463.408 340.656 463.407 359.426V395.153C463.407 397.377 462.969 399.579 462.117 401.634C461.266 403.689 460.018 405.555 458.446 407.128C456.873 408.7 455.005 409.947 452.951 410.798C450.896 411.649 448.693 412.086 446.469 412.086Z" fill="#F7EF87"/>
<path d="M446.469 412.086H430.387C425.896 412.086 421.588 410.302 418.412 407.126C415.236 403.95 413.451 399.643 413.45 395.152V370.734H463.4V395.152C463.4 399.643 461.616 403.949 458.441 407.125C455.266 410.301 450.96 412.085 446.469 412.086Z" fill="#4E5660"/>
<path d="M481.586 297.094L507.195 249.574H369.66L396.086 298.605C398.109 298.256 400.158 298.08 402.211 298.078H470.426C474.168 298.074 477.902 297.745 481.586 297.094Z" fill="#EFD176"/>
<path d="M272.773 152.016L159.2 289.938C154.51 295.631 148.167 299.725 141.048 301.653L43 328.2C30.6555 331.542 19.755 338.856 11.9829 349.013C4.21081 359.169 -0.000383455 371.602 6.50161e-07 384.391C-0.000787585 388.029 0.715156 391.631 2.10693 394.992C3.49871 398.353 5.53905 401.407 8.11139 403.98C10.6837 406.552 13.7377 408.592 17.0987 409.984C20.4598 411.376 24.0622 412.092 27.7 412.091H210.641C226.445 412.092 242.054 408.601 256.352 401.869C270.65 395.136 283.285 385.328 293.352 373.146L356.786 296.396C362.314 289.704 369.253 284.316 377.105 280.617C384.958 276.919 393.531 275.001 402.211 275H470.426C481.451 275 492.025 270.62 499.822 262.825C507.618 255.029 511.999 244.455 512 233.43V211.918C512 190.168 508.531 168.557 501.723 147.9L493.262 122.216C491.132 115.752 487.017 110.126 481.503 106.137C475.988 102.148 469.357 100.001 462.551 100H382.992C361.92 99.9996 341.11 104.663 322.053 113.657C302.997 122.65 286.168 135.75 272.773 152.016Z" fill="#EDA1AB"/>
<path d="M293.566 131.488C285.951 137.6 278.984 144.477 272.773 152.011L159.2 289.938C154.51 295.63 148.167 299.724 141.048 301.653L43 328.2C30.6555 331.542 19.755 338.856 11.9829 349.013C4.21081 359.169 -0.000383455 371.602 6.50161e-07 384.391C-0.000787585 388.029 0.715156 391.631 2.10693 394.992C3.49871 398.353 5.53905 401.407 8.11139 403.98C10.6837 406.552 13.7377 408.592 17.0987 409.984C20.4598 411.376 24.0622 412.092 27.7 412.091H210.637C226.441 412.092 242.051 408.601 256.35 401.869C270.649 395.137 283.284 385.329 293.352 373.146L302.786 361.732C272.246 313.5 244.137 227.676 293.566 131.488Z" fill="#E68A97"/>
<path d="M341.535 106.164C314.594 114.333 290.67 130.286 272.773 152.016L159.2 289.938C154.51 295.63 148.166 299.724 141.048 301.653L138.673 302.298C159.196 318.962 191.751 327.498 217.025 290.611C247.813 245.672 303.918 123.9 341.535 106.164Z" fill="#4E5660"/>
<path d="M1.629 370.734C0.549392 375.206 0.00259305 379.79 6.50161e-07 384.391C-0.000787585 388.029 0.715156 391.631 2.10693 394.992C3.49871 398.353 5.53905 401.407 8.11139 403.98C10.6837 406.552 13.7377 408.592 17.0987 409.984C20.4598 411.376 24.0622 412.092 27.7 412.091H210.641C226.445 412.091 242.054 408.6 256.352 401.868C270.65 395.136 283.284 385.328 293.352 373.146L295.344 370.74L1.629 370.734Z" fill="#4E5660"/>
</svg>
