<svg width="513" height="512" viewBox="0 0 513 512" fill="none" xmlns="http://www.w3.org/2000/svg">
<path d="M345.36 399.168H166.642C163.75 399.168 160.976 398.019 158.931 395.974C156.885 393.928 155.736 391.154 155.736 388.262V369.617H356.267V388.262C356.267 389.694 355.985 391.112 355.437 392.436C354.889 393.759 354.085 394.961 353.073 395.974C352.06 396.987 350.857 397.79 349.534 398.338C348.211 398.886 346.793 399.168 345.36 399.168Z" fill="#F7EF87"/>
<path d="M234.032 369.617H155.732V388.262C155.732 391.154 156.881 393.928 158.927 395.974C160.972 398.019 163.746 399.168 166.638 399.168H235.751C232.701 390.664 232.235 377.621 234.032 369.617Z" fill="#EFD176"/>
<path d="M248.501 374.078H263.501V399.168H248.501V374.078Z" fill="#EFD176"/>
<path d="M195.001 374.078H210.001V399.168H195.001V374.078Z" fill="#F7EF87"/>
<path d="M302.001 374.078H317.001V399.168H302.001V374.078Z" fill="#EFD176"/>
<path d="M48.8452 288.441L37.3012 299.984C36.0732 301.211 34.4082 301.9 32.6722 301.9C30.9362 301.9 29.2712 301.211 28.0432 299.984L1.91922 273.859C1.3108 273.252 0.828138 272.53 0.498822 271.736C0.169505 270.941 0 270.09 0 269.23C0 268.37 0.169505 267.519 0.498822 266.725C0.828138 265.93 1.3108 265.209 1.91922 264.601L13.4622 253.058L48.8452 288.441Z" fill="#EFD176"/>
<path d="M463.157 288.441L474.701 299.984C475.929 301.211 477.594 301.9 479.33 301.9C481.066 301.9 482.731 301.211 483.959 299.984L510.084 273.859C510.693 273.252 511.175 272.53 511.505 271.736C511.834 270.941 512.003 270.09 512.003 269.23C512.003 268.37 511.834 267.519 511.505 266.725C511.175 265.93 510.693 265.209 510.084 264.601L498.541 253.058L463.157 288.441Z" fill="#F7EF87"/>
<path d="M496.142 231.867L395.993 131.719C387.665 123.39 377.779 116.783 366.897 112.276C356.016 107.768 344.353 105.448 332.575 105.449H179.427C167.649 105.448 155.986 107.768 145.105 112.276C134.224 116.783 124.337 123.39 116.009 131.719L15.86 231.867C14.124 233.602 12.7469 235.663 11.8074 237.931C10.8679 240.199 10.3843 242.629 10.3843 245.084C10.3843 247.539 10.8679 249.969 11.8074 252.237C12.7469 254.505 14.124 256.565 15.86 258.301L43.601 286.043C45.3365 287.779 47.397 289.156 49.6648 290.096C51.9326 291.035 54.3633 291.519 56.818 291.519C59.2728 291.519 61.7034 291.035 63.9712 290.096C66.239 289.156 68.2995 287.779 70.035 286.043L142.278 213.8V349.887C142.278 353.064 142.904 356.21 144.119 359.145C145.335 362.08 147.117 364.747 149.363 366.993C151.609 369.239 154.276 371.021 157.211 372.237C160.146 373.452 163.292 374.078 166.469 374.078H345.536C351.952 374.077 358.104 371.529 362.641 366.992C367.178 362.455 369.727 356.303 369.727 349.887V213.8L441.965 286.038C443.701 287.774 445.761 289.151 448.029 290.091C450.297 291.03 452.727 291.514 455.182 291.514C457.637 291.514 460.067 291.03 462.335 290.091C464.603 289.151 466.664 287.774 468.399 286.038L496.142 258.3C499.645 254.794 501.613 250.04 501.613 245.083C501.613 240.127 499.645 235.373 496.142 231.867Z" fill="#99DA90"/>
<path d="M332.575 105.449H179.427C167.649 105.448 155.986 107.768 145.105 112.276C134.224 116.783 124.337 123.39 116.009 131.719L15.86 231.867C14.124 233.602 12.7469 235.663 11.8074 237.931C10.8679 240.199 10.3843 242.629 10.3843 245.084C10.3843 247.539 10.8679 249.969 11.8074 252.237C12.7469 254.505 14.124 256.565 15.86 258.301L43.601 286.043C45.3365 287.779 47.397 289.156 49.6648 290.096C51.9326 291.035 54.3633 291.519 56.818 291.519C59.2728 291.519 61.7034 291.035 63.9712 290.096C66.239 289.156 68.2995 287.779 70.035 286.043L142.274 213.8V349.887C142.275 356.303 144.823 362.455 149.36 366.992C153.897 371.529 160.049 374.077 166.465 374.078H266.031C242.406 331.84 231.937 247.652 237.191 187.016C244.441 189.383 250.957 190.723 256 190.723C270.078 190.723 295.594 180.336 316.672 166.023C341.567 149.117 356.578 129.378 359.758 109.687C350.969 106.883 341.8 105.454 332.575 105.449Z" fill="#6FCE91"/>
<path d="M256.001 54C302.601 54 349.201 59.012 349.201 101.859C349.201 144.706 276.748 179.515 256.001 179.515C235.254 179.515 162.801 144.7 162.801 101.859C162.801 59.018 209.401 54 256.001 54Z" fill="#F7EF87"/>
<path d="M256.001 82.5859C280.755 82.5859 313.56 86.8989 313.56 106.686C313.56 127.963 273.955 160.639 256.001 160.639C238.047 160.639 198.442 127.967 198.442 106.686C198.442 86.8999 231.247 82.5859 256.001 82.5859Z" fill="#4E5660"/>
<path d="M210.333 228.824C207.615 228.821 204.993 227.812 202.975 225.99C200.957 224.169 199.684 221.665 199.403 218.961C197.512 200.504 198.34 181.869 201.86 163.652C202.113 162.223 202.645 160.858 203.427 159.636C204.209 158.414 205.225 157.358 206.417 156.53C207.609 155.703 208.953 155.119 210.371 154.813C211.789 154.506 213.254 154.484 214.681 154.746C216.108 155.008 217.469 155.55 218.686 156.341C219.903 157.132 220.951 158.155 221.771 159.353C222.59 160.55 223.164 161.898 223.461 163.318C223.757 164.739 223.77 166.204 223.497 167.629C220.365 183.786 219.62 200.315 221.286 216.688C221.588 219.589 220.725 222.491 218.887 224.756C217.049 227.021 214.387 228.463 211.486 228.766C211.103 228.805 210.718 228.824 210.333 228.824Z" fill="white"/>
<path d="M301.669 228.824C301.285 228.824 300.9 228.804 300.517 228.765C297.616 228.463 294.954 227.02 293.117 224.755C291.279 222.49 290.416 219.588 290.717 216.687C292.383 200.313 291.638 183.783 288.506 167.625C288.229 166.197 288.236 164.729 288.53 163.304C288.823 161.88 289.396 160.527 290.215 159.326C291.035 158.124 292.084 157.097 293.303 156.303C294.522 155.51 295.887 154.966 297.317 154.704C298.748 154.441 300.216 154.465 301.637 154.773C303.059 155.082 304.405 155.669 305.598 156.501C306.79 157.333 307.806 158.394 308.587 159.621C309.367 160.849 309.896 162.219 310.143 163.652C313.664 181.869 314.492 200.504 312.6 218.961C312.318 221.665 311.045 224.168 309.027 225.989C307.009 227.811 304.388 228.82 301.669 228.824Z" fill="white"/>
<path d="M330.274 337.086C330.919 331.256 330.923 325.374 330.286 319.543C329.98 316.862 329.05 314.29 327.571 312.032C326.092 309.775 324.106 307.895 321.77 306.543C313.024 301.469 300.547 292.219 294.84 276.262C294.35 274.857 293.437 273.639 292.226 272.774C291.015 271.91 289.566 271.442 288.078 271.434H223.923C222.435 271.442 220.986 271.91 219.776 272.774C218.565 273.639 217.651 274.857 217.161 276.262C211.454 292.219 198.977 301.469 190.231 306.543C187.895 307.894 185.908 309.774 184.429 312.032C182.95 314.289 182.021 316.862 181.715 319.543C181.08 325.374 181.084 331.256 181.727 337.086C181.999 339.345 183.089 341.426 184.791 342.936C186.493 344.445 188.69 345.278 190.965 345.277H321.032C323.308 345.279 325.506 344.447 327.209 342.937C328.912 341.427 330.003 339.346 330.274 337.086Z" fill="#F7EF87"/>
<path d="M245.54 271.43H223.923C222.435 271.437 220.986 271.906 219.776 272.77C218.565 273.635 217.651 274.853 217.161 276.258C211.454 292.215 198.977 301.465 190.231 306.539C187.895 307.891 185.909 309.771 184.43 312.028C182.951 314.285 182.021 316.858 181.715 319.539C181.08 325.371 181.084 331.255 181.727 337.086C181.999 339.344 183.089 341.425 184.792 342.934C186.494 344.442 188.69 345.275 190.965 345.274H260.591C244.681 330.457 240.45 299.43 245.54 271.43Z" fill="#EFD176"/>
<path d="M326.618 282.105C325.136 282.104 323.687 281.663 322.455 280.839C321.223 280.015 320.263 278.844 319.696 277.474C319.128 276.105 318.98 274.598 319.269 273.144C319.558 271.69 320.271 270.354 321.318 269.305L329.618 261.005C331.033 259.639 332.927 258.883 334.894 258.9C336.86 258.917 338.742 259.706 340.132 261.096C341.523 262.487 342.311 264.368 342.328 266.334C342.346 268.301 341.59 270.195 340.223 271.61L331.923 279.91C331.227 280.607 330.4 281.16 329.49 281.537C328.579 281.913 327.604 282.107 326.618 282.105Z" fill="#6FCE91"/>
<path d="M330.771 251.574C329.289 251.573 327.84 251.132 326.608 250.308C325.376 249.484 324.415 248.313 323.848 246.943C323.281 245.574 323.133 244.067 323.422 242.613C323.71 241.159 324.424 239.823 325.471 238.774L333.752 230.493C334.444 229.777 335.272 229.205 336.187 228.812C337.102 228.419 338.086 228.212 339.082 228.204C340.078 228.195 341.065 228.385 341.987 228.762C342.909 229.139 343.746 229.696 344.45 230.4C345.154 231.104 345.711 231.942 346.088 232.863C346.465 233.785 346.655 234.773 346.647 235.769C346.638 236.764 346.431 237.749 346.038 238.664C345.645 239.579 345.074 240.406 344.357 241.098L336.076 249.379C335.38 250.076 334.553 250.629 333.643 251.006C332.732 251.383 331.757 251.576 330.771 251.574Z" fill="#6FCE91"/>
</svg>
