<svg width="513" height="512" viewBox="0 0 513 512" fill="none" xmlns="http://www.w3.org/2000/svg">
<path d="M64.4721 333.137L22.7991 291.461L3.95209 310.3C1.42215 312.831 0.000976562 316.264 0.000976562 319.843C0.000976563 323.422 1.42215 326.854 3.95209 329.386L26.5421 351.976C29.0738 354.507 32.5071 355.929 36.0871 355.929C39.6671 355.929 43.1004 354.507 45.6321 351.976L64.4721 333.137Z" fill="#F6E3A3"/>
<path d="M447.526 333.137L489.199 291.461L508.046 310.3C509.3 311.553 510.295 313.04 510.973 314.678C511.652 316.315 512.001 318.07 512.001 319.843C512.001 321.615 511.652 323.371 510.973 325.008C510.295 326.645 509.3 328.133 508.046 329.386L485.456 351.976C484.203 353.23 482.716 354.225 481.078 354.903C479.441 355.582 477.686 355.931 475.913 355.931C474.141 355.931 472.385 355.582 470.748 354.903C469.111 354.225 467.623 353.23 466.37 351.976L447.526 333.137Z" fill="#FCF2D0"/>
<path d="M487.272 268.594L397.272 178.594C389.183 170.504 379.579 164.087 369.01 159.709C358.441 155.331 347.112 153.078 335.672 153.078H176.319C164.879 153.078 153.551 155.331 142.981 159.709C132.412 164.087 122.808 170.504 114.719 178.594L24.7191 268.594C21.9879 271.324 19.8213 274.566 18.343 278.133C16.8648 281.701 16.104 285.525 16.104 289.387C16.104 293.249 16.8648 297.073 18.343 300.64C19.8213 304.208 21.9879 307.45 24.7191 310.18L45.7461 331.207C48.4763 333.938 51.7179 336.105 55.2856 337.583C58.8533 339.061 62.6773 339.822 66.5391 339.822C70.401 339.822 74.225 339.061 77.7927 337.583C81.3604 336.105 84.6019 333.938 87.3321 331.207L140.232 278.312V369.949C140.234 379.061 143.855 387.798 150.299 394.24C156.742 400.682 165.481 404.301 174.593 404.3H337.405C346.517 404.3 355.256 400.681 361.699 394.238C368.143 387.795 371.763 379.057 371.764 369.945V278.313L424.659 331.208C427.389 333.939 430.631 336.106 434.199 337.584C437.766 339.062 441.59 339.823 445.452 339.823C449.314 339.823 453.138 339.062 456.706 337.584C460.273 336.106 463.515 333.939 466.245 331.208L487.272 310.181C490.004 307.451 492.17 304.209 493.649 300.641C495.127 297.073 495.888 293.249 495.888 289.387C495.888 285.525 495.127 281.701 493.649 278.134C492.17 274.566 490.004 271.324 487.272 268.594Z" fill="#4E5660"/>
<path d="M211.651 153.082H176.319C164.879 153.082 153.551 155.335 142.981 159.713C132.412 164.091 122.808 170.508 114.719 178.598L24.7191 268.598C21.9879 271.328 19.8213 274.57 18.343 278.137C16.8648 281.705 16.104 285.529 16.104 289.391C16.104 293.253 16.8648 297.077 18.343 300.645C19.8213 304.212 21.9879 307.454 24.7191 310.184L45.7461 331.211C48.4763 333.942 51.7179 336.109 55.2856 337.587C58.8533 339.065 62.6773 339.826 66.5391 339.826C70.401 339.826 74.225 339.065 77.7927 337.587C81.3604 336.109 84.6019 333.942 87.3321 331.211L140.232 278.316V369.953C140.235 379.064 143.856 387.801 150.3 394.242C156.744 400.683 165.482 404.301 174.593 404.3H227.616C198.562 354.438 194.839 239.1 211.651 153.082Z" fill="#424952"/>
<path d="M24.7262 268.594C21.9949 271.324 19.8283 274.566 18.3501 278.134C16.8719 281.701 16.1111 285.525 16.1111 289.387C16.1111 293.249 16.8719 297.073 18.3501 300.641C19.8283 304.208 21.9949 307.45 24.7262 310.18L45.7532 331.207C48.4834 333.938 51.7249 336.105 55.2927 337.583C58.8604 339.061 62.6844 339.822 66.5462 339.822C70.408 339.822 74.232 339.061 77.7998 337.583C81.3675 336.105 84.609 333.938 87.3392 331.207L140.239 278.312C157.039 256.851 168.868 193.332 150.977 156.851C137.29 161.014 124.838 168.484 114.722 178.6L24.7262 268.594Z" fill="#6FB6E1"/>
<path d="M487.272 268.594C490.003 271.324 492.17 274.566 493.648 278.134C495.126 281.701 495.887 285.525 495.887 289.387C495.887 293.249 495.126 297.073 493.648 300.641C492.17 304.208 490.003 307.45 487.272 310.18L466.245 331.207C463.515 333.938 460.273 336.105 456.706 337.583C453.138 339.061 449.314 339.822 445.452 339.822C441.59 339.822 437.766 339.061 434.198 337.583C430.631 336.105 427.389 333.938 424.659 331.207L371.759 278.312C354.959 256.851 343.13 193.332 361.021 156.851C374.709 161.013 387.161 168.483 397.276 178.6L487.272 268.594Z" fill="#8ED2E2"/>
<path d="M208.929 356.246H140.237V369.946C140.238 379.057 143.858 387.795 150.301 394.238C156.744 400.68 165.482 404.3 174.593 404.3H233.558V380.879C233.558 377.645 232.921 374.442 231.684 371.453C230.446 368.465 228.632 365.749 226.345 363.462C224.058 361.174 221.343 359.36 218.355 358.122C215.367 356.884 212.164 356.246 208.929 356.246Z" fill="#FCF2D0"/>
<path d="M303.069 356.246H371.76V369.946C371.76 379.057 368.14 387.796 361.697 394.238C355.255 400.681 346.516 404.3 337.405 404.3H278.44V380.879C278.44 377.645 279.077 374.442 280.314 371.453C281.552 368.465 283.366 365.749 285.653 363.462C287.94 361.174 290.655 359.36 293.643 358.122C296.632 356.884 299.834 356.246 303.069 356.246Z" fill="#FCF2D0"/>
<path d="M210.542 356.309C210.007 356.274 209.472 356.247 208.925 356.247H140.233V369.947C140.234 379.059 143.855 387.797 150.299 394.239C156.743 400.682 165.481 404.301 174.593 404.3H227.616C220.378 391.879 214.71 375.395 210.542 356.309Z" fill="#F6E3A3"/>
<path d="M233.558 168.461H278.441V404.3H233.558V168.461Z" fill="#646F7E"/>
<path d="M263.479 355.133C263.479 356.612 263.04 358.059 262.219 359.289C261.397 360.519 260.228 361.478 258.862 362.044C257.495 362.61 255.991 362.758 254.54 362.469C253.089 362.181 251.756 361.468 250.71 360.422C249.664 359.376 248.952 358.043 248.663 356.592C248.374 355.141 248.522 353.637 249.089 352.271C249.655 350.904 250.613 349.736 251.843 348.914C253.074 348.092 254.52 347.653 255.999 347.653C257.983 347.654 259.885 348.442 261.288 349.844C262.69 351.247 263.479 353.149 263.479 355.133Z" fill="#FCF2D0"/>
<path d="M263.479 290.176C263.48 291.656 263.042 293.102 262.221 294.333C261.399 295.563 260.231 296.523 258.864 297.089C257.498 297.656 255.994 297.805 254.542 297.517C253.091 297.229 251.758 296.516 250.711 295.471C249.665 294.425 248.952 293.092 248.663 291.641C248.374 290.19 248.522 288.685 249.088 287.318C249.654 285.951 250.613 284.783 251.843 283.961C253.073 283.139 254.52 282.7 255.999 282.7C257.982 282.7 259.884 283.487 261.287 284.889C262.69 286.291 263.478 288.193 263.479 290.176Z" fill="#FCF2D0"/>
<path d="M263.479 225.215C263.479 226.695 263.04 228.141 262.219 229.371C261.397 230.601 260.228 231.56 258.862 232.126C257.495 232.692 255.991 232.84 254.54 232.551C253.089 232.263 251.756 231.55 250.71 230.504C249.664 229.458 248.952 228.125 248.663 226.674C248.374 225.223 248.522 223.719 249.089 222.353C249.655 220.986 250.613 219.818 251.843 218.996C253.074 218.174 254.52 217.735 255.999 217.735C256.981 217.735 257.954 217.928 258.862 218.304C259.769 218.68 260.594 219.231 261.289 219.926C261.983 220.62 262.534 221.445 262.91 222.352C263.286 223.26 263.479 224.233 263.479 225.215Z" fill="#FCF2D0"/>
<path d="M315.948 123.871L325.048 153.082L260.878 183.523C259.353 184.246 257.687 184.622 255.999 184.622C254.311 184.622 252.645 184.246 251.12 183.523L186.952 153.082L196.052 123.871C197.483 119.272 200.347 115.251 204.226 112.396C208.105 109.54 212.796 108 217.612 108H294.385C299.202 107.999 303.893 109.539 307.773 112.395C311.652 115.25 314.517 119.271 315.948 123.871Z" fill="#FCF2D0"/>
<path d="M255.999 108H217.612C212.795 108 208.105 109.541 204.226 112.396C200.347 115.251 197.482 119.272 196.05 123.871L186.95 153.082L251.118 183.523C252.643 184.246 254.309 184.622 255.997 184.623L255.999 108Z" fill="#F6E3A3"/>
<path d="M284.699 108C286.658 108 288.571 108.594 290.185 109.704C291.799 110.813 293.039 112.386 293.74 114.215C294.442 116.044 294.573 118.043 294.115 119.947C293.657 121.852 292.632 123.573 291.176 124.883L266.676 146.938C263.316 149.96 260.629 153.655 258.79 157.784C256.95 161.912 255.999 166.381 255.999 170.9C255.999 166.381 255.049 161.913 253.211 157.785C251.372 153.657 248.686 149.962 245.327 146.939L220.827 124.884C219.371 123.574 218.347 121.853 217.889 119.949C217.431 118.045 217.562 116.047 218.262 114.218C218.963 112.39 220.202 110.817 221.816 109.707C223.429 108.596 225.341 108.001 227.299 108H284.699Z" fill="#4E5660"/>
<path d="M145.218 387.777H233.558V380.877C233.558 378.119 233.095 375.381 232.187 372.777H140.362C140.788 378.087 142.451 383.224 145.218 387.777Z" fill="#4E5660"/>
<path d="M366.78 387.777C369.546 383.224 371.208 378.087 371.635 372.777H279.812C278.905 375.381 278.441 378.119 278.441 380.877V387.777H366.78Z" fill="#4E5660"/>
<path d="M174.706 335C173.504 334.999 172.32 334.709 171.253 334.154C170.186 333.6 169.268 332.797 168.577 331.814C167.885 330.831 167.439 329.696 167.277 328.505C167.116 327.314 167.242 326.101 167.647 324.969L179.835 290.922C180.167 289.994 180.678 289.141 181.34 288.412C182.002 287.682 182.8 287.089 183.691 286.668C184.581 286.247 185.546 286.006 186.53 285.957C187.514 285.909 188.498 286.055 189.425 286.387C190.353 286.719 191.206 287.23 191.935 287.892C192.665 288.553 193.258 289.352 193.679 290.243C194.1 291.133 194.341 292.098 194.39 293.082C194.438 294.066 194.292 295.049 193.96 295.977L181.769 330.023C181.248 331.479 180.29 332.739 179.025 333.629C177.761 334.52 176.253 334.999 174.706 335Z" fill="#FCF2D0"/>
<path d="M337.292 335C335.745 335 334.237 334.522 332.972 333.631C331.708 332.74 330.75 331.48 330.23 330.023L318.043 295.976C317.382 294.106 317.488 292.05 318.339 290.258C319.191 288.466 320.717 287.084 322.584 286.415C324.452 285.746 326.508 285.844 328.304 286.688C330.099 287.532 331.487 289.052 332.164 290.917L344.355 324.968C344.759 326.1 344.886 327.313 344.723 328.505C344.561 329.696 344.115 330.831 343.423 331.814C342.731 332.797 341.813 333.6 340.746 334.154C339.679 334.709 338.494 334.999 337.292 335Z" fill="#FCF2D0"/>
</svg>
