<svg width="512" height="512" viewBox="0 0 512 512" fill="none" xmlns="http://www.w3.org/2000/svg">
<path d="M504.758 166.859L424.383 86.484C413.451 75.5509 400.472 66.8783 386.188 60.9615C371.904 55.0447 356.594 51.9996 341.133 52H170.867C155.406 51.9996 140.096 55.0447 125.812 60.9615C111.528 66.8783 98.5495 75.5509 87.6173 86.484L7.24231 166.859C4.94624 169.155 3.12488 171.88 1.88223 174.88C0.639585 177.88 0 181.095 0 184.342C0 187.588 0.639585 190.803 1.88223 193.803C3.12488 196.803 4.94624 199.528 7.24231 201.824L36.0743 230.66C40.7115 235.297 47.0009 237.902 53.5588 237.902C60.1168 237.902 66.4061 235.297 71.0433 230.66L122.1 179.6V382.984C122.083 385.695 120.989 388.288 119.061 390.194C117.133 392.1 114.527 393.162 111.815 393.148C105.604 393.18 99.6574 395.67 95.2765 400.074C90.8955 404.477 88.4362 410.436 88.4363 416.648V426.906C88.4366 435.834 91.9834 444.397 98.2966 450.71C104.61 457.023 113.172 460.57 122.1 460.57H165.8C184.043 460.57 201.539 453.323 214.438 440.423C227.338 427.523 234.585 410.028 234.585 391.785V338.711C234.585 327.301 243.194 317.34 254.577 316.606C257.504 316.411 260.439 316.818 263.202 317.804C265.964 318.789 268.495 320.332 270.637 322.335C272.779 324.339 274.487 326.761 275.655 329.452C276.822 332.142 277.425 335.044 277.425 337.977V391.786C277.425 410.027 284.671 427.521 297.568 440.421C310.466 453.32 327.959 460.568 346.2 460.57H389.9C394.321 460.57 398.699 459.7 402.783 458.008C406.868 456.316 410.579 453.837 413.705 450.711C416.831 447.585 419.311 443.873 421.002 439.789C422.694 435.705 423.565 431.327 423.564 426.906V416.648C423.564 410.436 421.105 404.477 416.724 400.074C412.343 395.67 406.397 393.18 400.185 393.148C397.474 393.162 394.868 392.1 392.94 390.194C391.012 388.288 389.918 385.695 389.9 382.984V179.6L440.959 230.659C443.255 232.955 445.981 234.776 448.98 236.019C451.98 237.262 455.195 237.901 458.442 237.901C461.689 237.901 464.904 237.262 467.903 236.019C470.903 234.776 473.629 232.955 475.924 230.659L504.76 201.823C509.396 197.186 512 190.897 511.999 184.341C511.999 177.784 509.394 171.496 504.758 166.859Z" fill="#8ED2E2"/>
<path d="M170.867 52C155.406 51.9996 140.096 55.0447 125.812 60.9615C111.528 66.8783 98.5495 75.5509 87.6173 86.484L7.24231 166.859C4.94624 169.155 3.12488 171.88 1.88223 174.88C0.639585 177.88 0 181.095 0 184.342C0 187.588 0.639585 190.803 1.88223 193.803C3.12488 196.803 4.94624 199.528 7.24231 201.824L36.0743 230.66C40.7115 235.297 47.0009 237.902 53.5588 237.902C60.1168 237.902 66.4061 235.297 71.0433 230.66L122.1 179.6V382.984C122.083 385.695 120.989 388.288 119.061 390.194C117.133 392.1 114.527 393.162 111.815 393.148C105.604 393.18 99.6574 395.67 95.2765 400.074C90.8955 404.477 88.4362 410.436 88.4363 416.648V426.906C88.4366 435.834 91.9834 444.397 98.2966 450.71C104.61 457.023 113.172 460.57 122.1 460.57H165.8C184.043 460.57 201.539 453.323 214.438 440.423C227.338 427.523 234.585 410.028 234.585 391.785V338.711C234.585 335.173 235.418 331.685 237.016 328.529C238.614 325.372 240.933 322.637 243.785 320.543C183.383 232.059 179.246 151.871 193.449 52H170.867Z" fill="#6FB6E1"/>
<path d="M119.364 389.871C118.395 390.903 117.226 391.725 115.928 392.289C114.631 392.852 113.231 393.145 111.817 393.148C105.605 393.18 99.6586 395.67 95.2777 400.074C90.8967 404.477 88.4374 410.436 88.4375 416.648V426.906C88.4372 431.327 89.3078 435.704 90.9994 439.789C92.691 443.873 95.1706 447.584 98.2965 450.71C101.422 453.836 105.134 456.316 109.218 458.008C113.302 459.7 117.68 460.57 122.101 460.57H129.721C141.035 431.855 131.001 400.754 119.364 389.871Z" fill="#F6E3A3"/>
<path d="M83.4773 218.227L19.6773 154.427L7.24231 166.859C4.94624 169.155 3.12488 171.88 1.88223 174.88C0.639585 177.88 0 181.095 0 184.342C0 187.588 0.639585 190.803 1.88223 193.803C3.12488 196.803 4.94624 199.528 7.24231 201.824L36.0743 230.66C40.7115 235.297 47.0009 237.902 53.5588 237.902C60.1168 237.902 66.4061 235.297 71.0433 230.66L83.4773 218.227Z" fill="#F6E3A3"/>
<path d="M392.638 389.871C393.606 390.903 394.775 391.725 396.073 392.289C397.371 392.852 398.77 393.145 400.185 393.148C406.396 393.18 412.343 395.67 416.723 400.074C421.104 404.477 423.564 410.436 423.564 416.648V426.906C423.563 435.834 420.017 444.396 413.704 450.709C407.391 457.023 398.829 460.57 389.901 460.57H382.28C370.966 431.855 381.001 400.754 392.638 389.871Z" fill="#FCF2D0"/>
<path d="M428.523 218.227L492.323 154.427L504.757 166.861C509.395 171.498 512 177.788 512 184.346C512 190.903 509.395 197.193 504.757 201.83L475.926 230.66C471.289 235.297 465 237.902 458.442 237.902C451.884 237.902 445.595 235.297 440.957 230.66L428.523 218.227Z" fill="#FCF2D0"/>
<path d="M317.18 255.148C317.18 232.187 289.789 213.574 256 213.574C222.211 213.574 194.82 232.187 194.82 255.148C194.82 278.109 222.211 296.722 256 296.722C289.789 296.722 317.18 278.109 317.18 255.148Z" fill="#FCF2D0"/>
<path d="M201.52 236.238C197.27 241.634 194.915 248.28 194.82 255.148C194.82 270.597 207.23 284.066 225.636 291.234C215.834 273.727 207.757 255.308 201.52 236.238Z" fill="#F6E3A3"/>
<path d="M182.72 52C182.72 71.4353 190.44 90.0746 204.183 103.817C217.926 117.56 236.565 125.281 256.001 125.281C275.436 125.281 294.075 117.56 307.818 103.817C321.561 90.0746 329.282 71.4353 329.282 52H182.72Z" fill="#FCF2D0"/>
<path d="M206.625 52C206.625 65.0951 211.827 77.6538 221.087 86.9134C230.346 96.173 242.905 101.375 256 101.375C269.095 101.375 281.654 96.173 290.913 86.9134C300.173 77.6538 305.375 65.0951 305.375 52H206.625Z" fill="#6FB6E1"/>
</svg>
