<svg width="513" height="512" viewBox="0 0 513 512" fill="none" xmlns="http://www.w3.org/2000/svg">
<path d="M503.152 172.3L414.82 83.965C391.776 60.9219 360.522 47.9767 327.934 47.9771H184.066C151.477 47.9767 120.223 60.9219 97.1797 83.965L8.84769 172.3C3.18258 177.966 0 185.65 0 193.662C0 201.674 3.18258 209.357 8.84769 215.023L33.5227 239.7C36.3276 242.505 39.6576 244.73 43.3224 246.248C46.9873 247.766 50.9153 248.548 54.8822 248.548C58.8491 248.548 62.7771 247.766 66.4419 246.248C70.1068 244.73 73.4368 242.505 76.2417 239.7L133.168 182.774V437.121C133.168 442.091 134.147 447.012 136.049 451.604C137.951 456.196 140.739 460.368 144.254 463.882C147.768 467.396 151.941 470.184 156.532 472.085C161.124 473.987 166.046 474.965 171.016 474.965H340.984C351.021 474.965 360.646 470.978 367.743 463.881C374.841 456.784 378.828 447.158 378.828 437.121V182.77L435.754 239.7C441.419 245.365 449.103 248.548 457.115 248.548C465.127 248.548 472.811 245.365 478.477 239.7L503.153 215.024C505.958 212.219 508.184 208.889 509.703 205.223C511.221 201.558 512.003 197.629 512.002 193.662C512.002 189.694 511.221 185.766 509.702 182.101C508.183 178.435 505.958 175.105 503.152 172.3Z" fill="#EDA1AB"/>
<path d="M205.656 47.9771H184.066C151.477 47.9767 120.223 60.9219 97.1797 83.965L8.84769 172.3C3.18258 177.966 0 185.65 0 193.662C0 201.674 3.18258 209.357 8.84769 215.023L33.5227 239.7C36.3276 242.505 39.6576 244.73 43.3224 246.248C46.9873 247.766 50.9153 248.548 54.8822 248.548C58.8491 248.548 62.7771 247.766 66.4419 246.248C70.1068 244.73 73.4368 242.505 76.2417 239.7L133.168 182.774V437.121C133.168 442.091 134.147 447.012 136.049 451.604C137.951 456.196 140.739 460.368 144.254 463.882C147.768 467.396 151.941 470.184 156.532 472.085C161.124 473.987 166.046 474.965 171.016 474.965H247.746C186.652 402.633 192.816 171.481 205.656 47.9771Z" fill="#E68A97"/>
<path d="M314.48 94.133L256 153.066L197.52 94.133L183.8 47.9771H328.2L314.48 94.133Z" fill="#E68A97"/>
<path d="M281.382 222.625C281.382 172.18 323.682 89.9019 355.089 52.2889C356.072 51.1014 356.695 49.6588 356.888 48.1298C357.08 46.6007 356.834 45.0485 356.176 43.6546C355.519 42.2606 354.479 41.0827 353.176 40.2584C351.874 39.4341 350.364 38.9976 348.823 38.9999H334.784C328.683 38.9825 322.654 40.323 317.135 42.9241C311.616 45.5253 306.744 49.322 302.874 54.0389C271.628 92.4019 230.612 172.949 230.612 222.625H281.382Z" fill="#FCF2D0"/>
<path d="M269.792 128.258C267.897 124.09 265.917 119.922 263.878 115.785C245.351 152.004 230.612 192.855 230.612 222.625H281.382C281.382 209.801 284.128 194.918 288.722 179.234C283.727 161.782 277.399 144.74 269.792 128.258Z" fill="#F6E3A3"/>
<path d="M230.613 222.625C230.613 172.18 188.32 89.9019 156.913 52.2889C155.931 51.1016 155.307 49.6593 155.114 48.1305C154.922 46.6018 155.168 45.0497 155.825 43.6559C156.482 42.2621 157.522 41.0841 158.824 40.2596C160.126 39.4351 161.635 38.9982 163.176 38.9999H177.215C183.316 38.9821 189.344 40.3224 194.863 42.9236C200.382 45.5248 205.252 49.3217 209.121 54.0389C240.367 92.4019 281.387 172.949 281.387 222.625H230.613Z" fill="#FCF2D0"/>
<path d="M386.723 293.535H125.277C121.849 293.535 118.562 292.174 116.138 289.751C113.714 287.327 112.351 284.041 112.351 280.613V235.547C112.351 232.119 113.714 228.833 116.138 226.409C118.562 223.986 121.849 222.625 125.277 222.625H386.723C390.15 222.625 393.437 223.986 395.862 226.409C398.286 228.833 399.648 232.119 399.649 235.547V280.613C399.648 284.041 398.286 287.327 395.862 289.751C393.437 292.174 390.15 293.535 386.723 293.535Z" fill="#F6E3A3"/>
<path d="M378.827 353.289C368.96 357.121 355.987 365.363 345.527 374.113C343.117 376.145 341.182 378.681 339.858 381.542C338.535 384.403 337.855 387.52 337.867 390.672V433.652H378.828L378.827 353.289Z" fill="#F6E3A3"/>
<path d="M278.633 379.586C279.352 379.821 280.123 379.852 280.859 379.677C281.596 379.501 282.269 379.124 282.805 378.589C283.34 378.054 283.717 377.381 283.894 376.645C284.07 375.908 284.039 375.138 283.805 374.418C281.395 366.957 279.086 356.543 283.188 352.441C288.961 346.668 312.988 359.711 330.211 374.113C332.62 376.145 334.554 378.681 335.877 381.543C337.199 384.404 337.879 387.52 337.867 390.672V433.652H294.891C291.738 433.663 288.621 432.982 285.76 431.659C282.898 430.336 280.362 428.401 278.329 425.992C263.929 408.773 250.888 384.742 256.657 378.969C260.758 374.867 271.176 377.176 278.633 379.586Z" fill="#FCF2D0"/>
<path d="M278.328 441.309C269.476 451.895 261.141 465.055 257.371 474.965H337.871V433.648H294.891C291.738 433.637 288.621 434.317 285.76 435.641C282.898 436.964 280.361 438.899 278.328 441.309Z" fill="#F6E3A3"/>
<path d="M337.867 433.648V474.964H340.984C345.954 474.964 350.875 473.986 355.467 472.084C360.059 470.182 364.231 467.395 367.745 463.881C371.259 460.366 374.047 456.194 375.948 451.603C377.85 447.011 378.829 442.09 378.828 437.12V433.647L337.867 433.648Z" fill="#FCF2D0"/>
<path d="M356.452 433.648C356.452 437.324 355.362 440.917 353.32 443.974C351.278 447.03 348.375 449.412 344.979 450.819C341.583 452.226 337.846 452.594 334.24 451.877C330.635 451.16 327.323 449.39 324.724 446.79C322.125 444.191 320.355 440.879 319.637 437.274C318.92 433.669 319.288 429.932 320.695 426.535C322.102 423.139 324.484 420.237 327.54 418.194C330.597 416.152 334.19 415.062 337.866 415.062C340.307 415.062 342.724 415.543 344.979 416.477C347.234 417.41 349.283 418.78 351.009 420.505C352.735 422.231 354.104 424.28 355.038 426.535C355.972 428.79 356.452 431.207 356.452 433.648Z" fill="#EDA1AB"/>
<path d="M222.456 442.875C221.471 442.875 220.496 442.681 219.587 442.303C218.677 441.926 217.851 441.373 217.156 440.675L212.32 435.839C210.954 434.424 210.198 432.53 210.215 430.563C210.232 428.597 211.021 426.716 212.412 425.325C213.802 423.935 215.683 423.146 217.65 423.129C219.616 423.112 221.511 423.868 222.925 425.234L227.761 430.07C228.809 431.119 229.522 432.455 229.811 433.909C230.1 435.363 229.951 436.87 229.384 438.239C228.817 439.609 227.857 440.78 226.625 441.604C225.392 442.428 223.944 442.869 222.461 442.87L222.456 442.875Z" fill="#FCF2D0"/>
<path d="M217.62 423.4C216.138 423.399 214.689 422.958 213.457 422.134C212.225 421.31 211.265 420.139 210.697 418.769C210.13 417.4 209.982 415.893 210.271 414.439C210.56 412.985 211.273 411.649 212.32 410.6L217.156 405.764C218.563 404.357 220.47 403.567 222.459 403.566C224.449 403.566 226.357 404.356 227.763 405.762C229.17 407.168 229.961 409.076 229.961 411.065C229.962 413.054 229.172 414.962 227.765 416.369L222.929 421.205C222.233 421.903 221.405 422.456 220.494 422.833C219.583 423.209 218.606 423.402 217.62 423.4Z" fill="#FCF2D0"/>
<path d="M202.98 423.4C201.995 423.401 201.02 423.207 200.11 422.829C199.201 422.452 198.375 421.898 197.68 421.2L192.844 416.364C191.437 414.957 190.646 413.049 190.646 411.06C190.646 409.07 191.437 407.162 192.844 405.755C194.251 404.348 196.159 403.558 198.148 403.558C200.138 403.558 202.046 404.348 203.453 405.755L208.289 410.591C209.336 411.64 210.049 412.976 210.338 414.43C210.627 415.884 210.479 417.391 209.912 418.76C209.344 420.13 208.384 421.301 207.152 422.125C205.92 422.949 204.471 423.39 202.989 423.391L202.98 423.4Z" fill="#FCF2D0"/>
<path d="M198.145 442.875C196.662 442.874 195.214 442.433 193.981 441.609C192.749 440.785 191.789 439.614 191.222 438.244C190.655 436.875 190.506 435.368 190.795 433.914C191.084 432.46 191.797 431.124 192.845 430.075L197.681 425.239C199.095 423.873 200.99 423.117 202.956 423.134C204.923 423.151 206.804 423.94 208.194 425.33C209.585 426.721 210.374 428.602 210.391 430.569C210.408 432.535 209.652 434.43 208.286 435.844L203.45 440.68C202.754 441.378 201.927 441.931 201.017 442.308C200.106 442.685 199.13 442.878 198.145 442.875Z" fill="#FCF2D0"/>
<path d="M226.211 383.859C224.222 383.859 222.314 383.069 220.908 381.662C219.501 380.256 218.711 378.348 218.711 376.359V369.519C218.711 367.53 219.501 365.622 220.908 364.216C222.314 362.809 224.222 362.019 226.211 362.019C228.2 362.019 230.108 362.809 231.514 364.216C232.921 365.622 233.711 367.53 233.711 369.519V376.359C233.711 378.348 232.921 380.256 231.514 381.662C230.108 383.069 228.2 383.859 226.211 383.859Z" fill="#FCF2D0"/>
<path d="M243.4 366.668H236.56C234.57 366.668 232.663 365.878 231.256 364.471C229.85 363.065 229.06 361.157 229.06 359.168C229.06 357.179 229.85 355.271 231.256 353.865C232.663 352.458 234.57 351.668 236.56 351.668H243.4C245.389 351.668 247.296 352.458 248.703 353.865C250.109 355.271 250.9 357.179 250.9 359.168C250.9 361.157 250.109 363.065 248.703 364.471C247.296 365.878 245.389 366.668 243.4 366.668Z" fill="#FCF2D0"/>
<path d="M226.211 356.316C224.222 356.316 222.314 355.526 220.908 354.119C219.501 352.713 218.711 350.805 218.711 348.816V341.976C218.711 339.987 219.501 338.079 220.908 336.673C222.314 335.266 224.222 334.476 226.211 334.476C228.2 334.476 230.108 335.266 231.514 336.673C232.921 338.079 233.711 339.987 233.711 341.976V348.816C233.711 350.805 232.921 352.713 231.514 354.119C230.108 355.526 228.2 356.316 226.211 356.316Z" fill="#FCF2D0"/>
<path d="M215.855 366.668H209.02C207.03 366.668 205.123 365.878 203.716 364.471C202.31 363.065 201.52 361.157 201.52 359.168C201.52 357.179 202.31 355.271 203.716 353.865C205.123 352.458 207.03 351.668 209.02 351.668H215.856C217.845 351.668 219.752 352.458 221.159 353.865C222.565 355.271 223.356 357.179 223.356 359.168C223.356 361.157 222.565 363.065 221.159 364.471C219.752 365.878 217.845 366.668 215.856 366.668H215.855Z" fill="#FCF2D0"/>
</svg>
