<svg width="512" height="512" viewBox="0 0 512 512" fill="none" xmlns="http://www.w3.org/2000/svg">
<path d="M267.999 16.4261C270.604 14.2209 273.766 12.7757 277.138 12.249C280.51 11.7223 283.962 12.1346 287.115 13.4404C290.268 14.7463 293.001 16.8954 295.013 19.6519C297.025 22.4085 298.239 25.666 298.522 29.0671C298.886 33.4478 300.792 37.5576 303.9 40.6658C307.009 43.774 311.118 45.6794 315.499 46.0431C318.9 46.3264 322.157 47.5407 324.913 49.5528C327.669 51.5649 329.818 54.297 331.123 57.4497C332.429 60.6023 332.841 64.0537 332.315 67.4252C331.789 70.7968 330.345 73.9583 328.14 76.5631C325.301 79.9192 323.743 84.173 323.743 88.5691C323.743 92.9652 325.301 97.219 328.14 100.575C330.345 103.18 331.789 106.341 332.315 109.713C332.841 113.085 332.429 116.536 331.123 119.689C329.818 122.841 327.669 125.573 324.913 127.585C322.157 129.597 318.9 130.812 315.499 131.095C311.118 131.459 307.008 133.364 303.9 136.473C300.791 139.581 298.886 143.691 298.522 148.072C298.239 151.473 297.024 154.73 295.012 157.486C292.999 160.242 290.267 162.391 287.114 163.697C283.961 165.003 280.51 165.415 277.138 164.889C273.766 164.364 270.604 162.919 267.999 160.715C264.645 157.874 260.391 156.315 255.995 156.315C251.599 156.315 247.346 157.874 243.991 160.715C241.386 162.919 238.224 164.364 234.852 164.889C231.48 165.415 228.028 165.003 224.875 163.696C221.722 162.39 218.99 160.241 216.978 157.485C214.966 154.728 213.752 151.471 213.468 148.07C213.105 143.691 211.2 139.582 208.093 136.474C204.987 133.366 200.879 131.46 196.499 131.094C193.099 130.811 189.842 129.596 187.086 127.584C184.33 125.572 182.181 122.84 180.875 119.688C179.569 116.535 179.157 113.084 179.683 109.712C180.209 106.34 181.654 103.179 183.858 100.574C186.698 97.218 188.256 92.9642 188.256 88.5681C188.256 84.172 186.698 79.9182 183.858 76.5621C181.654 73.9573 180.21 70.7958 179.684 67.4244C179.158 64.053 179.57 60.6019 180.876 57.4494C182.182 54.297 184.33 51.5649 187.086 49.5529C189.842 47.5409 193.099 46.3265 196.499 46.0431C200.88 45.6793 204.99 43.7739 208.099 40.6654C211.207 37.557 213.112 33.447 213.476 29.0661C213.759 25.6651 214.974 22.4077 216.986 19.6513C218.998 16.8949 221.731 14.7459 224.884 13.4402C228.037 12.1344 231.489 11.7223 234.861 12.249C238.233 12.7757 241.395 14.2209 243.999 16.4261C247.354 19.2656 251.608 20.8238 256.003 20.8238C260.399 20.8238 264.652 19.2656 268.007 16.4261H267.999Z" fill="#EFD176"/>
<path d="M483.609 386.621C483.609 207.321 377.281 110.086 256 110.086C134.719 110.086 28.3906 207.324 28.3906 386.621H483.609Z" fill="#8ED2E2"/>
<path d="M234.73 111.105C122.555 121.848 28.3906 217.891 28.3906 386.621H207.023C186.453 294.352 196.719 189.324 234.73 111.105Z" fill="#6FB6E1"/>
<path d="M483.609 386.621C483.609 332.586 473.941 286.021 457.129 247.305L428.656 233.961C422.803 231.217 416.202 230.504 409.899 231.935C403.596 233.366 397.95 236.859 393.856 241.861L383.25 254.832C378.753 260.329 372.398 263.988 365.386 265.115C358.374 266.242 351.192 264.76 345.199 260.949L327.176 249.488C321.912 246.142 315.711 244.579 309.491 245.031C303.27 245.484 297.36 247.927 292.637 252L274.957 267.242C269.685 271.786 262.957 274.285 255.998 274.285C249.038 274.285 242.31 271.786 237.039 267.242L219.359 252C214.636 247.927 208.727 245.484 202.507 245.031C196.287 244.579 190.086 246.142 184.824 249.488L166.8 260.949C160.806 264.76 153.623 266.243 146.611 265.115C139.598 263.988 133.242 260.33 128.745 254.832L118.136 241.863C114.042 236.861 108.396 233.367 102.092 231.936C95.7888 230.505 89.188 231.219 83.3356 233.963L54.8666 247.3C38.0586 286.02 28.3906 332.586 28.3906 386.621H483.609Z" fill="#F7EF87"/>
<path d="M198.773 245.023C193.817 245.291 189.014 246.829 184.824 249.488L166.8 260.949C160.807 264.76 153.625 266.242 146.613 265.115C139.601 263.988 133.245 260.329 128.749 254.832L118.14 241.863C114.046 236.861 108.4 233.368 102.096 231.937C95.7928 230.506 89.1921 231.219 83.3396 233.963L54.8706 247.3C38.0586 286.015 28.3906 332.581 28.3906 386.616H207.023C196.84 340.949 194.219 292.152 198.773 245.023Z" fill="#EFD176"/>
<path d="M475.379 304.934L441.201 287.809C435.531 284.97 429.079 284.091 422.856 285.309C416.633 286.528 410.99 289.775 406.809 294.543L392.57 310.785C388.231 315.737 382.318 319.043 375.828 320.149C369.337 321.254 362.664 320.091 356.929 316.855L328.965 301.07C323.941 298.234 318.178 296.981 312.429 297.473C306.681 297.966 301.215 300.182 296.746 303.832L274.129 322.3C269.012 326.48 262.608 328.763 256 328.763C249.393 328.763 242.989 326.48 237.871 322.3L215.254 303.827C210.787 300.178 205.322 297.961 199.574 297.469C193.826 296.976 188.063 298.229 183.039 301.065L155.07 316.855C149.336 320.091 142.663 321.254 136.172 320.149C129.681 319.043 123.769 315.737 119.429 310.785L105.2 294.543C101.021 289.775 95.3783 286.528 89.1559 285.309C82.9336 284.091 76.4828 284.97 70.8135 287.809L36.6215 304.934C31.0145 331.799 28.2559 359.179 28.3915 386.622H483.609C483.745 359.179 480.986 331.799 475.379 304.934Z" fill="#EDA1AB"/>
<path d="M196.672 297.391C191.891 297.458 187.202 298.724 183.035 301.071L155.07 316.855C149.336 320.091 142.663 321.254 136.172 320.148C129.681 319.043 123.769 315.737 119.429 310.785L105.2 294.543C101.02 289.773 95.3746 286.524 89.1497 285.305C82.9248 284.087 76.4714 284.967 70.8005 287.809L36.6215 304.934C31.0144 331.799 28.2558 359.181 28.3915 386.625H207.023C200.571 357.306 197.103 327.409 196.672 297.391Z" fill="#E68A97"/>
<path d="M475.332 473.469C331.268 508.992 180.732 508.992 36.668 473.469C26.2034 470.888 16.9054 464.875 10.2587 456.39C3.61214 447.905 0.000295774 437.438 0 426.66L0 386.895C0.000312538 381.105 1.31787 375.391 3.85293 370.185C6.38799 364.979 10.0741 360.418 14.6323 356.848C19.1904 353.277 24.5012 350.79 30.1625 349.576C35.8237 348.361 41.6872 348.45 47.309 349.836C184.384 383.637 327.617 383.637 464.692 349.836C470.314 348.45 476.177 348.362 481.838 349.576C487.499 350.791 492.81 353.278 497.368 356.849C501.926 360.419 505.612 364.98 508.147 370.186C510.682 375.391 511.999 381.105 512 386.895V426.66C512 437.438 508.388 447.905 501.741 456.39C495.095 464.875 485.797 470.888 475.332 473.469Z" fill="#F7EF87"/>
<path d="M164.72 201.242C163.238 201.241 161.789 200.8 160.557 199.976C159.324 199.152 158.364 197.981 157.797 196.611C157.23 195.242 157.081 193.735 157.37 192.281C157.659 190.827 158.372 189.491 159.42 188.442L175.69 172.172C177.104 170.806 178.999 170.05 180.965 170.067C182.932 170.084 184.813 170.873 186.204 172.263C187.594 173.654 188.383 175.535 188.4 177.501C188.417 179.468 187.661 181.362 186.295 182.777L170.029 199.047C169.332 199.745 168.505 200.298 167.593 200.674C166.682 201.051 165.706 201.244 164.72 201.242Z" fill="white"/>
<path d="M340.723 210.336C339.738 210.336 338.763 210.142 337.853 209.764C336.944 209.387 336.118 208.834 335.423 208.136L319.153 191.866C318.456 191.169 317.904 190.342 317.527 189.432C317.151 188.522 316.957 187.547 316.957 186.562C316.957 185.577 317.151 184.602 317.529 183.692C317.906 182.782 318.458 181.955 319.155 181.259C319.851 180.563 320.678 180.01 321.588 179.634C322.498 179.257 323.474 179.063 324.459 179.063C325.444 179.063 326.419 179.258 327.329 179.635C328.239 180.012 329.065 180.564 329.762 181.261L346.028 197.527C347.075 198.576 347.789 199.912 348.077 201.366C348.366 202.82 348.218 204.327 347.651 205.696C347.084 207.066 346.123 208.237 344.891 209.061C343.659 209.885 342.21 210.326 340.728 210.327L340.723 210.336Z" fill="white"/>
<path d="M47.309 349.836C41.6872 348.45 35.8238 348.361 30.1626 349.576C24.5014 350.791 19.1908 353.278 14.6327 356.849C10.0746 360.419 6.38843 364.98 3.85331 370.185C1.31819 375.391 0.000506147 381.105 0 386.895L0 426.66C0.000295774 437.438 3.61214 447.906 10.2587 456.391C16.9054 464.875 26.2034 470.888 36.668 473.469C89.6745 486.533 143.743 494.833 198.227 498.269C179.547 462.069 181.399 393.937 204.36 373.656C151.394 370.512 98.8253 362.539 47.309 349.836Z" fill="#EFD176"/>
<path d="M263.5 500.055V375.188C263.5 375.168 263.5 375.149 263.5 375.133C258.504 375.176 253.506 375.176 248.508 375.133C248.508 375.149 248.508 375.168 248.508 375.188V500.055C253.502 500.094 258.5 500.094 263.5 500.055Z" fill="#EFD176"/>
<path d="M110.946 363.027C110.911 363.242 110.88 363.457 110.864 363.675L101.434 486.956C106.375 487.803 111.319 488.611 116.266 489.378C116.297 489.178 116.325 488.983 116.34 488.778L125.778 365.4C120.829 364.653 115.885 363.862 110.946 363.027Z" fill="#F7EF87"/>
<path d="M401.137 363.676C401.121 363.457 401.09 363.242 401.055 363.028C396.117 363.86 391.173 364.65 386.223 365.399L395.661 488.782C395.677 488.982 395.704 489.182 395.735 489.382C400.684 488.617 405.628 487.809 410.567 486.96L401.137 363.676Z" fill="#EFD176"/>
</svg>
