<svg width="512" height="512" viewBox="0 0 512 512" fill="none" xmlns="http://www.w3.org/2000/svg">
<path d="M505.335 241.352L388.12 124.137C375.642 111.66 358.719 104.65 341.073 104.649H170.921C153.277 104.65 136.355 111.66 123.878 124.137L6.6594 241.352C2.39532 245.619 0 251.404 0 257.436C0 263.468 2.39532 269.253 6.6594 273.52L28.1324 294.993C30.2446 297.105 32.7521 298.781 35.5118 299.924C38.2715 301.067 41.2293 301.655 44.2164 301.655C47.2035 301.655 50.1613 301.067 52.921 299.924C55.6807 298.781 58.1882 297.105 60.3004 294.993L143.366 211.931V355.3C143.366 360.309 144.352 365.269 146.269 369.896C148.186 374.524 150.995 378.729 154.537 382.271C158.079 385.812 162.283 388.622 166.911 390.538C171.539 392.455 176.499 393.441 181.507 393.441H330.491C335.5 393.441 340.46 392.455 345.088 390.538C349.715 388.622 353.92 385.812 357.462 382.271C361.004 378.729 363.813 374.524 365.73 369.896C367.647 365.269 368.633 360.309 368.632 355.3V211.93L451.699 294.992C453.812 297.104 456.319 298.78 459.079 299.923C461.838 301.066 464.796 301.654 467.783 301.654C470.77 301.654 473.728 301.066 476.488 299.923C479.248 298.78 481.755 297.104 483.867 294.992L505.339 273.52C509.604 269.253 511.999 263.467 511.998 257.435C511.997 251.403 509.601 245.618 505.335 241.352Z" fill="#4E5660"/>
<path d="M505.335 241.352L388.12 124.137C375.642 111.66 358.719 104.65 341.073 104.649H170.921C153.277 104.65 136.355 111.66 123.878 124.137L6.6594 241.352C2.39532 245.619 0 251.404 0 257.436C0 263.468 2.39532 269.253 6.6594 273.52L28.1324 294.993C30.2446 297.105 32.7521 298.781 35.5118 299.924C38.2715 301.067 41.2293 301.655 44.2164 301.655C47.2035 301.655 50.1613 301.067 52.921 299.924C55.6807 298.781 58.1882 297.105 60.3004 294.993L143.366 211.931V355.3C143.366 360.309 144.352 365.269 146.269 369.896C148.186 374.524 150.995 378.729 154.537 382.271C158.079 385.812 162.283 388.622 166.911 390.538C171.539 392.455 176.499 393.441 181.507 393.441H330.491C335.5 393.441 340.46 392.455 345.088 390.538C349.715 388.622 353.92 385.812 357.462 382.271C361.004 378.729 363.813 374.524 365.73 369.896C367.647 365.269 368.633 360.309 368.632 355.3V211.93L451.699 294.992C453.812 297.104 456.319 298.78 459.079 299.923C461.838 301.066 464.796 301.654 467.783 301.654C470.77 301.654 473.728 301.066 476.488 299.923C479.248 298.78 481.755 297.104 483.867 294.992L505.339 273.52C509.604 269.253 511.999 263.467 511.998 257.435C511.997 251.403 509.601 245.618 505.335 241.352Z" fill="#4E5660"/>
<path d="M338.026 104.648H170.921C153.277 104.649 136.355 111.659 123.878 124.136L6.6594 241.352C2.39532 245.619 0 251.404 0 257.436C0 263.468 2.39532 269.253 6.6594 273.52L28.1324 294.993C30.2446 297.105 32.7521 298.781 35.5118 299.924C38.2715 301.067 41.2293 301.655 44.2164 301.655C47.2035 301.655 50.1613 301.067 52.921 299.924C55.6807 298.781 58.1882 297.105 60.3004 294.993L143.366 211.931V355.3C143.366 360.309 144.352 365.269 146.269 369.896C148.186 374.524 150.995 378.729 154.537 382.271C158.079 385.812 162.283 388.622 166.911 390.538C171.539 392.455 176.499 393.441 181.507 393.441H292.96C259.378 352.863 231.8 295 215.46 237.57L266.452 265.379C269.397 266.995 272.847 267.425 276.098 266.582C279.349 265.739 282.156 263.687 283.944 260.844C285.138 258.97 285.836 256.823 285.974 254.606C286.112 252.388 285.685 250.172 284.733 248.164L283.178 244.855L328.709 220.023C331.47 218.518 333.901 216.475 335.86 214.016C337.819 211.556 339.266 208.729 340.115 205.702C340.963 202.674 341.198 199.508 340.803 196.388C340.409 193.269 339.394 190.26 337.818 187.539L330.042 174.1C329.701 173.507 329.573 172.815 329.681 172.139C329.79 171.463 330.127 170.846 330.636 170.389L343.425 158.989C347.073 155.734 349.619 151.425 350.71 146.66C351.801 141.894 351.384 136.907 349.515 132.389L338.026 104.648Z" fill="#424952"/>
<path d="M323.788 162.707L336.577 151.307C338.633 149.475 340.068 147.049 340.683 144.364C341.298 141.68 341.061 138.871 340.007 136.327L326.707 104.227C325.397 101.059 323.505 98.1638 321.129 95.692L318.981 93.454C316.415 90.7811 313.335 88.6544 309.926 87.2016C306.517 85.7488 302.85 85 299.144 85H282.175L272.55 175.973L249.655 224.7C255.274 230.325 260.178 236.621 264.255 243.446L323.782 210.981C325.336 210.133 326.705 208.983 327.807 207.598C328.91 206.214 329.724 204.622 330.202 202.918C330.68 201.213 330.812 199.431 330.591 197.674C330.369 195.918 329.798 194.224 328.911 192.692L321.13 179.255C319.601 176.612 319.03 173.523 319.514 170.508C319.999 167.493 321.508 164.738 323.788 162.707Z" fill="#646F7E"/>
<path d="M264.222 193.7L249.655 224.7C255.274 230.323 260.177 236.618 264.255 243.442L282.833 233.313L264.222 193.7Z" fill="#4E5660"/>
<path d="M246.823 234.355L213.944 393.438H246.608L275.116 255.512L246.823 234.355Z" fill="#8ED2E2"/>
<path d="M243.05 252.613L266.45 265.375C268.38 266.431 270.543 266.988 272.743 266.996L275.118 255.516L246.825 234.36L243.05 252.613Z" fill="#6FB6E1"/>
<path d="M234.714 292.941L213.944 393.441H246.608L257.534 340.593C249.043 325.148 241.424 309.239 234.714 292.941Z" fill="#6FB6E1"/>
<path d="M229.823 85L239.448 175.973L275.417 252.536C275.677 253.093 275.755 253.718 275.64 254.321C275.524 254.925 275.221 255.476 274.773 255.898C274.325 256.319 273.756 256.588 273.147 256.667C272.537 256.745 271.918 256.63 271.378 256.336L188.214 210.981C186.66 210.133 185.291 208.983 184.188 207.598C183.084 206.213 182.27 204.621 181.792 202.916C181.314 201.211 181.182 199.428 181.404 197.671C181.626 195.915 182.198 194.22 183.085 192.688L190.862 179.254C192.392 176.611 192.964 173.522 192.481 170.507C191.998 167.492 190.489 164.735 188.21 162.703L175.417 151.303C173.363 149.47 171.929 147.044 171.315 144.359C170.701 141.675 170.937 138.867 171.991 136.323L185.284 104.223C186.597 101.055 188.491 98.1607 190.866 95.688L193.014 93.45C195.581 90.7774 198.662 88.6513 202.072 87.1992C205.481 85.7471 209.149 84.9991 212.854 85H229.823Z" fill="#646F7E"/>
<path d="M295.867 92.441L296.379 134.027C296.451 139.791 294.936 145.465 292 150.426L256 211.2L220 150.426C217.062 145.465 215.546 139.791 215.617 134.026L216.125 92.44C216.15 90.4574 216.955 88.5646 218.366 87.1719C219.778 85.7791 221.681 84.9988 223.664 85H288.336C290.318 84.9993 292.22 85.7802 293.63 87.1733C295.04 88.5663 295.843 90.4591 295.867 92.441Z" fill="#424952"/>
<path d="M60.2296 244.277L51.2766 253.234C49.9081 254.599 48.0538 255.366 46.1206 255.366C44.1874 255.366 42.3331 254.599 40.9646 253.234L17.5116 229.781C16.1471 228.413 15.3809 226.559 15.3809 224.626C15.3809 222.694 16.1471 220.84 17.5116 219.472L26.4686 210.519C27.1453 209.842 27.9489 209.305 28.8333 208.938C29.7177 208.571 30.6657 208.383 31.6231 208.383C32.5805 208.383 33.5285 208.571 34.4129 208.938C35.2973 209.305 36.1009 209.842 36.7776 210.519L60.2296 233.969C60.9067 234.646 61.4438 235.449 61.8102 236.333C62.1766 237.218 62.3652 238.166 62.3652 239.123C62.3652 240.08 62.1766 241.028 61.8102 241.912C61.4438 242.797 60.9067 243.6 60.2296 244.277Z" fill="#646F7E"/>
<path d="M451.769 244.277L460.722 253.234C462.091 254.6 463.945 255.367 465.879 255.367C467.812 255.367 469.667 254.6 471.035 253.234L494.484 229.781C495.162 229.104 495.699 228.301 496.065 227.416C496.432 226.532 496.621 225.584 496.621 224.627C496.621 223.669 496.432 222.721 496.065 221.837C495.699 220.952 495.162 220.149 494.484 219.472L485.531 210.519C484.164 209.152 482.309 208.384 480.375 208.384C478.442 208.384 476.587 209.152 475.219 210.519L451.769 233.969C451.092 234.646 450.555 235.449 450.189 236.334C449.822 237.218 449.634 238.166 449.634 239.123C449.634 240.08 449.822 241.028 450.189 241.913C450.555 242.797 451.092 243.6 451.769 244.277Z" fill="#646F7E"/>
<path d="M184.391 333.9C184.133 333.901 183.876 333.888 183.621 333.861C182.641 333.761 181.69 333.469 180.823 333.002C179.956 332.534 179.19 331.901 178.567 331.137C177.945 330.374 177.48 329.495 177.197 328.551C176.915 327.608 176.821 326.618 176.921 325.638L181.651 279.4C181.859 277.426 182.841 275.615 184.382 274.364C185.924 273.113 187.898 272.524 189.873 272.726C191.847 272.928 193.662 273.905 194.917 275.442C196.173 276.979 196.769 278.952 196.573 280.927L191.843 327.161C191.654 329.007 190.788 330.718 189.412 331.963C188.035 333.207 186.246 333.898 184.391 333.9Z" fill="white"/>
<path d="M327.608 333.9C325.753 333.898 323.965 333.209 322.588 331.965C321.212 330.721 320.345 329.012 320.155 327.166L315.428 280.928C315.32 279.944 315.408 278.948 315.686 277.998C315.964 277.048 316.428 276.163 317.05 275.393C317.672 274.623 318.441 273.984 319.311 273.512C320.182 273.041 321.137 272.746 322.122 272.646C323.107 272.545 324.102 272.641 325.049 272.927C325.997 273.212 326.879 273.683 327.644 274.312C328.409 274.94 329.042 275.714 329.506 276.588C329.971 277.462 330.258 278.419 330.35 279.405L335.077 325.639C335.177 326.619 335.083 327.609 334.801 328.552C334.518 329.496 334.053 330.375 333.431 331.138C332.808 331.902 332.042 332.535 331.175 333.003C330.308 333.47 329.357 333.762 328.377 333.862C328.122 333.888 327.865 333.901 327.608 333.9Z" fill="white"/>
</svg>
