<svg width="512" height="512" viewBox="0 0 512 512" fill="none" xmlns="http://www.w3.org/2000/svg">
<path d="M368.26 20.328C348.932 13.5778 328.093 12.417 308.135 16.9788C288.177 21.5407 269.911 31.6402 255.436 46.117L205.936 95.617V61.754C205.936 45.3753 199.429 29.6675 187.848 18.086C176.266 6.50446 160.559 -0.00195312 144.18 -0.00195312C127.801 -0.00195312 112.093 6.50446 100.512 18.086C88.9302 29.6675 82.4238 45.3753 82.4238 61.754V219.133L299.869 436.582L472.885 263.566C487.361 249.09 497.46 230.824 502.022 210.867C506.583 190.909 505.423 170.07 498.674 150.742C488.145 120.595 470.951 93.211 448.371 70.631C425.791 48.051 398.407 30.8564 368.26 20.328Z" fill="#8ED2E2"/>
<path d="M248.561 52.992L205.932 95.621V61.754C205.932 45.3753 199.426 29.6675 187.844 18.086C176.263 6.50446 160.555 -0.00195312 144.176 -0.00195312C127.797 -0.00195312 112.089 6.50446 100.508 18.086C88.9263 29.6675 82.4199 45.3753 82.4199 61.754V219.133L299.869 436.578L332.15 404.3C227.916 313.484 235.053 184.281 248.561 52.992Z" fill="#6FB6E1"/>
<path d="M82.4199 75.8002V219.133L299.869 436.582L423.49 312.961C306.611 269.785 276.459 223.895 242.402 138.023C234.25 117.476 223.929 101.429 212.308 89.2462L205.929 95.6212V83.0512C167.193 48.3402 116.561 52.5312 82.4199 75.8002Z" fill="#F7EF87"/>
<path d="M241.802 136.547C233.747 116.711 223.65 101.133 212.31 89.2472L205.935 95.6262V83.0512C167.193 48.3402 116.561 52.5312 82.4199 75.8002V219.133L299.869 436.578L332.15 404.3C250.202 332.9 237.092 237.766 241.802 136.547Z" fill="#EFD176"/>
<path d="M239.669 502.289L16.7122 279.328C10.4936 273.109 7 264.675 7 255.881C7 247.086 10.4936 238.652 16.7122 232.433L32.7712 216.379C35.8499 213.299 39.5053 210.856 43.5284 209.189C47.5516 207.522 51.8638 206.664 56.2187 206.664C60.5735 206.664 64.8857 207.522 68.9089 209.189C72.9321 210.856 76.5875 213.299 79.6662 216.379L302.622 439.336C305.702 442.415 308.145 446.07 309.812 450.093C311.479 454.117 312.337 458.429 312.337 462.784C312.337 467.138 311.479 471.451 309.812 475.474C308.145 479.497 305.702 483.152 302.622 486.231L286.563 502.286C283.484 505.366 279.829 507.809 275.806 509.475C271.783 511.142 267.471 512 263.117 512.001C258.762 512.001 254.45 511.143 250.427 509.477C246.404 507.811 242.748 505.368 239.669 502.289Z" fill="#F7EF87"/>
<path d="M188.963 184.168C165.197 134.461 119.69 114.922 82.4199 119.488V219.133L299.869 436.578L389.818 346.633C267.902 345.3 209.635 227.414 188.963 184.168Z" fill="#EDA1AB"/>
<path d="M185.861 322.555L196.466 333.164L133.517 396.113L122.908 385.508L185.861 322.555Z" fill="#EFD176"/>
<path d="M118.101 254.8L128.701 265.406L65.7515 328.359L55.1465 317.754L118.101 254.8Z" fill="#EFD176"/>
<path d="M253.623 390.313L264.228 400.918L201.275 463.871L190.67 453.266L253.623 390.313Z" fill="#EFD176"/>
<path d="M332.149 404.3C292.368 369.64 268.809 329.386 255.637 285.558C220.737 249.531 199.737 206.71 188.961 184.167C165.195 134.46 119.688 114.921 82.418 119.487V219.132L299.868 436.578L332.149 404.3Z" fill="#E68A97"/>
<path d="M423.488 117.238C421.499 117.238 419.591 116.448 418.185 115.041C416.778 113.635 415.988 111.727 415.988 109.738V92.48C415.988 90.4909 416.778 88.5832 418.185 87.1767C419.591 85.7702 421.499 84.98 423.488 84.98C425.477 84.98 427.385 85.7702 428.792 87.1767C430.198 88.5832 430.988 90.4909 430.988 92.48V109.738C430.988 111.727 430.198 113.635 428.792 115.041C427.385 116.448 425.477 117.238 423.488 117.238Z" fill="#6FB6E1"/>
<path d="M145.008 208.781H130.408C128.419 208.781 126.511 207.991 125.105 206.584C123.698 205.178 122.908 203.27 122.908 201.281C122.908 199.292 123.698 197.384 125.105 195.978C126.511 194.571 128.419 193.781 130.408 193.781H145.008C146.997 193.781 148.905 194.571 150.312 195.978C151.718 197.384 152.508 199.292 152.508 201.281C152.508 203.27 151.718 205.178 150.312 206.584C148.905 207.991 146.997 208.781 145.008 208.781Z" fill="#EDA1AB"/>
<path d="M294.783 370.16H280.932C278.943 370.16 277.035 369.37 275.628 367.963C274.222 366.557 273.432 364.649 273.432 362.66C273.432 360.671 274.222 358.763 275.628 357.357C277.035 355.95 278.943 355.16 280.932 355.16H294.784C296.773 355.16 298.68 355.95 300.087 357.357C301.493 358.763 302.284 360.671 302.284 362.66C302.284 364.649 301.493 366.557 300.087 367.963C298.68 369.37 296.773 370.16 294.784 370.16H294.783Z" fill="#EDA1AB"/>
<path d="M158.713 107.508C156.724 107.508 154.816 106.718 153.41 105.311C152.003 103.905 151.213 101.997 151.213 100.008V90.1799C151.213 88.1908 152.003 86.2832 153.41 84.8766C154.816 83.4701 156.724 82.6799 158.713 82.6799C160.702 82.6799 162.61 83.4701 164.016 84.8766C165.423 86.2832 166.213 88.1908 166.213 90.1799V100.008C166.213 101.997 165.423 103.905 164.016 105.311C162.61 106.718 160.702 107.508 158.713 107.508Z" fill="#F7EF87"/>
</svg>
