<svg width="512" height="512" viewBox="0 0 512 512" fill="none" xmlns="http://www.w3.org/2000/svg">
<path d="M409.871 204.605L389.949 184.68C384.562 179.293 381.536 171.986 381.535 164.368V23.77C381.535 20.6485 380.921 17.5575 379.726 14.6735C378.532 11.7896 376.781 9.16913 374.574 6.96184C372.367 4.75455 369.746 3.00366 366.862 1.80914C363.978 0.614616 360.888 -0.000131259 357.766 8.41616e-08H338.316C335.194 -0.000262599 332.103 0.614387 329.219 1.80885C326.335 3.00331 323.715 4.75418 321.507 6.96149C319.3 9.16879 317.549 11.7893 316.355 14.6733C315.16 17.5573 314.546 20.6484 314.546 23.77V132.2C314.546 137.173 312.571 141.942 309.054 145.458C305.538 148.975 300.769 150.95 295.796 150.95H216.633C211.66 150.95 206.891 148.975 203.375 145.458C199.858 141.942 197.883 137.173 197.883 132.2V23.77C197.883 20.6484 197.269 17.5573 196.074 14.6733C194.88 11.7893 193.129 9.16879 190.922 6.96149C188.714 4.75418 186.094 3.00331 183.21 1.80885C180.326 0.614387 177.235 -0.000262599 174.113 8.41616e-08H154.664C148.36 8.41616e-08 142.314 2.50433 137.856 6.96207C133.398 11.4198 130.894 17.4658 130.894 23.77V164.37C130.893 171.988 127.866 179.293 122.48 184.68L102.559 204.6C97.9432 209.215 94.2817 214.694 91.7837 220.725C89.2856 226.755 87.9999 233.219 88 239.746V475.574C88 485.235 91.8377 494.5 98.6689 501.331C105.5 508.162 114.765 512 124.426 512H183.719C192.639 512 201.365 509.404 208.835 504.528C216.304 499.653 222.192 492.708 225.782 484.543L256.216 415.32L286.65 484.547C290.24 492.711 296.129 499.655 303.597 504.529C311.066 509.404 319.792 512 328.711 512H388C397.661 512 406.926 508.162 413.757 501.331C420.588 494.5 424.426 485.235 424.426 475.574V239.746C424.426 226.566 419.19 213.925 409.871 204.605Z" fill="#99DA90"/>
<path d="M216.633 150.957C211.66 150.957 206.891 148.982 203.375 145.465C199.858 141.949 197.883 137.18 197.883 132.207V23.77C197.883 20.6484 197.269 17.5573 196.074 14.6733C194.88 11.7893 193.129 9.16879 190.922 6.96149C188.714 4.75418 186.094 3.00331 183.21 1.80885C180.326 0.614387 177.235 -0.000262599 174.113 8.41616e-08H154.664C148.36 8.41616e-08 142.314 2.50433 137.856 6.96207C133.398 11.4198 130.894 17.4658 130.894 23.77V164.37C130.893 171.988 127.866 179.293 122.48 184.68L102.559 204.6C97.9432 209.215 94.2817 214.694 91.7837 220.725C89.2856 226.755 87.9999 233.219 88 239.746V475.574C88 485.235 91.8377 494.5 98.6689 501.331C105.5 508.162 114.765 512 124.426 512H183.719C192.639 512 201.365 509.404 208.835 504.528C216.304 499.653 222.192 492.708 225.782 484.543L246.669 437.035C217.442 369.715 223.036 265.867 232.177 150.953H216.633V150.957Z" fill="#6FCE91"/>
<path d="M194.527 110.414H134.254C132.388 110.414 130.54 110.047 128.816 109.333C127.092 108.619 125.526 107.573 124.206 106.254C122.886 104.934 121.84 103.368 121.125 101.644C120.411 99.9206 120.043 98.073 120.043 96.207V67.383C120.043 65.5171 120.411 63.6694 121.125 61.9456C121.84 60.2218 122.886 58.6556 124.206 57.3363C125.526 56.0171 127.092 54.9707 128.816 54.2569C130.54 53.543 132.388 53.1758 134.254 53.176H194.527C198.295 53.1763 201.908 54.6732 204.573 57.3375C207.237 60.0017 208.734 63.6152 208.734 67.383V96.207C208.734 99.9749 207.237 103.588 204.573 106.253C201.908 108.917 198.295 110.414 194.527 110.414Z" fill="#F7EF87"/>
<path d="M317.9 110.414H378.173C380.039 110.414 381.887 110.047 383.611 109.333C385.335 108.619 386.901 107.573 388.221 106.254C389.541 104.934 390.588 103.368 391.302 101.644C392.016 99.9206 392.384 98.073 392.384 96.207V67.383C392.384 65.5171 392.016 63.6694 391.302 61.9456C390.588 60.2218 389.541 58.6556 388.221 57.3363C386.901 56.0171 385.335 54.9707 383.611 54.2569C381.887 53.543 380.039 53.1758 378.173 53.176H317.9C314.134 53.1781 310.522 54.6759 307.859 57.3399C305.196 60.004 303.7 63.6164 303.7 67.383V96.207C303.7 99.9739 305.195 103.587 307.858 106.251C310.521 108.915 314.133 110.413 317.9 110.414Z" fill="#F7EF87"/>
<path d="M365.094 89.3H330.988C328.999 89.3 327.091 88.5099 325.685 87.1033C324.278 85.6968 323.488 83.7892 323.488 81.8C323.488 79.8109 324.278 77.9033 325.685 76.4967C327.091 75.0902 328.999 74.3 330.988 74.3H365.093C367.082 74.3 368.99 75.0902 370.397 76.4967C371.803 77.9033 372.593 79.8109 372.593 81.8C372.593 83.7892 371.803 85.6968 370.397 87.1033C368.99 88.5099 367.082 89.3 365.093 89.3H365.094Z" fill="#99DA90"/>
<path d="M310.125 190.453H202.3C200.65 190.453 199.016 190.778 197.491 191.409C195.967 192.041 194.581 192.966 193.415 194.133C192.248 195.3 191.322 196.686 190.691 198.21C190.059 199.735 189.734 201.369 189.734 203.019V244.55C189.734 253.971 193.267 263.049 199.634 269.991C203.393 274.088 207.961 277.359 213.05 279.597C218.139 281.835 223.638 282.991 229.197 282.991H283.224C288.784 282.991 294.283 281.835 299.372 279.597C304.461 277.36 309.029 274.088 312.787 269.991C319.155 263.049 322.687 253.971 322.687 244.55V203.02C322.688 199.688 321.365 196.492 319.009 194.135C316.653 191.778 313.458 190.454 310.125 190.453Z" fill="#F7EF87"/>
<path d="M236.3 190.453H202.3C200.65 190.453 199.016 190.778 197.491 191.409C195.967 192.041 194.581 192.966 193.415 194.133C192.248 195.3 191.322 196.686 190.691 198.21C190.059 199.735 189.734 201.369 189.734 203.019V244.55C189.733 253.971 193.265 263.049 199.634 269.991C203.392 274.088 207.96 277.359 213.048 279.597C218.136 281.835 223.635 282.991 229.193 282.991H250.275C239.352 263.137 231.258 216.629 236.3 190.453Z" fill="#EFD176"/>
<path d="M322.691 219.707H189.738V203.02C189.738 199.688 191.061 196.492 193.417 194.135C195.773 191.778 198.968 190.454 202.3 190.453H310.12C311.771 190.453 313.405 190.778 314.929 191.409C316.454 192.041 317.839 192.966 319.006 194.133C320.173 195.3 321.099 196.686 321.73 198.21C322.361 199.735 322.686 201.369 322.686 203.019L322.691 219.707Z" fill="white"/>
<path d="M88 399.656C107.352 399.656 121.359 378.765 121.359 364.683C121.359 362.694 122.149 360.786 123.556 359.38C124.962 357.973 126.87 357.183 128.859 357.183C130.848 357.183 132.756 357.973 134.162 359.38C135.569 360.786 136.359 362.694 136.359 364.683C136.359 392.828 110.359 414.656 88 414.656V399.656Z" fill="#99DA90"/>
<path d="M424.43 414.656C402.067 414.656 376.071 392.828 376.071 364.683C376.071 362.694 376.861 360.786 378.268 359.38C379.674 357.973 381.582 357.183 383.571 357.183C385.56 357.183 387.468 357.973 388.875 359.38C390.281 360.786 391.071 362.694 391.071 364.683C391.071 378.765 405.079 399.656 424.43 399.656V414.656Z" fill="#6FCE91"/>
<path d="M278.406 465.8L286.648 484.55C290.239 492.714 296.128 499.657 303.597 504.531C311.066 509.406 319.792 512.001 328.711 512H388C397.661 512 406.926 508.162 413.757 501.331C420.589 494.5 424.426 485.235 424.426 475.574V465.8H278.406Z" fill="#6FCE91"/>
<path d="M124.426 512H183.726C192.645 512 201.37 509.404 208.839 504.529C216.307 499.654 222.195 492.711 225.785 484.547L234.027 465.797H88V475.574C88 485.235 91.8377 494.5 98.6689 501.331C105.5 508.162 114.765 512 124.426 512Z" fill="#99DA90"/>
<path d="M269.6 329.57H242.832C240.843 329.57 238.935 328.78 237.529 327.373C236.122 325.967 235.332 324.059 235.332 322.07C235.332 320.081 236.122 318.173 237.529 316.767C238.935 315.36 240.843 314.57 242.832 314.57H269.6C271.589 314.57 273.497 315.36 274.903 316.767C276.31 318.173 277.1 320.081 277.1 322.07C277.1 324.059 276.31 325.967 274.903 327.373C273.497 328.78 271.589 329.57 269.6 329.57Z" fill="#6FCE91"/>
<path d="M206.254 329.57H179.488C177.499 329.57 175.592 328.78 174.185 327.373C172.778 325.967 171.988 324.059 171.988 322.07C171.988 320.081 172.778 318.173 174.185 316.767C175.592 315.36 177.499 314.57 179.488 314.57H206.254C208.243 314.57 210.151 315.36 211.558 316.767C212.964 318.173 213.754 320.081 213.754 322.07C213.754 324.059 212.964 325.967 211.558 327.373C210.151 328.78 208.243 329.57 206.254 329.57Z" fill="#99DA90"/>
<path d="M142.91 329.57H116.145C114.155 329.57 112.248 328.78 110.841 327.373C109.435 325.967 108.645 324.059 108.645 322.07C108.645 320.081 109.435 318.173 110.841 316.767C112.248 315.36 114.155 314.57 116.145 314.57H142.91C144.899 314.57 146.806 315.36 148.213 316.767C149.619 318.173 150.41 320.081 150.41 322.07C150.41 324.059 149.619 325.967 148.213 327.373C146.806 328.78 144.899 329.57 142.91 329.57Z" fill="#99DA90"/>
<path d="M332.941 329.57H306.176C304.187 329.57 302.279 328.78 300.872 327.373C299.466 325.967 298.676 324.059 298.676 322.07C298.676 320.081 299.466 318.173 300.872 316.767C302.279 315.36 304.187 314.57 306.176 314.57H332.942C334.931 314.57 336.839 315.36 338.245 316.767C339.652 318.173 340.442 320.081 340.442 322.07C340.442 324.059 339.652 325.967 338.245 327.373C336.839 328.78 334.931 329.57 332.942 329.57H332.941Z" fill="#6FCE91"/>
<path d="M396.285 329.57H369.52C367.53 329.57 365.623 328.78 364.216 327.373C362.81 325.967 362.02 324.059 362.02 322.07C362.02 320.081 362.81 318.173 364.216 316.767C365.623 315.36 367.53 314.57 369.52 314.57H396.286C398.275 314.57 400.182 315.36 401.589 316.767C402.995 318.173 403.786 320.081 403.786 322.07C403.786 324.059 402.995 325.967 401.589 327.373C400.182 328.78 398.275 329.57 396.286 329.57H396.285Z" fill="#6FCE91"/>
<path d="M236.3 190.453H202.3C200.65 190.453 199.016 190.778 197.491 191.409C195.967 192.041 194.581 192.966 193.415 194.133C192.248 195.3 191.322 196.686 190.691 198.21C190.059 199.735 189.734 201.369 189.734 203.019V219.7H235.117C234.43 208.918 234.719 198.68 236.3 190.453Z" fill="#F6E3A3"/>
<path d="M181.441 89.3H147.34C145.351 89.3 143.443 88.5099 142.037 87.1033C140.63 85.6968 139.84 83.7892 139.84 81.8C139.84 79.8109 140.63 77.9033 142.037 76.4967C143.443 75.0902 145.351 74.3 147.34 74.3H181.44C183.429 74.3 185.337 75.0902 186.743 76.4967C188.15 77.9033 188.94 79.8109 188.94 81.8C188.94 83.7892 188.15 85.6968 186.743 87.1033C185.337 88.5099 183.429 89.3 181.44 89.3H181.441Z" fill="#6FCE91"/>
</svg>
