<svg width="513" height="512" viewBox="0 0 513 512" fill="none" xmlns="http://www.w3.org/2000/svg">
<path d="M335.895 119.442C283.925 102.852 228.08 102.852 176.11 119.442C157.365 125.426 141.007 137.214 129.4 153.103C117.792 168.992 111.537 188.16 111.536 207.837V260.872H400.466V207.837C400.466 188.16 394.21 168.993 382.603 153.104C370.997 137.215 354.64 125.427 335.895 119.442Z" fill="#F7EF87"/>
<path d="M249.105 107.101C224.311 107.748 199.734 111.904 176.105 119.445C157.36 125.427 141.002 137.214 129.394 153.103C117.787 168.992 111.531 188.159 111.531 207.836V260.875H238.7C225.508 210.021 227.961 154.13 249.105 107.101Z" fill="#EFD176"/>
<path d="M400.465 260.872C419.617 275.716 454.844 290.856 489.348 303.63C519.063 314.63 519.696 356.318 490.368 368.314C432.031 392.173 352.77 406.763 256 406.763C159.23 406.763 79.9731 392.173 21.6331 368.314C-7.69092 356.314 -7.05792 314.634 22.6561 303.63C57.1561 290.857 92.3861 275.72 111.539 260.872H400.465Z" fill="#F7EF87"/>
<path d="M238.7 260.872H111.535C92.3875 275.716 57.1565 290.856 22.6525 303.63C-7.05854 314.63 -7.69154 356.318 21.6325 368.314C79.9725 392.173 159.232 406.763 255.999 406.763C289.581 406.858 323.138 404.929 356.487 400.986C273.5 401.817 208.9 333.817 238.7 260.872Z" fill="#EFD176"/>
<path d="M111.535 207.837H400.465V260.872H111.535V207.837Z" fill="#EDA1AB"/>
<path d="M230.789 207.837H111.535V260.872H238.7C234.201 243.522 231.549 225.745 230.789 207.837Z" fill="#E68A97"/>
<path d="M172.363 402.829C198.547 405.395 226.453 406.763 256 406.763C352.77 406.763 432.031 392.173 490.367 368.314C519.691 356.314 519.058 314.634 489.347 303.63C391.289 270.638 331.043 401.79 172.363 402.829Z" fill="#E1B89A"/>
<path d="M211.067 267.231H159.137C157.938 267.231 156.751 266.995 155.643 266.536C154.535 266.078 153.529 265.405 152.681 264.558C151.833 263.71 151.161 262.703 150.702 261.596C150.243 260.488 150.008 259.301 150.008 258.102V210.61C150.008 209.411 150.243 208.223 150.702 207.115C151.161 206.007 151.833 205.001 152.681 204.153C153.529 203.305 154.535 202.632 155.643 202.173C156.75 201.714 157.938 201.477 159.137 201.477H211.067C213.489 201.477 215.812 202.439 217.525 204.152C219.237 205.865 220.2 208.188 220.2 210.61V258.101C220.2 259.3 219.963 260.487 219.504 261.595C219.045 262.703 218.372 263.71 217.524 264.557C216.676 265.405 215.669 266.078 214.561 266.536C213.453 266.995 212.266 267.231 211.067 267.231Z" fill="#EDA1AB"/>
<path d="M81.344 352.544C79.8616 352.542 78.4128 352.102 77.1807 351.278C75.9485 350.454 74.9882 349.283 74.4211 347.913C73.854 346.543 73.7055 345.036 73.9943 343.582C74.2832 342.128 74.9964 340.793 76.044 339.744L91.774 324.014C93.1885 322.648 95.083 321.892 97.0495 321.909C99.016 321.926 100.897 322.715 102.288 324.105C103.678 325.496 104.467 327.377 104.484 329.343C104.501 331.31 103.745 333.204 102.379 334.619L86.649 350.349C85.9531 351.046 85.1261 351.599 84.2157 351.976C83.3052 352.353 82.3293 352.546 81.344 352.544Z" fill="#F7EF87"/>
<path d="M134.524 349.794C133.041 349.792 131.593 349.352 130.36 348.528C129.128 347.703 128.168 346.533 127.601 345.163C127.034 343.793 126.885 342.286 127.174 340.832C127.463 339.378 128.176 338.043 129.224 336.994L148.404 317.814C149.823 316.468 151.711 315.73 153.666 315.757C155.621 315.784 157.488 316.573 158.87 317.956C160.252 319.339 161.039 321.208 161.063 323.163C161.088 325.118 160.348 327.005 159.001 328.423L139.829 347.601C139.132 348.298 138.305 348.85 137.395 349.226C136.485 349.603 135.509 349.796 134.524 349.794Z" fill="#F7EF87"/>
<path d="M329.949 317.478C328.467 317.477 327.018 317.036 325.786 316.212C324.554 315.388 323.594 314.217 323.027 312.847C322.459 311.478 322.311 309.971 322.6 308.517C322.889 307.063 323.602 305.727 324.649 304.678L339.735 289.592C341.15 288.226 343.044 287.47 345.011 287.487C346.977 287.504 348.859 288.293 350.249 289.683C351.64 291.074 352.428 292.955 352.446 294.921C352.463 296.888 351.707 298.782 350.34 300.197L335.254 315.283C334.558 315.98 333.731 316.533 332.821 316.91C331.911 317.287 330.935 317.48 329.949 317.478Z" fill="#EFD176"/>
</svg>
