<svg width="514" height="512" viewBox="0 0 514 512" fill="none" xmlns="http://www.w3.org/2000/svg">
<path d="M44.3661 260.145C44.3661 247.211 35.8391 236.731 25.3191 236.731C14.7991 236.731 6.27612 247.211 6.27612 260.145C6.27612 273.079 14.7991 283.559 25.3191 283.559C35.8391 283.559 44.3661 273.074 44.3661 260.145Z" fill="#F6E3A3"/>
<path d="M90.972 274.746C93.218 262.012 86.64 250.207 76.281 248.383C65.922 246.559 55.707 255.399 53.461 268.133C51.215 280.867 57.793 292.676 68.152 294.5C78.511 296.324 88.726 287.48 90.972 274.746Z" fill="#F6E3A3"/>
<path d="M135.663 295.629C140.085 283.477 135.663 270.711 125.776 267.113C115.889 263.515 104.292 270.449 99.87 282.601C95.448 294.753 99.87 307.519 109.757 311.117C119.644 314.715 131.241 307.781 135.663 295.629Z" fill="#F6E3A3"/>
<path d="M177.858 321.434C184.323 310.234 182.182 296.891 173.073 291.634C163.964 286.377 151.339 291.189 144.873 302.388C138.407 313.587 140.549 326.931 149.658 332.188C158.767 337.445 171.394 332.633 177.858 321.434Z" fill="#F6E3A3"/>
<path d="M507.722 260.145C507.722 247.211 499.195 236.731 488.675 236.731C478.155 236.731 469.632 247.211 469.632 260.145C469.632 273.079 478.159 283.559 488.675 283.559C499.191 283.559 507.722 273.074 507.722 260.145Z" fill="#F6E3A3"/>
<path d="M423.054 274.734C425.3 287.468 435.515 296.312 445.874 294.488C456.233 292.664 462.812 280.855 460.565 268.121C458.318 255.387 448.104 246.543 437.745 248.367C427.386 250.191 420.808 262 423.054 274.734Z" fill="#F6E3A3"/>
<path d="M378.343 295.621C382.765 307.773 394.363 314.707 404.249 311.109C414.135 307.511 418.558 294.746 414.136 282.593C409.714 270.44 398.116 263.507 388.236 267.101C378.356 270.695 373.921 283.469 378.343 295.621Z" fill="#F6E3A3"/>
<path d="M336.144 321.449C342.609 332.649 355.234 337.465 364.344 332.203C373.454 326.941 375.594 313.603 369.129 302.403C362.664 291.203 350.039 286.391 340.929 291.649C331.819 296.907 329.675 310.25 336.144 321.449Z" fill="#F6E3A3"/>
<path d="M256.999 353.4C273.362 353.4 304.199 349.271 326.886 340.689C330.888 339.178 334.307 336.434 336.648 332.853C365.175 289.053 433.711 264.427 491.687 259.513C497.661 258.983 503.203 256.178 507.167 251.678C511.131 247.177 513.215 241.326 512.987 235.333C512.464 220.052 510.687 199.47 505.952 179.29C504.49 173.035 500.786 167.533 495.542 163.824C490.297 160.115 483.876 158.455 477.491 159.16C421.729 165.336 298.378 175.16 256.999 175.16C215.62 175.16 92.269 165.336 36.507 159.16C30.1225 158.457 23.7015 160.117 18.4579 163.826C13.2144 167.536 9.51172 173.038 8.05002 179.293C3.31902 199.473 1.54202 220.059 1.01502 235.336C0.786651 241.329 2.87004 247.181 6.8344 251.681C10.7988 256.182 16.341 258.987 22.315 259.516C80.295 264.43 148.827 289.055 177.354 332.856C179.695 336.437 183.114 339.181 187.116 340.692C209.799 349.273 240.632 353.4 256.999 353.4Z" fill="#EDA1AB"/>
<path d="M177.351 332.855C179.692 336.436 183.111 339.18 187.113 340.691C203.413 346.855 223.922 350.726 240.246 352.414C205.394 319.852 172.511 235.477 178.976 171.4C128.843 167.977 70.28 162.9 36.507 159.16C30.1225 158.457 23.7015 160.117 18.4579 163.826C13.2144 167.536 9.51172 173.038 8.05002 179.293C3.31902 199.473 1.54202 220.059 1.01502 235.336C0.786651 241.329 2.87004 247.181 6.8344 251.681C10.7988 256.182 16.341 258.987 22.315 259.516C80.288 264.43 148.823 289.055 177.351 332.855Z" fill="#E68A97"/>
<path d="M204.968 173.066L180.413 336.512C182.351 338.33 184.628 339.751 187.113 340.692C209.799 349.273 240.632 353.4 256.999 353.4C273.366 353.4 304.199 349.271 326.886 340.689C329.372 339.749 331.648 338.328 333.586 336.509L309.026 173.066C287.326 174.355 268.815 175.156 256.999 175.156C245.183 175.156 226.675 174.355 204.968 173.066Z" fill="#FCF2D0"/>
<path d="M240.245 352.414C221.3 334.714 202.945 301.714 191.163 264.973L180.417 336.512C182.354 338.332 184.631 339.752 187.117 340.692C203.413 346.855 223.921 350.727 240.245 352.414Z" fill="#F6E3A3"/>
<path d="M242.769 223.109C238.888 223.173 235.023 222.592 231.332 221.39C228.921 220.526 226.704 219.193 224.809 217.469C222.914 215.745 221.379 213.664 220.291 211.345C219.202 209.026 218.583 206.515 218.468 203.956C218.353 201.397 218.745 198.841 219.621 196.433C220.497 194.026 221.84 191.816 223.572 189.929C225.305 188.042 227.393 186.516 229.717 185.439C232.041 184.362 234.555 183.754 237.115 183.651C239.674 183.548 242.229 183.952 244.632 184.839C248.941 186.405 254.261 190.148 258.191 194.37C263.98 200.589 266.058 207.061 264.043 212.6C262.028 218.139 256.273 221.76 247.843 222.8C246.16 223.008 244.465 223.111 242.769 223.109ZM256.999 210.035H257.007H256.999ZM237.987 198.668C236.941 198.667 235.927 199.035 235.125 199.707C234.323 200.379 233.784 201.312 233.602 202.343C233.42 203.374 233.607 204.435 234.131 205.341C234.654 206.248 235.48 206.94 236.464 207.297C239.859 208.535 246.374 208.266 249.304 207.238C247.722 204.562 242.904 200.172 239.504 198.938C239.018 198.761 238.505 198.67 237.987 198.668Z" fill="#EDA1AB"/>
<path d="M271.226 223.109C269.529 223.112 267.833 223.012 266.148 222.809C257.718 221.766 251.968 218.141 249.948 212.609C247.928 207.077 250.007 200.597 255.796 194.379C259.726 190.156 265.05 186.414 269.355 184.848C271.758 183.961 274.313 183.557 276.872 183.66C279.432 183.763 281.946 184.371 284.27 185.448C286.594 186.525 288.682 188.051 290.415 189.938C292.148 191.825 293.49 194.035 294.366 196.442C295.242 198.85 295.634 201.406 295.519 203.965C295.404 206.524 294.785 209.035 293.697 211.354C292.608 213.673 291.073 215.754 289.178 217.478C287.283 219.202 285.066 220.535 282.655 221.399C278.966 222.597 275.104 223.175 271.226 223.109ZM264.691 207.234C267.621 208.265 274.136 208.534 277.535 207.297C278.626 206.879 279.508 206.05 279.992 204.987C280.477 203.925 280.524 202.714 280.125 201.617C279.725 200.52 278.91 199.624 277.855 199.122C276.801 198.62 275.592 198.553 274.488 198.934C271.093 200.172 266.272 204.563 264.69 207.234H264.691Z" fill="#EDA1AB"/>
<path d="M243.335 241.555C242.977 241.554 242.619 241.528 242.265 241.477C240.296 241.196 238.52 240.144 237.327 238.553C236.133 236.962 235.621 234.962 235.902 232.993C237.984 218.431 242.602 212.376 252.164 204.306C253.689 203.072 255.638 202.485 257.591 202.671C259.544 202.857 261.347 203.801 262.612 205.3C263.877 206.8 264.505 208.735 264.36 210.692C264.215 212.649 263.309 214.471 261.836 215.767C254.391 222.052 252.172 225.167 250.754 235.115C250.498 236.901 249.607 238.535 248.245 239.718C246.882 240.9 245.139 241.553 243.335 241.555Z" fill="#EDA1AB"/>
<path d="M270.659 241.555C268.855 241.552 267.113 240.9 265.751 239.717C264.389 238.534 263.5 236.9 263.245 235.114C261.823 225.169 259.604 222.052 252.163 215.766C251.41 215.131 250.79 214.354 250.337 213.479C249.885 212.604 249.609 211.649 249.526 210.667C249.442 209.686 249.553 208.698 249.852 207.759C250.15 206.82 250.631 205.95 251.266 205.197C251.901 204.444 252.678 203.824 253.553 203.371C254.428 202.919 255.383 202.643 256.365 202.56C257.346 202.476 258.334 202.587 259.273 202.886C260.212 203.184 261.082 203.665 261.835 204.3C271.398 212.366 276.015 218.425 278.093 232.988C278.374 234.957 277.862 236.957 276.668 238.548C275.475 240.139 273.699 241.19 271.73 241.472C271.375 241.525 271.018 241.553 270.659 241.555Z" fill="#EDA1AB"/>
</svg>
