<svg width="512" height="512" viewBox="0 0 512 512" fill="none" xmlns="http://www.w3.org/2000/svg">
<path d="M58 34.656V473.965C58.0011 484.053 62.0092 493.727 69.1428 500.86C76.2764 507.993 85.9511 512 96.039 512H170.531C179.57 512 188.314 508.78 195.195 502.919C202.076 497.057 206.645 488.936 208.082 480.012L255.59 185.117L303.1 480.012C304.537 488.936 309.105 497.056 315.986 502.918C322.866 508.779 331.609 511.999 340.648 512H415.14C425.229 512 434.904 507.992 442.037 500.858C449.171 493.725 453.179 484.049 453.179 473.961V34.656C453.178 25.4645 449.526 16.65 443.026 10.1509C436.526 3.65185 427.711 0.000530282 418.52 1.44509e-08L92.66 1.44509e-08C83.4682 -0.000265226 74.6528 3.65077 68.1528 10.15C61.6528 16.6492 58.0008 25.4642 58 34.656H58Z" fill="#8ED2E2"/>
<path d="M92.66 0C83.4676 0 74.6517 3.65167 68.1517 10.1517C61.6517 16.6517 58 25.4676 58 34.66V473.96C57.9995 478.956 58.983 483.902 60.8945 488.518C62.8059 493.133 65.6078 497.327 69.1401 500.859C72.6725 504.392 76.8661 507.194 81.4814 509.105C86.0968 511.017 91.0435 512 96.039 512H170.531C179.57 512.001 188.314 508.782 195.195 502.921C202.076 497.06 206.645 488.94 208.082 480.016L224.156 380.235C202.25 261.938 193.922 104.281 200.309 0H92.66Z" fill="#6FB6E1"/>
<path d="M361.945 380.152C360.463 380.151 359.014 379.71 357.782 378.886C356.55 378.062 355.589 376.891 355.022 375.521C354.455 374.151 354.307 372.645 354.595 371.191C354.884 369.737 355.598 368.401 356.645 367.352L372.086 351.9C373.493 350.494 375.401 349.704 377.39 349.704C379.379 349.704 381.287 350.495 382.693 351.902C384.099 353.309 384.889 355.217 384.889 357.206C384.888 359.195 384.098 361.103 382.691 362.509L367.246 377.95C366.551 378.648 365.725 379.203 364.816 379.581C363.906 379.958 362.93 380.153 361.945 380.152Z" fill="#6FB6E1"/>
<path d="M374.152 332.074C372.67 332.073 371.221 331.632 369.989 330.808C368.757 329.984 367.796 328.813 367.229 327.443C366.662 326.074 366.514 324.567 366.802 323.113C367.091 321.659 367.805 320.323 368.852 319.274L386.786 301.337C388.201 299.971 390.095 299.215 392.062 299.232C394.028 299.249 395.909 300.038 397.3 301.428C398.69 302.819 399.479 304.7 399.496 306.667C399.513 308.633 398.757 310.528 397.391 311.942L379.457 329.88C378.761 330.577 377.934 331.13 377.024 331.507C376.113 331.883 375.137 332.076 374.152 332.074Z" fill="#6FB6E1"/>
<path d="M254.3 162.492C253.345 162.492 252.4 162.304 251.518 161.939C250.635 161.573 249.834 161.038 249.159 160.363C248.484 159.688 247.948 158.886 247.583 158.004C247.218 157.122 247.03 156.177 247.03 155.222V57.8589H300.83V115.968C300.83 122.078 299.626 128.128 297.288 133.773C294.949 139.418 291.522 144.547 287.201 148.867C282.88 153.187 277.751 156.614 272.105 158.952C266.46 161.29 260.41 162.493 254.3 162.492Z" fill="#6FB6E1"/>
<path d="M453.176 57.859H58V34.659C58 30.1074 58.8965 25.6004 60.6384 21.3953C62.3802 17.1903 64.9332 13.3694 68.1517 10.151C71.3702 6.93263 75.1911 4.37969 79.3963 2.63797C83.6014 0.896253 88.1084 -0.00013131 92.66 1.44276e-08L418.52 1.44276e-08C427.711 1.44276e-08 436.526 3.65125 443.025 10.1505C449.525 16.6498 453.176 25.4647 453.176 34.656V57.859Z" fill="#FCF2D0"/>
<path d="M92.66 7.03125e-05C83.4676 7.03125e-05 74.6517 3.65174 68.1517 10.1517C61.6517 16.6518 58 25.4677 58 34.6601L58 57.8601H198.316C198.55 37.3131 199.216 17.8721 200.308 -0.00292969L92.66 7.03125e-05Z" fill="#F6E3A3"/>
<path d="M159.445 68.176H142.345C141.194 68.1761 140.055 67.9496 138.992 67.5093C137.929 67.069 136.963 66.4236 136.149 65.61C135.335 64.7963 134.69 63.8303 134.25 62.7672C133.809 61.7041 133.583 60.5647 133.583 59.414V0H168.208V59.414C168.208 60.5648 167.982 61.7043 167.541 62.7675C167.101 63.8306 166.455 64.7966 165.642 65.6103C164.828 66.424 163.862 67.0694 162.799 67.5096C161.735 67.9498 160.596 68.1763 159.445 68.176Z" fill="#6FB6E1"/>
<path d="M351.734 68.176H368.834C369.985 68.1761 371.124 67.9496 372.187 67.5093C373.25 67.069 374.216 66.4236 375.03 65.61C375.844 64.7963 376.489 63.8303 376.929 62.7672C377.369 61.7041 377.596 60.5647 377.596 59.414V0H342.973V59.414C342.973 60.5646 343.199 61.7039 343.64 62.767C344.08 63.83 344.725 64.796 345.539 65.6096C346.352 66.4232 347.318 67.0687 348.381 67.509C349.444 67.9494 350.583 68.176 351.734 68.176Z" fill="#8ED2E2"/>
<path d="M58 161.324C83.324 161.324 110.434 140.062 110.434 108.41C110.434 106.421 111.224 104.513 112.631 103.107C114.037 101.7 115.945 100.91 117.934 100.91C119.923 100.91 121.831 101.7 123.237 103.107C124.644 104.513 125.434 106.421 125.434 108.41C125.457 117.633 123.568 126.76 119.886 135.216C116.204 143.672 110.81 151.273 104.043 157.539C91.3 169.477 74.52 176.324 58 176.324V161.324Z" fill="#8ED2E2"/>
<path d="M453.18 176.324C420.614 176.324 385.746 149.035 385.746 108.41C385.746 106.421 386.536 104.513 387.943 103.107C389.349 101.7 391.257 100.91 393.246 100.91C395.235 100.91 397.143 101.7 398.549 103.107C399.956 104.513 400.746 106.421 400.746 108.41C400.746 140.062 427.855 161.324 453.18 161.324V176.324Z" fill="#6FB6E1"/>
<path d="M96.4612 481.465H85.1802C83.1911 481.465 81.2834 480.675 79.8769 479.268C78.4704 477.862 77.6802 475.954 77.6802 473.965C77.6802 471.976 78.4704 470.068 79.8769 468.662C81.2834 467.255 83.1911 466.465 85.1802 466.465H96.4612C98.4503 466.465 100.358 467.255 101.764 468.662C103.171 470.068 103.961 471.976 103.961 473.965C103.961 475.954 103.171 477.862 101.764 479.268C100.358 480.675 98.4503 481.465 96.4612 481.465Z" fill="#8ED2E2"/>
<path d="M138.191 481.465H126.914C124.925 481.465 123.017 480.675 121.611 479.268C120.204 477.862 119.414 475.954 119.414 473.965C119.414 471.976 120.204 470.068 121.611 468.662C123.017 467.255 124.925 466.465 126.914 466.465H138.191C140.18 466.465 142.088 467.255 143.494 468.662C144.901 470.068 145.691 471.976 145.691 473.965C145.691 475.954 144.901 477.862 143.494 479.268C142.088 480.675 140.18 481.465 138.191 481.465Z" fill="#8ED2E2"/>
<path d="M179.926 481.465H168.645C166.656 481.465 164.748 480.675 163.342 479.268C161.935 477.862 161.145 475.954 161.145 473.965C161.145 471.976 161.935 470.068 163.342 468.662C164.748 467.255 166.656 466.465 168.645 466.465H179.926C181.915 466.465 183.823 467.255 185.229 468.662C186.636 470.068 187.426 471.976 187.426 473.965C187.426 475.954 186.636 477.862 185.229 479.268C183.823 480.675 181.915 481.465 179.926 481.465Z" fill="#8ED2E2"/>
<path d="M426 481.465H414.719C412.73 481.465 410.822 480.675 409.416 479.268C408.009 477.862 407.219 475.954 407.219 473.965C407.219 471.976 408.009 470.068 409.416 468.662C410.822 467.255 412.73 466.465 414.719 466.465H426C427.989 466.465 429.897 467.255 431.303 468.662C432.71 470.068 433.5 471.976 433.5 473.965C433.5 475.954 432.71 477.862 431.303 479.268C429.897 480.675 427.989 481.465 426 481.465Z" fill="#6FB6E1"/>
<path d="M384.266 481.465H372.988C370.999 481.465 369.091 480.675 367.685 479.268C366.278 477.862 365.488 475.954 365.488 473.965C365.488 471.976 366.278 470.068 367.685 468.662C369.091 467.255 370.999 466.465 372.988 466.465H384.265C386.254 466.465 388.162 467.255 389.568 468.662C390.975 470.068 391.765 471.976 391.765 473.965C391.765 475.954 390.975 477.862 389.568 479.268C388.162 480.675 386.254 481.465 384.265 481.465H384.266Z" fill="#6FB6E1"/>
<path d="M342.535 481.465H331.254C329.265 481.465 327.357 480.675 325.951 479.268C324.544 477.862 323.754 475.954 323.754 473.965C323.754 471.976 324.544 470.068 325.951 468.662C327.357 467.255 329.265 466.465 331.254 466.465H342.535C344.524 466.465 346.432 467.255 347.838 468.662C349.245 470.068 350.035 471.976 350.035 473.965C350.035 475.954 349.245 477.862 347.838 479.268C346.432 480.675 344.524 481.465 342.535 481.465Z" fill="#6FB6E1"/>
<path d="M291.285 4.82437e-08H247.027C245.666 -0.000131296 244.318 0.267929 243.06 0.788873C241.802 1.30982 240.659 2.07344 239.696 3.03613C238.734 3.99882 237.97 5.14172 237.449 6.39957C236.928 7.65741 236.66 9.00555 236.66 10.367V47.492C236.66 48.8535 236.928 50.2016 237.449 51.4594C237.97 52.7173 238.734 53.8602 239.696 54.8229C240.659 55.7856 241.802 56.5492 243.06 57.0701C244.318 57.5911 245.666 57.8591 247.027 57.859H291.285C292.647 57.8591 293.995 57.5911 295.253 57.0701C296.51 56.5492 297.653 55.7856 298.616 54.8229C299.579 53.8602 300.342 52.7173 300.863 51.4594C301.384 50.2016 301.652 48.8535 301.652 47.492V10.367C301.652 7.61766 300.559 4.98108 298.615 3.03701C296.671 1.09293 294.034 0.000530296 291.285 4.82437e-08V4.82437e-08Z" fill="#4E5660"/>
</svg>
