<svg width="512" height="512" viewBox="0 0 512 512" fill="none" xmlns="http://www.w3.org/2000/svg">
<path d="M485.215 330.238L408.445 253.468C381.529 226.554 345.025 211.434 306.961 211.433H205.039C166.976 211.434 130.471 226.554 103.555 253.468L26.7852 330.238L84.7542 388.207L145.59 327.371V427.527C145.591 438.076 149.782 448.192 157.242 455.651C164.701 463.11 174.818 467.3 185.367 467.3H326.633C337.182 467.299 347.299 463.108 354.757 455.649C362.216 448.189 366.406 438.072 366.406 427.523V327.371L427.246 388.211L485.215 330.238Z" fill="#F7EF87"/>
<path d="M224.625 211.434H205.039C166.976 211.435 130.471 226.555 103.555 253.469L26.7852 330.239L84.7542 388.208L145.59 327.372V427.527C145.591 438.076 149.782 448.192 157.242 455.651C164.701 463.11 174.818 467.3 185.367 467.3H258.719C220.6 412.988 212.875 283.227 224.625 211.434Z" fill="#EFD176"/>
<path d="M237.896 211.434H274.101V467.3H237.896V211.434Z" fill="#8ED2E2"/>
<path d="M53.2191 411.336L3.65613 361.777C1.31512 359.435 0 356.26 0 352.949C0 349.638 1.31512 346.462 3.65613 344.121L17.7771 330C18.3529 329.424 19.0365 328.967 19.7889 328.655C20.5413 328.344 21.3477 328.183 22.1621 328.183C22.9765 328.183 23.783 328.344 24.5354 328.655C25.2878 328.967 25.9714 329.424 26.5471 330L84.9921 388.449C86.1542 389.612 86.807 391.188 86.807 392.832C86.807 394.476 86.1542 396.052 84.9921 397.215L70.8711 411.336C69.7121 412.495 68.3362 413.415 66.8218 414.042C65.3074 414.669 63.6843 414.992 62.0451 414.992C60.406 414.992 58.7828 414.669 57.2685 414.042C55.7541 413.415 54.3781 412.495 53.2191 411.336Z" fill="#6FB6E1"/>
<path d="M458.781 411.336L508.344 361.777C510.685 359.435 512 356.26 512 352.949C512 349.638 510.685 346.462 508.344 344.121L494.223 330C493.647 329.424 492.964 328.967 492.211 328.655C491.459 328.344 490.653 328.183 489.838 328.183C489.024 328.183 488.217 328.344 487.465 328.655C486.713 328.967 486.029 329.424 485.453 330L427.008 388.449C425.846 389.612 425.193 391.188 425.193 392.832C425.193 394.476 425.846 396.052 427.008 397.215L441.129 411.336C442.288 412.495 443.664 413.415 445.179 414.042C446.693 414.669 448.316 414.992 449.955 414.992C451.594 414.992 453.218 414.669 454.732 414.042C456.246 413.415 457.622 412.495 458.781 411.336Z" fill="#8ED2E2"/>
<path d="M256 46C341.121 46 385.98 86.7 377.211 144.707C367.611 208.207 299.606 251.535 256 251.535C212.394 251.535 144.391 208.2 134.789 144.707C126.02 86.7 170.879 46 256 46Z" fill="#F7EF87"/>
<path d="M207.7 51.2001V120.621C207.7 122.61 208.49 124.518 209.897 125.924C211.303 127.331 213.211 128.121 215.2 128.121C217.189 128.121 219.097 127.331 220.503 125.924C221.91 124.518 222.7 122.61 222.7 120.621V48.3201C217.486 49.0974 212.486 50.0584 207.7 51.2031V51.2001Z" fill="#EFD176"/>
<path d="M289.3 48.3201V120.62C289.3 122.609 290.09 124.517 291.497 125.923C292.903 127.33 294.811 128.12 296.8 128.12C298.789 128.12 300.697 127.33 302.103 125.923C303.51 124.517 304.3 122.609 304.3 120.62V51.2001C299.508 50.0614 294.508 49.1014 289.3 48.3201Z" fill="#EFD176"/>
<path d="M256 103.641C314.445 103.641 345.25 126.079 339.227 158.067C332.637 193.079 285.942 221.915 256 221.915C226.058 221.915 179.367 193.079 172.773 158.067C166.75 126.078 197.551 103.641 256 103.641Z" fill="#4E5660"/>
<path d="M196.95 409.137H186.54C182.578 409.136 178.779 407.563 175.977 404.762C173.176 401.961 171.602 398.162 171.601 394.2V374.941C171.601 373.056 172.35 371.248 173.683 369.914C175.016 368.581 176.824 367.832 178.71 367.832H204.784C205.717 367.832 206.642 368.016 207.504 368.373C208.367 368.73 209.151 369.254 209.811 369.914C210.471 370.574 210.994 371.358 211.352 372.22C211.709 373.083 211.893 374.007 211.893 374.941V394.2C211.892 398.162 210.317 401.962 207.514 404.763C204.712 407.564 200.912 409.138 196.95 409.137Z" fill="#F7EF87"/>
<path d="M315.051 409.137H325.461C329.423 409.136 333.222 407.563 336.024 404.762C338.825 401.961 340.399 398.162 340.4 394.2V374.941C340.4 373.056 339.651 371.248 338.318 369.914C336.985 368.581 335.177 367.832 333.291 367.832H307.219C305.334 367.832 303.526 368.581 302.193 369.914C300.86 371.248 300.111 373.056 300.11 374.941V394.2C300.111 398.162 301.686 401.961 304.488 404.762C307.29 407.563 311.089 409.137 315.051 409.137Z" fill="#EFD176"/>
<path d="M82.4 274.625L140.367 332.6L129.762 343.2L71.793 285.234L82.4 274.625Z" fill="#F7EF87"/>
<path d="M429.605 274.625L440.21 285.23L382.242 343.2L371.633 332.595L429.605 274.625Z" fill="#EFD176"/>
<path d="M237.896 422.051V467.3H258.723C250.355 455.383 243.45 439.832 237.896 422.051Z" fill="#6FB6E1"/>
</svg>
