<svg width="512" height="512" viewBox="0 0 512 512" fill="none" xmlns="http://www.w3.org/2000/svg">
<path d="M452.3 429.32C451.316 429.32 450.341 429.126 449.431 428.748C448.522 428.371 447.696 427.817 447 427.12L415.84 395.969C415.144 395.272 414.592 394.446 414.215 393.535C413.838 392.625 413.644 391.65 413.645 390.665C413.645 389.68 413.839 388.705 414.216 387.795C414.593 386.885 415.146 386.058 415.842 385.362C416.539 384.666 417.366 384.113 418.276 383.737C419.186 383.36 420.161 383.166 421.146 383.166C422.131 383.166 423.106 383.361 424.016 383.738C424.926 384.115 425.753 384.667 426.449 385.364L457.6 416.516C458.648 417.565 459.361 418.901 459.65 420.355C459.939 421.809 459.79 423.316 459.223 424.685C458.656 426.055 457.696 427.226 456.464 428.05C455.231 428.874 453.783 429.315 452.3 429.316V429.32Z" fill="#EFD176"/>
<path d="M484.043 397.57C483.058 397.571 482.083 397.377 481.173 397C480.264 396.622 479.438 396.068 478.743 395.37L447.59 364.223C446.894 363.526 446.341 362.699 445.964 361.789C445.588 360.879 445.394 359.904 445.394 358.919C445.394 357.933 445.588 356.958 445.966 356.048C446.343 355.138 446.895 354.311 447.592 353.615C448.289 352.919 449.116 352.366 450.026 351.989C450.936 351.613 451.911 351.419 452.896 351.419C453.881 351.419 454.857 351.613 455.767 351.99C456.677 352.368 457.504 352.92 458.2 353.617L489.352 384.769C490.4 385.818 491.113 387.154 491.402 388.608C491.691 390.062 491.542 391.569 490.975 392.938C490.408 394.308 489.448 395.479 488.215 396.303C486.983 397.127 485.534 397.568 484.052 397.569L484.043 397.57Z" fill="#EFD176"/>
<path d="M382.922 394.441C309.3 312.777 303.469 243.32 303.469 149.535H413.489C413.489 230.746 417.813 268.348 462.594 318.574C466.495 322.972 468.567 328.694 468.388 334.57C468.209 340.446 465.791 346.031 461.629 350.183L416.449 395.363C414.228 397.579 411.578 399.319 408.662 400.478C405.746 401.637 402.624 402.191 399.488 402.104C396.351 402.018 393.265 401.294 390.417 399.977C387.569 398.659 385.019 396.776 382.922 394.441Z" fill="#EDA1AB"/>
<path d="M431.828 274.4L339.2 334.461C350.13 354.07 364.372 373.867 382.915 394.441C385.012 396.776 387.562 398.659 390.41 399.976C393.258 401.294 396.344 402.018 399.481 402.104C402.617 402.19 405.739 401.637 408.655 400.478C411.571 399.319 414.22 397.579 416.442 395.363L461.622 350.183C465.785 346.031 468.204 340.445 468.384 334.569C468.565 328.692 466.492 322.969 462.591 318.57C448.891 303.2 438.992 289.016 431.828 274.4Z" fill="#F7EF87"/>
<path d="M413.488 149.535H303.469C303.469 181.851 304.169 211.281 308.086 239.312C341.297 237.089 378.813 233.612 417.711 228.546C414.172 206.672 413.488 181.488 413.488 149.535Z" fill="#E68A97"/>
<path d="M256 101.066C308.621 101.066 392.754 95.214 473.121 82.304C476.775 81.7197 480.516 82.0081 484.037 83.1458C487.558 84.2834 490.76 86.238 493.381 88.8499C496.002 91.4617 497.969 94.6567 499.119 98.1737C500.269 101.691 500.571 105.43 500 109.086L497.461 125.395C496.645 130.63 497.625 135.988 500.242 140.595L508.926 155.888C510.796 159.187 511.838 162.889 511.966 166.678C512.093 170.468 511.301 174.232 509.658 177.649C508.014 181.066 505.568 184.034 502.528 186.299C499.488 188.565 495.944 190.061 492.2 190.66C405.1 204.719 313.4 211.086 256 211.086C198.6 211.086 106.906 204.719 19.8002 190.66C16.0564 190.061 12.5132 188.564 9.4736 186.298C6.43397 184.032 3.98823 181.064 2.34541 177.647C0.70258 174.23 -0.088485 170.466 0.0398196 166.676C0.168124 162.887 1.21198 159.185 3.08218 155.887L11.7662 140.594C14.3836 135.987 15.3638 130.629 14.5472 125.394L12.0082 109.086C11.4361 105.43 11.7371 101.69 12.8868 98.1731C14.0365 94.6557 16.0022 91.4602 18.6232 88.8479C21.2442 86.2356 24.4462 84.2805 27.9674 83.1425C31.4886 82.0045 35.2291 81.7158 38.8832 82.3C119.25 95.215 203.379 101.066 256 101.066Z" fill="#EDA1AB"/>
<path d="M165.141 97.105C125.535 94.051 81.6762 89.18 38.8832 82.3C35.2291 81.7158 31.4886 82.0045 27.9674 83.1425C24.4462 84.2805 21.2442 86.2356 18.6232 88.8479C16.0022 91.4602 14.0365 94.6557 12.8868 98.1731C11.7371 101.69 11.4361 105.43 12.0082 109.086L14.5472 125.395C15.3601 130.63 14.3801 135.987 11.7662 140.595L3.08218 155.887C1.21198 159.185 0.168124 162.887 0.0398196 166.676C-0.088485 170.466 0.70258 174.23 2.34541 177.647C3.98823 181.064 6.43397 184.032 9.4736 186.298C12.5132 188.564 16.0564 190.061 19.8002 190.66C74.6752 199.515 131.363 205.32 180.159 208.402C163 179.254 157.973 129.156 165.141 97.105Z" fill="#E68A97"/>
<path d="M93.7662 90.016C75.5512 87.8 57.1212 85.234 38.8832 82.3C35.2291 81.7158 31.4886 82.0045 27.9674 83.1425C24.4462 84.2805 21.2442 86.2356 18.6232 88.8479C16.0022 91.4602 14.0365 94.6557 12.8868 98.1731C11.7371 101.69 11.4361 105.43 12.0082 109.086L14.5472 125.395C15.3601 130.63 14.3801 135.987 11.7662 140.595L3.08218 155.887C1.21198 159.185 0.168124 162.887 0.0398196 166.676C-0.088485 170.466 0.70258 174.23 2.34541 177.647C3.98823 181.064 6.43397 184.032 9.4736 186.298C12.5132 188.564 16.0564 190.061 19.8002 190.66C39.4802 193.836 59.3902 196.617 79.0892 199.023L93.7662 90.016Z" fill="#EFD176"/>
<path d="M418.238 90.016C436.449 87.8 454.879 85.234 473.121 82.3C476.776 81.7157 480.517 82.0045 484.039 83.1428C487.56 84.281 490.763 86.2364 493.384 88.8491C496.005 91.4618 497.971 94.6576 499.121 98.1755C500.271 101.693 500.572 105.433 500 109.09L497.461 125.39C496.645 130.625 497.625 135.983 500.242 140.59L508.926 155.883C510.797 159.182 511.841 162.885 511.969 166.675C512.097 170.465 511.305 174.23 509.662 177.647C508.018 181.065 505.571 184.034 502.53 186.3C499.489 188.566 495.945 190.062 492.2 190.66C472.52 193.836 452.614 196.617 432.915 199.023L418.238 90.016Z" fill="#F7EF87"/>
<path d="M201.148 99.457L195.394 209.289C218.023 210.496 238.594 211.089 255.999 211.089C273.404 211.089 293.976 210.499 316.604 209.289L310.852 99.457C290.375 100.539 271.766 101.07 256 101.07C240.234 101.07 221.625 100.539 201.148 99.457Z" fill="#F7EF87"/>
<path d="M43.9573 127.82C42.4749 127.819 41.0261 127.378 39.7939 126.554C38.5618 125.73 37.6015 124.559 37.0344 123.189C36.4673 121.82 36.3188 120.313 36.6076 118.859C36.8965 117.405 37.6097 116.069 38.6573 115.02L46.7623 106.915C48.1802 105.569 50.0678 104.829 52.0229 104.854C53.978 104.879 55.8461 105.667 57.2289 107.049C58.6118 108.432 59.4001 110.3 59.426 112.255C59.4518 114.21 58.7131 116.098 57.3673 117.516L49.2583 125.621C48.5631 126.319 47.7369 126.872 46.8272 127.25C45.9175 127.627 44.9422 127.821 43.9573 127.82Z" fill="#F7EF87"/>
<path d="M465.117 174.984C463.635 174.983 462.186 174.542 460.954 173.718C459.722 172.894 458.762 171.723 458.195 170.353C457.627 168.984 457.479 167.477 457.768 166.023C458.057 164.569 458.77 163.233 459.817 162.184L468.176 153.821C469.583 152.414 471.49 151.624 473.48 151.623C475.469 151.623 477.377 152.413 478.783 153.819C480.19 155.225 480.981 157.133 480.981 159.122C480.982 161.111 480.192 163.019 478.785 164.426L470.422 172.789C469.726 173.486 468.899 174.038 467.989 174.415C467.078 174.792 466.103 174.985 465.117 174.984Z" fill="#EFD176"/>
<path d="M417.707 357.492C416.225 357.491 414.776 357.05 413.544 356.226C412.312 355.402 411.351 354.231 410.784 352.861C410.217 351.492 410.069 349.985 410.358 348.531C410.646 347.077 411.36 345.741 412.407 344.692L424.673 332.426C426.088 331.06 427.982 330.304 429.949 330.321C431.915 330.338 433.796 331.127 435.187 332.518C436.577 333.908 437.366 335.789 437.383 337.756C437.4 339.722 436.644 341.617 435.278 343.031L423.012 355.297C422.316 355.994 421.489 356.547 420.579 356.924C419.668 357.301 418.693 357.494 417.707 357.492Z" fill="#EFD176"/>
<path d="M361.77 282.43C360.785 282.431 359.81 282.237 358.901 281.859C357.991 281.481 357.165 280.928 356.47 280.23L345.896 269.652C344.554 268.233 343.819 266.346 343.846 264.394C343.874 262.441 344.662 260.576 346.043 259.195C347.424 257.814 349.29 257.027 351.242 257C353.195 256.973 355.082 257.709 356.5 259.051L367.074 269.625C368.122 270.674 368.835 272.01 369.124 273.464C369.413 274.918 369.264 276.425 368.697 277.794C368.13 279.164 367.17 280.335 365.938 281.159C364.705 281.983 363.257 282.424 361.774 282.425L361.77 282.43Z" fill="#E68A97"/>
</svg>
