<svg width="513" height="512" viewBox="0 0 513 512" fill="none" xmlns="http://www.w3.org/2000/svg">
<path d="M502.114 172.516L436.701 107.1C410.825 81.2242 375.729 66.6869 339.135 66.686H172.872C154.751 66.6858 136.808 70.2547 120.067 77.1889C103.326 84.1232 88.1141 94.287 75.3009 107.1L9.88785 172.516C6.75324 175.65 4.26667 179.37 2.57017 183.465C0.873673 187.56 0.000488281 191.949 0.000488281 196.381C0.000488281 200.813 0.873673 205.202 2.57017 209.297C4.26667 213.392 6.75324 217.112 9.88785 220.246L39.8679 250.226C46.1975 256.555 54.7819 260.11 63.7328 260.11C72.6838 260.11 81.2682 256.555 87.5979 250.226L115.719 222.105V415.863C115.719 428.433 120.712 440.489 129.6 449.378C138.488 458.267 150.543 463.262 163.114 463.263H348.888C361.458 463.262 373.513 458.267 382.401 449.378C391.29 440.489 396.283 428.433 396.283 415.863V222.105L424.401 250.227C430.73 256.556 439.315 260.111 448.266 260.111C457.217 260.111 465.801 256.556 472.131 250.227L502.111 220.247C505.246 217.114 507.733 213.393 509.43 209.298C511.126 205.204 512 200.815 512 196.382C512 191.95 511.128 187.561 509.431 183.466C507.735 179.371 505.248 175.65 502.114 172.516Z" fill="#FCF2D0"/>
<path d="M207.462 147.941C218.962 143.582 232.005 140.886 241.825 139.312C251.122 137.814 260.599 137.799 269.901 139.27C281.061 141.047 296.506 144.278 309.081 149.786C315.451 152.594 322.646 152.891 329.226 150.618C335.805 148.344 341.283 143.669 344.561 137.528C355.436 117.051 366.061 90.0751 361.717 68.5551C354.252 67.3132 346.698 66.6874 339.131 66.6841H172.872C154.751 66.6841 136.808 70.2533 120.067 77.1879C103.325 84.1225 88.114 94.2867 75.3009 107.1L9.88788 172.516C3.55893 178.846 0.00341797 187.43 0.00341797 196.381C0.00341797 205.332 3.55893 213.916 9.88788 220.246L39.8679 250.226C46.1975 256.555 54.7819 260.111 63.7329 260.111C72.6838 260.111 81.2683 256.555 87.5979 250.226L115.719 222.105V415.863C115.719 428.434 120.712 440.489 129.6 449.378C138.488 458.267 150.544 463.262 163.114 463.263H279.47C225.626 412.48 203.301 274.023 207.462 147.941Z" fill="#F6E3A3"/>
<path d="M187.692 201.48C187.692 192.652 182.067 185.496 175.13 185.496C168.193 185.496 162.568 192.652 162.568 201.48C162.568 210.308 168.193 217.464 175.131 217.464C182.069 217.464 187.692 210.309 187.692 201.48Z" fill="#6FB6E1"/>
<path d="M277.962 124.555H234.04V186.946C234.04 190.845 235.589 194.584 238.345 197.34C241.102 200.097 244.841 201.646 248.74 201.646H263.271C267.169 201.646 270.908 200.097 273.665 197.34C276.422 194.584 277.971 190.845 277.971 186.946L277.962 124.555Z" fill="#8ED2E2"/>
<path d="M234.04 140.7C236.778 140.169 239.399 139.708 241.817 139.321C251.212 137.813 260.788 137.813 270.184 139.321C272.602 139.708 275.223 140.169 277.961 140.7V124.555H234.04V140.7Z" fill="#6FB6E1"/>
<path d="M263.415 150.109C263.416 151.576 262.982 153.009 262.168 154.229C261.354 155.449 260.196 156.4 258.842 156.962C257.487 157.524 255.996 157.672 254.558 157.386C253.119 157.101 251.798 156.395 250.76 155.358C249.723 154.322 249.016 153.001 248.73 151.562C248.443 150.124 248.59 148.633 249.151 147.278C249.712 145.923 250.662 144.765 251.881 143.95C253.101 143.135 254.534 142.7 256.001 142.7C257.966 142.7 259.851 143.48 261.242 144.87C262.632 146.259 263.414 148.144 263.415 150.109Z" fill="white"/>
<path d="M263.415 176.043C263.415 177.509 262.98 178.943 262.165 180.162C261.351 181.381 260.193 182.331 258.838 182.893C257.483 183.454 255.993 183.601 254.555 183.314C253.116 183.028 251.795 182.322 250.758 181.285C249.722 180.249 249.015 178.927 248.729 177.489C248.443 176.051 248.59 174.56 249.151 173.206C249.712 171.851 250.663 170.693 251.882 169.878C253.101 169.064 254.535 168.629 256.001 168.629C257.967 168.629 259.853 169.41 261.243 170.8C262.634 172.191 263.415 174.077 263.415 176.043Z" fill="white"/>
<path d="M256.001 124.555C256.001 124.555 289.54 127.188 314.235 138.008C317.634 139.519 321.478 139.688 324.997 138.48C328.515 137.273 331.446 134.779 333.201 131.5C346.985 105.539 370.478 49 313.567 49H288.091L256.001 124.555Z" fill="#8ED2E2"/>
<path d="M256.001 124.555C256.001 124.555 222.466 127.188 197.767 138.008C194.368 139.519 190.523 139.688 187.005 138.48C183.487 137.273 180.556 134.779 178.801 131.5C165.017 105.539 141.524 49 198.435 49H223.911L256.001 124.555Z" fill="#8ED2E2"/>
<path d="M317.552 60.723L256.001 124.555L194.45 60.723C193.507 59.7457 192.873 58.5125 192.626 57.1771C192.379 55.8417 192.53 54.4632 193.061 53.2133C193.592 51.9634 194.479 50.8974 195.612 50.1482C196.745 49.399 198.073 48.9997 199.431 49H312.571C313.929 48.9997 315.257 49.399 316.39 50.1482C317.522 50.8974 318.409 51.9634 318.941 53.2133C319.472 54.4632 319.623 55.8417 319.376 57.1771C319.129 58.5125 318.495 59.7457 317.552 60.723Z" fill="#4E5660"/>
<path d="M88.8639 248.961L11.1529 171.25L9.88688 172.516C6.75226 175.65 4.26569 179.37 2.56919 183.465C0.872697 187.56 -0.000488281 191.949 -0.000488281 196.381C-0.000488281 200.813 0.872697 205.202 2.56919 209.297C4.26569 213.392 6.75226 217.112 9.88688 220.246L39.8669 250.226C46.1965 256.555 54.7809 260.11 63.7319 260.11C72.6828 260.11 81.2673 256.555 87.5969 250.226L88.8639 248.961Z" fill="#6FB6E1"/>
<path d="M423.138 248.961L500.849 171.25L502.115 172.516C505.25 175.65 507.736 179.37 509.433 183.465C511.129 187.56 512.002 191.949 512.002 196.381C512.002 200.813 511.129 205.202 509.433 209.297C507.736 213.392 505.25 217.112 502.115 220.246L472.135 250.226C465.805 256.555 457.221 260.11 448.27 260.11C439.319 260.11 430.735 256.555 424.405 250.226L423.138 248.961Z" fill="#8ED2E2"/>
</svg>
