<svg width="512" height="512" viewBox="0 0 512 512" fill="none" xmlns="http://www.w3.org/2000/svg">
<path d="M211.336 206.112C194.129 179.764 175.746 130.534 205.961 121.694C245.887 110.01 265.106 161.483 302.211 192.671L211.336 206.112Z" fill="#D2996F"/>
<path d="M10.324 332.835C3.11699 313.099 0.917988 259.366 5.14499 206.651C7.44499 177.893 36.59 159.483 63.766 169.167C110.41 185.78 171.973 188.183 215.82 164.099C278.492 129.669 298.164 204.079 331.711 207.611C365.258 211.143 496.992 222.634 496.992 332.834L10.324 332.835Z" fill="#E1B89A"/>
<path d="M173.875 178.679C137.43 185.57 96.848 180.949 63.766 169.167C36.59 159.483 7.44899 177.894 5.14499 206.651C0.917988 259.366 3.11699 313.099 10.324 332.835H212.773C186.793 290.882 171.2 230.862 173.875 178.679Z" fill="#D2996F"/>
<path d="M3.01999 256.163C2.82899 290.124 5.41099 319.382 10.32 332.835H120.355C127.265 272.659 66.226 241.327 3.01899 256.163H3.01999Z" fill="#E1B89A"/>
<path d="M363.742 332.835H496.992C496.992 264.179 445.855 233.835 399.192 219.866C371.648 248.854 365.23 297.354 363.742 332.835Z" fill="#D2996F"/>
<path d="M0 339.937V369.337C0.0015905 375.092 2.28834 380.611 6.35754 384.68C10.4267 388.749 15.9453 391.036 21.7 391.037H128.625C132.08 391.037 135.393 389.664 137.836 387.221C140.279 384.778 141.651 381.465 141.652 378.01V371.885C141.652 370.304 142.096 368.753 142.933 367.411C143.77 366.069 144.967 364.989 146.387 364.292C147.807 363.596 149.394 363.312 150.968 363.473C152.542 363.634 154.039 364.232 155.289 365.201L180.336 384.607C185.716 388.776 192.33 391.038 199.136 391.037H490.3C496.055 391.036 501.573 388.749 505.642 384.68C509.712 380.611 511.998 375.092 512 369.337V339.937C511.998 334.183 509.712 328.664 505.642 324.595C501.573 320.526 496.055 318.239 490.3 318.237H21.7C15.9453 318.239 10.4267 320.526 6.35754 324.595C2.28834 328.664 0.0015905 334.183 0 339.937H0Z" fill="#4E5660"/>
<path d="M250 219.522C248.461 219.524 246.958 219.051 245.696 218.17C244.435 217.288 243.475 216.039 242.947 214.593C242.42 213.147 242.35 211.574 242.747 210.087C243.144 208.599 243.989 207.27 245.168 206.28L286.234 171.76C287.76 170.515 289.715 169.92 291.677 170.104C293.638 170.288 295.449 171.237 296.716 172.745C297.984 174.252 298.608 176.199 298.452 178.163C298.297 180.126 297.375 181.95 295.886 183.24L254.82 217.76C253.472 218.899 251.764 219.523 250 219.522Z" fill="#4E5660"/>
<path d="M303.648 254.599C302.271 254.599 300.921 254.22 299.746 253.503C298.57 252.786 297.615 251.76 296.984 250.536C296.353 249.313 296.071 247.939 296.169 246.566C296.267 245.193 296.741 243.873 297.539 242.751L325.594 203.269C326.16 202.456 326.882 201.764 327.718 201.231C328.553 200.699 329.486 200.338 330.462 200.168C331.438 199.998 332.438 200.023 333.405 200.242C334.371 200.461 335.284 200.869 336.092 201.443C336.899 202.017 337.585 202.745 338.11 203.586C338.634 204.426 338.987 205.362 339.148 206.34C339.309 207.317 339.274 208.317 339.047 209.281C338.819 210.245 338.402 211.155 337.821 211.957L309.766 251.441C309.073 252.419 308.156 253.215 307.091 253.765C306.027 254.314 304.846 254.601 303.648 254.599Z" fill="#4E5660"/>
<path d="M55.133 228.905H37.477C35.4879 228.905 33.5802 228.115 32.1737 226.708C30.7672 225.302 29.977 223.394 29.977 221.405C29.977 219.416 30.7672 217.508 32.1737 216.102C33.5802 214.695 35.4879 213.905 37.477 213.905H55.133C57.1221 213.905 59.0298 214.695 60.4363 216.102C61.8428 217.508 62.633 219.416 62.633 221.405C62.633 223.394 61.8428 225.302 60.4363 226.708C59.0298 228.115 57.1221 228.905 55.133 228.905Z" fill="#FCF2D0"/>
<path d="M159.219 305.585C157.68 305.585 156.178 305.111 154.917 304.228C153.656 303.344 152.698 302.095 152.172 300.648L146.133 284.054C145.779 283.125 145.613 282.134 145.645 281.14C145.677 280.146 145.906 279.168 146.32 278.264C146.733 277.359 147.322 276.546 148.053 275.871C148.784 275.197 149.641 274.674 150.576 274.334C151.511 273.994 152.504 273.843 153.497 273.89C154.49 273.938 155.464 274.182 156.363 274.609C157.261 275.036 158.065 275.638 158.728 276.379C159.392 277.12 159.901 277.985 160.227 278.925L166.266 295.515C166.677 296.648 166.809 297.864 166.651 299.059C166.493 300.254 166.05 301.393 165.359 302.381C164.668 303.369 163.749 304.175 162.68 304.733C161.612 305.291 160.424 305.583 159.219 305.585Z" fill="#FCF2D0"/>
<path d="M121.727 254.44C120.188 254.442 118.686 253.967 117.427 253.081L102.966 242.956C102.149 242.396 101.451 241.679 100.912 240.847C100.373 240.015 100.005 239.085 99.828 238.11C99.651 237.135 99.669 236.135 99.8809 235.167C100.093 234.199 100.494 233.282 101.063 232.47C101.631 231.658 102.354 230.967 103.191 230.437C104.028 229.906 104.962 229.546 105.938 229.379C106.915 229.211 107.915 229.239 108.881 229.46C109.847 229.681 110.76 230.091 111.566 230.667L126.031 240.799C127.338 241.714 128.319 243.021 128.833 244.532C129.346 246.042 129.364 247.677 128.884 249.198C128.405 250.72 127.453 252.049 126.166 252.992C124.88 253.935 123.326 254.444 121.731 254.444L121.727 254.44Z" fill="#FCF2D0"/>
</svg>
