<svg width="512" height="512" viewBox="0 0 512 512" fill="none" xmlns="http://www.w3.org/2000/svg">
<path d="M391.987 59.3401C418.401 118.77 431.608 246.067 431.608 355.735C431.608 413.235 449.881 423.063 465.499 437.715C467.786 439.847 469.409 442.594 470.173 445.626C470.938 448.657 470.811 451.845 469.809 454.807C468.807 457.768 466.972 460.378 464.524 462.323C462.076 464.267 459.119 465.464 456.007 465.77C428.198 468.579 404.214 479.11 384.054 497.364C342.929 534.54 307.464 489.173 267.843 489.173C228.222 489.173 192.753 534.54 151.632 497.364C131.448 479.117 107.464 468.586 79.679 465.77C76.5673 465.465 73.6097 464.268 71.1613 462.323C68.7128 460.379 66.8774 457.769 65.8754 454.807C64.8733 451.845 64.7471 448.657 65.5119 445.626C66.2766 442.594 67.9 439.847 70.187 437.715C85.804 423.063 104.074 413.238 104.074 355.735C104.073 246.066 117.28 118.77 143.699 59.3401H391.987Z" fill="#99DA90"/>
<path d="M389.699 425.711C394.5 412.085 395.947 397.503 393.918 383.199C393.57 380.711 360.594 149.289 298.324 59.3401H143.699C117.28 118.77 104.073 246.066 104.073 355.734C104.073 413.234 85.8029 423.062 70.1859 437.714C67.8985 439.846 66.2749 442.593 65.51 445.625C64.7451 448.657 64.8713 451.845 65.8735 454.807C66.8757 457.769 68.7114 460.379 71.1602 462.324C73.609 464.268 76.5669 465.465 79.6789 465.77C107.488 468.579 131.472 479.11 151.632 497.364C192.753 534.54 228.222 489.173 267.843 489.173C284.804 489.173 301.007 497.486 317.214 504.079C350.624 491.023 376.038 464.012 389.699 425.711Z" fill="#6FCE91"/>
<path d="M377.405 5.48521e-07H158.28C154.412 0.00159134 150.704 1.539 147.97 4.2742C145.235 7.00941 143.699 10.7185 143.699 14.586V59.34H391.999V14.586C391.998 12.67 391.621 10.7729 390.887 9.00295C390.153 7.23302 389.078 5.62492 387.723 4.27048C386.368 2.91605 384.759 1.8418 382.989 1.10907C381.218 0.376337 379.321 -0.000524811 377.405 5.48521e-07Z" fill="#F7EF87"/>
<path d="M192.151 0H158.28C154.412 0.00159079 150.704 1.539 147.97 4.2742C145.235 7.00941 143.699 10.7185 143.699 14.586V59.34H195.316C186.987 45.629 184.199 13.781 192.151 0Z" fill="#EFD176"/>
<path d="M370.339 386.5C360.191 313.9 321.484 114.785 267.839 59.344H143.699C117.28 118.77 104.073 246.066 104.073 355.734C104.073 413.234 85.8028 423.062 70.1858 437.714C67.8989 439.846 66.2757 442.593 65.511 445.625C64.7463 448.657 64.8726 451.845 65.8748 454.807C66.877 457.769 68.7124 460.378 71.1609 462.323C73.6094 464.268 76.567 465.464 79.6789 465.77C107.488 468.579 131.472 479.11 151.632 497.364C192.753 534.54 228.222 489.173 267.843 489.173C314.691 489.173 350.659 464.298 367.281 417.712C370.8 407.706 371.849 396.998 370.339 386.5Z" fill="#99DA90"/>
<path d="M296.999 352.4H275.776C273.787 352.4 271.879 351.61 270.473 350.203C269.066 348.797 268.276 346.889 268.276 344.9C268.276 342.911 269.066 341.003 270.473 339.597C271.879 338.19 273.787 337.4 275.776 337.4H296.999C298.988 337.4 300.896 338.19 302.302 339.597C303.709 341.003 304.499 342.911 304.499 344.9C304.499 346.889 303.709 348.797 302.302 350.203C300.896 351.61 298.988 352.4 296.999 352.4Z" fill="#4E5660"/>
<path d="M338.487 344.9C338.487 349.003 337.27 353.014 334.991 356.426C332.711 359.838 329.471 362.497 325.68 364.067C321.889 365.637 317.718 366.048 313.694 365.247C309.669 364.447 305.973 362.471 303.071 359.57C300.17 356.668 298.194 352.972 297.394 348.947C296.593 344.923 297.004 340.752 298.574 336.961C300.144 333.17 302.803 329.93 306.215 327.65C309.627 325.371 313.638 324.154 317.741 324.154C323.243 324.154 328.52 326.34 332.41 330.231C336.301 334.121 338.487 339.398 338.487 344.9Z" fill="#FCF2D0"/>
<path d="M272.812 259.855H251.593C249.604 259.855 247.696 259.065 246.29 257.658C244.883 256.252 244.093 254.344 244.093 252.355C244.093 250.366 244.883 248.458 246.29 247.052C247.696 245.645 249.604 244.855 251.593 244.855H272.812C274.801 244.855 276.709 245.645 278.115 247.052C279.522 248.458 280.312 250.366 280.312 252.355C280.312 254.344 279.522 256.252 278.115 257.658C276.709 259.065 274.801 259.855 272.812 259.855Z" fill="#4E5660"/>
<path d="M314.299 252.355C314.299 256.458 313.082 260.469 310.803 263.881C308.523 267.292 305.283 269.951 301.492 271.522C297.701 273.092 293.53 273.503 289.506 272.702C285.481 271.902 281.785 269.926 278.883 267.025C275.982 264.123 274.006 260.427 273.206 256.402C272.405 252.378 272.816 248.207 274.386 244.416C275.956 240.625 278.615 237.385 282.027 235.105C285.439 232.826 289.45 231.609 293.553 231.609C296.277 231.609 298.975 232.145 301.492 233.188C304.009 234.23 306.296 235.758 308.223 237.685C310.149 239.611 311.677 241.899 312.72 244.416C313.762 246.933 314.299 249.63 314.299 252.355Z" fill="#FCF2D0"/>
<path d="M248.628 167.316H227.413C225.424 167.316 223.516 166.526 222.11 165.119C220.703 163.713 219.913 161.805 219.913 159.816C219.913 157.827 220.703 155.919 222.11 154.513C223.516 153.106 225.424 152.316 227.413 152.316H248.628C250.617 152.316 252.525 153.106 253.931 154.513C255.338 155.919 256.128 157.827 256.128 159.816C256.128 161.805 255.338 163.713 253.931 165.119C252.525 166.526 250.617 167.316 248.628 167.316Z" fill="#4E5660"/>
<path d="M290.12 159.816C290.12 163.919 288.903 167.93 286.624 171.342C284.344 174.754 281.104 177.413 277.313 178.983C273.522 180.553 269.351 180.964 265.327 180.163C261.302 179.363 257.606 177.387 254.704 174.486C251.803 171.584 249.827 167.888 249.027 163.863C248.226 159.839 248.637 155.668 250.207 151.877C251.777 148.086 254.436 144.846 257.848 142.566C261.26 140.287 265.271 139.07 269.374 139.07C274.876 139.07 280.153 141.256 284.043 145.147C287.934 149.037 290.12 154.314 290.12 159.816Z" fill="#FCF2D0"/>
<path d="M195.312 59.3401H143.699C117.28 118.77 104.073 246.066 104.073 355.734C104.073 413.234 85.8029 423.062 70.1859 437.711C67.8988 439.844 66.2756 442.591 65.5108 445.623C64.7461 448.655 64.8723 451.843 65.8745 454.805C66.8766 457.767 68.7121 460.377 71.1606 462.322C73.6092 464.267 76.5669 465.464 79.6789 465.77C107.488 468.579 131.472 479.11 151.632 497.364C192.753 534.54 228.222 489.173 267.843 489.173C136.573 444.516 167.913 166.3 195.312 59.3401Z" fill="#6FCE91"/>
<path d="M143.699 22.168H391.999V37.168H143.699V22.168Z" fill="#EFD176"/>
</svg>
