<svg width="512" height="512" viewBox="0 0 512 512" fill="none" xmlns="http://www.w3.org/2000/svg">
<path d="M363.214 173.316V26.2729H333.608C333.608 36.4275 331.608 46.4827 327.722 55.8643C323.836 65.2459 318.14 73.7703 310.959 80.9507C303.779 88.1311 295.255 93.8269 285.873 97.7129C276.491 101.599 266.436 103.599 256.282 103.599C246.127 103.599 236.072 101.599 226.69 97.7129C217.309 93.8269 208.784 88.1311 201.604 80.9507C194.424 73.7703 188.728 65.2459 184.842 55.8643C180.956 46.4827 178.956 36.4275 178.956 26.2729H149.347V173.316H363.214Z" fill="#F7EF87"/>
<path d="M382.48 3.27234e-08H348.886C344.833 0.000265126 340.946 1.61024 338.08 4.47587C335.214 7.3415 333.604 11.2281 333.603 15.281V61.375C333.603 104.775 298.091 140.625 254.703 139.758C234.472 139.345 215.209 131.018 201.047 116.564C186.885 102.11 178.953 82.6812 178.953 62.446V15.281C178.953 13.2742 178.557 11.287 177.789 9.43298C177.021 7.57894 175.896 5.89433 174.477 4.47535C173.058 3.05636 171.373 1.93079 169.519 1.16291C167.665 0.395027 165.678 -0.000131295 163.671 3.27234e-08H130.077C126.042 0.00150478 122.171 1.59887 119.31 4.44353C116.448 7.28818 114.828 11.1492 114.803 15.184C114.369 87.125 110.342 149.848 74.6268 174.969C68.5548 179.171 63.7494 184.956 60.7321 191.695C57.7148 198.435 56.6007 205.872 57.5108 213.2L68.5808 298.333C73.0812 332.936 73.0183 367.98 68.3938 402.567L57.2028 486.188C56.7725 489.408 57.0354 492.682 57.9739 495.792C58.9123 498.902 60.5045 501.775 62.6439 504.219C64.7834 506.663 67.4205 508.622 70.3786 509.964C73.3367 511.306 76.5475 512 79.7958 512H432.761C436.009 512 439.22 511.306 442.178 509.964C445.136 508.622 447.773 506.664 449.912 504.219C452.051 501.775 453.643 498.902 454.581 495.792C455.519 492.682 455.782 489.408 455.351 486.188L444.167 402.567C439.539 367.982 439.475 332.939 443.976 298.337L455.046 213.2C455.957 205.873 454.844 198.436 451.827 191.697C448.81 184.958 444.005 179.174 437.933 174.973C402.222 149.852 398.195 87.125 397.761 15.184C397.735 11.1481 396.114 7.28615 393.251 4.44135C390.388 1.59655 386.516 -8.12818e-05 382.48 3.27234e-08Z" fill="#8ED2E2"/>
<path d="M216.085 128.5C204.743 121.606 195.368 111.907 188.864 100.337C182.36 88.7677 178.946 75.7175 178.952 62.445V15.281C178.952 13.2742 178.557 11.287 177.789 9.4329C177.021 7.57881 175.896 5.89414 174.477 4.47512C173.058 3.05609 171.373 1.93051 169.519 1.16266C167.665 0.394813 165.678 -0.000262574 163.671 1.30928e-07L130.077 1.30928e-07C126.042 0.00150488 122.171 1.59887 119.31 4.44353C116.448 7.28818 114.828 11.1492 114.803 15.184C114.369 87.125 110.342 149.848 74.6268 174.969C68.5548 179.171 63.7494 184.956 60.7321 191.695C57.7148 198.435 56.6007 205.872 57.5108 213.2L68.5808 298.333C73.0812 332.936 73.0183 367.98 68.3938 402.567L57.2028 486.188C56.7725 489.408 57.0354 492.682 57.9739 495.792C58.9123 498.902 60.5045 501.775 62.6439 504.219C64.7834 506.663 67.4205 508.622 70.3786 509.964C73.3367 511.306 76.5475 512 79.7958 512H241.335C213.159 442.516 210.444 264.141 216.085 128.5Z" fill="#6FB6E1"/>
<path d="M444.221 296.445C386.655 279.519 338.041 315.808 256.28 315.808C174.519 315.808 125.902 279.52 68.3384 296.445L68.5843 298.332C73.0834 332.935 73.0192 367.979 68.3933 402.566L57.2093 486.188C56.7783 489.407 57.0405 492.681 57.9782 495.791C58.9159 498.901 60.5075 501.774 62.6463 504.218C64.7851 506.662 67.4217 508.621 70.3793 509.963C73.337 511.305 76.5474 512 79.7953 512H432.764C436.012 512 439.223 511.305 442.18 509.963C445.138 508.621 447.775 506.662 449.913 504.218C452.052 501.774 453.644 498.901 454.582 495.791C455.519 492.681 455.781 489.407 455.35 486.188L444.166 402.567C439.54 367.982 439.476 332.939 443.975 298.337L444.221 296.445Z" fill="#F7EF87"/>
<path d="M214.725 312.746C156.549 304.371 115.44 282.598 68.3384 296.446L68.5843 298.337C73.0834 332.939 73.0192 367.982 68.3933 402.567L57.2093 486.188C56.7783 489.407 57.0405 492.681 57.9782 495.791C58.9159 498.901 60.5075 501.774 62.6463 504.218C64.7851 506.663 67.4217 508.621 70.3793 509.964C73.337 511.306 76.5474 512 79.7953 512H241.334C225.119 472.012 217.334 395.965 214.725 312.746Z" fill="#EFD176"/>
<path d="M256.28 388.461C176.003 388.461 127.68 353.477 71.4708 368.223C70.9374 379.7 69.9114 391.148 68.3928 402.567L57.2028 486.188C56.7725 489.408 57.0354 492.682 57.9739 495.792C58.9123 498.902 60.5045 501.775 62.6439 504.219C64.7834 506.663 67.4205 508.622 70.3786 509.964C73.3367 511.306 76.5475 512 79.7958 512H432.765C436.013 512 439.223 511.306 442.181 509.963C445.138 508.621 447.775 506.663 449.914 504.218C452.053 501.774 453.644 498.901 454.582 495.791C455.52 492.681 455.782 489.407 455.351 486.188L444.167 402.567C442.639 391.161 441.613 379.713 441.089 368.223C384.874 353.477 336.558 388.461 256.28 388.461Z" fill="#99DA90"/>
<path d="M218.639 385.938C159.69 378.184 118.319 355.938 71.4713 368.223C70.938 379.7 69.912 391.148 68.3933 402.567L57.2093 486.188C56.7783 489.407 57.0405 492.681 57.9782 495.791C58.9159 498.9 60.5075 501.774 62.6463 504.218C64.7851 506.662 67.4217 508.621 70.3793 509.963C73.337 511.305 76.5474 512 79.7953 512H241.334C230.057 484.188 222.857 438.926 218.639 385.938Z" fill="#6FCE91"/>
<path d="M267.103 490.027H245.452C243.463 490.027 241.555 489.237 240.149 487.83C238.742 486.424 237.952 484.516 237.952 482.527C237.952 480.538 238.742 478.63 240.149 477.224C241.555 475.817 243.463 475.027 245.452 475.027H267.103C269.092 475.027 271 475.817 272.406 477.224C273.813 478.63 274.603 480.538 274.603 482.527C274.603 484.516 273.813 486.424 272.406 487.83C271 489.237 269.092 490.027 267.103 490.027Z" fill="#6FCE91"/>
<path d="M213.639 490.027H191.986C189.997 490.027 188.09 489.237 186.683 487.83C185.276 486.424 184.486 484.516 184.486 482.527C184.486 480.538 185.276 478.63 186.683 477.224C188.09 475.817 189.997 475.027 191.986 475.027H213.638C215.627 475.027 217.535 475.817 218.942 477.224C220.348 478.63 221.138 480.538 221.138 482.527C221.138 484.516 220.348 486.424 218.942 487.83C217.535 489.237 215.627 490.027 213.638 490.027H213.639Z" fill="#99DA90"/>
<path d="M160.171 490.027H138.519C136.529 490.027 134.622 489.237 133.215 487.83C131.809 486.424 131.019 484.516 131.019 482.527C131.019 480.538 131.809 478.63 133.215 477.224C134.622 475.817 136.529 475.027 138.519 475.027H160.171C162.16 475.027 164.067 475.817 165.474 477.224C166.88 478.63 167.671 480.538 167.671 482.527C167.671 484.516 166.88 486.424 165.474 487.83C164.067 489.237 162.16 490.027 160.171 490.027Z" fill="#99DA90"/>
<path d="M106.703 490.027H85.0537C83.0646 490.027 81.1569 489.237 79.7504 487.83C78.3439 486.424 77.5537 484.516 77.5537 482.527C77.5537 480.538 78.3439 478.63 79.7504 477.224C81.1569 475.817 83.0646 475.027 85.0537 475.027H106.703C108.692 475.027 110.599 475.817 112.006 477.224C113.413 478.63 114.203 480.538 114.203 482.527C114.203 484.516 113.413 486.424 112.006 487.83C110.599 489.237 108.692 490.027 106.703 490.027Z" fill="#99DA90"/>
<path d="M320.573 490.027H298.921C296.932 490.027 295.024 489.237 293.618 487.83C292.211 486.424 291.421 484.516 291.421 482.527C291.421 480.538 292.211 478.63 293.618 477.224C295.024 475.817 296.932 475.027 298.921 475.027H320.573C322.562 475.027 324.47 475.817 325.876 477.224C327.283 478.63 328.073 480.538 328.073 482.527C328.073 484.516 327.283 486.424 325.876 487.83C324.47 489.237 322.562 490.027 320.573 490.027Z" fill="#6FCE91"/>
<path d="M374.038 490.027H352.39C350.401 490.027 348.493 489.237 347.086 487.83C345.68 486.424 344.89 484.516 344.89 482.527C344.89 480.538 345.68 478.63 347.086 477.224C348.493 475.817 350.401 475.027 352.39 475.027H374.038C376.027 475.027 377.934 475.817 379.341 477.224C380.747 478.63 381.538 480.538 381.538 482.527C381.538 484.516 380.747 486.424 379.341 487.83C377.934 489.237 376.027 490.027 374.038 490.027Z" fill="#6FCE91"/>
<path d="M427.503 490.027H405.854C403.865 490.027 401.958 489.237 400.551 487.83C399.145 486.424 398.354 484.516 398.354 482.527C398.354 480.538 399.145 478.63 400.551 477.224C401.958 475.817 403.865 475.027 405.854 475.027H427.503C429.492 475.027 431.399 475.817 432.806 477.224C434.212 478.63 435.003 480.538 435.003 482.527C435.003 484.516 434.212 486.424 432.806 487.83C431.399 489.237 429.492 490.027 427.503 490.027Z" fill="#6FCE91"/>
</svg>
