<svg width="512" height="512" viewBox="0 0 512 512" fill="none" xmlns="http://www.w3.org/2000/svg">
<path d="M219.873 185.146C233.119 158.791 241.557 130.216 236.029 98.8761C230.52 67.6309 212.825 39.8538 186.836 21.6555C160.847 3.45713 128.693 -3.67174 97.4474 1.83711C32.3814 13.3101 -4.34959 74.5241 0.412409 140.423C7.44341 237.794 46.5924 434.323 154.377 415.314C261.271 396.466 170.978 282.427 219.873 185.146Z" fill="#8ED2E2"/>
<path d="M154.377 415.314C180.061 410.787 194.338 400.752 201.92 386.787C111.838 356.106 34.9634 134.896 88.6704 3.76709C29.1114 18.9891 -4.13057 77.5561 0.412434 140.423C7.44743 237.794 46.5924 434.321 154.377 415.314Z" fill="#6FB6E1"/>
<path d="M106.256 284.173C81.1984 276.251 53.0804 287.201 33.9594 306.801C57.8814 372.829 96.0883 425.595 154.377 415.314C228.127 402.314 208.018 343.998 204.51 277.138C173.381 298.247 140.318 294.939 106.256 284.173Z" fill="#FCF2D0"/>
<path d="M199.666 109.407C193.73 100.405 186.123 92.6257 177.256 86.489C172.381 83.0954 168.402 78.569 165.663 73.2985C162.923 68.028 161.503 62.1711 161.526 56.231V51.646C161.526 41.255 153.444 32.404 143.057 32.037C140.484 31.9437 137.918 32.3701 135.513 33.2906C133.108 34.211 130.913 35.6068 129.059 37.3944C127.206 39.182 125.732 41.3249 124.724 43.695C123.717 46.0651 123.198 48.6138 123.198 51.189V54.801C123.201 59.1418 121.638 63.3379 118.796 66.6193C115.955 69.9007 112.025 72.0472 107.728 72.665C82.5984 76.259 58.2134 87.521 40.2284 104.708C18.3114 125.661 8.21738 153.024 11.8144 181.755C12.4512 186.794 15.0621 191.373 19.0735 194.488C23.0849 197.603 28.1687 198.998 33.2081 198.367C38.2475 197.736 42.8304 195.131 45.9499 191.123C49.0694 187.115 50.4705 182.033 49.8454 176.993C47.2164 155.985 57.5684 141.157 66.7124 132.415C84.6304 115.286 113.107 106.603 137.567 110.79C143.686 111.834 149.523 114.132 154.712 117.54C159.901 120.947 164.329 125.39 167.719 130.59C175.938 142.985 178.371 158.762 174.571 175.008C173.983 177.464 173.886 180.011 174.286 182.505C174.686 184.998 175.574 187.388 176.901 189.536C178.227 191.685 179.965 193.55 182.014 195.025C184.064 196.5 186.385 197.556 188.843 198.131C191.302 198.706 193.85 198.79 196.341 198.377C198.833 197.964 201.218 197.063 203.359 195.726C205.501 194.388 207.357 192.64 208.822 190.583C210.286 188.526 211.329 186.2 211.891 183.738C218.127 157.101 213.783 130.701 199.666 109.407Z" fill="#F7EF87"/>
<path d="M154.377 415.314C180.061 410.787 194.354 400.759 201.936 386.794C167.971 375.232 135.889 336.594 111.967 285.903C110.065 285.348 108.161 284.772 106.256 284.173C81.2014 276.251 53.0804 287.204 33.9564 306.81C57.8814 372.829 96.0884 425.595 154.377 415.314Z" fill="#F6E3A3"/>
<path d="M175.99 245.942C175.99 249.934 174.807 253.836 172.589 257.156C170.371 260.475 167.219 263.062 163.53 264.59C159.842 266.117 155.784 266.517 151.869 265.738C147.953 264.959 144.357 263.037 141.534 260.214C138.711 257.392 136.789 253.795 136.01 249.88C135.231 245.964 135.631 241.906 137.159 238.218C138.686 234.53 141.273 231.378 144.593 229.16C147.912 226.942 151.814 225.758 155.806 225.758C161.159 225.758 166.293 227.885 170.079 231.67C173.864 235.455 175.99 240.589 175.99 245.942Z" fill="#FCF2D0"/>
<path d="M96.4673 226.567C96.4669 229.717 95.5324 232.797 93.7819 235.416C92.0314 238.035 89.5435 240.076 86.6329 241.282C83.7223 242.487 80.5196 242.802 77.43 242.187C74.3403 241.572 71.5024 240.054 69.2751 237.827C67.0478 235.599 65.5312 232.76 64.917 229.671C64.3028 226.581 64.6186 223.378 65.8245 220.468C67.0305 217.558 69.0723 215.07 71.6919 213.32C74.3114 211.571 77.3911 210.637 80.5413 210.637C82.6332 210.637 84.7046 211.049 86.6372 211.849C88.5698 212.65 90.3257 213.823 91.8047 215.303C93.2837 216.782 94.4567 218.538 95.2567 220.471C96.0568 222.404 96.4681 224.475 96.4673 226.567Z" fill="#FCF2D0"/>
<path d="M92.6543 236.901C89.9316 228.522 87.4316 220 85.1543 211.335C82.4065 210.502 79.4845 210.427 76.6975 211.118C73.9105 211.809 71.3623 213.241 69.3226 215.262C67.2828 217.283 65.8275 219.818 65.1107 222.599C64.3938 225.379 64.4421 228.302 65.2504 231.057C66.0587 233.813 67.597 236.298 69.7023 238.251C71.8077 240.203 74.4018 241.55 77.2101 242.149C80.0184 242.748 82.9364 242.577 85.6551 241.653C88.3739 240.729 90.7923 239.087 92.6543 236.901Z" fill="#F6E3A3"/>
<path d="M292.123 280.548C278.877 254.193 270.439 225.614 275.967 194.275C278.695 178.804 284.444 164.022 292.884 150.773C301.325 137.523 312.293 126.066 325.161 117.056C338.03 108.045 352.547 101.657 367.884 98.2572C383.222 94.857 399.078 94.5111 414.549 97.2391C479.612 108.712 516.349 169.927 511.588 235.821C504.553 333.196 465.404 529.721 357.619 510.716C250.725 491.868 341.021 377.829 292.123 280.548Z" fill="#8ED2E2"/>
<path d="M346.006 105.38C327.896 113.257 312.019 125.499 299.797 141.011C287.575 156.524 279.388 174.824 275.967 194.275C270.44 225.615 278.881 254.193 292.127 280.548C341.022 377.829 250.727 491.868 357.619 510.716C390.025 516.431 416.219 502.646 437.209 477.946C356.592 428.286 308.635 232.54 346.006 105.38Z" fill="#6FB6E1"/>
<path d="M405.74 379.571C430.795 371.653 458.916 382.602 478.04 402.208C454.122 468.228 415.915 520.993 357.622 510.716C283.872 497.716 303.981 439.396 307.489 372.536C338.619 393.646 371.682 390.341 405.74 379.571Z" fill="#FCF2D0"/>
<path d="M312.334 204.81C318.269 195.807 325.876 188.027 334.744 181.892C339.619 178.497 343.597 173.97 346.337 168.699C349.076 163.428 350.495 157.57 350.471 151.63V147.048C350.471 136.657 358.553 127.806 368.94 127.439C371.514 127.345 374.08 127.771 376.485 128.691C378.89 129.612 381.085 131.007 382.939 132.795C384.793 134.583 386.267 136.726 387.274 139.096C388.28 141.467 388.799 144.016 388.798 146.591V150.208C388.796 154.547 390.36 158.742 393.201 162.022C396.043 165.302 399.972 167.447 404.267 168.063C429.4 171.663 453.783 182.922 471.767 200.11C493.685 221.059 503.779 248.423 500.181 277.157C499.549 282.2 496.94 286.786 492.927 289.905C490.94 291.449 488.668 292.587 486.241 293.254C483.814 293.92 481.28 294.102 478.783 293.79C476.286 293.477 473.875 292.675 471.687 291.43C469.5 290.185 467.579 288.522 466.035 286.535C462.916 282.522 461.518 277.434 462.15 272.391C464.779 251.391 454.427 236.559 445.283 227.817C427.365 210.689 398.889 202.001 374.428 206.189C368.31 207.234 362.473 209.533 357.284 212.94C352.096 216.347 347.667 220.79 344.276 225.989C336.057 238.384 333.624 254.161 337.424 270.403C337.998 272.853 338.083 275.393 337.675 277.876C337.267 280.36 336.374 282.738 335.047 284.877C333.72 287.015 331.984 288.871 329.94 290.338C327.895 291.806 325.582 292.856 323.131 293.43C320.681 294.003 318.141 294.089 315.658 293.681C313.175 293.273 310.796 292.38 308.658 291.053C306.519 289.725 304.664 287.99 303.196 285.945C301.728 283.901 300.678 281.587 300.104 279.137C293.869 252.501 298.213 226.101 312.334 204.81Z" fill="#F7EF87"/>
<path d="M376.377 341.345C376.378 345.338 375.194 349.24 372.976 352.56C370.759 355.88 367.606 358.468 363.918 359.996C360.229 361.524 356.171 361.924 352.255 361.146C348.339 360.367 344.742 358.445 341.919 355.622C339.095 352.799 337.173 349.202 336.394 345.287C335.614 341.371 336.014 337.312 337.541 333.623C339.069 329.935 341.656 326.782 344.976 324.564C348.295 322.345 352.198 321.161 356.19 321.161C361.544 321.161 366.678 323.288 370.463 327.073C374.249 330.858 376.376 335.992 376.377 341.345Z" fill="#FCF2D0"/>
<path d="M347.92 322.939C343.451 324.928 339.857 328.475 337.808 332.919C335.76 337.362 335.398 342.398 336.788 347.089C338.179 351.78 341.228 355.805 345.366 358.414C349.505 361.024 354.451 362.039 359.283 361.271C355.014 348.954 351.213 336.122 347.92 322.939Z" fill="#F6E3A3"/>
<path d="M447.385 321.966C447.386 325.116 446.452 328.196 444.702 330.815C442.952 333.435 440.465 335.477 437.555 336.683C434.644 337.889 431.442 338.205 428.352 337.59C425.262 336.976 422.424 335.46 420.196 333.232C417.968 331.005 416.451 328.167 415.836 325.077C415.221 321.988 415.536 318.785 416.741 315.875C417.946 312.964 419.987 310.476 422.607 308.725C425.226 306.975 428.305 306.04 431.455 306.04C435.679 306.04 439.731 307.718 442.718 310.705C445.705 313.691 447.384 317.742 447.385 321.966Z" fill="#FCF2D0"/>
<path d="M437.213 477.946C410.326 461.388 387.068 428.601 369.398 387.501C348.132 389.552 327.41 386.052 307.48 372.54C303.98 439.399 283.867 497.716 357.617 510.72C390.025 516.431 416.225 502.649 437.213 477.946Z" fill="#F6E3A3"/>
</svg>
