<svg width="512" height="512" viewBox="0 0 512 512" fill="none" xmlns="http://www.w3.org/2000/svg">
<path d="M194.408 167.031C153.334 144.105 152.377 93 195.842 93C217.365 93 234.912 115.934 253.635 137.418C272.358 158.902 351.35 199.363 381.287 211.098V256.898L259.85 242.968L194.408 167.031Z" fill="#FCF2D0"/>
<path d="M381.287 211.1C366.892 229.788 326.775 233.237 306.326 221.026C270.658 199.726 214.56 124.682 186.806 136.491C170.829 143.647 156.193 151.046 142.689 151.046C116.548 151.046 74.5563 117.776 48.4163 117.776C22.2763 117.776 -10.3927 240.5 30.0063 286.992L262.264 334.34H483.736L506.598 275.355C489.662 231.9 438.186 238.285 381.287 211.1Z" fill="#646F7E"/>
<path d="M180.478 139.352C166.939 145.489 154.388 151.043 142.689 151.043C116.548 151.043 74.5563 117.773 48.4163 117.773C22.2763 117.773 -10.3927 240.5 30.0063 286.992L209.698 323.625C158.978 259.945 158.67 180.566 180.478 139.352Z" fill="#4E5660"/>
<path d="M74.9593 279.66C61.4983 250.48 80.4003 229.609 109.432 226.06C138.464 222.511 194.963 256.9 243.408 256.9C324.201 256.9 387.935 302.412 357.092 338.627L74.9593 279.66Z" fill="#EDA1AB"/>
<path d="M170.698 240.68C146.264 232.332 124.261 224.243 109.428 226.059C80.3974 229.61 61.4944 250.477 74.9554 279.659L196.568 305.077C184.198 285.314 175.438 263.509 170.698 240.68Z" fill="#E68A97"/>
<path d="M0.611376 299.7C1.66267 291.479 3.6561 283.406 6.55238 275.641C8.83325 269.787 12.9266 264.816 18.2341 261.455C23.5417 258.093 29.7853 256.517 36.0524 256.957C127.743 262.746 253.97 314.516 342.888 314.516C438.13 314.516 477.088 319.621 506.599 275.352C507.439 277.699 508.204 280.037 508.892 282.364C523.205 330.548 486.192 378.764 435.931 378.764H70.5724C28.2444 378.764 -4.96262 341.664 0.611376 299.702V299.7Z" fill="#FCF2D0"/>
<path d="M200.162 290.34C142.889 276 84.6234 260.027 36.0534 256.961C29.7863 256.521 23.5427 258.097 18.2351 261.459C12.9276 264.82 8.83425 269.791 6.55338 275.645C3.65706 283.409 1.66329 291.48 0.611376 299.7C-4.96262 341.661 28.2444 378.763 70.5724 378.763H219.205C198.798 355.023 193.598 323.625 200.162 290.34Z" fill="#F6E3A3"/>
<path d="M161.85 348.8H80.2914C75.3072 348.8 70.5271 346.82 67.0028 343.296C63.4784 339.771 61.4984 334.991 61.4984 330.007C61.4984 325.023 63.4784 320.243 67.0028 316.718C70.5271 313.194 75.3072 311.214 80.2914 311.214H161.85C166.835 311.214 171.615 313.194 175.139 316.718C178.663 320.243 180.643 325.023 180.643 330.007C180.643 334.991 178.663 339.771 175.139 343.296C171.615 346.82 166.835 348.8 161.85 348.8Z" fill="#6FB6E1"/>
<path d="M225.713 194.617C224.212 194.617 222.745 194.167 221.502 193.325C220.26 192.482 219.298 191.286 218.743 189.891C218.187 188.497 218.063 186.967 218.387 185.501C218.71 184.035 219.467 182.7 220.557 181.668L261.213 143.219C262.659 141.852 264.588 141.115 266.577 141.17C268.566 141.226 270.451 142.069 271.818 143.514C273.185 144.96 273.922 146.889 273.866 148.878C273.811 150.867 272.968 152.752 271.522 154.119L230.865 192.566C229.474 193.885 227.63 194.619 225.713 194.617Z" fill="#8ED2E2"/>
<path d="M283.576 233.559C282.166 233.559 280.785 233.162 279.591 232.413C278.396 231.663 277.437 230.593 276.823 229.323C276.21 228.054 275.966 226.637 276.121 225.236C276.276 223.834 276.823 222.505 277.698 221.4L313.257 176.474C314.492 174.914 316.295 173.909 318.271 173.679C320.247 173.449 322.233 174.013 323.793 175.247C325.353 176.482 326.358 178.285 326.588 180.261C326.818 182.237 326.254 184.223 325.019 185.783L289.457 230.709C288.757 231.598 287.863 232.317 286.845 232.81C285.826 233.304 284.708 233.56 283.576 233.559Z" fill="#8ED2E2"/>
<path d="M89.3854 131.406C74.4594 124.2 59.9084 117.773 48.4164 117.773C38.3964 117.773 27.4244 135.812 19.9674 160.668C49.6504 170.211 82.7214 168.441 89.3854 131.406Z" fill="#F6E3A3"/>
</svg>
