<svg width="512" height="512" viewBox="0 0 512 512" fill="none" xmlns="http://www.w3.org/2000/svg">
<path d="M428.16 0C431.738 0.000262634 435.282 0.705313 438.587 2.0749C441.893 3.44448 444.897 5.45177 447.427 7.98217C449.957 10.5126 451.964 13.5165 453.333 16.8225C454.702 20.1285 455.406 23.6717 455.406 27.25V253.512C455.405 288.634 441.454 322.317 416.621 347.153L290.559 473.215C278.234 485.539 263.598 495.309 247.489 501.964C231.38 508.62 214.116 512.03 196.687 512C179.257 511.969 162.005 508.499 145.92 501.787C129.834 495.075 115.232 485.254 102.95 472.887C51.3051 420.895 52.8501 336.356 104.669 284.535L190.548 198.656V27.25C190.548 20.0236 193.418 13.0929 198.527 7.98252C203.637 2.87218 210.567 0.000795611 217.793 0L428.16 0Z" fill="#8ED2E2"/>
<path d="M290.559 473.211L354.211 409.559C277.684 313.578 270.848 106.848 279.16 0H217.793C214.215 0.000262634 210.672 0.705313 207.366 2.0749C204.06 3.44448 201.057 5.45177 198.526 7.98217C195.996 10.5126 193.99 13.5165 192.62 16.8225C191.251 20.1285 190.547 23.6717 190.547 27.25V198.656L104.668 284.535C52.8481 336.355 51.3051 420.894 102.949 472.887C115.231 485.254 129.833 495.076 145.919 501.787C162.004 508.499 179.257 511.97 196.686 512C214.116 512.03 231.38 508.619 247.489 501.963C263.597 495.307 278.234 485.536 290.558 473.211H290.559Z" fill="#6FB6E1"/>
<path d="M72.9262 334.613C56.2002 381.367 65.8442 435.527 102.949 472.887C120.625 490.673 142.984 503.08 167.428 508.667C191.873 514.254 217.402 512.793 241.049 504.453C243.853 481.627 241.449 458.463 234.018 436.699C226.586 414.936 214.321 395.139 198.142 378.795C181.963 362.451 162.292 349.984 140.605 342.332C118.918 334.68 95.7793 332.041 72.9262 334.613Z" fill="#EFD176"/>
<path d="M428.16 0H217.793C214.215 0.000262634 210.672 0.705313 207.366 2.0749C204.06 3.44448 201.056 5.45177 198.526 7.98217C195.996 10.5126 193.99 13.5165 192.62 16.8225C191.251 20.1285 190.547 23.6717 190.547 27.25V99.9H455.406V27.25C455.406 23.6717 454.702 20.1285 453.333 16.8225C451.964 13.5165 449.957 10.5126 447.427 7.98217C444.897 5.45177 441.893 3.44448 438.587 2.0749C435.282 0.705313 431.738 0.000262634 428.16 0V0Z" fill="#F7EF87"/>
<path d="M428.16 0H217.793C214.215 0.000262634 210.672 0.705313 207.366 2.0749C204.06 3.44448 201.056 5.45177 198.526 7.98217C195.996 10.5126 193.99 13.5165 192.62 16.8225C191.251 20.1285 190.547 23.6717 190.547 27.25V99.9H455.406V27.25C455.406 23.6717 454.702 20.1285 453.333 16.8225C451.964 13.5165 449.957 10.5126 447.427 7.98217C444.897 5.45177 441.893 3.44448 438.587 2.0749C435.282 0.705313 431.738 0.000262634 428.16 0V0Z" fill="#F7EF87"/>
<path d="M279.16 0H217.793C214.215 0.000262634 210.672 0.705313 207.366 2.0749C204.06 3.44448 201.056 5.45177 198.526 7.98217C195.996 10.5126 193.99 13.5165 192.62 16.8225C191.251 20.1285 190.547 23.6717 190.547 27.25V99.9H276.707C275.863 62.316 277 27.781 279.16 0Z" fill="#EFD176"/>
<path d="M315.477 0H330.477V99.9H315.477V0Z" fill="#EFD176"/>
<path d="M244.453 0H259.453V99.9H244.453V0Z" fill="#F7EF87"/>
<path d="M386.5 0H401.5V99.9H386.5V0Z" fill="#EFD176"/>
<path d="M340.137 331.07C340.098 356.393 347.517 381.167 361.469 402.3L416.617 347.152C428.915 334.855 438.67 320.255 445.325 304.187C451.981 288.12 455.406 270.899 455.406 253.507V202.3C423.715 205.821 394.435 220.903 373.168 244.661C351.901 268.419 340.141 299.184 340.137 331.07Z" fill="#F7EF87"/>
<path d="M164.875 297.449C163.393 297.448 161.944 297.007 160.712 296.183C159.48 295.359 158.519 294.188 157.952 292.818C157.385 291.449 157.237 289.942 157.526 288.488C157.814 287.034 158.528 285.698 159.575 284.649L171.075 273.149C172.49 271.783 174.384 271.027 176.351 271.044C178.317 271.061 180.198 271.85 181.589 273.24C182.979 274.631 183.768 276.512 183.785 278.479C183.802 280.445 183.046 282.34 181.68 283.754L170.18 295.254C169.484 295.951 168.657 296.504 167.747 296.881C166.836 297.258 165.861 297.451 164.875 297.449Z" fill="#8ED2E2"/>
<path d="M283.641 418.949C282.656 418.95 281.681 418.756 280.772 418.378C279.862 418 279.036 417.447 278.341 416.749L269.196 407.601C267.854 406.182 267.119 404.295 267.146 402.343C267.174 400.39 267.962 398.525 269.343 397.144C270.724 395.763 272.59 394.976 274.543 394.949C276.495 394.922 278.382 395.658 279.8 397L288.948 406.145C289.996 407.194 290.709 408.53 290.998 409.984C291.287 411.438 291.138 412.945 290.571 414.314C290.004 415.684 289.044 416.855 287.812 417.679C286.579 418.503 285.131 418.944 283.648 418.945L283.641 418.949Z" fill="#8ED2E2"/>
<path d="M269.719 314.211C268.237 314.21 266.788 313.769 265.556 312.945C264.324 312.121 263.363 310.95 262.796 309.58C262.229 308.211 262.081 306.704 262.37 305.25C262.658 303.796 263.372 302.46 264.419 301.411L273.763 292.063C275.17 290.656 277.077 289.866 279.066 289.865C281.056 289.865 282.963 290.655 284.37 292.061C285.777 293.467 286.568 295.375 286.568 297.364C286.568 299.353 285.779 301.261 284.372 302.668L275.024 312.016C274.328 312.713 273.501 313.266 272.591 313.643C271.68 314.02 270.704 314.213 269.719 314.211Z" fill="#8ED2E2"/>
<path d="M307.875 232.1C306.89 232.101 305.915 231.907 305.005 231.529C304.096 231.152 303.27 230.598 302.575 229.9L294.575 221.9C293.856 221.209 293.281 220.382 292.885 219.466C292.49 218.551 292.28 217.565 292.27 216.568C292.26 215.57 292.448 214.581 292.825 213.657C293.202 212.734 293.759 211.895 294.464 211.189C295.169 210.483 296.008 209.925 296.931 209.548C297.854 209.17 298.844 208.981 299.841 208.99C300.838 209 301.824 209.208 302.74 209.603C303.656 209.998 304.484 210.572 305.175 211.291L313.175 219.291C314.223 220.34 314.936 221.676 315.225 223.13C315.514 224.584 315.365 226.091 314.798 227.46C314.231 228.83 313.271 230.001 312.038 230.825C310.806 231.649 309.358 232.09 307.875 232.091V232.1Z" fill="#6FB6E1"/>
</svg>
