<svg width="513" height="512" viewBox="0 0 513 512" fill="none" xmlns="http://www.w3.org/2000/svg">
<path d="M189.932 266.469H324.064V373.492H189.932V266.469Z" fill="#646F7E"/>
<path d="M105.588 120.949L9.56752 216.969C4.08048 222.458 0.998047 229.901 0.998047 237.663C0.998047 245.424 4.08048 252.867 9.56752 258.356L30.2745 279.063C35.7626 284.55 43.2054 287.633 50.966 287.633C58.7266 287.633 66.1694 284.55 71.6575 279.063L134.619 216.1V367.918C134.619 372.559 136.462 377.011 139.744 380.292C143.026 383.574 147.477 385.418 152.119 385.418H188.088C199.715 385.418 211.102 382.109 220.918 375.877C230.734 369.646 238.574 360.749 243.522 350.227L253.077 329.911C255.659 324.416 256.997 318.42 256.998 312.348V91.9221H175.674C149.387 91.921 124.176 102.362 105.588 120.949Z" fill="#4E5660"/>
<path d="M105.588 120.949L9.56752 216.969C4.08048 222.458 0.998047 229.901 0.998047 237.663C0.998047 245.424 4.08048 252.867 9.56752 258.356L30.2745 279.063C35.7626 284.55 43.2054 287.633 50.966 287.633C58.7266 287.633 66.1694 284.55 71.6575 279.063L134.619 216.1V367.918C134.619 372.559 136.462 377.011 139.744 380.292C143.026 383.574 147.477 385.418 152.119 385.418H188.088C199.715 385.418 211.102 382.109 220.918 375.877C230.734 369.646 238.574 360.749 243.522 350.227L253.077 329.911C255.659 324.416 256.997 318.42 256.998 312.348V91.9221H175.674C149.387 91.921 124.176 102.362 105.588 120.949Z" fill="#8ED2E2"/>
<path d="M175.67 91.9221C149.384 91.9218 124.175 102.363 105.588 120.949L9.56752 216.969C4.08048 222.458 0.998047 229.901 0.998047 237.663C0.998047 245.424 4.08048 252.867 9.56752 258.356L30.2745 279.063C35.7626 284.55 43.2054 287.633 50.966 287.633C58.7266 287.633 66.1694 284.55 71.6575 279.063L134.619 216.1V367.918C134.619 372.559 136.462 377.011 139.744 380.292C143.026 383.574 147.477 385.418 152.119 385.418H188.088C197.257 385.417 206.309 383.357 214.576 379.39C222.843 375.424 230.114 369.652 235.853 362.5C209.736 329.32 196.708 274.215 193.81 214.664L256.998 255.9V91.9221H175.67Z" fill="#6FB6E1"/>
<path d="M408.408 120.949L504.428 216.969C509.915 222.458 512.998 229.901 512.998 237.663C512.998 245.424 509.915 252.867 504.428 258.356L483.721 279.063C478.233 284.55 470.79 287.633 463.03 287.633C455.269 287.633 447.826 284.55 442.338 279.063L379.377 216.1V367.918C379.377 372.559 377.533 377.011 374.251 380.292C370.97 383.574 366.518 385.418 361.877 385.418H325.908C314.281 385.418 302.894 382.109 293.078 375.877C283.262 369.646 275.422 360.749 270.474 350.227L260.919 329.911C258.337 324.416 256.998 318.42 256.998 312.348V91.9221H338.322C364.609 91.921 389.82 102.362 408.408 120.949Z" fill="#8ED2E2"/>
<path d="M256.998 91.9219V255.9L355.166 191.838C363.376 186.493 369.21 178.19 371.456 168.655C373.703 159.12 372.189 149.086 367.229 140.638L364.069 135.247L367.288 132.247C371.136 128.657 374.055 124.187 375.792 119.219C377.529 114.252 378.033 108.936 377.261 103.731C377.047 102.299 376.736 100.883 376.331 99.4929C364.286 94.4927 351.373 91.9188 338.331 91.9189L256.998 91.9219Z" fill="#6FB6E1"/>
<path d="M30.0754 235.7C28.593 235.699 27.1443 235.258 25.9121 234.434C24.68 233.61 23.7197 232.439 23.1526 231.069C22.5855 229.7 22.4369 228.193 22.7258 226.739C23.0146 225.285 23.7279 223.949 24.7754 222.9L30.4204 217.255C31.835 215.889 33.7295 215.133 35.6959 215.15C37.6624 215.167 39.5435 215.956 40.9341 217.346C42.3246 218.737 43.1134 220.618 43.1305 222.584C43.1476 224.551 42.3916 226.445 41.0254 227.86L35.3804 233.508C34.6843 234.205 33.8572 234.757 32.9468 235.134C32.0364 235.51 31.0605 235.702 30.0754 235.7Z" fill="white"/>
<path d="M483.921 235.7C482.936 235.701 481.961 235.507 481.051 235.129C480.141 234.751 479.315 234.198 478.621 233.5L472.973 227.852C471.606 226.437 470.85 224.543 470.867 222.576C470.885 220.61 471.673 218.729 473.064 217.338C474.454 215.948 476.336 215.159 478.302 215.142C480.268 215.125 482.163 215.881 483.578 217.247L489.226 222.892C490.273 223.941 490.986 225.277 491.275 226.731C491.564 228.185 491.416 229.692 490.848 231.061C490.281 232.431 489.321 233.602 488.089 234.426C486.857 235.25 485.408 235.691 483.926 235.692L483.921 235.7Z" fill="white"/>
<path d="M221.064 79H197.623C192.15 78.9999 186.751 80.2533 181.838 82.664L161.162 92.813C158.62 94.0605 156.419 95.9069 154.749 98.1933C153.079 100.48 151.989 103.138 151.574 105.938C151.158 108.739 151.43 111.599 152.364 114.272C153.299 116.945 154.869 119.35 156.939 121.282L162.439 126.411C164.284 128.131 165.488 130.428 165.853 132.924C166.218 135.419 165.722 137.965 164.447 140.141L159.713 148.227C156.711 153.352 155.797 159.435 157.158 165.215C158.52 170.996 162.053 176.031 167.026 179.278L256.998 237.988L221.064 79Z" fill="#FCF2D0"/>
<path d="M292.932 79H316.373C321.845 78.9999 327.245 80.2533 332.158 82.664L352.834 92.812C355.376 94.0595 357.576 95.9059 359.247 98.1923C360.917 100.479 362.007 103.137 362.422 105.937C362.837 108.738 362.566 111.598 361.632 114.271C360.697 116.944 359.127 119.349 357.057 121.281L351.557 126.41C349.712 128.13 348.508 130.427 348.143 132.923C347.778 135.418 348.274 137.964 349.549 140.14L354.283 148.226C357.285 153.351 358.2 159.433 356.838 165.214C355.477 170.995 351.944 176.03 346.971 179.277L256.998 237.988L292.932 79Z" fill="#FCF2D0"/>
<path d="M312.806 98.605L256.997 237.988L201.188 98.6C200.321 96.4314 199.998 94.0833 200.248 91.7611C200.498 89.439 201.314 87.2135 202.623 85.2794C203.933 83.3454 205.696 81.7617 207.759 80.667C209.823 79.5723 212.123 79 214.458 79L299.536 79C301.872 79.0001 304.173 79.5728 306.236 80.6679C308.3 81.763 310.063 83.3471 311.373 85.2817C312.682 87.2163 313.498 89.4423 313.748 91.765C313.997 94.0876 313.674 96.4362 312.806 98.605Z" fill="#646F7E"/>
<path d="M215.657 318.7H169.864C167.318 318.7 164.876 317.689 163.075 315.888C161.275 314.088 160.264 311.646 160.264 309.1V300.756C160.264 298.21 161.275 295.768 163.075 293.968C164.876 292.167 167.318 291.156 169.864 291.156H215.657C218.203 291.156 220.645 292.167 222.445 293.968C224.245 295.768 225.257 298.21 225.257 300.756V309.1C225.257 311.646 224.245 314.088 222.445 315.888C220.645 317.689 218.203 318.7 215.657 318.7Z" fill="#FCF2D0"/>
<path d="M298.338 318.7H344.131C346.677 318.7 349.119 317.689 350.92 315.888C352.72 314.088 353.731 311.646 353.731 309.1V300.756C353.731 298.21 352.72 295.768 350.92 293.968C349.119 292.167 346.677 291.156 344.131 291.156H298.338C297.078 291.156 295.829 291.404 294.665 291.887C293.5 292.369 292.442 293.076 291.55 293.968C290.659 294.859 289.952 295.918 289.469 297.082C288.987 298.247 288.738 299.495 288.738 300.756V309.1C288.738 310.361 288.987 311.609 289.469 312.774C289.952 313.938 290.659 314.997 291.55 315.888C292.442 316.78 293.5 317.487 294.665 317.969C295.829 318.452 297.078 318.7 298.338 318.7Z" fill="#FCF2D0"/>
<path d="M344.627 186.969L357.361 199.7C359.88 202.219 363.088 203.934 366.582 204.629C370.075 205.323 373.696 204.967 376.987 203.604C380.278 202.241 383.09 199.932 385.069 196.971C387.048 194.009 388.104 190.527 388.104 186.966C388.104 183.404 387.048 179.922 385.069 176.96C383.09 173.999 380.278 171.691 376.987 170.327C373.696 168.964 370.075 168.608 366.582 169.303C363.088 169.997 359.88 171.713 357.361 174.231L344.627 186.969Z" fill="#EDA1AB"/>
<path d="M344.627 186.969L357.361 174.235C359.879 171.716 361.594 168.507 362.289 165.014C362.984 161.521 362.627 157.9 361.264 154.609C359.901 151.318 357.593 148.506 354.631 146.527C351.67 144.548 348.188 143.492 344.626 143.492C341.064 143.492 337.583 144.548 334.621 146.527C331.659 148.506 329.351 151.318 327.988 154.609C326.625 157.9 326.268 161.521 326.963 165.014C327.658 168.507 329.373 171.716 331.892 174.235L344.627 186.969Z" fill="#EDA1AB"/>
<path d="M344.627 186.969L331.893 174.234C329.375 171.715 326.166 170 322.673 169.305C319.179 168.611 315.558 168.967 312.268 170.33C308.977 171.693 306.164 174.002 304.185 176.963C302.207 179.925 301.15 183.407 301.15 186.968C301.15 190.53 302.207 194.012 304.185 196.974C306.164 199.935 308.977 202.243 312.268 203.607C315.558 204.97 319.179 205.326 322.673 204.631C326.166 203.937 329.375 202.222 331.893 199.703L344.627 186.969Z" fill="#EDA1AB"/>
<path d="M344.628 186.969L331.894 199.7C329.375 202.219 327.66 205.428 326.965 208.921C326.27 212.414 326.627 216.035 327.99 219.326C329.353 222.617 331.661 225.429 334.623 227.408C337.584 229.387 341.066 230.443 344.628 230.443C348.19 230.443 351.672 229.387 354.633 227.408C357.595 225.429 359.903 222.617 361.266 219.326C362.629 216.035 362.986 212.414 362.291 208.921C361.596 205.428 359.881 202.219 357.363 199.7L344.628 186.969Z" fill="#EDA1AB"/>
<path d="M362.635 186.969C362.636 190.531 361.58 194.013 359.601 196.976C357.622 199.938 354.809 202.246 351.518 203.61C348.227 204.973 344.606 205.33 341.112 204.635C337.618 203.94 334.409 202.225 331.89 199.706C329.371 197.187 327.656 193.978 326.961 190.484C326.266 186.99 326.623 183.369 327.987 180.078C329.35 176.787 331.659 173.974 334.621 171.995C337.583 170.017 341.065 168.961 344.627 168.961C349.403 168.962 353.983 170.859 357.36 174.236C360.737 177.613 362.634 182.193 362.635 186.969Z" fill="#F7EF87"/>
</svg>
