<svg width="513" height="512" viewBox="0 0 513 512" fill="none" xmlns="http://www.w3.org/2000/svg">
<path d="M497.969 261.383L407.769 171.176C397.005 160.412 384.226 151.873 370.161 146.048C356.097 140.223 341.023 137.226 325.8 137.227H186.2C170.978 137.227 155.906 140.225 141.843 146.05C127.78 151.875 115.002 160.413 104.239 171.176L14.0391 261.383L70.6801 318.024L138.192 250.508V368.418C138.192 372.253 138.947 376.05 140.415 379.592C141.882 383.135 144.033 386.354 146.745 389.066C149.456 391.777 152.675 393.928 156.218 395.395C159.76 396.863 163.557 397.618 167.392 397.618H344.617C352.361 397.618 359.789 394.542 365.265 389.066C370.741 383.59 373.817 376.162 373.817 368.418V250.508L441.333 318.024L497.969 261.383Z" fill="#FCF2D0"/>
<path d="M219.969 202.52C234.778 197.594 251.485 195.688 256 195.243C261.309 195.766 283.352 198.294 299.449 205.343C305.801 208.138 312.975 208.432 319.534 206.164C326.094 203.896 331.555 199.235 334.824 193.113C345.914 172.226 351.246 154.445 350.789 139.957C342.585 138.144 334.207 137.229 325.805 137.227H186.2C155.459 137.228 125.977 149.44 104.239 171.176L14.0391 261.383L70.6801 318.024L138.192 250.508V368.418C138.192 372.253 138.947 376.05 140.415 379.592C141.882 383.135 144.033 386.354 146.745 389.066C149.456 391.777 152.675 393.928 156.218 395.395C159.76 396.863 163.557 397.618 167.392 397.618H262.992C232.879 373.645 218.355 286.066 219.969 202.52Z" fill="#F6E3A3"/>
<path d="M178.008 137.227H207.141V363.344H178.008V137.227Z" fill="#4E5660"/>
<path d="M200.926 397.617H184.226C182.162 397.617 180.164 396.888 178.586 395.557C177.008 394.227 175.95 392.381 175.601 390.347L170.831 362.531C170.616 361.275 170.677 359.987 171.011 358.757C171.345 357.527 171.944 356.385 172.765 355.411C173.587 354.436 174.611 353.653 175.767 353.116C176.923 352.579 178.182 352.301 179.456 352.301H205.694C206.969 352.301 208.228 352.579 209.384 353.116C210.54 353.653 211.564 354.436 212.386 355.411C213.207 356.385 213.806 357.527 214.14 358.757C214.474 359.987 214.535 361.275 214.319 362.531L209.553 390.347C209.204 392.382 208.147 394.228 206.568 395.558C204.989 396.888 202.991 397.618 200.926 397.617Z" fill="#D2996F"/>
<path d="M304.859 137.227H333.992V363.344H304.859V137.227Z" fill="#4E5660"/>
<path d="M304.859 207.086C306.734 207.479 308.644 207.676 310.559 207.676C315.263 207.684 319.89 206.482 323.994 204.184C328.099 201.886 331.542 198.57 333.993 194.555V137.227H304.859V207.086Z" fill="#424952"/>
<path d="M178.008 194.555C180.459 198.57 183.903 201.886 188.007 204.184C192.111 206.482 196.738 207.684 201.442 207.676C203.357 207.676 205.267 207.479 207.142 207.086V137.227H178.008V194.555Z" fill="#424952"/>
<path d="M311.075 397.617H327.775C329.839 397.617 331.837 396.888 333.415 395.557C334.994 394.227 336.051 392.381 336.4 390.347L341.17 362.531C341.386 361.275 341.324 359.987 340.99 358.757C340.656 357.527 340.058 356.385 339.236 355.411C338.415 354.436 337.39 353.653 336.234 353.116C335.078 352.579 333.819 352.301 332.545 352.301H306.31C305.035 352.301 303.776 352.579 302.62 353.116C301.465 353.653 300.44 354.436 299.619 355.411C298.797 356.385 298.198 357.527 297.864 358.757C297.53 359.987 297.469 361.275 297.685 362.531L302.455 390.347C302.803 392.381 303.859 394.226 305.437 395.557C307.014 396.887 309.011 397.617 311.075 397.617Z" fill="#E1B89A"/>
<path d="M256 180.18C256 180.18 284.488 182.414 305.469 191.606C308.355 192.891 311.622 193.036 314.61 192.01C317.599 190.985 320.089 188.866 321.578 186.079C333.289 164.027 353.242 116 304.9 116H283.262L256 180.18Z" fill="#99DA90"/>
<path d="M256.001 180.18C256.001 180.18 227.513 182.414 206.532 191.606C203.645 192.891 200.379 193.036 197.39 192.01C194.401 190.985 191.912 188.866 190.423 186.079C178.716 164.027 158.759 116 207.101 116H228.746L256.001 180.18Z" fill="#99DA90"/>
<path d="M308.286 125.961L256.001 180.18L203.716 125.961C202.915 125.13 202.377 124.082 202.168 122.948C201.959 121.813 202.088 120.642 202.539 119.58C202.99 118.519 203.744 117.613 204.706 116.977C205.668 116.34 206.796 116 207.95 116H304.055C305.208 116.001 306.336 116.341 307.298 116.977C308.26 117.614 309.013 118.52 309.464 119.582C309.915 120.643 310.043 121.814 309.834 122.949C309.624 124.083 309.085 125.131 308.285 125.961H308.286Z" fill="#4E5660"/>
<path d="M69.1054 329.273L85.1714 313.207C86.052 312.327 86.7505 311.281 87.227 310.131C87.7036 308.98 87.9489 307.747 87.9489 306.502C87.9489 305.257 87.7036 304.024 87.227 302.873C86.7505 301.723 86.052 300.678 85.1714 299.797L39.6604 254.285C37.8076 252.432 35.6079 250.962 33.187 249.959C30.7661 248.957 28.1713 248.44 25.5509 248.44C22.9305 248.44 20.3358 248.957 17.9149 249.959C15.4939 250.962 13.2943 252.432 11.4414 254.285L2.77743 262.949C1.89688 263.83 1.19838 264.875 0.721832 266.025C0.245279 267.176 0 268.409 0 269.654C0 270.899 0.245279 272.132 0.721832 273.283C1.19838 274.433 1.89688 275.479 2.77743 276.359L55.7004 329.273C57.4785 331.05 59.8893 332.048 62.4029 332.048C64.9166 332.048 67.3274 331.05 69.1054 329.273Z" fill="#FCF2D0"/>
<path d="M30.4349 282.012C29.4501 282.012 28.4748 281.818 27.5653 281.441C26.6557 281.063 25.8297 280.51 25.1349 279.812L20.9009 275.59C19.4945 274.183 18.7047 272.275 18.7051 270.286C18.7055 268.297 19.496 266.389 20.9029 264.983C22.3097 263.577 24.2176 262.787 26.2068 262.787C28.196 262.787 30.1036 263.578 31.5099 264.985L35.7329 269.212C36.7804 270.261 37.4937 271.597 37.7825 273.051C38.0714 274.505 37.9228 276.012 37.3557 277.381C36.7886 278.751 35.8283 279.922 34.5962 280.746C33.364 281.57 31.9153 282.011 30.4329 282.012H30.4349Z" fill="#F6E3A3"/>
<path d="M442.896 329.273L426.83 313.207C425.95 312.327 425.251 311.281 424.775 310.131C424.298 308.98 424.053 307.747 424.053 306.502C424.053 305.257 424.298 304.024 424.775 302.873C425.251 301.723 425.95 300.678 426.83 299.797L472.342 254.285C474.195 252.432 476.395 250.962 478.816 249.959C481.237 248.957 483.831 248.44 486.452 248.44C489.072 248.44 491.667 248.957 494.088 249.959C496.509 250.962 498.708 252.432 500.561 254.285L509.225 262.949C510.106 263.83 510.804 264.875 511.281 266.025C511.757 267.176 512.003 268.409 512.003 269.654C512.003 270.899 511.757 272.132 511.281 273.283C510.804 274.433 510.106 275.479 509.225 276.359L456.301 329.273C454.523 331.05 452.112 332.048 449.599 332.048C447.085 332.048 444.674 331.05 442.896 329.273Z" fill="#F6E3A3"/>
<path d="M481.566 282.012C480.083 282.011 478.635 281.57 477.402 280.746C476.17 279.922 475.21 278.751 474.643 277.381C474.076 276.012 473.927 274.505 474.216 273.051C474.505 271.597 475.218 270.261 476.266 269.212L480.489 264.985C481.185 264.288 482.012 263.736 482.922 263.358C483.832 262.981 484.807 262.787 485.792 262.787C486.777 262.786 487.753 262.98 488.663 263.357C489.573 263.733 490.4 264.286 491.097 264.982C491.793 265.678 492.346 266.505 492.723 267.415C493.101 268.325 493.295 269.3 493.295 270.285C493.295 271.271 493.102 272.246 492.725 273.156C492.348 274.066 491.796 274.893 491.1 275.59L486.873 279.817C486.177 280.515 485.349 281.068 484.438 281.445C483.528 281.821 482.551 282.014 481.566 282.012Z" fill="#FCF2D0"/>
<path d="M264.1 359.867C264.1 361.469 263.625 363.035 262.735 364.367C261.845 365.699 260.58 366.737 259.1 367.35C257.62 367.963 255.991 368.124 254.42 367.811C252.849 367.499 251.406 366.727 250.273 365.594C249.14 364.462 248.369 363.018 248.056 361.447C247.743 359.876 247.904 358.247 248.517 356.767C249.13 355.287 250.168 354.022 251.5 353.132C252.832 352.242 254.398 351.767 256 351.767C257.064 351.767 258.117 351.976 259.1 352.383C260.083 352.79 260.976 353.387 261.728 354.139C262.48 354.891 263.077 355.784 263.484 356.767C263.891 357.75 264.1 358.803 264.1 359.867Z" fill="#4E5660"/>
<path d="M264.1 290.246C264.1 291.848 263.625 293.414 262.735 294.746C261.845 296.078 260.58 297.116 259.1 297.729C257.62 298.343 255.991 298.503 254.42 298.19C252.849 297.878 251.406 297.106 250.273 295.974C249.14 294.841 248.369 293.397 248.056 291.826C247.743 290.255 247.904 288.626 248.517 287.146C249.13 285.666 250.168 284.401 251.5 283.511C252.832 282.621 254.398 282.146 256 282.146C257.064 282.146 258.117 282.356 259.1 282.763C260.083 283.17 260.976 283.766 261.728 284.518C262.48 285.271 263.077 286.164 263.484 287.146C263.891 288.129 264.1 289.182 264.1 290.246Z" fill="#4E5660"/>
<path d="M264.1 220.625C264.1 222.227 263.625 223.793 262.735 225.125C261.845 226.457 260.58 227.495 259.1 228.108C257.62 228.721 255.991 228.882 254.42 228.569C252.849 228.257 251.406 227.485 250.273 226.352C249.14 225.22 248.369 223.776 248.056 222.205C247.743 220.634 247.904 219.005 248.517 217.525C249.13 216.045 250.168 214.78 251.5 213.89C252.832 213 254.398 212.525 256 212.525C257.064 212.525 258.117 212.734 259.1 213.141C260.083 213.549 260.976 214.145 261.728 214.897C262.48 215.649 263.077 216.542 263.484 217.525C263.891 218.508 264.1 219.561 264.1 220.625Z" fill="#4E5660"/>
<path d="M206.837 256.73H178.314C177.364 256.73 176.423 256.543 175.546 256.179C174.668 255.816 173.871 255.283 173.199 254.611C172.527 253.939 171.994 253.142 171.631 252.264C171.267 251.387 171.08 250.446 171.08 249.496V235.156C171.081 233.238 171.843 231.399 173.2 230.043C174.557 228.687 176.396 227.926 178.314 227.926H206.837C207.787 227.926 208.727 228.113 209.604 228.476C210.481 228.839 211.278 229.372 211.95 230.043C212.621 230.715 213.154 231.512 213.517 232.389C213.88 233.266 214.067 234.207 214.067 235.156V249.5C214.067 251.418 213.305 253.257 211.949 254.612C210.594 255.968 208.755 256.73 206.837 256.73Z" fill="#D2996F"/>
<path d="M305.164 256.73H333.687C334.637 256.73 335.577 256.543 336.455 256.179C337.333 255.816 338.13 255.283 338.802 254.611C339.474 253.939 340.006 253.142 340.37 252.264C340.733 251.387 340.921 250.446 340.921 249.496V235.156C340.92 233.238 340.157 231.399 338.801 230.043C337.444 228.687 335.605 227.926 333.687 227.926H305.164C303.246 227.927 301.408 228.688 300.052 230.044C298.696 231.4 297.934 233.239 297.934 235.156V249.5C297.934 251.417 298.696 253.256 300.052 254.612C301.408 255.967 303.246 256.729 305.164 256.73Z" fill="#E1B89A"/>
</svg>
