<svg width="513" height="512" viewBox="0 0 513 512" fill="none" xmlns="http://www.w3.org/2000/svg">
<path d="M336.244 382.734C344.298 382.734 352.023 379.535 357.719 373.84C363.414 368.145 366.614 360.421 366.615 352.367V194.5L452.002 279.891C454.141 282.03 456.681 283.727 459.476 284.885C462.27 286.042 465.266 286.638 468.291 286.638C471.316 286.638 474.312 286.042 477.107 284.885C479.901 283.727 482.441 282.03 484.58 279.891L505.252 259.219C507.391 257.08 509.088 254.54 510.246 251.746C511.403 248.951 511.999 245.955 511.999 242.93C511.999 239.905 511.403 236.909 510.246 234.114C509.088 231.32 507.391 228.78 505.252 226.641L389.549 110.938C382.278 103.666 373.646 97.8967 364.145 93.961C354.645 90.0252 344.462 87.9997 334.178 88L177.826 88C167.542 87.9997 157.359 90.0252 147.859 93.961C138.358 97.8967 129.726 103.666 122.455 110.938L6.74808 226.641C2.42794 230.962 0.000976562 236.822 0.000976562 242.932C0.000976562 249.042 2.42794 254.902 6.74808 259.223L27.4201 279.891C29.5592 282.03 32.0987 283.727 34.8935 284.885C37.6884 286.042 40.6839 286.638 43.7091 286.638C46.7342 286.638 49.7298 286.042 52.5246 284.885C55.3195 283.727 57.859 282.03 59.9981 279.891L145.389 194.5V352.367C145.39 360.421 148.59 368.145 154.286 373.84C159.981 379.535 167.706 382.734 175.76 382.734H336.244Z" fill="#8ED2E2"/>
<path d="M212.17 88H177.822C157.054 88.0009 137.136 96.2519 122.451 110.938L6.75101 226.638C2.43087 230.959 0.00390625 236.819 0.00390625 242.929C0.00390625 249.039 2.43087 254.899 6.75101 259.22L27.419 279.888C31.7399 284.208 37.5999 286.635 43.71 286.635C49.8202 286.635 55.6801 284.208 60.001 279.888L145.389 194.5V352.367C145.39 360.421 148.589 368.144 154.284 373.839C159.979 379.534 167.702 382.733 175.756 382.734H241.232C210.193 313.719 198.311 173.3 212.17 88Z" fill="#6FB6E1"/>
<path d="M145.389 288.684H366.615V349.172H145.389V288.684Z" fill="#F7EF87"/>
<path d="M215.842 288.688H145.389V349.172H229.135C223.464 329.303 219.024 309.104 215.842 288.688Z" fill="#EFD176"/>
<path d="M197.709 88C197.709 103.46 203.851 118.287 214.783 129.219C225.715 140.151 240.542 146.293 256.002 146.293C271.462 146.293 286.289 140.151 297.221 129.219C308.153 118.287 314.295 103.46 314.295 88H197.709Z" fill="#F7EF87"/>
<path d="M208.24 121.406C209.178 109.606 210.482 98.394 212.17 88H197.702C197.691 99.9548 201.372 111.621 208.24 121.406Z" fill="#EFD176"/>
<path d="M220.436 134.172L236.236 118.372C237.642 116.965 238.432 115.057 238.432 113.068C238.432 111.079 237.641 109.171 236.234 107.765C234.827 106.359 232.919 105.569 230.93 105.569C228.941 105.57 227.033 106.36 225.627 107.767L209.827 123.567C212.894 127.543 216.459 131.107 220.436 134.172Z" fill="#EFD176"/>
<path d="M263.502 145.8V123.449C263.502 121.46 262.712 119.552 261.305 118.146C259.899 116.739 257.991 115.949 256.002 115.949C254.013 115.949 252.105 116.739 250.699 118.146C249.292 119.552 248.502 121.46 248.502 123.449V145.8C250.989 146.127 253.494 146.294 256.002 146.3C258.51 146.294 261.015 146.127 263.502 145.8Z" fill="#EFD176"/>
<path d="M302.174 123.566L286.374 107.766C284.967 106.36 283.059 105.57 281.07 105.57C279.081 105.571 277.173 106.361 275.767 107.768C274.361 109.175 273.571 111.083 273.571 113.072C273.572 115.061 274.362 116.969 275.769 118.375L291.569 134.175C295.544 131.107 299.108 127.542 302.174 123.566Z" fill="#EFD176"/>
<path d="M220.553 88C220.553 97.4019 224.288 106.419 230.936 113.067C237.584 119.715 246.601 123.45 256.003 123.45C265.405 123.45 274.422 119.715 281.07 113.067C287.718 106.419 291.453 97.4019 291.453 88H220.553Z" fill="#4E5660"/>
<path d="M248.502 349.172H263.502V382.735H248.502V349.172Z" fill="#6FB6E1"/>
<path d="M185.115 349.172H200.115V382.735H185.115V349.172Z" fill="#8ED2E2"/>
<path d="M311.885 349.172H326.885V382.735H311.885V349.172Z" fill="#6FB6E1"/>
<path d="M145.389 248.063H366.615V263.063H145.389V248.063Z" fill="#F7EF87"/>
<path d="M69.0841 270.8L15.8341 217.55L6.74808 226.636C2.42794 230.957 0.000976562 236.817 0.000976562 242.927C0.000976562 249.037 2.42794 254.897 6.74808 259.218L27.4201 279.886C29.5592 282.025 32.0987 283.722 34.8935 284.88C37.6884 286.037 40.6839 286.633 43.7091 286.633C46.7342 286.633 49.7298 286.037 52.5246 284.88C55.3195 283.722 57.859 282.025 59.9981 279.886L69.0841 270.8Z" fill="#EFD176"/>
<path d="M37.147 238.867L47.756 249.472L22.377 274.848L11.772 264.242L37.147 238.867Z" fill="#F7EF87"/>
<path d="M442.92 270.8L496.17 217.55L505.252 226.636C507.392 228.775 509.089 231.315 510.248 234.11C511.406 236.905 512.002 239.901 512.002 242.927C512.002 245.953 511.406 248.949 510.248 251.744C509.089 254.539 507.392 257.079 505.252 259.218L484.584 279.886C480.263 284.206 474.403 286.633 468.293 286.633C462.183 286.633 456.323 284.206 452.002 279.886L442.92 270.8Z" fill="#F7EF87"/>
<path d="M474.846 238.871L500.221 264.246L489.616 274.851L464.241 249.476L474.846 238.871Z" fill="#EFD176"/>
</svg>
