<svg width="512" height="512" viewBox="0 0 512 512" fill="none" xmlns="http://www.w3.org/2000/svg">
<path d="M0 127.894V438.729C0 445.678 2.76035 452.342 7.6738 457.255C12.5873 462.169 19.2513 464.929 26.2 464.929H189.221C196.163 464.928 202.895 462.549 208.295 458.187C213.696 453.826 217.438 447.745 218.9 440.959L249.15 300.525C250.738 293.153 261.255 293.153 262.843 300.525L293.1 440.959C294.562 447.746 298.305 453.826 303.706 458.188C309.107 462.549 315.84 464.928 322.782 464.928H485.8C492.749 464.928 499.413 462.168 504.326 457.254C509.24 452.341 512 445.677 512 438.728V127.894H0Z" fill="#8BD4BC"/>
<path d="M487.679 48H24.321C17.8707 48 11.6845 50.5624 7.12346 55.1235C2.56238 59.6845 0 65.8707 0 72.321L0 127.894H512V72.321C512 65.8707 509.438 59.6845 504.877 55.1235C500.315 50.5624 494.129 48 487.679 48Z" fill="#5F75A1"/>
<path d="M205.677 231.946C202.333 231.943 199.086 230.824 196.452 228.765C193.817 226.705 191.946 223.825 191.136 220.581C184.648 194.628 183.7 133.464 202.281 84.6161C202.979 82.7716 204.033 81.0828 205.385 79.6463C206.736 78.2098 208.357 77.0539 210.155 76.2445C211.953 75.4352 213.894 74.9884 215.865 74.9297C217.836 74.8711 219.799 75.2016 221.643 75.9026C223.486 76.6035 225.173 77.661 226.607 79.0146C228.041 80.3682 229.194 81.9913 230 83.791C230.806 85.5907 231.25 87.5317 231.305 89.503C231.36 91.4743 231.026 93.4371 230.322 95.2791C213.649 139.123 215.577 194.654 220.24 213.305C220.792 215.517 220.832 217.826 220.358 220.057C219.883 222.287 218.908 224.38 217.504 226.176C216.1 227.973 214.306 229.427 212.256 230.426C210.207 231.426 207.957 231.946 205.677 231.946Z" fill="white"/>
<path opacity="0.1" d="M187.025 184.777C187.177 190.094 187.474 195.129 187.898 199.798L217.698 195.691C217.332 191.134 217.09 186.074 217.01 180.644L187.025 184.777ZM189.199 139.677C188.574 144.728 188.087 149.731 187.727 154.646L217.8 155.369C218.177 150.469 218.7 145.462 219.38 140.402L189.199 139.677Z" fill="black"/>
<path d="M306.323 231.946C304.043 231.946 301.793 231.426 299.743 230.427C297.694 229.427 295.899 227.974 294.495 226.177C293.092 224.38 292.116 222.287 291.641 220.057C291.167 217.827 291.207 215.518 291.759 213.305C296.422 194.654 298.35 139.123 281.677 95.2791C280.973 93.4371 280.639 91.4743 280.694 89.503C280.749 87.5317 281.193 85.5907 281.999 83.791C282.805 81.9913 283.958 80.3682 285.392 79.0146C286.826 77.661 288.513 76.6035 290.356 75.9026C292.2 75.2016 294.163 74.8711 296.134 74.9297C298.105 74.9884 300.046 75.4352 301.844 76.2445C303.642 77.0539 305.263 78.2098 306.614 79.6463C307.966 81.0828 309.02 82.7716 309.718 84.6161C328.3 133.464 327.351 194.629 320.864 220.581C320.053 223.825 318.181 226.704 315.547 228.763C312.913 230.822 309.666 231.942 306.323 231.946Z" fill="white"/>
<path opacity="0.1" d="M294.993 180.644C294.913 186.074 294.671 191.134 294.305 195.691L324.105 199.798C324.529 195.129 324.826 190.098 324.978 184.777L294.993 180.644ZM292.621 140.404C293.298 145.463 293.821 150.475 294.201 155.371L324.274 154.648C323.914 149.732 323.427 144.73 322.802 139.679L292.621 140.404Z" fill="black"/>
<g opacity="0.1">
<path opacity="0.1" d="M146.13 48H131.13V127.894H146.13V48Z" fill="black"/>
<path opacity="0.1" d="M84.2402 48H69.2402V127.894H84.2402V48Z" fill="black"/>
</g>
<g opacity="0.1">
<path opacity="0.1" d="M380.87 48H365.87V127.894H380.87V48Z" fill="black"/>
<path opacity="0.1" d="M442.76 48H427.76V127.894H442.76V48Z" fill="black"/>
</g>
<path d="M0 186.243V438.729C0 445.678 2.76035 452.342 7.6738 457.255C12.5873 462.169 19.2513 464.929 26.2 464.929H73.473C75.323 304.13 30.677 296.411 0 186.243Z" fill="#6CB6DE"/>
<path d="M512 186.243V438.729C512 445.678 509.24 452.342 504.326 457.255C499.413 462.169 492.749 464.929 485.8 464.929H438.527C436.677 304.13 481.323 296.411 512 186.243Z" fill="#6CB6DE"/>
<path opacity="0.1" d="M100.573 48H24.321C17.8707 48 11.6845 50.5624 7.12346 55.1235C2.56238 59.6845 0 65.8707 0 72.321L0 438.729C0 445.678 2.76035 452.342 7.6738 457.255C12.5873 462.169 19.2513 464.929 26.2 464.929H148.744C103.951 387.204 95.73 133.164 100.573 48Z" fill="black"/>
</svg>
