<svg width="512" height="512" viewBox="0 0 512 512" fill="none" xmlns="http://www.w3.org/2000/svg">
<path d="M393.562 133.361H348.312V22.625C348.312 16.6245 350.696 10.8697 354.939 6.62671C359.182 2.3837 364.936 0 370.937 0C376.938 0 382.692 2.3837 386.935 6.62671C391.178 10.8697 393.562 16.6245 393.562 22.625V133.361Z" fill="#E9EDF5"/>
<path d="M382.25 3.03391C378.811 1.04717 374.909 0.000887953 370.938 0.000244438C366.966 -0.000399078 363.064 1.04462 359.624 3.03024C356.185 5.01586 353.328 7.87208 351.343 11.3117C349.357 14.7514 348.312 18.6532 348.312 22.6249V133.361H370.937V22.6249C370.936 18.6535 371.981 14.752 373.967 11.3128C375.953 7.87369 378.81 5.01827 382.25 3.03391Z" fill="#DCE1EB"/>
<path d="M141.038 133.361H95.7881V22.625C95.7881 16.6245 98.1718 10.8697 102.415 6.62671C106.658 2.3837 112.413 0 118.413 0C124.414 0 130.168 2.3837 134.411 6.62671C138.654 10.8697 141.038 16.6245 141.038 22.625V133.361Z" fill="#E9EDF5"/>
<path d="M129.725 3.03406C126.286 1.04726 122.385 0.000913368 118.413 0.000244462C114.441 -0.000424445 110.539 1.0446 107.1 3.03025C103.66 5.0159 100.804 7.87216 98.8181 11.3118C96.8324 14.7515 95.7874 18.6534 95.7881 22.6251V133.361H118.413V22.6251C118.412 18.6538 119.457 14.7522 121.443 11.3131C123.429 7.87393 126.285 5.01848 129.725 3.03406Z" fill="#DCE1EB"/>
<path d="M409.156 152.077H79.2332L104.826 244.092C117.361 289.156 112.209 337.307 90.4252 378.7C89.1263 381.168 88.3878 383.892 88.2621 386.678C88.1364 389.464 88.6267 392.244 89.6981 394.819C90.7694 397.394 92.3954 399.701 94.4603 401.576C96.5251 403.45 98.978 404.847 101.644 405.665C145.337 419.074 182.115 448.925 204.225 488.925L211.568 502.21C213.208 505.176 215.612 507.649 218.532 509.371C221.451 511.093 224.779 512.001 228.168 512.001H260.22C263.61 512.001 266.937 511.093 269.856 509.371C272.776 507.649 275.18 505.176 276.82 502.21L284.163 488.925C306.273 448.925 343.052 419.074 386.744 405.665C389.41 404.846 391.863 403.45 393.928 401.575C395.993 399.701 397.618 397.393 398.69 394.818C399.761 392.243 400.251 389.464 400.125 386.678C399.999 383.892 399.26 381.168 397.961 378.7C376.177 337.307 371.026 289.157 383.561 244.093L409.156 152.077Z" fill="#FF6C52"/>
<path d="M130.322 378.7C152.106 337.307 157.257 289.157 144.722 244.093L119.129 152.078H79.229L104.822 244.093C117.357 289.157 112.207 337.307 90.425 378.7C89.1262 381.168 88.3876 383.892 88.262 386.678C88.1363 389.465 88.6266 392.244 89.6979 394.819C90.7692 397.394 92.3953 399.701 94.4601 401.576C96.525 403.45 98.9778 404.847 101.644 405.665C106.161 407.051 110.599 408.614 114.959 410.354L130.322 378.7Z" fill="#FF583E"/>
<path d="M344.939 211.5H144.411C125.206 211.5 106.788 203.871 93.2087 190.291C79.629 176.712 72 158.294 72 139.089C72 119.884 79.629 101.466 93.2087 87.8867C106.788 74.307 125.206 66.678 144.411 66.678H344.939C364.144 66.678 382.562 74.307 396.141 87.8867C409.721 101.466 417.35 119.884 417.35 139.089C417.35 158.294 409.721 176.712 396.141 190.291C382.562 203.871 364.144 211.5 344.939 211.5Z" fill="#FF8870"/>
<path d="M111.897 139.091C111.897 129.582 113.77 120.166 117.409 111.38C121.048 102.595 126.381 94.6123 133.105 87.8883C139.829 81.1643 147.812 75.8306 156.597 72.1916C165.383 68.5527 174.799 66.6798 184.308 66.6799H144.408C125.203 66.6799 106.785 74.3089 93.2058 87.8886C79.6261 101.468 71.9971 119.886 71.9971 139.091C71.9971 158.296 79.6261 176.714 93.2058 190.293C106.785 203.873 125.203 211.502 144.408 211.502H184.308C174.799 211.502 165.383 209.629 156.597 205.99C147.812 202.351 139.829 197.018 133.105 190.294C126.381 183.57 121.048 175.587 117.409 166.802C113.77 158.016 111.897 148.6 111.897 139.091Z" fill="#FF6C52"/>
</svg>
