<svg width="513" height="512" viewBox="0 0 513 512" fill="none" xmlns="http://www.w3.org/2000/svg">
<path d="M503.662 196.344L419.068 111.75C400.019 92.7014 374.183 82 347.244 82L164.76 82C151.421 81.9995 138.213 84.6265 125.889 89.731C113.565 94.8356 102.368 102.318 92.9361 111.75L8.34207 196.344C5.69765 198.988 3.59995 202.127 2.16877 205.582C0.737598 209.037 0.000976563 212.74 0.000976562 216.479C0.000976563 220.219 0.737598 223.921 2.16877 227.376C3.59995 230.831 5.69765 233.97 8.34207 236.614L36.7951 265.067C39.4391 267.711 42.5781 269.809 46.0329 271.24C49.4877 272.671 53.1906 273.408 56.9301 273.408C60.6696 273.408 64.3724 272.671 67.8272 271.24C71.282 269.809 74.4211 267.711 77.0651 265.067L122.686 219.446V401.668C122.686 409.5 125.798 417.011 131.336 422.55C136.874 428.088 144.385 431.199 152.217 431.2H359.787C367.619 431.199 375.13 428.088 380.668 422.55C386.206 417.012 389.318 409.501 389.318 401.669V219.445L434.939 265.066C437.583 267.71 440.722 269.808 444.177 271.239C447.632 272.67 451.335 273.407 455.074 273.407C458.814 273.407 462.516 272.67 465.971 271.239C469.426 269.808 472.565 267.71 475.209 265.066L503.662 236.613C506.306 233.969 508.404 230.83 509.835 227.375C511.266 223.921 512.003 220.218 512.003 216.479C512.003 212.739 511.266 209.036 509.835 205.582C508.404 202.127 506.306 198.988 503.662 196.344Z" fill="#FCF2D0"/>
<path d="M206.361 82H164.756C137.818 82.0008 111.984 92.7021 92.9361 111.75L8.34207 196.344C5.69765 198.988 3.59995 202.127 2.16877 205.582C0.737598 209.037 0.000976563 212.74 0.000976562 216.479C0.000976563 220.219 0.737598 223.921 2.16877 227.376C3.59995 230.831 5.69765 233.97 8.34207 236.614L36.7951 265.067C39.4391 267.711 42.5781 269.809 46.0329 271.24C49.4877 272.671 53.1906 273.408 56.9301 273.408C60.6696 273.408 64.3724 272.671 67.8272 271.24C71.282 269.809 74.4211 267.711 77.0651 265.067L122.686 219.446V401.668C122.686 405.546 123.449 409.386 124.933 412.969C126.417 416.553 128.593 419.808 131.335 422.551C134.077 425.293 137.333 427.468 140.916 428.952C144.499 430.436 148.339 431.2 152.217 431.2H294.217C217.682 366.355 197.061 192.008 206.361 82Z" fill="#F6E3A3"/>
<path d="M14.5251 190.16L8.34207 196.344C5.69765 198.988 3.59995 202.127 2.16877 205.582C0.737598 209.037 0.000976563 212.739 0.000976562 216.479C0.000976563 220.218 0.737598 223.921 2.16877 227.376C3.59995 230.831 5.69765 233.97 8.34207 236.614L36.7951 265.067C39.4391 267.711 42.5781 269.809 46.0329 271.24C49.4877 272.671 53.1906 273.408 56.9301 273.408C60.6696 273.408 64.3724 272.671 67.8272 271.24C71.282 269.809 74.4211 267.711 77.0651 265.067L83.2491 258.883L14.5251 190.16Z" fill="#6FB6E1"/>
<path d="M497.479 190.16L503.663 196.344C506.307 198.988 508.405 202.127 509.836 205.582C511.267 209.037 512.004 212.739 512.004 216.479C512.004 220.218 511.267 223.921 509.836 227.376C508.405 230.831 506.307 233.97 503.663 236.614L475.21 265.067C472.566 267.711 469.427 269.809 465.972 271.24C462.517 272.671 458.814 273.408 455.075 273.408C451.335 273.408 447.632 272.671 444.178 271.24C440.723 269.809 437.584 267.711 434.94 265.067L428.756 258.883L497.479 190.16Z" fill="#8ED2E2"/>
<path d="M179.269 82C179.269 102.351 187.353 121.868 201.744 136.259C216.134 150.649 235.652 158.734 256.003 158.734C276.354 158.734 295.871 150.649 310.261 136.259C324.652 121.868 332.736 102.351 332.737 82H179.269Z" fill="#8ED2E2"/>
<path d="M179.268 82C179.255 92.6743 181.476 103.233 185.787 112.998C190.099 122.763 196.405 131.518 204.302 138.7C204.161 118.638 204.884 99.509 206.365 82H179.268Z" fill="#6FB6E1"/>
<path d="M210.842 82C210.842 93.9772 215.6 105.464 224.069 113.933C232.538 122.402 244.025 127.16 256.002 127.16C267.979 127.16 279.466 122.402 287.935 113.933C296.404 105.464 301.162 93.9772 301.162 82H210.842Z" fill="#4E5660"/>
<path d="M318.514 268.172C318.514 280.536 314.848 292.622 307.979 302.902C301.11 313.182 291.347 321.194 279.925 325.925C268.502 330.657 255.933 331.895 243.807 329.483C231.681 327.071 220.542 321.117 211.8 312.375C203.057 303.632 197.103 292.494 194.691 280.367C192.279 268.241 193.517 255.672 198.249 244.25C202.98 232.827 210.992 223.064 221.272 216.195C231.552 209.326 243.639 205.66 256.002 205.66C272.581 205.66 288.481 212.246 300.205 223.97C311.928 235.693 318.514 251.593 318.514 268.172Z" fill="#EDA1AB"/>
<path d="M231.802 325.824C221.642 294.547 214.572 260.183 210.142 225.699C203.309 233.074 198.356 241.988 195.702 251.685C193.049 261.382 192.773 271.576 194.899 281.402C197.024 291.228 201.489 300.397 207.913 308.13C214.337 315.863 222.532 321.933 231.802 325.824Z" fill="#E68A97"/>
<path d="M225.402 271.77L269.289 199.52C269.642 198.937 270.186 198.494 270.827 198.264C271.469 198.034 272.17 198.031 272.813 198.256C273.457 198.481 274.003 198.921 274.361 199.501C274.72 200.081 274.868 200.766 274.781 201.442L267.666 256.7C267.612 257.119 267.648 257.545 267.772 257.949C267.896 258.353 268.104 258.726 268.383 259.043C268.662 259.361 269.005 259.615 269.39 259.79C269.775 259.964 270.192 260.054 270.615 260.055H284.06C284.587 260.055 285.106 260.195 285.561 260.461C286.017 260.727 286.393 261.11 286.652 261.569C286.911 262.029 287.043 262.549 287.034 263.077C287.025 263.604 286.877 264.12 286.603 264.571L242.716 336.821C242.362 337.404 241.819 337.847 241.177 338.077C240.536 338.307 239.835 338.31 239.191 338.085C238.548 337.86 238.001 337.42 237.643 336.84C237.285 336.26 237.137 335.575 237.224 334.899L244.333 279.637C244.387 279.218 244.351 278.792 244.228 278.387C244.105 277.983 243.897 277.61 243.617 277.292C243.338 276.975 242.995 276.72 242.61 276.546C242.224 276.372 241.807 276.282 241.384 276.282H227.94C227.413 276.281 226.896 276.141 226.442 275.875C225.987 275.608 225.612 275.226 225.353 274.767C225.095 274.308 224.964 273.789 224.972 273.262C224.981 272.735 225.129 272.22 225.402 271.77Z" fill="#F7EF87"/>
<path d="M289.802 373.566H222.202C220.213 373.566 218.305 372.776 216.899 371.369C215.492 369.963 214.702 368.055 214.702 366.066C214.702 364.077 215.492 362.169 216.899 360.763C218.305 359.356 220.213 358.566 222.202 358.566H289.802C291.791 358.566 293.699 359.356 295.105 360.763C296.512 362.169 297.302 364.077 297.302 366.066C297.302 368.055 296.512 369.963 295.105 371.369C293.699 372.776 291.791 373.566 289.802 373.566Z" fill="#EDA1AB"/>
</svg>
