<svg width="512" height="512" viewBox="0 0 512 512" fill="none" xmlns="http://www.w3.org/2000/svg">
<path d="M296.499 163.133L357.046 371.953C359.582 380.698 359.938 389.931 358.084 398.846C356.23 407.76 352.222 416.085 346.409 423.094L283.233 499.266C279.929 503.25 275.786 506.456 271.101 508.657C266.417 510.858 261.304 511.999 256.128 511.999C250.952 511.999 245.839 510.858 241.154 508.657C236.47 506.456 232.327 503.25 229.022 499.266L165.847 423.094C160.035 416.085 156.027 407.76 154.172 398.846C152.317 389.931 152.672 380.699 155.206 371.953L215.757 163.133H296.499Z" fill="#EDA1AB"/>
<path d="M285.655 197.781C292.437 197.767 299.13 196.234 305.241 193.293L296.499 163.133H215.753L155.206 371.953C152.671 380.698 152.315 389.931 154.169 398.846C156.023 407.76 160.031 416.085 165.843 423.094L229.019 499.266C232.325 503.25 236.467 506.456 241.153 508.657C245.838 510.858 250.951 511.999 256.127 511.999C261.303 511.999 266.416 510.858 271.101 508.657C275.787 506.456 279.929 503.25 283.234 499.266L299.015 480.235C241.206 437.973 233.929 338.246 240.093 197.781H285.655Z" fill="#E68A97"/>
<path d="M229.02 499.266C232.324 503.251 236.467 506.458 241.152 508.659C245.837 510.86 250.95 512.002 256.127 512.002C261.304 512.002 266.417 510.86 271.102 508.659C275.787 506.458 279.93 503.251 283.235 499.266L346.41 423.094C352.223 416.085 356.231 407.76 358.085 398.846C359.939 389.931 359.583 380.698 357.048 371.953L341.247 317.445L197.469 461.223L229.02 499.266Z" fill="#F7EF87"/>
<path d="M283.233 499.266L299.015 480.235C276.628 463.868 261.814 438.883 252.437 406.251L197.469 461.219L229.024 499.266C232.328 503.25 236.47 506.457 241.155 508.658C245.84 510.859 250.952 512.001 256.129 512.001C261.305 512.001 266.417 510.859 271.102 508.658C275.787 506.457 279.929 503.25 283.233 499.266Z" fill="#EFD176"/>
<path d="M169.359 323.145L303.891 188.617L296.5 163.133H215.758L169.359 323.145Z" fill="#F7EF87"/>
<path d="M285.656 197.781C289.116 197.775 292.565 197.368 295.933 196.57L303.886 188.617L296.5 163.133H215.754L169.359 323.145L238.4 254.1C238.634 236.151 239.232 217.358 240.091 197.78L285.656 197.781Z" fill="#EFD176"/>
<path d="M292.085 1.90434e-07H220.167C215.429 -0.000246565 210.78 1.29389 206.723 3.74268C202.666 6.19148 199.355 9.70192 197.147 13.895L171.378 62.816C164.301 76.254 161.694 91.5989 163.935 106.62C166.177 121.642 173.151 135.557 183.844 146.343L208.12 170.835C210.54 173.275 213.419 175.212 216.59 176.533C219.762 177.855 223.164 178.535 226.6 178.535H285.656C289.092 178.535 292.494 177.855 295.666 176.533C298.837 175.212 301.716 173.275 304.135 170.835L328.412 146.343C339.104 135.556 346.078 121.641 348.319 106.62C350.56 91.5982 347.952 76.2535 340.873 62.816L315.108 13.895C312.9 9.70161 309.589 6.191 305.531 3.7422C301.474 1.29339 296.825 -0.00057313 292.085 1.90434e-07Z" fill="#EDA1AB"/>
<path d="M292.085 1.90434e-07H220.167C215.429 -0.000246565 210.78 1.29389 206.723 3.74268C202.666 6.19148 199.355 9.70192 197.147 13.895L171.378 62.816C164.301 76.254 161.694 91.5989 163.935 106.62C166.177 121.642 173.151 135.557 183.844 146.343L208.12 170.835C210.54 173.275 213.419 175.212 216.59 176.533C219.762 177.855 223.164 178.535 226.6 178.535H285.656C289.092 178.535 292.494 177.855 295.666 176.533C298.837 175.212 301.716 173.275 304.135 170.835L328.412 146.343C339.104 135.556 346.078 121.641 348.319 106.62C350.56 91.5982 347.952 76.2535 340.873 62.816L315.108 13.895C312.9 9.70161 309.589 6.191 305.531 3.7422C301.474 1.29339 296.825 -0.00057313 292.085 1.90434e-07Z" fill="#EDA1AB"/>
<path d="M230.999 3.52804e-08H220.167C215.429 -0.00024672 210.78 1.29389 206.723 3.74268C202.666 6.19148 199.355 9.70192 197.147 13.895L171.378 62.816C164.301 76.254 161.694 91.5989 163.935 106.62C166.177 121.642 173.151 135.557 183.844 146.343L208.12 170.835C210.54 173.275 213.419 175.212 216.59 176.533C219.762 177.855 223.164 178.535 226.6 178.535H253.323C226.214 144.2 206.577 50.492 230.999 3.52804e-08Z" fill="#E68A97"/>
<path d="M171.378 62.816C166.692 71.7176 163.942 81.51 163.308 91.55L254.858 3.52804e-08H220.167C215.429 -0.00024672 210.78 1.29389 206.723 3.74268C202.666 6.19148 199.355 9.70192 197.147 13.895L171.378 62.816Z" fill="#F7EF87"/>
<path d="M230.999 3.52804e-08H220.167C215.429 -0.00024672 210.78 1.29389 206.723 3.74268C202.666 6.19148 199.355 9.70192 197.147 13.895L171.378 62.816C166.692 71.7176 163.942 81.51 163.308 91.55L221.515 33.344C223.21 21.105 226.284 9.75 230.999 3.52804e-08Z" fill="#EFD176"/>
<path d="M285.656 178.539C289.091 178.538 292.493 177.858 295.664 176.536C298.835 175.214 301.713 173.278 304.132 170.839L328.413 146.339C336.118 138.565 341.931 129.123 345.405 118.744C348.878 108.364 349.918 97.3254 348.445 86.48L256.385 178.539H285.656Z" fill="#F7EF87"/>
<path d="M209.299 334.684H168.099C164.92 334.685 161.87 333.423 159.62 331.176C157.371 328.929 156.106 325.88 156.104 322.7V316.958C156.104 315.383 156.414 313.823 157.017 312.367C157.619 310.912 158.503 309.59 159.617 308.476C160.731 307.362 162.053 306.479 163.509 305.876C164.964 305.274 166.524 304.964 168.099 304.965H209.299C212.479 304.965 215.528 306.228 217.776 308.476C220.024 310.724 221.287 313.774 221.287 316.953V322.7C221.286 325.879 220.023 328.927 217.775 331.174C215.527 333.422 212.478 334.684 209.299 334.684Z" fill="#4E5660"/>
</svg>
