<svg width="512" height="512" viewBox="0 0 512 512" fill="none" xmlns="http://www.w3.org/2000/svg">
<path d="M505.802 221.6L404.412 120.211C383.463 99.265 355.052 87.4986 325.428 87.5H186.576C156.952 87.4986 128.541 99.265 107.592 120.211L6.20214 221.6C2.23087 225.573 0 230.961 0 236.579C0 242.196 2.23087 247.584 6.20214 251.557L32.1861 277.537C34.153 279.504 36.4882 281.065 39.0582 282.129C41.6282 283.194 44.3828 283.742 47.1646 283.742C49.9465 283.742 52.7011 283.194 55.2711 282.129C57.8411 281.065 60.1763 279.504 62.1431 277.537L140.307 199.377V408.859C140.307 413.306 141.182 417.709 142.883 421.817C144.585 425.925 147.079 429.658 150.223 432.802C153.367 435.946 157.1 438.44 161.208 440.142C165.316 441.843 169.72 442.719 174.166 442.718H337.838C342.285 442.719 346.689 441.844 350.797 440.142C354.906 438.441 358.639 435.947 361.784 432.803C364.928 429.659 367.423 425.926 369.125 421.818C370.826 417.709 371.702 413.306 371.702 408.859V199.375L449.866 277.535C451.833 279.502 454.168 281.063 456.738 282.127C459.308 283.192 462.063 283.74 464.845 283.74C467.626 283.74 470.381 283.192 472.951 282.127C475.521 281.063 477.856 279.502 479.823 277.535L505.803 251.555C509.774 247.582 512.004 242.194 512.004 236.577C512.004 230.96 509.773 225.573 505.802 221.6Z" fill="#E1B89A"/>
<path d="M505.802 221.6L404.412 120.211C383.463 99.265 355.052 87.4986 325.428 87.5H186.576C156.952 87.4986 128.541 99.265 107.592 120.211L6.20214 221.6C2.23087 225.573 0 230.961 0 236.579C0 242.196 2.23087 247.584 6.20214 251.557L32.1861 277.537C34.153 279.504 36.4882 281.065 39.0582 282.129C41.6282 283.194 44.3828 283.742 47.1646 283.742C49.9465 283.742 52.7011 283.194 55.2711 282.129C57.8411 281.065 60.1763 279.504 62.1431 277.537L140.307 199.377V408.859C140.307 413.306 141.182 417.709 142.883 421.817C144.585 425.925 147.079 429.658 150.223 432.802C153.367 435.946 157.1 438.44 161.208 440.142C165.316 441.843 169.72 442.719 174.166 442.718H337.838C342.285 442.719 346.689 441.844 350.797 440.142C354.906 438.441 358.639 435.947 361.784 432.803C364.928 429.659 367.423 425.926 369.125 421.818C370.826 417.709 371.702 413.306 371.702 408.859V199.375L449.866 277.535C451.833 279.502 454.168 281.063 456.738 282.127C459.308 283.192 462.063 283.74 464.845 283.74C467.626 283.74 470.381 283.192 472.951 282.127C475.521 281.063 477.856 279.502 479.823 277.535L505.803 251.555C509.774 247.582 512.004 242.194 512.004 236.577C512.004 230.96 509.773 225.573 505.802 221.6Z" fill="#E1B89A"/>
<path d="M186.576 87.5C156.952 87.4986 128.541 99.265 107.592 120.211L6.20214 221.6C2.23087 225.573 0 230.961 0 236.579C0 242.196 2.23087 247.584 6.20214 251.557L32.1861 277.537C34.153 279.504 36.4882 281.065 39.0582 282.129C41.6282 283.194 44.3828 283.742 47.1646 283.742C49.9465 283.742 52.7011 283.194 55.2711 282.129C57.8411 281.065 60.1763 279.504 62.1431 277.537L140.307 199.377V408.859C140.307 413.306 141.182 417.709 142.883 421.817C144.585 425.925 147.079 429.658 150.223 432.802C153.367 435.946 157.1 438.44 161.208 440.142C165.316 441.843 169.72 442.719 174.166 442.718H212.689C181.267 373.769 179.029 274.918 186.72 181.07L262.958 263.226C264.849 265.298 267.152 266.953 269.72 268.085C272.287 269.216 275.062 269.799 277.868 269.796C281.378 269.779 284.825 268.871 287.888 267.157C290.951 265.444 293.529 262.981 295.381 260C297.208 257.045 298.243 253.67 298.387 250.2C298.532 246.729 297.78 243.28 296.205 240.184L287.17 222.141L344.67 160.18C348.859 155.671 351.332 149.835 351.658 143.689C351.984 137.543 350.143 131.478 346.455 126.551L338.557 116L339.307 115.492C343.32 112.751 346.496 108.953 348.484 104.519C350.472 100.084 351.195 95.1865 350.572 90.367C342.328 88.4615 333.894 87.4997 325.432 87.5H186.576Z" fill="#D2996F"/>
<path d="M296.229 237.211L281.815 205.383C277.523 195.905 275.302 185.62 275.303 175.215V87.5H256.002V195.563L281.916 247.336C282.233 247.96 282.4 248.649 282.404 249.348H282.424V442.719H301.724V262.676C301.726 253.893 299.852 245.211 296.229 237.211Z" fill="#D2996F"/>
<path d="M53.1785 235.926L67.1435 221.961C68.9521 220.152 69.9681 217.699 69.9681 215.14C69.9681 212.582 68.9521 210.129 67.1435 208.32L42.4755 183.652C40.6664 181.843 38.2131 180.827 35.655 180.827C33.0969 180.827 30.6436 181.843 28.8345 183.652L14.8695 197.617C13.0609 199.426 12.0449 201.879 12.0449 204.437C12.0449 206.996 13.0609 209.449 14.8695 211.258L39.5375 235.926C41.3466 237.735 43.7999 238.751 46.358 238.751C48.9161 238.751 51.3694 237.735 53.1785 235.926Z" fill="#E1B89A"/>
<path d="M458.826 235.926L444.861 221.961C443.964 221.066 443.253 220.002 442.768 218.832C442.283 217.662 442.033 216.407 442.033 215.14C442.033 213.873 442.283 212.619 442.768 211.449C443.253 210.278 443.964 209.215 444.861 208.32L469.529 183.652C471.337 181.844 473.79 180.828 476.347 180.828C478.905 180.828 481.357 181.844 483.166 183.652L497.135 197.617C498.943 199.426 499.959 201.879 499.959 204.437C499.959 206.995 498.943 209.449 497.135 211.258L472.463 235.926C470.654 237.734 468.202 238.75 465.644 238.75C463.087 238.75 460.634 237.734 458.826 235.926Z" fill="#D2996F"/>
<path d="M333.654 136.117L322.217 120.824C321.382 119.708 320.783 118.434 320.454 117.079C320.125 115.725 320.074 114.317 320.304 112.943C320.534 111.568 321.04 110.254 321.792 109.08C322.544 107.906 323.525 106.897 324.678 106.113L330.315 102.277C332.572 100.742 334.129 98.376 334.645 95.6962C335.162 93.0165 334.597 90.2411 333.073 87.977L329.673 82.934C326.991 78.9509 323.371 75.6881 319.131 73.4328C314.892 71.1774 310.163 69.9986 305.361 70H256.002V224.238H263.428L332.955 149.316C334.598 147.546 335.567 145.255 335.695 142.843C335.823 140.431 335.101 138.051 333.654 136.117Z" fill="#E1B89A"/>
<path d="M275.302 70H256.002V232.242L281.537 204.726C277.432 195.428 275.309 185.378 275.303 175.214L275.302 70Z" fill="#D2996F"/>
<path d="M256.002 195.563V70H206.643C201.84 70.0004 197.111 71.1805 192.871 73.4364C188.632 75.6923 185.011 78.9551 182.327 82.938L178.932 87.98C177.407 90.2435 176.841 93.0186 177.357 95.6985C177.873 98.3783 179.43 100.745 181.686 102.28L187.327 106.116C188.48 106.9 189.462 107.909 190.213 109.083C190.965 110.257 191.471 111.571 191.7 112.946C191.93 114.321 191.879 115.728 191.549 117.083C191.22 118.437 190.619 119.711 189.784 120.827L178.35 136.117C176.902 138.051 176.18 140.432 176.307 142.844C176.435 145.256 177.406 147.547 179.05 149.317L274.667 252.36C275.396 253.146 276.384 253.643 277.45 253.759C278.516 253.875 279.588 253.602 280.469 252.991C281.35 252.381 281.981 251.472 282.246 250.434C282.512 249.395 282.393 248.296 281.913 247.337L256.002 195.563Z" fill="#E1B89A"/>
<path d="M294.077 81.215V103.637C294.076 113.485 291.803 123.201 287.436 132.028L256.003 195.563L224.569 132.027C220.201 123.2 217.928 113.484 217.928 103.636V81.215C217.928 79.7421 218.218 78.2837 218.782 76.923C219.345 75.5622 220.171 74.3259 221.213 73.2844C222.254 72.243 223.491 71.417 224.852 70.8534C226.212 70.2899 227.671 69.9999 229.144 70H282.863C285.837 70.0003 288.689 71.182 290.792 73.2852C292.895 75.3883 294.077 78.2408 294.077 81.215Z" fill="#4E5660"/>
<path d="M375.202 334.836H136.802C134.188 334.836 131.681 333.798 129.832 331.95C127.983 330.102 126.944 327.595 126.943 324.981V307.652C126.943 306.357 127.198 305.075 127.694 303.879C128.189 302.683 128.915 301.596 129.831 300.681C130.746 299.765 131.833 299.039 133.029 298.543C134.226 298.048 135.508 297.793 136.802 297.793H375.202C376.497 297.793 377.779 298.048 378.975 298.543C380.171 299.039 381.258 299.765 382.174 300.681C383.089 301.596 383.815 302.683 384.311 303.879C384.806 305.075 385.061 306.357 385.061 307.652V324.98C385.061 327.594 384.022 330.101 382.173 331.95C380.324 333.798 377.817 334.836 375.202 334.836Z" fill="#FCF2D0"/>
<path d="M306.523 342.531H285.191C283.929 342.531 282.68 342.283 281.514 341.8C280.349 341.318 279.29 340.61 278.397 339.719C277.505 338.827 276.797 337.768 276.314 336.602C275.831 335.437 275.582 334.188 275.582 332.926V299.7C275.582 298.438 275.831 297.189 276.314 296.024C276.797 294.858 277.505 293.799 278.397 292.907C279.29 292.015 280.349 291.308 281.514 290.826C282.68 290.343 283.929 290.095 285.191 290.095H306.523C307.785 290.095 309.034 290.343 310.2 290.826C311.365 291.308 312.424 292.015 313.317 292.907C314.209 293.799 314.917 294.858 315.4 296.024C315.883 297.189 316.132 298.438 316.132 299.7V332.923C316.132 334.185 315.884 335.434 315.401 336.6C314.918 337.766 314.21 338.825 313.318 339.717C312.426 340.61 311.366 341.317 310.2 341.8C309.034 342.283 307.785 342.531 306.523 342.531Z" fill="#EFD176"/>
<path d="M241.381 261.5C241.381 264.337 240.539 267.111 238.963 269.47C237.386 271.828 235.146 273.667 232.525 274.752C229.903 275.838 227.019 276.122 224.236 275.568C221.454 275.015 218.898 273.648 216.891 271.642C214.885 269.636 213.519 267.08 212.965 264.297C212.412 261.515 212.696 258.63 213.781 256.009C214.867 253.388 216.705 251.147 219.064 249.571C221.423 247.994 224.196 247.152 227.033 247.152C228.918 247.152 230.784 247.523 232.525 248.243C234.266 248.964 235.847 250.021 237.18 251.354C238.512 252.686 239.569 254.268 240.29 256.009C241.011 257.75 241.382 259.616 241.381 261.5Z" fill="#FCF2D0"/>
<path d="M241.381 380.785C241.382 383.623 240.541 386.396 238.965 388.756C237.389 391.115 235.149 392.954 232.527 394.04C229.906 395.127 227.022 395.411 224.239 394.858C221.456 394.305 218.899 392.939 216.893 390.933C214.886 388.927 213.519 386.371 212.966 383.588C212.412 380.805 212.695 377.921 213.781 375.299C214.866 372.677 216.705 370.437 219.064 368.86C221.423 367.283 224.196 366.442 227.033 366.441C228.917 366.441 230.783 366.811 232.524 367.532C234.264 368.253 235.846 369.309 237.178 370.641C238.511 371.973 239.568 373.555 240.289 375.295C241.01 377.036 241.381 378.901 241.381 380.785Z" fill="#FCF2D0"/>
<path d="M344.819 261.5C344.818 264.337 343.976 267.11 342.4 269.468C340.823 271.826 338.582 273.664 335.961 274.749C333.34 275.834 330.456 276.118 327.674 275.564C324.892 275.01 322.336 273.644 320.331 271.637C318.325 269.631 316.959 267.075 316.406 264.293C315.853 261.511 316.137 258.627 317.223 256.006C318.309 253.385 320.147 251.145 322.506 249.569C324.865 247.993 327.638 247.152 330.475 247.152C332.359 247.152 334.224 247.523 335.965 248.244C337.706 248.965 339.287 250.022 340.619 251.355C341.951 252.687 343.008 254.269 343.728 256.01C344.449 257.75 344.819 259.616 344.819 261.5Z" fill="#FCF2D0"/>
<path d="M344.819 380.785C344.819 383.622 343.978 386.395 342.401 388.754C340.825 391.113 338.585 392.952 335.964 394.037C333.343 395.123 330.459 395.407 327.676 394.854C324.894 394.3 322.338 392.934 320.332 390.928C318.326 388.922 316.96 386.366 316.406 383.584C315.853 380.801 316.137 377.917 317.223 375.296C318.308 372.675 320.147 370.435 322.506 368.859C324.865 367.282 327.638 366.441 330.475 366.441C334.279 366.441 337.927 367.953 340.617 370.643C343.307 373.333 344.819 376.981 344.819 380.785Z" fill="#FCF2D0"/>
<path d="M295.857 328.984C293.868 328.984 291.961 328.194 290.554 326.787C289.148 325.381 288.357 323.473 288.357 321.484V311.144C288.357 309.155 289.148 307.247 290.554 305.841C291.961 304.434 293.868 303.644 295.857 303.644C297.847 303.644 299.754 304.434 301.161 305.841C302.567 307.247 303.357 309.155 303.357 311.144V321.484C303.357 323.473 302.567 325.381 301.161 326.787C299.754 328.194 297.847 328.984 295.857 328.984Z" fill="#FCF2D0"/>
</svg>
