<svg width="513" height="512" viewBox="0 0 513 512" fill="none" xmlns="http://www.w3.org/2000/svg">
<path d="M381.133 41.4529C330.66 62.0629 284.254 61.6089 257 61.6089C229.746 61.6089 183.34 62.0619 132.867 41.4529V452.621H381.133V41.4529Z" fill="#4E5660"/>
<path d="M279.594 91.3999H234.406C232.939 91.3999 231.485 91.689 230.129 92.2508C228.773 92.8126 227.541 93.636 226.503 94.674C225.465 95.712 224.642 96.9442 224.081 98.3004C223.519 99.6566 223.23 101.11 223.23 102.578V125.978C223.23 127.446 223.52 128.899 224.081 130.255C224.643 131.611 225.466 132.843 226.504 133.881C227.542 134.918 228.774 135.742 230.13 136.303C231.486 136.865 232.939 137.154 234.406 137.154H279.594C281.062 137.154 282.516 136.865 283.872 136.303C285.228 135.741 286.46 134.918 287.497 133.88C288.535 132.842 289.358 131.61 289.92 130.254C290.482 128.898 290.771 127.445 290.77 125.977V102.577C290.771 101.109 290.482 99.6558 289.92 98.2997C289.358 96.9437 288.535 95.7115 287.497 94.6736C286.46 93.6357 285.228 92.8124 283.872 92.2507C282.516 91.689 281.062 91.3999 279.594 91.3999Z" fill="white"/>
<path d="M267.1 121.777H246.9C244.911 121.777 243.004 120.987 241.597 119.58C240.191 118.174 239.4 116.266 239.4 114.277C239.4 112.288 240.191 110.38 241.597 108.974C243.004 107.567 244.911 106.777 246.9 106.777H267.1C269.09 106.777 270.997 107.567 272.404 108.974C273.81 110.38 274.6 112.288 274.6 114.277C274.6 116.266 273.81 118.174 272.404 119.58C270.997 120.987 269.09 121.777 267.1 121.777Z" fill="#4E5660"/>
<path d="M219.16 173.32L148.375 50.707C146.144 46.8432 142.936 43.6347 139.072 41.4041C135.208 39.1736 130.825 37.9995 126.363 38H91.043C84.3413 37.9971 77.9101 40.6429 73.1506 45.3609C68.391 50.0788 65.6889 56.4866 65.633 63.188C65.117 126.766 60.383 217.172 17.403 244.981C12.384 248.207 8.25313 252.638 5.38778 257.871C2.52243 263.104 1.0139 268.972 1 274.938V407.98C0.999539 417.146 3.88572 426.079 9.249 433.512C14.6123 440.946 22.1802 446.501 30.879 449.39L97.279 471.445C116.619 477.869 137.697 476.543 156.079 467.745L208.317 442.753C215.743 439.2 222.012 433.619 226.4 426.654C230.788 419.69 233.117 411.626 233.117 403.394V225.41C233.118 207.123 228.304 189.157 219.16 173.32Z" fill="#E1B89A"/>
<path d="M30.879 449.391L97.279 471.446C116.619 477.87 137.697 476.544 156.079 467.746L197.179 448.086C123.762 353.137 115.4 160.238 128.461 38.1C127.761 38.041 127.07 38 126.361 38H91.043C84.342 37.9971 77.9114 40.6423 73.152 45.3594C68.3926 50.0765 65.69 56.4833 65.633 63.184C65.117 126.762 60.383 217.172 17.403 244.977C12.3842 248.204 8.25357 252.636 5.38828 257.87C2.523 263.103 1.01433 268.971 1 274.938V407.98C0.999329 417.146 3.88541 426.08 9.24871 433.513C14.612 440.946 22.1801 446.502 30.879 449.391Z" fill="#D2996F"/>
<path d="M294.84 173.32L365.625 50.707C367.856 46.8432 371.064 43.6347 374.928 41.4041C378.792 39.1736 383.175 37.9995 387.637 38H422.957C429.659 37.9971 436.09 40.6429 440.849 45.3609C445.609 50.0788 448.311 56.4866 448.367 63.188C448.883 126.766 453.617 217.172 496.597 244.981C501.616 248.206 505.747 252.638 508.612 257.871C511.478 263.104 512.986 268.972 513 274.938V407.98C513.001 417.146 510.115 426.08 504.752 433.513C499.388 440.946 491.82 446.502 483.121 449.39L416.721 471.445C397.381 477.87 376.303 476.544 357.921 467.745L305.68 442.758C298.254 439.205 291.985 433.624 287.597 426.659C283.209 419.695 280.88 411.631 280.88 403.399V225.41C280.882 207.123 285.696 189.158 294.84 173.32Z" fill="#E1B89A"/>
<path d="M149.684 404.945H84.4383C81.4189 404.945 78.4291 404.351 75.6395 403.195C72.8499 402.04 70.3152 400.346 68.1802 398.211C66.0452 396.076 64.3516 393.541 63.1962 390.752C62.0408 387.962 61.4462 384.972 61.4463 381.953V325.176H172.672V381.953C172.673 384.972 172.078 387.962 170.923 390.751C169.768 393.54 168.075 396.075 165.94 398.21C163.805 400.345 161.271 402.039 158.482 403.194C155.693 404.35 152.703 404.945 149.684 404.945Z" fill="#FCF2D0"/>
<path d="M149.684 404.945H84.4383C81.4189 404.945 78.4291 404.351 75.6395 403.195C72.8499 402.04 70.3152 400.346 68.1802 398.211C66.0452 396.076 64.3516 393.541 63.1962 390.752C62.0408 387.962 61.4462 384.972 61.4463 381.953V325.176H172.672V381.953C172.673 384.972 172.078 387.962 170.923 390.751C169.768 393.54 168.075 396.075 165.94 398.21C163.805 400.345 161.271 402.039 158.482 403.194C155.693 404.35 152.703 404.945 149.684 404.945Z" fill="#FCF2D0"/>
<path d="M61.4453 381.953C61.4452 384.972 62.0398 387.962 63.1952 390.752C64.3506 393.541 66.0442 396.076 68.1792 398.211C70.3143 400.346 72.8489 402.04 75.6385 403.195C78.4281 404.351 81.4179 404.945 84.4373 404.945H149.683C152.332 404.946 154.961 404.488 157.453 403.593C152.12 392.274 147.396 380.678 143.3 368.855L172.667 356.585V325.175H61.4453V381.953Z" fill="#F6E3A3"/>
<path d="M171.652 342.723L136.52 357.4C130.355 359.974 123.74 361.299 117.059 361.299C110.378 361.299 103.763 359.974 97.5982 357.4L62.4692 342.723C59.6994 341.567 57.3334 339.618 55.6693 337.121C54.0051 334.623 53.1171 331.689 53.1172 328.688V316.242C53.1172 314.244 53.5106 312.266 54.2751 310.421C55.0395 308.576 56.1599 306.899 57.5724 305.486C58.9849 304.074 60.6617 302.953 62.5072 302.189C64.3527 301.424 66.3307 301.031 68.3282 301.031H165.789C167.787 301.031 169.765 301.424 171.61 302.188C173.456 302.953 175.133 304.073 176.546 305.486C177.958 306.898 179.079 308.575 179.843 310.421C180.607 312.266 181 314.244 181 316.242V328.687C181.001 331.688 180.113 334.622 178.45 337.119C176.786 339.617 174.421 341.567 171.652 342.723Z" fill="#FCF2D0"/>
<path d="M364.316 404.945H429.562C432.582 404.945 435.571 404.351 438.361 403.195C441.151 402.04 443.685 400.346 445.82 398.211C447.955 396.076 449.649 393.541 450.804 390.752C451.96 387.962 452.554 384.972 452.554 381.953V325.176H341.328V381.953C341.328 384.972 341.922 387.962 343.077 390.751C344.232 393.54 345.926 396.075 348.06 398.21C350.195 400.345 352.729 402.039 355.518 403.194C358.308 404.35 361.297 404.945 364.316 404.945Z" fill="#FCF2D0"/>
<path d="M452.555 356.586L421.485 369.563C413.71 372.812 405.368 374.485 396.942 374.485C388.516 374.485 380.174 372.812 372.399 369.563L341.329 356.586V325.172H452.555V356.586Z" fill="#F6E3A3"/>
<path d="M342.348 342.723L377.48 357.4C383.645 359.974 390.26 361.299 396.941 361.299C403.622 361.299 410.237 359.974 416.402 357.4L451.531 342.724C454.301 341.568 456.667 339.619 458.331 337.122C459.995 334.624 460.883 331.69 460.883 328.689V316.242C460.883 314.244 460.49 312.266 459.725 310.421C458.961 308.576 457.84 306.899 456.428 305.486C455.015 304.074 453.338 302.953 451.493 302.189C449.648 301.424 447.67 301.031 445.672 301.031H348.211C346.213 301.031 344.235 301.424 342.39 302.188C340.544 302.953 338.867 304.073 337.455 305.486C336.042 306.898 334.922 308.575 334.157 310.421C333.393 312.266 333 314.244 333 316.242V328.687C333 331.688 333.887 334.622 335.55 337.119C337.214 339.617 339.579 341.567 342.348 342.723Z" fill="#FCF2D0"/>
<path d="M142.551 213.59H91.5664C89.5773 213.59 87.6696 212.8 86.2631 211.393C84.8566 209.987 84.0664 208.079 84.0664 206.09C84.0664 204.101 84.8566 202.193 86.2631 200.787C87.6696 199.38 89.5773 198.59 91.5664 198.59H142.55C144.54 198.59 146.447 199.38 147.854 200.787C149.26 202.193 150.05 204.101 150.05 206.09C150.05 208.079 149.26 209.987 147.854 211.393C146.447 212.8 144.54 213.59 142.55 213.59H142.551Z" fill="#F7EF87"/>
<path d="M422.434 213.59H371.449C369.46 213.59 367.552 212.8 366.146 211.393C364.739 209.987 363.949 208.079 363.949 206.09C363.949 204.101 364.739 202.193 366.146 200.787C367.552 199.38 369.46 198.59 371.449 198.59H422.429C424.418 198.59 426.326 199.38 427.733 200.787C429.139 202.193 429.929 204.101 429.929 206.09C429.929 208.079 429.139 209.987 427.733 211.393C426.326 212.8 424.418 213.59 422.429 213.59H422.434Z" fill="#F7EF87"/>
<path d="M124.469 336.191C124.469 337.657 124.035 339.089 123.221 340.308C122.406 341.526 121.249 342.476 119.895 343.037C118.541 343.598 117.051 343.745 115.614 343.459C114.176 343.173 112.856 342.467 111.82 341.431C110.783 340.394 110.078 339.074 109.792 337.637C109.506 336.199 109.653 334.709 110.213 333.355C110.774 332.001 111.724 330.844 112.943 330.03C114.161 329.216 115.594 328.781 117.059 328.781C118.033 328.781 118.996 328.972 119.895 329.345C120.794 329.717 121.611 330.263 122.299 330.951C122.987 331.639 123.533 332.456 123.906 333.355C124.278 334.254 124.47 335.218 124.469 336.191Z" fill="#4E5660"/>
<path d="M404.352 336.191C404.352 337.657 403.918 339.089 403.103 340.308C402.289 341.526 401.132 342.476 399.778 343.037C398.424 343.598 396.934 343.745 395.497 343.459C394.059 343.173 392.739 342.467 391.703 341.431C390.666 340.394 389.961 339.074 389.675 337.637C389.389 336.199 389.535 334.709 390.096 333.355C390.657 332.001 391.607 330.844 392.825 330.03C394.044 329.216 395.477 328.781 396.942 328.781C397.915 328.781 398.879 328.972 399.778 329.345C400.677 329.717 401.494 330.263 402.182 330.951C402.87 331.639 403.416 332.456 403.788 333.355C404.161 334.254 404.352 335.218 404.352 336.191Z" fill="#4E5660"/>
</svg>
