<svg width="512" height="512" viewBox="0 0 512 512" fill="none" xmlns="http://www.w3.org/2000/svg">
<path d="M296.215 254.188H331.3V404.613H296.215V254.188Z" fill="#7DCE5C"/>
<path d="M296.215 328.707C307.236 333.96 319.128 337.144 331.3 338.1V254.19H296.215V328.707Z" fill="#59C230"/>
<path d="M419.621 140.6C407.578 138.268 380.094 142.623 358.91 153.409C369.699 132.229 374.051 104.745 371.723 92.6984C371.23 90.1627 370.117 87.7887 368.482 85.7883C366.848 83.788 364.744 82.2237 362.357 81.2352C359.971 80.2467 357.376 79.8648 354.806 80.1236C352.236 80.3824 349.77 81.2739 347.629 82.7184C337.465 89.5894 321.106 112.101 313.758 134.706C306.41 112.1 290.051 89.5904 279.887 82.7194C277.745 81.2749 275.279 80.3834 272.709 80.1246C270.139 79.8658 267.545 80.2477 265.159 81.2362C262.772 82.2247 260.668 83.789 259.033 85.7893C257.399 87.7897 256.286 90.1637 255.793 92.6994C253.465 104.746 257.816 132.23 268.602 153.41C247.422 142.621 219.938 138.269 207.895 140.601C205.359 141.093 202.984 142.206 200.983 143.84C198.982 145.474 197.417 147.579 196.429 149.966C195.44 152.353 195.058 154.947 195.318 157.518C195.577 160.088 196.469 162.554 197.915 164.695C204.782 174.859 227.294 191.215 249.899 198.566C227.294 205.914 204.782 222.266 197.915 232.433C196.469 234.575 195.576 237.041 195.317 239.612C195.057 242.183 195.439 244.778 196.428 247.166C197.416 249.553 198.981 251.658 200.982 253.293C202.983 254.928 205.358 256.041 207.895 256.533C219.938 258.861 247.422 254.51 268.602 243.721C257.817 264.905 253.465 292.385 255.793 304.432C256.286 306.968 257.399 309.342 259.033 311.342C260.668 313.343 262.772 314.907 265.159 315.896C267.545 316.884 270.139 317.266 272.709 317.007C275.279 316.748 277.745 315.857 279.887 314.412C290.051 307.541 306.41 285.033 313.758 262.428C321.11 285.033 337.465 307.541 347.629 314.412C349.77 315.857 352.236 316.749 354.806 317.008C357.377 317.267 359.971 316.885 362.357 315.896C364.744 314.908 366.848 313.343 368.483 311.343C370.117 309.342 371.23 306.968 371.723 304.432C374.051 292.389 369.7 264.905 358.914 243.725C380.094 254.51 407.578 258.862 419.621 256.534C422.157 256.042 424.532 254.93 426.533 253.295C428.534 251.661 430.098 249.557 431.087 247.17C432.076 244.783 432.457 242.188 432.198 239.618C431.939 237.048 431.046 234.582 429.601 232.44C422.73 222.276 400.222 205.92 377.617 198.569C400.222 191.221 422.73 174.869 429.601 164.702C431.047 162.561 431.939 160.094 432.199 157.523C432.458 154.952 432.077 152.357 431.088 149.969C430.099 147.582 428.535 145.477 426.534 143.842C424.532 142.207 422.157 141.093 419.621 140.6Z" fill="#EEDB00"/>
<path d="M354.469 201.129C354.469 208.674 352.231 216.049 348.039 222.322C343.848 228.596 337.89 233.485 330.919 236.372C323.948 239.26 316.278 240.015 308.878 238.543C301.478 237.071 294.681 233.438 289.346 228.103C284.011 222.768 280.378 215.97 278.906 208.571C277.434 201.171 278.189 193.5 281.077 186.53C283.964 179.559 288.853 173.601 295.126 169.41C301.4 165.218 308.775 162.98 316.32 162.98C321.33 162.98 326.291 163.966 330.919 165.883C335.548 167.8 339.753 170.61 343.296 174.153C346.838 177.695 349.648 181.901 351.565 186.53C353.483 191.158 354.469 196.119 354.469 201.129Z" fill="#F2614A"/>
<path d="M180.9 270.922C164.275 254.297 142.548 249.063 132.377 259.235C122.206 269.407 127.436 291.135 144.065 307.762C160.694 324.389 182.417 329.621 192.588 319.45C202.759 309.279 197.531 287.551 180.9 270.922Z" fill="#7DCE5C"/>
<path d="M180.246 174.156H215.328V404.613H180.246V174.156Z" fill="#9CDA82"/>
<path d="M180.246 248.676C191.267 253.928 203.158 257.111 215.328 258.067V174.157H180.246V248.676Z" fill="#7DCE5C"/>
<path d="M303.652 60.5662C291.605 58.2382 264.125 62.5892 242.941 73.3792C253.73 52.2002 258.082 24.7152 255.754 12.6682C255.261 10.132 254.147 7.7575 252.512 5.75684C250.878 3.75618 248.773 2.19169 246.385 1.20317C243.998 0.214659 241.404 -0.167085 238.833 0.0920546C236.262 0.351194 233.796 1.24314 231.654 2.6882C221.49 9.5592 205.134 32.0712 197.787 54.6762C190.438 32.0702 174.082 9.5592 163.918 2.6882C161.776 1.24314 159.31 0.351194 156.739 0.0920546C154.169 -0.167085 151.574 0.214659 149.187 1.20317C146.8 2.19169 144.695 3.75618 143.06 5.75684C141.425 7.7575 140.311 10.132 139.818 12.6682C137.492 24.7152 141.844 52.2002 152.633 73.3792C131.449 62.5902 103.969 58.2382 91.9221 60.5662C89.3861 61.0595 87.0117 62.1734 85.0112 63.8083C83.0107 65.4432 81.4463 67.5481 80.4578 69.9352C79.4693 72.3222 79.0876 74.9169 79.3466 77.4874C79.6056 80.058 80.4973 82.5244 81.9421 84.6662C88.8131 94.8302 111.325 111.186 133.93 118.537C111.325 125.885 88.8131 142.237 81.9421 152.404C80.497 154.546 79.6051 157.012 79.346 159.583C79.0868 162.154 79.4686 164.748 80.4571 167.136C81.4456 169.523 83.0101 171.628 85.0107 173.263C87.0114 174.897 89.3859 176.011 91.9221 176.504C103.969 178.832 131.449 174.481 152.633 163.692C141.844 184.871 137.492 212.352 139.82 224.4C140.313 226.936 141.427 229.311 143.062 231.312C144.697 233.312 146.802 234.877 149.189 235.865C151.576 236.854 154.171 237.235 156.741 236.976C159.312 236.717 161.778 235.825 163.92 234.38C174.084 227.509 190.44 205.001 197.791 182.392C205.139 205.001 221.491 227.509 231.658 234.38C233.8 235.825 236.266 236.717 238.837 236.976C241.408 237.235 244.002 236.854 246.389 235.865C248.777 234.877 250.882 233.312 252.516 231.312C254.151 229.311 255.265 226.936 255.758 224.4C258.086 212.357 253.735 184.873 242.946 163.689C264.13 174.478 291.61 178.83 303.657 176.502C306.193 176.009 308.567 174.896 310.567 173.262C312.567 171.627 314.132 169.523 315.12 167.136C316.109 164.75 316.491 162.156 316.232 159.586C315.973 157.016 315.082 154.55 313.637 152.408C306.766 142.244 284.258 125.888 261.649 118.537C284.258 111.189 306.766 94.8302 313.637 84.6702C315.082 82.5278 315.974 80.0608 316.233 77.4895C316.492 74.9183 316.11 72.3229 315.121 69.9354C314.132 67.5479 312.567 65.4426 310.566 63.8076C308.564 62.1727 306.189 61.059 303.652 60.5662Z" fill="#F9EE80"/>
<path d="M235.938 118.535C235.937 126.081 233.699 133.456 229.507 139.73C225.315 146.003 219.356 150.893 212.385 153.78C205.414 156.667 197.743 157.422 190.343 155.95C182.943 154.477 176.145 150.844 170.81 145.508C165.475 140.172 161.842 133.374 160.37 125.974C158.899 118.574 159.655 110.903 162.542 103.932C165.43 96.9612 170.32 91.0033 176.594 86.8116C182.868 82.62 190.244 80.3829 197.79 80.3833C207.908 80.3844 217.611 84.4044 224.765 91.5592C231.919 98.7139 235.938 108.417 235.938 118.535Z" fill="#F2614A"/>
<path d="M416.328 389.031C388.164 363.867 351.754 367.246 325.508 374.886C321.108 376.159 316.471 376.376 311.972 375.519C307.473 374.661 303.24 372.754 299.617 369.952C287.037 360.306 271.626 355.078 255.773 355.078C239.92 355.078 224.51 360.306 211.93 369.952C208.307 372.755 204.073 374.663 199.573 375.521C195.074 376.378 190.435 376.161 186.035 374.886C159.789 367.245 123.383 363.866 95.2189 389.031C76.9609 405.344 67.3639 426.281 62.5189 446.238C60.6136 454.062 60.5099 462.216 62.2154 470.085C63.9209 477.955 67.3911 485.334 72.3644 491.667C77.3377 497.999 83.6841 503.12 90.9249 506.642C98.1657 510.165 106.112 511.997 114.164 512H397.383C405.435 511.996 413.38 510.164 420.62 506.641C427.86 503.118 434.206 497.997 439.178 491.665C444.151 485.332 447.62 477.953 449.325 470.084C451.03 462.215 450.926 454.061 449.02 446.238C444.184 426.281 434.586 405.344 416.328 389.031Z" fill="#FC8978"/>
<path d="M175.02 454.09C137.907 423.637 162.493 370.059 162.493 370.059C140.415 367.543 115.645 370.782 95.2201 389.032C76.9621 405.345 67.3651 426.282 62.5201 446.239C60.6151 454.063 60.5114 462.216 62.2169 470.086C63.9225 477.955 67.3927 485.334 72.3658 491.667C77.3389 497.999 83.6851 503.12 90.9257 506.642C98.1663 510.164 106.112 511.997 114.164 512H329.617C278.613 458.48 206.535 479.949 175.02 454.09Z" fill="#F2614A"/>
<path d="M354.469 410.426C354.47 413.85 353.456 417.197 351.555 420.044C349.654 422.892 346.951 425.111 343.788 426.422C340.626 427.732 337.145 428.076 333.787 427.408C330.429 426.741 327.345 425.092 324.924 422.671C322.503 420.251 320.855 417.166 320.187 413.808C319.52 410.45 319.863 406.97 321.174 403.807C322.485 400.644 324.704 397.941 327.551 396.04C330.398 394.139 333.745 393.125 337.169 393.126C341.757 393.129 346.155 394.952 349.399 398.196C352.643 401.44 354.467 405.839 354.469 410.426Z" fill="#F2614A"/>
<path d="M371.777 473.309C371.777 476.732 370.761 480.078 368.859 482.924C366.958 485.77 364.254 487.988 361.092 489.298C357.93 490.607 354.45 490.95 351.093 490.282C347.736 489.614 344.652 487.965 342.232 485.545C339.812 483.125 338.163 480.041 337.496 476.684C336.828 473.327 337.171 469.847 338.48 466.685C339.79 463.522 342.008 460.819 344.854 458.918C347.7 457.016 351.046 456.001 354.469 456C359.06 456.001 363.462 457.824 366.708 461.071C369.954 464.317 371.777 468.719 371.777 473.309Z" fill="#F2614A"/>
<path d="M278.172 427.735C278.173 431.158 277.159 434.505 275.258 437.352C273.357 440.2 270.654 442.419 267.491 443.73C264.329 445.041 260.848 445.384 257.49 444.716C254.133 444.049 251.048 442.4 248.627 439.979C246.206 437.559 244.558 434.474 243.89 431.116C243.223 427.758 243.566 424.278 244.877 421.115C246.188 417.953 248.407 415.25 251.254 413.348C254.101 411.447 257.449 410.433 260.872 410.435C265.46 410.435 269.861 412.257 273.105 415.502C276.349 418.746 278.172 423.146 278.172 427.735Z" fill="#F2614A"/>
</svg>
