<svg width="512" height="512" viewBox="0 0 512 512" fill="none" xmlns="http://www.w3.org/2000/svg">
<path d="M66.1841 60.5283H164.219V202.989H66.1841V60.5283Z" fill="#F9EFCD"/>
<path d="M139.684 3H90.7201C77.1691 3 66.1841 13.985 66.1841 27.536V60.528H164.219V27.536C164.22 13.985 153.235 3 139.684 3V3Z" fill="#8CADE0"/>
<path d="M466.719 500.482H45.2808V208.584L256 137.014L466.719 208.584V500.482Z" fill="#F9EFCD"/>
<path d="M45.2808 208.584V284.303C259.573 206.724 249.428 208.874 256 208.874C262.488 208.874 252.009 206.573 466.719 284.303V208.584L256 137.014L45.2808 208.584Z" fill="#F8DEBB"/>
<path d="M164.22 93.0332L66.1841 128.715V202.989H164.22V93.0332Z" fill="#F8DEBB"/>
<path d="M283.553 102.545L489.447 177.484C502.987 182.412 512 195.283 512 209.693V234.536C512 250.745 495.891 262.025 480.659 256.481L273.359 181.03C262.146 176.949 249.854 176.949 238.642 181.03L31.342 256.481C16.109 262.025 0 250.745 0 234.536V209.693C0 195.283 9.012 182.412 22.553 177.484L228.447 102.545C246.244 96.067 265.755 96.067 283.553 102.545V102.545Z" fill="#D8A783"/>
<path d="M194.14 115.032L22.553 177.484C9.012 182.413 0 195.284 0 209.693V234.536C0 250.746 16.109 262.025 31.341 256.481L214.976 189.643C191.605 181.733 182.606 131.087 194.14 115.032Z" fill="#D0876F"/>
<path d="M478.882 451.857H33.118C24.712 451.857 17.897 458.672 17.897 467.078V493.942C17.897 502.348 24.712 509.163 33.118 509.163H193.044L256 498.338L318.956 509.164H478.882C487.288 509.164 494.103 502.349 494.103 493.943V467.079C494.103 458.672 487.288 451.857 478.882 451.857V451.857Z" fill="#8CADE0"/>
<path d="M297.788 367.812H214.212C202.521 367.812 193.044 377.289 193.044 388.98V509.164H318.956V388.98C318.956 377.289 309.479 367.812 297.788 367.812Z" fill="#4F5C6F"/>
<path d="M182.376 365.991C183.281 407.416 218.88 433.961 243.764 445.864C251.502 449.565 260.497 449.565 268.235 445.864C293.119 433.961 328.718 407.416 329.623 365.991C330.146 342.04 311.196 321.908 287.24 321.825C276.567 321.788 266.805 325.682 259.317 332.141C257.414 333.783 254.587 333.783 252.684 332.141C245.196 325.682 235.434 321.788 224.76 321.825C200.803 321.908 181.853 342.039 182.376 365.991V365.991Z" fill="#E48895"/>
<path d="M290.371 432.623C216.567 422.865 211.098 340.844 224.759 321.825C200.802 321.908 181.853 342.039 182.376 365.99C183.281 407.415 218.881 433.96 243.764 445.863C251.502 449.564 260.497 449.564 268.235 445.863C275.115 442.573 282.813 438.157 290.371 432.623Z" fill="#E06E7E"/>
<path d="M80.0668 299.167H45.2808V372.125H80.0668C92.8698 372.125 103.249 361.746 103.249 348.943V322.348C103.249 309.546 92.8698 299.167 80.0668 299.167Z" fill="#8CADE0"/>
<path d="M431.933 299.167H466.719V372.125H431.933C419.13 372.125 408.751 361.746 408.751 348.943V322.348C408.751 309.546 419.13 299.167 431.933 299.167Z" fill="#8CADE0"/>
<path d="M175.258 307.495C191.711 307.495 205.05 296.873 205.05 283.77C205.05 270.667 191.711 260.045 175.258 260.045C158.804 260.045 145.466 270.667 145.466 283.77C145.466 296.873 158.804 307.495 175.258 307.495Z" fill="#EDA1AB"/>
<path d="M336.742 307.495C353.195 307.495 366.534 296.873 366.534 283.77C366.534 270.667 353.195 260.045 336.742 260.045C320.288 260.045 306.95 270.667 306.95 283.77C306.95 296.873 320.288 307.495 336.742 307.495Z" fill="#EDA1AB"/>
<path d="M206.801 265.452C202.659 265.452 199.301 262.094 199.301 257.952C199.301 254.268 196.304 251.271 192.62 251.271C188.936 251.271 185.939 254.268 185.939 257.952C185.939 262.094 182.581 265.452 178.439 265.452C174.297 265.452 170.939 262.094 170.939 257.952C170.939 245.997 180.665 236.271 192.62 236.271C204.575 236.271 214.301 245.997 214.301 257.952C214.301 262.094 210.943 265.452 206.801 265.452Z" fill="#4F5C6F"/>
<path d="M333.56 265.452C329.417 265.452 326.06 262.094 326.06 257.952C326.06 254.268 323.063 251.271 319.379 251.271C315.695 251.271 312.699 254.268 312.699 257.952C312.699 262.094 309.342 265.452 305.199 265.452C301.056 265.452 297.699 262.094 297.699 257.952C297.699 245.997 307.425 236.271 319.379 236.271C331.334 236.271 341.06 245.997 341.06 257.952C341.06 262.094 337.702 265.452 333.56 265.452Z" fill="#4F5C6F"/>
<path d="M256 288.878C248.067 288.878 240.523 285.442 235.304 279.453C232.583 276.33 232.908 271.593 236.031 268.872C239.153 266.151 243.891 266.475 246.612 269.599C248.982 272.319 252.404 273.879 256 273.879C259.596 273.879 263.018 272.319 265.388 269.599C268.109 266.475 272.846 266.151 275.97 268.872C279.092 271.593 279.418 276.331 276.697 279.453C271.477 285.443 263.933 288.878 256 288.878V288.878Z" fill="#4F5C6F"/>
</svg>
