<svg width="512" height="512" viewBox="0 0 512 512" fill="none" xmlns="http://www.w3.org/2000/svg">
<path d="M220.457 10.3001L246 1.00013C250.122 -0.499118 254.672 -0.299685 258.647 1.55457C262.623 3.40883 265.699 6.7661 267.2 10.8881L270.723 20.5671L214.092 41.1831L210.571 31.5001C209.072 27.3778 209.271 22.8289 211.125 18.8535C212.979 14.878 216.335 11.8015 220.457 10.3001Z" fill="#C3E9F1"/>
<path opacity="0.1" d="M225.661 8.40039L220.461 10.2944C218.419 11.0372 216.543 12.1751 214.941 13.6428C213.339 15.1106 212.042 16.8796 211.123 18.8488C210.205 20.8181 209.683 22.9489 209.589 25.1197C209.494 27.2904 209.827 29.4586 210.571 31.5004L214.094 41.1794L234.457 33.7674C228.616 26.0004 225.553 15.7344 225.661 8.40039Z" fill="black"/>
<path d="M48.9549 266.938L58.5289 293.238L400.029 168.938L361.421 62.8598C358.243 54.1278 353.376 46.1074 347.098 39.2564C340.821 32.4053 333.255 26.8579 324.833 22.9309C316.412 19.0039 307.299 16.7742 298.015 16.369C288.732 15.9639 279.46 17.3913 270.728 20.5698L151.136 64.0998C142.404 67.2778 134.383 72.1445 127.532 78.4223C120.681 84.7 115.134 92.2657 111.207 100.687C107.28 109.109 105.05 118.222 104.645 127.505C104.24 136.789 105.667 146.061 108.846 154.793L114.153 169.373C115.054 171.847 115.459 174.475 115.344 177.105C115.229 179.736 114.598 182.318 113.485 184.705C112.372 187.091 110.8 189.235 108.859 191.014C106.917 192.793 104.644 194.172 102.17 195.073L78.4429 203.7C72.354 205.915 66.7613 209.309 61.984 213.686C57.2067 218.063 53.3384 223.338 50.6001 229.211C47.8619 235.083 46.3072 241.437 46.0249 247.911C45.7426 254.384 46.7382 260.849 48.9549 266.938ZM163.175 145.938L159.665 136.294C158.152 132.137 158.353 127.551 160.222 123.542C162.092 119.533 165.477 116.432 169.633 114.919L289.225 71.3898C293.381 69.8774 297.968 70.0779 301.977 71.9472C305.985 73.8165 309.087 77.2016 310.6 81.3578L314.11 90.9998C315.247 94.1221 315.757 97.4377 315.612 100.757C315.468 104.077 314.67 107.336 313.266 110.347C311.862 113.358 309.878 116.064 307.428 118.309C304.978 120.553 302.11 122.294 298.988 123.43L195.606 161.061C189.299 163.356 182.339 163.053 176.256 160.216C170.173 157.38 165.467 152.243 163.171 145.937L163.175 145.938Z" fill="#8DB5EA"/>
<path opacity="0.1" d="M102.171 195.067L78.4417 203.7C66.1461 208.176 56.1319 217.352 50.602 229.211C45.0721 241.07 44.4796 254.64 48.9547 266.935L58.5287 293.235L128.616 267.725L102.171 195.067Z" fill="black"/>
<path opacity="0.1" d="M133.271 73.6895C120.998 82.7656 111.988 95.5663 107.586 110.182C103.184 124.798 103.624 140.445 108.843 154.789L114.15 169.369C115.051 171.844 115.455 174.471 115.341 177.102C115.226 179.733 114.594 182.315 113.482 184.702C112.369 187.088 110.797 189.232 108.855 191.011C106.914 192.79 104.641 194.169 102.167 195.069L78.4417 203.7C66.1461 208.176 56.1319 217.352 50.602 229.211C45.0721 241.07 44.4796 254.64 48.9547 266.935L58.5287 293.235L175.939 250.502C127.59 186.421 126.222 125.538 133.271 73.6895Z" fill="black"/>
<path d="M96.5709 378.394L419.728 260.775C423.194 259.513 426.378 257.581 429.097 255.089C431.816 252.598 434.018 249.594 435.577 246.251C437.136 242.908 438.02 239.291 438.181 235.606C438.342 231.921 437.775 228.241 436.513 224.775L418.713 175.883C418.133 174.289 417.244 172.824 416.098 171.574C414.952 170.323 413.571 169.31 412.034 168.593C410.497 167.876 408.833 167.469 407.138 167.395C405.444 167.321 403.751 167.582 402.157 168.162L50.4979 296.162C48.9038 296.742 47.4396 297.63 46.1889 298.776C44.9382 299.922 43.9255 301.303 43.2086 302.841C42.4917 304.378 42.0847 306.042 42.0108 307.736C41.9369 309.431 42.1975 311.124 42.7779 312.718L60.5779 361.61C63.1258 368.608 68.349 374.307 75.0988 377.455C81.8486 380.603 89.5722 380.94 96.5709 378.394Z" fill="#C3E9F1"/>
<path d="M312.228 349.067L411.989 312.756C417.219 310.852 421.479 306.948 423.832 301.904C426.185 296.859 426.437 291.087 424.535 285.856L415.913 262.168L276.701 312.834L285.323 336.522C287.227 341.753 291.132 346.014 296.177 348.366C301.223 350.719 306.996 350.971 312.228 349.067Z" fill="#5D6671"/>
<path opacity="0.1" d="M285.324 336.522C287.228 341.752 291.131 346.012 296.176 348.365C301.22 350.718 306.993 350.971 312.224 349.068L335.212 340.701C321.127 329.834 314.612 310.779 312.864 299.671L276.701 312.835L285.324 336.522Z" fill="black"/>
<path d="M404.086 512.001C390.628 511.971 377.503 507.812 366.485 500.085C355.466 492.358 347.084 481.436 342.471 468.794C337.971 456.44 338.071 436.426 342.74 415.256C345.606 402.242 352.148 379.782 363.74 375.556L389.554 366.156C401.154 361.934 420.6 374.937 431.159 383.062C448.34 396.282 461.282 411.549 465.778 423.903C469.374 433.82 470.53 444.458 469.146 454.916C467.763 465.374 463.882 475.345 457.83 483.987C451.779 492.628 443.736 499.685 434.381 504.561C425.027 509.437 414.635 511.989 404.086 512.001ZM369.037 389.601C366.715 391.162 360.924 401.513 357.054 420.029C353.37 437.657 353.183 454.379 356.564 463.668C361.155 476.281 370.569 486.555 382.735 492.227C394.901 497.9 408.822 498.508 421.436 493.917C434.05 489.325 444.323 479.911 449.996 467.745C455.669 455.579 456.276 441.658 451.685 429.045C448.304 419.755 437.413 407.067 423.258 395.931C408.392 384.231 397.301 380.041 394.521 380.324L369.037 389.601ZM368.878 389.659H368.873H368.878Z" fill="#D6D8DB"/>
<path d="M355.054 333.474L372.161 380.476L386.255 375.346L369.149 328.344L355.054 333.474Z" fill="#D6D8DB"/>
<path d="M421.123 508.971C404.623 508.971 386.891 483.853 376.855 456.279C372.639 444.697 368.846 427.016 366.708 408.984C363.393 381.025 365.846 374.796 371.87 372.603L377.001 386.703C377.816 386.429 378.563 385.983 379.192 385.397C379.82 384.811 380.317 384.097 380.648 383.303C380.137 385.064 379.828 394.242 382.127 411.368C384.199 426.794 387.497 441.668 390.949 451.152C395.962 464.923 402.585 477.058 409.596 485.321C415.86 492.7 420.354 494.314 421.436 493.921C422.518 493.528 424.927 489.401 424.982 479.727C425.044 468.889 422.316 455.336 417.303 441.564C413.851 432.08 406.818 418.564 398.49 405.418C389.243 390.818 383.106 383.989 381.583 382.968C382.346 383.363 383.185 383.591 384.044 383.635C384.902 383.68 385.76 383.54 386.561 383.226L381.432 369.126C387.455 366.933 393.342 370.131 408.772 393.677C418.725 408.864 427.184 424.847 431.4 436.429C437.005 451.829 440.053 467.235 439.983 479.805C439.922 490.467 437.546 504.014 426.568 508.005C424.823 508.644 422.98 508.971 421.123 508.971Z" fill="#D6D8DB"/>
<path d="M353.315 364.276C351.55 364.277 349.842 363.657 348.489 362.524C347.137 361.39 346.227 359.816 345.921 358.079C345.614 356.341 345.93 354.551 346.813 353.023C347.696 351.495 349.089 350.328 350.748 349.726L382.902 338.026C384.772 337.345 386.835 337.435 388.638 338.276C390.442 339.117 391.837 340.64 392.517 342.51C393.198 344.38 393.108 346.443 392.267 348.247C391.426 350.05 389.903 351.445 388.033 352.126L355.879 363.826C355.057 364.124 354.189 364.277 353.315 364.276Z" fill="#D6D8DB"/>
<g opacity="0.1">
<path opacity="0.1" d="M265.156 197.363C263.616 197.363 262.114 196.89 260.853 196.007C259.592 195.124 258.633 193.874 258.107 192.427L249.771 169.52C249.429 168.594 249.274 167.609 249.314 166.622C249.354 165.635 249.588 164.666 250.004 163.77C250.419 162.875 251.007 162.07 251.735 161.402C252.462 160.734 253.314 160.216 254.242 159.878C255.17 159.54 256.156 159.389 257.142 159.433C258.129 159.477 259.097 159.716 259.991 160.135C260.885 160.554 261.688 161.146 262.353 161.876C263.017 162.606 263.532 163.46 263.866 164.389L272.204 187.296C272.616 188.429 272.75 189.645 272.593 190.841C272.436 192.036 271.993 193.176 271.301 194.164C270.61 195.152 269.69 195.958 268.621 196.515C267.551 197.072 266.363 197.363 265.158 197.363H265.156Z" fill="black"/>
<path opacity="0.1" d="M289.343 188.558C287.803 188.558 286.301 188.085 285.04 187.202C283.779 186.319 282.82 185.069 282.294 183.622L273.956 160.715C273.275 158.845 273.366 156.782 274.207 154.979C275.048 153.175 276.57 151.78 278.44 151.1C280.31 150.419 282.373 150.51 284.177 151.351C285.98 152.192 287.375 153.714 288.056 155.584L296.394 178.491C296.806 179.624 296.94 180.84 296.783 182.035C296.626 183.231 296.183 184.371 295.491 185.359C294.8 186.347 293.88 187.153 292.811 187.71C291.741 188.267 290.553 188.558 289.348 188.558H289.343Z" fill="black"/>
<path opacity="0.1" d="M313.533 179.755C311.993 179.756 310.491 179.282 309.23 178.399C307.969 177.516 307.01 176.266 306.484 174.819L298.146 151.913C297.809 150.988 297.657 150.005 297.701 149.02C297.744 148.036 297.98 147.07 298.396 146.177C298.813 145.284 299.401 144.482 300.128 143.816C300.854 143.151 301.704 142.635 302.63 142.298C303.556 141.961 304.539 141.81 305.523 141.853C306.508 141.896 307.474 142.132 308.367 142.549C309.26 142.965 310.062 143.553 310.727 144.28C311.393 145.006 311.909 145.857 312.246 146.782L320.584 169.688C320.996 170.821 321.13 172.037 320.973 173.233C320.816 174.428 320.373 175.568 319.681 176.556C318.99 177.544 318.07 178.351 317.001 178.907C315.931 179.464 314.743 179.755 313.538 179.755H313.533Z" fill="black"/>
</g>
<path opacity="0.1" d="M175.939 250.507L50.503 296.162C48.909 296.742 47.4449 297.63 46.1942 298.776C44.9436 299.922 43.9309 301.304 43.2141 302.841C42.4972 304.378 42.0902 306.042 42.0162 307.737C41.9422 309.431 42.2028 311.124 42.7829 312.718L60.583 361.61C61.8444 365.076 63.7763 368.26 66.2682 370.979C68.7602 373.698 71.7634 375.9 75.1063 377.459C78.4493 379.018 82.0666 379.902 85.7515 380.063C89.4365 380.224 93.1171 379.657 96.5829 378.395L224.996 331.657C187.218 309.374 174.398 274.966 175.939 250.507Z" fill="black"/>
</svg>
