<svg xmlns="http://www.w3.org/2000/svg" width="512" height="512" fill="none"><path fill="#FFB357" d="M86.321 213.417h133.042v84.034H86.321v-84.034Z"/><path fill="#FFCE71" d="m285.967 282.218-93.32-245.954h-55.314v119.091l15.509 15.33 53.514 141.04c6.4 16.869 22.598 27.277 39.811 27.275 4.959 0 10.005-.864 14.922-2.686 21.983-8.149 33.121-32.368 24.878-54.096Z"/><path fill="#FFB357" d="M192.648 36.264C186.425 19.864 170.563 9 152.842 9c-17.722 0-33.583 10.865-39.806 27.264L19.718 282.219c-8.243 21.727 2.895 45.946 24.878 54.095 21.982 8.145 46.49-2.861 54.733-24.59l53.514-141.041v.002-38.592c0-35.874 14.301-70.304 39.805-95.83Z"/><path fill="#FF8E9E" d="M92.72 165.412c10.892 0 19.722-6.95 19.722-15.522 0-8.573-8.83-15.522-19.721-15.522-10.892 0-19.721 6.949-19.721 15.522 0 8.572 8.83 15.522 19.72 15.522Zm106.894 0c10.891 0 19.721-6.95 19.721-15.522 0-8.573-8.83-15.522-19.721-15.522-10.892 0-19.721 6.949-19.721 15.522 0 8.572 8.829 15.522 19.721 15.522Z"/><path fill="#313D40" d="M104.214 122c-2.783 0-5.039 2.23-5.039 4.98v7.968c0 2.75 2.256 4.98 5.039 4.98 2.782 0 5.038-2.23 5.038-4.98v-7.968c0-2.751-2.256-4.98-5.038-4.98Zm83.907 0c-2.783 0-5.039 2.23-5.039 4.98v7.968c0 2.75 2.256 4.98 5.039 4.98 2.782 0 5.038-2.23 5.038-4.98v-7.968c0-2.751-2.256-4.98-5.038-4.98Zm-27.582 8.956c-2.098-1.807-5.281-1.591-7.109.483a9.687 9.687 0 0 1-7.263 3.273 9.683 9.683 0 0 1-7.262-3.273c-1.828-2.074-5.011-2.289-7.109-.483a4.94 4.94 0 0 0-.488 7.026 19.807 19.807 0 0 0 14.859 6.689 19.808 19.808 0 0 0 14.86-6.689 4.94 4.94 0 0 0-.488-7.026Z"/><path fill="#55DAFE" d="m351.705 343.999-69.092-37.689c9.076 0 16.43-8.124 16.159-17.994-.261-9.5-7.706-16.937-16.503-16.937h-64.324V196h63.846c47.396 0 86.479 41.083 86.76 92.286.114 20.852-6.167 40.142-16.846 55.713Z"/><path fill="#1CBBEA" d="M368.552 399.155c0-20.639-6.263-39.723-16.847-55.156-15.36-22.396-43.292-37.689-69.092-37.689h-29.781v-34.931c-22.819-18.7-34.887-46.688-34.887-75.379-19.267 0-34.886 16.874-34.886 37.69v220.62c0 20.816 15.619 37.69 34.886 37.69h64.667c47.388 0 85.94-41.65 85.94-92.845Zm-69.773 0c0 9.63-7.252 17.466-16.167 17.466h-29.781v-34.932h29.781c8.915 0 16.167 7.835 16.167 17.466Z"/><path fill="#FF8E9E" d="M231.945 364.426c8.938 0 16.184-6.233 16.184-13.922 0-7.69-7.246-13.923-16.184-13.923s-16.183 6.233-16.183 13.923c0 7.689 7.245 13.922 16.183 13.922Zm87.721 0c8.938 0 16.183-6.233 16.183-13.922 0-7.69-7.245-13.923-16.183-13.923-8.938 0-16.184 6.233-16.184 13.923 0 7.689 7.246 13.922 16.184 13.922Z"/><path fill="#313D40" d="M241.377 325.488c-2.284 0-4.135 2-4.135 4.467v7.146c0 2.467 1.851 4.467 4.135 4.467s4.135-2 4.135-4.467v-7.146c0-2.468-1.851-4.467-4.135-4.467Zm68.857 0c-2.284 0-4.135 2-4.135 4.467v7.146c0 2.467 1.851 4.467 4.135 4.467 2.283 0 4.135-2 4.135-4.467v-7.146c0-2.468-1.852-4.467-4.135-4.467Zm-22.635 8.033c-1.722-1.621-4.334-1.427-5.834.433-1.505 1.865-3.677 2.935-5.96 2.935s-4.455-1.069-5.959-2.935c-1.501-1.86-4.113-2.053-5.834-.433-1.722 1.621-1.901 4.442-.401 6.302 3.076 3.813 7.52 5.999 12.194 5.999 4.674 0 9.119-2.186 12.195-5.999 1.5-1.86 1.321-4.682-.401-6.302Z"/><path fill="#FF8E9E" d="M403.119 100.597c13.337 0 25.857 4.967 35.254 13.987 15.128 14.52 39.597 14.519 54.708-.146 15.037-14.594 14.968-38.274-.153-52.787C468.364 38.072 436.066 26 403.116 26l-49.7 22.762v97.482c.492-11.553 5.352-22.931 14.446-31.66 9.397-9.019 21.919-13.987 35.257-13.987Zm89.962 81.24c-15.106-14.661-39.575-14.67-54.707-.148-19.447 18.666-51.065 18.666-70.512 0-9.134-8.766-13.898-19.978-14.442-31.306v100.952l49.697 18.945c33.96 0 65.856-12.663 89.811-35.656 15.12-14.513 15.19-38.193.153-52.787Z"/><path fill="#EA5B70" d="M353.415 146.244c.471-43.218 17.03-86.304 49.701-120.244C331.944 26 276.002 81.417 276 148.137c0 32.682 13.249 63.397 37.307 86.487 23.957 22.993 55.852 35.656 89.81 35.656-32.583-33.849-49.142-76.795-49.698-119.897a46.076 46.076 0 0 1-.004-4.139Z"/><path fill="#FF8E9E" d="M354.897 95.173c9.331 0 16.896-5.81 16.896-12.979 0-7.168-7.565-12.978-16.896-12.978-9.332 0-16.897 5.81-16.897 12.978s7.565 12.979 16.897 12.979Zm104.248 0c9.332 0 16.897-5.81 16.897-12.979 0-7.168-7.565-12.978-16.897-12.978-9.332 0-16.896 5.81-16.896 12.978s7.564 12.979 16.896 12.979Z"/><path fill="#fff" d="m395.034 86.424 4.192-1.664 4.19 2.321c2.128.046 5.076.046 7.21 0l4.19-2.32 4.192 1.663c6.144-1.025 10.214-3.514 10.214-9.44 0-5.925-4.071-11.13-10.214-14.112l-4.192-.003-4.19-2.43a29.525 29.525 0 0 0-7.21 0l-4.19 2.43-4.192.003c-6.143 2.982-10.214 8.187-10.214 14.112.001 5.927 4.07 8.415 10.214 9.44Z"/><path fill="#D4D4FF" d="M419.007 62.872c-2.496-1.212-5.334-2.057-8.382-2.432v26.642c3.048-.066 5.885-.24 8.382-.657V62.872Zm-15.591-2.432c-3.048.375-5.885 1.22-8.382 2.432v23.552c2.497.417 5.334.592 8.382.657V60.439Z"/><path fill="#fff" d="M364.744 51c-7.141 0-12.951 5.603-12.951 12.492v5.755c0 6.888 5.81 12.491 12.951 12.491 7.141 0 12.951-5.603 12.951-12.491v-5.755c0-6.889-5.81-12.492-12.951-12.492Zm84.554 0c-7.141 0-12.951 5.603-12.951 12.492v5.755c0 6.888 5.81 12.491 12.951 12.491 7.14 0 12.95-5.603 12.95-12.491v-5.755c0-6.889-5.81-12.492-12.95-12.492Z"/><path fill="#313D40" d="M364.744 59.328c-2.384 0-4.317 1.864-4.317 4.163v5.755c0 2.3 1.933 4.164 4.317 4.164 2.384 0 4.317-1.864 4.317-4.163v-5.755c0-2.3-1.933-4.164-4.317-4.164Zm84.554 0c-2.384 0-4.317 1.864-4.317 4.163v5.755c0 2.3 1.933 4.164 4.317 4.164 2.384 0 4.317-1.864 4.317-4.163v-5.755c0-2.3-1.933-4.164-4.317-4.164Z"/></svg>