<svg width="512" height="512" viewBox="0 0 512 512" fill="none" xmlns="http://www.w3.org/2000/svg">
<path d="M454.706 500.66H57.294C51.8785 500.66 46.6849 498.509 42.8556 494.68C39.0263 490.85 36.875 485.657 36.875 480.241V288.162H475.125V480.24C475.125 482.922 474.597 485.577 473.571 488.054C472.545 490.532 471.041 492.783 469.145 494.679C467.249 496.575 464.998 498.079 462.52 499.106C460.043 500.132 457.388 500.66 454.706 500.66Z" fill="#FCF2D0"/>
<path d="M112.88 430.406H36.8799V377.306H112.886C114.693 377.306 116.482 377.662 118.151 378.353C119.82 379.045 121.336 380.058 122.614 381.336C123.891 382.613 124.905 384.13 125.596 385.799C126.287 387.468 126.643 389.257 126.643 391.064V416.65C126.643 420.299 125.193 423.798 122.613 426.378C120.033 428.958 116.534 430.407 112.885 430.407L112.88 430.406Z" fill="#A3DEFE"/>
<path d="M399.12 430.406H475.126V377.306H399.12C395.471 377.306 391.972 378.756 389.391 381.336C386.811 383.916 385.362 387.415 385.362 391.064V416.65C385.362 420.299 386.812 423.798 389.392 426.378C391.972 428.958 395.471 430.407 399.12 430.407V430.406Z" fill="#A3DEFE"/>
<path d="M36.875 350.613C48.0266 348.166 59.4025 346.885 70.819 346.792C95.484 346.792 114.269 353.476 138.051 361.938C168.516 372.778 203.045 385.064 256 385.064C308.955 385.064 343.484 372.777 373.952 361.937C397.736 353.475 416.521 346.791 441.181 346.791C452.598 346.884 463.973 348.165 475.125 350.612V288.16H36.875V350.613Z" fill="#FAE0BD"/>
<path d="M310.255 411.05H201.745C198.145 411.05 194.694 412.48 192.148 415.025C189.603 417.57 188.173 421.021 188.173 424.621V500.659H323.826V424.621C323.826 422.839 323.475 421.074 322.793 419.427C322.111 417.781 321.111 416.285 319.851 415.024C318.591 413.764 317.095 412.765 315.448 412.083C313.802 411.401 312.037 411.05 310.255 411.05Z" fill="#A3DEFE"/>
<path d="M248.5 411.05H263.5V500.659H248.5V411.05Z" fill="#7ACEFA"/>
<path d="M112.88 430.406C116.529 430.406 120.028 428.957 122.608 426.377C125.189 423.796 126.638 420.297 126.638 416.648V391.062C126.638 387.413 125.189 383.914 122.608 381.334C120.028 378.754 116.529 377.304 112.88 377.304H105.262L52.1621 430.404H112.88V430.406Z" fill="#7ACEFA"/>
<path d="M399.12 377.305C395.471 377.305 391.972 378.755 389.392 381.335C386.812 383.915 385.362 387.414 385.362 391.063V416.649C385.362 420.298 386.812 423.797 389.392 426.378C391.972 428.958 395.471 430.407 399.12 430.407H405.811L458.911 377.307H399.12V377.305Z" fill="#7ACEFA"/>
<path d="M417.53 300.191H94.4702V107.491C94.4715 96.6975 98.7602 86.3465 106.393 78.7149C114.025 71.0832 124.377 66.7959 135.17 66.7959H376.84C387.634 66.7959 397.985 71.0832 405.618 78.7149C413.25 86.3465 417.539 96.6975 417.54 107.491L417.53 300.191Z" fill="#FCF2D0"/>
<path d="M170.475 220.373H94.4751V167.273H170.481C174.129 167.274 177.627 168.724 180.206 171.304C182.785 173.884 184.234 177.382 184.234 181.03V206.616C184.234 210.265 182.784 213.764 180.203 216.344C177.623 218.924 174.124 220.373 170.475 220.373Z" fill="#A3DEFE"/>
<path d="M341.525 220.373H417.531V167.273H341.525C337.876 167.273 334.377 168.722 331.797 171.302C329.217 173.882 327.767 177.381 327.767 181.03V206.616C327.767 210.265 329.217 213.764 331.797 216.344C334.377 218.924 337.876 220.373 341.525 220.373Z" fill="#A3DEFE"/>
<path d="M417.53 226.437C393.295 229.45 372.997 236.652 353.23 243.686C324.974 253.74 298.287 263.236 256.002 263.236C213.717 263.236 187.028 253.736 158.77 243.685C139 236.651 118.7 229.45 94.4702 226.437V300.19H417.53V226.437Z" fill="#FAE0BD"/>
<path d="M1.11274e-05 304.649C-0.00302367 307.383 0.61474 310.082 1.80672 312.542C2.99869 315.003 4.73377 317.161 6.8811 318.853C9.02843 320.545 11.532 321.728 14.2029 322.311C16.8738 322.895 19.6425 322.865 22.3 322.223C124.6 297.25 148.16 354.16 256 354.16C363.84 354.16 387.4 297.251 489.7 322.223C492.358 322.865 495.126 322.895 497.797 322.311C500.468 321.728 502.972 320.545 505.119 318.853C507.266 317.161 509.001 315.003 510.193 312.542C511.385 310.082 512.003 307.383 512 304.649V281.997C512 278.05 510.709 274.211 508.323 271.067C505.938 267.923 502.589 265.645 498.788 264.582C388.695 233.89 366.961 294.141 256 294.141C145.039 294.141 123.3 233.89 13.212 264.581C9.41092 265.644 6.06211 267.922 3.67659 271.067C1.29108 274.211 -0.000129135 278.05 1.11274e-05 281.997V304.649Z" fill="#A0E7E7"/>
<path d="M229.949 292.958C140.8 284.694 114.1 236.458 13.212 264.581C9.41101 265.645 6.06228 267.922 3.67679 271.067C1.2913 274.211 3.64408e-05 278.05 1.11274e-05 281.997V304.649C-0.00302367 307.383 0.61474 310.082 1.80672 312.543C2.99869 315.003 4.73377 317.161 6.8811 318.853C9.02843 320.545 11.532 321.728 14.2029 322.312C16.8738 322.895 19.6425 322.865 22.3 322.223C117.538 298.975 144.548 346.683 234.831 353.383C226.255 337.57 223.208 311.556 229.953 292.958H229.949Z" fill="#8ED2E2"/>
<path d="M278.266 41.454V5.906C278.266 5.13041 278.113 4.36242 277.817 3.64587C277.52 2.92932 277.085 2.27825 276.536 1.72983C275.988 1.1814 275.337 0.746372 274.62 0.449567C273.904 0.152763 273.136 0 272.36 0H239.64C238.074 0 236.572 0.622238 235.464 1.72983C234.356 2.83742 233.734 4.33963 233.734 5.906V41.453C233.734 42.2693 233.41 43.0522 232.833 43.6295C232.255 44.2067 231.472 44.531 230.656 44.531H195.109C193.543 44.531 192.041 45.1532 190.933 46.2608C189.825 47.3684 189.203 48.8706 189.203 50.437V83.157C189.203 83.9326 189.356 84.7006 189.653 85.4171C189.949 86.1337 190.385 86.7848 190.933 87.3332C191.481 87.8816 192.132 88.3166 192.849 88.6134C193.566 88.9102 194.334 89.063 195.109 89.063H230.656C231.06 89.063 231.461 89.1426 231.834 89.2973C232.207 89.452 232.547 89.6787 232.833 89.9645C233.118 90.2504 233.345 90.5897 233.5 90.9631C233.654 91.3365 233.734 91.7368 233.734 92.141V127.688C233.734 129.254 234.356 130.757 235.464 131.864C236.572 132.972 238.074 133.594 239.64 133.594H272.36C273.926 133.594 275.429 132.972 276.536 131.864C277.644 130.757 278.266 129.254 278.266 127.688V92.141C278.266 91.7368 278.346 91.3365 278.5 90.9631C278.655 90.5897 278.882 90.2504 279.168 89.9645C279.453 89.6787 279.793 89.452 280.166 89.2973C280.54 89.1426 280.94 89.063 281.344 89.063H316.891C317.667 89.063 318.435 88.9102 319.151 88.6134C319.868 88.3166 320.519 87.8816 321.067 87.3332C321.616 86.7848 322.051 86.1337 322.348 85.4171C322.644 84.7006 322.797 83.9326 322.797 83.157V50.437C322.797 48.8706 322.175 47.3684 321.067 46.2608C319.96 45.1532 318.457 44.531 316.891 44.531H281.344C280.94 44.5313 280.54 44.4519 280.166 44.2973C279.793 44.1428 279.453 43.9162 279.167 43.6304C278.882 43.3447 278.655 43.0053 278.5 42.6319C278.346 42.2585 278.266 41.8582 278.266 41.454Z" fill="#EDA1AB"/>
<path d="M278.266 127.688V112.03C250.49 98.877 233.238 60.871 233.094 43.313C232.809 43.6905 232.441 43.9969 232.018 44.2082C231.595 44.4195 231.129 44.53 230.656 44.531H195.109C193.543 44.531 192.041 45.1532 190.933 46.2608C189.825 47.3684 189.203 48.8706 189.203 50.437V83.157C189.203 83.9326 189.356 84.7006 189.653 85.4171C189.949 86.1337 190.385 86.7847 190.933 87.3332C191.481 87.8816 192.132 88.3166 192.849 88.6134C193.566 88.9102 194.334 89.063 195.109 89.063H230.656C231.06 89.063 231.461 89.1426 231.834 89.2973C232.207 89.452 232.547 89.6787 232.833 89.9645C233.118 90.2503 233.345 90.5896 233.5 90.9631C233.654 91.3365 233.734 91.7368 233.734 92.141V127.688C233.734 129.254 234.356 130.757 235.464 131.864C236.572 132.972 238.074 133.594 239.64 133.594H272.36C273.926 133.593 275.429 132.971 276.536 131.863C277.644 130.756 278.266 129.253 278.266 127.687V127.688Z" fill="#E8899E"/>
<path d="M274.688 201.323H237.311C235.322 201.323 233.414 200.533 232.008 199.127C230.601 197.72 229.811 195.812 229.811 193.823C229.811 191.834 230.601 189.926 232.008 188.52C233.414 187.113 235.322 186.323 237.311 186.323H274.688C276.677 186.323 278.585 187.113 279.991 188.52C281.398 189.926 282.188 191.834 282.188 193.823C282.188 195.812 281.398 197.72 279.991 199.127C278.585 200.533 276.677 201.323 274.688 201.323Z" fill="#7ACEFA"/>
<path d="M94.4702 167.273V220.373H103.11L156.21 167.273H94.4702Z" fill="#7ACEFA"/>
<path d="M417.53 220.373V167.273H403.748L350.648 220.373H417.53Z" fill="#7ACEFA"/>
</svg>
