<svg width="512" height="512" viewBox="0 0 512 512" fill="none" xmlns="http://www.w3.org/2000/svg">
<path d="M7 219.166C7 229.029 10.9182 238.489 17.8927 245.463C24.8672 252.438 34.3266 256.356 44.19 256.356L120.678 267.856L197.166 256.356C207.029 256.356 216.489 252.438 223.463 245.463C230.438 238.489 234.356 229.029 234.356 219.166V66.19C234.356 56.3266 230.438 46.8672 223.463 39.8927C216.489 32.9182 207.029 29 197.166 29H44.19C34.3266 29 24.8672 32.9182 17.8927 39.8927C10.9182 46.8672 7 56.3266 7 66.19L7 219.166Z" fill="#D9C9F4"/>
<path d="M7 219.166C7 229.03 10.9182 238.489 17.8927 245.463C24.8672 252.438 34.3266 256.356 44.19 256.356L120.678 267.856L197.166 256.356C207.029 256.356 216.489 252.438 223.463 245.463C230.438 238.489 234.356 229.03 234.356 219.166V130.235L217.656 179.45C213.726 191.03 206.267 201.089 196.327 208.212C186.387 215.336 174.465 219.166 162.236 219.166H7Z" fill="#CABAF7"/>
<path d="M197.166 483.712H44.19C34.3266 483.712 24.8672 479.794 17.8927 472.819C10.9182 465.845 7 456.385 7 446.522L7 293.546C7 283.683 10.9182 274.223 17.8927 267.249C24.8672 260.274 34.3266 256.356 44.19 256.356H197.166C207.029 256.356 216.489 260.274 223.463 267.249C230.438 274.223 234.356 283.683 234.356 293.546V446.522C234.356 451.406 233.394 456.242 231.525 460.754C229.656 465.266 226.917 469.366 223.464 472.82C220.01 476.273 215.91 479.012 211.398 480.881C206.886 482.75 202.05 483.712 197.166 483.712Z" fill="#FFD6DC"/>
<path d="M332.342 472.819L224.172 364.649C220.719 361.196 217.979 357.096 216.11 352.584C214.241 348.072 213.279 343.236 213.279 338.352C213.279 333.468 214.241 328.632 216.11 324.12C217.979 319.608 220.719 315.508 224.172 312.055L332.343 203.884C335.796 200.431 339.896 197.691 344.408 195.822C348.92 193.953 353.756 192.991 358.64 192.991C363.524 192.991 368.36 193.953 372.872 195.822C377.384 197.691 381.484 200.431 384.937 203.884L493.108 312.056C496.562 315.509 499.301 319.609 501.17 324.121C503.039 328.633 504.001 333.469 504.001 338.353C504.001 343.237 503.039 348.073 501.17 352.585C499.301 357.097 496.562 361.197 493.108 364.65L384.937 472.819C381.484 476.273 377.384 479.012 372.872 480.881C368.36 482.75 363.524 483.712 358.64 483.712C353.756 483.712 348.92 482.75 344.407 480.881C339.895 479.012 335.796 476.273 332.342 472.819V472.819Z" fill="#FFF18F"/>
<path d="M71.746 330.569C135.554 358.424 190.504 405.163 231.046 461.844C233.227 457.031 234.352 451.806 234.346 446.522V293.546C234.346 283.683 230.428 274.223 223.453 267.249C216.479 260.274 207.019 256.356 197.156 256.356H44.19C39.3061 256.356 34.47 257.318 29.9578 259.187C25.4457 261.056 21.3458 263.795 17.8924 267.248C14.439 270.702 11.6996 274.802 9.83065 279.314C7.96173 283.826 6.99987 288.662 7 293.546L7 310.533C29.372 314.333 50.845 321.445 71.746 330.569Z" fill="#FFBFCA"/>
<path d="M392.557 383.197C375.338 362.036 360.057 339.369 346.9 315.469C333.362 290.514 321.824 263.969 314.78 236.416C313.753 232.398 312.824 228.339 311.993 224.238L224.171 312.056C217.197 319.03 213.279 328.49 213.279 338.353C213.279 348.216 217.197 357.676 224.171 364.65L332.342 472.82C339.317 479.794 348.776 483.712 358.639 483.712C368.502 483.712 377.962 479.794 384.936 472.82L432.73 425.026C418.062 412.369 404.612 398.365 392.557 383.197V383.197Z" fill="#FFDE83"/>
<path d="M135.17 423V328.9H115.595C114 338.465 103.995 346.44 89.9302 346.585V361.81H112.4V423H135.17Z" fill="#FF7591"/>
<path d="M100.632 344.78C108.91 341.88 114.444 335.801 115.597 328.896H135.17V366.316C124.06 358.511 112.53 351.321 100.632 344.78V344.78Z" fill="#FE5B70"/>
<path d="M344.65 340.25C343.001 339.256 341.508 338.026 340.216 336.599C335.085 330.901 334.26 323.618 340.697 317.822C346.818 312.311 353.299 313.354 357.195 317.681C361.28 322.219 361.735 326.968 359.204 334.98L353.906 351.591C347.907 370.183 353.628 383.755 364.937 396.314L416.963 349.469L404.421 335.54L372.763 364.045C371.906 361.183 372.36 358.292 373.225 355.221L379.269 335.83C383.372 322.773 381.566 311.215 373.584 302.351C362.562 290.109 343.637 288.615 327.914 302.772C311.45 317.596 312.151 336.838 323.173 349.079C324.879 351.016 326.814 352.738 328.937 354.207L344.65 340.25Z" fill="#FFBE6B"/>
<path d="M353.908 351.594L358.873 336.023C363.305 343.141 367.941 350.125 372.778 356.975C372.156 359.289 372.15 361.725 372.76 364.043L375.839 361.272C379.505 366.36 383.268 371.38 387.128 376.333L364.938 396.314C353.63 383.754 347.908 370.184 353.908 351.594ZM323.171 349.079C312.151 336.835 311.449 317.595 327.913 302.772C330.686 300.247 333.779 298.097 337.113 296.379C340.06 302.503 343.146 308.542 346.369 314.496C344.252 315.163 342.313 316.299 340.695 317.819C334.258 323.619 335.082 330.897 340.214 336.596C341.505 338.025 342.999 339.254 344.648 340.248L328.936 354.205C326.814 352.736 324.878 351.015 323.171 349.08V349.079Z" fill="#FFAA3E"/>
<path d="M111.887 145.674C114.449 144.327 117.288 143.593 120.181 143.529C126.759 143.529 133.623 147.247 133.623 156.113C133.623 162.977 128.475 168.84 119.752 168.84C111.029 168.84 105.166 162.4 104.88 154.254L83.144 158.254C84.574 174.131 98.3 188 119.895 188C142.775 188 156.36 173.13 156.36 156.685C156.36 140.812 144.634 129.372 130.334 128.371L153.214 110.639V93.1931H86.29V112.069H125.043L102.163 130.8L111.887 145.674Z" fill="#BDAFF2"/>
</svg>
