<svg width="512" height="512" viewBox="0 0 512 512" fill="none" xmlns="http://www.w3.org/2000/svg">
<path d="M138.28 204.051L187.885 195.305V385.063L138.28 393.809V204.051Z" fill="#8EAFE2"/>
<path d="M138.28 234.875L187.885 226.129V195.3L138.28 204.046V234.875Z" fill="#6A96D7"/>
<path d="M371.199 162.98L420.808 154.234V343.992L371.199 352.738V162.98Z" fill="#8EAFE2"/>
<path d="M375.726 73.52L170.026 109.79C161.132 111.358 153.075 116.011 147.27 122.929C141.465 129.848 138.284 138.591 138.284 147.622V204.056L420.815 154.236V111.352C420.815 105.742 419.587 100.2 417.216 95.116C414.845 90.0317 411.39 85.5283 407.092 81.9225C402.795 78.3167 397.759 75.6958 392.341 74.2442C386.922 72.7925 381.251 72.5454 375.726 73.52Z" fill="#6FCE91"/>
<path d="M371.199 193.8L420.808 185.054V154.234L371.199 162.98V193.8Z" fill="#6A96D7"/>
<path d="M187.886 385.063C187.886 421.493 151.277 457.477 106.116 465.442C60.9552 473.407 24.3462 450.329 24.3462 413.899C24.3462 377.469 60.9552 341.485 106.116 333.52C151.277 325.555 187.886 348.633 187.886 385.063Z" fill="#A3DEFE"/>
<path d="M420.812 343.992C420.812 380.422 384.203 416.406 339.042 424.371C293.881 432.336 257.269 409.258 257.269 372.828C257.269 336.398 293.878 300.41 339.042 292.449C384.206 284.488 420.812 307.563 420.812 343.992Z" fill="#A3DEFE"/>
<path d="M245.479 501.121C243.997 501.12 242.548 500.679 241.316 499.855C240.084 499.031 239.123 497.86 238.556 496.49C237.989 495.121 237.841 493.614 238.13 492.16C238.418 490.706 239.132 489.37 240.179 488.321L264.148 464.352C265.563 462.986 267.457 462.23 269.424 462.247C271.39 462.264 273.271 463.053 274.662 464.443C276.052 465.834 276.841 467.715 276.858 469.681C276.875 471.648 276.119 473.542 274.753 474.957L250.784 498.926C250.088 499.624 249.261 500.177 248.351 500.553C247.441 500.93 246.465 501.123 245.479 501.121Z" fill="#8EAFE2"/>
<path d="M269.444 501.121C268.459 501.121 267.484 500.927 266.575 500.549C265.665 500.172 264.839 499.619 264.144 498.921L240.179 474.952C238.813 473.537 238.057 471.643 238.074 469.676C238.091 467.71 238.88 465.829 240.27 464.438C241.661 463.048 243.542 462.259 245.509 462.242C247.475 462.225 249.37 462.981 250.784 464.347L274.749 488.32C275.797 489.369 276.51 490.705 276.799 492.159C277.088 493.613 276.939 495.12 276.372 496.489C275.805 497.859 274.845 499.03 273.612 499.854C272.38 500.678 270.931 501.119 269.449 501.12L269.444 501.121Z" fill="#8EAFE2"/>
<path d="M312.499 49.609C311.017 49.6077 309.568 49.1671 308.336 48.3429C307.104 47.5187 306.143 46.3479 305.576 44.9782C305.009 43.6086 304.861 42.1016 305.15 40.6476C305.438 39.1936 306.152 37.8579 307.199 36.809L331.163 12.84C332.576 11.4669 334.473 10.705 336.444 10.7191C338.414 10.7332 340.3 11.5222 341.693 12.9154C343.086 14.3086 343.875 16.1942 343.89 18.1645C343.904 20.1349 343.142 22.0317 341.769 23.445L317.799 47.41C317.104 48.1079 316.278 48.6614 315.369 49.0388C314.459 49.4162 313.484 49.61 312.499 49.609Z" fill="#B49CDC"/>
<path d="M336.468 49.609C335.483 49.6103 334.508 49.4165 333.598 49.0389C332.688 48.6613 331.862 48.1074 331.168 47.409L307.199 23.445C305.857 22.0264 305.12 20.1402 305.147 18.1874C305.174 16.2346 305.961 14.3692 307.342 12.9879C308.723 11.6066 310.588 10.8183 312.54 10.7907C314.493 10.7631 316.38 11.4983 317.799 12.84L341.769 36.8C342.817 37.8489 343.53 39.1846 343.819 40.6386C344.107 42.0926 343.959 43.5996 343.392 44.9692C342.825 46.3389 341.864 47.5097 340.632 48.3339C339.4 49.1581 337.951 49.5987 336.469 49.6L336.468 49.609Z" fill="#B49CDC"/>
<path d="M51.4402 204.441C49.9578 204.44 48.509 203.999 47.2769 203.175C46.0447 202.351 45.0844 201.18 44.5173 199.81C43.9502 198.441 43.8017 196.934 44.0905 195.48C44.3794 194.026 45.0926 192.69 46.1402 191.641L70.1052 167.676C71.5197 166.31 73.4142 165.554 75.3807 165.571C77.3472 165.588 79.2283 166.377 80.6188 167.767C82.0094 169.158 82.7981 171.039 82.8152 173.005C82.8323 174.972 82.0764 176.866 80.7102 178.281L56.7452 202.242C56.0495 202.94 55.2226 203.494 54.3122 203.871C53.4018 204.249 52.4257 204.442 51.4402 204.441Z" fill="#EFD176"/>
<path d="M75.409 204.441C74.424 204.443 73.4485 204.249 72.5387 203.872C71.629 203.494 70.8032 202.94 70.109 202.241L46.14 178.277C44.7738 176.862 44.0179 174.968 44.035 173.001C44.052 171.035 44.8408 169.154 46.2314 167.763C47.6219 166.373 49.503 165.584 51.4695 165.567C53.436 165.55 55.3305 166.306 56.745 167.672L80.714 191.637C81.7616 192.686 82.4748 194.022 82.7637 195.476C83.0525 196.93 82.904 198.437 82.3369 199.806C81.7698 201.176 80.8095 202.347 79.5773 203.171C78.3452 203.995 76.8964 204.436 75.414 204.437L75.409 204.441Z" fill="#EFD176"/>
<path d="M476.452 322.8C474.463 322.8 472.555 322.01 471.149 320.603C469.742 319.197 468.952 317.289 468.952 315.3V281.41C468.952 279.421 469.742 277.513 471.149 276.107C472.555 274.7 474.463 273.91 476.452 273.91C478.441 273.91 480.349 274.7 481.755 276.107C483.162 277.513 483.952 279.421 483.952 281.41V315.3C483.952 317.289 483.162 319.197 481.755 320.603C480.349 322.01 478.441 322.8 476.452 322.8Z" fill="#EFD176"/>
<path d="M493.399 305.855H459.507C457.518 305.855 455.611 305.065 454.204 303.658C452.798 302.252 452.007 300.344 452.007 298.355C452.007 296.366 452.798 294.458 454.204 293.052C455.611 291.645 457.518 290.855 459.507 290.855H493.399C495.388 290.855 497.296 291.645 498.703 293.052C500.109 294.458 500.899 296.366 500.899 298.355C500.899 300.344 500.109 302.252 498.703 303.658C497.296 305.065 495.388 305.855 493.399 305.855Z" fill="#EFD176"/>
<path d="M412.913 452.75L404.64 429.477C404.154 428.111 404.009 426.648 404.216 425.213C404.423 423.778 404.977 422.416 405.829 421.243C406.68 420.07 407.805 419.122 409.106 418.482C410.406 417.841 411.843 417.527 413.292 417.567L437.983 418.247C440.035 418.306 442.045 417.653 443.671 416.399L463.245 401.337C464.394 400.453 465.741 399.862 467.17 399.616C468.599 399.369 470.066 399.475 471.444 399.923C472.823 400.371 474.072 401.148 475.083 402.188C476.093 403.227 476.836 404.497 477.245 405.888L484.229 429.579C484.811 431.547 486.053 433.254 487.745 434.415L508.12 448.38C509.316 449.2 510.294 450.298 510.97 451.581C511.646 452.864 511.999 454.292 511.999 455.741C511.999 457.191 511.646 458.619 510.97 459.902C510.294 461.185 509.316 462.283 508.12 463.103L487.745 477.068C486.053 478.229 484.811 479.936 484.229 481.904L477.245 505.604C476.835 506.994 476.093 508.264 475.082 509.303C474.071 510.342 472.822 511.119 471.443 511.567C470.065 512.014 468.598 512.12 467.169 511.873C465.741 511.626 464.394 511.035 463.245 510.151L443.671 495.089C442.043 493.839 440.036 493.187 437.984 493.241L413.293 493.921C411.843 493.962 410.404 493.648 409.102 493.007C407.8 492.366 406.674 491.417 405.822 490.243C404.97 489.069 404.416 487.704 404.21 486.268C404.005 484.831 404.152 483.367 404.64 482L412.913 458.727C413.604 456.794 413.604 454.682 412.913 452.75Z" fill="#B49CDC"/>
<path d="M477.249 505.594L479.776 497.02C457.589 479.969 446.241 442.09 445.976 414.629L443.676 416.399C442.048 417.649 440.04 418.301 437.989 418.247L413.298 417.567C411.849 417.527 410.412 417.841 409.111 418.481C407.811 419.122 406.686 420.069 405.834 421.242C404.982 422.415 404.428 423.778 404.221 425.213C404.014 426.648 404.16 428.111 404.646 429.477L412.919 452.75C413.61 454.683 413.61 456.797 412.919 458.73L404.64 482C404.154 483.366 404.008 484.829 404.215 486.264C404.422 487.699 404.976 489.062 405.828 490.235C406.68 491.408 407.805 492.355 409.105 492.996C410.406 493.636 411.843 493.95 413.292 493.91L437.983 493.23C440.035 493.174 442.044 493.826 443.671 495.078L463.245 510.141C464.394 511.025 465.741 511.616 467.17 511.863C468.599 512.11 470.066 512.005 471.445 511.557C472.824 511.109 474.073 510.332 475.085 509.293C476.096 508.254 476.839 506.985 477.249 505.594Z" fill="#908CD6"/>
<path d="M36.0341 31.215L48.1121 5.79999C48.821 4.30845 49.8828 3.01215 51.2055 2.02327C52.5282 1.0344 54.0719 0.382749 55.7031 0.124723C57.3342 -0.133304 59.0037 0.0100657 60.567 0.542424C62.1303 1.07478 63.5404 1.98009 64.6751 3.18L84.0191 23.617C85.6274 25.3143 87.7707 26.4067 90.0891 26.711L117.989 30.344C119.627 30.5581 121.187 31.1678 122.536 32.1204C123.885 33.0731 124.982 34.3399 125.732 35.8114C126.481 37.283 126.861 38.9149 126.839 40.5662C126.816 42.2175 126.392 43.8385 125.602 45.289L112.144 70C111.028 72.0548 110.651 74.4308 111.078 76.73L116.242 104.39C116.545 106.013 116.449 107.685 115.96 109.263C115.472 110.84 114.606 112.274 113.439 113.442C112.271 114.609 110.837 115.475 109.26 115.963C107.683 116.452 106.01 116.548 104.387 116.245L76.7271 111.081C74.4287 110.654 72.0536 111.03 69.9991 112.145L45.2881 125.605C43.8376 126.395 42.2166 126.819 40.5653 126.842C38.914 126.864 37.282 126.484 35.8105 125.735C34.339 124.985 33.0721 123.888 32.1195 122.539C31.1669 121.19 30.5572 119.63 30.3431 117.992L26.7101 90.092C26.4066 87.7733 25.314 85.6299 23.6161 84.022L3.17908 64.676C1.97962 63.5411 1.07472 62.131 0.54264 60.5678C0.0105608 59.0046 -0.132673 57.3352 0.125327 55.7042C0.383327 54.0732 1.03479 52.5296 2.02338 51.2069C3.01196 49.8842 4.30789 48.8223 5.79908 48.113L31.2091 36.031C33.3241 35.0293 35.0284 33.3281 36.0341 31.215Z" fill="#EDA1AB"/>
<path d="M69.9991 112.145C72.0533 111.027 74.4299 110.65 76.7291 111.079L104.385 116.243C106.387 116.621 108.456 116.387 110.322 115.572C112.189 114.756 113.767 113.398 114.85 111.673C61.8941 94.98 45.9871 42.813 48.9091 4.43799C48.6059 4.87128 48.3384 5.32844 48.1091 5.80499L36.0341 31.215C35.0297 33.3273 33.3272 35.0283 31.2141 36.031L5.79908 48.113C4.30789 48.8223 3.01196 49.8842 2.02338 51.2069C1.03479 52.5296 0.383327 54.0732 0.125327 55.7042C-0.132673 57.3352 0.0105608 59.0045 0.54264 60.5678C1.07472 62.131 1.97962 63.5411 3.17908 64.676L23.6161 84.02C25.315 85.6266 26.4066 87.7709 26.7061 90.09L30.3431 117.99C30.5569 119.627 31.1662 121.188 32.1183 122.537C33.0704 123.886 34.3368 124.983 35.8078 125.733C37.2789 126.483 38.9105 126.863 40.5615 126.841C42.2126 126.819 43.8335 126.396 45.2841 125.607L69.9991 112.145Z" fill="#E26E7E"/>
<path d="M164.94 434.9C80.2403 447.8 69.5573 371.173 83.4243 340.111C49.3083 354.066 24.3433 383.824 24.3433 413.9C24.3433 450.33 60.9563 473.4 106.116 465.443C128.384 461.509 148.912 450.85 164.94 434.9Z" fill="#7ACEFA"/>
<path d="M397.862 393.832C313.162 406.732 302.483 330.105 316.346 299.043C282.229 313 257.269 342.754 257.269 372.828C257.269 409.258 293.878 432.328 339.039 424.371C361.306 420.439 381.834 409.782 397.862 393.832Z" fill="#7ACEFA"/>
</svg>
