<svg width="512" height="512" viewBox="0 0 512 512" fill="none" xmlns="http://www.w3.org/2000/svg">
<path d="M256 427.542C251.016 427.542 246.237 425.562 242.712 422.039C239.188 418.515 237.207 413.736 237.206 408.752V49.7939C237.188 47.3144 237.661 44.8557 238.597 42.5597C239.533 40.2637 240.915 38.1757 242.662 36.416C244.409 34.6563 246.487 33.2596 248.776 32.3065C251.065 31.3535 253.52 30.8628 256 30.8628C258.479 30.8628 260.934 31.3535 263.223 32.3065C265.512 33.2596 267.59 34.6563 269.337 36.416C271.084 38.1757 272.466 40.2637 273.402 42.5597C274.338 44.8557 274.811 47.3144 274.793 49.7939V408.752C274.792 413.736 272.812 418.515 269.288 422.039C265.763 425.562 260.984 427.542 256 427.542Z" fill="#C86D5C"/>
<path d="M379.314 378.678H59.8762L35.8862 391.364C42.3346 407.619 50.3702 423.199 59.8762 437.878L94.9072 454.478H343.607L382.165 437.878C392.786 423.163 402.188 407.607 410.28 391.364L379.314 378.678Z" fill="#C86D5C"/>
<path d="M436.458 303.505V319C430.555 344.051 421.77 368.334 410.279 391.364H35.886C22.12 357.019 18.793 329.816 18.793 329.816V311.022H140.01L167.26 347.669H310.089L347.676 319L436.458 303.505Z" fill="#B35948"/>
<path d="M382.164 437.878C375.298 447.42 367.886 456.556 359.964 465.242C355.379 470.245 349.803 474.238 343.591 476.969C337.379 479.7 330.667 481.108 323.881 481.104H116.923C110.014 481.098 103.184 479.634 96.88 476.807C90.576 473.979 84.9401 469.853 80.341 464.697C72.8527 456.286 66.0112 447.321 59.875 437.879H382.163L382.164 437.878Z" fill="#B35948"/>
<path d="M237.206 123.963V303.783C243.317 303.523 249.584 303.375 256 303.375C262.416 303.375 268.7 303.535 274.793 303.823V123.963L256 121.852L237.206 123.963Z" fill="#B35948"/>
<path d="M88.835 109.933C88.835 109.933 139.77 190.745 88.835 311.022L123.723 292.228C123.723 292.228 175.911 272.469 256 272.469C336.089 272.469 393.64 294.997 393.64 294.997L423.165 311.021C474.1 190.743 423.165 109.932 423.165 109.932L256 91.1396L88.835 109.933Z" fill="#3A484A"/>
<path d="M321.206 193.7C321.206 177.294 314.689 161.561 303.089 149.96C291.488 138.36 275.755 131.843 259.349 131.843C242.944 131.843 227.21 138.36 215.61 149.96C204.009 161.561 197.492 177.294 197.492 193.7C197.492 213.082 206.411 222.847 220.363 227.673V238.004C220.363 240.589 221.39 243.068 223.218 244.896C225.046 246.724 227.525 247.751 230.11 247.751C232.695 247.751 235.174 246.724 237.002 244.896C238.83 243.068 239.857 240.589 239.857 238.004C239.857 240.589 240.884 243.068 242.712 244.896C244.54 246.724 247.019 247.751 249.604 247.751C252.189 247.751 254.668 246.724 256.496 244.896C258.324 243.068 259.351 240.589 259.351 238.004C259.351 240.589 260.378 243.068 262.206 244.896C264.034 246.724 266.513 247.751 269.098 247.751C271.683 247.751 274.162 246.724 275.99 244.896C277.818 243.068 278.845 240.589 278.845 238.004C278.845 240.589 279.872 243.068 281.7 244.896C283.528 246.724 286.007 247.751 288.592 247.751C291.177 247.751 293.656 246.724 295.484 244.896C297.312 243.068 298.339 240.589 298.339 238.004V227.673C312.286 222.847 321.206 213.082 321.206 193.7Z" fill="#EFEDEE"/>
<path d="M226.6 215.918C224.551 215.918 222.586 215.104 221.137 213.655C219.688 212.206 218.874 210.241 218.874 208.192V202.265C218.874 200.216 219.688 198.251 221.137 196.802C222.586 195.353 224.551 194.539 226.6 194.539C228.649 194.539 230.614 195.353 232.063 196.802C233.512 198.251 234.326 200.216 234.326 202.265V208.192C234.326 210.241 233.512 212.206 232.063 213.655C230.614 215.104 228.649 215.918 226.6 215.918Z" fill="#3A484A"/>
<path d="M292.1 215.918C290.051 215.918 288.086 215.104 286.637 213.655C285.188 212.206 284.374 210.241 284.374 208.192V202.265C284.374 200.216 285.188 198.251 286.637 196.802C288.086 195.353 290.051 194.539 292.1 194.539C294.149 194.539 296.114 195.353 297.563 196.802C299.012 198.251 299.826 200.216 299.826 202.265V208.192C299.826 209.207 299.627 210.212 299.238 211.149C298.85 212.086 298.281 212.938 297.564 213.656C296.846 214.373 295.994 214.942 295.057 215.33C294.119 215.719 293.115 215.918 292.1 215.918Z" fill="#3A484A"/>
<path d="M423.164 109.933H88.835C83.8505 109.933 79.0702 107.953 75.5456 104.428C72.0211 100.904 70.041 96.1232 70.041 91.1387C70.041 86.1542 72.0211 81.3739 75.5456 77.8494C79.0702 74.3248 83.8505 72.3447 88.835 72.3447H423.165C428.15 72.3447 432.93 74.3248 436.454 77.8494C439.979 81.3739 441.959 86.1542 441.959 91.1387C441.959 96.1232 439.979 100.904 436.454 104.428C432.93 107.953 428.15 109.933 423.165 109.933H423.164Z" fill="#C86D5C"/>
<path d="M511.439 281.125C510.955 279.579 510.172 278.143 509.134 276.9C508.095 275.657 506.822 274.631 505.387 273.879C503.952 273.128 502.383 272.667 500.769 272.522C499.156 272.378 497.53 272.552 495.984 273.036L495.506 273.185C448.038 287.945 398.863 296.51 349.2 298.668L349.069 298.674C343.479 298.918 338.454 299.338 333.919 303.038L303.398 327.938H173.238L160.579 302.619C159.015 299.5 156.615 296.876 153.647 295.042C150.679 293.208 147.259 292.234 143.77 292.231H18.794C16.326 292.231 13.8822 292.717 11.602 293.662C9.3219 294.606 7.25012 295.99 5.50498 297.736C3.75984 299.481 2.37552 301.552 1.43106 303.833C0.486596 306.113 0.000488281 308.557 0.000488281 311.025C0.000488281 313.493 0.486596 315.936 1.43106 318.216C2.37552 320.497 3.75984 322.568 5.50498 324.314C7.25012 326.059 9.3219 327.443 11.602 328.387C13.8822 329.332 16.326 329.818 18.794 329.818H132.155L144.814 355.137C146.378 358.256 148.778 360.88 151.746 362.714C154.714 364.548 158.134 365.522 161.623 365.525H310.091C314.42 365.527 318.617 364.032 321.971 361.294L353.52 335.552C358.203 334.918 362.879 334.239 367.547 333.515C414.627 326.18 460.12 314.155 504.304 296.235C507.165 295.062 509.484 292.861 510.804 290.065C512.125 287.269 512.351 284.08 511.439 281.125Z" fill="#E3B098"/>
<path d="M274.795 49.7891H237.209V72.1551H274.795V49.7891Z" fill="#B35948"/>
</svg>
