<svg width="512" height="512" viewBox="0 0 512 512" fill="none" xmlns="http://www.w3.org/2000/svg">
<path d="M498.3 475.755C500.149 475.755 501.974 475.34 503.641 474.541C505.308 473.741 506.774 472.578 507.931 471.136C509.089 469.694 509.907 468.011 510.327 466.211C510.747 464.411 510.758 462.539 510.358 460.734C506.659 444.185 496.984 429.582 483.187 419.722C469.39 409.862 452.44 405.439 435.585 407.3C418.729 409.16 403.153 417.173 391.838 429.805C380.523 442.436 374.266 458.797 374.265 475.755H498.3Z" fill="#5EC08B"/>
<path d="M284.5 283.6C352.597 283.6 407.8 228.397 407.8 160.3C407.8 92.2033 352.597 37 284.5 37C216.403 37 161.2 92.2033 161.2 160.3C161.2 228.397 216.403 283.6 284.5 283.6Z" fill="#5EC08B"/>
<path d="M392.81 395.12H130.15V475.76H392.81V395.12Z" fill="#81D4AE"/>
<path d="M199.337 104.18C178.106 104.18 157.084 108.362 137.469 116.487C117.855 124.611 100.032 136.52 85.0202 151.532C70.0079 166.545 58.0996 184.367 49.9751 203.982C41.8505 223.596 37.669 244.619 37.6691 265.85V265.896C37.6675 267.29 37.3797 268.668 36.8236 269.946C36.2675 271.224 35.4549 272.374 34.4361 273.325C22.0033 285.015 13.9134 300.585 11.494 317.478C9.07466 334.372 12.4695 351.586 21.1214 366.296C29.7734 381.006 43.1686 392.339 59.1089 398.433C75.0493 404.528 92.588 405.024 108.847 399.839C133.167 416.258 161.497 425.749 190.8 427.295C220.103 428.841 249.275 422.383 275.187 408.614C301.1 394.845 322.777 374.284 337.896 349.135C353.014 323.985 361.003 295.196 361.007 265.852C361.008 176.648 288.541 104.18 199.337 104.18Z" fill="#81D4AE"/>
<path d="M143.745 225.637C152.232 234.124 155.468 246.045 156.677 254.808C156.881 256.294 156.738 257.806 156.26 259.228C155.782 260.649 154.981 261.94 153.921 263C152.86 264.061 151.569 264.861 150.148 265.34C148.727 265.818 147.214 265.961 145.728 265.757C136.966 264.548 125.044 261.312 116.557 252.825C108.07 244.338 104.834 232.416 103.625 223.654C103.422 222.168 103.564 220.656 104.043 219.235C104.521 217.813 105.321 216.522 106.382 215.462C107.442 214.401 108.733 213.601 110.155 213.122C111.576 212.644 113.089 212.501 114.574 212.705C123.337 213.915 135.259 217.15 143.745 225.637Z" fill="#5EC08B"/>
<path d="M229.414 177.258C237.901 168.771 249.822 165.535 258.585 164.326C260.071 164.122 261.584 164.265 263.006 164.744C264.428 165.222 265.719 166.023 266.78 167.084C267.84 168.145 268.641 169.437 269.119 170.859C269.596 172.281 269.739 173.794 269.534 175.28C268.325 184.042 265.089 195.964 256.602 204.451C248.115 212.938 236.193 216.169 227.431 217.38C225.946 217.584 224.433 217.441 223.012 216.963C221.59 216.484 220.299 215.684 219.239 214.623C218.178 213.563 217.378 212.272 216.9 210.851C216.421 209.429 216.278 207.917 216.482 206.431C217.692 197.667 220.927 185.745 229.414 177.258Z" fill="#5EC08B"/>
<path opacity="0.05" d="M99.788 349.092C73.1736 349.05 47.2285 357.431 25.668 373.035C35.0054 385.62 48.0445 394.969 62.9599 399.775C77.8753 404.581 93.9201 404.602 108.848 399.835C135.555 417.923 167.083 427.567 199.339 427.515C205.092 427.514 210.84 427.209 216.561 426.601C206.882 403.626 190.639 384.017 169.868 370.23C149.096 356.442 124.719 349.09 99.788 349.092Z" fill="black"/>
<path d="M252.676 475.755C252.674 443.34 240.245 412.159 217.948 388.63C195.65 365.102 165.181 351.018 132.812 349.276C100.444 347.535 68.6393 358.269 43.946 379.269C19.2527 400.268 3.54985 429.936 0.0700252 462.164C-0.106621 463.882 0.0796857 465.618 0.616872 467.26C1.15406 468.901 2.03014 470.412 3.18835 471.693C4.34655 472.974 5.76105 473.998 7.34017 474.698C8.91929 475.398 10.6278 475.758 12.355 475.755H252.676Z" fill="#5EC08B"/>
<path opacity="0.1" d="M252.676 475.755C252.674 443.34 240.245 412.159 217.948 388.63C195.65 365.102 165.181 351.018 132.812 349.276C100.444 347.535 68.6393 358.269 43.946 379.269C19.2527 400.268 3.54985 429.936 0.0700252 462.164C-0.106621 463.882 0.0796857 465.618 0.616872 467.26C1.15406 468.901 2.03014 470.412 3.18835 471.693C4.34655 472.974 5.76105 473.998 7.34017 474.698C8.91929 475.398 10.6278 475.758 12.355 475.755H252.676Z" fill="black"/>
<path d="M457.352 317.87H395.51V475.75H457.352V317.87Z" fill="#9B7E73"/>
<path opacity="0.1" d="M381.652 84.374C347.993 110.662 321.84 202.648 316.1 279.501C335.816 274.271 353.927 264.232 368.81 250.283C383.693 236.334 394.884 218.912 401.379 199.576C407.875 180.24 409.473 159.595 406.03 139.489C402.588 119.384 394.211 100.447 381.652 84.374Z" fill="black"/>
<path d="M426.434 77.0229C473.691 77.0229 512 215.802 512 309.55C512 332.243 502.985 354.008 486.938 370.054C470.892 386.101 449.128 395.116 426.434 395.116C403.741 395.116 381.977 386.101 365.93 370.054C349.883 354.008 340.868 332.243 340.868 309.55C340.868 215.802 379.177 77.0229 426.434 77.0229Z" fill="#81D4AE"/>
<path d="M397.933 257.043H125.028C121.235 257.043 117.598 258.55 114.916 261.231C112.235 263.913 110.728 267.55 110.728 271.343V304.11C110.728 307.903 112.235 311.54 114.916 314.222C117.598 316.903 121.235 318.41 125.028 318.41H397.928C401.721 318.41 405.358 316.903 408.04 314.222C410.721 311.54 412.228 307.903 412.228 304.11V271.342C412.228 267.55 410.722 263.914 408.041 261.233C405.36 258.551 401.725 257.044 397.933 257.043Z" fill="white"/>
<path d="M397.933 318.409H125.028C121.235 318.409 117.598 319.916 114.916 322.597C112.235 325.279 110.728 328.916 110.728 332.709V365.48C110.728 369.273 112.235 372.91 114.916 375.592C117.598 378.273 121.235 379.78 125.028 379.78H397.928C401.721 379.78 405.358 378.273 408.04 375.592C410.721 372.91 412.228 369.273 412.228 365.48V332.708C412.228 328.916 410.722 325.28 408.041 322.599C405.36 319.917 401.725 318.41 397.933 318.409Z" fill="white"/>
<path opacity="0.1" d="M397.933 318.409H125.028C121.235 318.409 117.598 319.916 114.916 322.597C112.235 325.279 110.728 328.916 110.728 332.709V365.48C110.728 369.273 112.235 372.91 114.916 375.592C117.598 378.273 121.235 379.78 125.028 379.78H397.928C401.721 379.78 405.358 378.273 408.04 375.592C410.721 372.91 412.228 369.273 412.228 365.48V332.708C412.228 328.916 410.722 325.28 408.041 322.599C405.36 319.917 401.725 318.41 397.933 318.409Z" fill="black"/>
<path opacity="0.1" d="M133.752 365.48V332.708C133.752 328.915 135.259 325.278 137.94 322.596C140.622 319.915 144.259 318.408 148.052 318.408H125.027C121.234 318.408 117.597 319.915 114.915 322.596C112.234 325.278 110.727 328.915 110.727 332.708V365.48C110.727 369.273 112.234 372.91 114.915 375.592C117.597 378.273 121.234 379.78 125.027 379.78H148.051C144.259 379.78 140.622 378.273 137.94 375.591C135.259 372.909 133.752 369.272 133.752 365.48Z" fill="black"/>
<path opacity="0.1" d="M133.752 304.11V271.343C133.752 267.55 135.259 263.913 137.94 261.231C140.622 258.55 144.259 257.043 148.052 257.043H125.027C121.234 257.043 117.597 258.55 114.915 261.231C112.234 263.913 110.727 267.55 110.727 271.343V304.11C110.727 307.903 112.234 311.54 114.915 314.222C117.597 316.903 121.234 318.41 125.027 318.41H148.051C144.259 318.41 140.622 316.903 137.94 314.221C135.259 311.54 133.752 307.902 133.752 304.11Z" fill="black"/>
<path d="M433.464 379.774H89.4998C87.5515 379.774 85.6829 380.548 84.3051 381.925C82.9273 383.303 82.1531 385.172 82.1528 387.12V403.11C82.1528 404.075 82.3429 405.03 82.7121 405.921C83.0813 406.813 83.6225 407.623 84.3048 408.305C84.987 408.987 85.797 409.528 86.6883 409.897C87.5797 410.266 88.5351 410.456 89.4998 410.456H433.464C435.412 410.456 437.281 409.682 438.658 408.304C440.036 406.927 440.81 405.058 440.81 403.11V387.12C440.81 386.155 440.62 385.2 440.251 384.309C439.882 383.417 439.34 382.608 438.658 381.926C437.976 381.243 437.166 380.702 436.275 380.333C435.384 379.964 434.428 379.774 433.464 379.774Z" fill="white"/>
<path opacity="0.1" d="M110.729 403.11V387.12C110.729 386.155 110.919 385.2 111.288 384.309C111.657 383.417 112.198 382.608 112.88 381.926C113.563 381.243 114.372 380.702 115.264 380.333C116.155 379.964 117.11 379.774 118.075 379.774H89.4998C87.5515 379.774 85.6829 380.548 84.3051 381.925C82.9273 383.303 82.1531 385.172 82.1528 387.12V403.11C82.1528 404.075 82.3429 405.03 82.7121 405.921C83.0813 406.813 83.6225 407.623 84.3048 408.305C84.987 408.987 85.797 409.528 86.6883 409.897C87.5797 410.266 88.5351 410.456 89.4998 410.456H118.078C117.113 410.456 116.157 410.267 115.266 409.898C114.374 409.529 113.564 408.988 112.881 408.306C112.199 407.623 111.657 406.813 111.288 405.922C110.919 405.03 110.729 404.075 110.729 403.11Z" fill="black"/>
<path d="M140.43 475.755H119.873C118.249 475.755 116.691 475.11 115.542 473.961C114.393 472.812 113.748 471.254 113.748 469.63V410.457H146.555V469.63C146.555 471.254 145.91 472.812 144.761 473.961C143.612 475.11 142.054 475.755 140.43 475.755Z" fill="white"/>
<path opacity="0.15" d="M146.557 410.46H113.75V427.52H146.557V410.46Z" fill="black"/>
<path d="M382.531 475.755H403.088C404.713 475.755 406.271 475.11 407.419 473.961C408.568 472.812 409.213 471.254 409.213 469.63V410.457H376.406V469.63C376.406 471.254 377.052 472.812 378.2 473.961C379.349 475.11 380.907 475.755 382.531 475.755Z" fill="white"/>
<path opacity="0.15" d="M409.217 410.46H376.41V427.52H409.217V410.46Z" fill="black"/>
<path d="M139.56 356.428C143.613 356.428 146.898 353.143 146.898 349.09C146.898 345.038 143.613 341.752 139.56 341.752C135.508 341.752 132.222 345.038 132.222 349.09C132.222 353.143 135.508 356.428 139.56 356.428Z" fill="#4A5058"/>
<path d="M383.41 356.428C387.463 356.428 390.748 353.143 390.748 349.09C390.748 345.038 387.463 341.752 383.41 341.752C379.358 341.752 376.072 345.038 376.072 349.09C376.072 353.143 379.358 356.428 383.41 356.428Z" fill="#4A5058"/>
<path d="M139.56 295.068C143.613 295.068 146.898 291.783 146.898 287.73C146.898 283.677 143.613 280.392 139.56 280.392C135.508 280.392 132.222 283.677 132.222 287.73C132.222 291.783 135.508 295.068 139.56 295.068Z" fill="#4A5058"/>
<path d="M383.41 295.068C387.463 295.068 390.748 291.783 390.748 287.73C390.748 283.677 387.463 280.392 383.41 280.392C379.358 280.392 376.072 283.677 376.072 287.73C376.072 291.783 379.358 295.068 383.41 295.068Z" fill="#4A5058"/>
<path d="M425.258 207.246C416.771 198.759 413.535 186.837 412.326 178.075C412.122 176.589 412.265 175.077 412.743 173.655C413.222 172.234 414.022 170.943 415.082 169.883C416.143 168.822 417.434 168.022 418.855 167.543C420.277 167.065 421.789 166.922 423.275 167.126C432.037 168.335 443.959 171.571 452.446 180.058C460.933 188.545 464.169 200.467 465.378 209.229C465.582 210.715 465.439 212.228 464.961 213.649C464.483 215.071 463.683 216.362 462.622 217.423C461.562 218.483 460.27 219.284 458.849 219.762C457.428 220.241 455.915 220.384 454.429 220.18C445.666 218.968 433.745 215.733 425.258 207.246Z" fill="#5EC08B"/>
</svg>
