<svg width="512" height="512" viewBox="0 0 512 512" fill="none" xmlns="http://www.w3.org/2000/svg">
<path d="M315.682 394.105L426.451 434.422C443.89 440.769 463.172 431.778 469.52 414.339L509.836 303.569C516.183 286.13 507.192 266.848 489.753 260.5L378.984 220.183C361.545 213.836 342.263 222.827 335.915 240.266L295.598 351.035C289.251 368.475 298.243 387.758 315.682 394.105Z" fill="#FDA75F"/>
<path opacity="0.1" d="M378.984 220.184C361.545 213.837 342.263 222.829 335.915 240.268L295.598 351.037C289.251 368.476 298.242 387.758 315.681 394.106L426.45 434.422C438.488 438.803 451.401 435.874 460.335 427.905V285.643C464.339 282.07 467.555 277.499 469.519 272.101L475.614 255.355L378.984 220.184Z" fill="black"/>
<path d="M311.675 223.6L422.444 263.917C439.883 270.264 459.165 261.273 465.513 243.834L505.83 133.065C512.177 115.626 503.186 96.344 485.747 89.996L374.977 49.679C357.538 43.332 338.256 52.323 331.908 69.762L291.591 180.531C285.244 197.97 294.236 217.252 311.675 223.6Z" fill="#FBE096"/>
<path opacity="0.1" d="M374.977 49.679C357.538 43.332 338.256 52.323 331.908 69.762L291.591 180.531C285.244 197.97 294.235 217.252 311.674 223.599L422.443 263.916C434.48 268.297 447.394 265.368 456.328 257.399V79.288L374.977 49.679Z" fill="black"/>
<path d="M368.87 512H30.23C15.744 512 4 500.257 4 485.77V26.23C4 11.743 15.744 0 30.23 0H368.87C404.238 0 432.91 28.672 432.91 64.04V447.96C432.91 483.328 404.238 512 368.87 512Z" fill="#ED718B"/>
<path opacity="0.1" d="M432.91 196.84H4V377.47H432.91V196.84Z" fill="black"/>
<path opacity="0.1" d="M365.726 0H306.606V512H365.726V0Z" fill="black"/>
<path d="M351.676 0H289.556V512H351.676V0Z" fill="#404B58"/>
<path opacity="0.1" d="M30.23 0C15.744 0 4 11.743 4 26.23V485.77C4 500.256 15.743 512 30.23 512H50.936V0H30.23Z" fill="black"/>
</svg>
