<svg width="512" height="512" viewBox="0 0 512 512" fill="none" xmlns="http://www.w3.org/2000/svg">
<g clip-path="url(#clip0)">
<path d="M0.0948215 237.638C4.76582 370.747 121.883 456.517 234.973 507.477C248.355 513.507 263.645 513.507 277.027 507.477C390.117 456.518 507.234 370.748 511.905 237.638C514.82 154.572 450.17 83.8309 367.056 83.1409C322.803 82.7729 283.053 102.071 256 132.812C228.947 102.07 189.198 82.7729 144.945 83.1409C61.8298 83.8319 -2.82018 154.572 0.0948215 237.638V237.638Z" fill="#E8899E"/>
<path d="M234.973 507.477C248.355 513.507 263.645 513.507 277.027 507.477C290.852 501.247 304.736 494.493 318.469 487.2C61.5378 467.091 37.1918 229.853 116.04 86.2988C47.3538 100.917 -2.47217 164.494 0.0948267 237.638C4.76483 370.748 121.883 456.518 234.973 507.477V507.477Z" fill="#E26E7E"/>
<path d="M192.644 419.927C187.189 419.927 181.65 419.797 176.005 419.529C161.596 418.842 150.473 406.605 151.159 392.196C151.846 377.787 164.087 366.676 178.492 367.35C227.14 369.669 272.93 360.012 314.585 338.648C353.678 318.598 374.842 295.389 378.688 290.94C388.122 280.028 404.615 278.828 415.529 288.262C426.441 297.696 427.641 314.19 418.207 325.102C409.541 335.127 332.055 419.927 192.644 419.927V419.927Z" fill="#E8899E"/>
<path d="M192.644 427.427C187.031 427.427 181.313 427.29 175.648 427.02C157.132 426.138 142.786 410.356 143.668 391.838C144.55 373.337 160.356 358.993 178.843 359.858C226.176 362.113 270.688 352.733 311.162 331.974C349.019 312.557 369.327 290.3 373.014 286.035C375.722 282.901 380.458 282.556 383.593 285.266C386.727 287.975 387.071 292.711 384.362 295.845C380.357 300.478 358.335 324.638 318.008 345.321C275.17 367.292 228.112 377.219 178.135 374.842C167.899 374.352 159.139 382.307 158.651 392.553C158.162 402.808 166.107 411.549 176.362 412.037C181.791 412.296 187.269 412.427 192.644 412.427C328.872 412.427 404.373 329.637 412.533 320.198C415.241 317.064 419.978 316.719 423.112 319.429C426.246 322.138 426.59 326.874 423.881 330.008C415.261 339.978 335.54 427.427 192.644 427.427V427.427Z" fill="#E26E7E"/>
<path d="M329.779 398.679C275.431 398.679 228.752 390.873 187.075 374.816C151.057 360.938 125.098 343.279 104.239 329.09C102.44 327.866 100.668 326.66 98.9188 325.477C86.9708 317.395 83.8358 301.158 91.9168 289.209C99.9968 277.261 116.236 274.124 128.185 282.207C129.972 283.415 131.782 284.647 133.622 285.898C173.272 312.871 222.618 346.441 329.779 346.441C344.204 346.441 355.898 358.135 355.898 372.56C355.898 386.985 344.204 398.679 329.779 398.679Z" fill="#E8899E"/>
<path d="M329.779 406.179C274.492 406.179 226.931 398.209 184.379 381.814C147.552 367.625 121.197 349.696 100.021 335.291C98.2259 334.069 96.4599 332.868 94.7169 331.689C91.2859 329.368 90.3869 324.705 92.7079 321.274C95.0299 317.844 99.6919 316.944 103.123 319.265C104.877 320.453 106.656 321.661 108.46 322.89C128.997 336.861 154.559 354.25 189.772 367.817C230.573 383.537 276.37 391.179 329.78 391.179C340.046 391.179 348.399 382.826 348.399 372.56C348.399 362.294 340.047 353.941 329.78 353.941C220.311 353.941 169.906 319.652 129.406 292.101L129.238 291.986C127.462 290.778 125.712 289.588 123.985 288.42C120.554 286.099 119.654 281.437 121.975 278.006C124.296 274.575 128.959 273.676 132.39 275.996C134.128 277.172 135.889 278.37 137.676 279.585L137.843 279.698C176.643 306.093 224.93 338.942 329.782 338.942C348.32 338.942 363.401 354.023 363.401 372.561C363.401 391.099 348.317 406.179 329.779 406.179V406.179Z" fill="#E26E7E"/>
<path d="M346.72 49.8837C348.228 92.8607 386.042 120.554 422.556 137.008C426.877 138.955 431.814 138.955 436.134 137.008C472.648 120.555 510.462 92.8617 511.97 49.8847C512.911 23.0647 492.038 0.224675 465.202 0.00167501C450.914 -0.117325 438.08 6.11368 429.345 16.0387C420.611 6.11268 407.776 -0.117325 393.488 0.00167501C366.653 0.224675 345.779 23.0647 346.72 49.8837V49.8837Z" fill="#E26E7E"/>
<path d="M190.059 242.932C190.006 259.89 172.699 273.584 151.404 273.517C130.109 273.45 112.889 259.649 112.942 242.69C112.995 225.731 130.301 212.038 151.597 212.105C172.891 212.172 190.112 225.974 190.059 242.932V242.932Z" fill="white"/>
<path d="M321.941 243.346C321.888 260.304 339.108 274.106 360.403 274.172C381.698 274.239 399.005 260.546 399.058 243.587C399.111 226.628 381.891 212.827 360.596 212.76C339.301 212.693 321.995 226.387 321.941 243.346V243.346Z" fill="white"/>
<path d="M287.161 219.644C287.221 200.431 273.308 198.583 256.139 198.529C238.97 198.475 225.046 200.237 224.985 219.449C224.925 238.661 238.795 254.279 255.964 254.333C273.134 254.387 287.101 238.856 287.161 219.644V219.644Z" fill="#4E5660"/>
<path d="M192.43 217.026C192.422 217.026 192.414 217.026 192.406 217.026C188.264 217.013 184.917 213.644 184.93 209.502C184.939 206.603 183.819 203.874 181.776 201.818C179.732 199.762 177.011 198.625 174.112 198.615C174.101 198.615 174.089 198.615 174.077 198.615C168.108 198.615 163.243 203.461 163.224 209.434C163.211 213.568 159.855 216.911 155.724 216.911C155.716 216.911 155.708 216.911 155.7 216.911C151.558 216.898 148.211 213.53 148.223 209.388C148.267 195.161 159.857 183.616 174.075 183.616H174.157C181.063 183.637 187.546 186.347 192.414 191.245C197.282 196.143 199.951 202.644 199.929 209.55C199.916 213.684 196.561 217.026 192.43 217.026Z" fill="#4E5660"/>
<path d="M356.486 217.54C356.478 217.54 356.47 217.54 356.462 217.54C352.32 217.527 348.973 214.159 348.985 210.017C348.994 207.118 347.874 204.39 345.83 202.333C343.787 200.277 341.065 199.139 338.166 199.13C335.232 199.113 332.538 200.241 330.481 202.284C328.425 204.327 327.288 207.05 327.278 209.949C327.265 214.083 323.909 217.426 319.779 217.426C319.771 217.426 319.763 217.426 319.755 217.426C315.613 217.413 312.266 214.045 312.278 209.903C312.3 202.997 315.009 196.513 319.907 191.646C324.785 186.798 331.253 184.131 338.128 184.131H338.213C345.118 184.152 351.602 186.862 356.469 191.76C361.337 196.658 364.006 203.159 363.984 210.064C363.973 214.197 360.617 217.54 356.486 217.54V217.54Z" fill="#4E5660"/>
</g>
<defs>
<clipPath id="clip0">
<rect width="512" height="512" fill="white"/>
</clipPath>
</defs>
</svg>
