<svg width="512" height="512" viewBox="0 0 512 512" fill="none" xmlns="http://www.w3.org/2000/svg">
<path d="M471.581 149.684L449.726 127.832L408.199 169.359L386.347 147.507L444.624 89.2301L422.769 67.3791L364.499 125.652L342.64 103.8L384.163 62.2731L362.312 40.4221L320.788 81.9451L292.167 53.3241L270.312 75.1801L298.933 103.8L277.081 125.652L240.659 89.2301L169.991 232.738L191.846 254.593L233.373 213.066L255.225 234.918L196.952 293.2L218.799 315.047L277.076 256.774L298.928 278.626L257.409 320.152L279.261 342L320.784 300.477L349.409 329.1L371.261 307.248L342.64 278.627L364.492 256.772L400.913 293.2L422.768 271.348L386.346 234.922L408.199 213.066L436.851 241.718L458.699 219.867L430.047 191.215L471.581 149.684ZM320.781 125.653L342.636 147.508L320.784 169.36L298.933 147.5L320.781 125.653ZM277.081 213.067L255.226 191.212L277.078 169.36L298.933 191.215L277.081 213.067ZM320.788 256.774L298.933 234.919L320.788 213.067L342.64 234.919L320.788 256.774ZM364.488 213.067L342.636 191.215L364.488 169.36L386.343 191.215L364.488 213.067Z" fill="#D4D4D5"/>
<path d="M466.476 45.523C398.081 -22.871 277.413 -13.086 196.952 67.379C139.444 124.887 118.038 202.93 135.475 267.75C139.641 283.419 139.608 299.908 135.378 315.56C131.149 331.211 122.872 345.473 111.381 356.91L82.5986 385.691L126.308 429.4L155.089 400.619C166.526 389.128 180.787 380.851 196.439 376.62C212.09 372.389 228.58 372.355 244.249 376.519C309.069 393.957 387.116 372.554 444.624 315.046C525.085 234.586 534.87 113.918 466.476 45.523ZM400.914 271.343C344.636 327.621 262.476 336.867 218.799 293.2C175.061 249.462 184.565 167.177 240.654 111.091C296.937 54.8 379.099 45.559 422.769 89.23C466.499 132.965 457.011 215.25 400.913 271.344L400.914 271.343Z" fill="#9EA2A3"/>
<path d="M352.39 0.0159488C298.734 -0.184051 241.64 22.6879 196.953 67.3789C139.445 124.887 118.039 202.93 135.476 267.75C139.642 283.418 139.609 299.908 135.379 315.559C131.15 331.211 122.873 345.473 111.382 356.91L82.5986 385.691L126.308 429.4L155.099 400.609C192.349 363.355 209.899 307.621 195.029 251.121C172.28 164.941 256.299 61.375 352.155 61.777C360.04 53.4425 364.454 42.4166 364.498 30.943C364.541 19.4694 360.212 8.41019 352.39 0.0159488Z" fill="#82888B"/>
<path d="M23.6197 502.949L9.04974 488.379C3.25518 482.583 0 474.722 0 466.526C0 458.329 3.25518 450.469 9.04974 444.672L79.4497 374.272C80.8997 372.824 82.8653 372.01 84.9147 372.01C86.9642 372.01 88.9298 372.824 90.3797 374.272L137.728 421.624C138.446 422.341 139.015 423.193 139.404 424.13C139.793 425.068 139.993 426.072 139.993 427.087C139.993 428.102 139.793 429.107 139.404 430.044C139.015 430.981 138.446 431.833 137.728 432.55L67.3278 502.95C61.531 508.745 53.67 512 45.4735 512C37.2771 512 29.4163 508.744 23.6197 502.949Z" fill="#AC6757"/>
<path d="M259.604 113.32C259.604 135.733 252.958 157.642 240.506 176.277C228.054 194.913 210.356 209.437 189.65 218.014C168.943 226.591 146.158 228.835 124.176 224.463C102.194 220.09 82.0027 209.297 66.1546 193.449C50.3065 177.601 39.5138 157.41 35.1413 135.428C30.7689 113.446 33.013 90.6608 41.5899 69.9543C50.1668 49.2478 64.6913 31.5496 83.3267 19.0979C101.962 6.6461 123.871 4.41278e-09 146.284 4.41277e-09C161.165 -0.00013132 175.901 2.93089 189.65 8.6257C203.398 14.3205 215.891 22.6676 226.414 33.1904C236.936 43.7131 245.283 56.2055 250.978 69.9542C256.673 83.7028 259.604 98.4386 259.604 113.32Z" fill="#FCE3A0"/>
<path d="M150.339 4.05499C151.624 2.76599 152.939 1.51599 154.257 0.281986C138.742 -0.812647 123.168 1.29821 108.504 6.48315C93.8408 11.6681 80.4015 19.8161 69.0233 30.4199C57.645 41.0236 48.5713 53.8562 42.3672 68.1185C36.1631 82.3809 32.9614 97.7677 32.9614 113.321C32.9614 128.874 36.1631 144.261 42.3672 158.523C48.5713 172.786 57.645 185.618 69.0233 196.222C80.4015 206.826 93.8408 214.974 108.504 220.159C123.168 225.344 138.742 227.455 154.257 226.36C152.937 225.126 151.624 223.876 150.339 222.587C135.989 208.238 124.607 191.204 116.841 172.456C109.075 153.708 105.078 133.614 105.078 113.321C105.078 93.0289 109.075 72.935 116.841 54.1871C124.607 35.4393 135.989 18.4047 150.339 4.05599V4.05499Z" fill="#FFCE71"/>
<path d="M256.351 86.293C254.977 80.677 253.174 75.1751 250.956 69.836L225.319 95.469C217.14 103.71 211.628 114.219 209.499 125.633C207.264 137.094 201.955 147.732 194.14 156.408C186.326 165.085 176.299 171.473 165.133 174.89C153.967 178.307 142.082 178.623 130.75 175.806C119.418 172.988 109.065 167.142 100.8 158.894C92.5341 150.646 86.6666 140.306 83.825 128.98C80.9835 117.654 81.2749 105.768 84.6679 94.5952C88.061 83.4221 94.4281 73.3817 103.088 65.5485C111.748 57.7152 122.374 52.3839 133.831 50.125C145.287 47.9895 155.841 42.4709 164.131 34.281L189.769 8.65195C184.43 6.43193 178.928 4.62659 173.312 3.25195L153.212 23.352C147.096 29.3634 139.319 33.4039 130.884 34.952C116.675 37.748 103.494 44.3554 92.7516 54.0669C82.0092 63.7784 74.11 76.2283 69.8995 90.0841C65.689 103.94 65.3256 118.68 68.8484 132.726C72.3711 146.773 79.6473 159.597 89.8981 169.826C100.149 180.054 112.988 187.303 127.042 190.796C141.096 194.289 155.835 193.894 169.682 189.654C183.529 185.414 195.962 177.488 205.65 166.725C215.339 155.962 221.918 142.767 224.684 128.552C226.231 120.172 230.262 112.451 236.254 106.392L256.351 86.293Z" fill="#FFF1D4"/>
</svg>
