<svg width="512" height="512" viewBox="0 0 512 512" fill="none" xmlns="http://www.w3.org/2000/svg">
<path d="M249.8 3.183L127.359 98.835C125.668 100.156 124.432 101.972 123.823 104.03C123.213 106.087 123.261 108.283 123.96 110.312C124.658 112.341 125.972 114.101 127.719 115.348C129.465 116.594 131.557 117.264 133.703 117.265H378.59C380.736 117.265 382.829 116.595 384.576 115.349C386.323 114.103 387.638 112.343 388.337 110.314C389.036 108.285 389.084 106.088 388.475 104.03C387.865 101.973 386.629 100.156 384.938 98.835L262.492 3.183C260.68 1.76868 258.447 1.00049 256.149 1.00049C253.85 1.00049 251.617 1.76868 249.805 3.183H249.8Z" fill="#FFDE55"/>
<path d="M262.492 3.183C260.68 1.76868 258.447 1.00049 256.149 1.00049C253.85 1.00049 251.617 1.76868 249.805 3.183L127.359 98.835C125.668 100.156 124.432 101.972 123.823 104.03C123.213 106.087 123.261 108.283 123.96 110.312C124.658 112.341 125.972 114.101 127.719 115.348C129.465 116.594 131.557 117.264 133.703 117.265H145L276.762 14.331L262.492 3.183Z" fill="#FFCD00"/>
<path d="M92 385.199V502.699C92 505.431 93.0852 508.05 95.0168 509.982C96.9484 511.914 99.5683 512.999 102.3 512.999H163.961C166.511 512.989 168.968 512.038 170.859 510.328C172.751 508.617 173.945 506.269 174.211 503.733C176.491 483.598 186.104 465.008 201.217 451.51C216.33 438.012 235.883 430.551 256.146 430.551C276.41 430.551 295.963 438.012 311.076 451.51C326.189 465.008 335.802 483.598 338.082 503.733C338.349 506.269 339.543 508.617 341.434 510.327C343.326 512.037 345.782 512.988 348.332 512.999H409.988C411.341 513 412.682 512.734 413.933 512.217C415.183 511.7 416.32 510.941 417.277 509.985C418.235 509.028 418.995 507.893 419.513 506.643C420.032 505.392 420.299 504.052 420.3 502.699V385.199C420.3 383.845 420.034 382.504 419.516 381.253C418.998 380.002 418.239 378.866 417.281 377.908C416.324 376.951 415.187 376.192 413.937 375.674C412.686 375.156 411.345 374.889 409.991 374.89H102.3C99.5671 374.891 96.9467 375.978 95.0151 377.911C93.0835 379.845 91.9989 382.466 92 385.199Z" fill="#C4C8F5"/>
<path d="M133.227 502.699V385.199C133.226 382.466 134.31 379.845 136.242 377.911C138.174 375.978 140.794 374.891 143.527 374.89H102.3C99.5671 374.891 96.9467 375.978 95.0151 377.911C93.0835 379.845 91.9989 382.466 92 385.199V502.699C92 505.431 93.0852 508.05 95.0168 509.982C96.9484 511.914 99.5683 512.999 102.3 512.999H143.531C142.178 512.999 140.838 512.733 139.588 512.216C138.338 511.699 137.202 510.94 136.245 509.984C135.288 509.027 134.529 507.891 134.011 506.641C133.494 505.392 133.227 504.052 133.227 502.699Z" fill="#A7ADF0"/>
<path d="M217.211 240.913H153.223C150.775 240.913 148.428 239.94 146.697 238.209C144.966 236.478 143.993 234.131 143.993 231.683V126.499C143.993 124.051 144.966 121.704 146.697 119.973C148.428 118.242 150.775 117.269 153.223 117.269H217.211C219.659 117.269 222.007 118.242 223.737 119.973C225.468 121.704 226.441 124.051 226.441 126.499V231.683C226.441 234.131 225.468 236.478 223.737 238.209C222.007 239.94 219.659 240.913 217.211 240.913Z" fill="#4DB5A6"/>
<path d="M185.215 231.683V126.499C185.215 124.051 186.188 121.704 187.919 119.973C189.65 118.242 191.997 117.269 194.445 117.269H153.223C150.775 117.269 148.428 118.242 146.697 119.973C144.966 121.704 143.993 124.051 143.993 126.499V231.683C143.993 234.131 144.966 236.478 146.697 238.209C148.428 239.94 150.775 240.913 153.223 240.913H194.446C191.998 240.913 189.65 239.941 187.919 238.21C186.188 236.479 185.215 234.131 185.215 231.683Z" fill="#3DA094"/>
<path d="M359.074 240.913H295.086C292.638 240.913 290.291 239.94 288.56 238.209C286.829 236.478 285.856 234.131 285.856 231.683V126.499C285.856 124.051 286.829 121.704 288.56 119.973C290.291 118.242 292.638 117.269 295.086 117.269H359.074C361.522 117.269 363.869 118.242 365.6 119.973C367.331 121.704 368.304 124.051 368.304 126.499V231.683C368.304 234.131 367.331 236.478 365.6 238.209C363.869 239.94 361.522 240.913 359.074 240.913Z" fill="#FF7956"/>
<path d="M327.078 231.683V126.499C327.078 125.287 327.317 124.086 327.781 122.966C328.246 121.846 328.926 120.829 329.783 119.972C330.641 119.115 331.659 118.435 332.779 117.971C333.899 117.507 335.1 117.269 336.312 117.269H295.086C292.638 117.269 290.291 118.242 288.56 119.973C286.829 121.704 285.856 124.051 285.856 126.499V231.683C285.856 234.131 286.829 236.478 288.56 238.209C290.291 239.94 292.638 240.913 295.086 240.913H336.313C335.101 240.913 333.9 240.675 332.78 240.211C331.659 239.748 330.641 239.068 329.784 238.211C328.926 237.354 328.246 236.336 327.782 235.216C327.317 234.096 327.078 232.896 327.078 231.683Z" fill="#FF6243"/>
<path d="M112.613 364.589V251.218C112.613 248.486 113.698 245.866 115.63 243.935C117.561 242.003 120.181 240.918 122.913 240.918H245.84C248.572 240.918 251.193 242.003 253.126 243.934C255.06 245.865 256.147 248.485 256.149 251.218V364.589C256.147 367.322 255.06 369.942 253.126 371.873C251.193 373.804 248.572 374.889 245.84 374.889H122.918C121.565 374.89 120.225 374.624 118.975 374.106C117.724 373.589 116.588 372.83 115.631 371.874C114.674 370.917 113.915 369.782 113.397 368.532C112.879 367.282 112.613 365.942 112.613 364.589Z" fill="#FF5555"/>
<path d="M153.836 364.589V251.218C153.837 248.485 154.924 245.865 156.858 243.933C158.791 242.001 161.412 240.917 164.145 240.918H122.918C120.186 240.918 117.567 242.003 115.635 243.935C113.703 245.866 112.618 248.486 112.618 251.218V364.589C112.618 367.321 113.703 369.941 115.635 371.872C117.567 373.804 120.186 374.889 122.918 374.889H164.145C161.413 374.889 158.792 373.804 156.858 371.873C154.925 369.942 153.838 367.322 153.836 364.589Z" fill="#E04141"/>
<path d="M256.148 364.589V251.218C256.148 248.486 257.233 245.866 259.165 243.935C261.096 242.003 263.716 240.918 266.448 240.918H389.379C390.732 240.918 392.071 241.184 393.321 241.702C394.57 242.22 395.706 242.978 396.662 243.935C397.619 244.891 398.377 246.027 398.895 247.276C399.413 248.526 399.679 249.865 399.679 251.218V364.589C399.679 365.942 399.413 367.281 398.895 368.531C398.377 369.78 397.619 370.916 396.662 371.872C395.706 372.829 394.57 373.587 393.321 374.105C392.071 374.623 390.732 374.889 389.379 374.889H266.453C265.1 374.89 263.76 374.624 262.51 374.106C261.26 373.589 260.123 372.83 259.167 371.874C258.21 370.917 257.45 369.782 256.932 368.532C256.415 367.282 256.148 365.942 256.148 364.589Z" fill="#92DD79"/>
<path d="M297.371 364.589V251.218C297.373 248.485 298.46 245.865 300.393 243.934C302.326 242.003 304.947 240.918 307.68 240.918H266.453C263.721 240.918 261.101 242.003 259.17 243.935C257.238 245.866 256.153 248.486 256.153 251.218V364.589C256.153 367.321 257.238 369.941 259.17 371.872C261.101 373.804 263.721 374.889 266.453 374.889H307.68C304.947 374.889 302.326 373.804 300.393 371.873C298.46 369.942 297.373 367.322 297.371 364.589Z" fill="#7EC66A"/>
</svg>
