<svg width="512" height="512" viewBox="0 0 512 512" fill="none" xmlns="http://www.w3.org/2000/svg">
<path d="M50.3479 212.511C33.3769 170.554 19.1539 107.769 50.9609 75.9622V58.2842H33.2839C-0.731117 92.2982 -0.591118 153.313 27.1849 221.845C27.7873 223.381 28.688 224.782 29.8349 225.967C30.9819 227.153 32.3523 228.099 33.867 228.752C35.3818 229.405 37.0109 229.751 38.6603 229.771C40.3096 229.79 41.9465 229.483 43.4764 228.866C45.0063 228.25 46.3989 227.336 47.5738 226.179C48.7487 225.021 49.6825 223.642 50.3214 222.121C50.9604 220.6 51.2916 218.968 51.2962 217.319C51.3007 215.669 50.9784 214.035 50.3479 212.511Z" fill="#B9F0FF"/>
<path d="M302.977 12.55C287.333 9.52138 271.435 7.99709 255.5 7.99805C118.257 7.99805 7 119.258 7 256.498C7 393.738 118.257 504.998 255.5 504.998C271.435 505 287.333 503.476 302.977 500.448C417.507 478.29 504 377.505 504 256.498C504 135.491 417.507 34.711 302.977 12.55Z" fill="#7CE3FF"/>
<path d="M155 256.498C155 150.446 215.041 58.4291 302.977 12.548C287.333 9.52005 271.435 7.99644 255.5 7.99805C118.257 7.99805 7 119.258 7 256.498C7 393.738 118.257 504.998 255.5 504.998C271.435 505 287.333 503.476 302.977 500.448C215.041 454.569 155 362.553 155 256.498Z" fill="#55DAFE"/>
<path d="M303.957 12.7422V28.5592C303.957 68.5592 331.062 112.371 370.741 112.371C373.556 112.371 376.343 112.926 378.943 114.003C381.543 115.08 383.906 116.659 385.896 118.649C387.887 120.639 389.465 123.002 390.543 125.602C391.62 128.202 392.174 130.99 392.174 133.804C392.174 136.619 391.62 139.406 390.543 142.006C389.465 144.607 387.887 146.969 385.896 148.96C383.906 150.95 381.543 152.529 378.943 153.606C376.343 154.683 373.556 155.237 370.741 155.237C329.541 155.237 332.406 152.879 316.558 168.727C300.268 185.017 313.969 211.149 331.658 211.149C356.001 211.149 355.142 210.904 369.584 196.463C377.943 188.11 389.235 183.353 401.051 183.208C402.522 183.186 391.397 183.194 493.004 183.194C479.753 140.397 455.194 101.971 421.921 71.9706C388.647 41.97 347.893 21.5074 303.957 12.7422Z" fill="#00CE8E"/>
<path d="M340.18 239.639C323.078 239.644 306.678 246.44 294.585 258.533C282.492 270.626 275.696 287.026 275.691 304.128V329.413C275.691 340.207 277.816 350.895 281.947 360.867C286.077 370.838 292.132 379.899 299.764 387.531C314.737 402.505 323.578 422.394 323.856 446.369C323.942 454.407 325.625 462.347 328.807 469.728C331.99 477.11 336.608 483.784 342.394 489.364C392.557 470.643 435.333 436.22 464.351 391.223C493.369 346.225 507.078 293.058 503.437 239.639C495.429 239.639 348.282 239.639 340.18 239.639Z" fill="#00CE8E"/>
<path d="M235.632 106.584L214.594 85.546L177.549 48.498H119.481C90.0985 67.7119 65.12 92.9324 46.1902 122.498C27.2604 152.065 14.809 185.305 9.65576 220.032L69.9558 280.315C72.2946 282.654 74.1498 285.43 75.4156 288.486C76.6813 291.542 77.3328 294.817 77.3328 298.124C77.3328 301.432 76.6813 304.707 75.4156 307.762C74.1498 310.818 72.2946 313.594 69.9558 315.933L28.3838 357.498C47.6275 400.62 78.7147 437.395 118.032 463.548L135.766 445.814C154.745 426.824 165.406 401.075 165.406 374.227C165.406 347.379 154.745 321.63 135.766 302.64C123.478 290.353 112.612 282.212 112.612 263.955C112.612 254.011 116.562 244.473 123.594 237.441L160.764 200.272L174.4 186.636C190.655 170.38 218.224 182.409 218.224 205.82C218.224 211.024 220.291 216.015 223.971 219.694C227.65 223.374 232.641 225.441 237.845 225.441C243.049 225.441 248.039 223.374 251.719 219.694C255.399 216.015 257.466 211.024 257.466 205.82V159.298C257.467 149.508 255.539 139.814 251.792 130.769C248.046 121.724 242.555 113.505 235.632 106.583V106.584Z" fill="#5FD9B3"/>
<path d="M160.752 200.285C169.483 158.355 187.926 119.056 214.6 85.546L177.55 48.498H119.482C90.0992 67.7117 65.1204 92.9321 46.1905 122.498C27.2605 152.064 14.809 185.305 9.65576 220.032L69.9558 280.315C72.2946 282.654 74.1498 285.43 75.4156 288.486C76.6813 291.542 77.3328 294.817 77.3328 298.124C77.3328 301.432 76.6813 304.707 75.4156 307.762C74.1498 310.818 72.2946 313.594 69.9558 315.933L28.3838 357.498C47.6275 400.62 78.7147 437.395 118.032 463.548L135.766 445.814C154.745 426.824 165.406 401.075 165.406 374.227C165.406 347.379 154.745 321.63 135.766 302.64C123.478 290.353 112.612 282.212 112.612 263.955C112.612 254.011 116.562 244.473 123.594 237.441L160.752 200.285Z" fill="#00B27A"/>
<path d="M366.608 169.392C243.881 46.6662 94.6472 -3.07876 33.2842 58.2842L50.9622 75.9622C98.6542 28.2692 233.93 72.0693 348.931 187.07C367.891 205.983 385.548 226.159 401.78 247.459L422.68 233.722C405.505 211.003 386.769 189.508 366.608 169.392Z" fill="#B9F0FF"/>
<path d="M458.088 272.952L474.74 247.732C476.172 245.557 476.741 242.925 476.336 240.352C475.931 237.779 474.58 235.45 472.548 233.82C470.517 232.191 467.95 231.377 465.35 231.54C462.751 231.702 460.305 232.828 458.492 234.698L440.592 253.203L431.871 243.359L434.606 239.217C441.225 229.191 427.976 216.238 417.466 227.1C415.551 224.782 412.876 223.218 409.916 222.684C406.957 222.151 403.904 222.683 401.299 224.187C398.695 225.69 396.707 228.068 395.69 230.898C394.672 233.728 394.689 236.826 395.739 239.644L394.495 239.955C391.967 240.59 389.767 242.144 388.326 244.316C386.884 246.487 386.305 249.117 386.701 251.693C387.097 254.269 388.44 256.604 390.468 258.242C392.495 259.879 395.061 260.701 397.662 260.546L402.617 260.246L406.781 272.72L381.8 278.971C379.272 279.606 377.072 281.16 375.631 283.332C374.189 285.503 373.61 288.133 374.006 290.709C374.402 293.285 375.745 295.62 377.773 297.258C379.8 298.895 382.366 299.717 384.967 299.562L415.135 297.751C420.57 314.03 441.847 325.996 455.52 318.102C469.266 310.167 469.408 285.727 458.09 272.952H458.088Z" fill="#EFEDFF"/>
</svg>
