<svg width="512" height="512" viewBox="0 0 512 512" fill="none" xmlns="http://www.w3.org/2000/svg">
<path d="M362.311 263.431C370.476 263.432 378.546 261.68 385.977 258.295C393.407 254.91 400.025 249.97 405.382 243.809C410.74 237.647 414.713 230.407 417.033 222.579C419.354 214.75 419.967 206.515 418.832 198.429C417.697 190.343 414.84 182.595 410.454 175.708C406.069 168.821 400.256 162.955 393.409 158.506C386.562 154.058 378.84 151.13 370.765 149.921C362.69 148.713 354.449 149.251 346.6 151.5C344.255 136.573 337.26 122.767 326.612 112.046C315.964 101.326 302.205 94.2376 287.295 91.7912C272.384 89.3448 257.082 91.6646 243.567 98.4205C230.051 105.176 219.012 116.024 212.02 129.419C204.077 122.656 194.432 118.201 184.134 116.537C173.835 114.874 163.278 116.066 153.61 119.984C143.942 123.901 135.533 130.395 129.298 138.758C123.063 147.122 119.24 157.035 118.246 167.419C108.409 165.376 98.2527 165.42 88.434 167.549C78.6153 169.677 69.3526 173.843 61.2448 179.776C53.137 185.709 46.3646 193.278 41.3655 201.993C36.3664 210.707 33.2519 220.374 32.2234 230.368C31.1949 240.362 32.2753 250.461 35.3946 260.011C38.514 269.562 43.6029 278.351 50.3323 285.811C57.0618 293.271 65.282 299.236 74.4614 303.32C83.6408 307.403 93.575 309.515 103.622 309.519L362.311 263.431Z" fill="#C1E9FA"/>
<path d="M275.67 320.292L141.835 285.401L31.835 320.292L64.9 449.204C67.8319 460.633 74.483 470.762 83.8055 477.995C93.1279 485.227 104.592 489.153 116.391 489.153H283.491L275.67 320.292Z" fill="#36D39A"/>
<path d="M61.7149 203.515C61.7213 194.283 63.2648 185.116 66.2819 176.391C52.9062 184.537 42.5609 196.834 36.8227 211.406C31.0845 225.978 30.2681 242.027 34.4981 257.106C38.728 272.185 47.7723 285.467 60.2523 294.929C72.7324 304.391 87.9637 309.512 103.625 309.513L147.572 301.684C97.2099 285.884 61.7149 247.889 61.7149 203.515Z" fill="#90D3F1"/>
<path d="M71.1281 307.828L31.8281 320.292L64.9001 449.204C67.8321 460.633 74.4832 470.762 83.8056 477.995C93.1281 485.228 104.592 489.153 116.391 489.153H143.7C99.9701 449.734 71.2171 383.242 71.1281 307.828Z" fill="#00C67F"/>
<path d="M31.83 250.511C28.7006 250.511 25.6018 251.127 22.7107 252.325C19.8195 253.522 17.1925 255.278 14.9796 257.49C12.7668 259.703 11.0115 262.33 9.81395 265.221C8.61638 268.113 8 271.211 8 274.341L8 296.461C8 302.781 10.5107 308.842 14.9796 313.311C19.4486 317.78 25.5099 320.291 31.83 320.291H275.67V250.51H31.83V250.511Z" fill="#80DFB5"/>
<path d="M74.4541 110.054C96.2583 110.054 113.934 92.3784 113.934 70.5742C113.934 48.77 96.2583 31.0942 74.4541 31.0942C52.6499 31.0942 34.9741 48.77 34.9741 70.5742C34.9741 92.3784 52.6499 110.054 74.4541 110.054Z" fill="#90D3F1"/>
<path d="M465.52 149.534C487.324 149.534 505 131.858 505 110.054C505 88.25 487.324 70.5742 465.52 70.5742C443.716 70.5742 426.04 88.25 426.04 110.054C426.04 131.858 443.716 149.534 465.52 149.534Z" fill="#90D3F1"/>
<path d="M343.391 74.718C357.949 74.718 369.75 62.9167 369.75 48.359C369.75 33.8013 357.949 22 343.391 22C328.834 22 317.032 33.8013 317.032 48.359C317.032 62.9167 328.834 74.718 343.391 74.718Z" fill="#C1E9FA"/>
<path d="M337.978 210.877H278.363C270.709 210.877 263.152 212.595 256.25 215.904C249.348 219.213 243.277 224.029 238.484 229.996C233.691 235.964 230.298 242.931 228.556 250.385C226.813 257.838 226.766 265.587 228.417 273.061L236.7 310.577C242.44 336.559 242.44 363.481 236.7 389.463L228.414 426.972C226.763 434.446 226.81 442.195 228.552 449.649C230.294 457.102 233.687 464.069 238.48 470.037C243.273 476.004 249.345 480.82 256.247 484.129C263.149 487.438 270.706 489.156 278.36 489.156H337.975L337.978 210.877Z" fill="#FCCB88"/>
<path d="M495.489 389.46C489.749 363.478 489.749 336.556 495.489 310.574L503.775 273.065C505.427 265.591 505.38 257.841 503.638 250.387C501.896 242.933 498.504 235.965 493.71 229.997C488.917 224.029 482.845 219.213 475.943 215.904C469.041 212.595 461.484 210.877 453.829 210.877H337.978C330.324 210.877 322.767 212.595 315.865 215.904C308.963 219.213 302.892 224.028 298.098 229.996C293.305 235.964 289.913 242.931 288.17 250.384C286.428 257.838 286.381 265.587 288.032 273.061L296.318 310.57C302.058 336.552 302.058 363.474 296.318 389.456L288.032 426.965C286.381 434.439 286.428 442.188 288.17 449.642C289.913 457.095 293.305 464.062 298.098 470.03C302.892 475.997 308.963 480.813 315.865 484.122C322.767 487.431 330.324 489.149 337.978 489.149H453.829C461.483 489.149 469.04 487.431 475.942 484.122C482.844 480.813 488.915 475.997 493.708 470.03C498.502 464.062 501.894 457.095 503.637 449.642C505.379 442.188 505.426 434.439 503.775 426.965L495.489 389.46Z" fill="#F9ED80"/>
<path d="M71.125 307.477C71.1067 288.348 72.9954 269.265 76.763 250.511H31.83C28.7006 250.511 25.6018 251.128 22.7107 252.325C19.8195 253.523 17.1925 255.278 14.9796 257.491C12.7668 259.704 11.0115 262.331 9.81395 265.222C8.61638 268.113 8 271.212 8 274.341L8 296.461C8 302.781 10.5107 308.843 14.9796 313.312C19.4486 317.781 25.5099 320.291 31.83 320.291H71.412C71.229 316.05 71.125 311.78 71.125 307.477Z" fill="#36D39A"/>
</svg>
