<svg width="512" height="512" viewBox="0 0 512 512" fill="none" xmlns="http://www.w3.org/2000/svg">
<path d="M0.5 0.5H511.5V511.5H0.5V0.5Z" stroke="black" stroke-opacity="0.01"/>
<path d="M362.311 263.431C370.476 263.432 378.546 261.68 385.977 258.295C393.407 254.91 400.025 249.97 405.382 243.809C410.74 237.647 414.713 230.407 417.033 222.579C419.354 214.75 419.967 206.515 418.832 198.429C417.697 190.343 414.84 182.595 410.454 175.708C406.069 168.821 400.256 162.955 393.409 158.506C386.562 154.058 378.84 151.13 370.765 149.921C362.69 148.713 354.449 149.251 346.6 151.5C344.255 136.573 337.26 122.767 326.612 112.046C315.964 101.326 302.205 94.2376 287.295 91.7912C272.384 89.3448 257.082 91.6646 243.567 98.4205C230.051 105.176 219.012 116.024 212.02 129.419C204.077 122.656 194.432 118.201 184.134 116.537C173.835 114.874 163.278 116.066 153.61 119.984C143.942 123.901 135.533 130.395 129.298 138.758C123.063 147.122 119.24 157.035 118.246 167.419C108.409 165.376 98.2527 165.42 88.434 167.549C78.6153 169.677 69.3526 173.843 61.2448 179.776C53.137 185.709 46.3646 193.278 41.3655 201.993C36.3664 210.707 33.2519 220.374 32.2234 230.368C31.1949 240.362 32.2753 250.461 35.3946 260.011C38.514 269.562 43.6029 278.351 50.3323 285.811C57.0618 293.271 65.282 299.236 74.4614 303.32C83.6407 307.403 93.575 309.515 103.622 309.519L362.311 263.431Z" fill="#C1E9FA"/>
<path d="M362.311 262.931H362.267L362.223 262.939L103.578 309.019C93.616 309.009 83.7666 306.912 74.6646 302.863C65.5491 298.808 57.3862 292.884 50.7036 285.476C44.021 278.068 38.9675 269.34 35.8699 259.856C32.7723 250.372 31.6994 240.344 32.7208 230.42C33.7422 220.495 36.835 210.896 41.7992 202.241C46.7635 193.587 53.4887 186.071 61.54 180.18C69.5914 174.288 78.7896 170.151 88.5399 168.037C98.2903 165.924 108.376 165.88 118.144 167.908L118.69 168.022L118.744 167.466C119.729 157.173 123.518 147.347 129.699 139.057C135.879 130.767 144.214 124.33 153.798 120.447C163.381 116.563 173.846 115.382 184.054 117.031C194.262 118.68 203.822 123.096 211.696 129.799L212.173 130.206L212.463 129.65C219.406 116.349 230.369 105.577 243.79 98.8678C257.212 92.1589 272.407 89.8552 287.214 92.2846C302.021 94.714 315.684 101.753 326.257 112.398C336.831 123.044 343.777 136.755 346.106 151.577L346.194 152.136L346.738 151.98C354.518 149.751 362.687 149.218 370.691 150.416C378.695 151.614 386.35 154.516 393.137 158.925C399.924 163.335 405.685 169.149 410.033 175.976C414.38 182.803 417.212 190.484 418.337 198.499C419.462 206.514 418.854 214.677 416.554 222.437C414.254 230.197 410.316 237.373 405.005 243.48C399.694 249.588 393.135 254.485 385.769 257.84C378.404 261.196 370.405 262.932 362.311 262.931Z" stroke="black" stroke-opacity="0.01"/>
<path d="M275.67 320.292L141.835 285.401L31.835 320.292L64.9 449.204C67.8319 460.633 74.483 470.762 83.8055 477.995C93.1279 485.227 104.592 489.153 116.391 489.153H283.491L275.67 320.292Z" fill="#36D39A"/>
<path d="M282.967 488.653H116.391C104.703 488.653 93.3467 484.764 84.112 477.6C74.8772 470.435 68.2886 460.401 65.3843 449.08L32.4367 320.626L141.849 285.921L275.188 320.683L282.967 488.653Z" stroke="black" stroke-opacity="0.01"/>
<path d="M61.7149 203.515C61.7214 194.283 63.2648 185.116 66.2819 176.391C52.9062 184.537 42.5609 196.834 36.8227 211.406C31.0845 225.978 30.2681 242.027 34.4981 257.106C38.728 272.185 47.7723 285.467 60.2523 294.929C72.7324 304.391 87.9637 309.512 103.625 309.513L147.572 301.684C97.2099 285.884 61.7149 247.889 61.7149 203.515Z" fill="#90D3F1"/>
<path d="M61.2149 203.515V203.515C61.2149 247.612 96.0272 285.348 145.501 301.545L103.581 309.013C88.0442 309.002 72.9358 303.917 60.5544 294.531C48.1612 285.135 39.18 271.945 34.9795 256.971C30.779 241.997 31.5896 226.06 37.2879 211.589C42.8165 197.549 52.6519 185.637 65.3639 177.551C62.6223 185.93 61.2211 194.693 61.2149 203.515Z" stroke="black" stroke-opacity="0.01"/>
<path d="M71.1281 307.828L31.8281 320.292L64.9001 449.204C67.8321 460.633 74.4832 470.762 83.8056 477.995C93.1281 485.228 104.592 489.153 116.391 489.153H143.7C99.9701 449.734 71.2171 383.242 71.1281 307.828Z" fill="#00C67F"/>
<path d="M65.3844 449.08L32.4299 320.626L70.6297 308.511C70.8889 383.21 99.2259 449.141 142.406 488.653H116.391C104.703 488.653 93.3469 484.764 84.1121 477.6C74.8774 470.435 68.2888 460.402 65.3844 449.08Z" stroke="black" stroke-opacity="0.01"/>
<path d="M31.83 250.511C28.7006 250.511 25.6018 251.127 22.7107 252.325C19.8195 253.522 17.1925 255.278 14.9796 257.49C12.7668 259.703 11.0115 262.33 9.81395 265.221C8.61638 268.113 8 271.211 8 274.341L8 296.461C8 302.781 10.5107 308.842 14.9796 313.311C19.4486 317.78 25.5099 320.291 31.83 320.291H275.67V250.51H31.83V250.511Z" fill="#80DFB5"/>
<path d="M31.83 251.011H32.33V251.01H275.17V319.791H31.83C25.6425 319.791 19.7084 317.333 15.3332 312.958C10.958 308.582 8.5 302.648 8.5 296.461V274.341C8.5 271.277 9.10345 268.243 10.2759 265.413C11.4483 262.582 13.1668 260.01 15.3332 257.844C17.4996 255.678 20.0715 253.959 22.902 252.787C25.7325 251.614 28.7663 251.011 31.83 251.011Z" stroke="black" stroke-opacity="0.01"/>
<path d="M74.4541 110.054C96.2583 110.054 113.934 92.3784 113.934 70.5742C113.934 48.77 96.2583 31.0942 74.4541 31.0942C52.6499 31.0942 34.9741 48.77 34.9741 70.5742C34.9741 92.3784 52.6499 110.054 74.4541 110.054Z" fill="#90D3F1"/>
<path d="M113.434 70.5742C113.434 92.1023 95.9822 109.554 74.4541 109.554C52.9261 109.554 35.4741 92.1023 35.4741 70.5742C35.4741 49.0462 52.9261 31.5942 74.4541 31.5942C95.9822 31.5942 113.434 49.0462 113.434 70.5742Z" stroke="black" stroke-opacity="0.01"/>
<path d="M465.52 149.534C487.324 149.534 505 131.858 505 110.054C505 88.25 487.324 70.5742 465.52 70.5742C443.716 70.5742 426.04 88.25 426.04 110.054C426.04 131.858 443.716 149.534 465.52 149.534Z" fill="#90D3F1"/>
<path d="M504.5 110.054C504.5 131.582 487.048 149.034 465.52 149.034C443.992 149.034 426.54 131.582 426.54 110.054C426.54 88.5262 443.992 71.0742 465.52 71.0742C487.048 71.0742 504.5 88.5262 504.5 110.054Z" stroke="black" stroke-opacity="0.01"/>
<path d="M343.391 74.718C357.949 74.718 369.75 62.9167 369.75 48.359C369.75 33.8013 357.949 22 343.391 22C328.834 22 317.032 33.8013 317.032 48.359C317.032 62.9167 328.834 74.718 343.391 74.718Z" fill="#C1E9FA"/>
<path d="M369.25 48.359C369.25 62.6405 357.673 74.218 343.391 74.218C329.11 74.218 317.532 62.6405 317.532 48.359C317.532 34.0775 329.11 22.5 343.391 22.5C357.673 22.5 369.25 34.0775 369.25 48.359Z" stroke="black" stroke-opacity="0.01"/>
<path d="M337.978 210.877H278.363C270.709 210.877 263.152 212.595 256.25 215.904C249.348 219.213 243.277 224.029 238.484 229.996C233.691 235.964 230.298 242.931 228.556 250.385C226.813 257.838 226.766 265.587 228.417 273.061L236.7 310.577C242.44 336.559 242.44 363.481 236.7 389.463L228.414 426.972C226.763 434.446 226.81 442.195 228.552 449.649C230.294 457.102 233.687 464.069 238.48 470.037C243.273 476.004 249.345 480.82 256.247 484.129C263.149 487.438 270.706 489.156 278.36 489.156H337.975L337.978 210.877Z" fill="#FCCB88"/>
<path d="M228.905 272.953L228.905 272.953C227.27 265.552 227.317 257.879 229.042 250.498C230.768 243.118 234.127 236.219 238.874 230.31C243.62 224.4 249.632 219.632 256.466 216.355C263.301 213.078 270.783 211.377 278.363 211.377H337.478L337.475 488.656H278.36C270.78 488.656 263.298 486.955 256.463 483.678C249.628 480.402 243.616 475.633 238.87 469.724C234.124 463.814 230.764 456.915 229.039 449.535C227.314 442.154 227.267 434.481 228.902 427.08L228.414 426.972L228.902 427.08L237.188 389.571C242.944 363.518 242.944 336.522 237.188 310.469L228.905 272.953Z" stroke="black" stroke-opacity="0.01"/>
<path d="M495.489 389.46C489.749 363.478 489.749 336.556 495.489 310.574L503.775 273.065C505.427 265.591 505.38 257.841 503.638 250.387C501.896 242.933 498.504 235.965 493.71 229.997C488.917 224.029 482.845 219.213 475.943 215.904C469.041 212.595 461.484 210.877 453.829 210.877H337.978C330.324 210.877 322.767 212.595 315.865 215.904C308.963 219.213 302.892 224.028 298.098 229.996C293.305 235.964 289.913 242.931 288.17 250.384C286.428 257.838 286.381 265.587 288.032 273.061L296.318 310.57C302.058 336.552 302.058 363.474 296.318 389.456L288.032 426.965C286.381 434.439 286.428 442.188 288.17 449.642C289.913 457.095 293.305 464.062 298.098 470.03C302.892 475.997 308.963 480.813 315.865 484.122C322.767 487.431 330.324 489.149 337.978 489.149H453.829C461.483 489.149 469.04 487.431 475.942 484.122C482.844 480.813 488.915 475.997 493.708 470.03C498.502 464.062 501.894 457.095 503.637 449.642C505.379 442.188 505.426 434.439 503.775 426.965L495.489 389.46Z" fill="#F9ED80"/>
<path d="M288.52 272.953L288.033 273.061L288.52 272.953C286.885 265.552 286.932 257.879 288.657 250.498C290.382 243.118 293.742 236.219 298.488 230.309C303.235 224.4 309.247 219.631 316.081 216.355C322.916 213.078 330.399 211.377 337.978 211.377H453.829C461.409 211.377 468.892 213.078 475.727 216.355C482.562 219.632 488.574 224.401 493.32 230.31C498.067 236.22 501.426 243.12 503.151 250.501C504.876 257.882 504.922 265.556 503.287 272.957L503.775 273.065L503.287 272.957L495.001 310.466C489.245 336.519 489.245 363.515 495.001 389.568L503.287 427.073C504.922 434.474 504.875 442.147 503.15 449.528C501.424 456.908 498.065 463.807 493.319 469.717C488.572 475.626 482.56 480.395 475.726 483.671C468.891 486.948 461.408 488.649 453.829 488.649H337.978C330.399 488.649 322.916 486.948 316.081 483.671C309.247 480.395 303.235 475.626 298.488 469.717C293.742 463.807 290.382 456.908 288.657 449.528C286.932 442.147 286.885 434.474 288.52 427.073L288.032 426.965L288.52 427.073L296.806 389.564C302.562 363.511 302.562 336.515 296.806 310.462L288.52 272.953Z" stroke="black" stroke-opacity="0.01"/>
<path d="M71.125 307.477C71.1067 288.348 72.9954 269.265 76.763 250.511H31.83C28.7006 250.511 25.6018 251.128 22.7107 252.325C19.8195 253.523 17.1925 255.278 14.9796 257.491C12.7668 259.704 11.0115 262.331 9.81395 265.222C8.61638 268.113 8 271.212 8 274.341L8 296.461C8 302.781 10.5107 308.843 14.9796 313.312C19.4486 317.781 25.5099 320.291 31.83 320.291H71.412C71.229 316.05 71.125 311.78 71.125 307.477Z" fill="#36D39A"/>
<path d="M70.8904 319.791H31.83C25.6425 319.791 19.7084 317.333 15.3332 312.958C10.958 308.583 8.5 302.649 8.5 296.461V274.341C8.5 271.277 9.10345 268.244 10.2759 265.413C11.4483 262.583 13.1668 260.011 15.3332 257.844C17.4996 255.678 20.0715 253.96 22.902 252.787C25.7325 251.615 28.7663 251.011 31.83 251.011H76.1532C72.4587 269.605 70.6069 288.519 70.625 307.478C70.625 311.612 70.7208 315.716 70.8904 319.791Z" stroke="black" stroke-opacity="0.01"/>
</svg>
