<svg width="512" height="512" viewBox="0 0 512 512" fill="none" xmlns="http://www.w3.org/2000/svg">
<path d="M0.5 0.5H511.5V511.5H0.5V0.5Z" stroke="black" stroke-opacity="0.01"/>
<path d="M95.9608 444.679C115.061 398.161 152.751 379.172 152.751 379.172H297.54C297.54 379.172 365.159 413.244 365.159 501.902H149.939L95.9608 444.679Z" fill="#36D39A"/>
<path d="M152.559 379.837C152.697 379.763 152.802 379.708 152.872 379.672H297.419C297.442 379.684 297.47 379.699 297.501 379.715C297.627 379.781 297.814 379.881 298.059 380.015C298.549 380.283 299.27 380.689 300.189 381.238C302.027 382.336 304.656 384.006 307.812 386.286C314.127 390.847 322.548 397.851 330.971 407.617C347.747 427.068 364.532 457.482 364.658 501.402H150.155L96.5461 444.571C106.06 421.555 120.134 405.333 131.852 394.854C137.735 389.592 143.023 385.78 146.837 383.284C148.744 382.037 150.282 381.118 151.342 380.513C151.872 380.21 152.282 379.986 152.559 379.837Z" stroke="black" stroke-opacity="0.01"/>
<path d="M401.044 21.5878C412.973 20.741 424.834 23.9947 434.661 30.8101C444.489 37.6254 451.693 47.5934 455.081 59.0628C459.431 73.8298 469.423 86.4348 483.471 92.7318C486.275 93.9955 489.17 95.0477 492.131 95.8798C494.876 96.6668 497.367 98.1578 499.358 100.205C501.349 102.252 502.77 104.784 503.481 107.55C504.191 110.315 504.166 113.219 503.408 115.972C502.65 118.725 501.186 121.232 499.16 123.245C479.435 142.77 446.66 159.955 404.76 126.354C391.172 126.354 378.113 121.081 368.336 111.645C358.558 102.208 352.825 89.3457 352.343 75.766C351.86 62.1862 356.667 48.9494 365.751 38.8434C374.835 28.7375 387.486 22.5513 401.04 21.5878H401.044Z" fill="#FAB659"/>
<path d="M401.058 22.0878C387.639 23.0462 375.116 29.1724 366.123 39.1777C357.126 49.1873 352.365 62.298 352.842 75.7482C353.32 89.1985 358.999 101.939 368.683 111.285C378.367 120.631 391.301 125.854 404.76 125.854L404.936 125.854L405.073 125.964C425.933 142.693 444.464 146.738 460.197 144.228C475.951 141.714 488.985 132.613 498.807 122.89C500.772 120.939 502.191 118.508 502.926 115.839C503.661 113.17 503.685 110.355 502.997 107.674C502.308 104.993 500.93 102.538 499 100.553C497.07 98.5691 494.655 97.1237 491.994 96.3607C489.01 95.522 486.092 94.4614 483.266 93.1879C483.266 93.1878 483.266 93.1877 483.265 93.1877L483.471 92.7318C469.423 86.4348 459.431 73.8298 455.081 59.0628L401.058 22.0878ZM401.058 22.0878H401.062L401.079 22.0866C412.895 21.2478 424.643 24.4705 434.376 31.2209C444.11 37.9713 451.246 47.8441 454.601 59.2041L401.058 22.0878Z" stroke="black" stroke-opacity="0.01"/>
<path d="M13.3488 224.028C13.3488 106.564 108.913 11 226.377 11C343.841 11 439.4 106.564 439.4 224.028H13.3488Z" fill="#FCCB88"/>
<path d="M13.8494 223.528C14.1201 106.569 109.356 11.5 226.377 11.5C343.398 11.5 438.629 106.569 438.899 223.528H13.8494Z" stroke="black" stroke-opacity="0.01"/>
<path d="M86.5538 209.74C86.5538 125.364 135.482 51.64 208.354 11.77C99.2998 20.951 13.3488 112.634 13.3488 224.028H87.0428C86.7308 219.301 86.5538 214.541 86.5538 209.74Z" fill="#FAB659"/>
<path d="M86.5093 223.528H13.8494C14.1043 113.426 98.5246 22.7368 206.038 12.48C134.171 52.6851 86.0538 125.966 86.0538 209.74C86.0538 214.373 86.2182 218.967 86.5093 223.528Z" stroke="black" stroke-opacity="0.01"/>
<path d="M398.192 271.589C424.459 271.589 445.753 250.295 445.753 224.028C445.753 197.761 424.459 176.467 398.192 176.467C371.925 176.467 350.631 197.761 350.631 224.028C350.631 250.295 371.925 271.589 398.192 271.589Z" fill="#FFCABD"/>
<path d="M445.253 224.028C445.253 250.019 424.183 271.089 398.192 271.089C372.201 271.089 351.131 250.019 351.131 224.028C351.131 198.037 372.201 176.967 398.192 176.967C424.183 176.967 445.253 198.037 445.253 224.028Z" stroke="black" stroke-opacity="0.01"/>
<path d="M223.672 379.172H152.751C152.751 379.172 115.063 398.16 95.9608 444.678L115.78 465.689C123.1 420.998 162.623 386.851 210.3 386.851C214.774 386.852 219.244 387.158 223.677 387.767L223.672 379.172Z" fill="#00C67F"/>
<path d="M152.872 379.672H223.172L223.176 387.195C218.907 386.634 214.606 386.352 210.3 386.351H210.3C162.735 386.351 123.233 420.168 115.455 464.615L96.5461 444.57C106.061 421.554 120.135 405.332 131.852 394.853C137.736 389.591 143.023 385.779 146.837 383.284C148.744 382.036 150.282 381.118 151.342 380.513C151.872 380.21 152.282 379.986 152.559 379.837C152.697 379.763 152.802 379.708 152.872 379.672Z" stroke="black" stroke-opacity="0.01"/>
<path d="M386.093 160.593C382.386 151.431 376.019 143.59 367.813 138.082C359.606 132.574 349.937 129.652 340.054 129.693H112.71C102.762 129.674 93.0379 132.645 84.7996 138.222C76.5613 143.798 70.1891 151.721 66.5098 160.964C58.4608 181.369 54.405 203.129 54.5628 225.064C55.1168 318.69 131.521 395.182 225.146 395.837C253.289 396.024 281.048 389.299 305.984 376.251C330.921 363.204 352.272 344.234 368.164 321.006C384.055 297.778 394.001 271.004 397.127 243.035C400.253 215.065 396.464 186.756 386.093 160.593V160.593Z" fill="#FFDCCE"/>
<path d="M340.054 130.193L340.056 130.193C349.839 130.152 359.41 133.045 367.534 138.497C375.656 143.948 381.959 151.709 385.628 160.777C395.969 186.864 399.747 215.091 396.63 242.979C393.513 270.867 383.597 297.564 367.751 320.724C351.906 343.884 330.616 362.799 305.752 375.808C280.888 388.818 253.21 395.524 225.149 395.337C131.798 394.684 55.6152 318.413 55.0628 225.061L55.0628 225.06C54.9054 203.19 58.9493 181.493 66.9747 161.148C70.6169 151.999 76.9248 144.156 85.0799 138.636C93.2351 133.116 102.861 130.174 112.709 130.193H112.71L340.054 130.193Z" stroke="black" stroke-opacity="0.01"/>
<path d="M149.939 444.679V501.902H85.1389C85.1389 479.431 89.4769 460.474 95.9569 444.679H149.939Z" fill="#FFDCCE"/>
<path d="M149.439 445.179V501.402H85.6396C85.703 479.363 89.955 460.735 96.2926 445.179H149.439Z" stroke="black" stroke-opacity="0.01"/>
<path d="M361.285 358.896L345.105 406.121L297.88 422.311L267.713 392.144C263.483 387.995 260.118 383.049 257.811 377.591C255.504 372.134 254.302 366.273 254.274 360.348C254.246 354.424 255.392 348.552 257.647 343.073C259.902 337.593 263.22 332.615 267.41 328.426C271.6 324.237 276.579 320.92 282.059 318.667C287.538 316.413 293.41 315.268 299.335 315.298C305.26 315.327 311.12 316.531 316.577 318.839C322.034 321.147 326.98 324.514 331.128 328.744L361.285 358.896Z" fill="#FFCABD"/>
<path d="M268.066 391.791L268.063 391.787C263.88 387.684 260.553 382.793 258.272 377.397C255.991 372 254.802 366.205 254.774 360.346C254.746 354.487 255.88 348.681 258.109 343.263C260.339 337.845 263.62 332.922 267.764 328.78C271.907 324.638 276.83 321.357 282.249 319.129C287.667 316.901 293.474 315.769 299.333 315.798C305.192 315.827 310.986 317.017 316.383 319.299C321.779 321.582 326.669 324.911 330.771 329.094L330.774 329.098L360.711 359.029L344.711 405.728L298.013 421.737L268.066 391.791Z" stroke="black" stroke-opacity="0.01"/>
<path d="M379.2 440.217C370.789 448.623 359.384 453.346 347.492 453.346C335.601 453.346 324.196 448.623 315.785 440.217L297.88 422.311L361.28 358.896L379.2 376.813C387.604 385.222 392.326 396.624 392.326 408.513C392.326 420.402 387.604 431.804 379.2 440.213V440.217Z" fill="#80DFB5"/>
<path d="M378.846 439.86L378.7 440.006V440.009C370.397 448.231 359.183 452.846 347.492 452.846C335.733 452.846 324.456 448.176 316.138 439.863C316.138 439.863 316.138 439.863 316.138 439.863L298.587 422.311L361.28 359.603L378.846 377.166C387.157 385.482 391.826 396.757 391.826 408.513C391.826 420.269 387.157 431.544 378.846 439.86Z" stroke="black" stroke-opacity="0.01"/>
<path d="M179.621 389.335C122.911 347.292 86.5538 282.473 86.5538 209.735C86.5378 182.779 91.5923 156.061 101.454 130.974C93.6354 132.768 86.3698 136.435 80.2823 141.659C74.1947 146.882 69.4673 153.507 66.5068 160.962C64.4528 166.162 62.6528 171.483 61.1068 176.926C54.364 175.975 47.4955 176.482 40.9657 178.415C34.436 180.347 28.3973 183.659 23.2579 188.126C18.1186 192.594 13.9985 198.113 11.1762 204.31C8.35397 210.507 6.89532 217.238 6.89893 224.048C6.90255 230.858 8.36834 237.587 11.1972 243.781C14.0261 249.976 18.152 255.49 23.2961 259.952C28.4401 264.414 34.4824 267.72 41.0141 269.645C47.5459 271.57 54.415 272.071 61.1568 271.112C69.2918 299.229 84.4264 324.823 105.145 345.499C125.863 366.175 151.487 381.257 179.621 389.335V389.335Z" fill="#FFCABD"/>
<path d="M177.097 388.067C150.091 379.841 125.501 365.107 105.498 345.145C84.8394 324.529 69.7486 299.009 61.6371 270.973L61.5164 270.556L61.0865 270.617C54.4155 271.566 47.6186 271.07 41.1555 269.165C34.6924 267.26 28.7137 263.99 23.6237 259.574C18.5337 255.159 14.4511 249.703 11.652 243.574C8.8529 237.444 7.40251 230.786 7.39893 224.048C7.39536 217.31 8.83867 210.649 11.6313 204.517C14.4239 198.385 18.5007 192.924 23.586 188.504C28.6713 184.083 34.6465 180.806 41.1076 178.894C47.5687 176.982 54.365 176.48 61.037 177.421L61.4687 177.482L61.5878 177.063C63.1292 171.636 64.9238 166.331 66.9715 161.147C69.9021 153.767 74.5817 147.209 80.6079 142.038C86.3931 137.074 93.253 133.53 100.64 131.683C90.985 156.57 86.0379 183.036 86.0538 209.735C86.0539 281.69 121.549 345.903 177.097 388.067Z" stroke="black" stroke-opacity="0.01"/>
<path d="M123.207 283.797C144.231 283.797 161.275 270.225 161.275 253.482C161.275 236.739 144.231 223.167 123.207 223.167C102.182 223.167 85.1389 236.739 85.1389 253.482C85.1389 270.225 102.182 283.797 123.207 283.797Z" fill="#FF889E"/>
<path d="M160.775 253.482C160.775 269.848 144.067 283.297 123.207 283.297C102.346 283.297 85.6389 269.848 85.6389 253.482C85.6389 237.116 102.346 223.667 123.207 223.667C144.067 223.667 160.775 237.116 160.775 253.482Z" stroke="black" stroke-opacity="0.01"/>
<path d="M329.547 283.797C350.571 283.797 367.615 270.225 367.615 253.482C367.615 236.739 350.571 223.167 329.547 223.167C308.523 223.167 291.479 236.739 291.479 253.482C291.479 270.225 308.523 283.797 329.547 283.797Z" fill="#FF889E"/>
<path d="M367.115 253.482C367.115 269.848 350.407 283.297 329.547 283.297C308.686 283.297 291.979 269.848 291.979 253.482C291.979 237.116 308.686 223.667 329.547 223.667C350.407 223.667 367.115 237.116 367.115 253.482Z" stroke="black" stroke-opacity="0.01"/>
<path d="M226.377 252.801C237.537 252.801 246.584 242.677 246.584 230.189C246.584 217.701 237.537 207.577 226.377 207.577C215.217 207.577 206.17 217.701 206.17 230.189C206.17 242.677 215.217 252.801 226.377 252.801Z" fill="#423E4F"/>
<path d="M246.084 230.189C246.084 242.456 237.209 252.301 226.377 252.301C215.544 252.301 206.67 242.456 206.67 230.189C206.67 217.923 215.544 208.077 226.377 208.077C237.209 208.077 246.084 217.923 246.084 230.189Z" stroke="black" stroke-opacity="0.01"/>
<path d="M166.884 224.16C164.895 224.16 162.987 223.37 161.581 221.963C160.174 220.557 159.384 218.649 159.384 216.66C159.384 214.157 158.389 211.756 156.619 209.986C154.85 208.217 152.449 207.222 149.946 207.222C147.443 207.222 145.042 208.217 143.272 209.986C141.502 211.756 140.508 214.157 140.508 216.66C140.508 218.649 139.718 220.557 138.311 221.963C136.905 223.37 134.997 224.16 133.008 224.16C131.019 224.16 129.111 223.37 127.705 221.963C126.298 220.557 125.508 218.649 125.508 216.66C125.508 210.179 128.083 203.963 132.666 199.38C137.249 194.797 143.464 192.222 149.946 192.222C156.427 192.222 162.643 194.797 167.226 199.38C171.809 203.963 174.384 210.179 174.384 216.66C174.384 218.649 173.594 220.557 172.187 221.963C170.781 223.37 168.873 224.16 166.884 224.16Z" fill="#423E4F"/>
<path d="M166.884 223.66C165.027 223.66 163.247 222.923 161.934 221.61C160.621 220.297 159.884 218.517 159.884 216.66C159.884 214.024 158.837 211.497 156.973 209.633C155.109 207.769 152.582 206.722 149.946 206.722C147.31 206.722 144.782 207.769 142.919 209.633C141.055 211.497 140.008 214.024 140.008 216.66C140.008 218.517 139.27 220.297 137.958 221.61C136.645 222.923 134.864 223.66 133.008 223.66C131.151 223.66 129.371 222.923 128.058 221.61C126.745 220.297 126.008 218.517 126.008 216.66C126.008 210.311 128.53 204.223 133.019 199.733C137.508 195.244 143.597 192.722 149.946 192.722C156.295 192.722 162.383 195.244 166.873 199.733C171.362 204.223 173.884 210.311 173.884 216.66C173.884 218.517 173.146 220.297 171.834 221.61C170.521 222.923 168.74 223.66 166.884 223.66Z" stroke="black" stroke-opacity="0.01"/>
<path d="M318.286 224.16C316.297 224.16 314.389 223.37 312.983 221.963C311.576 220.557 310.786 218.649 310.786 216.66C310.786 214.157 309.791 211.756 308.022 209.986C306.252 208.217 303.851 207.222 301.348 207.222C298.845 207.222 296.444 208.217 294.674 209.986C292.904 211.756 291.91 214.157 291.91 216.66C291.91 218.649 291.12 220.557 289.713 221.963C288.307 223.37 286.399 224.16 284.41 224.16C282.421 224.16 280.513 223.37 279.107 221.963C277.7 220.557 276.91 218.649 276.91 216.66C276.91 210.179 279.485 203.963 284.068 199.38C288.651 194.797 294.866 192.222 301.348 192.222C307.829 192.222 314.045 194.797 318.628 199.38C323.211 203.963 325.786 210.179 325.786 216.66C325.786 218.649 324.996 220.557 323.589 221.963C322.183 223.37 320.275 224.16 318.286 224.16Z" fill="#423E4F"/>
<path d="M318.286 223.66C316.429 223.66 314.649 222.923 313.336 221.61C312.023 220.297 311.286 218.517 311.286 216.66C311.286 214.024 310.239 211.497 308.375 209.633C306.511 207.769 303.984 206.722 301.348 206.722C298.712 206.722 296.184 207.769 294.321 209.633C292.457 211.497 291.41 214.024 291.41 216.66C291.41 218.517 290.672 220.297 289.36 221.61C288.047 222.923 286.266 223.66 284.41 223.66C282.553 223.66 280.773 222.923 279.46 221.61C278.147 220.297 277.41 218.517 277.41 216.66C277.41 210.311 279.932 204.223 284.421 199.733C288.91 195.244 294.999 192.722 301.348 192.722C307.697 192.722 313.785 195.244 318.275 199.733C322.764 204.223 325.286 210.311 325.286 216.66C325.286 218.517 324.548 220.297 323.236 221.61C321.923 222.923 320.142 223.66 318.286 223.66Z" stroke="black" stroke-opacity="0.01"/>
<path d="M163.556 315.798C177.334 315.798 188.504 304.628 188.504 290.85C188.504 277.071 177.334 265.902 163.556 265.902C149.777 265.902 138.608 277.071 138.608 290.85C138.608 304.628 149.777 315.798 163.556 315.798Z" fill="#36D39A"/>
<path d="M188.004 290.85C188.004 304.352 177.058 315.298 163.556 315.298C150.054 315.298 139.108 304.352 139.108 290.85C139.108 277.348 150.054 266.402 163.556 266.402C177.058 266.402 188.004 277.348 188.004 290.85Z" stroke="black" stroke-opacity="0.01"/>
<path d="M90.4598 357.854C102.338 357.854 111.967 348.225 111.967 336.347C111.967 324.469 102.338 314.84 90.4598 314.84C78.5818 314.84 68.9528 324.469 68.9528 336.347C68.9528 348.225 78.5818 357.854 90.4598 357.854Z" fill="#36D39A"/>
<path d="M111.467 336.347C111.467 347.949 102.062 357.354 90.4598 357.354C78.858 357.354 69.4528 347.949 69.4528 336.347C69.4528 324.745 78.858 315.34 90.4598 315.34C102.062 315.34 111.467 324.745 111.467 336.347Z" stroke="black" stroke-opacity="0.01"/>
<path d="M114.561 480.66C114.548 468.297 117.031 456.058 121.861 444.678H95.9608C89.4798 460.478 85.1428 479.43 85.1428 501.901H117.027C115.384 494.94 114.557 487.812 114.561 480.66V480.66Z" fill="#FFCABD"/>
<path d="M116.397 501.401H85.6435C85.7069 479.362 89.958 460.739 96.2966 445.178H121.109C116.445 456.423 114.049 468.481 114.061 480.66C114.061 480.66 114.061 480.66 114.061 480.66L116.397 501.401Z" stroke="black" stroke-opacity="0.01"/>
</svg>
