<svg width="512" height="512" viewBox="0 0 512 512" fill="none" xmlns="http://www.w3.org/2000/svg">
<path d="M95.9608 444.679C115.061 398.161 152.751 379.172 152.751 379.172H297.54C297.54 379.172 365.159 413.244 365.159 501.902H149.939L95.9608 444.679Z" fill="#36D39A"/>
<path d="M401.044 21.5878C412.973 20.741 424.834 23.9947 434.661 30.8101C444.489 37.6254 451.693 47.5934 455.081 59.0628C459.431 73.8298 469.423 86.4348 483.471 92.7318C486.275 93.9955 489.17 95.0477 492.131 95.8798C494.876 96.6668 497.367 98.1578 499.358 100.205C501.349 102.252 502.77 104.784 503.481 107.55C504.191 110.315 504.166 113.219 503.408 115.972C502.65 118.725 501.186 121.232 499.16 123.245C479.435 142.77 446.66 159.955 404.76 126.354C391.172 126.354 378.113 121.081 368.336 111.645C358.558 102.208 352.825 89.3457 352.343 75.766C351.86 62.1862 356.667 48.9494 365.751 38.8434C374.835 28.7375 387.486 22.5513 401.04 21.5878H401.044Z" fill="#FAB659"/>
<path d="M13.3488 224.028C13.3488 106.564 108.913 11 226.377 11C343.841 11 439.4 106.564 439.4 224.028H13.3488Z" fill="#FCCB88"/>
<path d="M86.5538 209.74C86.5538 125.364 135.482 51.64 208.354 11.77C99.2998 20.951 13.3488 112.634 13.3488 224.028H87.0428C86.7308 219.301 86.5538 214.541 86.5538 209.74Z" fill="#FAB659"/>
<path d="M398.192 271.589C424.459 271.589 445.753 250.295 445.753 224.028C445.753 197.761 424.459 176.467 398.192 176.467C371.925 176.467 350.631 197.761 350.631 224.028C350.631 250.295 371.925 271.589 398.192 271.589Z" fill="#FFCABD"/>
<path d="M223.672 379.172H152.751C152.751 379.172 115.063 398.16 95.9608 444.678L115.78 465.689C123.1 420.998 162.623 386.851 210.3 386.851C214.774 386.852 219.244 387.158 223.677 387.767L223.672 379.172Z" fill="#00C67F"/>
<path d="M386.093 160.593C382.386 151.431 376.019 143.59 367.813 138.082C359.606 132.574 349.937 129.652 340.054 129.693H112.71C102.762 129.674 93.0379 132.645 84.7996 138.222C76.5613 143.798 70.1891 151.721 66.5098 160.964C58.4608 181.369 54.405 203.129 54.5628 225.064C55.1168 318.69 131.521 395.182 225.146 395.837C253.289 396.024 281.048 389.299 305.984 376.251C330.921 363.204 352.272 344.234 368.164 321.006C384.056 297.778 394.001 271.004 397.127 243.035C400.253 215.065 396.464 186.756 386.093 160.593Z" fill="#FFDCCE"/>
<path d="M149.939 444.679V501.902H85.1389C85.1389 479.431 89.4769 460.474 95.9569 444.679H149.939Z" fill="#FFDCCE"/>
<path d="M361.285 358.896L345.105 406.121L297.88 422.311L267.713 392.144C263.483 387.995 260.118 383.049 257.811 377.591C255.504 372.134 254.302 366.273 254.274 360.348C254.246 354.424 255.392 348.552 257.647 343.073C259.902 337.593 263.22 332.615 267.41 328.426C271.6 324.237 276.579 320.92 282.059 318.667C287.538 316.413 293.41 315.268 299.335 315.298C305.26 315.327 311.12 316.531 316.577 318.839C322.034 321.147 326.98 324.514 331.128 328.744L361.285 358.896Z" fill="#FFCABD"/>
<path d="M379.2 440.217C370.789 448.623 359.384 453.346 347.492 453.346C335.601 453.346 324.196 448.623 315.785 440.217L297.88 422.311L361.28 358.896L379.2 376.813C387.604 385.222 392.326 396.624 392.326 408.513C392.326 420.402 387.604 431.804 379.2 440.213V440.217Z" fill="#80DFB5"/>
<path d="M179.621 389.335C122.911 347.292 86.5538 282.473 86.5538 209.735C86.5378 182.779 91.5923 156.061 101.454 130.974C93.6354 132.768 86.3699 136.435 80.2823 141.659C74.1947 146.882 69.4673 153.507 66.5068 160.962C64.4528 166.162 62.6528 171.483 61.1068 176.926C54.364 175.975 47.4955 176.482 40.9657 178.415C34.436 180.347 28.3973 183.659 23.2579 188.126C18.1186 192.594 13.9985 198.113 11.1762 204.31C8.35397 210.507 6.89532 217.238 6.89893 224.048C6.90255 230.858 8.36834 237.587 11.1972 243.781C14.0261 249.976 18.152 255.49 23.2961 259.952C28.4401 264.414 34.4824 267.72 41.0141 269.645C47.5459 271.57 54.415 272.071 61.1568 271.112C69.2918 299.229 84.4264 324.823 105.145 345.499C125.863 366.175 151.487 381.257 179.621 389.335Z" fill="#FFCABD"/>
<path d="M123.207 283.797C144.231 283.797 161.275 270.225 161.275 253.482C161.275 236.739 144.231 223.167 123.207 223.167C102.182 223.167 85.1389 236.739 85.1389 253.482C85.1389 270.225 102.182 283.797 123.207 283.797Z" fill="#FF889E"/>
<path d="M329.547 283.797C350.571 283.797 367.615 270.225 367.615 253.482C367.615 236.739 350.571 223.167 329.547 223.167C308.523 223.167 291.479 236.739 291.479 253.482C291.479 270.225 308.523 283.797 329.547 283.797Z" fill="#FF889E"/>
<path d="M226.377 252.801C237.537 252.801 246.584 242.677 246.584 230.189C246.584 217.701 237.537 207.577 226.377 207.577C215.217 207.577 206.17 217.701 206.17 230.189C206.17 242.677 215.217 252.801 226.377 252.801Z" fill="#423E4F"/>
<path d="M166.884 224.16C164.895 224.16 162.987 223.37 161.581 221.963C160.174 220.557 159.384 218.649 159.384 216.66C159.384 214.157 158.389 211.756 156.619 209.986C154.85 208.217 152.449 207.222 149.946 207.222C147.443 207.222 145.042 208.217 143.272 209.986C141.502 211.756 140.508 214.157 140.508 216.66C140.508 218.649 139.718 220.557 138.311 221.963C136.905 223.37 134.997 224.16 133.008 224.16C131.019 224.16 129.111 223.37 127.705 221.963C126.298 220.557 125.508 218.649 125.508 216.66C125.508 210.179 128.083 203.963 132.666 199.38C137.249 194.797 143.464 192.222 149.946 192.222C156.427 192.222 162.643 194.797 167.226 199.38C171.809 203.963 174.384 210.179 174.384 216.66C174.384 218.649 173.594 220.557 172.187 221.963C170.781 223.37 168.873 224.16 166.884 224.16Z" fill="#423E4F"/>
<path d="M318.286 224.16C316.297 224.16 314.389 223.37 312.983 221.963C311.576 220.557 310.786 218.649 310.786 216.66C310.786 214.157 309.791 211.756 308.022 209.986C306.252 208.217 303.851 207.222 301.348 207.222C298.845 207.222 296.444 208.217 294.674 209.986C292.904 211.756 291.91 214.157 291.91 216.66C291.91 218.649 291.12 220.557 289.713 221.963C288.307 223.37 286.399 224.16 284.41 224.16C282.421 224.16 280.513 223.37 279.107 221.963C277.7 220.557 276.91 218.649 276.91 216.66C276.91 210.179 279.485 203.963 284.068 199.38C288.651 194.797 294.866 192.222 301.348 192.222C307.829 192.222 314.045 194.797 318.628 199.38C323.211 203.963 325.786 210.179 325.786 216.66C325.786 218.649 324.996 220.557 323.589 221.963C322.183 223.37 320.275 224.16 318.286 224.16Z" fill="#423E4F"/>
<path d="M163.556 315.798C177.334 315.798 188.504 304.628 188.504 290.85C188.504 277.071 177.334 265.902 163.556 265.902C149.777 265.902 138.608 277.071 138.608 290.85C138.608 304.628 149.777 315.798 163.556 315.798Z" fill="#36D39A"/>
<path d="M90.4598 357.854C102.338 357.854 111.967 348.225 111.967 336.347C111.967 324.469 102.338 314.84 90.4598 314.84C78.5818 314.84 68.9528 324.469 68.9528 336.347C68.9528 348.225 78.5818 357.854 90.4598 357.854Z" fill="#36D39A"/>
<path d="M114.561 480.66C114.548 468.297 117.031 456.058 121.861 444.678H95.9608C89.4798 460.478 85.1428 479.43 85.1428 501.901H117.027C115.384 494.94 114.557 487.812 114.561 480.66Z" fill="#FFCABD"/>
</svg>
