<svg width="512" height="512" viewBox="0 0 512 512" fill="none" xmlns="http://www.w3.org/2000/svg">
<path d="M416.725 26.579L356.104 17.168V96.308L416.725 86.9C421.725 86.1245 426.283 83.586 429.576 79.7433C432.868 75.9006 434.677 71.0071 434.676 65.947V47.532C434.677 42.4719 432.868 37.5783 429.576 33.7356C426.283 29.8929 421.725 27.3545 416.725 26.579Z" fill="#FF748F"/>
<path d="M385.506 164.642C344.727 139.535 336.469 103.142 336.469 103.142L291.908 138.717C311.448 175.388 350.129 192.317 368.595 198.575C371.426 199.537 374.503 199.483 377.298 198.423C380.093 197.362 382.432 195.362 383.912 192.764L390.034 182.019C391.685 179.102 392.135 175.657 391.29 172.413C390.445 169.17 388.37 166.383 385.506 164.642Z" fill="#FF748F"/>
<path d="M337.877 152.929C343.454 147.69 349.782 143.312 356.651 139.939C340.482 120.761 336.469 103.139 336.469 103.139L291.907 138.716C300.162 154.209 311.835 166.167 323.956 175.297C326.596 166.768 331.391 159.064 337.877 152.928V152.929Z" fill="#FD5F7E"/>
<path d="M356.104 96.308L410.438 87.872C410.811 85.2404 411 82.586 411.003 79.928V33.548C411.001 30.8887 410.812 28.2329 410.438 25.6L356.106 17.165V96.305L356.104 96.308Z" fill="#FD5F7E"/>
<path d="M354.458 7H216.428C192.361 6.99913 168.87 14.362 149.11 28.1L111.753 54.078C106.216 57.9277 102.053 63.4444 99.8694 69.8247C97.686 76.2051 97.5963 83.1159 99.6136 89.5507C101.631 95.9855 105.65 101.608 111.085 105.6C116.52 109.592 123.087 111.745 129.831 111.745H147.794C156.193 111.745 164.247 115.081 170.186 121.02C176.125 126.959 179.461 135.013 179.461 143.412V194.332L234.001 218.658L291.25 194.332C291.25 136.657 336.316 113.688 362.582 105.199C367.931 103.477 372.597 100.103 375.908 95.5619C379.218 91.0208 381.003 85.5467 381.006 79.927V33.547C381.006 26.5062 378.209 19.7539 373.23 14.7754C368.251 9.79688 361.499 7 354.458 7V7Z" fill="#C1E9FA"/>
<path d="M169.204 44.7909C169.201 35.183 169.847 25.5857 171.138 16.0649C163.388 19.2813 156.004 23.3158 149.111 28.0999L111.754 54.0789C106.217 57.9289 102.054 63.4456 99.871 69.826C97.6877 76.2063 97.5981 83.117 99.6153 89.5518C101.632 95.9866 105.651 101.609 111.086 105.602C116.521 109.594 123.088 111.747 129.832 111.747H147.795C156.194 111.747 164.248 115.083 170.187 121.022C176.126 126.961 179.462 135.015 179.462 143.414V194.333L234.002 218.659L256.208 209.223C204.484 178.159 169.204 116.187 169.204 44.7909Z" fill="#90D3F1"/>
<path d="M328.825 329.812C332.854 324.163 335.019 317.397 335.019 310.458C335.019 303.519 332.854 296.753 328.825 291.104C324.796 285.455 322.631 278.689 322.631 271.75C322.631 264.811 324.796 258.045 328.825 252.396C332.854 246.747 335.019 239.981 335.019 233.042C335.019 226.103 332.854 219.337 328.825 213.688C324.556 207.702 318.919 202.823 312.383 199.457C305.848 196.09 298.602 194.334 291.25 194.334H179.461L94.046 279.749C83.1322 290.663 77.0006 305.465 77 320.9V445.8C77 453.443 78.5054 461.011 81.4302 468.072C84.355 475.133 88.642 481.549 94.0464 486.954C99.4507 492.358 105.867 496.645 112.928 499.57C119.989 502.495 127.557 504 135.2 504H291.25C298.602 504 305.847 502.244 312.383 498.877C318.919 495.511 324.556 490.632 328.825 484.646C332.854 478.997 335.019 472.231 335.019 465.292C335.019 458.353 332.854 451.587 328.825 445.938C324.796 440.289 322.631 433.523 322.631 426.584C322.631 419.645 324.796 412.879 328.825 407.23C332.854 401.581 335.019 394.815 335.019 387.876C335.019 380.937 332.854 374.171 328.825 368.522C324.796 362.872 322.63 356.105 322.63 349.166C322.63 342.226 324.796 335.46 328.825 329.81V329.812Z" fill="#78CBEC"/>
<path d="M110.854 262.939L94.046 279.748C83.1319 290.662 77.0003 305.465 77 320.9V445.8C77 453.443 78.5054 461.011 81.4302 468.072C84.355 475.133 88.642 481.549 94.0464 486.954C99.4507 492.358 105.867 496.645 112.928 499.57C119.989 502.495 127.557 504 135.2 504H291.25C301.504 503.997 311.466 500.579 319.561 494.285C210.819 454.266 130.228 367.538 110.854 262.939Z" fill="#34B5E1"/>
<path d="M240.606 246H215.091C205.982 246 197.246 249.619 190.805 256.06L130.584 316.281C129.976 316.886 129.493 317.605 129.165 318.397C128.837 319.19 128.669 320.039 128.671 320.897V411.455C128.671 422.295 132.977 432.691 140.642 440.356C148.307 448.021 158.703 452.328 169.543 452.328H240.605C245.115 452.328 249.582 451.44 253.749 449.714C257.916 447.988 261.702 445.458 264.891 442.268C268.081 439.079 270.611 435.293 272.337 431.126C274.063 426.959 274.951 422.492 274.951 417.982V280.348C274.951 275.837 274.063 271.371 272.338 267.204C270.612 263.037 268.082 259.25 264.893 256.06C261.703 252.871 257.917 250.341 253.75 248.615C249.583 246.888 245.117 246 240.606 246Z" fill="#C1E9FA"/>
<path d="M128.671 321.291V411.458C128.671 422.298 132.977 432.694 140.642 440.359C148.307 448.024 158.703 452.331 169.543 452.331H238.449C189.433 418.41 151.127 373.238 128.671 321.291Z" fill="#90D3F1"/>
</svg>
