<svg width="512" height="512" viewBox="0 0 512 512" fill="none" xmlns="http://www.w3.org/2000/svg">
<path d="M0.5 0.5H511.5V511.5H0.5V0.5Z" stroke="black" stroke-opacity="0.01"/>
<path d="M416.725 26.579L356.104 17.168V96.308L416.725 86.9C421.725 86.1245 426.283 83.586 429.576 79.7433C432.868 75.9006 434.677 71.0071 434.676 65.947V47.532C434.677 42.4719 432.868 37.5783 429.576 33.7356C426.283 29.8929 421.725 27.3545 416.725 26.579V26.579Z" fill="#FF748F"/>
<path d="M356.604 17.7516L416.648 27.0731L416.725 26.579L416.648 27.0731C421.531 27.8303 425.981 30.3088 429.196 34.0609C432.41 37.813 434.177 42.5911 434.176 47.5319V65.947C434.177 70.8878 432.41 75.6659 429.196 79.418C425.981 83.1701 421.531 85.6487 416.648 86.4059L356.604 95.7244V17.7516Z" stroke="black" stroke-opacity="0.01"/>
<path d="M385.506 164.642C344.727 139.535 336.469 103.142 336.469 103.142L291.908 138.717C311.448 175.388 350.129 192.317 368.595 198.575C371.426 199.537 374.503 199.483 377.298 198.423C380.093 197.362 382.432 195.362 383.912 192.764L390.034 182.019C391.685 179.102 392.135 175.657 391.29 172.413C390.445 169.17 388.37 166.383 385.506 164.642V164.642Z" fill="#FF748F"/>
<path d="M336.176 104.016C336.241 104.256 336.323 104.55 336.424 104.895C336.732 105.95 337.218 107.481 337.928 109.395C339.348 113.222 341.666 118.583 345.264 124.73C352.459 137.024 364.773 152.464 385.244 165.068L385.506 164.642L385.246 165.069C388 166.743 389.994 169.422 390.806 172.539C391.618 175.657 391.185 178.969 389.599 181.773L383.478 192.517C382.055 195.013 379.807 196.936 377.121 197.955C374.434 198.974 371.476 199.026 368.756 198.102L368.755 198.102C350.381 191.875 312.054 175.091 292.545 138.848L336.176 104.016Z" stroke="black" stroke-opacity="0.01"/>
<path d="M337.877 152.929C343.454 147.69 349.782 143.312 356.651 139.939C340.482 120.761 336.469 103.139 336.469 103.139L291.907 138.716C300.162 154.209 311.835 166.167 323.956 175.297C326.596 166.768 331.391 159.064 337.877 152.928V152.929Z" fill="#FD5F7E"/>
<path d="M337.533 152.565C331.157 158.597 326.4 166.13 323.693 174.471C311.914 165.502 300.617 153.845 292.544 138.847L336.176 104.013C336.181 104.03 336.186 104.047 336.191 104.065C336.334 104.591 336.556 105.362 336.873 106.346C337.507 108.313 338.52 111.131 340.04 114.551C343.028 121.273 347.978 130.319 355.86 139.774C349.508 142.957 343.626 146.999 338.377 151.785V151.767L337.533 152.565Z" stroke="black" stroke-opacity="0.01"/>
<path d="M356.104 96.308L410.438 87.872C410.811 85.2404 411 82.586 411.003 79.928V33.548C411.001 30.8887 410.812 28.2329 410.438 25.6L356.106 17.165V96.305L356.104 96.308Z" fill="#FD5F7E"/>
<path d="M356.606 95.7241V17.7487L409.994 26.0371C410.331 28.5265 410.501 31.0359 410.503 33.5484V79.9275C410.5 82.4387 410.33 84.9467 409.994 87.435L356.606 95.7241Z" stroke="black" stroke-opacity="0.01"/>
<path d="M354.458 7H216.428C192.361 6.99913 168.87 14.362 149.11 28.1L111.753 54.078C106.216 57.9277 102.053 63.4444 99.8694 69.8247C97.686 76.2051 97.5963 83.1159 99.6136 89.5507C101.631 95.9855 105.65 101.608 111.085 105.6C116.52 109.592 123.087 111.745 129.831 111.745H147.794C156.193 111.745 164.247 115.081 170.186 121.02C176.125 126.959 179.461 135.013 179.461 143.412V194.332L234.001 218.658L291.25 194.332C291.25 136.657 336.316 113.688 362.582 105.199C367.931 103.477 372.597 100.103 375.908 95.5619C379.218 91.0208 381.003 85.5467 381.006 79.927V33.547C381.006 26.5062 378.209 19.7539 373.23 14.7754C368.251 9.79688 361.499 7 354.458 7V7Z" fill="#C1E9FA"/>
<path d="M216.428 7.5H354.458C361.366 7.5 367.991 10.2442 372.876 15.1289C377.761 20.0137 380.506 26.6388 380.506 33.547V79.9268C380.503 85.4407 378.752 90.8117 375.503 95.2673C372.255 99.7229 367.678 103.034 362.429 104.723L362.428 104.723C336.159 113.213 290.923 136.226 290.75 194.001L234.006 218.113L179.961 194.008V143.412C179.961 134.881 176.572 126.699 170.539 120.666C164.507 114.634 156.325 111.245 147.794 111.245H129.831C123.194 111.245 116.73 109.126 111.381 105.197C106.031 101.268 102.076 95.7344 100.091 89.4011C98.1053 83.0679 98.1935 76.2663 100.343 69.9866C102.491 63.707 106.589 58.2774 112.038 54.4885L112.038 54.4885L149.395 28.5105C169.072 14.8308 192.463 7.49914 216.428 7.5Z" stroke="black" stroke-opacity="0.01"/>
<path d="M169.204 44.7909C169.201 35.183 169.847 25.5857 171.138 16.0649C163.388 19.2813 156.004 23.3158 149.111 28.0999L111.754 54.0789C106.217 57.9289 102.054 63.4456 99.871 69.826C97.6877 76.2063 97.5981 83.117 99.6153 89.5518C101.632 95.9866 105.651 101.609 111.086 105.602C116.521 109.594 123.088 111.747 129.832 111.747H147.795C156.194 111.747 164.248 115.083 170.187 121.022C176.126 126.961 179.462 135.015 179.462 143.414V194.333L234.002 218.659L256.208 209.223C204.484 178.159 169.204 116.187 169.204 44.7909Z" fill="#90D3F1"/>
<path d="M168.704 44.7911C168.701 35.4517 169.31 26.1225 170.527 16.8634C163.103 20.0094 156.022 23.9123 149.396 28.5107L112.039 54.4894L111.754 54.0789L112.039 54.4894C106.59 58.2786 102.493 63.7083 100.344 69.9879C98.1952 76.2675 98.107 83.069 100.092 89.4022C102.078 95.7354 106.033 101.269 111.382 105.199C116.731 109.128 123.195 111.247 129.832 111.247H147.795C156.326 111.247 164.508 114.636 170.54 120.668C176.573 126.701 179.962 134.883 179.962 143.414V194.008L234.007 218.114L255.113 209.145C203.683 177.819 168.704 115.962 168.704 44.7911ZM168.704 44.7911L169.204 44.7909L168.704 44.7911Z" stroke="black" stroke-opacity="0.01"/>
<path d="M328.825 329.812C332.854 324.163 335.019 317.397 335.019 310.458C335.019 303.519 332.854 296.753 328.825 291.104C324.796 285.455 322.631 278.689 322.631 271.75C322.631 264.811 324.796 258.045 328.825 252.396C332.854 246.747 335.019 239.981 335.019 233.042C335.019 226.103 332.854 219.337 328.825 213.688C324.556 207.702 318.919 202.823 312.383 199.457C305.848 196.09 298.602 194.334 291.25 194.334H179.461L94.046 279.749C83.1322 290.663 77.0006 305.465 77 320.9V445.8C77 453.443 78.5054 461.011 81.4302 468.072C84.355 475.133 88.642 481.549 94.0464 486.954C99.4507 492.358 105.867 496.645 112.928 499.57C119.989 502.495 127.557 504 135.2 504H291.25C298.602 504 305.847 502.244 312.383 498.877C318.919 495.511 324.556 490.632 328.825 484.646C332.854 478.997 335.019 472.231 335.019 465.292C335.019 458.353 332.854 451.587 328.825 445.938C324.796 440.289 322.631 433.523 322.631 426.584C322.631 419.645 324.796 412.879 328.825 407.23C332.854 401.581 335.019 394.815 335.019 387.876C335.019 380.937 332.854 374.171 328.825 368.522C324.796 362.872 322.63 356.106 322.63 349.166C322.63 342.226 324.796 335.46 328.825 329.81V329.812Z" fill="#78CBEC"/>
<path d="M328.578 329.296L328.418 329.52C324.328 335.254 322.13 342.122 322.13 349.166C322.13 356.21 324.328 363.078 328.418 368.812C332.386 374.377 334.519 381.041 334.519 387.876C334.519 394.711 332.386 401.375 328.418 406.94C324.329 412.674 322.131 419.541 322.131 426.584C322.131 433.627 324.329 440.494 328.418 446.228C332.386 451.793 334.519 458.457 334.519 465.292C334.519 472.127 332.386 478.791 328.418 484.356C324.195 490.276 318.619 495.103 312.154 498.433C305.689 501.763 298.522 503.5 291.25 503.5H135.2C127.623 503.5 120.12 502.008 113.119 499.108C106.119 496.208 99.7579 491.958 94.3999 486.6C89.042 481.242 84.7918 474.881 81.8921 467.881C78.9924 460.88 77.5 453.377 77.5 445.8V320.9C77.5006 305.598 83.5795 290.923 94.3996 280.103L179.668 194.834H291.25C298.522 194.834 305.689 196.571 312.154 199.901C318.619 203.231 324.195 208.057 328.418 213.978C332.386 219.543 334.519 226.207 334.519 233.042C334.519 239.877 332.386 246.541 328.418 252.106C324.329 257.84 322.131 264.707 322.131 271.75C322.131 278.793 324.329 285.66 328.418 291.394C332.386 296.959 334.519 303.623 334.519 310.458C334.519 317.2 332.444 323.777 328.578 329.296Z" stroke="black" stroke-opacity="0.01"/>
<path d="M110.854 262.939L94.046 279.748C83.1319 290.662 77.0003 305.465 77 320.9V445.8C77 453.443 78.5054 461.011 81.4302 468.072C84.355 475.133 88.642 481.549 94.0464 486.954C99.4507 492.358 105.867 496.645 112.928 499.57C119.989 502.495 127.557 504 135.2 504H291.25C301.504 503.997 311.466 500.579 319.561 494.285C210.819 454.266 130.228 367.538 110.854 262.939Z" fill="#34B5E1"/>
<path d="M94.3996 280.101L110.537 263.963C130.202 368.071 210.409 454.35 318.534 494.439C310.66 500.315 301.091 503.498 291.25 503.5H135.2C127.623 503.5 120.12 502.008 113.119 499.108C106.119 496.208 99.7579 491.958 94.3999 486.6C89.042 481.242 84.7918 474.881 81.8921 467.881C78.9924 460.88 77.5 453.377 77.5 445.8V320.9C77.5003 305.598 83.5792 290.922 94.3996 280.102L94.046 279.748L94.3996 280.101Z" stroke="black" stroke-opacity="0.01"/>
<path d="M240.606 246H215.091C205.982 246 197.246 249.619 190.805 256.06L130.584 316.281C129.976 316.886 129.493 317.605 129.165 318.397C128.837 319.19 128.669 320.039 128.671 320.897V411.455C128.671 422.295 132.977 432.691 140.642 440.356C148.307 448.021 158.703 452.328 169.543 452.328H240.605C245.115 452.328 249.582 451.44 253.749 449.714C257.916 447.988 261.702 445.458 264.891 442.268C268.081 439.079 270.611 435.293 272.337 431.126C274.063 426.959 274.951 422.492 274.951 417.982V280.348C274.951 275.837 274.063 271.371 272.338 267.204C270.612 263.037 268.082 259.25 264.893 256.06C261.703 252.871 257.917 250.341 253.75 248.615C249.583 246.888 245.117 246 240.606 246V246Z" fill="#C1E9FA"/>
<path d="M130.937 316.636L130.938 316.635L191.159 256.414C197.506 250.066 206.115 246.5 215.091 246.5H240.606C245.051 246.5 249.452 247.376 253.559 249.077C257.665 250.778 261.396 253.271 264.539 256.414C267.682 259.557 270.175 263.289 271.876 267.395C273.576 271.502 274.451 275.903 274.451 280.348V417.982C274.451 422.427 273.576 426.828 271.875 430.934C270.174 435.041 267.681 438.772 264.538 441.915C261.395 445.058 257.664 447.551 253.557 449.252C249.451 450.953 245.05 451.828 240.605 451.828H169.543C158.836 451.828 148.567 447.574 140.996 440.003C133.424 432.431 129.171 422.162 129.171 411.455L129.171 320.897L129.171 320.896C129.169 320.104 129.324 319.32 129.627 318.589C129.93 317.857 130.375 317.194 130.937 316.636Z" stroke="black" stroke-opacity="0.01"/>
<path d="M128.671 321.291V411.458C128.671 422.298 132.977 432.694 140.642 440.359C148.307 448.024 158.703 452.331 169.543 452.331H238.449C189.433 418.41 151.127 373.238 128.671 321.291V321.291Z" fill="#90D3F1"/>
<path d="M129.171 323.682C151.586 374.338 189.084 418.446 236.854 451.831H169.543C158.836 451.831 148.567 447.577 140.996 440.006C133.424 432.434 129.171 422.165 129.171 411.458V323.682Z" stroke="black" stroke-opacity="0.01"/>
</svg>
