<svg width="512" height="512" viewBox="0 0 512 512" fill="none" xmlns="http://www.w3.org/2000/svg">
<path d="M0.5 0.5H511.5V511.5H0.5V0.5Z" stroke="black" stroke-opacity="0.01"/>
<path d="M214.633 360.307H298.367V478.04H214.633V360.307Z" fill="#B2B0BC"/>
<path d="M215.133 360.807H297.867V477.54H215.133V360.807Z" stroke="black" stroke-opacity="0.01"/>
<path d="M505 69V293.336L256.5 326.752L8 293.336V69C8 53.8827 14.0053 39.3845 24.6949 28.6949C35.3845 18.0053 49.8827 12 65 12H448C463.117 12 477.616 18.0053 488.305 28.6949C498.995 39.3845 505 53.8827 505 69V69Z" fill="#5C586F"/>
<path d="M504.5 69V292.899L256.5 326.247L8.5 292.899V69C8.5 54.0153 14.4527 39.6443 25.0485 29.0485C35.6443 18.4527 50.0153 12.5 65 12.5H448C462.985 12.5 477.356 18.4527 487.952 29.0485C498.547 39.6443 504.5 54.0153 504.5 69Z" stroke="black" stroke-opacity="0.01"/>
<path d="M94.353 225.34C94.2524 145.579 125.475 68.9683 181.3 12H65C49.8827 12 35.3845 18.0053 24.6949 28.6949C14.0053 39.3845 8 53.8827 8 69L8 293.336L105.257 306.413C98.0063 279.999 94.3401 252.73 94.357 225.339L94.353 225.34Z" fill="#4F4C5F"/>
<path d="M93.853 225.341L93.8538 225.979L93.8573 225.978C93.897 252.947 97.5011 279.793 104.576 305.817L8.5 292.899V69C8.5 54.0153 14.4527 39.6443 25.0485 29.0485C35.6443 18.4527 50.0153 12.5 65 12.5H180.113C124.717 69.4728 93.7527 145.845 93.853 225.341Z" stroke="black" stroke-opacity="0.01"/>
<path d="M68.3599 72.3628H444.64V326.752H68.3599V72.3628Z" fill="#80DFB5"/>
<path d="M68.8599 72.8628H444.14V326.252H68.8599V72.8628Z" stroke="black" stroke-opacity="0.01"/>
<path d="M214.633 360.307H298.367V417.113H214.633V360.307Z" fill="#9F9BAC"/>
<path d="M215.133 360.807H297.867V416.613H215.133V360.807Z" stroke="black" stroke-opacity="0.01"/>
<path d="M505 293.336V330.113C505 345.23 498.995 359.728 488.305 370.418C477.616 381.108 463.117 387.113 448 387.113H65C49.8827 387.113 35.3845 381.108 24.6949 370.418C14.0053 359.728 8 345.23 8 330.113V293.336H505Z" fill="#C7C5CB"/>
<path d="M504.5 293.836V330.113C504.5 345.098 498.547 359.469 487.952 370.064C477.356 380.66 462.985 386.613 448 386.613H65C50.0153 386.613 35.6443 380.66 25.0485 370.064C14.4527 359.469 8.5 345.098 8.5 330.113V293.836H504.5Z" stroke="black" stroke-opacity="0.01"/>
<path d="M256.5 49.798C260.707 49.798 264.117 46.3877 264.117 42.181C264.117 37.9742 260.707 34.564 256.5 34.564C252.293 34.564 248.883 37.9742 248.883 42.181C248.883 46.3877 252.293 49.798 256.5 49.798Z" fill="#80DFB5"/>
<path d="M263.617 42.181C263.617 46.1116 260.43 49.298 256.5 49.298C252.569 49.298 249.383 46.1116 249.383 42.181C249.383 38.2504 252.569 35.064 256.5 35.064C260.43 35.064 263.617 38.2504 263.617 42.181Z" stroke="black" stroke-opacity="0.01"/>
<path d="M340.893 136.492V210.623L256.5 233.645L172.107 210.623V136.492H340.893Z" fill="#4F4C5F"/>
<path d="M340.393 136.992V210.241L256.5 233.127L172.607 210.241V136.992H340.393Z" stroke="black" stroke-opacity="0.01"/>
<path d="M138.768 136.492V247.642C138.768 249.831 139.199 251.999 140.037 254.022C140.875 256.044 142.103 257.882 143.651 259.43C145.199 260.978 147.036 262.205 149.059 263.043C151.081 263.881 153.249 264.312 155.438 264.312C157.627 264.312 159.795 263.881 161.817 263.043C163.84 262.205 165.678 260.978 167.226 259.43C168.773 257.882 170.001 256.044 170.839 254.022C171.677 251.999 172.108 249.831 172.108 247.642V136.492H138.768Z" fill="#F9ED80"/>
<path d="M139.268 247.642V136.992H171.608V247.642C171.608 249.766 171.19 251.868 170.377 253.83C169.565 255.792 168.373 257.575 166.872 259.076C165.37 260.578 163.588 261.769 161.626 262.581C159.664 263.394 157.562 263.812 155.438 263.812C153.315 263.812 151.212 263.394 149.25 262.581C147.288 261.769 145.506 260.578 144.004 259.076C142.503 257.575 141.312 255.792 140.499 253.83C139.686 251.868 139.268 249.766 139.268 247.642Z" stroke="black" stroke-opacity="0.01"/>
<path d="M195.129 159.079C195.126 151.504 195.806 143.945 197.16 136.492H172.106V210.624L211.973 221.499C200.855 202.583 195.036 181.021 195.129 159.079V159.079Z" fill="#423E4F"/>
<path d="M194.629 159.078C194.538 180.702 200.164 201.958 210.928 220.696L172.606 210.242V136.992H196.562C195.273 144.283 194.626 151.673 194.629 159.078Z" stroke="black" stroke-opacity="0.01"/>
<path d="M365.51 108.622H147.49C141.225 108.622 135.217 111.111 130.787 115.541C126.357 119.971 123.868 125.979 123.868 132.244V140.738C123.868 147.003 126.357 153.011 130.787 157.441C135.217 161.871 141.225 164.36 147.49 164.36H365.51C368.612 164.36 371.684 163.749 374.55 162.562C377.416 161.375 380.02 159.635 382.213 157.441C384.407 155.248 386.147 152.644 387.334 149.778C388.521 146.912 389.132 143.84 389.132 140.738V132.244C389.132 125.979 386.643 119.971 382.213 115.541C377.783 111.111 371.775 108.622 365.51 108.622V108.622Z" fill="#5C586F"/>
<path d="M147.49 109.122H365.51C371.643 109.122 377.524 111.558 381.86 115.894C386.196 120.231 388.632 126.112 388.632 132.244V140.738C388.632 143.775 388.034 146.781 386.872 149.586C385.71 152.392 384.007 154.941 381.86 157.088C379.713 159.235 377.164 160.938 374.359 162.1C371.553 163.262 368.547 163.86 365.51 163.86H147.49C141.358 163.86 135.477 161.424 131.14 157.088C126.804 152.752 124.368 146.87 124.368 140.738V132.244C124.368 126.112 126.804 120.231 131.14 115.894C135.477 111.558 141.358 109.122 147.49 109.122Z" stroke="black" stroke-opacity="0.01"/>
<path d="M340.893 210.623V229.475C340.894 233.046 340.192 236.581 338.827 239.88C337.462 243.179 335.46 246.177 332.935 248.702C330.411 251.228 327.414 253.231 324.116 254.597C320.817 255.964 317.281 256.667 313.711 256.667H199.289C195.719 256.667 192.183 255.964 188.885 254.597C185.586 253.23 182.589 251.227 180.065 248.702C177.541 246.177 175.539 243.179 174.173 239.88C172.808 236.581 172.106 233.045 172.107 229.475V210.623H340.893Z" fill="#FF748F"/>
<path d="M172.607 229.475V211.123H340.393V229.475C340.394 232.98 339.705 236.451 338.365 239.689C337.025 242.928 335.06 245.87 332.582 248.349C330.104 250.828 327.162 252.794 323.924 254.135C320.686 255.477 317.216 256.167 313.711 256.167H199.289C195.784 256.167 192.314 255.477 189.076 254.135C185.838 252.794 182.896 250.827 180.418 248.349C177.941 245.87 175.975 242.927 174.635 239.689C173.295 236.451 172.606 232.98 172.607 229.475V229.475Z" stroke="black" stroke-opacity="0.01"/>
<path d="M256.5 360.307C267.591 360.307 276.582 351.316 276.582 340.225C276.582 329.134 267.591 320.143 256.5 320.143C245.409 320.143 236.418 329.134 236.418 340.225C236.418 351.316 245.409 360.307 256.5 360.307Z" fill="#5C586F"/>
<path d="M276.082 340.225C276.082 351.04 267.315 359.807 256.5 359.807C245.685 359.807 236.918 351.04 236.918 340.225C236.918 329.41 245.685 320.643 256.5 320.643C267.315 320.643 276.082 329.41 276.082 340.225Z" stroke="black" stroke-opacity="0.01"/>
<path d="M319.034 443.432H193.966C185.5 443.432 177.382 446.795 171.396 452.781C165.41 458.767 162.047 466.886 162.047 475.351C162.047 478.46 162.659 481.539 163.849 484.411C165.039 487.284 166.783 489.893 168.981 492.092C171.18 494.29 173.789 496.034 176.662 497.224C179.534 498.414 182.613 499.026 185.722 499.026H327.277C333.556 499.026 339.578 496.532 344.018 492.092C348.458 487.652 350.952 481.63 350.952 475.351C350.952 471.159 350.127 467.009 348.523 463.136C346.919 459.264 344.568 455.745 341.604 452.781C338.64 449.817 335.121 447.466 331.249 445.862C327.376 444.258 323.226 443.432 319.034 443.432V443.432Z" fill="#C7C5CB"/>
<path d="M193.966 443.932H319.034C323.16 443.932 327.245 444.745 331.057 446.324C334.869 447.902 338.333 450.217 341.25 453.134C344.168 456.052 346.482 459.516 348.061 463.327C349.64 467.139 350.452 471.225 350.452 475.351C350.452 481.498 348.01 487.392 343.664 491.738C339.318 496.084 333.423 498.526 327.277 498.526H185.722C182.678 498.526 179.665 497.927 176.853 496.762C174.041 495.597 171.487 493.89 169.335 491.738C167.183 489.586 165.476 487.032 164.311 484.22C163.146 481.408 162.547 478.395 162.547 475.351C162.547 467.018 165.857 459.027 171.749 453.135C177.641 447.242 185.633 443.932 193.966 443.932Z" stroke="black" stroke-opacity="0.01"/>
<path d="M94.3529 225.34C94.2708 171.615 108.434 118.829 135.4 72.3618H68.3599V326.751H111.625C100.162 294.17 94.3217 259.878 94.3529 225.34V225.34Z" fill="#36D39A"/>
<path d="M93.8529 225.34C93.822 259.7 99.5926 293.816 110.92 326.251H68.8599V72.8618H134.533C107.805 119.223 93.7711 171.816 93.8529 225.34Z" stroke="black" stroke-opacity="0.01"/>
<path d="M101.963 293.336H8V330.113C8 345.23 14.0053 359.728 24.6949 370.418C35.3845 381.108 49.8827 387.113 65 387.113H140.718C122.628 358.25 109.527 326.548 101.963 293.336V293.336Z" fill="#B2B0BC"/>
<path d="M101.564 293.836C109.087 326.668 122.014 358.021 139.816 386.613H65C50.0153 386.613 35.6443 380.66 25.0485 370.064C14.4527 359.469 8.5 345.098 8.5 330.113V293.836H101.564Z" stroke="black" stroke-opacity="0.01"/>
<path d="M202.107 453.705C202.111 450.254 202.465 446.812 203.164 443.432H193.964C189.772 443.432 185.622 444.258 181.749 445.862C177.876 447.466 174.358 449.817 171.394 452.781C168.43 455.745 166.079 459.264 164.475 463.136C162.871 467.009 162.045 471.159 162.045 475.351C162.045 481.63 164.539 487.652 168.979 492.092C173.419 496.532 179.441 499.026 185.72 499.026H226.026C211.257 487.459 202.105 471.426 202.105 453.705H202.107Z" fill="#B2B0BC"/>
<path d="M224.599 498.526H185.72C179.574 498.526 173.679 496.084 169.333 491.738C164.987 487.392 162.545 481.498 162.545 475.351C162.545 471.225 163.358 467.14 164.937 463.328C166.516 459.516 168.83 456.052 171.747 453.135C174.665 450.217 178.128 447.903 181.94 446.324C185.752 444.745 189.838 443.932 193.964 443.932H202.554C201.96 446.988 201.644 450.092 201.61 453.205H201.605V453.705C201.605 471.155 210.39 486.957 224.599 498.526Z" stroke="black" stroke-opacity="0.01"/>
<path d="M195.129 159.079C195.083 141.698 198.712 124.503 205.776 108.622H147.49C141.225 108.622 135.217 111.111 130.787 115.541C126.357 119.971 123.868 125.979 123.868 132.244V140.738C123.868 147.003 126.357 153.011 130.787 157.441C135.217 161.871 141.225 164.36 147.49 164.36H195.243C195.171 162.609 195.129 160.849 195.129 159.079V159.079Z" fill="#4F4C5F"/>
<path d="M194.723 163.86H147.49C141.358 163.86 135.477 161.424 131.14 157.088C126.804 152.752 124.368 146.87 124.368 140.738V132.244C124.368 126.112 126.804 120.231 131.14 115.894C135.477 111.558 141.358 109.122 147.49 109.122H205.009C198.12 124.871 194.584 141.885 194.629 159.08C194.629 160.682 194.663 162.275 194.723 163.86Z" stroke="black" stroke-opacity="0.01"/>
<path d="M206.268 210.623H172.108V229.475C172.106 233.046 172.808 236.581 174.174 239.88C175.539 243.179 177.541 246.177 180.066 248.702C182.59 251.228 185.587 253.231 188.885 254.597C192.184 255.964 195.719 256.667 199.29 256.667H244.89C228.04 245.148 214.68 229.22 206.269 210.623H206.268Z" fill="#FD5F7E"/>
<path d="M172.608 229.475V211.123H205.947C214.182 229.192 227.075 244.736 243.293 256.167H199.29C195.785 256.167 192.315 255.477 189.077 254.135C185.839 252.794 182.897 250.828 180.419 248.349C177.941 245.87 175.976 242.928 174.636 239.689C173.296 236.451 172.606 232.98 172.608 229.475V229.475Z" stroke="black" stroke-opacity="0.01"/>
</svg>
