<svg width="512" height="512" viewBox="0 0 512 512" fill="none" xmlns="http://www.w3.org/2000/svg">
<path d="M214.633 360.307H298.367V478.04H214.633V360.307Z" fill="#B2B0BC"/>
<path d="M505 69V293.336L256.5 326.752L8 293.336V69C8 53.8827 14.0053 39.3845 24.6949 28.6949C35.3845 18.0053 49.8827 12 65 12H448C463.117 12 477.616 18.0053 488.305 28.6949C498.995 39.3845 505 53.8827 505 69Z" fill="#5C586F"/>
<path d="M94.353 225.34C94.2524 145.579 125.475 68.9683 181.3 12H65C49.8827 12 35.3845 18.0053 24.6949 28.6949C14.0053 39.3845 8 53.8827 8 69L8 293.336L105.257 306.413C98.0063 279.999 94.3401 252.73 94.357 225.339L94.353 225.34Z" fill="#4F4C5F"/>
<path d="M68.3599 72.3628H444.64V326.752H68.3599V72.3628Z" fill="#80DFB5"/>
<path d="M214.633 360.307H298.367V417.113H214.633V360.307Z" fill="#9F9BAC"/>
<path d="M505 293.336V330.113C505 345.23 498.995 359.728 488.305 370.418C477.616 381.108 463.117 387.113 448 387.113H65C49.8827 387.113 35.3845 381.108 24.6949 370.418C14.0053 359.728 8 345.23 8 330.113V293.336H505Z" fill="#C7C5CB"/>
<path d="M256.5 49.798C260.707 49.798 264.117 46.3877 264.117 42.181C264.117 37.9742 260.707 34.564 256.5 34.564C252.293 34.564 248.883 37.9742 248.883 42.181C248.883 46.3877 252.293 49.798 256.5 49.798Z" fill="#80DFB5"/>
<path d="M340.893 136.492V210.623L256.5 233.645L172.107 210.623V136.492H340.893Z" fill="#4F4C5F"/>
<path d="M138.768 136.492V247.642C138.768 249.831 139.199 251.999 140.037 254.022C140.875 256.044 142.103 257.882 143.651 259.43C145.199 260.978 147.036 262.205 149.059 263.043C151.081 263.881 153.249 264.312 155.438 264.312C157.627 264.312 159.795 263.881 161.817 263.043C163.84 262.205 165.678 260.978 167.226 259.43C168.773 257.882 170.001 256.044 170.839 254.022C171.677 251.999 172.108 249.831 172.108 247.642V136.492H138.768Z" fill="#F9ED80"/>
<path d="M195.129 159.079C195.126 151.504 195.806 143.945 197.16 136.492H172.106V210.624L211.973 221.499C200.855 202.583 195.036 181.021 195.129 159.079Z" fill="#423E4F"/>
<path d="M365.51 108.622H147.49C141.225 108.622 135.217 111.111 130.787 115.541C126.357 119.971 123.868 125.979 123.868 132.244V140.738C123.868 147.003 126.357 153.011 130.787 157.441C135.217 161.871 141.225 164.36 147.49 164.36H365.51C368.612 164.36 371.684 163.749 374.55 162.562C377.416 161.375 380.02 159.635 382.213 157.441C384.407 155.248 386.147 152.644 387.334 149.778C388.521 146.912 389.132 143.84 389.132 140.738V132.244C389.132 125.979 386.643 119.971 382.213 115.541C377.783 111.111 371.775 108.622 365.51 108.622Z" fill="#5C586F"/>
<path d="M340.893 210.623V229.475C340.894 233.046 340.192 236.581 338.827 239.88C337.462 243.179 335.46 246.177 332.935 248.702C330.411 251.228 327.414 253.231 324.116 254.597C320.817 255.964 317.281 256.667 313.711 256.667H199.289C195.719 256.667 192.183 255.964 188.885 254.597C185.586 253.23 182.589 251.227 180.065 248.702C177.541 246.177 175.539 243.179 174.173 239.88C172.808 236.581 172.106 233.045 172.107 229.475V210.623H340.893Z" fill="#FF748F"/>
<path d="M256.5 360.307C267.591 360.307 276.582 351.316 276.582 340.225C276.582 329.134 267.591 320.143 256.5 320.143C245.409 320.143 236.418 329.134 236.418 340.225C236.418 351.316 245.409 360.307 256.5 360.307Z" fill="#5C586F"/>
<path d="M319.034 443.432H193.966C185.5 443.432 177.382 446.795 171.396 452.781C165.41 458.767 162.047 466.886 162.047 475.351C162.047 478.46 162.659 481.539 163.849 484.411C165.039 487.284 166.783 489.893 168.981 492.092C171.18 494.29 173.789 496.034 176.662 497.224C179.534 498.414 182.613 499.026 185.722 499.026H327.277C333.556 499.026 339.578 496.532 344.018 492.092C348.458 487.652 350.952 481.63 350.952 475.351C350.952 471.159 350.127 467.009 348.523 463.136C346.919 459.264 344.568 455.745 341.604 452.781C338.64 449.817 335.121 447.466 331.249 445.862C327.376 444.258 323.226 443.432 319.034 443.432Z" fill="#C7C5CB"/>
<path d="M94.3529 225.34C94.2708 171.615 108.434 118.829 135.4 72.3618H68.3599V326.751H111.625C100.162 294.17 94.3217 259.878 94.3529 225.34Z" fill="#36D39A"/>
<path d="M101.963 293.336H8V330.113C8 345.23 14.0053 359.728 24.6949 370.418C35.3845 381.108 49.8827 387.113 65 387.113H140.718C122.628 358.25 109.527 326.548 101.963 293.336Z" fill="#B2B0BC"/>
<path d="M202.107 453.705C202.111 450.254 202.465 446.812 203.164 443.432H193.964C189.772 443.432 185.622 444.258 181.749 445.862C177.876 447.466 174.358 449.817 171.394 452.781C168.43 455.745 166.079 459.264 164.475 463.136C162.871 467.009 162.045 471.159 162.045 475.351C162.045 481.63 164.539 487.652 168.979 492.092C173.419 496.532 179.441 499.026 185.72 499.026H226.026C211.257 487.459 202.105 471.426 202.105 453.705H202.107Z" fill="#B2B0BC"/>
<path d="M195.129 159.079C195.083 141.698 198.712 124.503 205.776 108.622H147.49C141.225 108.622 135.217 111.111 130.787 115.541C126.357 119.971 123.868 125.979 123.868 132.244V140.738C123.868 147.003 126.357 153.011 130.787 157.441C135.217 161.871 141.225 164.36 147.49 164.36H195.243C195.171 162.609 195.129 160.849 195.129 159.079Z" fill="#4F4C5F"/>
<path d="M206.268 210.623H172.108V229.475C172.106 233.046 172.808 236.581 174.174 239.88C175.539 243.179 177.541 246.177 180.066 248.702C182.59 251.228 185.587 253.231 188.885 254.597C192.184 255.964 195.719 256.667 199.29 256.667H244.89C228.04 245.148 214.68 229.22 206.269 210.623H206.268Z" fill="#FD5F7E"/>
</svg>
