<svg width="512" height="512" viewBox="0 0 512 512" fill="none" xmlns="http://www.w3.org/2000/svg">
<path d="M0.5 0.5H511.5V511.5H0.5V0.5Z" stroke="black" stroke-opacity="0.01"/>
<path d="M69.667 419.709V467.144C69.667 471.08 70.4422 474.977 71.9483 478.613C73.4545 482.249 75.662 485.553 78.445 488.336C81.228 491.119 84.5318 493.327 88.168 494.833C91.8041 496.339 95.7013 497.114 99.637 497.114H140.39C144.326 497.114 148.223 496.339 151.859 494.833C155.495 493.327 158.799 491.119 161.582 488.336C164.365 485.553 166.573 482.249 168.079 478.613C169.585 474.977 170.36 471.08 170.36 467.144V419.709H69.667Z" fill="#5C586F"/>
<path d="M70.167 467.144V420.209H169.86V467.144C169.86 471.014 169.098 474.846 167.617 478.422C166.136 481.997 163.965 485.246 161.228 487.982C158.492 490.719 155.243 492.89 151.668 494.371C148.092 495.852 144.26 496.614 140.39 496.614H99.637C95.7669 496.614 91.9348 495.852 88.3593 494.371C84.7838 492.89 81.5351 490.719 78.7986 487.982C76.062 485.246 73.8913 481.997 72.4103 478.422C70.9293 474.846 70.167 471.014 70.167 467.144Z" stroke="black" stroke-opacity="0.01"/>
<path d="M457.333 419.709V467.144C457.333 475.093 454.176 482.716 448.555 488.336C442.935 493.956 435.312 497.114 427.363 497.114H386.61C382.674 497.114 378.777 496.339 375.141 494.833C371.505 493.327 368.201 491.119 365.418 488.336C362.635 485.553 360.428 482.249 358.921 478.613C357.415 474.977 356.64 471.08 356.64 467.144V419.709H457.333Z" fill="#5C586F"/>
<path d="M456.833 420.209V467.144C456.833 474.96 453.728 482.456 448.202 487.982C442.675 493.509 435.179 496.614 427.363 496.614H386.61C382.74 496.614 378.908 495.852 375.332 494.371C371.757 492.89 368.508 490.719 365.772 487.982C363.035 485.246 360.864 481.997 359.383 478.422C357.902 474.846 357.14 471.014 357.14 467.144V420.209H456.833Z" stroke="black" stroke-opacity="0.01"/>
<path d="M141.477 54.957V161.647H204.563V78.086H322.437V161.651H385.523V54.957C385.522 44.3594 381.311 34.1962 373.817 26.7029C366.323 19.2096 356.16 15 345.562 15H181.438C170.84 15 160.677 19.2096 153.183 26.7029C145.689 34.1962 141.478 44.3594 141.477 54.957V54.957Z" fill="#5C586F"/>
<path d="M204.563 77.586H204.063V78.086V161.147H141.977V54.957C141.978 44.492 146.136 34.456 153.536 27.0565C160.937 19.6569 170.973 15.5 181.438 15.5H345.562C356.027 15.5 366.064 19.6569 373.464 27.0565C380.864 34.456 385.022 44.492 385.023 54.957V161.151H322.937V78.086V77.586H322.437H204.563Z" stroke="black" stroke-opacity="0.01"/>
<path d="M101.179 419.709H69.667V467.144C69.667 471.08 70.4422 474.977 71.9483 478.613C73.4545 482.249 75.662 485.553 78.445 488.336C81.228 491.119 84.5318 493.327 88.168 494.833C91.8041 496.339 95.7013 497.114 99.637 497.114H140.39C141.754 497.112 143.117 497.017 144.468 496.83C126.387 475.423 111.958 449.716 101.179 419.709Z" fill="#4F4C5F"/>
<path d="M70.167 467.144V420.209H100.828C111.492 449.793 125.712 475.208 143.492 496.446C142.461 496.556 141.426 496.612 140.389 496.614H99.637C95.7669 496.614 91.9348 495.852 88.3593 494.371C84.7838 492.89 81.5351 490.719 78.7986 487.982C76.062 485.246 73.8913 481.997 72.4103 478.422C70.9293 474.846 70.167 471.014 70.167 467.144Z" stroke="black" stroke-opacity="0.01"/>
<path d="M170.346 126.057C170.346 81.1269 186.916 41.0709 212.785 15.0029H181.438C170.841 15.0029 160.678 19.2121 153.184 26.7048C145.69 34.1974 141.479 44.3598 141.477 54.9569V161.65H173.917C171.53 149.936 170.334 138.011 170.346 126.057V126.057Z" fill="#4F4C5F"/>
<path d="M169.846 126.056C169.834 137.84 170.993 149.596 173.306 161.15H141.977V54.957C141.977 54.957 141.977 54.957 141.977 54.9569C141.979 44.4925 146.137 34.4572 153.537 27.0583C160.938 19.6595 170.974 15.5029 181.438 15.5029H211.593C186.102 41.6895 169.846 81.4945 169.846 126.056Z" stroke="black" stroke-opacity="0.01"/>
<path d="M457.333 78.0859H385.522V141.693H141.477V78.0859H69.667C62.4877 78.0859 55.3787 79.5001 48.7459 82.2476C42.1132 84.9951 36.0865 89.0222 31.0102 94.0989C25.9338 99.1757 21.9072 105.203 19.1601 111.836C16.4131 118.469 14.9995 125.578 15 132.757V394.007C15 401.186 16.414 408.294 19.1613 414.927C21.9086 421.559 25.9353 427.586 31.0117 432.662C36.088 437.738 42.1144 441.765 48.7469 444.512C55.3794 447.259 62.4881 448.673 69.667 448.673H457.334C471.832 448.673 485.737 442.914 495.989 432.662C506.241 422.41 512 408.505 512 394.007V132.757C512 118.258 506.24 104.353 495.988 94.1015C485.736 83.8494 471.831 78.0899 457.332 78.0899L457.333 78.0859Z" fill="#FF748F"/>
<path d="M69.667 78.5859H140.977V141.693V142.193H141.477H385.522H386.022V141.693V78.5859H456.691L456.69 78.5899H457.332C471.698 78.5899 485.476 84.2968 495.634 94.455C505.793 104.613 511.5 118.391 511.5 132.757V394.007C511.5 408.373 505.793 422.15 495.635 432.308C485.477 442.466 471.7 448.173 457.334 448.173H69.667C62.5537 448.173 55.5101 446.772 48.9383 444.05C42.3664 441.328 36.3951 437.338 31.3652 432.308C26.3353 427.279 22.3454 421.307 19.6232 414.736C16.9011 408.164 15.5 401.12 15.5 394.007V132.757C15.4995 125.643 16.9002 118.599 19.6221 112.027C22.344 105.455 26.3338 99.4828 31.3637 94.4525C36.3937 89.4222 42.3652 85.4319 48.9373 82.7095C55.5094 79.9871 62.5534 78.5859 69.667 78.5859Z" stroke="black" stroke-opacity="0.01"/>
<path d="M325.418 269.986H289.551V234.119C289.551 229.844 287.852 225.743 284.829 222.72C281.806 219.697 277.705 217.998 273.43 217.998H253.57C249.294 217.998 245.194 219.697 242.171 222.72C239.147 225.743 237.449 229.844 237.449 234.119V269.986H201.582C199.465 269.986 197.369 270.403 195.413 271.213C193.457 272.023 191.68 273.211 190.183 274.708C188.686 276.205 187.498 277.982 186.688 279.938C185.878 281.894 185.461 283.99 185.461 286.107V305.968C185.461 310.244 187.16 314.344 190.183 317.367C193.206 320.39 197.306 322.089 201.582 322.089H237.449V357.957C237.449 362.232 239.148 366.333 242.171 369.356C245.194 372.379 249.295 374.077 253.57 374.077H273.431C277.706 374.077 281.807 372.379 284.83 369.356C287.853 366.333 289.552 362.232 289.552 357.957V322.089H325.419C329.695 322.089 333.795 320.391 336.818 317.367C339.841 314.344 341.54 310.244 341.54 305.968V286.107C341.539 281.831 339.841 277.731 336.817 274.708C333.794 271.685 329.694 269.986 325.418 269.986V269.986Z" fill="white"/>
<path d="M289.051 269.986V270.486H289.551H325.418C329.561 270.486 333.534 272.132 336.464 275.062C339.393 277.991 341.039 281.964 341.04 286.107V305.968C341.04 310.111 339.394 314.084 336.465 317.014C333.535 319.943 329.562 321.589 325.419 321.589H289.552H289.052V322.089V357.957C289.052 362.1 287.406 366.073 284.476 369.002C281.547 371.931 277.574 373.577 273.431 373.577H253.57C249.427 373.577 245.454 371.931 242.525 369.002C239.595 366.073 237.949 362.1 237.949 357.957V322.089V321.589H237.449H201.582C197.439 321.589 193.466 319.943 190.537 317.013C187.607 314.084 185.961 310.111 185.961 305.968V286.107C185.961 284.056 186.365 282.024 187.15 280.129C187.935 278.234 189.086 276.512 190.536 275.061C191.987 273.611 193.709 272.46 195.604 271.675C197.499 270.89 199.531 270.486 201.582 270.486H237.449H237.949V269.986V234.119C237.949 229.976 239.595 226.003 242.524 223.073C245.454 220.144 249.427 218.498 253.57 218.498H273.43C277.573 218.498 281.546 220.144 284.476 223.073C287.405 226.003 289.051 229.976 289.051 234.119V269.986Z" stroke="black" stroke-opacity="0.01"/>
<path d="M76.612 253.509C76.612 190.256 86.983 130.603 106.331 78.0859H69.667C62.4877 78.0859 55.3787 79.5001 48.7459 82.2476C42.1132 84.9951 36.0865 89.0222 31.0102 94.0989C25.9338 99.1757 21.9072 105.203 19.1601 111.836C16.4131 118.469 14.9995 125.578 15 132.757V394.007C15 408.506 20.7595 422.41 31.0116 432.662C41.2636 442.914 55.1684 448.674 69.667 448.674H113.376C88.713 398.222 76.612 332.974 76.612 253.509V253.509Z" fill="#FD5F7E"/>
<path d="M105.615 78.5859C86.4034 130.999 76.112 190.472 76.112 253.509C76.112 332.642 88.1045 397.73 112.576 448.174H69.667C55.301 448.174 41.5234 442.467 31.3651 432.309C21.2069 422.151 15.5 408.373 15.5 394.007V132.757C15.4995 125.643 16.9002 118.599 19.6221 112.027C22.344 105.455 26.3338 99.4828 31.3637 94.4525C36.3937 89.4222 42.3652 85.4319 48.9373 82.7095C55.5094 79.9871 62.5534 78.5859 69.667 78.5859H105.615Z" stroke="black" stroke-opacity="0.01"/>
</svg>
