<svg width="512" height="512" viewBox="0 0 512 512" fill="none" xmlns="http://www.w3.org/2000/svg">
<path d="M69.667 419.709V467.144C69.667 471.08 70.4422 474.977 71.9483 478.613C73.4545 482.249 75.662 485.553 78.445 488.336C81.228 491.119 84.5318 493.327 88.168 494.833C91.8041 496.339 95.7013 497.114 99.637 497.114H140.39C144.326 497.114 148.223 496.339 151.859 494.833C155.495 493.327 158.799 491.119 161.582 488.336C164.365 485.553 166.573 482.249 168.079 478.613C169.585 474.977 170.36 471.08 170.36 467.144V419.709H69.667Z" fill="#5C586F"/>
<path d="M457.333 419.709V467.144C457.333 475.093 454.176 482.716 448.555 488.336C442.935 493.956 435.312 497.114 427.363 497.114H386.61C382.674 497.114 378.777 496.339 375.141 494.833C371.505 493.327 368.201 491.119 365.418 488.336C362.635 485.553 360.428 482.249 358.921 478.613C357.415 474.977 356.64 471.08 356.64 467.144V419.709H457.333Z" fill="#5C586F"/>
<path d="M141.477 54.957V161.647H204.563V78.086H322.437V161.651H385.523V54.957C385.522 44.3594 381.311 34.1962 373.817 26.7029C366.323 19.2096 356.16 15 345.562 15H181.438C170.84 15 160.677 19.2096 153.183 26.7029C145.689 34.1962 141.478 44.3594 141.477 54.957Z" fill="#5C586F"/>
<path d="M101.179 419.709H69.667V467.144C69.667 471.08 70.4422 474.977 71.9483 478.613C73.4545 482.249 75.662 485.553 78.445 488.336C81.228 491.119 84.5318 493.327 88.168 494.833C91.8041 496.339 95.7013 497.114 99.637 497.114H140.39C141.754 497.112 143.117 497.017 144.468 496.83C126.387 475.423 111.958 449.716 101.179 419.709Z" fill="#4F4C5F"/>
<path d="M170.346 126.057C170.346 81.1269 186.916 41.0709 212.785 15.0029H181.438C170.841 15.0029 160.678 19.2121 153.184 26.7048C145.69 34.1974 141.479 44.3598 141.477 54.9569V161.65H173.917C171.53 149.936 170.334 138.011 170.346 126.057Z" fill="#4F4C5F"/>
<path d="M457.333 78.0859H385.522V141.693H141.477V78.0859H69.667C62.4877 78.0859 55.3787 79.5001 48.7459 82.2476C42.1132 84.9951 36.0865 89.0222 31.0102 94.0989C25.9338 99.1757 21.9072 105.203 19.1601 111.836C16.4131 118.469 14.9995 125.578 15 132.757V394.007C15 401.186 16.414 408.294 19.1613 414.927C21.9086 421.559 25.9353 427.586 31.0117 432.662C36.088 437.738 42.1144 441.765 48.7469 444.512C55.3794 447.259 62.4881 448.673 69.667 448.673H457.334C471.832 448.673 485.737 442.914 495.989 432.662C506.241 422.41 512 408.505 512 394.007V132.757C512 118.258 506.24 104.353 495.988 94.1015C485.736 83.8494 471.831 78.0899 457.332 78.0899L457.333 78.0859Z" fill="#FF748F"/>
<path d="M325.418 269.986H289.551V234.119C289.551 229.844 287.852 225.743 284.829 222.72C281.806 219.697 277.705 217.998 273.43 217.998H253.57C249.294 217.998 245.194 219.697 242.171 222.72C239.147 225.743 237.449 229.844 237.449 234.119V269.986H201.582C199.465 269.986 197.369 270.403 195.413 271.213C193.457 272.023 191.68 273.211 190.183 274.708C188.686 276.205 187.498 277.982 186.688 279.938C185.878 281.894 185.461 283.99 185.461 286.107V305.968C185.461 310.244 187.16 314.344 190.183 317.367C193.206 320.39 197.306 322.089 201.582 322.089H237.449V357.957C237.449 362.232 239.148 366.333 242.171 369.356C245.194 372.379 249.295 374.077 253.57 374.077H273.431C277.706 374.077 281.807 372.379 284.83 369.356C287.853 366.333 289.552 362.232 289.552 357.957V322.089H325.419C329.695 322.089 333.795 320.391 336.818 317.367C339.841 314.344 341.54 310.244 341.54 305.968V286.107C341.539 281.831 339.841 277.731 336.817 274.708C333.794 271.685 329.693 269.986 325.418 269.986Z" fill="white"/>
<path d="M76.612 253.509C76.612 190.256 86.983 130.603 106.331 78.0859H69.667C62.4877 78.0859 55.3787 79.5001 48.7459 82.2476C42.1132 84.9951 36.0865 89.0222 31.0102 94.0989C25.9338 99.1757 21.9072 105.203 19.1601 111.836C16.4131 118.469 14.9995 125.578 15 132.757V394.007C15 408.506 20.7595 422.41 31.0116 432.662C41.2636 442.914 55.1684 448.674 69.667 448.674H113.376C88.713 398.222 76.612 332.974 76.612 253.509Z" fill="#FD5F7E"/>
</svg>
