<svg width="512" height="512" viewBox="0 0 512 512" fill="none" xmlns="http://www.w3.org/2000/svg">
<path d="M419.297 208.908C440.891 208.908 458.397 191.402 458.397 169.808C458.397 148.214 440.891 130.708 419.297 130.708C397.702 130.708 380.197 148.214 380.197 169.808C380.197 191.402 397.702 208.908 419.297 208.908Z" fill="#FFBD86"/>
<path d="M117.426 130.805L117.416 130.794C124.048 95.9715 142.619 64.5535 169.93 41.954C197.24 19.3545 231.578 6.98926 267.026 6.98926C302.474 6.98926 336.812 19.3545 364.122 41.954C391.433 64.5535 410.004 95.9715 416.637 130.794L416.627 130.805H117.427H117.426Z" fill="#FF9E8E"/>
<path d="M151.285 258.23C146.516 252.837 139.823 249.529 132.642 249.016C125.462 248.503 118.366 250.826 112.88 255.487C107.393 260.147 103.953 266.774 103.297 273.943C102.642 281.112 104.824 288.252 109.375 293.83C129.871 317.827 155.551 336.855 184.475 349.479L203.825 326.138L184.475 287.238L151.285 258.23Z" fill="#FED2A4"/>
<path d="M382.768 258.23C387.536 252.837 394.229 249.529 401.41 249.016C408.591 248.503 415.686 250.826 421.173 255.487C426.659 260.147 430.1 266.774 430.755 273.943C431.41 281.112 429.228 288.252 424.678 293.83C404.181 317.827 378.502 336.855 349.578 349.479L330.228 326.138L349.578 287.238L382.768 258.23Z" fill="#FFBD86"/>
<path d="M307.932 365.275L267.026 382.681L231.154 365.275L189.732 382.681C194.415 395.103 202.018 406.216 211.9 415.081V441.336L239.463 472.67L267.026 441.336L294.589 472.67L322.152 441.336V415.077C323.264 414.077 324.346 413.063 325.398 412.012C333.719 403.691 340.17 393.692 344.321 382.681L307.932 365.275Z" fill="#5C586F"/>
<path d="M215.045 372.044L189.732 382.681C194.415 395.103 202.019 406.216 211.9 415.081V441.337L239.463 472.671L240.427 471.571C225.343 443.295 216.105 409.071 215.045 372.044Z" fill="#4F4C5F"/>
<path d="M349.579 239.434V353.634C349.589 363.555 347.807 373.396 344.32 382.684H189.733C186.245 373.396 184.463 363.555 184.474 353.634V239.434H349.579Z" fill="#FF9DD3"/>
<path d="M267.026 350.307C288.436 350.307 305.792 332.951 305.792 311.541C305.792 290.131 288.436 272.775 267.026 272.775C245.616 272.775 228.26 290.131 228.26 311.541C228.26 332.951 245.616 350.307 267.026 350.307Z" fill="#FFBD86"/>
<path d="M173.665 38.9999C171.512 30.055 166.467 22.0708 159.313 16.2861C152.159 10.5014 143.295 7.23963 134.098 7.00702C124.901 6.77441 115.884 9.58392 108.446 14.9996C101.009 20.4153 95.5668 28.1343 92.9647 36.9589C89.4997 48.7229 81.5397 58.7589 70.3497 63.7789C68.1154 64.7857 65.8089 65.624 63.4497 66.2869C61.2628 66.9138 59.2779 68.1015 57.6918 69.7322C56.1056 71.3629 54.9734 73.38 54.4074 75.5834C53.8414 77.7868 53.8613 80.0998 54.4651 82.2931C55.0689 84.4864 56.2357 86.4837 57.8497 88.0869C73.0707 103.154 98.0497 116.472 129.934 92.9579C124.106 104.964 119.895 117.689 117.41 130.801L117.42 130.812H149.177C158.114 81.4929 188.665 38.8119 231.685 11.1369C210.572 16.1666 190.784 25.6685 173.658 39.0009L173.665 38.9999Z" fill="#FB8978"/>
<path d="M214.933 364.892C214.933 307.36 216.081 267.203 224.14 239.434H184.474V353.634C184.463 363.555 186.245 373.396 189.733 382.684H215.576C215.154 376.829 214.94 370.899 214.933 364.895V364.892Z" fill="#FF88CA"/>
<path d="M419.299 159.276C419.283 180.469 414.844 201.425 406.265 220.804C397.686 240.183 385.156 257.557 369.477 271.816C353.799 286.075 335.316 296.904 315.212 303.61C295.108 310.317 273.826 312.753 252.727 310.762C231.627 308.772 211.176 302.399 192.681 292.052C174.186 281.705 158.054 267.611 145.318 250.671C132.582 233.732 123.522 214.321 118.718 193.68C113.915 173.039 113.472 151.622 117.42 130.8L117.43 130.81C117.43 130.81 174.769 36.6377 267.03 110.996C359.289 36.6377 416.63 130.81 416.63 130.81L416.64 130.8C418.417 140.188 419.309 149.723 419.303 159.279L419.299 159.276Z" fill="#FED2A4"/>
<path d="M184.472 220.144C201.295 220.144 214.933 209.283 214.933 195.886C214.933 182.489 201.295 171.628 184.472 171.628C167.649 171.628 154.011 182.489 154.011 195.886C154.011 209.283 167.649 220.144 184.472 220.144Z" fill="#FF889E"/>
<path d="M349.581 220.144C366.404 220.144 380.042 209.283 380.042 195.886C380.042 182.489 366.404 171.628 349.581 171.628C332.757 171.628 319.12 182.489 319.12 195.886C319.12 209.283 332.757 220.144 349.581 220.144Z" fill="#FF889E"/>
<path d="M216.724 176.99C214.735 176.99 212.827 176.2 211.42 174.793C210.014 173.387 209.224 171.479 209.224 169.49C209.224 167.633 208.486 165.853 207.173 164.54C205.861 163.227 204.08 162.49 202.224 162.49C200.367 162.49 198.587 163.227 197.274 164.54C195.961 165.853 195.224 167.633 195.224 169.49C195.224 171.479 194.433 173.387 193.027 174.793C191.62 176.2 189.713 176.99 187.724 176.99C185.735 176.99 183.827 176.2 182.42 174.793C181.014 173.387 180.224 171.479 180.224 169.49C180.224 166.601 180.793 163.74 181.898 161.071C183.004 158.402 184.624 155.976 186.667 153.933C188.71 151.891 191.135 150.27 193.805 149.164C196.474 148.059 199.335 147.49 202.224 147.49C205.113 147.49 207.974 148.059 210.643 149.164C213.312 150.27 215.737 151.891 217.78 153.933C219.823 155.976 221.443 158.402 222.549 161.071C223.655 163.74 224.224 166.601 224.224 169.49C224.224 171.479 223.433 173.387 222.027 174.793C220.62 176.2 218.713 176.99 216.724 176.99Z" fill="#423E4F"/>
<path d="M346.327 176.99C344.338 176.99 342.43 176.2 341.023 174.793C339.617 173.387 338.827 171.479 338.827 169.49C338.827 167.633 338.089 165.853 336.776 164.54C335.464 163.227 333.683 162.49 331.827 162.49C329.97 162.49 328.19 163.227 326.877 164.54C325.564 165.853 324.827 167.633 324.827 169.49C324.827 171.479 324.036 173.387 322.63 174.793C321.223 176.2 319.316 176.99 317.327 176.99C315.338 176.99 313.43 176.2 312.023 174.793C310.617 173.387 309.827 171.479 309.827 169.49C309.827 163.655 312.145 158.059 316.27 153.933C320.396 149.808 325.992 147.49 331.827 147.49C337.661 147.49 343.257 149.808 347.383 153.933C351.509 158.059 353.827 163.655 353.827 169.49C353.827 171.479 353.036 173.387 351.63 174.793C350.223 176.2 348.316 176.99 346.327 176.99Z" fill="#423E4F"/>
<path d="M267.026 200.943C263.039 200.942 259.099 200.086 255.47 198.434C251.842 196.781 248.61 194.371 245.992 191.364C245.345 190.621 244.85 189.758 244.536 188.825C244.223 187.891 244.096 186.905 244.164 185.922C244.231 184.94 244.492 183.98 244.93 183.098C245.368 182.216 245.976 181.429 246.719 180.782C247.461 180.135 248.324 179.64 249.258 179.327C250.191 179.013 251.178 178.886 252.16 178.954C253.143 179.021 254.103 179.282 254.985 179.72C255.867 180.158 256.654 180.766 257.301 181.509C258.51 182.901 260.004 184.017 261.682 184.782C263.359 185.547 265.182 185.943 267.026 185.943C268.87 185.943 270.692 185.547 272.37 184.782C274.048 184.017 275.542 182.901 276.751 181.509C277.398 180.766 278.185 180.158 279.067 179.72C279.949 179.282 280.909 179.021 281.891 178.954C282.874 178.886 283.86 179.013 284.794 179.327C285.727 179.64 286.59 180.135 287.333 180.782C288.075 181.429 288.683 182.216 289.122 183.098C289.56 183.98 289.82 184.94 289.888 185.922C289.955 186.905 289.829 187.891 289.515 188.825C289.201 189.758 288.707 190.621 288.06 191.364C285.442 194.371 282.21 196.781 278.581 198.434C274.953 200.086 271.013 200.942 267.026 200.943Z" fill="#423E4F"/>
<path d="M267.027 448.832C265.038 448.832 263.13 448.042 261.724 446.635C260.317 445.229 259.527 443.321 259.527 441.332V408.756C259.527 406.767 260.317 404.859 261.724 403.453C263.13 402.046 265.038 401.256 267.027 401.256C269.016 401.256 270.924 402.046 272.33 403.453C273.737 404.859 274.527 406.767 274.527 408.756V441.332C274.527 443.321 273.737 445.229 272.33 446.635C270.924 448.042 269.016 448.832 267.027 448.832Z" fill="#4F4C5F"/>
<path d="M322.152 441.332V476.432C322.152 483.742 319.248 490.753 314.079 495.922C308.91 501.091 301.899 503.995 294.589 503.995C287.279 503.995 280.268 501.091 275.099 495.922C269.93 490.753 267.026 483.742 267.026 476.432V441.332H322.152Z" fill="#FFBD86"/>
<path d="M267.025 441.332V476.432C267.025 480.052 266.312 483.636 264.927 486.98C263.542 490.324 261.512 493.363 258.952 495.922C256.393 498.481 253.354 500.512 250.01 501.897C246.666 503.282 243.082 503.995 239.462 503.995C235.843 503.995 232.259 503.282 228.915 501.897C225.57 500.512 222.532 498.481 219.972 495.922C217.413 493.363 215.383 490.324 213.998 486.98C212.612 483.636 211.899 480.052 211.899 476.432V441.332H267.025Z" fill="#FED2A4"/>
<path d="M146.474 160.856C146.474 136.726 151.654 112.877 161.663 90.9209C133.263 104.812 117.428 130.806 117.428 130.806L117.418 130.796V130.811C116.55 130.749 115.669 130.711 114.758 130.711C104.388 130.711 94.4425 134.83 87.1098 142.163C79.7772 149.496 75.6577 159.441 75.6577 169.811C75.6577 180.181 79.7772 190.126 87.1098 197.459C94.4425 204.791 104.388 208.911 114.758 208.911C117.443 208.924 120.121 208.619 122.735 208.004C130.547 231.165 143.824 252.103 161.442 269.047C179.06 285.99 200.5 298.44 223.949 305.342C176.797 271.817 146.474 219.564 146.474 160.856Z" fill="#FFBD86"/>
<path d="M227.347 441.332H211.899V476.432C211.897 481.682 213.394 486.823 216.215 491.251C219.037 495.678 223.064 499.207 227.823 501.423C232.582 503.639 237.876 504.45 243.08 503.759C248.284 503.068 253.183 500.905 257.199 497.524C244.214 480.569 234.126 461.582 227.344 441.331L227.347 441.332Z" fill="#FFBD86"/>
</svg>
