<svg width="512" height="512" viewBox="0 0 512 512" fill="none" xmlns="http://www.w3.org/2000/svg">
<path d="M0.5 0.5H511.5V511.5H0.5V0.5Z" stroke="black" stroke-opacity="0.01"/>
<path d="M419.297 208.908C440.891 208.908 458.397 191.402 458.397 169.808C458.397 148.214 440.891 130.708 419.297 130.708C397.702 130.708 380.197 148.214 380.197 169.808C380.197 191.402 397.702 208.908 419.297 208.908Z" fill="#FFBD86"/>
<path d="M457.897 169.808C457.897 191.126 440.615 208.408 419.297 208.408C397.979 208.408 380.697 191.126 380.697 169.808C380.697 148.49 397.979 131.208 419.297 131.208C440.615 131.208 457.897 148.49 457.897 169.808Z" stroke="black" stroke-opacity="0.01"/>
<path d="M117.426 130.805L117.416 130.794C124.048 95.9715 142.619 64.5535 169.93 41.954C197.24 19.3545 231.578 6.98926 267.026 6.98926C302.474 6.98926 336.812 19.3545 364.122 41.954C391.433 64.5535 410.004 95.9715 416.637 130.794L416.627 130.805H117.427H117.426Z" fill="#FF9E8E"/>
<path d="M363.804 42.3392C390.872 64.7384 409.327 95.8291 416.033 130.305H118.019C124.725 95.8291 143.18 64.7384 170.248 42.3392C197.469 19.8139 231.694 7.48926 267.026 7.48926C302.358 7.48926 336.583 19.8139 363.804 42.3392Z" stroke="black" stroke-opacity="0.01"/>
<path d="M151.285 258.23C146.516 252.837 139.823 249.529 132.642 249.016C125.462 248.503 118.366 250.826 112.88 255.487C107.393 260.147 103.953 266.774 103.297 273.943C102.642 281.112 104.824 288.252 109.375 293.83C129.871 317.827 155.551 336.855 184.475 349.479L203.825 326.138L184.475 287.238L151.285 258.23Z" fill="#FED2A4"/>
<path d="M150.91 258.561L150.932 258.585L150.956 258.606L184.071 287.549L203.232 326.069L184.33 348.87C155.618 336.277 130.124 317.351 109.759 293.509C105.293 288.033 103.152 281.025 103.795 273.988C104.439 266.949 107.816 260.444 113.203 255.868C118.59 251.292 125.557 249.011 132.607 249.514C139.657 250.018 146.228 253.266 150.91 258.561Z" stroke="black" stroke-opacity="0.01"/>
<path d="M382.768 258.23C387.536 252.837 394.229 249.529 401.41 249.016C408.591 248.503 415.686 250.826 421.173 255.487C426.659 260.147 430.1 266.774 430.755 273.943C431.41 281.112 429.228 288.252 424.678 293.83C404.181 317.827 378.502 336.855 349.578 349.479L330.228 326.138L349.578 287.238L382.768 258.23Z" fill="#FFBD86"/>
<path d="M383.097 258.606L383.121 258.585L383.142 258.561C387.824 253.266 394.396 250.018 401.446 249.514C408.496 249.011 415.462 251.292 420.849 255.868C426.236 260.444 429.614 266.949 430.257 273.988C430.9 281.025 428.759 288.033 424.294 293.509C403.928 317.351 378.435 336.277 349.722 348.87L330.82 326.069L349.981 287.549L383.097 258.606Z" stroke="black" stroke-opacity="0.01"/>
<path d="M307.932 365.275L267.026 382.681L231.154 365.275L189.732 382.681C194.415 395.103 202.018 406.216 211.9 415.081V441.336L239.463 472.67L267.026 441.336L294.589 472.67L322.152 441.336V415.077C323.264 414.077 324.346 413.063 325.398 412.012C333.719 403.691 340.17 393.692 344.321 382.681L307.932 365.275Z" fill="#5C586F"/>
<path d="M294.589 471.913L267.402 441.006L267.026 440.579L266.651 441.006L239.463 471.913L212.4 441.147V415.081V414.858L212.234 414.709C202.531 406.005 195.039 395.12 190.371 382.955L231.14 365.823L266.808 383.131L267.013 383.23L267.222 383.141L307.92 365.823L343.691 382.933C339.559 393.709 333.207 403.496 325.045 411.658C324 412.702 322.925 413.71 321.818 414.705L321.652 414.854V415.077V441.147L294.589 471.913Z" stroke="black" stroke-opacity="0.01"/>
<path d="M215.045 372.044L189.732 382.681C194.415 395.103 202.019 406.216 211.9 415.081V441.337L239.463 472.671L240.427 471.571C225.343 443.295 216.105 409.071 215.045 372.044Z" fill="#4F4C5F"/>
<path d="M212.4 415.081V414.858L212.234 414.709C202.532 406.005 195.039 395.12 190.371 382.955L214.568 372.787C215.725 409.475 224.897 443.398 239.824 471.501L239.463 471.913L212.4 441.148V415.081Z" stroke="black" stroke-opacity="0.01"/>
<path d="M349.579 239.434V353.634C349.589 363.555 347.807 373.396 344.32 382.684H189.733C186.245 373.396 184.463 363.555 184.474 353.634V239.434H349.579Z" fill="#FF9DD3"/>
<path d="M184.974 353.634V239.934H349.079V353.634V353.635C349.089 363.38 347.359 373.048 343.973 382.184H190.08C186.693 373.048 184.964 363.38 184.974 353.635V353.634Z" stroke="black" stroke-opacity="0.01"/>
<path d="M267.026 350.307C288.436 350.307 305.792 332.951 305.792 311.541C305.792 290.131 288.436 272.775 267.026 272.775C245.616 272.775 228.26 290.131 228.26 311.541C228.26 332.951 245.616 350.307 267.026 350.307Z" fill="#FFBD86"/>
<path d="M305.292 311.541C305.292 332.675 288.159 349.807 267.026 349.807C245.892 349.807 228.76 332.675 228.76 311.541C228.76 290.407 245.892 273.275 267.026 273.275C288.159 273.275 305.292 290.407 305.292 311.541Z" stroke="black" stroke-opacity="0.01"/>
<path d="M173.665 38.9999C171.512 30.055 166.467 22.0708 159.313 16.2861C152.159 10.5014 143.295 7.23963 134.098 7.00702C124.901 6.77441 115.884 9.58392 108.446 14.9996C101.009 20.4153 95.5668 28.1343 92.9647 36.9589C89.4997 48.7229 81.5397 58.7589 70.3497 63.7789C68.1154 64.7857 65.8089 65.624 63.4497 66.2869C61.2628 66.9138 59.2779 68.1015 57.6918 69.7322C56.1056 71.3629 54.9734 73.38 54.4074 75.5834C53.8414 77.7867 53.8613 80.0998 54.4651 82.2931C55.0689 84.4864 56.2357 86.4837 57.8497 88.0869C73.0707 103.154 98.0497 116.472 129.934 92.9579C124.106 104.964 119.895 117.689 117.41 130.801L117.42 130.812H149.177C158.114 81.4929 188.665 38.8119 231.685 11.1369C210.572 16.1666 190.784 25.6685 173.658 39.0009L173.665 38.9999Z" fill="#FB8978"/>
<path d="M173.735 39.4949L174.279 39.4173L174.225 39.193C190.458 26.6133 209.075 17.478 228.938 12.3347C187.236 40.0299 157.644 81.9684 148.76 130.312H118.012C120.503 117.449 124.661 104.965 130.383 93.1762L129.637 92.5555C113.79 104.242 99.7127 106.743 87.7351 104.499C75.7375 102.251 65.7737 95.2271 58.202 87.7322C56.6499 86.1904 55.5278 84.2696 54.9472 82.1604C54.3665 80.0511 54.3473 77.8267 54.8917 75.7078C55.436 73.5889 56.5248 71.6491 58.0502 70.0808C59.5752 68.5129 61.4836 67.3708 63.5861 66.7679C65.969 66.0983 68.2984 65.2516 70.5551 64.2348C81.8943 59.1475 89.9434 48.9858 93.4442 37.1003C96.0153 28.3813 101.392 20.7547 108.741 15.4038C116.089 10.0529 124.998 7.27703 134.085 7.50686C143.173 7.73668 151.93 10.9594 158.999 16.6749C165.983 22.3221 170.932 30.0909 173.101 38.8005L171.867 39.7616L173.728 39.4959L173.735 39.4949Z" stroke="black" stroke-opacity="0.01"/>
<path d="M214.933 364.892C214.933 307.36 216.081 267.203 224.14 239.434H184.474V353.634C184.463 363.555 186.245 373.396 189.733 382.684H215.576C215.154 376.829 214.94 370.899 214.933 364.895V364.892Z" fill="#FF88CA"/>
<path d="M184.974 353.635V353.634V239.934H223.476C215.559 267.76 214.433 307.819 214.433 364.892V364.895V364.896C214.44 370.728 214.642 376.491 215.039 382.184H190.08C186.693 373.048 184.964 363.38 184.974 353.635Z" stroke="black" stroke-opacity="0.01"/>
<path d="M419.299 159.276C419.283 180.469 414.844 201.425 406.265 220.804C397.686 240.183 385.156 257.557 369.477 271.816C353.799 286.075 335.316 296.904 315.212 303.61C295.108 310.317 273.826 312.753 252.727 310.762C231.627 308.772 211.176 302.399 192.681 292.052C174.186 281.705 158.054 267.611 145.318 250.671C132.582 233.732 123.522 214.321 118.718 193.68C113.915 173.039 113.472 151.622 117.42 130.8L117.43 130.81C117.43 130.81 174.769 36.6377 267.03 110.996C359.289 36.6377 416.63 130.81 416.63 130.81L416.64 130.8C418.417 140.188 419.309 149.723 419.303 159.279L419.299 159.276Z" fill="#FED2A4"/>
<path d="M416.173 131.021C417.866 140.009 418.746 149.131 418.8 158.275L418.8 158.275L418.799 159.275C418.783 180.399 414.359 201.286 405.808 220.601C397.257 239.917 384.768 257.234 369.141 271.446C353.514 285.658 335.092 296.452 315.054 303.136C295.016 309.82 273.804 312.248 252.774 310.265C231.744 308.281 211.359 301.929 192.925 291.616C174.49 281.302 158.412 267.255 145.718 250.371C133.024 233.487 123.994 214.14 119.205 193.566C114.427 173.035 113.978 151.735 117.887 131.021L117.897 131.005C117.924 130.962 117.965 130.896 118.02 130.809C118.129 130.636 118.294 130.379 118.514 130.045C118.953 129.379 119.61 128.409 120.48 127.201C122.219 124.782 124.809 121.408 128.204 117.589C134.997 109.95 145.005 100.545 157.873 93.4564C170.738 86.3704 186.456 81.6024 204.688 83.2199C222.92 84.8375 243.712 92.8447 266.716 111.385L267.03 111.638L267.344 111.385C290.347 92.8447 311.139 84.8375 329.371 83.2199C347.603 81.6024 363.321 86.3704 376.186 93.4565C389.054 100.545 399.062 109.95 405.855 117.589C409.251 121.408 411.84 124.782 413.58 127.201C414.45 128.409 415.107 129.379 415.546 130.045C415.765 130.379 415.93 130.636 416.04 130.809C416.095 130.896 416.136 130.962 416.163 131.005L416.173 131.021Z" stroke="black" stroke-opacity="0.01"/>
<path d="M184.472 220.144C201.295 220.144 214.933 209.283 214.933 195.886C214.933 182.489 201.295 171.628 184.472 171.628C167.649 171.628 154.011 182.489 154.011 195.886C154.011 209.283 167.649 220.144 184.472 220.144Z" fill="#FF889E"/>
<path d="M214.433 195.886C214.433 208.907 201.131 219.644 184.472 219.644C167.813 219.644 154.511 208.907 154.511 195.886C154.511 182.865 167.813 172.128 184.472 172.128C201.131 172.128 214.433 182.865 214.433 195.886Z" stroke="black" stroke-opacity="0.01"/>
<path d="M349.581 220.144C366.404 220.144 380.042 209.283 380.042 195.886C380.042 182.489 366.404 171.628 349.581 171.628C332.757 171.628 319.12 182.489 319.12 195.886C319.12 209.283 332.757 220.144 349.581 220.144Z" fill="#FF889E"/>
<path d="M379.542 195.886C379.542 208.907 366.24 219.644 349.581 219.644C332.921 219.644 319.62 208.907 319.62 195.886C319.62 182.865 332.921 172.128 349.581 172.128C366.24 172.128 379.542 182.865 379.542 195.886Z" stroke="black" stroke-opacity="0.01"/>
<path d="M216.724 176.99C214.735 176.99 212.827 176.2 211.42 174.793C210.014 173.387 209.224 171.479 209.224 169.49C209.224 167.633 208.486 165.853 207.173 164.54C205.861 163.227 204.08 162.49 202.224 162.49C200.367 162.49 198.587 163.227 197.274 164.54C195.961 165.853 195.224 167.633 195.224 169.49C195.224 171.479 194.433 173.387 193.027 174.793C191.62 176.2 189.713 176.99 187.724 176.99C185.735 176.99 183.827 176.2 182.42 174.793C181.014 173.387 180.224 171.479 180.224 169.49C180.224 166.601 180.793 163.74 181.898 161.071C183.004 158.402 184.624 155.976 186.667 153.933C188.71 151.891 191.135 150.27 193.805 149.164C196.474 148.059 199.335 147.49 202.224 147.49C205.113 147.49 207.974 148.059 210.643 149.164C213.312 150.27 215.737 151.891 217.78 153.933C219.823 155.976 221.443 158.402 222.549 161.071C223.655 163.74 224.224 166.601 224.224 169.49C224.224 171.479 223.433 173.387 222.027 174.793C220.62 176.2 218.713 176.99 216.724 176.99Z" fill="#423E4F"/>
<path d="M216.724 176.49C214.867 176.49 213.087 175.752 211.774 174.439C210.461 173.127 209.724 171.346 209.724 169.49C209.724 167.501 208.933 165.593 207.527 164.186C206.12 162.78 204.213 161.99 202.224 161.99C200.235 161.99 198.327 162.78 196.92 164.186C195.514 165.593 194.724 167.501 194.724 169.49C194.724 171.346 193.986 173.127 192.673 174.439C191.361 175.752 189.58 176.49 187.724 176.49C185.867 176.49 184.087 175.752 182.774 174.439C181.461 173.127 180.724 171.346 180.724 169.49C180.724 166.666 181.28 163.871 182.36 161.262C183.441 158.654 185.024 156.283 187.021 154.287C189.017 152.29 191.387 150.707 193.996 149.626C196.604 148.546 199.4 147.99 202.224 147.99C205.047 147.99 207.843 148.546 210.451 149.626C213.06 150.707 215.43 152.29 217.426 154.287C219.423 156.283 221.007 158.654 222.087 161.262C223.168 163.871 223.724 166.666 223.724 169.49C223.724 171.346 222.986 173.127 221.673 174.439C220.361 175.752 218.58 176.49 216.724 176.49Z" stroke="black" stroke-opacity="0.01"/>
<path d="M346.327 176.99C344.338 176.99 342.43 176.2 341.023 174.793C339.617 173.387 338.827 171.479 338.827 169.49C338.827 167.633 338.089 165.853 336.776 164.54C335.464 163.227 333.683 162.49 331.827 162.49C329.97 162.49 328.19 163.227 326.877 164.54C325.564 165.853 324.827 167.633 324.827 169.49C324.827 171.479 324.036 173.387 322.63 174.793C321.223 176.2 319.316 176.99 317.327 176.99C315.338 176.99 313.43 176.2 312.023 174.793C310.617 173.387 309.827 171.479 309.827 169.49C309.827 163.655 312.145 158.059 316.27 153.933C320.396 149.808 325.992 147.49 331.827 147.49C337.661 147.49 343.257 149.808 347.383 153.933C351.509 158.059 353.827 163.655 353.827 169.49C353.827 171.479 353.036 173.387 351.63 174.793C350.223 176.2 348.316 176.99 346.327 176.99Z" fill="#423E4F"/>
<path d="M346.327 176.49C344.47 176.49 342.69 175.752 341.377 174.439C340.064 173.127 339.327 171.346 339.327 169.49C339.327 167.501 338.537 165.593 337.13 164.186C335.723 162.78 333.816 161.99 331.827 161.99C329.838 161.99 327.93 162.78 326.523 164.186C325.117 165.593 324.327 167.501 324.327 169.49C324.327 171.346 323.589 173.127 322.276 174.439C320.964 175.752 319.183 176.49 317.327 176.49C315.47 176.49 313.69 175.752 312.377 174.439C311.064 173.127 310.327 171.346 310.327 169.49C310.327 163.788 312.592 158.319 316.624 154.287C320.656 150.255 326.125 147.99 331.827 147.99C337.529 147.99 342.997 150.255 347.029 154.287C351.062 158.319 353.327 163.788 353.327 169.49C353.327 171.346 352.589 173.127 351.276 174.439C349.964 175.752 348.183 176.49 346.327 176.49Z" stroke="black" stroke-opacity="0.01"/>
<path d="M267.026 200.943C263.039 200.942 259.099 200.086 255.47 198.434C251.842 196.781 248.61 194.371 245.992 191.364C245.345 190.621 244.85 189.758 244.536 188.825C244.223 187.891 244.096 186.905 244.164 185.922C244.231 184.94 244.492 183.98 244.93 183.098C245.368 182.216 245.976 181.429 246.719 180.782C247.461 180.135 248.324 179.64 249.258 179.327C250.191 179.013 251.178 178.886 252.16 178.954C253.143 179.021 254.103 179.282 254.985 179.72C255.867 180.158 256.654 180.766 257.301 181.509C258.51 182.901 260.004 184.017 261.682 184.782C263.359 185.547 265.182 185.943 267.026 185.943C268.87 185.943 270.692 185.547 272.37 184.782C274.048 184.017 275.542 182.901 276.751 181.509C277.398 180.766 278.185 180.158 279.067 179.72C279.949 179.282 280.909 179.021 281.891 178.954C282.874 178.886 283.86 179.013 284.794 179.327C285.727 179.64 286.59 180.135 287.333 180.782C288.075 181.429 288.683 182.216 289.122 183.098C289.56 183.98 289.82 184.94 289.888 185.922C289.955 186.905 289.829 187.891 289.515 188.825C289.201 189.758 288.707 190.621 288.06 191.364C285.442 194.371 282.21 196.781 278.581 198.434C274.953 200.086 271.013 200.942 267.026 200.943V200.943Z" fill="#423E4F"/>
<path d="M246.369 191.035L246.369 191.035C248.94 193.988 252.114 196.356 255.677 197.979C259.241 199.601 263.11 200.442 267.026 200.443L246.369 191.035ZM246.369 191.035C245.765 190.342 245.303 189.537 245.01 188.666C244.718 187.794 244.599 186.874 244.662 185.956C244.725 185.039 244.969 184.144 245.378 183.32C245.787 182.497 246.354 181.763 247.047 181.159C247.74 180.555 248.546 180.093 249.417 179.8C250.288 179.508 251.209 179.389 252.126 179.452C253.043 179.516 253.939 179.759 254.762 180.168C255.585 180.577 256.32 181.144 256.924 181.837C258.18 183.283 259.732 184.442 261.474 185.237C263.217 186.031 265.11 186.443 267.026 186.443C268.941 186.443 270.834 186.031 272.577 185.237C274.32 184.442 275.872 183.283 277.128 181.837C277.732 181.144 278.466 180.577 279.289 180.168C280.113 179.759 281.008 179.516 281.925 179.452C282.843 179.389 283.763 179.508 284.635 179.8C285.506 180.093 286.311 180.555 287.004 181.159C287.697 181.763 288.265 182.497 288.674 183.32C289.083 184.144 289.326 185.039 289.389 185.956C289.452 186.874 289.334 187.794 289.041 188.666C288.748 189.537 288.287 190.342 287.683 191.035L287.683 191.035M246.369 191.035L287.683 191.035M287.683 191.035C285.112 193.988 281.937 196.356 278.374 197.979M287.683 191.035L278.374 197.979M278.374 197.979C274.811 199.601 270.941 200.442 267.026 200.443L278.374 197.979Z" stroke="black" stroke-opacity="0.01"/>
<path d="M267.027 448.832C265.038 448.832 263.13 448.042 261.724 446.635C260.317 445.229 259.527 443.321 259.527 441.332V408.756C259.527 406.767 260.317 404.859 261.724 403.453C263.13 402.046 265.038 401.256 267.027 401.256C269.016 401.256 270.924 402.046 272.33 403.453C273.737 404.859 274.527 406.767 274.527 408.756V441.332C274.527 443.321 273.737 445.229 272.33 446.635C270.924 448.042 269.016 448.832 267.027 448.832Z" fill="#4F4C5F"/>
<path d="M267.027 448.332C265.17 448.332 263.39 447.594 262.077 446.282C260.764 444.969 260.027 443.188 260.027 441.332V408.756C260.027 406.899 260.764 405.119 262.077 403.806C263.39 402.493 265.17 401.756 267.027 401.756C268.883 401.756 270.664 402.493 271.977 403.806C273.289 405.119 274.027 406.899 274.027 408.756V441.332C274.027 443.188 273.289 444.969 271.977 446.282C270.664 447.594 268.883 448.332 267.027 448.332Z" stroke="black" stroke-opacity="0.01"/>
<path d="M322.152 441.332V476.432C322.152 483.742 319.248 490.753 314.079 495.922C308.91 501.091 301.899 503.995 294.589 503.995C287.279 503.995 280.268 501.091 275.099 495.922C269.93 490.753 267.026 483.742 267.026 476.432V441.332H322.152Z" fill="#FFBD86"/>
<path d="M321.652 441.832V476.432C321.652 483.61 318.801 490.493 313.725 495.568C308.65 500.644 301.766 503.495 294.589 503.495C287.411 503.495 280.528 500.644 275.452 495.568C270.377 490.493 267.526 483.61 267.526 476.432V441.832H321.652Z" stroke="black" stroke-opacity="0.01"/>
<path d="M267.025 441.332V476.432C267.025 480.052 266.312 483.636 264.927 486.98C263.542 490.324 261.512 493.363 258.952 495.922C256.393 498.481 253.354 500.512 250.01 501.897C246.666 503.282 243.082 503.995 239.462 503.995C235.843 503.995 232.259 503.282 228.915 501.897C225.57 500.512 222.532 498.481 219.972 495.922C217.413 493.363 215.383 490.324 213.998 486.98C212.612 483.636 211.899 480.052 211.899 476.432V441.332H267.025Z" fill="#FED2A4"/>
<path d="M266.525 441.832V476.432C266.525 479.986 265.825 483.505 264.465 486.789C263.105 490.072 261.112 493.055 258.599 495.568C256.086 498.082 253.102 500.075 249.819 501.435C246.536 502.795 243.016 503.495 239.462 503.495C235.908 503.495 232.389 502.795 229.106 501.435C225.822 500.075 222.839 498.082 220.326 495.568C217.813 493.055 215.819 490.072 214.459 486.789C213.099 483.505 212.399 479.986 212.399 476.432V441.832H266.525Z" stroke="black" stroke-opacity="0.01"/>
<mask id="path-40-inside-1_116_7026" fill="white">
<path d="M146.474 160.856C146.474 136.726 151.654 112.877 161.663 90.9209C133.263 104.812 117.428 130.806 117.428 130.806L117.418 130.796V130.811C116.55 130.749 115.669 130.711 114.758 130.711C104.388 130.711 94.4425 134.83 87.1098 142.163C79.7772 149.496 75.6577 159.441 75.6577 169.811C75.6577 180.181 79.7772 190.126 87.1098 197.459C94.4425 204.791 104.388 208.911 114.758 208.911C117.443 208.924 120.121 208.619 122.735 208.004C130.547 231.165 143.824 252.103 161.442 269.047C179.06 285.99 200.5 298.44 223.949 305.342C176.797 271.817 146.474 219.564 146.474 160.856Z"/>
</mask>
<path d="M146.474 160.856C146.474 136.726 151.654 112.877 161.663 90.9209C133.263 104.812 117.428 130.806 117.428 130.806L117.418 130.796V130.811C116.55 130.749 115.669 130.711 114.758 130.711C104.388 130.711 94.4425 134.83 87.1098 142.163C79.7772 149.496 75.6577 159.441 75.6577 169.811C75.6577 180.181 79.7772 190.126 87.1098 197.459C94.4425 204.791 104.388 208.911 114.758 208.911C117.443 208.924 120.121 208.619 122.735 208.004C130.547 231.165 143.824 252.103 161.442 269.047C179.06 285.99 200.5 298.44 223.949 305.342C176.797 271.817 146.474 219.564 146.474 160.856Z" fill="#FFBD86"/>
<path d="M146.474 160.856L145.474 160.856V160.856H146.474ZM161.663 90.9209L162.573 91.3357L163.73 88.7965L161.223 90.0226L161.663 90.9209ZM117.428 130.806L116.72 131.513L117.62 132.413L118.282 131.326L117.428 130.806ZM117.418 130.796L118.125 130.089L116.418 128.38V130.796H117.418ZM117.418 130.811L117.346 131.808L118.418 131.885V130.811H117.418ZM114.758 130.711V129.711V130.711ZM114.758 208.911L114.763 207.911H114.758V208.911ZM122.735 208.004L123.682 207.684L123.391 206.822L122.506 207.031L122.735 208.004ZM223.949 305.342L223.666 306.301L224.528 304.527L223.949 305.342ZM147.474 160.856C147.474 136.869 152.623 113.162 162.573 91.3357L160.753 90.5061C150.685 112.593 145.474 136.583 145.474 160.856L147.474 160.856ZM161.223 90.0226C146.874 97.0411 135.718 107.106 128.156 115.399C124.373 119.548 121.483 123.261 119.537 125.939C118.563 127.279 117.826 128.361 117.33 129.11C117.082 129.484 116.894 129.776 116.768 129.975C116.705 130.074 116.657 130.151 116.625 130.203C116.608 130.229 116.596 130.249 116.588 130.263C116.583 130.27 116.58 130.275 116.578 130.279C116.577 130.281 116.576 130.282 116.575 130.284C116.575 130.284 116.574 130.285 116.574 130.285C116.574 130.285 116.574 130.286 117.428 130.806C118.282 131.326 118.282 131.326 118.282 131.326C118.282 131.326 118.282 131.326 118.282 131.326C118.282 131.325 118.283 131.325 118.283 131.323C118.285 131.321 118.288 131.317 118.291 131.311C118.298 131.3 118.309 131.282 118.323 131.259C118.353 131.212 118.397 131.14 118.457 131.046C118.576 130.858 118.757 130.577 118.997 130.214C119.479 129.487 120.2 128.429 121.155 127.115C123.065 124.486 125.909 120.832 129.634 116.746C137.09 108.569 148.051 98.6917 162.102 91.8192L161.223 90.0226ZM118.135 130.099L118.125 130.089L116.71 131.503L116.72 131.513L118.135 130.099ZM116.418 130.796V130.811H118.418V130.796H116.418ZM117.489 129.813C116.602 129.75 115.697 129.711 114.758 129.711V131.711C115.641 131.711 116.498 131.748 117.346 131.808L117.489 129.813ZM114.758 129.711C104.123 129.711 93.9229 133.936 86.4027 141.456L87.8169 142.87C94.9621 135.725 104.653 131.711 114.758 131.711V129.711ZM86.4027 141.456C78.8825 148.976 74.6577 159.176 74.6577 169.811H76.6577C76.6577 159.706 80.6718 150.015 87.8169 142.87L86.4027 141.456ZM74.6577 169.811C74.6577 180.446 78.8825 190.646 86.4027 198.166L87.8169 196.752C80.6718 189.607 76.6577 179.916 76.6577 169.811H74.6577ZM86.4027 198.166C93.9229 205.686 104.123 209.911 114.758 209.911V207.911C104.653 207.911 94.9621 203.897 87.8169 196.752L86.4027 198.166ZM114.753 209.911C117.517 209.924 120.273 209.611 122.964 208.977L122.506 207.031C119.968 207.628 117.369 207.924 114.763 207.911L114.753 209.911ZM121.787 208.324C129.651 231.637 143.015 252.713 160.749 269.767L162.135 268.326C144.633 251.494 131.443 230.693 123.682 207.684L121.787 208.324ZM160.749 269.767C178.482 286.822 200.064 299.354 223.666 306.301L224.231 304.383C200.937 297.526 179.637 285.158 162.135 268.326L160.749 269.767ZM224.528 304.527C177.609 271.167 147.474 219.204 147.474 160.856H145.474C145.474 219.924 175.985 272.466 223.369 306.157L224.528 304.527Z" fill="black" fill-opacity="0.01" mask="url(#path-40-inside-1_116_7026)"/>
<path d="M227.347 441.332H211.899V476.432C211.897 481.682 213.394 486.823 216.215 491.251C219.037 495.678 223.064 499.207 227.823 501.423C232.582 503.639 237.876 504.45 243.08 503.759C248.284 503.068 253.183 500.905 257.199 497.524C244.214 480.569 234.126 461.582 227.344 441.331L227.347 441.332Z" fill="#FFBD86"/>
<path d="M212.399 441.832H226.985C233.732 461.854 243.705 480.64 256.51 497.445C252.636 500.591 247.966 502.606 243.014 503.263C237.904 503.941 232.707 503.146 228.034 500.97C223.361 498.794 219.407 495.329 216.637 490.982C213.867 486.635 212.397 481.587 212.399 476.432V476.432V441.832Z" stroke="black" stroke-opacity="0.01"/>
</svg>
