<svg width="512" height="512" viewBox="0 0 512 512" fill="none" xmlns="http://www.w3.org/2000/svg">
<path d="M0.5 0.5H511.5V511.5H0.5V0.5Z" stroke="black" stroke-opacity="0.01"/>
<path d="M407.609 126.115C405.258 123.764 402.468 121.9 399.396 120.627C396.325 119.355 393.033 118.7 389.709 118.7C386.384 118.7 383.093 119.355 380.021 120.627C376.95 121.9 374.159 123.764 371.809 126.115C376.556 121.368 379.223 114.929 379.223 108.215C379.223 101.501 376.556 95.0626 371.809 90.3152C367.061 85.5678 360.623 82.9008 353.909 82.9008C347.195 82.9008 340.756 85.5678 336.009 90.3152C340.756 85.5678 343.423 79.129 343.423 72.4152C343.423 65.7014 340.756 59.2626 336.009 54.5152C331.261 49.7678 324.823 47.1008 318.109 47.1008C311.395 47.1008 304.956 49.7678 300.209 54.5152C304.956 49.7678 307.623 43.329 307.623 36.6152C307.623 29.9014 304.956 23.4626 300.209 18.7152C295.461 13.9678 289.023 11.3008 282.309 11.3008C275.595 11.3008 269.156 13.9678 264.409 18.7152L131.475 151.656L185.788 240.54L274.672 294.853L407.609 161.915C409.96 159.565 411.824 156.774 413.096 153.703C414.369 150.631 415.023 147.34 415.023 144.015C415.023 140.691 414.369 137.399 413.096 134.328C411.824 131.256 409.96 128.466 407.609 126.115V126.115Z" fill="#78CBEC"/>
<path d="M299.855 54.1617C304.509 49.508 307.123 43.1964 307.123 36.6152C307.123 30.034 304.509 23.7224 299.855 19.0688C295.202 14.4152 288.89 11.8008 282.309 11.8008C275.728 11.8008 269.416 14.4152 264.762 19.0688L132.107 151.731L186.152 240.176L274.597 294.221L407.255 161.562C409.56 159.257 411.387 156.522 412.634 153.511C413.882 150.501 414.523 147.274 414.523 144.015C414.523 140.757 413.882 137.53 412.634 134.519C411.387 131.508 409.56 128.773 407.255 126.469C404.951 124.164 402.216 122.336 399.205 121.089C396.194 119.842 392.968 119.2 389.709 119.2C386.45 119.2 383.223 119.842 380.213 121.089C377.202 122.336 374.467 124.164 372.162 126.469C373.011 125.62 373.795 124.718 374.51 123.771L299.855 54.1617ZM299.855 54.1617L300.209 54.5152L300.562 54.8688C305.216 50.2152 311.528 47.6008 318.109 47.6008C324.69 47.6008 331.002 50.2152 335.655 54.8688C340.309 59.5224 342.923 65.834 342.923 72.4152C342.923 78.9964 340.309 85.308 335.655 89.9617L336.009 90.3152M299.855 54.1617L336.009 90.3152M336.009 90.3152L336.362 90.6688C341.016 86.0152 347.328 83.4008 353.909 83.4008C360.49 83.4008 366.802 86.0152 371.455 90.6688C376.109 95.3224 378.723 101.634 378.723 108.215C378.723 114.796 376.109 121.108 371.455 125.762L371.809 126.115L336.009 90.3152Z" stroke="black" stroke-opacity="0.01"/>
<path d="M300.209 18.7173C297.858 16.3664 295.068 14.5016 291.996 13.2294C288.925 11.9571 285.633 11.3022 282.309 11.3022C278.984 11.3022 275.693 11.9571 272.621 13.2294C269.55 14.5016 266.759 16.3664 264.409 18.7173L230.677 52.4543V48.9203C230.677 45.596 230.022 42.3042 228.75 39.233C227.478 36.1618 225.613 33.3712 223.263 31.0206C220.912 28.6699 218.121 26.8053 215.05 25.5332C211.979 24.261 208.687 23.6063 205.363 23.6063C202.039 23.6063 198.747 24.261 195.676 25.5332C192.604 26.8053 189.814 28.6699 187.463 31.0206C185.113 33.3712 183.248 36.1618 181.976 39.233C180.704 42.3042 180.049 45.596 180.049 48.9203V103.082L131.475 151.656L150.668 183.065C166.08 152.283 188.676 120.844 217.555 91.9653C245.471 64.0483 275.781 41.9953 305.576 26.6353C304.308 23.6779 302.486 20.9902 300.209 18.7173V18.7173Z" fill="#34B5E1"/>
<path d="M230.177 52.4543V53.6615L231.03 52.8078L264.762 19.0708C267.067 16.7664 269.802 14.9384 272.813 13.6913C275.823 12.4441 279.05 11.8022 282.309 11.8022C285.568 11.8022 288.794 12.4441 291.805 13.6913C294.816 14.9384 297.551 16.7664 299.855 19.0708L300.209 18.7173L299.856 19.0712C301.978 21.1896 303.697 23.6754 304.929 26.4066C275.22 41.7823 245.021 63.7912 217.201 91.6117C188.539 120.274 166.053 151.46 150.625 182.037L132.107 151.731L180.402 103.436L180.549 103.289V103.082V48.9203C180.549 45.6616 181.191 42.4349 182.438 39.4244C183.685 36.4138 185.513 33.6783 187.817 31.3741C190.121 29.0699 192.856 27.2421 195.867 25.9951C198.878 24.7481 202.104 24.1063 205.363 24.1063C208.621 24.1063 211.848 24.7481 214.859 25.9951C217.869 27.2421 220.605 29.0699 222.909 31.3741C225.213 33.6783 227.041 36.4138 228.288 39.4244C229.535 42.4349 230.177 45.6616 230.177 48.9203V52.4543Z" stroke="black" stroke-opacity="0.01"/>
<path d="M274.672 294.853L131.472 151.653C128.3 148.481 123.998 146.7 119.513 146.7C115.027 146.7 110.726 148.481 107.554 151.653L89.9538 169.253C88.3833 170.823 87.1374 172.688 86.2875 174.739C85.4375 176.791 85 178.991 85 181.212C85 183.433 85.4375 185.632 86.2875 187.684C87.1374 189.736 88.3833 191.6 89.9538 193.171L233.154 336.371C234.724 337.941 236.589 339.187 238.641 340.037C240.693 340.887 242.892 341.325 245.113 341.325C247.334 341.325 249.533 340.887 251.585 340.037C253.637 339.187 255.501 337.941 257.072 336.371L274.672 318.771C276.242 317.2 277.488 315.336 278.338 313.284C279.188 311.232 279.626 309.033 279.626 306.812C279.626 304.591 279.188 302.391 278.338 300.34C277.488 298.288 276.242 296.423 274.672 294.853V294.853Z" fill="#C1E9FA"/>
<path d="M90.3074 169.606L90.3074 169.606L107.907 152.006C107.907 152.006 107.907 152.006 107.907 152.006C110.986 148.929 115.16 147.2 119.513 147.2C123.866 147.2 128.04 148.929 131.118 152.006C131.118 152.006 131.118 152.006 131.118 152.006L274.318 295.206C275.842 296.73 277.051 298.54 277.876 300.531C278.701 302.522 279.126 304.656 279.126 306.812C279.126 308.967 278.701 311.101 277.876 313.093C277.051 315.084 275.842 316.893 274.318 318.417L256.718 336.017C255.194 337.541 253.385 338.75 251.394 339.575C249.402 340.4 247.268 340.825 245.113 340.825C242.957 340.825 240.823 340.4 238.832 339.575C236.841 338.75 235.031 337.541 233.507 336.017L90.3074 192.817L89.9538 193.171L90.3074 192.817C88.7832 191.293 87.5742 189.484 86.7494 187.493C85.9245 185.501 85.5 183.367 85.5 181.212C85.5 179.056 85.9245 176.922 86.7494 174.931C87.5742 172.94 88.7832 171.13 90.3074 169.606Z" stroke="black" stroke-opacity="0.01"/>
<path d="M242.464 215.903C242.464 209.19 239.797 202.751 235.05 198.004C230.302 193.256 223.864 190.589 217.15 190.589C210.436 190.589 203.997 193.256 199.25 198.004C194.503 202.751 191.836 209.19 191.836 215.903V276.873H242.464V215.903Z" fill="#A7E0F5"/>
<path d="M234.696 198.357C239.349 203.011 241.964 209.322 241.964 215.903V276.373H192.336V215.903C192.336 209.322 194.95 203.011 199.604 198.357C204.257 193.704 210.569 191.089 217.15 191.089C223.731 191.089 230.042 193.704 234.696 198.357Z" stroke="black" stroke-opacity="0.01"/>
<path d="M419.398 293.096C417.047 290.745 414.257 288.881 411.185 287.608C408.114 286.336 404.822 285.681 401.498 285.681C398.173 285.681 394.882 286.336 391.81 287.608C388.739 288.881 385.948 290.745 383.598 293.096C388.345 288.349 391.012 281.91 391.012 275.196C391.012 268.482 388.345 262.044 383.598 257.296C378.85 252.549 372.412 249.882 365.698 249.882C358.984 249.882 352.545 252.549 347.798 257.296C352.545 252.549 355.212 246.11 355.212 239.396C355.212 232.682 352.545 226.244 347.798 221.496C343.05 216.749 336.612 214.082 329.898 214.082C323.184 214.082 316.745 216.749 311.998 221.496C314.348 219.145 316.213 216.355 317.485 213.284C318.757 210.212 319.412 206.92 319.412 203.596C319.412 200.272 318.757 196.98 317.485 193.909C316.213 190.837 314.348 188.047 311.998 185.696C309.647 183.346 306.857 181.481 303.785 180.209C300.714 178.937 297.422 178.282 294.098 178.282C290.774 178.282 287.482 178.937 284.41 180.209C281.339 181.481 278.549 183.346 276.198 185.696L143.262 318.637L197.575 407.521L286.459 461.834L419.398 328.895C424.145 324.148 426.812 317.709 426.812 310.995C426.812 304.281 424.145 297.843 419.398 293.095V293.096Z" fill="#C1E9FA"/>
<path d="M419.176 293.582L419.044 293.45C416.74 291.145 414.005 289.317 410.994 288.07C407.983 286.823 404.757 286.181 401.498 286.181C398.239 286.181 395.012 286.823 392.002 288.07C388.991 289.317 386.256 291.145 383.951 293.45C384.8 292.601 385.584 291.699 386.299 290.752C385.346 291.467 384.444 292.25 383.598 293.096M419.176 293.582L383.598 293.096M419.176 293.582C423.747 298.222 426.312 304.477 426.312 310.995C426.312 317.576 423.698 323.888 419.044 328.542L286.384 461.202L197.939 407.157L143.894 318.712L419.176 293.582ZM383.598 293.096C384.447 292.247 385.229 291.344 385.942 290.395C384.992 291.113 384.09 291.897 383.244 292.743L383.598 293.096ZM347.798 257.296C348.647 256.447 349.55 255.665 350.499 254.952C349.784 255.899 349 256.801 348.151 257.65L347.798 257.296ZM347.798 257.296C348.647 256.447 349.429 255.544 350.142 254.595C349.195 255.31 348.293 256.094 347.444 256.943L347.798 257.296ZM311.998 221.496C312.847 220.647 313.749 219.865 314.698 219.153C313.981 220.103 313.197 221.004 312.351 221.85L311.998 221.496ZM311.998 221.496C312.844 220.65 313.626 219.748 314.341 218.796C313.394 219.511 312.493 220.294 311.644 221.143L311.998 221.496Z" stroke="black" stroke-opacity="0.01"/>
<path d="M286.459 461.834L143.259 318.634C141.688 317.063 139.824 315.818 137.772 314.968C135.72 314.118 133.521 313.68 131.3 313.68C129.079 313.68 126.88 314.118 124.828 314.968C122.776 315.818 120.911 317.063 119.341 318.634L101.741 336.234C100.17 337.804 98.9244 339.669 98.0744 341.721C97.2245 343.773 96.787 345.972 96.787 348.193C96.787 350.414 97.2245 352.613 98.0744 354.665C98.9244 356.717 100.17 358.582 101.741 360.152L244.941 503.352C246.511 504.923 248.376 506.168 250.428 507.018C252.48 507.868 254.679 508.306 256.9 508.306C259.121 508.306 261.32 507.868 263.372 507.018C265.424 506.168 267.288 504.923 268.859 503.352L286.459 485.752C288.029 484.182 289.275 482.317 290.125 480.265C290.975 478.213 291.413 476.014 291.413 473.793C291.413 471.572 290.975 469.373 290.125 467.321C289.275 465.269 288.029 463.404 286.459 461.834V461.834Z" fill="#78CBEC"/>
<path d="M119.694 318.988L119.694 318.988C121.218 317.463 123.028 316.254 125.019 315.43C127.01 314.605 129.144 314.18 131.3 314.18C133.455 314.18 135.589 314.605 137.581 315.43C139.572 316.254 141.381 317.463 142.905 318.988L143.259 318.634L142.905 318.988L286.105 462.188C287.629 463.712 288.838 465.521 289.663 467.512C290.488 469.503 290.913 471.638 290.913 473.793C290.913 475.948 290.488 478.083 289.663 480.074C288.838 482.065 287.629 483.874 286.105 485.398L268.505 502.998C266.981 504.523 265.172 505.732 263.181 506.556C261.189 507.381 259.055 507.806 256.9 507.806C254.744 507.806 252.61 507.381 250.619 506.556C248.628 505.732 246.818 504.523 245.294 502.998L102.094 359.798L101.741 360.152L102.094 359.798C100.57 358.274 99.3612 356.465 98.5364 354.474C97.7115 352.483 97.287 350.348 97.287 348.193C97.287 346.038 97.7115 343.903 98.5364 341.912C99.3612 339.921 100.57 338.112 102.094 336.588L102.094 336.588L119.694 318.988Z" stroke="black" stroke-opacity="0.01"/>
<path d="M154.846 175.026L131.476 151.655C128.304 148.484 124.002 146.702 119.517 146.702C115.031 146.702 110.73 148.484 107.558 151.655L89.9579 169.255C88.3873 170.826 87.1415 172.69 86.2915 174.742C85.4415 176.794 85.004 178.993 85.004 181.214C85.004 183.435 85.4415 185.634 86.2915 187.686C87.1415 189.738 88.3873 191.603 89.9579 193.173L131.445 234.66C135.981 215.559 143.868 195.376 154.846 175.026Z" fill="#A7E0F5"/>
<path d="M131.167 233.675L90.3114 192.82L89.9579 193.173L90.3114 192.82C88.7873 191.296 87.5783 189.486 86.7534 187.495C85.9286 185.504 85.504 183.369 85.504 181.214C85.504 179.059 85.9286 176.925 86.7534 174.933C87.5783 172.942 88.7873 171.133 90.3114 169.609L90.3114 169.609L107.911 152.009C107.911 152.009 107.911 152.009 107.911 152.009C110.99 148.931 115.164 147.202 119.517 147.202C123.87 147.202 128.044 148.931 131.122 152.009C131.122 152.009 131.122 152.009 131.122 152.009L154.229 175.117C143.491 195.08 135.721 214.886 131.167 233.675Z" stroke="black" stroke-opacity="0.01"/>
<path d="M312 185.703C309.649 183.352 306.859 181.487 303.787 180.215C300.716 178.943 297.424 178.288 294.1 178.288C290.775 178.288 287.484 178.943 284.412 180.215C281.341 181.487 278.55 183.352 276.2 185.703L242.463 219.44V215.903C242.463 209.189 239.796 202.751 235.048 198.003C230.301 193.256 223.862 190.589 217.149 190.589C210.435 190.589 203.996 193.256 199.249 198.003C194.502 202.751 191.835 209.189 191.835 215.903V270.065L143.261 318.639L162.454 350.048C177.866 319.266 200.462 287.827 229.341 258.948C257.257 231.031 287.567 208.978 317.362 193.618C316.095 190.661 314.275 187.973 311.999 185.7L312 185.703Z" fill="#A7E0F5"/>
<path d="M311.646 186.057L311.647 186.056C313.768 188.174 315.485 190.659 316.715 193.389C287.006 208.765 256.807 230.774 228.987 258.595C200.325 287.257 177.839 318.443 162.411 349.019L143.893 318.714L192.188 270.419L192.335 270.272V270.065V215.903C192.335 209.322 194.949 203.01 199.603 198.357C204.256 193.703 210.568 191.089 217.149 191.089C223.73 191.089 230.041 193.703 234.695 198.357C239.348 203.01 241.963 209.322 241.963 215.903V219.44V220.647L242.816 219.794L276.553 186.057L276.2 185.703L276.553 186.057C278.857 183.752 281.593 181.924 284.604 180.677C287.614 179.43 290.841 178.788 294.1 178.788C297.359 178.788 300.585 179.43 303.596 180.677C306.607 181.924 309.342 183.752 311.646 186.057Z" stroke="black" stroke-opacity="0.01"/>
<path d="M166.633 342.003L143.263 318.632C140.091 315.461 135.789 313.679 131.304 313.679C126.818 313.679 122.517 315.461 119.345 318.632L101.745 336.232C100.174 337.803 98.9285 339.667 98.0785 341.719C97.2285 343.771 96.791 345.97 96.791 348.191C96.791 350.412 97.2285 352.611 98.0785 354.663C98.9285 356.715 100.174 358.58 101.745 360.15L143.232 401.637C147.768 382.54 155.654 362.357 166.633 342.003Z" fill="#34B5E1"/>
<path d="M142.954 400.652L102.098 359.797L101.745 360.15L102.098 359.797C100.574 358.273 99.3653 356.463 98.5404 354.472C97.7156 352.481 97.291 350.347 97.291 348.191C97.291 346.036 97.7156 343.902 98.5404 341.91C99.3653 339.919 100.574 338.11 102.098 336.586L102.098 336.586L119.698 318.986C119.698 318.986 119.698 318.986 119.698 318.986C122.777 315.908 126.951 314.179 131.304 314.179C135.657 314.179 139.831 315.908 142.909 318.986C142.909 318.986 142.909 318.986 142.909 318.986L166.016 342.094C155.277 362.061 147.508 381.867 142.954 400.652Z" stroke="black" stroke-opacity="0.01"/>
</svg>
