<svg width="512" height="512" viewBox="0 0 512 512" fill="none" xmlns="http://www.w3.org/2000/svg">
<path d="M407.603 129.813C405.252 127.462 402.462 125.597 399.391 124.325C396.319 123.053 393.027 122.398 389.703 122.398C386.379 122.398 383.087 123.053 380.015 124.325C376.944 125.597 374.154 127.462 371.803 129.813C376.55 125.066 379.217 118.627 379.217 111.913C379.217 105.199 376.55 98.7603 371.803 94.013C367.056 89.2656 360.617 86.5985 353.903 86.5985C347.189 86.5985 340.75 89.2656 336.003 94.013C340.75 89.2656 343.417 82.8268 343.417 76.113C343.417 69.3992 340.75 62.9603 336.003 58.213C331.256 53.4656 324.817 50.7985 318.103 50.7985C311.389 50.7985 304.95 53.4656 300.203 58.213C304.95 53.4656 307.617 47.0268 307.617 40.313C307.617 33.5992 304.95 27.1603 300.203 22.413C295.456 17.6656 289.017 14.9985 282.303 14.9985C275.589 14.9985 269.15 17.6656 264.403 22.413L131.469 155.354L185.782 244.238L274.666 298.551L407.603 165.613C409.954 163.262 411.818 160.472 413.091 157.4C414.363 154.329 415.018 151.037 415.018 147.713C415.018 144.389 414.363 141.097 413.091 138.026C411.818 134.954 409.954 132.164 407.603 129.813Z" fill="#78CBEC"/>
<path d="M300.203 22.415C297.852 20.0642 295.062 18.1994 291.991 16.9271C288.919 15.6548 285.627 15 282.303 15C278.979 15 275.687 15.6548 272.615 16.9271C269.544 18.1994 266.754 20.0642 264.403 22.415L230.671 56.152V52.618C230.671 49.2937 230.016 46.002 228.744 42.9308C227.472 39.8595 225.607 37.0689 223.257 34.7183C220.906 32.3677 218.115 30.5031 215.044 29.2309C211.973 27.9588 208.681 27.304 205.357 27.304C202.033 27.304 198.741 27.9588 195.67 29.2309C192.599 30.5031 189.808 32.3677 187.457 34.7183C185.107 37.0689 183.242 39.8595 181.97 42.9308C180.698 46.002 180.043 49.2937 180.043 52.618V106.78L131.469 155.354L150.662 186.763C166.074 155.981 188.67 124.542 217.549 95.663C245.465 67.746 275.775 45.693 305.57 30.333C304.302 27.3756 302.48 24.688 300.203 22.415Z" fill="#34B5E1"/>
<path d="M274.666 298.551L131.466 155.351C128.294 152.18 123.992 150.398 119.507 150.398C115.022 150.398 110.72 152.18 107.548 155.351L89.948 172.951C88.3774 174.521 87.1316 176.386 86.2816 178.438C85.4316 180.49 84.9941 182.689 84.9941 184.91C84.9941 187.131 85.4316 189.33 86.2816 191.382C87.1316 193.434 88.3774 195.299 89.948 196.869L233.148 340.069C234.718 341.639 236.583 342.885 238.635 343.735C240.687 344.585 242.886 345.023 245.107 345.023C247.328 345.023 249.527 344.585 251.579 343.735C253.631 342.885 255.496 341.639 257.066 340.069L274.666 322.469C276.236 320.898 277.482 319.034 278.332 316.982C279.182 314.93 279.62 312.731 279.62 310.51C279.62 308.289 279.182 306.09 278.332 304.038C277.482 301.986 276.236 300.121 274.666 298.551Z" fill="#C1E9FA"/>
<path d="M242.458 219.601C242.458 212.887 239.791 206.449 235.044 201.701C230.296 196.954 223.858 194.287 217.144 194.287C210.43 194.287 203.992 196.954 199.244 201.701C194.497 206.449 191.83 212.887 191.83 219.601V280.571H242.458V219.601Z" fill="#A7E0F5"/>
<path d="M419.392 296.794C417.041 294.443 414.251 292.578 411.18 291.306C408.108 290.034 404.816 289.379 401.492 289.379C398.168 289.379 394.876 290.034 391.804 291.306C388.733 292.578 385.943 294.443 383.592 296.794C388.339 292.047 391.006 285.608 391.006 278.894C391.006 272.18 388.339 265.741 383.592 260.994C378.845 256.247 372.406 253.579 365.692 253.579C358.978 253.579 352.539 256.247 347.792 260.994C352.539 256.247 355.206 249.808 355.206 243.094C355.206 236.38 352.539 229.941 347.792 225.194C343.045 220.447 336.606 217.779 329.892 217.779C323.178 217.779 316.739 220.447 311.992 225.194C314.343 222.843 316.207 220.053 317.479 216.981C318.752 213.91 319.406 210.618 319.406 207.294C319.406 203.97 318.752 200.678 317.479 197.607C316.207 194.535 314.343 191.745 311.992 189.394C309.641 187.043 306.851 185.179 303.779 183.906C300.708 182.634 297.416 181.979 294.092 181.979C290.768 181.979 287.476 182.634 284.405 183.906C281.333 185.179 278.543 187.043 276.192 189.394L143.256 322.335L197.569 411.219L286.453 465.532L419.392 332.593C424.139 327.845 426.806 321.407 426.806 314.693C426.806 307.979 424.139 301.54 419.392 296.793V296.794Z" fill="#C1E9FA"/>
<path d="M286.453 465.532L143.253 322.332C141.683 320.761 139.818 319.515 137.766 318.665C135.714 317.815 133.515 317.378 131.294 317.378C129.073 317.378 126.874 317.815 124.822 318.665C122.77 319.515 120.905 320.761 119.335 322.332L101.735 339.932C100.164 341.502 98.9186 343.367 98.0686 345.419C97.2186 347.47 96.7811 349.67 96.7811 351.891C96.7811 354.112 97.2186 356.311 98.0686 358.363C98.9186 360.415 100.164 362.279 101.735 363.85L244.935 507.05C246.505 508.62 248.37 509.866 250.422 510.716C252.474 511.566 254.673 512.004 256.894 512.004C259.115 512.004 261.314 511.566 263.366 510.716C265.418 509.866 267.283 508.62 268.853 507.05L286.453 489.45C288.023 487.879 289.269 486.015 290.119 483.963C290.969 481.911 291.407 479.712 291.407 477.491C291.407 475.27 290.969 473.07 290.119 471.019C289.269 468.967 288.023 467.102 286.453 465.532Z" fill="#78CBEC"/>
<path d="M154.84 178.724L131.47 155.353C128.298 152.182 123.996 150.4 119.511 150.4C115.026 150.4 110.724 152.182 107.552 155.353L89.952 172.953C88.3814 174.523 87.1356 176.388 86.2856 178.44C85.4356 180.492 84.9982 182.691 84.9982 184.912C84.9982 187.133 85.4356 189.332 86.2856 191.384C87.1356 193.436 88.3814 195.3 89.952 196.871L131.439 238.358C135.975 219.257 143.862 199.074 154.84 178.724Z" fill="#A7E0F5"/>
<path d="M311.994 189.401C309.643 187.05 306.853 185.185 303.781 183.913C300.71 182.641 297.418 181.986 294.094 181.986C290.77 181.986 287.478 182.641 284.406 183.913C281.335 185.185 278.544 187.05 276.194 189.401L242.457 223.138V219.601C242.457 212.887 239.79 206.448 235.043 201.701C230.295 196.954 223.857 194.287 217.143 194.287C210.429 194.287 203.991 196.954 199.243 201.701C194.496 206.448 191.829 212.887 191.829 219.601V273.763L143.255 322.337L162.448 353.746C177.86 322.964 200.456 291.525 229.335 262.646C257.251 234.729 287.561 212.676 317.356 197.316C316.09 194.359 314.269 191.671 311.993 189.398L311.994 189.401Z" fill="#A7E0F5"/>
<path d="M166.627 345.701L143.257 322.33C140.085 319.159 135.783 317.377 131.298 317.377C126.813 317.377 122.511 319.159 119.339 322.33L101.739 339.93C100.168 341.5 98.9226 343.365 98.0726 345.417C97.2226 347.469 96.7852 349.668 96.7852 351.889C96.7852 354.11 97.2226 356.309 98.0726 358.361C98.9226 360.413 100.168 362.277 101.739 363.848L143.226 405.335C147.762 386.238 155.648 366.055 166.627 345.701Z" fill="#34B5E1"/>
</svg>
