<svg width="512" height="512" viewBox="0 0 512 512" fill="none" xmlns="http://www.w3.org/2000/svg">
<path d="M104.981 99.7679C104.102 98.9123 102.924 98.4336 101.698 98.4336C100.471 98.4336 99.2934 98.9123 98.4148 99.7679C32.9738 163.41 50.5798 220.25 101.698 220.25C152.816 220.25 170.422 163.41 104.981 99.7679Z" fill="#80DFB5"/>
<path d="M395.491 15H201.887C181.475 15.0006 161.343 19.7537 143.087 28.883L129.197 35.827C127.111 36.8698 125.257 38.322 123.745 40.0968C122.233 41.8716 121.094 43.9328 120.396 46.1573C119.698 48.3819 119.455 50.7243 119.681 53.0448C119.908 55.3654 120.599 57.6165 121.715 59.664L131.371 77.39C133.162 80.6791 135.969 83.3006 139.373 84.8635C142.777 86.4264 146.595 86.8468 150.257 86.062L167.297 82.411C176.124 80.5187 185.321 81.4014 193.627 84.9382C201.933 88.475 208.943 94.493 213.697 102.168L228.582 126.2L284.664 170.574L340.746 126.2C350.49 87.248 376.946 78.518 396.235 77.67C402.114 77.454 407.683 74.9725 411.775 70.7447C415.866 66.517 418.165 60.8706 418.189 54.987V37.7C418.189 31.6799 415.797 25.9064 411.541 21.6494C407.284 17.3924 401.511 15.0005 395.491 15V15Z" fill="#78CBEC"/>
<path d="M380.387 214.952L284.662 191.026L188.937 214.952C143.198 253.007 113.107 317.563 113.107 390.8C113.018 410.04 115.265 429.22 119.799 447.919C129.132 485.666 163.286 512 202.17 512H367.155C406.038 512 440.193 485.666 449.522 447.918C454.055 429.219 456.302 410.039 456.214 390.799C456.214 317.563 426.127 253.007 380.387 214.952Z" fill="#78CBEC"/>
<path d="M199.94 278.259C199.94 253.78 200.913 231.596 202.79 211.489L188.937 214.951C143.198 253.007 113.107 317.562 113.107 390.8C113.018 410.04 115.265 429.22 119.799 447.919C129.132 485.666 163.286 512 202.17 512H289.47C234.415 461.428 199.94 371.309 199.94 278.259Z" fill="#34B5E1"/>
<path d="M340.744 126.2H228.581C218.067 126.2 207.983 130.377 200.548 137.812C193.114 145.246 188.937 155.33 188.937 165.844V214.944H380.387V165.844C380.387 160.638 379.362 155.483 377.369 150.673C375.377 145.863 372.457 141.493 368.776 137.812C365.095 134.13 360.724 131.21 355.915 129.218C351.105 127.226 345.95 126.2 340.744 126.2Z" fill="#C1E9FA"/>
<path d="M359.613 274.752H209.707C200.58 274.752 191.827 278.377 185.374 284.831C178.92 291.284 175.295 300.037 175.295 309.164V422.2C175.295 431.326 178.921 440.079 185.374 446.532C191.828 452.985 200.58 456.61 209.707 456.61H359.607C364.126 456.611 368.601 455.721 372.777 453.992C376.953 452.264 380.747 449.729 383.943 446.534C387.139 443.338 389.674 439.545 391.404 435.37C393.134 431.194 394.024 426.719 394.025 422.2V309.164C394.025 300.037 390.399 291.284 383.946 284.831C377.492 278.377 368.739 274.752 359.613 274.752Z" fill="white"/>
<path d="M331.153 345.276H305.067V319.191C305.067 315.976 303.789 312.892 301.516 310.619C299.242 308.345 296.159 307.068 292.944 307.068H276.381C273.166 307.068 270.082 308.345 267.809 310.619C265.535 312.892 264.258 315.976 264.258 319.191V345.276H238.173C236.581 345.276 235.004 345.589 233.533 346.199C232.062 346.808 230.726 347.701 229.6 348.827C228.474 349.953 227.581 351.289 226.972 352.76C226.363 354.231 226.05 355.808 226.05 357.4V373.963C226.05 377.178 227.327 380.262 229.6 382.535C231.874 384.809 234.958 386.086 238.173 386.086H264.258V412.172C264.258 415.387 265.535 418.471 267.809 420.744C270.082 423.018 273.166 424.295 276.381 424.295H292.944C296.159 424.295 299.242 423.018 301.516 420.744C303.789 418.471 305.067 415.387 305.067 412.172V386.085H331.153C334.368 386.085 337.451 384.808 339.725 382.534C341.999 380.261 343.276 377.177 343.276 373.962V357.4C343.276 355.808 342.962 354.231 342.353 352.76C341.744 351.289 340.851 349.953 339.725 348.827C338.6 347.701 337.263 346.808 335.792 346.199C334.321 345.589 332.745 345.276 331.153 345.276Z" fill="#FF748F"/>
<path d="M219.444 127.273C210.759 129.331 203.024 134.259 197.487 141.259C191.951 148.259 188.938 156.922 188.937 165.847V214.947H202.479C205.539 179.845 211.307 150.971 219.444 127.273Z" fill="#A7E0F5"/>
<path d="M199.94 278.259C199.94 277.559 199.94 276.865 199.946 276.166C192.829 278.274 186.584 282.626 182.142 288.573C177.701 294.52 175.3 301.743 175.3 309.166V422.2C175.3 431.325 178.925 440.077 185.378 446.53C191.83 452.983 200.581 456.609 209.707 456.61H245.746C216.794 406.93 199.935 343.31 199.935 278.259H199.94Z" fill="#E5E5E5"/>
<path d="M240.662 15H201.887C181.475 15.0006 161.343 19.7537 143.087 28.883L129.197 35.826C127.111 36.8688 125.257 38.321 123.745 40.0958C122.233 41.8706 121.094 43.9318 120.396 46.1563C119.698 48.3809 119.455 50.7233 119.681 53.0438C119.908 55.3644 120.599 57.6155 121.715 59.663L131.371 77.389C133.162 80.6781 135.969 83.2996 139.373 84.8625C142.777 86.4254 146.595 86.8458 150.257 86.061L167.297 82.41C173.268 81.1303 179.441 81.1143 185.419 82.3629C191.397 83.6115 197.047 86.0971 202.007 89.66C204.358 60.741 218.643 34.651 240.662 15Z" fill="#34B5E1"/>
<path d="M82.5667 137.987C82.5593 129.11 84.0121 120.293 86.8667 111.887C35.3697 170.451 53.8507 220.25 101.698 220.25C113.855 220.25 124.111 217.029 131.811 211.272C103.107 200.478 82.5667 171.746 82.5667 137.987Z" fill="#36D39A"/>
</svg>
