<svg width="512" height="512" viewBox="0 0 512 512" fill="none" xmlns="http://www.w3.org/2000/svg">
<path d="M0.5 0.5H511.5V511.5H0.5V0.5Z" stroke="black" stroke-opacity="0.01"/>
<path d="M104.981 99.7679C104.102 98.9123 102.924 98.4336 101.698 98.4336C100.471 98.4336 99.2934 98.9123 98.4148 99.7679C32.9738 163.41 50.5798 220.25 101.698 220.25C152.816 220.25 170.422 163.41 104.981 99.7679Z" fill="#80DFB5"/>
<path d="M104.632 100.126L104.632 100.126C137.3 131.896 149.137 161.872 146.552 183.816C145.261 194.779 140.372 203.75 132.664 209.986C124.953 216.224 114.385 219.75 101.698 219.75C89.0103 219.75 78.4427 216.224 70.7312 209.986C63.0234 203.75 58.1346 194.779 56.8432 183.816C54.2581 161.872 66.0952 131.896 98.7633 100.126L98.7636 100.126C99.5489 99.3615 100.602 98.9336 101.698 98.9336C102.794 98.9336 103.847 99.3615 104.632 100.126Z" stroke="black" stroke-opacity="0.01"/>
<path d="M395.491 15H201.887C181.475 15.0006 161.343 19.7537 143.087 28.883L129.197 35.827C127.111 36.8698 125.257 38.322 123.745 40.0968C122.233 41.8716 121.094 43.9328 120.396 46.1573C119.698 48.3819 119.455 50.7243 119.681 53.0448C119.908 55.3654 120.599 57.6165 121.715 59.664L131.371 77.39C133.162 80.6791 135.969 83.3006 139.373 84.8635C142.777 86.4264 146.595 86.8468 150.257 86.062L167.297 82.411C176.124 80.5187 185.321 81.4014 193.627 84.9382C201.933 88.475 208.943 94.493 213.697 102.168L228.582 126.2L284.664 170.574L340.746 126.2C350.49 87.248 376.946 78.518 396.235 77.67C402.114 77.454 407.683 74.9725 411.775 70.7447C415.866 66.517 418.165 60.8706 418.189 54.987V37.7C418.189 31.6799 415.797 25.9064 411.541 21.6494C407.284 17.3924 401.511 15.0005 395.491 15V15Z" fill="#78CBEC"/>
<path d="M143.31 29.3302L143.31 29.3302C161.498 20.2357 181.552 15.5006 201.887 15.5H395.491C401.378 15.5005 407.024 17.8397 411.187 22.0029C415.35 26.1662 417.689 31.8125 417.689 37.7V54.985C417.665 60.7395 415.417 66.262 411.415 70.397C407.413 74.532 401.967 76.959 396.216 77.1703L396.213 77.1705C386.507 77.5972 374.969 80.0076 364.624 87.2361C354.3 94.4506 345.21 106.433 340.302 125.913L284.664 169.936L228.961 125.862L214.122 101.905C209.314 94.142 202.224 88.0554 193.823 84.4782C185.422 80.901 176.12 80.0082 167.192 81.9221L150.152 85.5731L150.257 86.062L150.152 85.5731C146.595 86.3353 142.887 85.927 139.582 84.4091C136.276 82.8913 133.55 80.3452 131.81 77.1508L131.371 77.39L131.81 77.1508L122.154 59.4248L121.716 59.6632L122.154 59.4248C121.071 57.4363 120.399 55.25 120.179 52.9962C119.959 50.7425 120.195 48.4676 120.873 46.3071C121.551 44.1465 122.657 42.1447 124.126 40.421C125.594 38.6973 127.395 37.287 129.42 36.2742C129.42 36.2742 129.42 36.2742 129.42 36.2742L143.31 29.3302Z" stroke="black" stroke-opacity="0.01"/>
<path d="M380.387 214.952L284.662 191.026L188.937 214.952C143.198 253.007 113.107 317.563 113.107 390.8C113.018 410.04 115.265 429.22 119.799 447.919C129.132 485.666 163.286 512 202.17 512H367.155C406.038 512 440.193 485.666 449.522 447.918C454.055 429.219 456.302 410.039 456.214 390.799C456.214 317.563 426.127 253.007 380.387 214.952V214.952Z" fill="#78CBEC"/>
<path d="M284.662 191.541L380.155 215.409C425.718 253.368 455.714 317.741 455.714 390.799V390.801C455.802 410.001 453.56 429.141 449.036 447.8C439.762 485.32 405.811 511.5 367.155 511.5H202.17C163.512 511.5 129.561 485.319 120.284 447.799C115.761 429.14 113.519 410.001 113.607 390.802V390.8C113.607 317.741 143.606 253.368 189.169 215.409L284.662 191.541Z" stroke="black" stroke-opacity="0.01"/>
<path d="M199.94 278.259C199.94 253.78 200.913 231.596 202.79 211.489L188.937 214.951C143.198 253.007 113.107 317.562 113.107 390.8C113.018 410.04 115.265 429.22 119.799 447.919C129.132 485.666 163.286 512 202.17 512H289.47C234.415 461.428 199.94 371.309 199.94 278.259Z" fill="#34B5E1"/>
<path d="M113.607 390.802V390.8C113.607 317.739 143.606 253.368 189.169 215.408L202.227 212.145C200.391 232.083 199.44 254.051 199.44 278.259C199.44 370.882 233.558 460.653 288.193 511.5H202.17C163.513 511.5 129.562 485.32 120.284 447.8C115.761 429.141 113.519 410.002 113.607 390.802Z" stroke="black" stroke-opacity="0.01"/>
<path d="M340.744 126.2H228.581C218.067 126.2 207.983 130.377 200.548 137.812C193.114 145.246 188.937 155.33 188.937 165.844V214.944H380.387V165.844C380.387 160.638 379.362 155.483 377.369 150.673C375.377 145.863 372.457 141.493 368.776 137.812C365.095 134.13 360.724 131.21 355.915 129.218C351.105 127.226 345.95 126.2 340.744 126.2V126.2Z" fill="#C1E9FA"/>
<path d="M228.581 126.7H340.744C345.884 126.7 350.974 127.713 355.723 129.68C360.472 131.647 364.788 134.53 368.422 138.165C372.057 141.8 374.94 146.115 376.907 150.865C378.875 155.614 379.887 160.704 379.887 165.844V214.444H189.437V165.844C189.437 155.463 193.561 145.506 200.902 138.165C208.243 130.824 218.199 126.7 228.581 126.7Z" stroke="black" stroke-opacity="0.01"/>
<path d="M359.613 274.752H209.707C200.58 274.752 191.827 278.377 185.374 284.831C178.92 291.284 175.295 300.037 175.295 309.164V422.2C175.295 431.326 178.921 440.079 185.374 446.532C191.828 452.985 200.58 456.61 209.707 456.61H359.607C364.126 456.611 368.601 455.721 372.777 453.992C376.953 452.264 380.747 449.729 383.943 446.534C387.139 443.338 389.674 439.545 391.404 435.37C393.134 431.194 394.024 426.719 394.025 422.2V309.164C394.025 300.037 390.399 291.284 383.946 284.831C377.492 278.377 368.739 274.752 359.613 274.752V274.752Z" fill="white"/>
<path d="M209.707 275.252H359.613C368.607 275.252 377.232 278.825 383.592 285.185C389.952 291.544 393.525 300.17 393.525 309.164V422.2C393.524 426.654 392.647 431.064 390.942 435.178C389.237 439.293 386.739 443.031 383.589 446.18C380.44 449.329 376.701 451.827 372.586 453.53C368.471 455.234 364.061 456.111 359.607 456.11H209.707C200.713 456.11 192.088 452.537 185.728 446.178C179.368 439.819 175.795 431.194 175.795 422.2V309.164C175.795 300.17 179.368 291.544 185.727 285.185C192.087 278.825 200.713 275.252 209.707 275.252Z" stroke="black" stroke-opacity="0.01"/>
<path d="M331.153 345.276H305.067V319.191C305.067 315.976 303.789 312.892 301.516 310.619C299.242 308.345 296.159 307.068 292.944 307.068H276.381C273.166 307.068 270.082 308.345 267.809 310.619C265.535 312.892 264.258 315.976 264.258 319.191V345.276H238.173C236.581 345.276 235.004 345.589 233.533 346.199C232.062 346.808 230.726 347.701 229.6 348.827C228.474 349.953 227.581 351.289 226.972 352.76C226.363 354.231 226.05 355.808 226.05 357.4V373.963C226.05 377.178 227.327 380.262 229.6 382.535C231.874 384.809 234.958 386.086 238.173 386.086H264.258V412.172C264.258 415.387 265.535 418.471 267.809 420.744C270.082 423.018 273.166 424.295 276.381 424.295H292.944C296.159 424.295 299.242 423.018 301.516 420.744C303.789 418.471 305.067 415.387 305.067 412.172V386.085H331.153C334.368 386.085 337.452 384.808 339.725 382.534C341.999 380.261 343.276 377.177 343.276 373.962V357.4C343.276 355.808 342.962 354.231 342.353 352.76C341.744 351.289 340.851 349.953 339.725 348.827C338.6 347.701 337.263 346.808 335.792 346.199C334.321 345.589 332.745 345.276 331.153 345.276Z" fill="#FF748F"/>
<path d="M304.567 345.276V345.776H305.067H331.153C332.679 345.776 334.191 346.077 335.601 346.661C337.011 347.245 338.292 348.101 339.372 349.181C340.451 350.26 341.307 351.541 341.891 352.952C342.475 354.362 342.776 355.873 342.776 357.4V373.962C342.776 377.044 341.551 380.001 339.371 382.181C337.192 384.36 334.235 385.585 331.153 385.585H305.067H304.567V386.085V412.172C304.567 415.254 303.342 418.211 301.162 420.391C298.983 422.57 296.026 423.795 292.944 423.795H276.381C273.298 423.795 270.342 422.57 268.162 420.391C265.982 418.211 264.758 415.254 264.758 412.172V386.086V385.586H264.258H238.173C235.09 385.586 232.134 384.361 229.954 382.182C227.774 380.002 226.55 377.046 226.55 373.963V357.4C226.55 355.873 226.85 354.362 227.434 352.952C228.018 351.541 228.874 350.26 229.954 349.181C231.033 348.101 232.314 347.245 233.725 346.661C235.135 346.077 236.646 345.776 238.173 345.776H264.258H264.758V345.276V319.191C264.758 316.108 265.982 313.152 268.162 310.972C270.342 308.792 273.298 307.568 276.381 307.568H292.944C296.026 307.568 298.983 308.792 301.162 310.972C303.342 313.152 304.567 316.108 304.567 319.191V345.276Z" stroke="black" stroke-opacity="0.01"/>
<path d="M219.444 127.273C210.759 129.331 203.024 134.259 197.487 141.259C191.951 148.259 188.938 156.922 188.937 165.847V214.947H202.479C205.539 179.845 211.307 150.971 219.444 127.273Z" fill="#A7E0F5"/>
<path d="M197.879 141.569C203.157 134.896 210.459 130.13 218.674 127.98C210.712 151.458 205.056 179.949 202.021 214.447H189.437V165.847C189.437 165.847 189.437 165.847 189.437 165.847C189.438 157.035 192.413 148.481 197.879 141.569Z" stroke="black" stroke-opacity="0.01"/>
<path d="M199.94 278.259C199.94 277.559 199.94 276.865 199.946 276.166C192.829 278.274 186.584 282.626 182.142 288.573C177.701 294.52 175.3 301.743 175.3 309.166V422.2C175.3 431.325 178.925 440.077 185.378 446.53C191.83 452.983 200.581 456.609 209.707 456.61H245.746C216.794 406.93 199.935 343.31 199.935 278.259H199.94Z" fill="#E5E5E5"/>
<path d="M199.435 278.259C199.435 343.064 216.144 406.459 244.877 456.11H209.707C200.714 456.109 192.09 452.536 185.731 446.176C179.373 439.817 175.8 431.193 175.8 422.2V309.166C175.8 301.851 178.166 294.733 182.543 288.872C186.785 283.192 192.696 278.988 199.442 276.844C199.44 277.149 199.44 277.454 199.44 277.759H199.435V278.259Z" stroke="black" stroke-opacity="0.01"/>
<path d="M240.662 15H201.887C181.475 15.0006 161.343 19.7537 143.087 28.883L129.197 35.826C127.111 36.8688 125.257 38.321 123.745 40.0958C122.233 41.8706 121.094 43.9318 120.396 46.1563C119.698 48.3809 119.455 50.7233 119.681 53.0438C119.908 55.3644 120.599 57.6155 121.715 59.663L131.371 77.389C133.162 80.6781 135.969 83.2996 139.373 84.8625C142.777 86.4254 146.595 86.8458 150.257 86.061L167.297 82.41C173.268 81.1303 179.441 81.1143 185.419 82.3629C191.397 83.6115 197.047 86.0971 202.007 89.66C204.358 60.741 218.643 34.651 240.662 15Z" fill="#34B5E1"/>
<path d="M239.36 15.5C218.026 34.924 204.12 60.4607 201.583 88.7504C196.741 85.4156 191.281 83.0766 185.521 81.8734C179.475 80.6106 173.231 80.6268 167.192 81.9211L150.152 85.5721L150.257 86.061L150.152 85.5721C146.595 86.3343 142.887 85.926 139.582 84.4081C136.276 82.8903 133.55 80.3442 131.81 77.1498L131.371 77.389L131.81 77.1498L122.154 59.4238L121.716 59.6622L122.154 59.4238C121.071 57.4353 120.399 55.249 120.179 52.9952C119.959 50.7415 120.195 48.4666 120.873 46.3061C121.551 44.1455 122.657 42.1437 124.126 40.42C125.594 38.6963 127.395 37.286 129.42 36.2732C129.42 36.2732 129.42 36.2732 129.42 36.2732L143.31 29.3302L143.31 29.3302C161.498 20.2357 181.552 15.5006 201.887 15.5H239.36Z" stroke="black" stroke-opacity="0.01"/>
<path d="M82.5667 137.987C82.5593 129.11 84.0121 120.293 86.8667 111.887C35.3697 170.451 53.8507 220.25 101.698 220.25C113.855 220.25 124.111 217.029 131.811 211.272C103.107 200.478 82.5667 171.746 82.5667 137.987Z" fill="#36D39A"/>
<path d="M82.0667 137.988C82.06 129.876 83.2651 121.813 85.6382 114.065C61.2072 142.574 53.4863 168.788 57.5175 187.927C61.624 207.424 77.9651 219.75 101.698 219.75C113.38 219.75 123.261 216.755 130.773 211.41C102.322 200.295 82.0669 171.612 82.0667 137.988ZM82.0667 137.988C82.0667 137.987 82.0667 137.987 82.0667 137.987H82.5667L82.0667 137.988Z" stroke="black" stroke-opacity="0.01"/>
</svg>
