<svg width="512" height="512" viewBox="0 0 512 512" fill="none" xmlns="http://www.w3.org/2000/svg">
<path d="M0.5 0.5H511.5V511.5H0.5V0.5Z" stroke="black" stroke-opacity="0.01"/>
<path d="M423.264 72.2363H87.8457C73.5163 72.2363 59.7738 77.9287 49.6414 88.0611C39.509 98.1935 33.8167 111.936 33.8167 126.265V421.436H477.293V126.266C477.293 111.937 471.6 98.1943 461.468 88.0617C451.336 77.9291 437.593 72.2366 423.264 72.2363V72.2363Z" fill="#5C586F"/>
<path d="M87.8457 72.7363H423.264C437.461 72.7366 451.076 78.3765 461.114 88.4153C471.153 98.4541 476.793 112.069 476.793 126.266V420.936H34.3167V126.265C34.3167 112.069 39.9563 98.4532 49.995 88.4146C60.0336 78.376 73.6489 72.7363 87.8457 72.7363Z" stroke="black" stroke-opacity="0.01"/>
<path d="M96.1257 154.531H414.983V421.437H96.1257V154.531Z" fill="#78CBEC"/>
<path d="M96.6257 155.031H414.483V420.937H96.6257V155.031Z" stroke="black" stroke-opacity="0.01"/>
<path d="M373.06 396.529L332.682 421.437L287.291 396.529L255.555 343.151L287.291 277.951H319.555C319.555 277.951 373.06 323.648 373.06 396.529Z" fill="white"/>
<path d="M345.888 310.182C359.195 330.61 372.491 360.062 372.559 396.25L332.667 420.858L287.651 396.156L256.122 343.127L287.603 278.451H319.368C319.371 278.454 319.375 278.457 319.379 278.46C319.478 278.547 319.627 278.679 319.821 278.853C320.21 279.203 320.781 279.726 321.509 280.419C322.965 281.804 325.048 283.866 327.548 286.569C332.549 291.975 339.218 299.943 345.888 310.182Z" stroke="black" stroke-opacity="0.01"/>
<path d="M223.819 277.955L255.555 343.155L223.819 396.534L180.935 421.438L138.055 396.53C138.055 323.649 191.555 277.955 191.555 277.955H223.819Z" fill="white"/>
<path d="M191.731 278.464C191.734 278.461 191.738 278.458 191.741 278.455H223.506L254.987 343.131L223.455 396.166L180.935 420.859L138.555 396.242C138.625 360.058 151.919 330.61 165.224 310.185C171.893 299.946 178.562 291.978 183.562 286.573C186.062 283.87 188.145 281.808 189.6 280.423C190.328 279.73 190.9 279.207 191.288 278.857C191.482 278.683 191.631 278.551 191.731 278.464Z" stroke="black" stroke-opacity="0.01"/>
<path d="M223.819 277.955H287.291V396.53H223.819V277.955Z" fill="#80DFB5"/>
<path d="M224.319 278.455H286.791V396.03H224.319V278.455Z" stroke="black" stroke-opacity="0.01"/>
<path d="M191.555 396.528H33.8167C26.7193 396.529 19.9129 399.349 14.8943 404.368C9.87565 409.387 7.05575 416.193 7.05469 423.29V435.69C7.05389 451.727 13.4233 467.107 24.7618 478.447C36.1003 489.788 51.4793 496.159 67.5157 496.161H443.594C459.63 496.159 475.009 489.787 486.347 478.447C497.686 467.106 504.055 451.727 504.055 435.69V423.29C504.054 416.193 501.234 409.386 496.215 404.368C491.197 399.349 484.39 396.529 477.293 396.528H191.555Z" fill="#C7C5CB"/>
<path d="M33.8167 397.028C33.8167 397.028 33.8167 397.028 33.8168 397.028H191.555H477.293C484.258 397.029 490.937 399.796 495.862 404.721C500.787 409.646 503.554 416.325 503.555 423.29V435.69C503.555 451.594 497.238 466.847 485.994 478.093C474.749 489.34 459.497 495.659 443.594 495.661H67.5157C51.6119 495.659 36.3602 489.34 25.1154 478.094C13.8706 466.847 7.5539 451.594 7.55469 435.69V423.29C7.55469 423.29 7.55469 423.29 7.55469 423.29C7.55575 416.326 10.323 409.646 15.2478 404.721C20.1727 399.797 26.8519 397.029 33.8167 397.028Z" stroke="black" stroke-opacity="0.01"/>
<path d="M392.999 211.139C414.404 211.139 431.757 193.786 431.757 172.381C431.757 150.976 414.404 133.623 392.999 133.623C371.593 133.623 354.241 150.976 354.241 172.381C354.241 193.786 371.593 211.139 392.999 211.139Z" fill="#FFCABD"/>
<path d="M431.257 172.381C431.257 193.51 414.128 210.639 392.999 210.639C371.869 210.639 354.741 193.51 354.741 172.381C354.741 151.252 371.869 134.123 392.999 134.123C414.128 134.123 431.257 151.252 431.257 172.381Z" stroke="black" stroke-opacity="0.01"/>
<path d="M125.455 95.6474H125.445C136.391 70.2197 154.548 48.5566 177.672 33.3357C200.796 18.1147 227.873 10.0029 255.557 10.0029C283.24 10.0029 310.318 18.1147 333.441 33.3357C356.565 48.5566 374.722 70.2197 385.669 95.6474L255.555 139.498L125.455 95.6474Z" fill="#FF9E8E"/>
<path d="M333.166 33.7533C356.058 48.8211 374.064 70.2243 384.994 95.3472L255.555 138.971L126.121 95.3443C137.05 70.2227 155.057 48.8205 177.947 33.7533C200.989 18.5861 227.971 10.5029 255.557 10.5029C283.143 10.5029 310.124 18.5861 333.166 33.7533Z" stroke="black" stroke-opacity="0.01"/>
<path d="M239.545 10.9014C214.748 13.7296 191.138 23.0559 171.103 37.9369C151.068 52.8179 135.317 72.7258 125.445 95.6474H125.455L160.102 107.325C173.038 67.5664 201.588 33.6084 239.547 10.9014H239.545Z" fill="#FB8978"/>
<path d="M159.783 106.69L126.121 95.3442C135.971 72.7145 151.582 53.0583 171.401 38.3383C190.744 23.9715 213.431 14.8005 237.297 11.6802C200.391 34.3374 172.604 67.7098 159.783 106.69Z" stroke="black" stroke-opacity="0.01"/>
<path d="M397.155 151.611C397.141 172.622 392.452 193.367 383.428 212.341C374.403 231.315 361.269 248.043 344.979 261.312C328.688 274.581 309.648 284.058 289.24 289.056C268.832 294.055 247.568 294.449 226.989 290.21C206.41 285.972 187.032 277.206 170.261 264.55C153.489 251.894 139.745 235.664 130.023 217.038C120.302 198.411 114.847 177.854 114.055 156.858C113.263 135.862 117.154 114.953 125.445 95.6473H125.455C264.426 52.2593 247.81 146.793 385.655 95.6473H385.665C393.27 113.324 397.18 132.368 397.155 151.611V151.611Z" fill="#FFDCCE"/>
<path d="M114.555 156.84C113.769 135.996 117.614 115.238 125.812 96.0596C160.399 85.2835 185.289 83.0829 205.306 85.033C224.646 86.9171 239.466 92.6768 254.153 98.3845C254.701 98.5973 255.248 98.8101 255.796 99.0226C271.024 104.933 286.278 110.626 306.363 111.622C326.362 112.615 351.113 108.95 385.391 96.2781C392.847 113.77 396.68 132.593 396.655 151.611C396.641 172.548 391.969 193.219 382.976 212.126C373.984 231.033 360.896 247.702 344.663 260.924C328.429 274.146 309.457 283.59 289.121 288.571C268.785 293.552 247.596 293.944 227.09 289.721C206.584 285.497 187.274 276.763 170.562 264.151C153.85 251.54 140.153 235.367 130.466 216.806C120.779 198.246 115.344 177.761 114.555 156.84Z" stroke="black" stroke-opacity="0.01"/>
<path d="M319.555 396.528V414.245C319.555 422.759 316.173 430.924 310.153 436.943C304.133 442.963 295.968 446.345 287.455 446.345H223.655C215.141 446.345 206.976 442.963 200.957 436.943C194.937 430.924 191.555 422.759 191.555 414.245V396.528H319.555Z" fill="#B2B0BC"/>
<path d="M319.055 397.028V414.245C319.055 422.626 315.725 430.664 309.799 436.59C303.873 442.516 295.836 445.845 287.455 445.845H223.655C215.274 445.845 207.236 442.516 201.31 436.59C195.384 430.664 192.055 422.626 192.055 414.245V397.028H319.055Z" stroke="black" stroke-opacity="0.01"/>
<path d="M223.841 289.641C180.213 257.582 152.455 209.389 152.455 155.482C152.474 131.194 158.15 107.244 169.033 85.5303C154.251 87.6872 139.675 91.0713 125.455 95.6473H125.445C120.214 107.798 116.724 120.626 115.079 133.752C105.094 134.537 95.8015 139.156 89.1482 146.641C82.4948 154.127 78.9977 163.897 79.3901 173.904C79.7824 183.912 84.0337 193.379 91.2527 200.32C98.4717 207.262 108.098 211.139 118.113 211.139C120.966 211.15 123.81 210.809 126.581 210.124C135.599 229.957 149.063 247.446 165.93 261.235C182.797 275.025 202.614 284.745 223.843 289.641H223.841Z" fill="#FFCABD"/>
<path d="M125.813 96.0574C139.638 91.6207 153.8 88.3124 168.159 86.1648C157.52 107.72 151.974 131.436 151.955 155.482V155.482C151.955 208.758 178.977 256.452 221.586 288.586C201.327 283.544 182.425 274.075 166.247 260.848C149.439 247.107 136.022 229.68 127.036 209.917L126.864 209.539L126.461 209.639C123.73 210.314 120.927 210.65 118.115 210.639H118.113C108.227 210.639 98.7251 206.812 91.5993 199.96C84.4734 193.108 80.277 183.763 79.8897 173.885C79.5024 164.007 82.9544 154.362 89.5219 146.973C96.0894 139.584 105.262 135.025 115.118 134.251L115.524 134.219L115.575 133.814C117.205 120.811 120.651 108.102 125.813 96.0574Z" stroke="black" stroke-opacity="0.01"/>
<path d="M172.936 214.638C189.772 214.638 203.421 203.77 203.421 190.362C203.421 176.955 189.772 166.086 172.936 166.086C156.099 166.086 142.451 176.955 142.451 190.362C142.451 203.77 156.099 214.638 172.936 214.638Z" fill="#FF889E"/>
<path d="M202.921 190.362C202.921 203.393 189.608 214.138 172.936 214.138C156.263 214.138 142.951 203.393 142.951 190.362C142.951 177.332 156.263 166.586 172.936 166.586C189.608 166.586 202.921 177.332 202.921 190.362Z" stroke="black" stroke-opacity="0.01"/>
<path d="M338.174 214.638C355.01 214.638 368.659 203.77 368.659 190.362C368.659 176.955 355.01 166.086 338.174 166.086C321.337 166.086 307.689 176.955 307.689 190.362C307.689 203.77 321.337 214.638 338.174 214.638Z" fill="#FF889E"/>
<path d="M368.159 190.362C368.159 203.393 354.846 214.138 338.174 214.138C321.501 214.138 308.189 203.393 308.189 190.362C308.189 177.332 321.501 166.586 338.174 166.586C354.846 166.586 368.159 177.332 368.159 190.362Z" stroke="black" stroke-opacity="0.01"/>
<path d="M190.703 174.493C188.714 174.493 186.806 173.703 185.399 172.297C183.993 170.89 183.203 168.982 183.203 166.993V154.531C183.203 152.542 183.993 150.634 185.399 149.228C186.806 147.821 188.714 147.031 190.703 147.031C192.692 147.031 194.599 147.821 196.006 149.228C197.413 150.634 198.203 152.542 198.203 154.531V166.993C198.203 168.982 197.413 170.89 196.006 172.297C194.599 173.703 192.692 174.493 190.703 174.493Z" fill="#423E4F"/>
<path d="M190.703 173.993C188.846 173.993 187.066 173.256 185.753 171.943C184.44 170.63 183.703 168.85 183.703 166.993V154.531C183.703 152.675 184.44 150.894 185.753 149.582C187.066 148.269 188.846 147.531 190.703 147.531C192.559 147.531 194.34 148.269 195.652 149.582C196.965 150.894 197.703 152.675 197.703 154.531V166.993C197.703 168.85 196.965 170.63 195.652 171.943C194.34 173.256 192.559 173.993 190.703 173.993Z" stroke="black" stroke-opacity="0.01"/>
<path d="M320.408 174.493C318.419 174.493 316.511 173.703 315.104 172.297C313.698 170.89 312.908 168.982 312.908 166.993V154.531C312.908 152.542 313.698 150.634 315.104 149.228C316.511 147.821 318.419 147.031 320.408 147.031C322.397 147.031 324.304 147.821 325.711 149.228C327.117 150.634 327.908 152.542 327.908 154.531V166.993C327.908 168.982 327.117 170.89 325.711 172.297C324.304 173.703 322.397 174.493 320.408 174.493Z" fill="#423E4F"/>
<path d="M320.408 173.993C318.551 173.993 316.771 173.256 315.458 171.943C314.145 170.63 313.408 168.85 313.408 166.993V154.531C313.408 152.675 314.145 150.894 315.458 149.582C316.771 148.269 318.551 147.531 320.408 147.531C322.264 147.531 324.045 148.269 325.357 149.582C326.67 150.894 327.408 152.675 327.408 154.531V166.993C327.408 168.85 326.67 170.63 325.357 171.943C324.045 173.256 322.264 173.993 320.408 173.993Z" stroke="black" stroke-opacity="0.01"/>
<path d="M255.555 181.911C251.242 181.91 246.98 180.985 243.055 179.197C239.13 177.41 235.634 174.802 232.803 171.549C231.496 170.05 230.838 168.092 230.975 166.108C231.111 164.123 232.03 162.274 233.53 160.967C235.029 159.66 236.987 159.003 238.971 159.139C240.956 159.276 242.805 160.195 244.112 161.694C245.535 163.332 247.293 164.646 249.267 165.546C251.241 166.446 253.385 166.911 255.555 166.911C257.725 166.911 259.869 166.446 261.843 165.546C263.818 164.646 265.576 163.332 266.999 161.694C268.306 160.195 270.155 159.276 272.139 159.139C274.124 159.003 276.081 159.66 277.581 160.967C279.08 162.274 279.999 164.123 280.136 166.108C280.272 168.092 279.615 170.05 278.308 171.549C275.476 174.802 271.979 177.41 268.055 179.197C264.13 180.985 259.867 181.91 255.555 181.911Z" fill="#423E4F"/>
<path d="M233.18 171.221L233.18 171.221C235.965 174.42 239.403 176.985 243.262 178.742C247.122 180.5 251.313 181.41 255.555 181.411L233.18 171.221ZM233.18 171.221C231.96 169.821 231.346 167.994 231.473 166.142C231.601 164.29 232.458 162.564 233.858 161.344C235.258 160.125 237.085 159.511 238.937 159.638C240.789 159.765 242.515 160.623 243.735 162.023C245.205 163.714 247.02 165.071 249.059 166.001C251.099 166.93 253.314 167.411 255.555 167.411C257.796 167.411 260.012 166.93 262.051 166.001C264.09 165.071 265.906 163.714 267.376 162.022C268.596 160.623 270.321 159.765 272.173 159.638C274.026 159.511 275.852 160.125 277.252 161.344C278.652 162.564 279.51 164.29 279.637 166.142C279.764 167.994 279.15 169.821 277.931 171.221L277.931 171.221M233.18 171.221L277.931 171.221M277.931 171.221C275.146 174.42 271.707 176.984 267.847 178.742M277.931 171.221L267.847 178.742M267.847 178.742C263.988 180.5 259.796 181.41 255.555 181.411L267.847 178.742Z" stroke="black" stroke-opacity="0.01"/>
<path d="M339.325 342.538H333.349V336.562C333.349 334.573 332.558 332.666 331.152 331.259C329.745 329.853 327.838 329.062 325.849 329.062C323.86 329.062 321.952 329.853 320.545 331.259C319.139 332.666 318.349 334.573 318.349 336.562V342.538H312.373C310.384 342.538 308.476 343.329 307.069 344.735C305.663 346.142 304.873 348.049 304.873 350.038C304.873 352.028 305.663 353.935 307.069 355.342C308.476 356.748 310.384 357.538 312.373 357.538H318.349V363.514C318.349 365.504 319.139 367.411 320.545 368.818C321.952 370.224 323.86 371.014 325.849 371.014C327.838 371.014 329.745 370.224 331.152 368.818C332.558 367.411 333.349 365.504 333.349 363.514V357.538H339.325C341.314 357.538 343.221 356.748 344.628 355.342C346.034 353.935 346.825 352.028 346.825 350.038C346.825 348.049 346.034 346.142 344.628 344.735C343.221 343.329 341.314 342.538 339.325 342.538Z" fill="#FF748F"/>
<path d="M332.849 342.538V343.038H333.349H339.325C341.181 343.038 342.962 343.776 344.274 345.089C345.587 346.402 346.325 348.182 346.325 350.038C346.325 351.895 345.587 353.675 344.274 354.988C342.962 356.301 341.181 357.038 339.325 357.038H333.349H332.849V357.538V363.514C332.849 365.371 332.111 367.151 330.798 368.464C329.486 369.777 327.705 370.514 325.849 370.514C323.992 370.514 322.212 369.777 320.899 368.464C319.586 367.151 318.849 365.371 318.849 363.514V357.538V357.038H318.349H312.373C310.516 357.038 308.736 356.301 307.423 354.988C306.11 353.675 305.373 351.895 305.373 350.038C305.373 348.182 306.11 346.402 307.423 345.089C308.736 343.776 310.516 343.038 312.373 343.038H318.349H318.849V342.538V336.562C318.849 334.706 319.586 332.925 320.899 331.613C322.212 330.3 323.992 329.562 325.849 329.562C327.705 329.562 329.486 330.3 330.798 331.613C332.111 332.925 332.849 334.706 332.849 336.562V342.538Z" stroke="black" stroke-opacity="0.01"/>
<path d="M63.7707 396.529H33.8167C26.7194 396.53 19.913 399.35 14.8943 404.368C9.87568 409.387 7.05575 416.193 7.05469 423.29V435.69C7.05389 451.727 13.4233 467.107 24.7618 478.447C36.1003 489.788 51.4793 496.159 67.5157 496.161H122.255C93.5547 467.971 73.0427 433.936 63.7687 396.53L63.7707 396.529Z" fill="#B2B0BC"/>
<path d="M63.3777 397.029C72.6261 434.008 92.8285 467.678 121.036 495.661H67.5157C51.6119 495.659 36.3602 489.34 25.1154 478.094C13.8706 466.847 7.5539 451.594 7.55469 435.69V423.29C7.55469 423.29 7.55469 423.29 7.55469 423.29C7.55575 416.326 10.323 409.646 15.2479 404.722C20.1728 399.797 26.852 397.03 33.8167 397.029C33.8167 397.029 33.8167 397.029 33.8167 397.029H63.3777Z" stroke="black" stroke-opacity="0.01"/>
</svg>
