<svg width="516" height="512" viewBox="0 0 516 512" fill="none" xmlns="http://www.w3.org/2000/svg">
<path d="M435.209 88.2329H99.791C85.4616 88.2329 71.7191 93.9252 61.5867 104.058C51.4543 114.19 45.762 127.933 45.762 142.262V437.433H489.238V142.263C489.238 127.933 483.546 114.191 473.413 104.058C463.281 93.9257 449.538 88.2332 435.209 88.2329Z" fill="#5C586F"/>
<path d="M108.071 170.528H426.928V437.434H108.071V170.528Z" fill="#78CBEC"/>
<path d="M385.005 412.525L344.627 437.433L299.236 412.525L267.5 359.147L299.236 293.947H331.5C331.5 293.947 385.005 339.644 385.005 412.525Z" fill="white"/>
<path d="M235.764 293.951L267.5 359.151L235.764 412.53L192.88 437.434L150 412.526C150 339.645 203.5 293.951 203.5 293.951H235.764Z" fill="white"/>
<path d="M235.764 293.951H299.236V412.526H235.764V293.951Z" fill="#80DFB5"/>
<path d="M203.5 412.525H45.762C38.6646 412.526 31.8582 415.346 26.8396 420.364C21.821 425.383 19.0011 432.189 19 439.287V451.687C18.9992 467.723 25.3686 483.103 36.7071 494.444C48.0457 505.784 63.4246 512.156 79.461 512.158H455.539C471.575 512.156 486.954 505.784 498.293 494.443C509.631 483.103 516.001 467.723 516 451.687V439.287C515.999 432.189 513.179 425.383 508.161 420.364C503.142 415.345 496.335 412.526 489.238 412.525H203.5Z" fill="#C7C5CB"/>
<path d="M404.944 227.136C426.349 227.136 443.702 209.784 443.702 188.378C443.702 166.973 426.349 149.62 404.944 149.62C383.539 149.62 366.186 166.973 366.186 188.378C366.186 209.784 383.539 227.136 404.944 227.136Z" fill="#FFCABD"/>
<path d="M137.4 111.644H137.39C148.336 86.2163 166.493 64.5532 189.617 49.3322C212.741 34.1113 239.818 25.9995 267.502 25.9995C295.186 25.9995 322.263 34.1113 345.387 49.3322C368.511 64.5532 386.668 86.2163 397.614 111.644L267.5 155.495L137.4 111.644Z" fill="#FF9E8E"/>
<path d="M251.49 26.8979C226.694 29.7262 203.084 39.0525 183.048 53.9335C163.013 68.8144 147.262 88.7224 137.39 111.644H137.4L172.047 123.322C184.983 83.5629 213.533 49.6049 251.492 26.8979H251.49Z" fill="#FB8978"/>
<path d="M409.1 167.608C409.087 188.619 404.398 209.363 395.373 228.338C386.349 247.312 373.215 264.04 356.924 277.309C340.633 290.578 321.593 300.055 301.185 305.053C280.778 310.051 259.513 310.446 238.934 306.207C218.355 301.968 198.978 293.203 182.206 280.547C165.435 267.891 151.69 251.661 141.968 233.034C132.247 214.408 126.793 193.851 126.001 172.855C125.209 151.859 129.099 130.95 137.39 111.644H137.4C276.371 68.2558 259.755 162.79 397.6 111.644H397.61C405.215 129.32 409.125 148.365 409.1 167.608Z" fill="#FFDCCE"/>
<path d="M331.5 412.525V430.242C331.5 438.755 328.118 446.92 322.098 452.94C316.078 458.96 307.913 462.342 299.4 462.342H235.6C227.087 462.342 218.922 458.96 212.902 452.94C206.882 446.92 203.5 438.755 203.5 430.242V412.525H331.5Z" fill="#B2B0BC"/>
<path d="M235.786 305.638C192.158 273.579 164.4 225.386 164.4 171.479C164.419 147.191 170.095 123.241 180.978 101.527C166.196 103.684 151.62 107.068 137.4 111.644H137.39C132.159 123.795 128.669 136.623 127.024 149.749C117.04 150.533 107.747 155.152 101.093 162.638C94.4401 170.123 90.943 179.894 91.3354 189.901C91.7277 199.908 95.979 209.375 103.198 216.317C110.417 223.258 120.043 227.136 130.058 227.136C132.912 227.147 135.756 226.806 138.526 226.121C147.544 245.953 161.009 263.442 177.876 277.232C194.743 291.022 214.559 300.741 235.788 305.638H235.786Z" fill="#FFCABD"/>
<path d="M184.881 230.635C201.717 230.635 215.366 219.766 215.366 206.359C215.366 192.952 201.717 182.083 184.881 182.083C168.045 182.083 154.396 192.952 154.396 206.359C154.396 219.766 168.045 230.635 184.881 230.635Z" fill="#FF889E"/>
<path d="M350.119 230.635C366.955 230.635 380.604 219.766 380.604 206.359C380.604 192.952 366.955 182.083 350.119 182.083C333.283 182.083 319.634 192.952 319.634 206.359C319.634 219.766 333.283 230.635 350.119 230.635Z" fill="#FF889E"/>
<path d="M202.648 190.49C200.659 190.49 198.751 189.7 197.345 188.293C195.938 186.887 195.148 184.979 195.148 182.99V170.528C195.148 168.539 195.938 166.631 197.345 165.225C198.751 163.818 200.659 163.028 202.648 163.028C204.637 163.028 206.545 163.818 207.951 165.225C209.358 166.631 210.148 168.539 210.148 170.528V182.99C210.148 184.979 209.358 186.887 207.951 188.293C206.545 189.7 204.637 190.49 202.648 190.49Z" fill="#423E4F"/>
<path d="M332.353 190.49C330.364 190.49 328.456 189.7 327.05 188.293C325.643 186.887 324.853 184.979 324.853 182.99V170.528C324.853 168.539 325.643 166.631 327.05 165.225C328.456 163.818 330.364 163.028 332.353 163.028C334.342 163.028 336.25 163.818 337.656 165.225C339.063 166.631 339.853 168.539 339.853 170.528V182.99C339.853 184.979 339.063 186.887 337.656 188.293C336.25 189.7 334.342 190.49 332.353 190.49Z" fill="#423E4F"/>
<path d="M267.5 197.908C263.187 197.907 258.925 196.981 255 195.194C251.076 193.407 247.58 190.799 244.748 187.546C243.441 186.046 242.784 184.089 242.92 182.104C243.056 180.12 243.975 178.271 245.475 176.964C246.975 175.657 248.932 174.999 250.917 175.136C252.901 175.272 254.75 176.191 256.057 177.691C257.48 179.329 259.238 180.642 261.212 181.542C263.186 182.442 265.331 182.908 267.501 182.908C269.67 182.908 271.815 182.442 273.789 181.542C275.763 180.642 277.521 179.329 278.944 177.691C280.251 176.191 282.1 175.272 284.084 175.136C286.069 174.999 288.026 175.657 289.526 176.964C291.026 178.271 291.945 180.12 292.081 182.104C292.217 184.089 291.56 186.046 290.253 187.546C287.421 190.799 283.925 193.406 280 195.194C276.075 196.981 271.813 197.907 267.5 197.908Z" fill="#423E4F"/>
<path d="M351.27 358.535H345.294V352.559C345.294 350.57 344.504 348.662 343.097 347.256C341.691 345.849 339.783 345.059 337.794 345.059C335.805 345.059 333.897 345.849 332.491 347.256C331.084 348.662 330.294 350.57 330.294 352.559V358.535H324.318C322.329 358.535 320.421 359.325 319.015 360.732C317.608 362.138 316.818 364.046 316.818 366.035C316.818 368.024 317.608 369.932 319.015 371.338C320.421 372.745 322.329 373.535 324.318 373.535H330.294V379.511C330.294 381.5 331.084 383.408 332.491 384.814C333.897 386.221 335.805 387.011 337.794 387.011C339.783 387.011 341.691 386.221 343.097 384.814C344.504 383.408 345.294 381.5 345.294 379.511V373.535H351.27C353.259 373.535 355.167 372.745 356.573 371.338C357.98 369.932 358.77 368.024 358.77 366.035C358.77 364.046 357.98 362.138 356.573 360.732C355.167 359.325 353.259 358.535 351.27 358.535Z" fill="#FF748F"/>
<path d="M75.716 412.526H45.762C38.6647 412.527 31.8583 415.346 26.8396 420.365C21.821 425.383 19.0011 432.19 19 439.287V451.687C18.9992 467.723 25.3686 483.103 36.7071 494.444C48.0457 505.784 63.4246 512.156 79.461 512.158H134.2C105.5 483.968 84.988 449.933 75.714 412.527L75.716 412.526Z" fill="#B2B0BC"/>
</svg>
