<svg width="512" height="512" viewBox="0 0 512 512" fill="none" xmlns="http://www.w3.org/2000/svg">
<path d="M470.718 41.281C453.85 24.4521 430.996 15.001 407.168 15.001C383.341 15.001 360.486 24.4521 343.618 41.281L292.018 92.881L327.156 128.019L378.756 76.419C386.301 68.9265 396.508 64.7298 407.141 64.7483C417.774 64.7668 427.966 68.9989 435.485 76.5176C443.003 84.0362 447.235 94.2284 447.254 104.861C447.272 115.494 443.076 125.701 435.583 133.246L383.983 184.846L419.121 219.984L470.721 168.384C487.551 151.516 497.002 128.661 497.002 104.834C497.002 81.0064 487.551 58.1518 470.721 41.284L470.718 41.281Z" fill="#5C586F"/>
<path d="M169.851 398.975L118.251 450.575C110.707 458.068 100.501 462.265 89.8676 462.247C79.2346 462.23 69.0422 457.998 61.523 450.48C54.0038 442.962 49.771 432.77 49.7517 422.137C49.7325 411.504 53.9284 401.297 61.4204 393.752L113.02 342.152L77.8864 307.01L26.2864 358.61C9.60423 375.5 0.282293 398.305 0.355901 422.044C0.42951 445.784 9.89269 468.53 26.6792 485.317C43.4658 502.103 66.2121 511.567 89.9518 511.64C113.691 511.714 136.496 502.392 153.386 485.71L204.986 434.11L169.851 398.975Z" fill="#5C586F"/>
<path d="M292.011 92.885L327.149 128.023L371.778 83.399L358.114 69.73C350.787 62.3906 342.195 56.4335 332.752 52.145L292.011 92.885Z" fill="#4F4C5F"/>
<path d="M458.534 180.568C451.508 166.653 442.315 153.943 431.3 142.912L428.609 140.221L383.98 184.85L419.118 219.988L458.534 180.568Z" fill="#4F4C5F"/>
<path d="M37.1893 347.708C41.4542 357.165 47.398 365.771 54.7323 373.108L68.4003 386.777L113.028 342.149L77.8863 307.011L37.1893 347.708Z" fill="#4F4C5F"/>
<path d="M204.989 434.113L169.851 398.975L125.222 443.604L127.928 446.311C138.955 457.316 151.649 466.512 165.542 473.56L204.989 434.113Z" fill="#4F4C5F"/>
<path d="M410.083 164.126L336.9 90.9441C328.7 82.7395 318.162 77.2733 306.731 75.2958C295.301 73.3183 283.539 74.9263 273.058 79.8991C226.38 102.071 188.569 68.4271 121 135.999C53.4314 203.571 87.0724 241.378 64.9004 288.056C59.9274 298.536 58.3193 310.299 60.2968 321.729C62.2743 333.16 67.7405 343.699 75.9454 351.899L149.145 425.099C174.802 450.756 210.923 463.412 246.881 458.551C282.081 453.793 327.059 436.485 374.274 389.271C420.597 342.948 438.132 298.771 443.274 263.882C445.903 245.819 444.272 227.391 438.51 210.07C432.748 192.749 423.015 177.016 410.089 164.127L410.083 164.126Z" fill="#B2B0BC"/>
<path d="M145.222 268.59C145.222 197.799 170.722 134.181 211.258 90.29C185.845 92.399 157.847 99.148 121 135.999C53.4284 203.568 87.0724 241.378 64.9004 288.056C59.9274 298.536 58.3193 310.299 60.2968 321.729C62.2743 333.16 67.7405 343.699 75.9454 351.899L149.145 425.099C169.067 445.099 195.535 457.24 223.688 459.292C176.001 415.478 145.225 346.365 145.225 268.592L145.222 268.59Z" fill="#A19DAE"/>
<path d="M371.431 202.777L298.249 129.599C298.028 129.373 297.742 129.221 297.431 129.164C297.119 129.106 296.798 129.146 296.51 129.278C270.04 141.85 246.455 143.065 227.503 144.042C203.017 145.304 188.237 146.066 159.649 174.653C131.061 203.24 130.3 218.016 129.039 242.499C128.063 261.451 126.847 285.037 114.275 311.506C114.143 311.794 114.103 312.115 114.16 312.427C114.218 312.738 114.37 313.024 114.595 313.246L187.795 386.446C201.547 400.198 220.895 406.903 239.557 404.38C272.013 399.993 304.333 381.905 335.62 350.618C366.453 319.785 384.476 287.918 389.19 255.918C390.559 246.29 389.667 236.475 386.585 227.251C383.502 218.027 378.314 209.648 371.431 202.777Z" fill="white"/>
<path d="M200.116 310.152C198.71 308.746 197.92 306.838 197.92 304.849C197.92 302.86 198.71 300.953 200.116 299.546L284.548 215.114C285.96 213.732 287.86 212.963 289.835 212.974C291.81 212.984 293.701 213.774 295.098 215.17C296.495 216.567 297.284 218.458 297.295 220.434C297.305 222.409 296.536 224.309 295.154 225.72L210.722 310.152C209.316 311.559 207.408 312.349 205.419 312.349C203.43 312.349 201.523 311.559 200.116 310.152Z" fill="#DADADA"/>
<path d="M170.793 277.731C169.545 277.728 168.317 277.415 167.221 276.818C166.125 276.222 165.194 275.361 164.514 274.315C163.834 273.268 163.425 272.069 163.325 270.825C163.225 269.58 163.436 268.331 163.94 267.189C171.428 250.297 184.508 232.037 200.773 215.772C217.038 199.507 235.3 186.426 252.19 178.939C254.006 178.15 256.06 178.111 257.905 178.83C259.749 179.549 261.235 180.968 262.037 182.778C262.839 184.588 262.893 186.642 262.187 188.492C261.481 190.341 260.073 191.837 258.268 192.652C243.023 199.41 226.368 211.387 211.379 226.378C196.39 241.369 184.411 258.021 177.653 273.267C177.065 274.596 176.104 275.725 174.886 276.517C173.668 277.31 172.246 277.731 170.793 277.731Z" fill="#DADADA"/>
<path d="M233.183 342.509C232.784 341.608 232.565 340.638 232.541 339.653C232.516 338.668 232.686 337.688 233.04 336.768C233.395 335.849 233.927 335.008 234.607 334.295C235.286 333.581 236.099 333.008 237 332.609C252.246 325.851 268.9 313.874 283.889 298.883C298.878 283.892 310.856 267.245 317.615 251.999C318.421 250.181 319.917 248.757 321.773 248.041C322.692 247.687 323.671 247.517 324.656 247.541C325.641 247.565 326.611 247.783 327.511 248.182C328.412 248.581 329.225 249.154 329.904 249.867C330.583 250.581 331.115 251.421 331.469 252.34C331.824 253.258 331.994 254.238 331.97 255.223C331.945 256.207 331.727 257.178 331.328 258.078C323.84 274.971 310.759 293.231 294.495 309.495C278.231 325.759 259.97 338.84 243.078 346.328C241.26 347.134 239.196 347.184 237.34 346.468C235.484 345.752 233.989 344.328 233.183 342.509Z" fill="#DADADA"/>
<path d="M145.222 268.59C145.134 235.807 150.781 203.261 161.909 172.424C161.164 173.149 160.414 173.884 159.65 174.648C131.063 203.235 130.301 218.015 129.04 242.501C128.064 261.453 126.848 285.039 114.276 311.508C114.144 311.796 114.104 312.117 114.161 312.428C114.219 312.74 114.371 313.026 114.596 313.248L159.65 358.299C150.025 329.371 145.153 299.074 145.222 268.587V268.59Z" fill="#E5E5E5"/>
</svg>
