<svg width="512" height="512" viewBox="0 0 512 512" fill="none" xmlns="http://www.w3.org/2000/svg">
<path d="M0.5 0.5H511.5V511.5H0.5V0.5Z" stroke="black" stroke-opacity="0.01"/>
<path d="M470.718 41.281C453.85 24.4521 430.996 15.001 407.168 15.001C383.341 15.001 360.486 24.4521 343.618 41.281L292.018 92.881L327.156 128.019L378.756 76.419C386.301 68.9265 396.508 64.7298 407.141 64.7483C417.774 64.7668 427.966 68.9989 435.485 76.5176C443.003 84.0362 447.235 94.2284 447.254 104.861C447.272 115.494 443.076 125.701 435.583 133.246L383.983 184.846L419.121 219.984L470.721 168.384C487.551 151.516 497.002 128.661 497.002 104.834C497.002 81.0064 487.551 58.1518 470.721 41.284L470.718 41.281Z" fill="#5C586F"/>
<path d="M470.366 41.6357L470.365 41.6349C453.591 24.8995 430.863 15.501 407.168 15.501C383.474 15.501 360.746 24.8994 343.972 41.6345L470.366 41.6357ZM470.366 41.6357L470.367 41.6371C470.368 41.6376 470.368 41.6381 470.369 41.6385C487.104 58.4125 496.502 81.1395 496.502 104.834C496.502 128.529 487.103 151.257 470.367 168.031L419.121 219.277L384.69 184.846L435.937 133.6L435.938 133.598C443.524 125.96 447.773 115.626 447.754 104.861C447.735 94.0953 443.45 83.7762 435.838 76.164C428.226 68.5518 417.907 64.267 407.142 64.2483C396.376 64.2296 386.043 68.4785 378.404 76.0642L378.403 76.0654L327.156 127.312L292.725 92.881L343.971 41.6349L470.366 41.6357Z" stroke="black" stroke-opacity="0.01"/>
<path d="M169.851 398.975L118.251 450.575C110.707 458.068 100.501 462.265 89.8676 462.247C79.2347 462.23 69.0422 457.998 61.523 450.48C54.0038 442.962 49.7709 432.77 49.7517 422.137C49.7325 411.504 53.9284 401.297 61.4204 393.752L113.02 342.152L77.8864 307.01L26.2864 358.61C9.60423 375.5 0.282293 398.305 0.355901 422.044C0.42951 445.784 9.89269 468.53 26.6792 485.317C43.4658 502.103 66.2121 511.567 89.9518 511.64C113.691 511.714 136.496 502.392 153.386 485.71L204.986 434.11L169.851 398.975Z" fill="#5C586F"/>
<path d="M118.605 450.928L169.851 399.682L204.279 434.11L153.035 485.354C136.239 501.943 113.561 511.213 89.9533 511.14C66.3457 511.067 43.726 501.657 27.0328 484.963C10.3396 468.27 0.929098 445.65 0.855899 422.043C0.7827 398.435 10.0528 375.757 26.6421 358.961L77.8863 307.717L112.313 342.152L61.0668 393.398L61.0656 393.399C53.4804 401.039 49.2322 411.373 49.2517 422.138C49.2712 432.903 53.5567 443.222 61.1695 450.834C68.7822 458.445 79.1015 462.729 89.8668 462.747C100.632 462.765 110.966 458.516 118.604 450.93L118.605 450.928Z" stroke="black" stroke-opacity="0.01"/>
<path d="M292.011 92.885L327.149 128.023L371.778 83.399L358.114 69.73C350.787 62.3906 342.195 56.4335 332.752 52.145L292.011 92.885Z" fill="#4F4C5F"/>
<path d="M357.76 70.0833L357.761 70.0835L371.071 83.3989L327.149 127.316L292.718 92.885L332.86 52.744C342.125 56.9966 350.557 62.8681 357.76 70.0833Z" stroke="black" stroke-opacity="0.01"/>
<path d="M458.534 180.568C451.508 166.653 442.315 153.943 431.3 142.912L428.609 140.221L383.98 184.85L419.118 219.988L458.534 180.568Z" fill="#4F4C5F"/>
<path d="M428.609 140.928L430.946 143.266C441.839 154.173 450.943 166.729 457.924 180.471L419.118 219.281L384.687 184.85L428.609 140.928Z" stroke="black" stroke-opacity="0.01"/>
<path d="M37.1893 347.708C41.4542 357.165 47.398 365.771 54.7323 373.108L68.4003 386.777L113.028 342.149L77.8863 307.011L37.1893 347.708Z" fill="#4F4C5F"/>
<path d="M55.0859 372.754C47.8756 365.541 42.0172 357.095 37.7877 347.817L77.8864 307.718L112.321 342.149L68.4003 386.07L55.086 372.754C55.0859 372.754 55.0859 372.754 55.0859 372.754Z" stroke="black" stroke-opacity="0.01"/>
<path d="M204.989 434.113L169.851 398.975L125.222 443.604L127.928 446.311C138.955 457.316 151.649 466.512 165.542 473.56L204.989 434.113Z" fill="#4F4C5F"/>
<path d="M204.282 434.113L169.851 399.682L125.929 443.604L128.282 445.957L204.282 434.113ZM204.282 434.113L165.446 472.949C151.725 465.947 139.185 456.84 128.282 445.957L204.282 434.113Z" stroke="black" stroke-opacity="0.01"/>
<path d="M410.083 164.126L336.9 90.9441C328.7 82.7395 318.162 77.2733 306.731 75.2958C295.301 73.3183 283.539 74.9263 273.058 79.8991C226.38 102.071 188.569 68.4271 121 135.999C53.4314 203.571 87.0724 241.378 64.9004 288.056C59.9274 298.536 58.3193 310.299 60.2968 321.729C62.2743 333.16 67.7405 343.699 75.9454 351.899L149.145 425.099C174.802 450.756 210.923 463.412 246.881 458.551C282.081 453.793 327.059 436.485 374.274 389.271C420.597 342.948 438.132 298.771 443.274 263.882C445.903 245.819 444.272 227.391 438.51 210.07C432.748 192.749 423.015 177.016 410.089 164.127L410.083 164.126Z" fill="#B2B0BC"/>
<path d="M409.73 164.48L409.843 164.593L409.849 164.594C422.664 177.407 432.315 193.032 438.035 210.228C443.773 227.474 445.397 245.823 442.78 263.809C437.654 298.588 420.171 342.668 373.921 388.918C326.78 436.057 281.902 453.313 246.814 458.056C211.016 462.895 175.049 450.296 149.499 424.746L76.299 351.546L75.9454 351.899L76.2989 351.546C68.167 343.418 62.7494 332.973 60.7895 321.644C58.8295 310.315 60.4233 298.658 65.3522 288.271C70.9295 276.529 72.9931 265.35 74.0159 254.153C74.4536 249.361 74.7012 244.56 74.951 239.714C74.9929 238.902 75.0348 238.089 75.0777 237.275C75.3768 231.594 75.7233 225.838 76.4231 219.922C79.2172 196.301 87.6485 170.06 121.354 136.353C155.059 102.646 181.301 94.2144 204.922 91.4207C210.838 90.721 216.595 90.3746 222.276 90.0756C223.09 90.0327 223.903 89.9908 224.715 89.949C229.561 89.6992 234.363 89.4518 239.154 89.0142C250.352 87.9916 261.531 85.9282 273.273 80.3509C283.66 75.4223 295.317 73.8286 306.646 75.7885C317.975 77.7484 328.419 83.1659 336.547 91.2976L336.9 90.9441L336.547 91.2977L409.73 164.48Z" stroke="black" stroke-opacity="0.01"/>
<path d="M145.222 268.59C145.222 197.799 170.722 134.181 211.258 90.29C185.845 92.399 157.847 99.148 121 135.999C53.4284 203.568 87.0724 241.378 64.9004 288.056C59.9274 298.536 58.3193 310.299 60.2968 321.729C62.2743 333.16 67.7405 343.699 75.9454 351.899L149.145 425.099C169.067 445.099 195.535 457.239 223.688 459.292C176.001 415.478 145.225 346.365 145.225 268.592L145.222 268.59Z" fill="#A19DAE"/>
<path d="M144.722 268.59V268.858L144.726 268.86C144.796 346.075 175.151 414.768 222.291 458.68C194.793 456.335 168.997 444.32 149.5 424.746L149.499 424.746L76.299 351.546L75.9454 351.899L76.2989 351.545C68.167 343.418 62.7494 332.973 60.7895 321.644C58.8295 310.315 60.4233 298.657 65.3522 288.27C70.9295 276.529 72.9929 265.35 74.0155 254.152C74.4531 249.36 74.7005 244.559 74.9503 239.713C74.9921 238.901 75.034 238.088 75.0769 237.274C75.3759 231.593 75.7223 225.836 76.422 219.92C79.2157 196.299 87.647 170.058 121.354 136.353L121.354 136.353C139.743 117.962 155.905 107.101 170.62 100.573C184.839 94.2657 197.732 91.9932 210.021 90.8983C169.9 134.853 144.722 198.189 144.722 268.59Z" stroke="black" stroke-opacity="0.01"/>
<path d="M371.431 202.777L298.249 129.599C298.028 129.373 297.742 129.221 297.431 129.164C297.119 129.106 296.798 129.146 296.51 129.278C270.04 141.85 246.455 143.065 227.503 144.042C203.017 145.304 188.237 146.066 159.649 174.653C131.061 203.24 130.3 218.016 129.039 242.499C128.063 261.451 126.847 285.037 114.275 311.506C114.143 311.794 114.103 312.115 114.16 312.427C114.218 312.738 114.37 313.024 114.595 313.246L187.795 386.446C201.547 400.198 220.895 406.903 239.557 404.38C272.013 399.993 304.333 381.905 335.62 350.618C366.453 319.785 384.476 287.918 389.19 255.918C390.559 246.29 389.667 236.475 386.585 227.251C383.502 218.027 378.314 209.648 371.431 202.777V202.777Z" fill="white"/>
<path d="M297.892 129.949L297.896 129.953L371.078 203.131L371.431 202.777L371.078 203.131C377.906 209.947 383.053 218.259 386.11 227.41C389.168 236.56 390.053 246.296 388.695 255.848C384.001 287.709 366.049 319.482 335.267 350.265C304.03 381.501 271.805 399.517 239.49 403.885C220.989 406.386 201.795 399.739 188.149 386.093L114.949 312.893L114.946 312.89C114.793 312.74 114.691 312.547 114.652 312.336C114.614 312.127 114.64 311.911 114.729 311.718C127.343 285.157 128.562 261.487 129.538 242.534L129.539 242.525C130.17 230.272 130.675 220.535 134.564 210.293C138.451 200.056 145.736 189.273 160.003 175.007C174.27 160.74 185.054 153.455 195.292 149.568C205.536 145.679 215.274 145.173 227.529 144.541L227.549 144.54C246.501 143.563 270.165 142.344 296.722 129.731C296.915 129.643 297.131 129.617 297.34 129.655C297.55 129.694 297.743 129.797 297.892 129.949L297.892 129.949Z" stroke="black" stroke-opacity="0.01"/>
<path d="M200.116 310.152C198.71 308.746 197.92 306.838 197.92 304.849C197.92 302.86 198.71 300.953 200.116 299.546L284.548 215.114C285.96 213.732 287.86 212.963 289.835 212.974C291.81 212.984 293.701 213.774 295.098 215.17C296.495 216.567 297.284 218.458 297.295 220.434C297.305 222.409 296.536 224.309 295.154 225.72L210.722 310.152C209.316 311.558 207.408 312.349 205.419 312.349C203.43 312.349 201.523 311.558 200.116 310.152V310.152Z" fill="#DADADA"/>
<path d="M200.47 309.799C199.157 308.486 198.42 306.706 198.42 304.849C198.42 302.993 199.157 301.212 200.47 299.9L284.898 215.471C284.899 215.471 284.899 215.47 284.9 215.47C286.217 214.181 287.989 213.464 289.832 213.474C291.676 213.484 293.441 214.22 294.745 215.524C296.048 216.828 296.785 218.593 296.795 220.436C296.805 222.279 296.087 224.051 294.799 225.369C294.798 225.369 294.798 225.37 294.797 225.37L210.369 309.799C209.056 311.111 207.276 311.849 205.419 311.849C203.563 311.849 201.783 311.111 200.47 309.799Z" stroke="black" stroke-opacity="0.01"/>
<path d="M170.793 277.731C169.545 277.728 168.317 277.415 167.221 276.818C166.125 276.222 165.194 275.361 164.514 274.315C163.834 273.268 163.425 272.069 163.325 270.825C163.225 269.58 163.436 268.331 163.94 267.189C171.428 250.297 184.508 232.037 200.773 215.772C217.038 199.507 235.3 186.426 252.19 178.939C254.006 178.15 256.06 178.111 257.905 178.83C259.749 179.549 261.235 180.968 262.037 182.778C262.839 184.588 262.893 186.642 262.187 188.492C261.481 190.341 260.073 191.837 258.268 192.652C243.023 199.41 226.368 211.387 211.379 226.378C196.39 241.369 184.411 258.021 177.653 273.267C177.065 274.596 176.104 275.725 174.886 276.517C173.668 277.31 172.246 277.731 170.793 277.731Z" fill="#DADADA"/>
<path d="M177.196 273.064L177.196 273.065C176.647 274.305 175.75 275.359 174.613 276.098C173.477 276.838 172.15 277.231 170.794 277.231C169.629 277.229 168.483 276.936 167.46 276.379C166.437 275.822 165.568 275.019 164.933 274.042C164.298 273.065 163.917 271.946 163.823 270.784C163.73 269.623 163.927 268.457 164.397 267.392C171.855 250.568 184.895 232.357 201.127 216.126C217.358 199.895 235.57 186.854 252.391 179.397C254.085 178.661 256.002 178.625 257.723 179.296C259.445 179.967 260.831 181.292 261.58 182.981C262.329 184.67 262.379 186.587 261.72 188.313C261.061 190.039 259.747 191.435 258.064 192.196C242.75 198.984 226.047 211.002 211.026 226.025C196.005 241.048 183.985 257.749 177.196 273.064Z" stroke="black" stroke-opacity="0.01"/>
<path d="M233.183 342.509C232.784 341.608 232.565 340.638 232.541 339.653C232.516 338.668 232.686 337.688 233.04 336.768C233.395 335.849 233.927 335.008 234.607 334.295C235.286 333.581 236.099 333.008 237 332.609C252.246 325.851 268.9 313.874 283.889 298.883C298.878 283.892 310.856 267.245 317.615 251.999C318.421 250.181 319.917 248.757 321.773 248.041C322.692 247.687 323.671 247.517 324.656 247.541C325.641 247.565 326.611 247.783 327.511 248.182C328.412 248.581 329.225 249.154 329.904 249.867C330.583 250.581 331.115 251.421 331.469 252.34C331.824 253.258 331.994 254.238 331.97 255.223C331.945 256.207 331.727 257.178 331.328 258.078C323.84 274.971 310.759 293.231 294.495 309.495C278.231 325.759 259.97 338.84 243.078 346.328C241.26 347.134 239.196 347.184 237.34 346.468C235.484 345.752 233.989 344.328 233.183 342.509V342.509Z" fill="#DADADA"/>
<path d="M237.203 333.066L237.203 333.066C252.518 326.278 269.222 314.26 284.243 299.237C299.264 284.213 311.283 267.517 318.072 252.202L317.615 251.999L318.072 252.202C318.825 250.504 320.221 249.176 321.953 248.508C322.81 248.177 323.725 248.018 324.644 248.041C325.563 248.063 326.468 248.267 327.309 248.639C328.149 249.012 328.908 249.546 329.542 250.212C330.176 250.878 330.672 251.662 331.003 252.519C331.334 253.377 331.492 254.292 331.47 255.211C331.447 256.13 331.244 257.035 330.871 257.875L331.328 258.078L330.871 257.875C323.413 274.7 310.373 292.911 294.142 309.142C277.911 325.372 259.7 338.413 242.876 345.871C241.178 346.623 239.252 346.67 237.52 346.001C235.788 345.333 234.392 344.004 233.64 342.307L233.183 342.509L233.64 342.306C233.267 341.466 233.063 340.56 233.04 339.64C233.018 338.721 233.176 337.806 233.507 336.948C233.838 336.09 234.334 335.305 234.969 334.639C235.603 333.973 236.362 333.439 237.203 333.066Z" stroke="black" stroke-opacity="0.01"/>
<path d="M145.222 268.59C145.134 235.807 150.781 203.261 161.909 172.424C161.164 173.149 160.414 173.884 159.65 174.648C131.063 203.235 130.301 218.015 129.04 242.501C128.064 261.453 126.848 285.039 114.276 311.508C114.144 311.796 114.104 312.117 114.161 312.428C114.219 312.74 114.371 313.026 114.596 313.248L159.65 358.299C150.025 329.371 145.153 299.074 145.222 268.587V268.59Z" fill="#E5E5E5"/>
<path d="M144.722 268.589C144.654 298.429 149.313 328.087 158.52 356.462L114.95 312.894L114.947 312.891C114.794 312.741 114.692 312.548 114.653 312.338C114.615 312.129 114.641 311.913 114.73 311.719C127.344 285.159 128.563 261.489 129.539 242.536L129.54 242.527C130.171 230.272 130.676 220.534 134.566 210.29C138.453 200.052 145.737 189.268 160.004 175.001C160.24 174.765 160.476 174.531 160.71 174.3C150.045 204.583 144.636 236.472 144.722 268.589Z" stroke="black" stroke-opacity="0.01"/>
</svg>
