<svg width="512" height="512" viewBox="0 0 512 512" fill="none" xmlns="http://www.w3.org/2000/svg">
<path d="M0.5 0.5H507.522V511.5H0.5V0.5Z" stroke="black" stroke-opacity="0.01"/>
<path d="M81.9852 105.171C47.0218 146.402 27.8479 198.878 27.9295 253.115C27.9295 379.101 129.267 481.232 254.274 481.232C258.398 481.232 262.499 481.12 266.578 480.896L316.914 430.165V325.265L231.811 287.006V134.632L81.9852 105.171Z" fill="#78CBEC"/>
<path d="M28.4295 253.115L28.4295 253.114C28.3482 199.094 47.4108 146.824 82.1769 105.718L231.311 135.043V287.006V287.329L231.606 287.462L316.414 325.588V429.959L266.358 480.407C262.352 480.624 258.324 480.732 254.274 480.732C129.547 480.732 28.4295 378.828 28.4295 253.115Z" stroke="black" stroke-opacity="0.01"/>
<path d="M458.195 352.198C477.102 312.609 484.273 268.363 478.847 224.768C473.421 181.174 455.628 140.084 427.604 106.429L231.808 134.629V287.007L316.911 325.266L458.195 352.198Z" fill="#78CBEC"/>
<path d="M478.351 224.83C483.749 268.202 476.652 312.221 457.91 351.634L317.063 324.786L232.308 286.683V135.062L427.398 106.963C455.258 140.505 472.948 181.423 478.351 224.83Z" stroke="black" stroke-opacity="0.01"/>
<path d="M87.4474 256.207C87.4375 205.555 103.292 156.192 132.753 115.154L81.9852 105.171C47.0218 146.402 27.8479 198.878 27.9295 253.115C27.9295 372.222 118.507 469.99 234.028 480.315C147.48 441.115 87.4474 355.515 87.4474 256.208V256.207Z" fill="#34B5E1"/>
<path d="M28.4295 253.115L28.4295 253.114C28.3482 199.094 47.4108 146.824 82.1769 105.718L131.894 115.495C102.663 156.492 86.9375 205.71 86.9474 256.207V256.208C86.9474 354.693 145.867 439.716 231.135 479.535C117.279 467.853 28.4295 370.953 28.4295 253.115Z" stroke="black" stroke-opacity="0.01"/>
<path d="M458.195 352.198C440.599 388.965 413.539 420.3 379.835 442.937C346.131 465.574 307.018 478.683 266.575 480.898L260.694 466.511C258.869 462.04 258.599 457.078 259.927 452.433C261.255 447.788 264.103 443.732 268.007 440.924C270.769 438.948 273.02 436.333 274.572 433.3C276.125 430.267 276.934 426.903 276.932 423.49C276.459 419.355 278.961 409.928 271.189 401.574L260.104 389.661C256.8 386.109 254.795 381.529 254.422 376.674C254.049 371.82 255.33 366.983 258.052 362.961L261.029 358.568C262.883 355.826 264.08 352.688 264.524 349.401C264.969 346.114 264.649 342.768 263.591 339.626C262.533 336.485 260.764 333.634 258.425 331.299C256.087 328.965 253.242 327.21 250.115 326.173L217.933 315.527C214.982 314.551 212.49 312.515 210.932 309.808L188.862 271.546C187.763 269.637 186.192 268.048 184.302 266.935C182.412 265.821 180.267 265.22 178.078 265.191C175.889 265.162 173.729 265.706 171.811 266.77C169.892 267.833 168.28 269.38 167.132 271.259L161.851 279.887C160.256 282.485 157.79 284.42 154.9 285.342C152.011 286.264 148.889 286.111 146.101 284.912C143.314 283.712 141.045 281.545 139.708 278.803C138.371 276.062 138.053 272.928 138.812 269.971L150.24 225.881C150.688 224.143 151.495 222.521 152.609 221.12C153.722 219.718 155.116 218.569 156.7 217.748L179.988 205.667C182.477 204.377 184.473 202.291 185.661 199.736C186.849 197.182 187.164 194.302 186.555 191.548C185.499 186.755 183.05 182.388 179.522 179.003C175.994 175.618 171.545 173.368 166.743 172.541C154.855 170.041 147.24 170.577 137.713 164.741L103.916 144.071C95.5599 138.957 89.4087 130.871 86.6764 121.411L81.9832 105.171V105.161C103.322 79.9226 129.863 59.6761 159.758 45.8318C189.654 31.9875 222.185 24.8782 255.085 24.9991C287.985 25.12 320.463 32.4682 350.258 46.5318C380.052 60.5955 406.446 81.0364 427.602 106.431L418.403 122.915C416.628 126.095 414.105 128.787 411.057 130.753C408.008 132.72 404.526 133.902 400.918 134.195C397.237 134.492 393.689 135.714 390.598 137.751C387.507 139.787 384.973 142.572 383.226 145.851L374.802 161.672C372.787 165.455 369.729 168.571 365.996 170.642C362.264 172.714 358.017 173.653 353.767 173.347C348.508 172.993 347.516 172.823 345.009 172.823C339.331 172.823 333.714 174.012 328.516 176.315C323.318 178.617 318.651 181.984 314.811 186.2C299.431 203.123 306.824 221.084 294.165 238.037L274.961 263.862C273.899 265.291 273.13 266.918 272.698 268.649C272.266 270.381 272.18 272.181 272.445 273.946C272.71 275.711 273.32 277.406 274.241 278.931C275.162 280.456 276.374 281.781 277.808 282.83L294.448 294.99C296.045 296.154 297.877 296.948 299.813 297.316C301.75 297.684 303.743 297.616 305.651 297.117C328.387 291.405 329.854 290.181 335.418 290.181C338.842 290.18 342.233 290.866 345.391 292.2C348.55 293.533 351.414 295.487 353.815 297.948C367.767 312.236 382.987 300.991 397.435 308.748C410.228 315.7 411.51 315.988 414.36 318.217L458.195 352.198Z" fill="#B0EBCE"/>
<path d="M277.432 423.461L277.432 423.489C277.434 426.982 276.606 430.424 275.017 433.528C273.429 436.632 271.125 439.308 268.298 441.33C264.486 444.072 261.705 448.033 260.408 452.57C259.111 457.108 259.375 461.955 261.157 466.322L266.903 480.379C307.129 478.112 346.025 465.043 379.556 442.522C413.074 420.01 440.008 388.875 457.57 352.346L414.054 318.612L414.052 318.611C412.659 317.521 411.654 316.908 409.39 315.694C408.703 315.326 407.9 314.903 406.937 314.395C404.72 313.226 401.654 311.609 397.196 309.187C391.157 305.946 384.999 306.09 378.709 306.238C377.625 306.263 376.536 306.289 375.443 306.297C368.038 306.353 360.575 305.586 353.458 298.297L353.815 297.948L353.458 298.297C351.102 295.884 348.294 293.968 345.197 292.66C342.1 291.353 338.775 290.68 335.418 290.681C332.697 290.681 330.986 290.976 327.1 291.991C325.965 292.287 324.644 292.645 323.06 293.075C319.217 294.117 313.824 295.579 305.775 297.601C303.796 298.118 301.729 298.189 299.72 297.807C297.711 297.426 295.81 296.601 294.154 295.394L294.153 295.394L277.513 283.234L277.798 282.843L277.513 283.233C276.025 282.146 274.768 280.771 273.813 279.189C272.858 277.608 272.225 275.851 271.95 274.021C271.676 272.19 271.765 270.324 272.213 268.528C272.661 266.733 273.458 265.046 274.56 263.564L274.56 263.563L293.763 237.738L293.764 237.738C299.623 229.892 301.134 221.835 302.669 213.649C302.771 213.105 302.873 212.56 302.977 212.014C304.636 203.274 306.652 194.434 314.441 185.864L314.441 185.863C318.327 181.596 323.051 178.188 328.314 175.857C333.576 173.526 339.261 172.323 345.009 172.323C346.706 172.323 347.729 172.401 349.798 172.558C350.813 172.636 352.079 172.732 353.8 172.848L353.803 172.848C357.956 173.147 362.106 172.23 365.754 170.205C369.401 168.181 372.391 165.136 374.361 161.437L382.785 145.616C384.57 142.263 387.162 139.415 390.323 137.333C393.484 135.251 397.113 134 400.877 133.696C404.403 133.41 407.806 132.256 410.785 130.333C413.765 128.411 416.231 125.78 417.966 122.671L426.998 106.487C405.926 81.2708 379.67 60.9677 350.044 46.984C320.316 32.9515 287.91 25.6197 255.083 25.4991C222.256 25.3784 189.798 32.4719 159.968 46.2855C130.219 60.0622 103.798 80.1929 82.5357 105.282L87.1567 121.272L87.1568 121.272C89.8546 130.613 95.928 138.596 104.177 143.644L137.974 164.314L137.974 164.314C142.673 167.193 146.899 168.501 151.44 169.401C153.433 169.796 155.482 170.112 157.666 170.449C157.977 170.497 158.291 170.545 158.608 170.594C161.142 170.986 163.855 171.423 166.837 172.05C171.734 172.896 176.27 175.191 179.868 178.642C183.468 182.096 185.966 186.551 187.043 191.44C187.676 194.301 187.349 197.293 186.114 199.947C184.88 202.602 182.806 204.769 180.218 206.111L156.93 218.192L156.7 217.748L156.93 218.192C155.409 218.98 154.07 220.084 153 221.43C151.931 222.777 151.155 224.336 150.724 226.006L150.724 226.006L139.296 270.095C139.296 270.096 139.296 270.096 139.296 270.096C138.567 272.938 138.872 275.95 140.157 278.584C141.443 281.218 143.622 283.3 146.299 284.452C148.976 285.604 151.974 285.751 154.748 284.866C157.523 283.981 159.892 282.122 161.424 279.626L277.432 423.461ZM277.432 423.461L277.428 423.433M277.432 423.461L277.428 423.433M277.428 423.433C277.331 422.583 277.366 421.492 277.407 420.171C277.414 419.957 277.421 419.736 277.428 419.51C277.474 417.91 277.501 416.056 277.295 414.063C276.881 410.065 275.532 405.509 271.555 401.233L260.47 389.32C257.243 385.852 255.285 381.378 254.921 376.636C254.556 371.894 255.807 367.169 258.466 363.241L261.443 358.848L261.443 358.848M277.428 423.433L261.443 358.848M261.443 358.848C263.341 356.043 264.565 352.832 265.02 349.468C265.475 346.105 265.148 342.681 264.065 339.466C262.982 336.252 261.172 333.335 258.779 330.945C256.385 328.556 253.473 326.76 250.272 325.698L250.272 325.698M261.443 358.848L250.272 325.698M250.272 325.698L218.09 315.052L217.933 315.527M250.272 325.698L217.933 315.527M217.933 315.527L218.09 315.052C215.256 314.115 212.863 312.16 211.366 309.559L211.365 309.558M217.933 315.527L211.365 309.558M211.365 309.558L189.296 271.296M211.365 309.558L189.296 271.296M189.296 271.296L189.295 271.296C188.153 269.313 186.521 267.662 184.556 266.504C182.591 265.346 180.361 264.721 178.085 264.691C175.808 264.661 173.563 265.227 171.569 266.332C169.574 267.438 167.899 269.045 166.706 270.998L189.296 271.296ZM166.706 270.998L161.425 279.625L166.706 270.998Z" stroke="black" stroke-opacity="0.01"/>
<path d="M167.446 390.605C163.394 388.799 160.188 385.491 158.492 381.366C156.796 377.242 156.741 372.617 158.338 368.453L158.352 368.417C159.556 365.278 159.83 361.854 159.14 358.562C158.45 355.269 156.825 352.249 154.464 349.87C152.103 347.49 149.107 345.853 145.84 345.157C142.573 344.461 139.176 344.737 136.062 345.951L136.025 345.965C131.893 347.575 127.304 347.519 123.212 345.81C119.119 344.101 115.837 340.869 114.046 336.786C112.696 333.707 110.487 331.09 107.689 329.253C104.89 327.416 101.622 326.438 98.2824 326.438C94.9427 326.438 91.6749 327.416 88.8764 329.253C86.0778 331.09 83.8692 333.707 82.5189 336.786C80.7277 340.869 77.4453 344.101 73.3527 345.81C69.2602 347.519 64.6718 347.574 60.54 345.964L60.5043 345.95C57.3899 344.736 53.9927 344.46 50.7257 345.156C47.4587 345.851 44.4626 347.488 42.1014 349.868C39.7402 352.247 38.1157 355.267 37.4254 358.56C36.7351 361.852 37.0087 365.276 38.2128 368.415L38.2267 368.452C39.8243 372.616 39.7696 377.24 38.0739 381.365C36.3782 385.489 33.1717 388.797 29.12 390.603C26.0654 391.964 23.4689 394.19 21.6463 397.01C19.8236 399.83 18.8533 403.124 18.8533 406.49C18.8533 409.856 19.8236 413.149 21.6463 415.969C23.4689 418.79 26.0654 421.016 29.12 422.377C33.1717 424.182 36.3782 427.49 38.0739 431.615C39.7696 435.739 39.8243 440.363 38.2267 444.528L38.2128 444.564C37.0085 447.702 36.7348 451.126 37.425 454.419C38.1152 457.711 39.7395 460.731 42.1006 463.111C44.4616 465.49 47.4577 467.128 50.7247 467.823C53.9917 468.519 57.3889 468.243 60.5033 467.03L60.54 467.016C64.6718 465.406 69.2602 465.461 73.3527 467.17C77.4453 468.879 80.7277 472.11 82.5189 476.194C83.8692 479.272 86.0778 481.889 88.8764 483.726C91.6749 485.563 94.9427 486.541 98.2824 486.541C101.622 486.541 104.89 485.563 107.689 483.726C110.487 481.889 112.696 479.272 114.046 476.194C115.837 472.11 119.12 468.879 123.212 467.17C127.305 465.461 131.893 465.406 136.025 467.016L136.061 467.03C139.175 468.243 142.572 468.519 145.839 467.824C149.106 467.128 152.102 465.491 154.464 463.111C156.825 460.732 158.449 457.712 159.139 454.42C159.83 451.127 159.556 447.703 158.352 444.565L158.338 444.528C156.741 440.363 156.795 435.739 158.491 431.615C160.187 427.49 163.393 424.182 167.445 422.377C170.5 421.016 173.096 418.791 174.919 415.97C176.742 413.15 177.713 409.857 177.713 406.491C177.713 403.125 176.743 399.832 174.92 397.011C173.097 394.191 170.501 391.965 167.446 390.605V390.605Z" fill="#FF748F"/>
<path d="M157.871 368.274L157.872 368.273L157.885 368.238L157.871 368.274ZM157.871 368.274C156.228 372.557 156.285 377.314 158.029 381.556C159.774 385.799 163.072 389.203 167.242 391.061L167.446 390.605M157.871 368.274L167.446 390.605M167.446 390.605L167.242 391.061C170.208 392.382 172.73 394.544 174.5 397.283C176.27 400.022 177.213 403.221 177.213 406.491C177.213 409.761 176.27 412.96 174.499 415.699C172.729 418.438 170.207 420.599 167.241 421.92L167.429 422.342L167.241 421.92C163.072 423.778 159.773 427.182 158.029 431.424C156.285 435.667 156.228 440.422 157.871 444.705C157.871 444.706 157.871 444.706 157.871 444.707L157.884 444.74L157.885 444.744M167.446 390.605L157.885 444.744M136.243 346.417L136.24 346.418L136.206 346.431C136.206 346.431 136.205 346.431 136.205 346.431C131.952 348.088 127.231 348.03 123.019 346.272C118.807 344.513 115.43 341.187 113.588 336.986C112.277 333.996 110.131 331.455 107.414 329.671C104.697 327.888 101.524 326.938 98.2824 326.938C95.0404 326.938 91.868 327.888 89.1507 329.671C86.4335 331.455 84.2884 333.996 82.9768 336.987L82.5468 336.798L82.9768 336.987C81.1343 341.187 77.7573 344.512 73.5454 346.271C69.3334 348.03 64.6109 348.087 60.3585 346.43L60.3575 346.429L60.3227 346.416C57.2992 345.237 54.0014 344.969 50.8299 345.645C47.6583 346.32 44.7492 347.909 42.4563 350.22C40.1634 352.531 38.5854 355.464 37.9148 358.662C37.2442 361.861 37.51 365.187 38.6797 368.236L38.6809 368.239L38.6936 368.273C38.6938 368.273 38.694 368.274 38.6942 368.274C40.3368 372.557 40.2803 377.313 38.5363 381.555C36.792 385.798 33.4933 389.202 29.3235 391.059L29.12 390.603L29.3235 391.059C26.3579 392.381 23.8365 394.542 22.0662 397.281C20.2959 400.021 19.3533 403.22 19.3533 406.49C19.3533 409.76 20.2959 412.959 22.0662 415.698C23.8365 418.437 26.3579 420.599 29.3235 421.92L29.12 422.377L29.3235 421.92C33.4933 423.778 36.792 427.182 38.5363 431.424C40.2805 435.667 40.3368 440.423 38.6936 444.707L38.6932 444.708L38.6797 444.743C37.5098 447.792 37.2439 451.118 37.9144 454.316C38.5848 457.515 40.1626 460.448 42.4555 462.758C44.7483 465.069 47.6574 466.659 50.8289 467.334C54.0003 468.01 57.2982 467.742 60.3217 466.564L60.325 466.562L60.3585 466.55C60.3588 466.55 60.3592 466.549 60.3596 466.549C64.6118 464.893 69.3338 464.95 73.5454 466.708C77.7573 468.467 81.1343 471.792 82.9768 475.993C84.2884 478.983 86.4335 481.524 89.1507 483.308C91.868 485.092 95.0404 486.041 98.2824 486.041C101.524 486.041 104.697 485.092 107.414 483.308C110.131 481.524 112.277 478.983 113.588 475.993C115.431 471.792 118.808 468.467 123.019 466.708C127.231 464.949 131.954 464.893 136.206 466.55L136.207 466.55L136.242 466.564L136.243 346.417ZM136.243 346.417C139.267 345.238 142.565 344.971 145.736 345.646C148.908 346.321 151.817 347.911 154.109 350.222C156.402 352.533 157.98 355.466 158.651 358.664C159.321 361.862 159.055 365.188 157.886 368.237L136.243 346.417ZM157.885 444.744C159.055 447.793 159.321 451.119 158.65 454.317C157.98 457.516 156.402 460.448 154.109 462.759C151.816 465.07 148.907 466.659 145.735 467.335C142.564 468.01 139.266 467.742 136.243 466.564L157.885 444.744Z" stroke="black" stroke-opacity="0.01"/>
<path d="M400.662 101.005C403.698 102.357 406.101 104.837 407.372 107.928C408.643 111.019 408.683 114.484 407.485 117.605L407.475 117.632C406.573 119.983 406.368 122.549 406.885 125.016C407.402 127.483 408.619 129.745 410.388 131.528C412.157 133.311 414.402 134.538 416.85 135.059C419.298 135.58 421.843 135.373 424.177 134.464L424.203 134.453C427.3 133.246 430.738 133.287 433.805 134.567C436.872 135.848 439.332 138.269 440.674 141.33C441.686 143.636 443.341 145.597 445.438 146.973C447.535 148.349 449.983 149.082 452.485 149.082C454.988 149.082 457.436 148.349 459.533 146.973C461.63 145.597 463.285 143.636 464.296 141.33C465.639 138.269 468.098 135.848 471.166 134.567C474.233 133.287 477.671 133.246 480.767 134.453L480.794 134.464C483.128 135.373 485.673 135.58 488.121 135.059C490.569 134.538 492.814 133.311 494.583 131.528C496.352 129.745 497.569 127.483 498.086 125.016C498.603 122.549 498.398 119.983 497.495 117.632L497.485 117.604C496.287 114.483 496.327 111.018 497.598 107.927C498.869 104.836 501.272 102.356 504.308 101.004C506.597 99.984 508.542 98.3161 509.908 96.2029C511.273 94.0897 512 91.6221 512 89.1003C512 86.5784 511.273 84.1109 509.908 81.9976C508.542 79.8844 506.597 78.2165 504.308 77.1968C501.272 75.8442 498.869 73.365 497.598 70.2739C496.327 67.1828 496.287 63.7173 497.485 60.5968L497.495 60.5698C498.399 58.2171 498.604 55.6505 498.086 53.1825C497.568 50.7144 496.35 48.4512 494.579 46.6681C492.809 44.8851 490.562 43.6592 488.113 43.1394C485.663 42.6197 483.117 42.8286 480.783 43.7408L480.756 43.7518C477.659 44.959 474.221 44.918 471.154 43.6375C468.087 42.3569 465.627 39.9351 464.285 36.8748C463.273 34.5683 461.618 32.6077 459.521 31.2315C457.424 29.8552 454.976 29.1226 452.474 29.1226C449.971 29.1226 447.523 29.8552 445.426 31.2315C443.329 32.6077 441.674 34.5683 440.663 36.8748C439.32 39.9351 436.861 42.3569 433.793 43.6375C430.726 44.918 427.288 44.959 424.192 43.7518L424.165 43.7408C421.832 42.8333 419.288 42.628 416.841 43.1499C414.395 43.6718 412.151 44.8983 410.383 46.6806C408.615 48.4629 407.399 50.7243 406.881 53.19C406.364 55.6557 406.568 58.2198 407.469 60.5708L407.48 60.5988C408.678 63.7193 408.638 67.1848 407.367 70.2759C406.096 73.367 403.693 75.8462 400.657 77.1988C398.368 78.2185 396.423 79.8864 395.057 81.9996C393.692 84.1129 392.965 86.5804 392.965 89.1023C392.965 91.6241 393.692 94.0917 395.057 96.2049C396.423 98.3181 398.368 99.986 400.657 101.006L400.662 101.005Z" fill="#FF748F"/>
<path d="M400.719 100.483L400.865 100.548C404.02 101.953 406.515 104.528 407.834 107.738C409.153 110.946 409.196 114.542 407.953 117.781C407.953 117.782 407.953 117.783 407.952 117.784L407.945 117.804L407.942 117.811C407.074 120.073 406.877 122.54 407.374 124.913C407.872 127.286 409.042 129.462 410.743 131.176C412.444 132.89 414.602 134.069 416.954 134.57C419.305 135.07 421.749 134.872 423.991 134C423.992 133.999 423.994 133.998 423.995 133.998L424.014 133.99L424.022 133.987L424.022 133.987C427.239 132.733 430.811 132.775 433.998 134.106C437.184 135.436 439.739 137.952 441.132 141.129C442.105 143.347 443.697 145.232 445.712 146.555C447.728 147.878 450.081 148.582 452.485 148.582C454.89 148.582 457.243 147.878 459.259 146.555C461.274 145.232 462.865 143.347 463.839 141.129C465.232 137.952 467.786 135.436 470.973 134.106C474.159 132.775 477.732 132.733 480.949 133.987L480.957 133.99L480.957 133.99L480.976 133.998C480.977 133.998 480.979 133.999 480.98 134C483.221 134.872 485.666 135.07 488.017 134.57C490.369 134.069 492.527 132.89 494.228 131.176C495.929 129.462 497.099 127.286 497.596 124.913C498.094 122.541 497.897 120.074 497.029 117.812C497.029 117.812 497.029 117.811 497.029 117.811L497.019 117.785L497.018 117.783C495.774 114.543 495.816 110.946 497.136 107.737C498.455 104.527 500.95 101.952 504.105 100.547M400.719 100.483L504.308 101.004M400.719 100.483L400.716 100.484C398.579 99.4984 396.762 97.9211 395.477 95.9335C394.164 93.9014 393.465 91.5281 393.465 89.1023C393.465 86.6764 394.164 84.3032 395.477 82.271C396.79 80.2389 398.661 78.6356 400.86 77.6555M400.719 100.483L400.86 77.6555M504.105 100.547L504.308 101.004M504.105 100.547C504.105 100.547 504.105 100.547 504.105 100.547L504.308 101.004M504.105 100.547C506.304 99.5669 508.175 97.9637 509.488 95.9315C510.801 93.8994 511.5 91.5261 511.5 89.1003C511.5 86.6744 510.801 84.3012 509.488 82.269C508.174 80.2369 506.304 78.6336 504.105 77.6535M504.308 101.004C506.597 99.984 508.542 98.3161 509.908 96.2029C511.273 94.0897 512 91.6221 512 89.1003C512 86.5784 511.273 84.1109 509.908 81.9976C508.542 79.8844 506.597 78.2165 504.308 77.1968M504.105 77.6535C504.105 77.6535 504.105 77.6535 504.105 77.6535L504.308 77.1968M504.105 77.6535C500.95 76.2483 498.455 73.6732 497.136 70.464C495.816 67.2549 495.774 63.6572 497.018 60.4176L497.021 60.4096L497.021 60.4096L497.029 60.3906M504.105 77.6535L504.308 77.1968M504.308 77.1968L497.029 60.3906M400.86 77.6555C404.015 76.2503 406.51 73.6753 407.829 70.466C409.149 67.2569 409.191 63.6592 407.947 60.4196L407.946 60.4174L407.936 60.3918C407.936 60.3914 407.936 60.3911 407.936 60.3907C407.07 58.1298 406.873 55.664 407.371 53.2926C407.868 50.9209 409.038 48.7463 410.738 47.0328C412.438 45.3192 414.594 44.1404 416.945 43.6389C419.295 43.1377 421.738 43.3344 423.979 44.2051L424.002 44.2143L424.002 44.2144L424.01 44.2176C427.227 45.4719 430.8 45.4293 433.986 44.0989C437.173 42.7685 439.727 40.2529 441.12 37.0756C442.094 34.8573 443.685 32.9724 445.7 31.6495C447.716 30.3266 450.069 29.6226 452.474 29.6226C454.878 29.6226 457.231 30.3266 459.247 31.6495C461.262 32.9724 462.854 34.8574 463.827 37.0756C465.22 40.2529 467.775 42.7685 470.961 44.0989C474.148 45.4293 477.72 45.4719 480.937 44.2176L480.94 44.2167L480.965 44.2065M400.86 77.6555L480.966 44.2063M497.029 60.3906L497.495 60.5698L497.032 60.3826L497.03 60.3865C497.03 60.3879 497.029 60.3892 497.029 60.3906ZM480.966 44.2063L480.967 44.2057L480.783 43.7408L480.965 44.2065M480.966 44.2063C480.966 44.2063 480.966 44.2064 480.965 44.2065M480.966 44.2063L480.965 44.2065" stroke="black" stroke-opacity="0.01"/>
<path d="M103.917 144.071L112.351 149.227C140.431 92.269 190.241 47.467 251.273 25.043C219.015 25.4362 187.214 32.7905 158.012 46.6108C128.811 60.4312 102.886 80.3966 81.9841 105.163V105.173L86.6774 121.41C89.4103 130.871 95.5613 138.956 103.917 144.071Z" fill="#80DFB5"/>
<path d="M87.1577 121.271L87.1577 121.271C89.8562 130.612 95.9293 138.595 104.178 143.644L87.1577 121.271ZM87.1577 121.271L82.5366 105.284C103.363 80.6652 129.169 60.8148 158.226 47.0628C186.483 33.6899 217.177 26.3847 248.363 25.5975M87.1577 121.271L248.363 25.5975M112.146 148.515L104.178 143.645L112.146 148.515ZM112.146 148.515C139.904 92.5273 188.635 48.3215 248.363 25.5975M112.146 148.515L248.363 25.5975" stroke="black" stroke-opacity="0.01"/>
<path d="M62.9918 376.825C62.9814 366.766 64.4299 356.761 67.2912 347.125C64.9863 347.201 62.6899 346.808 60.539 345.97L60.5033 345.956C57.3888 344.742 53.9917 344.467 50.7248 345.162C47.4579 345.858 44.4618 347.495 42.1007 349.875C39.7396 352.255 38.1152 355.274 37.4248 358.567C36.7345 361.859 37.0079 365.283 38.2119 368.422L38.2258 368.459C39.8233 372.623 39.7686 377.247 38.0729 381.372C36.3772 385.496 33.1708 388.804 29.1191 390.61C26.0645 391.971 23.468 394.197 21.6453 397.017C19.8226 399.837 18.8523 403.131 18.8523 406.497C18.8523 409.863 19.8226 413.156 21.6453 415.976C23.468 418.797 26.0645 421.023 29.1191 422.384C33.1708 424.189 36.3772 427.497 38.0729 431.622C39.7686 435.746 39.8233 440.37 38.2258 444.535L38.2119 444.571C37.0075 447.709 36.7338 451.133 37.424 454.426C38.1142 457.718 39.7385 460.738 42.0996 463.118C44.4606 465.497 47.4568 467.135 50.7237 467.83C53.9907 468.526 57.3879 468.25 60.5023 467.037L60.539 467.023C64.6709 465.413 69.2592 465.468 73.3517 467.177C77.4443 468.886 80.7268 472.117 82.5179 476.201C83.8682 479.279 86.0769 481.896 88.8754 483.733C91.6739 485.57 94.9417 486.548 98.2815 486.548C101.621 486.548 104.889 485.57 107.688 483.733C110.486 481.896 112.695 479.279 114.045 476.201C115.654 472.529 118.479 469.536 122.036 467.733C87.6249 454.417 62.9918 418.748 62.9918 376.833V376.825Z" fill="#FD5F7E"/>
<path d="M120.859 467.806C117.646 469.691 115.096 472.556 113.587 476C112.275 478.99 110.13 481.531 107.413 483.315C104.696 485.099 101.523 486.048 98.2815 486.048C95.0395 486.048 91.867 485.099 89.1498 483.315C86.4325 481.531 84.2874 478.99 82.9758 476C81.1333 471.799 77.7563 468.474 73.5444 466.715C69.3329 464.957 64.611 464.9 60.3588 466.556C60.3584 466.556 60.3579 466.557 60.3575 466.557L60.3244 466.569L60.3208 466.571C57.2972 467.749 53.9993 468.017 50.8279 467.341C47.6564 466.666 44.7473 465.076 42.4545 462.766C40.1617 460.455 38.5838 457.522 37.9134 454.323C37.2429 451.125 37.5088 447.799 38.6787 444.75L38.6922 444.715L38.6926 444.714C40.3358 440.43 40.2795 435.674 38.5353 431.432C36.7911 427.189 33.4923 423.785 29.3226 421.927L29.1191 422.384L29.3225 421.927C26.3569 420.606 23.8355 418.444 22.0652 415.705C20.295 412.966 19.3523 409.767 19.3523 406.497C19.3523 403.227 20.295 400.028 22.0652 397.288C23.8355 394.549 26.3569 392.388 29.3225 391.066C33.4923 389.209 36.7911 385.805 38.5353 381.562C40.2793 377.32 40.3358 372.564 38.6932 368.281C38.693 368.281 38.6928 368.28 38.6926 368.28L38.68 368.246L38.6787 368.243C37.5092 365.194 37.2435 361.868 37.9142 358.669C38.5848 355.471 40.1628 352.538 42.4556 350.227C44.7485 347.916 47.6575 346.327 50.8289 345.651C54.0004 344.976 57.2982 345.244 60.3218 346.422L60.3565 346.435L60.3575 346.436C62.3576 347.215 64.48 347.62 66.6208 347.634C63.8723 357.115 62.4816 366.945 62.4918 376.825V376.833C62.4918 418.535 86.7654 454.113 120.859 467.806Z" stroke="black" stroke-opacity="0.01"/>
<path d="M424.828 64.9799C424.823 58.0869 425.603 51.2162 427.154 44.5029C426.142 44.3718 425.148 44.1197 424.194 43.7519L424.168 43.7419C421.835 42.8339 419.29 42.6283 416.844 43.1499C414.397 43.6715 412.153 44.8979 410.385 46.6802C408.617 48.4624 407.4 50.7238 406.883 53.1896C406.365 55.6555 406.569 58.2197 407.47 60.5709L407.481 60.5989C408.679 63.7193 408.639 67.1849 407.368 70.276C406.097 73.3671 403.694 75.8463 400.658 77.1989C398.369 78.2186 396.424 79.8865 395.058 81.9997C393.693 84.1129 392.966 86.5805 392.966 89.1024C392.966 91.6242 393.693 94.0918 395.058 96.205C396.424 98.3182 398.369 99.9861 400.658 101.006C403.694 102.358 406.097 104.838 407.368 107.929C408.639 111.02 408.679 114.485 407.481 117.606L407.471 117.633C406.569 119.985 406.364 122.55 406.881 125.017C407.398 127.484 408.615 129.746 410.384 131.529C412.153 133.312 414.398 134.539 416.846 135.06C419.294 135.581 421.839 135.374 424.173 134.465L424.2 134.454C427.297 133.247 430.735 133.288 433.802 134.568C436.869 135.849 439.329 138.271 440.671 141.331C441.683 143.637 443.338 145.598 445.435 146.974C447.532 148.35 449.98 149.083 452.482 149.083C454.985 149.083 457.433 148.35 459.53 146.974C461.627 145.598 463.282 143.637 464.293 141.331C465.204 139.257 466.639 137.461 468.455 136.122C443.317 127.597 424.83 98.9859 424.83 64.9829L424.828 64.9799Z" fill="#FD5F7E"/>
<path d="M441.129 141.13C439.736 137.953 437.181 135.437 433.995 134.107C430.808 132.776 427.236 132.734 424.019 133.988L424.016 133.989L423.991 133.999C423.991 133.999 423.99 133.999 423.99 134C421.748 134.873 419.302 135.072 416.95 134.571C414.598 134.07 412.44 132.891 410.739 131.177C409.038 129.463 407.868 127.287 407.37 124.914C406.873 122.541 407.07 120.074 407.938 117.812L407.941 117.805L407.948 117.785C407.949 117.784 407.949 117.783 407.949 117.782C409.192 114.543 409.149 110.947 407.83 107.739C406.511 104.529 404.016 101.954 400.861 100.549C398.662 99.569 396.791 97.9657 395.478 95.9336C394.165 93.9015 393.466 91.5282 393.466 89.1024C393.466 86.6765 394.165 84.3033 395.478 82.2711C396.791 80.239 398.662 78.6357 400.861 77.6556C404.016 76.2504 406.511 73.6753 407.83 70.4661C409.15 67.2569 409.192 63.6593 407.948 60.4197L407.947 60.417L407.937 60.3919C407.937 60.3915 407.937 60.391 407.937 60.3905C407.071 58.1296 406.874 55.6637 407.372 53.2923C407.87 50.9205 409.04 48.7458 410.74 47.0323C412.44 45.3188 414.597 44.1402 416.948 43.6389C419.299 43.1377 421.744 43.3353 423.986 44.2078L423.986 44.2079L423.993 44.2103L424.017 44.2194C424.836 44.5351 425.684 44.7687 426.547 44.917C425.067 51.4999 424.323 58.2294 424.328 64.9802L424.328 65.1854L424.331 65.1885C424.404 98.8727 442.537 127.348 467.433 136.294C465.888 137.608 464.657 139.261 463.836 141.13L463.836 141.13C462.862 143.348 461.271 145.233 459.256 146.556C457.24 147.879 454.887 148.583 452.482 148.583C450.078 148.583 447.725 147.879 445.709 146.556C443.694 145.233 442.102 143.348 441.129 141.13ZM441.129 141.13L440.671 141.331M441.129 141.13L440.671 141.331M440.671 141.331C441.683 143.637 443.338 145.598 445.435 146.974C447.532 148.35 449.98 149.083 452.482 149.083C454.985 149.083 457.433 148.35 459.53 146.974C461.627 145.598 463.282 143.637 464.293 141.331L407.471 117.633C406.569 119.985 406.364 122.55 406.881 125.017C407.398 127.484 408.615 129.746 410.384 131.529C412.153 133.312 414.398 134.539 416.846 135.06C419.294 135.581 421.839 135.374 424.173 134.465L424.2 134.454C427.297 133.247 430.735 133.288 433.802 134.568C436.869 135.849 439.329 138.271 440.671 141.331ZM424.168 43.7419L424.194 43.7519C424.992 44.0594 425.817 44.2861 426.658 44.4287L424.168 43.7419ZM424.168 43.7419C421.835 42.8339 419.29 42.6283 416.844 43.1499C414.397 43.6715 412.153 44.8979 410.385 46.6802C408.617 48.4624 407.4 50.7238 406.883 53.1896C406.365 55.6555 406.569 58.2197 407.47 60.5709L424.168 43.7419Z" stroke="black" stroke-opacity="0.01"/>
</svg>
