<svg width="517" height="512" viewBox="0 0 517 512" fill="none" xmlns="http://www.w3.org/2000/svg">
<path d="M82.6272 105.171C47.39 146.402 28.066 198.878 28.1482 253.115C28.1482 379.101 130.279 481.232 256.265 481.232C260.421 481.232 264.555 481.12 268.665 480.896L319.396 430.165V325.265L233.626 287.006V134.632L82.6272 105.171Z" fill="#78CBEC"/>
<path d="M461.783 352.198C480.839 312.609 488.065 268.363 482.597 224.768C477.128 181.174 459.196 140.084 430.952 106.429L233.623 134.629V287.007L319.393 325.266L461.783 352.198Z" fill="#78CBEC"/>
<path d="M88.1322 256.207C88.1222 205.555 104.101 156.192 133.792 115.154L82.6272 105.171C47.39 146.402 28.066 198.878 28.1482 253.115C28.1482 372.222 119.435 469.99 235.86 480.315C148.635 441.115 88.1322 355.515 88.1322 256.208V256.207Z" fill="#34B5E1"/>
<path d="M461.783 352.198C444.05 388.965 416.777 420.3 382.809 442.937C348.841 465.574 309.422 478.683 268.662 480.898L262.735 466.511C260.897 462.04 260.624 457.078 261.963 452.433C263.301 447.788 266.171 443.732 270.106 440.924C272.889 438.948 275.158 436.333 276.723 433.3C278.287 430.267 279.103 426.903 279.1 423.49C278.624 419.355 281.145 409.928 273.312 401.574L262.141 389.661C258.811 386.109 256.791 381.529 256.415 376.674C256.039 371.82 257.329 366.983 260.073 362.961L263.073 358.568C264.942 355.826 266.148 352.688 266.596 349.401C267.044 346.114 266.722 342.768 265.655 339.626C264.588 336.485 262.806 333.634 260.449 331.299C258.092 328.965 255.225 327.21 252.073 326.173L219.639 315.527C216.665 314.551 214.154 312.515 212.584 309.808L190.341 271.546C189.234 269.637 187.65 268.048 185.745 266.935C183.84 265.821 181.679 265.22 179.473 265.191C177.266 265.162 175.09 265.706 173.156 266.77C171.223 267.833 169.598 269.38 168.441 271.259L163.118 279.887C161.511 282.485 159.026 284.42 156.114 285.342C153.201 286.264 150.055 286.111 147.245 284.912C144.436 283.712 142.15 281.545 140.802 278.803C139.454 276.062 139.134 272.928 139.899 269.971L151.416 225.881C151.868 224.143 152.682 222.521 153.804 221.12C154.926 219.718 156.331 218.569 157.927 217.748L181.397 205.667C183.906 204.377 185.917 202.291 187.115 199.736C188.313 197.182 188.63 194.302 188.016 191.548C186.951 186.755 184.484 182.388 180.928 179.003C177.372 175.618 172.889 173.368 168.049 172.541C156.067 170.041 148.393 170.577 138.791 164.741L104.73 144.071C96.3083 138.957 90.1089 130.871 87.3552 121.411L82.6252 105.171V105.161C104.131 79.9226 130.88 59.6761 161.009 45.8318C191.139 31.9875 223.925 24.8782 257.082 24.9991C290.24 25.12 322.973 32.4682 353.001 46.5318C383.029 60.5955 409.629 81.0364 430.95 106.431L421.679 122.915C419.891 126.095 417.348 128.787 414.276 130.753C411.203 132.72 407.694 133.902 404.057 134.195C400.348 134.492 396.772 135.714 393.657 137.751C390.542 139.787 387.987 142.572 386.227 145.851L377.737 161.672C375.706 165.455 372.624 168.571 368.863 170.642C365.101 172.714 360.821 173.653 356.537 173.347C351.237 172.993 350.237 172.823 347.711 172.823C341.988 172.823 336.328 174.012 331.089 176.315C325.85 178.617 321.146 181.984 317.276 186.2C301.776 203.123 309.227 221.084 296.468 238.037L277.114 263.862C276.044 265.291 275.269 266.918 274.834 268.649C274.398 270.381 274.311 272.181 274.578 273.946C274.845 275.711 275.461 277.406 276.389 278.931C277.317 280.456 278.538 281.781 279.983 282.83L296.754 294.99C298.363 296.154 300.21 296.948 302.161 297.316C304.113 297.684 306.122 297.616 308.044 297.117C330.958 291.405 332.437 290.181 338.044 290.181C341.496 290.18 344.913 290.866 348.096 292.2C351.28 293.533 354.166 295.487 356.586 297.948C370.647 312.236 385.986 300.991 400.547 308.748C413.44 315.7 414.732 315.988 417.605 318.217L461.783 352.198Z" fill="#B0EBCE"/>
<path d="M168.757 390.605C164.674 388.799 161.442 385.491 159.733 381.366C158.024 377.242 157.968 372.617 159.578 368.453L159.592 368.417C160.806 365.278 161.082 361.854 160.386 358.562C159.691 355.269 158.054 352.249 155.674 349.87C153.294 347.49 150.275 345.853 146.982 345.157C143.69 344.461 140.266 344.737 137.127 345.951L137.09 345.965C132.926 347.575 128.301 347.519 124.177 345.81C120.052 344.101 116.744 340.869 114.939 336.786C113.578 333.707 111.352 331.09 108.532 329.253C105.711 327.416 102.418 326.438 99.0521 326.438C95.6863 326.438 92.3929 327.416 89.5724 329.253C86.752 331.09 84.526 333.707 83.1651 336.786C81.36 340.869 78.0518 344.101 73.9272 345.81C69.8026 347.519 65.1783 347.574 61.0141 345.964L60.9781 345.95C57.8394 344.736 54.4156 344.46 51.123 345.156C47.8304 345.851 44.8108 347.488 42.4311 349.868C40.0515 352.247 38.4143 355.267 37.7186 358.56C37.0228 361.852 37.2985 365.276 38.5121 368.415L38.5261 368.452C40.1362 372.616 40.0811 377.24 38.3721 381.365C36.6631 385.489 33.4316 388.797 29.3481 390.603C26.2696 391.964 23.6528 394.19 21.8158 397.01C19.9789 399.83 19.001 403.124 19.001 406.49C19.001 409.856 19.9789 413.149 21.8158 415.969C23.6528 418.79 26.2696 421.016 29.3481 422.377C33.4316 424.182 36.6631 427.49 38.3721 431.615C40.0811 435.739 40.1362 440.363 38.5261 444.528L38.5121 444.564C37.2984 447.702 37.0225 451.126 37.7181 454.419C38.4137 457.711 40.0508 460.731 42.4303 463.111C44.8099 465.49 47.8294 467.128 51.122 467.823C54.4146 468.519 57.8383 468.243 60.9771 467.03L61.0141 467.016C65.1783 465.406 69.8026 465.461 73.9272 467.17C78.0518 468.879 81.36 472.11 83.1651 476.194C84.526 479.272 86.752 481.889 89.5724 483.726C92.3929 485.563 95.6863 486.541 99.0521 486.541C102.418 486.541 105.711 485.563 108.532 483.726C111.352 481.889 113.578 479.272 114.939 476.194C116.744 472.11 120.052 468.879 124.177 467.17C128.302 465.461 132.926 465.406 137.09 467.016L137.126 467.03C140.265 468.243 143.689 468.519 146.981 467.824C150.274 467.128 153.294 465.491 155.673 463.111C158.053 460.732 159.69 457.712 160.386 454.42C161.081 451.127 160.806 447.703 159.592 444.565L159.578 444.528C157.968 440.363 158.023 435.739 159.732 431.615C161.441 427.49 164.673 424.182 168.756 422.377C171.835 421.016 174.452 418.791 176.289 415.97C178.126 413.15 179.104 409.857 179.105 406.491C179.105 403.125 178.127 399.832 176.29 397.011C174.453 394.191 171.836 391.965 168.757 390.605Z" fill="#FF748F"/>
<path d="M403.799 101.005C406.859 102.357 409.281 104.837 410.562 107.928C411.842 111.019 411.883 114.484 410.676 117.605L410.666 117.632C409.757 119.983 409.55 122.549 410.071 125.016C410.592 127.483 411.819 129.745 413.602 131.528C415.385 133.311 417.647 134.538 420.114 135.059C422.581 135.58 425.146 135.373 427.498 134.464L427.525 134.453C430.646 133.246 434.111 133.287 437.202 134.567C440.293 135.848 442.773 138.269 444.125 141.33C445.145 143.636 446.813 145.597 448.926 146.973C451.039 148.349 453.507 149.082 456.029 149.082C458.551 149.082 461.018 148.349 463.131 146.973C465.245 145.597 466.912 143.636 467.932 141.33C469.285 138.269 471.764 135.848 474.855 134.567C477.946 133.287 481.412 133.246 484.532 134.453L484.559 134.464C486.911 135.373 489.476 135.58 491.943 135.059C494.41 134.538 496.673 133.311 498.456 131.528C500.238 129.745 501.465 127.483 501.986 125.016C502.507 122.549 502.301 119.983 501.391 117.632L501.38 117.604C500.173 114.483 500.214 111.018 501.495 107.927C502.775 104.836 505.197 102.356 508.257 101.004C510.564 99.984 512.524 98.3161 513.901 96.2029C515.277 94.0897 516.009 91.6221 516.009 89.1003C516.009 86.5784 515.277 84.1109 513.901 81.9976C512.524 79.8844 510.564 78.2165 508.257 77.1968C505.197 75.8442 502.775 73.365 501.495 70.2739C500.214 67.1828 500.173 63.7173 501.38 60.5968L501.391 60.5698C502.301 58.2171 502.508 55.6505 501.986 53.1825C501.465 50.7144 500.237 48.4512 498.452 46.6681C496.668 44.8851 494.404 43.6592 491.935 43.1394C489.466 42.6197 486.9 42.8286 484.548 43.7408L484.52 43.7518C481.4 44.959 477.934 44.918 474.843 43.6375C471.752 42.3569 469.273 39.9351 467.92 36.8748C466.9 34.5683 465.233 32.6077 463.119 31.2315C461.006 29.8552 458.539 29.1226 456.017 29.1226C453.495 29.1226 451.027 29.8552 448.914 31.2315C446.801 32.6077 445.133 34.5683 444.113 36.8748C442.761 39.9351 440.281 42.3569 437.19 43.6375C434.099 44.918 430.634 44.959 427.513 43.7518L427.486 43.7408C425.135 42.8333 422.571 42.628 420.105 43.1499C417.64 43.6718 415.379 44.8983 413.597 46.6806C411.815 48.4629 410.589 50.7243 410.068 53.19C409.546 55.6557 409.752 58.2198 410.66 60.5708L410.671 60.5988C411.878 63.7193 411.837 67.1848 410.557 70.2759C409.276 73.367 406.855 75.8462 403.794 77.1988C401.488 78.2185 399.527 79.8864 398.151 81.9996C396.775 84.1129 396.042 86.5804 396.042 89.1023C396.042 91.6241 396.775 94.0917 398.151 96.2049C399.527 98.3181 401.488 99.986 403.794 101.006L403.799 101.005Z" fill="#FF748F"/>
<path d="M104.731 144.071L113.231 149.227C141.531 92.269 191.731 47.467 253.241 25.043C220.73 25.4362 188.68 32.7905 159.25 46.6108C129.82 60.4312 103.692 80.3966 82.6262 105.163V105.173L87.3562 121.41C90.1106 130.871 96.3097 138.956 104.731 144.071Z" fill="#80DFB5"/>
<path d="M63.4852 376.825C63.4747 366.766 64.9345 356.761 67.8182 347.125C65.4953 347.201 63.1809 346.808 61.0132 345.97L60.9772 345.956C57.8383 344.742 54.4146 344.467 51.1221 345.162C47.8296 345.858 44.8101 347.495 42.4305 349.875C40.0509 352.255 38.4137 355.274 37.718 358.567C37.0222 361.859 37.2978 365.283 38.5112 368.422L38.5252 368.459C40.1352 372.623 40.0801 377.247 38.3711 381.372C36.6621 385.496 33.4306 388.804 29.3472 390.61C26.2686 391.971 23.6518 394.197 21.8149 397.017C19.9779 399.837 19 403.131 19 406.497C19 409.863 19.9779 413.156 21.8149 415.976C23.6518 418.797 26.2686 421.023 29.3472 422.384C33.4306 424.189 36.6621 427.497 38.3711 431.622C40.0801 435.746 40.1352 440.37 38.5252 444.535L38.5112 444.571C37.2974 447.709 37.0216 451.133 37.7172 454.426C38.4127 457.718 40.0498 460.738 42.4293 463.118C44.8089 465.497 47.8285 467.135 51.121 467.83C54.4136 468.526 57.8374 468.25 60.9762 467.037L61.0132 467.023C65.1774 465.413 69.8016 465.468 73.9262 467.177C78.0508 468.886 81.359 472.117 83.1642 476.201C84.525 479.279 86.751 481.896 89.5714 483.733C92.3919 485.57 95.6853 486.548 99.0512 486.548C102.417 486.548 105.71 485.57 108.531 483.733C111.351 481.896 113.577 479.279 114.938 476.201C116.559 472.529 119.407 469.536 122.992 467.733C88.3112 454.417 63.4852 418.748 63.4852 376.833V376.825Z" fill="#FD5F7E"/>
<path d="M428.154 64.9799C428.149 58.0869 428.936 51.2162 430.499 44.5029C429.479 44.3718 428.477 44.1197 427.516 43.7519L427.489 43.7419C425.138 42.8339 422.574 42.6283 420.108 43.1499C417.642 43.6715 415.381 44.8979 413.599 46.6802C411.816 48.4624 410.59 50.7238 410.069 53.1896C409.547 55.6555 409.753 58.2197 410.661 60.5709L410.672 60.5989C411.879 63.7193 411.838 67.1849 410.558 70.276C409.277 73.3671 406.855 75.8463 403.795 77.1989C401.489 78.2186 399.528 79.8865 398.152 81.9997C396.776 84.1129 396.043 86.5805 396.043 89.1024C396.043 91.6242 396.776 94.0918 398.152 96.205C399.528 98.3182 401.489 99.9861 403.795 101.006C406.855 102.358 409.277 104.838 410.558 107.929C411.838 111.02 411.879 114.485 410.672 117.606L410.662 117.633C409.753 119.985 409.546 122.55 410.067 125.017C410.588 127.484 411.815 129.746 413.598 131.529C415.381 133.312 417.643 134.539 420.11 135.06C422.577 135.581 425.142 135.374 427.494 134.465L427.522 134.454C430.643 133.247 434.108 133.288 437.199 134.568C440.29 135.849 442.77 138.271 444.122 141.331C445.142 143.637 446.81 145.598 448.923 146.974C451.036 148.35 453.504 149.083 456.026 149.083C458.548 149.083 461.015 148.35 463.128 146.974C465.242 145.598 466.909 143.637 467.929 141.331C468.847 139.257 470.293 137.461 472.123 136.122C446.788 127.597 428.157 98.9859 428.157 64.9829L428.154 64.9799Z" fill="#FD5F7E"/>
</svg>
