<svg width="512" height="512" viewBox="0 0 512 512" fill="none" xmlns="http://www.w3.org/2000/svg">
<path d="M118.621 392.142C118.621 392.142 61 432.651 61 512H471.1C471.1 432.651 413.479 392.142 413.479 392.142H118.621Z" fill="#C1E9FA"/>
<path d="M100.866 503.914C100.866 444.792 135.798 396.367 180.089 392.142H118.621C118.621 392.142 61 432.651 61 512H101.089C100.944 509.329 100.87 506.634 100.866 503.914Z" fill="#90D3F1"/>
<path d="M265.964 15C174.989 15.046 101.727 89.919 101.727 180.894V348.888C101.73 360.715 105.016 372.31 111.218 382.381C117.421 392.451 126.296 400.603 136.857 405.928C163.234 419.244 205.335 433.172 266.049 433.172C326.763 433.172 368.863 419.245 395.241 405.928C405.802 400.603 414.678 392.451 420.88 382.381C427.082 372.31 430.368 360.715 430.371 348.888V179.322C430.371 157.736 426.118 136.361 417.855 116.419C409.591 96.4771 397.48 78.3586 382.212 63.0988C366.944 47.8389 348.82 35.7368 328.873 27.4839C308.927 19.2309 287.55 14.9889 265.964 15Z" fill="#90D3F1"/>
<path d="M189.449 253.313C175.31 272.313 146.279 268.939 135.942 248.013C124.309 224.478 119.34 198.209 121.573 172.051C121.613 171.45 121.88 170.887 122.319 170.475C122.758 170.063 123.338 169.833 123.94 169.831H408.16C408.762 169.833 409.341 170.063 409.781 170.475C410.22 170.887 410.487 171.45 410.527 172.051C412.758 198.208 407.789 224.478 396.158 248.013C385.842 268.896 356.81 272.353 342.651 253.313H189.449Z" fill="#C1E9FA"/>
<path d="M185.396 222.437C183.407 222.437 181.499 221.647 180.093 220.24C178.686 218.834 177.896 216.926 177.896 214.937V199.437C177.896 197.448 178.686 195.54 180.093 194.134C181.499 192.727 183.407 191.937 185.396 191.937C187.385 191.937 189.293 192.727 190.699 194.134C192.106 195.54 192.896 197.448 192.896 199.437V214.937C192.896 216.926 192.106 218.834 190.699 220.24C189.293 221.647 187.385 222.437 185.396 222.437Z" fill="#423E4F"/>
<path d="M346.702 222.437C344.713 222.437 342.805 221.647 341.399 220.24C339.992 218.834 339.202 216.926 339.202 214.937V199.437C339.202 197.448 339.992 195.54 341.399 194.134C342.805 192.727 344.713 191.937 346.702 191.937C348.691 191.937 350.599 192.727 352.005 194.134C353.412 195.54 354.202 197.448 354.202 199.437V214.937C354.202 216.926 353.412 218.834 352.005 220.24C350.599 221.647 348.691 222.437 346.702 222.437Z" fill="#423E4F"/>
<path d="M114.795 223.911C114.795 146.322 147.033 76.811 197.92 29.936C169.166 43.3134 144.834 64.6306 127.791 91.3761C110.748 118.122 101.705 149.181 101.727 180.895V348.889C101.73 360.716 105.016 372.311 111.218 382.382C117.421 392.452 126.296 400.604 136.857 405.929C154.328 414.749 178.704 423.829 210.809 428.965C152.535 382.365 114.795 307.865 114.795 223.911Z" fill="#78CBEC"/>
<path d="M141.256 195.534C141.253 186.896 142.163 178.281 143.971 169.834H123.939C123.337 169.836 122.758 170.066 122.318 170.478C121.879 170.89 121.612 171.453 121.572 172.054C119.34 198.211 124.309 224.481 135.941 248.016C138.497 253.211 142.421 257.612 147.291 260.743C152.161 263.874 157.793 265.618 163.58 265.787C148.991 245.273 141.185 220.709 141.256 195.537V195.534Z" fill="#78CBEC"/>
<path d="M444.222 170.716C443.29 160.142 438.446 150.297 430.639 143.105C422.832 135.913 412.623 131.892 402.008 131.829H130.09C119.475 131.891 109.265 135.911 101.457 143.103C93.6498 150.295 88.8069 160.142 87.8759 170.716C85.135 202.997 91.2785 235.413 105.641 264.452C111.472 276.362 120.556 286.376 131.843 293.336C143.13 300.296 156.157 303.917 169.417 303.78L169.437 303.75L216.721 226.317C216.711 226.327 216.691 226.337 216.681 226.357C207.677 233.797 199.642 242.337 192.764 251.777C179.237 269.953 151.464 266.727 141.573 246.707C130.444 224.191 125.69 199.058 127.826 174.033C127.864 173.458 128.119 172.919 128.539 172.525C128.96 172.131 129.514 171.911 130.09 171.909H402.008C402.584 171.911 403.138 172.131 403.558 172.525C403.979 172.919 404.234 173.458 404.272 174.033C406.406 199.058 401.652 224.19 390.525 246.707C380.655 266.687 352.88 269.993 339.334 251.777C332.45 242.333 324.412 233.787 315.407 226.337C315.397 226.327 315.377 226.317 315.367 226.307L362.661 303.75L362.681 303.78C375.942 303.925 388.972 300.307 400.261 293.346C411.549 286.385 420.632 276.366 426.457 264.452C450.057 216.657 443.941 176.117 444.222 170.716Z" fill="#5C586F"/>
<path d="M389.803 512V460.968C389.803 458.979 390.593 457.071 392 455.664C393.406 454.258 395.314 453.468 397.303 453.468C399.292 453.468 401.2 454.258 402.606 455.664C404.013 457.071 404.803 458.979 404.803 460.968V512H389.803Z" fill="#90D3F1"/>
<path d="M127.295 512V460.968C127.295 458.979 128.085 457.071 129.492 455.664C130.898 454.258 132.806 453.468 134.795 453.468C136.784 453.468 138.692 454.258 140.098 455.664C141.505 457.071 142.295 458.979 142.295 460.968V512H127.295Z" fill="#90D3F1"/>
<path d="M161.516 262.792C157.219 261.729 153.207 259.738 149.762 256.959C146.317 254.18 143.522 250.68 141.573 246.706C130.444 224.19 125.69 199.057 127.826 174.032C127.864 173.457 128.119 172.918 128.54 172.524C128.96 172.129 129.515 171.909 130.091 171.908H143.54C146.312 157.713 151.626 144.135 159.226 131.829H130.09C119.475 131.891 109.265 135.911 101.457 143.103C93.6498 150.295 88.8069 160.142 87.8759 170.716C85.135 202.997 91.2785 235.413 105.641 264.452C111.472 276.362 120.556 286.376 131.843 293.336C143.13 300.296 156.157 303.917 169.417 303.78L169.437 303.75L180.828 285.1C173.484 278.503 166.996 271.011 161.516 262.8V262.792Z" fill="#4F4C5F"/>
<path d="M372.089 320.74C372.089 353.08 324.62 379.29 266.049 379.29C207.478 379.29 160.009 353.081 160.009 320.74C160.166 315.354 161.011 310.011 162.522 304.84C169.022 280.531 187.765 245.227 213.148 221.906C213.159 221.889 213.174 221.874 213.191 221.863C228.749 207.572 246.798 197.78 266.05 197.78C285.302 197.78 303.34 207.562 318.898 221.853C318.909 221.864 318.93 221.874 318.941 221.885C344.324 245.217 363.071 280.521 369.577 304.84C371.087 310.011 371.931 315.355 372.089 320.74Z" fill="white"/>
<path d="M312.24 287.936C299.781 266.536 287.614 256.263 287.24 255.845C279.116 248.383 271.195 243.928 266.049 243.928C259.435 243.928 249.344 251.406 244.902 255.874L244.161 256.619C244.061 256.732 232.234 266.649 219.803 288.024C217.505 291.992 216.189 296.452 215.965 301.031C215.74 305.611 216.613 310.178 218.511 314.352C220.41 318.525 223.278 322.185 226.877 325.026C230.476 327.866 234.702 329.805 239.203 330.681C256.949 333.961 275.145 333.961 292.89 330.681C297.397 329.8 301.628 327.853 305.229 325.003C308.83 322.153 311.697 318.483 313.591 314.299C315.485 310.116 316.35 305.54 316.115 300.953C315.88 296.367 314.551 291.903 312.239 287.935L312.24 287.936Z" fill="#DADADA"/>
</svg>
