<svg width="512" height="512" viewBox="0 0 512 512" fill="none" xmlns="http://www.w3.org/2000/svg">
<path d="M0.5 0.5H511.5V511.5H0.5V0.5Z" stroke="black" stroke-opacity="0.01"/>
<path d="M118.621 392.142C118.621 392.142 61 432.651 61 512H471.1C471.1 432.651 413.479 392.142 413.479 392.142H118.621Z" fill="#C1E9FA"/>
<path d="M470.599 511.5H61.5008C61.6211 472.202 75.9179 442.505 90.2165 422.607C97.3967 412.615 104.576 405.096 109.959 400.077C112.65 397.568 114.891 395.683 116.458 394.428C117.241 393.8 117.856 393.33 118.274 393.017C118.483 392.86 118.642 392.743 118.749 392.665C118.761 392.657 118.771 392.649 118.782 392.642H413.318C413.329 392.649 413.339 392.657 413.351 392.665C413.458 392.743 413.617 392.86 413.826 393.017C414.244 393.33 414.859 393.8 415.642 394.428C417.209 395.683 419.45 397.568 422.141 400.077C427.524 405.096 434.703 412.615 441.883 422.607C456.182 442.505 470.479 472.202 470.599 511.5Z" stroke="black" stroke-opacity="0.01"/>
<path d="M100.866 503.914C100.866 444.792 135.798 396.367 180.089 392.142H118.621C118.621 392.142 61 432.651 61 512H101.089C100.944 509.329 100.87 506.634 100.866 503.914V503.914Z" fill="#90D3F1"/>
<path d="M100.562 511.5H61.5008C61.6211 472.202 75.9179 442.505 90.2165 422.607C97.3967 412.615 104.576 405.096 109.959 400.077C112.65 397.568 114.891 395.683 116.458 394.428C117.241 393.8 117.856 393.33 118.274 393.017C118.483 392.86 118.642 392.743 118.749 392.665C118.761 392.657 118.771 392.649 118.782 392.642H173.271C131.904 400.916 100.366 447.679 100.366 503.914H100.866L100.366 503.915C100.37 506.465 100.435 508.993 100.562 511.5Z" stroke="black" stroke-opacity="0.01"/>
<path d="M265.964 15C174.989 15.046 101.727 89.919 101.727 180.894V348.888C101.73 360.715 105.016 372.31 111.218 382.381C117.421 392.451 126.296 400.603 136.857 405.928C163.234 419.244 205.335 433.172 266.049 433.172C326.763 433.172 368.863 419.245 395.241 405.928C405.802 400.603 414.678 392.451 420.88 382.381C427.082 372.31 430.368 360.715 430.371 348.888V179.322C430.371 157.736 426.118 136.361 417.855 116.419C409.591 96.4771 397.48 78.3586 382.212 63.0988C366.944 47.8389 348.82 35.7368 328.873 27.4839C308.927 19.2309 287.55 14.9889 265.964 15V15Z" fill="#90D3F1"/>
<path d="M137.082 405.482L137.082 405.482C126.604 400.198 117.798 392.11 111.644 382.118C105.49 372.127 102.23 360.623 102.227 348.888V180.894C102.227 90.1888 175.272 15.5459 265.964 15.5C287.485 15.4889 308.797 19.7181 328.682 27.9459C348.568 36.1737 366.637 48.239 381.859 63.4524C397.08 78.6658 409.155 96.7291 417.393 116.61C425.631 136.492 429.871 157.801 429.871 179.322V348.888C429.868 360.623 426.608 372.127 420.454 382.118C414.3 392.11 405.494 400.198 395.016 405.482L395.016 405.482C368.706 418.764 326.683 432.672 266.049 432.672C205.415 432.672 163.391 418.763 137.082 405.482Z" stroke="black" stroke-opacity="0.01"/>
<path d="M189.449 253.313C175.31 272.313 146.279 268.939 135.942 248.013C124.309 224.478 119.34 198.209 121.573 172.051C121.613 171.45 121.88 170.887 122.319 170.475C122.758 170.063 123.338 169.833 123.94 169.831H408.16C408.762 169.833 409.341 170.063 409.781 170.475C410.22 170.887 410.487 171.45 410.527 172.051C412.758 198.208 407.789 224.478 396.158 248.013C385.842 268.896 356.81 272.353 342.651 253.313H189.449Z" fill="#C1E9FA"/>
<path d="M189.449 252.813H189.198L189.048 253.015C175.143 271.7 146.57 268.399 136.39 247.792L136.39 247.792C124.798 224.339 119.846 198.16 122.071 172.094L122.071 172.094L122.072 172.084C122.104 171.61 122.314 171.165 122.661 170.84C123.008 170.514 123.465 170.333 123.941 170.331H408.159C408.635 170.333 409.092 170.514 409.439 170.84C409.786 171.165 409.996 171.61 410.028 172.084L410.029 172.094C412.252 198.16 407.3 224.338 395.71 247.792L396.158 248.013L395.71 247.792C385.55 268.357 356.977 271.739 343.052 253.015L342.902 252.813H342.651H189.449Z" stroke="black" stroke-opacity="0.01"/>
<path d="M185.396 222.437C183.407 222.437 181.499 221.647 180.093 220.24C178.686 218.834 177.896 216.926 177.896 214.937V199.437C177.896 197.448 178.686 195.54 180.093 194.134C181.499 192.727 183.407 191.937 185.396 191.937C187.385 191.937 189.293 192.727 190.699 194.134C192.106 195.54 192.896 197.448 192.896 199.437V214.937C192.896 216.926 192.106 218.834 190.699 220.24C189.293 221.647 187.385 222.437 185.396 222.437V222.437Z" fill="#423E4F"/>
<path d="M185.396 221.937C183.539 221.937 181.759 221.2 180.446 219.887C179.133 218.574 178.396 216.794 178.396 214.937V199.437C178.396 197.58 179.133 195.8 180.446 194.487C181.759 193.175 183.539 192.437 185.396 192.437C187.253 192.437 189.033 193.175 190.346 194.487C191.658 195.8 192.396 197.58 192.396 199.437V214.937C192.396 216.794 191.658 218.574 190.346 219.887C189.033 221.2 187.253 221.937 185.396 221.937Z" stroke="black" stroke-opacity="0.01"/>
<path d="M346.702 222.437C344.713 222.437 342.805 221.647 341.399 220.24C339.992 218.834 339.202 216.926 339.202 214.937V199.437C339.202 197.448 339.992 195.54 341.399 194.134C342.805 192.727 344.713 191.937 346.702 191.937C348.691 191.937 350.599 192.727 352.005 194.134C353.412 195.54 354.202 197.448 354.202 199.437V214.937C354.202 216.926 353.412 218.834 352.005 220.24C350.599 221.647 348.691 222.437 346.702 222.437V222.437Z" fill="#423E4F"/>
<path d="M346.702 221.937C344.845 221.937 343.065 221.2 341.752 219.887C340.439 218.574 339.702 216.794 339.702 214.937V199.437C339.702 197.58 340.439 195.8 341.752 194.487C343.065 193.175 344.845 192.437 346.702 192.437C348.558 192.437 350.339 193.175 351.652 194.487C352.964 195.8 353.702 197.58 353.702 199.437V214.937C353.702 216.794 352.964 218.574 351.652 219.887C350.339 221.2 348.558 221.937 346.702 221.937Z" stroke="black" stroke-opacity="0.01"/>
<path d="M114.795 223.911C114.795 146.322 147.033 76.811 197.92 29.936C169.166 43.3134 144.834 64.6306 127.791 91.3761C110.748 118.122 101.705 149.181 101.727 180.895V348.889C101.73 360.716 105.016 372.311 111.218 382.382C117.421 392.452 126.296 400.604 136.857 405.929C154.328 414.749 178.704 423.829 210.809 428.965C152.535 382.365 114.795 307.865 114.795 223.911V223.911Z" fill="#78CBEC"/>
<path d="M102.227 180.895L102.227 180.895C102.205 149.276 111.221 118.31 128.213 91.6448C144.623 65.8911 167.813 45.1857 195.207 31.7846C145.591 78.7147 114.295 147.396 114.295 223.911C114.295 307.306 151.467 381.399 209.022 428.167C177.89 422.99 154.169 414.109 137.082 405.483L137.082 405.483C126.604 400.199 117.798 392.111 111.644 382.119C105.49 372.128 102.23 360.624 102.227 348.889L102.227 180.895Z" stroke="black" stroke-opacity="0.01"/>
<path d="M141.256 195.534C141.253 186.896 142.163 178.281 143.971 169.834H123.939C123.337 169.836 122.758 170.066 122.318 170.478C121.879 170.89 121.612 171.453 121.572 172.054C119.34 198.211 124.309 224.481 135.941 248.016C138.497 253.211 142.421 257.612 147.291 260.743C152.161 263.874 157.793 265.618 163.58 265.787C148.991 245.273 141.185 220.709 141.256 195.537V195.534Z" fill="#78CBEC"/>
<path d="M122.07 172.096L122.071 172.097L122.071 172.087C122.103 171.613 122.314 171.168 122.661 170.842C123.007 170.517 123.465 170.335 123.94 170.334H143.354C141.624 178.622 140.753 187.066 140.756 195.534C140.756 195.534 140.756 195.534 140.756 195.534L140.756 195.536C140.756 195.536 140.756 195.536 140.756 195.536C140.686 220.472 148.314 244.813 162.584 265.241C157.244 264.913 152.071 263.222 147.561 260.322C142.768 257.24 138.905 252.909 136.39 247.795L136.389 247.794C124.798 224.341 119.846 198.163 122.07 172.096Z" stroke="black" stroke-opacity="0.01"/>
<path d="M444.222 170.716C443.29 160.142 438.446 150.297 430.639 143.105C422.832 135.913 412.623 131.892 402.008 131.829H130.09C119.475 131.891 109.265 135.911 101.457 143.103C93.6498 150.295 88.8069 160.142 87.8759 170.716C85.135 202.997 91.2785 235.413 105.641 264.452C111.472 276.362 120.556 286.376 131.843 293.336C143.13 300.296 156.157 303.917 169.417 303.78L169.437 303.75L216.721 226.317C216.711 226.327 216.691 226.337 216.681 226.357C207.677 233.797 199.642 242.337 192.764 251.777C179.237 269.953 151.464 266.727 141.573 246.707C130.444 224.191 125.69 199.058 127.826 174.033C127.864 173.458 128.119 172.919 128.539 172.525C128.96 172.131 129.514 171.911 130.09 171.909H402.008C402.584 171.911 403.138 172.131 403.558 172.525C403.979 172.919 404.234 173.458 404.272 174.033C406.406 199.058 401.652 224.19 390.525 246.707C380.655 266.687 352.88 269.993 339.334 251.777C332.45 242.333 324.412 233.787 315.407 226.337C315.397 226.327 315.377 226.317 315.367 226.307L362.661 303.75L362.681 303.78C375.942 303.925 388.972 300.307 400.261 293.346C411.549 286.385 420.632 276.366 426.457 264.452C450.057 216.657 443.941 176.117 444.222 170.716V170.716Z" fill="#5C586F"/>
<path d="M430.3 143.472C438.008 150.572 442.792 160.289 443.721 170.726C443.688 171.441 443.755 172.687 443.847 174.362L443.856 174.536C443.949 176.229 444.067 178.377 444.147 180.935C444.311 186.228 444.312 193.275 443.586 201.643C442.134 218.379 437.776 240.4 426.009 264.231L426.008 264.232C420.224 276.062 411.206 286.009 399.998 292.92C388.868 299.784 376.033 303.374 362.961 303.283L317.401 228.678C325.441 235.629 332.665 243.477 338.93 252.072L338.933 252.075C352.713 270.607 380.946 267.226 390.973 246.929C402.14 224.331 406.911 199.11 404.77 173.995C404.723 173.295 404.412 172.64 403.901 172.16C403.388 171.679 402.712 171.411 402.009 171.409H402.008H130.09H130.089C129.386 171.411 128.71 171.679 128.197 172.16C127.686 172.64 127.375 173.296 127.327 173.995C125.184 199.11 129.956 224.332 141.125 246.929C151.173 267.267 179.404 270.566 193.165 252.076L193.168 252.072C199.424 243.484 206.642 235.645 214.677 228.704L169.137 303.282C156.066 303.366 143.234 299.773 132.106 292.911C120.899 286 111.879 276.057 106.09 264.232L106.089 264.23C91.7672 235.273 85.6411 202.949 88.374 170.759C89.2942 160.309 94.0804 150.578 101.796 143.471C109.512 136.363 119.601 132.39 130.091 132.329H402.006C412.496 132.392 422.585 136.365 430.3 143.472Z" stroke="black" stroke-opacity="0.01"/>
<path d="M389.803 512V460.968C389.803 458.979 390.593 457.071 392 455.664C393.406 454.258 395.314 453.468 397.303 453.468C399.292 453.468 401.2 454.258 402.606 455.664C404.013 457.071 404.803 458.979 404.803 460.968V512H389.803Z" fill="#90D3F1"/>
<path d="M390.303 511.5V460.968C390.303 459.111 391.04 457.331 392.353 456.018C393.666 454.705 395.446 453.968 397.303 453.968C399.159 453.968 400.94 454.705 402.253 456.018C403.565 457.331 404.303 459.111 404.303 460.968V511.5H390.303Z" stroke="black" stroke-opacity="0.01"/>
<path d="M127.295 512V460.968C127.295 458.979 128.085 457.071 129.492 455.664C130.898 454.258 132.806 453.468 134.795 453.468C136.784 453.468 138.692 454.258 140.098 455.664C141.505 457.071 142.295 458.979 142.295 460.968V512H127.295Z" fill="#90D3F1"/>
<path d="M127.795 511.5V460.968C127.795 459.111 128.532 457.331 129.845 456.018C131.158 454.705 132.938 453.968 134.795 453.968C136.651 453.968 138.432 454.705 139.745 456.018C141.057 457.331 141.795 459.111 141.795 460.968V511.5H127.795Z" stroke="black" stroke-opacity="0.01"/>
<path d="M161.516 262.792C157.219 261.729 153.207 259.738 149.762 256.959C146.317 254.18 143.522 250.68 141.573 246.706C130.444 224.19 125.69 199.057 127.826 174.032C127.864 173.457 128.119 172.918 128.54 172.524C128.96 172.129 129.515 171.909 130.091 171.908H143.54C146.312 157.713 151.626 144.135 159.226 131.829H130.09C119.475 131.891 109.265 135.911 101.457 143.103C93.6498 150.295 88.8069 160.142 87.8759 170.716C85.135 202.997 91.2785 235.413 105.641 264.452C111.472 276.362 120.556 286.376 131.843 293.336C143.13 300.296 156.157 303.917 169.417 303.78L169.437 303.75L180.828 285.1C173.484 278.503 166.996 271.011 161.516 262.8V262.792Z" fill="#4F4C5F"/>
<path d="M106.09 264.232L106.089 264.23C91.7672 235.273 85.6411 202.949 88.374 170.759C89.2942 160.309 94.0804 150.578 101.796 143.471C109.512 136.363 119.601 132.39 130.091 132.329H158.333C151.023 144.366 145.876 157.593 143.129 171.408H130.091H130.09C129.387 171.41 128.711 171.678 128.198 172.159C127.686 172.639 127.375 173.294 127.327 173.994C125.184 199.108 129.956 224.33 141.124 246.926C143.105 250.966 145.946 254.523 149.448 257.348C152.898 260.131 156.907 262.136 161.201 263.229C166.606 271.3 172.982 278.677 180.185 285.194L169.137 303.282C156.066 303.366 143.234 299.773 132.106 292.911C120.899 286 111.879 276.057 106.09 264.232Z" stroke="black" stroke-opacity="0.01"/>
<path d="M372.089 320.74C372.089 353.08 324.62 379.29 266.049 379.29C207.478 379.29 160.009 353.081 160.009 320.74C160.166 315.354 161.011 310.011 162.522 304.84C169.022 280.531 187.765 245.227 213.148 221.906C213.159 221.889 213.174 221.874 213.191 221.863C228.749 207.572 246.798 197.78 266.05 197.78C285.302 197.78 303.34 207.562 318.898 221.853C318.909 221.864 318.93 221.874 318.941 221.885C344.324 245.217 363.071 280.521 369.577 304.84C371.087 310.011 371.931 315.355 372.089 320.74V320.74Z" fill="white"/>
<path d="M369.097 304.98C370.594 310.108 371.432 315.407 371.589 320.747C371.585 336.649 359.907 351.15 340.791 361.705C321.69 372.251 295.266 378.79 266.049 378.79C236.831 378.79 210.408 372.252 191.306 361.705C172.19 351.15 160.512 336.649 160.509 320.747C160.666 315.407 161.503 310.108 163.002 304.98L163.002 304.98L163.005 304.969C169.483 280.742 188.18 245.524 213.486 222.274L213.526 222.237L213.533 222.227C229.041 207.984 246.973 198.28 266.05 198.28C285.127 198.28 303.048 207.974 318.556 222.218C318.567 222.228 318.577 222.237 318.586 222.244C318.597 222.253 318.608 222.261 318.615 222.267C318.618 222.269 318.621 222.271 318.624 222.273C343.919 245.534 362.612 280.739 369.094 304.969L369.094 304.969L369.097 304.98Z" stroke="black" stroke-opacity="0.01"/>
<path d="M312.24 287.936C299.781 266.536 287.614 256.263 287.24 255.845C279.116 248.383 271.195 243.928 266.049 243.928C259.435 243.928 249.344 251.406 244.902 255.874L244.161 256.619C244.061 256.732 232.234 266.649 219.803 288.024C217.505 291.992 216.189 296.452 215.965 301.031C215.74 305.611 216.613 310.178 218.511 314.352C220.41 318.525 223.278 322.185 226.877 325.026C230.476 327.866 234.702 329.805 239.203 330.681C256.949 333.961 275.145 333.961 292.89 330.681C297.397 329.8 301.628 327.853 305.229 325.003C308.83 322.153 311.697 318.483 313.591 314.299C315.485 310.116 316.35 305.54 316.115 300.953C315.88 296.367 314.551 291.903 312.239 287.935L312.24 287.936Z" fill="#DADADA"/>
<path d="M294.832 264.352C299.46 269.626 305.596 277.518 311.807 288.187L311.807 288.187C314.079 292.086 315.385 296.472 315.616 300.979C315.847 305.486 314.997 309.982 313.136 314.093C311.275 318.204 308.457 321.811 304.919 324.611C301.381 327.411 297.225 329.323 292.797 330.19C275.113 333.458 256.98 333.458 239.296 330.19C234.875 329.329 230.723 327.424 227.187 324.633C223.65 321.842 220.832 318.246 218.966 314.145C217.101 310.043 216.243 305.556 216.464 301.056C216.685 296.556 217.978 292.174 220.236 288.275C226.433 277.618 232.478 269.821 236.982 264.678C239.235 262.106 241.101 260.198 242.41 258.927C243.064 258.291 243.578 257.815 243.931 257.495C244.108 257.335 244.245 257.214 244.339 257.13L244.449 257.033L244.483 257.002L244.5 256.988L244.5 256.987C244.501 256.986 244.509 256.979 244.518 256.969L245.257 256.227L245.257 256.227C247.45 254.021 251.053 251.058 254.925 248.65C258.819 246.229 262.892 244.428 266.049 244.428C268.496 244.428 271.673 245.494 275.283 247.524C278.877 249.546 282.853 252.496 286.889 256.202C286.939 256.253 287.02 256.328 287.106 256.406L287.108 256.408C287.139 256.437 287.174 256.469 287.213 256.504C287.311 256.594 287.43 256.704 287.572 256.834C287.962 257.194 288.513 257.71 289.203 258.384C290.582 259.732 292.519 261.715 294.832 264.352Z" stroke="black" stroke-opacity="0.01"/>
</svg>
