<svg width="512" height="512" viewBox="0 0 512 512" fill="none" xmlns="http://www.w3.org/2000/svg">
<path d="M255.499 56.2402L66.4214 156.328V453.315C66.4214 464.189 70.741 474.618 78.43 482.307C86.119 489.996 96.5475 494.315 107.421 494.315H403.573C414.447 494.315 424.876 489.996 432.565 482.307C440.254 474.618 444.573 464.189 444.573 453.315V156.328L255.499 56.2402Z" fill="#78CBEC"/>
<path d="M94.5384 257.878C94.4198 214.436 101.592 171.283 115.755 130.214L66.4224 156.328V453.315C66.4224 464.189 70.742 474.618 78.431 482.307C86.12 489.996 96.5485 494.315 107.422 494.315H177.634C126.474 435.029 94.5384 351.033 94.5384 257.878Z" fill="#34B5E1"/>
<path d="M491.575 135.475L279 6.56918C271.914 2.27209 263.786 0 255.5 0C247.213 0 239.085 2.27209 232 6.56918L19.4245 135.474C13.575 139.022 9.37432 144.748 7.74619 151.393C6.11807 158.038 7.19585 165.058 10.7425 170.908L30.9895 204.296C34.5376 210.146 40.2638 214.346 46.9087 215.975C53.5536 217.603 60.5731 216.525 66.4235 212.978L255.5 98.3232L444.578 212.979C450.428 216.526 457.447 217.604 464.092 215.975C470.737 214.347 476.463 210.147 480.012 204.297L500.258 170.909C503.804 165.059 504.882 158.039 503.253 151.394C501.625 144.749 497.424 139.023 491.575 135.475Z" fill="#FF748F"/>
<path d="M352.678 207.82H158.322C141.596 207.82 128.036 223.38 128.036 242.575V411.742H382.964V242.575C382.964 223.38 369.404 207.82 352.678 207.82Z" fill="#C1E9FA"/>
<path d="M165.56 252.182C171.619 233.08 183.603 216.403 199.774 204.567C215.946 192.732 235.465 186.352 255.506 186.352C275.546 186.352 295.065 192.732 311.237 204.567C327.409 216.403 339.392 233.08 345.452 252.182L255.5 297.65L165.56 252.182Z" fill="#5C586F"/>
<path d="M221.461 192.675C208.29 197.789 196.432 205.788 186.758 216.086C177.085 226.384 169.842 238.718 165.561 252.182L186.161 262.597C189.278 235.437 202.177 211.058 221.461 192.675Z" fill="#4F4C5F"/>
<path d="M349.842 280.706C349.836 294.313 346.888 307.757 341.198 320.116C335.509 332.476 327.213 343.459 316.881 352.311C306.548 361.164 294.423 367.677 281.337 371.403C268.251 375.13 254.514 375.981 241.068 373.9C227.622 371.819 214.785 366.854 203.438 359.346C192.091 351.837 182.502 341.963 175.329 330.401C168.157 318.839 163.57 305.862 161.883 292.361C160.197 278.86 161.451 265.154 165.559 252.182C176.325 253.802 228.914 260.029 255.499 231.882C282.099 260.041 334.718 253.791 345.451 252.182C348.37 261.409 349.851 271.029 349.842 280.706Z" fill="#FED2A4"/>
<path d="M204.46 308.076H204.455C203.471 308.075 202.495 307.881 201.586 307.503C200.676 307.126 199.85 306.573 199.154 305.876C198.458 305.179 197.906 304.352 197.529 303.442C197.153 302.531 196.96 301.556 196.96 300.571L196.967 290.991C196.969 289.003 197.76 287.096 199.166 285.691C200.572 284.286 202.479 283.496 204.467 283.496H204.472C205.457 283.497 206.433 283.691 207.342 284.069C208.252 284.446 209.078 284.999 209.774 285.696C210.47 286.393 211.022 287.22 211.398 288.131C211.775 289.041 211.968 290.016 211.967 291.001L211.96 300.581C211.959 302.569 211.168 304.476 209.762 305.881C208.356 307.287 206.449 308.076 204.46 308.076Z" fill="#423E4F"/>
<path d="M306.584 308.176H306.579C305.595 308.176 304.619 307.981 303.71 307.603C302.8 307.226 301.974 306.673 301.278 305.976C300.582 305.279 300.03 304.452 299.653 303.542C299.277 302.631 299.084 301.656 299.084 300.671L299.091 291.091C299.093 289.103 299.884 287.197 301.29 285.791C302.696 284.386 304.603 283.596 306.591 283.596H306.596C307.581 283.597 308.557 283.791 309.466 284.169C310.376 284.547 311.202 285.1 311.898 285.796C312.594 286.493 313.146 287.32 313.522 288.231C313.899 289.141 314.092 290.116 314.091 291.101L314.084 300.681C314.083 302.669 313.292 304.576 311.886 305.981C310.48 307.387 308.573 308.176 306.584 308.176Z" fill="#423E4F"/>
<path d="M268.979 312.391H268.972L242.048 312.368C241.063 312.368 240.088 312.173 239.178 311.796C238.269 311.419 237.442 310.866 236.746 310.169C236.05 309.472 235.498 308.645 235.121 307.735C234.745 306.825 234.551 305.85 234.552 304.865C234.552 303.88 234.747 302.905 235.124 301.995C235.501 301.085 236.054 300.258 236.751 299.562C237.448 298.866 238.275 298.314 239.185 297.938C240.095 297.561 241.07 297.368 242.055 297.368H242.062L268.986 297.391C270.975 297.392 272.883 298.183 274.289 299.59C275.694 300.998 276.484 302.906 276.483 304.895C276.482 306.884 275.691 308.791 274.284 310.197C272.876 311.603 270.968 312.392 268.979 312.391Z" fill="#423E4F"/>
<path d="M239.411 361.643C239.411 355.311 241.926 349.238 246.404 344.76C250.881 340.283 256.954 337.767 263.287 337.767H308.872C315.204 337.767 321.277 340.283 325.755 344.76C330.232 349.238 332.748 355.311 332.748 361.643C332.748 367.975 330.232 374.048 325.755 378.526C321.277 383.004 315.204 385.519 308.872 385.519H247.712L239.411 361.643Z" fill="#FFBD86"/>
<path d="M185.421 275.414C185.42 268.189 186.119 260.981 187.509 253.89C180.163 253.805 172.83 253.234 165.56 252.182C161.422 265.253 160.181 279.068 161.923 292.667C163.666 306.266 168.35 319.322 175.649 330.927C182.949 342.532 192.689 352.407 204.193 359.867C215.696 367.326 228.686 372.189 242.26 374.119C208.059 353.196 185.421 316.808 185.421 275.414Z" fill="#FFBD86"/>
<path d="M247.712 337.767H202.127C195.795 337.767 189.722 340.283 185.245 344.76C180.767 349.238 178.251 355.311 178.251 361.643C178.251 367.975 180.767 374.048 185.245 378.526C189.722 383.004 195.795 385.519 202.127 385.519H247.712C254.045 385.519 260.118 383.004 264.595 378.526C269.073 374.048 271.588 367.975 271.588 361.643C271.588 355.311 269.073 349.238 264.595 344.76C260.118 340.283 254.045 337.767 247.712 337.767Z" fill="#FFAD6D"/>
<path d="M382.964 385.518H128.036C122.854 385.519 117.884 387.578 114.221 391.243C110.557 394.907 108.499 399.877 108.5 405.059V418.429C108.5 423.611 110.558 428.581 114.222 432.245C117.887 435.909 122.856 437.968 128.039 437.968H382.964C388.145 437.967 393.115 435.908 396.778 432.243C400.442 428.579 402.5 423.609 402.5 418.427V405.059C402.5 399.877 400.442 394.907 396.778 391.243C393.115 387.578 388.145 385.519 382.964 385.518Z" fill="#FF748F"/>
<path d="M152.671 54.6743L19.4235 135.474C13.5741 139.022 9.37334 144.749 7.74522 151.394C6.11709 158.038 7.19487 165.058 10.7415 170.908L30.9885 204.297C34.5367 210.147 40.2628 214.348 46.9078 215.976C53.5527 217.604 60.5722 216.526 66.4225 212.979L99.8675 192.698C108.405 141.223 126.868 94.1813 152.668 54.6743H152.671Z" fill="#FD5F7E"/>
<path d="M145.283 385.519H128.036C122.854 385.519 117.884 387.579 114.221 391.243C110.557 394.908 108.499 399.878 108.5 405.06V418.43C108.5 423.612 110.558 428.581 114.222 432.246C117.887 435.91 122.856 437.969 128.039 437.969H175.639C158.591 425.299 147.185 406.632 145.283 385.519Z" fill="#FD5F7E"/>
</svg>
