<svg width="512" height="512" viewBox="0 0 512 512" fill="none" xmlns="http://www.w3.org/2000/svg">
<path d="M0.5 0.5H511.5V511.5H0.5V0.5Z" stroke="black" stroke-opacity="0.01"/>
<path d="M255.499 56.2402L66.4214 156.328V453.315C66.4214 464.189 70.741 474.618 78.43 482.307C86.119 489.996 96.5475 494.315 107.421 494.315H403.573C414.447 494.315 424.876 489.996 432.565 482.307C440.254 474.618 444.573 464.189 444.573 453.315V156.328L255.499 56.2402Z" fill="#78CBEC"/>
<path d="M66.9214 453.315V156.629L255.499 56.806L444.073 156.629V453.315C444.073 464.057 439.806 474.358 432.211 481.953C424.616 489.548 414.315 493.815 403.573 493.815H107.421C96.6801 493.815 86.3788 489.548 78.7836 481.953C71.1883 474.358 66.9214 464.057 66.9214 453.315Z" stroke="black" stroke-opacity="0.01"/>
<path d="M94.5384 257.878C94.4198 214.436 101.592 171.283 115.755 130.214L66.4224 156.328V453.315C66.4224 464.189 70.742 474.618 78.431 482.307C86.12 489.996 96.5485 494.315 107.422 494.315H177.634C126.474 435.029 94.5384 351.033 94.5384 257.878Z" fill="#34B5E1"/>
<path d="M176.545 493.815H107.422C96.6811 493.815 86.3798 489.548 78.7845 481.953C71.1893 474.358 66.9224 464.057 66.9224 453.315V156.629L114.872 131.248C100.962 172.01 93.9209 214.803 94.0384 257.879C94.0384 257.879 94.0384 257.879 94.0384 257.88L94.5384 257.878C94.5384 350.772 126.295 434.558 177.204 493.815H176.545Z" stroke="black" stroke-opacity="0.01"/>
<path d="M491.575 135.475L279 6.56918C271.914 2.27209 263.786 0 255.5 0C247.213 0 239.085 2.27209 232 6.56918L19.4245 135.474C13.575 139.022 9.37432 144.748 7.74619 151.393C6.11807 158.038 7.19585 165.058 10.7425 170.908L30.9895 204.296C34.5376 210.146 40.2638 214.346 46.9087 215.975C53.5536 217.603 60.5731 216.525 66.4235 212.978L255.5 98.3232L444.578 212.979C450.428 216.526 457.447 217.604 464.092 215.975C470.737 214.347 476.463 210.147 480.012 204.297L500.258 170.909C503.804 165.059 504.882 158.039 503.253 151.394C501.625 144.749 497.424 139.023 491.575 135.475V135.475Z" fill="#FF748F"/>
<path d="M278.74 6.9967L279 6.56918L278.74 6.99671L491.315 135.903C497.052 139.382 501.171 144.997 502.768 151.513C504.365 158.029 503.308 164.913 499.83 170.65L479.584 204.038C476.105 209.774 470.489 213.893 463.973 215.49C457.457 217.086 450.574 216.03 444.837 212.552L255.759 97.8956L255.5 97.7384L255.24 97.8956L66.1643 212.551C60.4273 216.029 53.5438 217.085 47.0277 215.489C40.5116 213.892 34.8964 209.773 31.417 204.037L11.1701 170.649C7.69215 164.912 6.63525 158.029 8.23183 151.512C9.8284 144.996 13.9477 139.381 19.6838 135.902L232.259 6.99671C239.266 2.74703 247.304 0.5 255.5 0.5C263.695 0.5 271.733 2.74703 278.74 6.9967Z" stroke="black" stroke-opacity="0.01"/>
<path d="M352.678 207.82H158.322C141.596 207.82 128.036 223.38 128.036 242.575V411.742H382.964V242.575C382.964 223.38 369.404 207.82 352.678 207.82Z" fill="#C1E9FA"/>
<path d="M158.322 208.32H352.678C369.065 208.32 382.464 223.59 382.464 242.575V411.242H128.536V242.575C128.536 223.59 141.934 208.32 158.322 208.32Z" stroke="black" stroke-opacity="0.01"/>
<path d="M165.56 252.182C171.619 233.08 183.603 216.403 199.774 204.567C215.946 192.732 235.465 186.352 255.506 186.352C275.546 186.352 295.065 192.732 311.237 204.567C327.409 216.403 339.392 233.08 345.452 252.182L255.5 297.65L165.56 252.182Z" fill="#5C586F"/>
<path d="M255.5 297.09L166.166 251.928C172.233 233.097 184.098 216.66 200.069 204.971C216.155 193.198 235.572 186.852 255.506 186.852C275.439 186.852 294.856 193.198 310.942 204.971C326.913 216.66 338.778 233.097 344.845 251.928L255.5 297.09Z" stroke="black" stroke-opacity="0.01"/>
<path d="M221.461 192.675C208.29 197.789 196.432 205.788 186.758 216.086C177.085 226.384 169.842 238.718 165.561 252.182L186.161 262.597C189.278 235.437 202.177 211.058 221.461 192.675Z" fill="#4F4C5F"/>
<path d="M187.123 216.428C196.166 206.802 207.127 199.195 219.289 194.091C201.104 212.167 188.916 235.696 185.748 261.828L166.167 251.929C170.441 238.693 177.598 226.568 187.123 216.428Z" stroke="black" stroke-opacity="0.01"/>
<path d="M349.842 280.706C349.836 294.313 346.888 307.757 341.198 320.116C335.509 332.476 327.213 343.459 316.881 352.311C306.548 361.164 294.423 367.677 281.337 371.403C268.251 375.13 254.514 375.981 241.068 373.9C227.622 371.819 214.785 366.854 203.438 359.346C192.091 351.837 182.502 341.963 175.329 330.401C168.157 318.839 163.57 305.862 161.883 292.361C160.197 278.86 161.451 265.154 165.559 252.182C176.325 253.802 228.914 260.029 255.499 231.882C282.099 260.041 334.718 253.791 345.451 252.182C348.37 261.409 349.851 271.029 349.842 280.706V280.706Z" fill="#FED2A4"/>
<path d="M345.451 252.182C348.37 261.409 349.851 271.029 349.842 280.706M345.451 252.182C334.764 253.784 282.552 259.988 255.844 232.245C255.73 232.366 255.614 232.487 255.499 232.607M345.451 252.182L344.974 252.333C345.017 252.468 345.059 252.604 345.102 252.739M345.451 252.182L345.525 252.677C345.39 252.697 345.249 252.718 345.102 252.739M349.842 280.706C349.836 294.313 346.888 307.757 341.198 320.116C335.509 332.476 327.213 343.459 316.881 352.311C306.548 361.164 294.423 367.677 281.337 371.403C268.251 375.13 254.514 375.981 241.068 373.9C227.622 371.819 214.785 366.854 203.438 359.346C192.091 351.837 182.502 341.963 175.329 330.401C168.157 318.839 163.57 305.862 161.883 292.361C160.197 278.86 161.451 265.154 165.559 252.182M349.842 280.706L349.342 280.706C349.351 271.222 347.921 261.793 345.102 252.739M349.842 280.706L349.342 280.706C349.336 294.24 346.403 307.613 340.744 319.907C335.085 332.201 326.833 343.126 316.556 351.932C306.278 360.737 294.217 367.216 281.2 370.922C268.184 374.629 254.519 375.476 241.144 373.406C227.769 371.336 215.001 366.397 203.714 358.929C192.427 351.46 182.889 341.639 175.754 330.138C168.62 318.637 164.057 305.729 162.379 292.299C160.719 279.01 161.923 265.522 165.908 252.74M255.499 232.607C255.383 232.487 255.268 232.366 255.153 232.245C228.461 259.976 176.278 253.795 165.559 252.182M255.499 232.607C242.088 246.528 222.346 251.945 204.646 253.693C187.217 255.413 171.68 253.585 165.908 252.74M255.499 232.607C268.917 246.534 288.67 251.948 306.376 253.693C323.809 255.411 339.344 253.58 345.102 252.739M165.559 252.182L165.484 252.677C165.619 252.697 165.76 252.718 165.908 252.74M165.559 252.182L166.035 252.333C165.993 252.469 165.95 252.604 165.908 252.74" stroke="black" stroke-opacity="0.01"/>
<path d="M204.46 308.076H204.455C203.471 308.075 202.495 307.881 201.586 307.503C200.676 307.126 199.85 306.573 199.154 305.876C198.458 305.179 197.906 304.352 197.529 303.442C197.153 302.531 196.96 301.556 196.96 300.571L196.967 290.991C196.969 289.003 197.76 287.096 199.166 285.691C200.572 284.286 202.479 283.496 204.467 283.496H204.472C205.457 283.497 206.433 283.691 207.342 284.069C208.252 284.446 209.078 284.999 209.774 285.696C210.47 286.393 211.022 287.22 211.398 288.131C211.775 289.041 211.968 290.016 211.967 291.001L211.96 300.581C211.959 302.569 211.168 304.476 209.762 305.881C208.356 307.287 206.449 308.076 204.46 308.076V308.076Z" fill="#423E4F"/>
<path d="M197.467 290.991V290.991L197.46 300.571C197.46 300.571 197.46 300.571 197.46 300.571C197.46 301.491 197.64 302.401 197.992 303.251C198.343 304.1 198.858 304.872 199.507 305.523C200.157 306.173 200.928 306.689 201.777 307.041C202.626 307.394 203.537 307.575 204.456 307.576H204.46C206.316 307.576 208.096 306.839 209.409 305.527C210.721 304.216 211.459 302.436 211.46 300.581V300.581L211.467 291.001C211.467 291.001 211.467 291.001 211.467 291.001C211.468 290.081 211.288 289.171 210.936 288.322C210.585 287.472 210.07 286.7 209.421 286.05C208.771 285.399 208 284.883 207.151 284.531C206.302 284.178 205.392 283.997 204.472 283.996L197.467 290.991ZM197.467 290.991C197.469 289.136 198.207 287.356 199.519 286.045M197.467 290.991L199.519 286.045M199.519 286.045C200.832 284.733 202.612 283.996 204.467 283.996M199.519 286.045L204.467 283.996M204.467 283.996H204.472H204.467Z" stroke="black" stroke-opacity="0.01"/>
<path d="M306.584 308.176H306.579C305.595 308.176 304.619 307.981 303.71 307.603C302.8 307.226 301.974 306.673 301.278 305.976C300.582 305.279 300.03 304.452 299.653 303.542C299.277 302.631 299.084 301.656 299.084 300.671L299.091 291.091C299.093 289.103 299.884 287.197 301.29 285.791C302.696 284.386 304.603 283.596 306.591 283.596H306.596C307.581 283.597 308.557 283.791 309.466 284.169C310.376 284.547 311.202 285.1 311.898 285.796C312.594 286.493 313.146 287.32 313.522 288.231C313.899 289.141 314.092 290.116 314.091 291.101L314.084 300.681C314.083 302.669 313.292 304.576 311.886 305.981C310.48 307.387 308.573 308.176 306.584 308.176V308.176Z" fill="#423E4F"/>
<path d="M299.591 291.092V291.092L299.584 300.672C299.584 300.672 299.584 300.672 299.584 300.672C299.584 301.591 299.764 302.501 300.116 303.351C300.467 304.2 300.982 304.972 301.631 305.623C302.281 306.273 303.052 306.789 303.901 307.142C304.75 307.494 305.661 307.676 306.58 307.676H306.584C308.44 307.676 310.22 306.939 311.533 305.628C312.845 304.316 313.583 302.537 313.584 300.681V300.681L313.591 291.101C313.591 291.101 313.591 291.101 313.591 291.101C313.592 290.182 313.412 289.271 313.06 288.422C312.709 287.572 312.194 286.8 311.545 286.15C310.895 285.499 310.124 284.983 309.275 284.631C308.426 284.279 307.516 284.097 306.596 284.096L299.591 291.092ZM299.591 291.092C299.593 289.236 300.331 287.457 301.643 286.145M299.591 291.092L301.643 286.145M301.643 286.145C302.956 284.833 304.736 284.096 306.591 284.096M301.643 286.145L306.591 284.096M306.591 284.096H306.596H306.591Z" stroke="black" stroke-opacity="0.01"/>
<path d="M268.979 312.391H268.972L242.048 312.368C241.063 312.368 240.088 312.173 239.178 311.796C238.269 311.419 237.442 310.866 236.746 310.169C236.05 309.472 235.498 308.645 235.121 307.735C234.745 306.825 234.551 305.85 234.552 304.865C234.552 303.88 234.747 302.905 235.124 301.995C235.501 301.085 236.054 300.258 236.751 299.562C237.448 298.866 238.275 298.314 239.185 297.938C240.095 297.561 241.07 297.368 242.055 297.368H242.062L268.986 297.391C270.975 297.392 272.883 298.183 274.289 299.59C275.694 300.998 276.484 302.906 276.483 304.895C276.482 306.884 275.691 308.791 274.284 310.197C272.876 311.603 270.968 312.392 268.979 312.391Z" fill="#423E4F"/>
<path d="M268.979 311.891H268.979H268.973H268.972L242.049 311.868H242.048C241.129 311.868 240.219 311.686 239.37 311.334C238.521 310.982 237.749 310.466 237.1 309.816C236.45 309.165 235.935 308.393 235.583 307.544C235.232 306.694 235.051 305.784 235.052 304.865C235.052 303.946 235.234 303.035 235.586 302.186C235.938 301.337 236.454 300.566 237.104 299.916C237.755 299.266 238.527 298.751 239.376 298.4C240.225 298.048 241.136 297.868 242.055 297.868H242.055H242.062H242.062L268.986 297.891L268.986 297.891C270.843 297.892 272.623 298.63 273.935 299.944C275.247 301.257 275.984 303.038 275.983 304.894C275.982 306.751 275.244 308.531 273.93 309.843C272.617 311.155 270.836 311.892 268.979 311.891Z" stroke="black" stroke-opacity="0.01"/>
<path d="M239.411 361.643C239.411 355.311 241.926 349.238 246.404 344.76C250.881 340.283 256.954 337.767 263.287 337.767H308.872C315.204 337.767 321.277 340.283 325.755 344.76C330.232 349.238 332.748 355.311 332.748 361.643C332.748 367.975 330.232 374.048 325.755 378.526C321.277 383.004 315.204 385.519 308.872 385.519H247.712L239.411 361.643Z" fill="#FFBD86"/>
<path d="M248.067 385.019L239.911 361.559C239.933 355.39 242.393 349.478 246.757 345.114C251.141 340.73 257.087 338.267 263.287 338.267H308.872C315.071 338.267 321.017 340.73 325.401 345.114C329.785 349.498 332.248 355.443 332.248 361.643C332.248 367.843 329.785 373.789 325.401 378.172C321.017 382.556 315.071 385.019 308.872 385.019H248.067Z" stroke="black" stroke-opacity="0.01"/>
<path d="M185.421 275.414C185.42 268.189 186.119 260.981 187.509 253.89C180.163 253.805 172.83 253.234 165.56 252.182C161.422 265.253 160.181 279.068 161.923 292.667C163.666 306.266 168.35 319.322 175.649 330.927C182.949 342.532 192.689 352.407 204.193 359.867C215.696 367.326 228.686 372.189 242.26 374.119C208.059 353.196 185.421 316.808 185.421 275.414Z" fill="#FFBD86"/>
<path d="M239.928 373.251C227.297 371.12 215.227 366.425 204.465 359.447C193.022 352.027 183.334 342.204 176.073 330.661C168.811 319.117 164.152 306.13 162.419 292.603C160.704 279.217 161.895 265.619 165.909 252.737C172.866 253.726 179.879 254.275 186.904 254.382C185.584 261.314 184.92 268.356 184.921 275.414L239.928 373.251ZM239.928 373.251C206.752 352.058 184.921 316.156 184.921 275.414L239.928 373.251Z" stroke="black" stroke-opacity="0.01"/>
<path d="M247.712 337.767H202.127C195.795 337.767 189.722 340.283 185.245 344.76C180.767 349.238 178.251 355.311 178.251 361.643C178.251 367.975 180.767 374.048 185.245 378.526C189.722 383.004 195.795 385.519 202.127 385.519H247.712C254.045 385.519 260.118 383.004 264.595 378.526C269.073 374.048 271.588 367.975 271.588 361.643C271.588 355.311 269.073 349.238 264.595 344.76C260.118 340.283 254.045 337.767 247.712 337.767V337.767Z" fill="#FFAD6D"/>
<path d="M202.127 338.267H247.712C253.912 338.267 259.858 340.73 264.242 345.114C268.626 349.498 271.088 355.443 271.088 361.643C271.088 367.843 268.626 373.789 264.242 378.172C259.858 382.556 253.912 385.019 247.712 385.019H202.127C195.928 385.019 189.982 382.556 185.598 378.172C181.214 373.789 178.751 367.843 178.751 361.643C178.751 355.443 181.214 349.498 185.598 345.114C189.982 340.73 195.928 338.267 202.127 338.267Z" stroke="black" stroke-opacity="0.01"/>
<path d="M382.964 385.518H128.036C122.854 385.519 117.884 387.578 114.221 391.243C110.557 394.907 108.499 399.877 108.5 405.059V418.429C108.5 423.611 110.558 428.581 114.222 432.245C117.887 435.909 122.856 437.968 128.039 437.968H382.964C388.145 437.967 393.115 435.908 396.778 432.243C400.442 428.579 402.5 423.609 402.5 418.427V405.059C402.5 399.877 400.442 394.907 396.778 391.243C393.115 387.578 388.145 385.519 382.964 385.518V385.518Z" fill="#FF748F"/>
<path d="M109 405.059V405.059C108.999 400.01 111.004 395.167 114.574 391.596C118.144 388.025 122.986 386.019 128.036 386.018C128.036 386.018 128.036 386.018 128.036 386.018H382.964C388.013 386.019 392.855 388.025 396.425 391.596C399.995 395.167 402 400.01 402 405.059V418.427C402 423.476 399.995 428.319 396.425 431.89C392.855 435.461 388.013 437.467 382.964 437.468H128.039C122.989 437.468 118.146 435.462 114.576 431.892C111.005 428.321 109 423.479 109 418.429V405.059Z" stroke="black" stroke-opacity="0.01"/>
<path d="M152.671 54.6743L19.4235 135.474C13.5741 139.022 9.37335 144.749 7.74522 151.394C6.11709 158.038 7.19487 165.058 10.7415 170.908L30.9885 204.297C34.5367 210.147 40.2628 214.348 46.9078 215.976C53.5527 217.604 60.5722 216.526 66.4225 212.979L99.8675 192.698C108.405 141.223 126.868 94.1813 152.668 54.6743H152.671Z" fill="#FD5F7E"/>
<path d="M19.6828 135.902L151.059 56.2362C125.879 95.3633 107.844 141.732 99.4119 192.39L66.1633 212.552C60.4263 216.03 53.5429 217.087 47.0267 215.49C40.5106 213.893 34.8954 209.774 31.4161 204.038L11.1691 170.649C11.1691 170.649 11.1691 170.649 11.1691 170.649C7.69116 164.912 6.63428 158.029 8.23085 151.513C9.82743 144.996 13.9467 139.381 19.6828 135.902Z" stroke="black" stroke-opacity="0.01"/>
<path d="M145.283 385.519H128.036C122.854 385.519 117.884 387.579 114.221 391.243C110.557 394.908 108.499 399.878 108.5 405.06V418.43C108.5 423.612 110.558 428.581 114.222 432.246C117.887 435.91 122.856 437.969 128.039 437.969H175.639C158.591 425.299 147.185 406.632 145.283 385.519Z" fill="#FD5F7E"/>
<path d="M174.15 437.469H128.039C122.989 437.469 118.146 435.463 114.576 431.892C111.005 428.322 109 423.479 109 418.43V405.06V405.059C108.999 400.01 111.004 395.168 114.574 391.597C118.144 388.026 122.986 386.019 128.036 386.019C128.036 386.019 128.036 386.019 128.036 386.019H144.827C146.817 406.606 157.78 424.839 174.15 437.469Z" stroke="black" stroke-opacity="0.01"/>
</svg>
