<svg width="512" height="512" viewBox="0 0 512 512" fill="none" xmlns="http://www.w3.org/2000/svg">
<path d="M0.5 0.5H511.5V511.5H0.5V0.5Z" stroke="black" stroke-opacity="0.01"/>
<path d="M386.16 284.816L362.618 312.054L386.161 339.947H406.401C410.021 339.947 413.605 339.234 416.95 337.849C420.294 336.463 423.333 334.433 425.893 331.873C428.453 329.313 430.483 326.274 431.868 322.93C433.254 319.586 433.967 316.001 433.967 312.381C433.967 308.761 433.254 305.176 431.868 301.832C430.483 298.487 428.453 295.449 425.893 292.889C423.333 290.329 420.294 288.299 416.95 286.913C413.605 285.528 410.021 284.815 406.401 284.815H386.161L386.16 284.816Z" fill="#FFDCCE"/>
<path d="M386.393 339.447L363.275 312.058L386.389 285.315H406.401C409.955 285.315 413.475 286.015 416.758 287.375C420.042 288.735 423.026 290.729 425.539 293.242C428.053 295.756 430.046 298.739 431.406 302.023C432.767 305.307 433.467 308.827 433.467 312.381C433.467 315.935 432.767 319.455 431.406 322.739C430.046 326.022 428.053 329.006 425.539 331.519C423.026 334.033 420.042 336.026 416.758 337.387C413.475 338.747 409.955 339.447 406.401 339.447H386.393Z" stroke="black" stroke-opacity="0.01"/>
<path d="M297.125 366.272L256.218 383.679L220.346 366.272L178.924 383.679C183.606 396.101 191.21 407.214 201.093 416.079V442.335L228.656 473.67L256.218 442.331L283.781 473.666L311.344 442.331V416.075C312.456 415.075 313.538 414.061 314.59 413.01C322.912 404.69 329.365 394.69 333.518 383.679L297.125 366.272Z" fill="#78CBEC"/>
<path d="M283.781 472.909L256.593 442.001L256.218 441.574L255.842 442.001L228.656 472.913L201.593 442.146V416.079V415.856L201.427 415.707C191.723 407.003 184.23 396.118 179.563 383.953L220.331 366.821L255.999 384.129L256.204 384.228L256.413 384.139L297.113 366.82L332.887 383.931C328.754 394.707 322.4 404.495 314.236 412.656C313.192 413.7 312.116 414.708 311.009 415.703L310.844 415.852V416.075V442.142L283.781 472.909Z" stroke="black" stroke-opacity="0.01"/>
<path d="M204.237 373.044L178.924 383.681C183.607 396.103 191.21 407.216 201.092 416.081V442.337L228.655 473.671L229.619 472.571C214.534 444.295 205.296 410.071 204.237 373.044Z" fill="#34B5E1"/>
<path d="M201.592 416.081V415.858L201.426 415.709C191.723 407.005 184.23 396.12 179.563 383.955L203.759 373.787C204.915 410.475 214.087 444.398 229.015 472.501L228.654 472.913L201.592 442.148V416.081Z" stroke="black" stroke-opacity="0.01"/>
<path d="M311.344 442.331V477.431C311.344 484.741 308.44 491.752 303.271 496.921C298.102 502.09 291.091 504.994 283.781 504.994C276.471 504.994 269.46 502.09 264.291 496.921C259.122 491.752 256.218 484.741 256.218 477.431V442.331H311.344Z" fill="#FFCABD"/>
<path d="M310.844 442.831V477.431C310.844 484.609 307.992 491.492 302.917 496.567C297.842 501.643 290.958 504.494 283.781 504.494C276.603 504.494 269.72 501.643 264.644 496.567C259.569 491.492 256.718 484.609 256.718 477.431V442.831H310.844Z" stroke="black" stroke-opacity="0.01"/>
<path d="M256.218 442.331V477.431C256.218 481.051 255.505 484.635 254.12 487.979C252.735 491.323 250.704 494.362 248.145 496.921C245.585 499.481 242.547 501.511 239.203 502.896C235.859 504.281 232.274 504.994 228.655 504.994C225.035 504.994 221.451 504.281 218.107 502.896C214.763 501.511 211.724 499.481 209.165 496.921C206.605 494.362 204.575 491.323 203.19 487.979C201.805 484.635 201.092 481.051 201.092 477.431V442.331H256.218Z" fill="#FFDCCE"/>
<path d="M255.718 442.831V477.431C255.718 480.985 255.018 484.504 253.658 487.788C252.298 491.071 250.304 494.054 247.791 496.567C245.278 499.081 242.295 501.074 239.011 502.434C235.728 503.794 232.209 504.494 228.655 504.494C225.101 504.494 221.582 503.794 218.298 502.434C215.015 501.074 212.031 499.081 209.518 496.567C207.005 494.054 205.012 491.071 203.652 487.788C202.292 484.504 201.592 480.985 201.592 477.431V442.831H255.718Z" stroke="black" stroke-opacity="0.01"/>
<path d="M216.538 442.332H201.092V477.432C201.09 482.682 202.587 487.823 205.408 492.251C208.229 496.678 212.257 500.207 217.016 502.423C221.775 504.639 227.068 505.45 232.273 504.759C237.477 504.068 242.375 501.905 246.392 498.524C233.407 481.57 223.319 462.582 216.538 442.332Z" fill="#FFCABD"/>
<path d="M201.592 477.432V477.432V442.832H216.178C222.925 462.855 232.898 481.64 245.702 498.445C241.829 501.591 237.159 503.606 232.207 504.263C227.097 504.941 221.9 504.146 217.227 501.97C212.554 499.794 208.6 496.329 205.83 491.982C203.06 487.635 201.59 482.587 201.592 477.432Z" stroke="black" stroke-opacity="0.01"/>
<path d="M386.16 284.816H338.771V240.429H173.663V284.816H126.274V339.947H173.663V354.628C173.653 364.549 175.434 374.391 178.922 383.679H333.512C336.999 374.391 338.781 364.549 338.771 354.628V339.947H386.16V284.816Z" fill="#FF748F"/>
<path d="M338.271 284.816V285.316H338.771H385.66V339.447H338.771H338.271V339.947V354.628V354.629C338.281 364.374 336.551 374.043 333.165 383.179H179.269C175.882 374.043 174.153 364.374 174.163 354.629V354.628V339.947V339.447H173.663H126.774V285.316H173.663H174.163V284.816V240.929H338.271V284.816Z" stroke="black" stroke-opacity="0.01"/>
<path d="M126.275 284.816L149.818 312.054L126.275 339.947H106.035C102.415 339.947 98.8302 339.234 95.4857 337.849C92.1412 336.463 89.1024 334.433 86.5426 331.873C83.9829 329.313 81.9524 326.274 80.5671 322.93C79.1818 319.586 78.4687 316.001 78.4688 312.381C78.4687 308.761 79.1818 305.176 80.5671 301.832C81.9524 298.487 83.9829 295.449 86.5426 292.889C89.1024 290.329 92.1412 288.299 95.4857 286.913C98.8302 285.528 102.415 284.815 106.035 284.815H126.275V284.816Z" fill="#FFDCCE"/>
<path d="M106.035 285.315H126.045L149.16 312.058L126.042 339.447H106.035C102.48 339.447 98.9608 338.747 95.677 337.387C92.3932 336.026 89.4095 334.033 86.8962 331.519C84.3829 329.006 82.3892 326.022 81.029 322.739C79.6688 319.455 78.9688 315.935 78.9688 312.381C78.9688 308.827 79.6688 305.307 81.029 302.023C82.3892 298.739 84.3829 295.756 86.8962 293.242C89.4095 290.729 92.3932 288.735 95.677 287.375C98.9608 286.015 102.48 285.315 106.035 285.315Z" stroke="black" stroke-opacity="0.01"/>
<path d="M256.217 351.304C277.627 351.304 294.984 333.947 294.984 312.537C294.984 291.127 277.627 273.77 256.217 273.77C234.806 273.77 217.45 291.127 217.45 312.537C217.45 333.947 234.806 351.304 256.217 351.304Z" fill="#FFCABD"/>
<path d="M294.484 312.537C294.484 333.671 277.351 350.804 256.217 350.804C235.082 350.804 217.95 333.671 217.95 312.537C217.95 291.403 235.082 274.27 256.217 274.27C277.351 274.27 294.484 291.403 294.484 312.537Z" stroke="black" stroke-opacity="0.01"/>
<path d="M408.491 209.902C430.086 209.902 447.592 192.396 447.592 170.801C447.592 149.206 430.086 131.7 408.491 131.7C386.896 131.7 369.39 149.206 369.39 170.801C369.39 192.396 386.896 209.902 408.491 209.902Z" fill="#FFCABD"/>
<path d="M447.092 170.801C447.092 192.12 429.81 209.402 408.491 209.402C387.172 209.402 369.89 192.12 369.89 170.801C369.89 149.482 387.172 132.2 408.491 132.2C429.81 132.2 447.092 149.482 447.092 170.801Z" stroke="black" stroke-opacity="0.01"/>
<path d="M121.255 89.7C134.149 65.0583 153.543 44.417 177.334 30.0143C201.126 15.6117 228.406 7.99756 256.217 7.99756C284.028 7.99756 311.309 15.6117 335.1 30.0143C358.892 44.417 378.286 65.0583 391.18 89.7L369.39 122.484H143.045L121.255 89.7Z" fill="#FF9E8E"/>
<path d="M143.313 121.984L121.835 89.67C134.687 65.2248 153.964 44.7464 177.593 30.4421C201.306 16.0867 228.497 8.49756 256.217 8.49756C283.937 8.49756 311.128 16.0867 334.841 30.4421C358.47 44.7464 377.748 65.2248 390.599 89.67L369.122 121.984H143.313Z" stroke="black" stroke-opacity="0.01"/>
<path d="M225.225 11.1651C203.167 15.7569 182.402 25.1819 164.424 38.7618C146.446 52.3417 131.703 69.7385 121.255 89.7001L143.045 122.484H148.99C158.679 76.3161 186.673 36.6841 225.225 11.1631V11.1651Z" fill="#FB8978"/>
<path d="M164.725 39.1608C181.949 26.1508 201.739 16.9667 222.773 12.2092C185.349 37.7634 158.193 76.7244 148.584 121.984H143.313L121.835 89.67C132.24 69.8837 146.885 52.6367 164.725 39.1608Z" stroke="black" stroke-opacity="0.01"/>
<path d="M213.33 240.434H173.664V284.816H126.274V339.947H173.663V354.631C173.652 364.552 175.434 374.393 178.922 383.681H204.765C204.345 377.826 204.13 371.896 204.122 365.892C204.122 308.36 205.271 268.203 213.329 240.434H213.33Z" fill="#FD5F7E"/>
<path d="M174.164 240.934H212.665C204.749 268.76 203.622 308.819 203.622 365.892V365.893C203.63 371.725 203.832 377.488 204.228 383.181H179.269C175.882 374.045 174.153 364.377 174.163 354.632V354.631V339.947V339.447H173.663H126.774V285.316H173.664H174.164V284.816V240.934Z" stroke="black" stroke-opacity="0.01"/>
<path d="M408.491 160.273C408.491 244.025 340.67 312.536 256.218 312.536C230.029 312.529 204.285 305.77 181.471 292.912C158.656 280.053 139.543 261.53 125.976 239.129C112.409 216.729 104.847 191.209 104.02 165.034C103.193 138.858 109.129 112.912 121.255 89.6998L122.975 90.9598C128.498 95.0014 135.165 97.1799 142.01 97.1799C148.854 97.1799 155.521 95.0014 161.045 90.9598C166.568 86.9183 173.235 84.7397 180.08 84.7397C186.924 84.7397 193.591 86.9183 199.115 90.9598C204.638 95.0014 211.305 97.1799 218.15 97.1799C224.994 97.1799 231.661 95.0014 237.185 90.9598C242.707 86.9184 249.372 84.7398 256.215 84.7398C263.058 84.7398 269.723 86.9184 275.245 90.9598C280.768 95.0014 287.435 97.1799 294.28 97.1799C301.124 97.1799 307.791 95.0014 313.315 90.9598C318.838 86.9183 325.505 84.7397 332.35 84.7397C339.194 84.7397 345.861 86.9183 351.385 90.9598C356.909 94.9998 363.576 97.1774 370.42 97.1774C377.264 97.1774 383.931 94.9998 389.456 90.9598L391.176 89.6998C402.584 111.472 408.526 135.691 408.491 160.271V160.273Z" fill="#FFDCCE"/>
<path d="M104.52 165.018C103.701 139.122 109.524 113.452 121.429 90.4476L122.679 91.3632L122.679 91.3633C128.289 95.4676 135.059 97.6799 142.01 97.6799C148.96 97.6799 155.731 95.4676 161.34 91.3633C166.778 87.3845 173.341 85.2397 180.08 85.2397C186.818 85.2397 193.381 87.3845 198.819 91.3633C204.429 95.4676 211.199 97.6799 218.15 97.6799C225.1 97.6799 231.871 95.4676 237.48 91.3633L237.185 90.9598L237.48 91.3633C242.916 87.3845 249.478 85.2398 256.215 85.2398C262.951 85.2398 269.513 87.3845 274.949 91.3633L275.245 90.9598L274.949 91.3633C280.559 95.4676 287.329 97.6799 294.28 97.6799C301.23 97.6799 308 95.4676 313.61 91.3633C319.048 87.3845 325.611 85.2397 332.35 85.2397C339.088 85.2397 345.651 87.3845 351.089 91.3633L351.09 91.3634C356.7 95.4661 363.47 97.6774 370.42 97.6774C377.371 97.6774 384.141 95.4661 389.751 91.3634L389.751 91.3632L391.002 90.4472C402.196 112.014 408.026 135.965 407.991 160.27V160.271V160.273C407.991 243.75 340.392 312.036 256.218 312.036C230.115 312.029 204.456 305.293 181.716 292.476C158.977 279.66 139.926 261.197 126.404 238.87C112.881 216.544 105.344 191.107 104.52 165.018Z" stroke="black" stroke-opacity="0.01"/>
<path d="M87.0247 245.75H38.6077L46.7417 237.616C47.4432 236.921 48.0003 236.094 48.3812 235.183C48.7622 234.271 48.9593 233.294 48.9615 232.306C48.9636 231.318 48.7706 230.34 48.3936 229.427C48.0166 228.514 47.463 227.685 46.7645 226.986C46.0661 226.288 45.2366 225.735 44.3237 225.358C43.4108 224.981 42.4324 224.788 41.4447 224.79C40.457 224.792 39.4795 224.99 38.5683 225.371C37.657 225.752 36.83 226.309 36.1348 227.01L15.1978 247.947C15.1858 247.959 15.1758 247.972 15.1638 247.985C15.0028 248.149 14.8478 248.318 14.7018 248.496C14.6258 248.589 14.5588 248.687 14.4878 248.782C14.4168 248.877 14.3348 248.982 14.2658 249.082C14.1968 249.182 14.1258 249.31 14.0578 249.424C14.0008 249.524 13.9408 249.613 13.8878 249.711C13.8248 249.828 13.7718 249.948 13.7158 250.068C13.6678 250.168 13.6158 250.268 13.5728 250.375C13.5298 250.482 13.4848 250.612 13.4428 250.732C13.4008 250.852 13.3598 250.954 13.3248 251.068C13.2898 251.182 13.2618 251.311 13.2308 251.432C13.1998 251.553 13.1688 251.662 13.1458 251.779C13.1178 251.922 13.0998 252.066 13.0798 252.209C13.0658 252.309 13.0468 252.409 13.0368 252.504C12.9877 252.998 12.9877 253.495 13.0368 253.989C13.0468 254.089 13.0658 254.189 13.0808 254.289C13.1008 254.43 13.1178 254.572 13.1458 254.712C13.1698 254.832 13.2028 254.949 13.2328 255.067C13.2628 255.185 13.2888 255.306 13.3248 255.424C13.3608 255.542 13.4038 255.653 13.4448 255.767C13.4858 255.881 13.5248 256.001 13.5728 256.117C13.6208 256.233 13.6728 256.327 13.7188 256.431C13.7648 256.535 13.8258 256.666 13.8878 256.781C13.9498 256.896 14.0038 256.981 14.0618 257.076C14.1198 257.171 14.1918 257.302 14.2618 257.411C14.3318 257.52 14.4128 257.618 14.4898 257.721C14.5668 257.824 14.6238 257.909 14.6988 258C14.8448 258.178 14.9988 258.348 15.1618 258.512C15.1738 258.524 15.1838 258.537 15.1948 258.549L36.1318 279.487C37.5382 280.894 39.4458 281.684 41.435 281.685C43.4242 281.685 45.332 280.895 46.7388 279.488C48.1455 278.082 48.9358 276.174 48.936 274.185C48.9362 272.196 48.1462 270.288 46.7397 268.881L38.6058 260.747H87.0257C89.0149 260.747 90.9225 259.957 92.329 258.551C93.7356 257.144 94.5257 255.236 94.5257 253.247C94.5257 251.258 93.7356 249.35 92.329 247.944C90.9225 246.537 89.0149 245.747 87.0257 245.747L87.0247 245.75Z" fill="#78CBEC"/>
<path d="M87.231 246.25H87.0247H38.6077H37.4006L38.2542 245.397L46.3882 237.263L46.3897 237.261C47.0444 236.612 47.5644 235.84 47.9199 234.99C48.2754 234.139 48.4595 233.227 48.4615 232.305C48.4634 231.383 48.2833 230.47 47.9314 229.618C47.5796 228.766 47.0629 227.992 46.411 227.34C45.7591 226.688 44.9849 226.172 44.1329 225.82C43.2808 225.468 42.3676 225.288 41.4458 225.29C40.524 225.292 39.6116 225.476 38.7612 225.832C37.9107 226.187 37.1388 226.708 36.4899 227.362L36.4883 227.364L15.5575 248.295L15.5556 248.297L15.5497 248.304C15.5451 248.309 15.5387 248.316 15.5312 248.324L15.5259 248.33L15.5206 248.336C15.3676 248.491 15.2232 248.649 15.0889 248.813C15.0464 248.865 15.0131 248.911 14.9724 248.967C14.9482 249 14.9213 249.037 14.8883 249.082C14.8646 249.113 14.8419 249.143 14.8201 249.172C14.768 249.241 14.7209 249.303 14.6773 249.366C14.6379 249.423 14.6003 249.488 14.5538 249.567C14.5342 249.601 14.5131 249.637 14.4896 249.676C14.4612 249.726 14.4323 249.773 14.4081 249.813C14.4045 249.818 14.4011 249.824 14.3978 249.829C14.3694 249.876 14.3473 249.913 14.3277 249.949C14.2859 250.026 14.2506 250.103 14.208 250.195C14.1957 250.222 14.1827 250.25 14.1688 250.28L14.1665 250.285L14.1665 250.285C14.1507 250.318 14.1363 250.347 14.1231 250.374C14.0887 250.444 14.0619 250.499 14.0367 250.562C14.0014 250.649 13.9637 250.757 13.9232 250.873L13.9147 250.897C13.8942 250.956 13.8774 251.002 13.8627 251.042C13.8399 251.103 13.8221 251.152 13.8027 251.215C13.7831 251.279 13.7682 251.34 13.7501 251.415C13.7399 251.457 13.7287 251.503 13.7151 251.556C13.7059 251.592 13.6974 251.625 13.6896 251.655C13.6676 251.738 13.6507 251.803 13.6364 251.876L87.231 246.25ZM87.231 246.25C89.0131 246.302 90.7112 247.033 91.9755 248.298C93.2882 249.61 94.0257 251.391 94.0257 253.247C94.0257 255.104 93.2882 256.884 91.9755 258.197C90.6627 259.51 88.8823 260.247 87.0257 260.247H38.6058H37.3986L38.2522 261.101L46.3862 269.235C46.3862 269.235 46.3862 269.235 46.3862 269.235C47.6989 270.548 48.4362 272.328 48.436 274.185C48.4359 276.042 47.6982 277.822 46.3852 279.135C45.0723 280.447 43.2917 281.185 41.4351 281.185C39.5785 281.184 37.798 280.447 36.4853 279.134L36.4853 279.134L15.56 258.207L15.5577 258.205C15.5508 258.197 15.5357 258.179 15.5164 258.16C15.3642 258.007 15.2209 257.848 15.0853 257.683L15.0846 257.682C15.0441 257.633 15.0163 257.595 14.9786 257.543C14.9549 257.51 14.9273 257.472 14.8902 257.422C14.8578 257.378 14.8301 257.343 14.8055 257.311C14.7571 257.248 14.7205 257.2 14.6825 257.141C14.6419 257.078 14.6115 257.025 14.578 256.967C14.552 256.922 14.5242 256.874 14.4885 256.816C14.4774 256.797 14.4668 256.78 14.4566 256.764C14.41 256.688 14.3721 256.626 14.3279 256.544C14.2747 256.445 14.2196 256.328 14.176 256.229C14.1524 256.176 14.1273 256.124 14.1065 256.081C14.103 256.074 14.0996 256.067 14.0963 256.06C14.0724 256.011 14.0528 255.97 14.0348 255.926C14.0059 255.856 13.9831 255.791 13.9561 255.714C13.9437 255.678 13.9304 255.64 13.9152 255.598C13.9028 255.564 13.8913 255.532 13.8804 255.502C13.8506 255.421 13.8258 255.353 13.803 255.278C13.7823 255.211 13.7675 255.149 13.7496 255.075C13.7402 255.036 13.7299 254.993 13.7173 254.944C13.7079 254.907 13.699 254.873 13.6907 254.841C13.6689 254.758 13.651 254.689 13.636 254.614C13.6174 254.521 13.6049 254.43 13.5902 254.323C13.5857 254.29 13.581 254.256 13.5758 254.219L13.5752 254.215C13.5684 254.17 13.5623 254.132 13.5569 254.099C13.5472 254.04 13.5397 253.994 13.5343 253.94L87.231 246.25ZM13.5342 252.555C13.5394 252.506 13.5455 252.468 13.5532 252.421C13.5593 252.383 13.5664 252.339 13.5749 252.279L13.5749 252.279C13.5788 252.251 13.5825 252.224 13.5861 252.198C13.6022 252.08 13.6163 251.978 13.6364 251.876L13.5342 252.555ZM13.5342 252.555C13.4886 253.016 13.4886 253.479 13.5343 253.94L13.5342 252.555ZM14.5623 257.82C14.6073 257.882 14.6491 257.94 14.6988 258L13.0368 253.989C13.0437 254.058 13.0549 254.128 13.0661 254.197C13.0711 254.228 13.0761 254.258 13.0808 254.289C13.0851 254.32 13.0893 254.351 13.0935 254.381C13.1087 254.492 13.1238 254.603 13.1458 254.712C13.1637 254.802 13.1868 254.891 13.2099 254.979C13.2176 255.008 13.2252 255.038 13.2328 255.067C13.2419 255.103 13.2507 255.14 13.2596 255.176C13.2796 255.259 13.2998 255.342 13.3248 255.424C13.3519 255.513 13.3831 255.599 13.4144 255.684C13.4246 255.712 13.4347 255.739 13.4448 255.767C13.4563 255.799 13.4678 255.832 13.4793 255.865C13.5085 255.949 13.5383 256.034 13.5728 256.117C13.6004 256.184 13.6293 256.243 13.6576 256.302C13.6786 256.345 13.6992 256.387 13.7188 256.431C13.7648 256.535 13.8258 256.666 13.8878 256.781C13.9392 256.877 13.9851 256.951 14.0323 257.028C14.0421 257.044 14.0519 257.06 14.0618 257.076C14.0845 257.113 14.1093 257.156 14.1353 257.201C14.1758 257.27 14.2191 257.345 14.2618 257.411C14.3116 257.489 14.3671 257.561 14.4227 257.633C14.4452 257.662 14.4676 257.692 14.4898 257.721C14.5157 257.756 14.5395 257.789 14.5623 257.82Z" stroke="black" stroke-opacity="0.01"/>
<path d="M497.728 258.011C497.773 257.956 497.811 257.898 497.854 257.842C497.961 257.704 498.068 257.567 498.165 257.422C498.199 257.371 498.227 257.322 498.265 257.266C498.365 257.11 498.465 256.954 498.549 256.791C498.568 256.755 498.584 256.717 498.602 256.68C498.696 256.499 498.785 256.315 498.864 256.126C498.874 256.102 498.881 256.077 498.891 256.053C498.972 255.853 499.048 255.647 499.112 255.437C499.12 255.41 499.125 255.383 499.133 255.356C499.193 255.15 499.248 254.941 499.291 254.728C499.304 254.665 499.309 254.6 499.32 254.536C499.351 254.359 499.382 254.182 499.4 254C499.45 253.502 499.45 252.999 499.4 252.5C499.382 252.319 499.351 252.142 499.32 251.964C499.309 251.9 499.303 251.835 499.291 251.772C499.248 251.559 499.191 251.35 499.133 251.144C499.125 251.117 499.12 251.09 499.112 251.063C499.048 250.853 498.973 250.649 498.891 250.447C498.881 250.423 498.874 250.398 498.864 250.374C498.785 250.185 498.696 250.001 498.602 249.82C498.583 249.783 498.568 249.745 498.549 249.709C498.461 249.546 498.364 249.39 498.265 249.234C498.232 249.182 498.204 249.134 498.165 249.078C498.065 248.933 497.965 248.795 497.854 248.658C497.811 248.602 497.772 248.544 497.728 248.489C497.589 248.32 497.441 248.159 497.288 248.003C497.27 247.985 497.255 247.964 497.237 247.946L476.299 227.009C474.89 225.613 472.986 224.831 471.002 224.835C469.019 224.84 467.118 225.629 465.715 227.032C464.313 228.434 463.523 230.335 463.518 232.319C463.514 234.302 464.295 236.207 465.692 237.615L473.826 245.749H425.409C423.42 245.749 421.512 246.539 420.105 247.946C418.699 249.352 417.909 251.26 417.909 253.249C417.909 255.238 418.699 257.146 420.105 258.553C421.512 259.959 423.42 260.749 425.409 260.749H473.827L465.692 268.883C464.285 270.29 463.495 272.198 463.495 274.187C463.496 276.176 464.286 278.084 465.693 279.49C467.099 280.897 469.007 281.687 470.996 281.687C472.986 281.686 474.893 280.896 476.3 279.489L497.238 258.551C497.256 258.533 497.271 258.512 497.289 258.494C497.441 258.338 497.589 258.178 497.728 258.009V258.011Z" fill="#78CBEC"/>
<path d="M497.288 248.003L496.931 248.353C497.075 248.501 497.212 248.65 497.339 248.804C497.353 248.821 497.367 248.841 497.387 248.867C497.405 248.893 497.43 248.928 497.457 248.963L497.457 248.963L497.465 248.973C497.565 249.096 497.657 249.223 497.753 249.362L497.754 249.364C497.774 249.393 497.787 249.413 497.805 249.442C497.815 249.458 497.827 249.477 497.843 249.502C497.94 249.656 498.028 249.798 498.107 249.944C498.109 249.948 498.112 249.954 498.12 249.972C498.128 249.988 498.141 250.018 498.157 250.049L498.158 250.051C498.247 250.222 498.329 250.392 498.401 250.564C498.402 250.565 498.403 250.568 498.405 250.575L498.406 250.577C498.409 250.588 498.418 250.612 498.428 250.638C498.505 250.828 498.574 251.015 498.632 251.205C498.633 251.206 498.633 251.21 498.636 251.221L498.637 251.223C498.639 251.234 498.645 251.256 498.651 251.28C498.709 251.484 498.761 251.676 498.8 251.868C498.803 251.885 498.806 251.904 498.81 251.935L498.811 251.944C498.815 251.972 498.82 252.011 498.827 252.049L498.827 252.05C498.859 252.231 498.886 252.39 498.902 252.55L498.902 252.551C498.95 253.016 498.95 253.485 498.902 253.95L498.902 253.951C498.886 254.111 498.859 254.27 498.827 254.45L498.827 254.452C498.82 254.49 498.815 254.528 498.812 254.555L498.81 254.567C498.808 254.582 498.807 254.593 498.805 254.602C498.804 254.613 498.802 254.621 498.801 254.627L498.801 254.629C498.761 254.823 498.711 255.017 498.653 255.214C498.645 255.242 498.639 255.268 498.636 255.28C498.634 255.29 498.633 255.294 498.632 255.295C498.574 255.485 498.505 255.675 498.428 255.863C498.417 255.891 498.408 255.916 498.405 255.926C498.403 255.932 498.402 255.935 498.401 255.937C498.329 256.108 498.247 256.278 498.158 256.45L498.158 256.45L498.152 256.461C498.132 256.502 498.126 256.517 498.121 256.528C498.117 256.537 498.115 256.542 498.106 256.558L498.104 256.562C498.034 256.699 497.948 256.834 497.847 256.991C497.824 257.025 497.804 257.057 497.789 257.081C497.772 257.109 497.761 257.127 497.749 257.145C497.666 257.268 497.574 257.387 497.469 257.522L497.459 257.536L497.457 257.538C497.434 257.568 497.412 257.599 497.395 257.622L497.386 257.634C497.379 257.644 497.373 257.652 497.368 257.66C497.367 257.66 497.367 257.661 497.366 257.662L497.342 257.692C497.215 257.846 497.078 257.994 496.932 258.144C496.919 258.157 496.909 258.168 496.901 258.177C496.893 258.186 496.886 258.194 496.882 258.199L496.882 258.2L496.878 258.203L475.946 279.136L475.946 279.136C474.633 280.449 472.853 281.186 470.996 281.187C469.14 281.187 467.359 280.449 466.046 279.137C464.733 277.824 463.996 276.043 463.995 274.187C463.995 272.33 464.733 270.55 466.045 269.237C466.045 269.237 466.045 269.237 466.045 269.237L474.18 261.103L475.034 260.249H473.827H425.409C423.552 260.249 421.772 259.512 420.459 258.199C419.146 256.886 418.409 255.106 418.409 253.249C418.409 251.393 419.146 249.612 420.459 248.299C421.772 246.987 423.552 246.249 425.409 246.249H473.826H475.033L474.179 245.396L466.047 237.263C466.046 237.263 466.046 237.263 466.046 237.262C464.743 235.948 464.014 234.171 464.018 232.32C464.023 230.469 464.76 228.694 466.069 227.385C467.378 226.077 469.152 225.339 471.003 225.335C472.854 225.331 474.631 226.061 475.946 227.364C475.946 227.364 475.946 227.364 475.947 227.364L496.877 248.294L496.88 248.298L496.885 248.304C496.889 248.308 496.894 248.314 496.9 248.32C496.908 248.33 496.92 248.343 496.934 248.357L497.288 248.003ZM497.288 248.003C497.279 247.994 497.27 247.984 497.262 247.975C497.254 247.965 497.246 247.955 497.237 247.946L476.299 227.009L497.854 248.658C497.835 248.634 497.817 248.609 497.799 248.585C497.776 248.553 497.753 248.52 497.728 248.489C497.589 248.32 497.441 248.159 497.288 248.003Z" stroke="black" stroke-opacity="0.01"/>
<path d="M233.609 310.865C180.696 279.823 145.275 223.165 145.275 158.406C145.253 135.952 149.582 113.707 158.023 92.9001C152.621 96.0076 146.433 97.4789 140.211 97.1352C133.989 96.7915 128.001 94.6476 122.975 90.9641L121.255 89.7041C114.327 102.938 109.394 117.123 106.618 131.8C105.735 131.74 104.846 131.7 103.947 131.7C98.4754 131.704 93.0658 132.857 88.0678 135.083C83.0698 137.309 78.5947 140.559 74.9317 144.623C71.2687 148.688 68.4995 153.475 66.8032 158.677C65.1068 163.879 64.521 169.379 65.0837 174.821C65.6463 180.263 67.3449 185.527 70.0696 190.272C72.7943 195.016 76.4845 199.136 80.9015 202.365C85.3185 205.594 90.3639 207.86 95.7117 209.017C101.059 210.173 106.59 210.194 111.947 209.079C120.928 235.579 137.031 259.094 158.491 277.048C179.951 295.003 205.94 306.702 233.609 310.865V310.865Z" fill="#FFCABD"/>
<path d="M231.119 309.962C204.501 305.491 179.537 294.004 158.812 276.665C137.422 258.77 121.372 235.331 112.42 208.919L112.278 208.499L111.845 208.59C106.557 209.691 101.097 209.67 95.8173 208.528C90.538 207.386 85.557 205.149 81.1965 201.962C76.836 198.774 73.1931 194.707 70.5032 190.023C67.8134 185.339 66.1365 180.142 65.581 174.77C65.0255 169.397 65.6038 163.967 67.2785 158.832C68.9532 153.697 71.687 148.97 75.3031 144.958C78.9192 140.946 83.3372 137.737 88.2713 135.539C93.2054 133.342 98.5457 132.204 103.947 132.2C104.831 132.2 105.708 132.239 106.584 132.299L107.027 132.329L107.109 131.893C109.84 117.455 114.665 103.494 121.429 90.4516L122.679 91.3674C122.679 91.3674 122.679 91.3674 122.679 91.3674C127.784 95.1082 133.865 97.2854 140.184 97.6344C146.034 97.9576 151.855 96.7006 157.04 94.0075C148.917 114.501 144.753 136.354 144.775 158.407C144.775 222.436 179.303 278.564 231.119 309.962Z" stroke="black" stroke-opacity="0.01"/>
<path d="M173.661 221.138C190.484 221.138 204.123 210.277 204.123 196.88C204.123 183.483 190.484 172.622 173.661 172.622C156.837 172.622 143.199 183.483 143.199 196.88C143.199 210.277 156.837 221.138 173.661 221.138Z" fill="#FF889E"/>
<path d="M203.623 196.88C203.623 209.901 190.32 220.638 173.661 220.638C157.001 220.638 143.699 209.901 143.699 196.88C143.699 183.859 157.001 173.122 173.661 173.122C190.32 173.122 203.623 183.859 203.623 196.88Z" stroke="black" stroke-opacity="0.01"/>
<path d="M338.773 221.138C355.596 221.138 369.235 210.277 369.235 196.88C369.235 183.483 355.596 172.622 338.773 172.622C321.949 172.622 308.311 183.483 308.311 196.88C308.311 210.277 321.949 221.138 338.773 221.138Z" fill="#FF889E"/>
<path d="M368.735 196.88C368.735 209.901 355.432 220.638 338.773 220.638C322.113 220.638 308.811 209.901 308.811 196.88C308.811 183.859 322.113 173.122 338.773 173.122C355.432 173.122 368.735 183.859 368.735 196.88Z" stroke="black" stroke-opacity="0.01"/>
<path d="M205.918 177.983C203.929 177.983 202.021 177.193 200.614 175.786C199.208 174.38 198.418 172.472 198.418 170.483C198.418 168.626 197.68 166.846 196.367 165.533C195.055 164.22 193.274 163.483 191.418 163.483C189.561 163.483 187.781 164.22 186.468 165.533C185.155 166.846 184.418 168.626 184.418 170.483C184.418 172.472 183.628 174.38 182.221 175.786C180.815 177.193 178.907 177.983 176.918 177.983C174.929 177.983 173.021 177.193 171.614 175.786C170.208 174.38 169.418 172.472 169.418 170.483C169.418 164.648 171.736 159.052 175.861 154.927C179.987 150.801 185.583 148.483 191.418 148.483C197.252 148.483 202.848 150.801 206.974 154.927C211.1 159.052 213.418 164.648 213.418 170.483C213.418 172.472 212.628 174.38 211.221 175.786C209.815 177.193 207.907 177.983 205.918 177.983Z" fill="#423E4F"/>
<path d="M205.918 177.483C204.061 177.483 202.281 176.745 200.968 175.433C199.655 174.12 198.918 172.339 198.918 170.483C198.918 168.494 198.128 166.586 196.721 165.18C195.315 163.773 193.407 162.983 191.418 162.983C189.429 162.983 187.521 163.773 186.114 165.18C184.708 166.586 183.918 168.494 183.918 170.483C183.918 172.339 183.18 174.12 181.867 175.433C180.555 176.745 178.774 177.483 176.918 177.483C175.061 177.483 173.281 176.745 171.968 175.433C170.655 174.12 169.918 172.339 169.918 170.483C169.918 164.781 172.183 159.312 176.215 155.28C180.247 151.248 185.716 148.983 191.418 148.983C197.12 148.983 202.588 151.248 206.621 155.28C210.653 159.312 212.918 164.781 212.918 170.483C212.918 172.339 212.18 174.12 210.867 175.433C209.555 176.745 207.774 177.483 205.918 177.483Z" stroke="black" stroke-opacity="0.01"/>
<path d="M335.518 177.983C333.529 177.983 331.621 177.193 330.214 175.786C328.808 174.38 328.018 172.472 328.018 170.483C328.018 169.564 327.837 168.653 327.485 167.804C327.133 166.955 326.617 166.183 325.967 165.533C325.317 164.883 324.546 164.368 323.697 164.016C322.847 163.664 321.937 163.483 321.018 163.483C320.098 163.483 319.188 163.664 318.339 164.016C317.49 164.368 316.718 164.883 316.068 165.533C315.418 166.183 314.902 166.955 314.551 167.804C314.199 168.653 314.018 169.564 314.018 170.483C314.018 172.472 313.228 174.38 311.821 175.786C310.414 177.193 308.507 177.983 306.518 177.983C304.529 177.983 302.621 177.193 301.214 175.786C299.808 174.38 299.018 172.472 299.018 170.483C299.018 164.648 301.336 159.052 305.461 154.927C309.587 150.801 315.183 148.483 321.018 148.483C326.852 148.483 332.448 150.801 336.574 154.927C340.7 159.052 343.018 164.648 343.018 170.483C343.018 172.472 342.228 174.38 340.821 175.786C339.414 177.193 337.507 177.983 335.518 177.983Z" fill="#423E4F"/>
<path d="M335.518 177.483C333.661 177.483 331.881 176.745 330.568 175.433C329.255 174.12 328.518 172.339 328.518 170.483C328.518 169.498 328.324 168.523 327.947 167.613C327.57 166.703 327.017 165.876 326.321 165.18C325.625 164.483 324.798 163.931 323.888 163.554C322.978 163.177 322.003 162.983 321.018 162.983C320.033 162.983 319.058 163.177 318.148 163.554C317.238 163.931 316.411 164.483 315.714 165.18C315.018 165.876 314.466 166.703 314.089 167.613C313.712 168.523 313.518 169.498 313.518 170.483C313.518 172.339 312.78 174.12 311.467 175.433C310.155 176.745 308.374 177.483 306.518 177.483C304.661 177.483 302.881 176.745 301.568 175.433C300.255 174.12 299.518 172.339 299.518 170.483C299.518 164.781 301.783 159.312 305.815 155.28C309.847 151.248 315.316 148.983 321.018 148.983C326.72 148.983 332.188 151.248 336.221 155.28C340.253 159.312 342.518 164.781 342.518 170.483C342.518 172.339 341.78 174.12 340.467 175.433C339.155 176.745 337.374 177.483 335.518 177.483Z" stroke="black" stroke-opacity="0.01"/>
<path d="M256.218 201.936C252.231 201.935 248.291 201.08 244.662 199.427C241.034 197.775 237.802 195.364 235.184 192.357C233.877 190.858 233.219 188.9 233.356 186.916C233.492 184.931 234.411 183.082 235.911 181.775C237.41 180.468 239.368 179.811 241.352 179.947C243.337 180.083 245.186 181.003 246.493 182.502C247.702 183.894 249.196 185.011 250.874 185.776C252.552 186.541 254.375 186.937 256.219 186.937C258.063 186.937 259.886 186.541 261.564 185.776C263.242 185.011 264.736 183.894 265.946 182.502C266.591 181.752 267.378 181.137 268.261 180.692C269.145 180.247 270.108 179.981 271.095 179.91C272.081 179.839 273.072 179.964 274.011 180.277C274.949 180.591 275.816 181.087 276.562 181.737C277.308 182.387 277.917 183.178 278.356 184.065C278.795 184.952 279.054 185.917 279.118 186.904C279.182 187.891 279.05 188.881 278.73 189.817C278.41 190.753 277.908 191.617 277.253 192.358C274.635 195.365 271.402 197.776 267.774 199.428C264.145 201.081 260.205 201.936 256.218 201.937V201.936Z" fill="#423E4F"/>
<path d="M241.318 180.446C243.17 180.573 244.896 181.431 246.115 182.83C247.372 184.276 248.924 185.436 250.667 186.231C252.41 187.025 254.304 187.437 256.219 187.437C258.135 187.437 260.028 187.025 261.772 186.231C263.515 185.436 265.067 184.276 266.323 182.83L266.325 182.828C266.927 182.128 267.661 181.553 268.486 181.138C269.311 180.723 270.21 180.475 271.131 180.409C272.052 180.342 272.976 180.459 273.852 180.751C274.728 181.044 275.537 181.507 276.233 182.114C276.929 182.721 277.499 183.459 277.908 184.287C278.317 185.114 278.559 186.015 278.619 186.936C278.679 187.858 278.556 188.782 278.257 189.656C277.958 190.529 277.49 191.335 276.878 192.027L276.876 192.03C274.304 194.983 271.13 197.351 267.567 198.973C264.07 200.566 260.278 201.405 256.437 201.436L256.218 201.436C252.302 201.435 248.433 200.595 244.869 198.972C241.306 197.349 238.132 194.982 235.561 192.029L235.561 192.029C234.341 190.629 233.727 188.802 233.854 186.95C233.982 185.098 234.84 183.372 236.239 182.152C237.639 180.932 239.466 180.319 241.318 180.446Z" stroke="black" stroke-opacity="0.01"/>
<path d="M248.718 442.33V413C248.718 411.011 249.508 409.103 250.914 407.697C252.321 406.29 254.229 405.5 256.218 405.5C258.207 405.5 260.115 406.29 261.521 407.697C262.928 409.103 263.718 411.011 263.718 413V442.33H248.718Z" fill="#34B5E1"/>
<path d="M249.218 441.83V413C249.218 411.143 249.955 409.363 251.268 408.05C252.581 406.737 254.361 406 256.218 406C258.074 406 259.855 406.737 261.168 408.05C262.48 409.363 263.218 411.143 263.218 413V441.83H249.218Z" stroke="black" stroke-opacity="0.01"/>
</svg>
