<svg width="512" height="512" viewBox="0 0 512 512" fill="none" xmlns="http://www.w3.org/2000/svg">
<path d="M386.16 284.816L362.618 312.054L386.161 339.947H406.401C410.021 339.947 413.605 339.234 416.95 337.849C420.294 336.463 423.333 334.433 425.893 331.873C428.453 329.313 430.483 326.274 431.868 322.93C433.254 319.586 433.967 316.001 433.967 312.381C433.967 308.761 433.254 305.176 431.868 301.832C430.483 298.487 428.453 295.449 425.893 292.889C423.333 290.329 420.294 288.299 416.95 286.913C413.605 285.528 410.021 284.815 406.401 284.815H386.161L386.16 284.816Z" fill="#FFDCCE"/>
<path d="M297.125 366.272L256.218 383.679L220.346 366.272L178.924 383.679C183.606 396.101 191.21 407.214 201.093 416.079V442.335L228.656 473.67L256.218 442.331L283.781 473.666L311.344 442.331V416.075C312.456 415.075 313.538 414.061 314.59 413.01C322.912 404.69 329.365 394.69 333.518 383.679L297.125 366.272Z" fill="#78CBEC"/>
<path d="M204.237 373.044L178.924 383.681C183.607 396.103 191.21 407.216 201.092 416.081V442.337L228.655 473.671L229.619 472.571C214.534 444.295 205.296 410.071 204.237 373.044Z" fill="#34B5E1"/>
<path d="M311.344 442.331V477.431C311.344 484.741 308.44 491.752 303.271 496.921C298.102 502.09 291.091 504.994 283.781 504.994C276.471 504.994 269.46 502.09 264.291 496.921C259.122 491.752 256.218 484.741 256.218 477.431V442.331H311.344Z" fill="#FFCABD"/>
<path d="M256.218 442.331V477.431C256.218 481.051 255.505 484.635 254.12 487.979C252.735 491.323 250.704 494.362 248.145 496.921C245.585 499.481 242.547 501.511 239.203 502.896C235.859 504.281 232.274 504.994 228.655 504.994C225.035 504.994 221.451 504.281 218.107 502.896C214.763 501.511 211.724 499.481 209.165 496.921C206.605 494.362 204.575 491.323 203.19 487.979C201.805 484.635 201.092 481.051 201.092 477.431V442.331H256.218Z" fill="#FFDCCE"/>
<path d="M216.538 442.332H201.092V477.432C201.09 482.682 202.587 487.823 205.408 492.251C208.229 496.678 212.257 500.207 217.016 502.423C221.775 504.639 227.068 505.45 232.273 504.759C237.477 504.068 242.375 501.905 246.392 498.524C233.407 481.57 223.319 462.582 216.538 442.332Z" fill="#FFCABD"/>
<path d="M386.16 284.816H338.771V240.429H173.663V284.816H126.274V339.947H173.663V354.628C173.653 364.549 175.434 374.391 178.922 383.679H333.512C336.999 374.391 338.781 364.549 338.771 354.628V339.947H386.16V284.816Z" fill="#FF748F"/>
<path d="M126.275 284.816L149.818 312.054L126.275 339.947H106.035C102.415 339.947 98.8302 339.234 95.4857 337.849C92.1412 336.463 89.1024 334.433 86.5426 331.873C83.9829 329.313 81.9524 326.274 80.5671 322.93C79.1818 319.586 78.4687 316.001 78.4688 312.381C78.4687 308.761 79.1818 305.176 80.5671 301.832C81.9524 298.487 83.9829 295.449 86.5426 292.889C89.1024 290.329 92.1412 288.299 95.4857 286.913C98.8302 285.528 102.415 284.815 106.035 284.815H126.275V284.816Z" fill="#FFDCCE"/>
<path d="M256.217 351.304C277.627 351.304 294.984 333.947 294.984 312.537C294.984 291.127 277.627 273.77 256.217 273.77C234.806 273.77 217.45 291.127 217.45 312.537C217.45 333.947 234.806 351.304 256.217 351.304Z" fill="#FFCABD"/>
<path d="M408.491 209.902C430.086 209.902 447.592 192.396 447.592 170.801C447.592 149.206 430.086 131.7 408.491 131.7C386.896 131.7 369.39 149.206 369.39 170.801C369.39 192.396 386.896 209.902 408.491 209.902Z" fill="#FFCABD"/>
<path d="M121.255 89.7C134.149 65.0583 153.543 44.417 177.334 30.0143C201.126 15.6117 228.406 7.99756 256.217 7.99756C284.028 7.99756 311.309 15.6117 335.1 30.0143C358.892 44.417 378.286 65.0583 391.18 89.7L369.39 122.484H143.045L121.255 89.7Z" fill="#FF9E8E"/>
<path d="M225.225 11.1651C203.167 15.7569 182.402 25.1819 164.424 38.7618C146.446 52.3417 131.703 69.7385 121.255 89.7001L143.045 122.484H148.99C158.679 76.3161 186.673 36.6841 225.225 11.1631V11.1651Z" fill="#FB8978"/>
<path d="M213.33 240.434H173.664V284.816H126.274V339.947H173.663V354.631C173.652 364.552 175.434 374.393 178.922 383.681H204.765C204.345 377.826 204.13 371.896 204.122 365.892C204.122 308.36 205.271 268.203 213.329 240.434H213.33Z" fill="#FD5F7E"/>
<path d="M408.491 160.273C408.491 244.025 340.67 312.536 256.218 312.536C230.029 312.529 204.285 305.77 181.471 292.912C158.656 280.053 139.543 261.53 125.976 239.129C112.409 216.729 104.847 191.209 104.02 165.034C103.193 138.858 109.129 112.912 121.255 89.6998L122.975 90.9598C128.498 95.0014 135.165 97.1799 142.01 97.1799C148.854 97.1799 155.521 95.0014 161.045 90.9598C166.568 86.9183 173.235 84.7397 180.08 84.7397C186.924 84.7397 193.591 86.9183 199.115 90.9598C204.638 95.0014 211.305 97.1799 218.15 97.1799C224.994 97.1799 231.661 95.0014 237.185 90.9598C242.707 86.9184 249.372 84.7398 256.215 84.7398C263.058 84.7398 269.723 86.9184 275.245 90.9598C280.768 95.0014 287.435 97.1799 294.28 97.1799C301.124 97.1799 307.791 95.0014 313.315 90.9598C318.838 86.9183 325.505 84.7397 332.35 84.7397C339.194 84.7397 345.861 86.9183 351.385 90.9598C356.909 94.9998 363.576 97.1774 370.42 97.1774C377.264 97.1774 383.931 94.9998 389.456 90.9598L391.176 89.6998C402.584 111.472 408.526 135.691 408.491 160.271V160.273Z" fill="#FFDCCE"/>
<path d="M87.0247 245.75H38.6077L46.7417 237.616C47.4432 236.921 48.0003 236.094 48.3812 235.183C48.7622 234.271 48.9593 233.294 48.9615 232.306C48.9636 231.318 48.7706 230.34 48.3936 229.427C48.0166 228.514 47.463 227.685 46.7645 226.986C46.0661 226.288 45.2366 225.735 44.3237 225.358C43.4108 224.981 42.4324 224.788 41.4447 224.79C40.457 224.792 39.4795 224.99 38.5683 225.371C37.657 225.752 36.83 226.309 36.1348 227.01L15.1978 247.947C15.1858 247.959 15.1758 247.972 15.1638 247.985C15.0028 248.149 14.8478 248.318 14.7018 248.496C14.6258 248.589 14.5588 248.687 14.4878 248.782C14.4168 248.877 14.3348 248.982 14.2658 249.082C14.1968 249.182 14.1258 249.31 14.0578 249.424C14.0008 249.524 13.9408 249.613 13.8878 249.711C13.8248 249.828 13.7718 249.948 13.7158 250.068C13.6678 250.168 13.6158 250.268 13.5728 250.375C13.5298 250.482 13.4848 250.612 13.4428 250.732C13.4008 250.852 13.3598 250.954 13.3248 251.068C13.2898 251.182 13.2618 251.311 13.2308 251.432C13.1998 251.553 13.1688 251.662 13.1458 251.779C13.1178 251.922 13.0998 252.066 13.0798 252.209C13.0658 252.309 13.0468 252.409 13.0368 252.504C12.9877 252.998 12.9877 253.495 13.0368 253.989C13.0468 254.089 13.0658 254.189 13.0808 254.289C13.1008 254.43 13.1178 254.572 13.1458 254.712C13.1698 254.832 13.2028 254.949 13.2328 255.067C13.2628 255.185 13.2888 255.306 13.3248 255.424C13.3608 255.542 13.4038 255.653 13.4448 255.767C13.4858 255.881 13.5248 256.001 13.5728 256.117C13.6208 256.233 13.6728 256.327 13.7188 256.431C13.7648 256.535 13.8258 256.666 13.8878 256.781C13.9498 256.896 14.0038 256.981 14.0618 257.076C14.1198 257.171 14.1918 257.302 14.2618 257.411C14.3318 257.52 14.4128 257.618 14.4898 257.721C14.5668 257.824 14.6238 257.909 14.6988 258C14.8448 258.178 14.9988 258.348 15.1618 258.512C15.1738 258.524 15.1838 258.537 15.1948 258.549L36.1318 279.487C37.5382 280.894 39.4458 281.684 41.435 281.685C43.4242 281.685 45.332 280.895 46.7388 279.488C48.1455 278.082 48.9358 276.174 48.936 274.185C48.9362 272.196 48.1462 270.288 46.7397 268.881L38.6058 260.747H87.0257C89.0149 260.747 90.9225 259.957 92.329 258.551C93.7356 257.144 94.5257 255.236 94.5257 253.247C94.5257 251.258 93.7356 249.35 92.329 247.944C90.9225 246.537 89.0149 245.747 87.0257 245.747L87.0247 245.75Z" fill="#78CBEC"/>
<path d="M497.728 258.011C497.773 257.956 497.811 257.898 497.854 257.842C497.961 257.704 498.068 257.567 498.165 257.422C498.199 257.371 498.227 257.322 498.265 257.266C498.365 257.11 498.465 256.954 498.549 256.791C498.568 256.755 498.584 256.717 498.602 256.68C498.696 256.499 498.785 256.315 498.864 256.126C498.874 256.102 498.881 256.077 498.891 256.053C498.972 255.853 499.048 255.647 499.112 255.437C499.12 255.41 499.125 255.383 499.133 255.356C499.193 255.15 499.248 254.941 499.291 254.728C499.304 254.665 499.309 254.6 499.32 254.536C499.351 254.359 499.382 254.182 499.4 254C499.45 253.502 499.45 252.999 499.4 252.5C499.382 252.319 499.351 252.142 499.32 251.964C499.309 251.9 499.303 251.835 499.291 251.772C499.248 251.559 499.191 251.35 499.133 251.144C499.125 251.117 499.12 251.09 499.112 251.063C499.048 250.853 498.973 250.649 498.891 250.447C498.881 250.423 498.874 250.398 498.864 250.374C498.785 250.185 498.696 250.001 498.602 249.82C498.583 249.783 498.568 249.745 498.549 249.709C498.461 249.546 498.364 249.39 498.265 249.234C498.232 249.182 498.204 249.134 498.165 249.078C498.065 248.933 497.965 248.795 497.854 248.658C497.811 248.602 497.772 248.544 497.728 248.489C497.589 248.32 497.441 248.159 497.288 248.003C497.27 247.985 497.255 247.964 497.237 247.946L476.299 227.009C474.89 225.613 472.986 224.831 471.002 224.835C469.019 224.84 467.118 225.629 465.715 227.032C464.313 228.434 463.523 230.335 463.518 232.319C463.514 234.302 464.295 236.207 465.692 237.615L473.826 245.749H425.409C423.42 245.749 421.512 246.539 420.105 247.946C418.699 249.352 417.909 251.26 417.909 253.249C417.909 255.238 418.699 257.146 420.105 258.553C421.512 259.959 423.42 260.749 425.409 260.749H473.827L465.692 268.883C464.285 270.29 463.495 272.198 463.495 274.187C463.496 276.176 464.286 278.084 465.693 279.49C467.099 280.897 469.007 281.687 470.996 281.687C472.986 281.686 474.893 280.896 476.3 279.489L497.238 258.551C497.256 258.533 497.271 258.512 497.289 258.494C497.441 258.338 497.589 258.178 497.728 258.009V258.011Z" fill="#78CBEC"/>
<path d="M233.609 310.865C180.696 279.823 145.275 223.165 145.275 158.406C145.253 135.952 149.582 113.707 158.023 92.9001C152.621 96.0076 146.433 97.4789 140.211 97.1352C133.989 96.7915 128.001 94.6476 122.975 90.9641L121.255 89.7041C114.327 102.938 109.394 117.123 106.618 131.8C105.735 131.74 104.846 131.7 103.947 131.7C98.4754 131.704 93.0658 132.857 88.0678 135.083C83.0698 137.309 78.5947 140.559 74.9317 144.623C71.2687 148.688 68.4995 153.475 66.8032 158.677C65.1068 163.879 64.521 169.379 65.0837 174.821C65.6463 180.263 67.3449 185.527 70.0696 190.272C72.7943 195.016 76.4845 199.136 80.9015 202.365C85.3185 205.594 90.3639 207.86 95.7117 209.017C101.059 210.173 106.59 210.194 111.947 209.079C120.928 235.579 137.031 259.094 158.491 277.048C179.951 295.003 205.94 306.702 233.609 310.865Z" fill="#FFCABD"/>
<path d="M173.661 221.138C190.484 221.138 204.123 210.277 204.123 196.88C204.123 183.483 190.484 172.622 173.661 172.622C156.837 172.622 143.199 183.483 143.199 196.88C143.199 210.277 156.837 221.138 173.661 221.138Z" fill="#FF889E"/>
<path d="M338.773 221.138C355.596 221.138 369.235 210.277 369.235 196.88C369.235 183.483 355.596 172.622 338.773 172.622C321.949 172.622 308.311 183.483 308.311 196.88C308.311 210.277 321.949 221.138 338.773 221.138Z" fill="#FF889E"/>
<path d="M205.918 177.983C203.929 177.983 202.021 177.193 200.614 175.786C199.208 174.38 198.418 172.472 198.418 170.483C198.418 168.626 197.68 166.846 196.367 165.533C195.055 164.22 193.274 163.483 191.418 163.483C189.561 163.483 187.781 164.22 186.468 165.533C185.155 166.846 184.418 168.626 184.418 170.483C184.418 172.472 183.628 174.38 182.221 175.786C180.815 177.193 178.907 177.983 176.918 177.983C174.929 177.983 173.021 177.193 171.614 175.786C170.208 174.38 169.418 172.472 169.418 170.483C169.418 164.648 171.736 159.052 175.861 154.927C179.987 150.801 185.583 148.483 191.418 148.483C197.252 148.483 202.848 150.801 206.974 154.927C211.1 159.052 213.418 164.648 213.418 170.483C213.418 172.472 212.628 174.38 211.221 175.786C209.814 177.193 207.907 177.983 205.918 177.983Z" fill="#423E4F"/>
<path d="M335.518 177.983C333.529 177.983 331.621 177.193 330.214 175.786C328.808 174.38 328.018 172.472 328.018 170.483C328.018 169.564 327.837 168.653 327.485 167.804C327.133 166.955 326.617 166.183 325.967 165.533C325.317 164.883 324.546 164.368 323.697 164.016C322.847 163.664 321.937 163.483 321.018 163.483C320.098 163.483 319.188 163.664 318.339 164.016C317.49 164.368 316.718 164.883 316.068 165.533C315.418 166.183 314.902 166.955 314.551 167.804C314.199 168.653 314.018 169.564 314.018 170.483C314.018 172.472 313.228 174.38 311.821 175.786C310.414 177.193 308.507 177.983 306.518 177.983C304.529 177.983 302.621 177.193 301.214 175.786C299.808 174.38 299.018 172.472 299.018 170.483C299.018 164.648 301.336 159.052 305.461 154.927C309.587 150.801 315.183 148.483 321.018 148.483C326.852 148.483 332.448 150.801 336.574 154.927C340.7 159.052 343.018 164.648 343.018 170.483C343.018 172.472 342.228 174.38 340.821 175.786C339.414 177.193 337.507 177.983 335.518 177.983Z" fill="#423E4F"/>
<path d="M256.218 201.936C252.231 201.935 248.291 201.08 244.662 199.427C241.034 197.775 237.802 195.364 235.184 192.357C233.877 190.858 233.219 188.9 233.356 186.916C233.492 184.931 234.411 183.082 235.911 181.775C237.41 180.468 239.368 179.811 241.352 179.947C243.337 180.083 245.186 181.003 246.493 182.502C247.702 183.894 249.196 185.011 250.874 185.776C252.552 186.541 254.375 186.937 256.219 186.937C258.063 186.937 259.886 186.541 261.564 185.776C263.242 185.011 264.736 183.894 265.946 182.502C266.591 181.752 267.378 181.137 268.261 180.692C269.145 180.247 270.108 179.981 271.095 179.91C272.081 179.839 273.072 179.964 274.011 180.277C274.949 180.591 275.816 181.087 276.562 181.737C277.308 182.387 277.917 183.178 278.356 184.065C278.795 184.952 279.054 185.917 279.118 186.904C279.182 187.891 279.05 188.881 278.73 189.817C278.41 190.753 277.908 191.617 277.253 192.358C274.635 195.365 271.402 197.776 267.774 199.428C264.145 201.081 260.205 201.936 256.218 201.937V201.936Z" fill="#423E4F"/>
<path d="M248.718 442.33V413C248.718 411.011 249.508 409.103 250.914 407.697C252.321 406.29 254.229 405.5 256.218 405.5C258.207 405.5 260.115 406.29 261.521 407.697C262.928 409.103 263.718 411.011 263.718 413V442.33H248.718Z" fill="#34B5E1"/>
</svg>
