<svg width="512" height="512" viewBox="0 0 512 512" fill="none" xmlns="http://www.w3.org/2000/svg">
<path d="M0.5 0.5H511.5V511.5H0.5V0.5Z" stroke="black" stroke-opacity="0.01"/>
<path d="M388.618 210.23H353.588V124.545C353.571 118.288 354.795 112.091 357.19 106.31C359.584 100.53 363.102 95.282 367.538 90.8701L425.019 33.3901L449.788 58.1591L392.308 115.638C391.135 116.805 390.205 118.193 389.572 119.722C388.938 121.251 388.615 122.89 388.619 124.545L388.618 210.23Z" fill="#C7C5CB"/>
<path d="M388.119 124.546L388.118 209.73H354.088L354.088 124.545L354.088 124.544C354.071 118.353 355.283 112.221 357.652 106.502C360.021 100.782 363.501 95.5899 367.891 91.2247L367.892 91.2237L425.019 34.0972L449.081 58.1591L391.955 115.284C390.735 116.497 389.768 117.941 389.11 119.531C388.451 121.121 388.114 122.826 388.119 124.546Z" stroke="black" stroke-opacity="0.01"/>
<path d="M425.018 33.3901L390.434 67.9731C390.611 68.1561 390.778 68.3441 390.958 68.5241L414.649 92.2161C414.829 92.3961 415.019 92.5651 415.201 92.7421L449.788 58.1581L425.018 33.3901Z" fill="#B2B0BC"/>
<path d="M391.131 67.9836L425.018 34.0972L449.081 58.1581L415.191 92.045C415.131 91.988 415.069 91.9294 415.003 91.8626L391.312 68.1706L390.959 68.5236L391.312 68.1706C391.246 68.1053 391.188 68.0445 391.131 67.9836Z" stroke="black" stroke-opacity="0.01"/>
<path d="M462.632 44.2362L438.941 20.5442C435.392 16.9943 430.577 14.9998 425.557 14.9995C420.537 14.9992 415.723 16.9932 412.173 20.5427C408.623 24.0922 406.628 28.9066 406.628 33.9266C406.628 38.9467 408.622 43.7613 412.171 47.3112L435.862 71.0002C439.412 74.5501 444.226 76.5446 449.246 76.5449C454.266 76.5452 459.081 74.5512 462.631 71.0017C466.181 67.4522 468.175 62.6378 468.175 57.6178C468.176 52.5977 466.182 47.7831 462.632 44.2332V44.2362Z" fill="#5C586F"/>
<path d="M462.279 44.5897L462.474 44.7857C465.808 48.2216 467.676 52.8234 467.675 57.6177C467.675 62.5052 465.733 67.1924 462.277 70.6481C458.821 74.1039 454.134 76.0452 449.246 76.0449C444.359 76.0446 439.671 74.1028 436.216 70.6467L436.216 70.6466L412.525 46.9577C412.525 46.9577 412.525 46.9576 412.525 46.9576C409.069 43.5015 407.128 38.8141 407.128 33.9267C407.128 29.0392 409.07 24.352 412.526 20.8963C415.982 17.4405 420.67 15.4992 425.557 15.4995C430.445 15.4998 435.132 17.4416 438.588 20.8977L438.588 20.8977L462.279 44.5897Z" stroke="black" stroke-opacity="0.01"/>
<path d="M285.039 155.181H234.999V104.6C234.999 94.3326 230.92 84.4855 223.66 77.2253C216.4 69.965 206.553 65.8862 196.285 65.8862C186.017 65.8862 176.17 69.965 168.91 77.2253C161.65 84.4855 157.571 94.3326 157.571 104.6V155.18H107.531V104.6C107.531 92.9448 109.827 81.4036 114.287 70.6355C118.747 59.8674 125.285 50.0832 133.526 41.8416C141.768 33.6001 151.552 27.0625 162.32 22.6022C173.088 18.1419 184.63 15.8462 196.285 15.8462C207.94 15.8462 219.482 18.1419 230.25 22.6022C241.018 27.0625 250.802 33.6001 259.044 41.8416C267.285 50.0832 273.823 59.8674 278.283 70.6355C282.743 81.4036 285.039 92.9448 285.039 104.6V155.181Z" fill="#36D39A"/>
<path d="M284.539 154.681H235.499V104.6C235.499 94.2 231.368 84.2258 224.013 76.8717C216.659 69.5177 206.685 65.3862 196.285 65.3862C185.885 65.3862 175.911 69.5177 168.557 76.8717C161.202 84.2258 157.071 94.2 157.071 104.6V154.68H108.031V104.6C108.031 93.0105 110.314 81.5343 114.749 70.8269C119.184 60.1194 125.685 50.3903 133.88 42.1952C142.075 34 151.804 27.4993 162.512 23.0641C173.219 18.6289 184.695 16.3462 196.285 16.3462C207.875 16.3462 219.351 18.6289 230.058 23.0641C240.766 27.4993 250.495 34 258.69 42.1952C266.885 50.3903 273.386 60.1194 277.821 70.8269C282.256 81.5343 284.539 93.0105 284.539 104.6V154.681Z" stroke="black" stroke-opacity="0.01"/>
<path d="M388.618 162.728C377.183 159.376 365.026 159.376 353.59 162.728V210.228H388.618V162.728Z" fill="#B2B0BC"/>
<path d="M388.118 163.104V209.728H354.09V163.104C365.209 159.918 376.999 159.918 388.118 163.104Z" stroke="black" stroke-opacity="0.01"/>
<path d="M371.103 190.214C362.472 190.214 354.195 193.643 348.092 199.746C341.99 205.848 338.561 214.126 338.561 222.756V452.843C338.561 461.474 341.99 469.751 348.092 475.854C354.195 481.957 362.472 485.385 371.103 485.385C379.734 485.385 388.011 481.957 394.114 475.854C400.217 469.751 403.645 461.474 403.645 452.843V222.756C403.645 214.126 400.217 205.848 394.114 199.746C388.011 193.643 379.734 190.214 371.103 190.214Z" fill="#5C586F"/>
<path d="M348.446 200.099C354.455 194.09 362.605 190.714 371.103 190.714C379.601 190.714 387.751 194.09 393.76 200.099C399.769 206.108 403.145 214.258 403.145 222.756V452.843C403.145 461.341 399.769 469.491 393.76 475.5C387.751 481.509 379.601 484.885 371.103 484.885C362.605 484.885 354.455 481.509 348.446 475.5C342.437 469.491 339.061 461.341 339.061 452.843V222.756C339.061 214.258 342.437 206.108 348.446 200.099Z" stroke="black" stroke-opacity="0.01"/>
<path d="M403.645 304.488H310.626V359.516H403.645C410.942 359.516 417.94 356.617 423.1 351.458C428.26 346.298 431.159 339.299 431.159 332.002C431.159 324.705 428.26 317.707 423.1 312.547C417.94 307.387 410.942 304.488 403.645 304.488Z" fill="#C7C5CB"/>
<path d="M311.126 359.016V304.988H403.645C410.81 304.988 417.681 307.834 422.747 312.9C427.813 317.967 430.659 324.838 430.659 332.002C430.659 339.167 427.813 346.038 422.747 351.104C417.681 356.17 410.81 359.016 403.645 359.016H311.126Z" stroke="black" stroke-opacity="0.01"/>
<path d="M296.11 206.864L290.22 200.974L196.288 161.507L102.35 200.974L96.46 206.864C79.8284 223.496 66.6355 243.24 57.6346 264.97C48.6336 286.701 44.0009 309.991 44.001 333.511V441.617C44.001 460.284 51.4162 478.186 64.6153 491.385C77.8145 504.585 95.7164 512 114.383 512H278.188C296.855 512 314.757 504.585 327.956 491.386C341.156 478.186 348.571 460.284 348.571 441.617V333.511C348.57 286.009 329.7 240.453 296.111 206.864H296.11Z" fill="#36D39A"/>
<path d="M295.756 207.218L295.903 207.364H295.904C329.307 240.845 348.07 286.211 348.071 333.511V441.617C348.071 460.151 340.708 477.926 327.603 491.032C314.497 504.138 296.722 511.5 278.188 511.5H114.383C95.849 511.5 78.0743 504.137 64.9689 491.032C51.8635 477.926 44.501 460.151 44.501 441.617V333.511C44.5009 310.056 49.1207 286.831 58.0965 265.162C67.0723 243.492 80.2284 223.803 96.8135 207.218L102.634 201.397L196.288 162.05L289.936 201.397L295.756 207.218Z" stroke="black" stroke-opacity="0.01"/>
<path d="M111.308 322.554C111.317 273.591 123.501 225.399 146.762 182.314L102.349 200.974L96.459 206.864C62.8702 240.453 44.0001 286.009 44 333.511V441.617C44 460.284 51.4153 478.186 64.6147 491.385C77.8141 504.585 95.7163 512 114.383 512H169.757C132.857 454.519 111.308 388.043 111.308 322.554V322.554Z" fill="#00C67F"/>
<path d="M145.653 183.322C122.788 226.162 110.817 273.979 110.808 322.554C110.808 387.858 132.199 454.126 168.843 511.5H114.383C95.8489 511.5 78.0739 504.137 64.9683 491.032C51.8627 477.926 44.5 460.151 44.5 441.617V333.511C44.5001 286.142 63.3175 240.713 96.8126 207.218L102.633 201.397L145.653 183.322Z" stroke="black" stroke-opacity="0.01"/>
<path d="M171.308 19.7242C171.308 19.6242 171.308 19.5242 171.308 19.4302C152.914 24.8505 136.766 36.0724 125.272 51.4216C113.779 66.7708 107.555 85.4246 107.531 104.6V155.18H157.571V104.6C157.575 98.0419 159.245 91.592 162.424 85.8558C165.603 80.1197 170.188 75.2852 175.747 71.8062C172.823 54.599 171.338 37.178 171.308 19.7242V19.7242Z" fill="#00C67F"/>
<path d="M125.673 51.7213C136.968 36.6368 152.784 25.5611 170.809 20.1012C170.859 37.3458 172.327 54.5572 175.198 71.5613C169.695 75.0713 165.153 79.9009 161.987 85.6135C158.766 91.4237 157.075 97.9569 157.071 104.6V104.6V154.68H108.031V104.6C108.055 85.5328 114.244 66.984 125.673 51.7213Z" stroke="black" stroke-opacity="0.01"/>
<path d="M286.729 122.04H105.841C88.2411 122.04 75.3321 138.899 80.2661 155.798C84.9662 172.018 92.4377 187.302 102.35 200.974H290.221C300.133 187.303 307.605 172.019 312.305 155.8C317.238 138.9 304.333 122.042 286.729 122.042V122.04Z" fill="#5C586F"/>
<path d="M80.7463 155.659L80.746 155.658C75.9076 139.086 88.567 122.54 105.841 122.54H286.229V122.542H286.729C304.007 122.542 316.663 139.087 311.825 155.66L311.825 155.661C307.164 171.743 299.77 186.902 289.966 200.474H102.605C92.8013 186.901 85.4067 171.742 80.7463 155.659Z" stroke="black" stroke-opacity="0.01"/>
<path d="M196.285 406.378C254.262 406.378 301.262 375.207 301.262 336.754C301.262 298.302 254.262 267.13 196.285 267.13C138.308 267.13 91.3081 298.302 91.3081 336.754C91.3081 375.207 138.308 406.378 196.285 406.378Z" fill="white"/>
<path d="M300.762 336.754C300.762 355.76 289.147 373.029 270.239 385.569C251.334 398.107 225.189 405.878 196.285 405.878C167.381 405.878 141.236 398.107 122.332 385.569C103.423 373.029 91.8081 355.76 91.8081 336.754C91.8081 317.749 103.423 300.48 122.332 287.939C141.236 275.402 167.381 267.63 196.285 267.63C225.189 267.63 251.334 275.402 270.239 287.939C289.147 300.48 300.762 317.749 300.762 336.754Z" stroke="black" stroke-opacity="0.01"/>
<path d="M111.308 322.554C111.308 313.154 111.778 303.865 112.647 294.678C99.2591 306.366 91.3081 320.943 91.3081 336.754C91.3081 354.269 101.062 370.271 117.159 382.506C113.307 362.754 111.348 342.679 111.308 322.554V322.554Z" fill="#E5E5E5"/>
<path d="M110.808 322.554H111.308L110.808 322.555C110.847 342.27 112.726 361.938 116.418 381.302C101.032 369.241 91.8081 353.69 91.8081 336.754C91.8081 321.496 99.2967 307.364 112.033 295.891C111.237 304.682 110.808 313.567 110.808 322.554Z" stroke="black" stroke-opacity="0.01"/>
<path d="M188.955 122.041H105.841C88.2411 122.041 75.3321 138.9 80.2661 155.798C84.9657 172.018 92.4373 187.302 102.35 200.974H137.544C150.587 172.212 167.922 145.598 188.955 122.041V122.041Z" fill="#4F4C5F"/>
<path d="M80.7463 155.659L80.746 155.658C75.9076 139.087 88.567 122.541 105.841 122.541H187.841C167.179 145.849 150.117 172.117 137.222 200.474H102.605C92.8009 186.902 85.4063 171.742 80.7463 155.659Z" stroke="black" stroke-opacity="0.01"/>
</svg>
