<svg width="512" height="512" viewBox="0 0 512 512" fill="none" xmlns="http://www.w3.org/2000/svg">
<path d="M388.618 210.23H353.588V124.545C353.571 118.288 354.795 112.091 357.19 106.31C359.584 100.53 363.102 95.282 367.538 90.8701L425.019 33.3901L449.788 58.1591L392.308 115.638C391.135 116.805 390.205 118.193 389.572 119.722C388.938 121.251 388.615 122.89 388.619 124.545L388.618 210.23Z" fill="#C7C5CB"/>
<path d="M425.018 33.3901L390.434 67.9731C390.611 68.1561 390.778 68.3441 390.958 68.5241L414.649 92.2161C414.829 92.3961 415.019 92.5651 415.201 92.7421L449.788 58.1581L425.018 33.3901Z" fill="#B2B0BC"/>
<path d="M462.632 44.2362L438.941 20.5442C435.392 16.9943 430.577 14.9998 425.557 14.9995C420.537 14.9992 415.723 16.9932 412.173 20.5427C408.623 24.0922 406.628 28.9066 406.628 33.9266C406.628 38.9467 408.622 43.7613 412.171 47.3112L435.862 71.0002C439.412 74.5501 444.226 76.5446 449.246 76.5449C454.266 76.5452 459.081 74.5512 462.631 71.0017C466.181 67.4522 468.175 62.6378 468.175 57.6178C468.176 52.5977 466.182 47.7831 462.632 44.2332V44.2362Z" fill="#5C586F"/>
<path d="M285.039 155.181H234.999V104.6C234.999 94.3326 230.92 84.4855 223.66 77.2253C216.4 69.965 206.553 65.8862 196.285 65.8862C186.017 65.8862 176.17 69.965 168.91 77.2253C161.65 84.4855 157.571 94.3326 157.571 104.6V155.18H107.531V104.6C107.531 92.9448 109.827 81.4036 114.287 70.6355C118.747 59.8674 125.285 50.0832 133.526 41.8416C141.768 33.6001 151.552 27.0625 162.32 22.6022C173.088 18.1419 184.63 15.8462 196.285 15.8462C207.94 15.8462 219.482 18.1419 230.25 22.6022C241.018 27.0625 250.802 33.6001 259.044 41.8416C267.285 50.0832 273.823 59.8674 278.283 70.6355C282.743 81.4036 285.039 92.9448 285.039 104.6V155.181Z" fill="#36D39A"/>
<path d="M388.618 162.728C377.183 159.376 365.026 159.376 353.59 162.728V210.228H388.618V162.728Z" fill="#B2B0BC"/>
<path d="M371.103 190.214C362.472 190.214 354.195 193.643 348.092 199.746C341.99 205.848 338.561 214.126 338.561 222.756V452.843C338.561 461.474 341.99 469.751 348.092 475.854C354.195 481.957 362.472 485.385 371.103 485.385C379.734 485.385 388.011 481.957 394.114 475.854C400.217 469.751 403.645 461.474 403.645 452.843V222.756C403.645 214.126 400.217 205.848 394.114 199.746C388.011 193.643 379.734 190.214 371.103 190.214Z" fill="#5C586F"/>
<path d="M403.645 304.488H310.626V359.516H403.645C410.942 359.516 417.94 356.617 423.1 351.458C428.26 346.298 431.159 339.299 431.159 332.002C431.159 324.705 428.26 317.707 423.1 312.547C417.94 307.387 410.942 304.488 403.645 304.488Z" fill="#C7C5CB"/>
<path d="M296.11 206.864L290.22 200.974L196.288 161.507L102.35 200.974L96.46 206.864C79.8284 223.496 66.6355 243.24 57.6346 264.97C48.6336 286.701 44.0009 309.991 44.001 333.511V441.617C44.001 460.284 51.4162 478.186 64.6153 491.385C77.8145 504.585 95.7164 512 114.383 512H278.188C296.855 512 314.757 504.585 327.956 491.386C341.156 478.186 348.571 460.284 348.571 441.617V333.511C348.57 286.009 329.7 240.453 296.111 206.864H296.11Z" fill="#36D39A"/>
<path d="M111.308 322.554C111.317 273.591 123.501 225.399 146.762 182.314L102.349 200.974L96.459 206.864C62.8702 240.453 44.0001 286.009 44 333.511V441.617C44 460.284 51.4153 478.186 64.6147 491.385C77.8141 504.585 95.7163 512 114.383 512H169.757C132.857 454.519 111.308 388.043 111.308 322.554Z" fill="#00C67F"/>
<path d="M171.308 19.7242C171.308 19.6242 171.308 19.5242 171.308 19.4302C152.914 24.8505 136.766 36.0724 125.272 51.4216C113.779 66.7708 107.555 85.4246 107.531 104.6V155.18H157.571V104.6C157.575 98.0419 159.245 91.592 162.424 85.8558C165.603 80.1197 170.188 75.2852 175.747 71.8062C172.823 54.599 171.338 37.178 171.308 19.7242Z" fill="#00C67F"/>
<path d="M286.729 122.04H105.841C88.2411 122.04 75.3321 138.899 80.2661 155.798C84.9662 172.018 92.4377 187.302 102.35 200.974H290.221C300.133 187.303 307.605 172.019 312.305 155.8C317.238 138.9 304.333 122.042 286.729 122.042V122.04Z" fill="#5C586F"/>
<path d="M196.285 406.378C254.262 406.378 301.262 375.207 301.262 336.754C301.262 298.302 254.262 267.13 196.285 267.13C138.308 267.13 91.3081 298.302 91.3081 336.754C91.3081 375.207 138.308 406.378 196.285 406.378Z" fill="white"/>
<path d="M111.308 322.554C111.308 313.154 111.778 303.865 112.647 294.678C99.2591 306.366 91.3081 320.943 91.3081 336.754C91.3081 354.269 101.062 370.271 117.159 382.506C113.307 362.754 111.348 342.679 111.308 322.554Z" fill="#E5E5E5"/>
<path d="M188.955 122.041H105.841C88.2411 122.041 75.3321 138.9 80.2661 155.798C84.9657 172.018 92.4373 187.302 102.35 200.974H137.544C150.587 172.212 167.922 145.598 188.955 122.041Z" fill="#4F4C5F"/>
</svg>
