<svg width="512" height="512" viewBox="0 0 512 512" fill="none" xmlns="http://www.w3.org/2000/svg">
<path d="M0.5 0.5H511.5V511.5H0.5V0.5Z" stroke="black" stroke-opacity="0.01"/>
<path d="M53.7141 28.6558H117.984V160.964H53.7141V28.6558Z" fill="#FCCB88"/>
<path d="M54.2141 29.1558H117.484V160.464H54.2141V29.1558Z" stroke="black" stroke-opacity="0.01"/>
<path d="M80.3701 168.466V472.219H432.729V168.466L256.549 75.2061L80.3701 168.466Z" fill="#FCCB88"/>
<path d="M432.229 471.719H80.8701V168.767L256.549 75.7718L432.229 168.767V471.719Z" stroke="black" stroke-opacity="0.01"/>
<path d="M106.895 283.032C106.734 233.837 116.264 185.092 134.94 139.579L80.3691 168.466V472.218H175.649C133.137 426.312 106.892 362.905 106.892 283.032H106.895Z" fill="#FAB659"/>
<path d="M106.392 283.032C106.392 362.536 132.36 425.78 174.508 471.718H80.8691V168.767L133.957 140.665C115.662 185.718 106.3 233.901 106.394 282.532H106.392V283.032Z" stroke="black" stroke-opacity="0.01"/>
<path d="M75.0801 70.2928C75.068 55.8173 78.4955 41.546 85.0801 28.6548H53.7141V160.963H117.984V148.363C92.1091 131.5 75.0801 102.828 75.0801 70.2928Z" fill="#FAB659"/>
<path d="M117.484 148.633V160.463H54.2141V29.1548H84.2673C77.8867 41.925 74.5682 56.0102 74.5801 70.2932C74.5803 102.913 91.6047 131.665 117.484 148.633Z" stroke="black" stroke-opacity="0.01"/>
<path d="M476.521 149.035L278.449 28.9232C271.847 24.9196 264.274 22.8027 256.553 22.8027C248.832 22.8027 241.259 24.9196 234.657 28.9232L36.5771 149.035C31.1261 152.341 27.2115 157.676 25.6944 163.868C24.1772 170.06 25.1818 176.601 28.4871 182.052L47.3491 213.163C50.6548 218.614 55.9904 222.529 62.1822 224.046C68.374 225.563 74.9149 224.558 80.3661 221.253L256.549 114.418L432.729 221.252C438.18 224.557 444.721 225.562 450.913 224.045C457.105 222.528 462.44 218.613 465.746 213.162L484.611 182.052C487.916 176.601 488.921 170.06 487.404 163.868C485.887 157.676 481.972 152.341 476.521 149.035V149.035Z" fill="#FF9DD3"/>
<path d="M234.916 29.3507L234.657 28.9232L234.916 29.3507C241.44 25.3945 248.924 23.3027 256.553 23.3027C264.183 23.3027 271.666 25.3945 278.19 29.3507L476.262 149.463C481.599 152.7 485.433 157.924 486.918 163.987C488.404 170.05 487.42 176.455 484.184 181.793L465.319 212.903C462.082 218.24 456.857 222.074 450.794 223.559C444.731 225.045 438.326 224.061 432.988 220.825L256.808 113.991L256.549 113.833L256.29 113.991L80.1068 220.826C74.7691 224.062 68.3642 225.046 62.3012 223.56C56.2381 222.075 51.0135 218.241 47.7766 212.904L28.9146 181.793L28.4871 182.052L28.9146 181.793C25.6781 176.455 24.6944 170.05 26.18 163.987C27.6656 157.924 31.4988 152.7 36.8363 149.463L234.916 29.3507Z" stroke="black" stroke-opacity="0.01"/>
<path d="M441.232 439.437H71.8661C66.6209 439.437 61.5906 441.521 57.8817 445.23C54.1728 448.938 52.0891 453.969 52.0891 459.214V485.223C52.089 487.82 52.6004 490.392 53.5943 492.791C54.5881 495.191 56.0449 497.371 57.8814 499.208C59.7179 501.044 61.8981 502.501 64.2976 503.495C66.6971 504.489 69.2689 505 71.8661 505H441.232C443.829 505 446.401 504.489 448.801 503.495C451.2 502.501 453.38 501.044 455.217 499.208C457.053 497.371 458.51 495.191 459.504 492.791C460.498 490.392 461.009 487.82 461.009 485.223V459.214C461.009 453.969 458.925 448.938 455.217 445.23C451.508 441.521 446.477 439.437 441.232 439.437V439.437Z" fill="#FF9DD3"/>
<path d="M71.8661 439.937H441.232C446.345 439.937 451.248 441.968 454.863 445.583C458.478 449.198 460.509 454.101 460.509 459.214V485.223C460.509 487.755 460.011 490.261 459.042 492.6C458.073 494.939 456.653 497.064 454.863 498.854C453.073 500.644 450.948 502.064 448.609 503.033C446.27 504.002 443.764 504.5 441.232 504.5H71.8661C69.3346 504.5 66.8278 504.002 64.489 503.033C62.1501 502.064 60.025 500.644 58.2349 498.854C56.4449 497.064 55.0249 494.939 54.0562 492.6C53.0875 490.261 52.589 487.755 52.5891 485.223V459.214C52.5891 454.101 54.6201 449.198 58.2352 445.583C61.8504 441.968 66.7535 439.937 71.8661 439.937Z" stroke="black" stroke-opacity="0.01"/>
<path d="M123.262 8H48.4352C46.8189 7.99987 45.2183 8.31813 43.725 8.93662C42.2316 9.55511 40.8748 10.4617 39.7318 11.6046C38.5889 12.7476 37.6823 14.1044 37.0638 15.5978C36.4453 17.0911 36.1271 18.6917 36.1272 20.308V37C36.1267 38.6166 36.4446 40.2175 37.063 41.7111C37.6813 43.2048 38.5878 44.5621 39.7308 45.7053C40.8737 46.8486 42.2308 47.7554 43.7243 48.3741C45.2178 48.9928 46.8186 49.3111 48.4352 49.311H123.262C124.879 49.3111 126.48 48.9928 127.973 48.3741C129.467 47.7554 130.824 46.8486 131.967 45.7053C133.11 44.5621 134.016 43.2048 134.634 41.7111C135.253 40.2175 135.571 38.6166 135.57 37V20.308C135.57 17.0438 134.273 13.9134 131.965 11.6052C129.657 9.29708 126.526 8.00027 123.262 8V8Z" fill="#FF9DD3"/>
<path d="M48.4352 8.5H48.4352H123.262C126.394 8.50025 129.397 9.74439 131.611 11.9588C133.826 14.1732 135.07 17.1764 135.07 20.308V37V37.0002C135.071 38.5511 134.766 40.0869 134.172 41.5199C133.579 42.9529 132.71 44.255 131.613 45.3518C130.517 46.4486 129.215 47.3186 127.782 47.9122C126.349 48.5057 124.813 48.8111 123.262 48.811H48.4352C46.8842 48.8111 45.3485 48.5057 43.9156 47.9122C42.4828 47.3186 41.1809 46.4486 40.0844 45.3518C38.9878 44.255 38.1181 42.9529 37.5249 41.5199C36.9318 40.0869 36.6267 38.5511 36.6272 37.0002V37V20.308V20.308C36.6271 18.7573 36.9324 17.2218 37.5258 15.7891C38.1191 14.3564 38.9889 13.0547 40.0854 11.9582C41.1819 10.8617 42.4836 9.99193 43.9163 9.39857C45.349 8.80521 46.8845 8.49987 48.4352 8.5Z" stroke="black" stroke-opacity="0.01"/>
<path d="M179.549 62.3359L36.5742 149.036C31.1232 152.342 27.2086 157.677 25.6915 163.869C24.1743 170.061 25.1789 176.602 28.4842 182.053L47.3492 213.163C48.9859 215.862 51.1382 218.212 53.6833 220.08C56.2283 221.947 59.1162 223.295 62.1821 224.046C65.2481 224.797 68.4319 224.937 71.5519 224.458C74.672 223.979 77.667 222.89 80.3662 221.253L116.002 199.644C127.585 147.7 149.719 100.8 179.549 62.3359Z" fill="#FF88CA"/>
<path d="M36.8334 149.463L177.525 64.1478C148.511 102.219 126.959 148.346 115.561 199.327L80.1069 220.825C77.4639 222.428 74.5312 223.495 71.476 223.964C68.4209 224.433 65.3033 224.296 62.3011 223.56C59.299 222.825 56.4711 221.505 53.979 219.677C51.4869 217.848 49.3794 215.547 47.7767 212.904L28.9117 181.794C25.6752 176.456 24.6915 170.051 26.1771 163.988C27.6627 157.925 31.4959 152.7 36.8334 149.463Z" stroke="black" stroke-opacity="0.01"/>
<path d="M150.082 439.437H71.8661C69.2689 439.437 66.6971 439.948 64.2976 440.942C61.8981 441.936 59.7179 443.393 57.8814 445.229C56.0449 447.066 54.5881 449.246 53.5943 451.646C52.6004 454.045 52.089 456.617 52.0891 459.214V485.223C52.0891 490.468 54.1728 495.499 57.8817 499.207C61.5906 502.916 66.6209 505 71.8661 505H212.681C187.961 487.181 166.74 464.954 150.082 439.437V439.437Z" fill="#FF88CA"/>
<path d="M149.812 439.937C166.199 464.981 186.977 486.853 211.141 504.5H71.8661C66.7535 504.5 61.8504 502.469 58.2352 498.854C54.6201 495.239 52.5891 490.336 52.5891 485.223V459.214C52.589 456.682 53.0875 454.176 54.0562 451.837C55.0249 449.498 56.4449 447.373 58.2349 445.583C60.025 443.793 62.1501 442.373 64.489 441.404C66.8278 440.435 69.3346 439.937 71.8661 439.937H149.812Z" stroke="black" stroke-opacity="0.01"/>
<path d="M271.249 293.833L274.649 284.909H298.092L301.452 293.809C302.155 295.67 303.568 297.176 305.381 297.995C307.194 298.814 309.258 298.879 311.119 298.176C312.98 297.473 314.486 296.06 315.305 294.247C316.124 292.434 316.189 290.37 315.486 288.509L294.643 233.28C294.617 233.21 294.589 233.14 294.561 233.071C293.903 231.462 292.78 230.087 291.336 229.12C289.891 228.153 288.191 227.638 286.453 227.642H286.44C284.7 227.641 282.999 228.158 281.555 229.129C280.111 230.1 278.99 231.48 278.335 233.092C278.312 233.148 278.29 233.205 278.268 233.261L257.229 288.494C256.862 289.418 256.682 290.405 256.7 291.399C256.718 292.393 256.933 293.373 257.333 294.283C257.733 295.193 258.31 296.015 259.03 296.7C259.751 297.385 260.6 297.92 261.529 298.273C262.458 298.627 263.448 298.793 264.441 298.761C265.435 298.729 266.412 298.499 267.316 298.086C268.22 297.673 269.033 297.084 269.708 296.354C270.382 295.624 270.905 294.767 271.245 293.833H271.249ZM286.423 253.993L292.43 269.909H280.357L286.423 253.993Z" fill="white"/>
<path d="M294.561 233.071L294.098 233.26C293.478 231.744 292.419 230.447 291.057 229.535C289.696 228.623 288.093 228.138 286.454 228.142L286.453 228.142L286.44 228.142H286.44C284.799 228.141 283.196 228.629 281.834 229.544C280.473 230.46 279.416 231.761 278.798 233.28L278.798 233.282C278.781 233.322 278.766 233.361 278.749 233.405C278.744 233.417 278.74 233.429 278.735 233.441C278.734 233.442 278.734 233.443 278.734 233.444L257.696 288.672L257.694 288.679L257.694 288.679C257.351 289.541 257.183 290.463 257.2 291.39C257.216 292.318 257.417 293.233 257.791 294.082C258.164 294.931 258.703 295.698 259.375 296.337C260.047 296.977 260.84 297.476 261.707 297.806C262.574 298.136 263.498 298.291 264.425 298.261C265.352 298.231 266.264 298.017 267.108 297.631C267.952 297.246 268.711 296.696 269.34 296.015C269.97 295.333 270.458 294.534 270.775 293.662L270.895 293.333H270.905L274.182 284.731L274.305 284.409H274.649H298.092H298.438L298.56 284.733L301.92 293.633C302.576 295.369 303.895 296.775 305.587 297.539C307.279 298.303 309.206 298.364 310.943 297.708C312.68 297.052 314.085 295.733 314.849 294.041C315.614 292.349 315.674 290.423 315.018 288.686L315.018 288.686L294.175 233.457L294.175 233.454C294.151 233.391 294.126 233.327 294.098 233.259L294.561 233.071ZM294.561 233.071C293.903 231.462 292.78 230.087 291.336 229.12C289.891 228.153 288.191 227.638 286.453 227.642L294.561 233.071ZM286.891 253.817L286.426 252.583L285.956 253.815L279.89 269.731L279.632 270.409H280.357H292.43H293.153L292.898 269.733L286.891 253.817Z" stroke="black" stroke-opacity="0.01"/>
<path d="M169.218 298.663C194.688 298.663 204.786 266.928 176.678 256.563C169.883 254.057 163.55 251.329 161.517 250.439C159.399 248.669 159.973 244.569 164.48 243.21C172.098 240.915 179.213 246.504 179.437 246.683C180.965 247.958 182.936 248.573 184.918 248.394C186.899 248.215 188.729 247.257 190.003 245.729C191.278 244.201 191.893 242.23 191.714 240.248C191.536 238.267 190.577 236.438 189.049 235.163C188.512 234.711 175.717 224.157 160.149 228.844C143.301 233.92 140.349 254.576 153.685 263.27C155.676 264.57 169.113 269.758 171.485 270.632C173.31 271.305 179.208 273.803 178.512 277.703C177.989 280.632 174.369 283.661 169.217 283.661C166.614 283.696 164.031 283.196 161.629 282.191C159.227 281.187 157.057 279.699 155.254 277.821C154.593 277.091 153.794 276.499 152.904 276.077C152.013 275.656 151.049 275.415 150.065 275.366C149.081 275.318 148.098 275.464 147.17 275.796C146.243 276.127 145.39 276.638 144.66 277.3C143.93 277.961 143.338 278.76 142.917 279.65C142.496 280.541 142.254 281.505 142.206 282.489C142.157 283.473 142.303 284.456 142.635 285.384C142.967 286.311 143.478 287.164 144.139 287.894C147.339 291.336 151.222 294.072 155.541 295.927C159.859 297.781 164.518 298.713 169.217 298.663H169.218Z" fill="white"/>
<path d="M161.197 250.823L161.251 250.868L161.317 250.897C163.353 251.789 169.697 254.521 176.505 257.032L176.678 256.563L176.505 257.032C183.444 259.591 187.982 263.451 190.521 267.767C193.061 272.083 193.623 276.888 192.553 281.384C190.415 290.376 181.734 298.163 169.218 298.163L169.217 298.163L169.212 298.163C164.582 298.213 159.993 297.294 155.738 295.467C151.485 293.641 147.66 290.946 144.508 287.556C143.891 286.875 143.415 286.08 143.106 285.215C142.796 284.35 142.66 283.432 142.705 282.514C142.75 281.595 142.976 280.695 143.369 279.864C143.762 279.033 144.315 278.288 144.996 277.67C145.677 277.053 146.473 276.576 147.339 276.266C148.204 275.957 149.122 275.821 150.041 275.866C150.959 275.911 151.859 276.136 152.69 276.529C153.521 276.923 154.266 277.475 154.884 278.157L154.889 278.162L154.893 278.167C156.744 280.095 158.971 281.621 161.436 282.653C163.9 283.683 166.55 284.197 169.221 284.161C174.532 284.16 178.426 281.03 179.004 277.791L179.004 277.791C179.406 275.542 177.889 273.775 176.242 272.555C174.569 271.317 172.585 270.505 171.658 270.163L171.658 270.163C170.478 269.728 166.53 268.214 162.629 266.647C160.678 265.863 158.742 265.067 157.172 264.387C155.582 263.699 154.413 263.148 153.959 262.851L153.958 262.851C141.014 254.412 143.812 234.288 160.293 229.323C167.935 227.022 174.905 228.458 180.048 230.54C185.194 232.622 188.481 235.339 188.727 235.545L188.729 235.547C190.155 236.736 191.049 238.444 191.216 240.293C191.383 242.143 190.809 243.983 189.619 245.409C188.43 246.834 186.722 247.729 184.873 247.896C183.023 248.063 181.183 247.489 179.757 246.299L179.758 246.299L179.749 246.292C179.617 246.186 177.74 244.714 174.921 243.556C172.105 242.4 168.297 241.538 164.336 242.731L164.336 242.731C161.95 243.45 160.536 244.922 160.037 246.521C159.541 248.109 159.966 249.794 161.197 250.823ZM155.541 295.927C159.859 297.781 164.518 298.713 169.217 298.663L155.254 277.821C154.593 277.091 153.794 276.499 152.904 276.077C152.013 275.656 151.049 275.415 150.065 275.366C149.081 275.318 148.098 275.464 147.17 275.796C146.243 276.127 145.39 276.638 144.66 277.3C143.93 277.961 143.338 278.76 142.917 279.65C142.496 280.541 142.254 281.505 142.206 282.489C142.157 283.473 142.303 284.456 142.635 285.384C142.967 286.311 143.478 287.164 144.139 287.894C147.339 291.336 151.222 294.072 155.541 295.927Z" stroke="black" stroke-opacity="0.01"/>
<path d="M369.686 239.381C370.238 238.556 370.62 237.63 370.811 236.656C371.002 235.681 370.998 234.679 370.798 233.707C370.599 232.734 370.209 231.811 369.65 230.991C369.091 230.17 368.375 229.469 367.543 228.928C366.711 228.386 365.78 228.015 364.804 227.836C363.827 227.657 362.825 227.674 361.855 227.885C360.885 228.096 359.967 228.498 359.154 229.066C358.34 229.635 357.647 230.36 357.116 231.198L345.649 248.818L334.049 231.047C332.962 229.382 331.257 228.216 329.311 227.807C327.364 227.398 325.334 227.779 323.669 228.867C322.003 229.954 320.837 231.659 320.429 233.605C320.02 235.552 320.401 237.582 321.488 239.247L338.149 264.774L338.084 291.145C338.082 292.13 338.273 293.106 338.648 294.017C339.022 294.928 339.573 295.756 340.267 296.454C340.962 297.152 341.787 297.707 342.696 298.086C343.605 298.465 344.58 298.662 345.565 298.664H345.584C347.57 298.664 349.475 297.877 350.881 296.474C352.287 295.072 353.079 293.169 353.084 291.183L353.149 264.783L369.686 239.381Z" fill="white"/>
<path d="M369.27 239.103L369.27 239.103L369.267 239.109L352.73 264.511L352.65 264.634L352.649 264.782L352.584 291.182C352.579 293.035 351.84 294.811 350.528 296.12C349.215 297.429 347.438 298.164 345.584 298.164H345.566C344.647 298.162 343.737 297.979 342.889 297.625C342.041 297.271 341.27 296.753 340.622 296.102C339.974 295.45 339.46 294.677 339.11 293.827C338.761 292.977 338.582 292.066 338.584 291.147L338.649 264.776L338.65 264.626L338.568 264.501L321.907 238.974L321.907 238.974C320.892 237.419 320.536 235.525 320.918 233.708C321.3 231.891 322.387 230.3 323.942 229.285C325.497 228.271 327.391 227.915 329.208 228.297C331.025 228.678 332.616 229.766 333.63 231.321C333.63 231.321 333.63 231.321 333.63 231.321L345.23 249.092L345.65 249.734L346.068 249.091L357.535 231.471L357.535 231.471L357.538 231.466C358.034 230.683 358.681 230.007 359.44 229.476C360.199 228.945 361.056 228.57 361.962 228.373C362.867 228.176 363.802 228.161 364.713 228.328C365.625 228.495 366.494 228.841 367.27 229.347C368.047 229.852 368.715 230.507 369.237 231.272C369.758 232.038 370.122 232.9 370.309 233.807C370.495 234.715 370.499 235.65 370.32 236.559C370.142 237.468 369.785 238.333 369.27 239.103Z" stroke="black" stroke-opacity="0.01"/>
<path d="M211.649 242.647H219.549V291.163C219.549 293.152 220.339 295.06 221.746 296.466C223.152 297.873 225.06 298.663 227.049 298.663C229.038 298.663 230.946 297.873 232.352 296.466C233.759 295.06 234.549 293.152 234.549 291.163V242.647H242.579C244.568 242.647 246.476 241.857 247.882 240.45C249.289 239.044 250.079 237.136 250.079 235.147C250.079 233.158 249.289 231.25 247.882 229.844C246.476 228.437 244.568 227.647 242.579 227.647H211.649C209.66 227.647 207.752 228.437 206.346 229.844C204.939 231.25 204.149 233.158 204.149 235.147C204.149 237.136 204.939 239.044 206.346 240.45C207.752 241.857 209.66 242.647 211.649 242.647Z" fill="white"/>
<path d="M220.049 242.647V242.147H219.549H211.649C209.793 242.147 208.012 241.409 206.699 240.097C205.387 238.784 204.649 237.003 204.649 235.147C204.649 233.29 205.387 231.51 206.699 230.197C208.012 228.884 209.793 228.147 211.649 228.147H242.579C244.436 228.147 246.216 228.884 247.529 230.197C248.842 231.51 249.579 233.29 249.579 235.147C249.579 237.003 248.842 238.784 247.529 240.097C246.216 241.409 244.436 242.147 242.579 242.147H234.549H234.049V242.647V291.163C234.049 293.019 233.312 294.8 231.999 296.113C230.686 297.425 228.906 298.163 227.049 298.163C225.193 298.163 223.412 297.425 222.099 296.113C220.787 294.8 220.049 293.019 220.049 291.163V242.647Z" stroke="black" stroke-opacity="0.01"/>
<mask id="path-28-inside-1_116_6727" fill="white">
<path d="M329.673 332.171C329.283 330.251 328.26 328.518 326.768 327.247C325.277 325.976 323.403 325.242 321.445 325.162C319.487 325.081 317.559 325.659 315.968 326.802C314.377 327.946 313.216 329.59 312.668 331.471L303.105 365.019C289.753 319.769 294.028 333.907 293.105 331.13C290.251 322.63 277.896 323.393 276.171 332.349L266.323 386.9C266.139 387.873 266.15 388.873 266.354 389.842C266.558 390.811 266.953 391.73 267.514 392.545C268.075 393.361 268.792 394.058 269.624 394.595C270.456 395.132 271.386 395.499 272.361 395.675C273.335 395.851 274.335 395.832 275.302 395.62C276.269 395.407 277.185 395.005 277.996 394.437C278.807 393.869 279.497 393.146 280.027 392.309C280.557 391.473 280.917 390.54 281.084 389.564L286.255 360.916L294.815 389.929C294.841 390.018 294.87 390.108 294.899 390.197C295.483 391.938 296.599 393.452 298.09 394.524C299.581 395.596 301.372 396.172 303.208 396.17H303.253C305.097 396.163 306.892 395.574 308.381 394.486C309.87 393.398 310.978 391.868 311.545 390.113C311.573 390.026 311.6 389.939 311.625 389.851L319.888 360.866L325.388 389.64C325.561 390.619 325.927 391.553 326.464 392.389C327.001 393.225 327.699 393.946 328.517 394.51C329.335 395.074 330.257 395.47 331.23 395.675C332.202 395.879 333.206 395.889 334.182 395.702C335.158 395.516 336.087 395.137 336.916 394.588C337.744 394.04 338.455 393.332 339.008 392.506C339.56 391.68 339.943 390.752 340.134 389.777C340.325 388.802 340.321 387.798 340.12 386.825L329.673 332.171Z"/>
</mask>
<path d="M329.673 332.171C329.283 330.251 328.26 328.518 326.768 327.247C325.277 325.976 323.403 325.242 321.445 325.162C319.487 325.081 317.559 325.659 315.968 326.802C314.377 327.946 313.216 329.59 312.668 331.471L303.105 365.019C289.753 319.769 294.028 333.907 293.105 331.13C290.251 322.63 277.896 323.393 276.171 332.349L266.323 386.9C266.139 387.873 266.15 388.873 266.354 389.842C266.558 390.811 266.953 391.73 267.514 392.545C268.075 393.361 268.792 394.058 269.624 394.595C270.456 395.132 271.386 395.499 272.361 395.675C273.335 395.851 274.335 395.832 275.302 395.62C276.269 395.407 277.185 395.005 277.996 394.437C278.807 393.869 279.497 393.146 280.027 392.309C280.557 391.473 280.917 390.54 281.084 389.564L286.255 360.916L294.815 389.929C294.841 390.018 294.87 390.108 294.899 390.197C295.483 391.938 296.599 393.452 298.09 394.524C299.581 395.596 301.372 396.172 303.208 396.17H303.253C305.097 396.163 306.892 395.574 308.381 394.486C309.87 393.398 310.978 391.868 311.545 390.113C311.573 390.026 311.6 389.939 311.625 389.851L319.888 360.866L325.388 389.64C325.561 390.619 325.927 391.553 326.464 392.389C327.001 393.225 327.699 393.946 328.517 394.51C329.335 395.074 330.257 395.47 331.23 395.675C332.202 395.879 333.206 395.889 334.182 395.702C335.158 395.516 336.087 395.137 336.916 394.588C337.744 394.04 338.455 393.332 339.008 392.506C339.56 391.68 339.943 390.752 340.134 389.777C340.325 388.802 340.321 387.798 340.12 386.825L329.673 332.171Z" fill="white"/>
<path d="M329.673 332.171L330.656 331.983L330.653 331.972L329.673 332.171ZM312.668 331.471L311.708 331.192L311.707 331.197L312.668 331.471ZM303.105 365.019L302.146 365.302L303.122 368.609L304.067 365.293L303.105 365.019ZM293.105 331.13L294.054 330.815L294.053 330.812L293.105 331.13ZM276.171 332.349L275.189 332.16L275.187 332.171L276.171 332.349ZM266.323 386.9L267.306 387.086L267.307 387.078L266.323 386.9ZM281.084 389.564L280.1 389.386L280.099 389.395L281.084 389.564ZM286.255 360.916L287.214 360.633L285.271 360.738L286.255 360.916ZM294.815 389.929L295.775 389.649L295.774 389.646L294.815 389.929ZM294.899 390.197L293.949 390.507L293.951 390.515L294.899 390.197ZM303.208 396.17L303.208 395.17L303.207 395.17L303.208 396.17ZM303.253 396.17V397.17L303.257 397.17L303.253 396.17ZM311.545 390.113L312.497 390.421L312.497 390.419L311.545 390.113ZM311.625 389.851L310.664 389.577L310.663 389.578L311.625 389.851ZM319.888 360.866L320.871 360.678L318.927 360.592L319.888 360.866ZM325.388 389.64L326.373 389.466L326.371 389.452L325.388 389.64ZM340.12 386.825L339.138 387.013L339.141 387.026L340.12 386.825ZM330.653 331.972C330.218 329.833 329.078 327.901 327.417 326.486L326.12 328.008C327.441 329.134 328.347 330.67 328.693 332.37L330.653 331.972ZM327.417 326.486C325.755 325.07 323.667 324.252 321.486 324.163L321.404 326.161C323.138 326.232 324.798 326.883 326.12 328.008L327.417 326.486ZM321.486 324.163C319.305 324.073 317.157 324.716 315.385 325.99L316.552 327.614C317.961 326.601 319.67 326.089 321.404 326.161L321.486 324.163ZM315.385 325.99C313.612 327.265 312.318 329.096 311.708 331.192L313.629 331.75C314.113 330.084 315.143 328.628 316.552 327.614L315.385 325.99ZM311.707 331.197L302.144 364.745L304.067 365.293L313.63 331.745L311.707 331.197ZM304.064 364.736C297.389 342.111 295.12 334.335 294.405 331.869C294.226 331.252 294.145 330.968 294.116 330.868C294.109 330.842 294.105 330.829 294.104 330.825C294.103 330.822 294.104 330.824 294.105 330.827C294.106 330.833 293.41 332.058 292.182 331.377C292.181 331.374 292.18 331.37 292.18 331.37C292.179 331.369 292.179 331.368 292.179 331.369C292.18 331.37 292.18 331.373 292.182 331.378C292.187 331.398 292.2 331.444 292.215 331.497C292.23 331.552 292.246 331.611 292.257 331.657C292.263 331.68 292.267 331.695 292.268 331.702C292.275 331.733 292.261 331.679 292.255 331.604C292.254 331.588 292.247 331.507 292.261 331.403C292.267 331.358 292.285 331.23 292.358 331.085C292.433 330.936 292.645 330.625 293.079 330.549C293.469 330.481 293.747 330.659 293.834 330.721C293.939 330.797 294.005 330.876 294.03 330.908C294.086 330.978 294.119 331.039 294.127 331.053C294.159 331.113 294.173 331.157 294.159 331.118C294.144 331.078 294.112 330.988 294.054 330.815L292.156 331.445C292.214 331.62 292.257 331.744 292.287 331.824C292.295 331.845 292.325 331.926 292.367 332.003C292.377 332.021 292.411 332.086 292.469 332.157C292.495 332.19 292.561 332.27 292.667 332.346C292.755 332.409 293.034 332.587 293.424 332.519C293.858 332.443 294.071 332.132 294.146 331.982C294.219 331.836 294.238 331.708 294.244 331.661C294.258 331.556 294.251 331.472 294.249 331.451C294.242 331.36 294.222 331.275 294.22 331.266C294.213 331.233 294.204 331.197 294.196 331.166C294.18 331.101 294.16 331.029 294.144 330.97C294.128 330.909 294.113 330.858 294.107 330.835C294.105 330.83 294.104 330.825 294.103 330.823C294.103 330.822 294.103 330.821 294.103 330.82C294.102 330.819 294.101 330.815 294.1 330.812C292.872 330.132 292.176 331.356 292.178 331.363C292.178 331.366 292.179 331.369 292.179 331.369C292.181 331.375 292.185 331.39 292.193 331.416C292.223 331.521 292.305 331.808 292.484 332.426C293.2 334.897 295.47 342.677 302.146 365.302L304.064 364.736ZM294.053 330.812C290.871 321.333 277.108 322.198 275.189 332.16L277.153 332.538C278.685 324.588 289.632 323.927 292.157 331.448L294.053 330.812ZM275.187 332.171L265.339 386.722L267.307 387.078L277.155 332.527L275.187 332.171ZM265.341 386.714C265.132 387.817 265.144 388.95 265.376 390.048L267.333 389.635C267.155 388.796 267.146 387.929 267.306 387.086L265.341 386.714ZM265.376 390.048C265.607 391.146 266.054 392.188 266.69 393.112L268.338 391.979C267.851 391.271 267.51 390.475 267.333 389.635L265.376 390.048ZM266.69 393.112C267.326 394.037 268.139 394.826 269.082 395.435L270.167 393.755C269.446 393.289 268.824 392.686 268.338 391.979L266.69 393.112ZM269.082 395.435C270.025 396.044 271.079 396.46 272.183 396.659L272.538 394.691C271.694 394.538 270.888 394.22 270.167 393.755L269.082 395.435ZM272.183 396.659C273.287 396.858 274.42 396.837 275.516 396.596L275.087 394.643C274.249 394.827 273.383 394.843 272.538 394.691L272.183 396.659ZM275.516 396.596C276.613 396.355 277.65 395.9 278.569 395.256L277.422 393.618C276.719 394.11 275.926 394.459 275.087 394.643L275.516 396.596ZM278.569 395.256C279.489 394.612 280.271 393.793 280.872 392.845L279.183 391.774C278.723 392.499 278.125 393.126 277.422 393.618L278.569 395.256ZM280.872 392.845C281.473 391.897 281.88 390.839 282.07 389.733L280.099 389.395C279.954 390.241 279.642 391.049 279.183 391.774L280.872 392.845ZM282.068 389.742L287.239 361.094L285.271 360.738L280.1 389.386L282.068 389.742ZM285.296 361.199L293.856 390.212L295.774 389.646L287.214 360.633L285.296 361.199ZM293.855 390.209C293.886 390.315 293.919 390.418 293.949 390.507L295.85 389.887C295.821 389.799 295.797 389.721 295.775 389.649L293.855 390.209ZM293.951 390.515C294.601 392.455 295.845 394.142 297.506 395.336L298.674 393.712C297.353 392.763 296.364 391.422 295.848 389.879L293.951 390.515ZM297.506 395.336C299.168 396.531 301.163 397.172 303.209 397.17L303.207 395.17C301.581 395.172 299.995 394.662 298.674 393.712L297.506 395.336ZM303.208 397.17H303.253V395.17H303.208V397.17ZM303.257 397.17C305.312 397.162 307.312 396.505 308.971 395.293L307.791 393.678C306.473 394.642 304.883 395.164 303.25 395.17L303.257 397.17ZM308.971 395.293C310.63 394.081 311.864 392.376 312.497 390.421L310.594 389.805C310.091 391.359 309.11 392.715 307.791 393.678L308.971 395.293ZM312.497 390.419C312.527 390.326 312.558 390.227 312.587 390.124L310.663 389.578C310.643 389.651 310.619 389.726 310.593 389.807L312.497 390.419ZM312.587 390.125L320.85 361.14L318.927 360.592L310.664 389.577L312.587 390.125ZM318.906 361.054L324.406 389.828L326.371 389.452L320.871 360.678L318.906 361.054ZM324.404 389.814C324.599 390.923 325.014 391.982 325.623 392.93L327.305 391.849C326.84 391.124 326.523 390.314 326.373 389.466L324.404 389.814ZM325.623 392.93C326.231 393.877 327.022 394.694 327.949 395.334L329.085 393.687C328.376 393.198 327.771 392.573 327.305 391.849L325.623 392.93ZM327.949 395.334C328.877 395.973 329.922 396.421 331.024 396.653L331.436 394.696C330.593 394.519 329.794 394.176 329.085 393.687L327.949 395.334ZM331.024 396.653C332.126 396.885 333.263 396.896 334.369 396.684L333.994 394.72C333.148 394.882 332.278 394.874 331.436 394.696L331.024 396.653ZM334.369 396.684C335.476 396.473 336.529 396.044 337.468 395.422L336.363 393.755C335.645 394.23 334.84 394.558 333.994 394.72L334.369 396.684ZM337.468 395.422C338.407 394.8 339.213 393.998 339.839 393.062L338.177 391.95C337.698 392.666 337.081 393.279 336.363 393.755L337.468 395.422ZM339.839 393.062C340.465 392.126 340.899 391.074 341.116 389.969L339.153 389.585C338.987 390.43 338.655 391.234 338.177 391.95L339.839 393.062ZM341.116 389.969C341.332 388.864 341.327 387.727 341.1 386.624L339.141 387.026C339.314 387.87 339.318 388.74 339.153 389.585L341.116 389.969ZM341.103 386.637L330.656 331.983L328.691 332.359L339.138 387.013L341.103 386.637Z" fill="black" fill-opacity="0.01" mask="url(#path-28-inside-1_116_6727)"/>
<path d="M167.107 325.157C165.118 325.157 163.21 325.947 161.804 327.354C160.397 328.76 159.607 330.668 159.607 332.657V352.205H135.843V332.657C135.843 330.668 135.053 328.76 133.647 327.354C132.24 325.947 130.332 325.157 128.343 325.157C126.354 325.157 124.446 325.947 123.04 327.354C121.633 328.76 120.843 330.668 120.843 332.657V388.674C120.843 390.663 121.633 392.571 123.04 393.978C124.446 395.384 126.354 396.174 128.343 396.174C130.332 396.174 132.24 395.384 133.647 393.978C135.053 392.571 135.843 390.663 135.843 388.674V367.205H159.607V388.674C159.607 390.663 160.397 392.571 161.804 393.978C163.21 395.384 165.118 396.174 167.107 396.174C169.096 396.174 171.004 395.384 172.411 393.978C173.817 392.571 174.607 390.663 174.607 388.674V332.657C174.607 330.668 173.817 328.76 172.411 327.354C171.004 325.947 169.096 325.157 167.107 325.157Z" fill="white"/>
<path d="M159.607 352.705H160.107V352.205V332.657C160.107 330.801 160.845 329.02 162.158 327.707C163.47 326.395 165.251 325.657 167.107 325.657C168.964 325.657 170.744 326.395 172.057 327.707C173.37 329.02 174.107 330.801 174.107 332.657V388.674C174.107 390.531 173.37 392.311 172.057 393.624C170.744 394.937 168.964 395.674 167.107 395.674C165.251 395.674 163.47 394.937 162.158 393.624C160.845 392.311 160.107 390.531 160.107 388.674V367.205V366.705H159.607H135.843H135.343V367.205V388.674C135.343 390.531 134.606 392.311 133.293 393.624C131.98 394.937 130.2 395.674 128.343 395.674C126.487 395.674 124.706 394.937 123.394 393.624C122.081 392.311 121.343 390.531 121.343 388.674V332.657C121.343 330.801 122.081 329.02 123.394 327.707C124.706 326.395 126.487 325.657 128.343 325.657C130.2 325.657 131.98 326.395 133.293 327.707C134.606 329.02 135.343 330.801 135.343 332.657V352.205V352.705H135.843H159.607Z" stroke="black" stroke-opacity="0.01"/>
<path d="M384.755 381.173H368.868V368.421H383.031C385.02 368.421 386.928 367.631 388.334 366.224C389.741 364.818 390.531 362.91 390.531 360.921C390.531 358.932 389.741 357.024 388.334 355.618C386.928 354.211 385.02 353.421 383.031 353.421H368.868V340.669H384.755C386.744 340.669 388.652 339.879 390.058 338.472C391.465 337.066 392.255 335.158 392.255 333.169C392.255 331.18 391.465 329.272 390.058 327.866C388.652 326.459 386.744 325.669 384.755 325.669H361.368C359.379 325.669 357.471 326.459 356.065 327.866C354.658 329.272 353.868 331.18 353.868 333.169V388.674C353.868 390.663 354.658 392.571 356.065 393.977C357.471 395.384 359.379 396.174 361.368 396.174H384.755C386.744 396.174 388.652 395.384 390.058 393.977C391.465 392.571 392.255 390.663 392.255 388.674C392.255 386.685 391.465 384.777 390.058 383.371C388.652 381.964 386.744 381.174 384.755 381.174V381.173Z" fill="white"/>
<path d="M368.868 381.673H384.255V381.674H384.755C386.612 381.674 388.392 382.411 389.705 383.724C391.018 385.037 391.755 386.817 391.755 388.674C391.755 390.53 391.018 392.311 389.705 393.624C388.392 394.936 386.612 395.674 384.755 395.674H361.368C359.512 395.674 357.731 394.936 356.418 393.624C355.106 392.311 354.368 390.53 354.368 388.674V333.169C354.368 331.312 355.106 329.532 356.418 328.219C357.731 326.906 359.512 326.169 361.368 326.169H384.755C386.612 326.169 388.392 326.906 389.705 328.219C391.018 329.532 391.755 331.312 391.755 333.169C391.755 335.025 391.018 336.806 389.705 338.119C388.392 339.431 386.612 340.169 384.755 340.169H368.868H368.368V340.669V353.421V353.921H368.868H383.031C384.888 353.921 386.668 354.658 387.981 355.971C389.294 357.284 390.031 359.064 390.031 360.921C390.031 362.777 389.294 364.558 387.981 365.871C386.668 367.183 384.888 367.921 383.031 367.921H368.868H368.368V368.421V381.173V381.673H368.868Z" stroke="black" stroke-opacity="0.01"/>
<path d="M222.837 325.157C215.815 325.158 208.95 327.241 203.111 331.143C197.272 335.045 192.722 340.591 190.035 347.08C187.348 353.568 186.645 360.707 188.016 367.595C189.387 374.483 192.769 380.809 197.735 385.775C202.701 390.74 209.028 394.121 215.915 395.491C222.803 396.861 229.943 396.158 236.431 393.47C242.919 390.782 248.464 386.231 252.365 380.392C256.267 374.553 258.349 367.688 258.349 360.665C258.339 351.25 254.594 342.224 247.936 335.568C241.278 328.911 232.252 325.167 222.837 325.157ZM222.837 381.173C218.781 381.172 214.817 379.969 211.445 377.715C208.073 375.461 205.445 372.258 203.893 368.511C202.342 364.763 201.936 360.64 202.728 356.662C203.52 352.684 205.473 349.03 208.341 346.162C211.21 343.295 214.864 341.342 218.842 340.551C222.82 339.76 226.943 340.166 230.69 341.719C234.437 343.271 237.64 345.9 239.893 349.272C242.147 352.644 243.349 356.609 243.349 360.665C243.343 366.103 241.18 371.316 237.334 375.161C233.489 379.006 228.275 381.168 222.837 381.173V381.173Z" fill="white"/>
<path d="M243.849 360.666V360.665C243.849 356.51 242.617 352.449 240.309 348.994C238.001 345.54 234.72 342.847 230.882 341.257C227.043 339.667 222.819 339.25 218.744 340.061C214.669 340.871 210.926 342.871 207.988 345.809C205.05 348.746 203.048 352.489 202.237 356.564C201.426 360.639 201.842 364.863 203.431 368.702C205.021 372.541 207.713 375.822 211.167 378.131C214.621 380.44 218.682 381.672 222.837 381.673L222.837 381.173L222.838 381.673C228.408 381.668 233.749 379.453 237.688 375.515C241.627 371.576 243.843 366.236 243.849 360.666ZM203.389 331.559C209.145 327.712 215.913 325.658 222.837 325.657C232.119 325.667 241.019 329.358 247.583 335.921C254.147 342.484 257.839 351.383 257.849 360.666C257.849 367.589 255.796 374.357 251.95 380.114C248.103 385.871 242.636 390.358 236.239 393.008C229.843 395.658 222.804 396.351 216.013 395.001C209.222 393.65 202.984 390.317 198.088 385.421C193.192 380.525 189.858 374.288 188.506 367.497C187.155 360.707 187.848 353.668 190.497 347.271C193.146 340.874 197.632 335.406 203.389 331.559Z" stroke="black" stroke-opacity="0.01"/>
<path d="M99.4062 8H48.4352C45.1709 8 42.0403 9.29673 39.7321 11.6049C37.4239 13.9131 36.1272 17.0437 36.1272 20.308V37C36.1268 38.6166 36.4449 40.2174 37.0632 41.711C37.6816 43.2046 38.5881 44.5618 39.7311 45.705C40.874 46.8482 42.231 47.7551 43.7244 48.3738C45.2179 48.9925 46.8186 49.311 48.4352 49.311H77.5042C81.1585 33.8967 88.6986 19.6748 99.4062 8V8Z" fill="#FF88CA"/>
<path d="M48.4352 8.5H98.2785C88.0035 19.9793 80.7289 33.8282 77.1097 48.811H48.4352C46.8843 48.811 45.3486 48.5055 43.9158 47.9119C42.483 47.3183 41.1812 46.4483 40.0847 45.3515C38.9882 44.2547 38.1184 42.9527 37.5252 41.5197C36.932 40.0868 36.6268 38.551 36.6272 37.0001V37V20.308C36.6272 17.1763 37.8713 14.1729 40.0857 11.9585C42.3001 9.74405 45.3035 8.5 48.4352 8.5Z" stroke="black" stroke-opacity="0.01"/>
</svg>
