<svg width="512" height="512" viewBox="0 0 512 512" fill="none" xmlns="http://www.w3.org/2000/svg">
<path d="M53.7141 28.6558H117.984V160.964H53.7141V28.6558Z" fill="#FCCB88"/>
<path d="M80.3701 168.466V472.219H432.729V168.466L256.549 75.2061L80.3701 168.466Z" fill="#FCCB88"/>
<path d="M106.895 283.032C106.734 233.837 116.264 185.092 134.94 139.579L80.3691 168.466V472.218H175.649C133.137 426.312 106.892 362.905 106.892 283.032H106.895Z" fill="#FAB659"/>
<path d="M75.0801 70.2928C75.068 55.8173 78.4955 41.546 85.0801 28.6548H53.7141V160.963H117.984V148.363C92.1091 131.5 75.0801 102.828 75.0801 70.2928Z" fill="#FAB659"/>
<path d="M476.521 149.035L278.449 28.9232C271.847 24.9196 264.274 22.8027 256.553 22.8027C248.832 22.8027 241.259 24.9196 234.657 28.9232L36.5771 149.035C31.1261 152.341 27.2115 157.676 25.6944 163.868C24.1772 170.06 25.1818 176.601 28.4871 182.052L47.3491 213.163C50.6548 218.614 55.9904 222.529 62.1822 224.046C68.374 225.563 74.9149 224.558 80.3661 221.253L256.549 114.418L432.729 221.252C438.18 224.557 444.721 225.562 450.913 224.045C457.105 222.528 462.44 218.613 465.746 213.162L484.611 182.052C487.916 176.601 488.921 170.06 487.404 163.868C485.887 157.676 481.972 152.341 476.521 149.035Z" fill="#FF9DD3"/>
<path d="M441.232 439.437H71.8661C66.6209 439.437 61.5906 441.521 57.8817 445.23C54.1728 448.938 52.0891 453.969 52.0891 459.214V485.223C52.089 487.82 52.6004 490.392 53.5943 492.791C54.5881 495.191 56.0449 497.371 57.8814 499.208C59.7179 501.044 61.8981 502.501 64.2976 503.495C66.6971 504.489 69.2689 505 71.8661 505H441.232C443.829 505 446.401 504.489 448.801 503.495C451.2 502.501 453.38 501.044 455.217 499.208C457.053 497.371 458.51 495.191 459.504 492.791C460.498 490.392 461.009 487.82 461.009 485.223V459.214C461.009 453.969 458.925 448.938 455.217 445.23C451.508 441.521 446.477 439.437 441.232 439.437Z" fill="#FF9DD3"/>
<path d="M123.262 8H48.4352C46.8189 7.99987 45.2183 8.31813 43.725 8.93662C42.2316 9.55511 40.8748 10.4617 39.7318 11.6046C38.5889 12.7476 37.6823 14.1044 37.0638 15.5978C36.4453 17.0911 36.1271 18.6917 36.1272 20.308V37C36.1267 38.6166 36.4446 40.2175 37.063 41.7111C37.6813 43.2048 38.5878 44.5621 39.7308 45.7053C40.8737 46.8485 42.2308 47.7554 43.7243 48.3741C45.2178 48.9928 46.8186 49.3111 48.4352 49.311H123.262C124.879 49.3111 126.48 48.9928 127.973 48.3741C129.467 47.7554 130.824 46.8485 131.967 45.7053C133.11 44.5621 134.016 43.2048 134.634 41.7111C135.253 40.2175 135.571 38.6166 135.57 37V20.308C135.57 17.0438 134.273 13.9134 131.965 11.6052C129.657 9.29708 126.526 8.00027 123.262 8Z" fill="#FF9DD3"/>
<path d="M179.549 62.3359L36.5742 149.036C31.1232 152.342 27.2086 157.677 25.6915 163.869C24.1743 170.061 25.1789 176.602 28.4842 182.053L47.3492 213.163C48.9859 215.862 51.1382 218.212 53.6833 220.08C56.2283 221.947 59.1162 223.295 62.1821 224.046C65.2481 224.797 68.4319 224.937 71.5519 224.458C74.672 223.979 77.667 222.89 80.3662 221.253L116.002 199.644C127.585 147.7 149.719 100.8 179.549 62.3359Z" fill="#FF88CA"/>
<path d="M150.082 439.437H71.8661C69.2689 439.437 66.6971 439.948 64.2976 440.942C61.8981 441.936 59.7179 443.393 57.8814 445.229C56.0449 447.066 54.5881 449.246 53.5943 451.646C52.6004 454.045 52.089 456.617 52.0891 459.214V485.223C52.0891 490.468 54.1728 495.499 57.8817 499.207C61.5906 502.916 66.6209 505 71.8661 505H212.681C187.961 487.181 166.74 464.954 150.082 439.437Z" fill="#FF88CA"/>
<path d="M271.249 293.833L274.649 284.909H298.092L301.452 293.809C302.155 295.67 303.568 297.176 305.381 297.995C307.194 298.814 309.258 298.879 311.119 298.176C312.98 297.473 314.486 296.06 315.305 294.247C316.124 292.434 316.189 290.37 315.486 288.509L294.643 233.28C294.617 233.21 294.589 233.14 294.561 233.071C293.903 231.462 292.78 230.087 291.336 229.12C289.891 228.153 288.191 227.638 286.453 227.642H286.44C284.7 227.641 282.999 228.158 281.555 229.129C280.111 230.1 278.99 231.48 278.335 233.092C278.312 233.148 278.29 233.205 278.268 233.261L257.229 288.494C256.862 289.418 256.682 290.405 256.7 291.399C256.718 292.393 256.933 293.373 257.333 294.283C257.733 295.193 258.31 296.015 259.03 296.7C259.751 297.385 260.6 297.92 261.529 298.273C262.458 298.627 263.448 298.793 264.441 298.761C265.435 298.729 266.412 298.499 267.316 298.086C268.22 297.673 269.033 297.084 269.708 296.354C270.382 295.624 270.905 294.767 271.245 293.833H271.249ZM286.423 253.993L292.43 269.909H280.357L286.423 253.993Z" fill="white"/>
<path d="M169.218 298.663C194.688 298.663 204.786 266.928 176.678 256.563C169.883 254.057 163.55 251.329 161.517 250.439C159.399 248.669 159.973 244.569 164.48 243.21C172.098 240.915 179.213 246.504 179.437 246.683C180.965 247.958 182.936 248.573 184.918 248.394C186.899 248.215 188.729 247.257 190.003 245.729C191.278 244.201 191.893 242.23 191.714 240.248C191.536 238.267 190.577 236.438 189.049 235.163C188.512 234.711 175.717 224.157 160.149 228.844C143.301 233.92 140.349 254.576 153.685 263.27C155.676 264.57 169.113 269.758 171.485 270.632C173.31 271.305 179.208 273.803 178.512 277.703C177.989 280.632 174.369 283.661 169.217 283.661C166.614 283.696 164.031 283.196 161.629 282.191C159.227 281.187 157.057 279.699 155.254 277.821C154.593 277.091 153.794 276.499 152.904 276.077C152.013 275.656 151.049 275.415 150.065 275.366C149.081 275.318 148.098 275.464 147.17 275.796C146.243 276.127 145.39 276.638 144.66 277.3C143.93 277.961 143.338 278.76 142.917 279.65C142.496 280.541 142.254 281.505 142.206 282.489C142.157 283.473 142.303 284.456 142.635 285.384C142.967 286.311 143.478 287.164 144.139 287.894C147.339 291.336 151.222 294.072 155.541 295.927C159.859 297.781 164.518 298.713 169.217 298.663H169.218Z" fill="white"/>
<path d="M369.686 239.381C370.238 238.556 370.62 237.63 370.811 236.656C371.002 235.681 370.998 234.679 370.798 233.707C370.599 232.734 370.209 231.811 369.65 230.991C369.091 230.17 368.375 229.469 367.543 228.928C366.711 228.386 365.78 228.015 364.804 227.836C363.827 227.657 362.825 227.674 361.855 227.885C360.885 228.096 359.967 228.498 359.154 229.066C358.34 229.635 357.647 230.36 357.116 231.198L345.649 248.818L334.049 231.047C332.962 229.382 331.257 228.216 329.311 227.807C327.364 227.398 325.334 227.779 323.669 228.867C322.003 229.954 320.837 231.659 320.429 233.605C320.02 235.552 320.401 237.582 321.488 239.247L338.149 264.774L338.084 291.145C338.082 292.13 338.273 293.106 338.648 294.017C339.022 294.928 339.573 295.756 340.267 296.454C340.962 297.152 341.787 297.707 342.696 298.086C343.605 298.465 344.58 298.662 345.565 298.664H345.584C347.57 298.664 349.475 297.877 350.881 296.474C352.287 295.072 353.079 293.169 353.084 291.183L353.149 264.783L369.686 239.381Z" fill="white"/>
<path d="M211.649 242.647H219.549V291.163C219.549 293.152 220.339 295.06 221.746 296.466C223.152 297.873 225.06 298.663 227.049 298.663C229.038 298.663 230.946 297.873 232.352 296.466C233.759 295.06 234.549 293.152 234.549 291.163V242.647H242.579C244.568 242.647 246.476 241.857 247.882 240.45C249.289 239.044 250.079 237.136 250.079 235.147C250.079 233.158 249.289 231.25 247.882 229.844C246.476 228.437 244.568 227.647 242.579 227.647H211.649C209.66 227.647 207.752 228.437 206.346 229.844C204.939 231.25 204.149 233.158 204.149 235.147C204.149 237.136 204.939 239.044 206.346 240.45C207.752 241.857 209.66 242.647 211.649 242.647Z" fill="white"/>
<path d="M329.673 332.171C329.283 330.251 328.26 328.518 326.768 327.247C325.277 325.976 323.403 325.242 321.445 325.162C319.487 325.081 317.559 325.659 315.968 326.802C314.377 327.946 313.216 329.59 312.668 331.471L303.105 365.019C289.753 319.769 294.028 333.907 293.105 331.13C290.251 322.63 277.896 323.393 276.171 332.349L266.323 386.9C266.139 387.873 266.15 388.873 266.354 389.842C266.558 390.811 266.953 391.73 267.514 392.545C268.075 393.361 268.792 394.058 269.624 394.595C270.456 395.132 271.386 395.499 272.361 395.675C273.335 395.851 274.335 395.832 275.302 395.62C276.269 395.407 277.185 395.005 277.996 394.437C278.807 393.869 279.497 393.146 280.027 392.309C280.557 391.473 280.917 390.54 281.084 389.564L286.255 360.916L294.815 389.929C294.841 390.018 294.87 390.108 294.899 390.197C295.483 391.938 296.599 393.452 298.09 394.524C299.581 395.596 301.372 396.172 303.208 396.17H303.253C305.097 396.163 306.892 395.574 308.381 394.486C309.87 393.398 310.978 391.868 311.545 390.113C311.573 390.026 311.6 389.939 311.625 389.851L319.888 360.866L325.388 389.64C325.561 390.619 325.927 391.553 326.464 392.389C327.001 393.225 327.699 393.946 328.517 394.51C329.335 395.074 330.257 395.47 331.23 395.675C332.202 395.879 333.206 395.889 334.182 395.702C335.158 395.516 336.087 395.137 336.916 394.588C337.744 394.04 338.455 393.332 339.008 392.506C339.56 391.68 339.943 390.752 340.134 389.777C340.325 388.802 340.321 387.798 340.12 386.825L329.673 332.171Z" fill="white"/>
<path d="M167.107 325.157C165.118 325.157 163.21 325.947 161.804 327.354C160.397 328.76 159.607 330.668 159.607 332.657V352.205H135.843V332.657C135.843 330.668 135.053 328.76 133.647 327.354C132.24 325.947 130.332 325.157 128.343 325.157C126.354 325.157 124.446 325.947 123.04 327.354C121.633 328.76 120.843 330.668 120.843 332.657V388.674C120.843 390.663 121.633 392.571 123.04 393.978C124.446 395.384 126.354 396.174 128.343 396.174C130.332 396.174 132.24 395.384 133.647 393.978C135.053 392.571 135.843 390.663 135.843 388.674V367.205H159.607V388.674C159.607 390.663 160.397 392.571 161.804 393.978C163.21 395.384 165.118 396.174 167.107 396.174C169.096 396.174 171.004 395.384 172.411 393.978C173.817 392.571 174.607 390.663 174.607 388.674V332.657C174.607 330.668 173.817 328.76 172.411 327.354C171.004 325.947 169.096 325.157 167.107 325.157Z" fill="white"/>
<path d="M384.755 381.173H368.868V368.421H383.031C385.02 368.421 386.928 367.631 388.334 366.224C389.741 364.818 390.531 362.91 390.531 360.921C390.531 358.932 389.741 357.024 388.334 355.618C386.928 354.211 385.02 353.421 383.031 353.421H368.868V340.669H384.755C386.744 340.669 388.652 339.879 390.058 338.472C391.465 337.066 392.255 335.158 392.255 333.169C392.255 331.18 391.465 329.272 390.058 327.866C388.652 326.459 386.744 325.669 384.755 325.669H361.368C359.379 325.669 357.471 326.459 356.065 327.866C354.658 329.272 353.868 331.18 353.868 333.169V388.674C353.868 390.663 354.658 392.571 356.065 393.977C357.471 395.384 359.379 396.174 361.368 396.174H384.755C386.744 396.174 388.652 395.384 390.058 393.977C391.465 392.571 392.255 390.663 392.255 388.674C392.255 386.685 391.465 384.777 390.058 383.371C388.652 381.964 386.744 381.174 384.755 381.174V381.173Z" fill="white"/>
<path d="M222.837 325.157C215.815 325.158 208.95 327.241 203.111 331.143C197.272 335.045 192.722 340.591 190.035 347.08C187.348 353.568 186.645 360.707 188.016 367.595C189.387 374.483 192.769 380.809 197.735 385.775C202.701 390.74 209.028 394.121 215.915 395.491C222.803 396.861 229.943 396.158 236.431 393.47C242.919 390.782 248.464 386.231 252.365 380.392C256.267 374.553 258.349 367.688 258.349 360.665C258.339 351.25 254.594 342.224 247.936 335.568C241.278 328.911 232.252 325.167 222.837 325.157ZM222.837 381.173C218.781 381.172 214.817 379.969 211.445 377.715C208.073 375.461 205.445 372.258 203.893 368.511C202.342 364.763 201.936 360.64 202.728 356.662C203.52 352.684 205.473 349.03 208.341 346.162C211.21 343.295 214.864 341.342 218.842 340.551C222.82 339.76 226.943 340.166 230.69 341.719C234.437 343.271 237.64 345.9 239.893 349.272C242.147 352.644 243.349 356.609 243.349 360.665C243.343 366.103 241.18 371.316 237.334 375.161C233.489 379.006 228.275 381.168 222.837 381.173Z" fill="white"/>
<path d="M99.4062 8H48.4352C45.1709 8 42.0403 9.29673 39.7321 11.6049C37.4239 13.9131 36.1272 17.0437 36.1272 20.308V37C36.1268 38.6166 36.4449 40.2174 37.0632 41.711C37.6816 43.2046 38.5881 44.5618 39.7311 45.705C40.874 46.8482 42.231 47.7551 43.7244 48.3738C45.2179 48.9925 46.8186 49.311 48.4352 49.311H77.5042C81.1585 33.8967 88.6986 19.6748 99.4062 8V8Z" fill="#FF88CA"/>
</svg>
