<svg width="512" height="512" viewBox="0 0 512 512" fill="none" xmlns="http://www.w3.org/2000/svg">
<path d="M91.6152 405.381L54.3532 401.353L8.54819 447.153C3.22664 452.66 0.281305 460.037 0.346772 467.694C0.412238 475.352 3.48327 482.677 8.89819 488.092C14.3131 493.507 21.6385 496.578 29.2961 496.643C36.9537 496.709 44.3305 493.764 49.8372 488.442L95.6422 442.642L91.6152 405.381Z" fill="#B0AEBA"/>
<path d="M465.852 31.144C445.909 11.2033 418.861 0.000976563 390.659 0.000976562C362.457 0.000976563 335.41 11.2033 315.466 31.144L293.632 52.978L352.944 144.051L444.019 203.364L465.853 181.53C475.728 171.656 483.561 159.933 488.905 147.031C494.249 134.13 497 120.302 497 106.337C497 92.3724 494.249 78.5444 488.905 65.6428C483.561 52.7411 475.728 41.0184 465.853 31.144H465.852Z" fill="#78CBEC"/>
<path d="M413.344 2.43598C395.931 -1.35481 377.844 -0.712865 360.743 4.30295C343.642 9.31877 328.074 18.5479 315.466 31.144L293.632 52.978L304.284 69.334C339.201 40.883 376.217 18.464 413.344 2.43398V2.43598Z" fill="#34B5E1"/>
<path d="M293.631 52.9771L163.641 182.967C145.283 201.328 134.277 225.772 132.699 251.689L131.29 274.733C129.213 308.827 114.73 340.982 90.5752 365.133L54.3552 401.352L95.6442 442.641L131.864 406.422C156.015 382.267 188.17 367.785 222.264 365.707L245.308 364.298C271.225 362.719 295.669 351.712 314.03 333.353L444.02 203.363L293.631 52.9771Z" fill="#C1E9FA"/>
<path d="M357.274 173.3L323.699 139.722C320.154 136.176 315.945 133.363 311.312 131.444C306.679 129.524 301.714 128.537 296.699 128.537C291.685 128.537 286.719 129.524 282.087 131.444C277.454 133.363 273.245 136.176 269.699 139.722L193.085 216.336C189.539 219.881 186.726 224.091 184.807 228.723C182.888 233.356 181.9 238.321 181.9 243.336C181.9 248.35 182.888 253.316 184.807 257.949C186.726 262.581 189.539 266.791 193.085 270.336L226.661 303.912C230.207 307.458 234.416 310.271 239.049 312.19C243.681 314.109 248.647 315.097 253.661 315.097C258.676 315.097 263.641 314.109 268.274 312.19C272.907 310.271 277.116 307.458 280.661 303.912L357.275 227.298C360.821 223.753 363.634 219.543 365.554 214.911C367.473 210.278 368.461 205.312 368.461 200.298C368.461 195.283 367.473 190.318 365.554 185.685C363.634 181.053 360.821 176.843 357.275 173.298L357.274 173.3Z" fill="#90D3F1"/>
<path d="M308.348 182.93C304.094 182.92 299.896 183.897 296.085 185.785C292.273 187.674 288.952 190.421 286.382 193.811C284.715 187.257 284.162 180.469 284.747 173.731C284.888 172.756 284.836 171.763 284.594 170.808C284.351 169.854 283.923 168.956 283.334 168.167C282.745 167.378 282.006 166.713 281.159 166.209C280.313 165.706 279.375 165.374 278.401 165.232C277.426 165.091 276.433 165.143 275.478 165.386C274.524 165.628 273.626 166.056 272.837 166.646C272.048 167.235 271.382 167.974 270.879 168.82C270.375 169.667 270.043 170.604 269.902 171.579C269.725 172.779 265.859 201.045 285.982 226.779C288.328 230.013 291.347 232.7 294.832 234.655C298.317 236.61 302.184 237.785 306.167 238.1C310.15 238.416 314.154 237.863 317.903 236.481C321.652 235.1 325.057 232.921 327.882 230.096C345.272 212.708 332.807 182.931 308.348 182.931V182.93ZM317.277 219.488C315.511 221.254 313.261 222.457 310.811 222.944C308.362 223.431 305.823 223.181 303.515 222.225C301.208 221.269 299.236 219.651 297.848 217.574C296.461 215.497 295.72 213.056 295.72 210.558C295.72 208.061 296.461 205.619 297.848 203.543C299.236 201.466 301.208 199.847 303.515 198.892C305.823 197.936 308.362 197.686 310.811 198.173C313.261 198.66 315.511 199.863 317.277 201.629C318.451 202.801 319.382 204.193 320.017 205.725C320.652 207.257 320.979 208.9 320.979 210.558C320.979 212.217 320.652 213.859 320.017 215.392C319.382 216.924 318.451 218.316 317.277 219.488Z" fill="white"/>
<path d="M265.174 104.675C278.562 91.2843 292.674 78.638 307.447 66.793L293.631 52.978L163.641 182.967C145.283 201.329 134.277 225.773 132.699 251.69L131.29 274.734C129.213 308.828 114.73 340.983 90.5752 365.134L54.3552 401.354L95.6442 442.642L131.864 406.423C132.674 405.613 133.494 404.813 134.323 404.023C126.911 310.706 173.268 196.579 265.177 104.671L265.174 104.675Z" fill="#90D3F1"/>
</svg>
