<svg width="512" height="512" viewBox="0 0 512 512" fill="none" xmlns="http://www.w3.org/2000/svg">
<path d="M0.5 0.5H511.5V511.5H0.5V0.5Z" stroke="black" stroke-opacity="0.01"/>
<path d="M91.6152 405.381L54.3532 401.353L8.54819 447.153C3.22664 452.66 0.281305 460.037 0.346772 467.694C0.412238 475.352 3.48327 482.677 8.89819 488.092C14.3131 493.507 21.6385 496.578 29.2961 496.643C36.9537 496.709 44.3305 493.764 49.8372 488.442L95.6422 442.642L91.6152 405.381Z" fill="#B0AEBA"/>
<path d="M54.5374 401.876L91.1613 405.835L95.1194 442.458L49.4897 488.082C49.4887 488.083 49.4877 488.084 49.4867 488.085C44.0746 493.314 36.8254 496.208 29.3004 496.143C21.7739 496.079 14.5739 493.061 9.25174 487.738C3.92954 482.416 0.911099 475.216 0.846753 467.69C0.78242 460.165 3.67623 452.916 8.90481 447.504L54.5374 401.876Z" stroke="black" stroke-opacity="0.01"/>
<path d="M465.852 31.144C445.909 11.2033 418.861 0.000976563 390.659 0.000976562C362.457 0.000976563 335.41 11.2033 315.466 31.144L293.632 52.978L352.944 144.051L444.019 203.364L465.853 181.53C475.728 171.656 483.561 159.933 488.905 147.031C494.249 134.13 497 120.302 497 106.337C497 92.3724 494.249 78.5444 488.905 65.6428C483.561 52.7411 475.728 41.0184 465.853 31.144H465.852Z" fill="#78CBEC"/>
<path d="M465.499 31.4976L465.645 31.644H465.646C475.405 41.4414 483.15 53.0569 488.443 65.8341C493.762 78.6751 496.5 92.438 496.5 106.337C496.5 120.236 493.762 133.999 488.443 146.84C483.124 159.681 475.328 171.348 465.5 181.176L443.952 202.724L353.306 143.69L294.272 53.0449L315.82 31.4976C315.82 31.4976 315.82 31.4976 315.82 31.4976C335.669 11.6506 362.59 0.500977 390.659 0.500977C418.729 0.500977 445.649 11.6507 465.499 31.4976Z" stroke="black" stroke-opacity="0.01"/>
<path d="M413.344 2.43598C395.931 -1.35481 377.844 -0.712865 360.743 4.30295C343.642 9.31877 328.074 18.5479 315.466 31.144L293.632 52.978L304.284 69.334C339.201 40.883 376.217 18.464 413.344 2.43398V2.43598Z" fill="#34B5E1"/>
<path d="M360.883 4.78274C377.402 -0.0621525 394.844 -0.806935 411.701 2.60195C375.168 18.5399 338.771 40.6514 304.4 68.5952L294.272 53.0449L315.82 31.4977C315.82 31.4976 315.82 31.4976 315.82 31.4975C328.368 18.9607 343.863 9.77498 360.883 4.78274Z" stroke="black" stroke-opacity="0.01"/>
<path d="M293.631 52.9771L163.641 182.967C145.283 201.328 134.277 225.772 132.699 251.689L131.29 274.733C129.213 308.827 114.73 340.982 90.5752 365.133L54.3552 401.352L95.6442 442.641L131.864 406.422C156.015 382.267 188.17 367.785 222.264 365.707L245.308 364.298C271.225 362.719 295.669 351.712 314.03 333.353L444.02 203.363L293.631 52.9771Z" fill="#C1E9FA"/>
<path d="M131.511 406.069L95.6442 441.934L55.0623 401.352L90.9287 365.487C115.17 341.25 129.704 308.979 131.789 274.764L133.198 251.72C134.769 225.925 145.723 201.596 163.995 183.321L293.631 53.6841L443.313 203.363L313.677 332.999C295.402 351.272 271.073 362.228 245.278 363.799L245.308 364.298L245.278 363.799L222.234 365.208C188.018 367.293 155.748 381.827 131.511 406.069Z" stroke="black" stroke-opacity="0.01"/>
<path d="M357.274 173.3L323.699 139.722C320.154 136.176 315.945 133.363 311.312 131.444C306.679 129.524 301.714 128.537 296.699 128.537C291.685 128.537 286.719 129.524 282.087 131.444C277.454 133.363 273.245 136.176 269.699 139.722L193.085 216.336C189.539 219.881 186.726 224.091 184.807 228.723C182.888 233.356 181.9 238.321 181.9 243.336C181.9 248.35 182.888 253.316 184.807 257.949C186.726 262.581 189.539 266.791 193.085 270.336L226.661 303.912C230.207 307.458 234.416 310.271 239.049 312.19C243.681 314.109 248.647 315.097 253.661 315.097C258.676 315.097 263.641 314.109 268.274 312.19C272.907 310.271 277.116 307.458 280.661 303.912L357.275 227.298C360.821 223.753 363.634 219.543 365.554 214.911C367.473 210.278 368.461 205.312 368.461 200.298C368.461 195.283 367.473 190.318 365.554 185.685C363.634 181.053 360.821 176.843 357.275 173.298L357.274 173.3Z" fill="#90D3F1"/>
<path d="M356.921 173.653L357.207 173.94C360.573 177.378 363.249 181.43 365.092 185.877C366.986 190.449 367.961 195.349 367.961 200.298C367.961 205.247 366.986 210.147 365.092 214.719C363.198 219.291 360.421 223.445 356.922 226.944L357.275 227.298L356.922 226.944L280.308 303.558L280.661 303.912L280.308 303.558C276.809 307.058 272.654 309.834 268.082 311.728C263.51 313.622 258.61 314.597 253.661 314.597C248.712 314.597 243.812 313.622 239.24 311.728C234.668 309.834 230.514 307.058 227.015 303.558L226.661 303.912L227.015 303.558L193.439 269.982L193.085 270.336L193.439 269.982C189.939 266.483 187.163 262.329 185.269 257.757C183.375 253.185 182.4 248.285 182.4 243.336C182.4 238.387 183.375 233.487 185.269 228.915C187.163 224.343 189.939 220.189 193.439 216.69L193.085 216.336L193.439 216.69L270.053 140.076L269.699 139.722L270.053 140.075C273.552 136.576 277.706 133.8 282.278 131.906C286.85 130.012 291.75 129.037 296.699 129.037C301.648 129.037 306.548 130.012 311.12 131.906C315.692 133.8 319.847 136.576 323.346 140.075L356.921 173.653Z" stroke="black" stroke-opacity="0.01"/>
<path d="M264.045 232.964C263.952 210.496 236.651 199.364 220.84 215.175C216.701 219.324 214.127 224.78 213.557 230.613C212.987 236.447 214.456 242.297 217.713 247.17C218.258 247.996 218.962 248.707 219.783 249.26C220.604 249.814 221.527 250.199 222.498 250.394C223.469 250.589 224.469 250.589 225.44 250.396C226.411 250.202 227.334 249.818 228.156 249.266C228.978 248.714 229.683 248.004 230.229 247.179C230.775 246.353 231.153 245.427 231.34 244.454C231.526 243.482 231.518 242.482 231.317 241.512C231.115 240.543 230.723 239.623 230.164 238.806C229.078 237.182 228.475 235.283 228.426 233.33C228.377 231.377 228.884 229.451 229.887 227.775C230.891 226.099 232.35 224.742 234.094 223.863C235.839 222.984 237.797 222.618 239.741 222.809C241.686 223 243.536 223.739 245.076 224.94C246.617 226.141 247.784 227.755 248.443 229.595C249.102 231.434 249.224 233.422 248.797 235.328C248.369 237.235 247.409 238.98 246.028 240.362C245.302 241.051 244.721 241.879 244.319 242.796C243.918 243.713 243.704 244.702 243.691 245.703C243.677 246.704 243.865 247.698 244.241 248.626C244.618 249.554 245.177 250.396 245.885 251.105C246.593 251.813 247.436 252.372 248.363 252.75C249.291 253.127 250.284 253.315 251.286 253.302C252.287 253.29 253.275 253.076 254.193 252.675C255.111 252.274 255.939 251.694 256.628 250.968" stroke="black" stroke-opacity="0.01"/>
<path d="M308.348 182.93C304.094 182.92 299.896 183.897 296.085 185.785C292.273 187.674 288.952 190.421 286.382 193.811C284.715 187.257 284.162 180.469 284.747 173.731C284.888 172.756 284.836 171.763 284.594 170.808C284.351 169.854 283.923 168.956 283.334 168.167C282.745 167.378 282.006 166.713 281.159 166.209C280.313 165.706 279.375 165.374 278.401 165.232C277.426 165.091 276.433 165.143 275.478 165.386C274.524 165.628 273.626 166.056 272.837 166.646C272.048 167.235 271.382 167.974 270.879 168.82C270.375 169.667 270.043 170.604 269.902 171.579C269.725 172.779 265.859 201.045 285.982 226.779C288.328 230.013 291.347 232.7 294.832 234.655C298.317 236.61 302.184 237.785 306.167 238.1C310.15 238.416 314.154 237.863 317.903 236.481C321.652 235.1 325.057 232.921 327.882 230.096C345.272 212.708 332.807 182.931 308.348 182.931V182.93ZM317.277 219.488C315.511 221.254 313.261 222.457 310.811 222.944C308.362 223.431 305.823 223.181 303.515 222.225C301.208 221.269 299.236 219.651 297.848 217.574C296.461 215.497 295.72 213.056 295.72 210.558C295.72 208.061 296.461 205.619 297.848 203.543C299.236 201.466 301.208 199.847 303.515 198.892C305.823 197.936 308.362 197.686 310.811 198.173C313.261 198.66 315.511 199.863 317.277 201.629C318.451 202.801 319.382 204.193 320.017 205.725C320.652 207.257 320.979 208.9 320.979 210.558C320.979 212.217 320.652 213.859 320.017 215.392C319.382 216.924 318.451 218.316 317.277 219.488V219.488Z" fill="white"/>
<path d="M296.307 186.234C299.958 184.425 303.969 183.467 308.041 183.431H308.348C332.364 183.431 344.602 212.671 327.529 229.742C324.754 232.516 321.411 234.655 317.73 236.012C314.049 237.369 310.118 237.912 306.207 237.602C302.296 237.292 298.498 236.138 295.077 234.219C291.655 232.3 288.69 229.661 286.387 226.485L286.382 226.478L286.376 226.471C266.381 200.901 270.226 172.808 270.397 171.652L270.397 171.651C270.529 170.741 270.839 169.866 271.309 169.076C271.779 168.286 272.4 167.596 273.136 167.046C273.873 166.496 274.71 166.097 275.601 165.87C276.492 165.644 277.419 165.595 278.329 165.727C279.239 165.859 280.114 166.169 280.904 166.639C281.694 167.109 282.383 167.73 282.933 168.466C283.483 169.203 283.883 170.041 284.109 170.932C284.336 171.823 284.384 172.749 284.252 173.659L284.25 173.673L284.249 173.688C283.66 180.481 284.217 187.325 285.898 193.934L286.153 194.94L286.781 194.113C289.303 190.785 292.564 188.087 296.307 186.234ZM310.909 223.434C313.455 222.928 315.795 221.677 317.631 219.841C318.851 218.623 319.819 217.176 320.479 215.583C321.139 213.99 321.479 212.283 321.479 210.558C321.479 208.834 321.139 207.127 320.479 205.534C319.819 203.941 318.851 202.494 317.631 201.275C315.795 199.439 313.455 198.189 310.909 197.683C308.362 197.176 305.723 197.436 303.324 198.43C300.925 199.423 298.875 201.106 297.432 203.265C295.99 205.424 295.22 207.962 295.22 210.558C295.22 213.155 295.99 215.693 297.432 217.852C298.875 220.011 300.925 221.693 303.324 222.687C305.723 223.681 308.362 223.941 310.909 223.434Z" stroke="black" stroke-opacity="0.01"/>
<path d="M265.174 104.675C278.562 91.2843 292.674 78.638 307.447 66.793L293.631 52.978L163.641 182.967C145.283 201.329 134.277 225.773 132.699 251.69L131.29 274.734C129.213 308.828 114.73 340.983 90.5752 365.134L54.3552 401.354L95.6442 442.642L131.864 406.423C132.674 405.613 133.494 404.813 134.323 404.023C126.911 310.706 173.268 196.579 265.177 104.671L265.174 104.675Z" fill="#90D3F1"/>
<path d="M306.699 66.7522C292.071 78.5068 278.092 91.0471 264.824 104.318L264.824 104.317C172.917 196.223 126.477 310.371 133.806 403.825C133.033 404.565 132.267 405.313 131.511 406.069L95.6442 441.935L55.0623 401.354L90.9287 365.488C115.17 341.251 129.704 308.98 131.789 274.765L133.198 251.721C134.769 225.925 145.723 201.596 163.995 183.321L293.631 53.6851L306.699 66.7522Z" stroke="black" stroke-opacity="0.01"/>
</svg>
