<svg width="512" height="512" viewBox="0 0 512 512" fill="none" xmlns="http://www.w3.org/2000/svg">
<path d="M409.986 404.083H307.971L239.438 226.543L409.986 150.358V404.083Z" fill="#BEBEBC"/>
<path d="M117.015 49.001C60.674 49.001 15 128.489 15 226.543V442.617C15.0001 445.451 15.7884 448.229 17.2769 450.641C18.7653 453.052 20.8952 455.003 23.4285 456.273C25.9617 457.544 28.7984 458.085 31.6214 457.835C34.4445 457.586 37.1425 456.557 39.414 454.862C46.4662 449.6 55.0296 446.757 63.8285 446.757C72.6274 446.757 81.1908 449.6 88.243 454.862C95.2952 460.124 103.859 462.966 112.658 462.966C121.456 462.966 130.02 460.124 137.072 454.862C144.124 449.6 152.687 446.758 161.486 446.758C170.285 446.758 178.848 449.6 185.9 454.862C192.952 460.124 201.516 462.966 210.314 462.966C219.113 462.966 227.677 460.124 234.729 454.862C241.781 449.6 250.345 446.757 259.143 446.757C267.942 446.757 276.506 449.6 283.558 454.862C285.829 456.557 288.528 457.587 291.351 457.836C294.174 458.086 297.011 457.545 299.544 456.274C302.077 455.004 304.207 453.053 305.696 450.641C307.184 448.229 307.972 445.451 307.972 442.617V226.543L409.986 49.001H117.015Z" fill="#DADADA"/>
<path d="M409.986 404.085C466.327 404.085 512 324.597 512 226.543C512 128.489 466.327 49.001 409.986 49.001C353.645 49.001 307.972 128.489 307.972 226.543C307.972 324.597 353.645 404.085 409.986 404.085Z" fill="#CCCCCA"/>
<path d="M409.986 302.728C434.162 302.728 453.761 268.619 453.761 226.543C453.761 184.467 434.162 150.358 409.986 150.358C385.81 150.358 366.211 184.467 366.211 226.543C366.211 268.619 385.81 302.728 409.986 302.728Z" fill="#BEBEBC"/>
<path d="M44.719 271.534C44.719 182.027 83.983 102.028 145.633 49H117.015C60.674 49 15 128.489 15 226.543V442.617C15.0001 445.451 15.7884 448.229 17.2769 450.641C18.7653 453.052 20.8952 455.003 23.4285 456.273C25.9617 457.544 28.7984 458.085 31.6214 457.835C34.4445 457.586 37.1425 456.557 39.414 454.862C46.4658 449.6 55.0292 446.757 63.828 446.757C72.6268 446.757 81.1902 449.6 88.242 454.862C95.8354 460.531 105.166 463.378 114.631 462.913C71.131 411.93 44.719 344.933 44.719 271.534Z" fill="#CCCCCA"/>
<path d="M307.971 263.483H292.971C290.982 263.483 289.074 262.693 287.668 261.286C286.261 259.88 285.471 257.972 285.471 255.983C285.471 253.994 286.261 252.086 287.668 250.68C289.074 249.273 290.982 248.483 292.971 248.483H307.971V263.483Z" fill="#CCCCCA"/>
<path d="M263.752 263.483H234.533C232.544 263.483 230.636 262.693 229.23 261.286C227.823 259.88 227.033 257.972 227.033 255.983C227.033 253.994 227.823 252.086 229.23 250.68C230.636 249.273 232.544 248.483 234.533 248.483H263.752C265.741 248.483 267.649 249.273 269.055 250.68C270.462 252.086 271.252 253.994 271.252 255.983C271.252 257.972 270.462 259.88 269.055 261.286C267.649 262.693 265.741 263.483 263.752 263.483ZM205.314 263.483H176.1C174.111 263.483 172.203 262.693 170.797 261.286C169.39 259.88 168.6 257.972 168.6 255.983C168.6 253.994 169.39 252.086 170.797 250.68C172.203 249.273 174.111 248.483 176.1 248.483H205.319C207.308 248.483 209.216 249.273 210.622 250.68C212.029 252.086 212.819 253.994 212.819 255.983C212.819 257.972 212.029 259.88 210.622 261.286C209.216 262.693 207.308 263.483 205.319 263.483H205.314ZM146.876 263.483H117.657C115.668 263.483 113.76 262.693 112.354 261.286C110.947 259.88 110.157 257.972 110.157 255.983C110.157 253.994 110.947 252.086 112.354 250.68C113.76 249.273 115.668 248.483 117.657 248.483H146.876C148.865 248.483 150.773 249.273 152.179 250.68C153.586 252.086 154.376 253.994 154.376 255.983C154.376 257.972 153.586 259.88 152.179 261.286C150.773 262.693 148.865 263.483 146.876 263.483ZM88.438 263.483H59.219C57.2299 263.483 55.3222 262.693 53.9157 261.286C52.5092 259.88 51.719 257.972 51.719 255.983C51.719 253.994 52.5092 252.086 53.9157 250.68C55.3222 249.273 57.2299 248.483 59.219 248.483H88.438C90.4271 248.483 92.3348 249.273 93.7413 250.68C95.1478 252.086 95.938 253.994 95.938 255.983C95.938 257.972 95.1478 259.88 93.7413 261.286C92.3348 262.693 90.4271 263.483 88.438 263.483Z" fill="#CCCCCA"/>
<path d="M15 248.483H30C31.9891 248.483 33.8968 249.273 35.3033 250.68C36.7098 252.086 37.5 253.994 37.5 255.983C37.5 257.972 36.7098 259.88 35.3033 261.286C33.8968 262.693 31.9891 263.483 30 263.483H15V248.483Z" fill="#BEBEBC"/>
</svg>
