<svg width="512" height="512" viewBox="0 0 512 512" fill="none" xmlns="http://www.w3.org/2000/svg">
<path d="M0.5 0.5H511.5V511.5H0.5V0.5Z" stroke="black" stroke-opacity="0.01"/>
<path d="M409.986 404.083H307.971L239.438 226.543L409.986 150.358V404.083Z" fill="#BEBEBC"/>
<path d="M409.486 403.583H308.314L240.075 226.806L409.486 151.129V403.583Z" stroke="black" stroke-opacity="0.01"/>
<path d="M117.015 49.001C60.674 49.001 15 128.489 15 226.543V442.617C15.0001 445.451 15.7884 448.229 17.2769 450.641C18.7653 453.052 20.8952 455.003 23.4285 456.273C25.9617 457.544 28.7984 458.085 31.6214 457.835C34.4445 457.586 37.1425 456.557 39.414 454.862C46.4662 449.6 55.0296 446.757 63.8285 446.757C72.6274 446.757 81.1908 449.6 88.243 454.862C95.2952 460.124 103.859 462.966 112.658 462.966C121.456 462.966 130.02 460.124 137.072 454.862C144.124 449.6 152.687 446.758 161.486 446.758C170.285 446.758 178.848 449.6 185.9 454.862C192.952 460.124 201.516 462.966 210.314 462.966C219.113 462.966 227.677 460.124 234.729 454.862C241.781 449.6 250.345 446.757 259.143 446.757C267.942 446.757 276.506 449.6 283.558 454.862C285.829 456.557 288.528 457.587 291.351 457.836C294.174 458.086 297.011 457.545 299.544 456.274C302.077 455.004 304.207 453.053 305.696 450.641C307.184 448.229 307.972 445.451 307.972 442.617V226.543L409.986 49.001H117.015Z" fill="#DADADA"/>
<path d="M307.538 226.294L307.472 226.41V226.543V442.617C307.472 445.358 306.71 448.046 305.27 450.379C303.831 452.712 301.77 454.598 299.32 455.827C296.869 457.056 294.125 457.579 291.395 457.338C288.664 457.097 286.054 456.101 283.857 454.461C276.718 449.135 268.05 446.257 259.143 446.257C250.237 446.257 241.569 449.135 234.43 454.461C227.464 459.659 219.006 462.466 210.314 462.466C201.623 462.466 193.165 459.659 186.199 454.461C179.061 449.135 170.392 446.258 161.486 446.258C152.58 446.258 143.911 449.135 136.773 454.461C129.807 459.659 121.349 462.466 112.658 462.466C103.966 462.466 95.5078 459.659 88.542 454.461C81.4035 449.135 72.7351 446.257 63.8285 446.257C54.9219 446.257 46.2535 449.135 39.115 454.461C36.9179 456.1 34.3081 457.096 31.5775 457.337C28.8468 457.578 26.103 457.055 23.6526 455.826C21.2023 454.597 19.1421 452.711 17.7024 450.378C16.2626 448.045 15.5001 445.358 15.5 442.617V226.543C15.5 177.587 26.9029 133.291 45.3132 101.251C63.7312 69.1971 89.1 49.501 117.015 49.501H409.122L307.538 226.294Z" stroke="black" stroke-opacity="0.01"/>
<path d="M409.986 404.085C466.327 404.085 512 324.597 512 226.543C512 128.489 466.327 49.001 409.986 49.001C353.645 49.001 307.972 128.489 307.972 226.543C307.972 324.597 353.645 404.085 409.986 404.085Z" fill="#CCCCCA"/>
<path d="M511.5 226.543C511.5 275.499 500.097 319.795 481.687 351.835C463.269 383.889 437.901 403.585 409.986 403.585C382.071 403.585 356.702 383.889 338.285 351.835C319.875 319.795 308.472 275.499 308.472 226.543C308.472 177.587 319.875 133.291 338.285 101.251C356.702 69.1971 382.071 49.501 409.986 49.501C437.901 49.501 463.269 69.1971 481.687 101.251C500.097 133.291 511.5 177.587 511.5 226.543Z" stroke="black" stroke-opacity="0.01"/>
<path d="M409.986 302.728C434.162 302.728 453.761 268.619 453.761 226.543C453.761 184.467 434.162 150.358 409.986 150.358C385.81 150.358 366.211 184.467 366.211 226.543C366.211 268.619 385.81 302.728 409.986 302.728Z" fill="#BEBEBC"/>
<path d="M453.261 226.543C453.261 247.509 448.377 266.467 440.506 280.165C432.627 293.877 421.819 302.228 409.986 302.228C398.153 302.228 387.345 293.877 379.466 280.165C371.595 266.467 366.711 247.509 366.711 226.543C366.711 205.576 371.595 186.619 379.466 172.921C387.345 159.209 398.153 150.858 409.986 150.858C421.819 150.858 432.627 159.209 440.506 172.921C448.377 186.619 453.261 205.576 453.261 226.543Z" stroke="black" stroke-opacity="0.01"/>
<path d="M44.719 271.534C44.719 182.027 83.983 102.028 145.633 49H117.015C60.674 49 15 128.489 15 226.543V442.617C15.0001 445.451 15.7884 448.229 17.2769 450.641C18.7653 453.052 20.8952 455.003 23.4285 456.273C25.9617 457.544 28.7984 458.085 31.6214 457.835C34.4445 457.586 37.1425 456.557 39.414 454.862C46.4658 449.6 55.0292 446.757 63.828 446.757C72.6268 446.757 81.1902 449.6 88.242 454.862C95.8354 460.531 105.166 463.378 114.631 462.913C71.131 411.93 44.719 344.933 44.719 271.534V271.534Z" fill="#CCCCCA"/>
<path d="M113.582 462.451C104.586 462.663 95.7672 459.856 88.5411 454.461L88.242 454.862L88.541 454.461C81.4028 449.135 72.7346 446.257 63.828 446.257C54.9214 446.257 46.2532 449.135 39.115 454.461C36.9179 456.1 34.3081 457.096 31.5775 457.337C28.8468 457.578 26.103 457.055 23.6526 455.826C21.2023 454.597 19.1421 452.711 17.7024 450.378C16.2626 448.045 15.5001 445.358 15.5 442.617V226.543C15.5 177.587 26.9029 133.291 45.3132 101.25C63.7312 69.1963 89.1 49.5 117.015 49.5H144.29C83.1171 102.624 44.219 182.372 44.219 271.534C44.219 344.678 70.4046 411.478 113.582 462.451Z" stroke="black" stroke-opacity="0.01"/>
<path d="M307.971 263.483H292.971C290.982 263.483 289.074 262.693 287.668 261.286C286.261 259.88 285.471 257.972 285.471 255.983C285.471 253.994 286.261 252.086 287.668 250.68C289.074 249.273 290.982 248.483 292.971 248.483H307.971V263.483Z" fill="#CCCCCA"/>
<path d="M307.471 262.983H292.971C291.114 262.983 289.334 262.245 288.021 260.933C286.708 259.62 285.971 257.839 285.971 255.983C285.971 254.126 286.708 252.346 288.021 251.033C289.334 249.72 291.114 248.983 292.971 248.983H307.471V262.983Z" stroke="black" stroke-opacity="0.01"/>
<path d="M263.752 263.483H234.533C232.544 263.483 230.636 262.693 229.23 261.286C227.823 259.88 227.033 257.972 227.033 255.983C227.033 253.994 227.823 252.086 229.23 250.68C230.636 249.273 232.544 248.483 234.533 248.483H263.752C265.741 248.483 267.649 249.273 269.055 250.68C270.462 252.086 271.252 253.994 271.252 255.983C271.252 257.972 270.462 259.88 269.055 261.286C267.649 262.693 265.741 263.483 263.752 263.483ZM205.314 263.483H176.1C174.111 263.483 172.203 262.693 170.797 261.286C169.39 259.88 168.6 257.972 168.6 255.983C168.6 253.994 169.39 252.086 170.797 250.68C172.203 249.273 174.111 248.483 176.1 248.483H205.319C207.308 248.483 209.216 249.273 210.622 250.68C212.029 252.086 212.819 253.994 212.819 255.983C212.819 257.972 212.029 259.88 210.622 261.286C209.216 262.693 207.308 263.483 205.319 263.483H205.314ZM146.876 263.483H117.657C115.668 263.483 113.76 262.693 112.354 261.286C110.947 259.88 110.157 257.972 110.157 255.983C110.157 253.994 110.947 252.086 112.354 250.68C113.76 249.273 115.668 248.483 117.657 248.483H146.876C148.865 248.483 150.773 249.273 152.179 250.68C153.586 252.086 154.376 253.994 154.376 255.983C154.376 257.972 153.586 259.88 152.179 261.286C150.773 262.693 148.865 263.483 146.876 263.483V263.483ZM88.438 263.483H59.219C57.2299 263.483 55.3222 262.693 53.9157 261.286C52.5092 259.88 51.719 257.972 51.719 255.983C51.719 253.994 52.5092 252.086 53.9157 250.68C55.3222 249.273 57.2299 248.483 59.219 248.483H88.438C90.4271 248.483 92.3348 249.273 93.7413 250.68C95.1478 252.086 95.938 253.994 95.938 255.983C95.938 257.972 95.1478 259.88 93.7413 261.286C92.3348 262.693 90.4271 263.483 88.438 263.483V263.483Z" fill="#CCCCCA"/>
<path d="M263.752 262.983H234.533C232.676 262.983 230.896 262.245 229.583 260.933C228.271 259.62 227.533 257.839 227.533 255.983C227.533 254.126 228.271 252.346 229.583 251.033C230.896 249.72 232.676 248.983 234.533 248.983H263.752C265.609 248.983 267.389 249.72 268.702 251.033C270.014 252.346 270.752 254.126 270.752 255.983C270.752 257.839 270.014 259.62 268.702 260.933C267.389 262.245 265.609 262.983 263.752 262.983ZM205.314 262.983H176.1C174.243 262.983 172.463 262.245 171.15 260.933C169.837 259.62 169.1 257.839 169.1 255.983C169.1 254.126 169.837 252.346 171.15 251.033C172.463 249.72 174.243 248.983 176.1 248.983H205.319C207.176 248.983 208.956 249.72 210.269 251.033C211.581 252.346 212.319 254.126 212.319 255.983C212.319 257.839 211.581 259.62 210.269 260.933C208.956 262.245 207.176 262.983 205.319 262.983H205.314ZM146.876 262.983H117.657C115.8 262.983 114.02 262.245 112.707 260.933C111.394 259.62 110.657 257.839 110.657 255.983C110.657 254.126 111.394 252.346 112.707 251.033C114.02 249.72 115.8 248.983 117.657 248.983H146.876C148.733 248.983 150.513 249.72 151.826 251.033C153.138 252.346 153.876 254.126 153.876 255.983C153.876 257.839 153.138 259.62 151.826 260.933C150.513 262.245 148.733 262.983 146.876 262.983ZM88.438 262.983H59.219C57.3625 262.983 55.582 262.245 54.2692 260.933C52.9565 259.62 52.219 257.839 52.219 255.983C52.219 254.126 52.9565 252.346 54.2692 251.033C55.582 249.72 57.3625 248.983 59.219 248.983H88.438C90.2945 248.983 92.075 249.72 93.3877 251.033C94.7005 252.346 95.438 254.126 95.438 255.983C95.438 257.839 94.7005 259.62 93.3877 260.933C92.075 262.245 90.2945 262.983 88.438 262.983Z" stroke="black" stroke-opacity="0.01"/>
<path d="M15 248.483H30C31.9891 248.483 33.8968 249.273 35.3033 250.68C36.7098 252.086 37.5 253.994 37.5 255.983C37.5 257.972 36.7098 259.88 35.3033 261.286C33.8968 262.693 31.9891 263.483 30 263.483H15V248.483Z" fill="#BEBEBC"/>
<path d="M15.5 248.983H30C31.8565 248.983 33.637 249.72 34.9497 251.033C36.2625 252.346 37 254.126 37 255.983C37 257.839 36.2625 259.62 34.9497 260.933C33.637 262.245 31.8565 262.983 30 262.983H15.5V248.983Z" stroke="black" stroke-opacity="0.01"/>
</svg>
