<svg width="512" height="512" viewBox="0 0 512 512" fill="none" xmlns="http://www.w3.org/2000/svg">
<path d="M256.431 8C245.218 8 234.465 12.4541 226.537 20.3824C218.609 28.3106 214.155 39.0637 214.155 50.276V102.582H298.707V50.276C298.707 39.0637 294.253 28.3106 286.324 20.3824C278.396 12.4541 267.643 8 256.431 8V8Z" fill="#78CBEC"/>
<path d="M242.591 49.839C242.591 34.003 248.903 19.476 259.414 8.116C258.431 8.048 257.431 8 256.431 8C245.218 8 234.465 12.4541 226.537 20.3824C218.609 28.3106 214.155 39.0637 214.155 50.276V102.582H272.403C254.303 90.571 242.591 71.417 242.591 49.839Z" fill="#34B5E1"/>
<path d="M256.431 57.2808C149.576 57.2808 62.9531 143.904 62.9531 250.759V460.325H449.908V250.759C449.908 143.904 363.286 57.2808 256.431 57.2808Z" fill="#C1E9FA"/>
<path d="M91.8641 310.548C91.8641 217.448 139.496 123.678 213.323 62.1089C127.219 81.6999 62.9531 158.723 62.9531 250.76V460.326H137.153C108.431 416.718 91.8641 365.434 91.8641 310.548Z" fill="#90D3F1"/>
<path d="M483.297 476.736L478.697 456.084C476.142 444.614 469.754 434.357 460.586 427.006C451.418 419.656 440.018 415.65 428.267 415.65H84.595C72.8439 415.65 61.4438 419.656 52.2758 427.006C43.1077 434.357 36.7194 444.614 34.165 456.084L29.565 476.736C28.8089 480.131 28.8252 483.652 29.6127 487.04C30.4001 490.427 31.9386 493.595 34.1145 496.308C36.2903 499.021 39.048 501.211 42.1837 502.715C45.3194 504.22 48.753 505.001 52.231 505H460.631C464.109 505.001 467.543 504.22 470.678 502.715C473.814 501.211 476.572 499.021 478.747 496.308C480.923 493.595 482.462 490.427 483.249 487.04C484.037 483.652 484.053 480.131 483.297 476.736Z" fill="#78CBEC"/>
<path d="M352.302 239.721C346.685 237.238 342.24 232.688 339.889 227.015C337.539 221.342 337.463 214.982 339.678 209.254L339.697 209.204C347.177 189.859 328.144 170.826 308.797 178.304L308.746 178.324C303.019 180.538 296.659 180.462 290.986 178.111C285.314 175.76 280.764 171.316 278.282 165.7C269.894 146.725 242.968 146.725 234.582 165.7C232.099 171.316 227.549 175.761 221.876 178.112C216.203 180.463 209.843 180.539 204.116 178.324L204.066 178.305C184.721 170.825 165.688 189.858 173.166 209.205L173.186 209.255C175.4 214.982 175.324 221.343 172.974 227.016C170.623 232.688 166.178 237.238 160.562 239.721C141.587 248.109 141.587 275.035 160.562 283.421C166.178 285.904 170.623 290.454 172.974 296.126C175.324 301.799 175.4 308.16 173.186 313.887L173.167 313.937C165.687 333.282 184.72 352.315 204.067 344.837L204.118 344.817C209.845 342.602 216.205 342.678 221.878 345.029C227.551 347.38 232.101 351.825 234.584 357.441C242.972 376.416 269.898 376.416 278.284 357.441C280.767 351.825 285.317 347.38 290.99 345.029C296.663 342.678 303.023 342.602 308.751 344.817L308.801 344.836C328.146 352.316 347.179 333.283 339.701 313.936L339.682 313.885C337.467 308.158 337.543 301.797 339.894 296.124C342.245 290.452 346.689 285.902 352.306 283.419C371.28 275.032 371.28 248.106 352.306 239.719L352.302 239.721Z" fill="#FF748F"/>
<path d="M155.663 386.719C174.032 386.719 188.923 371.828 188.923 353.459C188.923 335.09 174.032 320.199 155.663 320.199C137.294 320.199 122.403 335.09 122.403 353.459C122.403 371.828 137.294 386.719 155.663 386.719Z" fill="#FF9DB0"/>
<path d="M349.691 194.535C364.488 194.535 376.483 182.54 376.483 167.743C376.483 152.946 364.488 140.951 349.691 140.951C334.894 140.951 322.899 152.946 322.899 167.743C322.899 182.54 334.894 194.535 349.691 194.535Z" fill="#FF9DB0"/>
<path d="M391.242 346.401C402.73 346.401 412.043 337.088 412.043 325.6C412.043 314.112 402.73 304.799 391.242 304.799C379.754 304.799 370.441 314.112 370.441 325.6C370.441 337.088 379.754 346.401 391.242 346.401Z" fill="#FF9DB0"/>
<path d="M180.022 147.598C190.441 147.598 198.887 139.152 198.887 128.733C198.887 118.314 190.441 109.868 180.022 109.868C169.603 109.868 161.157 118.314 161.157 128.733C161.157 139.152 169.603 147.598 180.022 147.598Z" fill="#FF9DB0"/>
<path d="M237.113 269.033C236.46 269.775 235.961 270.638 235.643 271.574C235.325 272.509 235.195 273.498 235.26 274.484C235.325 275.47 235.585 276.433 236.024 277.318C236.462 278.203 237.072 278.993 237.817 279.642C238.561 280.291 239.427 280.787 240.364 281.1C241.301 281.414 242.291 281.539 243.276 281.469C244.262 281.399 245.223 281.134 246.106 280.691C246.99 280.248 247.776 279.635 248.422 278.887C249.418 277.741 250.649 276.823 252.031 276.193C253.412 275.563 254.913 275.237 256.432 275.237C257.95 275.237 259.451 275.563 260.833 276.193C262.215 276.823 263.446 277.741 264.442 278.887C265.087 279.635 265.874 280.248 266.757 280.691C267.64 281.134 268.602 281.399 269.588 281.469C270.573 281.539 271.563 281.414 272.5 281.1C273.437 280.787 274.302 280.291 275.047 279.642C275.792 278.993 276.401 278.203 276.84 277.318C277.279 276.433 277.538 275.47 277.604 274.484C277.669 273.498 277.539 272.509 277.221 271.574C276.903 270.638 276.403 269.775 275.751 269.033C273.346 266.272 270.377 264.059 267.045 262.542C263.712 261.025 260.093 260.24 256.432 260.24C252.77 260.24 249.151 261.025 245.819 262.542C242.486 264.059 239.518 266.272 237.113 269.033Z" fill="#423E4F"/>
<path d="M216.355 247.29L196.382 241.938C194.46 241.423 192.413 241.693 190.69 242.688C188.968 243.682 187.711 245.321 187.196 247.242C186.681 249.164 186.951 251.211 187.945 252.934C188.94 254.656 190.578 255.913 192.5 256.428L197.186 257.683C197.031 258.77 197.134 258.489 197.101 267.354C197.101 269.343 197.891 271.251 199.298 272.657C200.704 274.064 202.612 274.854 204.601 274.854C206.59 274.854 208.498 274.064 209.904 272.657C211.311 271.251 212.101 269.343 212.101 267.354V261.68L212.472 261.78C214.393 262.295 216.441 262.026 218.164 261.031C219.886 260.036 221.144 258.398 221.658 256.477C222.173 254.555 221.904 252.508 220.909 250.785C219.915 249.062 218.276 247.805 216.355 247.29Z" fill="#423E4F"/>
<path d="M325.666 247.242C325.15 245.321 323.893 243.684 322.17 242.69C320.448 241.696 318.401 241.427 316.48 241.942L296.507 247.294C294.748 247.763 293.219 248.856 292.206 250.369C291.193 251.882 290.765 253.712 291.002 255.517C291.239 257.322 292.125 258.98 293.494 260.18C294.863 261.381 296.622 262.042 298.443 262.041C299.228 262.033 300.009 261.913 300.76 261.684V267.358C300.76 269.347 301.55 271.255 302.957 272.661C304.363 274.068 306.271 274.858 308.26 274.858C310.249 274.858 312.157 274.068 313.563 272.661C314.97 271.255 315.76 269.347 315.76 267.358C315.727 258.548 315.831 258.778 315.675 257.687L320.361 256.432C322.282 255.916 323.919 254.659 324.913 252.936C325.907 251.214 326.176 249.167 325.661 247.246L325.666 247.242Z" fill="#423E4F"/>
<path d="M113.201 415.65H84.595C72.8439 415.65 61.4438 419.656 52.2758 427.006C43.1077 434.357 36.7194 444.614 34.165 456.084L29.565 476.736C28.8089 480.131 28.8252 483.652 29.6127 487.04C30.4001 490.427 31.9386 493.595 34.1145 496.308C36.2903 499.021 39.048 501.211 42.1837 502.715C45.3194 504.22 48.753 505.001 52.231 505H173.448C147.868 479.317 127.421 448.992 113.201 415.65Z" fill="#34B5E1"/>
<path d="M182.739 239.466C182.75 217.5 188.749 195.953 200.093 177.143C182.231 173.453 166.199 191.187 173.165 209.204L173.185 209.255C175.399 214.982 175.323 221.343 172.973 227.016C170.622 232.688 166.177 237.238 160.561 239.721C141.586 248.109 141.586 275.034 160.561 283.421C166.177 285.904 170.622 290.453 172.973 296.126C175.323 301.799 175.399 308.16 173.185 313.887L173.166 313.937C165.686 333.283 184.719 352.315 204.066 344.837L204.117 344.817C209.844 342.602 216.204 342.678 221.877 345.029C227.55 347.38 232.1 351.825 234.583 357.441C242.396 375.116 266.283 376.319 276.304 361.066C221.872 343.755 182.741 295.853 182.741 239.466H182.739Z" fill="#FD5F7E"/>
</svg>
