<svg width="512" height="512" viewBox="0 0 512 512" fill="none" xmlns="http://www.w3.org/2000/svg">
<path d="M0.5 0.5H511.5V511.5H0.5V0.5Z" stroke="black" stroke-opacity="0.01"/>
<path d="M256.431 8C245.218 8 234.465 12.4541 226.537 20.3824C218.609 28.3106 214.155 39.0637 214.155 50.276V102.582H298.707V50.276C298.707 39.0637 294.253 28.3106 286.324 20.3824C278.396 12.4541 267.643 8 256.431 8V8Z" fill="#78CBEC"/>
<path d="M226.891 20.7359C234.725 12.9014 245.351 8.5 256.431 8.5C267.51 8.5 278.136 12.9014 285.971 20.7359C293.805 28.5704 298.207 39.1963 298.207 50.276V102.082H214.655V50.276C214.655 39.1963 219.056 28.5704 226.891 20.7359Z" stroke="black" stroke-opacity="0.01"/>
<path d="M242.591 49.839C242.591 34.003 248.903 19.476 259.414 8.116C258.431 8.048 257.431 8 256.431 8C245.218 8 234.465 12.4541 226.537 20.3824C218.609 28.3106 214.155 39.0637 214.155 50.276V102.582H272.403C254.303 90.571 242.591 71.417 242.591 49.839V49.839Z" fill="#34B5E1"/>
<path d="M258.34 8.55197C248.176 19.878 242.091 34.2239 242.091 49.839C242.091 71.0654 253.326 89.9456 270.777 102.082H214.655V50.276C214.655 39.1963 219.056 28.5704 226.891 20.7359C234.725 12.9014 245.351 8.5 256.431 8.5C257.067 8.5 257.705 8.51975 258.34 8.55197Z" stroke="black" stroke-opacity="0.01"/>
<path d="M256.431 57.2808C149.576 57.2808 62.9531 143.904 62.9531 250.759V460.325H449.908V250.759C449.908 143.904 363.286 57.2808 256.431 57.2808V57.2808Z" fill="#C1E9FA"/>
<path d="M63.4531 250.759C63.4531 144.18 149.852 57.7808 256.431 57.7808C363.01 57.7808 449.408 144.18 449.408 250.759V459.825H63.4531V250.759Z" stroke="black" stroke-opacity="0.01"/>
<path d="M91.8641 310.548C91.8641 217.448 139.496 123.678 213.323 62.1089C127.219 81.6999 62.9531 158.723 62.9531 250.76V460.326H137.153C108.431 416.718 91.8641 365.434 91.8641 310.548Z" fill="#90D3F1"/>
<path d="M211.399 63.0712C138.385 124.741 91.3641 217.961 91.3641 310.548C91.3641 365.212 107.767 416.308 136.227 459.826H63.4531V250.76C63.4531 159.688 126.542 83.3539 211.399 63.0712Z" stroke="black" stroke-opacity="0.01"/>
<path d="M483.297 476.736L478.697 456.084C476.142 444.614 469.754 434.357 460.586 427.006C451.418 419.656 440.018 415.65 428.267 415.65H84.595C72.8439 415.65 61.4438 419.656 52.2758 427.006C43.1077 434.357 36.7194 444.614 34.165 456.084L29.565 476.736C28.8089 480.131 28.8252 483.652 29.6127 487.04C30.4001 490.427 31.9386 493.595 34.1145 496.308C36.2903 499.021 39.048 501.211 42.1837 502.715C45.3194 504.22 48.753 505.001 52.231 505H460.631C464.109 505.001 467.543 504.22 470.678 502.715C473.814 501.211 476.572 499.021 478.747 496.308C480.923 493.595 482.462 490.427 483.249 487.04C484.037 483.652 484.053 480.131 483.297 476.736V476.736Z" fill="#78CBEC"/>
<path d="M478.209 456.193L482.809 476.845C483.549 480.166 483.533 483.612 482.762 486.926C481.992 490.241 480.486 493.34 478.357 495.995C476.228 498.65 473.53 500.792 470.462 502.265C467.394 503.737 464.034 504.501 460.631 504.5H52.231C48.8278 504.501 45.4681 503.737 42.4 502.265C39.3318 500.792 36.6335 498.65 34.5045 495.995C32.3755 493.34 30.8702 490.241 30.0997 486.926C29.3292 483.612 29.3132 480.166 30.053 476.845L34.653 456.193L34.165 456.084L34.653 456.193C37.1828 444.834 43.5092 434.676 52.5886 427.397C61.6679 420.117 72.9576 416.15 84.595 416.15H428.267C439.904 416.15 451.194 420.117 460.273 427.397C469.353 434.676 475.679 444.834 478.209 456.193Z" stroke="black" stroke-opacity="0.01"/>
<path d="M352.302 239.721C346.685 237.238 342.24 232.688 339.889 227.015C337.539 221.342 337.463 214.982 339.678 209.254L339.697 209.204C347.177 189.859 328.144 170.826 308.797 178.304L308.746 178.324C303.019 180.538 296.659 180.462 290.986 178.111C285.314 175.76 280.764 171.316 278.282 165.7C269.894 146.725 242.968 146.725 234.582 165.7C232.099 171.316 227.549 175.761 221.876 178.112C216.203 180.463 209.843 180.539 204.116 178.324L204.066 178.305C184.721 170.825 165.688 189.858 173.166 209.205L173.186 209.255C175.4 214.982 175.324 221.343 172.974 227.016C170.623 232.688 166.178 237.238 160.562 239.721V239.721C141.587 248.109 141.587 275.035 160.562 283.421C166.178 285.904 170.623 290.454 172.974 296.126C175.324 301.799 175.4 308.16 173.186 313.887L173.167 313.937C165.687 333.282 184.72 352.315 204.067 344.837L204.118 344.817C209.845 342.602 216.205 342.678 221.878 345.029C227.551 347.38 232.101 351.825 234.584 357.441C242.972 376.416 269.898 376.416 278.284 357.441C280.767 351.825 285.317 347.38 290.99 345.029C296.663 342.678 303.023 342.602 308.751 344.817L308.801 344.836C328.146 352.316 347.179 333.283 339.701 313.936L339.682 313.885C337.467 308.158 337.543 301.797 339.894 296.124C342.245 290.452 346.689 285.902 352.306 283.419V283.419C371.28 275.032 371.28 248.106 352.306 239.719L352.302 239.721Z" fill="#FF748F"/>
<path d="M352.315 240.273L352.1 240.178C346.365 237.644 341.827 232.998 339.428 227.207C337.028 221.415 336.95 214.922 339.211 209.074C339.211 209.074 339.211 209.074 339.211 209.074L339.229 209.027L339.23 209.024C346.554 190.084 327.92 171.449 308.977 178.77C308.977 178.77 308.977 178.77 308.977 178.77L308.928 178.789L308.926 178.79C303.079 181.051 296.586 180.973 290.795 178.573C285.004 176.173 280.359 171.636 277.825 165.902C269.612 147.324 243.25 147.324 235.039 165.902L234.582 165.7L235.039 165.902C232.505 171.636 227.859 176.174 222.068 178.574C216.277 180.973 209.784 181.051 203.937 178.791C203.937 178.791 203.936 178.791 203.936 178.79L203.888 178.772L203.885 178.771C184.946 171.448 166.312 190.081 173.631 209.022C173.632 209.023 173.632 209.024 173.632 209.025L173.65 209.069L173.652 209.075L173.652 209.075C175.913 214.922 175.835 221.415 173.436 227.207C171.036 232.999 166.498 237.644 160.764 240.178C142.186 248.391 142.186 274.753 160.764 282.964C166.498 285.498 171.036 290.143 173.436 295.935C175.835 301.726 175.913 308.219 173.653 314.066C173.653 314.066 173.652 314.067 173.652 314.067L173.634 314.115L173.633 314.117C166.31 333.057 184.943 351.691 203.884 344.372L352.315 240.273ZM352.315 240.273L352.318 240.272C370.68 248.591 370.609 274.782 352.104 282.962C346.37 285.496 341.832 290.141 339.432 295.933C337.033 301.724 336.955 308.216 339.215 314.063C339.215 314.064 339.215 314.064 339.215 314.065L339.232 314.11L339.234 314.116C346.556 333.058 327.921 351.693 308.981 344.37L308.979 344.369L308.931 344.351L352.315 240.273ZM203.935 344.352L203.887 344.371L308.929 344.35C303.082 342.09 296.589 342.168 290.798 344.567C285.007 346.967 280.361 351.505 277.827 357.239L278.284 357.441L277.826 357.239C269.616 375.817 243.254 375.817 235.041 357.239C232.507 351.505 227.861 346.967 222.07 344.567C216.278 342.167 209.785 342.09 203.938 344.351L203.935 344.352Z" stroke="black" stroke-opacity="0.01"/>
<path d="M155.663 386.719C174.032 386.719 188.923 371.828 188.923 353.459C188.923 335.09 174.032 320.199 155.663 320.199C137.294 320.199 122.403 335.09 122.403 353.459C122.403 371.828 137.294 386.719 155.663 386.719Z" fill="#FF9DB0"/>
<path d="M188.423 353.459C188.423 371.552 173.756 386.219 155.663 386.219C137.57 386.219 122.903 371.552 122.903 353.459C122.903 335.366 137.57 320.699 155.663 320.699C173.756 320.699 188.423 335.366 188.423 353.459Z" stroke="black" stroke-opacity="0.01"/>
<path d="M349.691 194.535C364.488 194.535 376.483 182.54 376.483 167.743C376.483 152.946 364.488 140.951 349.691 140.951C334.894 140.951 322.899 152.946 322.899 167.743C322.899 182.54 334.894 194.535 349.691 194.535Z" fill="#FF9DB0"/>
<path d="M375.983 167.743C375.983 182.264 364.212 194.035 349.691 194.035C335.17 194.035 323.399 182.264 323.399 167.743C323.399 153.223 335.17 141.451 349.691 141.451C364.212 141.451 375.983 153.223 375.983 167.743Z" stroke="black" stroke-opacity="0.01"/>
<path d="M391.242 346.401C402.73 346.401 412.043 337.088 412.043 325.6C412.043 314.112 402.73 304.799 391.242 304.799C379.754 304.799 370.441 314.112 370.441 325.6C370.441 337.088 379.754 346.401 391.242 346.401Z" fill="#FF9DB0"/>
<path d="M411.543 325.6C411.543 336.812 402.454 345.901 391.242 345.901C380.03 345.901 370.941 336.812 370.941 325.6C370.941 314.388 380.03 305.299 391.242 305.299C402.454 305.299 411.543 314.388 411.543 325.6Z" stroke="black" stroke-opacity="0.01"/>
<path d="M180.022 147.598C190.441 147.598 198.887 139.152 198.887 128.733C198.887 118.314 190.441 109.868 180.022 109.868C169.603 109.868 161.157 118.314 161.157 128.733C161.157 139.152 169.603 147.598 180.022 147.598Z" fill="#FF9DB0"/>
<path d="M198.387 128.733C198.387 138.876 190.164 147.098 180.022 147.098C169.879 147.098 161.657 138.876 161.657 128.733C161.657 118.59 169.879 110.368 180.022 110.368C190.164 110.368 198.387 118.59 198.387 128.733Z" stroke="black" stroke-opacity="0.01"/>
<path d="M237.113 269.033C236.46 269.775 235.961 270.638 235.643 271.574C235.325 272.509 235.195 273.498 235.26 274.484C235.325 275.47 235.585 276.433 236.024 277.318C236.462 278.203 237.072 278.993 237.817 279.642C238.561 280.291 239.427 280.787 240.364 281.1C241.301 281.414 242.291 281.539 243.276 281.469C244.262 281.399 245.223 281.134 246.106 280.691C246.99 280.248 247.776 279.635 248.422 278.887C249.418 277.741 250.649 276.823 252.031 276.193C253.412 275.563 254.913 275.237 256.432 275.237C257.95 275.237 259.451 275.563 260.833 276.193C262.215 276.823 263.446 277.741 264.442 278.887C265.087 279.635 265.874 280.248 266.757 280.691C267.64 281.134 268.602 281.399 269.588 281.469C270.573 281.539 271.563 281.414 272.5 281.1C273.437 280.787 274.302 280.291 275.047 279.642C275.792 278.993 276.401 278.203 276.84 277.318C277.279 276.433 277.538 275.47 277.604 274.484C277.669 273.498 277.539 272.509 277.221 271.574C276.903 270.638 276.403 269.775 275.751 269.033C273.346 266.272 270.377 264.059 267.045 262.542C263.712 261.025 260.093 260.24 256.432 260.24C252.77 260.24 249.151 261.025 245.819 262.542C242.486 264.059 239.518 266.272 237.113 269.033V269.033Z" fill="#423E4F"/>
<path d="M248.045 278.559L248.043 278.561C247.441 279.259 246.707 279.831 245.882 280.244C245.058 280.658 244.16 280.904 243.241 280.97C242.321 281.035 241.397 280.918 240.523 280.626C239.648 280.333 238.84 279.871 238.145 279.265C237.45 278.659 236.881 277.922 236.472 277.096C236.062 276.27 235.82 275.371 235.759 274.451C235.698 273.531 235.819 272.608 236.116 271.735C236.413 270.862 236.879 270.056 237.488 269.364L237.113 269.033L237.49 269.362C239.848 266.655 242.758 264.484 246.026 262.997C249.293 261.51 252.842 260.74 256.432 260.74C260.022 260.74 263.57 261.51 266.838 262.997C270.105 264.484 273.016 266.655 275.374 269.362L275.375 269.364C275.985 270.056 276.451 270.862 276.748 271.735C277.044 272.608 277.166 273.531 277.105 274.451C277.044 275.371 276.801 276.27 276.392 277.096C275.982 277.922 275.414 278.659 274.719 279.265C274.023 279.871 273.215 280.333 272.341 280.626C271.467 280.918 270.543 281.035 269.623 280.97C268.703 280.904 267.806 280.658 266.981 280.244C266.157 279.831 265.423 279.259 264.82 278.561L264.819 278.559C263.776 277.359 262.487 276.397 261.04 275.738C259.593 275.079 258.022 274.737 256.432 274.737C254.842 274.737 253.27 275.079 251.823 275.738C250.376 276.397 249.088 277.359 248.045 278.559Z" stroke="black" stroke-opacity="0.01"/>
<path d="M216.355 247.29L196.382 241.938C194.46 241.423 192.413 241.693 190.69 242.688C188.968 243.682 187.711 245.321 187.196 247.242C186.681 249.164 186.951 251.211 187.945 252.934C188.94 254.656 190.578 255.913 192.5 256.428L197.186 257.683C197.031 258.77 197.134 258.489 197.101 267.354C197.101 269.343 197.891 271.251 199.298 272.657C200.704 274.064 202.612 274.854 204.601 274.854C206.59 274.854 208.498 274.064 209.904 272.657C211.311 271.251 212.101 269.343 212.101 267.354V261.68L212.472 261.78C214.393 262.295 216.441 262.026 218.164 261.031C219.886 260.036 221.144 258.398 221.658 256.477C222.173 254.555 221.904 252.508 220.909 250.785C219.915 249.062 218.276 247.805 216.355 247.29Z" fill="#423E4F"/>
<path d="M217.914 260.598C216.306 261.526 214.395 261.778 212.602 261.297C212.602 261.297 212.601 261.297 212.601 261.297L212.231 261.197L211.601 261.028V261.68V267.354C211.601 269.211 210.863 270.991 209.551 272.304C208.238 273.617 206.457 274.354 204.601 274.354C202.744 274.354 200.964 273.617 199.651 272.304C198.339 270.991 197.601 269.211 197.601 267.355C197.614 263.85 197.606 261.773 197.601 260.477C197.599 260.134 197.598 259.846 197.598 259.601C197.595 258.434 197.609 258.261 197.681 257.754L197.744 257.315L197.315 257.2L192.629 255.945C192.629 255.945 192.629 255.945 192.629 255.945C190.836 255.465 189.307 254.291 188.378 252.684C187.45 251.076 187.198 249.165 187.679 247.372C188.159 245.578 189.333 244.049 190.94 243.121C192.548 242.192 194.459 241.941 196.253 242.421L216.226 247.773C218.019 248.254 219.548 249.427 220.476 251.035C221.405 252.643 221.656 254.554 221.175 256.347C220.695 258.141 219.522 259.67 217.914 260.598Z" stroke="black" stroke-opacity="0.01"/>
<path d="M325.666 247.242C325.15 245.321 323.893 243.684 322.17 242.69C320.448 241.696 318.401 241.427 316.48 241.942L296.507 247.294C294.748 247.763 293.219 248.856 292.206 250.369C291.193 251.882 290.765 253.712 291.002 255.517C291.239 257.322 292.125 258.98 293.494 260.18C294.863 261.381 296.622 262.042 298.443 262.041C299.228 262.033 300.009 261.913 300.76 261.684V267.358C300.76 269.347 301.55 271.255 302.957 272.661C304.363 274.068 306.271 274.858 308.26 274.858C310.249 274.858 312.157 274.068 313.563 272.661C314.97 271.255 315.76 269.347 315.76 267.358C315.727 258.548 315.831 258.778 315.675 257.687L320.361 256.432C322.282 255.916 323.919 254.659 324.913 252.936C325.907 251.214 326.176 249.167 325.661 247.246L325.666 247.242Z" fill="#423E4F"/>
<path d="M316.609 242.425L316.609 242.425C318.402 241.944 320.313 242.195 321.921 243.123C323.446 244.003 324.581 245.424 325.104 247.098L325.178 247.375C325.659 249.168 325.408 251.079 324.48 252.687C323.552 254.294 322.024 255.468 320.231 255.949L315.546 257.204L315.117 257.319L315.18 257.758C315.253 258.267 315.266 258.453 315.264 259.627C315.263 259.873 315.262 260.162 315.26 260.504C315.255 261.801 315.247 263.874 315.26 267.359C315.26 269.215 314.522 270.995 313.21 272.308C311.897 273.62 310.116 274.358 308.26 274.358C306.403 274.358 304.623 273.62 303.31 272.308C301.997 270.995 301.26 269.214 301.26 267.358V261.684V261.009L300.614 261.206C299.909 261.421 299.177 261.534 298.44 261.541C296.742 261.541 295.101 260.924 293.824 259.804C292.546 258.684 291.719 257.137 291.498 255.452C291.277 253.767 291.676 252.059 292.621 250.647C293.567 249.235 294.994 248.215 296.636 247.777L296.636 247.777L316.609 242.425Z" stroke="black" stroke-opacity="0.01"/>
<path d="M113.201 415.65H84.595C72.8439 415.65 61.4438 419.656 52.2758 427.006C43.1077 434.357 36.7194 444.614 34.165 456.084L29.565 476.736C28.8089 480.131 28.8252 483.652 29.6127 487.04C30.4001 490.427 31.9386 493.595 34.1145 496.308C36.2903 499.021 39.048 501.211 42.1837 502.715C45.3194 504.22 48.753 505.001 52.231 505H173.448C147.868 479.317 127.421 448.992 113.201 415.65V415.65Z" fill="#34B5E1"/>
<path d="M172.248 504.5H52.231C48.8278 504.501 45.4681 503.737 42.4 502.265C39.3318 500.792 36.6335 498.65 34.5045 495.995C32.3755 493.34 30.8702 490.241 30.0997 486.926C29.3292 483.612 29.3132 480.166 30.053 476.845L34.653 456.193L34.165 456.084L34.653 456.193C37.1828 444.834 43.5092 434.676 52.5886 427.397C61.6679 420.117 72.9576 416.15 84.595 416.15H112.871C126.952 449.063 147.095 479.033 172.248 504.5Z" stroke="black" stroke-opacity="0.01"/>
<path d="M182.739 239.466C182.75 217.5 188.749 195.953 200.093 177.143C182.231 173.453 166.199 191.187 173.165 209.204L173.185 209.255C175.399 214.982 175.323 221.343 172.973 227.016C170.622 232.688 166.177 237.238 160.561 239.721C141.586 248.109 141.586 275.034 160.561 283.421C166.177 285.904 170.622 290.453 172.973 296.126C175.323 301.799 175.399 308.16 173.185 313.887L173.166 313.937C165.686 333.283 184.719 352.315 204.066 344.837L204.117 344.817C209.844 342.602 216.204 342.678 221.877 345.029C227.55 347.38 232.1 351.825 234.583 357.441C242.396 375.116 266.283 376.319 276.304 361.066C221.872 343.755 182.741 295.853 182.741 239.466H182.739Z" fill="#FD5F7E"/>
<path d="M182.239 239.966H182.242C182.471 296.16 221.394 343.851 275.516 361.338C265.499 375.692 242.593 374.326 235.04 357.239C232.506 351.505 227.86 346.967 222.069 344.567C216.277 342.167 209.784 342.09 203.937 344.351L203.934 344.352L203.886 344.371C203.885 344.371 203.884 344.371 203.883 344.371C184.942 351.691 166.309 333.058 173.632 314.117L173.633 314.115L173.651 314.067C173.651 314.067 173.652 314.066 173.652 314.065C175.912 308.218 175.834 301.726 173.435 295.935C171.035 290.143 166.497 285.498 160.763 282.964L160.561 283.421L160.763 282.964C142.185 274.752 142.185 248.391 160.763 240.178C166.497 237.644 171.035 232.999 173.435 227.207C175.834 221.415 175.912 214.922 173.651 209.075L173.65 209.072L173.631 209.024C173.631 209.023 173.631 209.023 173.631 209.022C166.904 191.621 182.093 174.481 199.296 177.5C188.144 196.242 182.25 217.648 182.239 239.466L182.239 239.966Z" stroke="black" stroke-opacity="0.01"/>
</svg>
