<svg width="512" height="512" viewBox="0 0 512 512" fill="none" xmlns="http://www.w3.org/2000/svg">
<path d="M236.936 61.7899C226.161 45.1599 223.28 23.5829 222.566 10.8309C222.397 7.878 221.096 5.10404 218.933 3.08652C216.77 1.069 213.913 -0.0365968 210.955 -0.00010095C147.991 0.737899 123.873 16.7189 124.767 31.7379L131.876 60.0139L164.176 86.2789L236.936 61.7899Z" fill="#CCCCCA"/>
<path d="M361.362 135.261C361.362 135.261 383.576 114.38 387.419 49.4837C387.788 43.5004 385.922 37.5932 382.183 32.9074C378.444 28.2215 373.099 25.0906 367.183 24.1217C343.321 20.2647 298.747 19.9877 232.521 46.8817C173.521 70.8397 125.982 52.1817 124.766 31.7387C124.766 112.101 150.842 135.261 150.842 135.261L256.102 169.335L361.362 135.261Z" fill="#DADADA"/>
<path d="M71.5479 184.543V419.843C71.5484 440.306 79.6772 459.93 94.1461 474.4C108.615 488.869 128.239 496.999 148.702 497H363.495C383.959 497 403.584 488.871 418.055 474.401C432.525 459.931 440.654 440.305 440.654 419.841V184.541L71.5479 184.543Z" fill="#F9ED80"/>
<path d="M99.4619 327.513C99.4619 274.578 114.324 225.392 139.782 184.543H71.5479V419.843C71.5486 440.305 79.6775 459.93 94.1464 474.399C108.615 488.869 128.239 496.998 148.702 497H158.752C121.852 451.808 99.4569 392.488 99.4569 327.513H99.4619Z" fill="#FCCB88"/>
<path d="M426.68 135.261H85.5239C76.1027 135.261 67.0676 139.004 60.406 145.666C53.7444 152.328 50.002 161.364 50.002 170.785V198.3C50.002 207.721 53.7446 216.757 60.4067 223.419C67.0687 230.081 76.1044 233.824 85.526 233.824H426.68C436.101 233.823 445.136 230.08 451.798 223.418C458.46 216.756 462.202 207.721 462.202 198.3V170.785C462.202 161.364 458.46 152.328 451.798 145.666C445.136 139.004 436.101 135.261 426.68 135.261Z" fill="#FF748F"/>
<path d="M256.102 442.297C332.297 442.297 394.066 405.925 394.066 361.058C394.066 316.191 332.297 279.819 256.102 279.819C179.907 279.819 118.138 316.191 118.138 361.058C118.138 405.925 179.907 442.297 256.102 442.297Z" fill="white"/>
<path d="M99.36 178.387C99.368 163.238 103.379 148.36 110.987 135.261H85.5239C76.1027 135.261 67.0676 139.004 60.406 145.666C53.7444 152.328 50.002 161.364 50.002 170.785V198.3C50.002 207.721 53.7446 216.757 60.4067 223.419C67.0687 230.081 76.1044 233.824 85.526 233.824H119.502C106.542 218.251 99.4183 198.647 99.3579 178.387H99.36Z" fill="#FD5F7E"/>
</svg>
