<svg width="512" height="512" viewBox="0 0 512 512" fill="none" xmlns="http://www.w3.org/2000/svg">
<path d="M0.5 0.5H511.5V511.5H0.5V0.5Z" stroke="black" stroke-opacity="0.01"/>
<path d="M236.934 75.7909C226.159 59.1609 223.278 37.5839 222.564 24.8319C222.395 21.879 221.094 19.105 218.931 17.0875C216.768 15.07 213.911 13.9644 210.953 14.0009C147.989 14.7389 123.871 30.7199 124.765 45.7389L131.874 74.0149L164.174 100.28L236.934 75.7909Z" fill="#CCCCCA"/>
<path d="M222.065 24.8598C222.772 37.4963 225.604 58.8547 236.168 75.5213L164.276 99.7181L132.318 73.7318L125.262 45.6628C124.86 38.4911 130.413 30.8992 144.111 24.9734C157.813 19.0459 179.508 14.8695 210.959 14.5008L210.959 14.5008C213.788 14.4659 216.521 15.5234 218.59 17.4531C220.659 19.3827 221.903 22.0357 222.065 24.8598ZM222.065 24.8598L222.564 24.8319M222.065 24.8598C222.065 24.86 222.065 24.8602 222.065 24.8604L222.564 24.8319M222.564 24.8319C223.272 37.4733 226.109 58.7873 236.656 75.3571L210.953 14.0009C213.911 13.9644 216.768 15.07 218.931 17.0875C221.094 19.105 222.395 21.879 222.564 24.8319Z" stroke="black" stroke-opacity="0.01"/>
<path d="M361.36 149.262C361.36 149.262 383.574 128.381 387.417 63.4847C387.786 57.5013 385.92 51.5942 382.181 46.9083C378.442 42.2225 373.097 39.0916 367.181 38.1227C343.319 34.2657 298.745 33.9887 232.519 60.8827C173.519 84.8407 125.98 66.1827 124.764 45.7397C124.764 126.102 150.84 149.262 150.84 149.262L256.1 183.336L361.36 149.262Z" fill="#DADADA"/>
<path d="M386.918 63.4539L386.918 63.4551C384.999 95.8488 378.498 117.232 372.492 130.503C369.489 137.139 366.608 141.748 364.485 144.693C363.424 146.165 362.551 147.221 361.947 147.907C361.645 148.25 361.41 148.5 361.251 148.663C361.186 148.731 361.133 148.784 361.095 148.822L256.1 182.81L151.098 148.82C151.052 148.777 150.985 148.712 150.899 148.627C150.715 148.444 150.441 148.163 150.091 147.775C149.39 146.998 148.384 145.795 147.173 144.097C144.751 140.702 141.509 135.329 138.264 127.446C132.027 112.294 125.771 87.8603 125.293 50.3591C126.715 53.9988 129.538 57.4523 133.513 60.4962C139.135 64.8013 147.108 68.3262 156.866 70.4501C176.387 74.6989 203.124 73.3586 232.707 61.3459C298.856 34.4832 343.338 34.7752 367.101 38.6163C372.894 39.5654 378.129 42.6314 381.79 47.2202C385.452 51.8092 387.279 57.5943 386.918 63.4539Z" stroke="black" stroke-opacity="0.01"/>
<path d="M71.5459 198.544V433.844C71.5464 454.307 79.6752 473.931 94.1442 488.401C108.613 502.87 128.237 511 148.7 511.001H363.493C383.957 511.001 403.582 502.872 418.053 488.402C432.523 473.932 440.652 454.306 440.652 433.842V198.542L71.5459 198.544Z" fill="#F9ED80"/>
<path d="M72.0459 433.844V199.044L440.152 199.042V433.842C440.152 454.173 432.075 473.672 417.699 488.048C403.323 502.424 383.824 510.501 363.493 510.501H148.7C128.37 510.5 108.873 502.423 94.4977 488.047C80.1225 473.671 72.0464 454.174 72.0459 433.844Z" stroke="black" stroke-opacity="0.01"/>
<path d="M99.4599 341.514C99.4599 288.579 114.322 239.393 139.78 198.544H71.5459V433.844C71.5467 454.306 79.6756 473.931 94.1445 488.4C108.613 502.87 128.237 510.999 148.7 511.001H158.75C121.85 465.809 99.4549 406.489 99.4549 341.514H99.4599Z" fill="#FCCB88"/>
<path d="M98.9549 341.514C98.9549 406.214 121.122 465.323 157.699 510.501H148.7C128.37 510.499 108.873 502.422 94.498 488.047C80.1229 473.671 72.0467 454.174 72.0459 433.844V199.044H138.881C113.744 239.691 99.053 288.505 98.9603 341.014H98.9549V341.514Z" stroke="black" stroke-opacity="0.01"/>
<path d="M426.678 149.262H85.522C76.1008 149.262 67.0656 153.005 60.404 159.667C53.7424 166.329 50 175.365 50 184.786V212.301C50 221.722 53.7427 230.758 60.4047 237.42C67.0668 244.082 76.1025 247.825 85.524 247.825H426.678C436.099 247.824 445.134 244.081 451.796 237.419C458.458 230.757 462.2 221.722 462.2 212.301V184.786C462.2 175.365 458.458 166.329 451.796 159.667C445.134 153.005 436.099 149.262 426.678 149.262V149.262Z" fill="#FF748F"/>
<path d="M85.522 149.762H426.678C435.967 149.762 444.875 153.452 451.442 160.021C458.01 166.589 461.7 175.497 461.7 184.786V212.301C461.7 221.589 458.01 230.498 451.442 237.066C444.875 243.634 435.967 247.324 426.678 247.325H85.524C76.2351 247.325 67.3266 243.635 60.7583 237.066C54.19 230.498 50.5 221.59 50.5 212.301V184.786C50.5 175.497 54.1897 166.589 60.7576 160.021C67.3254 153.452 76.2334 149.762 85.522 149.762Z" stroke="black" stroke-opacity="0.01"/>
<path d="M256.1 456.298C332.295 456.298 394.064 419.926 394.064 375.059C394.064 330.192 332.295 293.82 256.1 293.82C179.905 293.82 118.136 330.192 118.136 375.059C118.136 419.926 179.905 456.298 256.1 456.298Z" fill="white"/>
<path d="M393.564 375.059C393.564 397.243 378.29 417.417 353.402 432.073C328.524 446.721 294.124 455.798 256.1 455.798C218.076 455.798 183.676 446.721 158.798 432.073C133.91 417.417 118.636 397.243 118.636 375.059C118.636 352.875 133.91 332.7 158.798 318.045C183.676 303.396 218.076 294.32 256.1 294.32C294.124 294.32 328.524 303.396 353.402 318.045C378.29 332.7 393.564 352.875 393.564 375.059Z" stroke="black" stroke-opacity="0.01"/>
<path d="M99.358 192.388C99.366 177.239 103.377 162.361 110.985 149.262H85.522C76.1008 149.262 67.0656 153.005 60.404 159.667C53.7424 166.329 50 175.365 50 184.786V212.301C50 221.722 53.7427 230.758 60.4047 237.42C67.0668 244.082 76.1025 247.825 85.524 247.825H119.5C106.54 232.252 99.4163 212.648 99.356 192.388H99.358Z" fill="#FD5F7E"/>
<path d="M118.442 247.325H85.524C76.2351 247.325 67.3266 243.635 60.7583 237.066C54.19 230.498 50.5 221.59 50.5 212.301V184.786C50.5 175.497 54.1897 166.589 60.7576 160.021C67.3254 153.452 76.2334 149.762 85.522 149.762H110.121C102.831 162.609 98.9529 177.112 98.8597 191.888H98.8545L98.856 192.389C98.9156 212.411 105.834 231.797 118.442 247.325Z" stroke="black" stroke-opacity="0.01"/>
</svg>
