<svg width="512" height="512" viewBox="0 0 512 512" fill="none" xmlns="http://www.w3.org/2000/svg">
<path d="M48.3899 404.843C48.3899 316.101 116.751 281.136 116.751 281.136H190.887C190.887 281.136 259.248 316.101 259.248 404.843L153.819 430.143L48.3899 404.843Z" fill="#C1E9FA"/>
<path d="M90.8109 387.895C90.8109 341.718 112.068 301.58 143.334 281.136H116.751C116.751 281.136 48.3899 316.101 48.3899 404.843L93.4429 415.656C91.6857 406.507 90.8044 397.211 90.8109 387.895Z" fill="#90D3F1"/>
<path d="M466.549 253.167H368.227L341.181 272.511L301.955 404.843L368.227 436.593L437.196 404.843C441.931 404.843 446.546 403.349 450.382 400.574C454.219 397.799 457.083 393.884 458.565 389.387L491.91 288.23C493.233 284.219 493.586 279.951 492.938 275.777C492.291 271.603 490.663 267.642 488.188 264.219C485.712 260.797 482.46 258.01 478.698 256.089C474.937 254.168 470.773 253.166 466.549 253.167Z" fill="#C7C5CB"/>
<path d="M231.411 33H163.672C77.3331 33 7.09009 103.243 7.09009 189.583L268.39 120.799V69.978C268.39 60.1707 264.494 50.7652 257.559 43.8305C250.624 36.8959 241.218 33 231.411 33Z" fill="#5C586F"/>
<path d="M313.156 276.492L285.68 359.843H239.733C227.533 359.843 217.141 369.331 216.708 381.523C216.598 384.545 217.098 387.558 218.178 390.382C219.259 393.206 220.897 395.783 222.996 397.96C225.095 400.137 227.611 401.868 230.394 403.051C233.177 404.233 236.169 404.843 239.193 404.843L272.805 436.593L301.954 404.843C306.689 404.843 311.304 403.349 315.14 400.574C318.977 397.799 321.841 393.884 323.323 389.387L368.226 253.172H345.4C338.254 253.172 331.291 255.427 325.501 259.615C319.711 263.803 315.39 269.71 313.153 276.497L313.156 276.492Z" fill="#B2B0BC"/>
<path d="M155.872 33.1948C73.1411 37.2718 7.09009 105.859 7.09009 189.583L90.9381 167.511C100.325 117.785 122.731 71.4373 155.872 33.1948Z" fill="#4F4C5F"/>
<path d="M268.389 120.799H93.9661C81.64 120.772 69.6766 124.968 60.0691 132.69C50.4616 140.413 43.7901 151.193 41.1661 163.237C39.1086 172.866 38.188 182.703 38.4231 192.547C39.9451 258.404 92.9901 312.288 158.823 314.774C181.821 315.664 204.62 310.202 224.718 298.986C244.817 287.771 261.437 271.237 272.756 251.197C284.076 231.158 289.656 208.387 288.886 185.385C288.116 162.382 281.024 140.036 268.389 120.799Z" fill="#DA9D81"/>
<path d="M123.743 207.79C121.754 207.79 119.846 207 118.44 205.593C117.033 204.187 116.243 202.279 116.243 200.29V187.29C116.243 185.301 117.033 183.393 118.44 181.987C119.846 180.58 121.754 179.79 123.743 179.79C125.732 179.79 127.64 180.58 129.046 181.987C130.453 183.393 131.243 185.301 131.243 187.29V200.29C131.243 202.279 130.453 204.187 129.046 205.593C127.64 207 125.732 207.79 123.743 207.79Z" fill="#423E4F"/>
<path d="M248.64 207.79C246.651 207.79 244.743 207 243.337 205.593C241.93 204.187 241.14 202.279 241.14 200.29V187.29C241.14 185.301 241.93 183.393 243.337 181.987C244.743 180.58 246.651 179.79 248.64 179.79C250.629 179.79 252.537 180.58 253.943 181.987C255.35 183.393 256.14 185.301 256.14 187.29V200.29C256.14 202.279 255.35 204.187 253.943 205.593C252.537 207 250.629 207.79 248.64 207.79Z" fill="#423E4F"/>
<path d="M186.192 213.934C182 213.933 177.856 213.033 174.041 211.295C170.225 209.558 166.827 207.022 164.074 203.86C163.427 203.117 162.932 202.255 162.619 201.321C162.305 200.387 162.178 199.401 162.246 198.418C162.313 197.436 162.574 196.476 163.012 195.594C163.451 194.712 164.058 193.925 164.801 193.278C165.544 192.631 166.406 192.136 167.34 191.823C168.274 191.509 169.26 191.382 170.243 191.45C171.225 191.517 172.185 191.778 173.067 192.216C173.949 192.654 174.736 193.262 175.383 194.005C176.727 195.552 178.388 196.793 180.253 197.643C182.118 198.493 184.143 198.933 186.193 198.933C188.243 198.933 190.268 198.493 192.133 197.643C193.998 196.793 195.659 195.552 197.003 194.005C198.31 192.505 200.159 191.586 202.143 191.45C204.128 191.313 206.085 191.971 207.585 193.278C209.085 194.585 210.004 196.434 210.14 198.418C210.276 200.403 209.619 202.36 208.312 203.86C205.559 207.022 202.16 209.557 198.344 211.295C194.529 213.033 190.385 213.933 186.192 213.934Z" fill="#423E4F"/>
<path d="M103.9 120.799H93.9661C83.6868 120.787 73.6173 123.707 64.9385 129.215C56.2597 134.724 49.3314 142.593 44.9661 151.899C39.5009 150.95 33.8947 151.201 28.5361 152.634C23.1775 154.067 18.1947 156.648 13.9331 160.199C9.67147 163.75 6.23297 168.185 3.85597 173.197C1.47897 178.208 0.220319 183.677 0.167277 189.224C0.114234 194.771 1.26806 200.262 3.54879 205.319C5.82951 210.375 9.18256 214.875 13.3755 218.507C17.5685 222.138 22.501 224.814 27.8312 226.35C33.1614 227.885 38.7618 228.243 44.2441 227.399C53.1626 255.208 71.446 279.066 95.9801 294.909C80.4244 237.464 83.1932 176.595 103.9 120.799Z" fill="#C7856A"/>
<path d="M475.072 404.843H21.928C19.0483 404.843 16.1967 405.41 13.5361 406.512C10.8756 407.614 8.45816 409.229 6.42192 411.265C4.38567 413.302 2.77049 415.719 1.66862 418.38C0.566735 421.04 -0.000262579 423.892 9.12222e-08 426.772L9.12222e-08 456.417C9.12222e-08 462.232 2.31027 467.81 6.42256 471.922C10.5349 476.035 16.1123 478.345 21.928 478.345H475.073C477.953 478.345 480.804 477.777 483.464 476.675C486.125 475.573 488.542 473.958 490.578 471.922C492.614 469.885 494.229 467.468 495.331 464.807C496.433 462.147 497 459.295 497 456.416V426.772C497 420.956 494.689 415.379 490.577 411.266C486.464 407.154 480.887 404.844 475.071 404.844L475.072 404.843Z" fill="#78CBEC"/>
<path d="M76.151 434.413C76.1414 424.386 77.6515 414.417 80.63 404.843H21.93C19.0501 404.842 16.1983 405.409 13.5375 406.511C10.8767 407.613 8.45908 409.228 6.42262 411.265C4.38617 413.301 2.77081 415.719 1.66881 418.379C0.566802 421.04 -0.000262618 423.892 9.12389e-08 426.772L9.12389e-08 456.418C9.12389e-08 462.233 2.31027 467.811 6.42256 471.923C10.5349 476.036 16.1123 478.346 21.928 478.346H86.388C79.6235 464.69 76.1193 449.652 76.151 434.413Z" fill="#34B5E1"/>
</svg>
