<svg width="512" height="512" viewBox="0 0 512 512" fill="none" xmlns="http://www.w3.org/2000/svg">
<path d="M0.5 0.5H511.5V511.5H0.5V0.5Z" stroke="black" stroke-opacity="0.01"/>
<path d="M48.3899 404.843C48.3899 316.101 116.751 281.136 116.751 281.136H190.887C190.887 281.136 259.248 316.101 259.248 404.843L153.819 430.143L48.3899 404.843Z" fill="#C1E9FA"/>
<path d="M116.79 281.68C116.822 281.663 116.85 281.648 116.873 281.636H190.764C190.788 281.648 190.816 281.663 190.848 281.68C190.975 281.748 191.164 281.85 191.412 281.987C191.908 282.262 192.637 282.678 193.566 283.239C195.424 284.362 198.082 286.067 201.274 288.39C207.658 293.036 216.173 300.155 224.689 310.037C241.665 329.739 258.647 360.429 258.747 404.449L153.819 429.629L48.8903 404.449C48.9912 360.429 65.9729 329.739 82.9492 310.037C91.4646 300.155 99.9797 293.036 106.364 288.39C109.556 286.067 112.214 284.362 114.072 283.239C115.001 282.678 115.73 282.262 116.226 281.987C116.473 281.85 116.663 281.748 116.79 281.68Z" stroke="black" stroke-opacity="0.01"/>
<path d="M90.8109 387.895C90.8109 341.718 112.068 301.58 143.334 281.136H116.751C116.751 281.136 48.3899 316.101 48.3899 404.843L93.4429 415.656C91.6857 406.507 90.8044 397.211 90.8109 387.895V387.895Z" fill="#90D3F1"/>
<path d="M90.3109 387.894C90.3045 396.984 91.1405 406.055 92.8078 414.989L48.8903 404.449C48.9912 360.429 65.9729 329.739 82.9492 310.037C91.4646 300.155 99.9797 293.036 106.364 288.39C109.556 286.067 112.214 284.362 114.072 283.239C115.001 282.678 115.73 282.262 116.226 281.987C116.473 281.85 116.663 281.748 116.79 281.68C116.822 281.663 116.85 281.648 116.873 281.636H141.682C111.012 302.452 90.311 342.253 90.3109 387.894Z" stroke="black" stroke-opacity="0.01"/>
<path d="M466.549 253.167H368.227L341.181 272.511L301.955 404.843L368.227 436.593L437.196 404.843C441.931 404.843 446.546 403.349 450.382 400.574C454.219 397.799 457.083 393.884 458.565 389.387L491.91 288.23C493.233 284.219 493.586 279.951 492.938 275.777C492.291 271.603 490.663 267.642 488.188 264.219C485.712 260.797 482.46 258.01 478.698 256.089C474.937 254.168 470.773 253.166 466.549 253.167V253.167Z" fill="#C7C5CB"/>
<path d="M437.196 404.343H437.087L436.987 404.389L368.231 436.041L302.556 404.576L341.612 272.818L368.387 253.667H466.549C470.694 253.666 474.78 254.649 478.471 256.534C482.162 258.42 485.353 261.154 487.783 264.512C490.212 267.871 491.809 271.757 492.444 275.853C493.079 279.949 492.733 284.137 491.435 288.073L491.91 288.23L491.435 288.073L458.09 389.23C456.641 393.628 453.841 397.455 450.089 400.169C446.338 402.882 441.826 404.343 437.196 404.343Z" stroke="black" stroke-opacity="0.01"/>
<path d="M231.411 33H163.672C77.3331 33 7.09009 103.243 7.09009 189.583L268.39 120.799V69.978C268.39 60.1707 264.494 50.7652 257.559 43.8305C250.624 36.8959 241.218 33 231.411 33V33Z" fill="#5C586F"/>
<path d="M163.672 33.5H231.411C241.086 33.5 250.364 37.3432 257.205 44.1841C264.046 51.025 267.89 60.3034 267.89 69.978V120.414L7.59142 188.934C7.94236 103.167 77.8257 33.5 163.672 33.5Z" stroke="black" stroke-opacity="0.01"/>
<path d="M313.156 276.492L285.68 359.843H239.733C227.533 359.843 217.141 369.331 216.708 381.523C216.598 384.545 217.098 387.558 218.178 390.382C219.259 393.206 220.897 395.783 222.996 397.96C225.095 400.137 227.611 401.868 230.394 403.051C233.177 404.233 236.169 404.843 239.193 404.843L272.805 436.593L301.954 404.843C306.689 404.843 311.304 403.349 315.14 400.574C318.977 397.799 321.841 393.884 323.323 389.387L368.226 253.172H345.4C338.254 253.172 331.291 255.427 325.501 259.615C319.711 263.803 315.39 269.71 313.153 276.497L313.156 276.492Z" fill="#B2B0BC"/>
<path d="M313.631 276.648L313.63 276.648C315.834 269.964 320.091 264.145 325.794 260.02C331.499 255.894 338.36 253.672 345.4 253.672H367.535L322.848 389.23C321.399 393.628 318.599 397.455 314.847 400.169C311.096 402.882 306.584 404.343 301.954 404.343H301.734L301.586 404.505L272.78 435.881L239.536 404.479L239.392 404.343H239.193C236.236 404.343 233.31 403.747 230.589 402.591C227.868 401.434 225.408 399.741 223.356 397.613C221.304 395.485 219.702 392.965 218.645 390.203C217.589 387.442 217.1 384.496 217.208 381.541L217.208 381.541C217.631 369.633 227.786 360.343 239.733 360.343H285.68H286.042L286.155 359.999L313.631 276.648Z" stroke="black" stroke-opacity="0.01"/>
<path d="M155.872 33.1948C73.1411 37.2718 7.09009 105.859 7.09009 189.583L90.9381 167.511C100.325 117.785 122.731 71.4373 155.872 33.1948V33.1948Z" fill="#4F4C5F"/>
<path d="M154.727 33.7562C122.018 71.814 99.8703 117.797 90.5055 167.108L7.59142 188.934C7.93008 106.167 73.0223 38.3934 154.727 33.7562Z" stroke="black" stroke-opacity="0.01"/>
<path d="M268.389 120.799H93.9661C81.64 120.772 69.6766 124.968 60.0691 132.69C50.4616 140.413 43.7901 151.193 41.1661 163.237C39.1086 172.866 38.188 182.703 38.4231 192.547C39.9451 258.404 92.9901 312.288 158.823 314.774C181.821 315.664 204.62 310.202 224.718 298.986C244.817 287.771 261.437 271.237 272.756 251.197C284.076 231.158 289.656 208.387 288.886 185.385C288.116 162.382 281.024 140.036 268.389 120.799V120.799Z" fill="#DA9D81"/>
<path d="M93.965 121.299H93.9661H268.119C280.611 140.409 287.622 162.581 288.386 185.402C289.154 208.312 283.595 230.992 272.321 250.951C261.047 270.911 244.493 287.38 224.475 298.55C204.457 309.72 181.749 315.161 158.842 314.274L158.842 314.274C93.2734 311.798 40.4389 258.128 38.923 192.535L38.923 192.535C38.6888 182.731 39.6057 172.933 41.6548 163.342C44.2547 151.411 50.8642 140.73 60.3824 133.08C69.9008 125.43 81.7532 121.272 93.965 121.299Z" stroke="black" stroke-opacity="0.01"/>
<path d="M123.743 207.79C121.754 207.79 119.846 207 118.44 205.593C117.033 204.187 116.243 202.279 116.243 200.29V187.29C116.243 185.301 117.033 183.393 118.44 181.987C119.846 180.58 121.754 179.79 123.743 179.79C125.732 179.79 127.64 180.58 129.046 181.987C130.453 183.393 131.243 185.301 131.243 187.29V200.29C131.243 202.279 130.453 204.187 129.046 205.593C127.64 207 125.732 207.79 123.743 207.79Z" fill="#423E4F"/>
<path d="M123.743 207.29C121.886 207.29 120.106 206.553 118.793 205.24C117.48 203.927 116.743 202.147 116.743 200.29V187.29C116.743 185.434 117.48 183.653 118.793 182.34C120.106 181.028 121.886 180.29 123.743 180.29C125.599 180.29 127.38 181.028 128.693 182.34C130.005 183.653 130.743 185.434 130.743 187.29V200.29C130.743 202.147 130.005 203.927 128.693 205.24C127.38 206.553 125.599 207.29 123.743 207.29Z" stroke="black" stroke-opacity="0.01"/>
<path d="M248.64 207.79C246.651 207.79 244.743 207 243.337 205.593C241.93 204.187 241.14 202.279 241.14 200.29V187.29C241.14 185.301 241.93 183.393 243.337 181.987C244.743 180.58 246.651 179.79 248.64 179.79C250.629 179.79 252.537 180.58 253.943 181.987C255.35 183.393 256.14 185.301 256.14 187.29V200.29C256.14 202.279 255.35 204.187 253.943 205.593C252.537 207 250.629 207.79 248.64 207.79V207.79Z" fill="#423E4F"/>
<path d="M248.64 207.29C246.783 207.29 245.003 206.553 243.69 205.24C242.377 203.927 241.64 202.147 241.64 200.29V187.29C241.64 185.434 242.377 183.653 243.69 182.34C245.003 181.028 246.783 180.29 248.64 180.29C250.496 180.29 252.277 181.028 253.59 182.34C254.902 183.653 255.64 185.434 255.64 187.29V200.29C255.64 202.147 254.902 203.927 253.59 205.24C252.277 206.553 250.496 207.29 248.64 207.29Z" stroke="black" stroke-opacity="0.01"/>
<path d="M186.192 213.934C182 213.933 177.856 213.033 174.041 211.295C170.225 209.558 166.827 207.022 164.074 203.86C163.427 203.117 162.932 202.255 162.619 201.321C162.305 200.387 162.178 199.401 162.246 198.418C162.313 197.436 162.574 196.476 163.012 195.594C163.451 194.712 164.058 193.925 164.801 193.278C165.544 192.631 166.406 192.136 167.34 191.823C168.274 191.509 169.26 191.382 170.243 191.45C171.225 191.517 172.185 191.778 173.067 192.216C173.949 192.654 174.736 193.262 175.383 194.005C176.727 195.552 178.388 196.793 180.253 197.643C182.118 198.493 184.143 198.933 186.193 198.933C188.243 198.933 190.268 198.493 192.133 197.643C193.998 196.793 195.659 195.552 197.003 194.005C198.31 192.505 200.159 191.586 202.143 191.45C204.128 191.313 206.085 191.971 207.585 193.278C209.085 194.585 210.004 196.434 210.14 198.418C210.276 200.403 209.619 202.36 208.312 203.86C205.559 207.022 202.16 209.557 198.344 211.295C194.529 213.033 190.385 213.933 186.192 213.934V213.934Z" fill="#423E4F"/>
<path d="M164.451 203.531L164.451 203.532C167.157 206.64 170.497 209.132 174.248 210.84C177.998 212.549 182.071 213.433 186.192 213.434L164.451 203.531ZM164.451 203.531C163.847 202.838 163.385 202.033 163.093 201.162C162.8 200.29 162.682 199.37 162.745 198.453C162.808 197.535 163.051 196.64 163.46 195.817C163.869 194.993 164.436 194.259 165.129 193.655C165.823 193.051 166.628 192.589 167.499 192.297C168.371 192.004 169.291 191.886 170.208 191.949C171.125 192.012 172.021 192.255 172.844 192.664C173.667 193.073 174.402 193.64 175.006 194.333C176.397 195.934 178.115 197.218 180.045 198.098C181.975 198.978 184.072 199.433 186.193 199.433C188.314 199.433 190.411 198.978 192.341 198.098C194.271 197.218 195.989 195.934 197.38 194.333C198.6 192.933 200.326 192.076 202.178 191.949C204.03 191.821 205.857 192.435 207.257 193.655C208.656 194.875 209.514 196.6 209.641 198.453C209.769 200.305 209.155 202.132 207.935 203.531L207.935 203.532M164.451 203.531L207.935 203.532M207.935 203.532C205.229 206.64 201.888 209.132 198.137 210.84M207.935 203.532L198.137 210.84M198.137 210.84C194.386 212.548 190.313 213.433 186.192 213.434L198.137 210.84Z" stroke="black" stroke-opacity="0.01"/>
<path d="M103.9 120.799H93.9661C83.6868 120.787 73.6173 123.707 64.9385 129.215C56.2597 134.724 49.3314 142.593 44.9661 151.899C39.5009 150.95 33.8947 151.201 28.5361 152.634C23.1775 154.067 18.1947 156.648 13.9331 160.199C9.67147 163.75 6.23297 168.185 3.85597 173.197C1.47897 178.208 0.220319 183.677 0.167277 189.224C0.114234 194.771 1.26806 200.262 3.54879 205.319C5.82951 210.375 9.18256 214.875 13.3755 218.507C17.5685 222.138 22.501 224.814 27.8312 226.35C33.1614 227.885 38.7618 228.243 44.2441 227.399C53.1626 255.208 71.446 279.066 95.9801 294.909C80.4244 237.464 83.1932 176.595 103.9 120.799V120.799Z" fill="#C7856A"/>
<path d="M93.9655 121.299H93.9661H103.182C82.8171 176.599 80.0177 236.832 95.1581 293.775C71.2712 277.997 53.4704 254.531 44.7202 227.246L44.5898 226.84L44.168 226.905C38.7573 227.738 33.2301 227.385 27.9696 225.869C22.7091 224.354 17.841 221.713 13.7028 218.129C9.5647 214.545 6.25548 210.104 4.00457 205.113C1.75365 200.123 0.614904 194.703 0.667254 189.229C0.719603 183.754 1.9618 178.357 4.30773 173.411C6.65367 168.464 10.0472 164.087 14.2532 160.583C18.4591 157.079 23.3768 154.531 28.6653 153.117C33.9539 151.702 39.4868 151.455 44.8805 152.391L45.2566 152.457L45.4188 152.111C49.7437 142.891 56.6079 135.095 65.2064 129.638C73.805 124.18 83.7813 121.287 93.9655 121.299Z" stroke="black" stroke-opacity="0.01"/>
<path d="M475.072 404.843H21.928C19.0483 404.843 16.1967 405.41 13.5361 406.512C10.8756 407.614 8.45816 409.229 6.42192 411.265C4.38567 413.302 2.7705 415.719 1.66862 418.38C0.566735 421.04 -0.000262579 423.892 9.12222e-08 426.772L9.12222e-08 456.417C9.12222e-08 462.232 2.31027 467.81 6.42256 471.922C10.5349 476.035 16.1123 478.345 21.928 478.345H475.073C477.953 478.345 480.804 477.777 483.464 476.675C486.125 475.573 488.542 473.958 490.578 471.922C492.614 469.885 494.229 467.468 495.331 464.807C496.433 462.147 497 459.295 497 456.416V426.772C497 420.956 494.689 415.379 490.577 411.266C486.464 407.154 480.887 404.844 475.071 404.844L475.072 404.843Z" fill="#78CBEC"/>
<path d="M21.928 405.343H473.891L473.89 405.344H475.071C480.754 405.344 486.205 407.601 490.223 411.62C494.242 415.638 496.5 421.089 496.5 426.772V456.416C496.5 459.23 495.946 462.016 494.869 464.616C493.793 467.216 492.214 469.578 490.225 471.568C488.235 473.558 485.873 475.136 483.273 476.213C480.673 477.29 477.887 477.845 475.073 477.845H21.928C16.2449 477.845 10.7946 475.587 6.77612 471.569C2.75759 467.55 0.5 462.1 0.5 456.417V426.772L0.5 426.772C0.499743 423.958 1.05381 421.171 2.13057 418.571C3.20732 415.971 4.78567 413.609 6.77548 411.619C8.76529 409.629 11.1276 408.051 13.7275 406.974C16.3274 405.897 19.1139 405.343 21.928 405.343Z" stroke="black" stroke-opacity="0.01"/>
<path d="M76.151 434.413C76.1414 424.386 77.6515 414.417 80.63 404.843H21.93C19.0501 404.842 16.1983 405.409 13.5375 406.511C10.8767 407.613 8.45908 409.228 6.42262 411.265C4.38617 413.301 2.77081 415.719 1.66881 418.379C0.566802 421.04 -0.000262618 423.892 9.12389e-08 426.772L9.12389e-08 456.418C9.12389e-08 462.233 2.31027 467.811 6.42256 471.923C10.5349 476.036 16.1123 478.346 21.928 478.346H86.388C79.6235 464.69 76.1193 449.652 76.151 434.413V434.413Z" fill="#34B5E1"/>
<path d="M85.586 477.846H21.928C16.2449 477.846 10.7946 475.588 6.77612 471.57C2.75759 467.551 0.5 462.101 0.5 456.418V426.772L0.5 426.772C0.499743 423.957 1.05388 421.171 2.13075 418.571C3.20763 415.971 4.78615 413.608 6.77617 411.618C8.76619 409.628 11.1287 408.05 13.7288 406.973C16.3289 405.896 19.1157 405.342 21.9299 405.343H21.93H79.9532C77.0918 414.766 75.6416 424.562 75.651 434.413C75.6198 449.461 79.019 464.314 85.586 477.846Z" stroke="black" stroke-opacity="0.01"/>
</svg>
