<svg width="512" height="512" viewBox="0 0 512 512" fill="none" xmlns="http://www.w3.org/2000/svg">
<path d="M129.889 326.372L69.145 493.272C68.082 496.194 67.7391 499.329 68.1453 502.412C68.5515 505.495 69.6949 508.434 71.4786 510.981C73.2623 513.528 75.6337 515.608 78.3918 517.044C81.1499 518.479 84.2135 519.229 87.323 519.229H120.655C124.625 519.229 128.499 518.008 131.751 515.731C135.003 513.454 137.475 510.232 138.833 506.501L189.133 368.301C166.628 358.696 146.431 344.402 129.889 326.372Z" fill="#4E5660"/>
<path d="M129.889 326.373L104.808 395.283C123.255 410.473 143.89 422.791 166.014 431.821L189.131 368.307C166.627 358.7 146.431 344.404 129.889 326.373Z" fill="#404656"/>
<path d="M382.868 326.372L443.613 493.272C444.676 496.194 445.018 499.329 444.612 502.412C444.206 505.495 443.062 508.434 441.279 510.981C439.495 513.528 437.124 515.607 434.366 517.043C431.608 518.479 428.544 519.229 425.435 519.229H392.103C388.133 519.229 384.259 518.008 381.007 515.731C377.755 513.454 375.283 510.231 373.925 506.501L323.625 368.301C346.129 358.694 366.325 344.398 382.866 326.367L382.868 326.372Z" fill="#4E5660"/>
<path d="M382.868 326.373C366.327 344.404 346.131 358.7 323.627 368.307L346.744 431.821C368.868 422.791 389.503 410.473 407.95 395.283L382.868 326.373Z" fill="#404656"/>
<path d="M200.279 217.799H102.291C100.302 217.799 98.3942 217.009 96.9877 215.602C95.5812 214.196 94.791 212.288 94.791 210.299C94.791 208.31 95.5812 206.402 96.9877 204.996C98.3942 203.589 100.302 202.799 102.291 202.799H200.279C202.268 202.799 204.176 203.589 205.582 204.996C206.989 206.402 207.779 208.31 207.779 210.299C207.779 212.288 206.989 214.196 205.582 215.602C204.176 217.009 202.268 217.799 200.279 217.799Z" fill="#908CD6"/>
<path d="M256.379 161.703C254.39 161.703 252.482 160.913 251.076 159.506C249.669 158.1 248.879 156.192 248.879 154.203V56.2109C248.879 54.2218 249.669 52.3142 251.076 50.9076C252.482 49.5011 254.39 48.7109 256.379 48.7109C258.368 48.7109 260.276 49.5011 261.682 50.9076C263.089 52.3142 263.879 54.2218 263.879 56.2109V154.203C263.879 156.192 263.089 158.1 261.682 159.506C260.276 160.913 258.368 161.703 256.379 161.703Z" fill="#F7EF87"/>
<path d="M410.467 217.799H312.479C310.49 217.799 308.582 217.009 307.176 215.602C305.769 214.196 304.979 212.288 304.979 210.299C304.979 208.31 305.769 206.402 307.176 204.996C308.582 203.589 310.49 202.799 312.479 202.799H410.471C412.46 202.799 414.368 203.589 415.774 204.996C417.181 206.402 417.971 208.31 417.971 210.299C417.971 212.288 417.181 214.196 415.774 215.602C414.368 217.009 412.46 217.799 410.471 217.799H410.467Z" fill="#E7889D"/>
<path d="M256.379 371.886C254.39 371.886 252.482 371.096 251.076 369.689C249.669 368.283 248.879 366.375 248.879 364.386V266.394C248.879 264.405 249.669 262.497 251.076 261.091C252.482 259.684 254.39 258.894 256.379 258.894C258.368 258.894 260.276 259.684 261.682 261.091C263.089 262.497 263.879 264.405 263.879 266.394V364.386C263.879 366.375 263.089 368.283 261.682 369.689C260.276 371.096 258.368 371.886 256.379 371.886Z" fill="#E7889D"/>
<path d="M216.713 178.129C215.728 178.129 214.753 177.935 213.843 177.558C212.934 177.18 212.108 176.627 211.413 175.929L170.834 135.35C169.438 133.941 168.656 132.037 168.661 130.053C168.665 128.07 169.455 126.169 170.858 124.767C172.26 123.364 174.161 122.574 176.145 122.57C178.128 122.566 180.032 123.347 181.441 124.744L222.017 165.329C223.065 166.378 223.778 167.714 224.067 169.167C224.356 170.621 224.207 172.128 223.64 173.498C223.073 174.868 222.113 176.039 220.88 176.863C219.648 177.687 218.199 178.128 216.717 178.129H216.713Z" fill="#7CDCC4"/>
<path d="M296.045 178.129C294.563 178.128 293.114 177.687 291.882 176.863C290.65 176.039 289.689 174.868 289.122 173.498C288.555 172.129 288.407 170.622 288.695 169.168C288.984 167.714 289.697 166.378 290.745 165.329L331.323 124.75C332.729 123.343 334.637 122.553 336.626 122.553C338.616 122.553 340.523 123.343 341.93 124.749C343.337 126.155 344.127 128.063 344.127 130.052C344.128 132.042 343.337 133.949 341.931 135.356L301.349 175.936C300.654 176.633 299.828 177.187 298.918 177.564C298.009 177.942 297.034 178.136 296.049 178.136L296.045 178.129Z" fill="#7CDCC4"/>
<path d="M336.623 298.043C335.638 298.043 334.663 297.849 333.754 297.472C332.844 297.094 332.018 296.541 331.323 295.843L290.745 255.264C289.338 253.857 288.548 251.95 288.548 249.96C288.548 247.971 289.338 246.064 290.745 244.657C292.152 243.25 294.059 242.46 296.048 242.46C298.038 242.46 299.945 243.25 301.352 244.657L341.93 285.236C342.978 286.285 343.691 287.621 343.98 289.075C344.268 290.529 344.12 292.036 343.553 293.405C342.986 294.775 342.025 295.946 340.793 296.77C339.561 297.594 338.112 298.035 336.63 298.036L336.623 298.043Z" fill="#F7EF87"/>
<path d="M176.134 298.043C174.652 298.042 173.203 297.601 171.971 296.777C170.739 295.953 169.778 294.782 169.211 293.412C168.644 292.043 168.496 290.536 168.784 289.082C169.073 287.628 169.786 286.292 170.834 285.243L211.413 244.664C212.108 243.963 212.935 243.405 213.847 243.025C214.758 242.644 215.736 242.446 216.723 242.444C217.711 242.442 218.689 242.635 219.602 243.012C220.515 243.389 221.344 243.943 222.043 244.641C222.741 245.34 223.295 246.169 223.672 247.082C224.049 247.995 224.241 248.973 224.239 249.961C224.237 250.949 224.04 251.926 223.659 252.838C223.278 253.749 222.721 254.576 222.019 255.271L181.44 295.85C180.745 296.548 179.919 297.101 179.01 297.479C178.1 297.856 177.125 298.051 176.14 298.05L176.134 298.043Z" fill="#7CDCC4"/>
<path d="M256.379 7.229C144.227 7.229 53.309 98.146 53.309 210.299C53.309 322.452 144.226 413.369 256.379 413.369C368.532 413.369 459.449 322.452 459.449 210.299C459.449 98.146 368.531 7.229 256.379 7.229ZM256.379 364.397C225.901 364.397 196.107 355.359 170.766 338.426C145.424 321.494 125.673 297.427 114.009 269.269C102.346 241.11 99.294 210.126 105.24 180.234C111.186 150.341 125.863 122.883 147.414 101.332C168.965 79.7806 196.423 65.104 226.316 59.158C256.208 53.212 287.192 56.2637 315.351 67.9272C343.509 79.5906 367.576 99.342 384.508 124.684C401.441 150.025 410.479 179.819 410.479 210.297C410.479 251.167 394.244 290.363 365.344 319.262C336.445 348.161 297.249 364.397 256.379 364.397Z" fill="#E7889D"/>
<path d="M271.836 363.629C266.752 364.135 261.6 364.391 256.379 364.398C218.917 364.394 182.739 350.746 154.61 326.004C126.481 301.263 108.326 267.123 103.541 229.969C98.7552 192.814 107.666 155.188 128.608 124.126C149.55 93.0648 181.089 70.6944 217.327 61.198C194.868 52.698 191.716 28.39 197.02 16.053C113.829 41.444 53.309 118.799 53.309 210.299C53.309 322.451 144.226 413.368 256.378 413.368C266.969 413.369 277.545 412.548 288.009 410.911C266.153 401.881 263.458 375.098 271.836 363.629Z" fill="#E16E7E"/>
<path d="M428.656 130.086C454.08 104.663 454.08 63.4431 428.656 38.0196C403.233 12.5961 362.013 12.5961 336.589 38.0196C311.166 63.4431 311.166 104.663 336.589 130.086C362.013 155.51 403.233 155.51 428.656 130.086Z" fill="#A3DEFE"/>
<path d="M317.556 84.021C317.556 101.287 324.415 117.845 336.623 130.054C348.832 142.262 365.39 149.121 382.656 149.121C399.922 149.121 416.48 142.262 428.689 130.054C440.897 117.845 447.756 101.287 447.756 84.021H317.556Z" fill="#908CD6"/>
<path d="M139.124 148.51C174.729 143.511 199.541 110.595 194.542 74.9901C189.543 39.385 156.627 14.5738 121.022 19.5727C85.4166 24.5716 60.6054 57.4876 65.6043 93.0927C70.6032 128.698 103.519 153.509 139.124 148.51Z" fill="#F7EF87"/>
<path d="M195.202 84.0211C195.202 66.7555 188.343 50.1971 176.135 37.9885C163.926 25.7799 147.368 18.9211 130.102 18.9211C112.836 18.9211 96.2779 25.7799 84.0693 37.9885C71.8607 50.1971 65.002 66.7555 65.002 84.0211H195.202Z" fill="#A3DEFE"/>
<path d="M176.1 382.589C201.524 357.166 201.524 315.946 176.1 290.523C150.677 265.099 109.457 265.099 84.0334 290.523C58.6098 315.946 58.6098 357.166 84.0334 382.589C109.457 408.013 150.677 408.013 176.1 382.589Z" fill="#A3DEFE"/>
<path d="M65 336.577C65 353.842 71.8587 370.401 84.0673 382.61C96.276 394.818 112.834 401.677 130.1 401.677C147.366 401.677 163.924 394.818 176.133 382.61C188.341 370.401 195.2 353.842 195.2 336.577H65Z" fill="#908CD6"/>
<path d="M392.98 400.872C428.467 395.12 452.571 361.688 446.819 326.201C441.066 290.715 407.635 266.61 372.148 272.363C336.661 278.116 312.556 311.547 318.309 347.034C324.062 382.521 357.493 406.625 392.98 400.872Z" fill="#F7EF87"/>
<path d="M447.758 336.577C447.758 319.311 440.899 302.753 428.691 290.544C416.482 278.336 399.924 271.477 382.658 271.477C365.392 271.477 348.834 278.336 336.625 290.544C324.417 302.753 317.558 319.311 317.558 336.577H447.758Z" fill="#A3DEFE"/>
<path d="M256.379 266.395C287.36 266.395 312.475 241.28 312.475 210.299C312.475 179.318 287.36 154.203 256.379 154.203C225.398 154.203 200.283 179.318 200.283 210.299C200.283 241.28 225.398 266.395 256.379 266.395Z" fill="#B49CDC"/>
<path d="M268.05 223.845L249.58 193.755C237.561 191.683 230.48 172.119 233.931 158.888C226.727 162.03 220.264 166.652 214.961 172.452C209.658 178.252 205.633 185.103 203.147 192.558C200.661 200.014 199.77 207.909 200.531 215.731C201.291 223.554 203.688 231.129 207.564 237.966C211.44 244.802 216.71 250.748 223.031 255.418C229.353 260.088 236.585 263.377 244.259 265.072C251.934 266.768 259.878 266.831 267.579 265.259C275.279 263.687 282.563 260.515 288.959 255.947C275.05 252.201 264.233 231.479 268.05 223.845Z" fill="#908CD6"/>
<path d="M256.379 230.923C267.769 230.923 277.003 221.689 277.003 210.299C277.003 198.909 267.769 189.675 256.379 189.675C244.989 189.675 235.755 198.909 235.755 210.299C235.755 221.689 244.989 230.923 256.379 230.923Z" fill="#A0E7E7"/>
</svg>
