<svg width="512" height="512" viewBox="0 0 512 512" fill="none" xmlns="http://www.w3.org/2000/svg">
<path d="M477.754 202.273H36C30.9609 202.273 26.1282 200.271 22.565 196.708C19.0018 193.145 17 188.312 17 183.273V160.063C17 155.024 19.0018 150.191 22.565 146.628C26.1282 143.065 30.9609 141.063 36 141.063H477.75C482.789 141.063 487.622 143.065 491.185 146.628C494.748 150.191 496.75 155.024 496.75 160.063V183.274C496.75 188.312 494.748 193.144 491.186 196.707C487.624 200.27 482.792 202.272 477.754 202.273Z" fill="#F8EED1"/>
<path d="M36 141.066C30.9609 141.066 26.1282 143.068 22.565 146.631C19.0018 150.194 17 155.027 17 160.066L17 183.273C17 188.312 19.0018 193.145 22.565 196.708C26.1282 200.271 30.9609 202.273 36 202.273H242.309C218.161 187.718 216.641 159.226 226.25 141.066H36Z" fill="#EDD8A1"/>
<path d="M477.754 512H36C30.9609 512 26.1282 509.998 22.565 506.435C19.0018 502.872 17 498.039 17 493V469.793C17 464.754 19.0018 459.921 22.565 456.358C26.1282 452.795 30.9609 450.793 36 450.793H477.75C482.789 450.793 487.622 452.795 491.185 456.358C494.748 459.921 496.75 464.754 496.75 469.793V493C496.75 498.039 494.749 502.871 491.186 506.434C487.624 509.997 482.792 511.999 477.754 512Z" fill="#F8EED1"/>
<path d="M36 450.793C30.9609 450.793 26.1282 452.795 22.565 456.358C19.0018 459.921 17 464.754 17 469.793L17 493C17 498.039 19.0018 502.872 22.565 506.435C26.1282 509.998 30.9609 512 36 512H313.207C254.307 506.316 247.266 468.957 256.875 450.8H36V450.793Z" fill="#EDD8A1"/>
<path d="M134.539 240.84H62.77C59.787 240.84 56.9262 239.655 54.8165 237.547C52.7068 235.438 51.5211 232.577 51.52 229.594V202.274H145.786V229.594C145.786 231.071 145.495 232.534 144.93 233.898C144.365 235.263 143.536 236.502 142.492 237.547C141.447 238.591 140.208 239.419 138.843 239.984C137.478 240.55 136.016 240.84 134.539 240.84Z" fill="#97D1C2"/>
<path d="M62.77 412.227H134.54C137.523 412.227 140.383 413.412 142.492 415.521C144.601 417.63 145.786 420.49 145.786 423.473V450.793H51.5229V423.473C51.5229 421.996 51.8139 420.534 52.3791 419.169C52.9443 417.805 53.7728 416.565 54.8172 415.521C55.8616 414.476 57.1014 413.648 58.466 413.083C59.8305 412.518 61.293 412.227 62.77 412.227Z" fill="#97D1C2"/>
<path d="M72.949 240.84H124.359V412.227H72.949V240.84Z" fill="#F8EED1"/>
<path d="M292.762 240.84H220.992C218.009 240.84 215.148 239.655 213.038 237.547C210.929 235.438 209.743 232.577 209.742 229.594V202.274H304.008V229.594C304.008 231.071 303.717 232.533 303.152 233.898C302.587 235.262 301.758 236.502 300.714 237.546C299.67 238.591 298.43 239.419 297.066 239.984C295.701 240.549 294.239 240.84 292.762 240.84Z" fill="#97D1C2"/>
<path d="M220.992 412.227H292.762C295.745 412.227 298.605 413.412 300.714 415.521C302.823 417.63 304.008 420.49 304.008 423.473V450.793H209.742V423.473C209.744 420.49 210.929 417.63 213.039 415.521C215.149 413.412 218.009 412.228 220.992 412.227Z" fill="#97D1C2"/>
<path d="M231.168 240.84H282.582V412.227H231.168V240.84Z" fill="#F8EED1"/>
<path d="M450.98 240.84H379.21C376.227 240.84 373.367 239.655 371.258 237.546C369.149 235.437 367.964 232.577 367.964 229.594V202.274H462.23V229.594C462.229 232.577 461.043 235.438 458.933 237.547C456.824 239.655 453.963 240.84 450.98 240.84Z" fill="#97D1C2"/>
<path d="M379.211 412.227H450.981C452.458 412.227 453.92 412.518 455.285 413.083C456.649 413.648 457.889 414.476 458.934 415.52C459.978 416.565 460.806 417.805 461.371 419.169C461.936 420.534 462.227 421.996 462.227 423.473V450.793H367.965V423.473C367.965 420.49 369.15 417.63 371.259 415.521C373.368 413.412 376.228 412.227 379.211 412.227Z" fill="#97D1C2"/>
<path d="M389.391 240.84H440.8V412.227H389.391V240.84Z" fill="#F8EED1"/>
<path d="M389.391 240.84H440.8V265.965H389.391V240.84Z" fill="#EDD8A1"/>
<path d="M231.168 240.84H282.582V265.965H231.168V240.84Z" fill="#EDD8A1"/>
<path d="M72.949 240.84H124.359V265.965H72.949V240.84Z" fill="#EDD8A1"/>
<path d="M389.391 394.8H440.8V412.222H389.391V394.8Z" fill="#EDD8A1"/>
<path d="M231.168 394.8H282.582V412.222H231.168V394.8Z" fill="#EDD8A1"/>
<path d="M72.949 394.8H124.359V412.222H72.949V394.8Z" fill="#EDD8A1"/>
<path d="M462.227 141.066L293.891 12.5161C283.258 4.39886 270.252 0.00170898 256.875 0.00170898C243.499 0.00170898 230.493 4.39886 219.86 12.5161L51.5229 141.066H462.227Z" fill="#97D1C2"/>
<path d="M219.859 12.5162L51.5229 141.066H274.582C223.172 106.73 209.539 45.8322 229.539 6.48022C226.13 8.18464 222.889 10.2055 219.859 12.5162Z" fill="#73C9BA"/>
<path d="M105.918 141.066L238.777 39.6132C243.975 35.6423 250.335 33.4912 256.877 33.4912C263.418 33.4912 269.778 35.6423 274.977 39.6132L407.832 141.066H105.918Z" fill="#495059"/>
<path d="M313.207 126.867C313.206 138.008 309.902 148.899 303.711 158.162C297.521 167.426 288.723 174.645 278.43 178.908C268.136 183.171 256.81 184.286 245.883 182.112C234.956 179.938 224.919 174.573 217.041 166.694C209.163 158.816 203.798 148.779 201.625 137.851C199.452 126.924 200.568 115.598 204.831 105.305C209.095 95.0117 216.315 86.214 225.579 80.0244C234.843 73.8347 245.734 70.531 256.875 70.531C264.273 70.531 271.598 71.9882 278.433 74.8194C285.268 77.6506 291.478 81.8004 296.709 87.0317C301.94 92.263 306.089 98.4735 308.92 105.308C311.751 112.143 313.208 119.469 313.207 126.867Z" fill="#F2D073"/>
<path d="M259.395 158.77H242.387C240.398 158.77 238.49 157.98 237.084 156.574C235.677 155.167 234.887 153.259 234.887 151.27C234.887 149.281 235.677 147.373 237.084 145.967C238.49 144.56 240.398 143.77 242.387 143.77H259.395C260.581 143.769 261.718 143.298 262.557 142.459C263.396 141.62 263.867 140.483 263.868 139.297C263.865 138.564 263.625 137.851 263.186 137.263C262.746 136.676 262.13 136.246 261.427 136.035L248.064 132.078C244.268 130.936 240.939 128.605 238.567 125.428C236.195 122.252 234.905 118.398 234.888 114.433C234.894 109.271 236.946 104.322 240.596 100.671C244.246 97.0203 249.195 94.9666 254.357 94.9602H271.369C273.358 94.9602 275.266 95.7504 276.673 97.1569C278.079 98.5634 278.869 100.471 278.869 102.46C278.869 104.449 278.079 106.357 276.673 107.764C275.266 109.17 273.358 109.96 271.369 109.96H254.355C253.17 109.962 252.033 110.433 251.195 111.272C250.357 112.111 249.886 113.248 249.886 114.433C249.889 115.166 250.128 115.879 250.567 116.467C251.006 117.054 251.622 117.485 252.324 117.695L265.687 121.652C269.484 122.795 272.814 125.126 275.187 128.303C277.56 131.48 278.85 135.335 278.867 139.3C278.859 144.462 276.805 149.41 273.155 153.06C269.505 156.709 264.557 158.763 259.395 158.77Z" fill="#495059"/>
<path d="M256.875 109.961C254.886 109.961 252.978 109.171 251.572 107.764C250.165 106.358 249.375 104.45 249.375 102.461V90.8281C249.375 88.839 250.165 86.9313 251.572 85.5248C252.978 84.1183 254.886 83.3281 256.875 83.3281C258.864 83.3281 260.772 84.1183 262.178 85.5248C263.585 86.9313 264.375 88.839 264.375 90.8281V102.461C264.375 104.45 263.585 106.358 262.178 107.764C260.772 109.171 258.864 109.961 256.875 109.961Z" fill="#495059"/>
<path d="M256.875 170.4C254.886 170.4 252.978 169.61 251.572 168.203C250.165 166.797 249.375 164.889 249.375 162.9V151.27C249.375 149.281 250.165 147.373 251.572 145.967C252.978 144.56 254.886 143.77 256.875 143.77C258.864 143.77 260.772 144.56 262.178 145.967C263.585 147.373 264.375 149.281 264.375 151.27V162.9C264.375 164.889 263.585 166.797 262.178 168.203C260.772 169.61 258.864 170.4 256.875 170.4Z" fill="#495059"/>
</svg>
