<svg width="512" height="512" viewBox="0 0 512 512" fill="none" xmlns="http://www.w3.org/2000/svg">
<path d="M382.977 326.483C378.492 326.483 374.19 324.701 371.018 321.529C367.846 318.357 366.064 314.055 366.064 309.569V264.733C366.064 260.248 367.846 255.946 371.018 252.774C374.19 249.602 378.492 247.82 382.977 247.82H467.036V198.735H78.0363V424.998H467.036V326.484H382.977V326.483Z" fill="#4E5660"/>
<path d="M78.0392 198.734V424.997H202.585C162.816 364.24 154.741 269.45 153.485 198.734H78.0392Z" fill="#3A4351"/>
<path d="M78.0392 371.065H467.039V424.997H78.0392V371.065Z" fill="#E0B799"/>
<path d="M78.0392 371.065V424.997H202.585C192.13 409.024 183.885 390.686 177.357 371.065H78.0392Z" fill="#D99A84"/>
<path d="M378.723 371.065H393.723V424.998H378.723V371.065Z" fill="#D99A84"/>
<path d="M482.12 424.997H29.8822C23.5952 424.997 17.4874 427.091 12.5224 430.948C7.55754 434.805 4.01829 440.205 2.4632 446.297L0.417205 454.323C-0.0816129 456.276 -0.127403 458.318 0.283332 460.291C0.694067 462.265 1.55046 464.118 2.78709 465.71C4.02372 467.302 5.60786 468.59 7.4185 469.477C9.22913 470.363 11.2184 470.823 13.2342 470.823H498.766C500.782 470.823 502.771 470.363 504.582 469.477C506.393 468.59 507.977 467.302 509.213 465.71C510.45 464.118 511.306 462.265 511.717 460.291C512.128 458.318 512.082 456.276 511.583 454.323L509.537 446.301C507.984 440.209 504.446 434.807 499.481 430.949C494.516 427.091 488.408 424.997 482.12 424.997Z" fill="#4E5660"/>
<path d="M184.49 424.997H29.8822C23.5952 424.997 17.4874 427.091 12.5224 430.948C7.55754 434.805 4.01829 440.205 2.4632 446.297L0.417205 454.322C-0.0816129 456.275 -0.127403 458.317 0.283332 460.29C0.694067 462.264 1.55046 464.117 2.78709 465.709C4.02372 467.301 5.60786 468.589 7.4185 469.476C9.22913 470.362 11.2184 470.822 13.2342 470.822H205.078C194.381 462.387 182.401 441.535 184.49 424.997Z" fill="#3A4351"/>
<path d="M412.673 88.322H99.3292C84.9004 88.322 70.7143 92.0343 58.135 99.1019C45.5556 106.17 35.0062 116.355 27.5012 128.678L5.8382 164.242C3.74313 167.682 2.60157 171.618 2.53079 175.645C2.46 179.673 3.46254 183.646 5.43542 187.158C7.4083 190.669 10.2804 193.593 13.7567 195.627C17.2331 197.661 21.1883 198.734 25.2162 198.734H486.786C490.814 198.734 494.77 197.662 498.246 195.627C501.722 193.593 504.595 190.67 506.568 187.158C508.541 183.646 509.543 179.673 509.473 175.646C509.402 171.618 508.26 167.682 506.165 164.242L484.501 128.678C476.995 116.355 466.445 106.169 453.865 99.1018C441.285 92.0343 427.099 88.322 412.669 88.322H412.673Z" fill="#E0B799"/>
<path d="M181.913 88.322H99.3292C84.9004 88.322 70.7143 92.0343 58.1349 99.1019C45.5556 106.17 35.0062 116.355 27.5012 128.678L5.8382 164.242C3.74308 167.682 2.60153 171.618 2.53078 175.646C2.46004 179.673 3.46266 183.646 5.43566 187.158C7.40866 190.67 10.2809 193.593 13.7574 195.627C17.2339 197.662 21.1892 198.734 25.2172 198.734H204.011C187.854 174.534 180.056 125.668 181.911 88.322H181.913Z" fill="#D99A84"/>
<path d="M482.52 125.593C474.832 114.125 464.438 104.725 452.257 98.2251C440.076 91.7249 426.481 88.3238 412.674 88.3222L99.0322 87.7622C70.9152 87.7622 45.0502 102.37 29.4832 125.592H482.52V125.593Z" fill="#9FE6E6"/>
<path d="M44.9662 198.734H111.112V424.997H44.9662V198.734Z" fill="#FBF1CF"/>
<path d="M44.9662 415.823L111.112 349.677V272.709L44.9662 338.85V415.823Z" fill="#EDA1AB"/>
<path d="M44.9662 270.169L111.112 204.022V198.734H44.9662V270.169Z" fill="#A2DDFD"/>
<path d="M275.044 256.246H202.132C194.053 256.246 186.305 259.456 180.592 265.168C174.879 270.881 171.669 278.63 171.669 286.709V424.997H305.507V286.709C305.507 278.63 302.298 270.881 296.585 265.168C290.872 259.456 283.123 256.246 275.044 256.246Z" fill="#A2DDFD"/>
<path d="M171.669 424.997H202.586C188.83 403.981 178.871 378.892 171.669 352.137V424.997Z" fill="#7ACDF9"/>
<path d="M249.995 333.983H227.181C225.192 333.983 223.284 333.193 221.878 331.786C220.471 330.38 219.681 328.472 219.681 326.483C219.681 324.494 220.471 322.586 221.878 321.18C223.284 319.773 225.192 318.983 227.181 318.983H249.995C251.984 318.983 253.892 319.773 255.298 321.18C256.705 322.586 257.495 324.494 257.495 326.483C257.495 328.472 256.705 330.38 255.298 331.786C253.892 333.193 251.984 333.983 249.995 333.983Z" fill="white"/>
<path d="M382.977 326.483H467.036V247.82H382.977C378.492 247.82 374.19 249.602 371.018 252.774C367.846 255.946 366.064 260.247 366.064 264.733V309.569C366.064 311.79 366.501 313.99 367.351 316.042C368.201 318.094 369.447 319.958 371.018 321.529C372.588 323.1 374.453 324.346 376.505 325.196C378.557 326.046 380.756 326.483 382.977 326.483Z" fill="#A2DDFD"/>
<path d="M382.977 326.483H467.036V247.82H460.365L381.765 326.42C382.166 326.45 382.567 326.483 382.977 326.483Z" fill="#7ACDF9"/>
<path d="M247.622 54.2341C249.971 56.2012 252.937 57.2792 256.001 57.2792C259.064 57.2792 262.03 56.2012 264.379 54.2341C274.48 45.7962 287.375 41.4475 300.523 42.0448C313.671 42.6421 326.118 48.1421 335.412 57.4611C352.312 74.3611 357.105 117.046 397.076 127.675C399.163 128.242 401.038 129.406 402.473 131.023C403.907 132.641 404.839 134.642 405.153 136.781C405.467 138.92 405.15 141.105 404.24 143.066C403.331 145.028 401.869 146.681 400.033 147.824C363.927 170.319 307.463 180.624 256.001 126.624C204.539 180.624 148.074 170.324 111.969 147.824C110.134 146.681 108.672 145.028 107.762 143.066C106.853 141.105 106.536 138.92 106.85 136.781C107.163 134.642 108.095 132.641 109.53 131.023C110.964 129.406 112.84 128.242 114.926 127.675C154.897 117.046 159.687 74.3651 176.59 57.4611C185.884 48.1422 198.331 42.6422 211.479 42.0449C224.627 41.4476 237.522 45.7963 247.622 54.2341Z" fill="#4E5660"/>
</svg>
