<svg width="512" height="512" viewBox="0 0 512 512" fill="none" xmlns="http://www.w3.org/2000/svg">
<path d="M227.256 129.887H285.621V478.417H227.256V129.887Z" fill="#404656"/>
<path d="M493.8 170.468C493.8 76.323 387.53 0 256.439 0C125.348 0 19.0781 76.323 19.0781 170.468H493.8Z" fill="#F5EA72"/>
<path d="M256.439 0C387.531 0 493.8 76.323 493.8 170.468H335.559C335.559 124.17 316.218 34.86 256.439 0Z" fill="#E8899E"/>
<path d="M303.85 216.983H209.028C200.619 216.983 192.553 213.642 186.607 207.696C180.66 201.749 177.319 193.684 177.319 185.274V170.474H335.559V185.274C335.559 193.684 332.219 201.749 326.272 207.696C320.325 213.642 312.26 216.983 303.85 216.983Z" fill="#EAB65F"/>
<path d="M145.609 216.983H50.7871C42.3774 216.983 34.3121 213.642 28.3655 207.696C22.4189 201.749 19.0781 193.684 19.0781 185.274V170.474H177.318V185.274C177.318 193.684 173.977 201.749 168.031 207.696C162.084 213.642 154.019 216.983 145.609 216.983Z" fill="#7CCBDD"/>
<path d="M462.091 216.983H367.269C358.859 216.983 350.794 213.642 344.847 207.696C338.901 201.749 335.56 193.684 335.56 185.274V170.474H493.8V185.274C493.8 189.438 492.98 193.562 491.386 197.409C489.793 201.256 487.457 204.751 484.513 207.696C481.568 210.64 478.073 212.976 474.226 214.569C470.378 216.163 466.255 216.983 462.091 216.983Z" fill="#DF5F7D"/>
<path d="M256.439 0C125.347 0 19.0781 76.323 19.0781 170.468H177.318C177.319 124.17 196.66 34.86 256.439 0Z" fill="#A0D9E7"/>
<path d="M255.767 524.297C208.055 524.297 127.935 517.843 140.367 495.062C161.729 455.916 235.667 452.962 255.767 452.962C275.867 452.962 349.812 455.912 371.174 495.062C383.603 517.842 303.488 524.297 255.767 524.297Z" fill="#F5EA72"/>
<path d="M217.826 455.704C189.026 459.845 153.997 470.088 140.364 495.063C128.777 516.298 197.607 523.346 245.651 524.202C219.45 509.939 207.509 472.879 217.826 455.704Z" fill="#EAB65F"/>
<path d="M337.934 500.932C337.934 502.582 337.444 504.194 336.527 505.566C335.61 506.937 334.308 508.006 332.783 508.637C331.259 509.268 329.582 509.433 327.964 509.112C326.346 508.79 324.86 507.995 323.693 506.829C322.527 505.662 321.732 504.176 321.41 502.558C321.088 500.94 321.253 499.263 321.885 497.738C322.516 496.214 323.585 494.911 324.956 493.995C326.328 493.078 327.94 492.588 329.59 492.588C331.803 492.588 333.925 493.467 335.49 495.032C337.055 496.597 337.934 498.719 337.934 500.932Z" fill="#EAB65F"/>
<path d="M301.153 475.35C301.153 477 300.663 478.612 299.747 479.984C298.83 481.355 297.527 482.424 296.003 483.055C294.478 483.686 292.801 483.851 291.183 483.529C289.565 483.208 288.079 482.413 286.913 481.247C285.746 480.08 284.952 478.594 284.63 476.976C284.308 475.358 284.473 473.681 285.104 472.156C285.735 470.632 286.804 469.329 288.175 468.413C289.547 467.496 291.16 467.006 292.809 467.006C295.022 467.006 297.145 467.885 298.709 469.45C300.274 471.015 301.153 473.137 301.153 475.35Z" fill="#EAB65F"/>
<path d="M251.451 496.973C251.451 498.623 250.962 500.236 250.045 501.609C249.128 502.981 247.825 504.05 246.3 504.682C244.776 505.313 243.098 505.479 241.479 505.157C239.861 504.835 238.374 504.04 237.207 502.873C236.04 501.706 235.245 500.219 234.924 498.601C234.602 496.982 234.767 495.304 235.398 493.78C236.03 492.255 237.099 490.952 238.472 490.035C239.844 489.118 241.457 488.629 243.107 488.629C245.32 488.629 247.442 489.508 249.007 491.073C250.572 492.638 251.451 494.76 251.451 496.973Z" fill="#EAB65F"/>
<path d="M198.75 488.634C198.75 490.284 198.261 491.898 197.344 493.27C196.427 494.642 195.124 495.711 193.599 496.343C192.074 496.974 190.397 497.14 188.778 496.818C187.16 496.496 185.673 495.701 184.506 494.534C183.339 493.367 182.544 491.88 182.222 490.262C181.9 488.643 182.066 486.966 182.697 485.441C183.329 483.916 184.398 482.613 185.77 481.696C187.143 480.779 188.756 480.29 190.406 480.29C191.502 480.29 192.587 480.506 193.599 480.925C194.612 481.344 195.532 481.959 196.306 482.734C197.081 483.508 197.696 484.428 198.115 485.441C198.534 486.453 198.75 487.538 198.75 488.634Z" fill="#F5EA72"/>
</svg>
