<svg width="512" height="512" viewBox="0 0 512 512" fill="none" xmlns="http://www.w3.org/2000/svg">
<path d="M107.875 50H404.125V366.281H107.875V50Z" fill="#C2EAFB"/>
<path d="M256 108.238C309.789 108.238 360.3 116.66 404.125 131.414V50H107.875V131.414C151.7 116.66 202.211 108.238 256 108.238Z" fill="#91D4F2"/>
<path d="M46.3159 236.293V366.281H163.309C163.309 366.281 161.145 290.081 128.661 242.465C128.66 243.57 46.3159 236.293 46.3159 236.293Z" fill="#FD5C6F"/>
<path d="M192.375 50H93.8909C81.2735 50.0003 69.1729 55.0126 60.251 63.9343C51.329 72.8561 46.3164 84.9566 46.3159 97.574V236.293H119.343C119.343 236.293 209.137 200.121 192.375 50Z" fill="#FF8A98"/>
<path d="M104.813 176.715C84.8702 179.365 65.262 184.109 46.313 190.867V236.293H119.34C119.34 236.293 181.94 211.059 192.848 115.356C192.852 115.355 163.941 168.547 104.813 176.715Z" fill="#FD5C6F"/>
<path d="M465.684 236.293V366.281H348.691C348.691 366.281 350.855 290.081 383.339 242.465C383.34 243.57 465.684 236.293 465.684 236.293Z" fill="#FD5C6F"/>
<path d="M319.625 50H418.109C430.726 50.0005 442.826 55.0129 451.748 63.9347C460.67 72.8564 465.682 84.9568 465.683 97.574V236.293H392.656C392.656 236.293 302.863 200.121 319.625 50Z" fill="#FF8A98"/>
<path d="M407.188 176.715C427.131 179.365 446.739 184.109 465.688 190.867V236.293H392.656C392.656 236.293 330.056 211.059 319.148 115.356C319.148 115.355 348.059 168.547 407.188 176.715Z" fill="#FD5C6F"/>
<path d="M140.41 260.617H45.5588C40.7918 260.546 36.244 258.603 32.898 255.207C29.5519 251.811 27.6763 247.234 27.6763 242.467C27.6763 237.699 29.5519 233.123 32.898 229.727C36.244 226.331 40.7918 224.388 45.5588 224.317H140.41C145.177 224.388 149.725 226.331 153.071 229.727C156.417 233.123 158.292 237.699 158.292 242.467C158.292 247.234 156.417 251.811 153.071 255.207C149.725 258.603 145.177 260.546 140.41 260.617Z" fill="#F9EE80"/>
<path d="M371.59 260.617H466.442C471.209 260.546 475.757 258.603 479.103 255.207C482.449 251.811 484.325 247.234 484.325 242.467C484.325 237.699 482.449 233.123 479.103 229.727C475.757 226.331 471.209 224.388 466.442 224.317H371.59C366.823 224.388 362.275 226.331 358.929 229.727C355.583 233.123 353.708 237.699 353.708 242.467C353.708 247.234 355.583 251.811 358.929 255.207C362.275 258.603 366.823 260.546 371.59 260.617Z" fill="#F9EE80"/>
<path d="M170.668 462.516H29.75C21.8599 462.516 14.293 459.381 8.71387 453.802C3.13472 448.223 0.0002652 440.656 0 432.766L0 366.109C0.000530391 354.103 4.77021 342.588 13.2599 334.099C21.7495 325.609 33.2638 320.839 45.27 320.839H125.395C131.34 320.839 137.227 322.01 142.719 324.285C148.212 326.56 153.202 329.894 157.406 334.098C161.61 338.302 164.944 343.292 167.219 348.785C169.494 354.277 170.665 360.164 170.665 366.109V462.515L170.668 462.516Z" fill="#8697A6"/>
<path d="M341.332 462.516H170.668V366.109C170.668 354.103 175.438 342.588 183.928 334.099C192.417 325.609 203.932 320.839 215.938 320.839H296.063C308.069 320.839 319.583 325.609 328.073 334.099C336.563 342.588 341.332 354.103 341.333 366.109L341.332 462.516Z" fill="#6B7D8E"/>
<path d="M482.25 462.516H341.332V366.109C341.333 354.102 346.103 342.588 354.593 334.098C363.083 325.608 374.598 320.839 386.605 320.839H466.726C478.733 320.839 490.248 325.608 498.738 334.098C507.229 342.587 511.999 354.102 512 366.109V432.765C512 440.655 508.866 448.222 503.287 453.802C497.707 459.381 490.14 462.516 482.25 462.516Z" fill="#8697A6"/>
</svg>
