<svg width="512" height="512" viewBox="0 0 512 512" fill="none" xmlns="http://www.w3.org/2000/svg">
<path d="M100.083 27.221C93.4951 26.8872 86.919 28.0742 80.8637 30.69C78.3694 31.7865 75.61 32.134 72.9217 31.6901C70.2334 31.2462 67.7322 30.0301 65.7227 28.19C61.9823 24.7649 57.4631 22.3035 52.5568 21.019C47.6504 19.7345 42.5049 19.6657 37.5659 20.8185C32.627 21.9713 28.0436 24.311 24.2129 27.6348C20.3822 30.9586 17.4197 35.1664 15.582 39.8934C13.7444 44.6205 13.0871 49.7244 13.667 54.7628C14.2469 59.8012 16.0466 64.6223 18.9101 68.8083C21.7736 72.9943 25.6146 76.4189 30.1003 78.7855C34.586 81.1522 39.581 82.3894 44.6527 82.39C45.1527 82.39 45.6527 82.378 46.1447 82.355C48.8627 82.1845 51.5719 82.8044 53.9454 84.1396C56.3189 85.4749 58.2552 87.4685 59.5207 89.88C62.9607 96.6293 68.1177 102.354 74.4728 106.477C80.828 110.6 88.157 112.976 95.7224 113.367C103.288 113.757 110.823 112.148 117.568 108.701C124.314 105.255 130.033 100.092 134.15 93.7326C138.267 87.3733 140.636 80.0419 141.019 72.4762C141.402 64.9104 139.785 57.3772 136.332 50.6348C132.878 43.8923 127.71 38.1784 121.346 34.0682C114.983 29.9579 107.649 27.5963 100.083 27.221Z" fill="#F1F0F7"/>
<path d="M384.083 492.431H73.6377C59.5657 492.43 45.9574 487.4 35.2681 478.248C24.5789 469.096 17.5127 456.425 15.3447 442.521L0.300668 346.056C-0.259065 342.462 -0.0341724 338.79 0.959895 335.291C1.95396 331.792 3.69364 328.55 6.05942 325.787C8.4252 323.024 11.361 320.807 14.6651 319.286C17.9693 317.765 21.5634 316.978 25.2007 316.978H492.814C496.242 316.978 499.608 317.899 502.56 319.644C505.511 321.388 507.941 323.893 509.594 326.896C511.248 329.9 512.065 333.292 511.961 336.719C511.856 340.146 510.834 343.483 509.001 346.38L433.935 464.986C428.613 473.393 421.252 480.318 412.536 485.116C403.82 489.915 394.032 492.431 384.083 492.431Z" fill="#F1F0F7"/>
<path d="M172.677 316.978H25.2078C21.5696 316.977 17.9742 317.764 14.6689 319.284C11.3636 320.804 8.42671 323.023 6.06009 325.786C3.69348 328.549 1.95328 331.792 0.959097 335.292C-0.0350816 338.792 -0.259659 342.465 0.300803 346.06L15.3448 442.521C17.5128 456.425 24.579 469.096 35.2682 478.248C45.9575 487.4 59.5658 492.43 73.6378 492.431H206.338C176.657 454.763 171.368 357.568 172.677 316.978Z" fill="#DEDDF5"/>
<path d="M429.454 214.201H61.5908C58.984 214.201 56.4027 214.714 53.9942 215.711C51.5857 216.708 49.3973 218.17 47.5538 220.013C45.7104 221.856 44.248 224.044 43.2503 226.453C42.2525 228.861 41.7389 231.442 41.7388 234.049V316.979H449.301V234.049C449.3 228.785 447.208 223.738 443.487 220.016C439.765 216.294 434.717 214.202 429.454 214.201Z" fill="#5F75A1"/>
<path d="M170.521 214.201H61.5908C58.984 214.201 56.4027 214.714 53.9942 215.711C51.5857 216.708 49.3973 218.17 47.5538 220.013C45.7104 221.856 44.248 224.044 43.2503 226.453C42.2525 228.861 41.7389 231.442 41.7388 234.049V316.979H187.411C176.231 291.603 169.872 245.221 170.521 214.201Z" fill="#3A5093"/>
<path d="M120.271 102.181H83.3006C81.3291 102.181 79.377 102.569 77.5556 103.323C75.7342 104.078 74.0792 105.184 72.6852 106.578C71.2912 107.972 70.1854 109.627 69.431 111.448C68.6766 113.269 68.2884 115.221 68.2886 117.193V214.201H135.281V117.193C135.281 115.222 134.893 113.27 134.138 111.448C133.384 109.627 132.278 107.972 130.885 106.578C129.491 105.184 127.836 104.078 126.015 103.324C124.194 102.569 122.242 102.181 120.271 102.181Z" fill="#F1F0F7"/>
<path d="M91.4656 102.181H83.3006C81.3291 102.181 79.377 102.569 77.5556 103.323C75.7342 104.078 74.0792 105.184 72.6852 106.578C71.2912 107.972 70.1854 109.627 69.431 111.448C68.6766 113.269 68.2884 115.221 68.2886 117.193V214.201H104.105C90.4656 180.646 87.2666 127.654 91.4656 102.181Z" fill="#DEDDF5"/>
<path d="M120.271 102.181H83.3006C81.3291 102.181 79.377 102.569 77.5556 103.323C75.7342 104.078 74.0792 105.184 72.6852 106.578C71.2912 107.972 70.1854 109.627 69.431 111.448C68.6766 113.269 68.2884 115.221 68.2886 117.193V146.545H135.281V117.193C135.281 115.222 134.893 113.27 134.138 111.448C133.384 109.627 132.278 107.972 130.885 106.578C129.491 105.184 127.836 104.078 126.015 103.324C124.194 102.569 122.242 102.181 120.271 102.181Z" fill="#E8899E"/>
<path d="M91.4656 102.181H83.3006C81.3291 102.181 79.377 102.569 77.5556 103.323C75.7342 104.078 74.0792 105.184 72.6852 106.578C71.2912 107.972 70.1854 109.627 69.431 111.448C68.6766 113.269 68.2884 115.221 68.2886 117.193V146.545H90.3886C89.2196 129.154 89.6606 113.126 91.4656 102.181Z" fill="#DF5F7D"/>
<path d="M161.794 265.587C161.794 270.422 160.361 275.148 157.675 279.168C154.989 283.187 151.172 286.321 146.706 288.171C142.239 290.021 137.324 290.506 132.583 289.562C127.841 288.619 123.485 286.291 120.067 282.873C116.648 279.454 114.32 275.099 113.377 270.357C112.434 265.615 112.918 260.701 114.769 256.234C116.619 251.768 119.752 247.95 123.772 245.265C127.792 242.579 132.518 241.146 137.353 241.146C143.835 241.147 150.051 243.722 154.635 248.305C159.218 252.889 161.793 259.105 161.794 265.587Z" fill="#7CCBDD"/>
<path d="M269.966 265.587C269.966 270.421 268.533 275.147 265.847 279.167C263.162 283.187 259.345 286.32 254.878 288.171C250.412 290.021 245.498 290.505 240.756 289.563C236.014 288.62 231.659 286.292 228.24 282.874C224.822 279.456 222.493 275.101 221.55 270.36C220.606 265.618 221.09 260.703 222.939 256.237C224.789 251.77 227.922 247.953 231.941 245.266C235.961 242.58 240.686 241.146 245.521 241.146C252.003 241.146 258.22 243.721 262.804 248.305C267.388 252.888 269.964 259.105 269.966 265.587Z" fill="#A0D9E7"/>
<path d="M378.138 265.587C378.139 270.422 376.706 275.149 374.02 279.169C371.335 283.189 367.517 286.323 363.051 288.174C358.584 290.025 353.669 290.51 348.927 289.567C344.184 288.624 339.828 286.296 336.409 282.878C332.99 279.459 330.662 275.103 329.718 270.361C328.775 265.619 329.258 260.704 331.108 256.237C332.959 251.77 336.092 247.952 340.112 245.266C344.132 242.58 348.858 241.146 353.693 241.146C360.175 241.146 366.392 243.721 370.977 248.305C375.561 252.888 378.137 259.105 378.138 265.587Z" fill="#A0D9E7"/>
<path d="M13.6006 431.321L15.3466 442.521C17.5146 456.425 24.5804 469.096 35.2693 478.248C45.9581 487.4 59.566 492.43 73.6376 492.431H384.083C394.032 492.431 403.82 489.915 412.536 485.116C421.252 480.318 428.613 473.393 433.935 464.986L455.243 431.321H13.6006Z" fill="#E8899E"/>
<path d="M378.884 410.689C373.322 410.691 367.846 409.328 362.935 406.718C358.024 404.108 353.829 400.332 350.72 395.721C350.158 394.905 349.763 393.986 349.558 393.017C349.353 392.047 349.342 391.047 349.526 390.074C349.71 389.1 350.085 388.173 350.63 387.345C351.174 386.517 351.877 385.805 352.698 385.251C353.519 384.696 354.442 384.31 355.413 384.114C356.384 383.918 357.385 383.917 358.357 384.11C359.328 384.303 360.252 384.686 361.075 385.238C361.898 385.79 362.603 386.5 363.15 387.326C364.949 389.995 367.399 392.162 370.267 393.624C373.135 395.085 376.327 395.793 379.544 395.681C382.761 395.569 385.897 394.641 388.656 392.983C391.416 391.325 393.708 388.993 395.318 386.205C396.314 384.483 397.954 383.228 399.876 382.715C401.798 382.203 403.845 382.475 405.567 383.471C407.289 384.468 408.544 386.108 409.057 388.03C409.569 389.952 409.297 391.999 408.301 393.721C405.308 398.873 401.017 403.151 395.855 406.128C390.694 409.105 384.842 410.678 378.884 410.689Z" fill="#404656"/>
<path d="M378.884 410.689C376.895 410.689 374.987 409.899 373.581 408.492C372.174 407.086 371.384 405.178 371.384 403.189V350.084C371.384 348.095 372.174 346.187 373.581 344.781C374.987 343.374 376.895 342.584 378.884 342.584C380.873 342.584 382.781 343.374 384.187 344.781C385.594 346.187 386.384 348.095 386.384 350.084V403.189C386.384 405.178 385.594 407.086 384.187 408.492C382.781 409.899 380.873 410.689 378.884 410.689Z" fill="#404656"/>
<path d="M397.935 373.158H359.835C357.846 373.158 355.938 372.368 354.532 370.961C353.125 369.555 352.335 367.647 352.335 365.658C352.335 363.669 353.125 361.761 354.532 360.355C355.938 358.948 357.846 358.158 359.835 358.158H397.935C399.924 358.158 401.832 358.948 403.238 360.355C404.645 361.761 405.435 363.669 405.435 365.658C405.435 367.647 404.645 369.555 403.238 370.961C401.832 372.368 399.924 373.158 397.935 373.158Z" fill="#404656"/>
<path d="M118.915 390.212H71.0479C68.5389 390.211 66.133 389.214 64.3589 387.44C62.5847 385.666 61.5877 383.26 61.5869 380.751V367.544C61.5872 365.035 62.584 362.629 64.3583 360.854C66.1325 359.08 68.5388 358.083 71.0479 358.083H118.915C120.157 358.083 121.388 358.327 122.536 358.803C123.684 359.278 124.727 359.975 125.605 360.853C126.484 361.732 127.181 362.775 127.656 363.923C128.132 365.071 128.376 366.301 128.376 367.544V380.751C128.376 383.26 127.379 385.666 125.605 387.441C123.83 389.215 121.424 390.212 118.915 390.212Z" fill="#7CCBDD"/>
<path d="M244.142 390.212H196.278C193.769 390.212 191.362 389.215 189.588 387.441C187.814 385.666 186.817 383.26 186.817 380.751V367.544C186.817 366.301 187.061 365.071 187.537 363.923C188.012 362.775 188.709 361.732 189.587 360.853C190.466 359.975 191.509 359.278 192.657 358.803C193.805 358.327 195.035 358.083 196.278 358.083H244.141C245.383 358.083 246.614 358.327 247.762 358.803C248.91 359.278 249.953 359.975 250.831 360.853C251.71 361.732 252.407 362.775 252.882 363.923C253.358 365.071 253.602 366.301 253.602 367.544V380.751C253.602 383.26 252.605 385.666 250.831 387.44C249.057 389.214 246.651 390.211 244.142 390.212Z" fill="#A0D9E7"/>
<path d="M182.349 431.321H13.6006L15.3466 442.521C17.5146 456.425 24.5804 469.096 35.2693 478.248C45.9581 487.4 59.566 492.43 73.6376 492.431H206.338C195.239 478.353 187.556 455.966 182.349 431.321Z" fill="#DF5F7D"/>
</svg>
