<svg width="512" height="512" viewBox="0 0 512 512" fill="none" xmlns="http://www.w3.org/2000/svg">
<path d="M345.73 29.53H472.978V79.43H345.73V29.53Z" fill="#E7886E"/>
<path d="M345.73 433.57H472.978V483.47H345.73V433.57Z" fill="#E7886E"/>
<path d="M345.73 332.56H472.978V382.46H345.73V332.56Z" fill="#E7886E"/>
<path d="M345.73 231.55H472.978V281.45H345.73V231.55Z" fill="#E7886E"/>
<path d="M345.73 130.54H472.978V180.44H345.73V130.54Z" fill="#E7886E"/>
<path d="M181.621 19.189H53.522V95.929H242.922V80.492C242.922 72.4419 241.336 64.4707 238.256 57.0335C235.175 49.5962 230.66 42.8386 224.968 37.1463C219.275 31.4541 212.518 26.9388 205.08 23.8581C197.643 20.7775 189.672 19.192 181.622 19.192L181.621 19.189Z" fill="#FFC9D3"/>
<path d="M158.23 19.189H53.522V95.93H126.774C134.483 69.2977 145.029 43.57 158.23 19.189Z" fill="#FFB2C1"/>
<path d="M61.794 130.54L208.762 180.74L345.73 130.54V79.4299H61.794V130.54Z" fill="#E2E2E2"/>
<path d="M181.621 271.108H53.522V347.848H242.922V332.411C242.922 324.361 241.336 316.39 238.256 308.952C235.175 301.515 230.66 294.758 224.968 289.065C219.275 283.373 212.518 278.858 205.08 275.777C197.643 272.696 189.672 271.111 181.622 271.111L181.621 271.108Z" fill="#FFC9D3"/>
<path d="M115.493 271.108H53.522V347.848H135.113C126.037 322.985 119.465 297.277 115.497 271.108H115.493Z" fill="#FFB2C1"/>
<path d="M61.794 382.46L208.762 432.66L345.73 382.46V331.35H61.794V382.46Z" fill="#E2E2E2"/>
<path d="M131.96 79.4299H61.794V130.54L115.252 148.8C118.737 125.224 124.328 102.007 131.96 79.4299Z" fill="#D4D4D2"/>
<path d="M53.522 129.935H345.73V231.55H53.522V129.935Z" fill="#E7886E"/>
<path d="M129.486 331.35H61.794V382.46L170.08 419.449C152.878 391.917 139.238 362.314 129.486 331.349V331.35Z" fill="#D4D4D2"/>
<path d="M53.522 381.855H345.73V483.47H53.522V381.855Z" fill="#E7886E"/>
<path d="M149.413 381.855H53.522V483.47H221.002C191.535 453.915 167.325 419.551 149.413 381.855Z" fill="#E27858"/>
<path d="M110.823 209.165C110.805 182.568 113.379 156.033 118.508 129.936H53.522V231.55H111.43C111.03 224.145 110.828 216.684 110.823 209.165Z" fill="#E27858"/>
<path d="M50.264 8H29.53C23.8199 8 18.3436 10.2683 14.306 14.306C10.2683 18.3436 8 23.8199 8 29.53V483.47C8 489.18 10.2683 494.656 14.306 498.694C18.3436 502.732 23.8199 505 29.53 505H50.263C55.9731 505 61.4494 502.732 65.487 498.694C69.5247 494.656 71.793 489.18 71.793 483.47V29.53C71.7933 26.7027 71.2366 23.9029 70.1548 21.2907C69.0729 18.6786 67.4871 16.305 65.4879 14.3058C63.4888 12.3065 61.1153 10.7206 58.5032 9.63863C55.891 8.55668 53.0914 7.99987 50.264 8V8Z" fill="#ED9B83"/>
<path d="M347.945 8H337.213C334.386 8 331.586 8.55689 328.974 9.63887C326.362 10.7209 323.988 12.3067 321.989 14.306C319.99 16.3052 318.404 18.6787 317.322 21.2908C316.24 23.903 315.683 26.7026 315.683 29.53V483.47C315.683 486.297 316.24 489.097 317.322 491.709C318.404 494.321 319.99 496.695 321.989 498.694C323.988 500.693 326.362 502.279 328.974 503.361C331.586 504.443 334.386 505 337.213 505H347.946C353.656 505 359.132 502.732 363.17 498.694C367.208 494.656 369.476 489.18 369.476 483.47V29.53C369.476 26.7025 368.919 23.9027 367.837 21.2904C366.755 18.6782 365.169 16.3046 363.17 14.3053C361.171 12.3061 358.797 10.7202 356.185 9.63832C353.572 8.55644 350.772 7.99974 347.945 8V8Z" fill="#ED9B83"/>
<path d="M481.496 8H470.763C465.053 8 459.577 10.2683 455.539 14.306C451.501 18.3436 449.233 23.8199 449.233 29.53V483.47C449.233 489.18 451.501 494.656 455.539 498.694C459.577 502.732 465.053 505 470.763 505H481.496C487.206 505 492.682 502.732 496.72 498.694C500.758 494.656 503.026 489.18 503.026 483.47V29.53C503.026 23.8199 500.758 18.3436 496.72 14.306C492.682 10.2683 487.206 8 481.496 8Z" fill="#ED9B83"/>
</svg>
