<svg width="512" height="512" viewBox="0 0 512 512" fill="none" xmlns="http://www.w3.org/2000/svg">
<path d="M36.241 179.909V473.976C36.241 481.201 39.1112 488.131 44.2203 493.24C46.75 495.769 49.7533 497.776 53.0585 499.145C56.3638 500.514 59.9064 501.219 63.484 501.219H99.13L162.941 472.252L226.752 501.219H447.516C454.741 501.219 461.671 498.349 466.78 493.24C471.889 488.131 474.759 481.201 474.759 473.976V179.909H36.241Z" fill="#FCF2D0"/>
<path d="M70.9 333.058C70.9 276.587 88.8 224.003 119.6 179.907H36.241V473.975C36.241 481.2 39.1112 488.13 44.2203 493.239C49.3293 498.348 56.2587 501.218 63.484 501.218H97.275C74.39 454.275 70.9 396.083 70.9 333.058Z" fill="#FAE0BD"/>
<path d="M474.759 133.796H36.241C28.4858 133.796 21.0482 136.877 15.5645 142.36C10.0807 147.844 7 155.282 7 163.037L7 196.777C7 204.532 10.0807 211.97 15.5645 217.453C21.0482 222.937 28.4858 226.018 36.241 226.018H474.76C482.515 226.018 489.952 222.937 495.436 217.453C500.919 211.969 504 204.532 504 196.777V163.037C503.999 155.282 500.919 147.845 495.435 142.361C489.951 136.877 482.514 133.796 474.759 133.796Z" fill="#90D3F1"/>
<path d="M198.833 314.092H127.05C119.646 314.092 112.545 317.033 107.309 322.268C102.073 327.504 99.1308 334.604 99.13 342.009V501.218H226.753V342.009C226.752 334.604 223.81 327.504 218.574 322.268C213.338 317.033 206.237 314.092 198.833 314.092Z" fill="#90D3F1"/>
<path d="M414.753 391.218V302.009C414.753 294.604 411.811 287.502 406.575 282.266C401.339 277.03 394.238 274.089 386.833 274.089H315.05C307.645 274.089 300.544 277.03 295.308 282.266C290.072 287.502 287.13 294.604 287.13 302.009V391.215L414.753 391.218Z" fill="#90D3F1"/>
<path d="M416.586 375.858H285.3C281.249 375.858 277.364 377.467 274.499 380.332C271.634 383.196 270.025 387.082 270.025 391.133V404.803C270.025 408.854 271.634 412.739 274.499 415.604C277.364 418.469 281.249 420.078 285.3 420.078H416.586C420.637 420.078 424.522 418.469 427.387 415.604C430.252 412.739 431.861 408.854 431.861 404.803V391.133C431.861 387.082 430.252 383.196 427.387 380.332C424.522 377.467 420.637 375.858 416.586 375.858Z" fill="#59C2E7"/>
<path d="M159.777 133.796H36.241C28.4858 133.796 21.0482 136.877 15.5645 142.36C10.0807 147.844 7 155.282 7 163.037L7 196.777C7 204.532 10.0807 211.97 15.5645 217.453C21.0482 222.937 28.4858 226.018 36.241 226.018H93.584C109.164 191.105 131.685 159.728 159.777 133.796Z" fill="#59C2E7"/>
<path d="M255.5 11L300.485 80.025L255.5 149.05H168.15C158.88 149.05 149.705 147.182 141.172 143.559C132.64 139.935 124.925 134.63 118.487 127.96C112.05 121.29 107.022 113.391 103.703 104.735C100.384 96.0797 98.8435 86.8442 99.172 77.58C100.459 40.262 131.805 11 169.145 11H255.5Z" fill="#FF889E"/>
<path d="M411.829 82.423C410.561 119.761 379.204 149.05 341.844 149.05H255.5V11H342.85C352.117 10.9971 361.29 12.8609 369.821 16.4803C378.352 20.0997 386.066 25.4004 392.504 32.0662C398.941 38.732 403.97 46.6263 407.291 55.278C410.611 63.9298 412.154 73.1617 411.829 82.423Z" fill="#59C2E7"/>
<path d="M159.777 115.429C159.777 75.691 174.656 39.281 199.367 11H169.145C131.805 11 100.459 40.262 99.172 77.58C98.5401 95.468 104.882 112.902 116.861 126.202C128.839 139.503 145.516 147.63 163.372 148.868C160.976 137.883 159.769 126.672 159.772 115.429H159.777Z" fill="#FF748F"/>
</svg>
