<svg width="512" height="512" viewBox="0 0 512 512" fill="none" xmlns="http://www.w3.org/2000/svg">
<path d="M483.027 0H28.973C21.289 0.0002652 13.9197 3.05285 8.48629 8.48629C3.05285 13.9197 0.0002652 21.289 0 28.973L0 512H103.223L256 474.609L408.777 512H512V28.973C512 21.289 508.947 13.9197 503.514 8.48629C498.08 3.05285 490.711 0.0002652 483.027 0Z" fill="#6382D4"/>
<path d="M408.773 156.078V512H256L179.613 319.109L256 126.219H378.922C382.843 126.219 386.725 126.991 390.347 128.492C393.97 129.993 397.261 132.192 400.033 134.965C402.805 137.738 405.003 141.029 406.503 144.652C408.003 148.275 408.774 152.157 408.773 156.078Z" fill="#E5E8EC"/>
<path d="M256 126.219V512H103.227V156.078C103.226 152.157 103.997 148.274 105.497 144.652C106.997 141.029 109.196 137.737 111.968 134.965C114.74 132.192 118.031 129.992 121.653 128.492C125.276 126.991 129.158 126.219 133.079 126.219H256Z" fill="#DADADC"/>
<path d="M207.715 74.9689L183.922 46.0229C183.399 45.3864 182.741 44.8737 181.996 44.5216C181.251 44.1696 180.438 43.9871 179.614 43.9871C178.79 43.9871 177.976 44.1696 177.231 44.5216C176.486 44.8737 175.828 45.3864 175.305 46.0229L151.512 74.9689C150.841 75.7853 150.416 76.7755 150.286 77.8243C150.156 78.873 150.327 79.9371 150.778 80.8926C151.23 81.848 151.943 82.6555 152.836 83.2209C153.729 83.7862 154.764 84.0862 155.821 84.0859H203.407C204.464 84.086 205.499 83.7859 206.391 83.2205C207.284 82.655 207.998 81.8475 208.449 80.8921C208.901 79.9367 209.071 78.8727 208.941 77.824C208.811 76.7753 208.386 75.7852 207.715 74.9689Z" fill="#36D39A"/>
<path d="M360.488 53.105L336.7 82.051C336.177 82.6876 335.519 83.2003 334.774 83.5523C334.029 83.9043 333.215 84.0869 332.392 84.0869C331.568 84.0869 330.754 83.9043 330.009 83.5523C329.264 83.2003 328.606 82.6876 328.083 82.051L304.285 53.105C303.614 52.2887 303.189 51.2984 303.059 50.2497C302.929 49.2009 303.099 48.1368 303.551 47.1814C304.003 46.2259 304.716 45.4185 305.609 44.8531C306.502 44.2877 307.537 43.9877 308.594 43.988H356.18C357.237 43.9879 358.272 44.2881 359.164 44.8535C360.057 45.4189 360.771 46.2264 361.222 47.1818C361.674 48.1372 361.844 49.2012 361.714 50.2499C361.584 51.2986 361.159 52.2888 360.488 53.105Z" fill="#FF71A7"/>
<path d="M479.625 296.344C479.625 300.149 478.497 303.868 476.383 307.032C474.269 310.196 471.264 312.661 467.749 314.118C464.234 315.574 460.366 315.955 456.634 315.212C452.902 314.47 449.474 312.638 446.784 309.947C444.093 307.257 442.261 303.829 441.519 300.097C440.776 296.365 441.157 292.497 442.613 288.982C444.069 285.467 446.535 282.462 449.699 280.348C452.863 278.234 456.582 277.106 460.387 277.106C465.489 277.106 470.382 279.133 473.99 282.741C477.598 286.348 479.625 291.242 479.625 296.344Z" fill="#E5E8EC"/>
<path d="M479.625 366.93C479.625 370.735 478.497 374.454 476.383 377.618C474.269 380.782 471.264 383.247 467.749 384.703C464.234 386.16 460.366 386.541 456.634 385.798C452.902 385.056 449.474 383.224 446.784 380.533C444.093 377.843 442.261 374.415 441.519 370.683C440.776 366.951 441.157 363.083 442.613 359.568C444.069 356.053 446.535 353.048 449.699 350.934C452.863 348.82 456.582 347.692 460.387 347.692C462.913 347.692 465.415 348.189 467.749 349.156C470.083 350.123 472.204 351.54 473.991 353.326C475.777 355.113 477.194 357.234 478.161 359.568C479.128 361.902 479.625 364.403 479.625 366.93Z" fill="#E5E8EC"/>
</svg>
