<svg width="512" height="512" viewBox="0 0 512 512" fill="none" xmlns="http://www.w3.org/2000/svg">
<path d="M458.644 497H409.266L402.416 371.051L409.266 245.1H470.427V485.217C470.427 486.764 470.122 488.296 469.53 489.726C468.938 491.156 468.07 492.455 466.976 493.549C465.882 494.643 464.583 495.511 463.153 496.103C461.724 496.695 460.191 497 458.644 497Z" fill="#FFD6DC"/>
<path d="M470.427 338.063V245.1H409.266L404.211 338.061L470.427 338.063Z" fill="#FFBFCA"/>
<path d="M126.987 228.146H385.845V454.47H126.987V228.146Z" fill="#FE5B70"/>
<path d="M211.29 435.989C211.496 473.334 200.854 491.689 181.39 491.846C153.829 492.066 138.202 438.171 154.99 401.019C181.909 341.462 211.051 392.71 211.29 435.989Z" fill="#FFBFCA"/>
<path d="M148.702 446.14C151.602 470.981 164.167 491.984 181.393 491.846C200.854 491.69 211.506 473.338 211.3 435.993C211.189 424.462 209.259 413.022 205.582 402.093C197.799 411.757 178.524 437.359 148.702 446.145V446.14Z" fill="#FFD6DC"/>
<path d="M239.472 314.343C253.802 263.58 219.389 226.29 171.342 246.721C132.467 263.252 116.553 327.285 115.633 365C112.716 484.513 221.695 377.322 239.472 314.343Z" fill="#FFD6DC"/>
<path d="M229.69 338.063C233.75 330.51 237.028 322.562 239.473 314.343C253.803 263.58 219.39 226.29 171.343 246.721C140.743 259.735 124.368 302.185 118.337 338.063H229.69Z" fill="#FFBFCA"/>
<path d="M301.542 435.989C301.336 473.334 311.978 491.689 331.442 491.846C359.003 492.066 374.63 438.171 357.842 401.019C330.923 341.462 301.781 392.71 301.542 435.989Z" fill="#FFBFCA"/>
<path d="M364.13 446.14C361.23 470.981 348.665 491.984 331.439 491.846C311.978 491.69 301.339 473.333 301.539 435.989C301.643 424.462 303.567 413.023 307.239 402.096C315.016 411.759 334.308 437.354 364.13 446.14Z" fill="#FFD6DC"/>
<path d="M273.36 314.343C259.03 263.58 293.443 226.29 341.49 246.721C380.365 263.252 396.279 327.285 397.199 365.003C400.115 484.513 291.137 377.322 273.36 314.343Z" fill="#FFD6DC"/>
<path d="M283.142 338.063H394.496C388.465 302.186 372.096 259.735 341.49 246.721C293.443 226.29 259.03 263.58 273.36 314.343C275.805 322.562 279.083 330.51 283.142 338.063Z" fill="#FFBFCA"/>
<path d="M409.283 497H359.905C358.357 497 356.825 496.695 355.396 496.103C353.966 495.511 352.667 494.643 351.573 493.549C350.479 492.455 349.611 491.156 349.019 489.726C348.427 488.296 348.122 486.764 348.122 485.217V245.1H409.283V497Z" fill="#FF7591"/>
<path d="M348.123 245.1H409.284V338.06H348.123V245.1Z" fill="#FE5B70"/>
<path d="M42.405 245.1H103.566L115.576 369.442L103.566 497H54.188C52.6407 497 51.1085 496.695 49.6789 496.103C48.2493 495.511 46.9503 494.643 45.8562 493.549C44.762 492.455 43.8941 491.156 43.302 489.726C42.7098 488.296 42.405 486.764 42.405 485.217V245.1Z" fill="#FFD6DC"/>
<path d="M112.545 338.063L103.566 245.1H42.405V338.061L112.545 338.063Z" fill="#FFBFCA"/>
<path d="M152.927 497H103.549V245.1H164.71V485.217C164.71 488.342 163.468 491.339 161.258 493.548C159.049 495.758 156.052 497 152.927 497Z" fill="#FF7591"/>
<path d="M103.549 245.1H164.71V338.06H103.549V245.1Z" fill="#FE5B70"/>
<path d="M298.704 205.943C261.31 163.33 244.804 103.2 255.193 47.4668C259.154 26.2248 275.752 12.1018 294.307 28.1388L431.643 146.839C452.42 164.796 474.143 184.155 482.286 210.381C497.72 260.081 460.159 274.109 420.068 268.781C373.539 262.6 329.916 241.511 298.704 205.943Z" fill="#FFD6DC"/>
<path d="M214.128 205.943C251.522 163.33 268.028 103.2 257.639 47.4668C253.678 26.2248 237.08 12.1018 218.525 28.1388L81.1889 146.836C60.4119 164.793 38.6889 184.152 30.5459 210.378C15.1119 260.078 52.6729 274.106 92.7639 268.778C139.293 262.6 182.916 241.511 214.128 205.943Z" fill="#FFD6DC"/>
<path d="M107.635 204.005C99.242 225.06 91.667 248.125 102.257 268.166C114.113 290.604 142.892 296.189 168.129 298.852C226.721 305.033 285.982 305.391 344.535 298.852C369.081 296.111 396.748 289.465 409.253 268.166C420.159 249.591 415.358 224.69 409.353 204.005C396.553 159.951 379.688 120.71 359.036 79.7459C302.88 -31.6441 220.802 -21.3951 164.836 79.7459C143.276 118.709 124.125 162.638 107.636 204.005H107.635Z" fill="#FF7591"/>
<path d="M387.639 213.038H125.193C110.424 213.038 96.261 207.171 85.8183 196.728C75.3755 186.286 69.5088 172.122 69.5088 157.354V134.554C69.5088 119.786 75.3755 105.622 85.8183 95.1793C96.261 84.7366 110.424 78.8699 125.193 78.8699H387.64C402.408 78.8699 416.572 84.7366 427.014 95.1793C437.457 105.622 443.324 119.786 443.324 134.554V157.354C443.324 172.122 437.457 186.286 427.014 196.728C416.571 207.171 402.407 213.038 387.639 213.038Z" fill="#FFF18F"/>
<path d="M149.413 174.347C165.491 174.347 178.524 161.314 178.524 145.236C178.524 129.158 165.491 116.125 149.413 116.125C133.335 116.125 120.302 129.158 120.302 145.236C120.302 161.314 133.335 174.347 149.413 174.347Z" fill="#FFBE6B"/>
<path d="M256.416 174.347C272.493 174.347 285.527 161.314 285.527 145.236C285.527 129.158 272.493 116.125 256.416 116.125C240.338 116.125 227.305 129.158 227.305 145.236C227.305 161.314 240.338 174.347 256.416 174.347Z" fill="#FFBE6B"/>
<path d="M363.419 174.347C379.497 174.347 392.53 161.314 392.53 145.236C392.53 129.158 379.497 116.125 363.419 116.125C347.342 116.125 334.308 129.158 334.308 145.236C334.308 161.314 347.342 174.347 363.419 174.347Z" fill="#FFBE6B"/>
</svg>
