<svg width="513" height="512" viewBox="0 0 513 512" fill="none" xmlns="http://www.w3.org/2000/svg">
<path d="M312.576 476.77C309.723 471.464 303.047 462.655 297.09 456.516C296.57 455.982 296.218 455.307 296.077 454.574C295.937 453.842 296.015 453.084 296.301 452.395C296.586 451.707 297.068 451.117 297.686 450.699C298.304 450.282 299.031 450.055 299.776 450.046C307.551 449.957 317.035 451.427 321.13 455.113C325.468 442.864 338.793 434.643 353.521 432.913C354.457 432.81 355.404 432.931 356.284 433.266C357.164 433.601 357.952 434.14 358.582 434.839C359.213 435.538 359.669 436.376 359.912 437.286C360.155 438.195 360.179 439.15 359.981 440.07C358.459 447.105 358.504 456.188 359.326 459.787C366.018 453.342 375.48 453.548 382.37 454.652C383.026 454.75 383.645 455.018 384.165 455.429C384.685 455.84 385.089 456.38 385.336 456.995C385.584 457.61 385.666 458.28 385.576 458.936C385.485 459.593 385.224 460.215 384.819 460.74C381.379 465.033 378.894 470.01 377.53 475.34C377.287 476.506 376.651 477.555 375.73 478.31C374.808 479.066 373.656 479.484 372.464 479.495H317.127C316.193 479.495 315.276 479.242 314.475 478.762C313.673 478.282 313.017 477.594 312.576 476.77Z" fill="#6FCE91"/>
<path d="M33.0052 169.049C24.8448 169.061 16.9881 165.955 11.042 160.366C5.09586 154.777 1.50954 147.128 1.01651 138.982C0.523479 130.837 3.16099 122.811 8.38963 116.546C13.6183 110.28 21.0429 106.249 29.1452 105.277C31.3389 93.4126 37.4452 82.6256 46.4889 74.6388C55.5326 66.652 66.9918 61.9263 79.0364 61.2163C91.081 60.5064 103.016 63.8533 112.935 70.7224C122.855 77.5914 130.186 87.5865 133.758 99.111C142.828 99.6977 151.314 103.789 157.421 110.519C163.529 117.25 166.779 126.092 166.485 135.176C166.191 144.259 162.376 152.873 155.846 159.194C149.315 165.515 140.583 169.049 131.494 169.048H33.0002L33.0052 169.049Z" fill="#A3DEFE"/>
<path d="M312.963 107.925C304.804 107.935 296.95 104.828 291.005 99.2393C285.061 93.6506 281.476 86.0025 280.983 77.8585C280.49 69.7144 283.126 61.6897 288.353 55.4249C293.58 49.16 301.003 45.1283 309.103 44.154C311.297 32.2898 317.404 21.5031 326.448 13.5165C335.491 5.53001 346.95 0.804421 358.995 0.0945129C371.039 -0.615395 382.974 2.73133 392.894 9.60016C402.813 16.469 410.144 26.4637 413.717 37.988C422.787 38.5747 431.273 42.6658 437.38 49.3963C443.488 56.1267 446.738 64.9688 446.444 74.0526C446.15 83.1364 442.335 91.7498 435.805 98.0711C429.274 104.392 420.542 107.926 411.453 107.925H312.963Z" fill="#A3DEFE"/>
<path d="M171.648 398.3H87.7622V473.656C87.7623 476.906 88.7566 480.079 90.6117 482.747C92.4668 485.416 95.0938 487.453 98.1402 488.586C118.503 496.156 140.908 496.156 161.271 488.586C164.318 487.454 166.945 485.416 168.8 482.747C170.655 480.079 171.649 476.906 171.649 473.656V398.3H171.648Z" fill="#E1B89A"/>
<path d="M87.7612 438.139L111.218 448.3C117.054 450.827 123.346 452.131 129.705 452.131C136.065 452.131 142.357 450.827 148.192 448.3L171.648 438.142V398.3H87.7612V438.139Z" fill="#D2996F"/>
<path d="M150.475 264.277C196.381 295.944 231.986 362.577 250.708 403.717C252.069 406.71 252.524 410.036 252.015 413.285C251.506 416.533 250.056 419.561 247.844 421.994C245.632 424.427 242.756 426.158 239.571 426.974C236.385 427.789 233.031 427.653 229.922 426.582L206.822 418.631C195.844 414.854 183.85 415.317 173.196 419.931L148.196 430.757C142.36 433.284 136.068 434.588 129.709 434.588C123.35 434.588 117.058 433.284 111.222 430.757L86.222 419.931C75.5682 415.317 63.5742 414.853 52.596 418.631L29.496 426.583C26.3866 427.657 23.0305 427.795 19.8432 426.981C16.6559 426.167 13.7774 424.436 11.5641 422.002C9.35069 419.568 7.89966 416.539 7.39059 413.289C6.88152 410.039 7.33678 406.711 8.69999 403.717C27.423 362.575 63.028 295.944 108.934 264.277C115.036 260.051 122.282 257.787 129.704 257.787C137.127 257.787 144.373 260.051 150.475 264.277Z" fill="#6FCE91"/>
<path d="M148.643 207.138C190.499 236.011 222.963 296.764 240.034 334.276C241.276 337.005 241.69 340.038 241.226 343C240.762 345.962 239.44 348.723 237.423 350.941C235.407 353.159 232.784 354.738 229.88 355.481C226.975 356.225 223.917 356.101 221.082 355.124L200.016 347.874C190.007 344.429 179.07 344.851 169.356 349.058L146.561 358.929C141.24 361.233 135.504 362.422 129.705 362.422C123.907 362.422 118.17 361.233 112.849 358.929L90.0542 349.058C80.3401 344.851 69.4039 344.429 59.3942 347.874L38.3282 355.124C35.4937 356.101 32.4351 356.225 29.5308 355.481C26.6264 354.738 24.0037 353.159 21.9871 350.941C19.9704 348.723 18.6483 345.962 18.1843 343C17.7203 340.038 18.1347 337.005 19.3762 334.276C36.4472 296.763 68.9112 236.011 110.767 207.138C116.331 203.285 122.938 201.221 129.705 201.221C136.473 201.221 143.08 203.285 148.643 207.138Z" fill="#8EE2CF"/>
<path d="M146.613 148.018C183.984 173.797 212.969 228.04 228.213 261.533C229.322 263.97 229.692 266.678 229.277 269.322C228.863 271.967 227.683 274.432 225.882 276.413C224.081 278.393 221.739 279.803 219.146 280.466C216.553 281.13 213.822 281.019 211.291 280.147L192.483 273.674C183.546 270.598 173.782 270.975 165.108 274.731L144.756 283.545C140.005 285.602 134.883 286.664 129.706 286.664C124.529 286.664 119.407 285.602 114.656 283.545L94.3002 274.731C85.6271 270.975 75.863 270.598 66.9262 273.674L48.1182 280.147C45.5876 281.018 42.8572 281.128 40.2647 280.464C37.6722 279.8 35.3312 278.39 33.5311 276.41C31.7311 274.429 30.551 271.965 30.1367 269.321C29.7224 266.677 30.0922 263.969 31.2002 261.533C46.4422 228.04 75.4272 173.797 112.8 148.018C117.768 144.578 123.667 142.735 129.709 142.735C135.752 142.735 141.651 144.578 146.618 148.018H146.613Z" fill="#6FCE91"/>
<path d="M432.382 398.3H348.495V473.656C348.495 476.906 349.49 480.079 351.345 482.747C353.2 485.416 355.827 487.453 358.873 488.586C379.236 496.156 401.641 496.156 422.004 488.586C425.051 487.454 427.678 485.416 429.533 482.747C431.388 480.079 432.382 476.906 432.382 473.656V398.3Z" fill="#E1B89A"/>
<path d="M348.495 438.139L371.952 448.3C377.788 450.827 384.08 452.131 390.439 452.131C396.799 452.131 403.09 450.827 408.926 448.3L432.383 438.142V398.3H348.5V438.141L348.495 438.139Z" fill="#D2996F"/>
<path d="M411.209 264.277C457.115 295.944 492.72 362.577 511.442 403.717C512.803 406.71 513.258 410.036 512.749 413.285C512.24 416.533 510.79 419.561 508.578 421.994C506.366 424.427 503.49 426.158 500.305 426.974C497.119 427.789 493.765 427.653 490.656 426.582L467.556 418.631C456.578 414.854 444.584 415.317 433.93 419.931L408.93 430.757C403.094 433.284 396.802 434.588 390.443 434.588C384.084 434.588 377.792 433.284 371.956 430.757L346.956 419.931C336.302 415.317 324.308 414.853 313.33 418.631L290.23 426.583C276.265 431.389 263.33 417.16 269.444 403.718C288.167 362.576 323.772 295.945 369.678 264.278C375.78 260.052 383.026 257.788 390.448 257.788C397.87 257.788 405.116 260.052 411.218 264.278L411.209 264.277Z" fill="#8EE2CF"/>
<path d="M409.377 207.138C451.233 236.011 483.697 296.764 500.768 334.276C502.01 337.005 502.424 340.038 501.96 343C501.496 345.962 500.174 348.722 498.158 350.941C496.141 353.159 493.518 354.738 490.614 355.481C487.709 356.225 484.651 356.101 481.816 355.124L460.751 347.874C450.742 344.429 439.806 344.851 430.091 349.058L407.291 358.929C401.97 361.233 396.234 362.422 390.435 362.422C384.637 362.422 378.9 361.233 373.579 358.929L350.779 349.058C341.065 344.851 330.129 344.429 320.119 347.874L299.053 355.124C296.219 356.101 293.16 356.225 290.256 355.481C287.352 354.738 284.729 353.159 282.712 350.941C280.696 348.722 279.373 345.962 278.909 343C278.445 340.038 278.86 337.005 280.101 334.276C297.172 296.763 329.636 236.011 371.492 207.138C377.056 203.285 383.662 201.22 390.43 201.22C397.197 201.22 403.804 203.285 409.367 207.138H409.377Z" fill="#6FCE91"/>
<path d="M407.347 148.018C444.718 173.797 473.703 228.04 488.947 261.533C490.056 263.97 490.426 266.678 490.012 269.322C489.597 271.967 488.417 274.432 486.616 276.413C484.815 278.393 482.474 279.803 479.88 280.466C477.287 281.13 474.556 281.019 472.025 280.147L453.216 273.674C444.279 270.598 434.515 270.975 425.841 274.731L405.489 283.545C400.739 285.602 395.616 286.664 390.439 286.664C385.262 286.664 380.14 285.602 375.389 283.545L355.037 274.731C346.364 270.975 336.6 270.598 327.662 273.674L308.854 280.147C306.324 281.019 303.593 281.13 300.999 280.466C298.406 279.803 296.064 278.393 294.264 276.413C292.463 274.432 291.282 271.967 290.868 269.322C290.454 266.678 290.824 263.97 291.932 261.533C307.174 228.04 336.159 173.797 373.532 148.018C378.5 144.578 384.399 142.734 390.442 142.734C396.485 142.734 402.384 144.578 407.351 148.018H407.347Z" fill="#8EE2CF"/>
<path d="M59.5221 503.155C56.6691 497.849 49.9931 489.04 44.0361 482.901C43.5156 482.367 43.1633 481.692 43.0228 480.96C42.8823 480.227 42.9599 479.47 43.2459 478.781C43.5318 478.092 44.0137 477.502 44.6316 477.085C45.2495 476.667 45.9764 476.44 46.7221 476.432C54.4971 476.343 63.9811 477.813 68.0761 481.499C72.4141 469.25 85.7391 461.029 100.467 459.299C101.403 459.196 102.35 459.317 103.23 459.652C104.11 459.987 104.897 460.526 105.528 461.225C106.159 461.924 106.615 462.763 106.858 463.672C107.101 464.581 107.125 465.536 106.927 466.456C105.405 473.491 105.45 482.574 106.272 486.173C112.964 479.727 122.426 479.934 129.316 481.038C129.972 481.137 130.59 481.405 131.111 481.816C131.631 482.227 132.035 482.766 132.282 483.382C132.53 483.997 132.612 484.666 132.521 485.323C132.431 485.979 132.17 486.601 131.765 487.126C128.324 491.419 125.839 496.396 124.476 501.726C124.232 502.893 123.597 503.941 122.676 504.697C121.754 505.453 120.602 505.871 119.41 505.882H64.0731C63.1389 505.882 62.2222 505.628 61.4208 505.148C60.6194 504.667 59.9632 503.979 59.5221 503.155Z" fill="#8EE2CF"/>
<path d="M409.8 509.274C406.947 503.968 400.271 495.159 394.315 489.02C393.795 488.486 393.443 487.811 393.302 487.079C393.162 486.346 393.239 485.589 393.525 484.9C393.811 484.212 394.292 483.622 394.91 483.204C395.528 482.787 396.255 482.56 397 482.551C404.775 482.462 414.259 483.932 418.354 487.618C422.691 475.37 436.017 467.148 450.745 465.418C451.681 465.315 452.628 465.436 453.508 465.771C454.388 466.106 455.176 466.645 455.806 467.344C456.437 468.043 456.893 468.881 457.136 469.791C457.379 470.7 457.403 471.655 457.205 472.575C455.683 479.61 455.728 488.693 456.55 492.292C463.242 485.847 472.704 486.053 479.594 487.157C480.25 487.255 480.869 487.523 481.389 487.935C481.909 488.346 482.313 488.885 482.56 489.5C482.808 490.116 482.89 490.785 482.8 491.441C482.709 492.098 482.448 492.72 482.043 493.245C478.602 497.537 476.117 502.515 474.754 507.845C474.51 509.011 473.875 510.059 472.954 510.815C472.033 511.571 470.881 511.989 469.689 512H414.352C413.418 512 412.501 511.746 411.7 511.266C410.898 510.786 410.242 510.098 409.8 509.274Z" fill="#8EE2CF"/>
</svg>
