<svg width="512" height="512" viewBox="0 0 512 512" fill="none" xmlns="http://www.w3.org/2000/svg">
<path d="M454.706 506.66H57.294C51.8785 506.66 46.6849 504.509 42.8556 500.68C39.0263 496.85 36.875 491.657 36.875 486.241V294.162H475.125V486.24C475.125 488.922 474.597 491.577 473.571 494.054C472.545 496.532 471.041 498.783 469.145 500.679C467.249 502.575 464.998 504.079 462.52 505.106C460.043 506.132 457.388 506.66 454.706 506.66Z" fill="#FCF2D0"/>
<path d="M112.88 436.406H36.88V383.306H112.886C114.693 383.306 116.482 383.662 118.151 384.353C119.82 385.045 121.337 386.058 122.614 387.336C123.891 388.613 124.905 390.13 125.596 391.799C126.287 393.468 126.643 395.257 126.643 397.064V422.65C126.643 426.299 125.193 429.798 122.613 432.378C120.033 434.958 116.534 436.407 112.885 436.407L112.88 436.406Z" fill="#A3DEFE"/>
<path d="M399.12 436.406H475.126V383.306H399.12C395.471 383.306 391.972 384.755 389.392 387.336C386.812 389.916 385.362 393.415 385.362 397.064V422.65C385.362 426.299 386.812 429.798 389.392 432.378C391.972 434.958 395.471 436.407 399.12 436.407V436.406Z" fill="#A3DEFE"/>
<path d="M36.875 356.613C48.0266 354.166 59.4025 352.885 70.819 352.792C95.484 352.792 114.269 359.476 138.051 367.938C168.516 378.778 203.045 391.064 256 391.064C308.955 391.064 343.484 378.777 373.952 367.937C397.736 359.475 416.521 352.791 441.181 352.791C452.598 352.884 463.973 354.165 475.125 356.612V294.16H36.875V356.613Z" fill="#FAE0BD"/>
<path d="M310.255 417.05H201.745C198.146 417.05 194.694 418.48 192.148 421.025C189.603 423.57 188.173 427.022 188.173 430.621V506.659H323.826V430.621C323.826 428.839 323.475 427.074 322.793 425.427C322.111 423.781 321.112 422.285 319.851 421.025C318.591 419.764 317.095 418.765 315.449 418.083C313.802 417.401 312.037 417.05 310.255 417.05Z" fill="#A3DEFE"/>
<path d="M248.5 417.05H263.5V506.659H248.5V417.05Z" fill="#7ACEFA"/>
<path d="M112.88 436.406C116.529 436.406 120.028 434.956 122.608 432.376C125.188 429.796 126.638 426.297 126.638 422.648V397.062C126.638 393.413 125.188 389.914 122.608 387.334C120.028 384.753 116.529 383.304 112.88 383.304H105.262L52.162 436.404H112.88V436.406Z" fill="#7ACEFA"/>
<path d="M399.12 383.305C395.471 383.305 391.972 384.754 389.392 387.335C386.812 389.915 385.362 393.414 385.362 397.063V422.649C385.362 426.298 386.812 429.797 389.392 432.377C391.972 434.957 395.471 436.407 399.12 436.407H405.811L458.911 383.307H399.12V383.305Z" fill="#7ACEFA"/>
<path d="M417.53 306.191H94.47V113.491C94.4713 102.697 98.7599 92.3465 106.392 84.7149C114.025 77.0832 124.377 72.7959 135.17 72.7959H376.84C387.633 72.7959 397.985 77.0832 405.617 84.7149C413.25 92.3465 417.539 102.697 417.54 113.491L417.53 306.191Z" fill="#FCF2D0"/>
<path d="M170.475 226.373H94.475V173.273H170.481C174.129 173.274 177.627 174.724 180.206 177.304C182.785 179.884 184.234 183.382 184.234 187.03V212.616C184.233 216.265 182.784 219.764 180.203 222.344C177.623 224.924 174.124 226.373 170.475 226.373Z" fill="#A3DEFE"/>
<path d="M341.525 226.373H417.531V173.273H341.525C337.876 173.273 334.377 174.722 331.797 177.302C329.217 179.882 327.767 183.381 327.767 187.03V212.616C327.767 216.265 329.217 219.764 331.797 222.344C334.377 224.924 337.876 226.373 341.525 226.373Z" fill="#A3DEFE"/>
<path d="M417.53 232.437C393.295 235.45 372.997 242.652 353.23 249.686C324.974 259.74 298.287 269.236 256.002 269.236C213.717 269.236 187.028 259.736 158.77 249.685C139 242.651 118.7 235.45 94.47 232.437V306.19H417.53V232.437Z" fill="#FAE0BD"/>
<path d="M1.11274e-05 310.649C-0.00302367 313.383 0.61474 316.082 1.80672 318.542C2.99869 321.003 4.73377 323.161 6.8811 324.853C9.02843 326.545 11.532 327.728 14.2029 328.311C16.8738 328.895 19.6425 328.865 22.3 328.223C124.6 303.25 148.16 360.16 256 360.16C363.84 360.16 387.4 303.251 489.7 328.223C492.358 328.865 495.126 328.895 497.797 328.311C500.468 327.728 502.972 326.545 505.119 324.853C507.266 323.161 509.001 321.003 510.193 318.542C511.385 316.082 512.003 313.383 512 310.649V287.997C512 284.05 510.709 280.211 508.323 277.067C505.938 273.923 502.589 271.645 498.788 270.582C388.695 239.89 366.961 300.141 256 300.141C145.039 300.141 123.3 239.89 13.212 270.581C9.41092 271.644 6.06211 273.922 3.67659 277.067C1.29108 280.211 -0.000129135 284.05 1.11274e-05 287.997V310.649Z" fill="#A0E7E7"/>
<path d="M229.949 298.958C140.8 290.694 114.1 242.458 13.212 270.581C9.41101 271.645 6.06228 273.922 3.67679 277.067C1.2913 280.211 3.64408e-05 284.05 1.11274e-05 287.997V310.649C-0.00302367 313.383 0.61474 316.082 1.80672 318.543C2.99869 321.003 4.73377 323.161 6.8811 324.853C9.02843 326.545 11.532 327.728 14.2029 328.312C16.8738 328.895 19.6425 328.865 22.3 328.223C117.538 304.975 144.548 352.683 234.831 359.383C226.255 343.57 223.208 317.556 229.953 298.958H229.949Z" fill="#8ED2E2"/>
<path d="M278.266 47.454V11.906C278.266 11.1304 278.113 10.3624 277.816 9.64587C277.52 8.92932 277.085 8.27825 276.536 7.72983C275.988 7.1814 275.337 6.74637 274.62 6.44957C273.904 6.15276 273.136 6 272.36 6H239.64C238.074 6 236.571 6.62224 235.464 7.72983C234.356 8.83742 233.734 10.3396 233.734 11.906V47.453C233.734 48.2693 233.41 49.0522 232.832 49.6295C232.255 50.2067 231.472 50.531 230.656 50.531H195.109C193.543 50.531 192.04 51.1532 190.933 52.2608C189.825 53.3684 189.203 54.8706 189.203 56.437V89.157C189.203 89.9326 189.356 90.7006 189.653 91.4171C189.949 92.1337 190.384 92.7848 190.933 93.3332C191.481 93.8816 192.132 94.3166 192.849 94.6134C193.565 94.9102 194.333 95.063 195.109 95.063H230.656C231.06 95.063 231.46 95.1426 231.834 95.2973C232.207 95.452 232.547 95.6787 232.832 95.9645C233.118 96.2504 233.345 96.5897 233.5 96.9631C233.654 97.3365 233.734 97.7368 233.734 98.141V133.688C233.734 135.254 234.356 136.757 235.464 137.864C236.571 138.972 238.074 139.594 239.64 139.594H272.36C273.926 139.594 275.429 138.972 276.536 137.864C277.644 136.757 278.266 135.254 278.266 133.688V98.141C278.266 97.7368 278.346 97.3365 278.5 96.9631C278.655 96.5897 278.882 96.2504 279.168 95.9645C279.453 95.6787 279.793 95.452 280.166 95.2973C280.54 95.1426 280.94 95.063 281.344 95.063H316.891C317.667 95.063 318.435 94.9102 319.151 94.6134C319.868 94.3166 320.519 93.8816 321.067 93.3332C321.616 92.7848 322.051 92.1337 322.347 91.4171C322.644 90.7006 322.797 89.9326 322.797 89.157V56.437C322.797 54.8706 322.175 53.3684 321.067 52.2608C319.96 51.1532 318.457 50.531 316.891 50.531H281.344C280.94 50.5313 280.54 50.4519 280.166 50.2973C279.793 50.1428 279.453 49.9162 279.167 49.6304C278.881 49.3447 278.655 49.0053 278.5 48.6319C278.345 48.2585 278.266 47.8582 278.266 47.454Z" fill="#EDA1AB"/>
<path d="M278.266 133.688V118.03C250.49 104.877 233.238 66.871 233.094 49.313C232.809 49.6905 232.441 49.9969 232.018 50.2082C231.595 50.4195 231.129 50.53 230.656 50.531H195.109C193.543 50.531 192.04 51.1532 190.933 52.2608C189.825 53.3684 189.203 54.8706 189.203 56.437V89.157C189.203 89.9326 189.356 90.7006 189.653 91.4171C189.949 92.1337 190.384 92.7847 190.933 93.3332C191.481 93.8816 192.132 94.3166 192.849 94.6134C193.565 94.9102 194.333 95.063 195.109 95.063H230.656C231.06 95.063 231.46 95.1426 231.834 95.2973C232.207 95.452 232.547 95.6787 232.832 95.9645C233.118 96.2503 233.345 96.5896 233.5 96.9631C233.654 97.3365 233.734 97.7368 233.734 98.141V133.688C233.734 135.254 234.356 136.757 235.464 137.864C236.571 138.972 238.074 139.594 239.64 139.594H272.36C273.926 139.593 275.428 138.971 276.536 137.863C277.643 136.756 278.266 135.253 278.266 133.687V133.688Z" fill="#E8899E"/>
<path d="M274.688 207.323H237.311C235.322 207.323 233.414 206.533 232.008 205.126C230.601 203.72 229.811 201.812 229.811 199.823C229.811 197.834 230.601 195.926 232.008 194.52C233.414 193.113 235.322 192.323 237.311 192.323H274.688C276.677 192.323 278.585 193.113 279.991 194.52C281.398 195.926 282.188 197.834 282.188 199.823C282.188 201.812 281.398 203.72 279.991 205.126C278.585 206.533 276.677 207.323 274.688 207.323Z" fill="#7ACEFA"/>
<path d="M94.47 173.273V226.373H103.11L156.21 173.273H94.47Z" fill="#7ACEFA"/>
<path d="M417.53 226.373V173.273H403.748L350.648 226.373H417.53Z" fill="#7ACEFA"/>
</svg>
