<svg width="512" height="512" viewBox="0 0 512 512" fill="none" xmlns="http://www.w3.org/2000/svg">
<path d="M237.869 20.075H124.109V88.6239H237.869L207.198 54.3489L237.869 20.075Z" fill="#FF98C9"/>
<path d="M155.383 20.075H124.106V88.629H155.383V20.075Z" fill="#EB6DA8"/>
<path d="M124.108 149.724C123.108 149.724 122.119 149.527 121.195 149.145C120.272 148.762 119.433 148.201 118.726 147.494C118.019 146.788 117.459 145.948 117.076 145.025C116.694 144.101 116.497 143.112 116.497 142.112V7.611C116.497 5.59244 117.299 3.65655 118.726 2.22921C120.154 0.801871 122.09 0 124.108 0C126.127 0 128.063 0.801871 129.49 2.22921C130.917 3.65655 131.719 5.59244 131.719 7.611V142.111C131.719 143.111 131.523 144.101 131.141 145.024C130.758 145.948 130.198 146.787 129.491 147.494C128.784 148.201 127.945 148.762 127.021 149.145C126.098 149.527 125.108 149.724 124.108 149.724Z" fill="#3A484A"/>
<path d="M29.6941 193.045V450.045L256.536 481.024L483.378 450.047V193.047L256.536 162.068L29.6941 193.045Z" fill="#FCF2D0"/>
<path d="M29.6941 193.045V218.416H483.378V193.045L256.536 162.068L29.6941 193.045Z" fill="#FAE0BD"/>
<path d="M483.378 131.092H29.694C25.2665 131.092 21.0203 132.851 17.8896 135.982C14.7588 139.112 13 143.359 13 147.786V176.351C13 180.779 14.7588 185.025 17.8896 188.155C21.0203 191.286 25.2665 193.045 29.694 193.045H483.378C487.806 193.045 492.052 191.286 495.182 188.155C498.313 185.025 500.072 180.779 500.072 176.351V147.786C500.072 143.359 498.313 139.112 495.182 135.982C492.052 132.851 487.806 131.092 483.378 131.092Z" fill="#FF98C9"/>
<path d="M416.918 282.061H361.625C354.738 282.061 348.134 284.797 343.264 289.666C338.395 294.536 335.659 301.14 335.659 308.027V481.027H442.885V308.027C442.885 304.617 442.213 301.24 440.908 298.09C439.603 294.94 437.691 292.077 435.279 289.666C432.868 287.255 430.005 285.342 426.855 284.037C423.705 282.732 420.328 282.061 416.918 282.061Z" fill="#42C3E2"/>
<path d="M411.222 313.726H367.319V449.373H411.222V313.726Z" fill="#EFEDEE"/>
<path d="M284.708 402.823C305.186 386.846 289.477 354.223 264.218 360.275C275.736 336.995 247.43 314.421 227.296 330.831C227.572 304.86 192.275 296.803 181.256 320.322C170.236 296.8 134.936 304.858 135.216 330.831C115.083 314.422 86.7761 336.995 98.2941 360.275C73.0351 354.226 57.3261 386.846 77.8041 402.823C52.4221 408.333 52.4221 444.538 77.8041 450.048L181.256 470.748L284.708 450.048C310.089 444.538 310.089 408.332 284.708 402.823Z" fill="#00AE95"/>
<path d="M253.228 226.889H109.284C105.783 226.889 102.426 228.28 99.9502 230.755C97.4747 233.231 96.084 236.588 96.084 240.089V269.555C96.084 273.056 97.4747 276.413 99.9502 278.889C102.426 281.364 105.783 282.755 109.284 282.755H253.228C256.729 282.755 260.086 281.364 262.562 278.889C265.037 276.413 266.428 273.056 266.428 269.555V240.086C266.427 236.586 265.036 233.229 262.561 230.754C260.085 228.279 256.728 226.889 253.228 226.889Z" fill="#90D3F1"/>
<path d="M483.378 450.047H29.694C27.5017 450.047 25.3309 450.479 23.3055 451.318C21.2801 452.157 19.4397 453.386 17.8896 454.936C16.3394 456.487 15.1097 458.327 14.2708 460.352C13.4318 462.378 13 464.549 13 466.741V495.306C13 499.733 14.7588 503.98 17.8896 507.11C21.0203 510.241 25.2665 512 29.694 512H483.378C487.806 512 492.052 510.241 495.182 507.11C498.313 503.98 500.072 499.733 500.072 495.306V466.741C500.07 462.314 498.311 458.069 495.181 454.938C492.05 451.808 487.805 450.048 483.378 450.047Z" fill="#FF98C9"/>
</svg>
