<svg width="512" height="512" viewBox="0 0 512 512" fill="none" xmlns="http://www.w3.org/2000/svg">
<path d="M423.897 94.637L399.753 186.245L299.092 210.517H193.615V97.123L322.367 67.415L423.897 94.637Z" fill="#F8E86A"/>
<path d="M423.897 40.1931H193.615V94.6371H423.897C431.117 94.6371 438.041 91.7691 443.146 86.664C448.251 81.5589 451.119 74.6348 451.119 67.4151C451.119 60.1954 448.251 53.2714 443.146 48.1663C438.041 43.0611 431.117 40.1931 423.897 40.1931Z" fill="#60D9A7"/>
<path d="M244.634 126.83H142.595C138.694 126.83 134.831 127.598 131.226 129.091C127.622 130.584 124.347 132.773 121.588 135.531C118.83 138.29 116.641 141.565 115.148 145.169C113.655 148.774 112.887 152.637 112.887 156.538C112.887 160.439 113.655 164.302 115.148 167.907C116.641 171.511 118.83 174.786 121.588 177.545C124.347 180.303 127.622 182.492 131.226 183.985C134.831 185.478 138.694 186.246 142.595 186.246L193.615 210.517L244.634 186.246C252.513 186.246 260.069 183.116 265.641 177.545C271.212 171.973 274.342 164.417 274.342 156.538C274.342 148.659 271.212 141.103 265.641 135.531C260.069 129.96 252.513 126.83 244.634 126.83Z" fill="#FFC9D3"/>
<path d="M244.634 8H142.595C134.716 8 127.16 11.1299 121.588 16.7013C116.017 22.2726 112.887 29.8289 112.887 37.708C112.887 45.5871 116.017 53.1434 121.588 58.7147C127.16 64.2861 134.716 67.416 142.595 67.416L193.615 97.124L244.634 67.416C248.535 67.416 252.398 66.6476 256.003 65.1546C259.607 63.6616 262.882 61.4734 265.641 58.7147C268.399 55.9561 270.588 52.6811 272.081 49.0768C273.574 45.4724 274.342 41.6093 274.342 37.708C274.342 33.8067 273.574 29.9436 272.081 26.3392C270.588 22.7349 268.399 19.4599 265.641 16.7013C262.882 13.9426 259.607 11.7544 256.003 10.2614C252.398 8.76842 248.535 8 244.634 8V8Z" fill="#FFC9D3"/>
<path d="M172.82 126.83H142.595C138.694 126.83 134.831 127.598 131.226 129.091C127.622 130.584 124.347 132.773 121.588 135.531C118.83 138.29 116.641 141.565 115.148 145.169C113.655 148.774 112.887 152.637 112.887 156.538C112.887 160.439 113.655 164.302 115.148 167.907C116.641 171.511 118.83 174.786 121.588 177.545C124.347 180.303 127.622 182.492 131.226 183.985C134.831 185.478 138.694 186.246 142.595 186.246L193.615 210.517L225.52 195.338C200.866 176.965 182.38 153.404 172.82 126.83Z" fill="#FF9DB0"/>
<path d="M399.753 186.245H112.887C99.1257 186.245 85.9281 191.712 76.1973 201.442C66.4666 211.173 61 224.371 61 238.132V453.112C60.9999 459.926 62.3419 466.673 64.9494 472.969C67.5569 479.264 71.3788 484.984 76.197 489.802C81.0152 494.621 86.7352 498.443 93.0305 501.05C99.3258 503.658 106.073 505 112.887 505H399.752C413.513 505 426.711 499.533 436.442 489.803C446.172 480.072 451.639 466.874 451.639 453.113V238.132C451.639 231.318 450.297 224.571 447.69 218.276C445.082 211.981 441.26 206.261 436.442 201.443C431.624 196.624 425.904 192.802 419.609 190.195C413.314 187.587 406.567 186.245 399.753 186.245Z" fill="#C7C5CB"/>
<path d="M154.875 357.655C154.865 356.993 154.855 356.321 154.855 355.65C154.855 342.325 157.479 329.131 162.579 316.821C167.678 304.511 175.151 293.325 184.573 283.903C193.995 274.482 205.181 267.008 217.491 261.909C229.801 256.81 242.995 254.185 256.32 254.185C269.645 254.185 282.839 256.81 295.149 261.909C307.459 267.008 318.645 274.482 328.067 283.903C337.488 293.325 344.962 304.511 350.061 316.821C355.16 329.131 357.785 342.325 357.785 355.65C357.785 356.322 357.775 356.994 357.765 357.655L256.32 403.63L154.875 357.655Z" fill="#3CCADD"/>
<path d="M357.765 357.655C357.238 384.211 346.318 409.502 327.351 428.096C308.384 446.69 282.881 457.106 256.32 457.106C229.759 457.106 204.256 446.69 185.289 428.096C166.322 409.502 155.402 384.211 154.875 357.655L158.175 355.65C164.089 352.05 170.879 350.145 177.803 350.145C184.727 350.145 191.517 352.05 197.431 355.65C203.345 359.251 210.135 361.155 217.059 361.155C223.983 361.155 230.773 359.251 236.687 355.65C242.603 352.049 249.395 350.145 256.32 350.145C263.245 350.145 270.037 352.049 275.953 355.65C281.867 359.251 288.657 361.155 295.581 361.155C302.505 361.155 309.295 359.251 315.209 355.65C321.123 352.05 327.913 350.145 334.837 350.145C341.761 350.145 348.551 352.05 354.465 355.65L357.765 357.655Z" fill="#80D8E6"/>
<path d="M372.273 304.915C371.147 302.324 369.465 300.013 367.346 298.145C365.227 296.277 362.723 294.898 360.012 294.106C357.3 293.314 354.448 293.128 351.656 293.561C348.865 293.995 346.203 295.038 343.86 296.615L333.993 303.281C330.317 305.789 327.618 309.49 326.354 313.757C325.09 318.025 325.338 322.598 327.055 326.704C334.608 345.258 334.608 366.03 327.055 384.584C325.338 388.69 325.09 393.263 326.354 397.53C327.618 401.798 330.317 405.498 333.993 408.007L343.86 414.673C346.203 416.25 348.865 417.293 351.656 417.727C354.448 418.16 357.3 417.975 360.012 417.183C362.723 416.39 365.228 415.011 367.346 413.143C369.465 411.275 371.147 408.964 372.273 406.373C379.253 390.37 382.856 373.098 382.856 355.639C382.856 338.18 379.253 320.908 372.273 304.905V304.915Z" fill="white"/>
<path d="M384.072 263.124C396.321 263.124 406.25 253.195 406.25 240.946C406.25 228.697 396.321 218.768 384.072 218.768C371.823 218.768 361.894 228.697 361.894 240.946C361.894 253.195 371.823 263.124 384.072 263.124Z" fill="white"/>
<path d="M109.458 317.358C109.46 271.095 122.218 225.729 146.329 186.246H112.888C106.074 186.246 99.3268 187.588 93.0316 190.195C86.7363 192.803 81.0162 196.625 76.1981 201.443C71.3799 206.261 67.5579 211.981 64.9504 218.277C62.3429 224.572 61.0009 231.319 61.001 238.133V453.113C61.0013 466.874 66.468 480.072 76.1987 489.802C85.9293 499.533 99.1268 505 112.888 505H192.388C141.188 457.129 109.46 390.742 109.46 317.357L109.458 317.358Z" fill="#B2B0BC"/>
<path d="M144.22 222.655H116.52C112.969 222.655 109.564 224.066 107.053 226.576C104.543 229.087 103.132 232.492 103.132 236.043V245.85C103.132 249.401 104.543 252.806 107.053 255.317C109.564 257.828 112.969 259.238 116.52 259.238H144.22C147.771 259.238 151.176 257.828 153.687 255.317C156.197 252.806 157.608 249.401 157.608 245.85V236.043C157.608 232.492 156.197 229.087 153.686 226.577C151.176 224.066 147.771 222.655 144.22 222.655Z" fill="white"/>
<path d="M192.142 8H142.595C138.694 8 134.831 8.76842 131.226 10.2614C127.622 11.7544 124.347 13.9426 121.588 16.7013C118.83 19.4599 116.641 22.7349 115.148 26.3392C113.655 29.9436 112.887 33.8067 112.887 37.708C112.887 41.6093 113.655 45.4724 115.148 49.0768C116.641 52.6811 118.83 55.9561 121.588 58.7147C124.347 61.4734 127.622 63.6616 131.226 65.1546C134.831 66.6476 138.694 67.416 142.595 67.416L165.588 80.8C166.538 54.243 176.108 29.407 192.142 8Z" fill="#FF9DB0"/>
<path d="M244.634 67.415H142.595C134.716 67.415 127.16 70.545 121.588 76.1163C116.017 81.6876 112.887 89.244 112.887 97.123C112.887 105.002 116.017 112.558 121.588 118.13C127.16 123.701 134.716 126.831 142.595 126.831H244.634C252.513 126.831 260.069 123.701 265.641 118.13C271.212 112.558 274.342 105.002 274.342 97.123C274.342 89.244 271.212 81.6876 265.641 76.1163C260.069 70.545 252.513 67.415 244.634 67.415Z" fill="#80D8E6"/>
<path d="M165.503 85.178C165.508 79.2328 165.948 73.296 166.82 67.415H142.595C134.716 67.415 127.16 70.545 121.588 76.1163C116.017 81.6876 112.887 89.244 112.887 97.123C112.887 105.002 116.017 112.558 121.588 118.13C127.16 123.701 134.716 126.831 142.595 126.831H172.82C167.986 113.476 165.51 99.3814 165.503 85.178Z" fill="#3CCADD"/>
</svg>
