<svg width="512" height="512" viewBox="0 0 512 512" fill="none" xmlns="http://www.w3.org/2000/svg">
<path d="M351.58 70H452.42C458.409 70 464.152 72.379 468.386 76.6135C472.621 80.8481 475 86.5914 475 92.58V136L402 156L329 136V92.581C329 86.5923 331.379 80.8489 335.613 76.6142C339.848 72.3794 345.591 70.0003 351.58 70Z" fill="#FF7591"/>
<path d="M402 156L475 176V243.2L402 263.2L329 243.2V176L402 156Z" fill="#FF7591"/>
<path d="M402 263.2L475 283.2V326.61C475 332.599 472.622 338.344 468.388 342.58C464.154 346.816 458.41 349.197 452.421 349.2H351.58C345.59 349.197 339.847 346.816 335.613 342.58C331.379 338.344 329 332.599 329 326.61V283.2L402 263.2Z" fill="#FF7591"/>
<path d="M306.42 0H205.58C199.591 0.000265195 193.848 2.37931 189.614 6.61382C185.379 10.8483 183 16.5915 183 22.58V66L256 86L329 66V22.581C329 16.5923 326.621 10.8489 322.387 6.61417C318.152 2.37944 312.409 0.000265209 306.42 0Z" fill="#FFF18F"/>
<path d="M224.208 66V22.581C224.208 16.5923 226.587 10.8489 230.821 6.61417C235.056 2.37944 240.799 0.000265209 246.788 0H205.58C199.591 0.000265209 193.848 2.37944 189.613 6.61417C185.379 10.8489 183 16.5923 183 22.581V66L256 86L276.6 80.356L224.208 66Z" fill="#FFBE6B"/>
<path d="M256 86L183 106V243.2L256 263.2L329 243.2V106L256 86Z" fill="#FFF18F"/>
<path d="M224.208 243.2V106L276.608 91.644L256 86L183 106V243.2L256 263.2L276.6 257.557L224.208 243.2Z" fill="#FFBE6B"/>
<path d="M256 263.2L183 283.2V326.61C183 332.6 185.378 338.344 189.613 342.58C193.847 346.816 199.59 349.198 205.58 349.2H306.42C312.409 349.198 318.153 346.817 322.387 342.581C326.621 338.345 329 332.6 329 326.611V283.2L256 263.2Z" fill="#FFF18F"/>
<path d="M224.208 326.611V283.2L276.608 268.841L256 263.2L183 283.2V326.61C183 332.6 185.378 338.344 189.613 342.58C193.847 346.816 199.59 349.198 205.58 349.2H246.787C240.798 349.197 235.055 346.816 230.821 342.58C226.587 338.344 224.208 332.6 224.208 326.611Z" fill="#FFBE6B"/>
<path d="M160.42 70H59.581C53.5923 70 47.8489 72.3789 43.6142 76.6135C39.3794 80.848 37.0003 86.5913 37 92.58V136L110 156L183 136V92.581C183 86.5924 180.621 80.8491 176.386 76.6145C172.152 72.3798 166.409 70.0005 160.42 70Z" fill="#90D3F1"/>
<path d="M78.207 136V92.581C78.2073 86.5925 80.5863 80.8493 84.8208 76.6148C89.0553 72.3803 94.7985 70.0012 100.787 70.001H59.579C53.5907 70.0015 47.8478 72.3807 43.6135 76.6152C39.3792 80.8496 37.0003 86.5926 37 92.581V136L110 156L130.6 150.356L78.207 136Z" fill="#59C2E7"/>
<path d="M110 156L37 176V243.2L110 263.2L183 243.2V176L110 156Z" fill="#90D3F1"/>
<path d="M78.207 243.2V176L130.607 161.644L110 156L37 176V243.2L110 263.2L130.6 257.556L78.207 243.2Z" fill="#59C2E7"/>
<path d="M110 263.2L37 283.2V326.61C36.9997 332.6 39.3783 338.344 43.6126 342.58C47.847 346.816 53.5904 349.198 59.58 349.2H160.42C166.41 349.198 172.153 346.816 176.387 342.58C180.622 338.344 183 332.6 183 326.61V283.2L110 263.2Z" fill="#90D3F1"/>
<path d="M78.207 326.611V283.2L130.607 268.844L110 263.2L37 283.2V326.61C36.9997 332.6 39.3783 338.344 43.6126 342.58C47.847 346.816 53.5904 349.198 59.58 349.2H100.787C94.7977 349.197 89.0545 346.816 84.8203 342.58C80.586 338.344 78.2073 332.6 78.207 326.611Z" fill="#59C2E7"/>
<path d="M57 376.6V488.57C57 490.465 57.3732 492.341 58.0984 494.092C58.8236 495.843 59.8865 497.434 61.2264 498.774C62.5664 500.114 64.1571 501.176 65.9079 501.902C67.6586 502.627 69.535 503 71.43 503H89.57C93.3969 503 97.0671 501.48 99.7732 498.774C102.479 496.068 104 492.398 104 488.571V376.6H57Z" fill="#8B7167"/>
<path d="M455 376.6V488.57C455 492.397 453.48 496.068 450.774 498.774C448.067 501.48 444.397 503 440.57 503H422.43C418.603 503 414.933 501.48 412.227 498.774C409.521 496.068 408 492.398 408 488.571V376.6H455Z" fill="#8B7167"/>
<path d="M328.998 66.0061H183.001V106.006H328.998V66.0061Z" fill="#DC5A64"/>
<path d="M224.208 66.0061H183.001V106.006H224.208V66.0061Z" fill="#BF4E57"/>
<path d="M182.997 243.197H37V283.197H182.997V243.197Z" fill="#EFEDEE"/>
<path d="M78.207 243.197H37V283.197H78.207V243.197Z" fill="#D4D2D3"/>
<path d="M182.997 135.997H37V175.997H182.997V135.997Z" fill="#EFEDEE"/>
<path d="M78.207 135.997H37V175.997H78.207V135.997Z" fill="#D4D2D3"/>
<path d="M370.207 136V92.581C370.207 86.5925 372.586 80.8492 376.82 76.6145C381.054 72.3798 386.798 70.0005 392.786 70H351.579C345.591 70.0005 339.847 72.3798 335.613 76.6145C331.379 80.8492 329 86.5925 329 92.581V136L402 156L422.6 150.356L370.207 136Z" fill="#FE5B70"/>
<path d="M370.207 243.2V176L422.607 161.644L402 156L329 176V243.2L402 263.2L422.6 257.556L370.207 243.2Z" fill="#FE5B70"/>
<path d="M370.207 326.611V283.2L422.607 268.844L402 263.2L329 283.2V326.61C329 332.6 331.378 338.344 335.613 342.58C339.847 346.816 345.59 349.198 351.58 349.2H392.787C386.798 349.197 381.055 346.816 376.82 342.58C372.586 338.344 370.207 332.6 370.207 326.611Z" fill="#FE5B70"/>
<path d="M474.996 243.197H328.999V283.197H474.996V243.197Z" fill="#EFEDEE"/>
<path d="M370.206 243.197H328.999V283.197H370.206V243.197Z" fill="#D4D2D3"/>
<path d="M474.996 135.997H328.999V175.997H474.996V135.997Z" fill="#EFEDEE"/>
<path d="M370.206 135.997H328.999V175.997H370.206V135.997Z" fill="#D4D2D3"/>
<path d="M328.998 243.197H183.001V283.197H328.998V243.197Z" fill="#DC5A64"/>
<path d="M495.4 349.2H16.6C12.1974 349.2 7.97513 350.949 4.86203 354.062C1.74892 357.175 0 361.397 0 365.8L0 387.4C0 391.803 1.74892 396.025 4.86203 399.138C7.97513 402.251 12.1974 404 16.6 404H495.4C499.803 404 504.025 402.251 507.138 399.138C510.251 396.025 512 391.803 512 387.4V365.8C512 361.397 510.251 357.175 507.138 354.062C504.025 350.949 499.803 349.2 495.4 349.2Z" fill="#9B7E73"/>
<path d="M224.208 243.197H183.001V283.197H224.208V243.197Z" fill="#BF4E57"/>
</svg>
