<svg width="512" height="512" viewBox="0 0 512 512" fill="none" xmlns="http://www.w3.org/2000/svg">
<path d="M256.332 287.84L279.871 399.922L256.332 512H146.82L120.211 399.922L146.82 287.84H256.332Z" fill="#90D3F1"/>
<path d="M392.453 399.922L365.84 512H256.332V287.84H365.84L392.453 399.922Z" fill="#59C2E7"/>
<path d="M74.41 293.328L2 312.406V512H146.82V312.406L74.41 293.328Z" fill="#FCF2D0"/>
<path d="M89.863 297.4L74.41 293.33L2 312.406V512H32.906V312.406L89.863 297.4Z" fill="#FAE0BD"/>
<path d="M94.9408 360.273H53.8788C50.7967 360.273 47.8409 361.497 45.6615 363.677C43.4822 365.856 42.2578 368.812 42.2578 371.894V412.96C42.2575 414.486 42.558 415.997 43.1419 417.407C43.7258 418.817 44.5818 420.099 45.6609 421.178C46.7401 422.257 48.0213 423.113 49.4313 423.697C50.8414 424.281 52.3526 424.581 53.8788 424.581H94.9408C98.0229 424.581 100.979 423.357 103.158 421.177C105.337 418.998 106.562 416.042 106.562 412.96V371.895C106.562 370.369 106.261 368.858 105.678 367.447C105.094 366.037 104.238 364.756 103.158 363.677C102.079 362.598 100.798 361.742 99.3882 361.158C97.9782 360.574 96.467 360.273 94.9408 360.273Z" fill="#2ECDF9"/>
<path d="M438.25 293.328L510.664 312.406V512H365.84V312.406L438.25 293.328Z" fill="#FCF2D0"/>
<path d="M417.719 360.273H458.785C461.867 360.273 464.823 361.497 467.002 363.677C469.182 365.856 470.406 368.812 470.406 371.894V412.96C470.406 416.042 469.182 418.998 467.002 421.177C464.823 423.357 461.867 424.581 458.785 424.581H417.719C414.638 424.58 411.682 423.356 409.503 421.177C407.325 418.998 406.1 416.042 406.1 412.961V371.895C406.1 368.813 407.324 365.857 409.503 363.678C411.682 361.498 414.637 360.273 417.719 360.273Z" fill="#2ECDF9"/>
<path d="M238.609 397.625C238.609 399.702 237.993 401.732 236.839 403.458C235.686 405.185 234.046 406.531 232.127 407.326C230.208 408.12 228.097 408.328 226.06 407.923C224.024 407.518 222.153 406.518 220.684 405.05C219.216 403.581 218.216 401.71 217.811 399.673C217.406 397.637 217.613 395.525 218.408 393.607C219.203 391.688 220.549 390.048 222.275 388.895C224.002 387.741 226.032 387.125 228.109 387.125C230.894 387.125 233.564 388.231 235.534 390.2C237.503 392.17 238.609 394.84 238.609 397.625Z" fill="#E5E8EC"/>
<path d="M295.051 397.625C295.051 399.702 294.435 401.732 293.281 403.458C292.127 405.185 290.488 406.531 288.569 407.326C286.65 408.12 284.539 408.328 282.502 407.923C280.466 407.518 278.595 406.518 277.126 405.05C275.658 403.581 274.658 401.71 274.253 399.673C273.847 397.637 274.055 395.525 274.85 393.607C275.645 391.688 276.991 390.048 278.717 388.895C280.444 387.741 282.474 387.125 284.551 387.125C287.336 387.125 290.006 388.231 291.975 390.2C293.945 392.17 295.051 394.84 295.051 397.625Z" fill="#E5E8EC"/>
<path d="M382.176 0H130.488C123.144 0 116.102 2.91712 110.909 8.10963C105.717 13.3021 102.8 20.3447 102.8 27.688V185.488H409.859V27.688C409.859 24.0523 409.143 20.4521 407.752 17.0929C406.361 13.7338 404.322 10.6816 401.752 8.11052C399.181 5.53943 396.129 3.49986 392.77 2.10826C389.412 0.716649 385.812 0.000262628 382.176 0V0Z" fill="#90D3F1"/>
<path d="M163.691 94.5659C163.121 95.5716 162.285 96.4011 161.275 96.9638C160.265 97.5266 159.119 97.801 157.964 97.7569C156.85 97.8174 155.743 97.5466 154.783 96.9787C153.823 96.4107 153.053 95.5712 152.569 94.5659L142.113 75.4099V117.8C142.113 121.323 137.813 123.085 133.523 123.085C129.233 123.085 124.937 121.323 124.937 117.8V51.1879C124.937 44.9109 129.23 42.6019 133.523 42.6019C139.691 42.6019 142.332 43.2619 146.847 51.1879L158.188 70.9999L169.528 51.1839C174.044 43.2579 176.684 42.5979 182.848 42.5979C187.254 42.5979 191.438 44.9069 191.438 51.1839V117.8C191.438 121.323 187.145 123.085 182.848 123.085C178.551 123.085 174.262 121.323 174.262 117.8V76.5119L163.691 94.5659Z" fill="#E5E8EC"/>
<path d="M203.871 116.035C203.9 115.625 203.974 115.219 204.09 114.824L224.57 47.6639C225.781 43.8089 230.734 41.9409 235.8 41.9409C240.866 41.9409 245.816 43.8119 247.03 47.6639L267.616 114.824C267.732 115.219 267.806 115.625 267.835 116.035C267.835 120.109 261.562 123.082 256.827 123.082C254.073 123.082 251.874 122.199 251.21 119.891L247.468 106.129H224.238L220.5 119.891C219.84 122.204 217.637 123.082 214.883 123.082C210.148 123.082 203.871 120.109 203.871 116.035ZM243.836 92.9139L235.8 63.4099L227.765 92.9099L243.836 92.9139Z" fill="#E5E8EC"/>
<path d="M287.762 123.082C284.02 123.082 280.274 121.32 280.274 117.797V47.7728C280.274 44.1398 284.574 42.6008 288.864 42.6008C293.154 42.6008 297.45 44.1398 297.45 47.7728V108.109H322.55C325.85 108.109 327.503 111.851 327.503 115.593C327.503 119.335 325.855 123.081 322.55 123.081L287.762 123.082Z" fill="#E5E8EC"/>
<path d="M347.98 123.082C344.238 123.082 340.492 121.32 340.492 117.797V47.7728C340.492 44.1398 344.792 42.6008 349.082 42.6008C353.372 42.6008 357.668 44.1398 357.668 47.7728V108.109H382.768C386.068 108.109 387.721 111.851 387.721 115.593C387.721 119.335 386.073 123.081 382.768 123.081L347.98 123.082Z" fill="#E5E8EC"/>
<path d="M510.664 214.152V263.277L256.332 287.84L2 263.277V214.152L256.332 185.492L510.664 214.152Z" fill="#E5E8EC"/>
<path d="M32.906 263.277V214.152L271.785 187.234L256.332 185.492L2 214.152V263.277L256.332 287.84L271.785 286.348L32.906 263.277Z" fill="#DADADC"/>
<path d="M2 263.277H510.66V312.406H2V263.277Z" fill="#FF9BCA"/>
<path d="M2 263.277H32.906V312.406H2V263.277Z" fill="#FF71A7"/>
<path d="M102.8 134.121H409.859V185.492H102.8V134.121Z" fill="#59C2E7"/>
<path d="M510.664 196.621V214.152H2V196.621C1.99921 192.472 2.81583 188.363 4.40323 184.529C5.99062 180.695 8.3177 177.211 11.2515 174.277C14.1854 171.342 17.6686 169.015 21.5021 167.427C25.3357 165.838 29.4445 165.021 33.594 165.021H479.066C487.447 165.022 495.484 168.351 501.409 174.277C507.335 180.203 510.664 188.241 510.664 196.621Z" fill="#FF9BCA"/>
<path d="M64.5 165.023H33.594C29.4447 165.023 25.336 165.84 21.5026 167.428C17.6692 169.016 14.1861 171.344 11.2523 174.278C8.31843 177.212 5.99131 180.696 4.4038 184.529C2.81629 188.363 1.99947 192.472 2 196.621V214.152H32.906V196.621C32.9055 192.472 33.7223 188.363 35.3098 184.529C36.8973 180.696 39.2244 177.212 42.1583 174.278C45.0921 171.344 48.5752 169.016 52.4086 167.428C56.242 165.84 60.3507 165.023 64.5 165.023Z" fill="#FF71A7"/>
</svg>
