<svg width="512" height="512" viewBox="0 0 512 512" fill="none" xmlns="http://www.w3.org/2000/svg">
<path d="M282.48 368.537H231.496V512H282.48V368.537Z" fill="#A3DEFE"/>
<path d="M282.48 368.537H231.496V436.869H282.48V368.537Z" fill="#7ACEFA"/>
<path d="M407.697 0H106.269C92.4066 0 79.1121 5.50679 69.3099 15.3089C59.5078 25.1111 54.001 38.4057 54.001 52.268V353.7C54.001 367.562 59.5078 380.857 69.3099 390.659C79.1121 400.461 92.4066 405.968 106.269 405.968H407.697C421.559 405.968 434.854 400.461 444.656 390.659C454.458 380.857 459.965 367.562 459.965 353.7V52.268C459.965 38.4057 454.458 25.1111 444.656 15.3089C434.854 5.50679 421.559 0 407.697 0V0Z" fill="#EFEDEE"/>
<path d="M188.683 405.964C174.822 405.964 161.528 400.457 151.726 390.656C141.924 380.855 136.417 367.561 136.416 353.7V52.268C136.416 45.4041 137.768 38.6074 140.394 32.266C143.021 25.9245 146.871 20.1625 151.724 15.309C156.578 10.4555 162.34 6.60541 168.681 3.97868C175.022 1.35196 181.819 -1.25628e-09 188.683 0L106.269 0C92.4063 0.000265213 79.1115 5.50738 69.3092 15.3099C59.5069 25.1124 54 38.4073 54 52.27V353.7C53.9999 360.564 55.3517 367.361 57.9783 373.702C60.6049 380.044 64.4548 385.806 69.3082 390.659C74.1617 395.513 79.9236 399.363 86.265 401.99C92.6064 404.617 99.4031 405.969 106.267 405.969H188.683V405.964Z" fill="#D4D2D3"/>
<path d="M106.269 360.521C104.46 360.519 102.725 359.8 101.445 358.52C100.166 357.241 99.4459 355.506 99.4441 353.696V52.2681C99.4462 50.4587 100.166 48.7239 101.445 47.4445C102.725 46.165 104.46 45.4452 106.269 45.4431H407.697C409.507 45.4452 411.241 46.165 412.521 47.4445C413.8 48.7239 414.52 50.4587 414.522 52.2681V353.7C414.52 355.51 413.8 357.244 412.521 358.524C411.241 359.803 409.507 360.523 407.697 360.525L106.269 360.521Z" fill="#8EAFE2"/>
<path d="M136.873 45.4441H106.273C104.464 45.4462 102.729 46.1659 101.449 47.4454C100.17 48.7249 99.4501 50.4596 99.448 52.2691V353.7C99.4501 355.51 100.17 357.244 101.449 358.524C102.729 359.803 104.464 360.523 106.273 360.525H136.873C136.573 358.262 136.42 355.983 136.415 353.7V52.2681C136.42 49.9859 136.573 47.7065 136.873 45.4441Z" fill="#6A96D7"/>
<path d="M181.346 106.813C181.346 99.2641 188.29 92.6211 198.858 92.6211H261.358C301.215 92.6211 332.617 111.341 332.617 162.069V163.579C332.617 214.305 300.008 233.63 258.339 233.63H228.449V298.851C228.449 308.513 216.673 313.345 204.897 313.345C193.121 313.345 181.346 308.513 181.346 298.851V106.813ZM228.446 133.686V197.4H258.339C275.248 197.4 285.514 187.738 285.514 167.2V163.879C285.514 143.346 275.247 133.684 258.339 133.684L228.446 133.686Z" fill="#EFEDEE"/>
</svg>
