<svg width="514" height="512" viewBox="0 0 514 512" fill="none" xmlns="http://www.w3.org/2000/svg">
<path d="M244.24 499.48C378.578 499.48 487.48 390.578 487.48 256.24C487.48 121.902 378.578 13 244.24 13C109.902 13 1 121.902 1 256.24C1 390.578 109.902 499.48 244.24 499.48Z" fill="#E8E9EA"/>
<path opacity="0.1" d="M244.24 434C342.414 434 422 354.414 422 256.24C422 158.066 342.414 78.48 244.24 78.48C146.066 78.48 66.48 158.066 66.48 256.24C66.48 354.414 146.066 434 244.24 434Z" fill="black"/>
<path d="M174.04 158.851C186.919 158.851 197.36 150.536 197.36 140.28C197.36 130.024 186.919 121.709 174.04 121.709C161.16 121.709 150.72 130.024 150.72 140.28C150.72 150.536 161.16 158.851 174.04 158.851Z" fill="#F284B9"/>
<path d="M300.44 158.851C313.319 158.851 323.76 150.536 323.76 140.28C323.76 130.024 313.319 121.709 300.44 121.709C287.56 121.709 277.12 130.024 277.12 140.28C277.12 150.536 287.56 158.851 300.44 158.851Z" fill="#F284B9"/>
<path d="M187.63 129.25C185.641 129.25 183.733 128.46 182.327 127.053C180.92 125.647 180.13 123.739 180.13 121.75V113.516C180.13 111.527 180.92 109.619 182.327 108.213C183.733 106.806 185.641 106.016 187.63 106.016C189.619 106.016 191.527 106.806 192.933 108.213C194.34 109.619 195.13 111.527 195.13 113.516V121.75C195.13 123.739 194.34 125.647 192.933 127.053C191.527 128.46 189.619 129.25 187.63 129.25Z" fill="#4A5359"/>
<path d="M286.852 129.25C284.863 129.25 282.955 128.46 281.549 127.053C280.142 125.647 279.352 123.739 279.352 121.75V113.516C279.352 111.527 280.142 109.619 281.549 108.213C282.955 106.806 284.863 106.016 286.852 106.016C288.841 106.016 290.749 106.806 292.155 108.213C293.562 109.619 294.352 111.527 294.352 113.516V121.75C294.352 123.739 293.562 125.647 292.155 127.053C290.749 128.46 288.841 129.25 286.852 129.25Z" fill="#4A5359"/>
<path d="M237.241 135.574C233.69 135.573 230.18 134.812 226.949 133.34C223.717 131.868 220.839 129.721 218.507 127.043C217.2 125.543 216.542 123.586 216.679 121.602C216.815 119.617 217.734 117.768 219.234 116.461C220.734 115.154 222.691 114.497 224.675 114.633C226.66 114.769 228.509 115.688 229.816 117.188C230.739 118.251 231.88 119.104 233.161 119.688C234.442 120.273 235.833 120.575 237.241 120.575C238.649 120.575 240.041 120.273 241.322 119.688C242.603 119.104 243.744 118.251 244.667 117.188C245.31 116.433 246.097 115.812 246.982 115.363C247.866 114.913 248.831 114.644 249.821 114.57C250.81 114.497 251.805 114.62 252.746 114.933C253.688 115.247 254.558 115.744 255.306 116.396C256.054 117.048 256.665 117.842 257.104 118.731C257.543 119.621 257.801 120.59 257.863 121.58C257.925 122.57 257.79 123.563 257.466 124.501C257.142 125.439 256.635 126.303 255.974 127.043C253.642 129.721 250.764 131.868 247.532 133.34C244.301 134.812 240.792 135.573 237.241 135.574Z" fill="#4A5359"/>
<path opacity="0.1" d="M245.718 13.0219C245.225 13.0219 244.735 13.0029 244.241 13.0029C109.9 13.0039 1 121.904 1 256.24C1 390.576 109.9 499.476 244.236 499.476C267.359 499.491 290.366 496.21 312.563 489.732C150.682 454.626 61.708 169.715 245.718 13.0219Z" fill="black"/>
<path d="M507.173 169.706C500.095 163.265 489.073 163.887 482.306 170.654L418.56 234.4C416.91 236.05 414.95 237.36 412.794 238.253C410.638 239.146 408.327 239.606 405.993 239.606C403.659 239.606 401.348 239.146 399.192 238.253C397.035 237.36 395.076 236.05 393.426 234.4C391.776 232.75 390.466 230.791 389.573 228.634C388.68 226.478 388.22 224.167 388.22 221.833C388.22 219.499 388.68 217.188 389.573 215.032C390.466 212.876 391.776 210.916 393.426 209.266L457.172 145.52C463.939 138.753 464.561 127.73 458.12 120.653C456.503 118.871 454.54 117.437 452.352 116.436C450.164 115.435 447.795 114.889 445.39 114.831C442.984 114.773 440.592 115.204 438.358 116.098C436.124 116.991 434.094 118.33 432.393 120.031L368.293 184.131C366.643 185.781 364.683 187.091 362.527 187.984C360.371 188.877 358.06 189.337 355.726 189.337C353.392 189.337 351.081 188.877 348.925 187.984C346.768 187.091 344.809 185.781 343.159 184.131C341.509 182.481 340.199 180.522 339.306 178.365C338.413 176.209 337.953 173.898 337.953 171.564C337.953 169.23 338.413 166.919 339.306 164.763C340.199 162.607 341.509 160.647 343.159 158.997L406.9 95.252C413.667 88.485 414.289 77.462 407.848 70.385C406.231 68.6033 404.268 67.1686 402.08 66.1678C399.892 65.167 397.523 64.621 395.117 64.5628C392.712 64.5047 390.319 64.9356 388.085 65.8295C385.851 66.7234 383.822 68.0616 382.12 69.7631L305.452 146.431C293.874 158.006 285.719 172.555 281.89 188.473C278.061 204.39 278.705 221.057 283.752 236.631C284.956 240.328 285.084 244.292 284.12 248.059C283.156 251.826 281.141 255.241 278.31 257.906L130.712 396.44C127.228 399.71 124.437 403.647 122.504 408.017C120.571 412.386 119.536 417.1 119.46 421.878C119.384 426.655 120.27 431.4 122.063 435.828C123.857 440.257 126.522 444.28 129.901 447.659C133.28 451.038 137.303 453.703 141.732 455.496C146.161 457.29 150.905 458.175 155.682 458.1C160.46 458.024 165.173 456.989 169.543 455.056C173.913 453.123 177.85 450.332 181.12 446.848L319.652 299.248C322.317 296.417 325.733 294.403 329.5 293.439C333.266 292.476 337.23 292.603 340.927 293.806C356.501 298.853 373.168 299.498 389.085 295.668C405.003 291.839 419.552 283.685 431.127 272.106L507.8 195.435C509.501 193.733 510.839 191.703 511.732 189.469C512.625 187.234 513.056 184.842 512.997 182.436C512.938 180.031 512.392 177.662 511.391 175.474C510.39 173.286 508.955 171.323 507.173 169.706Z" fill="#5F75A1"/>
<path opacity="0.1" d="M264.708 270.674L130.708 396.438C127.224 399.708 124.433 403.645 122.5 408.015C120.567 412.384 119.532 417.098 119.456 421.876C119.38 426.653 120.266 431.398 122.059 435.826C123.853 440.255 126.518 444.278 129.897 447.657C133.276 451.036 137.299 453.701 141.728 455.494C146.157 457.288 150.901 458.173 155.678 458.098C160.456 458.022 165.17 456.987 169.539 455.054C173.909 453.121 177.846 450.33 181.116 446.846L281.616 339.766C267.907 318.696 265.069 291.871 264.708 270.674Z" fill="black"/>
<path d="M160.909 136.58C118.916 94.5869 47.7418 71.6209 15.9088 103.459C-15.9242 135.297 7.0368 206.471 49.0298 248.459C77.8608 277.29 108.161 284.859 134.63 276.468C137.658 275.476 140.905 275.359 143.996 276.133C147.087 276.907 149.896 278.538 152.1 280.84L308.812 446.915C312.094 450.394 316.042 453.178 320.42 455.105C324.798 457.031 329.518 458.059 334.3 458.128C339.083 458.198 343.83 457.307 348.262 455.508C352.694 453.71 356.721 451.041 360.103 447.659C363.485 444.277 366.154 440.251 367.952 435.818C369.751 431.386 370.642 426.639 370.572 421.856C370.503 417.074 369.475 412.354 367.549 407.976C365.622 403.598 362.838 399.65 359.359 396.368L193.283 239.653C190.982 237.448 189.351 234.637 188.578 231.545C187.806 228.453 187.924 225.206 188.918 222.178C197.3 195.711 189.74 165.411 160.909 136.58Z" fill="#6CB6DE"/>
<path d="M160.909 136.58C118.916 94.5869 47.7418 71.6209 15.9088 103.459C-15.9242 135.297 7.0368 206.471 49.0298 248.459C77.8608 277.29 108.161 284.859 134.63 276.468C137.658 275.476 140.905 275.359 143.996 276.133C147.087 276.907 149.896 278.538 152.1 280.84L308.812 446.915C312.094 450.394 316.042 453.178 320.42 455.105C324.798 457.031 329.518 458.059 334.3 458.128C339.083 458.198 343.83 457.307 348.262 455.508C352.694 453.71 356.721 451.041 360.103 447.659C363.485 444.277 366.154 440.251 367.952 435.818C369.751 431.386 370.642 426.639 370.572 421.856C370.503 417.074 369.475 412.354 367.549 407.976C365.622 403.598 362.838 399.65 359.359 396.368L193.283 239.653C190.982 237.448 189.351 234.637 188.578 231.545C187.806 228.453 187.924 225.206 188.918 222.178C197.3 195.711 189.74 165.411 160.909 136.58Z" fill="#6CB6DE"/>
<path opacity="0.1" d="M305.732 407.098C283.418 383.132 166.174 243.98 119.454 244.85C47.686 246.187 16.476 150.691 23.854 97.1111C20.9757 98.9256 18.308 101.054 15.9 103.458C-15.934 135.296 7.03196 206.47 49.025 248.463C77.856 277.294 108.156 284.863 134.625 276.472C137.653 275.478 140.901 275.361 143.993 276.134C147.085 276.907 149.895 278.538 152.1 280.84L308.812 446.914C312.095 450.393 316.042 453.178 320.42 455.104C324.798 457.03 329.518 458.058 334.3 458.127C339.083 458.197 343.831 457.306 348.263 455.508C352.695 453.709 356.721 451.04 360.103 447.658C363.141 444.628 365.607 441.074 367.383 437.167C339.342 442.658 323.366 426.04 305.732 407.098Z" fill="black"/>
</svg>
