<svg width="512" height="512" viewBox="0 0 512 512" fill="none" xmlns="http://www.w3.org/2000/svg">
<path d="M327.148 58.281H256V15.855H327.148C328.975 15.855 330.726 16.5805 332.017 17.8718C333.309 19.1632 334.034 20.9147 334.034 22.741V51.393C334.035 52.2974 333.857 53.1931 333.511 54.0288C333.165 54.8644 332.658 55.6238 332.018 56.2634C331.379 56.903 330.619 57.4104 329.784 57.7566C328.948 58.1028 328.053 58.281 327.148 58.281Z" fill="#FBAB5F"/>
<path opacity="0.1" d="M284.05 15.855H256V58.275H284.05V15.855Z" fill="black"/>
<path d="M256 100.886C254.011 100.886 252.103 100.096 250.697 98.6893C249.29 97.2828 248.5 95.3751 248.5 93.386V7.5C248.5 5.51088 249.29 3.60322 250.697 2.1967C252.103 0.790176 254.011 0 256 0C257.989 0 259.897 0.790176 261.304 2.1967C262.71 3.60322 263.5 5.51088 263.5 7.5V93.386C263.5 95.3751 262.71 97.2828 261.304 98.6893C259.897 100.096 257.989 100.886 256 100.886Z" fill="#4A5058"/>
<path d="M465.027 220.431H46.9673V484.361H465.027V220.431Z" fill="#F1F1F1"/>
<g opacity="0.1">
<path opacity="0.1" d="M148.488 438.374H104.85C102.861 438.374 100.953 437.584 99.5468 436.177C98.1403 434.771 97.3501 432.863 97.3501 430.874C97.3501 428.885 98.1403 426.977 99.5468 425.571C100.953 424.164 102.861 423.374 104.85 423.374H148.488C150.477 423.374 152.385 424.164 153.791 425.571C155.198 426.977 155.988 428.885 155.988 430.874C155.988 432.863 155.198 434.771 153.791 436.177C152.385 437.584 150.477 438.374 148.488 438.374Z" fill="black"/>
<path opacity="0.1" d="M148.488 411.524H104.85C102.861 411.524 100.953 410.734 99.5468 409.327C98.1403 407.921 97.3501 406.013 97.3501 404.024C97.3501 402.035 98.1403 400.127 99.5468 398.721C100.953 397.314 102.861 396.524 104.85 396.524H148.488C150.477 396.524 152.385 397.314 153.791 398.721C155.198 400.127 155.988 402.035 155.988 404.024C155.988 406.013 155.198 407.921 153.791 409.327C152.385 410.734 150.477 411.524 148.488 411.524Z" fill="black"/>
<path opacity="0.1" d="M126.669 438.374C124.68 438.374 122.772 437.584 121.366 436.177C119.959 434.771 119.169 432.863 119.169 430.874V404.023C119.169 402.034 119.959 400.126 121.366 398.72C122.772 397.313 124.68 396.523 126.669 396.523C128.658 396.523 130.566 397.313 131.972 398.72C133.379 400.126 134.169 402.034 134.169 404.023V430.874C134.169 432.863 133.379 434.771 131.972 436.177C130.566 437.584 128.658 438.374 126.669 438.374Z" fill="black"/>
</g>
<g opacity="0.1">
<path opacity="0.1" d="M423.739 440.839H382.554C380.565 440.839 378.657 440.049 377.251 438.642C375.844 437.236 375.054 435.328 375.054 433.339C375.054 431.35 375.844 429.442 377.251 428.036C378.657 426.629 380.565 425.839 382.554 425.839H423.739C425.728 425.839 427.636 426.629 429.043 428.036C430.449 429.442 431.239 431.35 431.239 433.339C431.239 435.328 430.449 437.236 429.043 438.642C427.636 440.049 425.728 440.839 423.739 440.839Z" fill="black"/>
<path opacity="0.1" d="M410.784 413.99H369.146C367.157 413.99 365.249 413.2 363.843 411.793C362.436 410.387 361.646 408.479 361.646 406.49C361.646 404.501 362.436 402.593 363.843 401.187C365.249 399.78 367.157 398.99 369.146 398.99H410.784C412.773 398.99 414.681 399.78 416.088 401.187C417.494 402.593 418.284 404.501 418.284 406.49C418.284 408.479 417.494 410.387 416.088 411.793C414.681 413.2 412.773 413.99 410.784 413.99Z" fill="black"/>
<path opacity="0.1" d="M394.966 440.839C392.977 440.839 391.07 440.049 389.663 438.642C388.256 437.236 387.466 435.328 387.466 433.339V406.489C387.466 404.5 388.256 402.592 389.663 401.186C391.07 399.779 392.977 398.989 394.966 398.989C396.955 398.989 398.863 399.779 400.27 401.186C401.676 402.592 402.466 404.5 402.466 406.489V433.339C402.466 435.328 401.676 437.236 400.27 438.642C398.863 440.049 396.955 440.839 394.966 440.839Z" fill="black"/>
</g>
<g opacity="0.1">
<path opacity="0.1" d="M104.851 334.139H63.6663C61.6771 334.139 59.7695 333.349 58.363 331.942C56.9564 330.536 56.1663 328.628 56.1663 326.639C56.1663 324.65 56.9564 322.742 58.363 321.336C59.7695 319.929 61.6771 319.139 63.6663 319.139H104.85C106.839 319.139 108.747 319.929 110.154 321.336C111.56 322.742 112.35 324.65 112.35 326.639C112.35 328.628 111.56 330.536 110.154 331.942C108.747 333.349 106.839 334.139 104.85 334.139H104.851Z" fill="black"/>
<path opacity="0.1" d="M118.259 307.289H76.6213C74.6322 307.289 72.7246 306.499 71.318 305.092C69.9115 303.686 69.1213 301.778 69.1213 299.789C69.1213 297.8 69.9115 295.892 71.318 294.486C72.7246 293.079 74.6322 292.289 76.6213 292.289H118.259C120.248 292.289 122.156 293.079 123.563 294.486C124.969 295.892 125.759 297.8 125.759 299.789C125.759 301.778 124.969 303.686 123.563 305.092C122.156 306.499 120.248 307.289 118.259 307.289Z" fill="black"/>
<path opacity="0.1" d="M92.4402 334.139C90.4511 334.139 88.5434 333.349 87.1369 331.942C85.7304 330.536 84.9402 328.628 84.9402 326.639V299.789C84.9402 297.8 85.7304 295.892 87.1369 294.486C88.5434 293.079 90.4511 292.289 92.4402 292.289C94.4293 292.289 96.337 293.079 97.7435 294.486C99.15 295.892 99.9402 297.8 99.9402 299.789V326.639C99.9402 328.628 99.15 330.536 97.7435 331.942C96.337 333.349 94.4293 334.139 92.4402 334.139Z" fill="black"/>
</g>
<g opacity="0.1">
<path opacity="0.1" d="M371.759 334.139H328.12C326.131 334.139 324.223 333.349 322.817 331.942C321.41 330.536 320.62 328.628 320.62 326.639C320.62 324.65 321.41 322.742 322.817 321.336C324.223 319.929 326.131 319.139 328.12 319.139H371.759C373.748 319.139 375.656 319.929 377.062 321.336C378.469 322.742 379.259 324.65 379.259 326.639C379.259 328.628 378.469 330.536 377.062 331.942C375.656 333.349 373.748 334.139 371.759 334.139Z" fill="black"/>
<path opacity="0.1" d="M389.489 307.289H328.12C326.131 307.289 324.223 306.499 322.817 305.092C321.41 303.686 320.62 301.778 320.62 299.789C320.62 297.8 321.41 295.892 322.817 294.486C324.223 293.079 326.131 292.289 328.12 292.289H389.489C391.478 292.289 393.386 293.079 394.792 294.486C396.199 295.892 396.989 297.8 396.989 299.789C396.989 301.778 396.199 303.686 394.792 305.092C393.386 306.499 391.478 307.289 389.489 307.289Z" fill="black"/>
<path opacity="0.1" d="M349.94 334.139C347.951 334.139 346.043 333.349 344.637 331.942C343.23 330.536 342.44 328.628 342.44 326.639V299.789C342.44 297.8 343.23 295.892 344.637 294.486C346.043 293.079 347.951 292.289 349.94 292.289C351.929 292.289 353.837 293.079 355.243 294.486C356.65 295.892 357.44 297.8 357.44 299.789V326.639C357.44 328.628 356.65 330.536 355.243 331.942C353.837 333.349 351.929 334.139 349.94 334.139Z" fill="black"/>
<path opacity="0.1" d="M371.759 307.289C369.77 307.289 367.862 306.499 366.456 305.092C365.049 303.686 364.259 301.778 364.259 299.789V272.938C364.259 270.949 365.049 269.041 366.456 267.635C367.862 266.228 369.77 265.438 371.759 265.438C373.748 265.438 375.656 266.228 377.062 267.635C378.469 269.041 379.259 270.949 379.259 272.938V299.789C379.259 301.778 378.469 303.686 377.062 305.092C375.656 306.499 373.748 307.289 371.759 307.289Z" fill="black"/>
</g>
<path opacity="0.05" d="M465.027 449.131H46.9673V484.361H465.027V449.131Z" fill="black"/>
<path opacity="0.1" d="M77.7643 276.471H46.9673V484.361H77.7643V276.471Z" fill="black"/>
<path d="M499.252 276.473H12.7482C10.8364 276.473 8.94912 276.043 7.22615 275.215C5.50318 274.386 3.9887 273.181 2.79492 271.688C1.60114 270.194 0.758669 268.452 0.329929 266.589C-0.0988105 264.726 -0.102828 262.79 0.318175 260.925L11.9272 209.492C13.0271 204.619 15.7522 200.265 19.6546 197.146C23.5569 194.026 28.4044 192.327 33.4002 192.328H478.6C483.595 192.328 488.442 194.028 492.344 197.147C496.245 200.266 498.97 204.619 500.07 209.492L511.679 260.925C512.1 262.79 512.096 264.725 511.668 266.588C511.239 268.451 510.397 270.193 509.203 271.687C508.01 273.18 506.496 274.385 504.773 275.214C503.051 276.042 501.164 276.473 499.252 276.473Z" fill="#E77587"/>
<path opacity="0.1" d="M504 226.901H8.00026L4.61426 241.901H507.388L504 226.901Z" fill="black"/>
<path d="M346.29 154.181H165.71V280.931H346.29V154.181Z" fill="#F1F1F1"/>
<g opacity="0.1">
<path opacity="0.1" d="M234.875 230.247H191.237C189.248 230.247 187.34 229.457 185.934 228.05C184.527 226.644 183.737 224.736 183.737 222.747C183.737 220.758 184.527 218.85 185.934 217.444C187.34 216.037 189.248 215.247 191.237 215.247H234.875C236.864 215.247 238.772 216.037 240.178 217.444C241.585 218.85 242.375 220.758 242.375 222.747C242.375 224.736 241.585 226.644 240.178 228.05C238.772 229.457 236.864 230.247 234.875 230.247Z" fill="black"/>
<path opacity="0.1" d="M234.875 203.398H191.237C189.248 203.398 187.34 202.608 185.934 201.201C184.527 199.795 183.737 197.887 183.737 195.898C183.737 193.909 184.527 192.001 185.934 190.595C187.34 189.188 189.248 188.398 191.237 188.398H234.875C236.864 188.398 238.772 189.188 240.178 190.595C241.585 192.001 242.375 193.909 242.375 195.898C242.375 197.887 241.585 199.795 240.178 201.201C238.772 202.608 236.864 203.398 234.875 203.398Z" fill="black"/>
<path opacity="0.1" d="M213.056 230.247C211.067 230.247 209.159 229.457 207.753 228.05C206.346 226.644 205.556 224.736 205.556 222.747V195.897C205.556 193.908 206.346 192 207.753 190.594C209.159 189.187 211.067 188.397 213.056 188.397C215.045 188.397 216.953 189.187 218.359 190.594C219.766 192 220.556 193.908 220.556 195.897V222.747C220.556 224.736 219.766 226.644 218.359 228.05C216.953 229.457 215.045 230.247 213.056 230.247Z" fill="black"/>
</g>
<path opacity="0.1" d="M346.29 154.181H165.71V172.947H346.29V154.181Z" fill="black"/>
<path d="M366.517 154.181H145.483C143.931 154.181 142.399 153.834 140.999 153.167C139.598 152.499 138.365 151.526 137.388 150.321C136.411 149.115 135.716 147.707 135.353 146.198C134.99 144.69 134.968 143.119 135.29 141.601L141.858 110.653C142.894 105.767 145.577 101.385 149.458 98.2413C153.339 95.0971 158.181 93.3813 163.176 93.3811H348.824C353.818 93.3811 358.661 95.0963 362.541 98.2397C366.422 101.383 369.105 105.764 370.142 110.649L376.71 141.597C377.032 143.115 377.011 144.686 376.649 146.195C376.286 147.705 375.591 149.114 374.614 150.32C373.637 151.526 372.403 152.498 371.002 153.166C369.602 153.834 368.069 154.181 366.517 154.181Z" fill="#E77587"/>
<path d="M256 304.341C285.945 304.341 310.22 280.066 310.22 250.121C310.22 220.176 285.945 195.901 256 195.901C226.055 195.901 201.78 220.176 201.78 250.121C201.78 280.066 226.055 304.341 256 304.341Z" fill="white"/>
<path d="M256 257.619C254.011 257.619 252.103 256.829 250.697 255.422C249.29 254.016 248.5 252.108 248.5 250.119V224.558C248.5 222.569 249.29 220.661 250.697 219.255C252.103 217.848 254.011 217.058 256 217.058C257.989 217.058 259.897 217.848 261.304 219.255C262.71 220.661 263.5 222.569 263.5 224.558V250.119C263.5 252.108 262.71 254.016 261.304 255.422C259.897 256.829 257.989 257.619 256 257.619Z" fill="#4A5058"/>
<path d="M281.56 257.619H256C254.011 257.619 252.103 256.829 250.697 255.422C249.29 254.016 248.5 252.108 248.5 250.119C248.5 248.13 249.29 246.222 250.697 244.816C252.103 243.409 254.011 242.619 256 242.619H281.56C283.549 242.619 285.457 243.409 286.864 244.816C288.27 246.222 289.06 248.13 289.06 250.119C289.06 252.108 288.27 254.016 286.864 255.422C285.457 256.829 283.549 257.619 281.56 257.619Z" fill="#4A5058"/>
<path d="M301.792 363.839H210.208C205.177 363.839 200.351 365.838 196.794 369.395C193.236 372.953 191.237 377.778 191.237 382.81V484.361H320.763V382.81C320.763 377.779 318.764 372.953 315.206 369.396C311.649 365.838 306.823 363.839 301.792 363.839Z" fill="#9B7E73"/>
<path opacity="0.1" d="M263.5 363.841H248.5V484.361H263.5V363.841Z" fill="black"/>
<path d="M223.619 423.949C221.63 423.949 219.722 423.159 218.316 421.752C216.909 420.346 216.119 418.438 216.119 416.449V396.531C216.119 394.542 216.909 392.634 218.316 391.228C219.722 389.821 221.63 389.031 223.619 389.031C225.608 389.031 227.516 389.821 228.922 391.228C230.329 392.634 231.119 394.542 231.119 396.531V416.449C231.119 418.438 230.329 420.346 228.922 421.752C227.516 423.159 225.608 423.949 223.619 423.949Z" fill="#76C9D2"/>
<path d="M288.382 423.949C286.393 423.949 284.485 423.159 283.079 421.752C281.672 420.346 280.882 418.438 280.882 416.449V396.531C280.882 394.542 281.672 392.634 283.079 391.228C284.485 389.821 286.393 389.031 288.382 389.031C290.371 389.031 292.279 389.821 293.685 391.228C295.092 392.634 295.882 394.542 295.882 396.531V416.449C295.882 418.438 295.092 420.346 293.685 421.752C292.279 423.159 290.371 423.949 288.382 423.949Z" fill="#76C9D2"/>
<path d="M135.217 382.689H102.987C99.7979 382.689 96.7393 381.422 94.4842 379.167C92.2291 376.912 90.9622 373.853 90.9622 370.664V338.434C90.9622 335.245 92.2291 332.186 94.4842 329.931C96.7393 327.676 99.7979 326.409 102.987 326.409H135.217C138.406 326.409 141.465 327.676 143.72 329.931C145.975 332.186 147.242 335.245 147.242 338.434V370.664C147.242 373.853 145.975 376.912 143.72 379.167C141.465 381.422 138.406 382.689 135.217 382.689Z" fill="#76C9D2"/>
<path d="M376.783 382.689H409.013C412.202 382.689 415.261 381.422 417.516 379.167C419.771 376.912 421.038 373.853 421.038 370.664V338.434C421.038 335.245 419.771 332.186 417.516 329.931C415.261 327.676 412.202 326.409 409.013 326.409H376.783C373.594 326.409 370.535 327.676 368.28 329.931C366.025 332.186 364.758 335.245 364.758 338.434V370.664C364.758 373.853 366.025 376.912 368.28 379.167C370.535 381.422 373.594 382.689 376.783 382.689Z" fill="#76C9D2"/>
<path d="M103.407 428.918H34.9582C27.9474 428.918 21.2238 431.703 16.2665 436.66C11.3092 441.618 8.52417 448.341 8.52417 455.352V478.464C8.52417 480.029 9.14578 481.529 10.2522 482.636C11.3587 483.742 12.8594 484.364 14.4242 484.364H123.941C125.506 484.364 127.007 483.742 128.113 482.636C129.22 481.529 129.841 480.029 129.841 478.464V455.351C129.841 451.88 129.158 448.442 127.829 445.235C126.501 442.028 124.554 439.114 122.099 436.659C119.644 434.205 116.73 432.258 113.523 430.93C110.316 429.601 106.879 428.918 103.407 428.918Z" fill="#81D4AE"/>
<path opacity="0.1" d="M56.7391 428.918H34.9591C27.9484 428.918 21.2248 431.703 16.2675 436.66C11.3102 441.618 8.52515 448.341 8.52515 455.352V478.464C8.52515 480.029 9.14675 481.529 10.2532 482.636C11.3597 483.742 12.8604 484.364 14.4251 484.364H36.2001C34.6354 484.364 33.1347 483.742 32.0282 482.636C30.9218 481.529 30.3001 480.029 30.3001 478.464V455.351C30.3001 451.879 30.9841 448.441 32.3128 445.234C33.6416 442.027 35.5891 439.113 38.0443 436.658C40.4995 434.203 43.4141 432.256 46.6218 430.928C49.8295 429.6 53.2674 428.917 56.7391 428.918Z" fill="black"/>
<path d="M408.593 428.918H477.041C484.052 428.918 490.776 431.703 495.733 436.66C500.69 441.618 503.475 448.341 503.475 455.352V478.464C503.475 480.029 502.854 481.529 501.747 482.636C500.641 483.742 499.14 484.364 497.575 484.364H388.058C386.493 484.364 384.993 483.742 383.886 482.636C382.78 481.529 382.158 480.029 382.158 478.464V455.351C382.158 451.88 382.842 448.442 384.171 445.235C385.499 442.028 387.446 439.114 389.901 436.659C392.356 434.205 395.27 432.258 398.477 430.929C401.684 429.601 405.122 428.918 408.593 428.918Z" fill="#81D4AE"/>
<path opacity="0.1" d="M430.374 428.918H408.594C405.123 428.918 401.685 429.602 398.478 430.93C395.271 432.259 392.357 434.206 389.902 436.66C387.448 439.115 385.501 442.029 384.172 445.236C382.844 448.443 382.16 451.881 382.16 455.352V478.464C382.16 480.029 382.782 481.529 383.888 482.636C384.995 483.742 386.495 484.364 388.06 484.364H409.84C408.275 484.364 406.775 483.742 405.668 482.636C404.562 481.529 403.94 480.029 403.94 478.464V455.351C403.94 451.88 404.624 448.442 405.952 445.235C407.281 442.028 409.228 439.114 411.683 436.66C414.137 434.205 417.051 432.258 420.258 430.93C423.465 429.601 426.903 428.918 430.374 428.918Z" fill="black"/>
<path d="M256 311.839C243.793 311.839 231.86 308.219 221.71 301.437C211.56 294.655 203.649 285.016 198.977 273.738C194.306 262.46 193.084 250.05 195.465 238.077C197.847 226.104 203.725 215.106 212.357 206.475C220.989 197.843 231.986 191.964 243.959 189.583C255.932 187.201 268.342 188.424 279.62 193.095C290.898 197.767 300.537 205.678 307.319 215.828C314.101 225.978 317.721 237.911 317.721 250.118C317.703 266.482 311.194 282.17 299.623 293.741C288.052 305.312 272.364 311.82 256 311.839ZM256 203.398C246.76 203.398 237.727 206.138 230.043 211.272C222.36 216.406 216.372 223.703 212.835 232.24C209.299 240.777 208.374 250.171 210.177 259.234C211.98 268.297 216.429 276.622 222.963 283.156C229.497 289.69 237.822 294.14 246.885 295.942C255.948 297.745 265.342 296.82 273.879 293.284C282.417 289.747 289.713 283.759 294.847 276.076C299.981 268.393 302.721 259.36 302.721 250.119C302.707 237.732 297.78 225.857 289.021 217.098C280.262 208.339 268.387 203.412 256 203.398Z" fill="#76C9D2"/>
</svg>
