<svg width="512" height="512" viewBox="0 0 512 512" fill="none" xmlns="http://www.w3.org/2000/svg">
<path d="M255.742 62.574C253.753 62.574 251.845 61.7838 250.439 60.3773C249.032 58.9708 248.242 57.0631 248.242 55.074V7.5C248.242 5.51088 249.032 3.60322 250.439 2.1967C251.845 0.790176 253.753 0 255.742 0C257.731 0 259.639 0.790176 261.045 2.1967C262.452 3.60322 263.242 5.51088 263.242 7.5V55.074C263.242 57.0631 262.452 58.9708 261.045 60.3773C259.639 61.7838 257.731 62.574 255.742 62.574Z" fill="#495059"/>
<path d="M312.9 96.6681H198.582V67.9681C198.582 64.5477 199.94 61.2673 202.359 58.8482C204.777 56.4291 208.057 55.0694 211.477 55.0681H300.008C303.428 55.0694 306.708 56.4291 309.126 58.8482C311.545 61.2673 312.903 64.5477 312.903 67.9681L312.9 96.6681Z" fill="#F08686"/>
<path d="M376.2 512H135.281C132.024 511.999 128.901 510.705 126.598 508.402C124.295 506.099 123.001 502.976 123 499.719V174.945C123.001 169.371 125.216 164.025 129.158 160.084C133.1 156.143 138.446 153.929 144.02 153.93H367.469C373.043 153.93 378.388 156.144 382.329 160.086C386.27 164.027 388.485 169.372 388.485 174.946V499.719C388.484 502.977 387.19 506.1 384.886 508.403C382.582 510.707 379.458 512 376.2 512Z" fill="#F08686"/>
<path d="M135.281 512H369.906C231.02 453.059 212.66 261.035 201.609 153.93H144.02C138.446 153.929 133.1 156.143 129.158 160.084C125.216 164.025 123.001 169.371 123 174.945V499.719C123.001 502.976 124.295 506.099 126.598 508.402C128.901 510.705 132.024 511.999 135.281 512Z" fill="#D15463"/>
<path d="M123 473.859V499.718C123 502.975 124.294 506.099 126.597 508.402C128.9 510.705 132.024 511.999 135.281 512H376.2C379.457 511.999 382.58 510.705 384.883 508.402C387.186 506.099 388.48 502.976 388.481 499.719V473.859H123Z" fill="#F8E2CA"/>
<path d="M123 473.859V499.718C123 502.975 124.294 506.099 126.597 508.402C128.9 510.705 132.024 511.999 135.281 512H369.906C348.339 502.838 328.568 489.924 311.511 473.859H123Z" fill="#EDD1B5"/>
<path d="M195.672 235.164H157.324C156.452 235.164 155.589 234.992 154.784 234.658C153.978 234.324 153.246 233.835 152.63 233.218C152.014 232.601 151.525 231.869 151.192 231.064C150.858 230.258 150.687 229.395 150.687 228.523V199.523C150.687 198.651 150.858 197.788 151.192 196.982C151.525 196.177 152.014 195.445 152.63 194.828C153.246 194.211 153.978 193.722 154.784 193.388C155.589 193.054 156.452 192.882 157.324 192.882H195.672C196.544 192.882 197.408 193.054 198.214 193.387C199.019 193.721 199.751 194.21 200.368 194.827C200.985 195.444 201.474 196.176 201.808 196.982C202.141 197.787 202.313 198.651 202.313 199.523V228.523C202.313 229.395 202.141 230.259 201.808 231.065C201.474 231.87 200.985 232.603 200.368 233.219C199.751 233.836 199.019 234.325 198.214 234.659C197.408 234.993 196.544 235.164 195.672 235.164Z" fill="#9CCCE6"/>
<path d="M274.914 235.164H236.566C235.694 235.164 234.831 234.992 234.026 234.658C233.22 234.324 232.489 233.835 231.872 233.218C231.256 232.601 230.767 231.869 230.434 231.064C230.1 230.258 229.929 229.395 229.929 228.523V199.523C229.929 198.651 230.1 197.788 230.434 196.982C230.767 196.177 231.256 195.445 231.872 194.828C232.489 194.211 233.22 193.722 234.026 193.388C234.831 193.054 235.694 192.882 236.566 192.882H274.914C275.786 192.882 276.65 193.054 277.456 193.387C278.262 193.721 278.994 194.21 279.61 194.827C280.227 195.444 280.716 196.176 281.05 196.982C281.384 197.787 281.555 198.651 281.555 199.523V228.523C281.555 229.395 281.384 230.259 281.05 231.065C280.716 231.87 280.227 232.603 279.61 233.219C278.994 233.836 278.262 234.325 277.456 234.659C276.65 234.993 275.786 235.164 274.914 235.164Z" fill="#AAD7EF"/>
<path d="M354.156 235.164H315.813C314.941 235.164 314.077 234.993 313.271 234.659C312.466 234.325 311.733 233.836 311.117 233.219C310.5 232.603 310.011 231.87 309.677 231.065C309.343 230.259 309.172 229.395 309.172 228.523V199.523C309.172 198.651 309.343 197.787 309.677 196.982C310.011 196.176 310.5 195.444 311.117 194.827C311.733 194.21 312.466 193.721 313.271 193.387C314.077 193.054 314.941 192.882 315.813 192.882H354.157C355.029 192.882 355.893 193.054 356.698 193.387C357.504 193.721 358.236 194.21 358.853 194.827C359.47 195.444 359.959 196.176 360.293 196.982C360.626 197.787 360.798 198.651 360.798 199.523V228.523C360.798 229.395 360.626 230.259 360.293 231.065C359.959 231.871 359.47 232.603 358.853 233.22C358.236 233.836 357.504 234.325 356.698 234.659C355.892 234.993 355.028 235.164 354.156 235.164Z" fill="#AAD7EF"/>
<path d="M195.672 314.07H157.324C156.452 314.07 155.589 313.898 154.784 313.564C153.978 313.23 153.246 312.741 152.63 312.124C152.014 311.507 151.525 310.775 151.192 309.97C150.858 309.164 150.687 308.301 150.687 307.429V278.429C150.687 277.557 150.858 276.694 151.192 275.888C151.525 275.083 152.014 274.351 152.63 273.734C153.246 273.117 153.978 272.628 154.784 272.294C155.589 271.96 156.452 271.788 157.324 271.788H195.672C196.544 271.788 197.408 271.96 198.214 272.293C199.019 272.627 199.751 273.116 200.368 273.733C200.985 274.35 201.474 275.082 201.808 275.888C202.141 276.693 202.313 277.557 202.313 278.429V307.429C202.313 308.301 202.141 309.165 201.808 309.971C201.474 310.776 200.985 311.509 200.368 312.125C199.751 312.742 199.019 313.231 198.214 313.565C197.408 313.899 196.544 314.07 195.672 314.07Z" fill="#9CCCE6"/>
<path d="M274.914 314.07H236.566C235.694 314.07 234.831 313.898 234.026 313.564C233.22 313.23 232.489 312.741 231.872 312.124C231.256 311.507 230.767 310.775 230.434 309.97C230.1 309.164 229.929 308.301 229.929 307.429V278.429C229.929 277.557 230.1 276.694 230.434 275.888C230.767 275.083 231.256 274.351 231.872 273.734C232.489 273.117 233.22 272.628 234.026 272.294C234.831 271.96 235.694 271.788 236.566 271.788H274.914C275.786 271.788 276.65 271.96 277.456 272.293C278.262 272.627 278.994 273.116 279.61 273.733C280.227 274.35 280.716 275.082 281.05 275.888C281.384 276.693 281.555 277.557 281.555 278.429V307.429C281.555 308.301 281.384 309.165 281.05 309.971C280.716 310.776 280.227 311.509 279.61 312.125C278.994 312.742 278.262 313.231 277.456 313.565C276.65 313.899 275.786 314.07 274.914 314.07Z" fill="#AAD7EF"/>
<path d="M354.156 314.07H315.813C314.941 314.07 314.077 313.899 313.271 313.565C312.466 313.231 311.733 312.742 311.117 312.125C310.5 311.509 310.011 310.776 309.677 309.971C309.343 309.165 309.172 308.301 309.172 307.429V278.429C309.172 277.557 309.343 276.693 309.677 275.888C310.011 275.082 310.5 274.35 311.117 273.733C311.733 273.116 312.466 272.627 313.271 272.293C314.077 271.96 314.941 271.788 315.813 271.788H354.157C355.029 271.788 355.893 271.96 356.698 272.293C357.504 272.627 358.236 273.116 358.853 273.733C359.47 274.35 359.959 275.082 360.293 275.888C360.626 276.693 360.798 277.557 360.798 278.429V307.429C360.798 308.301 360.626 309.165 360.293 309.971C359.959 310.777 359.47 311.509 358.853 312.126C358.236 312.742 357.504 313.231 356.698 313.565C355.892 313.899 355.028 314.07 354.156 314.07Z" fill="#AAD7EF"/>
<path d="M195.672 392.977H157.324C156.452 392.977 155.589 392.805 154.784 392.471C153.978 392.137 153.246 391.648 152.63 391.031C152.014 390.414 151.525 389.682 151.192 388.877C150.858 388.071 150.687 387.208 150.687 386.336V357.336C150.687 356.464 150.858 355.601 151.192 354.795C151.525 353.99 152.014 353.258 152.63 352.641C153.246 352.024 153.978 351.535 154.784 351.201C155.589 350.867 156.452 350.695 157.324 350.695H195.672C196.544 350.695 197.408 350.867 198.214 351.2C199.019 351.534 199.751 352.023 200.368 352.64C200.985 353.257 201.474 353.989 201.808 354.794C202.141 355.6 202.313 356.464 202.313 357.336V386.336C202.313 387.208 202.141 388.072 201.808 388.878C201.474 389.683 200.985 390.416 200.368 391.032C199.751 391.649 199.019 392.138 198.214 392.472C197.408 392.805 196.544 392.977 195.672 392.977Z" fill="#9CCCE6"/>
<path d="M274.914 392.977H236.566C235.694 392.977 234.831 392.805 234.026 392.471C233.22 392.137 232.489 391.648 231.872 391.031C231.256 390.414 230.767 389.682 230.434 388.877C230.1 388.071 229.929 387.208 229.929 386.336V357.336C229.929 356.464 230.1 355.601 230.434 354.795C230.767 353.99 231.256 353.258 231.872 352.641C232.489 352.024 233.22 351.535 234.026 351.201C234.831 350.867 235.694 350.695 236.566 350.695H274.914C275.786 350.695 276.65 350.867 277.456 351.2C278.262 351.534 278.994 352.023 279.61 352.64C280.227 353.257 280.716 353.989 281.05 354.794C281.384 355.6 281.555 356.464 281.555 357.336V386.336C281.555 387.208 281.384 388.072 281.05 388.878C280.716 389.683 280.227 390.416 279.61 391.032C278.994 391.649 278.262 392.138 277.456 392.472C276.65 392.805 275.786 392.977 274.914 392.977Z" fill="#AAD7EF"/>
<path d="M236.566 392.977H254.629C248.199 379.214 242.55 365.099 237.711 350.7H236.566C235.694 350.7 234.831 350.872 234.026 351.206C233.22 351.54 232.489 352.029 231.872 352.646C231.256 353.263 230.767 353.995 230.434 354.8C230.1 355.606 229.929 356.469 229.929 357.341V386.341C229.93 388.101 230.63 389.788 231.874 391.033C233.119 392.277 234.806 392.976 236.566 392.977Z" fill="#9CCCE6"/>
<path d="M354.156 392.977H315.813C314.941 392.977 314.077 392.805 313.271 392.472C312.466 392.138 311.733 391.649 311.117 391.032C310.5 390.416 310.011 389.683 309.677 388.878C309.343 388.072 309.172 387.208 309.172 386.336V357.336C309.172 356.464 309.343 355.6 309.677 354.794C310.011 353.989 310.5 353.257 311.117 352.64C311.733 352.023 312.466 351.534 313.271 351.2C314.077 350.867 314.941 350.695 315.813 350.695H354.157C355.029 350.695 355.893 350.867 356.698 351.2C357.504 351.534 358.236 352.023 358.853 352.64C359.47 353.257 359.959 353.989 360.293 354.794C360.626 355.6 360.798 356.464 360.798 357.336V386.336C360.798 387.208 360.626 388.072 360.293 388.878C359.959 389.684 359.47 390.416 358.853 391.033C358.236 391.649 357.504 392.138 356.698 392.472C355.892 392.806 355.028 392.977 354.156 392.977Z" fill="#AAD7EF"/>
<path d="M309.172 512H202.313V450.789C202.313 449.325 202.602 447.875 203.162 446.522C203.723 445.17 204.545 443.941 205.58 442.905C206.616 441.87 207.845 441.049 209.198 440.489C210.551 439.929 212.001 439.641 213.465 439.641H298.02C299.484 439.641 300.934 439.929 302.287 440.489C303.64 441.049 304.869 441.87 305.905 442.905C306.94 443.941 307.762 445.17 308.322 446.522C308.883 447.875 309.172 449.325 309.172 450.789V512Z" fill="#AAD7EF"/>
<path d="M309.172 471.672C299.051 461.855 289.849 451.134 281.68 439.641H213.465C212.001 439.641 210.551 439.929 209.198 440.489C207.845 441.049 206.616 441.87 205.58 442.905C204.545 443.941 203.723 445.17 203.162 446.522C202.602 447.875 202.313 449.325 202.313 450.789V512H309.172V471.672Z" fill="#9CCCE6"/>
<path d="M248.242 439.641H263.242V512H248.242V439.641Z" fill="#AAD7EF"/>
<path d="M333.176 96.668H178.309C176.528 96.6678 174.765 97.0185 173.12 97.6998C171.475 98.3812 169.98 99.3799 168.721 100.639C167.462 101.898 166.463 103.393 165.782 105.038C165.1 106.683 164.75 108.446 164.75 110.227V153.927H346.734V110.227C346.734 108.446 346.384 106.683 345.702 105.038C345.021 103.393 344.022 101.898 342.763 100.639C341.504 99.3803 340.01 98.3815 338.365 97.7001C336.72 97.0187 334.957 96.668 333.176 96.668Z" fill="#495059"/>
<path d="M242.7 96.668H178.309C176.528 96.668 174.766 97.0187 173.121 97.7002C171.476 98.3816 169.981 99.3804 168.723 100.64C167.464 101.899 166.466 103.393 165.785 105.038C165.104 106.683 164.753 108.447 164.754 110.227V153.927H265.371C248.395 137.246 246.453 119.969 242.7 96.668Z" fill="#41464F"/>
<path d="M217.91 96.668H232.91V153.93H217.91V96.668Z" fill="#495059"/>
<path d="M278.57 96.668H293.57V153.93H278.57V96.668Z" fill="#41464F"/>
<path d="M238.9 55.074H211.477C209.784 55.0741 208.107 55.4078 206.543 56.0559C204.979 56.704 203.558 57.6539 202.361 58.8514C201.163 60.0488 200.214 61.4703 199.566 63.0347C198.919 64.5991 198.586 66.2758 198.586 67.969V96.669H253.086C241.207 87.426 239.223 67.621 238.9 55.074Z" fill="#D15463"/>
</svg>
