<svg width="512" height="512" viewBox="0 0 512 512" fill="none" xmlns="http://www.w3.org/2000/svg">
<path d="M250.69 88.39V7.5L305.372 39.16C306.912 40.0516 308.191 41.3326 309.08 42.8744C309.969 44.4162 310.437 46.1647 310.437 47.9445C310.437 49.7243 309.969 51.4728 309.08 53.0146C308.191 54.5564 306.912 55.8374 305.372 56.729L250.69 88.39Z" fill="#FFE985"/>
<path d="M281.143 25.132L250.69 7.5V88.39L281.143 70.759V25.132Z" fill="#FFB757"/>
<path d="M357.275 88.39V7.5L411.957 39.16C413.497 40.0516 414.776 41.3326 415.665 42.8744C416.554 44.4162 417.022 46.1647 417.022 47.9445C417.022 49.7243 416.554 51.4728 415.665 53.0146C414.776 54.5564 413.497 55.8374 411.957 56.729L357.275 88.39Z" fill="#99DE7C"/>
<path d="M387.727 25.132L357.275 7.5V88.39L387.727 70.759V25.132Z" fill="#5ED682"/>
<path d="M144.106 88.39V7.5L198.79 39.16C200.33 40.0516 201.609 41.3326 202.498 42.8744C203.387 44.4162 203.855 46.1647 203.855 47.9445C203.855 49.7243 203.387 51.4728 202.498 53.0146C201.609 54.5564 200.33 55.8374 198.79 56.729L144.106 88.39Z" fill="#FF92B8"/>
<path d="M174.558 25.132L144.106 7.5V88.39L174.558 70.759V25.132Z" fill="#FF6477"/>
<path d="M250.69 126.343C249.705 126.343 248.73 126.149 247.82 125.772C246.91 125.395 246.083 124.843 245.387 124.146C244.69 123.45 244.138 122.623 243.761 121.713C243.384 120.803 243.19 119.828 243.19 118.843V7.5C243.19 5.51088 243.98 3.60322 245.387 2.1967C246.793 0.790176 248.701 0 250.69 0C252.679 0 254.587 0.790176 255.993 2.1967C257.4 3.60322 258.19 5.51088 258.19 7.5V118.843C258.19 119.828 257.996 120.803 257.619 121.713C257.242 122.623 256.69 123.45 255.993 124.146C255.297 124.843 254.47 125.395 253.56 125.772C252.65 126.149 251.675 126.343 250.69 126.343Z" fill="#0F273D"/>
<path d="M357.274 126.343C356.289 126.343 355.314 126.149 354.404 125.772C353.494 125.395 352.667 124.843 351.971 124.146C351.274 123.45 350.722 122.623 350.345 121.713C349.968 120.803 349.774 119.828 349.774 118.843V7.5C349.774 5.51088 350.564 3.60322 351.971 2.1967C353.377 0.790176 355.285 0 357.274 0C359.263 0 361.171 0.790176 362.577 2.1967C363.984 3.60322 364.774 5.51088 364.774 7.5V118.843C364.774 119.828 364.58 120.803 364.203 121.713C363.826 122.623 363.274 123.45 362.577 124.146C361.881 124.843 361.054 125.395 360.144 125.772C359.234 126.149 358.259 126.343 357.274 126.343Z" fill="#0F273D"/>
<path d="M144.106 126.343C143.121 126.343 142.146 126.149 141.236 125.772C140.326 125.395 139.499 124.843 138.803 124.146C138.106 123.45 137.554 122.623 137.177 121.713C136.8 120.803 136.606 119.828 136.606 118.843V7.5C136.606 5.51088 137.396 3.60322 138.803 2.1967C140.209 0.790176 142.117 0 144.106 0C146.095 0 148.003 0.790176 149.409 2.1967C150.816 3.60322 151.606 5.51088 151.606 7.5V118.843C151.606 119.828 151.412 120.803 151.035 121.713C150.658 122.623 150.106 123.45 149.409 124.146C148.713 124.843 147.886 125.395 146.976 125.772C146.066 126.149 145.091 126.343 144.106 126.343Z" fill="#0F273D"/>
<path d="M418.18 244.714H83.1998C80.5076 244.714 77.9257 243.645 76.022 241.741C74.1183 239.837 73.0488 237.255 73.0488 234.563V128.994C73.0488 126.302 74.1183 123.72 76.022 121.816C77.9257 119.912 80.5076 118.843 83.1998 118.843H418.18C420.872 118.843 423.454 119.912 425.358 121.816C427.261 123.72 428.331 126.302 428.331 128.994V234.563C428.331 237.255 427.261 239.837 425.358 241.741C423.454 243.645 420.872 244.714 418.18 244.714Z" fill="#3A5264"/>
<path d="M113.653 234.563V128.994C113.653 126.302 114.722 123.72 116.626 121.816C118.53 119.912 121.112 118.843 123.804 118.843H83.1998C80.5076 118.843 77.9257 119.912 76.022 121.816C74.1183 123.72 73.0488 126.302 73.0488 128.994V234.563C73.0488 237.255 74.1183 239.837 76.022 241.741C77.9257 243.645 80.5076 244.714 83.1998 244.714H123.8C121.108 244.713 118.527 243.643 116.625 241.739C114.722 239.836 113.653 237.255 113.653 234.563Z" fill="#283C51"/>
<path d="M10.1539 169.407H491.226C492.681 169.407 494.119 169.72 495.442 170.324C496.766 170.928 497.944 171.81 498.897 172.91C499.849 174.009 500.555 175.3 500.965 176.696C501.375 178.092 501.481 179.56 501.274 181L453.708 512H47.6719L0.105874 181C-0.100802 179.56 0.00451156 178.092 0.414677 176.696C0.824842 175.3 1.53027 174.009 2.48317 172.91C3.43607 171.81 4.61416 170.928 5.93762 170.324C7.26108 169.72 8.69898 169.407 10.1539 169.407Z" fill="#D1D3D3"/>
<path d="M71.0589 169.407H10.1539C8.69898 169.407 7.26108 169.72 5.93762 170.324C4.61416 170.928 3.43607 171.81 2.48317 172.91C1.53027 174.009 0.824842 175.3 0.414677 176.696C0.00451156 178.092 -0.100802 179.56 0.105874 181L47.6719 512H108.572L61.0119 181C60.805 179.56 60.9102 178.092 61.3203 176.696C61.7303 175.3 62.4356 174.009 63.3884 172.91C64.3413 171.81 65.5193 170.928 66.8427 170.324C68.1661 169.72 69.604 169.407 71.0589 169.407Z" fill="#BCBEBE"/>
<path d="M296.369 382.328H205.011V512H296.369V382.328Z" fill="#78DCE3"/>
<path d="M235.464 382.328H205.011V512H235.464V382.328Z" fill="#4EB3DA"/>
<path d="M170.244 382.328H78.8857V512H170.244V382.328Z" fill="#78DCE3"/>
<path d="M109.339 382.328H78.8857V512H109.339V382.328Z" fill="#4EB3DA"/>
<path d="M422.494 382.328H331.136V512H422.494V382.328Z" fill="#78DCE3"/>
<path d="M361.589 382.328H331.136V512H361.589V382.328Z" fill="#4EB3DA"/>
<path d="M437.72 402.63V362.03C437.72 360.684 437.185 359.393 436.233 358.442C435.281 357.49 433.991 356.955 432.645 356.955H68.7347C68.0682 356.955 67.4083 357.086 66.7925 357.341C66.1768 357.596 65.6174 357.97 65.1461 358.442C64.6748 358.913 64.301 359.472 64.046 360.088C63.7909 360.704 63.6597 361.364 63.6597 362.03V402.63C63.6597 403.976 64.1944 405.267 65.1461 406.219C66.0979 407.17 67.3887 407.705 68.7347 407.705H432.645C433.311 407.705 433.971 407.574 434.587 407.319C435.203 407.064 435.762 406.69 436.234 406.219C436.705 405.748 437.079 405.188 437.334 404.572C437.589 403.957 437.72 403.297 437.72 402.63Z" fill="white"/>
<path d="M104.263 402.63V362.03C104.263 360.684 104.798 359.393 105.75 358.442C106.701 357.49 107.992 356.955 109.338 356.955H68.7381C67.3921 356.955 66.1013 357.49 65.1495 358.442C64.1978 359.393 63.6631 360.684 63.6631 362.03V402.63C63.6631 403.976 64.1978 405.267 65.1495 406.219C66.1013 407.17 67.3921 407.705 68.7381 407.705H109.338C107.992 407.705 106.701 407.17 105.75 406.219C104.798 405.267 104.263 403.976 104.263 402.63Z" fill="#F4F4F4"/>
<path d="M7.11377 229.77L9.29977 244.981H492.08L494.256 229.84C493.898 229.786 493.536 229.757 493.174 229.755H7.41477C7.31277 229.755 7.21477 229.767 7.11377 229.77Z" fill="#BCBEBE"/>
<path d="M19.0669 312.943H482.314L484.49 297.8C484.132 297.746 483.77 297.717 483.408 297.714H17.1809C17.0809 297.714 16.9809 297.725 16.8809 297.729L19.0669 312.943Z" fill="#BCBEBE"/>
</svg>
