<svg width="512" height="512" viewBox="0 0 512 512" fill="none" xmlns="http://www.w3.org/2000/svg">
<path d="M157.766 164.475C164.678 164.477 171.329 161.841 176.363 157.105C181.396 152.368 184.432 145.889 184.849 138.99C185.267 132.091 183.035 125.293 178.61 119.984C174.185 114.675 167.899 111.256 161.038 110.424C159.179 100.368 154.003 91.2251 146.338 84.4557C138.673 77.6862 128.961 73.6806 118.752 73.0788C108.543 72.477 98.4274 75.3136 90.0201 81.1356C81.6127 86.9576 75.3989 95.4291 72.3711 105.197C64.6814 105.691 57.4855 109.157 52.306 114.862C47.1265 120.567 44.3697 128.064 44.6191 135.765C44.8684 143.467 48.1042 150.769 53.6419 156.127C59.1795 161.485 66.5845 164.479 74.2901 164.474H157.766V164.475Z" fill="#A3DEFE"/>
<path d="M464.839 244.551C473.285 244.551 481.413 241.328 487.564 235.539C493.714 229.75 497.423 221.832 497.934 213.401C498.444 204.97 495.718 196.662 490.311 190.173C484.903 183.684 477.224 179.504 468.839 178.485C466.566 166.193 460.24 155.018 450.871 146.744C441.502 138.469 429.63 133.573 417.152 132.838C404.674 132.102 392.309 135.57 382.033 142.686C371.757 149.803 364.162 160.158 360.461 172.097C351.066 172.706 342.276 176.945 335.95 183.918C329.624 190.89 326.257 200.05 326.561 209.46C326.866 218.869 330.818 227.792 337.582 234.341C344.346 240.889 353.392 244.551 362.807 244.551H464.839Z" fill="#A3DEFE"/>
<path d="M163.261 212.231C160.76 212.219 158.297 212.852 156.111 214.067C153.925 215.283 152.088 217.04 150.778 219.171L14 439.275H348.738V212.231H163.261Z" fill="#EFD176"/>
<path d="M53.643 375.486L14 439.275H348.739V375.486H53.643Z" fill="#E9901B"/>
<path d="M498 439.275L361.226 219.175C359.906 217.053 358.068 215.303 355.883 214.089C353.699 212.875 351.242 212.238 348.743 212.238C346.244 212.238 343.787 212.875 341.602 214.089C339.418 215.303 337.579 217.053 336.26 219.175L199.485 439.275H498Z" fill="#F7EF87"/>
<path d="M199.481 439.275H498L458.361 375.486H239.12L199.481 439.275Z" fill="#EEA849"/>
<path d="M204.238 397.819H194.725C192.273 397.819 189.921 398.793 188.186 400.527C186.452 402.262 185.478 404.614 185.478 407.066V430.027C185.478 432.48 186.452 434.832 188.186 436.566C189.921 438.3 192.273 439.274 194.725 439.274H204.238C206.69 439.274 209.042 438.3 210.777 436.566C212.511 434.832 213.485 432.48 213.485 430.027V407.066C213.485 404.614 212.511 402.262 210.777 400.527C209.042 398.793 206.69 397.819 204.238 397.819Z" fill="#8EE2CF"/>
<path d="M18.761 397.819H9.247C6.79454 397.819 4.44253 398.793 2.70838 400.527C0.974235 402.262 0 404.614 0 407.066L0 430.027C0 432.48 0.974235 434.832 2.70838 436.566C4.44253 438.3 6.79454 439.274 9.247 439.274H18.76C21.2125 439.274 23.5645 438.3 25.2986 436.566C27.0328 434.832 28.007 432.48 28.007 430.027V407.066C28.0073 405.852 27.7683 404.649 27.3037 403.527C26.8392 402.405 26.1582 401.386 25.2996 400.527C24.4409 399.669 23.4216 398.987 22.2997 398.523C21.1778 398.058 19.9753 397.819 18.761 397.819Z" fill="#8EE2CF"/>
<path d="M502.753 397.819H493.24C490.788 397.819 488.436 398.793 486.702 400.527C484.967 402.262 483.993 404.614 483.993 407.066V430.027C483.993 432.48 484.967 434.832 486.702 436.566C488.436 438.3 490.788 439.274 493.24 439.274H502.753C505.206 439.274 507.558 438.3 509.292 436.566C511.026 434.832 512 432.48 512 430.027V407.066C512 404.614 511.026 402.262 509.292 400.527C507.558 398.793 505.206 397.819 502.753 397.819Z" fill="#8EE2CF"/>
<path d="M393.626 383.658L358.1 312.964C357.228 311.229 355.891 309.77 354.238 308.751C352.584 307.731 350.681 307.191 348.738 307.191C346.796 307.191 344.892 307.731 343.239 308.751C341.586 309.77 340.249 311.229 339.377 312.964L275.9 439.275H393.625C409.96 439.275 422.816 430.064 426.331 413.037C426.53 412.024 426.495 410.978 426.229 409.98C425.962 408.983 425.471 408.059 424.792 407.28C424.114 406.502 423.266 405.888 422.314 405.488C421.362 405.087 420.331 404.909 419.3 404.968C409.8 405.312 401.25 398.827 393.626 383.658Z" fill="#EFD176"/>
<path d="M348.738 307.192C346.793 307.178 344.883 307.712 343.228 308.733C341.572 309.754 340.238 311.22 339.377 312.964L275.9 439.275H348.737L348.738 307.192Z" fill="#4E5660"/>
<path d="M160.941 304.414H233.813C235.695 304.413 237.546 303.933 239.191 303.018C240.835 302.103 242.22 300.784 243.213 299.185L263.427 266.656C264.469 264.98 265.044 263.055 265.092 261.082C265.14 259.109 264.66 257.158 263.702 255.433C262.743 253.708 261.34 252.27 259.639 251.269C257.938 250.267 256.001 249.739 254.027 249.738H181.155C179.273 249.739 177.422 250.219 175.777 251.134C174.132 252.049 172.748 253.368 171.755 254.967L151.541 287.496C150.499 289.172 149.924 291.097 149.876 293.07C149.828 295.043 150.308 296.994 151.266 298.719C152.225 300.444 153.627 301.882 155.328 302.883C157.029 303.885 158.967 304.413 160.941 304.414Z" fill="#4E5660"/>
</svg>
