<svg width="512" height="512" viewBox="0 0 512 512" fill="none" xmlns="http://www.w3.org/2000/svg">
<path d="M71.524 391.403C59.3392 391.403 47.6534 386.563 39.0374 377.947C30.4214 369.331 25.581 357.645 25.581 345.46V158.121C25.581 132.747 46.15 71 71.524 71C96.898 71 117.467 132.747 117.467 158.121V345.46C117.467 357.645 112.627 369.331 104.011 377.947C95.3946 386.563 83.7088 391.403 71.524 391.403V391.403Z" fill="#EF7D92"/>
<path d="M163.515 391.403C151.33 391.403 139.644 386.563 131.028 377.947C122.412 369.331 117.572 357.645 117.572 345.46V158.121C117.572 132.747 138.141 71 163.515 71C188.889 71 209.6 132.747 209.6 158.121V345.46C209.567 357.659 204.697 369.348 196.057 377.961C187.418 386.574 175.714 391.408 163.515 391.403V391.403Z" fill="#7CE0CF"/>
<path d="M152.491 79.132C152.431 77.512 152.427 76.096 152.404 74.894C132.399 88.827 117.572 136.579 117.572 158.121V345.46C117.572 357.664 122.42 369.368 131.05 377.998C139.679 386.627 151.383 391.475 163.587 391.475C175.791 391.475 187.495 386.627 196.125 377.998C204.754 369.368 209.602 357.664 209.602 345.46V158.121C209.602 157.826 209.608 157.521 209.602 157.221C203.021 155.148 196.739 152.226 190.913 148.53C167.374 133.551 153.513 106.706 152.491 79.136V79.132Z" fill="#65D6C0"/>
<path d="M60.5 79.132C60.44 77.512 60.436 76.096 60.413 74.894C40.408 88.827 25.581 136.579 25.581 158.121V345.46C25.581 357.645 30.4214 369.331 39.0374 377.947C47.6534 386.563 59.3392 391.403 71.524 391.403C83.7088 391.403 95.3946 386.563 104.011 377.947C112.627 369.331 117.467 357.645 117.467 345.46V158.121C117.467 157.826 117.461 157.521 117.456 157.221C110.925 155.147 104.694 152.225 98.922 148.53C75.383 133.551 61.522 106.706 60.5 79.136V79.132Z" fill="#EB6773"/>
<path d="M255.729 391.403C243.525 391.411 231.815 386.579 223.168 377.966C214.521 369.354 209.642 357.664 209.6 345.46V158.121C209.6 132.747 230.353 71 255.726 71C281.099 71 301.92 132.747 301.92 158.121V345.46C301.863 357.67 296.97 369.361 288.313 377.971C279.656 386.582 267.939 391.412 255.729 391.403V391.403Z" fill="#F9EF90"/>
<path d="M244.705 79.132C244.645 77.512 244.641 76.096 244.618 74.894C224.613 88.827 209.6 136.579 209.6 158.121V345.46C209.68 357.65 214.579 369.313 223.227 377.904C231.875 386.495 243.57 391.317 255.76 391.317C267.95 391.317 279.645 386.495 288.293 377.904C296.941 369.313 301.84 357.65 301.92 345.46V158.121C301.92 157.826 301.926 157.521 301.92 157.221C295.304 155.149 288.985 152.227 283.12 148.53C259.581 133.551 245.72 106.706 244.699 79.136L244.705 79.132Z" fill="#F4D37F"/>
<path d="M348.183 391.403C322.809 391.403 301.923 370.834 301.923 345.46V158.121C301.923 132.747 322.809 71 348.183 71C373.557 71 394.215 132.747 394.215 158.121V345.46C394.195 357.654 389.336 369.342 380.705 377.956C372.074 386.57 360.377 391.406 348.183 391.403V391.403Z" fill="#B3E6FD"/>
<path d="M337.159 79.132C337.099 77.512 337.095 76.096 337.072 74.894C317.067 88.827 301.923 136.579 301.923 158.121V345.46C301.923 370.834 322.809 391.403 348.183 391.403C360.377 391.407 372.074 386.57 380.705 377.956C389.336 369.342 394.195 357.654 394.215 345.46V158.121C394.215 157.826 394.221 157.521 394.215 157.221C387.652 155.147 381.388 152.226 375.581 148.53C352.042 133.551 338.181 106.706 337.159 79.136V79.132Z" fill="#7DD5FB"/>
<path d="M440.069 391.403C434.04 391.401 428.071 390.211 422.503 387.901C416.935 385.59 411.876 382.204 407.618 377.937C403.359 373.67 399.983 368.606 397.683 363.033C395.384 357.46 394.205 351.489 394.215 345.46V158.121C394.215 132.747 414.695 71 440.069 71C465.443 71 486.254 132.747 486.254 158.121V345.46C486.199 357.67 481.308 369.361 472.652 377.972C463.995 386.583 452.279 391.412 440.069 391.403V391.403Z" fill="#F7AD55"/>
<path d="M429.452 79.132C429.392 77.512 429.388 76.096 429.365 74.894C409.36 88.827 394.215 136.579 394.215 158.121V345.46C394.215 370.834 415.102 391.403 440.476 391.403C446.501 391.4 452.466 390.209 458.029 387.897C463.593 385.585 468.645 382.198 472.898 377.93C477.15 373.662 480.519 368.598 482.811 363.026C485.103 357.454 486.273 351.485 486.254 345.46V158.121C486.254 157.826 486.26 157.521 486.254 157.221C479.772 155.146 473.591 152.223 467.874 148.53C444.335 133.551 430.474 106.706 429.452 79.136V79.132Z" fill="#F49634"/>
<path d="M511 278.652V399.075C511.001 404.606 509.912 410.083 507.796 415.193C505.679 420.303 502.577 424.947 498.667 428.858C494.756 432.769 490.113 435.872 485.003 437.989C479.893 440.105 474.416 441.195 468.885 441.195H42.115C36.5839 441.195 31.107 440.106 25.997 437.989C20.887 435.872 16.244 432.77 12.3331 428.858C8.42231 424.947 5.32025 420.304 3.20411 415.193C1.08798 410.083 -0.000787589 404.606 4.27452e-07 399.075V277.318L511 278.652Z" fill="#E7BB9F"/>
<path d="M92.133 277.559L0 277.318V399.075C0 410.245 4.4371 420.957 12.3352 428.855C20.2333 436.753 30.9454 441.19 42.115 441.19H133.015C110.547 388.962 97.332 333.735 92.133 277.559Z" fill="#E1B191"/>
<path d="M0 286.454V220.684C0 209.447 4.46376 198.671 12.4093 190.725C20.3548 182.78 31.1313 178.316 42.368 178.316H468.632C479.869 178.316 490.645 182.78 498.591 190.725C506.536 198.671 511 209.447 511 220.684V286.454L472.013 296.395C330.615 332.459 182.444 332.604 40.976 296.817L0 286.454Z" fill="#FEF2D3"/>
<path d="M90.98 178.316H42.368C31.1313 178.316 20.3548 182.78 12.4093 190.725C4.46376 198.671 0 209.447 0 220.684L0 286.454L40.976 296.82C59.176 301.424 77.478 305.43 95.882 308.837C89.6234 265.627 87.9808 221.874 90.982 178.316H90.98Z" fill="#FEE2C1"/>
<path d="M68.406 179.929C70.381 201.971 72.206 265.561 50.129 323.891C49.27 326.146 49.1195 328.609 49.6977 330.951C50.276 333.293 51.5553 335.404 53.3648 337C55.1743 338.595 57.4278 339.601 59.8241 339.882C62.2204 340.163 64.6454 339.706 66.775 338.572L89.475 326.472L98.099 352.128C98.8727 354.434 100.337 356.446 102.293 357.891C104.25 359.336 106.603 360.144 109.035 360.206C111.466 360.268 113.857 359.581 115.885 358.237C117.912 356.893 119.477 354.958 120.367 352.695C133.939 318.136 153.087 247.245 148.705 178.468C148.545 176.116 147.496 173.912 145.772 172.304C144.047 170.697 141.776 169.805 139.418 169.81H77.679C76.3883 169.809 75.1114 170.076 73.9297 170.595C72.7479 171.115 71.6872 171.874 70.815 172.825C69.9428 173.777 69.2781 174.899 68.8634 176.122C68.4486 177.344 68.2929 178.639 68.406 179.925V179.929Z" fill="white"/>
<path d="M95.215 310.046C93.9665 310.044 92.738 309.732 91.6399 309.138C90.5418 308.544 89.6084 307.687 88.9236 306.643C88.2388 305.599 87.8241 304.402 87.7166 303.158C87.6092 301.914 87.8124 300.663 88.308 299.517C92.848 289.039 98.408 251.84 97.884 228.154C97.8619 227.165 98.0347 226.182 98.3927 225.259C98.7507 224.337 99.2868 223.495 99.9705 222.78C100.654 222.065 101.472 221.492 102.377 221.093C103.282 220.694 104.257 220.477 105.246 220.455C106.235 220.433 107.218 220.606 108.141 220.964C109.063 221.322 109.905 221.858 110.62 222.541C111.335 223.225 111.908 224.043 112.307 224.948C112.706 225.853 112.923 226.828 112.945 227.817C113.489 252.187 107.93 292.117 102.131 305.505C101.547 306.854 100.581 308.003 99.352 308.81C98.1231 309.617 96.6851 310.046 95.215 310.046V310.046Z" fill="#F9DEE4"/>
</svg>
