<svg width="557" height="512" viewBox="0 0 557 512" fill="none" xmlns="http://www.w3.org/2000/svg">
<path d="M145.994 469.409L351.005 496.367C366.291 498.377 381.75 494.232 393.981 484.844C406.212 475.456 414.212 461.594 416.223 446.308L460.871 106.772C461.866 99.2021 461.361 91.5107 459.384 84.1366C457.406 76.7625 453.996 69.85 449.347 63.794C444.698 57.7379 438.902 52.6568 432.29 48.8407C425.677 45.0247 418.378 42.5485 410.808 41.5535L205.797 14.5962C190.51 12.5865 175.051 16.7316 162.82 26.1198C150.589 35.508 142.589 49.3703 140.579 64.6571L95.9323 404.188C94.9367 411.757 95.4419 419.449 97.419 426.823C99.3961 434.198 102.806 441.11 107.455 447.167C112.104 453.223 117.9 458.305 124.512 462.121C131.125 465.937 138.425 468.414 145.994 469.409V469.409Z" fill="#6BCC98"/>
<g style="mix-blend-mode:color-burn">
<g style="mix-blend-mode:color-burn">
<path d="M176.309 238.85L205.798 14.596C190.511 12.5862 175.052 16.7314 162.821 26.1196C150.59 35.5078 142.59 49.3701 140.58 64.6569L95.9323 404.188C94.9366 411.757 95.4418 419.449 97.4188 426.823C99.3958 434.198 102.806 441.111 107.455 447.167C112.104 453.223 117.9 458.305 124.512 462.121C131.125 465.938 138.425 468.414 145.994 469.409L351.005 496.368C366.292 498.378 381.751 494.233 393.981 484.845C406.212 475.457 414.213 461.595 416.223 446.309L326.491 434.51C280.63 428.479 239.044 404.477 210.881 367.784C182.717 331.092 170.283 284.714 176.313 238.854L176.309 238.85Z" fill="#6BCC98"/>
</g>
</g>
<path d="M220.797 209.455C219 209.138 217.404 208.119 216.358 206.625C215.312 205.13 214.902 203.281 215.219 201.485L217.79 186.931C218.127 185.153 219.15 183.579 220.64 182.55C222.129 181.521 223.963 181.121 225.746 181.436C227.528 181.751 229.115 182.755 230.161 184.232C231.208 185.709 231.63 187.538 231.337 189.324L228.766 203.878C228.449 205.674 227.431 207.271 225.936 208.316C224.442 209.362 222.593 209.772 220.797 209.455V209.455Z" fill="#3A3C4C"/>
<path d="M381.619 237.864C379.822 237.547 378.225 236.529 377.18 235.034C376.134 233.539 375.724 231.69 376.041 229.894L378.612 215.34C378.76 214.442 379.084 213.582 379.566 212.81C380.049 212.038 380.68 211.37 381.422 210.843C382.165 210.317 383.005 209.943 383.893 209.744C384.781 209.544 385.7 209.523 386.597 209.681C387.493 209.84 388.349 210.175 389.115 210.666C389.881 211.158 390.542 211.797 391.06 212.546C391.577 213.295 391.941 214.139 392.129 215.029C392.318 215.92 392.328 216.839 392.159 217.734L389.588 232.287C389.27 234.083 388.253 235.68 386.758 236.726C385.264 237.771 383.415 238.181 381.619 237.864V237.864Z" fill="#3A3C4C"/>
<path d="M299.836 231.427C295.121 230.63 290.632 228.834 286.668 226.161C282.704 223.487 279.358 219.996 276.853 215.923C275.919 214.362 275.641 212.494 276.08 210.728C276.52 208.962 277.641 207.443 279.199 206.502C280.756 205.561 282.623 205.275 284.391 205.708C286.158 206.14 287.682 207.255 288.63 208.808C290.147 211.178 292.14 213.208 294.481 214.769C296.822 216.33 299.462 217.389 302.233 217.878C305.004 218.368 307.847 218.278 310.582 217.613C313.316 216.949 315.883 215.724 318.121 214.018C319.543 212.883 321.357 212.358 323.166 212.557C324.975 212.757 326.631 213.665 327.771 215.082C328.912 216.5 329.445 218.312 329.253 220.121C329.061 221.931 328.16 223.59 326.747 224.737C322.998 227.707 318.657 229.84 314.015 230.994C309.374 232.147 304.539 232.295 299.836 231.427V231.427Z" fill="#3A3C4C"/>
</svg>
