<svg width="512" height="512" viewBox="0 0 512 512" fill="none" xmlns="http://www.w3.org/2000/svg">
<path d="M472.265 349.029C465.758 326.218 462.458 302.612 462.458 278.891V180.039C462.549 150.179 452.946 121.096 435.092 97.1603C427.486 87.0349 419.031 77.5751 409.821 68.8833C405.67 65.0091 400.772 62.0222 395.427 60.1053C390.082 58.1883 384.402 57.3815 378.735 57.7343C378.249 53.11 376.65 48.6722 374.075 44.8003C371.5 40.9284 368.026 37.7375 363.95 35.5003C348.171 26.8416 331.401 20.1292 314.005 15.5103H198.739L46.023 366.463L287.157 440C353.015 433.951 415.558 408.342 466.746 366.466C469.269 364.418 471.136 361.675 472.117 358.576C473.098 355.478 473.15 352.16 472.265 349.032V349.029Z" fill="#D6948C"/>
<path d="M132.898 224.9C132.893 186.344 144.93 148.749 167.327 117.365C189.724 85.9813 221.364 62.3758 257.827 49.8452C271.087 45.2883 283.653 38.9171 295.165 30.9132C301.839 26.2817 308.138 21.1325 314.005 15.5132C307.311 13.7352 300.501 12.2595 293.574 11.0862C268.952 6.97518 243.819 6.97518 219.197 11.0862C162.601 20.5481 111.834 51.4729 77.465 97.4232C59.7307 121.307 50.2051 150.291 50.313 180.039V278.89C50.3128 302.612 47.0121 326.217 40.506 349.029C39.6216 352.157 39.6728 355.475 40.6535 358.573C41.6342 361.672 43.5013 364.415 46.024 366.464C113.614 421.715 200.239 448.132 287.158 440V406.859C199.626 392.246 132.898 316.624 132.898 224.898V224.9Z" fill="#CE857A"/>
<path d="M333.403 427.647C324.225 416.004 312.526 406.594 299.185 400.126C285.845 393.659 271.211 390.302 256.385 390.308L179.368 427.647L196.866 505H315.904L333.403 427.647Z" fill="#FF8E9E"/>
<path d="M256.385 390.308C241.563 390.323 226.936 393.689 213.599 400.155C200.262 406.621 188.56 416.02 179.368 427.647L157.622 505H196.866V489.937C196.866 441.849 230.924 401.489 275.99 392.28C269.538 390.965 262.969 390.305 256.384 390.308H256.385Z" fill="#EA5B70"/>
<path d="M179.211 427.843C165.203 445.506 157.593 467.393 157.622 489.936V505H196.865V470.818C196.862 454.729 190.519 439.289 179.211 427.843V427.843Z" fill="#FFBF9D"/>
<path d="M333.559 427.843C322.251 439.289 315.908 454.729 315.904 470.818V505H355.147V489.937C355.176 467.394 347.566 445.506 333.559 427.843V427.843Z" fill="#FFD4BD"/>
<path d="M441.167 180.039H71.603C65.7456 180.039 59.9457 181.192 54.5342 183.434C49.1227 185.675 44.2057 188.961 40.0639 193.102C35.9221 197.244 32.6367 202.161 30.3952 207.573C28.1537 212.984 27 218.784 27 224.642C27 230.499 28.1537 236.299 30.3952 241.71C32.6367 247.122 35.9221 252.039 40.0639 256.181C44.2057 260.322 49.1227 263.608 54.5342 265.849C59.9457 268.091 65.7456 269.245 71.603 269.245H441.167C452.996 269.245 464.341 264.545 472.706 256.181C481.071 247.816 485.77 236.471 485.77 224.642C485.77 212.812 481.071 201.467 472.706 193.102C464.341 184.738 452.996 180.039 441.167 180.039V180.039Z" fill="#FFBF9D"/>
<path d="M287.158 42.4243H225.613L71.603 224.641L225.613 406.858H287.158C374.558 392.204 441.167 316.207 441.167 224.641C441.167 133.075 374.561 57.0783 287.158 42.4243Z" fill="#FFD4BD"/>
<path d="M132.898 224.9C132.893 181.158 148.384 138.829 176.624 105.424C204.863 72.019 244.024 49.6988 287.157 42.4244C266.785 39.0044 245.984 39.0044 225.612 42.4244C138.212 57.0774 71.602 133.074 71.602 224.641C71.602 316.208 138.209 392.2 225.612 406.858C245.984 410.278 266.785 410.278 287.157 406.858C199.626 392.246 132.898 316.624 132.898 224.898V224.9Z" fill="#FFBF9D"/>
<path d="M155.711 314.644C176.121 314.644 192.667 301.522 192.667 285.334C192.667 269.147 176.121 256.024 155.711 256.024C135.301 256.024 118.755 269.147 118.755 285.334C118.755 301.522 135.301 314.644 155.711 314.644Z" fill="#FF8E9E"/>
<path d="M357.059 314.644C377.469 314.644 394.015 301.522 394.015 285.334C394.015 269.147 377.469 256.024 357.059 256.024C336.649 256.024 320.103 269.147 320.103 285.334C320.103 301.522 336.649 314.644 357.059 314.644Z" fill="#FF8E9E"/>
<path d="M295.166 30.9131H217.833L77.023 180.038L108.599 335.57V327.983C108.579 301.078 118.005 275.02 135.233 254.354C143.442 244.517 153.271 236.155 164.296 229.629C210.301 202.42 251.025 167.142 284.514 125.485C301.479 148.541 324.912 166.035 351.839 175.748C378.765 185.461 407.97 186.954 435.747 180.038L446.14 169.645C426.019 100.29 368.385 45.4441 295.166 30.9131Z" fill="#D6948C"/>
<path d="M108.598 335.57V327.983C108.578 301.078 118.004 275.02 135.232 254.354C128.331 211.288 136.843 167.168 159.268 129.76C181.694 92.3518 216.596 64.0528 257.832 49.8441C271.091 45.2852 283.656 38.9142 295.17 30.9121C246.627 21.2614 196.23 30.1546 153.922 55.8371C111.614 81.5197 80.4679 122.126 66.629 169.645L77.022 180.038C69.7954 209.334 69.7954 239.948 77.022 269.244V335.566L108.598 335.57Z" fill="#CE857A"/>
<path d="M176.803 234.345C174.814 234.345 172.906 235.135 171.5 236.542C170.093 237.948 169.303 239.856 169.303 241.845V257.137C169.303 259.126 170.093 261.034 171.5 262.441C172.906 263.847 174.814 264.637 176.803 264.637C178.792 264.637 180.7 263.847 182.106 262.441C183.513 261.034 184.303 259.126 184.303 257.137V241.845C184.303 239.856 183.513 237.948 182.106 236.542C180.7 235.135 178.792 234.345 176.803 234.345Z" fill="#313D40"/>
<path d="M335.967 234.345C333.978 234.345 332.07 235.135 330.664 236.542C329.257 237.948 328.467 239.856 328.467 241.845V257.137C328.467 259.126 329.257 261.034 330.664 262.441C332.07 263.847 333.978 264.637 335.967 264.637C337.956 264.637 339.864 263.847 341.27 262.441C342.677 261.034 343.467 259.126 343.467 257.137V241.845C343.467 239.856 342.677 237.948 341.27 236.542C339.864 235.135 337.956 234.345 335.967 234.345Z" fill="#313D40"/>
<path d="M282.294 251.028C281.551 250.381 280.689 249.887 279.755 249.573C278.821 249.259 277.835 249.133 276.852 249.2C275.87 249.268 274.91 249.528 274.028 249.967C273.146 250.405 272.359 251.013 271.712 251.755C269.806 253.949 267.451 255.707 264.807 256.912C262.163 258.117 259.291 258.741 256.385 258.741C253.479 258.741 250.607 258.117 247.963 256.912C245.319 255.707 242.964 253.949 241.058 251.755C239.751 250.256 237.902 249.337 235.918 249.2C233.933 249.064 231.976 249.722 230.476 251.028C228.976 252.335 228.057 254.184 227.921 256.169C227.785 258.153 228.442 260.111 229.749 261.61C233.063 265.419 237.156 268.473 241.751 270.566C246.346 272.658 251.336 273.741 256.385 273.741C261.434 273.741 266.424 272.658 271.019 270.566C275.614 268.473 279.707 265.419 283.021 261.61C283.668 260.868 284.163 260.005 284.476 259.072C284.79 258.138 284.917 257.152 284.849 256.169C284.782 255.186 284.521 254.227 284.083 253.345C283.644 252.463 283.037 251.676 282.294 251.028Z" fill="#313D40"/>
</svg>
