<svg width="512" height="512" viewBox="0 0 512 512" fill="none" xmlns="http://www.w3.org/2000/svg">
<g clip-path="url(#clip0_116_1251)">
<path d="M255.499 363.362C239.067 363.362 223.293 366.235 208.642 371.493C173.156 384.228 143.359 411.403 127.7 447.389C120.282 464.439 116.151 483.242 116.151 502.999H255.5V363.362C255.499 363.362 255.499 363.362 255.499 363.362Z" fill="#FFCBBE"/>
<path d="M383.3 447.388C368.229 412.754 339.211 384.715 302.341 371.488C287.636 366.211 271.808 363.363 255.501 363.362V503H394.85C394.849 483.243 390.719 464.438 383.3 447.388Z" fill="#FFDDCF"/>
<path d="M302.34 371.488C287.634 366.211 271.807 363.362 255.498 363.362C239.066 363.362 223.292 366.235 208.642 371.493C173.156 384.228 143.358 411.403 127.699 447.389C141.525 459.567 157.559 471.224 174.113 481.101V503H336.869V481.111C353.428 471.231 369.469 459.572 383.3 447.388C368.229 412.754 339.211 384.715 302.34 371.488Z" fill="#FF8F71"/>
<path d="M208.656 371.487C177.048 382.833 150.561 405.354 134.119 434.498C132.347 437.619 130.71 440.824 129.192 444.077C128.682 445.172 128.183 446.276 127.699 447.389C141.524 459.567 157.559 471.223 174.113 481.101V503H185.825C189.403 481.041 197.301 460.502 208.656 442.316V371.487Z" fill="#FF6F4D"/>
<path d="M319.503 455.652C323.545 455.652 326.821 452.368 326.821 448.318C326.821 444.267 323.545 440.984 319.503 440.984C315.46 440.984 312.184 444.267 312.184 448.318C312.184 452.368 315.46 455.652 319.503 455.652Z" fill="#FF6F4D"/>
<path d="M319.503 493.035C323.545 493.035 326.821 489.751 326.821 485.701C326.821 481.65 323.545 478.367 319.503 478.367C315.46 478.367 312.184 481.65 312.184 485.701C312.184 489.751 315.46 493.035 319.503 493.035Z" fill="#FF6F4D"/>
<path d="M255.499 363.362C239.383 363.362 223.579 366.13 208.657 371.487V503H302.371V371.499C287.441 366.139 271.619 363.362 255.499 363.362Z" fill="#B9F0FF"/>
<path d="M302.324 371.483C287.408 366.134 271.603 363.362 255.498 363.362C239.382 363.362 223.578 366.13 208.656 371.487V442.315C229.728 408.561 262.731 382.924 302.324 371.483Z" fill="#7CE3FF"/>
<path d="M255.538 346.27L208.656 371.487C216.883 393.106 233.371 410.26 255.538 422.138C277.705 410.261 294.142 393.116 302.37 371.499L255.538 346.27Z" fill="#FFCBBE"/>
<path d="M88.466 252.395C111.401 252.395 129.993 233.764 129.993 210.782C129.993 187.8 111.401 169.169 88.466 169.169C65.531 169.169 46.9385 187.8 46.9385 210.782C46.9385 233.764 65.531 252.395 88.466 252.395Z" fill="#FFCBBE"/>
<path d="M422.534 252.395C445.469 252.395 464.062 233.764 464.062 210.782C464.062 187.8 445.469 169.169 422.534 169.169C399.599 169.169 381.007 187.8 381.007 210.782C381.007 233.764 399.599 252.395 422.534 252.395Z" fill="#FFCBBE"/>
<path d="M302.325 371.482C371.782 351.193 422.534 286.93 422.534 210.781C422.534 118.339 347.75 43.4004 255.498 43.4004C163.249 43.4004 88.4648 118.339 88.4648 210.781C88.4648 286.929 139.218 351.193 208.673 371.482C223.531 375.822 239.241 378.159 255.498 378.159C271.756 378.16 287.467 375.822 302.325 371.482Z" fill="#FFDDCF"/>
<path d="M143.836 210.782C143.836 127.792 204.113 58.9221 283.184 45.7033C274.178 44.1974 264.932 43.4014 255.498 43.4014C163.25 43.4014 88.4648 118.34 88.4648 210.782C88.4648 303.221 163.25 378.16 255.498 378.16C264.931 378.16 274.177 377.364 283.184 375.858C204.113 362.638 143.836 293.769 143.836 210.782Z" fill="#FFCBBE"/>
<path d="M159.321 299.862C178.92 299.862 194.809 287.183 194.809 271.543C194.809 255.902 178.92 243.224 159.321 243.224C139.722 243.224 123.833 255.902 123.833 271.543C123.833 287.183 139.722 299.862 159.321 299.862Z" fill="#FFCBBE"/>
<path d="M351.679 299.862C371.279 299.862 387.167 287.183 387.167 271.543C387.167 255.902 371.279 243.224 351.679 243.224C332.08 243.224 316.191 255.902 316.191 271.543C316.191 287.183 332.08 299.862 351.679 299.862Z" fill="#FFCBBE"/>
<path d="M180.003 222.76C175.961 222.76 172.684 226.043 172.684 230.094V243.934C172.684 247.984 175.961 251.268 180.003 251.268C184.045 251.268 187.322 247.984 187.322 243.934V230.094C187.322 226.042 184.045 222.76 180.003 222.76Z" fill="#313D40"/>
<path d="M280.213 238.32C277.165 235.659 272.542 235.977 269.886 239.03C266.255 243.206 261.011 245.601 255.499 245.601C249.987 245.601 244.744 243.206 241.112 239.03C238.456 235.977 233.833 235.659 230.786 238.32C227.738 240.981 227.421 245.613 230.076 248.667C236.488 256.041 245.754 260.27 255.498 260.27C265.242 260.27 274.508 256.041 280.92 248.667C283.577 245.613 283.26 240.981 280.213 238.32Z" fill="#313D40"/>
<path d="M333.663 220.174C320.802 220.174 310.339 230.659 310.339 243.546C310.339 247.597 313.616 250.88 317.658 250.88C321.7 250.88 324.977 247.597 324.977 243.546C324.977 238.747 328.874 234.842 333.663 234.842C338.453 234.842 342.349 238.747 342.349 243.546C342.349 247.597 345.626 250.88 349.668 250.88C353.71 250.88 356.987 247.597 356.987 243.546C356.988 230.66 346.524 220.174 333.663 220.174Z" fill="#313D40"/>
<path d="M347.334 37.4119L297.794 22.1034C270.576 13.6928 241.209 15.7317 215.408 27.822L88.3975 87.3399C80.1184 91.2191 79.4987 102.78 87.3153 107.527L83.488 109.394C73.4084 114.309 75.6675 129.313 86.7464 131.029L90.7689 131.652L89.5686 133.19C83.8822 140.48 90.5132 150.88 99.5037 148.773L100.397 148.564C95.4617 160.907 91.9555 173.976 90.074 187.566H100.297H100.505C122.651 187.521 142.857 174.886 152.787 155.051L163.426 133.8L185.258 125.596C230.547 108.577 280.457 108.577 325.745 125.596L332.126 128.793C343.348 134.415 352.452 143.529 358.075 154.769C358.127 154.871 358.178 154.973 358.23 155.076C365.276 168.952 378.441 178.692 393.651 181.868L420.93 187.563L420.944 187.566C444.105 125.615 410.423 56.9067 347.334 37.4119Z" fill="#CE857A"/>
<path d="M223.266 65.3204C223.266 44.2395 236.011 25.2601 255.5 17.3208C241.726 18.3456 228.133 21.8591 215.408 27.8221L88.3975 87.34C80.1184 91.2192 79.4987 102.781 87.3153 107.527L83.488 109.394C73.4084 114.31 75.6675 129.313 86.7464 131.029L90.7689 131.652L89.5686 133.19C83.8822 140.48 90.5132 150.879 99.5037 148.774L100.397 148.564C95.4617 160.907 91.9555 173.976 90.074 187.566H100.297H100.505C122.651 187.521 142.857 174.886 152.787 155.051L163.426 133.8L185.258 125.596C207.551 117.219 230.963 112.975 254.393 112.845C235.532 104.645 223.266 85.9974 223.266 65.3204Z" fill="#C77464"/>
</g>
<defs>
<clipPath id="clip0_116_1251">
<rect width="485" height="486" fill="white" transform="translate(13 17)"/>
</clipPath>
</defs>
</svg>
