<svg width="512" height="512" viewBox="0 0 512 512" fill="none" xmlns="http://www.w3.org/2000/svg">
<path d="M459.012 253.109C483.332 238.609 483.332 203.386 459.012 188.882C477.66 167.573 466.778 134.082 439.164 127.8C450.312 101.773 429.613 73.277 401.414 75.839C403.973 47.639 375.48 26.939 349.449 38.085C343.172 10.476 309.676 -0.407 288.367 18.237C273.867 -6.079 238.644 -6.079 224.14 18.237C202.831 -0.411001 169.34 10.475 163.054 38.085C137.027 26.937 108.534 47.64 111.093 75.839C82.8932 73.277 62.1932 101.773 73.3432 127.8C45.7342 134.077 34.8432 167.573 53.4952 188.882C29.1752 203.382 29.1752 238.605 53.4952 253.109H459.012Z" fill="#3A484A"/>
<path d="M166.176 389.1C166.176 389.1 108.215 432.777 108.215 512H404.293C404.293 432.777 346.332 389.1 346.332 389.1H166.176Z" fill="#FD6F71"/>
<path d="M197.082 389.1H166.176C166.176 389.1 108.215 432.777 108.215 512H139.121C139.121 432.777 197.082 389.1 197.082 389.1Z" fill="#E34B4C"/>
<path d="M310.3 398.707C310.3 409.397 307.13 419.846 301.192 428.734C295.253 437.622 286.812 444.549 276.936 448.64C267.06 452.731 256.193 453.801 245.709 451.716C235.225 449.63 225.595 444.483 218.036 436.924C210.478 429.366 205.33 419.735 203.245 409.251C201.159 398.767 202.23 387.9 206.32 378.024C210.411 368.148 217.338 359.707 226.226 353.769C235.114 347.83 245.564 344.66 256.253 344.66C263.351 344.66 270.379 346.058 276.936 348.774C283.494 351.49 289.452 355.471 294.471 360.49C299.489 365.509 303.47 371.467 306.186 378.024C308.902 384.581 310.3 391.61 310.3 398.707V398.707Z" fill="#E3B098"/>
<path d="M30.0002 244.121C30.0002 255.517 34.5273 266.447 42.5855 274.505C50.6438 282.563 61.5731 287.09 72.9692 287.09C96.6992 287.09 95.3322 267.852 95.3322 244.121C95.3322 220.39 96.5472 201.156 72.8162 201.156C67.1817 201.159 61.6031 202.273 56.3999 204.435C51.1966 206.597 46.4711 209.764 42.4938 213.755C38.5165 217.746 35.3657 222.483 33.2219 227.694C31.078 232.904 29.9832 238.487 30.0002 244.121V244.121Z" fill="#E3B098"/>
<path d="M482.508 244.121C482.509 252.626 479.986 260.94 475.258 268.01C470.53 275.08 463.81 280.588 455.95 283.836C448.09 287.085 439.442 287.927 431.102 286.257C422.763 284.587 415.106 280.48 409.103 274.456C403.099 268.431 399.019 260.76 397.378 252.415C395.737 244.07 396.609 235.425 399.885 227.576C403.16 219.727 408.692 213.027 415.778 208.323C422.864 203.62 431.187 201.126 439.692 201.156C451.061 201.197 461.951 205.741 469.976 213.794C478.001 221.847 482.507 232.752 482.508 244.121Z" fill="#E3B098"/>
<path d="M440.547 219.762C440.507 203.66 437.39 187.714 431.363 172.782C415.281 132.782 370.789 69.8371 256.254 118.661C141.719 69.8361 97.2272 132.781 81.1412 172.781C75.1178 187.714 72.002 203.659 71.9612 219.761V219.952C71.9612 327.018 154.473 413.811 256.254 413.811C358.035 413.811 440.547 327.02 440.547 219.953V219.762Z" fill="#FBC4AC"/>
<path d="M102.867 219.953V219.762C102.908 203.66 106.024 187.715 112.047 172.782C122.926 145.727 146.809 108.188 196.559 101.821C125.344 93.7001 94.0662 140.641 81.1412 172.781C75.1178 187.714 72.002 203.659 71.9612 219.761V219.952C71.9612 327.018 154.473 413.811 256.254 413.811C261.461 413.811 266.609 413.573 271.707 413.127C177.156 404.867 102.867 321.543 102.867 219.953Z" fill="#E3B098"/>
<path d="M350.074 250.582C349.06 250.582 348.055 250.383 347.118 249.995C346.18 249.607 345.329 249.038 344.611 248.321C343.894 247.604 343.324 246.752 342.936 245.815C342.548 244.878 342.347 243.874 342.347 242.859V224.613C342.37 222.579 343.195 220.636 344.641 219.206C346.088 217.776 348.04 216.974 350.074 216.974C352.108 216.974 354.06 217.776 355.506 219.206C356.953 220.636 357.777 222.579 357.8 224.613V242.859C357.8 243.874 357.6 244.878 357.212 245.815C356.824 246.753 356.255 247.604 355.537 248.321C354.82 249.038 353.968 249.607 353.031 249.995C352.093 250.383 351.089 250.583 350.074 250.582Z" fill="#3A484A"/>
<path d="M362.5 277.4H337.652C335.618 277.377 333.675 276.552 332.245 275.106C330.815 273.659 330.013 271.707 330.013 269.673C330.013 267.639 330.815 265.687 332.245 264.241C333.675 262.794 335.618 261.97 337.652 261.947H362.5C364.534 261.97 366.477 262.794 367.907 264.241C369.337 265.687 370.139 267.639 370.139 269.673C370.139 271.707 369.337 273.659 367.907 275.106C366.477 276.552 364.534 277.377 362.5 277.4V277.4Z" fill="#F98084"/>
<path d="M162.434 250.582C161.42 250.583 160.415 250.383 159.477 249.995C158.54 249.608 157.688 249.039 156.971 248.322C156.253 247.604 155.684 246.753 155.295 245.816C154.907 244.878 154.707 243.874 154.707 242.859V224.613C154.73 222.579 155.555 220.636 157.001 219.206C158.447 217.776 160.4 216.974 162.434 216.974C164.468 216.974 166.42 217.776 167.866 219.206C169.313 220.636 170.137 222.579 170.16 224.613V242.859C170.16 244.908 169.345 246.872 167.896 248.321C166.448 249.769 164.483 250.582 162.434 250.582Z" fill="#3A484A"/>
<path d="M174.855 277.4H150.008C147.974 277.377 146.031 276.552 144.601 275.106C143.171 273.659 142.369 271.707 142.369 269.673C142.369 267.639 143.171 265.687 144.601 264.241C146.031 262.794 147.974 261.97 150.008 261.947H174.856C176.89 261.97 178.833 262.794 180.263 264.241C181.693 265.687 182.495 267.639 182.495 269.673C182.495 271.707 181.693 273.659 180.263 275.106C178.833 276.552 176.89 277.377 174.856 277.4H174.855Z" fill="#F98084"/>
<path d="M256.254 276.367C251.987 276.398 247.763 275.516 243.865 273.78C239.967 272.044 236.485 269.494 233.654 266.301C232.987 265.537 232.476 264.649 232.151 263.688C231.827 262.727 231.695 261.711 231.763 260.699C231.831 259.687 232.098 258.698 232.548 257.789C232.998 256.88 233.623 256.068 234.387 255.4C235.151 254.733 236.038 254.222 237 253.898C237.961 253.573 238.976 253.441 239.989 253.509C241.001 253.577 241.99 253.844 242.899 254.294C243.808 254.744 244.62 255.369 245.287 256.133C246.687 257.642 248.384 258.845 250.271 259.668C252.157 260.492 254.194 260.916 256.252 260.916C258.311 260.916 260.347 260.492 262.234 259.668C264.12 258.845 265.817 257.642 267.217 256.133C268.572 254.613 270.472 253.689 272.504 253.563C274.535 253.436 276.535 254.116 278.068 255.456C279.601 256.796 280.544 258.686 280.69 260.717C280.837 262.747 280.177 264.754 278.852 266.3C276.021 269.493 272.54 272.043 268.643 273.779C264.745 275.515 260.521 276.398 256.254 276.367V276.367Z" fill="#3A484A"/>
</svg>
