<svg width="512" height="512" viewBox="0 0 512 512" fill="none" xmlns="http://www.w3.org/2000/svg">
<path d="M250 477.449L196.535 367.094C261.887 340.66 315.473 367.094 315.473 367.094H431.078C444.035 378.137 484.543 417.453 484.543 477.449H250Z" fill="#FADC60"/>
<path d="M417.738 79.461C417.738 88.2551 415.131 96.8519 410.245 104.164C405.36 111.476 398.416 117.176 390.291 120.541C382.167 123.907 373.226 124.787 364.601 123.072C355.976 121.356 348.053 117.121 341.835 110.903C335.617 104.685 331.382 96.762 329.666 88.1368C327.951 79.5116 328.831 70.5715 332.197 62.4468C335.562 54.3222 341.262 47.378 348.574 42.4925C355.886 37.607 364.483 34.9996 373.277 35C385.069 35.0003 396.377 39.6846 404.715 48.0226C413.053 56.3606 417.738 67.6693 417.738 79.461V79.461Z" fill="#323E40"/>
<path d="M407.609 379.922C407.609 386.713 405.596 393.351 401.823 398.998C398.051 404.644 392.689 409.045 386.415 411.644C380.141 414.243 373.238 414.923 366.577 413.598C359.917 412.274 353.799 409.003 348.997 404.202C344.195 399.4 340.925 393.282 339.601 386.622C338.276 379.961 338.956 373.058 341.555 366.784C344.154 360.51 348.555 355.148 354.201 351.375C359.848 347.603 366.486 345.589 373.277 345.59C382.382 345.591 391.114 349.208 397.552 355.647C403.99 362.085 407.608 370.817 407.609 379.922V379.922Z" fill="#E3B098"/>
<path d="M437.793 355.832C437.793 355.832 413.238 384.262 437.793 401.632C449.531 409.932 460.117 406.546 467.969 400.749C480.547 391.46 485.442 374.683 478.669 360.593C475.314 353.613 469.069 347.116 457.7 344.206L437.793 355.832Z" fill="#E3B098"/>
<path d="M512 238.449C512 316.59 449.891 379.926 373.277 379.926C296.663 379.926 234.543 316.59 234.543 238.449L250 203.648L348.375 123.925H373.275L423.228 129.476L497.404 199.527L512 238.449Z" fill="#FBC4AC"/>
<path d="M512 238.449C512 238.449 479.551 206.39 436.93 187.849C394.309 169.308 373.278 141.841 373.278 141.841C373.278 141.841 352.25 169.3 309.621 187.848C266.992 206.396 234.551 238.448 234.551 238.448H234.543V238.44C234.551 160.299 296.652 96.9751 373.277 96.9751C449.902 96.9751 512 160.313 512 238.449Z" fill="#3A484A"/>
<path d="M447.223 267.277C446.208 267.277 445.203 267.077 444.266 266.689C443.328 266.301 442.477 265.731 441.759 265.014C441.041 264.296 440.472 263.445 440.084 262.507C439.696 261.569 439.496 260.565 439.496 259.55V245.172C439.519 243.138 440.343 241.195 441.79 239.765C443.236 238.335 445.188 237.533 447.223 237.533C449.257 237.533 451.209 238.335 452.655 239.765C454.102 241.195 454.926 243.138 454.949 245.172V259.551C454.949 261.6 454.135 263.565 452.686 265.014C451.237 266.463 449.272 267.277 447.223 267.277Z" fill="#3A484A"/>
<path d="M457.016 288.414H437.43C435.396 288.391 433.453 287.567 432.023 286.12C430.593 284.674 429.791 282.722 429.791 280.687C429.791 278.653 430.593 276.701 432.023 275.255C433.453 273.808 435.396 272.984 437.43 272.961H457.016C459.05 272.984 460.993 273.808 462.423 275.255C463.853 276.701 464.655 278.653 464.655 280.687C464.655 282.722 463.853 284.674 462.423 286.12C460.993 287.567 459.05 288.391 457.016 288.414Z" fill="#F98084"/>
<path d="M299.32 267.277C298.305 267.277 297.3 267.077 296.363 266.689C295.425 266.301 294.573 265.731 293.856 265.014C293.138 264.296 292.569 263.445 292.181 262.507C291.793 261.569 291.593 260.565 291.593 259.55V245.172C291.616 243.138 292.44 241.195 293.887 239.765C295.333 238.335 297.285 237.533 299.32 237.533C301.354 237.533 303.306 238.335 304.752 239.765C306.199 241.195 307.023 243.138 307.046 245.172V259.551C307.045 261.6 306.231 263.564 304.782 265.013C303.334 266.462 301.369 267.276 299.32 267.277V267.277Z" fill="#3A484A"/>
<path d="M309.109 288.414H289.527C287.493 288.391 285.55 287.567 284.12 286.12C282.69 284.674 281.888 282.722 281.888 280.687C281.888 278.653 282.69 276.701 284.12 275.255C285.55 273.808 287.493 272.984 289.527 272.961H309.109C311.143 272.984 313.086 273.808 314.516 275.255C315.946 276.701 316.748 278.653 316.748 280.687C316.748 282.722 315.946 284.674 314.516 286.12C313.086 287.567 311.143 288.391 309.109 288.414Z" fill="#F98084"/>
<path d="M373.27 287.6C369.673 287.623 366.113 286.877 362.829 285.411C359.544 283.945 356.612 281.793 354.227 279.1C353.559 278.336 353.049 277.449 352.724 276.487C352.4 275.526 352.268 274.51 352.336 273.498C352.404 272.486 352.67 271.497 353.121 270.588C353.571 269.679 354.196 268.867 354.96 268.2C355.723 267.532 356.611 267.021 357.572 266.697C358.534 266.372 359.549 266.24 360.562 266.308C361.574 266.376 362.563 266.643 363.472 267.093C364.381 267.544 365.192 268.168 365.86 268.932C366.81 269.946 367.958 270.754 369.232 271.306C370.507 271.858 371.881 272.143 373.27 272.143C374.659 272.143 376.033 271.858 377.308 271.306C378.582 270.754 379.73 269.946 380.68 268.932C381.348 268.168 382.159 267.544 383.068 267.093C383.978 266.643 384.966 266.376 385.979 266.308C386.991 266.24 388.006 266.372 388.968 266.697C389.929 267.021 390.817 267.532 391.581 268.2C392.344 268.867 392.969 269.679 393.419 270.588C393.87 271.497 394.136 272.486 394.204 273.498C394.272 274.51 394.14 275.526 393.816 276.487C393.491 277.449 392.981 278.336 392.313 279.1C389.929 281.793 386.996 283.945 383.711 285.411C380.427 286.877 376.867 287.624 373.27 287.6V287.6Z" fill="#3A484A"/>
<path d="M250 477.449C250 417.449 209.5 378.137 196.535 367.094H80.934C67.973 378.137 27.469 417.453 27.469 477.449H250Z" fill="#58B78C"/>
<path d="M173.066 379.922C173.066 386.712 171.052 393.35 167.28 398.996C163.507 404.642 158.146 409.042 151.872 411.64C145.599 414.239 138.696 414.919 132.036 413.594C125.376 412.269 119.259 409 114.457 404.198C109.656 399.397 106.386 393.279 105.062 386.62C103.737 379.96 104.417 373.057 107.015 366.784C109.614 360.51 114.014 355.148 119.66 351.376C125.306 347.603 131.944 345.59 138.734 345.59C147.839 345.591 156.571 349.208 163.009 355.647C169.447 362.085 173.065 370.817 173.066 379.922V379.922Z" fill="#D9A891"/>
<path d="M74.215 355.832C74.215 355.832 98.77 384.262 74.215 401.632C62.477 409.932 51.895 406.546 44.043 400.749C31.465 391.46 26.566 374.683 33.343 360.593C36.702 353.613 42.943 347.116 54.312 344.206L74.215 355.832Z" fill="#FBC4AC"/>
<path d="M67.3521 477.449V439.849C67.3752 437.815 68.1994 435.872 69.6459 434.442C71.0924 433.012 73.0445 432.21 75.0786 432.21C77.1127 432.21 79.0647 433.012 80.5112 434.442C81.9577 435.872 82.7819 437.815 82.8051 439.849V477.449H67.3521Z" fill="#46926F"/>
<path d="M194.664 477.449V439.849C194.687 437.815 195.511 435.872 196.958 434.442C198.404 433.012 200.356 432.21 202.391 432.21C204.425 432.21 206.377 433.012 207.823 434.442C209.27 435.872 210.094 437.815 210.117 439.849V477.449H194.664Z" fill="#46926F"/>
<path d="M429.2 477.449V439.849C429.223 437.815 430.047 435.872 431.494 434.442C432.94 433.012 434.892 432.21 436.926 432.21C438.961 432.21 440.913 433.012 442.359 434.442C443.806 435.872 444.63 437.815 444.653 439.849V477.449H429.2Z" fill="#F2C42C"/>
<path d="M277.449 237.184V237.484C277.461 237.645 277.464 237.806 277.457 237.968V238.452C277.457 316.593 215.348 379.929 138.734 379.929C62.12 379.929 0 316.59 0 238.449H0.012L30.289 180.984L85.129 133.593L196.535 141.839L268.707 202.96L277.449 237.184Z" fill="#E3B098"/>
<path d="M212.68 267.277C210.631 267.276 208.666 266.462 207.217 265.013C205.768 263.564 204.954 261.599 204.953 259.55V245.172C204.976 243.138 205.8 241.195 207.247 239.765C208.693 238.335 210.646 237.533 212.68 237.533C214.714 237.533 216.666 238.335 218.112 239.765C219.559 241.195 220.383 243.138 220.406 245.172V259.551C220.406 261.6 219.592 263.565 218.143 265.014C216.694 266.463 214.729 267.277 212.68 267.277Z" fill="#3A484A"/>
<path d="M222.473 288.414H202.887C200.853 288.391 198.91 287.567 197.48 286.12C196.05 284.674 195.248 282.722 195.248 280.687C195.248 278.653 196.05 276.701 197.48 275.255C198.91 273.808 200.853 272.984 202.887 272.961H222.473C224.507 272.984 226.45 273.808 227.88 275.255C229.31 276.701 230.112 278.653 230.112 280.687C230.112 282.722 229.31 284.674 227.88 286.12C226.45 287.567 224.507 288.391 222.473 288.414V288.414Z" fill="#F98084"/>
<path d="M64.7771 267.277C63.7623 267.277 62.7574 267.077 61.8199 266.689C60.8824 266.301 60.0305 265.731 59.3129 265.014C58.5954 264.296 58.0262 263.445 57.638 262.507C57.2497 261.569 57.0499 260.565 57.05 259.55V245.172C57.0732 243.138 57.8974 241.195 59.3439 239.765C60.7904 238.335 62.7424 237.533 64.7765 237.533C66.8106 237.533 68.7627 238.335 70.2092 239.765C71.6557 241.195 72.4799 243.138 72.503 245.172V259.551C72.503 261.6 71.6891 263.565 70.2402 265.014C68.7912 266.463 66.8261 267.277 64.7771 267.277Z" fill="#3A484A"/>
<path d="M74.5701 288.414H54.9841C52.9501 288.391 51.0073 287.567 49.5772 286.12C48.147 284.674 47.345 282.722 47.345 280.687C47.345 278.653 48.147 276.701 49.5772 275.255C51.0073 273.808 52.9501 272.984 54.9841 272.961H74.5701C76.604 272.984 78.5469 273.808 79.977 275.255C81.4071 276.701 82.2092 278.653 82.2092 280.687C82.2092 282.722 81.4071 284.674 79.977 286.12C78.5469 287.567 76.604 288.391 74.5701 288.414Z" fill="#F98084"/>
<path d="M138.73 287.6C135.133 287.623 131.572 286.877 128.287 285.411C125.002 283.945 122.068 281.793 119.683 279.1C118.356 277.554 117.693 275.546 117.839 273.514C117.984 271.481 118.927 269.589 120.462 268.248C121.996 266.907 123.998 266.227 126.032 266.355C128.065 266.483 129.966 267.409 131.32 268.932C132.27 269.945 133.417 270.753 134.691 271.306C135.965 271.858 137.339 272.143 138.728 272.143C140.117 272.143 141.491 271.858 142.765 271.306C144.039 270.753 145.187 269.945 146.136 268.932C146.801 268.158 147.612 267.523 148.524 267.064C149.435 266.605 150.428 266.331 151.446 266.258C152.464 266.185 153.486 266.314 154.453 266.638C155.421 266.963 156.315 267.475 157.083 268.147C157.851 268.818 158.479 269.635 158.93 270.55C159.381 271.466 159.646 272.461 159.711 273.479C159.775 274.498 159.637 275.519 159.304 276.484C158.971 277.448 158.451 278.337 157.773 279.1C155.389 281.793 152.456 283.944 149.171 285.41C145.887 286.876 142.327 287.623 138.73 287.6Z" fill="#3A484A"/>
<path d="M277.449 237.184C275.461 184.336 148.429 208.524 96.496 163.61C95.4424 162.717 94.1872 162.094 92.8389 161.795C91.4906 161.495 90.0896 161.529 88.7571 161.892C87.4246 162.255 86.2005 162.937 85.1907 163.88C84.1809 164.822 83.4156 165.996 82.961 167.3C74.461 191.355 51.281 238.452 0.012 238.452H0C0 160.313 62.109 96.9771 138.734 96.9771C214.938 96.9771 276.789 159.633 277.449 237.184Z" fill="#FADC60"/>
</svg>
