<svg width="512" height="512" viewBox="0 0 512 512" fill="none" xmlns="http://www.w3.org/2000/svg">
<path d="M421.257 173.787H91.439V430.38C91.439 438.993 94.8605 447.254 100.951 453.344C107.041 459.435 115.302 462.856 123.915 462.856H388.783C397.396 462.856 405.657 459.435 411.747 453.344C417.837 447.254 421.259 438.993 421.259 430.38V173.787H421.257Z" fill="#495059"/>
<path opacity="0.15" d="M378.928 281.53H133.778V462.85H378.928V281.53Z" fill="black"/>
<path d="M80.898 244.778C97.9625 244.778 111.796 230.944 111.796 213.88C111.796 196.815 97.9625 182.982 80.898 182.982C63.8335 182.982 50 196.815 50 213.88C50 230.944 63.8335 244.778 80.898 244.778Z" fill="#F5D7B7"/>
<path opacity="0.15" d="M80.898 244.778C97.9625 244.778 111.796 230.944 111.796 213.88C111.796 196.815 97.9625 182.982 80.898 182.982C63.8335 182.982 50 196.815 50 213.88C50 230.944 63.8335 244.778 80.898 244.778Z" fill="black"/>
<path d="M431.798 244.778C448.863 244.778 462.696 230.944 462.696 213.88C462.696 196.815 448.863 182.982 431.798 182.982C414.734 182.982 400.9 196.815 400.9 213.88C400.9 230.944 414.734 244.778 431.798 244.778Z" fill="#F5D7B7"/>
<path opacity="0.15" d="M431.798 244.778C448.863 244.778 462.696 230.944 462.696 213.88C462.696 196.815 448.863 182.982 431.798 182.982C414.734 182.982 400.9 196.815 400.9 213.88C400.9 230.944 414.734 244.778 431.798 244.778Z" fill="black"/>
<path d="M394.648 512C396.37 512.005 398.073 511.653 399.652 510.966C401.23 510.278 402.648 509.271 403.817 508.006C404.986 506.742 405.879 505.249 406.44 503.622C407.002 501.994 407.219 500.268 407.079 498.552C403.716 460.897 386.38 425.865 358.485 400.349C330.589 374.834 294.153 360.684 256.348 360.684C218.543 360.684 182.107 374.834 154.211 400.349C126.315 425.865 108.98 460.897 105.617 498.552C105.477 500.268 105.694 501.994 106.256 503.622C106.817 505.249 107.71 506.742 108.879 508.006C110.048 509.271 111.466 510.278 113.044 510.966C114.623 511.653 116.326 512.005 118.048 512H394.648Z" fill="#E8E9EA"/>
<path d="M360.048 484.2H313.11C311.724 484.2 310.394 483.65 309.414 482.669C308.434 481.689 307.883 480.36 307.883 478.973V465.341C307.883 463.955 308.434 462.625 309.414 461.645C310.394 460.665 311.724 460.114 313.11 460.114H360.048C361.434 460.114 362.764 460.665 363.744 461.645C364.724 462.625 365.275 463.955 365.275 465.341V478.974C365.275 480.36 364.724 481.69 363.744 482.67C362.764 483.65 361.434 484.2 360.048 484.2V484.2Z" fill="#BDC0C3"/>
<path d="M256.348 360.68C238.776 360.663 221.336 363.713 204.813 369.692L230.29 512H282.405L307.883 369.692C291.36 363.713 273.92 360.663 256.348 360.68V360.68Z" fill="#B3E7FF"/>
<path opacity="0.1" d="M204.813 369.692L218.355 445.334C230.307 450.683 243.254 453.448 256.348 453.448C269.442 453.448 282.389 450.683 294.341 445.334L307.883 369.692C274.577 357.676 238.119 357.676 204.813 369.692V369.692Z" fill="black"/>
<path d="M204.813 369.692L213.323 417.225C225.689 426.642 240.804 431.742 256.348 431.742C271.892 431.742 287.006 426.642 299.373 417.225L307.883 369.692C274.577 357.676 238.119 357.676 204.813 369.692V369.692Z" fill="#F5D7B7"/>
<path d="M220.478 374.289L241.222 512H220.478L183.378 476.043C182.785 475.469 182.312 474.783 181.984 474.025C181.657 473.267 181.482 472.452 181.47 471.627C181.458 470.802 181.609 469.982 181.914 469.215C182.219 468.448 182.672 467.749 183.248 467.157L191.715 458.457C192.611 457.536 193.162 456.334 193.273 455.054C193.384 453.773 193.05 452.494 192.326 451.432L176.51 428.232C175.781 427.163 175.322 425.932 175.172 424.647C175.023 423.361 175.188 422.058 175.653 420.85L193.564 374.287H220.478V374.289Z" fill="#76B7EB"/>
<path d="M292.218 374.289L271.474 512H292.219L329.319 476.043C329.912 475.469 330.385 474.783 330.713 474.025C331.04 473.267 331.215 472.452 331.227 471.627C331.239 470.802 331.088 469.982 330.783 469.215C330.478 468.448 330.025 467.749 329.449 467.157L320.982 458.457C320.086 457.536 319.535 456.334 319.424 455.053C319.313 453.773 319.647 452.494 320.371 451.432L336.187 428.232C336.916 427.163 337.375 425.932 337.525 424.647C337.674 423.361 337.509 422.058 337.044 420.85L319.132 374.29H292.218V374.289Z" fill="#76B7EB"/>
<path opacity="0.1" d="M256.348 360.68C223.723 360.632 191.965 371.176 165.848 390.728C193.538 406.092 224.684 414.154 256.351 414.154C288.018 414.154 319.164 406.092 346.854 390.728C320.735 371.175 288.975 360.63 256.348 360.68V360.68Z" fill="black"/>
<path d="M431.794 213.877C431.794 111.965 353.248 29.3491 256.348 29.3491C159.448 29.3491 80.902 111.965 80.902 213.877C80.902 315.789 159.448 395.081 256.348 395.081C353.248 395.081 431.794 315.789 431.794 213.877Z" fill="#F5D7B7"/>
<path d="M161.398 290.94C180.745 290.94 196.428 278.449 196.428 263.04C196.428 247.631 180.745 235.14 161.398 235.14C142.052 235.14 126.368 247.631 126.368 263.04C126.368 278.449 142.052 290.94 161.398 290.94Z" fill="#F28B74"/>
<path d="M351.298 290.94C370.645 290.94 386.328 278.449 386.328 263.04C386.328 247.631 370.645 235.14 351.298 235.14C331.952 235.14 316.268 247.631 316.268 263.04C316.268 278.449 331.952 290.94 351.298 290.94Z" fill="#F28B74"/>
<path d="M167.255 237.6C165.266 237.6 163.358 236.81 161.952 235.403C160.545 233.997 159.755 232.089 159.755 230.1V215.06C159.755 213.071 160.545 211.163 161.952 209.757C163.358 208.35 165.266 207.56 167.255 207.56C169.244 207.56 171.152 208.35 172.558 209.757C173.965 211.163 174.755 213.071 174.755 215.06V230.1C174.755 232.089 173.965 233.997 172.558 235.403C171.152 236.81 169.244 237.6 167.255 237.6V237.6Z" fill="#495059"/>
<path d="M256.348 266.987C253.014 266.987 249.713 266.331 246.633 265.055C243.554 263.779 240.755 261.909 238.398 259.551C236.041 257.194 234.171 254.395 232.896 251.315C231.621 248.235 230.964 244.934 230.965 241.6V223.15C230.965 221.313 231.695 219.55 232.994 218.251C234.294 216.951 236.056 216.221 237.894 216.221H274.801C276.639 216.221 278.401 216.951 279.701 218.251C281 219.55 281.73 221.313 281.73 223.15V241.6C281.731 244.934 281.075 248.235 279.799 251.315C278.524 254.395 276.655 257.194 274.298 259.551C271.941 261.909 269.142 263.779 266.062 265.055C262.983 266.331 259.682 266.987 256.348 266.987V266.987Z" fill="#495059"/>
<path d="M345.441 237.6C343.452 237.6 341.544 236.81 340.138 235.403C338.731 233.997 337.941 232.089 337.941 230.1V215.06C337.941 213.071 338.731 211.163 340.138 209.757C341.544 208.35 343.452 207.56 345.441 207.56C347.43 207.56 349.338 208.35 350.744 209.757C352.151 211.163 352.941 213.071 352.941 215.06V230.1C352.941 232.089 352.151 233.997 350.744 235.403C349.338 236.81 347.43 237.6 345.441 237.6Z" fill="#495059"/>
<path opacity="0.05" d="M333.456 48.0908C311.501 38.2028 285.793 32.2258 255.829 32.1548C248.132 32.1662 240.44 31.784 232.782 31.0098C147.031 43.1198 80.902 120.37 80.902 213.876C80.902 315.788 159.452 395.081 256.348 395.081C274.577 395.099 292.694 392.234 310.029 386.594C184.388 374.194 146.91 294.529 136.494 226.024C136.2 224.044 136.633 222.025 137.714 220.34C138.795 218.656 140.45 217.42 142.372 216.863C184.298 204.579 231.094 185.99 251.595 167.989C252.761 166.957 254.265 166.386 255.822 166.385C257.38 166.383 258.884 166.95 260.053 167.98C292.391 196.387 390.228 226.265 431.075 230.508C431.542 225.037 431.795 219.493 431.795 213.875C431.794 141.064 391.693 78.1108 333.456 48.0908Z" fill="black"/>
<path d="M255.297 16.5439C394.887 16.5439 442.582 144.331 446.858 201.235C446.992 203.114 446.714 204.999 446.045 206.76C445.376 208.521 444.331 210.115 442.984 211.431C441.636 212.748 440.018 213.754 438.242 214.382C436.466 215.009 434.574 215.243 432.699 215.065C392.885 211.465 292.854 181.175 260.067 152.389C258.897 151.356 257.391 150.786 255.83 150.786C254.269 150.786 252.763 151.356 251.593 152.389C218.806 181.175 118.774 211.471 78.9601 215.065C77.0848 215.242 75.1934 215.009 73.4174 214.382C71.6413 213.754 70.0233 212.747 68.6758 211.431C67.3283 210.115 66.2837 208.521 65.6145 206.76C64.9454 204.999 64.6678 203.114 64.8011 201.235C69.0761 144.335 116.772 16.5439 256.362 16.5439" fill="#495059"/>
<path d="M87.013 126.921H425.713C427.179 126.92 428.62 126.541 429.897 125.822C431.175 125.102 432.246 124.066 433.007 122.813C433.768 121.56 434.194 120.132 434.243 118.667C434.293 117.202 433.965 115.749 433.29 114.447C426.798 101.864 419.053 89.9678 410.174 78.9391C408.462 76.8034 406.293 75.0786 403.827 73.8916C401.36 72.7046 398.659 72.0856 395.922 72.0801H116.773C114.031 72.0863 111.325 72.708 108.855 73.8995C106.385 75.0909 104.214 76.8217 102.502 78.9641C93.6472 89.9939 85.919 101.883 79.433 114.452C78.7594 115.754 78.4321 117.207 78.4825 118.672C78.5328 120.136 78.9591 121.563 79.7204 122.816C80.4818 124.068 81.5525 125.104 82.8296 125.823C84.1067 126.541 85.5474 126.92 87.013 126.921V126.921Z" fill="#76B7EB"/>
<path d="M255.828 131.436C292.123 131.436 321.546 102.013 321.546 65.718C321.546 29.423 292.123 0 255.828 0C219.533 0 190.11 29.423 190.11 65.718C190.11 102.013 219.533 131.436 255.828 131.436Z" fill="#E8E9EA"/>
<path d="M255.828 92.0692C270.381 92.0692 282.179 80.2714 282.179 65.7182C282.179 51.1649 270.381 39.3672 255.828 39.3672C241.275 39.3672 229.477 51.1649 229.477 65.7182C229.477 80.2714 241.275 92.0692 255.828 92.0692Z" fill="#BDC0C3"/>
<path opacity="0.05" d="M255.297 32.1479C255.476 32.1479 255.651 32.1549 255.83 32.1559C256.009 32.1569 256.183 32.1479 256.362 32.1479H255.297Z" fill="black"/>
</svg>
