<svg width="512" height="512" viewBox="0 0 512 512" fill="none" xmlns="http://www.w3.org/2000/svg">
<path d="M414.168 475.542C405.005 475.535 396.08 472.629 388.668 467.242L340.237 432.2L361.926 402.223L410.361 437.268C411.338 437.975 412.491 438.398 413.693 438.491C414.895 438.584 416.099 438.343 417.173 437.794C418.247 437.246 419.148 436.412 419.778 435.384C420.407 434.356 420.741 433.174 420.741 431.968V329.668H457.741V431.968C457.728 443.52 453.134 454.596 444.965 462.765C436.796 470.934 425.721 475.529 414.168 475.542V475.542Z" fill="#76C9D2"/>
<path opacity="0.15" d="M414.168 475.542C405.005 475.535 396.08 472.629 388.668 467.242L340.237 432.2L361.926 402.223L410.361 437.268C411.338 437.975 412.491 438.398 413.693 438.491C414.895 438.584 416.099 438.343 417.173 437.794C418.247 437.246 419.148 436.412 419.778 435.384C420.407 434.356 420.741 433.174 420.741 431.968V329.668H457.741V431.968C457.728 443.52 453.134 454.596 444.965 462.765C436.796 470.934 425.721 475.529 414.168 475.542V475.542Z" fill="black"/>
<path d="M439.241 351.514C434.334 351.514 429.629 349.565 426.159 346.096C422.69 342.626 420.741 337.921 420.741 333.014V304.347C420.741 299.441 422.69 294.735 426.159 291.266C429.629 287.796 434.334 285.847 439.241 285.847C444.147 285.847 448.853 287.796 452.322 291.266C455.792 294.735 457.741 299.441 457.741 304.347V333.014C457.741 337.921 455.792 342.626 452.322 346.096C448.853 349.565 444.147 351.514 439.241 351.514V351.514Z" fill="#FFD4B8"/>
<path d="M142.938 512H114.282C112.069 512 109.947 511.121 108.382 509.556C106.817 507.992 105.938 505.869 105.938 503.656V481.722C105.902 464.316 110.666 447.236 119.706 432.361C128.746 417.486 141.713 405.391 157.18 397.406L174.221 430.248C164.779 435.123 156.863 442.507 151.344 451.588C145.825 460.669 142.917 471.096 142.938 481.722V512Z" fill="#76C9D2"/>
<path opacity="0.15" d="M142.938 512H114.282C112.069 512 109.947 511.121 108.382 509.556C106.817 507.992 105.938 505.869 105.938 503.656V481.722C105.902 464.316 110.666 447.236 119.706 432.361C128.746 417.486 141.713 405.391 157.18 397.406L174.221 430.248C164.779 435.123 156.863 442.507 151.344 451.588C145.825 460.669 142.917 471.096 142.938 481.722V512Z" fill="black"/>
<path d="M256.391 322.422C226.239 322.422 197.321 334.4 176.001 355.721C154.68 377.041 142.702 405.959 142.702 436.111V512H361.736C363.949 512 366.071 511.121 367.636 509.556C369.201 507.991 370.08 505.869 370.08 503.656V436.112C370.08 421.182 367.139 406.398 361.426 392.605C355.713 378.811 347.339 366.278 336.782 355.721C326.225 345.164 313.691 336.789 299.898 331.076C286.105 325.363 271.321 322.422 256.391 322.422V322.422Z" fill="#76C9D2"/>
<path d="M256.391 357.7L205.491 381.561C204.412 382.067 203.223 382.292 202.033 382.216C200.844 382.14 199.693 381.765 198.688 381.125C197.682 380.486 196.854 379.603 196.28 378.559C195.706 377.514 195.405 376.342 195.405 375.15V335.122L256.391 357.7Z" fill="white"/>
<path d="M256.391 357.7L307.291 381.561C308.37 382.067 309.559 382.292 310.749 382.216C311.938 382.14 313.089 381.765 314.095 381.125C315.1 380.486 315.928 379.603 316.502 378.559C317.076 377.514 317.377 376.342 317.377 375.15V335.122L256.391 357.7Z" fill="white"/>
<path opacity="0.1" d="M256.391 322.422C226.453 322.384 197.717 334.194 176.458 355.274C201.285 367.655 228.648 374.1 256.391 374.1C284.134 374.1 311.497 367.655 336.324 355.274C315.065 334.195 286.329 322.384 256.391 322.422Z" fill="black"/>
<path d="M77.541 210.631C94.9606 210.631 109.082 196.509 109.082 179.09C109.082 161.67 94.9606 147.549 77.541 147.549C60.1214 147.549 46 161.67 46 179.09C46 196.509 60.1214 210.631 77.541 210.631Z" fill="#FFD4B8"/>
<path d="M435.241 210.631C452.661 210.631 466.782 196.509 466.782 179.09C466.782 161.67 452.661 147.549 435.241 147.549C417.821 147.549 403.7 161.67 403.7 179.09C403.7 196.509 417.821 210.631 435.241 210.631Z" fill="#FFD4B8"/>
<path d="M256.391 357.7C355.167 357.7 435.241 277.626 435.241 178.85C435.241 80.0739 355.167 0 256.391 0C157.615 0 77.541 80.0739 77.541 178.85C77.541 277.626 157.615 357.7 256.391 357.7Z" fill="#FFD4B8"/>
<path d="M165.701 186.585C163.712 186.585 161.804 185.795 160.398 184.388C158.991 182.982 158.201 181.074 158.201 179.085V161.267C158.201 159.278 158.991 157.37 160.398 155.964C161.804 154.557 163.712 153.767 165.701 153.767C167.69 153.767 169.598 154.557 171.004 155.964C172.411 157.37 173.201 159.278 173.201 161.267V179.085C173.201 181.074 172.411 182.982 171.004 184.388C169.598 185.795 167.69 186.585 165.701 186.585Z" fill="#4A5058"/>
<path d="M347.081 186.585C345.092 186.585 343.184 185.795 341.778 184.388C340.371 182.982 339.581 181.074 339.581 179.085V161.267C339.581 159.278 340.371 157.37 341.778 155.964C343.184 154.557 345.092 153.767 347.081 153.767C349.07 153.767 350.978 154.557 352.384 155.964C353.791 157.37 354.581 159.278 354.581 161.267V179.085C354.581 181.074 353.791 182.982 352.384 184.388C350.978 185.795 349.07 186.585 347.081 186.585Z" fill="#4A5058"/>
<path d="M256.391 235.727C251.816 235.718 247.29 234.775 243.093 232.954C238.895 231.133 235.114 228.474 231.982 225.139C231.309 224.42 230.783 223.576 230.436 222.654C230.089 221.732 229.927 220.751 229.959 219.767C229.991 218.782 230.217 217.814 230.623 216.917C231.029 216.02 231.608 215.211 232.327 214.538C233.046 213.864 233.89 213.339 234.812 212.992C235.734 212.645 236.715 212.483 237.699 212.515C238.683 212.547 239.652 212.772 240.549 213.179C241.446 213.585 242.255 214.164 242.928 214.883C244.652 216.727 246.736 218.198 249.052 219.203C251.368 220.208 253.866 220.727 256.39 220.727C258.915 220.727 261.412 220.208 263.728 219.203C266.044 218.198 268.128 216.727 269.852 214.883C270.525 214.164 271.334 213.585 272.231 213.179C273.128 212.772 274.097 212.547 275.081 212.515C276.066 212.483 277.047 212.645 277.968 212.992C278.89 213.339 279.734 213.864 280.453 214.538C281.172 215.211 281.751 216.02 282.157 216.917C282.563 217.814 282.789 218.782 282.821 219.767C282.853 220.751 282.691 221.732 282.344 222.654C281.997 223.576 281.472 224.42 280.798 225.139C277.666 228.474 273.885 231.133 269.688 232.954C265.491 234.775 260.966 235.718 256.391 235.727Z" fill="#4A5058"/>
<path d="M256.391 0C208.957 0 163.466 18.8431 129.925 52.384C96.3841 85.9248 77.541 131.416 77.541 178.85C105.341 178.85 134.734 149.25 137.77 88.85C156.811 110.176 265.758 152.36 379.063 118.466C388.592 158.93 412.447 178.849 435.241 178.849C435.241 131.415 416.398 85.9243 382.857 52.3836C349.316 18.8429 303.825 -7.41419e-10 256.391 0V0Z" fill="#4A5058"/>
<path opacity="0.1" d="M282.896 335.122C247.786 335.124 213.451 324.791 184.174 305.411C154.896 286.032 131.971 258.463 118.256 226.142C104.541 193.821 100.643 158.179 107.048 123.657C113.453 89.136 129.877 57.2638 154.274 32.0142C133.785 46.2612 116.504 64.6386 103.543 85.9645C90.5813 107.29 82.2266 131.093 79.0157 155.841C75.8047 180.589 77.8086 205.736 84.8985 229.663C91.9884 253.591 104.007 275.769 120.182 294.773C136.358 313.778 156.331 329.186 178.818 340.008C201.305 350.831 225.808 356.827 250.751 357.612C275.695 358.397 300.526 353.953 323.649 344.567C346.772 335.18 367.675 321.057 385.013 303.108C355.063 324.001 319.413 335.178 282.896 335.122Z" fill="#513130"/>
<path d="M256.391 413.824C260.53 413.824 263.885 410.469 263.885 406.33C263.885 402.191 260.53 398.836 256.391 398.836C252.252 398.836 248.897 402.191 248.897 406.33C248.897 410.469 252.252 413.824 256.391 413.824Z" fill="white"/>
<path d="M256.391 468.884C260.53 468.884 263.885 465.529 263.885 461.39C263.885 457.251 260.53 453.896 256.391 453.896C252.252 453.896 248.897 457.251 248.897 461.39C248.897 465.529 252.252 468.884 256.391 468.884Z" fill="white"/>
<path d="M339.099 461.8L328.136 468.178C326.912 468.89 325.522 469.265 324.106 469.265C322.691 469.265 321.3 468.89 320.077 468.178L309.114 461.8C307.902 461.095 306.897 460.084 306.198 458.869C305.499 457.654 305.131 456.276 305.131 454.874V426.9C305.131 425.975 305.498 425.088 306.152 424.434C306.806 423.78 307.693 423.413 308.618 423.413H339.591C340.516 423.413 341.403 423.78 342.057 424.434C342.71 425.088 343.078 425.975 343.078 426.9V454.878C343.077 456.279 342.71 457.655 342.011 458.87C341.313 460.084 340.309 461.095 339.099 461.8Z" fill="white"/>
</svg>
