<svg width="512" height="512" viewBox="0 0 512 512" fill="none" xmlns="http://www.w3.org/2000/svg">
<path d="M475.857 194.843L457.681 189.868L435.172 205.1L446.217 231.754L464.392 236.729C467.142 237.482 470.014 237.686 472.843 237.329C475.672 236.972 478.403 236.061 480.88 234.649C483.357 233.236 485.532 231.35 487.28 229.097C489.028 226.844 490.315 224.269 491.068 221.519C491.82 218.768 492.024 215.897 491.667 213.068C491.31 210.239 490.399 207.508 488.987 205.031C487.575 202.554 485.688 200.379 483.435 198.631C481.182 196.883 478.607 195.596 475.857 194.843V194.843Z" fill="#FFBE9C"/>
<path d="M213.418 116.878C211.851 111.426 208.2 106.81 203.254 104.032C198.308 101.253 192.467 100.535 186.995 102.032C181.524 103.53 176.863 107.124 174.022 112.034C171.181 116.944 170.389 122.776 171.818 128.266C170.251 122.814 166.6 118.198 161.654 115.42C156.708 112.641 150.867 111.923 145.395 113.42C139.924 114.918 135.263 118.512 132.422 123.422C129.581 128.332 128.789 134.164 130.218 139.654C128.651 134.202 125 129.586 120.054 126.808C115.108 124.029 109.267 123.311 103.795 124.808C98.3238 126.306 93.6628 129.9 90.8219 134.81C87.9811 139.72 87.1893 145.552 88.6181 151.042C87.899 148.279 86.6384 145.686 84.9096 143.414C83.1807 141.142 81.0179 139.236 78.5466 137.806C76.0753 136.376 73.3447 135.451 70.5132 135.085C67.6817 134.719 64.8056 134.918 62.0519 135.672C59.2981 136.426 56.7214 137.719 54.4713 139.477C52.2211 141.234 50.3423 143.421 48.9438 145.91C47.5453 148.399 46.6549 151.141 46.3244 153.977C45.9938 156.813 46.2296 159.686 47.0181 162.43L76.5181 270.223L167.495 276.472L242.935 224.672L213.418 116.878Z" fill="#DA9D81"/>
<path d="M450.083 135.933C447.351 135.185 444.499 134.982 441.688 135.336C438.878 135.69 436.165 136.595 433.704 137.998C431.243 139.401 429.083 141.275 427.346 143.513C425.61 145.751 424.331 148.309 423.583 151.041C425.012 145.551 424.22 139.719 421.379 134.809C418.539 129.898 413.877 126.305 408.406 124.807C402.934 123.309 397.093 124.028 392.147 126.806C387.202 129.585 383.55 134.201 381.983 139.653C383.412 134.163 382.62 128.331 379.779 123.421C376.938 118.51 372.277 114.917 366.806 113.419C361.334 111.921 355.493 112.64 350.547 115.418C345.602 118.197 341.95 122.813 340.383 128.265C341.172 125.521 341.407 122.647 341.077 119.812C340.746 116.976 339.856 114.234 338.457 111.745C337.059 109.255 335.18 107.069 332.93 105.311C330.68 103.554 328.103 102.261 325.349 101.507C322.596 100.753 319.72 100.554 316.888 100.92C314.057 101.286 311.326 102.211 308.855 103.641C306.383 105.071 304.221 106.977 302.492 109.249C300.763 111.521 299.502 114.114 298.783 116.877L269.283 224.67L350.996 270.221H435.696L465.196 162.428C465.944 159.696 466.147 156.843 465.792 154.032C465.438 151.222 464.533 148.509 463.13 146.048C461.727 143.587 459.853 141.427 457.615 139.691C455.377 137.954 452.818 136.676 450.086 135.928L450.083 135.933Z" fill="#FFD3BC"/>
<path d="M256.096 55.523C254.118 55.523 252.221 54.7373 250.823 53.3386C249.424 51.94 248.638 50.043 248.638 48.065V15.458C248.638 13.48 249.424 11.583 250.823 10.1844C252.221 8.78575 254.118 8 256.096 8C258.074 8 259.971 8.78575 261.37 10.1844C262.768 11.583 263.554 13.48 263.554 15.458V48.066C263.554 50.0438 262.768 51.9405 261.369 53.339C259.971 54.7374 258.074 55.523 256.096 55.523V55.523Z" fill="#F9ED80"/>
<path d="M73.9572 99.032L50.8962 75.975C49.4976 74.5758 48.712 72.6784 48.7124 70.7C48.7128 68.7217 49.499 66.8246 50.8982 65.426C52.2973 64.0273 54.1948 63.2418 56.1731 63.2422C58.1514 63.2426 60.0486 64.0288 61.4472 65.428L84.5042 88.485C85.8884 89.8866 86.6619 91.7789 86.6558 93.7488C86.6496 95.7188 85.8644 97.6062 84.4714 98.9992C83.0785 100.392 81.191 101.177 79.2211 101.184C77.2511 101.19 75.3588 100.416 73.9572 99.032V99.032Z" fill="#F9ED80"/>
<path d="M156.477 61.23L143.167 31.462C142.755 30.566 142.524 29.5971 142.488 28.6113C142.452 27.6256 142.613 26.6425 142.96 25.7191C143.306 24.7957 143.833 23.9502 144.509 23.2318C145.185 22.5133 145.996 21.936 146.897 21.5334C147.797 21.1307 148.769 20.9107 149.755 20.8861C150.741 20.8615 151.722 21.0327 152.642 21.3899C153.561 21.7471 154.401 22.2832 155.112 22.9671C155.823 23.6509 156.391 24.469 156.783 25.374L170.096 55.142C170.509 56.0379 170.74 57.0068 170.775 57.9926C170.811 58.9784 170.651 59.9614 170.304 60.8849C169.957 61.8083 169.43 62.6537 168.755 63.3722C168.079 64.0907 167.267 64.6679 166.366 65.0706C165.466 65.4732 164.495 65.6932 163.508 65.7178C162.522 65.7424 161.541 65.5712 160.622 65.214C159.702 64.8568 158.863 64.3208 158.152 63.6369C157.441 62.953 156.873 62.1349 156.48 61.23H156.477Z" fill="#F9ED80"/>
<path d="M427.687 99.0318C426.289 97.6331 425.503 95.7362 425.503 93.7583C425.503 91.7805 426.289 89.8836 427.687 88.4848L450.744 65.4278C451.437 64.735 452.259 64.1853 453.164 63.8102C454.069 63.4351 455.039 63.2419 456.018 63.2417C456.998 63.2415 457.968 63.4342 458.873 63.8088C459.778 64.1835 460.601 64.7328 461.294 65.4253C461.986 66.1178 462.536 66.9401 462.911 67.845C463.286 68.75 463.479 69.7199 463.48 70.6996C463.48 71.6792 463.287 72.6492 462.913 73.5544C462.538 74.4595 461.989 75.282 461.296 75.9748L438.234 99.0318C436.835 100.43 434.939 101.216 432.961 101.216C430.983 101.216 429.086 100.43 427.687 99.0318V99.0318Z" fill="#F9ED80"/>
<path d="M345.862 64.9939C344.057 64.1865 342.646 62.695 341.94 60.8474C341.234 58.9999 341.291 56.9476 342.098 55.1419L355.408 25.374C356.23 23.5905 357.721 22.203 359.559 21.5125C361.397 20.822 363.434 20.8842 365.226 21.6857C367.019 22.4872 368.423 23.9632 369.134 25.7935C369.845 27.6238 369.805 29.6606 369.024 31.462L355.714 61.2299C354.907 63.0353 353.415 64.446 351.567 65.1518C349.72 65.8576 347.668 65.8009 345.862 64.9939V64.9939Z" fill="#F9ED80"/>
<path d="M373.515 116.266C370.681 114.292 367.415 113.027 363.992 112.578C360.568 112.129 357.086 112.508 353.839 113.684C350.592 114.86 347.675 116.798 345.333 119.335C342.991 121.873 341.292 124.935 340.379 128.266C341.168 125.522 341.403 122.648 341.073 119.813C340.742 116.977 339.852 114.235 338.453 111.746C337.055 109.256 335.176 107.07 332.926 105.312C330.676 103.555 328.099 102.262 325.345 101.508C322.591 100.754 319.715 100.555 316.884 100.921C314.052 101.287 311.322 102.212 308.851 103.642C306.379 105.072 304.216 106.978 302.488 109.25C300.759 111.522 299.498 114.115 298.779 116.878L269.279 224.671L289.19 235.771C313.451 187.43 343.009 146.417 373.515 116.266Z" fill="#FFBE9C"/>
<path d="M256.096 379.687C267.447 416.009 290.104 447.755 320.763 470.297C351.422 492.839 388.481 504.998 426.535 505H503.196V351.739H447.216C443.244 351.738 439.326 350.821 435.766 349.059C432.207 347.298 429.101 344.738 426.692 341.58C424.283 338.423 422.635 334.752 421.876 330.853C421.117 326.954 421.268 322.933 422.316 319.102L435.695 270.222L269.269 224.671L256.096 272.8V379.687Z" fill="#FF748F"/>
<path d="M106.655 272.294C82.7611 233.277 67.7411 186.275 65.0411 135.349C61.9808 135.741 59.0403 136.785 56.4185 138.411C53.7966 140.037 51.5545 142.208 49.8437 144.775C48.1329 147.343 46.9933 150.247 46.5021 153.293C46.0108 156.339 46.1793 159.455 46.9961 162.43L54.5061 189.869L36.3361 194.844C30.7977 196.379 26.0935 200.046 23.2546 205.043C20.4156 210.04 19.6734 215.958 21.1907 221.501C22.708 227.045 26.361 231.76 31.349 234.614C36.3371 237.469 42.2533 238.229 47.8011 236.729L65.9761 231.754L76.5061 270.223L106.655 272.294Z" fill="#C7856A"/>
<path d="M284.596 245.094C286.909 240.261 289.276 235.5 291.696 230.812L269.263 224.672L256.096 272.8V317.923C263.766 292.97 273.293 268.625 284.596 245.094V245.094Z" fill="#FD5F7E"/>
<path d="M257.877 279.3L242.923 224.666L76.5051 270.223L89.8841 319.1C90.9328 322.931 91.0835 326.952 90.3245 330.851C89.5655 334.75 87.9173 338.421 85.5081 341.578C83.0989 344.736 79.9936 347.296 76.4339 349.058C72.8742 350.82 68.956 351.736 64.9841 351.737H8.99609V505H85.6561C113.126 505 140.225 498.662 164.846 486.479C189.466 474.297 210.944 456.598 227.607 434.759C244.271 412.921 255.671 387.533 260.921 360.569C266.171 333.606 265.13 305.795 257.877 279.3V279.3Z" fill="#78CBEC"/>
<path d="M101.444 263.4L76.5051 270.226L89.8841 319.1C90.9328 322.931 91.0835 326.952 90.3245 330.851C89.5655 334.75 87.9173 338.421 85.5081 341.578C83.0989 344.736 79.9936 347.296 76.4339 349.058C72.8742 350.82 68.956 351.736 64.9841 351.737H8.99609V505H85.6561C123.783 504.998 160.909 492.794 191.6 470.173C222.292 447.552 244.938 415.702 256.224 379.284C191.57 368.216 135.874 324.765 101.444 263.396V263.4Z" fill="#34B5E1"/>
</svg>
