<svg width="512" height="512" viewBox="0 0 512 512" fill="none" xmlns="http://www.w3.org/2000/svg">
<path d="M142.938 512H114.282C112.069 512 109.947 511.121 108.382 509.556C106.817 507.992 105.938 505.869 105.938 503.656V481.722C105.902 464.316 110.666 447.236 119.706 432.361C128.746 417.486 141.713 405.391 157.18 397.406L174.22 430.248C164.778 435.123 156.862 442.507 151.343 451.588C145.824 460.669 142.916 471.096 142.937 481.722V512H142.938Z" fill="#5EC08B"/>
<path opacity="0.15" d="M142.938 512H114.282C112.069 512 109.947 511.121 108.382 509.556C106.817 507.992 105.938 505.869 105.938 503.656V481.722C105.902 464.316 110.666 447.236 119.706 432.361C128.746 417.486 141.713 405.391 157.18 397.406L174.22 430.248C164.778 435.123 156.862 442.507 151.343 451.588C145.824 460.669 142.916 471.096 142.937 481.722V512H142.938Z" fill="black"/>
<path d="M369.844 512H398.5C400.713 512 402.835 511.121 404.4 509.556C405.965 507.992 406.844 505.869 406.844 503.656V481.722C406.88 464.316 402.116 447.236 393.076 432.361C384.036 417.486 371.069 405.391 355.602 397.406L338.562 430.248C348.004 435.123 355.92 442.507 361.439 451.588C366.958 460.669 369.866 471.096 369.845 481.722V512H369.844Z" fill="#5EC08B"/>
<path opacity="0.15" d="M369.844 512H398.5C400.713 512 402.835 511.121 404.4 509.556C405.965 507.992 406.844 505.869 406.844 503.656V481.722C406.88 464.316 402.116 447.236 393.076 432.361C384.036 417.486 371.069 405.391 355.602 397.406L338.562 430.248C348.004 435.123 355.92 442.507 361.439 451.588C366.958 460.669 369.866 471.096 369.845 481.722V512H369.844Z" fill="black"/>
<path d="M256.391 322.422C226.239 322.422 197.321 334.4 176.001 355.721C154.68 377.041 142.702 405.959 142.702 436.111V512H370.08V436.112C370.08 405.96 358.102 377.042 336.781 355.721C315.46 334.4 286.543 322.422 256.391 322.422V322.422Z" fill="#5EC08B"/>
<g opacity="0.1">
<path opacity="0.1" d="M183.714 457.83C182.559 457.832 181.419 457.566 180.383 457.054C179.348 456.542 178.445 455.797 177.745 454.878L167.245 441.112C166.038 439.531 165.509 437.535 165.774 435.563C166.039 433.592 167.076 431.806 168.658 430.599C170.239 429.392 172.236 428.863 174.207 429.128C176.179 429.393 177.964 430.431 179.171 432.012L189.671 445.778C190.519 446.889 191.039 448.215 191.173 449.606C191.308 450.997 191.051 452.398 190.431 453.651C189.812 454.904 188.855 455.959 187.668 456.697C186.481 457.435 185.112 457.826 183.714 457.827V457.83Z" fill="black"/>
<path opacity="0.1" d="M209.844 497.343C208.241 497.345 206.681 496.833 205.39 495.883C204.099 494.933 203.147 493.594 202.673 492.063C202.199 490.532 202.227 488.89 202.754 487.376C203.281 485.863 204.279 484.558 205.602 483.653L214.621 477.482C216.263 476.359 218.283 475.934 220.239 476.3C222.194 476.667 223.923 477.795 225.047 479.437C226.17 481.078 226.595 483.099 226.229 485.054C225.862 487.009 224.734 488.739 223.092 489.862L214.073 496.033C212.828 496.887 211.354 497.344 209.844 497.343V497.343Z" fill="black"/>
<path opacity="0.1" d="M280.175 471.046C278.539 471.045 276.948 470.509 275.645 469.52C274.342 468.531 273.398 467.143 272.957 465.567L269.634 453.7C269.354 452.747 269.266 451.748 269.375 450.761C269.484 449.774 269.787 448.819 270.269 447.95C270.75 447.081 271.399 446.317 272.178 445.701C272.957 445.085 273.85 444.63 274.807 444.362C275.763 444.094 276.763 444.019 277.749 444.141C278.734 444.262 279.686 444.578 280.548 445.071C281.411 445.563 282.167 446.222 282.772 447.009C283.378 447.796 283.822 448.695 284.077 449.655L287.4 461.522C287.713 462.637 287.763 463.809 287.546 464.947C287.33 466.084 286.853 467.156 286.154 468.079C285.454 469.001 284.55 469.749 283.513 470.264C282.475 470.779 281.333 471.046 280.175 471.046V471.046Z" fill="black"/>
<path opacity="0.1" d="M332.918 489.585C331.667 489.584 330.436 489.271 329.336 488.673C328.237 488.075 327.305 487.212 326.625 486.162C325.945 485.111 325.539 483.908 325.443 482.66C325.347 481.413 325.564 480.161 326.076 479.019L332.247 465.232C332.647 464.329 333.221 463.513 333.936 462.833C334.652 462.152 335.495 461.619 336.417 461.265C337.339 460.911 338.321 460.743 339.309 460.769C340.296 460.796 341.268 461.018 342.17 461.421C343.071 461.825 343.884 462.402 344.562 463.121C345.239 463.839 345.768 464.684 346.118 465.608C346.469 466.531 346.633 467.515 346.602 468.502C346.571 469.489 346.345 470.46 345.938 471.36L339.767 485.147C339.176 486.469 338.214 487.592 336.999 488.379C335.784 489.167 334.366 489.585 332.918 489.585V489.585Z" fill="black"/>
<path opacity="0.1" d="M314.403 425.632C313.144 425.633 311.906 425.315 310.803 424.709L295.139 416.131C294.259 415.667 293.481 415.033 292.848 414.265C292.216 413.497 291.743 412.611 291.456 411.659C291.169 410.706 291.075 409.706 291.178 408.717C291.282 407.728 291.581 406.769 292.058 405.897C292.536 405.024 293.182 404.255 293.96 403.635C294.737 403.014 295.63 402.555 296.587 402.283C297.544 402.011 298.545 401.932 299.532 402.051C300.52 402.169 301.474 402.483 302.339 402.974L318.003 411.552C319.465 412.352 320.619 413.616 321.283 415.145C321.947 416.673 322.083 418.38 321.669 419.994C321.255 421.609 320.315 423.039 318.998 424.06C317.681 425.081 316.061 425.634 314.394 425.632H314.403Z" fill="black"/>
<path opacity="0.1" d="M213.332 425.486C211.865 425.486 210.431 425.055 209.207 424.248C207.982 423.441 207.021 422.293 206.443 420.946C205.864 419.598 205.693 418.11 205.951 416.667C206.209 415.223 206.884 413.887 207.894 412.823L215.763 404.533C216.438 403.807 217.251 403.223 218.153 402.813C219.056 402.404 220.031 402.177 221.021 402.146C222.012 402.116 222.999 402.282 223.925 402.635C224.851 402.988 225.698 403.521 226.417 404.203C227.136 404.886 227.712 405.704 228.113 406.61C228.514 407.517 228.731 408.494 228.752 409.485C228.772 410.476 228.597 411.461 228.234 412.384C227.872 413.306 227.331 414.148 226.641 414.86L218.772 423.149C218.072 423.889 217.229 424.477 216.293 424.879C215.358 425.281 214.35 425.488 213.332 425.486V425.486Z" fill="black"/>
</g>
<path opacity="0.5" d="M256.391 322.422C239.216 322.406 222.261 326.29 206.805 333.779C191.348 341.268 177.794 352.169 167.162 365.658C194.311 381.263 225.077 389.475 256.391 389.475C287.705 389.475 318.471 381.263 345.62 365.658C334.988 352.169 321.434 341.269 305.977 333.779C290.521 326.29 273.566 322.407 256.391 322.422V322.422Z" fill="white"/>
<path opacity="0.1" d="M296.529 335.869C296.126 334.962 295.548 334.144 294.827 333.462C294.106 332.781 293.257 332.249 292.329 331.897C291.401 331.546 290.413 331.383 289.421 331.416C288.43 331.449 287.454 331.679 286.552 332.092C285.65 332.505 284.839 333.093 284.165 333.822C283.492 334.551 282.97 335.406 282.63 336.338C282.289 337.27 282.137 338.26 282.182 339.251C282.227 340.242 282.468 341.215 282.891 342.112L301.891 383.617C306.795 382.33 311.613 380.843 316.345 379.155L296.529 335.869ZM226.195 332.169C225.299 331.759 224.332 331.53 223.347 331.494C222.363 331.458 221.381 331.616 220.458 331.96C219.535 332.303 218.689 332.826 217.967 333.496C217.246 334.167 216.664 334.973 216.254 335.869L196.439 379.155C201.169 380.838 205.987 382.326 210.893 383.617L229.893 342.112C230.303 341.216 230.532 340.248 230.568 339.264C230.604 338.279 230.445 337.298 230.101 336.375C229.757 335.451 229.235 334.605 228.564 333.884C227.893 333.162 227.087 332.58 226.191 332.171L226.195 332.169ZM256.395 330.63C254.406 330.63 252.498 331.42 251.092 332.827C249.685 334.233 248.895 336.141 248.895 338.13V389.3C251.384 389.4 253.881 389.473 256.395 389.473C258.909 389.473 261.406 389.403 263.895 389.3V338.132C263.895 337.147 263.701 336.171 263.324 335.261C262.947 334.351 262.394 333.524 261.697 332.827C261 332.131 260.173 331.578 259.262 331.202C258.352 330.825 257.376 330.631 256.391 330.632L256.395 330.63Z" fill="black"/>
<path opacity="0.1" d="M256.391 322.422C226.453 322.384 197.717 334.194 176.458 355.274C201.285 367.655 228.648 374.1 256.391 374.1C284.134 374.1 311.497 367.655 336.324 355.274C315.065 334.195 286.329 322.384 256.391 322.422Z" fill="black"/>
<path d="M77.541 210.631C94.9606 210.631 109.082 196.509 109.082 179.09C109.082 161.67 94.9606 147.549 77.541 147.549C60.1214 147.549 46 161.67 46 179.09C46 196.509 60.1214 210.631 77.541 210.631Z" fill="#FFD4B8"/>
<path d="M435.241 210.631C452.661 210.631 466.782 196.509 466.782 179.09C466.782 161.67 452.661 147.549 435.241 147.549C417.822 147.549 403.7 161.67 403.7 179.09C403.7 196.509 417.822 210.631 435.241 210.631Z" fill="#FFD4B8"/>
<path d="M256.391 357.7C355.167 357.7 435.241 277.626 435.241 178.85C435.241 80.0739 355.167 0 256.391 0C157.615 0 77.541 80.0739 77.541 178.85C77.541 277.626 157.615 357.7 256.391 357.7Z" fill="#FFD4B8"/>
<path d="M104.991 83.6201C87.0102 112.125 77.4912 145.148 77.541 178.85C77.541 182.05 77.6256 185.232 77.795 188.396C90.1475 188.334 102.133 184.189 111.884 176.607C121.636 169.024 128.606 158.429 131.71 146.473C134.813 134.516 133.876 121.869 129.043 110.501C124.21 99.1329 115.754 89.6819 104.991 83.6201V83.6201Z" fill="#BCBCBC"/>
<path d="M407.791 83.6201C425.771 112.125 435.289 145.149 435.238 178.85C435.238 182.05 435.153 185.232 434.984 188.396C422.632 188.334 410.647 184.188 400.896 176.605C391.145 169.022 384.175 158.428 381.072 146.471C377.969 134.515 378.907 121.868 383.739 110.5C388.572 99.1325 397.028 89.6818 407.791 83.6201V83.6201Z" fill="#BCBCBC"/>
<path d="M165.701 174.212C163.712 174.212 161.804 173.422 160.398 172.015C158.991 170.609 158.201 168.701 158.201 166.712V148.894C158.201 146.905 158.991 144.997 160.398 143.591C161.804 142.184 163.712 141.394 165.701 141.394C167.69 141.394 169.598 142.184 171.004 143.591C172.411 144.997 173.201 146.905 173.201 148.894V166.712C173.201 168.701 172.411 170.609 171.004 172.015C169.598 173.422 167.69 174.212 165.701 174.212V174.212Z" fill="#4A5058"/>
<path d="M347.081 174.212C345.092 174.212 343.184 173.422 341.778 172.015C340.371 170.609 339.581 168.701 339.581 166.712V148.894C339.581 146.905 340.371 144.997 341.778 143.591C343.184 142.184 345.092 141.394 347.081 141.394C349.07 141.394 350.978 142.184 352.384 143.591C353.791 144.997 354.581 146.905 354.581 148.894V166.712C354.581 168.701 353.791 170.609 352.384 172.015C350.978 173.422 349.07 174.212 347.081 174.212V174.212Z" fill="#4A5058"/>
<path d="M256.391 223.355C251.816 223.347 247.29 222.403 243.093 220.582C238.895 218.762 235.114 216.102 231.982 212.767C230.622 211.315 229.895 209.383 229.96 207.395C230.025 205.406 230.877 203.525 232.328 202.166C233.78 200.806 235.713 200.078 237.701 200.143C239.689 200.208 241.57 201.06 242.93 202.512C244.654 204.356 246.739 205.826 249.054 206.831C251.37 207.837 253.868 208.355 256.392 208.355C258.916 208.355 261.414 207.837 263.73 206.831C266.045 205.826 268.13 204.356 269.854 202.512C271.214 201.06 273.095 200.208 275.083 200.143C277.071 200.078 279.004 200.806 280.455 202.166C281.907 203.525 282.759 205.406 282.824 207.395C282.889 209.383 282.162 211.315 280.802 212.767C277.669 216.102 273.888 218.762 269.69 220.582C265.492 222.403 260.967 223.347 256.391 223.355Z" fill="#4A5058"/>
<path opacity="0.1" d="M282.896 335.122C247.786 335.124 213.451 324.791 184.174 305.411C154.896 286.032 131.971 258.463 118.256 226.142C104.541 193.821 100.643 158.179 107.048 123.657C113.453 89.136 129.877 57.2638 154.274 32.0142C133.785 46.2612 116.504 64.6386 103.543 85.9645C90.5813 107.29 82.2266 131.093 79.0157 155.841C75.8047 180.589 77.8086 205.736 84.8985 229.663C91.9884 253.591 104.007 275.769 120.182 294.773C136.358 313.778 156.331 329.186 178.818 340.008C201.305 350.831 225.808 356.827 250.751 357.612C275.695 358.397 300.526 353.953 323.649 344.567C346.772 335.18 367.675 321.057 385.013 303.108C355.063 324.001 319.413 335.178 282.896 335.122Z" fill="#513130"/>
<g opacity="0.1">
<path opacity="0.1" d="M315.7 105.69C305.028 105.69 297.306 103.951 289.131 102.109C280.231 100.109 271.031 98.0312 256.392 98.0312C241.753 98.0312 232.553 100.104 223.653 102.109C215.477 103.951 207.753 105.69 197.084 105.69C195.095 105.69 193.187 104.9 191.781 103.494C190.374 102.087 189.584 100.179 189.584 98.1903C189.584 96.2011 190.374 94.2935 191.781 92.8869C193.187 91.4804 195.095 90.6903 197.084 90.6903C206.084 90.6903 212.7 89.2002 220.357 87.4762C229.605 85.3922 240.087 83.0312 256.392 83.0312C272.697 83.0312 283.179 85.3922 292.427 87.4762C300.084 89.2012 306.698 90.6903 315.7 90.6903C317.689 90.6903 319.597 91.4804 321.003 92.8869C322.41 94.2935 323.2 96.2011 323.2 98.1903C323.2 100.179 322.41 102.087 321.003 103.494C319.597 104.9 317.689 105.69 315.7 105.69V105.69Z" fill="#513130"/>
<path opacity="0.1" d="M302.671 73.2711C302.285 73.271 301.899 73.2412 301.517 73.1821C297.172 72.5111 293.084 71.5901 289.131 70.6991C280.231 68.6991 271.031 66.6211 256.391 66.6211C241.751 66.6211 232.551 68.6941 223.651 70.6991C219.698 71.5901 215.61 72.5111 211.265 73.1821C210.291 73.3338 209.297 73.2921 208.339 73.0593C207.381 72.8265 206.479 72.4072 205.683 71.8253C204.887 71.2434 204.214 70.5105 203.702 69.6682C203.19 68.826 202.849 67.8911 202.698 66.917C202.548 65.9429 202.591 64.9486 202.825 63.9911C203.059 63.0336 203.479 62.1316 204.062 61.3367C204.645 60.5418 205.379 59.8696 206.222 59.3585C207.064 58.8474 208 58.5074 208.974 58.3581C212.813 57.7651 216.474 56.9401 220.355 56.0661C229.604 53.9831 240.086 51.6211 256.391 51.6211C272.696 51.6211 283.178 53.9821 292.427 56.0661C296.306 56.9401 299.969 57.7661 303.808 58.3581C305.676 58.6451 307.367 59.627 308.542 61.1071C309.718 62.5873 310.291 64.4567 310.147 66.3413C310.004 68.2259 309.154 69.9867 307.767 71.2716C306.381 72.5565 304.561 73.2706 302.671 73.2711V73.2711Z" fill="#513130"/>
</g>
</svg>
