<svg width="512" height="512" viewBox="0 0 512 512" fill="none" xmlns="http://www.w3.org/2000/svg">
<path d="M273.205 94.36C299.262 94.36 320.385 73.2368 320.385 47.18C320.385 21.1232 299.262 0 273.205 0C247.149 0 226.025 21.1232 226.025 47.18C226.025 73.2368 247.149 94.36 273.205 94.36Z" fill="#BCBCBC"/>
<path opacity="0.1" d="M273.205 94.36C299.262 94.36 320.385 73.2368 320.385 47.18C320.385 21.1232 299.262 0 273.205 0C247.149 0 226.025 21.1232 226.025 47.18C226.025 73.2368 247.149 94.36 273.205 94.36Z" fill="black"/>
<path d="M378.97 512H404.661C406.757 512 408.766 511.168 410.247 509.686C411.729 508.205 412.561 506.195 412.561 504.1V484.412C412.561 468.59 408.782 452.997 401.538 438.93C394.295 424.863 383.797 412.73 370.917 403.54L369.317 402.4L349.808 429.745L351.398 430.879C359.925 436.962 366.874 444.994 371.67 454.305C376.465 463.617 378.966 473.939 378.966 484.413V512H378.97Z" fill="#DF85C6"/>
<path opacity="0.15" d="M378.97 512H404.661C406.757 512 408.766 511.168 410.247 509.686C411.729 508.205 412.561 506.195 412.561 504.1V484.412C412.561 468.59 408.782 452.997 401.538 438.93C394.295 424.863 383.797 412.73 370.917 403.54L369.317 402.4L349.808 429.745L351.398 430.879C359.925 436.962 366.874 444.994 371.67 454.305C376.465 463.617 378.966 473.939 378.966 484.413V512H378.97Z" fill="black"/>
<path d="M97.1104 322.167L111.01 398.567C111.89 403.293 114.515 407.514 118.365 410.392C122.215 413.27 127.007 414.594 131.788 414.1L174.459 409.53C179.966 408.94 185.481 410.562 189.791 414.039C194.102 417.515 196.855 422.562 197.444 428.068C198.034 433.574 196.412 439.089 192.936 443.4C189.459 447.71 184.413 450.463 178.906 451.053L136.235 455.623C120.965 457.254 105.642 453.049 93.3426 443.852C81.0433 434.655 72.6776 421.146 69.9244 406.037L56.0244 329.637L97.1104 322.167Z" fill="#DF85C6"/>
<path opacity="0.15" d="M97.1104 322.167L111.01 398.567C111.89 403.293 114.515 407.514 118.365 410.392C122.215 413.27 127.007 414.594 131.788 414.1L174.459 409.53C179.966 408.94 185.481 410.562 189.791 414.039C194.102 417.515 196.855 422.562 197.444 428.068C198.034 433.574 196.412 439.089 192.936 443.4C189.459 447.71 184.413 450.463 178.906 451.053L136.235 455.623C120.965 457.254 105.642 453.049 93.3426 443.852C81.0433 434.655 72.6776 421.146 69.9244 406.037L56.0244 329.637L97.1104 322.167Z" fill="black"/>
<path d="M273.203 330.554C287.493 330.554 301.643 333.369 314.845 338.837C328.047 344.305 340.042 352.32 350.146 362.424C360.251 372.529 368.266 384.524 373.734 397.726C379.203 410.928 382.017 425.078 382.017 439.367V512H172.289C170.194 512 168.185 511.168 166.703 509.686C165.222 508.205 164.389 506.195 164.389 504.1V439.367C164.389 425.078 167.204 410.928 172.672 397.726C178.141 384.524 186.156 372.529 196.26 362.424C206.365 352.32 218.36 344.305 231.562 338.837C244.764 333.369 258.914 330.554 273.203 330.554V330.554Z" fill="#DF85C6"/>
<g opacity="0.1">
<path opacity="0.1" d="M214.417 434.271C212.637 434.273 210.915 433.639 209.561 432.483L200.752 424.989C199.993 424.353 199.368 423.574 198.911 422.695C198.455 421.817 198.177 420.857 198.094 419.871C198.011 418.884 198.123 417.891 198.426 416.949C198.728 416.006 199.214 415.133 199.855 414.379C200.497 413.625 201.281 413.005 202.163 412.556C203.045 412.107 204.007 411.836 204.994 411.761C205.981 411.685 206.973 411.806 207.914 412.115C208.854 412.425 209.723 412.918 210.472 413.565L219.281 421.059C220.45 422.054 221.286 423.383 221.675 424.868C222.065 426.353 221.989 427.921 221.459 429.362C220.929 430.803 219.969 432.046 218.71 432.923C217.451 433.801 215.952 434.272 214.417 434.271V434.271Z" fill="black"/>
<path opacity="0.1" d="M342.772 486.09C341.175 486.091 339.619 485.582 338.331 484.638C337.043 483.694 336.09 482.363 335.611 480.839C335.132 479.316 335.152 477.679 335.668 476.167C336.184 474.656 337.169 473.349 338.479 472.436L349.24 464.942C350.048 464.364 350.962 463.953 351.929 463.732C352.897 463.51 353.899 463.483 354.877 463.652C355.856 463.821 356.79 464.182 357.628 464.715C358.465 465.248 359.189 465.942 359.756 466.757C360.324 467.571 360.723 468.49 360.933 469.461C361.142 470.431 361.157 471.433 360.976 472.409C360.795 473.385 360.423 474.316 359.879 475.147C359.336 475.978 358.634 476.692 357.812 477.25L347.051 484.744C345.797 485.621 344.303 486.091 342.772 486.09V486.09Z" fill="black"/>
<path opacity="0.1" d="M334.624 418.631C333.309 418.632 332.017 418.287 330.878 417.632C329.738 416.976 328.791 416.032 328.131 414.895L321.901 404.165C321.398 403.313 321.069 402.37 320.933 401.39C320.796 400.41 320.854 399.413 321.105 398.455C321.355 397.498 321.792 396.6 322.391 395.813C322.99 395.025 323.739 394.364 324.595 393.867C325.451 393.371 326.396 393.048 327.377 392.918C328.358 392.789 329.355 392.854 330.31 393.111C331.265 393.368 332.16 393.812 332.944 394.417C333.727 395.021 334.383 395.775 334.873 396.634L341.103 407.364C341.765 408.503 342.115 409.797 342.118 411.115C342.121 412.432 341.776 413.727 341.12 414.87C340.463 416.012 339.517 416.961 338.376 417.621C337.236 418.282 335.942 418.63 334.624 418.631V418.631Z" fill="black"/>
<path opacity="0.1" d="M200.706 492.451C199.467 492.451 198.246 492.144 197.155 491.556C196.063 490.969 195.134 490.121 194.45 489.087C193.767 488.053 193.35 486.865 193.238 485.631C193.125 484.396 193.321 483.153 193.806 482.013L198.588 470.772C198.961 469.848 199.515 469.007 200.216 468.299C200.918 467.591 201.754 467.03 202.675 466.648C203.596 466.267 204.583 466.073 205.58 466.078C206.577 466.083 207.563 466.287 208.48 466.677C209.397 467.067 210.227 467.636 210.922 468.351C211.617 469.066 212.162 469.912 212.526 470.84C212.89 471.768 213.065 472.759 213.041 473.756C213.018 474.752 212.796 475.734 212.388 476.644L207.606 487.885C207.031 489.239 206.07 490.394 204.843 491.206C203.616 492.017 202.177 492.45 200.706 492.451V492.451Z" fill="black"/>
</g>
<path opacity="0.1" d="M326.509 350.46L292.39 393.169C290.09 396.049 287.171 398.374 283.849 399.972C280.528 401.57 276.889 402.399 273.203 402.399C269.517 402.399 265.879 401.57 262.557 399.972C259.236 398.374 256.317 396.049 254.016 393.169L219.897 350.46H326.509Z" fill="black"/>
<path opacity="0.1" d="M273.203 330.554C258.379 330.536 243.709 333.557 230.098 339.428C216.486 345.3 204.223 353.899 194.063 364.694C218.218 378.309 245.476 385.462 273.203 385.462C300.93 385.462 328.189 378.309 352.343 364.694C342.184 353.899 329.92 345.301 316.308 339.429C302.697 333.557 288.027 330.537 273.203 330.554V330.554Z" fill="black"/>
<path d="M112.175 236.819C127.86 236.819 140.574 224.104 140.574 208.42C140.574 192.736 127.86 180.021 112.175 180.021C96.491 180.021 83.7764 192.736 83.7764 208.42C83.7764 224.104 96.491 236.819 112.175 236.819Z" fill="#FFD4B8"/>
<path d="M434.235 236.819C449.92 236.819 462.634 224.104 462.634 208.42C462.634 192.736 449.92 180.021 434.235 180.021C418.551 180.021 405.836 192.736 405.836 208.42C405.836 224.104 418.551 236.819 434.235 236.819Z" fill="#FFD4B8"/>
<path d="M273.205 369.24C362.14 369.24 434.235 297.145 434.235 208.21C434.235 119.276 362.14 47.1802 273.205 47.1802C184.271 47.1802 112.175 119.276 112.175 208.21C112.175 297.145 184.271 369.24 273.205 369.24Z" fill="#FFD4B8"/>
<path d="M273.203 47.1831C239.152 47.1853 205.977 57.9775 178.442 78.0101C150.907 98.0428 130.429 126.286 119.946 158.683C153.579 177.722 220.528 194.398 273.203 141.983C325.878 194.397 392.827 177.721 426.46 158.683C415.978 126.286 395.499 98.043 367.964 78.0103C340.429 57.9777 307.254 47.1854 273.203 47.1831V47.1831Z" fill="#BCBCBC"/>
<path d="M273.203 268.19C268.982 268.182 264.806 267.312 260.933 265.632C257.06 263.952 253.571 261.498 250.681 258.421C250.008 257.702 249.483 256.858 249.136 255.936C248.788 255.014 248.626 254.033 248.658 253.049C248.69 252.065 248.916 251.096 249.322 250.199C249.729 249.302 250.308 248.493 251.026 247.82C251.745 247.147 252.589 246.621 253.511 246.274C254.433 245.927 255.414 245.765 256.398 245.797C257.383 245.829 258.351 246.055 259.248 246.461C260.146 246.867 260.954 247.446 261.627 248.165C263.11 249.751 264.902 251.015 266.893 251.88C268.885 252.744 271.032 253.19 273.203 253.19C275.374 253.19 277.522 252.744 279.513 251.88C281.504 251.015 283.297 249.751 284.779 248.165C285.453 247.446 286.261 246.867 287.158 246.461C288.056 246.055 289.024 245.829 290.008 245.797C290.993 245.765 291.974 245.927 292.896 246.274C293.817 246.621 294.662 247.147 295.38 247.82C296.099 248.493 296.678 249.302 297.084 250.199C297.491 251.096 297.716 252.065 297.748 253.049C297.78 254.033 297.618 255.014 297.271 255.936C296.924 256.858 296.399 257.702 295.725 258.421C292.835 261.498 289.346 263.952 285.473 265.632C281.6 267.312 277.425 268.182 273.203 268.19Z" fill="#4A5058"/>
<path d="M206.094 223.489C204.105 223.489 202.198 222.699 200.791 221.292C199.385 219.886 198.594 217.978 198.594 215.989C198.606 215.057 198.431 214.131 198.082 213.267C197.733 212.402 197.216 211.616 196.561 210.952C195.905 210.289 195.125 209.763 194.265 209.403C193.404 209.044 192.481 208.859 191.549 208.859C190.617 208.859 189.693 209.044 188.833 209.403C187.973 209.763 187.192 210.289 186.537 210.952C185.882 211.616 185.365 212.402 185.015 213.267C184.666 214.131 184.492 215.057 184.503 215.989C184.503 217.978 183.713 219.886 182.307 221.292C180.9 222.699 178.993 223.489 177.003 223.489C175.014 223.489 173.107 222.699 171.7 221.292C170.294 219.886 169.503 217.978 169.503 215.989C169.484 213.081 170.04 210.199 171.139 207.507C172.238 204.815 173.859 202.367 175.908 200.304C177.957 198.241 180.394 196.604 183.078 195.487C185.762 194.37 188.641 193.794 191.549 193.794C194.457 193.794 197.335 194.37 200.02 195.487C202.704 196.604 205.141 198.241 207.19 200.304C209.239 202.367 210.86 204.815 211.959 207.507C213.058 210.199 213.614 213.081 213.594 215.989C213.594 217.978 212.804 219.886 211.398 221.292C209.991 222.699 208.084 223.489 206.094 223.489Z" fill="#4A5058"/>
<path d="M369.403 223.489C367.413 223.489 365.506 222.699 364.099 221.292C362.693 219.886 361.903 217.978 361.903 215.989C361.903 214.12 361.16 212.328 359.839 211.007C358.517 209.685 356.725 208.943 354.857 208.943C352.988 208.943 351.196 209.685 349.874 211.007C348.553 212.328 347.811 214.12 347.811 215.989C347.811 217.978 347.02 219.886 345.614 221.292C344.207 222.699 342.3 223.489 340.311 223.489C338.321 223.489 336.414 222.699 335.007 221.292C333.601 219.886 332.811 217.978 332.811 215.989C332.811 210.142 335.133 204.534 339.268 200.4C343.402 196.266 349.01 193.943 354.857 193.943C360.703 193.943 366.311 196.266 370.445 200.4C374.58 204.534 376.903 210.142 376.903 215.989C376.903 217.978 376.112 219.886 374.706 221.292C373.299 222.699 371.392 223.489 369.403 223.489Z" fill="#4A5058"/>
<path opacity="0.1" d="M297.067 348.913C265.455 348.915 234.542 339.611 208.182 322.163C181.822 304.714 161.18 279.892 148.832 250.792C136.483 221.692 132.974 189.6 138.74 158.519C144.507 127.437 159.296 98.7405 181.261 76.0068C162.814 88.8346 147.256 105.381 135.587 124.582C123.918 143.783 116.396 165.213 113.506 187.495C110.615 209.777 112.419 232.417 118.803 253.96C125.186 275.503 136.008 295.471 150.571 312.581C165.134 329.691 183.116 343.564 203.362 353.308C223.608 363.052 245.669 368.451 268.127 369.159C290.584 369.866 312.941 365.865 333.76 357.414C354.579 348.963 373.399 336.249 389.009 320.089C362.044 338.9 329.946 348.962 297.067 348.913Z" fill="#513130"/>
<path d="M76.5433 346.789C71.6577 346.782 66.9291 345.063 63.1801 341.93C59.4311 338.798 56.899 334.45 56.0243 329.643L50.3413 298.406C49.3499 292.958 50.5635 287.339 53.715 282.785C56.8666 278.231 61.698 275.116 67.1463 274.125C72.5947 273.134 78.2137 274.347 82.7672 277.499C87.3208 280.65 90.4359 285.482 91.4273 290.93L97.1103 322.167C97.6552 325.178 97.5324 328.272 96.7504 331.23C95.9683 334.189 94.5463 336.939 92.5846 339.288C90.623 341.636 88.1696 343.525 85.3977 344.821C82.6259 346.117 79.6032 346.789 76.5433 346.789V346.789Z" fill="#FFD4B8"/>
<g opacity="0.1">
<path opacity="0.1" d="M181.617 271.658C179.628 271.658 177.72 270.867 176.314 269.461C174.907 268.054 174.117 266.147 174.117 264.158C174.117 262.168 174.907 260.261 176.314 258.854C177.72 257.448 179.628 256.658 181.617 256.658C188.324 256.658 202.602 248.877 209.394 241.519C210.743 240.057 212.618 239.191 214.606 239.111C216.594 239.032 218.531 239.745 219.993 241.095C221.455 242.444 222.321 244.319 222.4 246.306C222.48 248.294 221.766 250.232 220.417 251.694C212.882 259.853 194.732 271.658 181.617 271.658Z" fill="#513130"/>
<path opacity="0.1" d="M364.79 271.658C351.675 271.658 333.524 259.858 325.99 251.694C325.316 250.971 324.791 250.123 324.445 249.196C324.1 248.27 323.941 247.285 323.978 246.297C324.014 245.31 324.246 244.339 324.659 243.441C325.072 242.543 325.659 241.736 326.385 241.065C327.111 240.395 327.963 239.874 328.891 239.534C329.819 239.194 330.805 239.04 331.792 239.083C332.78 239.125 333.749 239.362 334.645 239.78C335.541 240.198 336.345 240.789 337.011 241.519C343.803 248.876 358.081 256.658 364.788 256.658C366.777 256.658 368.685 257.448 370.091 258.854C371.498 260.261 372.288 262.169 372.288 264.158C372.288 266.147 371.498 268.055 370.091 269.461C368.685 270.868 366.777 271.658 364.788 271.658H364.79Z" fill="#513130"/>
</g>
<path d="M273.205 436.774C277.344 436.774 280.699 433.419 280.699 429.28C280.699 425.141 277.344 421.786 273.205 421.786C269.067 421.786 265.711 425.141 265.711 429.28C265.711 433.419 269.067 436.774 273.205 436.774Z" fill="white"/>
<path d="M273.205 491.834C277.344 491.834 280.699 488.479 280.699 484.34C280.699 480.201 277.344 476.846 273.205 476.846C269.067 476.846 265.711 480.201 265.711 484.34C265.711 488.479 269.067 491.834 273.205 491.834Z" fill="white"/>
</svg>
