<svg width="512" height="512" viewBox="0 0 512 512" fill="none" xmlns="http://www.w3.org/2000/svg">
<path d="M191.809 164.791C223.638 132.962 223.211 80.9279 190.854 48.5706C158.496 16.2133 106.462 15.7856 74.6327 47.6153C42.8031 79.445 43.2308 131.479 75.588 163.836C107.945 196.193 159.979 196.621 191.809 164.791Z" fill="#FF9DD3"/>
<path d="M182.571 134.104C128.222 134.104 84.163 96.3928 84.163 49.8728C84.1633 46.1934 84.4421 42.5192 84.997 38.8818C81.3054 41.4978 77.8402 44.4194 74.638 47.6158C42.808 79.4448 43.238 131.479 75.594 163.836C107.95 196.193 159.985 196.622 191.815 164.792C201.444 155.185 208.467 143.285 212.224 130.213C202.554 132.811 192.584 134.121 182.571 134.108V134.104Z" fill="#FF88CA"/>
<path d="M166.749 459.356H345.263V521.016H166.749V459.356Z" fill="#78CBEC"/>
<path d="M436.388 163.862C468.745 131.505 469.173 79.4714 437.343 47.6417C405.513 15.812 353.479 16.2397 321.122 48.597C288.765 80.9543 288.337 132.988 320.167 164.818C351.997 196.647 404.03 196.22 436.388 163.862Z" fill="#FF9DD3"/>
<path d="M47.6821 255.826C47.6821 140.956 141.136 47.502 256.006 47.502C370.876 47.502 464.331 140.956 464.331 255.826H47.6821Z" fill="#5C586F"/>
<path d="M256.006 255.824V427.674H131.169C87.059 427.674 52.869 389.404 57.449 345.524C60.5171 315.713 60.7381 285.677 58.109 255.824H256.006Z" fill="#4F4C5F"/>
<path d="M380.839 427.674H256.006V255.824H453.906C451.274 285.677 451.492 315.712 454.556 345.524C459.149 389.404 424.959 427.674 380.839 427.674Z" fill="#5C586F"/>
<path d="M110.74 236.884C110.711 201.755 118.762 167.091 134.271 135.571C149.78 104.051 172.331 76.5208 200.179 55.1089C112.332 79.5729 47.6792 160.287 47.6792 255.826H111.521C111.01 249.579 110.737 243.264 110.737 236.884H110.74Z" fill="#4F4C5F"/>
<path d="M425.459 317.775C452.596 317.775 474.595 295.776 474.595 268.639C474.595 241.502 452.596 219.503 425.459 219.503C398.322 219.503 376.323 241.502 376.323 268.639C376.323 295.776 398.322 317.775 425.459 317.775Z" fill="#FFBD86"/>
<path d="M376.323 478.693C376.323 405.193 333.995 383.822 333.995 383.822H178.017C178.017 383.822 135.689 405.195 135.689 478.693H376.323Z" fill="#78CBEC"/>
<path d="M98.3909 187.265C86.8743 213.766 82.2261 242.744 84.8762 271.518C87.5262 300.292 97.389 327.933 113.552 351.885C129.716 375.837 151.658 395.326 177.349 408.551C203.041 421.776 231.653 428.309 260.538 427.546C289.424 426.783 317.65 418.749 342.608 404.186C367.566 389.624 388.448 369.003 403.325 344.231C418.201 319.46 426.591 291.336 427.719 262.463C428.847 233.589 422.675 204.898 409.776 179.041C408.308 176.151 406.277 173.584 403.802 171.49C401.327 169.397 398.458 167.82 395.364 166.852C392.271 165.885 389.014 165.546 385.788 165.856C382.561 166.165 379.429 167.117 376.576 168.656C265.167 228.571 256.943 140.438 147.751 151.379C137.075 152.429 126.873 156.309 118.197 162.617C109.521 168.925 102.685 177.434 98.3939 187.265H98.3909Z" fill="#FED2A4"/>
<path d="M162.218 320.441C181.33 320.441 196.824 308.103 196.824 292.883C196.824 277.663 181.33 265.325 162.218 265.325C143.105 265.325 127.612 277.663 127.612 292.883C127.612 308.103 143.105 320.441 162.218 320.441Z" fill="#FF889E"/>
<path d="M349.794 320.441C368.906 320.441 384.4 308.103 384.4 292.883C384.4 277.663 368.906 265.325 349.794 265.325C330.682 265.325 315.188 277.663 315.188 292.883C315.188 308.103 330.682 320.441 349.794 320.441Z" fill="#FF889E"/>
<path d="M198.858 270.394C197.873 270.394 196.898 270.2 195.988 269.823C195.078 269.446 194.251 268.894 193.555 268.197C192.858 267.501 192.306 266.674 191.929 265.764C191.552 264.854 191.358 263.879 191.358 262.894C191.358 260.514 190.413 258.232 188.73 256.55C187.048 254.867 184.766 253.922 182.386 253.922C180.007 253.922 177.724 254.867 176.042 256.55C174.359 258.232 173.414 260.514 173.414 262.894C173.414 264.883 172.624 266.791 171.217 268.197C169.811 269.604 167.903 270.394 165.914 270.394C163.925 270.394 162.017 269.604 160.611 268.197C159.204 266.791 158.414 264.883 158.414 262.894C158.414 256.536 160.94 250.439 165.435 245.943C169.931 241.447 176.028 238.922 182.386 238.922C188.744 238.922 194.841 241.447 199.337 245.943C203.832 250.439 206.358 256.536 206.358 262.894C206.358 263.879 206.164 264.854 205.787 265.764C205.41 266.674 204.858 267.501 204.161 268.197C203.465 268.894 202.638 269.446 201.728 269.823C200.818 270.2 199.843 270.394 198.858 270.394V270.394Z" fill="#423E4F"/>
<path d="M346.097 270.394C345.112 270.394 344.137 270.2 343.227 269.823C342.317 269.446 341.49 268.894 340.794 268.197C340.097 267.501 339.545 266.674 339.168 265.764C338.791 264.854 338.597 263.879 338.597 262.894C338.597 260.514 337.652 258.232 335.969 256.55C334.286 254.867 332.004 253.922 329.625 253.922C327.245 253.922 324.963 254.867 323.281 256.55C321.598 258.232 320.653 260.514 320.653 262.894C320.653 264.883 319.863 266.791 318.456 268.197C317.05 269.604 315.142 270.394 313.153 270.394C311.164 270.394 309.256 269.604 307.85 268.197C306.443 266.791 305.653 264.883 305.653 262.894C305.653 256.536 308.178 250.439 312.674 245.943C317.17 241.447 323.267 238.922 329.625 238.922C335.983 238.922 342.08 241.447 346.576 245.943C351.071 250.439 353.597 256.536 353.597 262.894C353.597 263.879 353.403 264.854 353.026 265.764C352.649 266.674 352.097 267.501 351.4 268.197C350.704 268.894 349.877 269.446 348.967 269.823C348.057 270.2 347.082 270.394 346.097 270.394V270.394Z" fill="#423E4F"/>
<path d="M256.006 297.606C251.622 297.605 247.29 296.664 243.301 294.847C239.311 293.03 235.758 290.38 232.879 287.074C231.572 285.574 230.915 283.617 231.051 281.632C231.187 279.648 232.106 277.799 233.606 276.492C235.106 275.185 237.063 274.527 239.048 274.664C241.032 274.8 242.881 275.719 244.188 277.219C245.658 278.91 247.473 280.266 249.512 281.195C251.551 282.125 253.765 282.606 256.006 282.606C258.247 282.606 260.461 282.125 262.5 281.195C264.539 280.266 266.354 278.91 267.824 277.219C268.471 276.476 269.258 275.868 270.14 275.43C271.022 274.992 271.982 274.731 272.964 274.664C273.947 274.596 274.933 274.723 275.867 275.036C276.801 275.35 277.663 275.845 278.406 276.492C279.149 277.139 279.756 277.926 280.195 278.808C280.633 279.69 280.894 280.65 280.961 281.632C281.029 282.615 280.902 283.601 280.588 284.535C280.275 285.468 279.78 286.331 279.133 287.074C276.254 290.38 272.701 293.03 268.711 294.847C264.722 296.664 260.39 297.605 256.006 297.606V297.606Z" fill="#423E4F"/>
<path d="M140.048 508.674C135.028 502.073 132.835 493.748 133.952 485.531C135.07 477.314 139.405 469.877 146.006 464.856L194.978 427.609C201.579 422.588 209.904 420.396 218.121 421.513C226.338 422.631 233.775 426.967 238.796 433.568C243.816 440.169 246.009 448.494 244.891 456.711C243.774 464.928 239.438 472.365 232.837 477.386L183.866 514.633C180.598 517.119 176.872 518.937 172.901 519.983C168.93 521.029 164.792 521.282 160.723 520.729C156.654 520.176 152.734 518.826 149.186 516.758C145.639 514.689 142.534 511.942 140.048 508.674Z" fill="#C1E9FA"/>
<path d="M371.964 508.674C376.984 502.073 379.177 493.748 378.059 485.531C376.942 477.314 372.606 469.877 366.006 464.856L317.034 427.609C310.433 422.588 302.108 420.396 293.891 421.513C285.673 422.631 278.236 426.967 273.216 433.568C268.195 440.169 266.003 448.494 267.12 456.711C268.238 464.928 272.574 472.365 279.175 477.386L328.147 514.633C331.415 517.119 335.141 518.936 339.112 519.982C343.083 521.028 347.221 521.282 351.289 520.728C355.358 520.175 359.278 518.826 362.826 516.757C366.373 514.689 369.478 511.942 371.964 508.674V508.674Z" fill="#C1E9FA"/>
<path d="M228.006 388.066C220.58 388.066 213.458 391.016 208.207 396.267C202.956 401.518 200.006 408.64 200.006 416.066V448.366C200.006 455.793 202.956 462.916 208.208 468.167C213.46 473.419 220.582 476.369 228.009 476.369C235.436 476.369 242.559 473.419 247.811 468.167C253.062 462.916 256.013 455.793 256.013 448.366V416.066C256.013 408.64 253.063 401.518 247.812 396.267C242.561 391.016 235.439 388.066 228.013 388.066H228.006Z" fill="#FFBD86"/>
<path d="M284.006 388.066C291.432 388.066 298.554 391.016 303.805 396.267C309.056 401.518 312.006 408.64 312.006 416.066V448.366C312.006 455.793 309.056 462.916 303.804 468.167C298.552 473.419 291.43 476.369 284.003 476.369C276.576 476.369 269.453 473.419 264.201 468.167C258.949 462.916 255.999 455.793 255.999 448.366V416.066C255.999 408.64 258.949 401.518 264.2 396.267C269.451 391.016 276.573 388.066 283.999 388.066H284.006Z" fill="#FFAD6D"/>
<path d="M199.781 418.354C161.366 388.601 133.377 347.432 119.837 300.768C106.297 254.103 107.905 204.347 124.429 158.654C112.834 165.061 103.681 175.118 98.3909 187.263C93.8663 197.646 90.3874 208.455 88.0059 219.528C87.5219 219.514 87.0379 219.503 86.5499 219.503C79.7252 219.497 72.9743 220.914 66.7272 223.662C60.4802 226.41 54.8741 230.429 50.2662 235.463C45.6583 240.497 42.1496 246.436 39.9638 252.902C37.778 259.367 36.963 266.216 37.5707 273.014C38.1784 279.812 40.1954 286.408 43.4934 292.383C46.7913 298.358 51.2977 303.58 56.7255 307.717C62.1533 311.855 68.3834 314.816 75.0188 316.412C81.6542 318.008 88.5494 318.205 95.2649 316.989C104.172 340.524 118.155 361.807 136.219 379.327C154.283 396.846 175.984 410.171 199.781 418.354Z" fill="#FFBD86"/>
</svg>
