<svg width="512" height="512" viewBox="0 0 512 512" fill="none" xmlns="http://www.w3.org/2000/svg">
<path d="M416.181 177.375V259.853C416.181 298.353 430.785 335.42 457.046 363.574V363.574C458.579 365.218 459.669 367.225 460.213 369.406C460.757 371.587 460.737 373.871 460.155 376.042C459.573 378.213 458.448 380.201 456.886 381.817C455.324 383.434 453.377 384.627 451.227 385.283V385.283C312.77 427.568 164.843 427.568 26.3858 385.283V385.283C24.2358 384.627 22.2883 383.434 20.7264 381.817C19.1645 380.201 18.0396 378.213 17.4576 376.042C16.8756 373.871 16.8556 371.587 17.3996 369.406C17.9435 367.225 19.0334 365.218 20.5668 363.574V363.574C46.8273 335.42 61.431 298.353 61.4308 259.853V177.375H416.181Z" fill="#9B7E73"/>
<path d="M397.067 468.443C386.31 468.436 375.876 464.762 367.488 458.027L309.159 411.569C307.247 410.06 305.652 408.187 304.466 406.06C303.28 403.932 302.526 401.591 302.246 399.171C301.967 396.751 302.169 394.3 302.839 391.958C303.51 389.616 304.636 387.43 306.154 385.525C307.672 383.619 309.551 382.032 311.683 380.855C313.816 379.678 316.16 378.933 318.581 378.664C321.002 378.395 323.452 378.606 325.791 379.287C328.13 379.967 330.312 381.103 332.211 382.628L390.54 429.086C391.831 430.114 393.342 430.829 394.956 431.176C396.569 431.522 398.241 431.491 399.841 431.085C401.44 430.678 402.924 429.907 404.175 428.831C405.427 427.756 406.413 426.406 407.057 424.886L459.831 300.018C461.771 295.545 465.399 292.019 469.926 290.207C474.452 288.394 479.511 288.442 484.003 290.34C488.494 292.238 492.055 295.832 493.91 300.341C495.766 304.85 495.766 309.909 493.912 314.418L441.137 439.288C438.296 446.083 433.909 452.122 428.323 456.923C422.738 461.724 416.11 465.155 408.965 466.943C405.077 467.936 401.08 468.44 397.067 468.443V468.443Z" fill="#FFD4B8"/>
<path d="M122.303 512H94.0027C91.6954 512 89.4825 511.084 87.8509 509.452C86.2193 507.821 85.3027 505.608 85.3027 503.3V481.611C85.3027 464.184 89.465 447.008 97.4432 431.513C105.421 416.019 116.985 402.654 131.171 392.53L132.932 391.273L154.421 421.393L152.67 422.643C143.278 429.344 135.623 438.191 130.341 448.448C125.059 458.704 122.303 470.074 122.303 481.611V512Z" fill="#FFD4B8"/>
<path d="M238.806 312.136C207.017 312.136 176.531 324.764 154.053 347.241C131.576 369.719 118.948 400.205 118.948 431.994V512H349.963C352.27 512 354.483 511.083 356.115 509.452C357.746 507.82 358.663 505.607 358.663 503.3V432C358.664 416.259 355.564 400.673 349.541 386.13C343.518 371.588 334.689 358.374 323.56 347.244C312.43 336.113 299.217 327.284 284.674 321.26C270.132 315.236 254.546 312.136 238.806 312.136V312.136Z" fill="#81D4AE"/>
<path d="M118.948 485.883H358.664V470.883H118.948V485.883ZM358.563 427.283H119.048C118.988 428.846 118.948 430.414 118.948 431.991V442.283H358.664V431.994C358.664 430.416 358.624 428.848 358.563 427.286V427.283Z" fill="#5EC08B"/>
<path d="M238.806 401.21C229.802 401.244 220.942 398.953 213.083 394.559C205.224 390.165 198.633 383.816 193.947 376.128L169.988 337.145C168.946 335.451 168.62 333.412 169.082 331.477C169.544 329.542 170.755 327.87 172.45 326.828C174.144 325.787 176.183 325.461 178.118 325.923C180.053 326.384 181.725 327.596 182.767 329.29L206.73 368.274C210.099 373.756 214.816 378.282 220.432 381.422C226.048 384.562 232.375 386.211 238.809 386.211C245.243 386.211 251.57 384.562 257.186 381.422C262.802 378.282 267.519 373.756 270.889 368.274L294.851 329.29C295.363 328.444 296.037 327.706 296.835 327.122C297.633 326.537 298.539 326.115 299.501 325.882C300.462 325.649 301.461 325.608 302.438 325.763C303.415 325.917 304.353 326.263 305.196 326.781C306.039 327.299 306.771 327.979 307.35 328.781C307.929 329.584 308.344 330.493 308.57 331.456C308.796 332.419 308.829 333.418 308.668 334.394C308.507 335.37 308.154 336.305 307.63 337.144L283.668 376.128C278.982 383.817 272.39 390.166 264.53 394.56C256.671 398.955 247.81 401.245 238.806 401.21V401.21Z" fill="white"/>
<path opacity="0.1" d="M238.806 312.136C222.477 312.117 206.318 315.444 191.325 321.912C176.331 328.379 162.823 337.851 151.632 349.742C178.238 364.739 208.263 372.618 238.805 372.618C269.346 372.618 299.372 364.739 325.978 349.742C314.788 337.851 301.279 328.379 286.286 321.911C271.294 315.443 255.134 312.116 238.806 312.136V312.136Z" fill="black"/>
<path d="M61.427 208.89C78.7024 208.89 92.707 194.886 92.707 177.61C92.707 160.335 78.7024 146.33 61.427 146.33C44.1515 146.33 30.147 160.335 30.147 177.61C30.147 194.886 44.1515 208.89 61.427 208.89Z" fill="#FFD4B8"/>
<path d="M53.9918 229.663C65.4644 229.663 74.7648 220.363 74.7648 208.89C74.7648 197.418 65.4644 188.117 53.9918 188.117C42.5191 188.117 33.2188 197.418 33.2188 208.89C33.2188 220.363 42.5191 229.663 53.9918 229.663Z" fill="#81D4AE"/>
<path d="M416.177 208.89C433.452 208.89 447.457 194.886 447.457 177.61C447.457 160.335 433.452 146.33 416.177 146.33C398.901 146.33 384.897 160.335 384.897 177.61C384.897 194.886 398.901 208.89 416.177 208.89Z" fill="#FFD4B8"/>
<path d="M423.617 229.663C435.089 229.663 444.39 220.363 444.39 208.89C444.39 197.418 435.089 188.117 423.617 188.117C412.144 188.117 402.844 197.418 402.844 208.89C402.844 220.363 412.144 229.663 423.617 229.663Z" fill="#81D4AE"/>
<path d="M238.807 354.74C336.766 354.74 416.177 275.329 416.177 177.37C416.177 79.4112 336.766 0 238.807 0C140.848 0 61.437 79.4112 61.437 177.37C61.437 275.329 140.848 354.74 238.807 354.74Z" fill="#FFD4B8"/>
<path d="M238.806 0C193.726 0.003295 150.339 17.1708 117.462 48.0136C84.5845 78.8565 64.6844 121.06 61.8057 166.048C132.488 171.169 215.579 80.141 220.027 51.767C223.538 88.03 353.596 178.652 415.637 163.423C412.124 118.934 391.97 77.4034 359.195 47.1138C326.421 16.8243 283.433 0.00138851 238.806 0V0Z" fill="#9B7E73"/>
<path d="M238.806 242.68C234.26 242.671 229.764 241.734 225.593 239.925C221.423 238.115 217.666 235.473 214.554 232.16C213.88 231.441 213.355 230.597 213.007 229.675C212.66 228.753 212.497 227.772 212.529 226.787C212.561 225.803 212.787 224.834 213.193 223.936C213.599 223.039 214.178 222.23 214.897 221.557C215.615 220.883 216.46 220.357 217.382 220.01C218.304 219.663 219.285 219.5 220.269 219.532C222.258 219.597 224.139 220.448 225.5 221.9C227.204 223.723 229.264 225.176 231.553 226.17C233.842 227.163 236.31 227.676 238.806 227.676C241.301 227.676 243.77 227.163 246.059 226.17C248.347 225.176 250.408 223.723 252.112 221.9C253.472 220.448 255.354 219.597 257.342 219.532C259.331 219.468 261.263 220.196 262.715 221.557C264.166 222.917 265.018 224.799 265.082 226.787C265.147 228.776 264.418 230.708 263.058 232.16C259.946 235.473 256.189 238.116 252.018 239.925C247.848 241.734 243.352 242.671 238.806 242.68V242.68Z" fill="#4A5058"/>
<path d="M164.888 193.441C162.899 193.441 160.991 192.651 159.584 191.244C158.178 189.838 157.388 187.93 157.388 185.941C157.388 183.681 156.49 181.513 154.892 179.915C153.294 178.317 151.126 177.419 148.866 177.419C146.606 177.419 144.438 178.317 142.84 179.915C141.242 181.513 140.344 183.681 140.344 185.941C140.344 187.93 139.554 189.838 138.147 191.244C136.741 192.651 134.833 193.441 132.844 193.441C130.855 193.441 128.947 192.651 127.54 191.244C126.134 189.838 125.344 187.93 125.344 185.941C125.344 179.703 127.822 173.72 132.233 169.308C136.644 164.897 142.627 162.419 148.866 162.419C155.104 162.419 161.087 164.897 165.498 169.308C169.91 173.72 172.388 179.703 172.388 185.941C172.388 187.93 171.598 189.838 170.191 191.244C168.785 192.651 166.877 193.441 164.888 193.441Z" fill="#4A5058"/>
<path d="M344.77 193.441C342.78 193.441 340.873 192.651 339.466 191.244C338.06 189.838 337.27 187.93 337.27 185.941C337.27 183.681 336.372 181.513 334.774 179.915C333.175 178.317 331.008 177.419 328.748 177.419C326.487 177.419 324.32 178.317 322.722 179.915C321.123 181.513 320.226 183.681 320.226 185.941C320.226 187.93 319.435 189.838 318.029 191.244C316.622 192.651 314.715 193.441 312.726 193.441C310.736 193.441 308.829 192.651 307.422 191.244C306.016 189.838 305.226 187.93 305.226 185.941C305.226 179.703 307.704 173.72 312.115 169.308C316.526 164.897 322.509 162.419 328.748 162.419C334.986 162.419 340.969 164.897 345.38 169.308C349.791 173.72 352.27 179.703 352.27 185.941C352.27 187.93 351.479 189.838 350.073 191.244C348.666 192.651 346.759 193.441 344.77 193.441Z" fill="#4A5058"/>
<path opacity="0.1" d="M265.088 332.359C230.267 332.36 196.216 322.112 167.181 302.892C138.145 283.672 115.409 256.331 101.807 224.277C88.2058 192.222 84.3404 156.874 90.6929 122.637C97.0455 88.401 113.335 56.7919 137.531 31.751C117.211 45.8808 100.074 64.1067 87.2204 85.2565C74.3669 106.406 66.0817 130.012 62.8978 154.556C59.7138 179.099 61.7014 204.038 68.7329 227.767C75.7644 251.497 87.684 273.492 103.725 292.339C119.767 311.186 139.575 326.467 161.876 337.2C184.177 347.933 208.477 353.88 233.214 354.659C257.951 355.437 282.577 351.031 305.509 341.722C328.441 332.413 349.172 318.408 366.367 300.608C336.663 321.33 301.305 332.415 265.088 332.359V332.359Z" fill="#513130"/>
</svg>
