<svg width="512" height="512" viewBox="0 0 512 512" fill="none" xmlns="http://www.w3.org/2000/svg">
<path d="M499.45 166.934C499.45 260.727 458.425 311.928 458.425 311.928L388.525 239.428L451.591 166.241L499.45 166.934Z" fill="#ED9B83"/>
<path d="M254.353 255.741L300.68 361.835L254.353 475.252H7.00001V389.812C6.86419 351.186 20.8193 313.836 46.25 284.762C65.25 263.202 82.15 255.742 82.15 255.742H254.35L254.353 255.741Z" fill="#A19CDD"/>
<path d="M76.253 284.761C95.253 263.201 112.153 255.741 112.153 255.741H82.153C82.153 255.741 65.253 263.201 46.253 284.761C20.8212 313.835 6.865 351.185 6.99999 389.811V475.251H37V389.811C36.865 351.185 50.8212 313.835 76.253 284.761V284.761Z" fill="#817CD0"/>
<path d="M504 389.811V475.251H254.353V255.741H428.853C428.853 255.741 445.743 263.201 464.753 284.761C490.179 313.838 504.132 351.186 504 389.811Z" fill="#F9F097"/>
<path d="M499.45 166.934C499.45 94.734 440.713 36 368.516 36C296.319 36 237.582 94.737 237.582 166.934H499.45Z" fill="#ED9B83"/>
<path d="M383.516 36.864C378.537 36.2909 373.528 36.0024 368.516 36C296.316 36 237.581 94.737 237.581 166.934H267.581C267.581 99.809 318.358 44.334 383.516 36.864V36.864Z" fill="#E27858"/>
<path d="M476.816 203.549C491.829 203.549 504 191.378 504 176.365C504 161.352 491.829 149.181 476.816 149.181C461.803 149.181 449.632 161.352 449.632 176.365C449.632 191.378 461.803 203.549 476.816 203.549Z" fill="#FFD3BC"/>
<path d="M367.293 93.793C367.293 93.793 350.756 125.075 262.723 148.611C261.682 154.663 261.159 160.794 261.159 166.935C261.159 178.489 257.781 190.721 261.159 201.15C275.115 244.24 320.778 274.293 368.517 274.293C384.106 274.286 399.507 270.885 413.65 264.327C427.793 257.769 440.339 248.212 450.416 236.317C460.493 224.423 467.861 210.478 472.006 195.45C476.152 180.422 476.977 164.672 474.423 149.293C384.138 125.684 367.293 93.793 367.293 93.793V93.793Z" fill="#FFDCCE"/>
<path d="M308.179 174.082C306.19 174.082 304.282 173.292 302.876 171.885C301.469 170.479 300.679 168.571 300.679 166.582V155.225C300.679 153.236 301.469 151.328 302.876 149.922C304.282 148.515 306.19 147.725 308.179 147.725C310.168 147.725 312.076 148.515 313.482 149.922C314.889 151.328 315.679 153.236 315.679 155.225V166.584C315.678 168.573 314.888 170.48 313.482 171.886C312.075 173.292 310.168 174.082 308.179 174.082Z" fill="#423E4F"/>
<path d="M426.406 174.082C424.417 174.082 422.509 173.292 421.103 171.885C419.696 170.479 418.906 168.571 418.906 166.582V155.225C418.906 153.236 419.696 151.328 421.103 149.922C422.509 148.515 424.417 147.725 426.406 147.725C428.395 147.725 430.303 148.515 431.709 149.922C433.116 151.328 433.906 153.236 433.906 155.225V166.584C433.905 168.573 433.115 170.48 431.709 171.886C430.302 173.292 428.395 174.082 426.406 174.082Z" fill="#423E4F"/>
<path d="M367.293 180.844C363.267 180.843 359.288 179.979 355.625 178.31C351.961 176.642 348.697 174.207 346.054 171.171C345.407 170.428 344.912 169.566 344.599 168.632C344.285 167.698 344.158 166.712 344.226 165.729C344.293 164.747 344.554 163.787 344.992 162.905C345.431 162.023 346.038 161.236 346.781 160.589C347.524 159.942 348.386 159.447 349.32 159.134C350.254 158.82 351.24 158.693 352.223 158.761C353.205 158.828 354.165 159.089 355.047 159.527C355.929 159.966 356.716 160.573 357.363 161.316C358.598 162.737 360.123 163.877 361.837 164.658C363.55 165.439 365.411 165.844 367.294 165.844C369.177 165.844 371.038 165.439 372.751 164.658C374.464 163.877 375.99 162.737 377.225 161.316C377.872 160.573 378.659 159.966 379.541 159.527C380.423 159.089 381.383 158.828 382.365 158.761C383.348 158.693 384.334 158.82 385.268 159.134C386.202 159.447 387.064 159.942 387.807 160.589C388.55 161.236 389.157 162.023 389.596 162.905C390.034 163.787 390.295 164.747 390.362 165.729C390.43 166.712 390.303 167.698 389.989 168.632C389.676 169.566 389.181 170.428 388.534 171.171C385.89 174.207 382.626 176.642 378.962 178.31C375.298 179.979 371.319 180.843 367.293 180.844V180.844Z" fill="#423E4F"/>
<path d="M273.418 166.934C273.418 94.734 214.681 36 142.484 36C70.287 36 11.55 94.737 11.55 166.934H273.418Z" fill="#5C586F"/>
<path d="M157.483 36.863C152.504 36.2899 147.495 36.0014 142.483 35.999C70.286 36 11.55 94.738 11.551 166.935H41.551C41.551 99.811 92.325 44.335 157.483 36.864V36.863Z" fill="#423E4F"/>
<path d="M250.785 203.549C265.798 203.549 277.969 191.378 277.969 176.365C277.969 161.352 265.798 149.181 250.785 149.181C235.772 149.181 223.601 161.352 223.601 176.365C223.601 191.378 235.772 203.549 250.785 203.549Z" fill="#FFD3BC"/>
<path d="M248.39 149.292C247.691 145.058 246.737 140.871 245.533 136.752C238.733 116.69 216.133 81.5651 142.484 101.467C68.83 81.5651 46.239 116.691 39.435 136.752C38.2314 140.871 37.2773 145.058 36.578 149.292C34.024 164.668 34.8488 180.416 38.995 195.441C43.1412 210.466 50.5094 224.408 60.5875 236.299C70.6657 248.189 83.2121 257.742 97.3547 264.294C111.497 270.846 126.897 274.24 142.484 274.24C158.071 274.24 173.47 270.846 187.613 264.294C201.756 257.742 214.302 248.189 224.38 236.299C234.459 224.408 241.827 210.466 245.973 195.441C250.119 180.416 250.944 164.668 248.39 149.292V149.292Z" fill="#FFDCCE"/>
<path d="M65.127 166.934C65.1275 161.023 65.6128 155.123 66.578 149.292C67.2775 145.058 68.2315 140.871 69.435 136.752C74.17 122.791 86.559 101.54 118.475 96.6108C63.723 89.6598 45.435 119.06 39.435 136.752C38.2314 140.871 37.2774 145.058 36.578 149.292C35.789 149.223 34.991 149.181 34.184 149.181C30.3149 149.181 26.4903 150.007 22.9659 151.603C19.4416 153.2 16.2987 155.531 13.7473 158.439C11.196 161.348 9.29492 164.768 8.17129 168.47C7.04767 172.173 6.72734 176.072 7.23173 179.909C7.73612 183.745 9.0536 187.429 11.0961 190.715C13.1386 194.001 15.8591 196.813 19.0756 198.964C22.2922 201.114 25.9307 202.553 29.748 203.184C33.5653 203.816 37.4734 203.625 41.211 202.625C49.4659 226.005 65.5539 245.81 86.7464 258.681C107.939 271.552 132.931 276.697 157.484 273.242C131.864 269.623 108.412 256.875 91.4434 237.342C74.4743 217.809 65.1291 192.806 65.127 166.932V166.934Z" fill="#FFD3BC"/>
<path d="M82.147 174.082C80.1578 174.082 78.2502 173.292 76.8437 171.885C75.4371 170.479 74.647 168.571 74.647 166.582V155.225C74.647 153.236 75.4371 151.328 76.8437 149.922C78.2502 148.515 80.1578 147.725 82.147 147.725C84.1361 147.725 86.0437 148.515 87.4503 149.922C88.8568 151.328 89.647 153.236 89.647 155.225V166.584C89.6464 168.573 88.856 170.48 87.4496 171.886C86.0431 173.292 84.1357 174.082 82.147 174.082Z" fill="#423E4F"/>
<path d="M200.375 174.082C198.386 174.082 196.478 173.292 195.072 171.885C193.665 170.479 192.875 168.571 192.875 166.582V155.225C192.875 153.236 193.665 151.328 195.072 149.922C196.478 148.515 198.386 147.725 200.375 147.725C202.364 147.725 204.272 148.515 205.678 149.922C207.085 151.328 207.875 153.236 207.875 155.225V166.584C207.874 168.573 207.084 170.48 205.678 171.886C204.271 173.292 202.364 174.082 200.375 174.082Z" fill="#423E4F"/>
<path d="M141.261 180.844C137.235 180.843 133.256 179.979 129.593 178.31C125.929 176.642 122.665 174.207 120.022 171.171C118.715 169.671 118.058 167.714 118.194 165.729C118.33 163.745 119.249 161.896 120.749 160.589C122.249 159.282 124.206 158.624 126.191 158.761C128.175 158.897 130.024 159.816 131.331 161.316C132.566 162.737 134.091 163.877 135.805 164.658C137.518 165.439 139.379 165.843 141.262 165.843C143.144 165.843 145.005 165.439 146.718 164.658C148.432 163.877 149.957 162.737 151.192 161.316C152.499 159.816 154.348 158.897 156.332 158.761C158.317 158.624 160.274 159.282 161.774 160.589C163.274 161.896 164.193 163.745 164.329 165.729C164.465 167.714 163.808 169.671 162.501 171.171C159.857 174.207 156.594 176.642 152.93 178.31C149.266 179.979 145.287 180.843 141.261 180.844V180.844Z" fill="#423E4F"/>
<path d="M377.834 322.87C377.834 290.425 364.945 259.309 342.003 236.367C319.061 213.424 287.945 200.536 255.5 200.536C223.054 200.536 191.938 213.424 168.996 236.367C146.054 259.309 133.165 290.425 133.165 322.87H377.834Z" fill="#5C586F"/>
<path d="M270.5 201.456C253.3 199.334 235.845 200.89 219.291 206.021C202.737 211.152 187.462 219.742 174.478 231.221C161.493 242.7 151.096 256.806 143.974 272.606C136.852 288.406 133.167 305.538 133.165 322.869H163.165C163.203 293.032 174.128 264.235 193.89 241.881C213.652 219.527 240.893 205.153 270.5 201.456V201.456Z" fill="#423E4F"/>
<path d="M354.154 475.254C354.154 420.73 319.732 399.91 319.732 399.91H191.268C191.268 399.91 156.846 420.73 156.846 475.254H354.154Z" fill="#FF995D"/>
<path d="M221.268 399.91H191.268C191.268 399.91 156.846 420.73 156.846 475.254H186.846C186.846 420.725 221.268 399.91 221.268 399.91Z" fill="#FF7E27"/>
<path d="M154.313 357.079C168.34 357.079 179.711 345.708 179.711 331.681C179.711 317.654 168.34 306.283 154.313 306.283C140.286 306.283 128.915 317.654 128.915 331.681C128.915 345.708 140.286 357.079 154.313 357.079Z" fill="#FFD3BC"/>
<path d="M356.687 357.079C370.714 357.079 382.085 345.708 382.085 331.681C382.085 317.654 370.714 306.283 356.687 306.283C342.66 306.283 331.289 317.654 331.289 331.681C331.289 345.708 342.66 357.079 356.687 357.079Z" fill="#FFD3BC"/>
<path d="M354.45 306.387C353.797 302.432 352.906 298.519 351.781 294.671C345.423 275.927 324.316 243.109 255.5 261.703C186.684 243.103 165.577 275.927 159.219 294.671C158.094 298.519 157.203 302.432 156.55 306.387C154.164 320.753 154.934 335.467 158.808 349.506C162.681 363.544 169.566 376.571 178.982 387.68C188.398 398.79 200.121 407.716 213.334 413.838C226.548 419.959 240.937 423.131 255.5 423.131C270.063 423.131 284.452 419.959 297.666 413.838C310.88 407.716 322.602 398.79 332.018 387.68C341.435 376.571 348.319 363.544 352.192 349.506C356.066 335.467 356.837 320.753 354.45 306.387V306.387Z" fill="#FFDCCE"/>
<path d="M185.194 322.87C185.194 317.348 185.648 311.835 186.55 306.387C187.203 302.432 188.095 298.519 189.219 294.671C193.599 281.756 204.984 262.163 234.148 257.305C182.148 250.282 164.865 278.024 159.219 294.671C158.094 298.519 157.203 302.432 156.55 306.387C153.96 322.009 155.102 338.022 159.884 353.118C164.667 368.214 172.953 381.964 184.065 393.244C195.178 404.525 208.803 413.016 223.825 418.024C238.847 423.032 254.841 424.415 270.5 422.059C246.766 418.465 225.108 406.481 209.456 388.282C193.804 370.082 185.196 346.874 185.194 322.87V322.87Z" fill="#FFD3BC"/>
<path d="M199.126 330.041C197.137 330.041 195.229 329.251 193.823 327.844C192.416 326.438 191.626 324.53 191.626 322.541V311.925C191.626 309.936 192.416 308.028 193.823 306.622C195.229 305.215 197.137 304.425 199.126 304.425C201.115 304.425 203.023 305.215 204.429 306.622C205.836 308.028 206.626 309.936 206.626 311.925V322.538C206.626 323.523 206.433 324.499 206.056 325.409C205.679 326.319 205.127 327.146 204.43 327.843C203.734 328.54 202.907 329.093 201.997 329.47C201.087 329.847 200.111 330.041 199.126 330.041Z" fill="#423E4F"/>
<path d="M309.588 330.041C307.599 330.041 305.691 329.251 304.285 327.844C302.878 326.438 302.088 324.53 302.088 322.541V311.925C302.088 309.936 302.878 308.028 304.285 306.622C305.691 305.215 307.599 304.425 309.588 304.425C311.577 304.425 313.485 305.215 314.891 306.622C316.298 308.028 317.088 309.936 317.088 311.925V322.538C317.088 323.523 316.895 324.499 316.518 325.409C316.141 326.319 315.589 327.146 314.892 327.843C314.196 328.54 313.369 329.093 312.459 329.47C311.549 329.847 310.573 330.041 309.588 330.041V330.041Z" fill="#423E4F"/>
<path d="M254.357 336.359C250.525 336.358 246.738 335.536 243.251 333.948C239.763 332.36 236.657 330.043 234.141 327.153C232.834 325.653 232.176 323.696 232.313 321.711C232.449 319.727 233.368 317.878 234.868 316.571C236.368 315.264 238.325 314.606 240.309 314.743C242.294 314.879 244.143 315.798 245.45 317.298C246.558 318.573 247.926 319.595 249.463 320.295C250.999 320.996 252.668 321.358 254.357 321.358C256.046 321.358 257.715 320.996 259.251 320.295C260.788 319.595 262.156 318.573 263.264 317.298C264.571 315.798 266.42 314.879 268.404 314.743C270.389 314.606 272.346 315.264 273.846 316.571C275.346 317.878 276.265 319.727 276.401 321.711C276.537 323.696 275.88 325.653 274.573 327.153C272.057 330.043 268.95 332.36 265.463 333.948C261.976 335.536 258.189 336.358 254.357 336.359V336.359Z" fill="#423E4F"/>
</svg>
