<svg width="512" height="512" viewBox="0 0 512 512" fill="none" xmlns="http://www.w3.org/2000/svg">
<path d="M472.117 280.117C472.117 362.351 472.828 437.637 395.305 437.637H359.648L327.871 365.043L430.777 264.484L472.117 280.117Z" fill="#E0824A"/>
<path d="M59.2001 280.117C59.2001 362.351 58.4891 437.637 136.013 437.637H171.669L203.446 365.043L100.539 264.484L59.2001 280.117Z" fill="#E0824A"/>
<path d="M100.406 280.117L112.035 275.717L100.535 264.483L59.2001 280.117C59.2001 362.351 58.4891 437.637 136.013 437.637H171.669L171.735 437.492C99.7461 433.969 100.406 360.359 100.406 280.117Z" fill="#CC7643"/>
<path d="M55.813 219.43C55.813 161.055 77.485 106.118 116.833 64.73C156.508 22.988 209.363 0 265.66 0C321.957 0 374.809 22.988 414.484 64.727C453.832 106.117 475.5 161.055 475.5 219.43H55.813Z" fill="#E0824A"/>
<path d="M291.414 1.629C282.872 0.543465 274.27 -0.000621016 265.66 5.31921e-07C209.36 5.31921e-07 156.508 22.988 116.832 64.727C77.484 106.118 55.812 161.055 55.812 219.427H107.324C107.324 161.052 128.992 106.115 168.34 64.727C201.903 29.427 244.891 7.54 291.414 1.627V1.629Z" fill="#CC7643"/>
<path d="M492.316 243.641C492.317 252.155 489.793 260.478 485.063 267.557C480.334 274.636 473.611 280.154 465.746 283.413C457.88 286.671 449.225 287.524 440.875 285.863C432.525 284.203 424.855 280.103 418.834 274.083C412.814 268.063 408.714 260.393 407.053 252.043C405.392 243.693 406.245 235.038 409.503 227.172C412.761 219.306 418.278 212.584 425.357 207.854C432.437 203.124 440.759 200.6 449.273 200.6C460.688 200.601 471.635 205.136 479.707 213.208C487.779 221.279 492.314 232.226 492.316 243.641V243.641Z" fill="#E3B098"/>
<path d="M39 243.641C39.0003 255.058 43.5356 266.007 51.6085 274.08C59.6813 282.152 70.6303 286.688 82.047 286.688C105.82 286.688 104.488 267.415 104.488 243.641C104.488 219.867 105.82 200.6 82.047 200.6C76.3944 200.6 70.797 201.713 65.5745 203.875C60.3521 206.038 55.6067 209.209 51.6094 213.205C47.6121 217.202 44.4412 221.947 42.2777 227.169C40.1142 232.391 39.0004 237.988 39 243.641V243.641Z" fill="#E3B098"/>
<path d="M175.418 388.879C175.418 388.879 117.355 432.637 117.355 512H413.961C413.961 432.637 355.899 388.879 355.899 388.879H175.418Z" fill="#FADC60"/>
<path d="M206.324 388.879H175.418C175.418 388.879 117.355 432.637 117.355 512H148.261C148.262 432.637 206.324 388.879 206.324 388.879Z" fill="#F2C42C"/>
<path d="M319.8 398.5C319.8 409.208 316.624 419.676 310.674 428.58C304.724 437.483 296.268 444.423 286.375 448.52C276.481 452.618 265.595 453.69 255.092 451.6C244.59 449.511 234.942 444.354 227.371 436.781C219.799 429.209 214.643 419.562 212.554 409.059C210.465 398.556 211.538 387.67 215.636 377.776C219.734 367.883 226.674 359.428 235.578 353.479C244.482 347.53 254.95 344.355 265.659 344.355C272.769 344.355 279.81 345.756 286.379 348.477C292.948 351.198 298.916 355.186 303.944 360.214C308.971 365.242 312.959 371.211 315.68 377.78C318.4 384.349 319.8 391.39 319.8 398.5V398.5Z" fill="#E3B098"/>
<path d="M205.73 92.1521C205.181 91.6401 204.529 91.2512 203.818 91.0113C203.106 90.7715 202.352 90.6862 201.605 90.7613C200.858 90.8364 200.136 91.07 199.486 91.4466C198.837 91.8232 198.275 92.3341 197.839 92.9451C166.891 136.129 82.352 200.25 81.9 200.59C81.334 206.79 81.033 213.07 81.033 219.43C81.033 326.688 163.693 413.637 265.658 413.637C367.623 413.637 450.281 326.688 450.281 219.43C450.281 213.075 449.981 206.793 449.414 200.594C299.828 172.3 223.824 109.039 205.73 92.1521Z" fill="#FBC4AC"/>
<path d="M111.941 219.43C111.941 215.676 112.046 194.465 112.241 176.43C94.859 190.762 82.078 200.457 81.9 200.59C81.334 206.79 81.033 213.074 81.033 219.43C81.033 326.688 163.693 413.637 265.658 413.637C270.858 413.637 276.013 413.399 281.107 412.953C186.379 404.691 111.941 321.211 111.941 219.43Z" fill="#E3B098"/>
<path d="M359.648 250.1C357.599 250.1 355.634 249.285 354.185 247.836C352.736 246.387 351.922 244.422 351.921 242.373V224.1C351.944 222.066 352.768 220.123 354.215 218.693C355.661 217.263 357.613 216.461 359.648 216.461C361.682 216.461 363.634 217.263 365.08 218.693C366.527 220.123 367.351 222.066 367.374 224.1V242.377C367.372 244.425 366.558 246.389 365.109 247.837C363.661 249.285 361.696 250.099 359.648 250.1V250.1Z" fill="#3A484A"/>
<path d="M372.094 276.965H347.2C345.166 276.942 343.223 276.118 341.793 274.671C340.363 273.225 339.561 271.273 339.561 269.239C339.561 267.205 340.363 265.253 341.793 263.806C343.223 262.36 345.166 261.535 347.2 261.512H372.091C374.125 261.535 376.068 262.36 377.498 263.806C378.928 265.253 379.73 267.205 379.73 269.239C379.73 271.273 378.928 273.225 377.498 274.671C376.068 276.118 374.125 276.942 372.091 276.965H372.094Z" fill="#F98084"/>
<path d="M171.668 250.1C169.619 250.1 167.654 249.285 166.205 247.836C164.756 246.387 163.942 244.422 163.941 242.373V224.1C163.964 222.066 164.788 220.123 166.235 218.693C167.681 217.263 169.633 216.461 171.668 216.461C173.702 216.461 175.654 217.263 177.1 218.693C178.547 220.123 179.371 222.066 179.394 224.1V242.377C179.393 244.426 178.579 246.39 177.13 247.838C175.681 249.286 173.717 250.1 171.668 250.1Z" fill="#3A484A"/>
<path d="M184.113 276.965H159.223C157.189 276.942 155.246 276.118 153.816 274.671C152.386 273.225 151.584 271.273 151.584 269.239C151.584 267.205 152.386 265.253 153.816 263.806C155.246 262.36 157.189 261.535 159.223 261.512H184.114C186.148 261.535 188.091 262.36 189.521 263.806C190.951 265.253 191.753 267.205 191.753 269.239C191.753 271.273 190.951 273.225 189.521 274.671C188.091 276.118 186.148 276.942 184.114 276.965H184.113Z" fill="#F98084"/>
<path d="M265.66 275.93C261.388 275.961 257.158 275.078 253.255 273.34C249.352 271.602 245.866 269.049 243.031 265.852C241.682 264.309 241.001 262.294 241.138 260.25C241.275 258.205 242.219 256.299 243.762 254.95C245.304 253.601 247.319 252.92 249.364 253.057C251.409 253.194 253.315 254.137 254.664 255.68C256.068 257.193 257.769 258.399 259.661 259.225C261.553 260.05 263.594 260.476 265.658 260.476C267.722 260.476 269.763 260.05 271.655 259.225C273.547 258.399 275.248 257.193 276.652 255.68C278.001 254.137 279.908 253.193 281.953 253.055C283.998 252.918 286.013 253.599 287.556 254.948C289.1 256.297 290.044 258.203 290.181 260.248C290.319 262.293 289.638 264.309 288.289 265.852C285.454 269.048 281.968 271.601 278.065 273.339C274.162 275.077 269.932 275.961 265.66 275.93V275.93Z" fill="#3A484A"/>
</svg>
