<svg width="512" height="512" viewBox="0 0 512 512" fill="none" xmlns="http://www.w3.org/2000/svg">
<path d="M146.418 388.879C146.418 388.879 88.355 432.637 88.355 512H384.961C384.961 432.637 326.899 388.879 326.899 388.879H146.418Z" fill="#EB6DA8"/>
<path d="M500.172 215.32C492.91 205.14 476.84 175.547 484.934 121.047C495.234 51.6801 423.122 39.3201 388.102 67.5311L433.426 219.431L460.11 227.271C480.079 236.435 492.91 229.552 499.102 224.181C500.349 223.101 501.149 221.595 501.347 219.957C501.545 218.319 501.126 216.666 500.172 215.32V215.32Z" fill="#323E40"/>
<path d="M26.8164 219.43C26.8164 161.055 48.4844 106.118 87.8324 64.73C127.512 22.988 180.363 0 236.66 0C292.957 0 345.809 22.988 385.488 64.727C424.836 106.117 446.5 161.055 446.5 219.43H26.8164Z" fill="#3A484A"/>
<path d="M10.0002 243.641C10.0005 255.058 14.5358 266.007 22.6087 274.08C30.6815 282.152 41.6305 286.688 53.0472 286.688C76.8202 286.688 75.4882 267.415 75.4882 243.641C75.4882 219.867 76.6682 200.6 52.8952 200.6C47.2506 200.603 41.6619 201.719 36.4493 203.885C31.2367 206.05 26.5026 209.223 22.518 213.221C18.5334 217.219 15.3768 221.964 13.2288 227.184C11.0807 232.404 9.98361 237.997 10.0002 243.641V243.641Z" fill="#E3B098"/>
<path d="M463.316 243.641C463.317 252.161 460.789 260.49 456.053 267.573C451.316 274.655 444.585 280.173 436.71 283.427C428.836 286.681 420.173 287.525 411.819 285.852C403.464 284.179 395.794 280.064 389.78 274.028C383.766 267.993 379.678 260.309 378.035 251.949C376.391 243.588 377.265 234.928 380.547 227.066C383.829 219.203 389.37 212.49 396.469 207.779C403.568 203.068 411.906 200.569 420.426 200.6C431.815 200.641 442.723 205.193 450.762 213.26C458.801 221.328 463.315 232.252 463.316 243.641V243.641Z" fill="#E3B098"/>
<path d="M421.281 219.238C421.228 206.33 418.771 193.546 414.035 181.538C397.7 139.719 347.629 47.9731 236.66 105.078C125.688 47.9731 75.6172 139.719 59.2812 181.543C54.5494 193.552 52.0923 206.336 52.0352 219.243V219.434C52.0352 326.692 134.695 413.641 236.66 413.641C338.625 413.641 421.281 326.688 421.281 219.43V219.238Z" fill="#FBC4AC"/>
<path d="M82.9412 219.43V219.239C82.9944 206.331 85.4517 193.546 90.1872 181.539C101.82 151.754 130.566 96.6718 186.222 88.0388C109.972 77.1248 72.8982 146.672 59.2812 181.539C54.5494 193.548 52.0923 206.332 52.0352 219.239V219.43C52.0352 326.688 134.695 413.637 236.66 413.637C241.86 413.637 247.015 413.399 252.113 412.953C157.379 404.691 82.9412 321.211 82.9412 219.43Z" fill="#E3B098"/>
<path d="M330.648 250.1C328.599 250.1 326.634 249.285 325.185 247.836C323.736 246.387 322.922 244.422 322.921 242.373V224.1C322.945 222.066 323.769 220.123 325.215 218.693C326.662 217.263 328.614 216.461 330.648 216.461C332.682 216.461 334.634 217.263 336.081 218.693C337.527 220.123 338.351 222.066 338.374 224.1V242.377C338.373 244.425 337.558 246.389 336.11 247.837C334.661 249.285 332.697 250.099 330.648 250.1V250.1Z" fill="#3A484A"/>
<path d="M343.094 276.965H318.2C316.166 276.942 314.223 276.118 312.793 274.671C311.363 273.225 310.561 271.273 310.561 269.239C310.561 267.205 311.363 265.253 312.793 263.806C314.223 262.36 316.166 261.535 318.2 261.512H343.091C345.125 261.535 347.068 262.36 348.498 263.806C349.928 265.253 350.73 267.205 350.73 269.239C350.73 271.273 349.928 273.225 348.498 274.671C347.068 276.118 345.125 276.942 343.091 276.965H343.094Z" fill="#F98084"/>
<path d="M142.668 250.1C140.619 250.1 138.654 249.285 137.205 247.836C135.756 246.387 134.942 244.422 134.941 242.373V224.1C134.965 222.066 135.789 220.123 137.235 218.693C138.682 217.263 140.634 216.461 142.668 216.461C144.702 216.461 146.654 217.263 148.101 218.693C149.547 220.123 150.371 222.066 150.394 224.1V242.377C150.394 244.426 149.579 246.39 148.13 247.838C146.682 249.286 144.717 250.1 142.668 250.1Z" fill="#3A484A"/>
<path d="M155.113 276.965H130.223C128.189 276.942 126.246 276.118 124.816 274.671C123.386 273.225 122.584 271.273 122.584 269.239C122.584 267.205 123.386 265.253 124.816 263.806C126.246 262.36 128.189 261.535 130.223 261.512H155.114C157.148 261.535 159.091 262.36 160.521 263.806C161.951 265.253 162.753 267.205 162.753 269.239C162.753 271.273 161.951 273.225 160.521 274.671C159.091 276.118 157.148 276.942 155.114 276.965H155.113Z" fill="#F98084"/>
<path d="M236.66 275.93C232.388 275.961 228.158 275.078 224.255 273.34C220.352 271.602 216.866 269.049 214.031 265.852C212.682 264.309 212.002 262.293 212.139 260.248C212.276 258.203 213.22 256.297 214.764 254.948C216.307 253.599 218.323 252.918 220.368 253.055C222.413 253.193 224.319 254.137 225.668 255.68C227.072 257.193 228.772 258.4 230.664 259.225C232.555 260.051 234.596 260.477 236.66 260.477C238.724 260.477 240.765 260.051 242.657 259.225C244.548 258.4 246.249 257.193 247.652 255.68C249.001 254.137 250.908 253.193 252.953 253.055C254.998 252.918 257.013 253.599 258.557 254.948C260.1 256.297 261.044 258.203 261.181 260.248C261.319 262.293 260.638 264.309 259.289 265.852C256.454 269.048 252.968 271.601 249.065 273.339C245.162 275.077 240.932 275.961 236.66 275.93V275.93Z" fill="#3A484A"/>
<path d="M166.605 386.309H306.711V486.247H166.605V386.309Z" fill="#FF98C9"/>
<path d="M236.66 396.605C235.645 396.605 234.64 396.405 233.703 396.017C232.765 395.629 231.914 395.059 231.196 394.342C230.478 393.624 229.909 392.772 229.521 391.835C229.133 390.897 228.933 389.893 228.933 388.878V316.07C228.956 314.036 229.78 312.093 231.227 310.663C232.673 309.233 234.626 308.431 236.66 308.431C238.694 308.431 240.646 309.233 242.092 310.663C243.539 312.093 244.363 314.036 244.386 316.07V388.879C244.386 390.928 243.572 392.893 242.123 394.342C240.674 395.791 238.709 396.605 236.66 396.605Z" fill="#EB6DA8"/>
<path d="M284.188 363.785H189.133C183.159 363.785 177.43 366.158 173.205 370.382C168.981 374.606 166.607 380.334 166.606 386.308V390.285C166.686 396.425 169.182 402.286 173.552 406.6C177.922 410.913 183.816 413.332 189.956 413.332C196.096 413.332 201.99 410.913 206.36 406.6C210.73 402.286 213.226 396.425 213.306 390.285C213.386 396.425 215.882 402.286 220.252 406.6C224.622 410.913 230.516 413.332 236.656 413.332C242.796 413.332 248.69 410.913 253.06 406.6C257.43 402.286 259.926 396.425 260.006 390.285C260.086 396.425 262.582 402.286 266.952 406.6C271.322 410.913 277.216 413.332 283.356 413.332C289.496 413.332 295.39 410.913 299.76 406.6C304.13 402.286 306.626 396.425 306.706 390.285V386.3C306.702 380.33 304.328 374.605 300.106 370.383C295.884 366.162 290.159 363.789 284.188 363.785V363.785Z" fill="#EFEDEE"/>
<path d="M219.73 316.07C219.73 327.226 226.5 337.004 236.66 342.488C246.82 337.004 253.59 327.226 253.59 316.07C253.59 304.914 246.82 295.136 236.66 289.652C226.5 295.137 219.73 304.914 219.73 316.07Z" fill="#F2C42C"/>
<path d="M218.227 512C220.776 506.467 221.893 500.382 221.474 494.305C221.054 488.227 219.113 482.353 215.828 477.223C212.543 472.093 208.021 467.871 202.676 464.947C197.332 462.023 191.338 460.491 185.247 460.491C179.155 460.491 173.161 462.023 167.817 464.947C162.473 467.871 157.95 472.093 154.665 477.223C151.38 482.353 149.439 488.227 149.02 494.305C148.6 500.382 149.717 506.467 152.266 512H218.227Z" fill="#FBC4AC"/>
<path d="M255.09 512C252.541 506.467 251.425 500.382 251.845 494.305C252.265 488.227 254.206 482.353 257.491 477.223C260.776 472.093 265.299 467.872 270.643 464.948C275.987 462.024 281.981 460.492 288.073 460.492C294.165 460.492 300.158 462.024 305.503 464.948C310.847 467.872 315.369 472.093 318.654 477.223C321.939 482.353 323.881 488.227 324.301 494.305C324.72 500.382 323.604 506.467 321.055 512H255.09Z" fill="#FBC4AC"/>
</svg>
