<svg width="547" height="512" viewBox="0 0 547 512" fill="none" xmlns="http://www.w3.org/2000/svg">
<path d="M126.917 240.927C138.95 211.896 125.171 178.607 96.1402 166.574C67.1097 154.541 33.821 168.32 21.7879 197.351C9.75478 226.381 23.5339 259.67 52.5643 271.703C81.5948 283.736 114.883 269.957 126.917 240.927Z" fill="#FFD3BD"/>
<path d="M494.418 271.509C523.448 259.476 537.228 226.187 525.194 197.156C513.161 168.126 479.873 154.347 450.842 166.38C421.812 178.413 408.033 211.702 420.066 240.732C432.099 269.763 465.388 283.542 494.418 271.509Z" fill="#FFBE9D"/>
<path d="M415.324 494.71C418.107 494.72 420.86 494.136 423.398 492.996C425.937 491.857 428.204 490.189 430.046 488.104C431.888 486.018 433.264 483.564 434.082 480.904C434.9 478.244 435.14 475.44 434.787 472.68C429.456 433.669 410.172 397.91 380.505 372.021C350.838 346.133 312.797 331.869 273.423 331.869C234.049 331.869 196.008 346.133 166.341 372.021C136.675 397.91 117.391 433.669 112.059 472.68C111.706 475.44 111.947 478.244 112.764 480.904C113.582 483.564 114.958 486.018 116.8 488.104C118.643 490.189 120.909 491.857 123.448 492.996C125.987 494.136 128.74 494.72 131.522 494.71H415.324Z" fill="#8DAEE1"/>
<path d="M273.424 394.597L215.105 433.514C212.462 435.278 209.426 436.363 206.264 436.674C203.102 436.984 199.912 436.51 196.977 435.294C194.042 434.077 191.452 432.156 189.437 429.7C187.422 427.243 186.043 424.328 185.424 421.212L171.884 353.13L273.424 394.597Z" fill="white"/>
<path d="M273.424 394.597L331.743 433.514C334.385 435.278 337.422 436.363 340.584 436.674C343.746 436.984 346.935 436.51 349.87 435.294C352.805 434.077 355.395 432.156 357.41 429.7C359.426 427.243 360.804 424.328 361.424 421.212L374.968 353.13L273.424 394.597Z" fill="white"/>
<path d="M465.471 219.069C465.471 121.139 379.489 44.9692 273.424 44.9692C167.359 44.9692 81.377 121.139 81.377 219.069C81.377 316.999 167.359 394.597 273.424 394.597C379.489 394.597 465.471 316.999 465.471 219.069Z" fill="#FFD3BD"/>
<path d="M211.724 53.979C135.929 76.879 81.3809 141.069 81.3809 219.069C81.3809 316.999 167.363 394.597 273.428 394.597C299.725 394.665 325.797 389.756 350.268 380.129C114.68 367.122 147.931 125.06 211.724 53.979Z" fill="#FFBE9D"/>
<path d="M163.148 283.708C185.62 283.708 203.837 269.201 203.837 251.305C203.837 233.409 185.62 218.902 163.148 218.902C140.676 218.902 122.459 233.409 122.459 251.305C122.459 269.201 140.676 283.708 163.148 283.708Z" fill="#EDA1AB"/>
<path d="M383.7 283.708C406.172 283.708 424.39 269.201 424.39 251.305C424.39 233.409 406.172 218.902 383.7 218.902C361.227 218.902 343.01 233.409 343.01 251.305C343.01 269.201 361.227 283.708 383.7 283.708Z" fill="#EDA1AB"/>
<path d="M186.862 227.612C184.873 227.612 182.965 226.822 181.559 225.415C180.152 224.009 179.362 222.101 179.362 220.112V203.478C179.362 201.489 180.152 199.581 181.559 198.175C182.965 196.768 184.873 195.978 186.862 195.978C188.851 195.978 190.759 196.768 192.165 198.175C193.572 199.581 194.362 201.489 194.362 203.478V220.112C194.362 222.101 193.572 224.009 192.165 225.415C190.759 226.822 188.851 227.612 186.862 227.612Z" fill="#4E5660"/>
<path d="M359.986 227.612C357.997 227.612 356.089 226.822 354.683 225.415C353.276 224.009 352.486 222.101 352.486 220.112V203.478C352.486 201.489 353.276 199.581 354.683 198.175C356.089 196.768 357.997 195.978 359.986 195.978C361.975 195.978 363.883 196.768 365.289 198.175C366.696 199.581 367.486 201.489 367.486 203.478V220.112C367.486 222.101 366.696 224.009 365.289 225.415C363.883 226.822 361.975 227.612 359.986 227.612Z" fill="#4E5660"/>
<path d="M273.424 266.704C290.95 292.336 330.676 286.904 352.254 276.069C353.39 275.491 354.33 274.589 354.954 273.476C355.578 272.364 355.857 271.092 355.758 269.82C355.658 268.549 355.183 267.336 354.394 266.334C353.604 265.332 352.536 264.588 351.323 264.194C338.061 259.803 329.993 247.265 320.801 230.013C311.094 211.794 284.053 211.794 273.424 230.013C262.795 211.794 235.754 211.794 226.047 230.013C216.855 247.265 208.787 259.803 195.525 264.194C194.312 264.588 193.243 265.332 192.453 266.334C191.664 267.336 191.189 268.549 191.09 269.82C190.99 271.092 191.27 272.364 191.893 273.476C192.517 274.589 193.457 275.491 194.594 276.069C216.172 286.905 255.898 292.336 273.424 266.704Z" fill="#4E5660"/>
<path d="M424.912 72.3203C482.032 72.3203 503.166 156.403 487.712 219.8C483.712 236.211 463.175 241.812 451.298 229.8C403.424 181.392 321.348 72.3203 424.912 72.3203Z" fill="#4E5660"/>
<path d="M468.681 94.7463C457.791 80.9463 443.199 72.3203 424.912 72.3203C363.294 72.3203 367.393 110.931 390.903 152.405C424.935 138.25 451.022 118.913 468.681 94.7463V94.7463Z" fill="#383C43"/>
<path d="M428.906 40.5481C295.206 68.0901 251.506 18.1481 182.055 17.0091C149.618 16.4761 121.771 40.7981 118.702 72.4221C64.0241 75.5401 43.9781 157.616 59.1351 219.8C63.1351 236.211 83.6721 241.812 95.5491 229.8C118.403 206.69 149.049 169.757 163.576 137.464C236.2 164.875 399.352 155.864 451.801 73.6581C462.15 57.4391 447.75 36.6641 428.906 40.5461V40.5481Z" fill="#4E5660"/>
</svg>
