<svg width="512" height="512" viewBox="0 0 512 512" fill="none" xmlns="http://www.w3.org/2000/svg">
<path d="M392.156 446.071C380.652 419.637 361.686 397.134 337.583 381.318C313.479 365.503 285.285 357.064 256.456 357.034V357.034C239.505 357.021 222.679 359.934 206.718 365.645L160.756 416.072L182.474 505H404.42C404.439 484.722 400.263 464.659 392.156 446.071Z" fill="#E8B5B1"/>
<path d="M256.456 357.035C239.505 357.022 222.679 359.934 206.718 365.644V505H306.225V365.658C290.255 359.942 273.418 357.025 256.456 357.035V357.035Z" fill="#EFEDFF"/>
<path d="M328.56 454.557C332.702 454.557 336.06 451.199 336.06 447.057C336.06 442.915 332.702 439.557 328.56 439.557C324.418 439.557 321.06 442.915 321.06 447.057C321.06 451.199 324.418 454.557 328.56 454.557Z" fill="#D6948C"/>
<path d="M328.56 494.168C332.702 494.168 336.06 490.81 336.06 486.668C336.06 482.526 332.702 479.168 328.56 479.168C324.418 479.168 321.06 482.526 321.06 486.668C321.06 490.81 324.418 494.168 328.56 494.168Z" fill="#D6948C"/>
<path d="M278.454 454.557C282.596 454.557 285.954 451.199 285.954 447.057C285.954 442.915 282.596 439.557 278.454 439.557C274.312 439.557 270.954 442.915 270.954 447.057C270.954 451.199 274.312 454.557 278.454 454.557Z" fill="#D4D4FF"/>
<path d="M278.454 494.168C282.596 494.168 285.954 490.81 285.954 486.668C285.954 482.526 282.596 479.168 278.454 479.168C274.312 479.168 270.954 482.526 270.954 486.668C270.954 490.81 274.312 494.168 278.454 494.168Z" fill="#D4D4FF"/>
<path d="M120.756 446.073C112.65 464.66 108.475 484.722 108.492 505H182.474C186.2 482.168 194.441 460.308 206.717 440.7V365.644C187.67 372.495 170.222 383.163 155.441 396.992C140.66 410.822 128.858 427.523 120.756 446.073V446.073Z" fill="#D6948C"/>
<path d="M306.174 365.64C274.015 354.164 238.876 354.164 206.716 365.64V440.7C229.482 404.274 264.902 377.543 306.174 365.64V365.64Z" fill="#D4D4FF"/>
<path d="M206.716 365.644L196.189 381.044C193.679 384.716 192.218 389.004 191.964 393.445C191.71 397.886 192.673 402.312 194.749 406.246C196.825 410.18 199.936 413.473 203.745 415.77C207.554 418.067 211.918 419.281 216.366 419.281H256.456V338.89L206.716 365.644Z" fill="#D4D4FF"/>
<path d="M316.715 381.046L306.224 365.658L256.457 338.89V419.283H296.537C300.985 419.283 305.349 418.069 309.158 415.772C312.967 413.475 316.077 410.182 318.153 406.248C320.229 402.314 321.193 397.888 320.939 393.447C320.685 389.006 319.225 384.718 316.715 381.046V381.046Z" fill="#EFEDFF"/>
<path d="M256.497 338.923L206.717 365.644C215.452 388.553 232.959 406.73 256.497 419.316C280.034 406.73 297.488 388.566 306.223 365.658L256.497 338.923Z" fill="#FFCBBE"/>
<path d="M79.095 239.45C103.448 239.45 123.19 219.708 123.19 195.355C123.19 171.002 103.448 151.26 79.095 151.26C54.742 151.26 35 171.002 35 195.355C35 219.708 54.742 239.45 79.095 239.45Z" fill="#FFCBBE"/>
<path d="M433.817 239.45C458.17 239.45 477.912 219.708 477.912 195.355C477.912 171.002 458.17 151.26 433.817 151.26C409.464 151.26 389.722 171.002 389.722 195.355C389.722 219.708 409.464 239.45 433.817 239.45Z" fill="#FFCBBE"/>
<path d="M285.856 20.418C249.967 14.4257 213.103 19.5981 180.249 35.236C147.395 50.8739 120.136 76.223 102.156 107.856V282.863L246.733 370.283H285.856C311.871 365.931 336.585 355.823 358.194 340.697C379.802 325.572 397.76 305.812 410.756 282.859V107.848C397.739 84.9123 379.775 65.165 358.17 50.0416C336.565 34.9181 311.862 24.7984 285.856 20.418V20.418Z" fill="#FFDDCF"/>
<path d="M137.889 195.355C137.893 153.41 152.758 112.823 179.846 80.7979C206.934 48.7726 244.493 27.3804 285.856 20.418C249.967 14.4257 213.103 19.5981 180.249 35.236C147.395 50.8739 120.136 76.223 102.156 107.856V282.863C120.133 314.498 147.393 339.848 180.248 355.483C213.103 371.118 249.968 376.284 285.856 370.282C244.494 363.322 206.935 341.931 179.847 309.908C152.759 277.884 137.894 237.299 137.889 195.355V195.355Z" fill="#FFCBBE"/>
<path d="M180.137 206.641C178.148 206.641 176.24 207.431 174.834 208.838C173.427 210.244 172.637 212.152 172.637 214.141V228.806C172.637 230.795 173.427 232.703 174.834 234.109C176.24 235.516 178.148 236.306 180.137 236.306C182.126 236.306 184.034 235.516 185.441 234.109C186.847 232.703 187.637 230.795 187.637 228.806V214.141C187.637 212.152 186.847 210.244 185.441 208.838C184.034 207.431 182.126 206.641 180.137 206.641Z" fill="#313D40"/>
<path d="M332.774 206.641C330.785 206.641 328.878 207.431 327.471 208.838C326.065 210.244 325.274 212.152 325.274 214.141V228.806C325.274 230.795 326.065 232.703 327.471 234.109C328.878 235.516 330.785 236.306 332.774 236.306C334.764 236.306 336.671 235.516 338.078 234.109C339.484 232.703 340.274 230.795 340.274 228.806V214.141C340.274 212.152 339.484 210.244 338.078 208.838C336.671 207.431 334.764 206.641 332.774 206.641Z" fill="#313D40"/>
<path d="M304.267 225.193C300.867 225.152 297.509 224.44 294.385 223.096C291.262 221.752 288.435 219.804 286.067 217.363C284.089 215.378 281.715 213.833 279.099 212.826C276.484 211.82 273.686 211.376 270.887 211.522C268.089 211.669 265.353 212.404 262.857 213.678C260.361 214.952 258.161 216.737 256.401 218.918C254.641 216.737 252.441 214.952 249.946 213.678C247.45 212.404 244.714 211.669 241.915 211.522C239.117 211.376 236.319 211.82 233.703 212.826C231.088 213.833 228.714 215.378 226.735 217.363C224.368 219.804 221.541 221.752 218.417 223.096C215.294 224.439 211.935 225.152 208.535 225.193C207.809 225.195 207.093 225.358 206.437 225.67C205.782 225.982 205.203 226.436 204.744 226.998C204.285 227.561 203.957 228.218 203.782 228.923C203.608 229.628 203.592 230.362 203.735 231.074C204.853 236.654 207.536 241.8 211.472 245.91C215.409 250.02 220.434 252.924 225.961 254.282C231.487 255.639 237.286 255.395 242.678 253.576C248.071 251.757 252.834 248.44 256.409 244.013C259.985 248.44 264.748 251.757 270.14 253.576C275.532 255.395 281.331 255.639 286.858 254.282C292.384 252.924 297.41 250.02 301.346 245.91C305.282 241.8 307.966 236.654 309.083 231.074C309.227 230.362 309.211 229.628 309.036 228.923C308.862 228.218 308.533 227.561 308.074 226.998C307.615 226.436 307.037 225.982 306.381 225.67C305.726 225.358 305.009 225.195 304.283 225.193H304.267Z" fill="#676FB2"/>
<path d="M428.373 151.592H428.378C428.47 126.776 420.527 102.598 405.737 82.671C399.343 74.1246 392.226 66.1435 384.464 58.816C381.002 55.5827 376.916 53.0897 372.457 51.4898C367.997 49.8899 363.259 49.2165 358.53 49.511C358.126 45.651 356.792 41.9465 354.644 38.714C352.496 35.4816 349.597 32.8173 346.195 30.949C327.908 20.9069 308.059 14.0188 287.482 10.574V10.574C277.249 8.86176 266.891 8.00082 256.515 8L107.186 82.637C103.913 87.4714 102.163 93.1757 102.163 99.014L102.156 282.863C105.663 281.904 108.955 280.286 111.856 278.096C116.526 274.537 120.012 269.65 121.856 264.076C123.701 258.502 123.818 252.5 122.192 246.858C114.594 220.481 111.762 192.96 113.829 165.588C114.204 160.552 115.941 155.713 118.853 151.588H155.211C166.611 151.588 177.997 150.791 189.286 149.202C241.824 141.806 290.528 117.516 328.044 80L383.683 135.639C387.502 139.457 391.868 142.686 396.637 145.219C399.39 161.959 400.306 178.949 399.368 195.888C398.399 213.147 395.497 230.243 390.716 246.855C390.616 247.188 390.551 247.525 390.467 247.855C389.083 253.378 389.348 259.187 391.23 264.561C393.112 269.935 396.528 274.64 401.056 278.093C403.958 280.281 407.25 281.898 410.756 282.856C433.305 243 439.615 195.983 428.374 151.592H428.373Z" fill="#8288CB"/>
<path d="M256.515 8.00002C246.1 7.99511 235.703 8.85574 225.43 10.573C178.207 18.4753 135.853 44.2883 107.186 82.637C92.3893 102.574 84.4423 126.765 84.533 151.593H84.54C73.2958 195.986 79.6057 243.006 102.156 282.864C105.663 281.905 108.955 280.287 111.856 278.097C116.526 274.538 120.012 269.651 121.856 264.077C123.7 258.503 123.818 252.501 122.192 246.859C114.594 220.482 111.762 192.961 113.829 165.589C114.204 160.553 115.94 155.714 118.853 151.589H155.211C166.611 151.59 177.997 150.792 189.286 149.203C172.116 96.2 206.595 34.228 256.515 8.00002Z" fill="#676FB2"/>
</svg>
