<svg width="512" height="512" viewBox="0 0 512 512" fill="none" xmlns="http://www.w3.org/2000/svg">
<path d="M126.431 356.165C115.962 368.281 106.939 381.573 99.5431 395.775C90.2217 413.672 83.7102 432.897 80.2371 452.775C76.889 472.338 76.3063 492.275 78.5061 512H126.43L163.986 460.492L126.431 356.165Z" fill="#2FC8B4"/>
<path d="M432.456 452.775C426.108 417.1 410.225 383.807 386.491 356.425L386.424 356.164L386.378 356.292L386.366 356.278V356.329L348.866 460.492L386.366 511.92V512H434.187C436.387 492.275 435.804 472.338 432.456 452.775Z" fill="#2FC8B4"/>
<path d="M126.431 356.165C119.683 363.985 113.526 372.296 108.011 381.029C112.117 384.459 116.35 387.744 120.711 390.885C128.261 396.314 136.133 401.282 144.283 405.76L126.431 356.165Z" fill="#00AE95"/>
<path d="M386.366 356.165C393.114 363.985 399.271 372.296 404.786 381.029C400.68 384.459 396.447 387.744 392.086 390.885C384.536 396.314 376.664 401.282 368.514 405.76L386.366 356.165Z" fill="#00AE95"/>
<path d="M386.299 356.206C386.32 356.227 386.34 356.258 386.361 356.278V512H126.431V356.165L386.299 356.206Z" fill="#C86D5C"/>
<path d="M126.431 356.165V394.855C164.913 420.529 210.138 434.231 256.399 434.231C302.66 434.231 347.885 420.529 386.367 394.855V356.278C386.346 356.257 386.326 356.227 386.305 356.206L126.431 356.165Z" fill="#AD4F3D"/>
<path d="M155.956 356.165L157.676 372.215C158.016 375.429 160.313 392.54 171.666 414.308C186.566 442.865 210.741 466.888 241.574 483.794L256.429 491.932L271.284 483.794C302.117 466.894 326.296 442.865 341.192 414.308C352.545 392.54 354.832 375.429 355.182 372.215L356.892 356.206L155.956 356.165ZM256.429 456.69C194.144 422.56 188.406 368.929 188.406 368.929H324.452C324.452 368.929 318.699 422.56 256.429 456.69Z" fill="#FFCE1C"/>
<path d="M290.128 431.845C306.579 429.508 322.729 425.403 338.299 419.6C339.299 417.855 340.266 416.092 341.199 414.31C352.552 392.542 354.839 375.431 355.189 372.217L356.899 356.208L257.305 356.187L155.963 356.171L157.682 372.217C158.022 375.431 160.319 392.542 171.672 414.31C172.605 416.102 173.576 417.875 174.584 419.629C190.15 425.424 206.296 429.523 222.742 431.856C191.888 401.377 188.411 368.931 188.411 368.931H324.452C324.452 368.931 320.969 401.368 290.128 431.845Z" fill="#ECB000"/>
<path d="M335.677 361.687C335.677 361.687 328.977 424.169 256.429 463.93C183.866 424.168 177.181 361.687 177.181 361.687H335.677Z" fill="#2FC8B4"/>
<path d="M300.374 430.152C331.974 396.134 335.674 361.687 335.674 361.687H177.174C177.174 361.687 180.874 396.143 212.484 430.165C241.527 435.589 271.324 435.585 300.366 430.152H300.374Z" fill="#00AE95"/>
<path d="M31.506 216.147V216.034C31.5453 167.366 48.5153 120.227 79.506 82.702C85.2405 75.7024 91.3984 69.0606 97.945 62.814C109.916 51.3783 123.109 41.2953 137.287 32.747C137.173 32.678 137.212 32.638 137.463 32.638C173.438 11.2746 214.506 0 256.346 0C298.186 0 339.254 11.2746 375.229 32.638C375.48 32.638 375.52 32.678 375.405 32.747C389.582 41.2955 402.776 51.3786 414.747 62.814C421.293 69.0598 427.449 75.7009 433.182 82.7C464.173 120.226 481.143 167.364 481.182 216.032V216.145L31.506 216.147Z" fill="#EFEDEE"/>
<path d="M433.182 82.6999C427.449 75.7004 421.292 69.0586 414.747 62.8119C402.776 51.3762 389.582 41.2929 375.405 32.7439C375.519 32.6749 375.48 32.6349 375.229 32.6349C339.31 11.139 298.205 -0.144893 256.346 -8.85031e-05C247.742 -0.000760725 239.144 0.466596 230.591 1.39991C263.532 4.93609 295.309 15.5952 323.719 32.6379C323.97 32.6379 324.01 32.6779 323.895 32.7469C338.073 41.2955 351.266 51.3789 363.237 62.8149C369.783 69.0604 375.939 75.7012 381.672 82.6999C412.663 120.225 429.633 167.364 429.672 216.032V216.145H481.181V216.032C481.142 167.364 464.173 120.225 433.182 82.6999V82.6999Z" fill="#D4D2D3"/>
<path d="M67.3121 184.07C78.4329 185.255 88.6755 190.661 95.9294 199.173C103.183 207.686 106.896 218.656 106.302 229.824C105.709 240.992 100.854 251.507 92.7391 259.203C84.6238 266.898 73.8659 271.188 62.6821 271.188C51.4982 271.188 40.7403 266.898 32.625 259.203C24.5097 251.507 19.6552 240.992 19.0616 229.824C18.4681 218.656 22.1807 207.686 29.4347 199.173C36.6886 190.661 46.9312 185.255 58.0521 184.07H67.3121Z" fill="#E3B098"/>
<path d="M255.499 79.8389C180.005 54.1789 132.633 81.1809 103.499 117.723C45.8651 190.023 55.5291 295.597 125.799 355.691C160.46 385.334 206.199 403.354 256.345 403.354C302.763 403.541 347.807 387.613 383.789 358.288C457.629 297.748 467.531 187.5 405.741 114.7C376.052 79.7219 328.899 54.8919 255.499 79.8389Z" fill="#FBC4AC"/>
<path d="M454.746 184.07H445.485C444.124 184.21 442.773 184.44 441.442 184.758C435.178 158.937 422.952 134.943 405.742 114.7C381.893 86.5999 346.769 65.0599 295.833 70.5999C330.544 74.6999 356.151 92.6839 374.833 114.7C436.622 187.5 426.721 297.749 352.882 358.288C321.018 384.287 281.907 399.821 240.887 402.768C245.987 403.149 251.14 403.354 256.344 403.354C302.762 403.541 347.806 387.613 383.788 358.288C411.599 335.517 431.487 304.526 440.599 269.756C443.665 270.783 446.887 271.267 450.119 271.187C461.304 271.189 472.064 266.901 480.181 259.205C488.298 251.509 493.154 240.993 493.748 229.824C494.341 218.654 490.627 207.683 483.371 199.17C476.115 190.658 465.871 185.253 454.748 184.07H454.746Z" fill="#E3B098"/>
<path d="M149.911 258.863C147.862 258.863 145.897 258.049 144.448 256.6C142.999 255.151 142.185 253.186 142.185 251.137V230.431C142.185 228.382 142.999 226.417 144.448 224.968C145.897 223.519 147.862 222.705 149.911 222.705C151.96 222.705 153.925 223.519 155.374 224.968C156.823 226.417 157.637 228.382 157.637 230.431V251.137C157.637 253.186 156.823 255.151 155.374 256.6C153.925 258.049 151.96 258.863 149.911 258.863Z" fill="#3B484A"/>
<path d="M164.011 289.3H135.811C133.762 289.3 131.797 288.486 130.348 287.037C128.899 285.588 128.085 283.623 128.085 281.574C128.085 279.525 128.899 277.559 130.348 276.111C131.797 274.662 133.762 273.848 135.811 273.848H164.011C166.06 273.848 168.025 274.662 169.474 276.111C170.923 277.559 171.737 279.525 171.737 281.574C171.737 283.623 170.923 285.588 169.474 287.037C168.025 288.486 166.06 289.3 164.011 289.3Z" fill="#F98084"/>
<path d="M362.886 258.863C360.837 258.863 358.872 258.049 357.423 256.6C355.974 255.151 355.16 253.186 355.16 251.137V230.431C355.16 228.382 355.974 226.417 357.423 224.968C358.872 223.519 360.837 222.705 362.886 222.705C364.935 222.705 366.9 223.519 368.349 224.968C369.798 226.417 370.612 228.382 370.612 230.431V251.137C370.612 252.152 370.412 253.156 370.024 254.094C369.636 255.031 369.067 255.883 368.349 256.6C367.632 257.318 366.78 257.887 365.843 258.275C364.905 258.663 363.901 258.863 362.886 258.863V258.863Z" fill="#3B484A"/>
<path d="M376.986 289.3H348.786C346.737 289.3 344.772 288.486 343.323 287.037C341.874 285.588 341.06 283.623 341.06 281.574C341.06 279.525 341.874 277.559 343.323 276.111C344.772 274.662 346.737 273.848 348.786 273.848H376.986C379.035 273.848 381 274.662 382.449 276.111C383.898 277.559 384.712 279.525 384.712 281.574C384.712 283.623 383.898 285.588 382.449 287.037C381 288.486 379.035 289.3 376.986 289.3Z" fill="#F98084"/>
<path d="M256.399 304.642C318.673 340.203 339.374 309.471 339.374 309.471C305.131 304.203 339.374 225.18 256.399 247.839C173.424 225.179 207.668 304.202 173.424 309.471C173.424 309.472 194.124 340.2 256.399 304.642Z" fill="#EFEDEE"/>
</svg>
