<svg width="564" height="512" viewBox="0 0 564 512" fill="none" xmlns="http://www.w3.org/2000/svg">
<path d="M413.885 470.64L468.392 448.776C472.676 447.058 476.514 444.392 479.62 440.978C482.726 437.564 485.018 433.491 486.324 429.065C487.631 424.639 487.917 419.974 487.163 415.421C486.408 410.868 484.632 406.544 481.968 402.776C476.821 395.495 474.224 386.717 474.58 377.807C474.936 368.897 478.225 360.355 483.936 353.507C489.757 346.527 493.852 338.274 495.887 329.416C497.921 320.558 497.84 311.345 495.648 302.524C490.171 280.483 488.761 257.627 491.486 235.08L502.554 143.474C504.61 126.465 499.922 109.326 489.495 95.7316C479.068 82.1368 463.73 73.167 446.769 70.744C436.766 69.3149 427.166 65.8348 418.57 60.5218C409.975 55.2089 402.57 48.1777 396.819 39.869C389.232 28.9083 378.547 20.4601 366.132 15.6051C353.716 10.7501 340.135 9.70901 327.125 12.615L301.224 18.403C288.338 21.282 274.975 21.282 262.088 18.403L236.182 12.615C223.172 9.70818 209.59 10.7489 197.175 15.6039C184.76 20.459 174.075 28.9076 166.488 39.869C160.737 48.1777 153.332 55.2089 144.737 60.5218C136.141 65.8348 126.541 69.3149 116.538 70.744C99.5772 73.1674 84.2403 82.1374 73.8131 95.7321C63.386 109.327 58.6981 126.465 60.754 143.474L71.828 235.083C74.5537 257.63 73.1433 280.486 67.666 302.527C65.4743 311.348 65.3926 320.561 67.4275 329.419C69.4624 338.277 73.5566 346.53 79.378 353.51C85.0892 360.358 88.3783 368.9 88.7342 377.81C89.0901 386.72 86.4928 395.498 81.346 402.779C78.6819 406.548 76.906 410.871 76.1516 415.424C75.3972 419.977 75.684 424.641 76.9904 429.068C78.2967 433.494 80.5887 437.567 83.6944 440.981C86.8 444.395 90.6386 447.061 94.922 448.779L149.429 470.643C152.523 471.884 155.826 472.522 159.159 472.522H404.159C407.492 472.522 410.795 471.884 413.888 470.643L413.885 470.64Z" fill="#4E5660"/>
<path d="M418.921 500.196C421.843 500.196 424.73 499.566 427.386 498.351C430.043 497.135 432.407 495.361 434.317 493.151C436.227 490.94 437.639 488.344 438.456 485.54C439.274 482.735 439.478 479.787 439.055 476.896C433.46 439.15 414.486 404.672 385.594 379.747C356.701 354.821 319.813 341.109 281.655 341.109C243.497 341.109 206.609 354.821 177.716 379.747C148.824 404.672 129.85 439.15 124.255 476.896C123.832 479.787 124.036 482.735 124.854 485.54C125.671 488.344 127.083 490.94 128.993 493.151C130.903 495.361 133.267 497.135 135.924 498.351C138.58 499.566 141.467 500.196 144.389 500.196H418.921Z" fill="#FCF2D0"/>
<path d="M200.197 350.816L228.087 469.454L255.968 500.196H307.34L335.221 469.458L363.111 350.82L200.197 350.816Z" fill="#FCF2D0"/>
<path d="M353.941 376.802C353.941 347.708 321.577 324.123 281.654 324.123C241.731 324.123 209.366 347.708 209.366 376.802C209.366 405.896 265.276 441.03 281.654 441.03C298.032 441.03 353.941 405.896 353.941 376.802Z" fill="#B7856B"/>
<path d="M201.94 341.096L159.747 374.654C158.466 375.673 157.441 376.976 156.753 378.461C156.065 379.946 155.733 381.571 155.783 383.206C155.834 384.842 156.265 386.444 157.043 387.883C157.822 389.323 158.925 390.561 160.266 391.499L194.644 415.541C196.596 416.906 197.938 418.98 198.383 421.32C198.828 423.66 198.341 426.081 197.027 428.068L185.394 445.65C184.129 447.562 183.523 449.836 183.67 452.124C183.817 454.412 184.707 456.59 186.206 458.325L222.371 500.191H255.971C251.719 458.685 227.441 378.303 201.944 341.091L201.94 341.096Z" fill="#A3DEFE"/>
<path d="M361.368 341.096L403.561 374.654C404.842 375.673 405.867 376.976 406.555 378.461C407.243 379.946 407.575 381.571 407.525 383.206C407.474 384.842 407.043 386.444 406.265 387.883C405.486 389.323 404.383 390.561 403.042 391.499L368.664 415.541C366.712 416.906 365.37 418.98 364.925 421.32C364.48 423.66 364.966 426.081 366.281 428.068L377.913 445.65C379.178 447.562 379.783 449.836 379.637 452.124C379.49 454.412 378.6 456.59 377.101 458.325L340.936 500.191H307.336C311.588 458.685 335.867 378.303 361.364 341.091L361.368 341.096Z" fill="#A3DEFE"/>
<path d="M131.303 264.1C155.476 239.928 155.476 200.737 131.303 176.564C107.131 152.392 67.9401 152.392 43.7678 176.564C19.5955 200.737 19.5955 239.928 43.7678 264.1C67.9401 288.272 107.131 288.272 131.303 264.1Z" fill="#B7856B"/>
<path d="M87.676 317.561C107.301 317.561 123.211 303.206 123.211 285.497C123.211 267.789 107.301 253.433 87.676 253.433C68.0506 253.433 52.141 267.789 52.141 285.497C52.141 303.206 68.0506 317.561 87.676 317.561Z" fill="#A3DEFE"/>
<path d="M519.465 264.143C543.638 239.971 543.638 200.779 519.465 176.607C495.293 152.435 456.102 152.435 431.93 176.607C407.757 200.779 407.757 239.971 431.93 264.143C456.102 288.315 495.293 288.315 519.465 264.143Z" fill="#B7856B"/>
<path d="M475.632 317.561C495.257 317.561 511.167 303.206 511.167 285.497C511.167 267.789 495.257 253.433 475.632 253.433C456.006 253.433 440.097 267.789 440.097 285.497C440.097 303.206 456.006 317.561 475.632 317.561Z" fill="#A3DEFE"/>
<path d="M470.381 229.474C470.381 325.395 385.881 392.026 281.654 392.026C177.427 392.026 92.927 325.396 92.927 229.474C92.927 133.552 177.423 55.7959 281.654 55.7959C385.885 55.7959 470.381 133.555 470.381 229.477V229.474Z" fill="#CB9D82"/>
<path d="M470.381 229.474C470.381 325.395 385.881 392.026 281.654 392.026C177.427 392.026 92.927 325.396 92.927 229.474C92.927 133.552 177.423 55.7959 281.654 55.7959C385.885 55.7959 470.381 133.555 470.381 229.477V229.474Z" fill="#CB9D82"/>
<path d="M193.742 285.598C211.657 285.598 226.18 274.032 226.18 259.766C226.18 245.499 211.657 233.934 193.742 233.934C175.827 233.934 161.304 245.499 161.304 259.766C161.304 274.032 175.827 285.598 193.742 285.598Z" fill="white"/>
<path d="M369.566 285.598C387.481 285.598 402.004 274.032 402.004 259.766C402.004 245.499 387.481 233.934 369.566 233.934C351.651 233.934 337.128 245.499 337.128 259.766C337.128 274.032 351.651 285.598 369.566 285.598Z" fill="white"/>
<path d="M228.087 239.157C226.098 239.157 224.19 238.367 222.784 236.96C221.377 235.554 220.587 233.646 220.587 231.657C220.587 229.551 219.75 227.532 218.262 226.043C216.773 224.554 214.753 223.717 212.647 223.717C210.542 223.717 208.522 224.554 207.033 226.043C205.544 227.532 204.708 229.551 204.708 231.657C204.708 233.646 203.918 235.554 202.511 236.96C201.105 238.367 199.197 239.157 197.208 239.157C195.219 239.157 193.311 238.367 191.905 236.96C190.498 235.554 189.708 233.646 189.708 231.657C189.708 225.573 192.125 219.738 196.427 215.436C200.729 211.134 206.564 208.717 212.647 208.717C218.731 208.717 224.566 211.134 228.868 215.436C233.17 219.738 235.587 225.573 235.587 231.657C235.587 233.646 234.797 235.554 233.39 236.96C231.984 238.367 230.076 239.157 228.087 239.157Z" fill="#4E5660"/>
<path d="M366.101 239.157C364.112 239.157 362.204 238.367 360.798 236.96C359.391 235.554 358.601 233.646 358.601 231.657C358.601 229.551 357.764 227.532 356.276 226.043C354.787 224.554 352.767 223.717 350.661 223.717C348.556 223.717 346.536 224.554 345.047 226.043C343.558 227.532 342.722 229.551 342.722 231.657C342.722 233.646 341.932 235.554 340.525 236.96C339.119 238.367 337.211 239.157 335.222 239.157C333.233 239.157 331.325 238.367 329.919 236.96C328.512 235.554 327.722 233.646 327.722 231.657C327.722 225.573 330.139 219.738 334.441 215.436C338.743 211.134 344.578 208.717 350.661 208.717C356.745 208.717 362.58 211.134 366.882 215.436C371.184 219.738 373.601 225.573 373.601 231.657C373.601 233.646 372.811 235.554 371.404 236.96C369.998 238.367 368.09 239.157 366.101 239.157Z" fill="#4E5660"/>
<path d="M281.654 264.663C277.478 264.662 273.35 263.766 269.55 262.035C265.749 260.304 262.364 257.778 259.622 254.628C258.327 253.127 257.678 251.174 257.819 249.196C257.96 247.218 258.878 245.376 260.373 244.074C261.868 242.771 263.818 242.113 265.797 242.245C267.775 242.376 269.621 243.285 270.931 244.774C272.264 246.309 273.911 247.541 275.761 248.385C277.611 249.228 279.621 249.665 281.654 249.665C283.687 249.665 285.697 249.228 287.547 248.385C289.397 247.541 291.044 246.309 292.377 244.774C293.024 244.031 293.811 243.423 294.693 242.985C295.575 242.546 296.535 242.286 297.517 242.218C298.5 242.151 299.486 242.277 300.42 242.591C301.354 242.905 302.216 243.399 302.959 244.046C303.702 244.693 304.31 245.48 304.748 246.362C305.187 247.244 305.447 248.204 305.515 249.186C305.582 250.169 305.456 251.155 305.142 252.089C304.828 253.023 304.334 253.885 303.687 254.628C300.945 257.778 297.559 260.304 293.759 262.035C289.958 263.766 285.83 264.662 281.654 264.663V264.663Z" fill="#4E5660"/>
<path d="M281.654 49.6118C394.936 49.6118 472.101 116.302 480.876 203.566C481.078 205.622 480.796 207.696 480.052 209.623C479.307 211.55 478.121 213.275 476.589 214.66C475.057 216.046 473.221 217.052 471.229 217.6C469.237 218.147 467.145 218.22 465.12 217.812C405.136 205.484 359.5 161.261 340.152 114.932C339.61 113.636 338.757 112.494 337.668 111.608C336.578 110.722 335.287 110.119 333.908 109.853C332.529 109.586 331.106 109.665 329.765 110.082C328.423 110.498 327.206 111.24 326.221 112.241C283.715 154.801 150.905 205.566 98.645 217.667C96.5985 218.149 94.4667 218.136 92.426 217.63C90.3854 217.124 88.4946 216.14 86.9103 214.757C85.3261 213.375 84.0938 211.636 83.3158 209.682C82.5377 207.729 82.2361 205.619 82.436 203.526C91.231 116.282 168.389 49.6118 281.654 49.6118Z" fill="#4E5660"/>
<path d="M161.785 45.9521C150.201 59.422 134.123 68.2311 116.536 70.7442C99.5756 73.1681 84.2391 82.1383 73.8124 95.7329C63.3856 109.328 58.6981 126.465 60.754 143.474L63.169 163.448C71.6418 159.811 80.8225 158.121 90.035 158.502C91.243 158.551 92.435 158.644 93.626 158.761C87.7382 173.059 83.9685 188.14 82.436 203.526C82.2361 205.619 82.5377 207.73 83.3158 209.683C84.0938 211.636 85.326 213.376 86.9103 214.758C88.4946 216.14 90.3854 217.125 92.426 217.631C94.4667 218.137 96.5985 218.149 98.645 217.667C126.469 211.225 177.124 193.822 224.828 172.533C183.363 152.316 153.971 90.3331 161.785 45.9521V45.9521Z" fill="#3A4351"/>
</svg>
