<svg width="512" height="512" viewBox="0 0 512 512" fill="none" xmlns="http://www.w3.org/2000/svg">
<path d="M142.938 512H114.282C112.069 512 109.947 511.121 108.382 509.556C106.817 507.992 105.938 505.869 105.938 503.656V481.722C105.902 464.316 110.666 447.236 119.706 432.361C128.746 417.486 141.713 405.391 157.18 397.406L174.22 430.248C164.778 435.123 156.862 442.507 151.343 451.588C145.824 460.669 142.916 471.096 142.937 481.722V512H142.938Z" fill="#FBAB5F"/>
<path opacity="0.15" d="M142.938 512H114.282C112.069 512 109.947 511.121 108.382 509.556C106.817 507.992 105.938 505.869 105.938 503.656V481.722C105.902 464.316 110.666 447.236 119.706 432.361C128.746 417.486 141.713 405.391 157.18 397.406L174.22 430.248C164.778 435.123 156.862 442.507 151.343 451.588C145.824 460.669 142.916 471.096 142.937 481.722V512H142.938Z" fill="black"/>
<path d="M369.844 512H398.5C400.713 512 402.835 511.121 404.4 509.556C405.965 507.992 406.844 505.869 406.844 503.656V481.722C406.88 464.316 402.116 447.236 393.076 432.361C384.036 417.486 371.069 405.391 355.602 397.406L338.562 430.248C348.004 435.123 355.92 442.507 361.439 451.588C366.958 460.669 369.866 471.096 369.845 481.722V512H369.844Z" fill="#FBAB5F"/>
<path opacity="0.15" d="M369.844 512H398.5C400.713 512 402.835 511.121 404.4 509.556C405.965 507.992 406.844 505.869 406.844 503.656V481.722C406.88 464.316 402.116 447.236 393.076 432.361C384.036 417.486 371.069 405.391 355.602 397.406L338.562 430.248C348.004 435.123 355.92 442.507 361.439 451.588C366.958 460.669 369.866 471.096 369.845 481.722V512H369.844Z" fill="black"/>
<path d="M256.391 322.422C226.239 322.422 197.322 334.4 176.001 355.721C154.68 377.041 142.702 405.959 142.702 436.111V512H370.081V436.112C370.081 405.959 358.103 377.042 336.782 355.721C315.461 334.4 286.543 322.422 256.391 322.422Z" fill="#FBAB5F"/>
<path opacity="0.15" d="M300.508 328.228L268.593 391.128C267.449 393.381 265.704 395.273 263.55 396.594C261.397 397.916 258.92 398.616 256.393 398.616C253.866 398.616 251.389 397.916 249.236 396.594C247.082 395.273 245.337 393.381 244.193 391.128L212.278 328.228H300.508Z" fill="black"/>
<path opacity="0.1" d="M256.391 322.422C226.453 322.384 197.717 334.194 176.458 355.274C201.285 367.655 228.648 374.1 256.391 374.1C284.134 374.1 311.497 367.655 336.324 355.274C315.065 334.195 286.329 322.384 256.391 322.422Z" fill="black"/>
<path d="M77.541 210.631C94.9606 210.631 109.082 196.509 109.082 179.09C109.082 161.67 94.9606 147.549 77.541 147.549C60.1214 147.549 46 161.67 46 179.09C46 196.509 60.1214 210.631 77.541 210.631Z" fill="#E6B292"/>
<path d="M435.241 210.631C452.661 210.631 466.782 196.509 466.782 179.09C466.782 161.67 452.661 147.549 435.241 147.549C417.821 147.549 403.7 161.67 403.7 179.09C403.7 196.509 417.821 210.631 435.241 210.631Z" fill="#E6B292"/>
<path d="M256.391 357.7C355.167 357.7 435.241 277.626 435.241 178.85C435.241 80.0739 355.167 0 256.391 0C157.615 0 77.541 80.0739 77.541 178.85C77.541 277.626 157.615 357.7 256.391 357.7Z" fill="#E6B292"/>
<path opacity="0.2" d="M435.241 178.85C435.241 131.416 416.398 85.9248 382.857 52.384C349.316 18.8431 303.825 0 256.391 0C208.957 0 163.466 18.8431 129.925 52.384C96.3841 85.9248 77.541 131.416 77.541 178.85H100.063C104.482 178.846 108.746 177.221 112.046 174.281C115.346 171.341 117.451 167.292 117.963 162.903C120.388 142.456 128.583 106.978 156.115 84.609C157.311 83.6397 158.782 83.0707 160.319 82.9824C161.856 82.8941 163.382 83.291 164.681 84.117C189.561 99.836 221.524 109.291 256.393 109.291C291.262 109.291 323.224 99.836 348.105 84.117C349.404 83.2913 350.93 82.8946 352.467 82.9829C354.004 83.0712 355.475 83.64 356.671 84.609C384.203 106.978 392.398 142.456 394.823 162.903C395.335 167.292 397.441 171.341 400.74 174.281C404.04 177.22 408.304 178.846 412.723 178.85H435.241Z" fill="#513130"/>
<path d="M165.701 186.584C163.712 186.584 161.804 185.794 160.398 184.387C158.991 182.981 158.201 181.073 158.201 179.084V161.266C158.201 159.277 158.991 157.369 160.398 155.963C161.804 154.556 163.712 153.766 165.701 153.766C167.69 153.766 169.598 154.556 171.004 155.963C172.411 157.369 173.201 159.277 173.201 161.266V179.084C173.201 181.073 172.411 182.981 171.004 184.387C169.598 185.794 167.69 186.584 165.701 186.584Z" fill="#4A5058"/>
<path d="M347.081 186.584C345.092 186.584 343.184 185.794 341.778 184.387C340.371 182.981 339.581 181.073 339.581 179.084V161.266C339.581 159.277 340.371 157.369 341.778 155.963C343.184 154.556 345.092 153.766 347.081 153.766C349.07 153.766 350.978 154.556 352.384 155.963C353.791 157.369 354.581 159.277 354.581 161.266V179.084C354.581 181.073 353.791 182.981 352.384 184.387C350.978 185.794 349.07 186.584 347.081 186.584Z" fill="#4A5058"/>
<path d="M256.391 235.727C251.816 235.719 247.29 234.775 243.093 232.954C238.895 231.134 235.114 228.474 231.982 225.139C230.622 223.687 229.894 221.755 229.959 219.766C230.024 217.778 230.876 215.897 232.328 214.537C233.78 213.177 235.712 212.449 237.701 212.514C239.689 212.579 241.57 213.431 242.93 214.883C244.654 216.727 246.738 218.198 249.054 219.203C251.37 220.208 253.867 220.727 256.392 220.727C258.917 220.727 261.414 220.208 263.73 219.203C266.046 218.198 268.13 216.727 269.854 214.883C270.527 214.164 271.336 213.585 272.233 213.179C273.13 212.772 274.099 212.546 275.083 212.514C276.068 212.482 277.049 212.644 277.971 212.991C278.893 213.338 279.737 213.864 280.456 214.537C281.175 215.21 281.754 216.019 282.16 216.916C282.567 217.813 282.793 218.782 282.825 219.766C282.857 220.751 282.695 221.732 282.348 222.654C282.001 223.576 281.475 224.42 280.802 225.139C277.669 228.474 273.888 231.133 269.69 232.954C265.492 234.774 260.967 235.718 256.391 235.727V235.727Z" fill="#4A5058"/>
<path opacity="0.1" d="M282.896 335.122C247.786 335.124 213.451 324.791 184.174 305.411C154.896 286.032 131.971 258.463 118.256 226.142C104.541 193.821 100.643 158.179 107.048 123.657C113.453 89.136 129.877 57.2638 154.274 32.0142C133.785 46.2612 116.504 64.6386 103.543 85.9645C90.5814 107.29 82.2267 131.093 79.0157 155.841C75.8048 180.589 77.8087 205.736 84.8985 229.663C91.9884 253.591 104.007 275.769 120.182 294.773C136.358 313.778 156.331 329.186 178.818 340.008C201.305 350.831 225.808 356.827 250.751 357.612C275.695 358.397 300.526 353.953 323.649 344.567C346.772 335.18 367.675 321.057 385.013 303.108C355.063 324.001 319.413 335.178 282.896 335.122Z" fill="#513130"/>
<path opacity="0.3" d="M370.081 459.27H142.701V512.001H370.081V459.27Z" fill="white"/>
</svg>
