<svg width="513" height="512" viewBox="0 0 513 512" fill="none" xmlns="http://www.w3.org/2000/svg">
<path d="M215.606 396.822C212.825 396.822 210.071 396.274 207.502 395.21C204.933 394.146 202.598 392.586 200.632 390.62C198.665 388.654 197.105 386.319 196.041 383.75C194.977 381.181 194.43 378.427 194.43 375.646V333.795H236.782V375.647C236.782 378.428 236.234 381.181 235.17 383.75C234.106 386.32 232.546 388.654 230.579 390.62C228.613 392.587 226.279 394.146 223.709 395.21C221.14 396.274 218.387 396.822 215.606 396.822Z" fill="#BAE7FF"/>
<path d="M296.396 396.822C302.012 396.821 307.398 394.59 311.369 390.619C315.34 386.648 317.571 381.262 317.572 375.646V333.795H275.216V375.647C275.217 381.263 277.449 386.65 281.421 390.621C285.393 394.592 290.779 396.822 296.396 396.822Z" fill="#8CD6FE"/>
<path d="M175.052 234.158C153.837 226.33 116.474 213.49 92.2242 200.158C87.6869 197.637 82.5213 196.471 77.3411 196.8C72.1609 197.128 67.1838 198.936 63.0012 202.01C34.3012 223.35 -6.31884 273.283 0.829157 331.572C0.975951 332.806 1.42298 333.985 2.13109 335.006C2.83921 336.026 3.78681 336.858 4.89093 337.428C5.99505 337.998 7.22201 338.288 8.46437 338.273C9.70673 338.259 10.9266 337.94 12.0172 337.345C29.8922 327.545 63.4172 321.298 88.0372 334.001C90.5754 335.3 93.4755 335.711 96.2748 335.17C99.0742 334.628 101.612 333.165 103.482 331.013C117.582 315.079 151.912 303.892 172.271 316.845L175.052 234.158Z" fill="#BAE7FF"/>
<path d="M172.271 316.846L174.115 262.046C144.638 255.827 109.715 244.003 86.6147 225.73C85.2878 224.678 83.6851 224.032 81.9997 223.87C80.3142 223.708 78.6179 224.036 77.1147 224.816C49.6697 239.207 24.7827 279.996 23.8447 332.226C42.3797 325.871 68.0447 323.742 87.9307 333.949C90.4763 335.268 93.3903 335.696 96.2075 335.164C99.0248 334.633 101.583 333.174 103.474 331.019C117.571 315.084 151.911 303.893 172.271 316.846Z" fill="#FAE0BD"/>
<path d="M87.5281 315.861C86.0744 315.86 84.6522 315.437 83.434 314.644C82.2157 313.851 81.2539 312.721 80.6651 311.392C73.3651 294.88 71.9781 261.283 72.5361 252.869C72.6677 250.884 73.5824 249.032 75.079 247.722C76.5757 246.411 78.5316 245.749 80.5166 245.88C82.5017 246.012 84.3531 246.927 85.6637 248.423C86.9743 249.92 87.6367 251.876 87.5051 253.861C86.9741 261.884 88.5051 292.045 94.3841 305.326C94.8876 306.468 95.0986 307.717 94.998 308.96C94.8974 310.204 94.4883 311.403 93.8078 312.449C93.1273 313.494 92.1969 314.354 91.1006 314.95C90.0043 315.546 88.7768 315.859 87.5291 315.861H87.5281Z" fill="#F3BE77"/>
<path d="M336.95 234.158C358.161 226.33 395.528 213.49 419.778 200.158C424.315 197.637 429.481 196.471 434.661 196.8C439.841 197.128 444.819 198.936 449.001 202.01C477.701 223.35 518.325 273.283 511.173 331.573C511.026 332.806 510.579 333.984 509.871 335.005C509.163 336.025 508.216 336.857 507.113 337.426C506.009 337.996 504.783 338.286 503.541 338.272C502.299 338.258 501.08 337.94 499.989 337.346C482.114 327.546 448.589 321.299 423.969 334.002C421.431 335.301 418.531 335.713 415.732 335.171C412.932 334.629 410.395 333.166 408.524 331.014C394.424 315.08 360.09 303.893 339.735 316.846L336.95 234.158Z" fill="#8CD6FE"/>
<path d="M339.731 316.846L337.887 262.046C367.364 255.827 402.287 244.003 425.387 225.73C426.714 224.678 428.316 224.032 430.002 223.87C431.687 223.708 433.384 224.036 434.887 224.816C462.328 239.207 487.219 279.996 488.157 332.226C469.618 325.871 443.957 323.742 424.071 333.949C421.525 335.268 418.611 335.696 415.794 335.164C412.977 334.633 410.419 333.174 408.528 331.019C394.431 315.084 360.091 303.893 339.731 316.846Z" fill="#FAE0BD"/>
<path d="M424.474 315.861C423.226 315.859 421.998 315.546 420.901 314.95C419.805 314.353 418.874 313.493 418.194 312.447C417.513 311.401 417.104 310.201 417.004 308.957C416.903 307.713 417.115 306.464 417.619 305.322C423.494 292.041 425.029 261.885 424.498 253.861C424.415 252.869 424.531 251.87 424.838 250.923C425.146 249.976 425.638 249.1 426.288 248.345C426.937 247.591 427.731 246.973 428.621 246.528C429.512 246.083 430.483 245.82 431.476 245.754C432.469 245.689 433.466 245.821 434.408 246.145C435.349 246.468 436.217 246.975 436.961 247.638C437.704 248.3 438.308 249.104 438.738 250.002C439.168 250.9 439.414 251.875 439.463 252.869C440.026 261.283 438.639 294.881 431.334 311.392C430.747 312.721 429.786 313.852 428.568 314.645C427.35 315.438 425.928 315.861 424.474 315.861Z" fill="#F3BE77"/>
<path d="M242.017 183.846C202.595 115.432 163.814 114.311 127.024 115.127C123.172 115.212 119.502 116.78 116.778 119.505C114.053 122.229 112.486 125.9 112.401 129.752C111.581 166.545 112.701 205.322 181.12 244.744L242.017 183.846Z" fill="#8CD6FE"/>
<path d="M112.31 134.627C111.81 169.963 115.716 207.061 181.119 244.744L219.856 206.002C207.946 157.502 155.149 133.76 112.31 134.627Z" fill="#FAE0BD"/>
<path d="M116.321 174.029C148.329 176.877 176.321 198.205 192.837 233.021L204.021 221.841C193.567 201.713 179.146 185.402 162.036 174.475C147.447 165.067 130.639 159.667 113.301 158.818C113.911 163.959 114.921 169.045 116.321 174.029Z" fill="#F3BE77"/>
<path d="M269.985 183.846C309.407 115.432 348.189 114.311 384.978 115.127C388.83 115.213 392.5 116.781 395.224 119.505C397.948 122.23 399.516 125.9 399.601 129.752C400.417 166.545 399.301 205.322 330.882 244.744L269.985 183.846Z" fill="#8CD6FE"/>
<path d="M399.693 134.627C400.193 169.963 396.286 207.061 330.883 244.744L292.146 206.002C304.056 157.502 356.854 133.76 399.693 134.627Z" fill="#FAE0BD"/>
<path d="M319.161 233.025C335.677 198.205 363.661 176.877 395.681 174.033C397.082 169.047 398.091 163.96 398.701 158.818C381.365 159.669 364.558 165.07 349.971 174.478C332.856 185.402 318.431 201.713 307.981 221.842L319.161 233.025Z" fill="#F3BE77"/>
<path d="M368.337 256.08C368.337 194.041 318.037 164.103 256.001 164.103C193.965 164.103 143.665 194.041 143.665 256.08C143.665 318.119 193.958 364.232 256.001 364.232C318.044 364.232 368.337 318.123 368.337 256.08Z" fill="#BAE7FF"/>
<path d="M301.009 355.533C202.439 348.404 199.564 219.947 220.439 167.733C175.826 177.393 143.666 206.471 143.666 256.085C143.666 318.124 193.959 364.233 256.002 364.233C271.426 364.278 286.712 361.323 301.009 355.533Z" fill="#8CD6FE"/>
<path d="M233.643 276.596C232.382 276.594 231.143 276.274 230.038 275.667C228.934 275.06 228 274.184 227.323 273.12C226.647 272.057 226.248 270.841 226.166 269.583C226.083 268.325 226.318 267.067 226.85 265.924L233.127 252.459C233.975 250.668 235.497 249.285 237.361 248.613C239.225 247.941 241.28 248.034 243.075 248.871C244.871 249.709 246.263 251.223 246.946 253.083C247.629 254.943 247.548 256.998 246.721 258.799L240.444 272.26C239.84 273.555 238.88 274.651 237.675 275.419C236.471 276.187 235.072 276.596 233.643 276.596Z" fill="white"/>
<path d="M278.36 276.596C276.932 276.596 275.533 276.189 274.329 275.421C273.124 274.654 272.164 273.559 271.56 272.264L265.282 258.802C264.847 257.907 264.595 256.934 264.54 255.941C264.485 254.947 264.628 253.953 264.961 253.015C265.294 252.077 265.81 251.215 266.479 250.479C267.149 249.743 267.958 249.147 268.86 248.727C269.762 248.306 270.738 248.07 271.733 248.03C272.727 247.991 273.719 248.15 274.651 248.498C275.584 248.846 276.437 249.376 277.163 250.057C277.888 250.739 278.471 251.557 278.876 252.466L285.153 265.927C285.685 267.07 285.92 268.328 285.837 269.586C285.755 270.844 285.357 272.06 284.68 273.123C284.003 274.187 283.069 275.063 281.965 275.67C280.86 276.277 279.621 276.597 278.36 276.599V276.596Z" fill="white"/>
<path d="M210.86 271.193C210.86 259.584 199.044 250.173 184.465 250.173C169.886 250.173 158.065 259.583 158.065 271.193C158.065 282.803 169.885 292.213 184.465 292.213C199.045 292.213 210.86 282.802 210.86 271.193Z" fill="white"/>
<path d="M353.936 271.193C353.936 259.584 342.116 250.173 327.536 250.173C312.956 250.173 301.141 259.583 301.141 271.193C301.141 282.803 312.957 292.213 327.536 292.213C342.115 292.213 353.936 282.802 353.936 271.193Z" fill="white"/>
<path d="M199.85 257.725C197.86 257.725 195.953 256.935 194.546 255.528C193.14 254.122 192.35 252.214 192.35 250.225V240.902C192.35 238.913 193.14 237.005 194.546 235.599C195.953 234.192 197.86 233.402 199.85 233.402C201.839 233.402 203.746 234.192 205.153 235.599C206.559 237.005 207.35 238.913 207.35 240.902V250.222C207.35 251.207 207.156 252.183 206.78 253.093C206.403 254.003 205.85 254.83 205.154 255.527C204.457 256.224 203.631 256.777 202.72 257.154C201.81 257.531 200.835 257.725 199.85 257.725Z" fill="#4E5660"/>
<path d="M312.153 257.725C310.164 257.725 308.257 256.935 306.85 255.528C305.443 254.122 304.653 252.214 304.653 250.225V240.902C304.653 238.913 305.443 237.005 306.85 235.599C308.257 234.192 310.164 233.402 312.153 233.402C314.142 233.402 316.05 234.192 317.457 235.599C318.863 237.005 319.653 238.913 319.653 240.902V250.222C319.654 251.207 319.46 252.183 319.083 253.093C318.707 254.003 318.154 254.83 317.458 255.527C316.761 256.224 315.934 256.777 315.024 257.154C314.114 257.531 313.138 257.725 312.153 257.725Z" fill="#4E5660"/>
<path d="M256.001 267.256C250.148 267.255 244.363 265.999 239.037 263.573C233.71 261.148 228.965 257.608 225.122 253.194C223.815 251.694 223.158 249.737 223.294 247.752C223.43 245.768 224.349 243.919 225.849 242.612C227.349 241.305 229.306 240.648 231.291 240.784C233.275 240.92 235.124 241.839 236.431 243.339C238.865 246.139 241.872 248.384 245.248 249.923C248.624 251.461 252.291 252.257 256.002 252.257C259.712 252.257 263.379 251.461 266.755 249.923C270.131 248.384 273.138 246.139 275.572 243.339C276.219 242.596 277.006 241.989 277.888 241.55C278.77 241.112 279.73 240.851 280.713 240.784C281.695 240.716 282.682 240.843 283.615 241.157C284.549 241.47 285.412 241.965 286.154 242.612C286.897 243.259 287.505 244.046 287.943 244.928C288.381 245.81 288.642 246.77 288.709 247.752C288.777 248.735 288.65 249.721 288.336 250.655C288.023 251.589 287.528 252.451 286.881 253.194C283.037 257.608 278.292 261.147 272.966 263.573C267.639 265.999 261.854 267.254 256.001 267.256Z" fill="#4E5660"/>
</svg>
