<svg width="512" height="512" viewBox="0 0 512 512" fill="none" xmlns="http://www.w3.org/2000/svg">
<path d="M320.1 439.188C311.049 430.136 305.585 418.109 304.72 405.337C303.856 392.565 307.651 379.912 315.4 369.723L392.4 268.523C396.972 262.513 402.778 257.552 409.426 253.972C416.075 250.392 423.412 248.276 430.946 247.766C438.48 247.257 446.036 248.365 453.105 251.018C460.175 253.67 466.596 257.805 471.935 263.144L496.135 287.344C501.474 292.684 505.608 299.104 508.26 306.174C510.913 313.244 512.021 320.8 511.512 328.333C511.002 335.867 508.886 343.204 505.306 349.853C501.727 356.501 496.765 362.307 490.756 366.879L389.556 443.879C379.369 451.628 366.719 455.422 353.949 454.559C341.178 453.697 329.153 448.236 320.1 439.188Z" fill="#4E5660"/>
<path d="M210.946 452.828H182.801C174.954 452.828 167.429 455.945 161.88 461.494C156.332 467.042 153.215 474.567 153.215 482.414C153.215 490.261 156.332 497.786 161.88 503.334C167.429 508.883 174.954 512 182.801 512H210.942C218.789 512 226.314 508.883 231.862 503.334C237.411 497.786 240.528 490.261 240.528 482.414C240.528 474.567 237.411 467.042 231.862 461.494C226.314 455.945 218.789 452.828 210.942 452.828H210.946Z" fill="#E1B89A"/>
<path d="M308.957 452.828H337.1C344.947 452.828 352.472 455.945 358.021 461.494C363.569 467.042 366.686 474.567 366.686 482.414C366.686 490.261 363.569 497.786 358.021 503.334C352.472 508.883 344.947 512 337.1 512H308.957C301.11 512 293.585 508.883 288.037 503.334C282.488 497.786 279.371 490.261 279.371 482.414C279.371 474.567 282.488 467.042 288.037 461.494C293.585 455.945 301.11 452.828 308.957 452.828Z" fill="#D2996F"/>
<path d="M152.47 88.672H101.517C96.8373 88.6969 92.199 87.7966 87.8685 86.023C83.538 84.2494 79.6007 81.6375 76.283 78.3373C72.9652 75.0371 70.3324 71.1137 68.5359 66.7927C66.7393 62.4716 65.8145 57.8382 65.8145 53.1585C65.8145 48.4789 66.7393 43.8454 68.5359 39.5244C70.3324 35.2034 72.9652 31.28 76.283 27.9798C79.6007 24.6796 83.538 22.0676 87.8685 20.294C92.199 18.5205 96.8373 17.6202 101.517 17.645C115.031 17.6458 127.991 23.0146 137.546 32.5704C147.101 42.1262 152.47 55.0863 152.47 68.6V88.672Z" fill="#D2996F"/>
<path d="M125.771 75.969C124.388 75.9685 123.034 75.5846 121.857 74.86L94.7386 58.23C93.0427 57.1904 91.8292 55.5196 91.3652 53.5852C90.9011 51.6509 91.2245 49.6114 92.2641 47.9155C93.3038 46.2196 94.9745 45.0061 96.9089 44.5421C98.8432 44.078 100.883 44.4014 102.579 45.441L129.701 62.074C131.095 62.9283 132.172 64.215 132.767 65.7379C133.363 67.2609 133.444 68.9367 132.999 70.5102C132.554 72.0837 131.607 73.4687 130.302 74.4541C128.997 75.4396 127.406 75.9715 125.771 75.969Z" fill="#E1B89A"/>
<path d="M367.436 88.672H418.393C427.779 88.6222 436.763 84.8587 443.383 78.204C450.002 71.5493 453.718 62.5448 453.718 53.1585C453.718 43.7723 450.002 34.7677 443.383 28.113C436.763 21.4584 427.779 17.6948 418.393 17.645C404.879 17.6458 391.918 23.0145 382.362 32.5701C372.806 42.1258 367.437 55.086 367.436 68.6V88.672Z" fill="#D2996F"/>
<path d="M394.139 75.969C392.503 75.9715 390.912 75.4395 389.607 74.4541C388.302 73.4686 387.355 72.0837 386.91 70.5102C386.465 68.9367 386.546 67.2608 387.142 65.7379C387.737 64.2149 388.814 62.9283 390.209 62.074L417.326 45.441C418.165 44.9262 419.098 44.5819 420.071 44.4276C421.044 44.2734 422.038 44.3123 422.995 44.542C423.953 44.7718 424.856 45.188 425.653 45.7668C426.45 46.3456 427.125 47.0757 427.64 47.9155C428.155 48.7552 428.499 49.6881 428.653 50.6609C428.808 51.6338 428.769 52.6274 428.539 53.5852C428.309 54.543 427.893 55.4462 427.314 56.2431C426.735 57.0401 426.005 57.7152 425.166 58.23L398.053 74.859C396.876 75.5839 395.521 75.9682 394.139 75.969Z" fill="#E1B89A"/>
<path d="M259.954 0C147.165 0 74.7861 73.965 81.3451 164.609C84.6381 210.062 109.618 242.632 143.908 263.754L122.001 341.52C102.329 411.367 154.817 480.68 227.38 480.68H292.528C365.091 480.68 417.579 411.368 397.903 341.52L376.001 263.754C410.294 242.633 435.274 210.063 438.564 164.609C445.122 73.965 372.743 0 259.954 0Z" fill="#E1B89A"/>
<path d="M212.692 4.67993C127.489 22.2539 75.7552 87.3709 81.3452 164.609C84.6382 210.062 109.618 242.632 143.908 263.754L122.001 341.52C102.329 411.367 154.817 480.68 227.38 480.68H292.528C295.551 480.68 298.536 480.551 301.489 480.313C181.841 396.95 172.489 88.7859 212.689 4.67993H212.692Z" fill="#D2996F"/>
<path d="M220.211 321.719C218.222 321.719 216.314 320.929 214.908 319.522C213.501 318.116 212.711 316.208 212.711 314.219V300.594C212.711 298.605 213.501 296.697 214.908 295.291C216.314 293.884 218.222 293.094 220.211 293.094C222.2 293.094 224.108 293.884 225.514 295.291C226.921 296.697 227.711 298.605 227.711 300.594V314.219C227.711 316.208 226.921 318.116 225.514 319.522C224.108 320.929 222.2 321.719 220.211 321.719Z" fill="#D2996F"/>
<path d="M299.691 321.719C297.702 321.719 295.795 320.929 294.388 319.522C292.982 318.116 292.191 316.208 292.191 314.219V300.594C292.191 298.605 292.982 296.697 294.388 295.291C295.795 293.884 297.702 293.094 299.691 293.094C301.681 293.094 303.588 293.884 304.995 295.291C306.401 296.697 307.191 298.605 307.191 300.594V314.219C307.191 316.208 306.401 318.116 304.995 319.522C303.588 320.929 301.681 321.719 299.691 321.719Z" fill="#D2996F"/>
<path d="M259.953 360.816C257.964 360.816 256.056 360.026 254.65 358.619C253.243 357.213 252.453 355.305 252.453 353.316V336.086C252.453 334.097 253.243 332.189 254.65 330.783C256.056 329.376 257.964 328.586 259.953 328.586C261.942 328.586 263.85 329.376 265.256 330.783C266.663 332.189 267.453 334.097 267.453 336.086V353.316C267.453 355.305 266.663 357.213 265.256 358.619C263.85 360.026 261.942 360.816 259.953 360.816Z" fill="#D2996F"/>
<path d="M189.774 329.152L163.442 302.82C157.876 297.357 150.378 294.313 142.58 294.349C134.781 294.386 127.312 297.5 121.797 303.015C116.282 308.529 113.168 315.998 113.131 323.797C113.095 331.596 116.139 339.094 121.601 344.66L147.931 370.992C153.487 376.504 161.001 379.59 168.827 379.575C176.654 379.56 184.155 376.444 189.69 370.91C195.224 365.376 198.34 357.875 198.356 350.049C198.372 342.222 195.287 334.709 189.775 329.152H189.774Z" fill="#E1B89A"/>
<path d="M330.134 329.152L356.466 302.82C362.014 297.272 369.54 294.155 377.386 294.155C385.233 294.155 392.758 297.272 398.306 302.82C403.854 308.368 406.971 315.893 406.971 323.74C406.971 331.587 403.854 339.112 398.306 344.66L371.974 370.992C366.426 376.54 358.901 379.657 351.054 379.657C343.208 379.657 335.682 376.54 330.134 370.992C324.586 365.444 321.469 357.919 321.469 350.072C321.469 342.225 324.586 334.7 330.134 329.152Z" fill="#D2996F"/>
<path d="M259.955 187.5C250.691 187.51 241.607 184.937 233.725 180.07V212.363C233.725 214.123 234.071 215.865 234.745 217.491C235.418 219.117 236.405 220.594 237.649 221.838C238.894 223.083 240.371 224.07 241.997 224.743C243.622 225.416 245.365 225.763 247.125 225.763H272.781C274.54 225.763 276.283 225.416 277.909 224.743C279.534 224.07 281.012 223.083 282.256 221.838C283.5 220.594 284.487 219.117 285.161 217.491C285.834 215.865 286.181 214.123 286.181 212.363V180.07C278.3 184.937 269.217 187.51 259.955 187.5Z" fill="white"/>
<path d="M182.166 144.23C182.166 125.285 162.881 109.93 139.088 109.93C115.295 109.93 96.0137 125.289 96.0137 144.23C96.0137 163.171 115.299 178.53 139.088 178.53C162.877 178.53 182.166 163.176 182.166 144.23Z" fill="white"/>
<path d="M423.892 144.23C423.892 125.285 404.607 109.93 380.818 109.93C357.029 109.93 337.744 125.289 337.744 144.23C337.744 163.171 357.029 178.53 380.818 178.53C404.607 178.53 423.892 163.176 423.892 144.23Z" fill="white"/>
<path d="M164.191 117.512C162.202 117.512 160.295 116.722 158.888 115.315C157.482 113.909 156.691 112.001 156.691 110.012V94.8C156.691 92.8109 157.482 90.9033 158.888 89.4967C160.295 88.0902 162.202 87.3 164.191 87.3C166.181 87.3 168.088 88.0902 169.495 89.4967C170.901 90.9033 171.691 92.8109 171.691 94.8V110.011C171.692 110.996 171.498 111.971 171.121 112.881C170.744 113.792 170.192 114.618 169.495 115.315C168.799 116.012 167.972 116.564 167.062 116.941C166.152 117.318 165.176 117.512 164.191 117.512Z" fill="#4E5660"/>
<path d="M355.715 117.512C353.726 117.512 351.818 116.722 350.412 115.315C349.005 113.909 348.215 112.001 348.215 110.012V94.8C348.215 92.8109 349.005 90.9033 350.412 89.4967C351.818 88.0902 353.726 87.3 355.715 87.3C357.704 87.3 359.612 88.0902 361.018 89.4967C362.425 90.9033 363.215 92.8109 363.215 94.8V110.011C363.215 110.996 363.021 111.971 362.644 112.881C362.267 113.792 361.715 114.618 361.018 115.315C360.322 116.012 359.495 116.564 358.585 116.941C357.675 117.318 356.7 117.512 355.715 117.512Z" fill="#4E5660"/>
<path d="M259.953 195C251.719 194.997 243.582 193.229 236.089 189.817C228.597 186.404 221.922 181.425 216.516 175.215C215.209 173.715 214.551 171.758 214.688 169.774C214.824 167.789 215.743 165.94 217.243 164.633C218.742 163.326 220.7 162.669 222.684 162.805C224.669 162.941 226.518 163.86 227.825 165.36C231.821 169.957 236.757 173.642 242.3 176.168C247.843 178.694 253.863 180.001 259.954 180.001C266.045 180.001 272.065 178.694 277.607 176.168C283.15 173.642 288.086 169.957 292.083 165.36C292.73 164.618 293.517 164.01 294.399 163.571C295.281 163.133 296.24 162.873 297.223 162.805C298.206 162.737 299.192 162.864 300.126 163.178C301.059 163.492 301.922 163.986 302.665 164.633C303.407 165.28 304.015 166.067 304.453 166.949C304.892 167.831 305.152 168.791 305.22 169.774C305.287 170.756 305.161 171.742 304.847 172.676C304.533 173.61 304.039 174.473 303.392 175.215C297.984 181.424 291.31 186.403 283.817 189.816C276.324 193.229 268.186 194.996 259.953 195Z" fill="#4E5660"/>
<path d="M282.387 108.039C267.678 104.188 252.225 104.188 237.516 108.039C231.425 109.634 226.118 113.383 222.579 118.59C221.456 120.241 220.709 122.118 220.391 124.089C220.073 126.06 220.192 128.077 220.738 129.997C221.285 131.918 222.247 133.694 223.556 135.202C224.865 136.71 226.489 137.912 228.313 138.723L249.868 148.305C253.043 149.717 256.479 150.447 259.954 150.447C263.429 150.447 266.865 149.717 270.04 148.305L291.595 138.723C293.419 137.912 295.043 136.71 296.352 135.202C297.661 133.694 298.623 131.918 299.17 129.997C299.717 128.077 299.835 126.06 299.517 124.089C299.199 122.118 298.452 120.241 297.329 118.59C293.789 113.381 288.48 109.633 282.387 108.039Z" fill="#4E5660"/>
<path d="M433.07 327.207C431.081 327.207 429.174 326.417 427.767 325.01C426.36 323.604 425.57 321.696 425.57 319.707V304.184C425.57 302.195 426.36 300.287 427.767 298.881C429.174 297.474 431.081 296.684 433.07 296.684C435.059 296.684 436.967 297.474 438.374 298.881C439.78 300.287 440.57 302.195 440.57 304.184V319.707C440.57 321.696 439.78 323.604 438.374 325.01C436.967 326.417 435.059 327.207 433.07 327.207Z" fill="#383C43"/>
<path d="M459.07 352.816C457.081 352.816 455.174 352.026 453.767 350.619C452.36 349.213 451.57 347.305 451.57 345.316V323.59C451.57 321.601 452.36 319.693 453.767 318.287C455.174 316.88 457.081 316.09 459.07 316.09C461.059 316.09 462.967 316.88 464.374 318.287C465.78 319.693 466.57 321.601 466.57 323.59V345.317C466.57 347.306 465.78 349.213 464.373 350.62C462.967 352.026 461.059 352.816 459.07 352.816Z" fill="#383C43"/>
</svg>
