<svg width="512" height="512" viewBox="0 0 512 512" fill="none" xmlns="http://www.w3.org/2000/svg">
<path d="M207.774 202.832L158.856 251.754C145.979 264.471 128.593 271.576 110.495 271.519C92.3972 271.462 75.0567 264.248 62.2595 251.451C49.4622 238.653 42.2476 221.313 42.1908 203.215C42.1339 185.117 49.2394 167.731 61.956 154.854C77.9949 138.816 99.7482 129.805 122.43 129.805C145.113 129.805 166.866 138.816 182.905 154.854L207.776 179.725C209.293 181.242 210.497 183.044 211.318 185.026C212.139 187.009 212.561 189.133 212.561 191.279C212.561 193.425 212.138 195.549 211.317 197.532C210.495 199.514 209.291 201.315 207.774 202.832Z" fill="#8CD6FE"/>
<path d="M116.415 202.484C114.426 202.513 112.507 201.751 111.08 200.365C109.653 198.979 108.835 197.083 108.805 195.094C108.776 193.104 109.539 191.185 110.925 189.758C112.311 188.331 114.207 187.513 116.196 187.484L178.524 185.621C179.517 185.578 180.508 185.733 181.44 186.076C182.373 186.419 183.227 186.944 183.955 187.621C184.683 188.297 185.269 189.111 185.679 190.016C186.09 190.921 186.316 191.898 186.346 192.891C186.375 193.885 186.207 194.874 185.851 195.801C185.495 196.729 184.958 197.576 184.272 198.295C183.586 199.013 182.763 199.588 181.853 199.986C180.943 200.384 179.962 200.597 178.969 200.613L116.641 202.476C116.567 202.48 116.489 202.484 116.415 202.484Z" fill="#BAE7FF"/>
<path d="M314.935 497.332C314.384 497.332 313.83 497.309 313.275 497.266C310.603 497.051 308.001 496.313 305.615 495.092C303.229 493.871 301.107 492.192 299.371 490.15C297.634 488.109 296.317 485.746 295.494 483.195C294.671 480.645 294.359 477.957 294.575 475.286C296.704 448.907 270.341 431.048 266.513 429.434C261.526 427.334 257.577 423.339 255.535 418.327C253.494 413.316 253.526 407.699 255.626 402.711C257.726 397.724 261.722 393.775 266.733 391.734C271.744 389.692 277.362 389.725 282.349 391.825C300.497 399.466 339.013 431.919 335.249 478.567C334.838 483.674 332.521 488.44 328.757 491.917C324.993 495.394 320.059 497.327 314.935 497.332Z" fill="#EFD176"/>
<path d="M369.181 337.684C348.974 337.684 329.381 328.325 310.881 309.825C307.054 305.999 304.905 300.809 304.905 295.397C304.905 289.986 307.054 284.796 310.881 280.97C314.707 277.144 319.897 274.994 325.308 274.994C330.72 274.994 335.909 277.144 339.736 280.97C350.697 291.931 360.982 297.286 370.31 296.853C380.146 296.412 390.74 289.466 401.794 276.22C405.26 272.065 410.235 269.457 415.625 268.971C421.014 268.484 426.375 270.158 430.53 273.624C434.685 277.091 437.293 282.066 437.78 287.455C438.266 292.844 436.592 298.206 433.126 302.361C414.426 324.779 393.907 336.638 372.146 337.619C371.153 337.664 370.169 337.684 369.181 337.684Z" fill="#EFD176"/>
<path d="M129.314 360.055L110.001 423.535C109.15 426.332 109.075 429.309 109.784 432.146C110.493 434.982 111.96 437.573 114.028 439.641C116.096 441.709 118.687 443.175 121.523 443.885C124.36 444.594 127.336 444.519 130.134 443.668L193.618 424.356L179.376 374.3L129.314 360.055Z" fill="#4E5660"/>
<path d="M204.601 512C200.857 511.996 197.186 510.962 193.99 509.012C190.794 507.061 188.197 504.268 186.482 500.94C184.767 497.612 184 493.876 184.267 490.141C184.533 486.407 185.822 482.817 187.992 479.766C203.535 457.922 190.918 430.121 187.949 425.914C184.828 421.493 183.592 416.013 184.512 410.681C185.432 405.348 188.432 400.599 192.853 397.479C197.274 394.358 202.754 393.122 208.087 394.042C213.419 394.961 218.168 397.962 221.289 402.383C232.961 418.926 248.309 465.383 221.242 503.422C219.355 506.078 216.86 508.242 213.964 509.735C211.069 511.227 207.858 512.004 204.601 512Z" fill="#EFD176"/>
<path d="M339.601 214.07C292.988 167.457 212.136 172.734 159.011 225.855C105.886 278.976 100.611 359.832 147.222 406.445C193.833 453.058 274.691 447.781 327.812 394.66C380.933 341.539 386.212 260.684 339.601 214.07Z" fill="#F7EF87"/>
<path d="M188.454 202.781C164.519 217.25 144.946 237.928 131.812 262.621C157.035 344.172 231.587 427.5 326.001 396.434C326.605 395.844 327.211 395.258 327.813 394.661C346.41 376.252 359.839 353.277 366.755 328.04C282.492 347.68 215.677 276.836 188.454 202.781Z" fill="#4E5660"/>
<path d="M445.528 133.6C445.528 207.385 381.341 252.377 302.161 252.377C222.981 252.377 158.794 207.387 158.794 133.6C158.794 59.813 222.981 0 302.161 0C381.341 0 445.528 59.816 445.528 133.6Z" fill="#F7EF87"/>
<path d="M372.173 238.988C252.228 232.672 216.911 58.3791 267.11 4.0271C204.872 18.6001 158.794 71.0861 158.794 133.6C158.794 207.385 222.982 252.377 302.161 252.377C327.591 252.379 351.466 247.73 372.173 238.988Z" fill="#EFD176"/>
<path d="M165.888 259.1L116.97 308.02C104.106 320.802 86.6995 327.962 68.5653 327.933C50.431 327.904 33.0479 320.688 20.225 307.865C7.40214 295.042 0.185439 277.659 0.156338 259.524C0.127237 241.39 7.28811 223.984 20.0697 211.12C28.0111 203.179 37.4389 196.879 47.8148 192.581C58.1907 188.283 69.3115 186.071 80.5422 186.071C91.773 186.071 102.894 188.283 113.27 192.581C123.646 196.879 133.073 203.179 141.015 211.12L165.886 235.995C167.403 237.512 168.607 239.313 169.429 241.295C170.25 243.277 170.673 245.401 170.673 247.547C170.674 249.693 170.251 251.817 169.43 253.8C168.609 255.782 167.405 257.583 165.888 259.1Z" fill="#BAE7FF"/>
<path d="M178.333 409.055C174.226 409.056 170.215 407.818 166.824 405.502C163.432 403.186 160.819 399.9 159.325 396.075C155.57 386.571 153.759 376.41 154 366.193C154.24 355.977 156.527 345.912 160.725 336.595C168.78 318.607 183.319 304.595 200.612 298.158C203.132 297.18 205.821 296.713 208.524 296.783C211.226 296.854 213.887 297.46 216.353 298.568C218.819 299.675 221.04 301.262 222.888 303.235C224.735 305.208 226.172 307.529 227.116 310.062C228.059 312.595 228.489 315.291 228.382 317.992C228.274 320.693 227.631 323.346 226.49 325.796C225.349 328.247 223.732 330.446 221.734 332.266C219.735 334.087 217.395 335.492 214.849 336.4C207.841 339.009 201.533 345.314 197.97 353.267C196 357.646 194.929 362.376 194.819 367.177C194.709 371.977 195.562 376.751 197.329 381.216C198.538 384.309 198.973 387.65 198.598 390.949C198.223 394.249 197.049 397.407 195.177 400.149C193.305 402.892 190.792 405.136 187.856 406.688C184.92 408.239 181.65 409.051 178.329 409.052L178.333 409.055Z" fill="#EFD176"/>
<path d="M249.017 149.746C249.017 136.078 235.103 124.996 217.943 124.996C200.783 124.996 186.869 136.078 186.869 149.746C186.869 163.414 200.779 174.492 217.943 174.492C235.107 174.492 249.017 163.414 249.017 149.746Z" fill="#EDA1AB"/>
<path d="M417.454 149.746C417.454 136.078 403.544 124.996 386.38 124.996C369.216 124.996 355.301 136.078 355.301 149.746C355.301 163.414 369.215 174.492 386.375 174.492C403.535 174.492 417.454 163.414 417.454 149.746Z" fill="#EDA1AB"/>
<path d="M250.845 130.316C248.856 130.316 246.948 129.526 245.541 128.119C244.135 126.713 243.345 124.805 243.345 122.816C243.345 120.882 242.576 119.027 241.209 117.659C239.841 116.291 237.986 115.523 236.052 115.523C234.118 115.523 232.263 116.291 230.895 117.659C229.527 119.027 228.759 120.882 228.759 122.816C228.759 124.805 227.969 126.713 226.562 128.119C225.156 129.526 223.248 130.316 221.259 130.316C219.27 130.316 217.362 129.526 215.955 128.119C214.549 126.713 213.759 124.805 213.759 122.816C213.759 116.903 216.108 111.233 220.288 107.052C224.469 102.872 230.139 100.523 236.052 100.523C241.964 100.523 247.635 102.872 251.815 107.052C255.996 111.233 258.345 116.903 258.345 122.816C258.345 124.805 257.555 126.713 256.148 128.119C254.742 129.526 252.834 130.316 250.845 130.316Z" fill="#4E5660"/>
<path d="M383.06 130.316C381.07 130.316 379.163 129.526 377.756 128.119C376.35 126.713 375.56 124.805 375.56 122.816C375.56 120.882 374.791 119.028 373.424 117.661C372.057 116.293 370.202 115.525 368.269 115.525C366.335 115.525 364.48 116.293 363.113 117.661C361.746 119.028 360.978 120.882 360.978 122.816C360.978 124.805 360.187 126.713 358.781 128.119C357.374 129.526 355.467 130.316 353.478 130.316C351.488 130.316 349.581 129.526 348.174 128.119C346.768 126.713 345.978 124.805 345.978 122.816C345.978 116.904 348.326 111.234 352.506 107.054C356.687 102.874 362.357 100.525 368.269 100.525C374.18 100.525 379.85 102.874 384.031 107.054C388.211 111.234 390.56 116.904 390.56 122.816C390.56 124.805 389.769 126.713 388.363 128.119C386.956 129.526 385.049 130.316 383.06 130.316Z" fill="#4E5660"/>
<path d="M302.16 154.75C298.115 154.749 294.116 153.881 290.435 152.205C286.753 150.528 283.473 148.082 280.816 145.031C279.51 143.531 278.852 141.574 278.988 139.589C279.125 137.605 280.044 135.756 281.543 134.449C283.043 133.142 285.001 132.485 286.985 132.621C288.97 132.757 290.819 133.676 292.125 135.176C293.373 136.612 294.915 137.764 296.646 138.553C298.378 139.342 300.258 139.75 302.16 139.75C304.063 139.75 305.943 139.342 307.675 138.553C309.406 137.764 310.947 136.612 312.195 135.176C313.502 133.676 315.351 132.757 317.336 132.621C319.32 132.485 321.278 133.142 322.777 134.449C324.277 135.756 325.196 137.605 325.333 139.589C325.469 141.574 324.811 143.531 323.504 145.031C320.848 148.082 317.568 150.528 313.886 152.204C310.204 153.881 306.206 154.749 302.16 154.75Z" fill="#4E5660"/>
<path d="M249.017 65.063C247.028 65.063 245.12 64.2728 243.713 62.8663C242.307 61.4598 241.517 59.5521 241.517 57.563C241.504 47.1731 237.371 37.2123 230.024 29.8659C222.677 22.5195 212.716 18.3874 202.326 18.376C200.337 18.376 198.429 17.5858 197.022 16.1793C195.616 14.7728 194.826 12.8651 194.826 10.876C194.826 8.88685 195.616 6.9792 197.022 5.57268C198.429 4.16615 200.337 3.37598 202.326 3.37598C216.693 3.39159 230.467 9.10559 240.626 19.2643C250.786 29.4231 256.5 43.1969 256.517 57.564C256.516 59.5529 255.726 61.4603 254.32 62.8666C252.913 64.2729 251.006 65.063 249.017 65.063Z" fill="#4E5660"/>
<path d="M355.301 65.063C353.312 65.063 351.404 64.2728 349.997 62.8663C348.591 61.4598 347.801 59.5521 347.801 57.563C347.817 43.1944 353.533 29.4192 363.694 19.2602C373.856 9.10118 387.632 3.38823 402.001 3.375C403.99 3.375 405.898 4.16518 407.304 5.5717C408.711 6.97822 409.501 8.88588 409.501 10.875C409.501 12.8641 408.711 14.7718 407.304 16.1783C405.898 17.5848 403.99 18.375 402.001 18.375C391.609 18.3832 381.645 22.5142 374.296 29.8612C366.946 37.2083 362.812 47.1711 362.801 57.563C362.801 59.5521 362.011 61.4598 360.604 62.8663C359.198 64.2728 357.29 65.063 355.301 65.063Z" fill="#4E5660"/>
<path d="M74.5278 258.75C73.5429 258.764 72.5648 258.585 71.6493 258.221C70.7339 257.857 69.899 257.317 69.1924 256.631C68.4858 255.945 67.9213 255.126 67.5311 254.221C67.1409 253.317 66.9327 252.344 66.9183 251.36C66.9039 250.375 67.0837 249.397 67.4473 248.481C67.8109 247.566 68.3513 246.731 69.0376 246.024C69.7238 245.318 70.5426 244.753 71.447 244.363C72.3514 243.973 73.3239 243.764 74.3088 243.75L136.637 241.891C137.629 241.848 138.621 242.003 139.553 242.346C140.485 242.689 141.34 243.214 142.068 243.891C142.796 244.567 143.382 245.381 143.792 246.286C144.202 247.191 144.429 248.168 144.458 249.162C144.488 250.155 144.32 251.144 143.964 252.071C143.608 252.999 143.071 253.846 142.385 254.565C141.698 255.283 140.876 255.858 139.966 256.256C139.056 256.654 138.075 256.867 137.082 256.883L74.7538 258.742C74.6808 258.75 74.6008 258.75 74.5278 258.75Z" fill="#8CD6FE"/>
</svg>
