<svg width="512" height="512" viewBox="0 0 512 512" fill="none" xmlns="http://www.w3.org/2000/svg">
<path d="M306.758 495.578C312.805 495.576 318.603 493.174 322.879 488.898C327.154 484.623 329.557 478.824 329.558 472.778C329.558 445.43 318.858 420.278 298.609 400.028C294.333 395.752 288.533 393.35 282.485 393.35C276.437 393.351 270.637 395.753 266.361 400.03C262.085 404.307 259.683 410.107 259.684 416.154C259.684 422.202 262.087 428.002 266.363 432.278C278.199 444.114 283.953 457.36 283.953 472.778C283.953 475.773 284.543 478.738 285.689 481.504C286.836 484.271 288.515 486.785 290.633 488.902C292.751 491.019 295.265 492.698 298.032 493.844C300.798 494.989 303.764 495.579 306.758 495.578Z" fill="#383C43"/>
<path d="M272.875 429.559H130.648C110.605 429.558 90.9574 423.977 73.9063 413.442C56.8552 402.906 43.0737 387.832 34.1052 369.907L25.0312 351.77H378.492L369.418 369.907C360.45 387.832 346.668 402.906 329.617 413.442C312.566 423.977 292.919 429.558 272.875 429.559Z" fill="#FAE0BD"/>
<path d="M122.711 369.824C120.722 369.824 118.814 370.614 117.408 372.021C116.001 373.427 115.211 375.335 115.211 377.324V428.445C120.179 429.16 125.191 429.529 130.211 429.55V377.324C130.211 375.335 129.421 373.427 128.014 372.021C126.608 370.614 124.7 369.824 122.711 369.824Z" fill="#F3BE77"/>
<path d="M232.492 188.824H154.8C134.471 188.824 114.342 192.828 95.5604 200.608C76.7791 208.387 59.714 219.79 45.3395 234.164C30.965 248.539 19.5625 265.604 11.7832 284.385C4.00379 303.167 -0.000131319 323.296 3.23027e-09 343.625C3.23027e-09 352.563 3.55053 361.134 9.8705 367.454C16.1905 373.774 24.7622 377.325 33.7 377.325H232.492V188.824Z" fill="#6FCE91"/>
<path d="M15.7773 275.484C80.6443 336.562 159.851 268.738 232.492 264.738V188.824H154.8C125.841 188.818 97.4608 196.936 72.8852 212.256C48.3095 227.575 28.524 249.481 15.7773 275.484Z" fill="#8EE2CF"/>
<path d="M154.691 495.578C148.644 495.576 142.846 493.174 138.57 488.898C134.295 484.623 131.892 478.824 131.891 472.778C131.891 445.43 142.591 420.278 162.84 400.028C167.116 395.752 172.916 393.35 178.964 393.35C185.012 393.351 190.812 395.753 195.088 400.03C199.364 404.307 201.766 410.107 201.765 416.154C201.765 422.202 199.362 428.002 195.086 432.278C183.25 444.114 177.496 457.36 177.496 472.778C177.496 475.773 176.906 478.738 175.76 481.504C174.613 484.271 172.934 486.785 170.816 488.902C168.698 491.019 166.184 492.698 163.417 493.844C160.651 494.989 157.685 495.579 154.691 495.578Z" fill="#4E5660"/>
<path d="M56.5734 495.578C50.527 495.576 44.7286 493.174 40.4532 488.898C36.1777 484.623 33.775 478.824 33.7734 472.778C33.7734 445.43 44.4734 420.278 64.7224 400.028C66.84 397.911 69.3539 396.231 72.1205 395.085C74.8871 393.94 77.8523 393.35 80.8469 393.35C83.8414 393.35 86.8065 393.94 89.573 395.087C92.3395 396.233 94.8531 397.912 96.9704 400.03C99.0877 402.148 100.767 404.661 101.913 407.428C103.059 410.195 103.648 413.16 103.648 416.154C103.648 419.149 103.058 422.114 101.912 424.881C100.766 427.647 99.086 430.161 96.9684 432.278C85.1324 444.114 79.3784 457.36 79.3784 472.778C79.3784 475.773 78.7885 478.738 77.6424 481.504C76.4963 484.271 74.8164 486.785 72.6987 488.902C70.581 491.019 68.067 492.698 65.3002 493.844C62.5334 494.989 59.568 495.579 56.5734 495.578Z" fill="#4E5660"/>
<path d="M280.527 160.363H324.617C360.373 160.364 394.664 174.569 419.947 199.852C445.229 225.136 459.433 259.427 459.433 295.183C459.433 307.901 456.928 320.495 452.061 332.245C447.194 343.995 440.06 354.672 431.067 363.665C422.074 372.658 411.397 379.792 399.647 384.659C387.897 389.526 375.303 392.031 362.585 392.031H242.559C229.841 392.031 217.247 389.526 205.497 384.659C193.746 379.792 183.07 372.658 174.077 363.665C165.084 354.672 157.95 343.995 153.083 332.245C148.216 320.495 145.711 307.901 145.711 295.183C145.711 259.427 159.915 225.136 185.197 199.852C210.48 174.569 244.771 160.364 280.527 160.363Z" fill="#4E5660"/>
<path d="M261.07 161.77C229.025 166.449 199.735 182.504 178.553 207.001C157.371 231.498 145.713 262.799 145.711 295.184C145.711 307.902 148.216 320.496 153.083 332.246C157.95 343.996 165.084 354.673 174.077 363.666C183.07 372.659 193.746 379.793 205.497 384.66C217.247 389.527 229.841 392.032 242.559 392.032H296.664C216.66 347.3 224.613 212.8 261.07 161.77Z" fill="#383C43"/>
<path d="M491.395 16.508C484.725 15.1695 477.797 16.535 472.133 20.3044C466.47 24.0737 462.536 29.9382 461.195 36.608L451.617 84.27C450.698 88.787 448.248 92.8484 444.681 95.7688C441.114 98.6891 436.649 100.29 432.039 100.3H427.922C423.312 100.291 418.847 98.6909 415.28 95.7703C411.713 92.8498 409.263 88.7876 408.344 84.27L398.766 36.606C397.426 29.9358 393.492 24.0711 387.828 20.3021C385.023 18.4359 381.878 17.1403 378.573 16.4894C375.268 15.8385 371.867 15.845 368.564 16.5085C361.894 17.8485 356.029 21.7833 352.26 27.4474C348.491 33.1115 347.126 40.0408 348.466 46.711L358.04 94.371C359.939 103.756 363.708 112.662 369.124 120.559C374.539 128.455 381.49 135.18 389.56 140.332C372.324 175.34 345.48 182.2 321.449 188.34C316.896 189.478 312.612 191.505 308.844 194.304C305.076 197.103 301.898 200.619 299.493 204.65C297.088 208.681 295.503 213.147 294.83 217.792C294.156 222.437 294.407 227.17 295.568 231.718C296.729 236.266 298.777 240.54 301.595 244.294C304.413 248.048 307.944 251.208 311.987 253.593C316.03 255.978 320.504 257.54 325.153 258.191C329.801 258.841 334.532 258.567 339.074 257.383C370.293 249.414 435.246 232.832 463.808 146.442C464.132 145.462 464.394 144.551 464.617 143.68C474.131 138.782 482.422 131.809 488.879 123.275C495.335 114.742 499.791 104.867 501.917 94.38L511.491 46.716C512.831 40.0458 511.465 33.1169 507.696 27.4534C503.926 21.7898 498.062 17.8556 491.391 16.516L491.395 16.508Z" fill="#383C43"/>
<path d="M270.352 310.051C270.352 295.151 255.184 283.074 236.477 283.074C217.77 283.074 202.6 295.152 202.6 310.051C202.6 324.95 217.764 337.028 236.475 337.028C255.186 337.028 270.352 324.949 270.352 310.051Z" fill="#EDA1AB"/>
<path d="M453.969 310.051C453.969 295.151 438.801 283.074 420.094 283.074C401.387 283.074 386.219 295.152 386.219 310.051C386.219 324.95 401.383 337.028 420.094 337.028C438.805 337.028 453.969 324.949 453.969 310.051Z" fill="#EDA1AB"/>
<path d="M256.219 290.641C254.23 290.641 252.322 289.851 250.915 288.444C249.509 287.038 248.719 285.13 248.719 283.141V271.18C248.719 269.191 249.509 267.283 250.915 265.877C252.322 264.47 254.23 263.68 256.219 263.68C258.208 263.68 260.116 264.47 261.522 265.877C262.929 267.283 263.719 269.191 263.719 271.18V283.141C263.719 285.13 262.929 287.038 261.522 288.444C260.116 289.851 258.208 290.641 256.219 290.641Z" fill="white"/>
<path d="M400.352 290.641C398.362 290.641 396.455 289.851 395.048 288.444C393.642 287.038 392.852 285.13 392.852 283.141V271.18C392.852 269.191 393.642 267.283 395.048 265.877C396.455 264.47 398.362 263.68 400.352 263.68C402.341 263.68 404.248 264.47 405.655 265.877C407.061 267.283 407.852 269.191 407.852 271.18V283.141C407.852 285.13 407.061 287.038 405.655 288.444C404.248 289.851 402.341 290.641 400.352 290.641Z" fill="white"/>
<path d="M328.285 312.7C323.612 312.698 318.993 311.695 314.74 309.759C310.487 307.822 306.698 304.997 303.629 301.473C302.322 299.973 301.665 298.016 301.801 296.031C301.937 294.047 302.856 292.198 304.356 290.891C305.856 289.584 307.813 288.926 309.798 289.063C311.782 289.199 313.631 290.118 314.938 291.618C316.598 293.527 318.648 295.058 320.95 296.108C323.253 297.157 325.753 297.7 328.283 297.7C330.814 297.7 333.314 297.157 335.616 296.108C337.919 295.058 339.969 293.527 341.629 291.618C342.936 290.118 344.785 289.199 346.769 289.063C348.754 288.926 350.711 289.584 352.211 290.891C353.711 292.198 354.63 294.047 354.766 296.031C354.902 298.016 354.245 299.973 352.938 301.473C349.869 304.997 346.081 307.823 341.829 309.759C337.576 311.696 332.958 312.699 328.285 312.7Z" fill="white"/>
</svg>
