<svg width="513" height="512" viewBox="0 0 513 512" fill="none" xmlns="http://www.w3.org/2000/svg">
<path d="M108.031 215.375C82.8743 215.345 58.757 205.338 40.969 187.55C23.1809 169.762 13.1744 145.644 13.1445 120.488C13.1445 118.499 13.9347 116.591 15.3412 115.185C16.7478 113.778 18.6554 112.988 20.6445 112.988C22.6337 112.988 24.5413 113.778 25.9478 115.185C27.3544 116.591 28.1445 118.499 28.1445 120.488C28.1681 141.668 36.5923 161.974 51.5689 176.951C66.5455 191.927 86.8514 200.351 108.032 200.375C110.021 200.375 111.928 201.165 113.335 202.572C114.741 203.978 115.532 205.886 115.532 207.875C115.532 209.864 114.741 211.772 113.335 213.178C111.928 214.585 110.021 215.375 108.032 215.375H108.031Z" fill="#D2996F"/>
<path d="M0 103.379C0 109.212 2.31722 114.806 6.44189 118.931C10.5666 123.056 16.1608 125.373 21.994 125.373C27.8272 125.373 33.4214 123.056 37.5461 118.931C41.6708 114.806 43.988 109.212 43.988 103.379C43.988 91.23 34.141 67 22 67C9.859 67 0 91.23 0 103.379Z" fill="#4E5660"/>
<path d="M337.629 445.188H328.063C326.796 445.188 325.544 444.918 324.389 444.398C323.234 443.877 322.202 443.117 321.363 442.168L318.793 439.268C317.616 437.938 316.17 436.873 314.551 436.144C312.932 435.415 311.176 435.038 309.401 435.038C307.625 435.038 305.869 435.415 304.25 436.144C302.631 436.873 301.185 437.938 300.008 439.268L297.438 442.168C296.598 443.118 295.565 443.878 294.409 444.399C293.253 444.92 291.999 445.189 290.731 445.188H281.16C278.786 445.187 276.509 444.244 274.83 442.565C273.151 440.886 272.208 438.609 272.207 436.235V321.023H346.586V436.234C346.585 438.609 345.642 440.887 343.962 442.566C342.282 444.245 340.004 445.188 337.629 445.188Z" fill="#D2996F"/>
<path d="M272.207 413.207V436.234C272.208 438.608 273.152 440.885 274.83 442.564C276.509 444.242 278.786 445.186 281.16 445.187H290.726C291.994 445.187 293.247 444.917 294.404 444.397C295.56 443.876 296.592 443.116 297.433 442.167L300.003 439.267C301.18 437.937 302.626 436.872 304.245 436.143C305.864 435.414 307.62 435.037 309.396 435.037C311.171 435.037 312.927 435.414 314.546 436.143C316.165 436.872 317.611 437.937 318.788 439.267L321.358 442.167C322.199 443.116 323.231 443.876 324.387 444.397C325.544 444.917 326.797 445.187 328.065 445.187H337.631C340.005 445.186 342.282 444.242 343.961 442.564C345.639 440.885 346.583 438.608 346.584 436.234V413.207H272.207Z" fill="#383C43"/>
<path d="M299.106 116.719L127.134 148.109C107.535 151.686 89.811 162.025 77.0504 177.325C64.2898 192.625 57.3008 211.917 57.3008 231.84V289.594C57.2774 308.64 64.0553 327.068 76.4138 341.559V436.235C76.4152 438.61 77.3594 440.887 79.039 442.566C80.7186 444.245 82.9961 445.188 85.3708 445.188H94.9368C96.2036 445.187 97.4558 444.917 98.6107 444.397C99.7656 443.876 100.797 443.116 101.637 442.168L104.207 439.268C105.384 437.938 106.83 436.873 108.449 436.144C110.068 435.415 111.824 435.038 113.599 435.038C115.375 435.038 117.131 435.415 118.75 436.144C120.369 436.873 121.815 437.938 122.992 439.268L125.562 442.168C126.402 443.116 127.433 443.876 128.588 444.397C129.743 444.917 130.995 445.187 132.262 445.188H141.828C144.202 445.188 146.479 444.244 148.158 442.565C149.837 440.886 150.78 438.609 150.781 436.235V369.855H197.824V436.234C197.824 438.608 198.768 440.885 200.447 442.564C202.126 444.243 204.403 445.187 206.777 445.187H216.343C217.61 445.186 218.862 444.916 220.017 444.396C221.172 443.875 222.203 443.115 223.043 442.167L225.613 439.267C226.79 437.937 228.236 436.872 229.855 436.143C231.474 435.414 233.23 435.037 235.005 435.037C236.781 435.037 238.537 435.414 240.156 436.143C241.775 436.872 243.221 437.937 244.398 439.267L246.968 442.167C247.809 443.116 248.841 443.876 249.997 444.396C251.154 444.917 252.407 445.186 253.675 445.187H263.241C265.615 445.187 267.892 444.243 269.571 442.564C271.25 440.885 272.193 438.608 272.194 436.234V368.887C302.81 365.059 330.975 350.181 351.396 327.051C371.817 303.92 383.088 274.128 383.091 243.273V186.758C383.09 176.325 380.797 166.02 376.374 156.572C371.95 147.123 365.504 138.763 357.492 132.081C349.48 125.399 340.097 120.56 330.008 117.905C319.918 115.251 309.369 114.846 299.106 116.719Z" fill="#E1B89A"/>
<path d="M76.4141 413.207V436.234C76.4154 438.609 77.3596 440.886 79.0392 442.565C80.7188 444.244 82.9963 445.187 85.3711 445.187H94.9371C96.2039 445.186 97.456 444.916 98.6109 444.396C99.7658 443.875 100.797 443.115 101.637 442.167L104.207 439.267C105.384 437.937 106.83 436.872 108.449 436.143C110.068 435.414 111.824 435.037 113.6 435.037C115.375 435.037 117.131 435.414 118.75 436.143C120.369 436.872 121.815 437.937 122.992 439.267L125.562 442.167C126.403 443.116 127.436 443.875 128.592 444.396C129.748 444.916 131.001 445.186 132.269 445.187H141.835C144.209 445.187 146.486 444.243 148.165 442.564C149.844 440.885 150.788 438.608 150.788 436.234V413.207H76.4141Z" fill="#4E5660"/>
<path d="M197.832 413.207V436.234C197.833 438.608 198.776 440.885 200.455 442.564C202.134 444.243 204.411 445.187 206.785 445.187H216.351C217.619 445.186 218.872 444.917 220.028 444.396C221.185 443.876 222.217 443.116 223.058 442.167L225.628 439.267C226.805 437.937 228.251 436.872 229.87 436.143C231.489 435.414 233.245 435.037 235.021 435.037C236.796 435.037 238.552 435.414 240.171 436.143C241.79 436.872 243.236 437.937 244.413 439.267L246.979 442.167C247.82 443.116 248.853 443.876 250.009 444.396C251.165 444.917 252.418 445.186 253.686 445.187H263.252C265.626 445.187 267.903 444.243 269.582 442.564C271.261 440.885 272.204 438.608 272.205 436.234V413.207H197.832Z" fill="#4E5660"/>
<path d="M389.313 111.672C415.395 111.672 462.758 98.727 492.501 83.918C502.692 78.844 514.228 88.055 511.63 99.141C499.337 151.579 467.411 181.063 389.314 181.063H308.906C230.806 181.063 198.883 151.579 186.59 99.141C183.99 88.055 195.528 78.841 205.719 83.918C235.465 98.727 282.824 111.672 308.907 111.672H389.313Z" fill="#FAE0BD"/>
<path d="M275.19 166.977V194.54C275.243 198.736 274.462 202.901 272.893 206.793C271.324 210.685 268.997 214.226 266.049 217.212C263.1 220.198 259.588 222.569 255.716 224.187C251.844 225.805 247.689 226.638 243.493 226.638C239.297 226.638 235.142 225.805 231.27 224.187C227.398 222.569 223.886 220.198 220.937 217.212C217.989 214.226 215.662 210.685 214.093 206.793C212.524 202.901 211.743 198.736 211.795 194.54C211.795 188.568 212.971 182.654 215.257 177.136C217.542 171.619 220.892 166.605 225.115 162.382C229.338 158.159 234.351 154.81 239.869 152.524C245.387 150.239 251.3 149.063 257.272 149.063C259.625 149.063 261.955 149.526 264.129 150.426C266.303 151.326 268.278 152.646 269.942 154.309C271.605 155.973 272.925 157.947 273.826 160.121C274.727 162.295 275.19 164.624 275.19 166.977Z" fill="#D2996F"/>
<path d="M423.028 166.977V194.54C422.975 198.736 423.756 202.901 425.325 206.793C426.895 210.685 429.221 214.226 432.17 217.212C435.118 220.198 438.63 222.569 442.502 224.187C446.374 225.805 450.529 226.638 454.725 226.638C458.922 226.638 463.076 225.805 466.948 224.187C470.82 222.569 474.332 220.198 477.281 217.212C480.23 214.226 482.556 210.685 484.125 206.793C485.695 202.901 486.476 198.736 486.423 194.54C486.423 188.568 485.246 182.654 482.961 177.136C480.675 171.618 477.325 166.605 473.102 162.382C468.878 158.159 463.865 154.809 458.347 152.524C452.829 150.239 446.915 149.063 440.943 149.063C436.192 149.063 431.635 150.95 428.275 154.31C424.916 157.669 423.028 162.226 423.028 166.977Z" fill="#D2996F"/>
<path d="M388.191 102.168H310.027C302.148 102.168 294.36 103.851 287.183 107.103C280.006 110.355 273.607 115.101 268.412 121.025C263.217 126.949 259.347 133.914 257.06 141.454C254.774 148.993 254.123 156.934 255.152 164.746L267.187 256.082C269.434 273.156 277.812 288.83 290.76 300.185C303.707 311.54 320.341 317.8 337.563 317.8H360.653C377.874 317.8 394.507 311.54 407.455 300.186C420.403 288.832 428.782 273.158 431.032 256.085L443.067 164.749C444.096 156.937 443.446 148.995 441.159 141.455C438.873 133.915 435.003 126.949 429.808 121.025C424.613 115.101 418.213 110.354 411.036 107.102C403.859 103.85 396.07 102.168 388.191 102.168Z" fill="#E1B89A"/>
<path d="M267.188 256.082C269.437 273.155 277.815 288.829 290.762 300.184C303.709 311.539 320.343 317.799 337.563 317.8H360.653C363.008 317.8 365.333 317.679 367.633 317.452C319.68 283.718 308.012 168.417 324.028 102.171H310.028C302.15 102.171 294.362 103.853 287.185 107.104C280.009 110.356 273.609 115.102 268.415 121.026C263.22 126.949 259.35 133.914 257.063 141.453C254.776 148.993 254.125 156.934 255.153 164.745L267.188 256.082Z" fill="#D2996F"/>
<path d="M431.031 256.082L433.308 238.812C411.867 231.777 380.648 226.238 349.108 226.238C317.568 226.238 286.35 231.777 264.908 238.812L267.185 256.085C269.433 273.159 277.812 288.833 290.76 300.187C303.708 311.541 320.342 317.801 337.563 317.8H360.653C377.875 317.8 394.509 311.539 407.456 300.185C420.404 288.83 428.783 273.156 431.031 256.082Z" fill="#FCF2D0"/>
<path d="M322.812 227.473C300.804 229.481 280.324 233.754 264.912 238.813L267.189 256.083C269.437 273.156 277.815 288.829 290.762 300.184C303.709 311.538 320.342 317.799 337.562 317.8H360.652C363.007 317.8 365.332 317.679 367.629 317.452C344.718 301.332 330.099 266.586 322.812 227.473Z" fill="#FAE0BD"/>
<path d="M313.78 195.484C313.78 184.531 302.632 175.656 288.88 175.656C275.128 175.656 263.98 184.531 263.98 195.484C263.98 206.437 275.128 215.316 288.88 215.316C302.632 215.316 313.78 206.438 313.78 195.484Z" fill="white"/>
<path d="M434.241 195.484C434.241 184.531 423.093 175.656 409.341 175.656C395.589 175.656 384.441 184.531 384.441 195.484C384.441 206.437 395.589 215.316 409.341 215.316C423.093 215.316 434.241 206.438 434.241 195.484Z" fill="white"/>
<path d="M303.391 183.2C301.402 183.2 299.494 182.41 298.087 181.003C296.681 179.597 295.891 177.689 295.891 175.7V166.91C295.891 164.921 296.681 163.013 298.087 161.607C299.494 160.2 301.402 159.41 303.391 159.41C305.38 159.41 307.287 160.2 308.694 161.607C310.1 163.013 310.891 164.921 310.891 166.91V175.7C310.891 177.689 310.1 179.597 308.694 181.003C307.287 182.41 305.38 183.2 303.391 183.2Z" fill="#4E5660"/>
<path d="M394.828 183.2C392.839 183.2 390.931 182.41 389.525 181.003C388.118 179.597 387.328 177.689 387.328 175.7V166.91C387.328 164.921 388.118 163.013 389.525 161.607C390.931 160.2 392.839 159.41 394.828 159.41C396.817 159.41 398.725 160.2 400.131 161.607C401.538 163.013 402.328 164.921 402.328 166.91V175.7C402.328 177.689 401.538 179.597 400.131 181.003C398.725 182.41 396.817 183.2 394.828 183.2Z" fill="#4E5660"/>
<path d="M349.108 298.066C345.616 298.065 342.165 297.316 338.987 295.869C335.809 294.421 332.978 292.309 330.686 289.675C329.379 288.175 328.723 286.217 328.86 284.233C328.997 282.248 329.917 280.399 331.417 279.093C332.917 277.787 334.875 277.13 336.859 277.267C338.844 277.404 340.692 278.324 341.999 279.824C342.883 280.842 343.976 281.658 345.203 282.218C346.431 282.777 347.764 283.067 349.112 283.067C350.461 283.067 351.794 282.777 353.021 282.218C354.248 281.658 355.341 280.842 356.226 279.824C357.541 278.356 359.381 277.465 361.348 277.344C363.315 277.222 365.251 277.88 366.737 279.175C368.223 280.469 369.14 282.297 369.289 284.262C369.439 286.227 368.808 288.172 367.535 289.676C365.242 292.311 362.41 294.423 359.231 295.87C356.053 297.317 352.6 298.066 349.108 298.066Z" fill="#4E5660"/>
<path d="M326.534 255.238C326.535 257.178 325.961 259.075 324.884 260.689C323.807 262.303 322.275 263.561 320.483 264.304C318.691 265.047 316.718 265.242 314.815 264.864C312.912 264.486 311.164 263.552 309.792 262.18C308.42 260.808 307.486 259.06 307.108 257.157C306.73 255.254 306.925 253.281 307.668 251.489C308.411 249.696 309.669 248.165 311.283 247.088C312.897 246.011 314.794 245.437 316.734 245.438C319.333 245.438 321.826 246.47 323.664 248.308C325.501 250.146 326.534 252.639 326.534 255.238Z" fill="#4E5660"/>
<path d="M391.3 255.238C391.301 257.178 390.727 259.075 389.65 260.688C388.574 262.302 387.043 263.56 385.251 264.303C383.459 265.047 381.487 265.242 379.584 264.865C377.682 264.487 375.933 263.554 374.561 262.183C373.189 260.812 372.254 259.064 371.875 257.162C371.496 255.26 371.689 253.287 372.431 251.495C373.173 249.703 374.429 248.17 376.042 247.092C377.655 246.014 379.551 245.438 381.491 245.438C382.778 245.437 384.054 245.689 385.244 246.181C386.434 246.673 387.515 247.395 388.426 248.305C389.337 249.215 390.06 250.296 390.553 251.486C391.046 252.675 391.3 253.95 391.3 255.238Z" fill="#4E5660"/>
<path d="M117.601 230.719C116.118 230.718 114.67 230.277 113.438 229.453C112.205 228.629 111.245 227.458 110.678 226.088C110.111 224.719 109.962 223.212 110.251 221.758C110.54 220.304 111.253 218.968 112.301 217.919L125.535 204.681C126.231 203.984 127.058 203.432 127.969 203.055C128.879 202.678 129.854 202.484 130.839 202.484C131.824 202.484 132.8 202.678 133.71 203.055C134.62 203.432 135.447 203.984 136.144 204.681C136.84 205.378 137.393 206.205 137.77 207.115C138.147 208.025 138.341 209 138.341 209.985C138.341 210.971 138.147 211.946 137.77 212.856C137.393 213.766 136.84 214.593 136.144 215.29L122.901 228.523C122.206 229.22 121.38 229.773 120.47 230.15C119.56 230.527 118.585 230.72 117.601 230.719Z" fill="#D2996F"/>
<path d="M107.292 277.336C105.81 277.335 104.361 276.894 103.129 276.07C101.897 275.246 100.936 274.075 100.369 272.705C99.8023 271.336 99.6537 269.829 99.9426 268.375C100.231 266.921 100.945 265.585 101.992 264.536L120.64 245.888C121.337 245.192 122.164 244.639 123.074 244.263C123.985 243.886 124.96 243.692 125.945 243.693C126.93 243.693 127.906 243.887 128.816 244.265C129.726 244.642 130.552 245.195 131.249 245.891C131.945 246.588 132.497 247.415 132.874 248.326C133.251 249.236 133.444 250.211 133.444 251.196C133.444 252.182 133.249 253.157 132.872 254.067C132.495 254.977 131.942 255.804 131.245 256.5L112.599 275.141C111.903 275.839 111.076 276.392 110.165 276.769C109.254 277.145 108.278 277.338 107.292 277.336Z" fill="#D2996F"/>
<path d="M369.655 73.863H328.562C325.464 73.8626 322.403 74.5398 319.595 75.8472C316.786 77.1545 314.297 79.0603 312.302 81.4311C310.308 83.8018 308.856 86.5801 308.049 89.5711C307.241 92.5622 307.098 95.6937 307.628 98.746L308.55 104.055C309.834 111.452 313.688 118.158 319.432 122.992C325.176 127.826 332.443 130.476 339.95 130.477H358.263C365.771 130.476 373.038 127.825 378.783 122.992C384.528 118.158 388.383 111.452 389.669 104.055L390.591 98.746C391.121 95.6937 390.976 92.5625 390.168 89.5718C389.36 86.5811 387.908 83.8033 385.913 81.4328C383.919 79.0623 381.43 77.1565 378.622 75.8489C375.814 74.5413 372.753 73.8635 369.655 73.863Z" fill="#D2996F"/>
</svg>
