<svg width="512" height="512" viewBox="0 0 512 512" fill="none" xmlns="http://www.w3.org/2000/svg">
<path d="M163.94 176.871C158.779 165.41 151.162 155.223 141.628 147.033C132.094 138.842 120.876 132.848 108.768 129.474C96.66 126.1 83.9584 125.429 71.5623 127.508C59.1663 129.588 47.379 134.367 37.035 141.508C26.6911 148.649 18.0434 157.976 11.7042 168.83C5.3651 179.683 1.48953 191.798 0.351937 204.316C-0.785658 216.833 0.842537 229.448 5.12124 241.267C9.39995 253.085 16.2245 263.819 25.1118 272.707C41.4708 289.066 98.7058 313.922 72.9008 339.727C65.7798 346.849 60.525 355.617 57.602 365.254C54.679 374.892 54.1778 385.102 56.143 394.979C58.1082 404.857 62.4791 414.097 68.8685 421.882C75.2578 429.666 83.4685 435.755 92.7731 439.609C102.078 443.463 112.189 444.962 122.212 443.975C132.234 442.987 141.859 439.543 150.232 433.948C158.606 428.352 165.47 420.778 170.217 411.896C174.965 403.014 177.448 393.098 177.448 383.027H202.116V178.441L163.94 176.871Z" fill="#79CE6F"/>
<path d="M126.538 212.078C126.538 220.147 124.145 228.036 119.662 234.745C115.179 241.455 108.806 246.684 101.351 249.772C93.896 252.86 85.6925 253.668 77.7781 252.094C69.8636 250.52 62.5938 246.634 56.8878 240.928C51.1818 235.222 47.296 227.952 45.7217 220.038C44.1474 212.123 44.9554 203.92 48.0435 196.464C51.1315 189.009 56.361 182.637 63.0705 178.154C69.78 173.671 77.6683 171.278 85.7378 171.278C96.5586 171.278 106.936 175.577 114.588 183.228C122.239 190.879 126.538 201.257 126.538 212.078Z" fill="#FCF2D0"/>
<path d="M137.964 383.027C137.965 387.33 136.689 391.538 134.299 395.116C131.909 398.695 128.511 401.484 124.535 403.132C120.559 404.779 116.184 405.21 111.963 404.371C107.743 403.532 103.865 401.46 100.822 398.418C97.7786 395.375 95.706 391.498 94.8661 387.277C94.0263 383.056 94.4569 378.681 96.1036 374.705C97.7503 370.729 100.539 367.331 104.117 364.94C107.695 362.549 111.902 361.273 116.206 361.273C121.976 361.273 127.509 363.565 131.589 367.645C135.67 371.724 137.962 377.257 137.964 383.027Z" fill="#BAE7FF"/>
<path d="M348.058 176.871C353.218 165.41 360.835 155.223 370.369 147.033C379.903 138.842 391.122 132.848 403.23 129.474C415.338 126.1 428.039 125.429 440.435 127.508C452.831 129.588 464.619 134.367 474.963 141.508C485.307 148.649 493.954 157.976 500.293 168.83C506.633 179.683 510.508 191.798 511.646 204.316C512.783 216.833 511.155 229.448 506.876 241.267C502.598 253.085 495.773 263.819 486.886 272.707C470.527 289.066 413.292 313.922 439.097 339.727C446.218 346.849 451.473 355.617 454.396 365.254C457.319 374.892 457.82 385.102 455.855 394.979C453.889 404.857 449.519 414.097 443.129 421.882C436.74 429.666 428.529 435.755 419.225 439.609C409.92 443.463 399.808 444.962 389.786 443.975C379.763 442.987 370.139 439.543 361.765 433.948C353.392 428.352 346.527 420.778 341.78 411.896C337.033 403.014 334.55 393.098 334.55 383.027H309.882V178.441L348.058 176.871Z" fill="#79CE6F"/>
<path d="M467.058 212.078C467.058 220.147 464.665 228.036 460.182 234.745C455.699 241.455 449.327 246.684 441.871 249.772C434.416 252.86 426.213 253.668 418.298 252.094C410.384 250.52 403.114 246.634 397.408 240.928C391.702 235.222 387.816 227.952 386.242 220.038C384.667 212.123 385.475 203.92 388.564 196.464C391.652 189.009 396.881 182.637 403.591 178.154C410.3 173.671 418.188 171.278 426.258 171.278C437.079 171.278 447.456 175.577 455.108 183.228C462.759 190.879 467.058 201.257 467.058 212.078Z" fill="#FCF2D0"/>
<path d="M417.55 383.027C417.551 387.33 416.275 391.538 413.885 395.116C411.495 398.695 408.097 401.484 404.121 403.132C400.145 404.779 395.77 405.21 391.55 404.371C387.329 403.532 383.451 401.46 380.408 398.418C377.365 395.375 375.292 391.498 374.452 387.277C373.612 383.056 374.043 378.681 375.69 374.705C377.336 370.729 380.125 367.331 383.703 364.94C387.281 362.549 391.488 361.273 395.792 361.273C401.562 361.273 407.095 363.565 411.175 367.645C415.256 371.724 417.548 377.257 417.55 383.027Z" fill="#BAE7FF"/>
<path d="M298.362 493H298.217C295.734 492.982 293.279 492.474 290.992 491.507C288.705 490.54 286.632 489.132 284.889 487.363C283.146 485.594 281.769 483.5 280.836 481.199C279.903 478.898 279.432 476.436 279.451 473.953C279.685 442.019 277.857 416.316 267.545 372.023C266.982 369.605 266.901 367.099 267.306 364.649C267.711 362.199 268.595 359.854 269.907 357.745C271.219 355.637 272.934 353.808 274.953 352.362C276.971 350.917 279.255 349.883 281.674 349.32C284.092 348.757 286.598 348.676 289.048 349.081C291.497 349.487 293.843 350.371 295.951 351.683C298.06 352.995 299.889 354.709 301.334 356.728C302.78 358.747 303.814 361.031 304.377 363.449C315.486 411.172 317.514 440.207 317.264 474.23C317.227 479.22 315.219 483.992 311.679 487.508C308.138 491.024 303.351 492.998 298.362 493Z" fill="#EFD176"/>
<path d="M213.64 493H213.781C218.795 492.962 223.589 490.935 227.109 487.363C230.629 483.791 232.586 478.968 232.551 473.953C232.313 442.019 234.141 416.316 244.451 372.023C245.014 369.605 245.095 367.099 244.689 364.649C244.284 362.199 243.4 359.854 242.088 357.745C240.776 355.637 239.062 353.808 237.043 352.362C235.024 350.917 232.74 349.883 230.322 349.32C227.903 348.757 225.398 348.676 222.948 349.081C220.498 349.487 218.152 350.371 216.044 351.683C213.936 352.995 212.107 354.709 210.661 356.728C209.216 358.747 208.182 361.031 207.619 363.449C196.51 411.172 194.482 440.207 194.732 474.23C194.769 479.221 196.777 483.994 200.319 487.51C203.861 491.026 208.649 493 213.64 493Z" fill="#F7EF87"/>
<path d="M367.476 333.7C344.523 333.7 322.039 328.555 306.617 318.083C302.54 315.237 299.749 310.899 298.847 306.01C297.945 301.12 299.006 296.072 301.799 291.959C304.592 287.845 308.892 284.998 313.77 284.032C318.647 283.067 323.708 284.061 327.858 286.8C347.558 300.175 394.858 298.546 415.131 283.792C417.137 282.311 419.417 281.241 421.838 280.645C424.259 280.048 426.775 279.937 429.239 280.317C431.704 280.696 434.069 281.56 436.199 282.858C438.328 284.155 440.18 285.861 441.648 287.878C443.115 289.894 444.169 292.181 444.749 294.606C445.329 297.032 445.423 299.548 445.027 302.01C444.63 304.472 443.75 306.831 442.438 308.952C441.126 311.072 439.407 312.912 437.381 314.366C419.799 327.164 393.343 333.7 367.476 333.7Z" fill="#EFD176"/>
<path d="M144.522 333.7C167.475 333.7 189.96 328.555 205.381 318.083C209.457 315.237 212.249 310.899 213.151 306.01C214.052 301.12 212.992 296.072 210.199 291.959C207.406 287.845 203.105 284.998 198.228 284.032C193.351 283.067 188.289 284.061 184.14 286.8C164.44 300.175 117.14 298.546 96.8668 283.792C94.8605 282.311 92.5811 281.241 90.1597 280.645C87.7383 280.048 85.2229 279.937 82.7582 280.317C80.2935 280.696 77.9283 281.56 75.7988 282.858C73.6693 284.155 71.8175 285.861 70.3501 287.878C68.8827 289.894 67.8287 292.181 67.2488 294.606C66.6689 297.032 66.5745 299.548 66.9711 302.01C67.3677 304.472 68.2474 306.831 69.5596 308.952C70.8718 311.072 72.5905 312.912 74.6168 314.366C92.1988 327.164 118.655 333.7 144.522 333.7Z" fill="#F7EF87"/>
<path d="M379.511 180.559C379.511 120.485 335.382 62.959 255.999 62.959C176.616 62.959 132.487 120.482 132.487 180.559C132.487 214.25 149.887 239.204 177.198 254.629C177.846 254.999 178.404 255.508 178.833 256.119C179.262 256.73 179.551 257.428 179.679 258.164C179.807 258.899 179.771 259.654 179.574 260.374C179.376 261.094 179.023 261.761 178.538 262.329C162.147 281.456 153.456 305.997 154.155 331.177C155.53 383.99 197.755 427.435 250.514 430.2C270.417 431.279 290.2 426.494 307.41 416.438C324.62 406.382 338.501 391.497 347.333 373.628C356.165 355.759 359.56 335.691 357.096 315.911C354.633 296.131 346.42 277.509 333.475 262.352C332.987 261.785 332.631 261.117 332.431 260.396C332.232 259.676 332.194 258.92 332.32 258.183C332.447 257.446 332.734 256.746 333.163 256.133C333.591 255.52 334.15 255.009 334.799 254.637C362.112 239.207 379.511 214.25 379.511 180.559Z" fill="#F7EF87"/>
<path d="M177.199 254.629C177.847 254.999 178.405 255.508 178.834 256.119C179.263 256.73 179.552 257.428 179.68 258.164C179.808 258.899 179.772 259.654 179.575 260.374C179.377 261.094 179.024 261.761 178.539 262.329C162.148 281.457 153.456 305.997 154.156 331.177C155.531 383.99 197.756 427.435 250.515 430.2C271.047 431.328 291.439 426.197 308.992 415.485C203.644 369.57 189.167 171 226.065 65.926C165.608 78.4 132.487 128.52 132.487 180.559C132.487 214.25 149.886 239.2 177.199 254.629Z" fill="#EFD176"/>
<path d="M350.065 367.641H161.999C164.184 372.849 166.798 377.866 169.815 382.641H342.292C345.294 377.865 347.894 372.848 350.065 367.641Z" fill="#EEA849"/>
<path d="M356.394 311.176H155.594C154.743 316.134 154.26 321.147 154.149 326.176H357.823C357.715 321.148 357.238 316.134 356.394 311.176Z" fill="#EEA849"/>
<path d="M204.058 195.883C204.058 182.524 190.458 171.696 173.687 171.696C156.916 171.696 143.312 182.524 143.312 195.884C143.312 209.244 156.912 220.072 173.687 220.072C190.462 220.072 204.058 209.238 204.058 195.883Z" fill="#EDA1AB"/>
<path d="M368.687 195.883C368.687 182.524 355.087 171.696 338.312 171.696C321.537 171.696 307.941 182.524 307.941 195.884C307.941 209.244 321.541 220.072 338.312 220.072C355.083 220.072 368.687 209.238 368.687 195.883Z" fill="#EDA1AB"/>
<path d="M191.386 179.254C189.397 179.254 187.489 178.464 186.083 177.057C184.676 175.651 183.886 173.743 183.886 171.754V161.027C183.886 159.038 184.676 157.13 186.083 155.724C187.489 154.317 189.397 153.527 191.386 153.527C193.375 153.527 195.283 154.317 196.689 155.724C198.096 157.13 198.886 159.038 198.886 161.027V171.754C198.886 173.743 198.096 175.651 196.689 177.057C195.283 178.464 193.375 179.254 191.386 179.254Z" fill="#4E5660"/>
<path d="M320.612 179.254C318.623 179.254 316.715 178.464 315.309 177.057C313.902 175.651 313.112 173.743 313.112 171.754V161.027C313.112 159.038 313.902 157.13 315.309 155.724C316.715 154.317 318.623 153.527 320.612 153.527C322.601 153.527 324.509 154.317 325.915 155.724C327.322 157.13 328.112 159.038 328.112 161.027V171.754C328.112 173.743 327.322 175.651 325.915 177.057C324.509 178.464 322.601 179.254 320.612 179.254Z" fill="#4E5660"/>
<path d="M255.999 187.488C251.699 187.487 247.449 186.564 243.535 184.782C239.622 183 236.136 180.399 233.312 177.156C232.005 175.656 231.347 173.699 231.484 171.714C231.62 169.73 232.539 167.881 234.039 166.574C235.538 165.267 237.496 164.61 239.48 164.746C241.465 164.882 243.314 165.801 244.621 167.301C246.036 168.931 247.784 170.238 249.747 171.133C251.711 172.029 253.844 172.492 256.002 172.492C258.16 172.492 260.293 172.029 262.256 171.133C264.22 170.238 265.968 168.931 267.383 167.301C268.03 166.558 268.817 165.951 269.699 165.512C270.581 165.074 271.541 164.813 272.523 164.746C273.506 164.678 274.492 164.805 275.426 165.119C276.36 165.432 277.222 165.927 277.965 166.574C278.707 167.221 279.315 168.008 279.754 168.89C280.192 169.772 280.452 170.732 280.52 171.714C280.587 172.697 280.461 173.683 280.147 174.617C279.833 175.551 279.339 176.413 278.692 177.156C275.867 180.399 272.38 183 268.465 184.782C264.551 186.564 260.3 187.487 255.999 187.488Z" fill="#4E5660"/>
<path d="M210.608 117.789C208.619 117.789 206.711 116.999 205.305 115.592C203.898 114.186 203.108 112.278 203.108 110.289C203.108 90.566 193.702 71.273 176.628 55.961C161.519 42.414 142.323 34 126.538 34C124.549 34 122.641 33.2098 121.235 31.8033C119.828 30.3968 119.038 28.4891 119.038 26.5C119.038 24.5109 119.828 22.6032 121.235 21.1967C122.641 19.7902 124.549 19 126.538 19C146.159 19 168.628 28.645 186.638 44.793C206.931 62.993 218.107 86.25 218.107 110.293C218.106 112.281 217.315 114.188 215.909 115.593C214.503 116.999 212.596 117.789 210.608 117.789Z" fill="#4E5660"/>
<path d="M301.39 117.789C299.401 117.789 297.493 116.999 296.087 115.592C294.68 114.186 293.89 112.278 293.89 110.289C293.89 86.25 305.066 62.989 325.359 44.789C343.37 28.645 365.839 19 385.46 19C387.449 19 389.357 19.7902 390.763 21.1967C392.17 22.6032 392.96 24.5109 392.96 26.5C392.96 28.4891 392.17 30.3968 390.763 31.8033C389.357 33.2098 387.449 34 385.46 34C369.675 34 350.48 42.414 335.37 55.961C318.296 71.274 308.89 90.566 308.89 110.289C308.89 112.278 308.1 114.186 306.693 115.592C305.287 116.999 303.379 117.789 301.39 117.789Z" fill="#4E5660"/>
</svg>
