<svg width="513" height="512" viewBox="0 0 513 512" fill="none" xmlns="http://www.w3.org/2000/svg">
<path d="M126.368 300.375C125.384 300.375 124.408 300.181 123.499 299.804C122.589 299.426 121.763 298.873 121.068 298.175C109.815 286.948 94.5678 280.644 78.6719 280.644C62.776 280.644 47.529 286.948 36.2754 298.175C34.8622 299.548 32.9655 300.31 30.9951 300.296C29.0248 300.282 27.1391 299.493 25.7458 298.1C24.3524 296.706 23.5633 294.821 23.549 292.85C23.5347 290.88 24.2964 288.983 25.6694 287.57C39.737 273.534 58.7975 265.652 78.6694 265.652C98.5413 265.652 117.602 273.534 131.669 287.57C132.717 288.619 133.43 289.955 133.719 291.409C134.008 292.863 133.859 294.37 133.292 295.739C132.725 297.109 131.765 298.28 130.533 299.104C129.301 299.928 127.852 300.369 126.369 300.37L126.368 300.375Z" fill="#E1B89A"/>
<path d="M10.3647 290.945C13.5488 287.761 17.8675 285.972 22.3707 285.972C26.8738 285.972 31.1925 287.761 34.3767 290.945C37.5608 294.129 39.3497 298.448 39.3497 302.951C39.3497 307.454 37.5608 311.773 34.3767 314.957C27.7437 321.586 9.14665 329.437 2.51365 322.805C-4.11935 316.173 3.73565 297.574 10.3647 290.945Z" fill="#D2996F"/>
<path d="M348.811 424.176V393.543C348.81 381.95 352.229 370.613 358.639 360.953L361.803 356.18C366.496 349.105 369 340.803 369.003 332.313V324.708C368.946 312.497 364.055 300.805 355.4 292.19C346.745 283.575 335.031 278.739 322.819 278.739C310.608 278.739 298.893 283.575 290.238 292.19C281.583 300.805 276.693 312.497 276.636 324.708V332.313C276.636 340.802 279.137 349.104 283.827 356.18L286.995 360.953C293.402 370.614 296.819 381.95 296.819 393.543V452.73C296.819 456.196 298.196 459.521 300.647 461.972C303.098 464.423 306.422 465.8 309.889 465.8H377.334C379.234 465.801 381.113 465.402 382.849 464.631C384.585 463.859 386.14 462.731 387.413 461.321C388.685 459.91 389.648 458.247 390.237 456.441C390.826 454.635 391.03 452.725 390.834 450.835C390.076 443.521 386.634 436.748 381.173 431.824C375.712 426.9 368.621 424.175 361.268 424.175L348.811 424.176Z" fill="#D2996F"/>
<path d="M390.826 450.836C390.068 443.522 386.626 436.749 381.165 431.825C375.705 426.901 368.613 424.176 361.26 424.176H359.123V465.8H377.33C379.23 465.8 381.108 465.401 382.844 464.63C384.579 463.858 386.134 462.73 387.406 461.319C388.678 459.909 389.64 458.247 390.229 456.441C390.818 454.635 391.022 452.726 390.826 450.836Z" fill="#383C43"/>
<path d="M349.068 237.336L304.795 160.652C291.721 138.007 259.041 138.007 245.967 160.652L211.014 221.187L176.061 160.652C162.991 138.007 130.307 138.007 117.233 160.652L86.795 213.371C77.7314 229.071 72.9596 246.88 72.959 265.008C72.959 322.926 101.982 351.289 108.393 360.949C114.799 370.612 118.216 381.949 118.217 393.543V452.73C118.217 456.196 119.594 459.521 122.045 461.972C124.496 464.423 127.821 465.8 131.287 465.8H198.732C200.631 465.8 202.51 465.401 204.245 464.629C205.981 463.857 207.535 462.729 208.807 461.319C210.079 459.908 211.04 458.246 211.629 456.44C212.217 454.634 212.42 452.724 212.224 450.835C211.466 443.522 208.025 436.749 202.565 431.825C197.105 426.902 190.014 424.176 182.662 424.175H170.213V393.543C170.216 388.272 170.925 383.025 172.322 377.943C177.127 378.554 181.966 378.859 186.81 378.857H242.955C244.19 383.654 244.816 388.587 244.818 393.541V452.73C244.818 454.446 245.156 456.146 245.812 457.731C246.469 459.317 247.431 460.758 248.644 461.971C249.858 463.185 251.298 464.148 252.884 464.805C254.469 465.462 256.169 465.8 257.885 465.8H325.334C327.233 465.8 329.111 465.4 330.847 464.628C332.582 463.856 334.136 462.728 335.408 461.318C336.679 459.907 337.641 458.245 338.23 456.439C338.819 454.633 339.022 452.724 338.826 450.835C338.068 443.522 334.625 436.749 329.165 431.826C323.704 426.903 316.612 424.178 309.26 424.179H296.815V393.543C296.816 388.59 297.44 383.656 298.674 378.859H302.666C317.924 378.859 333.033 375.853 347.13 370.014C361.226 364.175 374.035 355.616 384.824 344.827C395.613 334.038 404.171 321.229 410.01 307.132C415.849 293.035 418.854 277.926 418.854 262.668V237.336H349.068Z" fill="#E1B89A"/>
<path d="M172.322 377.945C177.127 378.556 181.966 378.861 186.81 378.859H210.958C182.966 337.797 154.825 272.459 188.758 182.64L176.058 160.652C162.988 138.007 130.304 138.007 117.23 160.652L86.795 213.371C77.7314 229.071 72.9596 246.88 72.959 265.008C72.959 322.926 101.982 351.289 108.393 360.949C114.799 370.612 118.216 381.949 118.217 393.543V452.73C118.217 456.196 119.594 459.521 122.045 461.972C124.496 464.423 127.821 465.8 131.287 465.8H198.732C200.631 465.8 202.51 465.401 204.245 464.629C205.981 463.857 207.535 462.729 208.807 461.319C210.079 459.908 211.04 458.246 211.629 456.44C212.217 454.634 212.42 452.724 212.224 450.835C211.466 443.522 208.025 436.749 202.565 431.825C197.105 426.902 190.014 424.176 182.662 424.175H170.213V393.543C170.216 388.273 170.925 383.027 172.322 377.945Z" fill="#D2996F"/>
<path d="M249.725 232.637C248.242 232.636 246.794 232.195 245.562 231.371C244.329 230.547 243.369 229.376 242.802 228.006C242.235 226.637 242.086 225.13 242.375 223.676C242.664 222.222 243.377 220.886 244.425 219.837L257.28 206.982C258.694 205.616 260.589 204.86 262.555 204.877C264.522 204.894 266.403 205.683 267.793 207.073C269.184 208.464 269.973 210.345 269.99 212.312C270.007 214.278 269.251 216.173 267.885 217.587L255.03 230.442C254.334 231.139 253.507 231.692 252.596 232.068C251.686 232.445 250.71 232.638 249.725 232.637Z" fill="#D2996F"/>
<path d="M135.275 297.176C133.792 297.175 132.343 296.734 131.111 295.91C129.879 295.086 128.919 293.915 128.352 292.545C127.785 291.176 127.636 289.669 127.925 288.215C128.214 286.761 128.927 285.425 129.975 284.376L139.229 275.118C140.636 273.711 142.544 272.921 144.533 272.921C146.523 272.921 148.431 273.711 149.838 275.118C151.244 276.525 152.035 278.433 152.035 280.422C152.035 282.412 151.244 284.32 149.838 285.727L140.58 294.981C139.884 295.679 139.057 296.232 138.146 296.608C137.236 296.985 136.26 297.178 135.275 297.176Z" fill="#E1B89A"/>
<path d="M212.228 450.836C211.47 443.522 208.028 436.749 202.568 431.825C197.107 426.901 190.015 424.176 182.662 424.176H180.525V465.8H198.731C200.631 465.8 202.51 465.402 204.245 464.63C205.981 463.858 207.536 462.73 208.808 461.32C210.08 459.909 211.042 458.247 211.631 456.441C212.221 454.635 212.424 452.726 212.228 450.836Z" fill="#383C43"/>
<path d="M338.826 450.836C338.069 443.523 334.628 436.75 329.168 431.826C323.708 426.902 316.616 424.176 309.264 424.176H307.127V465.8H325.334C327.233 465.8 329.112 465.402 330.847 464.63C332.583 463.858 334.137 462.73 335.409 461.32C336.681 459.909 337.642 458.247 338.231 456.441C338.82 454.635 339.022 452.725 338.826 450.836Z" fill="#4E5660"/>
<path d="M486.232 99.316C481.791 83.9468 472.477 70.4367 459.692 60.8206C446.907 51.2044 431.343 46.0031 415.346 46H381.746C374.187 45.9999 366.702 47.4886 359.719 50.3812C352.735 53.2737 346.39 57.5135 341.045 62.8583C335.7 68.2032 331.46 74.5485 328.568 81.532C325.675 88.5154 324.186 96.0002 324.187 103.559V252.659H418.859V173.8H482.285C490.165 173.8 497.723 170.669 503.296 165.097C508.869 159.525 512 151.967 512.002 144.086V128.766C512 121.569 509.387 114.617 504.648 109.201C499.908 103.785 493.365 100.273 486.232 99.316Z" fill="#E1B89A"/>
<path d="M352.454 68.7L349.22 87.126C347.803 95.192 343.936 102.626 338.145 108.416C332.354 114.207 324.92 118.073 316.853 119.489C313.546 120.07 310.146 119.846 306.944 118.835C303.741 117.824 300.829 116.056 298.454 113.681C296.079 111.307 294.311 108.395 293.301 105.192C292.29 101.989 292.065 98.5899 292.646 95.282C294.063 87.216 297.93 79.7822 303.722 73.9917C309.513 68.2012 316.947 64.335 325.013 62.919L343.439 59.681C344.672 59.4651 345.938 59.5491 347.13 59.926C348.323 60.3029 349.408 60.9616 350.292 61.8464C351.176 62.7311 351.835 63.8159 352.211 65.0089C352.587 66.2019 352.671 67.468 352.454 68.7Z" fill="#D2996F"/>
<path d="M386.467 111.418C386.467 103.09 377.987 96.3359 367.526 96.3359C357.065 96.3359 348.585 103.09 348.585 111.418C348.585 119.746 357.065 126.5 367.525 126.5C377.985 126.5 386.467 119.75 386.467 111.418Z" fill="white"/>
<path d="M489.131 111.418C489.131 103.09 480.651 96.3359 470.19 96.3359C459.729 96.3359 451.249 103.09 451.249 111.418C451.249 119.746 459.729 126.5 470.19 126.5C480.651 126.5 489.131 119.75 489.131 111.418Z" fill="white"/>
<path d="M378.564 103.871C376.575 103.871 374.668 103.081 373.261 101.674C371.855 100.268 371.064 98.3601 371.064 96.371V89.684C371.064 87.6948 371.855 85.7872 373.261 84.3807C374.668 82.9741 376.575 82.184 378.564 82.184C380.554 82.184 382.461 82.9741 383.868 84.3807C385.274 85.7872 386.064 87.6948 386.064 89.684V96.372C386.064 98.3609 385.274 100.268 383.867 101.675C382.461 103.081 380.553 103.871 378.564 103.871Z" fill="#4E5660"/>
<path d="M459.149 103.871C457.16 103.871 455.253 103.081 453.846 101.674C452.44 100.268 451.649 98.3601 451.649 96.371V89.684C451.649 87.6948 452.44 85.7872 453.846 84.3807C455.253 82.9741 457.16 82.184 459.149 82.184C461.139 82.184 463.046 82.9741 464.453 84.3807C465.859 85.7872 466.649 87.6948 466.649 89.684V96.372C466.649 98.3609 465.859 100.268 464.452 101.675C463.046 103.081 461.138 103.871 459.149 103.871Z" fill="#4E5660"/>
<path d="M473.459 162.387C470.374 162.387 467.324 161.726 464.516 160.447C461.709 159.169 459.207 157.304 457.182 154.977C455.875 153.477 455.217 151.52 455.354 149.535C455.49 147.551 456.409 145.702 457.909 144.395C459.408 143.088 461.366 142.431 463.35 142.567C465.335 142.703 467.184 143.622 468.491 145.122C469.108 145.834 469.871 146.406 470.728 146.797C471.586 147.189 472.517 147.392 473.46 147.392C474.402 147.392 475.334 147.189 476.191 146.797C477.048 146.406 477.812 145.834 478.429 145.122C479.736 143.622 481.585 142.703 483.569 142.567C485.554 142.431 487.511 143.088 489.011 144.395C490.51 145.702 491.429 147.551 491.566 149.535C491.702 151.52 491.045 153.477 489.738 154.977C487.711 157.304 485.21 159.169 482.402 160.447C479.594 161.725 476.544 162.387 473.459 162.387Z" fill="#4E5660"/>
</svg>
