<svg width="512" height="512" viewBox="0 0 512 512" fill="none" xmlns="http://www.w3.org/2000/svg">
<path d="M487.262 367.328C485.618 367.329 484.019 366.79 482.711 365.793C481.403 364.797 480.459 363.398 480.024 361.812C479.589 360.227 479.687 358.542 480.303 357.017C480.919 355.493 482.019 354.213 483.434 353.375C487.684 350.859 490.989 345.645 492.743 338.691C496.196 324.991 493.325 307.679 485.431 294.578C484.923 293.734 484.586 292.798 484.439 291.824C484.292 290.85 484.339 289.856 484.576 288.9C484.813 287.944 485.237 287.044 485.822 286.251C486.407 285.459 487.142 284.789 487.986 284.281C489.69 283.254 491.733 282.947 493.664 283.426C494.62 283.663 495.52 284.086 496.313 284.672C497.105 285.257 497.775 285.992 498.283 286.836C508.135 303.191 511.67 324.984 507.283 342.359C504.506 353.375 498.9 361.648 491.072 366.281C489.919 366.966 488.603 367.328 487.262 367.328Z" fill="#E68A97"/>
<path d="M453.238 377.84C448.716 380.224 443.678 381.465 438.566 381.453C433.454 381.442 428.422 380.178 423.91 377.774C400.633 365.383 353.504 357.184 335.078 358.395C326.796 358.92 318.643 356.138 312.409 350.66C306.175 345.182 302.368 337.454 301.824 329.173C301.28 320.892 304.043 312.733 309.507 306.486C314.971 300.24 322.689 296.415 330.969 295.852C357.317 294.122 416.063 302.594 453.36 322.446C458.387 325.123 462.59 329.12 465.517 334.006C468.443 338.893 469.983 344.484 469.971 350.18C469.958 355.876 468.394 361.46 465.446 366.334C462.498 371.207 458.278 375.186 453.239 377.841L453.238 377.84Z" fill="#EFD176"/>
<path d="M142.246 272.039C89.1801 272.039 68.7541 239.969 52.2811 214.105C40.8671 196.191 31.0151 180.718 11.7651 172.945C9.47547 172.02 7.39037 170.654 5.62886 168.923C3.86736 167.193 2.46396 165.132 1.49878 162.859C-0.450469 158.269 -0.496385 153.092 1.37114 148.468C3.23866 143.844 6.86664 140.151 11.457 138.202C16.0473 136.252 21.224 136.206 25.8481 138.074C56.2621 150.359 71.0001 173.492 84.0001 193.9C99.8241 218.744 110.277 235.173 144.363 234.412C146.832 234.358 149.287 234.792 151.589 235.687C153.89 236.582 155.993 237.922 157.776 239.63C159.56 241.338 160.99 243.38 161.984 245.641C162.978 247.901 163.518 250.335 163.571 252.804C163.625 255.273 163.191 257.728 162.296 260.029C161.401 262.331 160.061 264.433 158.353 266.217C156.645 268.001 154.603 269.43 152.343 270.425C150.082 271.419 147.648 271.958 145.179 272.012C144.191 272.031 143.211 272.039 142.246 272.039Z" fill="#EFD176"/>
<path d="M389.535 420.473C382.277 396.703 366.992 370.473 351.59 349.36C369.755 330.264 379.868 304.906 379.832 278.551C379.832 268.026 377.76 257.604 373.732 247.881C369.704 238.157 363.801 229.322 356.359 221.879C348.917 214.437 340.081 208.534 330.358 204.506C320.634 200.479 310.212 198.406 299.687 198.406H173.395C152.139 198.406 131.754 206.85 116.724 221.88C101.694 236.91 93.2504 257.295 93.2501 278.551C93.2159 303.999 102.648 328.55 119.711 347.43C114.168 368.551 103.984 395.496 93.2661 410.563C90.88 413.916 89.1777 417.706 88.2564 421.717C87.335 425.728 87.2127 429.881 87.8965 433.939C88.5802 437.998 90.0565 441.881 92.2412 445.369C94.4259 448.857 97.2761 451.88 100.629 454.266C103.982 456.652 107.772 458.354 111.783 459.276C115.794 460.197 119.947 460.319 124.006 459.636C128.064 458.952 131.948 457.476 135.435 455.291C138.923 453.106 141.946 450.256 144.332 446.903C157.605 428.243 168.375 402.911 175.732 379.423C182.457 380.774 189.299 381.453 196.158 381.45H276.93C283.321 381.451 289.699 380.86 295.981 379.684C309.266 396.934 324.231 421.215 329.59 438.77C332.017 446.719 337.502 453.379 344.839 457.284C352.176 461.189 360.763 462.019 368.713 459.592C376.662 457.166 383.321 451.681 387.226 444.344C391.131 437.007 391.962 428.419 389.535 420.47V420.473Z" fill="#F7EF87"/>
<path d="M387.406 443.984C383.353 434.882 378.309 426.254 372.367 418.257C371.746 417.493 370.98 416.858 370.114 416.39C369.247 415.921 368.297 415.628 367.317 415.527C365.339 415.322 363.36 415.912 361.816 417.167C360.272 418.422 359.29 420.238 359.086 422.217C358.881 424.195 359.471 426.174 360.726 427.718C363.238 430.808 372.3 444.898 374.992 453.562C375.283 454.48 375.75 455.334 376.367 456.074C381.054 453.095 384.864 448.922 387.406 443.984Z" fill="#EFD176"/>
<path d="M135.5 426.762C134.575 426.424 133.592 426.271 132.608 426.312C131.624 426.353 130.657 426.588 129.764 427.003C128.871 427.418 128.068 428.005 127.401 428.731C126.735 429.456 126.217 430.306 125.879 431.231C121.649 442.786 112.438 453.024 110.918 454.431C109.776 455.483 108.992 456.867 108.676 458.388C114.518 460.378 120.818 460.6 126.785 459.025C131.105 453.584 136.668 445.396 139.965 436.388C140.305 435.463 140.458 434.48 140.417 433.495C140.377 432.511 140.142 431.544 139.728 430.65C139.313 429.756 138.726 428.952 138.001 428.285C137.275 427.618 136.426 427.1 135.5 426.762Z" fill="#EFD176"/>
<path d="M403.332 92.1329C431.676 56.4919 472.766 49.9879 497.027 51.1169C500.911 51.2904 504.59 52.9112 507.339 55.6603C510.088 58.4095 511.709 62.0879 511.882 65.9719C513.011 90.2339 506.507 131.324 470.866 159.672L403.332 92.1329Z" fill="#D2996F"/>
<path d="M512 71.1449C512 95.7619 504.094 133.245 470.871 159.668L431.441 120.238C445.742 92.6369 481.8 75.9919 512 71.1449Z" fill="#FAE0BD"/>
<path d="M284.75 92.1329C256.4 56.4919 215.313 49.9879 191.051 51.1169C187.167 51.2907 183.489 52.9118 180.741 55.6612C177.992 58.4106 176.372 62.0892 176.2 65.9729C175.067 90.2349 181.571 131.325 217.216 159.673L284.75 92.1329Z" fill="#D2996F"/>
<path d="M176.082 71.1449C176.09 95.7619 183.992 133.245 217.215 159.668L256.645 120.238C242.34 92.6369 206.281 75.9919 176.082 71.1449Z" fill="#FAE0BD"/>
<path d="M344.039 293.453C423.125 293.453 495.639 246.144 487.239 173.398C478.415 96.9839 396.274 65.2339 344.039 65.2339C291.804 65.2339 209.668 96.9839 200.844 173.4C192.441 246.141 264.953 293.453 344.039 293.453Z" fill="#F7EF87"/>
<path d="M323.637 66.7C272.737 73.708 208.582 106.368 200.844 173.4C192.444 246.142 264.953 293.455 344.044 293.455C357.967 293.464 371.852 291.979 385.458 289.025C288.16 269.762 271.137 131.758 323.637 66.7Z" fill="#EFD176"/>
<path d="M310.965 191.926C310.965 179.719 298.535 169.821 283.207 169.821C267.879 169.821 255.453 179.721 255.453 191.926C255.453 204.131 267.879 214.026 283.207 214.026C298.535 214.026 310.965 204.133 310.965 191.926Z" fill="#EDA1AB"/>
<path d="M466.723 191.926C466.723 179.719 454.297 169.821 438.965 169.821C423.633 169.821 411.211 179.721 411.211 191.926C411.211 204.131 423.637 214.026 438.965 214.026C454.293 214.026 466.723 204.133 466.723 191.926Z" fill="#EDA1AB"/>
<path d="M299.383 177.375C298.398 177.375 297.423 177.181 296.513 176.804C295.603 176.427 294.776 175.875 294.08 175.178C293.384 174.482 292.831 173.655 292.454 172.745C292.077 171.835 291.883 170.86 291.883 169.875V160.075C291.883 158.086 292.673 156.178 294.08 154.772C295.487 153.365 297.394 152.575 299.383 152.575C301.372 152.575 303.28 153.365 304.687 154.772C306.093 156.178 306.883 158.086 306.883 160.075V169.875C306.883 170.86 306.689 171.835 306.312 172.745C305.935 173.655 305.383 174.482 304.687 175.178C303.99 175.875 303.163 176.427 302.253 176.804C301.343 177.181 300.368 177.375 299.383 177.375Z" fill="#4E5660"/>
<path d="M422.789 177.375C421.804 177.375 420.829 177.181 419.919 176.804C419.009 176.427 418.182 175.875 417.486 175.178C416.79 174.482 416.237 173.655 415.86 172.745C415.483 171.835 415.289 170.86 415.289 169.875V160.075C415.289 158.086 416.079 156.178 417.486 154.772C418.893 153.365 420.8 152.575 422.789 152.575C424.778 152.575 426.686 153.365 428.093 154.772C429.499 156.178 430.289 158.086 430.289 160.075V169.875C430.289 170.86 430.095 171.835 429.718 172.745C429.342 173.655 428.789 174.482 428.093 175.178C427.396 175.875 426.569 176.427 425.659 176.804C424.749 177.181 423.774 177.375 422.789 177.375Z" fill="#4E5660"/>
<path d="M344.039 223.414C339.736 223.413 335.484 222.49 331.568 220.706C327.652 218.922 324.164 216.32 321.339 213.074C320.692 212.331 320.198 211.469 319.884 210.535C319.57 209.601 319.444 208.615 319.511 207.632C319.579 206.65 319.839 205.69 320.278 204.808C320.716 203.926 321.324 203.139 322.066 202.492C323.566 201.185 325.523 200.528 327.508 200.664C328.491 200.731 329.45 200.992 330.332 201.43C331.214 201.869 332.001 202.476 332.648 203.219C334.065 204.85 335.815 206.158 337.78 207.054C339.746 207.95 341.881 208.414 344.041 208.414C346.201 208.414 348.336 207.95 350.301 207.054C352.267 206.158 354.017 204.85 355.433 203.219C356.08 202.476 356.867 201.869 357.749 201.43C358.631 200.992 359.591 200.731 360.574 200.664C361.556 200.596 362.543 200.723 363.476 201.037C364.41 201.35 365.273 201.845 366.015 202.492C366.758 203.139 367.366 203.926 367.804 204.808C368.243 205.69 368.503 206.65 368.57 207.632C368.638 208.615 368.511 209.601 368.198 210.535C367.884 211.469 367.389 212.331 366.742 213.074C363.917 216.32 360.428 218.922 356.512 220.706C352.596 222.489 348.343 223.413 344.039 223.414Z" fill="#4E5660"/>
<path d="M378.133 223.414C373.831 223.413 369.578 222.489 365.662 220.705C361.747 218.922 358.259 216.319 355.433 213.074C354.127 211.574 353.469 209.617 353.605 207.632C353.742 205.648 354.661 203.799 356.16 202.492C357.66 201.185 359.617 200.528 361.602 200.664C363.586 200.8 365.436 201.719 366.742 203.219C368.159 204.85 369.91 206.158 371.875 207.054C373.841 207.95 375.976 208.414 378.137 208.414C380.297 208.414 382.433 207.95 384.398 207.054C386.364 206.158 388.115 204.85 389.531 203.219C390.169 202.444 390.955 201.805 391.843 201.339C392.732 200.874 393.705 200.591 394.705 200.508C395.705 200.425 396.711 200.544 397.664 200.857C398.617 201.17 399.498 201.671 400.254 202.33C401.01 202.99 401.626 203.794 402.066 204.696C402.505 205.598 402.76 206.578 402.813 207.58C402.867 208.582 402.72 209.584 402.379 210.528C402.039 211.472 401.512 212.337 400.831 213.074C398.006 216.319 394.519 218.921 390.603 220.705C386.688 222.488 382.436 223.412 378.133 223.414Z" fill="#4E5660"/>
<path d="M375.543 168.559C366.066 166.079 356.11 166.079 346.633 168.559C342.708 169.588 339.287 172.004 337.004 175.359C336.281 176.423 335.8 177.633 335.595 178.903C335.391 180.174 335.467 181.473 335.82 182.711C336.173 183.948 336.794 185.093 337.638 186.064C338.481 187.036 339.528 187.81 340.704 188.332L354.591 194.508C356.637 195.418 358.852 195.889 361.091 195.889C363.331 195.889 365.545 195.418 367.591 194.508L381.478 188.332C382.654 187.81 383.701 187.036 384.545 186.064C385.389 185.093 386.009 183.948 386.362 182.711C386.715 181.473 386.792 180.174 386.587 178.903C386.383 177.633 385.902 176.423 385.178 175.359C382.895 172.002 379.472 169.586 375.543 168.559Z" fill="#4E5660"/>
<path d="M361.086 215.648C359.097 215.648 357.19 214.858 355.783 213.451C354.377 212.045 353.586 210.137 353.586 208.148V195.887C353.586 193.898 354.377 191.99 355.783 190.584C357.19 189.177 359.097 188.387 361.086 188.387C363.076 188.387 364.983 189.177 366.39 190.584C367.796 191.99 368.586 193.898 368.586 195.887V208.149C368.586 210.138 367.796 212.045 366.389 213.452C364.983 214.858 363.075 215.648 361.086 215.648Z" fill="#4E5660"/>
<path d="M508.941 388.059C508.941 397.689 506.085 407.103 500.735 415.11C495.385 423.117 487.78 429.358 478.883 433.044C469.986 436.729 460.196 437.693 450.751 435.814C441.306 433.936 432.63 429.298 425.82 422.489C419.011 415.679 414.373 407.003 412.495 397.558C410.616 388.113 411.58 378.323 415.265 369.426C418.951 360.529 425.192 352.924 433.199 347.574C441.206 342.224 450.62 339.368 460.25 339.368C473.164 339.368 485.549 344.498 494.68 353.629C503.811 362.761 508.941 375.145 508.941 388.059Z" fill="#EDA1AB"/>
<path d="M496.746 355.84C491.593 350.003 485.117 345.485 477.859 342.664C462.249 346.045 448.159 354.403 437.707 366.48C427.152 378.539 420.141 394.257 417.516 411.414C420.949 417.67 425.709 423.1 431.461 427.324C431.481 425.031 431.512 422.777 431.539 420.918C433.914 384.977 457.062 358.945 489.211 356.055C491.645 355.957 494.289 355.883 496.746 355.84Z" fill="#E68A97"/>
<path d="M508.5 381.609C507.836 376.541 506.372 371.61 504.164 367C484.617 369.043 470.906 380.344 462.746 389.66C451.281 402.746 443.617 420.46 443.457 433.781C448.27 435.545 453.333 436.534 458.457 436.711C458.51 436.266 458.522 435.818 458.492 435.371C457.945 427.226 463.207 411.902 474.031 399.543C480.64 391.996 491.801 382.789 507.453 381.766C507.805 381.737 508.155 381.685 508.5 381.609Z" fill="#E68A97"/>
<path d="M297.664 215.324H270.848C268.859 215.324 266.951 214.534 265.545 213.127C264.138 211.721 263.348 209.813 263.348 207.824C263.348 205.835 264.138 203.927 265.545 202.521C266.951 201.114 268.859 200.324 270.848 200.324H297.664C299.653 200.324 301.561 201.114 302.967 202.521C304.374 203.927 305.164 205.835 305.164 207.824C305.164 209.813 304.374 211.721 302.967 213.127C301.561 214.534 299.653 215.324 297.664 215.324Z" fill="#4E5660"/>
<path d="M286.781 248.27C285.299 248.269 283.85 247.828 282.618 247.004C281.386 246.18 280.425 245.009 279.858 243.639C279.291 242.27 279.143 240.763 279.431 239.309C279.72 237.855 280.433 236.519 281.481 235.47L297.438 219.5C298.845 218.094 300.753 217.304 302.742 217.304C304.731 217.305 306.639 218.095 308.045 219.502C309.451 220.909 310.241 222.817 310.241 224.806C310.24 226.795 309.45 228.703 308.043 230.109L292.086 246.07C291.39 246.768 290.563 247.322 289.653 247.699C288.743 248.077 287.767 248.271 286.781 248.27Z" fill="#4E5660"/>
<path d="M451.324 215.324H424.508C422.519 215.324 420.611 214.534 419.205 213.127C417.798 211.721 417.008 209.813 417.008 207.824C417.008 205.835 417.798 203.927 419.205 202.521C420.611 201.114 422.519 200.324 424.508 200.324H451.324C453.313 200.324 455.221 201.114 456.627 202.521C458.034 203.927 458.824 205.835 458.824 207.824C458.824 209.813 458.034 211.721 456.627 213.127C455.221 214.534 453.313 215.324 451.324 215.324Z" fill="#4E5660"/>
<path d="M435.395 248.27C434.41 248.27 433.435 248.076 432.526 247.699C431.616 247.321 430.79 246.768 430.095 246.07L414.138 230.113C412.741 228.705 411.958 226.801 411.961 224.818C411.964 222.834 412.753 220.933 414.155 219.529C415.556 218.126 417.457 217.335 419.44 217.329C421.424 217.324 423.329 218.104 424.738 219.5L440.7 235.465C441.748 236.514 442.461 237.85 442.75 239.304C443.039 240.758 442.89 242.265 442.323 243.634C441.756 245.004 440.796 246.175 439.563 246.999C438.331 247.823 436.883 248.264 435.4 248.265L435.395 248.27Z" fill="#4E5660"/>
<path d="M140.172 291.648C138.69 291.647 137.241 291.206 136.009 290.382C134.777 289.558 133.816 288.387 133.249 287.017C132.682 285.648 132.534 284.141 132.822 282.687C133.111 281.233 133.825 279.897 134.872 278.848L140.985 272.731C142.391 271.324 144.299 270.534 146.288 270.533C148.277 270.533 150.185 271.323 151.592 272.729C152.999 274.135 153.79 276.043 153.79 278.032C153.79 280.021 153 281.929 151.594 283.336L145.477 289.453C144.781 290.151 143.954 290.704 143.044 291.08C142.133 291.457 141.157 291.65 140.172 291.648Z" fill="#EFD176"/>
<path d="M162.082 304.883C160.6 304.882 159.151 304.441 157.919 303.617C156.687 302.793 155.727 301.622 155.159 300.252C154.592 298.882 154.444 297.376 154.733 295.922C155.021 294.468 155.735 293.132 156.782 292.083L174.891 273.978C176.306 272.612 178.2 271.856 180.167 271.873C182.133 271.89 184.014 272.679 185.405 274.069C186.795 275.46 187.584 277.341 187.601 279.307C187.618 281.274 186.862 283.168 185.496 284.583L167.387 302.688C166.691 303.385 165.864 303.938 164.954 304.315C164.043 304.692 163.068 304.885 162.082 304.883Z" fill="#EFD176"/>
</svg>
