<svg width="512" height="512" viewBox="0 0 512 512" fill="none" xmlns="http://www.w3.org/2000/svg">
<path d="M250.969 502.77C250.017 497.273 247.154 492.288 242.885 488.695C238.617 485.103 233.216 483.133 227.637 483.133H220.274V393.1C220.274 387.84 218.184 382.795 214.465 379.075C210.745 375.356 205.7 373.266 200.44 373.266C195.18 373.266 190.135 375.356 186.415 379.075C182.696 382.795 180.606 387.84 180.606 393.1V492.163C180.605 494.768 181.118 497.347 182.114 499.754C183.111 502.16 184.572 504.347 186.413 506.189C188.255 508.031 190.441 509.493 192.848 510.49C195.254 511.487 197.833 512 200.438 512H243.2C244.349 512 245.485 511.749 246.527 511.264C247.569 510.779 248.492 510.072 249.232 509.193C249.973 508.314 250.511 507.283 250.811 506.174C251.111 505.064 251.165 503.902 250.969 502.77Z" fill="#EEA849"/>
<path d="M180.605 458.4H220.273V473.4H180.605V458.4Z" fill="#E9901B"/>
<path d="M280.945 5.90555e-09C292.065 -0.000131319 303.076 2.18999 313.349 6.44531C323.623 10.7006 332.957 16.9378 340.82 24.8007C348.683 32.6637 354.92 41.9983 359.176 52.2717C363.431 62.5452 365.621 73.5562 365.621 84.676V113.129H307.7V95.637C307.7 88.3539 304.807 81.3691 299.657 76.2191C294.507 71.0692 287.522 68.176 280.239 68.176C275.551 68.1749 270.914 67.2071 266.616 65.3331C262.319 63.4592 258.455 60.7193 255.264 57.2846C252.073 53.8499 249.625 49.7942 248.072 45.3708C246.519 40.9475 245.895 36.2514 246.239 31.576C247.52 13.641 262.961 5.90555e-09 280.945 5.90555e-09Z" fill="#E3748E"/>
<path d="M374.809 446.781C370.247 443.568 364.698 442.068 359.139 442.546C353.58 443.024 348.368 445.449 344.422 449.394L339.222 454.601L275.562 390.941C273.72 389.099 271.534 387.638 269.127 386.641C266.721 385.645 264.141 385.131 261.536 385.131C258.932 385.131 256.352 385.645 253.946 386.641C251.539 387.638 249.353 389.099 247.511 390.941C245.669 392.783 244.208 394.969 243.211 397.376C242.214 399.782 241.701 402.362 241.701 404.967C241.701 407.571 242.214 410.151 243.211 412.557C244.208 414.964 245.669 417.15 247.511 418.992L317.558 489.039C319.4 490.881 321.586 492.342 323.993 493.339C326.399 494.336 328.979 494.849 331.583 494.849C334.188 494.849 336.768 494.336 339.174 493.339C341.581 492.342 343.767 490.881 345.609 489.039L375.84 458.8C376.652 457.987 377.276 457.007 377.67 455.927C378.063 454.848 378.216 453.696 378.118 452.551C378.02 451.406 377.673 450.297 377.101 449.3C376.53 448.304 375.747 447.444 374.809 446.781Z" fill="#E9901B"/>
<path d="M321.754 437.109L332.363 447.718L304.313 475.77L293.7 465.16L321.754 437.109Z" fill="#EEA849"/>
<path d="M336.656 76.316C325.837 76.3159 315.124 78.4467 305.129 82.5869C295.134 86.727 286.052 92.7954 278.402 100.446C270.752 108.096 264.684 117.178 260.543 127.173C256.403 137.168 254.273 147.881 254.273 158.7V244.27C254.272 248.091 252.755 251.755 250.053 254.456C247.351 257.158 243.688 258.676 239.867 258.676H208.141C204.636 258.676 201.165 257.986 197.927 256.645C194.688 255.303 191.746 253.337 189.267 250.859C186.789 248.38 184.823 245.438 183.481 242.199C182.14 238.961 181.45 235.49 181.45 231.985V216.141C181.45 191.919 171.828 168.69 154.701 151.562C137.573 134.435 114.344 124.813 90.122 124.813H66.809C55.1908 124.813 44.0483 129.427 35.8325 137.642C27.6168 145.857 23.0008 156.999 23 168.617L23 192.4C23.0003 203.67 26.623 214.642 33.3336 223.697C40.0442 232.752 49.4873 239.41 60.27 242.689L83.149 249.65C86.0252 250.523 88.5443 252.298 90.3344 254.713C92.1244 257.128 93.0905 260.054 93.09 263.06V276.48C93.0369 297.917 97.2133 319.153 105.38 338.973C113.547 358.793 125.543 376.808 140.682 391.984C155.822 407.161 173.806 419.202 193.606 427.418C213.406 435.634 234.632 439.863 256.068 439.863C277.505 439.863 298.731 435.634 318.531 427.418C338.331 419.202 356.315 407.161 371.455 391.984C386.594 376.808 398.59 358.793 406.757 338.973C414.924 319.153 419.1 297.917 419.047 276.48V158.7C419.046 136.85 410.365 115.894 394.914 100.444C379.462 84.9945 358.507 76.3152 336.656 76.316Z" fill="#FCF2D0"/>
<path d="M93.09 263.059V276.48C93.0932 305.151 100.659 333.315 115.024 358.128C129.389 382.941 150.045 403.527 174.907 417.807C199.769 432.087 227.958 439.556 256.63 439.461C285.301 439.366 313.44 431.71 338.207 417.266C259.707 414.129 219.234 324.829 213.844 258.676H208.137C201.058 258.675 194.27 255.863 189.264 250.858C184.259 245.852 181.447 239.064 181.446 231.985V216.141C181.446 204.148 179.084 192.271 174.495 181.191C169.905 170.11 163.178 160.042 154.698 151.561C146.217 143.081 136.149 136.354 125.068 131.764C113.988 127.175 102.111 124.813 90.118 124.813H66.8C55.1833 124.815 44.0429 129.43 35.8291 137.645C27.6152 145.859 23.0005 157 23 168.617L23 192.4C23.0003 203.67 26.623 214.642 33.3336 223.697C40.0442 232.751 49.4873 239.41 60.27 242.689L83.149 249.65C86.025 250.523 88.544 252.298 90.3341 254.713C92.1241 257.127 93.0903 260.053 93.09 263.059Z" fill="#FAE0BD"/>
<path d="M112.559 192.023C86.48 176.461 59.973 173.414 23 173.414V188.414C58.18 188.414 81.645 191.043 104.867 204.906C106.575 205.926 108.619 206.225 110.548 205.739C111.503 205.498 112.402 205.071 113.192 204.482C113.982 203.894 114.649 203.156 115.154 202.31C115.659 201.464 115.992 200.527 116.135 199.552C116.278 198.578 116.228 197.584 115.987 196.629C115.745 195.674 115.319 194.775 114.73 193.985C114.142 193.195 113.404 192.528 112.558 192.023H112.559Z" fill="#FCF2D0"/>
<path d="M301.07 172.2C301.07 163.048 291.754 155.63 280.261 155.63C268.768 155.63 259.452 163.048 259.452 172.2C259.452 181.352 268.768 188.77 280.261 188.77C291.754 188.77 301.07 181.352 301.07 172.2Z" fill="#EDA1AB"/>
<path d="M413.863 172.2C413.863 163.048 404.547 155.63 393.054 155.63C381.561 155.63 372.245 163.048 372.245 172.2C372.245 181.352 381.561 188.77 393.054 188.77C404.547 188.77 413.863 181.352 413.863 172.2Z" fill="#EDA1AB"/>
<path d="M302.293 161.668C300.304 161.668 298.396 160.878 296.99 159.471C295.583 158.065 294.793 156.157 294.793 154.168C294.793 153.53 294.54 152.919 294.089 152.468C293.638 152.017 293.026 151.764 292.388 151.764C291.751 151.764 291.139 152.017 290.688 152.468C290.237 152.919 289.984 153.53 289.984 154.168C289.984 156.157 289.194 158.065 287.787 159.471C286.381 160.878 284.473 161.668 282.484 161.668C280.495 161.668 278.587 160.878 277.181 159.471C275.774 158.065 274.984 156.157 274.984 154.168C274.984 149.552 276.818 145.125 280.082 141.861C283.346 138.597 287.772 136.764 292.388 136.764C297.004 136.764 301.431 138.597 304.695 141.861C307.959 145.125 309.793 149.552 309.793 154.168C309.793 156.157 309.003 158.065 307.596 159.471C306.19 160.878 304.282 161.668 302.293 161.668Z" fill="#4E5660"/>
<path d="M390.832 161.668C388.843 161.668 386.935 160.878 385.529 159.471C384.122 158.065 383.332 156.157 383.332 154.168C383.332 153.53 383.079 152.919 382.628 152.468C382.177 152.017 381.565 151.764 380.927 151.764C380.29 151.764 379.678 152.017 379.227 152.468C378.776 152.919 378.523 153.53 378.523 154.168C378.523 156.157 377.733 158.065 376.326 159.471C374.92 160.878 373.012 161.668 371.023 161.668C369.034 161.668 367.126 160.878 365.72 159.471C364.313 158.065 363.523 156.157 363.523 154.168C363.523 149.552 365.357 145.125 368.621 141.861C371.885 138.597 376.311 136.764 380.927 136.764C385.543 136.764 389.97 138.597 393.234 141.861C396.498 145.125 398.332 149.552 398.332 154.168C398.332 156.157 397.542 158.065 396.135 159.471C394.729 160.878 392.821 161.668 390.832 161.668Z" fill="#4E5660"/>
<path d="M353.012 167.43L346.43 161.895C343.694 159.594 340.234 158.332 336.659 158.332C333.084 158.332 329.623 159.594 326.887 161.895L320.3 167.43C318.351 169.068 316.773 171.103 315.671 173.398C314.569 175.693 313.969 178.197 313.911 180.743C313.852 183.288 314.336 185.817 315.33 188.161C316.325 190.505 317.808 192.61 319.679 194.336L330.406 204.236C332.108 205.808 334.339 206.681 336.656 206.681C338.973 206.681 341.205 205.808 342.906 204.236L353.636 194.336C355.507 192.609 356.989 190.504 357.983 188.16C358.977 185.816 359.461 183.287 359.402 180.742C359.343 178.197 358.742 175.693 357.641 173.398C356.539 171.103 354.961 169.068 353.012 167.43Z" fill="#EEA849"/>
<path d="M119.566 388.637C103.757 388.637 86.031 379.059 86.031 363.246C86.031 358.012 88.758 348.781 94.82 345.66C83.957 341.594 71.3 331.148 71.3 318.867C71.3 303.824 87.816 291.515 102.562 290.351C102.562 290.351 230.917 278.671 230.917 339.437C230.917 400.203 139.523 388.637 119.566 388.637Z" fill="#FCF2D0"/>
<path d="M138.129 353.16H94.8201C92.8309 353.16 90.9233 352.37 89.5168 350.963C88.1102 349.557 87.3201 347.649 87.3201 345.66C87.3201 343.671 88.1102 341.763 89.5168 340.357C90.9233 338.95 92.8309 338.16 94.8201 338.16H138.129C140.118 338.16 142.026 338.95 143.432 340.357C144.839 341.763 145.629 343.671 145.629 345.66C145.629 347.649 144.839 349.557 143.432 350.963C142.026 352.37 140.118 353.16 138.129 353.16Z" fill="#FAE0BD"/>
</svg>
