<svg width="512" height="512" viewBox="0 0 512 512" fill="none" xmlns="http://www.w3.org/2000/svg">
<path d="M135.87 274.242C134.885 274.243 133.91 274.048 133.001 273.671C132.091 273.293 131.265 272.74 130.57 272.042C118.366 259.864 101.829 253.025 84.5878 253.025C67.3467 253.025 50.8098 259.864 38.6053 272.042C37.1909 273.408 35.2964 274.164 33.3299 274.147C31.3635 274.131 29.4823 273.342 28.0916 271.952C26.7009 270.561 25.912 268.68 25.8947 266.714C25.8774 264.747 26.6332 262.853 27.9993 261.438C43.0189 246.452 63.3699 238.035 84.5873 238.035C105.805 238.035 126.156 246.452 141.175 261.438C142.223 262.487 142.936 263.823 143.225 265.277C143.514 266.731 143.365 268.238 142.798 269.607C142.231 270.977 141.271 272.148 140.039 272.972C138.806 273.796 137.358 274.237 135.875 274.238L135.87 274.242Z" fill="#FAE0BD"/>
<path d="M11.1403 264.668C14.5708 261.279 19.2031 259.384 24.0255 259.399C28.848 259.413 33.4688 261.335 36.8788 264.745C40.2888 268.155 42.2109 272.776 42.2255 277.599C42.24 282.421 40.3457 287.053 36.9563 290.484C29.8273 297.613 9.83131 306.054 2.70231 298.925C-4.42669 291.796 4.01131 271.8 11.1403 264.668Z" fill="#4E5660"/>
<path d="M238.944 360.871C238.945 372.265 235.566 383.402 229.237 392.876C222.907 402.35 213.91 409.734 203.384 414.094C192.858 418.455 181.275 419.596 170.101 417.373C158.926 415.151 148.661 409.665 140.604 401.609C132.548 393.552 127.061 383.288 124.838 372.114C122.614 360.939 123.755 349.356 128.115 338.83C132.474 328.303 139.858 319.306 149.331 312.976C158.804 306.645 169.942 303.266 181.335 303.266C188.9 303.266 196.391 304.756 203.381 307.65C210.37 310.545 216.721 314.788 222.07 320.137C227.42 325.486 231.663 331.837 234.558 338.826C237.454 345.815 238.944 353.306 238.944 360.871Z" fill="#EDA1AB"/>
<path d="M332.054 445.754H304.799C302.188 445.754 299.602 445.24 297.189 444.241C294.776 443.241 292.583 441.776 290.737 439.93C288.89 438.083 287.425 435.891 286.426 433.478C285.426 431.065 284.912 428.479 284.912 425.867V331.9H351.935V425.869C351.935 431.142 349.841 436.199 346.113 439.928C342.384 443.657 337.327 445.753 332.054 445.754Z" fill="#FAE0BD"/>
<path d="M332.054 445.754H304.799C302.188 445.754 299.602 445.24 297.189 444.241C294.776 443.241 292.583 441.776 290.737 439.93C288.89 438.083 287.425 435.891 286.426 433.478C285.426 431.065 284.912 428.479 284.912 425.867V418.476H351.935V425.867C351.936 431.14 349.842 436.198 346.113 439.928C342.385 443.657 337.328 445.753 332.054 445.754Z" fill="#383C43"/>
<path d="M371.413 110.449L380.354 119.39C383.383 122.42 387.393 124.27 391.664 124.608C395.935 124.946 400.187 123.75 403.654 121.234C409.714 116.839 414.71 111.142 418.276 104.561C421.842 97.9797 423.887 90.6827 424.259 83.2069C424.393 80.5168 423.82 77.8385 422.596 75.4389C421.373 73.0393 419.542 71.0021 417.286 69.5302C415.03 68.0583 412.428 67.2031 409.739 67.0497C407.05 66.8963 404.368 67.4501 401.959 68.6559L376.077 81.6289C373.529 82.9061 371.32 84.7703 369.633 87.0682C367.945 89.366 366.828 92.0317 366.373 94.8458C365.917 97.6599 366.137 100.542 367.013 103.255C367.89 105.967 369.398 108.433 371.413 110.449Z" fill="#E1B89A"/>
<path d="M266.776 172.574H184.026C157.465 172.575 131.992 183.127 113.21 201.91C94.4291 220.692 83.878 246.166 83.8783 272.727V283.594C83.8487 303.068 89.5252 322.124 100.206 338.407V425.868C100.207 431.142 102.302 436.2 106.031 439.93C109.761 443.659 114.819 445.755 120.093 445.755H147.343C149.955 445.755 152.541 445.241 154.954 444.242C157.367 443.242 159.559 441.778 161.406 439.931C163.253 438.084 164.718 435.892 165.717 433.479C166.716 431.066 167.231 428.48 167.23 425.868V382.332C172.781 383.27 178.401 383.742 184.03 383.742H217.897V425.867C217.898 431.141 219.993 436.199 223.722 439.929C227.452 443.658 232.51 445.754 237.784 445.754H265.034C267.646 445.754 270.232 445.24 272.645 444.241C275.058 443.241 277.25 441.777 279.097 439.93C280.944 438.083 282.409 435.891 283.408 433.478C284.407 431.065 284.922 428.479 284.921 425.867V382.1C307.947 377.853 328.758 365.675 343.739 347.681C358.721 329.687 366.926 307.014 366.929 283.6V272.727C366.93 259.575 364.34 246.551 359.307 234.399C354.274 222.248 346.897 211.207 337.596 201.907C328.296 192.607 317.255 185.23 305.104 180.197C292.952 175.164 279.929 172.573 266.776 172.574Z" fill="#FCF2D0"/>
<path d="M265.03 445.754H237.78C232.506 445.754 227.448 443.658 223.718 439.929C219.989 436.199 217.894 431.141 217.893 425.867V418.476H284.916V425.867C284.917 428.479 284.402 431.065 283.403 433.477C282.404 435.89 280.939 438.083 279.092 439.929C277.246 441.776 275.054 443.241 272.641 444.24C270.228 445.24 267.642 445.754 265.03 445.754Z" fill="#4E5660"/>
<path d="M147.343 445.754H120.093C114.819 445.754 109.761 443.658 106.031 439.929C102.302 436.199 100.207 431.141 100.206 425.867V418.476H167.229V425.867C167.23 428.479 166.715 431.065 165.716 433.477C164.717 435.89 163.252 438.083 161.405 439.929C159.559 441.776 157.367 443.241 154.954 444.24C152.541 445.24 149.955 445.754 147.343 445.754Z" fill="#4E5660"/>
<path d="M406.108 150.406C406.108 130.632 398.253 111.667 384.271 97.6841C370.289 83.7011 351.325 75.8451 331.55 75.844H282.132C262.357 75.844 243.392 83.6996 229.409 97.6826C215.425 111.666 207.57 130.631 207.569 150.406V189.52C207.569 202.004 210.028 214.366 214.805 225.899C219.583 237.433 226.585 247.913 235.412 256.74C244.24 265.567 254.72 272.57 266.253 277.347C277.787 282.124 290.148 284.583 302.632 284.583H436.632C446.53 284.583 456.33 282.634 465.474 278.846C474.618 275.059 482.927 269.507 489.926 262.508C496.924 255.51 502.475 247.201 506.263 238.057C510.05 228.913 512 219.112 511.999 209.215V195.254C512 189.365 510.84 183.533 508.586 178.092C506.333 172.651 503.03 167.707 498.866 163.542C494.702 159.378 489.758 156.074 484.317 153.82C478.876 151.566 473.045 150.406 467.155 150.406H406.108Z" fill="#FCF2D0"/>
<path d="M279.022 75.922C259.804 76.7221 241.638 84.9191 228.322 98.7999C215.006 112.681 207.571 131.171 207.569 150.406V189.523C207.569 202.007 210.028 214.369 214.805 225.902C219.583 237.436 226.585 247.916 235.412 256.743C244.24 265.57 254.72 272.573 266.253 277.35C277.787 282.127 290.148 284.586 302.632 284.586H359.769C289.917 262.563 266.776 172.574 279.022 75.922Z" fill="#FAE0BD"/>
<path d="M286.425 148.953C286.425 136.558 273.808 126.512 258.245 126.512C242.682 126.512 230.065 136.559 230.065 148.953C230.065 161.347 242.682 171.394 258.245 171.394C273.808 171.394 286.425 161.348 286.425 148.953Z" fill="#EDA1AB"/>
<path d="M387.964 148.953C387.964 136.558 375.347 126.512 359.784 126.512C344.221 126.512 331.604 136.559 331.604 148.953C331.604 161.347 344.221 171.394 359.784 171.394C375.347 171.394 387.964 161.348 387.964 148.953Z" fill="#EDA1AB"/>
<path d="M274.667 134.066C273.682 134.066 272.707 133.872 271.797 133.495C270.887 133.118 270.06 132.566 269.364 131.869C268.667 131.173 268.115 130.346 267.738 129.436C267.361 128.526 267.167 127.551 267.167 126.566V116.617C267.167 114.628 267.957 112.72 269.364 111.314C270.77 109.907 272.678 109.117 274.667 109.117C276.656 109.117 278.564 109.907 279.971 111.314C281.377 112.72 282.167 114.628 282.167 116.617V126.566C282.167 127.551 281.973 128.526 281.596 129.436C281.219 130.346 280.667 131.173 279.971 131.869C279.274 132.566 278.447 133.118 277.537 133.495C276.627 133.872 275.652 134.066 274.667 134.066Z" fill="#4E5660"/>
<path d="M343.362 134.066C342.377 134.066 341.402 133.872 340.492 133.495C339.582 133.118 338.755 132.566 338.059 131.869C337.363 131.173 336.81 130.346 336.433 129.436C336.056 128.526 335.862 127.551 335.862 126.566V116.617C335.862 114.628 336.652 112.72 338.059 111.314C339.466 109.907 341.373 109.117 343.362 109.117C345.351 109.117 347.259 109.907 348.666 111.314C350.072 112.72 350.862 114.628 350.862 116.617V126.566C350.862 127.551 350.668 128.526 350.291 129.436C349.914 130.346 349.362 131.173 348.666 131.869C347.969 132.566 347.142 133.118 346.232 133.495C345.322 133.872 344.347 134.066 343.362 134.066Z" fill="#4E5660"/>
<path d="M467.151 150.406C473.041 150.406 478.873 151.566 484.314 153.82C489.755 156.073 494.699 159.377 498.864 163.541C503.028 167.706 506.332 172.65 508.586 178.091C510.839 183.533 511.999 189.364 511.999 195.254V209.215C511.999 229.204 504.059 248.375 489.924 262.509C475.79 276.643 456.619 284.584 436.63 284.584C416.641 284.584 397.471 276.643 383.336 262.509C369.202 248.375 361.261 229.204 361.261 209.215V195.254C361.261 189.364 362.421 183.533 364.675 178.091C366.929 172.65 370.232 167.706 374.397 163.541C378.561 159.377 383.505 156.073 388.947 153.82C394.388 151.566 400.22 150.406 406.109 150.406H467.151Z" fill="#EDA1AB"/>
<path d="M418.851 192.344C418.851 194.978 418.069 197.553 416.606 199.743C415.142 201.933 413.062 203.639 410.628 204.647C408.194 205.655 405.517 205.918 402.933 205.404C400.35 204.889 397.977 203.621 396.115 201.758C394.252 199.895 392.984 197.522 392.471 194.938C391.957 192.355 392.222 189.677 393.23 187.243C394.238 184.81 395.946 182.73 398.136 181.267C400.326 179.804 402.901 179.024 405.535 179.024C407.284 179.024 409.016 179.369 410.632 180.038C412.247 180.708 413.716 181.689 414.952 182.926C416.189 184.163 417.169 185.631 417.838 187.247C418.507 188.863 418.852 190.595 418.851 192.344Z" fill="#4E5660"/>
<path d="M481.05 192.344C481.05 194.978 480.269 197.552 478.805 199.742C477.341 201.932 475.261 203.639 472.828 204.647C470.395 205.654 467.717 205.918 465.134 205.404C462.55 204.89 460.178 203.622 458.315 201.759C456.453 199.897 455.184 197.524 454.67 194.941C454.156 192.357 454.42 189.68 455.428 187.246C456.435 184.813 458.142 182.733 460.332 181.269C462.522 179.806 465.096 179.024 467.73 179.024C471.263 179.024 474.651 180.428 477.149 182.926C479.647 185.423 481.05 188.811 481.05 192.344Z" fill="#4E5660"/>
<path d="M436.632 252.77C432.565 252.77 428.544 251.898 424.842 250.213C421.14 248.528 417.842 246.068 415.171 243C414.508 242.26 413.998 241.395 413.672 240.457C413.346 239.518 413.209 238.524 413.271 237.532C413.332 236.54 413.59 235.57 414.029 234.679C414.468 233.787 415.081 232.992 415.83 232.339C416.579 231.687 417.451 231.189 418.394 230.876C419.337 230.563 420.333 230.441 421.324 230.516C422.315 230.591 423.281 230.863 424.166 231.314C425.052 231.766 425.838 232.39 426.48 233.148C427.743 234.6 429.302 235.764 431.053 236.562C432.804 237.36 434.706 237.773 436.63 237.773C438.554 237.773 440.456 237.36 442.207 236.562C443.958 235.764 445.518 234.6 446.78 233.148C447.422 232.39 448.209 231.766 449.094 231.314C449.979 230.863 450.945 230.591 451.936 230.516C452.927 230.441 453.923 230.563 454.866 230.876C455.81 231.189 456.681 231.687 457.431 232.339C458.18 232.992 458.792 233.787 459.231 234.679C459.671 235.57 459.929 236.54 459.99 237.532C460.051 238.524 459.915 239.518 459.588 240.457C459.262 241.395 458.753 242.26 458.089 243C455.419 246.067 452.121 248.526 448.42 250.212C444.719 251.897 440.699 252.769 436.632 252.77Z" fill="#4E5660"/>
<path d="M241.69 110.449L232.749 119.39C229.72 122.42 225.71 124.27 221.439 124.608C217.168 124.946 212.917 123.75 209.449 121.234C203.39 116.839 198.394 111.142 194.828 104.561C191.262 97.9798 189.217 90.6828 188.844 83.207C188.71 80.5165 189.282 77.8377 190.506 75.4376C191.729 73.0375 193.56 70.9999 195.816 69.5278C198.072 68.0557 200.674 67.2005 203.364 67.0476C206.053 66.8946 208.736 67.4492 211.144 68.656L237.023 81.629C239.572 82.9059 241.781 84.7699 243.469 87.0676C245.156 89.3653 246.274 92.0309 246.729 94.8451C247.185 97.6592 246.966 100.541 246.09 103.254C245.214 105.967 243.706 108.433 241.69 110.449Z" fill="#E1B89A"/>
<path d="M212.874 213.219C208.293 213.219 203.767 212.221 199.611 210.294C195.454 208.367 191.768 205.557 188.808 202.06C185.849 198.563 183.687 194.463 182.473 190.046C181.259 185.628 181.023 180.999 181.78 176.481L187.362 143.181C188.374 137.147 191.492 131.666 196.163 127.713C200.833 123.761 206.754 121.592 212.872 121.592C218.991 121.592 224.912 123.761 229.582 127.713C234.253 131.666 237.371 137.147 238.382 143.181L243.964 176.481C244.722 180.999 244.486 185.628 243.273 190.045C242.059 194.462 239.898 198.562 236.938 202.059C233.979 205.556 230.293 208.366 226.137 210.293C221.981 212.221 217.455 213.219 212.874 213.219Z" fill="#4E5660"/>
<path d="M83.8784 272.727V273.594C96.0384 281.794 109.206 286.059 120.078 284.582C144.778 281.234 188.058 238.482 146.778 179.762C128.209 187.204 112.293 200.037 101.083 216.606C89.8722 233.175 83.88 252.722 83.8784 272.727Z" fill="#4E5660"/>
<path d="M155.733 299.48C140.186 323.625 149.397 351.835 176.01 353.218C202.623 354.601 235.889 368.14 232.369 324.585C230.197 297.757 220.08 283.331 199.525 282.214C178.97 281.097 165.745 283.934 155.733 299.48Z" fill="#4E5660"/>
<path d="M360.968 317.676C334.808 301.469 312.32 312.797 305.409 329.153C299.495 343.141 301.909 359.453 311.509 373.192C334.489 361.693 352.189 341.826 360.968 317.676Z" fill="#4E5660"/>
</svg>
