<svg width="513" height="512" viewBox="0 0 513 512" fill="none" xmlns="http://www.w3.org/2000/svg">
<path d="M364.946 423.236C371.333 444.463 368.146 464.252 356.087 482.713C349.764 492.236 342.197 500.871 333.587 508.389C330.871 510.795 327.342 512.081 323.715 511.987C320.087 511.893 316.63 510.426 314.043 507.883C311.455 505.339 309.929 501.908 309.772 498.282C309.616 494.657 310.841 491.107 313.201 488.35C322.107 477.987 331.959 465.584 332.31 451.264C332.529 442.205 327.462 434.284 323.81 426.205C320.685 419.295 306.931 388.905 306.931 388.905C305.655 386.157 304.936 383.184 304.816 380.157C304.696 377.13 305.177 374.109 306.231 371.269C307.286 368.429 308.892 365.826 310.959 363.611C313.025 361.396 315.51 359.612 318.27 358.363C321.03 357.113 324.01 356.424 327.038 356.333C330.066 356.242 333.082 356.753 335.912 357.835C338.741 358.917 341.328 360.549 343.524 362.636C345.719 364.724 347.478 367.226 348.701 369.998C349.101 370.893 363.724 419.186 364.939 423.209C364.94 423.218 364.942 423.227 364.946 423.236Z" fill="#FF748F"/>
<path d="M434.551 375.686C449.344 392.194 454.851 411.471 451.77 433.303C450.085 444.609 446.898 455.64 442.293 466.103C440.859 469.441 438.21 472.11 434.883 473.568C431.555 475.027 427.798 475.167 424.371 473.959C420.944 472.752 418.104 470.288 416.426 467.065C414.748 463.843 414.357 460.103 415.332 456.603C418.996 443.443 422.652 428.029 416.895 414.916C413.25 406.616 405.301 401.596 398.563 395.83C392.801 390.904 367.45 369.217 367.45 369.217C365.124 367.272 363.207 364.885 361.809 362.194C360.412 359.503 359.562 356.561 359.31 353.54C359.057 350.518 359.406 347.476 360.337 344.59C361.268 341.705 362.762 339.032 364.733 336.728C366.704 334.423 369.112 332.533 371.818 331.166C374.525 329.798 377.476 328.982 380.5 328.763C383.524 328.544 386.562 328.927 389.437 329.89C392.312 330.853 394.968 332.377 397.25 334.373C397.992 335.01 431.727 372.533 434.531 375.662C434.539 375.67 434.547 375.678 434.551 375.686Z" fill="#FF748F"/>
<path d="M462.273 301.709C483.121 309.236 497.105 323.6 504.734 344.291C508.605 355.045 511.022 366.268 511.922 377.662C512.236 381.278 511.166 384.879 508.927 387.736C506.688 390.593 503.448 392.494 499.862 393.055C496.276 393.615 492.611 392.794 489.607 390.756C486.603 388.718 484.485 385.616 483.68 382.076C480.672 368.748 476.59 353.443 465.305 344.623C458.168 339.041 448.785 338.385 440.121 336.502C432.711 334.893 400.109 327.802 400.109 327.802C397.135 327.196 394.31 326.005 391.8 324.298C389.29 322.592 387.143 320.404 385.485 317.861C383.827 315.318 382.69 312.472 382.141 309.486C381.592 306.501 381.641 303.436 382.286 300.469C382.931 297.503 384.158 294.694 385.897 292.206C387.636 289.718 389.852 287.6 392.416 285.975C394.98 284.35 397.841 283.251 400.833 282.74C403.826 282.23 406.89 282.319 409.847 283.002C410.804 283.209 458.288 300.272 462.242 301.702L462.273 301.709Z" fill="#FF748F"/>
<path d="M154.145 423.236C147.758 444.463 150.945 464.252 163.008 482.713C169.328 492.236 176.892 500.871 185.5 508.389C188.216 510.797 191.745 512.084 195.373 511.991C199.002 511.898 202.46 510.431 205.048 507.886C207.637 505.342 209.163 501.91 209.319 498.284C209.475 494.657 208.248 491.107 205.887 488.35C196.987 477.987 187.133 465.584 186.782 451.264C186.559 442.205 191.626 434.284 195.282 426.205C198.411 419.295 212.165 388.905 212.165 388.905C214.598 383.377 214.751 377.113 212.592 371.473C210.433 365.833 206.135 361.272 200.633 358.782C195.131 356.292 188.869 356.073 183.207 358.173C177.544 360.273 172.939 364.522 170.391 369.998C169.991 370.893 155.368 419.186 154.157 423.209C154.152 423.217 154.148 423.225 154.145 423.236Z" fill="#FF748F"/>
<path d="M84.5395 375.686C69.7465 392.198 64.2345 411.471 67.3205 433.298C69.0063 444.605 72.1945 455.635 76.8005 466.098C78.2349 469.436 80.8841 472.105 84.2119 473.564C87.5397 475.022 91.2975 475.162 94.7245 473.955C98.1515 472.748 100.992 470.283 102.67 467.061C104.349 463.838 104.74 460.098 103.765 456.598C100.101 443.438 96.4415 428.024 102.199 414.911C105.844 406.611 113.793 401.591 120.531 395.825C126.293 390.899 151.648 369.212 151.648 369.212C156.192 365.238 158.984 359.632 159.42 353.612C159.856 347.592 157.9 341.643 153.977 337.055C150.054 332.468 144.48 329.613 138.465 329.11C132.45 328.607 126.479 330.496 121.848 334.368C121.102 335.005 87.3715 372.528 84.5635 375.657C84.5578 375.668 84.5496 375.678 84.5395 375.686Z" fill="#FF748F"/>
<path d="M56.8204 301.709C35.9694 309.236 21.9844 323.598 14.3594 344.291C10.4864 355.045 8.06799 366.268 7.16842 377.662C6.8546 381.278 7.92519 384.879 10.1639 387.736C12.4025 390.593 15.6423 392.494 19.2286 393.055C22.8149 393.615 26.4802 392.794 29.4839 390.756C32.4877 388.718 34.6058 385.616 35.4104 382.076C38.4184 368.748 42.5004 353.443 53.7854 344.623C60.9264 339.041 70.3054 338.385 78.9694 336.502C86.3794 334.893 118.981 327.802 118.981 327.802C121.956 327.196 124.78 326.005 127.291 324.298C129.801 322.592 131.948 320.404 133.606 317.861C135.264 315.318 136.401 312.472 136.95 309.486C137.499 306.501 137.45 303.436 136.805 300.469C136.16 297.503 134.933 294.694 133.194 292.206C131.455 289.718 129.239 287.6 126.675 285.975C124.111 284.35 121.25 283.251 118.257 282.74C115.265 282.23 112.201 282.319 109.243 283.002C108.286 283.209 60.8024 300.272 56.8484 301.702C56.8389 301.704 56.8296 301.706 56.8204 301.709Z" fill="#FF748F"/>
<path d="M107.458 274.166C88.4006 268.682 73.0786 257.898 61.9226 242.123C53.4656 230.158 47.6096 215.498 44.5166 198.545C41.491 181.059 41.1773 163.212 43.5866 145.631L83.7316 152.143L63.6616 148.889L83.7436 152.089C82.0244 165.41 82.3444 178.915 84.6926 192.14C89.2236 215.757 100.349 229.804 118.709 235.085L107.458 274.166Z" fill="#FF748F"/>
<path d="M411.633 274.166C430.692 268.682 446.012 257.9 457.168 242.123C465.625 230.158 471.484 215.494 474.574 198.545C477.602 181.06 477.916 163.212 475.504 145.631L435.359 152.143L455.429 148.889L435.351 152.089C437.066 165.41 436.744 178.915 434.398 192.14C429.867 215.757 418.742 229.804 400.382 235.085L411.633 274.166Z" fill="#FF748F"/>
<path d="M53.7855 344.623C60.9225 339.041 70.3055 338.385 78.9695 336.502L118.981 327.802C121.956 327.195 124.78 326.004 127.29 324.297C129.8 322.59 131.946 320.402 133.604 317.859C135.262 315.316 136.398 312.47 136.947 309.484C137.496 306.499 137.447 303.434 136.802 300.468C136.157 297.502 134.93 294.693 133.191 292.205C131.452 289.717 129.237 287.599 126.673 285.974C124.109 284.349 121.248 283.249 118.256 282.738C115.264 282.227 112.2 282.315 109.242 282.998C108.285 283.205 60.8015 300.268 56.8475 301.698C56.8377 301.703 56.8272 301.705 56.8165 301.706C53.4835 302.913 50.2372 304.347 47.1005 305.998C45.8841 319.877 47.1327 333.863 50.7885 347.307C51.7325 346.353 52.7333 345.457 53.7855 344.623Z" fill="#FD5F7E"/>
<path d="M121.841 334.373C121.099 335.006 87.3635 372.533 84.5595 375.662C84.5515 375.67 84.5475 375.678 84.5395 375.685C80.4506 380.215 76.9382 385.233 74.0825 390.626C81.8284 399.297 91.1684 406.398 101.595 411.544C102.216 411.844 102.853 412.138 103.478 412.435C107.494 405.572 114.494 400.994 120.529 395.83C126.291 390.904 151.646 369.217 151.646 369.217C156.189 365.243 158.981 359.637 159.417 353.617C159.853 347.597 157.897 341.648 153.974 337.06C150.051 332.473 144.477 329.618 138.462 329.115C132.447 328.612 126.476 330.501 121.846 334.373H121.841Z" fill="#FD5F7E"/>
<path d="M200.73 358.561C195.19 356.055 188.882 355.851 183.192 357.996C177.503 360.141 172.898 364.458 170.391 369.998C169.991 370.889 155.368 419.182 154.157 423.205C154.157 423.217 154.149 423.225 154.145 423.236C154.086 423.436 154.045 423.627 153.985 423.822C158.7 424.08 163.637 424.213 168.852 424.213H168.86C177.946 424.213 187.137 423.842 196.587 423.326C201.138 413.271 212.165 388.9 212.165 388.9C213.407 386.157 214.095 383.197 214.193 380.187C214.29 377.178 213.793 374.179 212.731 371.362C211.669 368.545 210.063 365.964 208.004 363.768C205.945 361.572 203.473 359.802 200.73 358.561Z" fill="#FD5F7E"/>
<path d="M365.105 423.822C365.046 423.622 365.005 423.431 364.945 423.236C364.945 423.224 364.937 423.216 364.933 423.205C363.723 419.182 349.1 370.889 348.7 369.998C347.479 367.225 345.72 364.721 343.526 362.632C341.331 360.543 338.744 358.91 335.914 357.827C333.084 356.744 330.067 356.232 327.039 356.322C324.01 356.412 321.029 357.101 318.268 358.35C315.508 359.6 313.022 361.383 310.955 363.599C308.888 365.815 307.281 368.418 306.226 371.259C305.172 374.099 304.691 377.121 304.811 380.148C304.931 383.176 305.651 386.15 306.927 388.898C306.927 388.898 317.953 413.275 322.5 423.326C331.953 423.842 341.152 424.217 350.238 424.217C355.453 424.217 360.391 424.084 365.105 423.822Z" fill="#FD5F7E"/>
<path d="M445.008 390.627C442.154 385.233 438.642 380.215 434.551 375.686C434.546 375.677 434.539 375.67 434.531 375.663C431.731 372.534 397.992 335.007 397.25 334.374C392.62 330.502 386.649 328.613 380.634 329.116C374.619 329.619 369.045 332.474 365.122 337.061C361.198 341.649 359.243 347.598 359.679 353.618C360.115 359.638 362.907 365.244 367.45 369.218C367.45 369.218 392.802 390.906 398.563 395.831C404.602 400.995 411.602 405.573 415.618 412.436C416.247 412.143 416.88 411.854 417.501 411.545C427.927 406.4 437.265 399.298 445.008 390.627Z" fill="#FD5F7E"/>
<path d="M462.243 301.698C458.29 300.272 410.806 283.206 409.848 282.998C406.906 282.359 403.866 282.305 400.903 282.84C397.94 283.375 395.112 284.489 392.579 286.117C390.047 287.746 387.86 289.857 386.143 292.33C384.426 294.804 383.214 297.591 382.574 300.534C381.935 303.476 381.881 306.515 382.416 309.478C382.952 312.441 384.065 315.269 385.693 317.802C387.322 320.335 389.433 322.522 391.907 324.238C394.38 325.955 397.168 327.168 400.11 327.807L440.122 336.507C448.786 338.39 458.169 339.046 465.306 344.628C466.361 345.461 467.363 346.358 468.306 347.316C471.962 333.869 473.21 319.88 471.993 305.998C468.855 304.349 465.607 302.916 462.274 301.709L462.243 301.698Z" fill="#FD5F7E"/>
<path d="M454.665 245.471C449.567 235.091 443.642 225.138 436.946 215.709C434.794 212.67 432.555 209.689 430.259 206.76C424.415 221.67 414.568 231.006 400.388 235.084L411.634 274.166C429.31 269.08 443.763 259.432 454.665 245.471Z" fill="#FD5F7E"/>
<path d="M107.458 274.166L118.708 235.084C104.524 231.006 94.6808 221.67 88.8368 206.76C86.5361 209.69 84.3071 212.673 82.1498 215.709C75.4546 225.139 69.5279 235.092 64.4268 245.471C75.3288 259.432 89.7818 269.08 107.458 274.166Z" fill="#FD5F7E"/>
<path d="M259.548 394.67C340.138 394.67 416.032 418.87 442.056 345.006C468.08 271.142 381.341 146.346 259.548 146.346C137.755 146.346 51.0168 271.143 77.0358 345.006C103.055 418.869 178.954 394.67 259.548 394.67Z" fill="#F9496E"/>
<path d="M107.942 345.006C83.0358 274.306 161.442 156.963 274.997 147.037C269.915 146.592 264.767 146.346 259.548 146.346C137.755 146.346 51.0168 271.146 77.0358 345.006C94.8008 395.42 135.801 400.146 185.665 398.072C150.087 395.975 121.868 384.537 107.942 345.006Z" fill="#F5385D"/>
<path d="M259.548 313.451C254.47 313.489 249.443 312.441 244.803 310.377C240.163 308.312 236.019 305.28 232.648 301.482C231.98 300.718 231.469 299.83 231.144 298.869C230.819 297.908 230.687 296.892 230.755 295.879C230.823 294.867 231.089 293.878 231.54 292.969C231.99 292.059 232.614 291.247 233.378 290.58C234.142 289.912 235.03 289.401 235.991 289.076C236.953 288.751 237.968 288.619 238.981 288.687C239.993 288.755 240.982 289.021 241.892 289.471C242.801 289.921 243.613 290.546 244.281 291.31C246.225 293.418 248.584 295.101 251.211 296.252C253.838 297.403 256.675 297.997 259.542 297.997C262.41 297.997 265.247 297.403 267.873 296.252C270.5 295.101 272.86 293.418 274.804 291.31C276.153 289.767 278.059 288.823 280.104 288.685C282.149 288.548 284.165 289.229 285.708 290.578C287.251 291.926 288.196 293.833 288.333 295.878C288.47 297.923 287.79 299.939 286.441 301.482C283.071 305.279 278.928 308.312 274.289 310.376C269.651 312.441 264.625 313.489 259.548 313.451Z" fill="#423E4F"/>
<path d="M91.0005 175.783C138.855 165.283 170.391 84.775 135.684 38.334C134.916 37.2841 133.864 36.4745 132.653 35.9997C131.442 35.5248 130.12 35.4042 128.843 35.6521C127.565 35.8999 126.385 36.5059 125.439 37.3994C124.493 38.2928 123.821 39.4369 123.5 40.698C121.094 50.398 114.508 63.327 97.2075 73.553L91.0005 175.783Z" fill="#F9496E"/>
<path d="M97.2116 73.553C72.2276 49.807 70.3956 22.459 71.7546 7.467C71.8681 6.24368 71.6495 5.01239 71.1218 3.90291C70.5941 2.79343 69.7769 1.84686 68.7562 1.16296C67.7356 0.479055 66.5494 0.0831584 65.3226 0.0169925C64.0958 -0.0491735 62.8739 0.216842 61.7856 0.787002C45.2346 9.385 16.4106 32.99 8.20059 94.814C-1.88941 170.857 54.2746 176.521 70.0716 176.627C72.8956 176.647 75.7196 176.783 78.5406 176.92C127.801 179.361 132.801 107.381 97.2116 73.553Z" fill="#FD5F7E"/>
<path d="M428.095 175.783C380.24 165.283 348.704 84.775 383.415 38.334C384.183 37.2866 385.234 36.4793 386.444 36.0059C387.654 35.5326 388.974 35.4128 390.249 35.6606C391.525 35.9083 392.704 36.5133 393.649 37.4052C394.594 38.297 395.266 39.439 395.587 40.698C397.993 50.398 404.587 63.327 421.88 73.553L428.095 175.783Z" fill="#F9496E"/>
<path d="M421.879 73.553C446.863 49.807 448.7 22.459 447.34 7.46695C447.227 6.24456 447.445 5.01419 447.972 3.90542C448.499 2.79665 449.315 1.85053 450.335 1.16672C451.355 0.482913 452.54 0.0867256 453.766 0.0198905C454.991 -0.0469445 456.213 0.218047 457.3 0.786953C473.851 9.38695 502.675 32.987 510.882 94.814C520.972 170.857 464.808 176.514 449.011 176.627C446.187 176.643 443.363 176.783 440.542 176.92C391.293 179.361 386.285 107.381 421.879 73.553Z" fill="#FD5F7E"/>
<path d="M200.664 321.734C200.664 307.504 186.176 295.968 168.305 295.968C150.434 295.968 135.945 307.5 135.945 321.734C135.945 335.968 150.434 347.5 168.3 347.5C186.166 347.5 200.664 335.965 200.664 321.734Z" fill="#EDA1AB"/>
<path d="M376.054 321.734C376.054 307.504 361.566 295.968 343.695 295.968C325.824 295.968 311.335 307.5 311.335 321.734C311.335 335.968 325.823 347.5 343.699 347.5C361.575 347.5 376.054 335.965 376.054 321.734Z" fill="#EDA1AB"/>
<path d="M174.142 305.198C172.092 305.197 170.127 304.383 168.678 302.934C167.229 301.485 166.415 299.52 166.415 297.471V282.018C166.438 279.984 167.262 278.041 168.708 276.611C170.155 275.181 172.107 274.379 174.141 274.379C176.175 274.379 178.127 275.181 179.574 276.611C181.02 278.041 181.844 279.984 181.868 282.018V297.475C181.866 299.523 181.051 301.487 179.603 302.935C178.154 304.383 176.19 305.197 174.142 305.198Z" fill="#423E4F"/>
<path d="M344.95 305.198C342.901 305.197 340.935 304.383 339.486 302.934C338.037 301.485 337.223 299.52 337.223 297.471V282.018C337.246 279.984 338.07 278.041 339.517 276.611C340.963 275.181 342.915 274.379 344.949 274.379C346.983 274.379 348.935 275.181 350.382 276.611C351.828 278.041 352.653 279.984 352.676 282.018V297.475C352.675 299.524 351.861 301.488 350.412 302.936C348.963 304.384 346.998 305.198 344.95 305.198Z" fill="#423E4F"/>
</svg>
