<svg width="512" height="512" viewBox="0 0 512 512" fill="none" xmlns="http://www.w3.org/2000/svg">
<path d="M511.147 272C507.086 252.252 496.335 234.51 480.708 221.77C465.082 209.03 445.538 202.073 425.377 202.074C423.108 202.076 420.873 201.522 418.869 200.46C416.864 199.399 415.15 197.862 413.877 195.984C402.937 179.766 388.184 166.482 370.912 157.297C353.64 148.113 334.377 143.309 314.815 143.308H149.034C122.799 143.308 97.2931 151.94 76.4498 167.872C55.6066 183.803 40.5839 206.15 33.6985 231.465L13.3935 306.137C-0.923461 358.77 38.7055 410.613 93.2485 410.613H178.394C181.43 410.613 184.426 409.914 187.149 408.568C189.871 407.223 192.247 405.268 194.091 402.855C195.936 400.443 197.199 397.637 197.783 394.657C198.367 391.677 198.257 388.602 197.46 385.672C192.412 367.112 181.399 350.729 166.118 339.048C150.838 327.368 132.138 321.039 112.905 321.039H471.171C477.228 321.039 483.21 319.69 488.681 317.092C494.153 314.493 498.977 310.708 502.805 306.013C506.632 301.318 509.366 295.83 510.809 289.947C512.252 284.064 512.367 277.933 511.147 272Z" fill="#79CE6F"/>
<path d="M190.683 143.313H149.034C122.799 143.312 97.2932 151.942 76.4498 167.873C55.6064 183.804 40.5836 206.15 33.6985 231.465L13.3935 306.137C-0.923461 358.77 38.7055 410.613 93.2485 410.613H178.394C181.43 410.613 184.426 409.914 187.149 408.568C189.871 407.223 192.247 405.268 194.091 402.855C195.936 400.443 197.199 397.637 197.783 394.657C198.367 391.677 198.257 388.602 197.46 385.672C192.412 367.112 181.399 350.729 166.118 339.048C150.838 327.368 132.138 321.039 112.905 321.039H207.218C180.749 289.391 172.823 196.16 190.683 143.313Z" fill="#4DC176"/>
<path d="M210.928 213.254C210.929 214.818 210.465 216.347 209.597 217.648C208.728 218.948 207.493 219.962 206.048 220.561C204.604 221.16 203.014 221.317 201.479 221.012C199.945 220.708 198.536 219.955 197.43 218.849C196.324 217.744 195.57 216.335 195.265 214.801C194.959 213.267 195.115 211.677 195.714 210.232C196.312 208.786 197.325 207.551 198.625 206.682C199.925 205.813 201.454 205.348 203.018 205.348C204.057 205.348 205.085 205.552 206.045 205.949C207.004 206.346 207.876 206.928 208.611 207.663C209.346 208.397 209.928 209.268 210.326 210.228C210.723 211.187 210.928 212.215 210.928 213.254Z" fill="#4DC176"/>
<path d="M151.478 191.141C151.479 192.706 151.016 194.235 150.147 195.537C149.278 196.838 148.043 197.852 146.598 198.452C145.153 199.051 143.562 199.208 142.027 198.903C140.493 198.599 139.083 197.846 137.976 196.74C136.87 195.634 136.116 194.224 135.81 192.69C135.505 191.155 135.661 189.564 136.26 188.119C136.859 186.673 137.872 185.438 139.173 184.568C140.474 183.699 142.004 183.235 143.568 183.235C145.665 183.235 147.677 184.068 149.16 185.55C150.643 187.033 151.477 189.044 151.478 191.141Z" fill="#79CE6F"/>
<path d="M123.166 228.156C123.165 229.72 122.701 231.249 121.832 232.549C120.963 233.849 119.728 234.862 118.283 235.46C116.838 236.059 115.248 236.215 113.714 235.91C112.181 235.605 110.772 234.852 109.666 233.746C108.56 232.64 107.807 231.231 107.502 229.697C107.196 228.163 107.353 226.574 107.951 225.129C108.549 223.684 109.563 222.449 110.863 221.58C112.163 220.71 113.692 220.246 115.256 220.246C116.295 220.245 117.323 220.45 118.283 220.847C119.243 221.244 120.115 221.827 120.85 222.562C121.585 223.296 122.167 224.168 122.565 225.128C122.962 226.088 123.166 227.117 123.166 228.156Z" fill="#79CE6F"/>
<path d="M264.779 261.559H283.338C297.337 261.56 311.001 265.844 322.494 273.835C333.988 281.827 342.762 293.143 347.638 306.266C348.254 307.923 348.46 309.705 348.238 311.459C348.017 313.213 347.374 314.887 346.365 316.339C345.356 317.79 344.011 318.977 342.444 319.796C340.877 320.615 339.136 321.043 337.368 321.043H264.779C258.883 321.043 253.229 318.701 249.06 314.532C244.891 310.363 242.549 304.709 242.549 298.813V283.789C242.549 277.893 244.891 272.239 249.06 268.07C253.229 263.901 258.883 261.559 264.779 261.559Z" fill="#4DC176"/>
<path d="M315.752 214.648C315.752 204.429 303.545 196.14 288.486 196.14C273.427 196.14 261.22 204.429 261.22 214.648C261.22 224.867 273.427 233.156 288.486 233.156C303.545 233.156 315.752 224.867 315.752 214.648Z" fill="white"/>
<path d="M304.377 203.7C302.388 203.7 300.48 202.91 299.074 201.503C297.667 200.097 296.877 198.189 296.877 196.2V186.566C296.877 184.577 297.667 182.669 299.074 181.263C300.48 179.856 302.388 179.066 304.377 179.066C306.366 179.066 308.274 179.856 309.68 181.263C311.087 182.669 311.877 184.577 311.877 186.566V196.2C311.877 198.189 311.087 200.097 309.68 201.503C308.274 202.91 306.366 203.7 304.377 203.7Z" fill="#4E5660"/>
<path d="M416.698 214.648C416.698 204.429 404.491 196.14 389.432 196.14C374.373 196.14 362.166 204.429 362.166 214.648C362.166 224.867 374.373 233.156 389.432 233.156C404.491 233.156 416.698 224.867 416.698 214.648Z" fill="white"/>
<path d="M373.537 203.7C371.548 203.7 369.64 202.91 368.234 201.503C366.827 200.097 366.037 198.189 366.037 196.2V186.566C366.037 184.577 366.827 182.669 368.234 181.263C369.64 179.856 371.548 179.066 373.537 179.066C375.526 179.066 377.434 179.856 378.84 181.263C380.247 182.669 381.037 184.577 381.037 186.566V196.2C381.037 198.189 380.247 200.097 378.84 201.503C377.434 202.91 375.526 203.7 373.537 203.7Z" fill="#4E5660"/>
<path d="M429.834 303.688C425.864 303.687 421.94 302.835 418.327 301.19C414.714 299.544 411.495 297.143 408.889 294.149C407.582 292.649 406.924 290.692 407.061 288.707C407.197 286.723 408.116 284.874 409.616 283.567C411.115 282.26 413.073 281.603 415.057 281.739C417.042 281.875 418.891 282.794 420.198 284.294C421.396 285.674 422.876 286.78 424.539 287.538C426.201 288.296 428.007 288.688 429.834 288.688C431.661 288.688 433.467 288.296 435.13 287.538C436.792 286.78 438.273 285.674 439.471 284.294C440.778 282.794 442.627 281.874 444.612 281.737C446.597 281.601 448.555 282.258 450.055 283.565C451.555 284.872 452.475 286.721 452.611 288.706C452.748 290.691 452.091 292.649 450.784 294.149C448.176 297.143 444.957 299.544 441.343 301.189C437.729 302.835 433.805 303.687 429.834 303.688Z" fill="#4E5660"/>
<path d="M409.072 263.426C407.083 263.426 405.175 262.636 403.768 261.229C402.362 259.823 401.572 257.915 401.572 255.926C401.572 254.249 400.906 252.641 399.72 251.455C398.534 250.27 396.926 249.604 395.249 249.604C393.572 249.604 391.964 250.27 390.779 251.455C389.593 252.641 388.927 254.249 388.927 255.926C388.927 257.915 388.137 259.823 386.73 261.229C385.324 262.636 383.416 263.426 381.427 263.426C379.438 263.426 377.53 262.636 376.123 261.229C374.717 259.823 373.927 257.915 373.927 255.926C373.927 250.271 376.173 244.847 380.172 240.849C384.171 236.85 389.594 234.604 395.249 234.604C400.904 234.604 406.328 236.85 410.327 240.849C414.325 244.847 416.572 250.271 416.572 255.926C416.572 257.915 415.782 259.823 414.375 261.229C412.969 262.636 411.061 263.426 409.072 263.426Z" fill="#4DC176"/>
<path d="M478.24 263.426C476.251 263.426 474.343 262.636 472.936 261.229C471.53 259.823 470.74 257.915 470.74 255.926C470.74 254.249 470.074 252.64 468.888 251.454C467.702 250.268 466.093 249.602 464.416 249.602C462.739 249.602 461.13 250.268 459.944 251.454C458.758 252.64 458.092 254.249 458.092 255.926C458.092 257.915 457.302 259.823 455.895 261.229C454.489 262.636 452.581 263.426 450.592 263.426C448.603 263.426 446.695 262.636 445.289 261.229C443.882 259.823 443.092 257.915 443.092 255.926C443.092 250.271 445.338 244.847 449.337 240.848C453.336 236.849 458.76 234.602 464.416 234.602C470.071 234.602 475.495 236.849 479.494 240.848C483.493 244.847 485.74 250.271 485.74 255.926C485.74 256.911 485.546 257.886 485.169 258.796C484.792 259.706 484.24 260.533 483.543 261.229C482.847 261.926 482.02 262.478 481.11 262.855C480.2 263.232 479.225 263.426 478.24 263.426Z" fill="#4DC176"/>
<path d="M298.607 283.387C296.804 282.548 294.741 282.459 292.872 283.141C291.004 283.823 289.483 285.219 288.643 287.023C287.804 288.826 287.716 290.889 288.398 292.758C289.08 294.627 290.476 296.148 292.279 296.987C302.633 301.882 310.793 310.456 315.17 321.038H331.162C325.639 303.953 314.088 290.586 298.607 283.387Z" fill="#79CE6F"/>
<path d="M112.904 261.559H131.463C145.462 261.56 159.125 265.844 170.619 273.835C182.113 281.827 190.887 293.143 195.763 306.266C196.378 307.923 196.584 309.704 196.362 311.457C196.14 313.21 195.498 314.884 194.49 316.335C193.481 317.787 192.137 318.973 190.571 319.793C189.006 320.612 187.265 321.041 185.498 321.043H127.928C123.036 321.043 118.192 320.079 113.672 318.207C109.152 316.335 105.046 313.59 101.587 310.131C98.1279 306.672 95.3841 302.565 93.5123 298.045C91.6405 293.525 90.6773 288.681 90.6777 283.789C90.678 277.894 93.0196 272.24 97.1876 268.072C101.356 263.903 107.009 261.56 112.904 261.559Z" fill="#6FCE91"/>
<path d="M146.732 283.387C144.929 282.548 142.866 282.459 140.997 283.141C139.129 283.823 137.608 285.219 136.768 287.023C135.929 288.826 135.841 290.889 136.523 292.758C137.205 294.627 138.601 296.148 140.404 296.987C150.759 301.881 158.92 310.456 163.298 321.039H179.29C173.764 303.953 162.213 290.586 146.732 283.387Z" fill="#4DC176"/>
<path d="M188.35 149.648H135.826C134.526 149.649 133.249 149.308 132.122 148.66C130.994 148.012 130.057 147.08 129.404 145.956C128.75 144.832 128.403 143.557 128.397 142.257C128.391 140.957 128.726 139.678 129.369 138.548L144.256 112.372C146.047 109.222 148.641 106.602 151.773 104.78C154.905 102.958 158.464 101.998 162.088 101.998C165.712 101.998 169.271 102.958 172.403 104.78C175.535 106.602 178.129 109.222 179.92 112.372L194.807 138.548C195.45 139.678 195.785 140.957 195.779 142.256C195.773 143.556 195.425 144.832 194.772 145.955C194.118 147.079 193.181 148.011 192.054 148.659C190.927 149.307 189.65 149.648 188.35 149.648Z" fill="#8EE2CF"/>
<path d="M297.033 149.648H244.506C243.206 149.648 241.929 149.307 240.803 148.659C239.676 148.011 238.739 147.078 238.085 145.955C237.432 144.831 237.085 143.556 237.078 142.256C237.072 140.957 237.407 139.678 238.049 138.548L252.936 112.372C254.727 109.222 257.321 106.602 260.453 104.78C263.585 102.958 267.145 101.998 270.768 101.998C274.392 101.998 277.951 102.958 281.083 104.78C284.215 106.602 286.809 109.222 288.6 112.372L303.487 138.548C304.131 139.677 304.466 140.956 304.46 142.256C304.455 143.556 304.108 144.831 303.454 145.955C302.801 147.079 301.864 148.011 300.737 148.659C299.61 149.308 298.333 149.648 297.033 149.648Z" fill="#8EE2CF"/>
<path d="M93.9317 170.363L60.1657 210.6C59.3306 211.595 58.249 212.354 57.0289 212.8C55.8088 213.247 54.493 213.365 53.2128 213.144C51.9326 212.922 50.7329 212.369 49.7336 211.539C48.7342 210.709 47.9701 209.631 47.5177 208.413L37.0327 180.184C35.7715 176.787 35.4326 173.116 36.0504 169.546C36.6682 165.975 38.2208 162.632 40.5501 159.856C42.8794 157.081 45.9024 154.971 49.3115 153.743C52.7207 152.515 56.3943 152.212 59.9587 152.864L89.5797 158.286C90.8577 158.52 92.052 159.085 93.0433 159.925C94.0345 160.765 94.788 161.851 95.2285 163.073C95.669 164.295 95.7811 165.612 95.5535 166.891C95.3259 168.17 94.7667 169.367 93.9317 170.363Z" fill="#8EE2CF"/>
<path d="M53.5331 263.258L39.9361 314C39.5996 315.255 38.9397 316.4 38.0222 317.321C37.1048 318.241 35.9619 318.904 34.7077 319.245C33.4535 319.585 32.132 319.591 30.8751 319.26C29.6182 318.93 28.47 318.276 27.5451 317.363L6.1151 296.2C3.53615 293.654 1.67749 290.471 0.728188 286.974C-0.221113 283.477 -0.22717 279.791 0.710633 276.291C1.64844 272.791 3.49663 269.602 6.06719 267.048C8.63775 264.494 11.8389 262.666 15.3451 261.751L44.4821 254.151C45.7396 253.822 47.0613 253.829 48.3152 254.171C49.5691 254.514 50.7112 255.179 51.6274 256.101C52.5436 257.023 53.2018 258.169 53.5362 259.425C53.8706 260.681 53.8696 262.003 53.5331 263.258Z" fill="#8EE2CF"/>
<path d="M113.756 369H61.228C59.9282 369 58.6511 368.659 57.5244 368.011C56.3977 367.363 55.4609 366.43 54.8077 365.307C54.1544 364.183 53.8076 362.907 53.8018 361.608C53.7961 360.308 54.1317 359.029 54.775 357.9L69.658 331.72C71.4501 328.57 74.0443 325.952 77.1768 324.13C80.3093 322.308 83.8683 321.349 87.492 321.349C91.1157 321.349 94.6747 322.308 97.8072 324.13C100.94 325.952 103.534 328.57 105.326 331.72L120.209 357.9C120.853 359.029 121.188 360.308 121.183 361.608C121.177 362.908 120.831 364.183 120.177 365.307C119.524 366.431 118.587 367.364 117.46 368.012C116.333 368.66 115.056 369 113.756 369Z" fill="#8EE2CF"/>
</svg>
