<svg width="512" height="512" viewBox="0 0 512 512" fill="none" xmlns="http://www.w3.org/2000/svg">
<path d="M109.113 453.332C73.875 453.332 45.047 440.656 25.746 416.676C8.9 395.754 0 367.035 0 333.633C0 328.694 1.96185 323.958 5.45396 320.466C8.94608 316.974 13.6824 315.012 18.621 315.012C23.5596 315.012 28.2959 316.974 31.788 320.466C35.2802 323.958 37.242 328.694 37.242 333.633C37.242 358.449 43.297 379.09 54.758 393.333C66.918 408.438 85.203 416.099 109.117 416.099C114.055 416.099 118.791 418.061 122.283 421.552C125.774 425.044 127.736 429.78 127.736 434.718C127.736 439.656 125.774 444.392 122.283 447.884C118.791 451.375 114.055 453.337 109.117 453.337L109.113 453.332Z" fill="#4E5660"/>
<path d="M331.738 357.348L352.926 464.176H359.25C369.23 464.176 378.941 467.415 386.922 473.406C394.904 479.397 400.726 487.817 403.512 497.4C404.007 499.101 404.1 500.893 403.782 502.635C403.465 504.378 402.746 506.022 401.683 507.439C400.62 508.855 399.241 510.005 397.657 510.797C396.073 511.588 394.326 512 392.555 512H331.3C323.758 512 316.459 509.336 310.69 504.478C304.921 499.62 301.053 492.881 299.769 485.449L279.324 367.07C278.127 360.159 279.703 353.054 283.709 347.296C287.716 341.538 293.83 337.592 300.727 336.313C307.624 335.033 314.747 336.524 320.552 340.462C326.357 344.399 330.376 350.466 331.738 357.347V357.348Z" fill="#D2996F"/>
<path d="M322.539 238.008C328.752 238.008 334.893 236.681 340.551 234.115C346.209 231.55 351.253 227.805 355.346 223.131C359.44 218.458 362.487 212.964 364.285 207.017C366.082 201.07 366.588 194.807 365.769 188.649L353.069 93.1491C351.933 84.5511 347.624 76.6884 340.987 71.1052C334.35 65.522 325.866 62.6217 317.201 62.974C308.535 63.3263 300.314 66.9057 294.153 73.0092C287.991 79.1127 284.334 87.2992 283.9 95.9611L278.986 192.176C278.684 198.083 279.587 203.989 281.64 209.535C283.692 215.082 286.852 220.153 290.925 224.44C294.999 228.727 299.903 232.141 305.338 234.473C310.772 236.806 316.625 238.008 322.539 238.008Z" fill="#4E5660"/>
<path d="M441.156 156.926H347.609C340.667 156.927 333.97 154.358 328.809 149.716C323.648 145.073 320.388 138.684 319.656 131.781L314.894 86.8861C312.319 62.6168 300.702 40.2065 282.354 24.1138C264.006 8.02113 240.272 -0.574308 215.874 0.0376476C191.476 0.649603 168.203 10.4241 150.685 27.4164C133.166 44.4087 122.687 67.3733 121.332 91.7411L115.148 203.104C114.121 221.159 118.494 239.111 127.711 254.67L86.449 414.52C73.707 463.883 110.98 512 161.965 512H212.453C277.668 512 326.238 451.8 312.445 388.059L293.336 299.723H380.012C393.403 299.723 406.662 297.086 419.034 291.961C431.405 286.837 442.646 279.326 452.115 269.857C461.583 260.388 469.094 249.147 474.218 236.776C479.343 224.404 481.98 211.145 481.98 197.754C481.98 192.393 480.925 187.084 478.873 182.13C476.822 177.177 473.815 172.676 470.024 168.885C466.233 165.094 461.733 162.086 456.779 160.034C451.826 157.982 446.517 156.926 441.156 156.926Z" fill="#E1B89A"/>
<path d="M186.273 5.41804C168.12 11.7641 152.259 23.3548 140.698 38.7219C129.138 54.0891 122.398 72.5415 121.332 91.742L115.152 203.105C114.121 221.16 118.494 239.112 127.711 254.671L86.449 414.52C73.707 463.883 110.98 512 161.965 512H212.453C218.9 512 225.333 511.398 231.668 510.2C150.468 424.286 152.184 116.454 186.273 5.41504V5.41804Z" fill="#D2996F"/>
<path d="M208.406 151.188C208.406 135.942 192.886 123.583 173.738 123.583C154.59 123.583 139.074 135.942 139.074 151.188C139.074 166.434 154.594 178.793 173.738 178.793C192.882 178.793 208.406 166.434 208.406 151.188Z" fill="white"/>
<path d="M322.543 151.188C322.543 135.942 307.023 123.583 287.879 123.583C268.735 123.583 253.211 135.942 253.211 151.188C253.211 166.434 268.731 178.793 287.879 178.793C307.027 178.793 322.543 166.434 322.543 151.188Z" fill="white"/>
<path d="M193.941 131.148C191.952 131.148 190.044 130.358 188.638 128.951C187.231 127.545 186.441 125.637 186.441 123.648V111.406C186.441 109.417 187.231 107.509 188.638 106.103C190.044 104.696 191.952 103.906 193.941 103.906C195.93 103.906 197.838 104.696 199.244 106.103C200.651 107.509 201.441 109.417 201.441 111.406V123.648C201.441 125.637 200.651 127.545 199.244 128.951C197.838 130.358 195.93 131.148 193.941 131.148Z" fill="#4E5660"/>
<path d="M267.676 131.148C265.687 131.148 263.779 130.358 262.373 128.951C260.966 127.545 260.176 125.637 260.176 123.648V111.406C260.176 109.417 260.966 107.509 262.373 106.103C263.779 104.696 265.687 103.906 267.676 103.906C269.665 103.906 271.573 104.696 272.979 106.103C274.386 107.509 275.176 109.417 275.176 111.406V123.648C275.176 125.637 274.386 127.545 272.979 128.951C271.573 130.358 269.665 131.148 267.676 131.148Z" fill="#4E5660"/>
<path d="M405.238 276.555C399.463 276.553 393.756 275.314 388.501 272.92C383.246 270.527 378.565 267.035 374.773 262.68C373.466 261.18 372.809 259.223 372.945 257.238C373.081 255.254 374 253.405 375.5 252.098C377 250.791 378.957 250.134 380.942 250.27C382.926 250.406 384.775 251.325 386.082 252.825C388.465 255.566 391.408 257.764 394.712 259.27C398.017 260.776 401.607 261.556 405.239 261.556C408.87 261.556 412.46 260.776 415.765 259.27C419.069 257.764 422.012 255.566 424.395 252.825C425.713 251.368 427.551 250.486 429.513 250.369C431.475 250.253 433.404 250.911 434.885 252.203C436.367 253.494 437.282 255.316 437.434 257.275C437.587 259.234 436.964 261.175 435.7 262.68C431.908 267.035 427.228 270.526 421.973 272.92C416.719 275.313 411.012 276.553 405.238 276.555Z" fill="#4E5660"/>
<path d="M430.285 172.488C413.865 168.191 396.615 168.191 380.195 172.488C373.394 174.269 367.469 178.452 363.515 184.265C362.262 186.108 361.428 188.204 361.074 190.405C360.719 192.606 360.852 194.857 361.463 197.001C362.074 199.145 363.148 201.128 364.61 202.811C366.071 204.494 367.884 205.836 369.921 206.742L393.98 217.442C397.524 219.018 401.359 219.833 405.238 219.833C409.117 219.833 412.952 219.018 416.496 217.442L440.555 206.742C442.592 205.836 444.405 204.495 445.866 202.812C447.328 201.128 448.402 199.145 449.013 197.001C449.624 194.858 449.757 192.606 449.402 190.405C449.048 188.204 448.214 186.108 446.961 184.265C443.008 178.453 437.084 174.27 430.285 172.488Z" fill="#4E5660"/>
<path d="M116.145 238.008C109.932 238.008 103.791 236.681 98.1333 234.115C92.4753 231.55 87.4307 227.805 83.3375 223.131C79.2443 218.458 76.1969 212.963 74.3994 207.017C72.6019 201.07 72.0958 194.807 72.9149 188.649L85.6149 93.149C86.7596 84.558 91.0725 76.7045 97.7078 71.1288C104.343 65.5531 112.822 62.6574 121.482 63.0096C130.142 63.3618 138.357 66.9364 144.518 73.0326C150.679 79.1287 154.34 87.3064 154.783 95.962L159.697 192.177C159.998 198.083 159.094 203.989 157.041 209.535C154.988 215.081 151.829 220.151 147.755 224.438C143.682 228.725 138.779 232.138 133.345 234.471C127.91 236.804 122.059 238.007 116.145 238.008Z" fill="#4E5660"/>
<path d="M114.059 307.555L86.449 414.52C81.4947 433.454 83.8995 453.562 93.179 470.793C97.5751 470.867 101.97 470.595 106.324 469.981C170.1 460.871 181.941 327.781 114.059 307.555Z" fill="#4E5660"/>
<path d="M131.934 418.156L144.454 460.644H161.677C170.526 460.642 179.121 463.598 186.097 469.043C193.073 474.487 198.029 482.107 200.177 490.691L202.868 501.445C203.182 502.698 203.206 504.005 202.938 505.268C202.67 506.532 202.118 507.717 201.323 508.735C200.529 509.753 199.512 510.576 198.351 511.141C197.191 511.707 195.916 512.001 194.625 512H81.488C73.5151 512 65.8687 508.833 60.231 503.195C54.5933 497.557 51.426 489.911 51.426 481.938V433.738C51.4258 422.238 55.9937 411.209 64.125 403.077C72.2564 394.945 83.2851 390.376 94.785 390.375C103.147 390.374 111.284 393.079 117.98 398.087C124.676 403.094 129.572 410.135 131.934 418.156Z" fill="#E1B89A"/>
<path d="M252.77 357.348L273.958 464.176H280.278C290.258 464.176 299.969 467.415 307.951 473.406C315.933 479.397 321.755 487.817 324.543 497.4C325.037 499.101 325.13 500.893 324.812 502.635C324.494 504.377 323.775 506.021 322.712 507.438C321.649 508.854 320.271 510.004 318.687 510.796C317.103 511.587 315.357 512 313.586 512H252.324C244.782 512 237.483 509.336 231.714 504.478C225.945 499.62 222.077 492.881 220.793 485.449L200.352 367.07C199.156 360.158 200.732 353.054 204.739 347.296C208.746 341.539 214.861 337.593 221.758 336.313C228.655 335.034 235.778 336.525 241.583 340.462C247.388 344.399 251.408 350.466 252.77 357.347V357.348Z" fill="#D2996F"/>
</svg>
