<svg width="512" height="512" viewBox="0 0 512 512" fill="none" xmlns="http://www.w3.org/2000/svg">
<path d="M226.71 220.531C177.284 171.1 50.8857 161.324 6.75665 242.438C-31.3134 312.411 102.757 286.977 128.597 352.555L226.71 220.531Z" fill="#BAE7FF"/>
<path d="M47.9336 263.73C45.9445 263.73 44.0368 262.94 42.6303 261.533C41.2238 260.127 40.4336 258.219 40.4336 256.23V243.887C40.4336 241.898 41.2238 239.99 42.6303 238.584C44.0368 237.177 45.9445 236.387 47.9336 236.387C49.9227 236.387 51.8304 237.177 53.2369 238.584C54.6434 239.99 55.4336 241.898 55.4336 243.887V256.23C55.4336 258.219 54.6434 260.127 53.2369 261.533C51.8304 262.94 49.9227 263.73 47.9336 263.73Z" fill="#8CD6FE"/>
<path d="M416.869 32.32L406.998 42.188C400.478 48.7096 392.203 53.1952 383.179 55.0988C374.156 57.0024 364.773 56.242 356.174 52.91C336.65 45.3452 315.347 43.6184 294.859 47.9397C274.371 52.261 255.581 62.4442 240.774 77.25L142.204 175.82C69.0204 249.004 69.0204 367.664 142.204 440.847C215.388 514.03 334.048 514.035 407.235 440.847L412.165 435.917C413.752 434.336 415.752 433.234 417.937 432.74C420.121 432.246 422.401 432.379 424.513 433.124C444.061 439.98 465.453 439.368 484.576 431.405L499.408 425.221C502.606 423.889 505.387 421.725 507.464 418.953C509.54 416.181 510.836 412.903 511.216 409.461C511.595 406.018 511.045 402.537 509.623 399.379C508.2 396.221 505.957 393.503 503.127 391.506L478.869 374.389C472.899 370.175 466.022 367.424 458.792 366.359C451.563 365.295 444.184 365.946 437.252 368.26C436.482 368.527 435.651 368.572 434.856 368.39C434.061 368.207 433.334 367.805 432.757 367.228C432.18 366.652 431.777 365.924 431.593 365.129C431.41 364.334 431.455 363.504 431.721 362.733C434.036 355.801 434.687 348.422 433.622 341.191C432.558 333.961 429.807 327.083 425.592 321.112L408.475 296.854C406.479 294.024 403.76 291.782 400.602 290.359C397.444 288.937 393.963 288.387 390.521 288.767C387.078 289.147 383.801 290.442 381.029 292.518C378.257 294.595 376.092 297.376 374.76 300.573L368.58 315.409C360.614 334.53 360.002 355.922 366.861 375.468C367.607 377.58 367.74 379.86 367.246 382.045C366.751 384.229 365.65 386.23 364.068 387.816L342.826 409.058C333.198 418.635 320.165 424.003 306.585 423.985C293.005 423.967 279.986 418.564 270.384 408.962C260.781 399.359 255.378 386.34 255.36 372.76C255.342 359.18 260.71 346.147 270.287 336.519L495.678 111.129C506.129 100.678 512 86.5041 512 71.7245C512 56.945 506.129 42.7708 495.678 32.32C485.228 21.8693 471.053 15.9982 456.274 15.9982C441.494 15.9982 427.32 21.8693 416.869 32.32Z" fill="#BAE7FF"/>
<path d="M416.869 32.32L406.998 42.188C400.478 48.7096 392.203 53.1952 383.179 55.0988C374.156 57.0024 364.773 56.242 356.174 52.91C336.65 45.3452 315.347 43.6184 294.859 47.9397C274.371 52.261 255.581 62.4442 240.774 77.25L142.204 175.82C69.0204 249.004 69.0204 367.664 142.204 440.847C215.388 514.03 334.048 514.035 407.235 440.847L412.165 435.917C413.752 434.336 415.752 433.234 417.937 432.74C420.121 432.246 422.401 432.379 424.513 433.124C444.061 439.98 465.453 439.368 484.576 431.405L499.408 425.221C502.606 423.889 505.387 421.725 507.464 418.953C509.54 416.181 510.836 412.903 511.216 409.461C511.595 406.018 511.045 402.537 509.623 399.379C508.2 396.221 505.957 393.503 503.127 391.506L478.869 374.389C472.899 370.175 466.022 367.424 458.792 366.359C451.563 365.295 444.184 365.946 437.252 368.26C436.482 368.527 435.651 368.572 434.856 368.39C434.061 368.207 433.334 367.805 432.757 367.228C432.18 366.652 431.777 365.924 431.593 365.129C431.41 364.334 431.455 363.504 431.721 362.733C434.036 355.801 434.687 348.422 433.622 341.191C432.558 333.961 429.807 327.083 425.592 321.112L408.475 296.854C406.479 294.024 403.76 291.782 400.602 290.359C397.444 288.937 393.963 288.387 390.521 288.767C387.078 289.147 383.801 290.442 381.029 292.518C378.257 294.595 376.092 297.376 374.76 300.573L368.58 315.409C360.614 334.53 360.002 355.922 366.861 375.468C367.607 377.58 367.74 379.86 367.246 382.045C366.751 384.229 365.65 386.23 364.068 387.816L342.826 409.058C333.198 418.635 320.165 424.003 306.585 423.985C293.005 423.967 279.986 418.564 270.384 408.962C260.781 399.359 255.378 386.34 255.36 372.76C255.342 359.18 260.71 346.147 270.287 336.519L495.678 111.129C506.129 100.678 512 86.5041 512 71.7245C512 56.945 506.129 42.7708 495.678 32.32C485.228 21.8693 471.053 15.9982 456.274 15.9982C441.494 15.9982 427.32 21.8693 416.869 32.32Z" fill="#BAE7FF"/>
<path d="M416.869 32.32L406.998 42.188C400.478 48.7096 392.203 53.1952 383.179 55.0988C374.156 57.0024 364.773 56.242 356.174 52.91C336.65 45.3452 315.347 43.6184 294.859 47.9397C274.371 52.261 255.581 62.4442 240.774 77.25L142.204 175.82C69.0204 249.004 69.0204 367.664 142.204 440.847C215.388 514.03 334.048 514.035 407.235 440.847L412.165 435.917C413.752 434.336 415.752 433.234 417.937 432.74C420.121 432.246 422.401 432.379 424.513 433.124C444.061 439.98 465.453 439.368 484.576 431.405L499.408 425.221C502.606 423.889 505.387 421.725 507.464 418.953C509.54 416.181 510.836 412.903 511.216 409.461C511.595 406.018 511.045 402.537 509.623 399.379C508.2 396.221 505.957 393.503 503.127 391.506L478.869 374.389C472.899 370.175 466.022 367.424 458.792 366.359C451.563 365.295 444.184 365.946 437.252 368.26C436.482 368.527 435.651 368.572 434.856 368.39C434.061 368.207 433.334 367.805 432.757 367.228C432.18 366.652 431.777 365.924 431.593 365.129C431.41 364.334 431.455 363.504 431.721 362.733C434.036 355.801 434.687 348.422 433.622 341.191C432.558 333.961 429.807 327.083 425.592 321.112L408.475 296.854C406.479 294.024 403.76 291.782 400.602 290.359C397.444 288.937 393.963 288.387 390.521 288.767C387.078 289.147 383.801 290.442 381.029 292.518C378.257 294.595 376.092 297.376 374.76 300.573L368.58 315.409C360.614 334.53 360.002 355.922 366.861 375.468C367.607 377.58 367.74 379.86 367.246 382.045C366.751 384.229 365.65 386.23 364.068 387.816L342.826 409.058C333.198 418.635 320.165 424.003 306.585 423.985C293.005 423.967 279.986 418.564 270.384 408.962C260.781 399.359 255.378 386.34 255.36 372.76C255.342 359.18 260.71 346.147 270.287 336.519L495.678 111.129C506.129 100.678 512 86.5041 512 71.7245C512 56.945 506.129 42.7708 495.678 32.32C485.228 21.8693 471.053 15.9982 456.274 15.9982C441.494 15.9982 427.32 21.8693 416.869 32.32Z" fill="#BAE7FF"/>
<path d="M270.287 336.52L311.748 295.059C258.103 292.184 195.307 244.459 156.848 161.176L142.205 175.82C69.0177 249.004 69.0177 367.66 142.205 440.847C215.392 514.034 334.049 514.035 407.236 440.847L412.166 435.913C413.752 434.331 415.752 433.23 417.937 432.736C420.122 432.243 422.402 432.377 424.514 433.124C444.061 439.98 465.453 439.368 484.577 431.405L499.409 425.221C502.606 423.889 505.387 421.725 507.464 418.953C509.541 416.181 510.836 412.903 511.216 409.461C511.596 406.018 511.046 402.537 509.623 399.379C508.201 396.221 505.958 393.503 503.128 391.506L478.87 374.389C472.9 370.175 466.022 367.424 458.792 366.359C451.563 365.295 444.184 365.946 437.253 368.26C436.482 368.527 435.651 368.572 434.855 368.389C434.06 368.207 433.332 367.804 432.755 367.227C432.178 366.65 431.775 365.922 431.592 365.126C431.41 364.331 431.454 363.5 431.722 362.729C434.036 355.798 434.687 348.419 433.622 341.189C432.558 333.96 429.807 327.082 425.593 321.112L408.476 296.854C406.479 294.024 403.761 291.78 400.603 290.358C397.445 288.935 393.963 288.385 390.521 288.765C387.078 289.144 383.8 290.44 381.028 292.517C378.257 294.594 376.092 297.376 374.761 300.573L368.581 315.405C360.614 334.528 360.002 355.921 366.862 375.468C367.607 377.58 367.74 379.86 367.246 382.045C366.752 384.229 365.65 386.23 364.069 387.816L342.827 409.058C333.199 418.635 320.166 424.003 306.585 423.985C293.005 423.967 279.987 418.564 270.384 408.962C260.781 399.359 255.379 386.34 255.361 372.76C255.343 359.18 260.711 346.147 270.288 336.519L270.287 336.52Z" fill="#8CD6FE"/>
<path d="M221.838 447.582C221.838 449.157 221.371 450.696 220.496 452.005C219.622 453.314 218.378 454.335 216.924 454.937C215.469 455.54 213.868 455.697 212.324 455.39C210.78 455.083 209.361 454.325 208.248 453.211C207.134 452.098 206.376 450.679 206.069 449.135C205.762 447.591 205.919 445.99 206.522 444.536C207.125 443.081 208.145 441.838 209.454 440.963C210.763 440.088 212.302 439.621 213.877 439.621C214.923 439.621 215.958 439.827 216.924 440.227C217.89 440.627 218.768 441.213 219.507 441.952C220.246 442.692 220.833 443.569 221.233 444.535C221.633 445.501 221.838 446.537 221.838 447.582Z" fill="#BAE7FF"/>
<path d="M205.252 148.395C205.252 149.97 204.785 151.509 203.91 152.818C203.036 154.127 201.792 155.148 200.338 155.75C198.883 156.353 197.282 156.51 195.738 156.203C194.194 155.896 192.775 155.138 191.662 154.024C190.548 152.911 189.79 151.492 189.483 149.948C189.176 148.404 189.334 146.803 189.936 145.349C190.539 143.894 191.559 142.651 192.868 141.776C194.177 140.901 195.717 140.434 197.291 140.434C198.337 140.434 199.372 140.64 200.338 141.04C201.304 141.44 202.182 142.026 202.921 142.765C203.66 143.505 204.247 144.382 204.647 145.348C205.047 146.314 205.252 147.35 205.252 148.395Z" fill="#8CD6FE"/>
<path d="M183.998 436.586C183.998 438.16 183.531 439.698 182.656 441.007C181.781 442.316 180.538 443.335 179.084 443.938C177.63 444.54 176.03 444.697 174.486 444.39C172.942 444.083 171.524 443.325 170.411 442.212C169.298 441.099 168.54 439.681 168.233 438.137C167.926 436.593 168.083 434.993 168.686 433.539C169.288 432.085 170.308 430.842 171.616 429.967C172.925 429.092 174.463 428.625 176.037 428.625C177.083 428.625 178.118 428.83 179.084 429.23C180.05 429.63 180.928 430.217 181.667 430.956C182.406 431.695 182.993 432.573 183.393 433.539C183.793 434.505 183.998 435.54 183.998 436.586Z" fill="#BAE7FF"/>
<path d="M184.646 314.691C184.646 345.132 207.056 406.812 234.701 406.812C262.346 406.812 284.752 345.132 284.752 314.691C284.752 284.25 262.342 259.574 234.701 259.574C207.06 259.574 184.646 284.25 184.646 314.691Z" fill="#BAE7FF"/>
<path d="M450.131 104.063C449.483 104.063 448.831 104.04 448.178 103.997C446.193 103.862 444.344 102.944 443.036 101.445C441.728 99.9457 441.07 97.9886 441.205 96.004C441.34 94.0194 442.258 92.1698 443.757 90.8621C445.256 89.5544 447.213 88.8957 449.198 89.031C451.112 89.1661 453.034 88.8886 454.832 88.2172C456.63 87.5458 458.263 86.4963 459.621 85.1395C460.978 83.7827 462.029 82.1503 462.701 80.3525C463.373 78.5548 463.652 76.6337 463.518 74.719C463.381 72.7345 464.038 70.777 465.345 69.2771C466.651 67.7772 468.5 66.8577 470.485 66.721C472.469 66.5843 474.427 67.2415 475.927 68.5481C477.427 69.8546 478.346 71.7035 478.483 73.688C478.752 77.5759 478.219 81.4777 476.916 85.1507C475.613 88.8237 473.569 92.1894 470.909 95.0384C468.25 97.8874 465.033 100.159 461.459 101.711C457.884 103.264 454.028 104.064 450.131 104.063Z" fill="#4E5660"/>
<path d="M281.549 162.031C274.201 154.687 260.768 156.207 251.549 165.431C242.33 174.655 240.803 188.087 248.149 195.431C255.495 202.775 268.93 201.255 278.149 192.031C287.368 182.807 288.893 169.379 281.549 162.031Z" fill="white"/>
<path d="M338.679 104.9C346.027 112.248 359.46 110.724 368.679 101.5C377.898 92.2761 379.425 78.8441 372.079 71.5001C364.733 64.1561 351.298 65.6761 342.079 74.9001C332.86 84.1241 331.335 97.5591 338.679 104.9Z" fill="white"/>
<path d="M252.159 169.977C251.174 169.977 250.199 169.783 249.289 169.405C248.38 169.028 247.554 168.474 246.859 167.777C243.399 164.251 241.472 159.501 241.496 154.561C241.52 149.621 243.494 144.891 246.987 141.398C250.481 137.906 255.212 135.934 260.152 135.911C265.092 135.888 269.841 137.817 273.367 141.277C274.733 142.692 275.489 144.586 275.472 146.553C275.454 148.519 274.666 150.4 273.275 151.791C271.885 153.181 270.004 153.97 268.037 153.987C266.071 154.004 264.176 153.248 262.762 151.882C262.057 151.194 261.109 150.812 260.125 150.818C259.14 150.824 258.197 151.218 257.501 151.914C256.805 152.611 256.411 153.553 256.405 154.538C256.399 155.523 256.781 156.47 257.469 157.175C258.516 158.224 259.229 159.56 259.518 161.014C259.807 162.468 259.658 163.975 259.091 165.344C258.524 166.714 257.564 167.885 256.332 168.709C255.1 169.533 253.651 169.974 252.169 169.975L252.159 169.977Z" fill="#4E5660"/>
<path d="M323.221 98.9141C322.237 98.9143 321.262 98.7201 320.352 98.3425C319.443 97.965 318.617 97.4116 317.921 96.7141C314.413 93.1974 312.444 88.432 312.447 83.4647C312.45 78.4974 314.425 73.7344 317.937 70.2219C321.45 66.7095 326.213 64.7349 331.18 64.7319C336.147 64.729 340.913 66.6978 344.429 70.2061C345.126 70.9028 345.679 71.73 346.056 72.6404C346.434 73.5508 346.628 74.5265 346.628 75.512C346.628 76.4975 346.434 77.4733 346.057 78.3838C345.68 79.2943 345.128 80.1216 344.431 80.8186C343.734 81.5155 342.907 82.0684 341.997 82.4456C341.086 82.8229 340.11 83.0171 339.125 83.0172C338.139 83.0174 337.164 82.8234 336.253 82.4464C335.343 82.0694 334.515 81.5168 333.818 80.8201C333.471 80.4725 333.059 80.1968 332.605 80.0086C332.151 79.8204 331.665 79.7234 331.173 79.7233C330.682 79.7231 330.195 79.8197 329.741 80.0075C329.287 80.1954 328.875 80.4708 328.527 80.8181C328.18 81.1653 327.904 81.5777 327.716 82.0315C327.528 82.4854 327.431 82.9718 327.431 83.4632C327.43 83.9545 327.527 84.441 327.715 84.895C327.903 85.349 328.178 85.7615 328.525 86.1091C329.573 87.1579 330.286 88.4937 330.575 89.9477C330.864 91.4017 330.715 92.9087 330.148 94.2783C329.581 95.6479 328.621 96.8188 327.389 97.643C326.157 98.4672 324.708 98.9078 323.225 98.9091L323.221 98.9141Z" fill="#4E5660"/>
</svg>
