<svg width="526" height="512" viewBox="0 0 526 512" fill="none" xmlns="http://www.w3.org/2000/svg">
<path d="M115.45 473.526C113.648 471.508 112.26 469.155 111.367 466.6C110.474 464.046 110.093 461.341 110.246 458.64C110.399 455.938 111.082 453.293 112.258 450.856C113.433 448.419 115.077 446.237 117.095 444.435C130.003 432.909 142.26 420.163 150.375 391.182C151.105 388.576 152.34 386.14 154.011 384.012C155.682 381.884 157.756 380.106 160.115 378.78C162.473 377.453 165.069 376.604 167.756 376.281C170.442 375.958 173.166 376.167 175.771 376.897C178.377 377.626 180.813 378.862 182.941 380.533C185.069 382.204 186.847 384.278 188.173 386.636C189.5 388.995 190.349 391.591 190.672 394.277C190.995 396.964 190.786 399.687 190.056 402.293C179.479 440.068 161.93 459.644 144.541 475.171C142.523 476.973 140.17 478.361 137.616 479.254C135.061 480.147 132.356 480.527 129.655 480.375C126.953 480.222 124.308 479.538 121.871 478.363C119.434 477.188 117.252 475.544 115.45 473.526Z" fill="#EAB65F"/>
<path d="M175.771 376.897C173.166 376.166 170.441 375.956 167.754 376.279C165.067 376.601 162.47 377.45 160.111 378.777C157.753 380.103 155.678 381.882 154.007 384.01C152.336 386.139 151.1 388.576 150.371 391.182C144.23 413.115 135.715 425.746 126.343 435.59C139.694 441.816 153.714 446.494 168.128 449.532C176.707 437.562 184.383 422.544 190.053 402.293C190.783 399.687 190.993 396.963 190.67 394.276C190.347 391.589 189.498 388.993 188.171 386.634C186.845 384.275 185.066 382.201 182.938 380.53C180.81 378.858 178.373 377.623 175.767 376.893L175.771 376.897Z" fill="#EB9C32"/>
<path d="M216.883 478.961C214.844 477.183 213.174 475.02 211.971 472.597C210.767 470.174 210.053 467.537 209.868 464.837C209.684 462.138 210.033 459.428 210.896 456.864C211.759 454.299 213.118 451.93 214.897 449.891C221.766 442.015 244.634 413.891 250.487 382.642C250.985 379.983 252.003 377.448 253.48 375.181C254.958 372.915 256.868 370.962 259.101 369.434C261.333 367.906 263.845 366.833 266.493 366.275C269.14 365.718 271.871 365.687 274.531 366.186C277.19 366.684 279.725 367.701 281.991 369.179C284.258 370.657 286.21 372.566 287.739 374.799C289.267 377.032 290.34 379.543 290.898 382.191C291.455 384.838 291.485 387.57 290.987 390.229C283.427 430.582 256.972 464.336 245.949 476.974C244.171 479.013 242.009 480.683 239.586 481.886C237.162 483.09 234.526 483.805 231.826 483.989C229.127 484.174 226.418 483.825 223.853 482.962C221.289 482.099 218.919 480.74 216.88 478.961H216.883Z" fill="#EAB65F"/>
<path d="M212.263 453.736C231.799 453.415 251.175 450.151 269.737 444.052C278.686 428.979 287.207 410.432 290.991 390.23C291.997 384.859 290.829 379.309 287.742 374.8C284.656 370.291 279.905 367.193 274.535 366.186C269.164 365.18 263.614 366.349 259.105 369.435C254.596 372.521 251.497 377.272 250.491 382.643C244.635 413.888 221.767 442.018 214.9 449.892C213.878 451.069 212.993 452.359 212.263 453.736Z" fill="#EB9C32"/>
<path d="M486.217 145.064C489.603 145.064 492.956 145.731 496.084 147.026C499.212 148.322 502.055 150.221 504.449 152.615C506.843 155.01 508.742 157.852 510.038 160.98C511.333 164.108 512 167.461 512 170.847C512 189.447 504.611 207.284 491.46 220.436C478.308 233.588 460.47 240.977 441.87 240.977H429.1C435.938 240.977 442.496 243.693 447.331 248.529C452.167 253.364 454.883 259.922 454.883 266.76C454.883 285.36 447.494 303.197 434.342 316.349C421.191 329.501 403.353 336.89 384.753 336.89H359.753C342.473 336.889 325.901 330.023 313.683 317.804C301.464 305.585 294.6 289.012 294.6 271.732C294.6 238.138 307.945 205.92 331.7 182.165C355.454 158.41 387.672 145.064 421.266 145.064H486.217Z" fill="#F6E3A3"/>
<path d="M391.057 161.582C404.121 161.582 414.712 136.225 414.712 104.946C414.712 73.6667 404.121 48.3099 391.057 48.3099C377.993 48.3099 367.402 73.6667 367.402 104.946C367.402 136.225 377.993 161.582 391.057 161.582Z" fill="#6FCE91"/>
<path d="M296.548 64.823C275.648 64.8241 255.394 72.0665 239.231 85.3179C223.069 98.5694 211.997 117.011 207.9 137.506L189.1 231.535C187.584 239.12 183.487 245.945 177.506 250.85C171.525 255.754 164.029 258.435 156.294 258.435H27.1411C3.00908 258.435 -9.07592 287.611 7.98808 304.675L85.3091 381.996C101.492 398.221 120.717 411.093 141.883 419.876C163.049 428.658 185.739 433.178 208.655 433.177C302.781 433.29 380.674 357.925 383.53 263.842C383.918 251.304 382.961 238.76 380.678 226.426C378.718 215.757 378.814 204.811 380.959 194.178L385.201 172.958C396.385 117.013 353.6 64.818 296.548 64.818V64.823Z" fill="#FCF2D0"/>
<path d="M48.0999 145.064C41.2618 145.064 34.7038 147.78 29.8686 152.616C25.0333 157.451 22.3169 164.009 22.3169 170.847C22.3169 189.447 29.7056 207.284 42.8575 220.436C49.3697 226.949 57.1007 232.114 65.6093 235.639C74.1179 239.163 83.2373 240.977 92.4469 240.977H105.214C98.3758 240.977 91.8178 243.693 86.9826 248.529C82.1473 253.364 79.4309 259.922 79.4309 266.76C79.4309 285.36 86.8196 303.197 99.9715 316.349C113.123 329.501 130.961 336.89 149.561 336.89H174.561C183.118 336.89 191.59 335.205 199.496 331.93C207.401 328.656 214.584 323.856 220.635 317.806C226.685 311.755 231.485 304.572 234.759 296.667C238.034 288.762 239.719 280.289 239.719 271.732C239.719 238.138 226.374 205.92 202.619 182.165C178.865 158.41 146.647 145.064 113.053 145.064H48.0999Z" fill="#F6E3A3"/>
<path d="M485.262 121.706C507.38 99.5889 517.821 74.1705 508.583 64.9327C499.345 55.6948 473.927 66.1357 451.809 88.2531C429.692 110.37 419.251 135.789 428.489 145.027C437.727 154.265 463.145 143.824 485.262 121.706Z" fill="#6FCE91"/>
<path d="M372.9 228.874C368.89 226.576 365.957 222.779 364.747 218.318C363.536 213.858 364.147 209.099 366.445 205.089C367.268 203.653 368.183 202.074 369.19 200.352C381.953 178.433 408.51 132.825 433.451 40.869C434.661 36.4082 437.594 32.6108 441.604 30.3121C443.589 29.174 445.779 28.438 448.049 28.1463C450.319 27.8546 452.624 28.0128 454.833 28.612C457.042 29.2111 459.111 30.2395 460.922 31.6383C462.734 33.0371 464.252 34.779 465.39 36.7645C466.528 38.75 467.264 40.9402 467.556 43.2101C467.847 45.4801 467.689 47.7852 467.09 49.994C440.944 146.394 412.824 194.682 399.31 217.894C398.35 219.543 397.475 221.053 396.685 222.423C394.387 226.433 390.59 229.365 386.129 230.576C381.669 231.786 376.91 231.175 372.9 228.877V228.874Z" fill="#8EE2CF"/>
<path d="M288.657 189.626C304.169 189.626 316.743 179.612 316.743 167.26C316.743 154.908 304.169 144.894 288.657 144.894C273.146 144.894 260.571 154.908 260.571 167.26C260.571 179.612 273.146 189.626 288.657 189.626Z" fill="#EDA1AB"/>
<path d="M382.487 172.938H360.255C358.038 172.938 355.911 172.057 354.343 170.489C352.775 168.921 351.894 166.795 351.894 164.577V139.03C351.891 138.027 352.11 137.035 352.535 136.126C352.959 135.217 353.58 134.413 354.351 133.772C355.123 133.13 356.027 132.667 356.998 132.415C357.969 132.164 358.984 132.13 359.97 132.316C377.957 135.848 386.486 150.957 390.343 161.716C390.801 162.979 390.948 164.334 390.772 165.666C390.596 166.998 390.102 168.268 389.331 169.369C388.561 170.469 387.537 171.368 386.345 171.99C385.154 172.611 383.831 172.936 382.487 172.938Z" fill="#EAB65F"/>
<path d="M309.845 152.316C307.856 152.316 305.949 151.526 304.542 150.119C303.135 148.713 302.345 146.805 302.345 144.816C302.345 142.882 301.577 141.027 300.209 139.659C298.842 138.291 296.986 137.523 295.052 137.523C293.118 137.523 291.263 138.291 289.895 139.659C288.528 141.027 287.759 142.882 287.759 144.816C287.759 146.805 286.969 148.713 285.563 150.119C284.156 151.526 282.248 152.316 280.259 152.316C278.27 152.316 276.363 151.526 274.956 150.119C273.549 148.713 272.759 146.805 272.759 144.816C272.759 138.903 275.108 133.233 279.289 129.052C283.47 124.872 289.14 122.523 295.052 122.523C300.965 122.523 306.635 124.872 310.816 129.052C314.997 133.233 317.345 138.903 317.345 144.816C317.345 146.805 316.555 148.713 315.149 150.119C313.742 151.526 311.834 152.316 309.845 152.316Z" fill="#4E5660"/>
</svg>
