<svg width="512" height="512" viewBox="0 0 512 512" fill="none" xmlns="http://www.w3.org/2000/svg">
<path d="M231.617 494.668H176.031C172.375 494.667 168.787 493.681 165.644 491.815C162.5 489.949 159.917 487.271 158.166 484.062C156.415 480.853 155.559 477.232 155.69 473.579C155.821 469.926 156.933 466.375 158.91 463.3C159.11 462.991 181.226 427.8 181.226 390.863C181.226 385.464 183.37 380.286 187.188 376.468C191.006 372.65 196.184 370.505 201.583 370.505C206.982 370.505 212.16 372.65 215.978 376.468C219.796 380.286 221.941 385.464 221.941 390.863C221.941 414.547 215.523 436.926 208.741 453.957H231.612C237.011 453.957 242.189 456.102 246.007 459.919C249.824 463.737 251.969 468.915 251.969 474.314C251.969 479.714 249.824 484.892 246.007 488.709C242.189 492.527 237.011 494.672 231.612 494.672L231.617 494.668Z" fill="#EEA849"/>
<path d="M330.508 477.2C326.318 477.2 322.231 475.907 318.803 473.498C315.375 471.089 312.775 467.681 311.356 463.739C308.047 454.539 279.926 414.039 263.321 397.439C259.548 393.612 257.441 388.449 257.46 383.076C257.479 377.702 259.621 372.554 263.421 368.754C267.22 364.954 272.368 362.811 277.742 362.791C283.115 362.772 288.279 364.878 292.106 368.65C303.954 380.494 325.563 408.35 339.006 429.841L362.281 418.2C367.107 415.811 372.683 415.432 377.788 417.146C382.893 418.859 387.112 422.526 389.52 427.342C391.928 432.159 392.329 437.733 390.636 442.845C388.944 447.957 385.294 452.19 380.488 454.618L339.613 475.056C336.785 476.468 333.668 477.202 330.508 477.2Z" fill="#E9901B"/>
<path d="M292.164 401.422H153.973C122.384 401.422 91.7694 390.482 67.3346 370.462C42.8999 350.442 26.1528 322.577 19.9406 291.605L0.54664 194.938C-3.81236 173.219 18.7306 155.993 38.5466 165.911C69.4466 181.373 104.053 187.893 138.461 184.735C177.137 181.184 215.914 179.408 254.793 179.407H292.168C321.609 179.407 349.844 191.102 370.662 211.92C391.48 232.738 403.176 260.974 403.176 290.415C403.176 319.856 391.48 348.091 370.662 368.909C349.844 389.727 321.609 401.423 292.168 401.423L292.164 401.422Z" fill="#F7EF87"/>
<path d="M140.836 246.828C122.922 246.828 102.836 257.68 102.836 275.59C102.836 281.52 105.926 291.981 112.793 295.516C100.493 300.121 86.1477 311.954 86.1477 325.868C86.1477 342.911 104.859 356.852 121.562 358.168L121.539 358.297C144.144 358.297 266.973 371.397 266.973 302.563C266.973 233.729 163.441 246.828 140.836 246.828Z" fill="#EEA849"/>
<path d="M413.785 248.191C367.756 257.683 320.274 257.683 274.246 248.191C246.504 242.469 221.586 227.354 203.694 205.396C185.802 183.437 176.032 155.979 176.032 127.654C176.032 99.329 185.802 71.8709 203.694 49.9123C221.586 27.9536 246.504 12.8385 274.246 7.11694C320.275 -2.37134 367.755 -2.37134 413.785 7.11694C441.526 12.8385 466.444 27.9536 484.336 49.9123C502.228 71.8709 511.998 99.329 511.998 127.654C511.998 155.979 502.228 183.437 484.336 205.396C466.444 227.354 441.526 242.469 413.785 248.191Z" fill="#F7EF87"/>
<path d="M300.262 2.78101C291.554 3.89034 282.882 5.33567 274.246 7.11701C246.504 12.8385 221.586 27.9537 203.694 49.9123C185.802 71.871 176.032 99.329 176.032 127.654C176.032 155.979 185.802 183.437 203.694 205.396C221.586 227.354 246.504 242.469 274.246 248.191C320.274 257.683 367.756 257.683 413.785 248.191C267.957 228.973 249.914 66.316 300.262 2.78101Z" fill="#EFD176"/>
<path d="M273.871 144.875C273.871 126.836 255.504 112.211 232.851 112.211C210.198 112.211 191.835 126.836 191.835 144.875C191.835 162.914 210.198 177.539 232.851 177.539C255.504 177.539 273.871 162.914 273.871 144.875Z" fill="#EDA1AB"/>
<path d="M496.2 144.875C496.2 126.836 477.837 112.211 455.184 112.211C432.531 112.211 414.164 126.836 414.164 144.875C414.164 162.914 432.527 177.539 455.184 177.539C477.841 177.539 496.2 162.914 496.2 144.875Z" fill="#EDA1AB"/>
<path d="M276.281 116.832C274.292 116.832 272.384 116.042 270.977 114.635C269.571 113.229 268.781 111.321 268.781 109.332C268.781 106.143 267.514 103.085 265.259 100.83C263.004 98.5752 259.946 97.3085 256.757 97.3085C253.568 97.3085 250.51 98.5752 248.255 100.83C246 103.085 244.734 106.143 244.734 109.332C244.734 111.321 243.943 113.229 242.537 114.635C241.13 116.042 239.223 116.832 237.234 116.832C235.245 116.832 233.337 116.042 231.93 114.635C230.524 113.229 229.734 111.321 229.734 109.332C229.734 102.165 232.581 95.2914 237.649 90.2235C242.717 85.1556 249.59 82.3085 256.757 82.3085C263.924 82.3085 270.798 85.1556 275.866 90.2235C280.934 95.2914 283.781 102.165 283.781 109.332C283.781 111.321 282.99 113.229 281.584 114.635C280.177 116.042 278.27 116.832 276.281 116.832Z" fill="#4E5660"/>
<path d="M450.8 116.832C448.811 116.832 446.903 116.042 445.496 114.635C444.09 113.229 443.3 111.321 443.3 109.332C443.3 106.143 442.033 103.085 439.778 100.83C437.523 98.5752 434.465 97.3085 431.276 97.3085C428.087 97.3085 425.029 98.5752 422.774 100.83C420.519 103.085 419.253 106.143 419.253 109.332C419.253 111.321 418.463 113.229 417.056 114.635C415.649 116.042 413.742 116.832 411.753 116.832C409.764 116.832 407.856 116.042 406.449 114.635C405.043 113.229 404.253 111.321 404.253 109.332C404.253 102.165 407.1 95.2914 412.168 90.2235C417.236 85.1556 424.109 82.3085 431.276 82.3085C438.443 82.3085 445.317 85.1556 450.385 90.2235C455.453 95.2914 458.3 102.165 458.3 109.332C458.3 111.321 457.51 113.229 456.103 114.635C454.696 116.042 452.789 116.832 450.8 116.832Z" fill="#4E5660"/>
<path d="M375.332 120.633C373.951 120.633 372.586 120.333 371.332 119.753C370.078 119.174 368.965 118.329 368.07 117.278L359.313 107C357.426 104.784 355.081 103.005 352.439 101.784C349.798 100.564 346.923 99.932 344.013 99.932C341.103 99.932 338.228 100.564 335.586 101.784C332.944 103.005 330.599 104.784 328.713 107L319.959 117.281C319.063 118.332 317.95 119.177 316.696 119.756C315.442 120.336 314.078 120.636 312.697 120.636C307.604 120.636 302.587 121.864 298.071 124.217C293.555 126.57 289.674 129.978 286.756 134.151C283.838 138.325 281.97 143.141 281.311 148.19C280.652 153.239 281.221 158.373 282.97 163.156L291.736 187.129C295.026 196.129 301.002 203.901 308.855 209.392C316.708 214.883 326.059 217.828 335.642 217.829H352.384C361.966 217.829 371.318 214.884 379.171 209.393C387.024 203.901 393 196.129 396.29 187.129L405.056 163.156C406.805 158.373 407.374 153.24 406.715 148.19C406.056 143.141 404.189 138.325 401.271 134.151C398.354 129.977 394.473 126.569 389.957 124.216C385.441 121.862 380.424 120.633 375.332 120.633Z" fill="#EEA849"/>
<path d="M318.949 150.371C317.466 150.37 316.017 149.929 314.785 149.105C313.553 148.281 312.593 147.11 312.026 145.74C311.459 144.371 311.31 142.864 311.599 141.41C311.888 139.956 312.601 138.62 313.648 137.571L320.161 131.063C321.567 129.657 323.475 128.867 325.464 128.867C327.454 128.868 329.361 129.658 330.768 131.065C332.174 132.472 332.964 134.38 332.963 136.369C332.963 138.358 332.172 140.266 330.765 141.672L324.253 148.18C323.557 148.876 322.73 149.428 321.819 149.804C320.909 150.18 319.933 150.373 318.949 150.371Z" fill="#E9901B"/>
<path d="M369.081 150.371C368.097 150.371 367.122 150.177 366.212 149.799C365.303 149.422 364.477 148.868 363.781 148.171L357.273 141.663C356.577 140.967 356.024 140.14 355.647 139.23C355.27 138.32 355.076 137.345 355.076 136.36C355.075 135.375 355.269 134.4 355.646 133.49C356.023 132.579 356.575 131.753 357.271 131.056C357.968 130.359 358.795 129.807 359.704 129.43C360.614 129.053 361.59 128.858 362.575 128.858C363.559 128.858 364.535 129.052 365.445 129.429C366.355 129.805 367.182 130.358 367.878 131.054L374.386 137.562C375.434 138.611 376.147 139.947 376.436 141.401C376.725 142.855 376.576 144.362 376.009 145.731C375.442 147.101 374.482 148.272 373.25 149.096C372.018 149.92 370.569 150.361 369.086 150.362L369.081 150.371Z" fill="#E9901B"/>
<path d="M160.074 303.016H112.8C110.81 303.016 108.903 302.226 107.496 300.819C106.09 299.413 105.3 297.505 105.3 295.516C105.3 293.527 106.09 291.619 107.496 290.213C108.903 288.806 110.81 288.016 112.8 288.016H160.077C162.066 288.016 163.973 288.806 165.38 290.213C166.786 291.619 167.577 293.527 167.577 295.516C167.577 297.505 166.786 299.413 165.38 300.819C163.973 302.226 162.066 303.016 160.077 303.016H160.074Z" fill="#E9901B"/>
</svg>
