<svg width="512" height="512" viewBox="0 0 512 512" fill="none" xmlns="http://www.w3.org/2000/svg">
<path d="M346.029 410.734C341.636 410.734 337.295 409.781 333.305 407.943C329.315 406.104 325.771 403.422 322.917 400.081C320.063 396.741 317.967 392.822 316.774 388.594C315.58 384.366 315.317 379.929 316.002 375.59L337.639 238.69C340.044 223.481 347.797 209.629 359.505 199.627C371.212 189.625 386.104 184.129 401.502 184.129C445.565 184.129 476.717 227.234 462.897 269.07L438.072 344.207C431.676 363.567 419.338 380.417 402.813 392.36C386.288 404.304 366.418 410.734 346.029 410.734Z" fill="#D2996F"/>
<path d="M391.569 309.66C382.184 309.658 372.908 307.643 364.367 303.753C355.826 299.863 348.219 294.188 342.057 287.109C340.75 285.609 340.092 283.652 340.229 281.667C340.365 279.683 341.284 277.834 342.784 276.527C344.283 275.22 346.241 274.562 348.225 274.699C350.21 274.835 352.059 275.754 353.366 277.254C358.118 282.719 363.987 287.101 370.578 290.103C377.168 293.106 384.326 294.66 391.569 294.66C398.811 294.66 405.969 293.106 412.559 290.103C419.15 287.101 425.019 282.719 429.772 277.254C431.079 275.754 432.928 274.835 434.912 274.699C436.897 274.562 438.854 275.22 440.354 276.527C441.853 277.834 442.772 279.683 442.909 281.667C443.045 283.652 442.388 285.609 441.081 287.109C434.918 294.187 427.31 299.862 418.77 303.752C410.229 307.642 400.954 309.657 391.569 309.66Z" fill="#E1B89A"/>
<path d="M337.994 450.809H304.756C297.876 450.809 291.278 448.076 286.413 443.211C281.548 438.346 278.814 431.748 278.814 424.867C278.814 417.987 281.548 411.389 286.413 406.524C291.278 401.659 297.876 398.926 304.756 398.926H337.994C344.874 398.926 351.472 401.659 356.337 406.524C361.202 411.389 363.935 417.987 363.935 424.867C363.935 431.748 361.202 438.346 356.337 443.211C351.472 448.076 344.874 450.809 337.994 450.809Z" fill="#EFD176"/>
<path d="M233.576 75.4879L165.791 351.82C162.864 363.747 156.725 374.644 148.041 383.328L51.5652 479.809C39.6822 491.688 48.0962 512 64.8972 512H88.4362C99.459 512 110.308 509.255 120.005 504.013C129.701 498.771 137.939 491.196 143.975 481.973L179.647 427.465C181.127 425.202 183.147 423.344 185.525 422.058C187.904 420.772 190.565 420.098 193.268 420.098H267.334C303.513 420.098 338.211 405.726 363.793 380.143C389.376 354.561 403.748 319.863 403.748 283.684V75.4879H233.576Z" fill="#E1B89A"/>
<path d="M64.8972 512H88.4362C99.459 512 110.308 509.255 120.005 504.013C129.701 498.771 137.939 491.196 143.975 481.973L179.647 427.465C181.127 425.202 183.147 423.344 185.525 422.058C187.904 420.771 190.565 420.098 193.268 420.098H230.627C199.041 373.219 190.545 299.875 196.607 226.188L165.791 351.82C162.864 363.747 156.725 374.644 148.041 383.328L51.5652 479.809C39.6822 491.688 48.0962 512 64.8972 512Z" fill="#D2996F"/>
<path d="M150.092 410.734C145.699 410.733 141.358 409.781 137.368 407.942C133.379 406.102 129.835 403.42 126.982 400.08C124.128 396.74 122.032 392.821 120.839 388.593C119.645 384.365 119.382 379.929 120.068 375.59L141.702 238.691C144.105 223.481 151.858 209.629 163.566 199.626C175.273 189.624 190.166 184.129 205.565 184.129C249.628 184.129 280.784 227.234 266.96 269.07L242.136 344.207C235.738 363.566 223.4 380.416 206.875 392.36C190.351 404.303 170.481 410.733 150.092 410.734Z" fill="#D2996F"/>
<path d="M437.658 158.133C437.658 198.617 379.803 202.192 359.744 168.86C359.181 167.907 358.394 167.106 357.452 166.526C356.51 165.946 355.441 165.604 354.337 165.53C353.233 165.456 352.128 165.651 351.116 166.1C350.105 166.549 349.218 167.237 348.533 168.106C323.666 199.985 280.912 197.399 268.326 170.133C267.884 169.113 267.198 168.219 266.328 167.527C265.459 166.836 264.432 166.369 263.339 166.169C262.246 165.969 261.121 166.041 260.063 166.378C259.004 166.716 258.045 167.31 257.271 168.106C228.716 198.45 174.697 201.977 185.345 158.133L201.775 91.1559C208.743 62.7473 225.875 37.8747 249.934 21.2381C273.993 4.60151 303.312 -2.6468 332.351 0.862802C361.391 4.37241 388.139 18.3968 407.542 40.2861C426.945 62.1753 437.658 90.4132 437.658 119.664V158.133Z" fill="#FCF2D0"/>
<path d="M257.275 168.105C258.355 166.946 259.823 166.224 261.4 166.078C269.275 103.953 288.302 43.2769 317.302 0.0158691C290.645 0.167959 264.802 9.21733 243.873 25.7283C222.944 42.2393 208.128 65.2662 201.775 91.1559L185.35 158.133C174.703 201.977 228.717 198.449 257.275 168.105Z" fill="#FAE0BD"/>
<path d="M295.897 106.523C295.897 95.632 284.811 86.804 271.139 86.804C257.467 86.804 246.377 95.632 246.377 106.523C246.377 117.414 257.463 126.242 271.139 126.242C284.815 126.242 295.897 117.414 295.897 106.523Z" fill="#EDA1AB"/>
<path d="M430.107 106.523C430.107 95.632 419.021 86.804 405.349 86.804C391.677 86.804 380.587 95.632 380.587 106.523C380.587 117.414 391.673 126.242 405.349 126.242C419.025 126.242 430.107 117.414 430.107 106.523Z" fill="#EDA1AB"/>
<path d="M285.568 94.3549C283.579 94.3549 281.672 93.5647 280.265 92.1582C278.859 90.7517 278.068 88.844 278.068 86.8549V78.1089C278.068 76.1198 278.859 74.2121 280.265 72.8056C281.672 71.3991 283.579 70.6089 285.568 70.6089C287.557 70.6089 289.465 71.3991 290.872 72.8056C292.278 74.2121 293.068 76.1198 293.068 78.1089V86.8549C293.068 88.844 292.278 90.7517 290.872 92.1582C289.465 93.5647 287.557 94.3549 285.568 94.3549Z" fill="#4E5660"/>
<path d="M390.916 94.3549C388.927 94.3549 387.019 93.5647 385.613 92.1582C384.206 90.7517 383.416 88.844 383.416 86.8549V78.1089C383.416 76.1198 384.206 74.2121 385.613 72.8056C387.019 71.3991 388.927 70.6089 390.916 70.6089C392.905 70.6089 394.813 71.3991 396.219 72.8056C397.626 74.2121 398.416 76.1198 398.416 78.1089V86.8549C398.416 88.844 397.626 90.7517 396.219 92.1582C394.813 93.5647 392.905 94.3549 390.916 94.3549Z" fill="#4E5660"/>
<path d="M366.818 128.941H332.279C329.639 128.941 327.03 128.365 324.635 127.254C322.24 126.144 320.115 124.524 318.409 122.509C316.703 120.494 315.456 118.132 314.756 115.586C314.055 113.041 313.918 110.373 314.353 107.769L316.126 97.1559C316.69 93.7828 318.09 90.6048 320.198 87.9121C322.306 85.2193 325.056 83.0978 328.195 81.7412C331.334 80.3846 334.763 79.8361 338.169 80.146C341.575 80.4558 344.849 81.614 347.692 83.5149C360.394 92.008 369.706 104.695 374.002 119.359C374.329 120.474 374.391 121.651 374.184 122.794C373.976 123.938 373.505 125.018 372.808 125.948C372.111 126.878 371.206 127.633 370.167 128.152C369.127 128.672 367.98 128.942 366.818 128.941Z" fill="#EEA849"/>
<path d="M195.631 309.66C186.246 309.657 176.971 307.642 168.43 303.752C159.89 299.862 152.282 294.187 146.119 287.109C145.472 286.366 144.978 285.504 144.664 284.57C144.35 283.636 144.224 282.65 144.291 281.667C144.359 280.685 144.619 279.725 145.057 278.843C145.496 277.961 146.104 277.174 146.846 276.527C147.589 275.88 148.451 275.385 149.385 275.072C150.319 274.758 151.305 274.631 152.288 274.699C153.27 274.766 154.23 275.027 155.112 275.465C155.994 275.904 156.781 276.511 157.428 277.254C162.18 282.719 168.05 287.101 174.64 290.104C181.231 293.106 188.389 294.66 195.631 294.66C202.873 294.66 210.031 293.106 216.622 290.104C223.212 287.101 229.082 282.719 233.834 277.254C235.141 275.754 236.99 274.834 238.975 274.697C240.96 274.561 242.918 275.218 244.418 276.525C245.918 277.832 246.838 279.681 246.975 281.666C247.111 283.651 246.454 285.609 245.147 287.109C238.984 294.188 231.376 299.863 222.834 303.753C214.293 307.643 205.017 309.657 195.631 309.66Z" fill="#E1B89A"/>
<path d="M277.139 450.809H243.902C237.022 450.809 230.424 448.076 225.559 443.211C220.694 438.346 217.961 431.748 217.961 424.867C217.961 417.987 220.694 411.389 225.559 406.524C230.424 401.659 237.022 398.926 243.902 398.926H277.14C284.021 398.926 290.619 401.659 295.484 406.524C300.349 411.389 303.082 417.987 303.082 424.867C303.082 431.748 300.349 438.346 295.484 443.211C290.619 448.076 284.021 450.809 277.14 450.809H277.139Z" fill="#F7EF87"/>
<path d="M339.033 275.8C337.044 275.8 335.136 275.01 333.73 273.603C332.323 272.197 331.533 270.289 331.533 268.3V252.445C331.533 250.456 332.323 248.548 333.73 247.142C335.136 245.735 337.044 244.945 339.033 244.945C341.022 244.945 342.93 245.735 344.336 247.142C345.743 248.548 346.533 250.456 346.533 252.445V268.3C346.533 270.289 345.743 272.197 344.336 273.603C342.93 275.01 341.022 275.8 339.033 275.8Z" fill="#D2996F"/>
<path d="M304.597 317.586C302.608 317.586 300.7 316.796 299.293 315.389C297.887 313.983 297.097 312.075 297.097 310.086V294.234C297.097 292.245 297.887 290.337 299.293 288.931C300.7 287.524 302.608 286.734 304.597 286.734C306.586 286.734 308.493 287.524 309.9 288.931C311.307 290.337 312.097 292.245 312.097 294.234V310.086C312.097 312.075 311.307 313.983 309.9 315.389C308.493 316.796 306.586 317.586 304.597 317.586Z" fill="#D2996F"/>
<path d="M373.472 317.586C371.483 317.586 369.575 316.796 368.168 315.389C366.762 313.983 365.972 312.075 365.972 310.086V294.234C365.972 292.245 366.762 290.337 368.168 288.931C369.575 287.524 371.483 286.734 373.472 286.734C375.461 286.734 377.368 287.524 378.775 288.931C380.182 290.337 380.972 292.245 380.972 294.234V310.086C380.972 312.075 380.182 313.983 378.775 315.389C377.368 316.796 375.461 317.586 373.472 317.586Z" fill="#D2996F"/>
</svg>
