<svg width="512" height="512" viewBox="0 0 512 512" fill="none" xmlns="http://www.w3.org/2000/svg">
<path d="M128.142 300.742C127.157 300.742 126.182 300.548 125.272 300.171C124.363 299.793 123.537 299.24 122.842 298.542C111.411 287.137 95.9239 280.733 79.7771 280.733C63.6304 280.733 48.143 287.137 36.7126 298.542C35.3048 299.939 33.4007 300.722 31.4173 300.718C29.4338 300.715 27.5324 299.926 26.1291 298.525C24.7259 297.123 23.9351 295.222 23.9297 293.239C23.9244 291.255 24.705 289.35 26.1006 287.941C40.3467 273.728 59.6488 265.745 79.7726 265.745C99.8965 265.745 119.199 273.728 133.445 287.941C134.492 288.99 135.205 290.326 135.494 291.78C135.783 293.234 135.635 294.741 135.068 296.11C134.5 297.48 133.54 298.651 132.308 299.475C131.076 300.299 129.627 300.74 128.145 300.741L128.142 300.742Z" fill="#8CD6FE"/>
<path d="M10.5088 291.289C13.7375 288.06 18.1166 286.246 22.6828 286.246C27.2489 286.246 31.628 288.06 34.8568 291.289C38.0855 294.518 39.8994 298.897 39.8994 303.463C39.8994 308.029 38.0855 312.408 34.8568 315.637C28.1338 322.359 9.27078 330.32 2.54778 323.6C-4.17522 316.88 3.78578 298.014 10.5088 291.291V291.289Z" fill="#4E5660"/>
<path d="M290.212 462.758H257.067C255.081 462.758 253.116 462.367 251.282 461.608C249.447 460.848 247.781 459.734 246.377 458.331C244.973 456.927 243.86 455.26 243.1 453.426C242.34 451.592 241.95 449.626 241.95 447.641V350.727H305.329V447.641C305.329 449.626 304.938 451.592 304.178 453.426C303.419 455.26 302.305 456.927 300.901 458.331C299.498 459.734 297.831 460.848 295.997 461.608C294.163 462.367 292.197 462.758 290.212 462.758Z" fill="#8CD6FE"/>
<path d="M291.118 429.125C286.912 429.126 282.878 430.797 279.904 433.771C276.93 436.745 275.259 440.778 275.259 444.984V462.757H290.212C294.221 462.756 298.066 461.164 300.901 458.329C303.735 455.494 305.328 451.649 305.329 447.64V429.12H291.118V429.125Z" fill="#383C43"/>
<path d="M151.735 210.094C125.834 210.094 100.994 220.383 82.679 238.698C64.3642 257.013 54.075 281.853 54.0747 307.754V338.66C54.0642 348.502 56.0991 358.239 60.0503 367.253C64.0016 376.267 69.7829 384.361 77.0277 391.023V447.64C77.0276 449.625 77.4185 451.591 78.1782 453.425C78.9378 455.259 80.0514 456.926 81.4551 458.33C82.8589 459.733 84.5254 460.847 86.3596 461.607C88.1937 462.366 90.1595 462.757 92.1447 462.757H125.286C127.271 462.757 129.236 462.366 131.07 461.607C132.904 460.847 134.571 459.734 135.974 458.33C137.378 456.926 138.491 455.26 139.251 453.426C140.01 451.592 140.401 449.626 140.401 447.641V409.895H178.573V447.641C178.572 449.626 178.963 451.592 179.723 453.426C180.482 455.261 181.596 456.927 183 458.331C184.403 459.735 186.07 460.849 187.904 461.608C189.739 462.368 191.704 462.758 193.69 462.758H226.831C228.816 462.758 230.782 462.368 232.616 461.608C234.451 460.849 236.117 459.735 237.521 458.331C238.925 456.927 240.038 455.261 240.798 453.426C241.557 451.592 241.948 449.626 241.948 447.641V408.285C267.17 403.871 290.028 390.703 306.5 371.099C322.973 351.496 332.004 326.711 332.007 301.105V210.094H151.735Z" fill="#BAE7FF"/>
<path d="M126.201 429.125C121.995 429.125 117.961 430.797 114.987 433.771C112.013 436.745 110.342 440.778 110.342 444.984V462.757H125.291C129.299 462.755 133.142 461.162 135.976 458.327C138.809 455.493 140.401 451.649 140.401 447.641V429.121H126.201V429.125Z" fill="#4E5660"/>
<path d="M227.743 429.125C223.537 429.126 219.503 430.797 216.529 433.771C213.555 436.745 211.884 440.778 211.884 444.984V462.757H226.833C228.818 462.757 230.784 462.366 232.618 461.607C234.452 460.847 236.119 459.733 237.522 458.33C238.926 456.926 240.04 455.259 240.799 453.425C241.559 451.591 241.95 449.625 241.95 447.64V429.12H227.743V429.125Z" fill="#4E5660"/>
<path d="M151.915 308.3C141.348 308.3 131.213 304.102 123.741 296.63C116.269 289.158 112.071 279.023 112.071 268.456V155.973C112.071 146.336 113.968 136.794 117.656 127.89C121.344 118.987 126.749 110.897 133.564 104.083C140.378 97.2685 148.468 91.8631 157.371 88.1754C166.274 84.4876 175.817 82.5897 185.454 82.59H221.142V239.074C221.142 248.165 219.352 257.167 215.873 265.566C212.394 273.965 207.295 281.597 200.866 288.025C194.438 294.453 186.806 299.553 178.407 303.031C170.008 306.51 161.006 308.3 151.915 308.3Z" fill="#EDA1AB"/>
<path d="M185.454 82.59C175.817 82.5897 166.274 84.4876 157.371 88.1754C148.468 91.8631 140.378 97.2685 133.564 104.083C126.749 110.897 121.344 118.987 117.656 127.89C113.968 136.794 112.071 146.336 112.071 155.973V194.7C112.072 175.238 119.804 156.574 133.566 142.813C147.327 129.051 165.992 121.32 185.454 121.32H221.142V82.59H185.454Z" fill="#BAE7FF"/>
<path d="M472.157 308.3C477.389 308.3 482.571 307.269 487.405 305.266C492.239 303.264 496.632 300.329 500.331 296.629C504.031 292.928 506.966 288.536 508.968 283.701C510.971 278.867 512.001 273.686 512.001 268.453V155.973C512.001 146.336 510.103 136.794 506.415 127.89C502.728 118.987 497.322 110.897 490.508 104.083C483.694 97.2685 475.604 91.8631 466.7 88.1754C457.797 84.4876 448.255 82.5897 438.618 82.59H402.931V239.074C402.931 257.434 410.225 275.041 423.207 288.023C436.19 301.005 453.797 308.299 472.157 308.3Z" fill="#EDA1AB"/>
<path d="M438.618 82.59C448.255 82.5897 457.797 84.4876 466.7 88.1754C475.604 91.8631 483.694 97.2685 490.508 104.083C497.322 110.897 502.728 118.987 506.415 127.89C510.103 136.794 512.001 146.336 512.001 155.973V194.7C512 175.238 504.268 156.574 490.506 142.813C476.744 129.051 458.079 121.32 438.618 121.32H402.931V82.59H438.618Z" fill="#BAE7FF"/>
<path d="M450.614 182.523C450.614 113.461 420.701 50 312.036 50C203.371 50 173.458 113.461 173.458 182.523C173.458 251.585 235.501 295.23 312.036 295.23C388.571 295.23 450.614 251.586 450.614 182.523Z" fill="#BAE7FF"/>
<path d="M312.036 295.23C313.716 295.23 315.384 295.199 317.048 295.16C241.79 249.937 228.848 121.98 285.864 51.3669C198.489 60.9059 173.458 119.367 173.458 182.523C173.458 251.586 235.501 295.23 312.036 295.23Z" fill="#8CD6FE"/>
<path d="M364.606 346.961C343.922 346.937 324.092 338.71 309.467 324.084C294.841 309.458 286.614 289.629 286.59 268.945V183C286.59 176.251 289.271 169.779 294.043 165.007C298.815 160.235 305.287 157.554 312.035 157.554C318.784 157.554 325.256 160.235 330.028 165.007C334.8 169.779 337.481 176.251 337.481 183V268.949C337.489 276.141 340.349 283.035 345.434 288.12C350.52 293.206 357.414 296.066 364.606 296.074C371.354 296.074 377.827 298.755 382.599 303.527C387.37 308.299 390.051 314.771 390.051 321.519C390.051 328.268 387.37 334.74 382.599 339.512C377.827 344.284 371.354 346.965 364.606 346.965V346.961Z" fill="#8CD6FE"/>
<path d="M318.771 223.34H305.301C303.312 223.34 301.404 222.55 299.997 221.143C298.591 219.737 297.801 217.829 297.801 215.84C297.801 213.851 298.591 211.943 299.997 210.537C301.404 209.13 303.312 208.34 305.301 208.34H318.771C320.76 208.34 322.668 209.13 324.074 210.537C325.481 211.943 326.271 213.851 326.271 215.84C326.271 217.829 325.481 219.737 324.074 221.143C322.668 222.55 320.76 223.34 318.771 223.34Z" fill="#BAE7FF"/>
<path d="M318.771 256.008H305.301C303.312 256.008 301.404 255.218 299.997 253.811C298.591 252.405 297.801 250.497 297.801 248.508C297.801 246.519 298.591 244.611 299.997 243.205C301.404 241.798 303.312 241.008 305.301 241.008H318.771C320.76 241.008 322.668 241.798 324.074 243.205C325.481 244.611 326.271 246.519 326.271 248.508C326.271 250.497 325.481 252.405 324.074 253.811C322.668 255.218 320.76 256.008 318.771 256.008Z" fill="#BAE7FF"/>
<path d="M256.329 184.152C256.329 169.824 241.743 158.211 223.755 158.211C205.767 158.211 191.177 169.824 191.177 184.152C191.177 198.48 205.763 210.093 223.755 210.093C241.747 210.093 256.329 198.48 256.329 184.152Z" fill="white"/>
<path d="M432.896 184.152C432.896 169.824 418.31 158.211 400.322 158.211C382.334 158.211 367.744 169.824 367.744 184.152C367.744 198.48 382.33 210.093 400.322 210.093C418.314 210.093 432.896 198.48 432.896 184.152Z" fill="white"/>
<path d="M258.243 163.422C256.254 163.422 254.346 162.632 252.94 161.225C251.533 159.819 250.743 157.911 250.743 155.922C250.743 153.799 249.899 151.762 248.398 150.261C246.897 148.76 244.86 147.916 242.737 147.916C240.614 147.916 238.577 148.76 237.076 150.261C235.574 151.762 234.731 153.799 234.731 155.922C234.731 157.911 233.941 159.819 232.534 161.225C231.128 162.632 229.22 163.422 227.231 163.422C225.242 163.422 223.334 162.632 221.928 161.225C220.521 159.819 219.731 157.911 219.731 155.922C219.731 149.82 222.155 143.969 226.469 139.654C230.784 135.34 236.635 132.916 242.737 132.916C248.839 132.916 254.69 135.34 259.005 139.654C263.319 143.969 265.743 149.82 265.743 155.922C265.743 157.911 264.953 159.819 263.546 161.225C262.14 162.632 260.232 163.422 258.243 163.422Z" fill="#4E5660"/>
<path d="M396.841 163.422C394.852 163.422 392.944 162.632 391.538 161.225C390.131 159.819 389.341 157.911 389.341 155.922C389.341 153.799 388.498 151.762 386.996 150.261C385.495 148.76 383.458 147.916 381.335 147.916C379.212 147.916 377.175 148.76 375.674 150.261C374.173 151.762 373.329 153.799 373.329 155.922C373.329 157.911 372.539 159.819 371.132 161.225C369.726 162.632 367.818 163.422 365.829 163.422C363.84 163.422 361.932 162.632 360.526 161.225C359.119 159.819 358.329 157.911 358.329 155.922C358.329 149.82 360.753 143.969 365.067 139.654C369.382 135.34 375.234 132.916 381.335 132.916C387.437 132.916 393.288 135.34 397.603 139.654C401.917 143.969 404.341 149.82 404.341 155.922C404.341 157.911 403.551 159.819 402.144 161.225C400.738 162.632 398.83 163.422 396.841 163.422Z" fill="#4E5660"/>
</svg>
