<svg width="512" height="512" viewBox="0 0 512 512" fill="none" xmlns="http://www.w3.org/2000/svg">
<path d="M115.431 299.621L115.74 298.421H115.123L107.736 269.679C103.886 254.71 96.5995 240.844 86.4547 229.182C76.3099 217.521 63.5863 208.385 49.2939 202.5L31.7009 195.25C27.9083 193.688 23.7663 193.17 19.7059 193.752C15.6456 194.334 11.8155 195.994 8.61433 198.558C5.41314 201.123 2.95791 204.499 1.50424 208.334C0.0505689 212.17 -0.348392 216.325 0.348888 220.367L6.32889 255.012C7.7995 263.54 11.2558 271.602 16.4185 278.548C21.5812 285.493 28.3055 291.126 36.0479 294.992C36.9136 295.417 37.6429 296.076 38.1529 296.895C38.663 297.713 38.9333 298.659 38.9333 299.623C38.9333 300.587 38.663 301.533 38.1529 302.351C37.6429 303.17 36.9136 303.829 36.0479 304.254C28.3059 308.12 21.582 313.754 16.4193 320.699C11.2567 327.644 7.8001 335.706 6.32889 344.234L0.348888 378.879C-0.349237 382.921 0.0490943 387.077 1.50241 390.913C2.95572 394.749 5.41086 398.126 8.6122 400.691C11.8135 403.256 15.644 404.916 19.7047 405.498C23.7654 406.08 27.9079 405.563 31.7009 404L49.3009 396.754C63.594 390.868 76.318 381.731 86.4627 370.068C96.6074 358.405 103.893 344.538 107.742 329.567L115.129 300.829H115.746L115.431 299.621Z" fill="#BAE7FF"/>
<path d="M351.763 250.7H201.571L221.371 126.36C221.956 122.691 223.422 119.22 225.644 116.243C227.866 113.266 230.778 110.873 234.129 109.269C237.48 107.666 241.17 106.899 244.882 107.036C248.594 107.173 252.218 108.209 255.442 110.055C294.496 132.423 323.999 168.328 338.372 210.977L351.763 250.7Z" fill="#8CD6FE"/>
<path d="M512.001 280.031C512.001 343.031 397.407 404.519 284.22 404.519C171.033 404.519 73.333 362.619 73.333 299.619C73.333 236.619 187.11 192.309 300.301 192.309C413.492 192.309 512.001 217.031 512.001 280.031Z" fill="#BAE7FF"/>
<path d="M512.001 280.031C512.001 343.031 397.407 404.519 284.22 404.519C171.033 404.519 73.333 362.619 73.333 299.619C73.333 236.619 187.11 192.309 300.301 192.309C413.492 192.309 512.001 217.031 512.001 280.031Z" fill="#BAE7FF"/>
<path d="M204.474 202.871C130.701 219.59 73.333 254.895 73.333 299.621C73.333 356.721 153.591 396.488 252.903 403.434C187.771 357.707 175.146 295.848 204.474 202.871Z" fill="#8CD6FE"/>
<path d="M284.22 404.52C366.462 404.52 449.435 372.051 488.661 330.133C290.309 320.25 180.22 343.219 124.075 369.317C163.301 391.594 221.364 404.52 284.22 404.52Z" fill="#FAE0BD"/>
<path d="M124.075 369.316C156.685 387.84 202.317 399.9 252.901 403.434C228.674 386.426 211.717 367.184 201.475 344.934C168.536 351.922 143.177 360.438 124.075 369.316Z" fill="#F3BE77"/>
<path d="M260.958 339.813C244.876 355.895 199.185 369.7 186.091 356.606C172.997 343.512 197.462 308.481 213.544 292.395C229.626 276.309 246.744 280.422 259.844 293.516C272.944 306.61 277.044 323.727 260.958 339.813Z" fill="#8CD6FE"/>
<path d="M416.474 297.816C416.474 284.027 402.435 272.847 385.119 272.847C367.803 272.847 353.764 284.027 353.764 297.816C353.764 311.605 367.803 322.785 385.119 322.785C402.435 322.785 416.474 311.605 416.474 297.816Z" fill="white"/>
<path d="M403.392 280.406C401.403 280.406 399.495 279.616 398.089 278.209C396.682 276.803 395.892 274.895 395.892 272.906V261.832C395.892 259.843 396.682 257.935 398.089 256.529C399.495 255.122 401.403 254.332 403.392 254.332C405.381 254.332 407.289 255.122 408.695 256.529C410.102 257.935 410.892 259.843 410.892 261.832V272.906C410.892 274.895 410.102 276.803 408.695 278.209C407.289 279.616 405.381 280.406 403.392 280.406Z" fill="#4E5660"/>
<path d="M470.101 288.91C465.695 288.909 461.341 287.963 457.332 286.137C453.323 284.311 449.752 281.647 446.859 278.324C445.552 276.824 444.894 274.867 445.031 272.882C445.167 270.898 446.086 269.049 447.586 267.742C449.086 266.435 451.043 265.778 453.028 265.914C455.012 266.05 456.861 266.969 458.168 268.469C459.652 270.177 461.485 271.547 463.544 272.486C465.603 273.424 467.839 273.91 470.101 273.91C472.364 273.91 474.6 273.424 476.659 272.486C478.718 271.547 480.551 270.177 482.035 268.469C483.342 266.969 485.191 266.05 487.175 265.914C489.16 265.778 491.117 266.435 492.617 267.742C494.117 269.049 495.036 270.898 495.172 272.882C495.308 274.867 494.651 276.824 493.344 278.324C490.451 281.647 486.879 284.311 482.87 286.137C478.861 287.963 474.507 288.908 470.101 288.91Z" fill="#4E5660"/>
<path d="M334.29 318.734C333.063 318.736 331.855 318.437 330.771 317.863C329.688 317.289 328.762 316.457 328.075 315.441C322.602 307.359 319.676 297.823 319.676 288.062C319.676 278.301 322.602 268.765 328.075 260.683C329.201 259.062 330.922 257.951 332.863 257.59C334.804 257.229 336.809 257.648 338.443 258.756C340.076 259.864 341.208 261.572 341.591 263.508C341.974 265.445 341.578 267.454 340.489 269.101C336.701 274.699 334.676 281.303 334.676 288.062C334.676 294.821 336.701 301.425 340.489 307.023C341.254 308.15 341.697 309.464 341.771 310.825C341.846 312.185 341.548 313.539 340.911 314.743C340.274 315.947 339.32 316.955 338.154 317.658C336.987 318.361 335.651 318.733 334.289 318.734H334.29Z" fill="#4E5660"/>
<path d="M306.044 318.734C304.817 318.736 303.609 318.437 302.526 317.862C301.442 317.288 300.516 316.457 299.829 315.441C294.358 307.358 291.434 297.822 291.434 288.062C291.434 278.302 294.358 268.766 299.829 260.683C300.956 259.062 302.676 257.951 304.617 257.59C306.558 257.229 308.563 257.648 310.197 258.756C311.831 259.864 312.962 261.572 313.345 263.508C313.728 265.445 313.332 267.454 312.243 269.101C308.457 274.7 306.434 281.304 306.434 288.062C306.434 294.82 308.457 301.424 312.243 307.023C313.008 308.15 313.451 309.464 313.525 310.825C313.6 312.185 313.302 313.539 312.665 314.743C312.028 315.947 311.074 316.955 309.908 317.658C308.741 318.361 307.405 318.733 306.043 318.734H306.044Z" fill="#4E5660"/>
</svg>
