<svg width="512" height="512" viewBox="0 0 512 512" fill="none" xmlns="http://www.w3.org/2000/svg">
<path d="M125.259 512C119.269 511.998 113.477 509.855 108.927 505.958C104.378 502.061 101.371 496.667 100.448 490.748C99.5258 484.829 100.749 478.776 103.896 473.679C107.044 468.583 111.909 464.779 117.614 462.953L143.708 454.601L131.919 414.562C130.475 409.658 130.561 404.43 132.167 399.577C133.774 394.724 136.822 390.476 140.907 387.402L199.266 343.48C204.588 339.474 211.284 337.746 217.881 338.677C224.477 339.608 230.434 343.121 234.44 348.443C238.446 353.766 240.174 360.462 239.243 367.058C238.312 373.654 234.799 379.611 229.477 383.617L185.024 417.074L198.824 463.957C200.676 470.25 199.993 477.018 196.921 482.814C193.848 488.61 188.631 492.974 182.383 494.973L132.923 510.8C130.445 511.594 127.86 511.999 125.259 512Z" fill="#6FCE91"/>
<path d="M406.423 489.914C405.143 489.913 403.864 489.815 402.599 489.621L355.814 482.476C351.967 481.888 348.309 480.415 345.129 478.172C341.949 475.928 339.333 472.977 337.489 469.55C335.645 466.123 334.622 462.315 334.501 458.425C334.381 454.535 335.165 450.671 336.794 447.136L354.009 409.777L304.22 369.715C299.039 365.536 295.73 359.471 295.017 352.854C294.305 346.236 296.249 339.606 300.422 334.42C304.594 329.235 310.655 325.917 317.272 325.197C323.889 324.476 330.521 326.412 335.712 330.578L400.771 382.922C405.131 386.432 408.195 391.297 409.474 396.747C410.753 402.196 410.176 407.917 407.833 413L396.384 437.852L410.184 439.961C416.44 440.918 422.104 444.202 426.044 449.155C429.983 454.109 431.908 460.367 431.433 466.678C430.957 472.989 428.117 478.888 423.48 483.195C418.843 487.503 412.751 489.901 406.422 489.91L406.423 489.914Z" fill="#6FCE91"/>
<path d="M154.067 318.3C151.955 318.299 149.851 318.032 147.805 317.507L43.8798 290.832C37.466 289.141 31.9815 284.981 28.6233 279.261C25.265 273.541 24.3057 266.724 25.9545 260.299C27.6034 253.874 31.7267 248.363 37.4245 244.966C43.1223 241.57 49.9321 240.566 56.3678 242.172L160.294 268.844C166.217 270.365 171.383 273.994 174.821 279.051C178.26 284.109 179.736 290.247 178.972 296.315C178.208 302.382 175.256 307.963 170.671 312.01C166.086 316.057 160.182 318.292 154.067 318.297V318.3Z" fill="#6FCE91"/>
<path d="M358.462 318.3C352.762 318.299 347.232 316.36 342.78 312.801C338.328 309.242 335.219 304.275 333.963 298.715C332.706 293.156 333.378 287.334 335.868 282.207C338.357 277.08 342.516 272.951 347.662 270.5L451.579 221.07C457.59 218.245 464.475 217.917 470.728 220.155C476.981 222.394 482.093 227.018 484.945 233.016C487.797 239.014 488.158 245.898 485.948 252.161C483.738 258.424 479.138 263.557 473.153 266.437L369.231 315.859C365.867 317.463 362.188 318.297 358.462 318.3Z" fill="#6FCE91"/>
<path d="M381.157 285.8C381.157 205.159 325.231 178.882 256.247 178.882C187.263 178.882 131.341 205.156 131.341 285.8C131.341 366.444 187.263 407.472 256.247 407.472C325.231 407.472 381.157 366.434 381.157 285.8Z" fill="#8EE2CF"/>
<path d="M256.247 407.469C279.415 407.469 301.095 402.821 319.692 393.617C316.665 357.297 289.422 328.863 256.247 328.863C223.072 328.863 195.829 357.3 192.801 393.617C211.401 402.82 233.079 407.469 256.247 407.469Z" fill="#FAE0BD"/>
<path d="M424.88 51.0311C422.424 38.1752 416.014 26.4076 406.545 17.3722C397.075 8.33684 385.02 2.48513 372.063 0.634611C359.106 -1.21591 345.895 1.0272 334.275 7.05056C322.655 13.0739 313.207 22.5766 307.251 34.2311H205.251C199.294 22.5762 189.846 13.073 178.226 7.04939C166.605 1.02574 153.394 -1.21753 140.436 0.632991C127.479 2.48351 115.423 8.33539 105.954 17.371C96.4842 26.4067 90.0736 38.1747 87.6178 51.0311C73.6219 61.0497 62.8057 74.8852 56.4608 90.8852C50.116 106.885 48.5107 124.373 51.8368 141.261C59.9105 182.44 82.0405 219.535 114.442 246.202C146.843 272.868 187.502 287.448 229.466 287.449H283.029C324.993 287.449 365.653 272.87 398.055 246.204C430.457 219.538 452.587 182.442 460.661 141.262C463.987 124.374 462.382 106.886 456.037 90.8857C449.692 74.8855 438.876 61.0498 424.88 51.0311Z" fill="#8EE2CF"/>
<path d="M185.841 11.7271C177.27 5.59518 167.294 1.71875 156.831 0.454942C146.369 -0.80887 135.757 0.580574 125.972 4.49527C116.188 8.40997 107.546 14.724 100.842 22.8558C94.1389 30.9875 89.5897 40.6755 87.6138 51.0271C73.6179 61.0457 62.8017 74.8813 56.4568 90.8812C50.112 106.881 48.5067 124.369 51.8328 141.257C59.9058 182.438 82.036 219.534 114.438 246.201C146.84 272.868 187.501 287.449 229.466 287.449H283.029C290.878 287.448 298.718 286.938 306.501 285.922C186.169 267.43 125.267 113.863 185.841 11.7271Z" fill="#6FCE91"/>
<path d="M124.517 211.176C124.516 212.651 124.079 214.092 123.259 215.318C122.44 216.543 121.275 217.499 119.913 218.062C118.55 218.626 117.052 218.774 115.605 218.485C114.159 218.197 112.831 217.487 111.789 216.444C110.747 215.401 110.037 214.073 109.75 212.627C109.462 211.18 109.61 209.681 110.175 208.319C110.74 206.957 111.696 205.793 112.922 204.974C114.148 204.156 115.589 203.719 117.064 203.719C118.043 203.719 119.012 203.912 119.917 204.287C120.822 204.661 121.643 205.211 122.336 205.903C123.028 206.596 123.577 207.418 123.951 208.323C124.325 209.227 124.517 210.197 124.517 211.176Z" fill="#8EE2CF"/>
<path d="M405.384 211.176C405.383 212.65 404.946 214.091 404.127 215.317C403.307 216.543 402.143 217.498 400.781 218.062C399.419 218.626 397.92 218.773 396.474 218.486C395.028 218.198 393.7 217.488 392.657 216.446C391.615 215.403 390.905 214.075 390.617 212.629C390.329 211.183 390.477 209.684 391.041 208.322C391.605 206.96 392.56 205.796 393.786 204.976C395.011 204.157 396.452 203.72 397.927 203.719C398.906 203.719 399.876 203.912 400.781 204.286C401.686 204.661 402.508 205.21 403.2 205.903C403.893 206.595 404.442 207.417 404.817 208.322C405.191 209.227 405.384 210.197 405.384 211.176Z" fill="#6FCE91"/>
<path d="M429.462 165.152C429.462 166.626 429.026 168.068 428.207 169.294C427.389 170.52 426.225 171.476 424.863 172.041C423.501 172.606 422.003 172.754 420.556 172.468C419.11 172.181 417.782 171.472 416.738 170.43C415.695 169.388 414.985 168.06 414.696 166.614C414.407 165.168 414.554 163.67 415.117 162.307C415.68 160.945 416.635 159.78 417.86 158.96C419.086 158.14 420.526 157.701 422.001 157.7C422.98 157.699 423.95 157.891 424.855 158.266C425.76 158.64 426.582 159.188 427.275 159.88C427.968 160.572 428.518 161.394 428.893 162.299C429.268 163.203 429.461 164.173 429.462 165.152Z" fill="#6FCE91"/>
<path d="M183.771 103.324C183.771 84.6871 164.798 69.5781 141.392 69.5781C117.986 69.5781 99.0128 84.6881 99.0128 103.324C99.0128 121.96 117.99 137.074 141.392 137.074C164.794 137.074 183.771 121.965 183.771 103.324Z" fill="white"/>
<path d="M413.481 103.324C413.481 84.6871 394.508 69.5781 371.102 69.5781C347.696 69.5781 328.723 84.6871 328.723 103.324C328.723 121.961 347.696 137.074 371.102 137.074C394.508 137.074 413.481 121.965 413.481 103.324Z" fill="white"/>
<path d="M148.478 70.9772C146.489 70.9772 144.581 70.187 143.174 68.7805C141.768 67.3739 140.978 65.4663 140.978 63.4772V45.2852C140.978 43.296 141.768 41.3884 143.174 39.9819C144.581 38.5753 146.489 37.7852 148.478 37.7852C150.467 37.7852 152.375 38.5753 153.781 39.9819C155.188 41.3884 155.978 43.296 155.978 45.2852V63.4772C155.978 65.4663 155.188 67.3739 153.781 68.7805C152.375 70.187 150.467 70.9772 148.478 70.9772Z" fill="#4E5660"/>
<path d="M290.415 98.8401C290.415 77.7231 275.115 75.7401 256.247 75.7401C237.379 75.7401 222.079 77.7241 222.079 98.8401C222.079 119.956 237.379 137.074 256.247 137.074C275.115 137.074 290.415 119.957 290.415 98.8401Z" fill="#4E5660"/>
<path d="M364.017 70.9772C362.028 70.9772 360.12 70.187 358.714 68.7805C357.307 67.3739 356.517 65.4663 356.517 63.4772V45.2852C356.517 43.296 357.307 41.3884 358.714 39.9819C360.12 38.5753 362.028 37.7852 364.017 37.7852C366.006 37.7852 367.914 38.5753 369.32 39.9819C370.727 41.3884 371.517 43.296 371.517 45.2852V63.4772C371.517 65.4663 370.727 67.3739 369.32 68.7805C367.914 70.187 366.006 70.9772 364.017 70.9772Z" fill="#4E5660"/>
</svg>
