<svg width="512" height="512" viewBox="0 0 512 512" fill="none" xmlns="http://www.w3.org/2000/svg">
<path d="M137.808 325.486C136.823 325.486 135.848 325.292 134.939 324.914C134.029 324.537 133.203 323.983 132.508 323.286C127.415 318.192 121.368 314.152 114.712 311.395C108.057 308.639 100.925 307.22 93.7211 307.22C86.5177 307.22 79.3848 308.639 72.7297 311.395C66.0746 314.152 60.0277 318.192 54.9341 323.286C53.5196 324.652 51.6251 325.408 49.6586 325.391C47.6921 325.374 45.811 324.585 44.4205 323.194C43.0299 321.804 42.2411 319.923 42.224 317.956C42.207 315.99 42.9629 314.095 44.3291 312.681C50.8155 306.194 58.5162 301.048 66.9913 297.538C75.4664 294.027 84.5501 292.22 93.7236 292.22C102.897 292.22 111.981 294.027 120.456 297.538C128.931 301.048 136.632 306.194 143.118 312.681C144.166 313.73 144.879 315.065 145.168 316.519C145.457 317.973 145.308 319.48 144.741 320.85C144.174 322.22 143.214 323.391 141.981 324.215C140.749 325.039 139.3 325.48 137.818 325.481L137.808 325.486Z" fill="#F7EF87"/>
<path d="M305.89 512.002H282.479C280.69 512.002 278.919 511.65 277.266 510.965C275.614 510.281 274.112 509.277 272.847 508.013C271.582 506.748 270.579 505.246 269.895 503.594C269.21 501.941 268.858 500.17 268.858 498.381V387.268H319.51V498.381C319.509 501.993 318.074 505.457 315.52 508.011C312.966 510.565 309.502 512.001 305.89 512.002Z" fill="#EFD176"/>
<path d="M319.507 485.49V498.381C319.507 500.169 319.155 501.94 318.471 503.593C317.787 505.245 316.784 506.747 315.52 508.012C314.255 509.276 312.754 510.28 311.102 510.964C309.449 511.649 307.679 512.002 305.89 512.002H282.479C280.69 512.002 278.919 511.65 277.266 510.965C275.614 510.281 274.112 509.278 272.847 508.013C271.582 506.748 270.579 505.246 269.895 503.594C269.21 501.941 268.858 500.17 268.858 498.381V485.49H319.507Z" fill="#383C43"/>
<path d="M306.491 39.202C304.502 39.202 302.594 38.4118 301.188 37.0053C299.781 35.5987 298.991 33.6911 298.991 31.702V8.65796C298.991 6.66884 299.781 4.76118 301.188 3.35466C302.594 1.94814 304.502 1.15796 306.491 1.15796C308.48 1.15796 310.388 1.94814 311.794 3.35466C313.201 4.76118 313.991 6.66884 313.991 8.65796V31.702C313.991 33.6911 313.201 35.5987 311.794 37.0053C310.388 38.4118 308.48 39.202 306.491 39.202Z" fill="#4E5660"/>
<path d="M346.433 39.202C344.444 39.202 342.536 38.4118 341.13 37.0053C339.723 35.5987 338.933 33.6911 338.933 31.702V8.65796C338.933 6.66884 339.723 4.76118 341.13 3.35466C342.536 1.94814 344.444 1.15796 346.433 1.15796C348.422 1.15796 350.33 1.94814 351.736 3.35466C353.143 4.76118 353.933 6.66884 353.933 8.65796V31.702C353.933 33.6911 353.143 35.5987 351.736 37.0053C350.33 38.4118 348.422 39.202 346.433 39.202Z" fill="#4E5660"/>
<path d="M456.354 92.9359C449.379 74.9067 437.113 59.4094 421.167 48.4806C405.221 37.5518 386.343 31.7026 367.011 31.7019H306.491C298.223 31.702 290.036 33.3307 282.398 36.4948C274.76 39.6589 267.819 44.2965 261.973 50.1429C256.127 55.9893 251.49 62.93 248.326 70.5685C245.162 78.2071 243.534 86.3941 243.534 94.6619V123.896C243.529 129.701 244.775 135.438 247.186 140.719C249.597 145.999 253.117 150.698 257.507 154.496V268.877H170.233C161.042 268.877 151.941 270.687 143.45 274.204C134.958 277.721 127.243 282.877 120.744 289.376C114.245 295.875 109.09 303.59 105.572 312.081C102.055 320.573 100.245 329.674 100.245 338.865V358.065C100.236 367.64 102.197 377.115 106.006 385.9C109.816 394.684 115.393 402.591 122.39 409.128V498.386C122.391 501.998 123.827 505.461 126.381 508.014C128.935 510.568 132.399 512.002 136.011 512.002H159.421C163.033 512.001 166.498 510.566 169.052 508.012C171.606 505.457 173.042 501.993 173.042 498.381V428.049H218.21V498.381C218.21 500.169 218.562 501.94 219.246 503.593C219.93 505.245 220.933 506.747 222.198 508.012C223.462 509.276 224.963 510.28 226.616 510.964C228.268 511.649 230.039 512.002 231.827 512.002H255.237C257.026 512.002 258.797 511.65 260.45 510.965C262.102 510.281 263.604 509.278 264.869 508.013C266.134 506.748 267.137 505.246 267.822 503.594C268.506 501.941 268.858 500.17 268.858 498.381V428.049H278.479C287.67 428.049 296.771 426.239 305.263 422.722C313.754 419.205 321.47 414.05 327.969 407.551C334.468 401.052 339.623 393.336 343.14 384.845C346.657 376.353 348.467 367.252 348.467 358.061V338.861C348.473 329.098 346.429 319.443 342.467 310.521V164.416H407.367C444.276 164.416 469.675 127.354 456.354 92.9359Z" fill="#F7EF87"/>
<path d="M170.233 268.877C161.042 268.877 151.941 270.687 143.45 274.204C134.958 277.721 127.243 282.877 120.744 289.376C114.245 295.875 109.09 303.59 105.572 312.082C102.055 320.573 100.245 329.674 100.245 338.865V358.065C100.236 367.64 102.197 377.115 106.006 385.9C109.816 394.685 115.393 402.591 122.39 409.128V498.386C122.391 501.998 123.827 505.461 126.381 508.015C128.935 510.568 132.399 512.002 136.011 512.002H159.421C163.033 512.001 166.498 510.566 169.052 508.012C171.606 505.458 173.042 501.993 173.042 498.381V428.049H200.956C168.718 397.549 163.581 310.444 179.022 268.877H170.233Z" fill="#EFD176"/>
<path d="M456.354 92.9359C450.325 77.3365 440.309 63.5913 427.308 53.0719C362.441 65.5449 361.208 141.631 373.288 164.416H407.37C444.276 164.416 469.675 127.354 456.354 92.9359Z" fill="#E1B89A"/>
<path d="M354.749 112.408C354.749 96.2709 338.319 83.1849 318.049 83.1849C297.779 83.1849 281.349 96.2709 281.349 112.408C281.349 128.545 297.779 141.631 318.049 141.631C338.319 141.631 354.749 128.549 354.749 112.408Z" fill="#EDA1AB"/>
<path d="M339.44 90.7559C337.451 90.7559 335.543 89.9657 334.137 88.5592C332.73 87.1527 331.94 85.245 331.94 83.2559V70.3019C331.94 68.3128 332.73 66.4051 334.137 64.9986C335.543 63.5921 337.451 62.8019 339.44 62.8019C341.429 62.8019 343.337 63.5921 344.743 64.9986C346.15 66.4051 346.94 68.3128 346.94 70.3019V83.2559C346.94 85.245 346.15 87.1527 344.743 88.5592C343.337 89.9657 341.429 90.7559 339.44 90.7559Z" fill="#4E5660"/>
<path d="M417.507 129.283C412.534 129.281 407.62 128.214 403.094 126.154C398.568 124.093 394.536 121.087 391.269 117.338C389.962 115.838 389.305 113.88 389.442 111.895C389.578 109.91 390.498 108.061 391.998 106.754C393.498 105.447 395.456 104.79 397.441 104.926C399.426 105.063 401.275 105.983 402.582 107.483C404.439 109.618 406.732 111.33 409.307 112.504C411.882 113.677 414.678 114.284 417.508 114.284C420.338 114.284 423.134 113.677 425.709 112.504C428.284 111.33 430.577 109.618 432.434 107.483C433.741 105.983 435.59 105.064 437.575 104.928C439.559 104.792 441.516 105.449 443.016 106.756C444.516 108.063 445.435 109.912 445.571 111.896C445.708 113.881 445.05 115.838 443.743 117.338C440.477 121.088 436.446 124.094 431.92 126.155C427.394 128.215 422.48 129.282 417.507 129.283Z" fill="#4E5660"/>
<path d="M267.987 66.9669L247.467 63.3619C238.484 61.7848 230.205 57.4789 223.756 51.0299C217.307 44.5809 213.001 36.3018 211.424 27.3189C210.777 23.6351 211.027 19.8497 212.153 16.283C213.279 12.7163 215.247 9.47331 217.892 6.82862C220.537 4.18392 223.779 2.21533 227.346 1.08951C230.913 -0.0363144 234.698 -0.286239 238.382 0.360893C247.364 1.93961 255.642 6.2458 262.091 12.6941C268.539 19.1425 272.846 27.4201 274.425 36.4019L278.025 56.9219C278.267 58.2941 278.175 59.7044 277.757 61.0334C277.338 62.3625 276.605 63.571 275.62 64.5566C274.635 65.5422 273.427 66.2759 272.098 66.6955C270.77 67.115 269.359 67.2081 267.987 66.9669Z" fill="#EFD176"/>
<path d="M254.608 51.0449C253.623 51.0455 252.648 50.8514 251.739 50.4739C250.829 50.0963 250.003 49.5427 249.308 48.8449L236.112 35.6579C235.416 34.9613 234.863 34.1344 234.487 33.2243C234.11 32.3143 233.916 31.3389 233.916 30.354C233.917 29.369 234.111 28.3937 234.488 27.4838C234.865 26.5739 235.418 25.7472 236.114 25.0509C236.811 24.3546 237.638 23.8022 238.548 23.4255C239.458 23.0487 240.433 22.8549 241.418 22.8551C242.403 22.8553 243.378 23.0495 244.288 23.4266C245.198 23.8037 246.025 24.3563 246.721 25.0529L259.912 38.2439C260.96 39.2928 261.673 40.6285 261.962 42.0825C262.251 43.5365 262.102 45.0435 261.535 46.4131C260.968 47.7828 260.008 48.9536 258.775 49.7778C257.543 50.602 256.095 51.0426 254.612 51.0439L254.608 51.0449Z" fill="#F7EF87"/>
<path d="M173.042 485.49V498.381C173.042 500.17 172.69 501.941 172.006 503.594C171.321 505.246 170.318 506.748 169.053 508.013C167.788 509.278 166.286 510.281 164.634 510.965C162.981 511.65 161.21 512.002 159.421 512.002H136.011C134.223 512.002 132.452 511.649 130.799 510.964C129.147 510.28 127.646 509.276 126.382 508.012C125.117 506.747 124.114 505.245 123.43 503.593C122.746 501.94 122.394 500.169 122.394 498.381V485.49H173.042Z" fill="#4E5660"/>
<path d="M268.858 485.49V498.381C268.858 500.17 268.506 501.941 267.822 503.594C267.137 505.246 266.134 506.748 264.869 508.013C263.604 509.278 262.102 510.281 260.45 510.965C258.797 511.65 257.026 512.002 255.237 512.002H231.831C230.042 512.002 228.271 511.65 226.618 510.965C224.966 510.281 223.464 509.278 222.199 508.013C220.934 506.748 219.931 505.246 219.247 503.594C218.562 501.941 218.21 500.17 218.21 498.381V485.49H268.858Z" fill="#4E5660"/>
<path d="M30.5771 316.202C33.521 313.258 37.5138 311.604 41.6771 311.604C45.8404 311.604 49.8332 313.258 52.7771 316.202C55.721 319.146 57.3749 323.139 57.3749 327.302C57.3749 331.465 55.721 335.458 52.7771 338.402C46.6481 344.531 29.4571 351.789 23.3281 345.66C17.1991 339.531 24.4481 322.334 30.5771 316.202Z" fill="#E1B89A"/>
<path d="M294.183 247.756C285.383 234.444 268.383 226.971 257.507 216.506V268.877H218.331C220.061 292.147 236.554 323.506 274.194 313.322C307.956 304.193 303.722 262.182 294.183 247.756Z" fill="#E1B89A"/>
<path d="M348.472 358.065V356.889C332.867 372.412 296.738 350.096 285.89 371.459C275.023 392.859 291.812 412.943 300.71 424.428C314.622 419.767 326.717 410.853 335.287 398.945C343.858 387.036 348.47 372.736 348.472 358.065Z" fill="#E1B89A"/>
<path d="M218.331 380.428C228.983 368.338 226.694 339.834 202.702 335.912C188.831 333.646 176.19 348.725 166.534 346.193C156.878 343.661 133.6 340.393 128.585 355.275C123.57 370.157 133.675 386.498 157.269 379.959C174.636 375.15 204.046 396.647 218.331 380.428Z" fill="#E1B89A"/>
<path d="M177.257 381.455C174.361 369.873 172.434 358.071 171.495 346.17C169.867 346.572 168.166 346.58 166.534 346.193C156.882 343.662 133.6 340.393 128.581 355.275C123.562 370.157 133.671 386.498 157.269 379.959C162.956 378.385 169.937 379.635 177.257 381.455Z" fill="#D2996F"/>
</svg>
