<svg width="512" height="512" viewBox="0 0 512 512" fill="none" xmlns="http://www.w3.org/2000/svg">
<path d="M26.1518 285.859C27.1854 286.787 28.012 287.923 28.5778 289.192C29.1437 290.461 29.4361 291.835 29.4361 293.224C29.4361 294.613 29.1437 295.987 28.5778 297.256C28.012 298.525 27.1854 299.66 26.1518 300.589C-21.9032 343.689 2.85177 378.456 47.4138 378.456C94.4838 378.456 121.227 340.296 121.227 293.222C121.227 246.148 94.4848 207.992 47.4148 207.992C2.85177 207.992 -21.9002 242.758 26.1518 285.859Z" fill="#F7EF87"/>
<path d="M404.519 345.746L433.308 389.754C435.703 393.416 438.885 396.497 442.621 398.774C446.357 401.051 450.554 402.466 454.906 402.916C459.259 403.367 463.656 402.841 467.78 401.377C471.903 399.913 475.648 397.548 478.742 394.454C487.889 385.307 493.027 372.901 493.027 359.966C493.027 347.03 487.889 334.624 478.742 325.477L456.652 303.387C450.745 297.482 442.858 293.976 434.516 293.546C426.175 293.116 417.97 295.794 411.487 301.061C405.004 306.329 400.704 313.812 399.417 322.065C398.13 330.318 399.948 338.755 404.519 345.746Z" fill="#EFD176"/>
<path d="M453.604 362.742C452.471 362.744 451.352 362.488 450.331 361.995C449.311 361.502 448.416 360.783 447.713 359.894L421.807 327.124C421.176 326.354 420.704 325.465 420.42 324.51C420.135 323.556 420.044 322.554 420.151 321.564C420.258 320.573 420.561 319.614 421.043 318.742C421.525 317.87 422.175 317.103 422.957 316.485C423.738 315.868 424.635 315.412 425.595 315.144C426.554 314.877 427.557 314.804 428.546 314.928C429.534 315.053 430.488 315.373 431.351 315.87C432.214 316.367 432.969 317.032 433.573 317.824L459.483 350.597C460.356 351.702 460.9 353.031 461.053 354.43C461.206 355.83 460.961 357.245 460.348 358.512C459.735 359.78 458.777 360.849 457.584 361.597C456.392 362.346 455.012 362.744 453.604 362.745V362.742Z" fill="#F7EF87"/>
<path d="M279.582 203.172C276.6 169.191 245.871 89.9999 184.141 96.2769C121.313 102.664 115.047 174.554 146.641 191.843C178.235 209.132 219.965 213.898 227.121 243.706L279.582 203.172Z" fill="#F7EF87"/>
<path d="M245.57 217.07C243.868 217.068 242.217 216.487 240.889 215.422C239.56 214.357 238.634 212.872 238.261 211.211C234.675 195.242 207.925 168.152 185.253 157.535C183.452 156.691 182.059 155.166 181.382 153.296C180.704 151.425 180.798 149.362 181.642 147.56C182.485 145.759 184.01 144.366 185.881 143.689C187.752 143.012 189.815 143.105 191.616 143.949C204.089 149.793 218.011 160.027 229.807 172.031C237.08 179.431 249.756 193.941 252.893 207.926C253.329 209.866 252.976 211.901 251.913 213.581C250.849 215.261 249.162 216.451 247.221 216.887C246.679 217.007 246.126 217.068 245.57 217.07Z" fill="#EFD176"/>
<path d="M467.09 293.227C467.09 221.141 397.434 162.707 311.508 162.707C225.582 162.707 75.3438 221.141 75.3438 293.227C75.3438 365.313 230.578 413.352 311.508 413.352C392.438 413.352 467.09 365.309 467.09 293.227Z" fill="#EEA849"/>
<path d="M262.16 167.738C178.023 183.371 75.3438 233.633 75.3438 293.227C75.3438 365.309 230.578 413.352 311.508 413.352C315.684 413.352 319.84 413.215 323.973 412.965C233.527 359.316 232.75 222.516 262.16 167.738Z" fill="#E9901B"/>
<path d="M280.457 297.465C280.457 282.981 265.715 271.242 247.527 271.242C229.339 271.242 214.6 282.98 214.6 297.465C214.6 311.95 229.342 323.688 247.526 323.688C265.71 323.688 280.457 311.949 280.457 297.465Z" fill="white"/>
<path d="M458.944 297.465C458.944 282.981 444.202 271.242 426.014 271.242C407.826 271.242 393.084 282.98 393.084 297.465C393.084 311.95 407.826 323.688 426.014 323.688C444.202 323.688 458.944 311.949 458.944 297.465Z" fill="white"/>
<path d="M253.035 274C251.046 274 249.138 273.21 247.732 271.803C246.325 270.397 245.535 268.489 245.535 266.5V252.367C245.535 250.378 246.325 248.47 247.732 247.064C249.138 245.657 251.046 244.867 253.035 244.867C255.024 244.867 256.932 245.657 258.338 247.064C259.745 248.47 260.535 250.378 260.535 252.367V266.5C260.535 268.489 259.745 270.397 258.338 271.803C256.932 273.21 255.024 274 253.035 274Z" fill="#4E5660"/>
<path d="M363.321 277.316C363.321 260.91 351.438 259.367 336.774 259.367C322.11 259.367 310.223 260.91 310.223 277.316C310.223 293.722 322.11 307.023 336.774 307.023C351.438 307.023 363.321 293.723 363.321 277.316Z" fill="#4E5660"/>
<path d="M420.512 274C418.523 274 416.615 273.21 415.208 271.803C413.802 270.397 413.012 268.489 413.012 266.5V252.367C413.012 250.378 413.802 248.47 415.208 247.064C416.615 245.657 418.523 244.867 420.512 244.867C422.501 244.867 424.409 245.657 425.815 247.064C427.222 248.47 428.012 250.378 428.012 252.367V266.5C428.012 268.489 427.222 270.397 425.815 271.803C424.409 273.21 422.501 274 420.512 274Z" fill="#4E5660"/>
<path d="M512 146.152C512 155.034 509.366 163.717 504.431 171.103C499.496 178.488 492.482 184.244 484.276 187.643C476.07 191.043 467.04 191.932 458.328 190.199C449.617 188.466 441.614 184.189 435.334 177.908C429.053 171.627 424.776 163.625 423.043 154.913C421.31 146.202 422.199 137.172 425.598 128.966C428.997 120.759 434.754 113.745 442.139 108.811C449.524 103.876 458.207 101.242 467.09 101.242C472.987 101.242 478.827 102.403 484.276 104.66C489.725 106.917 494.676 110.225 498.846 114.395C503.017 118.566 506.325 123.516 508.582 128.965C510.839 134.414 512 140.254 512 146.152Z" fill="#BAE7FF"/>
<path d="M416.513 75.348C416.513 82.1418 414.499 88.7831 410.725 94.4322C406.951 100.081 401.586 104.484 395.31 107.084C389.033 109.685 382.126 110.365 375.463 109.04C368.8 107.715 362.679 104.444 357.875 99.6405C353.071 94.8369 349.799 88.7165 348.473 82.0533C347.147 75.3901 347.827 68.4835 350.426 62.2067C353.026 55.9299 357.428 50.5649 363.077 46.7901C368.726 43.0154 375.367 41.0004 382.161 41C391.271 40.9997 400.008 44.6183 406.45 51.0598C412.892 57.5012 416.512 66.2379 416.513 75.348Z" fill="#BAE7FF"/>
<path d="M407.827 98.164C379.687 102.539 357.249 61.18 372.554 42.371C367.443 43.8579 362.747 46.5126 358.837 50.1254C354.928 53.7382 351.912 58.2103 350.026 63.1887C348.141 68.167 347.439 73.5154 347.975 78.8116C348.512 84.1079 350.272 89.207 353.116 93.7065C355.961 98.206 359.812 101.983 364.367 104.739C368.921 107.494 374.054 109.154 379.36 109.586C384.665 110.019 389.999 109.212 394.939 107.229C399.88 105.247 404.292 102.144 407.827 98.164Z" fill="#8CD6FE"/>
<path d="M199.054 350.746L170.269 394.754C167.874 398.416 164.692 401.497 160.955 403.774C157.219 406.051 153.021 407.466 148.669 407.916C144.317 408.366 139.919 407.84 135.795 406.376C131.672 404.912 127.926 402.548 124.832 399.454C115.685 390.307 110.547 377.901 110.547 364.965C110.547 352.03 115.685 339.624 124.832 330.477L146.922 308.387C152.829 302.479 160.716 298.97 169.059 298.54C177.402 298.109 185.609 300.786 192.093 306.054C198.576 311.323 202.877 318.807 204.163 327.062C205.449 335.317 203.629 343.755 199.055 350.746H199.054Z" fill="#F7EF87"/>
<path d="M149.971 367.742C148.563 367.741 147.184 367.343 145.991 366.594C144.799 365.846 143.841 364.777 143.228 363.509C142.614 362.242 142.37 360.827 142.523 359.427C142.676 358.027 143.22 356.699 144.092 355.594L158.139 337.821C158.75 337.048 159.507 336.403 160.367 335.923C161.227 335.443 162.173 335.136 163.151 335.022C164.129 334.907 165.121 334.986 166.068 335.254C167.016 335.523 167.902 335.975 168.674 336.586C169.447 337.197 170.092 337.953 170.573 338.813C171.053 339.673 171.359 340.619 171.474 341.598C171.588 342.576 171.509 343.567 171.241 344.515C170.973 345.463 170.52 346.348 169.909 347.121L155.858 364.891C155.157 365.78 154.262 366.499 153.242 366.993C152.223 367.487 151.104 367.743 149.971 367.742Z" fill="#EFD176"/>
<path d="M59.8699 272.563C58.7786 272.565 57.7 272.328 56.7101 271.868C55.7201 271.409 54.8429 270.738 54.1399 269.903L40.2839 253.5C38.9998 251.981 38.3717 250.013 38.538 248.031C38.7042 246.049 39.6512 244.214 41.1705 242.929C42.6897 241.645 44.6569 241.017 46.6393 241.183C48.6217 241.35 50.4568 242.297 51.7409 243.816L65.5959 260.216C66.5185 261.308 67.1097 262.641 67.3 264.058C67.4902 265.475 67.2716 266.917 66.6697 268.213C66.0679 269.51 65.108 270.608 63.9031 271.377C62.6982 272.147 61.2985 272.556 59.8689 272.556L59.8699 272.563Z" fill="#EFD176"/>
<path d="M46.0074 345.289C44.5782 345.288 43.179 344.878 41.9747 344.109C40.7704 343.339 39.8111 342.241 39.2098 340.944C38.6085 339.648 38.3901 338.206 38.5805 336.79C38.7709 335.373 39.3621 334.041 40.2844 332.949L54.1394 316.549C54.7707 315.783 55.5477 315.149 56.4256 314.686C57.3034 314.222 58.2646 313.937 59.2533 313.848C60.2421 313.759 61.2387 313.867 62.1854 314.166C63.1321 314.464 64.0101 314.948 64.7684 315.589C65.5268 316.23 66.1504 317.014 66.603 317.898C67.0557 318.782 67.3285 319.746 67.4055 320.736C67.4825 321.726 67.3622 322.721 67.0517 323.664C66.7412 324.607 66.2465 325.479 65.5964 326.229L51.7414 342.629C51.0371 343.463 50.159 344.134 49.1686 344.593C48.1781 345.053 47.0993 345.29 46.0074 345.289Z" fill="#EFD176"/>
<path d="M190.383 257.977C188.572 257.978 186.821 257.321 185.457 256.129C182.753 253.775 180.584 250.868 179.098 247.604C177.613 244.341 176.844 240.797 176.844 237.211C176.844 233.625 177.613 230.081 179.098 226.818C180.584 223.554 182.753 220.647 185.457 218.293C186.957 216.986 188.914 216.329 190.899 216.465C192.883 216.601 194.732 217.52 196.039 219.02C197.346 220.52 198.004 222.477 197.867 224.462C197.731 226.446 196.812 228.295 195.312 229.602C194.223 230.548 193.35 231.717 192.751 233.03C192.153 234.343 191.843 235.769 191.843 237.212C191.843 238.654 192.153 240.08 192.751 241.393C193.35 242.706 194.223 243.875 195.312 244.821C196.464 245.824 197.283 247.156 197.657 248.637C198.032 250.118 197.946 251.678 197.41 253.109C196.874 254.539 195.913 255.772 194.657 256.642C193.402 257.512 191.91 257.978 190.382 257.977H190.383Z" fill="#EEA849"/>
<path d="M120.77 306C118.959 306.003 117.208 305.348 115.844 304.156C113.139 301.802 110.971 298.895 109.485 295.631C107.999 292.368 107.23 288.824 107.23 285.238C107.23 281.652 107.999 278.108 109.485 274.845C110.971 271.581 113.139 268.674 115.844 266.32C117.344 265.013 119.301 264.356 121.285 264.492C123.27 264.628 125.119 265.547 126.426 267.047C127.733 268.547 128.39 270.504 128.254 272.489C128.118 274.473 127.198 276.322 125.699 277.629C124.61 278.575 123.737 279.744 123.138 281.057C122.54 282.37 122.23 283.796 122.23 285.238C122.23 286.681 122.54 288.107 123.138 289.42C123.737 290.733 124.61 291.902 125.699 292.848C126.85 293.852 127.666 295.183 128.04 296.663C128.414 298.143 128.328 299.703 127.792 301.132C127.256 302.562 126.296 303.794 125.041 304.664C123.786 305.534 122.296 306 120.769 306H120.77Z" fill="#EEA849"/>
<path d="M250.055 387.469C248.243 387.472 246.493 386.817 245.129 385.625C242.423 383.271 240.254 380.365 238.767 377.101C237.281 373.838 236.512 370.293 236.512 366.707C236.512 363.121 237.281 359.576 238.767 356.313C240.254 353.049 242.423 350.143 245.129 347.789C246.628 346.482 248.586 345.825 250.57 345.961C252.555 346.097 254.404 347.016 255.711 348.516C257.018 350.016 257.675 351.973 257.539 353.958C257.402 355.942 256.483 357.791 254.984 359.098C253.894 360.044 253.019 361.212 252.42 362.525C251.821 363.838 251.511 365.264 251.511 366.707C251.511 368.151 251.821 369.577 252.42 370.89C253.019 372.203 253.894 373.371 254.984 374.317C256.134 375.321 256.951 376.652 257.325 378.132C257.699 379.612 257.612 381.172 257.077 382.601C256.541 384.031 255.581 385.263 254.326 386.133C253.071 387.003 251.581 387.469 250.054 387.469H250.055Z" fill="#EEA849"/>
<path d="M500.649 175.984C463.86 181.703 434.524 127.629 454.532 103.039C447.849 104.983 441.709 108.454 436.597 113.177C431.485 117.901 427.541 123.748 425.076 130.257C422.611 136.766 421.693 143.759 422.394 150.683C423.095 157.608 425.396 164.275 429.116 170.158C432.835 176.041 437.871 180.979 443.826 184.582C449.78 188.185 456.491 190.355 463.428 190.92C470.366 191.485 477.339 190.43 483.798 187.838C490.258 185.246 496.026 181.188 500.649 175.984Z" fill="#8CD6FE"/>
</svg>
