<svg width="513" height="512" viewBox="0 0 513 512" fill="none" xmlns="http://www.w3.org/2000/svg">
<path d="M70.2744 257.775C69.2896 257.776 68.3143 257.582 67.4048 257.204C66.4952 256.827 65.6692 256.273 64.9744 255.575C58.0503 248.667 48.669 244.788 38.8884 244.788C29.1078 244.788 19.7265 248.667 12.8024 255.575C11.3869 256.935 9.49434 257.686 7.53117 257.667C5.568 257.648 3.69072 256.859 2.30242 255.471C0.914113 254.083 0.125479 252.206 0.105844 250.242C0.08621 248.279 0.837142 246.387 2.1974 244.971C11.9369 235.254 25.133 229.797 38.8909 229.797C52.6488 229.797 65.845 235.254 75.5844 244.971C76.632 246.02 77.3452 247.356 77.6341 248.81C77.9229 250.264 77.7744 251.771 77.2073 253.14C76.6402 254.51 75.6799 255.681 74.4477 256.505C73.2156 257.329 71.7668 257.77 70.2844 257.771L70.2744 257.775Z" fill="#8CD6FE"/>
<path d="M389.903 106.936L394.141 82.8069C395.997 72.2442 401.06 62.5092 408.643 54.926C416.227 47.3427 425.962 42.2791 436.524 40.4239C440.856 39.6627 445.308 39.9563 449.502 41.2801C453.696 42.6039 457.51 44.9187 460.62 48.0287C463.73 51.1387 466.044 54.9522 467.368 59.1464C468.692 63.3407 468.986 67.7921 468.224 72.1239C466.369 82.6866 461.306 92.4216 453.722 100.005C446.139 107.588 436.404 112.652 425.841 114.507L401.712 118.745C400.099 119.028 398.441 118.918 396.879 118.425C395.316 117.932 393.896 117.069 392.738 115.911C391.579 114.752 390.717 113.332 390.223 111.77C389.73 110.208 389.62 108.55 389.903 106.936Z" fill="#8CD6FE"/>
<path d="M413.861 102.287C412.378 102.286 410.929 101.845 409.697 101.021C408.465 100.197 407.505 99.0258 406.938 97.6561C406.371 96.2865 406.222 94.7795 406.511 93.3255C406.8 91.8716 407.513 90.5358 408.561 89.4869L427.291 70.7569C428.708 69.406 430.597 68.6627 432.554 68.6857C434.512 68.7087 436.383 69.4963 437.767 70.8801C439.152 72.264 439.941 74.1345 439.965 76.092C439.99 78.0496 439.248 79.9391 437.898 81.3569L419.168 100.087C418.472 100.785 417.644 101.339 416.734 101.716C415.823 102.094 414.847 102.288 413.861 102.287Z" fill="#BAE7FF"/>
<path d="M338.814 471.119H305.914C300.203 471.119 294.725 468.85 290.687 464.811C286.648 460.773 284.379 455.295 284.379 449.584V341.17H360.352V449.584C360.351 455.296 358.082 460.773 354.043 464.812C350.004 468.851 344.526 471.119 338.814 471.119Z" fill="#8CD6FE"/>
<path d="M324.247 453.162V471.119H338.813C341.641 471.119 344.442 470.562 347.055 469.48C349.668 468.398 352.043 466.812 354.043 464.812C356.043 462.813 357.629 460.439 358.712 457.826C359.794 455.213 360.352 452.412 360.352 449.584V434.584H342.829C337.902 434.584 333.176 436.542 329.691 440.025C326.207 443.509 324.248 448.235 324.247 453.162Z" fill="#383C43"/>
<path d="M260.497 156.232H157.645C142.216 156.232 126.938 159.27 112.683 165.174C98.4286 171.079 85.4764 179.733 74.5662 190.643C63.656 201.553 55.0016 214.505 49.097 228.759C43.1925 243.014 40.1534 258.292 40.1534 273.721V281.092C40.1135 310.101 50.8477 338.091 70.2744 359.635V449.584C70.2743 452.412 70.8312 455.212 71.9134 457.825C72.9956 460.438 74.5819 462.812 76.5816 464.812C78.5813 466.811 80.9554 468.398 83.5682 469.48C86.181 470.562 88.9814 471.119 91.8094 471.119H124.709C127.537 471.119 130.338 470.562 132.951 469.48C135.563 468.398 137.938 466.811 139.937 464.812C141.937 462.812 143.523 460.438 144.605 457.825C145.688 455.212 146.245 452.412 146.244 449.584V398.029C149.998 398.388 153.799 398.58 157.644 398.58H199.031C211.508 413.635 223.687 431.193 233.199 452.463C235.733 458.172 240.284 462.745 245.981 465.304C251.678 467.864 258.12 468.231 264.07 466.334L292.277 457.283C295.116 456.371 297.734 454.881 299.967 452.905C302.2 450.93 303.999 448.513 305.249 445.807C306.5 443.1 307.176 440.164 307.234 437.184C307.292 434.203 306.731 431.243 305.586 428.49C300.811 417.004 295.289 405.844 289.055 395.08C314.462 388.708 337.012 374.031 353.126 353.38C369.239 332.728 377.991 307.286 377.993 281.092V273.721C377.994 258.291 374.955 243.013 369.051 228.757C363.146 214.502 354.491 201.55 343.581 190.64C332.67 179.73 319.717 171.076 305.461 165.172C291.206 159.268 275.927 156.23 260.497 156.232Z" fill="#BAE7FF"/>
<path d="M473.58 149.518C465.781 122.614 449.456 98.9711 427.062 82.1451C404.668 65.319 377.415 56.2203 349.404 56.2179H281.748C247.471 56.2179 214.599 69.8342 190.361 94.0714C166.124 118.309 152.508 151.181 152.508 185.458C152.508 219.734 166.124 252.607 190.361 276.844C214.599 301.082 247.471 314.698 281.748 314.698H421.048C440.352 314.702 459.157 308.563 474.741 297.169C490.324 285.775 501.877 269.718 507.728 251.321C513.578 232.925 513.423 213.144 507.284 194.841C501.145 176.539 489.34 160.665 473.58 149.518Z" fill="#BAE7FF"/>
<path d="M287.635 56.2129H281.748C264.776 56.2129 247.97 59.5558 232.29 66.0507C216.61 72.5456 202.362 82.0654 190.361 94.0664C178.36 106.067 168.841 120.315 162.346 135.995C155.851 151.675 152.508 168.481 152.508 185.453C152.508 202.425 155.851 219.231 162.346 234.911C168.841 250.591 178.36 264.838 190.361 276.839C202.362 288.84 216.61 298.36 232.29 304.855C247.97 311.35 264.776 314.693 281.748 314.693H362.498C258.428 260.553 262.635 117.678 287.635 56.2129Z" fill="#8CD6FE"/>
<path d="M298.63 158.416C298.63 146.635 284.607 137.084 267.31 137.084C250.013 137.084 235.99 146.635 235.99 158.416C235.99 170.197 250.013 179.748 267.31 179.748C284.607 179.748 298.63 170.198 298.63 158.416Z" fill="white"/>
<path d="M468.398 158.416C468.398 146.635 454.375 137.084 437.078 137.084C419.781 137.084 405.758 146.635 405.758 158.416C405.758 170.197 419.778 179.748 437.078 179.748C454.378 179.748 468.398 170.198 468.398 158.416Z" fill="white"/>
<path d="M272.549 140.076C270.56 140.076 268.652 139.286 267.246 137.879C265.839 136.473 265.049 134.565 265.049 132.576V119.131C265.049 117.142 265.839 115.234 267.246 113.828C268.652 112.421 270.56 111.631 272.549 111.631C274.538 111.631 276.446 112.421 277.852 113.828C279.259 115.234 280.049 117.142 280.049 119.131V132.576C280.049 134.565 279.259 136.473 277.852 137.879C276.446 139.286 274.538 140.076 272.549 140.076Z" fill="#4E5660"/>
<path d="M431.842 140.076C429.853 140.076 427.945 139.286 426.539 137.879C425.132 136.473 424.342 134.565 424.342 132.576V119.131C424.342 117.142 425.132 115.234 426.539 113.828C427.945 112.421 429.853 111.631 431.842 111.631C433.831 111.631 435.739 112.421 437.145 113.828C438.552 115.234 439.342 117.142 439.342 119.131V132.576C439.342 134.565 438.552 136.473 437.145 137.879C435.739 139.286 433.831 140.076 431.842 140.076Z" fill="#4E5660"/>
<path d="M366.38 261.861C360.904 261.859 355.491 260.684 350.507 258.415C345.523 256.146 341.083 252.835 337.485 248.705C336.179 247.205 335.521 245.248 335.657 243.263C335.794 241.279 336.713 239.43 338.212 238.123C339.712 236.816 341.669 236.159 343.654 236.295C345.638 236.431 347.488 237.35 348.794 238.85C350.982 241.366 353.683 243.383 356.717 244.765C359.75 246.148 363.045 246.863 366.378 246.863C369.712 246.863 373.007 246.148 376.04 244.765C379.074 243.383 381.775 241.366 383.962 238.85C385.269 237.35 387.119 236.43 389.103 236.294C391.088 236.157 393.046 236.814 394.546 238.121C396.047 239.428 396.966 241.277 397.103 243.262C397.24 245.247 396.582 247.205 395.275 248.705C391.678 252.834 387.238 256.145 382.254 258.414C377.269 260.684 371.857 261.859 366.38 261.861Z" fill="#4E5660"/>
<path d="M200.353 118.744L176.224 114.506C165.661 112.65 155.927 107.586 148.344 100.003C140.761 92.4198 135.697 82.6853 133.841 72.1229C133.08 67.7912 133.374 63.3399 134.697 59.1457C136.021 54.9516 138.336 51.1382 141.446 48.0283C144.556 44.9183 148.369 42.6035 152.563 41.2796C156.758 39.9558 161.209 39.6619 165.541 40.4229C176.104 42.2771 185.839 47.3403 193.423 54.9237C201.006 62.5072 206.07 72.2428 207.924 82.8059L212.162 106.935C212.445 108.549 212.335 110.207 211.842 111.769C211.348 113.331 210.486 114.751 209.328 115.91C208.169 117.068 206.749 117.931 205.187 118.424C203.624 118.917 201.966 119.027 200.353 118.744Z" fill="#BAE7FF"/>
<path d="M188.204 102.287C187.22 102.287 186.244 102.093 185.335 101.716C184.425 101.338 183.599 100.785 182.904 100.087L164.17 81.357C163.474 80.6604 162.922 79.8335 162.545 78.9234C162.168 78.0134 161.974 77.038 161.975 76.0531C161.975 75.0681 162.169 74.0928 162.546 73.1829C162.923 72.273 163.476 71.4463 164.172 70.75C164.869 70.0536 165.696 69.5013 166.606 69.1246C167.516 68.7478 168.491 68.554 169.476 68.5542C170.461 68.5544 171.437 68.7486 172.346 69.1257C173.256 69.5028 174.083 70.0554 174.779 70.752L193.509 89.482C194.557 90.5308 195.27 91.8666 195.559 93.3206C195.848 94.7746 195.699 96.2816 195.132 97.6512C194.565 99.0208 193.605 100.192 192.373 101.016C191.141 101.84 189.692 102.281 188.209 102.282L188.204 102.287Z" fill="#8CD6FE"/>
<path d="M305.584 428.49C303.838 424.283 302.021 420.186 300.135 416.201L284.725 422.139C282.447 423.016 280.365 424.333 278.596 426.014C276.828 427.696 275.408 429.71 274.418 431.94C273.428 434.171 272.888 436.575 272.827 439.014C272.766 441.454 273.187 443.882 274.065 446.159L279.881 461.259L292.281 457.282C295.118 456.369 297.736 454.878 299.968 452.903C302.2 450.927 303.998 448.51 305.248 445.804C306.498 443.098 307.174 440.162 307.231 437.182C307.289 434.202 306.728 431.242 305.584 428.49Z" fill="#4E5660"/>
<path d="M331.149 202.174C329.16 202.174 327.252 201.384 325.846 199.977C324.439 198.571 323.649 196.663 323.649 194.674C323.626 192.719 322.834 190.852 321.443 189.477C320.053 188.103 318.177 187.332 316.221 187.332C314.266 187.332 312.39 188.103 311 189.477C309.609 190.852 308.817 192.719 308.794 194.674C308.794 196.663 308.004 198.571 306.597 199.977C305.191 201.384 303.283 202.174 301.294 202.174C299.305 202.174 297.397 201.384 295.991 199.977C294.584 198.571 293.794 196.663 293.794 194.674C293.833 188.752 296.214 183.086 300.415 178.912C304.617 174.738 310.299 172.396 316.221 172.396C322.144 172.396 327.826 174.738 332.027 178.912C336.229 183.086 338.609 188.752 338.649 194.674C338.649 196.663 337.859 198.571 336.452 199.977C335.046 201.384 333.138 202.174 331.149 202.174Z" fill="#8CD6FE"/>
<path d="M431.462 202.174C429.473 202.174 427.566 201.384 426.159 199.977C424.753 198.571 423.962 196.663 423.962 194.674C423.962 192.704 423.18 190.816 421.787 189.423C420.395 188.03 418.506 187.248 416.536 187.248C414.567 187.248 412.678 188.03 411.285 189.423C409.893 190.816 409.11 192.704 409.11 194.674C409.11 196.663 408.32 198.571 406.914 199.977C405.507 201.384 403.599 202.174 401.61 202.174C399.621 202.174 397.714 201.384 396.307 199.977C394.901 198.571 394.11 196.663 394.11 194.674C394.11 188.726 396.473 183.022 400.679 178.816C404.884 174.611 410.589 172.248 416.536 172.248C422.484 172.248 428.188 174.611 432.394 178.816C436.6 183.022 438.962 188.726 438.962 194.674C438.962 196.663 438.172 198.571 436.766 199.977C435.359 201.384 433.451 202.174 431.462 202.174Z" fill="#8CD6FE"/>
<path d="M110.143 453.162V471.119H124.709C127.537 471.119 130.337 470.562 132.95 469.48C135.563 468.398 137.937 466.812 139.936 464.812C141.936 462.812 143.522 460.438 144.605 457.825C145.687 455.212 146.244 452.412 146.244 449.584V434.584H128.724C123.796 434.585 119.071 436.542 115.586 440.026C112.102 443.51 110.144 448.235 110.143 453.162Z" fill="#4E5660"/>
</svg>
