<svg width="512" height="512" viewBox="0 0 512 512" fill="none" xmlns="http://www.w3.org/2000/svg">
<path d="M400.066 3.992C403.215 3.52783 406.431 4.01949 409.297 5.40333C412.164 6.78718 414.549 8.99951 416.144 11.754C456.476 81.797 418.144 145.895 418.144 145.895L332.8 46.434C346.249 15.68 382.1 6.634 400.07 3.993L400.066 3.992Z" fill="#DE8957"/>
<path d="M112.18 3.99194C109.032 3.52863 105.817 4.02069 102.951 5.4045C100.085 6.7883 97.7008 9.00016 96.1059 11.7539C55.7739 81.7969 94.1059 145.895 94.1059 145.895L179.45 46.4339C166 15.6799 130.156 6.62895 112.18 3.99194Z" fill="#DE8957"/>
<path d="M428.941 119.238C414.632 89.6601 396.141 65.7111 373.781 47.9381C364.673 40.6919 354.837 34.4121 344.43 29.2001C339.548 34.1978 335.608 40.0362 332.8 46.4341L418.144 145.895C418.144 145.895 424.18 135.793 428.941 119.238Z" fill="#C76D33"/>
<path d="M94.1051 145.895L179.449 46.4341C176.642 40.0352 172.701 34.1966 167.816 29.2001C157.41 34.4108 147.573 40.6893 138.465 47.9341C116.11 65.7111 97.6171 89.6611 83.3091 119.234C88.0701 135.793 94.1051 145.895 94.1051 145.895Z" fill="#C76D33"/>
<path d="M155.176 64.027C149.86 51.875 134.976 45.242 122.199 41.927C113.529 60.7486 110.736 81.7477 114.187 102.181C117.367 121.974 124.781 135.021 124.851 135.142L155.176 64.027Z" fill="#EDB798"/>
<path d="M357.07 64.027C362.386 51.875 377.27 45.242 390.05 41.927C398.721 60.7485 401.512 81.7481 398.058 102.181C394.878 121.974 387.468 135.021 387.394 135.142L357.07 64.027Z" fill="#EDB798"/>
<path d="M398.059 102.184C399.688 92.2537 399.896 82.1419 398.676 72.153C391.196 63.307 382.875 55.2089 373.828 47.973C366.535 51.743 360.172 56.942 357.07 64.032L387.394 135.149C387.469 135.023 394.879 121.977 398.059 102.184Z" fill="#E8A882"/>
<path d="M124.852 135.145L155.176 64.027C152.076 56.941 145.715 51.742 138.418 47.972C129.372 55.209 121.051 63.3069 113.57 72.152C112.35 82.141 112.558 92.2527 114.187 102.183C117.367 121.977 124.781 135.023 124.852 135.145Z" fill="#E8A882"/>
<path d="M81.891 392.035C72.773 367.188 68 339.609 68 310.438C68 239.117 77.3 30.3201 256.125 30.3201C434.95 30.3201 444.246 239.12 444.246 310.437C444.246 339.609 439.473 367.187 430.355 392.037L81.891 392.035Z" fill="#DE8957"/>
<path d="M256.125 30.3201C77.3 30.3201 68 239.117 68 310.438C68 338.126 72.336 366.001 81.891 392.038H112.8C103.683 367.19 98.909 339.612 98.909 310.438C98.909 243.473 107.109 55.3251 256.128 32.5861L256.125 30.3201Z" fill="#C76D33"/>
<path d="M430.355 392.035C404.266 463.18 342.691 512 256.125 512C169.559 512 107.98 463.18 81.8911 392.035C118.938 331.711 183.137 291.835 256.125 291.835C329.113 291.835 393.309 331.711 430.355 392.035Z" fill="#EDB798"/>
<path d="M112.8 392.035C109.209 382.204 106.326 372.129 104.171 361.887C95.902 371.285 88.4493 381.371 81.894 392.035C83.562 396.578 89.179 409.435 90.16 411.435C119.746 471.906 177.672 512 256.125 512C258.725 512 261.332 511.863 263.934 511.863C266.504 511.773 269.052 511.64 271.579 511.463C193.133 506 137.309 458.871 112.8 392.035Z" fill="#E8A882"/>
<path d="M256.125 458.57C251.259 458.606 246.442 457.601 241.996 455.623C237.55 453.644 233.579 450.739 230.348 447.1C229.68 446.336 229.169 445.448 228.844 444.487C228.52 443.526 228.387 442.51 228.455 441.497C228.523 440.485 228.79 439.496 229.24 438.587C229.69 437.677 230.315 436.865 231.079 436.198C231.842 435.53 232.73 435.019 233.692 434.694C234.653 434.369 235.669 434.237 236.681 434.305C237.693 434.373 238.683 434.639 239.592 435.089C240.501 435.539 241.313 436.164 241.981 436.928C243.784 438.88 245.971 440.437 248.405 441.502C250.839 442.568 253.467 443.118 256.124 443.118C258.78 443.118 261.408 442.568 263.842 441.502C266.276 440.437 268.463 438.88 270.266 436.928C271.615 435.385 273.521 434.442 275.566 434.304C277.611 434.167 279.626 434.848 281.169 436.197C282.712 437.546 283.656 439.452 283.793 441.497C283.93 443.542 283.249 445.557 281.9 447.1C278.67 450.739 274.699 453.645 270.253 455.623C265.808 457.602 260.991 458.606 256.125 458.57Z" fill="#423E4F"/>
<path d="M327.043 409.7C321.617 404.274 310.918 406.173 303.143 413.942C295.368 421.711 293.475 432.411 298.905 437.842C304.335 443.273 315.03 441.369 322.8 433.6C330.57 425.831 332.473 415.133 327.043 409.7Z" fill="#423E4F"/>
<path d="M209.094 413.945C201.321 406.172 190.621 404.273 185.194 409.703C179.767 415.133 181.663 425.828 189.436 433.603C197.209 441.378 207.905 443.271 213.331 437.841C218.757 432.411 216.863 421.715 209.094 413.945Z" fill="#423E4F"/>
<path d="M378.1 295.6H360.957C358.923 295.577 356.98 294.753 355.55 293.306C354.12 291.86 353.318 289.908 353.318 287.874C353.318 285.839 354.12 283.887 355.55 282.441C356.98 280.994 358.923 280.17 360.957 280.147H378.1C380.134 280.17 382.077 280.994 383.507 282.441C384.937 283.887 385.739 285.839 385.739 287.874C385.739 289.908 384.937 291.86 383.507 293.306C382.077 294.753 380.134 295.577 378.1 295.6Z" fill="#FF9DB0"/>
<path d="M356.578 274.277C355.563 274.277 354.558 274.077 353.621 273.689C352.683 273.301 351.831 272.732 351.114 272.014C350.396 271.297 349.827 270.445 349.439 269.507C349.051 268.57 348.851 267.565 348.851 266.55V249.977C348.874 247.943 349.698 246 351.145 244.57C352.591 243.14 354.543 242.338 356.578 242.338C358.612 242.338 360.564 243.14 362.01 244.57C363.457 246 364.281 247.943 364.304 249.977V266.551C364.303 268.6 363.489 270.565 362.04 272.013C360.592 273.462 358.627 274.276 356.578 274.277Z" fill="#423E4F"/>
<path d="M151.289 295.6H134.145C132.111 295.577 130.168 294.753 128.738 293.306C127.308 291.86 126.506 289.908 126.506 287.874C126.506 285.839 127.308 283.887 128.738 282.441C130.168 280.994 132.111 280.17 134.145 280.147H151.289C153.323 280.17 155.266 280.994 156.696 282.441C158.126 283.887 158.928 285.839 158.928 287.874C158.928 289.908 158.126 291.86 156.696 293.306C155.266 294.753 153.323 295.577 151.289 295.6Z" fill="#FF9DB0"/>
<path d="M155.672 274.277C153.623 274.277 151.658 273.462 150.209 272.013C148.76 270.564 147.946 268.599 147.945 266.55V249.977C147.968 247.943 148.792 246 150.239 244.57C151.685 243.14 153.637 242.338 155.672 242.338C157.706 242.338 159.658 243.14 161.104 244.57C162.551 246 163.375 247.943 163.398 249.977V266.551C163.397 268.6 162.583 270.565 161.134 272.013C159.686 273.462 157.721 274.276 155.672 274.277Z" fill="#423E4F"/>
<path d="M324.613 65.3281C323.777 47.6344 316.125 30.9508 303.261 18.7731C290.398 6.59536 273.321 -0.131581 255.608 0.00169919C237.895 0.13498 220.92 7.11814 208.242 19.4881C195.563 31.858 188.163 48.6548 187.593 66.3591C187.546 67.8281 187.499 69.2971 187.32 70.7591C183.937 98.6971 167.578 116.286 155.42 125.716C154.406 126.505 153.648 127.576 153.241 128.795C152.834 130.013 152.795 131.325 153.13 132.565C153.465 133.805 154.159 134.919 155.124 135.766C156.09 136.614 157.284 137.158 158.557 137.329C220.838 145.45 251.42 116.755 262.327 102.88C262.655 102.463 263.11 102.164 263.623 102.028C264.136 101.892 264.679 101.926 265.171 102.126C265.662 102.326 266.076 102.68 266.348 103.136C266.621 103.591 266.738 104.122 266.682 104.65C265.842 112.548 263.895 120.288 260.897 127.642C260.478 128.676 260.343 129.804 260.507 130.907C260.671 132.011 261.128 133.051 261.83 133.918C262.531 134.786 263.452 135.449 264.497 135.841C265.542 136.232 266.673 136.336 267.772 136.142C284.251 133.298 299.123 124.531 309.591 111.49C320.059 98.4485 325.401 82.0321 324.613 65.3281Z" fill="#4F4C5F"/>
<path d="M218.227 70.7581C218.407 69.2971 218.454 67.828 218.5 66.3631C218.99 51.252 224.459 36.7264 234.057 25.0449C243.656 13.3635 256.845 5.18104 271.574 1.77005C261.703 -0.52061 251.447 -0.59347 241.544 1.55672C231.641 3.70691 222.339 8.02663 214.307 14.2047C206.274 20.3828 199.712 28.2654 195.093 37.2848C190.474 46.3041 187.913 56.2357 187.594 66.3641C187.547 67.829 187.5 69.3021 187.324 70.7591C183.937 98.7001 167.578 116.286 155.418 125.716C154.404 126.506 153.646 127.577 153.239 128.796C152.832 130.014 152.794 131.326 153.129 132.566C153.465 133.807 154.159 134.92 155.125 135.768C156.091 136.615 157.285 137.158 158.559 137.329C168.4 138.655 178.345 139.039 188.259 138.477C200.148 127.379 215.016 97.2461 218.227 70.7581Z" fill="#423E4F"/>
</svg>
