<svg width="512" height="512" viewBox="0 0 512 512" fill="none" xmlns="http://www.w3.org/2000/svg">
<path d="M129.508 495.016C123.896 495.02 118.439 493.173 113.983 489.761C109.528 486.348 106.323 481.562 104.864 476.142C103.406 470.723 103.776 464.974 105.917 459.786C108.059 454.599 111.851 450.263 116.708 447.45C140.372 433.75 154.896 410.095 162.423 373.005C169.611 337.564 168.751 296.305 167.993 259.905C167.763 248.805 167.544 238.323 167.544 228.257C167.662 221.573 170.4 215.203 175.169 210.518C179.938 205.834 186.355 203.209 193.04 203.209C199.725 203.209 206.142 205.834 210.911 210.518C215.679 215.203 218.417 221.573 218.536 228.257C218.536 237.792 218.751 248.019 218.974 258.843C220.611 337.378 222.853 444.929 142.255 491.585C138.383 493.833 133.985 495.017 129.508 495.016Z" fill="#EFD176"/>
<path d="M443.656 404.125C426.266 404.214 409.217 399.309 394.535 389.992C349.09 361.242 332.894 297.547 332.894 247.519C332.894 240.756 335.58 234.27 340.362 229.488C345.144 224.706 351.631 222.019 358.394 222.019C365.157 222.019 371.643 224.706 376.425 229.488C381.207 234.27 383.894 240.756 383.894 247.519C383.894 292.619 399.124 332.554 421.8 346.898C436 355.875 453.585 355.171 475.577 344.746C481.672 341.957 488.62 341.68 494.917 343.975C501.215 346.27 506.356 350.952 509.228 357.009C512.099 363.065 512.471 370.009 510.262 376.337C508.053 382.666 503.441 387.87 497.425 390.824C477.051 400.484 459.117 404.125 443.656 404.125Z" fill="#F7EF87"/>
<path d="M46.18 427.145C40.9625 427.147 35.87 425.548 31.5897 422.565C27.3094 419.581 24.0472 415.357 22.2434 410.461C20.4395 405.565 20.1809 400.234 21.5023 395.187C22.8237 390.139 25.6616 385.619 29.633 382.235C48.469 366.192 62.188 339.868 70.414 303.989C77.09 274.868 78.488 246.333 78.488 227.52C78.488 220.757 81.1746 214.271 85.9568 209.489C90.739 204.707 97.225 202.02 103.988 202.02C110.751 202.02 117.237 204.707 122.019 209.489C126.801 214.271 129.488 220.757 129.488 227.52C129.488 248.961 127.863 281.61 120.121 315.383C109.391 362.183 90.07 397.742 62.703 421.055C58.0988 424.992 52.238 427.152 46.18 427.145Z" fill="#F7EF87"/>
<path d="M316.926 493.254C312.503 493.259 308.155 492.113 304.309 489.928C300.463 487.743 297.253 484.595 294.992 480.793C259.34 420.9 259.449 311.395 259.5 258.77V253.75C259.619 247.066 262.357 240.696 267.125 236.011C271.894 231.327 278.311 228.702 284.996 228.702C291.681 228.702 298.098 231.327 302.867 236.011C307.636 240.696 310.374 247.066 310.492 253.75V258.82C310.449 303.129 310.347 406.894 338.808 454.707C341.11 458.576 342.346 462.986 342.392 467.488C342.438 471.99 341.291 476.424 339.068 480.34C336.846 484.255 333.626 487.512 329.737 489.78C325.848 492.049 321.427 493.247 316.925 493.254H316.926Z" fill="#EFD176"/>
<path d="M433.293 227.184C487.141 95 382.988 16 239.023 16C95.0581 16 -9.09986 95 44.7541 227.184H433.293Z" fill="#F7EF87"/>
<path d="M202.727 17.762C78.2659 30.043 -4.44915 106.4 44.7538 227.184H180.454C138.09 166.863 140.5 76.977 202.727 17.762Z" fill="#EFD176"/>
<path d="M308.8 45.211C308.8 46.7207 308.353 48.1964 307.514 49.4517C306.675 50.7069 305.483 51.6853 304.088 52.263C302.693 52.8407 301.159 52.9919 299.678 52.6973C298.197 52.4028 296.837 51.6758 295.77 50.6083C294.702 49.5409 293.975 48.1808 293.681 46.7001C293.386 45.2195 293.537 43.6847 294.115 42.29C294.693 40.8952 295.671 39.7031 296.927 38.8644C298.182 38.0257 299.658 37.578 301.167 37.578C302.17 37.5776 303.162 37.7748 304.089 38.1582C305.015 38.5417 305.857 39.1039 306.565 39.8128C307.274 40.5216 307.837 41.3633 308.22 42.2895C308.603 43.2158 308.801 44.2085 308.8 45.211Z" fill="#EFD176"/>
<path d="M75.0774 170.742C75.077 172.251 74.6292 173.726 73.7905 174.981C72.9519 176.235 71.7601 177.213 70.3658 177.791C68.9715 178.368 67.4373 178.519 65.9572 178.224C64.4771 177.93 63.1176 177.203 62.0505 176.136C60.9834 175.069 60.2567 173.709 59.9622 172.229C59.6677 170.749 59.8186 169.215 60.3959 167.821C60.9732 166.426 61.951 165.235 63.2056 164.396C64.4602 163.557 65.9353 163.109 67.4444 163.109C68.4469 163.109 69.4397 163.306 70.3659 163.689C71.2922 164.073 72.1338 164.635 72.8427 165.344C73.5515 166.053 74.1138 166.894 74.4972 167.821C74.8807 168.747 75.0778 169.74 75.0774 170.742Z" fill="#F7EF87"/>
<path d="M340.527 57.473C340.526 58.9821 340.078 60.4572 339.24 61.7118C338.401 62.9664 337.209 63.9441 335.815 64.5215C334.421 65.0988 332.887 65.2498 331.406 64.9552C329.926 64.6607 328.567 63.934 327.5 62.8669C326.433 61.7998 325.706 60.4403 325.411 58.9602C325.117 57.4801 325.268 55.9459 325.845 54.5516C326.422 53.1573 327.4 51.9655 328.655 51.1269C329.909 50.2882 331.385 49.8404 332.894 49.84C334.918 49.8402 336.859 50.6445 338.291 52.0759C339.722 53.5073 340.526 55.4486 340.527 57.473Z" fill="#EFD176"/>
<path d="M425.18 151.184C425.18 152.693 424.732 154.168 423.893 155.423C423.054 156.677 421.863 157.655 420.468 158.233C419.074 158.81 417.54 158.961 416.06 158.666C414.58 158.372 413.22 157.645 412.153 156.578C411.086 155.511 410.359 154.151 410.065 152.671C409.77 151.191 409.921 149.657 410.498 148.263C411.076 146.868 412.054 145.677 413.308 144.838C414.563 143.999 416.038 143.551 417.547 143.551C418.549 143.551 419.542 143.748 420.468 144.131C421.395 144.515 422.236 145.077 422.945 145.786C423.654 146.495 424.216 147.336 424.6 148.263C424.983 149.189 425.18 150.182 425.18 151.184Z" fill="#EFD176"/>
<path d="M443.207 282.129C307.69 300.309 170.352 300.309 34.8356 282.129C29.6061 281.427 24.5659 279.702 20.003 277.053C15.4401 274.403 11.4437 270.881 8.24209 266.686C1.77612 258.216 -1.06019 247.524 0.357129 236.962C1.77445 226.401 7.32929 216.835 15.7996 210.369C24.27 203.903 34.962 201.067 45.5236 202.484C173.948 219.711 304.099 219.711 432.524 202.484C443.085 201.067 453.777 203.903 462.248 210.369C470.718 216.835 476.273 226.401 477.69 236.962C479.107 247.524 476.271 258.216 469.805 266.686C463.339 275.157 453.773 280.712 443.212 282.129H443.207Z" fill="#EEA849"/>
<path d="M232.941 215.379C170.256 215.121 107.653 210.814 45.5229 202.484C40.2933 201.782 34.9768 202.117 29.8767 203.47C24.7767 204.823 19.9931 207.168 15.7991 210.369C11.605 213.571 8.08265 217.567 5.43308 222.13C2.78351 226.693 1.05862 231.733 0.356905 236.963C-0.344813 242.193 -0.0096209 247.509 1.34334 252.609C2.69631 257.709 5.04055 262.493 8.24222 266.687C11.4439 270.881 15.4403 274.403 20.0032 277.053C24.5662 279.702 29.6063 281.427 34.8359 282.129C105.977 291.671 177.7 296.214 249.477 295.723C216.516 279.684 217.426 234.809 232.941 215.379Z" fill="#E9901B"/>
<path d="M134.23 265.988C134.07 265.988 133.91 265.988 133.746 265.972C107.879 264.327 72.2188 260.988 55.0458 257.546C54.0755 257.357 53.1522 256.978 52.3289 256.431C51.5056 255.883 50.7986 255.179 50.2486 254.357C49.6986 253.536 49.3164 252.614 49.1239 251.644C48.9315 250.675 48.9327 249.677 49.1273 248.707C49.322 247.738 49.7064 246.817 50.2583 245.997C50.8103 245.177 51.5189 244.474 52.3434 243.929C53.168 243.383 54.0922 243.006 55.0629 242.82C56.0336 242.633 57.0317 242.64 57.9998 242.84C73.7578 245.996 108.512 249.34 134.7 251C136.653 251.11 138.487 251.979 139.809 253.422C141.13 254.865 141.836 256.767 141.775 258.723C141.713 260.678 140.89 262.533 139.481 263.89C138.072 265.248 136.187 266 134.231 265.988H134.23Z" fill="#EEA849"/>
<path d="M331.363 251.379C329.406 251.372 327.529 250.601 326.133 249.23C324.737 247.858 323.932 245.996 323.89 244.039C323.849 242.083 324.573 240.187 325.91 238.757C327.246 237.328 329.088 236.477 331.043 236.387C347.457 235.672 378.363 232.719 401.711 230.11C403.688 229.889 405.672 230.463 407.226 231.705C408.781 232.947 409.778 234.756 409.998 236.733C410.219 238.71 409.645 240.694 408.403 242.248C407.161 243.802 405.352 244.799 403.375 245.02C381.504 247.461 349.609 250.59 331.695 251.372C331.586 251.375 331.473 251.379 331.363 251.379Z" fill="#E9901B"/>
<path d="M170.633 155.211C170.633 137.625 152.733 123.367 130.645 123.367C108.557 123.367 90.6572 137.625 90.6572 155.211C90.6572 172.797 108.557 187.055 130.645 187.055C152.733 187.055 170.633 172.8 170.633 155.211Z" fill="#EDA1AB"/>
<path d="M387.391 155.211C387.391 137.625 369.485 123.367 347.399 123.367C325.313 123.367 307.411 137.625 307.411 155.211C307.411 172.797 325.317 187.055 347.399 187.055C369.481 187.055 387.391 172.8 387.391 155.211Z" fill="#EDA1AB"/>
<path d="M271.261 130.742C271.261 110.816 256.827 108.942 239.023 108.942C221.219 108.942 206.781 110.813 206.781 130.742C206.781 150.671 221.215 166.82 239.023 166.82C256.831 166.82 271.261 150.668 271.261 130.742Z" fill="#4E5660"/>
<path d="M170.445 126.574C168.456 126.574 166.548 125.784 165.141 124.377C163.735 122.971 162.945 121.063 162.945 119.074C162.945 115.994 161.721 113.041 159.544 110.863C157.366 108.686 154.413 107.463 151.333 107.463C148.254 107.463 145.3 108.686 143.123 110.863C140.945 113.041 139.722 115.994 139.722 119.074C139.722 121.063 138.932 122.971 137.525 124.377C136.118 125.784 134.211 126.574 132.222 126.574C130.233 126.574 128.325 125.784 126.918 124.377C125.512 122.971 124.722 121.063 124.722 119.074C124.722 112.016 127.525 105.247 132.516 100.257C137.507 95.2662 144.275 92.4625 151.333 92.4625C158.391 92.4625 165.16 95.2662 170.15 100.257C175.141 105.247 177.945 112.016 177.945 119.074C177.945 121.063 177.155 122.971 175.748 124.377C174.341 125.784 172.434 126.574 170.445 126.574Z" fill="#4E5660"/>
<path d="M345.82 126.574C343.831 126.574 341.923 125.784 340.516 124.377C339.11 122.971 338.32 121.063 338.32 119.074C338.32 115.994 337.096 113.041 334.919 110.863C332.741 108.686 329.788 107.463 326.708 107.463C323.629 107.463 320.675 108.686 318.498 110.863C316.32 113.041 315.097 115.994 315.097 119.074C315.097 121.063 314.307 122.971 312.9 124.377C311.493 125.784 309.586 126.574 307.597 126.574C305.608 126.574 303.7 125.784 302.293 124.377C300.887 122.971 300.097 121.063 300.097 119.074C300.097 112.016 302.9 105.247 307.891 100.257C312.882 95.2662 319.65 92.4625 326.708 92.4625C333.766 92.4625 340.535 95.2662 345.525 100.257C350.516 105.247 353.32 112.016 353.32 119.074C353.32 121.063 352.53 122.971 351.123 124.377C349.716 125.784 347.809 126.574 345.82 126.574Z" fill="#4E5660"/>
</svg>
