<svg width="512" height="512" viewBox="0 0 512 512" fill="none" xmlns="http://www.w3.org/2000/svg">
<path d="M468.855 0.0220265C475.249 -0.221047 481.514 1.8631 486.489 5.8879C491.463 9.9127 494.809 15.605 495.906 21.909C504.492 71.186 513.539 189.854 414.793 237.889L329.23 86.846C329.23 86.846 341.164 5.12703 468.855 0.0220265Z" fill="#DE8957"/>
<path d="M42.9998 0.0219192C36.6056 -0.222045 30.34 1.86164 25.3655 5.88639C20.3909 9.91114 17.0451 15.6037 15.9488 21.9079C7.35881 71.1849 -1.68419 189.853 97.0578 237.888L182.621 86.8459C182.621 86.8459 170.688 5.12692 42.9998 0.0219192Z" fill="#DE8957"/>
<path d="M446.039 189.397C442.45 159.693 431.956 131.243 415.398 106.323C398.84 81.4029 376.677 60.7059 350.684 45.8889C332.172 66.7639 329.23 86.8459 329.23 86.8459L414.793 237.889C428.425 231.341 440.957 222.713 451.938 212.315C448.98 204.966 446.997 197.261 446.039 189.397Z" fill="#C76D33"/>
<path d="M65.8128 189.402C64.8535 197.266 62.87 204.97 59.9128 212.32C70.8961 222.715 83.4271 231.341 97.0578 237.89L182.621 86.8499C182.621 86.8499 179.68 66.7679 161.168 45.8929C135.173 60.7083 113.009 81.405 96.4508 106.325C79.8924 131.246 69.3996 159.698 65.8128 189.402Z" fill="#C76D33"/>
<path d="M132.23 74.6899C119.773 63.5609 102.14 55.7839 80.1438 51.5609C77.7378 51.1086 75.2631 51.1716 72.8833 51.7459C70.5034 52.3202 68.2723 53.3926 66.3373 54.8925C64.4023 56.3923 62.8074 58.2854 61.6577 60.4469C60.5081 62.6084 59.8298 64.9891 59.6678 67.4319C58.8714 79.0552 58.878 90.7195 59.6878 102.342C61.4338 126.307 66.8558 147.03 75.8048 163.932C86.2618 183.686 101.41 198.186 122.118 208.26L149.489 101.06C149.371 100.51 146.488 87.4279 132.23 74.6899Z" fill="#F5D5C4"/>
<path d="M379.621 74.6899C392.078 63.5609 409.711 55.7839 431.711 51.5609C434.117 51.1083 436.591 51.1711 438.971 51.7453C441.351 52.3194 443.582 53.3919 445.517 54.8918C447.452 56.3917 449.046 58.285 450.196 60.4466C451.345 62.6083 452.022 64.9891 452.184 67.4319C452.98 79.0552 452.974 90.7194 452.168 102.342C450.422 126.307 444.996 147.03 436.051 163.932C425.594 183.686 410.446 198.186 389.739 208.26L362.368 101.06C362.48 100.51 365.363 87.4279 379.621 74.6899Z" fill="#F5D5C4"/>
<path d="M391.109 76.6899C389.007 74.5959 386.863 72.5569 384.675 70.5729C382.905 71.8929 381.22 73.2652 379.62 74.6899C365.362 87.4319 362.479 100.51 362.362 101.061L389.733 208.261C410.44 198.187 425.588 183.687 436.046 163.937C437.21 161.737 438.314 159.47 439.359 157.137C430.269 126.703 413.678 99.0399 391.109 76.6899Z" fill="#EDB798"/>
<path d="M72.4918 157.135C73.5345 159.463 74.6388 161.73 75.8048 163.935C86.2618 183.689 101.41 198.189 122.118 208.263L149.489 101.063C149.372 100.512 146.489 87.43 132.231 74.692C130.631 73.266 128.946 71.8936 127.176 70.575C124.996 72.5596 122.851 74.5986 120.742 76.692C98.1749 99.0419 81.5839 126.703 72.4918 157.135Z" fill="#EDB798"/>
<path d="M432.395 242.334C423.349 227.279 417.544 210.502 415.352 193.076C411.092 157.283 394.86 123.981 369.29 98.5759C306.899 36.3759 204.954 36.3759 142.563 98.5759C116.994 123.983 100.762 157.284 96.4998 193.076C94.307 210.501 88.5038 227.278 79.4608 242.334C60.7042 273.939 50.8332 310.023 50.8908 346.775C50.8868 460.018 142.688 512.002 255.926 512.002C369.164 512.002 460.965 460.018 460.965 346.775C461.02 310.024 451.15 273.94 432.395 242.334Z" fill="#E8A882"/>
<path d="M81.7928 346.775C81.7372 310.024 91.6081 273.94 110.363 242.334C119.409 227.279 125.211 210.502 127.4 193.076C131.75 156.746 148.408 123.002 174.603 97.4563C200.799 71.911 234.951 56.1056 271.379 52.6699C229.658 48.552 187.984 60.9452 155.292 87.1923C122.601 113.439 101.495 151.45 96.4998 193.076C94.3057 210.502 88.5011 227.278 79.4568 242.334C60.7003 273.939 50.8293 310.023 50.8868 346.775C50.8868 460.018 142.688 512.002 255.926 512.002C261.126 512.002 266.277 511.891 271.379 511.67C165.359 507.096 81.7928 454.818 81.7928 346.775Z" fill="#DE8957"/>
<path d="M286.109 263.557C296.57 268.569 305.618 276.11 312.434 285.496C319.25 294.883 323.619 305.82 325.148 317.319L328.363 341.499C329.677 351.36 328.868 361.389 325.991 370.913C323.114 380.436 318.235 389.235 311.682 396.72C305.128 404.205 297.051 410.204 287.99 414.313C278.93 418.423 269.097 420.549 259.148 420.55H252.7C242.752 420.549 232.919 418.422 223.859 414.313C214.799 410.203 206.722 404.205 200.169 396.72C193.616 389.236 188.737 380.437 185.86 370.914C182.984 361.391 182.175 351.363 183.488 341.502L186.699 317.322C188.232 305.824 192.604 294.889 199.421 285.503C206.237 276.117 215.283 268.576 225.742 263.56L286.109 263.557Z" fill="#F5D5C4"/>
<path d="M286.109 263.557C284.557 270.403 280.725 276.518 275.24 280.898C269.756 285.279 262.945 287.665 255.925 287.665C248.906 287.665 242.095 285.279 236.611 280.898C231.126 276.518 227.293 270.403 225.742 263.557C235.165 259.047 245.479 256.705 255.925 256.705C266.372 256.705 276.686 259.047 286.109 263.557Z" fill="#423E4F"/>
<path d="M289.645 307.568C288.102 306.22 286.088 305.54 284.044 305.677C282 305.814 280.094 306.756 278.745 308.298C277.657 309.464 276.341 310.394 274.879 311.029C273.417 311.665 271.839 311.993 270.245 311.993C268.65 311.993 267.073 311.665 265.611 311.029C264.148 310.394 262.832 309.464 261.745 308.298C261.018 307.471 260.124 306.808 259.121 306.354C258.118 305.9 257.029 305.665 255.928 305.665C254.827 305.665 253.739 305.9 252.736 306.354C251.733 306.808 250.838 307.471 250.112 308.298C249.025 309.465 247.709 310.395 246.247 311.031C244.784 311.667 243.207 311.995 241.612 311.995C240.017 311.995 238.439 311.667 236.977 311.031C235.515 310.395 234.199 309.465 233.112 308.298C232.444 307.534 231.632 306.909 230.723 306.458C229.813 306.008 228.824 305.741 227.811 305.673C226.799 305.605 225.783 305.737 224.821 306.062C223.86 306.387 222.971 306.898 222.207 307.565C221.443 308.233 220.818 309.045 220.368 309.955C219.918 310.864 219.651 311.853 219.583 312.866C219.515 313.879 219.647 314.895 219.971 315.856C220.296 316.818 220.807 317.706 221.475 318.47C223.997 321.315 227.098 323.588 230.57 325.136C234.043 326.684 237.806 327.472 241.608 327.447C246.665 327.458 251.624 326.054 255.924 323.392C260.224 326.054 265.183 327.458 270.24 327.447C274.042 327.472 277.805 326.684 281.277 325.136C284.75 323.588 287.851 321.315 290.373 318.47C291.721 316.927 292.402 314.913 292.266 312.868C292.129 310.824 291.187 308.917 289.645 307.568Z" fill="#423E4F"/>
<path d="M155.906 288.631H136.246C134.212 288.654 132.269 289.478 130.839 290.925C129.409 292.371 128.607 294.323 128.607 296.357C128.607 298.391 129.409 300.344 130.839 301.79C132.269 303.236 134.212 304.061 136.246 304.084H155.906C157.94 304.061 159.883 303.236 161.313 301.79C162.743 300.344 163.545 298.391 163.545 296.357C163.545 294.323 162.743 292.371 161.313 290.925C159.883 289.478 157.94 288.654 155.906 288.631Z" fill="#FFC9D3"/>
<path d="M158.563 248.568C157.548 248.568 156.543 248.768 155.606 249.156C154.668 249.544 153.816 250.113 153.099 250.831C152.381 251.548 151.812 252.4 151.424 253.338C151.035 254.275 150.836 255.28 150.836 256.295V271.908C150.824 272.93 151.015 273.944 151.398 274.891C151.781 275.838 152.348 276.7 153.067 277.427C153.785 278.154 154.641 278.731 155.584 279.124C156.527 279.518 157.538 279.721 158.56 279.721C159.582 279.721 160.594 279.518 161.537 279.124C162.48 278.731 163.335 278.154 164.054 277.427C164.772 276.7 165.339 275.838 165.722 274.891C166.105 273.944 166.296 272.93 166.285 271.908V256.295C166.285 254.246 165.472 252.281 164.024 250.832C162.576 249.383 160.611 248.569 158.563 248.568Z" fill="#423E4F"/>
<path d="M375.605 288.631H355.945C353.911 288.654 351.968 289.478 350.538 290.925C349.108 292.371 348.306 294.323 348.306 296.357C348.306 298.391 349.108 300.344 350.538 301.79C351.968 303.236 353.911 304.061 355.945 304.084H375.605C377.639 304.061 379.582 303.236 381.012 301.79C382.442 300.344 383.244 298.391 383.244 296.357C383.244 294.323 382.442 292.371 381.012 290.925C379.582 289.478 377.639 288.654 375.605 288.631Z" fill="#FFC9D3"/>
<path d="M361.02 271.908V256.295C360.997 254.261 360.172 252.318 358.726 250.888C357.279 249.458 355.327 248.656 353.293 248.656C351.259 248.656 349.307 249.458 347.861 250.888C346.414 252.318 345.59 254.261 345.567 256.295V271.908C345.59 273.942 346.414 275.885 347.861 277.315C349.307 278.745 351.259 279.547 353.293 279.547C355.327 279.547 357.279 278.745 358.726 277.315C360.172 275.885 360.997 273.942 361.02 271.908Z" fill="#423E4F"/>
</svg>
