<svg width="512" height="512" viewBox="0 0 512 512" fill="none" xmlns="http://www.w3.org/2000/svg">
<path d="M323.75 454.074H293.723C290.188 454.096 286.684 453.418 283.412 452.08C280.141 450.743 277.166 448.771 274.659 446.28C272.152 443.788 270.162 440.825 268.805 437.561C267.447 434.298 266.748 430.798 266.748 427.264C266.748 423.729 267.447 420.229 268.805 416.966C270.162 413.702 272.152 410.739 274.659 408.247C277.166 405.756 280.141 403.784 283.412 402.447C286.684 401.109 290.188 400.431 293.723 400.453H323.75C330.832 400.496 337.609 403.34 342.602 408.363C347.595 413.387 350.397 420.181 350.397 427.264C350.397 434.346 347.595 441.141 342.602 446.164C337.609 451.187 330.832 454.031 323.75 454.074Z" fill="#8CD6FE"/>
<path d="M390.5 344.6H360.473C353.391 344.557 346.614 341.713 341.621 336.69C336.628 331.667 333.826 324.872 333.826 317.789C333.826 310.707 336.628 303.912 341.621 298.889C346.614 293.866 353.391 291.022 360.473 290.979H390.5C397.583 291.022 404.36 293.866 409.353 298.889C414.345 303.912 417.148 310.707 417.148 317.789C417.148 324.872 414.345 331.667 409.353 336.69C404.36 341.713 397.583 344.557 390.5 344.6Z" fill="#8CD6FE"/>
<path d="M188.25 454.074H218.281C225.363 454.031 232.14 451.187 237.133 446.164C242.126 441.141 244.928 434.346 244.928 427.263C244.928 420.181 242.126 413.387 237.133 408.363C232.14 403.34 225.363 400.496 218.281 400.453H188.25C181.168 400.496 174.39 403.34 169.397 408.363C164.405 413.387 161.603 420.181 161.603 427.263C161.603 434.346 164.405 441.141 169.397 446.164C174.39 451.187 181.168 454.031 188.25 454.074Z" fill="#BAE7FF"/>
<path d="M118.656 214.684C55.556 214.684 39.289 192.02 44.797 169.984C24.234 168.152 14.688 136.34 32.68 120.422C20.383 113.813 0 105 0 86.273C0 67.546 15.055 58 41.352 58C67.649 58 116.715 62.211 147.3 80.164C171.476 94.352 203.909 133.875 187.632 179.906C176.98 210.012 138.172 214.684 118.656 214.684Z" fill="#8CD6FE"/>
<path d="M155.648 123.277C124.66 98.4841 85.1877 91.9531 72.0587 112.926C58.8087 134.09 76.5667 184.774 138.149 191.326C199.731 197.878 166.418 131.891 155.648 123.277Z" fill="#FCF2D0"/>
<path d="M393.344 214.684C456.444 214.684 472.711 192.02 467.203 169.984C487.766 168.148 497.312 136.336 479.32 120.418C491.617 113.813 512 105 512 86.273C512 67.546 496.945 58 470.648 58C444.351 58 395.285 62.211 364.7 80.164C340.524 94.352 308.091 133.875 324.368 179.906C335.02 210.012 373.828 214.684 393.344 214.684Z" fill="#8CD6FE"/>
<path d="M356.352 123.277C387.34 98.484 426.813 91.953 439.942 112.925C453.192 134.089 435.434 184.773 373.852 191.325C312.27 197.877 345.582 131.891 356.352 123.277Z" fill="#FCF2D0"/>
<path d="M256 64.168C158.324 64.168 95.6454 124.8 101.328 199.1C104.289 237.811 127.528 265.123 159.028 282.35L150.208 311.682C133.958 365.733 174.427 420.155 230.868 420.155H281.145C337.583 420.155 378.051 365.733 361.801 311.682L352.985 282.35C384.477 265.123 407.719 237.811 410.676 199.1C416.355 124.8 353.676 64.168 256 64.168Z" fill="#BAE7FF"/>
<path d="M230.863 420.156H263.652C192.613 360.035 159.687 152.328 197.852 72.215C134.4 91.051 96.8754 140.875 101.328 199.1C104.289 237.811 127.528 265.123 159.028 282.35L150.208 311.682C133.953 365.734 174.422 420.156 230.863 420.156Z" fill="#8CD6FE"/>
<path d="M192 183.7C192 168.114 176.137 155.477 156.563 155.477C136.989 155.477 121.129 168.114 121.129 183.7C121.129 199.286 137 211.918 156.566 211.918C176.132 211.918 192 199.285 192 183.7Z" fill="white"/>
<path d="M390.867 183.7C390.867 168.114 375.004 155.477 355.433 155.477C335.862 155.477 320 168.113 320 183.7C320 199.287 335.863 211.919 355.438 211.919C375.013 211.919 390.867 199.285 390.867 183.7Z" fill="white"/>
<path d="M177.219 163.047C175.23 163.047 173.322 162.257 171.915 160.85C170.509 159.444 169.719 157.536 169.719 155.547V143.031C169.719 141.042 170.509 139.134 171.915 137.728C173.322 136.321 175.23 135.531 177.219 135.531C179.208 135.531 181.116 136.321 182.522 137.728C183.929 139.134 184.719 141.042 184.719 143.031V155.547C184.719 157.536 183.929 159.444 182.522 160.85C181.116 162.257 179.208 163.047 177.219 163.047Z" fill="#4E5660"/>
<path d="M334.781 163.047C332.792 163.047 330.884 162.257 329.478 160.85C328.071 159.444 327.281 157.536 327.281 155.547V143.031C327.281 141.042 328.071 139.134 329.478 137.728C330.884 136.321 332.792 135.531 334.781 135.531C336.77 135.531 338.678 136.321 340.085 137.728C341.491 139.134 342.281 141.042 342.281 143.031V155.547C342.281 157.536 341.491 159.444 340.085 160.85C338.678 162.257 336.77 163.047 334.781 163.047Z" fill="#4E5660"/>
<path d="M256 234.016C251.463 234.015 246.979 233.041 242.85 231.161C238.721 229.281 235.043 226.538 232.063 223.116C231.382 222.379 230.856 221.514 230.515 220.57C230.175 219.626 230.027 218.624 230.081 217.622C230.135 216.62 230.389 215.64 230.829 214.738C231.269 213.836 231.885 213.032 232.641 212.372C233.397 211.713 234.277 211.212 235.231 210.899C236.184 210.586 237.19 210.467 238.19 210.55C239.19 210.633 240.163 210.916 241.051 211.381C241.94 211.847 242.726 212.486 243.363 213.261C244.934 215.069 246.875 216.518 249.054 217.512C251.234 218.505 253.601 219.019 255.996 219.019C258.391 219.019 260.759 218.505 262.938 217.512C265.117 216.518 267.058 215.069 268.629 213.261C269.276 212.518 270.063 211.911 270.945 211.472C271.827 211.034 272.787 210.773 273.77 210.706C274.752 210.638 275.739 210.765 276.672 211.079C277.606 211.392 278.469 211.887 279.211 212.534C279.954 213.181 280.562 213.968 281 214.85C281.438 215.732 281.699 216.692 281.766 217.674C281.834 218.657 281.707 219.643 281.393 220.577C281.08 221.511 280.585 222.373 279.938 223.116C276.958 226.537 273.279 229.28 269.15 231.16C265.021 233.04 260.537 234.014 256 234.016Z" fill="#4E5660"/>
<path d="M278.492 151.793C263.746 147.934 248.254 147.934 233.508 151.793C227.399 153.391 222.077 157.149 218.528 162.371C217.402 164.026 216.654 165.909 216.335 167.885C216.017 169.861 216.136 171.883 216.685 173.809C217.234 175.734 218.199 177.515 219.511 179.026C220.824 180.538 222.453 181.742 224.282 182.555L245.891 192.164C249.073 193.58 252.517 194.312 256 194.312C259.483 194.312 262.928 193.58 266.11 192.164L287.719 182.555C289.548 181.742 291.177 180.538 292.49 179.026C293.802 177.515 294.767 175.734 295.316 173.809C295.865 171.883 295.984 169.861 295.666 167.885C295.347 165.909 294.599 164.026 293.473 162.371C289.923 157.149 284.601 153.391 278.492 151.793Z" fill="#4E5660"/>
<path d="M305.938 344.6C305.938 320.87 283.579 301.631 256.001 301.631C228.423 301.631 206.064 320.869 206.064 344.6C206.064 368.331 228.422 387.57 256 387.57C283.578 387.57 305.938 368.332 305.938 344.6Z" fill="white"/>
<path d="M209.344 329.281C207.187 334.101 206.069 339.321 206.063 344.601C206.063 361.468 217.363 376.058 233.797 383.089C224.523 367.43 216.324 349.137 209.344 329.281Z" fill="#BAE7FF"/>
<path d="M182.676 288.219L203.91 309.449C208.861 314.492 211.62 321.286 211.587 328.353C211.554 335.419 208.733 342.188 203.736 347.185C198.739 352.182 191.972 355.004 184.905 355.038C177.838 355.071 171.044 352.313 166 347.363L144.766 326.133C139.739 321.105 136.914 314.286 136.914 307.176C136.914 300.066 139.739 293.247 144.766 288.219C149.794 283.191 156.613 280.367 163.723 280.367C170.834 280.367 177.653 283.191 182.68 288.219H182.676Z" fill="#BAE7FF"/>
</svg>
