<svg width="512" height="512" viewBox="0 0 512 512" fill="none" xmlns="http://www.w3.org/2000/svg">
<path d="M113.532 482.1C92.3828 482.076 72.107 473.664 57.1524 458.709C42.1979 443.755 33.7858 423.479 33.7617 402.33C33.7617 400.341 34.5519 398.433 35.9584 397.027C37.3649 395.62 39.2726 394.83 41.2617 394.83C43.2508 394.83 45.1585 395.62 46.565 397.027C47.9715 398.433 48.7617 400.341 48.7617 402.33C48.7813 419.502 55.6116 435.965 67.754 448.108C79.8965 460.25 96.3597 467.08 113.532 467.1C115.521 467.1 117.428 467.89 118.835 469.297C120.242 470.703 121.032 472.611 121.032 474.6C121.032 476.589 120.242 478.497 118.835 479.903C117.428 481.31 115.521 482.1 113.532 482.1Z" fill="#F7EF87"/>
<path d="M347.746 512H167.586L198.941 315.914H316.391L347.746 512Z" fill="#EFD176"/>
<path d="M117.542 427.613L110.905 460.513H95.2995C85.0615 460.514 75.1676 464.209 67.434 470.918C59.7005 477.627 54.6464 486.9 53.1995 497.035C52.9346 498.894 53.0721 500.789 53.6026 502.59C54.1331 504.391 55.0443 506.058 56.2746 507.477C57.5048 508.896 59.0255 510.034 60.7336 510.814C62.4417 511.594 64.2975 511.999 66.1755 512H190.406C195.595 512 200.572 509.939 204.242 506.27C207.912 502.6 209.975 497.624 209.975 492.434V387.594H166.44C154.923 387.594 143.761 391.58 134.848 398.875C125.935 406.169 119.82 416.323 117.542 427.613Z" fill="#EFD176"/>
<path d="M156.878 355.527V454.656H131.226C121.088 454.656 111.257 458.137 103.377 464.515C95.4969 470.894 90.0451 479.784 87.933 489.7L86.699 495.5C86.2744 497.49 86.2999 499.549 86.7737 501.528C87.2475 503.507 88.1576 505.354 89.4373 506.936C90.7171 508.517 92.3343 509.793 94.1705 510.669C96.0067 511.545 98.0155 512 100.05 512H200.569C206.379 512 211.951 509.692 216.059 505.584C220.167 501.476 222.475 495.904 222.475 490.094V355.527C222.475 346.828 219.019 338.485 212.868 332.334C206.717 326.183 198.374 322.727 189.675 322.727C180.976 322.727 172.633 326.183 166.482 332.334C160.331 338.485 156.875 346.828 156.875 355.527H156.878Z" fill="#F7EF87"/>
<path d="M397.788 427.613L404.421 460.513H420.026C430.265 460.513 440.16 464.206 447.895 470.914C455.63 477.623 460.685 486.897 462.131 497.033C462.398 498.892 462.261 500.787 461.731 502.589C461.201 504.392 460.29 506.059 459.059 507.478C457.829 508.897 456.308 510.035 454.599 510.816C452.89 511.596 451.034 512 449.155 512H324.921C319.732 511.999 314.756 509.938 311.087 506.269C307.418 502.599 305.356 497.623 305.355 492.434V387.594H348.89C360.408 387.594 371.57 391.58 380.483 398.875C389.396 406.169 395.511 416.323 397.788 427.613Z" fill="#EFD176"/>
<path d="M358.448 355.527V454.656H384.099C394.238 454.656 404.069 458.136 411.95 464.515C419.83 470.893 425.282 479.784 427.394 489.7L428.632 495.5C429.057 497.49 429.031 499.549 428.557 501.528C428.083 503.506 427.173 505.354 425.893 506.935C424.613 508.517 422.996 509.793 421.16 510.669C419.324 511.545 417.315 512 415.28 512H314.761C308.952 512 303.38 509.692 299.272 505.584C295.164 501.476 292.856 495.904 292.855 490.094V355.527C292.972 346.906 296.479 338.677 302.617 332.621C308.755 326.566 317.03 323.171 325.652 323.171C334.275 323.171 342.55 326.566 348.688 332.621C354.826 338.677 358.333 346.906 358.449 355.527H358.448Z" fill="#F7EF87"/>
<path d="M385.961 352.547C301.596 372.52 213.733 372.52 129.367 352.547C97.5146 345.006 69.1388 326.935 48.8332 301.261C28.5277 275.587 17.4807 243.811 17.4805 211.078V156.449C17.4802 123.715 28.527 91.9396 48.8326 66.2653C69.1382 40.591 97.5143 22.5209 129.367 14.98C213.733 -4.99268 301.596 -4.99268 385.961 14.98C417.815 22.5202 446.191 40.5902 466.497 66.2646C486.803 91.9391 497.849 123.715 497.848 156.449V211.078C497.849 243.812 486.802 275.588 466.497 301.262C446.191 326.936 417.815 345.006 385.961 352.547Z" fill="#EEA849"/>
<path d="M213.461 1.77295C185.134 4.02395 157.021 8.43917 129.367 14.9799C97.5146 22.5213 69.1388 40.5916 48.8332 66.2658C28.5277 91.94 17.4807 123.715 17.4805 156.449V211.078C17.4802 243.812 28.527 275.587 48.8326 301.262C69.1382 326.936 97.5143 345.006 129.367 352.547C193.387 367.7 259.584 371.388 324.89 363.442C174.156 332.789 152.828 104.895 213.461 1.77295Z" fill="#E9901B"/>
<path d="M257.664 99.883C255.675 99.883 253.767 99.0929 252.361 97.6863C250.954 96.2798 250.164 94.3722 250.164 92.383V56.035C250.164 54.0459 250.954 52.1383 252.361 50.7317C253.767 49.3252 255.675 48.535 257.664 48.535C259.653 48.535 261.561 49.3252 262.967 50.7317C264.374 52.1383 265.164 54.0459 265.164 56.035V92.383C265.164 94.3722 264.374 96.2798 262.967 97.6863C261.561 99.0929 259.653 99.883 257.664 99.883Z" fill="#E9901B"/>
<path d="M257.664 335.84C255.675 335.84 253.767 335.05 252.361 333.643C250.954 332.237 250.164 330.329 250.164 328.34V291.992C250.164 290.003 250.954 288.095 252.361 286.689C253.767 285.282 255.675 284.492 257.664 284.492C259.653 284.492 261.561 285.282 262.967 286.689C264.374 288.095 265.164 290.003 265.164 291.992V328.34C265.164 330.329 264.374 332.237 262.967 333.643C261.561 335.05 259.653 335.84 257.664 335.84Z" fill="#E9901B"/>
<path d="M134.625 125.18C133.64 125.18 132.665 124.986 131.756 124.609C130.846 124.231 130.02 123.678 129.325 122.98L102.238 95.9C100.842 94.4915 100.06 92.5871 100.064 90.6037C100.069 88.6203 100.858 86.7193 102.261 85.3167C103.663 83.9141 105.564 83.1242 107.548 83.1198C109.531 83.1153 111.436 83.8967 112.844 85.293L139.926 112.375C140.974 113.424 141.687 114.76 141.976 116.214C142.265 117.668 142.116 119.175 141.549 120.544C140.982 121.914 140.022 123.085 138.79 123.909C137.557 124.733 136.109 125.174 134.626 125.175L134.625 125.18Z" fill="#EEA849"/>
<path d="M380.706 125.18C379.224 125.179 377.775 124.738 376.543 123.914C375.311 123.09 374.351 121.919 373.783 120.549C373.216 119.18 373.068 117.673 373.357 116.219C373.645 114.765 374.359 113.429 375.406 112.38L402.488 85.298C403.908 83.9634 405.792 83.234 407.741 83.2643C409.69 83.2947 411.55 84.0823 412.928 85.4604C414.306 86.8385 415.093 88.6989 415.123 90.6475C415.154 92.5961 414.424 94.4799 413.089 95.9L386.007 122.98C385.312 123.678 384.486 124.232 383.577 124.61C382.667 124.987 381.691 125.181 380.706 125.18Z" fill="#E9901B"/>
<path d="M127.441 303.605C125.958 303.604 124.51 303.163 123.277 302.339C122.045 301.515 121.085 300.344 120.518 298.974C119.951 297.605 119.802 296.098 120.091 294.644C120.38 293.19 121.093 291.854 122.141 290.805L147.469 265.477C148.165 264.781 148.992 264.228 149.902 263.852C150.812 263.475 151.788 263.281 152.773 263.281C153.758 263.281 154.733 263.476 155.643 263.853C156.553 264.23 157.379 264.782 158.076 265.479C158.772 266.176 159.324 267.003 159.701 267.913C160.078 268.823 160.272 269.798 160.271 270.783C160.271 271.768 160.077 272.743 159.7 273.653C159.323 274.563 158.77 275.39 158.074 276.086L132.75 301.41C132.053 302.108 131.226 302.661 130.314 303.038C129.403 303.414 128.427 303.607 127.441 303.605Z" fill="#EEA849"/>
<path d="M387.888 303.605C386.903 303.605 385.928 303.411 385.018 303.034C384.109 302.656 383.283 302.103 382.588 301.405L357.26 276.081C356.563 275.384 356.011 274.557 355.634 273.647C355.257 272.737 355.062 271.762 355.062 270.776C355.062 269.791 355.257 268.816 355.634 267.906C356.011 266.996 356.563 266.169 357.26 265.472C357.956 264.775 358.783 264.223 359.693 263.846C360.604 263.469 361.579 263.275 362.564 263.275C363.549 263.275 364.525 263.469 365.435 263.846C366.345 264.223 367.172 264.775 367.869 265.472L393.192 290.8C394.239 291.849 394.953 293.185 395.241 294.639C395.53 296.093 395.382 297.6 394.815 298.969C394.247 300.339 393.287 301.51 392.055 302.334C390.823 303.158 389.374 303.599 387.892 303.6L387.888 303.605Z" fill="#E9901B"/>
<path d="M322.129 92.3831H193.2C171.856 92.3831 151.386 100.862 136.294 115.954C121.201 131.047 112.723 151.516 112.723 172.86V189.5C112.722 202.959 115.372 216.287 120.523 228.722C125.673 241.157 133.222 252.456 142.739 261.973C152.256 271.49 163.554 279.04 175.989 284.191C188.424 289.341 201.751 291.992 215.211 291.992H300.121C313.58 291.992 326.907 289.341 339.341 284.19C351.776 279.039 363.074 271.49 372.591 261.972C382.107 252.455 389.656 241.156 394.806 228.721C399.956 216.287 402.606 202.959 402.605 189.5V172.859C402.605 162.291 400.523 151.826 396.479 142.062C392.435 132.298 386.507 123.427 379.034 115.954C371.561 108.481 362.69 102.553 352.926 98.5087C343.162 94.4644 332.697 92.3829 322.129 92.3831Z" fill="#F7EF87"/>
<path d="M322.129 92.3831H193.2C171.856 92.3831 151.386 100.862 136.294 115.954C121.201 131.047 112.723 151.516 112.723 172.86V189.5C112.722 202.959 115.372 216.287 120.523 228.722C125.673 241.157 133.222 252.456 142.739 261.973C152.256 271.49 163.554 279.04 175.989 284.191C188.424 289.341 201.751 291.992 215.211 291.992H300.121C313.58 291.992 326.907 289.341 339.341 284.19C351.776 279.039 363.074 271.49 372.591 261.972C382.107 252.455 389.656 241.156 394.806 228.721C399.956 216.287 402.606 202.959 402.605 189.5V172.859C402.605 162.291 400.523 151.826 396.479 142.062C392.435 132.298 386.507 123.427 379.034 115.954C371.561 108.481 362.69 102.553 352.926 98.5087C343.162 94.4644 332.697 92.3829 322.129 92.3831Z" fill="#F7EF87"/>
<path d="M215.211 291.992H223.352C187.352 236.648 176.032 159.64 184.676 92.8359C164.92 94.9409 146.641 104.279 133.357 119.053C120.073 133.826 112.724 152.991 112.723 172.859V189.5C112.722 202.959 115.372 216.287 120.523 228.722C125.673 241.157 133.222 252.455 142.739 261.973C152.256 271.49 163.554 279.04 175.989 284.19C188.424 289.341 201.751 291.992 215.211 291.992Z" fill="#EFD176"/>
<path d="M194.445 191.688C194.445 176.293 178.773 163.813 159.445 163.813C140.117 163.813 124.445 176.293 124.445 191.688C124.445 207.083 140.117 219.567 159.445 219.567C178.773 219.567 194.445 207.086 194.445 191.688Z" fill="#EDA1AB"/>
<path d="M390.895 191.688C390.895 176.293 375.223 163.813 355.887 163.813C336.551 163.813 320.887 176.293 320.887 191.688C320.887 207.083 336.559 219.567 355.887 219.567C375.215 219.567 390.895 207.086 390.895 191.688Z" fill="#EDA1AB"/>
<path d="M179.844 171.379C177.855 171.379 175.947 170.589 174.54 169.182C173.134 167.776 172.344 165.868 172.344 163.879V151.52C172.344 149.531 173.134 147.623 174.54 146.217C175.947 144.81 177.855 144.02 179.844 144.02C181.833 144.02 183.741 144.81 185.147 146.217C186.554 147.623 187.344 149.531 187.344 151.52V163.879C187.344 165.868 186.554 167.776 185.147 169.182C183.741 170.589 181.833 171.379 179.844 171.379Z" fill="#4E5660"/>
<path d="M335.488 171.379C333.499 171.379 331.591 170.589 330.185 169.182C328.778 167.776 327.988 165.868 327.988 163.879V151.52C327.988 149.531 328.778 147.623 330.185 146.217C331.591 144.81 333.499 144.02 335.488 144.02C337.477 144.02 339.385 144.81 340.792 146.217C342.198 147.623 342.988 149.531 342.988 151.52V163.879C342.988 165.868 342.198 167.776 340.792 169.182C339.385 170.589 337.477 171.379 335.488 171.379Z" fill="#4E5660"/>
<path d="M257.664 242.23C253.169 242.229 248.726 241.265 244.635 239.402C240.544 237.539 236.901 234.821 233.949 231.43C232.642 229.93 231.985 227.973 232.121 225.988C232.258 224.004 233.177 222.155 234.676 220.848C236.176 219.541 238.133 218.884 240.118 219.02C242.102 219.156 243.951 220.075 245.258 221.575C246.801 223.352 248.707 224.777 250.847 225.753C252.988 226.729 255.313 227.235 257.666 227.235C260.019 227.235 262.345 226.729 264.485 225.753C266.626 224.777 268.532 223.352 270.074 221.575C271.381 220.075 273.23 219.156 275.215 219.02C277.199 218.884 279.157 219.541 280.656 220.848C282.156 222.155 283.075 224.004 283.211 225.988C283.348 227.973 282.69 229.93 281.383 231.43C278.431 234.82 274.786 237.538 270.695 239.401C266.603 241.264 262.16 242.229 257.664 242.23Z" fill="#4E5660"/>
<path d="M275.901 164.43C263.948 161.297 251.389 161.297 239.436 164.43C234.484 165.722 230.17 168.767 227.294 173C226.381 174.342 225.775 175.867 225.516 177.469C225.258 179.071 225.355 180.71 225.799 182.271C226.243 183.831 227.025 185.275 228.088 186.501C229.152 187.726 230.471 188.703 231.954 189.363L249.47 197.152C252.05 198.299 254.843 198.892 257.667 198.892C260.491 198.892 263.284 198.299 265.865 197.152L283.381 189.363C284.863 188.704 286.183 187.727 287.247 186.501C288.31 185.276 289.092 183.832 289.536 182.271C289.981 180.71 290.077 179.071 289.818 177.469C289.56 175.867 288.953 174.342 288.04 173C285.163 168.769 280.85 165.724 275.901 164.43Z" fill="#4E5660"/>
<path d="M450.289 129.559C462.865 129.617 474.905 134.653 483.777 143.565C492.649 152.478 497.63 164.542 497.63 177.117C497.63 189.693 492.649 201.757 483.777 210.67C474.905 219.582 462.865 224.618 450.289 224.676V129.559Z" fill="#F7EF87"/>
<path d="M65.0382 129.559C52.4627 129.617 40.4219 134.653 31.55 143.565C22.678 152.478 17.6973 164.542 17.6973 177.117C17.6973 189.693 22.678 201.757 31.55 210.67C40.4219 219.582 52.4627 224.618 65.0382 224.676V129.559Z" fill="#F7EF87"/>
<path d="M70.453 396.3C70.409 403.625 67.4684 410.634 62.2735 415.798C57.0785 420.962 50.0513 423.86 42.7265 423.86C35.4017 423.86 28.3745 420.962 23.1795 415.798C17.9846 410.634 15.044 403.625 15 396.3C15 380.988 27.414 351.163 42.727 351.163C58.04 351.163 70.453 380.984 70.453 396.3Z" fill="#EEA849"/>
<path d="M126.301 477.391C124.312 477.391 122.404 478.181 120.997 479.588C119.591 480.994 118.801 482.902 118.801 484.891V512H133.801V484.891C133.801 482.902 133.011 480.994 131.604 479.588C130.198 478.181 128.29 477.391 126.301 477.391Z" fill="#EFD176"/>
<path d="M162.152 477.391C160.163 477.391 158.256 478.181 156.849 479.588C155.443 480.994 154.652 482.902 154.652 484.891V512H169.652V484.891C169.652 482.902 168.862 480.994 167.456 479.588C166.049 478.181 164.141 477.391 162.152 477.391Z" fill="#EFD176"/>
<path d="M389.027 477.391C391.016 477.391 392.924 478.181 394.331 479.588C395.737 480.994 396.527 482.902 396.527 484.891V512H381.527V484.891C381.527 482.902 382.318 480.994 383.724 479.588C385.131 478.181 387.038 477.391 389.027 477.391Z" fill="#EFD176"/>
<path d="M353.182 477.391C355.171 477.391 357.078 478.181 358.485 479.588C359.891 480.994 360.682 482.902 360.682 484.891V512H345.682V484.891C345.682 482.902 346.472 480.994 347.878 479.588C349.285 478.181 351.193 477.391 353.182 477.391Z" fill="#EFD176"/>
</svg>
