<svg width="512" height="512" viewBox="0 0 512 512" fill="none" xmlns="http://www.w3.org/2000/svg">
<path d="M52.5189 453.773C40.1319 453.773 26.2379 451.128 10.4329 444.589C6.30178 442.872 3.02082 439.586 1.31034 435.452C-0.400143 431.319 -0.400327 426.675 1.30982 422.541C3.01997 418.407 6.30068 415.121 10.4316 413.404C14.5626 411.686 19.2062 411.679 23.3429 413.382C60.0109 428.558 78.5189 414.862 101.952 397.523C123.652 381.468 148.237 363.273 186.44 371.55C190.758 372.555 194.508 375.218 196.88 378.964C199.252 382.71 200.055 387.239 199.116 391.572C198.177 395.906 195.571 399.695 191.861 402.124C188.151 404.552 183.635 405.423 179.288 404.55C157.155 399.741 143.116 409.07 122.038 424.667C103.94 438.063 82.6989 453.773 52.5189 453.773Z" fill="#E1B89A"/>
<path d="M412.085 322.277C384.726 322.277 358.944 310.269 340.464 288.677C335.89 283.196 333.661 276.133 334.258 269.019C334.856 261.905 338.233 255.313 343.657 250.672C349.081 246.03 356.115 243.713 363.236 244.222C370.357 244.731 376.99 248.025 381.699 253.391C390.399 263.559 402.59 268.844 415.113 267.891C428.156 266.891 439.972 259.34 447.539 247.157C449.412 244.117 451.867 241.477 454.763 239.387C457.659 237.298 460.938 235.8 464.414 234.981C467.89 234.162 471.493 234.037 475.017 234.613C478.541 235.188 481.917 236.454 484.951 238.338C487.985 240.221 490.617 242.684 492.697 245.587C494.777 248.49 496.263 251.774 497.071 255.252C497.879 258.731 497.993 262.334 497.405 265.856C496.818 269.379 495.541 272.75 493.648 275.778C476.855 302.833 449.734 319.678 419.242 322.008C416.849 322.189 414.464 322.278 412.085 322.277Z" fill="#D2996F"/>
<path d="M70.3542 348.883C66.2993 348.881 62.2962 347.972 58.6385 346.222C54.9808 344.471 51.7614 341.924 49.2164 338.768C46.6714 335.611 44.8653 331.924 43.9307 327.979C42.9961 324.033 42.9566 319.928 43.8152 315.965C49.1902 291.285 65.4051 270.289 89.4751 256.848C119.346 240.161 157.26 237.243 190.893 249.048C197.684 251.431 203.25 256.414 206.367 262.901C209.484 269.388 209.897 276.847 207.514 283.638C205.131 290.429 200.148 295.995 193.661 299.112C187.175 302.229 179.715 302.642 172.924 300.259C154.029 293.63 132.197 295.154 115.944 304.232C108.659 308.302 99.4322 315.642 96.8442 327.521C95.5241 333.567 92.1782 338.981 87.3606 342.866C82.5431 346.751 76.543 348.874 70.3542 348.883Z" fill="#E1B89A"/>
<path d="M56.3581 286.762C50.3595 295.61 46.1026 305.52 43.8151 315.962C43.0567 319.444 42.9914 323.041 43.6231 326.548C44.2549 330.055 45.5711 333.403 47.4968 336.401C51.386 342.457 57.5213 346.719 64.5531 348.251C71.5849 349.783 78.9372 348.458 84.9926 344.569C87.9909 342.644 90.5806 340.146 92.6137 337.22C94.6469 334.293 96.0837 330.995 96.8421 327.513C98.05 322.163 100.654 317.229 104.389 313.213L56.3581 286.762Z" fill="#FAE0BD"/>
<path d="M207.062 512C203.109 512.006 199.204 511.147 195.619 509.482C192.035 507.818 188.858 505.39 186.312 502.367C168.042 480.719 163.226 449.667 172.757 414.945C179.265 391.238 192.527 366.418 205.765 353.183C210.863 348.138 217.752 345.316 224.924 345.335C232.097 345.354 238.971 348.212 244.043 353.284C249.114 358.356 251.972 365.23 251.99 372.403C252.008 379.576 249.186 386.464 244.14 391.562C233.613 402.089 211.867 448.5 227.788 467.362C231.122 471.314 233.259 476.136 233.945 481.261C234.631 486.387 233.839 491.601 231.661 496.291C229.484 500.981 226.011 504.951 221.653 507.734C217.295 510.517 212.232 511.997 207.062 512Z" fill="#E1B89A"/>
<path d="M382.956 486.293C378.741 486.29 374.585 485.306 370.817 483.419C367.048 481.533 363.77 478.795 361.242 475.422C358.714 472.05 357.006 468.136 356.252 463.989C355.498 459.842 355.72 455.577 356.899 451.531C360.337 439.781 358.458 430.636 350.993 422.758C340.876 412.082 325.673 408.692 320.513 409.403C314.301 412.741 307.032 413.53 300.249 411.602C293.465 409.674 287.698 405.181 284.17 399.074C280.642 392.967 279.63 385.727 281.348 378.887C283.067 372.047 287.381 366.144 293.376 362.43C317.989 347.184 355.966 357.73 379.196 375.41C408.141 397.43 419.278 431.578 408.996 466.762C407.349 472.394 403.922 477.342 399.228 480.863C394.533 484.384 388.824 486.289 382.956 486.293Z" fill="#D2996F"/>
<path d="M358.507 439.32C358.678 443.452 358.135 447.583 356.902 451.531C355.895 454.953 355.573 458.54 355.954 462.087C356.335 465.634 357.412 469.07 359.122 472.201C360.832 475.331 363.143 478.093 365.922 480.33C368.701 482.566 371.894 484.232 375.318 485.234C378.742 486.235 382.329 486.551 385.875 486.165C389.421 485.778 392.856 484.696 395.984 482.981C399.111 481.266 401.87 478.951 404.102 476.168C406.334 473.386 407.996 470.19 408.992 466.765C410.919 460.229 412.118 453.499 412.566 446.699L358.507 439.32Z" fill="#FAE0BD"/>
<path d="M357.179 209.648H173.779L151.444 317.621C138.044 382.398 187.514 443.144 253.663 443.144H277.292C343.44 443.144 392.909 382.398 379.511 317.621L357.179 209.648Z" fill="#E1B89A"/>
<path d="M253.663 443.141H277.292C280.136 443.141 282.947 443.028 285.726 442.801C223.316 411.149 184.48 311.227 175.414 209.649H173.777L151.444 317.621C138.046 382.4 187.515 443.141 253.663 443.141Z" fill="#D2996F"/>
<path d="M511.999 146.391C511.999 117.727 487.136 94.491 456.468 94.491C425.8 94.491 400.937 117.729 400.937 146.391C400.937 175.053 425.8 198.291 456.468 198.291C487.136 198.291 511.999 175.055 511.999 146.391Z" fill="#FAE0BD"/>
<path d="M416.358 160.117C414.822 160.118 413.323 159.647 412.063 158.769C410.804 157.89 409.844 156.646 409.314 155.205C408.784 153.763 408.71 152.194 409.1 150.709C409.491 149.223 410.328 147.894 411.499 146.9C431.214 130.142 458.335 129.291 473.175 138.15C474.883 139.17 476.116 140.826 476.602 142.755C477.089 144.684 476.789 146.727 475.769 148.435C474.749 150.143 473.093 151.376 471.164 151.862C469.235 152.348 467.192 152.049 465.484 151.029C456.699 145.783 436.425 145.4 421.214 158.329C419.86 159.485 418.138 160.119 416.358 160.117Z" fill="#F3BE77"/>
<path d="M138.437 146.391C138.437 117.727 113.574 94.491 82.906 94.491C52.238 94.491 27.375 117.729 27.375 146.391C27.375 175.053 52.238 198.291 82.906 198.291C113.574 198.291 138.437 175.055 138.437 146.391Z" fill="#FAE0BD"/>
<path d="M123.015 160.117C121.236 160.119 119.516 159.486 118.163 158.332C102.956 145.402 82.6828 145.781 73.8928 151.032C73.0467 151.553 72.1056 151.9 71.1241 152.054C70.1426 152.208 69.1403 152.165 68.1755 151.929C67.2106 151.692 66.3023 151.266 65.5034 150.676C64.7046 150.085 64.031 149.342 63.5218 148.488C63.0127 147.635 62.678 146.69 62.5374 145.706C62.3968 144.723 62.453 143.721 62.7027 142.76C62.9524 141.798 63.3906 140.896 63.992 140.105C64.5934 139.314 65.3459 138.651 66.2058 138.153C81.0418 129.294 108.167 130.145 127.878 146.903C129.048 147.897 129.885 149.227 130.275 150.712C130.665 152.198 130.59 153.767 130.059 155.208C129.529 156.649 128.569 157.893 127.309 158.771C126.049 159.649 124.55 160.119 123.015 160.118V160.117Z" fill="#F3BE77"/>
<path d="M269.687 0C366.859 0 453.121 46.219 445.632 151.285C439.421 238.445 366.859 298.058 269.687 298.058C172.515 298.058 99.9521 238.445 93.7411 151.285C86.2531 46.219 172.515 0 269.687 0Z" fill="#E1B89A"/>
<path d="M186.987 281.535C164.287 185.808 169.163 72.906 207.573 6.95703C138.873 23.391 87.9131 69.512 93.7411 151.285C98.0071 211.176 133.604 258.063 186.987 281.535Z" fill="#D2996F"/>
<path d="M160.608 267.055C190.081 286.844 227.565 298.055 269.686 298.055C311.807 298.055 349.291 286.84 378.764 267.055C416.897 220.883 421.647 148.16 395.147 111.255C360.807 63.423 309.518 63.618 277.447 83.732C275.119 85.1851 272.429 85.9555 269.685 85.9555C266.941 85.9555 264.252 85.1851 261.924 83.732C229.854 63.619 178.565 63.423 144.224 111.255C117.726 148.16 122.476 220.883 160.608 267.055Z" fill="#FAE0BD"/>
<path d="M186.972 281.477C171.245 215.122 168.772 140.52 181.523 79.028C168.136 85.403 155.3 95.828 144.223 111.251C117.723 148.161 122.473 220.884 160.606 267.051C168.954 272.625 177.776 277.453 186.972 281.477Z" fill="#F3BE77"/>
<path d="M207.799 191.414C207.799 175.496 191.599 162.594 171.608 162.594C151.617 162.594 135.421 175.494 135.421 191.414C135.421 207.334 151.621 220.23 171.609 220.23C191.597 220.23 207.799 207.328 207.799 191.414Z" fill="#EDA1AB"/>
<path d="M403.956 191.414C403.956 175.496 387.756 162.594 367.769 162.594C347.782 162.594 331.578 175.494 331.578 191.414C331.578 207.334 347.778 220.23 367.769 220.23C387.76 220.23 403.956 207.328 403.956 191.414Z" fill="#EDA1AB"/>
<path d="M294.006 182.258C294.006 167.227 283.115 155.043 269.686 155.043C256.257 155.043 245.366 167.227 245.366 182.258C245.366 197.289 256.257 209.469 269.686 209.469C283.115 209.469 294.006 197.285 294.006 182.258Z" fill="#4E5660"/>
<path d="M209.925 167.551C207.936 167.551 206.028 166.761 204.621 165.354C203.215 163.948 202.425 162.04 202.425 160.051C202.399 157.488 201.362 155.04 199.541 153.237C197.72 151.434 195.261 150.423 192.698 150.423C190.135 150.423 187.676 151.434 185.855 153.237C184.034 155.04 182.998 157.488 182.972 160.051C182.972 162.04 182.182 163.948 180.775 165.354C179.368 166.761 177.461 167.551 175.472 167.551C173.483 167.551 171.575 166.761 170.168 165.354C168.762 163.948 167.972 162.04 167.972 160.051C168.013 153.52 170.637 147.271 175.269 142.668C179.902 138.065 186.167 135.481 192.698 135.481C199.229 135.481 205.495 138.065 210.127 142.668C214.76 147.271 217.383 153.52 217.425 160.051C217.425 162.04 216.634 163.948 215.228 165.354C213.821 166.761 211.914 167.551 209.925 167.551Z" fill="#4E5660"/>
<path d="M363.898 167.551C361.909 167.551 360.002 166.761 358.595 165.354C357.189 163.948 356.398 162.04 356.398 160.051C356.372 157.488 355.336 155.04 353.515 153.237C351.694 151.434 349.234 150.423 346.672 150.423C344.109 150.423 341.65 151.434 339.829 153.237C338.008 155.04 336.971 157.488 336.945 160.051C336.945 162.04 336.155 163.948 334.749 165.354C333.342 166.761 331.434 167.551 329.445 167.551C327.456 167.551 325.549 166.761 324.142 165.354C322.736 163.948 321.945 162.04 321.945 160.051C321.987 153.52 324.61 147.271 329.243 142.668C333.875 138.065 340.141 135.481 346.672 135.481C353.203 135.481 359.468 138.065 364.101 142.668C368.733 147.271 371.357 153.52 371.398 160.051C371.398 162.04 370.608 163.948 369.202 165.354C367.795 166.761 365.887 167.551 363.898 167.551Z" fill="#4E5660"/>
<path d="M306.065 374.883C306.065 350.293 287.893 330.36 265.479 330.36C243.065 330.36 224.889 350.294 224.889 374.883C224.889 399.472 243.061 419.406 265.479 419.406C287.897 419.406 306.065 399.473 306.065 374.883Z" fill="#FAE0BD"/>
<path d="M251.788 416.8C241.649 405.906 232.761 393.912 225.288 381.042C227.382 397.641 237.808 411.309 251.788 416.8Z" fill="#F3BE77"/>
<path d="M484.905 238.406C481.878 236.526 478.51 235.261 474.994 234.683C471.478 234.105 467.882 234.225 464.413 235.037C460.943 235.849 457.667 237.336 454.773 239.414C451.878 241.492 449.421 244.12 447.542 247.148C444.663 251.828 440.982 255.964 436.667 259.367L475.21 297.91C482.369 291.437 488.578 283.984 493.651 275.773C495.531 272.745 496.796 269.377 497.373 265.86C497.951 262.344 497.831 258.748 497.018 255.278C496.206 251.808 494.718 248.532 492.64 245.637C490.562 242.742 487.933 240.285 484.905 238.406Z" fill="#FAE0BD"/>
<path d="M223.206 457.977L176.112 486.547C178.824 492.232 182.252 497.547 186.312 502.363C188.597 505.129 191.408 507.415 194.581 509.088C197.755 510.76 201.229 511.787 204.803 512.109C208.376 512.43 211.977 512.04 215.399 510.961C218.82 509.882 221.994 508.134 224.736 505.821C227.478 503.507 229.734 500.673 231.373 497.481C233.012 494.29 234.003 490.805 234.287 487.229C234.571 483.653 234.143 480.055 233.027 476.645C231.912 473.235 230.132 470.081 227.789 467.363C225.559 464.629 223.99 461.417 223.206 457.977Z" fill="#FAE0BD"/>
</svg>
