<svg width="512" height="512" viewBox="0 0 512 512" fill="none" xmlns="http://www.w3.org/2000/svg">
<path d="M137.074 423.98C104.211 423.98 87.6906 401.023 72.7216 380.218C59.1516 361.359 46.3306 343.542 22.3116 340.527C21.3344 340.404 20.3909 340.09 19.5351 339.603C18.6793 339.115 17.9278 338.464 17.3237 337.686C16.7196 336.908 16.2746 336.019 16.0141 335.069C15.7536 334.119 15.6828 333.127 15.8056 332.15C15.9285 331.173 16.2426 330.229 16.7301 329.374C17.2176 328.518 17.8688 327.766 18.6467 327.162C19.4246 326.558 20.3138 326.113 21.2637 325.853C22.2136 325.592 23.2054 325.521 24.1826 325.644C54.6826 329.476 70.7376 351.781 84.8976 371.46C104.242 398.343 119.523 419.577 165.144 403.437C167.004 402.832 169.027 402.977 170.781 403.843C172.536 404.708 173.883 406.224 174.535 408.068C175.187 409.913 175.093 411.939 174.273 413.714C173.452 415.49 171.971 416.875 170.144 417.574C157.508 422.051 146.6 423.98 137.074 423.98Z" fill="#EDA1AB"/>
<path d="M219.315 447.738V484.086C219.315 491.489 216.374 498.589 211.139 503.824C205.905 509.059 198.805 512 191.401 512C183.998 512 176.898 509.059 171.663 503.824C166.428 498.589 163.487 491.489 163.487 484.086V447.738C163.487 440.335 166.428 433.235 171.663 428C176.898 422.765 183.998 419.824 191.401 419.824C198.805 419.824 205.905 422.765 211.139 428C216.374 433.235 219.315 440.335 219.315 447.738Z" fill="#EDA1AB"/>
<path d="M132.773 355.52L98.3478 321.094C93.1129 315.859 90.1719 308.759 90.1719 301.356C90.1719 293.952 93.1129 286.852 98.3478 281.617C103.583 276.382 110.683 273.441 118.086 273.441C125.49 273.441 132.59 276.382 137.825 281.617L172.255 316.043C177.439 321.289 180.336 328.373 180.314 335.749C180.292 343.124 177.353 350.191 172.137 355.406C166.922 360.621 159.855 363.56 152.48 363.581C145.104 363.603 138.02 360.705 132.775 355.52H132.773Z" fill="#EDA1AB"/>
<path d="M379.226 355.52L413.652 321.094C418.887 315.859 421.828 308.759 421.828 301.356C421.828 293.952 418.887 286.852 413.652 281.617C408.417 276.382 401.317 273.441 393.914 273.441C386.51 273.441 379.41 276.382 374.175 281.617L339.745 316.043C334.561 321.289 331.664 328.373 331.686 335.749C331.708 343.124 334.647 350.191 339.863 355.406C345.078 360.621 352.145 363.56 359.52 363.581C366.896 363.603 373.98 360.705 379.225 355.52H379.226Z" fill="#EDA1AB"/>
<path d="M288.008 472.8L313.708 498.5C318.943 503.735 326.043 506.676 333.446 506.676C340.85 506.676 347.95 503.735 353.185 498.5C358.42 493.265 361.361 486.165 361.361 478.762C361.361 471.358 358.42 464.258 353.185 459.023L327.485 433.323C322.239 428.135 315.154 425.235 307.777 425.255C300.399 425.275 293.33 428.215 288.113 433.432C282.897 438.648 279.957 445.718 279.937 453.095C279.916 460.472 282.817 467.558 288.005 472.803L288.008 472.8Z" fill="#EDA1AB"/>
<path d="M191.3 214.563H118.91C87.373 214.563 57.1278 202.035 34.8279 179.735C12.528 157.434 -1.11515e-09 127.189 0 95.6521C0.163357 70.3913 10.3127 46.2207 28.2329 28.4161C46.153 10.6115 70.3887 0.618652 95.65 0.618652C120.911 0.618652 145.147 10.6115 163.067 28.4161C180.987 46.2207 191.137 70.3913 191.3 95.6521V214.563Z" fill="#F7EF87"/>
<path d="M31.9881 24.2851C21.9159 33.245 13.8573 44.2381 8.34361 56.5396C2.82986 68.841 -0.0138167 82.1715 5.04739e-05 95.6521C0.000315686 127.189 12.5284 157.434 34.8283 179.734C57.1282 202.034 87.3732 214.562 118.91 214.562H191.3V161.5C184.98 61.3951 91.094 19.7001 31.9881 24.2851Z" fill="#EDA1AB"/>
<path d="M139.832 157.242C138.663 157.244 137.509 156.971 136.464 156.447C135.419 155.922 134.51 155.16 133.812 154.222C122.012 138.378 95.5424 121.167 63.0234 118.429C61.0411 118.262 59.2064 117.314 57.923 115.794C56.6396 114.274 56.0126 112.306 56.1799 110.324C56.3473 108.341 57.2953 106.507 58.8153 105.223C60.3354 103.94 62.3031 103.313 64.2854 103.48C96.4654 106.191 129.242 122.98 145.84 145.257C146.672 146.372 147.177 147.696 147.299 149.081C147.422 150.467 147.156 151.859 146.533 153.102C145.91 154.346 144.953 155.391 143.77 156.122C142.586 156.853 141.223 157.24 139.832 157.241V157.242Z" fill="#E68A97"/>
<path d="M320.7 214.563H393.09C424.627 214.563 454.872 202.035 477.172 179.735C499.472 157.434 512 127.189 512 95.6521C511.837 70.3913 501.687 46.2207 483.767 28.4161C465.847 10.6115 441.612 0.618652 416.35 0.618652C391.089 0.618652 366.853 10.6115 348.933 28.4161C331.013 46.2207 320.864 70.3913 320.7 95.6521V214.563Z" fill="#F7EF87"/>
<path d="M480.012 24.2851C490.084 33.245 498.143 44.2381 503.657 56.5396C509.17 68.841 512.014 82.1715 512 95.6521C512 127.189 499.472 157.434 477.172 179.734C454.872 202.034 424.627 214.562 393.09 214.562H320.7V161.5C327.02 61.3951 420.906 19.7001 480.012 24.2851Z" fill="#EDA1AB"/>
<path d="M372.164 157.242C370.774 157.241 369.411 156.853 368.229 156.123C367.046 155.392 366.09 154.347 365.467 153.104C364.844 151.862 364.578 150.47 364.7 149.086C364.821 147.701 365.326 146.377 366.156 145.262C382.756 122.985 415.531 106.196 447.715 103.485C449.678 103.353 451.614 103.998 453.106 105.28C454.598 106.562 455.526 108.379 455.691 110.339C455.856 112.299 455.244 114.246 453.988 115.759C452.731 117.273 450.93 118.232 448.973 118.43C425.543 120.407 394.567 132.239 378.184 154.223C377.486 155.162 376.578 155.924 375.533 156.448C374.487 156.973 373.334 157.245 372.164 157.242Z" fill="#E68A97"/>
<path d="M351.09 278.227C384.59 253.504 400.899 215.114 400.899 174.915C400.899 106.778 336.024 68.5092 255.999 68.5092C175.974 68.5092 111.099 106.779 111.099 174.915C111.099 215.115 127.408 253.505 160.908 278.228L144.645 347.2C130.805 405.888 175.325 462.13 235.622 462.13H276.38C336.68 462.13 381.196 405.888 367.357 347.2L351.09 278.227Z" fill="#F7EF87"/>
<path d="M274.3 462.133C189.394 385.52 188.152 171.442 207.511 73.6171C151.335 86.1291 111.101 121.258 111.101 174.917C111.101 215.117 127.41 253.507 160.91 278.23L144.645 347.2C130.805 405.888 175.325 462.13 235.622 462.13L274.3 462.133Z" fill="#EFD176"/>
<path d="M295.2 375.926C295.2 352.266 277.653 333.086 256 333.086C234.347 333.086 216.8 352.266 216.8 375.926C216.8 399.586 234.347 418.762 256 418.762C277.653 418.762 295.2 399.582 295.2 375.926Z" fill="white"/>
<path d="M218.719 362.7C217.446 366.994 216.801 371.449 216.805 375.927C216.805 392.958 225.905 407.669 239.075 414.572C230.682 397.956 223.867 380.589 218.719 362.7Z" fill="#FCF2D0"/>
<path d="M199.133 186.52C199.133 172.668 185.033 161.442 167.645 161.442C150.257 161.442 136.157 172.669 136.157 186.52C136.157 200.371 150.257 211.594 167.645 211.594C185.033 211.594 199.133 200.367 199.133 186.52Z" fill="#EDA1AB"/>
<path d="M375.844 186.52C375.844 172.668 361.744 161.442 344.356 161.442C326.968 161.442 312.868 172.669 312.868 186.52C312.868 200.371 326.968 211.594 344.356 211.594C361.744 211.594 375.844 200.367 375.844 186.52Z" fill="#EDA1AB"/>
<path d="M256 247.262C251.849 247.261 247.746 246.369 243.969 244.648C240.191 242.927 236.826 240.416 234.1 237.285C233.437 236.545 232.928 235.681 232.601 234.742C232.275 233.803 232.139 232.809 232.2 231.817C232.261 230.825 232.519 229.855 232.958 228.964C233.398 228.072 234.01 227.277 234.759 226.624C235.508 225.972 236.38 225.474 237.323 225.161C238.266 224.848 239.262 224.726 240.253 224.801C241.244 224.876 242.21 225.148 243.096 225.6C243.981 226.051 244.767 226.675 245.409 227.433C246.727 228.949 248.355 230.165 250.182 230.998C252.01 231.831 253.995 232.262 256.003 232.262C258.012 232.262 259.997 231.831 261.825 230.998C263.652 230.165 265.28 228.949 266.597 227.433C267.24 226.675 268.026 226.051 268.911 225.6C269.796 225.148 270.762 224.876 271.753 224.801C272.744 224.726 273.74 224.848 274.684 225.161C275.627 225.474 276.498 225.972 277.248 226.624C277.997 227.277 278.609 228.072 279.049 228.964C279.488 229.855 279.746 230.825 279.807 231.817C279.868 232.809 279.732 233.803 279.406 234.742C279.079 235.681 278.57 236.545 277.906 237.285C275.18 240.417 271.814 242.928 268.035 244.65C264.257 246.371 260.153 247.261 256 247.262Z" fill="#4E5660"/>
<path d="M272.4 176.523C261.647 173.711 250.352 173.711 239.6 176.523C235.147 177.69 231.268 180.429 228.678 184.234C227.857 185.442 227.312 186.814 227.08 188.256C226.849 189.697 226.936 191.172 227.337 192.575C227.737 193.979 228.441 195.278 229.399 196.38C230.356 197.482 231.544 198.36 232.878 198.953L248.636 205.961C250.956 206.993 253.467 207.526 256.007 207.526C258.546 207.526 261.057 206.993 263.378 205.961L279.136 198.953C280.47 198.361 281.658 197.482 282.616 196.381C283.573 195.279 284.277 193.98 284.678 192.576C285.079 191.172 285.166 189.697 284.934 188.256C284.702 186.814 284.156 185.441 283.336 184.234C280.742 180.427 276.857 177.687 272.4 176.523Z" fill="#4E5660"/>
<path d="M202.656 166.473C200.667 166.473 198.759 165.683 197.353 164.276C195.946 162.87 195.156 160.962 195.156 158.973C195.156 156.885 194.327 154.883 192.85 153.406C191.374 151.93 189.371 151.1 187.283 151.1C185.195 151.1 183.193 151.93 181.716 153.406C180.24 154.883 179.41 156.885 179.41 158.973C179.41 160.962 178.62 162.87 177.213 164.276C175.807 165.683 173.899 166.473 171.91 166.473C169.921 166.473 168.013 165.683 166.607 164.276C165.2 162.87 164.41 160.962 164.41 158.973C164.41 152.907 166.82 147.089 171.109 142.799C175.399 138.51 181.217 136.1 187.283 136.1C193.349 136.1 199.167 138.51 203.457 142.799C207.746 147.089 210.156 152.907 210.156 158.973C210.156 160.962 209.366 162.87 207.959 164.276C206.553 165.683 204.645 166.473 202.656 166.473Z" fill="#4E5660"/>
<path d="M340.09 166.473C338.101 166.473 336.193 165.683 334.786 164.276C333.38 162.87 332.59 160.962 332.59 158.973C332.59 156.885 331.76 154.883 330.284 153.406C328.807 151.93 326.805 151.1 324.717 151.1C322.629 151.1 320.626 151.93 319.15 153.406C317.673 154.883 316.844 156.885 316.844 158.973C316.844 160.962 316.054 162.87 314.647 164.276C313.241 165.683 311.333 166.473 309.344 166.473C307.355 166.473 305.447 165.683 304.04 164.276C302.634 162.87 301.844 160.962 301.844 158.973C301.844 155.969 302.435 152.995 303.585 150.22C304.734 147.445 306.419 144.923 308.543 142.799C310.667 140.675 313.189 138.991 315.964 137.841C318.739 136.692 321.713 136.1 324.717 136.1C327.72 136.1 330.695 136.692 333.47 137.841C336.245 138.991 338.766 140.675 340.89 142.799C343.014 144.923 344.699 147.445 345.849 150.22C346.998 152.995 347.59 155.969 347.59 158.973C347.59 160.962 346.8 162.87 345.393 164.276C343.987 165.683 342.079 166.473 340.09 166.473Z" fill="#4E5660"/>
<path d="M350.52 212.82H313.508C311.519 212.82 309.611 212.03 308.205 210.623C306.798 209.217 306.008 207.309 306.008 205.32C306.008 203.331 306.798 201.423 308.205 200.017C309.611 198.61 311.519 197.82 313.508 197.82H350.52C352.509 197.82 354.417 198.61 355.823 200.017C357.23 201.423 358.02 203.331 358.02 205.32C358.02 207.309 357.23 209.217 355.823 210.623C354.417 212.03 352.509 212.82 350.52 212.82Z" fill="white"/>
<path d="M327.934 251.563C326.949 251.563 325.974 251.369 325.065 250.991C324.155 250.614 323.329 250.06 322.634 249.363L303.863 230.6C302.456 229.194 301.665 227.286 301.665 225.297C301.665 223.308 302.454 221.4 303.861 219.993C305.267 218.586 307.175 217.796 309.164 217.795C311.153 217.795 313.061 218.585 314.468 219.991L333.238 238.761C334.285 239.81 334.999 241.146 335.287 242.6C335.576 244.054 335.428 245.561 334.861 246.93C334.294 248.3 333.333 249.471 332.101 250.295C330.869 251.119 329.42 251.56 327.938 251.561L327.934 251.563Z" fill="white"/>
<path d="M198.492 212.82H161.48C159.491 212.82 157.584 212.03 156.177 210.623C154.771 209.217 153.98 207.309 153.98 205.32C153.98 203.331 154.771 201.423 156.177 200.017C157.584 198.61 159.491 197.82 161.48 197.82H198.492C200.482 197.82 202.389 198.61 203.796 200.017C205.202 201.423 205.992 203.331 205.992 205.32C205.992 207.309 205.202 209.217 203.796 210.623C202.389 212.03 200.482 212.82 198.492 212.82Z" fill="white"/>
<path d="M184.066 251.563C182.583 251.562 181.135 251.121 179.902 250.297C178.67 249.473 177.71 248.302 177.143 246.932C176.576 245.563 176.427 244.056 176.716 242.602C177.005 241.148 177.718 239.812 178.766 238.763L197.532 219.993C198.943 218.611 200.843 217.842 202.818 217.853C204.794 217.864 206.685 218.653 208.081 220.05C209.478 221.447 210.267 223.339 210.278 225.314C210.288 227.289 209.519 229.189 208.137 230.6L189.371 249.366C188.675 250.064 187.848 250.617 186.937 250.994C186.027 251.371 185.051 251.564 184.066 251.563Z" fill="white"/>
</svg>
