<svg width="512" height="512" viewBox="0 0 512 512" fill="none" xmlns="http://www.w3.org/2000/svg">
<path d="M303.286 481.7H283.396V423.664C283.396 416.761 285.515 410.025 289.466 404.364L297.103 393.434C303.143 384.784 307.332 374.98 309.408 364.637C311.484 354.293 311.403 343.632 309.169 333.321L301.927 299.895H225.29L218.048 333.321C215.815 343.632 215.734 354.293 217.81 364.636C219.886 374.98 224.075 384.784 230.114 393.434L237.751 404.364C241.701 410.025 243.82 416.761 243.821 423.664V481.7H237.021C233.414 481.7 229.954 483.133 227.404 485.683C224.854 488.234 223.421 491.693 223.421 495.3V498.4C223.421 502.007 224.854 505.466 227.404 508.017C229.954 510.567 233.414 512 237.021 512H303.287C305.073 512 306.841 511.648 308.491 510.965C310.141 510.281 311.64 509.28 312.903 508.017C314.166 506.754 315.168 505.255 315.851 503.605C316.535 501.954 316.887 500.186 316.887 498.4V495.3C316.887 493.514 316.535 491.745 315.851 490.095C315.168 488.445 314.166 486.946 312.903 485.683C311.64 484.42 310.141 483.418 308.49 482.735C306.84 482.052 305.072 481.7 303.286 481.7Z" fill="#E68A97"/>
<path d="M263.716 481.7H243.821V423.664C243.823 416.761 245.944 410.024 249.895 404.364L257.528 393.434C263.568 384.784 267.757 374.98 269.834 364.637C271.91 354.293 271.828 343.632 269.594 333.321L262.352 299.895H185.72L178.478 333.321C176.244 343.632 176.162 354.292 178.237 364.636C180.313 374.98 184.502 384.784 190.541 393.434L198.178 404.364C202.129 410.025 204.248 416.761 204.248 423.664V481.7H197.448C193.841 481.7 190.382 483.133 187.832 485.683C185.281 488.234 183.848 491.693 183.848 495.3V498.4C183.848 502.007 185.281 505.466 187.832 508.017C190.382 510.567 193.841 512 197.448 512H263.714C267.321 512 270.78 510.567 273.331 508.017C275.881 505.466 277.314 502.007 277.314 498.4V495.3C277.314 491.693 275.882 488.235 273.332 485.684C270.782 483.134 267.323 481.701 263.716 481.7Z" fill="#EDA1AB"/>
<path d="M316.876 384.676H223.276C191.499 384.675 160.47 375.035 134.286 357.029C108.103 339.024 87.9963 313.5 76.6223 283.828L61.5173 244.422C60.043 240.575 59.6673 236.395 60.4323 232.347C61.1973 228.299 63.0728 224.544 65.8492 221.501C68.6257 218.457 72.1937 216.246 76.1546 215.114C80.1154 213.982 84.313 213.974 88.2783 215.09L97.0053 217.547C110.333 221.298 124.342 221.945 137.958 219.438C196.977 208.564 256.864 203.093 316.876 203.094C340.956 203.094 364.049 212.659 381.075 229.686C398.102 246.713 407.667 269.806 407.667 293.885C407.667 317.964 398.102 341.057 381.075 358.084C364.049 375.111 340.956 384.676 316.876 384.676Z" fill="#4E5660"/>
<path d="M346.376 379.746C227.485 380.746 189.7 272.832 211.415 208.758C186.815 211.399 162.328 214.959 137.954 219.438C124.338 221.946 110.328 221.299 97.0011 217.547L88.2741 215.09C84.3089 213.975 80.1116 213.983 76.1512 215.116C72.1907 216.248 68.6231 218.459 65.8468 221.502C63.0706 224.545 61.195 228.3 60.4298 232.348C59.6645 236.395 60.0395 240.576 61.5131 244.422L76.6181 283.828C87.9927 313.501 108.1 339.025 134.285 357.031C160.47 375.036 191.5 384.676 223.278 384.676H316.878C326.916 384.679 336.885 383.013 346.376 379.746Z" fill="#383C43"/>
<path d="M177.419 244.895C163.235 244.895 147.329 253.485 147.329 267.672C147.329 272.372 149.778 280.652 155.216 283.453C145.47 287.098 134.116 296.469 134.116 307.488C134.116 320.988 148.932 332.027 162.159 333.07L162.143 333.175C180.043 333.175 277.315 343.55 277.315 289.034C277.315 234.518 195.321 244.895 177.419 244.895Z" fill="white"/>
<path d="M177.419 244.895C163.235 244.895 147.329 253.485 147.329 267.672C147.329 272.372 149.778 280.652 155.216 283.453C145.47 287.098 134.116 296.469 134.116 307.488C134.116 320.988 148.932 332.027 162.159 333.07L162.143 333.175C180.043 333.175 277.315 343.55 277.315 289.034C277.315 234.518 195.321 244.895 177.419 244.895Z" fill="white"/>
<path d="M191.747 290.953H155.216C153.227 290.953 151.319 290.163 149.913 288.756C148.506 287.35 147.716 285.442 147.716 283.453C147.716 281.464 148.506 279.556 149.913 278.15C151.319 276.743 153.227 275.953 155.216 275.953H191.747C193.736 275.953 195.644 276.743 197.05 278.15C198.457 279.556 199.247 281.464 199.247 283.453C199.247 285.442 198.457 287.35 197.05 288.756C195.644 290.163 193.736 290.953 191.747 290.953Z" fill="#FAE0BD"/>
<path d="M451.259 82.129C451.259 36.77 409.786 0 358.626 0C307.466 0 266.001 36.77 266.001 82.129C266.001 117.883 284.153 144.529 322.907 154.219L317.93 232.168C317.55 238.127 318.395 244.1 320.414 249.72C322.432 255.339 325.582 260.485 329.667 264.839C333.752 269.193 338.687 272.664 344.166 275.037C349.646 277.409 355.553 278.633 361.524 278.633H371.774C375.553 278.633 379.292 277.858 382.76 276.356C386.228 274.854 389.351 272.658 391.937 269.902C394.522 267.145 396.515 263.888 397.793 260.332C399.07 256.775 399.605 252.994 399.364 249.223L393.317 154.465C432.778 144.992 451.259 118.2 451.259 82.129Z" fill="#EDA1AB"/>
<path d="M321.919 92.23C321.919 82.789 312.31 75.136 300.454 75.136C288.598 75.136 278.989 82.788 278.989 92.23C278.989 101.672 288.598 109.324 300.454 109.324C312.31 109.324 321.919 101.672 321.919 92.23Z" fill="white"/>
<path d="M438.263 92.23C438.263 82.789 428.654 75.136 416.798 75.136C404.942 75.136 395.337 82.788 395.337 92.23C395.337 101.672 404.946 109.324 416.798 109.324C428.65 109.324 438.263 101.672 438.263 92.23Z" fill="white"/>
<path d="M304.044 79.5469C302.055 79.5469 300.147 78.7568 298.741 77.3502C297.334 75.9437 296.544 74.0361 296.544 72.0469V62.8359C296.544 60.8468 297.334 58.9392 298.741 57.5326C300.147 56.1261 302.055 55.3359 304.044 55.3359C306.033 55.3359 307.941 56.1261 309.347 57.5326C310.754 58.9392 311.544 60.8468 311.544 62.8359V72.0469C311.544 74.0361 310.754 75.9437 309.347 77.3502C307.941 78.7568 306.033 79.5469 304.044 79.5469Z" fill="#4E5660"/>
<path d="M413.212 79.5469C411.223 79.5469 409.315 78.7568 407.909 77.3502C406.502 75.9437 405.712 74.0361 405.712 72.0469V62.8359C405.712 60.8468 406.502 58.9392 407.909 57.5326C409.315 56.1261 411.223 55.3359 413.212 55.3359C415.201 55.3359 417.109 56.1261 418.515 57.5326C419.922 58.9392 420.712 60.8468 420.712 62.8359V72.0469C420.712 74.0361 419.922 75.9437 418.515 77.3502C417.109 78.7568 415.201 79.5469 413.212 79.5469Z" fill="#4E5660"/>
<path d="M373.771 73.109L363.501 69.316C360.353 68.1556 356.895 68.1556 353.747 69.316L343.481 73.109C341.644 73.7869 339.969 74.8403 338.563 76.2021C337.157 77.5639 336.05 79.204 335.313 81.0178C334.576 82.8315 334.226 84.7789 334.285 86.7357C334.343 88.6925 334.809 90.6155 335.653 92.382L345.337 112.659C346.535 115.167 348.419 117.285 350.771 118.768C353.123 120.251 355.846 121.037 358.626 121.037C361.406 121.037 364.129 120.251 366.481 118.768C368.832 117.285 370.716 115.167 371.915 112.659L381.601 92.383C382.444 90.6162 382.909 88.693 382.967 86.7363C383.025 84.7796 382.675 82.8322 381.938 81.0185C381.201 79.2049 380.094 77.5648 378.688 76.2029C377.282 74.841 375.607 73.7873 373.771 73.109Z" fill="#F7EF87"/>
</svg>
