<svg width="514" height="512" viewBox="0 0 514 512" fill="none" xmlns="http://www.w3.org/2000/svg">
<path d="M284.691 396.596V434.932C284.691 441.617 287.347 448.029 292.074 452.756C296.802 457.483 303.213 460.139 309.898 460.139C316.584 460.139 322.995 457.483 327.722 452.756C332.45 448.029 335.105 441.617 335.105 434.932V396.596C335.105 389.911 332.45 383.499 327.722 378.772C322.995 374.045 316.584 371.389 309.898 371.389C303.213 371.389 296.802 374.045 292.074 378.772C287.347 383.499 284.691 389.911 284.691 396.596Z" fill="#EEA849"/>
<path d="M229.301 396.596V434.932C229.301 441.617 226.645 448.028 221.918 452.755C217.191 457.481 210.78 460.137 204.096 460.137C197.411 460.137 191 457.481 186.273 452.755C181.546 448.028 178.891 441.617 178.891 434.932V396.596C178.891 389.911 181.546 383.5 186.273 378.773C191 374.046 197.411 371.391 204.096 371.391C210.78 371.391 217.191 374.046 221.918 378.773C226.645 383.5 229.301 389.911 229.301 396.596Z" fill="#EEA849"/>
<path d="M17.356 290.166C1.85601 274.666 -6.12799 247.912 9.36801 232.416C14.501 227.287 26.22 220.916 35.223 223.791C28.559 209.162 26.391 186.521 38.423 174.482C53.165 159.74 81.415 163.865 97.005 177.173C97.005 177.173 234.247 291.521 174.696 351.073C115.145 410.625 36.915 309.721 17.356 290.166Z" fill="#BAE7FF"/>
<path d="M64.5878 260.658C63.6031 260.658 62.628 260.464 61.7185 260.086C60.809 259.709 59.9829 259.155 59.2878 258.458L29.9198 229.096C28.5536 227.681 27.7976 225.787 27.8147 223.82C27.8318 221.854 28.6206 219.973 30.0112 218.582C31.4017 217.192 33.2828 216.403 35.2493 216.386C37.2158 216.369 39.1103 217.125 40.5248 218.491L69.8918 247.854C70.9394 248.903 71.6526 250.239 71.9414 251.693C72.2303 253.147 72.0818 254.654 71.5147 256.023C70.9476 257.393 69.9873 258.564 68.7551 259.388C67.523 260.212 66.0742 260.653 64.5918 260.654L64.5878 260.658Z" fill="#8CD6FE"/>
<path d="M496.646 290.166C512.146 274.666 520.126 247.912 504.634 232.416C499.501 227.287 487.782 220.916 478.779 223.791C485.443 209.162 487.611 186.521 475.579 174.482C460.837 159.74 432.587 163.865 416.997 177.173C416.997 177.173 279.755 291.521 339.31 351.073C398.865 410.625 477.087 309.721 496.646 290.166Z" fill="#8CD6FE"/>
<path d="M449.415 260.658C447.933 260.657 446.484 260.216 445.252 259.392C444.02 258.568 443.06 257.397 442.492 256.027C441.925 254.658 441.777 253.151 442.066 251.697C442.354 250.243 443.068 248.907 444.115 247.858L473.482 218.495C474.897 217.129 476.791 216.373 478.758 216.39C480.724 216.407 482.605 217.196 483.996 218.586C485.386 219.977 486.175 221.858 486.192 223.824C486.209 225.791 485.453 227.685 484.087 229.1L454.72 258.467C454.024 259.163 453.196 259.715 452.286 260.091C451.376 260.467 450.4 260.66 449.415 260.658Z" fill="#BAE7FF"/>
<path d="M183.268 170.826C210.377 133.951 188.76 86.154 160.744 56.602C159.073 54.834 157.06 53.4255 154.826 52.4629C152.593 51.5003 150.186 51.0038 147.754 51.0038C145.321 51.0038 142.915 51.5003 140.681 52.4629C138.448 53.4255 136.434 54.834 134.764 56.602C106.744 86.157 85.1267 133.954 112.241 170.829L183.268 170.826Z" fill="#8CD6FE"/>
<path d="M330.735 170.826C303.622 133.951 325.243 86.154 353.259 56.602C354.93 54.834 356.943 53.4255 359.177 52.4629C361.41 51.5003 363.817 51.0038 366.249 51.0038C368.681 51.0038 371.088 51.5003 373.322 52.4629C375.555 53.4255 377.569 54.834 379.239 56.602C407.259 86.157 428.876 133.954 401.762 170.829L330.735 170.826Z" fill="#8CD6FE"/>
<path d="M406.314 277.69C406.314 307.221 397.557 336.089 381.15 360.644C364.743 385.198 341.424 404.336 314.14 415.637C286.857 426.938 256.835 429.895 227.871 424.134C198.907 418.373 172.302 404.152 151.42 383.27C130.539 362.388 116.318 335.783 110.557 306.819C104.795 277.856 107.752 247.834 119.053 220.55C130.354 193.267 149.492 169.947 174.047 153.541C198.601 137.134 227.469 128.377 257.001 128.377C276.609 128.377 296.025 132.238 314.141 139.742C332.256 147.245 348.717 158.244 362.582 172.109C376.447 185.974 387.445 202.434 394.949 220.55C402.452 238.666 406.314 258.082 406.314 277.69Z" fill="#BAE7FF"/>
<path d="M186.993 145.783C155.352 162.606 130.814 190.244 117.858 223.655C104.901 257.066 104.39 294.022 116.416 327.778C128.443 361.535 152.206 389.842 183.37 407.534C214.533 425.226 251.019 431.124 286.169 424.15C194.583 400.545 166.177 236.49 186.993 145.783Z" fill="#8CD6FE"/>
<path d="M257.002 386.166C255.013 386.166 253.105 385.376 251.699 383.969C250.292 382.563 249.502 380.655 249.502 378.666V361.342C249.502 359.353 250.292 357.445 251.699 356.039C253.105 354.632 255.013 353.842 257.002 353.842C258.991 353.842 260.899 354.632 262.305 356.039C263.712 357.445 264.502 359.353 264.502 361.342V378.666C264.502 380.655 263.712 382.563 262.305 383.969C260.899 385.376 258.991 386.166 257.002 386.166Z" fill="#8CD6FE"/>
<path d="M197.564 363.295C195.575 363.295 193.668 362.505 192.261 361.098C190.855 359.692 190.064 357.784 190.064 355.795V338.471C190.064 336.482 190.855 334.574 192.261 333.168C193.668 331.761 195.575 330.971 197.564 330.971C199.554 330.971 201.461 331.761 202.868 333.168C204.274 334.574 205.064 336.482 205.064 338.471V355.795C205.064 357.784 204.274 359.692 202.868 361.098C201.461 362.505 199.554 363.295 197.564 363.295Z" fill="#BAE7FF"/>
<path d="M316.439 363.295C314.45 363.295 312.543 362.505 311.136 361.098C309.73 359.692 308.939 357.784 308.939 355.795V338.471C308.939 336.482 309.73 334.574 311.136 333.168C312.543 331.761 314.45 330.971 316.439 330.971C318.429 330.971 320.336 331.761 321.743 333.168C323.149 334.574 323.939 336.482 323.939 338.471V355.795C323.939 357.784 323.149 359.692 321.743 361.098C320.336 362.505 318.429 363.295 316.439 363.295Z" fill="#8CD6FE"/>
<path d="M336.962 125.373H177.04C161.338 125.375 145.93 129.63 132.452 137.686C118.974 145.742 107.929 157.298 100.49 171.126C93.0513 184.954 89.4966 200.539 90.2034 216.225C90.9102 231.911 95.852 247.113 104.504 260.217C113.156 273.32 125.196 283.836 139.344 290.647C153.492 297.457 169.22 300.31 184.859 298.9C200.498 297.49 215.463 291.872 228.165 282.64C240.867 273.409 250.832 260.91 257.001 246.471C263.171 260.912 273.136 273.413 285.839 282.645C298.541 291.878 313.508 297.497 329.148 298.908C344.788 300.318 360.518 297.466 374.667 290.654C388.817 283.843 400.857 273.327 409.51 260.222C418.163 247.117 423.105 231.914 423.811 216.226C424.518 200.539 420.962 184.953 413.522 171.123C406.082 157.294 395.036 145.738 381.556 137.682C368.076 129.627 352.666 125.372 336.962 125.371V125.373Z" fill="#FCF2D0"/>
<path d="M192.984 125.373H177.039C165.023 125.372 153.137 127.863 142.131 132.687C131.126 137.511 121.24 144.565 113.098 153.402C104.955 162.239 98.7331 172.668 94.8242 184.031C90.9153 195.394 89.4043 207.444 90.3868 219.42C91.3692 231.396 94.8236 243.039 100.532 253.613C106.24 264.187 114.079 273.462 123.553 280.854C133.026 288.247 143.93 293.594 155.574 296.561C167.219 299.527 179.352 300.047 191.207 298.088C176.023 236.67 177.367 167.58 192.984 125.373Z" fill="#FAE0BD"/>
<path d="M318.641 125.373H195.359L231.953 249.752H282.047L318.641 125.373Z" fill="#BAE7FF"/>
<path d="M188.177 242.209C188.177 226.893 170.157 214.482 147.931 214.482C125.705 214.482 107.689 226.892 107.689 242.209C107.689 257.526 125.705 269.936 147.931 269.936C170.157 269.936 188.177 257.522 188.177 242.209Z" fill="#EDA1AB"/>
<path d="M406.314 242.209C406.314 226.893 388.298 214.482 366.072 214.482C343.846 214.482 325.826 226.892 325.826 242.209C325.826 257.526 343.846 269.936 366.072 269.936C388.298 269.936 406.314 257.522 406.314 242.209Z" fill="#EDA1AB"/>
<path d="M190.539 219.154C188.55 219.154 186.643 218.364 185.236 216.957C183.83 215.551 183.039 213.643 183.039 211.654C183.039 208.563 181.812 205.599 179.626 203.413C177.44 201.227 174.476 200 171.385 200C168.294 200 165.33 201.227 163.144 203.413C160.958 205.599 159.73 208.563 159.73 211.654C159.73 213.643 158.94 215.551 157.534 216.957C156.127 218.364 154.22 219.154 152.23 219.154C150.241 219.154 148.334 218.364 146.927 216.957C145.521 215.551 144.73 213.643 144.73 211.654C144.73 208.154 145.42 204.688 146.759 201.454C148.099 198.22 150.062 195.282 152.537 192.806C155.012 190.331 157.951 188.368 161.185 187.028C164.419 185.689 167.885 185 171.385 185C174.885 185 178.351 185.689 181.585 187.028C184.819 188.368 187.757 190.331 190.233 192.806C192.708 195.282 194.671 198.22 196.011 201.454C197.35 204.688 198.039 208.154 198.039 211.654C198.039 213.643 197.249 215.551 195.843 216.957C194.436 218.364 192.529 219.154 190.539 219.154Z" fill="#4E5660"/>
<path d="M361.771 219.154C359.782 219.154 357.874 218.364 356.468 216.957C355.061 215.551 354.271 213.643 354.271 211.654C354.271 208.563 353.043 205.598 350.857 203.412C348.671 201.226 345.706 199.998 342.615 199.998C339.524 199.998 336.559 201.226 334.373 203.412C332.187 205.598 330.959 208.563 330.959 211.654C330.959 213.643 330.169 215.551 328.762 216.957C327.356 218.364 325.448 219.154 323.459 219.154C321.47 219.154 319.562 218.364 318.156 216.957C316.749 215.551 315.959 213.643 315.959 211.654C315.959 204.584 318.767 197.804 323.766 192.805C328.766 187.806 335.546 184.998 342.615 184.998C349.685 184.998 356.465 187.806 361.464 192.805C366.464 197.804 369.272 204.584 369.272 211.654C369.272 212.639 369.078 213.614 368.701 214.524C368.324 215.434 367.771 216.261 367.075 216.958C366.378 217.654 365.551 218.207 364.641 218.583C363.731 218.96 362.756 219.154 361.771 219.154Z" fill="#4E5660"/>
<path d="M214.294 251.369L243.407 297.42C244.857 299.714 246.864 301.603 249.241 302.912C251.618 304.222 254.288 304.908 257.001 304.908C259.715 304.908 262.384 304.222 264.761 302.912C267.138 301.603 269.145 299.714 270.595 297.42L299.708 251.369C302.094 247.596 303.197 243.153 302.854 238.703C302.51 234.252 300.739 230.031 297.802 226.669L269.634 194.403C268.06 192.6 266.118 191.156 263.939 190.166C261.76 189.176 259.394 188.664 257.001 188.664C254.608 188.664 252.242 189.176 250.063 190.166C247.884 191.156 245.943 192.6 244.368 194.403L216.201 226.674C213.265 230.035 211.493 234.255 211.149 238.705C210.806 243.155 211.909 247.597 214.294 251.369Z" fill="#EEA849"/>
</svg>
