<svg width="512" height="512" viewBox="0 0 512 512" fill="none" xmlns="http://www.w3.org/2000/svg">
<path d="M173.147 406.766C173.147 413.739 171.079 420.555 167.205 426.352C163.332 432.15 157.826 436.668 151.384 439.336C144.942 442.005 137.854 442.703 131.015 441.343C124.176 439.982 117.895 436.625 112.964 431.694C108.034 426.764 104.676 420.482 103.316 413.644C101.956 406.805 102.654 399.717 105.322 393.275C107.991 386.833 112.509 381.327 118.307 377.453C124.104 373.58 130.92 371.512 137.893 371.512C147.242 371.513 156.209 375.227 162.82 381.839C169.431 388.45 173.146 397.416 173.147 406.766Z" fill="#FAE0BD"/>
<path d="M188.085 512C178.139 512 168.601 508.049 161.568 501.017C154.536 493.984 150.585 484.446 150.585 474.5V387.426C150.729 377.576 154.743 368.179 161.759 361.264C168.775 354.35 178.23 350.474 188.081 350.474C197.932 350.474 207.387 354.35 214.403 361.264C221.419 368.179 225.433 377.576 225.577 387.426V474.5C225.577 484.444 221.627 493.981 214.596 501.014C207.565 508.046 198.029 511.998 188.085 512Z" fill="#4E5660"/>
<path d="M340.757 512C330.811 512 321.273 508.049 314.24 501.017C307.208 493.984 303.257 484.446 303.257 474.5V387.426C303.401 377.576 307.414 368.179 314.431 361.264C321.447 354.35 330.902 350.474 340.753 350.474C350.604 350.474 360.059 354.35 367.075 361.264C374.091 368.179 378.105 377.576 378.249 387.426V474.5C378.249 484.444 374.299 493.981 367.268 501.014C360.237 508.046 350.701 511.998 340.757 512Z" fill="#4E5660"/>
<path d="M379.534 320.289C372.118 320.288 364.869 318.088 358.703 313.968C352.538 309.848 347.732 303.992 344.894 297.14C342.056 290.289 341.313 282.75 342.759 275.477C344.205 268.203 347.775 261.522 353.018 256.277L411.831 197.465C418.899 190.607 428.38 186.805 438.228 186.879C448.075 186.953 457.498 190.898 464.462 197.861C471.425 204.825 475.37 214.248 475.444 224.095C475.518 233.943 471.716 243.425 464.858 250.492L406.05 309.3C402.572 312.788 398.439 315.554 393.888 317.44C389.338 319.325 384.46 320.294 379.534 320.289Z" fill="#4E5660"/>
<path d="M149.308 320.289C144.382 320.295 139.504 319.327 134.953 317.441C130.403 315.555 126.27 312.788 122.792 309.3L63.9829 250.492C57.125 243.425 53.3225 233.943 53.3966 224.095C53.4707 214.248 57.4155 204.825 64.379 197.861C71.3425 190.898 80.7657 186.953 90.6133 186.879C100.461 186.805 109.942 190.607 117.01 197.465L175.823 256.278C181.066 261.523 184.636 268.204 186.082 275.478C187.528 282.751 186.785 290.29 183.947 297.141C181.109 303.993 176.303 309.849 170.138 313.969C163.972 318.089 156.723 320.289 149.307 320.29L149.308 320.289Z" fill="#4E5660"/>
<path d="M362.874 211.809H165.968L136.827 292.836C128.667 315.534 126.588 339.973 130.799 363.723C134.804 386.322 146.639 406.789 164.226 421.533C181.814 436.278 204.032 444.36 226.983 444.36H301.866C324.817 444.36 347.035 436.278 364.623 421.533C382.21 406.789 394.045 386.322 398.05 363.723C402.26 339.972 400.18 315.533 392.015 292.836L362.874 211.809Z" fill="#FCF2D0"/>
<path d="M395.448 303.867C394.456 300.156 393.311 296.479 392.014 292.836L362.873 211.809H165.968L136.827 292.836C135.527 296.473 134.39 300.156 133.393 303.867C176.472 285.363 352.37 285.363 395.448 303.867Z" fill="#4E5660"/>
<path d="M183.894 60.137C183.894 72.0304 180.367 83.6566 173.759 93.5455C167.151 103.434 157.759 111.142 146.771 115.693C135.783 120.244 123.692 121.435 112.027 119.114C100.362 116.794 89.6471 111.067 81.2372 102.657C72.8273 94.247 67.1 83.5321 64.7796 71.8672C62.4592 60.2024 63.6499 48.1114 68.2012 37.1233C72.7524 26.1351 80.4597 16.7433 90.3486 10.1354C100.237 3.52754 111.864 0.000395572 123.757 8.31539e-09C131.654 -0.000131317 139.474 1.55527 146.771 4.57739C154.067 7.59951 160.696 12.0292 166.281 17.6134C171.865 23.1977 176.295 29.8272 179.317 37.1234C182.339 44.4196 183.894 52.2397 183.894 60.137Z" fill="#4E5660"/>
<path d="M465.218 60.137C465.218 72.0306 461.691 83.6569 455.083 93.5459C448.475 103.435 439.082 111.142 428.094 115.693C417.106 120.244 405.015 121.435 393.35 119.114C381.685 116.793 370.97 111.066 362.56 102.655C354.15 94.2451 348.423 83.5299 346.103 71.8648C343.783 60.1997 344.975 48.1086 349.527 37.1205C354.078 26.1324 361.786 16.7409 371.676 10.1335C381.565 3.52607 393.192 -0.000395523 405.085 3.32728e-08C412.982 -0.000131324 420.802 1.5553 428.098 4.57747C435.394 7.59964 442.023 12.0294 447.607 17.6137C453.191 23.198 457.621 29.8275 460.642 37.1237C463.664 44.4199 465.219 52.2398 465.218 60.137Z" fill="#4E5660"/>
<path d="M264.421 266.039C336.394 266.039 418.237 232.594 424.062 156.439C429.925 79.75 365.233 17.176 264.421 17.176C163.609 17.176 98.917 79.75 104.78 156.441C110.604 232.594 192.448 266.039 264.421 266.039Z" fill="#FCF2D0"/>
<path d="M264.421 266.039C336.394 266.039 418.237 232.594 424.062 156.439C429.925 79.75 365.233 17.176 264.421 17.176C163.609 17.176 98.917 79.75 104.78 156.441C110.604 232.594 192.448 266.039 264.421 266.039Z" fill="#FCF2D0"/>
<path d="M220.976 21.371C145.534 36.582 99.8118 91.438 104.78 156.441C110.604 232.593 192.448 266.041 264.421 266.041C275.063 266.037 285.692 265.314 296.237 263.877C142.569 219.223 142.569 74.113 220.976 21.371Z" fill="#FAE0BD"/>
<path d="M197.675 144.457C197.675 128.203 181.128 115.023 160.718 115.023C140.308 115.023 123.757 128.2 123.757 144.457C123.757 160.714 140.304 173.891 160.718 173.891C181.132 173.891 197.675 160.711 197.675 144.457Z" fill="#EDA1AB"/>
<path d="M205.425 130.285C223.218 112.492 227.269 87.695 214.472 74.898C201.675 62.101 176.878 66.152 159.085 83.945C141.292 101.738 137.245 126.535 150.038 139.332C162.831 152.129 187.632 148.078 205.425 130.285Z" fill="#4E5660"/>
<path d="M405.085 144.457C405.085 128.203 388.538 115.023 368.124 115.023C347.71 115.023 331.167 128.203 331.167 144.457C331.167 160.711 347.714 173.891 368.124 173.891C388.534 173.891 405.085 160.711 405.085 144.457Z" fill="#EDA1AB"/>
<path d="M323.417 130.285C341.21 148.078 366.011 152.129 378.804 139.332C391.597 126.535 387.55 101.738 369.757 83.945C351.964 66.152 327.167 62.1 314.37 74.9C301.573 87.7 305.624 112.492 323.417 130.285Z" fill="#4E5660"/>
<path d="M182.257 122.6C180.268 122.6 178.36 121.81 176.954 120.403C175.547 118.997 174.757 117.089 174.757 115.1V102.047C174.757 100.058 175.547 98.1502 176.954 96.7437C178.36 95.3372 180.268 94.547 182.257 94.547C184.246 94.547 186.154 95.3372 187.56 96.7437C188.967 98.1502 189.757 100.058 189.757 102.047V115.1C189.757 117.089 188.967 118.997 187.56 120.403C186.154 121.81 184.246 122.6 182.257 122.6Z" fill="white"/>
<path d="M346.585 122.6C344.596 122.6 342.688 121.81 341.282 120.403C339.875 118.997 339.085 117.089 339.085 115.1V102.047C339.085 100.058 339.875 98.1502 341.282 96.7437C342.688 95.3372 344.596 94.547 346.585 94.547C348.574 94.547 350.482 95.3372 351.888 96.7437C353.295 98.1502 354.085 100.058 354.085 102.047V115.1C354.085 117.089 353.295 118.997 351.888 120.403C350.482 121.81 348.574 122.6 346.585 122.6Z" fill="white"/>
<path d="M264.421 201.18C259.735 201.178 255.104 200.171 250.84 198.229C246.575 196.286 242.776 193.452 239.699 189.918C238.392 188.418 237.735 186.461 237.871 184.476C238.008 182.492 238.927 180.643 240.426 179.336C241.926 178.029 243.883 177.372 245.868 177.508C247.852 177.644 249.701 178.563 251.008 180.063C252.677 181.983 254.738 183.523 257.053 184.579C259.368 185.634 261.882 186.18 264.426 186.18C266.97 186.18 269.485 185.634 271.8 184.579C274.114 183.523 276.176 181.983 277.844 180.063C278.491 179.32 279.278 178.713 280.16 178.274C281.042 177.836 282.002 177.575 282.985 177.508C283.967 177.44 284.954 177.567 285.887 177.881C286.821 178.194 287.684 178.689 288.426 179.336C289.169 179.983 289.777 180.77 290.215 181.652C290.653 182.534 290.914 183.494 290.981 184.476C291.049 185.459 290.922 186.445 290.609 187.379C290.295 188.313 289.8 189.175 289.153 189.918C286.075 193.454 282.275 196.288 278.008 198.231C273.742 200.174 269.109 201.179 264.421 201.18Z" fill="#4E5660"/>
<path d="M283.671 119.457C271.05 116.152 257.791 116.152 245.171 119.457C239.943 120.825 235.389 124.04 232.351 128.508C231.387 129.924 230.746 131.535 230.473 133.226C230.201 134.918 230.303 136.648 230.772 138.296C231.242 139.943 232.067 141.467 233.19 142.761C234.314 144.054 235.707 145.085 237.273 145.781L255.773 154.008C258.496 155.218 261.443 155.844 264.423 155.844C267.403 155.844 270.35 155.218 273.073 154.008L291.565 145.781C293.131 145.086 294.525 144.055 295.648 142.762C296.772 141.468 297.598 139.944 298.068 138.297C298.538 136.649 298.64 134.918 298.367 133.227C298.095 131.536 297.454 129.925 296.491 128.508C293.452 124.04 288.898 120.825 283.671 119.457Z" fill="#4E5660"/>
</svg>
