<svg width="512" height="512" viewBox="0 0 512 512" fill="none" xmlns="http://www.w3.org/2000/svg">
<path d="M358.672 386.23C353.566 389.153 347.828 390.798 341.949 391.025C336.069 391.252 330.222 390.054 324.906 387.532C319.589 385.011 314.961 381.242 311.417 376.546C307.872 371.85 305.515 366.366 304.547 360.562C296.236 310.737 303.46 259.561 325.238 213.984L329.138 205.824C333.839 195.985 341.745 188.036 351.558 183.283C361.372 178.529 372.51 177.252 383.145 179.662C393.779 182.072 403.278 188.026 410.084 196.546C416.889 205.066 420.595 215.647 420.595 226.551V279.442C420.596 301.119 414.869 322.411 403.995 341.164C393.121 359.916 377.486 375.463 358.672 386.23Z" fill="#F7EF87"/>
<path d="M337.577 302.871C329.241 302.871 321.749 298.605 318.007 292.851C316.923 291.183 316.545 289.153 316.958 287.207C317.371 285.261 318.54 283.558 320.208 282.474C321.876 281.39 323.906 281.013 325.852 281.425C327.798 281.838 329.501 283.007 330.585 284.675C332.069 286.96 336.831 289.105 341.554 287.007C342.456 286.594 343.431 286.363 344.423 286.33C345.414 286.296 346.403 286.459 347.331 286.81C348.259 287.161 349.108 287.693 349.829 288.374C350.55 289.056 351.129 289.873 351.532 290.78C351.935 291.687 352.154 292.665 352.176 293.656C352.198 294.648 352.024 295.635 351.662 296.559C351.3 297.483 350.759 298.326 350.069 299.039C349.38 299.752 348.555 300.322 347.644 300.714C344.477 302.132 341.047 302.867 337.577 302.871Z" fill="#4E5660"/>
<path d="M341.084 331.98C332.752 331.98 325.256 327.714 321.518 321.96C320.981 321.134 320.612 320.211 320.431 319.243C320.251 318.274 320.263 317.28 320.467 316.317C320.671 315.353 321.063 314.439 321.62 313.627C322.178 312.815 322.889 312.12 323.715 311.583C324.541 311.046 325.464 310.677 326.432 310.496C327.401 310.316 328.395 310.328 329.359 310.532C330.322 310.736 331.236 311.128 332.048 311.685C332.86 312.243 333.555 312.954 334.092 313.78C335.58 316.065 340.342 318.21 345.061 316.112C346.879 315.304 348.943 315.251 350.8 315.965C352.656 316.679 354.153 318.101 354.961 319.919C355.77 321.736 355.823 323.8 355.109 325.657C354.395 327.514 352.973 329.011 351.155 329.819C347.987 331.239 344.556 331.975 341.084 331.98Z" fill="#4E5660"/>
<path d="M384.399 320.355C376.067 320.355 368.575 316.089 364.833 310.335C364.279 309.51 363.895 308.582 363.702 307.607C363.51 306.632 363.513 305.628 363.712 304.654C363.911 303.68 364.302 302.755 364.862 301.934C365.421 301.112 366.139 300.41 366.972 299.868C367.806 299.326 368.738 298.955 369.716 298.777C370.694 298.599 371.698 298.617 372.669 298.83C373.64 299.043 374.559 299.447 375.372 300.019C376.186 300.59 376.877 301.318 377.407 302.159C378.891 304.44 383.653 306.585 388.376 304.487C389.276 304.087 390.246 303.868 391.231 303.843C392.215 303.817 393.195 303.986 394.115 304.34C395.034 304.693 395.875 305.224 396.589 305.903C397.303 306.581 397.876 307.394 398.276 308.294C398.677 309.194 398.896 310.164 398.921 311.148C398.946 312.133 398.777 313.113 398.424 314.032C398.07 314.951 397.539 315.792 396.861 316.506C396.182 317.22 395.37 317.794 394.47 318.194C391.302 319.614 387.871 320.35 384.399 320.355Z" fill="#4E5660"/>
<path d="M396.479 294.027C388.147 294.027 380.655 289.761 376.913 284.007C375.829 282.339 375.452 280.309 375.864 278.363C376.277 276.417 377.446 274.714 379.114 273.63C380.782 272.546 382.812 272.169 384.758 272.581C386.704 272.994 388.407 274.163 389.491 275.831C390.975 278.112 395.733 280.257 400.456 278.159C402.274 277.351 404.338 277.298 406.195 278.012C408.051 278.726 409.548 280.148 410.357 281.966C411.165 283.783 411.218 285.847 410.504 287.704C409.79 289.561 408.368 291.058 406.55 291.866C403.382 293.286 399.951 294.022 396.479 294.027Z" fill="#4E5660"/>
<path d="M356.444 273.25C348.108 273.25 340.616 268.984 336.874 263.23C335.79 261.562 335.413 259.532 335.825 257.586C336.238 255.64 337.407 253.937 339.075 252.853C340.743 251.769 342.773 251.392 344.719 251.804C346.665 252.217 348.368 253.386 349.452 255.054C350.936 257.339 355.698 259.48 360.421 257.382C361.323 256.969 362.298 256.738 363.29 256.705C364.281 256.671 365.27 256.834 366.198 257.185C367.126 257.536 367.975 258.068 368.696 258.749C369.418 259.431 369.996 260.248 370.399 261.155C370.802 262.062 371.021 263.04 371.043 264.031C371.066 265.023 370.891 266.01 370.529 266.934C370.168 267.858 369.626 268.701 368.937 269.414C368.247 270.127 367.422 270.697 366.511 271.089C363.344 272.509 359.914 273.245 356.444 273.25Z" fill="#4E5660"/>
<path d="M374.249 352.949C365.913 352.949 358.421 348.683 354.679 342.929C353.595 341.261 353.217 339.231 353.63 337.285C354.043 335.339 355.212 333.636 356.88 332.552C358.548 331.468 360.578 331.091 362.524 331.503C364.47 331.916 366.173 333.085 367.257 334.753C368.741 337.034 373.503 339.179 378.226 337.081C379.128 336.668 380.103 336.437 381.094 336.404C382.086 336.37 383.075 336.533 384.003 336.884C384.931 337.235 385.78 337.767 386.501 338.448C387.222 339.13 387.801 339.947 388.204 340.854C388.607 341.761 388.826 342.739 388.848 343.73C388.87 344.722 388.696 345.709 388.334 346.633C387.972 347.557 387.431 348.4 386.741 349.113C386.051 349.826 385.227 350.396 384.316 350.788C381.149 352.208 377.719 352.944 374.249 352.949Z" fill="#4E5660"/>
<path d="M347.237 372.063C338.901 372.063 331.409 367.797 327.671 362.043C326.621 360.376 326.27 358.362 326.692 356.438C327.115 354.514 328.277 352.833 329.929 351.759C331.581 350.685 333.589 350.304 335.519 350.698C337.45 351.093 339.147 352.231 340.245 353.867C341.729 356.152 346.491 358.297 351.214 356.195C353.022 355.447 355.05 355.435 356.866 356.161C358.682 356.887 360.143 358.294 360.937 360.082C361.731 361.869 361.795 363.896 361.115 365.731C360.435 367.565 359.066 369.061 357.299 369.9C354.134 371.32 350.706 372.057 347.237 372.063Z" fill="#4E5660"/>
<path d="M266.19 443.359H235.76C230.421 443.359 225.301 441.238 221.527 437.463C217.752 433.688 215.631 428.569 215.631 423.23C215.631 417.892 217.752 412.772 221.527 408.997C225.301 405.222 230.421 403.101 235.76 403.101H266.19C271.528 403.101 276.648 405.222 280.423 408.997C284.198 412.772 286.319 417.892 286.319 423.23C286.319 428.569 284.198 433.688 280.423 437.463C276.648 441.238 271.528 443.359 266.19 443.359Z" fill="#EFD176"/>
<path d="M268.753 3.80832e-09C233.88 -0.000265219 200.435 13.8527 175.776 38.5114C151.116 63.1701 137.262 96.6148 137.261 131.488V373.609C137.26 402.06 128.934 429.888 113.308 453.664L94.1244 482.848C92.2592 485.685 91.1965 488.974 91.049 492.366C90.9015 495.759 91.6746 499.128 93.2864 502.116C94.8982 505.104 97.2886 507.601 100.204 509.341C103.12 511.081 106.452 512 109.847 512C119.564 512 129.128 509.585 137.68 504.973C146.232 500.36 153.503 493.694 158.839 485.574L164.296 477.274C175.688 459.936 184.784 441.193 191.355 421.516H208.847C255.071 421.515 299.587 404.045 333.473 372.606C367.359 341.167 388.111 298.082 391.569 251.988L399.869 141.328C401.223 123.283 398.838 105.152 392.862 88.0712C386.887 70.9902 377.45 55.3265 365.143 42.0604C352.835 28.7943 337.922 18.2114 321.336 10.974C304.75 3.73671 286.849 0.000749629 268.753 3.80829e-09V3.80832e-09Z" fill="#79CE6F"/>
<path d="M109.847 512C119.564 512.001 129.128 509.586 137.68 504.973C146.232 500.36 153.503 493.694 158.839 485.574L164.296 477.274C175.688 459.936 184.784 441.193 191.355 421.516H208.847C241.973 421.557 274.486 412.581 302.899 395.551C196.62 368.164 163.886 113.242 211.925 12.8831C189.563 23.6011 170.687 40.4239 157.476 61.41C144.265 82.396 137.257 106.69 137.261 131.488V373.609C137.261 402.059 128.934 429.886 113.308 453.66L94.1244 482.848C92.2592 485.685 91.1965 488.974 91.049 492.367C90.9015 495.759 91.6746 499.128 93.2864 502.116C94.8982 505.104 97.2886 507.601 100.204 509.341C103.12 511.081 106.452 512 109.847 512Z" fill="#4DC176"/>
<path d="M281.152 260.988C279.163 260.988 277.256 260.198 275.849 258.791C274.443 257.385 273.652 255.477 273.652 253.488V241.637C273.652 239.648 274.443 237.74 275.849 236.334C277.256 234.927 279.163 234.137 281.152 234.137C283.141 234.137 285.049 234.927 286.456 236.334C287.862 237.74 288.652 239.648 288.652 241.637V253.489C288.652 255.478 287.862 257.385 286.455 258.792C285.049 260.198 283.141 260.988 281.152 260.988Z" fill="#4DC176"/>
<path d="M350.676 260.988C348.687 260.988 346.779 260.198 345.372 258.791C343.966 257.385 343.176 255.477 343.176 253.488V241.637C343.176 239.648 343.966 237.74 345.372 236.334C346.779 234.927 348.687 234.137 350.676 234.137C352.665 234.137 354.573 234.927 355.979 236.334C357.386 237.74 358.176 239.648 358.176 241.637V253.489C358.176 255.478 357.385 257.385 355.979 258.792C354.572 260.198 352.665 260.988 350.676 260.988Z" fill="#4DC176"/>
<path d="M315.914 293.148C313.925 293.148 312.017 292.358 310.611 290.951C309.204 289.545 308.414 287.637 308.414 285.648V273.8C308.414 271.811 309.204 269.903 310.611 268.497C312.017 267.09 313.925 266.3 315.914 266.3C317.903 266.3 319.811 267.09 321.217 268.497C322.624 269.903 323.414 271.811 323.414 273.8V285.652C323.413 287.64 322.622 289.547 321.216 290.953C319.81 292.358 317.902 293.148 315.914 293.148Z" fill="#4DC176"/>
<path d="M268.754 3.80832e-09C233.88 -0.000265219 200.435 13.8527 175.776 38.5114C151.116 63.1701 137.263 96.6148 137.262 131.488V140.554C195.362 181.433 294.942 198.034 398.362 161.472L399.874 141.327C401.228 123.281 398.842 105.151 392.866 88.0696C386.891 70.9885 377.453 55.3247 365.145 42.0586C352.837 28.7925 337.924 18.2098 321.338 10.9728C304.751 3.73573 286.85 0.000209468 268.754 3.8083e-09V3.80832e-09Z" fill="#F7EF87"/>
<path d="M211.926 12.8831C189.563 23.6011 170.688 40.4239 157.477 61.41C144.265 82.396 137.258 106.69 137.262 131.488V140.554C152.617 151.354 170.887 160.437 191.34 167.316C187.516 107.6 194.258 49.7931 211.926 12.8831Z" fill="#EFD176"/>
<path d="M152.823 386.23C147.716 389.153 141.979 390.798 136.1 391.024C130.22 391.251 124.374 390.053 119.057 387.531C113.741 385.01 109.114 381.241 105.569 376.546C102.024 371.85 99.6667 366.366 98.6986 360.563C90.389 310.738 97.6129 259.562 119.39 213.984L123.29 205.824C127.99 195.985 135.896 188.036 145.71 183.283C155.523 178.529 166.661 177.252 177.296 179.662C187.93 182.072 197.43 188.026 204.235 196.546C211.04 205.066 214.747 215.647 214.747 226.551V279.442C214.748 301.119 209.021 322.412 198.147 341.164C187.273 359.917 171.637 375.463 152.823 386.23Z" fill="#F7EF87"/>
<path d="M126.729 302.871C118.393 302.871 110.901 298.605 107.163 292.851C106.113 291.184 105.762 289.17 106.184 287.246C106.607 285.322 107.77 283.641 109.421 282.567C111.073 281.493 113.081 281.112 115.012 281.506C116.942 281.901 118.639 283.039 119.737 284.675C121.221 286.96 125.979 289.105 130.706 287.007C131.608 286.594 132.583 286.363 133.575 286.33C134.567 286.296 135.555 286.459 136.483 286.81C137.411 287.161 138.261 287.693 138.982 288.374C139.703 289.056 140.282 289.873 140.685 290.78C141.087 291.687 141.306 292.665 141.329 293.656C141.351 294.648 141.176 295.635 140.815 296.559C140.453 297.483 139.912 298.326 139.222 299.039C138.532 299.752 137.708 300.322 136.796 300.714C133.63 302.132 130.199 302.867 126.729 302.871Z" fill="#4E5660"/>
<path d="M130.238 331.98C121.906 331.98 114.41 327.714 110.672 321.96C110.135 321.134 109.766 320.211 109.586 319.243C109.405 318.274 109.418 317.28 109.622 316.316C109.826 315.353 110.217 314.439 110.775 313.627C111.332 312.814 112.044 312.12 112.869 311.583C113.695 311.046 114.618 310.677 115.587 310.496C116.555 310.316 117.549 310.328 118.513 310.532C119.476 310.736 120.39 311.128 121.203 311.685C122.015 312.243 122.709 312.954 123.246 313.78C124.73 316.065 129.492 318.21 134.215 316.112C135.115 315.712 136.085 315.493 137.07 315.468C138.055 315.442 139.035 315.611 139.954 315.965C140.873 316.318 141.714 316.849 142.428 317.528C143.142 318.206 143.716 319.018 144.116 319.918C144.516 320.818 144.735 321.788 144.76 322.773C144.785 323.758 144.616 324.738 144.263 325.657C143.91 326.576 143.378 327.417 142.7 328.131C142.022 328.845 141.209 329.419 140.309 329.819C137.141 331.239 133.71 331.975 130.238 331.98Z" fill="#4E5660"/>
<path d="M173.555 320.355C165.219 320.355 157.727 316.089 153.985 310.335C153.448 309.509 153.08 308.586 152.9 307.617C152.72 306.649 152.732 305.654 152.937 304.691C153.141 303.727 153.533 302.813 154.091 302.001C154.648 301.189 155.36 300.495 156.186 299.958C157.012 299.421 157.936 299.052 158.904 298.872C159.873 298.692 160.867 298.705 161.831 298.909C162.794 299.114 163.708 299.506 164.52 300.063C165.332 300.621 166.026 301.333 166.563 302.159C168.047 304.44 172.805 306.585 177.532 304.487C179.346 303.706 181.393 303.672 183.232 304.392C185.07 305.111 186.551 306.526 187.352 308.33C188.154 310.135 188.212 312.182 187.513 314.028C186.815 315.875 185.417 317.372 183.622 318.194C180.456 319.614 177.026 320.35 173.555 320.355Z" fill="#4E5660"/>
<path d="M185.635 294.027C177.299 294.027 169.807 289.761 166.065 284.007C164.981 282.339 164.604 280.309 165.017 278.363C165.43 276.417 166.598 274.714 168.266 273.63C169.934 272.546 171.965 272.169 173.911 272.581C175.857 272.994 177.559 274.163 178.643 275.831C180.127 278.116 184.889 280.257 189.612 278.159C190.514 277.746 191.49 277.515 192.481 277.482C193.473 277.448 194.461 277.611 195.389 277.962C196.317 278.313 197.167 278.845 197.888 279.526C198.609 280.208 199.188 281.025 199.591 281.932C199.993 282.839 200.212 283.817 200.235 284.808C200.257 285.8 200.082 286.787 199.721 287.711C199.359 288.635 198.818 289.478 198.128 290.191C197.438 290.904 196.614 291.474 195.702 291.866C192.536 293.286 189.106 294.022 185.635 294.027Z" fill="#4E5660"/>
<path d="M145.598 273.25C137.262 273.25 129.77 268.984 126.032 263.23C124.983 261.563 124.631 259.549 125.053 257.625C125.476 255.701 126.639 254.02 128.29 252.946C129.942 251.872 131.95 251.491 133.881 251.885C135.811 252.28 137.509 253.418 138.606 255.054C140.09 257.339 144.852 259.48 149.575 257.382C150.478 256.969 151.453 256.738 152.444 256.705C153.436 256.671 154.424 256.834 155.352 257.185C156.28 257.536 157.13 258.068 157.851 258.749C158.572 259.431 159.151 260.248 159.554 261.155C159.957 262.062 160.175 263.04 160.198 264.031C160.22 265.023 160.045 266.01 159.684 266.934C159.322 267.858 158.781 268.701 158.091 269.414C157.401 270.127 156.577 270.697 155.665 271.089C152.499 272.509 149.069 273.245 145.598 273.25Z" fill="#4E5660"/>
<path d="M163.399 352.949C155.063 352.949 147.571 348.683 143.833 342.929C143.279 342.103 142.895 341.176 142.702 340.201C142.51 339.226 142.513 338.222 142.712 337.248C142.911 336.274 143.302 335.349 143.862 334.528C144.421 333.706 145.139 333.004 145.972 332.462C146.806 331.92 147.738 331.549 148.716 331.371C149.694 331.193 150.698 331.211 151.669 331.424C152.64 331.637 153.559 332.041 154.372 332.613C155.186 333.184 155.877 333.912 156.407 334.753C157.891 337.034 162.653 339.179 167.376 337.081C168.276 336.681 169.246 336.462 170.231 336.437C171.215 336.411 172.195 336.58 173.115 336.934C174.034 337.287 174.875 337.818 175.589 338.497C176.303 339.175 176.876 339.987 177.276 340.887C177.677 341.787 177.896 342.757 177.921 343.742C177.946 344.727 177.777 345.707 177.424 346.626C177.07 347.545 176.539 348.386 175.861 349.1C175.182 349.814 174.37 350.388 173.47 350.788C170.302 352.207 166.87 352.944 163.399 352.949Z" fill="#4E5660"/>
<path d="M136.39 372.063C128.058 372.063 120.562 367.797 116.824 362.043C115.763 360.376 115.404 358.357 115.823 356.426C116.243 354.495 117.407 352.807 119.064 351.73C120.721 350.653 122.736 350.273 124.671 350.673C126.606 351.073 128.305 352.221 129.399 353.867C130.883 356.152 135.645 358.297 140.368 356.195C142.179 355.425 144.22 355.398 146.051 356.12C147.882 356.841 149.356 358.253 150.155 360.051C150.954 361.849 151.015 363.889 150.324 365.732C149.633 367.574 148.245 369.071 146.46 369.9C143.293 371.32 139.861 372.057 136.39 372.063Z" fill="#4E5660"/>
<path d="M253.977 114.941C253.977 103.421 242.25 94.082 227.786 94.082C213.322 94.082 201.586 103.422 201.586 114.941C201.586 126.46 213.313 135.8 227.786 135.8C242.259 135.8 253.977 126.461 253.977 114.941Z" fill="#EDA1AB"/>
<path d="M395.952 114.941C395.952 103.421 384.225 94.082 369.752 94.082C355.279 94.082 343.561 103.422 343.561 114.941C343.561 126.46 355.292 135.8 369.757 135.8C384.222 135.8 395.952 126.461 395.952 114.941Z" fill="#EDA1AB"/>
<path d="M243.051 101.633C241.062 101.633 239.154 100.843 237.747 99.4364C236.341 98.0298 235.551 96.1222 235.551 94.1331V84.8831C235.551 82.8939 236.341 80.9863 237.747 79.5798C239.154 78.1732 241.062 77.3831 243.051 77.3831C245.04 77.3831 246.948 78.1732 248.354 79.5798C249.761 80.9863 250.551 82.8939 250.551 84.8831V94.1331C250.551 96.1222 249.761 98.0298 248.354 99.4364C246.948 100.843 245.04 101.633 243.051 101.633Z" fill="#4E5660"/>
<path d="M354.5 101.633C352.511 101.633 350.603 100.843 349.197 99.4364C347.79 98.0298 347 96.1222 347 94.1331V84.8831C347 82.8939 347.79 80.9863 349.197 79.5798C350.603 78.1732 352.511 77.3831 354.5 77.3831C356.489 77.3831 358.397 78.1732 359.803 79.5798C361.21 80.9863 362 82.8939 362 84.8831V94.1331C362 96.1222 361.21 98.0298 359.803 99.4364C358.397 100.843 356.489 101.633 354.5 101.633Z" fill="#4E5660"/>
<path d="M320.226 103.848L319.878 100.723C319.397 96.3684 317.326 92.3443 314.063 89.4215C310.799 86.4987 306.572 84.8827 302.191 84.8831H296.199C293.436 84.8839 290.711 85.528 288.24 86.7643C285.769 88.0006 283.62 89.7951 281.962 92.0058C280.305 94.2164 279.185 96.7826 278.691 99.5011C278.197 102.22 278.343 105.016 279.117 107.668L281.672 116.41C284.14 124.86 285.392 133.619 285.391 142.422C285.391 143.623 285.697 144.805 286.28 145.855C286.863 146.905 287.704 147.789 288.724 148.424C289.744 149.059 290.909 149.424 292.109 149.483C293.308 149.543 294.504 149.296 295.582 148.766C303.809 144.721 310.589 138.238 314.999 130.2C319.409 122.162 321.234 112.96 320.226 103.848Z" fill="#EEA849"/>
<path d="M218.984 443.359H188.555C183.216 443.359 178.096 441.238 174.321 437.463C170.547 433.688 168.426 428.569 168.426 423.23C168.426 417.892 170.547 412.772 174.321 408.997C178.096 405.222 183.216 403.101 188.555 403.101H218.985C224.323 403.101 229.443 405.222 233.218 408.997C236.993 412.772 239.114 417.892 239.114 423.23C239.114 428.569 236.993 433.688 233.218 437.463C229.443 441.238 224.323 443.359 218.985 443.359H218.984Z" fill="#F7EF87"/>
</svg>
