<svg width="513" height="512" viewBox="0 0 513 512" fill="none" xmlns="http://www.w3.org/2000/svg">
<path d="M100.436 504.52C96.6228 504.521 92.8926 503.405 89.7068 501.309C86.5209 499.213 84.019 496.229 82.5103 492.727L68.9163 461.188C67.7261 458.428 67.19 455.429 67.3499 452.427C67.5098 449.426 68.3614 446.501 69.8381 443.883C71.3148 441.264 73.3767 439.023 75.8629 437.333C78.3491 435.643 81.1922 434.551 84.1703 434.141C102.299 431.641 119.47 391.329 116.397 358.473C116.159 355.922 116.425 353.349 117.182 350.901C117.938 348.453 119.169 346.178 120.804 344.205C122.439 342.233 124.447 340.602 126.713 339.406C128.979 338.209 131.458 337.471 134.009 337.233C136.56 336.994 139.133 337.261 141.581 338.017C144.029 338.773 146.304 340.004 148.276 341.639C150.249 343.275 151.88 345.282 153.076 347.548C154.273 349.814 155.011 352.293 155.249 354.844C157.349 377.321 152.823 403.676 143.14 425.344C135.367 442.744 124.89 455.883 112.605 463.965L118.343 477.285C119.62 480.252 120.141 483.49 119.858 486.708C119.575 489.926 118.498 493.024 116.723 495.723C114.948 498.423 112.532 500.639 109.689 502.174C106.847 503.709 103.668 504.515 100.437 504.519L100.436 504.52Z" fill="#EEA849"/>
<path d="M182.722 512C178.909 512.001 175.179 510.885 171.993 508.789C168.807 506.693 166.305 503.709 164.796 500.207L151.203 468.668C150.013 465.908 149.477 462.91 149.637 459.908C149.797 456.907 150.648 453.983 152.124 451.365C153.601 448.746 155.662 446.505 158.147 444.814C160.633 443.124 163.476 442.031 166.453 441.621C184.582 439.121 201.753 398.809 198.68 365.949C198.442 363.398 198.709 360.825 199.465 358.377C200.222 355.929 201.453 353.654 203.088 351.682C204.724 349.71 206.732 348.079 208.998 346.883C211.263 345.687 213.743 344.948 216.294 344.71C218.845 344.472 221.418 344.739 223.866 345.496C226.314 346.252 228.589 347.483 230.561 349.119C232.533 350.754 234.164 352.762 235.36 355.028C236.556 357.294 237.294 359.773 237.532 362.324C239.632 384.801 235.106 411.152 225.427 432.824C217.65 450.23 207.177 463.363 194.888 471.449L200.626 484.769C201.902 487.736 202.422 490.974 202.139 494.191C201.856 497.408 200.779 500.505 199.005 503.204C197.23 505.903 194.814 508.119 191.972 509.655C189.13 511.19 185.952 511.996 182.722 512Z" fill="#E9901B"/>
<path d="M433.049 136.66C433.049 54.93 363.725 0 278.209 0C192.693 0 123.365 54.93 123.365 136.66C123.379 167.211 133.187 196.953 151.349 221.519H92.8852C81.2768 221.519 70.1439 226.131 61.9355 234.339C53.7271 242.548 49.1155 253.681 49.1152 265.289V293.621C49.115 310.934 52.5248 328.078 59.1501 344.073C65.7754 360.068 75.4864 374.602 87.7285 386.844C99.9707 399.086 114.504 408.797 130.499 415.422C146.495 422.047 163.638 425.457 180.951 425.457H197.135C215.528 425.457 233.74 421.834 250.732 414.796C267.725 407.757 283.164 397.441 296.17 384.435C309.175 371.43 319.491 355.99 326.53 338.997C333.568 322.005 337.19 303.792 337.19 285.4V273.52C216.982 193.965 227.834 136.66 433.049 136.66Z" fill="#FCF2D0"/>
<path d="M206.037 14.52C156.877 35.981 123.365 79.836 123.365 136.657C123.379 167.209 133.187 196.952 151.349 221.52H92.8852C81.2768 221.52 70.1439 226.132 61.9355 234.34C53.7271 242.549 49.1155 253.682 49.1152 265.29V293.622C49.1155 328.587 63.0054 362.12 87.7295 386.844C112.453 411.567 145.986 425.457 180.951 425.457H197.135C227.788 425.502 257.602 415.444 281.963 396.84C141.361 274.688 160.436 102.141 206.037 14.52Z" fill="#FAE0BD"/>
<path d="M243.736 115.438C243.736 100.829 228.869 88.989 210.525 88.989C192.181 88.989 177.318 100.829 177.318 115.438C177.318 130.047 192.185 141.883 210.525 141.883C228.865 141.883 243.736 130.043 243.736 115.438Z" fill="#EDA1AB"/>
<path d="M423.75 115.438C423.75 100.829 408.883 88.989 390.539 88.989C372.195 88.989 357.332 100.829 357.332 115.438C357.332 130.047 372.199 141.883 390.539 141.883C408.879 141.883 423.75 130.043 423.75 115.438Z" fill="#EDA1AB"/>
<path d="M245.692 94.156C243.703 94.156 241.795 93.3658 240.388 91.9593C238.982 90.5527 238.192 88.6451 238.192 86.656C238.204 85.5575 237.998 84.4675 237.586 83.4491C237.174 82.4308 236.564 81.5042 235.791 80.7232C235.019 79.9421 234.099 79.3221 233.085 78.8989C232.071 78.4757 230.984 78.2578 229.885 78.2578C228.787 78.2578 227.699 78.4757 226.685 78.8989C225.671 79.3221 224.752 79.9421 223.979 80.7232C223.207 81.5042 222.597 82.4308 222.185 83.4491C221.773 84.4675 221.567 85.5575 221.579 86.656C221.579 88.6451 220.788 90.5527 219.382 91.9593C217.975 93.3658 216.068 94.156 214.079 94.156C212.09 94.156 210.182 93.3658 208.775 91.9593C207.369 90.5527 206.579 88.6451 206.579 86.656C206.558 83.5825 207.146 80.5353 208.309 77.69C209.471 74.8446 211.184 72.2573 213.351 70.0768C215.517 67.8964 218.093 66.1659 220.931 64.9851C223.768 63.8042 226.812 63.1963 229.885 63.1963C232.959 63.1963 236.002 63.8042 238.84 64.9851C241.677 66.1659 244.253 67.8964 246.42 70.0768C248.586 72.2573 250.299 74.8446 251.462 77.69C252.624 80.5353 253.212 83.5825 253.192 86.656C253.192 88.6451 252.401 90.5527 250.995 91.9593C249.588 93.3658 247.681 94.156 245.692 94.156Z" fill="#4E5660"/>
<path d="M386.99 94.156C385.001 94.156 383.094 93.3658 381.687 91.9593C380.281 90.5527 379.49 88.6451 379.49 86.656C379.503 85.5575 379.297 84.4675 378.885 83.4491C378.472 82.4308 377.863 81.5042 377.09 80.7232C376.318 79.9421 375.398 79.3221 374.384 78.8989C373.37 78.4757 372.283 78.2578 371.184 78.2578C370.085 78.2578 368.998 78.4757 367.984 78.8989C366.97 79.3221 366.05 79.9421 365.278 80.7232C364.505 81.5042 363.895 82.4308 363.483 83.4491C363.071 84.4675 362.865 85.5575 362.877 86.656C362.877 88.6451 362.087 90.5527 360.681 91.9593C359.274 93.3658 357.367 94.156 355.377 94.156C353.388 94.156 351.481 93.3658 350.074 91.9593C348.668 90.5527 347.877 88.6451 347.877 86.656C347.857 83.5825 348.445 80.5353 349.608 77.69C350.77 74.8446 352.483 72.2573 354.65 70.0768C356.816 67.8964 359.392 66.1659 362.23 64.9851C365.067 63.8042 368.11 63.1963 371.184 63.1963C374.258 63.1963 377.301 63.8042 380.138 64.9851C382.976 66.1659 385.552 67.8964 387.718 70.0768C389.885 72.2573 391.598 74.8446 392.76 77.69C393.923 80.5353 394.511 83.5825 394.49 86.656C394.49 88.6451 393.7 90.5527 392.294 91.9593C390.887 93.3658 388.98 94.156 386.99 94.156Z" fill="#4E5660"/>
<path d="M433.116 150.48C413.655 169.261 407.593 231.07 429.483 261.88C349.815 261.88 218.783 243.743 218.783 243.743L213.494 165.766L252.413 150.48H433.116Z" fill="#E9901B"/>
<path d="M273.379 337.422L255.179 323.781C234.518 308.292 218.968 286.971 210.532 262.566C202.095 238.161 201.159 211.789 207.843 186.847L213.491 165.769L492.004 240.395C494.612 241.093 496.835 242.799 498.185 245.136C499.536 247.474 499.902 250.252 499.204 252.86L497.286 260.02C471.078 357.8 354.371 398.145 273.379 337.422Z" fill="#EEA849"/>
<path d="M327.171 104.777L325.855 100.382C324.551 96.035 321.879 92.2242 318.238 89.5152C314.596 86.8061 310.179 85.3431 305.64 85.343H295.073C290.535 85.3431 286.117 86.8061 282.475 89.5152C278.834 92.2242 276.163 96.035 274.858 100.382L273.542 104.777C272.177 109.329 269.38 113.319 265.568 116.155C261.756 118.992 257.13 120.523 252.378 120.523H248.562C239.261 120.524 230.341 124.219 223.765 130.795C217.188 137.372 213.493 146.292 213.492 155.593V165.77H501.827C503.164 165.77 504.487 165.507 505.722 164.996C506.956 164.485 508.078 163.735 509.023 162.79C509.968 161.845 510.718 160.723 511.229 159.489C511.74 158.254 512.003 156.93 512.003 155.594C512.003 146.293 508.308 137.373 501.731 130.796C495.154 124.22 486.234 120.525 476.933 120.524H348.333C343.582 120.523 338.957 118.99 335.145 116.154C331.333 113.317 328.537 109.328 327.171 104.777Z" fill="#EEA849"/>
<path d="M13.5811 277.922C0.718114 265.059 -5.91489 242.844 6.94811 229.98C11.2101 225.722 20.9361 220.433 28.4091 222.824C22.8781 210.679 21.0771 191.883 31.0691 181.89C43.3071 169.652 66.7571 173.078 79.6981 184.124C79.6981 184.124 193.624 279.046 144.19 328.479C94.7561 377.912 29.8161 294.152 13.5811 277.922Z" fill="#FCF2D0"/>
<path d="M63.6439 265.559C62.6592 265.559 61.6843 265.364 60.7749 264.987C59.8654 264.609 59.0394 264.056 58.3439 263.359L23.1139 228.129C22.3976 227.437 21.8262 226.61 21.4331 225.695C21.0401 224.78 20.8332 223.795 20.8245 222.8C20.8158 221.804 21.0056 220.816 21.3827 219.894C21.7598 218.973 22.3167 218.135 23.0209 217.431C23.7251 216.727 24.5625 216.17 25.4842 215.793C26.4059 215.416 27.3935 215.226 28.3894 215.235C29.3852 215.243 30.3694 215.45 31.2844 215.843C32.1994 216.236 33.027 216.808 33.7189 217.524L68.9529 252.754C70.0004 253.803 70.7137 255.139 71.0025 256.593C71.2914 258.047 71.1429 259.554 70.5757 260.923C70.0086 262.293 69.0484 263.464 67.8162 264.288C66.584 265.112 65.1353 265.553 63.6529 265.554L63.6439 265.559Z" fill="#FAE0BD"/>
</svg>
