<svg width="512" height="512" viewBox="0 0 512 512" fill="none" xmlns="http://www.w3.org/2000/svg">
<path d="M471.242 349.344C496.89 323.696 528.07 250.926 502.418 225.278C476.766 199.63 404 230.8 378.352 256.453C366.077 268.78 359.193 285.473 359.211 302.87C359.229 320.267 366.148 336.946 378.449 349.247C390.751 361.548 407.43 368.467 424.826 368.485C442.223 368.503 458.916 361.619 471.243 349.344H471.242Z" fill="#8CD6FE"/>
<path d="M109.777 384.863C73.5 384.863 0 355.453 0 319.18C0 282.907 73.5 253.5 109.777 253.5C127.153 253.568 143.794 260.518 156.057 272.829C168.32 285.139 175.205 301.807 175.205 319.184C175.205 336.56 168.32 353.228 156.057 365.538C143.794 377.849 127.153 384.799 109.777 384.867V384.863Z" fill="#BAE7FF"/>
<path d="M45.9001 326.68C44.4177 326.679 42.969 326.238 41.7368 325.414C40.5047 324.59 39.5444 323.419 38.9773 322.049C38.4102 320.68 38.2616 319.173 38.5505 317.719C38.8393 316.265 39.5526 314.929 40.6001 313.88L56.6331 297.84C58.0477 296.474 59.9422 295.718 61.9087 295.735C63.8751 295.752 65.7562 296.541 67.1468 297.931C68.5373 299.322 69.3261 301.203 69.3432 303.169C69.3603 305.136 68.6043 307.03 67.2381 308.445L51.2001 324.484C50.5047 325.181 49.6785 325.733 48.769 326.11C47.8595 326.487 46.8846 326.681 45.9001 326.68Z" fill="#8CD6FE"/>
<path d="M208.707 512H177.816C169.883 512 162.274 508.849 156.665 503.239C151.055 497.629 147.904 490.021 147.904 482.088C147.904 474.155 151.055 466.547 156.665 460.937C162.274 455.327 169.883 452.176 177.816 452.176H208.707C216.64 452.176 224.248 455.327 229.858 460.937C235.467 466.547 238.619 474.155 238.619 482.088C238.619 490.021 235.467 497.629 229.858 503.239C224.248 508.849 216.64 512 208.707 512Z" fill="#EEA849"/>
<path d="M311.332 512H342.223C350.156 512 357.764 508.849 363.374 503.239C368.983 497.629 372.135 490.021 372.135 482.088C372.135 474.155 368.983 466.547 363.374 460.937C357.764 455.327 350.156 452.176 342.223 452.176H311.332C303.399 452.176 295.791 455.327 290.181 460.937C284.571 466.547 281.42 474.155 281.42 482.088C281.42 490.021 284.571 497.629 290.181 503.239C295.791 508.849 303.399 512 311.332 512Z" fill="#EEA849"/>
<path d="M460.965 155.379C451.727 67.941 371 0 260.02 0C149.04 0 68.3131 67.941 59.0701 155.379C53.1561 211.328 76.3701 248.109 115.156 270.785L104.016 328.6C88.6211 408.5 149.84 482.637 231.207 482.637H288.832C370.199 482.637 431.418 408.496 416.023 328.602L404.882 270.786C443.664 248.109 466.879 211.328 460.965 155.379Z" fill="#BAE7FF"/>
<path d="M231.2 482.637H288.829C297.152 482.64 305.456 481.848 313.629 480.274C154.984 399.809 99.1371 118.09 190.777 9.59998C116.605 31.266 66.2541 87.43 59.0701 155.379C53.1561 211.328 76.3701 248.109 115.156 270.785L104.016 328.6C88.6211 408.5 149.84 482.637 231.2 482.637Z" fill="#8CD6FE"/>
<path d="M250.031 87.8911C252.884 90.1181 256.4 91.3277 260.019 91.3277C263.639 91.3277 267.155 90.1181 270.008 87.8911C297.731 66.0911 354.188 58.7191 391.094 91.8791C445.012 140.324 420.723 225.707 358.653 284.279C356.106 286.7 354.201 289.716 353.107 293.055C352.013 296.395 351.766 299.953 352.387 303.412C372.571 418.764 298.426 430.142 260.02 430.142C221.614 430.142 147.465 418.763 167.649 303.412C168.27 299.953 168.022 296.395 166.929 293.055C165.835 289.716 163.929 286.7 161.383 284.279C99.3169 225.709 75.0239 140.326 128.942 91.8791C165.852 58.7191 222.3 66.0901 250.031 87.8911Z" fill="white"/>
<path d="M157.535 74.918C146.991 78.6546 137.279 84.4163 128.945 91.879C75.0229 140.324 99.3159 225.707 161.383 284.279C163.93 286.7 165.836 289.715 166.931 293.055C168.025 296.394 168.273 299.953 167.653 303.412C149.508 407.094 207.57 426.773 247.4 429.691C161.715 338.414 127.055 180.621 157.535 74.918Z" fill="#BAE7FF"/>
<path d="M239.492 153.652L229.692 159.632C226.412 161.632 223.581 164.287 221.376 167.432C219.171 170.577 217.639 174.144 216.876 177.909C216.114 181.674 216.137 185.555 216.945 189.311C217.753 193.066 219.328 196.614 221.571 199.732L234.773 218.1C237.654 222.103 241.445 225.364 245.835 227.613C250.224 229.862 255.085 231.035 260.017 231.035C264.949 231.035 269.81 229.862 274.2 227.613C278.589 225.364 282.38 222.103 285.261 218.1L298.472 199.733C300.714 196.614 302.288 193.066 303.095 189.311C303.902 185.556 303.925 181.675 303.162 177.911C302.4 174.146 300.869 170.58 298.664 167.435C296.46 164.29 293.63 161.634 290.351 159.633L280.542 153.653C274.36 149.882 267.259 147.887 260.017 147.887C252.776 147.887 245.674 149.882 239.492 153.652Z" fill="#EEA849"/>
<path d="M193.8 183.281C193.8 166.25 176.464 152.445 155.081 152.445C133.698 152.445 116.358 166.245 116.358 183.281C116.358 200.317 133.694 214.113 155.081 214.113C176.468 214.113 193.8 200.309 193.8 183.281Z" fill="#EDA1AB"/>
<path d="M403.672 183.281C403.672 166.25 386.336 152.445 364.953 152.445C343.57 152.445 326.234 166.245 326.234 183.281C326.234 200.317 343.57 214.113 364.953 214.113C386.336 214.113 403.672 200.309 403.672 183.281Z" fill="#EDA1AB"/>
<path d="M196.078 157.227C194.089 157.227 192.181 156.437 190.775 155.03C189.368 153.624 188.578 151.716 188.578 149.727C188.592 148.283 188.32 146.851 187.777 145.513C187.234 144.175 186.431 142.958 185.415 141.932C184.399 140.906 183.189 140.092 181.857 139.536C180.524 138.981 179.095 138.694 177.651 138.694C176.207 138.694 174.777 138.981 173.445 139.536C172.112 140.092 170.903 140.906 169.887 141.932C168.87 142.958 168.068 144.175 167.525 145.513C166.982 146.851 166.709 148.283 166.723 149.727C166.723 151.716 165.933 153.624 164.526 155.03C163.12 156.437 161.212 157.227 159.223 157.227C157.234 157.227 155.326 156.437 153.92 155.03C152.513 153.624 151.723 151.716 151.723 149.727C151.702 146.309 152.357 142.92 153.65 139.755C154.944 136.591 156.85 133.714 159.26 131.289C161.67 128.864 164.535 126.94 167.691 125.627C170.847 124.314 174.232 123.638 177.651 123.638C181.069 123.638 184.454 124.314 187.61 125.627C190.766 126.94 193.632 128.864 196.041 131.289C198.451 133.714 200.357 136.591 201.651 139.755C202.944 142.92 203.599 146.309 203.578 149.727C203.578 151.716 202.788 153.624 201.381 155.03C199.975 156.437 198.067 157.227 196.078 157.227Z" fill="#4E5660"/>
<path d="M360.816 157.227C358.827 157.227 356.919 156.437 355.513 155.03C354.106 153.624 353.316 151.716 353.316 149.727C353.288 146.846 352.125 144.093 350.078 142.066C348.031 140.039 345.267 138.902 342.387 138.902C339.506 138.902 336.742 140.039 334.695 142.066C332.648 144.093 331.485 146.846 331.457 149.727C331.457 151.716 330.667 153.624 329.26 155.03C327.854 156.437 325.946 157.227 323.957 157.227C321.968 157.227 320.06 156.437 318.654 155.03C317.247 153.624 316.457 151.716 316.457 149.727C316.5 142.878 319.25 136.324 324.108 131.496C328.966 126.668 335.537 123.958 342.387 123.958C349.236 123.958 355.807 126.668 360.665 131.496C365.523 136.324 368.274 142.878 368.316 149.727C368.316 151.716 367.526 153.624 366.119 155.03C364.713 156.437 362.805 157.227 360.816 157.227Z" fill="#4E5660"/>
</svg>
