<svg width="514" height="512" viewBox="0 0 514 512" fill="none" xmlns="http://www.w3.org/2000/svg">
<path d="M388.212 450.826L383.95 450.896C381.628 450.935 379.412 451.874 377.77 453.516C376.128 455.158 375.189 457.374 375.15 459.696L375.08 463.954C375.065 466.342 374.387 468.679 373.121 470.704C371.856 472.729 370.052 474.363 367.912 475.423C363.145 477.694 357.791 478.432 352.587 477.537C347.383 476.642 342.584 474.156 338.85 470.423L270.041 401.611L325.873 345.779L394.686 414.592C398.42 418.326 400.906 423.125 401.801 428.329C402.696 433.534 401.957 438.888 399.686 443.655C398.627 445.797 396.993 447.602 394.966 448.868C392.94 450.135 390.601 450.812 388.212 450.826Z" fill="#E68A97"/>
<path d="M330.462 462.045L338.845 470.428C342.579 474.163 347.378 476.649 352.582 477.544C357.787 478.439 363.141 477.7 367.908 475.428C370.048 474.369 371.851 472.736 373.117 470.712C374.383 468.687 375.061 466.351 375.076 463.963L375.146 459.701C375.185 457.379 376.124 455.163 377.766 453.521C379.408 451.879 381.624 450.94 383.946 450.901L388.208 450.831C390.595 450.816 392.932 450.138 394.956 448.872C396.981 447.606 398.614 445.803 399.673 443.663C401.945 438.896 402.684 433.542 401.789 428.338C400.893 423.134 398.407 418.335 394.673 414.601L386.29 406.218L330.462 462.045Z" fill="#4E5660"/>
<path d="M47.8488 252.576C38.5788 252.581 29.5155 249.837 21.806 244.689C14.0965 239.541 8.08749 232.222 4.53933 223.658C0.99117 215.094 0.0634211 205.67 1.8735 196.578C3.68357 187.486 8.15011 179.136 14.7078 172.584C16.1223 171.218 18.0168 170.462 19.9833 170.479C21.9498 170.496 23.8309 171.285 25.2214 172.675C26.612 174.066 27.4008 175.947 27.4179 177.913C27.435 179.88 26.679 181.774 25.3128 183.189C19.4013 189.179 16.0992 197.264 16.1271 205.68C16.1549 214.096 19.5104 222.159 25.4614 228.11C31.4124 234.061 39.4756 237.417 47.8915 237.445C56.3074 237.473 64.3926 234.17 70.3828 228.259C71.7973 226.893 73.6918 226.137 75.6583 226.154C77.6248 226.171 79.5059 226.96 80.8964 228.35C82.287 229.741 83.0758 231.622 83.0929 233.588C83.11 235.555 82.354 237.449 80.9878 238.864C76.6399 243.22 71.4739 246.674 65.7868 249.027C60.0997 251.38 54.0035 252.586 47.8488 252.576Z" fill="#E68A97"/>
<path d="M390.009 297.092C390.009 214.892 309.415 155.951 209.993 155.951C110.571 155.951 29.9777 214.893 29.9777 297.092C29.9777 334.392 38.8017 359.35 54.2047 376.053L18.4747 411.787C14.7401 415.52 12.2541 420.318 11.3587 425.522C10.4633 430.726 11.2026 436.079 13.4747 440.846C14.5335 442.987 16.1669 444.791 18.1923 446.057C20.2177 447.323 22.5553 448 24.9437 448.014L29.2017 448.084C31.525 448.123 33.7421 449.064 35.3843 450.708C37.0266 452.351 37.9651 454.57 38.0017 456.893L38.0717 461.151C38.0861 463.539 38.7641 465.875 40.0299 467.9C41.2957 469.924 43.0995 471.557 45.2397 472.616C50.0068 474.888 55.3609 475.627 60.5653 474.732C65.7698 473.837 70.569 471.351 74.3027 467.616L134.338 407.577C148.138 408.936 162.893 409.487 178.326 409.706L251.892 483.272C255.625 487.007 260.425 489.493 265.629 490.388C270.833 491.283 276.188 490.544 280.955 488.272C283.095 487.213 284.899 485.58 286.164 483.556C287.43 481.531 288.108 479.195 288.123 476.807L288.193 472.549C288.23 470.225 289.17 468.006 290.814 466.362C292.458 464.718 294.676 463.778 297.001 463.74L301.259 463.67C303.647 463.657 305.985 462.979 308.01 461.713C310.036 460.447 311.669 458.643 312.728 456.502C315 451.735 315.739 446.381 314.844 441.177C313.948 435.972 311.462 431.173 307.728 427.44L283.408 403.12C346.235 390.202 390.009 357.67 390.009 297.092Z" fill="#EDA1AB"/>
<path d="M26.8557 403.402L18.4727 411.789C14.7382 415.522 12.2522 420.32 11.3568 425.524C10.4614 430.728 11.2006 436.082 13.4727 440.848C14.5315 442.989 16.1649 444.793 18.1903 446.059C20.2157 447.325 22.5533 448.002 24.9417 448.016L29.1997 448.086C31.5224 448.125 33.7394 449.064 35.3829 450.706C37.0263 452.347 37.9678 454.563 38.0087 456.886L38.0747 461.148C38.0897 463.536 38.7678 465.872 40.0336 467.897C41.2993 469.921 43.1028 471.554 45.2427 472.613C50.01 474.884 55.3639 475.623 60.5682 474.728C65.7725 473.833 70.5716 471.347 74.3057 467.613L82.6887 459.226L26.8557 403.402Z" fill="#4E5660"/>
<path d="M243.513 474.893L251.9 483.276C255.633 487.01 260.431 489.495 265.635 490.391C270.839 491.286 276.192 490.547 280.959 488.276C283.099 487.218 284.904 485.585 286.169 483.56C287.435 481.536 288.113 479.199 288.127 476.811L288.197 472.549C288.236 470.227 289.176 468.012 290.818 466.37C292.46 464.728 294.675 463.788 296.997 463.749L301.259 463.679C303.648 463.664 305.986 462.985 308.011 461.717C310.037 460.45 311.67 458.644 312.728 456.502C314.999 451.735 315.738 446.381 314.842 441.177C313.947 435.973 311.461 431.174 307.728 427.44L299.345 419.057L243.513 474.893Z" fill="#4E5660"/>
<path d="M97.149 269.025C97.149 272.482 96.1238 275.862 94.2031 278.736C92.2823 281.611 89.5523 283.851 86.3583 285.174C83.1642 286.497 79.6496 286.844 76.2588 286.169C72.868 285.495 69.7534 283.83 67.3087 281.385C64.8641 278.941 63.1993 275.826 62.5248 272.435C61.8504 269.044 62.1965 265.53 63.5196 262.336C64.8426 259.142 67.083 256.412 69.9576 254.491C72.8322 252.57 76.2118 251.545 79.669 251.545C84.3046 251.546 88.7501 253.388 92.028 256.666C95.3059 259.944 97.1479 264.389 97.149 269.025Z" fill="#E68A97"/>
<path d="M124.731 221.752C124.731 223.94 124.081 226.079 122.865 227.898C121.649 229.718 119.921 231.135 117.899 231.972C115.877 232.81 113.653 233.028 111.507 232.601C109.36 232.174 107.389 231.12 105.842 229.572C104.295 228.024 103.242 226.053 102.815 223.906C102.389 221.76 102.608 219.536 103.446 217.514C104.284 215.493 105.702 213.765 107.522 212.549C109.342 211.334 111.481 210.686 113.669 210.686C115.122 210.686 116.561 210.972 117.903 211.529C119.245 212.085 120.465 212.9 121.492 213.928C122.519 214.955 123.334 216.175 123.89 217.518C124.446 218.86 124.731 220.299 124.731 221.752Z" fill="#E68A97"/>
<path d="M203.575 161.674L243.223 147.615C246.656 146.4 249.804 144.495 252.473 142.018C255.143 139.541 257.278 136.545 258.746 133.212C260.215 129.88 260.986 126.282 261.012 122.641C261.039 118.999 260.32 115.39 258.901 112.037C249.576 89.9908 232.031 72.4442 209.985 63.119C206.631 61.7006 203.023 60.983 199.382 61.0101C195.741 61.0373 192.144 61.8086 188.812 63.2767C185.48 64.7449 182.483 66.8788 180.006 69.5474C177.529 72.2161 175.623 75.363 174.407 78.795L160.349 118.447C150.833 145.302 176.72 171.19 203.575 161.674Z" fill="#E68A97"/>
<path d="M450.786 161.674L411.138 147.615C407.706 146.399 404.559 144.494 401.89 142.016C399.221 139.539 397.087 136.543 395.619 133.21C394.15 129.878 393.379 126.281 393.352 122.64C393.325 118.999 394.043 115.39 395.462 112.037C404.786 89.9911 422.331 72.4446 444.376 63.1189C447.73 61.7008 451.338 60.9834 454.98 61.0106C458.621 61.0379 462.218 61.8092 465.55 63.2773C468.883 64.7454 471.88 66.8792 474.357 69.5477C476.835 72.2162 478.741 75.363 479.958 78.7949L494.013 118.447C503.528 145.302 477.642 171.19 450.786 161.674Z" fill="#E68A97"/>
<path d="M502.786 227.486C497.036 216.557 487.821 207.846 476.586 202.72C470.325 173.567 454.258 147.442 431.067 128.701C407.875 109.959 378.96 99.7348 349.142 99.7319H305.22C275.402 99.7334 246.485 109.958 223.293 128.699C200.1 147.441 184.034 173.567 177.774 202.721C166.538 207.846 157.323 216.557 151.574 227.487C144.866 240.256 141.361 254.463 141.361 268.887C141.361 283.311 144.866 297.518 151.574 310.287C156.476 319.615 163.387 327.74 171.808 334.075C180.23 340.41 189.952 344.797 200.274 346.92C284.003 364.15 370.365 364.15 454.094 346.92C464.416 344.796 474.138 340.409 482.559 334.074C490.98 327.739 497.891 319.615 502.794 310.287C509.502 297.518 513.007 283.31 513.005 268.885C513.004 254.461 509.497 240.254 502.786 227.486Z" fill="#EDA1AB"/>
<path d="M275.626 103.143C251.554 108.76 229.575 121.103 212.249 138.733C194.924 156.363 182.967 178.555 177.771 202.721C166.536 207.847 157.32 216.558 151.571 227.487C144.861 240.255 141.355 254.463 141.355 268.887C141.355 283.311 144.861 297.519 151.571 310.287C156.472 319.614 163.381 327.738 171.801 334.073C180.221 340.408 189.941 344.795 200.262 346.92C245.184 356.161 290.982 360.466 336.84 359.76C226.294 304.596 246.681 170.283 275.626 103.143Z" fill="#E68A97"/>
<path d="M251.701 242.514C251.701 223.104 231.943 207.369 207.568 207.369C183.193 207.369 163.431 223.102 163.431 242.514C163.431 261.926 183.189 277.662 207.568 277.662C231.947 277.662 251.701 261.928 251.701 242.514Z" fill="white"/>
<path d="M490.931 242.514C490.931 223.104 471.169 207.369 446.794 207.369C422.419 207.369 402.657 223.103 402.657 242.514C402.657 261.925 422.419 277.662 446.794 277.662C471.169 277.662 490.931 261.928 490.931 242.514Z" fill="white"/>
<path d="M247.118 211.768C245.129 211.768 243.221 210.978 241.815 209.571C240.408 208.165 239.618 206.257 239.618 204.268C239.618 200.686 238.195 197.251 235.662 194.718C233.129 192.185 229.694 190.762 226.112 190.762C222.53 190.762 219.095 192.185 216.562 194.718C214.029 197.251 212.606 200.686 212.606 204.268C212.606 206.257 211.816 208.165 210.409 209.571C209.003 210.978 207.095 211.768 205.106 211.768C203.117 211.768 201.209 210.978 199.803 209.571C198.396 208.165 197.606 206.257 197.606 204.268C197.606 196.708 200.609 189.457 205.955 184.111C211.301 178.765 218.552 175.762 226.112 175.762C233.672 175.762 240.923 178.765 246.269 184.111C251.615 189.457 254.618 196.708 254.618 204.268C254.618 206.257 253.828 208.165 252.421 209.571C251.015 210.978 249.107 211.768 247.118 211.768Z" fill="#4E5660"/>
<path d="M449.255 211.768C447.266 211.768 445.358 210.978 443.951 209.571C442.545 208.165 441.755 206.257 441.755 204.268C441.755 200.685 440.332 197.25 437.798 194.716C435.265 192.183 431.829 190.76 428.247 190.76C424.664 190.76 421.228 192.183 418.695 194.716C416.162 197.25 414.739 200.685 414.739 204.268C414.739 206.257 413.949 208.165 412.542 209.571C411.136 210.978 409.228 211.768 407.239 211.768C405.25 211.768 403.342 210.978 401.935 209.571C400.529 208.165 399.739 206.257 399.739 204.268C399.739 196.707 402.742 189.456 408.089 184.11C413.435 178.764 420.686 175.76 428.247 175.76C435.808 175.76 443.059 178.764 448.405 184.11C453.751 189.456 456.755 196.707 456.755 204.268C456.755 206.257 455.965 208.165 454.558 209.571C453.152 210.978 451.244 211.768 449.255 211.768Z" fill="#4E5660"/>
<path d="M327.181 318.908C321.885 318.907 316.652 317.77 311.833 315.575C307.014 313.381 302.721 310.179 299.244 306.185C297.937 304.685 297.279 302.728 297.416 300.743C297.552 298.759 298.471 296.91 299.971 295.603C301.47 294.296 303.428 293.639 305.412 293.775C307.397 293.911 309.246 294.83 310.553 296.33C312.621 298.709 315.176 300.617 318.045 301.924C320.913 303.232 324.029 303.908 327.182 303.908C330.334 303.908 333.45 303.232 336.319 301.924C339.188 300.617 341.742 298.709 343.811 296.33C345.118 294.83 346.967 293.911 348.951 293.775C350.936 293.639 352.893 294.296 354.393 295.603C355.892 296.91 356.811 298.759 356.948 300.743C357.084 302.728 356.427 304.685 355.12 306.185C351.642 310.179 347.349 313.381 342.53 315.576C337.71 317.771 332.476 318.907 327.181 318.908Z" fill="#4E5660"/>
<path d="M327.181 271.811C361.158 271.811 388.701 261.639 388.701 230.854C388.701 200.069 361.158 189.897 327.181 189.897C293.204 189.897 265.661 200.073 265.661 230.854C265.661 261.635 293.201 271.811 327.181 271.811Z" fill="#FAE0BD"/>
<path d="M309.868 230.854C309.868 232.962 309.243 235.023 308.071 236.776C306.9 238.529 305.235 239.896 303.287 240.703C301.339 241.509 299.196 241.72 297.128 241.309C295.06 240.898 293.161 239.883 291.67 238.392C290.179 236.901 289.164 235.001 288.753 232.934C288.341 230.866 288.552 228.722 289.359 226.775C290.166 224.827 291.532 223.162 293.285 221.991C295.038 220.819 297.1 220.194 299.208 220.194C302.035 220.194 304.746 221.317 306.745 223.316C308.744 225.316 309.868 228.027 309.868 230.854Z" fill="#F3BE77"/>
<path d="M365.817 230.854C365.817 232.963 365.192 235.024 364.021 236.778C362.85 238.531 361.185 239.898 359.237 240.706C357.289 241.513 355.145 241.724 353.077 241.313C351.008 240.902 349.108 239.887 347.617 238.397C346.126 236.906 345.11 235.006 344.698 232.938C344.286 230.87 344.497 228.726 345.304 226.778C346.11 224.829 347.476 223.164 349.23 221.992C350.983 220.82 353.044 220.194 355.153 220.194C356.553 220.194 357.939 220.469 359.233 221.005C360.527 221.54 361.702 222.326 362.692 223.315C363.683 224.305 364.468 225.48 365.004 226.774C365.54 228.067 365.816 229.454 365.817 230.854Z" fill="#F3BE77"/>
</svg>
