<svg width="512" height="512" viewBox="0 0 512 512" fill="none" xmlns="http://www.w3.org/2000/svg">
<path d="M373.711 426.422C376.416 427.779 378.803 429.693 380.715 432.039C382.626 434.384 384.02 437.108 384.803 440.031C385.586 442.954 385.741 446.01 385.258 448.997C384.775 451.985 383.664 454.836 382 457.363C381.424 458.238 381.146 459.275 381.207 460.32C381.385 463.341 380.921 466.365 379.846 469.193C378.771 472.022 377.109 474.59 374.969 476.73C372.829 478.869 370.261 480.532 367.432 481.607C364.604 482.682 361.58 483.146 358.559 482.968C357.514 482.909 356.477 483.187 355.602 483.761C353.075 485.425 350.224 486.536 347.236 487.019C344.249 487.502 341.193 487.347 338.27 486.564C335.347 485.781 332.623 484.387 330.278 482.476C327.932 480.564 326.018 478.177 324.661 475.472C324.193 474.535 323.434 473.776 322.497 473.308C319.792 471.951 317.405 470.037 315.493 467.692C313.581 465.346 312.188 462.622 311.405 459.699C310.622 456.776 310.467 453.72 310.95 450.733C311.433 447.745 312.543 444.894 314.208 442.367C314.784 441.492 315.062 440.455 315 439.41C314.823 436.389 315.287 433.365 316.363 430.537C317.438 427.708 319.101 425.14 321.241 423C323.381 420.86 325.95 419.198 328.778 418.123C331.607 417.048 334.631 416.584 337.652 416.762C338.697 416.823 339.734 416.544 340.609 415.969C343.136 414.304 345.987 413.194 348.974 412.711C351.961 412.227 355.017 412.382 357.94 413.166C360.862 413.949 363.586 415.342 365.932 417.254C368.277 419.166 370.191 421.553 371.547 424.258C372.017 425.193 372.776 425.952 373.711 426.422Z" fill="#BAE7FF"/>
<path d="M150.277 496.055L131.1 476.875C126.244 472.019 123.516 465.433 123.516 458.566C123.516 451.699 126.244 445.114 131.1 440.258C135.956 435.402 142.541 432.674 149.408 432.674C156.276 432.674 162.861 435.402 167.717 440.258L186.897 459.438C191.753 464.294 194.481 470.879 194.481 477.746C194.481 484.613 191.753 491.199 186.897 496.055C182.041 500.911 175.456 503.639 168.588 503.639C161.721 503.639 155.136 500.911 150.28 496.055H150.277Z" fill="#BAE7FF"/>
<path d="M308.8 512H335.93C342.769 511.957 349.314 509.211 354.135 504.36C358.956 499.508 361.662 492.947 361.662 486.107C361.662 479.268 358.956 472.707 354.135 467.855C349.314 463.004 342.769 460.257 335.93 460.215H308.8C305.386 460.194 302.002 460.848 298.842 462.14C295.682 463.431 292.808 465.335 290.387 467.742C287.965 470.148 286.044 473.01 284.732 476.162C283.421 479.313 282.746 482.694 282.746 486.107C282.746 489.521 283.421 492.901 284.732 496.053C286.044 499.205 287.965 502.067 290.387 504.473C292.808 506.88 295.682 508.784 298.842 510.075C302.002 511.367 305.386 512.021 308.8 512Z" fill="#8CD6FE"/>
<path d="M174.035 410.48H130.191C123.352 410.437 116.808 407.691 111.987 402.84C107.167 397.989 104.461 391.428 104.461 384.589C104.461 377.751 107.167 371.19 111.987 366.339C116.808 361.488 123.352 358.741 130.191 358.699H174.035C180.874 358.741 187.418 361.488 192.239 366.339C197.059 371.19 199.765 377.751 199.765 384.589C199.765 391.428 197.059 397.989 192.239 402.84C187.418 407.691 180.874 410.437 174.035 410.48Z" fill="#BAE7FF"/>
<path d="M361.539 398.113L392.539 367.113C397.315 362.241 399.974 355.681 399.94 348.859C399.905 342.036 397.18 335.503 392.356 330.68C387.531 325.856 380.998 323.131 374.176 323.097C367.353 323.064 360.794 325.724 355.922 330.5L324.922 361.5C320.066 366.356 317.338 372.941 317.338 379.809C317.338 386.676 320.066 393.261 324.922 398.117C329.778 402.973 336.363 405.701 343.231 405.701C350.098 405.701 356.683 402.973 361.539 398.117V398.113Z" fill="#8CD6FE"/>
<path d="M375.508 193.086H308.941L296.541 49.809C295.992 43.4773 296.765 37.1006 298.811 31.0835C300.857 25.0665 304.132 19.5405 308.428 14.8564C312.723 10.1722 317.945 6.43221 323.763 3.87366C329.581 1.3151 335.867 -0.00610352 342.222 -0.00610352C348.578 -0.00610352 354.864 1.3151 360.682 3.87366C366.499 6.43221 371.722 10.1722 376.017 14.8564C380.313 19.5405 383.587 25.0665 385.634 31.0835C387.68 37.1006 388.453 43.4773 387.904 49.809L375.508 193.086Z" fill="#BAE7FF"/>
<path d="M387.906 49.809C388.545 42.5081 387.421 35.1605 384.628 28.3849C381.834 21.6093 377.454 15.6041 371.855 10.875C365.645 11.0991 359.545 12.5834 353.926 15.2377C348.307 17.892 343.286 21.6609 339.169 26.3154C335.052 30.9699 331.924 36.4129 329.975 42.3137C328.026 48.2144 327.297 54.4498 327.832 60.641L339.293 193.086H375.508L387.906 49.809Z" fill="#EDA1AB"/>
<path d="M137.367 193.086H203.933L216.333 49.809C216.882 43.4773 216.109 37.1006 214.063 31.0835C212.017 25.0665 208.742 19.5405 204.446 14.8564C200.151 10.1722 194.929 6.43221 189.111 3.87366C183.293 1.3151 177.007 -0.00610352 170.652 -0.00610352C164.296 -0.00610352 158.01 1.3151 152.192 3.87366C146.375 6.43221 141.152 10.1722 136.857 14.8564C132.561 19.5405 129.287 25.0665 127.24 31.0835C125.194 37.1006 124.421 43.4773 124.97 49.809L137.367 193.086Z" fill="#BAE7FF"/>
<path d="M124.969 49.809C124.33 42.5081 125.454 35.1605 128.247 28.3849C131.041 21.6093 135.421 15.6041 141.02 10.875C147.23 11.0991 153.33 12.5834 158.949 15.2377C164.568 17.892 169.589 21.6609 173.706 26.3154C177.823 30.9699 180.952 36.4129 182.9 42.3137C184.849 48.2144 185.578 54.4498 185.043 60.641L173.582 193.086H137.367L124.969 49.809Z" fill="#EDA1AB"/>
<path d="M350.836 410.1L338.152 349.635C383.552 332.862 413.875 300.713 413.875 255.53C413.875 186.647 343.387 130.803 256.438 130.803C169.489 130.803 99 186.648 99 255.531C99 300.715 129.32 332.859 174.723 349.636L162.043 410.1C160.213 418.825 160.352 427.849 162.45 436.514C164.549 445.179 168.554 453.266 174.173 460.187C179.793 467.108 186.886 472.688 194.935 476.521C202.985 480.353 211.788 482.342 220.703 482.342H292.172C301.087 482.342 309.89 480.353 317.94 476.52C325.989 472.688 333.082 467.108 338.702 460.187C344.322 453.266 348.328 445.179 350.427 436.514C352.526 427.849 352.666 418.826 350.836 410.1Z" fill="#BAE7FF"/>
<path d="M271.355 131.367C266.445 131 261.472 130.812 256.437 130.805C169.488 130.8 99 186.648 99 255.535C99 300.715 129.32 332.863 174.723 349.635L162.039 410.105C160.209 418.83 160.349 427.854 162.448 436.518C164.547 445.182 168.552 453.269 174.172 460.19C179.791 467.11 186.884 472.69 194.933 476.523C202.982 480.355 211.785 482.344 220.7 482.344H255.22C163.887 348.262 224.859 182.816 271.355 131.367Z" fill="#8CD6FE"/>
<path d="M190.828 256.262C190.828 240.285 174.562 227.332 154.5 227.332C134.438 227.332 118.172 240.285 118.172 256.262C118.172 272.239 134.438 285.192 154.5 285.192C174.562 285.192 190.828 272.238 190.828 256.262Z" fill="white"/>
<path d="M394.7 256.262C394.7 240.285 378.434 227.332 358.372 227.332C338.31 227.332 322.044 240.285 322.044 256.262C322.044 272.239 338.31 285.192 358.372 285.192C378.434 285.192 394.7 272.238 394.7 256.262Z" fill="white"/>
<path d="M275.359 223.422C262.953 220.176 249.921 220.176 237.515 223.422C232.378 224.769 227.902 227.931 224.915 232.322C223.967 233.714 223.337 235.298 223.069 236.96C222.801 238.623 222.901 240.324 223.363 241.944C223.825 243.564 224.636 245.062 225.741 246.334C226.845 247.605 228.216 248.618 229.755 249.302L247.935 257.388C250.612 258.578 253.509 259.193 256.439 259.193C259.369 259.193 262.266 258.578 264.943 257.388L283.123 249.302C284.662 248.618 286.032 247.605 287.137 246.334C288.241 245.062 289.053 243.564 289.515 241.944C289.977 240.324 290.077 238.623 289.809 236.96C289.541 235.298 288.91 233.714 287.963 232.322C284.974 227.931 280.497 224.769 275.359 223.422Z" fill="#4E5660"/>
<path d="M292.785 420.18C292.785 397.266 276.512 378.692 256.437 378.692C236.362 378.692 220.09 397.266 220.09 420.18C220.09 443.094 236.363 461.664 256.438 461.664C276.513 461.664 292.785 443.09 292.785 420.18Z" fill="white"/>
<path d="M220.09 420.18C220.09 436.34 228.19 450.332 240.012 457.18C232.238 442.58 225.837 427.289 220.891 411.504C220.357 414.365 220.089 417.269 220.09 420.18Z" fill="#BAE7FF"/>
<path d="M175.672 235.148C173.618 235.148 171.648 234.332 170.195 232.879C168.742 231.426 167.926 229.456 167.926 227.402V214.574C167.926 212.52 168.742 210.549 170.195 209.097C171.647 207.644 173.618 206.828 175.672 206.828C177.726 206.828 179.697 207.644 181.149 209.097C182.602 210.549 183.418 212.52 183.418 214.574V227.4C183.418 228.417 183.218 229.425 182.829 230.365C182.439 231.305 181.869 232.159 181.15 232.878C180.43 233.598 179.576 234.168 178.637 234.558C177.697 234.947 176.689 235.148 175.672 235.148Z" fill="#4E5660"/>
<path d="M337.2 235.148C335.146 235.148 333.176 234.332 331.723 232.879C330.271 231.426 329.454 229.456 329.454 227.402V214.574C329.454 212.52 330.27 210.549 331.723 209.097C333.176 207.644 335.146 206.828 337.2 206.828C339.254 206.828 341.225 207.644 342.677 209.097C344.13 210.549 344.946 212.52 344.946 214.574V227.4C344.946 228.417 344.746 229.425 344.357 230.365C343.968 231.305 343.397 232.159 342.678 232.878C341.958 233.598 341.105 234.168 340.165 234.558C339.225 234.947 338.217 235.148 337.2 235.148Z" fill="#4E5660"/>
<path d="M256.438 304.129C251.778 304.128 247.171 303.128 242.93 301.196C238.689 299.264 234.911 296.445 231.852 292.929C230.503 291.38 229.824 289.359 229.965 287.309C230.106 285.26 231.055 283.35 232.604 282.001C234.153 280.652 236.174 279.973 238.224 280.114C240.273 280.255 242.183 281.204 243.532 282.753C245.137 284.6 247.12 286.081 249.347 287.096C251.573 288.11 253.992 288.636 256.439 288.636C258.886 288.636 261.304 288.11 263.531 287.096C265.757 286.081 267.74 284.6 269.345 282.753C270.011 281.979 270.824 281.344 271.737 280.885C272.649 280.427 273.644 280.153 274.662 280.08C275.681 280.007 276.704 280.136 277.673 280.46C278.642 280.783 279.537 281.296 280.307 281.967C281.077 282.638 281.706 283.455 282.16 284.37C282.613 285.285 282.88 286.281 282.947 287.3C283.014 288.32 282.878 289.342 282.549 290.309C282.219 291.275 281.701 292.167 281.025 292.933C277.965 296.447 274.186 299.265 269.945 301.196C265.704 303.128 261.098 304.128 256.438 304.129Z" fill="#4E5660"/>
</svg>
