<svg width="513" height="512" viewBox="0 0 513 512" fill="none" xmlns="http://www.w3.org/2000/svg">
<path d="M354.509 512C350.658 512.005 346.844 511.248 343.286 509.774C339.729 508.3 336.498 506.137 333.779 503.41L313.479 483.11C307.98 477.611 304.89 470.153 304.89 462.377C304.889 454.6 307.978 447.142 313.477 441.643C318.975 436.144 326.433 433.054 334.21 433.054C341.986 433.053 349.445 436.142 354.944 441.641L375.244 461.941C379.346 466.042 382.139 471.267 383.271 476.955C384.403 482.644 383.823 488.54 381.603 493.899C379.384 499.258 375.625 503.838 370.802 507.06C365.979 510.282 360.309 512.001 354.509 512Z" fill="#8CD6FE"/>
<path d="M202.939 445.426C176.522 461.987 145.973 470.771 114.794 470.771C83.6154 470.771 53.0671 461.987 26.6499 445.426C18.4927 440.311 11.768 433.209 7.10669 424.785C2.44534 416.36 0 406.89 0 397.262C0 387.634 2.44534 378.164 7.10669 369.739C11.768 361.315 18.4927 354.212 26.6499 349.098C53.0657 332.535 83.6136 323.75 114.792 323.75C145.971 323.75 176.519 332.535 202.935 349.098C211.093 354.212 217.818 361.314 222.48 369.739C227.142 378.163 229.587 387.634 229.587 397.262C229.587 406.89 227.142 416.361 222.48 424.785C217.818 433.21 211.093 440.312 202.935 445.426H202.939Z" fill="#FAE0BD"/>
<path d="M87.4346 468.484C105.55 471.507 124.042 471.507 142.158 468.484V326.035C124.042 323.011 105.55 323.011 87.4346 326.035V468.484Z" fill="#4E5660"/>
<path d="M37.9695 342.621C34.1375 344.621 30.3565 346.773 26.6535 349.098C18.4956 354.212 11.7703 361.314 7.10845 369.739C2.4466 378.163 0.000976563 387.634 0.000976562 397.262C0.000976562 406.89 2.4466 416.361 7.10845 424.785C11.7703 433.21 18.4956 440.312 26.6535 445.426C30.3569 447.746 34.1289 449.904 37.9695 451.899V342.621Z" fill="#4E5660"/>
<path d="M213.079 512C207.28 511.999 201.612 510.279 196.791 507.057C191.969 503.834 188.212 499.255 185.993 493.897C183.774 488.54 183.194 482.645 184.325 476.957C185.457 471.27 188.249 466.046 192.349 461.945L212.649 441.645C215.372 438.922 218.605 436.763 222.162 435.289C225.72 433.816 229.533 433.058 233.383 433.058C237.234 433.058 241.046 433.817 244.604 435.29C248.161 436.764 251.394 438.924 254.116 441.647C256.839 444.37 258.998 447.602 260.472 451.16C261.945 454.717 262.703 458.53 262.703 462.381C262.703 466.231 261.944 470.044 260.471 473.602C258.997 477.159 256.837 480.391 254.114 483.114L233.814 503.414C231.094 506.141 227.862 508.303 224.303 509.776C220.745 511.25 216.931 512.005 213.079 512Z" fill="#BAE7FF"/>
<path d="M428.453 382.672C422.459 382.675 416.61 380.832 411.7 377.395C402.118 370.708 381.657 365.301 375.235 364.711C367.517 364.542 360.178 361.337 354.808 355.792C349.439 350.246 346.473 342.806 346.554 335.087C346.636 327.369 349.757 319.993 355.242 314.562C360.727 309.13 368.132 306.08 375.852 306.074C388.457 306.074 423.398 314.054 445.257 329.301C450.375 332.873 454.22 337.986 456.232 343.894C458.244 349.802 458.318 356.198 456.444 362.152C454.57 368.105 450.845 373.306 445.812 376.996C440.779 380.687 434.699 382.675 428.457 382.672H428.453ZM375.485 364.715C375.618 364.715 375.743 364.715 375.852 364.715C375.731 364.719 375.606 364.719 375.485 364.715Z" fill="#8CD6FE"/>
<path d="M190.064 358.016C182.445 358.026 175.122 355.06 169.658 349.75C164.752 345.563 142.558 332.008 127.424 329.313C123.633 328.638 120.012 327.223 116.768 325.149C113.524 323.075 110.72 320.382 108.517 317.224C104.067 310.847 102.332 302.963 103.695 295.307C105.058 287.651 109.406 280.85 115.784 276.4C122.161 271.949 130.045 270.215 137.701 271.578C166.601 276.726 201.142 298.312 210.795 307.961C214.897 312.061 217.69 317.286 218.822 322.974C219.953 328.662 219.373 334.558 217.153 339.916C214.934 345.275 211.175 349.854 206.353 353.076C201.53 356.298 195.861 358.017 190.061 358.016H190.064ZM169.33 349.43C169.389 349.485 169.447 349.543 169.51 349.606C169.45 349.547 169.388 349.488 169.329 349.43H169.33Z" fill="#BAE7FF"/>
<path d="M205.431 56.625L112.216 149.84C112.216 149.84 27.0557 48.57 65.6057 10.016C104.156 -28.538 205.431 56.625 205.431 56.625Z" fill="#4E5660"/>
<path d="M112.216 149.84L171.622 90.434C143.052 33.895 94.5279 19.125 59.3409 18.859C38.4349 62.086 112.216 149.84 112.216 149.84Z" fill="#FAE0BD"/>
<path d="M362.161 56.625L455.376 149.84C455.376 149.84 540.536 48.57 501.985 10.016C463.434 -28.538 362.161 56.625 362.161 56.625Z" fill="#4E5660"/>
<path d="M455.376 149.84L395.97 90.434C424.536 33.895 473.06 19.125 508.251 18.86C529.157 62.086 455.376 149.84 455.376 149.84Z" fill="#FAE0BD"/>
<path d="M436.489 80.012C389.582 54.6761 337.107 41.4103 283.794 41.4103C230.481 41.4103 178.006 54.6761 131.098 80.012C73.2124 111.277 62.0174 189.6 108.829 235.828L120.591 247.441C141.014 267.656 165.021 283.895 191.384 295.328L172.032 377.156C169.39 388.331 169.31 399.959 171.8 411.168C174.289 422.378 179.283 432.879 186.408 441.885C193.532 450.891 202.602 458.167 212.938 463.17C223.274 468.172 234.608 470.77 246.091 470.77H323.091C334.574 470.77 345.908 468.172 356.244 463.17C366.58 458.167 375.65 450.891 382.775 441.885C389.899 432.88 394.893 422.379 397.383 411.169C399.872 399.959 399.793 388.332 397.15 377.157L377.65 294.692C403.451 283.295 426.954 267.282 447.001 247.441L458.763 235.828C505.575 189.6 494.38 111.277 436.489 80.012Z" fill="#BAE7FF"/>
<path d="M246.091 470.77H293.321C203.032 394.73 190.341 132.953 234.013 45.2999C197.987 50.9412 163.184 62.6798 131.101 80.0119C73.2121 111.277 62.0171 189.6 108.829 235.828L120.591 247.441C141.014 267.656 165.02 283.895 191.384 295.328L172.032 377.156C169.389 388.331 169.31 399.959 171.799 411.168C174.289 422.378 179.283 432.879 186.407 441.885C193.532 450.891 202.602 458.167 212.938 463.17C223.274 468.172 234.608 470.77 246.091 470.77Z" fill="#8CD6FE"/>
<path d="M209.148 175.84C209.148 157.66 190.648 142.922 167.816 142.922C144.984 142.922 126.48 157.66 126.48 175.84C126.48 194.02 144.988 208.754 167.816 208.754C190.644 208.754 209.148 194.02 209.148 175.84Z" fill="white"/>
<path d="M441.106 175.84C441.106 157.66 422.606 142.922 399.774 142.922C376.942 142.922 358.442 157.66 358.442 175.84C358.442 194.02 376.942 208.754 399.774 208.754C422.606 208.754 441.106 194.02 441.106 175.84Z" fill="white"/>
<path d="M283.794 110.152C342.028 110.152 340.31 93.543 382.47 93.543C388.007 93.543 393.489 94.6335 398.605 96.7524C403.72 98.8712 408.368 101.977 412.283 105.892C416.198 109.807 419.304 114.455 421.423 119.57C423.542 124.686 424.632 130.168 424.632 135.705C424.632 141.242 423.542 146.724 421.423 151.84C419.304 156.955 416.198 161.603 412.283 165.518C408.368 169.433 403.72 172.539 398.605 174.658C393.489 176.776 388.007 177.867 382.47 177.867C340.31 177.867 342.029 155.851 283.794 155.851C225.559 155.851 227.282 177.867 185.118 177.867C173.936 177.867 163.212 173.425 155.305 165.518C147.398 157.611 142.956 146.887 142.956 135.705C142.956 124.523 147.398 113.799 155.305 105.892C163.212 97.985 173.936 93.543 185.118 93.543C227.282 93.543 225.564 110.152 283.794 110.152Z" fill="#4E5660"/>
<path d="M217.669 98.211C209.224 95.57 199.853 93.543 185.118 93.543C173.936 93.543 163.212 97.985 155.305 105.892C147.398 113.799 142.956 124.523 142.956 135.705C142.956 146.887 147.398 157.611 155.305 165.518C163.212 173.425 173.936 177.867 185.118 177.867C193.536 178.012 201.927 176.865 209.997 174.467C210.774 146.84 213.364 120.84 217.669 98.211Z" fill="#383C43"/>
<path d="M191.901 150.5C189.912 150.5 188.005 149.71 186.598 148.303C185.192 146.897 184.401 144.989 184.401 143V128.406C184.401 126.417 185.192 124.509 186.598 123.103C188.005 121.696 189.912 120.906 191.901 120.906C193.89 120.906 195.798 121.696 197.205 123.103C198.611 124.509 199.401 126.417 199.401 128.406V143C199.401 144.989 198.611 146.897 197.205 148.303C195.798 149.71 193.89 150.5 191.901 150.5Z" fill="white"/>
<path d="M375.685 150.5C373.695 150.5 371.788 149.71 370.381 148.303C368.975 146.897 368.185 144.989 368.185 143V128.406C368.185 126.417 368.975 124.509 370.381 123.103C371.788 121.696 373.695 120.906 375.685 120.906C377.674 120.906 379.581 121.696 380.988 123.103C382.394 124.509 383.185 126.417 383.185 128.406V143C383.185 144.989 382.394 146.897 380.988 148.303C379.581 149.71 377.674 150.5 375.685 150.5Z" fill="white"/>
<path d="M283.794 249.133C278.679 249.131 273.625 248.033 268.971 245.914C264.317 243.794 260.172 240.701 256.814 236.844C255.507 235.344 254.849 233.387 254.985 231.402C255.122 229.418 256.041 227.569 257.541 226.262C259.04 224.955 260.998 224.298 262.982 224.434C264.967 224.57 266.816 225.489 268.123 226.989C270.072 229.232 272.48 231.031 275.184 232.263C277.888 233.496 280.825 234.134 283.797 234.134C286.768 234.134 289.705 233.496 292.409 232.263C295.113 231.031 297.521 229.232 299.471 226.989C300.118 226.246 300.905 225.639 301.787 225.2C302.669 224.762 303.628 224.501 304.611 224.434C305.594 224.366 306.58 224.493 307.514 224.807C308.447 225.12 309.31 225.615 310.053 226.262C310.795 226.909 311.403 227.696 311.841 228.578C312.28 229.46 312.54 230.42 312.608 231.402C312.675 232.385 312.548 233.371 312.235 234.305C311.921 235.239 311.427 236.101 310.78 236.844C307.421 240.702 303.275 243.795 298.619 245.915C293.964 248.035 288.909 249.132 283.794 249.133Z" fill="#4E5660"/>
<path d="M305.325 165.164C291.21 161.469 276.381 161.469 262.266 165.164C256.42 166.691 251.326 170.287 247.93 175.285C246.853 176.869 246.136 178.67 245.83 180.562C245.525 182.453 245.639 184.388 246.163 186.231C246.688 188.074 247.61 189.779 248.866 191.225C250.122 192.672 251.68 193.826 253.43 194.605L274.114 203.805C277.16 205.159 280.457 205.859 283.79 205.859C287.124 205.859 290.42 205.159 293.466 203.805L314.15 194.605C315.901 193.826 317.459 192.672 318.714 191.225C319.97 189.779 320.893 188.074 321.417 186.231C321.942 184.388 322.055 182.453 321.75 180.562C321.445 178.67 320.728 176.869 319.65 175.285C316.257 170.29 311.167 166.694 305.325 165.164Z" fill="#4E5660"/>
<path d="M283.794 394.559C281.805 394.559 279.897 393.769 278.491 392.362C277.084 390.956 276.294 389.048 276.294 387.059V372.086C276.294 370.097 277.084 368.189 278.491 366.783C279.897 365.376 281.805 364.586 283.794 364.586C285.783 364.586 287.691 365.376 289.097 366.783C290.504 368.189 291.294 370.097 291.294 372.086V387.059C291.294 389.048 290.504 390.956 289.097 392.362C287.691 393.769 285.783 394.559 283.794 394.559Z" fill="#8CD6FE"/>
<path d="M240.493 360.961C238.504 360.961 236.596 360.171 235.19 358.764C233.783 357.358 232.993 355.45 232.993 353.461V338.488C232.993 336.499 233.783 334.591 235.19 333.185C236.596 331.778 238.504 330.988 240.493 330.988C242.482 330.988 244.39 331.778 245.796 333.185C247.203 334.591 247.993 336.499 247.993 338.488V353.461C247.993 355.45 247.203 357.358 245.796 358.764C244.39 360.171 242.482 360.961 240.493 360.961Z" fill="#8CD6FE"/>
<path d="M327.102 360.961C325.112 360.961 323.205 360.171 321.798 358.764C320.392 357.358 319.602 355.45 319.602 353.461V338.488C319.602 336.499 320.392 334.591 321.798 333.185C323.205 331.778 325.112 330.988 327.102 330.988C329.091 330.988 330.998 331.778 332.405 333.185C333.811 334.591 334.602 336.499 334.602 338.488V353.461C334.602 355.45 333.811 357.358 332.405 358.764C330.998 360.171 329.091 360.961 327.102 360.961Z" fill="#8CD6FE"/>
</svg>
