<svg width="512" height="512" viewBox="0 0 512 512" fill="none" xmlns="http://www.w3.org/2000/svg">
<path d="M75.7418 231.77C59.5408 231.752 44.0084 225.309 32.5522 213.853C21.096 202.398 14.6516 186.866 14.6328 170.665C14.6328 168.676 15.423 166.768 16.8295 165.362C18.236 163.955 20.1437 163.165 22.1328 163.165C24.1219 163.165 26.0296 163.955 27.4361 165.362C28.8426 166.768 29.6328 168.676 29.6328 170.665C29.6474 182.889 34.5101 194.608 43.1541 203.251C51.7982 211.895 63.5178 216.756 75.7418 216.77C77.7309 216.77 79.6386 217.56 81.0451 218.967C82.4516 220.373 83.2418 222.281 83.2418 224.27C83.2418 226.259 82.4516 228.167 81.0451 229.573C79.6386 230.98 77.7309 231.77 75.7418 231.77Z" fill="#8CD6FE"/>
<path d="M44.266 156.008C44.266 161.878 41.9341 167.508 37.7834 171.658C33.6327 175.809 28.003 178.141 22.133 178.141C16.263 178.141 10.6333 175.809 6.48261 171.658C2.33186 167.508 0 161.878 0 156.008C0 143.785 9.91 119.4 22.133 119.4C34.356 119.4 44.266 143.785 44.266 156.008Z" fill="#FAE0BD"/>
<path d="M354.013 461.707H297.701C291.351 461.707 285.262 459.185 280.772 454.695C276.282 450.205 273.76 444.115 273.76 437.766V330.9H377.954V437.766C377.954 444.115 375.431 450.205 370.942 454.695C366.452 459.185 360.362 461.707 354.013 461.707Z" fill="#8CD6FE"/>
<path d="M332.199 442.3V461.706H354.008C360.358 461.706 366.447 459.184 370.937 454.694C375.427 450.204 377.949 444.115 377.949 437.765V418.8H355.71C352.623 418.798 349.566 419.405 346.714 420.586C343.861 421.766 341.269 423.497 339.086 425.679C336.903 427.861 335.171 430.452 333.989 433.304C332.807 436.156 332.199 439.213 332.199 442.3Z" fill="#383C43"/>
<path d="M297.012 160.934H142.012C126.982 160.933 112.125 164.15 98.4398 170.366C84.7549 176.583 72.5588 185.657 62.6709 196.977C52.783 208.298 45.4322 221.603 41.1123 236C36.7924 250.396 35.6035 265.551 37.6254 280.445C40.0967 298.73 46.3835 316.292 56.0784 331.992V437.766C56.0784 440.91 56.6977 444.023 57.9009 446.928C59.1041 449.833 60.8676 452.472 63.0909 454.695C65.3141 456.918 67.9535 458.682 70.8582 459.885C73.763 461.088 76.8763 461.707 80.0204 461.707H136.32C142.67 461.707 148.759 459.185 153.249 454.695C157.739 450.205 160.261 444.116 160.261 437.766V394.453C162.98 394.621 165.714 394.738 168.472 394.738H188.812V437.765C188.812 444.115 191.335 450.204 195.825 454.694C200.314 459.184 206.404 461.706 212.753 461.706H269.062C275.412 461.706 281.501 459.184 285.991 454.694C290.481 450.204 293.003 444.115 293.003 437.765V392.8C320.667 388.025 346.089 374.558 365.58 354.355C385.071 334.151 397.616 308.262 401.395 280.445C403.417 265.551 402.229 250.397 397.909 236C393.589 221.604 386.239 208.299 376.352 196.978C366.464 185.658 354.268 176.584 340.584 170.367C326.899 164.15 312.043 160.934 297.012 160.934Z" fill="#BAE7FF"/>
<path d="M100.401 214.988C100.4 216.448 99.967 217.875 99.1556 219.088C98.3443 220.302 97.1913 221.248 95.8424 221.806C94.4936 222.364 93.0095 222.51 91.5778 222.225C90.1461 221.94 88.8311 221.236 87.7991 220.204C86.7671 219.171 86.0645 217.856 85.7801 216.424C85.4957 214.992 85.6423 213.508 86.2013 212.16C86.7603 210.811 87.7067 209.658 88.9207 208.848C90.1347 208.037 91.5619 207.605 93.0217 207.605C93.991 207.605 94.9507 207.796 95.8461 208.168C96.7415 208.539 97.555 209.083 98.2402 209.768C98.9255 210.454 99.4689 211.268 99.8396 212.163C100.21 213.059 100.401 214.019 100.401 214.988Z" fill="#8CD6FE"/>
<path d="M83.1214 250.441C83.121 251.901 82.6877 253.328 81.8763 254.541C81.065 255.755 79.912 256.7 78.5631 257.259C77.2143 257.817 75.7302 257.963 74.2985 257.678C72.8668 257.392 71.5518 256.689 70.5198 255.657C69.4878 254.624 68.7852 253.309 68.5008 251.877C68.2164 250.445 68.363 248.961 68.922 247.612C69.481 246.264 70.4274 245.111 71.6414 244.301C72.8554 243.49 74.2826 243.057 75.7424 243.058C77.6997 243.059 79.5764 243.838 80.9601 245.222C82.3437 246.606 83.1211 248.484 83.1214 250.441Z" fill="#8CD6FE"/>
<path d="M378.733 297.543H260.323C237.17 297.543 214.965 288.345 198.593 271.973C182.221 255.601 173.023 233.396 173.023 210.243V177.395C173.023 162.903 175.877 148.552 181.423 135.163C186.969 121.774 195.097 109.609 205.345 99.3609C215.592 89.1134 227.758 80.9846 241.147 75.4388C254.536 69.8929 268.886 67.0387 283.378 67.0389H425.999C448.808 67.0389 470.682 76.0996 486.811 92.2278C502.939 108.356 511.999 130.23 511.999 153.039V164.281C511.999 181.781 508.552 199.11 501.855 215.279C495.157 231.447 485.341 246.138 472.966 258.512C460.591 270.887 445.9 280.703 429.732 287.4C413.563 294.096 396.234 297.543 378.733 297.543Z" fill="#BAE7FF"/>
<path d="M433.68 285.723C305.813 268.231 275.817 128.723 304.129 67.0389H283.379C268.887 67.0385 254.537 69.8927 241.148 75.4385C227.758 80.9843 215.593 89.113 205.345 99.3606C195.098 109.608 186.969 121.774 181.423 135.163C175.877 148.552 173.023 162.903 173.023 177.395V210.243C173.023 233.396 182.221 255.601 198.593 271.973C214.965 288.345 237.17 297.543 260.323 297.543H378.733C397.683 297.57 416.418 293.539 433.68 285.723Z" fill="#8CD6FE"/>
<path d="M453.255 9.19993C450.911 6.05908 447.8 3.57252 444.22 1.97837C440.64 0.384207 436.71 -0.264178 432.808 0.0952941C428.905 0.454766 425.16 1.81006 421.932 4.0314C418.703 6.25274 416.099 9.26575 414.368 12.7819L376.712 89.2819C374.38 94.0189 373.294 99.2719 373.556 104.545C373.818 109.818 375.419 114.938 378.209 119.42C380.998 123.903 384.884 127.601 389.499 130.165C394.115 132.729 399.307 134.075 404.587 134.075H477.622C481.025 134.075 484.289 132.723 486.695 130.316C489.102 127.91 490.454 124.646 490.454 121.243C490.45 80.8628 477.403 41.564 453.255 9.19993Z" fill="#FAE0BD"/>
<path d="M350.753 171.184C350.753 150.297 329.495 133.368 303.269 133.368C277.043 133.368 255.781 150.298 255.781 171.184C255.781 192.07 277.042 209 303.269 209C329.496 209 350.753 192.066 350.753 171.184Z" fill="white"/>
<path d="M330.941 140.957C328.952 140.957 327.045 140.167 325.638 138.76C324.232 137.354 323.441 135.446 323.441 133.457V116.687C323.441 114.698 324.232 112.79 325.638 111.384C327.045 109.977 328.952 109.187 330.941 109.187C332.931 109.187 334.838 109.977 336.245 111.384C337.651 112.79 338.441 114.698 338.441 116.687V133.457C338.441 135.446 337.651 137.354 336.245 138.76C334.838 140.167 332.931 140.957 330.941 140.957Z" fill="#4E5660"/>
<path d="M431.965 201.926C425.845 201.924 419.796 200.61 414.226 198.073C408.656 195.536 403.695 191.835 399.676 187.219C398.369 185.719 397.711 183.762 397.848 181.777C397.984 179.793 398.903 177.944 400.403 176.637C401.903 175.33 403.86 174.672 405.844 174.809C407.829 174.945 409.678 175.864 410.985 177.364C413.594 180.366 416.817 182.773 420.436 184.423C424.055 186.073 427.986 186.926 431.963 186.926C435.941 186.926 439.872 186.073 443.491 184.423C447.11 182.773 450.333 180.366 452.942 177.364C454.249 175.864 456.098 174.944 458.083 174.807C460.068 174.671 462.026 175.328 463.526 176.635C465.026 177.942 465.946 179.791 466.082 181.776C466.219 183.761 465.562 185.719 464.255 187.219C460.236 191.835 455.274 195.536 449.704 198.073C444.134 200.61 438.085 201.924 431.965 201.926Z" fill="#4E5660"/>
<path d="M231.522 133.18L203.049 128.18C190.585 125.99 179.097 120.014 170.148 111.065C161.199 102.117 155.223 90.6287 153.033 78.164C152.136 73.0527 152.483 67.8004 154.046 62.8517C155.608 57.903 158.34 53.4035 162.009 49.734C165.679 46.0645 170.178 43.3329 175.127 41.7705C180.076 40.2081 185.328 39.8608 190.439 40.758C202.904 42.9472 214.393 48.9226 223.342 57.8716C232.291 66.8207 238.266 78.3089 240.455 90.774L245.455 119.247C245.79 121.151 245.66 123.107 245.079 124.951C244.497 126.794 243.479 128.47 242.112 129.837C240.745 131.204 239.069 132.221 237.226 132.803C235.383 133.385 233.426 133.514 231.522 133.18Z" fill="#BAE7FF"/>
<path d="M221.201 116.418C220.216 116.418 219.241 116.224 218.331 115.846C217.422 115.469 216.596 114.915 215.901 114.218L193.786 92.113C192.379 90.7061 191.589 88.7982 191.59 86.809C191.59 84.8198 192.381 82.9123 193.788 81.506C195.194 80.0996 197.102 79.3098 199.092 79.3102C201.081 79.3106 202.988 80.1011 204.395 81.508L226.495 103.613C227.542 104.662 228.255 105.998 228.544 107.452C228.833 108.906 228.685 110.413 228.117 111.782C227.55 113.152 226.59 114.323 225.358 115.147C224.126 115.971 222.677 116.412 221.195 116.413L221.201 116.418Z" fill="#8CD6FE"/>
<path d="M114.52 442.3V461.706H136.32C139.464 461.706 142.577 461.087 145.482 459.884C148.386 458.681 151.026 456.918 153.249 454.694C155.472 452.471 157.236 449.832 158.439 446.927C159.642 444.022 160.261 440.909 160.261 437.765V418.8H138.023C134.936 418.8 131.88 419.407 129.029 420.588C126.177 421.769 123.586 423.5 121.404 425.682C119.221 427.864 117.49 430.455 116.309 433.306C115.127 436.158 114.52 439.214 114.52 442.3Z" fill="#4E5660"/>
<path d="M247.262 442.3V461.706H269.062C275.411 461.706 281.501 459.184 285.991 454.694C290.48 450.204 293.003 444.115 293.003 437.765V418.8H270.766C267.679 418.799 264.623 419.407 261.771 420.588C258.92 421.768 256.329 423.499 254.146 425.682C251.964 427.864 250.232 430.455 249.051 433.306C247.87 436.157 247.262 439.214 247.262 442.3Z" fill="#4E5660"/>
<path d="M443.458 72.4099C441.976 72.4086 440.527 71.968 439.295 71.1438C438.063 70.3196 437.102 69.1487 436.535 67.7791C435.968 66.4095 435.82 64.9025 436.109 63.4485C436.397 61.9945 437.111 60.6587 438.158 59.6099L447.189 50.5829C448.604 49.2167 450.498 48.4607 452.465 48.4778C454.431 48.4949 456.312 49.2837 457.703 50.6742C459.093 52.0648 459.882 53.9459 459.899 55.9124C459.916 57.8788 459.16 59.7734 457.794 61.1879L448.767 70.2149C448.071 70.9124 447.243 71.4654 446.332 71.8421C445.421 72.2188 444.444 72.4117 443.458 72.4099Z" fill="#F3BE77"/>
<path d="M435.474 114.648C433.991 114.647 432.543 114.206 431.311 113.382C430.078 112.558 429.118 111.387 428.551 110.017C427.984 108.647 427.835 107.141 428.124 105.687C428.413 104.233 429.126 102.897 430.174 101.848L446.747 85.2699C448.161 83.9037 450.056 83.1477 452.022 83.1648C453.989 83.1819 455.87 83.9707 457.261 85.3612C458.651 86.7518 459.44 88.6329 459.457 90.5994C459.474 92.5659 458.718 94.4604 457.352 95.8749L440.778 112.453C440.082 113.15 439.255 113.702 438.345 114.079C437.434 114.456 436.459 114.649 435.474 114.648Z" fill="#F3BE77"/>
</svg>
