<svg width="512" height="512" viewBox="0 0 512 512" fill="none" xmlns="http://www.w3.org/2000/svg">
<path d="M445.854 87.559H395.217C392.643 87.5585 390.174 86.5356 388.354 84.7153C386.534 82.895 385.511 80.4263 385.51 77.852C385.511 67.6285 383.498 57.505 379.586 48.0596C375.674 38.6142 369.94 30.0318 362.711 22.8026C355.482 15.5733 346.9 9.83869 337.454 5.92621C328.009 2.01373 317.886 -1.34957e-08 307.662 0L232.502 0C223.483 0.00026264 214.552 1.77703 206.219 5.22887C197.886 8.68071 190.315 13.74 183.937 20.1179C177.56 26.4958 172.501 34.0674 169.05 42.4004C165.598 50.7334 163.822 59.6646 163.822 68.684V80.949C163.812 94.2708 166.639 107.442 172.115 119.586C148.658 160.156 118.107 231.359 118.107 320.762C118.102 491.34 225.209 512 299.287 512C378.087 512 420.017 448.141 380.514 362.973C379.779 361.394 378.551 360.096 377.014 359.275C375.477 358.455 373.716 358.156 371.994 358.423C370.273 358.691 368.685 359.51 367.47 360.759C366.254 362.007 365.478 363.616 365.256 365.344C360.682 400.762 338.656 439.836 299.287 439.836C267.428 439.836 256.529 414.008 256.529 393.536C256.529 362.286 302.119 360.059 302.119 302.579C302.119 246.879 280.178 218.001 319.967 175.118H441.623C449.488 175.119 457.152 172.637 463.524 168.027C469.895 163.416 474.649 156.912 477.107 149.442L481.337 136.602C483.186 130.99 483.677 125.021 482.77 119.182C481.864 113.344 479.585 107.805 476.122 103.018C472.659 98.2312 468.11 94.3342 462.848 91.6469C457.586 88.9596 451.763 87.5586 445.854 87.559Z" fill="#8EE2CF"/>
<path d="M299.287 512C302.887 512 306.407 511.867 309.846 511.6C135.322 409.027 170.959 243.781 247.037 0H232.502C223.483 0.00026264 214.552 1.77703 206.219 5.22887C197.886 8.68071 190.315 13.74 183.937 20.1179C177.56 26.4958 172.501 34.0674 169.05 42.4004C165.598 50.7334 163.822 59.6646 163.822 68.684V80.949C163.812 94.2708 166.639 107.442 172.115 119.586C148.658 160.156 118.107 231.359 118.107 320.762C118.102 491.34 225.209 512 299.287 512Z" fill="#6FCE91"/>
<path d="M170.955 403.078C170.956 404.554 170.518 405.997 169.698 407.225C168.878 408.453 167.713 409.409 166.349 409.974C164.985 410.54 163.485 410.688 162.037 410.4C160.589 410.112 159.259 409.401 158.215 408.357C157.171 407.313 156.46 405.983 156.173 404.535C155.885 403.088 156.033 401.587 156.598 400.223C157.163 398.859 158.12 397.694 159.347 396.874C160.575 396.054 162.018 395.617 163.494 395.617C164.474 395.617 165.444 395.81 166.349 396.185C167.255 396.56 168.077 397.109 168.77 397.802C169.463 398.495 170.012 399.318 170.387 400.223C170.762 401.128 170.955 402.098 170.955 403.078Z" fill="#8EE2CF"/>
<path d="M236.024 179.734C236.024 181.21 235.586 182.654 234.766 183.881C233.945 185.109 232.78 186.066 231.415 186.631C230.051 187.196 228.55 187.344 227.102 187.056C225.654 186.768 224.324 186.057 223.28 185.013C222.236 183.969 221.525 182.638 221.237 181.19C220.949 179.742 221.097 178.241 221.662 176.877C222.227 175.513 223.184 174.347 224.411 173.527C225.639 172.707 227.082 172.269 228.559 172.269C229.539 172.269 230.51 172.462 231.416 172.837C232.321 173.212 233.144 173.762 233.838 174.455C234.531 175.148 235.081 175.971 235.456 176.877C235.831 177.783 236.024 178.754 236.024 179.734Z" fill="#6FCE91"/>
<path d="M211.145 446.629C211.144 448.105 210.706 449.548 209.886 450.775C209.066 452.002 207.9 452.958 206.537 453.522C205.173 454.087 203.673 454.235 202.225 453.947C200.778 453.659 199.448 452.948 198.405 451.904C197.361 450.861 196.65 449.531 196.362 448.083C196.074 446.636 196.222 445.136 196.786 443.772C197.351 442.408 198.307 441.243 199.534 440.423C200.761 439.602 202.204 439.164 203.68 439.164C204.66 439.164 205.631 439.356 206.537 439.732C207.443 440.107 208.266 440.656 208.959 441.35C209.652 442.043 210.202 442.866 210.577 443.772C210.952 444.678 211.145 445.649 211.145 446.629Z" fill="#8EE2CF"/>
<path d="M333.991 477.074C333.991 478.551 333.554 479.994 332.734 481.222C331.915 482.451 330.749 483.408 329.385 483.974C328.021 484.539 326.52 484.688 325.072 484.4C323.623 484.112 322.293 483.402 321.248 482.358C320.204 481.314 319.493 479.984 319.204 478.536C318.916 477.088 319.064 475.587 319.628 474.222C320.193 472.858 321.15 471.692 322.378 470.871C323.606 470.051 325.049 469.613 326.526 469.613C328.505 469.613 330.403 470.399 331.803 471.798C333.203 473.197 333.99 475.095 333.991 477.074Z" fill="#6FCE91"/>
<path d="M261.526 377.2C273.362 359.032 302.12 348.231 302.12 302.579C302.12 262.548 290.792 236.368 299.19 208.888C260.725 209.861 208.174 219.408 208.174 295.572C208.175 348.234 233.303 369.043 261.526 377.2Z" fill="#FAE0BD"/>
<path d="M213.297 259.309H298.551C297.875 254.122 297.242 249.145 296.785 244.309H220.047C217.25 249.044 214.986 254.075 213.297 259.309Z" fill="#F3BE77"/>
<path d="M208.176 295.566C208.176 298.226 208.258 300.781 208.383 303.277H302.104C302.104 303.039 302.12 302.816 302.12 302.577C302.12 297.608 301.944 292.854 301.655 288.277H208.348C208.234 290.64 208.177 293.07 208.176 295.566Z" fill="#F3BE77"/>
<path d="M220.313 347.246H288.528C291.963 342.63 294.783 337.588 296.919 332.246H213.449C215.169 337.487 217.471 342.519 220.313 347.246Z" fill="#F3BE77"/>
<path d="M207.534 130.6L180.554 147.166C177.563 149.002 174.24 150.231 170.774 150.783C167.309 151.334 163.768 151.198 160.355 150.38C156.943 149.563 153.724 148.081 150.884 146.02C148.044 143.958 145.638 141.358 143.804 138.366C134.423 123.078 129.457 105.491 129.457 87.5534C129.457 69.6163 134.423 52.0294 143.804 36.741C145.639 33.75 148.045 31.1499 150.886 29.0892C153.726 27.0285 156.944 25.5476 160.357 24.731C163.77 23.9144 167.31 23.7783 170.775 24.3302C174.241 24.8822 177.564 26.1115 180.554 27.948L207.534 44.514C213.957 48.4586 219.263 53.9841 222.943 60.5627C226.624 67.1414 228.556 74.5537 228.557 82.092V93.02C228.557 100.559 226.624 107.971 222.944 114.55C219.263 121.129 213.958 126.655 207.534 130.6Z" fill="#FAE0BD"/>
<path d="M186.816 80.906C185.794 80.9071 184.781 80.6971 183.843 80.289L167.488 73.211C166.578 72.8245 165.752 72.2616 165.06 71.5548C164.368 70.848 163.822 70.0111 163.455 69.0925C163.087 68.1739 162.905 67.1916 162.919 66.2023C162.932 65.213 163.142 64.2362 163.535 63.3282C163.928 62.4202 164.496 61.5988 165.208 60.9116C165.92 60.2243 166.761 59.6846 167.682 59.3237C168.603 58.9627 169.587 58.7876 170.576 58.8084C171.565 58.8292 172.54 59.0456 173.445 59.445L189.803 66.523C191.387 67.2083 192.686 68.4187 193.481 69.95C194.276 71.4814 194.519 73.24 194.168 74.9295C193.818 76.619 192.895 78.1359 191.557 79.2246C190.218 80.3133 188.545 80.9071 186.819 80.906H186.816Z" fill="#F3BE77"/>
<path d="M170.467 116.289C168.741 116.291 167.066 115.698 165.726 114.609C164.386 113.519 163.463 112.001 163.113 110.31C162.763 108.619 163.007 106.859 163.804 105.327C164.601 103.796 165.902 102.586 167.487 101.902L183.842 94.8239C185.668 94.0336 187.733 94.0008 189.582 94.7328C191.432 95.4647 192.915 96.9015 193.705 98.7269C194.496 100.552 194.528 102.617 193.797 104.467C193.065 106.316 191.628 107.8 189.802 108.59L173.447 115.668C172.507 116.078 171.493 116.289 170.467 116.289Z" fill="#F3BE77"/>
<path d="M151.847 315.961L94.6938 347.727C86.3198 352.38 76.4723 353.621 67.2059 351.189C57.9395 348.757 49.9699 342.842 44.9598 334.676C34.5252 317.672 29.002 298.111 29.002 278.16C29.002 258.21 34.5252 238.649 44.9598 221.645C49.9699 213.479 57.9395 207.564 67.2059 205.132C76.4723 202.7 86.3198 203.941 94.6938 208.594L151.846 240.364C157.639 243.582 162.466 248.292 165.826 254.003C169.187 259.715 170.959 266.221 170.959 272.848V283.477C170.958 290.104 169.186 296.61 165.825 302.321C162.465 308.032 157.639 312.742 151.847 315.961Z" fill="#FAE0BD"/>
<path d="M124.268 271.383C123.245 271.383 122.233 271.171 121.295 270.762L75.5682 250.973C73.7568 250.174 72.3349 248.691 71.6126 246.847C70.8903 245.004 70.9262 242.95 71.7125 241.133C72.4988 239.316 73.9717 237.883 75.8099 237.148C77.6482 236.412 79.7026 236.434 81.5252 237.207L127.252 257C128.838 257.684 130.14 258.894 130.936 260.426C131.733 261.959 131.977 263.719 131.626 265.41C131.275 267.101 130.352 268.62 129.011 269.708C127.671 270.797 125.995 271.39 124.268 271.387V271.383Z" fill="#F3BE77"/>
<path d="M78.5539 319.734C76.8284 319.735 75.1553 319.141 73.8167 318.053C72.4781 316.964 71.5557 315.447 71.2052 313.758C70.8547 312.068 71.0974 310.309 71.8925 308.778C72.6876 307.247 73.9864 306.036 75.5699 305.351L121.297 285.558C122.202 285.159 123.177 284.942 124.167 284.921C125.156 284.901 126.139 285.076 127.06 285.437C127.982 285.798 128.822 286.337 129.534 287.025C130.246 287.712 130.815 288.533 131.208 289.441C131.6 290.349 131.81 291.326 131.824 292.315C131.837 293.305 131.655 294.287 131.288 295.206C130.92 296.124 130.375 296.961 129.682 297.668C128.99 298.375 128.165 298.938 127.254 299.324L81.5299 319.113C80.5909 319.522 79.578 319.733 78.5539 319.734Z" fill="#F3BE77"/>
<path d="M287.903 75.422C287.903 66.176 278.493 58.684 266.887 58.684C255.281 58.684 245.867 66.176 245.867 75.422C245.867 84.668 255.277 92.156 266.887 92.156C278.497 92.156 287.903 84.664 287.903 75.422Z" fill="white"/>
<path d="M381.429 75.422C381.429 66.176 372.019 58.684 360.409 58.684C348.799 58.684 339.393 66.176 339.393 75.422C339.393 84.668 348.803 92.156 360.409 92.156C372.015 92.156 381.429 84.664 381.429 75.422Z" fill="white"/>
<path d="M289.139 64.7071C287.15 64.7071 285.242 63.9169 283.836 62.5103C282.429 61.1038 281.639 59.1962 281.639 57.2071C281.639 56.5424 281.375 55.905 280.905 55.435C280.435 54.9651 279.798 54.701 279.133 54.701C278.468 54.701 277.831 54.9651 277.361 55.435C276.891 55.905 276.627 56.5424 276.627 57.2071C276.627 59.1962 275.837 61.1038 274.43 62.5103C273.024 63.9169 271.116 64.7071 269.127 64.7071C267.138 64.7071 265.23 63.9169 263.824 62.5103C262.417 61.1038 261.627 59.1962 261.627 57.2071C261.627 52.5642 263.471 48.1115 266.754 44.8284C270.037 41.5454 274.49 39.701 279.133 39.701C283.776 39.701 288.229 41.5454 291.512 44.8284C294.795 48.1115 296.639 52.5642 296.639 57.2071C296.639 59.1962 295.849 61.1038 294.442 62.5103C293.036 63.9169 291.128 64.7071 289.139 64.7071Z" fill="#4E5660"/>
<path d="M358.166 64.7071C356.177 64.7071 354.269 63.9169 352.863 62.5103C351.456 61.1038 350.666 59.1962 350.666 57.2071C350.666 56.5424 350.402 55.905 349.932 55.435C349.462 54.9651 348.825 54.701 348.16 54.701C347.496 54.701 346.858 54.9651 346.388 55.435C345.918 55.905 345.654 56.5424 345.654 57.2071C345.654 59.1962 344.864 61.1038 343.458 62.5103C342.051 63.9169 340.143 64.7071 338.154 64.7071C336.165 64.7071 334.258 63.9169 332.851 62.5103C331.444 61.1038 330.654 59.1962 330.654 57.2071C330.654 52.5642 332.499 48.1115 335.782 44.8284C339.065 41.5454 343.517 39.701 348.16 39.701C352.803 39.701 357.256 41.5454 360.539 44.8284C363.822 48.1115 365.666 52.5642 365.666 57.2071C365.666 59.1962 364.876 61.1038 363.47 62.5103C362.063 63.9169 360.155 64.7071 358.166 64.7071Z" fill="#4E5660"/>
<path d="M428.869 154.449C424.764 154.448 420.706 153.567 416.97 151.866C413.233 150.164 409.905 147.682 407.209 144.586C405.902 143.086 405.245 141.129 405.381 139.144C405.517 137.16 406.436 135.311 407.936 134.004C409.436 132.697 411.393 132.039 413.378 132.176C415.362 132.312 417.211 133.231 418.518 134.731C419.806 136.212 421.396 137.4 423.182 138.214C424.969 139.028 426.909 139.45 428.872 139.45C430.834 139.45 432.774 139.028 434.561 138.214C436.347 137.4 437.937 136.212 439.225 134.731C439.862 133.956 440.648 133.317 441.537 132.851C442.426 132.386 443.399 132.103 444.398 132.02C445.398 131.937 446.404 132.056 447.358 132.369C448.311 132.682 449.191 133.183 449.947 133.842C450.704 134.502 451.32 135.306 451.759 136.208C452.199 137.109 452.453 138.09 452.507 139.092C452.561 140.094 452.413 141.096 452.073 142.04C451.732 142.984 451.206 143.849 450.525 144.586C447.829 147.682 444.502 150.164 440.766 151.865C437.031 153.566 432.974 154.447 428.869 154.449Z" fill="#4E5660"/>
</svg>
