<svg width="512" height="512" viewBox="0 0 512 512" fill="none" xmlns="http://www.w3.org/2000/svg">
<path d="M420.048 337.156L393.489 188.465H245.142L224.095 306.289C221.975 318.157 217.153 329.378 210.003 339.084C202.853 348.791 193.566 356.723 182.861 362.266L113.201 398.344C109.704 400.177 105.626 400.56 101.849 399.41C70.2747 389.57 28.1297 390.18 2.12972 426.621C0.921718 428.329 0.20652 430.336 0.0623049 432.423C-0.0819098 434.51 0.35041 436.597 1.31201 438.455C2.27361 440.313 3.72747 441.871 5.51468 442.958C7.3019 444.046 9.35367 444.621 11.4457 444.621H330.075C343.438 444.621 356.639 441.691 368.747 436.038C380.855 430.384 391.576 422.143 400.154 411.897C408.733 401.651 414.96 389.648 418.397 376.735C421.834 363.821 422.398 350.311 420.048 337.156Z" fill="#BAE7FF"/>
<path d="M355.712 417.672C355.712 419.111 355.285 420.518 354.486 421.715C353.686 422.912 352.55 423.844 351.22 424.395C349.89 424.946 348.427 425.09 347.016 424.809C345.604 424.528 344.307 423.835 343.29 422.818C342.272 421.8 341.579 420.503 341.298 419.092C341.017 417.68 341.161 416.217 341.712 414.887C342.263 413.558 343.196 412.421 344.392 411.621C345.589 410.822 346.996 410.395 348.435 410.395C350.365 410.395 352.216 411.162 353.581 412.526C354.946 413.891 355.712 415.742 355.712 417.672Z" fill="#8CD6FE"/>
<path d="M370.267 387.473C370.268 388.912 369.842 390.32 369.042 391.517C368.243 392.714 367.107 393.647 365.777 394.199C364.448 394.75 362.985 394.895 361.573 394.615C360.161 394.334 358.864 393.642 357.846 392.624C356.828 391.606 356.134 390.31 355.853 388.898C355.572 387.486 355.716 386.023 356.266 384.693C356.817 383.363 357.75 382.226 358.947 381.427C360.143 380.627 361.55 380.2 362.99 380.2C364.919 380.2 366.77 380.966 368.134 382.33C369.499 383.694 370.266 385.544 370.267 387.473Z" fill="#8CD6FE"/>
<path d="M256 296.969C256.001 298.408 255.575 299.816 254.776 301.013C253.977 302.21 252.84 303.144 251.511 303.695C250.181 304.246 248.718 304.391 247.306 304.111C245.894 303.83 244.597 303.138 243.579 302.12C242.561 301.103 241.868 299.806 241.586 298.394C241.305 296.982 241.449 295.519 242 294.189C242.55 292.859 243.483 291.722 244.68 290.923C245.877 290.123 247.284 289.696 248.723 289.696C250.653 289.696 252.503 290.462 253.867 291.826C255.232 293.19 255.999 295.04 256 296.969Z" fill="#8CD6FE"/>
<path d="M459.075 178.957C459.075 117.125 396.501 67 319.317 67C242.133 67 179.556 117.125 179.556 178.957C179.556 240.789 242.126 279.824 319.318 279.824C396.51 279.824 459.075 240.793 459.075 178.957Z" fill="#BAE7FF"/>
<path d="M319.317 279.824C345.239 279.824 369.508 275.414 390.317 267.224C296.442 270.072 227.055 141.372 270.817 73.924C217.532 89.717 179.547 130.783 179.547 178.955C179.556 240.793 242.126 279.824 319.317 279.824Z" fill="#8CD6FE"/>
<path d="M259.273 178.594C259.273 163.973 244.39 152.121 226.027 152.121C207.664 152.121 192.781 163.973 192.781 178.594C192.781 193.215 207.668 205.071 226.027 205.071C244.386 205.071 259.273 193.215 259.273 178.594Z" fill="white"/>
<path d="M445.848 178.594C445.848 163.973 430.961 152.121 412.602 152.121C394.243 152.121 379.356 163.973 379.356 178.594C379.356 193.215 394.238 205.07 412.6 205.07C430.962 205.07 445.848 193.215 445.848 178.594Z" fill="white"/>
<path d="M319.317 234.348C314.993 234.348 310.718 233.421 306.783 231.629C302.847 229.837 299.341 227.222 296.501 223.961C295.194 222.461 294.537 220.504 294.673 218.519C294.809 216.535 295.728 214.686 297.228 213.379C298.728 212.072 300.685 211.415 302.67 211.551C304.654 211.687 306.503 212.606 307.81 214.106C309.24 215.751 311.007 217.07 312.991 217.974C314.975 218.878 317.13 219.346 319.31 219.346C321.49 219.346 323.645 218.878 325.629 217.974C327.613 217.07 329.38 215.751 330.81 214.106C331.457 213.363 332.244 212.756 333.126 212.317C334.008 211.879 334.968 211.618 335.95 211.551C336.933 211.483 337.919 211.61 338.853 211.924C339.787 212.237 340.649 212.732 341.392 213.379C342.135 214.026 342.742 214.813 343.181 215.695C343.619 216.577 343.88 217.537 343.947 218.519C344.015 219.502 343.888 220.488 343.574 221.422C343.261 222.356 342.766 223.218 342.119 223.961C339.281 227.221 335.777 229.834 331.844 231.626C327.911 233.418 323.639 234.346 319.317 234.348Z" fill="#4E5660"/>
<path d="M268.321 195.965H259.274C257.285 195.965 255.378 195.175 253.971 193.768C252.565 192.362 251.774 190.454 251.774 188.465C251.774 186.476 252.565 184.568 253.971 183.162C255.378 181.755 257.285 180.965 259.274 180.965H268.321C270.311 180.965 272.218 181.755 273.625 183.162C275.031 184.568 275.821 186.476 275.821 188.465C275.821 190.454 275.031 192.362 273.625 193.768C272.218 195.175 270.311 195.965 268.321 195.965Z" fill="#4E5660"/>
<path d="M270.201 220.953C268.719 220.952 267.27 220.511 266.038 219.687C264.806 218.863 263.846 217.692 263.279 216.322C262.711 214.953 262.563 213.446 262.852 211.992C263.141 210.538 263.854 209.202 264.901 208.153L271.301 201.753C272.708 200.347 274.616 199.557 276.605 199.557C278.595 199.558 280.502 200.348 281.908 201.755C283.315 203.162 284.105 205.07 284.104 207.059C284.104 209.048 283.313 210.956 281.906 212.362L275.511 218.757C274.815 219.455 273.987 220.008 273.076 220.385C272.164 220.762 271.188 220.955 270.201 220.953Z" fill="#4E5660"/>
<path d="M379.357 195.965H370.31C368.32 195.965 366.413 195.175 365.006 193.768C363.6 192.362 362.81 190.454 362.81 188.465C362.81 186.476 363.6 184.568 365.006 183.162C366.413 181.755 368.32 180.965 370.31 180.965H379.357C381.346 180.965 383.253 181.755 384.66 183.162C386.066 184.568 386.857 186.476 386.857 188.465C386.857 190.454 386.066 192.362 384.66 193.768C383.253 195.175 381.346 195.965 379.357 195.965Z" fill="#4E5660"/>
<path d="M368.435 220.953C367.45 220.953 366.475 220.759 365.566 220.382C364.656 220.004 363.83 219.451 363.135 218.753L356.74 212.358C355.374 210.944 354.618 209.049 354.635 207.083C354.652 205.116 355.441 203.235 356.831 201.844C358.222 200.454 360.103 199.665 362.07 199.648C364.036 199.631 365.931 200.387 367.345 201.753L373.74 208.148C374.788 209.197 375.501 210.533 375.79 211.987C376.079 213.441 375.93 214.948 375.363 216.317C374.796 217.687 373.836 218.858 372.603 219.682C371.371 220.506 369.923 220.947 368.44 220.948L368.435 220.953Z" fill="#4E5660"/>
<path d="M319.317 193.129C331.376 193.129 347.262 184.699 348.364 173.414C349.298 163.867 341.106 155.559 319.317 155.559C297.528 155.559 289.333 163.868 290.266 173.414C291.372 184.7 307.255 193.129 319.317 193.129Z" fill="#4E5660"/>
<path d="M263.001 157.836C261.012 157.836 259.104 157.046 257.698 155.639C256.291 154.233 255.501 152.325 255.501 150.336C255.501 148.02 254.581 145.799 252.943 144.161C251.306 142.524 249.085 141.604 246.769 141.604C244.453 141.604 242.231 142.524 240.594 144.161C238.956 145.799 238.036 148.02 238.036 150.336C238.036 152.325 237.246 154.233 235.839 155.639C234.433 157.046 232.525 157.836 230.536 157.836C228.547 157.836 226.639 157.046 225.233 155.639C223.826 154.233 223.036 152.325 223.036 150.336C223.036 144.042 225.537 138.005 229.987 133.555C234.438 129.104 240.474 126.604 246.769 126.604C253.063 126.604 259.099 129.104 263.55 133.555C268.001 138.005 270.501 144.042 270.501 150.336C270.501 152.325 269.711 154.233 268.304 155.639C266.898 157.046 264.99 157.836 263.001 157.836Z" fill="#4E5660"/>
<path d="M408.101 157.836C406.112 157.836 404.204 157.046 402.797 155.639C401.391 154.233 400.601 152.325 400.601 150.336C400.601 148.02 399.681 145.799 398.043 144.161C396.405 142.524 394.184 141.604 391.868 141.604C389.552 141.604 387.331 142.524 385.693 144.161C384.056 145.799 383.136 148.02 383.136 150.336C383.136 152.325 382.346 154.233 380.939 155.639C379.533 157.046 377.625 157.836 375.636 157.836C373.647 157.836 371.739 157.046 370.332 155.639C368.926 154.233 368.136 152.325 368.136 150.336C368.136 144.042 370.636 138.005 375.087 133.555C379.538 129.104 385.574 126.604 391.868 126.604C398.162 126.604 404.199 129.104 408.65 133.555C413.1 138.005 415.601 144.042 415.601 150.336C415.601 152.325 414.811 154.233 413.404 155.639C411.997 157.046 410.09 157.836 408.101 157.836Z" fill="#4E5660"/>
<path d="M66.2625 432.438C68.2489 432.332 70.1119 431.441 71.4415 429.961C72.7712 428.482 73.4585 426.534 73.3525 424.548C73.2464 422.561 72.3555 420.699 70.8758 419.369C69.3962 418.039 67.4489 417.352 65.4625 417.458C49.3885 418.321 29.5325 432.235 24.5015 440.841C23.831 441.99 23.4789 443.296 23.4815 444.626H41.0085C46.7735 439.66 57.8365 432.887 66.2625 432.438Z" fill="#8CD6FE"/>
<path d="M182.974 396.719L197.958 350.528C200.535 342.581 205.563 335.655 212.32 330.743C219.077 325.83 227.216 323.184 235.571 323.184C238.883 323.184 242.161 323.862 245.202 325.176C248.243 326.49 250.982 328.413 253.252 330.826C255.522 333.239 257.274 336.091 258.4 339.206C259.526 342.322 260.003 345.634 259.801 348.941L255.883 412.711C255.352 421.351 251.545 429.462 245.24 435.392C238.934 441.323 230.605 444.624 221.949 444.625H136.618C135.111 444.625 133.623 444.284 132.267 443.628C130.91 442.972 129.72 442.017 128.785 440.835C127.85 439.653 127.195 438.275 126.869 436.803C126.542 435.332 126.553 433.806 126.901 432.34L127.514 429.754C129.263 422.369 133.452 415.79 139.405 411.083C145.358 406.375 152.724 403.814 160.314 403.813H173.214C175.381 403.814 177.494 403.127 179.247 401.853C181.001 400.578 182.305 398.781 182.974 396.719Z" fill="#8CD6FE"/>
<path d="M168.97 432.258C170.899 431.803 172.57 430.602 173.616 428.919C174.663 427.236 175.001 425.207 174.556 423.275C174.111 421.344 172.919 419.667 171.242 418.611C169.564 417.555 167.537 417.207 165.603 417.641C152.712 420.61 143.611 429.129 139.279 442.278C139.033 443.036 138.907 443.829 138.908 444.626H154.416C157.255 437.918 162.032 433.855 168.97 432.258Z" fill="#BAE7FF"/>
<path d="M455.656 396.719L440.672 350.528C438.095 342.581 433.067 335.655 426.31 330.743C419.553 325.83 411.414 323.184 403.059 323.184C399.747 323.184 396.47 323.863 393.429 325.177C390.388 326.492 387.649 328.415 385.38 330.828C383.11 333.24 381.358 336.092 380.233 339.208C379.107 342.323 378.63 345.636 378.832 348.942L382.75 412.712C383.282 421.352 387.088 429.463 393.393 435.393C399.699 441.324 408.029 444.625 416.684 444.626H502.012C503.519 444.626 505.006 444.284 506.362 443.628C507.718 442.971 508.908 442.016 509.842 440.834C510.777 439.652 511.432 438.274 511.758 436.804C512.085 435.333 512.074 433.807 511.727 432.341L511.114 429.755C509.365 422.37 505.176 415.791 499.223 411.084C493.271 406.376 485.904 403.815 478.314 403.814H465.414C463.247 403.814 461.135 403.128 459.382 401.853C457.629 400.578 456.325 398.781 455.656 396.719Z" fill="#8CD6FE"/>
<path d="M473.029 417.641C471.095 417.207 469.068 417.555 467.39 418.611C465.713 419.667 464.521 421.344 464.076 423.275C463.631 425.207 463.969 427.236 465.016 428.919C466.062 430.602 467.733 431.803 469.662 432.258C476.6 433.858 481.377 437.918 484.217 444.625H499.725C499.726 443.828 499.6 443.035 499.354 442.277C495.022 429.129 485.916 420.609 473.029 417.641Z" fill="#BAE7FF"/>
</svg>
