<svg width="513" height="512" viewBox="0 0 513 512" fill="none" xmlns="http://www.w3.org/2000/svg">
<path d="M91.0221 156.781C91.0223 165.684 88.3825 174.386 83.4366 181.789C78.4907 189.191 71.4608 194.961 63.2359 198.368C55.011 201.774 45.9605 202.666 37.2289 200.929C28.4973 199.192 20.4769 194.905 14.1818 188.61C7.88668 182.315 3.59968 174.295 1.86291 165.563C0.126145 156.832 1.01762 147.781 4.42459 139.556C7.83157 131.331 13.601 124.301 21.0034 119.355C28.4057 114.41 37.1084 111.77 46.0111 111.77C57.9486 111.77 69.3972 116.513 77.8384 124.954C86.2795 133.395 91.0218 144.843 91.0221 156.781Z" fill="#FCF2D0"/>
<path d="M31.4517 154.137C30.3164 154.137 29.1958 153.88 28.1743 153.385C27.1529 152.89 26.257 152.169 25.5543 151.277C24.8515 150.386 24.3602 149.346 24.1173 148.237C23.8743 147.128 23.8861 145.979 24.1517 144.875C25.2356 140.326 27.5602 136.168 30.867 132.861C34.1737 129.555 38.3328 127.231 42.8817 126.148C44.8159 125.682 46.8561 126.003 48.5536 127.041C50.2511 128.079 51.4668 129.748 51.9332 131.683C52.3995 133.617 52.0785 135.657 51.0405 137.354C50.0026 139.052 48.3329 140.268 46.3987 140.734C44.545 141.19 42.8513 142.144 41.5011 143.494C40.151 144.843 39.1957 146.537 38.7387 148.39C38.3444 150.026 37.4115 151.483 36.09 152.525C34.7684 153.567 33.1348 154.135 31.4517 154.137Z" fill="#FAE0BD"/>
<path d="M153.227 423.441H131.336C125.084 423.441 119.089 420.958 114.668 416.538C110.247 412.118 107.763 406.122 107.762 399.871V341.68H176.8V399.871C176.799 406.122 174.315 412.117 169.894 416.537C165.473 420.957 159.478 423.441 153.227 423.441Z" fill="#4E5660"/>
<path d="M287.916 423.441H266.025C259.774 423.441 253.778 420.958 249.357 416.538C244.936 412.118 242.452 406.122 242.451 399.871V341.68H311.49V399.871C311.489 406.122 309.005 412.118 304.584 416.538C300.163 420.958 294.168 423.441 287.916 423.441Z" fill="#4E5660"/>
<path d="M356.955 423.441H335.064C328.813 423.441 322.817 420.958 318.396 416.538C313.975 412.118 311.491 406.122 311.49 399.871V341.68H380.529V399.871C380.528 406.122 378.044 412.118 373.623 416.538C369.202 420.958 363.207 423.441 356.955 423.441Z" fill="#383C43"/>
<path d="M432.029 97.75C420.802 86.5089 407.023 78.1494 391.867 73.3841C376.71 68.6189 360.627 67.5893 344.986 70.383C342.279 70.9022 339.486 70.7704 336.839 69.9982C334.193 69.2261 331.767 67.8358 329.763 65.942C311.356 48.0257 286.683 38.0007 260.996 38.0007C235.309 38.0007 210.636 48.0257 192.228 65.942C190.225 67.836 187.799 69.2264 185.153 69.9986C182.506 70.7707 179.713 70.9025 177.005 70.383C152.248 65.9755 126.741 71.1898 105.7 84.9601C84.6579 98.7304 69.6697 120.017 63.7985 144.469C63.2751 146.757 62.2846 148.912 60.8892 150.798C59.4938 152.685 57.7235 154.264 55.6895 155.434C43.7208 162.147 33.7605 171.933 26.8368 183.781C19.913 195.63 16.2766 209.111 16.3029 222.834C16.3292 236.557 20.0172 250.024 26.9863 261.845C33.9555 273.667 43.9531 283.415 55.9475 290.082C58.2711 291.354 60.2726 293.141 61.798 295.306C63.3235 297.472 64.3325 299.958 64.7475 302.574C66.8331 316.398 71.8322 329.621 79.4138 341.367C86.9953 353.113 96.9862 363.114 108.725 370.708C120.463 378.301 133.681 383.314 147.503 385.414C161.324 387.513 175.435 386.652 188.898 382.887C192.656 381.815 196.668 382.068 200.261 383.602C219.446 391.857 240.113 396.114 260.998 396.114C281.883 396.114 302.549 391.857 321.734 383.602C325.329 382.068 329.343 381.815 333.101 382.887C351.986 388.164 372.014 387.697 390.632 381.547C409.25 375.396 425.615 363.84 437.639 348.352C449.664 332.864 456.803 314.146 458.147 294.584C459.492 275.022 454.979 255.503 445.186 238.516C443.586 235.766 442.773 232.628 442.836 229.447C442.898 226.265 443.834 223.162 445.541 220.477C457.577 201.532 462.797 179.051 460.341 156.74C457.885 134.43 447.899 113.623 432.029 97.75Z" fill="#FCF2D0"/>
<path d="M444.365 184.777V214.617C444.365 223.718 447.981 232.447 454.416 238.882C460.852 245.318 469.58 248.934 478.682 248.934C487.783 248.934 496.512 245.318 502.947 238.882C509.383 232.447 512.998 223.718 512.998 214.617C512.998 201.558 507.81 189.035 498.576 179.801C489.343 170.567 476.819 165.379 463.76 165.379C458.616 165.38 453.683 167.425 450.046 171.062C446.409 174.7 444.366 179.633 444.365 184.777Z" fill="#383C43"/>
<path d="M414.459 293.828H332.232C310.098 293.828 288.871 285.035 273.219 269.384C257.568 253.733 248.775 232.505 248.775 210.371C248.775 188.237 257.568 167.009 273.219 151.358C288.871 135.707 310.098 126.914 332.232 126.914H379.576C403.711 126.914 427.106 135.238 445.816 150.483C464.525 165.729 477.403 186.961 482.276 210.598C484.353 220.666 484.161 231.07 481.716 241.055C479.271 251.039 474.633 260.354 468.14 268.324C461.646 276.293 453.46 282.716 444.175 287.128C434.89 291.539 424.739 293.828 414.459 293.828Z" fill="#4E5660"/>
<path d="M335.886 212.441C335.886 200.964 324.202 191.66 309.786 191.66C295.37 191.66 283.686 200.96 283.686 212.441C283.686 223.922 295.37 233.226 309.786 233.226C324.202 233.226 335.886 223.922 335.886 212.441Z" fill="#EDA1AB"/>
<path d="M477.343 212.441C477.343 200.964 465.656 191.66 451.243 191.66C436.83 191.66 425.143 200.96 425.143 212.441C425.143 223.922 436.827 233.226 451.243 233.226C465.659 233.226 477.343 223.922 477.343 212.441Z" fill="#EDA1AB"/>
<path d="M325 199.211C323.011 199.211 321.103 198.421 319.697 197.014C318.29 195.608 317.5 193.7 317.5 191.711V182.5C317.5 180.511 318.29 178.603 319.697 177.197C321.103 175.79 323.011 175 325 175C326.989 175 328.897 175.79 330.303 177.197C331.71 178.603 332.5 180.511 332.5 182.5V191.715C332.499 193.703 331.708 195.61 330.302 197.016C328.895 198.421 326.988 199.211 325 199.211Z" fill="white"/>
<path d="M436.035 199.211C434.046 199.211 432.138 198.421 430.732 197.014C429.325 195.608 428.535 193.7 428.535 191.711V182.5C428.535 180.511 429.325 178.603 430.732 177.197C432.138 175.79 434.046 175 436.035 175C438.024 175 439.932 175.79 441.338 177.197C442.745 178.603 443.535 180.511 443.535 182.5V191.715C443.534 193.703 442.743 195.61 441.337 197.016C439.931 198.421 438.024 199.211 436.035 199.211Z" fill="white"/>
<path d="M395.07 263.1C391.224 263.1 387.423 262.275 383.922 260.681C380.422 259.088 377.303 256.762 374.777 253.862C374.13 253.119 373.636 252.257 373.322 251.323C373.008 250.389 372.882 249.403 372.949 248.42C373.017 247.438 373.277 246.478 373.716 245.596C374.154 244.714 374.762 243.927 375.504 243.28C376.247 242.633 377.11 242.138 378.043 241.825C378.977 241.511 379.963 241.384 380.946 241.452C381.929 241.519 382.888 241.78 383.77 242.218C384.652 242.657 385.439 243.264 386.086 244.007C387.204 245.292 388.584 246.323 390.134 247.029C391.684 247.735 393.368 248.101 395.071 248.101C396.774 248.101 398.458 247.735 400.007 247.029C401.557 246.323 402.938 245.292 404.055 244.007C405.362 242.507 407.211 241.588 409.196 241.452C411.18 241.316 413.138 241.973 414.637 243.28C416.137 244.587 417.056 246.436 417.193 248.42C417.329 250.405 416.671 252.362 415.364 253.862C412.838 256.762 409.719 259.087 406.219 260.68C402.718 262.274 398.917 263.099 395.07 263.1Z" fill="white"/>
<path d="M278.877 184.777V214.617C278.877 223.718 275.262 232.447 268.826 238.882C262.39 245.318 253.662 248.934 244.561 248.934C235.459 248.934 226.731 245.318 220.295 238.882C213.86 232.447 210.244 223.718 210.244 214.617C210.244 208.151 211.517 201.749 213.991 195.775C216.465 189.801 220.091 184.373 224.663 179.801C229.235 175.229 234.663 171.602 240.636 169.127C246.61 166.653 253.012 165.379 259.478 165.379C264.623 165.379 269.557 167.423 273.195 171.061C276.833 174.699 278.877 179.632 278.877 184.777Z" fill="#383C43"/>
<path d="M188.898 382.887C192.656 381.815 196.668 382.068 200.261 383.602C233.902 398.072 271.602 400.059 306.577 389.207C293.511 379.664 287.277 368.68 283.827 357.707C282.893 354.657 281.011 351.985 278.454 350.079C275.896 348.172 272.798 347.131 269.608 347.107C235.342 347.212 209.213 314.416 210.018 281.177C210.082 278.326 209.295 275.52 207.758 273.117C206.22 270.715 204.002 268.825 201.385 267.689C168.651 253.189 157.518 205.88 180.729 174.789C182.647 172.205 183.647 169.055 183.571 165.838C183.496 162.621 182.348 159.522 180.311 157.031C162.432 134.765 167.62 94.6641 181.436 70.6211C179.956 70.7192 178.468 70.6393 177.006 70.3831C152.248 65.9749 126.741 71.1894 105.698 84.9606C84.6563 98.7318 69.6684 120.02 63.7985 144.473C63.2749 146.76 62.2844 148.914 60.889 150.801C59.4936 152.687 57.7234 154.264 55.6895 155.434C43.7208 162.147 33.7605 171.933 26.8368 183.781C19.913 195.63 16.2766 209.111 16.3029 222.834C16.3292 236.557 20.0172 250.024 26.9863 261.845C33.9555 273.667 43.9531 283.415 55.9475 290.082C58.2711 291.354 60.2726 293.141 61.798 295.306C63.3235 297.472 64.3325 299.958 64.7475 302.574C66.8331 316.398 71.8322 329.621 79.4138 341.367C86.9953 353.113 96.9862 363.114 108.725 370.708C120.463 378.301 133.681 383.314 147.503 385.414C161.324 387.513 175.435 386.652 188.898 382.887Z" fill="#FAE0BD"/>
<path d="M101.168 292.266C100.574 292.267 99.9822 292.196 99.4055 292.055C97.4719 291.589 95.8025 290.374 94.7645 288.678C93.7265 286.981 93.4049 284.942 93.8705 283.008C94.9553 278.459 97.2807 274.3 100.588 270.994C103.895 267.688 108.055 265.364 112.605 264.281C113.568 264.033 114.572 263.978 115.556 264.122C116.541 264.265 117.488 264.603 118.341 265.115C119.193 265.628 119.936 266.305 120.524 267.108C121.113 267.91 121.536 268.822 121.769 269.789C122.002 270.757 122.039 271.761 121.88 272.743C121.721 273.726 121.368 274.667 120.841 275.511C120.315 276.356 119.626 277.087 118.814 277.662C118.002 278.238 117.084 278.646 116.113 278.863C114.259 279.321 112.566 280.277 111.216 281.627C109.866 282.977 108.911 284.67 108.453 286.523C108.058 288.159 107.126 289.614 105.804 290.656C104.483 291.698 102.85 292.265 101.168 292.266Z" fill="#FCF2D0"/>
<path d="M246.272 103.207C244.893 103.208 243.54 102.825 242.366 102.102C239.6 100.432 236.431 99.5489 233.2 99.5489C229.969 99.5489 226.8 100.432 224.034 102.102C223.194 102.616 222.26 102.959 221.287 103.112C220.314 103.265 219.32 103.225 218.363 102.994C217.405 102.763 216.502 102.345 215.706 101.765C214.91 101.186 214.236 100.455 213.722 99.614C213.208 98.7736 212.865 97.8402 212.712 96.8671C212.559 95.894 212.599 94.9003 212.83 93.9428C213.061 92.9852 213.479 92.0825 214.059 91.2863C214.639 90.49 215.37 89.8158 216.21 89.302C221.32 86.1578 227.202 84.493 233.202 84.493C239.202 84.493 245.084 86.1578 250.194 89.302C251.59 90.155 252.669 91.4411 253.266 92.9643C253.863 94.4875 253.946 96.1641 253.502 97.7387C253.058 99.3133 252.111 100.699 250.805 101.686C249.5 102.672 247.908 103.205 246.272 103.202V103.207Z" fill="#FAE0BD"/>
<path d="M332.933 352.887C326.934 352.882 321.053 351.218 315.941 348.078C315.101 347.564 314.37 346.889 313.79 346.093C313.21 345.296 312.793 344.394 312.562 343.436C312.096 341.502 312.417 339.461 313.455 337.764C314.494 336.067 316.163 334.851 318.098 334.385C320.032 333.919 322.072 334.24 323.769 335.278C326.535 336.949 329.704 337.833 332.936 337.833C336.167 337.833 339.336 336.949 342.101 335.278C342.942 334.736 343.882 334.368 344.867 334.196C345.851 334.023 346.861 334.048 347.835 334.271C348.81 334.494 349.73 334.909 350.542 335.493C351.354 336.077 352.04 336.817 352.562 337.669C353.084 338.522 353.43 339.471 353.579 340.459C353.729 341.448 353.68 342.456 353.434 343.425C353.188 344.394 352.751 345.305 352.149 346.102C351.546 346.9 350.79 347.57 349.925 348.071C344.814 351.213 338.933 352.88 332.933 352.887Z" fill="#FAE0BD"/>
</svg>
