<svg width="512" height="512" viewBox="0 0 512 512" fill="none" xmlns="http://www.w3.org/2000/svg">
<path d="M223.937 179.023C221.948 179.023 220.04 178.233 218.634 176.826C217.227 175.42 216.437 173.512 216.437 171.523V7.5C216.437 5.51088 217.227 3.60322 218.634 2.1967C220.04 0.790176 221.948 0 223.937 0C225.926 0 227.834 0.790176 229.24 2.1967C230.647 3.60322 231.437 5.51088 231.437 7.5V171.523C231.437 173.512 230.647 175.42 229.24 176.826C227.834 178.233 225.926 179.023 223.937 179.023Z" fill="#FCF2D0"/>
<path d="M242.956 448.129C239.43 448.129 235.982 447.084 233.05 445.124C230.118 443.165 227.833 440.381 226.483 437.123C225.133 433.865 224.78 430.28 225.468 426.821C226.156 423.363 227.854 420.186 230.347 417.692C243.812 404.329 253.234 387.438 257.532 368.961C261.829 350.483 260.827 331.168 254.64 313.235C253.886 311.018 253.575 308.675 253.726 306.338C253.878 304.002 254.488 301.718 255.522 299.617C256.556 297.516 257.993 295.639 259.753 294.094C261.512 292.549 263.558 291.365 265.775 290.611C267.992 289.857 270.335 289.546 272.672 289.698C275.008 289.849 277.292 290.459 279.393 291.493C281.494 292.527 283.371 293.965 284.916 295.724C286.461 297.483 287.645 299.529 288.399 301.746C296.664 325.993 297.968 352.07 292.164 377.021C286.36 401.971 273.68 424.796 255.563 442.906C253.909 444.564 251.944 445.879 249.781 446.776C247.617 447.672 245.298 448.132 242.956 448.129Z" fill="#383C43"/>
<path d="M329.636 512C326.705 511.996 323.82 511.27 321.236 509.887C318.653 508.503 316.449 506.505 314.821 504.067C313.193 501.63 312.191 498.829 311.902 495.913C311.614 492.996 312.048 490.053 313.167 487.344C320.493 469.845 322.733 450.635 319.632 431.92C316.531 413.205 308.214 395.745 295.636 381.544C292.555 377.985 291.006 373.353 291.327 368.657C291.648 363.961 293.813 359.582 297.349 356.476C300.886 353.37 305.508 351.788 310.206 352.076C314.904 352.364 319.298 354.498 322.429 358.013C339.344 377.251 350.53 400.844 354.716 426.116C358.902 451.389 355.922 477.329 346.113 500.993C344.763 504.252 342.477 507.037 339.544 508.996C336.611 510.955 333.163 512.001 329.636 512Z" fill="#4E5660"/>
<path d="M176.96 173.668C125.894 224.734 138.21 303.688 194.503 359.984C250.796 416.28 329.757 428.597 380.823 377.531C431.889 326.465 427.651 239.431 371.354 183.136C315.057 126.841 228.026 122.6 176.96 173.668Z" fill="#4E5660"/>
<path d="M371.354 183.133C350.873 162.456 324.946 148.013 296.584 141.481C294.842 165.395 308.01 196.036 333.232 221.258C358.454 246.48 389.091 259.649 413.005 257.906C406.474 229.543 392.032 203.615 371.354 183.133Z" fill="#EDA1AB"/>
<path d="M437.319 448.984C474.444 411.859 465.424 354.394 424.424 313.39C383.424 272.386 325.955 263.37 288.83 300.495C251.705 337.62 254.85 400.956 295.853 441.96C336.856 482.964 400.199 486.109 437.319 448.984Z" fill="#4E5660"/>
<path d="M365.327 279.371C337.765 273.171 309.995 279.332 288.827 300.496C251.702 337.621 254.847 400.957 295.85 441.961C313.292 459.631 336.147 470.953 360.772 474.121C305.983 371.605 324.983 315.3 365.327 279.371Z" fill="#383C43"/>
<path d="M92.3469 358.566C88.8205 358.566 85.3733 357.521 82.4411 355.562C79.5089 353.603 77.2235 350.818 75.8739 347.56C74.5243 344.302 74.171 340.717 74.8588 337.258C75.5466 333.8 77.2445 330.623 79.7379 328.129C97.8482 310.012 120.673 297.332 145.624 291.528C170.574 285.725 196.652 287.029 220.899 295.293C223.13 296.036 225.193 297.212 226.968 298.755C228.742 300.298 230.194 302.177 231.24 304.283C232.286 306.389 232.905 308.682 233.061 311.028C233.217 313.375 232.907 315.729 232.149 317.955C231.392 320.182 230.201 322.236 228.646 324C227.091 325.765 225.203 327.204 223.089 328.235C220.976 329.266 218.679 329.869 216.332 330.01C213.984 330.15 211.632 329.824 209.411 329.051C191.477 322.865 172.162 321.863 153.684 326.161C135.207 330.458 118.316 339.88 104.952 353.344C103.298 355.002 101.334 356.317 99.1705 357.213C97.0073 358.109 94.6884 358.569 92.3469 358.566Z" fill="#383C43"/>
<path d="M194.218 263.285C189.889 263.291 185.707 261.714 182.46 258.851C168.259 246.274 150.798 237.957 132.083 234.856C113.369 231.755 94.1588 233.996 76.6599 241.32C72.2993 243.087 67.4172 243.058 63.0776 241.241C58.738 239.423 55.2926 235.964 53.4923 231.617C51.6919 227.271 51.6826 222.388 53.4664 218.035C55.2501 213.681 58.6823 210.209 63.0149 208.375C86.6794 198.566 112.619 195.586 137.892 199.772C163.164 203.958 186.757 215.144 205.995 232.059C208.718 234.452 210.647 237.618 211.525 241.135C212.403 244.652 212.188 248.353 210.91 251.745C209.631 255.137 207.349 258.058 204.367 260.12C201.386 262.182 197.847 263.286 194.222 263.286L194.218 263.285Z" fill="#383C43"/>
<path d="M328.952 363.309C336.319 355.938 334.792 342.461 325.538 333.209C316.284 323.957 302.804 322.424 295.433 329.795C288.062 337.166 289.593 350.643 298.847 359.895C308.101 369.147 321.581 370.68 328.952 363.309Z" fill="#EDA1AB"/>
<path d="M386.269 420.637C378.902 428.008 380.429 441.485 389.683 450.742C398.937 459.999 412.417 461.523 419.788 454.156C427.159 446.789 425.628 433.308 416.374 424.051C407.12 414.794 393.64 413.27 386.269 420.637Z" fill="#EDA1AB"/>
<path d="M335.272 350.508C333.79 350.507 332.341 350.066 331.109 349.242C329.877 348.418 328.916 347.247 328.349 345.877C327.782 344.508 327.633 343.001 327.922 341.547C328.211 340.093 328.924 338.757 329.972 337.708L335.89 331.79C337.304 330.424 339.199 329.668 341.165 329.685C343.132 329.702 345.013 330.491 346.404 331.881C347.794 333.272 348.583 335.153 348.6 337.12C348.617 339.086 347.861 340.981 346.495 342.395L340.577 348.313C339.881 349.011 339.054 349.564 338.144 349.941C337.233 350.318 336.257 350.51 335.272 350.508Z" fill="white"/>
<path d="M406.573 421.809C405.091 421.808 403.642 421.367 402.41 420.543C401.178 419.719 400.217 418.548 399.65 417.178C399.083 415.809 398.934 414.302 399.223 412.848C399.512 411.394 400.225 410.058 401.273 409.009L407.187 403.091C408.594 401.684 410.502 400.893 412.492 400.893C414.482 400.892 416.39 401.683 417.798 403.089C419.205 404.496 419.995 406.405 419.996 408.394C419.996 410.384 419.206 412.293 417.799 413.7L411.881 419.618C411.184 420.315 410.357 420.868 409.446 421.244C408.535 421.62 407.559 421.812 406.573 421.809Z" fill="white"/>
<path d="M378.847 395.863C375.401 395.865 371.991 395.158 368.831 393.786C365.67 392.414 362.825 390.406 360.474 387.886C358.123 385.367 356.315 382.391 355.164 379.143C354.012 375.896 353.541 372.446 353.781 369.008C353.917 367.023 354.836 365.174 356.336 363.867C357.835 362.56 359.792 361.903 361.777 362.039C363.761 362.175 365.61 363.094 366.917 364.594C368.224 366.093 368.882 368.05 368.746 370.035C368.645 371.479 368.855 372.928 369.362 374.284C369.87 375.64 370.662 376.872 371.685 377.895C372.709 378.919 373.941 379.711 375.297 380.218C376.653 380.726 378.102 380.936 379.546 380.835C380.529 380.768 381.515 380.894 382.448 381.208C383.382 381.522 384.245 382.016 384.987 382.663C385.73 383.311 386.337 384.098 386.776 384.98C387.214 385.862 387.474 386.821 387.542 387.804C387.609 388.787 387.483 389.773 387.169 390.706C386.855 391.64 386.361 392.503 385.713 393.245C385.066 393.988 384.279 394.596 383.397 395.034C382.515 395.472 381.556 395.733 380.573 395.8C379.999 395.844 379.421 395.863 378.847 395.863Z" fill="white"/>
<path d="M251.687 188.188H234.226C232.237 188.188 230.329 187.398 228.923 185.991C227.516 184.585 226.726 182.677 226.726 180.688C226.726 178.699 227.516 176.791 228.923 175.385C230.329 173.978 232.237 173.188 234.226 173.188H251.687C253.676 173.188 255.584 173.978 256.99 175.385C258.397 176.791 259.187 178.699 259.187 180.688C259.187 182.677 258.397 184.585 256.99 185.991C255.584 187.398 253.676 188.188 251.687 188.188Z" fill="#383C43"/>
<path d="M277.878 226.855H252.099C250.11 226.855 248.202 226.065 246.796 224.658C245.389 223.252 244.599 221.344 244.599 219.355C244.599 217.366 245.389 215.458 246.796 214.052C248.202 212.645 250.11 211.855 252.099 211.855H277.88C279.869 211.855 281.777 212.645 283.183 214.052C284.59 215.458 285.38 217.366 285.38 219.355C285.38 221.344 284.59 223.252 283.183 224.658C281.777 226.065 279.869 226.855 277.88 226.855H277.878Z" fill="#383C43"/>
</svg>
