<svg width="512" height="512" viewBox="0 0 512 512" fill="none" xmlns="http://www.w3.org/2000/svg">
<path d="M37.2 326.3C37.2 329.979 36.1091 333.575 34.0653 336.634C32.0215 339.692 29.1166 342.076 25.7179 343.484C22.3192 344.892 18.5794 345.26 14.9713 344.543C11.3633 343.825 8.04908 342.053 5.44782 339.452C2.84657 336.851 1.07509 333.537 0.357402 329.929C-0.360283 326.321 0.00805914 322.581 1.41585 319.182C2.82364 315.783 5.20765 312.879 8.2664 310.835C11.3252 308.791 14.9213 307.7 18.6 307.7C21.0426 307.7 23.4613 308.181 25.7179 309.116C27.9746 310.051 30.025 311.421 31.7522 313.148C33.4794 314.875 34.8494 316.926 35.7842 319.182C36.7189 321.439 37.2 323.857 37.2 326.3Z" fill="#EDA1AB"/>
<path d="M84.0594 385.7C84.0594 389.379 82.9685 392.975 80.9247 396.034C78.8809 399.092 75.976 401.476 72.5773 402.884C69.1786 404.292 65.4387 404.66 61.8307 403.943C58.2227 403.225 54.9085 401.454 52.3072 398.852C49.7059 396.251 47.9345 392.937 47.2168 389.329C46.4991 385.721 46.8674 381.981 48.2752 378.582C49.683 375.183 52.067 372.279 55.1258 370.235C58.1845 368.191 61.7807 367.1 65.4594 367.1C70.3924 367.1 75.1234 369.06 78.6116 372.548C82.0997 376.036 84.0594 380.767 84.0594 385.7Z" fill="#EDA1AB"/>
<path d="M179.483 493.4C179.483 497.079 178.392 500.675 176.349 503.733C174.305 506.792 171.401 509.176 168.002 510.584C164.604 511.992 160.864 512.36 157.256 511.643C153.648 510.926 150.334 509.155 147.733 506.554C145.131 503.953 143.359 500.64 142.641 497.032C141.923 493.424 142.291 489.684 143.698 486.286C145.105 482.887 147.488 479.982 150.546 477.937C153.604 475.893 157.2 474.801 160.878 474.8C163.321 474.799 165.74 475.28 167.998 476.214C170.255 477.149 172.306 478.519 174.034 480.246C175.761 481.973 177.132 484.024 178.067 486.281C179.002 488.538 179.483 490.957 179.483 493.4Z" fill="#EDA1AB"/>
<path d="M478.141 326.3C478.141 329.979 477.051 333.575 475.007 336.634C472.963 339.692 470.058 342.076 466.659 343.484C463.261 344.892 459.521 345.26 455.913 344.543C452.305 343.825 448.99 342.053 446.389 339.452C443.788 336.851 442.016 333.537 441.299 329.929C440.581 326.321 440.949 322.581 442.357 319.182C443.765 315.783 446.149 312.879 449.208 310.835C452.267 308.791 455.863 307.7 459.541 307.7C461.984 307.7 464.403 308.181 466.659 309.116C468.916 310.051 470.966 311.421 472.694 313.148C474.421 314.875 475.791 316.926 476.726 319.182C477.66 321.439 478.141 323.857 478.141 326.3Z" fill="#EDA1AB"/>
<path d="M431.286 385.7C431.286 389.379 430.195 392.975 428.151 396.034C426.107 399.092 423.203 401.476 419.804 402.884C416.405 404.292 412.665 404.66 409.057 403.943C405.449 403.225 402.135 401.454 399.534 398.852C396.933 396.251 395.161 392.937 394.443 389.329C393.726 385.721 394.094 381.981 395.502 378.582C396.91 375.183 399.294 372.279 402.352 370.235C405.411 368.191 409.007 367.1 412.686 367.1C417.619 367.1 422.35 369.06 425.838 372.548C429.326 376.036 431.286 380.767 431.286 385.7Z" fill="#EDA1AB"/>
<path d="M335.858 493.4C335.858 497.079 334.767 500.675 332.724 503.734C330.68 506.792 327.775 509.176 324.376 510.584C320.977 511.992 317.238 512.36 313.63 511.643C310.021 510.925 306.707 509.154 304.106 506.552C301.505 503.951 299.733 500.637 299.016 497.029C298.298 493.421 298.666 489.681 300.074 486.282C301.482 482.883 303.866 479.979 306.925 477.935C309.983 475.891 313.579 474.8 317.258 474.8C322.191 474.8 326.922 476.76 330.41 480.248C333.899 483.736 335.858 488.467 335.858 493.4Z" fill="#EDA1AB"/>
<path d="M365.91 457.543C365.614 454.153 364.653 450.854 363.082 447.835C361.511 444.816 359.36 442.136 356.753 439.948C354.146 437.76 351.134 436.108 347.888 435.084C344.642 434.061 341.226 433.687 337.836 433.984C328.156 434.823 318.539 431.786 311.096 425.541C303.653 419.296 298.992 410.353 298.136 400.675L293.031 342.343C302.947 358.981 318.049 371.904 336.02 379.128C353.99 386.352 373.835 387.478 392.508 382.333C411.18 377.188 427.648 366.056 439.381 350.647C451.115 335.237 457.467 316.402 457.461 297.034C457.461 290.161 454.731 283.569 449.87 278.709C445.01 273.848 438.418 271.118 431.545 271.118C424.672 271.118 418.08 273.848 413.22 278.709C408.359 283.569 405.629 290.161 405.629 297.034C405.654 301.862 404.725 306.648 402.895 311.115C401.065 315.583 398.37 319.645 394.965 323.068C391.559 326.491 387.512 329.207 383.053 331.061C378.595 332.914 373.815 333.868 368.986 333.868C364.158 333.868 359.378 332.914 354.92 331.061C350.461 329.207 346.413 326.491 343.008 323.068C339.603 319.645 336.908 315.583 335.078 311.115C333.248 306.648 332.319 301.862 332.344 297.034V194.883C332.344 182.423 329.501 170.127 324.032 158.932C318.562 147.736 310.611 137.936 300.782 130.278L271.13 107.178C261.967 100.037 250.682 96.1595 239.065 96.1595C227.449 96.1595 216.164 100.037 207.001 107.178L177.349 130.278C167.521 137.937 159.569 147.737 154.1 158.932C148.631 170.128 145.788 182.423 145.787 194.883V297.035C145.812 301.863 144.883 306.649 143.053 311.116C141.223 315.584 138.528 319.646 135.123 323.069C131.717 326.492 127.669 329.208 123.211 331.062C118.753 332.915 113.973 333.869 109.144 333.869C104.316 333.869 99.5358 332.915 95.0776 331.062C90.6194 329.208 86.5714 326.492 83.1663 323.069C79.7612 319.646 77.0662 315.584 75.236 311.116C73.4059 306.649 72.4767 301.863 72.5019 297.035C72.5019 290.162 69.7715 283.57 64.9113 278.71C60.0511 273.849 53.4593 271.119 46.5859 271.119C39.7126 271.119 33.1207 273.849 28.2605 278.71C23.4004 283.57 20.6699 290.162 20.6699 297.035C20.664 316.403 27.0156 335.238 38.7494 350.648C50.4833 366.057 66.9507 377.189 85.6231 382.334C104.295 387.479 124.141 386.353 142.111 379.129C160.082 371.905 175.184 358.982 185.1 342.344L180 400.672C179.142 410.35 174.481 419.292 167.038 425.538C159.596 431.783 149.98 434.821 140.3 433.985C136.91 433.688 133.494 434.062 130.248 435.085C127.003 436.109 123.99 437.761 121.383 439.948C118.776 442.136 116.625 444.815 115.053 447.834C113.482 450.853 112.52 454.151 112.223 457.542C111.927 460.932 112.301 464.347 113.324 467.593C114.347 470.839 115.999 473.851 118.187 476.459C120.374 479.066 123.054 481.216 126.072 482.788C129.091 484.36 132.39 485.321 135.78 485.618C138.393 485.849 140.986 485.962 143.557 485.958C165.667 485.912 186.962 477.601 203.257 462.657C219.553 447.713 229.672 427.216 231.627 405.192L239.07 320.2L246.5 405.191C248.453 427.216 258.573 447.715 274.869 462.659C291.166 477.604 312.462 485.914 334.574 485.957C337.144 485.957 339.742 485.848 342.351 485.617C345.741 485.321 349.04 484.36 352.06 482.789C355.079 481.218 357.759 479.068 359.946 476.461C362.134 473.854 363.787 470.841 364.81 467.595C365.833 464.349 366.207 460.933 365.91 457.543Z" fill="#E3748E"/>
<path d="M365.91 457.543C365.614 454.153 364.653 450.854 363.082 447.835C361.511 444.816 359.36 442.136 356.753 439.948C354.146 437.76 351.134 436.108 347.888 435.084C344.642 434.061 341.226 433.687 337.836 433.984C328.156 434.823 318.539 431.786 311.096 425.541C303.653 419.296 298.992 410.353 298.136 400.675L293.031 342.343C302.947 358.981 318.049 371.904 336.02 379.128C353.99 386.352 373.835 387.478 392.508 382.333C411.18 377.188 427.648 366.056 439.381 350.647C451.115 335.237 457.467 316.402 457.461 297.034C457.461 290.161 454.731 283.569 449.87 278.709C445.01 273.848 438.418 271.118 431.545 271.118C424.672 271.118 418.08 273.848 413.22 278.709C408.359 283.569 405.629 290.161 405.629 297.034C405.654 301.862 404.725 306.648 402.895 311.115C401.065 315.583 398.37 319.645 394.965 323.068C391.559 326.491 387.512 329.207 383.053 331.061C378.595 332.914 373.815 333.868 368.986 333.868C364.158 333.868 359.378 332.914 354.92 331.061C350.461 329.207 346.413 326.491 343.008 323.068C339.603 319.645 336.908 315.583 335.078 311.115C333.248 306.648 332.319 301.862 332.344 297.034V194.883C332.344 182.423 329.501 170.127 324.032 158.932C318.562 147.736 310.611 137.936 300.782 130.278L271.13 107.178C261.967 100.037 250.682 96.1595 239.065 96.1595C227.449 96.1595 216.164 100.037 207.001 107.178L177.349 130.278C167.521 137.937 159.569 147.737 154.1 158.932C148.631 170.128 145.788 182.423 145.787 194.883V297.035C145.812 301.863 144.883 306.649 143.053 311.116C141.223 315.584 138.528 319.646 135.123 323.069C131.717 326.492 127.669 329.208 123.211 331.062C118.753 332.915 113.973 333.869 109.144 333.869C104.316 333.869 99.5358 332.915 95.0776 331.062C90.6194 329.208 86.5714 326.492 83.1663 323.069C79.7612 319.646 77.0662 315.584 75.236 311.116C73.4059 306.649 72.4767 301.863 72.5019 297.035C72.5019 290.162 69.7715 283.57 64.9113 278.71C60.0511 273.849 53.4593 271.119 46.5859 271.119C39.7126 271.119 33.1207 273.849 28.2605 278.71C23.4004 283.57 20.6699 290.162 20.6699 297.035C20.664 316.403 27.0156 335.238 38.7494 350.648C50.4833 366.057 66.9507 377.189 85.6231 382.334C104.295 387.479 124.141 386.353 142.111 379.129C160.082 371.905 175.184 358.982 185.1 342.344L180 400.672C179.142 410.35 174.481 419.292 167.038 425.538C159.596 431.783 149.98 434.821 140.3 433.985C136.91 433.688 133.494 434.062 130.248 435.085C127.003 436.109 123.99 437.761 121.383 439.948C118.776 442.136 116.625 444.815 115.053 447.834C113.482 450.853 112.52 454.151 112.223 457.542C111.927 460.932 112.301 464.347 113.324 467.593C114.347 470.839 115.999 473.851 118.187 476.459C120.374 479.066 123.054 481.216 126.072 482.788C129.091 484.36 132.39 485.321 135.78 485.618C138.393 485.849 140.986 485.962 143.557 485.958C165.667 485.912 186.962 477.601 203.257 462.657C219.553 447.713 229.672 427.216 231.627 405.192L239.07 320.2L246.5 405.191C248.453 427.216 258.573 447.715 274.869 462.659C291.166 477.604 312.462 485.914 334.574 485.957C337.144 485.957 339.742 485.848 342.351 485.617C345.741 485.321 349.04 484.36 352.06 482.789C355.079 481.218 357.759 479.068 359.946 476.461C362.134 473.854 363.787 470.841 364.81 467.595C365.833 464.349 366.207 460.933 365.91 457.543Z" fill="#E3748E"/>
<path d="M231.278 96.75C222.424 98.0816 214.063 101.672 207.001 107.176L177.349 130.281C167.521 137.939 159.57 147.738 154.1 158.932C148.631 170.127 145.788 182.422 145.787 194.881V297.039C145.736 306.724 141.853 315.995 134.987 322.826C128.121 329.656 118.83 333.491 109.144 333.491C99.4593 333.491 90.168 329.656 83.3017 322.826C76.4354 315.995 72.5525 306.724 72.5019 297.039C72.5019 290.166 69.7715 283.574 64.9113 278.714C60.0511 273.853 53.4593 271.123 46.5859 271.123C39.7126 271.123 33.1207 273.853 28.2605 278.714C23.4004 283.574 20.6699 290.166 20.6699 297.039C20.6659 316.407 27.0189 335.24 38.7535 350.648C50.4881 366.056 66.9555 377.186 85.6274 382.33C104.299 387.474 124.144 386.348 142.113 379.123C160.083 371.899 175.185 358.976 185.1 342.339L180 400.671C179.142 410.348 174.481 419.29 167.038 425.535C159.595 431.78 149.979 434.817 140.3 433.98C133.452 433.381 126.647 435.526 121.382 439.944C116.116 444.362 112.821 450.691 112.221 457.539C111.622 464.386 113.767 471.191 118.185 476.457C122.604 481.723 128.932 485.018 135.78 485.617C138.393 485.844 140.986 485.957 143.557 485.957C165.667 485.911 186.962 477.6 203.257 462.656C219.553 447.712 229.672 427.215 231.627 405.191L239.065 320.191C210.958 274.566 199.278 203.1 231.278 96.75Z" fill="#DE5C6E"/>
<path d="M199.276 260.9C199.276 250.666 188.858 242.369 176.006 242.369C163.154 242.369 152.736 250.669 152.736 260.9C152.736 271.131 163.154 279.427 176.006 279.427C188.858 279.427 199.276 271.133 199.276 260.9Z" fill="#EDA1AB"/>
<path d="M325.399 260.9C325.399 250.666 314.981 242.369 302.129 242.369C289.277 242.369 278.863 250.669 278.863 260.9C278.863 271.131 289.281 279.427 302.129 279.427C314.977 279.427 325.399 271.133 325.399 260.9Z" fill="#EDA1AB"/>
<path d="M189.57 249.914C187.581 249.914 185.674 249.124 184.267 247.717C182.86 246.311 182.07 244.403 182.07 242.414V234.2C182.07 232.211 182.86 230.303 184.267 228.897C185.674 227.49 187.581 226.7 189.57 226.7C191.559 226.7 193.467 227.49 194.874 228.897C196.28 230.303 197.07 232.211 197.07 234.2V242.419C197.069 244.407 196.278 246.314 194.872 247.719C193.465 249.125 191.559 249.914 189.57 249.914Z" fill="#4E5660"/>
<path d="M288.57 249.914C286.581 249.914 284.674 249.124 283.267 247.717C281.86 246.311 281.07 244.403 281.07 242.414V234.2C281.07 232.211 281.86 230.303 283.267 228.897C284.674 227.49 286.581 226.7 288.57 226.7C290.559 226.7 292.467 227.49 293.874 228.897C295.28 230.303 296.07 232.211 296.07 234.2V242.419C296.069 244.407 295.278 246.314 293.872 247.719C292.465 249.125 290.559 249.914 288.57 249.914Z" fill="#4E5660"/>
<path d="M239.07 256.223C235.525 256.222 232.02 255.461 228.793 253.991C225.566 252.521 222.692 250.377 220.363 247.703C219.056 246.203 218.399 244.246 218.535 242.261C218.672 240.277 219.591 238.428 221.09 237.121C222.59 235.814 224.547 235.157 226.532 235.293C228.516 235.429 230.365 236.348 231.672 237.848C232.592 238.908 233.728 239.757 235.004 240.34C236.28 240.922 237.666 241.223 239.069 241.223C240.472 241.223 241.858 240.922 243.134 240.34C244.41 239.757 245.546 238.908 246.465 237.848C247.772 236.348 249.621 235.429 251.606 235.293C253.59 235.157 255.548 235.814 257.047 237.121C258.547 238.428 259.466 240.277 259.602 242.261C259.739 244.246 259.081 246.203 257.774 247.703C255.447 250.377 252.573 252.521 249.346 253.991C246.12 255.461 242.616 256.222 239.07 256.223Z" fill="#4E5660"/>
<path d="M316.909 296.215C316.909 298.288 316.294 300.315 315.142 302.038C313.99 303.762 312.352 305.105 310.437 305.898C308.521 306.691 306.414 306.898 304.38 306.493C302.347 306.088 300.48 305.09 299.014 303.623C297.548 302.157 296.55 300.289 296.146 298.256C295.742 296.223 295.95 294.115 296.744 292.2C297.538 290.285 298.882 288.648 300.605 287.496C302.329 286.345 304.356 285.731 306.429 285.731C307.806 285.731 309.169 286.002 310.441 286.529C311.713 287.056 312.868 287.828 313.841 288.802C314.815 289.775 315.587 290.931 316.113 292.203C316.639 293.475 316.91 294.838 316.909 296.215Z" fill="#DE5C6E"/>
<path d="M186.677 192C186.677 194.551 185.92 197.046 184.503 199.167C183.085 201.288 181.071 202.942 178.714 203.918C176.356 204.895 173.763 205.15 171.26 204.652C168.758 204.154 166.459 202.926 164.655 201.122C162.851 199.318 161.623 197.019 161.125 194.517C160.627 192.014 160.883 189.421 161.859 187.063C162.835 184.706 164.489 182.692 166.61 181.274C168.731 179.857 171.226 179.1 173.777 179.1C175.471 179.1 177.148 179.434 178.714 180.082C180.279 180.73 181.701 181.681 182.899 182.878C184.097 184.076 185.047 185.498 185.695 187.063C186.343 188.629 186.677 190.306 186.677 192Z" fill="#E3748E"/>
<path d="M328.243 326.3C328.243 327.803 327.797 329.273 326.962 330.522C326.127 331.772 324.94 332.746 323.551 333.322C322.163 333.897 320.635 334.047 319.16 333.754C317.686 333.461 316.332 332.737 315.269 331.674C314.206 330.611 313.482 329.257 313.189 327.783C312.896 326.308 313.046 324.78 313.621 323.392C314.197 322.003 315.171 320.816 316.421 319.981C317.67 319.146 319.14 318.7 320.643 318.7C322.659 318.7 324.592 319.501 326.017 320.926C327.442 322.351 328.243 324.284 328.243 326.3Z" fill="#DE5C6E"/>
<path d="M377.93 111.984L265.77 10.3C258.458 3.67053 248.94 -0.00146484 239.07 -0.00146484C229.2 -0.00146484 219.682 3.67053 212.37 10.3L100.211 111.984C96.9286 114.96 94.3028 118.588 92.5013 122.636C90.6998 126.684 89.7621 131.064 89.7482 135.494C89.7343 139.925 90.6444 144.31 92.4204 148.37C94.1964 152.429 96.7994 156.073 100.063 159.07C114.954 172.745 134.435 180.333 154.653 180.332C181.548 180.332 210.036 195.844 230.075 213.632C232.552 215.84 235.753 217.06 239.071 217.06C242.389 217.06 245.591 215.84 248.067 213.632C268.106 195.843 296.594 180.332 323.489 180.332C343.706 180.332 363.188 172.745 378.079 159.07C381.343 156.073 383.945 152.429 385.721 148.369C387.497 144.31 388.407 139.925 388.393 135.494C388.379 131.063 387.442 126.684 385.64 122.636C383.838 118.588 381.212 114.96 377.93 111.984Z" fill="#EDA1AB"/>
<path d="M208.523 13.7891L100.211 111.989C96.9286 114.965 94.3028 118.593 92.5013 122.641C90.6998 126.689 89.7621 131.069 89.7482 135.499C89.7343 139.93 90.6444 144.315 92.4204 148.375C94.1964 152.434 96.7994 156.078 100.063 159.075C114.954 172.75 134.435 180.338 154.653 180.337C181.548 180.337 210.036 195.849 230.075 213.637C232.552 215.845 235.753 217.065 239.071 217.065C242.389 217.065 245.591 215.845 248.067 213.637C248.493 213.258 248.926 212.883 249.367 212.504C202.379 170.723 191.719 67.3131 208.527 13.7931L208.523 13.7891Z" fill="#E68A97"/>
<path d="M291.784 130.766C290.302 130.765 288.853 130.324 287.621 129.5C286.389 128.676 285.429 127.505 284.862 126.135C284.294 124.766 284.146 123.259 284.435 121.805C284.724 120.351 285.437 119.015 286.484 117.966L300.084 104.366C301.491 102.959 303.398 102.169 305.388 102.168C307.377 102.168 309.285 102.958 310.691 104.364C312.098 105.77 312.889 107.678 312.889 109.667C312.89 111.656 312.1 113.564 310.693 114.971L297.093 128.571C296.397 129.269 295.569 129.822 294.658 130.198C293.747 130.575 292.77 130.768 291.784 130.766Z" fill="#E68A97"/>
<path d="M186.355 130.766C185.37 130.767 184.395 130.573 183.485 130.195C182.576 129.818 181.75 129.264 181.055 128.566L167.455 114.966C166.089 113.552 165.333 111.657 165.35 109.691C165.367 107.724 166.156 105.843 167.546 104.452C168.937 103.062 170.818 102.273 172.784 102.256C174.751 102.239 176.645 102.995 178.06 104.361L191.66 117.961C192.708 119.01 193.421 120.346 193.71 121.8C193.998 123.254 193.85 124.761 193.283 126.13C192.716 127.5 191.755 128.671 190.523 129.495C189.291 130.319 187.842 130.76 186.36 130.761L186.355 130.766Z" fill="#EDA1AB"/>
<path d="M239.07 103.66C237.081 103.66 235.174 102.87 233.767 101.463C232.36 100.057 231.57 98.1492 231.57 96.1601V75.5901C231.57 73.601 232.36 71.6933 233.767 70.2868C235.174 68.8803 237.081 68.0901 239.07 68.0901C241.059 68.0901 242.967 68.8803 244.374 70.2868C245.78 71.6933 246.57 73.601 246.57 75.5901V96.1561C246.571 97.1413 246.377 98.117 246.001 99.0274C245.624 99.9378 245.072 100.765 244.375 101.462C243.679 102.159 242.852 102.712 241.941 103.089C241.031 103.466 240.056 103.66 239.07 103.66Z" fill="#E68A97"/>
</svg>
