<svg width="513" height="512" viewBox="0 0 513 512" fill="none" xmlns="http://www.w3.org/2000/svg">
<path d="M472.098 73.16C472.098 80.9061 469.802 88.4784 465.499 94.9194C461.196 101.36 455.08 106.381 447.924 109.346C440.768 112.311 432.893 113.087 425.295 111.576C417.698 110.065 410.719 106.336 405.242 100.859C399.764 95.3815 396.034 88.4032 394.522 80.806C393.011 73.2088 393.786 65.334 396.75 58.1775C399.714 51.021 404.734 44.9042 411.175 40.6006C417.615 36.297 425.187 34 432.934 34C438.076 33.9997 443.169 35.0124 447.92 36.9803C452.672 38.9481 456.989 41.8325 460.626 45.4689C464.263 49.1052 467.147 53.4223 469.116 58.1735C471.084 62.9248 472.097 68.0172 472.098 73.16Z" fill="#BAE7FF"/>
<path d="M462.204 99.172C430.117 104.156 404.535 57 421.981 35.559C416.155 37.256 410.803 40.2838 406.347 44.4034C401.891 48.5231 398.454 53.6218 396.306 59.2974C394.159 64.973 393.359 71.0701 393.971 77.1075C394.583 83.1449 396.59 88.9574 399.833 94.0865C403.076 99.2155 407.467 103.521 412.659 106.662C417.851 109.804 423.702 111.696 429.75 112.189C435.798 112.682 441.878 111.763 447.511 109.504C453.143 107.245 458.173 103.708 462.204 99.172Z" fill="#8CD6FE"/>
<path d="M274.996 429.84C272.257 427.513 268.771 426.252 265.178 426.288C261.584 426.325 258.124 427.657 255.434 430.04C226.434 455.63 139.868 527.169 97.3559 509.122C67.8329 496.587 106.547 379.13 119.696 341.86C120.821 338.673 120.83 335.198 119.72 332.006C118.611 328.813 116.45 326.093 113.591 324.29C81.8409 304.259 -12.4361 241.19 1.37587 206.649C15.1339 172.262 119.724 171.2 154.876 171.833C158.151 171.894 161.354 170.874 163.991 168.931C166.628 166.989 168.552 164.232 169.466 161.087C179.736 125.732 213.935 17.521 249.38 11.474C295.107 3.674 331.415 110.81 342.548 147.88C343.567 151.284 345.769 154.213 348.756 156.138C351.743 158.063 355.319 158.858 358.841 158.38C396.185 153.29 503.15 141.68 511.013 174.29C522.126 220.38 437.255 297.962 408.431 322.724C405.838 324.95 404.089 327.999 403.477 331.36C402.864 334.722 403.426 338.192 405.068 341.189C423.388 374.65 475.268 477.322 438.619 505.232C401.981 533.125 306.047 456.3 274.996 429.84Z" fill="#8EE2CF"/>
<path d="M97.356 509.117C139.868 527.164 226.438 455.625 255.434 430.035C256.074 429.472 256.762 428.964 257.489 428.519C184.173 318.382 191.751 105.219 234.149 19.976C204.544 47.292 178.249 130.839 169.462 161.081C168.549 164.227 166.626 166.984 163.988 168.927C161.351 170.869 158.147 171.889 154.872 171.827C119.724 171.194 15.134 172.257 1.37196 206.643C-12.44 241.182 81.837 304.256 113.587 324.288C116.445 326.09 118.605 328.811 119.713 332.003C120.822 335.194 120.812 338.668 119.687 341.854C106.547 379.125 67.832 496.582 97.356 509.117Z" fill="#6FCE91"/>
<path d="M387.387 189.969C387.387 191.477 386.94 192.951 386.102 194.205C385.264 195.459 384.073 196.436 382.68 197.014C381.286 197.591 379.753 197.742 378.274 197.447C376.795 197.153 375.436 196.427 374.37 195.361C373.304 194.294 372.577 192.936 372.283 191.457C371.989 189.977 372.14 188.444 372.717 187.051C373.294 185.658 374.272 184.467 375.526 183.629C376.779 182.791 378.254 182.344 379.762 182.344C381.784 182.344 383.723 183.147 385.153 184.577C386.583 186.007 387.387 187.947 387.387 189.969Z" fill="#6FCE91"/>
<path d="M332.566 416.2C332.566 417.708 332.119 419.182 331.281 420.436C330.444 421.69 329.253 422.667 327.859 423.245C326.466 423.822 324.933 423.973 323.454 423.678C321.975 423.384 320.616 422.658 319.55 421.592C318.483 420.525 317.757 419.167 317.463 417.688C317.169 416.208 317.32 414.675 317.897 413.282C318.474 411.889 319.451 410.698 320.705 409.86C321.959 409.022 323.433 408.575 324.941 408.575C326.964 408.575 328.903 409.378 330.333 410.808C331.763 412.238 332.566 414.178 332.566 416.2Z" fill="#6FCE91"/>
<path d="M308.586 118.18C308.586 119.688 308.139 121.162 307.301 122.416C306.463 123.67 305.272 124.647 303.879 125.225C302.486 125.802 300.952 125.953 299.473 125.658C297.994 125.364 296.636 124.638 295.569 123.572C294.503 122.505 293.777 121.147 293.482 119.667C293.188 118.188 293.339 116.655 293.916 115.262C294.493 113.869 295.471 112.678 296.725 111.84C297.979 111.002 299.453 110.555 300.961 110.555C302.983 110.555 304.923 111.358 306.353 112.788C307.783 114.218 308.586 116.158 308.586 118.18Z" fill="#6FCE91"/>
<path d="M200.816 192.93C200.816 194.438 200.369 195.912 199.531 197.166C198.694 198.42 197.503 199.397 196.109 199.975C194.716 200.552 193.183 200.703 191.704 200.408C190.225 200.114 188.866 199.388 187.8 198.322C186.733 197.255 186.007 195.897 185.713 194.417C185.419 192.938 185.57 191.405 186.147 190.012C186.724 188.619 187.701 187.428 188.955 186.59C190.209 185.752 191.683 185.305 193.191 185.305C195.214 185.305 197.153 186.108 198.583 187.538C200.013 188.968 200.816 190.908 200.816 192.93Z" fill="#8EE2CF"/>
<path d="M105.104 274.652C105.104 276.16 104.656 277.634 103.818 278.888C102.981 280.142 101.79 281.119 100.396 281.697C99.0032 282.274 97.4701 282.425 95.991 282.13C94.5118 281.836 93.1532 281.11 92.0868 280.044C91.0205 278.977 90.2942 277.619 90 276.14C89.7058 274.66 89.8568 273.127 90.4339 271.734C91.0111 270.341 91.9884 269.15 93.2423 268.312C94.4962 267.474 95.9704 267.027 97.4785 267.027C99.5008 267.027 101.44 267.83 102.87 269.26C104.3 270.69 105.104 272.63 105.104 274.652Z" fill="#8EE2CF"/>
<path d="M161.904 377.711C161.904 379.219 161.457 380.693 160.619 381.947C159.781 383.201 158.591 384.178 157.197 384.756C155.804 385.333 154.271 385.484 152.792 385.189C151.313 384.895 149.954 384.169 148.888 383.103C147.821 382.036 147.095 380.678 146.801 379.199C146.507 377.719 146.658 376.186 147.235 374.793C147.812 373.4 148.789 372.209 150.043 371.371C151.297 370.533 152.771 370.086 154.279 370.086C156.302 370.086 158.241 370.889 159.671 372.319C161.101 373.749 161.904 375.689 161.904 377.711Z" fill="#8EE2CF"/>
<path d="M408.804 228.051C407.104 228.054 405.453 227.479 404.122 226.421C402.792 225.362 401.86 223.883 401.48 222.226C401.101 220.568 401.296 218.831 402.033 217.299C402.77 215.767 404.006 214.53 405.538 213.793L458.757 188.109C459.646 187.669 460.613 187.409 461.602 187.345C462.591 187.281 463.583 187.414 464.521 187.736C465.459 188.058 466.323 188.562 467.065 189.22C467.806 189.878 468.41 190.677 468.841 191.57C469.272 192.462 469.521 193.432 469.575 194.422C469.629 195.412 469.487 196.402 469.155 197.337C468.824 198.271 468.31 199.13 467.645 199.865C466.979 200.6 466.175 201.195 465.277 201.617L412.063 227.3C411.048 227.794 409.934 228.051 408.804 228.051Z" fill="#6FCE91"/>
<path d="M254.516 119.82C252.527 119.82 250.619 119.03 249.212 117.623C247.806 116.217 247.016 114.309 247.016 112.32V65.438C247.016 63.4489 247.806 61.5412 249.212 60.1347C250.619 58.7282 252.527 57.938 254.516 57.938C256.505 57.938 258.412 58.7282 259.819 60.1347C261.225 61.5412 262.016 63.4489 262.016 65.438V112.32C262.016 114.309 261.225 116.217 259.819 117.623C258.412 119.03 256.505 119.82 254.516 119.82Z" fill="#6FCE91"/>
<path d="M102.925 241.863C102.421 241.862 101.919 241.811 101.425 241.711L53.8032 232.039C52.838 231.843 51.9208 231.458 51.1042 230.908C50.2875 230.357 49.5873 229.651 49.0435 228.83C48.4997 228.009 48.123 227.088 47.9349 226.121C47.7468 225.155 47.751 224.16 47.9472 223.195C48.1434 222.23 48.5278 221.313 49.0784 220.496C49.629 219.679 50.3351 218.979 51.1564 218.435C51.9776 217.892 52.8979 217.515 53.8647 217.327C54.8316 217.139 55.826 217.143 56.7912 217.339L104.416 227.011C106.24 227.379 107.862 228.411 108.967 229.908C110.072 231.405 110.582 233.259 110.396 235.111C110.211 236.962 109.344 238.678 107.964 239.926C106.583 241.174 104.789 241.864 102.928 241.863H102.925Z" fill="#8EE2CF"/>
<path d="M131.938 470.316C130.524 470.315 129.14 469.915 127.945 469.162C126.749 468.409 125.79 467.334 125.179 466.06C124.568 464.786 124.329 463.365 124.49 461.961C124.651 460.557 125.206 459.228 126.09 458.125L161.813 413.605C163.057 412.053 164.867 411.06 166.845 410.843C168.822 410.626 170.805 411.204 172.356 412.448C173.908 413.693 174.901 415.503 175.118 417.481C175.335 419.458 174.757 421.44 173.513 422.992L137.794 467.512C137.09 468.389 136.199 469.096 135.185 469.582C134.172 470.067 133.061 470.318 131.938 470.316Z" fill="#8EE2CF"/>
<path d="M401.329 465.918C400.252 465.92 399.188 465.689 398.209 465.241C397.23 464.794 396.36 464.14 395.657 463.324L361.45 423.8C360.805 423.055 360.314 422.191 360.003 421.256C359.693 420.321 359.57 419.334 359.641 418.352C359.712 417.369 359.975 416.411 360.417 415.53C360.858 414.649 361.469 413.865 362.214 413.22C362.959 412.576 363.823 412.084 364.758 411.774C365.693 411.463 366.68 411.34 367.662 411.411C368.644 411.482 369.603 411.746 370.484 412.187C371.364 412.629 372.149 413.239 372.794 413.984L407.005 453.512C407.945 454.599 408.553 455.933 408.756 457.356C408.96 458.778 408.75 460.23 408.153 461.537C407.555 462.844 406.595 463.951 405.386 464.728C404.177 465.505 402.77 465.918 401.333 465.918H401.329Z" fill="#6FCE91"/>
<path d="M205.352 299.9C205.352 284.525 189.696 272.056 170.387 272.056C151.078 272.056 135.422 284.525 135.422 299.9C135.422 315.275 151.074 327.748 170.387 327.748C189.7 327.748 205.352 315.281 205.352 299.9Z" fill="white"/>
<path d="M394.871 299.9C394.871 284.525 379.215 272.056 359.906 272.056C340.597 272.056 324.941 284.525 324.941 299.9C324.941 315.275 340.594 327.75 359.904 327.75C379.214 327.75 394.871 315.281 394.871 299.9Z" fill="white"/>
<path d="M176.23 274.527C174.241 274.527 172.334 273.737 170.927 272.33C169.521 270.924 168.73 269.016 168.73 267.027V252.02C168.73 250.031 169.521 248.123 170.927 246.717C172.334 245.31 174.241 244.52 176.23 244.52C178.22 244.52 180.127 245.31 181.534 246.717C182.94 248.123 183.73 250.031 183.73 252.02V267.028C183.73 269.017 182.94 270.924 181.533 272.331C180.127 273.737 178.219 274.527 176.23 274.527Z" fill="#4E5660"/>
<path d="M293.335 278.512C293.335 261.09 280.714 259.453 265.144 259.453C249.574 259.453 236.957 261.09 236.957 278.512C236.957 295.934 249.578 310.055 265.145 310.055C280.712 310.055 293.335 295.934 293.335 278.512Z" fill="#4E5660"/>
<path d="M354.059 274.527C352.069 274.527 350.162 273.737 348.755 272.33C347.349 270.924 346.559 269.016 346.559 267.027V252.02C346.559 250.031 347.349 248.123 348.755 246.717C350.162 245.31 352.069 244.52 354.059 244.52C356.048 244.52 357.955 245.31 359.362 246.717C360.768 248.123 361.559 250.031 361.559 252.02V267.028C361.558 269.017 360.768 270.924 359.362 272.331C357.955 273.737 356.048 274.527 354.059 274.527Z" fill="#4E5660"/>
<path d="M127.566 48.461C127.566 58.045 124.724 67.4137 119.399 75.3824C114.074 83.3511 106.506 89.5619 97.6515 93.2295C88.7969 96.897 79.0537 97.8566 69.6538 95.9869C60.2539 94.1172 51.6196 89.5022 44.8425 82.7254C38.0654 75.9486 33.45 67.3144 31.5799 57.9146C29.7098 48.5148 30.669 38.7715 34.3362 29.9169C38.0034 21.0622 44.2139 13.4938 52.1824 8.16862C60.1509 2.84348 69.5194 0.00079137 79.1035 2.57989e-07C85.4677 -0.000656433 91.7698 1.25236 97.6498 3.6875C103.53 6.12263 108.872 9.69219 113.373 14.1923C117.873 18.6924 121.443 24.035 123.878 29.9149C126.314 35.7947 127.567 42.0967 127.566 48.461Z" fill="#BAE7FF"/>
<path d="M115.317 80.6481C75.6172 86.8161 43.9652 28.4681 65.5552 1.93311C58.3449 4.03149 51.721 7.77692 46.2062 12.8738C40.6914 17.9707 36.4367 24.2796 33.7778 31.3025C31.119 38.3254 30.1287 45.8702 30.8852 53.3414C31.6417 60.8126 34.1242 68.0057 38.1369 74.3531C42.1496 80.7005 47.5826 86.0284 54.0072 89.9164C60.4317 93.8044 67.6719 96.146 75.1565 96.7564C82.641 97.3669 90.165 96.2295 97.1347 93.434C104.104 90.6385 110.329 86.2614 115.317 80.6481Z" fill="#8CD6FE"/>
</svg>
