<svg width="512" height="512" viewBox="0 0 512 512" fill="none" xmlns="http://www.w3.org/2000/svg">
<path d="M441.389 112.668C441.389 53.559 388.412 20 323.057 20C228.657 20 180.241 84.73 180.241 140.82C180.241 177.105 195.534 205.336 219.507 227.574L284.046 292.117H75.361C57.7939 292.116 40.5894 287.118 25.756 277.707C23.0116 275.965 19.8198 275.058 16.5693 275.098C13.3189 275.138 10.1502 276.122 7.4492 277.931C4.7482 279.739 2.63152 282.295 1.357 285.285C0.0824879 288.275 -0.294842 291.572 0.27098 294.773L11.244 356.914C17.9143 394.693 37.6802 428.914 67.0713 453.57C96.4624 478.226 133.6 491.739 171.963 491.738H248.424C325.787 491.738 393.768 443.496 406.666 368.476C413.35 329.597 395.119 307.156 359.545 269.468L292.869 202.792C302.84 204.505 312.94 205.356 323.057 205.335C388.412 205.336 441.389 171.781 441.389 112.668Z" fill="#BAE7FF"/>
<path d="M243.291 292.117H75.361C57.7939 292.116 40.5894 287.118 25.756 277.707C23.0116 275.965 19.8198 275.058 16.5693 275.098C13.3189 275.138 10.1502 276.122 7.4492 277.931C4.7482 279.74 2.63152 282.295 1.357 285.285C0.0824879 288.276 -0.294842 291.572 0.27098 294.773L11.244 356.914C17.9143 394.693 37.6802 428.914 67.0713 453.57C96.4624 478.226 133.6 491.739 171.963 491.738H248.424C256.304 491.737 264.176 491.228 271.99 490.215C224.756 450.387 219.459 355.5 243.291 292.117Z" fill="#8CD6FE"/>
<path d="M349.717 149.59C349.717 129.356 329.117 112.949 303.705 112.949C278.293 112.949 257.698 129.355 257.698 149.59C257.698 169.825 278.298 186.235 303.71 186.235C329.122 186.235 349.717 169.828 349.717 149.59Z" fill="white"/>
<path d="M327.744 52.566C298.017 52.566 273.924 75.117 273.924 102.933C273.924 130.749 298.018 153.3 327.744 153.3C384.799 153.3 381.033 125.359 410.844 125.359C423.68 125.359 430.293 130.539 438.215 136.437C440.348 128.694 441.415 120.696 441.387 112.664C441.545 98.882 438.31 85.2726 431.969 73.035C425.248 75.7458 418.089 77.2061 410.844 77.344C382.916 77.348 361.889 52.566 327.744 52.566Z" fill="#4E5660"/>
<path d="M352.42 118.605C350.431 118.605 348.523 117.815 347.117 116.408C345.71 115.002 344.92 113.094 344.92 111.105C344.92 107.286 343.403 103.623 340.702 100.923C338.002 98.2221 334.339 96.705 330.52 96.705C326.701 96.705 323.038 98.2221 320.338 100.923C317.637 103.623 316.12 107.286 316.12 111.105C316.12 113.094 315.33 115.002 313.923 116.408C312.517 117.815 310.609 118.605 308.62 118.605C306.631 118.605 304.723 117.815 303.317 116.408C301.91 115.002 301.12 113.094 301.12 111.105C301.12 103.308 304.217 95.8296 309.731 90.316C315.245 84.8024 322.723 81.705 330.52 81.705C338.317 81.705 345.795 84.8024 351.309 90.316C356.822 95.8296 359.92 103.308 359.92 111.105C359.92 113.094 359.13 115.002 357.723 116.408C356.317 117.815 354.409 118.605 352.42 118.605Z" fill="white"/>
<path d="M483.924 181.184H405.545C401.132 181.184 396.777 180.176 392.813 178.236C388.849 176.295 385.381 173.475 382.674 169.989C379.968 166.503 378.093 162.445 377.195 158.125C376.296 153.804 376.397 149.335 377.49 145.059L382.974 123.59C384.665 116.974 388.511 111.108 393.905 106.92C399.299 102.731 405.934 100.457 412.763 100.457C416.46 100.457 420.118 101.208 423.517 102.663C426.915 104.119 429.982 106.25 432.533 108.926C437.383 114.017 443.217 118.07 449.68 120.839C456.143 123.608 463.101 125.036 470.133 125.035H483.926C491.372 125.035 498.512 127.993 503.777 133.258C509.042 138.523 512 145.663 512 153.109C512 160.555 509.042 167.695 503.777 172.96C498.512 178.225 491.372 181.183 483.926 181.183L483.924 181.184Z" fill="#F7EF87"/>
<path d="M416.549 138.566C415.564 138.566 414.589 138.372 413.68 137.995C412.77 137.617 411.944 137.064 411.249 136.366L405.549 130.666C404.142 129.259 403.352 127.351 403.352 125.362C403.352 123.372 404.142 121.464 405.549 120.057C406.956 118.65 408.864 117.86 410.854 117.86C412.843 117.86 414.751 118.65 416.158 120.057L421.858 125.757C422.906 126.806 423.619 128.142 423.908 129.596C424.197 131.05 424.048 132.557 423.481 133.926C422.914 135.296 421.954 136.467 420.721 137.291C419.489 138.115 418.04 138.556 416.558 138.557L416.549 138.566Z" fill="#EFD176"/>
<path d="M37.85 342.875C20.272 325.297 11.205 294.938 28.788 277.359C34.608 271.539 47.905 264.304 58.12 267.574C50.561 250.974 48.097 225.289 61.757 211.633C78.484 194.906 110.53 199.586 128.218 214.688C128.218 214.688 283.918 344.415 216.359 411.977C148.8 479.539 60.037 365.063 37.85 342.875Z" fill="#BAE7FF"/>
<path d="M106.271 323.23C105.286 323.231 104.311 323.036 103.401 322.659C102.492 322.281 101.666 321.728 100.971 321.03L52.814 272.879C51.4478 271.465 50.6918 269.57 50.7089 267.604C50.726 265.637 51.5148 263.756 52.9053 262.365C54.2959 260.975 56.177 260.186 58.1434 260.169C60.1099 260.152 62.0044 260.908 63.419 262.274L111.575 310.426C112.623 311.475 113.336 312.811 113.625 314.265C113.913 315.719 113.765 317.226 113.198 318.595C112.631 319.965 111.67 321.136 110.438 321.96C109.206 322.784 107.757 323.225 106.275 323.226L106.271 323.23Z" fill="#8CD6FE"/>
</svg>
