<svg width="512" height="512" viewBox="0 0 512 512" fill="none" xmlns="http://www.w3.org/2000/svg">
<path d="M129.187 288.5C100.019 288.5 76.3236 283.473 56.7456 273.137C30.3666 259.211 11.5856 235.672 0.925601 203.18C-0.570934 198.54 -0.16947 193.496 2.04222 189.152C4.2539 184.807 8.09587 181.515 12.7281 179.995C17.3603 178.475 22.406 178.851 26.7618 181.041C31.1176 183.23 34.4292 187.055 35.9726 191.68C49.7576 233.696 77.6366 251.618 129.192 251.618C134.083 251.618 138.774 253.561 142.233 257.02C145.692 260.479 147.635 265.17 147.635 270.061C147.635 274.953 145.692 279.644 142.233 283.103C138.774 286.562 134.083 288.505 129.192 288.505L129.187 288.5Z" fill="#E9901B"/>
<path d="M387.491 398.109C383.018 398.116 378.602 397.104 374.578 395.15C370.554 393.197 367.028 390.352 364.268 386.832C355.776 376.023 330.612 359.551 296.081 358.473C288.292 358.18 280.936 354.818 275.618 349.12C270.3 343.423 267.452 335.853 267.695 328.063C267.939 320.273 271.254 312.895 276.918 307.541C282.581 302.187 290.133 299.291 297.925 299.485C352.991 301.208 393.077 327.973 410.675 350.372C414.094 354.724 416.22 359.95 416.811 365.453C417.402 370.956 416.433 376.514 414.015 381.493C411.597 386.471 407.828 390.67 403.138 393.608C398.447 396.546 393.025 398.106 387.491 398.11V398.109Z" fill="#E9901B"/>
<path d="M359.654 411.6C348.954 392.252 334.854 375.881 321.115 362.815C333.799 351.575 342.763 336.742 346.817 320.287C350.87 303.831 349.821 286.532 343.81 270.687C337.798 254.842 327.107 241.2 313.159 231.575C299.21 221.95 282.663 216.796 265.715 216.799H164.298C148.373 216.797 132.779 221.348 119.355 229.916C105.931 238.484 95.2369 250.712 88.5332 265.158C81.8296 279.603 79.396 295.665 81.5196 311.448C83.6431 327.231 90.2351 342.078 100.518 354.238C90.9914 365.351 76.8184 376.281 56.5414 380.004C52.73 380.704 49.0937 382.147 45.8402 384.252C42.5867 386.357 39.7797 389.083 37.5794 392.273C35.3791 395.462 33.8286 399.054 33.0166 402.844C32.2045 406.633 32.1467 410.545 32.8464 414.356C33.5462 418.167 34.9898 421.804 37.0948 425.057C39.1999 428.311 41.9251 431.118 45.115 433.318C48.3049 435.518 51.8969 437.069 55.686 437.881C59.4751 438.693 63.387 438.751 67.1984 438.051C110.253 430.151 137.362 404.133 152.78 383.043C156.598 383.576 160.448 383.846 164.303 383.852H253.428C270.272 395.215 294.436 415.598 308.01 440.152C311.852 446.895 318.195 451.854 325.666 453.953C333.138 456.053 341.135 455.125 347.927 451.37C354.719 447.615 359.758 441.336 361.953 433.892C364.148 426.448 363.322 418.439 359.654 411.6Z" fill="#EEA849"/>
<path d="M111.361 235.719V310.242C111.361 312.231 112.152 314.139 113.558 315.545C114.965 316.952 116.872 317.742 118.861 317.742C120.85 317.742 122.758 316.952 124.165 315.545C125.571 314.139 126.361 312.231 126.361 310.242V225.918C121.025 228.638 115.996 231.924 111.361 235.719Z" fill="#4E5660"/>
<path d="M230.854 317.742C228.864 317.742 226.957 316.952 225.55 315.545C224.144 314.139 223.354 312.231 223.354 310.242V225.742C223.354 223.753 224.144 221.845 225.55 220.439C226.957 219.032 228.864 218.242 230.854 218.242C232.843 218.242 234.75 219.032 236.157 220.439C237.563 221.845 238.354 223.753 238.354 225.742V310.242C238.354 312.231 237.563 314.139 236.157 315.545C234.75 316.952 232.843 317.742 230.854 317.742Z" fill="#4E5660"/>
<path d="M174.857 336.48C172.868 336.48 170.961 335.69 169.554 334.283C168.148 332.877 167.357 330.969 167.357 328.98V225.742C167.357 223.753 168.148 221.845 169.554 220.439C170.961 219.032 172.868 218.242 174.857 218.242C176.847 218.242 178.754 219.032 180.161 220.439C181.567 221.845 182.357 223.753 182.357 225.742V328.98C182.357 330.969 181.567 332.877 180.161 334.283C178.754 335.69 176.847 336.48 174.857 336.48Z" fill="#4E5660"/>
<path d="M218.736 153.273H154.336C141.475 153.214 129.161 148.064 120.088 138.949C111.014 129.834 105.921 117.497 105.921 104.636C105.921 91.7744 111.015 79.4369 120.089 70.3223C129.163 61.2077 141.477 56.0581 154.338 56C171.417 56 187.797 62.7843 199.874 74.8606C211.951 86.9368 218.737 103.316 218.738 120.395L218.736 153.273Z" fill="#4E5660"/>
<path d="M206.866 152.121C193.183 79.047 143.999 72.391 114.081 77.344C109.123 84.6573 106.251 93.1829 105.773 102.005C105.295 110.828 107.23 119.614 111.368 127.42C115.507 135.226 121.694 141.757 129.265 146.312C136.835 150.867 145.504 153.274 154.339 153.274H207.062C206.991 152.887 206.94 152.52 206.866 152.121Z" fill="#FCF2D0"/>
<path d="M398.964 153.273H463.364C476.225 153.215 488.539 148.065 497.613 138.95C506.686 129.835 511.78 117.498 511.78 104.637C511.78 91.7754 506.686 79.4378 497.613 70.323C488.539 61.2082 476.225 56.0583 463.364 56C446.285 56 429.905 62.7843 417.828 74.8606C405.751 86.9368 398.965 103.316 398.964 120.395V153.273Z" fill="#4E5660"/>
<path d="M410.835 152.121C424.519 79.047 473.706 72.391 503.62 77.344C508.577 84.6573 511.449 93.1829 511.927 102.005C512.405 110.828 510.471 119.614 506.332 127.42C502.193 135.226 496.007 141.757 488.436 146.312C480.865 150.867 472.197 153.274 463.362 153.274H410.64C410.71 152.887 410.761 152.52 410.835 152.121Z" fill="#FCF2D0"/>
<path d="M453.717 181.738C453.717 118.176 434.678 66.6479 308.85 66.6479C183.022 66.6479 163.982 118.176 163.982 181.738C163.982 245.3 228.842 286.5 308.85 286.5C388.858 286.5 453.717 245.3 453.717 181.738Z" fill="#EEA849"/>
<path d="M305.139 286.473C216.893 245.523 221.611 127.1 249.098 71.7581C176.598 86.2581 163.981 130.016 163.981 181.738C163.982 244.316 226.846 285.219 305.139 286.473Z" fill="#E9901B"/>
<path d="M248.979 162.559C248.979 147.981 234.135 136.159 215.827 136.159C197.519 136.159 182.675 147.979 182.675 162.559C182.675 177.139 197.515 188.959 215.827 188.959C234.139 188.959 248.979 177.141 248.979 162.559Z" fill="white"/>
<path d="M435.03 162.559C435.03 147.981 420.186 136.159 401.874 136.159C383.562 136.159 368.722 147.979 368.722 162.559C368.722 177.139 383.566 188.959 401.874 188.959C420.182 188.959 435.03 177.141 435.03 162.559Z" fill="white"/>
<path d="M308.851 296.828C349.867 296.828 384.988 261.312 448.171 285.898C449.837 286.554 451.632 286.817 453.416 286.666C455.2 286.515 456.925 285.954 458.457 285.026C459.989 284.099 461.286 282.83 462.247 281.32C463.208 279.809 463.808 278.096 463.999 276.316C465.511 262.367 461.874 244.629 451.214 238.523C456.944 231.823 471.514 226.511 485.023 223.464C486.694 223.084 488.22 222.23 489.418 221.004C490.616 219.778 491.434 218.233 491.776 216.553C492.117 214.873 491.967 213.131 491.343 211.535C490.718 209.939 489.647 208.556 488.257 207.554C446.557 177.773 380.07 164.183 308.847 164.183C237.624 164.183 171.136 177.773 129.433 207.554C128.043 208.557 126.972 209.939 126.348 211.535C125.724 213.131 125.573 214.873 125.915 216.553C126.256 218.232 127.075 219.777 128.272 221.003C129.47 222.229 130.996 223.084 132.667 223.464C146.179 226.511 160.749 231.819 166.48 238.523C155.82 244.628 152.18 262.367 153.695 276.316C153.885 278.097 154.485 279.81 155.446 281.321C156.407 282.832 157.705 284.101 159.237 285.028C160.77 285.956 162.495 286.517 164.28 286.668C166.065 286.819 167.86 286.555 169.527 285.898C232.714 261.313 267.835 296.828 308.851 296.828Z" fill="#FCF2D0"/>
<path d="M232.057 170.012C191.412 176.598 155.557 188.899 129.436 207.551C128.047 208.554 126.976 209.937 126.353 211.534C125.729 213.131 125.579 214.873 125.921 216.553C126.263 218.232 127.082 219.778 128.279 221.004C129.477 222.23 131.003 223.084 132.674 223.465C146.186 226.508 160.752 231.82 166.483 238.524C155.823 244.629 152.183 262.368 153.698 276.317C153.889 278.098 154.488 279.811 155.45 281.322C156.411 282.833 157.709 284.102 159.241 285.029C160.773 285.957 162.499 286.518 164.284 286.669C166.069 286.819 167.864 286.556 169.53 285.899C232.714 261.313 267.83 296.829 308.85 296.829C315.184 296.77 321.492 296.028 327.666 294.614C261.951 276.848 236.111 223.242 232.057 170.012Z" fill="#FAE0BD"/>
<path d="M235.146 143.723C233.157 143.723 231.25 142.933 229.843 141.526C228.437 140.12 227.646 138.212 227.646 136.223V124.516C227.646 122.527 228.437 120.619 229.843 119.213C231.25 117.806 233.157 117.016 235.146 117.016C237.136 117.016 239.043 117.806 240.45 119.213C241.856 120.619 242.646 122.527 242.646 124.516V136.223C242.646 138.212 241.856 140.12 240.45 141.526C239.043 142.933 237.136 143.723 235.146 143.723Z" fill="#4E5660"/>
<path d="M382.554 143.723C380.565 143.723 378.657 142.933 377.25 141.526C375.844 140.12 375.054 138.212 375.054 136.223V124.516C375.054 122.527 375.844 120.619 377.25 119.213C378.657 117.806 380.565 117.016 382.554 117.016C384.543 117.016 386.451 117.806 387.857 119.213C389.264 120.619 390.054 122.527 390.054 124.516V136.223C390.054 138.212 389.264 140.12 387.857 141.526C386.451 142.933 384.543 143.723 382.554 143.723Z" fill="#4E5660"/>
<path d="M308.851 249.922C304.536 249.921 300.272 248.995 296.346 247.207C292.419 245.418 288.922 242.809 286.089 239.555C285.442 238.812 284.947 237.95 284.634 237.016C284.32 236.082 284.193 235.096 284.261 234.113C284.328 233.13 284.589 232.171 285.027 231.289C285.466 230.407 286.074 229.62 286.816 228.972C287.559 228.325 288.422 227.831 289.355 227.517C290.289 227.204 291.276 227.077 292.258 227.144C293.241 227.212 294.201 227.472 295.083 227.911C295.965 228.349 296.752 228.957 297.399 229.7C298.823 231.339 300.582 232.654 302.558 233.555C304.534 234.456 306.68 234.922 308.852 234.922C311.023 234.922 313.17 234.456 315.145 233.555C317.121 232.654 318.881 231.339 320.305 229.7C321.612 228.2 323.461 227.281 325.445 227.145C327.43 227.009 329.387 227.666 330.887 228.973C332.386 230.28 333.306 232.129 333.442 234.113C333.578 236.098 332.921 238.055 331.614 239.555C328.781 242.81 325.283 245.419 321.357 247.207C317.43 248.996 313.166 249.921 308.851 249.922Z" fill="#4E5660"/>
<path d="M326.119 164.781C314.798 161.82 302.906 161.82 291.584 164.781C286.894 166.007 282.809 168.893 280.084 172.902C279.22 174.173 278.645 175.618 278.4 177.136C278.155 178.653 278.246 180.206 278.667 181.684C279.088 183.162 279.829 184.53 280.836 185.691C281.844 186.852 283.094 187.777 284.498 188.402L301.088 195.781C303.532 196.867 306.176 197.427 308.85 197.427C311.524 197.427 314.168 196.867 316.611 195.781L333.198 188.4C334.603 187.776 335.854 186.851 336.862 185.69C337.87 184.529 338.61 183.161 339.032 181.683C339.453 180.205 339.545 178.652 339.3 177.134C339.056 175.617 338.481 174.171 337.616 172.9C334.891 168.893 330.807 166.009 326.119 164.781Z" fill="#4E5660"/>
<path d="M308.851 66.6479C306.3 66.6479 303.812 66.6749 301.351 66.7179V104.637C301.351 106.626 302.141 108.534 303.547 109.94C304.954 111.347 306.861 112.137 308.851 112.137C310.84 112.137 312.747 111.347 314.154 109.94C315.56 108.534 316.351 106.626 316.351 104.637V66.7189C313.89 66.6759 311.399 66.6479 308.851 66.6479Z" fill="#4E5660"/>
<path d="M263.175 88.4179C263.175 90.407 263.965 92.3147 265.372 93.7212C266.778 95.1277 268.686 95.9179 270.675 95.9179C272.664 95.9179 274.572 95.1277 275.978 93.7212C277.385 92.3147 278.175 90.407 278.175 88.4179V68.5119C278.175 68.2811 278.163 68.0505 278.14 67.8209C272.925 68.2429 267.937 68.7763 263.175 69.4209V88.4179Z" fill="#4E5660"/>
<path d="M339.561 67.82C339.541 68.05 339.526 68.277 339.526 68.511V88.418C339.526 90.4071 340.317 92.3148 341.723 93.7213C343.13 95.1278 345.037 95.918 347.026 95.918C349.015 95.918 350.923 95.1278 352.33 93.7213C353.736 92.3148 354.526 90.4071 354.526 88.418V69.418C349.764 68.7733 344.776 68.24 339.561 67.818V67.82Z" fill="#4E5660"/>
<path d="M98.1985 427.129L85.8695 407.094C84.8087 405.439 83.1408 404.267 81.2246 403.83C79.3085 403.393 77.2972 403.725 75.6235 404.755C73.9499 405.786 72.7476 407.432 72.2754 409.34C71.8032 411.248 72.0987 413.265 73.0985 414.957L84.5985 433.641C89.4018 432.073 94.1097 430.228 98.6985 428.113C98.5554 427.774 98.3883 427.445 98.1985 427.129Z" fill="#4E5660"/>
<path d="M359.654 411.6C357.509 407.721 355.224 403.967 352.838 400.334L326.166 415.557C325.299 416.038 324.535 416.687 323.92 417.466C323.304 418.245 322.85 419.138 322.582 420.094C322.315 421.05 322.24 422.049 322.361 423.034C322.483 424.02 322.799 424.971 323.291 425.833C323.783 426.695 324.441 427.451 325.227 428.056C326.013 428.662 326.912 429.106 327.871 429.362C328.83 429.618 329.83 429.681 330.814 429.547C331.797 429.414 332.744 429.086 333.6 428.584L360.491 413.236C360.228 412.684 359.955 412.137 359.654 411.6Z" fill="#4E5660"/>
<path d="M105.611 377.852C105.043 377.034 104.318 376.337 103.477 375.802C102.637 375.267 101.698 374.905 100.716 374.737C99.7343 374.569 98.7288 374.599 97.7583 374.823C96.7879 375.048 95.8719 375.464 95.064 376.047C94.256 376.63 93.5722 377.367 93.0526 378.217C92.5329 379.067 92.1877 380.012 92.0372 380.997C91.8868 381.982 91.934 382.986 92.1761 383.953C92.4182 384.919 92.8504 385.827 93.4474 386.625L116.287 418.289C120.455 415.518 124.465 412.517 128.298 409.3L105.611 377.852Z" fill="#4E5660"/>
<path d="M346.799 391.676C343.756 387.563 340.599 383.629 337.369 379.876L316.717 391.587C315.86 392.073 315.107 392.723 314.501 393.5C313.895 394.276 313.448 395.165 313.186 396.115C312.656 398.032 312.91 400.082 313.891 401.812C314.872 403.543 316.501 404.813 318.419 405.343C320.336 405.873 322.386 405.619 324.117 404.638L345.933 392.263C346.235 392.089 346.525 391.893 346.799 391.676Z" fill="#4E5660"/>
<path d="M396.808 336.074C396.726 336.164 396.64 336.246 396.562 336.34L382.069 353.8C380.828 355.333 380.241 357.294 380.436 359.257C380.631 361.22 381.591 363.027 383.108 364.287C384.626 365.547 386.578 366.159 388.544 365.99C390.509 365.82 392.328 364.883 393.608 363.382L407.53 346.609C404.201 342.856 400.618 339.336 396.808 336.074Z" fill="#4E5660"/>
<path d="M372.226 319.219L358.917 337.446C357.744 339.053 357.258 341.06 357.564 343.025C357.871 344.991 358.946 346.754 360.553 347.927C362.16 349.099 364.167 349.586 366.132 349.279C368.098 348.972 369.861 347.897 371.034 346.29L384.819 327.407C384.905 327.294 384.975 327.173 385.049 327.052C380.909 324.227 376.629 321.613 372.226 319.219Z" fill="#4E5660"/>
</svg>
