<svg width="512" height="512" viewBox="0 0 512 512" fill="none" xmlns="http://www.w3.org/2000/svg">
<path d="M83.4721 328.605C82.4873 328.605 81.5122 328.411 80.6027 328.033C79.6932 327.656 78.8672 327.102 78.1721 326.405C69.4982 317.749 57.7447 312.887 45.4906 312.887C33.2365 312.887 21.4829 317.749 12.8091 326.405C11.4027 327.812 9.49511 328.603 7.50582 328.603C5.51653 328.604 3.60853 327.814 2.20155 326.407C0.79458 325.001 0.00388704 323.094 0.00341818 321.104C0.00294932 319.115 0.792743 317.207 2.19905 315.8C13.6894 304.335 29.2583 297.896 45.4901 297.896C61.7218 297.896 77.2907 304.335 88.7811 315.8C89.8286 316.849 90.5419 318.185 90.8307 319.639C91.1195 321.093 90.971 322.6 90.4039 323.969C89.8368 325.339 88.8765 326.51 87.6444 327.334C86.4122 328.158 84.9635 328.599 83.4811 328.6L83.4721 328.605Z" fill="#8EE2CF"/>
<path d="M347.741 409.7H409.229C412.551 409.7 415.737 408.38 418.087 406.031C420.436 403.681 421.756 400.495 421.756 397.173V391.173C421.756 374.966 417.452 359.05 409.283 345.052L404.373 336.638C401.979 332.535 398.551 329.13 394.432 326.764C390.312 324.398 385.644 323.154 380.893 323.154H361.565C357.87 323.154 354.214 323.908 350.82 325.368C347.426 326.829 344.365 328.966 341.825 331.649C339.284 334.331 337.317 337.504 336.043 340.972C334.77 344.441 334.216 348.133 334.417 351.822L334.87 360.15C335.101 364.333 335.215 368.52 335.214 372.709V397.17C335.214 398.815 335.538 400.445 336.167 401.965C336.796 403.485 337.719 404.866 338.882 406.03C340.046 407.193 341.427 408.116 342.947 408.746C344.467 409.376 346.096 409.7 347.741 409.7Z" fill="#8EE2CF"/>
<path d="M317.335 362.789H110.46C98.9246 362.789 87.5891 359.778 77.5745 354.053C67.5599 348.328 59.2132 340.088 53.36 330.148L37.569 303.328H390.226L374.433 330.148C368.58 340.088 360.233 348.327 350.219 354.052C340.205 359.777 328.87 362.788 317.335 362.789Z" fill="#FAE0BD"/>
<path d="M390.226 303.328C390.226 256.563 371.649 211.713 338.581 178.645C305.513 145.577 260.663 127 213.898 127C167.133 127 122.283 145.577 89.2153 178.645C56.1474 211.713 37.5701 256.563 37.5701 303.328H390.226Z" fill="#79CE6F"/>
<path d="M390.226 303.328C390.226 256.563 371.649 211.713 338.581 178.645C305.513 145.577 260.663 127 213.898 127C167.133 127 122.283 145.577 89.2153 178.645C56.1474 211.713 37.5701 256.563 37.5701 303.328H390.226Z" fill="#79CE6F"/>
<path d="M208.085 127.105C162.352 128.612 118.996 147.838 87.1776 180.722C55.359 213.605 37.5699 257.57 37.569 303.328H259.132C201.437 267.512 194.299 172.793 208.085 127.105Z" fill="#4DC176"/>
<path d="M105.558 282.039C106.385 282.574 107.31 282.94 108.279 283.117C109.248 283.294 110.243 283.278 111.206 283.07C112.168 282.862 113.081 282.466 113.891 281.905C114.701 281.344 115.392 280.629 115.925 279.801L166.585 201.219H235.448L286.108 279.801C286.636 280.642 287.325 281.369 288.136 281.941C288.947 282.514 289.864 282.919 290.833 283.135C291.802 283.35 292.804 283.371 293.781 283.196C294.758 283.021 295.691 282.654 296.525 282.116C297.359 281.578 298.078 280.88 298.64 280.062C299.203 279.244 299.597 278.323 299.801 277.351C300.004 276.38 300.013 275.377 299.826 274.403C299.639 273.428 299.261 272.5 298.713 271.672L248.319 193.5L279.444 139.594C274.741 137.711 269.941 136.028 265.044 134.543L235.206 186.219H166.827L141.569 142.473C136.987 144.536 132.514 146.788 128.151 149.231L153.714 193.5L103.319 271.672C102.241 273.344 101.872 275.375 102.292 277.319C102.712 279.263 103.886 280.961 105.558 282.039Z" fill="#4E5660"/>
<path d="M388.354 263.469H39.4401C33.8823 263.469 28.4396 265.052 23.7487 268.033C19.0578 271.014 15.3129 275.269 12.9521 280.3C11.7968 282.764 11.2822 285.479 11.4558 288.195C11.6295 290.91 12.4858 293.538 13.9455 295.834C15.4051 298.131 17.4209 300.022 19.8059 301.332C22.1909 302.642 24.868 303.328 27.5891 303.328H400.206C402.927 303.328 405.604 302.641 407.989 301.331C410.373 300.021 412.389 298.13 413.848 295.834C415.307 293.537 416.163 290.909 416.337 288.194C416.51 285.479 415.995 282.763 414.839 280.3C412.479 275.268 408.735 271.013 404.045 268.032C399.354 265.051 393.912 263.469 388.354 263.469Z" fill="#79CE6F"/>
<path d="M351.933 215.418L346.163 238.518C344.854 243.76 341.83 248.414 337.572 251.739C333.314 255.065 328.066 256.871 322.663 256.87H316.917C305.573 256.87 294.582 260.82 285.833 268.042C277.084 275.263 271.123 285.305 268.972 296.444C268.185 300.519 268.308 304.718 269.333 308.74C270.359 312.762 272.26 316.508 274.902 319.709C277.544 322.91 280.861 325.488 284.616 327.257C288.37 329.027 292.469 329.944 296.62 329.944H418.858C432.225 329.944 445.435 327.066 457.591 321.506C469.747 315.946 480.563 307.834 489.304 297.721C498.046 287.609 504.508 275.733 508.252 262.901C511.995 250.069 512.932 236.581 510.999 223.355C508.283 204.752 499.193 187.669 485.282 175.023C471.372 162.377 453.502 154.951 434.726 154.014C415.949 153.077 397.43 158.687 382.329 169.886C367.229 181.085 356.484 197.178 351.929 215.418H351.933Z" fill="#8EE2CF"/>
<path d="M331.909 281.766C331.909 283.262 331.465 284.725 330.634 285.969C329.803 287.214 328.621 288.183 327.238 288.756C325.856 289.329 324.335 289.479 322.867 289.187C321.399 288.895 320.051 288.174 318.993 287.116C317.935 286.058 317.214 284.71 316.922 283.242C316.63 281.774 316.78 280.253 317.353 278.871C317.926 277.488 318.895 276.306 320.14 275.475C321.384 274.644 322.847 274.2 324.343 274.2C325.337 274.2 326.321 274.395 327.239 274.776C328.157 275.156 328.991 275.713 329.693 276.416C330.396 277.118 330.953 277.952 331.333 278.87C331.714 279.788 331.909 280.772 331.909 281.766Z" fill="#6FCE91"/>
<path d="M309.899 304.1C309.899 305.597 309.455 307.06 308.623 308.304C307.791 309.548 306.609 310.518 305.226 311.09C303.844 311.663 302.322 311.813 300.854 311.521C299.386 311.228 298.038 310.508 296.98 309.449C295.921 308.391 295.201 307.043 294.909 305.575C294.617 304.107 294.766 302.586 295.339 301.203C295.911 299.82 296.881 298.638 298.125 297.806C299.37 296.975 300.832 296.53 302.329 296.53C304.337 296.53 306.262 297.328 307.682 298.748C309.101 300.167 309.899 302.092 309.899 304.1Z" fill="#6FCE91"/>
<path d="M449.956 176.645C449.956 178.141 449.512 179.604 448.681 180.848C447.85 182.093 446.668 183.062 445.285 183.635C443.903 184.208 442.382 184.358 440.914 184.066C439.446 183.774 438.098 183.053 437.04 181.995C435.982 180.937 435.261 179.589 434.969 178.121C434.677 176.653 434.827 175.132 435.4 173.75C435.973 172.367 436.942 171.185 438.187 170.354C439.431 169.523 440.894 169.079 442.39 169.079C443.384 169.079 444.368 169.274 445.286 169.655C446.204 170.035 447.038 170.592 447.74 171.295C448.443 171.997 449 172.831 449.38 173.749C449.761 174.667 449.956 175.651 449.956 176.645Z" fill="#6FCE91"/>
<path d="M232.472 409.7H293.96C297.282 409.7 300.468 408.38 302.818 406.031C305.167 403.681 306.487 400.495 306.487 397.173V391.173C306.487 374.966 302.183 359.05 294.014 345.052L289.104 336.638C286.709 332.535 283.28 329.131 279.16 326.765C275.04 324.399 270.371 323.154 265.62 323.154H246.299C242.604 323.154 238.948 323.907 235.553 325.367C232.159 326.828 229.098 328.964 226.557 331.647C224.017 334.33 222.049 337.503 220.776 340.972C219.503 344.441 218.95 348.132 219.151 351.822L219.604 360.15C219.831 364.333 219.945 368.52 219.948 372.709V397.17C219.947 398.815 220.27 400.445 220.899 401.965C221.528 403.485 222.451 404.866 223.614 406.03C224.777 407.194 226.158 408.117 227.678 408.746C229.198 409.376 230.827 409.7 232.472 409.7Z" fill="#8EE2CF"/>
<path d="M171.144 303.328H186.144V362.789H171.144V303.328Z" fill="#F3BE77"/>
<path d="M394.987 237.258C394.987 228.074 385.643 220.633 374.116 220.633C362.589 220.633 353.241 228.074 353.241 237.258C353.241 246.442 362.589 253.879 374.116 253.879C385.643 253.879 394.987 246.438 394.987 237.258Z" fill="white"/>
<path d="M508.128 237.258C508.128 228.074 498.78 220.633 487.253 220.633C475.726 220.633 466.382 228.074 466.382 237.258C466.382 246.442 475.726 253.879 487.253 253.879C498.78 253.879 508.128 246.438 508.128 237.258Z" fill="white"/>
<path d="M386.28 228.176C384.291 228.176 382.383 227.386 380.977 225.979C379.57 224.573 378.78 222.665 378.78 220.676V213.3C378.78 211.311 379.57 209.403 380.977 207.997C382.383 206.59 384.291 205.8 386.28 205.8C388.269 205.8 390.177 206.59 391.583 207.997C392.99 209.403 393.78 211.311 393.78 213.3V220.671C393.781 221.656 393.587 222.632 393.211 223.543C392.834 224.453 392.282 225.281 391.585 225.978C390.889 226.675 390.062 227.227 389.151 227.605C388.241 227.982 387.265 228.176 386.28 228.176Z" fill="#4E5660"/>
<path d="M475.089 228.176C473.1 228.176 471.192 227.386 469.786 225.979C468.379 224.573 467.589 222.665 467.589 220.676V213.3C467.589 211.311 468.379 209.403 469.786 207.997C471.192 206.59 473.1 205.8 475.089 205.8C477.078 205.8 478.986 206.59 480.392 207.997C481.799 209.403 482.589 211.311 482.589 213.3V220.671C482.59 221.656 482.396 222.632 482.02 223.543C481.643 224.453 481.091 225.281 480.394 225.978C479.698 226.675 478.871 227.227 477.96 227.605C477.05 227.982 476.074 228.176 475.089 228.176Z" fill="#4E5660"/>
<path d="M430.687 233.832C427.396 233.832 424.144 233.127 421.149 231.764C418.154 230.402 415.486 228.413 413.324 225.932C412.017 224.432 411.359 222.475 411.495 220.49C411.63 218.505 412.549 216.655 414.049 215.348C415.549 214.041 417.506 213.383 419.491 213.519C421.476 213.654 423.326 214.573 424.633 216.073C425.385 216.94 426.315 217.635 427.359 218.111C428.403 218.588 429.538 218.834 430.686 218.834C431.833 218.834 432.968 218.588 434.012 218.111C435.056 217.635 435.986 216.94 436.738 216.073C438.045 214.573 439.895 213.654 441.88 213.519C443.865 213.383 445.822 214.041 447.322 215.348C448.822 216.655 449.741 218.505 449.877 220.49C450.013 222.475 449.354 224.432 448.047 225.932C445.886 228.413 443.218 230.401 440.223 231.764C437.229 233.127 433.977 233.832 430.687 233.832Z" fill="#4E5660"/>
<path d="M269.952 409.7H293.96C297.282 409.7 300.468 408.38 302.818 406.031C305.167 403.681 306.487 400.495 306.487 397.173V391.173C306.483 385.71 305.99 380.259 305.014 374.884H292.114C289.204 374.884 286.323 375.456 283.634 376.57C280.946 377.683 278.503 379.315 276.445 381.372C274.387 383.43 272.755 385.872 271.641 388.561C270.527 391.249 269.954 394.13 269.954 397.04L269.952 409.7Z" fill="#6FCE91"/>
<path d="M68.519 409.7H130.007C131.652 409.7 133.282 409.376 134.802 408.747C136.322 408.118 137.703 407.195 138.867 406.032C140.031 404.869 140.954 403.488 141.584 401.968C142.213 400.448 142.538 398.818 142.538 397.173V391.173C142.538 374.966 138.233 359.049 130.061 345.052L125.151 336.638C122.757 332.535 119.329 329.13 115.21 326.764C111.09 324.398 106.422 323.154 101.671 323.154H82.347C78.6523 323.155 74.9965 323.908 71.6027 325.368C68.2089 326.829 65.1483 328.966 62.6078 331.648C60.0672 334.331 58.1 337.503 56.8262 340.971C55.5524 344.439 54.9988 348.131 55.199 351.82L55.656 360.148C55.8827 364.331 55.996 368.518 55.996 372.707V397.168C55.995 400.491 57.3137 403.677 59.6622 406.028C62.0107 408.378 65.1966 409.699 68.519 409.7Z" fill="#8EE2CF"/>
<path d="M105.999 409.7H129.999C131.644 409.7 133.274 409.376 134.794 408.747C136.314 408.118 137.695 407.195 138.859 406.032C140.023 404.869 140.946 403.488 141.576 401.968C142.205 400.448 142.53 398.818 142.53 397.173V391.173C142.525 385.71 142.031 380.259 141.053 374.884H128.153C125.244 374.884 122.363 375.457 119.675 376.57C116.987 377.684 114.545 379.316 112.487 381.373C110.43 383.43 108.798 385.873 107.685 388.561C106.572 391.249 105.999 394.13 105.999 397.039V409.7Z" fill="#6FCE91"/>
<path d="M385.226 409.7H409.226C412.548 409.7 415.734 408.38 418.084 406.031C420.433 403.681 421.753 400.495 421.753 397.173V391.173C421.749 385.71 421.256 380.259 420.28 374.884H407.38C404.47 374.884 401.589 375.457 398.901 376.57C396.213 377.683 393.77 379.315 391.713 381.373C389.655 383.43 388.023 385.873 386.91 388.561C385.797 391.249 385.224 394.13 385.224 397.04L385.226 409.7Z" fill="#6FCE91"/>
<path d="M167.565 263.469H39.4401C33.8823 263.469 28.4396 265.052 23.7487 268.033C19.0578 271.014 15.3129 275.269 12.9521 280.3C11.7968 282.764 11.2822 285.479 11.4558 288.195C11.6295 290.91 12.4858 293.538 13.9455 295.834C15.4051 298.131 17.4209 300.022 19.8059 301.332C22.1909 302.642 24.868 303.328 27.5891 303.328H175.714C159.394 294.469 156.862 275.125 167.565 263.469Z" fill="#4DC176"/>
</svg>
