<svg width="512" height="512" viewBox="0 0 512 512" fill="none" xmlns="http://www.w3.org/2000/svg">
<path d="M505.066 399.367C495.885 390.177 484.562 383.418 472.116 379.697C459.671 375.976 446.495 375.412 433.777 378.055C436.421 365.337 435.858 352.161 432.137 339.715C428.417 327.269 421.656 315.946 412.465 306.766C408.025 302.327 402.004 299.834 395.727 299.834C389.449 299.834 383.428 302.327 378.988 306.766C369.559 316.187 362.693 327.86 359.038 340.678C355.383 353.496 355.062 367.035 358.105 380.012C358.313 380.915 358.334 381.852 358.167 382.763C358 383.675 357.649 384.543 357.134 385.314C356.619 386.085 355.952 386.743 355.174 387.246C354.396 387.75 353.524 388.09 352.61 388.244C351.696 388.398 350.76 388.364 349.859 388.143C348.959 387.922 348.113 387.52 347.374 386.96C346.635 386.401 346.018 385.696 345.562 384.89C345.105 384.083 344.818 383.192 344.718 382.27L320.318 144.215C317.866 120.298 306.629 98.141 288.783 82.0308C270.936 65.9207 247.749 57.0028 223.706 57.0028C199.664 57.0028 176.476 65.9207 158.63 82.0308C140.784 98.141 129.547 120.298 127.095 144.215L102.466 384.445C101.543 393.456 102.521 402.56 105.337 411.17C108.153 419.779 112.744 427.702 118.814 434.425C124.883 441.149 132.296 446.524 140.573 450.204C148.851 453.883 157.808 455.784 166.866 455.785H449.691C459.977 455.797 470.165 453.777 479.668 449.84C489.171 445.903 497.802 440.127 505.066 432.844C507.265 430.646 509.009 428.037 510.199 425.165C511.388 422.293 512.001 419.214 512.001 416.106C512.001 412.997 511.388 409.918 510.199 407.046C509.009 404.174 507.265 401.565 505.066 399.367Z" fill="#E1B89A"/>
<path d="M505.066 399.367C495.885 390.177 484.562 383.418 472.116 379.697C459.671 375.976 446.495 375.412 433.777 378.055C436.421 365.337 435.858 352.161 432.137 339.715C428.417 327.269 421.656 315.946 412.465 306.766C408.025 302.327 402.004 299.834 395.727 299.834C389.449 299.834 383.428 302.327 378.988 306.766C369.559 316.187 362.693 327.86 359.038 340.678C355.383 353.496 355.062 367.035 358.105 380.012C358.313 380.915 358.334 381.852 358.167 382.763C358 383.675 357.649 384.543 357.134 385.314C356.619 386.085 355.952 386.743 355.174 387.246C354.396 387.75 353.524 388.09 352.61 388.244C351.696 388.398 350.76 388.364 349.859 388.143C348.959 387.922 348.113 387.52 347.374 386.96C346.635 386.401 346.018 385.696 345.562 384.89C345.105 384.083 344.818 383.192 344.718 382.27L320.318 144.215C317.866 120.298 306.629 98.141 288.783 82.0308C270.936 65.9207 247.749 57.0028 223.706 57.0028C199.664 57.0028 176.476 65.9207 158.63 82.0308C140.784 98.141 129.547 120.298 127.095 144.215L102.466 384.445C101.543 393.456 102.521 402.56 105.337 411.17C108.153 419.779 112.744 427.702 118.814 434.425C124.883 441.149 132.296 446.524 140.573 450.204C148.851 453.883 157.808 455.784 166.866 455.785H449.691C459.977 455.797 470.165 453.777 479.668 449.84C489.171 445.903 497.802 440.127 505.066 432.844C507.265 430.646 509.009 428.037 510.199 425.165C511.388 422.293 512.001 419.214 512.001 416.106C512.001 412.997 511.388 409.918 510.199 407.046C509.009 404.174 507.265 401.565 505.066 399.367Z" fill="#E1B89A"/>
<path d="M202.142 59.4301C182.338 63.9408 164.447 74.5465 150.985 89.7552C137.523 104.964 129.168 124.01 127.095 144.215L102.466 384.445C101.543 393.456 102.521 402.56 105.337 411.17C108.153 419.779 112.744 427.702 118.814 434.425C124.883 441.149 132.296 446.524 140.573 450.204C148.851 453.883 157.808 455.784 166.866 455.785H291.974C197.165 385.426 161.56 158.485 202.142 59.4301Z" fill="#D2996F"/>
<path d="M185 138.652C185 128.695 174.867 120.629 162.367 120.629C149.867 120.629 139.734 128.7 139.734 138.652C139.734 148.604 149.867 156.675 162.367 156.675C174.867 156.675 185 148.605 185 138.652Z" fill="white"/>
<path d="M307.672 138.652C307.672 128.695 297.539 120.629 285.039 120.629C272.539 120.629 262.406 128.7 262.406 138.652C262.406 148.604 272.539 156.675 285.039 156.675C297.539 156.675 307.672 148.605 307.672 138.652Z" fill="white"/>
<path d="M186.328 126.539C184.339 126.539 182.431 125.749 181.025 124.342C179.618 122.936 178.828 121.028 178.828 119.039C178.828 118.171 178.483 117.339 177.87 116.726C177.256 116.112 176.424 115.768 175.557 115.768C174.689 115.768 173.857 116.112 173.243 116.726C172.63 117.339 172.285 118.171 172.285 119.039C172.285 121.028 171.495 122.936 170.088 124.342C168.682 125.749 166.774 126.539 164.785 126.539C162.796 126.539 160.888 125.749 159.482 124.342C158.075 122.936 157.285 121.028 157.285 119.039C157.285 114.193 159.21 109.546 162.637 106.119C166.063 102.693 170.711 100.768 175.557 100.768C180.403 100.768 185.05 102.693 188.477 106.119C191.903 109.546 193.828 114.193 193.828 119.039C193.828 121.028 193.038 122.936 191.631 124.342C190.225 125.749 188.317 126.539 186.328 126.539Z" fill="#4E5660"/>
<path d="M282.621 126.539C280.632 126.539 278.724 125.749 277.318 124.342C275.911 122.936 275.121 121.028 275.121 119.039C275.121 118.171 274.776 117.339 274.163 116.726C273.549 116.112 272.717 115.768 271.85 115.768C270.982 115.768 270.15 116.112 269.536 116.726C268.923 117.339 268.578 118.171 268.578 119.039C268.578 121.028 267.788 122.936 266.381 124.342C264.975 125.749 263.067 126.539 261.078 126.539C259.089 126.539 257.181 125.749 255.775 124.342C254.368 122.936 253.578 121.028 253.578 119.039C253.578 114.193 255.503 109.546 258.93 106.119C262.356 102.693 267.004 100.768 271.85 100.768C276.696 100.768 281.343 102.693 284.77 106.119C288.196 109.546 290.121 114.193 290.121 119.039C290.121 121.028 289.331 122.936 287.924 124.342C286.518 125.749 284.61 126.539 282.621 126.539Z" fill="#4E5660"/>
<path d="M93.2931 330.617L85.5551 405.59H47.2851C38.8962 405.59 30.6694 407.901 23.5074 412.269C16.3454 416.637 10.5251 422.894 6.6851 430.352L1.1291 441.141C0.340198 442.673 -0.0416792 444.381 0.0201452 446.103C0.0819696 447.824 0.585419 449.501 1.48214 450.972C2.37886 452.443 3.63872 453.658 5.14073 454.502C6.64273 455.346 8.33641 455.789 10.0591 455.789H124.668C136.614 455.789 148.071 451.043 156.518 442.596C164.965 434.149 169.711 422.692 169.711 410.746V334.546C169.712 324.726 165.942 315.28 159.18 308.159C152.417 301.038 143.178 296.787 133.371 296.282C123.563 295.777 113.937 299.057 106.478 305.446C99.0202 311.835 94.3002 320.844 93.2931 330.612V330.617Z" fill="#E1B89A"/>
<path d="M33.6452 455.785C41.1652 439.652 53.9452 438.332 57.8522 438.332C59.8413 438.332 61.749 437.542 63.1555 436.135C64.562 434.729 65.3522 432.821 65.3522 430.832C65.3522 428.843 64.562 426.935 63.1555 425.529C61.749 424.122 59.8413 423.332 57.8522 423.332C37.3642 423.332 24.0902 438.691 18.5002 453.066C18.1636 453.933 17.9913 454.855 17.9922 455.785H33.6452Z" fill="#D2996F"/>
<path d="M354.116 330.617L361.854 405.59H400.124C408.513 405.591 416.74 407.902 423.902 412.27C431.063 416.638 436.884 422.894 440.724 430.352L446.279 441.141C447.068 442.673 447.449 444.382 447.387 446.103C447.324 447.825 446.821 449.502 445.924 450.973C445.026 452.443 443.766 453.659 442.264 454.502C440.762 455.346 439.068 455.789 437.345 455.789H322.741C310.795 455.788 299.339 451.042 290.892 442.595C282.445 434.148 277.7 422.692 277.699 410.746V334.546C277.698 324.726 281.468 315.28 288.231 308.159C294.993 301.038 304.232 296.787 314.04 296.282C323.847 295.777 333.474 299.057 340.932 305.446C348.39 311.835 353.11 320.844 354.117 330.612L354.116 330.617Z" fill="#D2996F"/>
<path d="M428.91 453.066C423.316 438.691 410.043 423.332 389.555 423.332C387.566 423.332 385.658 424.122 384.251 425.529C382.845 426.935 382.055 428.843 382.055 430.832C382.055 432.821 382.845 434.729 384.251 436.135C385.658 437.542 387.566 438.332 389.555 438.332C393.455 438.332 406.246 439.656 413.762 455.785H429.414C429.416 454.855 429.245 453.933 428.91 453.066Z" fill="#E1B89A"/>
<path d="M190.043 196.773H149.375L156.375 268.793C156.704 272.101 158.252 275.168 160.716 277.399C163.18 279.629 166.385 280.865 169.709 280.865C173.033 280.865 176.238 279.629 178.702 277.399C181.166 275.168 182.714 272.101 183.043 268.793L190.043 196.773Z" fill="white"/>
<path d="M257.363 196.773H298.035L291.035 268.793C290.706 272.101 289.159 275.168 286.695 277.399C284.23 279.629 281.025 280.865 277.701 280.865C274.377 280.865 271.172 279.629 268.708 277.399C266.244 275.168 264.697 272.101 264.367 268.793L257.363 196.773Z" fill="white"/>
<path d="M331.923 179.984C329.903 154.324 307.134 139.839 272.486 139.839C257.552 139.839 243.845 143.495 233.072 149.593C230.217 151.214 226.99 152.066 223.707 152.066C220.424 152.066 217.197 151.214 214.342 149.593C203.569 143.493 189.862 139.839 174.928 139.839C140.28 139.839 117.51 154.323 115.491 179.984C113.585 204.148 129.018 227.617 174.929 227.617C192.605 227.617 208.57 222.496 219.968 214.265C221.056 213.479 222.365 213.055 223.708 213.055C225.051 213.055 226.36 213.479 227.448 214.265C238.848 222.495 254.811 227.617 272.491 227.617C318.396 227.617 333.829 204.148 331.923 179.984Z" fill="#FCF2D0"/>
<path d="M182.519 140.168C180.027 139.957 177.496 139.84 174.919 139.84C140.274 139.84 117.505 154.324 115.482 179.985C113.582 204.149 129.013 227.618 174.92 227.618C185.738 227.683 196.466 225.651 206.51 221.634C172.987 229.027 148.616 162.578 182.519 140.168Z" fill="#FAE0BD"/>
<path d="M239.625 138.41C229.186 135.68 218.221 135.68 207.781 138.41C203.46 139.544 199.695 142.204 197.181 145.898C196.385 147.07 195.856 148.402 195.631 149.801C195.406 151.199 195.49 152.631 195.879 153.993C196.267 155.355 196.95 156.616 197.879 157.685C198.808 158.755 199.961 159.608 201.255 160.183L216.548 166.983C218.802 167.984 221.24 168.501 223.705 168.501C226.17 168.501 228.608 167.984 230.861 166.983L246.161 160.183C247.456 159.608 248.609 158.755 249.538 157.685C250.467 156.616 251.15 155.355 251.538 153.993C251.926 152.63 252.01 151.199 251.784 149.8C251.559 148.401 251.029 147.069 250.231 145.898C247.718 142.201 243.95 139.541 239.625 138.41Z" fill="#4E5660"/>
</svg>
