<svg width="513" height="512" viewBox="0 0 513 512" fill="none" xmlns="http://www.w3.org/2000/svg">
<path d="M11.2422 265.43C23.169 265.42 34.826 268.978 44.7148 275.646C54.6035 282.314 62.2719 291.787 66.7342 302.848C66.9649 303.406 67.3564 303.884 67.859 304.219C68.3616 304.554 68.9525 304.733 69.5567 304.731C70.1609 304.73 70.751 304.549 71.2522 304.212C71.7533 303.874 72.1428 303.395 72.3712 302.836C76.8341 291.786 84.4971 282.321 94.3768 275.656C104.257 268.991 115.902 265.43 127.82 265.43C129.256 265.43 130.676 265.731 131.989 266.314C133.302 266.896 134.478 267.747 135.442 268.811C136.406 269.876 137.137 271.13 137.587 272.494C138.036 273.858 138.196 275.301 138.054 276.73L134.554 311.98C133.694 320.636 130.029 328.773 124.117 335.154C118.205 341.534 110.369 345.808 101.804 347.324C100.721 347.525 99.743 348.099 99.0405 348.947C98.3379 349.796 97.9556 350.864 97.9602 351.965C97.9615 363.459 102.528 374.481 110.656 382.608C118.784 390.735 129.807 395.3 141.3 395.3H147.921C156.263 395.3 164.263 391.986 170.162 386.088C176.06 380.189 179.374 372.189 179.374 363.847V350.347C179.374 225.632 280.474 124.531 405.187 124.531C419.345 124.53 433.365 127.319 446.445 132.736C459.526 138.154 471.411 146.095 481.422 156.106C491.434 166.117 499.375 178.002 504.793 191.082C510.211 204.163 513 218.182 513 232.34V279.469C513 302.934 508.378 326.17 499.398 347.849C490.418 369.528 477.256 389.226 460.663 405.818C444.07 422.41 424.372 435.572 402.693 444.551C381.014 453.531 357.778 458.152 334.313 458.152H147.332C133.386 458.153 119.577 455.407 106.692 450.07C93.8078 444.734 82.1005 436.912 72.2388 427.052C62.3772 417.191 54.5544 405.484 49.2171 392.6C43.8798 379.716 41.1325 365.907 41.1322 351.961C41.1367 350.86 40.7544 349.792 40.0518 348.943C39.3493 348.095 38.3711 347.521 37.2882 347.32C28.7247 345.802 20.8916 341.528 14.9812 335.148C9.0709 328.768 5.40697 320.631 4.54716 311.977L1.04716 276.727C0.904452 275.301 1.06166 273.861 1.50868 272.499C1.9557 271.138 2.68265 269.885 3.6428 268.821C4.60295 267.757 5.77506 266.905 7.08382 266.322C8.39259 265.738 9.80904 265.434 11.2422 265.43Z" fill="#8EE2CF"/>
<path d="M11.2422 265.43C23.169 265.42 34.826 268.978 44.7148 275.646C54.6035 282.314 62.2719 291.787 66.7342 302.848C66.9649 303.406 67.3564 303.884 67.859 304.219C68.3616 304.554 68.9525 304.733 69.5567 304.731C70.1609 304.73 70.751 304.549 71.2522 304.212C71.7533 303.874 72.1428 303.395 72.3712 302.836C76.8341 291.786 84.4971 282.321 94.3768 275.656C104.257 268.991 115.902 265.43 127.82 265.43C129.256 265.43 130.676 265.731 131.989 266.314C133.302 266.896 134.478 267.747 135.442 268.811C136.406 269.876 137.137 271.13 137.587 272.494C138.036 273.858 138.196 275.301 138.054 276.73L134.554 311.98C133.694 320.636 130.029 328.773 124.117 335.154C118.205 341.534 110.369 345.808 101.804 347.324C100.721 347.525 99.743 348.099 99.0405 348.947C98.3379 349.796 97.9556 350.864 97.9602 351.965C97.9615 363.459 102.528 374.481 110.656 382.608C118.784 390.735 129.807 395.3 141.3 395.3H147.921C156.263 395.3 164.263 391.986 170.162 386.088C176.06 380.189 179.374 372.189 179.374 363.847V350.347C179.374 225.632 280.474 124.531 405.187 124.531C419.345 124.53 433.365 127.319 446.445 132.736C459.526 138.154 471.411 146.095 481.422 156.106C491.434 166.117 499.375 178.002 504.793 191.082C510.211 204.163 513 218.182 513 232.34V279.469C513 302.934 508.378 326.17 499.398 347.849C490.418 369.528 477.256 389.226 460.663 405.818C444.07 422.41 424.372 435.572 402.693 444.551C381.014 453.531 357.778 458.152 334.313 458.152H147.332C133.386 458.153 119.577 455.407 106.692 450.07C93.8078 444.734 82.1005 436.912 72.2388 427.052C62.3772 417.191 54.5544 405.484 49.2171 392.6C43.8798 379.716 41.1325 365.907 41.1322 351.961C41.1367 350.86 40.7544 349.792 40.0518 348.943C39.3493 348.095 38.3711 347.521 37.2882 347.32C28.7247 345.802 20.8916 341.528 14.9812 335.148C9.0709 328.768 5.40697 320.631 4.54716 311.977L1.04716 276.727C0.904452 275.301 1.06166 273.861 1.50868 272.499C1.9557 271.138 2.68265 269.885 3.6428 268.821C4.60295 267.757 5.77506 266.905 7.08382 266.322C8.39259 265.738 9.80904 265.434 11.2422 265.43Z" fill="#8EE2CF"/>
<path d="M288.336 157.086C255.07 177.189 227.559 205.544 208.47 239.404C189.381 273.263 179.36 311.478 179.379 350.348V363.848C179.379 372.19 176.065 380.19 170.167 386.088C164.268 391.986 156.268 395.3 147.926 395.3H141.3C129.806 395.3 118.782 390.734 110.654 382.606C102.527 374.478 97.9605 363.454 97.9605 351.96C97.9559 350.859 98.3382 349.791 99.0408 348.942C99.7433 348.094 100.721 347.52 101.804 347.319C110.37 345.803 118.205 341.529 124.117 335.149C130.029 328.768 133.694 320.631 134.554 311.975L138.054 276.725C138.196 275.296 138.037 273.853 137.587 272.489C137.137 271.125 136.407 269.871 135.443 268.806C134.479 267.742 133.302 266.891 131.99 266.309C130.677 265.726 129.257 265.425 127.82 265.425C115.903 265.425 104.257 268.986 94.3772 275.651C84.4974 282.316 76.8344 291.78 72.3715 302.831C72.1431 303.39 71.7536 303.869 71.2525 304.207C70.7513 304.544 70.1612 304.725 69.557 304.726C68.9528 304.728 68.3619 304.549 67.8593 304.214C67.3567 303.878 66.9652 303.401 66.7345 302.843C62.2701 291.782 54.6001 282.309 44.7102 275.641C34.8202 268.974 23.1622 265.416 11.2345 265.425C9.80174 265.43 8.38589 265.734 7.07786 266.319C5.76983 266.904 4.59853 267.755 3.6392 268.82C2.67987 269.884 1.95371 271.137 1.50737 272.498C1.06103 273.86 0.904373 275.299 1.04746 276.725L4.54746 311.975C5.40713 320.63 9.07159 328.768 14.983 335.148C20.8943 341.529 28.7287 345.803 37.2935 347.32C38.377 347.519 39.356 348.093 40.0588 348.942C40.7616 349.79 41.1434 350.859 41.1375 351.961C41.1379 365.907 43.8851 379.716 49.2224 392.6C54.5597 405.484 62.3825 417.191 72.2441 427.052C82.1058 436.912 93.8131 444.734 106.698 450.07C119.582 455.407 133.392 458.153 147.337 458.152H334.317C341.455 458.149 348.585 457.724 355.672 456.879C287.273 402.516 268.594 251.469 288.336 157.086Z" fill="#6FCE91"/>
<path d="M269.824 458.152V445.09C269.824 320.375 370.924 219.278 495.637 219.278H512.184C512.717 223.612 512.99 227.974 513 232.34V279.469C513 302.934 508.378 326.17 499.398 347.849C490.418 369.528 477.256 389.225 460.663 405.818C444.071 422.41 424.372 435.572 402.693 444.551C381.014 453.531 357.778 458.152 334.313 458.152H269.824Z" fill="#FAE0BD"/>
<path d="M293.75 343.852C277.971 375.264 269.777 409.938 269.824 445.09V458.153H334.316C341.453 458.15 348.582 457.725 355.668 456.88C325.953 433.262 305.625 391.4 293.75 343.852Z" fill="#F3BE77"/>
<path d="M483.422 219.609C478.375 219.875 473.375 220.32 468.422 220.909C468.414 266.19 466.152 324.62 425.527 365.366C393.851 397.139 342.132 414.077 271.711 415.807C271.07 420.768 270.595 425.778 270.285 430.838C308.254 430.045 341.418 425.018 368.965 415.838C396.227 406.752 418.828 393.338 436.153 375.959C481.453 330.523 483.461 267.7 483.422 219.609Z" fill="#F3BE77"/>
<path d="M414.972 234.129C412.898 257.829 407.652 281.875 394.98 302.34C384.554 319.176 369.757 332.297 351.003 341.34C333.667 349.695 312.46 354.82 287.796 356.672C285.648 361.715 283.681 366.848 281.896 372.072C341.865 369.049 384.166 348.295 407.728 310.24C423.123 285.381 428.611 256.54 430.416 228.857C425.186 230.43 420.038 232.188 414.972 234.129Z" fill="#F3BE77"/>
<path d="M361.032 227.758C361.032 207.426 340.332 190.946 314.805 190.946C289.278 190.946 268.582 207.426 268.582 227.759C268.582 248.092 289.282 264.572 314.805 264.572C340.328 264.572 361.032 248.086 361.032 227.758Z" fill="white"/>
<path d="M363.75 195.2C361.761 195.2 359.853 194.41 358.447 193.003C357.04 191.597 356.25 189.689 356.25 187.7C356.25 183.853 354.722 180.164 352.002 177.444C349.282 174.724 345.593 173.196 341.746 173.196C337.899 173.196 334.21 174.724 331.49 177.444C328.77 180.164 327.242 183.853 327.242 187.7C327.242 189.689 326.452 191.597 325.045 193.003C323.639 194.41 321.731 195.2 319.742 195.2C317.753 195.2 315.845 194.41 314.439 193.003C313.032 191.597 312.242 189.689 312.242 187.7C312.242 179.875 315.351 172.371 320.884 166.838C326.417 161.304 333.921 158.196 341.746 158.196C349.571 158.196 357.076 161.304 362.609 166.838C368.142 172.371 371.25 179.875 371.25 187.7C371.25 189.689 370.46 191.597 369.053 193.003C367.647 194.41 365.739 195.2 363.75 195.2Z" fill="#4E5660"/>
<path d="M448.544 201.656C443.048 201.656 437.616 200.477 432.613 198.2C427.611 195.923 423.154 192.601 419.544 188.456C418.237 186.956 417.579 184.999 417.715 183.014C417.851 181.029 418.77 179.179 420.269 177.872C421.769 176.565 423.727 175.906 425.711 176.042C427.696 176.178 429.546 177.097 430.853 178.597C433.053 181.128 435.769 183.158 438.821 184.549C441.872 185.94 445.186 186.66 448.539 186.66C451.892 186.66 455.206 185.94 458.257 184.549C461.308 183.158 464.025 181.128 466.224 178.597C467.532 177.097 469.381 176.178 471.366 176.042C473.351 175.906 475.309 176.565 476.808 177.872C478.308 179.179 479.227 181.029 479.363 183.014C479.499 184.999 478.841 186.956 477.533 188.456C473.925 192.599 469.47 195.921 464.47 198.198C459.469 200.475 454.039 201.654 448.544 201.656Z" fill="#4E5660"/>
<path d="M233.759 495.566C246.078 493.345 257.224 486.867 265.252 477.263C273.279 467.659 277.677 455.54 277.677 443.023V417.5C277.677 410.586 274.931 403.955 270.041 399.066C265.152 394.177 258.521 391.43 251.607 391.43C243.697 391.43 236.021 394.115 229.835 399.046C223.65 403.976 219.321 410.86 217.556 418.571L206.474 466.977C205.6 470.794 205.687 474.768 206.725 478.544C207.764 482.319 209.723 485.778 212.427 488.611C215.13 491.444 218.494 493.562 222.217 494.775C225.94 495.989 229.906 496.261 233.759 495.566Z" fill="#8EE2CF"/>
<path d="M353.508 70.609C351.519 70.609 349.612 69.8188 348.205 68.4123C346.799 67.0058 346.008 65.0981 346.008 63.109C346 54.8612 342.72 46.9535 336.888 41.1213C331.056 35.2891 323.148 32.0087 314.9 32C312.911 32 311.004 31.2098 309.597 29.8033C308.191 28.3968 307.4 26.4891 307.4 24.5C307.4 22.5109 308.191 20.6032 309.597 19.1967C311.004 17.7902 312.911 17 314.9 17C322.568 17.003 330.113 18.9181 336.854 22.5719C343.595 26.2258 349.318 31.5031 353.505 37.926C357.694 31.5028 363.419 26.2255 370.161 22.5717C376.902 18.9179 384.449 17.0029 392.117 17C394.107 17 396.014 17.7902 397.421 19.1967C398.827 20.6032 399.617 22.5109 399.617 24.5C399.617 26.4891 398.827 28.3968 397.421 29.8033C396.014 31.2098 394.107 32 392.117 32C383.87 32.0093 375.962 35.2898 370.13 41.1218C364.298 46.9539 361.018 54.8612 361.008 63.109C361.008 64.0939 360.814 65.0692 360.438 65.9791C360.061 66.8891 359.508 67.7159 358.812 68.4123C358.115 69.1087 357.288 69.6612 356.379 70.0381C355.469 70.415 354.493 70.609 353.508 70.609Z" fill="#8CD6FE"/>
<path d="M353.508 110.23C351.519 110.23 349.611 109.44 348.205 108.033C346.798 106.627 346.008 104.719 346.008 102.73V90.855C346.008 88.8659 346.798 86.9582 348.205 85.5517C349.611 84.1452 351.519 83.355 353.508 83.355C355.497 83.355 357.405 84.1452 358.811 85.5517C360.218 86.9582 361.008 88.8659 361.008 90.855V102.73C361.008 104.719 360.218 106.627 358.811 108.033C357.405 109.44 355.497 110.23 353.508 110.23Z" fill="#8CD6FE"/>
</svg>
