<svg width="512" height="512" viewBox="0 0 512 512" fill="none" xmlns="http://www.w3.org/2000/svg">
<path d="M391.287 35.793C394.239 35.3577 397.254 35.8185 399.941 37.116C402.627 38.4134 404.863 40.4876 406.357 43.07C444.157 108.726 408.232 168.812 408.232 168.812L328.232 75.574C340.838 46.75 374.436 38.266 391.287 35.793Z" fill="#6A647F"/>
<path d="M121.424 35.793C118.472 35.3577 115.458 35.8185 112.771 37.116C110.084 38.4134 107.849 40.4876 106.354 43.07C68.5451 108.726 104.479 168.812 104.479 168.812L184.479 75.574C171.873 46.75 138.272 38.266 121.424 35.793Z" fill="#6A647F"/>
<path d="M387.061 89.816C374.241 76.1554 359.182 64.7837 342.534 56.191C336.399 61.5217 331.516 68.1417 328.234 75.578L408.234 168.812C408.234 168.812 415.488 156.675 420.05 137.359C411.39 120.012 400.28 104 387.061 89.816Z" fill="#4F4C5F"/>
<path d="M104.479 168.813L184.479 75.579C181.195 68.1442 176.313 61.5247 170.179 56.192C153.53 64.7842 138.47 76.1556 125.647 89.816C112.432 104.001 101.324 120.011 92.6621 137.355C97.2251 156.676 104.479 168.813 104.479 168.813Z" fill="#4F4C5F"/>
<path d="M161.725 92.07C156.745 80.675 142.791 74.461 130.815 71.355C122.684 88.9983 120.066 108.685 123.302 127.84C126.279 146.395 133.228 158.621 133.302 158.74L161.725 92.07Z" fill="#FFC9D3"/>
<path d="M350.982 92.07C355.966 80.675 369.916 74.461 381.896 71.355C390.024 88.9996 392.639 108.685 389.402 127.84C386.422 146.395 379.476 158.621 379.402 158.74L350.982 92.07Z" fill="#FFC9D3"/>
<path d="M371.119 74.953C362.502 78.566 354.502 84.023 350.982 92.07L379.408 158.738C379.474 158.621 386.424 146.394 389.408 127.838C391.412 115.771 391.137 103.436 388.599 91.471C388.087 90.916 387.579 90.362 387.064 89.815C382.07 84.5279 376.744 79.5639 371.119 74.953Z" fill="#FF9DB0"/>
<path d="M133.302 158.738L161.725 92.07C158.202 84.023 150.202 78.566 141.592 74.953C135.967 79.5643 130.642 84.5286 125.647 89.816C125.131 90.363 124.624 90.916 124.112 91.472C121.575 103.438 121.304 115.773 123.312 127.839C126.283 146.395 133.232 158.621 133.302 158.738Z" fill="#FF9DB0"/>
<path d="M432.69 320.656C432.702 321.472 432.702 322.269 432.702 323.056C432.702 350.404 428.225 376.256 419.679 399.548H93.0293C84.4823 376.254 80.0103 350.4 80.0103 323.055C80.0103 322.27 80.0103 321.473 80.0183 320.655L94.4183 296.663L81.4403 280.309C82.1863 269.586 83.3273 258.016 85.0303 245.989L104.159 225.919L92.7593 205.845C110.759 133.677 153.837 60.474 256.353 60.474C358.869 60.474 401.947 133.674 419.953 205.845L403.853 225.919L427.681 245.989C429.381 258.016 430.521 269.589 431.267 280.309L417.622 296.664L432.69 320.656Z" fill="#E6E6E6"/>
<path d="M256.354 60.473C197.088 60.473 157.686 84.938 131.514 119.528C112.502 144.652 100.408 175.184 92.7603 205.844L104.16 225.918L85.0293 245.988C83.4159 257.379 82.2193 268.819 81.4393 280.308L94.4163 296.663L80.0183 320.656C79.8839 332.069 80.5804 343.477 82.1023 354.789C83.9111 368.514 87.0509 382.031 91.4773 395.148C91.9773 396.621 92.4956 398.087 93.0323 399.548H123.932C115.389 376.255 110.912 350.403 110.912 323.06C110.912 283.818 114.127 243.994 123.662 205.849C139.802 141.164 176.088 75.66 257.244 62.762L256.354 60.473Z" fill="#D0CFD5"/>
<path d="M419.678 399.543C395.225 466.238 337.502 512 256.354 512C175.206 512 117.486 466.238 93.0293 399.543C127.756 343 187.936 305.617 256.354 305.617C324.772 305.617 384.951 343 419.678 399.543Z" fill="#6A647F"/>
<path d="M256.354 462.4C251.724 462.434 247.139 461.476 242.909 459.593C238.679 457.709 234.9 454.942 231.827 451.478C231.149 450.716 230.629 449.826 230.296 448.862C229.964 447.897 229.826 446.876 229.89 445.858C229.954 444.839 230.219 443.844 230.67 442.928C231.121 442.013 231.749 441.196 232.517 440.525C233.286 439.853 234.179 439.341 235.147 439.017C236.115 438.692 237.137 438.563 238.154 438.636C239.172 438.709 240.165 438.983 241.077 439.442C241.988 439.901 242.8 440.536 243.464 441.31C245.109 443.088 247.103 444.506 249.321 445.476C251.54 446.446 253.935 446.947 256.357 446.947C258.778 446.947 261.174 446.446 263.392 445.476C265.611 444.506 267.605 443.088 269.249 441.31C269.917 440.546 270.728 439.921 271.638 439.471C272.547 439.021 273.536 438.754 274.548 438.686C275.56 438.618 276.576 438.75 277.537 439.075C278.498 439.399 279.386 439.91 280.15 440.578C280.914 441.245 281.538 442.057 281.989 442.966C282.439 443.875 282.706 444.864 282.774 445.876C282.842 446.888 282.71 447.904 282.385 448.865C282.061 449.826 281.55 450.714 280.882 451.478C277.809 454.943 274.031 457.71 269.8 459.593C265.57 461.477 260.985 462.434 256.354 462.4Z" fill="#423E4F"/>
<path d="M322.834 416.105C317.744 411.019 307.717 412.805 300.434 420.082C293.151 427.359 291.372 437.395 296.461 442.482C301.55 447.569 311.578 445.791 318.861 438.505C326.144 431.219 327.924 421.2 322.834 416.105Z" fill="#423E4F"/>
<path d="M212.268 420.082C204.983 412.797 194.956 411.016 189.868 416.105C184.78 421.194 186.559 431.222 193.845 438.505C201.131 445.788 211.158 447.568 216.245 442.478C221.332 437.388 219.549 427.363 212.268 420.082Z" fill="#423E4F"/>
<path d="M164.131 310.637H148.061C146.027 310.614 144.085 309.79 142.655 308.343C141.224 306.897 140.422 304.945 140.422 302.91C140.422 300.876 141.224 298.924 142.655 297.478C144.085 296.031 146.027 295.207 148.061 295.184H164.131C166.165 295.207 168.108 296.031 169.538 297.478C170.968 298.924 171.771 300.876 171.771 302.91C171.771 304.945 170.968 306.897 169.538 308.343C168.108 309.79 166.165 310.614 164.131 310.637Z" fill="#FF9DB0"/>
<path d="M168.236 290.648C166.187 290.648 164.222 289.833 162.773 288.384C161.324 286.935 160.51 284.97 160.509 282.921V267.387C160.532 265.353 161.357 263.41 162.803 261.98C164.25 260.55 166.202 259.748 168.236 259.748C170.27 259.748 172.222 260.55 173.668 261.98C175.115 263.41 175.939 265.353 175.962 267.387V282.922C175.962 284.971 175.148 286.936 173.699 288.385C172.25 289.834 170.285 290.648 168.236 290.648Z" fill="#423E4F"/>
<path d="M364.65 310.637H348.576C346.542 310.614 344.599 309.79 343.169 308.343C341.739 306.897 340.937 304.945 340.937 302.91C340.937 300.876 341.739 298.924 343.169 297.478C344.599 296.031 346.542 295.207 348.576 295.184H364.65C366.684 295.207 368.627 296.031 370.057 297.478C371.487 298.924 372.289 300.876 372.289 302.91C372.289 304.945 371.487 306.897 370.057 308.343C368.627 309.79 366.684 310.614 364.65 310.637Z" fill="#FF9DB0"/>
<path d="M344.471 290.648C343.456 290.648 342.452 290.448 341.514 290.06C340.576 289.672 339.725 289.103 339.007 288.385C338.289 287.668 337.72 286.816 337.332 285.878C336.944 284.941 336.744 283.936 336.744 282.921V267.387C336.767 265.353 337.592 263.41 339.038 261.98C340.484 260.55 342.437 259.748 344.471 259.748C346.505 259.748 348.457 260.55 349.903 261.98C351.35 263.41 352.174 265.353 352.197 267.387V282.922C352.196 284.971 351.382 286.936 349.933 288.384C348.485 289.833 346.52 290.647 344.471 290.648Z" fill="#423E4F"/>
<path d="M279.049 4.137e-07H233.658C231.863 0.000202091 230.088 0.388379 228.457 1.13796C226.825 1.88754 225.375 2.98083 224.205 4.34299C223.035 5.70514 222.173 7.30401 221.678 9.03014C221.183 10.7563 221.068 12.5689 221.338 14.344L229.338 66.696C229.845 70.0147 231.524 73.0421 234.071 75.2293C236.618 77.4165 239.864 78.6187 243.221 78.618H269.498C272.854 78.6171 276.098 77.4147 278.643 75.2284C281.188 73.0422 282.866 70.0167 283.373 66.7L291.373 14.348C291.645 12.5723 291.529 10.7589 291.035 9.03195C290.54 7.30504 289.678 5.70546 288.508 4.34277C287.337 2.98009 285.886 1.8865 284.253 1.13694C282.621 0.387373 280.846 -0.000462385 279.049 4.137e-07Z" fill="#4F4C5F"/>
<path d="M330.602 171.012C330.602 171.012 330.438 170.938 330.122 170.801C307.735 161.016 282.278 157.617 258.044 156.946C232.552 156.246 206.075 160.692 182.583 170.805L182.103 171.012C182.265 170.344 182.463 169.685 182.697 169.039C192.865 139.758 229.525 125.664 258.097 126.739C258.234 126.747 258.37 126.751 258.507 126.759C286.159 127.959 319.823 140.743 330.007 169.048C330.245 169.69 330.443 170.346 330.602 171.012Z" fill="#6A647F"/>
<path d="M330.602 237.027C330.602 237.027 330.438 236.953 330.122 236.816C307.735 227.031 282.278 223.636 258.044 222.964C232.552 222.257 206.075 226.706 182.583 236.819L182.103 237.026C182.265 236.358 182.463 235.699 182.697 235.053C192.865 205.772 229.525 191.678 258.097 192.753C258.234 192.753 258.37 192.761 258.507 192.769C286.159 193.969 319.823 206.753 330.007 235.058C330.245 235.702 330.443 236.359 330.602 237.027Z" fill="#6A647F"/>
<path d="M123.311 302.039C123.311 302.039 102.225 304.539 80.0181 320.656C80.0491 309.82 80.3311 295.956 81.4401 280.308C114.166 280.773 123.311 302.039 123.311 302.039Z" fill="#6A647F"/>
<path d="M132.682 242.27C132.682 242.27 111.576 237.7 85.0293 245.988C86.9021 232.48 89.4823 219.08 92.7593 205.843C130.686 215.609 132.682 242.27 132.682 242.27Z" fill="#6A647F"/>
<path d="M256.354 512C261.51 512 266.661 511.81 271.807 511.43C198.784 505.989 146.807 461.922 123.936 399.543C120.364 389.757 117.537 379.713 115.482 369.5C107.098 378.81 99.5829 388.866 93.0293 399.543C97.5094 411.83 103.275 423.609 110.229 434.684C139.955 481.789 190.42 512 256.354 512Z" fill="#4F4C5F"/>
<path d="M111.791 289.156C105.291 284.586 95.5681 280.508 81.4391 280.308C80.9551 287.156 80.6271 293.664 80.4121 299.723C80.2171 305.191 80.0221 319.3 80.0181 320.656C89.4862 313.778 99.9996 308.469 111.155 304.933C111.287 300 111.49 294.719 111.791 289.156Z" fill="#4F4C5F"/>
<path d="M116.666 241.016C117.717 234.137 118.966 227.125 120.428 220.059C114.502 214.5 105.736 209.184 92.7603 205.844C89.4833 219.081 86.9031 232.481 85.0303 245.989C95.2752 242.791 105.934 241.116 116.666 241.016Z" fill="#4F4C5F"/>
<path d="M432.69 320.656C410.49 304.539 389.401 302.039 389.401 302.039C389.401 302.039 398.542 280.773 431.268 280.309C432.377 295.961 432.658 309.82 432.69 320.656Z" fill="#6A647F"/>
<path d="M427.682 245.988C401.131 237.695 380.026 242.269 380.026 242.269C380.026 242.269 382.026 215.613 419.952 205.843C423.226 219.081 425.806 232.481 427.682 245.988Z" fill="#6A647F"/>
</svg>
