<svg width="512" height="512" viewBox="0 0 512 512" fill="none" xmlns="http://www.w3.org/2000/svg">
<path d="M127.5 497C127.5 498.989 128.29 500.897 129.697 502.303C131.103 503.71 133.011 504.5 135 504.5C136.989 504.5 138.897 503.71 140.303 502.303C141.71 500.897 142.5 498.989 142.5 497V368.045H127.5V497Z" fill="#9EA2E3"/>
<path d="M380.593 308.045V497C380.593 498.989 381.383 500.897 382.79 502.303C384.196 503.71 386.104 504.5 388.093 504.5C390.082 504.5 391.99 503.71 393.396 502.303C394.803 500.897 395.593 498.989 395.593 497V308.045H380.593Z" fill="#9EA2E3"/>
<path d="M135 0C117.272 0 99.7167 3.49188 83.3377 10.2763C66.9588 17.0606 52.0765 27.0047 39.5406 39.5406C14.2232 64.858 0 99.1958 0 135C0 191.482 32.632 240.015 79.081 273.779C91.8814 283.032 105.464 291.152 119.675 298.045C124.669 300.482 129.777 302.8 135 305C140.222 302.804 145.33 300.485 150.325 298.044C164.536 291.151 178.119 283.032 190.919 273.778C237.43 239.97 270 191.423 270 135C270 99.1958 255.777 64.858 230.459 39.5406C205.142 14.2232 170.804 0 135 0V0Z" fill="#FF8E9E"/>
<path d="M171.397 4.96313C151.332 -0.630733 130.245 -1.50956 109.784 2.39531C89.3235 6.30018 70.0425 14.883 53.4478 27.4732C36.8531 40.0634 23.3942 56.32 14.1225 74.9729C4.85077 93.6259 0.0174022 114.17 0 135C0 191.482 32.632 240.015 79.081 273.779C91.8814 283.032 105.464 291.152 119.675 298.045C124.669 300.482 129.777 302.8 135 305C139.973 302.908 144.84 300.703 149.6 298.385C119.588 257.766 101.391 210.404 101.391 158.607C101.36 129.475 107.595 100.678 119.673 74.168C131.751 47.658 149.389 24.0557 171.391 4.96213L171.397 4.96313Z" fill="#F46C86"/>
<path d="M167.65 358.044L150.329 328.044L135 301.486L119.667 328.044L102.346 358.044C100.591 361.085 99.6665 364.534 99.6665 368.044C99.6665 371.555 100.591 375.004 102.346 378.045C104.102 381.085 106.626 383.61 109.667 385.365C112.707 387.12 116.156 388.044 119.667 388.044H150.333C153.843 388.044 157.292 387.119 160.332 385.364C163.372 383.608 165.896 381.083 167.651 378.043C169.406 375.003 170.33 371.554 170.329 368.043C170.329 364.533 169.405 361.084 167.65 358.044Z" fill="#F46C86"/>
<path d="M149.667 298.044H119.667C115.689 298.044 111.873 299.624 109.06 302.437C106.247 305.25 104.667 309.066 104.667 313.044C104.667 317.022 106.247 320.837 109.06 323.651C111.873 326.464 115.689 328.044 119.667 328.044H149.667C153.645 328.044 157.461 326.464 160.274 323.651C163.087 320.837 164.667 317.022 164.667 313.044C164.667 309.066 163.087 305.25 160.274 302.437C157.461 299.624 153.645 298.044 149.667 298.044Z" fill="#9EA2E3"/>
<path d="M388.092 2.24984e-07C359.208 2.24984e-07 331.507 11.4742 311.083 31.8984C290.658 52.3226 279.184 80.0238 279.184 108.908C279.184 154.474 305.509 193.626 342.984 220.864C353.31 228.329 364.268 234.879 375.732 240.44C379.761 242.406 383.882 244.276 388.095 246.051C392.308 244.279 396.429 242.409 400.458 240.44C411.923 234.879 422.88 228.329 433.206 220.864C470.728 193.589 497.006 154.426 497.006 108.908C497.006 94.6055 494.189 80.4429 488.716 67.2292C483.242 54.0154 475.22 42.0091 465.106 31.896C454.992 21.7829 442.985 13.7609 429.771 8.28814C416.557 2.8154 402.395 -0.000919072 388.092 2.24984e-07V2.24984e-07Z" fill="#7CE3FF"/>
<path d="M298.27 461.964C296.285 462.077 294.42 462.952 293.065 464.408C291.71 465.864 290.97 467.787 291 469.775V497C291 498.989 291.79 500.897 293.197 502.303C294.603 503.71 296.511 504.5 298.5 504.5C300.489 504.5 302.397 503.71 303.803 502.303C305.21 500.897 306 498.989 306 497V469.461C306 468.457 305.798 467.463 305.407 466.538C305.016 465.613 304.442 464.776 303.721 464.077C303 463.377 302.146 462.83 301.21 462.467C300.274 462.104 299.274 461.933 298.27 461.964Z" fill="#9EA2E3"/>
<path d="M298.5 81.063C262.696 81.063 228.358 95.2862 203.041 120.604C177.723 145.921 163.5 180.259 163.5 216.063C163.5 272.545 196.132 321.078 242.581 354.842C255.381 364.095 268.964 372.214 283.175 379.108C288.169 381.545 293.277 383.864 298.5 386.064C303.722 383.868 308.83 381.549 313.825 379.108C328.036 372.215 341.619 364.096 354.419 354.842C400.93 321.033 433.5 272.487 433.5 216.063C433.5 180.259 419.277 145.921 393.959 120.604C368.642 95.2862 334.304 81.063 298.5 81.063Z" fill="#FCE3A0"/>
<path d="M334.895 86.0319C314.83 80.4343 293.743 79.5525 273.281 83.4555C252.819 87.3584 233.537 95.9404 216.942 108.531C200.346 121.121 186.887 137.379 177.617 156.033C168.346 174.687 163.514 195.232 163.5 216.063C163.5 272.545 196.132 321.078 242.581 354.842C255.381 364.095 268.964 372.214 283.175 379.108C288.169 381.545 293.277 383.864 298.5 386.064C303.473 383.972 308.339 381.767 313.1 379.449C283.088 338.83 264.891 291.468 264.891 239.671C264.86 210.54 271.095 181.743 283.173 155.234C295.251 128.725 312.889 105.124 334.891 86.0319H334.895Z" fill="#FFCE71"/>
<path d="M331.15 439.108L313.829 409.108L298.5 382.55L283.167 409.108L265.846 439.108C264.091 442.148 263.166 445.597 263.167 449.108C263.167 452.619 264.091 456.068 265.846 459.108C267.602 462.148 270.126 464.673 273.167 466.428C276.207 468.184 279.656 469.108 283.167 469.108H313.833C317.343 469.107 320.792 468.183 323.832 466.427C326.872 464.671 329.396 462.147 331.151 459.106C332.906 456.066 333.83 452.617 333.829 449.107C333.829 445.596 332.905 442.148 331.15 439.108Z" fill="#FFCE71"/>
<path d="M313.167 379.108H283.167C279.189 379.108 275.373 380.688 272.56 383.501C269.747 386.314 268.167 390.13 268.167 394.108C268.167 398.086 269.747 401.901 272.56 404.715C275.373 407.528 279.189 409.108 283.167 409.108H313.167C317.145 409.108 320.961 407.528 323.774 404.715C326.587 401.901 328.167 398.086 328.167 394.108C328.167 390.13 326.587 386.314 323.774 383.501C320.961 380.688 317.145 379.108 313.167 379.108Z" fill="#9EA2E3"/>
</svg>
