<svg width="512" height="512" viewBox="0 0 512 512" fill="none" xmlns="http://www.w3.org/2000/svg">
<path d="M419.8 107.008C424.391 96.7833 426.487 85.6139 425.916 74.4201C424.049 36.6721 392.313 6.75108 354.52 7.00008C342.716 7.0804 331.118 10.1027 320.775 15.7934C310.433 21.4842 301.673 29.6639 295.287 39.5923C288.902 49.5208 285.093 60.8847 284.204 72.6558C283.316 84.4269 285.377 96.2338 290.2 107.008H419.8Z" fill="#EFEDFF"/>
<path d="M432.7 172.138H432.835C425.86 168.167 420.135 162.324 416.307 155.269H293.692C289.864 162.324 284.139 168.167 277.164 172.138H277.299C250.213 189.869 229.99 216.313 219.974 247.098C209.958 277.883 210.75 311.164 222.218 341.438L276.649 484.66C278.811 490.347 282.651 495.242 287.659 498.696C292.668 502.151 298.608 504 304.692 504H405.308C411.392 504 417.333 502.15 422.341 498.696C427.35 495.241 431.189 490.345 433.351 484.658L487.782 341.436C499.25 311.162 500.042 277.881 490.026 247.096C480.011 216.311 459.788 189.867 432.702 172.136L432.7 172.138Z" fill="#EFEDFF"/>
<path d="M364.018 111.46C363.982 111.286 363.951 111.113 363.918 110.939C361.439 99.5538 361.85 87.7291 365.114 76.5434C368.377 65.3576 374.388 55.1668 382.6 46.9001L403.358 26.1421C391.287 14.8551 375.654 8.13532 359.158 7.1421L351.5 7.1001C339.545 7.68564 327.933 11.2851 317.743 17.5636C307.553 23.8422 299.116 32.5958 293.217 43.0105C287.319 53.4251 284.15 65.1624 284.005 77.1306C283.861 89.0988 286.745 100.909 292.391 111.463H364.018V111.46Z" fill="#D4D4FF"/>
<path d="M280.5 291C280.489 278.608 283.574 266.41 289.474 255.513C295.375 244.615 303.903 235.365 314.286 228.6C314.51 228.454 314.734 228.305 314.956 228.156C338.622 213.19 355.713 189.787 362.764 162.688H288.589C285.356 166.474 281.49 169.67 277.165 172.136H277.3C250.213 189.866 229.99 216.31 219.974 247.095C209.958 277.88 210.75 311.162 222.218 341.436L276.649 484.658C278.81 490.345 282.65 495.241 287.659 498.696C292.667 502.15 298.608 504 304.692 504H356.21L285.31 317.455C282.109 309.003 280.479 300.038 280.5 291Z" fill="#D4D4FF"/>
<path d="M423.05 164.5C416.597 157.767 412.494 149.128 411.351 139.872C410.208 130.617 412.088 121.24 416.709 113.139H416.686C418.273 110.357 419.671 107.471 420.868 104.5H289.136C290.332 107.471 291.728 110.357 293.314 113.139H293.291C297.912 121.24 299.791 130.617 298.648 139.872C297.506 149.128 293.403 157.766 286.951 164.5H423.05Z" fill="#FF8E9E"/>
<path d="M293.315 113.139H293.292C297.913 121.24 299.792 130.617 298.649 139.872C297.507 149.128 293.404 157.766 286.952 164.5H362.291C365.034 154.735 366.434 144.643 366.451 134.5C366.434 126.579 365.584 118.682 363.914 110.939C363.458 108.798 363.102 106.652 362.847 104.5H289.136C290.332 107.471 291.728 110.357 293.315 113.139Z" fill="#F46C86"/>
<path d="M300 354C299.966 385.055 290.283 415.332 272.29 440.644C254.297 465.956 228.885 485.052 199.566 495.29C170.247 505.529 138.471 506.405 108.633 497.797C78.7951 489.189 52.3689 471.522 33.0094 447.239C13.65 422.957 2.31383 393.259 0.568833 362.253C-1.17617 331.247 6.75619 300.465 23.2689 274.164C39.7815 247.863 64.0586 227.342 92.7424 215.441C121.426 203.539 153.1 200.844 183.382 207.728C216.511 215.301 246.089 233.895 267.274 260.468C288.459 287.04 299.997 320.016 300 354Z" fill="#676FB2"/>
<path d="M120 354C119.969 326.576 125.579 299.438 136.483 274.274C147.387 249.111 163.351 226.459 183.382 207.728C161.42 202.738 138.615 202.758 116.662 207.786C94.708 212.813 74.1683 222.72 56.5667 236.771C38.9651 250.822 24.7536 268.657 14.9866 288.951C5.21961 309.245 0.147949 331.478 0.147949 354C0.147949 376.522 5.21961 398.755 14.9866 419.049C24.7536 439.343 38.9651 457.178 56.5667 471.229C74.1683 485.28 94.708 495.187 116.662 500.214C138.615 505.242 161.42 505.262 183.382 500.272C163.351 481.541 147.387 458.889 136.483 433.726C125.579 408.562 119.969 381.424 120 354Z" fill="#4C5699"/>
<path d="M182.943 328.5C191.227 328.5 197.943 321.784 197.943 313.5C197.943 305.216 191.227 298.5 182.943 298.5C174.659 298.5 167.943 305.216 167.943 313.5C167.943 321.784 174.659 328.5 182.943 328.5Z" fill="#4C5699"/>
<path d="M237.943 328.5C246.227 328.5 252.943 321.784 252.943 313.5C252.943 305.216 246.227 298.5 237.943 298.5C229.659 298.5 222.943 305.216 222.943 313.5C222.943 321.784 229.659 328.5 237.943 328.5Z" fill="#4C5699"/>
<path d="M207.943 374.5C216.227 374.5 222.943 367.784 222.943 359.5C222.943 351.216 216.227 344.5 207.943 344.5C199.659 344.5 192.943 351.216 192.943 359.5C192.943 367.784 199.659 374.5 207.943 374.5Z" fill="#4C5699"/>
</svg>
