<svg width="512" height="512" viewBox="0 0 512 512" fill="none" xmlns="http://www.w3.org/2000/svg">
<path d="M225.781 260.975L233.55 231.998L279.218 244.242L271.449 273.219L225.781 260.975Z" fill="#4C5699"/>
<path d="M223.527 284.28C221.226 284.279 218.955 283.75 216.891 282.732C214.827 281.714 213.025 280.235 211.623 278.409C210.222 276.584 209.259 274.461 208.809 272.204C208.358 269.947 208.433 267.617 209.027 265.393L221.264 219.724C221.764 217.81 222.637 216.014 223.833 214.439C225.03 212.864 226.526 211.541 228.236 210.546C229.946 209.552 231.835 208.905 233.796 208.644C235.757 208.382 237.75 208.511 239.66 209.023C241.571 209.535 243.362 210.42 244.929 211.627C246.496 212.834 247.809 214.339 248.793 216.055C249.776 217.771 250.41 219.665 250.659 221.627C250.907 223.59 250.765 225.582 250.241 227.489L238.004 273.158C237.15 276.346 235.268 279.164 232.651 281.175C230.033 283.185 226.826 284.277 223.525 284.28H223.527Z" fill="#676FB2"/>
<path d="M95 60.5C91.0218 60.5 87.2064 62.0804 84.3934 64.8934C81.5803 67.7064 80 71.5218 80 75.5V302.5H110V75.5C110 71.5218 108.42 67.7064 105.607 64.8934C102.794 62.0804 98.9782 60.5 95 60.5Z" fill="#D4D4FF"/>
<path d="M298.5 223.607C290.544 223.607 282.913 226.768 277.287 232.394C271.661 238.02 268.5 245.65 268.5 253.607V278.054C268.5 286.01 265.339 293.641 259.713 299.267C254.087 304.893 246.457 308.054 238.5 308.054H181.609C173.653 308.054 166.022 304.893 160.396 299.267C154.77 293.641 151.609 286.01 151.609 278.054V267.43C151.609 240.83 123.093 223.914 99.789 236.73C47.757 265.342 24.841 335.186 61.989 390.111C62.531 390.911 63.0834 391.708 63.646 392.501L249.305 452.501L448.505 392.501V373.607C448.505 353.908 444.625 334.402 437.086 316.203C429.548 298.004 418.499 281.468 404.569 267.539C390.64 253.61 374.103 242.561 355.904 235.024C337.705 227.486 318.199 223.606 298.5 223.607Z" fill="#FF8E9E"/>
<path d="M225.229 308.053H181.609C173.653 308.053 166.022 304.892 160.396 299.266C154.77 293.64 151.609 286.01 151.609 278.053V267.429C151.609 240.829 123.093 223.913 99.789 236.729C47.757 265.342 24.841 335.186 61.989 390.111C62.531 390.911 63.0834 391.708 63.646 392.501H260.032C237.541 370.01 226.053 339.768 225.232 308.054L225.229 308.053Z" fill="#F46C86"/>
<path d="M448.5 392.5H71.5C55.587 392.5 40.3258 398.821 29.0736 410.074C17.8214 421.326 11.5 436.587 11.5 452.5C11.5 468.413 17.8214 483.674 29.0736 494.926C40.3258 506.179 55.587 512.5 71.5 512.5H448.5C464.413 512.5 479.674 506.179 490.926 494.926C502.179 483.674 508.5 468.413 508.5 452.5C508.5 436.587 502.179 421.326 490.926 410.074C479.674 398.821 464.413 392.5 448.5 392.5Z" fill="#8288CB"/>
<path d="M201.5 452.5C201.5 436.587 207.821 421.326 219.074 410.074C230.326 398.821 245.587 392.5 261.5 392.5H71.5C55.587 392.5 40.3258 398.821 29.0736 410.074C17.8214 421.326 11.5 436.587 11.5 452.5C11.5 468.413 17.8214 483.674 29.0736 494.926C40.3258 506.179 55.587 512.5 71.5 512.5H261.5C245.587 512.5 230.326 506.179 219.074 494.926C207.821 483.674 201.5 468.413 201.5 452.5Z" fill="#676FB2"/>
<path d="M33.479 121.969C31.4899 121.969 29.5822 122.759 28.1757 124.166C26.7692 125.572 25.979 127.48 25.979 129.469V135.459C25.979 137.448 26.7692 139.356 28.1757 140.763C29.5822 142.169 31.4899 142.959 33.479 142.959C35.4681 142.959 37.3758 142.169 38.7823 140.763C40.1888 139.356 40.979 137.448 40.979 135.459V129.469C40.979 127.48 40.1888 125.572 38.7823 124.166C37.3758 122.759 35.4681 121.969 33.479 121.969Z" fill="#FCE3A0"/>
<path d="M49.469 105.979C47.4799 105.979 45.5722 106.769 44.1657 108.176C42.7592 109.582 41.969 111.49 41.969 113.479C41.969 115.468 42.7592 117.376 44.1657 118.782C45.5722 120.189 47.4799 120.979 49.469 120.979H55.459C57.4481 120.979 59.3558 120.189 60.7623 118.782C62.1688 117.376 62.959 115.468 62.959 113.479C62.959 111.49 62.1688 109.582 60.7623 108.176C59.3558 106.769 57.4481 105.979 55.459 105.979H49.469Z" fill="#FCE3A0"/>
<path d="M17.489 120.979C19.4781 120.979 21.3858 120.189 22.7923 118.782C24.1988 117.376 24.989 115.468 24.989 113.479C24.989 111.49 24.1988 109.582 22.7923 108.176C21.3858 106.769 19.4781 105.979 17.489 105.979H11.5C9.51088 105.979 7.60322 106.769 6.1967 108.176C4.79018 109.582 4 111.49 4 113.479C4 115.468 4.79018 117.376 6.1967 118.782C7.60322 120.189 9.51088 120.979 11.5 120.979H17.489Z" fill="#FCE3A0"/>
<path d="M40.979 91.5C40.979 89.5109 40.1888 87.6032 38.7823 86.1967C37.3758 84.7902 35.4681 84 33.479 84C31.4899 84 29.5822 84.7902 28.1757 86.1967C26.7692 87.6032 25.979 89.5109 25.979 91.5V97.49C25.979 99.4791 26.7692 101.387 28.1757 102.793C29.5822 104.2 31.4899 104.99 33.479 104.99C35.4681 104.99 37.3758 104.2 38.7823 102.793C40.1888 101.387 40.979 99.4791 40.979 97.49V91.5Z" fill="#FCE3A0"/>
<path d="M142.606 45.9692C140.617 45.9692 138.709 46.7594 137.303 48.1659C135.896 49.5725 135.106 51.4801 135.106 53.4692V59.4592C135.106 61.4484 135.896 63.356 137.303 64.7625C138.709 66.1691 140.617 66.9592 142.606 66.9592C144.595 66.9592 146.503 66.1691 147.909 64.7625C149.316 63.356 150.106 61.4484 150.106 59.4592V53.4692C150.106 51.4801 149.316 49.5725 147.909 48.1659C146.503 46.7594 144.595 45.9692 142.606 45.9692Z" fill="#FCE3A0"/>
<path d="M158.6 29.979C156.611 29.979 154.703 30.7692 153.297 32.1757C151.89 33.5822 151.1 35.4899 151.1 37.479C151.1 39.4681 151.89 41.3758 153.297 42.7823C154.703 44.1888 156.611 44.979 158.6 44.979H164.59C166.579 44.979 168.487 44.1888 169.893 42.7823C171.3 41.3758 172.09 39.4681 172.09 37.479C172.09 35.4899 171.3 33.5822 169.893 32.1757C168.487 30.7692 166.579 29.979 164.59 29.979H158.6Z" fill="#FCE3A0"/>
<path d="M126.616 44.979C128.605 44.979 130.513 44.1888 131.919 42.7823C133.326 41.3758 134.116 39.4681 134.116 37.479C134.116 35.4899 133.326 33.5822 131.919 32.1757C130.513 30.7692 128.605 29.979 126.616 29.979H120.627C118.638 29.979 116.73 30.7692 115.324 32.1757C113.917 33.5822 113.127 35.4899 113.127 37.479C113.127 39.4681 113.917 41.3758 115.324 42.7823C116.73 44.1888 118.638 44.979 120.627 44.979H126.616Z" fill="#FCE3A0"/>
<path d="M150.106 15.5C150.106 13.5109 149.316 11.6032 147.909 10.1967C146.503 8.79018 144.595 8 142.606 8C140.617 8 138.709 8.79018 137.303 10.1967C135.896 11.6032 135.106 13.5109 135.106 15.5V21.49C135.106 23.4791 135.896 25.3868 137.303 26.7933C138.709 28.1998 140.617 28.99 142.606 28.99C144.595 28.99 146.503 28.1998 147.909 26.7933C149.316 25.3868 150.106 23.4791 150.106 21.49V15.5Z" fill="#FCE3A0"/>
<path d="M51.6381 19.9592L54.9731 26.7162L62.4301 27.8002C63.9074 28.0148 65.2953 28.6384 66.4367 29.6006C67.5781 30.5628 68.4275 31.8252 68.8888 33.245C69.3501 34.6647 69.405 36.1853 69.0472 37.6346C68.6894 39.0839 67.9332 40.4043 66.8641 41.4462L61.4641 46.7062L62.7381 54.1332C62.9904 55.6045 62.826 57.117 62.2635 58.4998C61.7011 59.8825 60.7629 61.0803 59.5552 61.9577C58.3475 62.8351 56.9184 63.357 55.4295 63.4646C53.9406 63.5721 52.4514 63.2609 51.1301 62.5662L44.4601 59.0602L37.7901 62.5662C36.4688 63.2609 34.9796 63.5721 33.4907 63.4646C32.0018 63.357 30.5727 62.8351 29.365 61.9577C28.1573 61.0803 27.2191 59.8825 26.6567 58.4998C26.0942 57.117 25.9298 55.6045 26.1821 54.1332L27.4561 46.7062L22.0561 41.4462C20.9868 40.4036 20.2308 39.0825 19.8734 37.6324C19.5161 36.1824 19.5719 34.6612 20.0343 33.2412C20.4968 31.8211 21.3475 30.5589 22.4902 29.5973C23.6329 28.6357 25.0219 28.0132 26.5001 27.8002L33.9571 26.7162L37.2921 19.9592C37.9527 18.6205 38.9747 17.4934 40.2425 16.7053C41.5103 15.9172 42.9733 15.4995 44.4661 15.4995C45.9589 15.4995 47.4219 15.9172 48.6897 16.7053C49.9575 17.4934 50.9795 18.6205 51.6401 19.9592H51.6381Z" fill="#FFCE71"/>
<path d="M129.4 97.7354L132.087 103.179L138.095 104.052C139.285 104.225 140.404 104.728 141.323 105.503C142.243 106.278 142.927 107.295 143.299 108.439C143.67 109.583 143.715 110.808 143.426 111.976C143.138 113.143 142.529 114.207 141.667 115.046L137.32 119.284L138.346 125.268C138.548 126.453 138.416 127.67 137.963 128.783C137.51 129.897 136.755 130.861 135.783 131.568C134.811 132.274 133.661 132.695 132.462 132.783C131.264 132.87 130.065 132.621 129 132.063L123.626 129.238L118.252 132.063C117.188 132.623 115.988 132.874 114.788 132.787C113.588 132.701 112.437 132.28 111.464 131.573C110.491 130.866 109.735 129.901 109.282 128.787C108.829 127.673 108.697 126.454 108.9 125.268L109.926 119.284L105.579 115.046C104.718 114.207 104.108 113.143 103.82 111.976C103.532 110.808 103.576 109.583 103.947 108.439C104.319 107.295 105.003 106.278 105.923 105.503C106.843 104.728 107.961 104.225 109.151 104.052L115.159 103.179L117.846 97.7354C118.379 96.6586 119.202 95.7522 120.223 95.1184C121.244 94.4847 122.422 94.1489 123.623 94.1489C124.825 94.1489 126.002 94.4847 127.023 95.1184C128.044 95.7522 128.867 96.6586 129.4 97.7354Z" fill="#FFCE71"/>
</svg>
