<svg width="512" height="512" viewBox="0 0 512 512" fill="none" xmlns="http://www.w3.org/2000/svg">
<path d="M278.499 482.158L263.499 492.158L248.499 482.158V246.011L263.499 236.011L278.499 246.011V482.158Z" fill="#FFB357"/>
<path d="M453.291 193.219C410.387 169.459 371.656 138.846 338.628 102.591C317.884 79.8068 299.893 54.6605 285.028 27.6706C282.895 23.8304 279.774 20.6306 275.988 18.4027C272.202 16.1748 267.89 15 263.497 15C259.104 15 254.791 16.1748 251.006 18.4027C247.22 20.6306 244.099 23.8304 241.966 27.6706C227.1 54.6594 209.11 79.8047 188.366 102.588C155.339 138.843 116.609 169.457 73.7059 193.219C69.8595 195.442 66.665 198.637 64.4427 202.484C62.2204 206.331 61.0483 210.695 61.0439 215.138H465.952C465.948 210.695 464.776 206.331 462.554 202.484C460.332 198.637 457.137 195.442 453.291 193.219Z" fill="#FCE3A0"/>
<path d="M378.692 208.184C350.932 177.332 326.562 143.59 306.002 107.539C316.925 106.349 327.801 104.7 338.628 102.591C317.883 79.8068 299.893 54.6605 285.028 27.6706C282.895 23.8304 279.774 20.6306 275.988 18.4027C272.202 16.1748 267.89 15 263.497 15C259.104 15 254.791 16.1748 251.006 18.4027C247.22 20.6306 244.099 23.8304 241.966 27.6706C227.1 54.6594 209.11 79.8047 188.366 102.588C199.184 104.698 210.059 106.347 220.99 107.537C200.429 143.589 176.059 177.331 148.299 208.184C146.573 210.282 145.169 212.626 144.132 215.138H223.982C224.506 212.614 225.242 210.138 226.182 207.738C239.552 176.249 249.444 143.395 255.682 109.76C260.892 109.864 266.103 109.864 271.314 109.76C277.553 143.395 287.445 176.249 300.814 207.738C301.754 210.138 302.49 212.614 303.014 215.138H382.864C381.826 212.626 380.422 210.283 378.697 208.184H378.692Z" fill="#FFF1D4"/>
<path d="M190.597 100.1C189.857 100.931 189.121 101.765 188.373 102.591C155.344 138.846 116.611 169.459 73.7059 193.219C69.8595 195.442 66.665 198.637 64.4427 202.484C62.2204 206.331 61.0483 210.695 61.0439 215.138H209.764L240.651 100.1H190.597Z" fill="#FFB357"/>
<path d="M226.211 207.68C239.566 176.209 249.449 143.376 255.683 109.762C259.185 90.7886 261.53 71.6198 262.703 52.3618C263.422 39.9121 268.689 28.1601 277.503 19.3388C274.666 17.3886 271.453 16.0537 268.069 15.4199C264.686 14.786 261.207 14.8673 257.857 15.6584C254.506 16.4496 251.359 17.9331 248.616 20.0137C245.874 22.0942 243.597 24.7256 241.932 27.7388C227.074 54.7018 209.098 79.8242 188.373 102.589C199.191 104.699 210.066 106.348 220.997 107.538C200.439 143.585 176.074 177.322 148.32 208.172C146.591 210.275 145.183 212.623 144.143 215.139H223.995C224.525 212.595 225.267 210.1 226.214 207.68H226.211Z" fill="#FFCE71"/>
<path d="M461.45 164.64C434.2 165.095 412.6 187.884 412.6 215.14H313.2C313.2 184.666 289.584 164.635 263.5 164.635C236.052 164.635 213.8 187.692 213.8 215.14H114.4C114.4 184.623 90.716 164.578 64.588 164.635C37.051 164.693 15.001 187.6 15.001 215.138V231.011C15.001 234.989 16.5813 238.804 19.3944 241.617C22.2074 244.43 26.0227 246.011 30.001 246.011H497.001C500.979 246.011 504.795 244.43 507.608 241.617C510.421 238.804 512.001 234.989 512.001 231.011V215.138C511.999 187.408 489.287 164.176 461.45 164.64Z" fill="#7CE3FF"/>
<path d="M313.199 246.011V215.138C313.199 184.664 336.815 164.633 362.899 164.633C390.347 164.633 412.599 187.69 412.599 215.138V246.011H313.199Z" fill="#FFB5C0"/>
<path d="M114.399 246.011V215.138C114.399 187.69 136.65 164.633 164.099 164.633C190.183 164.633 213.799 184.665 213.799 215.138V246.011H114.399Z" fill="#FF8E9E"/>
<path d="M374.337 363.393C372.652 354.666 372.855 350.732 373.017 347.57C374.217 324.093 353.655 309.3 334.889 311.583C314.141 313.914 302.672 331.962 303.878 347.424C304.751 356.164 306.447 364.802 308.944 373.224C309.523 375.043 310.666 376.632 312.208 377.759C313.75 378.886 315.61 379.494 317.52 379.494C319.43 379.494 321.29 378.886 322.832 377.759C324.373 376.632 325.517 375.043 326.096 373.224C329.645 362.081 330.114 353.25 331.557 347.552C332.095 346.199 332.979 345.013 334.121 344.111C335.263 343.209 336.623 342.624 338.063 342.415C339.572 342.248 341.097 342.513 342.46 343.181C343.824 343.848 344.969 344.889 345.763 346.184C348.046 350.457 346.551 349.436 349.271 356.534C351.464 362.26 354.903 367.427 359.341 371.66C360.728 372.963 362.492 373.794 364.38 374.032C366.269 374.269 368.184 373.903 369.851 372.984C371.517 372.065 372.85 370.641 373.657 368.917C374.464 367.193 374.703 365.258 374.341 363.39L374.337 363.393Z" fill="#9EA2E3"/>
<path d="M233.404 289.1C222.751 278.452 208.95 271.522 194.047 269.339C179.145 267.155 163.935 269.834 150.676 276.978C135.85 284.978 129.743 303.678 137.939 318.397C139.863 321.862 142.455 324.911 145.566 327.368C148.676 329.825 152.243 331.64 156.06 332.708C159.877 333.777 163.868 334.078 167.802 333.593C171.736 333.109 175.534 331.848 178.978 329.886C180.884 328.814 183.087 328.394 185.254 328.69C187.42 328.987 189.43 329.983 190.978 331.527L206.072 346.621C208.858 349.407 212.165 351.616 215.805 353.124C219.444 354.632 223.346 355.408 227.285 355.408C231.225 355.408 235.126 354.632 238.766 353.124C242.406 351.616 245.713 349.407 248.499 346.621V325.546C248.5 318.777 247.167 312.075 244.577 305.821C241.987 299.568 238.19 293.886 233.404 289.1Z" fill="#9EA2E3"/>
<path d="M281.599 353.6H255.47L248.499 346.629L212.192 310.322C204.691 302.821 194.517 298.606 183.908 298.606C173.299 298.606 163.125 302.821 155.624 310.322L127.34 338.6L117.401 348.539C109.954 356.052 105.786 366.208 105.809 376.787C105.832 387.365 110.045 397.503 117.525 404.983C125.005 412.463 135.143 416.676 145.721 416.699C156.3 416.722 166.456 412.554 173.969 405.107L183.908 395.168L199.194 410.454C206.513 417.813 215.218 423.648 224.807 427.62C234.396 431.592 244.677 433.622 255.056 433.594H281.598C292.207 433.594 302.381 429.38 309.882 421.878C317.384 414.377 321.598 404.203 321.598 393.594C321.598 382.985 317.384 372.811 309.882 365.31C302.381 357.808 292.207 353.594 281.598 353.594L281.599 353.6Z" fill="#EFEDFF"/>
<path d="M220.236 425.531C231.07 430.855 242.984 433.615 255.056 433.596H279.356C259.532 412.414 248.503 384.489 248.503 355.478V346.625L212.196 310.318C211.172 309.294 210.093 308.325 208.964 307.418C210.003 305.467 210.599 303.311 210.708 301.104C210.817 298.896 210.437 296.692 209.595 294.648C208.753 292.605 207.47 290.772 205.838 289.283C204.205 287.793 202.263 286.682 200.151 286.03C198.04 285.378 195.81 285.201 193.621 285.511C191.433 285.821 189.34 286.611 187.493 287.825C185.645 289.038 184.089 290.644 182.935 292.529C181.78 294.414 181.057 296.531 180.816 298.728C171.3 299.448 162.359 303.561 155.62 310.318L127.338 338.6L117.399 348.539C113.658 352.247 110.686 356.658 108.654 361.518C106.623 366.378 105.571 371.591 105.559 376.859C105.548 382.127 106.577 387.345 108.587 392.213C110.598 397.082 113.55 401.506 117.275 405.231C121 408.956 125.423 411.908 130.292 413.918C135.161 415.929 140.379 416.958 145.647 416.946C150.914 416.935 156.128 415.883 160.988 413.851C165.848 411.819 170.259 408.848 173.967 405.107L183.906 395.168L192.754 404.016C187.28 410.739 184.492 419.253 184.929 427.912C185.366 436.572 188.997 444.761 195.12 450.9C196.511 452.303 198.165 453.417 199.987 454.179C201.81 454.941 203.765 455.335 205.74 455.34C207.715 455.344 209.672 454.958 211.498 454.204C213.324 453.45 214.983 452.343 216.38 450.946C217.776 449.549 218.883 447.891 219.637 446.065C220.391 444.239 220.777 442.282 220.773 440.307C220.769 438.331 220.374 436.376 219.612 434.554C218.85 432.731 217.736 431.077 216.333 429.687C215.487 428.836 214.976 427.709 214.893 426.512C214.811 425.315 215.161 424.128 215.882 423.169C217.306 424.009 218.753 424.804 220.235 425.533L220.236 425.531Z" fill="#D4D4FF"/>
<path d="M343.3 433.621L329.1 419.421C327.331 417.641 325.142 416.336 322.736 415.627C320.329 414.918 317.782 414.827 315.331 415.364C313.38 415.819 311.385 416.06 309.381 416.083C307.533 416.14 305.693 415.822 303.972 415.149C302.25 414.475 300.683 413.461 299.364 412.166C297.535 410.324 295.249 409.001 292.74 408.333C290.232 407.665 287.591 407.677 285.088 408.366C282.55 409.08 280.243 410.446 278.397 412.328C276.55 414.209 275.228 416.541 274.561 419.092C273.895 421.643 273.907 424.324 274.597 426.868C275.287 429.413 276.631 431.732 278.495 433.597C287.287 442.308 299.041 446.977 313.195 445.946L322.395 455.146C323.792 456.543 325.451 457.65 327.277 458.404C329.103 459.158 331.06 459.544 333.036 459.539C335.012 459.535 336.967 459.14 338.79 458.378C340.612 457.615 342.266 456.5 343.657 455.097C349.522 449.179 349.185 439.509 343.294 433.619L343.3 433.621Z" fill="#D4D4FF"/>
<path d="M117.4 348.541C109.953 356.053 105.785 366.21 105.808 376.788C105.831 387.367 110.044 397.505 117.524 404.985C125.004 412.465 135.142 416.677 145.72 416.701C156.299 416.724 166.455 412.556 173.968 405.109L183.907 395.17L137.278 348.541C134.642 345.905 131.067 344.424 127.339 344.424C123.611 344.424 120.036 345.905 117.4 348.541Z" fill="#9EA2E3"/>
<path d="M190.298 349.585C189.134 346.449 187.038 343.745 184.292 341.835C181.546 339.925 178.282 338.901 174.937 338.901C171.592 338.901 168.327 339.925 165.582 341.835C162.836 343.745 160.74 346.449 159.576 349.585C158.882 351.449 158.957 353.512 159.785 355.321C160.612 357.13 162.124 358.536 163.988 359.23C165.853 359.924 167.916 359.849 169.725 359.022C171.534 358.194 172.94 356.682 173.634 354.818C173.732 354.551 173.909 354.321 174.141 354.158C174.374 353.994 174.65 353.906 174.934 353.903C175.218 353.904 175.496 353.992 175.728 354.155C175.961 354.319 176.137 354.55 176.234 354.818C176.928 356.682 178.334 358.194 180.143 359.022C181.952 359.849 184.015 359.924 185.879 359.23C187.744 358.536 189.256 357.13 190.083 355.321C190.911 353.512 190.986 351.449 190.292 349.585H190.298Z" fill="#313D40"/>
<path d="M128.707 362.229C126.718 362.229 124.81 363.019 123.404 364.426C121.997 365.832 121.207 367.74 121.207 369.729V379.495C121.207 381.484 121.997 383.392 123.404 384.798C124.81 386.205 126.718 386.995 128.707 386.995C130.696 386.995 132.604 386.205 134.01 384.798C135.417 383.392 136.207 381.484 136.207 379.495V369.729C136.207 368.744 136.013 367.769 135.636 366.859C135.259 365.949 134.707 365.122 134.01 364.426C133.314 363.729 132.487 363.177 131.577 362.8C130.667 362.423 129.692 362.229 128.707 362.229Z" fill="#313D40"/>
<path d="M392.749 482.158H134.249C130.271 482.158 126.455 483.738 123.642 486.551C120.829 489.364 119.249 493.179 119.249 497.158C119.249 501.136 120.829 504.951 123.642 507.764C126.455 510.577 130.271 512.158 134.249 512.158H392.749C396.727 512.158 400.543 510.577 403.356 507.764C406.169 504.951 407.749 501.136 407.749 497.158C407.749 493.179 406.169 489.364 403.356 486.551C400.543 483.738 396.727 482.158 392.749 482.158Z" fill="#FCE3A0"/>
<path d="M278.499 482.158H134.249C130.271 482.158 126.455 483.738 123.642 486.551C120.829 489.364 119.249 493.179 119.249 497.158C119.249 501.136 120.829 504.951 123.642 507.764C126.455 510.577 130.271 512.158 134.249 512.158H278.499C274.521 508.179 272.286 502.784 272.286 497.158C272.286 491.532 274.521 486.136 278.499 482.158Z" fill="#FFCE71"/>
</svg>
