<svg width="512" height="512" viewBox="0 0 512 512" fill="none" xmlns="http://www.w3.org/2000/svg">
<path d="M458.644 504.999H409.266L402.416 379.05L409.266 253.099H470.427V493.216C470.427 494.763 470.122 496.296 469.53 497.725C468.938 499.155 468.07 500.454 466.976 501.548C465.882 502.642 464.583 503.51 463.153 504.102C461.723 504.694 460.191 504.999 458.644 504.999Z" fill="#FFD6DC"/>
<path d="M470.427 346.062V253.099H409.266L404.211 346.06L470.427 346.062Z" fill="#FFBFCA"/>
<path d="M126.987 236.145H385.845V462.469H126.987V236.145Z" fill="#FE5B70"/>
<path d="M211.29 443.988C211.496 481.333 200.854 499.688 181.39 499.845C153.829 500.065 138.202 446.17 154.99 409.018C181.909 349.461 211.051 400.709 211.29 443.988Z" fill="#FFBFCA"/>
<path d="M148.702 454.139C151.602 478.98 164.167 499.983 181.393 499.845C200.854 499.689 211.506 481.337 211.3 443.992C211.189 432.461 209.259 421.021 205.582 410.092C197.799 419.756 178.524 445.358 148.702 454.144V454.139Z" fill="#FFD6DC"/>
<path d="M239.472 322.342C253.802 271.579 219.389 234.289 171.342 254.72C132.467 271.251 116.553 335.284 115.633 372.999C112.716 492.512 221.695 385.321 239.472 322.342Z" fill="#FFD6DC"/>
<path d="M229.69 346.062C233.75 338.509 237.028 330.561 239.473 322.342C253.803 271.579 219.39 234.289 171.343 254.72C140.743 267.734 124.368 310.184 118.337 346.062H229.69Z" fill="#FFBFCA"/>
<path d="M301.542 443.988C301.336 481.333 311.978 499.688 331.442 499.845C359.003 500.065 374.63 446.17 357.842 409.018C330.923 349.461 301.781 400.709 301.542 443.988Z" fill="#FFBFCA"/>
<path d="M364.13 454.139C361.23 478.98 348.665 499.983 331.439 499.845C311.978 499.689 301.339 481.332 301.539 443.988C301.643 432.46 303.567 421.022 307.239 410.095C315.016 419.758 334.308 445.353 364.13 454.139Z" fill="#FFD6DC"/>
<path d="M273.36 322.342C259.03 271.579 293.443 234.289 341.49 254.72C380.365 271.251 396.279 335.284 397.199 373.002C400.115 492.512 291.137 385.321 273.36 322.342Z" fill="#FFD6DC"/>
<path d="M283.142 346.062H394.496C388.465 310.185 372.096 267.734 341.49 254.72C293.443 234.289 259.03 271.579 273.36 322.342C275.805 330.561 279.083 338.509 283.142 346.062Z" fill="#FFBFCA"/>
<path d="M409.283 504.999H359.905C358.358 504.999 356.825 504.694 355.396 504.102C353.966 503.51 352.667 502.642 351.573 501.548C350.479 500.454 349.611 499.155 349.019 497.725C348.427 496.296 348.122 494.763 348.122 493.216V253.099H409.283V504.999Z" fill="#FF7591"/>
<path d="M348.123 253.099H409.284V346.059H348.123V253.099Z" fill="#FE5B70"/>
<path d="M42.4049 253.099H103.566L115.576 377.441L103.566 504.999H54.1879C52.6405 504.999 51.1083 504.694 49.6787 504.102C48.2492 503.51 46.9502 502.642 45.8561 501.548C44.7619 500.454 43.894 499.155 43.3018 497.725C42.7097 496.296 42.4049 494.763 42.4049 493.216V253.099Z" fill="#FFD6DC"/>
<path d="M112.545 346.062L103.566 253.099H42.4049V346.06L112.545 346.062Z" fill="#FFBFCA"/>
<path d="M152.927 504.999H103.549V253.099H164.71V493.216C164.71 496.341 163.468 499.338 161.258 501.548C159.049 503.757 156.052 504.999 152.927 504.999Z" fill="#FF7591"/>
<path d="M103.549 253.099H164.71V346.059H103.549V253.099Z" fill="#FE5B70"/>
<path d="M298.704 213.942C261.31 171.329 244.804 111.199 255.193 55.4658C259.154 34.2238 275.752 20.1008 294.307 36.1378L431.643 154.838C452.42 172.795 474.143 192.154 482.286 218.38C497.72 268.08 460.159 282.108 420.068 276.78C373.539 270.599 329.916 249.51 298.704 213.942Z" fill="#FFD6DC"/>
<path d="M214.128 213.942C251.522 171.329 268.028 111.199 257.639 55.4658C253.678 34.2238 237.08 20.1008 218.525 36.1378L81.1889 154.835C60.4119 172.792 38.6889 192.151 30.5459 218.377C15.1119 268.077 52.6729 282.105 92.7639 276.777C139.293 270.599 182.916 249.51 214.128 213.942Z" fill="#FFD6DC"/>
<path d="M107.635 212.004C99.2419 233.059 91.6669 256.124 102.257 276.165C114.113 298.603 142.892 304.188 168.129 306.851C226.721 313.032 285.982 313.39 344.535 306.851C369.081 304.11 396.748 297.464 409.253 276.165C420.159 257.59 415.358 232.689 409.353 212.004C396.553 167.95 379.688 128.709 359.036 87.7449C302.88 -23.6451 220.802 -13.3961 164.836 87.7449C143.276 126.708 124.125 170.637 107.636 212.004H107.635Z" fill="#FF7591"/>
<path d="M387.639 221.037H125.193C110.425 221.037 96.2612 215.17 85.8184 204.728C75.3756 194.285 69.5089 180.121 69.5089 165.353V142.553C69.5089 127.785 75.3756 113.621 85.8184 103.179C96.2612 92.7358 110.425 86.8691 125.193 86.8691H387.64C402.408 86.8691 416.572 92.7358 427.014 103.179C437.457 113.621 443.324 127.785 443.324 142.553V165.353C443.324 180.122 437.457 194.285 427.014 204.728C416.571 215.17 402.407 221.037 387.639 221.037Z" fill="#FFF18F"/>
<path d="M149.413 117.346C165.49 117.346 178.524 104.313 178.524 88.235C178.524 72.1575 165.49 59.124 149.413 59.124C133.335 59.124 120.302 72.1575 120.302 88.235C120.302 104.313 133.335 117.346 149.413 117.346Z" fill="#FFBE6B"/>
<path d="M256.416 117.346C272.493 117.346 285.527 104.313 285.527 88.235C285.527 72.1575 272.493 59.124 256.416 59.124C240.338 59.124 227.305 72.1575 227.305 88.235C227.305 104.313 240.338 117.346 256.416 117.346Z" fill="#FFBE6B"/>
<path d="M363.419 117.346C379.496 117.346 392.53 104.313 392.53 88.235C392.53 72.1575 379.496 59.124 363.419 59.124C347.341 59.124 334.308 72.1575 334.308 88.235C334.308 104.313 347.341 117.346 363.419 117.346Z" fill="#FFBE6B"/>
</svg>
