<svg width="512" height="512" viewBox="0 0 512 512" fill="none" xmlns="http://www.w3.org/2000/svg">
<path d="M404.839 447.945C443.936 447.945 475.63 416.251 475.63 377.154C475.63 338.057 443.936 306.363 404.839 306.363C365.742 306.363 334.048 338.057 334.048 377.154C334.048 416.251 365.742 447.945 404.839 447.945Z" fill="#D9C9F4"/>
<path d="M372.718 314.044C387.818 331.018 425.923 359.144 473.604 360.244C476.779 373.169 476.247 386.728 472.067 399.365C467.888 412.001 460.231 423.204 449.976 431.687C439.72 440.171 427.281 445.592 414.085 447.328C400.889 449.065 387.471 447.047 375.37 441.505C363.269 435.963 352.975 427.123 345.668 415.998C338.362 404.872 334.34 391.913 334.063 378.606C333.787 365.299 337.266 352.184 344.103 340.764C350.94 329.345 360.858 320.084 372.718 314.044Z" fill="#CABAF7"/>
<path d="M107.471 447.945C146.568 447.945 178.262 416.251 178.262 377.154C178.262 338.057 146.568 306.363 107.471 306.363C68.3741 306.363 36.6799 338.057 36.6799 377.154C36.6799 416.251 68.3741 447.945 107.471 447.945Z" fill="#FF7591"/>
<path d="M139.591 314.046C124.491 331.02 86.3911 359.131 38.7101 360.226C35.531 373.151 36.06 386.711 40.2363 399.35C44.4126 411.988 52.067 423.193 62.3214 431.68C72.5759 440.166 85.0149 445.59 98.2114 447.329C111.408 449.068 124.827 447.051 136.93 441.511C149.033 435.971 159.329 427.131 166.637 416.006C173.944 404.881 177.968 391.921 178.246 378.613C178.524 365.306 175.044 352.189 168.207 340.769C161.37 329.348 151.452 320.086 139.591 314.046Z" fill="#FE5B70"/>
<path d="M256.155 483.334C310.709 483.334 354.934 439.109 354.934 384.555C354.934 330.001 310.709 285.776 256.155 285.776C201.601 285.776 157.376 330.001 157.376 384.555C157.376 439.109 201.601 483.334 256.155 483.334Z" fill="#6BE3D3"/>
<path d="M307.855 436.34C307.846 446.245 309.563 456.076 312.929 465.392C329.14 453.992 341.551 437.983 348.554 419.444C355.557 400.904 356.827 380.688 352.201 361.417C338.771 368.783 327.569 379.624 319.767 392.805C311.965 405.986 307.851 421.023 307.855 436.34Z" fill="#17D9BF"/>
<path d="M160.455 359.973C155.356 379.914 156.603 400.949 164.024 420.148C171.445 439.346 184.669 455.752 201.855 467.079C209.492 447.273 209.483 425.334 201.83 405.535C194.177 385.735 179.427 369.494 160.455 359.973Z" fill="#17D9BF"/>
<path d="M256.155 194.466C253.499 194.466 250.869 193.943 248.415 192.927C245.961 191.91 243.731 190.42 241.853 188.542C239.975 186.664 238.485 184.434 237.468 181.98C236.452 179.526 235.929 176.896 235.929 174.24V67.5439C235.929 62.1796 238.06 57.035 241.853 53.2419C245.646 49.4488 250.791 47.3179 256.155 47.3179C261.519 47.3179 266.664 49.4488 270.457 53.2419C274.25 57.035 276.381 62.1796 276.381 67.5439V174.244C276.38 179.608 274.249 184.751 270.456 188.544C266.663 192.336 261.519 194.466 256.155 194.466Z" fill="#516980"/>
<path d="M39.473 15C34.5737 15 29.875 16.9463 26.4106 20.4106C22.9463 23.875 21 28.5737 21 33.473V80.479C21 82.9049 21.4778 85.3071 22.4062 87.5483C23.3345 89.7896 24.6952 91.826 26.4106 93.5414C29.875 97.0057 34.5737 98.952 39.473 98.952H472.838C475.264 98.952 477.666 98.4742 479.907 97.5458C482.149 96.6175 484.185 95.2568 485.9 93.5414C487.616 91.826 488.976 89.7896 489.905 87.5483C490.833 85.3071 491.311 82.9049 491.311 80.479V33.473C491.311 28.5736 489.364 23.8749 485.9 20.4106C482.435 16.9462 477.736 15 472.837 15L39.473 15Z" fill="#90AECF"/>
<path d="M21 39.4512V80.4792C21 82.9051 21.4778 85.3072 22.4062 87.5485C23.3345 89.7897 24.6952 91.8262 26.4106 93.5416C29.875 97.0059 34.5737 98.9522 39.473 98.9522H472.838C475.264 98.9522 477.666 98.4744 479.907 97.546C482.149 96.6176 484.185 95.2569 485.9 93.5416C487.616 91.8262 488.976 89.7897 489.905 87.5485C490.833 85.3072 491.311 82.9051 491.311 80.4792V39.4512H21Z" fill="#7C96B3"/>
<path d="M209.307 325.681C204.013 325.687 198.93 323.611 195.155 319.9C182.777 307.781 174.29 292.249 170.776 275.286C167.263 258.323 168.881 240.698 175.426 224.659C181.971 208.62 193.145 194.894 207.523 185.231C221.901 175.569 238.832 170.409 256.155 170.409C273.478 170.409 290.408 175.569 304.787 185.231C319.165 194.894 330.339 208.62 336.884 224.659C343.428 240.698 345.047 258.323 341.533 275.286C338.02 292.249 329.533 307.781 317.155 319.9C313.323 323.654 308.156 325.731 302.792 325.676C297.428 325.62 292.305 323.436 288.551 319.604C284.798 315.771 282.72 310.605 282.776 305.24C282.831 299.876 285.016 294.754 288.848 291C295.485 284.504 300.036 276.178 301.921 267.084C303.807 257.991 302.94 248.541 299.432 239.942C295.924 231.343 289.934 223.984 282.226 218.804C274.518 213.624 265.441 210.857 256.154 210.857C246.867 210.857 237.791 213.624 230.083 218.804C222.375 223.984 216.385 231.343 212.877 239.942C209.369 248.541 208.502 257.991 210.387 267.084C212.272 276.178 216.824 284.504 223.461 291C226.331 293.812 228.299 297.415 229.114 301.35C229.928 305.285 229.552 309.373 228.033 313.093C226.515 316.813 223.922 319.997 220.587 322.238C217.251 324.479 213.324 325.675 209.306 325.675L209.307 325.681Z" fill="#90AECF"/>
<path d="M173.144 135.59H75.7899C70.8208 135.589 66.0555 133.615 62.5421 130.101C59.0287 126.587 57.0549 121.821 57.0549 116.852V80.7102C57.0549 75.7411 59.0287 70.9754 62.5421 67.4615C66.0555 63.9475 70.8208 61.973 75.7899 61.9722H173.144C178.114 61.9722 182.88 63.9463 186.394 67.4604C189.908 70.9745 191.882 75.7405 191.882 80.7102V116.853C191.881 121.823 189.907 126.588 186.393 130.102C182.879 133.616 178.113 135.59 173.144 135.59Z" fill="#E7FAFF"/>
<path d="M102.118 106.281H93.9131C91.924 106.281 90.0163 105.491 88.6098 104.084C87.2033 102.678 86.4131 100.77 86.4131 98.7808C86.4131 96.7916 87.2033 94.884 88.6098 93.4775C90.0163 92.0709 91.924 91.2808 93.9131 91.2808H102.118C104.107 91.2808 106.015 92.0709 107.421 93.4775C108.828 94.884 109.618 96.7916 109.618 98.7808C109.618 100.77 108.828 102.678 107.421 104.084C106.015 105.491 104.107 106.281 102.118 106.281Z" fill="#90AECF"/>
<path d="M155.021 106.281H146.815C144.826 106.281 142.918 105.491 141.512 104.084C140.105 102.678 139.315 100.77 139.315 98.7808C139.315 96.7916 140.105 94.884 141.512 93.4775C142.918 92.0709 144.826 91.2808 146.815 91.2808H155.021C157.01 91.2808 158.918 92.0709 160.324 93.4775C161.731 94.884 162.521 96.7916 162.521 98.7808C162.521 100.77 161.731 102.678 160.324 104.084C158.918 105.491 157.01 106.281 155.021 106.281Z" fill="#90AECF"/>
<path d="M436.52 135.59H339.166C334.196 135.59 329.43 133.616 325.916 130.102C322.402 126.588 320.428 121.822 320.428 116.852V80.7102C320.428 75.7405 322.402 70.9745 325.916 67.4604C329.43 63.9463 334.196 61.9722 339.166 61.9722H436.52C441.489 61.973 446.254 63.9475 449.768 67.4615C453.281 70.9754 455.255 75.7411 455.255 80.7102V116.853C455.255 121.822 453.281 126.588 449.768 130.102C446.254 133.615 441.489 135.59 436.52 135.59Z" fill="#E7FAFF"/>
<path d="M365.495 106.281H357.289C355.3 106.281 353.392 105.491 351.986 104.084C350.579 102.678 349.789 100.77 349.789 98.7808C349.789 96.7916 350.579 94.884 351.986 93.4775C353.392 92.0709 355.3 91.2808 357.289 91.2808H365.495C367.484 91.2808 369.392 92.0709 370.798 93.4775C372.205 94.884 372.995 96.7916 372.995 98.7808C372.995 100.77 372.205 102.678 370.798 104.084C369.392 105.491 367.484 106.281 365.495 106.281Z" fill="#90AECF"/>
<path d="M418.397 106.281H410.197C408.208 106.281 406.3 105.491 404.894 104.084C403.487 102.678 402.697 100.77 402.697 98.7808C402.697 96.7916 403.487 94.884 404.894 93.4775C406.3 92.0709 408.208 91.2808 410.197 91.2808H418.397C420.386 91.2808 422.294 92.0709 423.7 93.4775C425.107 94.884 425.897 96.7916 425.897 98.7808C425.897 100.77 425.107 102.678 423.7 104.084C422.294 105.491 420.386 106.281 418.397 106.281Z" fill="#90AECF"/>
<path d="M193.674 394.089C202.186 394.089 209.086 389.133 209.086 383.02C209.086 376.907 202.186 371.951 193.674 371.951C185.162 371.951 178.262 376.907 178.262 383.02C178.262 389.133 185.162 394.089 193.674 394.089Z" fill="white"/>
<path d="M318.224 394.089C326.736 394.089 333.636 389.133 333.636 383.02C333.636 376.907 326.736 371.951 318.224 371.951C309.712 371.951 302.812 376.907 302.812 383.02C302.812 389.133 309.712 394.089 318.224 394.089Z" fill="white"/>
<path d="M266.996 377.6C263.465 379.349 259.581 380.266 255.64 380.281C251.7 380.296 247.809 379.408 244.265 377.686C242.393 376.808 240.296 376.528 238.259 376.883C236.222 377.238 234.344 378.212 232.88 379.672L232.78 379.778C231.132 381.442 229.859 383.44 229.047 385.637C228.235 387.833 227.902 390.179 228.071 392.515C228.24 394.851 228.907 397.123 230.027 399.181C231.147 401.238 232.694 403.031 234.564 404.441C240.624 409.009 248.004 411.485 255.593 411.498C263.181 411.511 270.569 409.059 276.645 404.512C278.532 403.1 280.092 401.298 281.221 399.228C282.349 397.159 283.019 394.871 283.184 392.52C283.35 390.169 283.007 387.81 282.179 385.603C281.352 383.396 280.059 381.393 278.388 379.731L278.233 379.577C276.787 378.139 274.935 377.179 272.927 376.826C270.919 376.472 268.85 376.742 267 377.599L266.996 377.6Z" fill="#333942"/>
<path d="M201.586 382.891C199.597 382.891 197.689 382.101 196.283 380.694C194.876 379.288 194.086 377.38 194.086 375.391V366.635C194.086 364.646 194.876 362.738 196.283 361.331C197.689 359.925 199.597 359.135 201.586 359.135C203.575 359.135 205.483 359.925 206.889 361.331C208.296 362.738 209.086 364.646 209.086 366.635V375.391C209.086 377.38 208.296 379.288 206.889 380.694C205.483 382.101 203.575 382.891 201.586 382.891Z" fill="#333942"/>
<path d="M310.724 382.891C308.735 382.891 306.827 382.101 305.421 380.694C304.014 379.288 303.224 377.38 303.224 375.391V366.635C303.224 364.646 304.014 362.738 305.421 361.331C306.827 359.925 308.735 359.135 310.724 359.135C312.713 359.135 314.621 359.925 316.027 361.331C317.434 362.738 318.224 364.646 318.224 366.635V375.391C318.224 377.38 317.434 379.288 316.027 380.694C314.621 382.101 312.713 382.891 310.724 382.891Z" fill="#333942"/>
<path d="M111.033 512C150.13 512 181.824 480.306 181.824 441.209C181.824 402.112 150.13 370.418 111.033 370.418C71.9362 370.418 40.2419 402.112 40.2419 441.209C40.2419 480.306 71.9362 512 111.033 512Z" fill="#FFD6DC"/>
<path d="M123.241 371.459C121.033 386.546 111.018 458.234 55.009 484.488C67.582 501.477 88.237 512 111.033 512C128.751 512.002 145.826 505.361 158.886 493.387C171.946 481.414 180.042 464.979 181.576 447.327C183.109 429.675 177.968 412.09 167.168 398.044C156.368 383.998 140.694 374.512 123.241 371.459Z" fill="#FFBFCA"/>
<path d="M401.277 512C440.374 512 472.068 480.306 472.068 441.209C472.068 402.112 440.374 370.418 401.277 370.418C362.18 370.418 330.486 402.112 330.486 441.209C330.486 480.306 362.18 512 401.277 512Z" fill="#FFF18F"/>
<path d="M389.069 371.459C391.277 386.546 401.292 458.234 457.301 484.488C444.728 501.477 424.073 512 401.277 512C383.559 512.002 366.484 505.361 353.424 493.387C340.364 481.414 332.268 464.979 330.734 447.327C329.201 429.675 334.342 412.09 345.142 398.044C355.942 383.998 371.616 374.512 389.069 371.459Z" fill="#FFDE83"/>
</svg>
