<svg width="512" height="512" viewBox="0 0 512 512" fill="none" xmlns="http://www.w3.org/2000/svg">
<path d="M104.248 346.669H62.419C57.0216 346.669 51.804 348.609 47.718 352.136C43.6321 355.663 40.95 360.541 40.161 365.88L23 482L83.333 497L143.667 482L126.506 365.879C125.721 360.538 123.04 355.657 118.953 352.13C114.866 348.603 109.647 346.664 104.248 346.669Z" fill="#C9AAF2"/>
<path d="M143.667 482H23C19.0218 482 15.2064 483.58 12.3934 486.393C9.58035 489.206 8 493.022 8 497C8 500.978 9.58035 504.794 12.3934 507.607C15.2064 510.42 19.0218 512 23 512H143.667C147.645 512 151.461 510.42 154.274 507.607C157.087 504.794 158.667 500.978 158.667 497C158.667 493.022 157.087 489.206 154.274 486.393C151.461 483.58 147.645 482 143.667 482Z" fill="#EFEDFF"/>
<path d="M70.75 482H23C19.0218 482 15.2064 483.58 12.3934 486.393C9.58035 489.206 8 493.022 8 497C8 500.978 9.58035 504.794 12.3934 507.607C15.2064 510.42 19.0218 512 23 512H70.75C66.7719 508.022 64.5371 502.626 64.5371 497C64.5371 491.374 66.7719 485.978 70.75 482Z" fill="#D4D4FF"/>
<path d="M88.2 365.879C88.9118 361.068 91.1623 356.617 94.6147 353.192C98.0671 349.767 102.536 347.552 107.352 346.879C106.323 346.736 105.285 346.665 104.246 346.666H62.419C57.0217 346.666 51.8043 348.606 47.7183 352.133C43.6324 355.659 40.9502 360.537 40.161 365.876L23 482H70.75L88.2 365.879Z" fill="#B28AE4"/>
<path d="M277.414 346.669H235.585C230.188 346.669 224.97 348.609 220.884 352.136C216.798 355.663 214.116 360.541 213.327 365.88L196.167 482L256.5 497L316.833 482L299.672 365.879C298.887 360.538 296.206 355.657 292.119 352.13C288.032 348.603 282.813 346.664 277.414 346.669Z" fill="#FFB39D"/>
<path d="M316.833 482H196.167C192.189 482 188.373 483.58 185.56 486.393C182.747 489.206 181.167 493.022 181.167 497C181.167 500.978 182.747 504.794 185.56 507.607C188.373 510.42 192.189 512 196.167 512H316.834C320.812 512 324.628 510.42 327.441 507.607C330.254 504.794 331.834 500.978 331.834 497C331.834 493.022 330.254 489.206 327.441 486.393C324.628 483.58 320.812 482 316.834 482H316.833Z" fill="#EFEDFF"/>
<path d="M243.917 482H196.167C192.189 482 188.373 483.58 185.56 486.393C182.747 489.206 181.167 493.022 181.167 497C181.167 500.978 182.747 504.794 185.56 507.607C188.373 510.42 192.189 512 196.167 512H243.917C241.947 510.03 240.384 507.692 239.318 505.118C238.252 502.544 237.703 499.786 237.703 497C237.703 494.214 238.252 491.456 239.318 488.882C240.384 486.308 241.947 483.97 243.917 482Z" fill="#D4D4FF"/>
<path d="M261.368 365.879C262.08 361.068 264.33 356.617 267.783 353.192C271.235 349.767 275.704 347.552 280.52 346.879C279.491 346.736 278.453 346.665 277.414 346.666H235.585C230.188 346.666 224.97 348.606 220.884 352.133C216.798 355.659 214.116 360.537 213.327 365.876L196.167 482H243.917L261.368 365.879Z" fill="#FF8F71"/>
<path d="M450.581 346.669H408.752C403.355 346.669 398.137 348.609 394.051 352.136C389.965 355.663 387.283 360.541 386.494 365.88L369.333 482L429.666 497L490 482L472.839 365.879C472.054 360.538 469.373 355.657 465.286 352.13C461.199 348.603 455.98 346.664 450.581 346.669Z" fill="#5FD9B3"/>
<path d="M490 482H369.333C365.355 482 361.539 483.58 358.726 486.393C355.913 489.206 354.333 493.022 354.333 497C354.333 500.978 355.913 504.794 358.726 507.607C361.539 510.42 365.355 512 369.333 512H490C493.978 512 497.794 510.42 500.607 507.607C503.42 504.794 505 500.978 505 497C505 493.022 503.42 489.206 500.607 486.393C497.794 483.58 493.978 482 490 482Z" fill="#EFEDFF"/>
<path d="M417.083 482H369.333C365.355 482 361.539 483.58 358.726 486.393C355.913 489.206 354.333 493.022 354.333 497C354.333 500.978 355.913 504.794 358.726 507.607C361.539 510.42 365.355 512 369.333 512H417.083C413.105 508.022 410.87 502.626 410.87 497C410.87 491.374 413.105 485.978 417.083 482Z" fill="#D4D4FF"/>
<path d="M434.534 365.879C435.246 361.068 437.496 356.617 440.949 353.192C444.401 349.767 448.87 347.552 453.686 346.879C452.657 346.736 451.619 346.665 450.58 346.666H408.751C403.354 346.666 398.136 348.606 394.05 352.133C389.964 355.659 387.282 360.537 386.493 365.876L369.333 482H417.083L434.534 365.879Z" fill="#00CE8E"/>
<path d="M190.831 181.338H149C143.603 181.338 138.385 183.278 134.299 186.805C130.213 190.332 127.531 195.209 126.742 200.549L109.583 316.67L169.916 331.67L230.249 316.67L213.088 200.549C212.302 195.208 209.62 190.329 205.534 186.802C201.448 183.275 196.229 181.336 190.831 181.338Z" fill="#FCE3A0"/>
<path d="M230.25 316.669H109.583C105.605 316.669 101.789 318.249 98.9764 321.062C96.1634 323.875 94.583 327.691 94.583 331.669C94.583 335.647 96.1634 339.462 98.9764 342.276C101.789 345.089 105.605 346.669 109.583 346.669H230.25C234.228 346.669 238.044 345.089 240.857 342.276C243.67 339.462 245.25 335.647 245.25 331.669C245.25 327.691 243.67 323.875 240.857 321.062C238.044 318.249 234.228 316.669 230.25 316.669Z" fill="#EFEDFF"/>
<path d="M157.333 316.669H109.583C105.605 316.669 101.789 318.249 98.9764 321.062C96.1634 323.875 94.583 327.691 94.583 331.669C94.583 335.647 96.1634 339.462 98.9764 342.276C101.789 345.089 105.605 346.669 109.583 346.669H157.333C153.355 342.691 151.12 337.295 151.12 331.669C151.12 326.043 153.355 320.647 157.333 316.669Z" fill="#D4D4FF"/>
<path d="M174.785 200.548C175.497 195.737 177.747 191.286 181.2 187.861C184.652 184.436 189.121 182.221 193.937 181.548C192.908 181.405 191.87 181.334 190.831 181.335H149C143.603 181.335 138.385 183.275 134.299 186.802C130.213 190.328 127.531 195.206 126.742 200.545L109.583 316.669H157.333L174.785 200.548Z" fill="#FFCE71"/>
<path d="M277.521 15H235.692C224.536 15 214.958 24.181 213.327 35.217L196.166 151.338L256.499 166.338L316.832 151.338L299.673 35.217C298.196 25.222 290.394 16.567 280.628 15.217C279.599 15.0734 278.56 15.0009 277.521 15V15Z" fill="#5FD9B3"/>
<path d="M316.833 151.338H196.167C192.189 151.338 188.373 152.918 185.56 155.731C182.747 158.544 181.167 162.36 181.167 166.338C181.167 170.316 182.747 174.131 185.56 176.944C188.373 179.758 192.189 181.338 196.167 181.338H316.834C320.812 181.338 324.628 179.758 327.441 176.944C330.254 174.131 331.834 170.316 331.834 166.338C331.834 162.36 330.254 158.544 327.441 155.731C324.628 152.918 320.812 151.338 316.834 151.338H316.833Z" fill="#EFEDFF"/>
<path d="M243.917 151.338H196.167C192.189 151.338 188.373 152.918 185.56 155.731C182.747 158.544 181.167 162.36 181.167 166.338C181.167 170.316 182.747 174.131 185.56 176.944C188.373 179.758 192.189 181.338 196.167 181.338H243.917C241.947 179.368 240.384 177.03 239.318 174.456C238.252 171.882 237.703 169.124 237.703 166.338C237.703 163.552 238.252 160.794 239.318 158.22C240.384 155.646 241.947 153.308 243.917 151.338Z" fill="#D4D4FF"/>
<path d="M261.368 35.217C262.845 25.224 270.868 16.57 280.627 15.217C279.598 15.0728 278.56 15.0003 277.521 15L235.692 15C224.536 15 214.958 24.181 213.327 35.217L196.166 151.338H243.916L261.368 35.217Z" fill="#00CE8E"/>
<path d="M364 181.338H322.169C316.772 181.338 311.554 183.278 307.468 186.805C303.382 190.332 300.7 195.209 299.911 200.549L282.75 316.669L343.083 331.669L403.417 316.669L386.256 200.548C385.471 195.207 382.791 190.327 378.704 186.8C374.618 183.273 369.398 181.334 364 181.338Z" fill="#88C5FD"/>
<path d="M403.417 316.669H282.75C278.772 316.669 274.956 318.249 272.143 321.062C269.33 323.875 267.75 327.691 267.75 331.669C267.75 335.647 269.33 339.462 272.143 342.276C274.956 345.089 278.772 346.669 282.75 346.669H403.417C407.395 346.669 411.211 345.089 414.024 342.276C416.837 339.462 418.417 335.647 418.417 331.669C418.417 327.691 416.837 323.875 414.024 321.062C411.211 318.249 407.395 316.669 403.417 316.669Z" fill="#EFEDFF"/>
<path d="M330.5 316.669H282.75C278.772 316.669 274.956 318.249 272.143 321.062C269.33 323.875 267.75 327.691 267.75 331.669C267.75 335.647 269.33 339.462 272.143 342.276C274.956 345.089 278.772 346.669 282.75 346.669H330.5C326.522 342.691 324.287 337.295 324.287 331.669C324.287 326.043 326.522 320.647 330.5 316.669Z" fill="#D4D4FF"/>
<path d="M347.951 200.548C348.663 195.737 350.913 191.286 354.366 187.861C357.818 184.436 362.287 182.221 367.103 181.548C366.074 181.405 365.036 181.334 363.997 181.335H322.168C316.771 181.335 311.553 183.275 307.467 186.802C303.381 190.328 300.699 195.206 299.91 200.545L282.75 316.669H330.5L347.951 200.548Z" fill="#64B3FB"/>
<path d="M460 110.712C445.198 104.252 428.706 102.742 412.977 106.408C397.248 110.074 383.123 118.719 372.702 131.057C362.281 143.396 356.121 158.769 355.139 174.889C354.157 191.009 358.404 207.016 367.25 220.529C376.096 234.041 389.067 244.338 404.234 249.886C419.402 255.434 435.955 255.938 451.432 251.323C466.909 246.708 480.482 237.221 490.134 224.271C499.786 211.322 505 195.603 505 179.453C505.039 164.851 500.797 150.558 492.799 138.34C484.802 126.123 473.399 116.518 460 110.712Z" fill="#FF8E9E"/>
<path d="M415 179.454C415 164.86 419.257 150.584 427.25 138.374C435.243 126.163 446.625 116.551 460 110.713C448.587 105.733 436.113 103.673 423.704 104.719C411.295 105.766 399.342 109.885 388.924 116.706C378.505 123.527 369.949 132.835 364.028 143.79C358.106 154.745 355.005 167.001 355.005 179.454C355.005 191.907 358.106 204.164 364.028 215.118C369.949 226.073 378.505 235.381 388.924 242.202C399.342 249.023 411.295 253.143 423.704 254.189C436.113 255.235 448.587 253.175 460 248.195C446.625 242.358 435.243 232.745 427.25 220.535C419.257 208.325 415 194.048 415 179.454Z" fill="#F46C86"/>
</svg>
