<svg width="512" height="512" viewBox="0 0 512 512" fill="none" xmlns="http://www.w3.org/2000/svg">
<path d="M424.8 504C420.972 504.005 417.207 503.032 413.86 501.174C410.513 499.317 407.696 496.635 405.675 493.384L256.5 253.635L107.325 493.384C104.172 498.451 99.1362 502.057 93.3243 503.411C87.5123 504.764 81.4008 503.754 76.3341 500.601C71.2674 497.448 67.6606 492.412 66.3071 486.6C64.9537 480.788 65.9645 474.677 69.1171 469.61L237.4 199.158C239.42 195.911 242.234 193.233 245.577 191.376C248.92 189.519 252.68 188.544 256.504 188.544C260.328 188.544 264.089 189.519 267.431 191.376C270.774 193.233 273.588 195.911 275.608 199.158L443.883 469.61C446.003 473.015 447.174 476.926 447.274 480.936C447.375 484.946 446.402 488.91 444.455 492.417C442.509 495.925 439.66 498.848 436.205 500.884C432.749 502.921 428.811 503.997 424.8 504Z" fill="#D4D4FF"/>
<path d="M256.5 30.7502C282.273 30.7131 307.729 36.4274 331.012 47.4768C354.296 58.5262 374.821 74.632 391.09 94.6202L408.51 80.3802C390.106 57.8387 366.918 39.6725 340.628 27.1972C314.337 14.722 285.6 8.25 256.5 8.25C227.399 8.25 198.663 14.722 172.372 27.1972C146.081 39.6725 122.894 57.8387 104.489 80.3802L121.909 94.6202C138.179 74.632 158.704 58.5262 181.988 47.4769C205.272 36.4275 230.728 30.7131 256.5 30.7502Z" fill="#9EA2E3"/>
<path d="M83.1001 183.773L60.7731 180.989C57.7105 205.537 59.28 230.441 65.4001 254.41L87.1941 248.818C83.5723 234.664 81.7433 220.111 81.7501 205.5C81.7522 198.237 82.203 190.981 83.1001 183.773Z" fill="#9EA2E3"/>
<path d="M452.228 180.989L429.9 183.773C430.797 190.981 431.248 198.237 431.25 205.5C431.258 220.111 429.429 234.664 425.808 248.818L447.6 254.41C453.72 230.441 455.289 205.537 452.226 180.989H452.228Z" fill="#9EA2E3"/>
<path d="M256.5 380.25C229.338 380.184 202.565 373.781 178.312 361.551C154.059 349.321 132.993 331.601 116.791 309.8L98.7109 323.2C116.952 347.887 140.73 367.949 168.135 381.774C195.539 395.599 225.806 402.801 256.5 402.801C287.194 402.801 317.46 395.599 344.865 381.774C372.27 367.949 396.048 347.887 414.289 323.2L396.209 309.8C380.007 331.601 358.941 349.321 334.688 361.551C310.434 373.781 283.662 380.184 256.5 380.25Z" fill="#9EA2E3"/>
<path d="M241.5 434L226.5 444L211.5 434V404L226.5 394L241.5 404V434Z" fill="#9EA2E3"/>
<path d="M301.5 434L286.5 444L271.5 434V404L286.5 394L301.5 404V434Z" fill="#D4D4FF"/>
<path d="M211.5 404H301.5C305.478 404 309.294 402.42 312.107 399.607C314.92 396.794 316.5 392.978 316.5 389C316.5 385.022 314.92 381.206 312.107 378.393C309.294 375.58 305.478 374 301.5 374H211.5C207.522 374 203.706 375.58 200.893 378.393C198.08 381.206 196.5 385.022 196.5 389C196.5 392.978 198.08 396.794 200.893 399.607C203.706 402.42 207.522 404 211.5 404Z" fill="#FFB5C0"/>
<path d="M301.5 434H211.5C207.522 434 203.706 435.58 200.893 438.393C198.08 441.206 196.5 445.022 196.5 449V459C196.5 470.935 201.241 482.381 209.68 490.82C218.119 499.259 229.565 504 241.5 504H271.5C283.433 503.995 294.876 499.252 303.314 490.814C311.752 482.376 316.495 470.933 316.5 459V449C316.5 445.022 314.92 441.206 312.107 438.393C309.294 435.58 305.478 434 301.5 434Z" fill="#FFB5C0"/>
<path d="M211.5 404H261.5C257.522 404 253.706 402.42 250.893 399.607C248.08 396.794 246.5 392.978 246.5 389C246.5 385.022 248.08 381.206 250.893 378.393C253.706 375.58 257.522 374 261.5 374H211.5C207.522 374 203.706 375.58 200.893 378.393C198.08 381.206 196.5 385.022 196.5 389C196.5 392.978 198.08 396.794 200.893 399.607C203.706 402.42 207.522 404 211.5 404Z" fill="#FF8E9E"/>
<path d="M246.5 459V449C246.5 445.022 248.08 441.206 250.893 438.393C253.706 435.58 257.522 434 261.5 434H211.5C207.522 434 203.706 435.58 200.893 438.393C198.08 441.206 196.5 445.022 196.5 449V459C196.5 470.935 201.241 482.381 209.68 490.82C218.119 499.259 229.565 504 241.5 504H271.5C274.865 503.998 278.219 503.619 281.5 502.871C271.56 500.604 262.683 495.029 256.325 487.059C249.966 479.089 246.502 469.196 246.5 459Z" fill="#FF8E9E"/>
<path d="M53 133.5L38 143.5L23 133.5V103.5L38 93.5L53 103.5V133.5Z" fill="#9EA2E3"/>
<path d="M113 133.5L98 143.5L83 133.5V103.5L98 93.5L113 103.5V133.5Z" fill="#D4D4FF"/>
<path d="M23 103.5H113C116.978 103.5 120.794 101.92 123.607 99.1066C126.42 96.2936 128 92.4782 128 88.5C128 84.5218 126.42 80.7064 123.607 77.8934C120.794 75.0803 116.978 73.5 113 73.5H23C19.0218 73.5 15.2064 75.0803 12.3934 77.8934C9.58035 80.7064 8 84.5218 8 88.5C8 92.4782 9.58035 96.2936 12.3934 99.1066C15.2064 101.92 19.0218 103.5 23 103.5Z" fill="#FCE3A0"/>
<path d="M113 133.5H23C19.0218 133.5 15.2064 135.08 12.3934 137.893C9.58035 140.706 8 144.522 8 148.5L8 158.5C8 164.409 9.16396 170.261 11.4254 175.721C13.6869 181.18 17.0016 186.141 21.1802 190.32C29.6193 198.759 41.0653 203.5 53 203.5H83C94.9332 203.495 106.376 198.752 114.814 190.314C123.252 181.876 127.995 170.433 128 158.5V148.5C128 144.522 126.42 140.706 123.607 137.893C120.794 135.08 116.978 133.5 113 133.5Z" fill="#FCE3A0"/>
<path d="M23 103.5H73C69.0218 103.5 65.2064 101.92 62.3934 99.1066C59.5804 96.2936 58 92.4782 58 88.5C58 84.5218 59.5804 80.7064 62.3934 77.8934C65.2064 75.0803 69.0218 73.5 73 73.5H23C19.0218 73.5 15.2064 75.0803 12.3934 77.8934C9.58035 80.7064 8 84.5218 8 88.5C8 92.4782 9.58035 96.2936 12.3934 99.1066C15.2064 101.92 19.0218 103.5 23 103.5Z" fill="#FFCE71"/>
<path d="M58 158.5V148.5C58 144.522 59.5804 140.706 62.3934 137.893C65.2064 135.08 69.0218 133.5 73 133.5H23C19.0218 133.5 15.2064 135.08 12.3934 137.893C9.58035 140.706 8 144.522 8 148.5L8 158.5C8 164.409 9.16396 170.261 11.4254 175.721C13.6869 181.18 17.0016 186.141 21.1802 190.32C29.6193 198.759 41.0653 203.5 53 203.5H83C86.365 203.498 89.7192 203.119 93 202.371C83.0595 200.104 74.1833 194.529 67.8248 186.559C61.4663 178.589 58.0023 168.696 58 158.5Z" fill="#FFCE71"/>
<path d="M430 133.5L415 143.5L400 133.5V103.5L415 93.5L430 103.5V133.5Z" fill="#9EA2E3"/>
<path d="M490 133.5L475 143.5L460 133.5V103.5L475 93.5L490 103.5V133.5Z" fill="#D4D4FF"/>
<path d="M400 103.5H490C493.978 103.5 497.794 101.92 500.607 99.1066C503.42 96.2936 505 92.4782 505 88.5C505 84.5218 503.42 80.7064 500.607 77.8934C497.794 75.0803 493.978 73.5 490 73.5H400C396.022 73.5 392.206 75.0803 389.393 77.8934C386.58 80.7064 385 84.5218 385 88.5C385 92.4782 386.58 96.2936 389.393 99.1066C392.206 101.92 396.022 103.5 400 103.5Z" fill="#7CE3FF"/>
<path d="M490 133.5H400C396.022 133.5 392.206 135.08 389.393 137.893C386.58 140.706 385 144.522 385 148.5V158.5C385 164.409 386.164 170.261 388.425 175.721C390.687 181.18 394.002 186.141 398.18 190.32C406.619 198.759 418.065 203.5 430 203.5H460C471.933 203.495 483.376 198.752 491.814 190.314C500.252 181.876 504.995 170.433 505 158.5V148.5C505 144.522 503.42 140.706 500.607 137.893C497.794 135.08 493.978 133.5 490 133.5Z" fill="#7CE3FF"/>
<path d="M400 103.5H450C446.022 103.5 442.206 101.92 439.393 99.1066C436.58 96.2936 435 92.4782 435 88.5C435 84.5218 436.58 80.7064 439.393 77.8934C442.206 75.0803 446.022 73.5 450 73.5H400C396.022 73.5 392.206 75.0803 389.393 77.8934C386.58 80.7064 385 84.5218 385 88.5C385 92.4782 386.58 96.2936 389.393 99.1066C392.206 101.92 396.022 103.5 400 103.5Z" fill="#2ED0FC"/>
<path d="M435 158.5V148.5C435 144.522 436.58 140.706 439.393 137.893C442.206 135.08 446.022 133.5 450 133.5H400C396.022 133.5 392.206 135.08 389.393 137.893C386.58 140.706 385 144.522 385 148.5V158.5C385 164.409 386.164 170.261 388.425 175.721C390.687 181.18 394.002 186.141 398.18 190.32C406.619 198.759 418.065 203.5 430 203.5H460C463.365 203.498 466.719 203.119 470 202.371C460.06 200.104 451.183 194.529 444.825 186.559C438.466 178.589 435.002 168.696 435 158.5Z" fill="#2ED0FC"/>
<path d="M53 300.5L38 310.5L23 300.5V270.5L38 260.5L53 270.5V300.5Z" fill="#9EA2E3"/>
<path d="M113 300.5L98 310.5L83 300.5V270.5L98 260.5L113 270.5V300.5Z" fill="#D4D4FF"/>
<path d="M23 270.5H113C116.978 270.5 120.794 268.92 123.607 266.107C126.42 263.294 128 259.478 128 255.5C128 251.522 126.42 247.706 123.607 244.893C120.794 242.08 116.978 240.5 113 240.5H23C19.0218 240.5 15.2064 242.08 12.3934 244.893C9.58035 247.706 8 251.522 8 255.5C8 259.478 9.58035 263.294 12.3934 266.107C15.2064 268.92 19.0218 270.5 23 270.5Z" fill="#FFB39D"/>
<path d="M113 300.5H23C19.0218 300.5 15.2064 302.08 12.3934 304.893C9.58035 307.706 8 311.522 8 315.5L8 325.5C8 337.435 12.7411 348.881 21.1802 357.32C29.6193 365.759 41.0653 370.5 53 370.5H83C94.9332 370.495 106.376 365.752 114.814 357.314C123.252 348.876 127.995 337.433 128 325.5V315.5C128 311.522 126.42 307.706 123.607 304.893C120.794 302.08 116.978 300.5 113 300.5Z" fill="#FFB39D"/>
<path d="M23 270.5H73C69.0218 270.5 65.2064 268.92 62.3934 266.107C59.5804 263.294 58 259.478 58 255.5C58 251.522 59.5804 247.706 62.3934 244.893C65.2064 242.08 69.0218 240.5 73 240.5H23C19.0218 240.5 15.2064 242.08 12.3934 244.893C9.58035 247.706 8 251.522 8 255.5C8 259.478 9.58035 263.294 12.3934 266.107C15.2064 268.92 19.0218 270.5 23 270.5Z" fill="#FF8F71"/>
<path d="M58 325.5V315.5C58 311.522 59.5804 307.706 62.3934 304.893C65.2064 302.08 69.0218 300.5 73 300.5H23C19.0218 300.5 15.2064 302.08 12.3934 304.893C9.58035 307.706 8 311.522 8 315.5L8 325.5C8 337.435 12.7411 348.881 21.1802 357.32C29.6193 365.759 41.0653 370.5 53 370.5H83C86.365 370.498 89.7192 370.119 93 369.371C83.0595 367.104 74.1833 361.529 67.8248 353.559C61.4663 345.589 58.0023 335.696 58 325.5Z" fill="#FF8F71"/>
<path d="M430 300.5L415 310.5L400 300.5V270.5L415 260.5L430 270.5V300.5Z" fill="#9EA2E3"/>
<path d="M490 300.5L475 310.5L460 300.5V270.5L475 260.5L490 270.5V300.5Z" fill="#D4D4FF"/>
<path d="M400 270.5H490C493.978 270.5 497.794 268.92 500.607 266.107C503.42 263.294 505 259.478 505 255.5C505 251.522 503.42 247.706 500.607 244.893C497.794 242.08 493.978 240.5 490 240.5H400C396.022 240.5 392.206 242.08 389.393 244.893C386.58 247.706 385 251.522 385 255.5C385 259.478 386.58 263.294 389.393 266.107C392.206 268.92 396.022 270.5 400 270.5Z" fill="#C9AAF2"/>
<path d="M490 300.5H400C396.022 300.5 392.206 302.08 389.393 304.893C386.58 307.706 385 311.522 385 315.5V325.5C385 337.435 389.741 348.881 398.18 357.32C406.619 365.759 418.065 370.5 430 370.5H460C471.933 370.495 483.376 365.752 491.814 357.314C500.252 348.876 504.995 337.433 505 325.5V315.5C505 311.522 503.42 307.706 500.607 304.893C497.794 302.08 493.978 300.5 490 300.5Z" fill="#C9AAF2"/>
<path d="M400 270.5H450C446.022 270.5 442.206 268.92 439.393 266.107C436.58 263.294 435 259.478 435 255.5C435 251.522 436.58 247.706 439.393 244.893C442.206 242.08 446.022 240.5 450 240.5H400C396.022 240.5 392.206 242.08 389.393 244.893C386.58 247.706 385 251.522 385 255.5C385 259.478 386.58 263.294 389.393 266.107C392.206 268.92 396.022 270.5 400 270.5Z" fill="#B28AE4"/>
<path d="M435 325.5V315.5C435 311.522 436.58 307.706 439.393 304.893C442.206 302.08 446.022 300.5 450 300.5H400C396.022 300.5 392.206 302.08 389.393 304.893C386.58 307.706 385 311.522 385 315.5V325.5C385 337.435 389.741 348.881 398.18 357.32C406.619 365.759 418.065 370.5 430 370.5H460C463.365 370.498 466.719 370.119 470 369.371C460.06 367.104 451.183 361.529 444.825 353.559C438.466 345.589 435.002 335.696 435 325.5Z" fill="#B28AE4"/>
<path d="M241.5 67L226.5 77L211.5 67V37L226.5 27L241.5 37V67Z" fill="#9EA2E3"/>
<path d="M301.5 67L286.5 77L271.5 67V37L286.5 27L301.5 37V67Z" fill="#D4D4FF"/>
<path d="M211.5 37H301.5C305.478 37 309.294 35.4196 312.107 32.6066C314.92 29.7936 316.5 25.9782 316.5 22C316.5 18.0218 314.92 14.2064 312.107 11.3934C309.294 8.58035 305.478 7 301.5 7L211.5 7C207.522 7 203.706 8.58035 200.893 11.3934C198.08 14.2064 196.5 18.0218 196.5 22C196.5 25.9782 198.08 29.7936 200.893 32.6066C203.706 35.4196 207.522 37 211.5 37Z" fill="#B0EBD8"/>
<path d="M301.5 67H211.5C207.522 67 203.706 68.5803 200.893 71.3934C198.08 74.2064 196.5 78.0218 196.5 82V92C196.5 103.935 201.241 115.381 209.68 123.82C218.119 132.259 229.565 137 241.5 137H271.5C283.433 136.995 294.876 132.252 303.314 123.814C311.752 115.376 316.495 103.933 316.5 92V82C316.5 78.0218 314.92 74.2064 312.107 71.3934C309.294 68.5803 305.478 67 301.5 67Z" fill="#B0EBD8"/>
<path d="M211.5 37H261.5C257.522 37 253.706 35.4196 250.893 32.6066C248.08 29.7936 246.5 25.9782 246.5 22C246.5 18.0218 248.08 14.2064 250.893 11.3934C253.706 8.58035 257.522 7 261.5 7H211.5C207.522 7 203.706 8.58035 200.893 11.3934C198.08 14.2064 196.5 18.0218 196.5 22C196.5 25.9782 198.08 29.7936 200.893 32.6066C203.706 35.4196 207.522 37 211.5 37Z" fill="#5FD9B3"/>
<path d="M246.5 92V82C246.5 78.0218 248.08 74.2064 250.893 71.3934C253.706 68.5803 257.522 67 261.5 67H211.5C207.522 67 203.706 68.5803 200.893 71.3934C198.08 74.2064 196.5 78.0218 196.5 82V92C196.5 103.935 201.241 115.381 209.68 123.82C218.119 132.259 229.565 137 241.5 137H271.5C274.865 136.998 278.219 136.619 281.5 135.871C271.56 133.604 262.683 128.029 256.325 120.059C249.966 112.089 246.502 102.196 246.5 92Z" fill="#5FD9B3"/>
<path d="M256.5 253.635C283.084 253.635 304.635 232.084 304.635 205.5C304.635 178.916 283.084 157.365 256.5 157.365C229.916 157.365 208.365 178.916 208.365 205.5C208.365 232.084 229.916 253.635 256.5 253.635Z" fill="#9EA2E3"/>
</svg>
