<svg width="512" height="512" viewBox="0 0 512 512" fill="none" xmlns="http://www.w3.org/2000/svg">
<path d="M83.4651 479.819C83.4843 486.226 86.0383 492.366 90.5692 496.896C95.1001 501.427 101.24 503.98 107.647 503.999H107.786C114.194 503.98 120.334 501.426 124.865 496.896C129.396 492.365 131.949 486.225 131.968 479.817V166.017C131.949 159.609 129.396 153.469 124.865 148.938C120.334 144.407 114.194 141.854 107.786 141.835H107.647C101.239 141.854 95.0995 144.407 90.5685 148.938C86.0376 153.469 83.4838 159.609 83.4651 166.017V479.819Z" fill="#FFD3A3"/>
<path d="M131.968 265.387V166.015C131.949 159.607 129.396 153.467 124.865 148.936C120.334 144.405 114.194 141.852 107.786 141.833H107.647C101.239 141.852 95.0995 144.405 90.5685 148.936C86.0376 153.467 83.4838 159.607 83.4651 166.015V265.387H131.968Z" fill="#F9C290"/>
<path d="M315.23 453.762C297.43 453.762 279.63 445.191 268.078 433.454C252.14 417.268 244.083 392.534 246.525 367.292C246.976 362.635 249.258 358.348 252.87 355.374C256.481 352.4 261.126 350.983 265.783 351.434C270.44 351.885 274.726 354.167 277.7 357.778C280.674 361.39 282.092 366.035 281.641 370.692C280.192 385.659 284.519 399.868 293.219 408.699C308.292 424.007 322.559 417.785 336.271 405.528C349.121 394.04 365.121 379.742 384.922 382.22C396.959 383.725 407.54 391.136 416.372 404.249C418.985 408.129 419.95 412.889 419.054 417.481C418.158 422.073 415.474 426.12 411.594 428.734C407.713 431.347 402.954 432.312 398.362 431.416C393.77 430.52 389.722 427.836 387.109 423.956C378.276 410.839 368.469 424.067 359.785 431.83C346.751 443.483 333.46 453.76 315.233 453.76L315.23 453.762Z" fill="#E7886E"/>
<path d="M288.219 402.253C282.931 393.678 280.504 382.424 281.64 370.69C282.091 366.033 280.674 361.388 277.7 357.776C274.726 354.165 270.439 351.883 265.782 351.432C261.126 350.981 256.481 352.398 252.869 355.372C249.257 358.346 246.975 362.633 246.524 367.29C245.358 379.053 246.514 390.931 249.924 402.25L288.219 402.253Z" fill="#DC6646"/>
<path d="M195.488 377.273H292.747C294.611 377.273 296.457 376.906 298.179 376.193C299.901 375.479 301.465 374.434 302.783 373.116C304.101 371.798 305.147 370.233 305.86 368.511C306.573 366.789 306.94 364.944 306.94 363.08V306.751L245.397 296.389L181.297 306.751V363.08C181.297 366.844 182.793 370.454 185.454 373.115C188.116 375.777 191.726 377.272 195.49 377.273H195.488Z" fill="#E7FAFF"/>
<path d="M220.31 300.445L181.295 306.751V363.08C181.295 364.944 181.662 366.789 182.375 368.511C183.088 370.233 184.134 371.798 185.452 373.116C186.77 374.434 188.334 375.479 190.056 376.193C191.778 376.906 193.624 377.273 195.488 377.273H220.31V300.445Z" fill="#C1F1FF"/>
<path d="M181.295 95.9277H306.94V306.751H181.295V95.9277Z" fill="#FFF18F"/>
<path d="M263.006 264.055H306.94V95.9277H181.295V306.751H220.31C220.31 295.426 224.809 284.565 232.816 276.557C240.824 268.549 251.685 264.051 263.01 264.051L263.006 264.055Z" fill="#FFDE83"/>
<path d="M312.911 232.991H63.484C60.6626 232.991 57.8687 232.435 55.2621 231.356C52.6554 230.276 50.2869 228.693 48.2918 226.698C46.2968 224.703 44.7142 222.335 43.6345 219.728C42.5547 217.121 41.999 214.327 41.999 211.506C41.999 208.685 42.5547 205.891 43.6345 203.284C44.7142 200.677 46.2968 198.309 48.2918 196.314C50.2869 194.319 52.6554 192.736 55.2621 191.656C57.8687 190.577 60.6626 190.021 63.484 190.021H312.912C315.733 190.021 318.527 190.577 321.134 191.656C323.741 192.736 326.109 194.319 328.104 196.314C330.099 198.309 331.682 200.677 332.762 203.284C333.841 205.891 334.397 208.685 334.397 211.506C334.397 214.327 333.841 217.121 332.762 219.728C331.682 222.335 330.099 224.703 328.104 226.698C326.109 228.693 323.741 230.276 321.134 231.356C318.527 232.435 315.733 232.991 312.912 232.991H312.911Z" fill="#FFD3A3"/>
<path d="M419.985 488.49C418.174 488.488 416.424 487.83 415.06 486.637C413.696 485.445 412.809 483.8 412.564 482.005L410.219 464.862C410.073 463.88 410.123 462.879 410.366 461.917C410.61 460.954 411.042 460.05 411.638 459.256C412.233 458.462 412.981 457.794 413.836 457.291C414.692 456.788 415.639 456.46 416.623 456.325C417.606 456.191 418.607 456.253 419.566 456.509C420.525 456.764 421.424 457.207 422.211 457.812C422.998 458.418 423.656 459.173 424.149 460.035C424.641 460.897 424.958 461.848 425.08 462.833L427.422 479.973C427.566 481.035 427.482 482.115 427.174 483.141C426.866 484.167 426.342 485.115 425.637 485.922C424.933 486.729 424.063 487.375 423.088 487.818C422.112 488.261 421.053 488.49 419.982 488.49H419.985Z" fill="#FFF18F"/>
<path d="M461.934 460.639C460.284 460.64 458.681 460.095 457.374 459.089L443.648 448.557C442.858 447.961 442.193 447.214 441.693 446.359C441.193 445.505 440.866 444.56 440.733 443.579C440.6 442.598 440.662 441.6 440.917 440.643C441.171 439.687 441.612 438.79 442.215 438.004C442.818 437.219 443.57 436.56 444.428 436.067C445.287 435.574 446.234 435.255 447.216 435.13C448.198 435.005 449.195 435.075 450.15 435.337C451.105 435.599 451.998 436.048 452.779 436.657L466.505 447.189C467.748 448.143 468.662 449.463 469.116 450.963C469.571 452.463 469.544 454.068 469.04 455.552C468.536 457.036 467.579 458.325 466.304 459.238C465.03 460.15 463.501 460.64 461.934 460.639Z" fill="#FFF18F"/>
<path d="M267.279 18.506L321.319 89.785C322.688 91.5906 323.526 93.7425 323.738 95.9985C323.95 98.2545 323.529 100.525 322.521 102.554C321.513 104.584 319.958 106.291 318.032 107.485C316.106 108.679 313.885 109.311 311.619 109.311H176.619C174.353 109.311 172.132 108.679 170.206 107.485C168.28 106.291 166.725 104.584 165.717 102.554C164.709 100.525 164.288 98.2545 164.5 95.9985C164.712 93.7425 165.55 91.5906 166.919 89.785L220.957 18.506C223.668 14.9305 227.169 12.0311 231.188 10.0349C235.206 8.03877 239.632 7 244.119 7C248.606 7 253.032 8.03877 257.05 10.0349C261.069 12.0311 264.57 14.9305 267.281 18.506H267.279Z" fill="#FF7591"/>
<path d="M316.891 83.9459C312.586 85.2218 308.147 85.9897 303.664 86.2339C296.316 86.685 288.969 85.3367 282.26 82.3058C275.551 79.2749 269.683 74.653 265.164 68.8409C260.968 63.3177 258.16 56.868 256.975 50.0339C255.79 43.1998 256.263 36.1811 258.355 29.5679C259.879 24.6418 262.002 19.9215 264.676 15.5129C261.74 12.5768 258.208 10.3037 254.32 8.84679C250.431 7.38985 246.276 6.78278 242.133 7.06646C237.99 7.35013 233.956 8.51797 230.303 10.4914C226.649 12.4647 223.461 15.1979 220.952 18.5069L166.919 89.7859C165.55 91.5915 164.712 93.7434 164.5 95.9994C164.288 98.2554 164.709 100.526 165.717 102.555C166.725 104.585 168.28 106.292 170.206 107.486C172.132 108.68 174.353 109.312 176.619 109.312H311.619C313.885 109.312 316.106 108.68 318.032 107.486C319.958 106.292 321.513 104.585 322.521 102.555C323.529 100.526 323.95 98.2554 323.738 95.9994C323.526 93.7434 322.688 91.5915 321.319 89.7859L316.891 83.9459Z" fill="#FE5B70"/>
</svg>
