<svg width="512" height="512" viewBox="0 0 512 512" fill="none" xmlns="http://www.w3.org/2000/svg">
<path d="M95.328 381.533H46.616C43.646 381.533 40.7051 380.948 37.9612 379.811C35.2173 378.675 32.7242 377.009 30.6241 374.909C28.524 372.809 26.8581 370.315 25.7215 367.572C24.585 364.828 24 361.887 24 358.917C24 355.947 24.585 353.006 25.7215 350.262C26.8581 347.518 28.524 345.025 30.6241 342.925C32.7242 340.825 35.2173 339.159 37.9612 338.022C40.7051 336.886 43.646 336.301 46.616 336.301H95.328V381.533Z" fill="#FFAA3E"/>
<path d="M416.266 336.3H464.978C470.976 336.3 476.729 338.683 480.97 342.924C485.211 347.165 487.594 352.918 487.594 358.916C487.594 364.914 485.211 370.666 480.97 374.908C476.729 379.149 470.976 381.532 464.978 381.532H416.266V336.3Z" fill="#FFAA3E"/>
<path d="M118.638 184.351H173.349V343.926H118.638V184.351Z" fill="#FFBE6B"/>
<path d="M338.244 184.351H392.955V343.926H338.244V184.351Z" fill="#FFBE6B"/>
<path d="M118.638 184.351H173.349V276.351H118.638V184.351Z" fill="#FFAA3E"/>
<path d="M338.244 184.351H392.955V276.351H338.244V184.351Z" fill="#FFAA3E"/>
<path d="M409.818 316C416.705 316 423.31 318.736 428.179 323.606C433.049 328.475 435.785 335.08 435.785 341.967V372.478C435.785 381.498 434.008 390.43 430.556 398.763C427.104 407.096 422.044 414.668 415.666 421.046C409.288 427.424 401.716 432.483 393.382 435.934C385.049 439.386 376.117 441.162 367.097 441.162H144.497C126.28 441.162 108.81 433.925 95.9287 421.044C83.0476 408.163 75.811 390.693 75.811 372.476V341.965C75.8116 335.079 78.5472 328.475 83.4162 323.606C88.2853 318.737 94.889 316.001 101.775 316H409.818Z" fill="#FFF18F"/>
<path d="M215.997 316H101.776C98.3658 316 94.9891 316.672 91.8386 317.977C88.6881 319.282 85.8254 321.195 83.4142 323.606C81.0029 326.017 79.0902 328.88 77.7853 332.031C76.4804 335.181 75.8088 338.558 75.809 341.968V372.479C75.8092 381.499 77.5861 390.431 81.0381 398.764C84.4902 407.097 89.5498 414.669 95.928 421.047C102.306 427.425 109.878 432.484 118.212 435.935C126.545 439.387 135.477 441.163 144.497 441.163H268.01C226.754 412.114 205.397 354.608 215.997 316Z" fill="#FFDE83"/>
<path d="M150.992 505C183.885 505 210.55 478.335 210.55 445.442C210.55 412.549 183.885 385.884 150.992 385.884C118.099 385.884 91.434 412.549 91.434 445.442C91.434 478.335 118.099 505 150.992 505Z" fill="#FFBE6B"/>
<path d="M199.563 467.008C182.629 467.008 167.597 459.927 155.369 448.702C143.097 437.436 137.787 420.672 137.063 404.508C136.887 398.57 137.733 392.645 139.563 386.993C129.382 388.985 119.897 393.602 112.049 400.387C104.2 407.172 98.2605 415.889 94.8171 425.675C91.3738 435.462 90.5465 445.978 92.4171 456.182C94.2878 466.386 98.7915 475.925 105.482 483.854C112.173 491.782 120.819 497.826 130.563 501.385C140.308 504.945 150.814 505.897 161.04 504.148C171.265 502.399 180.857 498.01 188.865 491.414C196.873 484.818 203.018 476.245 206.694 466.543C204.329 466.845 201.947 467 199.563 467.008Z" fill="#FFAA3E"/>
<path d="M150.992 467.705C163.288 467.705 173.255 457.737 173.255 445.442C173.255 433.146 163.288 423.179 150.992 423.179C138.696 423.179 128.729 433.146 128.729 445.442C128.729 457.737 138.696 467.705 150.992 467.705Z" fill="white"/>
<path d="M155.369 448.7C148.655 442.36 143.665 434.415 140.869 425.615C137.878 427.142 135.271 429.326 133.244 432.003C131.217 434.68 129.821 437.781 129.162 441.074C128.503 444.367 128.598 447.767 129.439 451.018C130.28 454.269 131.846 457.288 134.019 459.848C136.193 462.409 138.917 464.444 141.988 465.802C145.06 467.161 148.398 467.806 151.755 467.691C155.111 467.576 158.398 466.703 161.369 465.138C164.34 463.572 166.918 461.355 168.911 458.652C164.042 455.848 159.5 452.51 155.371 448.7H155.369Z" fill="#F7F6E4"/>
<path d="M360.602 505C393.495 505 420.16 478.335 420.16 445.442C420.16 412.549 393.495 385.884 360.602 385.884C327.709 385.884 301.044 412.549 301.044 445.442C301.044 478.335 327.709 505 360.602 505Z" fill="#FFBE6B"/>
<path d="M409.173 467.008C392.239 467.008 377.207 459.927 364.979 448.702C352.707 437.436 347.397 420.672 346.673 404.508C346.497 398.57 347.343 392.645 349.173 386.993C338.991 388.984 329.506 393.6 321.656 400.384C313.807 407.168 307.866 415.885 304.421 425.672C300.977 435.458 300.149 445.974 302.019 456.179C303.889 466.384 308.392 475.924 315.083 483.853C321.773 491.782 330.419 497.826 340.164 501.386C349.909 504.946 360.415 505.899 370.641 504.15C380.868 502.401 390.46 498.011 398.468 491.415C406.476 484.819 412.622 476.245 416.297 466.543C413.933 466.844 411.553 467 409.17 467.008H409.173Z" fill="#FFAA3E"/>
<path d="M360.602 467.705C372.898 467.705 382.865 457.737 382.865 445.442C382.865 433.146 372.898 423.179 360.602 423.179C348.306 423.179 338.339 433.146 338.339 445.442C338.339 457.737 348.306 467.705 360.602 467.705Z" fill="white"/>
<path d="M364.979 448.7C358.265 442.36 353.276 434.415 350.479 425.615C347.488 427.142 344.881 429.326 342.854 432.003C340.827 434.68 339.431 437.781 338.772 441.074C338.113 444.367 338.208 447.767 339.049 451.018C339.89 454.269 341.456 457.288 343.629 459.848C345.803 462.409 348.527 464.444 351.598 465.802C354.67 467.161 358.008 467.806 361.365 467.691C364.721 467.576 368.008 466.703 370.979 465.138C373.95 463.572 376.528 461.355 378.521 458.652C373.651 455.849 369.11 452.511 364.981 448.7H364.979Z" fill="#F7F6E4"/>
<path d="M292.619 185.8L257.199 179.889L218.975 185.8C218.975 185.8 219.12 208.623 218.975 209.955C219.972 219.024 224.281 227.406 231.076 233.494C237.871 239.583 246.673 242.95 255.797 242.95C264.921 242.95 273.723 239.583 280.518 233.494C287.313 227.406 291.622 219.024 292.619 209.955C293.349 205.24 292.619 185.8 292.619 185.8Z" fill="#FFBFCA"/>
<path d="M306.197 185.767L292.619 81.1328H218.975L208.197 185.767H306.197Z" fill="#FFD6DC"/>
<path d="M366.263 185.8V205.9C366.335 207.25 366.335 208.603 366.263 209.953C367.301 219.369 371.906 228.029 379.132 234.154C386.359 240.279 395.657 243.404 405.116 242.885C414.574 242.366 423.475 238.243 429.987 231.364C436.5 224.485 440.13 215.373 440.132 205.9V185.8H437.472L403.197 181.569L366.263 185.8Z" fill="#FFDE83"/>
<path d="M437.472 185.8H440.132V114.078C440.132 109.751 439.28 105.467 437.624 101.47C435.969 97.4732 433.542 93.8414 430.483 90.7822C427.423 87.7229 423.792 85.2962 419.795 83.6406C415.797 81.985 411.513 81.1328 407.187 81.1328H366.263L353.447 185.8H437.472Z" fill="#FFF18F"/>
<path d="M108.509 242.952C117.632 242.951 126.434 239.584 133.229 233.495C140.023 227.407 144.333 219.026 145.331 209.958C146.878 199.599 145.331 185.803 145.331 185.803L108.397 178.775L72.9381 185.8H71.4611V205.9C71.4611 215.726 75.3643 225.149 82.3122 232.097C89.26 239.045 98.6833 242.948 108.509 242.948V242.952Z" fill="#FE5B70"/>
<path d="M157.034 185.8L145.334 81.1289H104.407C95.6695 81.1289 87.2898 84.5999 81.1114 90.7783C74.933 96.9567 71.462 105.336 71.462 114.074V185.8H157.034Z" fill="#FF7591"/>
<path d="M366.263 185.8L329.441 181.565L292.619 185.8V209.955C293.616 219.024 297.925 227.406 304.72 233.494C311.515 239.583 320.318 242.949 329.441 242.949C338.565 242.949 347.367 239.583 354.162 233.494C360.957 227.406 365.266 219.024 366.263 209.955C366.884 204.294 366.263 185.801 366.263 185.801V185.8Z" fill="#FE5B70"/>
<path d="M292.619 81.1328H366.263V185.8H292.619V81.1328Z" fill="#FF7591"/>
<path d="M218.975 185.8L184.983 178.772L145.331 185.8C145.331 185.8 145.476 208.623 145.331 209.955C146.328 219.024 150.637 227.406 157.432 233.494C164.227 239.583 173.03 242.949 182.153 242.949C191.277 242.949 200.079 239.583 206.874 233.494C213.669 227.406 217.978 219.024 218.975 209.955C219.736 206.531 218.975 185.799 218.975 185.799V185.8Z" fill="#FFDE83"/>
<path d="M145.331 81.1328H218.975V185.8H145.331V81.1328Z" fill="#FFF18F"/>
<path d="M251.022 128.032C187.67 128.032 133.578 104 102.603 62.092C97.255 54.8563 95.0005 45.7926 96.3352 36.8946C97.67 27.9967 102.485 19.9934 109.72 14.6455C116.956 9.29751 126.02 7.04294 134.918 8.37773C143.816 9.71252 151.819 14.5273 157.167 21.763C175.214 46.179 209.423 60.182 251.022 60.182H251.051C294.514 60.175 337.987 44.021 354.422 21.772C357.056 18.1547 360.379 15.0941 364.201 12.7666C368.023 10.4391 372.267 8.89061 376.689 8.2103C381.112 7.53 385.626 7.73132 389.97 8.80268C394.314 9.87404 398.404 11.7943 402.003 14.4528C405.602 17.1113 408.64 20.4556 410.942 24.293C413.243 28.1305 414.762 32.3853 415.412 36.8124C416.062 41.2396 415.83 45.7516 414.729 50.0886C413.628 54.4256 411.68 58.502 408.997 62.083C379.413 102.135 317.419 128.021 251.06 128.032H251.021H251.022Z" fill="#E7886E"/>
<path d="M97.4061 32.1201C95.8759 37.1755 95.5493 42.5186 96.4522 47.7227C97.3551 52.9268 99.4625 57.8476 102.606 62.0921C133.581 104 187.674 128.032 251.025 128.032H251.064C317.423 128.021 379.417 102.132 409.001 62.0831C411.924 58.1331 413.951 53.594 414.943 48.7813C415.934 43.9685 415.865 38.9976 414.741 34.2141C306.197 116.833 187.464 108.167 97.4061 32.1201Z" fill="#DC6646"/>
</svg>
