<svg width="512" height="512" viewBox="0 0 512 512" fill="none" xmlns="http://www.w3.org/2000/svg">
<path d="M433.166 436.216C453.949 436.216 470.796 419.369 470.796 398.586C470.796 377.804 453.949 360.956 433.166 360.956C412.384 360.956 395.536 377.804 395.536 398.586C395.536 419.369 412.384 436.216 433.166 436.216Z" fill="#7C96B3"/>
<path d="M469.105 409.775C470.853 404.144 471.253 398.18 470.273 392.366C469.293 386.552 466.96 381.049 463.463 376.302C459.965 371.555 455.401 367.696 450.139 365.036C444.876 362.377 439.063 360.991 433.166 360.991C427.27 360.991 421.456 362.377 416.194 365.036C410.931 367.696 406.367 371.555 402.87 376.302C399.373 381.049 397.04 386.552 396.06 392.366C395.08 398.18 395.48 404.144 397.227 409.775H469.105Z" fill="#6F89A6"/>
<path d="M451.849 314.924H314.911V225.508H422.157C430.032 225.508 437.584 228.636 443.153 234.204C448.721 239.773 451.849 247.325 451.849 255.2V314.924Z" fill="#E7FAFF"/>
<path d="M314.911 225.508H404.499V314.924H314.911V225.508Z" fill="#C1F1FF"/>
<path d="M314.286 289.288V388.756H485.746C490.853 388.756 495.75 386.727 499.36 383.116C502.971 379.506 504.999 374.608 504.999 369.502V320.026C504.999 311.874 501.761 304.056 495.996 298.291C490.232 292.527 482.413 289.288 474.261 289.288H314.286Z" fill="#90AECF"/>
<path d="M314.286 289.288H404.499V388.756H314.286V289.288Z" fill="#7C96B3"/>
<path d="M45.1672 369.502C45.1672 374.608 47.1958 379.506 50.8066 383.117C54.4174 386.727 59.3147 388.756 64.4212 388.756H359.343V132.608H45.1672V369.502Z" fill="#FFD6DC"/>
<path d="M170.832 133.775H172.232C172.183 133.385 172.132 132.996 172.094 132.605H45.1672V369.505C45.1672 374.611 47.1958 379.509 50.8066 383.12C54.4174 386.73 59.3147 388.759 64.4212 388.759H359.344V315.441H189.311C184.41 315.441 179.71 313.494 176.245 310.029C172.779 306.563 170.832 301.863 170.832 296.962V133.775Z" fill="#FFBFCA"/>
<path d="M101.299 165.2H303.199V268.021H101.299V165.2Z" fill="#E7FAFF"/>
<path d="M101.299 165.2H170.828V268.021H101.299V165.2Z" fill="#C1F1FF"/>
<path d="M377.714 124.553C377.714 119.506 375.709 114.666 372.14 111.097C368.572 107.528 363.731 105.523 358.684 105.523H45.8252C40.7782 105.523 35.9378 107.528 32.369 111.097C28.8002 114.666 26.7952 119.506 26.7952 124.553C26.7869 126.806 26.2597 129.026 25.2545 131.042C24.2494 133.058 22.7933 134.815 20.9992 136.177C14.0533 141.51 9.49876 149.374 8.32937 158.053C7.15998 166.732 9.47067 175.521 14.7573 182.503C20.0438 189.484 27.8772 194.092 36.548 195.319C45.2188 196.547 54.0233 194.296 61.0402 189.056C63.0375 187.537 65.4759 186.713 67.9849 186.707C70.4938 186.701 72.936 187.515 74.9402 189.024C80.6837 193.343 87.6754 195.679 94.8617 195.679C102.048 195.679 109.04 193.343 114.783 189.024C116.777 187.515 119.209 186.699 121.71 186.699C124.21 186.699 126.642 187.515 128.636 189.024C134.38 193.343 141.372 195.679 148.558 195.679C155.745 195.679 162.737 193.343 168.48 189.024C170.474 187.515 172.906 186.699 175.407 186.699C177.907 186.699 180.339 187.515 182.333 189.024C188.077 193.343 195.069 195.679 202.255 195.679C209.442 195.679 216.434 193.343 222.177 189.024C224.171 187.515 226.603 186.699 229.104 186.699C231.604 186.699 234.036 187.515 236.03 189.024C241.774 193.343 248.766 195.679 255.952 195.679C263.139 195.679 270.131 193.343 275.874 189.024C277.868 187.515 280.3 186.699 282.801 186.699C285.301 186.699 287.733 187.515 289.727 189.024C295.471 193.343 302.462 195.679 309.649 195.679C316.835 195.679 323.827 193.343 329.57 189.024C331.574 187.515 334.017 186.701 336.526 186.707C339.035 186.713 341.473 187.537 343.47 189.056C350.486 194.311 359.297 196.575 367.977 195.353C376.657 194.13 384.5 189.521 389.792 182.533C395.084 175.545 397.393 166.746 396.216 158.059C395.039 149.373 390.471 141.506 383.51 136.178C381.717 134.815 380.262 133.058 379.257 131.042C378.253 129.026 377.726 126.805 377.718 124.553H377.714Z" fill="#FF7591"/>
<path d="M378.274 128.454C377.909 127.186 377.721 125.873 377.714 124.554C377.714 119.507 375.709 114.667 372.14 111.098C368.572 107.529 363.731 105.524 358.684 105.524H45.8252C40.7782 105.524 35.9378 107.529 32.369 111.098C28.8002 114.667 26.7952 119.507 26.7952 124.554C26.7885 125.873 26.6 127.186 26.2352 128.454H378.274Z" fill="#FE5B70"/>
<path d="M130.691 436.216C159.282 436.216 182.459 413.039 182.459 384.448C182.459 355.858 159.282 332.68 130.691 332.68C102.101 332.68 78.9232 355.858 78.9232 384.448C78.9232 413.039 102.101 436.216 130.691 436.216Z" fill="#90AECF"/>
<path d="M136.699 390.341C124.427 379.075 119.117 362.311 118.393 346.147C118.243 342.037 118.616 337.924 119.503 333.907C111.01 335.788 103.127 339.778 96.5828 345.51C90.039 351.242 85.0453 358.531 82.0629 366.703C79.0805 374.875 78.2056 383.667 79.5191 392.267C80.8327 400.866 84.2922 408.996 89.5782 415.906C94.8641 422.815 101.806 428.28 109.763 431.798C117.719 435.315 126.434 436.77 135.102 436.029C143.769 435.288 152.111 432.375 159.355 427.559C166.599 422.742 172.513 416.177 176.549 408.471C161.386 407.371 147.87 400.596 136.699 390.341Z" fill="#7C96B3"/>
<path d="M130.691 403.352C141.132 403.352 149.595 394.888 149.595 384.448C149.595 374.008 141.132 365.544 130.691 365.544C120.251 365.544 111.787 374.008 111.787 384.448C111.787 394.888 120.251 403.352 130.691 403.352Z" fill="#E7FAFF"/>
<path d="M136.699 390.341C130.057 384.07 125.104 376.225 122.299 367.531C119.795 368.769 117.596 370.546 115.861 372.736C114.127 374.925 112.899 377.473 112.267 380.194C111.635 382.915 111.615 385.742 112.207 388.472C112.799 391.202 113.989 393.767 115.692 395.981C117.394 398.196 119.567 400.005 122.053 401.279C124.539 402.553 127.277 403.26 130.069 403.349C132.861 403.437 135.638 402.906 138.2 401.792C140.762 400.678 143.045 399.01 144.884 396.908C142.012 394.904 139.278 392.71 136.699 390.341Z" fill="#C1F1FF"/>
<path d="M273.507 436.216C302.098 436.216 325.275 413.039 325.275 384.448C325.275 355.858 302.098 332.68 273.507 332.68C244.917 332.68 221.739 355.858 221.739 384.448C221.739 413.039 244.917 436.216 273.507 436.216Z" fill="#90AECF"/>
<path d="M279.511 390.341C267.239 379.075 261.929 362.311 261.205 346.147C261.055 342.037 261.428 337.924 262.315 333.907C253.822 335.788 245.939 339.778 239.395 345.51C232.851 351.242 227.857 358.531 224.875 366.703C221.892 374.875 221.018 383.667 222.331 392.267C223.645 400.866 227.104 408.996 232.39 415.906C237.676 422.815 244.618 428.28 252.575 431.798C260.531 435.315 269.246 436.77 277.914 436.029C286.581 435.288 294.923 432.375 302.167 427.559C309.411 422.742 315.325 416.177 319.361 408.471C304.197 407.371 290.681 400.596 279.511 390.341Z" fill="#7C96B3"/>
<path d="M273.507 403.352C283.948 403.352 292.411 394.888 292.411 384.448C292.411 374.008 283.948 365.544 273.507 365.544C263.067 365.544 254.603 374.008 254.603 384.448C254.603 394.888 263.067 403.352 273.507 403.352Z" fill="#E7FAFF"/>
<path d="M279.511 390.341C272.869 384.07 267.916 376.225 265.111 367.531C262.608 368.769 260.41 370.547 258.676 372.737C256.942 374.927 255.715 377.474 255.084 380.194C254.452 382.915 254.432 385.742 255.025 388.472C255.617 391.201 256.807 393.765 258.51 395.98C260.212 398.194 262.385 400.003 264.87 401.277C267.356 402.55 270.093 403.257 272.885 403.346C275.677 403.435 278.453 402.904 281.015 401.79C283.576 400.677 285.859 399.01 287.699 396.908C284.826 394.905 282.09 392.711 279.511 390.341Z" fill="#C1F1FF"/>
<path d="M308.649 132.323H95.8602C91.3298 132.323 86.9849 130.523 83.7814 127.32C80.5779 124.116 78.7782 119.771 78.7782 115.241V93.082C78.7782 90.8388 79.2201 88.6175 80.0785 86.545C80.937 84.4725 82.1952 82.5894 83.7814 81.0032C85.3676 79.417 87.2508 78.1587 89.3232 77.3003C91.3957 76.4418 93.617 76 95.8602 76H308.65C313.181 76 317.526 77.7997 320.729 81.0032C323.933 84.2067 325.732 88.5516 325.732 93.082V115.241C325.732 117.484 325.29 119.706 324.432 121.778C323.573 123.851 322.315 125.734 320.729 127.32C319.142 128.906 317.259 130.165 315.187 131.023C313.114 131.881 310.893 132.323 308.649 132.323Z" fill="#FFF18F"/>
<path d="M189.204 224.951H155.304C151.362 224.951 147.58 226.517 144.792 229.305C142.004 232.093 140.438 235.874 140.438 239.817V268.555H204.068V239.818C204.068 237.866 203.684 235.933 202.937 234.129C202.19 232.325 201.095 230.686 199.715 229.305C198.334 227.925 196.695 226.83 194.892 226.083C193.088 225.336 191.155 224.951 189.202 224.951H189.204Z" fill="#6BE3D3"/>
<path d="M170.832 224.951H155.306C151.364 224.951 147.582 226.517 144.794 229.305C142.006 232.093 140.44 235.874 140.44 239.817V268.555H170.832V224.951Z" fill="#17D9BF"/>
<path d="M298.074 296.029H106.435C101.764 296.029 97.2845 294.174 93.9817 290.871C90.6788 287.568 88.8232 283.088 88.8232 278.417C88.8232 273.746 90.6788 269.266 93.9817 265.964C97.2845 262.661 101.764 260.805 106.435 260.805H298.073C302.744 260.805 307.224 262.661 310.527 265.964C313.83 269.266 315.685 273.746 315.685 278.417C315.685 283.088 313.83 287.568 310.527 290.871C307.224 294.174 302.744 296.029 298.073 296.029H298.074Z" fill="#FF7591"/>
<path d="M170.832 260.808H106.432C104.119 260.808 101.829 261.264 99.6924 262.149C97.5556 263.034 95.6141 264.331 93.9787 265.967C92.3432 267.602 91.0459 269.543 90.1609 271.68C89.2758 273.817 88.8202 276.107 88.8202 278.42C88.8202 280.733 89.2758 283.023 90.1609 285.16C91.0459 287.297 92.3432 289.238 93.9787 290.874C95.6141 292.509 97.5556 293.806 99.6924 294.691C101.829 295.577 104.119 296.032 106.432 296.032H170.832V260.808Z" fill="#FE5B70"/>
<path d="M407.867 330.418H393.336C391.347 330.418 389.439 329.628 388.033 328.221C386.626 326.815 385.836 324.907 385.836 322.918C385.836 320.929 386.626 319.021 388.033 317.615C389.439 316.208 391.347 315.418 393.336 315.418H407.867C409.856 315.418 411.764 316.208 413.171 317.615C414.577 319.021 415.367 320.929 415.367 322.918C415.367 324.907 414.577 326.815 413.171 328.221C411.764 329.628 409.856 330.418 407.867 330.418Z" fill="#516980"/>
<path d="M459.35 388.755V333.846C459.35 331.857 458.56 329.949 457.154 328.543C455.747 327.136 453.839 326.346 451.85 326.346C449.861 326.346 447.953 327.136 446.547 328.543C445.14 329.949 444.35 331.857 444.35 333.846V388.755H459.35Z" fill="#6F89A6"/>
<path d="M325.732 104.666V93.082C325.732 88.5516 323.933 84.2067 320.729 81.0032C317.526 77.7997 313.181 76 308.65 76H95.8602C93.617 76 91.3957 76.4418 89.3232 77.3003C87.2508 78.1587 85.3676 79.417 83.7814 81.0032C82.1952 82.5894 80.937 84.4725 80.0785 86.545C79.2201 88.6175 78.7782 90.8388 78.7782 93.082V104.666H325.732Z" fill="#FFDE83"/>
</svg>
