<svg width="512" height="512" viewBox="0 0 512 512" fill="none" xmlns="http://www.w3.org/2000/svg">
<path d="M263.499 496.99C400.742 496.99 511.999 455.735 511.999 404.843C511.999 353.952 400.742 312.696 263.499 312.696C126.256 312.696 14.999 353.952 14.999 404.843C14.999 455.735 126.256 496.99 263.499 496.99Z" fill="#8288CB"/>
<path d="M263.499 432.759V312.74C126.256 312.74 14.999 354 14.999 404.887C14.999 455.774 126.256 497.034 263.499 497.034L261.714 495.816C256.529 492.274 252.317 487.486 249.464 481.892C246.611 476.298 245.21 470.077 245.387 463.8C245.565 457.523 247.316 451.392 250.481 445.968C253.646 440.544 258.122 436.002 263.499 432.759Z" fill="#676FB2"/>
<path d="M442.982 52.3501C387.496 15.5411 319.982 -1.84992 253.126 0.156078C193.182 1.95408 133.763 19.3461 84.0131 52.3501C67.4211 63.3571 59.9381 81.6181 65.1221 98.9611C82.4481 156.936 93.4451 215.1 99.7631 274.613C103.304 307.964 105.379 341.739 106.263 376.147C106.424 381.742 108.145 387.181 111.233 391.85C114.32 396.518 118.651 400.231 123.737 402.569C167.168 422.696 215.337 432.759 263.496 432.759C311.655 432.759 359.824 422.695 403.255 402.569C408.341 400.231 412.672 396.518 415.759 391.85C418.847 387.181 420.568 381.742 420.729 376.147C421.616 341.739 423.691 307.964 427.229 274.613C433.547 215.098 444.544 156.936 461.87 98.9611C467.053 81.6181 459.57 63.3611 442.979 52.3501H442.982Z" fill="#8288CB"/>
<path d="M211.527 69.6073C205.048 47.9283 214.401 25.1073 235.141 11.3443C241.03 7.43761 247.026 3.70794 253.129 0.155273C193.182 1.95427 133.763 19.3463 84.0131 52.3503C67.4211 63.3573 59.9381 81.6183 65.1221 98.9613C82.4481 156.936 93.4451 215.1 99.7631 274.613C103.304 307.964 105.379 341.739 106.263 376.147C106.424 381.742 108.145 387.181 111.233 391.85C114.32 396.519 118.651 400.231 123.737 402.569C167.168 422.696 215.332 432.759 263.496 432.759C263.496 371.426 260.014 338.038 254.826 289.173C246.926 214.779 233.182 142.073 211.526 69.6073H211.527Z" fill="#676FB2"/>
<path d="M257.29 312.7C202.435 311.809 147.818 299.118 99.7632 274.617C103.304 307.968 105.379 341.743 106.263 376.151C106.424 381.746 108.145 387.185 111.233 391.854C114.32 396.522 118.651 400.235 123.737 402.573C167.168 422.7 215.332 432.763 263.496 432.763C311.66 432.763 359.824 422.699 403.255 402.573C408.341 400.235 412.672 396.522 415.76 391.854C418.847 387.185 420.568 381.746 420.729 376.151C421.616 341.743 423.691 307.968 427.229 274.617C375.548 300.967 316.278 313.657 257.284 312.7H257.29Z" fill="#FF8E9E"/>
<path d="M99.7632 274.613C103.304 307.964 105.379 341.739 106.263 376.147C106.424 381.742 108.145 387.181 111.233 391.85C114.32 396.519 118.651 400.231 123.737 402.569C167.168 422.696 215.337 432.759 263.496 432.759C263.692 392.655 261.62 352.571 257.29 312.7C202.435 311.809 147.818 299.118 99.7632 274.617V274.613Z" fill="#F46C86"/>
</svg>
