<svg width="512" height="512" viewBox="0 0 512 512" fill="none" xmlns="http://www.w3.org/2000/svg">
<path d="M157.586 98.8648C79.7312 176.721 57.3202 280.537 107.53 330.748L174.252 264.026C160.584 250.358 182.746 206.036 223.752 165.026C264.758 124.016 309.078 101.859 322.747 115.526L389.468 48.8098C339.258 -1.40017 235.442 21.0098 157.586 98.8648Z" fill="#00CE8E"/>
<path d="M248.5 15C236.565 15 225.119 19.7411 216.68 28.1802C208.241 36.6193 203.5 48.0653 203.5 60V417H293.5V60C293.5 48.0653 288.759 36.6193 280.32 28.1802C271.881 19.7411 260.435 15 248.5 15V15Z" fill="#D4D4FF"/>
<path d="M389.469 48.8101C371.774 48.8106 354.803 55.8404 342.29 68.3531C329.778 80.8658 322.748 97.8364 322.747 115.532C336.415 129.2 314.255 173.523 273.247 214.532C232.239 255.541 187.919 277.698 174.247 264.032C156.552 264.033 139.581 271.062 127.068 283.575C114.556 296.088 107.526 313.058 107.525 330.754C157.735 380.964 261.553 358.554 339.409 280.699C417.265 202.844 439.679 99.0201 389.469 48.8101Z" fill="#5FD9B3"/>
<path d="M437 392H60C44.087 392 28.8258 398.321 17.5736 409.574C6.32141 420.826 0 436.087 0 452C0 467.913 6.32141 483.174 17.5736 494.426C28.8258 505.679 44.087 512 60 512H437C452.913 512 468.174 505.679 479.426 494.426C490.679 483.174 497 467.913 497 452C497 436.087 490.679 420.826 479.426 409.574C468.174 398.321 452.913 392 437 392Z" fill="#9EA2E3"/>
<path d="M237.075 392H60C44.087 392 28.8258 398.321 17.5736 409.574C6.32141 420.826 0 436.087 0 452C0 467.913 6.32141 483.174 17.5736 494.426C28.8258 505.679 44.087 512 60 512H237.075C221.162 496.087 212.222 474.504 212.222 452C212.222 429.496 221.162 407.913 237.075 392Z" fill="#8288CB"/>
</svg>
