<svg width="512" height="512" viewBox="0 0 512 512" fill="none" xmlns="http://www.w3.org/2000/svg">
<path d="M256.5 389.824C319.54 389.824 370.644 338.72 370.644 275.68C370.644 212.64 319.54 161.536 256.5 161.536C193.46 161.536 142.356 212.64 142.356 275.68C142.356 338.72 193.46 389.824 256.5 389.824Z" fill="#6BE3D3"/>
<path d="M142.368 276.62C142.62 306.724 154.756 335.51 176.132 356.708C197.509 377.906 226.395 389.801 256.5 389.801C286.605 389.801 315.491 377.906 336.868 356.708C358.244 335.51 370.38 306.724 370.632 276.62H142.368Z" fill="#17D9BF"/>
<path d="M256.5 338.951C291.444 338.951 319.771 310.624 319.771 275.68C319.771 240.737 291.444 212.409 256.5 212.409C221.556 212.409 193.229 240.737 193.229 275.68C193.229 310.624 221.556 338.951 256.5 338.951Z" fill="white"/>
<path d="M193.253 276.62C193.5 293.231 200.272 309.078 212.107 320.738C223.941 332.397 239.887 338.933 256.5 338.933C273.113 338.933 289.059 332.397 300.893 320.738C312.728 309.078 319.5 293.231 319.747 276.62H193.253Z" fill="#FFEDF0"/>
<path d="M270.181 268.18H264V261.999C264 260.01 263.21 258.102 261.803 256.696C260.397 255.289 258.489 254.499 256.5 254.499C254.511 254.499 252.603 255.289 251.197 256.696C249.79 258.102 249 260.01 249 261.999V268.18H242.819C240.83 268.18 238.922 268.97 237.516 270.377C236.109 271.783 235.319 273.691 235.319 275.68C235.319 277.669 236.109 279.577 237.516 280.983C238.922 282.39 240.83 283.18 242.819 283.18H249V289.361C249 291.35 249.79 293.258 251.197 294.664C252.603 296.071 254.511 296.861 256.5 296.861C258.489 296.861 260.397 296.071 261.803 294.664C263.21 293.258 264 291.35 264 289.361V283.18H270.181C272.17 283.18 274.078 282.39 275.484 280.983C276.891 279.577 277.681 277.669 277.681 275.68C277.681 273.691 276.891 271.783 275.484 270.377C274.078 268.97 272.17 268.18 270.181 268.18Z" fill="#6BE3D3"/>
<path d="M32.0171 48.3408H88.1381V434.575H32.0171V48.3408Z" fill="#E7886E"/>
<path d="M424.862 48.3408H480.983V434.575H424.862V48.3408Z" fill="#E7886E"/>
<path d="M128.207 325.708L118.339 415.07L128.207 496.108H256.5L264.615 414.32L256.5 325.708H128.207Z" fill="#FDD3A6"/>
<path d="M262.188 387.823L256.5 325.708H128.207L121.348 387.823H262.188Z" fill="#F9C290"/>
<path d="M505 474.841V346.975C505 341.335 502.759 335.925 498.771 331.937C494.783 327.949 489.373 325.708 483.733 325.708H380.865L371.134 410.569L380.865 496.108H483.733C486.526 496.108 489.291 495.558 491.872 494.489C494.452 493.421 496.797 491.854 498.771 489.879C500.746 487.905 502.313 485.56 503.381 482.98C504.45 480.399 505 477.634 505 474.841Z" fill="#FDD3A6"/>
<path d="M505 387.823V346.975C505 341.335 502.759 335.925 498.771 331.937C494.783 327.949 489.373 325.708 483.733 325.708H380.865L373.742 387.823H505Z" fill="#F9C290"/>
<path d="M8 346.975V474.841C8 480.481 10.2406 485.891 14.229 489.879C18.2173 493.867 23.6266 496.108 29.267 496.108H128.207V325.708H29.267C23.6266 325.708 18.2173 327.949 14.229 331.937C10.2406 335.925 8 341.335 8 346.975H8Z" fill="#FFF2CF"/>
<path d="M101.833 387.823H128.206V325.708H29.266C23.6258 325.708 18.2167 327.949 14.2286 331.937C10.2405 335.926 8 341.335 8 346.975L8 474.841C8 480.481 10.2406 485.891 14.229 489.879C18.2173 493.867 23.6266 496.108 29.267 496.108H60.119V429.538C60.1189 424.06 61.1977 418.636 63.294 413.574C65.3903 408.513 68.4629 403.915 72.3364 400.041C76.2099 396.167 80.8085 393.095 85.8695 390.998C90.9306 388.902 96.355 387.823 101.833 387.823Z" fill="#FFE1BD"/>
<path d="M256.5 325.708H380.865V496.108H256.5V325.708Z" fill="#FFF2CF"/>
<path d="M256.5 325.708H380.865V387.823H256.5V325.708Z" fill="#FFE1BD"/>
<path d="M32.0171 48.3408H88.1381V132.474H32.0171V48.3408Z" fill="#DC6646"/>
<path d="M424.862 48.3408H480.983V132.474H424.862V48.3408Z" fill="#DC6646"/>
<path d="M256.5 16H128.207L122.09 49.006L128.207 88.291H256.5L262.364 49.006L256.5 16Z" fill="#FDD3A6"/>
<path d="M501.433 67.024V37.267C501.433 31.6266 499.192 26.2173 495.204 22.229C491.216 18.2406 485.806 16 480.166 16H380.866L373.385 52.007L380.866 88.291H480.166C485.806 88.291 491.216 86.0504 495.204 82.062C499.192 78.0737 501.433 72.6644 501.433 67.024Z" fill="#FDD3A6"/>
<path d="M256.5 16H380.865V88.291H256.5V16Z" fill="#FFF2CF"/>
<path d="M310.854 118.947H202.146C200.088 118.947 198.05 118.542 196.148 117.754C194.247 116.966 192.519 115.812 191.063 114.357C189.608 112.901 188.454 111.173 187.666 109.272C186.878 107.37 186.473 105.332 186.473 103.274V78.4401C186.473 74.2834 188.124 70.2969 191.063 67.3576C194.003 64.4183 197.989 62.7671 202.146 62.7671H310.853C315.01 62.7671 318.996 64.4183 321.935 67.3576C324.875 70.2969 326.526 74.2834 326.526 78.4401V103.273C326.526 105.331 326.121 107.369 325.334 109.271C324.546 111.173 323.392 112.901 321.936 114.356C320.481 115.812 318.753 116.966 316.852 117.754C314.95 118.542 312.912 118.947 310.854 118.947Z" fill="#FFF18F"/>
<path d="M11.5669 37.267V67.024C11.5669 72.6644 13.8075 78.0737 17.7959 82.062C21.7842 86.0504 27.1935 88.291 32.8339 88.291H128.207V16H32.8329C30.0401 16 27.2747 16.5501 24.6945 17.6189C22.1143 18.6877 19.77 20.2542 17.7952 22.229C15.8205 24.2039 14.254 26.5483 13.1854 29.1285C12.1167 31.7088 11.5668 34.4742 11.5669 37.267Z" fill="#FFF2CF"/>
<path d="M186.473 88.7129V103.273C186.473 107.43 188.124 111.416 191.063 114.355C194.003 117.295 197.989 118.946 202.146 118.946H310.853C315.01 118.946 318.996 117.295 321.935 114.355C324.875 111.416 326.526 107.43 326.526 103.273V88.7129H186.473Z" fill="#FFDE83"/>
</svg>
