<svg width="512" height="512" viewBox="0 0 512 512" fill="none" xmlns="http://www.w3.org/2000/svg">
<path d="M187.446 38.8091H227.409V284.969H187.446V38.8091Z" fill="#90AECF"/>
<path d="M187.446 38.8091H227.409V142.281H187.446V38.8091Z" fill="#7C96B3"/>
<path d="M72.649 95.676C68.2949 95.676 64.1192 93.9464 61.0404 90.8676C57.9616 87.7888 56.232 83.6131 56.232 79.259V40.252C56.232 31.6982 59.63 23.4948 65.6784 17.4464C71.7268 11.398 79.9302 8 88.484 8L326.371 8C334.925 8 343.128 11.398 349.177 17.4464C355.225 23.4948 358.623 31.6982 358.623 40.252V79.259C358.623 83.6131 356.893 87.7888 353.815 90.8676C350.736 93.9464 346.56 95.676 342.206 95.676H72.649Z" fill="#FF7591"/>
<path d="M362.882 359.268C357.256 356.202 352.429 351.857 348.788 346.584C345.148 341.312 342.797 335.258 341.924 328.91C339.576 313.289 345.481 295.61 356.966 283.874C374.181 266.284 397.592 262.586 416.404 259.614C419.269 259.162 421.976 258.734 424.604 258.273C433.72 256.673 443.996 254.296 451.087 248.882C462.015 240.538 464.594 221.592 456.295 210.632C447.996 199.672 422.944 194.621 400.603 209.812C396.432 212.944 391.188 214.291 386.024 213.556C380.86 212.822 376.199 210.066 373.067 205.895C366.545 197.209 368.699 185.383 376.985 178.359C413.085 147.751 466.294 158.68 487.653 186.887C509.012 215.094 503.079 258.673 474.953 280.144C461.072 290.744 444.397 294.725 431.421 297.01C428.457 297.531 425.45 298.01 422.542 298.466C407.442 300.851 393.184 303.103 385.08 311.385C382.206 314.322 380.296 319.561 380.822 323.063C381.009 324.307 381.316 324.51 382.035 324.911C382.09 324.94 382.145 324.971 382.199 325.001C386.738 327.53 390.093 331.753 391.529 336.747C392.965 341.741 392.366 347.1 389.863 351.654C387.36 356.208 383.156 359.586 378.17 361.05C373.185 362.514 367.822 361.946 363.254 359.469L362.884 359.269L362.882 359.268Z" fill="#FFBE6B"/>
<path d="M382.196 325C382.142 324.97 382.087 324.939 382.032 324.91C381.313 324.51 381.006 324.31 380.819 323.062C380.293 319.562 382.203 314.32 385.077 311.384C391.19 305.137 400.807 302.321 411.643 300.291C416.097 291.973 425.775 263.708 425.775 258.059C425.382 258.131 424.987 258.203 424.598 258.271C421.975 258.732 419.268 259.16 416.398 259.613C397.586 262.585 374.175 266.283 356.96 283.873C345.474 295.611 339.57 313.288 341.918 328.909C342.791 335.257 345.142 341.311 348.782 346.583C352.423 351.856 357.25 356.201 362.876 359.267C362.998 359.334 363.121 359.4 363.244 359.467C367.813 361.964 373.186 362.546 378.184 361.087C383.183 359.628 387.398 356.247 389.907 351.684C392.416 347.122 393.013 341.75 391.568 336.748C390.122 331.746 386.752 327.521 382.196 325Z" fill="#FFAA3E"/>
<path d="M400.598 209.811C412.548 201.686 425.271 199.354 435.798 200.618C438.223 183.304 436.669 161.318 436.572 160.43C416.44 158.347 394.662 163.371 376.984 178.358C368.699 185.382 366.545 197.208 373.066 205.894C376.198 210.065 380.859 212.821 386.023 213.555C391.187 214.29 396.432 212.943 400.603 209.811H400.598Z" fill="#FFAA3E"/>
<path d="M182.374 334.939H231.089V413.891H182.374V334.939Z" fill="#7C96B3"/>
<path d="M378.761 141.39L307.081 141.425C303.97 141.426 300.89 142.04 298.017 143.232C295.143 144.424 292.533 146.17 290.334 148.371C288.135 150.572 286.392 153.184 285.203 156.059C284.014 158.933 283.402 162.014 283.404 165.125C283.412 181.656 276.853 197.513 265.169 209.209C253.486 220.904 237.635 227.479 221.104 227.488L192.426 227.502C175.895 227.51 160.037 220.951 148.342 209.267C136.647 197.584 130.072 181.733 130.063 165.202C130.062 162.091 129.447 159.011 128.256 156.137C127.064 153.264 125.318 150.653 123.117 148.455C120.916 146.256 118.304 144.512 115.429 143.323C112.555 142.134 109.474 141.523 106.363 141.525L34.683 141.56C28.4356 141.542 22.4357 144 17.997 148.397C13.5584 152.793 11.0428 158.77 11.001 165.017V165.258C11.054 273.358 98.73 360.947 206.829 360.893C314.928 360.839 402.517 273.164 402.464 165.065V164.824C402.416 158.578 399.895 152.605 395.453 148.213C391.011 143.821 385.01 141.368 378.764 141.39H378.761Z" fill="#FFF18F"/>
<path d="M348.963 460.59H64.5V427.934C64.5 422.588 66.6233 417.462 70.4029 413.682C74.1824 409.902 79.3086 407.778 84.654 407.778H328.808C334.154 407.778 339.28 409.901 343.06 413.681C346.84 417.461 348.964 422.588 348.964 427.934V460.59H348.963Z" fill="#FFD6DC"/>
<path d="M165.742 272.578H153.028C151.039 272.578 149.131 271.788 147.725 270.381C146.318 268.975 145.528 267.067 145.528 265.078C145.528 263.089 146.318 261.181 147.725 259.775C149.131 258.368 151.039 257.578 153.028 257.578H165.742C167.731 257.578 169.639 258.368 171.045 259.775C172.452 261.181 173.242 263.089 173.242 265.078C173.242 267.067 172.452 268.975 171.045 270.381C169.639 271.788 167.731 272.578 165.742 272.578Z" fill="#FFAA3E"/>
<path d="M214.336 300.534V227.493L199.336 227.5V297.8H177.736C175.747 297.8 173.839 298.59 172.433 299.997C171.026 301.403 170.236 303.311 170.236 305.3C170.236 307.289 171.026 309.197 172.433 310.603C173.839 312.01 175.747 312.8 177.736 312.8H202.067C205.32 312.797 208.44 311.503 210.74 309.202C213.041 306.902 214.335 303.783 214.338 300.529L214.336 300.534Z" fill="#FFBE6B"/>
<path d="M176.768 358.047C104.968 302.547 68.86 247.869 63.836 141.536L34.679 141.56C28.4319 141.543 22.4326 144.002 17.9946 148.399C13.5566 152.795 11.0415 158.771 11 165.018V165.258C11.048 263.4 83.314 344.623 177.516 358.722C177.268 358.496 177.016 358.274 176.768 358.047Z" fill="#FFDE83"/>
<path d="M107.119 8H88.484C79.9302 8 71.7268 11.398 65.6784 17.4464C59.63 23.4948 56.232 31.6982 56.232 40.252V79.259C56.232 83.6131 57.9616 87.7888 61.0404 90.8676C64.1192 93.9464 68.2949 95.676 72.649 95.676H97.373C93.61 77.452 98.395 24.285 107.119 8Z" fill="#FE5B70"/>
<path d="M64.5 431.439H348.964V460.59H64.5V431.439Z" fill="#FFBFCA"/>
<path d="M377.199 505H36.264C32.6634 505 29.2103 503.57 26.6643 501.024C24.1183 498.478 22.688 495.024 22.688 491.424V478.524C22.688 471.54 25.4621 464.843 30.4002 459.905C35.3382 454.967 42.0356 452.193 49.019 452.193H364.446C371.429 452.193 378.127 454.967 383.065 459.905C388.003 464.843 390.777 471.54 390.777 478.524V491.424C390.777 493.207 390.426 494.972 389.743 496.62C389.061 498.267 388.061 499.763 386.8 501.024C385.539 502.285 384.042 503.285 382.395 503.967C380.747 504.649 378.982 505 377.199 505Z" fill="#FF7591"/>
<path d="M22.723 477.148C22.7003 477.602 22.6887 478.059 22.688 478.519V491.419C22.6873 493.202 23.038 494.968 23.72 496.616C24.4019 498.263 25.4018 499.761 26.6625 501.022C27.9233 502.283 29.4201 503.283 31.0675 503.966C32.715 504.649 34.4807 505 36.264 505H377.2C380.801 505 384.254 503.57 386.8 501.024C389.346 498.478 390.776 495.025 390.776 491.424V478.524C390.776 478.064 390.764 477.607 390.741 477.153L22.723 477.148Z" fill="#FE5B70"/>
</svg>
