<svg width="512" height="512" viewBox="0 0 512 512" fill="none" xmlns="http://www.w3.org/2000/svg">
<path d="M237.02 327.584C241.915 328.686 246.198 331.629 248.982 335.803C251.767 339.977 252.839 345.062 251.977 350.004C251.115 354.947 248.385 359.369 244.352 362.354C240.319 365.339 235.293 366.658 230.314 366.039C204.207 362.798 176.199 372.102 157.222 390.32C155.371 392.097 153.188 393.492 150.797 394.425C148.407 395.359 145.856 395.812 143.291 395.76C140.725 395.707 138.195 395.15 135.845 394.12C133.495 393.09 131.371 391.607 129.594 389.755C127.816 387.904 126.421 385.721 125.488 383.331C124.555 380.941 124.101 378.39 124.154 375.824C124.206 373.259 124.763 370.729 125.794 368.378C126.824 366.028 128.307 363.904 130.158 362.127C144.01 348.946 160.601 338.987 178.747 332.959C196.892 326.931 216.145 324.984 235.13 327.256C235.772 327.336 236.402 327.445 237.02 327.584Z" fill="#FFD6DC"/>
<path d="M274.522 327.584C269.627 328.686 265.344 331.629 262.56 335.803C259.775 339.977 258.703 345.062 259.565 350.004C260.427 354.947 263.157 359.369 267.19 362.354C271.223 365.339 276.249 366.658 281.228 366.039C307.335 362.798 335.343 372.102 354.32 390.32C358.059 393.909 363.07 395.866 368.251 395.76C373.433 395.654 378.36 393.494 381.949 389.755C385.537 386.017 387.494 381.006 387.388 375.824C387.283 370.643 385.123 365.716 381.384 362.127C367.532 348.946 350.941 338.987 332.796 332.959C314.65 326.931 295.397 324.984 276.412 327.256C275.77 327.336 275.14 327.445 274.522 327.584Z" fill="#FFD6DC"/>
<path d="M249.618 384.748C254.285 382.906 259.483 382.93 264.133 384.815C268.784 386.7 272.531 390.301 274.598 394.874C276.665 399.446 276.894 404.638 275.238 409.375C273.581 414.112 270.166 418.03 265.7 420.317C242.29 432.317 224.364 455.764 218.917 481.501C217.844 486.571 214.801 491.007 210.457 493.834C206.113 496.66 200.825 497.645 195.754 496.572C190.684 495.5 186.248 492.456 183.422 488.113C180.595 483.769 179.61 478.48 180.683 473.41C184.724 454.721 192.841 437.155 204.455 421.966C216.07 406.776 230.894 394.339 247.871 385.541C248.447 385.245 249.03 384.981 249.619 384.748H249.618Z" fill="#FFD6DC"/>
<path d="M274.171 394.014C271.958 389.698 268.218 386.359 263.68 384.646C259.141 382.934 254.128 382.97 249.615 384.748C249.026 384.981 248.443 385.245 247.867 385.54C220.958 399.492 199.768 422.405 187.959 450.32C197.16 460.287 208.594 467.93 221.322 472.62C228.622 450.463 245.014 430.926 265.697 420.32C267.981 419.149 270.012 417.54 271.674 415.585C273.335 413.629 274.596 411.365 275.383 408.922C276.17 406.48 276.468 403.906 276.26 401.348C276.052 398.79 275.342 396.298 274.171 394.014Z" fill="#FFBFCA"/>
<path d="M261.924 384.748C257.256 382.906 252.059 382.93 247.409 384.815C242.758 386.7 239.011 390.301 236.944 394.874C234.877 399.446 234.647 404.638 236.304 409.375C237.96 414.112 241.376 418.03 245.842 420.317C269.252 432.317 287.178 455.764 292.625 481.501C293.156 484.011 294.177 486.393 295.628 488.509C297.08 490.625 298.934 492.434 301.085 493.834C303.236 495.233 305.641 496.196 308.164 496.665C310.686 497.135 313.277 497.104 315.787 496.572C318.298 496.041 320.679 495.021 322.795 493.569C324.911 492.118 326.721 490.263 328.12 488.113C329.52 485.962 330.482 483.556 330.952 481.034C331.422 478.511 331.39 475.92 330.859 473.41C326.818 454.721 318.701 437.155 307.086 421.966C295.472 406.776 280.647 394.339 263.671 385.541C263.095 385.245 262.512 384.981 261.923 384.748H261.924Z" fill="#FFD6DC"/>
<path d="M323.58 450.321C311.771 422.405 290.581 399.492 263.672 385.541C263.096 385.245 262.513 384.981 261.924 384.749C257.257 382.91 252.061 382.936 247.413 384.822C242.765 386.708 239.02 390.309 236.953 394.879C234.887 399.45 234.657 404.641 236.312 409.376C237.966 414.112 241.378 418.03 245.842 420.319C266.525 430.919 282.92 450.46 290.217 472.619C302.945 467.928 314.379 460.286 323.58 450.319V450.321Z" fill="#FFBFCA"/>
<path d="M229.747 365.971C240.328 367.21 250.347 360.245 252.019 349.723C252.8 344.817 251.684 339.799 248.898 335.686C246.112 331.574 241.864 328.677 237.019 327.584C236.401 327.445 235.771 327.335 235.128 327.256C206.756 323.86 178.057 329.911 153.471 344.472C149.278 346.967 146.179 350.949 144.789 355.626C143.4 360.303 143.821 365.331 145.971 369.711C146.04 369.852 146.11 369.992 146.18 370.133C151.229 380.266 163.872 383.687 173.657 377.993C190.591 368.101 210.246 363.888 229.747 365.971Z" fill="#FFBFCA"/>
<path d="M276.413 327.256C275.77 327.336 275.139 327.445 274.522 327.584C269.677 328.677 265.429 331.574 262.643 335.686C259.857 339.799 258.741 344.817 259.522 349.723C261.189 360.245 271.213 367.21 281.794 365.971C301.294 363.888 320.95 368.101 337.883 377.993C347.668 383.687 360.311 380.265 365.36 370.133C365.43 369.993 365.5 369.852 365.569 369.711C367.719 365.331 368.141 360.303 366.751 355.626C365.361 350.949 362.262 346.967 358.069 344.472C333.484 329.911 304.784 323.86 276.413 327.256Z" fill="#FFBFCA"/>
<path d="M329.681 386.245C329.681 405.847 321.894 424.646 308.033 438.507C294.173 452.368 275.373 460.155 255.771 460.155C236.169 460.155 217.37 452.368 203.509 438.507C189.648 424.646 181.861 405.847 181.861 386.245C181.861 345.426 214.952 272.462 255.771 272.462C296.59 272.462 329.681 345.425 329.681 386.245Z" fill="#FFD6DC"/>
<path d="M193.25 335.289C206.35 302.796 229.45 272.462 255.771 272.462C281.771 272.462 304.633 302.062 317.809 334.102C282.597 360.694 207.516 349.118 193.25 335.289Z" fill="#FFBFCA"/>
<path d="M141.614 157.894C174.538 157.894 201.228 131.204 201.228 98.28C201.228 65.3561 174.538 38.666 141.614 38.666C108.69 38.666 82 65.3561 82 98.28C82 131.204 108.69 157.894 141.614 157.894Z" fill="#FFBFCA"/>
<path d="M369.928 157.894C402.852 157.894 429.542 131.204 429.542 98.28C429.542 65.3561 402.852 38.666 369.928 38.666C337.004 38.666 310.314 65.3561 310.314 98.28C310.314 131.204 337.004 157.894 369.928 157.894Z" fill="#FFBFCA"/>
<path d="M146.752 286.837C174.032 314 212.784 330.969 255.771 330.969C338.371 330.969 405.323 268.333 405.323 191.069C405.323 113.805 338.371 51.166 255.771 51.166C173.171 51.166 106.219 113.8 106.219 191.067C106.233 216.649 113.649 241.681 127.571 263.143C133.702 273.765 146.752 286.837 146.752 286.837Z" fill="#FFD6DC"/>
<path d="M164.099 240.147C176.628 240.147 186.784 232.078 186.784 222.123C186.784 212.169 176.628 204.099 164.099 204.099C151.57 204.099 141.414 212.169 141.414 222.123C141.414 232.078 151.57 240.147 164.099 240.147Z" fill="#FFB6C1"/>
<path d="M347.443 240.147C359.972 240.147 370.128 232.078 370.128 222.123C370.128 212.169 359.972 204.099 347.443 204.099C334.914 204.099 324.758 212.169 324.758 222.123C324.758 232.078 334.914 240.147 347.443 240.147Z" fill="#FFB6C1"/>
<path d="M315.071 0.0528696C363.343 2.67487 377.083 103.639 307.283 85.8069C285.204 80.1659 268.895 61.9299 267.954 41.5069C267.027 21.3189 291.316 -1.23713 315.071 0.0528696Z" fill="#FF7591"/>
<path d="M196.471 0.0529165C148.199 2.67492 134.459 103.639 204.259 85.8069C226.338 80.1659 242.647 61.9299 243.588 41.5069C244.518 21.3169 220.229 -1.23908 196.471 0.0509165V0.0529165Z" fill="#FF7591"/>
<path d="M255.771 72.3898C273.054 72.3898 287.065 58.379 287.065 41.0958C287.065 23.8126 273.054 9.80176 255.771 9.80176C238.488 9.80176 224.477 23.8126 224.477 41.0958C224.477 58.379 238.488 72.3898 255.771 72.3898Z" fill="#FE5B70"/>
<path d="M223.471 205.24C221.482 205.24 219.574 206.03 218.168 207.436C216.761 208.843 215.971 210.751 215.971 212.74C215.967 217.351 217.313 221.863 219.842 225.718C222.371 229.574 225.973 232.606 230.203 234.44C234.434 236.274 239.109 236.831 243.652 236.041C248.195 235.251 252.408 233.149 255.771 229.994C259.134 233.149 263.347 235.251 267.89 236.041C272.433 236.831 277.108 236.274 281.339 234.44C285.569 232.606 289.171 229.574 291.7 225.718C294.229 221.863 295.575 217.351 295.571 212.74C295.571 210.751 294.781 208.843 293.374 207.436C291.968 206.03 290.06 205.24 288.071 205.24C286.082 205.24 284.174 206.03 282.768 207.436C281.361 208.843 280.571 210.751 280.571 212.74C280.571 215.034 279.66 217.234 278.037 218.856C276.415 220.478 274.215 221.39 271.921 221.39C269.627 221.39 267.427 220.478 265.804 218.856C264.182 217.234 263.271 215.034 263.271 212.74C263.271 210.751 262.481 208.843 261.074 207.436C259.668 206.03 257.76 205.24 255.771 205.24C253.782 205.24 251.874 206.03 250.468 207.436C249.061 208.843 248.271 210.751 248.271 212.74C248.271 215.034 247.36 217.234 245.737 218.856C244.115 220.478 241.915 221.39 239.621 221.39C237.327 221.39 235.127 220.478 233.504 218.856C231.882 217.234 230.971 215.034 230.971 212.74C230.971 210.751 230.181 208.843 228.774 207.436C227.368 206.03 225.46 205.24 223.471 205.24Z" fill="#333942"/>
<path d="M186.579 206.129V194.011C186.579 192.022 185.789 190.114 184.382 188.707C182.976 187.301 181.068 186.511 179.079 186.511C177.09 186.511 175.182 187.301 173.776 188.707C172.369 190.114 171.579 192.022 171.579 194.011V206.129C171.579 208.118 172.369 210.026 173.776 211.432C175.182 212.839 177.09 213.629 179.079 213.629C181.068 213.629 182.976 212.839 184.382 211.432C185.789 210.026 186.579 208.118 186.579 206.129Z" fill="#333942"/>
<path d="M339.963 206.129V194.011C339.963 192.022 339.173 190.114 337.766 188.707C336.36 187.301 334.452 186.511 332.463 186.511C330.474 186.511 328.566 187.301 327.16 188.707C325.753 190.114 324.963 192.022 324.963 194.011V206.129C324.963 208.118 325.753 210.026 327.16 211.432C328.566 212.839 330.474 213.629 332.463 213.629C334.452 213.629 336.36 212.839 337.766 211.432C339.173 210.026 339.963 208.118 339.963 206.129Z" fill="#333942"/>
</svg>
