<svg width="512" height="512" viewBox="0 0 512 512" fill="none" xmlns="http://www.w3.org/2000/svg">
<path d="M351.96 207.827L256.5 303.287L161.04 207.827L139.827 229.04L220.287 309.5V339.5L139.827 419.96L161.04 441.173L241.5 360.713L292.713 309.5L373.173 229.04L351.96 207.827Z" fill="#9EA2E3"/>
<path d="M389.107 191.893C363.158 165.813 330.062 148.009 294 140.729C281.655 138.244 269.093 136.995 256.5 137C206.772 137 159.081 156.754 123.917 191.917C88.7544 227.081 69 274.772 69 324.5C69 374.228 88.7544 421.919 123.917 457.083C159.081 492.246 206.772 512 256.5 512C269.093 512.005 281.655 510.756 294 508.271C327.191 501.483 357.924 485.833 382.936 462.982C407.948 440.132 426.305 410.935 436.058 378.491C445.811 346.047 446.596 311.568 438.33 278.714C430.063 245.86 413.053 215.858 389.107 191.893ZM256.5 437C234.25 437 212.499 430.402 193.998 418.04C175.498 405.679 161.078 388.109 152.564 367.552C144.049 346.995 141.821 324.375 146.162 302.552C150.502 280.729 161.217 260.684 176.95 244.951C192.684 229.217 212.729 218.503 234.552 214.162C256.375 209.821 278.995 212.049 299.552 220.564C320.109 229.078 337.679 243.498 350.04 261.998C362.402 280.499 369 302.25 369 324.5C368.966 354.326 357.103 382.922 336.012 404.012C314.922 425.103 286.326 436.966 256.5 437Z" fill="#8288CB"/>
<path d="M144 324.5C143.991 281.273 158.917 239.371 186.25 205.883C213.584 172.395 251.648 149.379 294 140.729C281.655 138.244 269.093 136.995 256.5 137C206.772 137 159.081 156.754 123.917 191.917C88.7544 227.081 69 274.772 69 324.5C69 374.228 88.7544 421.919 123.917 457.083C159.081 492.246 206.772 512 256.5 512C269.093 512.005 281.655 510.756 294 508.271C251.648 499.621 213.584 476.605 186.25 443.117C158.917 409.629 143.991 367.727 144 324.5Z" fill="#676FB2"/>
<path d="M211.5 73.5V324.5C211.5 336.435 216.241 347.881 224.68 356.32C233.119 364.759 244.565 369.5 256.5 369.5C268.435 369.5 279.881 364.759 288.32 356.32C296.759 347.881 301.5 336.435 301.5 324.5V83.5L256.5 63.5L211.5 73.5Z" fill="#FFCE71"/>
<path d="M256.5 314.5V83.5L211.5 73.5V324.5C211.493 333.289 214.063 341.887 218.89 349.231C223.717 356.575 230.591 362.344 238.661 365.824C246.731 369.304 255.645 370.343 264.299 368.812C272.953 367.281 280.969 363.248 287.356 357.21C278.382 354.228 270.574 348.499 265.036 340.834C259.499 333.169 256.512 323.956 256.5 314.5Z" fill="#FFB357"/>
<path d="M267.106 313.894C265.715 312.491 264.061 311.377 262.239 310.615C260.416 309.853 258.461 309.458 256.486 309.454C254.511 309.45 252.554 309.836 250.728 310.59C248.902 311.344 247.243 312.451 245.846 313.848C244.45 315.244 243.342 316.903 242.589 318.729C241.835 320.555 241.449 322.512 241.453 324.487C241.457 326.462 241.852 328.417 242.614 330.24C243.376 332.062 244.49 333.716 245.893 335.107L325.4 414.619L346.613 393.406L267.106 313.894Z" fill="#9EA2E3"/>
<path d="M321.012 449.012C315.079 449.011 309.279 447.252 304.346 443.955C299.413 440.659 295.568 435.973 293.298 430.492C291.027 425.011 290.433 418.979 291.591 413.16C292.748 407.341 295.605 401.995 299.8 397.8L329.8 367.8C332.581 364.994 335.889 362.765 339.534 361.241C343.179 359.718 347.09 358.929 351.04 358.92C354.991 358.911 358.904 359.683 362.556 361.191C366.208 362.699 369.526 364.913 372.319 367.707C375.113 370.5 377.327 373.818 378.835 377.47C380.343 381.121 381.114 385.035 381.106 388.986C381.097 392.936 380.308 396.846 378.784 400.491C377.261 404.136 375.032 407.445 372.226 410.226L342.226 440.226C339.443 443.016 336.137 445.228 332.496 446.736C328.856 448.244 324.953 449.018 321.013 449.013L321.012 449.012Z" fill="#FFCE71"/>
<path d="M354.551 25.887C351.651 22.4719 348.042 19.729 343.975 17.8489C339.908 15.9689 335.48 14.9968 331 15C324.111 15.1285 317.487 17.673 312.283 22.189C301.804 30.982 288.71 36.0596 275.042 36.6296C261.375 37.1996 247.903 33.23 236.728 25.34C225.927 17.691 212.916 15 200.092 15C186.227 15 172.754 19.274 162.15 28.171C156.067 33.2885 152.264 40.611 151.576 48.5304C150.888 56.4497 153.371 64.3185 158.48 70.4085C163.589 76.4985 170.906 80.3119 178.824 81.0112C186.743 81.7105 194.615 79.2384 200.712 74.138C244.595 105.216 307 104.955 350.854 68.153C353.872 65.6208 356.362 62.5189 358.182 59.0243C360.001 55.5298 361.114 51.7111 361.458 47.7863C361.802 43.8615 361.369 39.9075 360.184 36.15C358.999 32.3925 357.086 28.9051 354.554 25.887H354.551Z" fill="#CE857A"/>
</svg>
