<svg width="512" height="512" viewBox="0 0 512 512" fill="none" xmlns="http://www.w3.org/2000/svg">
<path d="M168 505C256.366 505 328 484.853 328 460C328 435.147 256.366 415 168 415C79.6344 415 8 435.147 8 460C8 484.853 79.6344 505 168 505Z" fill="#4C5699"/>
<path d="M213.143 237.461C196.779 229.889 178.773 226.558 160.783 227.775C142.793 228.993 125.4 234.719 110.205 244.427C95.0107 254.135 82.5046 267.511 73.8397 283.324C65.1748 299.136 60.6299 316.875 60.624 334.906V493.362C89.014 500.594 126.677 505 168 505C209.323 505 246.986 500.594 275.376 493.362V334.906C275.379 314.419 269.521 294.359 258.494 277.093C247.467 259.827 231.731 246.075 213.143 237.461Z" fill="#00CE8E"/>
<path d="M150.624 336.072C150.609 315.396 156.48 295.142 167.551 277.679C178.623 260.217 194.436 246.267 213.144 237.461C196.78 229.889 178.774 226.558 160.784 227.775C142.794 228.993 125.4 234.719 110.206 244.427C95.0117 254.135 82.5056 267.511 73.8407 283.324C65.1758 299.136 60.6309 316.875 60.625 334.906V493.362C89.014 500.594 126.677 505 168 505C171.916 505 175.797 504.96 179.642 504.881C170.465 496.031 163.166 485.423 158.18 473.69C153.194 461.956 150.624 449.338 150.624 436.589V336.072Z" fill="#00B27A"/>
<path d="M118.553 353.555C118.617 340.827 105.711 330.444 89.7277 330.364C73.7443 330.284 60.7356 340.538 60.672 353.266C60.6085 365.995 73.5142 376.378 89.4976 376.457C105.481 376.537 118.49 366.284 118.553 353.555Z" fill="#FF8E9E"/>
<path d="M275.509 354.254C275.573 341.526 262.667 331.143 246.684 331.063C230.7 330.983 217.692 341.237 217.628 353.965C217.564 366.694 230.47 377.077 246.454 377.157C262.437 377.236 275.446 366.983 275.509 354.254Z" fill="#FF8E9E"/>
<path d="M354.786 230.928L425.518 322.6C425.609 322.719 425.705 322.834 425.806 322.945C430.396 328.039 436.087 332.019 442.447 334.582C448.806 337.146 455.667 338.225 462.506 337.737C487.629 335.949 506.639 313.695 504.882 288.128C504.392 281.182 502.365 274.431 498.949 268.362C495.534 262.294 490.813 257.059 485.129 253.036L389.245 196.49H354.785V230.928H354.786Z" fill="#FFCE71"/>
<path d="M354.786 230.928L425.518 322.6C425.609 322.719 425.705 322.834 425.806 322.945C430.396 328.039 436.087 332.019 442.447 334.582C448.806 337.146 455.667 338.225 462.506 337.737C487.629 335.949 506.639 313.695 504.882 288.128C504.392 281.182 502.365 274.431 498.949 268.362C495.533 262.294 490.813 257.059 485.129 253.036C441.787 268.573 391.557 258.976 354.786 230.928Z" fill="#FFB357"/>
<path d="M455.7 130.469L297.647 288.521C292.176 293.892 284.816 296.9 277.15 296.9C269.484 296.9 262.124 293.892 256.653 288.521L184.574 216.442C178.348 210.216 174.85 201.772 174.85 192.967C174.85 184.162 178.348 175.717 184.574 169.491L336.341 17.7241C342.567 11.4982 351.011 8.00049 359.816 8.00049C368.621 8.00049 377.066 11.4982 383.292 17.7241L455.7 90.1321C461.047 95.4821 464.051 102.737 464.051 110.301C464.051 117.865 461.047 125.119 455.7 130.469Z" fill="#7CE3FF"/>
<path d="M301.951 117.845C292.086 127.71 284.261 139.422 278.922 152.311C273.583 165.2 270.835 179.015 270.835 192.966C270.835 206.917 273.583 220.732 278.922 233.621C284.261 246.511 292.086 258.222 301.951 268.087L310.016 276.152L297.647 288.521C292.176 293.892 284.816 296.9 277.15 296.9C269.484 296.9 262.124 293.892 256.653 288.521L184.245 216.113L184.571 216.439C178.346 210.213 174.849 201.769 174.849 192.965C174.849 184.161 178.346 175.717 184.571 169.491L336.341 17.7241C342.567 11.4982 351.012 8.00049 359.816 8.00049C368.621 8.00049 377.066 11.4982 383.292 17.7241L392.682 27.1141L301.951 117.845Z" fill="#2ED0FC"/>
<path d="M90.137 125.459L93.472 132.216L100.929 133.3C102.406 133.515 103.794 134.138 104.936 135.101C106.077 136.063 106.926 137.325 107.388 138.745C107.849 140.165 107.904 141.685 107.546 143.135C107.188 144.584 106.432 145.904 105.363 146.946L99.963 152.206L101.237 159.633C101.489 161.104 101.325 162.617 100.762 164C100.2 165.383 99.2618 166.58 98.0541 167.458C96.8464 168.335 95.4173 168.857 93.9284 168.965C92.4395 169.072 90.9502 168.761 89.629 168.066L82.959 164.56L76.289 168.066C74.9677 168.761 73.4785 169.072 71.9896 168.965C70.5007 168.857 69.0716 168.335 67.8639 167.458C66.6562 166.58 65.718 165.383 65.1555 164C64.5931 162.617 64.4287 161.104 64.681 159.633L65.955 152.206L60.555 146.946C59.4857 145.904 58.7296 144.582 58.3724 143.132C58.0151 141.682 58.0709 140.161 58.5335 138.741C58.9961 137.321 59.8469 136.059 60.9898 135.097C62.1326 134.135 63.5217 133.513 65 133.3L72.457 132.216L75.792 125.459C76.4526 124.121 77.4746 122.993 78.7424 122.205C80.0102 121.417 81.4732 121 82.966 121C84.4588 121 85.9218 121.417 87.1896 122.205C88.4574 122.993 89.4794 124.121 90.14 125.459H90.137Z" fill="#FFCE71"/>
<path d="M170.564 227.893C170.564 225.904 169.774 223.996 168.367 222.59C166.961 221.183 165.053 220.393 163.064 220.393C160.874 220.391 158.775 219.519 157.227 217.971C155.678 216.422 154.807 214.323 154.805 212.133C154.798 205.967 152.345 200.055 147.985 195.695C143.624 191.335 137.712 188.882 131.546 188.875C129.356 188.873 127.256 188.002 125.708 186.453C124.159 184.905 123.288 182.805 123.286 180.615C123.286 178.626 122.496 176.718 121.089 175.312C119.683 173.905 117.775 173.115 115.786 173.115C113.797 173.115 111.889 173.905 110.483 175.312C109.076 176.718 108.286 178.626 108.286 180.615C108.293 186.782 110.746 192.694 115.107 197.055C119.467 201.415 125.379 203.868 131.546 203.875C133.736 203.878 135.835 204.748 137.383 206.297C138.931 207.845 139.802 209.944 139.805 212.133C139.812 218.3 142.265 224.212 146.625 228.573C150.985 232.933 156.897 235.386 163.064 235.393C165.053 235.393 166.961 234.603 168.367 233.197C169.774 231.79 170.564 229.882 170.564 227.893Z" fill="#B0EBD8"/>
<path d="M194.927 264.767C193.171 263.833 191.116 263.635 189.214 264.217C187.311 264.798 185.718 266.111 184.784 267.867L176.76 282.967C175.826 284.724 175.629 286.779 176.21 288.681C176.792 290.583 178.106 292.177 179.862 293.11C181.618 294.044 183.674 294.242 185.576 293.66C187.478 293.078 189.071 291.765 190.005 290.008L198.029 274.908C198.962 273.152 199.16 271.097 198.578 269.195C197.996 267.294 196.683 265.701 194.927 264.767Z" fill="#B0EBD8"/>
<path d="M179.021 247.477C178.439 245.575 177.126 243.982 175.37 243.048C173.613 242.114 171.558 241.917 169.656 242.498L153.307 247.498C151.587 248.022 150.113 249.147 149.153 250.667C148.193 252.187 147.811 254.001 148.076 255.779C148.342 257.557 149.237 259.181 150.599 260.354C151.961 261.528 153.699 262.173 155.497 262.172C157.006 262.172 156.149 262.314 174.042 256.842C175.944 256.26 177.537 254.947 178.471 253.191C179.405 251.435 179.603 249.379 179.021 247.477Z" fill="#B0EBD8"/>
<path d="M226.921 299.859V283.059C226.921 281.07 226.131 279.162 224.724 277.756C223.318 276.349 221.41 275.559 219.421 275.559C217.432 275.559 215.524 276.349 214.118 277.756C212.711 279.162 211.921 281.07 211.921 283.059V299.859C211.921 301.848 212.711 303.756 214.118 305.162C215.524 306.569 217.432 307.359 219.421 307.359C221.41 307.359 223.318 306.569 224.724 305.162C226.131 303.756 226.921 301.848 226.921 299.859Z" fill="#B0EBD8"/>
<path d="M229.726 318.569H229.692C227.709 318.569 225.806 319.354 224.4 320.754C222.995 322.153 222.201 324.052 222.192 326.036L222.171 330.823C222.167 331.808 222.356 332.784 222.729 333.695C223.102 334.607 223.651 335.436 224.344 336.136C225.038 336.835 225.862 337.391 226.77 337.772C227.679 338.153 228.653 338.352 229.638 338.356H229.672C231.655 338.356 233.558 337.57 234.964 336.171C236.369 334.771 237.163 332.872 237.172 330.889L237.193 326.102C237.197 325.117 237.008 324.141 236.635 323.229C236.262 322.318 235.713 321.488 235.02 320.789C234.326 320.089 233.502 319.533 232.594 319.152C231.685 318.771 230.711 318.573 229.726 318.569Z" fill="#313D40"/>
<path d="M106.589 318.021H106.555C104.572 318.021 102.669 318.807 101.263 320.206C99.8578 321.605 99.0637 323.505 99.055 325.488L99.034 330.274C99.0297 331.259 99.2194 332.235 99.5923 333.147C99.9652 334.058 100.514 334.887 101.207 335.587C101.901 336.286 102.725 336.843 103.633 337.223C104.542 337.604 105.516 337.803 106.501 337.807H106.535C108.518 337.807 110.421 337.021 111.827 335.622C113.232 334.223 114.026 332.323 114.035 330.34L114.056 325.554C114.06 324.569 113.871 323.593 113.498 322.681C113.125 321.77 112.576 320.941 111.883 320.241C111.189 319.541 110.365 318.985 109.457 318.605C108.548 318.224 107.574 318.025 106.589 318.021Z" fill="#313D40"/>
<path d="M168.7 309.92C166.711 309.92 164.803 310.71 163.397 312.117C161.99 313.523 161.2 315.431 161.2 317.42C161.2 319.409 161.99 321.317 163.397 322.723C164.803 324.13 166.711 324.92 168.7 324.92C173.4 324.92 173.406 332.039 168.7 332.039C166.711 332.039 164.803 332.829 163.397 334.236C161.99 335.642 161.2 337.55 161.2 339.539C161.2 341.528 161.99 343.436 163.397 344.842C164.803 346.249 166.711 347.039 168.7 347.039C173.4 347.039 173.4 354.159 168.7 354.159C166.711 354.159 164.803 354.949 163.397 356.356C161.99 357.762 161.2 359.67 161.2 361.659C161.2 363.648 161.99 365.556 163.397 366.962C164.803 368.369 166.711 369.159 168.7 369.159C172.136 369.154 175.504 368.195 178.428 366.389C181.351 364.582 183.715 362 185.257 358.928C186.799 355.857 187.457 352.418 187.159 348.995C186.861 345.571 185.618 342.298 183.569 339.539C185.618 336.78 186.86 333.507 187.158 330.084C187.455 326.66 186.797 323.222 185.255 320.151C183.713 317.08 181.349 314.497 178.426 312.691C175.503 310.884 172.136 309.925 168.7 309.92Z" fill="#313D40"/>
</svg>
