<svg width="512" height="512" viewBox="0 0 512 512" fill="none" xmlns="http://www.w3.org/2000/svg">
<path d="M497.674 386.118H463.363C461.884 386.118 460.42 385.827 459.054 385.261C457.687 384.696 456.446 383.866 455.4 382.821C454.354 381.775 453.524 380.534 452.958 379.168C452.392 377.802 452.1 376.338 452.1 374.859V340.805H497.672C499.554 340.804 501.417 341.175 503.155 341.895C504.893 342.614 506.473 343.67 507.803 345C509.134 346.33 510.189 347.91 510.909 349.648C511.629 351.386 512 353.249 512 355.131V371.791C512 373.672 511.63 375.535 510.91 377.273C510.19 379.012 509.135 380.591 507.804 381.921C506.474 383.252 504.895 384.307 503.157 385.027C501.418 385.747 499.556 386.118 497.674 386.118Z" fill="#D2996F"/>
<path d="M467.15 352.335H428.741V307.022H467.15C470.95 307.022 474.594 308.532 477.28 311.218C479.967 313.905 481.476 317.549 481.476 321.348V338.008C481.476 339.89 481.106 341.753 480.386 343.491C479.666 345.229 478.611 346.809 477.281 348.139C475.95 349.47 474.371 350.525 472.633 351.245C470.895 351.965 469.032 352.335 467.15 352.335Z" fill="#E1B89A"/>
<path d="M14.326 386.118H48.637C50.1158 386.118 51.5802 385.827 52.9466 385.261C54.3129 384.696 55.5544 383.866 56.6003 382.821C57.6462 381.775 58.4759 380.534 59.042 379.168C59.6082 377.802 59.8997 376.338 59.9 374.859V340.805H14.326C10.5265 340.805 6.88278 342.315 4.19622 345.002C1.50966 347.688 0.000265143 351.332 0 355.132L0 371.792C0 375.591 1.50934 379.235 4.19599 381.922C6.88263 384.608 10.5265 386.118 14.326 386.118Z" fill="#D2996F"/>
<path d="M44.8499 352.335H83.2589V307.022H44.8499C41.0504 307.022 37.4066 308.532 34.7199 311.218C32.0333 313.905 30.5239 317.549 30.5239 321.348V338.008C30.5238 339.89 30.8942 341.753 31.6141 343.491C32.334 345.229 33.3893 346.809 34.7196 348.139C36.0499 349.47 37.6292 350.525 39.3674 351.245C41.1055 351.965 42.9685 352.335 44.8499 352.335Z" fill="#E1B89A"/>
<path d="M379.724 209.904V44.342C379.724 40.273 378.107 36.3708 375.23 33.4936C372.353 30.6164 368.451 29 364.382 29H333.163C329.094 29 325.192 30.6164 322.314 33.4936C319.437 36.3708 317.821 40.273 317.821 44.342V143.859C317.821 150.002 315.381 155.893 311.037 160.236C306.694 164.58 300.802 167.02 294.66 167.02H217.34C211.197 167.02 205.306 164.58 200.962 160.236C196.619 155.893 194.179 150.002 194.179 143.859V44.342C194.179 40.273 192.562 36.3708 189.685 33.4936C186.808 30.6164 182.906 29 178.837 29H147.618C143.549 29 139.647 30.6164 136.769 33.4936C133.892 36.3708 132.276 40.273 132.276 44.342V209.905C132.276 216.549 130.353 223.051 126.739 228.627C123.126 234.202 117.976 238.613 111.911 241.326C103.378 245.143 96.1323 251.349 91.0482 259.193C85.964 267.037 83.2587 276.185 83.2588 285.533V392.159C83.2591 416.389 92.8847 439.627 110.018 456.76C127.152 473.894 150.39 483.519 174.62 483.519H337.38C361.61 483.519 384.848 473.894 401.981 456.76C419.115 439.627 428.741 416.389 428.741 392.159V285.532C428.741 276.184 426.036 267.036 420.951 259.192C415.867 251.348 408.622 245.142 400.089 241.325C394.024 238.612 388.874 234.201 385.26 228.626C381.646 223.05 379.724 216.548 379.724 209.904Z" fill="#A3DEFE"/>
<path d="M379.724 209.904V44.342C379.724 40.273 378.107 36.3708 375.23 33.4936C372.353 30.6164 368.451 29 364.382 29H333.163C329.094 29 325.192 30.6164 322.314 33.4936C319.437 36.3708 317.821 40.273 317.821 44.342V143.859C317.821 150.002 315.381 155.893 311.037 160.236C306.694 164.58 300.802 167.02 294.66 167.02H217.34C211.197 167.02 205.306 164.58 200.962 160.236C196.619 155.893 194.179 150.002 194.179 143.859V44.342C194.179 40.273 192.562 36.3708 189.685 33.4936C186.808 30.6164 182.906 29 178.837 29H147.618C143.549 29 139.647 30.6164 136.769 33.4936C133.892 36.3708 132.276 40.273 132.276 44.342V209.905C132.276 216.549 130.353 223.051 126.739 228.627C123.126 234.202 117.976 238.613 111.911 241.326C103.378 245.143 96.1323 251.349 91.0482 259.193C85.964 267.037 83.2587 276.185 83.2588 285.533V392.159C83.2591 416.389 92.8847 439.627 110.018 456.76C127.152 473.894 150.39 483.519 174.62 483.519H337.38C361.61 483.519 384.848 473.894 401.981 456.76C419.115 439.627 428.741 416.389 428.741 392.159V285.532C428.741 276.184 426.036 267.036 420.951 259.192C415.867 251.348 408.622 245.142 400.089 241.325C394.024 238.612 388.874 234.201 385.26 228.626C381.646 223.05 379.724 216.548 379.724 209.904Z" fill="#A3DEFE"/>
<path d="M208.8 165.375C204.489 163.666 200.79 160.701 198.183 156.865C195.577 153.029 194.182 148.499 194.18 143.861V44.342C194.18 40.273 192.563 36.3708 189.686 33.4936C186.809 30.6164 182.907 29 178.838 29H147.618C143.549 29 139.647 30.6164 136.769 33.4936C133.892 36.3708 132.276 40.273 132.276 44.342V209.905C132.276 216.549 130.353 223.051 126.739 228.627C123.126 234.202 117.976 238.613 111.911 241.326C103.378 245.143 96.1323 251.349 91.0482 259.193C85.964 267.037 83.2587 276.185 83.2588 285.533V392.159C83.2591 416.389 92.8847 439.627 110.018 456.76C127.152 473.894 150.39 483.519 174.62 483.519H250.82C207.468 435.319 208.375 286.213 208.799 165.375H208.8Z" fill="#7ACEFA"/>
<path d="M303.156 429.104H208.843C196.301 429.104 184.273 424.122 175.404 415.254C166.536 406.385 161.553 394.357 161.553 381.814V318.497C161.553 315.454 162.762 312.535 164.914 310.383C167.066 308.231 169.985 307.022 173.028 307.022H338.971C340.478 307.022 341.97 307.319 343.363 307.896C344.755 308.473 346.02 309.318 347.085 310.383C348.151 311.449 348.996 312.714 349.573 314.106C350.149 315.498 350.446 316.991 350.446 318.497V381.814C350.446 388.025 349.223 394.174 346.847 399.912C344.47 405.649 340.987 410.863 336.596 415.254C332.204 419.645 326.991 423.129 321.253 425.505C315.516 427.882 309.366 429.105 303.156 429.104Z" fill="#FCF2D0"/>
<path d="M231.352 307.023H173.028C169.985 307.023 167.066 308.232 164.914 310.384C162.762 312.536 161.553 315.455 161.553 318.498V381.815C161.553 394.358 166.536 406.386 175.404 415.255C184.273 424.123 196.301 429.105 208.843 429.105H254.577C234.312 407.334 227.745 337.288 231.352 307.023Z" fill="#F6E3A3"/>
<path d="M338.971 307.023H173.029C169.986 307.023 167.067 308.232 164.915 310.384C162.763 312.536 161.554 315.455 161.554 318.498V351.672H350.446V318.498C350.446 316.991 350.15 315.499 349.573 314.107C348.996 312.715 348.151 311.45 347.086 310.384C346.02 309.319 344.755 308.473 343.363 307.897C341.97 307.32 340.478 307.023 338.971 307.023Z" fill="#E1B89A"/>
<path d="M173.029 307.023C169.986 307.023 167.067 308.232 164.915 310.384C162.763 312.536 161.554 315.455 161.554 318.498V351.672H231.632C230.076 334.349 230.038 318.047 231.352 307.024H173.029V307.023Z" fill="#D2996F"/>
<path d="M331.163 253.964H278.222C274.357 253.964 270.65 252.429 267.918 249.696C265.185 246.963 263.649 243.256 263.649 239.391V221.927C263.651 218.063 265.187 214.358 267.919 211.626C270.652 208.894 274.358 207.36 278.222 207.359H331.164C335.029 207.36 338.735 208.895 341.468 211.628C344.201 214.361 345.737 218.067 345.737 221.932V239.395C345.735 243.26 344.199 246.965 341.466 249.697C338.733 252.429 335.027 253.964 331.163 253.964Z" fill="#4E5660"/>
</svg>
