<svg width="512" height="512" viewBox="0 0 512 512" fill="none" xmlns="http://www.w3.org/2000/svg">
<path d="M430.848 512H80.335C69.1071 512 58.339 507.54 50.3996 499.6C42.4603 491.661 38 480.893 38 469.665V42.335C38.0003 31.1071 42.4606 20.3392 50.3999 12.3999C58.3392 4.46063 69.1071 0.000265205 80.335 0L430.847 0C442.075 0 452.843 4.46028 460.782 12.3996C468.722 20.339 473.182 31.1071 473.182 42.335V469.665C473.182 475.225 472.087 480.73 469.96 485.866C467.833 491.002 464.714 495.669 460.783 499.601C456.852 503.532 452.185 506.65 447.049 508.778C441.913 510.905 436.408 512 430.848 512Z" fill="#EAEAEA"/>
<path d="M255.591 347.9V42.335C255.591 31.107 260.052 20.3389 267.991 12.3996C275.931 4.46025 286.699 -3.13223e-09 297.927 0L80.335 0C74.7755 -1.55105e-09 69.2705 1.09503 64.1342 3.22258C58.998 5.35012 54.3311 8.46851 50.4 12.3997C46.4689 16.3309 43.3506 20.9979 41.2232 26.1342C39.0958 31.2705 38.0008 36.7755 38.001 42.335V469.665C38.001 480.893 42.4613 491.661 50.4006 499.6C54.3318 503.532 58.9988 506.65 64.1351 508.777C69.2714 510.905 74.7765 512 80.336 512H215.591C219.715 471.779 232.019 436.8 241.902 414.042C250.949 393.165 255.608 370.652 255.591 347.9Z" fill="#D8D7DA"/>
<path d="M253.006 326.886C326.833 326.886 386.682 267.037 386.682 193.21C386.682 119.383 326.833 59.5342 253.006 59.5342C179.179 59.5342 119.33 119.383 119.33 193.21C119.33 267.037 179.179 326.886 253.006 326.886Z" fill="#898890"/>
<path d="M119.33 193.208C119.33 228.66 133.413 262.66 158.482 287.729C183.55 312.797 217.55 326.88 253.002 326.88C254.075 326.88 255.145 326.867 256.214 326.839C263.772 323.646 270.225 318.301 274.769 311.469C279.313 304.637 281.748 296.62 281.771 288.415V98.2662C281.746 89.9354 279.235 81.8016 274.559 74.9069C269.883 68.0122 263.255 62.6705 255.524 59.5662C254.684 59.5512 253.845 59.5342 253.002 59.5342C235.448 59.5343 218.066 62.992 201.848 69.7098C185.63 76.4276 170.894 86.274 158.481 98.6868C146.069 111.1 136.223 125.836 129.505 142.054C122.787 158.272 119.33 175.654 119.33 193.208Z" fill="#6B6A72"/>
<path d="M253.006 249.72C284.216 249.72 309.516 224.42 309.516 193.21C309.516 162.001 284.216 136.7 253.006 136.7C221.796 136.7 196.496 162.001 196.496 193.21C196.496 224.42 221.796 249.72 253.006 249.72Z" fill="#FFDE55"/>
<path d="M309.999 134.3C306.531 130.812 304.584 126.093 304.584 121.174C304.584 116.255 306.531 111.536 309.999 108.048L360.184 57.8633C363.672 54.3951 368.391 52.4482 373.31 52.4482C378.229 52.4482 382.948 54.3951 386.436 57.8633C389.904 61.3514 391.851 66.0704 391.851 70.9893C391.851 75.9083 389.904 80.6273 386.436 84.1153L336.251 134.3C332.763 137.768 328.044 139.715 323.125 139.715C318.206 139.715 313.487 137.768 309.999 134.3Z" fill="#C6C5CA"/>
<path d="M201.184 134.3C204.652 130.812 206.598 126.093 206.598 121.174C206.598 116.255 204.652 111.537 201.184 108.048L150.999 57.8682C147.511 54.3999 142.792 52.4531 137.873 52.4531C132.954 52.4531 128.235 54.3999 124.747 57.8682C121.279 61.3563 119.332 66.0753 119.332 70.9942C119.332 75.9132 121.279 80.6322 124.747 84.1202L174.932 134.3C178.42 137.768 183.139 139.715 188.058 139.715C192.977 139.715 197.696 137.768 201.184 134.3Z" fill="#ACABB1"/>
<path d="M309.999 252.111C306.531 255.599 304.584 260.318 304.584 265.237C304.584 270.156 306.531 274.875 309.999 278.364L360.184 328.549C363.672 332.017 368.391 333.964 373.31 333.964C378.229 333.964 382.948 332.017 386.436 328.549C389.905 325.06 391.851 320.341 391.851 315.422C391.851 310.503 389.905 305.784 386.436 302.296L336.251 252.111C332.763 248.643 328.044 246.696 323.125 246.696C318.206 246.696 313.488 248.643 309.999 252.111Z" fill="#C6C5CA"/>
<path d="M201.184 252.111C204.652 255.599 206.599 260.318 206.599 265.237C206.599 270.156 204.652 274.875 201.184 278.364L150.999 328.549C147.511 332.017 142.792 333.964 137.873 333.964C132.954 333.964 128.235 332.017 124.747 328.549C121.279 325.06 119.332 320.341 119.332 315.422C119.332 310.503 121.279 305.784 124.747 302.296L174.932 252.111C178.421 248.643 183.139 246.696 188.058 246.696C192.977 246.696 197.696 248.643 201.184 252.111Z" fill="#ACABB1"/>
<path d="M38.001 386.416V469.665C38.001 480.893 42.4613 491.661 50.4006 499.6C54.3318 503.532 58.9988 506.65 64.1351 508.777C69.2714 510.905 74.7765 512 80.336 512H430.848C442.076 512 452.844 507.54 460.783 499.6C468.723 491.661 473.183 480.893 473.183 469.665V386.416H38.001Z" fill="#D8D7DA"/>
<path d="M251.091 386.416H38.001V469.665C38.001 480.893 42.4613 491.661 50.4006 499.6C54.3318 503.532 58.9988 506.65 64.1351 508.777C69.2714 510.905 74.7765 512 80.336 512H215.596C219.72 471.779 232.024 436.8 241.907 414.042C245.776 405.122 248.849 395.877 251.091 386.416Z" fill="#C6C5CA"/>
<path d="M185.95 471.919H98.669C92.6512 471.902 86.8848 469.503 82.6295 465.248C78.3742 460.993 75.9757 455.227 75.958 449.209C75.9759 443.191 78.3745 437.425 82.6298 433.17C86.8852 428.915 92.6514 426.517 98.669 426.5H185.95C191.968 426.517 197.734 428.916 201.989 433.171C206.244 437.426 208.643 443.192 208.66 449.21C208.642 455.228 206.244 460.994 201.989 465.249C197.734 469.503 191.968 471.902 185.95 471.919Z" fill="#BDFAFF"/>
<path d="M122.991 449.208C123.008 443.19 125.407 437.424 129.662 433.169C133.917 428.914 139.683 426.515 145.701 426.498H98.669C92.6512 426.515 86.8848 428.914 82.6295 433.169C78.3742 437.424 75.9757 443.19 75.958 449.208C75.9757 455.226 78.3742 460.992 82.6295 465.247C86.8848 469.502 92.6512 471.901 98.669 471.918H145.701C139.683 471.901 133.917 469.502 129.662 465.247C125.407 460.992 123.008 455.226 122.991 449.208Z" fill="#A0F0F2"/>
<path d="M280.8 487.502C301.948 487.502 319.092 470.358 319.092 449.21C319.092 428.062 301.948 410.918 280.8 410.918C259.652 410.918 242.508 428.062 242.508 449.21C242.508 470.358 259.652 487.502 280.8 487.502Z" fill="#898890"/>
<path d="M280.801 449.208C280.799 442.486 282.568 435.882 285.93 430.061C289.291 424.24 294.126 419.407 299.949 416.048C294.127 412.684 287.521 410.911 280.797 410.909C274.073 410.907 267.466 412.676 261.642 416.037C255.818 419.398 250.981 424.233 247.619 430.056C244.256 435.879 242.485 442.485 242.485 449.209C242.485 455.934 244.256 462.539 247.619 468.363C250.981 474.186 255.818 479.021 261.642 482.382C267.466 485.743 274.073 487.511 280.797 487.509C287.521 487.507 294.127 485.735 299.949 482.37C294.126 479.011 289.291 474.177 285.93 468.356C282.568 462.534 280.799 455.93 280.801 449.208Z" fill="#6B6A72"/>
<path d="M281.771 241.842V144.573C273.19 139.495 263.418 136.779 253.448 136.699C243.477 136.619 233.663 139.179 225.002 144.118C216.34 149.057 209.14 156.2 204.131 164.822C199.123 173.443 196.485 183.237 196.485 193.207C196.485 203.178 199.123 212.971 204.131 221.593C209.14 230.214 216.34 237.357 225.002 242.297C233.663 247.236 243.477 249.795 253.448 249.715C263.418 249.636 273.19 246.919 281.771 241.842Z" fill="#FFCD00"/>
</svg>
