<svg width="512" height="512" viewBox="0 0 512 512" fill="none" xmlns="http://www.w3.org/2000/svg">
<path d="M254.239 215.92H100.674C90.1516 215.921 80.0604 220.101 72.6201 227.542C65.1799 234.983 61.0001 245.074 61.0001 255.597V363.856H254.238V215.92H254.239Z" fill="#F6E3A3"/>
<path d="M351.255 215.92H254.239C243.716 215.92 233.624 220.1 226.183 227.541C218.742 234.982 214.562 245.074 214.562 255.597V363.856H390.931V255.597C390.931 245.074 386.751 234.982 379.31 227.541C371.87 220.101 361.778 215.92 351.255 215.92Z" fill="#FCF2D0"/>
<path d="M447.271 54.8764L352.647 149.5L398.166 195.019L492.79 100.395C497.833 95.3522 500.667 88.5121 500.667 81.38C500.667 74.2478 497.833 67.4077 492.79 62.3644L485.3 54.8764C480.257 49.8338 473.417 47.001 466.286 47.001C459.154 47.001 452.314 49.8338 447.271 54.8764Z" fill="#A3DEFE"/>
<path d="M352.647 149.501L398.166 195.02L442.726 150.46C430.844 135.089 422.576 106.19 420.35 81.7979L352.647 149.501Z" fill="#7ACEFA"/>
<path d="M403.539 237.158L371.465 269.232C361.047 279.65 347.906 286.922 333.546 290.216C319.186 293.509 304.188 292.691 290.272 287.855L285.072 286.045C279.637 284.158 274.771 280.92 270.93 276.637C267.089 272.354 264.399 267.165 263.112 261.557C261.826 255.95 261.985 250.107 263.574 244.578C265.164 239.048 268.132 234.013 272.2 229.945L382.116 120.031L403.54 141.455C416.23 154.146 423.359 171.358 423.359 189.305C423.359 207.252 416.23 224.464 403.54 237.155L403.539 237.158Z" fill="#9CA9BA"/>
<path d="M285.068 286.045L290.268 287.854C304.184 292.691 319.182 293.509 333.542 290.216C347.902 286.922 361.044 279.649 371.461 269.231L376.077 264.615C350.807 244.153 331.753 204.915 331.745 170.397L272.2 229.945C268.132 234.013 265.164 239.048 263.574 244.577C261.984 250.106 261.825 255.949 263.111 261.556C264.397 267.164 267.087 272.353 270.927 276.636C274.768 280.92 279.634 284.157 285.068 286.045Z" fill="#7C899A"/>
<path d="M426.268 363.855C405.04 305.692 428.868 247.53 472.601 247.53H317.692C273.954 247.53 250.131 305.693 271.359 363.855H426.268Z" fill="#F6E3A3"/>
<path d="M446.15 304.012V299.578C446.15 297.622 445.373 295.746 443.99 294.363C442.606 292.979 440.73 292.202 438.774 292.202H376.617C372.987 292.18 369.464 290.971 366.584 288.761C363.704 286.55 361.626 283.459 360.666 279.958C358.001 270.617 352.364 262.399 344.61 256.547C336.856 250.696 327.406 247.531 317.692 247.53H472.6C479.702 247.525 486.702 249.215 493.019 252.459C499.336 255.704 504.788 260.41 508.92 266.185C516.72 277.053 508.791 292.202 495.415 292.202H492.732C490.776 292.202 488.9 292.979 487.516 294.363C486.133 295.746 485.356 297.622 485.356 299.578V304.012C485.356 309.211 483.291 314.197 479.614 317.874C475.938 321.55 470.952 323.615 465.753 323.615C460.554 323.615 455.568 321.55 451.892 317.874C448.215 314.197 446.15 309.211 446.15 304.012Z" fill="#FCF2D0"/>
<path d="M459.976 421.091H21.1581C18.0665 421.091 15.0126 420.413 12.2112 419.105C9.4098 417.798 6.92912 415.892 4.94379 413.522C2.95845 411.152 1.51673 408.376 0.720119 405.389C-0.0764874 402.402 -0.208611 399.276 0.333051 396.233L2.99005 381.302C3.86031 376.411 6.42385 371.983 10.2314 368.793C14.039 365.603 18.8478 363.855 23.8151 363.854H457.315C462.282 363.854 467.091 365.603 470.899 368.793C474.706 371.983 477.27 376.411 478.14 381.302L480.797 396.233C481.339 399.276 481.207 402.402 480.41 405.389C479.613 408.376 478.172 411.152 476.186 413.522C474.201 415.892 471.72 417.798 468.919 419.105C466.118 420.413 463.064 421.091 459.972 421.091H459.976Z" fill="#A3DEFE"/>
<path d="M227.058 363.855H23.8151C18.8477 363.855 14.0389 365.604 10.2312 368.794C6.42362 371.984 3.86013 376.412 2.99005 381.302L0.333051 396.233C-0.208611 399.277 -0.0764874 402.403 0.720119 405.39C1.51673 408.377 2.95845 411.153 4.94379 413.523C6.92912 415.893 9.4098 417.799 12.2112 419.106C15.0126 420.414 18.0665 421.091 21.1581 421.091H239C225.648 409.904 218.972 386.062 227.063 363.855H227.058Z" fill="#7ACEFA"/>
<path d="M119.5 273.053C118.018 273.052 116.569 272.612 115.337 271.787C114.105 270.963 113.144 269.792 112.577 268.423C112.01 267.053 111.862 265.546 112.15 264.092C112.439 262.638 113.152 261.302 114.2 260.253L126.081 248.371C126.77 247.645 127.598 247.064 128.515 246.662C129.433 246.261 130.421 246.047 131.422 246.034C132.424 246.021 133.417 246.208 134.345 246.585C135.273 246.962 136.116 247.521 136.824 248.228C137.532 248.936 138.092 249.779 138.469 250.706C138.846 251.634 139.034 252.628 139.022 253.629C139.009 254.63 138.796 255.619 138.395 256.536C137.994 257.454 137.413 258.282 136.687 258.971L124.8 270.856C124.105 271.554 123.279 272.107 122.369 272.485C121.46 272.862 120.485 273.057 119.5 273.056V273.053Z" fill="#FCF2D0"/>
<path d="M132.853 323.767C131.371 323.766 129.922 323.325 128.69 322.501C127.458 321.677 126.497 320.506 125.93 319.136C125.363 317.767 125.215 316.26 125.503 314.806C125.792 313.352 126.505 312.016 127.553 310.967L144.065 294.455C144.76 293.754 145.587 293.196 146.499 292.816C147.41 292.435 148.388 292.237 149.375 292.235C150.363 292.233 151.341 292.426 152.254 292.803C153.167 293.18 153.996 293.734 154.695 294.432C155.393 295.131 155.947 295.96 156.324 296.873C156.701 297.786 156.893 298.764 156.891 299.752C156.889 300.74 156.692 301.717 156.311 302.629C155.93 303.54 155.373 304.367 154.671 305.062L138.159 321.574C137.464 322.272 136.638 322.825 135.728 323.202C134.819 323.58 133.844 323.774 132.859 323.774L132.853 323.767Z" fill="#FCF2D0"/>
<path d="M469.862 88.078C470.878 87.062 471.57 85.7675 471.85 84.3582C472.131 82.949 471.987 81.4882 471.437 80.1607C470.887 78.8331 469.956 77.6985 468.761 76.9002C467.567 76.1019 466.162 75.6758 464.725 75.6758C463.288 75.6758 461.884 76.1019 460.689 76.9002C459.494 77.6985 458.563 78.8331 458.013 80.1607C457.463 81.4882 457.319 82.949 457.6 84.3582C457.88 85.7675 458.572 87.062 459.588 88.078C460.951 89.4404 462.798 90.2058 464.725 90.2058C466.652 90.2058 468.5 89.4404 469.862 88.078Z" fill="white"/>
</svg>
