<svg width="512" height="512" viewBox="0 0 512 512" fill="none" xmlns="http://www.w3.org/2000/svg">
<path d="M444.057 512.135H302.357V66.001H453.972C461.893 66.001 469.73 67.6227 477.001 70.7664C484.272 73.91 490.821 78.509 496.247 84.28C501.673 90.051 505.86 96.8718 508.55 104.322C511.24 111.773 512.376 119.695 511.888 127.601L490.888 468.109C490.152 480.03 484.898 491.221 476.196 499.402C467.494 507.582 456 512.136 444.057 512.135Z" fill="#D6D8DB"/>
<path d="M302.359 217.621H45.4952C40.4667 217.621 35.6441 215.623 32.0884 212.068C28.5327 208.512 26.5352 203.69 26.5352 198.661V84.96C26.5352 79.9315 28.5327 75.1089 32.0884 71.5533C35.6441 67.9976 40.4667 66 45.4952 66H302.358V217.621H302.359Z" fill="#F0F1F1"/>
<path d="M491.936 451.046L490.883 468.107C490.148 480.027 484.894 491.218 476.193 499.399C467.492 507.579 455.999 512.134 444.056 512.134H54.064C49.0355 512.134 44.213 510.136 40.6573 506.581C37.1016 503.025 35.104 498.202 35.104 493.174V470.004C35.104 464.975 37.1016 460.153 40.6573 456.597C44.213 453.042 49.0355 451.044 54.064 451.044H491.936V451.046Z" fill="#F8D662"/>
<path d="M226.77 323.798H86.4771C81.2279 323.798 76.1937 325.883 72.482 329.595C68.7703 333.307 66.6851 338.341 66.6851 343.59V431.255C66.6851 436.504 68.7703 441.538 72.482 445.25C76.1937 448.962 81.2279 451.047 86.4771 451.047H226.77C232.019 451.047 237.053 448.962 240.765 445.25C244.477 441.538 246.562 436.504 246.562 431.255V343.59C246.562 338.341 244.477 333.307 240.765 329.595C237.053 325.883 232.019 323.798 226.77 323.798Z" fill="#BA8E79"/>
<path d="M0 331.25V389.15C0 393.071 1.55738 396.831 4.32955 399.603C7.10171 402.375 10.8616 403.932 14.782 403.932C18.7024 403.932 22.4623 402.375 25.2345 399.603C28.0066 396.831 29.564 393.071 29.564 389.15V336.86C29.564 333.396 30.9402 330.074 33.3898 327.624C35.8394 325.175 39.1617 323.798 42.626 323.798H224.6V306.71C224.6 303.401 223.285 300.228 220.946 297.888C218.606 295.548 215.432 294.233 212.123 294.233H37.017C27.1995 294.233 17.7841 298.133 10.842 305.075C3.89999 312.017 0 321.433 0 331.25H0Z" fill="#5D6671"/>
<path d="M192.749 263.755H120.5C117.23 263.755 114.093 262.456 111.781 260.143C109.468 257.831 108.169 254.694 108.169 251.424V217.624H205.08V251.424C205.08 253.043 204.761 254.647 204.141 256.143C203.522 257.639 202.613 258.998 201.468 260.143C200.323 261.288 198.964 262.197 197.468 262.816C195.972 263.436 194.368 263.755 192.749 263.755Z" fill="#F8D662"/>
<path d="M124.816 141.811H302.359V109.247H84.267C83.003 109.247 81.7704 109.641 80.7409 110.374C79.7113 111.107 78.9361 112.144 78.5233 113.338C78.1104 114.533 78.0803 115.827 78.4373 117.039C78.7943 118.252 79.5206 119.323 80.515 120.103L95.07 131.53C103.555 138.191 114.029 141.811 124.816 141.811Z" fill="#BA8E79"/>
<path opacity="0.1" d="M35.1001 470.006V493.176C35.1001 498.204 37.0977 503.027 40.6534 506.583C44.209 510.138 49.0316 512.136 54.0601 512.136H141.702C125.881 498.301 120.536 471.647 118.908 451.047H54.0641C51.5739 451.046 49.1081 451.536 46.8073 452.489C44.5065 453.441 42.4159 454.837 40.6548 456.598C38.8938 458.359 37.4968 460.449 36.5437 462.749C35.5907 465.05 35.1001 467.516 35.1001 470.006Z" fill="black"/>
<path opacity="0.1" d="M26.5361 84.96V198.66C26.5361 201.15 27.0265 203.615 27.9794 205.916C28.9322 208.216 30.3288 210.306 32.0894 212.067C33.85 213.827 35.9401 215.224 38.2405 216.177C40.5408 217.13 43.0063 217.62 45.4961 217.62H144.239C109.764 184.473 102.612 103.878 101.553 66H45.4951C43.0053 66 40.5399 66.4904 38.2396 67.4433C35.9393 68.3961 33.8493 69.7927 32.0887 71.5533C30.3282 73.3139 28.9317 75.4041 27.979 77.7044C27.0263 80.0047 26.536 82.4702 26.5361 84.96Z" fill="black"/>
<path opacity="0.1" d="M108.166 217.621V251.421C108.166 253.041 108.485 254.645 109.104 256.141C109.724 257.638 110.633 258.998 111.778 260.143C112.923 261.288 114.283 262.196 115.78 262.816C117.276 263.436 118.88 263.754 120.5 263.754H143.064C136.695 254.311 134.176 242.366 133.21 231.723H205.08V217.623L108.166 217.621Z" fill="black"/>
<g opacity="0.1">
<path opacity="0.1" d="M210.081 394.922H193.65C191.661 394.922 189.753 394.132 188.347 392.725C186.94 391.319 186.15 389.411 186.15 387.422C186.15 385.433 186.94 383.525 188.347 382.119C189.753 380.712 191.661 379.922 193.65 379.922H210.081C212.07 379.922 213.978 380.712 215.384 382.119C216.791 383.525 217.581 385.433 217.581 387.422C217.581 389.411 216.791 391.319 215.384 392.725C213.978 394.132 212.07 394.922 210.081 394.922Z" fill="black"/>
<path opacity="0.1" d="M210.081 368.492H193.65C191.661 368.492 189.753 367.702 188.347 366.295C186.94 364.889 186.15 362.981 186.15 360.992C186.15 359.003 186.94 357.095 188.347 355.689C189.753 354.282 191.661 353.492 193.65 353.492H210.081C212.07 353.492 213.978 354.282 215.384 355.689C216.791 357.095 217.581 359.003 217.581 360.992C217.581 362.981 216.791 364.889 215.384 366.295C213.978 367.702 212.07 368.492 210.081 368.492Z" fill="black"/>
<path opacity="0.1" d="M210.081 421.353H193.65C191.661 421.353 189.753 420.562 188.347 419.156C186.94 417.749 186.15 415.842 186.15 413.853C186.15 411.863 186.94 409.956 188.347 408.549C189.753 407.143 191.661 406.353 193.65 406.353H210.081C212.07 406.353 213.978 407.143 215.384 408.549C216.791 409.956 217.581 411.863 217.581 413.853C217.581 415.842 216.791 417.749 215.384 419.156C213.978 420.562 212.07 421.353 210.081 421.353Z" fill="black"/>
</g>
<path opacity="0.1" d="M140.437 451.046C117.202 423.57 114.813 356.661 119.777 323.797H86.4771C83.8779 323.797 81.3043 324.309 78.903 325.303C76.5017 326.298 74.3199 327.756 72.482 329.594C70.6441 331.432 69.1863 333.614 68.1916 336.015C67.197 338.416 66.6851 340.99 66.6851 343.589V431.254C66.6851 436.503 68.7703 441.537 72.482 445.249C76.1937 448.961 81.2279 451.046 86.4771 451.046H140.437Z" fill="black"/>
<path d="M398.851 353.626H379.183C375.027 353.626 371.041 351.975 368.102 349.036C365.163 346.097 363.512 342.111 363.512 337.955V210.595C363.512 206.439 365.163 202.453 368.102 199.514C371.041 196.575 375.027 194.924 379.183 194.924H398.851C403.007 194.924 406.993 196.575 409.932 199.514C412.871 202.453 414.522 206.439 414.522 210.595V337.955C414.522 342.111 412.871 346.097 409.932 349.036C406.993 351.975 403.007 353.626 398.851 353.626Z" fill="white"/>
<path d="M363.513 247.719V337.956C363.513 342.112 365.164 346.098 368.103 349.037C371.042 351.976 375.028 353.627 379.184 353.627H398.852C403.008 353.627 406.994 351.976 409.933 349.037C412.872 346.098 414.523 342.112 414.523 337.956V247.719H363.513Z" fill="#BA8E79"/>
<path d="M414.52 240.218H363.51V255.218H414.52V240.218Z" fill="#5D6671"/>
<path d="M414.52 293.008H363.51V308.008H414.52V293.008Z" fill="#5D6671"/>
<g opacity="0.2">
<path opacity="0.2" d="M439.155 395.922H363.512C361.523 395.922 359.615 395.132 358.209 393.725C356.802 392.319 356.012 390.411 356.012 388.422C356.012 386.433 356.802 384.525 358.209 383.119C359.615 381.712 361.523 380.922 363.512 380.922H439.155C441.144 380.922 443.052 381.712 444.458 383.119C445.865 384.525 446.655 386.433 446.655 388.422C446.655 390.411 445.865 392.319 444.458 393.725C443.052 395.132 441.144 395.922 439.155 395.922Z" fill="black"/>
<path opacity="0.2" d="M414.522 423.334H363.512C361.523 423.334 359.615 422.544 358.209 421.137C356.802 419.731 356.012 417.823 356.012 415.834C356.012 413.845 356.802 411.937 358.209 410.531C359.615 409.124 361.523 408.334 363.512 408.334H414.522C416.511 408.334 418.419 409.124 419.825 410.531C421.232 411.937 422.022 413.845 422.022 415.834C422.022 417.823 421.232 419.731 419.825 421.137C418.419 422.544 416.511 423.334 414.522 423.334Z" fill="black"/>
</g>
<path d="M434.334 109.247H377.511C373.798 109.247 370.237 110.722 367.612 113.348C364.986 115.973 363.511 119.534 363.511 123.247V147.247C363.511 150.96 364.986 154.521 367.612 157.147C370.237 159.772 373.798 161.247 377.511 161.247H434.334C438.047 161.247 441.608 159.772 444.233 157.147C446.859 154.521 448.334 150.96 448.334 147.247V123.247C448.334 119.534 446.859 115.973 444.233 113.348C441.608 110.722 438.047 109.247 434.334 109.247Z" fill="white"/>
</svg>
