<svg width="513" height="512" viewBox="0 0 513 512" fill="none" xmlns="http://www.w3.org/2000/svg">
<path d="M379.208 449.208C384.288 444.128 388.263 438.053 390.885 431.363C393.506 424.674 394.717 417.516 394.442 410.337C394.166 403.158 392.41 396.113 389.284 389.644C386.158 383.176 381.728 377.423 376.274 372.747L194.989 217.333L147.333 264.989L302.751 446.274C307.427 451.728 313.179 456.158 319.647 459.284C326.115 462.41 333.16 464.166 340.339 464.442C347.517 464.717 354.676 463.506 361.364 460.885C368.053 458.263 374.128 454.288 379.208 449.208Z" fill="#89D47F"/>
<path d="M183.701 307.401L270.411 408.552L332.946 335.601L241.876 257.523L183.701 307.401Z" fill="#5EC783"/>
<path d="M197.017 267.017C179.989 284.042 156.896 293.607 132.817 293.607C108.738 293.607 85.6448 284.042 68.6169 267.017C-4.14012 194.259 -12.7691 117.083 17.1569 87.1574C47.0829 57.2314 124.257 65.8574 197.016 138.614C214.042 155.642 223.607 178.736 223.607 202.816C223.607 226.895 214.043 249.989 197.017 267.017Z" fill="#F7EF87"/>
<path d="M17.1569 87.1577C-12.7691 117.084 -4.14314 194.258 68.6139 267.017C79.8129 278.222 93.7508 286.3 109.041 290.446C124.331 294.592 140.44 294.662 155.766 290.65C99.3249 258.045 65.0279 152.471 89.1099 73.9547C57.8369 67.0957 31.8209 72.4937 17.1569 87.1577Z" fill="#EFD176"/>
<path d="M171.567 241.564C181.83 231.28 187.594 217.344 187.594 202.814C187.594 188.285 181.83 174.349 171.567 164.064C143.044 135.541 111.532 116.134 82.8369 109.427C62.2079 104.607 50.7939 110.966 45.8839 115.876C40.9739 120.786 34.6059 132.201 39.4309 152.833C46.1379 181.524 65.5399 213.033 94.0679 241.563C104.353 251.825 118.288 257.589 132.817 257.589C147.346 257.589 161.282 251.826 171.567 241.564Z" fill="#EFD176"/>
<path d="M119.466 255.946C92.5359 217.841 77.3009 161.177 82.2349 109.301C61.9849 104.739 50.7429 111.016 45.8799 115.879C40.9659 120.79 34.6059 132.201 39.4309 152.833C46.1379 181.524 65.5399 213.033 94.0679 241.563C101.067 248.58 109.849 253.553 119.466 255.946Z" fill="#E3B72E"/>
<path d="M347.356 424.857C346.371 424.857 345.396 424.663 344.486 424.286C343.577 423.908 342.751 423.354 342.056 422.657L309.626 390.231C308.93 389.534 308.377 388.707 308.001 387.797C307.624 386.887 307.43 385.912 307.43 384.927C307.43 383.942 307.625 382.966 308.002 382.056C308.379 381.147 308.931 380.32 309.628 379.624C310.325 378.927 311.151 378.375 312.062 377.998C312.972 377.621 313.947 377.428 314.932 377.428C315.917 377.428 316.892 377.622 317.802 377.999C318.712 378.376 319.539 378.929 320.235 379.626L352.661 412.052C353.709 413.1 354.422 414.436 354.711 415.89C354.999 417.344 354.851 418.851 354.284 420.221C353.717 421.59 352.756 422.761 351.524 423.585C350.292 424.41 348.843 424.85 347.361 424.852L347.356 424.857Z" fill="#F7EF87"/>
<path d="M135.267 449.208C140.347 454.288 146.422 458.263 153.111 460.885C159.8 463.506 166.959 464.717 174.138 464.442C181.317 464.166 188.362 462.41 194.831 459.284C201.299 456.158 207.052 451.728 211.728 446.274L367.142 264.989L319.486 217.333L138.201 372.747C132.747 377.423 128.318 383.176 125.192 389.645C122.066 396.113 120.31 403.158 120.035 410.337C119.759 417.516 120.97 424.674 123.591 431.363C126.212 438.052 130.187 444.127 135.267 449.208Z" fill="#A3DEFE"/>
<path d="M167.118 424.856C165.636 424.855 164.187 424.415 162.955 423.59C161.722 422.766 160.762 421.595 160.195 420.226C159.628 418.856 159.479 417.349 159.768 415.895C160.057 414.441 160.77 413.105 161.818 412.056L194.244 379.63C194.94 378.934 195.767 378.381 196.677 378.004C197.587 377.627 198.562 377.433 199.547 377.433C200.532 377.432 201.507 377.626 202.417 378.003C203.327 378.38 204.154 378.932 204.851 379.628C205.548 380.325 206.1 381.151 206.477 382.061C206.854 382.971 207.049 383.947 207.049 384.931C207.049 385.916 206.855 386.892 206.478 387.802C206.102 388.712 205.549 389.539 204.853 390.235L172.423 422.661C171.727 423.359 170.9 423.911 169.989 424.288C169.079 424.665 168.103 424.858 167.118 424.856Z" fill="#8EAFE2"/>
<path d="M411.157 100.702L362.731 149.123C359.536 152.336 357.745 156.685 357.751 161.216C357.757 165.748 359.56 170.092 362.764 173.296C365.969 176.5 370.313 178.303 374.844 178.31C379.376 178.316 383.725 176.525 386.938 173.33L435.364 124.902C438.574 121.692 442.928 119.888 447.468 119.889C452.008 119.889 456.362 121.692 459.572 124.903C462.782 128.113 464.585 132.467 464.585 137.007C464.585 141.547 462.781 145.901 459.571 149.111L411.145 197.537C407.95 200.75 406.159 205.099 406.165 209.63C406.171 214.162 407.974 218.506 411.178 221.71C414.383 224.914 418.727 226.717 423.258 226.724C427.79 226.73 432.139 224.939 435.352 221.744L483.778 173.322C486.991 170.126 491.34 168.336 495.871 168.342C500.403 168.348 504.747 170.151 507.951 173.355C511.155 176.56 512.958 180.904 512.965 185.435C512.971 189.967 511.18 194.316 507.985 197.529L437.758 267.756C421.682 283.688 399.951 292.604 377.318 292.553C354.685 292.503 332.993 283.489 316.989 267.485C300.986 251.481 291.972 229.79 291.922 207.157C291.871 184.524 300.788 162.792 316.72 146.717L386.946 76.4897C390.157 73.2791 394.511 71.4755 399.052 71.4756C403.592 71.4757 407.947 73.2795 411.157 76.4902C414.368 79.7009 416.172 84.0555 416.171 88.5961C416.171 93.1366 414.368 97.4911 411.157 100.702Z" fill="#8EAFE2"/>
<path d="M341.911 121.524L316.72 146.716C303.812 159.624 295.369 176.32 292.625 194.366C289.881 212.413 292.979 230.864 301.466 247.024C309.954 263.185 323.386 276.209 339.802 284.192C356.217 292.176 374.755 294.702 392.708 291.401C352.884 256.439 334.11 177.622 341.911 121.524Z" fill="#6A96D7"/>
</svg>
