<svg width="512" height="512" viewBox="0 0 512 512" fill="none" xmlns="http://www.w3.org/2000/svg">
<path d="M235.836 274.066C235.836 217.52 189.996 124 133.45 124C76.9042 124 31.0642 217.52 31.0642 274.066C31.0642 301.22 41.8513 327.263 61.0524 346.464C80.2535 365.665 106.296 376.452 133.45 376.452C160.605 376.452 186.647 365.665 205.848 346.464C225.049 327.263 235.836 301.22 235.836 274.066Z" fill="#FCF2D0"/>
<path d="M220.912 327.319L220.303 327.314C107.054 327.076 91.6222 193.77 111.149 128.836C65.3282 148.67 31.0642 225.18 31.0642 274.066C31.0698 296.399 38.3762 318.117 51.87 335.912C65.3639 353.708 84.3053 366.603 105.808 372.635C127.311 378.667 150.196 377.503 170.976 369.322C191.757 361.141 209.293 346.391 220.912 327.319Z" fill="#F6E3A3"/>
<path d="M276.165 274.066C276.165 217.52 322.005 124 378.551 124C435.097 124 480.937 217.52 480.937 274.066C480.937 301.22 470.15 327.263 450.949 346.464C431.748 365.665 405.706 376.452 378.551 376.452C351.397 376.452 325.355 365.665 306.153 346.464C286.952 327.263 276.165 301.22 276.165 274.066Z" fill="#FCF2D0"/>
<path d="M466.012 327.319L465.403 327.314C352.154 327.076 336.722 193.77 356.249 128.836C310.428 148.67 276.164 225.18 276.164 274.066C276.17 296.399 283.476 318.117 296.97 335.912C310.464 353.708 329.405 366.603 350.908 372.635C372.411 378.667 395.296 377.503 416.076 369.322C436.857 361.141 454.393 346.391 466.012 327.319Z" fill="#F6E3A3"/>
<path d="M188.291 388.424H78.6092C70.5129 388.423 62.6413 385.76 56.2069 380.846C49.7725 375.932 45.132 369.039 43.0002 361.228L26.5782 301.089H240.322L223.906 361.228C221.774 369.04 217.133 375.935 210.698 380.85C204.262 385.765 196.389 388.427 188.291 388.428V388.424Z" fill="#7C899A"/>
<path d="M323.71 388.424H433.392C441.49 388.424 449.363 385.761 455.799 380.846C462.234 375.931 466.876 369.036 469.007 361.224L485.424 301.085H271.679L288.1 361.228C290.231 369.04 294.872 375.935 301.308 380.85C307.743 385.765 315.616 388.428 323.714 388.428L323.71 388.424Z" fill="#7C899A"/>
<path d="M491.482 317.437H20.5182C17.3952 317.437 14.3135 316.724 11.5081 315.351C8.70261 313.979 6.2476 311.985 4.33025 309.52C2.41291 307.054 1.08389 304.184 0.444574 301.127C-0.194746 298.07 -0.127481 294.908 0.641238 291.881L2.86224 283.136C3.9848 278.716 6.54867 274.796 10.1485 271.996C13.7483 269.196 18.1787 267.676 22.7392 267.676H489.261C493.822 267.676 498.252 269.196 501.852 271.996C505.452 274.796 508.016 278.716 509.138 283.136L511.359 291.881C512.128 294.908 512.195 298.07 511.556 301.127C510.917 304.184 509.588 307.054 507.67 309.52C505.753 311.985 503.298 313.979 500.492 315.351C497.687 316.724 494.605 317.437 491.482 317.437Z" fill="#9CA9BA"/>
<path d="M92.1002 363.204C90.6178 363.203 89.1691 362.762 87.9369 361.938C86.7047 361.114 85.7445 359.943 85.1774 358.573C84.6102 357.204 84.4617 355.697 84.7506 354.243C85.0394 352.789 85.7527 351.453 86.8002 350.404L94.1062 343.098C95.5149 341.702 97.4193 340.92 99.4028 340.925C101.386 340.929 103.287 341.719 104.69 343.122C106.092 344.524 106.882 346.425 106.886 348.409C106.89 350.392 106.109 352.297 104.712 353.705L97.4002 361.012C96.7051 361.71 95.8791 362.263 94.9696 362.641C94.0601 363.018 93.085 363.212 92.1002 363.212V363.204Z" fill="#9CA9BA"/>
<path d="M164.808 357.218C163.326 357.216 161.877 356.776 160.645 355.952C159.413 355.127 158.452 353.957 157.885 352.587C157.318 351.217 157.17 349.71 157.459 348.256C157.747 346.802 158.461 345.467 159.508 344.418L162.124 341.802C162.82 341.1 163.647 340.543 164.558 340.162C165.469 339.781 166.447 339.584 167.434 339.582C168.422 339.58 169.4 339.773 170.313 340.15C171.226 340.527 172.056 341.081 172.754 341.779C173.452 342.477 174.006 343.307 174.383 344.22C174.76 345.133 174.953 346.111 174.95 347.099C174.948 348.086 174.751 349.064 174.37 349.975C173.989 350.886 173.432 351.713 172.73 352.409L170.114 355.025C169.419 355.722 168.593 356.276 167.684 356.653C166.774 357.031 165.799 357.225 164.814 357.225L164.808 357.218Z" fill="#9CA9BA"/>
<path d="M350.09 361.862C348.608 361.861 347.159 361.42 345.927 360.596C344.695 359.772 343.735 358.601 343.167 357.232C342.6 355.862 342.452 354.355 342.741 352.901C343.03 351.447 343.743 350.111 344.79 349.062L349.054 344.798C350.461 343.392 352.369 342.602 354.358 342.602C356.347 342.602 358.255 343.392 359.661 344.798C361.068 346.205 361.858 348.113 361.858 350.102C361.858 352.091 361.068 353.999 359.661 355.405L355.397 359.669C354.702 360.367 353.876 360.92 352.967 361.298C352.057 361.676 351.082 361.87 350.097 361.869L350.09 361.862Z" fill="#9CA9BA"/>
<path d="M421.961 362.072C420.479 362.071 419.03 361.631 417.798 360.806C416.566 359.982 415.605 358.811 415.038 357.442C414.471 356.072 414.323 354.565 414.612 353.111C414.9 351.657 415.614 350.321 416.661 349.272L419.71 346.211C420.406 345.51 421.233 344.953 422.144 344.572C423.055 344.191 424.033 343.993 425.02 343.991C426.008 343.989 426.986 344.182 427.899 344.559C428.812 344.936 429.642 345.489 430.34 346.188C431.038 346.886 431.592 347.715 431.969 348.628C432.346 349.541 432.539 350.52 432.537 351.507C432.535 352.495 432.338 353.472 431.957 354.384C431.576 355.295 431.019 356.122 430.317 356.817L427.264 359.87C426.569 360.568 425.743 361.122 424.834 361.499C423.924 361.877 422.949 362.071 421.964 362.07L421.961 362.072Z" fill="#9CA9BA"/>
</svg>
