<svg width="512" height="512" viewBox="0 0 512 512" fill="none" xmlns="http://www.w3.org/2000/svg">
<path d="M207.797 462.145H139.145V495.632C139.145 499.973 140.87 504.136 143.94 507.206C147.009 510.275 151.173 512 155.514 512H191.429C193.579 512 195.707 511.576 197.693 510.754C199.679 509.931 201.484 508.725 203.004 507.205C204.524 505.685 205.729 503.881 206.552 501.895C207.375 499.909 207.798 497.78 207.798 495.631V462.145H207.797Z" fill="#4E5660"/>
<path d="M304.277 462.145H372.929V495.632C372.929 499.973 371.204 504.136 368.134 507.206C365.065 510.275 360.901 512 356.56 512H320.645C316.304 512 312.14 510.275 309.07 507.205C306.001 504.135 304.276 499.972 304.276 495.631V462.145H304.277Z" fill="#4E5660"/>
<path d="M122.537 145.07H389.537V205.717H122.537V145.07Z" fill="#9CA9BA"/>
<path d="M122.537 145.07H219.337V205.717H122.537V145.07Z" fill="#7C899A"/>
<path d="M340.588 477.193H171.488C152.263 477.193 133.826 469.556 120.233 455.962C106.639 442.368 99.002 423.931 99.002 404.707V222.82C99.002 214.419 102.339 206.362 108.28 200.421C114.22 194.481 122.277 191.144 130.678 191.144H381.398C389.799 191.144 397.856 194.481 403.796 200.421C409.737 206.362 413.074 214.419 413.074 222.82V404.708C413.074 423.932 405.437 442.369 391.843 455.962C378.249 469.556 359.812 477.193 340.588 477.193Z" fill="#A3DEFE"/>
<path d="M195.53 191.144H130.676C122.275 191.144 114.218 194.481 108.278 200.421C102.337 206.362 99 214.419 99 222.82V404.708C99 423.932 106.637 442.369 120.231 455.963C133.824 469.557 152.262 477.194 171.486 477.194H233.373C190.994 428.264 189.979 274.135 195.53 191.144Z" fill="#7ACEFA"/>
<path d="M340.588 2.75941e-08H171.488C161.969 -0.000262621 152.543 1.87445 143.748 5.51709C134.954 9.15974 126.963 14.499 120.231 21.2299C113.5 27.9609 108.161 35.9518 104.518 44.7463C100.875 53.5409 99 62.9668 99 72.486V127.967C99 136.368 102.337 144.425 108.278 150.365C114.218 156.306 122.275 159.643 130.676 159.643H381.398C389.799 159.643 397.856 156.306 403.796 150.365C409.737 144.425 413.074 136.368 413.074 127.967V72.486C413.074 53.2615 405.437 34.8244 391.843 21.2307C378.25 7.6369 359.812 2.75941e-08 340.588 2.75941e-08Z" fill="#A3DEFE"/>
<path d="M187.967 0H171.486C152.262 0 133.824 7.6369 120.231 21.2307C106.637 34.8244 99 53.2615 99 72.486V127.967C99 136.368 102.337 144.425 108.278 150.365C114.218 156.306 122.275 159.643 130.676 159.643H199.2C185.994 130.389 183.602 66.188 187.967 0Z" fill="#7ACEFA"/>
<path d="M353.812 334.168H364.267C368.069 334.168 371.715 332.657 374.403 329.969C377.091 327.281 378.602 323.635 378.602 319.834V249.684C378.602 245.882 377.092 242.236 374.403 239.547C371.715 236.859 368.069 235.349 364.267 235.349H353.812C350.01 235.349 346.364 236.859 343.676 239.547C340.987 242.236 339.477 245.882 339.477 249.684V319.834C339.477 323.635 340.988 327.281 343.676 329.969C346.364 332.657 350.01 334.168 353.812 334.168Z" fill="#4E5660"/>
<path d="M353.812 121.316H364.267C368.069 121.316 371.715 119.806 374.403 117.118C377.092 114.429 378.602 110.783 378.602 106.981V71.7003C378.602 69.8176 378.232 67.9532 377.512 66.2136C376.791 64.4741 375.736 62.8934 374.404 61.562C373.073 60.2305 371.493 59.1744 369.754 58.4538C368.014 57.7332 366.15 57.3623 364.267 57.3623H353.812C351.929 57.3623 350.065 57.7332 348.326 58.4538C346.586 59.1744 345.006 60.2305 343.675 61.562C342.343 62.8934 341.288 64.4741 340.567 66.2136C339.847 67.9532 339.477 69.8176 339.477 71.7003V106.984C339.478 110.786 340.989 114.431 343.677 117.118C346.365 119.806 350.011 121.316 353.812 121.316Z" fill="#4E5660"/>
<path d="M248.794 307.358L237.666 296.23C236.142 294.705 235.286 292.638 235.286 290.482C235.286 288.326 236.142 286.259 237.666 284.735L268.574 253.827C270.098 252.303 272.166 251.446 274.321 251.446C276.477 251.446 278.545 252.303 280.069 253.827L291.197 264.955C292.721 266.479 293.577 268.546 293.577 270.702C293.577 272.858 292.721 274.925 291.197 276.45L260.289 307.358C258.765 308.882 256.697 309.738 254.542 309.738C252.386 309.738 250.318 308.882 248.794 307.358Z" fill="white"/>
<path d="M172.689 294.559C185.148 289.302 190.987 274.941 185.731 262.482C180.474 250.022 166.113 244.184 153.653 249.44C141.194 254.697 135.355 269.058 140.612 281.517C145.868 293.977 160.23 299.815 172.689 294.559Z" fill="#D2896F"/>
<path d="M183.452 378.335L173.678 373.689C172.759 373.252 171.96 372.598 171.351 371.783C170.742 370.968 170.34 370.017 170.181 369.012C170.021 368.007 170.109 366.978 170.437 366.015C170.765 365.052 171.322 364.182 172.061 363.483L179.921 356.044C180.965 355.053 181.636 353.732 181.821 352.304L183.221 341.573C183.353 340.564 183.728 339.602 184.315 338.771C184.902 337.94 185.682 337.264 186.589 336.802C187.495 336.34 188.501 336.106 189.518 336.12C190.536 336.134 191.534 336.395 192.428 336.882L201.928 342.058C203.193 342.747 204.658 342.979 206.074 342.715L216.712 340.729C217.712 340.542 218.743 340.602 219.715 340.903C220.687 341.204 221.571 341.738 222.291 342.457C223.01 343.177 223.544 344.061 223.845 345.033C224.146 346.005 224.206 347.036 224.019 348.036L222.037 358.674C221.773 360.09 222.005 361.555 222.694 362.82L227.87 372.32C228.357 373.213 228.619 374.212 228.633 375.23C228.647 376.247 228.413 377.253 227.951 378.16C227.489 379.066 226.813 379.847 225.981 380.433C225.15 381.02 224.188 381.396 223.179 381.527L212.448 382.927C211.02 383.112 209.699 383.783 208.708 384.827L201.269 392.687C200.569 393.426 199.7 393.983 198.737 394.311C197.774 394.638 196.745 394.726 195.74 394.567C194.735 394.408 193.784 394.006 192.969 393.397C192.154 392.788 191.5 391.989 191.063 391.07L186.417 381.297C185.799 379.996 184.751 378.948 183.45 378.329L183.452 378.335Z" fill="#F7EF87"/>
<path d="M173.678 373.688L183.452 378.334C184.753 378.953 185.801 380.002 186.42 381.303L191.066 391.075C191.503 391.994 192.157 392.793 192.972 393.403C193.787 394.012 194.738 394.414 195.743 394.573C196.748 394.732 197.777 394.644 198.74 394.316C199.703 393.989 200.572 393.431 201.272 392.692L202.089 391.829C199.256 375.003 197.216 357.03 195.803 338.717L192.433 336.881C191.539 336.394 190.541 336.132 189.523 336.118C188.506 336.104 187.5 336.338 186.593 336.8C185.687 337.262 184.906 337.938 184.319 338.769C183.733 339.601 183.357 340.562 183.226 341.571L181.826 352.303C181.641 353.731 180.97 355.051 179.926 356.042L172.066 363.481C171.327 364.181 170.769 365.05 170.441 366.013C170.113 366.977 170.024 368.005 170.183 369.011C170.342 370.016 170.744 370.967 171.354 371.782C171.963 372.597 172.762 373.252 173.681 373.688H173.678Z" fill="#EFD176"/>
<path d="M257.682 75.6891C257.588 76.687 257.866 77.6843 258.461 78.4905C259.057 79.2967 259.928 79.8552 260.909 80.0595C261.891 80.2638 262.913 80.0994 263.78 79.5977C264.648 79.0961 265.3 78.2924 265.613 77.3401L265.691 77.1011C267.299 72.2131 272.215 69.0171 276.915 66.9221C277.703 66.5711 278.409 66.0584 278.987 65.4172C279.565 64.776 280.001 64.0206 280.268 63.2C280.536 62.3794 280.627 61.5118 280.538 60.6534C280.449 59.795 280.18 58.9649 279.749 58.217C279.319 57.469 278.736 56.8198 278.038 56.3115C277.341 55.8031 276.544 55.4469 275.701 55.2659C274.857 55.085 273.984 55.0832 273.14 55.2609C272.295 55.4385 271.497 55.7915 270.798 56.2971C270.091 57.0471 258.755 64.0601 257.682 75.6891Z" fill="#F5F5F5"/>
<path d="M265.664 60.5957C262.25 63.9197 258.294 69.0517 257.682 75.6897C257.59 76.6868 257.868 77.6828 258.464 78.4878C259.059 79.2929 259.93 79.8506 260.91 80.0545C261.891 80.2585 262.912 80.0945 263.779 79.5938C264.646 79.0931 265.299 78.2907 265.612 77.3397L265.69 77.1007C267.024 73.0447 270.637 70.1537 274.514 68.0907C272.173 64.9511 269.146 62.3876 265.664 60.5957Z" fill="#EBEBEB"/>
<path d="M250.415 74.4077C250.16 75.376 249.558 76.2166 248.723 76.7693C247.889 77.322 246.88 77.5482 245.889 77.4047C244.898 77.2612 243.995 76.758 243.351 75.9912C242.707 75.2243 242.369 74.2474 242.399 73.2467L242.408 72.9957C242.569 67.8527 239.042 63.1677 235.342 59.5957C234.721 58.9962 234.233 58.273 233.909 57.4729C233.586 56.6728 233.434 55.8136 233.463 54.951C233.493 54.0884 233.703 53.2417 234.081 52.4656C234.459 51.6895 234.995 51.0013 235.655 50.4457C236.316 49.8901 237.086 49.4795 237.915 49.2403C238.744 49.0012 239.615 48.9389 240.47 49.0575C241.324 49.1761 242.145 49.4729 242.878 49.9288C243.611 50.3846 244.24 50.9893 244.724 51.7037C245.131 52.6467 253.38 63.1127 250.415 74.4077Z" fill="#F5F5F5"/>
<path d="M248.08 57.502C244.196 57.9975 240.475 59.3686 237.198 61.512C240.135 64.777 242.541 68.729 242.407 72.996L242.398 73.247C242.368 74.2477 242.706 75.2246 243.35 75.9914C243.994 76.7582 244.897 77.2614 245.888 77.4049C246.879 77.5484 247.888 77.3222 248.722 76.7695C249.557 76.2168 250.159 75.3762 250.414 74.408C252.109 67.965 250.15 61.793 248.08 57.502Z" fill="#EBEBEB"/>
<path d="M274.445 82.34C272.777 91.8 262.362 95.812 250.745 93.764C239.128 91.716 230.717 84.384 232.385 74.924C234.053 65.464 244.82 59.455 256.433 61.503C268.046 63.551 276.113 72.88 274.445 82.34Z" fill="white"/>
<path d="M250.363 93.7651C238.75 91.7171 230.335 84.3851 232.003 74.9251C232.487 72.516 233.519 70.2506 235.019 68.3046C236.52 66.3587 238.448 64.7845 240.655 63.7041C240.92 63.8041 241.073 63.8711 241.073 63.8711C241.073 63.8711 225.167 90.8041 264.521 92.6221L265.264 92.6571C262.361 93.7774 259.27 94.3303 256.158 94.2861C254.215 94.2812 252.276 94.1068 250.363 93.7651Z" fill="#F5F5F5"/>
<path d="M245.006 79.5477C245.371 77.4838 243.565 75.4395 240.974 74.9817C238.382 74.5239 235.986 75.8259 235.621 77.8899C235.256 79.9538 237.062 81.9981 239.653 82.4559C242.245 82.9137 244.642 81.6117 245.006 79.5477Z" fill="#A2DDFD"/>
<path d="M270.445 84.0272C270.81 81.9633 269.004 79.919 266.413 79.4612C263.821 79.0034 261.425 80.3054 261.06 82.3694C260.695 84.4333 262.501 86.4776 265.092 86.9354C267.684 87.3932 270.081 86.0912 270.445 84.0272Z" fill="#A2DDFD"/>
<path d="M254.063 79.4882C253.291 79.4881 252.531 79.2883 251.859 78.908C251.187 78.5278 250.625 77.9801 250.227 77.3182C250.156 77.213 250.107 77.0945 250.083 76.9698C250.059 76.8451 250.06 76.7168 250.088 76.5928C250.115 76.4688 250.167 76.3516 250.241 76.2484C250.315 76.1451 250.409 76.058 250.518 75.9924C250.626 75.9267 250.747 75.8838 250.873 75.8663C250.999 75.8489 251.127 75.8572 251.249 75.8907C251.372 75.9243 251.486 75.9824 251.585 76.0616C251.685 76.1407 251.767 76.2393 251.827 76.3512C252.018 76.6713 252.276 76.9465 252.583 77.1581C252.89 77.3696 253.24 77.5127 253.607 77.5775C253.974 77.6423 254.351 77.6273 254.712 77.5335C255.073 77.4398 255.41 77.2695 255.699 77.0342C255.892 76.8781 256.139 76.8052 256.386 76.8314C256.633 76.8577 256.86 76.981 257.016 77.1742C257.172 77.3674 257.245 77.6147 257.219 77.8617C257.192 78.1087 257.069 78.3351 256.876 78.4912C256.08 79.1351 255.087 79.487 254.063 79.4882Z" fill="#3E455B"/>
<path d="M266.117 80.3903C266.062 80.3904 266.007 80.3857 265.953 80.3763C265.832 80.3549 265.716 80.3099 265.612 80.2438C265.509 80.1777 265.419 80.0918 265.349 79.9911C265.278 79.8903 265.228 79.7766 265.202 79.6566C265.175 79.5365 265.173 79.4124 265.194 79.2913C265.222 79.1345 265.218 78.9738 265.184 78.8184C265.149 78.6629 265.084 78.5158 264.993 78.3854C264.902 78.2549 264.786 78.1438 264.651 78.0582C264.517 77.9727 264.367 77.9144 264.21 77.8868C264.054 77.8591 263.893 77.8627 263.738 77.8971C263.582 77.9316 263.435 77.9963 263.305 78.0877C263.174 78.179 263.063 78.2951 262.977 78.4294C262.892 78.5637 262.834 78.7135 262.806 78.8703C262.785 78.9914 262.74 79.1071 262.674 79.2108C262.608 79.3145 262.522 79.4041 262.421 79.4747C262.32 79.5452 262.207 79.5952 262.087 79.6218C261.967 79.6484 261.843 79.6511 261.721 79.6298C261.6 79.6085 261.485 79.5635 261.381 79.4974C261.277 79.4314 261.188 79.3455 261.117 79.2448C261.047 79.1441 260.997 79.0305 260.97 78.9105C260.943 78.7905 260.941 78.6664 260.962 78.5453C261.03 78.144 261.176 77.7601 261.393 77.4157C261.61 77.0713 261.893 76.7733 262.226 76.5387C262.558 76.3041 262.934 76.1376 263.331 76.0489C263.728 75.9601 264.139 75.9508 264.54 76.0215C264.941 76.0922 265.323 76.2416 265.666 76.4609C266.009 76.6802 266.305 76.9652 266.537 77.2994C266.77 77.6337 266.933 78.0105 267.019 78.4083C267.105 78.8061 267.112 79.217 267.038 79.6173C267 79.8339 266.886 80.0301 266.718 80.1716C266.55 80.3131 266.337 80.3909 266.117 80.3913V80.3903Z" fill="#3E455B"/>
<path d="M245.378 76.8444C245.323 76.8445 245.268 76.8398 245.214 76.8304C245.093 76.809 244.977 76.764 244.873 76.6979C244.77 76.6318 244.68 76.5459 244.61 76.4452C244.539 76.3444 244.489 76.2307 244.463 76.1107C244.436 75.9906 244.434 75.8665 244.455 75.7454C244.483 75.5886 244.479 75.4279 244.445 75.2725C244.41 75.117 244.345 74.9699 244.254 74.8395C244.163 74.709 244.047 74.5979 243.912 74.5123C243.778 74.4268 243.628 74.3685 243.471 74.3409C243.315 74.3133 243.154 74.3168 242.998 74.3512C242.843 74.3857 242.696 74.4504 242.566 74.5418C242.435 74.6331 242.324 74.7492 242.238 74.8835C242.153 75.0178 242.095 75.1676 242.067 75.3244C242.046 75.4455 242.001 75.5612 241.935 75.6649C241.869 75.7686 241.783 75.8582 241.682 75.9288C241.581 75.9993 241.468 76.0493 241.348 76.0759C241.228 76.1025 241.104 76.1052 240.982 76.0839C240.861 76.0626 240.746 76.0176 240.642 75.9515C240.538 75.8855 240.449 75.7996 240.378 75.6989C240.308 75.5982 240.258 75.4846 240.231 75.3646C240.204 75.2446 240.202 75.1205 240.223 74.9994C240.291 74.5981 240.437 74.2142 240.654 73.8698C240.871 73.5254 241.154 73.2274 241.487 72.9928C241.819 72.7582 242.195 72.5917 242.592 72.503C242.989 72.4142 243.4 72.4049 243.801 72.4756C244.202 72.5463 244.584 72.6957 244.927 72.915C245.27 73.1343 245.566 73.4193 245.798 73.7535C246.031 74.0878 246.194 74.4646 246.28 74.8624C246.366 75.2602 246.373 75.6711 246.299 76.0714C246.261 76.288 246.147 76.4842 245.979 76.6257C245.811 76.7672 245.598 76.845 245.378 76.8454V76.8444Z" fill="#3E455B"/>
<path d="M240.466 122.077L236.539 120.21C236.17 120.034 235.849 119.772 235.604 119.444C235.36 119.117 235.198 118.735 235.134 118.331C235.07 117.927 235.106 117.514 235.237 117.127C235.369 116.74 235.592 116.391 235.889 116.11L239.047 113.121C239.467 112.724 239.737 112.194 239.812 111.621L240.374 107.309C240.427 106.903 240.578 106.517 240.814 106.183C241.049 105.849 241.363 105.577 241.727 105.391C242.092 105.206 242.496 105.112 242.905 105.117C243.314 105.123 243.715 105.228 244.074 105.424L247.892 107.504C248.401 107.781 248.989 107.874 249.558 107.768L253.832 106.968C254.234 106.893 254.648 106.917 255.039 107.038C255.429 107.159 255.784 107.373 256.074 107.662C256.363 107.952 256.577 108.307 256.698 108.697C256.819 109.088 256.843 109.502 256.768 109.904L255.968 114.178C255.862 114.747 255.955 115.335 256.232 115.844L258.312 119.662C258.508 120.021 258.613 120.422 258.619 120.831C258.624 121.24 258.53 121.644 258.344 122.009C258.159 122.373 257.887 122.687 257.553 122.922C257.219 123.158 256.833 123.309 256.427 123.362L252.115 123.924C251.542 123.999 251.012 124.269 250.615 124.689L247.626 127.847C247.345 128.144 246.996 128.367 246.609 128.499C246.222 128.63 245.809 128.666 245.405 128.602C245.001 128.538 244.619 128.376 244.292 128.132C243.964 127.887 243.702 127.566 243.526 127.197L241.659 123.27C241.411 122.747 240.99 122.326 240.467 122.077H240.466Z" fill="#F7EF87"/>
</svg>
