<svg width="512" height="512" viewBox="0 0 512 512" fill="none" xmlns="http://www.w3.org/2000/svg">
<path d="M86.9751 246.28C84.986 246.28 83.0783 245.49 81.6718 244.084C80.2653 242.677 79.4751 240.769 79.4751 238.78V175.611C79.4751 173.622 80.2653 171.715 81.6718 170.308C83.0783 168.902 84.986 168.111 86.9751 168.111C88.9642 168.111 90.8719 168.902 92.2784 170.308C93.6849 171.715 94.4751 173.622 94.4751 175.611V238.78C94.4751 240.769 93.6849 242.677 92.2784 244.084C90.8719 245.49 88.9642 246.28 86.9751 246.28Z" fill="#5D6671"/>
<path d="M332.792 246.28C330.803 246.28 328.895 245.49 327.489 244.084C326.082 242.677 325.292 240.769 325.292 238.78V175.611C325.292 173.622 326.082 171.715 327.489 170.308C328.895 168.902 330.803 168.111 332.792 168.111C334.781 168.111 336.689 168.902 338.095 170.308C339.502 171.715 340.292 173.622 340.292 175.611V238.78C340.292 240.769 339.502 242.677 338.095 244.084C336.689 245.49 334.781 246.28 332.792 246.28Z" fill="#5D6671"/>
<path d="M332.792 214.696H86.9751C84.986 214.696 83.0783 213.906 81.6718 212.5C80.2653 211.093 79.4751 209.185 79.4751 207.196C79.4751 205.207 80.2653 203.299 81.6718 201.893C83.0783 200.486 84.986 199.696 86.9751 199.696H332.792C334.781 199.696 336.689 200.486 338.095 201.893C339.502 203.299 340.292 205.207 340.292 207.196C340.292 209.185 339.502 211.093 338.095 212.5C336.689 213.906 334.781 214.696 332.792 214.696Z" fill="#5D6671"/>
<path d="M250.853 246.28C248.864 246.28 246.956 245.49 245.55 244.084C244.143 242.677 243.353 240.769 243.353 238.78V175.611C243.353 173.622 244.143 171.715 245.55 170.308C246.956 168.902 248.864 168.111 250.853 168.111C252.842 168.111 254.75 168.902 256.156 170.308C257.563 171.715 258.353 173.622 258.353 175.611V238.78C258.353 240.769 257.563 242.677 256.156 244.084C254.75 245.49 252.842 246.28 250.853 246.28Z" fill="#5D6671"/>
<path d="M168.914 246.28C166.925 246.28 165.017 245.49 163.611 244.084C162.204 242.677 161.414 240.769 161.414 238.78V175.611C161.414 173.622 162.204 171.715 163.611 170.308C165.017 168.902 166.925 168.111 168.914 168.111C170.903 168.111 172.811 168.902 174.217 170.308C175.624 171.715 176.414 173.622 176.414 175.611V238.78C176.414 240.769 175.624 242.677 174.217 244.084C172.811 245.49 170.903 246.28 168.914 246.28Z" fill="#5D6671"/>
<path d="M357.811 442.23H61.9548C52.9348 442.23 44.2842 438.647 37.9061 432.269C31.528 425.891 27.9448 417.24 27.9448 408.22V253.52C27.9448 249.611 29.4977 245.862 32.2618 243.098C35.0259 240.334 38.7748 238.781 42.6838 238.781H377.084C380.993 238.781 384.742 240.334 387.506 243.098C390.27 245.862 391.823 249.611 391.823 253.52V408.22C391.823 412.687 390.943 417.109 389.234 421.236C387.524 425.362 385.019 429.112 381.861 432.27C378.702 435.428 374.953 437.933 370.827 439.642C366.7 441.351 362.277 442.231 357.811 442.23Z" fill="#F0F1F1"/>
<g opacity="0.12">
<path opacity="0.12" d="M391.821 408.22V393.408C380.074 393.408 368.809 398.074 360.503 406.38C352.197 414.686 347.531 425.952 347.531 437.698V442.23H357.811C366.831 442.23 375.481 438.647 381.859 432.269C388.238 425.891 391.821 417.24 391.821 408.22Z" fill="black"/>
<path opacity="0.12" d="M27.9448 408.22V393.408C39.6913 393.408 50.9566 398.074 59.2626 406.38C67.5686 414.686 72.2348 425.952 72.2348 437.698V442.23H61.9548C52.9348 442.23 44.2842 438.647 37.9061 432.269C31.528 425.891 27.9448 417.24 27.9448 408.22Z" fill="black"/>
</g>
<path d="M391.821 317.652H27.9448V253.52C27.9448 249.611 29.4977 245.862 32.2618 243.098C35.0259 240.334 38.7748 238.781 42.6838 238.781H377.084C380.993 238.781 384.742 240.334 387.506 243.098C390.27 245.862 391.823 249.611 391.823 253.52L391.821 317.652Z" fill="#F18290"/>
<path d="M347.357 175.611H72.4088C69.0643 175.61 65.8572 174.281 63.4927 171.916C61.1281 169.55 59.7998 166.343 59.7998 162.998V120.935C59.7998 117.591 61.1281 114.383 63.4927 112.018C65.8572 109.653 69.0643 108.323 72.4088 108.322H359.97V162.998C359.97 166.343 358.641 169.552 356.276 171.917C353.91 174.282 350.702 175.611 347.357 175.611Z" fill="#C1C6CA"/>
<path opacity="0.1" d="M359.966 134.462H59.7959V149.462H359.966V134.462Z" fill="black"/>
<path d="M359.97 141.967H495.179C499.641 141.967 503.919 140.195 507.074 137.04C510.228 133.885 512 129.607 512 125.145C512 120.684 510.228 116.405 507.073 113.25C503.918 110.096 499.64 108.323 495.178 108.323H359.97V141.967Z" fill="#F8D662"/>
<path d="M76.0998 76.7053C74.3099 76.7073 72.5788 76.0664 71.2218 74.8993C62.9128 67.7773 51.5218 61.7993 46.4988 60.8823C45.5249 60.7114 44.5944 60.3496 43.7609 59.8178C42.9273 59.286 42.2072 58.5946 41.6418 57.7834C41.0765 56.9722 40.6771 56.0573 40.4667 55.0912C40.2563 54.1251 40.239 53.1269 40.4158 52.1541C40.5926 51.1813 40.96 50.253 41.4969 49.4227C42.0337 48.5924 42.7295 47.8765 43.5441 47.3161C44.3587 46.7557 45.2761 46.3619 46.2434 46.1573C47.2108 45.9528 48.209 45.9416 49.1808 46.1243C57.5158 47.6393 71.1878 55.1133 80.9808 63.5103C82.1445 64.5075 82.9748 65.8373 83.3599 67.3207C83.745 68.8041 83.6664 70.3699 83.1347 71.8073C82.603 73.2447 81.6437 74.4847 80.3859 75.3604C79.1282 76.2361 77.6323 76.7054 76.0998 76.7053Z" fill="#BA8E79"/>
<path d="M39.765 215.526C37.9188 215.527 36.1377 214.844 34.765 213.61C31.6203 210.983 27.9995 208.985 24.1 207.726C19.03 206.109 14.669 206.281 11.141 208.237C9.4013 209.201 7.34974 209.435 5.43761 208.887C3.52549 208.339 1.90945 207.054 0.944988 205.314C-0.0194719 203.574 -0.253342 201.523 0.294827 199.61C0.842996 197.698 2.1283 196.082 3.86799 195.118C18.709 186.889 36.468 194.989 44.777 202.442C45.9074 203.455 46.7036 204.788 47.0603 206.264C47.4169 207.74 47.3172 209.289 46.7744 210.707C46.2315 212.125 45.2711 213.345 44.0201 214.205C42.769 215.066 41.2863 215.526 39.768 215.526H39.765Z" fill="#BA8E79"/>
<path d="M343.663 76.7052C342.131 76.7058 340.635 76.2368 339.377 75.3613C338.119 74.4859 337.159 73.2461 336.627 71.8089C336.095 70.3716 336.016 68.8058 336.401 67.3223C336.786 65.8388 337.616 64.5087 338.779 63.5112C348.579 55.1112 362.246 47.6402 370.579 46.1252C371.551 45.9425 372.549 45.9538 373.517 46.1583C374.484 46.3629 375.401 46.7567 376.216 47.3171C377.03 47.8775 377.726 48.5934 378.263 49.4237C378.8 50.254 379.167 51.1823 379.344 52.1551C379.521 53.1279 379.504 54.1261 379.293 55.0922C379.083 56.0583 378.683 56.9732 378.118 57.7844C377.553 58.5956 376.833 59.287 375.999 59.8188C375.166 60.3506 374.235 60.7124 373.261 60.8832C368.236 61.7972 356.846 67.7832 348.538 74.9002C347.181 76.0658 345.452 76.7062 343.663 76.7052Z" fill="#BA8E79"/>
<path d="M380 215.526C378.481 215.527 376.998 215.067 375.747 214.206C374.496 213.346 373.535 212.126 372.992 210.708C372.449 209.289 372.35 207.74 372.707 206.264C373.063 204.788 373.86 203.455 374.991 202.441C383.304 194.989 401.058 186.888 415.901 195.118C417.64 196.083 418.926 197.699 419.474 199.611C420.022 201.523 419.788 203.575 418.824 205.314C417.859 207.054 416.243 208.339 414.331 208.887C412.419 209.436 410.367 209.202 408.628 208.237C405.101 206.281 400.742 206.109 395.669 207.726C391.769 208.985 388.149 210.983 385.005 213.611C383.63 214.846 381.847 215.528 380 215.526Z" fill="#BA8E79"/>
<path d="M278.51 294.352C287.418 294.352 294.64 287.13 294.64 278.222C294.64 269.313 287.418 262.092 278.51 262.092C269.602 262.092 262.38 269.313 262.38 278.222C262.38 287.13 269.602 294.352 278.51 294.352Z" fill="white"/>
<path d="M341.66 294.352C350.568 294.352 357.79 287.13 357.79 278.222C357.79 269.313 350.568 262.092 341.66 262.092C332.751 262.092 325.53 269.313 325.53 278.222C325.53 287.13 332.751 294.352 341.66 294.352Z" fill="#F8D662"/>
<path d="M104.9 285.717H69.0449C67.0558 285.717 65.1481 284.927 63.7416 283.52C62.3351 282.114 61.5449 280.206 61.5449 278.217C61.5449 276.228 62.3351 274.32 63.7416 272.913C65.1481 271.507 67.0558 270.717 69.0449 270.717H104.9C106.889 270.717 108.797 271.507 110.203 272.913C111.61 274.32 112.4 276.228 112.4 278.217C112.4 280.206 111.61 282.114 110.203 283.52C108.797 284.927 106.889 285.717 104.9 285.717Z" fill="white"/>
<path d="M108.937 467.305H80.3368C79.2731 467.305 78.2198 467.096 77.2371 466.689C76.2543 466.282 75.3614 465.685 74.6093 464.933C73.8571 464.181 73.2605 463.288 72.8534 462.305C72.4463 461.322 72.2368 460.269 72.2368 459.205V442.231H117.037V459.206C117.037 461.355 116.183 463.415 114.664 464.933C113.145 466.452 111.085 467.305 108.937 467.305Z" fill="#5D6671"/>
<path d="M310.83 467.305H339.43C340.494 467.305 341.547 467.096 342.53 466.689C343.512 466.282 344.405 465.685 345.158 464.933C345.91 464.181 346.506 463.288 346.913 462.305C347.32 461.322 347.53 460.269 347.53 459.205V442.231H302.73V459.206C302.73 461.355 303.584 463.415 305.103 464.933C306.622 466.452 308.682 467.305 310.83 467.305Z" fill="#5D6671"/>
<g opacity="0.1">
<path opacity="0.1" d="M259.752 370.853H160.015C158.026 370.853 156.118 370.062 154.712 368.656C153.305 367.249 152.515 365.342 152.515 363.353C152.515 361.363 153.305 359.456 154.712 358.049C156.118 356.643 158.026 355.853 160.015 355.853H259.752C261.741 355.853 263.649 356.643 265.055 358.049C266.462 359.456 267.252 361.363 267.252 363.353C267.252 365.342 266.462 367.249 265.055 368.656C263.649 370.062 261.741 370.853 259.752 370.853Z" fill="black"/>
<path opacity="0.1" d="M259.752 399.784H160.015C158.026 399.784 156.118 398.994 154.712 397.587C153.305 396.181 152.515 394.273 152.515 392.284C152.515 390.295 153.305 388.387 154.712 386.981C156.118 385.574 158.026 384.784 160.015 384.784H259.752C261.741 384.784 263.649 385.574 265.055 386.981C266.462 388.387 267.252 390.295 267.252 392.284C267.252 394.273 266.462 396.181 265.055 397.587C263.649 398.994 261.741 399.784 259.752 399.784Z" fill="black"/>
</g>
<path opacity="0.12" d="M27.9448 253.519V408.219C27.9448 417.239 31.528 425.89 37.9061 432.268C44.2842 438.646 52.9348 442.229 61.9548 442.229H147.955C91.2908 407.745 83.6698 286.443 82.6748 238.78H42.6838C38.7748 238.78 35.0259 240.333 32.2618 243.097C29.4977 245.861 27.9448 249.61 27.9448 253.519Z" fill="black"/>
<path opacity="0.12" d="M134.43 108.323H72.4088C69.0643 108.324 65.8572 109.654 63.4927 112.019C61.1281 114.384 59.7998 117.592 59.7998 120.936V162.999C59.7998 166.344 61.1281 169.551 63.4927 171.917C65.8572 174.282 69.0643 175.611 72.4088 175.612H138.734C122.891 158.644 125.254 120.797 134.43 108.323Z" fill="black"/>
<path opacity="0.12" d="M359.97 141.967H400.659C390.581 132.782 388.968 117.447 388.759 108.323H359.97V141.967Z" fill="black"/>
</svg>
