<svg width="512" height="512" viewBox="0 0 512 512" fill="none" xmlns="http://www.w3.org/2000/svg">
<path d="M328.392 107.552C326.162 107.552 323.954 107.113 321.894 106.259C319.834 105.406 317.963 104.155 316.386 102.579C314.809 101.002 313.559 99.1304 312.705 97.0704C311.852 95.0104 311.413 92.8025 311.413 90.5728V55.9998C311.408 51.4618 309.603 47.111 306.394 43.9022C303.185 40.6934 298.834 38.8886 294.296 38.8838H216.948C212.41 38.8889 208.059 40.6937 204.85 43.9025C201.641 47.1112 199.836 51.4618 199.831 55.9998V90.5738C199.848 92.8144 199.422 95.0363 198.576 97.1113C197.731 99.1863 196.483 101.073 194.904 102.664C193.326 104.254 191.449 105.517 189.38 106.378C187.312 107.24 185.093 107.683 182.853 107.683C180.612 107.683 178.393 107.24 176.325 106.378C174.256 105.517 172.379 104.254 170.801 102.664C169.222 101.073 167.974 99.1863 167.129 97.1113C166.283 95.0363 165.857 92.8144 165.874 90.5738V55.9998C165.889 42.4584 171.274 29.4758 180.849 19.9004C190.424 10.325 203.407 4.93892 216.948 4.92383H294.296C307.837 4.93918 320.819 10.3254 330.394 19.9008C339.969 29.4761 345.354 42.4586 345.369 55.9998V90.5738C345.369 92.8034 344.93 95.0111 344.077 97.071C343.224 99.1308 341.973 101.002 340.397 102.579C338.82 104.156 336.949 105.406 334.889 106.259C332.829 107.113 330.622 107.552 328.392 107.552Z" fill="#8DB5EA"/>
<path opacity="0.1" d="M199.83 71.25H165.873V90.57H199.83V71.25Z" fill="black"/>
<path opacity="0.1" d="M345.37 71.25H311.413V90.57H345.37V71.25Z" fill="black"/>
<path d="M290.23 0H221.016C219.937 0 218.903 0.428486 218.14 1.1912C217.377 1.95391 216.949 2.98836 216.949 4.067V39.737C216.949 40.8156 217.377 41.8501 218.14 42.6128C218.903 43.3755 219.937 43.804 221.016 43.804H290.23C291.309 43.804 292.343 43.3755 293.106 42.6128C293.868 41.8501 294.297 40.8156 294.297 39.737V4.067C294.297 2.98836 293.868 1.95391 293.106 1.1912C292.343 0.428486 291.309 0 290.23 0V0Z" fill="#C3E9F1"/>
<path d="M352.431 90.5742H158.815C150.268 90.5743 142.04 93.819 135.794 99.6525C129.548 105.486 125.749 113.473 125.165 122L101.589 466.262H409.657L386.081 122C385.498 113.473 381.699 105.486 375.452 99.6525C369.206 93.819 360.978 90.5743 352.431 90.5742Z" fill="#F0F1F1"/>
<path d="M432.07 466.263H79.176C75.6815 466.263 72.3301 467.651 69.8592 470.122C67.3882 472.593 66 475.944 66 479.439V498.825C66.0003 502.319 67.3886 505.67 69.8595 508.141C72.3305 510.612 75.6817 512 79.176 512H432.071C435.565 512 438.917 510.612 441.388 508.141C443.859 505.67 445.247 502.318 445.247 498.824V479.439C445.247 475.944 443.858 472.593 441.387 470.122C438.916 467.651 435.565 466.263 432.07 466.263Z" fill="#8DB5EA"/>
<path opacity="0.1" d="M184.417 90.5742H158.817C150.27 90.5738 142.041 93.8183 135.795 99.6518C129.548 105.485 125.749 113.473 125.165 122L101.589 466.262H203.582C160.445 381.988 174.441 187.322 184.417 90.5742Z" fill="black"/>
<path opacity="0.1" d="M79.176 466.263C75.6815 466.263 72.3301 467.651 69.8592 470.122C67.3882 472.593 66 475.944 66 479.439V498.824C66 502.318 67.3882 505.67 69.8592 508.141C72.3301 510.612 75.6815 512 79.176 512H206.023C198.209 494.339 200.314 477.073 203.586 466.263H79.176Z" fill="black"/>
<g opacity="0.1">
<path opacity="0.1" d="M227.387 224.625C225.398 224.624 223.492 223.832 222.087 222.425L206.445 206.782C205.736 206.089 205.172 205.261 204.785 204.348C204.399 203.435 204.197 202.454 204.192 201.463C204.186 200.471 204.378 199.488 204.755 198.571C205.132 197.654 205.687 196.821 206.388 196.12C207.089 195.418 207.923 194.863 208.84 194.486C209.757 194.109 210.74 193.918 211.731 193.923C212.723 193.928 213.704 194.13 214.617 194.517C215.53 194.904 216.357 195.468 217.051 196.176L227.39 206.515L237.723 196.179C238.418 195.478 239.245 194.921 240.156 194.54C241.068 194.159 242.045 193.961 243.033 193.959C244.021 193.957 244.999 194.15 245.912 194.527C246.825 194.904 247.654 195.457 248.353 196.156C249.051 196.854 249.605 197.683 249.982 198.596C250.359 199.509 250.552 200.487 250.55 201.475C250.547 202.463 250.35 203.44 249.969 204.352C249.588 205.263 249.031 206.09 248.33 206.785L232.688 222.428C231.282 223.834 229.375 224.625 227.387 224.625Z" fill="black"/>
<path opacity="0.1" d="M170.913 224.625C168.924 224.624 167.018 223.832 165.613 222.425L149.971 206.782C149.27 206.087 148.712 205.26 148.331 204.349C147.951 203.437 147.753 202.46 147.751 201.472C147.749 200.485 147.942 199.506 148.319 198.593C148.696 197.68 149.25 196.851 149.948 196.153C150.647 195.454 151.476 194.901 152.389 194.524C153.302 194.147 154.28 193.954 155.268 193.956C156.256 193.958 157.233 194.156 158.144 194.537C159.056 194.918 159.883 195.475 160.578 196.176L170.917 206.515L181.256 196.176C181.95 195.468 182.777 194.904 183.69 194.517C184.603 194.13 185.584 193.928 186.575 193.923C187.567 193.918 188.55 194.109 189.467 194.486C190.384 194.863 191.218 195.418 191.919 196.12C192.62 196.821 193.175 197.654 193.552 198.571C193.929 199.488 194.121 200.471 194.115 201.463C194.11 202.454 193.908 203.435 193.521 204.348C193.135 205.261 192.571 206.089 191.862 206.782L176.22 222.425C175.523 223.123 174.696 223.676 173.785 224.054C172.875 224.431 171.899 224.625 170.913 224.625Z" fill="black"/>
<path opacity="0.1" d="M283.859 224.625C281.871 224.623 279.964 223.832 278.559 222.425L262.917 206.782C262.198 206.091 261.624 205.263 261.229 204.347C260.833 203.431 260.625 202.446 260.615 201.449C260.605 200.451 260.794 199.462 261.172 198.538C261.549 197.615 262.107 196.776 262.812 196.071C263.517 195.366 264.356 194.808 265.28 194.431C266.203 194.054 267.193 193.865 268.19 193.875C269.188 193.885 270.173 194.094 271.089 194.49C272.004 194.886 272.832 195.46 273.523 196.179L283.862 206.518L294.201 196.179C294.895 195.47 295.722 194.906 296.635 194.52C297.548 194.133 298.529 193.931 299.521 193.926C300.512 193.92 301.495 194.112 302.412 194.489C303.329 194.866 304.163 195.421 304.864 196.122C305.565 196.823 306.12 197.657 306.497 198.574C306.874 199.491 307.066 200.474 307.06 201.466C307.055 202.457 306.853 203.438 306.466 204.351C306.08 205.264 305.516 206.091 304.807 206.785L289.165 222.428C288.468 223.125 287.641 223.678 286.731 224.055C285.82 224.432 284.844 224.625 283.859 224.625Z" fill="black"/>
<path opacity="0.1" d="M340.333 224.625C338.344 224.624 336.438 223.832 335.033 222.425L319.391 206.782C318.682 206.089 318.118 205.261 317.731 204.348C317.345 203.435 317.143 202.454 317.138 201.463C317.132 200.471 317.324 199.488 317.701 198.571C318.078 197.654 318.633 196.821 319.334 196.12C320.035 195.418 320.869 194.863 321.786 194.486C322.703 194.109 323.686 193.918 324.677 193.923C325.669 193.928 326.65 194.13 327.563 194.517C328.476 194.904 329.303 195.468 329.997 196.176L340.336 206.515L350.675 196.176C351.369 195.468 352.196 194.904 353.109 194.517C354.022 194.13 355.003 193.928 355.994 193.923C356.986 193.918 357.969 194.109 358.886 194.486C359.803 194.863 360.637 195.418 361.338 196.12C362.039 196.821 362.594 197.654 362.971 198.571C363.348 199.488 363.54 200.471 363.534 201.463C363.529 202.454 363.327 203.435 362.94 204.348C362.554 205.261 361.99 206.089 361.281 206.782L345.639 222.425C344.942 223.123 344.115 223.676 343.205 224.053C342.294 224.431 341.319 224.625 340.333 224.625Z" fill="black"/>
</g>
<g opacity="0.1">
<path opacity="0.1" d="M227.387 163.625C225.398 163.624 223.492 162.832 222.087 161.425L206.445 145.782C205.736 145.089 205.172 144.261 204.785 143.348C204.399 142.435 204.197 141.454 204.192 140.463C204.186 139.471 204.378 138.488 204.755 137.571C205.132 136.654 205.687 135.821 206.388 135.12C207.089 134.418 207.923 133.863 208.84 133.486C209.757 133.109 210.74 132.918 211.731 132.923C212.723 132.928 213.704 133.13 214.617 133.517C215.53 133.904 216.357 134.468 217.051 135.176L227.39 145.515L237.723 135.179C238.418 134.478 239.245 133.921 240.156 133.54C241.068 133.159 242.045 132.961 243.033 132.959C244.021 132.957 244.999 133.15 245.912 133.527C246.825 133.904 247.654 134.457 248.353 135.156C249.051 135.854 249.605 136.683 249.982 137.596C250.359 138.509 250.552 139.487 250.55 140.475C250.547 141.463 250.35 142.44 249.969 143.352C249.588 144.263 249.031 145.09 248.33 145.785L232.688 161.428C231.282 162.834 229.375 163.625 227.387 163.625Z" fill="black"/>
<path opacity="0.1" d="M170.913 163.625C168.924 163.624 167.018 162.832 165.613 161.425L149.971 145.782C149.27 145.087 148.712 144.26 148.331 143.349C147.951 142.437 147.753 141.46 147.751 140.472C147.749 139.485 147.942 138.506 148.319 137.593C148.696 136.68 149.25 135.851 149.948 135.153C150.647 134.454 151.476 133.901 152.389 133.524C153.302 133.147 154.28 132.954 155.268 132.956C156.256 132.958 157.233 133.156 158.144 133.537C159.056 133.918 159.883 134.475 160.578 135.176L170.917 145.515L181.256 135.176C181.95 134.468 182.777 133.904 183.69 133.517C184.603 133.13 185.584 132.928 186.575 132.923C187.567 132.918 188.55 133.109 189.467 133.486C190.384 133.863 191.218 134.418 191.919 135.12C192.62 135.821 193.175 136.654 193.552 137.571C193.929 138.488 194.121 139.471 194.115 140.463C194.11 141.454 193.908 142.435 193.521 143.348C193.135 144.261 192.571 145.089 191.862 145.782L176.22 161.425C175.523 162.123 174.696 162.676 173.785 163.054C172.875 163.431 171.899 163.625 170.913 163.625Z" fill="black"/>
<path opacity="0.1" d="M283.859 163.625C281.871 163.623 279.964 162.832 278.559 161.425L262.917 145.782C262.198 145.091 261.624 144.263 261.229 143.347C260.833 142.431 260.625 141.446 260.615 140.449C260.605 139.451 260.794 138.462 261.172 137.538C261.549 136.615 262.107 135.776 262.812 135.071C263.517 134.366 264.356 133.808 265.28 133.431C266.203 133.054 267.193 132.865 268.19 132.875C269.188 132.885 270.173 133.094 271.089 133.49C272.004 133.886 272.832 134.46 273.523 135.179L283.862 145.518L294.201 135.179C294.895 134.47 295.722 133.906 296.635 133.52C297.548 133.133 298.529 132.931 299.521 132.926C300.512 132.92 301.495 133.112 302.412 133.489C303.329 133.866 304.163 134.421 304.864 135.122C305.565 135.823 306.12 136.657 306.497 137.574C306.874 138.491 307.066 139.474 307.06 140.466C307.055 141.457 306.853 142.438 306.466 143.351C306.08 144.264 305.516 145.091 304.807 145.785L289.165 161.428C288.468 162.125 287.641 162.678 286.731 163.055C285.82 163.432 284.844 163.625 283.859 163.625Z" fill="black"/>
<path opacity="0.1" d="M340.333 163.625C338.344 163.624 336.438 162.832 335.033 161.425L319.391 145.782C318.682 145.089 318.118 144.261 317.731 143.348C317.345 142.435 317.143 141.454 317.138 140.463C317.132 139.471 317.324 138.488 317.701 137.571C318.078 136.654 318.633 135.821 319.334 135.12C320.035 134.418 320.869 133.863 321.786 133.486C322.703 133.109 323.686 132.918 324.677 132.923C325.669 132.928 326.65 133.13 327.563 133.517C328.476 133.904 329.303 134.468 329.997 135.176L340.336 145.515L350.675 135.176C351.369 134.468 352.196 133.904 353.109 133.517C354.022 133.13 355.003 132.928 355.994 132.923C356.986 132.918 357.969 133.109 358.886 133.486C359.803 133.863 360.637 134.418 361.338 135.12C362.039 135.821 362.594 136.654 362.971 137.571C363.348 138.488 363.54 139.471 363.534 140.463C363.529 141.454 363.327 142.435 362.94 143.348C362.554 144.261 361.99 145.089 361.281 145.782L345.639 161.425C344.942 162.123 344.115 162.676 343.205 163.053C342.294 163.431 341.319 163.625 340.333 163.625Z" fill="black"/>
</g>
<g opacity="0.1">
<path opacity="0.1" d="M227.387 293.74C225.399 293.738 223.492 292.946 222.087 291.54L206.441 275.9C205.732 275.206 205.168 274.379 204.782 273.465C204.395 272.552 204.193 271.572 204.188 270.58C204.182 269.588 204.374 268.606 204.751 267.688C205.128 266.771 205.683 265.938 206.384 265.237C207.085 264.536 207.919 263.98 208.836 263.603C209.753 263.226 210.736 263.035 211.727 263.04C212.719 263.045 213.7 263.247 214.613 263.634C215.526 264.021 216.353 264.585 217.047 265.294L227.386 275.633L237.723 265.294C239.129 263.887 241.037 263.096 243.026 263.096C244.011 263.096 244.987 263.29 245.897 263.666C246.807 264.043 247.634 264.596 248.33 265.292C249.027 265.988 249.58 266.815 249.957 267.725C250.334 268.635 250.528 269.61 250.528 270.595C250.528 271.58 250.334 272.556 249.958 273.466C249.581 274.376 249.028 275.203 248.332 275.9L232.69 291.543C231.284 292.949 229.376 293.739 227.387 293.74Z" fill="black"/>
<path opacity="0.1" d="M170.913 293.74C168.925 293.738 167.018 292.946 165.613 291.54L149.968 275.9C149.267 275.204 148.709 274.377 148.329 273.466C147.948 272.555 147.75 271.577 147.748 270.589C147.746 269.602 147.939 268.623 148.316 267.71C148.693 266.798 149.247 265.968 149.945 265.27C150.644 264.571 151.473 264.018 152.386 263.641C153.299 263.264 154.277 263.071 155.265 263.073C156.253 263.076 157.23 263.273 158.141 263.654C159.053 264.035 159.88 264.592 160.575 265.294L170.914 275.633L181.253 265.294C181.947 264.585 182.774 264.021 183.687 263.634C184.6 263.247 185.581 263.045 186.573 263.04C187.564 263.035 188.547 263.226 189.464 263.603C190.381 263.98 191.215 264.536 191.916 265.237C192.617 265.938 193.172 266.771 193.549 267.688C193.926 268.606 194.118 269.588 194.112 270.58C194.107 271.572 193.905 272.552 193.518 273.465C193.132 274.379 192.568 275.206 191.859 275.9L176.217 291.543C175.521 292.239 174.694 292.792 173.784 293.169C172.873 293.546 171.898 293.74 170.913 293.74Z" fill="black"/>
<path opacity="0.1" d="M283.859 293.74C281.87 293.738 279.964 292.947 278.559 291.54L262.914 275.9C261.507 274.493 260.717 272.585 260.718 270.596C260.718 268.606 261.509 266.699 262.915 265.292C264.322 263.886 266.23 263.096 268.219 263.096C270.209 263.096 272.116 263.887 273.523 265.294L283.862 275.633L294.201 265.294C294.892 264.575 295.72 264.001 296.636 263.605C297.551 263.21 298.537 263.001 299.534 262.992C300.532 262.982 301.521 263.171 302.445 263.548C303.368 263.926 304.207 264.483 304.912 265.189C305.617 265.894 306.175 266.733 306.552 267.657C306.929 268.58 307.118 269.569 307.108 270.567C307.098 271.564 306.889 272.55 306.493 273.465C306.097 274.381 305.523 275.209 304.804 275.9L289.162 291.543C287.755 292.949 285.848 293.74 283.859 293.74Z" fill="black"/>
<path opacity="0.1" d="M340.333 293.74C338.345 293.738 336.438 292.946 335.033 291.54L319.387 275.9C318.678 275.206 318.114 274.379 317.728 273.465C317.341 272.552 317.139 271.572 317.134 270.58C317.128 269.588 317.32 268.606 317.697 267.688C318.074 266.771 318.629 265.938 319.33 265.237C320.031 264.536 320.865 263.98 321.782 263.603C322.699 263.226 323.682 263.035 324.673 263.04C325.665 263.045 326.646 263.247 327.559 263.634C328.472 264.021 329.299 264.585 329.993 265.294L340.332 275.633L350.671 265.294C351.365 264.585 352.192 264.021 353.105 263.634C354.018 263.247 354.999 263.045 355.991 263.04C356.982 263.035 357.965 263.226 358.882 263.603C359.799 263.98 360.633 264.536 361.334 265.237C362.035 265.938 362.59 266.771 362.967 267.688C363.344 268.606 363.536 269.588 363.53 270.58C363.525 271.572 363.323 272.552 362.936 273.465C362.55 274.379 361.986 275.206 361.277 275.9L345.635 291.543C344.939 292.239 344.112 292.792 343.203 293.169C342.293 293.546 341.318 293.74 340.333 293.74Z" fill="black"/>
</g>
<g opacity="0.1">
<path opacity="0.1" d="M227.387 362.855C225.399 362.854 223.492 362.062 222.087 360.655L206.445 345.012C205.719 344.323 205.138 343.495 204.737 342.577C204.336 341.66 204.123 340.671 204.11 339.67C204.098 338.669 204.286 337.675 204.663 336.747C205.04 335.82 205.6 334.977 206.308 334.269C207.016 333.562 207.859 333.003 208.787 332.626C209.715 332.249 210.708 332.062 211.71 332.075C212.711 332.088 213.699 332.302 214.617 332.703C215.534 333.105 216.362 333.686 217.051 334.412L227.39 344.751L237.723 334.41C238.413 333.686 239.24 333.107 240.157 332.707C241.074 332.308 242.061 332.095 243.062 332.083C244.062 332.07 245.054 332.258 245.981 332.635C246.907 333.012 247.749 333.57 248.456 334.277C249.164 334.984 249.723 335.825 250.1 336.752C250.478 337.678 250.666 338.67 250.654 339.67C250.642 340.67 250.431 341.658 250.032 342.575C249.632 343.492 249.054 344.32 248.33 345.01L232.688 360.653C231.283 362.061 229.376 362.853 227.387 362.855Z" fill="black"/>
<path opacity="0.1" d="M170.913 362.855C168.924 362.854 167.018 362.062 165.613 360.655L149.971 345.012C149.247 344.322 148.668 343.494 148.269 342.577C147.87 341.66 147.659 340.673 147.647 339.672C147.635 338.672 147.823 337.68 148.201 336.754C148.578 335.828 149.137 334.986 149.845 334.279C150.552 333.572 151.394 333.014 152.32 332.637C153.247 332.26 154.239 332.072 155.239 332.085C156.239 332.097 157.227 332.31 158.144 332.709C159.061 333.109 159.888 333.688 160.578 334.412L170.917 344.751L181.253 334.41C181.942 333.684 182.77 333.103 183.687 332.701C184.604 332.3 185.593 332.086 186.594 332.073C187.595 332.06 188.589 332.247 189.517 332.624C190.445 333.001 191.288 333.56 191.996 334.267C192.704 334.975 193.263 335.818 193.641 336.745C194.018 337.673 194.206 338.667 194.193 339.668C194.181 340.669 193.968 341.658 193.567 342.575C193.166 343.493 192.585 344.321 191.859 345.01L176.217 360.653C175.521 361.351 174.694 361.904 173.784 362.282C172.874 362.66 171.898 362.855 170.913 362.855Z" fill="black"/>
<path opacity="0.1" d="M283.859 362.855C281.87 362.854 279.964 362.062 278.559 360.655L262.917 345.012C262.191 344.323 261.61 343.495 261.209 342.577C260.808 341.66 260.595 340.671 260.582 339.67C260.57 338.669 260.757 337.675 261.135 336.747C261.512 335.82 262.072 334.977 262.78 334.269C263.488 333.562 264.331 333.003 265.259 332.626C266.187 332.249 267.18 332.062 268.182 332.075C269.183 332.088 270.171 332.302 271.089 332.703C272.006 333.105 272.834 333.686 273.523 334.412L283.862 344.751L294.201 334.412C294.89 333.686 295.718 333.105 296.635 332.703C297.552 332.302 298.541 332.088 299.542 332.075C300.544 332.062 301.537 332.249 302.465 332.626C303.393 333.003 304.236 333.562 304.944 334.269C305.652 334.977 306.211 335.82 306.589 336.747C306.966 337.675 307.154 338.669 307.141 339.67C307.129 340.671 306.916 341.66 306.515 342.577C306.114 343.495 305.533 344.323 304.807 345.012L289.165 360.655C288.468 361.353 287.641 361.906 286.731 362.284C285.82 362.661 284.845 362.855 283.859 362.855Z" fill="black"/>
<path opacity="0.1" d="M340.333 362.855C338.344 362.854 336.438 362.062 335.033 360.655L319.391 345.012C318.665 344.323 318.084 343.495 317.683 342.577C317.282 341.66 317.069 340.671 317.056 339.67C317.044 338.669 317.231 337.675 317.609 336.747C317.986 335.82 318.546 334.977 319.254 334.269C319.962 333.562 320.805 333.003 321.733 332.626C322.66 332.249 323.654 332.062 324.655 332.075C325.657 332.088 326.645 332.302 327.563 332.703C328.48 333.105 329.308 333.686 329.997 334.412L340.336 344.751L350.675 334.412C351.364 333.686 352.192 333.105 353.109 332.703C354.026 332.302 355.015 332.088 356.016 332.075C357.017 332.062 358.011 332.249 358.939 332.626C359.867 333.003 360.709 333.562 361.418 334.269C362.126 334.977 362.685 335.82 363.063 336.747C363.44 337.675 363.628 338.669 363.615 339.67C363.603 340.671 363.389 341.66 362.988 342.577C362.588 343.495 362.007 344.323 361.281 345.012L345.639 360.655C344.942 361.353 344.115 361.906 343.205 362.284C342.294 362.661 341.318 362.855 340.333 362.855Z" fill="black"/>
</g>
<g opacity="0.1">
<path opacity="0.1" d="M227.387 431.97C225.399 431.968 223.492 431.177 222.087 429.77L206.442 414.13C205.733 413.436 205.169 412.609 204.783 411.696C204.396 410.783 204.194 409.802 204.189 408.81C204.183 407.819 204.375 406.836 204.752 405.919C205.129 405.002 205.684 404.168 206.385 403.467C207.086 402.766 207.92 402.211 208.837 401.834C209.754 401.457 210.737 401.265 211.728 401.271C212.72 401.276 213.701 401.478 214.614 401.865C215.527 402.251 216.354 402.815 217.048 403.524L227.387 413.863L237.723 403.524C238.419 402.827 239.246 402.275 240.156 401.898C241.066 401.52 242.042 401.326 243.027 401.326C244.012 401.326 244.987 401.52 245.897 401.896C246.807 402.273 247.634 402.826 248.331 403.522C249.028 404.218 249.58 405.045 249.957 405.955C250.335 406.865 250.529 407.841 250.529 408.826C250.529 409.811 250.335 410.786 249.959 411.696C249.582 412.606 249.029 413.433 248.333 414.13L232.691 429.773C231.994 430.47 231.168 431.022 230.258 431.399C229.347 431.776 228.372 431.97 227.387 431.97Z" fill="black"/>
<path opacity="0.1" d="M170.913 431.97C168.925 431.968 167.018 431.177 165.613 429.77L149.968 414.13C149.267 413.435 148.709 412.608 148.329 411.696C147.948 410.785 147.75 409.808 147.748 408.82C147.746 407.832 147.939 406.854 148.316 405.941C148.693 405.028 149.247 404.199 149.945 403.5C150.644 402.802 151.473 402.248 152.386 401.871C153.299 401.494 154.277 401.302 155.265 401.304C156.253 401.306 157.23 401.503 158.141 401.884C159.053 402.265 159.88 402.822 160.575 403.524L170.914 413.863L181.253 403.524C181.947 402.815 182.774 402.251 183.687 401.865C184.6 401.478 185.581 401.276 186.573 401.271C187.564 401.265 188.547 401.457 189.464 401.834C190.381 402.211 191.215 402.766 191.916 403.467C192.617 404.168 193.172 405.002 193.549 405.919C193.926 406.836 194.118 407.819 194.112 408.81C194.107 409.802 193.905 410.783 193.518 411.696C193.132 412.609 192.568 413.436 191.859 414.13L176.217 429.773C175.521 430.47 174.694 431.022 173.784 431.399C172.873 431.776 171.898 431.97 170.913 431.97Z" fill="black"/>
<path opacity="0.1" d="M283.859 431.97C281.87 431.968 279.964 431.177 278.559 429.77L262.914 414.13C261.507 412.723 260.717 410.815 260.718 408.826C260.718 406.837 261.509 404.929 262.915 403.522C264.322 402.116 266.23 401.326 268.219 401.326C270.209 401.327 272.116 402.117 273.523 403.524L283.862 413.863L294.201 403.524C294.895 402.815 295.722 402.251 296.635 401.865C297.548 401.478 298.529 401.276 299.52 401.271C300.512 401.265 301.495 401.457 302.412 401.834C303.329 402.211 304.162 402.766 304.864 403.467C305.565 404.168 306.12 405.002 306.497 405.919C306.874 406.836 307.066 407.819 307.06 408.81C307.055 409.802 306.853 410.783 306.466 411.696C306.08 412.609 305.516 413.436 304.807 414.13L289.165 429.773C288.468 430.47 287.641 431.022 286.73 431.399C285.82 431.776 284.844 431.97 283.859 431.97Z" fill="black"/>
<path opacity="0.1" d="M340.333 431.97C338.345 431.968 336.438 431.177 335.033 429.77L319.388 414.13C318.679 413.436 318.115 412.609 317.729 411.696C317.342 410.783 317.14 409.802 317.135 408.81C317.129 407.819 317.321 406.836 317.698 405.919C318.075 405.002 318.63 404.168 319.331 403.467C320.032 402.766 320.866 402.211 321.783 401.834C322.7 401.457 323.683 401.265 324.674 401.271C325.666 401.276 326.647 401.478 327.56 401.865C328.473 402.251 329.3 402.815 329.994 403.524L340.333 413.863L350.672 403.524C351.366 402.815 352.193 402.251 353.106 401.865C354.019 401.478 355 401.276 355.992 401.271C356.983 401.265 357.966 401.457 358.883 401.834C359.8 402.211 360.634 402.766 361.335 403.467C362.036 404.168 362.591 405.002 362.968 405.919C363.345 406.836 363.537 407.819 363.531 408.81C363.526 409.802 363.324 410.783 362.937 411.696C362.551 412.609 361.987 413.436 361.278 414.13L345.636 429.773C344.23 431.18 342.322 431.97 340.333 431.97Z" fill="black"/>
</g>
</svg>
