<svg width="512" height="512" viewBox="0 0 512 512" fill="none" xmlns="http://www.w3.org/2000/svg">
<path d="M159.77 311.235H93.883C90.201 311.235 86.6698 309.772 84.0662 307.169C81.4627 304.565 80 301.034 80 297.352C80 293.67 81.4626 290.138 84.0662 287.535C86.6697 284.931 90.2009 283.468 93.883 283.468H159.77V311.235Z" fill="#5D6671"/>
<path d="M347.732 449.965H201.578C197.302 449.965 193.202 448.266 190.178 445.243C187.155 442.219 185.456 438.119 185.456 433.843C185.456 429.567 187.155 425.466 190.178 422.443C193.202 419.419 197.302 417.721 201.578 417.721H347.732C352.008 417.721 356.109 419.419 359.132 422.443C362.155 425.466 363.854 429.567 363.854 433.843C363.854 438.119 362.155 442.219 359.132 445.243C356.109 448.266 352.008 449.965 347.732 449.965Z" fill="#D6D8DB"/>
<path opacity="0.1" d="M347.732 449.965H201.578C197.302 449.965 193.202 448.266 190.178 445.243C187.155 442.219 185.456 438.119 185.456 433.843C185.456 429.567 187.155 425.466 190.178 422.443C193.202 419.419 197.302 417.721 201.578 417.721H347.732C352.008 417.721 356.109 419.419 359.132 422.443C362.155 425.466 363.854 429.567 363.854 433.843C363.854 438.119 362.155 442.219 359.132 445.243C356.109 448.266 352.008 449.965 347.732 449.965Z" fill="black"/>
<path d="M184.494 512C182.033 511.999 179.605 511.436 177.395 510.352C175.186 509.268 173.253 507.694 171.746 505.748C170.238 503.803 169.196 501.539 168.698 499.129C168.2 496.719 168.261 494.227 168.874 491.843L213.392 319.472C214.482 315.355 217.157 311.836 220.832 309.685C224.508 307.533 228.885 306.923 233.009 307.988C237.133 309.053 240.667 311.706 242.841 315.369C245.015 319.031 245.651 323.405 244.611 327.535L200.093 499.9C199.2 503.36 197.184 506.425 194.361 508.615C191.538 510.805 188.067 511.996 184.494 512Z" fill="#D6D8DB"/>
<path d="M363.585 506.718C360.013 506.715 356.542 505.525 353.719 503.337C350.896 501.148 348.879 498.083 347.985 494.624L304.7 327.535C304.156 325.481 304.024 323.339 304.311 321.233C304.598 319.127 305.298 317.099 306.372 315.265C307.446 313.431 308.872 311.827 310.568 310.546C312.264 309.265 314.196 308.332 316.254 307.8C318.312 307.269 320.454 307.149 322.558 307.449C324.662 307.749 326.686 308.461 328.514 309.546C330.342 310.631 331.937 312.066 333.208 313.77C334.479 315.474 335.4 317.411 335.919 319.472L379.205 486.561C379.819 488.945 379.879 491.437 379.381 493.847C378.883 496.257 377.841 498.521 376.333 500.467C374.826 502.412 372.893 503.987 370.684 505.07C368.474 506.154 366.046 506.718 363.585 506.718Z" fill="#D6D8DB"/>
<path opacity="0.1" d="M233.032 307.894C230.982 307.364 228.848 307.243 226.751 307.538C224.654 307.833 222.636 308.538 220.812 309.613C218.988 310.689 217.394 312.113 216.121 313.804C214.847 315.496 213.92 317.422 213.391 319.472L198.074 378.779C205.678 380.766 213.505 381.77 221.364 381.765H230.604L244.61 327.535C245.679 323.395 245.06 319 242.889 315.317C240.717 311.634 237.172 308.964 233.032 307.894Z" fill="black"/>
<path opacity="0.1" d="M335.919 319.472C335.4 317.411 334.479 315.474 333.208 313.77C331.937 312.066 330.342 310.631 328.514 309.546C326.686 308.461 324.662 307.749 322.558 307.449C320.454 307.149 318.312 307.269 316.254 307.8C314.196 308.332 312.264 309.265 310.568 310.546C308.872 311.827 307.446 313.431 306.372 315.265C305.298 317.099 304.598 319.127 304.311 321.233C304.024 323.339 304.156 325.481 304.7 327.535L318.749 381.765H327.949C335.824 381.77 343.666 380.761 351.283 378.765L335.919 319.472Z" fill="black"/>
<path d="M327.948 359.386H221.364C197.03 359.386 173.693 349.719 156.487 332.513C139.28 315.306 129.614 291.969 129.614 267.636V255.892C129.614 253.469 130.576 251.146 132.29 249.432C134.003 247.719 136.326 246.757 138.749 246.757H410.562C412.985 246.757 415.308 247.719 417.021 249.432C418.735 251.146 419.697 253.469 419.697 255.892V267.636C419.697 291.969 410.031 315.306 392.824 332.513C375.618 349.719 352.281 359.386 327.948 359.386Z" fill="#7CD9D2"/>
<path opacity="0.1" d="M140.616 311.234C148.479 325.799 160.137 337.964 174.352 346.441C188.568 354.919 204.813 359.392 221.364 359.386H327.948C344.499 359.392 360.744 354.919 374.96 346.442C389.176 337.964 400.833 325.799 408.696 311.234H140.616Z" fill="black"/>
<path opacity="0.1" d="M138.748 246.757C136.325 246.757 134.002 247.719 132.289 249.432C130.575 251.146 129.613 253.469 129.613 255.892V267.636C129.613 279.685 131.986 291.616 136.597 302.747C141.208 313.879 147.966 323.993 156.486 332.513C165.006 341.033 175.121 347.791 186.253 352.402C197.384 357.013 209.315 359.386 221.364 359.386H252.388C201.419 342.393 197.588 277.257 197.97 246.757H138.748Z" fill="black"/>
<path d="M124.794 92.2944L113.608 81.1085C106.537 74.0375 106.079 62.9875 112.588 56.4785L144.454 24.6125C150.963 18.1025 162.013 18.5595 169.085 25.6315L180.27 36.8165L169.664 47.4225L158.479 36.2375C157.103 34.8625 155.486 34.7955 155.061 35.2175L123.195 67.0825C122.773 67.5055 122.838 69.1245 124.215 70.5005L135.401 81.6865L124.794 92.2944Z" fill="#5D6671"/>
<path d="M190.215 26.8734L114.848 102.238C106.328 110.758 99.5697 120.873 94.9588 132.004C90.3478 143.136 87.9746 155.067 87.9746 167.116C87.9746 179.165 90.3478 191.096 94.9588 202.227C99.5697 213.359 106.328 223.474 114.848 231.993L123.148 240.293C124.861 242.006 127.185 242.969 129.608 242.969C132.03 242.969 134.354 242.006 136.067 240.293L328.267 48.0934C329.98 46.3801 330.942 44.0566 330.942 41.6339C330.942 39.2111 329.98 36.8876 328.267 35.1744L319.967 26.8744C302.761 9.6684 279.424 0.00214066 255.091 0.00195313C230.758 0.00176559 207.422 9.66767 190.215 26.8734Z" fill="#7CD9D2"/>
<path opacity="0.1" d="M126.764 90.3242L114.848 102.237C106.328 110.757 99.5697 120.872 94.9588 132.003C90.3478 143.135 87.9746 155.066 87.9746 167.115C87.9746 179.164 90.3478 191.095 94.9588 202.226C99.5697 213.358 106.328 223.472 114.848 231.992L123.148 240.292C124.861 242.005 127.185 242.967 129.608 242.967C132.03 242.967 134.354 242.005 136.067 240.292L175.678 200.681C152.248 190.511 120.928 128.4 126.764 90.3242Z" fill="black"/>
<path d="M129.618 265.154C139.777 265.154 148.012 256.919 148.012 246.76C148.012 236.601 139.777 228.366 129.618 228.366C119.459 228.366 111.224 236.601 111.224 246.76C111.224 256.919 119.459 265.154 129.618 265.154Z" fill="#D6D8DB"/>
<path d="M383.292 213.452H238.548C237.294 213.452 236.053 213.699 234.894 214.179C233.736 214.658 232.683 215.362 231.797 216.248C230.91 217.135 230.207 218.188 229.727 219.346C229.247 220.505 229.001 221.746 229.001 223V237.21C229.001 239.742 230.007 242.17 231.797 243.96C233.587 245.75 236.015 246.756 238.547 246.756H383.292C385.824 246.756 388.252 245.75 390.042 243.96C391.832 242.17 392.838 239.742 392.838 237.21V223C392.838 221.746 392.592 220.505 392.112 219.346C391.633 218.188 390.929 217.135 390.043 216.249C389.157 215.362 388.104 214.659 386.946 214.179C385.787 213.699 384.546 213.452 383.292 213.452Z" fill="#F18290"/>
<path opacity="0.1" d="M270.084 246.756C266.272 237.798 265.709 223.713 268.146 213.456H238.548C236.016 213.456 233.588 214.461 231.798 216.251C230.008 218.041 229.002 220.468 229.001 223V237.21C229.001 239.742 230.007 242.17 231.797 243.96C233.587 245.75 236.015 246.756 238.547 246.756H270.084Z" fill="black"/>
<path d="M360.812 191.227C359.33 191.226 357.881 190.785 356.649 189.961C355.417 189.137 354.456 187.966 353.889 186.596C353.322 185.227 353.173 183.72 353.462 182.266C353.751 180.812 354.464 179.476 355.512 178.427C357.264 176.671 358.247 174.292 358.247 171.812C358.247 169.332 357.264 166.953 355.512 165.197C353.25 162.935 351.456 160.25 350.232 157.295C349.008 154.34 348.378 151.173 348.378 147.975C348.378 144.776 349.008 141.609 350.232 138.654C351.456 135.699 353.25 133.015 355.512 130.753C356.207 130.052 357.034 129.494 357.946 129.113C358.857 128.733 359.834 128.535 360.822 128.533C361.81 128.531 362.788 128.724 363.701 129.101C364.614 129.478 365.443 130.032 366.142 130.73C366.84 131.429 367.394 132.258 367.771 133.171C368.148 134.084 368.34 135.062 368.338 136.05C368.336 137.038 368.139 138.015 367.758 138.926C367.377 139.838 366.819 140.665 366.118 141.36C365.249 142.229 364.56 143.26 364.09 144.395C363.62 145.53 363.378 146.746 363.378 147.974C363.378 149.203 363.62 150.419 364.09 151.554C364.56 152.689 365.249 153.72 366.118 154.589C370.679 159.16 373.24 165.353 373.24 171.81C373.24 178.267 370.679 184.461 366.118 189.032C365.422 189.729 364.595 190.283 363.684 190.659C362.774 191.036 361.797 191.229 360.812 191.227Z" fill="#C1C6CA"/>
<path d="M322.776 191.227C321.294 191.226 319.845 190.785 318.613 189.961C317.38 189.137 316.42 187.966 315.853 186.596C315.286 185.226 315.137 183.719 315.426 182.265C315.715 180.812 316.428 179.476 317.476 178.427C319.228 176.671 320.211 174.292 320.211 171.812C320.211 169.332 319.228 166.953 317.476 165.197C312.915 160.626 310.354 154.432 310.354 147.975C310.354 141.518 312.915 135.325 317.476 130.754C318.884 129.357 320.789 128.576 322.772 128.58C324.756 128.584 326.657 129.374 328.059 130.777C329.462 132.179 330.252 134.08 330.256 136.063C330.261 138.047 329.479 139.951 328.083 141.36C326.331 143.116 325.347 145.495 325.347 147.975C325.347 150.455 326.331 152.834 328.083 154.59C332.643 159.161 335.204 165.354 335.204 171.811C335.204 178.268 332.643 184.462 328.083 189.033C327.387 189.73 326.559 190.283 325.648 190.66C324.738 191.036 323.761 191.229 322.776 191.227Z" fill="#C1C6CA"/>
<path d="M284.74 191.227C283.258 191.225 281.809 190.785 280.577 189.961C279.345 189.136 278.384 187.966 277.817 186.596C277.25 185.226 277.102 183.719 277.39 182.265C277.679 180.811 278.392 179.476 279.44 178.427C280.309 177.558 280.998 176.527 281.468 175.392C281.938 174.257 282.18 173.041 282.18 171.812C282.18 170.584 281.938 169.367 281.468 168.232C280.998 167.098 280.309 166.066 279.44 165.198C274.879 160.627 272.318 154.433 272.318 147.976C272.318 141.519 274.879 135.326 279.44 130.755C280.852 129.373 282.751 128.604 284.726 128.614C286.702 128.625 288.593 129.414 289.99 130.811C291.387 132.208 292.176 134.099 292.186 136.074C292.197 138.05 291.428 139.949 290.046 141.361C288.294 143.117 287.311 145.496 287.311 147.976C287.311 150.456 288.294 152.835 290.046 154.591C294.613 159.158 297.179 165.353 297.179 171.812C297.179 178.272 294.613 184.466 290.046 189.034C289.35 189.731 288.522 190.283 287.612 190.66C286.701 191.036 285.725 191.229 284.74 191.227Z" fill="#C1C6CA"/>
<path d="M363.158 511.999C377.208 511.999 388.597 500.61 388.597 486.56C388.597 472.511 377.208 461.121 363.158 461.121C349.108 461.121 337.719 472.511 337.719 486.56C337.719 500.61 349.108 511.999 363.158 511.999Z" fill="#5D6671"/>
<path d="M363.158 494.033C367.285 494.033 370.631 490.687 370.631 486.56C370.631 482.433 367.285 479.087 363.158 479.087C359.031 479.087 355.685 482.433 355.685 486.56C355.685 490.687 359.031 494.033 363.158 494.033Z" fill="white"/>
</svg>
