<svg width="512" height="512" viewBox="0 0 512 512" fill="none" xmlns="http://www.w3.org/2000/svg">
<path opacity="0.1" d="M222.133 455.697L209.533 455.726C213.721 456.182 217.947 456.172 222.133 455.697Z" fill="black"/>
<path d="M493.176 156.96H18.824C16.3519 156.96 13.904 156.473 11.6201 155.527C9.33624 154.581 7.26105 153.194 5.51307 151.446C3.76509 149.698 2.37854 147.623 1.4326 145.339C0.486669 143.055 -0.0001313 140.607 2.65643e-08 138.135L2.65643e-08 50.824C2.65643e-08 45.8316 1.98324 41.0436 5.51342 37.5134C9.04361 33.9832 13.8316 32 18.824 32H493.175C495.647 31.9999 498.095 32.4867 500.379 33.4326C502.663 34.3785 504.738 35.7651 506.486 37.5131C508.234 39.261 509.621 41.3362 510.567 43.6201C511.513 45.904 512 48.3519 512 50.824V138.135C512 140.607 511.514 143.055 510.568 145.339C509.622 147.623 508.235 149.698 506.487 151.447C504.739 153.195 502.664 154.581 500.38 155.527C498.096 156.473 495.648 156.96 493.176 156.96Z" fill="#BA8E79"/>
<path opacity="0.1" d="M18.824 32C13.8316 32 9.04361 33.9832 5.51342 37.5134C1.98324 41.0436 0 45.8316 0 50.824L0 138.135C-7.044e-09 143.128 1.98321 147.916 5.51336 151.446C9.04352 154.976 13.8315 156.96 18.824 156.96H186.187C137.414 122.012 129.752 62.036 133.727 32H18.824Z" fill="black"/>
<g opacity="0.1">
<path opacity="0.1" d="M512 87.5283C488.471 90.6813 460.069 106.258 439.629 119.364C422.066 130.603 405.391 143.173 389.752 156.964H412.986C419.826 151.464 427.734 145.513 436.586 139.409C466.329 118.888 493.258 105.842 512 102.694V87.5283Z" fill="black"/>
<path opacity="0.1" d="M0 111.896C14.049 107.996 32.993 105.433 53.993 102.596C114.787 94.3901 190.064 84.2201 225.793 31.9961H206.839C172.325 71.4831 106.113 80.4281 51.986 87.7341C32.4 90.3781 14.529 92.7881 0 96.4121V111.896Z" fill="black"/>
<path opacity="0.1" d="M195.224 137.624C240.787 114.34 290.461 100.185 341.453 95.956C434.035 88.256 456.593 63.201 482.713 34.195C483.366 33.47 484.038 32.731 484.697 32.001H464.43C442.17 55.974 418.518 74.488 340.208 81.008C287.252 85.4033 235.666 100.105 188.35 124.288C168.523 134.509 150.825 146.06 137.76 156.956H162.567C173.039 149.838 183.946 143.381 195.224 137.624Z" fill="black"/>
</g>
<path d="M188.908 322.181H182.278C179.941 322.181 177.699 321.253 176.046 319.6C174.393 317.947 173.465 315.705 173.465 313.368V250.958H124.8V313.368C124.8 315.705 123.871 317.947 122.219 319.6C120.566 321.253 118.324 322.181 115.987 322.181H109.357C107.65 322.181 105.979 322.677 104.548 323.609C103.117 324.54 101.988 325.867 101.297 327.429L78.885 378.088C77.0662 382.2 76.1268 386.646 76.127 391.142V466.588C76.127 470.032 77.4949 473.334 79.9299 475.769C82.3649 478.204 85.6674 479.572 89.111 479.572H209.148C212.592 479.572 215.894 478.204 218.329 475.769C220.764 473.334 222.132 470.032 222.132 466.588V391.141C222.132 386.645 221.193 382.199 219.374 378.087L196.966 327.429C196.276 325.868 195.147 324.54 193.716 323.609C192.286 322.677 190.615 322.181 188.908 322.181Z" fill="#D6D8DB"/>
<path opacity="0.05" d="M142.555 275.188H173.465V250.958H124.8V313.368C124.8 315.705 123.871 317.947 122.219 319.6C120.566 321.253 118.324 322.181 115.987 322.181H109.357C107.649 322.181 105.979 322.677 104.548 323.609C103.117 324.54 101.988 325.867 101.297 327.429L78.8859 378.088C77.0672 382.2 76.1277 386.646 76.1279 391.142V466.588C76.1279 470.032 77.4959 473.334 79.9309 475.769C82.3658 478.204 85.6684 479.572 89.1119 479.572H187.312C124.8 456.809 139.9 328.234 142.555 275.188Z" fill="black"/>
<path d="M175.4 250.958H122.861C119.171 250.958 115.633 249.492 113.024 246.883C110.415 244.274 108.949 240.735 108.949 237.046V84.8798C108.949 81.1901 110.415 77.6515 113.024 75.0425C115.633 72.4335 119.171 70.9678 122.861 70.9678H175.4C177.227 70.9678 179.036 71.3276 180.724 72.0268C182.412 72.7259 183.945 73.7507 185.237 75.0425C186.529 76.3344 187.554 77.868 188.253 79.5559C188.952 81.2438 189.312 83.0528 189.312 84.8798V237.046C189.312 240.735 187.846 244.274 185.237 246.883C182.628 249.492 179.09 250.958 175.4 250.958Z" fill="#7CD9D2"/>
<path opacity="0.15" d="M189.31 190.278H108.95V205.278H189.31V190.278Z" fill="black"/>
<path d="M149.13 126.739C158.038 126.739 165.26 119.517 165.26 110.609C165.26 101.7 158.038 94.4785 149.13 94.4785C140.222 94.4785 133 101.7 133 110.609C133 119.517 140.222 126.739 149.13 126.739Z" fill="#BA8E79"/>
<path opacity="0.1" d="M149.13 126.739C158.038 126.739 165.26 119.517 165.26 110.609C165.26 101.7 158.038 94.4785 149.13 94.4785C140.222 94.4785 133 101.7 133 110.609C133 119.517 140.222 126.739 149.13 126.739Z" fill="black"/>
<path d="M379.347 250.958H326.808C323.119 250.957 319.581 249.491 316.973 246.882C314.365 244.273 312.9 240.735 312.9 237.046V84.8798C312.9 81.1908 314.365 77.6528 316.973 75.0439C319.581 72.435 323.119 70.9688 326.808 70.9678H379.347C381.174 70.9678 382.983 71.3276 384.671 72.0268C386.359 72.7259 387.892 73.7507 389.184 75.0425C390.476 76.3344 391.501 77.868 392.2 79.5559C392.899 81.2438 393.259 83.0528 393.259 84.8798V237.046C393.259 240.735 391.793 244.274 389.184 246.883C386.575 249.492 383.037 250.958 379.347 250.958Z" fill="#F8D662"/>
<path opacity="0.15" d="M393.26 190.278H312.9V205.278H393.26V190.278Z" fill="black"/>
<path d="M353.08 126.739C361.989 126.739 369.21 119.517 369.21 110.609C369.21 101.7 361.989 94.4785 353.08 94.4785C344.172 94.4785 336.95 101.7 336.95 110.609C336.95 119.517 344.172 126.739 353.08 126.739Z" fill="#BA8E79"/>
<path opacity="0.1" d="M353.08 126.739C361.989 126.739 369.21 119.517 369.21 110.609C369.21 101.7 361.989 94.4785 353.08 94.4785C344.172 94.4785 336.95 101.7 336.95 110.609C336.95 119.517 344.172 126.739 353.08 126.739Z" fill="black"/>
<path opacity="0.1" d="M326.808 250.958H379.347C381.511 250.958 383.645 250.451 385.579 249.479C387.513 248.506 389.192 247.095 390.483 245.358C341.765 208.717 342.041 107.038 342.963 70.9668H326.808C323.119 70.9679 319.581 72.4342 316.973 75.0433C314.365 77.6524 312.9 81.1906 312.9 84.8798V237.046C312.9 240.735 314.365 244.273 316.973 246.882C319.581 249.491 323.119 250.957 326.808 250.958Z" fill="black"/>
<path d="M124.8 441.514C122.811 441.514 120.903 440.724 119.497 439.317C118.09 437.911 117.3 436.003 117.3 434.014V393.537C117.3 391.548 118.09 389.64 119.497 388.234C120.903 386.827 122.811 386.037 124.8 386.037C126.789 386.037 128.697 386.827 130.103 388.234C131.51 389.64 132.3 391.548 132.3 393.537V434.014C132.3 436.003 131.51 437.911 130.103 439.317C128.697 440.724 126.789 441.514 124.8 441.514Z" fill="#5D6671"/>
<path d="M173.465 441.514C171.476 441.514 169.568 440.724 168.162 439.317C166.755 437.911 165.965 436.003 165.965 434.014V393.537C165.965 391.548 166.755 389.64 168.162 388.234C169.568 386.827 171.476 386.037 173.465 386.037C175.454 386.037 177.362 386.827 178.768 388.234C180.175 389.64 180.965 391.548 180.965 393.537V434.014C180.965 436.003 180.175 437.911 178.768 439.317C177.362 440.724 175.454 441.514 173.465 441.514Z" fill="#5D6671"/>
<path d="M377.412 395.81V250.958H328.744V401.426C328.744 443.984 362.784 479.289 405.344 479.574C423.488 479.697 441.094 473.421 455.069 461.849C469.044 450.277 478.494 434.149 481.756 416.301C482.056 414.602 481.979 412.858 481.532 411.193C481.085 409.527 480.278 407.979 479.168 406.659C478.058 405.338 476.672 404.277 475.107 403.551C473.543 402.824 471.838 402.449 470.113 402.452H384.054C382.293 402.452 380.603 401.752 379.358 400.507C378.112 399.261 377.412 397.572 377.412 395.81Z" fill="#D6D8DB"/>
<path opacity="0.1" d="M122.861 250.958H175.4C177.564 250.958 179.699 250.451 181.632 249.479C183.566 248.506 185.245 247.095 186.536 245.358C137.818 208.717 138.094 107.038 139.016 70.9668H122.861C121.034 70.9668 119.225 71.3266 117.537 72.0258C115.849 72.7249 114.316 73.7497 113.024 75.0415C111.732 76.3334 110.707 77.867 110.008 79.5549C109.309 81.2428 108.949 83.0518 108.949 84.8788V237.046C108.949 240.735 110.415 244.274 113.024 246.883C115.633 249.492 119.171 250.958 122.861 250.958Z" fill="black"/>
<path opacity="0.05" d="M404.844 479.569C421.635 479.813 438.043 474.546 451.554 464.574C325.977 481.741 346.5 408.267 346.5 275.188H377.409V250.958H328.744V401.302C328.743 443.688 362.461 479.019 404.844 479.569Z" fill="black"/>
</svg>
