<svg width="512" height="512" viewBox="0 0 512 512" fill="none" xmlns="http://www.w3.org/2000/svg">
<path d="M497.523 199.211L312.788 14.4768C303.518 5.20805 290.947 0.000976563 277.838 0.000976562C264.729 0.000976562 252.158 5.20805 242.888 14.4768L21.651 235.71C12.3823 244.979 7.17519 257.551 7.17519 270.66C7.17519 283.768 12.3823 296.34 21.651 305.61L57.664 341.623C59.8605 343.819 61.557 346.464 62.6373 349.376C63.7177 352.288 64.1565 355.4 63.9238 358.497C63.6911 361.595 62.7923 364.605 61.2889 367.324C59.7856 370.042 57.7131 372.403 55.213 374.247L24.994 396.534C16.4462 402.837 9.67687 411.247 5.34572 420.944C1.01458 430.641 -0.730671 441.295 0.280025 451.867C1.74988 467.243 8.52789 481.627 19.4499 492.549C30.3719 503.471 44.7561 510.249 60.132 511.719C70.7041 512.729 81.3577 510.984 91.0548 506.653C100.752 502.322 109.162 495.553 115.465 487.006L137.749 456.787C139.593 454.287 141.954 452.214 144.672 450.711C147.39 449.208 150.401 448.309 153.498 448.076C156.596 447.843 159.707 448.282 162.619 449.362C165.532 450.442 168.177 452.138 170.373 454.335L206.386 490.348C215.656 499.617 228.227 504.824 241.336 504.824C254.445 504.824 267.016 499.617 276.286 490.348L497.523 269.114C506.793 259.844 512 247.272 512 234.162C512 221.053 506.793 208.481 497.523 199.211ZM46.549 465.45C42.9022 461.803 40.4187 457.157 39.4126 452.098C38.4064 447.04 38.9228 441.797 40.8964 437.032C42.8701 432.268 46.2123 428.195 50.5005 425.33C54.7887 422.465 59.8302 420.935 64.9875 420.935C70.1449 420.935 75.1864 422.465 79.4746 425.33C83.7628 428.195 87.105 432.268 89.0786 437.032C91.0522 441.797 91.5686 447.04 90.5625 452.098C89.5563 457.157 87.0728 461.803 83.426 465.45C78.5358 470.34 71.9033 473.087 64.9875 473.087C58.0717 473.087 51.4392 470.34 46.549 465.45Z" fill="#BA8E79"/>
<path opacity="0.1" d="M251.819 138.177C258.905 143.317 266.273 145.904 273.794 145.904C275.747 145.902 277.697 145.73 279.621 145.391C303.021 141.284 318.715 118.897 335.335 95.1959C343.462 83.6059 351.718 71.8479 360.866 62.5539L350.266 51.9539C340.136 62.2539 331.357 74.7539 323.058 86.5889C308.274 107.673 294.309 127.589 277.033 130.621C271.573 131.581 266.205 130.082 260.633 126.04C241.409 112.099 226.17 72.9799 216.9 40.4639L204.822 52.5389C214.716 85.0619 230.413 122.649 251.819 138.177ZM132.314 261.037C147.541 230.612 143.543 200.246 121.881 181.791C113.131 174.335 102.044 169.515 89.7139 167.647L75.5399 181.821C89.9619 181.329 102.908 185.331 112.153 193.209C128.542 207.172 131.064 230.019 118.9 254.324C109.337 273.432 94.6799 285.547 75.3369 290.33C54.2829 295.536 30.2089 291.52 8.79688 283.207C10.6109 290.159 13.9282 296.628 18.5149 302.159C30.556 305.652 43.0178 307.485 55.5549 307.606C63.4303 307.65 71.282 306.738 78.9379 304.891C102.738 299.006 120.7 284.251 132.314 261.037ZM449.277 227.42C405.2 219.827 370.3 230.939 345.552 260.448C312.661 299.667 320.952 335.827 328.265 367.731C334.006 392.774 339.129 415.211 327.641 438.995L349.08 417.556C350.891 399.317 346.856 381.697 342.886 364.38C335.719 333.117 328.95 303.588 357.046 270.087C397.589 221.74 462.939 242.15 504.156 260.88C506.871 256.661 508.924 252.05 510.241 247.208C493.152 239.487 471.586 231.263 449.277 227.42ZM436.557 138.246C356.879 146.228 309.649 182.407 283.248 213.499C243.848 259.899 226.662 324.03 237.289 385.041C246.537 438.141 226.924 464.932 201.897 485.861L206.386 490.35C208.473 492.432 210.742 494.325 213.165 496.005C222.84 487.771 231.859 478.528 239.094 467.125C253.728 444.062 257.971 416.371 252.066 382.468C242.195 325.794 258.126 266.258 294.681 223.21C320.553 192.743 368.097 157.073 450.512 152.204L436.557 138.246ZM204.092 159.324C187.907 136.611 164.647 121.742 139.541 117.819L125.584 131.776C127.761 131.76 129.938 131.841 132.115 132.018C155.153 133.937 176.935 147.063 191.877 168.029C203.323 184.092 210.006 207.789 210.211 233.044C210.432 260.289 203.062 286.101 189.459 305.727C176.851 323.918 159.432 336.398 137.685 342.827C115.421 349.404 88.9919 349.479 58.9739 343.074C60.8438 345.309 62.2395 347.902 63.0762 350.693C63.9129 353.485 64.1731 356.418 63.8409 359.313C76.017 361.575 88.3706 362.746 100.755 362.813C114.679 362.934 128.549 361.048 141.935 357.213C167.044 349.795 187.182 335.348 201.787 314.276C217.138 292.129 225.456 263.239 225.21 232.927C224.981 204.662 217.285 177.837 204.092 159.324Z" fill="black"/>
<path opacity="0.1" d="M181.875 75.4854L21.651 235.709C12.3823 244.979 7.17519 257.551 7.17519 270.659C7.17519 283.768 12.3823 296.34 21.651 305.609L57.664 341.622C59.8605 343.819 61.557 346.463 62.6373 349.376C63.7177 352.288 64.1565 355.399 63.9238 358.497C63.6911 361.594 62.7923 364.605 61.2889 367.323C59.7856 370.041 57.7131 372.403 55.213 374.246L24.994 396.533C16.4462 402.836 9.67687 411.246 5.34572 420.943C1.01458 430.64 -0.730671 441.294 0.280025 451.866C1.74988 467.242 8.52789 481.627 19.4499 492.548C30.3719 503.47 44.7561 510.249 60.132 511.718C70.7041 512.729 81.3577 510.984 91.0548 506.653C100.752 502.322 109.162 495.553 115.465 487.005L137.749 456.786C139.593 454.286 141.954 452.214 144.672 450.711C147.39 449.207 150.401 448.308 153.498 448.076C156.596 447.843 159.707 448.281 162.619 449.362C165.532 450.442 168.177 452.138 170.373 454.334L206.386 490.347C215.656 499.616 228.227 504.823 241.336 504.823C254.445 504.823 267.016 499.616 276.286 490.347L378.465 388.171C282.39 363.251 193.255 200.79 181.875 75.4854ZM83.426 465.449C79.7792 469.096 75.1329 471.58 70.0747 472.586C65.0164 473.592 59.7734 473.076 55.0087 471.102C50.2439 469.128 46.1714 465.786 43.3061 461.498C40.4408 457.21 38.9115 452.168 38.9115 447.011C38.9115 441.854 40.4408 436.812 43.3061 432.524C46.1714 428.236 50.2439 424.893 55.0087 422.92C59.7734 420.946 65.0164 420.43 70.0747 421.436C75.1329 422.442 79.7792 424.926 83.426 428.572C88.3162 433.463 91.0635 440.095 91.0635 447.011C91.0635 453.927 88.3162 460.559 83.426 465.449Z" fill="black"/>
<path d="M299.263 437.577L143.69 281.999C137.108 275.416 133.41 266.489 133.41 257.18C133.41 247.871 137.108 238.943 143.69 232.361L212.382 163.67L318.6 269.899C352.647 303.946 383.465 341.075 410.659 380.81L443.952 429.455C446.938 433.818 448.77 438.867 449.275 444.13C449.78 449.393 448.943 454.698 446.842 459.549C444.74 464.401 441.443 468.641 437.259 471.872C433.074 475.104 428.139 477.221 422.913 478.028C400.574 481.475 377.737 479.608 356.254 472.58C334.771 465.552 315.246 453.56 299.263 437.577Z" fill="#D6D8DB"/>
<path d="M143.69 281.999L299.263 437.576C315.246 453.559 334.771 465.551 356.255 472.579C377.739 479.606 400.576 481.472 422.915 478.024C427.724 477.281 432.293 475.426 436.259 472.606C440.225 469.787 443.479 466.081 445.762 461.784C448.044 457.486 449.293 452.716 449.408 447.851C449.523 442.986 448.502 438.162 446.425 433.761C378.194 452.476 339.301 427.976 315.666 404.341L143.69 232.366C137.109 238.948 133.413 247.875 133.413 257.183C133.413 266.49 137.109 275.417 143.69 281.999Z" fill="#F0F1F1"/>
<path d="M91.6692 42.9611L212.382 163.674L143.69 232.365L22.9772 111.653C18.4668 107.143 14.8889 101.788 12.4479 95.8953C10.0069 90.0023 8.75049 83.6862 8.75049 77.3076C8.75049 70.929 10.0069 64.6129 12.4479 58.7199C14.8889 52.8269 18.4668 47.4724 22.9772 42.9621C27.4874 38.4515 32.8419 34.8734 38.735 32.4322C44.6281 29.991 50.9443 28.7345 57.323 28.7344C63.7017 28.7343 70.018 29.9906 75.9111 32.4317C81.8043 34.8727 87.1589 38.4506 91.6692 42.9611Z" fill="#8DB5EA"/>
<path opacity="0.1" d="M154.917 106.21L91.6688 42.9612C87.1585 38.4507 81.8039 34.8729 75.9108 32.4318C70.0177 29.9908 63.7015 28.7344 57.3228 28.7344C50.9442 28.7344 44.628 29.9908 38.7348 32.4318C32.8417 34.8729 27.4872 38.4507 22.9768 42.9612C18.4664 47.4715 14.8885 52.8261 12.4474 58.7192C10.0064 64.6123 8.75 70.9285 8.75 77.3072C8.75 83.6859 10.0064 90.0021 12.4474 95.8952C14.8885 101.788 18.4664 107.143 22.9768 111.653L68.4998 157.177C72.3148 121.118 116.16 108.261 154.917 106.21Z" fill="black"/>
<path d="M57.32 93.7952C66.4249 93.7952 73.806 86.4142 73.806 77.3092C73.806 68.2043 66.4249 60.8232 57.32 60.8232C48.215 60.8232 40.834 68.2043 40.834 77.3092C40.834 86.4142 48.215 93.7952 57.32 93.7952Z" fill="#F0F1F1"/>
<path opacity="0.1" d="M276.765 228.057L212.382 163.674L143.691 232.365C137.109 238.947 133.411 247.875 133.411 257.184C133.411 266.493 137.109 275.42 143.691 282.003L157.239 295.551C189.812 263.744 233.109 229.425 276.765 228.057Z" fill="black"/>
</svg>
