<svg width="512" height="512" viewBox="0 0 512 512" fill="none" xmlns="http://www.w3.org/2000/svg">
<path d="M418.638 512H95.243C81.3873 512 68.0991 506.496 58.3016 496.698C48.5042 486.901 43 473.613 43 459.757V76.864C43.0003 56.4785 51.0985 36.928 65.5132 22.5132C79.928 8.0985 99.4785 0.00026521 119.864 0L394.011 0C404.105 0 414.1 1.98815 423.426 5.85092C432.751 9.7137 441.225 15.3755 448.362 22.5129C455.5 29.6504 461.161 38.1239 465.024 47.4494C468.887 56.775 470.875 66.7701 470.875 76.864V459.757C470.875 473.612 465.372 486.899 455.576 496.697C445.78 506.494 432.493 511.999 418.638 512Z" fill="#7CD9D2"/>
<path d="M394.011 0H119.864C99.4786 0.000265214 79.9282 8.09853 65.5136 22.5133C51.099 36.9281 43.001 56.4786 43.001 76.864V112.68H470.876V76.864C470.876 56.4783 462.777 36.9277 448.362 22.5129C433.947 8.09812 414.397 -1.72517e-09 394.011 0V0Z" fill="#F0F1F1"/>
<path d="M256.938 187.628C254.949 187.628 253.041 186.838 251.635 185.431C250.228 184.025 249.438 182.117 249.438 180.128V143C249.438 141.011 250.228 139.103 251.635 137.697C253.041 136.29 254.949 135.5 256.938 135.5C258.927 135.5 260.835 136.29 262.241 137.697C263.648 139.103 264.438 141.011 264.438 143V180.129C264.438 182.118 263.647 184.025 262.241 185.432C260.834 186.838 258.927 187.628 256.938 187.628Z" fill="#5D6671"/>
<path d="M345.046 224.124C343.564 224.123 342.115 223.682 340.883 222.858C339.651 222.034 338.69 220.863 338.123 219.493C337.556 218.123 337.408 216.616 337.696 215.162C337.985 213.709 338.698 212.373 339.746 211.324L366.001 185.069C367.408 183.662 369.315 182.872 371.304 182.872C373.294 182.872 375.201 183.662 376.608 185.069C378.015 186.475 378.805 188.383 378.805 190.372C378.805 192.362 378.015 194.269 376.608 195.676L350.353 221.931C349.657 222.628 348.829 223.181 347.918 223.557C347.008 223.933 346.031 224.126 345.046 224.124Z" fill="#5D6671"/>
<path d="M418.672 312.232H381.538C379.549 312.232 377.641 311.442 376.235 310.036C374.828 308.629 374.038 306.722 374.038 304.732C374.038 302.743 374.828 300.836 376.235 299.429C377.641 298.023 379.549 297.232 381.538 297.232H418.668C420.657 297.232 422.565 298.023 423.971 299.429C425.378 300.836 426.168 302.743 426.168 304.732C426.168 306.722 425.378 308.629 423.971 310.036C422.565 311.442 420.657 312.232 418.668 312.232H418.672Z" fill="#5D6671"/>
<path d="M371.301 426.6C370.316 426.6 369.341 426.406 368.432 426.028C367.522 425.65 366.696 425.097 366.001 424.4L339.738 398.145C339.042 397.448 338.489 396.621 338.112 395.711C337.735 394.801 337.541 393.826 337.541 392.841C337.541 391.856 337.735 390.881 338.112 389.971C338.489 389.061 339.042 388.234 339.738 387.538C340.435 386.841 341.261 386.289 342.171 385.912C343.081 385.535 344.057 385.341 345.042 385.341C346.026 385.341 347.002 385.535 347.912 385.912C348.822 386.289 349.649 386.841 350.345 387.538L376.6 413.793C377.648 414.841 378.361 416.177 378.65 417.631C378.939 419.085 378.79 420.592 378.223 421.962C377.656 423.331 376.696 424.502 375.463 425.327C374.231 426.151 372.782 426.591 371.3 426.593L371.301 426.6Z" fill="#5D6671"/>
<path d="M256.938 473.967C254.949 473.967 253.041 473.177 251.635 471.77C250.228 470.364 249.438 468.456 249.438 466.467V429.337C249.438 427.348 250.228 425.44 251.635 424.034C253.041 422.627 254.949 421.837 256.938 421.837C258.927 421.837 260.835 422.627 262.241 424.034C263.648 425.44 264.438 427.348 264.438 429.337V466.467C264.438 468.456 263.648 470.364 262.241 471.77C260.835 473.177 258.927 473.967 256.938 473.967Z" fill="#5D6671"/>
<path d="M142.575 426.6C141.093 426.599 139.644 426.159 138.412 425.334C137.179 424.51 136.219 423.339 135.652 421.97C135.085 420.6 134.936 419.093 135.225 417.639C135.514 416.185 136.227 414.849 137.275 413.8L163.53 387.545C164.226 386.849 165.053 386.296 165.963 385.92C166.873 385.543 167.848 385.349 168.833 385.349C169.818 385.349 170.794 385.543 171.704 385.92C172.614 386.296 173.44 386.849 174.137 387.545C174.833 388.242 175.386 389.069 175.763 389.979C176.14 390.889 176.334 391.864 176.334 392.849C176.334 393.834 176.14 394.809 175.763 395.719C175.386 396.629 174.833 397.456 174.137 398.152L147.878 424.4C147.182 425.098 146.356 425.652 145.446 426.029C144.536 426.407 143.56 426.601 142.575 426.6Z" fill="#5D6671"/>
<path d="M132.338 312.232H95.203C93.2139 312.232 91.3062 311.442 89.8997 310.036C88.4932 308.629 87.703 306.722 87.703 304.732C87.703 302.743 88.4932 300.836 89.8997 299.429C91.3062 298.023 93.2139 297.232 95.203 297.232H132.338C134.327 297.232 136.235 298.023 137.641 299.429C139.048 300.836 139.838 302.743 139.838 304.732C139.838 306.722 139.048 308.629 137.641 310.036C136.235 311.442 134.327 312.232 132.338 312.232Z" fill="#5D6671"/>
<path d="M168.83 224.124C167.845 224.124 166.87 223.93 165.961 223.552C165.051 223.175 164.225 222.621 163.53 221.924L137.275 195.669C135.868 194.262 135.078 192.355 135.078 190.366C135.078 188.376 135.868 186.469 137.275 185.062C138.682 183.655 140.589 182.865 142.579 182.865C144.568 182.865 146.475 183.655 147.882 185.062L174.137 211.317C175.185 212.366 175.898 213.702 176.187 215.156C176.476 216.61 176.327 218.117 175.76 219.486C175.193 220.856 174.233 222.027 173 222.851C171.768 223.675 170.319 224.116 168.837 224.117L168.83 224.124Z" fill="#5D6671"/>
<path d="M199.411 173.343C197.927 173.343 196.476 172.903 195.242 172.079C194.008 171.254 193.047 170.082 192.479 168.711L188.117 158.18C187.37 156.345 187.379 154.289 188.143 152.46C188.907 150.632 190.363 149.181 192.193 148.422C194.024 147.664 196.08 147.661 197.913 148.414C199.745 149.167 201.206 150.614 201.975 152.44L206.337 162.971C206.809 164.11 206.993 165.348 206.873 166.576C206.752 167.803 206.331 168.982 205.646 170.008C204.961 171.033 204.034 171.874 202.946 172.456C201.859 173.038 200.644 173.342 199.411 173.343Z" fill="#5D6671"/>
<path d="M314.465 173.343C313.232 173.342 312.017 173.038 310.93 172.456C309.842 171.874 308.915 171.033 308.23 170.007C307.545 168.982 307.124 167.803 307.003 166.576C306.883 165.348 307.067 164.11 307.539 162.97L311.901 152.44C312.274 151.524 312.824 150.691 313.52 149.988C314.216 149.286 315.044 148.728 315.956 148.347C316.869 147.966 317.847 147.769 318.836 147.768C319.825 147.766 320.804 147.96 321.717 148.338C322.631 148.717 323.461 149.272 324.159 149.972C324.857 150.672 325.409 151.504 325.785 152.418C326.161 153.333 326.352 154.313 326.347 155.302C326.343 156.29 326.143 157.268 325.759 158.179L321.397 168.711C320.829 170.082 319.868 171.254 318.634 172.078C317.4 172.903 315.949 173.343 314.465 173.343Z" fill="#5D6671"/>
<path d="M395.833 254.7C394.097 254.702 392.414 254.101 391.071 253.001C389.728 251.9 388.809 250.367 388.47 248.665C388.131 246.962 388.393 245.194 389.212 243.663C390.031 242.132 391.355 240.933 392.96 240.269L403.491 235.907C405.326 235.16 407.382 235.169 409.21 235.933C411.038 236.697 412.49 238.153 413.248 239.983C414.006 241.814 414.009 243.87 413.257 245.703C412.504 247.535 411.057 248.996 409.231 249.765L398.7 254.127C397.791 254.505 396.817 254.7 395.833 254.7Z" fill="#5D6671"/>
<path d="M406.358 374.127C405.374 374.127 404.4 373.932 403.491 373.554L392.96 369.192C392.044 368.82 391.211 368.269 390.509 367.573C389.807 366.877 389.249 366.05 388.868 365.137C388.487 364.225 388.29 363.246 388.288 362.257C388.287 361.269 388.481 360.289 388.859 359.376C389.237 358.463 389.793 357.633 390.493 356.935C391.193 356.237 392.024 355.684 392.939 355.308C393.853 354.933 394.833 354.742 395.822 354.746C396.811 354.751 397.789 354.951 398.7 355.334L409.231 359.696C410.836 360.36 412.16 361.559 412.979 363.09C413.798 364.621 414.06 366.389 413.721 368.092C413.382 369.795 412.463 371.327 411.12 372.428C409.777 373.528 408.094 374.129 406.358 374.127Z" fill="#5D6671"/>
<path d="M318.838 461.657C317.354 461.658 315.903 461.218 314.669 460.393C313.435 459.568 312.474 458.396 311.906 457.025L307.538 446.494C306.791 444.659 306.8 442.603 307.564 440.775C308.328 438.947 309.784 437.495 311.614 436.737C313.445 435.979 315.501 435.976 317.334 436.728C319.166 437.481 320.627 438.928 321.396 440.754L325.758 451.285C326.23 452.424 326.414 453.663 326.294 454.89C326.173 456.118 325.752 457.296 325.067 458.322C324.382 459.348 323.455 460.189 322.367 460.77C321.28 461.352 320.065 461.657 318.832 461.657H318.838Z" fill="#5D6671"/>
<path d="M195.038 461.657C193.805 461.657 192.59 461.352 191.503 460.77C190.415 460.189 189.488 459.348 188.803 458.322C188.118 457.296 187.697 456.118 187.576 454.89C187.456 453.663 187.64 452.424 188.112 451.285L192.474 440.754C193.243 438.928 194.704 437.481 196.536 436.728C198.369 435.976 200.425 435.979 202.256 436.737C204.086 437.495 205.542 438.947 206.306 440.775C207.07 442.603 207.079 444.659 206.332 446.494L201.97 457.025C201.402 458.396 200.441 459.568 199.207 460.393C197.973 461.218 196.522 461.658 195.038 461.657Z" fill="#5D6671"/>
<path d="M107.518 374.127C105.782 374.129 104.099 373.528 102.756 372.428C101.413 371.327 100.494 369.795 100.155 368.092C99.8159 366.389 100.078 364.621 100.897 363.09C101.716 361.559 103.04 360.36 104.645 359.696L115.176 355.334C116.087 354.951 117.065 354.751 118.054 354.746C119.043 354.742 120.023 354.933 120.937 355.308C121.852 355.684 122.683 356.237 123.383 356.935C124.083 357.633 124.639 358.463 125.017 359.376C125.395 360.289 125.589 361.269 125.588 362.257C125.586 363.246 125.389 364.225 125.008 365.137C124.627 366.05 124.069 366.877 123.367 367.573C122.665 368.269 121.832 368.82 120.916 369.192L110.385 373.554C109.476 373.932 108.502 374.127 107.518 374.127Z" fill="#5D6671"/>
<path d="M118.043 254.7C117.059 254.7 116.085 254.505 115.176 254.127L104.645 249.765C102.819 248.996 101.372 247.535 100.619 245.703C99.8665 243.87 99.8696 241.814 100.628 239.983C101.386 238.153 102.838 236.697 104.666 235.933C106.494 235.169 108.55 235.16 110.385 235.907L120.916 240.269C122.52 240.933 123.845 242.132 124.664 243.663C125.483 245.194 125.745 246.962 125.406 248.665C125.067 250.367 124.148 251.9 122.805 253.001C121.462 254.101 119.779 254.702 118.043 254.7Z" fill="#5D6671"/>
<path opacity="0.1" d="M166.443 0H119.864C99.4786 0.000265214 79.9282 8.09853 65.5136 22.5133C51.099 36.9281 43.001 56.4786 43.001 76.864V459.757C43.001 473.613 48.5051 486.901 58.3026 496.698C68.1001 506.496 81.3883 512 95.244 512H327.92C132.15 414.668 162.022 66.273 166.443 0Z" fill="black"/>
<path d="M256.938 433.3C327.945 433.3 385.508 375.737 385.508 304.73C385.508 233.723 327.945 176.16 256.938 176.16C185.931 176.16 128.368 233.723 128.368 304.73C128.368 375.737 185.931 433.3 256.938 433.3Z" fill="white"/>
<path opacity="0.1" d="M277.153 413.085C252.944 413.085 229.227 406.25 208.732 393.366C188.236 380.483 171.794 362.074 161.299 340.258C150.804 318.443 146.682 294.107 149.406 270.052C152.131 245.997 161.592 223.2 176.701 204.285C162.565 215.574 150.97 229.719 142.674 245.796C134.379 261.873 129.57 279.519 128.562 297.582C127.554 315.645 130.369 333.717 136.823 350.617C143.278 367.517 153.226 382.865 166.019 395.657C178.811 408.449 194.159 418.397 211.059 424.851C227.959 431.305 246.032 434.12 264.094 433.111C282.157 432.103 299.803 427.293 315.88 418.998C331.957 410.702 346.102 399.107 357.39 384.97C334.628 403.209 306.321 413.128 277.153 413.085Z" fill="black"/>
<path d="M151.253 377.982C160.054 390.634 171.037 401.617 183.689 410.418L274.183 319.924C278.484 315.623 280.901 309.789 280.901 303.706C280.901 297.624 278.484 291.79 274.183 287.488C272.053 285.359 269.525 283.669 266.742 282.516C263.96 281.364 260.977 280.771 257.966 280.771C254.954 280.771 251.971 281.364 249.189 282.516C246.406 283.669 243.878 285.359 241.748 287.488L151.253 377.982Z" fill="#D6D8DB"/>
<path opacity="0.1" d="M161.746 367.489L151.253 377.982C160.054 390.634 171.037 401.617 183.689 410.418L194.182 399.925C181.523 391.133 170.538 380.148 161.746 367.489Z" fill="black"/>
<path d="M319.482 231.489L279.124 240.573C277.561 240.925 276.121 241.69 274.955 242.788C273.788 243.886 272.938 245.276 272.492 246.815C272.046 248.354 272.022 249.984 272.42 251.536C272.819 253.087 273.627 254.503 274.76 255.636L306.038 286.91C307.171 288.043 308.587 288.851 310.138 289.25C311.69 289.648 313.32 289.624 314.859 289.178C316.397 288.732 317.788 287.882 318.886 286.715C319.984 285.549 320.749 284.109 321.101 282.546L330.185 242.188C330.517 240.714 330.47 239.181 330.05 237.73C329.629 236.279 328.849 234.958 327.78 233.89C326.712 232.822 325.391 232.042 323.94 231.622C322.489 231.202 320.956 231.157 319.482 231.489Z" fill="#F18290"/>
</svg>
