<svg width="512" height="512" viewBox="0 0 512 512" fill="none" xmlns="http://www.w3.org/2000/svg">
<path d="M467.9 380.515H44.1C32.4043 380.515 21.1876 375.869 12.9173 367.599C4.647 359.329 0.000530417 348.113 0 336.417L0 108.099C0.00132598 96.4037 4.64815 85.188 12.9184 76.9187C21.1886 68.6495 32.4048 64.0039 44.1 64.0039H467.9C479.596 64.0039 490.813 68.6501 499.083 76.9205C507.354 85.1908 512 96.4079 512 108.104V336.417C511.999 348.113 507.353 359.329 499.083 367.599C490.812 375.869 479.596 380.515 467.9 380.515Z" fill="#F0F1F1"/>
<path d="M285.579 335.096H58.5416C54.7113 335.096 51.0379 333.574 48.3295 330.865C45.6211 328.157 44.0996 324.483 44.0996 320.653V123.863C44.0996 120.032 45.6213 116.359 48.3299 113.65C51.0385 110.942 54.7121 109.42 58.5426 109.42H285.579C289.409 109.42 293.083 110.942 295.791 113.65C298.5 116.359 300.022 120.032 300.022 123.863V320.653C300.022 324.483 298.5 328.157 295.791 330.866C293.083 333.574 289.409 335.096 285.579 335.096Z" fill="#C1C6CA"/>
<path d="M100.756 302.791C99.2737 302.789 97.8249 302.349 96.5928 301.525C95.3606 300.7 94.4003 299.53 93.8332 298.16C93.2661 296.79 93.1176 295.283 93.4064 293.829C93.6953 292.375 94.4085 291.04 95.4561 289.991L130.539 254.904C131.956 253.553 133.845 252.81 135.803 252.833C137.76 252.856 139.631 253.643 141.016 255.027C142.401 256.411 143.19 258.281 143.214 260.239C143.238 262.196 142.496 264.086 141.146 265.504L106.06 300.594C105.364 301.291 104.537 301.844 103.627 302.221C102.717 302.598 101.741 302.792 100.756 302.791Z" fill="white"/>
<path d="M177.185 294.129C175.702 294.128 174.254 293.687 173.021 292.863C171.789 292.039 170.829 290.868 170.262 289.498C169.695 288.129 169.546 286.622 169.835 285.168C170.124 283.714 170.837 282.378 171.885 281.329L248.573 204.641C249.268 203.94 250.095 203.382 251.006 203.001C251.918 202.62 252.895 202.423 253.883 202.421C254.87 202.419 255.849 202.612 256.762 202.989C257.675 203.365 258.504 203.919 259.203 204.617C259.901 205.316 260.455 206.145 260.832 207.058C261.209 207.971 261.402 208.949 261.4 209.937C261.397 210.925 261.2 211.902 260.819 212.813C260.438 213.725 259.881 214.552 259.18 215.247L182.492 291.935C181.796 292.633 180.968 293.185 180.057 293.562C179.147 293.939 178.17 294.131 177.185 294.129Z" fill="white"/>
<path d="M467.9 64.0039H353.743V380.516H467.9C479.596 380.516 490.813 375.87 499.084 367.599C507.354 359.329 512 348.112 512 336.416V108.099C511.999 96.4037 507.352 85.188 499.082 76.9187C490.812 68.6495 479.595 64.0039 467.9 64.0039Z" fill="#8DB5EA"/>
<path d="M89.7786 412.404H60.3996C56.0766 412.404 51.9306 410.686 48.8738 407.629C45.8169 404.573 44.0996 400.427 44.0996 396.104V380.516H106.079V396.104C106.079 400.427 104.361 404.573 101.304 407.629C98.2476 410.686 94.1016 412.404 89.7786 412.404Z" fill="#5D6671"/>
<path d="M451.6 412.404H422.221C420.08 412.404 417.961 411.982 415.983 411.163C414.006 410.344 412.209 409.143 410.695 407.629C409.181 406.116 407.981 404.319 407.162 402.341C406.343 400.364 405.921 398.244 405.921 396.104V380.516H467.9V396.104C467.9 400.427 466.183 404.573 463.126 407.629C460.069 410.686 455.923 412.404 451.6 412.404Z" fill="#5D6671"/>
<path d="M454.919 316.735H410.819C406.443 316.735 402.246 314.997 399.152 311.902C396.058 308.808 394.319 304.611 394.319 300.235V200.624C394.319 196.248 396.058 192.051 399.152 188.957C402.246 185.862 406.443 184.124 410.819 184.124H454.919C459.295 184.124 463.492 185.862 466.587 188.957C469.681 192.051 471.419 196.248 471.419 200.624V300.232C471.42 302.399 470.993 304.545 470.164 306.547C469.335 308.549 468.12 310.369 466.588 311.901C465.055 313.434 463.236 314.649 461.234 315.479C459.232 316.308 457.086 316.735 454.919 316.735Z" fill="#C3E9F1"/>
<g opacity="0.1">
<path opacity="0.1" d="M471.42 222.574H394.32V237.574H471.42V222.574Z" fill="black"/>
<path opacity="0.1" d="M471.42 263.284H394.32V278.284H471.42V263.284Z" fill="black"/>
</g>
<path d="M464.228 109.42H401.515C399.606 109.42 397.775 110.178 396.424 111.529C395.074 112.879 394.315 114.71 394.315 116.62V135.62C394.315 137.529 395.074 139.361 396.424 140.711C397.775 142.061 399.606 142.82 401.515 142.82H464.228C466.138 142.82 467.969 142.061 469.32 140.711C470.67 139.361 471.428 137.529 471.428 135.62V116.62C471.429 115.674 471.244 114.738 470.882 113.864C470.52 112.99 469.99 112.196 469.321 111.527C468.653 110.858 467.859 110.328 466.985 109.966C466.111 109.605 465.174 109.419 464.228 109.42Z" fill="#5D6671"/>
<path opacity="0.1" d="M44.1 64.0039C32.4048 64.0039 21.1886 68.6495 12.9184 76.9187C4.64815 85.188 0.00132598 96.4037 0 108.099L0 336.417C0 342.208 1.14068 347.943 3.35691 353.293C5.57314 358.644 8.82153 363.505 12.9166 367.6C17.0117 371.695 21.8732 374.944 27.2237 377.16C32.5741 379.376 38.3087 380.517 44.1 380.517H167.845C98.724 313.063 75.089 139.194 81.978 64.0039H44.1Z" fill="black"/>
</svg>
