<svg width="512" height="512" viewBox="0 0 512 512" fill="none" xmlns="http://www.w3.org/2000/svg">
<path d="M467.874 452.573H44.126C32.4231 452.573 21.1994 447.924 12.9242 439.648C4.64898 431.373 0 420.15 0 408.447V136.098H512V408.447C512 420.15 507.351 431.373 499.076 439.648C490.801 447.924 479.577 452.573 467.874 452.573Z" fill="#F0F1F1"/>
<path opacity="0.1" d="M0 363.092V408.447C0 420.15 4.64898 431.373 12.9242 439.649C21.1994 447.924 32.4231 452.573 44.126 452.573H467.874C479.577 452.573 490.801 447.924 499.076 439.649C507.351 431.373 512 420.15 512 408.447V363.092H0Z" fill="black"/>
<path d="M467.874 19.998H44.126C38.3311 19.998 32.593 21.1395 27.2392 23.3571C21.8855 25.5748 17.021 28.8253 12.9235 32.923C8.82599 37.0206 5.57574 41.8853 3.35832 47.2391C1.1409 52.593 -0.000262606 58.3312 4.53289e-08 64.126L4.53289e-08 136.098H512V64.126C512 58.3312 510.859 52.593 508.642 47.2391C506.424 41.8853 503.174 37.0206 499.077 32.923C494.979 28.8253 490.114 25.5748 484.761 23.3571C479.407 21.1395 473.669 19.998 467.874 19.998Z" fill="#8DB5EA"/>
<path d="M48.472 380.928V207.744C48.472 201.598 50.9134 195.704 55.2592 191.358C59.6049 187.012 65.499 184.571 71.645 184.57H440.355C443.398 184.57 446.412 185.17 449.223 186.334C452.035 187.499 454.589 189.206 456.741 191.358C458.893 193.51 460.6 196.064 461.764 198.876C462.929 201.688 463.528 204.701 463.528 207.744V380.928C463.527 387.074 461.085 392.967 456.74 397.312C452.394 401.657 446.5 404.098 440.355 404.098H71.645C65.4996 404.099 59.6057 401.658 55.26 397.312C50.9142 392.967 48.4725 387.074 48.472 380.928Z" fill="#C1C6CA"/>
<path d="M148.3 101.178C161.074 101.178 171.43 90.8223 171.43 78.048C171.43 65.2736 161.074 54.918 148.3 54.918C135.526 54.918 125.17 65.2736 125.17 78.048C125.17 90.8223 135.526 101.178 148.3 101.178Z" fill="#C3E9F1"/>
<path d="M363.7 101.178C376.474 101.178 386.83 90.8223 386.83 78.048C386.83 65.2736 376.474 54.918 363.7 54.918C350.926 54.918 340.57 65.2736 340.57 78.048C340.57 90.8223 350.926 101.178 363.7 101.178Z" fill="#C3E9F1"/>
<path d="M306.6 54.917H205.4C202.253 54.9173 199.235 56.1675 197.01 58.3928C194.785 60.618 193.534 63.636 193.534 66.783V89.315C193.534 92.462 194.785 95.48 197.01 97.7052C199.235 99.9305 202.253 101.181 205.4 101.181H306.6C309.747 101.181 312.765 99.9305 314.99 97.7052C317.215 95.48 318.466 92.462 318.466 89.315V66.783C318.466 63.636 317.215 60.618 314.99 58.3928C312.765 56.1675 309.747 54.9173 306.6 54.917Z" fill="white"/>
<path d="M157.5 257.62C160.204 255.114 163.755 253.722 167.442 253.722C171.129 253.722 174.68 255.114 177.384 257.62C194.208 273.193 226.484 307.908 226.484 345.065C226.484 360.723 220.264 375.739 209.192 386.811C198.121 397.882 183.105 404.102 167.447 404.102C151.789 404.102 136.773 397.882 125.702 386.811C114.63 375.739 108.41 360.723 108.41 345.065C108.4 307.907 140.675 273.192 157.5 257.62Z" fill="#F8D662"/>
<path d="M162.327 324.081C163.72 322.796 165.546 322.083 167.441 322.083C169.335 322.083 171.161 322.796 172.554 324.081C181.623 332.419 199.58 351.511 199.58 371.961C199.58 380.485 196.194 388.66 190.166 394.687C184.139 400.715 175.964 404.101 167.44 404.101C158.916 404.101 150.741 400.715 144.714 394.687C138.686 388.66 135.3 380.485 135.3 371.961C135.3 351.511 153.258 332.42 162.327 324.081Z" fill="#F18290"/>
<path d="M334.617 257.62C337.321 255.114 340.872 253.722 344.559 253.722C348.246 253.722 351.797 255.114 354.501 257.62C371.325 273.193 403.601 307.908 403.601 345.065C403.601 360.723 397.381 375.739 386.309 386.811C375.238 397.882 360.222 404.102 344.564 404.102C328.906 404.102 313.89 397.882 302.819 386.811C291.747 375.739 285.527 360.723 285.527 345.065C285.522 307.907 317.794 273.192 334.617 257.62Z" fill="#F8D662"/>
<path d="M339.446 324.081C340.839 322.796 342.665 322.083 344.56 322.083C346.455 322.083 348.28 322.796 349.673 324.081C358.742 332.419 376.699 351.511 376.699 371.961C376.699 380.485 373.313 388.66 367.285 394.688C361.258 400.715 353.083 404.101 344.559 404.101C336.035 404.101 327.86 400.715 321.833 394.688C315.805 388.66 312.419 380.485 312.419 371.961C312.42 351.511 330.377 332.42 339.446 324.081Z" fill="#F18290"/>
<path d="M123.66 492.998H73.288C68.7793 492.998 64.4553 491.207 61.2672 488.019C58.0791 484.831 56.288 480.507 56.288 475.998V452.574H140.661V475.998C140.661 478.231 140.221 480.441 139.367 482.504C138.512 484.567 137.26 486.441 135.681 488.019C134.103 489.598 132.229 490.85 130.166 491.704C128.103 492.559 125.893 492.998 123.66 492.998Z" fill="#8DB5EA"/>
<path d="M388.34 492.998H438.712C443.221 492.998 447.545 491.207 450.733 488.019C453.921 484.831 455.712 480.507 455.712 475.998V452.574H371.34V475.998C371.34 480.507 373.131 484.831 376.319 488.019C379.507 491.207 383.831 492.998 388.34 492.998Z" fill="#8DB5EA"/>
<path d="M218.527 251.455C217.045 251.454 215.596 251.013 214.364 250.189C213.132 249.365 212.171 248.194 211.604 246.824C211.037 245.455 210.889 243.948 211.177 242.494C211.466 241.04 212.179 239.704 213.227 238.655L227.545 224.337C228.24 223.636 229.067 223.078 229.979 222.697C230.89 222.317 231.867 222.119 232.855 222.117C233.843 222.115 234.821 222.308 235.734 222.685C236.647 223.062 237.476 223.616 238.175 224.314C238.873 225.013 239.427 225.842 239.804 226.755C240.181 227.668 240.373 228.646 240.371 229.634C240.369 230.622 240.172 231.599 239.791 232.51C239.41 233.422 238.852 234.249 238.151 234.944L223.83 249.259C223.134 249.956 222.308 250.509 221.398 250.886C220.488 251.263 219.512 251.456 218.527 251.455Z" fill="white"/>
<path d="M258.4 293.587C256.918 293.586 255.469 293.145 254.237 292.321C253.005 291.497 252.044 290.326 251.477 288.956C250.91 287.587 250.762 286.08 251.05 284.626C251.339 283.172 252.052 281.836 253.1 280.787L325.164 208.723C326.573 207.327 328.477 206.545 330.461 206.55C332.444 206.554 334.345 207.344 335.747 208.747C337.15 210.149 337.94 212.05 337.944 214.034C337.948 216.017 337.166 217.922 335.77 219.33L263.706 291.395C263.009 292.092 262.182 292.644 261.272 293.02C260.361 293.396 259.385 293.589 258.4 293.587Z" fill="white"/>
<path opacity="0.1" d="M118.357 19.998H44.127C38.332 19.9979 32.5938 21.1392 27.2399 23.3568C21.8861 25.5744 17.0215 28.8249 12.9239 32.9226C8.82624 37.0203 5.5759 41.885 3.35841 47.2389C1.14093 52.5928 -0.000262611 58.3311 4.53294e-08 64.126V408.447C4.53295e-08 420.15 4.64898 431.374 12.9242 439.649C21.1994 447.924 32.4231 452.573 44.126 452.573H197.185C129.313 324.824 119.669 95.726 118.357 19.998Z" fill="black"/>
<path opacity="0.1" d="M140.66 452.568H56.29V469.787H140.66V452.568Z" fill="black"/>
<path opacity="0.1" d="M455.71 452.568H371.34V469.787H455.71V452.568Z" fill="black"/>
<g opacity="0.2">
<path opacity="0.2" d="M76.485 100.098C74.4959 100.098 72.5882 99.3079 71.1817 97.9013C69.7752 96.4948 68.985 94.5872 68.985 92.598V63.498C68.985 61.5089 69.7752 59.6013 71.1817 58.1947C72.5882 56.7882 74.4959 55.998 76.485 55.998C78.4741 55.998 80.3818 56.7882 81.7883 58.1947C83.1948 59.6013 83.985 61.5089 83.985 63.498V92.598C83.985 94.5872 83.1948 96.4948 81.7883 97.9013C80.3818 99.3079 78.4741 100.098 76.485 100.098Z" fill="black"/>
<path opacity="0.2" d="M51.092 100.098C49.1029 100.098 47.1952 99.3079 45.7887 97.9013C44.3822 96.4948 43.592 94.5872 43.592 92.598V63.498C43.592 61.5089 44.3822 59.6013 45.7887 58.1947C47.1952 56.7882 49.1029 55.998 51.092 55.998C53.0811 55.998 54.9888 56.7882 56.3953 58.1947C57.8018 59.6013 58.592 61.5089 58.592 63.498V92.598C58.592 94.5872 57.8018 96.4948 56.3953 97.9013C54.9888 99.3079 53.0811 100.098 51.092 100.098Z" fill="black"/>
</g>
<g opacity="0.2">
<path opacity="0.2" d="M435.515 100.098C433.526 100.098 431.618 99.3079 430.212 97.9013C428.805 96.4948 428.015 94.5872 428.015 92.598V63.498C428.015 61.5089 428.805 59.6013 430.212 58.1947C431.618 56.7882 433.526 55.998 435.515 55.998C437.504 55.998 439.412 56.7882 440.818 58.1947C442.225 59.6013 443.015 61.5089 443.015 63.498V92.598C443.015 94.5872 442.225 96.4948 440.818 97.9013C439.412 99.3079 437.504 100.098 435.515 100.098Z" fill="black"/>
<path opacity="0.2" d="M460.908 100.098C458.919 100.098 457.011 99.3079 455.605 97.9013C454.198 96.4948 453.408 94.5872 453.408 92.598V63.498C453.408 61.5089 454.198 59.6013 455.605 58.1947C457.011 56.7882 458.919 55.998 460.908 55.998C462.897 55.998 464.805 56.7882 466.211 58.1947C467.618 59.6013 468.408 61.5089 468.408 63.498V92.598C468.408 94.5872 467.618 96.4948 466.211 97.9013C464.805 99.3079 462.897 100.098 460.908 100.098Z" fill="black"/>
</g>
</svg>
