<svg width="512" height="512" viewBox="0 0 512 512" fill="none" xmlns="http://www.w3.org/2000/svg">
<path d="M369.51 398.706C366.284 395.485 364.232 391.275 363.682 386.749C350.256 277.693 283.382 252.74 229.647 251.014C224.223 250.84 219.091 248.518 215.379 244.56C211.667 240.602 209.679 235.331 209.853 229.908C210.028 224.484 212.349 219.352 216.307 215.64C220.266 211.928 225.536 209.94 230.96 210.114C328.075 213.235 391.251 275.795 404.293 381.746C404.815 385.976 404.002 390.263 401.97 394.009C399.937 397.755 396.785 400.772 392.954 402.64C389.124 404.508 384.805 405.133 380.602 404.427C376.399 403.722 372.521 401.722 369.51 398.706Z" fill="#C1C6CA"/>
<path opacity="0.1" d="M404.293 381.749C397.706 328.239 378.325 285.805 348.25 256.498C346.718 256.454 345.221 256.029 343.895 255.26C342.77 254.608 341.521 254.2 340.228 254.062C338.935 253.925 337.628 254.062 336.391 254.464C335.155 254.865 334.017 255.523 333.051 256.394C332.086 257.265 331.315 258.33 330.789 259.518C329.86 261.616 328.186 263.294 326.091 264.227C323.995 265.16 321.628 265.281 319.448 264.567C318.212 264.163 316.905 264.023 315.612 264.158C314.319 264.292 313.068 264.698 311.942 265.348C310.816 265.998 309.84 266.878 309.077 267.931C308.314 268.983 307.781 270.185 307.514 271.457C307.286 272.539 306.865 273.57 306.272 274.502C333.928 294.002 356.485 328.289 363.681 386.747C364.344 392.133 367.119 397.034 371.396 400.374C375.673 403.713 381.101 405.217 386.487 404.553C391.872 403.89 396.774 401.115 400.113 396.838C403.452 392.561 404.956 387.133 404.293 381.747V381.749Z" fill="black"/>
<path opacity="0.1" d="M286.641 263.336C298.742 253.386 312.151 245.142 326.492 238.836C300.2 221.187 268.061 211.306 230.96 210.117C225.536 209.943 220.266 211.93 216.307 215.642C212.349 219.354 210.028 224.487 209.853 229.91C209.679 235.334 211.667 240.605 215.379 244.563C219.091 248.521 224.223 250.843 229.647 251.017C248 251.606 267.878 254.906 286.641 263.336Z" fill="black"/>
<path d="M390.194 259.277C391.158 258.406 392.295 257.748 393.531 257.345C394.766 256.942 396.073 256.804 397.365 256.94C398.658 257.076 399.907 257.483 401.032 258.134C402.157 258.785 403.132 259.665 403.894 260.718C405.238 262.577 407.225 263.87 409.468 264.347C411.712 264.824 414.053 264.45 416.037 263.299C417.161 262.647 418.411 262.239 419.704 262.101C420.997 261.964 422.304 262.101 423.54 262.502C424.777 262.904 425.915 263.562 426.88 264.433C427.846 265.304 428.617 266.369 429.143 267.557C430.071 269.655 431.746 271.333 433.841 272.266C435.937 273.199 438.304 273.32 440.484 272.606C441.72 272.202 443.026 272.063 444.32 272.197C445.613 272.332 446.863 272.737 447.989 273.387C449.115 274.037 450.091 274.917 450.854 275.97C451.617 277.022 452.15 278.224 452.418 279.496C452.889 281.741 454.178 283.731 456.034 285.08C457.889 286.429 460.18 287.041 462.461 286.796C463.754 286.658 465.061 286.793 466.298 287.193C467.535 287.594 468.674 288.251 469.64 289.12C470.606 289.99 471.378 291.054 471.906 292.243C472.433 293.431 472.705 294.717 472.702 296.017C472.697 298.311 473.544 300.524 475.079 302.229C476.614 303.933 478.726 305.007 481.008 305.242C482.301 305.375 483.552 305.78 484.679 306.429C485.805 307.077 486.783 307.957 487.547 309.008C488.311 310.06 488.845 311.261 489.114 312.534C489.383 313.806 489.381 315.12 489.108 316.391C488.626 318.634 488.995 320.975 490.141 322.962C491.288 324.948 493.132 326.438 495.315 327.142C496.552 327.541 497.692 328.197 498.659 329.066C499.626 329.935 500.399 330.998 500.928 332.186C501.457 333.373 501.729 334.659 501.728 335.959C501.727 337.259 501.451 338.545 500.92 339.731C499.982 341.825 499.856 344.192 500.565 346.373C501.273 348.554 502.767 350.395 504.756 351.537C505.883 352.185 506.862 353.063 507.627 354.114C508.392 355.165 508.928 356.366 509.198 357.638C509.468 358.91 509.468 360.224 509.196 361.496C508.924 362.767 508.387 363.967 507.621 365.017C506.269 366.87 505.653 369.16 505.894 371.441C506.134 373.722 507.213 375.833 508.921 377.363C509.889 378.231 510.663 379.294 511.193 380.481C511.723 381.668 511.997 382.954 511.997 384.254C511.997 385.554 511.723 386.84 511.193 388.027C510.663 389.214 509.889 390.276 508.921 391.144C507.213 392.675 506.134 394.786 505.894 397.067C505.653 399.348 506.269 401.637 507.621 403.49C508.387 404.54 508.924 405.74 509.196 407.012C509.468 408.283 509.468 409.598 509.198 410.87C508.928 412.141 508.392 413.342 507.627 414.393C506.862 415.444 505.883 416.322 504.756 416.969C502.767 418.112 501.273 419.952 500.565 422.134C499.856 424.315 499.982 426.682 500.92 428.775C501.451 429.962 501.727 431.247 501.728 432.547C501.729 433.848 501.457 435.133 500.928 436.321C500.399 437.509 499.626 438.572 498.659 439.441C497.692 440.31 496.552 440.965 495.315 441.364C493.132 442.069 491.288 443.558 490.141 445.545C488.995 447.531 488.626 449.873 489.108 452.115C489.381 453.387 489.383 454.701 489.114 455.973C488.845 457.245 488.311 458.446 487.547 459.498C486.783 460.55 485.805 461.429 484.679 462.078C483.552 462.727 482.301 463.131 481.008 463.264C478.726 463.499 476.613 464.573 475.079 466.278C473.544 467.982 472.697 470.196 472.702 472.489C472.705 473.79 472.433 475.076 471.906 476.264C471.378 477.452 470.606 478.516 469.64 479.386C468.674 480.256 467.535 480.913 466.298 481.313C465.061 481.714 463.754 481.849 462.461 481.71C460.18 481.466 457.889 482.077 456.033 483.426C454.178 484.775 452.889 486.765 452.418 489.01C452.15 490.283 451.617 491.484 450.854 492.537C450.091 493.589 449.115 494.469 447.989 495.12C446.863 495.77 445.613 496.175 444.32 496.31C443.026 496.444 441.72 496.305 440.484 495.9C438.304 495.187 435.937 495.309 433.841 496.241C431.746 497.174 430.072 498.852 429.143 500.949C428.617 502.138 427.846 503.203 426.88 504.074C425.915 504.945 424.777 505.603 423.54 506.004C422.304 506.406 420.997 506.543 419.704 506.405C418.411 506.268 417.161 505.86 416.037 505.207C414.053 504.056 411.712 503.683 409.468 504.16C407.225 504.637 405.238 505.93 403.894 507.788C403.132 508.841 402.157 509.722 401.032 510.372C399.907 511.023 398.658 511.43 397.365 511.566C396.073 511.702 394.766 511.564 393.531 511.161C392.295 510.758 391.158 510.1 390.194 509.228C388.493 507.69 386.281 506.838 383.987 506.838C381.693 506.838 379.481 507.69 377.78 509.228C376.816 510.1 375.679 510.758 374.443 511.161C373.208 511.563 371.901 511.701 370.609 511.565C369.316 511.429 368.067 511.023 366.942 510.372C365.817 509.721 364.842 508.841 364.08 507.788C362.736 505.93 360.749 504.637 358.506 504.16C356.262 503.683 353.922 504.056 351.938 505.207C350.813 505.86 349.564 506.268 348.271 506.405C346.978 506.543 345.671 506.406 344.434 506.004C343.198 505.603 342.06 504.945 341.094 504.074C340.129 503.203 339.358 502.138 338.832 500.949C337.903 498.852 336.229 497.174 334.134 496.241C332.038 495.308 329.671 495.187 327.491 495.9C326.255 496.305 324.948 496.444 323.655 496.31C322.362 496.175 321.112 495.77 319.986 495.12C318.86 494.469 317.883 493.589 317.12 492.537C316.357 491.484 315.825 490.283 315.557 489.01C315.085 486.765 313.797 484.775 311.941 483.426C310.085 482.078 307.795 481.466 305.514 481.71C304.221 481.849 302.914 481.714 301.677 481.313C300.44 480.913 299.301 480.256 298.335 479.386C297.369 478.516 296.596 477.452 296.069 476.264C295.541 475.076 295.27 473.79 295.273 472.489C295.278 470.196 294.431 467.982 292.896 466.278C291.361 464.573 289.248 463.499 286.967 463.264C285.674 463.131 284.423 462.727 283.296 462.078C282.169 461.429 281.192 460.55 280.428 459.498C279.663 458.446 279.13 457.245 278.861 455.973C278.592 454.701 278.594 453.387 278.867 452.115C279.348 449.873 278.98 447.531 277.833 445.545C276.686 443.558 274.843 442.069 272.66 441.364C271.422 440.965 270.283 440.31 269.316 439.441C268.349 438.572 267.576 437.509 267.047 436.321C266.518 435.133 266.245 433.848 266.247 432.547C266.248 431.247 266.524 429.962 267.055 428.775C267.992 426.682 268.119 424.315 267.41 422.134C266.701 419.952 265.208 418.112 263.219 416.969C262.091 416.322 261.113 415.444 260.348 414.393C259.582 413.342 259.047 412.141 258.777 410.87C258.506 409.598 258.507 408.283 258.779 407.012C259.051 405.74 259.587 404.54 260.354 403.49C261.706 401.637 262.321 399.348 262.081 397.067C261.841 394.786 260.762 392.675 259.054 391.144C258.086 390.276 257.312 389.214 256.782 388.027C256.251 386.84 255.978 385.554 255.978 384.254C255.978 382.954 256.251 381.668 256.782 380.481C257.312 379.294 258.086 378.231 259.054 377.363C260.762 375.833 261.841 373.722 262.082 371.441C262.322 369.159 261.706 366.87 260.354 365.017C259.587 363.967 259.051 362.767 258.779 361.496C258.508 360.224 258.507 358.91 258.777 357.638C259.048 356.366 259.583 355.165 260.348 354.114C261.113 353.063 262.092 352.185 263.219 351.537C265.208 350.395 266.701 348.554 267.41 346.373C268.119 344.192 267.992 341.825 267.055 339.731C266.524 338.545 266.248 337.259 266.247 335.959C266.245 334.659 266.518 333.373 267.047 332.186C267.576 330.998 268.349 329.935 269.316 329.066C270.283 328.197 271.422 327.541 272.66 327.142C274.843 326.438 276.686 324.948 277.833 322.962C278.98 320.975 279.348 318.634 278.867 316.391C278.594 315.12 278.592 313.806 278.861 312.534C279.13 311.262 279.664 310.061 280.428 309.009C281.192 307.957 282.17 307.078 283.296 306.429C284.423 305.78 285.674 305.376 286.967 305.242C289.248 305.007 291.361 303.934 292.896 302.229C294.431 300.525 295.278 298.311 295.273 296.017C295.27 294.717 295.541 293.431 296.069 292.243C296.596 291.054 297.369 289.99 298.335 289.12C299.301 288.251 300.44 287.594 301.677 287.193C302.914 286.793 304.221 286.658 305.514 286.796C307.795 287.041 310.086 286.429 311.941 285.081C313.797 283.732 315.086 281.742 315.557 279.496C315.825 278.224 316.357 277.022 317.12 275.97C317.883 274.917 318.86 274.037 319.986 273.387C321.112 272.737 322.362 272.332 323.655 272.197C324.948 272.063 326.255 272.202 327.491 272.606C329.671 273.32 332.038 273.198 334.133 272.265C336.229 271.332 337.903 269.655 338.832 267.557C339.358 266.369 340.129 265.304 341.094 264.433C342.06 263.562 343.198 262.904 344.434 262.502C345.671 262.101 346.978 261.964 348.271 262.101C349.564 262.239 350.813 262.647 351.938 263.299C353.922 264.45 356.262 264.824 358.506 264.347C360.749 263.87 362.736 262.577 364.08 260.718C364.842 259.666 365.817 258.785 366.942 258.134C368.067 257.483 369.316 257.077 370.608 256.941C371.901 256.805 373.207 256.943 374.443 257.345C375.679 257.748 376.816 258.406 377.78 259.277C379.481 260.816 381.693 261.668 383.987 261.668C386.281 261.668 388.493 260.816 390.194 259.277Z" fill="#D6D8DB"/>
<path d="M383.99 425.84C406.962 425.84 425.584 407.218 425.584 384.246C425.584 361.275 406.962 342.652 383.99 342.652C361.018 342.652 342.396 361.275 342.396 384.246C342.396 407.218 361.018 425.84 383.99 425.84Z" fill="white"/>
<path d="M383.99 391.738C388.128 391.738 391.482 388.384 391.482 384.246C391.482 380.108 388.128 376.754 383.99 376.754C379.852 376.754 376.498 380.108 376.498 384.246C376.498 388.384 379.852 391.738 383.99 391.738Z" fill="#C1C6CA"/>
<path d="M422.9 186.863C423.383 171.873 411.269 159.528 396.293 158.717C362.708 156.904 329.142 162.609 298.042 175.417C290.403 178.526 282.015 179.306 273.934 177.661C265.852 176.015 258.437 172.017 252.622 166.169L111.23 24.7819C101.125 14.6775 87.42 9.00098 73.1299 9.00098C58.8397 9.00098 45.1348 14.6775 35.0299 24.7819L16.9849 42.8259C-11.9331 71.7439 -2.60012 120.706 34.9269 136.964C52.4825 144.568 68.4439 155.419 81.9719 168.947L165.859 252.834C171.723 258.718 175.714 266.206 177.332 274.354C178.949 282.502 178.12 290.946 174.949 298.624C169.817 311.132 165.828 324.079 163.029 337.306C162.277 340.856 162.241 344.521 162.923 348.085C163.605 351.649 164.992 355.042 167.002 358.063C169.012 361.085 171.605 363.675 174.628 365.682C177.652 367.688 181.046 369.071 184.611 369.75C199.23 372.543 213.381 362.688 216.503 348.135C225.136 308.166 247.775 272.601 280.334 247.863C312.892 223.124 353.222 210.842 394.043 213.235C397.681 213.447 401.324 212.929 404.758 211.71C408.192 210.491 411.347 208.597 414.037 206.139C416.727 203.681 418.897 200.708 420.419 197.398C421.941 194.087 422.785 190.505 422.9 186.863Z" fill="#F8D662"/>
<path opacity="0.1" d="M161.958 75.5059L111.231 24.7809C101.126 14.6765 87.421 9 73.1309 9C58.8407 9 45.1358 14.6765 35.0309 24.7809L16.9849 42.8259C-11.9331 71.7439 -2.60012 120.706 34.9269 136.964C49.5015 143.28 62.9954 151.842 74.9169 162.339C94.5269 154.988 111.135 142.676 126.775 127.039C142.327 111.485 154.593 94.9759 161.958 75.5059Z" fill="black"/>
<path opacity="0.1" d="M203.1 290.282C234.9 238.629 115.406 136.253 58.5119 106.458C26.6099 89.7489 18.5349 63.4909 21.0999 38.7129L16.9849 42.8259C-11.9331 71.7439 -2.60012 120.706 34.9269 136.964C52.4825 144.568 68.4439 155.419 81.9719 168.947L165.859 252.834C171.723 258.718 175.714 266.206 177.332 274.354C178.949 282.502 178.12 290.946 174.949 298.624C169.817 311.132 165.828 324.079 163.029 337.306C162.277 340.856 162.241 344.521 162.923 348.085C163.605 351.649 164.992 355.042 167.002 358.063C169.012 361.085 171.605 363.675 174.628 365.681C177.652 367.688 181.046 369.071 184.611 369.75C191.598 371.066 198.822 369.556 204.696 365.55C175.013 365.933 186.173 317.782 203.1 290.282Z" fill="black"/>
<path opacity="0.1" d="M356.044 264.533C354.595 264.451 353.186 264.028 351.932 263.299C350.807 262.646 349.558 262.238 348.265 262.101C346.972 261.963 345.665 262.1 344.428 262.502C343.192 262.903 342.054 263.561 341.088 264.432C340.123 265.303 339.352 266.368 338.826 267.557C337.897 269.654 336.223 271.332 334.128 272.265C332.032 273.198 329.665 273.319 327.485 272.606C326.249 272.201 324.942 272.062 323.649 272.196C322.356 272.331 321.106 272.736 319.98 273.386C318.854 274.036 317.877 274.916 317.114 275.969C316.351 277.022 315.819 278.223 315.551 279.496C315.08 281.741 313.791 283.731 311.935 285.08C310.08 286.429 307.789 287.04 305.508 286.796C304.215 286.657 302.908 286.792 301.671 287.193C300.434 287.593 299.295 288.25 298.329 289.12C297.363 289.99 296.59 291.054 296.063 292.242C295.535 293.43 295.264 294.716 295.267 296.017C295.272 298.31 294.424 300.524 292.89 302.228C291.355 303.932 289.242 305.006 286.961 305.242C285.668 305.375 284.417 305.779 283.29 306.428C282.163 307.077 281.186 307.956 280.422 309.008C279.658 310.06 279.124 311.261 278.855 312.533C278.586 313.805 278.588 315.119 278.861 316.391C279.342 318.633 278.974 320.975 277.827 322.961C276.68 324.948 274.837 326.437 272.654 327.142C271.416 327.541 270.277 328.196 269.31 329.065C268.343 329.934 267.57 330.997 267.041 332.185C266.512 333.372 266.239 334.658 266.241 335.959C266.242 337.259 266.518 338.544 267.049 339.731C267.986 341.824 268.113 344.191 267.404 346.372C266.695 348.554 265.202 350.394 263.213 351.537C262.085 352.184 261.107 353.062 260.342 354.113C259.576 355.164 259.041 356.365 258.771 357.637C258.5 358.909 258.501 360.223 258.773 361.495C259.045 362.766 259.581 363.966 260.348 365.017C261.7 366.87 262.315 369.159 262.075 371.44C261.835 373.721 260.756 375.832 259.048 377.363C258.08 378.231 257.306 379.293 256.776 380.48C256.245 381.667 255.972 382.953 255.972 384.253C255.972 385.553 256.245 386.839 256.776 388.026C257.306 389.213 258.08 390.276 259.048 391.144C260.756 392.674 261.835 394.785 262.076 397.066C262.316 399.347 261.7 401.637 260.348 403.49C259.581 404.54 259.045 405.74 258.773 407.011C258.501 408.283 258.5 409.597 258.771 410.869C259.041 412.141 259.576 413.341 260.342 414.392C261.107 415.443 262.085 416.321 263.213 416.969C265.202 418.111 266.695 419.952 267.404 422.133C268.113 424.314 267.986 426.681 267.049 428.775C266.518 429.961 266.242 431.246 266.241 432.547C266.239 433.847 266.512 435.133 267.041 436.32C267.57 437.508 268.343 438.571 269.31 439.44C270.277 440.309 271.416 440.964 272.654 441.364C274.837 442.068 276.68 443.557 277.827 445.543C278.974 447.53 279.342 449.871 278.861 452.114C278.588 453.385 278.586 454.699 278.855 455.971C279.124 457.243 279.658 458.445 280.422 459.496C281.186 460.548 282.163 461.427 283.29 462.076C284.417 462.725 285.668 463.129 286.961 463.263C289.242 463.497 291.356 464.571 292.89 466.276C294.425 467.98 295.272 470.194 295.267 472.488C295.264 473.788 295.535 475.074 296.063 476.262C296.59 477.451 297.363 478.514 298.329 479.384C299.295 480.254 300.434 480.911 301.671 481.311C302.908 481.712 304.215 481.847 305.508 481.709C307.789 481.464 310.08 482.076 311.935 483.424C313.791 484.773 315.08 486.763 315.551 489.009C315.819 490.281 316.351 491.482 317.114 492.535C317.877 493.588 318.854 494.468 319.98 495.118C321.106 495.768 322.356 496.173 323.649 496.308C324.942 496.442 326.249 496.303 327.485 495.899C329.665 495.185 332.032 495.307 334.127 496.24C336.223 497.173 337.897 498.85 338.826 500.948C339.352 502.136 340.123 503.201 341.088 504.072C342.054 504.943 343.192 505.601 344.428 506.003C345.665 506.404 346.972 506.541 348.265 506.404C349.558 506.267 350.807 505.859 351.932 505.207C353.916 504.056 356.256 503.682 358.5 504.159C360.743 504.636 362.73 505.929 364.074 507.788C364.836 508.84 365.811 509.721 366.936 510.372C368.061 511.023 369.31 511.429 370.603 511.565C371.895 511.701 373.202 511.563 374.437 511.16C375.673 510.757 376.81 510.099 377.774 509.228C379.475 507.689 381.687 506.837 383.981 506.837C386.275 506.837 388.487 507.689 390.188 509.228C391.152 510.099 392.289 510.757 393.525 511.16C394.76 511.562 396.067 511.7 397.359 511.564C398.652 511.429 399.901 511.022 401.026 510.371C402.151 509.721 403.126 508.84 403.888 507.788C405.232 505.929 407.218 504.636 409.462 504.159C411.705 503.682 414.046 504.056 416.03 505.207C417.155 505.859 418.404 506.267 419.697 506.404C420.99 506.542 422.297 506.405 423.534 506.003C424.77 505.601 425.908 504.943 426.874 504.072C427.839 503.201 428.61 502.137 429.136 500.948C430.064 498.85 431.739 497.172 433.834 496.239C435.93 495.306 438.297 495.185 440.477 495.899C441.713 496.303 443.02 496.442 444.313 496.308C445.606 496.173 446.856 495.768 447.982 495.118C449.108 494.468 450.084 493.588 450.847 492.535C451.611 491.482 452.143 490.281 452.411 489.009C452.882 486.763 454.171 484.774 456.027 483.425C457.882 482.076 460.173 481.464 462.454 481.709C464.22 481.899 466.003 481.576 467.591 480.78C469.178 479.984 470.503 478.747 471.407 477.219C288.89 526.358 247.229 333.848 356.044 264.533Z" fill="black"/>
<path opacity="0.1" d="M368.872 257.295C367.837 257.611 366.865 258.107 366.002 258.76C366.949 258.262 367.906 257.774 368.872 257.295Z" fill="black"/>
</svg>
