<svg width="512" height="512" viewBox="0 0 512 512" fill="none" xmlns="http://www.w3.org/2000/svg">
<path d="M294.5 69.998H218.5C215.32 70.0073 212.273 71.2745 210.025 73.523C207.776 75.7714 206.509 78.8183 206.5 81.998V127.998H306.5V81.998C306.491 78.8183 305.224 75.7714 302.975 73.523C300.727 71.2745 297.68 70.0073 294.5 69.998Z" fill="#BA8E79"/>
<path d="M256.5 108.804C231.172 108.777 206.125 114.108 183.004 124.449C159.884 134.79 139.213 149.906 122.349 168.804L256.5 183.804L390.651 168.804C373.783 149.912 353.111 134.8 329.991 124.46C306.871 114.119 281.827 108.784 256.5 108.804Z" fill="#B9F0FF"/>
<path d="M233.761 137.098C252.051 125.386 272.319 117.1 293.576 112.645C262.617 106.149 230.494 107.92 200.436 117.778C170.379 127.637 143.447 145.236 122.349 168.806H226.922C220.628 158.867 222.194 144.499 233.761 137.098Z" fill="#7CE3FF"/>
<path d="M479.557 232.146H33.443C26.6975 232.153 20.2304 234.836 15.4606 239.606C10.6908 244.376 8.0077 250.843 8.00003 257.589C7.99327 261.172 9.26971 264.64 11.5983 267.364C13.9269 270.088 17.1537 271.888 20.6948 272.439C24.2358 272.989 27.857 272.254 30.9029 270.366C33.9488 268.478 36.2181 265.562 37.3 262.146H475.7C476.782 265.562 479.051 268.478 482.097 270.366C485.143 272.254 488.764 272.989 492.305 272.439C495.846 271.888 499.073 270.088 501.402 267.364C503.73 264.64 505.007 261.172 505 257.589C504.993 250.843 502.31 244.376 497.54 239.606C492.77 234.836 486.303 232.153 479.557 232.146Z" fill="#BA8E79"/>
<path d="M413.606 221.65C411.68 215.056 407.667 209.265 402.171 205.146C396.674 201.027 389.989 198.801 383.12 198.804L256.5 183.804L129.893 198.804C123.021 198.801 116.333 201.028 110.835 205.15C105.336 209.272 101.324 215.067 99.4 221.665C86.883 264.658 63.951 357.452 83.329 404.515C87.88 415.413 95.5622 424.716 105.403 431.246C115.244 437.776 126.802 441.24 138.612 441.198H374.4C386.204 441.238 397.755 437.778 407.593 431.254C417.431 424.731 425.114 415.437 429.671 404.548C449.122 357.438 426.147 264.634 413.606 221.65Z" fill="#FF8E9E"/>
<path d="M183.984 404.515C164.606 357.452 187.539 264.658 200.058 221.665C201.982 215.068 205.994 209.273 211.492 205.15C216.99 201.028 223.677 198.801 230.549 198.804H129.893C123.021 198.801 116.333 201.028 110.835 205.15C105.336 209.272 101.324 215.067 99.4001 221.665C86.8831 264.658 63.9511 357.452 83.3281 404.515C87.8791 415.413 95.5614 424.716 105.402 431.246C115.243 437.776 126.801 441.24 138.611 441.198H239.266C227.456 441.239 215.899 437.776 206.059 431.247C196.218 424.717 188.535 415.415 183.984 404.517V404.515Z" fill="#ED7485"/>
<path d="M395.12 168.804H117.893C113.915 168.804 110.1 170.384 107.286 173.197C104.473 176.01 102.893 179.825 102.893 183.804C102.893 187.782 104.473 191.597 107.286 194.41C110.1 197.223 113.915 198.804 117.893 198.804H395.12C399.098 198.804 402.914 197.223 405.727 194.41C408.54 191.597 410.12 187.782 410.12 183.804C410.12 179.825 408.54 176.01 405.727 173.197C402.914 170.384 399.098 168.804 395.12 168.804Z" fill="#ADC0ED"/>
<path d="M211.5 183.804C211.5 179.825 213.08 176.01 215.893 173.197C218.706 170.384 222.522 168.804 226.5 168.804H117.894C113.916 168.804 110.1 170.384 107.287 173.197C104.474 176.01 102.894 179.825 102.894 183.804C102.894 187.782 104.474 191.597 107.287 194.41C110.1 197.223 113.916 198.804 117.894 198.804H226.5C222.522 198.804 218.706 197.223 215.893 194.41C213.08 191.597 211.5 187.782 211.5 183.804Z" fill="#85A4E4"/>
</svg>
