<svg width="512" height="512" viewBox="0 0 512 512" fill="none" xmlns="http://www.w3.org/2000/svg">
<path d="M479.033 512H120.216C112.818 512 105.724 509.061 100.493 503.83C95.2617 498.599 92.323 491.505 92.323 484.107V27.893C92.323 20.4953 95.2617 13.4006 100.493 8.16967C105.724 2.93872 112.818 0 120.216 0H479.033C486.431 0 493.525 2.93872 498.756 8.16967C503.987 13.4006 506.926 20.4953 506.926 27.893V484.107C506.926 491.505 503.987 498.599 498.756 503.83C493.525 509.061 486.431 512 479.033 512Z" fill="#F18290"/>
<path opacity="0.15" d="M479.033 512H120.216C112.818 512 105.724 509.061 100.493 503.83C95.2617 498.599 92.323 491.505 92.323 484.107V27.893C92.323 20.4953 95.2617 13.4006 100.493 8.16967C105.724 2.93872 112.818 0 120.216 0H479.033C486.431 0 493.525 2.93872 498.756 8.16967C503.987 13.4006 506.926 20.4953 506.926 27.893V484.107C506.926 491.505 503.987 498.599 498.756 503.83C493.525 509.061 486.431 512 479.033 512Z" fill="black"/>
<path d="M454.131 471.212H116.889V40.7881H454.131C455.615 40.7881 457.084 41.0804 458.455 41.6483C459.826 42.2161 461.072 43.0485 462.121 44.0978C463.171 45.1471 464.003 46.3928 464.571 47.7638C465.139 49.1347 465.431 50.6042 465.431 52.0881V459.908C465.431 461.392 465.14 462.862 464.572 464.234C464.004 465.605 463.172 466.851 462.123 467.901C461.073 468.951 459.827 469.783 458.456 470.352C457.085 470.92 455.615 471.212 454.131 471.212Z" fill="#F8D9B9"/>
<path d="M391.71 512H32.893C25.4953 512 18.4006 509.061 13.1697 503.83C7.93872 498.599 5 491.505 5 484.107V27.893C5 20.4953 7.93872 13.4006 13.1697 8.16967C18.4006 2.93872 25.4953 0 32.893 0H391.711C399.109 0 406.203 2.93872 411.434 8.16967C416.665 13.4006 419.604 20.4953 419.604 27.893V484.107C419.604 491.505 416.665 498.599 411.434 503.83C406.203 509.061 399.108 512 391.71 512Z" fill="#F18290"/>
<path d="M62.963 0H32.893C25.4953 0 18.4006 2.93872 13.1697 8.16967C7.93872 13.4006 5 20.4953 5 27.893V484.107C5 491.505 7.93872 498.599 13.1697 503.83C18.4006 509.061 25.4953 512 32.893 512H62.963V0Z" fill="#5D6671"/>
<path d="M305.69 149.029C300.92 148.644 296.119 148.974 291.446 150.008C289.384 150.472 287.232 150.322 285.254 149.577C283.276 148.832 281.56 147.525 280.317 145.816C275.88 139.601 270.023 134.536 263.234 131.041C256.444 127.547 248.919 125.724 241.283 125.724C233.647 125.724 226.121 127.547 219.332 131.041C212.543 134.536 206.686 139.601 202.249 145.816C201.006 147.525 199.29 148.833 197.312 149.578C195.334 150.323 193.182 150.472 191.12 150.008C184.827 148.614 178.318 148.502 171.981 149.679C165.645 150.856 159.61 153.298 154.237 156.858C148.865 160.418 144.264 165.024 140.711 170.401C137.157 175.778 134.723 181.816 133.554 188.154C132.385 194.492 132.504 201.001 133.905 207.292C135.307 213.583 137.961 219.527 141.709 224.77C145.458 230.013 150.224 234.447 155.724 237.807C161.224 241.168 167.344 243.386 173.72 244.33C175.668 244.611 177.451 245.585 178.741 247.072C180.031 248.559 180.743 250.461 180.747 252.43V319.689C180.747 320.708 180.948 321.717 181.338 322.659C181.728 323.6 182.299 324.456 183.02 325.176C183.741 325.897 184.596 326.469 185.538 326.859C186.479 327.249 187.489 327.45 188.508 327.45H294.057C295.076 327.45 296.085 327.249 297.027 326.859C297.968 326.469 298.824 325.897 299.545 325.176C300.265 324.456 300.837 323.6 301.227 322.659C301.617 321.717 301.818 320.708 301.818 319.689V252.43C301.822 250.461 302.534 248.559 303.824 247.072C305.114 245.585 306.896 244.611 308.845 244.33C320.5 242.604 331.114 236.65 338.662 227.603C346.211 218.556 350.167 207.048 349.778 195.272C349.388 183.496 344.679 172.275 336.548 163.747C328.418 155.219 317.434 149.981 305.69 149.03V149.029Z" fill="white"/>
<path d="M301.823 286.96H180.753V301.96H301.823V286.96Z" fill="#D6D8DB"/>
<path d="M351.403 79.224L325.949 67.414C324.342 66.668 322.591 66.2815 320.819 66.2815C319.046 66.2815 317.296 66.668 315.688 67.414L290.234 79.224C288.853 79.865 287.332 80.1477 285.812 80.046C284.293 79.9442 282.823 79.4613 281.54 78.6418C280.256 77.8223 279.199 76.6926 278.467 75.357C277.736 74.0214 277.352 72.523 277.352 71V0H364.285V71C364.285 72.523 363.901 74.0214 363.17 75.357C362.438 76.6926 361.381 77.8223 360.097 78.6418C358.814 79.4613 357.344 79.9442 355.825 80.046C354.305 80.1477 352.785 79.865 351.403 79.224Z" fill="#F8D662"/>
<path opacity="0.1" d="M446.383 40.7881H431.383V471.218H446.383V40.7881Z" fill="black"/>
<path opacity="0.1" d="M32.893 0C25.4953 0 18.4006 2.93872 13.1697 8.16967C7.93872 13.4006 5 20.4953 5 27.893V484.107C5 491.505 7.93872 498.599 13.1697 503.83C18.4006 509.061 25.4953 512 32.893 512H211.263C92.876 445.658 126.241 83.2 130.479 0H32.893Z" fill="black"/>
<path d="M455.135 164.022H419.603V87.4219H455.135C457.84 87.4219 460.519 87.9547 463.018 88.99C465.518 90.0252 467.789 91.5426 469.701 93.4555C471.614 95.3684 473.132 97.6393 474.167 100.139C475.202 102.638 475.735 105.317 475.735 108.022V143.422C475.735 148.885 473.565 154.125 469.701 157.988C465.838 161.852 460.598 164.022 455.135 164.022Z" fill="#7CD9D2"/>
<path opacity="0.15" d="M438.363 87.4229H419.603V164.023H451.956C435.663 140.607 438.65 106.35 438.363 87.4229Z" fill="black"/>
<path d="M455.135 273.585H419.603V196.985H455.135C457.84 196.985 460.519 197.518 463.018 198.553C465.518 199.589 467.789 201.106 469.701 203.019C471.614 204.932 473.132 207.203 474.167 209.702C475.202 212.201 475.735 214.88 475.735 217.585V252.985C475.735 258.449 473.565 263.688 469.701 267.552C465.838 271.415 460.598 273.585 455.135 273.585Z" fill="#C3E9F1"/>
<path d="M455.135 273.585H419.603V196.985H455.135C457.84 196.985 460.519 197.518 463.018 198.553C465.518 199.589 467.789 201.106 469.701 203.019C471.614 204.932 473.132 207.203 474.167 209.702C475.202 212.201 475.735 214.88 475.735 217.585V252.985C475.735 258.449 473.565 263.688 469.701 267.552C465.838 271.415 460.598 273.585 455.135 273.585Z" fill="#C3E9F1"/>
<path opacity="0.15" d="M438.363 196.986H419.603V273.586H451.956C435.663 250.17 438.65 215.913 438.363 196.986Z" fill="black"/>
</svg>
