<svg width="514" height="512" viewBox="0 0 514 512" fill="none" xmlns="http://www.w3.org/2000/svg">
<path d="M437.135 176.044L177.044 436.135C174.325 438.853 170.638 440.379 166.794 440.379C162.949 440.379 159.263 438.853 156.544 436.135L76.8186 356.412C74.1012 353.693 72.5747 350.006 72.5747 346.162C72.5747 342.318 74.1012 338.631 76.8186 335.912L336.91 75.8191C339.629 73.1017 343.315 71.5752 347.16 71.5752C351.004 71.5752 354.691 73.1017 357.41 75.8191L437.133 155.542C439.851 158.261 441.378 161.948 441.379 165.793C441.379 169.637 439.852 173.325 437.135 176.044Z" fill="#F8D9B9"/>
<path opacity="0.1" d="M139.295 273.434L76.8186 335.91C74.1012 338.629 72.5747 342.315 72.5747 346.16C72.5747 350.004 74.1012 353.691 76.8186 356.41L156.542 436.133C159.261 438.85 162.947 440.376 166.792 440.376C170.636 440.376 174.323 438.85 177.042 436.133L296.636 316.543C158.806 383.971 127.112 330.616 139.295 273.434Z" fill="black"/>
<path d="M75.4927 399.423L62.6707 412.245C57.1146 417.803 49.786 421.237 41.9597 421.951C33.4041 422.734 25.25 425.943 18.4559 431.202C11.6618 436.46 6.5102 443.549 3.60679 451.635C0.703376 459.721 0.168835 468.467 2.06601 476.847C3.96319 485.226 8.21321 492.889 14.3164 498.936C20.4196 504.983 28.1223 509.161 36.5188 510.98C44.9154 512.799 53.6567 512.183 61.7152 509.205C69.7736 506.226 76.8142 501.009 82.0091 494.166C87.204 487.323 90.3374 479.139 91.0407 470.577C91.7627 462.879 95.1912 455.686 100.717 450.277L113.533 437.461L75.4927 399.423Z" fill="#F8D9B9"/>
<path opacity="0.1" d="M75.4927 399.423L63.4927 411.423L88.5707 436.501C89.2385 437.171 89.6429 438.06 89.7101 439.004C89.7773 439.948 89.5028 440.884 88.9367 441.643C85.9446 445.624 84.1248 450.362 83.6827 455.323C83.2419 460.716 81.6462 465.952 79.0038 470.674C76.3615 475.397 72.7343 479.496 68.3684 482.693C64.0025 485.89 58.9999 488.111 53.7002 489.204C48.4004 490.298 42.9275 490.239 37.6525 489.031C32.3776 487.824 27.4241 485.495 23.1282 482.205C18.8323 478.914 15.2944 474.738 12.7545 469.96C10.2147 465.181 8.73231 459.912 8.40796 454.511C8.08361 449.109 8.92489 443.701 10.8747 438.653C6.46426 444.152 3.4038 450.609 1.93873 457.504C0.473673 464.4 0.64478 471.543 2.43834 478.36C4.23189 485.178 7.59799 491.48 12.2667 496.762C16.9354 502.044 22.7769 506.159 29.3226 508.776C35.8683 511.393 42.9362 512.44 49.9595 511.832C56.9829 511.225 63.7662 508.98 69.7655 505.279C75.7648 501.577 80.8133 496.521 84.506 490.516C88.1988 484.511 90.4331 477.724 91.0297 470.7C91.7489 462.962 95.1796 455.727 100.716 450.274L108.89 442.1L113.531 437.459L75.4927 399.423Z" fill="black"/>
<path d="M139.37 448.473L154.125 433.718L79.2366 358.83L64.4816 373.585C62.5156 375.551 61.4111 378.218 61.4111 380.999C61.4111 383.779 62.5156 386.446 64.4816 388.412L124.543 448.473C126.509 450.439 129.176 451.543 131.956 451.543C134.736 451.543 137.403 450.439 139.37 448.473Z" fill="#BA8E79"/>
<path opacity="0.1" d="M79.2349 358.822L69.3608 368.696L144.25 443.585L154.124 433.711L79.2349 358.822Z" fill="black"/>
<path d="M400.423 74.4927L413.245 61.6707C418.803 56.1146 422.237 48.786 422.951 40.9597C423.734 32.4041 426.943 24.25 432.202 17.4559C437.46 10.6618 444.549 5.5102 452.635 2.60679C460.721 -0.296624 469.467 -0.831165 477.847 1.06601C486.226 2.96319 493.889 7.21321 499.936 13.3164C505.983 19.4196 510.161 27.1223 511.98 35.5188C513.799 43.9154 513.183 52.6567 510.205 60.7152C507.226 68.7736 502.009 75.8142 495.166 81.0091C488.323 86.204 480.139 89.3374 471.577 90.0407C463.879 90.7627 456.686 94.1912 451.277 99.7167L438.461 112.533L400.423 74.4927Z" fill="#F8D9B9"/>
<path opacity="0.1" d="M501.432 75.2413C445.787 95.3573 424.487 55.7723 425.6 29.3203C424.205 33.0656 423.314 36.9795 422.95 40.9593C422.237 48.7858 418.802 56.1146 413.244 61.6703L400.422 74.4923L438.461 112.53L451.276 99.7153C456.685 94.1898 463.878 90.7613 471.576 90.0393C482.233 89.1801 492.235 84.5488 499.785 76.9773C500.352 76.4093 500.901 75.8306 501.432 75.2413Z" fill="black"/>
<path d="M449.473 138.37L434.718 153.125L359.83 78.2366L374.585 63.4816C376.551 61.5156 379.218 60.4111 381.998 60.4111C384.779 60.4111 387.445 61.5156 389.412 63.4816L449.473 123.543C451.438 125.509 452.542 128.176 452.542 130.956C452.542 133.736 451.438 136.403 449.473 138.37Z" fill="#BA8E79"/>
<path opacity="0.1" d="M434.715 153.129L444.589 143.255L369.7 68.3659L359.826 78.24L434.715 153.129Z" fill="black"/>
<path opacity="0.1" d="M384.734 103.143L374.027 92.4346C359.454 112.013 335.027 127.708 301.107 139.235C288.753 143.385 276.153 146.762 263.381 149.348L244.934 167.8C265.655 164.845 286.07 160.04 305.934 153.442C341.831 141.238 368.219 124.375 384.734 103.143ZM199.927 335.609C167.336 367.768 176.346 403.794 181.727 425.319C182.139 426.967 182.554 428.629 182.937 430.24L195.328 417.848C190.347 397.481 185.557 370.861 210.46 346.287C231.46 325.562 258.849 326.487 285.46 327.711L299.9 313.272C295.832 313.172 291.671 312.982 287.454 312.786C258.621 311.454 225.943 309.939 199.927 335.609ZM223.506 280.1C177.583 294 151.106 327.925 136.985 353.941C129.206 368.174 123.341 383.372 119.542 399.141L132.341 411.941C136.099 385.64 160.3 314.9 227.85 294.456C250.059 287.735 273.267 286.623 295.712 285.547C307.088 285.001 318.584 284.447 330.022 283.158L348.116 265.065C331.151 268.822 313.333 269.685 294.993 270.565C271.639 271.683 247.488 272.841 223.506 280.1ZM418.233 136.641C402.674 156.271 381.077 171.757 353.441 183.098C304.39 203.16 249.132 204.798 212.354 200.375L199.1 213.633C214.851 216.182 230.786 217.423 246.742 217.344C281.92 217.344 322.779 211.844 359.122 196.983C382.596 187.383 402.493 174.596 418.259 158.983C422 155.271 425.538 151.361 428.859 147.269L418.233 136.641Z" fill="black"/>
</svg>
