<svg width="512" height="512" viewBox="0 0 512 512" fill="none" xmlns="http://www.w3.org/2000/svg">
<path d="M159.822 248.25C225.889 248.25 279.447 194.692 279.447 128.625C279.447 62.5579 225.889 9 159.822 9C93.7547 9 40.1968 62.5579 40.1968 128.625C40.1968 194.692 93.7547 248.25 159.822 248.25Z" fill="#D8D7DA"/>
<path d="M210.993 20.4824C183.041 48.2304 154.406 96.4174 147.407 179.249C147.797 179.249 147.813 212.782 147.723 247.642C151.743 248.047 155.782 248.249 159.823 248.248C186.992 248.244 213.351 238.992 234.562 222.015C255.774 205.037 270.575 181.346 276.53 154.837C282.486 128.329 279.241 100.582 267.329 76.1635C255.418 51.7446 235.549 32.1073 210.993 20.4824Z" fill="#ACABB1"/>
<path d="M276.457 149.362H43.1797L1.00768 417.703C-0.823534 429.355 -0.108682 441.265 3.10305 452.614C6.31478 463.963 11.9471 474.482 19.6126 483.446C27.278 492.41 36.7945 499.607 47.5074 504.542C58.2202 509.477 69.8749 512.032 81.6697 512.032H237.97C249.764 512.032 261.419 509.477 272.132 504.542C282.845 499.607 292.361 492.41 300.027 483.446C307.692 474.482 313.325 463.963 316.536 452.614C319.748 441.265 320.463 429.355 318.632 417.703L276.457 149.362Z" fill="#BDEBFF"/>
<path d="M276.457 149.362H96.3999V184.803C96.3999 184.803 162.488 200.143 147.408 301.231C134.878 385.225 93.3959 456.014 128.208 512.031H237.967C249.762 512.031 261.416 509.476 272.129 504.541C282.842 499.606 292.359 492.409 300.024 483.445C307.689 474.481 313.322 463.962 316.534 452.613C319.745 441.264 320.46 429.354 318.629 417.702L276.457 149.362Z" fill="#92D8FF"/>
<path d="M277.132 184.802H42.4994C33.4189 184.774 24.7182 181.155 18.2976 174.734C11.8769 168.312 8.25809 159.611 8.23145 150.531C8.25809 141.45 11.8769 132.749 18.2976 126.328C24.7182 119.907 33.4189 116.287 42.4994 116.26H277.129C286.21 116.287 294.912 119.906 301.333 126.327C307.754 132.749 311.373 141.45 311.399 150.531C311.373 159.611 307.754 168.312 301.334 174.733C294.913 181.154 286.213 184.774 277.132 184.802Z" fill="#FF737D"/>
<path d="M311.4 150.531C311.373 141.45 307.754 132.748 301.333 126.327C294.911 119.906 286.21 116.286 277.129 116.26H147.529C138.448 116.286 129.746 119.906 123.325 126.327C116.904 132.748 113.284 141.45 113.258 150.531C113.284 159.612 116.904 168.313 123.325 174.735C129.746 181.156 138.448 184.775 147.529 184.802H277.129C286.21 184.775 294.911 181.156 301.333 174.735C307.754 168.313 311.373 159.612 311.4 150.531Z" fill="#ED5151"/>
<path d="M159.817 9.00589C148.815 8.99745 137.864 10.506 127.273 13.4889C128.354 21.3524 132.246 28.5586 138.228 33.7751C144.211 38.9916 151.88 41.8656 159.817 41.8656C167.755 41.8656 175.424 38.9916 181.406 33.7751C187.389 28.5586 191.281 21.3524 192.361 13.4889C181.771 10.5065 170.82 8.99795 159.817 9.00589Z" fill="#ACABB1"/>
<path d="M48.5806 84.553C55.4373 88.0598 63.3081 89.0463 70.8182 87.3403C78.3284 85.6343 85.0005 81.3441 89.6692 75.2191C94.338 69.0941 96.7066 61.5236 96.3614 53.8299C96.0162 46.1362 92.9791 38.8082 87.7806 33.126C70.2538 46.358 56.6948 64.1463 48.5806 84.553Z" fill="#ACABB1"/>
<path d="M271.056 84.553C262.942 64.1463 249.382 46.3579 231.856 33.126C226.656 38.8079 223.617 46.1362 223.271 53.8306C222.926 61.525 225.294 69.0964 229.963 75.2219C234.632 81.3475 241.305 85.6378 248.816 87.3433C256.327 89.0489 264.199 88.0613 271.056 84.553Z" fill="#898890"/>
<path d="M278.057 424.08L254.915 276.83C254.915 276.83 247.529 229.749 199.958 244.776C197.02 245.715 193.909 245.991 190.852 245.582C187.794 245.173 184.866 244.09 182.278 242.412C175.503 237.988 167.573 235.664 159.482 235.73C151.391 235.796 143.5 238.25 136.799 242.785C134.356 244.408 131.59 245.482 128.693 245.935C125.795 246.388 122.833 246.208 120.012 245.408C70.0668 231.589 64.7208 276.831 64.7208 276.831L41.5808 424.081C40.6462 429.776 40.956 435.607 42.4891 441.172C44.0222 446.736 46.742 451.903 50.4618 456.317C54.4014 460.952 59.3106 464.665 64.8427 467.195C70.3747 469.725 76.3948 471.01 82.4778 470.959H237.157C243.24 471.01 249.261 469.725 254.793 467.195C260.326 464.665 265.236 460.952 269.176 456.317C272.895 451.903 275.615 446.736 277.148 441.171C278.681 435.606 278.991 429.776 278.057 424.08Z" fill="#7C897C"/>
<path d="M254.915 276.83C254.915 276.83 247.529 229.749 199.958 244.775C197.02 245.715 193.909 245.99 190.852 245.582C187.794 245.173 184.866 244.09 182.278 242.411C176.858 238.873 170.678 236.666 164.244 235.968C157.809 235.27 151.3 236.102 145.248 238.396C149.748 254.344 151.339 274.865 147.407 301.23C137.764 365.866 110.985 422.678 115.014 470.962H237.156C243.239 471.013 249.26 469.728 254.793 467.198C260.325 464.667 265.235 460.953 269.175 456.317C272.895 451.903 275.615 446.736 277.148 441.17C278.681 435.605 278.991 429.773 278.056 424.077L254.915 276.83Z" fill="#5D685D"/>
<path d="M352.177 248.25C418.244 248.25 471.802 194.692 471.802 128.625C471.802 62.5579 418.244 9 352.177 9C286.11 9 232.552 62.5579 232.552 128.625C232.552 194.692 286.11 248.25 352.177 248.25Z" fill="#EAEAEA"/>
<path d="M352.182 9.00586C320.456 9.00586 290.03 21.6088 267.597 44.042C245.163 66.4753 232.561 96.9014 232.561 128.627C232.561 160.352 245.163 190.778 267.597 213.212C290.03 235.645 320.456 248.248 352.182 248.248C355.438 248.248 358.661 248.118 361.852 247.858V157.577C323.439 94.7169 339.726 41.5049 358.677 9.18386C356.525 9.06919 354.36 9.00986 352.182 9.00586Z" fill="#D8D7DA"/>
<path d="M468.819 149.362H235.541L193.37 417.705C191.539 429.357 192.254 441.267 195.466 452.616C198.678 463.965 204.31 474.484 211.975 483.448C219.641 492.412 229.157 499.609 239.87 504.544C250.583 509.479 262.238 512.034 274.032 512.034H430.332C442.127 512.034 453.782 509.479 464.495 504.544C475.208 499.609 484.724 492.412 492.39 483.448C500.055 474.484 505.687 463.965 508.899 452.616C512.111 441.267 512.826 429.357 510.994 417.705L468.819 149.362Z" fill="#D7F3FF"/>
<path d="M235.541 149.362L193.37 417.705C191.539 429.357 192.254 441.267 195.466 452.616C198.678 463.965 204.31 474.484 211.975 483.448C219.641 492.412 229.157 499.609 239.87 504.544C250.583 509.479 262.238 512.034 274.032 512.034H303.006C280.447 452.199 296.206 377.188 301.346 307.745C308.821 206.826 369.833 184.804 369.833 184.804V149.363L235.541 149.362Z" fill="#BDEBFF"/>
<path d="M469.5 184.802H234.867C225.786 184.774 217.086 181.154 210.665 174.733C204.245 168.312 200.626 159.611 200.6 150.531C200.626 141.45 204.245 132.748 210.667 126.327C217.088 119.906 225.79 116.286 234.871 116.26H469.5C478.581 116.286 487.282 119.906 493.703 126.327C500.125 132.748 503.744 141.45 503.771 150.531C503.744 159.612 500.124 168.313 493.703 174.734C487.282 181.156 478.581 184.775 469.5 184.802Z" fill="#66CCD1"/>
<path d="M287.924 150.532C287.95 141.45 291.57 132.748 297.993 126.326C304.415 119.905 313.118 116.286 322.2 116.261H234.867C225.786 116.288 217.086 119.908 210.665 126.329C204.245 132.751 200.626 141.451 200.6 150.532C200.626 159.613 204.245 168.314 210.667 174.736C217.088 181.157 225.79 184.776 234.871 184.803H322.2C313.118 184.777 304.415 181.158 297.993 174.737C291.571 168.316 287.951 159.614 287.924 150.532Z" fill="#4BBCBC"/>
<path d="M352.182 9.00589C341.179 8.99745 330.228 10.506 319.638 13.4889C320.719 21.3524 324.61 28.5586 330.593 33.7751C336.575 38.9916 344.244 41.8656 352.182 41.8656C360.119 41.8656 367.788 38.9916 373.771 33.7751C379.753 28.5586 383.645 21.3524 384.726 13.4889C374.135 10.5065 363.184 8.99802 352.182 9.00589Z" fill="#D8D7DA"/>
<path d="M240.945 84.553C247.802 88.0598 255.672 89.0463 263.182 87.3403C270.693 85.6343 277.365 81.3441 282.033 75.2191C286.702 69.0941 289.071 61.5236 288.726 53.8299C288.38 46.1362 285.343 38.8082 280.145 33.126C262.617 46.3568 249.058 64.1455 240.945 84.553Z" fill="#C6C5CA"/>
<path d="M463.418 84.553C455.303 64.1465 441.744 46.3582 424.218 33.126C419.018 38.8079 415.98 46.1362 415.634 53.8306C415.288 61.525 417.656 69.0964 422.326 75.2219C426.995 81.3475 433.668 85.6378 441.179 87.3433C448.69 89.0489 456.561 88.0613 463.418 84.553Z" fill="#D8D7DA"/>
<path d="M470.42 424.08L447.278 276.83C447.278 276.83 439.892 229.749 392.321 244.776C389.383 245.715 386.272 245.991 383.215 245.582C380.157 245.173 377.229 244.09 374.641 242.412C367.866 237.988 359.936 235.664 351.845 235.73C343.754 235.796 335.863 238.25 329.162 242.785C326.719 244.408 323.953 245.482 321.056 245.935C318.158 246.388 315.196 246.208 312.375 245.408C262.43 231.589 257.084 276.831 257.084 276.831L233.944 424.081C233.008 429.777 233.318 435.609 234.851 441.174C236.384 446.74 239.104 451.907 242.824 456.322C246.764 460.957 251.673 464.67 257.205 467.2C262.737 469.73 268.758 471.015 274.841 470.964H429.52C435.604 471.014 441.624 469.729 447.157 467.198C452.689 464.667 457.599 460.953 461.539 456.317C465.258 451.902 467.977 446.736 469.51 441.171C471.043 435.606 471.353 429.776 470.42 424.08Z" fill="white"/>
<path d="M352.182 9.00589C341.179 8.99745 330.228 10.506 319.638 13.4889C320.543 20.0422 323.403 26.1703 327.845 31.0726C332.288 35.9748 338.105 39.4234 344.538 40.9679C348.021 29.8729 352.763 19.2131 358.671 9.19689C356.52 9.08189 354.359 9.00589 352.182 9.00589Z" fill="#C6C5CA"/>
<path d="M301.347 307.744C303.216 282.517 308.431 262.217 315.2 245.96C314.246 245.84 313.302 245.656 312.374 245.408C262.429 231.588 257.083 276.831 257.083 276.831L233.941 424.081C233.006 429.777 233.315 435.609 234.848 441.174C236.381 446.74 239.101 451.907 242.821 456.322C246.761 460.957 251.67 464.67 257.202 467.2C262.734 469.73 268.755 471.015 274.838 470.964H293.216C286.821 419.764 297.325 362.053 301.347 307.744Z" fill="#DCFFFF"/>
</svg>
