<svg width="512" height="512" viewBox="0 0 512 512" fill="none" xmlns="http://www.w3.org/2000/svg">
<path d="M302.14 109.43H209.86V176.51H302.14V109.43Z" fill="#5D6671"/>
<path opacity="0.1" d="M302.14 109.43H209.86V134.053H302.14V109.43Z" fill="black"/>
<path d="M440.424 109.428H71.5758C55.9985 109.428 40.9209 103.93 28.9994 93.9037C17.078 83.8771 9.07762 69.9649 6.40781 54.618L0.246806 19.2C-0.162352 16.8448 -0.0514904 14.4286 0.571622 12.1207C1.19473 9.81285 2.31502 7.66918 3.85397 5.83993C5.39291 4.01069 7.31328 2.54013 9.48049 1.53133C11.6477 0.522517 14.0093 -0.000134524 16.3998 2.59719e-08L495.6 2.59719e-08C497.99 0.000157096 500.352 0.523023 502.518 1.53196C504.685 2.54089 506.606 4.01149 508.144 5.8407C509.683 7.66991 510.803 9.81347 511.426 12.1212C512.049 14.4289 512.16 16.8449 511.751 19.2L505.59 54.615C502.921 69.9622 494.921 83.875 483 93.9022C471.079 103.929 456.001 109.428 440.424 109.428Z" fill="#C3E9F1"/>
<path d="M495.6 2.59719e-08H16.3998C14.0093 -0.000134524 11.6477 0.522517 9.48049 1.53133C7.31328 2.54013 5.39291 4.01069 3.85397 5.83993C2.31502 7.66918 1.19473 9.81285 0.571622 12.1207C-0.0514904 14.4286 -0.162352 16.8448 0.246806 19.2L2.81381 33.961H509.185L511.753 19.2C512.162 16.8448 512.051 14.4286 511.428 12.1207C510.805 9.81285 509.685 7.66918 508.146 5.83993C506.607 4.01069 504.686 2.54013 502.519 1.53133C500.352 0.522517 497.99 -0.000134524 495.6 2.59719e-08V2.59719e-08Z" fill="#7CD9D2"/>
<path opacity="0.1" d="M0.246806 19.2L6.40781 54.618C9.07744 69.9649 17.0778 83.8773 28.9992 93.904C40.9207 103.931 55.9984 109.428 71.5758 109.428H170.484C132.427 79.579 125.1 29.306 123.732 2.59719e-08H16.3998C14.0093 -0.000134524 11.6477 0.522517 9.48049 1.53133C7.31328 2.54013 5.39291 4.01069 3.85397 5.83993C2.31502 7.66918 1.19473 9.81285 0.571622 12.1207C-0.0514904 14.4286 -0.162352 16.8448 0.246806 19.2Z" fill="black"/>
<path d="M368.935 176.512H143.065C131.7 176.512 120.718 180.613 112.136 188.063C103.554 195.513 97.9488 205.81 96.3516 217.062L58.2926 485.192C57.8188 488.524 58.0664 491.92 59.0187 495.148C59.9711 498.377 61.6059 501.363 63.8125 503.905C66.0191 506.447 68.7461 508.485 71.8088 509.882C74.8715 511.278 78.1985 512.001 81.5646 512H430.435C433.8 512 437.127 511.277 440.189 509.88C443.251 508.483 445.978 506.445 448.184 503.903C450.391 501.361 452.026 498.375 452.978 495.147C453.931 491.919 454.179 488.524 453.707 485.192L415.648 217.062C414.05 205.81 408.446 195.513 399.864 188.063C391.282 180.613 380.299 176.512 368.935 176.512Z" fill="#7CD9D2"/>
<path opacity="0.1" d="M58.2926 485.192C57.8188 488.524 58.0664 491.92 59.0187 495.148C59.9711 498.377 61.6059 501.363 63.8125 503.905C66.0191 506.447 68.7461 508.485 71.8088 509.882C74.8715 511.278 78.1985 512 81.5646 512H430.435C433.8 511.999 437.127 511.276 440.189 509.88C443.251 508.483 445.978 506.445 448.184 503.903C450.391 501.361 452.026 498.375 452.978 495.147C453.931 491.919 454.179 488.524 453.707 485.192L447.9 444.27H64.0996L58.2926 485.192Z" fill="black"/>
<path d="M377.643 352.55C377.643 368.56 374.482 384.413 368.342 399.2C362.202 413.986 353.203 427.415 341.862 438.716C330.521 450.017 317.061 458.968 302.253 465.056C287.444 471.144 271.58 474.248 255.57 474.192C188.341 473.959 134.358 418.459 134.358 351.23V265.43C134.358 254.866 138.555 244.735 146.024 237.266C153.494 229.796 163.624 225.6 174.188 225.6H337.813C348.376 225.6 358.507 229.796 365.977 237.266C373.446 244.735 377.643 254.866 377.643 265.43V352.55Z" fill="#C3E9F1"/>
<path d="M256 444.27C306.655 444.27 347.72 403.206 347.72 352.55C347.72 301.895 306.655 260.83 256 260.83C205.344 260.83 164.28 301.895 164.28 352.55C164.28 403.206 205.344 444.27 256 444.27Z" fill="white"/>
<path d="M256 296.5C254.011 296.5 252.103 295.71 250.697 294.303C249.29 292.897 248.5 290.989 248.5 289V285.117C248.5 283.128 249.29 281.22 250.697 279.814C252.103 278.407 254.011 277.617 256 277.617C257.989 277.617 259.897 278.407 261.303 279.814C262.71 281.22 263.5 283.128 263.5 285.117V289C263.5 290.989 262.71 292.897 261.303 294.303C259.897 295.71 257.989 296.5 256 296.5Z" fill="#5D6671"/>
<path d="M300.939 315.111C299.456 315.11 298.008 314.669 296.775 313.845C295.543 313.021 294.583 311.85 294.016 310.48C293.449 309.111 293.3 307.604 293.589 306.15C293.878 304.696 294.591 303.36 295.639 302.311L298.384 299.565C299.079 298.863 299.906 298.306 300.817 297.925C301.728 297.544 302.706 297.347 303.694 297.345C304.681 297.343 305.66 297.535 306.573 297.912C307.486 298.289 308.315 298.843 309.013 299.541C309.712 300.24 310.266 301.069 310.643 301.982C311.02 302.895 311.213 303.873 311.21 304.861C311.208 305.848 311.011 306.826 310.63 307.737C310.249 308.649 309.692 309.476 308.991 310.171L306.246 312.917C305.549 313.614 304.722 314.167 303.811 314.544C302.9 314.92 301.924 315.113 300.939 315.111Z" fill="#5D6671"/>
<path d="M323.436 360.049H319.554C317.565 360.049 315.657 359.259 314.25 357.852C312.844 356.446 312.054 354.538 312.054 352.549C312.054 350.56 312.844 348.652 314.25 347.246C315.657 345.839 317.565 345.049 319.554 345.049H323.436C325.425 345.049 327.332 345.839 328.739 347.246C330.146 348.652 330.936 350.56 330.936 352.549C330.936 354.538 330.146 356.446 328.739 357.852C327.332 359.259 325.425 360.049 323.436 360.049Z" fill="#5D6671"/>
<path d="M303.684 407.733C302.699 407.734 301.724 407.54 300.814 407.162C299.905 406.785 299.079 406.231 298.384 405.533L295.639 402.788C294.937 402.093 294.38 401.266 293.999 400.354C293.618 399.443 293.421 398.466 293.419 397.478C293.417 396.49 293.61 395.512 293.987 394.599C294.364 393.686 294.917 392.857 295.616 392.158C296.314 391.46 297.144 390.906 298.057 390.53C298.97 390.153 299.948 389.96 300.936 389.962C301.923 389.964 302.901 390.161 303.812 390.542C304.723 390.923 305.55 391.481 306.246 392.182L308.991 394.927C310.038 395.976 310.751 397.312 311.04 398.766C311.329 400.22 311.181 401.727 310.614 403.096C310.046 404.466 309.086 405.637 307.854 406.461C306.622 407.285 305.173 407.726 303.691 407.727L303.684 407.733Z" fill="#5D6671"/>
<path d="M256 427.486C254.011 427.486 252.103 426.695 250.697 425.289C249.29 423.882 248.5 421.975 248.5 419.986V416.101C248.5 414.111 249.29 412.204 250.697 410.797C252.103 409.391 254.011 408.601 256 408.601C257.989 408.601 259.897 409.391 261.303 410.797C262.71 412.204 263.5 414.111 263.5 416.101V419.983C263.5 420.968 263.307 421.943 262.93 422.854C262.553 423.764 262.001 424.591 261.304 425.288C260.608 425.985 259.781 426.537 258.871 426.914C257.961 427.291 256.985 427.486 256 427.486Z" fill="#5D6671"/>
<path d="M208.316 407.733C206.834 407.732 205.385 407.291 204.153 406.467C202.921 405.643 201.96 404.472 201.393 403.103C200.826 401.733 200.678 400.226 200.967 398.772C201.255 397.318 201.969 395.982 203.016 394.933L205.761 392.188C207.173 390.807 209.072 390.037 211.048 390.048C213.023 390.058 214.914 390.848 216.311 392.245C217.708 393.641 218.497 395.533 218.508 397.508C218.518 399.483 217.749 401.383 216.367 402.794L213.622 405.539C212.926 406.237 212.099 406.79 211.188 407.166C210.278 407.543 209.302 407.735 208.316 407.733Z" fill="#5D6671"/>
<path d="M192.447 360.049H188.565C186.576 360.049 184.668 359.259 183.262 357.852C181.855 356.446 181.065 354.538 181.065 352.549C181.065 350.56 181.855 348.652 183.262 347.246C184.668 345.839 186.576 345.049 188.565 345.049H192.447C194.436 345.049 196.344 345.839 197.75 347.246C199.157 348.652 199.947 350.56 199.947 352.549C199.947 354.538 199.157 356.446 197.75 357.852C196.344 359.259 194.436 360.049 192.447 360.049Z" fill="#5D6671"/>
<path d="M211.061 315.111C210.076 315.111 209.101 314.917 208.192 314.54C207.282 314.162 206.456 313.609 205.761 312.911L203.016 310.165C202.315 309.47 201.758 308.643 201.377 307.731C200.996 306.82 200.799 305.843 200.796 304.855C200.794 303.867 200.987 302.889 201.364 301.976C201.741 301.063 202.295 300.234 202.993 299.535C203.692 298.837 204.521 298.283 205.434 297.906C206.347 297.53 207.325 297.337 208.313 297.339C209.301 297.341 210.278 297.538 211.19 297.919C212.101 298.3 212.928 298.858 213.623 299.559L216.368 302.305C217.416 303.354 218.129 304.69 218.418 306.144C218.707 307.598 218.558 309.105 217.991 310.474C217.424 311.844 216.464 313.015 215.231 313.839C213.999 314.663 212.551 315.104 211.068 315.105L211.061 315.111Z" fill="#5D6671"/>
<path d="M256 360.049C254.011 360.049 252.103 359.259 250.697 357.853C249.29 356.446 248.5 354.538 248.5 352.549V318.74C248.5 316.751 249.29 314.843 250.697 313.437C252.103 312.03 254.011 311.24 256 311.24C257.989 311.24 259.897 312.03 261.303 313.437C262.71 314.843 263.5 316.751 263.5 318.74V352.549C263.5 354.538 262.71 356.446 261.303 357.853C259.897 359.259 257.989 360.049 256 360.049Z" fill="#5D6671"/>
<path opacity="0.1" d="M183.664 176.512H143.064C131.699 176.511 120.717 180.613 112.135 188.063C103.553 195.513 97.9483 205.81 96.3516 217.062L58.2936 485.192C57.8197 488.524 58.0674 491.92 59.0196 495.148C59.9719 498.377 61.6066 501.363 63.8131 503.905C66.0197 506.447 68.7465 508.485 71.8091 509.881C74.8717 511.278 78.1986 512 81.5646 512H235.48C182.586 431.013 170.422 302.237 183.664 176.512Z" fill="black"/>
</svg>
