<svg width="513" height="512" viewBox="0 0 513 512" fill="none" xmlns="http://www.w3.org/2000/svg">
<path d="M14.7919 21.7946C10.4187 26.1676 6.94972 31.3591 4.58296 37.0727C2.2162 42.7863 0.998047 48.9102 0.998047 55.0946C0.998047 61.2791 2.2162 67.4029 4.58296 73.1166C6.94972 78.8302 10.4187 84.0217 14.7919 88.3946L112.8 186.395C113.635 187.23 114.626 187.892 115.717 188.344C116.808 188.796 117.978 189.029 119.158 189.029C120.339 189.029 121.509 188.796 122.6 188.344C123.691 187.892 124.682 187.23 125.517 186.395L179.4 132.519C180.235 131.684 180.897 130.692 181.349 129.601C181.801 128.51 182.034 127.341 182.034 126.16C182.034 124.979 181.801 123.81 181.349 122.719C180.897 121.628 180.235 120.637 179.4 119.802L81.3879 21.7946C77.0152 17.4218 71.824 13.9531 66.1107 11.5866C60.3974 9.22 54.2739 8.00195 48.0899 8.00195C41.9059 8.00195 35.7824 9.22 30.0691 11.5866C24.3558 13.9531 19.1646 17.4218 14.7919 21.7946ZM59.1679 66.1676C56.977 68.3586 54.1856 69.8506 51.1467 70.4551C48.1077 71.0596 44.9578 70.7494 42.0952 69.5636C39.2326 68.3779 36.7859 66.37 35.0645 63.7937C33.3431 61.2174 32.4243 58.1886 32.4243 55.0901C32.4243 51.9917 33.3431 48.9628 35.0645 46.3866C36.7859 43.8103 39.2326 41.8023 42.0952 40.6166C44.9578 39.4309 48.1077 39.1207 51.1467 39.7252C54.1856 40.3296 56.977 41.8217 59.1679 44.0126C62.1058 46.9506 63.7563 50.9353 63.7563 55.0901C63.7563 59.245 62.1058 63.2297 59.1679 66.1676Z" fill="#8DB5EA"/>
<path d="M507.415 378.48L376.115 247.18C371.405 242.47 365.337 239.357 358.765 238.278C352.193 237.2 345.448 238.21 339.48 241.168L303.571 258.962C300.768 260.351 297.599 260.825 294.512 260.319C291.425 259.812 288.574 258.35 286.362 256.138L200.49 170.265L163.264 207.495L249.133 293.364C251.345 295.576 252.807 298.427 253.314 301.514C253.82 304.601 253.346 307.769 251.957 310.573L234.163 346.482C231.206 352.449 230.195 359.194 231.274 365.767C232.352 372.339 235.466 378.407 240.175 383.117L354.753 497.695C358.933 501.875 364.497 504.383 370.397 504.747C376.298 505.111 382.128 503.305 386.79 499.671L505.655 406.995C507.785 405.334 509.538 403.239 510.797 400.849C512.057 398.46 512.794 395.83 512.96 393.134C513.127 390.438 512.718 387.737 511.762 385.211C510.806 382.684 509.325 380.39 507.415 378.48ZM375.102 436.48C373.317 438.265 371.198 439.681 368.865 440.647C366.533 441.613 364.033 442.111 361.508 442.111C358.984 442.111 356.484 441.613 354.152 440.647C351.819 439.681 349.7 438.265 347.915 436.48L300.35 388.911C296.745 385.305 294.719 380.416 294.719 375.317C294.719 370.219 296.745 365.329 300.35 361.724C303.955 358.118 308.845 356.093 313.943 356.093C319.042 356.093 323.932 358.118 327.537 361.724L375.1 409.289C378.705 412.894 380.73 417.784 380.73 422.882C380.73 427.981 378.705 432.87 375.1 436.476L375.102 436.48ZM429.476 382.105C427.691 383.89 425.572 385.306 423.239 386.272C420.907 387.238 418.407 387.736 415.882 387.736C413.358 387.736 410.858 387.238 408.526 386.272C406.193 385.306 404.074 383.89 402.289 382.105L354.724 334.54C351.119 330.934 349.093 326.045 349.093 320.946C349.093 315.848 351.119 310.958 354.724 307.353C358.329 303.747 363.219 301.722 368.317 301.722C373.416 301.722 378.306 303.747 381.911 307.353L429.476 354.918C433.08 358.523 435.104 363.412 435.104 368.509C435.104 373.607 433.08 378.495 429.476 382.101V382.105Z" fill="#D6D8DB"/>
<path d="M14.7919 21.7946C10.4187 26.1676 6.94972 31.3591 4.58296 37.0727C2.2162 42.7863 0.998047 48.9102 0.998047 55.0946C0.998047 61.2791 2.2162 67.4029 4.58296 73.1166C6.94972 78.8302 10.4187 84.0217 14.7919 88.3946L42.9699 116.568C62.4529 112.817 78.4159 100.068 85.7439 92.7446C93.0719 85.4216 105.816 69.4536 109.567 49.9706L81.3879 21.7946C77.0152 17.4218 71.824 13.9531 66.1107 11.5866C60.3974 9.22 54.2739 8.00195 48.0899 8.00195C41.9059 8.00195 35.7824 9.22 30.0691 11.5866C24.3558 13.9531 19.1646 17.4218 14.7919 21.7946ZM59.1679 66.1676C56.977 68.3586 54.1856 69.8506 51.1467 70.4551C48.1077 71.0596 44.9578 70.7494 42.0952 69.5636C39.2326 68.3779 36.7859 66.37 35.0645 63.7937C33.3431 61.2174 32.4243 58.1886 32.4243 55.0901C32.4243 51.9917 33.3431 48.9628 35.0645 46.3866C36.7859 43.8103 39.2326 41.8023 42.0952 40.6166C44.9578 39.4309 48.1077 39.1207 51.1467 39.7252C54.1856 40.3296 56.977 41.8217 59.1679 44.0126C62.1058 46.9506 63.7563 50.9353 63.7563 55.0901C63.7563 59.245 62.1058 63.2297 59.1679 66.1676Z" fill="#C3E9F1"/>
<path opacity="0.1" d="M87.9629 161.56C64.5999 138.195 45.4819 101.635 38.1359 67.1841C37.7499 66.8661 37.3739 66.5301 37.0129 66.1691C34.4338 63.5877 32.8369 60.1869 32.4979 56.5538C32.1588 52.9206 33.0989 49.283 35.1559 46.2691C34.2459 32.4391 35.6909 19.5421 40.0419 8.70508C30.4724 10.3473 21.6493 14.9214 14.7919 21.7951C10.4187 26.168 6.94972 31.3595 4.58296 37.0731C2.2162 42.7868 0.998047 48.9106 0.998047 55.0951C0.998047 61.2795 2.2162 67.4034 4.58296 73.117C6.94972 78.8307 10.4187 84.0221 14.7919 88.3951L87.9629 161.56Z" fill="black"/>
<path opacity="0.1" d="M163.27 207.494L182.288 226.512L219.514 189.286L200.496 170.268L163.27 207.494Z" fill="black"/>
<path d="M177.72 134.194L127.194 184.72L153.267 210.794C153.707 211.235 154.229 211.584 154.804 211.822C155.379 212.06 155.995 212.183 156.617 212.183C157.239 212.183 157.855 212.06 158.43 211.822C159.005 211.584 159.527 211.235 159.967 210.794L203.797 166.964C204.237 166.525 204.586 166.002 204.825 165.428C205.063 164.853 205.186 164.237 205.186 163.614C205.186 162.992 205.063 162.376 204.825 161.801C204.586 161.226 204.237 160.704 203.797 160.264L177.72 134.194Z" fill="#F0F1F1"/>
<path opacity="0.1" d="M137.079 194.61L187.601 144.088L177.718 134.205L127.196 184.727L137.079 194.61Z" fill="black"/>
</svg>
