<svg width="512" height="512" viewBox="0 0 512 512" fill="none" xmlns="http://www.w3.org/2000/svg">
<path d="M308.884 43.623H422.363L419.172 25.987C418.411 21.7827 416.198 17.979 412.919 15.2399C409.64 12.5008 405.503 11.0002 401.231 11H330.017C325.744 10.9999 321.607 12.5004 318.328 15.2396C315.049 17.9787 312.835 21.7825 312.075 25.987L308.884 43.623Z" fill="#8DB5EA"/>
<path d="M462.922 460.181H49.0782C43.2153 460.181 37.5925 457.852 33.4469 453.706C29.3012 449.561 26.9722 443.938 26.9722 438.075V65.729C26.9722 59.8662 29.3012 54.2434 33.4469 50.0977C37.5925 45.9521 43.2153 43.623 49.0782 43.623H462.921C468.784 43.623 474.407 45.9521 478.552 50.0977C482.698 54.2434 485.027 59.8662 485.027 65.729V438.075C485.027 440.978 484.456 443.853 483.345 446.535C482.234 449.217 480.606 451.654 478.553 453.706C476.5 455.759 474.064 457.387 471.382 458.498C468.7 459.609 465.825 460.181 462.922 460.181Z" fill="#F0F1F1"/>
<path d="M422.362 220.017H89.6382V376.758C89.6382 381.083 91.3564 385.231 94.415 388.29C97.4735 391.348 101.622 393.067 105.947 393.067H406.054C410.38 393.067 414.528 391.348 417.586 388.29C420.645 385.231 422.363 381.083 422.363 376.758V220.017H422.362Z" fill="#C1C6CA"/>
<path d="M144.151 355.424C142.669 355.423 141.22 354.982 139.988 354.158C138.756 353.334 137.795 352.163 137.228 350.793C136.661 349.424 136.513 347.917 136.801 346.463C137.09 345.009 137.804 343.673 138.851 342.624L174.351 307.124C175.763 305.742 177.662 304.973 179.638 304.984C181.613 304.994 183.504 305.783 184.901 307.18C186.298 308.577 187.087 310.468 187.098 312.443C187.108 314.419 186.339 316.318 184.957 317.73L149.457 353.23C148.761 353.927 147.934 354.48 147.023 354.857C146.113 355.233 145.137 355.426 144.151 355.424Z" fill="white"/>
<path d="M295.4 362.5C293.918 362.499 292.469 362.058 291.237 361.234C290.005 360.41 289.044 359.239 288.477 357.869C287.91 356.499 287.762 354.992 288.05 353.538C288.339 352.084 289.053 350.749 290.1 349.7L373.644 266.156C374.338 265.447 375.165 264.883 376.078 264.496C376.991 264.11 377.972 263.908 378.964 263.902C379.955 263.897 380.938 264.089 381.855 264.466C382.772 264.843 383.606 265.398 384.307 266.099C385.008 266.8 385.563 267.634 385.94 268.551C386.317 269.468 386.509 270.451 386.504 271.442C386.498 272.434 386.296 273.415 385.91 274.328C385.523 275.241 384.959 276.068 384.25 276.762L300.7 360.305C300.005 361.002 299.179 361.554 298.269 361.931C297.36 362.308 296.385 362.501 295.4 362.5Z" fill="white"/>
<path opacity="0.1" d="M168.153 43.623H49.0782C43.2153 43.623 37.5925 45.9521 33.4469 50.0977C29.3012 54.2434 26.9722 59.8662 26.9722 65.729V438.075C26.9722 443.938 29.3012 449.561 33.4469 453.706C37.5925 457.852 43.2153 460.181 49.0782 460.181H245.213C134.021 373.853 149.177 94.98 168.153 43.623Z" fill="black"/>
<path d="M492.123 144.174H19.877C14.6057 144.174 9.55024 142.081 5.82261 138.354C2.09497 134.626 0.000530409 129.571 0 124.3L0 63.5C0.000265208 58.2285 2.09456 53.173 5.82219 49.4455C9.54982 45.7181 14.6055 43.624 19.877 43.624H492.122C494.732 43.6238 497.317 44.1377 499.729 45.1364C502.141 46.1352 504.332 47.5992 506.178 49.4449C508.024 51.2905 509.488 53.4817 510.487 55.8933C511.486 58.3049 512 60.8897 512 63.5V124.3C511.999 129.571 509.905 134.626 506.177 138.354C502.45 142.081 497.394 144.174 492.123 144.174Z" fill="#C3E9F1"/>
<path opacity="0.05" d="M161.385 43.623H19.877C14.6054 43.6233 9.54973 45.7176 5.82213 49.4452C2.09453 53.1728 0.000265192 58.2284 0 63.5L0 124.3C0 129.572 2.09418 134.628 5.82184 138.355C9.5495 142.083 14.6053 144.177 19.877 144.177H162.814C151.583 110.394 150.634 79.656 161.385 43.623Z" fill="black"/>
<path opacity="0.1" d="M419.592 199.258H92.4082C88.6439 199.257 84.9652 200.381 81.8436 202.485C78.722 204.589 76.2997 207.577 74.8872 211.066L67.9002 228.318C67.3436 229.693 67.1331 231.183 67.2874 232.659C67.4416 234.134 67.9558 235.549 68.7848 236.779C69.6138 238.009 70.7322 239.017 72.0417 239.713C73.3512 240.41 74.8118 240.775 76.2952 240.775H435.7C437.184 240.775 438.644 240.41 439.954 239.713C441.263 239.017 442.382 238.009 443.211 236.779C444.04 235.549 444.554 234.134 444.708 232.659C444.862 231.183 444.652 229.693 444.095 228.318L437.109 211.066C435.697 207.577 433.275 204.59 430.154 202.486C427.034 200.382 423.356 199.258 419.592 199.258Z" fill="black"/>
<path d="M419.592 178.5H92.4082C88.6439 178.5 84.9652 179.623 81.8436 181.727C78.722 183.831 76.2997 186.819 74.8872 190.308L67.9002 207.56C67.3436 208.935 67.1331 210.426 67.2874 211.901C67.4416 213.376 67.9558 214.791 68.7848 216.021C69.6138 217.251 70.7322 218.259 72.0417 218.956C73.3512 219.652 74.8118 220.017 76.2952 220.017H435.7C437.184 220.018 438.645 219.654 439.956 218.958C441.266 218.262 442.385 217.254 443.215 216.024C444.044 214.793 444.559 213.378 444.713 211.902C444.868 210.426 444.657 208.935 444.1 207.56L437.114 190.308C435.702 186.819 433.279 183.831 430.157 181.727C427.036 179.623 423.357 178.499 419.592 178.5Z" fill="#8DB5EA"/>
<path d="M203.116 43.623H89.6382L92.8292 25.987C93.5898 21.7827 95.8028 17.979 99.0818 15.2399C102.361 12.5008 106.498 11.0002 110.77 11H181.984C186.257 10.9998 190.394 12.5002 193.673 15.2394C196.952 17.9786 199.165 21.7825 199.925 25.987L203.116 43.623Z" fill="#8DB5EA"/>
<path d="M109.5 502.6H76.714C74.8941 502.6 73.0921 502.241 71.4107 501.545C69.7294 500.848 68.2017 499.828 66.9149 498.541C65.628 497.254 64.6073 495.726 63.9108 494.045C63.2144 492.364 62.856 490.561 62.856 488.742V460.181H123.356V488.744C123.355 492.418 121.895 495.942 119.297 498.541C116.699 501.139 113.175 502.599 109.5 502.6Z" fill="#8DB5EA"/>
<path opacity="0.1" d="M123.356 460.181H62.856V479.311H123.356V460.181Z" fill="black"/>
<path d="M402.5 502.6H435.284C437.104 502.6 438.906 502.241 440.587 501.545C442.269 500.848 443.796 499.828 445.083 498.541C446.37 497.254 447.391 495.726 448.087 494.045C448.784 492.364 449.142 490.561 449.142 488.742V460.181H388.642V488.744C388.643 492.419 390.103 495.943 392.702 498.541C395.301 501.14 398.825 502.6 402.5 502.6Z" fill="#8DB5EA"/>
<path opacity="0.1" d="M449.14 460.181H388.64V479.311H449.14V460.181Z" fill="black"/>
<path d="M342.7 121.572C357.491 121.572 369.481 109.582 369.481 94.7908C369.481 80 357.491 68.0098 342.7 68.0098C327.909 68.0098 315.919 80 315.919 94.7908C315.919 109.582 327.909 121.572 342.7 121.572Z" fill="white"/>
<path d="M342.7 95.3434C340.711 95.3434 338.803 94.5532 337.397 93.1467C335.99 91.7402 335.2 89.8325 335.2 87.8434V65.1924C335.2 63.2033 335.99 61.2956 337.397 59.8891C338.803 58.4826 340.711 57.6924 342.7 57.6924C344.689 57.6924 346.597 58.4826 348.003 59.8891C349.41 61.2956 350.2 63.2033 350.2 65.1924V87.8434C350.2 89.8325 349.41 91.7402 348.003 93.1467C346.597 94.5532 344.689 95.3434 342.7 95.3434Z" fill="#7FCDE7"/>
<path d="M429.39 121.573C444.181 121.573 456.172 109.582 456.172 94.7908C456.172 79.9995 444.181 68.0088 429.39 68.0088C414.599 68.0088 402.608 79.9995 402.608 94.7908C402.608 109.582 414.599 121.573 429.39 121.573Z" fill="white"/>
<path d="M429.395 95.3434C427.406 95.3434 425.498 94.5532 424.092 93.1467C422.685 91.7402 421.895 89.8325 421.895 87.8434V65.1924C421.895 63.2033 422.685 61.2956 424.092 59.8891C425.498 58.4826 427.406 57.6924 429.395 57.6924C431.384 57.6924 433.292 58.4826 434.698 59.8891C436.105 61.2956 436.895 63.2033 436.895 65.1924V87.8434C436.895 89.8325 436.105 91.7402 434.698 93.1467C433.292 94.5532 431.384 95.3434 429.395 95.3434Z" fill="#7FCDE7"/>
<path d="M256 121.573C270.791 121.573 282.782 109.582 282.782 94.7908C282.782 79.9995 270.791 68.0088 256 68.0088C241.208 68.0088 229.218 79.9995 229.218 94.7908C229.218 109.582 241.208 121.573 256 121.573Z" fill="white"/>
<path d="M260.911 97.3764C259.429 97.3751 257.98 96.9346 256.748 96.1104C255.515 95.2862 254.555 94.1153 253.988 92.7457C253.421 91.3761 253.272 89.8691 253.561 88.4151C253.85 86.9611 254.563 85.6253 255.611 84.5765L271.628 68.5595C273.039 67.1777 274.939 66.4085 276.914 66.4191C278.89 66.4296 280.781 67.2189 282.178 68.6156C283.574 70.0124 284.364 71.9037 284.374 73.879C284.385 75.8543 283.616 77.7539 282.234 79.1655L266.214 95.1805C265.518 95.878 264.692 96.4312 263.782 96.808C262.872 97.1849 261.896 97.3781 260.911 97.3764Z" fill="#7FCDE7"/>
<path d="M169.3 121.572C184.091 121.572 196.081 109.582 196.081 94.7908C196.081 80 184.091 68.0098 169.3 68.0098C154.509 68.0098 142.519 80 142.519 94.7908C142.519 109.582 154.509 121.572 169.3 121.572Z" fill="white"/>
<path d="M169.3 95.3434C167.311 95.3434 165.403 94.5532 163.997 93.1467C162.59 91.7402 161.8 89.8325 161.8 87.8434V65.1924C161.8 63.2033 162.59 61.2956 163.997 59.8891C165.403 58.4826 167.311 57.6924 169.3 57.6924C171.289 57.6924 173.197 58.4826 174.603 59.8891C176.01 61.2956 176.8 63.2033 176.8 65.1924V87.8434C176.8 89.8325 176.01 91.7402 174.603 93.1467C173.197 94.5532 171.289 95.3434 169.3 95.3434Z" fill="#7FCDE7"/>
<path d="M82.6101 121.573C97.4014 121.573 109.392 109.582 109.392 94.7908C109.392 79.9995 97.4014 68.0088 82.6101 68.0088C67.8188 68.0088 55.8281 79.9995 55.8281 94.7908C55.8281 109.582 67.8188 121.573 82.6101 121.573Z" fill="white"/>
<path d="M82.605 95.3434C80.6159 95.3434 78.7082 94.5532 77.3017 93.1467C75.8952 91.7402 75.105 89.8325 75.105 87.8434V65.1924C75.105 63.2033 75.8952 61.2956 77.3017 59.8891C78.7082 58.4826 80.6159 57.6924 82.605 57.6924C84.5941 57.6924 86.5018 58.4826 87.9083 59.8891C89.3148 61.2956 90.105 63.2033 90.105 65.1924V87.8434C90.105 89.8325 89.3148 91.7402 87.9083 93.1467C86.5018 94.5532 84.5941 95.3434 82.605 95.3434Z" fill="#7FCDE7"/>
</svg>
