<svg width="512" height="512" viewBox="0 0 512 512" fill="none" xmlns="http://www.w3.org/2000/svg">
<path d="M307.194 147.028H273.565C269.657 147.028 265.91 148.58 263.147 151.343C260.385 154.106 258.833 157.853 258.833 161.76V200.012H321.927V161.76C321.926 157.853 320.374 154.106 317.611 151.343C314.848 148.58 311.101 147.028 307.194 147.028Z" fill="#5D6671"/>
<path d="M454.808 323.445C449.852 323.445 445.1 321.476 441.596 317.972C438.092 314.468 436.123 309.716 436.123 304.76V192.945C436.029 159.557 422.699 127.568 399.057 103.992C375.415 80.4165 343.389 67.1773 310 67.1773C276.612 67.1773 244.586 80.4165 220.944 103.992C197.301 127.568 183.972 159.557 183.878 192.945V247.587C183.878 250.041 183.395 252.471 182.456 254.738C181.516 257.005 180.14 259.064 178.405 260.799C176.67 262.534 174.61 263.911 172.343 264.85C170.076 265.789 167.647 266.272 165.193 266.272C162.739 266.272 160.309 265.789 158.042 264.85C155.775 263.911 153.716 262.534 151.981 260.799C150.245 259.064 148.869 257.005 147.93 254.738C146.991 252.471 146.508 250.041 146.508 247.587V192.945C146.508 102.795 219.851 29.4531 310.001 29.4531C400.151 29.4531 473.493 102.798 473.493 192.945V304.762C473.492 309.717 471.523 314.469 468.019 317.973C464.515 321.477 459.763 323.445 454.808 323.445Z" fill="#C1C6CA"/>
<path d="M143.2 326.646L12.1916 278.965C7.57577 277.284 3.81635 273.84 1.74034 269.388C-0.335664 264.936 -0.558221 259.842 1.12163 255.226L10.8096 228.608C12.4898 223.992 15.9347 220.232 20.3866 218.156C24.8384 216.08 29.9327 215.858 34.5486 217.538L165.56 265.222L143.2 326.646Z" fill="#D6D8DB"/>
<path opacity="0.1" d="M165.193 266.276C170.148 266.275 174.901 264.307 178.405 260.803C181.909 257.299 183.878 252.546 183.878 247.591V192.946C183.878 192.106 183.894 191.269 183.91 190.432C170.561 197.871 158.026 206.686 146.51 216.732V247.584C146.509 250.038 146.992 252.468 147.93 254.736C148.869 257.003 150.245 259.064 151.98 260.799C153.715 262.535 155.774 263.912 158.041 264.852C160.309 265.791 162.739 266.275 165.193 266.276Z" fill="black"/>
<path opacity="0.1" d="M445.454 227.189C442.418 224.153 439.307 221.222 436.122 218.396V304.761C436.122 309.717 438.09 314.47 441.594 317.974C445.098 321.478 449.851 323.447 454.807 323.447C459.762 323.447 464.515 321.478 468.019 317.974C471.523 314.47 473.492 309.717 473.492 304.761V261.462C465.314 249.129 455.922 237.647 445.454 227.189Z" fill="black"/>
<path opacity="0.1" d="M117.219 247.628C103.546 265.125 92.6349 284.614 84.8657 305.416L143.2 326.645L165.557 265.219L117.219 247.628Z" fill="black"/>
<path d="M489.727 382.263C489.727 272.163 400.476 182.915 290.379 182.915C180.282 182.915 91.0308 272.166 91.0308 382.263V454.677H489.731V382.263H489.727Z" fill="#F0F1F1"/>
<path d="M499.3 494.69H81.4559C78.0876 494.69 74.8573 493.352 72.4756 490.97C70.0939 488.588 68.7559 485.358 68.7559 481.99V467.377C68.7559 464.009 70.0939 460.778 72.4756 458.397C74.8573 456.015 78.0876 454.677 81.4559 454.677H499.3C502.668 454.677 505.898 456.015 508.28 458.397C510.662 460.778 512 464.009 512 467.377V481.992C511.999 485.36 510.661 488.589 508.279 490.971C505.898 493.352 502.668 494.69 499.3 494.69Z" fill="#5D6671"/>
<path d="M437.178 154.745C431.582 154.751 426.089 153.248 421.276 150.395C416.462 147.542 412.507 143.445 409.825 138.534C400.041 120.603 385.608 105.639 368.042 95.2128C350.477 84.787 330.427 79.285 310.001 79.285C289.574 79.285 269.525 84.787 251.959 95.2128C234.394 105.639 219.961 120.603 210.177 138.534C206.197 145.748 199.521 151.09 191.611 153.392C183.701 155.694 175.201 154.768 167.973 150.817C160.744 146.866 155.375 140.211 153.042 132.31C150.709 124.409 151.602 115.906 155.525 108.661C170.671 80.9202 193.007 57.7695 220.189 41.6409C247.371 25.5123 278.394 17.001 310.001 17.001C341.607 17.001 372.631 25.5123 399.812 41.6409C426.994 57.7695 449.331 80.9202 464.477 108.661C467.066 113.403 468.378 118.736 468.284 124.137C468.19 129.539 466.692 134.823 463.939 139.471C461.185 144.119 457.27 147.971 452.579 150.649C447.887 153.327 442.579 154.738 437.177 154.745H437.178Z" fill="#5D6671"/>
<path opacity="0.1" d="M489.73 399.685H91.0298V454.678H489.73V399.685Z" fill="black"/>
<path opacity="0.1" d="M225.995 193.545C186.625 206.993 152.446 232.417 128.245 266.257C104.043 300.098 91.0309 340.659 91.0298 382.263V454.677H238.153C174.959 361.22 199.419 231.671 225.995 193.545Z" fill="black"/>
</svg>
