<svg width="512" height="512" viewBox="0 0 512 512" fill="none" xmlns="http://www.w3.org/2000/svg">
<path d="M173.438 340.624C160.665 340.611 148.418 335.531 139.386 326.499C130.354 317.468 125.273 305.222 125.258 292.448V200.175C125.263 198.936 125.003 197.71 124.495 196.579C123.987 195.449 123.243 194.44 122.313 193.62C113.068 185.696 105.653 175.858 100.582 164.787C95.5108 153.716 92.9038 141.676 92.9411 129.499C92.9411 103.839 103.996 80.5263 124.066 63.8623C143.73 47.5383 170.352 38.9093 201.055 38.9093C219.831 38.8366 238.459 42.2336 256 48.9293C273.542 42.2336 292.169 38.8366 310.945 38.9093C341.645 38.9093 368.269 47.5383 387.933 63.8663C408 80.5303 419.059 103.843 419.059 129.499C419.096 141.676 416.489 153.715 411.418 164.785C406.347 175.855 398.933 185.692 389.688 193.616C388.758 194.436 388.014 195.445 387.506 196.575C386.998 197.706 386.738 198.932 386.743 200.171V292.444C386.729 305.217 381.648 317.462 372.617 326.494C363.585 335.526 351.34 340.606 338.567 340.62L173.438 340.624Z" fill="#D2996F"/>
<path d="M232.07 41.9762C221.858 39.9335 211.469 38.9065 201.054 38.9102C170.354 38.9102 143.73 47.5392 124.066 63.8672C104 80.5302 92.9411 103.843 92.9411 129.499C92.9042 141.675 95.5114 153.714 100.582 164.784C105.653 175.855 113.067 185.692 122.312 193.616C123.242 194.436 123.986 195.444 124.494 196.575C125.002 197.706 125.262 198.932 125.257 200.171V292.444C125.272 305.217 130.353 317.463 139.385 326.495C148.417 335.527 160.664 340.607 173.437 340.62H273.082C227.691 280.687 209.23 115.132 232.07 41.9762Z" fill="#C47B46"/>
<path d="M393.7 129.5C393.7 93.4767 362.708 64.2727 310.95 64.2727C294.086 64.1527 277.372 67.444 261.813 73.9487C259.979 74.7392 258.002 75.1469 256.005 75.1469C254.007 75.1469 252.031 74.7392 250.196 73.9487C234.636 67.4462 217.923 64.155 201.059 64.2727C149.297 64.2727 118.305 93.4727 118.305 129.5C118.274 138.057 120.109 146.519 123.683 154.294C127.257 162.07 132.484 168.972 139 174.52C142.656 177.719 145.585 181.664 147.59 186.089C149.595 190.514 150.63 195.317 150.625 200.176V292.449C150.625 298.499 153.029 304.301 157.307 308.58C161.585 312.858 167.388 315.261 173.438 315.262H338.563C344.614 315.262 350.417 312.859 354.695 308.581C358.974 304.303 361.378 298.5 361.379 292.45V200.176C361.374 195.318 362.408 190.515 364.412 186.09C366.416 181.664 369.345 177.719 373 174.52C379.517 168.972 384.745 162.07 388.32 154.295C391.895 146.519 393.731 138.058 393.7 129.5Z" fill="#FCF2D0"/>
<path d="M258.145 315.261C227.82 251.104 214.961 136.812 226.418 66.6994C218.061 65.0794 209.568 64.2683 201.055 64.2774C149.297 64.2774 118.305 93.4774 118.305 129.504C118.274 138.061 120.11 146.522 123.684 154.296C127.258 162.071 132.485 168.972 139 174.519C142.656 177.719 145.585 181.664 147.59 186.089C149.595 190.514 150.63 195.317 150.625 200.175V292.448C150.625 295.445 151.215 298.411 152.362 301.179C153.509 303.947 155.189 306.462 157.308 308.581C159.427 310.699 161.942 312.379 164.71 313.526C167.478 314.672 170.445 315.262 173.441 315.261H258.145Z" fill="#F2D98D"/>
<path d="M173.008 147.129C173.008 148.626 172.564 150.089 171.732 151.334C170.9 152.579 169.718 153.549 168.335 154.122C166.952 154.695 165.43 154.845 163.961 154.553C162.493 154.261 161.144 153.54 160.085 152.481C159.026 151.423 158.305 150.074 158.013 148.605C157.721 147.137 157.871 145.615 158.444 144.232C159.017 142.848 159.987 141.666 161.232 140.834C162.477 140.003 163.941 139.559 165.438 139.559C166.432 139.558 167.417 139.754 168.335 140.134C169.254 140.514 170.089 141.072 170.792 141.775C171.495 142.478 172.052 143.313 172.432 144.231C172.813 145.15 173.008 146.134 173.008 147.129Z" fill="#FCF2D0"/>
<path d="M244.844 114.073C244.844 115.571 244.401 117.035 243.569 118.28C242.737 119.526 241.554 120.497 240.171 121.07C238.787 121.644 237.264 121.794 235.795 121.502C234.326 121.209 232.977 120.488 231.918 119.429C230.859 118.37 230.137 117.021 229.845 115.552C229.553 114.083 229.703 112.56 230.277 111.176C230.85 109.793 231.821 108.61 233.066 107.778C234.312 106.946 235.776 106.503 237.274 106.503C239.281 106.503 241.207 107.301 242.626 108.721C244.046 110.14 244.843 112.065 244.844 114.073Z" fill="#F2D98D"/>
<path d="M361.7 152.233C361.699 153.73 361.255 155.193 360.422 156.438C359.59 157.682 358.407 158.652 357.024 159.224C355.641 159.796 354.119 159.946 352.651 159.653C351.183 159.361 349.834 158.639 348.776 157.581C347.718 156.522 346.997 155.173 346.705 153.705C346.413 152.236 346.564 150.714 347.137 149.331C347.71 147.948 348.68 146.766 349.925 145.935C351.17 145.103 352.633 144.659 354.13 144.659C355.125 144.659 356.109 144.855 357.028 145.236C357.947 145.616 358.782 146.174 359.485 146.878C360.188 147.581 360.745 148.416 361.125 149.335C361.505 150.254 361.701 151.239 361.7 152.233Z" fill="#F2D98D"/>
<path d="M313.293 176.425C313.293 177.923 312.85 179.387 312.018 180.633C311.186 181.879 310.003 182.849 308.62 183.423C307.236 183.996 305.713 184.146 304.244 183.854C302.775 183.562 301.426 182.841 300.367 181.782C299.308 180.723 298.586 179.373 298.294 177.904C298.002 176.435 298.152 174.913 298.726 173.529C299.299 172.145 300.27 170.963 301.515 170.131C302.761 169.299 304.225 168.855 305.723 168.855C307.73 168.856 309.656 169.654 311.075 171.073C312.495 172.493 313.292 174.418 313.293 176.425Z" fill="#F2D98D"/>
<path d="M288.684 106.433C287.202 106.432 285.753 105.991 284.521 105.167C283.289 104.343 282.328 103.172 281.761 101.802C281.194 100.433 281.046 98.9258 281.334 97.4718C281.623 96.0179 282.336 94.6821 283.384 93.6332C288.039 88.9768 290.653 82.6625 290.653 76.0787C290.653 69.4949 288.039 63.1806 283.384 58.5242C275.927 51.049 271.739 40.9211 271.739 30.3622C271.739 19.8033 275.927 9.67545 283.384 2.20021C284.07 1.4618 284.898 0.869294 285.819 0.458088C286.739 0.0468822 287.733 -0.174583 288.74 -0.193074C289.748 -0.211565 290.75 -0.0267027 291.684 0.350467C292.619 0.727637 293.468 1.28937 294.181 2.00211C294.894 2.71485 295.456 3.56397 295.833 4.49872C296.21 5.43348 296.395 6.43469 296.377 7.44254C296.358 8.45038 296.137 9.44418 295.726 10.3645C295.315 11.2849 294.722 12.113 293.984 12.7992C289.335 17.4578 286.724 23.7704 286.724 30.3517C286.724 36.9331 289.335 43.2456 293.984 47.9042C297.683 51.602 300.618 55.9924 302.62 60.8245C304.622 65.6566 305.652 70.8358 305.652 76.0662C305.652 81.2966 304.622 86.4758 302.62 91.3079C300.618 96.14 297.683 100.53 293.984 104.228C293.289 104.927 292.464 105.481 291.554 105.86C290.645 106.238 289.669 106.433 288.684 106.433Z" fill="#F2D98D"/>
<path d="M347.164 106.433C345.682 106.432 344.233 105.992 343.001 105.167C341.769 104.343 340.808 103.172 340.241 101.803C339.674 100.433 339.526 98.9261 339.814 97.4721C340.103 96.0181 340.816 94.6824 341.864 93.6335C346.519 88.9771 349.133 82.6628 349.133 76.079C349.133 69.4952 346.519 63.1809 341.864 58.5245C334.407 51.0492 330.219 40.9214 330.219 30.3625C330.219 19.8036 334.407 9.67573 341.864 2.20049C342.552 1.47012 343.38 0.885275 344.298 0.480603C345.217 0.0759308 346.207 -0.140342 347.21 -0.155405C348.214 -0.170468 349.21 0.0159839 350.14 0.392908C351.07 0.769833 351.915 1.32956 352.624 2.03895C353.334 2.74833 353.894 3.59295 354.272 4.52276C354.649 5.45258 354.836 6.44868 354.822 7.45209C354.807 8.45549 354.592 9.44578 354.188 10.3643C353.783 11.2828 353.199 12.1109 352.469 12.7995C347.82 17.4581 345.209 23.7706 345.209 30.352C345.209 36.9333 347.82 43.2459 352.469 47.9045C359.937 55.3739 364.133 65.5039 364.133 76.0665C364.133 86.6291 359.937 96.7591 352.469 104.228C351.774 104.928 350.947 105.482 350.037 105.861C349.126 106.239 348.15 106.434 347.164 106.433Z" fill="#F2D98D"/>
<path d="M434.551 457.594H77.4489C71.7117 457.593 66.2098 455.313 62.153 451.257C58.0962 447.2 55.8167 441.698 55.8159 435.961V293.2C55.8157 282.254 57.9714 271.415 62.1602 261.302C66.3489 251.189 72.4886 242 80.2286 234.26C87.9686 226.52 97.1573 220.381 107.27 216.192C117.383 212.003 128.222 209.847 139.168 209.848H372.836C383.782 209.848 394.62 212.004 404.733 216.193C414.845 220.382 424.033 226.521 431.773 234.261C439.513 242.001 445.652 251.19 449.84 261.303C454.029 271.415 456.184 282.254 456.184 293.2V435.961C456.183 441.698 453.904 447.2 449.847 451.257C445.79 455.313 440.288 457.593 434.551 457.594Z" fill="#A3DEFE"/>
<path d="M219.535 209.843H139.168C128.222 209.843 117.382 211.998 107.269 216.187C97.1561 220.376 87.9672 226.516 80.2271 234.257C72.4871 241.997 66.3475 251.186 62.159 261.3C57.9705 271.413 55.8151 282.252 55.8159 293.199V435.96C55.8167 441.697 58.0962 447.199 62.153 451.256C66.2098 455.313 71.7117 457.592 77.4489 457.593H261.563C203.8 405.065 194.617 272.69 219.535 209.843Z" fill="#7ACEFA"/>
<path d="M434.551 457.593H77.4489C71.7117 457.593 66.2098 455.313 62.153 451.256C58.0962 447.2 55.8167 441.698 55.8159 435.96V416.815H456.184V435.96C456.183 441.698 453.904 447.2 449.847 451.256C445.79 455.313 440.288 457.593 434.551 457.593Z" fill="#8EAFE2"/>
<path d="M501.871 361.507H456.184V397.675H501.872C504.558 397.675 507.133 396.608 509.033 394.709C510.932 392.811 511.999 390.235 512 387.55V371.636C512 368.949 510.933 366.373 509.033 364.474C507.134 362.574 504.557 361.507 501.871 361.507Z" fill="#4E5660"/>
<path d="M10.129 361.507H55.816V397.675H10.129C7.44323 397.675 4.86734 396.609 2.96784 394.71C1.06834 392.811 0.000795534 390.236 0 387.55L0 371.636C0 368.949 1.06716 366.373 2.96672 364.474C4.86627 362.574 7.44262 361.507 10.129 361.507Z" fill="#4E5660"/>
<path d="M134.82 490.772H102.52C100.053 490.772 97.688 489.792 95.9439 488.048C94.1998 486.304 93.22 483.938 93.22 481.472V457.593H144.126V481.472C144.126 482.694 143.885 483.903 143.417 485.032C142.95 486.161 142.264 487.186 141.4 488.05C140.536 488.914 139.51 489.599 138.381 490.066C137.252 490.533 136.042 490.773 134.82 490.772Z" fill="#4E5660"/>
<path d="M377.18 490.772H409.48C410.701 490.772 411.911 490.531 413.039 490.064C414.167 489.597 415.192 488.911 416.056 488.048C416.92 487.184 417.605 486.159 418.072 485.031C418.539 483.902 418.78 482.693 418.78 481.472V457.593H367.879V481.472C367.879 482.693 368.119 483.903 368.587 485.031C369.054 486.159 369.739 487.185 370.603 488.048C371.467 488.912 372.492 489.597 373.621 490.064C374.749 490.531 375.959 490.772 377.18 490.772Z" fill="#4E5660"/>
<path d="M55.8159 435.96C55.8167 441.698 58.0962 447.2 62.153 451.256C66.2098 455.313 71.7117 457.593 77.4489 457.593H261.563C249.793 446.893 240.036 432.882 232.18 416.816H55.8159V435.96Z" fill="#6A96D7"/>
<path d="M299.617 350.27H212.383C209.213 350.27 206.173 351.529 203.931 353.771C201.689 356.012 200.43 359.052 200.43 362.223V380.059C200.43 383.229 201.689 386.269 203.931 388.511C206.173 390.752 209.213 392.012 212.383 392.012H299.617C302.787 392.012 305.827 390.752 308.069 388.511C310.311 386.269 311.57 383.229 311.57 380.059V362.223C311.57 359.052 310.311 356.012 308.069 353.771C305.827 351.529 302.787 350.27 299.617 350.27Z" fill="#F7EF87"/>
<path d="M200.43 362.223V380.059C200.43 383.229 201.689 386.269 203.931 388.511C206.173 390.752 209.213 392.012 212.383 392.012H222.043C217.471 378.402 213.952 364.461 211.516 350.312C208.505 350.529 205.688 351.878 203.631 354.087C201.574 356.297 200.431 359.204 200.43 362.223Z" fill="#EFD176"/>
<path d="M283.406 378.641H228.594C226.605 378.641 224.697 377.85 223.291 376.444C221.884 375.037 221.094 373.13 221.094 371.141C221.094 369.152 221.884 367.244 223.291 365.837C224.697 364.431 226.605 363.641 228.594 363.641H283.407C285.396 363.641 287.304 364.431 288.71 365.837C290.117 367.244 290.907 369.152 290.907 371.141C290.907 373.13 290.117 375.037 288.71 376.444C287.304 377.85 285.396 378.641 283.407 378.641H283.406Z" fill="#EFD176"/>
</svg>
