<svg width="512" height="512" viewBox="0 0 512 512" fill="none" xmlns="http://www.w3.org/2000/svg">
<path d="M109.408 501C109.408 502.989 110.198 504.897 111.605 506.303C113.011 507.71 114.919 508.5 116.908 508.5C118.897 508.5 120.805 507.71 122.211 506.303C123.618 504.897 124.408 502.989 124.408 501V428.045H109.408V501Z" fill="#9EA2E3"/>
<path d="M116.908 104C88.0238 104 60.3226 115.474 39.8984 135.898C19.4742 156.323 8 184.024 8 212.908C8 258.474 34.325 297.626 71.8 324.864C82.1262 332.329 93.0837 338.879 104.548 344.44C108.577 346.406 112.698 348.276 116.911 350.051C121.124 348.279 125.245 346.409 129.274 344.44C140.739 338.879 151.696 332.329 162.022 324.864C199.544 297.589 225.822 258.426 225.822 212.908C225.822 198.606 223.005 184.443 217.531 171.229C212.057 158.016 204.035 146.01 193.921 135.897C183.808 125.783 171.801 117.762 158.587 112.289C145.373 106.816 131.21 103.999 116.908 104Z" fill="#FFCE71"/>
<path d="M149.561 403.022L132.24 373.022L116.907 346.464L101.574 373.022L84.25 403.022C82.4947 406.062 81.5705 409.511 81.5706 413.022C81.5706 416.533 82.4947 419.982 84.2502 423.022C86.0056 426.063 88.5304 428.587 91.5709 430.343C94.6113 432.098 98.0603 433.022 101.571 433.022H132.24C135.751 433.022 139.2 432.098 142.24 430.343C145.281 428.587 147.806 426.063 149.561 423.022C151.316 419.982 152.241 416.533 152.241 413.022C152.241 409.511 151.316 406.062 149.561 403.022Z" fill="#FFCE71"/>
<path d="M131.575 343.022H101.575C97.5967 343.022 93.7814 344.602 90.9684 347.415C88.1553 350.228 86.575 354.044 86.575 358.022C86.575 362 88.1553 365.816 90.9684 368.629C93.7814 371.442 97.5967 373.022 101.575 373.022H131.575C135.553 373.022 139.369 371.442 142.182 368.629C144.995 365.816 146.575 362 146.575 358.022C146.575 354.044 144.995 350.228 142.182 347.415C139.369 344.602 135.553 343.022 131.575 343.022Z" fill="#9EA2E3"/>
<path d="M388.592 468.045V501C388.592 502.989 389.382 504.897 390.789 506.303C392.195 507.71 394.103 508.5 396.092 508.5C398.081 508.5 399.989 507.71 401.395 506.303C402.802 504.897 403.592 502.989 403.592 501V468.045H388.592Z" fill="#9EA2E3"/>
<path d="M410.944 145.012C395.533 142.897 379.848 144.106 364.943 148.559C350.039 153.012 336.261 160.605 324.536 170.827C312.811 181.05 303.411 193.665 296.968 207.824C290.526 221.982 287.19 237.356 287.186 252.912C287.186 298.478 313.511 337.63 350.986 364.868C361.311 372.331 372.267 378.88 383.73 384.44C387.759 386.406 391.88 388.276 396.093 390.051C400.306 388.279 404.427 386.409 408.456 384.44C409.284 384.04 410.098 383.619 410.918 383.207C421.494 377.924 431.623 371.79 441.204 364.865C478.726 337.591 505.004 298.427 505.004 252.909C505.003 226.597 495.477 201.175 478.188 181.341C460.898 161.506 437.014 148.601 410.948 145.009L410.944 145.012Z" fill="#B9F0FF"/>
<path d="M410.944 145.012C395.533 142.897 379.848 144.106 364.943 148.559C350.039 153.012 336.261 160.605 324.536 170.827C312.811 181.05 303.411 193.665 296.968 207.824C290.526 221.982 287.19 237.356 287.186 252.912C287.186 298.478 313.511 337.63 350.986 364.868C361.311 372.331 372.267 378.88 383.73 384.44C387.759 386.406 391.88 388.276 396.093 390.051C400.306 388.279 404.427 386.409 408.456 384.44C409.284 384.04 410.098 383.619 410.918 383.207L410.76 383.023C382.805 349.659 367.501 307.511 367.534 263.984C367.568 220.457 382.938 178.333 410.944 145.012Z" fill="#7CE3FF"/>
<path d="M428.75 443.022L411.429 413.022L396.096 386.464L380.763 413.022L363.442 443.022C361.687 446.062 360.762 449.511 360.762 453.022C360.762 456.533 361.687 459.982 363.442 463.022C365.197 466.063 367.722 468.587 370.763 470.343C373.803 472.098 377.252 473.022 380.763 473.022H411.429C414.94 473.022 418.389 472.098 421.429 470.343C424.47 468.587 426.994 466.063 428.75 463.022C430.505 459.982 431.429 456.533 431.429 453.022C431.429 449.511 430.505 446.062 428.75 443.022Z" fill="#7CE3FF"/>
<path d="M410.759 383.022H380.759C376.781 383.022 372.965 384.602 370.152 387.415C367.339 390.228 365.759 394.044 365.759 398.022C365.759 402 367.339 405.816 370.152 408.629C372.965 411.442 376.781 413.022 380.759 413.022H410.759C414.737 413.022 418.553 411.442 421.366 408.629C424.179 405.816 425.759 402 425.759 398.022C425.759 394.044 424.179 390.228 421.366 387.415C418.553 384.602 414.737 383.022 410.759 383.022Z" fill="#9EA2E3"/>
<path d="M256.5 384.234C254.484 384.317 252.577 385.176 251.179 386.631C249.781 388.087 249.001 390.027 249 392.045V501C249 502.989 249.79 504.897 251.197 506.303C252.603 507.71 254.511 508.5 256.5 508.5C258.489 508.5 260.397 507.71 261.803 506.303C263.21 504.897 264 502.989 264 501V392.044C264.026 391.037 263.852 390.035 263.488 389.096C263.124 388.157 262.578 387.3 261.88 386.573C261.183 385.847 260.348 385.266 259.425 384.865C258.501 384.463 257.507 384.249 256.5 384.234Z" fill="#9EA2E3"/>
<path d="M256.5 4C220.696 4 186.358 18.2232 161.041 43.5406C135.723 68.858 121.5 103.196 121.5 139C121.5 195.482 154.132 244.015 200.581 277.779C213.381 287.032 226.964 295.152 241.175 302.045C246.169 304.482 251.277 306.8 256.5 309C261.722 306.804 266.83 304.485 271.825 302.044C286.036 295.151 299.619 287.032 312.419 277.778C358.93 243.97 391.5 195.423 391.5 139C391.5 103.196 377.277 68.858 351.959 43.5406C326.642 18.2232 292.304 4 256.5 4V4Z" fill="#C9AAF2"/>
<path d="M292.895 8.969C272.83 3.37137 251.743 2.48958 231.281 6.39257C210.819 10.2955 191.537 18.8776 174.942 31.4679C158.346 44.0582 144.887 60.3157 135.617 78.9698C126.346 97.6239 121.514 118.169 121.5 139C121.5 195.482 154.132 244.015 200.581 277.779C213.381 287.032 226.964 295.152 241.175 302.045C246.169 304.482 251.277 306.8 256.5 309C261.473 306.908 266.34 304.703 271.1 302.385C241.088 261.766 222.891 214.404 222.891 162.607C222.86 133.476 229.095 104.68 241.173 78.1705C253.251 51.6615 270.889 28.0603 292.891 8.968L292.895 8.969Z" fill="#B28AE4"/>
<path d="M289.15 362.044L271.829 332.044L256.5 305.486L241.167 332.044L223.846 362.044C222.091 365.084 221.166 368.533 221.167 372.044C221.167 375.555 222.091 379.004 223.846 382.044C225.602 385.085 228.126 387.609 231.167 389.365C234.207 391.12 237.656 392.044 241.167 392.044H271.833C275.343 392.043 278.792 391.119 281.832 389.363C284.872 387.608 287.396 385.083 289.151 382.042C290.906 379.002 291.83 375.554 291.829 372.043C291.829 368.533 290.905 365.084 289.15 362.044Z" fill="#B28AE4"/>
<path d="M271.167 302.044H241.167C237.189 302.044 233.373 303.624 230.56 306.437C227.747 309.25 226.167 313.066 226.167 317.044C226.167 321.022 227.747 324.838 230.56 327.651C233.373 330.464 237.189 332.044 241.167 332.044H271.167C275.145 332.044 278.961 330.464 281.774 327.651C284.587 324.838 286.167 321.022 286.167 317.044C286.167 313.066 284.587 309.25 281.774 306.437C278.961 303.624 275.145 302.044 271.167 302.044Z" fill="#9EA2E3"/>
</svg>
