<svg width="512" height="512" viewBox="0 0 512 512" fill="none" xmlns="http://www.w3.org/2000/svg">
<path d="M434.223 247.075C434.223 176.618 354.43 119.501 256 119.501C157.57 119.501 77.7769 176.618 77.7769 247.075V393.314H434.223V247.075Z" fill="#FF8C72"/>
<path d="M148.52 145.31C105.547 168.61 77.7778 205.517 77.7778 247.076V393.314H148.52V145.31Z" fill="#F2564C"/>
<path d="M363.48 145.31C406.453 168.61 434.222 205.517 434.222 247.08V393.314H363.48V145.31Z" fill="#F2564C"/>
<path d="M105.938 279.739C105.938 249.563 129.938 227.876 144.247 217.634C173.095 196.986 213.825 185.142 256.001 185.142C298.177 185.142 338.907 196.986 367.755 217.634C382.055 227.876 406.064 249.564 406.064 279.739V393.314H105.938V279.739Z" fill="#FFD35B"/>
<path d="M256 237.478C243.523 237.478 231.556 242.435 222.733 251.258C213.91 260.081 208.953 272.047 208.953 284.525V372.841H303.043V284.524C303.044 278.346 301.827 272.228 299.463 266.52C297.099 260.812 293.634 255.626 289.266 251.257C284.897 246.889 279.711 243.423 274.004 241.059C268.296 238.695 262.178 237.478 256 237.478Z" fill="#515C80"/>
<path d="M148.52 214.712C147.071 215.669 145.641 216.638 144.247 217.634C129.947 227.876 105.938 249.564 105.938 279.739V393.314H148.52V214.712Z" fill="#FFBF50"/>
<path d="M363.48 214.712C364.929 215.669 366.359 216.638 367.753 217.634C382.053 227.876 406.062 249.564 406.062 279.739V393.314H363.48V214.712Z" fill="#FFBF50"/>
<path d="M72.3909 102.935L27.1719 122.853V393.314H117.613V122.853L72.3909 102.935Z" fill="#A1D3E8"/>
<path d="M439.609 102.935L484.828 122.853V393.314H394.387V122.853L439.609 102.935Z" fill="#A1D3E8"/>
<path d="M484.828 356.665H27.172C23.6036 356.665 20.0702 357.367 16.7734 358.733C13.4766 360.098 10.4811 362.1 7.95791 364.623C5.4347 367.146 3.43324 370.142 2.06781 373.438C0.702383 376.735 -0.000262605 380.269 7.36228e-08 383.837V452.501C0.000265272 459.707 2.86311 466.619 7.95879 471.714C13.0545 476.81 19.9656 479.673 27.172 479.673H484.828C492.034 479.672 498.945 476.809 504.041 471.714C509.136 466.618 511.999 459.707 512 452.501V383.837C512 380.269 511.298 376.735 509.932 373.438C508.567 370.142 506.565 367.146 504.042 364.623C501.519 362.1 498.523 360.098 495.227 358.733C491.93 357.367 488.396 356.665 484.828 356.665Z" fill="#FF8C72"/>
<path d="M30.906 452.501V383.837C30.9057 380.269 31.6084 376.735 32.9738 373.438C34.3392 370.142 36.3407 367.146 38.8639 364.623C41.3871 362.1 44.3826 360.098 47.6794 358.733C50.9762 357.367 54.5096 356.665 58.078 356.665H27.172C23.6036 356.665 20.0702 357.367 16.7734 358.733C13.4766 360.098 10.4811 362.1 7.95791 364.623C5.4347 367.146 3.43324 370.142 2.06781 373.438C0.702383 376.735 -0.000262605 380.269 7.36228e-08 383.837V452.501C0.000265272 459.707 2.86311 466.619 7.95879 471.714C13.0545 476.81 19.9656 479.673 27.172 479.673H58.078C50.8716 479.673 43.9605 476.81 38.8648 471.714C33.7691 466.619 30.9063 459.707 30.906 452.501Z" fill="#F2564C"/>
<path d="M27.1719 122.853V153.753H117.613V122.853L72.3909 102.935L27.1719 122.853Z" fill="#75BDDB"/>
<path d="M139.609 115.782L81.7618 36.755C80.6841 35.2816 79.274 34.0831 77.6461 33.257C76.0182 32.4308 74.2184 32.0003 72.3928 32.0003C70.5673 32.0003 68.7675 32.4308 67.1396 33.257C65.5117 34.0831 64.1016 35.2816 63.0238 36.755L5.17185 115.782C4.68704 116.445 4.39517 117.228 4.3286 118.047C4.26204 118.865 4.42338 119.686 4.79474 120.418C5.1661 121.15 5.73297 121.765 6.43251 122.195C7.13204 122.624 7.9369 122.852 8.75785 122.852H136.023C136.844 122.853 137.649 122.625 138.349 122.196C139.049 121.766 139.617 121.151 139.988 120.419C140.36 119.686 140.521 118.865 140.454 118.047C140.387 117.228 140.094 116.444 139.609 115.782Z" fill="#FF8C72"/>
<path d="M394.387 122.853V153.753H484.828V122.853L439.609 102.935L394.387 122.853Z" fill="#75BDDB"/>
<path d="M372.391 115.782L430.238 36.755C431.316 35.2816 432.726 34.0831 434.354 33.257C435.982 32.4308 437.782 32.0003 439.607 32.0003C441.433 32.0003 443.232 32.4308 444.86 33.257C446.488 34.0831 447.898 35.2816 448.976 36.755L506.824 115.782C507.309 116.444 507.601 117.228 507.668 118.046C507.735 118.864 507.574 119.684 507.203 120.416C506.832 121.149 506.266 121.764 505.567 122.194C504.867 122.624 504.063 122.851 503.242 122.852H375.973C375.152 122.852 374.347 122.624 373.648 122.194C372.949 121.764 372.382 121.149 372.011 120.417C371.64 119.685 371.479 118.864 371.546 118.046C371.613 117.228 371.906 116.444 372.391 115.782Z" fill="#FF8C72"/>
</svg>
