<svg width="512" height="512" viewBox="0 0 512 512" fill="none" xmlns="http://www.w3.org/2000/svg">
<path d="M319.3 98.8C319.3 107.1 317.663 115.318 314.482 122.985C311.301 130.651 306.64 137.615 300.764 143.477C294.889 149.339 287.915 153.985 280.241 157.149C272.568 160.312 264.346 161.931 256.046 161.913C221.02 161.836 192.09 131.777 193.1 96.762C194.258 56.73 229.273 22.309 256 2.77301C257.779 1.48122 259.83 0.611906 261.995 0.231107C264.161 -0.149692 266.385 -0.0319654 268.498 0.575345C270.611 1.18266 272.558 2.26358 274.191 3.73601C275.824 5.20844 277.1 7.03365 277.922 9.07301C293.605 47.613 315.754 58.715 319.3 98.8Z" fill="#EDA1AB"/>
<path d="M284.465 118.953C284.465 122.672 283.731 126.354 282.306 129.789C280.881 133.224 278.793 136.344 276.161 138.971C273.528 141.598 270.404 143.68 266.966 145.098C263.528 146.516 259.844 147.242 256.125 147.234C252.354 147.177 248.632 146.376 245.171 144.877C241.711 143.377 238.581 141.209 235.961 138.497C233.34 135.785 231.282 132.582 229.903 129.071C228.524 125.561 227.852 121.814 227.925 118.043C228.441 100.106 244.132 84.684 256.105 75.93C256.903 75.3516 257.822 74.9625 258.792 74.7921C259.762 74.6218 260.759 74.6747 261.706 74.9469C262.652 75.2191 263.525 75.7034 264.257 76.363C264.988 77.0227 265.56 77.8403 265.929 78.754C272.953 96.02 282.875 101 284.465 118.953Z" fill="#F7EF87"/>
<path d="M298.723 512H213.371C203.884 511.999 194.785 508.23 188.077 501.522C181.369 494.813 177.6 485.714 177.6 476.227V209.734H334.5V476.227C334.5 480.925 333.575 485.577 331.777 489.918C329.979 494.258 327.343 498.202 324.021 501.524C320.699 504.846 316.755 507.481 312.414 509.278C308.073 511.076 303.421 512.001 298.723 512Z" fill="#8EAFE2"/>
<path d="M334.5 209.734H177.6V370.789C178.6 370.875 179.6 370.93 180.623 370.93C189.805 370.93 198.611 367.282 205.104 360.79C211.597 354.297 215.244 345.491 215.244 336.309V317.547C215.245 306.243 219.736 295.402 227.73 287.409C235.723 279.416 246.565 274.926 257.869 274.926H267.123C275.008 274.926 282.57 278.058 288.145 283.634C293.721 289.209 296.853 296.771 296.853 304.656C296.854 313.838 300.501 322.644 306.994 329.136C313.487 335.629 322.292 339.276 331.474 339.277C332.494 339.277 333.501 339.226 334.497 339.14L334.5 209.734Z" fill="#6A96D7"/>
<path d="M240.848 299.375L220.926 293.5C219.271 293.012 217.833 291.969 216.856 290.547L205.117 273.418C204.428 272.412 203.505 271.589 202.426 271.02C201.348 270.451 200.147 270.154 198.928 270.154C197.708 270.154 196.507 270.451 195.429 271.02C194.35 271.589 193.427 272.412 192.738 273.418L181 290.551C180.156 291.763 178.974 292.699 177.6 293.242V360.16L196.413 353.469C198.04 352.891 199.817 352.891 201.444 353.469L221.01 360.426C222.158 360.835 223.389 360.959 224.596 360.785C225.803 360.612 226.949 360.147 227.936 359.43C228.922 358.714 229.719 357.768 230.258 356.674C230.796 355.58 231.06 354.372 231.026 353.153L230.452 332.391C230.406 330.666 230.955 328.978 232.007 327.61L244.675 311.149C245.418 310.183 245.915 309.05 246.122 307.848C246.329 306.647 246.24 305.413 245.863 304.254C245.487 303.094 244.833 302.044 243.959 301.194C243.085 300.344 242.017 299.72 240.848 299.375Z" fill="#A3DEFE"/>
<path d="M334.5 400.75L325.516 399.582C323.804 399.358 322.222 398.551 321.036 397.297L306.759 382.215C305.921 381.33 304.88 380.662 303.726 380.27C302.572 379.877 301.34 379.772 300.136 379.962C298.932 380.153 297.793 380.633 296.817 381.363C295.84 382.092 295.056 383.049 294.532 384.149L285.618 402.907C284.877 404.465 283.621 405.72 282.063 406.462L263.3 415.379C262.198 415.902 261.241 416.685 260.51 417.661C259.779 418.638 259.298 419.777 259.107 420.982C258.916 422.186 259.022 423.419 259.415 424.573C259.808 425.727 260.477 426.768 261.363 427.606L276.449 441.879C277.701 443.067 278.506 444.648 278.73 446.359L281.414 466.953C281.571 468.162 282.02 469.314 282.722 470.311C283.425 471.307 284.36 472.117 285.446 472.671C286.532 473.224 287.736 473.505 288.955 473.488C290.174 473.471 291.371 473.157 292.441 472.574L310.683 462.64C312.198 461.812 313.952 461.534 315.648 461.851L334.5 465.371V400.75Z" fill="#A3DEFE"/>
<path d="M146 215.637V288.391C146 297.573 149.648 306.379 156.14 312.872C162.633 319.364 171.439 323.012 180.621 323.012C189.803 323.012 198.609 319.364 205.102 312.872C211.594 306.379 215.242 297.573 215.242 288.391V269.629C215.242 258.324 219.732 247.481 227.726 239.487C235.72 231.492 246.562 227.001 257.867 227H267.121C275.006 227.001 282.568 230.134 288.144 235.71C293.719 241.286 296.851 248.849 296.851 256.734C296.851 265.917 300.499 274.723 306.992 281.216C313.485 287.709 322.291 291.357 331.474 291.357C340.657 291.357 349.463 287.709 355.956 281.216C362.449 274.723 366.097 265.917 366.097 256.734V215.634C366.096 199.486 359.681 184 348.262 172.583C336.844 161.165 321.358 154.751 305.21 154.751H206.883C198.887 154.751 190.97 156.326 183.583 159.385C176.196 162.445 169.484 166.93 163.831 172.584C158.177 178.238 153.693 184.95 150.633 192.337C147.574 199.724 145.999 207.641 146 215.637Z" fill="#F7EF87"/>
<path d="M220.926 293.5C219.271 293.012 217.833 291.969 216.856 290.547L205.117 273.418C204.428 272.412 203.505 271.589 202.426 271.02C201.348 270.451 200.147 270.154 198.928 270.154C197.708 270.154 196.507 270.451 195.429 271.02C194.35 271.589 193.427 272.412 192.738 273.418L181 290.551C180.156 291.763 178.974 292.699 177.6 293.242V360.16L196.413 353.469C198.04 352.891 199.817 352.891 201.444 353.469L208.987 356.153C213.067 350.341 215.253 343.41 215.245 336.309V317.551C215.233 309.145 217.719 300.925 222.386 293.934L220.926 293.5Z" fill="#7ACEFA"/>
<path d="M150.1 193.672C147.385 200.677 145.995 208.125 146 215.637V288.391C146 297.573 149.648 306.379 156.14 312.872C162.633 319.364 171.439 323.012 180.621 323.012C189.803 323.012 198.609 319.364 205.102 312.872C211.594 306.379 215.242 297.573 215.242 288.391V269.629C215.242 258.324 219.732 247.481 227.726 239.487C235.72 231.492 246.562 227.001 257.867 227H267.121C275.006 227.001 282.568 230.134 288.144 235.71C293.719 241.286 296.851 248.849 296.851 256.734C296.851 265.917 300.499 274.723 306.992 281.216C313.485 287.709 322.291 291.357 331.474 291.357C340.657 291.357 349.463 287.709 355.956 281.216C362.449 274.723 366.097 265.917 366.097 256.734V215.634C366.1 208.122 364.71 200.674 361.997 193.669C320.685 208.282 277.597 211.31 256.048 211.31C234.499 211.31 191.41 208.285 150.1 193.672Z" fill="#EFD176"/>
</svg>
