<svg width="512" height="512" viewBox="0 0 512 512" fill="none" xmlns="http://www.w3.org/2000/svg">
<path d="M287.526 246.813C295.952 294.329 259.006 318.758 250.081 284.258C250.081 284.258 232.472 289.297 219.644 276.469C206.816 263.641 211.855 246.032 211.855 246.032C177.355 237.106 201.785 200.161 249.3 208.587L287.526 246.813Z" fill="#F39BFF"/>
<path d="M287.526 246.813L277.226 236.513C283.339 270.978 265.581 293.286 251.96 289.783C263.237 315.77 295.452 291.508 287.526 246.813Z" fill="#EB76E4"/>
<path d="M454.472 79.863C501.988 88.289 526.417 51.347 491.917 42.418C491.917 42.418 496.96 24.813 484.132 11.981C471.304 -0.851014 453.699 4.19999 453.699 4.19999C444.769 -30.3 407.828 -5.87001 416.254 41.645L454.472 79.863Z" fill="#F39BFF"/>
<path d="M497.44 44.293C500.948 57.918 478.64 75.676 444.17 69.563L454.47 79.863C499.167 87.789 523.429 55.574 497.44 44.293Z" fill="#EB76E4"/>
<path d="M331.222 130.2L274.745 60.5L263.116 54.762C250.36 67.445 240.46 82.7051 234.076 99.5219C227.692 116.339 224.973 134.325 226.099 152.277L248.482 182.957L318.499 172.4L351.882 144.224L331.222 130.2Z" fill="#FF8C72"/>
<path d="M351.886 144.227L322.799 180.633L268.276 217.121L262.413 233C275.097 245.756 290.358 255.657 307.177 262.04C323.995 268.424 341.982 271.143 359.936 270.016H359.944L387.635 237.016L373.573 163.18L351.886 144.227Z" fill="#FF8C72"/>
<path d="M461.081 114.848L394.101 109.086L368.03 125.6L351.885 144.229L373.573 163.182L440.659 233.7C453.415 221.016 463.315 205.755 469.698 188.936C476.081 172.118 478.799 154.13 477.671 136.177V136.169L461.081 114.848Z" fill="#FF8C72"/>
<path d="M343.835 18.441L306.456 41.441L315.245 96L331.222 130.2L351.886 144.231L368.03 125.6L394.1 109.088L441.358 55.455C428.674 42.6983 413.413 32.7971 396.594 26.4138C379.776 20.0306 361.788 17.3123 343.835 18.441Z" fill="#FF8C72"/>
<path d="M52.1667 302.32C6.12369 304.843 -19.4463 271.965 18.0577 262.226C18.0577 262.226 8.56969 246.871 20.6207 234.82C32.6717 222.769 48.0207 232.258 48.0207 232.258C57.7627 194.758 90.6417 220.324 88.1147 266.367L52.1667 302.32Z" fill="#FF8C72"/>
<path d="M10.6117 264.813C-15.4543 276.743 9.61172 304.657 52.1667 302.321L62.4667 292.021C29.7797 293.813 7.41672 277.758 10.6117 264.813Z" fill="#F2564C"/>
<path d="M197.683 447.836C195.156 493.875 228.035 519.449 237.777 481.941C237.777 481.941 253.129 491.429 265.177 479.379C277.225 467.329 267.74 451.979 267.74 451.979C305.24 442.237 279.674 409.358 233.631 411.885L197.683 447.836Z" fill="#FF8C72"/>
<path d="M207.983 437.531L197.683 447.831C195.347 490.386 223.257 515.448 235.191 489.382C222.241 492.582 206.19 470.219 207.983 437.531Z" fill="#F2564C"/>
<path d="M160.714 286.512L91.6626 290.383L48.1896 319.836C48.0623 321.465 47.9986 323.091 47.9986 324.715C47.9867 332.925 49.5982 341.057 52.7404 348.643C55.8825 356.228 60.4933 363.118 66.3076 368.915L69.8706 372.481L160.971 375.169L209.526 335.321L160.714 286.512Z" fill="#A1D3E8"/>
<path d="M237.737 392.188L160.971 375.172L118.69 421.3L131.081 433.691C139.66 442.271 150.552 448.168 162.426 450.664C174.3 453.159 186.643 452.145 197.951 447.745C209.259 443.346 219.042 435.75 226.106 425.885C233.171 416.021 237.212 404.313 237.737 392.191V392.188Z" fill="#A1D3E8"/>
<path d="M387.519 236.371C386.019 237.117 384.511 237.848 382.976 238.543C363.921 247.139 343.023 250.848 322.173 249.335C301.324 247.823 281.181 241.135 263.566 229.879L262.417 233C283.157 253.786 310.458 266.743 339.675 269.668C346.411 270.33 353.19 270.445 359.945 270.012L387.636 237.012L387.519 236.371Z" fill="#F2564C"/>
<path d="M477.671 136.172L461.081 114.848L456.987 114.496C457.01 114.851 457.042 115.211 457.069 115.57C458.187 133.4 455.511 151.265 449.218 167.985C442.925 184.706 433.158 199.902 420.561 212.57L440.661 233.691C453.419 221.008 463.32 205.747 469.703 188.928C476.086 172.11 478.804 154.122 477.673 136.168L477.671 136.172Z" fill="#F2564C"/>
<path d="M440.659 233.7C419.004 255.127 390.343 268.02 359.944 270.009C360.354 269.239 391.858 210.63 351.885 144.228C351.886 144.227 414.054 147.781 440.659 233.7Z" fill="#F7E491"/>
<path d="M438.96 58.18L441.36 55.457C439.606 53.6877 437.797 51.974 435.934 50.316C434.02 48.6127 432.057 46.9657 430.047 45.375C433.279 49.4551 436.256 53.7317 438.96 58.18Z" fill="#F2564C"/>
<path d="M466.808 92.535C473.021 106.31 476.701 121.092 477.671 136.172C476.901 135.758 418.288 104.258 351.89 144.227C351.89 144.227 355.441 82.059 441.359 55.457C452.003 66.1851 460.624 78.7456 466.808 92.535Z" fill="#F7E491"/>
<path d="M351.886 144.227C351.886 144.227 289.722 140.672 263.116 54.754C284.769 33.3238 313.43 20.4297 343.831 18.442C343.417 19.215 311.917 77.824 351.886 144.227Z" fill="#F7E491"/>
<path d="M351.886 144.227C351.886 144.227 348.331 206.391 262.413 232.997C240.986 211.342 228.093 182.681 226.104 152.282C226.874 152.7 285.487 184.2 351.886 144.227Z" fill="#F7E491"/>
<path d="M477.671 136.172C475.685 105.771 462.791 77.1093 441.359 55.457C440.203 55.812 439.066 56.184 437.941 56.551C449.137 74.3205 455.711 94.608 457.066 115.567C457.339 119.895 457.389 124.234 457.214 128.567C464.284 130.367 471.141 132.917 477.671 136.172Z" fill="#FFD35B"/>
<path d="M428.491 203.828C425.842 207.039 423.03 210.127 420.054 213.094C405.704 227.271 388.182 237.824 368.941 243.879C365.386 259.879 360.109 269.695 359.941 270.008C363.607 269.777 367.278 269.38 370.953 268.817C397.298 264.723 421.685 252.436 440.653 233.7C437.513 223.395 433.442 213.396 428.491 203.828Z" fill="#FFD35B"/>
<path d="M253.12 222.477C255.093 224.965 257.151 227.395 259.308 229.727C260.324 230.827 261.347 231.918 262.413 232.997C263.795 232.571 265.153 232.135 266.487 231.688C261.838 228.908 257.373 225.831 253.12 222.477Z" fill="#FFD35B"/>
<path d="M86.9127 348.316C75.6792 336.979 69.2346 321.757 68.9127 305.8L48.4827 319.637C47.7199 328.617 48.905 337.656 51.957 346.135C55.0091 354.615 59.8561 362.336 66.1667 368.77C66.2177 368.821 66.2607 368.87 66.3077 368.918L69.8737 372.484L112.335 373.738L86.9127 348.316Z" fill="#75BDDB"/>
<path d="M160.714 286.512C130.819 298.812 91.4017 312.293 48.1907 319.836C49.1239 307.924 53.451 296.53 60.6597 287.001C67.8684 277.473 77.6567 270.21 88.8655 266.072C100.074 261.934 112.234 261.095 123.905 263.654C135.576 266.214 146.269 272.064 154.718 280.512L160.714 286.512Z" fill="#F7E491"/>
<path d="M151.687 413.086L138.399 399.8L118.692 421.3L131.083 433.691C142.807 445.413 158.707 451.999 175.286 451.999C191.865 451.999 207.765 445.413 219.489 433.691C220.309 432.871 221.094 432.031 221.86 431.179C222.083 430.929 222.294 430.679 222.512 430.421C223.054 429.796 223.584 429.163 224.102 428.521C224.325 428.244 224.543 427.962 224.758 427.685C225.278 427.013 225.778 426.337 226.266 425.65C226.43 425.416 226.602 425.185 226.766 424.95C227.399 424.028 228.016 423.098 228.594 422.15C216.62 429.498 202.52 432.6 188.568 430.956C174.616 429.312 161.624 423.017 151.687 413.086Z" fill="#75BDDB"/>
<path d="M237.737 392.188C204.337 404.551 162.796 416.555 118.69 421.297L69.8738 372.484C123.574 366.711 173.474 350.164 209.526 335.324L219.487 345.285C225.3 351.083 229.91 357.972 233.053 365.558C236.195 373.143 237.807 381.275 237.796 389.485C237.798 390.39 237.778 391.291 237.737 392.188Z" fill="#F7E491"/>
<path d="M154.616 415.816C153.616 414.937 152.636 414.035 151.686 413.086L105.647 367.047C93.9947 369.313 82.0337 371.176 69.8767 372.485L98.6987 401.3L118.699 421.292C130.905 419.984 142.913 418.1 154.616 415.816Z" fill="#FFD35B"/>
<path d="M69.8986 315.488C67.1417 300.287 70.0045 284.602 77.9536 271.355C76.9689 271.955 75.9989 272.587 75.0436 273.25C74.9346 273.324 74.8246 273.398 74.7196 273.477C73.8876 274.055 73.0716 274.665 72.2626 275.29C72.0786 275.431 71.8916 275.571 71.7076 275.716C70.9696 276.302 70.2466 276.916 69.5276 277.536C69.3276 277.712 69.1176 277.88 68.9146 278.059C68.0279 278.848 67.1596 279.666 66.3096 280.512C65.5676 281.254 64.8526 282.012 64.1576 282.782C64.1026 282.841 64.0576 282.899 64.0056 282.958C54.9188 293.19 49.4599 306.133 48.4746 319.782C55.7366 318.512 62.8816 317.063 69.8986 315.488Z" fill="#FFD35B"/>
</svg>
