<svg width="512" height="512" viewBox="0 0 512 512" fill="none" xmlns="http://www.w3.org/2000/svg">
<path d="M137.82 512.001C137.82 409.267 198.82 399.501 198.82 399.501L255.953 368.657L313.086 399.501C313.086 399.501 374.086 409.271 374.086 512.001H137.82Z" fill="#94E0D1"/>
<path d="M178.789 512.001V466.118C178.812 464.084 179.636 462.141 181.083 460.711C182.529 459.281 184.481 458.479 186.516 458.479C188.55 458.479 190.502 459.281 191.948 460.711C193.395 462.141 194.219 464.084 194.242 466.118V512.001H178.789Z" fill="#4CAABF"/>
<path d="M317.668 512.001V466.118C317.691 464.084 318.515 462.141 319.962 460.711C321.408 459.281 323.36 458.479 325.394 458.479C327.429 458.479 329.381 459.281 330.827 460.711C332.274 462.141 333.098 464.084 333.121 466.118V512.001H317.668Z" fill="#4CAABF"/>
<path d="M265.047 455.009C265.048 456.807 264.515 458.565 263.516 460.061C262.517 461.556 261.098 462.722 259.436 463.41C257.775 464.099 255.947 464.279 254.183 463.929C252.42 463.578 250.8 462.713 249.528 461.441C248.256 460.17 247.39 458.55 247.038 456.787C246.687 455.023 246.867 453.195 247.555 451.534C248.242 449.872 249.407 448.452 250.902 447.452C252.397 446.453 254.155 445.919 255.953 445.919C257.147 445.919 258.33 446.154 259.433 446.61C260.536 447.067 261.538 447.736 262.383 448.581C263.227 449.425 263.897 450.427 264.354 451.53C264.812 452.633 265.047 453.815 265.047 455.009Z" fill="#F39BFF"/>
<path d="M265.047 487.075C265.048 488.873 264.515 490.631 263.516 492.127C262.517 493.622 261.098 494.788 259.436 495.476C257.775 496.165 255.947 496.345 254.183 495.995C252.42 495.644 250.8 494.779 249.528 493.507C248.256 492.236 247.39 490.616 247.038 488.853C246.687 487.089 246.867 485.261 247.555 483.599C248.242 481.938 249.407 480.518 250.902 479.518C252.397 478.519 254.155 477.985 255.953 477.985C257.147 477.985 258.33 478.22 259.433 478.676C260.536 479.133 261.538 479.802 262.383 480.647C263.227 481.491 263.897 482.493 264.354 483.596C264.812 484.699 265.047 485.881 265.047 487.075Z" fill="#F39BFF"/>
<path d="M60.1051 243.927C24.6641 219.54 31.2421 165.38 71.4881 150.185C51.4411 112.126 82.4331 67.224 125.129 72.474C125.066 29.458 173.375 4.10099 208.742 28.591C228.676 -9.53001 283.234 -9.53001 303.168 28.591C338.535 4.10299 386.844 29.458 386.781 72.474C429.481 67.224 460.469 112.126 440.422 150.185C480.668 165.385 487.242 219.544 451.805 243.927H60.1051Z" fill="#515C80"/>
<path d="M486.91 233.817C486.91 243.273 484.105 252.516 478.852 260.377C473.598 268.239 466.131 274.366 457.395 277.984C448.659 281.602 439.046 282.548 429.772 280.703C420.499 278.857 411.981 274.303 405.295 267.616C398.61 260.93 394.057 252.411 392.214 243.137C390.37 233.863 391.318 224.25 394.937 215.515C398.557 206.779 404.685 199.314 412.548 194.061C420.411 188.809 429.654 186.007 439.11 186.008C445.388 186.008 451.604 187.245 457.404 189.647C463.204 192.05 468.474 195.572 472.913 200.011C477.352 204.451 480.872 209.722 483.274 215.522C485.676 221.322 486.911 227.539 486.91 233.817Z" fill="#D1E4EB"/>
<path d="M255.953 121.962C125.105 55.962 84.9262 185.415 84.2532 187.622C79.7582 202.61 77.4801 218.175 77.4913 233.822C77.4913 327.068 157.391 402.662 255.952 402.662C354.513 402.662 434.417 327.068 434.417 233.822C434.428 218.175 432.15 202.61 427.655 187.622C426.984 185.415 386.8 55.958 255.953 121.962Z" fill="#F0F3F7"/>
<path d="M108.395 233.817C108.386 218.17 110.664 202.605 115.157 187.617C115.657 185.976 137.93 114.222 202.895 104.347C113.915 92.019 84.8293 185.742 84.2543 187.617C84.2543 187.625 84.2543 187.629 84.2463 187.637C80.5367 186.512 76.6764 185.963 72.8003 186.009C60.1591 186.067 48.0553 191.129 39.137 200.088C30.2187 209.047 25.2119 221.174 25.2119 233.815C25.2119 246.457 30.2187 258.584 39.137 267.543C48.0553 276.502 60.1591 281.564 72.8003 281.622C76.6748 281.667 80.5333 281.118 84.2413 279.993C105.471 350.793 174.311 402.657 255.948 402.657C261.159 402.657 266.307 402.43 271.401 402.02C180.082 394.606 108.395 322.138 108.395 233.817Z" fill="#D1E4EB"/>
<path d="M294.5 236.849C294.501 244.473 292.24 251.927 288.004 258.266C283.768 264.606 277.748 269.547 270.704 272.465C263.66 275.382 255.909 276.146 248.431 274.658C240.953 273.171 234.084 269.499 228.693 264.108C223.302 258.717 219.63 251.848 218.143 244.37C216.656 236.892 217.419 229.141 220.337 222.097C223.255 215.053 228.196 209.032 234.536 204.797C240.876 200.561 248.329 198.301 255.953 198.301C261.016 198.301 266.028 199.298 270.705 201.235C275.382 203.173 279.631 206.012 283.211 209.592C286.79 213.171 289.629 217.421 291.566 222.097C293.504 226.774 294.5 231.787 294.5 236.849Z" fill="#FF8C72"/>
<path d="M338.055 243.701C337.041 243.702 336.036 243.502 335.098 243.114C334.161 242.726 333.309 242.158 332.592 241.44C331.874 240.723 331.305 239.872 330.916 238.934C330.528 237.997 330.328 236.993 330.328 235.978V220.017C330.351 217.983 331.175 216.04 332.622 214.61C334.068 213.18 336.021 212.378 338.055 212.378C340.089 212.378 342.041 213.18 343.487 214.61C344.934 216.04 345.758 217.983 345.781 220.017V235.978C345.78 238.027 344.966 239.991 343.517 241.439C342.068 242.887 340.104 243.701 338.055 243.701Z" fill="#38424A"/>
<path d="M348.926 267.169H327.184C325.15 267.146 323.207 266.322 321.777 264.875C320.347 263.429 319.545 261.477 319.545 259.442C319.545 257.408 320.347 255.456 321.777 254.01C323.207 252.563 325.15 251.739 327.184 251.716H348.926C350.96 251.739 352.903 252.563 354.333 254.01C355.763 255.456 356.565 257.408 356.565 259.442C356.565 261.477 355.763 263.429 354.333 264.875C352.903 266.322 350.96 267.146 348.926 267.169Z" fill="#FD786E"/>
<path d="M173.855 243.701C172.841 243.701 171.836 243.502 170.899 243.114C169.962 242.726 169.11 242.157 168.392 241.44C167.675 240.723 167.106 239.871 166.717 238.934C166.329 237.997 166.129 236.992 166.128 235.978V220.017C166.152 217.983 166.976 216.04 168.422 214.61C169.869 213.18 171.821 212.378 173.855 212.378C175.889 212.378 177.841 213.18 179.288 214.61C180.734 216.04 181.558 217.983 181.581 220.017V235.978C181.581 236.992 181.381 237.997 180.993 238.934C180.605 239.871 180.035 240.723 179.318 241.44C178.601 242.157 177.749 242.726 176.812 243.114C175.874 243.502 174.87 243.701 173.855 243.701Z" fill="#38424A"/>
<path d="M184.727 267.169H162.984C160.95 267.146 159.008 266.322 157.577 264.875C156.147 263.429 155.345 261.477 155.345 259.442C155.345 257.408 156.147 255.456 157.577 254.01C159.008 252.563 160.95 251.739 162.984 251.716H184.726C186.76 251.739 188.703 252.563 190.133 254.01C191.563 255.456 192.365 257.408 192.365 259.442C192.365 261.477 191.563 263.429 190.133 264.875C188.703 266.322 186.76 267.146 184.726 267.169H184.727Z" fill="#FD786E"/>
<path d="M255.953 312.728C252.083 312.755 248.251 311.953 244.715 310.377C241.179 308.801 238.022 306.488 235.453 303.591C234.105 302.048 233.424 300.032 233.561 297.987C233.699 295.942 234.643 294.035 236.186 292.686C237.729 291.338 239.745 290.657 241.79 290.794C243.835 290.932 245.742 291.876 247.09 293.419C248.225 294.635 249.597 295.605 251.122 296.269C252.647 296.932 254.292 297.274 255.955 297.274C257.619 297.274 259.264 296.932 260.789 296.269C262.314 295.605 263.686 294.635 264.82 293.419C266.169 291.876 268.076 290.932 270.121 290.794C272.166 290.657 274.182 291.338 275.725 292.686C277.268 294.035 278.212 295.942 278.35 297.987C278.487 300.032 277.806 302.048 276.457 303.591C273.888 306.487 270.73 308.801 267.193 310.377C263.657 311.952 259.825 312.754 255.953 312.728Z" fill="#38424A"/>
<path d="M268.7 420.56C268.7 420.56 313.091 458.673 313.091 418.83V397.255C313.091 357.415 268.7 395.528 268.7 395.528V420.56Z" fill="#F2564C"/>
<path d="M243.215 420.56C243.215 420.56 198.82 458.673 198.82 418.83V397.255C198.82 357.415 243.215 395.528 243.215 395.528V420.56Z" fill="#F2564C"/>
<path d="M258.984 387.845H252.925C247.568 387.845 242.43 389.973 238.642 393.761C234.853 397.55 232.725 402.688 232.725 408.045C232.725 413.402 234.853 418.54 238.642 422.329C242.43 426.117 247.568 428.245 252.925 428.245H258.984C264.341 428.245 269.479 426.117 273.268 422.329C277.056 418.54 279.184 413.402 279.184 408.045C279.184 402.688 277.056 397.55 273.268 393.761C269.479 389.973 264.341 387.845 258.984 387.845Z" fill="#FF8C72"/>
</svg>
