<svg width="512" height="512" viewBox="0 0 512 512" fill="none" xmlns="http://www.w3.org/2000/svg">
<path d="M337.578 378.625L133.378 174.425C130.628 171.675 127.22 169.674 123.479 168.611C119.738 167.549 115.787 167.46 112.002 168.353C108.217 169.247 104.723 171.093 101.851 173.716C98.9803 176.34 96.8273 179.654 95.5969 183.343L1.91792 464.375C-7.50008 492.625 19.3749 519.5 47.6249 510.082L328.66 416.406C332.349 415.176 335.663 413.023 338.287 410.152C340.91 407.28 342.756 403.786 343.65 400.001C344.543 396.216 344.454 392.265 343.392 388.524C342.329 384.783 340.328 381.375 337.578 378.625Z" fill="#B49CDC"/>
<path d="M115.539 167.809C111.049 168.13 106.756 169.779 103.205 172.545C99.6538 175.311 97.0047 179.07 95.5939 183.344L1.91792 464.375C-7.50008 492.625 19.3749 519.5 47.6249 510.082L186.172 463.9C98.0629 399.426 88.7379 238.941 115.539 167.809Z" fill="#908CD6"/>
<path d="M337.578 378.625L133.378 174.425C130.627 171.675 127.22 169.674 123.479 168.611C119.737 167.549 115.787 167.46 112.001 168.353C108.216 169.247 104.722 171.093 101.851 173.716C98.98 176.34 96.8271 179.654 95.5967 183.343L79.6167 231.277C132.476 249.343 148.125 301.812 179.156 332.843C210.187 363.874 262.656 379.523 280.722 432.382L328.66 416.405C332.349 415.175 335.663 413.022 338.286 410.151C340.909 407.28 342.755 403.786 343.649 400.001C344.542 396.216 344.453 392.265 343.391 388.524C342.328 384.783 340.327 381.375 337.578 378.625Z" fill="#F7EF87"/>
<path d="M115.539 167.809C111.049 168.13 106.756 169.779 103.205 172.545C99.6536 175.311 97.0045 179.07 95.5937 183.344L79.6167 231.277C87.6981 234.032 95.3965 237.803 102.527 242.5C103.574 213.441 108.2 187.277 115.539 167.809Z" fill="#EFD176"/>
<path d="M431.484 142.84C431.484 151.981 428.773 160.918 423.694 168.518C418.615 176.119 411.396 182.043 402.95 185.541C394.504 189.039 385.211 189.954 376.245 188.171C367.279 186.387 359.044 181.985 352.58 175.521C346.116 169.057 341.714 160.822 339.93 151.856C338.147 142.89 339.062 133.597 342.56 125.151C346.058 116.705 351.982 109.486 359.583 104.407C367.183 99.3285 376.12 96.6174 385.261 96.617C397.52 96.617 409.277 101.487 417.946 110.155C426.614 118.824 431.484 130.581 431.484 142.84Z" fill="#8EAFE2"/>
<path d="M239.531 27.27L250.086 5.07001C250.705 3.76688 251.632 2.63424 252.787 1.77008C253.943 0.905928 255.291 0.336296 256.716 0.110479C258.141 -0.115337 259.599 0.00946417 260.965 0.474084C262.331 0.938703 263.563 1.72915 264.555 2.77701L281.455 20.632C282.858 22.1146 284.73 23.0681 286.755 23.332L311.13 26.508C312.56 26.6946 313.924 27.2269 315.103 28.0589C316.282 28.8908 317.24 29.9975 317.895 31.283C318.55 32.5686 318.882 33.9944 318.862 35.437C318.843 36.8797 318.472 38.2959 317.782 39.563L306.023 61.148C305.046 62.9426 304.718 65.0187 305.093 67.027L309.6 91.191C309.865 92.6092 309.78 94.0705 309.353 95.4485C308.926 96.8266 308.17 98.0799 307.15 99.1C306.13 100.12 304.876 100.876 303.498 101.303C302.12 101.73 300.659 101.815 299.241 101.55L275.081 97.038C273.072 96.6629 270.996 96.9913 269.202 97.968L247.616 109.726C246.349 110.416 244.932 110.787 243.49 110.807C242.047 110.827 240.621 110.495 239.335 109.84C238.05 109.185 236.943 108.227 236.111 107.048C235.279 105.869 234.747 104.505 234.561 103.074L231.387 78.7C231.122 76.6756 230.169 74.804 228.687 73.4L210.832 56.5C209.784 55.5085 208.994 54.2767 208.529 52.9111C208.064 51.5455 207.939 50.0873 208.164 48.6625C208.39 47.2376 208.959 45.8892 209.822 44.7338C210.686 43.5783 211.818 42.6506 213.121 42.031L235.321 31.476C237.167 30.6007 238.654 29.115 239.531 27.27Z" fill="#EDA1AB"/>
<path d="M269.2 97.969C270.992 96.9911 273.067 96.6613 275.075 97.035L299.239 101.547C300.987 101.877 302.794 101.673 304.425 100.961C306.055 100.248 307.433 99.0617 308.38 97.555C262.118 82.977 248.228 37.399 250.78 3.875C250.516 4.25677 250.282 4.65792 250.08 5.075L239.525 27.275C238.649 29.1199 237.163 30.6059 235.318 31.482L213.118 42.037C211.816 42.6571 210.685 43.5847 209.823 44.7398C208.96 45.8949 208.392 47.2426 208.166 48.6666C207.941 50.0906 208.066 51.5479 208.531 52.9127C208.995 54.2775 209.785 55.5088 210.832 56.5L228.684 73.4C230.166 74.8039 231.119 76.6756 231.384 78.7L234.56 103.075C234.746 104.506 235.278 105.87 236.11 107.049C236.942 108.228 238.049 109.186 239.334 109.841C240.62 110.496 242.046 110.828 243.489 110.808C244.931 110.788 246.348 110.417 247.615 109.727L269.2 97.969Z" fill="#E26E7E"/>
<path d="M422.23 292.555L443.082 302.469C444.306 303.051 445.37 303.922 446.181 305.007C446.993 306.092 447.528 307.358 447.74 308.697C447.952 310.035 447.834 311.405 447.398 312.688C446.961 313.971 446.218 315.128 445.234 316.059L428.469 331.93C427.075 333.249 426.178 335.007 425.93 336.91L422.945 359.8C422.77 361.143 422.27 362.424 421.489 363.531C420.707 364.637 419.668 365.537 418.461 366.152C417.254 366.767 415.916 367.079 414.561 367.061C413.206 367.042 411.877 366.694 410.687 366.046L390.41 355.008C388.725 354.09 386.776 353.781 384.89 354.133L362.19 358.371C360.858 358.619 359.485 358.54 358.191 358.139C356.897 357.737 355.72 357.027 354.762 356.069C353.804 355.111 353.093 353.934 352.692 352.64C352.291 351.345 352.211 349.973 352.46 348.641L356.698 325.941C357.05 324.055 356.741 322.106 355.823 320.421L344.78 300.144C344.132 298.954 343.784 297.624 343.766 296.27C343.748 294.915 344.059 293.577 344.674 292.37C345.289 291.163 346.189 290.124 347.296 289.343C348.402 288.561 349.683 288.061 351.026 287.886L373.921 284.902C375.823 284.655 377.582 283.76 378.901 282.367L394.772 265.597C395.703 264.613 396.86 263.871 398.143 263.434C399.426 262.998 400.796 262.881 402.134 263.093C403.472 263.305 404.738 263.839 405.824 264.651C406.909 265.462 407.78 266.525 408.362 267.749L418.276 288.601C419.1 290.334 420.497 291.73 422.23 292.555Z" fill="#6FCE91"/>
<path d="M390.41 355.008L410.687 366.051C411.737 366.622 412.898 366.961 414.09 367.044C415.282 367.127 416.479 366.953 417.598 366.533C418.717 366.113 419.733 365.458 420.576 364.611C421.42 363.764 422.072 362.746 422.487 361.625C399.667 353.508 377.952 311.613 379.807 281.414L378.907 282.367C377.589 283.761 375.83 284.657 373.927 284.902L351.032 287.886C349.689 288.062 348.408 288.562 347.301 289.343C346.194 290.125 345.294 291.164 344.679 292.372C344.064 293.579 343.753 294.918 343.771 296.273C343.79 297.628 344.138 298.958 344.786 300.148L355.829 320.421C356.747 322.106 357.056 324.055 356.704 325.941L352.466 348.641C352.218 349.973 352.297 351.345 352.699 352.64C353.1 353.934 353.81 355.111 354.768 356.069C355.726 357.027 356.903 357.737 358.197 358.139C359.492 358.54 360.864 358.619 362.196 358.371L384.896 354.133C386.78 353.785 388.727 354.093 390.41 355.008Z" fill="#3CB767"/>
<path d="M420.773 234.84C418.963 234.842 417.214 234.19 415.848 233.003C414.481 231.817 413.59 230.177 413.338 228.385C413.086 226.593 413.49 224.771 414.476 223.253C415.462 221.736 416.963 220.626 418.703 220.129C433.697 215.972 449.077 213.355 464.603 212.32C465.585 212.246 466.572 212.367 467.508 212.675C468.444 212.983 469.31 213.472 470.056 214.115C470.803 214.757 471.416 215.541 471.86 216.42C472.304 217.299 472.57 218.258 472.644 219.24C472.717 220.222 472.597 221.21 472.289 222.145C471.981 223.081 471.492 223.947 470.849 224.694C470.207 225.44 469.423 226.053 468.544 226.497C467.664 226.941 466.706 227.207 465.724 227.281C451.222 228.237 436.856 230.672 422.849 234.547C422.174 234.741 421.475 234.84 420.773 234.84Z" fill="#EFD176"/>
<path d="M279.445 269.207C277.799 269.21 276.198 268.67 274.888 267.673C273.579 266.675 272.634 265.274 272.2 263.686C271.765 262.099 271.865 260.412 272.484 258.887C273.103 257.361 274.207 256.082 275.625 255.246C291.34 245.961 321.125 236.016 349.551 236.016H349.977C350.962 236.018 351.937 236.213 352.846 236.591C353.756 236.97 354.582 237.523 355.277 238.221C355.972 238.918 356.523 239.746 356.899 240.657C357.275 241.567 357.467 242.543 357.466 243.528C357.464 244.512 357.269 245.487 356.89 246.397C356.512 247.306 355.958 248.132 355.261 248.827C354.563 249.523 353.736 250.074 352.825 250.45C351.915 250.825 350.939 251.018 349.954 251.016C349.813 251.016 349.688 251.016 349.559 251.016C325.079 251.016 297.715 259.616 283.259 268.161C282.106 268.848 280.788 269.209 279.445 269.207Z" fill="#EDA1AB"/>
<path d="M178.906 174.582C177.709 174.579 176.53 174.291 175.467 173.74C174.404 173.189 173.488 172.392 172.796 171.416C172.103 170.439 171.654 169.311 171.486 168.126C171.317 166.941 171.435 165.733 171.828 164.602C176.728 150.602 178.742 124.911 176.137 109.641C175.962 108.666 175.981 107.666 176.194 106.699C176.407 105.731 176.809 104.816 177.378 104.005C177.947 103.194 178.671 102.503 179.508 101.974C180.345 101.444 181.278 101.085 182.255 100.918C183.231 100.752 184.231 100.78 185.196 101.001C186.162 101.223 187.074 101.634 187.88 102.21C188.686 102.786 189.369 103.516 189.892 104.358C190.414 105.199 190.764 106.136 190.922 107.114C193.981 125.032 191.766 153.044 185.988 169.555C185.474 171.023 184.517 172.296 183.248 173.197C181.979 174.097 180.462 174.581 178.906 174.582Z" fill="#8EAFE2"/>
<path d="M246.434 224.914C245.234 224.912 244.051 224.622 242.986 224.068C241.921 223.515 241.004 222.714 240.312 221.733C239.62 220.752 239.173 219.619 239.009 218.43C238.844 217.241 238.968 216.03 239.368 214.898C240.313 212.066 247.321 182.578 248.481 172.976C248.591 171.992 248.895 171.039 249.375 170.172C249.856 169.306 250.503 168.543 251.28 167.929C252.056 167.314 252.947 166.859 253.901 166.59C254.854 166.322 255.851 166.245 256.835 166.363C257.818 166.482 258.768 166.795 259.63 167.283C260.492 167.771 261.249 168.425 261.857 169.207C262.465 169.989 262.911 170.884 263.171 171.84C263.432 172.796 263.5 173.794 263.372 174.776C262.095 185.354 254.829 216.182 253.501 219.924C252.983 221.384 252.025 222.647 250.76 223.541C249.494 224.434 247.983 224.914 246.434 224.914Z" fill="#6FCE91"/>
<path d="M56.7149 455.285C43.5429 442.117 28.9489 432.219 14.6999 426.02L1.91792 464.375C-7.50008 492.625 19.3749 519.5 47.6249 510.082L85.9799 497.3C79.7809 483.051 69.8869 468.457 56.7149 455.285Z" fill="#EFD176"/>
<path d="M424.4 167.418C370.134 167.406 359.658 124.332 365.146 101.218C358.697 104.333 353.06 108.904 348.68 114.57C344.3 120.236 341.297 126.842 339.907 133.868C338.516 140.893 338.778 148.145 340.67 155.052C342.562 161.96 346.033 168.333 350.809 173.669C355.585 179.005 361.536 183.158 368.192 185.801C374.848 188.444 382.028 189.505 389.164 188.899C396.299 188.292 403.197 186.037 409.312 182.309C415.427 178.581 420.592 173.483 424.4 167.418Z" fill="#6A96D7"/>
<path d="M483.563 313.539C482.08 313.538 480.632 313.097 479.399 312.273C478.167 311.449 477.207 310.278 476.64 308.908C476.073 307.539 475.924 306.032 476.213 304.578C476.502 303.124 477.215 301.788 478.263 300.739L499.2 279.8C500.622 278.475 502.502 277.754 504.445 277.788C506.388 277.823 508.242 278.61 509.616 279.984C510.99 281.358 511.777 283.212 511.811 285.155C511.846 287.098 511.125 288.978 509.8 290.4L488.867 311.34C488.171 312.038 487.344 312.591 486.434 312.968C485.524 313.346 484.548 313.54 483.563 313.539Z" fill="#8EAFE2"/>
<path d="M504.5 313.539C503.515 313.539 502.54 313.345 501.631 312.968C500.721 312.59 499.895 312.037 499.2 311.339L478.258 290.4C476.916 288.981 476.181 287.094 476.209 285.141C476.236 283.189 477.025 281.324 478.406 279.943C479.787 278.562 481.653 277.775 483.605 277.748C485.558 277.722 487.445 278.458 488.863 279.8L509.8 300.734C510.848 301.783 511.561 303.119 511.85 304.573C512.139 306.027 511.99 307.534 511.423 308.903C510.856 310.273 509.896 311.444 508.663 312.268C507.431 313.092 505.982 313.533 504.5 313.534V313.539Z" fill="#8EAFE2"/>
<path d="M133.27 85.152C131.787 85.1507 130.339 84.7101 129.106 83.8859C127.874 83.0617 126.914 81.8909 126.347 80.5212C125.78 79.1516 125.631 77.6446 125.92 76.1906C126.209 74.7366 126.922 73.4009 127.97 72.352L148.9 51.414C150.306 50.0068 152.214 49.2159 154.204 49.2153C156.193 49.2147 158.102 50.0046 159.509 51.411C160.916 52.8174 161.707 54.7253 161.707 56.7149C161.708 58.7044 160.918 60.6128 159.512 62.02L138.57 82.957C137.875 83.654 137.048 84.2068 136.139 84.5835C135.229 84.9602 134.254 85.1534 133.27 85.152Z" fill="#EFD176"/>
<path d="M154.207 85.152C153.222 85.1522 152.247 84.958 151.337 84.5805C150.428 84.2029 149.602 83.6495 148.907 82.952L127.965 62.02C127.268 61.3234 126.716 60.4965 126.339 59.5864C125.963 58.6764 125.769 57.701 125.769 56.7161C125.769 55.7311 125.963 54.7559 126.341 53.846C126.718 52.9361 127.27 52.1093 127.967 51.413C128.663 50.7167 129.49 50.1644 130.4 49.7876C131.31 49.4109 132.286 49.217 133.271 49.2172C134.256 49.2174 135.231 49.4116 136.141 49.7887C137.051 50.1658 137.877 50.7184 138.574 51.415L159.512 72.353C160.559 73.4019 161.273 74.7377 161.561 76.1916C161.85 77.6456 161.702 79.1526 161.135 80.5222C160.568 81.8919 159.607 83.0627 158.375 83.8869C157.143 84.7111 155.694 85.1517 154.212 85.153L154.207 85.152Z" fill="#EFD176"/>
</svg>
