<svg width="513" height="512" viewBox="0 0 513 512" fill="none" xmlns="http://www.w3.org/2000/svg">
<path d="M483.525 87.48C483.525 104.782 478.395 121.696 468.782 136.083C459.17 150.469 445.507 161.682 429.522 168.304C413.537 174.926 395.948 176.659 378.978 173.283C362.008 169.908 346.42 161.577 334.185 149.343C321.95 137.108 313.618 121.521 310.242 104.551C306.866 87.5811 308.598 69.9913 315.219 54.0059C321.84 38.0205 333.052 24.3575 347.439 14.7445C361.825 5.13151 378.738 0.000395567 396.041 0C419.242 -2.42521e-08 441.493 9.21649 457.9 25.6221C474.306 42.0276 483.524 64.2785 483.525 87.48Z" fill="#FCF2D0"/>
<path d="M462.959 143.809C377.127 155.688 321.859 67.993 371.029 3.64899C357.965 7.54398 345.992 14.4382 336.065 23.7818C326.138 33.1253 318.532 44.6595 313.854 57.4642C309.176 70.2689 307.556 83.9896 309.122 97.5318C310.687 111.074 315.397 124.063 322.873 135.462C330.35 146.861 340.387 156.355 352.184 163.187C363.981 170.019 377.212 173.999 390.82 174.809C404.429 175.62 418.038 173.24 430.563 167.857C443.088 162.475 454.181 154.24 462.959 143.809Z" fill="#F6E3A3"/>
<path d="M425.83 100.262C423.841 100.262 421.933 99.4718 420.527 98.0653C419.12 96.6588 418.33 94.7511 418.33 92.762C418.33 86.8506 415.982 81.1813 411.802 77.0013C407.622 72.8213 401.952 70.473 396.041 70.473C390.13 70.473 384.46 72.8213 380.28 77.0013C376.1 81.1813 373.752 86.8506 373.752 92.762C373.752 94.7511 372.962 96.6588 371.555 98.0653C370.149 99.4718 368.241 100.262 366.252 100.262C364.263 100.262 362.355 99.4718 360.949 98.0653C359.542 96.6588 358.752 94.7511 358.752 92.762C358.752 82.8723 362.681 73.3877 369.674 66.3947C376.667 59.4016 386.151 55.473 396.041 55.473C405.931 55.473 415.415 59.4016 422.408 66.3947C429.401 73.3877 433.33 82.8723 433.33 92.762C433.33 94.7511 432.54 96.6588 431.133 98.0653C429.727 99.4718 427.819 100.262 425.83 100.262Z" fill="#4E5660"/>
<path d="M203.443 87.48C203.443 104.782 198.313 121.696 188.7 136.083C179.088 150.47 165.425 161.683 149.44 168.304C133.454 174.926 115.864 176.659 98.8944 173.283C81.9244 169.908 66.3364 161.576 54.1017 149.341C41.867 137.106 33.5351 121.518 30.1596 104.548C26.7842 87.5784 28.5168 69.9885 35.1384 54.0032C41.7599 38.0178 52.973 24.355 67.3596 14.7425C81.7463 5.13005 98.6603 -0.000395539 115.963 2.28719e-08C139.164 0.000795623 161.414 9.21767 177.82 25.6232C194.225 42.0287 203.442 64.2791 203.443 87.48Z" fill="#FCF2D0"/>
<path d="M182.877 143.809C97.0488 155.688 41.7768 67.993 90.9468 3.64899C77.8827 7.54398 65.9096 14.4382 55.9828 23.7818C46.056 33.1253 38.4502 44.6595 33.7723 57.4642C29.0943 70.2689 27.4736 83.9896 29.0395 97.5318C30.6054 111.074 35.3145 124.063 42.7912 135.462C50.2679 146.861 60.3052 156.355 72.1023 163.187C83.8994 170.019 97.1299 173.999 110.738 174.809C124.346 175.62 137.956 173.24 150.481 167.857C163.006 162.475 174.099 154.24 182.877 143.809Z" fill="#F6E3A3"/>
<path d="M58.5247 512H49.0797C43.6163 512 38.3766 509.83 34.5133 505.966C30.6501 502.103 28.4797 496.863 28.4797 491.4V292.6H79.1267V491.4C79.1267 494.105 78.5938 496.784 77.5585 499.284C76.5231 501.783 75.0055 504.054 73.0924 505.967C71.1793 507.88 68.9082 509.397 66.4086 510.432C63.9091 511.468 61.2301 512 58.5247 512Z" fill="#E1B89A"/>
<path d="M28.4788 358.5C42.9868 365.824 61.2788 368.051 79.1268 363.309V292.6H28.4788V358.5Z" fill="#D2996F"/>
<path d="M256.002 306.086C277.33 365.145 387.244 391.386 387.244 297.886C438.103 373.351 555.666 318.57 495.053 241.686C439.139 170.77 370.096 123.984 256.002 123.984C141.908 123.984 72.8647 170.77 16.9507 241.688C-43.6623 318.567 73.9037 373.344 124.76 297.888C124.76 391.391 234.674 365.145 256.002 306.086Z" fill="#4E5660"/>
<path d="M256.002 46.867C241.759 46.8669 227.92 51.5937 216.653 60.3061C205.387 69.0185 197.331 81.2238 193.748 95.008L184.611 130.149C182.364 138.792 182.36 147.865 184.6 156.51C186.84 165.155 191.249 173.085 197.411 179.549C204.97 187.48 214.06 193.794 224.131 198.108C234.202 202.422 245.044 204.647 256.001 204.647C266.957 204.647 277.799 202.422 287.87 198.108C297.941 193.794 307.032 187.48 314.591 179.549C320.751 173.084 325.161 165.154 327.4 156.51C329.64 147.865 329.637 138.792 327.391 130.149L318.252 95.008C314.67 81.2241 306.614 69.0189 295.348 60.3065C284.082 51.594 270.243 46.8671 256.002 46.867Z" fill="#EDA1AB"/>
<path d="M314.592 179.547C316.987 177.029 319.126 174.28 320.979 171.34C236.179 187.74 213.952 98.024 230.579 52.11C221.577 55.9824 213.58 61.8606 207.197 69.2957C200.815 76.7307 196.215 85.5261 193.751 95.01L184.614 130.151C182.368 138.794 182.364 147.867 184.604 156.512C186.844 165.156 191.253 173.086 197.414 179.551C204.973 187.482 214.063 193.795 224.134 198.109C234.206 202.423 245.048 204.647 256.004 204.647C266.96 204.647 277.802 202.423 287.873 198.109C297.944 193.795 307.035 187.482 314.594 179.551L314.592 179.547Z" fill="#E26E7E"/>
<path d="M145.752 100.262C143.763 100.262 141.855 99.4718 140.449 98.0653C139.042 96.6588 138.252 94.7511 138.252 92.762C138.252 86.8506 135.904 81.1813 131.724 77.0013C127.544 72.8213 121.874 70.473 115.963 70.473C110.051 70.473 104.382 72.8213 100.202 77.0013C96.0221 81.1813 93.6738 86.8506 93.6738 92.762C93.6738 94.7511 92.8837 96.6588 91.4771 98.0653C90.0706 99.4718 88.163 100.262 86.1738 100.262C84.1847 100.262 82.2771 99.4718 80.8705 98.0653C79.464 96.6588 78.6738 94.7511 78.6738 92.762C78.6738 82.8723 82.6025 73.3877 89.5955 66.3947C96.5886 59.4016 106.073 55.473 115.963 55.473C125.852 55.473 135.337 59.4016 142.33 66.3947C149.323 73.3877 153.252 82.8723 153.252 92.762C153.252 94.7511 152.462 96.6588 151.055 98.0653C149.649 99.4718 147.741 100.262 145.752 100.262Z" fill="#4E5660"/>
<path d="M106.99 254.8C105.573 254.799 104.186 254.396 102.988 253.639C101.791 252.882 100.832 251.801 100.224 250.522C99.6152 249.242 99.3815 247.817 99.5496 246.41C99.7177 245.003 100.281 243.673 101.174 242.573C111.729 229.581 127.162 218.718 138.088 212.882C139.842 211.944 141.897 211.742 143.801 212.32C145.704 212.897 147.3 214.208 148.238 215.962C149.175 217.716 149.377 219.771 148.8 221.675C148.222 223.578 146.912 225.174 145.158 226.112C133.049 232.581 120.358 242.753 112.818 252.03C112.114 252.897 111.226 253.596 110.217 254.075C109.209 254.554 108.106 254.802 106.99 254.8Z" fill="#383C43"/>
<path d="M305.639 295.66C303.824 295.657 302.071 294.996 300.706 293.799C299.341 292.602 298.457 290.951 298.217 289.152C296.217 274.187 293.983 262.48 291.764 255.3C291.176 253.399 291.368 251.343 292.296 249.584C293.225 247.825 294.814 246.506 296.715 245.919C298.615 245.332 300.671 245.523 302.431 246.452C304.19 247.38 305.508 248.969 306.096 250.87C309.205 260.933 311.612 276.159 313.084 287.163C313.346 289.135 312.815 291.13 311.608 292.711C310.4 294.292 308.614 295.328 306.643 295.593C306.31 295.639 305.975 295.661 305.639 295.66Z" fill="#383C43"/>
<path d="M450.256 275.438C448.835 275.438 447.443 275.035 446.242 274.275C445.042 273.515 444.082 272.429 443.474 271.145C437.931 259.445 427.107 243.145 416.431 234.989C414.851 233.782 413.814 231.996 413.55 230.024C413.286 228.052 413.816 226.056 415.023 224.476C416.23 222.895 418.016 221.858 419.988 221.594C421.96 221.33 423.956 221.86 425.537 223.067C438.267 232.797 450.529 251.001 457.029 264.723C457.571 265.866 457.815 267.128 457.739 268.39C457.663 269.653 457.268 270.876 456.592 271.945C455.916 273.015 454.981 273.896 453.873 274.506C452.765 275.117 451.521 275.438 450.256 275.438Z" fill="#383C43"/>
</svg>
