<svg width="512" height="512" viewBox="0 0 512 512" fill="none" xmlns="http://www.w3.org/2000/svg">
<path d="M367.079 277.449H273.11L226.126 394.727L273.11 512H341.321L399.489 394.727L367.079 277.449Z" fill="#EB76E4"/>
<path d="M179.142 277.449H140.86L88.5674 340.914L116.106 457.359C119.785 472.914 128.606 486.772 141.141 496.689C153.677 506.606 169.193 512.001 185.177 512H204.888L226.126 394.727L179.142 277.449Z" fill="#EB76E4"/>
<path d="M313.872 6.91801L313.614 6.55501C312.292 4.67667 310.567 3.11685 308.565 1.98903C306.563 0.861218 304.336 0.193771 302.044 0.0352522C299.752 -0.123267 297.453 0.231128 295.315 1.07266C293.178 1.91418 291.254 3.22167 289.685 4.90001C262.439 33.994 257.748 74.923 257.537 76.9C257.097 81.0297 258.314 85.1655 260.922 88.398C263.529 91.6304 267.314 93.6951 271.443 94.138C272.003 94.197 272.565 94.227 273.127 94.228C276.99 94.2222 280.713 92.7898 283.584 90.2057C286.454 87.6217 288.268 84.0683 288.678 80.228C288.717 79.861 292.709 47.662 312.385 26.478C314.844 23.8833 316.334 20.5213 316.605 16.9572C316.876 13.3932 315.911 9.84457 313.873 6.90801L313.872 6.91801Z" fill="#F2564C"/>
<path d="M457.653 340.914L430.114 457.359C426.431 472.914 417.607 486.77 405.07 496.686C392.533 506.603 377.017 511.998 361.032 512H341.321L367.079 277.449H398.379L457.653 340.914Z" fill="#F39BFF"/>
<path d="M170.454 364.6C184.972 375.79 202.743 381.94 221.071 382.116L179.141 277.452H140.86L88.5674 340.914C91.5867 353.687 94.6077 366.461 97.6304 379.234C103.609 380.88 109.758 381.832 115.954 382.07C117.009 382.109 118.068 382.129 119.13 382.129C137.703 382.103 155.746 375.94 170.454 364.6Z" fill="#AD5DB8"/>
<path d="M273.11 277.449V512H204.888L179.142 277.449H273.11Z" fill="#F39BFF"/>
<path d="M273.11 277.449H179.142L189.942 375.808C203.564 381.425 218.428 383.347 233.03 381.379C247.633 379.411 261.457 373.623 273.106 364.6L273.11 277.449Z" fill="#EB76E4"/>
<path d="M375.759 364.6C361.242 375.79 343.471 381.94 325.142 382.116L367.072 277.452H405.353L457.646 340.917L448.584 379.237C442.606 380.883 436.457 381.835 430.26 382.073C429.206 382.112 428.147 382.132 427.084 382.132C408.511 382.105 390.468 375.942 375.759 364.6Z" fill="#EB76E4"/>
<path d="M273.101 277.449H367.071L356.271 375.808C342.649 381.425 327.786 383.347 313.183 381.379C298.58 379.411 284.755 373.623 273.106 364.6L273.101 277.449Z" fill="#AD5DB8"/>
<path d="M478.189 297.66C472.88 123.023 373.317 87.445 273.106 87.445C172.895 87.445 73.3334 123.023 68.0244 297.66C67.1694 325.86 88.9154 350.137 117.106 351.187C117.778 351.21 118.45 351.222 119.129 351.222C130.725 351.221 142.005 347.446 151.265 340.467C160.525 333.488 167.262 323.684 170.457 312.538C173.652 323.684 180.389 333.487 189.649 340.466C198.909 347.444 210.188 351.219 221.783 351.219C233.378 351.219 244.658 347.444 253.918 340.466C263.178 333.487 269.914 323.684 273.109 312.538C276.304 323.684 283.041 333.487 292.301 340.466C301.561 347.444 312.84 351.219 324.435 351.219C336.03 351.219 347.31 347.444 356.57 340.466C365.83 333.487 372.566 323.684 375.761 312.538C378.955 323.685 385.691 333.488 394.951 340.468C404.21 347.447 415.49 351.222 427.085 351.222C427.761 351.222 428.437 351.21 429.108 351.187C457.301 350.137 479.048 325.859 478.189 297.66Z" fill="#FFB1BC"/>
<path d="M109.231 297.66C114.177 135.016 200.876 93 293.712 87.992C286.865 87.6207 279.997 87.4383 273.107 87.445C172.896 87.445 73.3334 123.023 68.0244 297.66C67.1694 325.86 88.9154 350.137 117.106 351.187C117.778 351.21 118.45 351.222 119.129 351.222C126.31 351.229 133.418 349.782 140.024 346.968C130.583 342.726 122.616 335.774 117.133 326.995C111.65 318.215 108.9 308.005 109.231 297.66Z" fill="#FF84B2"/>
<path d="M315.388 85.883C315.388 94.2453 312.908 102.42 308.262 109.372C303.616 116.325 297.012 121.744 289.287 124.944C281.561 128.144 273.06 128.981 264.858 127.349C256.656 125.718 249.123 121.691 243.21 115.778C237.297 109.865 233.27 102.331 231.639 94.1295C230.007 85.9279 230.845 77.4267 234.045 69.701C237.245 61.9753 242.664 55.3719 249.617 50.726C256.57 46.0801 264.744 43.6002 273.106 43.6C278.659 43.5997 284.158 44.6933 289.288 46.8181C294.418 48.9429 299.079 52.0575 303.005 55.9839C306.932 59.9103 310.046 64.5716 312.171 69.7018C314.295 74.8319 315.389 80.3303 315.388 85.883Z" fill="#FF8C72"/>
</svg>
