<svg width="512" height="512" viewBox="0 0 512 512" fill="none" xmlns="http://www.w3.org/2000/svg">
<path d="M418.445 302.778C418.445 418.329 324.773 512.001 209.223 512.001C93.673 512.001 0 418.329 0 302.778C0 187.227 93.672 93.56 209.223 93.56C324.774 93.56 418.445 187.231 418.445 302.778Z" fill="#4E5660"/>
<path d="M367.047 440.122C38.129 455.466 70.258 179.079 158.785 99.692C67.6 122.267 0 204.622 0 302.778C0 418.329 93.672 512.001 209.223 512.001C239.145 512.033 268.723 505.63 295.954 493.229C323.184 480.827 347.43 462.715 367.047 440.122Z" fill="#383C43"/>
<path d="M209.223 144.556C207.234 144.556 205.326 143.766 203.919 142.359C202.513 140.953 201.723 139.045 201.723 137.056V122.778C201.723 120.789 202.513 118.881 203.919 117.475C205.326 116.068 207.234 115.278 209.223 115.278C211.212 115.278 213.119 116.068 214.526 117.475C215.932 118.881 216.723 120.789 216.723 122.778V137.055C216.723 138.04 216.529 139.015 216.152 139.925C215.775 140.836 215.223 141.662 214.526 142.359C213.83 143.056 213.003 143.608 212.093 143.985C211.183 144.362 210.208 144.556 209.223 144.556Z" fill="#6FCE91"/>
<path d="M43.4998 310.278H29.2188C27.2296 310.278 25.322 309.488 23.9154 308.081C22.5089 306.675 21.7188 304.767 21.7188 302.778C21.7188 300.789 22.5089 298.881 23.9154 297.475C25.322 296.068 27.2296 295.278 29.2188 295.278H43.4998C45.4889 295.278 47.3965 296.068 48.8031 297.475C50.2096 298.881 50.9998 300.789 50.9998 302.778C50.9998 304.767 50.2096 306.675 48.8031 308.081C47.3965 309.488 45.4889 310.278 43.4998 310.278Z" fill="#EDA1AB"/>
<path d="M209.223 490.282C207.234 490.282 205.326 489.492 203.919 488.085C202.513 486.679 201.723 484.771 201.723 482.782V468.501C201.723 466.512 202.513 464.604 203.919 463.198C205.326 461.791 207.234 461.001 209.223 461.001C211.212 461.001 213.119 461.791 214.526 463.198C215.932 464.604 216.723 466.512 216.723 468.501V482.778C216.723 483.763 216.53 484.739 216.153 485.649C215.776 486.56 215.224 487.387 214.527 488.084C213.831 488.781 213.004 489.334 212.094 489.711C211.184 490.088 210.208 490.282 209.223 490.282Z" fill="#6FCE91"/>
<path d="M389.223 310.278H374.949C372.96 310.278 371.052 309.488 369.646 308.081C368.239 306.675 367.449 304.767 367.449 302.778C367.449 300.789 368.239 298.881 369.646 297.475C371.052 296.068 372.96 295.278 374.949 295.278H389.222C391.211 295.278 393.119 296.068 394.526 297.475C395.932 298.881 396.722 300.789 396.722 302.778C396.722 304.767 395.932 306.675 394.526 308.081C393.119 309.488 391.211 310.278 389.222 310.278H389.223Z" fill="#EDA1AB"/>
<path d="M345.727 302.778C345.728 329.777 337.723 356.17 322.724 378.619C307.725 401.068 286.406 418.565 261.462 428.898C236.519 439.231 209.072 441.934 182.591 436.667C156.111 431.4 131.788 418.399 112.697 399.308C93.6055 380.217 80.6045 355.894 75.3375 329.414C70.0706 302.933 72.7744 275.486 83.107 250.543C93.4395 225.599 110.937 204.28 133.386 189.281C155.835 174.282 182.228 166.277 209.227 166.278C245.429 166.279 280.147 180.661 305.746 206.259C331.344 231.858 345.726 266.576 345.727 302.778Z" fill="#FCF2D0"/>
<path d="M253.844 431.817C123.244 402.243 89.1925 304.426 101.278 219.223C83.2989 242.478 73.3039 270.915 72.7796 300.305C72.2552 329.696 81.2293 358.471 98.3679 382.353C115.506 406.234 139.894 423.948 167.906 432.86C195.918 441.772 226.057 441.406 253.844 431.817Z" fill="#F6E3A3"/>
<path d="M134.211 248.45C132.729 248.449 131.28 248.008 130.048 247.184C128.816 246.36 127.855 245.189 127.288 243.819C126.721 242.45 126.573 240.943 126.862 239.489C127.15 238.035 127.864 236.699 128.911 235.65L135.782 228.779C137.197 227.413 139.091 226.657 141.058 226.674C143.024 226.691 144.905 227.48 146.296 228.87C147.686 230.261 148.475 232.142 148.492 234.109C148.509 236.075 147.753 237.969 146.387 239.384L139.516 246.255C138.82 246.952 137.993 247.505 137.083 247.882C136.172 248.258 135.196 248.452 134.211 248.45Z" fill="#F6E3A3"/>
<path d="M234.168 416.314C232.686 416.313 231.237 415.872 230.005 415.048C228.773 414.224 227.812 413.053 227.245 411.683C226.678 410.314 226.53 408.807 226.819 407.353C227.107 405.899 227.821 404.563 228.868 403.514L244.4 387.978C245.815 386.612 247.709 385.856 249.676 385.873C251.642 385.89 253.523 386.679 254.914 388.069C256.304 389.46 257.093 391.341 257.11 393.308C257.127 395.274 256.371 397.169 255.005 398.583L239.47 414.118C238.064 415.524 236.157 416.314 234.168 416.314Z" fill="#F6E3A3"/>
<path d="M271.051 302.778C271.051 315.006 267.424 326.96 260.631 337.128C253.837 347.295 244.181 355.22 232.883 359.9C221.586 364.579 209.154 365.804 197.161 363.418C185.167 361.032 174.15 355.144 165.504 346.497C156.857 337.85 150.968 326.834 148.583 314.84C146.197 302.847 147.421 290.415 152.101 279.117C156.781 267.82 164.705 258.164 174.873 251.37C185.04 244.576 196.994 240.95 209.223 240.95C225.62 240.95 241.347 247.464 252.942 259.059C264.537 270.654 271.051 286.38 271.051 302.778Z" fill="#4E5660"/>
<path d="M447.613 64.388C451.644 54.3627 452.09 43.2525 448.874 32.9366C445.657 22.6207 438.977 13.7323 429.962 7.7746C420.947 1.81693 410.151 -0.844278 399.4 0.241077C388.649 1.32643 378.603 6.09173 370.961 13.731C352.555 32.131 333.922 118.637 342.652 169.348L447.613 64.388Z" fill="#F7EF87"/>
<path d="M447.613 64.388C457.639 60.3567 468.749 59.9117 479.064 63.1281C489.38 66.3445 498.268 73.025 504.225 82.0398C510.183 91.0545 512.844 101.85 511.759 112.601C510.673 123.352 505.908 133.398 498.269 141.04C479.869 159.446 393.363 178.079 342.652 169.349L447.613 64.388Z" fill="#EFD176"/>
<path d="M209.223 310.278C207.741 310.277 206.292 309.836 205.06 309.012C203.827 308.188 202.867 307.017 202.3 305.647C201.733 304.278 201.584 302.771 201.873 301.317C202.162 299.863 202.875 298.527 203.923 297.478L252.923 248.478C254.337 247.112 256.232 246.356 258.198 246.373C260.165 246.39 262.046 247.179 263.437 248.569C264.827 249.96 265.616 251.841 265.633 253.807C265.65 255.774 264.894 257.668 263.528 259.083L214.528 308.083C213.832 308.781 213.005 309.334 212.095 309.711C211.184 310.088 210.208 310.28 209.223 310.278Z" fill="white"/>
<path d="M409.539 102.462C414.889 107.809 418.308 114.784 419.259 122.288C420.209 129.792 418.637 137.399 414.789 143.911C401.211 166.872 380.589 192.011 358.68 213.911C334.387 238.211 306.121 260.927 281.254 274.2C276.626 276.681 271.324 277.607 266.129 276.841C260.935 276.076 256.125 273.66 252.41 269.95L242.047 259.591C238.338 255.876 235.923 251.066 235.159 245.873C234.394 240.679 235.32 235.378 237.8 230.751C251.073 205.884 273.792 177.618 298.085 153.321C319.991 131.415 345.128 110.79 368.085 97.216C374.597 93.366 382.205 91.7919 389.71 92.7417C397.215 93.6915 404.191 97.1112 409.539 102.462Z" fill="#B49CDC"/>
<path d="M290.266 161.349C268.989 183.704 249.637 208.572 237.797 230.749C235.317 235.377 234.392 240.679 235.157 245.873C235.922 251.067 238.338 255.877 242.047 259.593L252.41 269.956C256.125 273.665 260.934 276.08 266.128 276.845C271.322 277.61 276.623 276.683 281.25 274.202C306.121 260.929 334.387 238.21 358.68 213.917C359.258 213.339 359.828 212.753 360.403 212.171C332.3 205.868 302.43 186.04 290.266 161.349Z" fill="#908CD6"/>
<path d="M328.957 190.544C327.475 190.543 326.026 190.102 324.794 189.278C323.562 188.454 322.601 187.283 322.034 185.913C321.467 184.544 321.319 183.037 321.608 181.583C321.896 180.129 322.61 178.793 323.657 177.744L351.052 150.349C352.459 148.943 354.367 148.153 356.356 148.153C358.345 148.154 360.253 148.944 361.659 150.351C363.066 151.758 363.855 153.666 363.855 155.655C363.855 157.644 363.064 159.552 361.657 160.958L334.262 188.349C333.566 189.047 332.739 189.6 331.829 189.976C330.919 190.353 329.943 190.546 328.957 190.544Z" fill="white"/>
<path d="M242.047 259.591L252.41 269.954C256.125 273.663 260.935 276.078 266.128 276.844C271.321 277.609 276.623 276.683 281.25 274.204C293.95 267.427 307.52 258.184 321.004 247.536C304.674 226.332 285.67 207.33 264.465 191.001C253.817 204.485 244.574 218.06 237.797 230.751C235.319 235.378 234.394 240.68 235.159 245.873C235.924 251.066 238.339 255.876 242.047 259.591Z" fill="#7ACEFA"/>
</svg>
