<svg width="513" height="512" viewBox="0 0 513 512" fill="none" xmlns="http://www.w3.org/2000/svg">
<path d="M61.6 25.725C60.4102 24.155 58.9229 22.8348 57.2229 21.8396C55.5229 20.8445 53.6435 20.194 51.6921 19.9251C49.7407 19.6563 47.7554 19.7745 45.8497 20.2729C43.9439 20.7713 42.155 21.6402 40.585 22.83C37.4144 25.2328 35.3281 28.7968 34.7852 32.7379C34.2423 36.679 35.2872 40.6743 37.69 43.845C53.7162 64.9712 71.169 84.9762 89.926 103.72C132.506 146.329 181.375 182.148 234.826 209.926C303.639 245.44 378.778 267.038 455.946 273.485V243.409C299.553 229.975 157.085 151.71 61.6 25.725Z" fill="#E8B5B1"/>
<path d="M171.717 88.888L133.463 50.634L107.089 24.26C103.347 20.5171 98.7237 17.7749 93.6448 16.2855C88.5659 14.7962 83.1942 14.6074 78.0232 15.7365C72.8523 16.8656 68.0481 19.2764 64.0524 22.7473C60.0566 26.2182 56.9974 30.6379 55.156 35.6L17.041 138.348C7.64799 163.667 32.31 188.328 57.628 178.935L60.928 177.709L160.367 140.82C165.33 138.98 169.75 135.921 173.222 131.926C176.694 127.931 179.106 123.127 180.236 117.956C181.366 112.785 181.178 107.413 179.69 102.334C178.201 97.2546 175.459 92.6309 171.717 88.888Z" fill="#9EA2E3"/>
<path d="M133.463 50.634L107.089 24.26C103.347 20.5171 98.7237 17.7749 93.6448 16.2855C88.5659 14.7962 83.1942 14.6074 78.0232 15.7365C72.8523 16.8656 68.0481 19.2764 64.0524 22.7473C60.0566 26.2182 56.9974 30.6379 55.156 35.6L17.041 138.348C7.64799 163.667 32.31 188.328 57.628 178.935L60.928 177.709C62.3025 152.346 69.5747 127.653 82.1665 105.593C94.7583 83.5331 112.323 64.7148 133.463 50.634Z" fill="#8288CB"/>
<path d="M196.23 170.488L197.466 280.066C197.766 307.066 229.632 321.255 249.903 303.412L332.163 231.012C336.136 227.515 339.167 223.075 340.976 218.101C342.785 213.127 343.314 207.778 342.516 202.546C341.717 197.313 339.616 192.366 336.406 188.158C333.196 183.949 328.979 180.616 324.144 178.463L240.644 141.288C235.809 139.136 230.51 138.233 225.235 138.663C219.96 139.093 214.878 140.843 210.456 143.75C206.033 146.657 202.412 150.629 199.926 155.302C197.439 159.974 196.167 165.196 196.226 170.488H196.23Z" fill="#7CE3FF"/>
<path d="M274.722 156.456L240.648 141.285C235.813 139.132 230.514 138.23 225.239 138.66C219.964 139.09 214.882 140.839 210.459 143.746C206.036 146.654 202.416 150.626 199.929 155.298C197.443 159.97 196.171 165.193 196.23 170.485L197.466 280.063C197.766 307.063 229.632 321.252 249.903 303.409L252.549 301.081C244.742 276.91 242.682 251.252 246.531 226.145C250.38 201.038 260.033 177.175 274.722 156.453V156.456Z" fill="#2ED0FC"/>
<path d="M107.227 417.568C80.7107 417.578 54.2248 415.774 27.9549 412.168C24.0287 411.608 20.484 409.516 18.0961 406.35C15.7082 403.183 14.6714 399.2 15.2127 395.271C15.7539 391.342 17.829 387.788 20.9841 385.385C24.1392 382.982 28.1176 381.926 32.0489 382.449C198.369 405.356 364.109 352.737 486.757 238.08C488.192 236.717 489.884 235.651 491.733 234.944C493.583 234.238 495.554 233.904 497.533 233.963C499.512 234.022 501.459 234.472 503.263 235.287C505.068 236.102 506.693 237.267 508.045 238.713C509.397 240.159 510.449 241.859 511.141 243.714C511.833 245.569 512.151 247.543 512.076 249.521C512.002 251.499 511.536 253.443 510.707 255.241C509.877 257.039 508.7 258.654 507.243 259.995C443.623 319.303 367.649 363.774 284.786 390.208C227.349 408.361 167.465 417.589 107.227 417.568Z" fill="#E8B5B1"/>
<path d="M150.251 364.639H67.5001C62.7078 364.639 57.9924 365.843 53.7872 368.142C49.5821 370.44 46.0223 373.759 43.4349 377.793C40.8476 381.827 39.3158 386.446 38.9803 391.227C38.6448 396.007 39.5165 400.795 41.5151 405.151L82.8901 495.333C93.0901 517.556 124.664 517.556 134.86 495.333L136.191 492.433L176.237 405.152C178.236 400.796 179.107 396.008 178.772 391.227C178.436 386.447 176.904 381.827 174.317 377.793C171.729 373.759 168.169 370.441 163.964 368.142C159.759 365.843 155.043 364.639 150.251 364.639Z" fill="#B0EBD8"/>
<path d="M101.269 364.639H67.5001C62.7078 364.639 57.9924 365.843 53.7872 368.142C49.5821 370.44 46.0223 373.759 43.4349 377.793C40.8476 381.827 39.3158 386.446 38.9803 391.227C38.6448 396.007 39.5165 400.795 41.5151 405.151L82.8901 495.333C93.0901 517.556 124.664 517.556 134.86 495.333L136.191 492.433C120.832 475.315 109.678 454.851 103.616 432.666C97.5534 410.482 96.7499 387.189 101.269 364.639Z" fill="#5FD9B3"/>
<path d="M209.1 394.561L287.458 471.17C306.767 490.049 339.327 477.55 341.045 450.6L348.014 341.237C348.351 335.955 347.354 330.673 345.116 325.877C342.878 321.08 339.47 316.923 335.206 313.788C330.941 310.653 325.957 308.64 320.712 307.935C315.466 307.229 310.127 307.853 305.186 309.75L219.86 342.5C214.918 344.396 210.531 347.504 207.104 351.539C203.677 355.574 201.32 360.405 200.248 365.589C199.177 370.773 199.426 376.143 200.973 381.206C202.519 386.269 205.314 390.861 209.1 394.561Z" fill="#9EA2E3"/>
<path d="M254.681 329.137L219.86 342.5C214.918 344.396 210.532 347.505 207.105 351.539C203.678 355.574 201.32 360.405 200.249 365.589C199.178 370.773 199.427 376.143 200.973 381.206C202.52 386.268 205.314 390.861 209.1 394.561L287.458 471.17C306.767 490.049 339.327 477.55 341.045 450.6L341.269 447.083C318.657 435.512 299.056 418.826 284.025 398.351C268.993 377.876 258.945 354.177 254.68 329.137H254.681Z" fill="#8288CB"/>
<path d="M385.527 331.961L469.1 382.883C489.7 395.432 515.518 378.014 511.6 354.217L495.695 257.65C494.927 252.986 492.998 248.59 490.087 244.866C487.176 241.141 483.375 238.209 479.034 236.337C474.694 234.466 469.952 233.716 465.246 234.156C460.539 234.596 456.019 236.212 452.1 238.855L384.431 284.5C380.512 287.144 377.321 290.73 375.151 294.929C372.98 299.128 371.9 303.805 372.01 308.531C372.119 313.257 373.415 317.879 375.777 321.973C378.14 326.067 381.494 329.502 385.531 331.961H385.527Z" fill="#C9AAF2"/>
<path d="M412.047 265.873L384.431 284.5C380.512 287.144 377.321 290.73 375.151 294.929C372.98 299.128 371.9 303.805 372.01 308.531C372.119 313.257 373.415 317.879 375.777 321.973C378.14 326.067 381.494 329.502 385.531 331.961L469.1 382.883C489.7 395.432 515.518 378.014 511.6 354.218L511.088 351.112C489.088 345.585 468.68 335.003 451.487 320.206C434.293 305.409 420.789 286.805 412.047 265.873Z" fill="#B28AE4"/>
</svg>
