<svg width="512" height="512" viewBox="0 0 512 512" fill="none" xmlns="http://www.w3.org/2000/svg">
<path d="M440.957 99.961C465.238 32.719 416.305 11.801 354.157 65.324L330.384 81.984L360.27 110.418H430.87L440.957 99.961Z" fill="#F2564C"/>
<path d="M219.809 99.961C195.528 32.719 244.465 11.801 306.609 65.324L330.379 81.984L300.5 110.418H229.895L219.809 99.961Z" fill="#F2564C"/>
<path d="M330.383 53.547C322.458 53.547 314.857 56.6954 309.253 62.2995C303.648 67.9037 300.5 75.5045 300.5 83.43V110.418H360.27V83.43C360.27 79.5054 359.497 75.6193 357.995 71.9935C356.493 68.3677 354.291 65.0733 351.516 62.2984C348.74 59.5235 345.446 57.3224 341.82 55.8208C338.194 54.3193 334.308 53.5466 330.383 53.547Z" fill="#FF8C72"/>
<path d="M330.383 144.555L144.367 165.707V268.961L341.145 477.844H451.445C457.236 477.844 462.971 476.703 468.322 474.487C473.672 472.271 478.534 469.022 482.629 464.927C486.724 460.832 489.972 455.971 492.188 450.62C494.405 445.27 495.545 439.535 495.545 433.744V165.707L330.383 144.555Z" fill="#A1D3E8"/>
<path d="M175.273 165.707L344.918 146.414L330.383 144.555L144.367 165.707V268.961L289.637 416.031H320.543L175.273 268.961V165.707Z" fill="#75BDDB"/>
<path d="M216.2 324.9H160.586L127.914 403.83L160.586 477.842H216.2L244.009 403.83L216.2 324.9Z" fill="#F39BFF"/>
<path d="M15.313 355.492V457.512C15.3126 460.182 15.8381 462.826 16.8595 465.292C17.8809 467.759 19.3781 470 21.2658 471.888C23.1535 473.776 25.3945 475.274 27.861 476.296C30.3275 477.318 32.9712 477.844 35.641 477.844H160.586V329.816L15.313 355.492Z" fill="#FFB1BC"/>
<path d="M46.219 457.512V355.492L160.586 335.281V329.816L15.313 355.492V457.512C15.3126 460.182 15.8381 462.826 16.8595 465.292C17.8809 467.759 19.3781 470 21.2658 471.888C23.1535 473.776 25.3945 475.274 27.861 476.296C30.3275 477.318 32.9712 477.844 35.641 477.844H66.547C63.8772 477.844 61.2335 477.318 58.767 476.296C56.3005 475.274 54.0595 473.776 52.1718 471.888C50.2841 470 48.7869 467.759 47.7655 465.292C46.7441 462.826 46.2186 460.182 46.219 457.512Z" fill="#FF84B2"/>
<path d="M216.2 329.816V477.844H341.145C343.815 477.844 346.459 477.319 348.926 476.297C351.393 475.275 353.635 473.778 355.523 471.889C357.411 470.001 358.908 467.76 359.93 465.293C360.952 462.826 361.477 460.182 361.477 457.512V355.492L216.2 329.816Z" fill="#FFB1BC"/>
<path d="M291.281 294.316C313.875 231.75 268.34 212.285 210.511 262.089L188.394 277.589L216.2 304.051H281.9L291.281 294.316Z" fill="#EB76E4"/>
<path d="M85.508 294.316C62.914 231.75 108.449 212.285 166.274 262.089L188.395 277.589L160.586 304.05H94.886L85.508 294.316Z" fill="#EB76E4"/>
<path d="M188.395 251.129C181.021 251.128 173.948 254.057 168.733 259.27C163.518 264.483 160.588 271.555 160.586 278.929V304.042H216.2V278.934C216.2 271.56 213.27 264.488 208.056 259.273C202.841 254.059 195.769 251.129 188.395 251.129Z" fill="#F39BFF"/>
<path d="M347.3 294.316H29.48C25.6083 294.316 21.7746 295.079 18.1977 296.561C14.6208 298.042 11.3709 300.214 8.63337 302.952C5.89587 305.69 3.72447 308.94 2.24315 312.517C0.761831 316.095 -0.000393832 319.928 1.52656e-07 323.8V340.18C-0.000131184 342.191 0.395862 344.182 1.16537 346.04C1.93487 347.898 3.06281 349.586 4.48478 351.008C5.90675 352.43 7.5949 353.558 9.45281 354.328C11.3107 355.097 13.302 355.493 15.313 355.493H361.477C363.488 355.493 365.479 355.097 367.337 354.328C369.195 353.558 370.883 352.43 372.305 351.009C373.727 349.587 374.855 347.899 375.624 346.041C376.394 344.183 376.79 342.192 376.79 340.181V323.8C376.79 319.928 376.028 316.093 374.546 312.515C373.064 308.938 370.891 305.687 368.153 302.949C365.414 300.211 362.163 298.039 358.585 296.558C355.007 295.077 351.172 294.315 347.3 294.316Z" fill="#FF8C72"/>
<path d="M30.906 340.18V323.8C30.9063 315.981 34.0123 308.483 39.5408 302.955C45.0693 297.426 52.5675 294.32 60.386 294.32H29.48C21.6615 294.32 14.1633 297.426 8.63478 302.955C3.10627 308.483 0.000265233 315.981 3.26593e-08 323.8L3.26593e-08 340.18C-0.000131304 342.191 0.395861 344.182 1.16537 346.04C1.93487 347.898 3.06281 349.586 4.48478 351.008C5.90675 352.43 7.5949 353.558 9.45281 354.328C11.3107 355.097 13.302 355.493 15.313 355.493H46.219C44.208 355.493 42.2167 355.097 40.3588 354.328C38.5009 353.558 36.8128 352.43 35.3908 351.008C33.9688 349.586 32.8409 347.898 32.0714 346.04C31.3019 344.182 30.9059 342.191 30.906 340.18Z" fill="#F2564C"/>
<path d="M480.316 99.961H159.6C155.439 99.9607 151.319 100.78 147.475 102.372C143.631 103.964 140.138 106.298 137.195 109.24C134.253 112.183 131.919 115.676 130.327 119.52C128.735 123.364 127.916 127.484 127.916 131.645V149.25C127.916 151.411 128.341 153.551 129.168 155.548C129.995 157.545 131.208 159.359 132.736 160.887C134.264 162.415 136.078 163.628 138.075 164.455C140.072 165.282 142.212 165.707 144.373 165.707H495.543C497.704 165.707 499.844 165.282 501.841 164.455C503.838 163.628 505.652 162.415 507.18 160.887C508.708 159.359 509.921 157.545 510.748 155.548C511.575 153.551 512 151.411 512 149.25V131.645C512 123.242 508.662 115.183 502.72 109.241C496.778 103.299 488.719 99.961 480.316 99.961Z" fill="#FFD35B"/>
<path d="M158.82 149.25V131.645C158.82 127.484 159.639 123.365 161.231 119.521C162.823 115.677 165.156 112.184 168.098 109.242C171.04 106.3 174.532 103.966 178.376 102.373C182.22 100.781 186.339 99.9613 190.5 99.961H159.6C155.439 99.9607 151.319 100.78 147.475 102.372C143.631 103.964 140.138 106.298 137.195 109.24C134.253 112.183 131.919 115.676 130.327 119.52C128.735 123.364 127.916 127.484 127.916 131.645V149.25C127.916 151.411 128.341 153.551 129.168 155.548C129.995 157.545 131.208 159.359 132.736 160.887C134.264 162.415 136.078 163.628 138.075 164.455C140.072 165.282 142.212 165.707 144.373 165.707H175.273C173.112 165.707 170.972 165.281 168.976 164.454C166.98 163.626 165.166 162.414 163.638 160.886C162.11 159.358 160.899 157.544 160.072 155.547C159.245 153.551 158.82 151.411 158.82 149.25Z" fill="#FFBF50"/>
</svg>
