<svg width="512" height="512" viewBox="0 0 512 512" fill="none" xmlns="http://www.w3.org/2000/svg">
<path d="M188.215 45.516L230.586 114.262C233.26 118.599 236.999 122.179 241.447 124.663C245.896 127.146 250.906 128.45 256 128.45C261.095 128.45 266.105 127.146 270.553 124.663C275.002 122.179 278.741 118.599 281.414 114.262L323.785 45.516C326.573 40.993 328.103 35.808 328.217 30.4962C328.332 25.1844 327.027 19.9383 324.437 15.2994C321.846 10.6605 318.065 6.79692 313.483 4.10742C308.901 1.41793 303.684 2.25495e-06 298.371 0L213.629 0C208.316 2.25495e-06 203.1 1.41793 198.518 4.10742C193.936 6.79692 190.154 10.6605 187.564 15.2994C184.974 19.9383 183.669 25.1844 183.783 30.4962C183.898 35.808 185.428 40.993 188.215 45.516Z" fill="#E1B89A"/>
<path d="M274.641 121.949C234.938 102.938 239.512 34.844 247.078 0H213.629C190.266 0 175.957 25.629 188.215 45.516L230.586 114.262C232.805 117.859 235.762 120.944 239.261 123.314C242.76 125.684 246.722 127.285 250.885 128.012C255.048 128.738 259.318 128.573 263.413 127.528C267.508 126.483 271.335 124.582 274.641 121.949Z" fill="#D2996F"/>
<path d="M22.9802 142.738L101.554 161.386C106.511 162.562 111.686 162.451 116.588 161.062C121.489 159.673 125.953 157.052 129.555 153.45C133.158 149.848 135.778 145.384 137.168 140.482C138.557 135.581 138.669 130.406 137.492 125.449L118.844 46.875C117.617 41.7058 115.032 36.9578 111.357 33.121C107.682 29.2842 103.049 26.4976 97.9377 25.0489C92.826 23.6002 87.4204 23.5418 82.2787 24.8798C77.1369 26.2177 72.4454 28.9035 68.6882 32.66L8.76619 92.586C5.00981 96.3428 2.32405 101.034 0.986105 106.175C-0.351836 111.317 -0.293477 116.722 1.15516 121.833C2.6038 126.945 5.39022 131.577 9.22684 135.252C13.0635 138.926 17.8113 141.511 22.9802 142.738Z" fill="#E1B89A"/>
<path d="M22.9802 142.738L94.4452 159.7C68.8002 135.066 56.0942 74.82 70.6522 30.875C69.9842 31.438 69.3242 32.027 68.6872 32.66L8.7662 92.586C-7.7578 109.105 0.2502 137.344 22.9802 142.738Z" fill="#D2996F"/>
<path d="M489.02 142.738L410.45 161.386C405.494 162.563 400.318 162.451 395.417 161.062C390.515 159.673 386.051 157.053 382.448 153.45C378.845 149.848 376.225 145.384 374.835 140.483C373.446 135.581 373.333 130.406 374.509 125.449L393.157 46.875C398.557 24.145 426.794 16.141 443.313 32.66L503.235 92.586C506.993 96.3425 509.679 101.034 511.018 106.175C512.356 111.317 512.298 116.723 510.849 121.835C509.4 126.946 506.613 131.579 502.776 135.253C498.939 138.928 494.19 141.512 489.02 142.738Z" fill="#E1B89A"/>
<path d="M410.449 161.387L454.035 151.043C418.992 119.422 415.957 58.992 423.254 23.918C416.355 23.6665 409.583 25.818 404.094 30.0051C398.606 34.1921 394.741 40.1549 393.16 46.875L374.512 125.449C373.335 130.406 373.446 135.581 374.835 140.483C376.224 145.385 378.844 149.849 382.447 153.452C386.049 157.054 390.514 159.674 395.415 161.064C400.317 162.453 405.492 162.564 410.449 161.387Z" fill="#D2996F"/>
<path d="M440.855 64.227C440.855 65.7861 440.393 67.3102 439.527 68.6066C438.661 69.9029 437.429 70.9133 435.989 71.5099C434.549 72.1066 432.964 72.2627 431.434 71.9585C429.905 71.6544 428.501 70.9036 427.398 69.8011C426.296 68.6987 425.545 67.294 425.241 65.7649C424.937 64.2357 425.093 62.6507 425.689 61.2103C426.286 59.7699 427.296 58.5387 428.593 57.6725C429.889 56.8063 431.413 56.344 432.972 56.344C435.063 56.344 437.068 57.1745 438.546 58.6529C440.025 60.1312 440.855 62.1363 440.855 64.227Z" fill="#D2996F"/>
<path d="M425.09 112.289C425.09 113.848 424.628 115.372 423.762 116.669C422.896 117.965 421.664 118.975 420.224 119.572C418.783 120.169 417.198 120.325 415.669 120.021C414.14 119.716 412.736 118.966 411.633 117.863C410.531 116.761 409.78 115.356 409.476 113.827C409.172 112.298 409.328 110.713 409.924 109.272C410.521 107.832 411.531 106.601 412.828 105.735C414.124 104.868 415.648 104.406 417.207 104.406C419.298 104.406 421.303 105.237 422.781 106.715C424.26 108.193 425.09 110.198 425.09 112.289Z" fill="#E1B89A"/>
<path d="M481.848 116.2C481.849 117.76 481.386 119.284 480.52 120.581C479.654 121.878 478.422 122.889 476.982 123.486C475.541 124.083 473.955 124.24 472.425 123.936C470.896 123.631 469.49 122.88 468.388 121.778C467.285 120.675 466.534 119.27 466.23 117.74C465.925 116.21 466.082 114.625 466.679 113.184C467.276 111.743 468.287 110.511 469.584 109.645C470.881 108.779 472.405 108.317 473.965 108.317C476.056 108.318 478.06 109.148 479.539 110.626C481.017 112.105 481.848 114.109 481.848 116.2Z" fill="#D2996F"/>
<path d="M239.008 36.941C239.008 38.5001 238.546 40.0242 237.68 41.3206C236.813 42.6169 235.582 43.6273 234.142 44.224C232.701 44.8206 231.116 44.9767 229.587 44.6725C228.058 44.3684 226.654 43.6176 225.551 42.5151C224.449 41.4127 223.698 40.0081 223.394 38.4789C223.089 36.9498 223.246 35.3647 223.842 33.9243C224.439 32.4839 225.449 31.2527 226.746 30.3865C228.042 29.5203 229.566 29.058 231.125 29.058C232.161 29.0576 233.186 29.2613 234.142 29.6573C235.099 30.0533 235.968 30.6339 236.7 31.366C237.432 32.0981 238.013 32.9673 238.409 33.9239C238.805 34.8804 239.009 35.9057 239.008 36.941Z" fill="#E1B89A"/>
<path d="M263.883 85.176C263.883 86.7351 263.421 88.2592 262.555 89.5556C261.688 90.8519 260.457 91.8623 259.017 92.4589C257.576 93.0556 255.991 93.2117 254.462 92.9075C252.933 92.6034 251.529 91.8526 250.426 90.7501C249.324 89.6477 248.573 88.243 248.269 86.7139C247.964 85.1847 248.121 83.5997 248.717 82.1593C249.314 80.7189 250.324 79.4877 251.621 78.6215C252.917 77.7553 254.441 77.293 256 77.293C258.091 77.293 260.096 78.1235 261.574 79.6019C263.053 81.0802 263.883 83.0853 263.883 85.176Z" fill="#D2996F"/>
<path d="M288.785 52.711C288.784 54.2699 288.321 55.7936 287.455 57.0895C286.588 58.3853 285.356 59.3951 283.916 59.9911C282.475 60.5871 280.891 60.7427 279.362 60.438C277.833 60.1334 276.429 59.3823 275.327 58.2797C274.224 57.1771 273.474 55.7725 273.17 54.2434C272.866 52.7144 273.023 51.1296 273.619 49.6894C274.216 48.2492 275.227 47.0183 276.523 46.1523C277.819 45.2862 279.343 44.824 280.902 44.824C281.938 44.824 282.963 45.028 283.92 45.4244C284.876 45.8209 285.746 46.4019 286.478 47.1343C287.21 47.8667 287.79 48.7362 288.186 49.6931C288.582 50.65 288.786 51.6755 288.785 52.711Z" fill="#D2996F"/>
<path d="M110.656 134.855C110.656 136.414 110.194 137.938 109.328 139.235C108.461 140.531 107.23 141.541 105.79 142.138C104.349 142.735 102.764 142.891 101.235 142.587C99.7061 142.282 98.3015 141.532 97.199 140.429C96.0966 139.327 95.3458 137.922 95.0416 136.393C94.7374 134.864 94.8936 133.279 95.4902 131.838C96.0868 130.398 97.0972 129.167 98.3936 128.301C99.6899 127.434 101.214 126.972 102.773 126.972C104.864 126.973 106.868 127.803 108.347 129.281C109.825 130.76 110.656 132.764 110.656 134.855Z" fill="#D2996F"/>
<path d="M56.223 108.313C56.223 109.872 55.7607 111.396 54.8945 112.693C54.0283 113.989 52.7972 114.999 51.3567 115.596C49.9163 116.193 48.3313 116.349 46.8021 116.045C45.273 115.74 43.8684 114.99 42.7659 113.887C41.6635 112.785 40.9127 111.38 40.6085 109.851C40.3043 108.322 40.4604 106.737 41.0571 105.296C41.6537 103.856 42.6641 102.625 43.9605 101.759C45.2568 100.892 46.7809 100.43 48.34 100.43C50.4307 100.43 52.4358 101.261 53.9142 102.739C55.3925 104.217 56.223 106.222 56.223 108.313Z" fill="#E1B89A"/>
<path d="M94.891 68.672C94.891 70.2311 94.4287 71.7552 93.5625 73.0516C92.6963 74.3479 91.4651 75.3583 90.0247 75.9549C88.5843 76.5516 86.9993 76.7077 85.4701 76.4035C83.941 76.0994 82.5363 75.3486 81.4339 74.2461C80.3314 73.1437 79.5806 71.7391 79.2765 70.2099C78.9723 68.6807 79.1284 67.0957 79.7251 65.6553C80.3217 64.2149 81.3321 62.9837 82.6284 62.1175C83.9248 61.2513 85.4489 60.789 87.008 60.789C89.0987 60.789 91.1038 61.6195 92.5821 63.0979C94.0605 64.5762 94.891 66.5813 94.891 68.672Z" fill="#D2996F"/>
<path d="M357.074 177.051C353.369 176.568 349.822 175.246 346.703 173.187C343.584 171.128 340.975 168.386 339.074 165.168C330.528 150.745 318.373 138.796 303.807 130.497C289.241 122.197 272.765 117.832 256 117.832C239.236 117.832 222.76 122.197 208.194 130.497C193.628 138.796 181.473 150.745 172.926 165.168C171.026 168.386 168.417 171.128 165.298 173.187C162.179 175.246 158.632 176.568 154.926 177.051C130.922 180.258 108.998 192.367 93.5013 210.978C78.0044 229.589 70.0656 253.342 71.2584 277.531C73.6494 327.203 114.164 367.312 163.858 369.242C183.203 370.013 202.333 364.95 218.765 354.711C235.196 344.472 248.169 329.53 256 311.824C263.833 329.53 276.807 344.473 293.239 354.712C309.672 364.951 328.803 370.014 348.148 369.242C397.839 367.312 438.348 327.203 440.742 277.531C441.935 253.342 433.996 229.589 418.5 210.978C403.003 192.367 381.079 180.258 357.074 177.051Z" fill="#6FCE91"/>
<path d="M161.852 369.145C179.524 370.223 197.152 366.417 212.804 358.142C228.456 349.868 241.529 337.445 250.59 322.235C215.371 285.403 217.969 250.161 228.328 226.891C229.897 223.342 230.178 219.357 229.123 215.623C228.068 211.889 225.742 208.64 222.547 206.438C204.492 193.754 192.34 164.368 198.192 137.063C188.007 144.688 179.421 154.241 172.922 165.18C171.014 168.398 168.398 171.14 165.274 173.198C162.149 175.256 158.597 176.576 154.887 177.059C130.896 180.272 108.986 192.379 93.4973 210.981C78.009 229.583 70.0719 253.323 71.2582 277.5C73.6002 326.426 112.961 366.262 161.852 369.145Z" fill="#3CB767"/>
<path d="M138.316 238.914C136.999 238.913 135.706 238.565 134.566 237.906C133.427 237.246 132.481 236.298 131.824 235.157C131.166 234.016 130.821 232.722 130.823 231.405C130.824 230.089 131.172 228.796 131.832 227.656C133.986 223.93 137.051 220.812 140.741 218.596C144.431 216.38 148.623 215.139 152.925 214.989C157.226 214.839 161.495 215.785 165.33 217.739C169.165 219.692 172.44 222.589 174.848 226.156C175.41 226.972 175.805 227.891 176.01 228.86C176.215 229.83 176.225 230.83 176.041 231.803C175.857 232.777 175.482 233.704 174.938 234.532C174.394 235.36 173.691 236.071 172.87 236.626C172.048 237.18 171.126 237.567 170.155 237.763C169.183 237.959 168.183 237.96 167.211 237.767C166.24 237.574 165.316 237.191 164.493 236.639C163.67 236.087 162.965 235.377 162.418 234.551C161.433 233.091 160.093 231.905 158.523 231.105C156.954 230.305 155.206 229.918 153.446 229.979C151.685 230.04 149.969 230.548 148.459 231.455C146.949 232.362 145.694 233.639 144.813 235.164C144.156 236.305 143.209 237.253 142.068 237.912C140.928 238.57 139.633 238.916 138.316 238.914Z" fill="#6FCE91"/>
<path d="M349.57 251.074C348.254 251.072 346.961 250.724 345.822 250.064C344.683 249.404 343.737 248.456 343.08 247.315C342.424 246.175 342.079 244.881 342.081 243.564C342.082 242.248 342.43 240.955 343.09 239.816C345.244 236.09 348.309 232.972 351.999 230.756C355.689 228.54 359.881 227.299 364.182 227.149C368.484 226.999 372.753 227.945 376.588 229.899C380.423 231.852 383.698 234.749 386.106 238.316C386.658 239.132 387.043 240.049 387.24 241.014C387.437 241.979 387.443 242.974 387.256 243.941C387.068 244.908 386.693 245.829 386.15 246.651C385.607 247.473 384.907 248.179 384.091 248.731C383.275 249.283 382.358 249.668 381.393 249.865C380.428 250.062 379.433 250.068 378.466 249.881C377.499 249.693 376.578 249.318 375.756 248.775C374.934 248.232 374.228 247.532 373.676 246.716C372.692 245.255 371.352 244.068 369.782 243.268C368.213 242.468 366.465 242.079 364.705 242.14C362.944 242.201 361.228 242.709 359.717 243.616C358.207 244.523 356.952 245.799 356.071 247.325C355.412 248.466 354.464 249.413 353.323 250.071C352.182 250.729 350.887 251.075 349.57 251.074Z" fill="#3CB767"/>
<path d="M250.586 186.484C249.269 186.483 247.976 186.135 246.837 185.476C245.697 184.816 244.751 183.868 244.094 182.727C243.436 181.586 243.091 180.292 243.093 178.975C243.094 177.659 243.442 176.366 244.102 175.226C246.255 171.499 249.32 168.38 253.01 166.164C256.7 163.947 260.893 162.706 265.195 162.556C269.496 162.406 273.765 163.352 277.601 165.306C281.436 167.26 284.711 170.158 287.118 173.726C287.68 174.542 288.075 175.461 288.28 176.43C288.485 177.4 288.495 178.4 288.311 179.373C288.127 180.347 287.752 181.274 287.208 182.102C286.664 182.93 285.961 183.641 285.14 184.196C284.319 184.75 283.396 185.137 282.425 185.333C281.453 185.529 280.453 185.53 279.481 185.337C278.51 185.144 277.586 184.761 276.763 184.209C275.94 183.657 275.235 182.947 274.688 182.121C273.704 180.66 272.364 179.473 270.794 178.672C269.224 177.872 267.477 177.484 265.716 177.546C263.955 177.607 262.238 178.115 260.728 179.023C259.218 179.931 257.964 181.208 257.083 182.734C256.425 183.874 255.478 184.821 254.337 185.48C253.197 186.138 251.903 186.484 250.586 186.484Z" fill="#3CB767"/>
<path d="M343.789 512H168.211C158.794 511.999 149.481 510.025 140.873 506.203C132.266 502.382 124.555 496.798 118.238 489.813L91.0823 459.773C51.8661 416.396 30.1529 360.003 30.1523 301.527C30.1525 297.749 30.8968 294.008 32.3427 290.518C33.7886 287.028 35.9079 283.856 38.5794 281.185C41.251 278.514 44.4225 276.395 47.913 274.95C51.4035 273.504 55.1444 272.761 58.9223 272.761H453.078C460.708 272.761 468.024 275.792 473.419 281.186C478.814 286.581 481.844 293.898 481.844 301.527C481.846 360.004 460.132 416.397 420.914 459.773L393.762 489.812C387.446 496.797 379.735 502.381 371.128 506.203C362.52 510.024 353.207 511.999 343.789 512Z" fill="#F7EF87"/>
<path d="M58.9223 272.762C55.1446 272.762 51.404 273.506 47.914 274.952C44.4239 276.397 41.2528 278.516 38.5816 281.187C35.9104 283.859 33.7916 287.03 32.3459 290.52C30.9003 294.01 30.1563 297.75 30.1563 301.528C30.155 360.005 51.8684 416.398 91.0863 459.774L118.238 489.813C124.555 496.798 132.266 502.382 140.873 506.203C149.481 510.025 158.794 511.999 168.211 512H258.129C203.329 483.387 182.113 347.461 201.996 272.762H58.9223Z" fill="#EFD176"/>
<path d="M395.6 404.086C389.096 410.577 380.28 414.221 371.09 414.216C361.901 414.211 353.089 410.558 346.591 404.06C340.093 397.562 336.44 388.751 336.436 379.561C336.431 370.371 340.074 361.556 346.565 355.051C360.104 341.512 398.073 325.496 411.612 339.035C425.151 352.574 409.137 390.543 395.6 404.086Z" fill="#6FCE91"/>
<path d="M275.02 404.086C268.506 410.534 259.705 414.141 250.539 414.118C241.373 414.095 232.59 410.443 226.109 403.962C219.629 397.48 215.978 388.697 215.955 379.531C215.933 370.366 219.54 361.564 225.989 355.051C239.528 341.512 277.497 325.496 291.036 339.035C304.575 352.574 288.559 390.543 275.02 404.086Z" fill="#6FCE91"/>
<path d="M154.441 404.086C147.928 410.534 139.126 414.141 129.96 414.118C120.795 414.095 112.011 410.443 105.531 403.962C99.0499 397.48 95.3991 388.697 95.3766 379.531C95.354 370.366 98.9616 361.564 105.41 355.051C118.949 341.512 156.918 325.496 170.457 339.035C183.996 352.574 167.984 390.543 154.441 404.086Z" fill="#3CB767"/>
<path d="M88.9004 457.3C89.6274 458.124 90.3454 458.956 91.0804 459.769L118.236 489.808C124.553 496.794 132.264 502.379 140.872 506.201C149.479 510.024 158.793 511.999 168.211 512H343.785C353.204 512 362.517 510.025 371.126 506.204C379.734 502.382 387.445 496.799 393.762 489.813L420.918 459.774C421.652 458.962 422.371 458.133 423.098 457.305L88.9004 457.3Z" fill="#EDA1AB"/>
<path d="M91.0864 459.773L118.238 489.808C124.554 496.795 132.265 502.379 140.872 506.202C149.48 510.024 158.793 511.999 168.211 512H258.129C240.641 502.867 226.574 482.82 216.172 457.3H88.9004C89.6294 458.129 90.3484 458.961 91.0864 459.773Z" fill="#E26E7E"/>
<path d="M197.316 334.328C195.327 334.328 193.42 333.538 192.013 332.131C190.607 330.725 189.816 328.817 189.816 326.828V314.281C189.816 312.292 190.607 310.384 192.013 308.978C193.42 307.571 195.327 306.781 197.316 306.781C199.306 306.781 201.213 307.571 202.62 308.978C204.026 310.384 204.816 312.292 204.816 314.281V326.828C204.816 328.817 204.026 330.725 202.62 332.131C201.213 333.538 199.306 334.328 197.316 334.328Z" fill="white"/>
<path d="M75.1372 334.328C73.1481 334.328 71.2404 333.538 69.8339 332.131C68.4274 330.725 67.6372 328.817 67.6372 326.828V314.281C67.6372 312.292 68.4274 310.384 69.8339 308.978C71.2404 307.571 73.1481 306.781 75.1372 306.781C77.1263 306.781 79.034 307.571 80.4405 308.978C81.847 310.384 82.6372 312.292 82.6372 314.281V326.828C82.6372 328.817 81.847 330.725 80.4405 332.131C79.034 333.538 77.1263 334.328 75.1372 334.328Z" fill="white"/>
<path d="M314.684 334.328C312.695 334.328 310.787 333.538 309.381 332.131C307.974 330.725 307.184 328.817 307.184 326.828V314.281C307.184 312.292 307.974 310.384 309.381 308.978C310.787 307.571 312.695 306.781 314.684 306.781C316.673 306.781 318.581 307.571 319.987 308.978C321.394 310.384 322.184 312.292 322.184 314.281V326.828C322.184 328.817 321.394 330.725 319.987 332.131C318.581 333.538 316.673 334.328 314.684 334.328Z" fill="white"/>
<path d="M436.863 334.328C434.874 334.328 432.966 333.538 431.56 332.131C430.153 330.725 429.363 328.817 429.363 326.828V314.281C429.363 312.292 430.153 310.384 431.56 308.978C432.966 307.571 434.874 306.781 436.863 306.781C438.852 306.781 440.76 307.571 442.167 308.978C443.573 310.384 444.363 312.292 444.363 314.281V326.828C444.363 328.817 443.573 330.725 442.167 332.131C440.76 333.538 438.852 334.328 436.863 334.328Z" fill="white"/>
</svg>
