<svg width="512" height="512" viewBox="0 0 512 512" fill="none" xmlns="http://www.w3.org/2000/svg">
<path d="M352.73 172.671L341.219 184.179C339.334 186.064 336.776 187.124 334.11 187.124C331.443 187.124 328.886 186.064 327 184.179L315.492 172.671C313.607 170.785 312.548 168.228 312.548 165.561C312.548 162.895 313.607 160.338 315.492 158.452L327 146.944C328.886 145.059 331.443 143.999 334.11 143.999C336.776 143.999 339.334 145.059 341.219 146.944L352.73 158.452C354.616 160.338 355.675 162.895 355.675 165.561C355.675 168.228 354.616 170.785 352.73 172.671Z" fill="#F6E3A3"/>
<path d="M159.27 172.671L170.781 184.179C171.715 185.112 172.823 185.853 174.042 186.358C175.262 186.863 176.569 187.123 177.889 187.123C179.209 187.123 180.516 186.863 181.735 186.358C182.955 185.853 184.063 185.112 184.996 184.179L196.508 172.671C198.394 170.785 199.453 168.228 199.453 165.561C199.453 162.895 198.394 160.338 196.508 158.452L185 146.944C184.067 146.011 182.959 145.27 181.739 144.765C180.52 144.26 179.213 144 177.893 144C176.573 144 175.266 144.26 174.046 144.765C172.827 145.27 171.719 146.011 170.785 146.944L159.27 158.452C157.385 160.338 156.326 162.895 156.326 165.561C156.326 168.228 157.385 170.785 159.27 172.671Z" fill="#F6E3A3"/>
<path d="M274.191 160.222V176.499C274.191 177.819 273.931 179.126 273.426 180.345C272.921 181.565 272.181 182.673 271.247 183.606C270.314 184.539 269.206 185.28 267.986 185.785C266.767 186.29 265.46 186.55 264.14 186.55H247.859C245.194 186.55 242.637 185.491 240.753 183.606C238.868 181.721 237.809 179.164 237.809 176.499V160.222C237.809 157.556 238.868 155 240.753 153.115C242.637 151.23 245.194 150.171 247.859 150.171H264.14C266.806 150.171 269.362 151.23 271.247 153.115C273.132 155 274.191 157.556 274.191 160.222Z" fill="#F6E3A3"/>
<path d="M256 305.776C154.211 305.776 101.023 290.999 37.0004 270.12C30.3081 267.938 24.1112 264.459 18.7634 259.883C13.4155 255.306 9.02154 249.72 5.83227 243.445C-0.60876 230.773 -1.75171 216.06 2.65486 202.544C7.06144 189.029 16.6566 177.817 29.3294 171.376C42.0023 164.935 56.7148 163.792 70.2304 168.199C128.191 187.099 169.617 198.577 256 198.577C342.383 198.577 383.809 187.099 441.77 168.199C448.463 166.017 455.519 165.175 462.537 165.72C469.555 166.265 476.396 168.187 482.671 171.376C488.946 174.566 494.532 178.96 499.108 184.307C503.685 189.655 507.164 195.852 509.346 202.544C511.528 209.237 512.37 216.293 511.825 223.311C511.28 230.329 509.358 237.17 506.168 243.445C502.979 249.72 498.585 255.306 493.237 259.883C487.89 264.459 481.693 267.938 475 270.12C410.977 290.999 357.789 305.776 256 305.776Z" fill="#EDA1AB"/>
<path d="M470.391 203.581C469.442 203.844 468.45 203.917 467.473 203.796C466.495 203.676 465.551 203.364 464.694 202.878C463.837 202.393 463.084 201.743 462.478 200.966C461.872 200.19 461.425 199.302 461.163 198.352C460.9 197.403 460.827 196.412 460.948 195.434C461.068 194.457 461.38 193.512 461.866 192.655C462.351 191.798 463.001 191.046 463.777 190.44C464.554 189.834 465.442 189.387 466.391 189.124C476.016 186.464 490.985 185.702 501.7 187.593C505.018 192.144 507.597 197.191 509.341 202.546C509.708 203.679 510.025 204.819 510.318 205.964C505.111 213.558 498.431 221.941 490.084 227.902C489.284 228.499 488.373 228.931 487.404 229.172C486.436 229.412 485.429 229.457 484.442 229.303C483.456 229.15 482.51 228.801 481.66 228.277C480.811 227.753 480.074 227.064 479.494 226.252C478.913 225.44 478.501 224.52 478.281 223.546C478.061 222.572 478.038 221.565 478.212 220.582C478.387 219.599 478.756 218.661 479.297 217.822C479.839 216.984 480.543 216.262 481.367 215.699C486.48 212.051 490.996 206.969 494.847 201.82C487.77 201.237 477.914 201.499 470.391 203.581Z" fill="#E26E7E"/>
<path d="M70.2304 168.199C56.7148 163.792 42.0023 164.935 29.3294 171.376C16.6566 177.817 7.06144 189.029 2.65486 202.544C-1.75171 216.06 -0.60876 230.773 5.83227 243.445C12.2733 256.118 23.4848 265.713 37.0004 270.12C77.3754 283.288 113.449 294.02 160.109 300.159C128.457 280.929 106.8 223.159 125.027 184.487C107.078 179.983 89.5744 174.511 70.2304 168.199Z" fill="#E26E7E"/>
<path d="M256 368.249C170.992 368.249 118.816 357.749 66.6372 341.972C59.8992 339.936 53.6283 336.592 48.1826 332.132C42.7368 327.672 38.2228 322.183 34.8983 315.978C31.5739 309.774 29.504 302.975 28.8069 295.971C28.1099 288.967 28.7993 281.893 30.8357 275.155C32.8722 268.417 36.2159 262.147 40.6759 256.701C45.1358 251.255 50.6248 246.741 56.8292 243.417C63.0337 240.092 69.8323 238.022 76.8367 237.325C83.8411 236.628 90.9142 237.317 97.6522 239.354C141.961 252.749 183.902 261.054 256 261.054C328.098 261.054 370.039 252.754 414.348 239.354C427.956 235.241 442.641 236.702 455.171 243.416C467.702 250.13 477.052 261.547 481.165 275.154C485.278 288.762 483.817 303.447 477.103 315.977C470.389 328.508 458.972 337.858 445.364 341.971C393.18 357.741 341.008 368.249 256 368.249Z" fill="#F7EF87"/>
<path d="M97.6522 239.354C90.9142 237.318 83.8411 236.628 76.8367 237.325C69.8323 238.022 63.0337 240.092 56.8292 243.417C50.6248 246.741 45.1358 251.255 40.6759 256.701C36.2159 262.147 32.8722 268.417 30.8357 275.155C28.7993 281.893 28.1099 288.967 28.8069 295.971C29.504 302.975 31.5739 309.774 34.8983 315.978C38.2228 322.183 42.7368 327.672 48.1826 332.132C53.6283 336.592 59.8992 339.936 66.6372 341.972C105.837 353.82 145.028 362.691 198.137 366.378C163.477 339.534 170.532 278.405 186.237 257.753C152.293 254.147 125.434 247.753 97.6522 239.354Z" fill="#EFD176"/>
<path d="M256.001 225.199C244.476 225.218 233.261 221.473 224.06 214.535C221.804 212.841 219.09 211.866 216.272 211.736C213.453 211.606 210.662 212.328 208.26 213.808C208.213 213.839 208.166 213.867 208.119 213.894C198.606 219.827 187.452 222.577 176.273 221.745C165.093 220.914 154.468 216.544 145.939 209.269L129.209 195.069C127.257 193.413 125.651 191.388 124.481 189.111C123.312 186.835 122.603 184.35 122.394 181.798C121.972 176.646 123.614 171.537 126.959 167.596C130.303 163.654 135.077 161.203 140.229 160.781C145.381 160.359 150.49 162.001 154.432 165.346L171.162 179.546C173.414 181.466 176.219 182.619 179.17 182.837C182.121 183.056 185.065 182.328 187.576 180.761C187.623 180.734 187.666 180.706 187.713 180.675C196.815 175.078 207.391 172.349 218.065 172.841C228.74 173.334 239.019 177.026 247.568 183.437C249.998 185.263 252.955 186.251 255.995 186.251C259.035 186.251 261.992 185.263 264.423 183.437C272.965 177.032 283.235 173.342 293.9 172.845C304.565 172.347 315.134 175.066 324.236 180.648L324.42 180.761C326.93 182.328 329.874 183.056 332.825 182.837C335.776 182.619 338.582 181.466 340.834 179.546L357.568 165.346C361.509 162.002 366.618 160.36 371.769 160.783C376.921 161.205 381.694 163.656 385.039 167.598C388.383 171.539 390.024 176.648 389.602 181.8C389.18 186.952 386.728 191.725 382.787 195.069L366.057 209.269C357.532 216.535 346.917 220.902 335.747 221.738C324.578 222.574 313.431 219.837 303.92 213.921C303.858 213.882 303.772 213.831 303.736 213.808C301.334 212.328 298.542 211.606 295.723 211.736C292.905 211.865 290.191 212.841 287.936 214.535C278.736 221.473 267.523 225.217 256.001 225.199Z" fill="#E26E7E"/>
<path d="M41.6092 203.581C43.5263 204.111 45.5756 203.859 47.3063 202.878C49.037 201.897 50.3073 200.27 50.8377 198.352C51.3681 196.435 51.1153 194.386 50.1347 192.655C49.1542 190.925 47.5263 189.654 45.6092 189.124C35.9802 186.464 21.0122 185.699 10.3002 187.593C6.98109 192.144 4.40133 197.19 2.6562 202.546C2.2852 203.679 1.9722 204.819 1.6792 205.964C6.8872 213.558 13.5662 221.94 21.9142 227.899C23.534 228.997 25.5188 229.418 27.445 229.073C29.3711 228.728 31.0861 227.643 32.2239 226.051C33.3617 224.459 33.8322 222.486 33.535 220.552C33.2378 218.617 32.1965 216.876 30.6332 215.699C25.5202 212.046 21.0002 206.964 17.1522 201.815C24.2302 201.237 34.0862 201.499 41.6092 203.581Z" fill="#EDA1AB"/>
<path d="M428.535 326.206C428.536 327.639 428.111 329.039 427.316 330.231C426.52 331.422 425.389 332.351 424.065 332.9C422.742 333.448 421.285 333.592 419.88 333.313C418.475 333.034 417.184 332.344 416.17 331.332C415.157 330.319 414.467 329.028 414.187 327.623C413.907 326.218 414.05 324.761 414.598 323.438C415.146 322.114 416.074 320.982 417.265 320.186C418.456 319.39 419.857 318.964 421.289 318.964C423.21 318.965 425.052 319.728 426.411 321.086C427.769 322.444 428.534 324.285 428.535 326.206Z" fill="#EFD176"/>
<path d="M387.816 287.39C387.816 288.823 387.39 290.223 386.594 291.414C385.798 292.605 384.666 293.533 383.342 294.081C382.019 294.629 380.562 294.772 379.157 294.492C377.752 294.213 376.461 293.522 375.448 292.509C374.436 291.495 373.746 290.205 373.467 288.799C373.188 287.394 373.332 285.937 373.88 284.614C374.429 283.29 375.358 282.159 376.549 281.364C377.741 280.568 379.141 280.144 380.574 280.144C381.526 280.144 382.468 280.331 383.346 280.696C384.225 281.06 385.024 281.594 385.696 282.267C386.369 282.939 386.902 283.738 387.266 284.617C387.63 285.496 387.817 286.439 387.816 287.39Z" fill="#EFD176"/>
<path d="M135.884 311.831C135.883 313.264 135.458 314.664 134.662 315.855C133.866 317.046 132.734 317.974 131.411 318.522C130.087 319.07 128.631 319.213 127.226 318.934C125.821 318.654 124.53 317.964 123.517 316.951C122.504 315.938 121.814 314.648 121.535 313.243C121.255 311.838 121.399 310.381 121.947 309.058C122.495 307.734 123.423 306.603 124.614 305.807C125.805 305.011 127.205 304.585 128.638 304.585C129.589 304.585 130.531 304.772 131.411 305.136C132.29 305.5 133.089 306.034 133.761 306.707C134.434 307.38 134.968 308.179 135.332 309.058C135.696 309.937 135.884 310.879 135.884 311.831Z" fill="#F7EF87"/>
<path d="M83.1252 280.144C83.1256 281.577 82.7011 282.977 81.9055 284.169C81.1098 285.36 79.9787 286.289 78.6552 286.838C77.3317 287.386 75.8752 287.53 74.4699 287.251C73.0647 286.972 71.7737 286.282 70.7603 285.27C69.747 284.257 69.0567 282.966 68.7768 281.561C68.4969 280.156 68.6399 278.699 69.1879 277.376C69.7358 276.052 70.664 274.92 71.855 274.124C73.0461 273.328 74.4465 272.902 75.8792 272.902C77.8003 272.902 79.6427 273.665 81.0015 275.023C82.3603 276.381 83.1242 278.223 83.1252 280.144Z" fill="#F7EF87"/>
</svg>
