<svg width="513" height="512" viewBox="0 0 513 512" fill="none" xmlns="http://www.w3.org/2000/svg">
<path d="M462.231 122.09L445.075 104.934L411.716 138.293L398.416 185.906L418.479 200.156L451.833 166.8L462.231 122.09Z" fill="#FFD35B"/>
<path d="M507.411 89.074L495.247 76.91C493.115 74.778 490.413 73.3061 487.466 72.6707C484.519 72.0354 481.451 72.2636 478.63 73.328L463.673 120.648L485.201 133.434L507.411 111.223C508.866 109.769 510.021 108.043 510.809 106.143C511.596 104.243 512.002 102.206 512.002 100.149C512.002 98.0914 511.596 96.0545 510.809 94.1543C510.021 92.254 508.866 90.5277 507.411 89.074Z" fill="#FFD35B"/>
<path d="M418.478 200.156L385.111 233.523L378.353 171.66L411.716 138.293L418.478 200.156Z" fill="#F7E491"/>
<path d="M485.201 133.434L451.833 166.8L445.075 104.937L473.101 76.91C474.67 75.3388 476.555 74.1191 478.632 73.332L485.201 133.434Z" fill="#F7E491"/>
<path d="M4.59073 89.074L16.7547 76.91C18.8866 74.778 21.5881 73.3061 24.5355 72.6707C27.4828 72.0354 30.5508 72.2636 33.3717 73.328L48.3287 120.648L26.8007 133.434L4.59073 111.223C3.1354 109.769 1.98087 108.043 1.19316 106.143C0.405448 104.243 0 102.206 0 100.149C0 98.092 0.405448 96.0553 1.19316 94.1551C1.98087 92.2549 3.1354 90.5287 4.59073 89.075V89.074Z" fill="#FFD35B"/>
<path d="M49.7708 122.09L66.9268 104.934L100.286 138.293L113.586 185.906L93.5238 200.156L60.1688 166.8L49.7708 122.09Z" fill="#FFD35B"/>
<path d="M93.5237 200.156L126.891 233.523L133.649 171.66L100.286 138.293L93.5237 200.156Z" fill="#F7E491"/>
<path d="M26.8008 133.434L60.1688 166.8L66.9268 104.937L38.9008 76.91C37.3307 75.3389 35.4457 74.1181 33.3698 73.328L26.8008 133.434Z" fill="#F7E491"/>
<path d="M135.689 135.422C127.526 155.195 124.364 176.675 126.48 197.962C128.596 219.249 135.926 239.686 147.821 257.465C159.716 275.244 175.81 289.817 194.679 299.896C213.548 309.974 234.61 315.246 256.001 315.246C277.393 315.246 298.455 309.974 317.323 299.896C336.192 289.817 352.286 275.244 364.181 257.465C376.077 239.686 383.407 219.249 385.523 197.962C387.639 176.675 384.476 155.195 376.314 135.422L325.341 106.3H174.263L135.689 135.422Z" fill="#FFB1BC"/>
<path d="M58.4387 280.035C50.2786 299.807 47.1172 321.286 49.2344 342.571C51.3515 363.856 58.6819 384.292 70.5771 402.069C82.4722 419.847 98.5655 434.419 117.433 444.496C136.301 454.573 157.361 459.845 178.751 459.845C200.141 459.845 221.202 454.573 240.069 444.496C258.937 434.419 275.03 419.847 286.925 402.069C298.821 384.292 306.151 363.856 308.268 342.571C310.385 321.286 307.224 299.807 299.064 280.035L248.091 250.918H97.0127L58.4387 280.035Z" fill="#F7E491"/>
<path d="M58.4387 280.035C67.7978 277.788 77.6558 279.047 86.1497 283.574C91.8495 286.613 98.2098 288.203 104.669 288.203C111.129 288.203 117.489 286.613 123.189 283.574C128.889 280.535 135.25 278.945 141.71 278.945C148.17 278.945 154.531 280.535 160.232 283.574C165.932 286.613 172.292 288.203 178.751 288.203C185.211 288.203 191.571 286.613 197.271 283.574C202.971 280.535 209.332 278.945 215.792 278.945C222.252 278.945 228.613 280.535 234.314 283.574C240.014 286.613 246.374 288.203 252.833 288.203C259.293 288.203 265.653 286.613 271.353 283.574C279.846 279.044 289.705 277.785 299.064 280.035C289.214 256.232 272.525 235.886 251.109 221.57C229.693 207.255 204.511 199.614 178.751 199.614C152.991 199.614 127.81 207.255 106.393 221.57C84.9769 235.886 68.2882 256.232 58.4387 280.035Z" fill="#B3724D"/>
<path d="M135.689 135.422C145.048 133.173 154.907 134.432 163.401 138.961C169.101 142 175.461 143.59 181.92 143.59C188.38 143.59 194.74 142 200.44 138.961C206.14 135.922 212.501 134.332 218.961 134.332C225.421 134.332 231.782 135.922 237.483 138.961C243.183 142 249.544 143.59 256.004 143.59C262.464 143.59 268.825 142 274.526 138.961C280.226 135.922 286.586 134.332 293.045 134.332C299.505 134.332 305.865 135.922 311.565 138.961C317.265 142 323.626 143.59 330.086 143.59C336.546 143.59 342.907 142 348.608 138.961C357.099 134.431 366.957 133.172 376.315 135.422C366.465 111.619 349.776 91.2727 328.36 76.9572C306.944 62.6417 281.762 55.0006 256.002 55.0006C230.242 55.0006 205.061 62.6417 183.644 76.9572C162.228 91.2727 145.539 111.619 135.69 135.422H135.689Z" fill="#BF805C"/>
<path d="M453.564 280.035C461.724 299.807 464.885 321.286 462.768 342.571C460.651 363.856 453.321 384.292 441.425 402.069C429.53 419.847 413.437 434.419 394.569 444.496C375.702 454.573 354.641 459.845 333.251 459.845C311.861 459.845 290.801 454.573 271.933 444.496C253.065 434.419 236.972 419.847 225.077 402.069C213.182 384.292 205.852 363.856 203.734 342.571C201.617 321.286 204.779 299.807 212.939 280.035L263.912 250.918H414.989L453.564 280.035Z" fill="#FFBF50"/>
<path d="M466.974 334.863C458.038 328.942 447.555 325.784 436.835 325.784C426.115 325.784 415.633 328.942 406.697 334.863C397.761 340.784 387.278 343.942 376.558 343.942C365.838 343.942 355.356 340.784 346.42 334.863C337.484 328.942 327.001 325.784 316.281 325.784C305.561 325.784 295.079 328.942 286.143 334.863C277.206 340.784 266.724 343.942 256.004 343.942C245.284 343.942 234.802 340.784 225.866 334.863C216.93 328.942 206.447 325.784 195.727 325.784C185.007 325.784 174.525 328.942 165.589 334.863C156.653 340.784 146.17 343.942 135.45 343.942C124.73 343.942 114.248 340.784 105.312 334.863C96.3755 328.942 85.8931 325.784 75.1732 325.784C64.4533 325.784 53.9708 328.942 45.0347 334.863C36.6356 340.427 30.501 348.809 27.7372 358.497C24.9734 368.185 25.7623 378.542 29.9617 387.7L61.3007 456.07C67.5117 469.617 77.4808 481.096 90.0236 489.144C102.567 497.192 117.156 501.47 132.059 501.47H379.946C394.848 501.47 409.438 497.192 421.981 489.144C434.524 481.096 444.493 469.617 450.704 456.07L482.048 387.7C486.245 378.542 487.032 368.185 484.268 358.498C481.505 348.81 475.371 340.428 466.974 334.863Z" fill="#A1D3E8"/>
<path d="M92.2077 456.07L60.8597 387.7C56.6622 378.543 55.8744 368.187 58.6383 358.5C61.4022 348.813 67.536 340.432 75.9337 334.868C80.4609 331.867 85.4118 329.56 90.6217 328.024C82.983 325.768 74.943 325.212 67.0663 326.394C59.1897 327.576 51.6674 330.469 45.0277 334.868C36.6303 340.432 30.4972 348.813 27.734 358.5C24.9708 368.187 25.7594 378.543 29.9577 387.7L61.3007 456.07C67.5117 469.617 77.4808 481.096 90.0236 489.144C102.567 497.192 117.156 501.47 132.059 501.47H162.965C148.062 501.47 133.473 497.192 120.93 489.144C108.387 481.096 98.4182 469.617 92.2077 456.07Z" fill="#75BDDB"/>
<path d="M453.564 280.035C444.205 277.788 434.347 279.047 425.853 283.574C420.153 286.613 413.793 288.203 407.333 288.203C400.874 288.203 394.514 286.613 388.814 283.574C383.113 280.535 376.752 278.945 370.292 278.945C363.832 278.945 357.471 280.535 351.771 283.574C346.071 286.613 339.711 288.203 333.251 288.203C326.792 288.203 320.432 286.613 314.732 283.574C309.031 280.535 302.67 278.945 296.21 278.945C289.75 278.945 283.389 280.535 277.689 283.574C271.989 286.613 265.629 288.203 259.169 288.203C252.71 288.203 246.35 286.613 240.65 283.574C232.157 279.044 222.298 277.785 212.939 280.035C222.788 256.232 239.477 235.886 260.893 221.57C282.31 207.255 307.491 199.614 333.251 199.614C359.011 199.614 384.193 207.255 405.609 221.57C427.025 235.886 443.714 256.232 453.564 280.035Z" fill="#BF805C"/>
</svg>
