<svg width="512" height="512" viewBox="0 0 512 512" fill="none" xmlns="http://www.w3.org/2000/svg">
<path d="M504.993 205L344.417 44.414C321.102 21.0986 289.479 8.00009 256.506 8.00009C223.533 8.00009 191.91 21.0986 168.595 44.414L8.00903 205V445H505V205H504.993Z" fill="#FFB357"/>
<path d="M391.5 8H121.5C113.544 8 105.913 11.1607 100.287 16.7868C94.6607 22.4129 91.5 30.0435 91.5 38V445H421.5V38C421.5 30.0435 418.339 22.4129 412.713 16.7868C407.087 11.1607 399.456 8 391.5 8V8Z" fill="#64B3FB"/>
<path d="M121.5 8C113.544 8 105.913 11.1607 100.287 16.7868C94.6607 22.4129 91.5 30.0435 91.5 38V445H212.5C212.5 144.407 212.414 228.947 212.832 61.687C214.392 46.9495 221.351 33.3109 232.368 23.3984C243.385 13.4859 257.68 8.00085 272.5 8L121.5 8Z" fill="#4293DD"/>
<path d="M367.975 160.854C360.665 160.862 353.658 163.769 348.489 168.938C343.32 174.106 340.413 181.114 340.405 188.424C340.405 190.015 339.773 191.541 338.648 192.667C337.522 193.792 335.996 194.424 334.405 194.424C332.814 194.424 331.288 193.792 330.162 192.667C329.037 191.541 328.405 190.015 328.405 188.424V176.747C328.405 174.758 327.615 172.85 326.208 171.444C324.802 170.037 322.894 169.247 320.905 169.247C318.916 169.247 317.008 170.037 315.602 171.444C314.195 172.85 313.405 174.758 313.405 176.747V188.424C313.405 193.994 315.618 199.335 319.556 203.273C323.494 207.212 328.835 209.424 334.405 209.424C339.975 209.424 345.316 207.212 349.254 203.273C353.193 199.335 355.405 193.994 355.405 188.424C355.405 185.09 356.729 181.893 359.087 179.536C361.444 177.178 364.641 175.854 367.975 175.854C371.309 175.854 374.506 177.178 376.863 179.536C379.221 181.893 380.545 185.09 380.545 188.424C380.545 190.413 381.335 192.321 382.742 193.727C384.148 195.134 386.056 195.924 388.045 195.924C390.034 195.924 391.942 195.134 393.348 193.727C394.755 192.321 395.545 190.413 395.545 188.424C395.537 181.114 392.63 174.106 387.461 168.938C382.293 163.769 375.285 160.862 367.975 160.854Z" fill="#D4D4FF"/>
<path d="M192.1 169.247C190.111 169.247 188.203 170.037 186.797 171.444C185.39 172.85 184.6 174.758 184.6 176.747V188.424C184.6 190.015 183.968 191.541 182.843 192.667C181.717 193.792 180.191 194.424 178.6 194.424C177.009 194.424 175.483 193.792 174.357 192.667C173.232 191.541 172.6 190.015 172.6 188.424C172.6 181.112 169.695 174.099 164.525 168.929C159.355 163.759 152.342 160.854 145.03 160.854C137.718 160.854 130.705 163.759 125.535 168.929C120.365 174.099 117.46 181.112 117.46 188.424C117.46 190.413 118.25 192.321 119.657 193.727C121.063 195.134 122.971 195.924 124.96 195.924C126.949 195.924 128.857 195.134 130.263 193.727C131.67 192.321 132.46 190.413 132.46 188.424C132.46 185.09 133.784 181.893 136.142 179.536C138.499 177.178 141.696 175.854 145.03 175.854C148.364 175.854 151.561 177.178 153.918 179.536C156.276 181.893 157.6 185.09 157.6 188.424C157.6 193.994 159.812 199.335 163.751 203.273C167.689 207.212 173.03 209.424 178.6 209.424C184.17 209.424 189.511 207.212 193.449 203.273C197.387 199.335 199.6 193.994 199.6 188.424V176.747C199.6 174.758 198.81 172.85 197.403 171.444C195.997 170.037 194.089 169.247 192.1 169.247Z" fill="#D4D4FF"/>
<path d="M248.866 173.452C236.689 169.379 224.554 164.607 213.316 158.36C207.28 155.159 201.652 151.241 196.557 146.689L195.057 150.244L185.257 173.485C184.823 174.516 184.599 175.623 184.599 176.742C184.599 177.861 184.823 178.968 185.257 179.999C197.551 209.165 224.851 227.284 256.502 227.284C282.111 227.284 304.869 215.419 319.137 195.44C320.969 192.865 322.644 190.183 324.155 187.407C298.6 185.423 273.138 181.572 248.866 173.452Z" fill="#FF8E9E"/>
<path d="M274.247 115.387C284.682 119.06 295.479 121.612 306.454 123L304.061 117.325L271.184 39.347C269.966 36.4586 267.923 33.9936 265.311 32.2603C262.7 30.5271 259.635 29.6026 256.5 29.6026C253.365 29.6026 250.3 30.5271 247.688 32.2603C245.077 33.9936 243.034 36.4586 241.816 39.347L230.216 66.866L225.977 76.919C237.329 94.7649 254.32 108.305 274.25 115.387H274.247Z" fill="#FF8E9E"/>
<path d="M213.316 158.361C207.28 155.16 201.652 151.242 196.557 146.69L195.057 150.245L185.257 173.486C184.822 174.517 184.598 175.625 184.598 176.743C184.598 177.862 184.822 178.97 185.257 180.001C190.89 193.58 200.284 205.268 212.333 213.691L231.933 167.202C225.56 164.625 219.346 161.673 213.322 158.361H213.316Z" fill="#EA5B70"/>
<path d="M257.18 107.3L278.5 56.71L271.18 39.348C269.962 36.4596 267.919 33.9946 265.307 32.2614C262.696 30.5281 259.631 29.6036 256.496 29.6036C253.361 29.6036 250.296 30.5281 247.684 32.2614C245.072 33.9946 243.03 36.4596 241.812 39.348L230.212 66.867L225.974 76.92C233.87 89.3369 244.556 99.7395 257.18 107.3Z" fill="#EA5B70"/>
<path d="M327.741 173.486L304.06 117.323C288.315 116.465 273.107 111.307 260.087 102.412C247.068 93.5164 236.735 81.2228 230.212 66.867L195.057 150.244C209.457 164.039 226.255 175.087 244.625 182.844C264.878 191.42 286.654 195.821 308.649 195.783C312.162 195.783 315.656 195.661 319.134 195.443C322.564 190.632 325.45 185.456 327.74 180.01C328.176 178.978 328.4 177.869 328.4 176.749C328.4 175.629 328.176 174.521 327.74 173.489L327.741 173.486Z" fill="#EFEDFF"/>
<path d="M230.213 66.867L195.058 150.244C205.145 159.904 216.426 168.235 228.626 175.034L259.426 101.957C246.726 93.0819 236.637 80.9648 230.209 66.867H230.213Z" fill="#D4D4FF"/>
<path d="M344.419 365.588C321.104 388.903 289.481 402.002 256.508 402.002C223.535 402.002 191.912 388.903 168.597 365.588L8.009 205H8V445C8 460.913 14.3214 476.174 25.5736 487.426C36.8258 498.679 52.087 505 68 505H445C460.913 505 476.174 498.679 487.426 487.426C498.679 476.174 505 460.913 505 445V205.007L344.419 365.588Z" fill="#FFCE71"/>
<path d="M344.417 284.412C321.102 261.097 289.479 247.998 256.506 247.998C223.533 247.998 191.91 261.097 168.595 284.412L8 445C8 460.913 14.3214 476.174 25.5736 487.426C36.8258 498.679 52.087 505 68 505H445C460.913 505 476.174 498.679 487.426 487.426C498.679 476.174 505 460.913 505 445L344.417 284.412Z" fill="#FCE3A0"/>
<path d="M91.5 445V361.5H8V445C8 460.913 14.3214 476.174 25.5736 487.426C36.8258 498.679 52.087 505 68 505H151.5C135.587 505 120.326 498.679 109.074 487.426C97.8214 476.174 91.5 460.913 91.5 445Z" fill="#FFCE71"/>
</svg>
