<svg width="512" height="512" viewBox="0 0 512 512" fill="none" xmlns="http://www.w3.org/2000/svg">
<path d="M48.8359 236.984C48.8359 182.121 71.5159 130.648 112.699 92.047C153.347 53.947 207.258 32.965 264.499 32.965C321.74 32.965 375.652 53.949 416.3 92.047C457.484 130.647 480.167 182.117 480.167 236.985L48.8359 236.984Z" fill="#BF805C"/>
<path d="M436.859 373.281C427.273 358.289 411.336 343.492 411.336 343.492H117.668C117.668 343.492 101.731 358.292 92.1449 373.281C91.4474 374.369 91.0031 375.599 90.8449 376.881C90.6866 378.164 90.8184 379.465 91.2305 380.69C91.6425 381.915 92.3244 383.031 93.2257 383.957C94.127 384.883 95.2247 385.594 96.4379 386.039C111.879 391.687 143.27 405.939 167.738 434.953H361.266C385.731 405.941 417.125 391.687 432.566 386.039C433.779 385.594 434.876 384.882 435.777 383.956C436.678 383.03 437.36 381.914 437.772 380.689C438.184 379.465 438.315 378.164 438.158 376.881C438 375.599 437.556 374.369 436.859 373.281Z" fill="#FD786E"/>
<path d="M149.824 512C149.824 412.273 209.043 402.793 209.043 402.793L264.5 372.852L319.961 402.793C319.961 402.793 379.176 412.273 379.176 512H149.824Z" fill="#F0F3F7"/>
<path d="M229.645 402.793L274.805 378.414L264.505 372.852L209.048 402.793C209.048 402.793 149.824 412.277 149.824 512H170.43C170.43 412.273 229.645 402.793 229.645 402.793Z" fill="#D1E4EB"/>
<path d="M495 246.984C494.999 255.258 492.545 263.346 487.948 270.225C483.351 277.105 476.817 282.466 469.173 285.632C461.529 288.798 453.117 289.626 445.002 288.012C436.888 286.397 429.434 282.413 423.583 276.562C417.733 270.711 413.749 263.257 412.135 255.141C410.521 247.026 411.35 238.615 414.517 230.971C417.684 223.327 423.046 216.794 429.926 212.197C436.806 207.601 444.894 205.148 453.168 205.148C458.662 205.148 464.101 206.231 469.177 208.333C474.252 210.436 478.864 213.517 482.748 217.402C486.633 221.287 489.714 225.899 491.816 230.975C493.918 236.05 495 241.49 495 246.984Z" fill="#F2C5BC"/>
<path d="M450.168 236.984C450.168 140.875 367.043 62.964 264.5 62.964C161.957 62.964 78.8358 140.875 78.8358 236.984C78.8358 333.093 161.961 411 264.5 411C367.039 411 450.168 333.09 450.168 236.984Z" fill="#FFD9D0"/>
<path d="M109.738 236.984C109.738 145.754 184.644 70.933 279.953 63.57C274.853 63.175 269.703 62.965 264.5 62.965C173.367 62.965 97.5779 124.504 81.8399 205.665C79.8601 205.308 77.8515 205.135 75.8399 205.149C70.3461 205.149 64.9062 206.231 59.8307 208.333C54.7551 210.436 50.1434 213.517 46.2588 217.402C42.3741 221.287 39.2926 225.898 37.1903 230.974C35.0879 236.049 34.0059 241.489 34.0059 246.983C34.0059 252.477 35.0879 257.917 37.1903 262.992C39.2926 268.068 42.3741 272.679 46.2588 276.564C50.1434 280.449 54.7551 283.53 59.8307 285.633C64.9062 287.735 70.3461 288.817 75.8399 288.817C79.5219 288.94 83.1868 288.263 86.5819 286.833C109.449 358.645 180.445 411 264.5 411C269.7 411 274.855 410.789 279.953 410.395C184.645 403.035 109.738 328.211 109.738 236.984Z" fill="#F2C5BC"/>
<path d="M348.98 247.223C347.965 247.223 346.96 247.023 346.023 246.635C345.085 246.247 344.233 245.678 343.516 244.96C342.798 244.243 342.229 243.391 341.841 242.453C341.452 241.516 341.253 240.511 341.253 239.496V223.066C341.276 221.032 342.1 219.089 343.547 217.659C344.993 216.229 346.945 215.427 348.979 215.427C351.013 215.427 352.965 216.229 354.412 217.659C355.858 219.089 356.683 221.032 356.706 223.066V239.5C356.704 241.548 355.89 243.512 354.441 244.96C352.992 246.408 351.028 247.222 348.98 247.223Z" fill="#38424A"/>
<path d="M360.168 271.363H337.793C336.771 271.375 335.757 271.183 334.81 270.8C333.862 270.417 333 269.85 332.274 269.132C331.547 268.413 330.97 267.558 330.576 266.615C330.183 265.672 329.98 264.66 329.98 263.638C329.98 262.617 330.183 261.605 330.576 260.662C330.97 259.719 331.547 258.864 332.274 258.145C333 257.427 333.862 256.86 334.81 256.477C335.757 256.094 336.771 255.902 337.793 255.914H360.168C361.19 255.902 362.204 256.094 363.151 256.477C364.098 256.86 364.96 257.427 365.687 258.145C366.414 258.864 366.991 259.719 367.384 260.662C367.778 261.605 367.981 262.617 367.981 263.638C367.981 264.66 367.778 265.672 367.384 266.615C366.991 267.558 366.414 268.413 365.687 269.132C364.96 269.85 364.098 270.417 363.151 270.8C362.204 271.183 361.19 271.375 360.168 271.363Z" fill="#FD786E"/>
<path d="M180.02 247.223C177.971 247.222 176.006 246.408 174.557 244.959C173.108 243.51 172.293 241.545 172.293 239.496V223.066C172.316 221.032 173.14 219.089 174.587 217.659C176.033 216.229 177.985 215.427 180.019 215.427C182.053 215.427 184.006 216.229 185.452 217.659C186.898 219.089 187.723 221.032 187.746 223.066V239.5C187.745 241.549 186.931 243.513 185.482 244.961C184.033 246.409 182.068 247.223 180.02 247.223Z" fill="#38424A"/>
<path d="M191.207 271.363H168.832C167.81 271.375 166.796 271.183 165.849 270.8C164.901 270.417 164.039 269.85 163.313 269.132C162.586 268.413 162.009 267.558 161.615 266.615C161.222 265.672 161.019 264.66 161.019 263.638C161.019 262.617 161.222 261.605 161.615 260.662C162.009 259.719 162.586 258.864 163.313 258.145C164.039 257.427 164.901 256.86 165.849 256.477C166.796 256.094 167.81 255.902 168.832 255.914H191.207C192.229 255.902 193.243 256.094 194.19 256.477C195.137 256.86 195.999 257.427 196.726 258.145C197.453 258.864 198.03 259.719 198.423 260.662C198.817 261.605 199.02 262.617 199.02 263.638C199.02 264.66 198.817 265.672 198.423 266.615C198.03 267.558 197.453 268.413 196.726 269.132C195.999 269.85 195.137 270.417 194.19 270.8C193.243 271.183 192.229 271.375 191.207 271.363Z" fill="#FD786E"/>
<path d="M264.5 293.078C284.293 317.82 313.461 307.57 328.84 299.441C329.692 298.99 330.413 298.327 330.933 297.515C331.454 296.704 331.756 295.772 331.81 294.809C331.865 293.847 331.67 292.886 331.245 292.021C330.82 291.156 330.178 290.416 329.383 289.871C320.563 283.703 315.43 270.195 308.149 263.406C296.833 252.859 277.34 246.453 264.501 258.094C251.665 246.453 232.169 252.86 220.856 263.407C213.571 270.196 208.438 283.707 199.622 289.872C198.826 290.416 198.185 291.157 197.759 292.022C197.333 292.886 197.138 293.847 197.192 294.809C197.247 295.771 197.548 296.704 198.068 297.515C198.588 298.327 199.309 298.991 200.161 299.442C215.543 307.566 244.707 317.82 264.5 293.078Z" fill="#BF805C"/>
<path d="M276.867 423.238C276.867 423.238 319.961 460.238 319.961 421.558V400.617C319.961 361.945 276.867 398.941 276.867 398.941V423.238Z" fill="#F2564C"/>
<path d="M252.133 423.238C252.133 423.238 209.043 460.238 209.043 421.558V400.617C209.043 361.945 252.133 398.941 252.133 398.941V423.238Z" fill="#F2564C"/>
<path d="M267.441 391.48H261.558C256.357 391.48 251.369 393.546 247.692 397.223C244.014 400.901 241.948 405.889 241.948 411.09C241.948 416.29 244.014 421.278 247.692 424.956C251.369 428.633 256.357 430.699 261.558 430.699H267.441C272.642 430.699 277.629 428.633 281.307 424.956C284.984 421.278 287.05 416.29 287.05 411.09C287.05 405.889 284.984 400.901 281.307 397.223C277.629 393.546 272.642 391.48 267.441 391.48Z" fill="#FF8C72"/>
<path d="M189.371 512V467.465C189.394 465.431 190.218 463.488 191.665 462.058C193.111 460.628 195.063 459.826 197.097 459.826C199.131 459.826 201.084 460.628 202.53 462.058C203.976 463.488 204.801 465.431 204.824 467.465V512H189.371Z" fill="#D1E4EB"/>
<path d="M324.18 512V467.465C324.168 466.443 324.359 465.429 324.742 464.482C325.125 463.535 325.692 462.673 326.411 461.946C327.129 461.219 327.985 460.642 328.928 460.249C329.871 459.855 330.882 459.652 331.904 459.652C332.926 459.652 333.938 459.855 334.881 460.249C335.824 460.642 336.679 461.219 337.398 461.946C338.116 462.673 338.683 463.535 339.066 464.482C339.449 465.429 339.64 466.443 339.629 467.465V512H324.18Z" fill="#D1E4EB"/>
<path d="M273.324 456.68C273.324 458.425 272.806 460.131 271.837 461.582C270.867 463.033 269.489 464.164 267.877 464.832C266.264 465.5 264.49 465.675 262.778 465.334C261.067 464.994 259.494 464.154 258.26 462.92C257.026 461.685 256.186 460.113 255.845 458.401C255.505 456.69 255.68 454.916 256.348 453.303C257.015 451.691 258.146 450.313 259.597 449.343C261.049 448.374 262.755 447.856 264.5 447.856C265.659 447.856 266.806 448.084 267.877 448.527C268.948 448.97 269.921 449.62 270.74 450.44C271.56 451.259 272.21 452.232 272.653 453.303C273.096 454.373 273.324 455.521 273.324 456.68Z" fill="#515C80"/>
<path d="M273.324 487.809C273.324 489.554 272.806 491.26 271.837 492.711C270.867 494.162 269.489 495.293 267.877 495.961C266.264 496.629 264.49 496.804 262.778 496.463C261.067 496.123 259.494 495.283 258.26 494.049C257.026 492.814 256.186 491.242 255.845 489.53C255.505 487.819 255.68 486.045 256.348 484.432C257.015 482.82 258.146 481.442 259.597 480.472C261.049 479.503 262.755 478.985 264.5 478.985C265.659 478.985 266.806 479.213 267.877 479.656C268.948 480.099 269.921 480.749 270.74 481.569C271.56 482.388 272.21 483.361 272.653 484.432C273.096 485.502 273.324 486.65 273.324 487.809Z" fill="#515C80"/>
<path d="M264.5 62.965L75.9219 88.328L81.8399 126.328L264.5 145.668L447.16 126.328L453.082 88.328L264.5 62.965Z" fill="#FD786E"/>
<path d="M112.746 126.328L106.824 88.328L279.953 65.043L264.5 62.965L75.9219 88.328L81.8399 126.328L264.5 145.668L279.953 144.035L112.746 126.328Z" fill="#F2564C"/>
<path d="M481.625 126.332H47.3748C44.5788 126.332 41.8973 127.443 39.9201 129.42C37.943 131.397 36.8321 134.079 36.8318 136.875V154.461C36.8329 157.256 37.9442 159.937 39.9212 161.913C41.8983 163.89 44.5794 165 47.3748 165H481.625C483.009 165 484.38 164.728 485.659 164.199C486.938 163.669 488.1 162.893 489.079 161.914C490.058 160.936 490.835 159.774 491.365 158.495C491.895 157.216 492.168 155.845 492.168 154.461V136.875C492.168 135.49 491.896 134.119 491.366 132.84C490.836 131.561 490.06 130.398 489.08 129.419C488.101 128.44 486.939 127.664 485.66 127.134C484.381 126.604 483.009 126.332 481.625 126.332Z" fill="#515C80"/>
<path d="M67.7378 154.461V136.871C67.738 135.487 68.0108 134.116 68.5407 132.837C69.0707 131.558 69.8473 130.396 70.8264 129.418C71.8054 128.439 72.9676 127.663 74.2467 127.133C75.5257 126.604 76.8965 126.332 78.2808 126.332H47.3748C44.5794 126.332 41.8983 127.442 39.9212 129.419C37.9442 131.395 36.8329 134.076 36.8318 136.871V154.461C36.8329 157.256 37.9442 159.937 39.9212 161.913C41.8983 163.89 44.5794 165 47.3748 165H78.2808C76.8965 165 75.5257 164.728 74.2467 164.199C72.9676 163.669 71.8054 162.893 70.8264 161.914C69.8473 160.936 69.0707 159.774 68.5407 158.495C68.0108 157.216 67.738 155.845 67.7378 154.461Z" fill="#3A4866"/>
<path d="M462.7 26.539L453.083 88.328H75.9218L66.2998 26.539C65.7891 23.2594 65.9943 19.9081 66.9013 16.7152C67.8082 13.5224 69.3955 10.5637 71.554 8.04232C73.7126 5.52093 76.3913 3.49661 79.4062 2.10837C82.4211 0.720136 85.7007 0.000879826 89.0198 0L439.98 0C443.299 0.000879826 446.579 0.720136 449.594 2.10837C452.608 3.49661 455.287 5.52093 457.446 8.04232C459.604 10.5637 461.191 13.5224 462.098 16.7152C463.005 19.9081 463.211 23.2594 462.7 26.539Z" fill="#515C80"/>
<path d="M119.926 0H89.0198C85.7007 0.000879826 82.4211 0.720136 79.4062 2.10837C76.3913 3.49661 73.7126 5.52093 71.554 8.04232C69.3955 10.5637 67.8082 13.5224 66.9013 16.7152C65.9943 19.9081 65.7891 23.2594 66.2998 26.539L75.9208 88.328H106.821L97.2068 26.539C96.6961 23.2595 96.9013 19.9082 97.8082 16.7155C98.7151 13.5227 100.302 10.5641 102.461 8.0427C104.619 5.52133 107.298 3.49699 110.312 2.10869C113.327 0.720387 116.607 0.0010241 119.926 0V0Z" fill="#3A4866"/>
</svg>
