<svg width="512" height="512" viewBox="0 0 512 512" fill="none" xmlns="http://www.w3.org/2000/svg">
<path d="M188.266 83.048C167.785 44.224 137.078 15.801 104.777 1.978C101.468 0.553808 97.8828 -0.11171 94.2835 0.0302586C90.6841 0.172227 87.1622 1.11808 83.976 2.79845C80.7898 4.47882 78.0201 6.85108 75.8701 9.74125C73.7201 12.6314 72.2443 15.9662 71.551 19.501C64.723 53.962 70.844 95.356 91.324 134.181C117.124 183.081 159.137 215.481 200.133 222.994C217.078 184.923 214.063 131.95 188.266 83.048Z" fill="#F0F3F7"/>
<path d="M160.4 104.064C149.795 83.959 135.541 66.74 119.49 54.224C118.533 53.4899 117.385 53.0476 116.183 52.9504C114.98 52.8533 113.776 53.1053 112.713 53.6762C111.651 54.2471 110.776 55.1127 110.194 56.1688C109.611 57.225 109.346 58.4268 109.43 59.63C110.707 79.915 116.868 101.368 127.457 121.443C140.441 146.056 158.687 166.099 178.657 178.591C179.625 155.052 173.387 128.677 160.4 104.064Z" fill="#FFB1BC"/>
<path d="M324 83.048C344.48 44.224 375.188 15.802 407.488 1.978C410.796 0.551686 414.382 -0.115479 417.982 0.0254958C421.583 0.16647 425.105 1.112 428.292 2.79267C431.479 4.47333 434.249 6.84644 436.399 9.73775C438.548 12.6291 440.023 15.9651 440.715 19.501C447.543 53.962 441.422 95.356 420.942 134.181C395.149 183.081 353.13 215.481 312.142 222.994C295.191 184.923 298.207 131.95 324 83.048Z" fill="#F0F3F7"/>
<path d="M351.867 104.064C362.472 83.959 376.726 66.74 392.777 54.224C393.734 53.4889 394.882 53.0459 396.085 52.9482C397.288 52.8505 398.493 53.1023 399.556 53.6734C400.619 54.2444 401.494 55.1104 402.077 56.1671C402.659 57.2238 402.924 58.4263 402.84 59.63C401.563 79.915 395.399 101.368 384.809 121.443C371.825 146.056 353.579 166.099 333.609 178.591C332.645 155.052 338.883 128.677 351.867 104.064Z" fill="#FFB1BC"/>
<path d="M120.77 176.052C144.122 201.38 172.36 217.907 200.133 222.997C213.004 194.075 214.344 156.56 202.949 118.763C170.508 129.344 141.918 149.275 120.77 176.052Z" fill="#D1E4EB"/>
<path d="M178.66 178.587C179.135 162.881 176.929 147.208 172.137 132.243C163.045 137.328 154.431 143.224 146.4 149.86C155.561 161.087 166.451 170.784 178.66 178.587Z" fill="#FF84B2"/>
<path d="M391.5 176.052C368.148 201.38 339.91 217.907 312.137 222.997C299.266 194.075 297.922 156.56 309.321 118.763C341.76 129.345 370.35 149.275 391.5 176.052Z" fill="#D1E4EB"/>
<path d="M333.609 178.587C333.133 162.881 335.339 147.208 340.132 132.243C349.225 137.328 357.839 143.224 365.87 149.86C356.707 161.085 345.818 170.782 333.609 178.587Z" fill="#FF84B2"/>
<path d="M397.746 282.88C397.746 310.888 389.44 338.267 373.88 361.554C358.319 384.842 336.203 402.992 310.327 413.71C284.451 424.428 255.978 427.232 228.508 421.768C201.038 416.304 175.806 402.817 156.001 383.012C136.197 363.208 122.71 337.975 117.246 310.505C111.781 283.036 114.586 254.563 125.304 228.687C136.022 202.811 154.172 180.694 177.459 165.134C200.747 149.573 228.126 141.267 256.133 141.267C274.73 141.267 293.145 144.93 310.327 152.046C327.508 159.163 343.119 169.594 356.269 182.744C369.419 195.894 379.85 211.506 386.967 228.687C394.084 245.868 397.747 264.283 397.746 282.88Z" fill="#F0F3F7"/>
<path d="M435.648 347.649L256.133 315.556L76.6206 347.649L69.4756 397.958L256.133 423.801L442.793 397.961L435.648 347.649Z" fill="#FF8C72"/>
<path d="M110.684 397.958L117.829 347.649L276.739 319.239L256.134 315.555L76.6206 347.649L69.4756 397.958L256.133 423.801L276.738 420.949L110.684 397.958Z" fill="#F2564C"/>
<path d="M163.734 279.747C163.734 289.281 160.907 298.602 155.61 306.529C150.313 314.457 142.784 320.636 133.975 324.284C125.167 327.933 115.474 328.888 106.123 327.028C96.7714 325.168 88.1817 320.576 81.4398 313.835C74.698 307.093 70.1067 298.503 68.2466 289.152C66.3865 279.8 67.3412 270.108 70.9899 261.299C74.6385 252.49 80.8174 244.961 88.745 239.664C96.6726 234.367 105.993 231.54 115.527 231.54C121.858 231.54 128.127 232.787 133.976 235.209C139.824 237.632 145.139 241.183 149.615 245.659C154.092 250.136 157.642 255.45 160.065 261.299C162.488 267.148 163.734 273.416 163.734 279.747Z" fill="#D1E4EB"/>
<path d="M444.949 279.747C444.949 289.281 442.122 298.602 436.825 306.529C431.528 314.457 423.999 320.636 415.19 324.284C406.382 327.933 396.689 328.888 387.337 327.028C377.986 325.168 369.397 320.576 362.655 313.835C355.913 307.093 351.322 298.503 349.461 289.152C347.601 279.8 348.556 270.108 352.205 261.299C355.853 252.49 362.032 244.961 369.96 239.664C377.887 234.367 387.208 231.54 396.742 231.54C403.073 231.54 409.342 232.787 415.19 235.209C421.039 237.632 426.354 241.183 430.83 245.659C435.306 250.136 438.857 255.45 441.28 261.299C443.702 267.148 444.949 273.416 444.949 279.747Z" fill="#D1E4EB"/>
<path d="M471.793 283.462H40.477C36.107 283.462 31.916 285.198 28.826 288.288C25.736 291.378 24 295.569 24 299.939L24 331.173C24 335.543 25.736 339.734 28.826 342.824C31.916 345.914 36.107 347.65 40.477 347.65H471.793C476.163 347.65 480.354 345.914 483.444 342.824C486.534 339.734 488.27 335.543 488.27 331.173V299.939C488.27 295.569 486.534 291.378 483.444 288.288C480.354 285.198 476.163 283.462 471.793 283.462Z" fill="#515C80"/>
<path d="M65.207 331.173V299.939C65.2066 297.775 65.6325 295.632 66.4604 293.633C67.2883 291.634 68.502 289.817 70.0321 288.287C71.5622 286.757 73.3788 285.543 75.3781 284.715C77.3773 283.888 79.5201 283.462 81.684 283.462H40.477C38.3131 283.462 36.1703 283.888 34.1711 284.715C32.1718 285.543 30.3552 286.757 28.8251 288.287C27.295 289.817 26.0813 291.634 25.2534 293.633C24.4255 295.632 23.9996 297.775 24 299.939V331.173C23.9996 333.337 24.4255 335.48 25.2534 337.479C26.0813 339.478 27.295 341.295 28.8251 342.825C30.3552 344.355 32.1718 345.569 34.1711 346.397C36.1703 347.224 38.3131 347.65 40.477 347.65H81.684C77.314 347.65 73.123 345.914 70.033 342.824C66.943 339.734 65.207 335.543 65.207 331.173Z" fill="#3A4866"/>
<path d="M411.008 512.001H101.262C95.1161 512.001 89.0418 510.681 83.45 508.13C77.8582 505.58 72.8796 501.858 68.8507 497.216C64.8219 492.575 61.837 487.122 60.0979 481.227C58.3587 475.333 57.9059 469.133 58.7702 463.048L69.4772 397.958H442.793L453.5 463.048C454.364 469.133 453.911 475.332 452.172 481.227C450.433 487.122 447.448 492.574 443.419 497.216C439.39 501.857 434.412 505.579 428.82 508.13C423.228 510.681 417.154 512.001 411.008 512.001Z" fill="#515C80"/>
<path d="M99.9772 463.048L110.684 397.958H69.4772L58.7702 463.048C57.9059 469.133 58.3587 475.333 60.0979 481.227C61.837 487.122 64.8219 492.575 68.8507 497.216C72.8796 501.858 77.8582 505.58 83.45 508.13C89.0418 510.681 95.1161 512.001 101.262 512.001H142.469C136.323 512.001 130.249 510.681 124.657 508.13C119.065 505.58 114.087 501.858 110.058 497.216C106.029 492.575 103.044 487.122 101.305 481.227C99.5657 475.333 99.1129 469.133 99.9772 463.048Z" fill="#3A4866"/>
<path d="M185.707 194.521C184.693 194.521 183.688 194.72 182.75 195.108C181.812 195.497 180.96 196.066 180.243 196.783C179.525 197.501 178.956 198.353 178.568 199.291C178.18 200.228 177.98 201.233 177.98 202.248V214.994C178.004 217.028 178.828 218.971 180.274 220.401C181.721 221.831 183.673 222.633 185.707 222.633C187.741 222.633 189.693 221.831 191.14 220.401C192.586 218.971 193.41 217.028 193.433 214.994V202.247C193.433 200.198 192.619 198.233 191.171 196.784C189.722 195.335 187.757 194.521 185.707 194.521Z" fill="#38424A"/>
<path d="M334.29 214.989V202.243C334.267 200.209 333.443 198.266 331.996 196.836C330.55 195.406 328.598 194.604 326.563 194.604C324.529 194.604 322.577 195.406 321.131 196.836C319.684 198.266 318.86 200.209 318.837 202.243V214.989C318.86 217.023 319.684 218.966 321.131 220.396C322.577 221.826 324.529 222.628 326.563 222.628C328.598 222.628 330.55 221.826 331.996 220.396C333.443 218.966 334.267 217.023 334.29 214.989Z" fill="#38424A"/>
<path d="M293.169 219.962C291.626 218.614 289.611 217.934 287.567 218.072C285.523 218.209 283.617 219.153 282.269 220.696C280.971 222.092 279.399 223.206 277.652 223.967C275.905 224.729 274.019 225.122 272.113 225.122C270.207 225.122 268.321 224.729 266.574 223.967C264.826 223.206 263.255 222.092 261.957 220.696C261.23 219.868 260.335 219.205 259.332 218.751C258.329 218.296 257.24 218.061 256.138 218.061C255.037 218.061 253.948 218.296 252.945 218.751C251.941 219.205 251.046 219.868 250.32 220.696C249.022 222.092 247.45 223.206 245.703 223.967C243.956 224.729 242.07 225.122 240.164 225.122C238.258 225.122 236.372 224.729 234.625 223.967C232.877 223.206 231.306 222.092 230.008 220.696C228.659 219.153 226.753 218.21 224.708 218.073C222.663 217.936 220.648 218.617 219.105 219.965C217.563 221.314 216.619 223.221 216.482 225.265C216.345 227.31 217.026 229.325 218.375 230.868C221.104 233.947 224.46 236.407 228.218 238.082C231.977 239.756 236.05 240.608 240.164 240.579C245.829 240.596 251.379 238.972 256.141 235.903C260.901 238.972 266.45 240.597 272.114 240.579C276.229 240.608 280.302 239.757 284.061 238.082C287.82 236.407 291.177 233.947 293.907 230.868C295.255 229.324 295.934 227.307 295.796 225.262C295.657 223.217 294.712 221.311 293.169 219.962Z" fill="#38424A"/>
<path d="M340.945 226.782H329.031C326.997 226.805 325.054 227.629 323.624 229.076C322.194 230.522 321.392 232.474 321.392 234.509C321.392 236.543 322.194 238.495 323.624 239.941C325.054 241.388 326.997 242.212 329.031 242.235H340.945C342.979 242.212 344.921 241.388 346.352 239.941C347.782 238.495 348.584 236.543 348.584 234.509C348.584 232.474 347.782 230.522 346.352 229.076C344.921 227.629 342.979 226.805 340.945 226.782Z" fill="#FFB1BC"/>
<path d="M183.238 226.782H171.324C169.29 226.805 167.347 227.629 165.917 229.076C164.487 230.522 163.685 232.474 163.685 234.509C163.685 236.543 164.487 238.495 165.917 239.941C167.347 241.388 169.29 242.212 171.324 242.235H183.238C185.272 242.212 187.214 241.388 188.645 239.941C190.075 238.495 190.877 236.543 190.877 234.509C190.877 232.474 190.075 230.522 188.645 229.076C187.214 227.629 185.272 226.805 183.238 226.782Z" fill="#FFB1BC"/>
</svg>
