<svg width="513" height="512" viewBox="0 0 513 512" fill="none" xmlns="http://www.w3.org/2000/svg">
<path d="M506.87 469.641L468.143 430.914C464.171 426.942 461.021 422.227 458.871 417.038C456.721 411.848 455.615 406.286 455.615 400.669V319.45C455.615 314.025 453.459 308.822 449.623 304.985C445.787 301.149 440.584 298.994 435.158 298.993H424.835C419.41 298.994 414.207 301.149 410.371 304.985C406.534 308.822 404.379 314.025 404.378 319.45V357.36C404.379 358.162 404.141 358.946 403.695 359.613C403.25 360.28 402.617 360.8 401.876 361.107C401.135 361.414 400.319 361.494 399.532 361.338C398.746 361.181 398.023 360.794 397.456 360.227L303.886 266.657L267.656 302.884L470.64 505.872C474.564 509.794 479.885 511.998 485.433 511.998C490.981 511.998 496.302 509.794 500.226 505.872L506.871 499.227C508.814 497.285 510.356 494.978 511.407 492.44C512.459 489.902 513 487.181 513 484.434C513 481.686 512.458 478.966 511.406 476.428C510.355 473.889 508.813 471.583 506.87 469.641Z" fill="#E1B89A"/>
<path d="M392.378 355.149L303.886 266.657L267.656 302.887L394.015 429.247C387.085 405.161 386.128 375.258 392.378 355.149Z" fill="#D2996F"/>
<path d="M369.878 251.324C379.495 260.941 360.978 295.058 328.519 327.524C296.06 359.99 261.945 378.501 252.319 368.883L162.053 278.613L279.609 161.055L369.878 251.324Z" fill="#FCF2D0"/>
<path d="M210.058 230.61L162.058 278.61L252.328 368.88C258.441 374.989 274.445 369.732 293.628 356.763C234.843 322.032 210.753 275.848 210.058 230.61Z" fill="#F6E3A3"/>
<path d="M279.605 161.055C269.988 151.438 235.875 169.955 203.414 202.414C170.953 234.873 152.434 268.988 162.055 278.614C171.676 288.24 205.785 269.714 238.246 237.255C270.707 204.796 289.226 170.676 279.605 161.055Z" fill="#F6E3A3"/>
<path d="M201.215 236.438C204.18 239.403 214.692 233.696 224.695 223.692C234.698 213.688 240.406 203.172 237.441 200.208L107.788 70.559L71.5581 106.789L201.215 236.438Z" fill="#E1B89A"/>
<path d="M107.788 70.559L71.5581 106.789C71.5581 106.789 132.858 168.089 169.175 204.402C175.429 199.242 181.812 193.457 188.136 187.136C194.46 180.815 200.245 174.429 205.406 168.175L107.788 70.559Z" fill="#D2996F"/>
<path d="M211.363 92.809C220.98 102.43 202.463 136.543 170.004 169.009C137.545 201.475 103.43 219.986 93.8045 210.368L3.54248 120.094L121.093 2.54001L211.363 92.809Z" fill="#FCF2D0"/>
<path d="M51.5425 72.094L3.54248 120.094L93.8085 210.36C99.9215 216.473 115.929 211.215 135.108 198.247C76.3285 163.516 52.2385 117.333 51.5425 72.094Z" fill="#F6E3A3"/>
<path d="M121.093 2.544C111.472 -7.077 77.3592 11.439 44.8932 43.899C12.4272 76.359 -6.08376 110.473 3.53824 120.099C13.1602 129.725 47.2682 111.199 79.7292 78.74C112.19 46.281 130.715 12.161 121.093 2.544Z" fill="#F6E3A3"/>
<path d="M306.679 311.833H282.706C280.717 311.833 278.809 311.043 277.403 309.636C275.996 308.23 275.206 306.322 275.206 304.333C275.206 302.344 275.996 300.436 277.403 299.03C278.809 297.623 280.717 296.833 282.706 296.833H306.679C308.668 296.833 310.576 297.623 311.982 299.03C313.389 300.436 314.179 302.344 314.179 304.333C314.179 306.322 313.389 308.23 311.982 309.636C310.576 311.043 308.668 311.833 306.679 311.833Z" fill="#F6E3A3"/>
<path d="M162.058 98.247H138.484C136.495 98.247 134.588 97.4568 133.181 96.0503C131.775 94.6438 130.984 92.7361 130.984 90.747C130.984 88.7579 131.775 86.8502 133.181 85.4437C134.588 84.0372 136.495 83.247 138.484 83.247H162.058C164.048 83.247 165.955 84.0372 167.362 85.4437C168.768 86.8502 169.558 88.7579 169.558 90.747C169.558 92.7361 168.768 94.6438 167.362 96.0503C165.955 97.4568 164.048 98.247 162.058 98.247Z" fill="#F6E3A3"/>
</svg>
