<svg width="512" height="512" viewBox="0 0 512 512" fill="none" xmlns="http://www.w3.org/2000/svg">
<path d="M284.185 227.815L202.392 194.999L31.3838 390.808L59.6538 452.347L121.197 480.617L317.001 309.608L284.185 227.815Z" fill="#FFB1BC"/>
<path d="M284.185 227.815L268.585 221.557L295.144 287.757L99.3408 458.765L52.7738 437.374L59.6528 452.347L121.196 480.617L317.001 309.608L284.185 227.815Z" fill="#FF84B2"/>
<path d="M473.208 38.792C448.369 13.9537 414.68 -0.000335693 379.553 -0.000335693C344.426 -0.000335693 310.738 13.9537 285.899 38.792L281.251 43.44L356.321 155.682L468.56 230.749L473.208 226.101C498.046 201.262 512 167.574 512 132.446C512 97.3194 498.046 63.6309 473.208 38.792Z" fill="#515C80"/>
<path d="M473.208 38.792C469.555 35.141 465.695 31.7043 461.646 28.499C481.756 53.9685 491.818 85.9342 489.921 118.331C488.024 150.727 474.301 181.3 451.356 204.249L446.708 208.897L347.563 142.585L356.321 155.685L468.56 230.749L473.208 226.101C498.046 201.262 512 167.574 512 132.446C512 97.3194 498.046 63.6309 473.208 38.792Z" fill="#3A4866"/>
<path d="M244.079 80.612C192.189 132.507 202.396 194.999 202.396 194.999L317.001 309.604C317.001 309.604 379.501 319.815 431.392 267.92L356.321 155.683L244.079 80.612Z" fill="#A1D3E8"/>
<path d="M356.321 155.683L343.221 146.925L409.53 246.07C357.639 297.961 295.143 287.754 295.143 287.754L317.001 309.604C317.001 309.604 379.501 319.815 431.392 267.92L356.321 155.683Z" fill="#75BDDB"/>
<path d="M121.201 480.616L97.6568 501.175C89.2828 508.489 78.443 512.349 67.3307 511.974C56.2185 511.599 45.6636 507.017 37.8018 499.155L12.8448 474.199C4.98239 466.338 0.399998 455.783 0.0249734 444.672C-0.350051 433.56 3.5103 422.72 10.8248 414.347L31.3878 390.808L121.201 480.616Z" fill="#A1D3E8"/>
<path d="M99.3408 458.765L75.8008 479.323C67.4268 486.637 56.587 490.497 45.4748 490.122C34.3625 489.747 23.8076 485.165 15.9458 477.303L37.8008 499.155C45.6626 507.017 56.2175 511.599 67.3298 511.974C78.442 512.349 89.2818 508.489 97.6558 501.175L121.201 480.616L99.3408 458.765Z" fill="#75BDDB"/>
<path d="M229.458 282.542C227.551 280.634 225.287 279.121 222.795 278.088C220.303 277.056 217.632 276.524 214.934 276.524C212.237 276.524 209.566 277.056 207.074 278.088C204.582 279.121 202.318 280.634 200.411 282.542L185.095 297.858C181.274 301.716 179.137 306.931 179.15 312.361C179.163 317.791 181.326 322.995 185.165 326.835C189.004 330.675 194.208 332.838 199.638 332.852C205.068 332.866 210.283 330.729 214.142 326.909L229.458 311.593C231.366 309.686 232.879 307.421 233.911 304.929C234.944 302.436 235.475 299.765 235.475 297.068C235.475 294.37 234.944 291.698 233.911 289.206C232.879 286.714 231.366 284.449 229.458 282.542Z" fill="#FF84B2"/>
<path d="M468.56 230.749L281.251 43.44C276.322 38.5107 269.636 35.7414 262.665 35.7414C255.694 35.7414 249.008 38.5107 244.079 43.44C239.15 48.3693 236.38 55.0549 236.38 62.026C236.38 68.9971 239.15 75.6827 244.079 80.612L431.388 267.921C436.317 272.85 443.003 275.62 449.974 275.62C456.945 275.62 463.63 272.85 468.56 267.921C473.489 262.992 476.258 256.306 476.258 249.335C476.258 242.364 473.489 235.678 468.56 230.749Z" fill="#FFB1BC"/>
<path d="M468.56 230.749L446.708 208.899C451.637 213.828 454.406 220.514 454.406 227.485C454.406 234.456 451.637 241.142 446.708 246.071C441.778 251 435.093 253.77 428.122 253.77C421.151 253.77 414.465 251 409.536 246.071L431.388 267.923C433.829 270.364 436.726 272.3 439.915 273.621C443.104 274.942 446.522 275.622 449.974 275.622C453.426 275.622 456.843 274.942 460.032 273.621C463.221 272.3 466.119 270.364 468.56 267.923C471.001 265.482 472.937 262.585 474.258 259.396C475.578 256.207 476.258 252.789 476.258 249.337C476.258 245.885 475.578 242.467 474.258 239.278C472.937 236.089 471.001 233.192 468.56 230.751V230.749Z" fill="#FF84B2"/>
</svg>
