<svg width="512" height="512" viewBox="0 0 512 512" fill="none" xmlns="http://www.w3.org/2000/svg">
<path d="M138.279 204.051L187.884 195.305V385.063L138.279 393.809V204.051Z" fill="#8EAFE2"/>
<path d="M138.279 234.875L187.884 226.129V195.3L138.279 204.046V234.875Z" fill="#6A96D7"/>
<path d="M371.198 162.98L420.807 154.234V343.992L371.198 352.738V162.98Z" fill="#8EAFE2"/>
<path d="M375.725 73.5201L170.025 109.79C161.13 111.359 153.073 116.011 147.268 122.929C141.464 129.848 138.282 138.591 138.283 147.622V204.056L420.814 154.236V111.352C420.814 105.742 419.585 100.2 417.214 95.1161C414.844 90.0318 411.388 85.5284 407.09 81.9226C402.793 78.3167 397.758 75.6959 392.339 74.2443C386.92 72.7926 381.249 72.5454 375.725 73.5201Z" fill="#6FCE91"/>
<path d="M371.198 193.8L420.807 185.054V154.234L371.198 162.98V193.8Z" fill="#6A96D7"/>
<path d="M187.885 385.063C187.885 421.493 151.276 457.477 106.115 465.442C60.9536 473.407 24.3446 450.329 24.3446 413.899C24.3446 377.469 60.9536 341.485 106.115 333.52C151.276 325.555 187.885 348.633 187.885 385.063Z" fill="#A3DEFE"/>
<path d="M420.811 343.992C420.811 380.422 384.202 416.406 339.041 424.371C293.88 432.336 257.268 409.258 257.268 372.828C257.268 336.398 293.877 300.41 339.041 292.449C384.205 284.488 420.811 307.563 420.811 343.992Z" fill="#A3DEFE"/>
<path d="M245.478 501.121C243.995 501.12 242.546 500.679 241.314 499.855C240.082 499.031 239.122 497.86 238.555 496.49C237.988 495.121 237.839 493.614 238.128 492.16C238.417 490.706 239.13 489.37 240.178 488.321L264.147 464.352C265.561 462.986 267.456 462.23 269.422 462.247C271.389 462.264 273.27 463.053 274.66 464.443C276.051 465.834 276.84 467.715 276.857 469.682C276.874 471.648 276.118 473.543 274.752 474.957L250.783 498.926C250.087 499.624 249.26 500.177 248.349 500.554C247.439 500.93 246.463 501.123 245.478 501.121Z" fill="#8EAFE2"/>
<path d="M269.443 501.121C268.458 501.121 267.483 500.927 266.573 500.55C265.664 500.172 264.838 499.619 264.143 498.921L240.178 474.952C238.811 473.538 238.055 471.643 238.073 469.677C238.09 467.71 238.878 465.829 240.269 464.438C241.66 463.048 243.541 462.259 245.507 462.242C247.474 462.225 249.368 462.981 250.783 464.347L274.748 488.32C275.795 489.369 276.508 490.705 276.797 492.159C277.086 493.613 276.938 495.12 276.37 496.489C275.803 497.859 274.843 499.03 273.611 499.854C272.379 500.678 270.93 501.119 269.448 501.12L269.443 501.121Z" fill="#8EAFE2"/>
<path d="M312.498 49.6091C311.015 49.6078 309.566 49.1672 308.334 48.343C307.102 47.5188 306.142 46.3479 305.575 44.9783C305.008 43.6087 304.859 42.1017 305.148 40.6477C305.437 39.1937 306.15 37.858 307.198 36.8091L331.162 12.8401C332.575 11.467 334.472 10.7051 336.442 10.7192C338.412 10.7333 340.298 11.5223 341.691 12.9155C343.085 14.3087 343.874 16.1943 343.888 18.1646C343.902 20.135 343.141 22.0318 341.768 23.4451L317.798 47.4101C317.103 48.108 316.277 48.6615 315.367 49.0389C314.458 49.4163 313.482 49.6101 312.498 49.6091Z" fill="#B49CDC"/>
<path d="M336.467 49.6091C335.482 49.6103 334.506 49.4166 333.597 49.039C332.687 48.6614 331.861 48.1074 331.167 47.4091L307.198 23.4451C305.855 22.0265 305.119 20.1403 305.146 18.1875C305.173 16.2347 305.96 14.3693 307.341 12.988C308.721 11.6066 310.586 10.8184 312.539 10.7908C314.492 10.7631 316.378 11.4984 317.798 12.8401L341.768 36.8001C342.815 37.8489 343.528 39.1847 343.817 40.6387C344.106 42.0927 343.958 43.5997 343.391 44.9693C342.823 46.3389 341.863 47.5098 340.631 48.334C339.399 49.1582 337.95 49.5988 336.468 49.6001L336.467 49.6091Z" fill="#B49CDC"/>
<path d="M51.4386 204.441C49.9562 204.44 48.5074 203.999 47.2753 203.175C46.0431 202.351 45.0829 201.18 44.5157 199.81C43.9486 198.441 43.8001 196.934 44.089 195.48C44.3778 194.026 45.091 192.69 46.1386 191.641L70.1036 167.676C71.5181 166.31 73.4126 165.554 75.3791 165.571C77.3456 165.588 79.2267 166.377 80.6172 167.767C82.0078 169.158 82.7966 171.039 82.8137 173.006C82.8308 174.972 82.0748 176.867 80.7086 178.281L56.7436 202.242C56.0479 202.94 55.2211 203.494 54.3106 203.871C53.4002 204.249 52.4242 204.442 51.4386 204.441Z" fill="#EFD176"/>
<path d="M75.4076 204.441C74.4226 204.443 73.4471 204.249 72.5374 203.872C71.6276 203.494 70.8018 202.94 70.1076 202.241L46.1386 178.277C44.7724 176.863 44.0165 174.968 44.0336 173.002C44.0507 171.035 44.8394 169.154 46.23 167.763C47.6205 166.373 49.5016 165.584 51.4681 165.567C53.4346 165.55 55.3291 166.306 56.7436 167.672L80.7126 191.637C81.7602 192.686 82.4734 194.022 82.7623 195.476C83.0511 196.93 82.9026 198.437 82.3355 199.806C81.7684 201.176 80.8081 202.347 79.5759 203.171C78.3438 203.995 76.895 204.436 75.4126 204.437L75.4076 204.441Z" fill="#EFD176"/>
<path d="M476.451 322.8C474.461 322.8 472.554 322.01 471.147 320.603C469.741 319.197 468.951 317.289 468.951 315.3V281.41C468.951 279.421 469.741 277.513 471.147 276.107C472.554 274.7 474.461 273.91 476.451 273.91C478.44 273.91 480.347 274.7 481.754 276.107C483.16 277.513 483.951 279.421 483.951 281.41V315.3C483.951 317.289 483.16 319.197 481.754 320.603C480.347 322.01 478.44 322.8 476.451 322.8Z" fill="#EFD176"/>
<path d="M493.398 305.855H459.506C457.516 305.855 455.609 305.065 454.202 303.658C452.796 302.252 452.006 300.344 452.006 298.355C452.006 296.366 452.796 294.458 454.202 293.052C455.609 291.645 457.516 290.855 459.506 290.855H493.398C495.387 290.855 497.294 291.645 498.701 293.052C500.107 294.458 500.898 296.366 500.898 298.355C500.898 300.344 500.107 302.252 498.701 303.658C497.294 305.065 495.387 305.855 493.398 305.855Z" fill="#EFD176"/>
<path d="M412.912 452.75L404.639 429.477C404.153 428.111 404.007 426.648 404.215 425.213C404.422 423.778 404.975 422.416 405.827 421.243C406.679 420.07 407.804 419.122 409.104 418.482C410.405 417.842 411.842 417.528 413.291 417.567L437.982 418.247C440.034 418.306 442.044 417.653 443.67 416.399L463.244 401.337C464.393 400.453 465.74 399.862 467.168 399.616C468.597 399.369 470.064 399.475 471.443 399.923C472.822 400.371 474.071 401.149 475.081 402.188C476.092 403.227 476.834 404.497 477.244 405.888L484.228 429.579C484.81 431.547 486.051 433.255 487.744 434.415L508.119 448.38C509.314 449.2 510.293 450.298 510.968 451.581C511.644 452.864 511.997 454.292 511.997 455.742C511.997 457.191 511.644 458.619 510.968 459.902C510.293 461.185 509.314 462.283 508.119 463.103L487.744 477.068C486.051 478.229 484.81 479.936 484.228 481.904L477.244 505.604C476.834 506.995 476.091 508.264 475.08 509.303C474.069 510.342 472.82 511.119 471.442 511.567C470.063 512.015 468.596 512.12 467.168 511.873C465.739 511.626 464.392 511.035 463.244 510.151L443.67 495.089C442.042 493.839 440.034 493.187 437.983 493.241L413.292 493.921C411.841 493.962 410.403 493.648 409.101 493.007C407.799 492.366 406.673 491.418 405.82 490.243C404.968 489.069 404.415 487.704 404.209 486.268C404.003 484.832 404.15 483.367 404.639 482L412.912 458.727C413.602 456.795 413.602 454.683 412.912 452.75Z" fill="#B49CDC"/>
<path d="M477.248 505.594L479.775 497.02C457.588 479.969 446.24 442.09 445.975 414.629L443.675 416.399C442.047 417.649 440.039 418.301 437.988 418.247L413.297 417.567C411.848 417.527 410.411 417.841 409.11 418.482C407.809 419.122 406.684 420.07 405.832 421.242C404.98 422.415 404.427 423.778 404.22 425.213C404.013 426.648 404.159 428.111 404.645 429.477L412.918 452.75C413.609 454.683 413.609 456.797 412.918 458.73L404.639 482C404.153 483.366 404.007 484.83 404.214 486.264C404.421 487.699 404.974 489.062 405.826 490.235C406.678 491.408 407.803 492.355 409.104 492.996C410.405 493.636 411.842 493.95 413.291 493.91L437.982 493.23C440.034 493.174 442.042 493.826 443.67 495.078L463.244 510.141C464.393 511.025 465.74 511.617 467.168 511.863C468.597 512.11 470.065 512.005 471.444 511.557C472.823 511.11 474.072 510.333 475.083 509.294C476.094 508.255 476.837 506.985 477.248 505.594Z" fill="#908CD6"/>
<path d="M36.0326 31.2151L48.1106 5.80009C48.8196 4.30854 49.8813 3.01224 51.204 2.02336C52.5267 1.03449 54.0704 0.382841 55.7016 0.124814C57.3328 -0.133213 59.0023 0.0101573 60.5656 0.542516C62.1289 1.07487 63.5389 1.98018 64.6736 3.18009L84.0176 23.6171C85.626 25.3144 87.7692 26.4068 90.0876 26.7111L117.988 30.3441C119.625 30.5582 121.186 31.1679 122.535 32.1205C123.884 33.0731 124.981 34.34 125.73 35.8115C126.48 37.2831 126.86 38.915 126.837 40.5663C126.815 42.2176 126.39 43.8386 125.601 45.2891L112.143 70.0001C111.026 72.0549 110.65 74.4309 111.077 76.7301L116.241 104.39C116.544 106.013 116.447 107.686 115.959 109.263C115.47 110.84 114.605 112.274 113.438 113.442C112.27 114.61 110.836 115.475 109.258 115.963C107.681 116.452 106.009 116.548 104.386 116.245L76.7256 111.081C74.4273 110.654 72.0521 111.03 69.9976 112.145L45.2866 125.605C43.8361 126.395 42.2152 126.819 40.5639 126.842C38.9125 126.864 37.2806 126.484 35.809 125.735C34.3375 124.985 33.0707 123.888 32.1181 122.539C31.1655 121.19 30.5557 119.63 30.3416 117.992L26.7086 90.0921C26.4051 87.7734 25.3126 85.63 23.6146 84.0221L3.17762 64.6761C1.97816 63.5411 1.07325 62.1311 0.541175 60.5679C0.00909597 59.0046 -0.134138 57.3353 0.123862 55.7043C0.381862 54.0733 1.03333 52.5297 2.02191 51.207C3.01049 49.8843 4.30643 48.8224 5.79762 48.1131L31.2076 36.0311C33.3226 35.0294 35.0269 33.3282 36.0326 31.2151Z" fill="#EDA1AB"/>
<path d="M69.9976 112.145C72.0518 111.027 74.4284 110.65 76.7276 111.079L104.384 116.243C106.385 116.621 108.454 116.387 110.321 115.572C112.187 114.757 113.765 113.398 114.849 111.673C61.8926 94.9801 45.9856 42.8131 48.9076 4.43808C48.6044 4.87137 48.3369 5.32854 48.1076 5.80508L36.0326 31.2151C35.0282 33.3274 33.3257 35.0284 31.2126 36.0311L5.79762 48.1131C4.30643 48.8224 3.01049 49.8843 2.02191 51.207C1.03333 52.5297 0.381862 54.0733 0.123862 55.7043C-0.134138 57.3353 0.00909597 59.0046 0.541175 60.5679C1.07325 62.1311 1.97816 63.5411 3.17762 64.6761L23.6146 84.0201C25.3136 85.6267 26.4052 87.771 26.7046 90.0901L30.3416 117.99C30.5554 119.627 31.1647 121.188 32.1169 122.537C33.069 123.886 34.3353 124.983 35.8064 125.733C37.2774 126.483 38.909 126.863 40.56 126.841C42.2111 126.819 43.832 126.396 45.2826 125.607L69.9976 112.145Z" fill="#E26E7E"/>
<path d="M164.939 434.9C80.2386 447.8 69.5556 371.173 83.4226 340.111C49.3066 354.066 24.3416 383.824 24.3416 413.9C24.3416 450.33 60.9546 473.4 106.115 465.443C128.382 461.509 148.911 450.85 164.939 434.9Z" fill="#7ACEFA"/>
<path d="M397.861 393.832C313.161 406.732 302.482 330.105 316.345 299.043C282.228 313 257.268 342.754 257.268 372.828C257.268 409.258 293.877 432.328 339.038 424.371C361.305 420.439 381.833 409.782 397.861 393.832Z" fill="#7ACEFA"/>
</svg>
