<svg width="512" height="512" viewBox="0 0 512 512" fill="none" xmlns="http://www.w3.org/2000/svg">
<path d="M271.9 331.562C268.123 335.324 263.007 337.435 257.676 337.429C252.345 337.424 247.234 335.304 243.465 331.534C239.695 327.764 237.576 322.653 237.571 317.321C237.567 311.99 239.678 306.875 243.441 303.099C283.254 263.287 338.168 205.22 366.027 154.494C378.168 132.389 386.927 111.826 383.976 90.053C380.847 66.963 361.992 48.873 341.876 44.002C323.353 39.518 293.251 38.822 274.763 53.635C257.59 67.399 247.516 86.099 247.828 103.651C248.039 115.631 255.128 129.292 265.062 136.87C271.488 141.776 278.105 143.409 284.722 141.725C293.472 139.498 302.062 129.604 303.101 120.557C303.613 116.096 302.164 113.584 297.753 111.299C293.054 108.821 289.525 104.585 287.936 99.5158C286.347 94.4464 286.827 88.9544 289.271 84.2373C291.714 79.5202 295.924 75.9606 300.982 74.3347C306.04 72.7089 311.535 73.1486 316.27 75.558C335.489 85.519 345.516 104.058 343.09 125.152C340.125 150.968 319.754 174.352 294.653 180.734C276.053 185.468 256.872 181.254 240.645 168.871C220.993 153.871 208.016 128.555 207.583 104.371C207.043 73.999 222.355 44.058 249.594 22.226C278.02 -0.551994 320.512 -2.57899 351.348 4.88201C369.52 9.28201 383.903 21.37 397.012 33.761C411.984 47.899 421.27 65.499 423.863 84.647C428.463 118.553 416.011 147.104 401.308 173.874C371.023 229.015 313.824 289.64 271.9 331.562Z" fill="#94E0D1"/>
<path d="M275.2 270.511C264.118 282.234 253.317 293.23 243.446 303.097C239.76 306.889 237.715 311.978 237.752 317.266C237.79 322.553 239.906 327.613 243.644 331.353C247.382 335.092 252.442 337.211 257.729 337.25C263.016 337.289 268.107 335.246 271.9 331.562C281.818 321.644 292.6 310.671 303.662 298.98L275.2 270.511Z" fill="#4CAABF"/>
<path d="M217.934 284.569L184.856 308.081L207.735 367.265L266.923 390.148L290.435 357.07C293.643 352.557 295.149 347.053 294.686 341.534C294.223 336.016 291.82 330.84 287.904 326.925L248.078 287.099C244.163 283.183 238.987 280.781 233.469 280.318C227.951 279.855 222.447 281.361 217.934 284.569Z" fill="#FFB1BC"/>
<path d="M287.9 326.925L267.3 306.319C271.214 310.235 273.616 315.411 274.079 320.929C274.541 326.447 273.035 331.951 269.827 336.464L246.315 369.542L201.991 352.405L207.733 367.264L266.917 390.147L290.433 357.069C293.641 352.555 295.146 347.051 294.682 341.533C294.219 336.015 291.816 330.84 287.9 326.925Z" fill="#FF84B2"/>
<path d="M100.422 410.745L84.1128 466.104L100.422 511.772C104.536 513.088 108.916 513.351 113.158 512.537C117.401 511.723 121.371 509.858 124.707 507.112L142.641 492.37L163.86 409.229L142.641 359.409L100.422 410.745Z" fill="#F7E491"/>
<path d="M163.859 409.229L184.859 457.639L227.082 422.912L242.973 390.146L227.082 350.306L184.859 308.083L163.859 409.229Z" fill="#F7E491"/>
<path d="M139.043 156.507C138.144 161.153 135.87 165.421 132.517 168.76C129.163 172.098 124.884 174.352 120.234 175.229C118.557 175.586 117.055 176.512 115.983 177.849C114.911 179.187 114.334 180.855 114.351 182.569V182.964C114.351 184.671 114.939 186.326 116.016 187.65C117.093 188.974 118.594 189.886 120.265 190.234C124.907 191.116 129.178 193.37 132.525 196.705C135.872 200.04 138.142 204.302 139.042 208.941C139.373 210.627 140.279 212.146 141.605 213.238C142.932 214.331 144.597 214.928 146.315 214.929H146.788C148.49 214.933 150.142 214.351 151.465 213.279C152.788 212.207 153.701 210.712 154.05 209.046C154.927 204.397 157.18 200.119 160.517 196.765C163.853 193.412 168.121 191.137 172.765 190.237C174.438 189.912 175.947 189.02 177.038 187.711C178.129 186.402 178.734 184.757 178.753 183.053V182.399C178.734 180.695 178.129 179.05 177.038 177.741C175.947 176.432 174.438 175.54 172.765 175.215C168.121 174.315 163.855 172.041 160.518 168.688C157.181 165.335 154.928 161.057 154.051 156.409C153.694 154.73 152.766 153.227 151.426 152.154C150.086 151.082 148.415 150.506 146.699 150.526H146.226C144.523 150.543 142.878 151.147 141.569 152.237C140.26 153.327 139.368 154.835 139.043 156.507Z" fill="#FFD35B"/>
<path d="M407.371 305.499C406.473 310.146 404.2 314.416 400.846 317.755C397.492 321.094 393.213 323.348 388.562 324.226C386.885 324.582 385.384 325.507 384.311 326.844C383.239 328.181 382.662 329.848 382.679 331.562V331.962C382.679 333.668 383.267 335.323 384.345 336.646C385.422 337.97 386.922 338.881 388.593 339.228C393.236 340.11 397.507 342.365 400.854 345.701C404.202 349.036 406.471 353.3 407.37 357.939C407.701 359.625 408.608 361.143 409.934 362.236C411.261 363.328 412.925 363.925 414.643 363.927H415.116C416.819 363.931 418.47 363.349 419.793 362.277C421.116 361.205 422.029 359.71 422.378 358.044C423.255 353.395 425.508 349.117 428.845 345.763C432.182 342.41 436.449 340.135 441.093 339.235C442.766 338.91 444.275 338.018 445.366 336.709C446.457 335.4 447.063 333.755 447.081 332.051V331.399C447.063 329.695 446.457 328.05 445.366 326.741C444.275 325.432 442.766 324.54 441.093 324.215C436.449 323.315 432.182 321.04 428.845 317.687C425.508 314.333 423.255 310.055 422.378 305.406C422.021 303.727 421.093 302.224 419.753 301.151C418.413 300.079 416.742 299.503 415.026 299.523H414.553C412.851 299.54 411.207 300.144 409.898 301.232C408.59 302.321 407.697 303.828 407.371 305.499Z" fill="#FFD35B"/>
<path d="M180.664 67.573C180.664 70.876 179.684 74.1047 177.849 76.851C176.014 79.5973 173.406 81.7378 170.354 83.0018C167.303 84.2658 163.945 84.5965 160.706 83.9521C157.466 83.3078 154.491 81.7172 152.155 79.3817C149.819 77.0462 148.229 74.0705 147.585 70.831C146.94 67.5915 147.271 64.2337 148.535 61.1822C149.799 58.1307 151.939 55.5225 154.686 53.6875C157.432 51.8525 160.661 50.873 163.964 50.873C166.157 50.873 168.328 51.305 170.354 52.1442C172.381 52.9835 174.222 54.2136 175.772 55.7643C177.323 57.3151 178.553 59.1561 179.392 61.1822C180.232 63.2083 180.664 65.3799 180.664 67.573Z" fill="#FF84B2"/>
<path d="M450.555 222.866C450.555 226.169 449.575 229.398 447.74 232.144C445.905 234.89 443.297 237.031 440.246 238.295C437.194 239.559 433.836 239.889 430.597 239.245C427.357 238.601 424.382 237.01 422.046 234.675C419.711 232.339 418.12 229.364 417.476 226.124C416.831 222.885 417.162 219.527 418.426 216.475C419.69 213.424 421.83 210.815 424.577 208.98C427.323 207.145 430.552 206.166 433.855 206.166C438.284 206.166 442.532 207.925 445.663 211.057C448.795 214.189 450.555 218.437 450.555 222.866Z" fill="#FF84B2"/>
<path d="M184.855 457.64L227.078 422.913L242.969 390.147L237.606 376.706L172.852 429.964L184.855 457.64Z" fill="#FFD35B"/>
<path d="M142.641 492.362L154.77 444.839L104.1 486.511C100.958 489.096 97.249 490.899 93.2759 491.773L100.421 511.773C104.535 513.09 108.915 513.354 113.158 512.54C117.4 511.726 121.371 509.86 124.706 507.113L142.641 492.362Z" fill="#FFD35B"/>
<path d="M100.422 410.745V511.772C96.4843 510.528 92.9059 508.35 89.9918 505.424L69.5778 485.011C65.0342 480.469 62.3443 474.398 62.0325 467.981C61.7206 461.564 63.809 455.26 67.8908 450.299L100.422 410.745Z" fill="#F39BFF"/>
<path d="M184.855 308.085V457.64L142.64 492.37V359.405L184.855 308.085Z" fill="#F39BFF"/>
<path d="M227.078 350.308L266.918 390.148L227.078 422.914V350.308Z" fill="#F39BFF"/>
<path d="M227.078 385.366V422.913L266.918 390.147L246.318 369.542L227.078 385.366Z" fill="#EB76E4"/>
<path d="M142.641 454.815V492.366L184.856 457.639V420.093L142.641 454.815Z" fill="#EB76E4"/>
<path d="M79.82 491.171C75.934 489.94 72.3966 487.801 69.5 484.933C69.527 484.96 69.547 484.988 69.57 485.011L89.984 505.425C90.007 505.448 90.031 505.468 90.054 505.488C92.973 508.36 96.5212 510.512 100.417 511.773V489.026C97.3173 490.784 93.8874 491.883 90.3428 492.252C86.7982 492.621 83.2155 492.253 79.82 491.171Z" fill="#EB76E4"/>
</svg>
