<svg width="512" height="512" viewBox="0 0 512 512" fill="none" xmlns="http://www.w3.org/2000/svg">
<path d="M242.383 7.05499C260.77 -8.50801 289.055 3.21099 291.051 27.215C291.211 29.1235 292.042 30.9136 293.397 32.2674C294.752 33.6212 296.543 34.4512 298.451 34.61C322.451 36.61 334.174 64.895 318.611 83.282C317.375 84.7443 316.696 86.5974 316.696 88.5125C316.696 90.4276 317.375 92.2807 318.611 93.743C334.174 112.13 322.455 140.415 298.451 142.411C296.542 142.57 294.751 143.401 293.396 144.755C292.041 146.11 291.21 147.902 291.051 149.811C289.051 173.811 260.77 185.534 242.383 169.971C240.921 168.734 239.068 168.056 237.153 168.056C235.238 168.056 233.384 168.734 231.922 169.971C213.535 185.534 185.25 173.815 183.25 149.811C183.091 147.902 182.261 146.112 180.908 144.757C179.554 143.402 177.764 142.571 175.855 142.411C151.855 140.411 140.132 112.13 155.695 93.743C156.932 92.2807 157.61 90.4276 157.61 88.5125C157.61 86.5974 156.932 84.7443 155.695 83.282C140.133 64.895 151.851 36.61 175.855 34.61C177.764 34.4524 179.555 33.6227 180.909 32.2685C182.263 30.9143 183.093 29.1236 183.25 27.215C185.25 3.21498 213.535 -8.50801 231.922 7.05499C233.384 8.29163 235.238 8.97018 237.153 8.97018C239.068 8.97018 240.921 8.29163 242.383 7.05499Z" fill="#EDA1AB"/>
<path d="M155.7 93.738C140.138 112.129 151.856 140.414 175.86 142.41C177.769 142.569 179.56 143.399 180.914 144.754C182.269 146.109 183.098 147.901 183.255 149.81C185.255 173.81 213.54 185.529 231.927 169.97C233.388 168.731 235.242 168.051 237.158 168.051C239.073 168.051 240.927 168.731 242.388 169.97C258.861 183.911 283.267 175.947 289.607 156.876C237.892 154.638 224.74 112.476 230.884 90.024C231.414 88.1487 231.267 86.1468 230.469 84.369C229.671 82.5911 228.273 81.1507 226.52 80.3C204.656 69.7 190.02 31.219 203.082 1.67999C197.64 3.5281 192.86 6.93275 189.335 11.4718C185.81 16.0109 183.694 21.4849 183.25 27.215C183.093 29.1236 182.263 30.9143 180.909 32.2685C179.555 33.6227 177.764 34.4524 175.855 34.61C151.855 36.61 140.136 64.895 155.695 83.282C156.933 84.7426 157.612 86.5947 157.613 88.5091C157.614 90.4235 156.936 92.2762 155.7 93.738Z" fill="#E26E7E"/>
<path d="M218.512 162.613L73.5431 458.953C71.5522 463.022 70.5405 467.5 70.5888 472.03C70.6371 476.559 71.7441 481.015 73.8214 485.04C75.8987 489.066 78.8887 492.55 82.5525 495.214C86.2162 497.878 90.4523 499.648 94.9221 500.383C189.109 515.871 285.193 515.871 379.379 500.383C383.849 499.648 388.085 497.878 391.749 495.214C395.413 492.55 398.404 489.067 400.481 485.041C402.559 481.016 403.666 476.56 403.715 472.03C403.764 467.501 402.753 463.022 400.762 458.953L255.789 162.613C254.082 159.124 251.43 156.185 248.135 154.129C244.84 152.073 241.035 150.983 237.151 150.983C233.267 150.983 229.461 152.073 226.166 154.129C222.871 156.185 220.219 159.124 218.512 162.613Z" fill="#A3DEFE"/>
<path d="M203.1 194.117L73.5431 458.953C71.5522 463.022 70.5405 467.5 70.5888 472.03C70.6371 476.559 71.7441 481.015 73.8214 485.04C75.8987 489.066 78.8887 492.55 82.5525 495.214C86.2162 497.878 90.4523 499.648 94.9221 500.383C143.319 508.34 192.298 512.22 241.344 511.983C179.617 457.371 177.891 294.66 203.1 194.117Z" fill="#7ACEFA"/>
<path d="M90.9142 423.438L73.5431 458.953C71.5522 463.022 70.5405 467.5 70.5888 472.03C70.6371 476.559 71.7441 481.015 73.8214 485.04C75.8987 489.066 78.8887 492.55 82.5525 495.214C86.2162 497.878 90.4523 499.648 94.9221 500.383C189.109 515.871 285.193 515.871 379.379 500.383C383.849 499.648 388.085 497.878 391.749 495.214C395.413 492.55 398.404 489.067 400.481 485.041C402.559 481.016 403.666 476.56 403.715 472.03C403.764 467.501 402.753 463.022 400.762 458.953L383.387 423.437C339.258 432.437 287.606 439.89 237.149 439.89C186.692 439.89 135.047 432.438 90.9142 423.438Z" fill="#F7EF87"/>
<path d="M309.793 273L255.793 162.613C254.086 159.124 251.434 156.185 248.138 154.129C244.843 152.072 241.037 150.982 237.153 150.982C233.268 150.982 229.462 152.072 226.167 154.129C222.872 156.185 220.219 159.124 218.512 162.613L138.777 325.6C186.262 326.137 247.676 318.164 309.793 273Z" fill="#F7EF87"/>
<path d="M203.1 194.117L138.777 325.6C155.189 325.848 171.596 324.845 187.855 322.6C188.137 277.012 193.773 231.313 203.1 194.117Z" fill="#EFD176"/>
<path d="M201.227 438.7C162.661 436.259 124.598 430.305 90.9181 423.434L73.5431 458.953C71.5521 463.022 70.5405 467.501 70.5891 472.031C70.6376 476.56 71.745 481.016 73.8227 485.042C75.9004 489.067 78.8909 492.551 82.5551 495.215C86.2194 497.879 90.4559 499.649 94.9261 500.383C143.322 508.34 192.299 512.22 241.344 511.983C222.918 495.676 209.84 469.742 201.227 438.7Z" fill="#EFD176"/>
<path d="M280.133 256C280.133 257.479 279.694 258.926 278.872 260.156C278.051 261.386 276.882 262.344 275.516 262.911C274.149 263.477 272.645 263.625 271.194 263.336C269.743 263.048 268.41 262.335 267.364 261.289C266.318 260.243 265.605 258.91 265.317 257.459C265.028 256.008 265.176 254.504 265.742 253.138C266.309 251.771 267.267 250.603 268.497 249.781C269.728 248.959 271.174 248.52 272.653 248.52C273.635 248.52 274.608 248.713 275.516 249.089C276.423 249.465 277.248 250.016 277.943 250.711C278.637 251.405 279.188 252.23 279.564 253.137C279.94 254.045 280.133 255.018 280.133 256Z" fill="#EFD176"/>
<path d="M244.633 201.6C244.633 203.079 244.194 204.526 243.372 205.756C242.551 206.986 241.382 207.944 240.016 208.511C238.649 209.077 237.145 209.225 235.694 208.936C234.243 208.648 232.91 207.935 231.864 206.889C230.818 205.843 230.105 204.51 229.817 203.059C229.528 201.608 229.676 200.104 230.242 198.738C230.809 197.371 231.767 196.203 232.997 195.381C234.228 194.559 235.674 194.12 237.153 194.12C238.135 194.12 239.108 194.313 240.016 194.689C240.923 195.065 241.748 195.616 242.443 196.311C243.137 197.005 243.688 197.83 244.064 198.737C244.44 199.645 244.633 200.618 244.633 201.6Z" fill="#EFD176"/>
<path d="M210.582 273.324C210.583 274.804 210.144 276.251 209.322 277.482C208.5 278.712 207.332 279.672 205.964 280.238C204.597 280.805 203.093 280.953 201.641 280.664C200.189 280.376 198.856 279.663 197.81 278.617C196.763 277.57 196.05 276.237 195.762 274.785C195.473 273.334 195.622 271.829 196.188 270.462C196.755 269.095 197.714 267.926 198.945 267.104C200.175 266.282 201.622 265.844 203.102 265.844C205.086 265.845 206.988 266.633 208.391 268.035C209.793 269.438 210.582 271.34 210.582 273.324Z" fill="#EFD176"/>
<path d="M146.262 463.828C146.262 465.308 145.824 466.754 145.002 467.985C144.18 469.216 143.012 470.175 141.645 470.742C140.278 471.308 138.774 471.457 137.322 471.169C135.871 470.88 134.538 470.168 133.491 469.122C132.444 468.076 131.731 466.743 131.442 465.292C131.153 463.84 131.301 462.336 131.867 460.969C132.433 459.601 133.391 458.433 134.622 457.61C135.852 456.788 137.298 456.348 138.778 456.348C140.762 456.348 142.665 457.136 144.068 458.539C145.472 459.941 146.261 461.844 146.262 463.828Z" fill="#F7EF87"/>
<path d="M210.582 485.828C210.583 487.308 210.144 488.755 209.322 489.986C208.5 491.216 207.332 492.176 205.964 492.742C204.597 493.309 203.093 493.457 201.641 493.168C200.189 492.88 198.856 492.167 197.81 491.121C196.763 490.074 196.05 488.741 195.762 487.289C195.473 485.838 195.622 484.333 196.188 482.966C196.755 481.599 197.714 480.43 198.945 479.608C200.175 478.786 201.622 478.348 203.102 478.348C205.086 478.349 206.988 479.137 208.391 480.539C209.793 481.942 210.582 483.844 210.582 485.828Z" fill="#F7EF87"/>
<path d="M280.133 463.828C280.133 465.307 279.694 466.754 278.872 467.984C278.051 469.214 276.882 470.172 275.516 470.739C274.149 471.305 272.645 471.453 271.194 471.164C269.743 470.876 268.41 470.163 267.364 469.117C266.318 468.071 265.605 466.738 265.317 465.287C265.028 463.836 265.176 462.332 265.742 460.966C266.309 459.599 267.267 458.431 268.497 457.609C269.728 456.787 271.174 456.348 272.653 456.348C274.637 456.349 276.539 457.137 277.942 458.539C279.344 459.942 280.133 461.844 280.133 463.828Z" fill="#EFD176"/>
<path d="M348.895 478.348C348.896 479.828 348.457 481.274 347.635 482.505C346.814 483.736 345.645 484.695 344.278 485.262C342.911 485.828 341.407 485.977 339.955 485.689C338.504 485.4 337.171 484.688 336.124 483.642C335.077 482.596 334.364 481.263 334.075 479.812C333.786 478.36 333.934 476.856 334.5 475.489C335.066 474.121 336.025 472.953 337.255 472.13C338.485 471.308 339.931 470.868 341.411 470.868C342.394 470.868 343.367 471.061 344.275 471.437C345.182 471.813 346.007 472.363 346.702 473.058C347.397 473.753 347.949 474.577 348.325 475.485C348.701 476.393 348.895 477.365 348.895 478.348Z" fill="#EFD176"/>
<path d="M103.219 244.848L93.0821 266.176C92.4865 267.427 91.5952 268.514 90.4852 269.344C89.3753 270.173 88.08 270.72 86.7114 270.936C85.3428 271.153 83.942 271.033 82.6302 270.587C81.3183 270.141 80.1349 269.382 79.182 268.376L62.945 251.227C61.5977 249.8 59.7978 248.883 57.8511 248.633L34.4381 245.578C33.0635 245.4 31.7532 244.889 30.6205 244.09C29.4878 243.291 28.5669 242.228 27.9374 240.993C27.308 239.758 26.989 238.388 27.0081 237.002C27.0272 235.617 27.3838 234.256 28.0471 233.039L39.3471 212.301C40.2858 210.578 40.6006 208.584 40.2381 206.656L35.9001 183.441C35.6457 182.079 35.7271 180.675 36.1373 179.351C36.5476 178.027 37.2742 176.823 38.2544 175.843C39.2346 174.864 40.4389 174.137 41.7629 173.728C43.0869 173.318 44.4908 173.237 45.8531 173.492L69.064 177.824C70.9936 178.183 72.9879 177.867 74.7121 176.929L95.4461 165.636C96.6635 164.973 98.0241 164.616 99.4102 164.597C100.796 164.578 102.166 164.897 103.401 165.527C104.637 166.156 105.7 167.077 106.499 168.209C107.299 169.342 107.81 170.652 107.989 172.027L111.04 195.441C111.294 197.387 112.21 199.186 113.634 200.535L130.786 216.769C131.792 217.722 132.551 218.905 132.998 220.217C133.444 221.529 133.564 222.93 133.347 224.298C133.131 225.667 132.584 226.962 131.754 228.072C130.925 229.182 129.837 230.074 128.586 230.669L107.262 240.809C105.489 241.649 104.061 243.076 103.219 244.848Z" fill="#6FCE91"/>
<path d="M71.3441 177.934C70.5836 177.999 69.8179 177.962 69.0671 177.825L45.8561 173.489C44.4936 173.235 43.0897 173.317 41.7658 173.727C40.4419 174.137 39.2378 174.864 38.2576 175.843C37.2774 176.823 36.5505 178.027 36.1397 179.351C35.729 180.675 35.6467 182.078 35.9001 183.441L40.2361 206.652C40.5951 208.582 40.2791 210.576 39.3411 212.3L28.0411 233.038C27.3781 234.255 27.0217 235.616 27.0028 237.001C26.9838 238.387 27.3028 239.757 27.9322 240.992C28.5616 242.227 29.4824 243.289 30.6149 244.088C31.7475 244.887 33.0577 245.398 34.4321 245.577L57.8501 248.628C59.7952 248.883 61.5936 249.799 62.9441 251.222L79.1741 268.374C80.1268 269.38 81.3103 270.139 82.6222 270.586C83.9341 271.032 85.3349 271.152 86.7036 270.935C88.0723 270.719 89.3676 270.172 90.4775 269.342C91.5875 268.513 92.4787 267.425 93.0741 266.174L101.504 248.444C79.0391 236.387 69.8401 202.852 71.3441 177.934Z" fill="#3CB767"/>
<path d="M408.059 292.043L418.2 270.715C418.796 269.464 419.687 268.377 420.797 267.547C421.907 266.718 423.202 266.171 424.571 265.955C425.939 265.738 427.34 265.858 428.652 266.304C429.964 266.75 431.147 267.509 432.1 268.515L448.33 285.667C449.681 287.093 451.482 288.009 453.43 288.261L476.844 291.312C478.219 291.491 479.529 292.003 480.661 292.802C481.794 293.602 482.715 294.665 483.344 295.9C483.973 297.135 484.292 298.505 484.273 299.891C484.254 301.277 483.898 302.638 483.235 303.855L471.935 324.593C470.997 326.316 470.681 328.309 471.04 330.238L475.376 353.449C475.631 354.812 475.55 356.216 475.14 357.54C474.73 358.864 474.003 360.069 473.023 361.049C472.043 362.029 470.839 362.756 469.514 363.166C468.19 363.576 466.786 363.657 465.423 363.402L442.212 359.07C440.283 358.707 438.287 359.023 436.564 359.965L415.826 371.258C414.609 371.921 413.249 372.277 411.863 372.296C410.477 372.315 409.107 371.996 407.872 371.367C406.638 370.738 405.575 369.817 404.776 368.684C403.977 367.552 403.466 366.241 403.287 364.867L400.236 341.453C399.982 339.508 399.066 337.709 397.642 336.359L380.49 320.125C379.484 319.172 378.725 317.989 378.279 316.677C377.832 315.365 377.712 313.964 377.929 312.596C378.145 311.227 378.692 309.932 379.522 308.822C380.351 307.712 381.439 306.82 382.69 306.225L404.014 296.088C405.789 295.247 407.218 293.818 408.059 292.043Z" fill="#B49CDC"/>
<path d="M442.211 359.066L465.422 363.398C466.717 363.644 468.052 363.584 469.32 363.222C470.587 362.86 471.753 362.206 472.722 361.312C432.222 350.912 416.609 304.335 416.531 274.218L408.058 292.038C407.218 293.812 405.789 295.241 404.015 296.081L382.691 306.222C381.439 306.817 380.352 307.708 379.522 308.818C378.692 309.928 378.145 311.223 377.928 312.592C377.712 313.961 377.832 315.362 378.278 316.674C378.725 317.986 379.484 319.17 380.491 320.122L397.643 336.356C399.067 337.706 399.983 339.505 400.237 341.45L403.288 364.864C403.467 366.238 403.978 367.549 404.777 368.681C405.576 369.814 406.639 370.735 407.873 371.364C409.108 371.993 410.478 372.312 411.864 372.293C413.25 372.274 414.61 371.918 415.827 371.255L436.565 359.962C438.288 359.024 440.282 358.708 442.211 359.066Z" fill="#908CD6"/>
</svg>
