<svg width="512" height="512" viewBox="0 0 512 512" fill="none" xmlns="http://www.w3.org/2000/svg">
<path d="M306.594 309.582C304.105 309.581 301.643 309.073 299.356 308.09C285.651 302.239 270.903 299.223 256.001 299.223C241.099 299.223 226.351 302.239 212.645 308.09C210.419 309.072 208.021 309.604 205.588 309.653C203.155 309.702 200.737 309.268 198.473 308.377C196.209 307.485 194.145 306.153 192.399 304.458C190.653 302.764 189.261 300.739 188.303 298.503C187.345 296.266 186.84 293.862 186.817 291.429C186.794 288.996 187.254 286.583 188.17 284.329C189.086 282.075 190.44 280.025 192.154 278.297C193.867 276.57 195.906 275.2 198.153 274.266C216.439 266.453 236.118 262.425 256.003 262.425C275.888 262.425 295.567 266.453 313.853 274.266C317.751 275.934 320.953 278.897 322.918 282.654C324.883 286.411 325.491 290.731 324.637 294.884C323.784 299.037 321.523 302.768 318.237 305.446C314.95 308.124 310.839 309.585 306.599 309.582H306.594Z" fill="#8EAFE2"/>
<path d="M323.516 298.426C325.437 293.94 325.497 288.876 323.685 284.345C321.873 279.815 318.336 276.19 313.852 274.266C305.686 270.697 297.195 267.924 288.497 265.985C278.859 273.592 271.69 283.883 267.892 295.559C267.443 296.946 267.056 298.34 266.708 299.743C277.966 300.765 288.989 303.584 299.356 308.091C301.577 309.045 303.964 309.551 306.38 309.582C308.797 309.612 311.196 309.166 313.44 308.268C315.684 307.37 317.728 306.039 319.457 304.351C321.186 302.662 322.566 300.649 323.516 298.427V298.426Z" fill="#6A96D7"/>
<path d="M188.484 298.426C187.532 296.205 187.028 293.818 186.998 291.402C186.969 288.985 187.416 286.587 188.314 284.344C189.212 282.1 190.543 280.055 192.231 278.326C193.919 276.597 195.931 275.217 198.152 274.266C206.317 270.696 214.809 267.923 223.507 265.985C233.142 273.594 240.31 283.884 244.107 295.559C244.556 296.946 244.943 298.34 245.295 299.743C234.035 300.765 223.012 303.583 212.643 308.091C210.422 309.045 208.035 309.551 205.619 309.582C203.202 309.612 200.803 309.166 198.559 308.268C196.316 307.37 194.271 306.039 192.542 304.351C190.813 302.662 189.433 300.649 188.483 298.427L188.484 298.426Z" fill="#6A96D7"/>
<path d="M18.4 326.523C15.9835 326.523 13.5907 326.047 11.3582 325.122C9.12564 324.197 7.09715 322.842 5.38853 321.133C3.6799 319.424 2.32461 317.396 1.40004 315.163C0.475474 312.93 -0.000262553 310.537 1.08706e-07 308.121V155.551C0.0174688 140.028 6.19183 125.145 17.1685 114.168C28.1451 103.192 43.0277 97.0175 58.551 97C63.431 97 68.1111 98.9386 71.5618 102.389C75.0124 105.84 76.951 110.52 76.951 115.4C76.951 120.28 75.0124 124.96 71.5618 128.411C68.1111 131.861 63.431 133.8 58.551 133.8C52.7843 133.807 47.2557 136.1 43.178 140.178C39.1004 144.256 36.8066 149.784 36.8 155.551V308.121C36.8003 310.537 36.3245 312.93 35.4 315.163C34.4754 317.396 33.1201 319.424 31.4115 321.133C29.7028 322.842 27.6744 324.197 25.4418 325.122C23.2093 326.047 20.8165 326.523 18.4 326.523Z" fill="#8EAFE2"/>
<path d="M58.551 97C43.0277 97.0175 28.1451 103.192 17.1685 114.168C6.19183 125.145 0.0174687 140.028 0 155.551L0 185.789H36.8V155.551C36.8066 149.784 39.1004 144.256 43.178 140.178C47.2557 136.1 52.7843 133.807 58.551 133.8C63.431 133.8 68.1111 131.861 71.5618 128.411C75.0124 124.96 76.951 120.28 76.951 115.4C76.951 110.52 75.0124 105.84 71.5618 102.389C68.1111 98.9386 63.431 97 58.551 97V97Z" fill="#6A96D7"/>
<path d="M493.6 326.523C488.72 326.523 484.04 324.584 480.589 321.134C477.138 317.683 475.2 313.003 475.2 308.123V155.551C475.193 149.784 472.899 144.256 468.822 140.178C464.744 136.1 459.216 133.807 453.449 133.8C448.569 133.8 443.889 131.861 440.438 128.411C436.987 124.96 435.049 120.28 435.049 115.4C435.049 110.52 436.987 105.84 440.438 102.389C443.889 98.9386 448.569 97 453.449 97C468.972 97.0175 483.855 103.192 494.831 114.168C505.808 125.145 511.982 140.028 512 155.551V308.121C512 310.537 511.524 312.93 510.6 315.163C509.675 317.396 508.32 319.424 506.611 321.133C504.903 322.842 502.874 324.197 500.642 325.122C498.409 326.047 496.016 326.523 493.6 326.523Z" fill="#8EAFE2"/>
<path d="M453.449 97C468.972 97.0175 483.855 103.192 494.831 114.168C505.808 125.145 511.982 140.028 512 155.551V185.789H475.2V155.551C475.193 149.785 472.899 144.256 468.822 140.179C464.744 136.102 459.216 133.808 453.45 133.801C448.57 133.801 443.89 131.862 440.439 128.412C436.988 124.961 435.05 120.281 435.05 115.401C435.05 110.521 436.988 105.841 440.439 102.39C443.89 98.9396 448.57 97.001 453.45 97.001L453.449 97Z" fill="#6A96D7"/>
<path d="M71.7621 440.848C65.903 440.83 60.1063 439.644 54.7105 437.361C49.3147 435.077 44.4281 431.741 40.3361 427.548C36.2377 423.362 33.0277 418.39 30.8991 412.932C28.7705 407.474 27.767 401.642 27.9491 395.786L28.7851 365.524L10.3241 341.531C5.98038 335.885 3.07763 329.266 1.86694 322.247C0.656246 315.227 1.17407 308.018 3.37561 301.244C5.57716 294.469 9.39611 288.333 14.5021 283.366C19.6081 278.4 25.8473 274.752 32.6801 272.738L61.7151 264.176L78.8241 239.211C82.8515 233.335 88.2498 228.529 94.552 225.208C100.854 221.887 107.87 220.152 114.994 220.152C122.118 220.152 129.134 221.887 135.436 225.208C141.738 228.529 147.137 233.335 151.164 239.211L168.273 264.176L197.308 272.739C204.14 274.753 210.379 278.402 215.484 283.369C220.59 288.336 224.408 294.472 226.609 301.246C228.81 308.021 229.328 315.229 228.117 322.249C226.906 329.268 224.004 335.887 219.66 341.532L201.2 365.523L202.032 395.781C202.215 401.636 201.212 407.468 199.084 412.927C196.956 418.385 193.747 423.356 189.649 427.543C183.801 433.574 176.342 437.794 168.161 439.702C159.981 441.609 151.424 441.122 143.512 438.3L114.992 428.159L86.4731 438.3C81.7519 439.982 76.7778 440.843 71.7661 440.847L71.7621 440.848Z" fill="#B49CDC"/>
<path d="M197.922 415.613C105.652 388.513 74.5391 286.246 83.2741 233.746C81.6465 235.445 80.1587 237.273 78.8251 239.211L61.7151 264.176L32.6801 272.734C25.8468 274.748 19.607 278.396 14.5006 283.364C9.39429 288.331 5.57518 294.468 3.37371 301.243C1.17225 308.019 0.654732 315.228 1.86594 322.249C3.07715 329.269 5.98061 335.888 10.3251 341.534L28.7861 365.526L27.9501 395.788C27.7672 401.644 28.7702 407.476 30.8989 412.934C33.0276 418.393 36.238 423.364 40.3371 427.55C44.4292 431.743 49.3158 435.079 54.7116 437.363C60.1073 439.646 65.904 440.832 71.7631 440.85C76.776 440.846 81.7512 439.983 86.4731 438.3L114.993 428.155L143.513 438.296C153.781 441.936 165.034 441.63 175.089 437.438C185.144 433.246 193.282 425.467 197.923 415.612L197.922 415.613Z" fill="#908CD6"/>
<path d="M110.574 397.18L76.1999 409.406C74.1822 410.123 72.0202 410.338 69.9008 410.032C67.7814 409.727 65.7684 408.909 64.0359 407.65C62.3034 406.392 60.9036 404.73 59.9575 402.809C59.0114 400.888 58.5475 398.766 58.6059 396.625L59.6059 360.152C59.6875 357.122 58.7235 354.155 56.8759 351.752L34.6259 322.834C33.3198 321.137 32.4469 319.147 32.0827 317.037C31.7184 314.927 31.8739 312.76 32.5356 310.723C33.1973 308.687 34.3453 306.842 35.8802 305.349C37.4152 303.856 39.2908 302.759 41.3449 302.154L76.3449 291.834C79.2526 290.977 81.7759 289.143 83.4899 286.643L104.119 256.543C105.33 254.777 106.953 253.333 108.847 252.335C110.742 251.337 112.851 250.815 114.992 250.815C117.133 250.815 119.242 251.337 121.137 252.335C123.031 253.333 124.654 254.777 125.865 256.543L146.49 286.643C148.204 289.144 150.729 290.978 153.638 291.834L188.638 302.154C190.692 302.759 192.568 303.856 194.103 305.349C195.638 306.842 196.785 308.687 197.447 310.723C198.109 312.76 198.264 314.927 197.9 317.037C197.536 319.147 196.663 321.137 195.357 322.834L173.107 351.752C171.258 354.155 170.295 357.122 170.38 360.152L171.38 396.625C171.439 398.766 170.975 400.889 170.029 402.81C169.083 404.731 167.683 406.393 165.951 407.652C164.218 408.91 162.205 409.728 160.085 410.033C157.966 410.339 155.804 410.124 153.786 409.406L119.41 397.18C116.552 396.164 113.432 396.164 110.574 397.18Z" fill="#F7EF87"/>
<path d="M90.5898 276.285L83.4898 286.64C81.7758 289.14 79.2525 290.974 76.3448 291.831L46.5088 300.631L155.82 409.938C157.75 410.294 159.735 410.214 161.631 409.705C163.526 409.195 165.284 408.269 166.775 406.993C168.267 405.717 169.455 404.124 170.252 402.331C171.049 400.537 171.435 398.588 171.383 396.626L170.383 360.153C170.352 358.919 170.494 357.687 170.805 356.493L90.5898 276.285Z" fill="#EFD176"/>
<path d="M353.773 440.848C347.914 440.83 342.118 439.644 336.723 437.361C331.328 435.077 326.442 431.741 322.351 427.548C318.252 423.362 315.041 418.391 312.913 412.932C310.784 407.474 309.781 401.642 309.964 395.786L310.8 365.524L292.34 341.531C287.996 335.885 285.094 329.266 283.883 322.246C282.673 315.226 283.191 308.017 285.393 301.243C287.595 294.468 291.414 288.332 296.521 283.365C301.627 278.399 307.867 274.751 314.7 272.738L343.735 264.176L360.844 239.211C364.871 233.335 370.27 228.529 376.572 225.208C382.874 221.887 389.89 220.152 397.014 220.152C404.137 220.152 411.154 221.887 417.456 225.208C423.758 228.529 429.156 233.335 433.184 239.211L450.293 264.176L479.328 272.739C486.16 274.753 492.399 278.402 497.504 283.369C502.61 288.336 506.428 294.472 508.629 301.246C510.83 308.021 511.348 315.229 510.137 322.249C508.926 329.268 506.023 335.887 501.68 341.532L483.219 365.524L484.055 395.782C484.238 401.637 483.235 407.469 481.107 412.928C478.979 418.386 475.77 423.357 471.672 427.544C465.823 433.576 458.363 437.797 450.18 439.705C441.998 441.612 433.44 441.124 425.527 438.3L397.007 428.159L368.488 438.3C363.767 439.982 358.793 440.843 353.781 440.847L353.773 440.848Z" fill="#B49CDC"/>
<path d="M479.934 415.613C387.668 388.513 356.551 286.246 365.289 233.746C363.662 235.445 362.174 237.273 360.84 239.211L343.727 264.176L314.7 272.734C307.867 274.748 301.627 278.396 296.521 283.364C291.414 288.331 287.595 294.468 285.394 301.243C283.192 308.019 282.675 315.228 283.886 322.249C285.097 329.269 288.001 335.888 292.345 341.534L310.8 365.523L309.968 395.781C309.785 401.637 310.787 407.47 312.915 412.929C315.043 418.388 318.253 423.36 322.351 427.547C326.443 431.74 331.33 435.076 336.726 437.359C342.122 439.643 347.918 440.829 353.777 440.847H353.785C358.797 440.847 363.772 439.985 368.492 438.3L397.012 428.159L425.523 438.3C435.791 441.94 447.044 441.634 457.099 437.442C467.154 433.25 475.292 425.471 479.933 415.616L479.934 415.613Z" fill="#908CD6"/>
<path d="M392.59 397.18L358.215 409.407C356.197 410.125 354.035 410.341 351.915 410.035C349.796 409.729 347.782 408.912 346.05 407.653C344.317 406.395 342.917 404.733 341.971 402.811C341.025 400.89 340.562 398.767 340.621 396.626L341.621 360.153C341.706 357.123 340.742 354.156 338.894 351.753L316.644 322.835C315.338 321.138 314.465 319.148 314.101 317.038C313.737 314.928 313.892 312.761 314.554 310.724C315.215 308.688 316.363 306.843 317.898 305.35C319.433 303.857 321.309 302.76 323.363 302.155L358.363 291.835C361.272 290.979 363.796 289.145 365.511 286.644L386.136 256.544C387.347 254.778 388.97 253.334 390.864 252.336C392.759 251.338 394.868 250.816 397.009 250.816C399.15 250.816 401.259 251.338 403.154 252.336C405.048 253.334 406.671 254.778 407.882 256.544L428.511 286.644C430.225 289.144 432.748 290.978 435.656 291.835L470.656 302.155C472.71 302.76 474.586 303.857 476.121 305.35C477.656 306.843 478.804 308.688 479.465 310.724C480.127 312.761 480.282 314.928 479.918 317.038C479.554 319.148 478.681 321.138 477.375 322.835L455.125 351.753C453.277 354.156 452.313 357.123 452.395 360.153L453.395 396.626C453.453 398.767 452.989 400.889 452.043 402.81C451.097 404.731 449.697 406.393 447.964 407.651C446.232 408.91 444.219 409.727 442.099 410.033C439.98 410.339 437.818 410.123 435.8 409.406L401.422 397.18C398.566 396.164 395.446 396.164 392.59 397.18Z" fill="#F7EF87"/>
<path d="M372.605 276.285L365.505 286.64C363.791 289.14 361.268 290.974 358.36 291.831L328.524 300.631L437.836 409.938C439.766 410.294 441.751 410.214 443.646 409.705C445.542 409.195 447.299 408.269 448.79 406.993C450.282 405.717 451.469 404.124 452.266 402.33C453.062 400.537 453.448 398.588 453.395 396.626L452.395 360.153C452.364 358.919 452.506 357.687 452.817 356.493L372.605 276.285Z" fill="#EFD176"/>
</svg>
