<svg width="512" height="512" viewBox="0 0 512 512" fill="none" xmlns="http://www.w3.org/2000/svg">
<path d="M333.719 334.121H178.77C163.714 334.121 149.275 328.14 138.628 317.493C127.982 306.847 122.001 292.408 122 277.352V116.922C122 85.9124 134.319 56.1728 156.246 34.2457C178.173 12.3185 207.912 0 238.922 0L273.567 0C304.576 0.000265215 334.316 12.3189 356.243 34.246C378.17 56.1731 390.488 85.9125 390.488 116.922V277.352C390.487 292.408 384.506 306.847 373.86 317.493C363.214 328.139 348.775 334.12 333.719 334.121Z" fill="#EDA1AB"/>
<path d="M237.918 0.0119934C207.085 0.276244 177.604 12.7098 155.894 34.6058C134.183 56.5018 122.002 86.0874 122 116.922V277.352C122 284.807 123.468 292.189 126.321 299.077C129.174 305.965 133.356 312.223 138.627 317.495C143.899 322.766 150.157 326.948 157.045 329.801C163.933 332.654 171.315 334.122 178.77 334.122H279.211C223.887 261.8 218.313 84.734 237.918 0.0119934Z" fill="#E26E7E"/>
<path d="M297.641 334.121H214.841V481.934C214.841 485.883 215.62 489.793 217.131 493.441C218.643 497.089 220.858 500.404 223.651 503.195C226.443 505.987 229.758 508.202 233.407 509.713C237.055 511.223 240.965 512.001 244.914 512H267.574C275.548 512 283.195 508.832 288.834 503.194C294.472 497.555 297.64 489.908 297.64 481.934L297.641 334.121Z" fill="#E1B89A"/>
<path d="M210.914 215.391C205.482 215.391 200.272 217.549 196.431 221.389C192.59 225.23 190.431 230.439 190.43 235.871V334.121H231.395V235.871C231.395 230.439 229.237 225.23 225.396 221.389C221.555 217.549 216.346 215.391 210.914 215.391Z" fill="#EDA1AB"/>
<path d="M301.574 215.391C307.006 215.391 312.216 217.549 316.057 221.389C319.898 225.23 322.057 230.439 322.058 235.871V334.121H281.094V235.871C281.094 230.439 283.252 225.23 287.093 221.39C290.933 217.549 296.142 215.391 301.574 215.391Z" fill="#E26E7E"/>
<path d="M273.566 0H238.922C207.912 0 178.173 12.3185 156.246 34.2457C134.319 56.1728 122 85.9124 122 116.922L122 159.36C176.914 134.614 196.574 167.06 256.242 167.06C315.91 167.06 335.574 134.615 390.488 159.36V116.922C390.488 101.568 387.464 86.3635 381.588 72.1779C375.712 57.9923 367.1 45.1029 356.242 34.2457C345.385 23.3885 332.496 14.776 318.31 8.90016C304.124 3.02428 288.92 0 273.566 0V0Z" fill="#F7EF87"/>
<path d="M229.871 164.848C224.871 103.161 228.465 40.856 237.918 0.0119934C207.085 0.276244 177.604 12.7098 155.894 34.6058C134.183 56.5018 122.002 86.0874 122 116.922L122 159.36C167.938 138.656 189.215 157.98 229.871 164.848Z" fill="#EFD176"/>
<path d="M256.242 122.492C315.902 122.492 335.57 90.055 390.461 114.777C389.901 84.1446 377.339 54.956 355.478 33.491C333.617 12.026 304.204 -0.000139435 273.566 1.2125e-09L238.922 1.2125e-09C208.285 -0.000139435 178.871 12.026 157.01 33.491C135.149 54.956 122.587 84.1446 122.027 114.777C176.918 90.055 196.586 122.492 256.242 122.492Z" fill="#B49CDC"/>
<path d="M214.848 334.121H297.648V376.746H214.848V334.121Z" fill="#D2996F"/>
<path d="M231.578 428.2C224.035 422.251 217.832 417.348 214.844 404.071V433.731C217.305 436.044 219.836 438.044 222.285 439.977C229.637 445.777 236.585 451.258 241.285 464.911C244.765 474.985 243.265 482.524 236.707 487.95C231.762 492.04 224.832 494.278 217.793 494.942C220.41 500.371 224.591 504.893 229.8 507.926C235.811 506.28 241.417 503.412 246.269 499.5C252.902 494.016 262.91 481.59 255.469 460.012C249.328 442.2 239.9 434.762 231.578 428.2Z" fill="#D2996F"/>
<path d="M297.641 451.434V434.063C280.098 423.211 270.61 412.512 270.041 402.793C269.283 389.871 284.33 377.379 297.641 367.902V349.648C297.286 349.894 296.93 350.136 296.567 350.386C278.467 362.792 253.672 379.786 255.067 403.667C256.051 420.469 270 436.121 297.641 451.434Z" fill="#D2996F"/>
<path d="M227.707 119.9C226.973 74.033 230.773 30.892 237.918 0.0130005C207.457 0.273909 178.3 12.4138 156.655 33.8485C135.01 55.2832 122.586 84.3197 122.027 114.777C167.125 94.465 188.449 112.734 227.707 119.9Z" fill="#908CD6"/>
<path d="M157.348 202.574C155.865 202.573 154.417 202.132 153.185 201.308C151.952 200.484 150.992 199.313 150.425 197.943C149.858 196.574 149.709 195.067 149.998 193.613C150.287 192.159 151 190.823 152.048 189.774L160.748 181.074C162.163 179.708 164.057 178.952 166.024 178.969C167.99 178.987 169.871 179.776 171.262 181.166C172.652 182.557 173.441 184.438 173.457 186.405C173.474 188.371 172.718 190.266 171.352 191.68L162.652 200.38C161.245 201.786 159.337 202.575 157.348 202.574Z" fill="#EDA1AB"/>
<path d="M352.051 278.508C350.569 278.507 349.12 278.066 347.888 277.242C346.656 276.418 345.695 275.247 345.128 273.877C344.561 272.508 344.413 271.001 344.701 269.547C344.99 268.093 345.703 266.757 346.751 265.708L355.451 257.008C356.147 256.311 356.974 255.759 357.884 255.382C358.794 255.005 359.769 254.81 360.754 254.81C361.739 254.81 362.714 255.004 363.624 255.381C364.534 255.757 365.361 256.31 366.058 257.006C366.755 257.702 367.307 258.529 367.684 259.439C368.061 260.349 368.256 261.324 368.256 262.309C368.256 263.294 368.062 264.269 367.685 265.179C367.309 266.089 366.756 266.916 366.06 267.613L357.36 276.313C356.663 277.011 355.836 277.564 354.925 277.94C354.014 278.317 353.037 278.51 352.051 278.508Z" fill="#E26E7E"/>
</svg>
