<svg width="512" height="512" viewBox="0 0 512 512" fill="none" xmlns="http://www.w3.org/2000/svg">
<path d="M493.332 54.4H18.668C16.2163 54.4001 13.7885 53.9173 11.5234 52.9791C9.25835 52.0408 7.20027 50.6656 5.46673 48.9319C3.73319 47.1981 2.35817 45.1399 1.42018 42.8747C0.482185 40.6095 -0.000393782 38.1817 2.41094e-07 35.73V18.668C0.000530571 13.7171 1.9675 8.96913 5.46832 5.46832C8.96913 1.9675 13.7171 0.00053033 18.668 0L493.332 0C498.283 0.00053033 503.031 1.9675 506.532 5.46832C510.033 8.96913 511.999 13.7171 512 18.668V35.73C512 38.1817 511.518 40.6095 510.58 42.8747C509.642 45.1399 508.267 47.1981 506.533 48.9319C504.8 50.6656 502.742 52.0408 500.477 52.9791C498.211 53.9173 495.784 54.4001 493.332 54.4Z" fill="#A3DEFE"/>
<path d="M217.16 0H18.668C13.7171 0.00053033 8.96913 1.9675 5.46832 5.46832C1.9675 8.96913 0.000530571 13.7171 2.41094e-07 18.668V35.73C-0.000393782 38.1817 0.482185 40.6095 1.42018 42.8747C2.35817 45.1399 3.73319 47.1981 5.46673 48.9319C7.20027 50.6656 9.25835 52.0408 11.5234 52.9791C13.7885 53.9173 16.2163 54.4001 18.668 54.4H220.068C205.207 38.832 200.285 17.645 217.16 0Z" fill="#7ACEFA"/>
<path d="M145.621 136.3L67.051 214.87L36 170.418C29.6982 161.405 26.7716 150.461 27.7337 139.506C28.6959 128.551 33.4853 118.284 41.2617 110.508C49.038 102.731 59.3046 97.9418 70.2598 96.9797C81.2151 96.0175 92.1592 98.9442 101.172 105.246L145.621 136.3Z" fill="#B49CDC"/>
<path d="M63.84 98.02C56.3786 99.7415 49.4536 103.268 43.6726 108.289C37.8917 113.311 33.4313 119.674 30.683 126.822C27.9346 133.969 26.9821 141.681 27.9091 149.282C28.8362 156.883 31.6144 164.141 36 170.418L67.047 214.867L96.129 185.785C70.938 161.6 62.172 124.391 63.84 98.02Z" fill="#908CD6"/>
<path d="M168.285 152.672L83.43 237.531C80.8415 240.12 77.3306 241.574 73.6696 241.575C70.0086 241.575 66.4974 240.121 63.9085 237.532C61.3196 234.944 59.865 231.433 59.8647 227.772C59.8645 224.111 61.3185 220.6 63.907 218.011L148.766 133.152C151.355 130.563 154.865 129.109 158.526 129.109C162.187 129.109 165.698 130.563 168.286 133.152C170.875 135.74 172.329 139.251 172.329 142.912C172.329 146.573 170.875 150.083 168.286 152.672H168.285Z" fill="#4E5660"/>
<path d="M64.4059 139.688H58.0699C54.6874 139.688 51.4436 138.344 49.0518 135.952C46.66 133.56 45.3162 130.316 45.3159 126.934V54.4H77.1599V126.935C77.1601 128.61 76.8302 130.268 76.1893 131.816C75.5484 133.363 74.6089 134.769 73.4246 135.953C72.2402 137.138 70.8342 138.077 69.2867 138.718C67.7393 139.359 66.0808 139.688 64.4059 139.688Z" fill="#4E5660"/>
<path d="M155.891 165.07L95.8242 225.133L289.441 478.445C296.834 488.118 306.209 496.099 316.938 501.854C327.667 507.609 339.502 511.004 351.65 511.812C363.798 512.62 375.979 510.822 387.375 506.539C398.772 502.256 409.121 495.586 417.73 486.977C426.339 478.369 433.009 468.019 437.292 456.623C441.576 445.226 443.374 433.046 442.566 420.898C441.758 408.75 438.363 396.915 432.609 386.186C426.854 375.456 418.873 366.081 409.2 358.688L155.891 165.07Z" fill="#F7EF87"/>
<path d="M356.109 165.07L416.175 225.133L222.555 478.445C215.162 488.117 205.787 496.097 195.058 501.851C184.329 507.605 172.495 510.999 160.347 511.806C148.2 512.614 136.02 510.816 124.625 506.533C113.229 502.249 102.88 495.58 94.2715 486.972C85.6631 478.363 78.994 468.014 74.711 456.618C70.428 445.222 68.6301 433.043 69.4377 420.895C70.2453 408.748 73.6398 396.913 79.3937 386.185C85.1476 375.456 93.128 366.081 102.8 358.688L356.109 165.07Z" fill="#F7EF87"/>
<path d="M366.379 136.3L444.949 214.87L476 170.418C482.302 161.405 485.228 150.461 484.266 139.506C483.304 128.551 478.515 118.284 470.738 110.508C462.962 102.731 452.695 97.9418 441.74 96.9797C430.785 96.0175 419.841 98.9442 410.828 105.246L366.379 136.3Z" fill="#B49CDC"/>
<path d="M425.945 98.293C420.531 99.6877 415.41 102.043 410.828 105.246L366.379 136.3L444.949 214.87L448.344 210.011C428.2 179.813 417.645 129 425.945 98.293Z" fill="#908CD6"/>
<path d="M343.715 152.672L428.57 237.531C431.159 240.12 434.67 241.575 438.331 241.575C441.992 241.575 445.503 240.121 448.092 237.533C450.681 234.944 452.135 231.433 452.135 227.772C452.136 224.111 450.682 220.6 448.093 218.011L363.234 133.152C360.646 130.563 357.135 129.109 353.474 129.109C349.813 129.109 346.303 130.563 343.714 133.152C341.126 135.741 339.671 139.251 339.671 142.912C339.671 146.573 341.126 150.083 343.714 152.672H343.715Z" fill="#4E5660"/>
<path d="M447.594 139.688H453.93C455.605 139.688 457.263 139.359 458.811 138.718C460.358 138.077 461.765 137.137 462.949 135.953C464.133 134.769 465.073 133.363 465.714 131.815C466.354 130.268 466.684 128.609 466.684 126.934V54.4H434.84V126.935C434.84 128.61 435.17 130.268 435.81 131.816C436.451 133.363 437.391 134.769 438.575 135.953C439.76 137.138 441.166 138.077 442.713 138.718C444.26 139.359 445.919 139.688 447.594 139.688Z" fill="#4E5660"/>
<path d="M460.242 342.762C458.76 342.761 457.311 342.32 456.079 341.496C454.846 340.672 453.886 339.501 453.319 338.131C452.752 336.762 452.603 335.255 452.892 333.801C453.181 332.347 453.894 331.011 454.942 329.962L479.133 305.771C480.547 304.405 482.442 303.649 484.408 303.666C486.375 303.683 488.256 304.472 489.647 305.862C491.037 307.253 491.826 309.134 491.843 311.101C491.86 313.067 491.104 314.961 489.738 316.376L465.547 340.567C464.851 341.265 464.024 341.818 463.114 342.194C462.203 342.571 461.227 342.764 460.242 342.762Z" fill="#EDA1AB"/>
<path d="M484.434 342.762C483.449 342.763 482.474 342.569 481.564 342.191C480.655 341.813 479.829 341.26 479.134 340.562L454.943 316.371C453.537 314.964 452.747 313.056 452.747 311.067C452.747 309.078 453.538 307.17 454.945 305.764C456.352 304.358 458.26 303.568 460.249 303.568C462.238 303.569 464.146 304.359 465.552 305.766L489.74 329.957C490.787 331.006 491.501 332.342 491.789 333.796C492.078 335.25 491.93 336.757 491.363 338.126C490.796 339.496 489.835 340.667 488.603 341.491C487.371 342.315 485.922 342.756 484.44 342.757L484.434 342.762Z" fill="#EDA1AB"/>
<path d="M61.7769 313.563H27.5659C25.5768 313.563 23.6691 312.773 22.2626 311.366C20.8561 309.96 20.0659 308.052 20.0659 306.063C20.0659 304.074 20.8561 302.166 22.2626 300.76C23.6691 299.353 25.5768 298.563 27.5659 298.563H61.7769C63.766 298.563 65.6737 299.353 67.0802 300.76C68.4867 302.166 69.2769 304.074 69.2769 306.063C69.2769 308.052 68.4867 309.96 67.0802 311.366C65.6737 312.773 63.766 313.563 61.7769 313.563Z" fill="#6FCE91"/>
<path d="M44.6758 330.668C42.6867 330.668 40.779 329.878 39.3725 328.471C37.966 327.065 37.1758 325.157 37.1758 323.168V288.957C37.1758 286.968 37.966 285.06 39.3725 283.654C40.779 282.247 42.6867 281.457 44.6758 281.457C46.6649 281.457 48.5726 282.247 49.9791 283.654C51.3856 285.06 52.1758 286.968 52.1758 288.957V323.168C52.1758 325.157 51.3856 327.065 49.9791 328.471C48.5726 329.878 46.6649 330.668 44.6758 330.668Z" fill="#6FCE91"/>
<path d="M291.1 155.168H256.887C254.898 155.168 252.99 154.378 251.584 152.971C250.177 151.565 249.387 149.657 249.387 147.668C249.387 145.679 250.177 143.771 251.584 142.365C252.99 140.958 254.898 140.168 256.887 140.168H291.1C293.089 140.168 294.997 140.958 296.404 142.365C297.81 143.771 298.6 145.679 298.6 147.668C298.6 149.657 297.81 151.565 296.404 152.971C294.997 154.378 293.089 155.168 291.1 155.168Z" fill="#8EAFE2"/>
<path d="M273.988 172.273C271.999 172.273 270.091 171.483 268.684 170.076C267.278 168.67 266.488 166.762 266.488 164.773V130.563C266.488 128.574 267.278 126.666 268.684 125.26C270.091 123.853 271.999 123.063 273.988 123.063C275.977 123.063 277.885 123.853 279.291 125.26C280.698 126.666 281.488 128.574 281.488 130.563V164.774C281.488 166.763 280.697 168.67 279.291 170.077C277.884 171.483 275.977 172.273 273.988 172.273Z" fill="#8EAFE2"/>
<path d="M256 434.691L349.168 312.8L256 241.59L162.836 312.8L256 434.691Z" fill="#EFD176"/>
</svg>
