<svg width="512" height="512" viewBox="0 0 512 512" fill="none" xmlns="http://www.w3.org/2000/svg">
<path d="M107.43 62.074H70.051C62.797 62.0743 55.8402 64.9561 50.7109 70.0856C45.5816 75.215 42.7 82.172 42.7 89.426V121.059H134.782V89.426C134.782 82.1718 131.9 75.2147 126.771 70.0852C121.641 64.9557 114.684 62.074 107.43 62.074Z" fill="#515C80"/>
<path d="M83.91 89.426C83.9105 82.5047 86.5355 75.8411 91.2556 70.779C95.9757 65.7169 102.44 62.6329 109.344 62.149C108.711 62.106 108.074 62.075 107.43 62.075H70.051C62.7972 62.0753 55.8405 64.957 50.7112 70.0862C45.582 75.2155 42.7003 82.1722 42.7 89.426V121.059H83.91V89.426Z" fill="#3A4866"/>
<path d="M329.1 57.48C327.138 51.7933 323.451 46.8602 318.553 43.3684C313.654 39.8766 307.789 37.9999 301.773 38H210.227C204.211 37.9999 198.346 39.8766 193.447 43.3684C188.549 46.8602 184.862 51.7933 182.9 57.48L169.016 97.719L256 116.668L342.984 97.719L329.1 57.48Z" fill="#FFB1BC"/>
<path d="M256 154.1L0 184.922V365.722L256 396.542L512 365.722V184.922L256 154.1Z" fill="#FFB1BC"/>
<path d="M41.207 365.719V184.919L276.607 156.579L256 154.1L0 184.922V365.722L256 396.542L276.605 394.062L41.207 365.719Z" fill="#FF84B2"/>
<path d="M306.43 116.664H205.57L226.17 70.176H285.826L306.43 116.664Z" fill="#F0F3F7"/>
<path d="M512 140.418V184.918H0V140.418C0 129.093 4.49874 118.232 12.5065 110.225C20.5143 102.217 31.3753 97.718 42.7 97.718H469.3C480.625 97.718 491.486 102.217 499.493 110.225C507.501 118.232 512 129.093 512 140.418Z" fill="#F39BFF"/>
<path d="M83.91 97.719H42.7C31.3754 97.719 20.5147 102.218 12.5069 110.225C4.49912 118.233 0.000265212 129.093 0 140.418L0 184.918H41.207V140.418C41.2071 134.81 42.3118 129.258 44.4579 124.077C46.604 118.896 49.7496 114.189 53.715 110.224C57.6803 106.259 62.3878 103.114 67.5687 100.968C72.7496 98.8227 78.3024 97.7186 83.91 97.719Z" fill="#EB76E4"/>
<path d="M512 365.719V410.219C511.999 421.543 507.5 432.403 499.492 440.411C491.484 448.418 480.624 452.918 469.3 452.919H42.7C31.3764 452.918 20.5168 448.419 12.5094 440.412C4.50202 432.406 0.00238636 421.547 0 410.223L0 365.723L512 365.719Z" fill="#F39BFF"/>
<path d="M41.207 410.223V365.723H0V410.223C0.0013258 421.547 4.50049 432.407 12.508 440.415C20.5155 448.423 31.3757 452.922 42.7 452.923H83.91C72.5852 452.922 61.7245 448.423 53.7164 440.416C45.7083 432.408 41.2086 421.548 41.207 410.223Z" fill="#EB76E4"/>
<path d="M377.219 275.32C377.219 299.295 370.109 322.731 356.789 342.665C343.47 362.6 324.538 378.136 302.388 387.311C280.238 396.486 255.865 398.886 232.351 394.209C208.837 389.531 187.238 377.986 170.285 361.033C153.332 344.081 141.787 322.481 137.11 298.967C132.433 275.453 134.834 251.08 144.008 228.93C153.183 206.78 168.72 187.849 188.654 174.529C208.589 161.209 232.025 154.1 256 154.1C271.919 154.1 287.682 157.235 302.389 163.327C317.096 169.419 330.459 178.348 341.715 189.605C352.971 200.861 361.9 214.224 367.992 228.931C374.084 243.638 377.219 259.401 377.219 275.32Z" fill="#515C80"/>
<path d="M341.5 275.32C341.5 292.23 336.486 308.761 327.091 322.821C317.696 336.882 304.343 347.84 288.719 354.312C273.096 360.783 255.905 362.476 239.32 359.177C222.734 355.878 207.5 347.735 195.542 335.778C183.585 323.82 175.442 308.586 172.143 292C168.844 275.415 170.537 258.224 177.008 242.601C183.48 226.977 194.438 213.624 208.499 204.229C222.559 194.834 239.09 189.82 256 189.82C278.676 189.82 300.423 198.828 316.458 214.862C332.492 230.897 341.5 252.644 341.5 275.32Z" fill="#A1D3E8"/>
<path d="M276.605 350.523C258.33 350.527 240.535 344.677 225.829 333.828C211.123 322.98 200.279 307.705 194.888 290.243C189.498 272.782 189.844 254.053 195.876 236.802C201.908 219.552 213.308 204.688 228.405 194.39C216.86 198.33 206.292 204.694 197.41 213.056C188.528 221.418 181.539 231.583 176.911 242.87C172.283 254.157 170.123 266.303 170.578 278.493C171.032 290.683 174.09 302.635 179.545 313.546C185.001 324.456 192.728 334.073 202.207 341.751C211.687 349.428 222.699 354.988 234.506 358.058C246.312 361.127 258.638 361.634 270.657 359.546C282.675 357.457 294.107 352.821 304.186 345.949C295.306 348.979 285.988 350.524 276.605 350.523Z" fill="#75BDDB"/>
<path d="M89.109 315.844C89.1086 319.851 87.92 323.768 85.6935 327.1C83.4669 330.431 80.3025 333.028 76.6003 334.561C72.8981 336.094 68.8245 336.494 64.8945 335.712C60.9645 334.93 57.3547 333 54.5216 330.167C51.6885 327.333 49.7592 323.723 48.9779 319.793C48.1966 315.862 48.5982 311.789 50.132 308.087C51.6658 304.385 54.2628 301.221 57.5948 298.995C60.9268 296.769 64.8439 295.582 68.851 295.582C71.5116 295.582 74.1462 296.106 76.6042 297.125C79.0622 298.143 81.2955 299.636 83.1767 301.517C85.0578 303.399 86.55 305.632 87.5678 308.091C88.5857 310.549 89.1094 313.183 89.109 315.844Z" fill="#FF8C72"/>
<path d="M384.762 121.059H456.52V161.582H384.762V121.059Z" fill="#A1D3E8"/>
</svg>
