<svg width="513" height="512" viewBox="0 0 513 512" fill="none" xmlns="http://www.w3.org/2000/svg">
<path d="M436.051 180.126L389.758 83.6461C388.247 80.4194 387.386 76.9267 387.225 73.3674C387.064 69.808 387.605 66.2518 388.819 62.9018C390.032 59.5517 391.893 56.4734 394.296 53.8426C396.699 51.2118 399.596 49.0801 402.823 47.5691C406.05 46.0581 409.542 45.1975 413.102 45.0363C416.661 44.8752 420.217 45.4166 423.567 46.6298C426.917 47.843 429.996 49.7042 432.626 52.107C435.257 54.5099 437.389 57.4074 438.9 60.6341C439.69 62.3434 440.309 64.1268 440.748 65.9581L464.143 170.384C464.983 173.982 464.461 177.763 462.678 180.999C460.895 184.235 457.976 186.695 454.485 187.906C450.995 189.117 447.179 188.991 443.775 187.555C440.372 186.118 437.62 183.472 436.053 180.126H436.051Z" fill="#91DAFF"/>
<path d="M436.051 180.126L459.446 284.548C461.085 291.555 465.44 297.623 471.553 301.418C477.666 305.214 485.037 306.425 492.043 304.787C499.05 303.148 505.118 298.793 508.914 292.679C512.709 286.566 513.921 279.196 512.282 272.189C511.841 270.358 511.222 268.575 510.434 266.865L464.141 170.385C462.575 167.037 459.824 164.388 456.419 162.95C453.014 161.512 449.197 161.386 445.705 162.597C442.213 163.808 439.294 166.27 437.511 169.508C435.728 172.745 435.208 176.528 436.051 180.127V180.126Z" fill="#91DAFF"/>
<path d="M487.648 219.38L464.14 170.38C462.572 167.033 459.821 164.385 456.416 162.948C453.011 161.511 449.195 161.386 445.703 162.597C442.212 163.808 439.293 166.27 437.51 169.508C435.727 172.745 435.207 176.528 436.049 180.126L450.136 243.001C464.714 234.401 478.113 226.493 478.136 226.481C481.541 224.445 484.728 222.065 487.648 219.38Z" fill="#73BBDF"/>
<path d="M440.391 117.665L408.176 122.032L436.051 180.126C437.618 183.473 440.369 186.121 443.774 187.558C447.179 188.996 450.995 189.121 454.487 187.909C457.978 186.698 460.897 184.236 462.68 180.999C464.463 177.762 464.983 173.979 464.141 170.38L452.258 117.329C450.848 117.229 449.43 117.169 448 117.169C445.455 117.172 442.914 117.338 440.391 117.665Z" fill="#73BBDF"/>
<path d="M462.289 199.946C467.8 196.656 472.008 191.567 474.205 185.536C476.402 179.506 476.454 172.902 474.35 166.838C472.247 160.774 468.118 155.62 462.659 152.245C457.199 148.87 450.743 147.48 444.379 148.309L370.348 158.348L397.948 237.911L462.289 199.946Z" fill="#FFE675"/>
<path d="M472.977 163.63C470.609 168.446 466.897 172.473 462.29 175.224L397.946 213.189L378.54 157.24L370.349 158.349L397.949 237.912L462.293 199.951C467.804 196.661 472.012 191.572 474.209 185.541C476.407 179.51 476.458 172.907 474.356 166.842C473.965 165.743 473.504 164.67 472.977 163.63Z" fill="#FFB258"/>
<path d="M77.7338 429.864C77.1936 429.865 76.6538 429.836 76.1168 429.778C72.2835 429.353 68.776 427.423 66.3654 424.412C63.9548 421.401 62.8384 417.557 63.2618 413.723L72.8088 327.45C73.2331 323.616 75.163 320.108 78.1739 317.698C81.1848 315.287 85.0301 314.171 88.8638 314.595C92.6975 315.02 96.2056 316.949 98.6164 319.96C101.027 322.971 102.143 326.816 101.719 330.65L92.1718 416.923C91.7773 420.478 90.0869 423.763 87.4235 426.15C84.7601 428.537 81.3105 429.86 77.7338 429.864Z" fill="#DADADC"/>
<path d="M368.418 414.044C365.321 414.042 362.305 413.051 359.81 411.217C357.314 409.382 355.469 406.799 354.543 403.844L320.934 296.556C319.78 292.875 320.136 288.887 321.923 285.468C323.71 282.05 326.782 279.481 330.463 278.327C334.144 277.173 338.132 277.529 341.551 279.316C344.969 281.103 347.538 284.175 348.692 287.856L382.3 395.149C382.981 397.327 383.14 399.635 382.765 401.887C382.389 404.138 381.489 406.269 380.138 408.108C378.787 409.948 377.022 411.443 374.985 412.474C372.949 413.505 370.699 414.043 368.417 414.044H368.418Z" fill="#DADADC"/>
<path d="M303.2 118.368C351.95 107.208 403.817 132.833 422.481 180.649C444.352 236.688 411.61 297.106 356.446 316.282C272.575 345.438 183.196 353.852 94.9106 353.708C94.4336 353.716 93.9616 353.728 93.4966 353.728C74.299 353.958 55.5159 348.141 39.8081 337.101C24.1003 326.062 12.2642 310.36 5.97661 292.22L2.41361 281.962C0.446931 276.307 0.524648 270.141 2.63324 264.538C4.74183 258.934 8.7479 254.246 13.9547 251.29C19.1616 248.335 25.2398 247.297 31.1323 248.359C37.0248 249.421 42.3588 252.514 46.2066 257.101C46.8855 257.908 47.7219 258.568 48.6646 259.04C49.6073 259.513 50.6365 259.788 51.6892 259.849C52.7419 259.91 53.796 259.755 54.7869 259.395C55.7779 259.035 56.685 258.476 57.4526 257.753C58.4836 256.792 59.5526 255.882 60.6436 254.999C78.4836 240.706 97.1436 226.987 116.429 213.968L303.2 118.368Z" fill="#FF6881"/>
<path d="M356.44 285.38C272.569 314.532 183.19 322.946 94.9055 322.801C94.4285 322.809 93.9565 322.821 93.4915 322.821C74.2935 323.052 55.5097 317.236 39.8016 306.196C24.0935 295.157 12.2577 279.454 5.97146 261.313L5.29946 259.368C3.10878 262.657 1.70861 266.408 1.20846 270.327C0.708318 274.247 1.12176 278.229 2.41646 281.962L5.97546 292.22C12.2631 310.36 24.0991 326.062 39.8069 337.102C55.5147 348.141 74.2979 353.958 93.4955 353.728C93.9605 353.728 94.4365 353.716 94.9095 353.708C183.194 353.853 272.573 345.438 356.444 316.282C404.874 299.45 436.014 250.829 428.1 201.294C422.112 239.001 394.663 272.091 356.44 285.38Z" fill="#DE4B64"/>
<path d="M303.2 118.356C287.67 99.357 266.099 86.2537 242.08 81.2299C218.062 76.2061 193.047 79.5651 171.205 90.7473C149.362 101.929 132.012 120.259 122.045 142.682C112.078 165.105 110.096 190.266 116.43 213.973H116.438C116.684 214.047 162.422 228.125 229.458 192.989C295.974 158.137 303.052 119.18 303.2 118.368" fill="#91DAFF"/>
<path d="M143.7 186.208C143.702 160.426 152.986 135.505 169.855 116.007C186.724 96.5085 210.049 83.7353 235.563 80.0242C217.979 77.4732 200.038 79.3262 183.347 85.417C166.656 91.5078 151.738 101.646 139.93 114.922C128.122 128.199 119.794 144.198 115.693 161.486C111.591 178.773 111.844 196.809 116.43 213.974H116.438C116.555 214.009 127.282 217.31 145.887 216.759C144.53 206.63 143.799 196.427 143.7 186.208Z" fill="#73BBDF"/>
<path d="M260.293 248.267L158.106 265.867C152.699 266.797 147.64 269.159 143.455 272.705C139.27 276.252 136.111 280.855 134.306 286.035L126.275 309.086C122.102 321.065 122.527 334.167 127.468 345.851C132.409 357.534 141.513 366.966 153.015 372.316C164.517 377.667 177.596 378.554 189.715 374.807C201.834 371.059 212.129 362.944 218.603 352.035L270.978 263.793C271.989 262.088 272.49 260.129 272.424 258.148C272.357 256.167 271.724 254.246 270.6 252.613C269.476 250.981 267.908 249.703 266.082 248.933C264.255 248.163 262.246 247.932 260.293 248.267Z" fill="#FFE675"/>
<path d="M178.531 369.401C168.648 363.27 161.148 353.955 157.267 342.991C153.387 332.027 153.357 320.068 157.183 309.085L165.214 286.038C167.756 278.256 170.696 270.609 174.023 263.128L158.105 265.87C152.698 266.799 147.638 269.16 143.453 272.707C139.267 276.254 136.109 280.857 134.305 286.038L126.274 309.089C123.148 318.055 122.578 327.713 124.629 336.984C126.68 346.254 131.271 354.771 137.887 361.581C144.504 368.39 152.885 373.225 162.093 375.542C171.3 377.859 180.971 377.568 190.023 374.701C185.987 373.417 182.127 371.637 178.531 369.401Z" fill="#FFB258"/>
<path d="M419.479 399.501C419.479 409.6 416.484 419.472 410.873 427.869C405.263 436.266 397.288 442.81 387.957 446.675C378.627 450.539 368.36 451.55 358.456 449.58C348.551 447.609 339.453 442.746 332.312 435.605C325.171 428.463 320.308 419.365 318.338 409.46C316.368 399.555 317.38 389.288 321.245 379.958C325.11 370.628 331.655 362.654 340.052 357.044C348.449 351.433 358.321 348.439 368.42 348.439C375.126 348.439 381.766 349.76 387.961 352.326C394.156 354.892 399.785 358.653 404.526 363.395C409.267 368.136 413.028 373.766 415.594 379.961C418.16 386.156 419.48 392.796 419.479 399.501Z" fill="#485B73"/>
<path d="M387.19 399.501C387.19 403.214 386.09 406.843 384.027 409.929C381.965 413.016 379.033 415.422 375.603 416.842C372.174 418.263 368.4 418.635 364.759 417.911C361.118 417.186 357.773 415.399 355.148 412.774C352.523 410.149 350.735 406.804 350.011 403.163C349.287 399.522 349.659 395.748 351.079 392.318C352.5 388.888 354.906 385.957 357.992 383.895C361.079 381.832 364.708 380.731 368.42 380.731C373.398 380.731 378.173 382.709 381.693 386.229C385.213 389.749 387.19 394.523 387.19 399.501Z" fill="#DADADC"/>
<path d="M112.956 415.321C112.956 422.29 110.89 429.103 107.018 434.898C103.146 440.693 97.6424 445.21 91.2035 447.877C84.7646 450.544 77.6794 451.242 70.8439 449.882C64.0084 448.522 57.7296 445.166 52.8015 440.238C47.8733 435.31 44.5172 429.031 43.1576 422.196C41.7979 415.36 42.4957 408.275 45.1628 401.836C47.8299 395.397 52.3464 389.894 58.1413 386.022C63.9362 382.15 70.7491 380.083 77.7185 380.083C87.0641 380.083 96.0269 383.796 102.635 390.404C109.244 397.013 112.956 405.975 112.956 415.321Z" fill="#485B73"/>
<path d="M90.6716 415.321C90.6716 417.883 89.912 420.387 88.4887 422.517C87.0654 424.648 85.0424 426.308 82.6755 427.288C80.3087 428.269 77.7043 428.525 75.1916 428.025C72.679 427.525 70.371 426.292 68.5595 424.48C66.748 422.669 65.5143 420.361 65.0145 417.848C64.5147 415.336 64.7712 412.731 65.7516 410.364C66.732 407.997 68.3922 405.974 70.5223 404.551C72.6524 403.128 75.1568 402.368 77.7186 402.368C79.4196 402.368 81.104 402.703 82.6755 403.354C84.2471 404.005 85.675 404.959 86.8778 406.162C88.0806 407.365 89.0347 408.793 89.6856 410.364C90.3366 411.936 90.6716 413.62 90.6716 415.321Z" fill="#DADADC"/>
</svg>
