<svg width="512" height="512" viewBox="0 0 512 512" fill="none" xmlns="http://www.w3.org/2000/svg">
<path d="M169.207 0H342.793C353.722 0 364.203 4.34144 371.931 12.0693C379.659 19.7971 384 30.2782 384 41.207V214.793C384 225.722 379.659 236.203 371.931 243.931C364.203 251.659 353.722 256 342.793 256H169.207C158.278 256 147.797 251.659 140.069 243.931C132.341 236.203 128 225.722 128 214.793V41.207C128 30.2782 132.341 19.7971 140.069 12.0693C147.797 4.34144 158.278 0 169.207 0V0Z" fill="#C4C8F5"/>
<path d="M169.207 214.793V41.207C169.207 30.2782 173.548 19.7971 181.276 12.0693C189.004 4.34144 199.485 0 210.414 0L169.207 0C158.278 0 147.797 4.34144 140.069 12.0693C132.341 19.7971 128 30.2782 128 41.207V214.793C128 225.722 132.341 236.203 140.069 243.931C147.797 251.659 158.278 256 169.207 256H210.414C199.485 256 189.004 251.659 181.276 243.931C173.548 236.203 169.207 225.722 169.207 214.793Z" fill="#A7ADF0"/>
<path d="M169.207 204.492V51.508C169.207 48.7763 170.292 46.1564 172.224 44.2248C174.155 42.2932 176.775 41.208 179.507 41.208H332.492C335.224 41.208 337.844 42.2932 339.775 44.2248C341.707 46.1564 342.792 48.7763 342.792 51.508V204.492C342.792 207.224 341.707 209.844 339.775 211.775C337.844 213.707 335.224 214.792 332.492 214.792H179.508C178.155 214.792 176.816 214.526 175.566 214.008C174.316 213.491 173.181 212.732 172.224 211.776C171.268 210.819 170.509 209.684 169.991 208.434C169.473 207.184 169.207 205.845 169.207 204.492Z" fill="#FEFEFE"/>
<path d="M210.414 204.492V51.508C210.414 50.1554 210.68 48.816 211.198 47.5664C211.716 46.3167 212.474 45.1813 213.431 44.2248C214.387 43.2684 215.523 42.5097 216.772 41.9921C218.022 41.4744 219.361 41.208 220.714 41.208H179.508C176.776 41.208 174.156 42.2932 172.225 44.2248C170.293 46.1564 169.208 48.7763 169.208 51.508V204.492C169.208 207.224 170.293 209.844 172.225 211.775C174.156 213.707 176.776 214.792 179.508 214.792H220.715C219.362 214.792 218.023 214.526 216.773 214.008C215.523 213.491 214.388 212.732 213.431 211.776C212.475 210.819 211.716 209.684 211.198 208.434C210.68 207.184 210.414 205.845 210.414 204.492Z" fill="#D1E7F8"/>
<path d="M41.207 256H214.793C225.722 256 236.203 260.341 243.931 268.069C251.659 275.797 256 286.278 256 297.207V470.793C256 481.722 251.659 492.203 243.931 499.931C236.203 507.659 225.722 512 214.793 512H41.207C30.2782 512 19.7971 507.659 12.0693 499.931C4.34144 492.203 0 481.722 0 470.793L0 297.207C0 286.278 4.34144 275.797 12.0693 268.069C19.7971 260.341 30.2782 256 41.207 256Z" fill="#FFDE55"/>
<path d="M41.207 460.492V307.508C41.207 304.776 42.2922 302.156 44.2238 300.225C46.1555 298.293 48.7753 297.208 51.507 297.208H204.492C207.224 297.208 209.844 298.293 211.775 300.225C213.707 302.156 214.792 304.776 214.792 307.508V460.492C214.792 463.224 213.707 465.844 211.775 467.775C209.844 469.707 207.224 470.792 204.492 470.792H51.508C50.1553 470.792 48.8159 470.526 47.5661 470.008C46.3163 469.491 45.1807 468.732 44.2242 467.776C43.2676 466.819 42.5089 465.684 41.9912 464.434C41.4735 463.184 41.207 461.845 41.207 460.492Z" fill="#FEFEFE"/>
<path d="M41.207 470.793V297.207C41.207 286.278 45.5484 275.797 53.2763 268.069C61.0041 260.341 71.4852 256 82.414 256H41.207C30.2782 256 19.7971 260.341 12.0693 268.069C4.34144 275.797 0 286.278 0 297.207L0 470.793C0 481.722 4.34144 492.203 12.0693 499.931C19.7971 507.659 30.2782 512 41.207 512H82.414C71.4852 512 61.0041 507.659 53.2763 499.931C45.5484 492.203 41.207 481.722 41.207 470.793Z" fill="#FFCD00"/>
<path d="M82.414 460.492V307.508C82.414 304.776 83.4992 302.156 85.4308 300.225C87.3624 298.293 89.9823 297.208 92.714 297.208H51.508C48.7763 297.208 46.1564 298.293 44.2248 300.225C42.2932 302.156 41.208 304.776 41.208 307.508V460.492C41.208 463.224 42.2932 465.844 44.2248 467.775C46.1564 469.707 48.7763 470.792 51.508 470.792H92.715C91.3623 470.792 90.0228 470.526 88.7731 470.008C87.5233 469.491 86.3877 468.732 85.4312 467.776C84.4746 466.819 83.7158 465.684 83.1981 464.434C82.6805 463.184 82.414 461.845 82.414 460.492Z" fill="#D1E7F8"/>
<path d="M297.207 256H470.793C481.722 256 492.203 260.341 499.931 268.069C507.659 275.797 512 286.278 512 297.207V470.793C512 481.722 507.659 492.203 499.931 499.931C492.203 507.659 481.722 512 470.793 512H297.207C286.278 512 275.797 507.659 268.069 499.931C260.341 492.203 256 481.722 256 470.793V297.207C256 286.278 260.341 275.797 268.069 268.069C275.797 260.341 286.278 256 297.207 256Z" fill="#4DB5A6"/>
<path d="M297.207 460.492V307.508C297.207 304.776 298.292 302.156 300.224 300.225C302.155 298.293 304.775 297.208 307.507 297.208H460.492C463.224 297.208 465.844 298.293 467.775 300.225C469.707 302.156 470.792 304.776 470.792 307.508V460.492C470.792 463.224 469.707 465.844 467.775 467.775C465.844 469.707 463.224 470.792 460.492 470.792H307.508C306.155 470.792 304.816 470.526 303.566 470.008C302.316 469.491 301.181 468.732 300.224 467.776C299.268 466.819 298.509 465.684 297.991 464.434C297.473 463.184 297.207 461.845 297.207 460.492Z" fill="#FEFEFE"/>
<path d="M297.207 470.793V297.207C297.207 286.278 301.548 275.797 309.276 268.069C317.004 260.341 327.485 256 338.414 256H297.207C286.278 256 275.797 260.341 268.069 268.069C260.341 275.797 256 286.278 256 297.207V470.793C256 481.722 260.341 492.203 268.069 499.931C275.797 507.659 286.278 512 297.207 512H338.414C327.485 512 317.004 507.659 309.276 499.931C301.548 492.203 297.207 481.722 297.207 470.793Z" fill="#3DA094"/>
<path d="M338.414 460.492V307.508C338.414 304.776 339.499 302.156 341.431 300.225C343.362 298.293 345.982 297.208 348.714 297.208H307.508C304.776 297.208 302.156 298.293 300.225 300.225C298.293 302.156 297.208 304.776 297.208 307.508V460.492C297.208 463.224 298.293 465.844 300.225 467.775C302.156 469.707 304.776 470.792 307.508 470.792H348.715C347.362 470.792 346.023 470.526 344.773 470.008C343.523 469.491 342.388 468.732 341.431 467.776C340.475 466.819 339.716 465.684 339.198 464.434C338.68 463.184 338.414 461.845 338.414 460.492Z" fill="#D1E7F8"/>
<path d="M265.238 64.707L278.015 90.594C278.753 92.0921 279.845 93.3881 281.196 94.3702C282.547 95.3522 284.116 95.9909 285.769 96.231L314.339 100.383C316.24 100.659 318.027 101.462 319.496 102.701C320.965 103.939 322.059 105.564 322.653 107.391C323.247 109.219 323.318 111.176 322.858 113.042C322.398 114.907 321.425 116.607 320.05 117.949L299.375 138.1C298.179 139.266 297.285 140.705 296.769 142.293C296.253 143.881 296.131 145.571 296.414 147.217L301.293 175.67C301.618 177.564 301.407 179.512 300.683 181.292C299.959 183.073 298.751 184.615 297.196 185.745C295.641 186.875 293.801 187.547 291.884 187.686C289.967 187.824 288.049 187.423 286.348 186.529L260.8 173.1C259.322 172.323 257.677 171.917 256.007 171.917C254.337 171.917 252.692 172.323 251.214 173.1L225.659 186.534C223.958 187.428 222.04 187.829 220.123 187.691C218.206 187.552 216.366 186.88 214.811 185.75C213.256 184.62 212.048 183.078 211.324 181.297C210.6 179.517 210.389 177.569 210.714 175.675L215.597 147.222C215.878 145.576 215.756 143.886 215.239 142.298C214.723 140.71 213.828 139.271 212.632 138.105L191.96 117.953C190.584 116.611 189.612 114.912 189.151 113.047C188.691 111.181 188.762 109.224 189.356 107.397C189.949 105.569 191.042 103.945 192.511 102.706C193.98 101.467 195.766 100.664 197.667 100.387L226.237 96.235C227.89 95.995 229.46 95.3564 230.812 94.3744C232.163 93.3924 233.256 92.0963 233.995 90.598L246.77 64.707C247.621 62.9848 248.937 61.5349 250.568 60.5212C252.2 59.5074 254.083 58.9702 256.004 58.9702C257.925 58.9702 259.808 59.5074 261.439 60.5212C263.071 61.5349 264.387 62.9848 265.238 64.707Z" fill="#C4C8F5"/>
<path d="M192.387 384C192.387 396.735 188.611 409.183 181.536 419.772C174.461 430.36 164.405 438.613 152.64 443.486C140.874 448.359 127.928 449.634 115.439 447.15C102.949 444.665 91.476 438.533 82.4713 429.529C73.4667 420.524 67.3344 409.051 64.85 396.561C62.3656 384.071 63.6407 371.125 68.514 359.36C73.3873 347.595 81.6399 337.539 92.2283 330.464C102.817 323.389 115.265 319.613 128 319.613C145.076 319.613 161.453 326.397 173.528 338.472C185.603 350.547 192.387 366.924 192.387 384Z" fill="#FFDE55"/>
<path d="M104.82 384C104.823 370.531 109.048 357.401 116.903 346.458C124.757 335.516 135.844 327.312 148.605 323C138.918 319.727 128.591 318.807 118.478 320.318C108.365 321.828 98.7576 325.726 90.4503 331.687C82.1429 337.649 75.3748 345.503 70.706 354.6C66.0372 363.697 63.6021 373.775 63.6021 384C63.6021 394.225 66.0372 404.303 70.706 413.4C75.3748 422.497 82.1429 430.351 90.4503 436.313C98.7576 442.274 108.365 446.172 118.478 447.682C128.591 449.193 138.918 448.274 148.605 445C135.844 440.689 124.756 432.485 116.901 421.543C109.047 410.6 104.822 397.47 104.82 384Z" fill="#FFCD00"/>
<path d="M332.012 348.035L378.848 321C380.414 320.097 382.19 319.622 383.998 319.622C385.806 319.622 387.582 320.097 389.148 321L435.984 348.039C437.55 348.944 438.851 350.245 439.755 351.812C440.66 353.379 441.136 355.156 441.136 356.965V411.047C441.135 412.855 440.659 414.632 439.754 416.198C438.85 417.764 437.55 419.064 435.984 419.969L389.148 447.012C387.582 447.915 385.806 448.391 383.998 448.391C382.19 448.391 380.414 447.915 378.848 447.012L332.012 419.969C330.445 419.065 329.145 417.765 328.24 416.199C327.336 414.632 326.86 412.856 326.86 411.047V356.961C326.86 355.152 327.336 353.375 328.241 351.808C329.145 350.241 330.446 348.94 332.012 348.035Z" fill="#4DB5A6"/>
<path d="M373.219 419.965C371.653 419.06 370.352 417.759 369.448 416.192C368.544 414.625 368.067 412.848 368.067 411.039V356.957C368.068 355.149 368.544 353.372 369.449 351.806C370.353 350.24 371.653 348.94 373.219 348.035L404.606 329.914L389.153 320.992C387.587 320.089 385.811 319.614 384.003 319.614C382.195 319.614 380.419 320.089 378.853 320.992L332.017 348.035C330.451 348.939 329.15 350.239 328.246 351.806C327.341 353.372 326.865 355.149 326.865 356.957V411.039C326.865 412.848 327.342 414.625 328.246 416.192C329.15 417.759 330.451 419.06 332.017 419.965L378.848 447C380.414 447.903 382.19 448.379 383.998 448.379C385.806 448.379 387.582 447.903 389.148 447L404.601 438.078L373.219 419.965Z" fill="#3DA094"/>
<path d="M240.461 124.047C240.452 113.493 242.91 103.083 247.639 93.6481C252.369 84.2132 259.238 76.0146 267.7 69.7071L265.235 64.7071C264.385 62.9825 263.069 61.5303 261.436 60.5148C259.804 59.4994 257.919 58.9612 255.997 58.9612C254.074 58.9612 252.189 59.4994 250.557 60.5148C248.924 61.5303 247.608 62.9825 246.758 64.7071L233.984 90.5941C233.246 92.0922 232.154 93.3882 230.803 94.3703C229.452 95.3523 227.883 95.991 226.23 96.2311L197.66 100.383C195.759 100.66 193.973 101.463 192.504 102.702C191.035 103.941 189.942 105.566 189.349 107.393C188.755 109.22 188.684 111.177 189.145 113.043C189.605 114.908 190.578 116.608 191.953 117.949L212.625 138.1C213.821 139.265 214.716 140.704 215.232 142.293C215.747 143.881 215.869 145.571 215.586 147.217L210.707 175.67C210.382 177.564 210.593 179.512 211.317 181.292C212.041 183.073 213.249 184.615 214.804 185.745C216.359 186.875 218.199 187.547 220.116 187.686C222.033 187.824 223.951 187.424 225.652 186.529L251.2 173.1C252.678 172.323 254.323 171.917 255.993 171.917C257.663 171.917 259.308 172.323 260.786 173.1L262.317 173.9C255.418 167.558 249.913 159.852 246.151 151.27C242.388 142.688 240.451 133.418 240.461 124.047Z" fill="#A7ADF0"/>
</svg>
