<svg width="512" height="512" viewBox="0 0 512 512" fill="none" xmlns="http://www.w3.org/2000/svg">
<path d="M82.438 82.438H429.563V429.563H82.438V82.438Z" fill="#ECECEE"/>
<path d="M102.4 102.4H133.3V409.6H102.4V102.4Z" fill="#DADADC"/>
<path d="M51.2 153.6L0 204.8V307.2L51.2 358.4L102.4 307.2V204.8L51.2 153.6Z" fill="#FFB258"/>
<path d="M307.2 409.6H204.8L153.6 460.8L204.8 512H307.2L358.4 460.8L307.2 409.6Z" fill="#FFE675"/>
<path d="M460.8 153.6L409.6 204.8V307.2L460.8 358.4L512 307.2V204.8L460.8 153.6Z" fill="#FF9EC0"/>
<path d="M307.2 0H204.8L153.6 51.2L204.8 102.4H307.2L358.4 51.2L307.2 0Z" fill="#FF6881"/>
<path d="M102.4 0H32.793C24.0963 0.0018558 15.7564 3.45742 9.6069 9.6069C3.45742 15.7564 0.0018558 24.0963 0 32.793L0 102.4L51.2 153.6L102.4 102.4L153.6 51.2L102.4 0Z" fill="#485B73"/>
<path d="M102.4 409.6L51.2 358.4L0 409.6V479.205C0.00132557 487.902 3.45665 496.242 9.60619 502.392C15.7557 508.542 24.096 511.998 32.793 512H102.4L153.6 460.8L102.4 409.6Z" fill="#485B73"/>
<path d="M460.8 358.4L409.6 409.6L358.4 460.8L409.6 512H479.205C487.902 511.999 496.242 508.543 502.392 502.394C508.542 496.244 511.998 487.904 512 479.207V409.6L460.8 358.4Z" fill="#485B73"/>
<path d="M479.207 0H409.6L358.4 51.2L409.6 102.4L460.8 153.6L512 102.4V32.793C511.998 24.0963 508.542 15.7564 502.393 9.6069C496.244 3.45742 487.904 0.0018558 479.207 0V0Z" fill="#485B73"/>
<path d="M102.4 0H204.8V102.4H102.4V0Z" fill="#91DAFF"/>
<path d="M307.2 0H409.6V102.4H307.2V0Z" fill="#FFB258"/>
<path d="M102.4 409.6H204.8V512H102.4V409.6Z" fill="#FF9EC0"/>
<path d="M307.2 409.6H409.6V512H307.2V409.6Z" fill="#91DAFF"/>
<path d="M409.6 307.2H512V409.6H409.6V307.2Z" fill="#4CB4A4"/>
<path d="M409.6 102.4H512V204.8H409.6V102.4Z" fill="#6DD1E0"/>
<path d="M0 307.2H102.4V409.6H0V307.2Z" fill="#FF6881"/>
<path d="M0 102.4H102.4V204.8H0V102.4Z" fill="#4CB4A4"/>
</svg>
