<svg width="512" height="512" viewBox="0 0 512 512" fill="none" xmlns="http://www.w3.org/2000/svg">
<path d="M424.551 5.27879e-08H87.895C82.9185 -0.000262616 77.9907 0.979741 73.3929 2.88405C68.7951 4.78836 64.6175 7.57967 61.0986 11.0986C57.5797 14.6175 54.7884 18.7951 52.8841 23.3929C50.9797 27.9907 49.9997 32.9185 50 37.895V474.105C49.9997 479.082 50.9797 484.009 52.8841 488.607C54.7884 493.205 57.5797 497.382 61.0986 500.901C64.6175 504.42 68.7951 507.212 73.3929 509.116C77.9907 511.02 82.9185 512 87.895 512H424.551C429.527 512 434.455 511.02 439.052 509.115C443.649 507.211 447.827 504.419 451.345 500.9C454.864 497.381 457.655 493.204 459.559 488.606C461.463 484.009 462.442 479.081 462.442 474.105V37.895C462.442 32.9188 461.463 27.9912 459.559 23.3937C457.655 18.7961 454.864 14.6186 451.345 11.0997C447.827 7.58082 443.649 4.78943 439.052 2.88493C434.455 0.980433 429.527 0.000131364 424.551 5.27879e-08V5.27879e-08Z" fill="#FF9EC0"/>
<path d="M72.664 474.105V37.895C72.6637 32.9185 73.6437 27.9907 75.548 23.3929C77.4524 18.7951 80.2437 14.6175 83.7626 11.0986C87.2815 7.57967 91.4591 4.78836 96.0569 2.88405C100.655 0.979741 105.582 -0.000262616 110.559 5.27879e-08L87.895 5.27879e-08C82.9185 -0.000262616 77.9907 0.979741 73.3929 2.88405C68.7951 4.78836 64.6175 7.57967 61.0986 11.0986C57.5797 14.6175 54.7884 18.7951 52.8841 23.3929C50.9797 27.9907 49.9997 32.9185 50 37.895V474.105C49.9997 479.082 50.9797 484.009 52.8841 488.607C54.7884 493.205 57.5797 497.382 61.0986 500.901C64.6175 504.42 68.7951 507.212 73.3929 509.116C77.9907 511.02 82.9185 512 87.895 512H110.559C105.582 512 100.655 511.02 96.0569 509.116C91.4591 507.212 87.2815 504.42 83.7626 500.901C80.2437 497.382 77.4524 493.205 75.548 488.607C73.6437 484.009 72.6637 479.082 72.664 474.105Z" fill="#FF66A8"/>
<path d="M96.3589 46.3589H416.086V465.641H96.3589V46.3589Z" fill="#E4E4E4"/>
<path d="M96.3589 46.3589H127.259V465.641H96.3589V46.3589Z" fill="#CECDD3"/>
<path d="M310.2 218.945C308.8 218.945 307.423 219.015 306.052 219.121C309.47 210.917 310.81 201.997 309.952 193.151C309.095 184.306 306.067 175.808 301.137 168.414C296.207 161.019 289.528 154.956 281.693 150.763C273.857 146.57 265.107 144.375 256.22 144.375C247.333 144.375 238.583 146.57 230.748 150.763C222.912 154.956 216.233 161.019 211.303 168.414C206.373 175.808 203.345 184.306 202.488 193.151C201.63 201.997 202.97 210.917 206.388 219.121C205.013 219.016 203.634 218.945 202.236 218.945C193.634 218.943 185.156 220.996 177.508 224.933C169.86 228.871 163.264 234.58 158.27 241.583C153.275 248.586 150.026 256.682 148.794 265.195C147.562 273.709 148.383 282.393 151.187 290.525C153.991 298.657 158.698 306.001 164.916 311.946C171.133 317.89 178.682 322.263 186.931 324.699C195.181 327.135 203.894 327.565 212.343 325.951C220.792 324.338 228.734 320.729 235.506 315.425C233.276 333.097 229.541 351.851 223.306 366.812H289.13C282.896 351.851 279.165 333.097 276.93 315.425C283.702 320.727 291.643 324.334 300.091 325.945C308.539 327.557 317.25 327.126 325.498 324.689C333.746 322.253 341.292 317.881 347.508 311.937C353.724 305.993 358.43 298.65 361.234 290.52C364.038 282.389 364.858 273.707 363.627 265.195C362.395 256.683 359.148 248.589 354.155 241.586C349.162 234.583 342.568 228.875 334.922 224.937C327.277 220.999 318.8 218.944 310.2 218.945Z" fill="#91DAFF"/>
<path d="M233.145 316.609C221.746 316.611 210.639 313.004 201.415 306.305C192.192 299.606 185.327 290.159 181.804 279.318C178.28 268.477 178.28 256.799 181.802 245.957C185.324 235.116 192.189 225.668 201.411 218.968C192.928 219.095 184.594 221.221 177.086 225.171C169.578 229.122 163.107 234.787 158.199 241.707C153.29 248.627 150.081 256.607 148.834 264.998C147.586 273.39 148.334 281.958 151.017 290.007C153.701 298.055 158.244 305.358 164.277 311.322C170.311 317.286 177.666 321.744 185.745 324.334C193.824 326.924 202.4 327.572 210.777 326.227C219.154 324.882 227.096 321.582 233.958 316.593C233.684 316.6 233.418 316.609 233.145 316.609Z" fill="#73BBDF"/>
</svg>
