<svg width="512" height="512" viewBox="0 0 512 512" fill="none" xmlns="http://www.w3.org/2000/svg">
<path d="M446.582 242.082H395.074L333.949 25.7539H385.461L446.582 242.082Z" fill="#D1E7F8"/>
<path d="M333.949 25.7539L395.074 242.082H421.015L359.891 25.7539H333.949Z" fill="#C2DFF6"/>
<path d="M424.008 51.508H290.082C287.35 51.508 284.731 50.4228 282.799 48.4912C280.867 46.5596 279.782 43.9397 279.782 41.208V10.3C279.782 7.56827 280.867 4.94842 282.799 3.0168C284.731 1.08518 287.35 0 290.082 0H424.008C426.74 0 429.36 1.08518 431.291 3.0168C433.223 4.94842 434.308 7.56827 434.308 10.3V41.207C434.308 42.5597 434.042 43.8992 433.524 45.1489C433.007 46.3987 432.248 47.5343 431.292 48.4908C430.335 49.4474 429.2 50.2062 427.95 50.7239C426.7 51.2415 425.361 51.508 424.008 51.508Z" fill="#57565C"/>
<path d="M320.988 41.207V10.3C320.988 8.9473 321.255 7.60785 321.772 6.35813C322.29 5.10841 323.049 3.9729 324.005 3.01645C324.962 2.05999 326.097 1.30132 327.347 0.783754C328.597 0.266189 329.937 -0.000131282 331.289 4.85482e-08H290.082C287.35 4.85482e-08 284.731 1.08518 282.799 3.0168C280.867 4.94842 279.782 7.56827 279.782 10.3V41.207C279.782 43.9387 280.867 46.5586 282.799 48.4902C284.731 50.4218 287.35 51.507 290.082 51.507H331.289C329.937 51.5071 328.597 51.2408 327.347 50.7232C326.097 50.2057 324.962 49.447 324.005 48.4906C323.049 47.5341 322.29 46.3986 321.772 45.1489C321.255 43.8992 320.988 42.5597 320.988 41.207Z" fill="#3E3D42"/>
<path d="M401.625 421.172H110.375C98.9568 421.173 87.8621 417.38 78.8343 410.389C69.8064 403.398 63.3572 393.606 60.4999 382.551L24.2109 242.082H487.789L451.5 382.551C448.643 393.606 442.193 403.398 433.166 410.389C424.138 417.38 413.043 421.173 401.625 421.172Z" fill="#FF5555"/>
<path d="M102.742 382.551L66.4419 242.082H24.2109L60.4999 382.551C63.3564 393.606 69.8049 403.398 78.8321 410.388C87.8592 417.379 98.9534 421.172 110.371 421.172H152.609C141.192 421.171 130.099 417.377 121.073 410.386C112.047 403.396 105.599 393.605 102.742 382.551Z" fill="#E04141"/>
<path d="M208.488 407.758C208.488 428.375 202.374 448.53 190.919 465.672C179.464 482.815 163.184 496.176 144.136 504.065C125.088 511.955 104.128 514.019 83.9066 509.997C63.6854 505.975 45.1111 496.046 30.5324 481.468C15.9537 466.889 6.02551 448.315 2.00316 428.093C-2.01918 407.872 0.0450325 386.912 7.93477 367.864C15.8245 348.816 29.1854 332.536 46.3279 321.081C63.4705 309.626 83.6247 303.512 104.242 303.512C117.932 303.512 131.488 306.208 144.136 311.447C156.783 316.685 168.275 324.364 177.956 334.044C187.636 343.725 195.315 355.217 200.553 367.864C205.792 380.512 208.488 394.068 208.488 407.758Z" fill="#57565C"/>
<path d="M41.207 407.758C41.2095 383.686 49.5402 360.356 64.7855 341.726C80.0309 323.097 101.252 310.316 124.848 305.551C109.72 302.514 94.1073 302.873 79.1353 306.603C64.1633 310.332 50.2059 317.338 38.2702 327.116C26.3345 336.894 16.7182 349.199 10.1151 363.144C3.51202 377.09 0.0869141 392.327 0.0869141 407.756C0.0869141 423.185 3.51202 438.422 10.1151 452.368C16.7182 466.313 26.3345 478.618 38.2702 488.396C50.2059 498.174 64.1633 505.18 79.1353 508.909C94.1073 512.639 109.72 512.998 124.848 509.961C101.252 505.197 80.0319 492.416 64.7866 473.787C49.5413 455.159 41.2102 431.83 41.207 407.758Z" fill="#3E3D42"/>
<path d="M104.242 439.887C97.8869 439.887 91.6748 438.002 86.3911 434.471C81.1074 430.94 76.9894 425.921 74.5579 420.05C72.1263 414.179 71.4904 407.718 72.7306 401.486C73.9708 395.253 77.0313 389.528 81.5252 385.035C86.0191 380.541 91.7444 377.481 97.9773 376.242C104.21 375.003 110.671 375.639 116.542 378.072C122.413 380.504 127.431 384.623 130.961 389.907C134.491 395.191 136.375 401.403 136.375 407.758C136.365 416.277 132.976 424.444 126.952 430.467C120.928 436.49 112.761 439.878 104.242 439.887Z" fill="#D1E7F8"/>
<path d="M512 407.758C511.999 428.375 505.885 448.53 494.43 465.672C482.976 482.815 466.695 496.176 447.646 504.066C428.598 511.955 407.638 514.019 387.417 509.997C367.196 505.974 348.621 496.045 334.043 481.466C319.464 466.887 309.536 448.312 305.514 428.091C301.492 407.87 303.557 386.91 311.448 367.862C319.338 348.814 332.7 332.533 349.843 321.079C366.986 309.625 387.14 303.512 407.758 303.512C421.447 303.512 435.003 306.209 447.65 311.448C460.297 316.687 471.789 324.366 481.469 334.046C491.149 343.726 498.827 355.218 504.065 367.865C509.304 380.513 512 394.068 512 407.758Z" fill="#57565C"/>
<path d="M344.719 407.758C344.722 383.686 353.052 360.356 368.298 341.726C383.543 323.097 404.764 310.316 428.36 305.551C413.233 302.514 397.619 302.873 382.648 306.603C367.676 310.332 353.718 317.338 341.782 327.116C329.847 336.894 320.23 349.199 313.627 363.144C307.024 377.09 303.599 392.327 303.599 407.756C303.599 423.185 307.024 438.422 313.627 452.368C320.23 466.313 329.847 478.618 341.782 488.396C353.718 498.174 367.676 505.18 382.648 508.909C397.619 512.639 413.233 512.998 428.36 509.961C404.765 505.197 383.544 492.416 368.299 473.787C353.053 455.159 344.722 431.83 344.719 407.758Z" fill="#3E3D42"/>
<path d="M407.758 439.887C401.403 439.887 395.19 438.003 389.906 434.473C384.622 430.942 380.503 425.924 378.071 420.053C375.639 414.182 375.003 407.721 376.242 401.488C377.482 395.255 380.542 389.53 385.036 385.036C389.53 380.542 395.255 377.482 401.488 376.242C407.721 375.003 414.182 375.639 420.053 378.071C425.924 380.503 430.942 384.622 434.473 389.906C438.003 395.19 439.887 401.403 439.887 407.758C439.877 416.276 436.488 424.442 430.465 430.465C424.442 436.488 416.276 439.877 407.758 439.887Z" fill="#D1E7F8"/>
<path d="M501.7 267.836H10.3C8.9473 267.836 7.60785 267.57 6.35813 267.052C5.10841 266.534 3.9729 265.776 3.01645 264.819C2.05999 263.862 1.30132 262.727 0.783754 261.477C0.266189 260.227 -0.000131282 258.888 4.85482e-08 257.535V226.629C4.85482e-08 223.897 1.08518 221.278 3.0168 219.346C4.94842 217.414 7.56827 216.329 10.3 216.329H501.7C504.432 216.329 507.052 217.414 508.983 219.346C510.915 221.278 512 223.897 512 226.629V257.535C512 258.888 511.734 260.227 511.216 261.477C510.699 262.727 509.94 263.862 508.984 264.819C508.027 265.776 506.892 266.534 505.642 267.052C504.392 267.57 503.053 267.836 501.7 267.836Z" fill="#FFDE55"/>
<path d="M41.207 257.535V226.629C41.207 223.897 42.2922 221.278 44.2238 219.346C46.1554 217.414 48.7753 216.329 51.507 216.329H10.3C7.56827 216.329 4.94842 217.414 3.0168 219.346C1.08518 221.278 0 223.897 0 226.629L0 257.535C0 260.267 1.08518 262.887 3.0168 264.818C4.94842 266.75 7.56827 267.835 10.3 267.835H51.508C50.1553 267.835 48.8158 267.569 47.5661 267.051C46.3163 266.534 45.1807 265.775 44.2242 264.819C43.2676 263.862 42.5088 262.727 41.9911 261.477C41.4734 260.227 41.207 258.888 41.207 257.535Z" fill="#FFCD00"/>
</svg>
