<svg width="512" height="512" viewBox="0 0 512 512" fill="none" xmlns="http://www.w3.org/2000/svg">
<path d="M347.911 405.871C345.882 396.668 340.28 388.648 332.338 383.575C324.396 378.502 314.764 376.792 305.561 378.821C296.358 380.85 288.338 386.452 283.265 394.394C278.192 402.336 276.482 411.968 278.511 421.171L289.738 472.085L326.183 484.628L359.242 457.253L347.911 405.871Z" fill="#ECECEE"/>
<path d="M164.138 405.871C166.217 396.72 171.832 388.763 179.757 383.737C187.682 378.711 197.274 377.024 206.438 379.044C215.603 381.065 223.596 386.628 228.673 394.521C233.75 402.413 235.499 411.994 233.538 421.171L222.308 472.085L185.863 484.628L152.81 457.25L164.138 405.871Z" fill="#ECECEE"/>
<path d="M140.728 332.145C175.814 313.032 217.103 303.477 232.556 301.161L222.801 235.9C220.008 236.318 165.696 244.713 114.012 271.607L140.728 332.145Z" fill="#ECECEE"/>
<path d="M371.32 332.145C336.234 313.031 294.945 303.477 279.5 301.16L289.25 235.9C292.043 236.318 346.355 244.713 398.043 271.607L371.32 332.145Z" fill="#ECECEE"/>
<path d="M347.911 405.871C345.882 396.668 340.28 388.648 332.338 383.575C324.396 378.502 314.764 376.792 305.561 378.821C296.358 380.85 288.338 386.452 283.265 394.394C278.192 402.336 276.482 411.968 278.511 421.171L287.089 460.071C310.737 457.74 334.053 452.79 356.609 445.313L347.911 405.871Z" fill="#DADADC"/>
<path d="M206.481 378.824C197.279 376.797 187.65 378.508 179.709 383.58C171.769 388.652 166.167 396.67 164.137 405.871L155.437 445.316C177.993 452.793 201.309 457.743 224.957 460.074L233.535 421.174C234.54 416.617 234.638 411.906 233.823 407.311C233.007 402.716 231.294 398.327 228.782 394.394C226.269 390.461 223.007 387.062 219.18 384.39C215.354 381.719 211.039 379.827 206.481 378.824Z" fill="#DADADC"/>
<path d="M381.161 389.371C369.001 318.172 330.146 263.6 330.146 263.6H181.901C181.901 263.6 143.056 318.172 130.892 389.371C130.052 394.283 130.891 399.334 133.272 403.711C135.652 408.088 139.438 411.536 144.017 413.5C164.665 422.32 204.701 435.852 256.025 435.852C307.349 435.852 347.388 422.321 368.033 413.5C372.613 411.537 376.399 408.089 378.781 403.712C381.162 399.335 382.001 394.283 381.161 389.371Z" fill="#91DAFF"/>
<path d="M294.095 372.633C294.095 382.73 290.084 392.413 282.944 399.553C275.804 406.692 266.121 410.703 256.024 410.703C245.927 410.703 236.244 406.692 229.104 399.553C221.965 392.413 217.954 382.73 217.954 372.633L256.024 360.672L294.095 372.633Z" fill="#4D9AE8"/>
<path d="M294.095 357.383V372.633H217.954V357.383C217.953 356.244 218.178 355.117 218.613 354.065C219.049 353.013 219.688 352.057 220.493 351.252C221.299 350.447 222.255 349.809 223.307 349.373C224.359 348.938 225.487 348.714 226.626 348.715H285.426C286.564 348.715 287.691 348.939 288.743 349.374C289.795 349.81 290.751 350.448 291.556 351.253C292.361 352.058 293 353.014 293.435 354.065C293.871 355.117 294.095 356.245 294.095 357.383Z" fill="#ECECEE"/>
<path d="M72.9846 339.453C75.5952 342.912 78.8619 345.822 82.598 348.018C86.3341 350.214 90.4663 351.652 94.7584 352.25C99.0505 352.848 103.418 352.594 107.612 351.503C111.806 350.412 115.744 348.505 119.201 345.891C126.027 340.785 133.224 336.194 140.731 332.156V332.144C140.149 304.187 124.931 283.16 114.008 271.609C101.9 277.845 90.3319 285.077 79.4226 293.23C75.9648 295.842 73.0554 299.11 70.8605 302.847C68.6657 306.583 67.2283 310.716 66.6304 315.008C66.0326 319.3 66.2861 323.668 67.3763 327.862C68.4666 332.057 70.3723 335.995 72.9846 339.453Z" fill="#FFC6B3"/>
<path d="M439.067 339.453C436.456 342.911 433.189 345.821 429.453 348.016C425.717 350.212 421.585 351.649 417.293 352.247C413.001 352.845 408.634 352.591 404.44 351.501C400.246 350.41 396.309 348.504 392.852 345.891C386.026 340.785 378.829 336.194 371.321 332.157V332.145C371.899 304.188 387.121 283.161 398.04 271.61C410.149 277.845 421.719 285.077 432.63 293.231C439.613 298.507 444.214 306.341 445.421 315.009C446.628 323.677 444.342 332.47 439.067 339.453Z" fill="#FFC6B3"/>
<path d="M413.701 71.6909C415.764 71.6909 420.592 77.1829 422.001 78.4139C448.192 101.207 466.47 135.949 464.958 173.008C463.224 215.559 431.158 249.344 389.872 233.418C387.692 232.578 373.31 227.188 373.31 224.941V142.293L393.583 71.6929L413.701 71.6909Z" fill="#DE4B64"/>
<path d="M98.3528 71.6909C96.2908 71.6909 91.4618 77.1829 90.0528 78.4139C63.8558 101.207 45.5748 135.949 47.0868 173.008C48.8248 215.559 80.8868 249.344 122.173 233.418C124.357 232.578 138.739 227.188 138.739 224.941V142.293L118.466 71.6929L98.3528 71.6909Z" fill="#DE4B64"/>
<path d="M294.095 283.566C294.095 291.096 291.862 298.456 287.679 304.717C283.495 310.977 277.55 315.857 270.593 318.738C263.637 321.62 255.982 322.374 248.598 320.905C241.213 319.436 234.429 315.81 229.105 310.486C223.781 305.161 220.155 298.378 218.686 290.993C217.217 283.608 217.971 275.954 220.853 268.997C223.734 262.041 228.613 256.095 234.874 251.912C241.135 247.729 248.495 245.496 256.025 245.496C261.024 245.496 265.975 246.48 270.594 248.393C275.213 250.307 279.41 253.111 282.945 256.646C286.48 260.181 289.284 264.378 291.197 268.997C293.11 273.616 294.095 278.567 294.095 283.566Z" fill="#FFDDCB"/>
<path d="M399.817 125.012C400.486 130.578 400.823 136.179 400.825 141.785C400.825 220.085 335.993 283.566 256.025 283.566C176.057 283.566 111.225 220.086 111.225 141.785C111.224 136.179 111.558 130.578 112.225 125.012L256.024 36.0591L399.817 125.012Z" fill="#FFDDCB"/>
<path d="M142.13 141.785C142.13 136.109 142.478 120.211 143.138 114.711L270.529 45.0311L256.029 36.0581L112.231 125.012C111.564 130.578 111.23 136.179 111.231 141.785C111.231 220.085 176.059 283.566 256.031 283.566C261.192 283.566 266.35 283.299 271.484 282.766C198.774 275.211 142.13 214.977 142.13 141.785Z" fill="#FFC6B3"/>
<path d="M327.747 166.539C326.732 166.539 325.727 166.339 324.79 165.951C323.852 165.563 323 164.994 322.283 164.276C321.565 163.559 320.996 162.707 320.608 161.769C320.22 160.832 320.02 159.827 320.02 158.812V144.867C320.043 142.833 320.867 140.89 322.314 139.46C323.76 138.03 325.712 137.228 327.747 137.228C329.781 137.228 331.733 138.03 333.179 139.46C334.626 140.89 335.45 142.833 335.473 144.867V158.812C335.472 160.861 334.658 162.826 333.21 164.275C331.761 165.724 329.796 166.538 327.747 166.539Z" fill="#3A3C4C"/>
<path d="M337.243 187.035H318.243C316.209 187.012 314.266 186.188 312.836 184.741C311.406 183.295 310.604 181.343 310.604 179.309C310.604 177.274 311.406 175.322 312.836 173.876C314.266 172.429 316.209 171.605 318.243 171.582H337.243C339.277 171.605 341.219 172.429 342.65 173.876C344.08 175.322 344.882 177.274 344.882 179.309C344.882 181.343 344.08 183.295 342.65 184.741C341.219 186.188 339.277 187.012 337.243 187.035Z" fill="#FF9EC0"/>
<path d="M184.301 166.539C183.286 166.539 182.281 166.339 181.344 165.951C180.406 165.563 179.554 164.994 178.837 164.276C178.119 163.559 177.55 162.707 177.162 161.769C176.773 160.832 176.574 159.827 176.574 158.812V144.867C176.597 142.833 177.421 140.89 178.868 139.46C180.314 138.03 182.266 137.228 184.3 137.228C186.334 137.228 188.286 138.03 189.733 139.46C191.179 140.89 192.004 142.833 192.027 144.867V158.812C192.027 159.827 191.827 160.832 191.439 161.769C191.051 162.707 190.482 163.558 189.764 164.276C189.047 164.993 188.195 165.563 187.258 165.951C186.32 166.339 185.315 166.539 184.301 166.539Z" fill="#3A3C4C"/>
<path d="M193.801 187.035H174.81C172.776 187.012 170.833 186.188 169.403 184.741C167.973 183.295 167.171 181.343 167.171 179.309C167.171 177.274 167.973 175.322 169.403 173.876C170.833 172.429 172.776 171.605 174.81 171.582H193.801C195.835 171.605 197.778 172.429 199.208 173.876C200.638 175.322 201.44 177.274 201.44 179.309C201.44 181.343 200.638 183.295 199.208 184.741C197.778 186.188 195.835 187.012 193.801 187.035Z" fill="#FF9EC0"/>
<path d="M256.024 186.246C252.503 186.27 249.017 185.54 245.802 184.105C242.586 182.671 239.714 180.566 237.379 177.93C236.052 176.384 235.389 174.376 235.534 172.344C235.68 170.311 236.623 168.419 238.157 167.078C239.692 165.737 241.694 165.057 243.727 165.185C245.761 165.313 247.662 166.239 249.016 167.762C249.916 168.719 251.002 169.482 252.207 170.003C253.413 170.524 254.712 170.793 256.026 170.793C257.339 170.793 258.639 170.524 259.845 170.003C261.05 169.482 262.136 168.719 263.036 167.762C263.704 166.998 264.515 166.373 265.424 165.923C266.333 165.473 267.322 165.206 268.334 165.138C269.347 165.07 270.362 165.202 271.324 165.527C272.285 165.851 273.173 166.362 273.936 167.03C274.7 167.697 275.325 168.509 275.775 169.418C276.225 170.327 276.492 171.316 276.56 172.328C276.628 173.34 276.496 174.356 276.172 175.317C275.847 176.278 275.337 177.166 274.669 177.93C272.334 180.566 269.462 182.672 266.246 184.106C263.031 185.54 259.545 186.27 256.024 186.246Z" fill="#3A3C4C"/>
<path d="M414.401 65.3361C414.401 71.1271 412.684 76.7882 409.467 81.6034C406.25 86.4186 401.677 90.1717 396.327 92.388C390.977 94.6043 385.09 95.1843 379.41 94.0546C373.73 92.9249 368.513 90.1363 364.418 86.0415C360.324 81.9466 357.535 76.7294 356.405 71.0496C355.276 65.3699 355.856 59.4827 358.072 54.1326C360.288 48.7825 364.041 44.2097 368.857 40.9927C373.672 37.7756 379.333 36.0587 385.124 36.0591C392.889 36.0591 400.335 39.1436 405.826 44.6341C411.316 50.1246 414.401 57.5713 414.401 65.3361Z" fill="#F9DA60"/>
<path d="M156.208 65.3361C156.208 71.1265 154.491 76.7869 151.274 81.6015C148.057 86.4161 143.484 90.1686 138.135 92.3845C132.785 94.6004 126.898 95.1802 121.219 94.0505C115.54 92.9209 110.323 90.1325 106.229 86.038C102.134 81.9436 99.346 76.7269 98.2164 71.0477C97.0867 65.3686 97.6665 59.4819 99.8824 54.1323C102.098 48.7826 105.851 44.2101 110.665 40.9931C115.48 37.7762 121.14 36.0591 126.931 36.0591C134.696 36.0591 142.142 39.1436 147.633 44.6341C153.123 50.1246 156.208 57.5713 156.208 65.3361Z" fill="#F9DA60"/>
<path d="M399.817 125.012C399.817 125.012 307.294 117.926 256.024 62.09C204.759 117.926 112.231 125.012 112.231 125.012C120.708 54.609 181.853 0 256.024 0C330.195 0 391.345 54.609 399.817 125.012Z" fill="#FF6881"/>
<path d="M334.735 511.168C325.532 513.195 315.901 511.484 307.96 506.41C300.019 501.336 294.418 493.316 292.391 484.113L289.739 472.082L359.239 457.25L361.786 468.813C363.815 478.017 362.105 487.65 357.032 495.593C351.959 503.536 343.938 509.138 334.735 511.168Z" fill="#485B73"/>
<path d="M177.317 511.168C186.52 513.195 196.151 511.484 204.092 506.41C212.033 501.336 217.633 493.316 219.661 484.113L222.309 472.082L152.809 457.25L150.262 468.813C149.257 473.371 149.16 478.081 149.976 482.676C150.792 487.271 152.505 491.661 155.017 495.594C157.53 499.527 160.792 502.927 164.618 505.599C168.444 508.271 172.759 510.163 177.317 511.168Z" fill="#485B73"/>
</svg>
