<svg width="512" height="512" viewBox="0 0 512 512" fill="none" xmlns="http://www.w3.org/2000/svg">
<path d="M435.469 157.152L387.125 174.906L361.941 334.574L387.117 512L387.125 511.961V512H494.117V174.906L435.469 157.152Z" fill="#6DD1E0"/>
<path d="M125.254 174.906L76.9096 157.152L18.2656 174.906V512H125.254L154.9 348.262L125.254 174.906Z" fill="#6DD1E0"/>
<path d="M18.2656 323.414H125.254V363.492H18.2656V323.414Z" fill="#ECECEE"/>
<path d="M387.117 323.414H494.109V363.492H387.117V323.414Z" fill="#ECECEE"/>
<path d="M18.2656 174.906V205.812H125.254V174.906L76.9096 157.152L18.2656 174.906Z" fill="#45C0D2"/>
<path d="M387.125 174.906V205.812H494.117V174.906L435.469 157.152L387.125 174.906Z" fill="#45C0D2"/>
<path d="M510.313 151.723L476.988 60.7658C473.626 51.5944 467.53 43.6764 459.522 38.0826C451.515 32.4888 441.982 29.4889 432.215 29.4888H80.1636C70.3957 29.4889 60.8635 32.4888 52.8559 38.0826C44.8484 43.6764 38.7518 51.5944 35.3906 60.7658L2.06559 151.723C1.11098 154.33 0.799641 157.129 1.158 159.882C1.51637 162.635 2.53385 165.261 4.12404 167.536C5.71423 169.812 7.83015 171.67 10.2921 172.954C12.7541 174.237 15.4893 174.907 18.2656 174.907H494.117C496.893 174.907 499.628 174.237 502.09 172.954C504.552 171.671 506.668 169.812 508.258 167.536C509.848 165.261 510.865 162.634 511.222 159.881C511.58 157.128 511.268 154.329 510.313 151.723Z" fill="#FF9EC0"/>
<path d="M206.406 512H125.254V156.148L256.188 39.5391C256.188 39.5391 386.536 158.156 387.118 163.184V512H305.977L256.192 487.2L206.406 512Z" fill="#FF9EC0"/>
<path d="M256.188 39.5391L125.254 156.148V231.89C133.324 230.085 140.742 226.092 146.692 220.347L256.192 114.921L365.692 220.347C371.639 226.09 379.053 230.084 387.122 231.89V163.184C386.535 158.156 256.188 39.5391 256.188 39.5391Z" fill="#FF66A8"/>
<path d="M428.957 154.637L277.105 8.43398C271.486 3.02358 263.989 0.000976562 256.189 0.000976562C248.388 0.000976562 240.891 3.02358 235.273 8.43398L83.4215 154.637C82.0654 155.943 80.9797 157.503 80.2265 159.228C79.4733 160.954 79.0673 162.81 79.0317 164.693C78.9962 166.575 79.3317 168.446 80.0192 170.198C80.7067 171.951 81.7327 173.551 83.0385 174.907L104.984 197.7C107.621 200.439 111.238 202.019 115.04 202.092C118.842 202.164 122.517 200.724 125.257 198.087L256.191 72.02L387.125 198.086C388.481 199.392 390.081 200.417 391.834 201.104C393.587 201.792 395.457 202.127 397.34 202.091C399.222 202.055 401.079 201.649 402.804 200.895C404.529 200.141 406.089 199.055 407.395 197.699L429.34 174.906C431.977 172.167 433.418 168.493 433.346 164.692C433.274 160.891 431.695 157.274 428.957 154.637Z" fill="#ECECEE"/>
<path d="M305.977 381.117V512H206.407V381.117C206.406 378.357 206.95 375.623 208.006 373.073C209.063 370.522 210.611 368.205 212.563 366.253C214.515 364.301 216.832 362.753 219.382 361.697C221.933 360.64 224.666 360.097 227.427 360.097H284.947C290.522 360.097 295.87 362.311 299.814 366.253C303.757 370.194 305.974 375.541 305.977 381.117Z" fill="#ECECEE"/>
<path d="M271.938 166.7H240.445C238.196 166.7 235.97 167.142 233.892 168.003C231.815 168.863 229.928 170.124 228.338 171.714C226.748 173.304 225.487 175.191 224.626 177.269C223.766 179.346 223.323 181.573 223.324 183.821V275.77H289.058V183.824C289.058 181.575 288.615 179.349 287.755 177.271C286.895 175.194 285.634 173.306 284.044 171.716C282.454 170.126 280.567 168.865 278.49 168.004C276.413 167.143 274.186 166.7 271.938 166.7Z" fill="#6DD1E0"/>
<path d="M289.059 253.2H223.32C221.223 253.2 219.148 253.613 217.211 254.416C215.274 255.218 213.515 256.394 212.032 257.877C210.55 259.359 209.375 261.119 208.573 263.056C207.771 264.993 207.358 267.069 207.359 269.165V292.356H305.019V269.164C305.019 267.068 304.607 264.992 303.805 263.055C303.003 261.118 301.828 259.358 300.345 257.876C298.863 256.393 297.104 255.218 295.167 254.415C293.231 253.613 291.155 253.2 289.059 253.2Z" fill="#ECECEE"/>
<path d="M18.2656 363.492H125.254V395.082H18.2656V363.492Z" fill="#45C0D2"/>
<path d="M387.125 363.492H494.117V395.082H387.125V363.492Z" fill="#45C0D2"/>
</svg>
