<svg width="512" height="512" viewBox="0 0 512 512" fill="none" xmlns="http://www.w3.org/2000/svg">
<path d="M358.1 117.617H288.02C285.243 117.617 282.579 118.72 280.616 120.684C278.652 122.648 277.549 125.311 277.549 128.088V198.167L317.825 215.667L358.101 198.167L398.377 157.891L358.1 117.617Z" fill="#82C6E8"/>
<path d="M428.184 117.617H358.1V198.167L410.187 209.978L438.652 198.167V128.085C438.651 125.309 437.548 122.647 435.585 120.684C433.622 118.721 430.96 117.618 428.184 117.617Z" fill="#F2BE63"/>
<path d="M398.378 198.167H317.825L277.549 238.443L317.825 288.717H398.378L438.654 238.44L398.378 198.167Z" fill="#F7E477"/>
<path d="M114.118 118.834L13 90.167L114.118 61.5V118.834Z" fill="#FF9BCA"/>
<path d="M114.118 205.667C112.129 205.667 110.221 204.877 108.815 203.47C107.408 202.064 106.618 200.156 106.618 198.167V49.5C106.618 47.5109 107.408 45.6032 108.815 44.1967C110.221 42.7902 112.129 42 114.118 42C116.107 42 118.015 42.7902 119.421 44.1967C120.828 45.6032 121.618 47.5109 121.618 49.5V198.167C121.618 200.156 120.828 202.064 119.421 203.47C118.015 204.877 116.107 205.667 114.118 205.667Z" fill="#4B5562"/>
<path d="M174.194 180.834H54.0418C48.7447 180.834 43.6645 182.938 39.9188 186.684C36.1731 190.43 34.0688 195.51 34.0688 200.807V304.79H194.169V200.806C194.169 198.183 193.652 195.586 192.649 193.162C191.645 190.739 190.173 188.537 188.318 186.682C186.464 184.828 184.261 183.357 181.838 182.353C179.414 181.35 176.817 180.833 174.194 180.834Z" fill="#EDEDED"/>
<path d="M84.0418 180.834H54.0418C48.7447 180.834 43.6645 182.938 39.9188 186.684C36.1731 190.43 34.0688 195.51 34.0688 200.807V304.79H64.0688V200.806C64.0691 195.509 66.1735 190.429 69.9192 186.684C73.6648 182.938 78.7449 180.834 84.0418 180.834Z" fill="#D7D6DC"/>
<path d="M141.357 220.834H86.8788C84.0119 220.834 81.2623 221.973 79.235 224C77.2078 226.027 76.0688 228.777 76.0688 231.644V304.79H152.169V231.644C152.169 230.224 151.889 228.818 151.346 227.507C150.802 226.195 150.006 225.003 149.002 223.999C147.998 222.996 146.806 222.199 145.494 221.656C144.183 221.113 142.777 220.834 141.357 220.834Z" fill="#82C6E8"/>
<path d="M468.46 198.167H398.378V288.717H478.931V208.638C478.931 205.861 477.828 203.198 475.864 201.234C473.9 199.27 471.237 198.167 468.46 198.167Z" fill="#82C6E8"/>
<path d="M247.743 198.167C244.966 198.167 242.303 199.27 240.339 201.234C238.375 203.198 237.272 205.861 237.272 208.638V288.717H317.825V198.167H247.743Z" fill="#F2BE63"/>
<path d="M256.5 304.789L34.0688 330.859L63.6998 452.503C64.9733 457.731 67.9655 462.379 72.1965 465.703C76.4276 469.027 81.6523 470.834 87.0328 470.834H425.966C431.347 470.834 436.572 469.028 440.803 465.704C445.034 462.38 448.026 457.731 449.3 452.503L478.932 330.859L256.5 304.789Z" fill="#4B5562"/>
<path d="M34.0688 330.859L41.3768 360.859H471.623L478.931 330.859L256.5 304.789L34.0688 330.859Z" fill="#393F50"/>
<path d="M478.931 278.717H34.069C30.6454 278.717 27.2553 279.392 24.0923 280.702C20.9293 282.012 18.0554 283.933 15.6347 286.354C13.2139 288.775 11.2938 291.649 9.98379 294.812C8.67383 297.975 7.99974 301.365 8 304.789C8 311.703 10.7465 318.334 15.6354 323.223C20.5243 328.112 27.1551 330.858 34.069 330.858H478.93C482.354 330.858 485.744 330.184 488.906 328.874C492.069 327.564 494.943 325.644 497.364 323.223C499.785 320.802 501.705 317.928 503.016 314.765C504.326 311.603 505 308.213 505 304.789C505.001 301.365 504.327 297.975 503.017 294.812C501.707 291.649 499.787 288.774 497.366 286.353C494.945 283.932 492.071 282.012 488.908 280.701C485.745 279.391 482.355 278.717 478.931 278.717Z" fill="#FF9BCA"/>
<path d="M38 304.789C37.9996 301.365 38.6736 297.975 39.9835 294.812C41.2934 291.649 43.2136 288.775 45.6344 286.354C48.0551 283.932 50.9291 282.012 54.0921 280.702C57.2552 279.391 60.6453 278.717 64.069 278.717H34.069C30.6453 278.717 27.2552 279.391 24.0921 280.702C20.9291 282.012 18.0551 283.932 15.6344 286.354C13.2136 288.775 11.2934 291.649 9.98352 294.812C8.67361 297.975 7.99961 301.365 8 304.789C8 311.703 10.7465 318.334 15.6354 323.223C20.5243 328.112 27.1551 330.858 34.069 330.858H64.069C60.6455 330.858 57.2556 330.184 54.0927 328.874C50.9298 327.564 48.0559 325.644 45.6351 323.223C43.2144 320.802 41.2942 317.928 39.9841 314.765C38.6741 311.602 37.9999 308.213 38 304.789Z" fill="#EA738D"/>
<path d="M113.879 414.5C126.029 414.5 135.879 404.65 135.879 392.5C135.879 380.35 126.029 370.5 113.879 370.5C101.729 370.5 91.8789 380.35 91.8789 392.5C91.8789 404.65 101.729 414.5 113.879 414.5Z" fill="#B3E4FF"/>
<path d="M208.96 414.5C221.11 414.5 230.96 404.65 230.96 392.5C230.96 380.35 221.11 370.5 208.96 370.5C196.81 370.5 186.96 380.35 186.96 392.5C186.96 404.65 196.81 414.5 208.96 414.5Z" fill="#B3E4FF"/>
<path d="M304.04 414.5C316.19 414.5 326.04 404.65 326.04 392.5C326.04 380.35 316.19 370.5 304.04 370.5C291.89 370.5 282.04 380.35 282.04 392.5C282.04 404.65 291.89 414.5 304.04 414.5Z" fill="#B3E4FF"/>
<path d="M399.121 414.5C411.271 414.5 421.121 404.65 421.121 392.5C421.121 380.35 411.271 370.5 399.121 370.5C386.971 370.5 377.121 380.35 377.121 392.5C377.121 404.65 386.971 414.5 399.121 414.5Z" fill="#B3E4FF"/>
</svg>
