<svg width="512" height="512" viewBox="0 0 512 512" fill="none" xmlns="http://www.w3.org/2000/svg">
<path d="M184.156 444.656L157.277 424.684L124.855 444.656V512H184.155L200.975 478.328L184.156 444.656Z" fill="#91DAFF"/>
<path d="M327.441 444.656L354.316 424.683L386.738 444.656V512H327.438L310.614 478.328L327.441 444.656Z" fill="#91DAFF"/>
<path d="M417.7 205.113C417.7 205.113 437.52 289.332 437.52 353.629C437.52 401.004 377.286 424.684 377.286 424.684H286.594L397.394 205.114L406.402 189.165L417.7 205.113Z" fill="#485B73"/>
<path d="M93.895 205.113C93.895 205.113 74.074 289.332 74.074 353.629C74.074 401.004 134.312 424.684 134.312 424.684H225L114.2 205.113L105.2 189.164L93.895 205.113Z" fill="#485B73"/>
<path d="M184.156 404.711H153.156C137.031 404.711 122.004 413.617 114.926 428.106C114.832 428.306 114.739 428.497 114.649 428.692C113.854 430.406 113.503 432.292 113.63 434.177C113.757 436.062 114.357 437.884 115.375 439.476C116.393 441.067 117.795 442.377 119.453 443.283C121.11 444.189 122.97 444.663 124.859 444.66H184.159L200.983 421.308L184.156 404.711Z" fill="#FFE675"/>
<path d="M327.441 404.711H358.441C374.566 404.711 389.593 413.617 396.668 428.106L396.949 428.692C397.744 430.406 398.095 432.292 397.968 434.177C397.841 436.063 397.241 437.885 396.223 439.477C395.205 441.069 393.803 442.378 392.145 443.284C390.487 444.19 388.627 444.664 386.738 444.661H327.438L310.618 421.309L327.441 404.711Z" fill="#FFE675"/>
<path d="M184.156 394.383H327.441V512H184.156V394.383Z" fill="#FF6881"/>
<path d="M367.871 6.34566e-08H143.723C136.163 -0.000361406 128.682 1.54357 121.74 4.53712C114.797 7.53067 108.539 11.9107 103.35 17.4088C98.1606 22.9068 94.1489 29.4069 91.561 36.5104C88.973 43.614 87.8633 51.1713 88.2999 58.719L93.8899 155.328L255.79 180.219L417.69 155.324L423.284 58.719C423.72 51.1722 422.611 43.6158 420.023 36.5129C417.436 29.4101 413.425 22.9106 408.237 17.4127C403.049 11.9149 396.792 7.53459 389.851 4.54038C382.91 1.54618 375.43 0.00114463 367.871 6.34567e-08V6.34566e-08Z" fill="#91DAFF"/>
<path d="M124.8 155.324L119.207 58.719C118.771 51.1715 119.881 43.6144 122.469 36.5111C125.057 29.4078 129.068 22.908 134.258 17.4101C139.447 11.9122 145.704 7.53205 152.646 4.53829C159.588 1.54453 167.069 0.000207642 174.629 6.34567e-08L143.723 6.34566e-08C136.163 -0.000361406 128.682 1.54357 121.74 4.53712C114.797 7.53067 108.539 11.9107 103.35 17.4088C98.1606 22.9068 94.1489 29.4069 91.561 36.5104C88.973 43.614 87.8633 51.1713 88.2999 58.719L93.8899 155.328L255.79 180.219L271.243 177.844L124.8 155.324Z" fill="#73BBDF"/>
<path d="M280.5 69.8002C280.5 49.4842 269.441 33.0112 255.8 33.0112C242.159 33.0112 231.1 49.4842 231.1 69.8002C231.1 90.1162 242.152 106.6 255.8 106.6C269.448 106.6 280.5 90.1252 280.5 69.8002Z" fill="#FFE675"/>
<path d="M417.7 230.867C419.499 230.867 421.298 230.772 423.087 230.582C420.027 215 417.7 205.113 417.7 205.113L406.4 189.164L397.4 205.113L384.4 230.867H417.7Z" fill="#324761"/>
<path d="M88.512 230.582C90.3 230.772 92.0969 230.867 93.895 230.867H127.2L114.2 205.113L105.2 189.164L93.9 205.113C93.9 205.113 91.566 215 88.512 230.582Z" fill="#324761"/>
<path d="M114.2 205.113C114.2 205.113 51.7419 416.23 255.8 416.23C459.858 416.23 397.4 205.113 397.4 205.113L255.8 180.219L114.2 205.113Z" fill="#FFDDCB"/>
<path d="M335.148 272.727C334.133 272.727 333.128 272.527 332.191 272.139C331.254 271.751 330.402 271.181 329.684 270.464C328.967 269.746 328.398 268.894 328.01 267.957C327.621 267.02 327.422 266.015 327.422 265V249.254C327.445 247.22 328.269 245.277 329.716 243.847C331.162 242.417 333.114 241.615 335.148 241.615C337.182 241.615 339.135 242.417 340.581 243.847C342.028 245.277 342.852 247.22 342.875 249.254V265C342.875 266.015 342.675 267.02 342.287 267.957C341.899 268.895 341.33 269.747 340.612 270.464C339.894 271.182 339.043 271.751 338.105 272.139C337.167 272.527 336.163 272.727 335.148 272.727Z" fill="#3A3C4C"/>
<path d="M345.656 296.422H327.441C325.407 296.399 323.464 295.575 322.034 294.128C320.604 292.682 319.802 290.73 319.802 288.695C319.802 286.661 320.604 284.709 322.034 283.263C323.464 281.816 325.407 280.992 327.441 280.969H345.656C347.69 280.992 349.633 281.816 351.063 283.263C352.493 284.709 353.295 286.661 353.295 288.695C353.295 290.73 352.493 292.682 351.063 294.128C349.633 295.575 347.69 296.399 345.656 296.422Z" fill="#FF9EC0"/>
<path d="M176.445 272.727C175.43 272.727 174.426 272.527 173.488 272.139C172.551 271.751 171.699 271.181 170.982 270.464C170.264 269.746 169.695 268.894 169.307 267.957C168.919 267.02 168.719 266.015 168.719 265V249.254C168.742 247.22 169.566 245.277 171.013 243.847C172.459 242.417 174.411 241.615 176.445 241.615C178.48 241.615 180.432 242.417 181.878 243.847C183.325 245.277 184.149 247.22 184.172 249.254V265C184.172 266.015 183.973 267.02 183.585 267.958C183.196 268.895 182.627 269.747 181.91 270.465C181.192 271.182 180.34 271.752 179.402 272.14C178.465 272.528 177.46 272.727 176.445 272.727Z" fill="#3A3C4C"/>
<path d="M184.156 296.422H165.941C163.907 296.399 161.964 295.575 160.534 294.128C159.104 292.682 158.302 290.73 158.302 288.695C158.302 286.661 159.104 284.709 160.534 283.263C161.964 281.816 163.907 280.992 165.941 280.969H184.156C186.19 280.992 188.133 281.816 189.563 283.263C190.993 284.709 191.795 286.661 191.795 288.695C191.795 290.73 190.993 292.682 189.563 294.128C188.133 295.575 186.19 296.399 184.156 296.422Z" fill="#FF9EC0"/>
<path d="M255.8 307.1L217.7 322.328V340.27C217.7 340.27 226.274 364.243 246.446 383.497C248.97 385.891 252.317 387.226 255.796 387.226C259.275 387.226 262.622 385.891 265.146 383.497C285.322 364.243 293.896 340.27 293.896 340.27V321.82L255.8 307.1Z" fill="#324761"/>
<path d="M255.8 325.414C275.308 349.797 304.05 339.691 319.206 331.684C320.045 331.239 320.754 330.584 321.266 329.785C321.778 328.985 322.075 328.067 322.128 327.119C322.182 326.171 321.99 325.225 321.571 324.373C321.152 323.521 320.52 322.791 319.737 322.254C311.05 316.176 305.991 302.859 298.811 296.172C287.663 285.781 268.452 279.465 255.799 290.938C243.151 279.465 223.94 285.782 212.787 296.172C205.611 302.86 200.553 316.172 191.861 322.254C191.078 322.791 190.446 323.521 190.027 324.373C189.608 325.225 189.416 326.171 189.47 327.119C189.523 328.067 189.82 328.985 190.332 329.785C190.844 330.584 191.553 331.239 192.392 331.684C207.551 339.691 236.293 349.8 255.8 325.414Z" fill="#485B73"/>
<path d="M265.273 446.688C265.274 448.563 264.719 450.395 263.678 451.954C262.637 453.513 261.157 454.729 259.425 455.447C257.694 456.164 255.788 456.353 253.949 455.987C252.111 455.622 250.422 454.72 249.096 453.395C247.77 452.07 246.867 450.381 246.501 448.542C246.135 446.704 246.323 444.798 247.04 443.066C247.757 441.334 248.972 439.854 250.53 438.813C252.089 437.771 253.921 437.215 255.796 437.215C258.309 437.215 260.719 438.213 262.496 439.989C264.273 441.766 265.272 444.175 265.273 446.688Z" fill="#FFE675"/>
<path d="M265.273 482.219C265.274 484.094 264.719 485.926 263.678 487.485C262.637 489.044 261.157 490.26 259.425 490.978C257.694 491.695 255.788 491.884 253.949 491.518C252.111 491.153 250.422 490.251 249.096 488.926C247.77 487.601 246.867 485.912 246.501 484.073C246.135 482.235 246.323 480.329 247.04 478.597C247.757 476.865 248.972 475.385 250.53 474.344C252.089 473.302 253.921 472.746 255.796 472.746C258.309 472.746 260.719 473.744 262.496 475.52C264.273 477.297 265.272 479.706 265.273 482.219Z" fill="#FFE675"/>
<path d="M108.7 230.867H402.9C401.564 222.184 399.728 213.585 397.4 205.113L255.8 180.219L114.2 205.113C111.871 213.584 110.035 222.183 108.7 230.867Z" fill="#FFC6B3"/>
<path d="M417.7 155.324H93.8949C87.3198 155.366 81.0282 158.007 76.3936 162.671C71.759 167.335 69.1577 173.643 69.1577 180.218C69.1577 186.794 71.759 193.102 76.3936 197.766C81.0282 202.43 87.3198 205.071 93.8949 205.113H417.7C424.275 205.071 430.567 202.43 435.201 197.766C439.836 193.102 442.437 186.794 442.437 180.218C442.437 173.643 439.836 167.335 435.201 162.671C430.567 158.007 424.275 155.366 417.7 155.324Z" fill="#FF6881"/>
<path d="M99.9059 180.219C99.9073 173.617 102.53 167.286 107.199 162.617C111.867 157.949 118.198 155.326 124.8 155.324H93.8949C87.3198 155.366 81.0282 158.007 76.3936 162.671C71.759 167.335 69.1577 173.643 69.1577 180.218C69.1577 186.794 71.759 193.102 76.3936 197.766C81.0282 202.43 87.3198 205.071 93.8949 205.113H124.8C121.531 205.113 118.294 204.469 115.273 203.218C112.253 201.967 109.509 200.134 107.197 197.822C104.885 195.51 103.052 192.766 101.801 189.746C100.55 186.725 99.9058 183.488 99.9059 180.219Z" fill="#DE4B64"/>
</svg>
