<svg width="512" height="512" viewBox="0 0 512 512" fill="none" xmlns="http://www.w3.org/2000/svg">
<path d="M512 256L256 512L0.00805664 256L256 0L512 256Z" fill="#FF9EC0"/>
<path d="M462.387 4.0319e-08H256V80.871C243.5 80.871 231.512 85.8366 222.673 94.6754C213.834 103.514 208.869 115.502 208.869 128.002C208.869 140.502 213.834 152.49 222.673 161.329C231.512 170.167 243.5 175.133 256 175.133V256H336.871C336.871 243.501 341.836 231.513 350.675 222.675C359.513 213.836 371.501 208.871 384 208.871C396.499 208.871 408.487 213.836 417.325 222.675C426.164 231.513 431.129 243.501 431.129 256H512V49.613C512 43.0977 510.717 36.6461 508.224 30.6266C505.731 24.6072 502.076 19.1378 497.469 14.5307C492.862 9.92368 487.393 6.26922 481.373 3.77603C475.354 1.28284 468.902 -0.000262622 462.387 4.0319e-08Z" fill="#4D9AE8"/>
<path d="M208.871 128C208.871 121.811 210.09 115.682 212.458 109.964C214.827 104.246 218.298 99.0508 222.674 94.6745C227.051 90.2981 232.246 86.8266 237.964 84.4582C243.682 82.0898 249.811 80.8709 256 80.871V4.0319e-08H49.613C43.0977 -0.000262622 36.6461 1.28284 30.6266 3.77603C24.6072 6.26922 19.1378 9.92368 14.5307 14.5307C9.92368 19.1378 6.26922 24.6072 3.77603 30.6266C1.28284 36.6461 -0.000262622 43.0977 4.0319e-08 49.613V256H80.871C80.871 268.499 85.8364 280.487 94.6748 289.325C103.513 298.164 115.501 303.129 128 303.129C140.499 303.129 152.487 298.164 161.325 289.325C170.164 280.487 175.129 268.499 175.129 256H256V175.133C249.811 175.133 243.682 173.914 237.964 171.545C232.245 169.176 227.05 165.705 222.673 161.328C218.297 156.951 214.826 151.755 212.457 146.037C210.089 140.318 208.87 134.189 208.871 128Z" fill="#6DD1E0"/>
<path d="M431.129 256C431.129 243.501 426.164 231.513 417.325 222.675C408.487 213.836 396.499 208.871 384 208.871C371.501 208.871 359.513 213.836 350.675 222.675C341.836 231.513 336.871 243.501 336.871 256H256V336.871C268.5 336.871 280.488 341.837 289.327 350.675C298.165 359.514 303.131 371.502 303.131 384.002C303.131 396.502 298.165 408.49 289.327 417.329C280.488 426.168 268.5 431.133 256 431.133V512H462.387C468.902 512 475.354 510.717 481.373 508.224C487.393 505.731 492.862 502.076 497.469 497.469C502.076 492.862 505.731 487.393 508.224 481.373C510.717 475.354 512 468.902 512 462.387V256H431.129Z" fill="#FF9EC0"/>
<path d="M256 336.871V256H175.129C175.129 268.499 170.164 280.487 161.325 289.325C152.487 298.164 140.499 303.129 128 303.129C115.501 303.129 103.513 298.164 94.6748 289.325C85.8364 280.487 80.871 268.499 80.871 256H4.0319e-08V462.387C-0.000262622 468.902 1.28284 475.354 3.77603 481.373C6.26922 487.393 9.92368 492.862 14.5307 497.469C19.1378 502.076 24.6072 505.731 30.6266 508.224C36.6461 510.717 43.0977 512 49.613 512H256V431.133C268.5 431.133 280.488 426.167 289.327 417.329C298.165 408.49 303.131 396.502 303.131 384.002C303.131 371.502 298.165 359.514 289.327 350.675C280.488 341.837 268.5 336.871 256 336.871Z" fill="#FFE675"/>
</svg>
