<svg width="512" height="512" viewBox="0 0 512 512" fill="none" xmlns="http://www.w3.org/2000/svg">
<path d="M255.508 0C242.289 0.000265207 229.611 5.25176 220.263 14.5993C210.916 23.9468 205.664 36.6246 205.664 49.844V92.379H305.352V49.844C305.352 36.6246 300.1 23.9468 290.753 14.5993C281.405 5.25176 268.727 0.000265207 255.508 0V0Z" fill="#FF9EC0"/>
<path d="M270.961 2.45281C263.478 0.0137253 255.524 -0.618924 247.75 0.606626C239.975 1.83218 232.601 4.8811 226.232 9.5039C219.862 14.1267 214.677 20.192 211.102 27.2035C207.526 34.215 205.662 41.9734 205.661 49.8438V92.3788H236.57V49.8438C236.572 39.3269 239.899 29.0798 246.076 20.568C252.253 12.0562 260.963 5.71552 270.961 2.45281Z" fill="#FF66A8"/>
<path d="M351.02 173.8H314.484L255.507 139.878L196.531 173.8H160C145.05 173.8 130.712 179.739 120.141 190.31C109.57 200.881 103.631 215.219 103.631 230.169C103.631 245.119 109.57 259.457 120.141 270.028C130.712 280.599 145.05 286.538 160 286.538L255.512 311.065L351.024 286.538C365.974 286.538 380.312 280.599 390.883 270.028C401.454 259.457 407.393 245.119 407.393 230.169C407.393 215.219 401.454 200.881 390.883 190.31C380.312 179.739 365.974 173.8 351.024 173.8H351.02Z" fill="#4CB4A4"/>
<path d="M270.961 148.762L255.508 139.875L196.531 173.8H227.437L270.961 148.762Z" fill="#239674"/>
<path d="M190.9 286.531C183.498 286.531 176.168 285.073 169.329 282.24C162.49 279.407 156.276 275.256 151.042 270.021C145.808 264.787 141.656 258.573 138.823 251.735C135.991 244.896 134.533 237.566 134.533 230.164C134.533 222.762 135.991 215.432 138.823 208.593C141.656 201.754 145.808 195.541 151.042 190.306C156.276 185.072 162.49 180.92 169.329 178.088C176.168 175.255 183.498 173.797 190.9 173.797H160C152.598 173.797 145.268 175.255 138.429 178.088C131.59 180.92 125.376 185.072 120.142 190.306C114.908 195.541 110.756 201.754 107.923 208.593C105.091 215.432 103.633 222.762 103.633 230.164C103.633 237.566 105.091 244.896 107.923 251.735C110.756 258.573 114.908 264.787 120.142 270.021C125.376 275.256 131.59 279.407 138.429 282.24C145.268 285.073 152.598 286.531 160 286.531L255.512 311.062L270.961 307.093L190.9 286.531Z" fill="#239674"/>
<path d="M413.648 399.266H382.336L255.508 377.866L128.684 399.266H97.367C82.4175 399.266 68.0804 405.204 57.5095 415.775C46.9386 426.346 41 440.683 41 455.633C41 470.582 46.9386 484.919 57.5095 495.49C68.0804 506.061 82.4175 512 97.367 512H413.648C428.597 512 442.935 506.061 453.505 495.49C464.076 484.919 470.015 470.582 470.015 455.633C470.015 440.683 464.076 426.346 453.505 415.775C442.935 405.204 428.597 399.266 413.648 399.266Z" fill="#FF6881"/>
<path d="M71.906 455.633C71.9068 440.684 77.8457 426.347 88.4164 415.776C98.9871 405.206 113.324 399.267 128.273 399.266H97.367C82.4175 399.266 68.0804 405.205 57.5095 415.775C46.9386 426.346 41 440.683 41 455.633C41 470.582 46.9386 484.919 57.5095 495.49C68.0804 506.061 82.4175 512 97.367 512H128.273C113.324 511.999 98.9871 506.06 88.4164 495.49C77.8457 484.919 71.9068 470.582 71.906 455.633Z" fill="#DE4B64"/>
<path d="M270.961 380.477L255.508 377.868L128.684 399.268H159.59L270.961 380.477Z" fill="#DE4B64"/>
<path d="M382.336 286.531H128.684C113.734 286.531 99.3973 292.469 88.8264 303.04C78.2555 313.611 72.3169 327.948 72.3169 342.898C72.3169 357.847 78.2555 372.184 88.8264 382.755C99.3973 393.326 113.734 399.265 128.684 399.265H382.336C397.285 399.265 411.623 393.326 422.193 382.755C432.764 372.184 438.703 357.847 438.703 342.898C438.703 327.948 432.764 313.611 422.193 303.04C411.623 292.469 397.285 286.531 382.336 286.531Z" fill="#91DAFF"/>
<path d="M103.223 342.9C103.223 327.95 109.162 313.613 119.732 303.042C130.303 292.471 144.64 286.533 159.59 286.533H128.684C113.734 286.533 99.3973 292.471 88.8264 303.042C78.2555 313.613 72.3169 327.95 72.3169 342.9C72.3169 357.849 78.2555 372.186 88.8264 382.757C99.3973 393.328 113.734 399.267 128.684 399.267H159.59C152.188 399.267 144.858 397.809 138.019 394.977C131.18 392.144 124.966 387.992 119.732 382.758C114.498 377.524 110.346 371.31 107.513 364.471C104.68 357.632 103.223 350.302 103.223 342.9Z" fill="#73BBDF"/>
<path d="M314.484 61.0627H196.531C181.582 61.0627 167.244 67.0014 156.674 77.5723C146.103 88.1431 140.164 102.48 140.164 117.43C140.164 132.379 146.103 146.716 156.674 157.287C167.244 167.858 181.582 173.797 196.531 173.797H314.484C329.434 173.797 343.771 167.858 354.342 157.287C364.912 146.716 370.851 132.379 370.851 117.43C370.851 102.48 364.912 88.1431 354.342 77.5723C343.771 67.0014 329.434 61.0627 314.484 61.0627Z" fill="#FFE675"/>
<path d="M171.07 117.43C171.071 102.481 177.01 88.1438 187.58 77.5731C198.151 67.0024 212.488 61.0635 227.437 61.0627H196.531C181.582 61.0627 167.244 67.0014 156.674 77.5723C146.103 88.1431 140.164 102.48 140.164 117.43C140.164 132.379 146.103 146.716 156.674 157.287C167.244 167.858 181.582 173.797 196.531 173.797H227.437C220.035 173.797 212.705 172.339 205.866 169.506C199.028 166.673 192.814 162.521 187.58 157.287C177.009 146.716 171.07 132.379 171.07 117.43Z" fill="#FFCB5D"/>
</svg>
