<svg width="513" height="512" viewBox="0 0 513 512" fill="none" xmlns="http://www.w3.org/2000/svg">
<path d="M26.2732 192C24.2841 192 22.3764 191.21 20.9699 189.803C19.5634 188.397 18.7732 186.489 18.7732 184.5V43.5C18.7732 41.5109 19.5634 39.6032 20.9699 38.1967C22.3764 36.7902 24.2841 36 26.2732 36C28.2623 36 30.17 36.7902 31.5765 38.1967C32.983 39.6032 33.7732 41.5109 33.7732 43.5V184.5C33.7732 186.489 32.983 188.397 31.5765 189.803C30.17 191.21 28.2623 192 26.2732 192Z" fill="#1D1D1F"/>
<path d="M52.5422 26.27C52.5422 31.4658 51.0015 36.5448 48.1148 40.8649C45.2282 45.185 41.1253 48.5521 36.3251 50.5404C31.5248 52.5287 26.2427 53.0489 21.1468 52.0352C16.0509 51.0214 11.37 48.5194 7.69616 44.8453C4.02227 41.1713 1.52038 36.4904 0.506858 31.3944C-0.506663 26.2985 0.0137134 21.0164 2.00218 16.2162C3.99065 11.416 7.3579 7.31327 11.6781 4.42681C15.9983 1.54034 21.0774 -0.000197764 26.2732 1.90419e-08C33.2403 0.000265229 39.9219 2.76811 44.8483 7.69466C49.7746 12.6212 52.5422 19.3029 52.5422 26.27Z" fill="#FF5555"/>
<path d="M460.495 175.457H433.475C431.152 175.458 428.896 174.673 427.075 173.23C425.254 171.787 423.975 169.77 423.444 167.508L385.987 7.949C385.457 5.68751 384.178 3.67162 382.358 2.22862C380.538 0.785626 378.283 0.000248584 375.96 4.08409e-07H101.929C99.6057 -0.000653652 97.3502 0.784311 95.5292 2.22738C93.7081 3.67045 92.4285 5.68684 91.8982 7.949L54.4442 167.508C53.9127 169.77 52.6328 171.785 50.812 173.228C48.9912 174.671 46.7363 175.456 44.4132 175.457H10.3032C8.95047 175.457 7.61102 175.723 6.3613 176.241C5.11158 176.759 3.97608 177.518 3.01962 178.474C2.06316 179.431 1.30449 180.566 0.786928 181.816C0.269363 183.066 0.00304255 184.405 0.00317388 185.758L0.00317388 407.758H512.003V226.965C512.003 213.304 506.576 200.203 496.916 190.544C487.257 180.884 474.156 175.458 460.495 175.457Z" fill="#FF5555"/>
<path d="M51.5112 175.457H85.6202C87.9433 175.456 90.1982 174.671 92.019 173.228C93.8398 171.785 95.1197 169.77 95.6512 167.508L133.103 7.949C133.634 5.68651 134.914 3.66987 136.735 2.22676C138.556 0.783654 140.812 -0.00110418 143.136 1.16608e-06H101.929C99.6057 -0.000652895 97.3502 0.784312 95.5292 2.22738C93.7081 3.67045 92.4285 5.68684 91.8982 7.949L54.4442 167.508C53.9127 169.77 52.6328 171.785 50.812 173.228C48.9912 174.671 46.7363 175.456 44.4132 175.457H10.3032C8.95047 175.457 7.61102 175.723 6.3613 176.241C5.11158 176.759 3.97608 177.518 3.01962 178.474C2.06316 179.431 1.30449 180.566 0.786928 181.816C0.269363 183.066 0.00304255 184.405 0.00317388 185.758L0.00317388 407.758H41.2102V185.758C41.21 184.405 41.4764 183.066 41.994 181.816C42.5117 180.566 43.2704 179.43 44.227 178.474C45.1835 177.517 46.3192 176.758 47.569 176.241C48.8188 175.723 50.1584 175.457 51.5112 175.457Z" fill="#E04141"/>
<path d="M407.761 407.758V348.82H302.792C296.567 348.82 290.403 347.594 284.652 345.211C278.9 342.829 273.675 339.337 269.273 334.935C264.872 330.533 261.38 325.306 258.999 319.555C256.617 313.803 255.391 307.639 255.392 301.414C255.391 288.842 250.395 276.786 241.505 267.897C232.615 259.008 220.558 254.014 207.986 254.014H0.00317383V407.754H407.761V407.758Z" fill="#4DB5A6"/>
<path d="M0.00317383 254.016H41.2102V407.758H0.00317383V254.016Z" fill="#3DA094"/>
<path d="M51.5112 279.77H0.00317383V228.258H51.5112C54.8935 228.258 58.2427 228.924 61.3676 230.219C64.4924 231.513 67.3318 233.41 69.7234 235.802C72.1151 238.193 74.0123 241.033 75.3066 244.158C76.601 247.283 77.2672 250.632 77.2672 254.014C77.2672 257.396 76.601 260.746 75.3066 263.87C74.0123 266.995 72.1151 269.835 69.7234 272.226C67.3318 274.618 64.4924 276.515 61.3676 277.81C58.2427 279.104 54.8935 279.77 51.5112 279.77Z" fill="#FFDE55"/>
<path d="M0.00317383 228.258H41.2102V279.77H0.00317383V228.258Z" fill="#FFCD00"/>
<path d="M355.21 228.258H313.296C308.866 228.258 304.618 230.018 301.485 233.15C298.353 236.283 296.593 240.531 296.593 244.961C296.593 249.391 298.353 253.639 301.485 256.772C304.618 259.904 308.866 261.664 313.296 261.664H355.21C359.64 261.664 363.889 259.904 367.021 256.772C370.153 253.639 371.913 249.391 371.913 244.961C371.913 240.531 370.153 236.283 367.021 233.15C363.889 230.018 359.64 228.258 355.21 228.258Z" fill="#D1E7F8"/>
<path d="M327.503 244.961C327.505 240.532 329.265 236.286 332.396 233.154C335.528 230.023 339.774 228.263 344.203 228.261H313.303C308.873 228.261 304.625 230.021 301.492 233.153C298.36 236.286 296.6 240.534 296.6 244.964C296.6 249.394 298.36 253.642 301.492 256.775C304.625 259.907 308.873 261.667 313.303 261.667H344.203C339.773 261.665 335.526 259.905 332.394 256.772C329.262 253.639 327.503 249.391 327.503 244.961Z" fill="#C2DFF6"/>
<path d="M472.862 289.938H512.003V228.258H435.632C434.027 228.258 432.436 228.574 430.953 229.188C429.469 229.802 428.121 230.703 426.986 231.838C425.85 232.974 424.949 234.321 424.335 235.805C423.72 237.288 423.403 238.878 423.403 240.484C423.404 246.979 424.683 253.41 427.169 259.41C429.654 265.41 433.298 270.862 437.89 275.454C442.483 280.047 447.935 283.689 453.936 286.174C459.936 288.66 466.368 289.938 472.862 289.938Z" fill="#FFDE55"/>
<path d="M454.312 240.484C454.312 238.878 454.628 237.288 455.242 235.805C455.857 234.321 456.757 232.973 457.893 231.838C459.028 230.702 460.376 229.802 461.86 229.187C463.343 228.573 464.933 228.257 466.539 228.257H435.632C434.027 228.257 432.437 228.574 430.954 229.188C429.471 229.803 428.123 230.703 426.988 231.839C425.853 232.974 424.953 234.322 424.339 235.805C423.725 237.289 423.409 238.879 423.409 240.484C423.409 253.6 428.619 266.178 437.894 275.453C447.168 284.727 459.746 289.937 472.862 289.937H503.762C490.647 289.936 478.069 284.726 468.796 275.452C459.522 266.177 454.312 253.599 454.312 240.484Z" fill="#FFCD00"/>
<path d="M208.491 407.758C208.491 428.375 202.377 448.53 190.922 465.672C179.467 482.815 163.187 496.176 144.139 504.065C125.091 511.955 104.131 514.019 83.9097 509.997C63.6886 505.975 45.1142 496.046 30.5356 481.468C15.9569 466.889 6.02868 448.315 2.00634 428.093C-2.016 407.872 0.0482063 386.912 7.93794 367.864C15.8277 348.816 29.1886 332.536 46.3311 321.081C63.4736 309.626 83.6279 303.512 104.245 303.512C117.935 303.512 131.491 306.208 144.139 311.447C156.787 316.685 168.279 324.364 177.959 334.044C187.639 343.725 195.318 355.217 200.557 367.864C205.795 380.512 208.491 394.068 208.491 407.758Z" fill="#57565C"/>
<path d="M41.2102 407.758C41.2127 383.686 49.5434 360.356 64.7888 341.726C80.0341 323.097 101.255 310.316 124.851 305.551C117.221 304.025 109.446 303.352 101.667 303.543C45.7302 304.9 0.4762 350.906 0.00320028 406.863C-0.118273 422.372 3.21974 437.713 9.77428 451.769C16.3288 465.825 25.9349 478.243 37.8935 488.118C49.8521 497.994 63.8621 505.079 78.904 508.858C93.9459 512.637 109.641 513.014 124.847 509.963C101.252 505.198 80.0322 492.417 64.7876 473.788C49.5431 455.159 41.2128 431.829 41.2102 407.758Z" fill="#3E3D42"/>
<path d="M107.737 439.7C101.122 440.423 94.4464 439.074 88.6307 435.84C82.8149 432.607 78.1463 427.648 75.2693 421.648C72.3924 415.648 71.4488 408.902 72.569 402.343C73.6892 395.784 76.8178 389.734 81.5231 385.029C86.2283 380.323 92.2781 377.195 98.8374 376.075C105.397 374.954 112.142 375.898 118.142 378.775C124.142 381.652 129.101 386.321 132.335 392.136C135.568 397.952 136.917 404.628 136.194 411.243C135.393 418.515 132.137 425.297 126.964 430.47C121.791 435.643 115.009 438.899 107.737 439.7Z" fill="#D1E7F8"/>
<path d="M512.003 407.758C512.003 428.375 505.889 448.53 494.434 465.672C482.979 482.815 466.698 496.176 447.65 504.066C428.602 511.955 407.642 514.019 387.42 509.997C367.199 505.974 348.625 496.045 334.046 481.466C319.468 466.887 309.54 448.312 305.518 428.091C301.496 407.87 303.561 386.91 311.451 367.862C319.341 348.814 332.703 332.533 349.846 321.079C366.989 309.625 387.144 303.512 407.761 303.512C421.451 303.512 435.006 306.209 447.653 311.448C460.301 316.687 471.792 324.366 481.472 334.046C491.152 343.726 498.83 355.218 504.069 367.865C509.307 380.513 512.003 394.068 512.003 407.758Z" fill="#57565C"/>
<path d="M344.722 407.758C344.725 383.686 353.056 360.356 368.301 341.726C383.546 323.097 404.767 310.315 428.363 305.551C420.735 304.025 412.96 303.352 405.183 303.543C349.242 304.902 303.983 350.906 303.519 406.863C303.398 422.372 306.736 437.712 313.29 451.769C319.845 465.825 329.451 478.243 341.41 488.118C353.368 497.994 367.378 505.079 382.42 508.858C397.462 512.637 413.157 513.014 428.363 509.963C404.767 505.199 383.547 492.418 368.301 473.789C353.056 455.16 344.725 431.83 344.722 407.758Z" fill="#3E3D42"/>
<path d="M411.249 439.7C404.634 440.423 397.958 439.075 392.142 435.842C386.326 432.608 381.657 427.649 378.779 421.649C375.902 415.649 374.958 408.903 376.078 402.344C377.198 395.784 380.327 389.734 385.032 385.029C389.738 380.324 395.788 377.195 402.347 376.075C408.907 374.955 415.652 375.898 421.652 378.776C427.653 381.653 432.612 386.322 435.845 392.138C439.078 397.954 440.427 404.631 439.703 411.246C438.901 418.517 435.646 425.297 430.473 430.47C425.301 435.642 418.52 438.898 411.249 439.7Z" fill="#D1E7F8"/>
<path d="M306.898 175.457H369.983C371.536 175.457 373.069 175.106 374.468 174.43C375.866 173.754 377.093 172.771 378.058 171.553C379.022 170.336 379.699 168.916 380.037 167.4C380.375 165.885 380.367 164.312 380.011 162.8L353.335 49.156C352.805 46.8937 351.525 44.8772 349.704 43.4341C347.882 41.991 345.627 41.2062 343.303 41.207H306.898C305.546 41.207 304.206 41.4734 302.957 41.9911C301.707 42.5087 300.571 43.2674 299.615 44.2238C298.658 45.1803 297.9 46.3157 297.382 47.5654C296.865 48.815 296.598 50.1544 296.598 51.507V165.156C296.598 166.509 296.864 167.848 297.382 169.098C297.899 170.348 298.658 171.483 299.615 172.44C300.571 173.396 301.707 174.155 302.956 174.673C304.206 175.191 305.545 175.457 306.898 175.457Z" fill="#D1E7F8"/>
<path d="M337.803 165.156V51.508C337.805 49.1931 338.586 46.9461 340.021 45.1297C341.456 43.3132 343.461 42.0332 345.713 41.496C344.925 41.3068 344.118 41.2098 343.307 41.207H306.897C304.165 41.207 301.546 42.2922 299.614 44.2238C297.682 46.1555 296.597 48.7753 296.597 51.507V165.156C296.597 167.888 297.682 170.508 299.614 172.439C301.546 174.371 304.165 175.456 306.897 175.456H348.103C345.371 175.456 342.752 174.371 340.82 172.439C338.888 170.508 337.803 167.888 337.803 165.156Z" fill="#C2DFF6"/>
<path d="M245.085 41.207H134.585C132.262 41.2073 130.008 41.9927 128.188 43.4357C126.367 44.8787 125.088 46.8945 124.558 49.156L97.8741 162.8C97.5187 164.312 97.5098 165.885 97.8482 167.401C98.1865 168.917 98.8633 170.336 99.8279 171.554C100.793 172.771 102.02 173.755 103.418 174.431C104.817 175.106 106.35 175.457 107.903 175.457H245.083C247.815 175.457 250.435 174.372 252.366 172.44C254.298 170.509 255.383 167.889 255.383 165.157V51.508C255.383 48.7765 254.299 46.1567 252.367 44.2249C250.436 42.2931 247.817 41.2076 245.085 41.207Z" fill="#D1E7F8"/>
<path d="M139.081 162.8L165.761 49.1551C166.291 46.8936 167.57 44.8777 169.391 43.4347C171.211 41.9917 173.465 41.2063 175.788 41.2061H134.581C132.258 41.2063 130.004 41.9917 128.184 43.4347C126.363 44.8777 125.084 46.8936 124.554 49.1551L97.8741 162.8C97.5187 164.312 97.5098 165.885 97.8482 167.401C98.1865 168.917 98.8633 170.336 99.8279 171.554C100.793 172.771 102.02 173.755 103.418 174.431C104.817 175.106 106.35 175.457 107.903 175.457H149.11C147.557 175.457 146.024 175.106 144.625 174.431C143.227 173.755 142 172.771 141.035 171.554C140.07 170.336 139.394 168.917 139.055 167.401C138.717 165.885 138.726 164.312 139.081 162.8Z" fill="#C2DFF6"/>
</svg>
