<svg width="512" height="512" viewBox="0 0 512 512" fill="none" xmlns="http://www.w3.org/2000/svg">
<path d="M98.4002 254.023H131.025V228.531C131.026 214.51 128.265 200.626 122.899 187.671C117.534 174.717 109.67 162.947 99.7557 153.032C89.8414 143.117 78.0713 135.252 65.1173 129.886C52.1634 124.52 38.2795 121.758 24.2582 121.758C23.2349 121.758 22.2305 122.033 21.3501 122.555C20.4698 123.076 19.7458 123.825 19.2541 124.722C18.7625 125.62 18.5211 126.633 18.5555 127.655C18.5898 128.678 18.8984 129.673 19.4492 130.535L98.4002 254.023Z" fill="#AF7954"/>
<path d="M100.289 254.023L51.8631 434.75C51.5127 436.057 51.4232 437.42 51.5998 438.761C51.7763 440.103 52.2153 441.396 52.8918 442.568C53.5683 443.739 54.4691 444.766 55.5425 445.59C56.616 446.413 57.8412 447.017 59.1481 447.367L89.0001 455.367C90.3069 455.717 91.6699 455.807 93.0113 455.63C94.3526 455.454 95.6461 455.015 96.8178 454.338C97.9894 453.662 99.0163 452.761 99.8398 451.688C100.663 450.614 101.267 449.389 101.617 448.082L153.617 254.023H100.289Z" fill="#CE926A"/>
<path d="M68.3631 449.836L120.89 254.024H100.285L51.8631 434.75C51.5127 436.057 51.4232 437.42 51.5998 438.761C51.7763 440.102 52.2153 441.396 52.8918 442.568C53.5683 443.739 54.4691 444.766 55.5425 445.59C56.616 446.413 57.8412 447.017 59.1481 447.367L68.3631 449.836Z" fill="#AF7954"/>
<path d="M416.434 254.023H363.109L415.109 448.082C415.459 449.389 416.063 450.613 416.887 451.686C417.711 452.759 418.738 453.66 419.909 454.336C421.081 455.012 422.374 455.451 423.715 455.627C425.057 455.803 426.419 455.713 427.726 455.363L457.578 447.363C458.885 447.013 460.11 446.409 461.183 445.586C462.257 444.762 463.158 443.735 463.834 442.564C464.511 441.392 464.95 440.099 465.126 438.757C465.303 437.416 465.213 436.053 464.863 434.746L416.434 254.023Z" fill="#CE926A"/>
<path d="M435.711 448.082L383.711 254.023H363.111L415.111 448.082C415.461 449.389 416.065 450.613 416.889 451.686C417.713 452.759 418.74 453.66 419.911 454.336C421.083 455.012 422.376 455.451 423.717 455.627C425.059 455.803 426.421 455.713 427.728 455.363L438.236 452.547C437.028 451.298 436.159 449.761 435.711 448.082Z" fill="#AF7954"/>
<path d="M423.41 137.766C423.41 136.819 423.681 135.891 424.19 135.092C424.7 134.294 425.427 133.657 426.286 133.258C427.145 132.859 428.1 132.713 429.039 132.839C429.978 132.964 430.862 133.355 431.586 133.966L445.574 145.766C453.658 152.588 463.609 156.816 474.131 157.9C484.653 158.984 495.257 156.874 504.562 151.844C507.683 150.157 510.058 147.361 511.218 144.009C512.378 140.656 512.239 136.99 510.828 133.735L457.785 11.375C456.32 7.99643 453.899 5.11978 450.82 3.09885C447.742 1.07791 444.14 0.000803105 440.457 0C420.718 -4.36835e-10 401.172 3.88797 382.935 11.4419C364.698 18.9959 348.128 30.0679 334.17 44.0257C320.212 57.9836 309.14 74.554 301.587 92.7908C294.033 111.028 290.145 130.574 290.145 150.313V254.023H423.41V137.766Z" fill="#CE926A"/>
<path d="M450.9 3.156C447.806 1.09837 444.173 0.000440184 440.457 0C420.718 -4.36833e-10 401.172 3.88797 382.935 11.4419C364.698 18.9959 348.128 30.0679 334.17 44.0257C320.212 57.9836 309.14 74.554 301.587 92.7908C294.033 111.028 290.145 130.574 290.145 150.313V254.023H331.352V150.313C331.354 115.787 343.239 82.3143 365.008 55.517C386.778 28.7197 417.107 10.2307 450.9 3.156Z" fill="#AF7954"/>
<path d="M454.91 279.777H61.8132C59.0815 279.777 56.4616 278.692 54.53 276.76C52.5984 274.829 51.5132 272.209 51.5132 269.477V238.57C51.5132 237.217 51.7796 235.878 52.2972 234.628C52.8148 233.379 53.5735 232.243 54.53 231.287C55.4864 230.33 56.6219 229.572 57.8715 229.054C59.1212 228.536 60.4606 228.27 61.8132 228.27H454.913C456.266 228.27 457.605 228.536 458.855 229.054C460.104 229.572 461.24 230.33 462.196 231.287C463.153 232.243 463.912 233.379 464.429 234.628C464.947 235.878 465.213 237.217 465.213 238.57V269.476C465.213 270.829 464.947 272.169 464.429 273.419C463.911 274.669 463.152 275.804 462.196 276.761C461.239 277.717 460.103 278.476 458.853 278.994C457.603 279.511 456.263 279.777 454.91 279.777Z" fill="#E2A77F"/>
<path d="M92.7152 269.477V238.57C92.7152 237.217 92.9816 235.878 93.4992 234.628C94.0168 233.379 94.7755 232.243 95.732 231.287C96.6884 230.33 97.8239 229.572 99.0735 229.054C100.323 228.536 101.663 228.27 103.015 228.27H61.8132C60.4606 228.27 59.1212 228.536 57.8715 229.054C56.6219 229.572 55.4864 230.33 54.53 231.287C53.5735 232.243 52.8148 233.379 52.2972 234.628C51.7796 235.878 51.5132 237.217 51.5132 238.57V269.476C51.5132 272.208 52.5984 274.828 54.53 276.759C56.4616 278.691 59.0815 279.776 61.8132 279.776H103.02C101.667 279.777 100.327 279.511 99.0772 278.994C97.8271 278.476 96.6911 277.718 95.7341 276.761C94.7771 275.805 94.018 274.669 93.5 273.42C92.982 272.17 92.7153 270.83 92.7152 269.477Z" fill="#CE926A"/>
<path d="M498.777 467.266C341.312 526.914 170.683 526.911 13.218 467.266C9.32388 465.778 5.97426 463.141 3.61355 459.704C1.25283 456.268 -0.00740206 452.196 3.27075e-05 448.027V425.664C-0.00219374 424.001 0.398511 422.363 1.16785 420.888C1.93719 419.414 3.05226 418.148 4.41762 417.199C5.78298 416.25 7.35798 415.646 9.00781 415.439C10.6576 415.231 12.3332 415.426 13.891 416.008C170.942 475.317 341.055 475.321 498.11 416.008C499.668 415.427 501.343 415.231 502.993 415.439C504.643 415.647 506.217 416.251 507.583 417.2C508.948 418.149 510.063 419.415 510.832 420.889C511.602 422.363 512.002 424.001 512 425.664V448.027C512.007 452.196 510.746 456.27 508.385 459.706C506.023 463.142 502.672 465.779 498.777 467.266Z" fill="#E2A77F"/>
<path d="M498.777 446.66C341.312 506.308 170.683 506.308 13.218 446.66C9.32349 445.172 5.97343 442.536 3.6126 439.1C1.25177 435.664 -0.00817173 431.591 3.9885e-05 427.422V448.027C-0.00750575 452.196 1.25328 456.269 3.61501 459.706C5.97675 463.142 9.32771 465.778 13.223 467.265C170.684 526.913 341.317 526.913 498.782 467.265C502.676 465.777 506.026 463.14 508.387 459.704C510.747 456.268 512.008 452.196 512 448.027V427.422C512.008 431.591 510.748 435.665 508.386 439.101C506.024 442.537 502.673 445.174 498.777 446.66Z" fill="#CE926A"/>
<path d="M445.055 80.367C443.066 80.367 441.158 79.5768 439.752 78.1703C438.345 76.7638 437.555 74.8561 437.555 72.867V61.167C437.555 59.1779 438.345 57.2702 439.752 55.8637C441.158 54.4572 443.066 53.667 445.055 53.667C447.044 53.667 448.952 54.4572 450.358 55.8637C451.765 57.2702 452.555 59.1779 452.555 61.167V72.867C452.555 74.8561 451.765 76.7638 450.358 78.1703C448.952 79.5768 447.044 80.367 445.055 80.367Z" fill="#1D1D1F"/>
<path d="M450.9 102.48H439.2C437.211 102.48 435.303 101.69 433.897 100.283C432.49 98.8768 431.7 96.9691 431.7 94.98C431.7 92.9909 432.49 91.0832 433.897 89.6767C435.303 88.2702 437.211 87.48 439.2 87.48H450.9C452.889 87.48 454.797 88.2702 456.203 89.6767C457.61 91.0832 458.4 92.9909 458.4 94.98C458.4 96.9691 457.61 98.8768 456.203 100.283C454.797 101.69 452.889 102.48 450.9 102.48Z" fill="#FEFEFE"/>
</svg>
