<svg width="512" height="512" viewBox="0 0 512 512" fill="none" xmlns="http://www.w3.org/2000/svg">
<path d="M361.586 52.8819L256.336 113.652L151.129 52.9049L227.729 8.68985C236.437 3.65727 246.316 1.00469 256.374 0.998546C266.432 0.992402 276.314 3.63291 285.029 8.65485L285.084 8.68985L361.586 52.8819Z" fill="#4CB4A4"/>
<path d="M132.184 327.065V450.187L78.524 419.207L55.617 405.999C46.9164 400.952 39.6937 393.708 34.6716 384.993C29.6495 376.278 27.0041 366.397 27 356.339L27 266.339L27.012 266.355L132.184 327.065Z" fill="#F9DA60"/>
<path d="M132.25 185.284L132.184 185.331V327.069L27.012 266.354L27.035 157.654C27.043 147.589 29.6985 137.704 34.735 128.99L132.25 185.284Z" fill="#C93939"/>
<path d="M256.336 113.651L132.25 185.284L34.73 128.984C39.7405 120.288 46.9522 113.064 55.64 108.039L151.128 52.9019L256.336 113.651Z" fill="#D1E7F8"/>
<path d="M485.8 356.339C485.802 366.387 483.165 376.259 478.152 384.967C473.14 393.676 465.928 400.915 457.238 405.96L443.051 414.16L285.071 505.324L380.493 450.224V327.147L485.778 266.366L485.8 356.339Z" fill="#E04141"/>
<path d="M485.773 266.366L380.488 327.147V185.331L478.055 128.999C483.092 137.712 485.742 147.599 485.739 157.663L485.773 266.366Z" fill="#C2DFF6"/>
<path d="M478.055 128.999L380.489 185.331L256.337 113.651L361.587 52.8809L457.075 108.01L457.442 108.229C465.995 113.252 473.097 120.408 478.055 128.999Z" fill="#F9DA60"/>
<path d="M380.488 327.147V450.222L284.679 505.542L284.632 505.565C276.024 510.44 266.299 513.001 256.406 512.999V398.788L380.488 327.147Z" fill="#F9DA60"/>
<path d="M256.406 398.788V512.999C246.343 513.002 236.457 510.355 227.742 505.323L132.183 450.175V327.065L256.406 398.788Z" fill="#309185"/>
<path d="M132.254 185.288L132.18 185.331V327.069L256.407 398.788V256.968L132.254 185.288Z" fill="#95C7EE"/>
<path d="M256.406 398.788L380.492 327.147V185.331L256.406 256.968V398.788Z" fill="#3DA094"/>
<path d="M132.254 185.288L256.406 256.968L380.488 185.327L256.336 113.651L132.254 185.288Z" fill="#FF6881"/>
</svg>
