<svg width="512" height="512" viewBox="0 0 512 512" fill="none" xmlns="http://www.w3.org/2000/svg">
<path d="M355.2 81.033L390.97 96.517L338.746 217.186L302.977 201.698L355.2 81.033Z" fill="#FF9EC0"/>
<path d="M256.047 194.798L74.3872 237.048L119.336 475.928C121.162 486.046 126.485 495.201 134.374 501.794C142.264 508.386 152.219 511.998 162.5 511.998H349.594C359.875 511.997 369.83 508.385 377.719 501.793C385.609 495.2 390.931 486.046 392.758 475.928L437.707 237.049L256.047 194.798Z" fill="#FF9EC0"/>
<path d="M437.707 237.049L256.047 194.798L74.3872 237.048L80.2002 267.955H431.891L437.707 237.049Z" fill="#FF66A8"/>
<path d="M344.086 331.725H168.008C159.388 331.733 150.957 329.203 143.765 324.452C136.572 319.701 130.938 312.938 127.563 305.006L90 216.936L117.637 205.147L155.203 293.217C156.271 295.729 158.056 297.871 160.334 299.376C162.611 300.881 165.282 301.681 168.012 301.678H344.086C346.816 301.681 349.487 300.881 351.764 299.376C354.042 297.871 355.827 295.729 356.895 293.217L394.461 205.147L422.094 216.936L384.531 304.998C381.157 312.931 375.523 319.696 368.331 324.448C361.139 329.201 352.707 331.732 344.086 331.725Z" fill="#F9DA60"/>
<path d="M367.668 267.955H400.332L422.094 216.935L394.461 205.146L367.668 267.955Z" fill="#FFB258"/>
<path d="M117.633 205.146L90 216.936L111.762 267.956H144.426L117.633 205.146Z" fill="#FFB258"/>
<path d="M437.707 162.564H74.387C68.9802 162.564 63.795 164.713 59.9718 168.536C56.1486 172.359 54.0005 177.544 54 182.951V216.662C54.0005 222.069 56.1486 227.254 59.9718 231.077C63.795 234.9 68.9802 237.048 74.387 237.049H437.7C440.377 237.049 443.028 236.522 445.502 235.497C447.975 234.473 450.223 232.971 452.116 231.078C454.009 229.185 455.511 226.937 456.535 224.464C457.56 221.99 458.087 219.339 458.087 216.662V182.951C458.088 180.274 457.561 177.623 456.537 175.15C455.513 172.677 454.012 170.43 452.119 168.536C450.227 166.643 447.98 165.142 445.507 164.117C443.034 163.092 440.384 162.564 437.707 162.564Z" fill="#6DD1E0"/>
<path d="M310.137 291.33H201.957C198.62 291.33 195.419 292.655 193.059 295.014C190.698 297.374 189.372 300.574 189.371 303.912V329.49C189.372 332.828 190.698 336.029 193.058 338.389C195.418 340.749 198.619 342.075 201.957 342.076H310.137C313.474 342.075 316.675 340.749 319.034 338.388C321.394 336.028 322.719 332.827 322.719 329.49V303.912C322.719 300.575 321.393 297.375 319.034 295.015C316.674 292.655 313.474 291.33 310.137 291.33Z" fill="#6DD1E0"/>
<path d="M338.207 120.33C343.548 124.122 349.271 127.346 355.281 129.951C361.291 132.557 367.559 134.523 373.981 135.818L390.993 96.518L355.215 81.033L338.207 120.33Z" fill="#FF66A8"/>
<path d="M439.035 32.8179L368.766 2.40791C365.249 0.885197 361.466 0.0702188 357.634 0.00951967C353.802 -0.0511795 349.996 0.643589 346.432 2.05415C342.869 3.46471 339.618 5.56342 336.865 8.23045C334.113 10.8975 331.913 14.0806 330.391 17.5979C326.872 25.7291 324.988 34.4739 324.848 43.3329C324.708 52.192 326.315 60.9919 329.576 69.2301C336.162 85.8679 349.087 99.2081 365.509 106.316C381.931 113.424 400.503 113.717 417.141 107.131C433.779 100.545 447.119 87.6196 454.227 71.1979C455.75 67.6803 456.564 63.8973 456.625 60.0648C456.686 56.2323 455.991 52.4254 454.58 48.8615C453.169 45.2975 451.07 42.0464 448.403 39.2936C445.736 36.5408 442.553 34.3404 439.035 32.8179ZM419.168 68.8259C414.286 74.9202 407.536 79.241 399.958 81.1235C392.38 83.006 384.393 82.3457 377.227 79.2442C370.06 76.1428 364.112 70.7722 360.297 63.9589C356.482 57.1457 355.012 49.2675 356.113 41.5369C356.302 40.161 356.806 38.8472 357.586 37.6982C358.366 36.5492 359.401 35.596 360.61 34.913C361.82 34.2301 363.17 33.8358 364.557 33.761C365.944 33.6863 367.329 33.933 368.605 34.4819L415.757 54.8879C417.031 55.4421 418.159 56.2831 419.054 57.3453C419.949 58.4075 420.587 59.6622 420.917 61.0115C421.247 62.3607 421.261 63.768 420.958 65.1236C420.654 66.4791 420.042 67.7462 419.168 68.8259Z" fill="#F9DA60"/>
</svg>
