<svg width="512" height="512" viewBox="0 0 512 512" fill="none" xmlns="http://www.w3.org/2000/svg">
<path d="M328.113 15.4531V66.9611H393.531C396.263 66.9611 398.882 68.0463 400.814 69.9779C402.746 71.9095 403.831 74.5294 403.831 77.2611V362.672H455.34V77.2661C455.34 60.873 448.828 45.1512 437.237 33.5592C425.645 21.9672 409.924 15.4547 393.531 15.4541L328.113 15.4531Z" fill="#95C7EE"/>
<path d="M266.277 427.609H317.789V362.2C317.789 359.468 318.874 356.848 320.806 354.917C322.737 352.985 325.357 351.9 328.089 351.9H429.589V300.383H328.09C319.972 300.383 311.934 301.982 304.434 305.089C296.935 308.196 290.12 312.749 284.38 318.489C278.64 324.23 274.087 331.044 270.981 338.544C267.875 346.044 266.276 354.082 266.277 362.2V427.609Z" fill="#95C7EE"/>
<path d="M371.121 72.113V10.3C371.121 8.9473 370.855 7.60785 370.337 6.35813C369.819 5.10841 369.06 3.9729 368.104 3.01645C367.147 2.05999 366.012 1.30132 364.762 0.783754C363.512 0.266189 362.173 -0.000131282 360.82 4.85482e-08L264.5 4.85482e-08C253.571 4.85482e-08 243.09 4.34144 235.362 12.0693C227.634 19.7971 223.293 30.2782 223.293 41.207C223.293 52.1358 227.634 62.6169 235.362 70.3447C243.09 78.0726 253.571 82.414 264.5 82.414H360.82C362.173 82.4141 363.512 82.1478 364.762 81.6301C366.012 81.1125 367.148 80.3538 368.104 79.3972C369.061 78.4406 369.82 77.305 370.337 76.0552C370.855 74.8053 371.121 73.4658 371.121 72.113Z" fill="#4DB5A6"/>
<path d="M264.5 41.207C264.5 30.2782 268.841 19.7971 276.569 12.0693C284.297 4.34144 294.778 0 305.707 0L264.5 0C253.571 0 243.09 4.34144 235.362 12.0693C227.634 19.7971 223.293 30.2782 223.293 41.207C223.293 52.1358 227.634 62.6169 235.362 70.3447C243.09 78.0726 253.571 82.414 264.5 82.414H305.707C294.778 82.414 284.297 78.0726 276.569 70.3447C268.841 62.6169 264.5 52.1358 264.5 41.207Z" fill="#3DA094"/>
<path d="M429.586 388.379V470.793H82.4141V388.379H429.586Z" fill="#FF5555"/>
<path d="M82.4141 388.379H206.035V470.793H82.4141V388.379Z" fill="#E04141"/>
<path d="M512 429.586C512 445.886 507.166 461.82 498.111 475.373C489.055 488.926 476.184 499.489 461.124 505.726C446.065 511.964 429.494 513.596 413.508 510.416C397.521 507.236 382.836 499.387 371.31 487.861C359.785 476.336 351.935 461.651 348.755 445.664C345.576 429.677 347.208 413.107 353.445 398.047C359.683 382.988 370.246 370.117 383.799 361.061C397.352 352.005 413.286 347.172 429.586 347.172C451.443 347.172 472.406 355.855 487.861 371.311C503.317 386.766 512 407.728 512 429.586Z" fill="#57565C"/>
<path d="M388.379 429.586C388.381 411.313 394.452 393.559 405.64 379.112C416.827 364.665 432.497 354.344 450.188 349.77C438.013 346.639 425.283 346.334 412.972 348.88C400.661 351.425 389.096 356.753 379.161 364.456C369.226 372.159 361.185 382.033 355.654 393.322C350.122 404.61 347.246 417.015 347.246 429.586C347.246 442.158 350.122 454.562 355.654 465.851C361.185 477.14 369.226 487.013 379.161 494.716C389.096 502.419 400.661 507.748 412.972 510.293C425.283 512.839 438.013 512.534 450.188 509.403C432.497 504.829 416.827 494.507 405.639 480.06C394.452 465.613 388.38 447.858 388.379 429.586Z" fill="#3E3D42"/>
<path d="M164.828 429.586C164.828 445.886 159.995 461.82 150.939 475.373C141.883 488.926 129.012 499.489 113.953 505.726C98.8933 511.964 82.3226 513.596 66.3359 510.416C50.3491 507.236 35.6643 499.387 24.1385 487.861C12.6127 476.336 4.76356 461.651 1.5836 445.664C-1.59636 429.677 0.0357089 413.107 6.27343 398.047C12.5112 382.988 23.0744 370.117 36.6273 361.061C50.1802 352.005 66.1141 347.172 82.414 347.172C104.272 347.172 125.234 355.855 140.689 371.311C156.145 386.766 164.828 407.728 164.828 429.586Z" fill="#57565C"/>
<path d="M41.207 429.586C41.2086 411.313 47.2806 393.558 58.4691 379.111C69.6576 364.664 85.3285 354.343 103.02 349.77C90.845 346.639 78.115 346.334 65.8041 348.88C53.4933 351.425 41.928 356.753 31.9932 364.456C22.0584 372.159 14.0175 382.033 8.48575 393.322C2.95403 404.61 0.078125 417.015 0.078125 429.586C0.078125 442.158 2.95403 454.562 8.48575 465.851C14.0175 477.14 22.0584 487.013 31.9932 494.716C41.928 502.419 53.4933 507.748 65.8041 510.293C78.115 512.839 90.845 512.534 103.02 509.403C85.3284 504.83 69.6573 494.509 58.4688 480.061C47.2803 465.614 41.2084 447.859 41.207 429.586Z" fill="#3E3D42"/>
<path d="M82.4141 470.793C74.2641 470.793 66.2971 468.376 59.5207 463.848C52.7442 459.32 47.4626 452.885 44.3437 445.355C41.2249 437.826 40.4088 429.54 41.9988 421.547C43.5888 413.553 47.5134 406.211 53.2763 400.448C59.0392 394.685 66.3816 390.761 74.375 389.171C82.3683 387.581 90.6537 388.397 98.1833 391.516C105.713 394.634 112.149 399.916 116.676 406.693C121.204 413.469 123.621 421.436 123.621 429.586C123.609 440.511 119.264 450.985 111.539 458.711C103.813 466.436 93.3392 470.781 82.4141 470.793Z" fill="#D1E7F8"/>
<path d="M61.8129 429.586C61.8251 420.454 64.8648 411.584 70.4561 404.364C76.0473 397.145 83.8747 391.982 92.7129 389.686C86.624 388.115 80.2562 387.958 74.0973 389.228C67.9383 390.497 62.1517 393.16 57.1806 397.011C52.2094 400.862 48.1856 405.8 45.4174 411.446C42.6492 417.093 41.21 423.297 41.21 429.586C41.21 435.874 42.6492 442.079 45.4174 447.726C48.1856 453.372 52.2094 458.31 57.1806 462.161C62.1517 466.012 67.9383 468.675 74.0973 469.944C80.2562 471.214 86.624 471.057 92.7129 469.486C83.8747 467.189 76.0473 462.027 70.4561 454.807C64.8648 447.588 61.8251 438.718 61.8129 429.586Z" fill="#C2DFF6"/>
<path d="M429.586 267.941C418.657 267.941 408.176 272.282 400.448 280.01C392.72 287.738 388.379 298.219 388.379 309.148V429.586C388.379 440.515 392.72 450.996 400.448 458.724C408.176 466.451 418.657 470.793 429.586 470.793C440.515 470.793 450.996 466.451 458.724 458.724C466.451 450.996 470.793 440.515 470.793 429.586V309.148C470.793 303.737 469.727 298.378 467.656 293.379C465.585 288.379 462.55 283.837 458.724 280.01C454.897 276.184 450.355 273.148 445.355 271.078C440.356 269.007 434.997 267.941 429.586 267.941Z" fill="#D1E7F8"/>
<path d="M429.586 429.586V309.148C429.584 301.914 431.488 294.808 435.105 288.544C438.722 282.279 443.925 277.078 450.191 273.464C443.927 269.845 436.821 267.939 429.588 267.937C422.354 267.936 415.247 269.839 408.982 273.455C402.717 277.072 397.515 282.274 393.898 288.539C390.281 294.803 388.378 301.91 388.379 309.144V429.586C388.378 436.82 390.281 443.927 393.898 450.192C397.515 456.457 402.717 461.659 408.982 465.275C415.247 468.892 422.354 470.795 429.588 470.793C436.822 470.792 443.928 468.885 450.192 465.266C443.926 461.653 438.722 456.453 435.105 450.189C431.487 443.925 429.584 436.819 429.586 429.586Z" fill="#C2DFF6"/>
</svg>
