<svg width="512" height="512" viewBox="0 0 512 512" fill="none" xmlns="http://www.w3.org/2000/svg">
<path d="M369.68 406.531H80.133C58.8881 406.507 38.5201 398.057 23.4974 383.035C8.47479 368.013 0.0243504 347.645 0 326.4L0 144.3C0.0224989 123.054 8.47219 102.685 23.4951 87.6611C38.518 72.6377 58.887 64.1872 80.133 64.1639C82.1221 64.1536 84.0339 64.9338 85.4477 66.333C86.8616 67.7322 87.6617 69.6358 87.672 71.6249C87.6823 73.614 86.9021 75.5258 85.5029 76.9396C84.1037 78.3535 82.2001 79.1536 80.211 79.1639C62.93 79.1673 46.3567 86.0286 34.1302 98.2411C21.9036 110.454 15.0233 127.019 15 144.3V326.4C15.0196 343.668 21.8881 360.224 34.0986 372.434C46.3092 384.645 62.8647 391.513 80.133 391.533H369.68C386.948 391.513 403.504 384.645 415.714 372.434C427.925 360.224 434.793 343.668 434.813 326.4V144.3C434.794 127.031 427.926 110.475 415.715 98.2636C403.505 86.0524 386.949 79.1835 369.68 79.1639C367.691 79.1639 365.783 78.3737 364.377 76.9672C362.97 75.5607 362.18 73.653 362.18 71.6639C362.18 69.6748 362.97 67.7671 364.377 66.3606C365.783 64.9541 367.691 64.1639 369.68 64.1639C390.926 64.1872 411.295 72.6377 426.318 87.6611C441.341 102.685 449.79 123.054 449.813 144.3V326.4C449.788 347.645 441.337 368.012 426.315 383.034C411.292 398.056 390.925 406.506 369.68 406.531Z" fill="#D1E7F8"/>
<path d="M224.945 512C215.928 512 207.015 510.08 198.799 506.366C190.582 502.653 183.251 497.232 177.293 490.465C171.335 483.698 166.887 475.739 164.244 467.118C161.602 458.497 160.826 449.413 161.968 440.469L183.738 270.012H266.152L287.922 440.469C289.064 449.413 288.288 458.497 285.645 467.118C283.003 475.738 278.554 483.697 272.596 490.464C266.638 497.232 259.307 502.652 251.091 506.366C242.874 510.079 233.961 512 224.945 512Z" fill="#CE926A"/>
<path d="M203.176 440.469L224.946 270.012H183.738L161.968 440.469C160.613 451.169 162.004 462.039 166.01 472.053C170.015 482.068 176.504 490.898 184.865 497.712C193.226 504.526 203.183 509.1 213.8 511.003C224.417 512.906 235.343 512.076 245.55 508.59C231.729 503.842 219.968 494.474 212.249 482.065C204.53 469.656 201.326 454.965 203.176 440.469Z" fill="#AF7954"/>
<path d="M287.266 41.207V166.484C287.266 183.013 280.7 198.865 269.012 210.553C257.324 222.24 241.472 228.807 224.943 228.807C208.415 228.807 192.563 222.24 180.875 210.553C169.187 198.865 162.621 183.013 162.621 166.484V41.207C162.621 30.2788 158.28 19.7981 150.552 12.0707C142.825 4.34323 132.344 0.00199877 121.416 0.00199877C110.488 0.00199877 100.007 4.34323 92.2797 12.0707C84.5522 19.7981 80.211 30.2788 80.211 41.207V166.484C80.211 204.87 95.4598 241.684 122.603 268.827C149.746 295.97 186.56 311.219 224.945 311.219C263.331 311.219 300.145 295.97 327.288 268.827C354.431 241.684 369.68 204.87 369.68 166.484V41.207C369.68 30.2782 365.339 19.7971 357.611 12.0693C349.883 4.34144 339.402 0 328.473 0C317.544 0 307.063 4.34144 299.335 12.0693C291.607 19.7971 287.266 30.2782 287.266 41.207Z" fill="#E2A77F"/>
<path d="M121.418 166.484V41.2069C121.416 33.9744 123.318 26.8688 126.935 20.6053C130.551 14.3417 135.753 9.14115 142.018 5.5269C135.755 1.90862 128.649 0.00310489 121.416 0.00195365C114.182 0.000802402 107.076 1.90405 100.811 5.52035C94.5468 9.13664 89.3447 14.3385 85.7282 20.6029C82.1117 26.8673 80.2081 33.9735 80.209 41.2069V166.484C80.2184 187.229 84.6855 207.731 93.3077 226.6C101.93 245.469 114.506 262.264 130.184 275.85C145.863 289.436 164.277 299.494 184.181 305.343C204.085 311.192 225.013 312.697 245.549 309.754C211.088 304.793 179.569 287.577 156.77 261.263C133.972 234.95 121.421 201.3 121.418 166.484Z" fill="#CE926A"/>
<path d="M306 451.762C252.539 462.887 197.361 462.887 143.9 451.762C106.92 444.11 86.232 404.434 100.681 369.547C100.841 369.164 100.997 368.785 101.154 368.406C106.489 355.42 116.178 344.697 128.559 338.077C140.939 331.457 155.238 329.354 169 332.129C205.902 339.817 243.993 339.817 280.895 332.129C294.512 329.251 308.706 331.215 321.029 337.684C333.352 344.153 343.031 354.721 348.395 367.563L349.215 369.543C363.664 404.434 342.977 444.105 306 451.762Z" fill="#4DB5A6"/>
<path d="M132.141 374.18C132.317 373.758 132.489 373.332 132.664 372.907C136.56 363.488 142.52 355.063 150.105 348.254C157.691 341.445 166.708 336.426 176.492 333.567C173.992 333.118 171.492 332.645 168.992 332.13C155.23 329.355 140.93 331.458 128.55 338.077C116.169 344.697 106.479 355.421 101.144 368.407C100.988 368.786 100.832 369.165 100.671 369.544C86.222 404.435 106.909 444.107 143.89 451.763C146.905 452.388 149.926 452.977 152.953 453.529C141.294 444.391 132.948 431.687 129.19 417.358C125.432 403.029 126.468 387.864 132.141 374.18Z" fill="#3DA094"/>
</svg>
