<svg width="512" height="512" viewBox="0 0 512 512" fill="none" xmlns="http://www.w3.org/2000/svg">
<path d="M482.212 482.441C463.335 501.346 437.722 511.979 411.006 511.999C384.29 512.019 358.66 501.426 339.755 482.55C317.445 460.298 287.225 447.797 255.716 447.785C224.207 447.772 193.977 460.25 171.65 482.484C160.55 493.526 147.028 501.827 132.158 506.725C117.287 511.624 101.479 512.986 85.9898 510.702C70.5007 508.419 55.7578 502.554 42.9335 493.572C30.1091 484.591 19.5569 472.742 12.1159 458.967C4.67483 445.191 0.550172 429.87 0.069842 414.221C-0.410488 398.572 2.76676 383.027 9.34896 368.821C15.9312 354.615 25.7368 342.141 37.9862 332.39C50.2356 322.639 64.591 315.881 79.9109 312.652C106.404 306.632 130.134 291.95 147.346 270.929C164.558 249.907 174.269 223.747 174.942 196.586C175.809 179.35 172.773 162.14 166.059 146.242C165.247 144.183 164.325 142.234 163.293 140.176L163.004 139.641C156.574 124.376 154.014 107.758 155.551 91.2653C157.089 74.7725 162.676 58.9146 171.816 45.1005C180.957 31.2864 193.368 19.9438 207.947 12.0803C222.526 4.21682 238.821 0.0758805 255.386 0.02537C271.95 -0.0251404 288.27 4.01634 302.897 11.7908C317.523 19.5652 330.003 30.8319 339.228 44.59C348.453 58.3481 354.136 74.1716 355.774 90.6548C357.412 107.138 354.954 123.771 348.617 139.075L348.058 140.18C347.031 142.235 346.109 144.18 345.371 146.071C338.608 162.017 335.546 179.288 336.414 196.587C337.087 223.752 346.799 249.917 364.015 270.941C381.231 291.965 404.966 306.648 431.465 312.665C449.241 316.365 465.687 324.802 479.061 337.083C492.436 349.363 502.242 365.031 507.442 382.428C512.642 399.825 513.042 418.304 508.601 435.91C504.159 453.516 495.041 469.594 482.211 482.442L482.212 482.441Z" fill="#485B73"/>
<path d="M255.677 165.7C242.758 165.699 230.13 161.867 219.39 154.689C208.649 147.511 200.278 137.309 195.335 125.374C190.392 113.438 189.1 100.305 191.621 87.635C194.142 74.965 200.363 63.327 209.498 54.1927C218.634 45.0585 230.272 38.8382 242.943 36.3185C255.613 33.7988 268.746 35.0928 280.681 40.0369C292.616 44.981 302.817 53.3531 309.994 64.0946C317.17 74.8361 321.001 87.4645 321.001 100.383C321.001 108.961 319.311 117.455 316.028 125.38C312.745 133.305 307.933 140.506 301.867 146.571C295.801 152.636 288.6 157.447 280.674 160.729C272.749 164.012 264.255 165.701 255.677 165.7Z" fill="#FF9EC0"/>
<path d="M221.263 100.383C221.266 85.748 226.182 71.5375 235.225 60.0297C244.267 48.5219 256.911 40.3832 271.13 36.9182C261.515 34.5653 251.491 34.4282 241.815 36.5172C232.14 38.6062 223.065 42.8666 215.278 48.9766C207.49 55.0867 201.193 62.8866 196.861 71.7872C192.53 80.6878 190.278 90.4563 190.275 100.355C190.272 110.253 192.519 120.023 196.845 128.926C201.172 137.829 207.465 145.633 215.249 151.747C223.034 157.861 232.106 162.127 241.78 164.221C251.455 166.315 261.479 166.184 271.095 163.836C256.884 160.365 244.249 152.226 235.214 140.721C226.179 129.216 221.266 115.012 221.263 100.383Z" fill="#FF66A8"/>
<path d="M255.677 226.184C240.778 226.184 226.215 230.601 213.827 238.878C201.439 247.155 191.784 258.919 186.083 272.683C180.381 286.447 178.89 301.593 181.796 316.205C184.702 330.817 191.876 344.239 202.411 354.774C212.946 365.308 226.368 372.482 240.98 375.389C255.592 378.295 270.738 376.803 284.502 371.102C298.266 365.4 310.03 355.745 318.307 343.358C326.584 330.97 331.001 316.406 331.001 301.508C331 281.531 323.064 262.372 308.938 248.247C294.812 234.121 275.654 226.185 255.677 226.184Z" fill="#FF9EC0"/>
<path d="M211.255 301.508C211.257 284.219 217.205 267.456 228.1 254.032C238.996 240.608 254.176 231.34 271.095 227.781C260.133 225.495 248.799 225.681 237.919 228.327C227.038 230.973 216.884 236.011 208.196 243.076C199.508 250.14 192.505 259.053 187.695 269.165C182.886 279.278 180.392 290.335 180.395 301.533C180.397 312.731 182.897 323.787 187.711 333.897C192.525 344.007 199.533 352.917 208.224 359.977C216.915 367.037 227.072 372.071 237.953 374.712C248.835 377.352 260.169 377.534 271.13 375.242C254.203 371.69 239.014 362.424 228.111 348.997C217.209 335.571 211.257 318.803 211.255 301.508Z" fill="#FF66A8"/>
<path d="M100.263 476.535C87.3437 476.536 74.7144 472.706 63.9721 465.529C53.2297 458.352 44.8569 448.15 39.9123 436.215C34.9678 424.279 33.6737 411.145 36.1936 398.474C38.7135 385.803 44.9344 374.164 54.0694 365.028C63.2044 355.893 74.8433 349.671 87.5142 347.15C100.185 344.63 113.319 345.923 125.255 350.867C137.191 355.811 147.393 364.183 154.57 374.925C161.748 385.667 165.579 398.296 165.579 411.215C165.579 428.538 158.698 445.152 146.449 457.402C134.2 469.652 117.586 476.534 100.263 476.535Z" fill="#FF9EC0"/>
<path d="M65.8487 411.215C65.851 396.58 70.7668 382.37 79.8083 370.862C88.8497 359.354 101.493 351.215 115.712 347.75C106.097 345.398 96.0732 345.262 86.398 347.352C76.7227 349.441 67.6488 353.702 59.8617 359.813C52.0745 365.923 45.7777 373.723 41.4468 382.624C37.1159 391.524 34.8642 401.293 34.8618 411.191C34.8594 421.09 37.1063 430.859 41.4328 439.762C45.7594 448.664 52.0524 456.468 59.8366 462.582C67.6207 468.696 76.6926 472.962 86.3668 475.056C96.041 477.15 106.065 477.019 115.681 474.672C101.469 471.201 88.8338 463.061 79.7985 451.555C70.7633 440.049 65.8511 425.844 65.8487 411.215Z" fill="#FF66A8"/>
<path d="M345.774 411.215C345.774 398.296 349.605 385.668 356.783 374.927C363.96 364.186 374.161 355.814 386.097 350.871C398.032 345.927 411.165 344.634 423.835 347.154C436.506 349.674 448.144 355.895 457.279 365.03C466.413 374.165 472.634 385.803 475.155 398.474C477.675 411.144 476.382 424.277 471.438 436.212C466.495 448.147 458.123 458.349 447.382 465.526C436.641 472.703 424.012 476.535 411.094 476.535C393.77 476.534 377.156 469.652 364.906 457.403C352.657 445.153 345.774 428.539 345.774 411.215Z" fill="#FF9EC0"/>
<path d="M376.681 411.215C376.684 396.58 381.601 382.369 390.643 370.862C399.685 359.354 412.329 351.215 426.548 347.75C416.935 345.409 406.915 345.282 397.245 347.379C387.576 349.476 378.509 353.743 370.73 359.856C362.95 365.97 356.661 373.771 352.337 382.671C348.014 391.571 345.768 401.336 345.771 411.231C345.773 421.125 348.023 430.89 352.351 439.787C356.679 448.685 362.972 456.483 370.755 462.593C378.537 468.703 387.606 472.965 397.277 475.057C406.947 477.15 416.967 477.018 426.579 474.672C412.362 471.201 399.719 463.063 390.673 451.559C381.627 440.055 376.7 425.85 376.681 411.215Z" fill="#FF66A8"/>
</svg>
