<svg width="513" height="512" viewBox="0 0 513 512" fill="none" xmlns="http://www.w3.org/2000/svg">
<path d="M511.919 256.542C511.919 397.628 397.548 511.999 256.462 511.999C115.376 511.999 1.00122 397.628 1.00122 256.542C1.00122 115.456 115.376 1.08105 256.462 1.08105C397.548 1.08105 511.919 115.456 511.919 256.542Z" fill="#FFDE55"/>
<path d="M52.4012 256.542C52.4012 124.128 153.146 15.2531 282.161 2.36205C273.708 1.51805 265.141 1.09105 256.461 1.08105C115.376 1.08105 1.00122 115.456 1.00122 256.542C1.00122 397.628 115.376 511.999 256.462 511.999C265.134 511.999 273.701 511.572 282.162 510.718C153.142 497.827 52.4012 388.952 52.4012 256.542Z" fill="#FFCD00"/>
<path d="M256.462 460.599C143.942 460.599 52.4012 369.058 52.4012 256.542C52.4012 144.026 143.942 52.4832 256.462 52.4832C368.982 52.4832 460.517 144.022 460.517 256.542C460.517 369.062 368.978 460.599 256.462 460.599Z" fill="#E2A77F"/>
<path d="M103.801 256.542C103.801 152.726 181.731 66.7721 282.16 54.0971C273.636 53.022 265.052 52.4833 256.46 52.4841C143.942 52.4831 52.4012 144.022 52.4012 256.542C52.4012 369.062 143.942 460.599 256.462 460.599C265.054 460.6 273.638 460.061 282.162 458.986C181.728 446.308 103.801 360.354 103.801 256.542Z" fill="#CE926A"/>
<path d="M192.185 445.96L65.9583 319.733L378.558 7.13315C380.697 4.99656 383.568 3.75259 386.589 3.65315L499.634 0.00714746C501.261 -0.0452486 502.881 0.236476 504.394 0.83491C505.907 1.43334 507.281 2.33577 508.432 3.48641C509.583 4.63704 510.485 6.01145 511.083 7.52466C511.682 9.03787 511.964 10.6577 511.911 12.2841L508.263 125.327C508.167 128.348 506.924 131.218 504.786 133.354L192.185 445.96Z" fill="#FEFEFE"/>
<path d="M386.22 120.319L381.92 4.78418C380.672 5.36708 379.534 6.16145 378.557 7.13218L65.9572 319.732L129.074 382.845L382.743 129.179C383.901 128.021 384.808 126.636 385.406 125.112C386.004 123.587 386.281 121.956 386.22 120.319Z" fill="#D1E7F8"/>
<path d="M9.71624 460.128L108.032 361.808L150.11 403.886L51.7902 502.199C46.1938 507.694 38.6539 510.757 30.8108 510.721C22.9676 510.686 15.4559 507.554 9.90968 502.009C4.3635 496.463 1.23161 488.951 1.19539 481.108C1.15916 473.265 4.22152 465.725 9.71624 460.128Z" fill="#3E3D42"/>
<path d="M30.7552 481.163L129.071 382.847L108.032 361.808L9.71621 460.128C6.02187 463.82 3.36486 468.42 2.01245 473.464C0.660037 478.509 0.659911 483.821 2.01208 488.866C3.36425 493.911 6.02104 498.51 9.71521 502.203C13.4094 505.895 18.0106 508.549 23.0562 509.898C21.7033 504.854 21.7026 499.543 23.0541 494.499C24.4056 489.454 27.0617 484.855 30.7552 481.163Z" fill="#2D2D30"/>
<path d="M178.814 474.667L37.2552 333.104C31.7087 327.518 28.6022 319.961 28.6163 312.089C28.6303 304.217 31.7637 296.671 37.3301 291.105C42.8965 285.539 50.4421 282.405 58.3141 282.391C66.1862 282.377 73.743 285.484 79.3292 291.03L220.888 432.589C226.468 438.168 229.603 445.736 229.603 453.627C229.604 461.517 226.47 469.085 220.89 474.665C215.311 480.245 207.743 483.38 199.853 483.38C191.962 483.381 184.394 480.246 178.814 474.667Z" fill="#57565C"/>
<path d="M66.3292 320.104C71.9088 314.525 79.4759 311.391 87.3662 311.391C95.2564 311.391 102.824 314.525 108.403 320.104L79.3292 291.03C73.743 285.484 66.1862 282.377 58.3141 282.391C50.4421 282.405 42.8965 285.539 37.3301 291.105C31.7637 296.671 28.6303 304.217 28.6163 312.089C28.6022 319.961 31.7087 327.518 37.2552 333.104L66.3292 362.179C60.75 356.599 57.6158 349.032 57.6158 341.142C57.6158 333.251 60.75 325.684 66.3292 320.104Z" fill="#3E3D42"/>
</svg>
