<svg width="512" height="512" viewBox="0 0 512 512" fill="none" xmlns="http://www.w3.org/2000/svg">
<path d="M403.137 384.688C403.117 450.388 338.696 469.797 259.237 469.778C179.778 469.759 115.359 450.309 115.379 384.613C115.399 318.917 179.832 202.484 259.3 202.5C338.768 202.516 403.152 318.992 403.137 384.688Z" fill="#B77344"/>
<path d="M339.27 460.3C245.114 467.046 216.34 394.382 216.34 354.456C216.34 314.53 231.371 255.483 279.867 255.733V205.113C273.145 203.399 266.237 202.521 259.3 202.5C179.835 202.48 115.4 318.914 115.382 384.609C115.364 450.304 179.777 469.75 259.237 469.769C288.855 469.785 316.387 467.09 339.27 460.3Z" fill="#A5663C"/>
<path d="M430.551 41.109C430.552 49.24 428.141 57.1885 423.624 63.9494C419.107 70.7103 412.686 75.9799 405.174 79.0918C397.663 82.2038 389.397 83.0183 381.422 81.4325C373.447 79.8466 366.121 75.9315 360.372 70.1823C354.622 64.4331 350.706 57.108 349.119 49.1333C347.533 41.1586 348.347 32.8926 351.458 25.3804C354.569 17.8681 359.838 11.4472 366.598 6.92956C373.359 2.4119 381.307 0.000395584 389.438 1.21822e-08C400.341 -0.000265225 410.798 4.33064 418.508 12.04C426.218 19.7494 430.55 30.2058 430.551 41.109Z" fill="#A5663C"/>
<path d="M170.2 41.109C170.2 49.2401 167.79 57.1887 163.272 63.9497C158.755 70.7106 152.335 75.9803 144.823 79.0921C137.311 82.204 129.044 83.0184 121.07 81.4322C113.095 79.8461 105.769 75.9307 100.02 70.1812C94.2699 64.4317 90.3543 57.1064 88.768 49.1315C87.1817 41.1566 87.9958 32.8904 91.1075 25.3783C94.2192 17.8661 99.4887 11.4454 106.25 6.92811C113.01 2.4108 120.959 -0.000197763 129.09 1.21667e-08C139.993 0.000530374 150.449 4.33178 158.158 12.0411C165.868 19.7504 170.199 30.2063 170.2 41.109Z" fill="#915B36"/>
<path d="M410.625 161.762C410.625 245.356 342.859 256 259.266 256C175.673 256 107.906 245.355 107.906 161.762C107.906 121.619 123.853 83.1199 152.238 54.7345C180.624 26.3491 219.123 10.4023 259.266 10.4023C299.409 10.4023 337.908 26.3491 366.293 54.7345C394.678 83.1199 410.625 121.619 410.625 161.762Z" fill="#B77344"/>
<path d="M149.113 161.762C149.115 125.188 162.358 89.851 186.394 62.2839C210.43 34.7169 243.634 16.7839 279.867 11.8001C258.451 8.86454 236.655 10.5488 215.945 16.7397C195.234 22.9306 176.09 33.4846 159.798 47.6918C143.507 61.899 130.447 79.4301 121.496 99.1059C112.545 118.782 107.911 140.146 107.906 161.762C107.906 245.355 175.672 256 259.266 256C266.254 256 273.133 255.922 279.866 255.738C206.023 253.707 149.113 238.367 149.113 161.762Z" fill="#A5663C"/>
<path d="M212.113 286.906C212.113 300.267 208.15 313.328 200.727 324.438C193.303 335.547 182.752 344.206 170.408 349.319C158.064 354.432 144.48 355.77 131.376 353.163C118.271 350.556 106.234 344.122 96.786 334.674C87.3381 325.226 80.904 313.189 78.2972 300.084C75.6905 286.98 77.0282 273.396 82.1411 261.052C87.2541 248.708 95.9128 238.157 107.022 230.733C118.132 223.31 131.193 219.347 144.554 219.347C153.426 219.347 162.211 221.094 170.408 224.489C178.605 227.884 186.053 232.86 192.326 239.134C198.6 245.407 203.576 252.855 206.971 261.052C210.366 269.249 212.113 278.034 212.113 286.906Z" fill="#D3874F"/>
<path d="M118.207 286.906C118.209 272.59 122.758 258.644 131.196 247.08C139.635 235.515 151.527 226.929 165.16 222.559C155.031 219.319 144.279 218.516 133.781 220.216C123.283 221.916 113.334 226.07 104.744 232.341C96.1548 238.612 89.167 246.822 84.3497 256.303C79.5323 265.785 77.0215 276.269 77.0215 286.904C77.0215 297.539 79.5323 308.024 84.3497 317.506C89.167 326.987 96.1548 335.197 104.744 341.468C113.334 347.739 123.283 351.893 133.781 353.593C144.279 355.293 155.031 354.49 165.16 351.25C151.528 346.88 139.635 338.294 131.197 326.73C122.758 315.166 118.21 301.221 118.207 286.906Z" fill="#B77344"/>
<path d="M212.113 444.445C212.113 457.806 208.15 470.868 200.727 481.977C193.303 493.086 182.752 501.745 170.408 506.858C158.064 511.971 144.48 513.309 131.376 510.702C118.271 508.095 106.234 501.661 96.786 492.213C87.3381 482.765 80.904 470.728 78.2972 457.623C75.6905 444.519 77.0282 430.935 82.1411 418.591C87.2541 406.247 95.9128 395.696 107.022 388.272C118.132 380.849 131.193 376.886 144.554 376.886C153.426 376.886 162.211 378.633 170.408 382.028C178.605 385.423 186.053 390.399 192.326 396.673C198.6 402.946 203.576 410.394 206.971 418.591C210.366 426.788 212.113 435.573 212.113 444.445Z" fill="#D3874F"/>
<path d="M118.207 444.445C118.21 430.129 122.758 416.184 131.197 404.62C139.635 393.056 151.528 384.47 165.16 380.1C155.031 376.86 144.279 376.057 133.781 377.757C123.283 379.457 113.334 383.611 104.744 389.882C96.1548 396.153 89.167 404.363 84.3497 413.844C79.5323 423.326 77.0215 433.81 77.0215 444.445C77.0215 455.08 79.5323 465.565 84.3497 475.047C89.167 484.528 96.1548 492.738 104.744 499.009C113.334 505.28 123.283 509.434 133.781 511.134C144.279 512.834 155.031 512.031 165.16 508.791C151.527 504.421 139.635 495.835 131.196 484.271C122.758 472.706 118.209 458.761 118.207 444.445Z" fill="#B77344"/>
<path d="M434.043 286.906C434.043 300.267 430.08 313.328 422.657 324.438C415.234 335.547 404.683 344.206 392.338 349.319C379.994 354.432 366.411 355.77 353.306 353.163C340.201 350.556 328.164 344.122 318.716 334.674C309.268 325.226 302.834 313.189 300.227 300.084C297.621 286.98 298.958 273.396 304.071 261.052C309.184 248.708 317.843 238.157 328.952 230.733C340.062 223.31 353.123 219.347 366.484 219.347C375.356 219.347 384.141 221.094 392.338 224.489C400.535 227.884 407.983 232.86 414.256 239.134C420.53 245.407 425.506 252.855 428.901 261.052C432.296 269.249 434.043 278.034 434.043 286.906Z" fill="#D3874F"/>
<path d="M434.043 444.445C434.043 457.806 430.08 470.868 422.657 481.977C415.234 493.086 404.683 501.745 392.338 506.858C379.994 511.971 366.411 513.309 353.306 510.702C340.201 508.095 328.164 501.661 318.716 492.213C309.268 482.765 302.834 470.728 300.227 457.623C297.621 444.519 298.958 430.935 304.071 418.591C309.184 406.247 317.843 395.696 328.952 388.272C340.062 380.849 353.123 376.886 366.484 376.886C375.356 376.886 384.141 378.633 392.338 382.028C400.535 385.423 407.983 390.399 414.256 396.673C420.53 402.946 425.506 410.394 428.901 418.591C432.296 426.788 434.043 435.573 434.043 444.445Z" fill="#D3874F"/>
<path d="M324.875 135.492C322.886 135.492 320.978 134.702 319.572 133.295C318.165 131.889 317.375 129.981 317.375 127.992V116.3C317.375 114.311 318.165 112.403 319.572 110.997C320.978 109.59 322.886 108.8 324.875 108.8C326.864 108.8 328.772 109.59 330.178 110.997C331.585 112.403 332.375 114.311 332.375 116.3V128C332.373 129.988 331.582 131.893 330.175 133.298C328.769 134.703 326.863 135.492 324.875 135.492Z" fill="#1D1D1F"/>
<path d="M193.652 135.492C191.663 135.492 189.755 134.702 188.349 133.295C186.942 131.889 186.152 129.981 186.152 127.992V116.3C186.152 114.311 186.942 112.403 188.349 110.997C189.755 109.59 191.663 108.8 193.652 108.8C195.641 108.8 197.549 109.59 198.955 110.997C200.362 112.403 201.152 114.311 201.152 116.3V128C201.15 129.988 200.359 131.893 198.952 133.298C197.546 134.703 195.64 135.492 193.652 135.492Z" fill="#1D1D1F"/>
<path d="M330.727 157.605H319.027C317.038 157.605 315.13 156.815 313.724 155.408C312.317 154.002 311.527 152.094 311.527 150.105C311.527 148.116 312.317 146.208 313.724 144.802C315.13 143.395 317.038 142.605 319.027 142.605H330.727C332.716 142.605 334.624 143.395 336.03 144.802C337.437 146.208 338.227 148.116 338.227 150.105C338.227 152.094 337.437 154.002 336.03 155.408C334.624 156.815 332.716 157.605 330.727 157.605Z" fill="#FEFEFE"/>
<path d="M199.5 157.605H187.8C185.811 157.605 183.904 156.815 182.497 155.408C181.09 154.002 180.3 152.094 180.3 150.105C180.3 148.116 181.09 146.208 182.497 144.802C183.904 143.395 185.811 142.605 187.8 142.605H199.5C201.489 142.605 203.397 143.395 204.804 144.802C206.21 146.208 207 148.116 207 150.105C207 152.094 206.21 154.002 204.804 155.408C203.397 156.815 201.489 157.605 199.5 157.605Z" fill="#FEFEFE"/>
<path d="M284.273 187.3C275.146 187.327 266.298 184.156 259.265 178.339C252.23 184.156 243.381 187.327 234.253 187.3C232.264 187.3 230.356 186.51 228.95 185.103C227.543 183.697 226.753 181.789 226.753 179.8C226.753 177.811 227.543 175.903 228.95 174.497C230.356 173.09 232.264 172.3 234.253 172.3C237.453 172.308 240.624 171.682 243.58 170.458C246.537 169.234 249.222 167.435 251.48 165.167L253.96 162.683C255.366 161.277 257.274 160.487 259.262 160.487C261.251 160.487 263.158 161.277 264.565 162.683L267.049 165.163C269.305 167.432 271.989 169.231 274.946 170.457C277.902 171.682 281.072 172.308 284.272 172.3C286.261 172.3 288.169 173.09 289.575 174.497C290.982 175.903 291.772 177.811 291.772 179.8C291.772 181.789 290.982 183.697 289.575 185.103C288.169 186.51 286.261 187.3 284.272 187.3H284.273Z" fill="#915B36"/>
<path d="M259.266 175.492C257.277 175.492 255.369 174.702 253.963 173.295C252.556 171.889 251.766 169.981 251.766 167.992V142.192C251.766 140.203 252.556 138.295 253.963 136.889C255.369 135.482 257.277 134.692 259.266 134.692C261.255 134.692 263.163 135.482 264.569 136.889C265.976 138.295 266.766 140.203 266.766 142.192V167.992C266.766 169.981 265.976 171.889 264.569 173.295C263.163 174.702 261.255 175.492 259.266 175.492Z" fill="#915B36"/>
<path d="M288.934 112.516C288.934 120.385 285.808 127.932 280.244 133.496C274.68 139.06 267.133 142.186 259.264 142.186C251.395 142.186 243.849 139.06 238.284 133.496C232.72 127.932 229.594 120.385 229.594 112.516C229.594 96.1329 242.879 96.9069 259.266 96.9069C275.653 96.9069 288.934 96.1329 288.934 112.516Z" fill="#57565C"/>
<path d="M250.2 112.516C250.2 99.7541 258.263 97.4031 269.567 96.9891C266.36 96.8681 262.887 96.9071 259.267 96.9071C242.88 96.9071 229.595 96.1301 229.595 112.516C229.597 117.299 230.755 122.011 232.971 126.251C235.186 130.49 238.393 134.131 242.318 136.864C246.243 139.598 250.771 141.342 255.516 141.948C260.26 142.555 265.081 142.006 269.568 140.348C263.884 138.242 258.982 134.445 255.519 129.47C252.057 124.494 250.201 118.578 250.2 112.516Z" fill="#3E3D42"/>
</svg>
