<svg width="513" height="512" viewBox="0 0 513 512" fill="none" xmlns="http://www.w3.org/2000/svg">
<path d="M507.719 271.1L446.352 140.824C444.482 136.852 441.521 133.494 437.814 131.142C434.107 128.791 429.808 127.542 425.418 127.543H357.293C351.156 127.543 345.27 125.105 340.93 120.766L284.93 64.766C282.784 62.6205 280.237 60.9186 277.433 59.7577C274.629 58.5968 271.624 57.9995 268.59 58H121.879C118.843 58 115.838 58.598 113.033 59.7598C110.229 60.9215 107.681 62.6244 105.534 64.7711C103.388 66.9177 101.686 69.4661 100.524 72.2708C99.3629 75.0755 98.7655 78.0814 98.766 81.117V102.347L261.656 278.219L306.386 295.86H492.016C494.941 295.859 497.818 295.12 500.38 293.71C502.943 292.301 505.108 290.267 506.674 287.797C508.24 285.327 509.157 282.501 509.34 279.583C509.523 276.664 508.965 273.746 507.719 271.1Z" fill="#FFB258"/>
<path d="M247.707 379.734H352.637L427.668 284.1H172.676L247.707 379.734Z" fill="#324761"/>
<path d="M199.387 114.18C197.837 110.66 195.297 107.668 192.076 105.567C188.855 103.466 185.092 102.348 181.246 102.348H58.1131C55.5103 102.348 52.9329 102.86 50.5281 103.856C48.1234 104.852 45.9384 106.312 44.0979 108.153C42.2575 109.993 40.7975 112.178 39.8015 114.583C38.8055 116.988 38.293 119.565 38.2931 122.168V219.6L104.418 236.67L245.818 219.6L199.387 114.18Z" fill="#485B73"/>
<path d="M245.82 219.594H37.422C35.2859 219.594 33.1706 220.014 31.197 220.832C29.2234 221.649 27.4301 222.847 25.9196 224.358C24.4091 225.868 23.211 227.661 22.3936 229.635C21.5763 231.609 21.1557 233.724 21.156 235.86V336.844H40.82C44.581 336.837 48.2882 335.95 51.6445 334.253C55.0009 332.556 57.9131 330.096 60.148 327.071L93.484 281.747C99.4724 273.638 107.277 267.044 116.272 262.495C125.268 257.945 135.204 255.565 145.284 255.547H261.656L245.82 219.594Z" fill="#324761"/>
<path d="M157.891 140.738C156.823 138.313 155.072 136.251 152.853 134.803C150.634 133.355 148.041 132.583 145.391 132.582H82.1911C78.5672 132.582 75.0917 134.022 72.5292 136.584C69.9667 139.147 68.5271 142.622 68.5271 146.246V189.359H179.309L157.891 140.738Z" fill="#6DD1E0"/>
<path d="M513 369.434C513 386.311 507.995 402.809 498.618 416.841C489.241 430.874 475.914 441.811 460.322 448.269C444.729 454.727 427.572 456.417 411.019 453.124C394.467 449.831 379.262 441.704 367.329 429.77C355.395 417.836 347.268 402.632 343.976 386.079C340.683 369.526 342.373 352.369 348.832 336.776C355.29 321.184 366.228 307.857 380.26 298.481C394.293 289.105 410.791 284.1 427.668 284.1C438.874 284.1 449.971 286.307 460.324 290.595C470.677 294.884 480.084 301.169 488.008 309.093C495.932 317.017 502.218 326.425 506.506 336.778C510.794 347.131 513.001 358.228 513 369.434Z" fill="#485B73"/>
<path d="M464.621 369.434C464.621 376.743 462.453 383.888 458.392 389.965C454.331 396.042 448.559 400.778 441.806 403.575C435.053 406.371 427.623 407.103 420.455 405.677C413.286 404.25 406.701 400.73 401.534 395.562C396.366 390.393 392.846 383.808 391.421 376.64C389.995 369.471 390.727 362.041 393.525 355.288C396.322 348.536 401.059 342.764 407.137 338.704C413.214 334.644 420.359 332.477 427.668 332.477C432.521 332.477 437.326 333.433 441.81 335.291C446.293 337.148 450.367 339.871 453.799 343.302C457.23 346.734 459.952 350.808 461.809 355.292C463.666 359.776 464.621 364.581 464.621 369.434Z" fill="#DADADC"/>
<path d="M453.293 241.145L417.593 165.368C416.701 163.474 415.289 161.872 413.521 160.75C411.753 159.628 409.703 159.032 407.609 159.032H276.382C274.546 159.033 272.739 159.491 271.125 160.366C269.51 161.241 268.14 162.505 267.137 164.043C266.134 165.581 265.531 167.345 265.382 169.175C265.232 171.005 265.542 172.844 266.282 174.524L283.482 213.567C284.272 215.36 285.566 216.884 287.207 217.954C288.848 219.024 290.765 219.594 292.724 219.594H328.275C330.233 219.595 332.149 220.165 333.789 221.235C335.43 222.305 336.723 223.829 337.513 225.621L348.036 249.516C348.827 251.308 350.121 252.832 351.762 253.902C353.403 254.972 355.319 255.542 357.278 255.543H444.16C445.86 255.542 447.533 255.111 449.023 254.292C450.513 253.472 451.771 252.289 452.682 250.853C453.593 249.417 454.126 247.774 454.233 246.077C454.34 244.38 454.017 242.684 453.293 241.145Z" fill="#FFE675"/>
<path d="M40.82 377.16H21.156C15.8098 377.16 10.6825 375.036 6.90219 371.256C3.12183 367.475 0.998047 362.348 0.998047 357.002C0.998047 351.656 3.12183 346.528 6.90219 342.748C10.6825 338.968 15.8098 336.844 21.156 336.844H40.82C44.5811 336.837 48.2882 335.95 51.6445 334.253C55.0009 332.555 57.9132 330.096 60.148 327.071L93.484 281.747C99.4724 273.638 107.277 267.044 116.272 262.495C125.268 257.945 135.204 255.565 145.284 255.547H306.384C311.73 255.547 316.858 257.671 320.638 261.451C324.418 265.231 326.542 270.359 326.542 275.705C326.542 281.051 324.418 286.178 320.638 289.959C316.858 293.739 311.73 295.863 306.384 295.863H145.284C141.523 295.869 137.816 296.756 134.459 298.454C131.103 300.151 128.191 302.611 125.956 305.636L92.621 350.957C86.6326 359.066 78.8279 365.66 69.8325 370.21C60.837 374.761 50.9009 377.141 40.82 377.16Z" fill="#FFE675"/>
<path d="M258.008 369.434C258.008 386.312 253.003 402.81 243.626 416.843C234.25 430.876 220.922 441.814 205.329 448.273C189.737 454.731 172.579 456.421 156.025 453.128C139.472 449.835 124.267 441.708 112.333 429.774C100.399 417.839 92.2718 402.634 88.9794 386.081C85.687 369.527 87.3772 352.37 93.8362 336.777C100.295 321.184 111.233 307.857 125.266 298.48C139.3 289.104 155.798 284.1 172.676 284.1C183.882 284.1 194.978 286.308 205.331 290.596C215.684 294.885 225.091 301.17 233.015 309.094C240.939 317.018 247.225 326.425 251.513 336.779C255.801 347.132 258.008 358.228 258.008 369.434Z" fill="#485B73"/>
<path d="M209.629 369.434C209.629 376.743 207.461 383.888 203.4 389.965C199.339 396.042 193.567 400.778 186.814 403.575C180.061 406.371 172.631 407.103 165.462 405.677C158.294 404.25 151.709 400.73 146.541 395.562C141.373 390.393 137.854 383.808 136.429 376.64C135.003 369.471 135.735 362.041 138.533 355.288C141.33 348.536 146.067 342.764 152.145 338.704C158.222 334.644 165.367 332.477 172.676 332.477C177.529 332.477 182.334 333.433 186.818 335.291C191.301 337.148 195.375 339.871 198.807 343.302C202.238 346.734 204.96 350.808 206.817 355.292C208.674 359.776 209.629 364.581 209.629 369.434Z" fill="#DADADC"/>
</svg>
