<svg width="512" height="512" viewBox="0 0 512 512" fill="none" xmlns="http://www.w3.org/2000/svg">
<path d="M82.047 260.586C42.512 245.625 15.66 205.328 14.535 203.621L42.156 185.414C42.375 185.742 64.383 218.531 93.75 229.644L82.047 260.586Z" fill="#FFB258"/>
<path d="M461.422 194.438C448.624 159.695 425.479 129.712 395.109 108.534C364.738 87.3562 328.604 76.0015 291.578 76.0015C254.553 76.0015 218.419 87.3562 188.048 108.534C157.678 129.712 134.533 159.695 121.735 194.438L291.579 224.532L461.422 194.438Z" fill="#DADADC"/>
<path d="M291.578 250.941L119.961 289.379V351.707L136.961 406.793C139.644 415.489 145.043 423.097 152.366 428.501C159.689 433.905 168.551 436.82 177.652 436.82H405.5C414.601 436.82 423.463 433.905 430.786 428.501C438.109 423.097 443.508 415.489 446.191 406.793L463.191 351.707V295.68L291.578 250.941Z" fill="#FF6881"/>
<path d="M119.961 289.379V351.707L127.91 377.461H173.945C187.71 377.492 201.261 374.051 213.345 367.458C225.429 360.864 235.655 351.33 243.078 339.738L264.586 306.316C265.187 305.376 266.016 304.602 266.996 304.068C267.976 303.533 269.075 303.254 270.191 303.257H312.972C314.088 303.255 315.186 303.534 316.166 304.069C317.146 304.604 317.975 305.376 318.577 306.316L340.077 339.738C347.5 351.33 357.726 360.864 369.81 367.458C381.893 374.051 395.444 377.492 409.21 377.461H455.237L463.186 351.707V295.68L291.578 250.941L119.961 289.379Z" fill="#DE4B64"/>
<path d="M270.605 134.18L261.168 116.856C260.184 115.057 258.617 113.647 256.726 112.855C254.834 112.064 252.73 111.939 250.758 112.5C243.958 114.415 237.303 116.813 230.844 119.676C229.698 120.177 228.668 120.911 227.82 121.83C226.972 122.75 226.323 123.836 225.916 125.018C225.509 126.201 225.352 127.456 225.454 128.703C225.557 129.95 225.917 131.162 226.512 132.262L235.66 149.062C236.731 151.049 238.503 152.565 240.631 153.317C242.759 154.069 245.091 154.001 247.172 153.128C252.897 150.672 258.818 148.7 264.872 147.233C266.209 146.902 267.452 146.268 268.505 145.381C269.559 144.494 270.394 143.377 270.948 142.116C271.502 140.855 271.759 139.484 271.7 138.108C271.64 136.732 271.266 135.388 270.605 134.18Z" fill="#324761"/>
<path d="M198.313 174.449L180.094 166.867C178.202 166.083 176.1 165.964 174.132 166.531C172.164 167.098 170.446 168.317 169.262 169.988C165.162 175.74 161.476 181.777 158.231 188.051C157.648 189.16 157.302 190.378 157.215 191.627C157.128 192.877 157.302 194.131 157.725 195.31C158.148 196.489 158.811 197.567 159.673 198.476C160.535 199.385 161.576 200.105 162.731 200.59L180.493 207.985C182.579 208.844 184.911 208.893 187.031 208.122C189.151 207.351 190.907 205.815 191.954 203.817C194.874 198.352 198.239 193.137 202.013 188.223C202.849 187.128 203.423 185.855 203.69 184.503C203.957 183.151 203.91 181.756 203.552 180.425C203.195 179.095 202.536 177.864 201.628 176.828C200.72 175.791 199.585 174.978 198.313 174.449Z" fill="#324761"/>
<path d="M352.313 119.676C345.852 116.814 339.196 114.416 332.395 112.5C330.423 111.939 328.319 112.065 326.429 112.857C324.538 113.649 322.972 115.06 321.989 116.859L312.552 134.183C311.89 135.391 311.515 136.735 311.456 138.111C311.396 139.487 311.653 140.859 312.207 142.12C312.761 143.381 313.597 144.498 314.651 145.384C315.705 146.271 316.949 146.904 318.286 147.234C324.337 148.701 330.255 150.673 335.977 153.129C338.06 154.002 340.393 154.07 342.522 153.317C344.652 152.565 346.425 151.047 347.497 149.059L356.642 132.259C357.237 131.159 357.597 129.947 357.699 128.701C357.802 127.454 357.645 126.2 357.238 125.018C356.831 123.835 356.183 122.75 355.335 121.83C354.488 120.911 353.459 120.177 352.313 119.676Z" fill="#324761"/>
<path d="M424.93 188.055C421.681 181.781 417.994 175.744 413.895 169.989C412.71 168.318 410.993 167.1 409.025 166.533C407.057 165.966 404.955 166.084 403.063 166.868L384.852 174.45C383.58 174.979 382.446 175.792 381.537 176.828C380.629 177.865 379.971 179.095 379.613 180.426C379.256 181.757 379.209 183.152 379.475 184.504C379.742 185.855 380.316 187.128 381.152 188.223C384.927 193.136 388.292 198.352 391.211 203.817C392.259 205.815 394.016 207.35 396.136 208.121C398.257 208.892 400.589 208.844 402.676 207.985L420.43 200.59C421.584 200.105 422.625 199.385 423.487 198.476C424.348 197.568 425.012 196.49 425.435 195.311C425.858 194.133 426.031 192.879 425.944 191.63C425.858 190.381 425.512 189.164 424.93 188.055Z" fill="#324761"/>
<path d="M475.926 194.438H107.23C97.6628 194.439 88.4875 198.239 81.7224 205.004C74.9573 211.769 71.1565 220.945 71.156 230.512V302.912C71.156 315.855 76.2974 328.267 85.4492 337.419C94.601 346.571 107.013 351.712 119.956 351.712H173.94C183.389 351.713 192.687 349.342 200.982 344.817C209.276 340.292 216.303 333.757 221.417 325.812L242.917 292.386C245.854 287.82 249.89 284.065 254.655 281.464C259.42 278.863 264.762 277.5 270.191 277.5H312.972C318.398 277.5 323.738 278.862 328.502 281.461C333.265 284.06 337.301 287.812 340.238 292.375L361.738 325.801C366.852 333.746 373.877 340.28 382.172 344.805C390.466 349.33 399.763 351.701 409.211 351.701H463.2C476.143 351.701 488.555 346.56 497.707 337.408C506.859 328.256 512 315.844 512 302.901V230.501C511.997 220.936 508.194 211.763 501.43 205.001C494.665 198.238 485.491 194.439 475.926 194.438Z" fill="#ECECEE"/>
<path d="M122.16 231.41H206.527C209.296 231.41 212.013 232.161 214.389 233.583C216.764 235.005 218.71 237.044 220.019 239.484C221.328 241.924 221.951 244.673 221.822 247.439C221.693 250.205 220.816 252.884 219.285 255.191L190.328 304.945C188.296 308.005 185.538 310.515 182.301 312.252C179.063 313.988 175.447 314.897 171.773 314.898H129.117C123.211 314.897 117.547 312.551 113.37 308.375C109.194 304.198 106.848 298.534 106.847 292.628V246.723C106.847 244.712 107.243 242.721 108.012 240.863C108.782 239.005 109.91 237.317 111.332 235.895C112.754 234.473 114.442 233.345 116.3 232.575C118.158 231.806 120.149 231.41 122.16 231.41Z" fill="#485B73"/>
<path d="M461 231.41H376.629C373.86 231.41 371.143 232.161 368.767 233.583C366.392 235.005 364.446 237.044 363.137 239.484C361.828 241.924 361.205 244.673 361.334 247.439C361.463 250.205 362.34 252.884 363.871 255.191L392.828 304.945C394.86 308.005 397.618 310.515 400.855 312.252C404.093 313.988 407.709 314.897 411.383 314.898H454.035C459.942 314.898 465.606 312.552 469.783 308.375C473.96 304.199 476.307 298.535 476.308 292.628V246.723C476.308 242.662 474.696 238.768 471.825 235.896C468.954 233.025 465.06 231.411 461 231.41Z" fill="#485B73"/>
<path d="M56.711 194.531C56.711 200.139 55.048 205.621 51.9324 210.284C48.8167 214.947 44.3883 218.581 39.2072 220.728C34.0261 222.874 28.3249 223.435 22.8246 222.341C17.3243 221.247 12.2719 218.547 8.30633 214.581C4.34077 210.616 1.64014 205.564 0.545945 200.063C-0.548252 194.563 0.0131288 188.862 2.1591 183.681C4.30507 178.5 7.93924 174.071 12.6021 170.955C17.2649 167.839 22.7469 166.176 28.355 166.176C32.0788 166.176 35.7663 166.909 39.2067 168.333C42.6472 169.758 45.7733 171.847 48.4065 174.48C51.0397 177.113 53.1284 180.239 54.5533 183.679C55.9782 187.12 56.7114 190.807 56.711 194.531Z" fill="#FFE675"/>
</svg>
