<svg width="512" height="512" viewBox="0 0 512 512" fill="none" xmlns="http://www.w3.org/2000/svg">
<path d="M332.5 51.02H109.863C90.8978 51.0201 72.6871 58.4472 59.1315 71.7103C45.576 84.9735 37.7536 103.018 37.34 121.978C36.9265 140.938 43.9546 159.307 56.919 173.148C69.8833 186.99 87.7528 195.204 106.7 196.031L106.364 196.109L218.579 216.269L328.786 196.109H332.5C351.74 196.109 370.192 188.466 383.797 174.861C397.401 161.256 405.045 142.804 405.045 123.564C405.045 104.324 397.401 85.8718 383.797 72.267C370.192 58.6622 351.74 51.019 332.5 51.019V51.02Z" fill="#FFE675"/>
<path d="M211.215 427.258H130.047C125.92 427.225 121.974 425.563 119.068 422.633C116.161 419.703 114.531 415.744 114.531 411.617C114.531 407.491 116.161 403.531 119.068 400.602C121.974 397.672 125.92 396.01 130.047 395.977H211.215C214.716 395.968 218.142 394.966 221.096 393.086C224.05 391.207 226.409 388.527 227.9 385.359L259.041 318.789C259.911 316.928 261.139 315.257 262.655 313.872C264.171 312.486 265.945 311.412 267.876 310.712C269.807 310.011 271.857 309.698 273.909 309.79C275.961 309.882 277.975 310.378 279.836 311.248C281.696 312.118 283.367 313.346 284.753 314.862C286.139 316.378 287.213 318.153 287.913 320.084C288.613 322.015 288.926 324.065 288.834 326.117C288.742 328.169 288.247 330.182 287.377 332.043L256.236 398.617C252.212 407.163 245.846 414.392 237.876 419.462C229.906 424.532 220.66 427.236 211.215 427.258Z" fill="#91DAFF"/>
<path d="M466.633 155.094C460.307 155.094 454.105 156.845 448.713 160.152C443.321 163.459 438.949 168.194 436.082 173.832L424.754 196.109L456.219 208.625L487.684 196.109V176.145C487.683 170.562 485.465 165.208 481.518 161.26C477.57 157.312 472.216 155.094 466.633 155.094Z" fill="#73BBDF"/>
<path d="M487.684 196.109H453.949L433.1 240.43L453.952 284.746H487.686C494.134 284.745 500.319 282.183 504.878 277.623C509.438 273.063 512 266.879 512 260.43V220.43C512 217.236 511.372 214.074 510.15 211.123C508.928 208.173 507.137 205.491 504.879 203.233C502.621 200.974 499.94 199.183 496.99 197.961C494.04 196.738 490.877 196.109 487.684 196.109Z" fill="#FF6881"/>
<path d="M137.266 196.109L137.606 196.031C118.655 195.21 100.78 186.998 87.811 173.156C74.842 159.314 67.8111 140.942 68.2249 121.979C68.6387 103.015 76.4642 84.9674 90.0246 71.704C103.585 58.4407 121.801 51.0167 140.77 51.023H109.863C90.8943 51.017 72.6782 58.4412 59.1181 71.7046C45.5579 84.968 37.7325 103.015 37.3189 121.979C36.9052 140.943 43.9362 159.314 56.9051 173.156C69.8741 186.998 87.749 195.21 106.7 196.031L106.364 196.109L218.579 216.273L233.892 213.473L137.266 196.109Z" fill="#FFCB5D"/>
<path d="M134.273 39H118.383C115.194 39.0005 112.137 40.2675 109.883 42.5222C107.628 44.7769 106.362 47.8347 106.363 51.023V196.109L126.328 208.625L146.3 196.109V51.02C146.299 49.441 145.988 47.8775 145.383 46.4188C144.779 44.9602 143.893 43.6349 142.776 42.5187C141.659 41.4025 140.333 40.5172 138.874 39.9135C137.415 39.3098 135.852 38.9993 134.273 39Z" fill="#73BBDF"/>
<path d="M316.762 39H300.871C297.682 39.0005 294.625 40.2675 292.371 42.5222C290.117 44.7769 288.85 47.8347 288.851 51.023V196.109L308.816 208.625L328.785 196.109V51.02C328.784 47.8317 327.517 44.7743 325.262 42.5201C323.008 40.2659 319.95 38.9997 316.762 39Z" fill="#73BBDF"/>
<path d="M218.582 338.051C218.582 344.881 216.556 351.558 212.761 357.238C208.967 362.917 203.573 367.343 197.263 369.957C190.952 372.571 184.008 373.255 177.309 371.923C170.61 370.59 164.456 367.301 159.627 362.471C154.797 357.641 151.508 351.488 150.175 344.789C148.843 338.089 149.527 331.146 152.14 324.835C154.754 318.525 159.181 313.131 164.86 309.336C170.539 305.542 177.216 303.516 184.047 303.516C193.206 303.516 201.99 307.155 208.466 313.631C214.943 320.108 218.581 328.892 218.582 338.051Z" fill="#FF6881"/>
<path d="M189.387 395.977H130.047C125.92 396.01 121.974 397.672 119.068 400.602C116.161 403.532 114.531 407.491 114.531 411.618C114.531 415.744 116.161 419.704 119.068 422.633C121.974 425.563 125.92 427.225 130.047 427.258H177.375L189.387 395.977Z" fill="#73BBDF"/>
<path d="M279.832 311.246C277.971 310.375 275.958 309.88 273.906 309.788C271.854 309.696 269.804 310.008 267.873 310.708C265.943 311.409 264.169 312.482 262.653 313.868C261.137 315.254 259.909 316.924 259.039 318.785L237.98 363.809H272.515L287.374 332.043C289.131 328.285 289.323 323.983 287.909 320.083C286.495 316.183 283.589 313.004 279.832 311.246Z" fill="#73BBDF"/>
<path d="M453.949 196.109V284.746H412.332C402.6 284.751 393.024 287.193 384.478 291.849C375.932 296.505 368.688 303.226 363.406 311.4C358.126 319.576 350.882 326.298 342.335 330.954C333.789 335.61 324.212 338.05 314.48 338.052H203.6C197.843 338.051 192.222 339.796 187.479 343.057C182.735 346.317 179.091 350.94 177.03 356.314L139.53 453.959C137.44 459.399 133.749 464.078 128.946 467.379C124.143 470.68 118.452 472.447 112.624 472.447H41.9406C37.2643 472.446 32.6583 471.308 28.52 469.131C24.3817 466.953 20.8354 463.801 18.1871 459.947C15.5387 456.093 13.8679 451.652 13.3187 447.008C12.7694 442.364 13.3583 437.656 15.0346 433.291L51.6166 338.053C52.8208 334.918 53.7347 331.679 54.3466 328.377C54.9556 325.072 55.2628 321.718 55.2646 318.357C55.2683 308.498 52.6174 298.82 47.5903 290.338C42.5632 281.857 35.3453 274.886 26.6946 270.157L19.4056 266.157C12.1377 262.177 6.40112 255.891 3.10032 248.291C-0.200479 240.691 -0.877754 232.208 1.17528 224.18C3.22831 216.152 7.89486 209.036 14.4392 203.953C20.9835 198.871 29.0334 196.111 37.3196 196.109H453.949Z" fill="#91DAFF"/>
<path d="M132.594 318.355H104.438C101.125 318.371 97.9311 319.594 95.4548 321.795C92.9785 323.996 91.3893 327.024 90.9846 330.312C90.0457 337.439 88.2666 344.431 85.6846 351.14L60.2546 417.351C59.4582 419.424 59.1782 421.66 59.4388 423.866C59.6994 426.072 60.4927 428.181 61.7503 430.012C63.0079 431.843 64.6921 433.34 66.6575 434.375C68.6229 435.409 70.8105 435.95 73.0316 435.951H97.9446C100.712 435.951 103.415 435.112 105.696 433.544C107.977 431.976 109.73 429.754 110.722 427.17L145.37 336.951C146.167 334.878 146.447 332.642 146.187 330.436C145.927 328.23 145.133 326.121 143.876 324.291C142.618 322.46 140.934 320.963 138.968 319.929C137.002 318.895 134.815 318.355 132.594 318.355Z" fill="#FFE675"/>
<path d="M146.3 51.02H177.874V196.11H146.3V51.02Z" fill="#FFCB5D"/>
<path d="M360.359 56.5741C351.531 52.8979 342.062 51.0101 332.5 51.0201H328.785V196.11H332.5C342.062 196.12 351.53 194.233 360.359 190.559V56.5741Z" fill="#FFCB5D"/>
</svg>
