<svg width="512" height="512" viewBox="0 0 512 512" fill="none" xmlns="http://www.w3.org/2000/svg">
<path d="M445.09 114.023C423.241 115.473 401.304 113.165 380.235 107.199C351.435 99.2848 324.098 84.4718 297.665 70.1479C251.228 44.9799 207.365 21.2108 158.282 33.8358C130.934 40.8708 107.501 57.4058 93.989 79.2068C82.648 97.4998 71.8 129.715 84.488 179.289C84.9951 181.22 85.1153 183.232 84.8417 185.21C84.5681 187.188 83.9061 189.092 82.8937 190.813C81.8814 192.534 80.5387 194.038 78.943 195.238C77.3472 196.438 75.5299 197.31 73.5957 197.805C71.6614 198.3 69.6483 198.408 67.6723 198.122C65.6963 197.836 63.7963 197.162 62.0818 196.139C60.3673 195.115 58.872 193.763 57.682 192.16C56.492 190.557 55.6308 188.734 55.148 186.797C46.687 153.731 42.089 105.461 68.248 63.2539C86.09 34.4649 115.387 13.5999 150.734 4.50785C211.334 -11.0861 262.558 16.6758 312.093 43.5238C338.172 57.6558 362.8 70.9998 388.258 77.9998C402.425 81.9791 417.056 84.0662 431.77 84.2068L445.09 114.023Z" fill="#ECECEE"/>
<path d="M48.727 145.156C49.4615 159.218 51.6141 173.17 55.152 186.8C55.6359 188.736 56.4978 190.557 57.688 192.158C58.8782 193.76 60.3732 195.111 62.0871 196.133C63.8011 197.155 65.7001 197.828 67.675 198.113C69.65 198.398 71.6618 198.291 73.595 197.796C75.5281 197.301 77.3444 196.429 78.9394 195.23C80.5344 194.031 81.8766 192.528 82.889 190.809C83.9013 189.089 84.5637 187.186 84.8381 185.21C85.1125 183.233 84.9935 181.222 84.488 179.292C78.375 155.409 77.734 135.569 79.972 119.362C68.8226 127.029 58.3675 135.66 48.727 145.156Z" fill="#DADADC"/>
<path d="M412.91 308.547C412.91 420.91 321.82 512 209.453 512C97.086 512 6 420.91 6 308.547C6 196.184 97.09 105.09 209.453 105.09C321.816 105.09 412.91 196.18 412.91 308.547Z" fill="#91DAFF"/>
<path d="M371.176 308.547C371.176 340.532 361.691 371.799 343.92 398.393C326.15 424.988 300.893 445.716 271.342 457.956C241.791 470.196 209.275 473.398 177.904 467.158C146.534 460.918 117.718 445.516 95.101 422.899C72.484 400.282 57.0816 371.466 50.8415 340.095C44.6014 308.725 47.8039 276.208 60.0439 246.658C72.2839 217.107 93.0118 191.85 119.606 174.079C146.201 156.309 177.468 146.824 209.453 146.824C252.345 146.824 293.48 163.862 323.808 194.191C354.137 224.52 371.176 265.655 371.176 308.547Z" fill="#FF6881"/>
<path d="M78.637 308.547C78.6393 268.331 93.6242 229.559 120.668 199.794C147.712 170.03 184.875 151.408 224.907 147.563C219.821 147.083 214.669 146.825 209.454 146.825C166.632 146.931 125.601 164.017 95.3587 194.334C65.1166 224.652 48.1332 265.726 48.1332 308.547C48.1332 351.369 65.1166 392.443 95.3587 422.761C125.601 453.078 166.632 470.163 209.454 470.27C214.669 470.27 219.821 470.012 224.907 469.528C184.876 465.684 147.712 447.063 120.668 417.299C93.6241 387.535 78.6391 348.762 78.637 308.547Z" fill="#DE4B64"/>
<path d="M308.75 269.746L250.809 261.328L224.899 208.828C223.477 205.946 221.277 203.519 218.548 201.823C215.819 200.126 212.669 199.227 209.456 199.227C206.242 199.227 203.092 200.126 200.363 201.823C197.634 203.519 195.434 205.946 194.012 208.828L168.102 261.328L110.161 269.746C106.981 270.208 103.994 271.55 101.537 273.622C99.08 275.693 97.2516 278.41 96.2584 281.466C95.2652 284.522 95.1467 287.795 95.9164 290.915C96.6862 294.035 98.3133 296.877 100.614 299.121L142.544 339.988L132.644 397.695C132.1 400.862 132.454 404.118 133.664 407.094C134.874 410.071 136.893 412.65 139.493 414.539C142.092 416.428 145.168 417.552 148.373 417.783C151.578 418.015 154.784 417.346 157.628 415.851L209.452 388.605L261.276 415.851C264.12 417.346 267.326 418.016 270.531 417.785C273.736 417.554 276.812 416.43 279.412 414.542C282.012 412.654 284.032 410.075 285.243 407.099C286.454 404.123 286.809 400.867 286.266 397.7L276.366 339.993L318.292 299.126C320.595 296.883 322.224 294.041 322.995 290.92C323.767 287.8 323.649 284.526 322.656 281.469C321.663 278.412 319.835 275.693 317.377 273.622C314.919 271.55 311.931 270.207 308.75 269.746Z" fill="#FFE675"/>
<path d="M388.258 77.9998C386.922 77.6368 385.59 77.2378 384.258 76.8398C384.369 88.458 387.212 99.8871 392.558 110.203C409.8 113.952 427.486 115.238 445.089 114.023L431.77 84.2068C417.056 84.0662 402.425 81.9791 388.258 77.9998Z" fill="#DADADC"/>
<path d="M458.781 124.832C449.132 124.831 439.7 121.97 431.677 116.609C423.654 111.248 417.402 103.628 413.709 94.7139C410.017 85.7993 409.051 75.99 410.934 66.5265C412.816 57.0629 417.462 48.3701 424.285 41.5472C431.108 34.7244 439.801 30.0779 449.265 28.1954C458.728 26.3128 468.537 27.2788 477.452 30.9711C486.367 34.6635 493.986 40.9163 499.347 48.939C504.708 56.9617 507.57 66.3938 507.57 76.0428C507.555 88.978 502.41 101.379 493.264 110.526C484.117 119.672 471.716 124.817 458.781 124.832ZM458.781 57.5388C455.12 57.5376 451.542 58.6222 448.497 60.6552C445.453 62.6882 443.08 65.5784 441.679 68.9601C440.277 72.3419 439.91 76.0633 440.624 79.6537C441.338 83.2441 443.101 86.5421 445.689 89.1306C448.278 91.719 451.576 93.4817 455.166 94.1955C458.756 94.9094 462.478 94.5424 465.86 93.141C469.241 91.7396 472.132 89.3667 474.165 86.3225C476.198 83.2783 477.282 79.6995 477.281 76.0388C477.274 71.1346 475.322 66.4334 471.854 62.9655C468.386 59.4977 463.685 57.5462 458.781 57.5388Z" fill="#FF6881"/>
</svg>
