<svg width="512" height="512" viewBox="0 0 512 512" fill="none" xmlns="http://www.w3.org/2000/svg">
<path d="M341.411 229.959C382.404 216.059 410.187 181.319 410.187 123.659C410.187 36.8201 346.279 -0.00390625 256.662 -0.00390625C167.045 -0.00390625 103.126 36.8251 103.126 123.663C103.126 181.319 130.909 216.063 171.902 229.963C120.488 247.32 85.7578 289.003 85.7578 360.558V368.9C85.7578 472.411 160.786 512 256.658 512C352.53 512 426.865 472.407 426.865 368.895V360.553C426.865 288.999 392.824 247.316 341.411 229.959ZM256.665 86.8391C287.922 86.8391 305.984 102.123 305.984 137.553C305.984 173.678 287.922 187.577 256.665 187.577C225.408 187.577 207.336 173.677 207.336 137.553C207.332 102.122 225.394 86.8391 256.665 86.8391ZM318.485 355.696C318.485 402.236 296.259 425.162 256.661 425.162C218.447 425.162 194.132 403.636 194.132 355.696V340.412C194.132 295.256 217.752 274.412 256.661 274.412C295.57 274.412 318.485 295.253 318.485 340.412V355.696Z" fill="#53A9B8"/>
<g style="mix-blend-mode:multiply">
<path d="M172.865 499.063C175.202 485.874 182.109 473.929 192.374 465.323C202.638 456.717 215.605 452 229 451.999H299C311.408 452 323.477 456.048 333.376 463.529C343.275 471.01 350.464 481.516 353.852 493.453C326.514 506.266 293.152 512.001 256.661 512.001C226.011 512 197.485 507.952 172.865 499.063Z" fill="#53A9B8"/>
</g>
<path d="M230.995 46.4651C230.312 46.4651 229.658 46.1941 229.175 45.7115C228.693 45.229 228.422 44.5745 228.422 43.8921V39.4131C228.435 38.7397 228.712 38.0982 229.193 37.6266C229.674 37.155 230.321 36.8909 230.994 36.8909C231.668 36.8909 232.315 37.155 232.796 37.6266C233.277 38.0982 233.554 38.7397 233.567 39.4131V43.8921C233.567 44.5744 233.296 45.2287 232.814 45.7112C232.331 46.1937 231.677 46.4649 230.995 46.4651V46.4651Z" fill="#4B5562"/>
<path d="M280.505 46.4651C279.822 46.4651 279.168 46.1941 278.685 45.7115C278.203 45.229 277.932 44.5745 277.932 43.8921V39.4131C277.945 38.7397 278.222 38.0982 278.703 37.6266C279.184 37.155 279.831 36.8909 280.504 36.8909C281.178 36.8909 281.825 37.155 282.306 37.6266C282.787 38.0982 283.064 38.7397 283.077 39.4131V43.8921C283.077 44.5744 282.806 45.2287 282.324 45.7112C281.841 46.1937 281.187 46.4649 280.505 46.4651V46.4651Z" fill="#4B5562"/>
<path d="M255.748 48.8562C254.229 48.8673 252.725 48.5533 251.337 47.9353C249.949 47.3174 248.709 46.4097 247.701 45.2732C247.479 45.0189 247.308 44.7233 247.2 44.4033C247.092 44.0833 247.048 43.7451 247.071 43.4081C247.117 42.7274 247.431 42.0928 247.944 41.6437C248.458 41.1947 249.129 40.9681 249.81 41.0138C250.49 41.0595 251.125 41.3736 251.574 41.8872C252.106 42.4623 252.752 42.9211 253.47 43.2348C254.188 43.5486 254.963 43.7106 255.747 43.7106C256.531 43.7106 257.306 43.5486 258.024 43.2348C258.742 42.9211 259.387 42.4623 259.92 41.8872C260.142 41.6308 260.412 41.4208 260.715 41.2691C261.018 41.1175 261.348 41.0272 261.687 41.0036C262.025 40.9799 262.364 41.0233 262.686 41.1313C263.007 41.2393 263.304 41.4097 263.559 41.6328C263.814 41.8559 264.023 42.1272 264.173 42.4311C264.323 42.7351 264.412 43.0657 264.434 43.404C264.456 43.7423 264.41 44.0816 264.301 44.4024C264.191 44.7231 264.019 45.0191 263.795 45.2732C262.787 46.4096 261.547 47.3172 260.159 47.9351C258.771 48.5531 257.267 48.8672 255.748 48.8562Z" fill="#4B5562"/>
</svg>
