<svg xmlns="http://www.w3.org/2000/svg" width="525" height="512" fill="none"><path fill="#8FA1F5" d="M132.545 67c-5.451 0-10.427.988-14.415 3.476l-65.678 39.806C42.5 116.246 38 126.197 38 136.661c0 15.4 9.952 30.843 24.4 30.843a22.584 22.584 0 0 0 12.44-3.988l14.415-8.964v253.295c0 15.912 19.428 23.888 38.819 23.888 19.391 0 38.819-7.976 38.819-23.888V91.367C166.896 76.439 148.492 67 132.545 67Z"/><path fill="#8FA1F5" d="M89.262 407.848v-99.257a295.707 295.707 0 0 0 77.635.771v98.485c0 15.909-19.426 23.888-38.819 23.888-19.393 0-38.82-7.978-38.82-23.887h.004Z" style="mix-blend-mode:multiply"/><path fill="#4B5562" d="M81.564 129.92a2.573 2.573 0 0 1-3.584-.631l-2.571-3.668a2.574 2.574 0 0 1 4.213-2.953l2.571 3.668a2.573 2.573 0 0 1-.63 3.584Zm40.549-28.419a2.575 2.575 0 0 1-3.585-.631l-2.57-3.668a2.571 2.571 0 0 1 4.213-2.953l2.571 3.668a2.576 2.576 0 0 1-.629 3.584Zm-18.904 16.169a10.665 10.665 0 0 1-4.141 1.778c-1.492.29-3.028.258-4.506-.094a2.562 2.562 0 0 1-1.587-1.166 2.57 2.57 0 0 1 2.815-3.83 5.68 5.68 0 0 0 4.465-.902 5.697 5.697 0 0 0 2.371-3.888 2.566 2.566 0 0 1 1.831-2.207 2.576 2.576 0 0 1 2.736.858 2.562 2.562 0 0 1 .55 1.897 10.665 10.665 0 0 1-4.534 7.554Z"/><path fill="#53A9B8" d="M408.72 228.692c27.942-9.774 46.88-34.2 46.88-74.742C455.6 92.892 412.038 67 350.951 67c-61.086 0-104.656 25.895-104.656 86.953 0 40.539 18.938 64.968 46.88 74.741-35.046 12.205-58.719 41.513-58.719 91.824v5.866c0 72.781 51.142 100.616 116.492 100.616 65.351 0 116.02-27.838 116.02-100.62v-5.865c0-50.311-23.203-79.619-58.248-91.823Zm-57.767-100.631c21.306 0 33.618 10.747 33.618 35.658 0 25.4-12.312 35.173-33.618 35.173-21.306 0-33.624-9.773-33.624-35.173-.003-24.912 12.309-35.658 33.624-35.658ZM393.092 317.1c0 32.723-15.15 48.843-42.142 48.843-26.048 0-42.622-15.136-42.622-48.843v-10.747c0-31.75 16.101-46.406 42.622-46.406 26.522 0 42.142 14.654 42.142 46.406V317.1Z"/><path fill="#53A9B8" d="M293.832 417.904c1.593-9.273 6.301-17.672 13.298-23.723 6.996-6.051 15.835-9.368 24.965-9.369h47.715c8.458.001 16.685 2.847 23.433 8.108 6.747 5.26 11.648 12.647 13.957 21.04-18.635 9.009-41.376 13.041-66.25 13.041-20.892-.001-40.336-2.846-57.118-9.097Z" style="mix-blend-mode:multiply"/><path fill="#4B5562" d="M333.456 99.673c-.466 0-.912-.19-1.241-.53a1.836 1.836 0 0 1-.513-1.279v-3.15c.009-.473.197-.924.525-1.255a1.727 1.727 0 0 1 1.228-.518c.459 0 .9.186 1.228.518.328.331.517.782.526 1.256v3.15c0 .479-.185.939-.514 1.278-.329.34-.774.53-1.239.53Zm33.748 0c-.466 0-.912-.19-1.241-.53a1.836 1.836 0 0 1-.513-1.279v-3.15c.009-.473.197-.924.525-1.255a1.727 1.727 0 0 1 1.228-.518c.459 0 .9.186 1.228.518.328.331.517.782.526 1.256v3.15c0 .479-.185.939-.514 1.278a1.72 1.72 0 0 1-1.239.53Zm-16.876 1.681a7.076 7.076 0 0 1-3.007-.647 7.282 7.282 0 0 1-2.478-1.872 1.823 1.823 0 0 1-.43-1.311 1.83 1.83 0 0 1 .595-1.24 1.722 1.722 0 0 1 1.272-.444c.464.032.896.253 1.203.614.362.405.802.727 1.292.948a3.774 3.774 0 0 0 3.104 0c.49-.22.93-.543 1.292-.948a1.78 1.78 0 0 1 .542-.434 1.715 1.715 0 0 1 1.939.255 1.817 1.817 0 0 1 .596 1.246 1.828 1.828 0 0 1-.435 1.314 7.296 7.296 0 0 1-2.479 1.872 7.075 7.075 0 0 1-3.006.647Z"/></svg>