<svg width="512" height="512" viewBox="0 0 512 512" fill="none" xmlns="http://www.w3.org/2000/svg">
<path d="M210.545 73.999C205.094 73.999 200.118 74.987 196.13 77.475L130.452 117.281C120.5 123.245 116 133.196 116 143.66C116 159.06 125.952 174.503 140.4 174.503C144.849 174.428 149.177 173.041 152.84 170.515L167.255 161.551V414.846C167.255 430.758 186.683 438.734 206.074 438.734C225.465 438.734 244.893 430.758 244.893 414.846V98.366C244.896 83.438 226.492 73.999 210.545 73.999Z" fill="#8FA1F5"/>
<path d="M362.149 73.999C356.698 73.999 351.722 74.987 347.734 77.475L282.056 117.281C272.104 123.245 267.604 133.196 267.604 143.66C267.604 159.06 277.556 174.503 292.004 174.503C296.453 174.428 300.781 173.041 304.444 170.515L318.859 161.551V414.846C318.859 430.758 338.287 438.734 357.678 438.734C377.069 438.734 396.497 430.758 396.497 414.846V98.366C396.5 83.438 378.096 73.999 362.149 73.999Z" fill="#8FA1F5"/>
<g style="mix-blend-mode:multiply">
<path d="M318.862 414.847V296.493C348.092 283.762 374.487 265.324 396.5 242.261V414.847C396.5 430.756 377.07 438.735 357.681 438.735C338.292 438.735 318.862 430.756 318.862 414.847ZM167.262 414.847V315.59C192.994 319.258 219.097 319.517 244.897 316.361V414.846C244.897 430.755 225.471 438.734 206.078 438.734C186.685 438.734 167.259 430.756 167.259 414.847H167.262Z" fill="#8FA1F5"/>
</g>
<path d="M159.564 136.919C159.005 137.31 158.313 137.464 157.641 137.346C156.969 137.228 156.371 136.847 155.98 136.288L153.409 132.62C153.033 132.061 152.892 131.376 153.015 130.714C153.138 130.052 153.516 129.464 154.068 129.078C154.62 128.691 155.301 128.536 155.965 128.646C156.63 128.756 157.225 129.123 157.622 129.667L160.193 133.335C160.585 133.894 160.739 134.585 160.621 135.257C160.503 135.929 160.122 136.527 159.564 136.919V136.919Z" fill="#4B5562"/>
<path d="M200.113 108.5C199.554 108.892 198.862 109.045 198.19 108.927C197.518 108.809 196.92 108.428 196.528 107.87L193.957 104.201C193.582 103.642 193.44 102.958 193.564 102.295C193.687 101.633 194.065 101.046 194.617 100.659C195.168 100.272 195.85 100.117 196.514 100.227C197.179 100.338 197.774 100.704 198.171 101.248L200.742 104.916C201.134 105.475 201.287 106.166 201.169 106.838C201.051 107.51 200.671 108.108 200.113 108.5V108.5Z" fill="#4B5562"/>
<path d="M181.209 124.669C179.971 125.55 178.559 126.156 177.068 126.446C175.576 126.737 174.04 126.705 172.562 126.353C172.234 126.272 171.925 126.128 171.653 125.928C171.38 125.728 171.15 125.476 170.975 125.187C170.622 124.603 170.515 123.903 170.678 123.241C170.841 122.578 171.26 122.008 171.844 121.654C172.428 121.301 173.128 121.194 173.79 121.357C174.556 121.522 175.348 121.527 176.117 121.372C176.885 121.217 177.613 120.905 178.255 120.455C178.896 120.005 179.438 119.427 179.846 118.758C180.254 118.089 180.52 117.343 180.626 116.566C180.66 116.229 180.761 115.902 180.922 115.604C181.083 115.305 181.302 115.042 181.565 114.828C181.829 114.615 182.132 114.456 182.457 114.36C182.782 114.264 183.123 114.233 183.46 114.269C183.797 114.305 184.124 114.408 184.421 114.57C184.719 114.733 184.981 114.953 185.193 115.218C185.405 115.482 185.563 115.786 185.657 116.112C185.752 116.437 185.781 116.778 185.743 117.115C185.569 118.625 185.075 120.08 184.293 121.382C183.511 122.685 182.459 123.806 181.209 124.669Z" fill="#4B5562"/>
</svg>
