<svg xmlns="http://www.w3.org/2000/svg" width="512" height="512" fill="none"><path fill="#8FA1F5" d="M132.545 67c-5.451 0-10.427.988-14.415 3.476l-65.678 39.806C42.5 116.246 38 126.197 38 136.661c0 15.4 9.952 30.843 24.4 30.843a22.584 22.584 0 0 0 12.44-3.988l14.415-8.964v253.295c0 15.912 19.428 23.888 38.819 23.888 19.391 0 38.819-7.976 38.819-23.888V91.367C166.896 76.439 148.492 67 132.545 67Z"/><path fill="#8FA1F5" d="M89.262 407.848v-99.257a295.707 295.707 0 0 0 77.635.771v98.485c0 15.909-19.426 23.888-38.819 23.888-19.393 0-38.82-7.978-38.82-23.887h.004Z" style="mix-blend-mode:multiply"/><path fill="#4B5562" d="M81.564 129.92a2.573 2.573 0 0 1-3.584-.631l-2.571-3.668a2.574 2.574 0 0 1 4.213-2.953l2.571 3.668a2.573 2.573 0 0 1-.63 3.584Zm40.548-28.419a2.575 2.575 0 0 1-3.584-.631l-2.571-3.668a2.578 2.578 0 0 1-.394-1.906 2.575 2.575 0 0 1 4.608-1.047l2.571 3.668a2.572 2.572 0 0 1-.63 3.584Zm-18.903 16.169a10.665 10.665 0 0 1-4.141 1.778c-1.492.29-3.028.258-4.506-.094a2.562 2.562 0 0 1-1.587-1.166 2.57 2.57 0 0 1 2.815-3.83 5.68 5.68 0 0 0 4.465-.902 5.697 5.697 0 0 0 2.371-3.888 2.566 2.566 0 0 1 1.831-2.207 2.576 2.576 0 0 1 2.736.858 2.562 2.562 0 0 1 .55 1.897 10.665 10.665 0 0 1-4.534 7.554Z"/><path fill="#F7EF87" d="M417.96 239.768c-20.551-24.395-52.835-34.383-89.956-34.383h-30.072l4.589-68.168h101.351c13.881 0 20.822-17.323 20.822-34.608 0-17.322-6.941-34.608-20.822-34.608H256.283c-7.893 0-11.601 9.167-12.959 24.432l-12.521 128.213c-.442 5.612-.915 9.653-.915 14.742 0 19.343 6.499 31.054 27.762 31.054h70.354c25.452 0 41.166 16.279 41.166 49.873v9.653c0 33.074-15.715 47.853-42.119 47.853-22.658 0-40.247-10.693-40.247-31.054 0-16.272-4.624-29.513-36.093-29.513-22.659 0-36.098 7.629-36.098 35.124 0 47.823 39.809 94.624 114.316 94.624 37.151 0 70.187-11.523 90.634-39.06 13.707-18.368 21.803-43.922 21.803-77.974v-9.651c0-34.051-8.674-59.039-23.406-76.549Z"/><path fill="#F7EF87" d="M257.65 266.444c-21.264 0-27.761-11.71-27.761-31.055 0-5.087.473-9.129.915-14.741l12.521-128.217C244.683 77.165 248.39 68 256.283 68h36.87c-.911 38.079-4.932 157.661-20 198.443l-15.503.001Z" style="mix-blend-mode:multiply"/><path fill="#4B5562" d="M351.139 103.498c-.454 0-.89-.199-1.212-.552a1.987 1.987 0 0 1-.501-1.333v-3.28c.008-.494.193-.963.513-1.309.32-.345.751-.539 1.2-.539.449 0 .879.194 1.2.54.32.345.504.814.513 1.308v3.28c0 .5-.18.979-.501 1.333a1.641 1.641 0 0 1-1.212.552Zm32.975 0a1.64 1.64 0 0 1-1.212-.552 1.983 1.983 0 0 1-.502-1.333v-3.28c.009-.494.193-.963.513-1.309a1.64 1.64 0 0 1 1.2-.539c.449 0 .88.194 1.2.54.32.345.505.814.514 1.308v3.28c0 .5-.181.979-.502 1.333a1.639 1.639 0 0 1-1.211.552Zm-16.489 1.751a6.562 6.562 0 0 1-2.938-.674 7.182 7.182 0 0 1-2.421-1.95 1.941 1.941 0 0 1-.334-.637 2.062 2.062 0 0 1-.086-.729 1.96 1.96 0 0 1 .582-1.292 1.618 1.618 0 0 1 1.242-.462c.453.034.876.264 1.175.64.355.421.785.757 1.263.987.478.23.995.348 1.516.348.522 0 1.039-.118 1.517-.348.478-.23.908-.566 1.263-.987.147-.188.327-.342.529-.453a1.569 1.569 0 0 1 1.313-.1c.214.078.411.203.581.367.171.163.309.362.409.584a2.045 2.045 0 0 1 .085 1.444 1.94 1.94 0 0 1-.336.638 7.195 7.195 0 0 1-2.422 1.95 6.559 6.559 0 0 1-2.938.674Z"/></svg>