<svg width="513" height="512" viewBox="0 0 513 512" fill="none" xmlns="http://www.w3.org/2000/svg">
<path d="M381.942 68C311.364 68 256.633 100.737 256.633 188.706V324.247C256.633 412.219 311.363 444.947 381.942 444.947C452.521 444.947 507.766 412.217 507.766 324.247V188.706C507.766 100.737 452.528 68 381.942 68ZM427.975 324.247C427.975 359.542 410.582 375.394 381.939 375.394C353.296 375.394 336.425 359.542 336.425 324.247V188.706C336.425 153.419 353.303 137.559 381.942 137.559C410.581 137.559 427.975 153.418 427.975 188.706V324.247Z" fill="#D7D4F6"/>
<path d="M222.808 243.37C200.394 219.17 165.177 209.27 124.687 209.27H91.8871L96.893 141.656H207.441C222.582 141.656 230.152 124.474 230.152 107.33C230.152 90.1479 222.581 73.0039 207.441 73.0039H46.459C37.85 73.0039 33.8051 82.0959 32.3241 97.2369L18.6671 224.407C18.1851 229.973 17.6671 233.981 17.6671 239.028C17.6671 258.214 24.7551 269.828 47.9481 269.828H124.687C152.449 269.828 169.587 285.974 169.587 319.295V328.869C169.587 361.669 152.446 376.332 123.645 376.332C98.93 376.332 79.7451 365.722 79.7451 345.532C79.7451 329.393 74.7021 316.26 40.3751 316.26C15.6601 316.26 0.998047 323.827 0.998047 351.098C0.998047 398.532 44.42 444.952 125.69 444.952C166.214 444.952 202.247 433.522 224.55 406.21C239.505 387.993 248.337 362.647 248.337 328.874V319.3C248.339 285.523 238.876 260.737 222.808 243.37Z" fill="#D7D4F6"/>
<g style="mix-blend-mode:multiply">
<path d="M381.942 67.9976C413.87 67.9976 442.66 74.6982 464.616 90.1772C446.497 94.8852 424.793 99.2895 398.993 103.293C351.156 110.716 310.404 114.18 275.668 114.772C297.585 81.582 336.473 67.9976 381.942 67.9976ZM99.1934 72.9976H207.44C222.58 72.9976 230.151 90.1428 230.151 107.323C230.152 109.475 230.032 111.626 229.791 113.764C157.633 109.048 119.293 89.9735 99.1934 73.0005V72.9976Z" fill="#D7D4F6"/>
</g>
<path d="M272.995 185.465C272.312 185.465 271.658 185.194 271.175 184.711C270.693 184.229 270.422 183.574 270.422 182.892V178.413C270.435 177.739 270.712 177.098 271.193 176.626C271.674 176.155 272.321 175.891 272.994 175.891C273.668 175.891 274.315 176.155 274.796 176.626C275.277 177.098 275.554 177.739 275.567 178.413V182.892C275.567 183.574 275.296 184.228 274.814 184.711C274.331 185.193 273.677 185.465 272.995 185.465V185.465Z" fill="#4B5562"/>
<path d="M322.505 185.465C321.822 185.465 321.168 185.194 320.685 184.711C320.203 184.229 319.932 183.574 319.932 182.892V178.413C319.945 177.739 320.222 177.098 320.703 176.626C321.184 176.155 321.831 175.891 322.504 175.891C323.178 175.891 323.825 176.155 324.306 176.626C324.787 177.098 325.064 177.739 325.077 178.413V182.892C325.077 183.574 324.806 184.228 324.324 184.711C323.841 185.193 323.187 185.465 322.505 185.465V185.465Z" fill="#4B5562"/>
<path d="M297.748 187.856C296.229 187.867 294.725 187.553 293.337 186.935C291.949 186.317 290.709 185.409 289.701 184.273C289.479 184.019 289.309 183.723 289.2 183.403C289.092 183.083 289.048 182.745 289.071 182.408C289.117 181.727 289.431 181.093 289.944 180.643C290.458 180.194 291.129 179.968 291.81 180.014C292.49 180.059 293.125 180.373 293.574 180.887C294.106 181.462 294.752 181.921 295.47 182.235C296.188 182.548 296.963 182.71 297.747 182.71C298.531 182.71 299.306 182.548 300.024 182.235C300.742 181.921 301.387 181.462 301.92 180.887C302.142 180.631 302.412 180.421 302.715 180.269C303.018 180.117 303.348 180.027 303.687 180.003C304.025 179.98 304.364 180.023 304.686 180.131C305.007 180.239 305.304 180.409 305.559 180.633C305.814 180.856 306.023 181.127 306.173 181.431C306.323 181.735 306.412 182.065 306.434 182.404C306.456 182.742 306.41 183.081 306.301 183.402C306.191 183.723 306.019 184.019 305.795 184.273C304.787 185.409 303.547 186.317 302.159 186.935C300.771 187.553 299.267 187.867 297.748 187.856Z" fill="#4B5562"/>
</svg>
