<svg width="512" height="512" viewBox="0 0 512 512" fill="none" xmlns="http://www.w3.org/2000/svg">
<path d="M393.325 234.52C362.467 201.212 313.994 187.575 258.258 187.575H213.106L219.997 94.503H372.172C393.013 94.503 403.435 70.852 403.435 47.252C403.435 23.601 393.014 0.000976562 372.172 0.000976562H150.572C138.721 0.000976562 133.153 12.516 131.115 33.358L112.315 208.412C111.651 216.074 110.941 221.591 110.941 228.539C110.941 254.949 120.698 270.939 152.624 270.939H258.258C296.473 270.939 320.068 293.165 320.068 339.032V352.212C320.068 397.369 296.473 417.547 256.828 417.547C222.807 417.547 196.398 402.947 196.398 375.147C196.398 352.931 189.456 334.853 142.205 334.853C108.184 334.853 88.0049 345.269 88.0049 382.809C88.0049 448.103 147.777 512.002 259.647 512.002C315.429 512.002 365.03 496.269 395.731 458.672C416.312 433.593 428.467 398.704 428.467 352.212V339.035C428.467 292.544 415.444 258.426 393.325 234.52Z" fill="#F7EF87"/>
<g style="mix-blend-mode:multiply">
<path d="M152.624 270.941C120.697 270.941 110.942 254.953 110.942 228.541C110.942 221.595 111.652 216.077 112.315 208.414L131.115 33.3552C133.154 12.5122 138.721 -0.0012207 150.572 -0.0012207H205.931C204.562 51.9898 198.526 215.259 175.901 270.939L152.624 270.941Z" fill="#F7EF87"/>
</g>
<path d="M292.995 48.4649C292.312 48.4649 291.658 48.1938 291.175 47.7113C290.693 47.2288 290.422 46.5743 290.422 45.8919V41.4129C290.435 40.7394 290.712 40.098 291.193 39.6264C291.674 39.1548 292.321 38.8906 292.994 38.8906C293.668 38.8906 294.315 39.1548 294.796 39.6264C295.277 40.098 295.554 40.7394 295.567 41.4129V45.8919C295.567 46.5741 295.296 47.2284 294.814 47.7109C294.331 48.1934 293.677 48.4646 292.995 48.4649V48.4649Z" fill="#4B5562"/>
<path d="M342.505 48.4649C341.822 48.4649 341.168 48.1938 340.685 47.7113C340.203 47.2288 339.932 46.5743 339.932 45.8919V41.4129C339.945 40.7394 340.222 40.098 340.703 39.6264C341.184 39.1548 341.831 38.8906 342.504 38.8906C343.178 38.8906 343.825 39.1548 344.306 39.6264C344.787 40.098 345.064 40.7394 345.077 41.4129V45.8919C345.077 46.5741 344.806 47.2284 344.324 47.7109C343.841 48.1934 343.187 48.4646 342.505 48.4649V48.4649Z" fill="#4B5562"/>
<path d="M317.748 50.856C316.229 50.8671 314.725 50.5531 313.337 49.9351C311.949 49.3171 310.709 48.4094 309.701 47.273C309.479 47.0187 309.309 46.7231 309.2 46.4031C309.092 46.083 309.048 45.7448 309.071 45.4078C309.117 44.7272 309.431 44.0925 309.944 43.6435C310.458 43.1945 311.129 42.9679 311.81 43.0136C312.49 43.0592 313.125 43.3734 313.574 43.887C314.106 44.462 314.752 44.9208 315.47 45.2346C316.188 45.5483 316.963 45.7103 317.747 45.7103C318.531 45.7103 319.306 45.5483 320.024 45.2346C320.742 44.9208 321.387 44.462 321.92 43.887C322.142 43.6306 322.412 43.4205 322.715 43.2689C323.018 43.1172 323.348 43.027 323.687 43.0033C324.025 42.9797 324.364 43.0231 324.686 43.1311C325.007 43.2391 325.304 43.4095 325.559 43.6325C325.814 43.8556 326.023 44.1269 326.173 44.4309C326.323 44.7348 326.412 45.0655 326.434 45.4038C326.456 45.742 326.41 46.0813 326.301 46.4021C326.191 46.7229 326.019 47.0189 325.795 47.273C324.787 48.4093 323.547 49.3169 322.159 49.9349C320.771 50.5529 319.267 50.8669 317.748 50.856Z" fill="#4B5562"/>
</svg>
