<svg width="513" height="512" viewBox="0 0 513 512" fill="none" xmlns="http://www.w3.org/2000/svg">
<path d="M229.549 291.283H202.007L202.978 98.423C202.978 79.859 176.678 67.999 162.761 67.999C149.861 67.999 136.974 73.671 129.243 88.625L10.125 322.223C7.50284 326.964 6.08627 332.276 6 337.693C6 355.741 17.856 365.535 32.807 365.535H126.935V420.198C126.935 436.698 147.042 444.95 167.156 444.95C187.27 444.95 207.373 436.699 207.373 420.198V365.534H229.546C241.926 365.534 254.301 346.97 254.301 328.41C254.301 309.85 246.054 291.283 229.549 291.283ZM109.128 291.283L143.428 222.496V291.283H109.128Z" fill="#ADE3F5"/>
<path d="M386.942 68C316.364 68 261.633 100.737 261.633 188.706V324.247C261.633 412.219 316.363 444.947 386.942 444.947C457.521 444.947 512.766 412.217 512.766 324.247V188.706C512.766 100.737 457.528 68 386.942 68ZM432.975 324.247C432.975 359.542 415.582 375.394 386.939 375.394C358.296 375.394 341.425 359.542 341.425 324.247V188.706C341.425 153.419 358.303 137.559 386.942 137.559C415.581 137.559 432.975 153.418 432.975 188.706V324.247Z" fill="#ADE3F5"/>
<g style="mix-blend-mode:multiply">
<path d="M126.936 420.2V365.539H117.559C139.808 339.878 169.551 309.539 202.026 287.239L202.006 291.288H229.548C246.048 291.288 254.304 309.85 254.304 328.414C254.304 346.978 241.928 365.54 229.548 365.54H207.375V420.201C207.375 436.701 187.269 444.954 167.157 444.954C147.045 444.954 126.936 436.7 126.936 420.2ZM261.636 324.249V274.577C302.062 295.848 328.064 380.706 331.886 436.639C289.845 422.1 261.634 387.411 261.634 324.246L261.636 324.249Z" fill="#ADE3F5"/>
</g>
<path d="M132.995 129.465C132.312 129.465 131.658 129.194 131.175 128.711C130.693 128.229 130.422 127.574 130.422 126.892V122.413C130.435 121.739 130.712 121.098 131.193 120.626C131.674 120.155 132.321 119.891 132.994 119.891C133.668 119.891 134.315 120.155 134.796 120.626C135.277 121.098 135.554 121.739 135.567 122.413V126.892C135.567 127.574 135.296 128.228 134.814 128.711C134.331 129.193 133.677 129.465 132.995 129.465V129.465Z" fill="#4B5562"/>
<path d="M182.505 129.465C181.822 129.465 181.168 129.194 180.685 128.711C180.203 128.229 179.932 127.574 179.932 126.892V122.413C179.945 121.739 180.222 121.098 180.703 120.626C181.184 120.155 181.831 119.891 182.504 119.891C183.178 119.891 183.825 120.155 184.306 120.626C184.787 121.098 185.064 121.739 185.077 122.413V126.892C185.077 127.574 184.806 128.228 184.324 128.711C183.841 129.193 183.187 129.465 182.505 129.465V129.465Z" fill="#4B5562"/>
<path d="M157.748 131.856C156.229 131.867 154.725 131.553 153.337 130.935C151.949 130.317 150.709 129.409 149.701 128.273C149.479 128.019 149.309 127.723 149.2 127.403C149.092 127.083 149.048 126.745 149.071 126.408C149.117 125.727 149.431 125.093 149.944 124.643C150.458 124.194 151.129 123.968 151.81 124.014C152.49 124.059 153.125 124.373 153.574 124.887C154.106 125.462 154.752 125.921 155.47 126.235C156.188 126.548 156.963 126.71 157.747 126.71C158.531 126.71 159.306 126.548 160.024 126.235C160.742 125.921 161.387 125.462 161.92 124.887C162.142 124.631 162.412 124.421 162.715 124.269C163.018 124.117 163.348 124.027 163.687 124.003C164.025 123.98 164.364 124.023 164.686 124.131C165.007 124.239 165.304 124.409 165.559 124.633C165.814 124.856 166.023 125.127 166.173 125.431C166.323 125.735 166.412 126.065 166.434 126.404C166.456 126.742 166.41 127.081 166.301 127.402C166.191 127.723 166.019 128.019 165.795 128.273C164.787 129.409 163.547 130.317 162.159 130.935C160.771 131.553 159.267 131.867 157.748 131.856Z" fill="#4B5562"/>
</svg>
