<svg width="512" height="512" viewBox="0 0 512 512" fill="none" xmlns="http://www.w3.org/2000/svg">
<path d="M390.64 303.28H353.235L354.553 41.324C354.553 16.109 318.833 0 299.927 0C282.412 0 264.902 7.70001 254.401 28.016L92.6029 345.304C89.0424 351.743 87.1193 358.959 87.0029 366.316C87.0029 390.83 103.103 404.133 123.414 404.133H251.265V478.381C251.265 500.794 278.576 512 305.897 512C333.218 512 360.523 500.794 360.523 478.381V404.133H390.64C407.455 404.133 424.264 378.918 424.264 353.709C424.264 328.5 413.058 303.28 390.64 303.28ZM227.075 303.28L273.657 209.848V303.28H227.075Z" fill="#8ED2E2"/>
<g style="mix-blend-mode:multiply">
<path d="M282.6 509.12C328.967 446.504 346.83 328.602 353.442 261.761L353.233 303.282H390.641C413.061 303.282 424.267 328.497 424.267 353.711C424.267 378.925 407.457 404.133 390.641 404.133H360.525V478.381C360.525 500.795 333.216 512.001 305.9 512.001C298.043 512.032 290.213 511.064 282.6 509.12V509.12Z" fill="#8ED2E2"/>
</g>
<path d="M265.995 123.465C265.312 123.465 264.658 123.194 264.175 122.711C263.693 122.229 263.422 121.574 263.422 120.892V116.413C263.435 115.739 263.712 115.098 264.193 114.626C264.674 114.155 265.321 113.891 265.994 113.891C266.668 113.891 267.315 114.155 267.796 114.626C268.277 115.098 268.554 115.739 268.567 116.413V120.892C268.567 121.574 268.296 122.228 267.814 122.711C267.331 123.193 266.677 123.465 265.995 123.465V123.465Z" fill="#4B5562"/>
<path d="M315.505 123.465C314.822 123.465 314.168 123.194 313.685 122.711C313.203 122.229 312.932 121.574 312.932 120.892V116.413C312.945 115.739 313.222 115.098 313.703 114.626C314.184 114.155 314.831 113.891 315.504 113.891C316.178 113.891 316.825 114.155 317.306 114.626C317.787 115.098 318.064 115.739 318.077 116.413V120.892C318.077 121.574 317.806 122.228 317.324 122.711C316.841 123.193 316.187 123.465 315.505 123.465V123.465Z" fill="#4B5562"/>
<path d="M290.748 125.856C289.229 125.867 287.725 125.553 286.337 124.935C284.949 124.317 283.709 123.409 282.701 122.273C282.479 122.019 282.309 121.723 282.2 121.403C282.092 121.083 282.048 120.745 282.071 120.408C282.117 119.727 282.431 119.093 282.944 118.643C283.458 118.194 284.129 117.968 284.81 118.014C285.49 118.059 286.125 118.373 286.574 118.887C287.106 119.462 287.752 119.921 288.47 120.235C289.188 120.548 289.963 120.71 290.747 120.71C291.531 120.71 292.306 120.548 293.024 120.235C293.742 119.921 294.387 119.462 294.92 118.887C295.142 118.631 295.412 118.421 295.715 118.269C296.018 118.117 296.348 118.027 296.687 118.003C297.025 117.98 297.364 118.023 297.686 118.131C298.007 118.239 298.304 118.409 298.559 118.633C298.814 118.856 299.023 119.127 299.173 119.431C299.323 119.735 299.412 120.065 299.434 120.404C299.456 120.742 299.41 121.081 299.301 121.402C299.191 121.723 299.019 122.019 298.795 122.273C297.787 123.409 296.547 124.317 295.159 124.935C293.771 125.553 292.267 125.867 290.748 125.856Z" fill="#4B5562"/>
</svg>
