<svg xmlns="http://www.w3.org/2000/svg" width="512" height="512" fill="none"><path fill="#8FA1F5" d="M132.545 67c-5.451 0-10.427.988-14.415 3.476l-65.678 39.806C42.5 116.246 38 126.197 38 136.661c0 15.4 9.952 30.843 24.4 30.843a22.584 22.584 0 0 0 12.44-3.988l14.415-8.964v253.295c0 15.912 19.428 23.888 38.819 23.888 19.391 0 38.819-7.976 38.819-23.888V91.367C166.896 76.439 148.492 67 132.545 67Z"/><path fill="#8FA1F5" d="M89.262 407.848v-99.257a295.707 295.707 0 0 0 77.635.771v98.485c0 15.909-19.426 23.888-38.819 23.888-19.393 0-38.82-7.978-38.82-23.887h.004Z" style="mix-blend-mode:multiply"/><path fill="#4B5562" d="M81.564 129.92a2.573 2.573 0 0 1-3.584-.631l-2.571-3.668a2.574 2.574 0 0 1 4.213-2.953l2.571 3.668a2.573 2.573 0 0 1-.63 3.584Zm40.548-28.419a2.575 2.575 0 0 1-3.584-.631l-2.571-3.668a2.578 2.578 0 0 1-.394-1.906 2.575 2.575 0 0 1 4.608-1.047l2.571 3.668a2.572 2.572 0 0 1-.63 3.584Zm-18.903 16.169a10.665 10.665 0 0 1-4.141 1.778c-1.492.29-3.028.258-4.506-.094a2.562 2.562 0 0 1-1.587-1.166 2.57 2.57 0 0 1 2.815-3.83 5.68 5.68 0 0 0 4.465-.902 5.697 5.697 0 0 0 2.371-3.888 2.566 2.566 0 0 1 1.831-2.207 2.576 2.576 0 0 1 2.736.858 2.562 2.562 0 0 1 .55 1.897 10.665 10.665 0 0 1-4.534 7.554Z"/><path fill="#8ED2E2" d="M392.357 284.574H367.81l.865-188.792C368.675 77.61 345.234 66 332.827 66c-11.494 0-22.985 5.55-29.877 20.191l-106.18 228.67c-2.336 4.64-3.598 9.841-3.675 15.143 0 17.667 10.566 27.255 23.895 27.255h83.902v53.51c0 16.153 17.923 24.23 35.853 24.23 17.929 0 35.848-8.077 35.848-24.23v-53.51h19.764c11.035 0 22.066-18.173 22.066-36.341 0-18.168-7.354-36.344-22.066-36.344Zm-107.339 0 30.569-67.336v67.336h-30.569Z"/><path fill="#8ED2E2" d="M321.456 432.923c30.429-45.127 42.151-130.099 46.49-178.272l-.137 29.925h24.549c14.713 0 22.067 18.172 22.067 36.344s-11.031 36.339-22.067 36.339h-19.764v53.511c0 16.153-17.921 24.23-35.847 24.23a55.71 55.71 0 0 1-15.291-2.077Z" style="mix-blend-mode:multiply"/><path fill="#4B5562" d="M310.559 154.981c-.448 0-.877-.196-1.194-.543a1.956 1.956 0 0 1-.494-1.312v-3.228a1.94 1.94 0 0 1 .506-1.287c.315-.34.74-.53 1.182-.53.442 0 .866.19 1.182.53.316.34.497.802.506 1.287v3.228c0 .492-.178.964-.494 1.311a1.616 1.616 0 0 1-1.194.544Zm32.491 0c-.448 0-.877-.196-1.194-.543a1.95 1.95 0 0 1-.494-1.312v-3.228a1.94 1.94 0 0 1 .506-1.287c.315-.34.74-.53 1.182-.53.442 0 .866.19 1.182.53.316.34.497.802.506 1.287v3.228c0 .492-.178.964-.494 1.311a1.616 1.616 0 0 1-1.194.544Zm-16.247 1.723a6.467 6.467 0 0 1-2.895-.663 7.089 7.089 0 0 1-2.386-1.919 1.917 1.917 0 0 1-.328-.627c-.071-.23-.1-.474-.085-.717.03-.491.236-.948.573-1.272a1.598 1.598 0 0 1 1.224-.454c.447.033.863.26 1.158.63a3.76 3.76 0 0 0 1.244.971c.472.226.98.343 1.495.343a3.45 3.45 0 0 0 1.494-.343 3.76 3.76 0 0 0 1.244-.971c.146-.185.323-.336.522-.446a1.545 1.545 0 0 1 1.293-.099c.211.078.406.201.573.362.168.16.305.356.403.575a2.013 2.013 0 0 1 .084 1.421 1.907 1.907 0 0 1-.332.627 7.08 7.08 0 0 1-2.386 1.919 6.467 6.467 0 0 1-2.895.663Z"/></svg>