<svg width="513" height="512" viewBox="0 0 513 512" fill="none" xmlns="http://www.w3.org/2000/svg">
<path d="M73.479 114C69.242 114 65.379 114.768 62.279 116.7L11.232 147.64C3.497 152.275 0 160.01 0 168.14C0 180.112 7.735 192.112 18.967 192.112C22.4247 192.054 25.7881 190.975 28.635 189.012L39.835 182.045V378.914C39.835 391.281 54.935 397.48 70.006 397.48C85.077 397.48 100.177 391.28 100.177 378.914V132.939C100.181 121.337 85.877 114 73.479 114Z" fill="#FFD8D8"/>
<path d="M211.621 114C158.543 114 117.384 138.62 117.384 204.775V306.708C117.384 372.866 158.543 397.48 211.621 397.48C264.699 397.48 306.246 372.866 306.246 306.708V204.772C306.241 138.62 264.699 114 211.621 114ZM246.242 306.708C246.242 333.251 233.161 345.172 211.621 345.172C190.081 345.172 177.391 333.251 177.391 306.708V204.772C177.391 178.235 190.084 166.308 211.621 166.308C233.158 166.308 246.242 178.235 246.242 204.772V306.708Z" fill="#FFD8D8"/>
<path d="M417.38 114C364.302 114 323.143 138.62 323.143 204.775V306.708C323.143 372.866 364.302 397.48 417.38 397.48C470.458 397.48 512.005 372.866 512.005 306.708V204.772C512 138.62 470.458 114 417.38 114ZM452.001 306.708C452.001 333.251 438.92 345.172 417.38 345.172C395.84 345.172 383.15 333.251 383.15 306.708V204.772C383.15 178.235 395.843 166.308 417.38 166.308C438.917 166.308 452.001 178.235 452.001 204.772V306.708Z" fill="#FFD8D8"/>
<g style="mix-blend-mode:multiply">
<path d="M323.137 306.708V285.619C343.376 287.986 363.426 291.75 383.145 296.887V306.708C383.145 333.25 395.837 345.171 417.375 345.171C434.437 345.171 446.19 337.692 450.34 321.394C468.802 330.221 486.398 340.756 502.898 352.859C487.846 384.713 455.598 397.481 417.375 397.481C364.3 397.48 323.137 372.866 323.137 306.708ZM117.38 306.708V298.028C137.111 292.816 157.154 288.865 177.388 286.199V306.708C177.388 333.25 190.08 345.171 211.618 345.171C233.156 345.171 246.238 333.25 246.238 306.708V281.46C265.096 281.311 285.112 282.052 306.238 283.898V306.709C306.238 372.867 264.696 397.481 211.613 397.481C158.53 397.481 117.38 372.866 117.38 306.708V306.708ZM39.8389 378.915V327.464C59.1822 317.518 79.3767 309.324 100.181 302.979V378.916C100.181 391.28 85.0808 397.481 70.0118 397.481C54.9428 397.481 39.8389 391.279 39.8389 378.915Z" fill="#FFD8D8"/>
</g>
<path d="M396.995 146.465C396.312 146.465 395.658 146.194 395.175 145.711C394.693 145.229 394.422 144.574 394.422 143.892V139.413C394.435 138.739 394.712 138.098 395.193 137.626C395.674 137.155 396.321 136.891 396.994 136.891C397.668 136.891 398.315 137.155 398.796 137.626C399.277 138.098 399.554 138.739 399.567 139.413V143.892C399.567 144.574 399.296 145.228 398.814 145.711C398.331 146.193 397.677 146.465 396.995 146.465V146.465Z" fill="#4B5562"/>
<path d="M446.505 146.465C445.822 146.465 445.168 146.194 444.685 145.711C444.203 145.229 443.932 144.574 443.932 143.892V139.413C443.945 138.739 444.222 138.098 444.703 137.626C445.184 137.155 445.831 136.891 446.504 136.891C447.178 136.891 447.825 137.155 448.306 137.626C448.787 138.098 449.063 138.739 449.077 139.413V143.892C449.077 144.574 448.806 145.228 448.323 145.711C447.841 146.193 447.187 146.465 446.505 146.465V146.465Z" fill="#4B5562"/>
<path d="M421.748 148.856C420.228 148.867 418.724 148.553 417.337 147.935C415.949 147.317 414.709 146.409 413.701 145.273C413.478 145.019 413.308 144.723 413.2 144.403C413.092 144.083 413.048 143.745 413.071 143.408C413.116 142.727 413.431 142.093 413.944 141.643C414.458 141.194 415.129 140.968 415.809 141.014C416.49 141.059 417.125 141.373 417.574 141.887C418.106 142.462 418.752 142.921 419.47 143.235C420.188 143.548 420.963 143.71 421.747 143.71C422.53 143.71 423.306 143.548 424.024 143.235C424.742 142.921 425.387 142.462 425.92 141.887C426.141 141.631 426.412 141.421 426.715 141.269C427.018 141.117 427.348 141.027 427.686 141.003C428.025 140.98 428.364 141.023 428.685 141.131C429.007 141.239 429.304 141.409 429.559 141.633C429.814 141.856 430.023 142.127 430.173 142.431C430.323 142.735 430.412 143.065 430.433 143.404C430.455 143.742 430.41 144.081 430.301 144.402C430.191 144.723 430.019 145.019 429.795 145.273C428.786 146.409 427.547 147.317 426.159 147.935C424.771 148.553 423.267 148.867 421.748 148.856Z" fill="#4B5562"/>
</svg>
