<svg xmlns="http://www.w3.org/2000/svg" width="512" height="512" fill="none"><path fill="#8FA1F5" d="M142.545 68c-5.451 0-10.427.988-14.415 3.476l-65.678 39.806C52.5 117.246 48 127.197 48 137.661c0 15.4 9.952 30.843 24.4 30.843a22.584 22.584 0 0 0 12.44-3.988l14.415-8.964v253.295c0 15.912 19.428 23.888 38.819 23.888 19.391 0 38.819-7.976 38.819-23.888V92.367C176.896 77.439 158.492 68 142.545 68Z"/><path fill="#8FA1F5" d="M99.262 408.848v-99.257a295.707 295.707 0 0 0 77.635.771v98.485c0 15.909-19.426 23.888-38.819 23.888-19.393 0-38.82-7.978-38.82-23.887h.004Z" style="mix-blend-mode:multiply"/><path fill="#4B5562" d="M91.564 130.92a2.573 2.573 0 0 1-3.584-.631l-2.571-3.668a2.574 2.574 0 0 1 4.213-2.953l2.571 3.668a2.573 2.573 0 0 1-.63 3.584Zm40.549-28.419a2.575 2.575 0 0 1-3.585-.631l-2.57-3.668a2.571 2.571 0 0 1 4.213-2.953l2.571 3.668a2.576 2.576 0 0 1-.629 3.584Zm-18.904 16.169a10.666 10.666 0 0 1-4.141 1.778c-1.492.29-3.028.258-4.506-.094a2.56 2.56 0 0 1-1.587-1.166 2.572 2.572 0 0 1 2.815-3.83 5.683 5.683 0 0 0 4.465-.902 5.697 5.697 0 0 0 2.371-3.888 2.566 2.566 0 0 1 1.831-2.207 2.576 2.576 0 0 1 2.736.858 2.562 2.562 0 0 1 .55 1.897 10.665 10.665 0 0 1-4.534 7.554Z"/><path fill="#6BCC98" d="M331.975 68c-64.038 0-113.688 31.439-113.688 115.918v4.421c0 78.588 44.548 103.151 97.452 103.151 22.271 0 43.151-4.424 58.006-21.611v44.206c0 33.895-16.245 49.118-43.618 49.118-21.814 0-40.376-9.82-40.376-28.485 0-22.594-17.63-27.998-37.587-27.998-23.203 0-33.875 7.364-33.875 30.937 0 40.772 31.094 92.342 109.514 92.342 66.825 0 118.334-31.432 118.334-115.915V183.92C446.133 99.439 396.016 68 331.975 68Zm41.767 119.36c0 32.418-16.245 45.189-41.303 45.189-26.451 0-41.764-13.757-41.764-49.613v-4.421c0-33.888 15.313-48.623 41.3-48.623 25.987 0 41.767 14.735 41.767 48.623v8.845Z"/><path fill="#6BCC98" d="M402.805 301.32v-87.672c-.001-12.051 4.471-23.621 12.452-32.216 7.981-8.595 18.832-13.528 30.216-13.736.436 5.175.656 10.582.66 16.221v130.164a167.978 167.978 0 0 1-3.058 33.074c-10.941-.843-21.175-6.038-28.645-14.54-7.471-8.503-11.624-19.683-11.625-31.295Z" style="mix-blend-mode:multiply"/><path fill="#4B5562" d="M273.883 255.692c-.456 0-.893-.192-1.215-.533a1.876 1.876 0 0 1-.503-1.287v-3.166c.008-.476.193-.93.515-1.263a1.668 1.668 0 0 1 1.203-.521c.45 0 .882.187 1.203.521.321.333.506.787.515 1.263v3.166c0 .483-.181.945-.503 1.287a1.675 1.675 0 0 1-1.215.533Zm33.071 0c-.456 0-.893-.192-1.215-.533a1.872 1.872 0 0 1-.504-1.287v-3.166c.009-.476.194-.93.515-1.263a1.672 1.672 0 0 1 1.204-.521c.45 0 .882.187 1.203.521.321.333.506.787.515 1.263v3.166c0 .483-.181.945-.503 1.287a1.675 1.675 0 0 1-1.215.533Zm-16.537 1.691a6.807 6.807 0 0 1-2.946-.651 7.158 7.158 0 0 1-2.429-1.883 1.9 1.9 0 0 1-.42-1.318c.03-.482.24-.93.583-1.248a1.661 1.661 0 0 1 1.246-.445c.455.032.878.254 1.178.617a3.81 3.81 0 0 0 1.267.953c.48.222.997.337 1.521.337.523 0 1.041-.115 1.521-.337a3.805 3.805 0 0 0 1.266-.953c.148-.181.329-.329.531-.437a1.638 1.638 0 0 1 1.317-.097c.214.076.413.197.583.354a1.877 1.877 0 0 1 .584 1.253 1.874 1.874 0 0 1-.426 1.321 7.142 7.142 0 0 1-2.429 1.882 6.795 6.795 0 0 1-2.947.652Z"/></svg>