<svg width="512" height="512" viewBox="0 0 512 512" fill="none" xmlns="http://www.w3.org/2000/svg">
<path d="M255.962 0C160.092 0 85.7622 44.466 85.7622 163.951V170.203C85.7622 281.356 152.454 316.097 231.656 316.097C264.997 316.097 296.256 309.839 318.495 285.53V348.054C318.495 395.994 294.175 417.525 253.195 417.525C220.539 417.525 192.75 403.636 192.75 377.237C192.75 345.28 166.356 337.637 136.479 337.637C101.743 337.637 85.7652 348.053 85.7652 381.394C85.7652 439.06 132.316 511.999 249.716 511.999C349.759 511.999 426.872 467.543 426.872 348.053V163.953C426.865 44.466 351.836 0 255.962 0ZM318.491 168.819C318.491 214.67 294.171 232.732 256.657 232.732C217.057 232.732 194.133 213.275 194.133 162.561V156.309C194.133 108.379 217.058 87.538 255.962 87.538C294.866 87.538 318.491 108.379 318.491 156.309V168.819Z" fill="#6BCC98"/>
<g style="mix-blend-mode:multiply">
<path d="M362 330V206C361.999 188.955 368.694 172.591 380.642 160.435C392.59 148.278 408.836 141.301 425.878 141.007C426.531 148.326 426.86 155.973 426.866 163.949V348.049C426.977 363.759 425.443 379.437 422.287 394.827C405.908 393.635 390.587 386.288 379.403 374.262C368.22 362.236 362.002 346.422 362 330V330Z" fill="#6BCC98"/>
</g>
<path d="M168.995 265.465C168.312 265.465 167.658 265.194 167.175 264.711C166.693 264.229 166.422 263.574 166.422 262.892V258.413C166.435 257.739 166.712 257.098 167.193 256.626C167.674 256.155 168.321 255.891 168.994 255.891C169.668 255.891 170.315 256.155 170.796 256.626C171.277 257.098 171.554 257.739 171.567 258.413V262.892C171.567 263.574 171.296 264.228 170.814 264.711C170.331 265.193 169.677 265.465 168.995 265.465V265.465Z" fill="#4B5562"/>
<path d="M218.505 265.465C217.822 265.465 217.168 265.194 216.685 264.711C216.203 264.229 215.932 263.574 215.932 262.892V258.413C215.945 257.739 216.222 257.098 216.703 256.626C217.184 256.155 217.831 255.891 218.504 255.891C219.178 255.891 219.825 256.155 220.306 256.626C220.787 257.098 221.064 257.739 221.077 258.413V262.892C221.077 263.574 220.806 264.228 220.324 264.711C219.841 265.193 219.187 265.465 218.505 265.465V265.465Z" fill="#4B5562"/>
<path d="M193.748 267.856C192.229 267.867 190.725 267.553 189.337 266.935C187.949 266.317 186.709 265.409 185.701 264.273C185.479 264.019 185.308 263.723 185.2 263.403C185.092 263.083 185.048 262.745 185.071 262.408C185.117 261.727 185.431 261.093 185.944 260.643C186.458 260.194 187.129 259.968 187.81 260.014C188.49 260.059 189.125 260.373 189.574 260.887C190.106 261.462 190.752 261.921 191.47 262.235C192.188 262.548 192.963 262.71 193.747 262.71C194.531 262.71 195.306 262.548 196.024 262.235C196.742 261.921 197.387 261.462 197.92 260.887C198.142 260.631 198.412 260.421 198.715 260.269C199.018 260.117 199.348 260.027 199.687 260.003C200.025 259.98 200.364 260.023 200.686 260.131C201.007 260.239 201.304 260.409 201.559 260.633C201.814 260.856 202.023 261.127 202.173 261.431C202.323 261.735 202.412 262.065 202.434 262.404C202.456 262.742 202.41 263.081 202.301 263.402C202.191 263.723 202.019 264.019 201.795 264.273C200.787 265.409 199.547 266.317 198.159 266.935C196.771 267.553 195.267 267.867 193.748 267.856Z" fill="#4B5562"/>
</svg>
