<svg width="512" height="512" viewBox="0 0 512 512" fill="none" xmlns="http://www.w3.org/2000/svg">
<path d="M298.712 0C291.059 0 284.075 1.38701 278.476 4.87901L186.286 60.758C172.316 69.13 165.999 83.099 165.999 97.788C165.999 119.41 179.969 141.088 200.256 141.088C206.501 140.982 212.576 139.034 217.718 135.488L237.954 122.905V478.468C237.954 500.804 265.226 512 292.446 512C319.666 512 346.938 500.8 346.938 478.468V34.205C346.939 13.251 321.105 0 298.712 0Z" fill="#53A9B8"/>
<path d="M250.995 74.4649C250.312 74.4649 249.658 74.1938 249.175 73.7113C248.693 73.2288 248.422 72.5743 248.422 71.8919V67.4129C248.435 66.7394 248.712 66.098 249.193 65.6264C249.674 65.1548 250.321 64.8906 250.994 64.8906C251.668 64.8906 252.315 65.1548 252.796 65.6264C253.277 66.098 253.554 66.7394 253.567 67.4129V71.8919C253.567 72.5741 253.296 73.2284 252.814 73.7109C252.331 74.1934 251.677 74.4646 250.995 74.4649V74.4649Z" fill="#4B5562"/>
<path d="M300.505 74.4649C299.822 74.4649 299.168 74.1938 298.685 73.7113C298.203 73.2288 297.932 72.5743 297.932 71.8919V67.4129C297.945 66.7394 298.222 66.098 298.703 65.6264C299.184 65.1548 299.831 64.8906 300.504 64.8906C301.178 64.8906 301.825 65.1548 302.306 65.6264C302.787 66.098 303.063 66.7394 303.077 67.4129V71.8919C303.077 72.5741 302.806 73.2284 302.323 73.7109C301.841 74.1934 301.187 74.4646 300.505 74.4649V74.4649Z" fill="#4B5562"/>
<path d="M275.748 76.856C274.228 76.8671 272.724 76.5531 271.337 75.9351C269.949 75.3171 268.709 74.4094 267.701 73.273C267.478 73.0187 267.308 72.7231 267.2 72.4031C267.092 72.083 267.048 71.7448 267.071 71.4078C267.116 70.7272 267.431 70.0925 267.944 69.6435C268.458 69.1945 269.129 68.9679 269.809 69.0136C270.49 69.0592 271.125 69.3734 271.574 69.887C272.106 70.462 272.752 70.9208 273.47 71.2346C274.188 71.5483 274.963 71.7103 275.747 71.7103C276.53 71.7103 277.306 71.5483 278.024 71.2346C278.742 70.9208 279.387 70.462 279.92 69.887C280.141 69.6306 280.412 69.4205 280.715 69.2689C281.018 69.1172 281.348 69.027 281.686 69.0033C282.025 68.9797 282.364 69.0231 282.685 69.1311C283.007 69.2391 283.304 69.4095 283.559 69.6325C283.814 69.8556 284.023 70.1269 284.173 70.4309C284.323 70.7348 284.412 71.0655 284.433 71.4038C284.455 71.742 284.41 72.0813 284.301 72.4021C284.191 72.7229 284.019 73.0189 283.795 73.273C282.786 74.4093 281.547 75.3169 280.159 75.9349C278.771 76.5529 277.267 76.8669 275.748 76.856Z" fill="#4B5562"/>
<g style="mix-blend-mode:multiply">
<path d="M238 190C250.2 190 261.9 194.846 270.527 203.473C279.154 212.1 284 223.8 284 236V367C284 379.2 279.154 390.9 270.527 399.527C261.9 408.154 250.2 413 238 413V413V190Z" fill="#53A9B8"/>
</g>
</svg>
