<svg width="512" height="512" viewBox="0 0 512 512" fill="none" xmlns="http://www.w3.org/2000/svg">
<path d="M379.626 0H133.002C109.402 0 85.751 16.653 85.751 33.351V141.037C85.751 159.779 110.061 174.399 139.229 174.399C167.729 174.399 194.142 159.779 194.142 141.037V94.502H318.481V143.132L294.156 185.223L278.586 212.251L205.079 339.551V339.602L189.443 366.619L147.612 439.048C144.395 444.532 142.703 450.778 142.712 457.136C142.712 488.398 177.448 512.003 211.519 512.003C226.072 512.003 236.493 507.86 242.066 497.445L265.717 452.181L279.407 425.981L349.747 291.37L353.578 284.019L364.867 262.36L365.889 260.424L404.656 186.189C415.741 165.348 426.877 138.279 426.877 120.189V33.351C426.876 16.653 400.467 0 379.626 0Z" fill="#EF9FFD"/>
<g style="mix-blend-mode:multiply">
<path d="M142.707 457.131C142.7 450.773 144.394 444.529 147.613 439.046L189.441 366.614L205.078 339.598V339.547L278.586 212.247L294.159 185.222L316.259 146.976C318.898 145.618 320.346 144.876 320.346 144.876C320.346 144.876 258.595 443.499 181.08 505.829C159.443 496.845 142.707 478.834 142.707 457.131Z" fill="#EF9FFD"/>
</g>
<path d="M113.995 127.465C113.312 127.465 112.658 127.194 112.175 126.711C111.693 126.229 111.422 125.574 111.422 124.892V120.413C111.435 119.739 111.712 119.098 112.193 118.626C112.674 118.155 113.321 117.891 113.994 117.891C114.668 117.891 115.315 118.155 115.796 118.626C116.277 119.098 116.554 119.739 116.567 120.413V124.892C116.567 125.574 116.296 126.228 115.814 126.711C115.331 127.193 114.677 127.465 113.995 127.465V127.465Z" fill="#4B5562"/>
<path d="M163.505 127.465C162.822 127.465 162.168 127.194 161.685 126.711C161.203 126.229 160.932 125.574 160.932 124.892V120.413C160.945 119.739 161.222 119.098 161.703 118.626C162.184 118.155 162.831 117.891 163.504 117.891C164.178 117.891 164.825 118.155 165.306 118.626C165.787 119.098 166.064 119.739 166.077 120.413V124.892C166.077 125.574 165.806 126.228 165.324 126.711C164.841 127.193 164.187 127.465 163.505 127.465V127.465Z" fill="#4B5562"/>
<path d="M138.748 129.856C137.229 129.867 135.725 129.553 134.337 128.935C132.949 128.317 131.709 127.409 130.701 126.273C130.479 126.019 130.309 125.723 130.2 125.403C130.092 125.083 130.048 124.745 130.071 124.408C130.117 123.727 130.431 123.093 130.944 122.643C131.458 122.194 132.129 121.968 132.81 122.014C133.49 122.059 134.125 122.373 134.574 122.887C135.106 123.462 135.752 123.921 136.47 124.235C137.188 124.548 137.963 124.71 138.747 124.71C139.531 124.71 140.306 124.548 141.024 124.235C141.742 123.921 142.387 123.462 142.92 122.887C143.142 122.631 143.412 122.421 143.715 122.269C144.018 122.117 144.348 122.027 144.687 122.003C145.025 121.98 145.364 122.023 145.686 122.131C146.007 122.239 146.304 122.409 146.559 122.633C146.814 122.856 147.023 123.127 147.173 123.431C147.323 123.735 147.412 124.065 147.434 124.404C147.456 124.742 147.41 125.081 147.301 125.402C147.191 125.723 147.019 126.019 146.795 126.273C145.787 127.409 144.547 128.317 143.159 128.935C141.771 129.553 140.267 129.867 138.748 129.856Z" fill="#4B5562"/>
</svg>
