<svg xmlns="http://www.w3.org/2000/svg" width="512" height="512" fill="none"><path fill="#8FA1F5" d="M132.545 67c-5.451 0-10.427.988-14.415 3.476l-65.678 39.806C42.5 116.246 38 126.197 38 136.661c0 15.4 9.952 30.843 24.4 30.843a22.584 22.584 0 0 0 12.44-3.988l14.415-8.964v253.295c0 15.912 19.428 23.888 38.819 23.888 19.391 0 38.819-7.976 38.819-23.888V91.367C166.896 76.439 148.492 67 132.545 67Z"/><path fill="#8FA1F5" d="M89.262 407.848v-99.257a295.707 295.707 0 0 0 77.635.771v98.485c0 15.909-19.426 23.888-38.819 23.888-19.393 0-38.82-7.978-38.82-23.887h.004Z" style="mix-blend-mode:multiply"/><path fill="#4B5562" d="M81.564 129.92a2.573 2.573 0 0 1-3.584-.631l-2.571-3.668a2.574 2.574 0 0 1 4.213-2.953l2.571 3.668a2.573 2.573 0 0 1-.63 3.584Zm40.549-28.419a2.575 2.575 0 0 1-3.585-.631l-2.57-3.668a2.571 2.571 0 0 1 4.213-2.953l2.571 3.668a2.576 2.576 0 0 1-.629 3.584Zm-18.904 16.169a10.665 10.665 0 0 1-4.141 1.778c-1.492.29-3.028.258-4.506-.094a2.562 2.562 0 0 1-1.587-1.166 2.57 2.57 0 0 1 2.815-3.83 5.68 5.68 0 0 0 4.465-.902 5.697 5.697 0 0 0 2.371-3.888 2.566 2.566 0 0 1 1.831-2.207 2.576 2.576 0 0 1 2.736.858 2.562 2.562 0 0 1 .55 1.897 10.665 10.665 0 0 1-4.534 7.554Z"/><path fill="#EF9FFD" d="M419.959 71H248.478c-16.409 0-32.854 11.58-32.854 23.19v74.875c0 13.032 16.903 23.197 37.184 23.197 19.816 0 38.182-10.165 38.182-23.197v-32.356h86.454v33.813l-16.913 29.266-10.826 18.793-51.111 88.514v.035l-10.872 18.785-29.085 50.361a24.782 24.782 0 0 0-3.407 12.577c0 21.737 24.152 38.15 47.842 38.15 10.119 0 17.365-2.881 21.24-10.122l16.445-31.473 9.518-18.217 48.909-93.597 2.663-5.112 7.85-15.059.71-1.346 26.956-51.617c7.707-14.491 15.45-33.313 15.45-45.891v-60.38C452.812 82.58 434.45 71 419.959 71Z"/><path fill="#EF9FFD" d="M255.226 388.85a24.783 24.783 0 0 1 3.411-12.575l29.084-50.363 10.872-18.785v-.035l51.112-88.514 10.828-18.791 15.366-26.593c1.835-.944 2.842-1.46 2.842-1.46s-42.937 207.637-96.834 250.976c-15.044-6.246-26.681-18.77-26.681-33.86Z" style="mix-blend-mode:multiply"/><path fill="#4B5562" d="M235.262 159.628a1.793 1.793 0 0 1-1.789-1.789v-3.115a1.79 1.79 0 0 1 3.578 0v3.115a1.793 1.793 0 0 1-1.789 1.789Zm34.425 0a1.791 1.791 0 0 1-1.789-1.789v-3.115a1.79 1.79 0 0 1 3.577 0v3.115c0 .474-.188.929-.523 1.265a1.793 1.793 0 0 1-1.265.524Zm-17.214 1.663a7.415 7.415 0 0 1-5.595-2.492 1.777 1.777 0 0 1-.438-1.297 1.788 1.788 0 0 1 3.131-1.057 3.95 3.95 0 0 0 4.485.937 3.95 3.95 0 0 0 1.318-.937 1.798 1.798 0 0 1 1.228-.614 1.778 1.778 0 0 1 1.302.437 1.779 1.779 0 0 1 .609 1.232 1.798 1.798 0 0 1-.445 1.299 7.414 7.414 0 0 1-5.595 2.492Z"/></svg>