<svg width="512" height="512" viewBox="0 0 512 512" fill="none" xmlns="http://www.w3.org/2000/svg">
<path d="M324.354 199.94C311.797 197.471 299.043 196.135 286.247 195.95C284.51 195.899 282.722 195.899 280.986 195.899C247.629 195.899 216.367 202.182 194.147 226.499V163.972C194.147 116.001 218.411 94.501 259.43 94.501C292.066 94.501 319.86 108.401 319.86 134.81C319.86 166.736 346.269 174.399 376.152 174.399C410.888 174.399 426.876 163.973 426.876 130.617C426.876 72.94 380.289 0 262.898 0C254.219 0 245.688 0.357998 237.357 1.017C222.756 2.17604 208.291 4.67422 194.147 8.48001C149.808 20.791 115.225 46.991 97.9081 91.488C91.6761 107.533 87.6921 125.917 86.3081 146.912C85.9501 152.429 85.7461 158.094 85.7461 163.973V348.073C85.7461 467.544 160.785 511.995 256.615 511.995C280.624 511.995 303.253 509.18 323.737 503.153H323.788C347.797 496.053 368.788 484.453 385.488 467.595C411.388 441.395 426.87 402.527 426.87 348.073V341.785C426.876 251.727 383.098 211.842 324.354 199.94ZM318.474 355.699C318.474 403.64 295.548 424.481 256.644 424.481C217.74 424.481 194.12 403.64 194.12 355.699V343.199C194.12 297.343 218.435 279.275 255.95 279.275C295.55 279.275 318.474 298.732 318.474 349.441V355.699Z" fill="#FAC8C0"/>
<g style="mix-blend-mode:multiply">
<path d="M88.8303 387.5C86.7174 374.467 85.6869 361.282 85.7493 348.079V163.979C85.7493 158.098 85.9572 152.433 86.3142 146.916C86.7809 139.819 87.5397 133.016 88.591 126.508H108C121.924 126.508 135.278 132.039 145.123 141.885C154.969 151.73 160.5 165.084 160.5 179.008V335.008C160.5 348.932 154.969 362.285 145.123 372.131C135.278 381.977 121.924 387.508 108 387.508L88.8303 387.5Z" fill="#FAC8C0"/>
</g>
<path d="M319.995 265.465C319.312 265.465 318.658 265.194 318.175 264.711C317.693 264.229 317.422 263.574 317.422 262.892V258.413C317.435 257.739 317.712 257.098 318.193 256.626C318.674 256.155 319.321 255.891 319.994 255.891C320.668 255.891 321.315 256.155 321.796 256.626C322.277 257.098 322.554 257.739 322.567 258.413V262.892C322.567 263.574 322.296 264.228 321.814 264.711C321.331 265.193 320.677 265.465 319.995 265.465V265.465Z" fill="#4B5562"/>
<path d="M369.505 265.465C368.822 265.465 368.168 265.194 367.685 264.711C367.203 264.229 366.932 263.574 366.932 262.892V258.413C366.945 257.739 367.222 257.098 367.703 256.626C368.184 256.155 368.831 255.891 369.504 255.891C370.178 255.891 370.825 256.155 371.306 256.626C371.787 257.098 372.064 257.739 372.077 258.413V262.892C372.077 263.574 371.806 264.228 371.324 264.711C370.841 265.193 370.187 265.465 369.505 265.465V265.465Z" fill="#4B5562"/>
<path d="M344.748 267.856C343.229 267.867 341.725 267.553 340.337 266.935C338.949 266.317 337.709 265.409 336.701 264.273C336.479 264.019 336.309 263.723 336.2 263.403C336.092 263.083 336.048 262.745 336.071 262.408C336.117 261.727 336.431 261.093 336.944 260.643C337.458 260.194 338.129 259.968 338.81 260.014C339.49 260.059 340.125 260.373 340.574 260.887C341.106 261.462 341.752 261.921 342.47 262.235C343.188 262.548 343.963 262.71 344.747 262.71C345.531 262.71 346.306 262.548 347.024 262.235C347.742 261.921 348.387 261.462 348.92 260.887C349.142 260.631 349.412 260.421 349.715 260.269C350.018 260.117 350.348 260.027 350.687 260.003C351.025 259.98 351.364 260.023 351.686 260.131C352.007 260.239 352.304 260.409 352.559 260.633C352.814 260.856 353.023 261.127 353.173 261.431C353.323 261.735 353.412 262.065 353.434 262.404C353.456 262.742 353.41 263.081 353.301 263.402C353.191 263.723 353.019 264.019 352.795 264.273C351.787 265.409 350.547 266.317 349.159 266.935C347.771 267.553 346.267 267.867 344.748 267.856Z" fill="#4B5562"/>
</svg>
