<svg xmlns="http://www.w3.org/2000/svg" width="512" height="512" fill="none"><path fill="#8FA1F5" d="M132.545 67c-5.451 0-10.427.988-14.415 3.476l-65.678 39.806C42.5 116.246 38 126.197 38 136.661c0 15.4 9.952 30.843 24.4 30.843a22.584 22.584 0 0 0 12.44-3.988l14.415-8.964v253.295c0 15.912 19.428 23.888 38.819 23.888 19.391 0 38.819-7.976 38.819-23.888V91.367C166.896 76.439 148.492 67 132.545 67Z"/><path fill="#8FA1F5" d="M89.262 407.848v-99.257a295.707 295.707 0 0 0 77.635.771v98.485c0 15.909-19.426 23.888-38.819 23.888-19.393 0-38.82-7.978-38.82-23.887h.004Z" style="mix-blend-mode:multiply"/><path fill="#4B5562" d="M81.564 129.92a2.573 2.573 0 0 1-3.584-.631l-2.571-3.668a2.574 2.574 0 0 1 4.213-2.953l2.571 3.668a2.573 2.573 0 0 1-.63 3.584Zm40.549-28.419a2.575 2.575 0 0 1-3.585-.631l-2.57-3.668a2.571 2.571 0 0 1 4.213-2.953l2.571 3.668a2.576 2.576 0 0 1-.629 3.584Zm-18.904 16.169a10.665 10.665 0 0 1-4.141 1.778c-1.492.29-3.028.258-4.506-.094a2.562 2.562 0 0 1-1.587-1.166 2.57 2.57 0 0 1 2.815-3.83 5.68 5.68 0 0 0 4.465-.902 5.697 5.697 0 0 0 2.371-3.888 2.566 2.566 0 0 1 1.831-2.207 2.576 2.576 0 0 1 2.736.858 2.562 2.562 0 0 1 .55 1.897 10.665 10.665 0 0 1-4.534 7.554Z"/><path fill="#FAC8C0" d="M379.224 216.192a130.757 130.757 0 0 0-24.933-2.797c-1.137-.036-2.307-.036-3.443-.036-21.825 0-42.28 4.405-56.818 21.456v-43.842c0-33.636 15.876-48.712 42.714-48.712 21.354 0 39.54 9.747 39.54 28.264 0 22.386 17.279 27.759 36.831 27.759 22.728 0 33.189-7.311 33.189-30.699 0-40.442-30.482-91.585-107.29-91.585-5.679 0-11.261.251-16.712.713a146.989 146.989 0 0 0-28.272 5.233c-29.011 8.632-51.638 27.003-62.969 58.203-4.078 11.25-6.684 24.14-7.59 38.862-.234 3.868-.367 7.84-.367 11.962v129.086c0 83.77 49.097 114.937 111.799 114.937 15.709 0 30.515-1.973 43.917-6.199h.034c15.709-4.979 29.443-13.112 40.37-24.933 16.946-18.37 27.076-45.623 27.076-83.805v-4.409c.004-63.146-28.64-91.112-67.076-99.458Zm-3.847 109.214c0 33.615-15.001 48.228-40.455 48.228-25.455 0-40.91-14.613-40.91-48.228v-8.765c0-32.152 15.91-44.821 40.455-44.821 25.911 0 40.91 13.642 40.91 49.198v4.388Z"/><path fill="#FAC8C0" d="M225.121 347.704a179.565 179.565 0 0 1-2.016-27.641V190.977c0-4.124.136-8.095.37-11.964.305-4.976.802-9.746 1.49-14.309h12.699c9.11 0 17.848 3.878 24.29 10.782 6.441 6.903 10.061 16.266 10.061 26.029v109.383c0 9.763-3.62 19.126-10.061 26.03-6.442 6.903-15.18 10.781-24.29 10.781l-12.543-.005Z" style="mix-blend-mode:multiply"/><path fill="#4B5562" d="M376.371 262.137a1.63 1.63 0 0 1-1.19-.529 1.87 1.87 0 0 1-.493-1.276v-3.14a1.87 1.87 0 0 1 .505-1.253c.314-.33.737-.516 1.178-.516.441 0 .864.186 1.179.516.315.331.496.781.504 1.253v3.14c0 .479-.177.938-.493 1.276a1.631 1.631 0 0 1-1.19.529Zm32.395 0c-.447 0-.875-.191-1.191-.529a1.87 1.87 0 0 1-.493-1.276v-3.14a1.87 1.87 0 0 1 .505-1.253c.314-.33.737-.516 1.178-.516.441 0 .864.186 1.179.516.315.331.496.781.504 1.253v3.14c0 .479-.177.938-.492 1.276a1.635 1.635 0 0 1-1.19.529Zm-16.199 1.676a6.561 6.561 0 0 1-2.886-.646 7.016 7.016 0 0 1-2.379-1.866 1.834 1.834 0 0 1-.327-.61 1.915 1.915 0 0 1-.085-.698c.03-.477.235-.922.571-1.237a1.616 1.616 0 0 1 1.221-.442c.445.032.86.253 1.154.613.349.403.771.725 1.241.945a3.51 3.51 0 0 0 2.979 0c.47-.22.893-.542 1.241-.945.145-.18.322-.327.52-.434a1.588 1.588 0 0 1 1.29-.096c.21.075.404.195.571.351.167.157.304.347.402.56.098.213.156.445.17.682a1.905 1.905 0 0 1-.418 1.311 6.997 6.997 0 0 1-2.379 1.866 6.561 6.561 0 0 1-2.886.646Z"/></svg>