<svg width="512" height="512" viewBox="0 0 512 512" fill="none" xmlns="http://www.w3.org/2000/svg">
<path d="M156.587 79C151.306 79 146.487 79.957 142.622 82.367L79 120.931C69.359 126.708 65 136.349 65 146.486C65 161.408 74.641 176.366 88.641 176.366C92.9508 176.294 97.1433 174.95 100.692 172.503L114.657 163.819V409.203C114.657 424.618 133.478 432.345 152.263 432.345C171.048 432.345 189.87 424.618 189.87 409.203V102.603C189.87 88.145 172.044 79 156.587 79Z" fill="#CEADED"/>
<path d="M328.768 79C262.609 79 211.306 109.687 211.306 192.147V319.201C211.306 401.664 262.606 432.345 328.768 432.345C394.93 432.345 446.713 401.665 446.713 319.201V192.147C446.713 109.687 394.934 79 328.768 79ZM371.921 319.2C371.921 352.285 355.621 367.144 328.768 367.144C301.915 367.144 286.102 352.285 286.102 319.2V192.147C286.102 159.069 301.923 144.203 328.768 144.203C355.613 144.203 371.921 159.069 371.921 192.147V319.2Z" fill="#CEADED"/>
<g style="mix-blend-mode:multiply">
<path d="M211.307 319.2V314.306C235.607 317.383 261.038 319.92 286.13 321.538C286.864 352.985 302.565 367.143 328.769 367.143C354.625 367.143 370.703 353.358 371.855 322.788C401.576 321.328 427.665 317.44 446.714 310.235V319.199C446.714 401.662 394.934 432.345 328.769 432.345C262.604 432.345 211.307 401.664 211.307 319.2ZM114.656 409.2V309.589C135.079 307.655 160.008 307.674 189.869 311.455V409.2C189.869 424.614 171.049 432.339 152.263 432.339C133.477 432.339 114.657 424.619 114.657 409.205L114.656 409.2Z" fill="#CEADED"/>
</g>
<path d="M307.995 120.465C307.312 120.465 306.658 120.194 306.175 119.711C305.693 119.229 305.422 118.574 305.422 117.892V113.413C305.435 112.739 305.712 112.098 306.193 111.626C306.674 111.155 307.321 110.891 307.994 110.891C308.668 110.891 309.315 111.155 309.796 111.626C310.277 112.098 310.554 112.739 310.567 113.413V117.892C310.567 118.574 310.296 119.228 309.814 119.711C309.331 120.193 308.677 120.465 307.995 120.465V120.465Z" fill="#4B5562"/>
<path d="M357.505 120.465C356.822 120.465 356.168 120.194 355.685 119.711C355.203 119.229 354.932 118.574 354.932 117.892V113.413C354.945 112.739 355.222 112.098 355.703 111.626C356.184 111.155 356.831 110.891 357.504 110.891C358.178 110.891 358.825 111.155 359.306 111.626C359.787 112.098 360.064 112.739 360.077 113.413V117.892C360.077 118.574 359.806 119.228 359.324 119.711C358.841 120.193 358.187 120.465 357.505 120.465V120.465Z" fill="#4B5562"/>
<path d="M332.748 122.856C331.229 122.867 329.725 122.553 328.337 121.935C326.949 121.317 325.709 120.409 324.701 119.273C324.479 119.019 324.309 118.723 324.2 118.403C324.092 118.083 324.048 117.745 324.071 117.408C324.117 116.727 324.431 116.093 324.944 115.643C325.458 115.194 326.129 114.968 326.81 115.014C327.49 115.059 328.125 115.373 328.574 115.887C329.106 116.462 329.752 116.921 330.47 117.235C331.188 117.548 331.963 117.71 332.747 117.71C333.531 117.71 334.306 117.548 335.024 117.235C335.742 116.921 336.387 116.462 336.92 115.887C337.142 115.631 337.412 115.421 337.715 115.269C338.018 115.117 338.348 115.027 338.687 115.003C339.025 114.98 339.364 115.023 339.686 115.131C340.007 115.239 340.304 115.409 340.559 115.633C340.814 115.856 341.023 116.127 341.173 116.431C341.323 116.735 341.412 117.065 341.434 117.404C341.456 117.742 341.41 118.081 341.301 118.402C341.191 118.723 341.019 119.019 340.795 119.273C339.787 120.409 338.547 121.317 337.159 121.935C335.771 122.553 334.267 122.867 332.748 122.856Z" fill="#4B5562"/>
</svg>
