<svg width="514" height="512" viewBox="0 0 514 512" fill="none" xmlns="http://www.w3.org/2000/svg">
<path d="M387.942 68C317.364 68 262.633 100.737 262.633 188.706V324.247C262.633 412.219 317.363 444.947 387.942 444.947C458.521 444.947 513.766 412.217 513.766 324.247V188.706C513.766 100.737 458.528 68 387.942 68ZM433.975 324.247C433.975 359.542 416.582 375.394 387.939 375.394C359.296 375.394 342.425 359.542 342.425 324.247V188.706C342.425 153.419 359.303 137.559 387.942 137.559C416.581 137.559 433.975 153.418 433.975 188.706V324.247Z" fill="#7FDBDE"/>
<path d="M172.211 329.358V319.64C172.211 285.376 151.241 278.727 123.111 278.727C105.721 278.727 100.095 263.383 100.095 248.035C100.095 232.687 105.721 217.347 123.111 217.347C142.547 217.347 163.002 214.79 163.002 173.361C163.002 143.696 146.127 136.536 125.157 136.536C100.095 136.536 87.3091 142.674 87.3091 162.621C87.3091 180.011 79.6331 191.774 49.9721 191.774C13.1471 191.774 8.54007 184.102 8.54007 159.552C8.54007 119.658 37.1821 68 125.157 68C190.113 68 239.214 91.527 239.214 160.575C239.214 197.912 225.404 232.692 199.831 244.455C230.007 255.711 252 278.212 252 319.64V329.358C252 413.242 194.2 444.949 122.6 444.949C34.6321 444.949 0.87207 391.249 0.87207 348.286C0.87207 325.266 10.5901 319.129 38.7241 319.129C71.4581 319.129 79.6371 326.293 79.6371 345.729C79.6371 369.768 102.145 375.394 125.161 375.394C159.936 375.39 172.211 362.612 172.211 329.358Z" fill="#7FDBDE"/>
<g style="mix-blend-mode:multiply">
<path d="M266.678 362.322C292.107 354.057 318.186 347.945 344.639 344.054C350.085 365.533 365.356 375.393 387.939 375.393C410.886 375.393 426.613 365.216 431.958 343.017C458.68 347.818 484.084 358.219 506.501 373.536C489.308 424.777 443.353 444.949 387.938 444.949C328.654 444.949 280.551 421.858 266.678 362.322ZM120.867 444.941C144.11 423.841 185.593 392.582 246.741 369.358C230.956 423.535 181.441 444.949 122.599 444.949C122.017 444.949 121.44 444.947 120.867 444.941Z" fill="#7FDBDE"/>
</g>
<path d="M49.4922 131.854C48.8637 132.121 48.1549 132.127 47.5219 131.871C46.8888 131.616 46.3832 131.119 46.1164 130.49L44.3651 126.365C44.114 125.74 44.1182 125.041 44.3768 124.418C44.6354 123.796 45.1278 123.3 45.7482 123.036C46.3686 122.773 47.0675 122.763 47.6949 123.01C48.3223 123.256 48.8281 123.738 49.1037 124.354L50.855 128.479C51.1217 129.107 51.128 129.816 50.8724 130.449C50.6169 131.082 50.1204 131.587 49.4922 131.854V131.854Z" fill="#4B5562"/>
<path d="M95.0908 112.496C94.4623 112.763 93.7536 112.769 93.1205 112.513C92.4874 112.257 91.9819 111.761 91.715 111.132L89.9637 107.007C89.7126 106.381 89.7168 105.682 89.9754 105.06C90.234 104.438 90.7264 103.941 91.3468 103.678C91.9672 103.415 92.6662 103.405 93.2936 103.651C93.9209 103.898 94.4267 104.38 94.7023 104.995L96.4536 109.12C96.7203 109.749 96.7266 110.457 96.4711 111.09C96.2155 111.723 95.719 112.229 95.0908 112.496V112.496Z" fill="#4B5562"/>
<path d="M73.2247 124.378C71.8298 124.982 70.3218 125.281 68.8019 125.254C67.282 125.228 65.7854 124.877 64.4124 124.224C64.1082 124.077 63.836 123.871 63.6113 123.619C63.3866 123.366 63.2139 123.072 63.1029 122.753C62.8789 122.108 62.9201 121.401 63.2175 120.786C63.515 120.172 64.0443 119.701 64.6891 119.477C65.3338 119.253 66.0412 119.294 66.6555 119.591C67.3707 119.913 68.1446 120.083 68.9287 120.091C69.7127 120.099 70.49 119.945 71.2118 119.639C71.9335 119.333 72.5842 118.88 73.1229 118.311C73.6616 117.741 74.0767 117.066 74.3422 116.328C74.4462 116.005 74.6129 115.706 74.8329 115.448C75.0528 115.19 75.3216 114.977 75.6238 114.823C75.926 114.669 76.2557 114.577 76.5939 114.55C76.932 114.524 77.2721 114.565 77.5944 114.671C77.9167 114.776 78.215 114.945 78.4721 115.166C78.7292 115.387 78.94 115.657 79.0924 115.96C79.2449 116.263 79.336 116.593 79.3604 116.932C79.3849 117.27 79.3423 117.61 79.235 117.931C78.7506 119.372 77.9637 120.693 76.9271 121.805C75.8905 122.917 74.6281 123.794 73.2247 124.378Z" fill="#4B5562"/>
</svg>
