<svg xmlns="http://www.w3.org/2000/svg" width="512" height="512" fill="none"><path fill="#8FA1F5" d="M132.545 67c-5.451 0-10.427.988-14.415 3.476l-65.678 39.806C42.5 116.246 38 126.197 38 136.661c0 15.4 9.952 30.843 24.4 30.843a22.584 22.584 0 0 0 12.44-3.988l14.415-8.964v253.295c0 15.912 19.428 23.888 38.819 23.888 19.391 0 38.819-7.976 38.819-23.888V91.367C166.896 76.439 148.492 67 132.545 67Z"/><path fill="#8FA1F5" d="M89.262 407.848v-99.257a295.707 295.707 0 0 0 77.635.771v98.485c0 15.909-19.426 23.888-38.819 23.888-19.393 0-38.82-7.978-38.82-23.887h.004Z" style="mix-blend-mode:multiply"/><path fill="#4B5562" d="M81.564 129.92a2.573 2.573 0 0 1-3.584-.631l-2.571-3.668a2.574 2.574 0 0 1 4.213-2.953l2.571 3.668a2.573 2.573 0 0 1-.63 3.584Zm40.548-28.419a2.575 2.575 0 0 1-3.584-.631l-2.571-3.668a2.578 2.578 0 0 1-.394-1.906 2.575 2.575 0 0 1 4.608-1.047l2.571 3.668a2.572 2.572 0 0 1-.63 3.584Zm-18.903 16.169a10.665 10.665 0 0 1-4.141 1.778c-1.492.29-3.028.258-4.506-.094a2.562 2.562 0 0 1-1.587-1.166 2.57 2.57 0 0 1 2.815-3.83 5.68 5.68 0 0 0 4.465-.902 5.697 5.697 0 0 0 2.371-3.888 2.566 2.566 0 0 1 1.831-2.207 2.576 2.576 0 0 1 2.736.858 2.562 2.562 0 0 1 .55 1.897 10.665 10.665 0 0 1-4.534 7.554Z"/><path fill="#EDA1AB" d="M362.844 318.234v-9.565c0-33.723-19.026-40.268-44.548-40.268-15.777 0-20.882-15.102-20.882-30.208 0-15.105 5.105-30.203 20.882-30.203 17.634 0 36.192-2.518 36.192-43.292 0-29.197-15.31-36.244-34.334-36.244-22.738 0-34.339 6.04-34.339 25.673 0 17.115-6.964 28.694-33.875 28.694-33.411 0-37.591-7.551-37.591-31.714 0-39.264 25.984-90.107 105.807-90.107 58.933 0 103.481 23.156 103.481 91.114 0 36.747-12.529 70.978-35.731 82.556 27.379 11.078 47.333 33.224 47.333 73.998v9.565c0 82.56-52.436 113.763-117.406 113.763-79.813 0-110.443-52.852-110.443-95.137 0-22.656 8.817-28.694 34.343-28.694 29.698 0 37.12 7.051 37.12 26.176 0 23.659 20.421 29.197 41.303 29.197 31.551.001 42.688-12.58 42.688-45.304Z"/><path fill="#EDA1AB" d="M381.116 347.221v-47.824c.001-10.845 3.399-21.367 9.635-29.842 6.237-8.476 14.942-14.401 24.691-16.805 12.219 12.747 19.793 30.796 19.793 55.919v9.565c0 32.592-8.173 57.183-22.063 75.009-9.231-2.844-17.355-8.876-23.14-17.182-5.785-8.305-8.915-18.43-8.916-28.84Z" style="mix-blend-mode:multiply"/><path fill="#4B5562" d="M276.911 102.64c-.456 0-.893-.197-1.216-.546a1.95 1.95 0 0 1-.503-1.319V97.53c.009-.488.194-.953.515-1.295a1.65 1.65 0 0 1 1.203-.533c.45 0 .882.192 1.204.533.321.342.506.807.515 1.295v3.245c0 .495-.181.969-.504 1.318-.322.35-.759.547-1.214.547Zm33.071 0c-.456 0-.893-.197-1.216-.546a1.95 1.95 0 0 1-.503-1.319V97.53c.009-.488.194-.953.515-1.295a1.65 1.65 0 0 1 1.203-.533c.45 0 .882.192 1.204.533.321.342.506.807.515 1.295v3.245c0 .495-.181.969-.504 1.318-.322.35-.759.547-1.214.547Zm-16.537 1.733a6.657 6.657 0 0 1-2.947-.667 7.182 7.182 0 0 1-2.428-1.929 1.925 1.925 0 0 1-.335-.631 2.018 2.018 0 0 1-.086-.721c.03-.493.24-.953.583-1.278.343-.326.792-.49 1.246-.457.455.033.879.26 1.179.633a3.83 3.83 0 0 0 1.266.977c.48.227.998.344 1.521.344a3.55 3.55 0 0 0 1.521-.344c.48-.228.911-.56 1.267-.977.148-.186.328-.338.531-.448a1.592 1.592 0 0 1 1.316-.1c.215.079.413.202.583.364.171.161.31.358.411.578a2.002 2.002 0 0 1 .085 1.429 1.913 1.913 0 0 1-.338.631 7.18 7.18 0 0 1-2.429 1.928 6.64 6.64 0 0 1-2.946.668Z"/></svg>