<svg width="513" height="512" viewBox="0 0 513 512" fill="none" xmlns="http://www.w3.org/2000/svg">
<path d="M53.3973 155C50.6068 154.884 47.8395 155.551 45.4083 156.926L9.00827 178.988C6.49352 180.492 4.42551 182.64 3.01751 185.21C1.60951 187.78 0.912475 190.679 0.998276 193.608C0.998276 202.145 6.51427 210.702 14.5233 210.702C16.9888 210.66 19.3872 209.892 21.4173 208.492L29.4063 203.524V343.908C29.4063 352.727 40.1733 357.147 50.9213 357.147C61.6693 357.147 72.4363 352.726 72.4363 343.908V168.508C72.4383 160.232 62.2393 155 53.3973 155Z" fill="#B0DCFD"/>
<path d="M151.902 155C114.053 155 84.7021 172.556 84.7021 219.731V292.418C84.7021 339.595 114.052 357.147 151.902 357.147C189.752 357.147 219.378 339.595 219.378 292.418V219.731C219.378 172.556 189.755 155 151.902 155ZM176.59 292.419C176.59 311.347 167.262 319.848 151.902 319.848C136.542 319.848 127.493 311.348 127.493 292.419V219.731C127.493 200.807 136.544 192.303 151.902 192.303C167.26 192.303 176.59 200.803 176.59 219.731V292.419Z" fill="#B0DCFD"/>
<path d="M298.627 155C260.778 155 231.427 172.556 231.427 219.731V292.418C231.427 339.595 260.777 357.147 298.627 357.147C336.477 357.147 366.103 339.595 366.103 292.418V219.731C366.103 172.556 336.48 155 298.627 155ZM323.315 292.419C323.315 311.347 313.987 319.848 298.627 319.848C283.267 319.848 274.218 311.348 274.218 292.419V219.731C274.218 200.807 283.269 192.303 298.627 192.303C313.985 192.303 323.315 200.803 323.315 219.731V292.419Z" fill="#B0DCFD"/>
<path d="M445.524 155C407.675 155 378.324 172.556 378.324 219.731V292.418C378.324 339.595 407.674 357.147 445.524 357.147C483.374 357.147 513 339.595 513 292.418V219.731C513 172.556 483.377 155 445.524 155ZM470.212 292.419C470.212 311.347 460.884 319.848 445.524 319.848C430.164 319.848 421.115 311.348 421.115 292.419V219.731C421.115 200.807 430.166 192.303 445.524 192.303C460.882 192.303 470.212 200.803 470.212 219.731V292.419Z" fill="#B0DCFD"/>
<g style="mix-blend-mode:multiply">
<path d="M378.323 292.421V287.522C394.469 285.583 408.67 282.904 421.116 279.245V292.417C421.116 311.341 430.167 319.844 445.523 319.844C460.879 319.844 470.21 311.344 470.21 292.417V258.543C487.421 251.959 501.697 249.156 512.999 249.333V292.417C512.999 339.592 483.378 357.143 445.523 357.143C407.668 357.143 378.323 339.6 378.323 292.421ZM231.428 292.421V292.154C246.468 292.253 260.731 292.281 274.217 292.239V292.421C274.217 311.345 283.269 319.848 298.628 319.848C313.987 319.848 323.315 311.348 323.315 292.421V291.393C338.797 290.859 353.03 290.039 366.101 288.822V292.422C366.101 339.597 336.48 357.148 298.628 357.148C260.776 357.148 231.428 339.6 231.428 292.421ZM84.7012 292.421V292.154C96.9312 291.76 111.092 291.499 127.49 291.423V292.423C127.49 311.347 136.545 319.85 151.901 319.85C167.257 319.85 176.588 311.35 176.588 292.423V291.665C191.481 291.812 205.744 291.946 219.377 292.065V292.421C219.377 339.596 189.756 357.148 151.901 357.148C114.046 357.148 84.7002 339.6 84.7002 292.421H84.7012ZM29.4072 343.906V295.987C38.9902 294.715 52.7302 293.487 72.4392 292.618V343.906C72.4392 352.727 61.6693 357.147 50.9233 357.147C40.1773 357.147 29.4072 352.728 29.4072 343.906Z" fill="#B0DCFD"/>
</g>
<path d="M275.995 180.465C275.312 180.465 274.658 180.194 274.175 179.711C273.693 179.229 273.422 178.574 273.422 177.892V173.413C273.435 172.739 273.712 172.098 274.193 171.626C274.674 171.155 275.321 170.891 275.994 170.891C276.668 170.891 277.315 171.155 277.796 171.626C278.277 172.098 278.554 172.739 278.567 173.413V177.892C278.567 178.574 278.296 179.228 277.814 179.711C277.331 180.193 276.677 180.465 275.995 180.465V180.465Z" fill="#4B5562"/>
<path d="M325.505 180.465C324.822 180.465 324.168 180.194 323.685 179.711C323.203 179.229 322.932 178.574 322.932 177.892V173.413C322.945 172.739 323.222 172.098 323.703 171.626C324.184 171.155 324.831 170.891 325.504 170.891C326.178 170.891 326.825 171.155 327.306 171.626C327.787 172.098 328.063 172.739 328.077 173.413V177.892C328.077 178.574 327.806 179.228 327.323 179.711C326.841 180.193 326.187 180.465 325.505 180.465V180.465Z" fill="#4B5562"/>
<path d="M300.748 182.856C299.228 182.867 297.724 182.553 296.337 181.935C294.949 181.317 293.709 180.409 292.701 179.273C292.478 179.019 292.308 178.723 292.2 178.403C292.092 178.083 292.048 177.745 292.071 177.408C292.116 176.727 292.431 176.093 292.944 175.643C293.458 175.194 294.129 174.968 294.809 175.014C295.49 175.059 296.125 175.373 296.574 175.887C297.106 176.462 297.752 176.921 298.47 177.235C299.188 177.548 299.963 177.71 300.747 177.71C301.53 177.71 302.306 177.548 303.024 177.235C303.742 176.921 304.387 176.462 304.92 175.887C305.141 175.631 305.412 175.421 305.715 175.269C306.018 175.117 306.348 175.027 306.686 175.003C307.025 174.98 307.364 175.023 307.685 175.131C308.007 175.239 308.304 175.409 308.559 175.633C308.814 175.856 309.023 176.127 309.173 176.431C309.323 176.735 309.412 177.065 309.433 177.404C309.455 177.742 309.41 178.081 309.301 178.402C309.191 178.723 309.019 179.019 308.795 179.273C307.786 180.409 306.547 181.317 305.159 181.935C303.771 182.553 302.267 182.867 300.748 182.856Z" fill="#4B5562"/>
</svg>
