<svg width="512" height="512" viewBox="0 0 512 512" fill="none" xmlns="http://www.w3.org/2000/svg">
<path d="M318.644 354.996V341.796C318.644 295.256 290.161 286.224 251.952 286.224C228.332 286.224 220.69 265.383 220.69 244.536C220.69 223.689 228.332 202.853 251.952 202.853C278.352 202.853 306.134 199.379 306.134 143.108C306.134 102.815 283.214 93.089 254.734 93.089C220.693 93.089 203.326 101.425 203.326 128.519C203.326 152.139 192.9 168.119 152.612 168.119C102.593 168.119 96.336 157.698 96.336 124.352C96.336 70.165 135.236 -0.000976562 254.736 -0.000976562C342.964 -0.000976562 409.656 31.956 409.656 125.741C409.656 176.455 390.899 223.695 356.164 239.673C397.152 254.962 427.024 285.524 427.024 341.795V354.995C427.024 468.932 348.524 511.995 251.258 511.995C131.773 511.995 85.917 439.056 85.917 380.7C85.917 349.433 99.117 341.1 137.331 341.1C181.792 341.1 192.903 350.831 192.903 377.225C192.903 409.876 223.475 417.518 254.737 417.518C301.971 417.52 318.644 400.157 318.644 354.996Z" fill="#EDA1AB"/>
<g style="mix-blend-mode:multiply">
<path d="M345.999 395V329C346 314.034 351.086 299.513 360.423 287.816C369.759 276.12 382.793 267.943 397.386 264.625C415.68 282.217 427.019 307.125 427.019 341.796V354.996C427.019 399.975 414.782 433.913 393.989 458.513C380.169 454.589 368.006 446.264 359.346 434.802C350.685 423.34 345.999 409.366 345.999 395Z" fill="#EDA1AB"/>
</g>
<path d="M189.995 57.4649C189.312 57.4649 188.658 57.1938 188.175 56.7113C187.693 56.2288 187.422 55.5743 187.422 54.8919V50.4129C187.435 49.7394 187.712 49.098 188.193 48.6264C188.674 48.1548 189.321 47.8906 189.994 47.8906C190.668 47.8906 191.315 48.1548 191.796 48.6264C192.277 49.098 192.554 49.7394 192.567 50.4129V54.8919C192.567 55.5741 192.296 56.2284 191.814 56.7109C191.331 57.1934 190.677 57.4646 189.995 57.4649V57.4649Z" fill="#4B5562"/>
<path d="M239.505 57.4649C238.822 57.4649 238.168 57.1938 237.685 56.7113C237.203 56.2288 236.932 55.5743 236.932 54.8919V50.4129C236.945 49.7394 237.222 49.098 237.703 48.6264C238.184 48.1548 238.831 47.8906 239.504 47.8906C240.178 47.8906 240.825 48.1548 241.306 48.6264C241.787 49.098 242.064 49.7394 242.077 50.4129V54.8919C242.077 55.5741 241.806 56.2284 241.324 56.7109C240.841 57.1934 240.187 57.4646 239.505 57.4649V57.4649Z" fill="#4B5562"/>
<path d="M214.748 59.856C213.229 59.8671 211.725 59.5531 210.337 58.9351C208.949 58.3171 207.709 57.4094 206.701 56.273C206.479 56.0187 206.309 55.7231 206.2 55.4031C206.092 55.083 206.048 54.7448 206.071 54.4078C206.117 53.7272 206.431 53.0925 206.944 52.6435C207.458 52.1945 208.129 51.9679 208.81 52.0136C209.49 52.0592 210.125 52.3734 210.574 52.887C211.106 53.462 211.752 53.9208 212.47 54.2346C213.188 54.5483 213.963 54.7103 214.747 54.7103C215.531 54.7103 216.306 54.5483 217.024 54.2346C217.742 53.9208 218.387 53.462 218.92 52.887C219.142 52.6306 219.412 52.4205 219.715 52.2689C220.018 52.1172 220.348 52.027 220.687 52.0033C221.025 51.9797 221.364 52.0231 221.686 52.1311C222.007 52.2391 222.304 52.4095 222.559 52.6325C222.814 52.8556 223.023 53.1269 223.173 53.4309C223.323 53.7348 223.412 54.0655 223.434 54.4038C223.456 54.742 223.41 55.0813 223.301 55.4021C223.191 55.7229 223.019 56.0189 222.795 56.273C221.787 57.4093 220.547 58.3169 219.159 58.9349C217.771 59.5529 216.267 59.8669 214.748 59.856Z" fill="#4B5562"/>
</svg>
