<svg xmlns="http://www.w3.org/2000/svg" width="512" height="512" fill="none"><path fill="#8FA1F5" d="M132.545 67c-5.451 0-10.427.988-14.415 3.476l-65.678 39.806C42.5 116.246 38 126.197 38 136.661c0 15.4 9.952 30.843 24.4 30.843a22.584 22.584 0 0 0 12.44-3.988l14.415-8.964v253.295c0 15.912 19.428 23.888 38.819 23.888 19.391 0 38.819-7.976 38.819-23.888V91.367C166.896 76.439 148.492 67 132.545 67Z"/><path fill="#8FA1F5" d="M89.262 407.848v-99.257a295.707 295.707 0 0 0 77.635.771v98.485c0 15.909-19.426 23.888-38.819 23.888-19.393 0-38.82-7.978-38.82-23.887h.004Z" style="mix-blend-mode:multiply"/><path fill="#4B5562" d="M81.564 129.92a2.573 2.573 0 0 1-3.584-.631l-2.571-3.668a2.574 2.574 0 0 1 4.213-2.953l2.571 3.668a2.573 2.573 0 0 1-.63 3.584Zm40.548-28.419a2.575 2.575 0 0 1-3.584-.631l-2.571-3.668a2.578 2.578 0 0 1-.394-1.906 2.575 2.575 0 0 1 4.608-1.047l2.571 3.668a2.572 2.572 0 0 1-.63 3.584Zm-18.903 16.169a10.665 10.665 0 0 1-4.141 1.778c-1.492.29-3.028.258-4.506-.094a2.562 2.562 0 0 1-1.587-1.166 2.57 2.57 0 0 1 2.815-3.83 5.68 5.68 0 0 0 4.465-.902 5.697 5.697 0 0 0 2.371-3.888 2.566 2.566 0 0 1 1.831-2.207 2.576 2.576 0 0 1 2.736.858 2.562 2.562 0 0 1 .55 1.897 10.665 10.665 0 0 1-4.534 7.554Z"/><path fill="#6FCE91" d="M336.735 59C394.121 59 452 95.944 452 163.769c0 109.83-152.857 145.765-152.857 191.827v4.553h129.603c12.37 0 23.253 15.686 23.253 33.91 0 18.225-10.883 34.923-23.253 34.923H252.638c-13.851 0-33.638-9.616-33.638-24.297V355.6c0-79.467 155.829-125.015 155.829-189.297 0-16.196-9.897-35.936-37.6-35.936-19.784 0-37.101 10.123-37.101 37.96 0 14.678-15.336 28.85-40.561 28.85-19.791 0-34.631-9.111-34.631-40.997 0-61.751 55.408-97.18 111.799-97.18Z"/><path fill="#4B5562" d="M351.298 106.803c-.482 0-.944-.196-1.285-.545a1.878 1.878 0 0 1-.532-1.314v-3.237c.009-.487.205-.95.545-1.291a1.793 1.793 0 0 1 1.272-.532c.476 0 .932.191 1.272.532.34.341.535.804.545 1.291v3.237c0 .493-.192.965-.532 1.314a1.796 1.796 0 0 1-1.285.545Zm34.968 0c-.482 0-.944-.196-1.285-.545a1.878 1.878 0 0 1-.532-1.314v-3.237c.009-.487.205-.95.545-1.291a1.793 1.793 0 0 1 1.272-.532c.476 0 .932.191 1.272.532.34.341.535.804.545 1.291v3.237c0 .493-.192.965-.532 1.314a1.796 1.796 0 0 1-1.285.545Zm-17.485 1.728a7.389 7.389 0 0 1-3.116-.665 7.547 7.547 0 0 1-2.568-1.924 1.883 1.883 0 0 1 .172-2.623 1.794 1.794 0 0 1 1.318-.455c.48.033.928.26 1.246.631.376.416.832.747 1.339.974a3.932 3.932 0 0 0 3.216 0 4.018 4.018 0 0 0 1.339-.974 1.79 1.79 0 0 1 2.571-.184 1.863 1.863 0 0 1 .617 1.28 1.88 1.88 0 0 1-.451 1.351 7.547 7.547 0 0 1-2.568 1.924 7.385 7.385 0 0 1-3.115.665Z"/><path fill="#6FCE91" d="M306.314 393h84.754c4.638 0 9.23.935 13.514 2.75a35.273 35.273 0 0 1 11.457 7.833 36.202 36.202 0 0 1 7.655 11.722 36.849 36.849 0 0 1 2.688 13.826H271c0-9.582 3.721-18.772 10.343-25.548 6.623-6.776 15.605-10.583 24.971-10.583Z" style="mix-blend-mode:multiply"/></svg>