<svg width="512" height="512" viewBox="0 0 512 512" fill="none" xmlns="http://www.w3.org/2000/svg">
<path d="M122.727 67.999C182.547 67.999 242.879 105.638 242.879 174.74C242.879 286.64 83.54 323.25 83.54 370.178V374.819H218.64C231.54 374.819 242.88 390.801 242.88 409.368C242.88 427.935 231.536 444.948 218.64 444.948H35.065C20.627 444.948 0 435.148 0 420.193V370.179C0 289.217 162.436 242.808 162.436 177.319C162.436 160.819 152.119 140.707 123.242 140.707C102.619 140.707 84.568 151.02 84.568 179.381C84.568 194.335 68.583 208.774 42.288 208.774C21.658 208.774 6.18799 199.492 6.18799 167.006C6.18599 104.095 63.946 67.999 122.727 67.999Z" fill="#F29EC8"/>
<path d="M385.942 68C315.364 68 260.633 100.737 260.633 188.706V324.247C260.633 412.219 315.363 444.947 385.942 444.947C456.521 444.947 511.766 412.217 511.766 324.247V188.706C511.766 100.737 456.528 68 385.942 68ZM431.975 324.247C431.975 359.542 414.582 375.394 385.939 375.394C357.296 375.394 340.425 359.542 340.425 324.247V188.706C340.425 153.419 357.303 137.559 385.942 137.559C414.581 137.559 431.975 153.418 431.975 188.706V324.247Z" fill="#F29EC8"/>
<g style="mix-blend-mode:multiply">
<path d="M267.125 141.605C283.604 88.7537 329.751 68.0051 385.941 68.0051C423.271 68.0051 456.311 77.1609 479.156 98.8049C413.084 127.151 341.923 141.72 270.027 141.618C269.056 141.612 268.093 141.61 267.125 141.605ZM42.1875 94.0891C63.9995 77.0891 93.2315 68.0022 122.725 68.0022C171.825 68.0022 221.263 93.3508 237.411 140.645C149.273 135.426 79.1815 110.299 42.1885 94.0891H42.1875Z" fill="#F29EC8"/>
</g>
<path d="M115.995 272.465C115.312 272.465 114.658 272.194 114.175 271.711C113.693 271.229 113.422 270.574 113.422 269.892V265.413C113.435 264.739 113.712 264.098 114.193 263.626C114.674 263.155 115.321 262.891 115.994 262.891C116.668 262.891 117.315 263.155 117.796 263.626C118.277 264.098 118.554 264.739 118.567 265.413V269.892C118.567 270.574 118.296 271.228 117.814 271.711C117.331 272.193 116.677 272.465 115.995 272.465V272.465Z" fill="#4B5562"/>
<path d="M165.505 272.465C164.822 272.465 164.168 272.194 163.685 271.711C163.203 271.229 162.932 270.574 162.932 269.892V265.413C162.945 264.739 163.222 264.098 163.703 263.626C164.184 263.155 164.831 262.891 165.504 262.891C166.178 262.891 166.825 263.155 167.306 263.626C167.787 264.098 168.064 264.739 168.077 265.413V269.892C168.077 270.574 167.806 271.228 167.324 271.711C166.841 272.193 166.187 272.465 165.505 272.465V272.465Z" fill="#4B5562"/>
<path d="M140.748 274.856C139.229 274.867 137.725 274.553 136.337 273.935C134.949 273.317 133.709 272.409 132.701 271.273C132.479 271.019 132.309 270.723 132.2 270.403C132.092 270.083 132.048 269.745 132.071 269.408C132.117 268.727 132.431 268.093 132.944 267.643C133.458 267.194 134.129 266.968 134.81 267.014C135.49 267.059 136.125 267.373 136.574 267.887C137.106 268.462 137.752 268.921 138.47 269.235C139.188 269.548 139.963 269.71 140.747 269.71C141.531 269.71 142.306 269.548 143.024 269.235C143.742 268.921 144.387 268.462 144.92 267.887C145.142 267.631 145.412 267.421 145.715 267.269C146.018 267.117 146.348 267.027 146.687 267.003C147.025 266.98 147.364 267.023 147.686 267.131C148.007 267.239 148.304 267.409 148.559 267.633C148.814 267.856 149.023 268.127 149.173 268.431C149.323 268.735 149.412 269.065 149.434 269.404C149.456 269.742 149.41 270.081 149.301 270.402C149.191 270.723 149.019 271.019 148.795 271.273C147.787 272.409 146.547 273.317 145.159 273.935C143.771 274.553 142.267 274.867 140.748 274.856Z" fill="#4B5562"/>
</svg>
