<svg width="512" height="512" viewBox="0 0 512 512" fill="none" xmlns="http://www.w3.org/2000/svg">
<path d="M259.93 0C341.182 0 423.13 51.124 423.13 144.983C423.13 296.971 206.705 346.699 206.705 410.441V416.741H390.205C407.72 416.741 423.129 438.448 423.129 463.668C423.129 488.888 407.72 511.996 390.205 511.996H140.861C121.25 511.996 93.2341 498.688 93.2341 478.372V410.446C93.2341 300.477 313.866 237.446 313.866 148.49C313.866 126.077 299.853 98.761 260.63 98.761C232.619 98.761 208.1 112.769 208.1 151.291C208.1 171.603 186.387 191.214 150.672 191.214C122.65 191.214 101.638 178.607 101.638 134.481C101.639 49.028 180.089 0 259.93 0Z" fill="#6FCE91"/>
<path d="M230.995 56.4649C230.312 56.4649 229.658 56.1938 229.175 55.7113C228.693 55.2288 228.422 54.5743 228.422 53.8919V49.4129C228.435 48.7394 228.712 48.098 229.193 47.6264C229.674 47.1548 230.321 46.8906 230.994 46.8906C231.668 46.8906 232.315 47.1548 232.796 47.6264C233.277 48.098 233.554 48.7394 233.567 49.4129V53.8919C233.567 54.5741 233.296 55.2284 232.814 55.7109C232.331 56.1934 231.677 56.4646 230.995 56.4649V56.4649Z" fill="#4B5562"/>
<path d="M280.505 56.4649C279.822 56.4649 279.168 56.1938 278.685 55.7113C278.203 55.2288 277.932 54.5743 277.932 53.8919V49.4129C277.945 48.7394 278.222 48.098 278.703 47.6264C279.184 47.1548 279.831 46.8906 280.504 46.8906C281.178 46.8906 281.825 47.1548 282.306 47.6264C282.787 48.098 283.064 48.7394 283.077 49.4129V53.8919C283.077 54.5741 282.806 55.2284 282.324 55.7109C281.841 56.1934 281.187 56.4646 280.505 56.4649V56.4649Z" fill="#4B5562"/>
<path d="M255.748 58.856C254.229 58.8671 252.725 58.5531 251.337 57.9351C249.949 57.3171 248.709 56.4094 247.701 55.273C247.479 55.0187 247.309 54.7231 247.2 54.4031C247.092 54.083 247.048 53.7448 247.071 53.4078C247.117 52.7272 247.431 52.0925 247.944 51.6435C248.458 51.1945 249.129 50.9679 249.81 51.0136C250.49 51.0592 251.125 51.3734 251.574 51.887C252.106 52.462 252.752 52.9208 253.47 53.2346C254.188 53.5483 254.963 53.7103 255.747 53.7103C256.531 53.7103 257.306 53.5483 258.024 53.2346C258.742 52.9208 259.387 52.462 259.92 51.887C260.142 51.6306 260.412 51.4205 260.715 51.2689C261.018 51.1172 261.348 51.027 261.687 51.0033C262.025 50.9797 262.364 51.0231 262.686 51.1311C263.007 51.2391 263.304 51.4095 263.559 51.6325C263.814 51.8556 264.023 52.1269 264.173 52.4309C264.323 52.7348 264.412 53.0655 264.434 53.4038C264.456 53.742 264.41 54.0813 264.301 54.4021C264.191 54.7229 264.019 55.0189 263.795 55.273C262.787 56.4093 261.547 57.3169 260.159 57.9349C258.771 58.5529 257.267 58.8669 255.748 58.856Z" fill="#4B5562"/>
<g style="mix-blend-mode:multiply">
<path d="M203 459H323C329.566 459 336.068 460.293 342.134 462.806C348.2 465.319 353.712 469.002 358.355 473.645C362.998 478.288 366.681 483.8 369.194 489.866C371.707 495.932 373 502.434 373 509V548H153V509C153 495.739 158.268 483.021 167.645 473.645C177.021 464.268 189.739 459 203 459V459Z" fill="#6FCE91"/>
</g>
</svg>
