<svg xmlns="http://www.w3.org/2000/svg" width="512" height="512" fill="none"><path fill="#50E2CE" d="m496.5 182.475-106.921-81.399c-15.882-12.091-38.739-.765-38.739 19.2v41.066H52.416A52.415 52.415 0 0 0 0 213.758v220.877a11.838 11.838 0 0 0 12.963 11.784 11.838 11.838 0 0 0 6.044-2.366l81.158-61.786a11.833 11.833 0 0 0 4.666-9.418V266.175h246.007v41.07c0 19.96 22.857 31.286 38.739 19.2l106.92-81.4a39.316 39.316 0 0 0 0-62.566l.003-.004Z"/><path fill="#00AE8E" d="M36.521 213.758a52.416 52.416 0 0 1 52.416-52.416H52.416A52.415 52.415 0 0 0 0 213.758v220.876a11.84 11.84 0 0 0 12.964 11.782 11.837 11.837 0 0 0 6.043-2.365l17.514-13.334V213.758Z"/></svg>