<svg xmlns="http://www.w3.org/2000/svg" width="513" height="512" fill="none"><path fill="#7CA1DC" d="M205.386 305.612c-75.457-75.457-85.64-191.94-29.786-278.313 9.916-15.333-6.109-34.313-22.6-26.467C60.553 44.821-2.733 140.165.09 250.008c3.64 141.617 119.282 257.259 260.901 260.9 109.845 2.824 205.192-60.465 249.181-152.922 7.847-16.493-11.136-32.511-26.476-22.6-86.193 55.715-202.648 45.883-278.308-29.777l-.002.003Z"/><path fill="#5A8BD5" d="M146.433 200.767A222.899 222.899 0 0 1 175.6 27.299c9.916-15.333-6.109-34.313-22.6-26.467C60.553 44.82-2.733 140.165.09 250.008c3.336 129.756 100.701 237.688 225.918 257.66-117.035-70.839-107.033-220.5-79.575-306.9v-.001Z"/></svg>