<svg width="512" height="512" viewBox="0 0 512 512" fill="none" xmlns="http://www.w3.org/2000/svg">
<path d="M441.256 134.831H378.395V71.969C378.395 55.2972 371.772 39.3082 359.983 27.5195C348.194 15.7308 332.205 9.10803 315.533 9.10803H189.81C173.138 9.1083 157.15 15.7312 145.361 27.5199C133.572 39.3085 126.949 55.2973 126.949 71.969V134.83H64.0871C47.4166 134.835 31.4303 141.459 19.6425 153.247C7.85483 165.035 1.23058 181.022 1.22607 197.692V323.415C1.22634 340.087 7.84926 356.076 19.6379 367.864C31.4266 379.653 47.4154 386.276 64.0871 386.276H126.948V449.138C126.948 465.81 133.571 481.798 145.36 493.587C157.149 505.376 173.137 511.999 189.809 511.999H315.533C332.201 511.986 348.183 505.359 359.969 493.573C371.755 481.787 378.382 465.805 378.394 449.137V386.277H441.256C457.928 386.277 473.917 379.654 485.705 367.865C497.494 356.077 504.117 340.088 504.117 323.416V197.692C504.117 181.02 497.494 165.032 485.705 153.243C473.917 141.454 457.928 134.831 441.256 134.831Z" fill="#FF8E9E"/>
<path d="M126.943 134.831H64.0871C47.4168 134.836 31.4306 141.46 19.6429 153.248C7.85522 165.036 1.23085 181.022 1.22607 197.692V323.415C1.22634 340.087 7.84926 356.076 19.6379 367.864C31.4266 379.653 47.4154 386.276 64.0871 386.276H126.948V449.137C126.948 465.809 133.571 481.798 145.36 493.586C157.149 505.375 173.137 511.998 189.809 511.998H315.533C324.12 511.997 332.616 510.236 340.495 506.822C348.375 503.409 355.471 498.417 361.345 492.153C255.021 394.129 174.511 271.399 126.943 134.831Z" fill="#EA5B70"/>
</svg>
