<svg xmlns="http://www.w3.org/2000/svg" width="512" height="512" fill="none"><path fill="#C9AAF2" d="M111.043 154.527A514.192 514.192 0 0 0 150.9 476.766 61.9 61.9 0 0 0 206.715 512H304.3a61.905 61.905 0 0 0 55.813-35.234A509.933 509.933 0 0 0 410.039 256a514.142 514.142 0 0 0-10.062-101.473l-147.559-31.422-141.375 31.422Z"/><path fill="#C9AAF2" d="M360.118 35.234A61.908 61.908 0 0 0 304.3 0h-97.59a61.896 61.896 0 0 0-55.81 35.234 508.156 508.156 0 0 0-39.858 119.293h288.929a508.162 508.162 0 0 0-39.853-119.293Z"/><path fill="#B28AE4" d="M162.793 256a451.414 451.414 0 0 1 11.422-101.473h-63.172A514.192 514.192 0 0 0 150.9 476.766 61.9 61.9 0 0 0 206.715 512h30.563l-30.789-62.27A445.932 445.932 0 0 1 162.793 256Z"/><path fill="#B28AE4" d="M206.657 61.922c.512-1.07-1.6 3.688 27.418-61.922h-27.36A61.901 61.901 0 0 0 150.9 35.234a508.156 508.156 0 0 0-39.858 119.293h63.172a445.869 445.869 0 0 1 32.443-92.605Z"/></svg>