<svg xmlns="http://www.w3.org/2000/svg" width="512" height="512" fill="none"><path fill="#BF86FC" d="M195.614 442.869 67.028 312.66c-15.924-16.125-24.879-37.826-24.896-60.331-.017-22.504 8.906-43.968 24.805-59.669L195.33 65.869c15.899-15.701 37.473-24.354 59.976-24.055 22.502.3 44.09 9.526 60.013 25.651l128.586 130.209 22.619 22.904 37.421 37.894-29.519 29.152-30.43 30.05-128.391 126.791a83.25 83.25 0 0 1-27.512 18.028 84.197 84.197 0 0 1-32.464 6.027 85.538 85.538 0 0 1-32.474-6.891 86.505 86.505 0 0 1-27.54-18.76Z"/><path fill="#996ACC" d="m315.318 67.465-60.04-60.798-59.949 59.202L66.937 192.66 6.988 251.862l60.04 60.798 128.586 130.209 60.04 60.798 59.95-59.202c-104.177-105.492-104.303-274.279-.286-377Z"/></svg>