<svg width="512" height="512" viewBox="0 0 512 512" fill="none" xmlns="http://www.w3.org/2000/svg">
<path d="M364.43 56C336.106 55.9517 308.433 64.4901 285.06 80.489C276.652 86.2547 266.696 89.3404 256.501 89.3404C246.305 89.3404 236.349 86.2547 227.941 80.489C202.144 62.8663 171.21 54.343 140.027 56.266C66.372 60.676 8 121.687 8 196.317C8 307.494 118.593 382.47 213.18 443.285C226.013 451.444 240.89 455.812 256.097 455.886C271.304 455.96 286.223 451.737 299.135 443.703C394.039 382.678 505 307.624 505 196.317C505 118.823 442.065 56 364.43 56Z" fill="#FF8E9E"/>
<path d="M98 156.317C97.9886 141.463 100.343 126.702 104.975 112.589C118.775 71.532 164.588 50.474 204.475 67.548C184.178 58.7761 162.1 54.9106 140.03 56.265C66.372 60.676 8 121.687 8 196.317C8 307.494 118.593 382.47 213.18 443.285C226.013 451.444 240.89 455.812 256.097 455.886C271.304 455.96 286.223 451.737 299.135 443.703C313.117 434.712 327.448 425.414 341.723 415.742C328.016 414.983 314.738 410.692 303.18 403.285C208.593 342.47 98 267.494 98 156.317Z" fill="#F26D87"/>
</svg>
