<svg xmlns="http://www.w3.org/2000/svg" width="512" height="512" fill="none"><path fill="#FF8E9E" d="M364.43 56a140.092 140.092 0 0 0-79.37 24.489 50.498 50.498 0 0 1-57.119 0 140.52 140.52 0 0 0-87.914-24.223C66.372 60.676 8 121.687 8 196.317 8 307.494 118.593 382.47 213.18 443.285a80.723 80.723 0 0 0 85.955.418C394.039 382.678 505 307.624 505 196.317 505 118.823 442.065 56 364.43 56Z"/><path fill="#F26D87" d="M98 156.317a139.881 139.881 0 0 1 6.975-43.728c13.8-41.057 59.613-62.115 99.5-45.041a140.719 140.719 0 0 0-64.445-11.283C66.372 60.676 8 121.687 8 196.317 8 307.494 118.593 382.47 213.18 443.285a80.723 80.723 0 0 0 85.955.418c13.982-8.991 28.313-18.289 42.588-27.961a79.59 79.59 0 0 1-38.543-12.457C208.593 342.47 98 267.494 98 156.317Z"/></svg>