<svg width="512" height="512" viewBox="0 0 512 512" fill="none" xmlns="http://www.w3.org/2000/svg">
<path d="M212.834 20.813C225.154 11.163 240.351 5.91925 256 5.91925C271.649 5.91925 286.847 11.163 299.166 20.813L474.34 158.032C485.435 166.723 493.647 178.561 497.904 191.996C502.16 205.431 502.262 219.838 498.196 233.332L429.225 462.2C424.885 476.6 416.023 489.219 403.951 498.188C391.879 507.158 377.24 512.001 362.2 512H149.8C134.761 512 120.122 507.157 108.05 498.188C95.9788 489.218 87.117 476.599 82.7771 462.2L13.8001 233.336C9.73423 219.842 9.83615 205.435 14.0926 192C18.349 178.565 26.5617 166.727 37.6561 158.036L212.834 20.813Z" fill="#E26E7E"/>
<path d="M212.834 20.813C225.154 11.163 240.351 5.91925 256 5.91925C271.649 5.91925 286.847 11.163 299.166 20.813L474.34 158.032C485.435 166.723 493.647 178.561 497.904 191.996C502.16 205.431 502.262 219.838 498.196 233.332L429.225 462.2C424.885 476.6 416.023 489.219 403.951 498.188C391.879 507.158 377.24 512.001 362.2 512H149.8C134.761 512 120.122 507.157 108.05 498.188C95.9788 489.218 87.117 476.599 82.7771 462.2L13.8001 233.336C9.73423 219.842 9.83615 205.435 14.0926 192C18.349 178.565 26.5617 166.727 37.6561 158.036L212.834 20.813Z" fill="#E26E7E"/>
<path d="M313.8 512L414.333 218.294L184.713 42.8396L212.833 20.8132C225.153 11.1627 240.351 5.9187 256 5.9187C271.649 5.9187 286.847 11.1627 299.167 20.8132L474.34 158.029C485.434 166.72 493.646 178.558 497.902 191.993C502.158 205.428 502.26 219.835 498.194 233.329L429.225 462.193C424.885 476.592 416.023 489.21 403.952 498.179C391.881 507.149 377.242 511.994 362.203 511.994L313.8 512Z" fill="#E26274"/>
</svg>
