<svg xmlns="http://www.w3.org/2000/svg" width="512" height="512" fill="none"><path fill="#E26E7E" d="M217.5 25.5c12.319-9.65 38-25.5 38-25.5s28.681 15.85 41 25.5l177.84 132.532C485.435 166.723 509 187.5 509 187.5s-6.738 32.338-10.804 45.832L429.225 462.2A69.996 69.996 0 0 1 362.2 512H98.5s-11.383-35.401-15.723-49.8L13.8 233.336C9.734 219.842 0 188.5 0 188.5s26.562-21.773 37.656-30.464L217.5 25.5Z"/><path fill="#E26274" d="m313.8 512 100.533-293.706L187.5 47l31-22c12.32-9.65 37-25 37-25s24.68 13.35 37 23l181.84 135.029C485.434 166.72 509.5 187 509.5 187s-7.24 32.835-11.306 46.329l-68.969 228.864C424.885 476.592 412 510.5 412 510.5s-34.758 1.494-49.797 1.494L313.8 512Z"/></svg>