<svg width="517" height="512" viewBox="0 0 517 512" fill="none" xmlns="http://www.w3.org/2000/svg">
<path d="M486.727 85.9263L413.635 15.2747C409.444 11.2239 403.815 9.00371 397.988 9.10262C392.16 9.20154 386.61 11.6114 382.558 15.8022L196.686 208.093L301.383 309.295L487.253 117.007C491.305 112.815 493.525 107.186 493.426 101.357C493.328 95.5289 490.918 89.9782 486.727 85.9263V85.9263Z" fill="#B9A8FF"/>
<path d="M89.8765 496.676L16.7852 426.025C12.5943 421.973 10.1844 416.423 10.0856 410.595C9.98681 404.767 12.2072 399.138 16.2584 394.947L202.13 202.657L306.827 303.859L120.957 496.148C116.905 500.339 111.355 502.749 105.526 502.848C99.6976 502.948 94.0683 500.727 89.8765 496.676Z" fill="#B9A8FF"/>
<path d="M220.717 231.326L406.59 39.0353C410.64 34.8448 416.189 32.4348 422.017 32.3353C427.844 32.2359 433.472 34.4552 437.664 38.505L413.633 15.2767C409.442 11.2259 403.814 9.00572 397.986 9.10464C392.158 9.20356 386.608 11.6134 382.556 15.8042L196.684 208.095L220.717 231.326Z" fill="#A394E0"/>
<path d="M226.164 225.886L40.2929 418.176C36.242 422.367 34.0214 427.995 34.1197 433.822C34.2179 439.65 36.6269 445.2 40.8168 449.251L16.7864 426.023C12.5955 421.971 10.1856 416.421 10.0868 410.593C9.98803 404.765 12.2084 399.136 16.2596 394.945L202.131 202.655L226.164 225.886Z" fill="#A394E0"/>
</svg>
