<svg width="512" height="512" viewBox="0 0 512 512" fill="none" xmlns="http://www.w3.org/2000/svg">
<path d="M349.994 4.73331e-08C359.366 0.000327827 368.55 2.63503 376.498 7.60353C384.445 12.572 390.836 19.6743 394.941 28.1L495.326 234.1C498.651 240.923 500.379 248.413 500.379 256.003C500.379 263.593 498.651 271.083 495.326 277.906L394.941 483.906C390.835 492.331 384.444 499.432 376.496 504.399C368.549 509.366 359.366 512 349.994 512H163.005C153.632 512 144.448 509.365 136.501 504.396C128.554 499.428 122.163 492.326 118.058 483.9L17.6728 277.9C14.348 271.077 12.6201 263.587 12.6201 255.997C12.6201 248.407 14.348 240.917 17.6728 234.094L118.058 28.094C122.164 19.6692 128.555 12.5681 136.503 7.60072C144.45 2.63331 153.634 -0.00040768 163.006 4.73331e-08L349.994 4.73331e-08Z" fill="#BD9CDE"/>
<path d="M163.007 512C153.634 512 144.45 509.365 136.503 504.396C128.555 499.428 122.165 492.326 118.059 483.9L17.6732 277.9C14.3494 271.077 12.6221 263.586 12.6221 255.996C12.6221 248.406 14.3494 240.916 17.6732 234.093L118.059 28.0927C122.165 19.6668 128.555 12.5651 136.503 7.59662C144.45 2.62811 153.634 -0.00675664 163.007 -0.00689697H205.607C178.86 56.7381 89.3932 248.718 96.3212 263.223C102.421 275.993 176.977 433.781 213.928 511.992L163.007 512Z" fill="#996ACC"/>
</svg>
