<svg xmlns="http://www.w3.org/2000/svg" width="512" height="512" fill="none"><path fill="#7CA1DC" d="M256 512c141.385 0 256-114.615 256-256S397.385 0 256 0 0 114.615 0 256s114.615 256 256 256Z"/><path fill="#5A8BD5" d="M388.253 475.229c-20.293-7.694-33.062-36.96-23.4-52.283L173.951 69.991c-16.2-1.309-29.629-29.661-26.173-46.038C60.49 64.733 0 153.3 0 256c0 141.385 114.615 256 256 256a254.799 254.799 0 0 0 132.253-36.771Z"/><path fill="#fff" d="M256 465.314c115.601 0 209.314-93.713 209.314-209.314S371.601 46.686 256 46.686 46.686 140.399 46.686 256 140.399 465.314 256 465.314Z"/><path fill="#fff" d="M353.012 441.507C101.358 431.055 129.162 161.4 171.27 64.56A209.352 209.352 0 0 0 46.686 256c0 115.6 93.714 209.314 209.314 209.314a208.39 208.39 0 0 0 97.012-23.807Z"/></svg>