<svg width="512" height="512" viewBox="0 0 512 512" fill="none" xmlns="http://www.w3.org/2000/svg">
<path d="M311.188 30.067C276.157 17.2567 238.685 12.5259 201.57 16.228C198.676 16.4964 195.946 17.6941 193.789 19.6423C191.631 21.5904 190.162 24.1843 189.601 27.0364C189.04 29.8885 189.417 32.8455 190.676 35.4657C191.934 38.0858 194.007 40.2283 196.584 41.573C239.998 63.7622 273.803 101.057 291.633 146.436C309.463 191.815 310.088 242.147 293.39 287.955C258.323 384.3 157.534 436.732 60.863 414.466C57.6749 413.751 54.3354 414.224 51.4716 415.797C48.6078 417.37 46.4168 419.934 45.31 423.008V423.014C44.4452 425.413 44.2756 428.007 44.8207 430.497C45.3658 432.988 46.6034 435.274 48.391 437.092C74.4434 463.784 106.189 484.246 141.258 496.95C269.704 543.7 412.509 478.031 459.663 348.474C506.633 219.428 440.189 77.019 311.188 30.067Z" fill="#FCE3A0"/>
<path d="M255.307 51.117C235.216 43.7863 214.122 39.5732 192.756 38.624C193.839 39.8359 195.138 40.8359 196.587 41.573C240 63.7634 273.803 101.059 291.632 146.438C309.461 191.817 310.085 242.148 293.387 287.955C258.323 384.3 157.534 436.732 60.8631 414.466C59.2776 414.101 57.6383 414.033 56.0281 414.266C73.0067 427.272 91.8758 437.603 111.98 444.9C220.318 484.332 340.765 428.943 380.537 319.67C389.963 293.815 394.2 266.356 393.006 238.862C391.813 211.368 385.212 184.38 373.582 159.439C361.952 134.498 345.519 112.093 325.225 93.5067C304.931 74.9201 281.172 60.5158 255.307 51.117Z" fill="#FFCE71"/>
</svg>
