<svg width="512" height="512" viewBox="0 0 512 512" fill="none" xmlns="http://www.w3.org/2000/svg">
<path d="M388.459 511.333H123.875C91.1099 511.333 59.6867 498.317 36.5183 475.149C13.3498 451.98 0.333984 420.557 0.333984 387.792V123.208C0.333984 90.4429 13.3498 59.0197 36.5183 35.8513C59.6867 12.6829 91.1099 -0.333008 123.875 -0.333008H388.459C404.683 -0.333008 420.747 2.86247 435.736 9.07098C450.725 15.2795 464.344 24.3795 475.816 35.8513C487.287 47.3231 496.387 60.9422 502.596 75.9309C508.805 90.9196 512 106.984 512 123.208V387.792C512 404.016 508.805 420.08 502.596 435.069C496.387 450.058 487.287 463.677 475.816 475.149C464.344 486.621 450.725 495.72 435.736 501.929C420.747 508.138 404.683 511.333 388.459 511.333Z" fill="#FF8A98"/>
<path d="M123.875 -0.333008C91.1099 -0.333008 59.6867 12.6829 36.5183 35.8513C13.3498 59.0197 0.333984 90.4429 0.333984 123.208V387.792C0.333984 420.557 13.3498 451.98 36.5183 475.149C59.6867 498.317 91.1099 511.333 123.875 511.333H388.459C404.683 511.333 420.747 508.138 435.736 501.929C450.725 495.72 464.344 486.621 475.816 475.149C487.287 463.677 496.387 450.058 502.596 435.069C508.805 420.08 512 404.016 512 387.792C297.642 387.792 123.875 214.022 123.875 -0.333008Z" fill="#FD5C6F"/>
</svg>
