<svg xmlns="http://www.w3.org/2000/svg" width="513" height="512" fill="none"><path fill="#FFEB99" d="m300.465 37.639 34.152 69.2a77.703 77.703 0 0 0 58.516 42.512l76.359 11.1c40.672 5.91 56.91 55.891 27.48 84.578l-55.254 53.859a77.716 77.716 0 0 0-22.352 68.789l13.043 76.051c6.949 40.508-35.566 71.4-71.945 52.273l-68.3-35.906a77.693 77.693 0 0 0-72.328 0l-68.297 35.903c-36.379 19.125-78.895-11.766-71.945-52.273l13.043-76.051a77.715 77.715 0 0 0-22.352-68.789l-55.254-53.864c-29.43-28.687-13.19-78.668 27.481-84.578l76.359-11.1a77.708 77.708 0 0 0 58.516-42.512l34.148-69.2c18.188-36.844 70.742-36.844 88.93.008Z"/><path fill="#FFDE55" d="M206.887 219.529c40.555-37.754 80.938-127.437 98.984-170.941l-5.406-10.949c-18.187-36.852-70.742-36.852-88.93 0l-34.148 69.2a77.707 77.707 0 0 1-58.516 42.512l-76.359 11.1c-40.672 5.902-56.912 55.883-27.485 84.57l55.258 53.859a77.715 77.715 0 0 1 22.348 68.789L79.59 443.721c-6.949 40.508 35.57 71.4 71.945 52.273l48.945-25.734c32.848-116.649-66.386-182.962 6.407-250.731Z"/></svg>