<svg width="512" height="512" viewBox="0 0 512 512" fill="none" xmlns="http://www.w3.org/2000/svg">
<path d="M135.634 136.786C109.942 162.478 61.2128 189.959 16.0758 198.991C13.7208 199.456 11.2842 199.283 9.01863 198.489C6.7531 197.695 4.74108 196.31 3.19114 194.477C1.6412 192.644 0.609751 190.429 0.203704 188.063C-0.202344 185.698 0.0317925 183.266 0.881842 181.021C11.6998 152.15 7.84884 109.834 7.84884 83.855C7.84845 71.5446 10.8841 59.4242 16.6869 48.5672C22.4898 37.7103 30.8806 28.4521 41.1162 21.6127C51.3519 14.7733 63.1163 10.5638 75.3673 9.35712C87.6184 8.15043 99.978 9.98381 111.351 14.6948C122.725 19.4059 132.76 26.8491 140.57 36.3653C148.379 45.8815 153.721 57.1768 156.123 69.2506C158.524 81.3245 157.911 93.8043 154.337 105.584C150.763 117.365 144.339 128.082 135.634 136.786Z" fill="#E16E7E"/>
<path d="M439.07 262.949C467.674 262.949 490.863 239.76 490.863 211.156C490.863 182.552 467.674 159.363 439.07 159.363C410.465 159.363 387.277 182.552 387.277 211.156C387.277 239.76 410.465 262.949 439.07 262.949Z" fill="#FFBE9D"/>
<path d="M85.4678 262.949C114.072 262.949 137.261 239.76 137.261 211.156C137.261 182.552 114.072 159.363 85.4678 159.363C56.8633 159.363 33.6748 182.552 33.6748 211.156C33.6748 239.76 56.8633 262.949 85.4678 262.949Z" fill="#FFD3BD"/>
<path d="M397.473 472.84C400.124 472.849 402.747 472.293 405.166 471.207C407.585 470.121 409.744 468.532 411.5 466.545C413.255 464.558 414.566 462.219 415.345 459.685C416.124 457.15 416.353 454.479 416.017 451.849C410.94 414.676 392.568 380.6 364.301 355.931C336.033 331.261 299.785 317.668 262.267 317.668C224.748 317.668 188.5 331.261 160.233 355.931C131.966 380.6 113.593 414.676 108.517 451.849C108.18 454.479 108.409 457.15 109.188 459.685C109.967 462.219 111.278 464.558 113.034 466.545C114.789 468.532 116.949 470.122 119.368 471.207C121.787 472.293 124.409 472.849 127.061 472.84H397.473Z" fill="#FFD3BD"/>
<path d="M368.354 359.63C339.603 332.681 301.674 317.684 262.268 317.684C222.862 317.684 184.933 332.681 156.183 359.63C160.583 394.139 164.039 445.381 164.39 472.84H360.146C360.499 445.381 363.96 394.14 368.354 359.63Z" fill="#8DAEE1"/>
<path d="M368.354 359.63C339.603 332.681 301.674 317.684 262.268 317.684C222.862 317.684 184.933 332.681 156.183 359.63C160.583 394.139 164.039 445.381 164.39 472.84H360.146C360.499 445.381 363.96 394.14 368.354 359.63Z" fill="#8DAEE1"/>
<path d="M262.269 400.461C284.266 400.461 302.099 378.446 302.099 351.29C302.099 324.134 284.266 302.119 262.269 302.119C240.271 302.119 222.439 324.134 222.439 351.29C222.439 378.446 240.271 400.461 262.269 400.461Z" fill="#FFD3BD"/>
<path d="M440.307 204.033C440.307 113.246 360.597 42.633 262.269 42.633C163.941 42.633 84.2308 113.246 84.2308 204.033C84.2308 294.82 163.941 366.758 262.269 366.758C360.597 366.758 440.307 294.821 440.307 204.033Z" fill="#FFD3BD"/>
<path d="M205.066 50.985C134.8 72.212 84.2308 131.721 84.2308 204.033C84.2308 294.819 163.941 366.758 262.269 366.758C286.646 366.82 310.815 362.269 333.5 353.345C115.1 341.286 145.93 116.881 205.066 50.985Z" fill="#FFBE9D"/>
<path d="M170.522 275.005C189.218 275.005 204.375 262.935 204.375 248.046C204.375 233.157 189.218 221.087 170.522 221.087C151.825 221.087 136.669 233.157 136.669 248.046C136.669 262.935 151.825 275.005 170.522 275.005Z" fill="#E7889D"/>
<path d="M354.016 275.005C372.712 275.005 387.869 262.935 387.869 248.046C387.869 233.157 372.712 221.087 354.016 221.087C335.319 221.087 320.163 233.157 320.163 248.046C320.163 262.935 335.319 275.005 354.016 275.005Z" fill="#E7889D"/>
<path d="M190.251 229.263C188.262 229.263 186.354 228.473 184.948 227.066C183.541 225.66 182.751 223.752 182.751 221.763V208.588C182.751 206.599 183.541 204.691 184.948 203.285C186.354 201.878 188.262 201.088 190.251 201.088C192.24 201.088 194.148 201.878 195.554 203.285C196.961 204.691 197.751 206.599 197.751 208.588V221.763C197.751 223.752 196.961 225.66 195.554 227.066C194.148 228.473 192.24 229.263 190.251 229.263Z" fill="#4E5660"/>
<path d="M262.27 237.833C257.599 237.832 252.983 236.829 248.732 234.893C244.481 232.957 240.695 230.132 237.628 226.609C236.346 225.106 235.709 223.158 235.855 221.188C236.001 219.218 236.918 217.385 238.407 216.087C239.897 214.79 241.838 214.132 243.81 214.257C245.781 214.382 247.624 215.28 248.937 216.756C250.595 218.664 252.643 220.194 254.943 221.242C257.243 222.29 259.742 222.833 262.269 222.833C264.797 222.833 267.295 222.29 269.595 221.242C271.896 220.194 273.944 218.664 275.602 216.756C276.245 216.002 277.032 215.382 277.916 214.934C278.801 214.485 279.765 214.217 280.754 214.144C281.743 214.07 282.736 214.194 283.677 214.507C284.618 214.82 285.487 215.317 286.235 215.968C286.983 216.62 287.594 217.413 288.033 218.302C288.472 219.191 288.73 220.158 288.793 221.148C288.856 222.137 288.722 223.129 288.399 224.067C288.076 225.004 287.57 225.868 286.911 226.609C283.844 230.132 280.058 232.957 275.807 234.893C271.557 236.829 266.941 237.832 262.27 237.833Z" fill="#4E5660"/>
<path d="M352.1 228.895C350.111 228.895 348.203 228.105 346.797 226.698C345.39 225.292 344.6 223.384 344.6 221.395C344.6 219.335 343.781 217.359 342.325 215.902C340.868 214.445 338.892 213.627 336.832 213.627C334.772 213.627 332.796 214.445 331.339 215.902C329.882 217.359 329.064 219.335 329.064 221.395C329.064 223.384 328.274 225.292 326.867 226.698C325.461 228.105 323.553 228.895 321.564 228.895C319.575 228.895 317.667 228.105 316.261 226.698C314.854 225.292 314.064 223.384 314.064 221.395C314.064 215.357 316.463 209.565 320.732 205.296C325.002 201.026 330.793 198.627 336.832 198.627C342.87 198.627 348.661 201.026 352.931 205.296C357.201 209.565 359.6 215.357 359.6 221.395C359.6 223.384 358.81 225.292 357.403 226.698C355.997 228.105 354.089 228.895 352.1 228.895Z" fill="#4E5660"/>
<path d="M355.532 126.197C368.86 166.487 397.256 205.658 422.172 222.792C424.03 224.063 426.172 224.857 428.409 225.103C430.647 225.349 432.911 225.041 435 224.204C437.09 223.367 438.941 222.029 440.391 220.306C441.84 218.584 442.843 216.531 443.31 214.329C468.434 94.498 362.438 32.715 262.27 32.715C162.102 32.715 56.1058 94.499 81.2298 214.329C81.697 216.531 82.6996 218.584 84.1489 220.306C85.5982 222.029 87.4496 223.367 89.5393 224.204C91.6291 225.041 93.8927 225.349 96.1302 225.103C98.3677 224.857 100.51 224.063 102.368 222.792C127.284 205.658 155.68 166.492 169.008 126.192L355.532 126.197Z" fill="#E7889D"/>
<path d="M262.269 87.805C323.528 87.805 393.269 96.497 433.101 103.737C439.78 104.958 445.818 108.483 450.165 113.699C454.511 118.915 456.89 125.491 456.886 132.28V149.021C456.887 151.312 456.382 153.575 455.407 155.648C454.432 157.721 453.011 159.553 451.246 161.013C449.48 162.473 447.414 163.525 445.195 164.094C442.976 164.662 440.659 164.734 438.409 164.303C399.709 156.892 326.348 147.381 262.269 147.381C198.19 147.381 124.834 156.892 86.1289 164.303C83.8789 164.734 81.5615 164.662 79.3424 164.094C77.1233 163.525 75.0573 162.473 73.292 161.013C71.5267 159.553 70.1058 157.721 69.1308 155.648C68.1557 153.575 67.6507 151.312 67.6519 149.021V132.281C67.6482 125.492 70.0267 118.916 74.3731 113.7C78.7195 108.484 84.7581 104.959 91.4369 103.738C131.273 96.498 201.01 87.806 262.269 87.806V87.805Z" fill="#FCF2D0"/>
<path d="M201.909 90.161C164.879 92.8185 128.007 97.3496 91.4359 103.737C84.7572 104.958 78.7185 108.483 74.3721 113.699C70.0258 118.915 67.6472 125.491 67.6509 132.28V149.021C67.6498 151.312 68.1548 153.575 69.1298 155.648C70.1048 157.721 71.5257 159.553 73.291 161.013C75.0563 162.473 77.1223 163.525 79.3414 164.094C81.5606 164.662 83.8779 164.734 86.1279 164.303C113.085 159.141 156.853 152.965 202.587 149.688C192.587 133.628 193.687 104.457 201.909 90.162V90.161Z" fill="#F6E3A3"/>
<path d="M415.419 502.242C468.759 502.242 511.999 459.002 511.999 405.662C511.999 352.322 468.759 309.082 415.419 309.082C362.079 309.082 318.839 352.322 318.839 405.662C318.839 459.002 362.079 502.242 415.419 502.242Z" fill="#EED076"/>
<path d="M443.78 497.998C441.171 490.301 440.471 482.085 441.74 474.058C443.009 466.03 446.209 458.431 451.065 451.914L478.206 479.055C480.091 477.439 481.927 475.739 483.713 473.955C485.499 472.171 487.199 470.335 488.813 468.448L461.672 441.307C468.189 436.451 475.788 433.251 483.816 431.982C491.843 430.713 500.059 431.414 507.756 434.023C509.231 429.21 510.328 424.29 511.036 419.306C500.864 416.13 490.069 415.5 479.597 417.47C469.125 419.44 459.297 423.951 450.975 430.606L426.027 405.658L488.813 342.872C487.197 340.987 485.497 339.151 483.713 337.365C481.929 335.579 480.093 333.879 478.206 332.265L415.42 395.055L390.472 370.107C397.128 361.786 401.639 351.957 403.609 341.485C405.579 331.013 404.948 320.217 401.772 310.046C396.788 310.754 391.868 311.851 387.055 313.326C389.664 321.023 390.365 329.239 389.096 337.266C387.827 345.294 384.627 352.893 379.771 359.41L352.63 332.269C350.744 333.885 348.909 335.585 347.123 337.369C345.337 339.153 343.637 340.989 342.023 342.876L369.168 370.021C362.651 374.877 355.052 378.077 347.024 379.346C338.996 380.614 330.781 379.914 323.084 377.305C321.607 382.117 320.509 387.038 319.8 392.021C329.971 395.197 340.766 395.827 351.238 393.857C361.71 391.887 371.538 387.376 379.86 380.721L404.808 405.669L342.022 468.455C343.638 470.34 345.338 472.176 347.122 473.962C348.906 475.748 350.741 477.448 352.629 479.062L415.415 416.276L440.367 441.221C433.711 449.542 429.2 459.37 427.23 469.842C425.26 480.314 425.891 491.11 429.067 501.281C434.05 500.572 438.97 499.476 443.783 498.002L443.78 497.998Z" fill="#4E5660"/>
<path d="M301.887 472.84C300.868 463.042 296.255 453.969 288.938 447.373C281.621 440.777 272.119 437.127 262.268 437.127C252.417 437.127 242.916 440.777 235.599 447.373C228.282 453.969 223.668 463.042 222.65 472.84H301.887Z" fill="#FCF2D0"/>
</svg>
