<svg width="512" height="512" viewBox="0 0 512 512" fill="none" xmlns="http://www.w3.org/2000/svg">
<path d="M242.105 320.91C220.828 284.969 177.445 202.367 211.183 149.469C221.749 133.769 227.757 114.574 227.757 93.269C227.758 41.762 191.031 0 145.727 0C100.423 0 63.691 41.762 63.691 93.273C63.691 114.573 69.699 133.773 80.269 149.473C114.007 202.368 70.621 284.973 49.343 320.914C36.18 343.148 27 369.211 27 397.984C27 437.093 42.3 472.226 66.621 496.394C76.8334 506.449 90.6067 512.058 104.938 512H186.512C200.843 512.058 214.616 506.449 224.828 496.395C249.144 472.231 264.449 437.095 264.449 397.985C264.449 369.215 255.273 343.148 242.105 320.91Z" fill="#C2EAFB"/>
<path d="M129.527 392.426C142.727 444.578 148.984 483.391 151.445 512H186.515C200.845 512.058 214.617 506.449 224.828 496.395C249.144 472.231 264.449 437.095 264.449 397.985C264.449 369.215 255.269 343.149 242.105 320.911C226.429 294.427 198.75 242.618 198.761 196.02C198.762 196.02 89.461 234.074 129.527 392.426Z" fill="#91D4F2"/>
<path d="M204.684 162.262H86.7661C90.8352 173.044 92.844 184.493 92.6881 196.016H198.762C198.606 184.493 200.615 173.044 204.684 162.262Z" fill="#00DDC4"/>
<path d="M202.965 229.945H88.4839C85.7524 241.441 82.187 252.722 77.8159 263.7H213.633C209.265 252.721 205.7 241.44 202.965 229.945Z" fill="#00DDC4"/>
<path d="M153.039 229.945C144.52 240.085 137.603 251.468 132.527 263.7H213.632C209.261 252.723 205.695 241.441 202.964 229.946L153.039 229.945Z" fill="#00C5A3"/>
<path d="M485.395 353C485.394 384.448 476.067 415.19 458.595 441.337C441.122 467.485 416.289 487.864 387.234 499.898C358.18 511.932 326.209 515.08 295.365 508.944C264.522 502.808 236.19 487.664 213.953 465.427C191.716 443.189 176.573 414.857 170.438 384.014C164.303 353.17 167.452 321.199 179.486 292.145C191.521 263.091 211.901 238.258 238.049 220.786C264.197 203.314 294.939 193.988 326.387 193.988C347.269 193.988 367.946 198.101 387.238 206.092C406.53 214.083 424.059 225.795 438.825 240.561C453.59 255.327 465.302 272.856 473.293 292.149C481.283 311.441 485.396 332.118 485.395 353Z" fill="#FF8A98"/>
<path d="M395.008 261.543C395.008 264.942 394 268.264 392.112 271.09C390.223 273.916 387.54 276.118 384.4 277.419C381.26 278.72 377.805 279.06 374.471 278.397C371.138 277.734 368.076 276.097 365.673 273.694C363.269 271.291 361.633 268.229 360.97 264.895C360.307 261.562 360.647 258.107 361.948 254.967C363.248 251.827 365.451 249.143 368.277 247.255C371.103 245.367 374.425 244.359 377.824 244.359C382.381 244.36 386.751 246.17 389.974 249.393C393.197 252.615 395.007 256.986 395.008 261.543Z" fill="#516980"/>
<path d="M382.453 316.957C382.452 320.355 381.444 323.677 379.556 326.502C377.668 329.328 374.984 331.53 371.844 332.83C368.705 334.13 365.25 334.47 361.917 333.806C358.584 333.143 355.523 331.506 353.12 329.103C350.717 326.7 349.081 323.638 348.419 320.305C347.756 316.972 348.097 313.517 349.398 310.378C350.698 307.238 352.901 304.555 355.727 302.668C358.553 300.78 361.875 299.773 365.273 299.773C367.529 299.773 369.764 300.217 371.848 301.081C373.933 301.944 375.827 303.21 377.423 304.806C379.018 306.402 380.283 308.296 381.147 310.381C382.01 312.466 382.454 314.701 382.453 316.957Z" fill="#516980"/>
<path d="M437.965 298.727C437.965 302.126 436.958 305.449 435.071 308.275C433.183 311.101 430.499 313.305 427.359 314.606C424.22 315.907 420.764 316.248 417.431 315.585C414.097 314.923 411.035 313.286 408.631 310.883C406.228 308.48 404.591 305.418 403.927 302.085C403.264 298.751 403.604 295.296 404.904 292.156C406.205 289.016 408.407 286.332 411.233 284.443C414.059 282.555 417.382 281.547 420.781 281.547C425.337 281.547 429.708 283.357 432.93 286.579C436.153 289.8 437.964 294.17 437.965 298.727Z" fill="#516980"/>
</svg>
