<svg width="512" height="512" viewBox="0 0 512 512" fill="none" xmlns="http://www.w3.org/2000/svg">
<path d="M255.695 178.304C304.932 178.304 344.847 138.389 344.847 89.152C344.847 39.9147 304.932 0 255.695 0C206.458 0 166.543 39.9147 166.543 89.152C166.543 138.389 206.458 178.304 255.695 178.304Z" fill="#FFCD38"/>
<path d="M197.444 89.156C197.448 68.1931 204.838 47.902 218.316 31.8464C231.794 15.7908 250.499 4.99746 271.144 1.36199C258.97 -0.781101 246.483 -0.368945 234.476 2.57229C222.47 5.51352 211.206 10.9195 201.401 18.447C191.596 25.9744 183.463 35.4588 177.519 46.2976C171.576 57.1365 167.951 69.0929 166.876 81.4076C165.801 93.7222 167.298 106.126 171.273 117.831C175.249 129.536 181.615 140.286 189.967 149.399C198.319 158.512 208.476 165.788 219.791 170.765C231.106 175.743 243.332 178.313 255.694 178.312C260.875 178.305 266.045 177.85 271.147 176.95C250.501 173.315 231.796 162.522 218.317 146.467C204.839 130.411 197.448 110.119 197.444 89.156Z" fill="#EBAF03"/>
<path d="M338.715 374.337C304.252 319.562 308.557 195.674 308.557 195.674L255.694 178.312L202.832 195.673C202.832 195.673 207.132 319.562 172.674 374.336L255.694 392.475L338.715 374.337Z" fill="#FFCD38"/>
<path d="M203.58 374.337C238.043 319.562 233.738 195.674 233.738 195.674L271.147 183.388L255.694 178.313L202.832 195.674C202.832 195.674 207.132 319.563 172.674 374.337L255.694 392.476L271.147 389.1L203.58 374.337Z" fill="#EBAF03"/>
<path d="M172.675 410.616C172.675 410.616 109.441 429.116 109.441 479.116H401.948C401.948 429.109 338.714 410.616 338.714 410.616L255.694 392.477L172.675 410.616Z" fill="#FFCD38"/>
<path d="M203.58 410.616L271.148 395.852L255.694 392.476L172.674 410.615C172.674 410.615 109.44 429.115 109.44 479.115H140.345C140.346 429.112 203.58 410.616 203.58 410.616Z" fill="#EBAF03"/>
<path d="M338.715 374.337H172.675C170.293 374.337 167.934 374.806 165.733 375.717C163.533 376.629 161.533 377.965 159.849 379.65C158.164 381.334 156.828 383.334 155.917 385.534C155.005 387.735 154.536 390.094 154.536 392.476C154.536 394.858 155.005 397.217 155.917 399.418C156.828 401.618 158.164 403.618 159.849 405.302C161.533 406.987 163.533 408.323 165.733 409.235C167.934 410.146 170.293 410.615 172.675 410.615H338.714C341.096 410.615 343.455 410.146 345.656 409.235C347.857 408.323 349.856 406.987 351.541 405.302C353.225 403.618 354.561 401.618 355.473 399.418C356.384 397.217 356.853 394.858 356.853 392.476C356.853 390.094 356.384 387.735 355.473 385.535C354.561 383.334 353.225 381.334 351.541 379.65C349.857 377.965 347.857 376.629 345.656 375.718C343.456 374.806 341.097 374.337 338.715 374.337Z" fill="#EBAF03"/>
<path d="M185.44 392.476C185.44 390.094 185.909 387.735 186.821 385.534C187.732 383.334 189.068 381.334 190.753 379.65C192.437 377.965 194.437 376.629 196.637 375.717C198.838 374.806 201.197 374.337 203.579 374.337H172.674C167.863 374.337 163.25 376.248 159.848 379.65C156.446 383.052 154.535 387.665 154.535 392.476C154.535 394.858 155.004 397.217 155.916 399.418C156.827 401.618 158.163 403.618 159.848 405.302C161.532 406.987 163.532 408.323 165.732 409.235C167.933 410.146 170.292 410.615 172.674 410.615H203.574C198.764 410.614 194.152 408.702 190.751 405.301C187.35 401.899 185.44 397.286 185.44 392.476Z" fill="#D19C03"/>
<path d="M308.561 160.951H202.833C198.229 160.951 193.813 162.78 190.557 166.036C187.301 169.292 185.472 173.708 185.472 178.312C185.472 182.916 187.301 187.332 190.557 190.588C193.813 193.844 198.229 195.673 202.833 195.673H308.562C313.167 195.673 317.582 193.844 320.838 190.588C324.094 187.332 325.923 182.916 325.923 178.312C325.923 173.708 324.093 169.292 320.837 166.036C317.581 162.78 313.166 160.951 308.561 160.951Z" fill="#EBAF03"/>
<path d="M216.378 178.312C216.378 176.032 216.827 173.774 217.699 171.668C218.572 169.561 219.85 167.648 221.463 166.035C223.075 164.423 224.989 163.144 227.095 162.272C229.201 161.399 231.459 160.95 233.739 160.95H202.839C200.559 160.95 198.301 161.399 196.195 162.272C194.089 163.144 192.175 164.423 190.563 166.035C188.95 167.648 187.672 169.561 186.799 171.668C185.927 173.774 185.478 176.032 185.478 178.312C185.478 182.916 187.307 187.332 190.563 190.588C193.819 193.844 198.235 195.673 202.839 195.673H233.739C231.459 195.673 229.201 195.224 227.095 194.352C224.989 193.479 223.075 192.201 221.463 190.588C219.851 188.976 218.572 187.062 217.699 184.956C216.827 182.85 216.378 180.592 216.378 178.312Z" fill="#D19C03"/>
<path d="M401.948 479.119H109.441C105.081 479.119 100.899 480.851 97.8155 483.934C94.7322 487.018 93 491.2 93 495.56C93.0003 499.92 94.7326 504.102 97.8158 507.185C100.899 510.268 105.081 512 109.441 512H401.948C404.107 512.001 406.246 511.576 408.241 510.75C410.236 509.924 412.049 508.713 413.576 507.187C415.104 505.66 416.315 503.847 417.142 501.853C417.968 499.858 418.394 497.719 418.394 495.56C418.394 493.401 417.969 491.262 417.142 489.267C416.315 487.272 415.104 485.459 413.577 483.933C412.05 482.406 410.237 481.195 408.241 480.369C406.246 479.543 404.107 479.118 401.948 479.119Z" fill="#EBAF03"/>
<path d="M123.906 495.559C123.906 491.199 125.638 487.017 128.721 483.933C131.805 480.85 135.986 479.118 140.347 479.118H109.447C105.086 479.118 100.905 480.85 97.8213 483.933C94.738 487.017 93.0059 491.199 93.0059 495.559C93.0059 499.919 94.7373 504.1 97.8195 507.183C100.902 510.266 105.082 511.999 109.442 512H140.342C135.982 511.999 131.802 510.266 128.72 507.183C125.637 504.1 123.906 499.919 123.906 495.559Z" fill="#D19C03"/>
</svg>
