<svg width="512" height="512" viewBox="0 0 512 512" fill="none" xmlns="http://www.w3.org/2000/svg">
<path d="M475.374 512H156.018C150.555 512 145.315 509.83 141.452 505.966C137.588 502.103 135.418 496.863 135.418 491.4V20.6C135.418 15.1365 137.588 9.89685 141.452 6.0336C145.315 2.17035 150.555 0 156.018 0H475.374C480.837 0 486.077 2.17035 489.94 6.0336C493.804 9.89685 495.974 15.1365 495.974 20.6V491.4C495.974 496.863 493.804 502.103 489.94 505.966C486.077 509.83 480.837 512 475.374 512Z" fill="#F6334C"/>
<path d="M444.469 470.793H104.509C101.777 470.793 99.1574 469.708 97.2258 467.776C95.2942 465.845 94.209 463.225 94.209 460.493V51.509C94.209 48.7773 95.2942 46.1574 97.2258 44.2258C99.1574 42.2942 101.777 41.209 104.509 41.209H444.469C447.201 41.209 449.821 42.2942 451.752 44.2258C453.684 46.1574 454.769 48.7773 454.769 51.509V460.491C454.769 461.844 454.503 463.183 453.986 464.433C453.468 465.683 452.709 466.819 451.753 467.775C450.796 468.732 449.661 469.491 448.411 470.009C447.161 470.527 445.822 470.793 444.469 470.793Z" fill="#EFE6E6"/>
<path d="M73.6039 0H392.96C398.423 0 403.663 2.17035 407.526 6.0336C411.39 9.89685 413.56 15.1365 413.56 20.6V491.4C413.56 496.863 411.39 502.103 407.526 505.966C403.663 509.83 398.423 512 392.96 512H73.6039C68.1404 512 62.9008 509.83 59.0375 505.966C55.1743 502.103 53.0039 496.863 53.0039 491.4V20.6C53.0039 15.1365 55.1743 9.89685 59.0375 6.0336C62.9008 2.17035 68.1404 0 73.6039 0Z" fill="#FD5C6F"/>
<path d="M151.324 131.262C168.026 131.262 181.565 120.48 181.565 107.18C181.565 93.8799 168.026 83.098 151.324 83.098C134.622 83.098 121.083 93.8799 121.083 107.18C121.083 120.48 134.622 131.262 151.324 131.262Z" fill="white"/>
<path d="M315.24 131.262C331.942 131.262 345.481 120.48 345.481 107.18C345.481 93.8799 331.942 83.098 315.24 83.098C298.538 83.098 284.999 93.8799 284.999 107.18C284.999 120.48 298.538 131.262 315.24 131.262Z" fill="white"/>
<path d="M233.282 76.129C228.995 76.1303 224.759 77.0504 220.857 78.8271C216.956 80.6038 213.481 83.196 210.666 86.429C209.359 87.9287 208.702 89.8861 208.838 91.8706C208.974 93.8551 209.893 95.7041 211.393 97.011C212.893 98.3179 214.85 98.9754 216.835 98.8391C218.819 98.7028 220.668 97.7837 221.975 96.284C223.381 94.6659 225.118 93.3685 227.069 92.4793C229.02 91.5902 231.138 91.1301 233.282 91.1301C235.426 91.1301 237.545 91.5902 239.495 92.4793C241.446 93.3685 243.183 94.6659 244.589 96.284C245.234 97.0332 246.021 97.6476 246.904 98.0916C247.788 98.5356 248.75 98.8006 249.736 98.8713C250.723 98.9419 251.713 98.8169 252.651 98.5034C253.588 98.1899 254.455 97.6941 255.2 97.0445C255.946 96.395 256.555 95.6044 256.994 94.7184C257.433 93.8323 257.692 92.8683 257.757 91.8817C257.821 90.8951 257.69 89.9055 257.371 88.9697C257.052 88.0339 256.551 87.1705 255.897 86.429C253.083 83.1958 249.608 80.6034 245.706 78.8267C241.805 77.0499 237.569 76.13 233.282 76.129Z" fill="#3D4751"/>
<path d="M183.069 60L158.277 53.357C156.355 52.8414 154.308 53.1102 152.585 54.1042C150.862 55.0983 149.604 56.7361 149.088 58.6575C148.573 60.5789 148.842 62.6263 149.836 64.3495C150.83 66.0727 152.467 67.3304 154.389 67.846L161.92 69.864C161.606 70.6996 161.445 71.5845 161.443 72.477V83.156C161.443 85.1451 162.233 87.0528 163.64 88.4593C165.046 89.8658 166.954 90.656 168.943 90.656C170.932 90.656 172.84 89.8658 174.246 88.4593C175.653 87.0528 176.443 85.1451 176.443 83.156V73.756L179.181 74.49C181.102 75.0056 183.15 74.7367 184.873 73.7426C186.596 72.7485 187.854 71.1105 188.37 69.189C188.885 67.2675 188.617 65.2199 187.622 63.4966C186.628 61.7733 184.99 60.5156 183.069 60Z" fill="#3D4751"/>
<path d="M317.472 58.66C316.956 56.7392 315.699 55.1017 313.976 54.1078C312.254 53.1139 310.207 52.8449 308.286 53.36L283.494 60C282.542 60.255 281.65 60.6948 280.869 61.2945C280.088 61.8941 279.432 62.6418 278.939 63.4949C278.447 64.3479 278.127 65.2896 277.999 66.2662C277.87 67.2427 277.935 68.2351 278.19 69.1865C278.445 70.1379 278.885 71.0298 279.485 71.8113C280.084 72.5927 280.832 73.2484 281.685 73.7408C282.538 74.2333 283.48 74.5529 284.456 74.6815C285.433 74.81 286.425 74.745 287.377 74.49L290.115 73.756V83.156C290.115 85.1451 290.905 87.0528 292.311 88.4593C293.718 89.8658 295.626 90.656 297.615 90.656C299.604 90.656 301.511 89.8658 302.918 88.4593C304.325 87.0528 305.115 85.1451 305.115 83.156V72.477C305.113 71.5842 304.951 70.6989 304.638 69.863L312.169 67.845C314.089 67.3295 315.727 66.0723 316.72 64.3498C317.714 62.6274 317.983 60.5808 317.469 58.66H317.472Z" fill="#3D4751"/>
<path d="M413.563 470.793C237.188 470.793 94.2068 327.813 94.2068 151.437V0H73.6068C68.1434 0 62.9037 2.17035 59.0404 6.0336C55.1772 9.89685 53.0068 15.1365 53.0068 20.6V491.4C53.0068 496.863 55.1772 502.103 59.0404 505.966C62.9037 509.83 68.1434 512 73.6068 512H392.96C398.423 512 403.663 509.83 407.526 505.966C411.389 502.103 413.56 496.863 413.56 491.4L413.563 470.793Z" fill="#F6334C"/>
<path d="M73.604 512H392.96C398.423 512 403.663 509.83 407.526 505.966C411.39 502.103 413.56 496.863 413.56 491.4V443.257H327.899L370.768 322.767L269.422 400.772L233.282 278.1L197.142 400.777L95.796 322.767L138.665 443.257H53V491.4C53 496.863 55.1704 502.103 59.0336 505.966C62.8968 509.83 68.1365 512 73.6 512H73.604Z" fill="#FFBFC7"/>
<path d="M200.515 389.32L197.142 400.771L95.796 322.771L138.665 443.261H53V491.4C53 496.863 55.1704 502.103 59.0336 505.966C62.8968 509.83 68.1365 512 73.6 512H392.96C398.423 512 403.663 509.83 407.526 505.966C411.39 502.103 413.56 496.863 413.56 491.4V470.8C334.915 470.906 259.018 441.879 200.515 389.32Z" fill="#FF8A98"/>
<path d="M192.075 388.378H274.489V207.422C274.489 206.009 274.199 204.612 273.636 203.316C273.073 202.021 272.249 200.855 271.216 199.891L240.316 171.046C238.409 169.265 235.897 168.275 233.287 168.275C230.678 168.275 228.166 169.265 226.258 171.046L195.358 199.891C194.325 200.855 193.502 202.021 192.939 203.316C192.376 204.612 192.085 206.009 192.085 207.422L192.075 388.378Z" fill="white"/>
<path d="M233.282 305.964V168.276C230.672 168.273 228.159 169.264 226.253 171.047L195.353 199.892C194.32 200.856 193.497 202.022 192.934 203.317C192.371 204.613 192.08 206.01 192.08 207.423V388.379H274.489V347.172C263.56 347.171 253.079 342.83 245.352 335.102C237.624 327.374 233.282 316.893 233.282 305.964Z" fill="#EFE6E6"/>
<path d="M253.885 388.379V470.793H212.678V388.379H253.885Z" fill="#6B7D8E"/>
<path d="M253.889 429.585V388.378H212.678V470.792H233.278V450.192C233.277 447.485 233.81 444.805 234.845 442.304C235.881 439.803 237.399 437.531 239.313 435.617C241.227 433.703 243.5 432.186 246.001 431.151C248.502 430.116 251.182 429.584 253.889 429.585Z" fill="#546370"/>
<path d="M181.773 408.982H284.789C286.142 408.982 287.481 408.716 288.731 408.198C289.98 407.68 291.116 406.922 292.072 405.965C293.029 405.009 293.787 403.873 294.305 402.624C294.823 401.374 295.089 400.035 295.089 398.682V378.082C295.089 376.729 294.823 375.39 294.305 374.14C293.787 372.891 293.029 371.755 292.072 370.799C291.116 369.842 289.98 369.084 288.731 368.566C287.481 368.048 286.142 367.782 284.789 367.782H181.773C180.421 367.782 179.081 368.048 177.832 368.566C176.582 369.084 175.446 369.842 174.49 370.799C173.534 371.755 172.775 372.891 172.257 374.14C171.74 375.39 171.473 376.729 171.473 378.082V398.682C171.473 401.414 172.558 404.034 174.49 405.965C176.422 407.897 179.041 408.982 181.773 408.982Z" fill="#F4E74D"/>
<path d="M212.678 398.68V378.08C212.678 375.348 213.763 372.728 215.695 370.797C217.627 368.865 220.246 367.78 222.978 367.78H181.773C179.041 367.78 176.422 368.865 174.49 370.797C172.558 372.728 171.473 375.348 171.473 378.08V398.68C171.473 401.412 172.558 404.032 174.49 405.963C176.422 407.895 179.041 408.98 181.773 408.98H222.98C221.627 408.98 220.288 408.714 219.038 408.197C217.788 407.679 216.652 406.92 215.696 405.964C214.739 405.007 213.98 403.872 213.462 402.622C212.945 401.372 212.678 400.033 212.678 398.68Z" fill="#EEDB00"/>
<path d="M264.189 478.293H202.376C200.387 478.293 198.479 477.503 197.073 476.096C195.666 474.69 194.876 472.782 194.876 470.793C194.876 468.804 195.666 466.896 197.073 465.49C198.479 464.083 200.387 463.293 202.376 463.293H264.189C266.178 463.293 268.086 464.083 269.492 465.49C270.899 466.896 271.689 468.804 271.689 470.793C271.689 472.782 270.899 474.69 269.492 476.096C268.086 477.503 266.178 478.293 264.189 478.293Z" fill="#F4E74D"/>
<path d="M95.7959 257.247L107.451 298.04L148.244 309.7L136.589 268.9L95.7959 257.247Z" fill="#FFBFC7"/>
<path d="M133.822 305.575C126.167 291.717 119.557 277.306 114.05 262.463L95.7959 257.248L107.451 298.041L133.822 305.575Z" fill="#FF8A98"/>
<path d="M370.768 257.247L359.113 298.04L318.319 309.7L329.975 268.9L370.768 257.247Z" fill="#FFBFC7"/>
</svg>
