<svg width="513" height="512" viewBox="0 0 513 512" fill="none" xmlns="http://www.w3.org/2000/svg">
<path d="M294.729 23.8091C270.524 20.1318 246.086 18.1905 221.604 18.0001C207.436 17.9691 195.456 29.0821 195.167 43.2621C195.095 46.6942 195.71 50.1062 196.973 53.298C198.237 56.4899 200.125 59.3974 202.527 61.8503C204.929 64.3032 207.796 66.2521 210.96 67.5828C214.125 68.9135 217.523 69.5993 220.956 69.6001C242.596 69.6764 264.174 71.9101 285.37 76.2681L308.155 51.5411L294.729 23.8091Z" fill="#485B73"/>
<path d="M512.999 367.836C512.999 392.737 505.615 417.078 491.781 437.782C477.947 458.486 458.284 474.623 435.279 484.152C412.274 493.682 386.959 496.175 362.537 491.317C338.115 486.459 315.682 474.468 298.074 456.861C280.467 439.253 268.476 416.82 263.618 392.398C258.76 367.976 261.254 342.661 270.783 319.656C280.312 296.651 296.449 276.988 317.153 263.154C337.857 249.32 362.198 241.936 387.099 241.936C420.49 241.936 452.513 255.2 476.124 278.811C499.735 302.422 512.999 334.445 512.999 367.836Z" fill="#485B73"/>
<path d="M303.546 273.668L337.909 383.277C342.002 396.324 351.111 407.211 363.231 413.543C375.351 419.874 389.49 421.132 402.538 417.039C415.585 412.945 426.472 403.837 432.803 391.717C439.135 379.596 440.392 365.457 436.299 352.41L401.936 242.81C397.012 242.23 392.058 241.938 387.1 241.935C356.297 241.894 326.556 253.19 303.546 273.668Z" fill="#324761"/>
<path d="M471.722 367.836C471.722 384.572 466.759 400.933 457.461 414.849C448.163 428.765 434.947 439.611 419.485 446.015C404.022 452.42 387.008 454.096 370.593 450.831C354.178 447.566 339.1 439.507 327.266 427.673C315.431 415.839 307.372 400.761 304.106 384.346C300.841 367.931 302.516 350.917 308.921 335.454C315.325 319.992 326.171 306.776 340.087 297.477C354.002 288.179 370.363 283.215 387.099 283.215C398.212 283.214 409.216 285.403 419.483 289.655C429.75 293.907 439.079 300.14 446.937 307.998C454.795 315.856 461.029 325.185 465.281 335.452C469.534 345.719 471.722 356.723 471.722 367.836Z" fill="#ECECEE"/>
<path d="M317.835 319.25L337.909 383.277C342.002 396.324 351.111 407.211 363.231 413.543C375.351 419.874 389.49 421.132 402.538 417.039C415.585 412.945 426.472 403.837 432.803 391.717C439.135 379.596 440.392 365.457 436.299 352.41L416.217 288.355C398.705 281.959 379.571 281.519 361.784 287.105C343.997 292.691 328.549 303.99 317.838 319.25H317.835Z" fill="#DADADC"/>
<path d="M394.819 392.457C391.586 393.474 388.184 393.843 384.807 393.544C381.431 393.245 378.147 392.283 375.143 390.713C372.139 389.144 369.474 386.997 367.3 384.396C365.126 381.796 363.487 378.792 362.475 375.557L310.799 210.707C288.06 220.467 266.19 232.14 245.425 245.6C217.747 263.417 192.276 284.447 169.542 308.252C142.492 336.614 120.182 369.145 103.468 404.596C100.497 410.684 95.2506 415.36 88.8617 417.613C82.4728 419.866 75.454 419.516 69.3212 416.638C63.1883 413.76 58.4335 408.585 56.0835 402.231C53.7335 395.877 53.9768 388.854 56.761 382.678C72.3946 349.441 92.3828 318.432 116.199 290.469C102.515 268.797 82.668 231.059 82.668 194.469H134.268C134.268 212.59 143.815 234.625 153.362 251.828C173.722 233.105 195.671 216.188 218.962 201.269C259.427 175.296 294.407 161.148 310.497 155.359L343.797 104.132C344.31 103.344 344.655 102.459 344.809 101.532C344.963 100.604 344.923 99.6553 344.692 98.7441C344.462 97.8328 344.045 96.9793 343.468 96.2372C342.891 95.495 342.166 94.8804 341.34 94.4321C329.66 88.1661 309.617 81.2211 285.367 76.2681L294.729 23.8131C308.983 26.0511 322.038 28.9421 331.819 32.4581C351.643 39.5911 369.042 49.1381 383.51 60.8371C392.518 68.1012 398.505 78.4534 400.309 89.8837C402.113 101.314 399.605 113.007 393.272 122.692L355.502 180.792L411.721 360.112C413.766 366.643 413.134 373.718 409.965 379.783C406.796 385.848 401.348 390.407 394.819 392.457Z" fill="#FF6881"/>
<path d="M102.878 306.973C84.8254 330.473 69.3635 355.853 56.7611 382.673C55.2607 385.748 54.3868 389.09 54.1903 392.506C53.9937 395.921 54.4784 399.342 55.6162 402.568C56.754 405.794 58.5221 408.762 60.8176 411.299C63.1131 413.836 65.8903 415.891 68.9874 417.344C72.0845 418.797 75.4397 419.62 78.8578 419.765C82.276 419.909 85.6887 419.372 88.8974 418.186C92.1061 416.999 95.0468 415.186 97.5483 412.852C100.05 410.518 102.062 407.71 103.468 404.591C116.015 377.92 131.775 352.883 150.398 330.036C136.671 318.596 120.359 310.679 102.878 306.973Z" fill="#DE4B64"/>
<path d="M159.226 414.617C159.225 430.264 154.585 445.559 145.891 458.569C137.198 471.578 124.842 481.718 110.386 487.705C95.9297 493.692 80.0229 495.258 64.6768 492.206C49.3306 489.153 35.2344 481.618 24.1706 470.553C13.1068 459.489 5.57238 445.393 2.52 430.046C-0.532382 414.7 1.03441 398.793 7.02225 384.338C13.0101 369.882 23.15 357.526 36.1599 348.833C49.1697 340.14 64.4652 335.5 80.112 335.5C90.5017 335.5 100.79 337.547 110.388 341.523C119.987 345.499 128.709 351.326 136.055 358.673C143.402 366.02 149.229 374.742 153.205 384.341C157.18 393.939 159.226 404.227 159.226 414.617Z" fill="#485B73"/>
<path d="M126.894 414.617C126.894 423.869 124.151 432.913 119.012 440.606C113.872 448.299 106.566 454.295 98.0186 457.836C89.4711 461.377 80.0655 462.304 70.9912 460.5C61.9169 458.695 53.5815 454.24 47.039 447.699C40.4966 441.157 36.0409 432.822 34.2354 423.748C32.4299 414.674 33.3557 405.268 36.8958 396.72C40.4359 388.172 46.4312 380.866 54.1236 375.725C61.816 370.585 70.8601 367.841 80.112 367.84C92.5185 367.84 104.417 372.768 113.19 381.54C121.963 390.313 126.893 402.211 126.894 414.617Z" fill="#ECECEE"/>
<path d="M134.269 194.465H82.669C82.669 207.817 85.321 221.32 89.341 234.145H144.529C138.699 220.941 134.269 206.8 134.269 194.465Z" fill="#DE4B64"/>
<path d="M178.405 187.813C169.046 143.641 117.218 161.192 96.605 148.543C40.362 112.426 3.72903 203.234 50.167 203.234H165.788C167.697 203.24 169.583 202.821 171.309 202.007C173.035 201.192 174.558 200.003 175.766 198.526C176.975 197.049 177.839 195.321 178.295 193.467C178.752 191.614 178.789 189.683 178.405 187.813Z" fill="#485B73"/>
</svg>
