<svg width="512" height="512" viewBox="0 0 512 512" fill="none" xmlns="http://www.w3.org/2000/svg">
<path d="M494.952 353.532L159.471 18.051L159.465 18.045C156.28 14.8594 152.498 12.3326 148.335 10.609C144.173 8.88546 139.712 7.9989 135.207 8C126.104 8.00001 117.375 11.6158 110.938 18.052L18.052 110.933C11.6163 117.369 8.00054 126.098 8 135.2H8C8.00001 144.303 11.6158 153.032 18.052 159.469L353.525 494.947C356.712 498.134 360.495 500.663 364.66 502.387C368.824 504.112 373.287 505 377.794 505C382.301 505 386.764 504.112 390.928 502.387C395.092 500.662 398.876 498.134 402.063 494.947L448.504 448.506L494.946 402.065C501.381 395.629 504.996 386.9 504.996 377.798C504.996 368.697 501.381 359.968 494.946 353.532H494.952Z" fill="#B0EBD8"/>
<path d="M409.865 409.866L134.954 134.954C130.775 130.775 127.461 125.815 125.199 120.355C122.938 114.895 121.774 109.044 121.774 103.134C121.774 97.2245 122.938 91.3728 125.199 85.9131C127.461 80.4534 130.775 75.4926 134.954 71.314L173.845 32.423L159.465 18.043C156.279 14.858 152.497 12.3318 148.335 10.6086C144.173 8.88543 139.712 7.99902 135.207 8C126.104 8.00001 117.375 11.6158 110.938 18.052L18.052 110.933C11.6163 117.369 8.00054 126.098 8 135.2H8C8.00001 144.303 11.6158 153.032 18.052 159.469L353.525 494.947C356.712 498.134 360.495 500.663 364.66 502.387C368.824 504.112 373.287 505 377.794 505C382.301 505 386.764 504.112 390.928 502.387C395.092 500.662 398.876 498.134 402.063 494.947L464.512 432.5C454.363 432.5 444.314 430.501 434.937 426.617C425.561 422.734 417.041 417.041 409.865 409.865V409.866Z" fill="#5FD9B3"/>
<path d="M475.71 37.288C456.956 18.5345 431.521 7.99886 404.999 7.99886C378.478 7.99886 353.042 18.5345 334.289 37.288L297.1 74.478L438.52 215.9L475.709 178.711C494.46 159.956 504.995 134.521 504.995 108C504.995 81.4789 494.46 56.0438 475.709 37.289L475.71 37.288Z" fill="#FF8E9E"/>
<path d="M483.664 46.253C474.93 35.1313 463.937 25.988 451.41 19.4264C438.884 12.8648 425.108 9.03402 410.992 8.18683C396.876 7.33965 382.742 9.49531 369.52 14.5116C356.298 19.5279 344.291 27.2907 334.29 37.288L297.1 74.478L389.024 166.4V140.89C389.024 128.462 391.472 116.155 396.228 104.673C400.984 93.1908 407.955 82.7578 416.743 73.9698C425.531 65.1817 435.964 58.2107 447.447 53.4547C458.929 48.6987 471.235 46.2509 483.664 46.251V46.253Z" fill="#EA5B70"/>
<path d="M203.086 168.491L37.2861 334.291L178.711 475.71C185.482 468.939 268.085 386.335 344.511 309.91C338.3 303.7 209.294 174.7 203.086 168.491Z" fill="#FFCE71"/>
<path d="M203.086 168.491L37.2861 334.291L108 405L273.8 239.2L203.086 168.491Z" fill="#FFB357"/>
<path d="M297.1 74.478L203.087 168.491L344.508 309.912L438.521 215.9C432.321 209.7 303.321 80.7 297.1 74.479V74.478Z" fill="#C1D3F7"/>
<path d="M297.1 74.478L203.087 168.491L273.8 239.2L367.813 145.187L297.1 74.478Z" fill="#A6BFE2"/>
<path d="M126.381 407.412C121.4 406.067 116.858 403.44 113.209 399.791C109.561 396.142 106.933 391.601 105.588 386.619C101.54 371.601 92.6557 358.336 80.3091 348.876C67.9625 339.416 52.8423 334.29 37.2883 334.289L18.0273 420.25L41.8893 474.128L92.7493 494.972L178.71 475.71C178.71 460.156 173.583 445.037 164.123 432.691C154.664 420.344 141.399 411.46 126.381 407.412Z" fill="#FAD5CB"/>
<path d="M105.588 386.618C101.54 371.6 92.6557 358.335 80.3091 348.875C67.9625 339.415 52.8423 334.289 37.2883 334.288L18.0273 420.25L41.8893 474.128L77.1673 455.02C83.9558 435.602 95.0348 417.965 109.58 403.42L113.209 399.792C109.558 396.145 106.93 391.602 105.588 386.618Z" fill="#FFB39D"/>
<path d="M8 468.985C7.99969 474.383 9.21311 479.713 11.5505 484.579C13.8879 489.445 17.2894 493.724 21.5035 497.098C25.7175 500.472 30.6363 502.856 35.8958 504.073C41.1554 505.289 46.6213 505.308 51.889 504.127L92.749 494.971C90.493 475.935 81.8953 458.212 68.3405 444.657C54.7858 431.103 37.0631 422.505 18.027 420.249L8.871 461.109C8.29211 463.694 8.00001 466.336 8 468.985H8Z" fill="#00388B"/>
<path d="M365.721 288.7L224.3 147.278C221.525 144.449 218.216 142.198 214.565 140.655C210.914 139.111 206.993 138.307 203.03 138.288C199.066 138.269 195.138 139.036 191.473 140.544C187.807 142.052 184.477 144.271 181.674 147.073C178.871 149.876 176.651 153.206 175.143 156.871C173.635 160.537 172.868 164.465 172.886 168.428C172.905 172.392 173.708 176.312 175.251 179.964C176.794 183.615 179.044 186.924 181.873 189.7L323.294 331.126C328.92 336.752 336.551 339.913 344.507 339.913C352.464 339.913 360.095 336.753 365.721 331.126C371.347 325.5 374.508 317.87 374.508 309.913C374.508 301.957 371.347 294.326 365.721 288.7Z" fill="#A6BFE2"/>
<path d="M252.584 217.989C255.37 215.203 258.677 212.993 262.317 211.486C265.957 209.978 269.858 209.202 273.798 209.202C277.738 209.202 281.639 209.978 285.279 211.486C288.918 212.993 292.226 215.203 295.011 217.989L224.3 147.278C221.525 144.449 218.216 142.198 214.565 140.655C210.914 139.111 206.993 138.307 203.03 138.288C199.066 138.269 195.138 139.036 191.473 140.544C187.807 142.052 184.477 144.271 181.674 147.073C178.871 149.876 176.651 153.206 175.143 156.871C173.635 160.537 172.868 164.465 172.886 168.428C172.905 172.392 173.708 176.312 175.251 179.964C176.794 183.615 179.044 186.924 181.873 189.7L252.584 260.411C246.958 254.785 243.798 247.154 243.798 239.198C243.798 231.242 246.958 223.611 252.584 217.985V217.989Z" fill="#88A6D1"/>
<path d="M459.734 194.687L318.313 53.265C312.687 47.6388 305.057 44.478 297.1 44.4779C289.144 44.4778 281.513 47.6385 275.887 53.2645C270.261 58.8905 267.1 66.5211 267.1 74.4776C267.1 82.4342 270.26 90.0648 275.886 95.691L417.307 237.113C422.933 242.739 430.564 245.9 438.52 245.9C446.477 245.9 454.107 242.74 459.734 237.113C465.36 231.487 468.521 223.857 468.521 215.9C468.521 207.944 465.36 200.313 459.734 194.687Z" fill="#A6BFE2"/>
<path d="M346.6 123.976C349.386 121.19 352.693 118.98 356.333 117.473C359.973 115.965 363.874 115.189 367.814 115.189C371.753 115.189 375.655 115.965 379.294 117.473C382.934 118.98 386.241 121.19 389.027 123.976L318.313 53.265C312.687 47.6388 305.057 44.478 297.1 44.4779C289.144 44.4778 281.513 47.6385 275.887 53.2645C270.261 58.8905 267.1 66.5211 267.1 74.4776C267.1 82.4342 270.26 90.0648 275.886 95.691L346.6 166.4C340.975 160.774 337.815 153.144 337.815 145.188C337.815 137.232 340.975 129.602 346.6 123.976Z" fill="#88A6D1"/>
<path d="M79.882 97.107C78.4755 95.7007 76.5679 94.9106 74.5789 94.9106C72.59 94.9106 70.6824 95.7007 69.2759 97.107L36.7499 129.63C35.3535 131.039 34.5719 132.943 34.5762 134.926C34.5804 136.91 35.3702 138.811 36.7726 140.213C38.1751 141.616 40.076 142.406 42.0594 142.41C44.0428 142.415 45.9473 141.633 47.3559 140.237L79.8809 107.714C80.5774 107.018 81.1299 106.191 81.5069 105.281C81.8838 104.371 82.0778 103.395 82.0778 102.41C82.0778 101.426 81.8838 100.45 81.5069 99.5402C81.1299 98.6303 80.5774 97.8034 79.8809 97.107H79.882Z" fill="#009D6B"/>
<path d="M103.883 121.108C103.186 120.412 102.359 119.859 101.449 119.482C100.539 119.105 99.564 118.911 98.579 118.911C97.5941 118.911 96.6187 119.105 95.7088 119.482C94.7988 119.859 93.972 120.412 93.2755 121.108L60.7495 153.631C60.0531 154.327 59.5006 155.154 59.1237 156.064C58.7467 156.974 58.5527 157.95 58.5527 158.934C58.5527 159.919 58.7467 160.895 59.1237 161.805C59.5006 162.715 60.0531 163.542 60.7495 164.238C61.446 164.934 62.2728 165.487 63.1828 165.864C64.0928 166.241 65.0681 166.435 66.053 166.435C67.038 166.435 68.0133 166.241 68.9232 165.864C69.8332 165.487 70.66 164.934 71.3565 164.238L103.883 131.715C104.579 131.019 105.132 130.192 105.508 129.282C105.885 128.372 106.079 127.396 106.079 126.411C106.079 125.427 105.885 124.451 105.508 123.541C105.132 122.631 104.579 121.804 103.883 121.108Z" fill="#009D6B"/>
<path d="M127.883 145.109C126.476 143.703 124.569 142.913 122.58 142.913C120.591 142.913 118.683 143.703 117.277 145.109L84.7519 177.631C83.3555 179.04 82.5739 180.944 82.5781 182.927C82.5824 184.911 83.3721 186.812 84.7746 188.214C86.177 189.617 88.0779 190.407 90.0613 190.411C92.0448 190.416 93.9492 189.634 95.3579 188.238L127.883 155.715C129.289 154.308 130.079 152.401 130.079 150.412C130.079 148.423 129.289 146.515 127.883 145.109Z" fill="#009D6B"/>
<path d="M141.278 169.108L108.753 201.632C107.356 203.041 106.575 204.945 106.579 206.928C106.583 208.912 107.373 210.813 108.776 212.215C110.178 213.618 112.079 214.408 114.062 214.412C116.046 214.417 117.95 213.635 119.359 212.239L151.884 179.715C153.28 178.306 154.062 176.402 154.058 174.419C154.053 172.435 153.264 170.534 151.861 169.132C150.459 167.729 148.558 166.939 146.574 166.935C144.591 166.93 142.687 167.712 141.278 169.108Z" fill="#009D6B"/>
<path d="M343.89 361.117C342.483 359.711 340.576 358.921 338.587 358.921C336.598 358.921 334.69 359.711 333.284 361.117L300.759 393.64C299.362 395.049 298.581 396.953 298.585 398.936C298.589 400.92 299.379 402.821 300.781 404.223C302.184 405.626 304.085 406.416 306.068 406.42C308.052 406.425 309.956 405.643 311.365 404.247L343.89 371.724C345.296 370.318 346.086 368.41 346.086 366.421C346.086 364.432 345.296 362.525 343.89 361.118V361.117Z" fill="#009D6B"/>
<path d="M367.892 385.118C367.196 384.421 366.369 383.869 365.459 383.492C364.549 383.115 363.574 382.921 362.589 382.921C361.604 382.921 360.628 383.115 359.719 383.492C358.809 383.869 357.982 384.421 357.285 385.118L324.759 417.64C324.063 418.336 323.51 419.163 323.133 420.073C322.756 420.983 322.562 421.959 322.562 422.943C322.562 423.928 322.756 424.904 323.133 425.814C323.51 426.724 324.063 427.551 324.759 428.247C325.456 428.943 326.283 429.496 327.193 429.873C328.103 430.25 329.078 430.444 330.063 430.444C331.048 430.444 332.023 430.25 332.933 429.873C333.843 429.496 334.67 428.943 335.366 428.247L367.892 395.724C369.299 394.317 370.089 392.41 370.089 390.421C370.089 388.432 369.299 386.524 367.892 385.118Z" fill="#009D6B"/>
<path d="M391.892 409.118C390.485 407.712 388.578 406.922 386.589 406.922C384.6 406.922 382.692 407.712 381.286 409.118L348.761 441.642C347.364 443.051 346.583 444.955 346.587 446.938C346.591 448.922 347.381 450.823 348.783 452.225C350.186 453.628 352.087 454.418 354.07 454.422C356.054 454.427 357.958 453.645 359.367 452.249L391.892 419.725C393.298 418.318 394.088 416.411 394.088 414.422C394.088 412.433 393.298 410.525 391.892 409.119V409.118Z" fill="#009D6B"/>
<path d="M415.893 433.119C414.486 431.713 412.579 430.923 410.59 430.923C408.601 430.923 406.693 431.713 405.287 433.119L372.761 465.643C371.364 467.052 370.583 468.956 370.587 470.939C370.591 472.923 371.381 474.824 372.783 476.226C374.186 477.629 376.087 478.419 378.07 478.423C380.054 478.428 381.958 477.646 383.367 476.25L415.893 443.726C417.299 442.32 418.089 440.412 418.089 438.423C418.089 436.434 417.299 434.527 415.893 433.12V433.119Z" fill="#009D6B"/>
</svg>
