<svg width="512" height="512" viewBox="0 0 512 512" fill="none" xmlns="http://www.w3.org/2000/svg">
<path d="M438.974 133.547L386.382 63.261C375.172 48.2791 360.624 36.1167 343.892 27.7392C327.161 19.3618 308.707 14.9999 289.995 15L244.895 15C229.931 15 215.58 20.9444 204.999 31.5256C194.417 42.1068 188.473 56.458 188.473 71.422V85.467C188.473 114.339 210.721 130.492 238.357 130.492H263.695C266.326 130.473 268.928 129.935 271.352 128.909C273.775 127.883 275.972 126.389 277.817 124.513C279.662 122.637 281.118 120.415 282.103 117.974C283.088 115.534 283.582 112.923 283.556 110.292V104.205C291.808 104.205 299.722 107.483 305.558 113.318C311.393 119.154 314.671 127.068 314.671 135.32V247.764H307.771C285.011 247.764 262.512 252.621 241.779 262.01C221.045 271.399 202.554 285.105 187.54 302.211H146.04C64.851 302.211 24.999 347.111 24.999 407.875C25.002 463.828 71.67 512 130.61 512C145.71 512 196.157 505.481 239.689 493.312C365.658 457.773 481.689 374.412 481.689 245.981C481.689 208.271 478.373 183.9 438.97 133.547H438.974Z" fill="#FED2A4"/>
<path d="M244.893 15C237.484 14.9999 230.147 16.4592 223.301 19.2946C216.455 22.13 210.235 26.286 204.996 31.5253C199.757 36.7645 195.601 42.9845 192.765 49.83C189.93 56.6755 188.47 64.0125 188.47 71.422V85.467C188.47 114.339 210.718 130.492 238.354 130.492H263.692C266.324 130.473 268.925 129.935 271.349 128.909C273.772 127.883 275.969 126.389 277.814 124.513C279.659 122.637 281.115 120.415 282.1 117.974C283.085 115.534 283.579 112.923 283.553 110.292V104.205C291.805 104.205 299.72 107.483 305.555 113.318C311.39 119.154 314.668 127.068 314.668 135.32V247.765H307.768C285.008 247.765 262.509 252.622 241.776 262.011C221.042 271.4 202.551 285.106 187.537 302.212H146.037C64.8481 302.212 24.9961 347.112 24.9961 407.876C24.9961 455.189 58.3681 496.936 104.31 508.7C170.529 498.484 275.347 432.929 275.347 432.929L306.447 411.646C326.863 397.675 343.565 378.937 355.106 357.055C366.647 335.174 372.679 310.808 372.679 286.069V142.792C372.68 108.9 359.217 76.3965 335.252 52.4309C311.288 28.4654 278.785 15.0011 244.893 15V15Z" fill="#FFBD86"/>
<path d="M205.427 197.52C204.426 195.811 202.789 194.568 200.874 194.062C198.959 193.556 196.922 193.828 195.207 194.818C193.492 195.808 192.238 197.437 191.719 199.348C191.2 201.259 191.458 203.298 192.437 205.02L206.297 229.02C206.788 229.874 207.443 230.622 208.224 231.222C209.005 231.821 209.897 232.261 210.848 232.516C211.8 232.77 212.792 232.835 213.768 232.705C214.744 232.575 215.685 232.254 216.537 231.76C217.391 231.269 218.14 230.615 218.74 229.834C219.341 229.053 219.782 228.162 220.037 227.211C220.293 226.259 220.358 225.267 220.229 224.291C220.1 223.314 219.78 222.373 219.287 221.52L205.427 197.52Z" fill="#D4D4FF"/>
<path d="M268.217 175.25C266.228 175.252 264.322 176.043 262.916 177.449C261.51 178.855 260.719 180.762 260.717 182.75V210.45C260.717 212.439 261.507 214.347 262.914 215.753C264.32 217.16 266.228 217.95 268.217 217.95C270.206 217.95 272.114 217.16 273.52 215.753C274.927 214.347 275.717 212.439 275.717 210.45V182.75C275.713 180.762 274.921 178.857 273.515 177.451C272.11 176.046 270.205 175.254 268.217 175.25Z" fill="#D4D4FF"/>
<path d="M175.967 259.35L151.967 245.49C151.114 244.99 150.17 244.663 149.19 244.529C148.21 244.395 147.213 244.456 146.257 244.709C145.301 244.962 144.404 245.402 143.618 246.002C142.832 246.603 142.173 247.353 141.679 248.21C141.184 249.067 140.864 250.013 140.736 250.993C140.609 251.974 140.677 252.971 140.936 253.925C141.195 254.88 141.64 255.774 142.246 256.555C142.852 257.337 143.607 257.991 144.467 258.48L168.467 272.34C170.189 273.319 172.228 273.577 174.139 273.058C176.05 272.539 177.679 271.285 178.669 269.57C179.659 267.855 179.931 265.818 179.425 263.903C178.918 261.988 177.675 260.352 175.967 259.35Z" fill="#D4D4FF"/>
<path d="M351.909 286.423C342.279 286.407 332.87 289.31 324.923 294.749C322.06 296.699 318.676 297.742 315.213 297.742C311.749 297.742 308.365 296.699 305.503 294.749C298.325 289.849 289.948 286.997 281.272 286.501C272.596 286.004 263.948 287.882 256.259 291.931C248.569 295.981 242.129 302.049 237.63 309.485C233.131 316.92 230.743 325.441 230.723 334.131C230.723 361.265 249.837 380.451 266.489 394.131C277.349 403.055 285.977 408.769 300.484 418.096C304.878 420.92 309.991 422.421 315.214 422.421C320.437 422.421 325.55 420.92 329.944 418.096C341.608 410.596 349.223 405.596 357.238 399.455C359.412 397.788 361.615 396.042 363.938 394.134C380.59 380.45 399.704 361.264 399.704 334.134C399.698 327.863 398.458 321.654 396.053 315.863C393.648 310.071 390.126 304.81 385.687 300.38C381.249 295.949 375.982 292.437 370.186 290.042C364.39 287.647 358.18 286.417 351.909 286.423Z" fill="#FF8E9E"/>
<path d="M300.723 324.131C300.711 314.32 303.743 304.746 309.401 296.731C308.022 296.238 306.711 295.571 305.501 294.747C298.323 289.847 289.946 286.995 281.27 286.499C272.594 286.002 263.946 287.88 256.257 291.929C248.567 295.979 242.127 302.047 237.628 309.483C233.129 316.918 230.741 325.439 230.721 334.129C230.721 361.263 249.835 380.449 266.487 394.129C277.347 403.053 285.975 408.767 300.482 418.094C304.876 420.918 309.989 422.419 315.212 422.419C320.435 422.419 325.548 420.918 329.942 418.094C341.606 410.594 349.221 405.594 357.236 399.453C350.06 394.707 343.134 389.593 336.487 384.132C319.837 370.451 300.723 351.265 300.723 324.131Z" fill="#EA5B70"/>
</svg>
