<svg width="513" height="512" viewBox="0 0 513 512" fill="none" xmlns="http://www.w3.org/2000/svg">
<path d="M489.659 0C483.458 0.0100703 477.515 2.48291 473.137 6.87458C468.759 11.2663 466.305 17.2171 466.315 23.418V310.668C466.315 360.387 432.006 400.832 389.831 400.832C347.656 400.832 313.347 360.383 313.347 310.668V157.094C313.347 143.211 295.898 137.117 287.304 147.994L252.404 192.166C242.951 204.131 251.443 221.76 266.666 221.76V310.67C266.666 386.213 321.916 447.67 389.83 447.67C457.744 447.67 512.999 386.211 512.999 310.668V23.418C513.004 20.3478 512.404 17.3067 511.234 14.4683C510.064 11.6298 508.346 9.04968 506.179 6.87512C504.011 4.70055 501.437 2.97417 498.602 1.79454C495.768 0.614901 492.729 0.00511728 489.659 0V0Z" fill="#889CB0"/>
<path d="M389.835 400.832C347.659 400.832 313.351 360.383 313.351 310.668V300.422L266.917 319.422C270.851 388.5 321.022 443.844 383.299 447.477C396.987 430.254 389.835 400.832 389.835 400.832Z" fill="#6A829A"/>
<path d="M48.2216 367.77C43.508 365.96 38.4496 365.226 33.4159 365.621C28.3822 366.016 23.5003 367.531 19.1269 370.054C14.7535 372.578 10.999 376.046 8.13768 380.206C5.27638 384.366 3.38052 389.113 2.5886 394.1C-0.77504 414.413 1.23364 435.253 8.41515 454.549C15.5967 473.846 27.7012 490.928 43.5266 504.1C47.3949 507.342 51.9393 509.678 56.827 510.936C61.7147 512.195 66.822 512.345 71.775 511.374C76.728 510.404 81.4013 508.338 85.4528 505.328C89.5043 502.319 92.8314 498.441 95.1906 493.979L142.718 404.279L48.2216 367.77Z" fill="#91D4F2"/>
<path d="M95.1986 493.98L142.726 404.28L48.2256 367.772C48.2256 367.772 30.5456 421.881 55.4876 464.963C66.1676 483.404 72.6946 498.263 76.5876 510.063C84.6006 507.246 91.25 501.5 95.1986 493.98Z" fill="#59C2E8"/>
<path d="M185.131 280.8C131.698 300.82 92.1704 342.914 71.2524 395C61.9084 418.273 72.5374 446.832 94.7994 458.262C144.619 483.848 201.971 489.653 255.408 469.633C312.185 448.363 353.26 402.172 372.99 345.555C379.232 327.645 371.408 306.625 354.998 297.203C303.107 267.414 241.908 259.531 185.131 280.8Z" fill="#C2EAFB"/>
<path d="M372.991 345.555C379.233 327.645 371.409 306.625 354.999 297.203C316.89 275.328 273.769 265.266 231.058 269.887C223.503 299.672 225.14 334.539 237.835 368.641C250.53 402.743 272.062 430.149 297.226 447.68C332.499 423.09 358.499 387.133 372.991 345.555Z" fill="#91D4F2"/>
<path d="M154.788 363.1C168.905 349.389 184.311 356.67 197.976 370.834C211.641 384.998 218.39 400.686 204.276 414.397C190.162 428.108 149.71 445.143 136.046 430.979C122.382 416.815 140.667 376.809 154.788 363.1Z" fill="#59C2E8"/>
<path d="M292.314 329.875C282.162 335.781 277.748 347.121 282.451 355.203C287.154 363.285 299.197 365.051 309.351 359.144C319.505 353.237 323.914 341.894 319.21 333.812C314.506 325.73 302.463 323.965 292.314 329.875Z" fill="#FFB3C2"/>
<path d="M312.437 334.453C310.665 335.483 308.557 335.767 306.575 335.244C304.594 334.72 302.902 333.431 301.871 331.66L295.418 320.574C294.399 318.803 294.122 316.701 294.649 314.727C295.176 312.753 296.463 311.068 298.229 310.04C299.995 309.012 302.096 308.726 304.073 309.244C306.049 309.761 307.741 311.04 308.777 312.801L315.226 323.887C315.736 324.764 316.069 325.733 316.205 326.738C316.342 327.744 316.278 328.766 316.019 329.748C315.76 330.729 315.311 331.649 314.696 332.457C314.081 333.264 313.313 333.942 312.437 334.453Z" fill="#454545"/>
</svg>
