<svg width="559" height="512" viewBox="0 0 559 512" fill="none" xmlns="http://www.w3.org/2000/svg">
<path d="M402.994 243.092C431.429 243.092 454.48 220.041 454.48 191.606C454.48 163.171 431.429 140.12 402.994 140.12C374.559 140.12 351.508 163.171 351.508 191.606C351.508 220.041 374.559 243.092 402.994 243.092Z" fill="#FFBE9D"/>
<path d="M51.486 243.092C79.9209 243.092 102.972 220.041 102.972 191.606C102.972 163.171 79.9209 140.12 51.486 140.12C23.0511 140.12 0 163.171 0 191.606C0 220.041 23.0511 243.092 51.486 243.092Z" fill="#FFD3BD"/>
<path d="M361.643 444.307C364.279 444.316 366.886 443.763 369.291 442.684C371.695 441.605 373.842 440.025 375.587 438.05C377.332 436.075 378.635 433.75 379.409 431.23C380.184 428.711 380.411 426.055 380.077 423.441C375.027 386.491 356.762 352.622 328.662 328.102C300.563 303.582 264.532 290.072 227.239 290.072C189.946 290.072 153.915 303.582 125.816 328.102C97.7163 352.622 79.4512 386.491 74.4009 423.441C74.0667 426.055 74.2945 428.711 75.0689 431.23C75.8433 433.749 77.1465 436.074 78.8915 438.05C80.6365 440.025 82.783 441.605 85.1876 442.684C87.5921 443.763 90.1994 444.316 92.8349 444.307H361.643Z" fill="#8DAEE1"/>
<path d="M361.643 444.307C364.279 444.316 366.886 443.763 369.291 442.684C371.695 441.605 373.842 440.025 375.587 438.05C377.332 436.075 378.635 433.75 379.409 431.23C380.184 428.711 380.411 426.055 380.077 423.441C376.728 398.686 367.382 375.123 352.853 354.802C330.8 369.136 312.518 406.09 311 444.307H361.643Z" fill="#F6EE86"/>
<path d="M92.837 444.307C90.2011 444.317 87.5935 443.764 85.1885 442.685C82.7834 441.606 80.6365 440.026 78.8911 438.051C77.1458 436.076 75.8423 433.751 75.0678 431.231C74.2933 428.711 74.0656 426.056 74.4 423.441C77.7495 398.686 87.095 375.123 101.624 354.802C123.677 369.136 141.959 406.09 143.478 444.307H92.837Z" fill="#F6EE86"/>
<path d="M266.06 308.03C258.581 365.775 239.883 385.885 227.24 385.885C214.597 385.885 195.9 365.777 188.42 308.03H266.06Z" fill="#FFD3BD"/>
<path d="M404.224 180.541C404.224 90.292 324.986 20.101 227.24 20.101C129.494 20.101 50.256 90.292 50.256 180.541C50.256 270.79 129.494 342.302 227.24 342.302C324.986 342.302 404.224 270.79 404.224 180.541Z" fill="#FFD3BD"/>
<path d="M170.376 28.401C100.526 49.501 50.257 108.659 50.257 180.542C50.257 270.791 129.495 342.303 227.241 342.303C251.475 342.366 275.502 337.842 298.054 328.97C80.9479 316.977 111.59 93.907 170.376 28.401Z" fill="#FFBE9D"/>
<path d="M123.703 251.431C144.802 251.431 161.906 237.81 161.906 221.008C161.906 204.206 144.802 190.585 123.703 190.585C102.604 190.585 85.5 204.206 85.5 221.008C85.5 237.81 102.604 251.431 123.703 251.431Z" fill="#E7889D"/>
<path d="M330.777 251.431C351.876 251.431 368.98 237.81 368.98 221.008C368.98 204.206 351.876 190.585 330.777 190.585C309.678 190.585 292.574 204.206 292.574 221.008C292.574 237.81 309.678 251.431 330.777 251.431Z" fill="#E7889D"/>
<path d="M145.967 199.222C143.978 199.222 142.07 198.432 140.664 197.025C139.257 195.619 138.467 193.711 138.467 191.722V176.105C138.467 174.116 139.257 172.208 140.664 170.802C142.07 169.395 143.978 168.605 145.967 168.605C147.956 168.605 149.864 169.395 151.27 170.802C152.677 172.208 153.467 174.116 153.467 176.105V191.722C153.467 193.711 152.677 195.619 151.27 197.025C149.864 198.432 147.956 199.222 145.967 199.222Z" fill="#4E5660"/>
<path d="M308.513 199.222C306.524 199.222 304.616 198.432 303.21 197.025C301.803 195.619 301.013 193.711 301.013 191.722V176.105C301.013 174.116 301.803 172.208 303.21 170.802C304.616 169.395 306.524 168.605 308.513 168.605C310.502 168.605 312.41 169.395 313.816 170.802C315.223 172.208 316.013 174.116 316.013 176.105V191.722C316.013 193.711 315.223 195.619 313.816 197.025C312.41 198.432 310.502 199.222 308.513 199.222Z" fill="#4E5660"/>
<path d="M227.24 208.518C222.107 208.516 217.034 207.415 212.363 205.287C207.691 203.16 203.53 200.056 200.159 196.185C199.512 195.442 199.018 194.58 198.704 193.646C198.39 192.712 198.263 191.726 198.331 190.743C198.399 189.761 198.659 188.801 199.097 187.919C199.536 187.037 200.144 186.25 200.886 185.603C201.629 184.956 202.491 184.461 203.425 184.148C204.359 183.834 205.345 183.707 206.328 183.775C207.31 183.842 208.27 184.103 209.152 184.541C210.034 184.98 210.821 185.587 211.468 186.33C213.43 188.587 215.853 190.396 218.574 191.636C221.295 192.876 224.25 193.517 227.241 193.517C230.231 193.517 233.186 192.876 235.907 191.636C238.628 190.396 241.051 188.587 243.013 186.33C244.32 184.83 246.169 183.911 248.154 183.775C250.138 183.639 252.095 184.296 253.595 185.603C255.095 186.91 256.014 188.759 256.15 190.743C256.287 192.728 255.629 194.685 254.322 196.185C250.951 200.056 246.79 203.16 242.118 205.287C237.446 207.415 232.373 208.516 227.24 208.518Z" fill="#4E5660"/>
<path d="M227.24 0C138.112 0 20.5301 49.749 43.3401 179.959C43.8046 182.644 44.9214 185.174 46.5924 187.326C48.2633 189.479 50.4372 191.188 52.9232 192.304C55.4092 193.42 58.1311 193.908 60.8499 193.726C63.5687 193.543 66.2012 192.696 68.5161 191.259C93 175.977 131.327 143.21 152.606 95.292C174.93 120.258 291.588 141.142 344.876 131.06C351.231 150.66 365.876 174.26 384.676 189.06C386.942 190.838 389.63 191.997 392.478 192.425C395.326 192.852 398.236 192.532 400.924 191.496C403.611 190.461 405.983 188.745 407.809 186.518C409.634 184.29 410.849 181.627 411.336 178.788C433.246 49.452 316.1 0 227.24 0Z" fill="#4E5660"/>
<path d="M479.325 470.341C522.809 426.856 522.809 356.354 479.325 312.869C435.84 269.385 365.338 269.385 321.854 312.869C278.369 356.354 278.369 426.856 321.854 470.341C365.338 513.825 435.84 513.825 479.325 470.341Z" fill="#FCF2D0"/>
<path d="M353.265 464.318C351.882 464.317 350.527 463.934 349.348 463.21C348.17 462.487 347.214 461.452 346.587 460.22C345.96 458.988 345.686 457.606 345.795 456.227C345.903 454.849 346.391 453.528 347.204 452.409L394.584 387.196C395.159 386.389 395.888 385.704 396.729 385.18C397.57 384.656 398.507 384.305 399.485 384.145C400.463 383.985 401.462 384.021 402.426 384.25C403.391 384.479 404.3 384.897 405.101 385.479C405.903 386.062 406.581 386.797 407.097 387.643C407.613 388.489 407.956 389.429 408.106 390.408C408.257 391.388 408.211 392.387 407.973 393.349C407.735 394.311 407.309 395.216 406.719 396.012L359.339 461.225C358.643 462.184 357.73 462.965 356.674 463.502C355.618 464.04 354.45 464.32 353.265 464.318Z" fill="#F6E3A3"/>
<path d="M400.652 399.106C399.865 399.106 399.082 398.981 398.333 398.737L321.67 373.827C319.778 373.212 318.208 371.871 317.305 370.099C316.402 368.327 316.24 366.268 316.855 364.377C317.469 362.485 318.81 360.915 320.583 360.011C322.355 359.108 324.413 358.946 326.305 359.561L402.968 384.471C404.668 385.022 406.115 386.161 407.05 387.684C407.984 389.207 408.344 391.014 408.065 392.778C407.785 394.543 406.885 396.15 405.526 397.31C404.167 398.47 402.439 399.107 400.652 399.106Z" fill="#F6E3A3"/>
<path d="M448.037 464.318C446.852 464.32 445.684 464.04 444.628 463.503C443.573 462.965 442.66 462.185 441.964 461.226L394.583 396.013C394 395.216 393.581 394.313 393.348 393.354C393.115 392.394 393.074 391.399 393.227 390.424C393.38 389.449 393.723 388.514 394.238 387.672C394.753 386.83 395.43 386.098 396.228 385.518C397.026 384.937 397.931 384.521 398.891 384.291C399.851 384.061 400.847 384.023 401.821 384.179C402.796 384.335 403.73 384.682 404.57 385.2C405.411 385.717 406.14 386.396 406.718 387.196L454.1 452.409C454.913 453.528 455.401 454.849 455.51 456.228C455.618 457.606 455.344 458.988 454.717 460.22C454.089 461.453 453.134 462.488 451.955 463.211C450.776 463.934 449.421 464.317 448.038 464.318H448.037Z" fill="#F6E3A3"/>
<path d="M400.648 399.106C398.861 399.107 397.133 398.47 395.774 397.31C394.415 396.15 393.515 394.543 393.236 392.778C392.956 391.014 393.316 389.207 394.251 387.684C395.185 386.161 396.632 385.022 398.332 384.471L474.995 359.561C476.887 358.946 478.945 359.108 480.718 360.011C482.49 360.915 483.831 362.485 484.446 364.377C485.06 366.268 484.898 368.327 483.995 370.099C483.092 371.871 481.522 373.212 479.63 373.827L402.967 398.737C402.218 398.982 401.436 399.106 400.648 399.106Z" fill="#F6E3A3"/>
<path d="M400.65 399.104C398.661 399.104 396.753 398.314 395.347 396.907C393.94 395.501 393.15 393.593 393.15 391.604V310.996C393.15 309.007 393.94 307.099 395.347 305.693C396.753 304.286 398.661 303.496 400.65 303.496C402.639 303.496 404.547 304.286 405.953 305.693C407.36 307.099 408.15 309.007 408.15 310.996V391.604C408.15 393.593 407.36 395.501 405.953 396.907C404.547 398.314 402.639 399.104 400.65 399.104Z" fill="#F6E3A3"/>
<path d="M400.651 280.255C385.562 280.237 370.627 283.296 356.76 289.245C358.032 291.369 359.721 293.213 361.724 294.668L389.824 315.083C392.971 317.37 396.762 318.601 400.652 318.601C404.543 318.601 408.334 317.37 411.481 315.083L439.581 294.668C441.584 293.213 443.272 291.368 444.545 289.245C430.677 283.295 415.741 280.237 400.651 280.255Z" fill="#4E5660"/>
<path d="M320.488 324.628C319.726 322.282 318.5 320.114 316.883 318.251C299.069 338.531 289.262 364.611 289.3 391.604C289.3 395.012 289.462 398.381 289.761 401.711C292.165 401.156 294.433 400.122 296.429 398.671L324.529 378.256C327.677 375.969 330.02 372.744 331.223 369.043C332.425 365.343 332.424 361.356 331.221 357.656L320.488 324.628Z" fill="#4E5660"/>
<path d="M364.433 459.877C363.231 456.177 360.888 452.952 357.741 450.665C354.593 448.379 350.803 447.147 346.912 447.147H312.18C309.709 447.147 307.262 447.645 304.988 448.612C312.717 461.569 322.996 472.823 335.201 481.692C347.406 490.561 361.283 496.862 375.994 500.212C376.212 497.748 375.93 495.265 375.166 492.912L364.433 459.877Z" fill="#4E5660"/>
<path d="M480.813 324.628C481.575 322.282 482.801 320.114 484.418 318.251C502.231 338.531 512.038 364.611 512 391.604C512 395.012 511.838 398.381 511.539 401.711C509.135 401.156 506.867 400.122 504.871 398.671L476.771 378.256C473.623 375.969 471.28 372.744 470.078 369.043C468.875 365.343 468.876 361.356 470.079 357.656L480.813 324.628Z" fill="#4E5660"/>
<path d="M436.868 459.877C438.07 456.177 440.413 452.952 443.56 450.665C446.708 448.379 450.499 447.147 454.389 447.147H489.121C491.593 447.147 494.039 447.645 496.313 448.612C488.584 461.569 478.305 472.823 466.1 481.692C453.896 490.561 440.018 496.862 425.307 500.212C425.09 497.748 425.371 495.265 426.135 492.912L436.868 459.877Z" fill="#4E5660"/>
<path d="M392.308 357.361L370.661 373.089C368.236 374.851 366.431 377.335 365.505 380.185C364.579 383.036 364.579 386.106 365.505 388.957L373.773 414.405C374.699 417.256 376.504 419.74 378.93 421.502C381.355 423.264 384.276 424.212 387.273 424.212H414.03C417.028 424.212 419.948 423.264 422.374 421.502C424.799 419.74 426.604 417.256 427.53 414.405L435.798 388.957C436.724 386.106 436.724 383.036 435.798 380.185C434.872 377.335 433.067 374.851 430.642 373.089L408.995 357.361C406.571 355.599 403.651 354.651 400.654 354.651C397.657 354.651 394.737 355.599 392.312 357.361H392.308Z" fill="#4E5660"/>
</svg>
