<svg width="512" height="512" viewBox="0 0 512 512" fill="none" xmlns="http://www.w3.org/2000/svg">
<path d="M94.1999 155.664C94.1999 155.664 126.044 122.008 184.6 140.336L323.633 270.652C323.633 270.652 344.574 329.972 308.395 374.715C308.395 374.715 84.6209 401.492 94.1999 155.664Z" fill="#0081B9"/>
<path d="M94.2 155.664C94.2 155.664 114.3 288.937 308.4 374.715C308.4 374.715 304.431 418.43 252.076 436.5C252.076 436.5 53.81 452.332 36.876 202.965C36.871 202.965 52.508 168.68 94.2 155.664Z" fill="#0097D1"/>
<path d="M36.871 202.965C36.871 202.965 57.836 364.27 252.07 436.5C252.84 435.992 212.441 488.02 135.261 459.117L4.76198 315.477C4.76198 315.477 -18.242 251.473 36.871 202.965Z" fill="#00AEDE"/>
<path d="M66.8281 428.336C66.8281 428.336 81.6561 465.145 135.262 459.117C135.262 459.117 273.809 419.785 323.633 270.652C323.633 270.652 326.395 230.441 293.594 202.965L66.8281 428.336Z" fill="#59C2E8"/>
<path d="M22.7339 375.961C22.7339 375.961 22.6559 416.102 66.8279 428.336C67.0819 428.496 254.195 374.992 293.598 202.961C293.703 203.133 282.707 169.816 246.231 161.008L22.7339 375.961Z" fill="#91D4F2"/>
<path d="M184.6 140.336C184.6 140.336 160.57 246.141 4.76186 315.477C4.73086 315.293 -3.87514 348.961 22.7349 375.961C22.9539 376.313 193.559 344.555 246.235 161.008C246.23 161.008 223.555 133.676 184.6 140.336Z" fill="#C2EAFB"/>
<path d="M204.6 72.02C201.309 63.9055 200.107 55.0949 201.104 46.3955C202.101 37.696 205.264 29.3857 210.305 22.2258C215.346 15.066 222.103 9.28548 229.957 5.41387C237.811 1.54227 246.511 -0.296668 255.26 0.0655113C264.009 0.427691 272.527 2.97941 280.034 7.48692C287.542 11.9944 293.798 18.3136 298.23 25.8656C302.662 33.4176 305.128 41.961 305.402 50.7131C305.676 59.4652 303.75 68.1462 299.8 75.961C297.903 79.7193 296.83 83.8393 296.653 88.0456C296.476 92.2519 297.198 96.4475 298.773 100.352L451.414 477.914C456.371 490.172 451.07 504.469 439.014 509.863C436.026 511.202 432.798 511.925 429.524 511.988C426.25 512.051 422.997 511.453 419.959 510.23C416.922 509.006 414.163 507.182 411.846 504.868C409.53 502.553 407.704 499.795 406.479 496.758L253.7 118.848C252.159 114.939 249.798 111.406 246.776 108.486C243.753 105.567 240.14 103.33 236.18 101.926C229.075 99.5046 222.577 95.5797 217.127 90.4187C211.677 85.2577 207.404 78.9822 204.6 72.02Z" fill="#FAD989"/>
<path d="M334.094 187.707C327.354 211.23 319.127 234.301 309.461 256.781L375.027 418.965C383.41 402.051 393.34 381.301 403.293 358.879L334.094 187.707Z" fill="#F6CA56"/>
<path d="M508.164 72.02C511.454 63.9059 512.655 55.096 511.658 46.3972C510.661 37.6985 507.497 29.3891 502.456 22.23C497.415 15.0709 490.659 9.29114 482.805 5.42002C474.952 1.54889 466.252 -0.289805 457.504 0.0723455C448.756 0.434496 440.238 2.98592 432.732 7.4929C425.225 11.9999 418.969 18.3184 414.538 25.8696C410.106 33.4208 407.639 41.9633 407.364 50.7147C407.089 59.4661 409.015 68.1465 412.964 75.961C414.862 79.7193 415.935 83.8395 416.111 88.046C416.287 92.2524 415.563 96.448 413.987 100.352L261.352 477.914C256.395 490.172 261.696 504.469 273.758 509.863C276.746 511.202 279.974 511.925 283.248 511.988C286.522 512.05 289.775 511.452 292.812 510.229C295.85 509.005 298.609 507.182 300.925 504.867C303.242 502.553 305.067 499.794 306.293 496.758L459.07 118.848C460.61 114.938 462.971 111.404 465.993 108.485C469.015 105.566 472.629 103.329 476.59 101.926C483.693 99.5039 490.191 95.5786 495.64 90.4177C501.089 85.2567 505.36 78.9816 508.164 72.02Z" fill="#FFEAB7"/>
</svg>
