<svg width="512" height="512" viewBox="0 0 512 512" fill="none" xmlns="http://www.w3.org/2000/svg">
<path d="M383.9 233.753C369.106 233.754 354.457 230.84 340.789 225.179C327.121 219.518 314.702 211.22 304.241 200.759C293.78 190.298 285.482 177.879 279.821 164.211C274.159 150.543 271.246 135.894 271.246 121.1C271.246 68.809 238.128 29.954 196.43 14.877C158.36 1.11501 113.14 7.16901 79.4222 40.967C54.2007 66.1836 34.2026 96.1291 20.574 129.088C6.9453 162.046 -0.0461416 197.37 0.00022916 233.035C0.00022916 382.824 122.177 505 271.966 505C307.63 505.039 342.952 498.044 375.909 484.416C408.867 470.787 438.813 450.793 464.033 425.577C534.85 354.928 483.928 233.753 383.896 233.753H383.9Z" fill="#F2D4D3"/>
<path d="M97.0002 223.035C96.9535 187.37 103.945 152.046 117.574 119.087C131.203 86.1286 151.201 56.1832 176.423 30.967C182.477 24.8808 189.187 19.4854 196.431 14.88C158.361 1.11501 113.141 7.16901 79.4232 40.967C54.2015 66.1835 34.2033 96.1289 20.5744 129.087C6.94559 162.046 -0.0460116 197.37 0.000227864 233.035C0.000227864 382.824 122.177 505 271.966 505C297.707 505.017 323.32 501.381 348.039 494.2C207.963 483.455 97.0002 365.784 97.0002 223.035Z" fill="#E8B5B1"/>
<path d="M149.5 62.412C136.247 59.9985 122.567 62.1162 110.664 68.4239C98.7607 74.7317 89.3272 84.8623 83.8826 97.1842C78.4379 109.506 77.2992 123.302 80.6498 136.35C84.0004 149.398 91.6453 160.938 102.353 169.112C109.563 174.62 117.928 178.421 126.819 180.228C135.71 182.036 144.896 181.803 153.684 179.548C162.472 177.293 170.634 173.074 177.556 167.209C184.478 161.343 189.98 153.984 193.647 145.685C197.314 137.386 199.051 128.364 198.727 119.297C198.403 110.229 196.027 101.354 191.777 93.3377C187.528 85.3216 181.515 78.3738 174.192 73.0171C166.869 67.6604 158.427 64.0344 149.5 62.412Z" fill="#55DAFE"/>
<path d="M138.768 61.436C126.22 61.4342 113.987 65.3671 103.791 72.6813C93.595 79.9955 85.949 90.3227 81.9292 102.21C77.9094 114.096 77.7181 126.945 81.3822 138.946C85.0463 150.947 92.3814 161.498 102.355 169.112C110.126 130.541 126.215 94.1282 149.5 62.412C145.959 61.7673 142.368 61.4407 138.768 61.436Z" fill="#1CBBEA"/>
<path d="M97.7934 202.113C89.6292 200.876 81.2975 201.338 73.3198 203.469C65.3422 205.6 57.8903 209.355 51.4306 214.499C44.9709 219.642 39.6425 226.064 35.7788 233.362C31.9152 240.66 29.5994 248.676 28.9766 256.91C28.3538 265.144 29.4372 273.418 32.1591 281.214C34.8811 289.01 39.1829 296.16 44.7953 302.217C50.4077 308.274 57.21 313.107 64.7763 316.414C72.3426 319.721 80.51 321.431 88.7674 321.436C103.904 321.446 118.484 315.734 129.587 305.446C140.689 295.159 147.493 281.055 148.635 265.962C149.776 250.869 145.171 235.902 135.743 224.061C126.314 212.22 112.759 204.38 97.7934 202.113Z" fill="#B28AE4"/>
<path d="M97.7934 202.113C89.6292 200.876 81.2975 201.338 73.3198 203.469C65.3422 205.6 57.8903 209.355 51.4306 214.499C44.9709 219.642 39.6425 226.064 35.7788 233.362C31.9152 240.66 29.5994 248.676 28.9766 256.91C28.3538 265.144 29.4372 273.418 32.1591 281.214C34.8811 289.01 39.1829 296.16 44.7953 302.217C50.4077 308.274 57.21 313.107 64.7763 316.414C72.3426 319.721 80.51 321.431 88.7674 321.436C97.2862 321.442 105.708 319.627 113.467 316.112C102.552 286.295 96.9773 254.787 97.0005 223.035C97.0005 215.996 97.2648 209.022 97.7934 202.113Z" fill="#976BCF"/>
<path d="M348.769 441.436C381.906 441.436 408.769 414.573 408.769 381.436C408.769 348.299 381.906 321.436 348.769 321.436C315.631 321.436 288.769 348.299 288.769 381.436C288.769 414.573 315.631 441.436 348.769 441.436Z" fill="#FF8F71"/>
<path d="M188.768 331.436C176.904 331.438 165.306 334.957 155.442 341.55C145.578 348.143 137.89 357.512 133.351 368.474C128.812 379.435 127.624 391.497 129.939 403.133C132.254 414.769 137.968 425.458 146.357 433.847C154.746 442.236 165.435 447.95 177.071 450.265C188.708 452.58 200.769 451.393 211.731 446.853C222.692 442.314 232.062 434.626 238.654 424.762C245.247 414.898 248.766 403.3 248.768 391.436C248.774 383.555 247.226 375.751 244.212 368.468C241.199 361.186 236.78 354.57 231.207 348.997C225.634 343.425 219.018 339.005 211.736 335.992C204.454 332.979 196.649 331.43 188.768 331.436Z" fill="#FF8E9E"/>
<path d="M135.941 362.992C129.979 374.05 127.64 386.7 129.254 399.158C130.867 411.617 136.351 423.254 144.932 432.429C153.514 441.603 164.759 447.852 177.082 450.293C189.404 452.734 202.183 451.245 213.614 446.035C182.213 424.075 155.755 395.788 135.941 362.992Z" fill="#EA5B70"/>
<path d="M226.047 196.786C217.854 201.876 211.042 208.908 206.213 217.259L183.327 256.719C179.409 263.475 173.231 268.631 165.883 271.277C158.535 273.924 150.488 273.892 143.161 271.186C141.521 270.601 139.721 270.655 138.118 271.336C136.516 272.018 135.228 273.277 134.511 274.864C133.795 276.451 133.701 278.25 134.249 279.903C134.797 281.556 135.947 282.942 137.47 283.786C198.605 318.079 242.077 324.616 272.465 310.672L258.1 240.9L226.047 196.786Z" fill="#B28AE4"/>
<path d="M226.047 196.786C217.854 201.876 211.042 208.908 206.213 217.259L183.327 256.718C179.409 263.474 173.231 268.63 165.883 271.276C158.535 273.923 150.488 273.891 143.161 271.185C141.521 270.6 139.721 270.654 138.118 271.335C136.516 272.017 135.228 273.276 134.511 274.863C133.795 276.45 133.701 278.249 134.249 279.902C134.797 281.555 135.947 282.941 137.47 283.785C151.679 291.878 166.433 298.973 181.626 305.018C187.117 303.935 192.312 301.691 196.865 298.438C201.418 295.184 205.223 290.995 208.026 286.152L216.646 271.289C210.896 259.279 208.724 245.868 210.391 232.657C212.058 219.446 217.493 206.994 226.046 196.789L226.047 196.786Z" fill="#976BCF"/>
<path d="M308.18 276.4C314.777 265.023 317.38 251.766 315.574 238.739C313.767 225.712 307.657 213.663 298.213 204.51C288.77 195.357 276.536 189.624 263.459 188.225C250.383 186.826 237.213 189.841 226.047 196.789C217.912 206.499 212.59 218.25 210.658 230.769C208.726 243.288 210.257 256.098 215.087 267.808C219.957 279.422 227.846 289.522 237.935 297.059C248.025 304.597 259.948 309.297 272.466 310.672C287.286 303.872 298.994 292.2 308.121 276.5C308.14 276.464 308.161 276.431 308.18 276.4Z" fill="#FFCE71"/>
<path d="M286.766 195.845C277.513 190.475 266.973 187.726 256.276 187.891C245.579 188.057 235.129 191.132 226.047 196.786C217.493 206.991 212.058 219.443 210.391 232.654C208.724 245.865 210.896 259.276 216.647 271.286L235.224 239.256C241.569 228.299 250.769 219.27 261.841 213.129C272.914 206.988 285.445 203.966 298.1 204.385C294.679 201.092 290.873 198.225 286.765 195.845H286.766Z" fill="#FFB357"/>
<path d="M492.1 37.872L467.128 12.9C464.099 9.85875 460.011 8.10587 455.72 8.00766C451.429 7.90945 447.265 9.47351 444.1 12.373L343.16 103.731L358.919 146.079L401.268 161.84L492.627 60.9C495.528 57.7348 497.093 53.5707 496.995 49.2783C496.896 44.986 495.142 40.8979 492.099 37.869L492.1 37.872Z" fill="#3F65A8"/>
<path d="M479.613 25.385L467.128 12.9C464.099 9.85861 460.012 8.10555 455.72 8.00715C451.429 7.90876 447.266 9.47265 444.1 12.372L343.16 103.731L372.213 132.785L459.238 45.76C463.022 41.9761 467.514 38.9746 472.458 36.9268C477.402 34.879 482.701 33.825 488.052 33.825L479.613 25.385Z" fill="#1C5599"/>
<path d="M401.835 162.407L342.594 103.166C341.905 102.477 341.086 101.931 340.184 101.56C339.283 101.188 338.317 100.999 337.342 101.003C336.367 101.007 335.402 101.203 334.503 101.581C333.605 101.959 332.79 102.512 332.105 103.206C302.515 133.254 301.205 138.921 273.585 174.518C271.748 176.888 270.837 179.846 271.025 182.839C271.213 185.832 272.487 188.654 274.606 190.775L314.228 230.4C316.349 232.52 319.171 233.793 322.164 233.981C325.156 234.169 328.115 233.259 330.484 231.421C366.084 203.807 371.747 202.491 401.791 172.904C402.486 172.219 403.038 171.404 403.416 170.505C403.794 169.606 403.991 168.641 403.995 167.666C403.999 166.691 403.811 165.725 403.44 164.822C403.069 163.92 402.524 163.101 401.835 162.41V162.407Z" fill="#EBF3FF"/>
<path d="M364.558 132.228L372.214 132.785L342.594 103.165C341.904 102.476 341.085 101.93 340.183 101.559C339.282 101.187 338.316 100.998 337.341 101.002C336.366 101.006 335.401 101.202 334.503 101.58C333.604 101.958 332.789 102.511 332.105 103.205C302.515 133.253 301.205 138.92 273.585 174.517C271.747 176.886 270.836 179.845 271.024 182.838C271.212 185.831 272.486 188.652 274.606 190.773L289.001 205.165C289.001 195.922 292.673 187.057 299.209 180.521L337.387 142.343C340.925 138.806 345.183 136.072 349.872 134.326C354.56 132.581 359.57 131.865 364.56 132.228H364.558Z" fill="#C1D3F7"/>
</svg>
