<svg width="512" height="512" viewBox="0 0 512 512" fill="none" xmlns="http://www.w3.org/2000/svg">
<path d="M468.6 106.3V43.4H405.7C405.7 54.9104 401.128 65.9493 392.988 74.0884C384.849 82.2275 373.81 86.8 362.3 86.8C350.79 86.8 339.751 82.2275 331.612 74.0884C323.472 65.9493 318.9 54.9104 318.9 43.4H256L204.531 165.254L256 256L362.238 334.742L468.6 256V193.1C480.11 193.1 491.149 188.528 499.288 180.388C507.427 172.249 512 161.21 512 149.7C512 138.19 507.427 127.151 499.288 119.012C491.149 110.872 480.11 106.3 468.6 106.3Z" fill="#42C3E2"/>
<path d="M256 256L154.637 171.4L43.4 256V318.9C31.8896 318.9 20.8506 323.472 12.7116 331.612C4.57249 339.751 0 350.79 0 362.3C0 373.81 4.57249 384.849 12.7116 392.988C20.8506 401.128 31.8896 405.7 43.4 405.7V468.6H106.3C106.3 457.09 110.872 446.051 119.012 437.912C127.151 429.772 138.19 425.2 149.7 425.2C161.21 425.2 172.249 429.772 180.388 437.912C188.528 446.051 193.1 457.09 193.1 468.6H256L306.109 384L256 256Z" fill="#B6A4FF"/>
<path d="M468.6 318.9V256H405.7C405.7 267.51 401.128 278.549 392.989 286.688C384.849 294.828 373.81 299.4 362.3 299.4C350.79 299.4 339.751 294.828 331.612 286.688C323.473 278.549 318.9 267.51 318.9 256H256V318.9C244.49 318.9 233.451 323.472 225.312 331.612C217.173 339.751 212.6 350.79 212.6 362.3C212.6 373.81 217.173 384.849 225.312 392.988C233.451 401.128 244.49 405.7 256 405.7V468.6H318.9C318.9 480.11 323.473 491.149 331.612 499.288C339.751 507.428 350.79 512 362.3 512C373.81 512 384.849 507.428 392.989 499.288C401.128 491.149 405.7 480.11 405.7 468.6H468.6V405.7C457.09 405.7 446.051 401.128 437.912 392.988C429.773 384.849 425.2 373.81 425.2 362.3C425.2 350.79 429.773 339.751 437.912 331.612C446.051 323.472 457.09 318.9 468.6 318.9Z" fill="#EB6DA8"/>
<path d="M256 106.3V43.4H193.1C193.1 37.7006 191.977 32.0571 189.796 26.7915C187.615 21.526 184.418 16.7416 180.388 12.7116C176.358 8.6815 171.574 5.48468 166.308 3.30363C161.043 1.12257 155.399 0 149.7 0C144.001 0 138.357 1.12257 133.091 3.30363C127.826 5.48468 123.042 8.6815 119.011 12.7116C114.981 16.7416 111.785 21.526 109.604 26.7915C107.422 32.0571 106.3 37.7006 106.3 43.4H43.3999V106.3C54.9103 106.3 65.9493 110.872 74.0883 119.012C82.2274 127.151 86.7999 138.19 86.7999 149.7C86.7999 161.21 82.2274 172.249 74.0883 180.388C65.9493 188.528 54.9103 193.1 43.3999 193.1V256H106.3C106.3 250.301 107.422 244.657 109.604 239.392C111.785 234.126 114.981 229.342 119.011 225.312C123.042 221.282 127.826 218.085 133.091 215.904C138.357 213.723 144.001 212.6 149.7 212.6C155.399 212.6 161.043 213.723 166.308 215.904C171.574 218.085 176.358 221.282 180.388 225.312C184.418 229.342 187.615 234.126 189.796 239.392C191.977 244.657 193.1 250.301 193.1 256H256V193.1C261.699 193.1 267.343 191.977 272.608 189.796C277.874 187.615 282.658 184.418 286.688 180.388C290.718 176.358 293.915 171.574 296.096 166.308C298.277 161.043 299.4 155.399 299.4 149.7C299.4 144.001 298.277 138.357 296.096 133.092C293.915 127.826 290.718 123.042 286.688 119.012C282.658 114.982 277.874 111.785 272.608 109.604C267.343 107.423 261.699 106.3 256 106.3Z" fill="#FADC60"/>
</svg>
