<svg width="512" height="512" viewBox="0 0 512 512" fill="none" xmlns="http://www.w3.org/2000/svg">
<path d="M115.881 233.958C146.294 233.958 170.948 211.106 170.948 182.917C170.948 154.728 146.294 131.876 115.881 131.876C85.4683 131.876 60.814 154.728 60.814 182.917C60.814 211.106 85.4683 233.958 115.881 233.958Z" fill="#FFD3BD"/>
<path d="M396.64 233.958C427.053 233.958 451.707 211.106 451.707 182.917C451.707 154.728 427.053 131.876 396.64 131.876C366.227 131.876 341.573 154.728 341.573 182.917C341.573 211.106 366.227 233.958 396.64 233.958Z" fill="#FFBE9D"/>
<path d="M408.509 182.917C408.509 261.74 340.339 311.953 256.247 311.953C172.155 311.953 103.985 261.74 103.985 182.917C103.985 104.094 172.155 40.195 256.242 40.195C340.329 40.195 408.504 104.095 408.504 182.917H408.509Z" fill="#FFD3BD"/>
<path d="M324.97 299.471C140.764 295.321 143.505 108.284 196.25 51.709C141.992 73.537 103.985 124.063 103.985 182.916C103.985 261.739 172.155 311.952 256.247 311.952C280.975 311.952 304.324 307.605 324.97 299.47V299.471Z" fill="#FFBE9D"/>
<path d="M199.172 200.082C199.18 214.76 184.243 226.667 165.811 226.676C147.379 226.685 132.43 214.793 132.423 200.115C132.416 185.437 147.352 173.529 165.784 173.52C184.216 173.511 199.164 185.403 199.172 200.082Z" fill="#EDA1AB"/>
<path d="M313.324 200.024C313.332 214.702 328.28 226.594 346.712 226.585C365.144 226.576 380.08 214.669 380.073 199.991C380.066 185.313 365.118 173.42 346.685 173.43C328.252 173.44 313.316 185.345 313.324 200.024Z" fill="#EDA1AB"/>
<path d="M288.957 188.021C288.947 167.803 274.299 165.91 256.231 165.921C238.163 165.932 223.517 167.837 223.531 188.055C223.545 208.273 238.196 224.655 256.264 224.646C274.332 224.637 288.967 208.234 288.957 188.021Z" fill="white"/>
<path d="M169.347 176.964C167.812 176.964 166.34 176.355 165.254 175.27C164.169 174.185 163.559 172.713 163.558 171.178C163.556 168.331 164.115 165.512 165.202 162.882C166.29 160.251 167.885 157.86 169.897 155.846C171.908 153.832 174.297 152.234 176.926 151.143C179.556 150.052 182.374 149.49 185.221 149.488H185.232C190.977 149.494 196.485 151.778 200.548 155.84C204.611 159.901 206.898 165.407 206.908 171.152C206.908 171.912 206.759 172.665 206.468 173.368C206.178 174.07 205.752 174.708 205.214 175.246C204.677 175.784 204.039 176.211 203.337 176.502C202.635 176.793 201.882 176.944 201.122 176.944C199.587 176.944 198.115 176.335 197.029 175.25C195.944 174.165 195.334 172.693 195.333 171.158C195.328 168.481 194.263 165.916 192.369 164.024C190.476 162.132 187.909 161.068 185.233 161.066C182.556 161.068 179.989 162.134 178.097 164.027C176.205 165.921 175.142 168.489 175.142 171.166C175.142 171.926 174.993 172.679 174.702 173.382C174.412 174.084 173.986 174.722 173.448 175.26C172.911 175.798 172.273 176.225 171.571 176.516C170.869 176.807 170.116 176.958 169.356 176.958L169.347 176.964Z" fill="#4E5660"/>
<path d="M311.347 176.893C309.812 176.893 308.34 176.283 307.254 175.198C306.169 174.113 305.558 172.641 305.558 171.106C305.556 168.26 306.116 165.441 307.204 162.811C308.292 160.18 309.887 157.79 311.899 155.777C313.91 153.763 316.299 152.165 318.928 151.075C321.557 149.984 324.376 149.422 327.222 149.421H327.234C332.978 149.428 338.485 151.712 342.548 155.773C346.611 159.834 348.898 165.34 348.908 171.084C348.908 171.844 348.759 172.597 348.468 173.3C348.178 174.002 347.752 174.64 347.214 175.178C346.677 175.716 346.039 176.143 345.337 176.434C344.635 176.725 343.882 176.876 343.122 176.876C341.587 176.876 340.115 176.267 339.029 175.182C337.944 174.097 337.334 172.625 337.333 171.09C337.328 168.414 336.263 165.848 334.369 163.956C332.476 162.065 329.909 161.001 327.233 160.999H327.228C324.551 161.001 321.984 162.066 320.091 163.96C318.199 165.854 317.136 168.422 317.136 171.099C317.136 171.859 316.987 172.612 316.696 173.315C316.406 174.017 315.979 174.656 315.442 175.194C314.905 175.732 314.267 176.158 313.564 176.449C312.862 176.741 312.109 176.891 311.349 176.891L311.347 176.893Z" fill="#4E5660"/>
<path d="M247.538 3.257C249.953 1.15722 253.046 0.000823975 256.246 0.000823975C259.446 0.000823975 262.539 1.15722 264.954 3.257C289.421 24.503 331.392 32.736 357.409 52.134C395.209 80.319 409.86 122.834 411.629 154.457C411.713 156.13 411.352 157.795 410.582 159.283C409.813 160.771 408.663 162.028 407.25 162.927C405.836 163.826 404.21 164.334 402.536 164.4C400.863 164.465 399.201 164.086 397.722 163.301C372.963 150.301 347.439 124.001 327.873 91.109C310.329 100.033 276.04 102.093 256.246 102.093C236.452 102.093 202.163 100.033 184.618 91.109C165.052 123.996 139.529 150.302 114.77 163.301C113.29 164.086 111.629 164.465 109.956 164.4C108.282 164.334 106.655 163.826 105.242 162.927C103.829 162.028 102.679 160.771 101.91 159.283C101.14 157.795 100.779 156.13 100.863 154.457C102.632 122.834 117.28 80.319 155.083 52.134C181.101 32.734 223.071 24.502 247.538 3.257Z" fill="#4E5660"/>
<path d="M189.836 33.523C177.17 38.998 164.97 44.758 155.084 52.133C117.284 80.318 102.633 122.833 100.864 154.456C100.78 156.129 101.141 157.794 101.911 159.282C102.68 160.769 103.83 162.027 105.243 162.925C106.656 163.824 108.282 164.332 109.956 164.398C111.629 164.464 113.29 164.085 114.77 163.3C139.529 150.3 165.053 124 184.618 91.108C190.181 93.7522 196.041 95.7203 202.073 96.97C188.407 81.87 184.017 51.222 189.835 33.523H189.836Z" fill="#3A4351"/>
<path d="M416.734 350.096V288.623C399.857 243.499 283.825 253.092 256.489 270.495C229.149 253.095 113.121 243.495 96.2439 288.623V350.096H416.734Z" fill="#F3E5B7"/>
<path d="M232.306 511.998H91.8688C85.5514 511.998 79.4927 509.488 75.0255 505.021C70.5584 500.554 68.0488 494.495 68.0488 488.178V312.443C68.0488 306.126 70.5584 300.067 75.0255 295.6C79.4927 291.133 85.5514 288.623 91.8688 288.623H232.306V511.998Z" fill="#7F9AE6"/>
<path d="M142.144 288.627H91.8688C85.5514 288.627 79.4927 291.137 75.0255 295.604C70.5584 300.071 68.0488 306.13 68.0488 312.447V488.178C68.0488 494.495 70.5584 500.554 75.0255 505.021C79.4927 509.488 85.5514 511.998 91.8688 511.998H215.906C152.106 455.351 143.318 343.2 142.144 288.627Z" fill="#738CD1"/>
<path d="M421.105 511.998H280.671V288.627H421.105C424.233 288.627 427.33 289.243 430.22 290.44C433.11 291.637 435.735 293.392 437.947 295.604C440.159 297.816 441.913 300.442 443.11 303.332C444.307 306.222 444.922 309.319 444.922 312.447V488.178C444.922 494.495 442.413 500.553 437.947 505.021C433.48 509.488 427.422 511.997 421.105 511.998Z" fill="#7F9AE6"/>
<path d="M386.083 410.991H339.515C337.652 410.991 335.865 410.251 334.548 408.934C333.231 407.616 332.49 405.83 332.49 403.967C332.49 402.104 333.231 400.317 334.548 398.999C335.865 397.682 337.652 396.942 339.515 396.942H386.084C387.947 396.942 389.734 397.682 391.051 398.999C392.368 400.317 393.108 402.104 393.108 403.967C393.108 405.83 392.368 407.616 391.051 408.934C389.734 410.251 387.947 410.991 386.084 410.991H386.083Z" fill="#495059"/>
<path d="M372.934 437.683H352.663C350.8 437.683 349.013 436.943 347.696 435.626C346.379 434.308 345.638 432.522 345.638 430.659C345.638 428.795 346.379 427.009 347.696 425.691C349.013 424.374 350.8 423.634 352.663 423.634H372.935C374.798 423.634 376.585 424.374 377.902 425.691C379.219 427.009 379.959 428.795 379.959 430.659C379.959 432.522 379.219 434.308 377.902 435.626C376.585 436.943 374.798 437.683 372.935 437.683H372.934Z" fill="#495059"/>
<path d="M397.513 336.593H328.086C326.836 336.593 325.598 336.839 324.444 337.317C323.289 337.795 322.24 338.496 321.356 339.379C320.472 340.263 319.771 341.312 319.293 342.467C318.815 343.622 318.569 344.859 318.57 346.109V365.799C318.57 368.323 319.572 370.743 321.357 372.528C323.142 374.312 325.562 375.315 328.086 375.315H397.513C400.036 375.315 402.457 374.312 404.241 372.527C406.026 370.743 407.028 368.323 407.029 365.799V346.109C407.029 343.585 406.026 341.165 404.242 339.38C402.457 337.596 400.037 336.593 397.513 336.593Z" fill="white"/>
<path d="M232.307 288.627H280.672V511.998H232.307V288.627Z" fill="#A2D3EE"/>
<path d="M76.3989 389.095C74.5067 389.095 72.6222 388.854 70.7909 388.378C67.9809 387.654 63.9719 386.552 60.8579 385.448C55.2751 383.463 50.7095 379.341 48.1656 373.99C45.6217 368.639 45.3077 362.496 47.2929 356.913C49.278 351.33 53.3996 346.765 58.751 344.221C64.1023 341.677 70.2451 341.363 75.8279 343.348C76.7719 343.685 79.0359 344.361 81.9709 345.122C87.2351 346.481 91.8233 349.713 94.8755 354.212C97.9277 358.711 99.2345 364.169 98.551 369.563C97.8676 374.956 95.2408 379.916 91.1628 383.511C87.0849 387.107 81.8357 389.092 76.3989 389.095Z" fill="#FFD3BD"/>
<path d="M436.578 389.095C431.142 389.091 425.894 387.106 421.817 383.511C417.74 379.916 415.114 374.957 414.43 369.565C413.746 364.172 415.052 358.715 418.102 354.216C421.153 349.717 425.739 346.484 431.002 345.124C433.936 344.367 436.202 343.69 437.148 343.35C442.731 341.365 448.873 341.68 454.224 344.224C459.575 346.768 463.697 351.334 465.681 356.917C467.666 362.499 467.352 368.642 464.808 373.993C462.263 379.344 457.698 383.465 452.115 385.45C449.002 386.55 444.996 387.656 442.182 388.384C440.351 388.856 438.468 389.095 436.578 389.095Z" fill="#FFD3BD"/>
</svg>
