<svg width="513" height="512" viewBox="0 0 513 512" fill="none" xmlns="http://www.w3.org/2000/svg">
<path d="M410.254 484.406C406.255 484.403 402.314 483.456 398.751 481.642C395.187 479.828 392.102 477.199 389.747 473.968C387.392 470.736 385.833 466.995 385.196 463.047C384.56 459.1 384.865 455.058 386.086 451.25C390.797 436.602 380.297 426.395 375.816 422.035C369.572 416.133 362.497 411.178 354.816 407.328C348.771 404.489 344.089 399.382 341.784 393.113C339.479 386.845 339.738 379.921 342.504 373.842C345.27 367.764 350.321 363.02 356.561 360.64C362.801 358.26 369.727 358.435 375.839 361.128C403.761 373.828 451.939 412.261 434.409 466.788C432.763 471.902 429.538 476.362 425.198 479.527C420.858 482.693 415.626 484.401 410.254 484.406Z" fill="#B5E5FF"/>
<path d="M434.414 466.785C436.298 460.997 437.486 455.006 437.953 448.937L387.262 444.363C387.209 446.704 386.813 449.024 386.086 451.25C385.049 454.428 384.65 457.779 384.911 461.112C385.173 464.444 386.09 467.692 387.61 470.669C389.13 473.647 391.224 476.294 393.77 478.46C396.316 480.626 399.265 482.267 402.448 483.29C405.63 484.313 408.983 484.697 412.315 484.421C415.646 484.144 418.89 483.213 421.86 481.679C424.83 480.145 427.468 478.04 429.623 475.484C431.777 472.928 433.405 469.972 434.414 466.785Z" fill="#495059"/>
<path d="M257.656 497.8C252.27 497.804 247.022 496.095 242.672 492.92C238.321 489.745 235.093 485.268 233.455 480.138C231.816 475.007 231.853 469.488 233.558 464.379C235.263 459.27 238.549 454.836 242.941 451.718C266.066 435.308 258.546 389.406 258.461 388.948C257.208 382.334 258.634 375.493 262.424 369.931C266.215 364.368 272.06 360.539 278.674 359.286C285.288 358.033 292.129 359.459 297.691 363.249C303.254 367.04 307.083 372.885 308.336 379.499C308.936 382.667 322.465 457.53 272.32 493.116C268.039 496.165 262.912 497.803 257.656 497.8Z" fill="#B5E5FF"/>
<path d="M242.941 451.719C240.223 453.648 237.911 456.094 236.138 458.916C234.364 461.739 233.165 464.883 232.606 468.169C232.048 471.455 232.143 474.819 232.885 478.069C233.627 481.318 235.001 484.39 236.931 487.108C238.86 489.827 241.305 492.139 244.128 493.912C246.95 495.685 250.094 496.885 253.38 497.443C256.667 498.001 260.031 497.907 263.28 497.165C266.53 496.423 269.602 495.048 272.32 493.119C278.542 488.709 284.103 483.434 288.836 477.455L248.918 446.08C247.192 448.223 245.181 450.121 242.941 451.719Z" fill="#495059"/>
<path d="M439.945 341.816C415.558 341.816 392.281 331.716 374.105 313.179C369.392 308.372 366.782 301.891 366.848 295.16C366.914 288.428 369.652 281.999 374.458 277.287C379.265 272.574 385.747 269.963 392.478 270.03C399.209 270.096 405.638 272.833 410.351 277.64C421.651 289.167 433.351 291.273 441.151 291.035C446.139 290.901 451.046 289.736 455.562 287.614C460.078 285.491 464.105 282.456 467.391 278.7C471.785 273.6 478.025 270.455 484.739 269.956C491.452 269.457 498.088 271.646 503.188 276.04C508.288 280.434 511.433 286.674 511.932 293.388C512.431 300.101 510.242 306.737 505.848 311.837C497.972 320.908 488.303 328.251 477.451 333.403C466.598 338.554 454.797 341.404 442.789 341.771C441.844 341.8 440.891 341.816 439.945 341.816Z" fill="#B5E5FF"/>
<path d="M485.258 329.207C492.994 324.538 499.943 318.675 505.848 311.836C510.208 306.732 512.368 300.108 511.856 293.415C511.344 286.722 508.201 280.504 503.116 276.123C498.03 271.741 491.416 269.552 484.721 270.035C478.026 270.518 471.795 273.634 467.391 278.7C464.409 282.144 460.786 284.975 456.723 287.036L485.258 329.207Z" fill="#CC9E83"/>
<path d="M165.883 384.184C161.996 384.184 158.161 383.291 154.674 381.575C151.186 379.86 148.139 377.366 145.766 374.288C143.394 371.209 141.76 367.627 140.989 363.817C140.219 360.007 140.334 356.072 141.324 352.313C144.437 340.709 149.918 329.876 157.423 320.494C164.928 311.112 174.293 303.385 184.93 297.8C207.43 285.945 233.805 284.405 259.203 293.464C262.342 294.583 265.231 296.31 267.703 298.546C270.175 300.781 272.182 303.482 273.611 306.493C275.039 309.504 275.861 312.768 276.028 316.097C276.195 319.425 275.705 322.755 274.586 325.894C273.467 329.033 271.74 331.922 269.504 334.394C267.269 336.866 264.568 338.874 261.557 340.302C258.545 341.73 255.282 342.552 251.953 342.719C248.625 342.886 245.295 342.396 242.156 341.277C226.949 335.859 215.511 339.066 208.597 342.711C204.171 345.013 200.269 348.207 197.136 352.09C194.004 355.974 191.71 360.463 190.397 365.277C188.968 370.691 185.789 375.48 181.355 378.899C176.922 382.319 171.482 384.177 165.883 384.184Z" fill="#B5E5FF"/>
<path d="M278.676 359.285C275.401 359.905 272.28 361.165 269.492 362.991C266.703 364.818 264.302 367.176 262.425 369.93C260.548 372.685 259.231 375.782 258.551 379.045C257.871 382.309 257.84 385.674 258.461 388.949C259.771 397.969 260.037 407.11 259.254 416.191C273.685 426.146 290.29 432.503 307.68 434.73C311.115 416.499 311.338 397.808 308.34 379.5C307.083 372.888 303.253 367.045 297.691 363.255C292.129 359.464 285.29 358.037 278.676 359.285Z" fill="#92CEEB"/>
<path d="M415.266 389.914C404.105 377.865 390.72 368.088 375.848 361.121C372.814 359.741 369.538 358.971 366.206 358.857C362.875 358.743 359.554 359.286 356.433 360.455C353.311 361.624 350.451 363.397 348.014 365.672C345.578 367.947 343.613 370.679 342.233 373.713C340.853 376.747 340.083 380.023 339.969 383.354C339.855 386.686 340.398 390.007 341.567 393.128C342.736 396.25 344.509 399.11 346.784 401.547C349.059 403.983 351.791 405.948 354.825 407.328C362.504 411.178 369.576 416.133 375.817 422.035C376.258 422.465 376.758 422.953 377.297 423.492C392.614 415.728 405.687 404.167 415.266 389.914Z" fill="#92CEEB"/>
<path d="M416.637 325.688C416.637 267.129 375.325 219.653 324.367 219.653C273.409 219.653 232.1 267.129 232.1 325.688C232.1 384.247 273.409 418.926 324.37 418.926C375.331 418.926 416.637 384.25 416.637 325.688Z" fill="#85A5EB"/>
<path d="M347.664 416.367C268.691 397.312 254.769 282.32 290.734 227.531L289.941 227.285C256.035 242.965 232.097 281.113 232.097 325.685C232.097 384.248 273.406 418.923 324.367 418.923C332.203 418.94 340.018 418.083 347.664 416.367Z" fill="#6684CC"/>
<path d="M242.5 371.789C257.883 401.973 288.758 418.926 324.371 418.926C359.984 418.926 390.859 401.973 406.242 371.789H242.5Z" fill="#495059"/>
<path d="M347.652 416.363C321.601 410.074 302.625 393.355 290.187 371.789H242.5C257.883 401.973 288.758 418.926 324.371 418.926C332.203 418.941 340.011 418.081 347.652 416.363Z" fill="#41464F"/>
<path d="M511.008 175.961C511.008 157.32 493.215 142.207 471.274 142.207C449.333 142.207 431.54 157.32 431.54 175.961C431.54 194.602 449.329 209.711 471.274 209.711C493.219 209.711 511.008 194.6 511.008 175.961Z" fill="#A88572"/>
<path d="M217.2 175.961C217.2 157.32 199.411 142.207 177.466 142.207C155.521 142.207 137.732 157.32 137.732 175.961C137.732 194.602 155.521 209.711 177.466 209.711C199.411 209.711 217.2 194.6 217.2 175.961Z" fill="#A88572"/>
<path d="M475.992 175.961C475.992 99.746 408.109 37.961 324.367 37.961C240.625 37.961 172.738 99.746 172.738 175.961C172.738 252.176 240.625 296.527 324.367 296.527C408.109 296.527 475.992 252.172 475.992 175.961Z" fill="#CC9E83"/>
<path d="M324.367 37.961C245.09 37.961 180.035 93.336 173.32 163.899C217.195 167.247 254.547 123.368 262.42 86.051H394.211C404.133 122.66 453.031 163.215 475.411 163.899C468.7 93.336 403.641 37.961 324.367 37.961Z" fill="#495059"/>
<path d="M279.684 203.48C279.684 188.418 264.352 176.207 245.442 176.207C226.532 176.207 211.2 188.418 211.2 203.48C211.2 218.542 226.532 230.75 245.446 230.75C264.36 230.75 279.684 218.539 279.684 203.48Z" fill="#BD7A71"/>
<path d="M465.3 203.48C465.3 188.418 449.968 176.207 431.054 176.207C412.14 176.207 396.812 188.418 396.812 203.48C396.812 218.542 412.14 230.75 431.054 230.75C449.968 230.75 465.3 218.539 465.3 203.48Z" fill="#BD7A71"/>
<path d="M251.164 178.781C249.175 178.781 247.267 177.991 245.861 176.584C244.454 175.178 243.664 173.27 243.664 171.281V156.581C243.664 154.592 244.454 152.684 245.861 151.278C247.267 149.871 249.175 149.081 251.164 149.081C253.153 149.081 255.061 149.871 256.467 151.278C257.874 152.684 258.664 154.592 258.664 156.581V171.281C258.664 173.27 257.874 175.178 256.467 176.584C255.061 177.991 253.153 178.781 251.164 178.781Z" fill="#495059"/>
<path d="M338.246 260.281C331.666 260.28 325.356 257.666 320.704 253.014C316.052 248.362 313.438 242.052 313.437 235.472V217.434C313.437 216.545 313.612 215.664 313.952 214.842C314.293 214.02 314.792 213.273 315.42 212.644C316.049 212.016 316.796 211.517 317.618 211.176C318.44 210.836 319.321 210.661 320.21 210.661H356.284C357.173 210.661 358.054 210.836 358.876 211.176C359.698 211.517 360.445 212.016 361.074 212.644C361.702 213.273 362.201 214.02 362.542 214.842C362.882 215.664 363.057 216.545 363.057 217.434V235.473C363.056 242.053 360.441 248.363 355.789 253.015C351.136 257.667 344.826 260.281 338.246 260.281Z" fill="#495059"/>
<path d="M425.332 178.781C423.343 178.781 421.435 177.991 420.029 176.584C418.622 175.178 417.832 173.27 417.832 171.281V156.581C417.832 154.592 418.622 152.684 420.029 151.278C421.435 149.871 423.343 149.081 425.332 149.081C427.321 149.081 429.229 149.871 430.635 151.278C432.042 152.684 432.832 154.592 432.832 156.581V171.281C432.832 173.27 432.042 175.178 430.635 176.584C429.229 177.991 427.321 178.781 425.332 178.781Z" fill="#495059"/>
<path d="M262.418 86.051C395.718 108.121 423.566 91.176 445.328 69.41C449.867 64.8708 452.959 59.0875 454.212 52.7914C455.464 46.4952 454.822 39.969 452.365 34.038C449.909 28.1071 445.749 23.0377 440.411 19.4709C435.074 15.9042 428.799 14.0003 422.379 14C390.8 14 385.746 37.961 324.367 37.961L262.418 86.051Z" fill="#495059"/>
<path d="M68.1049 256.254C66.3963 256.257 64.7379 255.676 63.4042 254.608C62.0706 253.54 61.1417 252.048 60.7712 250.38C60.4007 248.712 60.6109 246.968 61.367 245.435C62.1231 243.903 63.3797 242.675 64.9289 241.954L87.4289 231.454L82.1089 226.138C81.2565 225.285 80.6221 224.24 80.2596 223.09C79.897 221.94 79.817 220.72 80.0263 219.533C80.2356 218.346 80.7281 217.226 81.4619 216.27C82.1957 215.313 83.1494 214.548 84.2419 214.038L116.457 199.018C118.258 198.191 120.313 198.11 122.173 198.793C124.033 199.476 125.547 200.867 126.385 202.663C127.222 204.459 127.315 206.514 126.643 208.378C125.971 210.242 124.588 211.764 122.797 212.612L100.289 223.112L105.609 228.428C106.461 229.281 107.096 230.326 107.458 231.476C107.821 232.626 107.901 233.846 107.692 235.033C107.482 236.22 106.99 237.34 106.256 238.296C105.522 239.253 104.569 240.018 103.476 240.528L71.2699 255.551C70.2788 256.013 69.1986 256.253 68.1049 256.254Z" fill="#FFEF99"/>
<path d="M34.926 390.691C33.2173 390.694 31.5589 390.113 30.2253 389.045C28.8916 387.977 27.9627 386.485 27.5922 384.817C27.2218 383.149 27.432 381.405 28.1881 379.872C28.9441 378.34 30.2008 377.112 31.75 376.391L54.258 365.9L48.938 360.58C48.0855 359.727 47.4512 358.682 47.0886 357.532C46.7261 356.382 46.6461 355.162 46.8554 353.975C47.0647 352.788 47.5571 351.668 48.291 350.712C49.0248 349.755 49.9784 348.99 51.071 348.48L83.282 333.46C85.0827 332.633 87.1376 332.552 88.9977 333.235C90.8579 333.918 92.3721 335.309 93.2097 337.105C94.0473 338.901 94.1401 340.956 93.4678 342.82C92.7956 344.684 91.413 346.206 89.622 347.054L67.122 357.546L72.442 362.866C73.2944 363.719 73.9288 364.764 74.2914 365.914C74.6539 367.064 74.7339 368.284 74.5246 369.471C74.3153 370.658 73.8229 371.778 73.089 372.734C72.3552 373.691 71.4016 374.456 70.309 374.966L38.09 389.988C37.0994 390.451 36.0194 390.691 34.926 390.691Z" fill="#88DBDA"/>
<path d="M73.852 299.848H7.5C5.51088 299.848 3.60322 299.058 2.1967 297.651C0.790176 296.245 0 294.337 0 292.348C0 290.359 0.790176 288.451 2.1967 287.045C3.60322 285.638 5.51088 284.848 7.5 284.848H73.852C75.8411 284.848 77.7488 285.638 79.1553 287.045C80.5618 288.451 81.352 290.359 81.352 292.348C81.352 294.337 80.5618 296.245 79.1553 297.651C77.7488 299.058 75.8411 299.848 73.852 299.848Z" fill="#DFDFDD"/>
<path d="M137.727 429.121H29.23C27.2409 429.121 25.3332 428.331 23.9267 426.924C22.5202 425.518 21.73 423.61 21.73 421.621C21.73 419.632 22.5202 417.724 23.9267 416.318C25.3332 414.911 27.2409 414.121 29.23 414.121H137.73C139.719 414.121 141.627 414.911 143.033 416.318C144.44 417.724 145.23 419.632 145.23 421.621C145.23 423.61 144.44 425.518 143.033 426.924C141.627 428.331 139.719 429.121 137.73 429.121H137.727Z" fill="#DFDFDD"/>
<path d="M155.824 266.84H119.624C117.635 266.84 115.727 266.05 114.321 264.643C112.914 263.237 112.124 261.329 112.124 259.34C112.124 257.351 112.914 255.443 114.321 254.037C115.727 252.63 117.635 251.84 119.624 251.84H155.824C157.813 251.84 159.721 252.63 161.127 254.037C162.534 255.443 163.324 257.351 163.324 259.34C163.324 261.329 162.534 263.237 161.127 264.643C159.721 266.05 157.813 266.84 155.824 266.84Z" fill="#DFDFDD"/>
<path d="M190.4 365.281C191.359 361.672 192.89 358.241 194.935 355.117L148.665 333.785C145.502 339.653 143.037 345.871 141.321 352.312C140.47 355.535 140.261 358.893 140.708 362.196C141.154 365.5 142.247 368.682 143.923 371.563C145.6 374.444 147.827 376.967 150.479 378.987C153.13 381.007 156.153 382.484 159.376 383.336C162.599 384.188 165.957 384.396 169.261 383.95C172.564 383.503 175.747 382.41 178.627 380.734C181.508 379.057 184.031 376.83 186.051 374.178C188.071 371.527 189.549 368.504 190.4 365.281Z" fill="#CC9E83"/>
</svg>
