<svg width="512" height="512" viewBox="0 0 512 512" fill="none" xmlns="http://www.w3.org/2000/svg">
<path d="M312.426 512C308.715 512 305.039 511.269 301.611 509.849C298.182 508.429 295.066 506.347 292.442 503.723C289.817 501.098 287.735 497.983 286.315 494.554C284.895 491.125 284.164 487.449 284.164 483.738V385.538C284.208 378.072 287.206 370.926 292.501 365.663C297.796 360.399 304.959 357.444 312.426 357.444C319.892 357.444 327.055 360.399 332.35 365.663C337.646 370.926 340.643 378.072 340.687 385.538V483.738C340.687 487.449 339.956 491.124 338.536 494.553C337.116 497.982 335.034 501.098 332.41 503.722C329.786 506.347 326.67 508.428 323.241 509.849C319.812 511.269 316.137 512 312.426 512Z" fill="#5F75A1"/>
<path d="M221.2 512C217.489 512 213.814 511.269 210.386 509.848C206.957 508.428 203.842 506.346 201.218 503.721C198.594 501.097 196.512 497.982 195.092 494.553C193.672 491.124 192.942 487.449 192.942 483.738V385.538C192.942 378.043 195.919 370.855 201.219 365.555C206.519 360.255 213.707 357.278 221.202 357.278C228.697 357.278 235.885 360.255 241.185 365.555C246.485 370.855 249.462 378.043 249.462 385.538V483.738C249.462 487.449 248.731 491.125 247.311 494.554C245.891 497.983 243.809 501.098 241.185 503.723C238.56 506.347 235.445 508.429 232.016 509.849C228.587 511.269 224.911 512 221.2 512Z" fill="#5F75A1"/>
<path d="M192.938 472.492V483.738C192.938 487.449 193.669 491.124 195.089 494.553C196.509 497.981 198.591 501.097 201.215 503.721C203.839 506.345 206.955 508.427 210.383 509.847C213.812 511.267 217.487 511.998 221.198 511.998C224.909 511.998 228.584 511.267 232.013 509.847C235.441 508.427 238.557 506.345 241.181 503.721C243.805 501.097 245.887 497.981 247.307 494.553C248.727 491.124 249.458 487.449 249.458 483.738V472.492H192.938Z" fill="#404656"/>
<path d="M284.164 472.492V483.738C284.208 491.204 287.206 498.35 292.501 503.613C297.796 508.877 304.959 511.832 312.426 511.832C319.892 511.832 327.055 508.877 332.35 503.613C337.646 498.35 340.643 491.204 340.687 483.738V472.492H284.164Z" fill="#404656"/>
<path d="M369.547 320.363C369.547 255.163 323.547 202.301 266.813 202.301C210.079 202.301 164.074 255.16 164.074 320.363C164.074 385.566 210.074 424.179 266.812 424.179C323.55 424.179 369.547 385.57 369.547 320.363Z" fill="#A0D9E7"/>
<path d="M175.652 371.7C192.781 405.309 227.16 424.184 266.812 424.184C306.464 424.184 340.844 405.3 357.969 371.7H175.652Z" fill="#5F75A1"/>
<path d="M474.621 153.652C474.621 132.894 454.821 116.07 430.383 116.07C405.945 116.07 386.141 132.894 386.141 153.652C386.141 174.41 405.95 191.23 430.383 191.23C454.816 191.23 474.621 174.406 474.621 153.652Z" fill="#F0CDB9"/>
<path d="M147.48 153.652C147.48 132.894 127.68 116.07 103.242 116.07C78.804 116.07 59 132.895 59 153.652C59 174.409 78.809 191.23 103.242 191.23C127.675 191.23 147.48 174.406 147.48 153.652Z" fill="#F8DCCC"/>
<path d="M435.641 153.652C435.641 68.793 360.051 0 266.813 0C173.575 0 97.984 68.793 97.984 153.652C97.984 238.511 173.57 287.895 266.813 287.895C360.056 287.895 435.641 238.512 435.641 153.652Z" fill="#F8DCCC"/>
<path d="M182.793 20.348C132.113 46.864 97.984 96.629 97.984 153.648C97.984 238.507 173.57 287.89 266.812 287.89C275.331 287.89 283.689 287.48 291.886 286.66C121.188 244.395 135.32 93.273 182.793 20.348Z" fill="#F0CDB9"/>
<path d="M201.605 188.063C201.605 171.293 184.531 157.696 163.476 157.696C142.421 157.696 125.347 171.296 125.347 188.063C125.347 204.83 142.417 218.426 163.476 218.426C184.535 218.426 201.605 204.832 201.605 188.063Z" fill="#F8B8BD"/>
<path d="M408.277 188.063C408.277 171.293 391.203 157.696 370.148 157.696C349.093 157.696 332.019 171.296 332.019 188.063C332.019 204.83 349.089 218.426 370.148 218.426C391.207 218.426 408.277 204.832 408.277 188.063Z" fill="#F8B8BD"/>
<path d="M185.7 165.27C183.711 165.27 181.803 164.48 180.397 163.073C178.99 161.667 178.2 159.759 178.2 157.77V144.309C178.2 142.32 178.99 140.412 180.397 139.006C181.803 137.599 183.711 136.809 185.7 136.809C187.689 136.809 189.597 137.599 191.003 139.006C192.41 140.412 193.2 142.32 193.2 144.309V157.77C193.2 159.759 192.41 161.667 191.003 163.073C189.597 164.48 187.689 165.27 185.7 165.27Z" fill="#404656"/>
<path d="M347.926 165.27C345.937 165.27 344.029 164.48 342.623 163.073C341.216 161.667 340.426 159.759 340.426 157.77V144.309C340.426 142.32 341.216 140.412 342.623 139.006C344.029 137.599 345.937 136.809 347.926 136.809C349.915 136.809 351.823 137.599 353.229 139.006C354.636 140.412 355.426 142.32 355.426 144.309V157.77C355.426 159.759 354.636 161.667 353.229 163.073C351.823 164.48 349.915 165.27 347.926 165.27Z" fill="#404656"/>
<path d="M266.813 175.609C261.688 175.608 256.622 174.508 251.958 172.385C247.293 170.262 243.137 167.164 239.77 163.3C238.463 161.8 237.806 159.843 237.942 157.858C238.078 155.874 238.997 154.025 240.497 152.718C241.997 151.411 243.954 150.754 245.939 150.89C247.923 151.026 249.772 151.945 251.079 153.445C253.036 155.696 255.453 157.5 258.167 158.737C260.881 159.973 263.829 160.613 266.812 160.613C269.794 160.613 272.742 159.973 275.456 158.737C278.17 157.5 280.587 155.696 282.544 153.445C283.851 151.945 285.7 151.026 287.685 150.89C289.669 150.754 291.626 151.411 293.126 152.718C294.626 154.025 295.545 155.874 295.681 157.858C295.818 159.843 295.16 161.8 293.853 163.3C290.487 167.164 286.332 170.263 281.667 172.386C277.003 174.509 271.938 175.608 266.813 175.609Z" fill="#404656"/>
<path d="M433.652 130.02C421.16 56.379 351.223 0 266.813 0C182.403 0 112.461 56.379 99.973 130.02C127.043 125.477 162.481 102.911 182.047 76.879C182.729 85.7845 185.384 94.4267 189.82 102.179C190.278 102.987 190.983 103.627 191.832 104.006C192.68 104.385 193.627 104.482 194.535 104.284C214.988 99.597 258.703 72.518 266.812 53.647C274.921 72.518 318.636 99.596 339.089 104.284C339.996 104.483 340.943 104.385 341.791 104.007C342.639 103.628 343.343 102.987 343.8 102.179C348.239 94.4279 350.896 85.7852 351.577 76.879C371.141 102.91 406.578 125.477 433.652 130.02Z" fill="#404656"/>
<path d="M182.785 20.359C139.254 43.137 107.934 83.066 99.973 130.02C116.297 127.282 135.657 117.985 152.75 105.329C156.523 73.2 168.047 43.008 182.785 20.359Z" fill="#353947"/>
<path d="M405.352 387.672H244.852C238.578 387.672 232.56 385.18 228.123 380.744C223.686 376.307 221.193 370.29 221.192 364.016V280.625C221.192 277.518 221.804 274.442 222.994 271.572C224.183 268.701 225.926 266.094 228.123 263.897C230.32 261.7 232.928 259.958 235.798 258.769C238.669 257.58 241.745 256.969 244.852 256.969H405.352C411.626 256.969 417.643 259.462 422.079 263.898C426.515 268.334 429.008 274.351 429.008 280.625V364.016C429.007 370.29 426.515 376.306 422.078 380.742C417.642 385.179 411.626 387.671 405.352 387.672Z" fill="#B49CDC"/>
<path d="M363.5 191.734H286.707C284.952 191.734 283.215 192.08 281.594 192.752C279.973 193.424 278.5 194.409 277.259 195.65C276.019 196.891 275.035 198.365 274.364 199.986C273.693 201.607 273.347 203.345 273.348 205.1V256.971H376.859V205.1C376.86 201.556 375.453 198.157 372.948 195.65C370.442 193.144 367.044 191.735 363.5 191.734Z" fill="#706AC9"/>
<path d="M363.5 191.734H286.707C284.952 191.734 283.215 192.08 281.594 192.752C279.973 193.424 278.5 194.409 277.259 195.65C276.019 196.891 275.035 198.365 274.364 199.986C273.693 201.607 273.347 203.345 273.348 205.1V213.682C273.348 215.436 273.693 217.174 274.365 218.794C275.036 220.415 276.02 221.888 277.26 223.129C278.501 224.369 279.974 225.353 281.595 226.024C283.215 226.696 284.953 227.041 286.707 227.041H363.5C365.255 227.042 366.992 226.696 368.614 226.025C370.235 225.354 371.708 224.37 372.949 223.13C374.19 221.889 375.174 220.416 375.846 218.795C376.517 217.174 376.863 215.437 376.863 213.682V205.1C376.863 203.345 376.518 201.607 375.847 199.985C375.175 198.364 374.191 196.89 372.95 195.649C371.709 194.408 370.236 193.423 368.615 192.751C366.993 192.08 365.255 191.734 363.5 191.734Z" fill="white"/>
<path d="M365.617 322.32C365.616 330.333 363.239 338.166 358.787 344.828C354.335 351.491 348.007 356.683 340.603 359.749C333.2 362.815 325.054 363.617 317.195 362.053C309.336 360.489 302.117 356.63 296.451 350.964C290.785 345.298 286.926 338.079 285.363 330.219C283.8 322.36 284.603 314.214 287.669 306.811C290.736 299.408 295.929 293.08 302.591 288.628C309.254 284.176 317.087 281.8 325.1 281.8C330.421 281.8 335.69 282.848 340.606 284.884C345.522 286.92 349.989 289.905 353.751 293.668C357.514 297.43 360.498 301.897 362.534 306.814C364.57 311.73 365.618 316.999 365.617 322.32Z" fill="#404656"/>
<path d="M339.852 322.32C339.852 325.237 338.987 328.089 337.366 330.515C335.745 332.94 333.442 334.831 330.747 335.947C328.051 337.064 325.086 337.356 322.224 336.787C319.363 336.217 316.735 334.813 314.672 332.75C312.609 330.687 311.205 328.059 310.635 325.198C310.066 322.336 310.358 319.371 311.475 316.675C312.591 313.98 314.482 311.677 316.907 310.056C319.333 308.435 322.185 307.57 325.102 307.57C329.014 307.571 332.765 309.125 335.531 311.891C338.297 314.657 339.852 318.408 339.852 322.32Z" fill="#353947"/>
<path d="M261.785 297.574H247.885C245.896 297.574 243.988 296.784 242.582 295.377C241.175 293.971 240.385 292.063 240.385 290.074C240.385 288.085 241.175 286.177 242.582 284.771C243.988 283.364 245.896 282.574 247.885 282.574H261.785C263.774 282.574 265.682 283.364 267.088 284.771C268.495 286.177 269.285 288.085 269.285 290.074C269.285 292.063 268.495 293.971 267.088 295.377C265.682 296.784 263.774 297.574 261.785 297.574Z" fill="white"/>
<path d="M439.453 364.566C436.636 364.564 433.836 364.141 431.144 363.312L418.761 359.512C415.213 358.423 411.914 356.645 409.053 354.281C406.192 351.917 403.825 349.012 402.086 345.733C400.348 342.454 399.272 338.865 398.921 335.17C398.569 331.475 398.949 327.747 400.039 324.2C402.239 317.034 407.195 311.036 413.817 307.525C417.096 305.786 420.686 304.711 424.38 304.359C428.075 304.008 431.803 304.388 435.351 305.477L447.742 309.286C454.211 311.274 459.752 315.517 463.357 321.244C466.963 326.971 468.394 333.801 467.391 340.494C466.387 347.187 463.016 353.297 457.889 357.715C452.762 362.132 446.221 364.564 439.453 364.567V364.566Z" fill="#F8DCCC"/>
<path d="M194.246 383.688C178.199 383.688 163.391 378.739 151.246 368.844C127.336 349.367 119.546 315.801 130.918 281.244C133.26 274.125 138.335 268.227 145.026 264.849C151.716 261.471 159.475 260.89 166.594 263.232C173.714 265.574 179.611 270.649 182.989 277.34C186.367 284.03 186.948 291.789 184.606 298.908C180.29 312.029 182.794 321.642 186.946 325.025C192.094 329.225 203.524 327.279 216.063 320.08C222.56 316.393 230.253 315.429 237.459 317.397C244.665 319.366 250.799 324.108 254.519 330.586C258.24 337.064 259.244 344.752 257.312 351.968C255.38 359.185 250.67 365.343 244.211 369.096C227.273 378.82 210.148 383.688 194.246 383.688Z" fill="#7CCBDD"/>
<path d="M254.645 330.512C250.913 324.013 244.751 319.262 237.517 317.306C230.282 315.349 222.566 316.346 216.067 320.078C210.745 323.288 204.914 325.564 198.825 326.808L219.525 379.828C228.141 377.216 236.426 373.614 244.213 369.094C247.431 367.246 250.254 364.782 252.52 361.842C254.786 358.903 256.451 355.546 257.42 351.964C258.389 348.381 258.642 344.643 258.166 340.962C257.69 337.281 256.493 333.73 254.645 330.512Z" fill="#F8DCCC"/>
</svg>
