<svg width="512" height="512" viewBox="0 0 512 512" fill="none" xmlns="http://www.w3.org/2000/svg">
<path d="M178.509 366.84L41.4699 394.09V431.82H464.201V394.09L178.509 366.84Z" fill="#485B73"/>
<path d="M199.396 368.832L178.509 366.84L41.4699 394.09V431.82H72.3759V394.09L199.396 368.832Z" fill="#324761"/>
<path d="M41.5559 14.813C40.7004 13.4222 39.5793 12.2136 38.2566 11.2561C36.934 10.2987 35.4357 9.61119 33.8473 9.23287C32.2589 8.85455 30.6115 8.79284 28.9993 9.05127C27.387 9.30969 25.8415 9.88318 24.4509 10.739L9.9229 19.672C8.53189 20.5273 7.32299 21.6482 6.36523 22.9707C5.40746 24.2932 4.7196 25.7914 4.34091 27.3798C3.96223 28.9682 3.90014 30.6156 4.15819 32.228C4.41625 33.8404 4.98939 35.3861 5.8449 36.777L28.1529 70.82L63.8639 48.855L41.5559 14.813Z" fill="#FF9EC0"/>
<path d="M149.552 28.234C149.028 25.2356 147.843 22.3914 146.084 19.9074C144.324 17.4234 142.035 15.3619 139.38 13.8722C136.726 12.3825 133.773 11.502 130.736 11.2944C127.699 11.0868 124.654 11.5574 121.822 12.672L44.8679 42.949C38.1896 45.5706 32.5074 50.2303 28.6289 56.266C24.7504 62.3016 22.8728 69.4062 23.2629 76.57C28.9699 179.164 69.5329 172.207 53.2899 257.902C45.3225 300.547 41.3652 343.844 41.4699 387.226V394.089H464.201C464.201 394.089 452.787 325.889 402.471 283.495H306.981L238.926 252.253L191.692 52.41L149.552 28.234Z" fill="#6DD1E0"/>
<path d="M84.2009 257.9C100.443 172.2 59.8809 158.564 54.1739 55.966C53.8185 49.5829 55.2744 43.2294 58.3739 37.638L44.8739 42.951C38.195 45.5717 32.512 50.2308 28.6324 56.2661C24.7527 62.3014 22.8739 69.4059 23.2629 76.57C28.9699 179.164 69.5319 172.2 53.2939 257.9C45.3254 300.544 41.3668 343.841 41.4699 387.223V394.09H72.3759V387.223C72.2733 343.841 76.2323 300.544 84.2009 257.9Z" fill="#45C0D2"/>
<path d="M308.126 250.5C237.06 250.5 291.169 105.574 240.876 9.46099C238.882 5.6208 235.539 2.65387 231.489 1.13146C227.438 -0.39095 222.968 -0.361196 218.939 1.21499L149.601 28.5L187.742 246.625C190.216 259.909 196.148 272.307 204.94 282.569C213.732 292.831 225.072 300.595 237.82 305.078L304.468 328.523C317.326 333.045 331.234 333.671 344.446 330.32C357.659 326.97 369.588 319.794 378.738 309.691L402.468 283.491C379.774 264.379 349.169 250.5 308.126 250.5Z" fill="#FF9EC0"/>
<path d="M117.801 155.387C119.168 160.979 121.665 166.233 125.139 170.823C128.613 175.413 132.991 179.244 138.001 182.078C143.012 184.913 148.55 186.691 154.274 187.304C159.999 187.917 165.788 187.351 171.285 185.641L219.633 170.641L191.778 52.766L136.892 71.395C126.865 74.7402 118.47 81.7475 113.386 91.0156C108.303 100.284 106.906 111.129 109.474 121.383L117.801 155.387Z" fill="#45C0D2"/>
<path d="M240.489 36.234L155.966 64.918L176.779 183.938L266.404 156.118C265.314 117.927 264.604 73.626 251.31 34.149C247.625 34.3475 243.984 35.049 240.489 36.234Z" fill="#FF66A8"/>
<path d="M272.29 115.691C271.578 101.117 270.131 86.5881 267.954 72.16C267.616 70.0548 266.822 68.0489 265.628 66.2823C264.434 64.5157 262.869 63.0312 261.042 61.9323C259.214 60.8334 257.169 60.1467 255.049 59.9203C252.929 59.6938 250.785 59.9329 248.767 60.621L145.167 95.781C141.274 97.1027 138.017 99.8356 136.04 103.441C134.063 107.045 133.509 111.261 134.487 115.254L142.819 149.262C143.352 151.44 144.326 153.485 145.679 155.272C147.033 157.06 148.738 158.551 150.689 159.655C152.64 160.759 154.797 161.452 157.026 161.691C159.255 161.931 161.51 161.711 163.651 161.047L262.001 130.52C265.122 129.547 267.83 127.56 269.694 124.874C271.558 122.187 272.471 118.956 272.29 115.691Z" fill="#ECECEE"/>
<path d="M195.001 329.012C202.541 334.606 211.742 337.507 221.127 337.25C230.513 336.993 239.54 333.593 246.763 327.594L302.4 281.394L238.923 252.253L224.513 191.273L170.533 229.328C163.184 234.46 157.686 241.824 154.853 250.328C152.021 258.831 152.006 268.022 154.81 276.535C159.255 290.164 169.833 310.332 195.001 329.012Z" fill="#45C0D2"/>
<path d="M308.126 250.5C272.915 250.5 268.435 214.918 266.759 167.328C260.742 167.74 254.955 169.801 250.032 173.285L183.161 220.426L187.739 246.626C190.215 259.91 196.147 272.307 204.938 282.569C213.73 292.831 225.07 300.595 237.817 305.079L263.153 313.989L313.153 272.469C319.584 267.15 323.757 259.589 324.829 251.313C319.462 250.785 313.901 250.5 308.126 250.5Z" fill="#FF66A8"/>
<path d="M295.337 240.539C283.958 235.039 278.868 220.992 276.317 199.469C276.171 198.213 275.701 197.016 274.954 195.996C274.206 194.976 273.207 194.168 272.053 193.65C270.899 193.133 269.631 192.924 268.372 193.044C267.113 193.164 265.907 193.61 264.872 194.336L185.372 250.375C182.549 252.358 180.436 255.193 179.342 258.465C178.249 261.737 178.234 265.273 179.298 268.555C182.598 278.688 190.665 293.723 210.349 308.332C213.258 310.487 216.806 311.605 220.425 311.505C224.044 311.405 227.524 310.094 230.31 307.781L296.701 252.652C297.636 251.883 298.365 250.892 298.82 249.769C299.275 248.647 299.442 247.429 299.307 246.225C299.171 245.022 298.737 243.871 298.044 242.878C297.35 241.885 296.42 241.081 295.337 240.539Z" fill="#ECECEE"/>
<path d="M511.888 464.313C511.888 473.745 509.091 482.965 503.851 490.808C498.611 498.651 491.163 504.763 482.449 508.373C473.735 511.982 464.146 512.927 454.895 511.087C445.644 509.246 437.147 504.704 430.477 498.035C423.808 491.365 419.266 482.868 417.426 473.617C415.586 464.366 416.531 454.777 420.14 446.063C423.75 437.349 429.863 429.901 437.706 424.661C445.548 419.421 454.769 416.625 464.201 416.625C476.848 416.626 488.977 421.65 497.92 430.593C506.863 439.537 511.887 451.666 511.888 464.313Z" fill="#FF9EC0"/>
<path d="M480.966 464.313C480.966 467.63 479.982 470.872 478.14 473.63C476.297 476.388 473.678 478.537 470.614 479.806C467.549 481.076 464.177 481.408 460.924 480.761C457.671 480.114 454.683 478.517 452.338 476.171C449.992 473.826 448.395 470.838 447.748 467.585C447.101 464.332 447.433 460.96 448.702 457.895C449.972 454.831 452.121 452.212 454.879 450.369C457.637 448.527 460.879 447.543 464.196 447.543C466.398 447.543 468.579 447.977 470.614 448.819C472.648 449.662 474.497 450.897 476.054 452.455C477.612 454.012 478.847 455.861 479.69 457.895C480.532 459.93 480.966 462.111 480.966 464.313Z" fill="#ECECEE"/>
<path d="M380.224 464.313C380.224 473.745 377.427 482.965 372.187 490.807C366.948 498.65 359.5 504.762 350.786 508.372C342.072 511.981 332.483 512.926 323.233 511.086C313.982 509.246 305.485 504.704 298.815 498.035C292.146 491.365 287.604 482.868 285.764 473.617C283.924 464.367 284.869 454.778 288.478 446.064C292.088 437.35 298.2 429.902 306.043 424.662C313.885 419.423 323.105 416.626 332.537 416.626C338.799 416.626 345 417.859 350.786 420.256C356.572 422.652 361.829 426.165 366.257 430.593C370.685 435.021 374.198 440.278 376.594 446.064C378.991 451.85 380.224 458.051 380.224 464.313Z" fill="#FF9EC0"/>
<path d="M349.301 464.313C349.301 467.63 348.317 470.872 346.475 473.63C344.632 476.388 342.013 478.537 338.948 479.806C335.884 481.076 332.512 481.408 329.259 480.761C326.006 480.114 323.018 478.517 320.673 476.171C318.327 473.826 316.73 470.838 316.083 467.585C315.436 464.332 315.768 460.96 317.037 457.895C318.307 454.831 320.456 452.212 323.214 450.369C325.972 448.527 329.214 447.543 332.531 447.543C334.733 447.543 336.914 447.977 338.949 448.819C340.983 449.662 342.832 450.897 344.389 452.455C345.947 454.012 347.182 455.861 348.025 457.895C348.867 459.93 349.301 462.111 349.301 464.313Z" fill="#ECECEE"/>
<path d="M248.564 464.313C248.564 473.745 245.767 482.965 240.527 490.807C235.287 498.65 227.84 504.762 219.126 508.372C210.412 511.981 200.823 512.926 191.573 511.086C182.322 509.246 173.825 504.704 167.155 498.035C160.486 491.365 155.944 482.868 154.104 473.617C152.264 464.367 153.209 454.778 156.818 446.064C160.428 437.35 166.54 429.902 174.382 424.662C182.225 419.423 191.445 416.626 200.877 416.626C213.524 416.627 225.653 421.651 234.596 430.594C243.539 439.537 248.563 451.666 248.564 464.313Z" fill="#FF9EC0"/>
<path d="M217.646 464.313C217.646 467.63 216.662 470.872 214.82 473.63C212.977 476.388 210.358 478.537 207.294 479.806C204.229 481.076 200.857 481.408 197.604 480.761C194.351 480.114 191.363 478.517 189.018 476.171C186.672 473.826 185.075 470.838 184.428 467.585C183.781 464.332 184.113 460.96 185.382 457.895C186.652 454.831 188.801 452.212 191.559 450.369C194.317 448.527 197.559 447.543 200.876 447.543C203.078 447.543 205.259 447.977 207.294 448.819C209.328 449.662 211.177 450.897 212.734 452.455C214.292 454.012 215.527 455.861 216.37 457.895C217.212 459.93 217.646 462.111 217.646 464.313Z" fill="#ECECEE"/>
<path d="M116.901 464.313C116.901 473.745 114.105 482.966 108.865 490.808C103.625 498.651 96.1767 504.764 87.4626 508.374C78.7485 511.983 69.1597 512.928 59.9087 511.088C50.6578 509.248 42.1602 504.706 35.4907 498.036C28.8211 491.367 24.2792 482.869 22.4391 473.618C20.5991 464.367 21.5437 454.778 25.1534 446.064C28.7631 437.35 34.8758 429.902 42.7186 424.662C50.5613 419.422 59.7817 416.626 69.2139 416.626C81.8611 416.627 93.9902 421.651 102.933 430.594C111.876 439.537 116.9 451.666 116.901 464.313Z" fill="#FF9EC0"/>
<path d="M85.9849 464.313C85.9849 467.63 85.0014 470.872 83.1586 473.63C81.3159 476.388 78.6968 478.537 75.6325 479.806C72.5682 481.076 69.1963 481.408 65.9432 480.761C62.6902 480.114 59.702 478.517 57.3567 476.171C55.0114 473.826 53.4142 470.838 52.7671 467.585C52.12 464.332 52.4522 460.96 53.7214 457.895C54.9907 454.831 57.1402 452.212 59.898 450.369C62.6558 448.527 65.8981 447.543 69.2149 447.543C71.4172 447.543 73.598 447.977 75.6327 448.819C77.6673 449.662 79.5161 450.897 81.0734 452.455C82.6306 454.012 83.8659 455.861 84.7086 457.895C85.5513 459.93 85.985 462.111 85.9849 464.313Z" fill="#ECECEE"/>
<path d="M192.54 120.914C192.54 123.643 191.731 126.311 190.214 128.581C188.698 130.85 186.543 132.619 184.021 133.664C181.499 134.708 178.725 134.981 176.048 134.449C173.371 133.916 170.912 132.602 168.982 130.672C167.052 128.742 165.738 126.283 165.205 123.606C164.673 120.929 164.946 118.155 165.99 115.633C167.035 113.111 168.804 110.956 171.073 109.44C173.342 107.923 176.011 107.114 178.74 107.114C182.4 107.114 185.91 108.568 188.498 111.156C191.086 113.744 192.54 117.254 192.54 120.914Z" fill="#FF9EC0"/>
<path d="M238.931 266.055C238.931 268.784 238.122 271.452 236.605 273.722C235.089 275.991 232.934 277.76 230.412 278.805C227.89 279.849 225.116 280.122 222.439 279.59C219.762 279.057 217.303 277.743 215.373 275.813C213.443 273.883 212.129 271.424 211.596 268.747C211.064 266.07 211.337 263.296 212.381 260.774C213.426 258.252 215.195 256.097 217.464 254.581C219.733 253.064 222.402 252.255 225.131 252.255C228.791 252.255 232.301 253.709 234.889 256.297C237.477 258.885 238.931 262.395 238.931 266.055Z" fill="#FF9EC0"/>
</svg>
