<svg width="512" height="512" viewBox="0 0 512 512" fill="none" xmlns="http://www.w3.org/2000/svg">
<path d="M502.852 191.809L480 168.957C471.513 160.471 460.002 155.703 448 155.703C435.998 155.703 424.487 160.471 416 168.957C407.513 177.443 396.002 182.211 384 182.211C371.998 182.211 360.487 177.443 352 168.957C343.513 160.471 332.002 155.703 320 155.703C307.998 155.703 296.487 160.471 288 168.957C279.513 177.443 268.002 182.211 256 182.211C243.998 182.211 232.487 177.443 224 168.957C215.513 160.471 204.002 155.703 192 155.703C179.998 155.703 168.487 160.471 160 168.957C151.513 177.443 140.002 182.211 128 182.211C115.998 182.211 104.487 177.443 96 168.957C87.5128 160.471 76.0022 155.703 64 155.703C51.9978 155.703 40.4872 160.471 32 168.957L9.148 191.809C6.2469 194.71 3.94579 198.154 2.37614 201.944C0.80649 205.735 -0.00093317 209.797 8.09353e-07 213.9V371.527C8.09353e-07 391.843 8.07033 411.326 22.4356 425.691C36.8009 440.057 56.2844 448.127 76.6 448.127H435.4C455.716 448.127 475.199 440.057 489.564 425.691C503.93 411.326 512 391.843 512 371.527V213.9C512.001 209.797 511.194 205.735 509.624 201.944C508.054 198.154 505.753 194.71 502.852 191.809Z" fill="#A3DEFE"/>
<path d="M168.074 162.547C165.148 164.37 162.439 166.52 160 168.957C151.513 177.443 140.002 182.211 128 182.211C115.998 182.211 104.487 177.443 96 168.957C87.5128 160.471 76.0022 155.703 64 155.703C51.9978 155.703 40.4872 160.471 32 168.957L9.148 191.809C6.2469 194.71 3.94579 198.154 2.37614 201.944C0.80649 205.735 -0.00093317 209.797 8.09353e-07 213.9V371.531C8.09353e-07 391.847 8.07033 411.33 22.4356 425.695C36.8009 440.061 56.2844 448.131 76.6 448.131H257.93C173.129 389.125 155.727 255.68 168.074 162.547Z" fill="#7ACEFA"/>
<path d="M176.746 253.945C173.987 254.41 171.162 254.319 168.438 253.676C165.715 253.034 163.147 251.853 160.887 250.203C126.66 225.277 103.844 174.558 101.344 117.844C101.213 115.078 101.629 112.313 102.569 109.708C103.509 107.104 104.953 104.71 106.82 102.665C108.686 100.619 110.938 98.9622 113.447 97.7889C115.955 96.6156 118.67 95.9489 121.436 95.827C124.203 95.7051 126.966 96.1305 129.568 97.0787C132.17 98.027 134.559 99.4794 136.598 101.353C138.637 103.226 140.286 105.484 141.451 107.996C142.617 110.508 143.274 113.225 143.387 115.992C145.309 159.551 161.903 198.879 185.66 216.183C189.01 218.622 191.566 221.996 193.006 225.882C194.446 229.769 194.706 233.993 193.754 238.027C192.802 242.06 190.68 245.723 187.654 248.555C184.628 251.386 180.834 253.262 176.746 253.945Z" fill="#FFBF9E"/>
<path d="M272.375 407.98C293.634 386.351 305.488 357.199 305.357 326.871C305.226 296.544 293.121 267.495 271.676 246.05C250.23 224.605 221.182 212.5 190.855 212.369C160.527 212.238 131.375 224.093 109.746 245.352C64.836 290.258 78.285 349.625 123.191 394.532C168.097 439.439 227.465 452.891 272.375 407.98Z" fill="#FFD4BE"/>
<path d="M109.746 245.352C64.836 290.258 78.285 349.625 123.191 394.532C168.097 439.439 227.464 452.891 272.375 407.981L109.746 245.352Z" fill="#E26E7E"/>
<path d="M419.438 290.426C366.379 343.485 286.038 337.805 232.977 284.746C179.916 231.687 174.239 151.346 227.297 98.285C280.355 45.224 356.707 54.9 409.766 107.957C462.825 161.014 472.5 237.371 419.438 290.426Z" fill="#FFD4BE"/>
<path d="M318.137 326.77C223.832 264.707 225.957 147.8 250 80.156C241.766 85.3136 234.149 91.3976 227.3 98.289C174.241 151.344 179.925 231.689 232.984 284.746C257.367 309.133 287.52 323.5 318.137 326.77Z" fill="#FFBF9E"/>
<path d="M254.063 134.621C240.915 121.473 221.763 119.301 211.297 129.773C200.831 140.245 202.997 159.386 216.145 172.535C229.293 185.684 248.445 187.855 258.911 177.387C269.377 166.919 267.211 147.77 254.063 134.621Z" fill="#EDA1AB"/>
<path d="M383.1 263.66C369.952 250.512 350.8 248.344 340.334 258.812C329.868 269.28 332.034 288.429 345.182 301.578C358.33 314.727 377.482 316.894 387.948 306.426C398.414 295.958 396.25 276.809 383.1 263.66Z" fill="#EDA1AB"/>
<path d="M267.895 156.043C266.413 156.042 264.964 155.601 263.732 154.777C262.5 153.953 261.539 152.782 260.972 151.412C260.405 150.043 260.257 148.536 260.545 147.082C260.834 145.628 261.547 144.292 262.595 143.243L271 134.832C272.406 133.425 274.314 132.635 276.303 132.634C278.292 132.634 280.2 133.424 281.607 134.83C283.014 136.236 283.804 138.144 283.805 140.133C283.805 142.122 283.015 144.03 281.609 145.437L273.199 153.843C272.504 154.541 271.677 155.095 270.767 155.473C269.856 155.85 268.88 156.044 267.895 156.043Z" fill="#4E5660"/>
<path d="M369.184 257.332C367.702 257.331 366.253 256.89 365.021 256.066C363.788 255.242 362.828 254.071 362.261 252.701C361.694 251.332 361.545 249.825 361.834 248.371C362.123 246.917 362.836 245.581 363.884 244.532L372.29 236.126C373.697 234.72 375.605 233.93 377.594 233.93C379.583 233.931 381.491 234.721 382.897 236.128C384.303 237.535 385.093 239.443 385.093 241.432C385.092 243.421 384.302 245.329 382.895 246.735L374.489 255.141C373.793 255.838 372.965 256.39 372.055 256.766C371.145 257.142 370.169 257.334 369.184 257.332Z" fill="#4E5660"/>
<path d="M329.793 220.469C325.331 220.471 320.916 219.555 316.823 217.778C312.729 216.001 309.046 213.4 306.001 210.138C302.956 206.876 300.615 203.022 299.124 198.817C297.633 194.611 297.023 190.144 297.332 185.692C297.469 183.708 298.388 181.859 299.888 180.552C301.388 179.245 303.345 178.588 305.33 178.725C307.314 178.862 309.163 179.781 310.47 181.281C311.776 182.781 312.434 184.739 312.297 186.723C312.122 189.224 312.485 191.734 313.363 194.083C314.241 196.432 315.612 198.565 317.385 200.339C319.158 202.112 321.291 203.484 323.64 204.362C325.989 205.241 328.498 205.605 331 205.43C331.983 205.363 332.969 205.489 333.902 205.803C334.836 206.117 335.699 206.611 336.441 207.258C337.184 207.906 337.792 208.693 338.23 209.575C338.668 210.457 338.929 211.416 338.996 212.399C339.063 213.382 338.937 214.368 338.623 215.302C338.309 216.235 337.815 217.098 337.167 217.84C336.52 218.583 335.733 219.191 334.851 219.629C333.969 220.067 333.01 220.328 332.027 220.395C331.285 220.445 330.535 220.469 329.793 220.469Z" fill="#4E5660"/>
<path d="M409.766 107.961C357.723 55.914 283.266 45.621 230.366 95.32C250.366 103.156 279.566 108.152 317.116 104.312L413.416 200.612C409.576 238.159 414.572 267.358 422.404 287.362C472.1 234.457 461.813 160 409.766 107.961Z" fill="#4E5660"/>
<path d="M244.047 99.773C245.817 92.89 247.813 86.32 249.996 80.168C242.972 84.5622 236.397 89.6374 230.367 95.32C234.841 97.0556 239.408 98.5422 244.047 99.773Z" fill="#383C43"/>
<path d="M281.8 66.5C300.823 102.375 330.359 134.77 356.655 161.07C382.951 187.37 415.355 216.902 451.225 235.929C462.37 192.394 446.425 144.617 409.768 107.956C373.111 71.295 325.328 55.359 281.8 66.5Z" fill="#E26E7E"/>
<path d="M467.973 332.918L448.352 313.3C441.064 306.012 431.18 301.918 420.874 301.918C410.567 301.918 400.683 306.012 393.395 313.3C386.107 320.588 376.223 324.682 365.917 324.682C355.61 324.682 345.726 320.588 338.438 313.3C331.15 306.012 321.266 301.918 310.96 301.918C300.653 301.918 290.769 306.012 283.481 313.3C276.193 320.588 266.309 324.682 256.003 324.682C245.696 324.682 235.812 320.588 228.524 313.3C221.236 306.012 211.352 301.918 201.046 301.918C190.739 301.918 180.855 306.012 173.567 313.3C166.279 320.588 156.395 324.682 146.089 324.682C135.782 324.682 125.898 320.588 118.61 313.3C111.322 306.012 101.438 301.918 91.1315 301.918C80.8251 301.918 70.9408 306.012 63.653 313.3L44.027 332.918C38.9969 337.949 36.1714 344.773 36.172 351.887V397.067C36.1716 403.773 37.4921 410.413 40.0581 416.608C42.6241 422.804 46.3854 428.433 51.1271 433.175C55.8688 437.917 61.4981 441.678 67.6936 444.244C73.889 446.81 80.5292 448.13 87.235 448.13H424.77C431.475 448.13 438.115 446.809 444.31 444.243C450.505 441.677 456.134 437.916 460.875 433.174C465.617 428.433 469.377 422.803 471.943 416.608C474.509 410.413 475.829 403.773 475.829 397.068V351.888C475.829 348.365 475.136 344.877 473.788 341.622C472.44 338.367 470.464 335.409 467.973 332.918Z" fill="#A3DEFE"/>
<path d="M175.039 311.9C174.539 312.353 174.047 312.82 173.562 313.3C166.274 320.588 156.39 324.682 146.083 324.682C135.777 324.682 125.893 320.588 118.605 313.3C111.317 306.012 101.433 301.918 91.1265 301.918C80.8201 301.918 70.9358 306.012 63.648 313.3L44.027 332.918C41.536 335.41 39.5601 338.368 38.2124 341.623C36.8646 344.879 36.1713 348.368 36.172 351.891V397.071C36.172 410.612 41.5513 423.599 51.1265 433.174C55.8677 437.916 61.4963 441.677 67.6909 444.242C73.8856 446.808 80.525 448.129 87.23 448.129H257.93C213.852 417.457 187.984 366.676 175.039 311.9Z" fill="#7ACEFA"/>
<path d="M436.859 348.922C430.886 348.938 424.968 347.77 419.449 345.484C413.931 343.198 408.92 339.841 404.707 335.606C403.301 334.199 402.511 332.291 402.511 330.302C402.511 328.313 403.302 326.405 404.708 324.999C406.115 323.592 408.023 322.802 410.013 322.802C412.002 322.803 413.91 323.593 415.316 325C421.03 330.713 428.779 333.922 436.859 333.922C444.939 333.922 452.688 330.713 458.402 325C459.809 323.594 461.717 322.804 463.706 322.804C465.695 322.805 467.603 323.595 469.009 325.002C470.415 326.409 471.205 328.317 471.205 330.306C471.204 332.295 470.414 334.203 469.007 335.609C464.795 339.843 459.785 343.2 454.266 345.485C448.748 347.771 442.832 348.939 436.859 348.922Z" fill="#7ACEFA"/>
<path d="M57.543 252.219C52.7771 252.232 48.0559 251.3 43.6527 249.476C39.2496 247.652 35.2519 244.973 31.891 241.594C30.4846 240.187 29.6946 238.279 29.6949 236.29C29.6952 234.301 30.4857 232.393 31.8925 230.986C33.2994 229.58 35.2073 228.79 37.1966 228.79C39.1859 228.791 41.0936 229.581 42.5 230.988C46.4914 234.977 51.9037 237.218 57.547 237.218C63.1903 237.218 68.6026 234.977 72.594 230.988C74.0056 229.606 75.9052 228.837 77.8805 228.848C79.8557 228.858 81.7471 229.647 83.1438 231.044C84.5406 232.441 85.3299 234.332 85.3404 236.308C85.351 238.283 84.5818 240.182 83.2 241.594C79.8384 244.973 75.8398 247.653 71.4358 249.476C67.0317 251.3 62.3097 252.232 57.543 252.219Z" fill="#A3DEFE"/>
<path d="M313.141 413.918C307.17 413.929 301.257 412.759 295.739 410.477C290.222 408.194 285.211 404.844 280.993 400.618C279.633 399.202 278.882 397.309 278.902 395.346C278.922 393.383 279.711 391.506 281.1 390.118C282.489 388.73 284.366 387.942 286.329 387.923C288.292 387.904 290.185 388.655 291.6 390.016C297.318 395.721 305.066 398.926 313.143 398.926C321.22 398.926 328.968 395.721 334.686 390.016C336.092 388.609 338 387.819 339.989 387.818C341.978 387.818 343.886 388.608 345.293 390.014C346.7 391.42 347.49 393.328 347.491 395.317C347.491 397.306 346.701 399.214 345.295 400.621C341.076 404.847 336.063 408.197 330.545 410.479C325.027 412.761 319.112 413.929 313.141 413.918Z" fill="#7ACEFA"/>
<path d="M137.488 390.352C131.518 390.362 125.604 389.192 120.087 386.91C114.57 384.627 109.558 381.277 105.34 377.052C103.974 375.638 103.218 373.743 103.235 371.777C103.252 369.81 104.041 367.929 105.431 366.538C106.822 365.148 108.703 364.359 110.67 364.342C112.636 364.325 114.53 365.081 115.945 366.447C121.663 372.152 129.411 375.357 137.488 375.357C145.565 375.357 153.313 372.152 159.031 366.447C160.446 365.081 162.34 364.325 164.307 364.342C166.273 364.359 168.154 365.148 169.545 366.538C170.935 367.929 171.724 369.81 171.741 371.777C171.758 373.743 171.002 375.638 169.636 377.052C165.418 381.277 160.406 384.627 154.889 386.91C149.372 389.192 143.458 390.362 137.488 390.352Z" fill="#A3DEFE"/>
</svg>
