<svg width="512" height="512" viewBox="0 0 512 512" fill="none" xmlns="http://www.w3.org/2000/svg">
<path d="M325.445 512.176C327.637 512.172 329.803 511.698 331.797 510.788C333.792 509.877 335.568 508.55 337.007 506.896C338.446 505.243 339.515 503.3 340.141 501.199C340.767 499.098 340.937 496.888 340.638 494.716C336.408 463.426 320.975 434.731 297.199 413.954C273.424 393.176 242.921 381.726 211.346 381.726C179.771 381.726 149.268 393.176 125.493 413.954C101.718 434.731 86.2839 463.426 82.0541 494.716C81.7555 496.888 81.9251 499.098 82.5514 501.199C83.1777 503.3 84.2462 505.243 85.6853 506.896C87.1243 508.55 88.9006 509.877 90.8948 510.788C92.8889 511.698 95.0549 512.172 97.2471 512.176H325.445Z" fill="#F5E2A2"/>
<path d="M318.676 438.013C306.045 419.767 288.986 405.027 269.1 395.178V411.103C269.1 460.38 233.7 473.454 211.343 473.454C188.986 473.454 153.587 460.38 153.587 411.103V395.178C133.702 405.028 116.644 419.767 104.014 438.013C126.786 461.704 144.068 490.837 152.889 512.176H269.8C278.622 490.837 295.9 461.704 318.676 438.013Z" fill="#7ACDF9"/>
<path d="M53.184 350.511C82.5567 350.511 106.368 326.7 106.368 297.327C106.368 267.954 82.5567 244.143 53.184 244.143C23.8113 244.143 0 267.954 0 297.327C0 326.7 23.8113 350.511 53.184 350.511Z" fill="#CB9D82"/>
<path d="M369.508 350.511C398.881 350.511 422.692 326.7 422.692 297.327C422.692 267.954 398.881 244.143 369.508 244.143C340.135 244.143 316.324 267.954 316.324 297.327C316.324 326.7 340.135 350.511 369.508 350.511Z" fill="#B7856B"/>
<path d="M382.945 293.838C382.945 379.096 306.118 437.153 211.345 437.153C116.572 437.153 39.7451 379.097 39.7451 293.838C39.7451 208.579 116.572 139.464 211.345 139.464C306.118 139.464 382.945 208.58 382.945 293.838Z" fill="#CB9D82"/>
<path d="M211.346 437.154C234.376 437.261 257.27 433.632 279.138 426.409C50.58 402.262 86.326 222.736 158.539 146.924C89.609 166.962 39.748 225.157 39.748 293.838C39.748 379.097 116.575 437.154 211.348 437.154H211.346Z" fill="#B7856B"/>
<path d="M153.59 337.046C153.59 351.9 138.47 363.94 119.818 363.94C101.166 363.94 86.0459 351.899 86.0459 337.046C86.0459 322.193 101.167 310.151 119.818 310.151C138.469 310.151 153.59 322.193 153.59 337.046Z" fill="#EDA1AB"/>
<path d="M269.1 337.046C269.1 351.9 284.221 363.94 302.873 363.94C321.525 363.94 336.645 351.899 336.645 337.046C336.645 322.193 321.525 310.151 302.873 310.151C284.221 310.151 269.1 322.193 269.1 337.046Z" fill="#EDA1AB"/>
<path d="M238.575 316.382C238.575 299.554 226.384 297.973 211.346 297.973C196.308 297.973 184.117 299.554 184.117 316.382C184.117 333.21 196.308 346.851 211.346 346.851C226.384 346.851 238.575 333.209 238.575 316.382Z" fill="#4E5660"/>
<path d="M125.463 312.438C123.474 312.438 121.566 311.648 120.16 310.241C118.753 308.835 117.963 306.927 117.963 304.938V291.147C117.963 289.158 118.753 287.25 120.16 285.844C121.566 284.437 123.474 283.647 125.463 283.647C127.452 283.647 129.36 284.437 130.766 285.844C132.173 287.25 132.963 289.158 132.963 291.147V304.938C132.963 306.927 132.173 308.835 130.766 310.241C129.36 311.648 127.452 312.438 125.463 312.438Z" fill="#4E5660"/>
<path d="M297.229 312.438C295.24 312.438 293.332 311.648 291.926 310.241C290.519 308.835 289.729 306.927 289.729 304.938V291.147C289.729 289.158 290.519 287.25 291.926 285.844C293.332 284.437 295.24 283.647 297.229 283.647C299.218 283.647 301.126 284.437 302.532 285.844C303.939 287.25 304.729 289.158 304.729 291.147V304.938C304.729 306.927 303.939 308.835 302.532 310.241C301.126 311.648 299.218 312.438 297.229 312.438Z" fill="#4E5660"/>
<path d="M211.346 123.475C369.508 123.475 413.7 233.041 381.439 273.362C369.839 244.962 291.01 183.232 217.694 219.516C215.72 220.494 213.547 221.003 211.344 221.003C209.141 221.003 206.968 220.494 204.994 219.516C131.678 183.232 52.8449 244.965 41.2489 273.362C8.99294 233.041 53.1839 123.475 211.346 123.475Z" fill="#4E5660"/>
<path d="M391.322 47C324.673 47 270.644 68.012 270.644 122.644C270.644 149.473 283.679 168.191 304.835 180.297C305.626 180.75 306.267 181.423 306.681 182.235C307.095 183.046 307.263 183.961 307.165 184.867C305.739 197.07 303.375 209.144 300.094 220.984C299.669 222.517 299.676 224.139 300.115 225.668C300.554 227.198 301.408 228.576 302.582 229.65C303.757 230.724 305.205 231.452 306.768 231.753C308.33 232.054 309.946 231.917 311.435 231.357C325.766 225.89 341.289 213.809 352.816 198.07C353.315 197.397 353.985 196.871 354.756 196.546C355.528 196.221 356.372 196.108 357.202 196.221C368.52 197.638 379.916 198.329 391.322 198.289C457.97 198.288 512 177.276 512 122.644C512 68.012 457.97 47 391.322 47Z" fill="#CDE9FA"/>
<path d="M338.452 52.397C298.304 61.682 270.643 83.557 270.643 122.644C270.643 149.473 283.678 168.191 304.834 180.297C305.625 180.75 306.266 181.423 306.68 182.235C307.094 183.046 307.262 183.961 307.164 184.867C305.738 197.07 303.374 209.144 300.093 220.984C299.668 222.517 299.675 224.139 300.114 225.668C300.553 227.198 301.407 228.576 302.581 229.65C303.756 230.724 305.204 231.452 306.767 231.753C308.329 232.054 309.945 231.917 311.434 231.357C325.765 225.89 341.288 213.809 352.815 198.07C353.314 197.397 353.984 196.871 354.755 196.546C355.527 196.221 356.371 196.108 357.201 196.221C368.519 197.638 379.915 198.329 391.321 198.289C398.121 198.289 404.778 198.066 411.267 197.616C312.03 182.741 316.733 86.016 338.452 52.397Z" fill="#A2DDFD"/>
<path d="M435.106 110.308H347.528C345.539 110.308 343.631 109.518 342.225 108.111C340.818 106.705 340.028 104.797 340.028 102.808C340.028 100.819 340.818 98.9112 342.225 97.5047C343.631 96.0982 345.539 95.308 347.528 95.308H435.106C437.095 95.308 439.003 96.0982 440.409 97.5047C441.816 98.9112 442.606 100.819 442.606 102.808C442.606 104.797 441.816 106.705 440.409 108.111C439.003 109.518 437.095 110.308 435.106 110.308Z" fill="#4E5660"/>
<path d="M420.79 149.982H361.845C359.856 149.982 357.948 149.192 356.542 147.785C355.135 146.379 354.345 144.471 354.345 142.482C354.345 140.493 355.135 138.585 356.542 137.179C357.948 135.772 359.856 134.982 361.845 134.982H420.79C422.779 134.982 424.687 135.772 426.093 137.179C427.5 138.585 428.29 140.493 428.29 142.482C428.29 144.471 427.5 146.379 426.093 147.785C424.687 149.192 422.779 149.982 420.79 149.982Z" fill="#4E5660"/>
</svg>
