<svg width="512" height="512" viewBox="0 0 512 512" fill="none" xmlns="http://www.w3.org/2000/svg">
<path d="M369.59 214.328H316.641V187.238H369.59V156.338H316.641V129.248H369.59V98.34H316.641V31.74H285.734V98.34H258.644V31.74H227.738V98.34H200.648V31.74H169.742V98.34H115.042V129.246H169.742V156.336H115.042V187.236H169.742V214.326H115.042V245.232H169.742V311.832H200.648V245.232H227.738V311.832H258.644V245.232H285.734V311.832H316.64V245.232H369.59V214.328ZM227.738 214.328H200.648V187.238H227.738V214.328ZM227.738 156.336H200.648V129.246H227.738V156.336ZM285.738 214.328H258.648V187.238H285.738V214.328ZM285.738 156.336H258.648V129.246H285.738V156.336Z" fill="#C2EAFB"/>
<path d="M310.594 292.965C281.856 313.028 264.805 342.41 255.047 366.078C254.087 368.435 252.447 370.453 250.335 371.873C248.224 373.294 245.736 374.052 243.191 374.052C240.646 374.052 238.159 373.294 236.047 371.873C233.936 370.453 232.295 368.435 231.336 366.078C221.578 342.41 204.527 313.027 175.789 292.965C173.695 292.965 148.797 306.391 148.797 306.391C148.797 306.391 207.578 352.852 207.578 404.157V476.387C207.578 485.832 211.33 494.891 218.009 501.57C224.688 508.248 233.746 512 243.191 512C252.637 512 261.695 508.248 268.374 501.57C275.053 494.891 278.805 485.832 278.805 476.387V404.157C278.805 352.857 337.567 306.407 337.567 306.407C337.567 306.407 312.684 292.965 310.594 292.965Z" fill="#59C2E8"/>
<path d="M242.484 417.234C245.484 387.32 254.261 367.679 254.261 367.679C253.065 369.755 251.308 371.454 249.193 372.58C247.078 373.706 244.688 374.215 242.298 374.048C239.907 373.881 237.611 373.045 235.673 371.636C233.734 370.227 232.231 368.302 231.335 366.079C221.573 342.407 204.526 313.024 175.788 292.962C173.694 292.962 148.796 306.388 148.796 306.388C148.796 306.388 207.577 352.849 207.577 404.154V476.384C207.577 482.699 209.257 488.9 212.443 494.351C215.629 499.803 220.207 504.31 225.708 507.41C231.21 510.51 237.436 512.092 243.75 511.993C250.064 511.895 256.238 510.119 261.64 506.849C244.215 486.184 239.785 444.125 242.484 417.234Z" fill="#00AEDE"/>
<path d="M243.191 40.57C304.738 40.57 354.808 99.394 354.808 171.695C354.808 243.996 304.738 302.824 243.191 302.824C181.644 302.824 131.574 244 131.574 171.7C131.574 99.4 181.645 40.57 243.191 40.57ZM243.191 0C159.141 0 91 76.871 91 171.7C91 266.529 159.141 343.4 243.191 343.4C327.241 343.4 395.379 266.529 395.379 171.7C395.379 76.871 327.242 0 243.191 0Z" fill="#91D4F2"/>
<path d="M207.578 417.234V476.386C207.578 485.831 211.33 494.89 218.009 501.569C224.688 508.247 233.746 512 243.192 512C252.637 512 261.695 508.247 268.374 501.569C275.053 494.89 278.805 485.831 278.805 476.386V417.234H207.578Z" fill="#6A829A"/>
<path d="M207.578 417.234V476.386C207.58 482.7 209.259 488.901 212.446 494.352C215.632 499.804 220.21 504.311 225.711 507.411C231.211 510.511 237.437 512.093 243.751 511.996C250.065 511.898 256.239 510.124 261.641 506.855C244.215 486.183 239.786 444.128 242.485 417.234H207.578Z" fill="#516980"/>
<path d="M420.379 435.184C420.379 450.376 415.873 465.227 407.432 477.859C398.992 490.491 386.995 500.336 372.959 506.15C358.923 511.963 343.478 513.484 328.577 510.52C313.677 507.555 299.99 500.239 289.248 489.496C278.506 478.753 271.19 465.066 268.227 450.166C265.263 435.265 266.785 419.82 272.599 405.785C278.413 391.749 288.259 379.752 300.891 371.312C313.523 362.872 328.375 358.368 343.567 358.368C353.654 358.368 363.643 360.355 372.962 364.216C382.282 368.076 390.749 373.735 397.882 380.868C405.015 388.001 410.673 396.469 414.533 405.788C418.393 415.108 420.379 425.097 420.379 435.184Z" fill="#73DA8C"/>
<path d="M396.148 379.188C392.123 375.408 387.705 372.069 382.968 369.231C378.277 372.538 374.355 376.817 371.468 381.778C366.214 391.04 365.433 401.878 369.152 413.993C372.922 426.282 372.285 436.333 367.312 443.059C362.628 449.399 353.972 453.036 343.57 453.036C333.168 453.036 324.511 449.399 319.828 443.059C314.851 436.332 314.219 426.282 317.984 413.993C321.703 401.88 320.925 391.04 315.668 381.778C312.783 376.816 308.86 372.537 304.168 369.231C299.432 372.07 295.014 375.408 290.988 379.188C294.871 381.239 299.465 384.52 302.234 389.399C305.351 394.899 305.672 401.458 303.218 409.458C296.566 431.142 301.818 444.692 307.402 452.247C315.031 462.567 328.215 468.485 343.574 468.485C358.933 468.485 372.113 462.567 379.742 452.247C385.324 444.692 390.578 431.142 383.926 409.458C381.516 401.606 381.836 394.888 384.867 389.481C387.625 384.555 392.246 381.25 396.148 379.188Z" fill="#FCF5AF"/>
</svg>
