<svg width="512" height="512" viewBox="0 0 512 512" fill="none" xmlns="http://www.w3.org/2000/svg">
<path d="M71.34 512C71.2326 490.099 75.4534 468.393 83.7601 448.128C92.0669 427.863 104.296 409.44 119.744 393.915C135.193 378.391 153.556 366.072 173.78 357.666C194.004 349.26 215.689 344.933 237.59 344.933C259.491 344.933 281.176 349.26 301.4 357.666C321.624 366.072 339.987 378.391 355.436 393.915C370.884 409.44 383.113 427.863 391.42 448.128C399.727 468.393 403.947 490.099 403.84 512H71.34Z" fill="#EDEBED"/>
<path d="M263.344 347.734C239.625 344.034 215.385 345.51 192.291 352.063C169.196 358.616 147.793 370.089 129.552 385.695C111.31 401.301 96.6624 420.671 86.6141 442.473C76.5659 464.275 71.3552 487.994 71.34 512H122.848C122.851 472.37 137.007 434.043 162.766 403.926C188.525 373.809 224.193 353.882 263.344 347.734Z" fill="#DBD9DC"/>
<path d="M255.355 483.672H219.813C218.104 483.671 216.465 482.992 215.256 481.784C214.048 480.575 213.369 478.936 213.368 477.227V422.817C213.369 421.108 214.048 419.469 215.256 418.26C216.465 417.052 218.104 416.373 219.813 416.372H255.356C256.202 416.372 257.041 416.538 257.823 416.862C258.605 417.186 259.315 417.661 259.914 418.259C260.512 418.858 260.987 419.568 261.311 420.35C261.634 421.132 261.801 421.971 261.801 422.817V477.227C261.8 478.936 261.121 480.575 259.912 481.784C258.704 482.993 257.064 483.672 255.355 483.672Z" fill="#DBD9DC"/>
<path d="M237.59 303.73H177.98V356.765L237.589 416.37L297.2 356.766V303.73H237.59Z" fill="#F7D291"/>
<path d="M257.137 435.926L237.586 416.371L305.637 348.32L325.188 367.871C326.277 368.959 327.14 370.251 327.729 371.673C328.318 373.095 328.622 374.619 328.622 376.158C328.622 377.697 328.318 379.221 327.729 380.643C327.14 382.065 326.277 383.357 325.188 384.445L273.711 435.925C271.513 438.122 268.532 439.356 265.424 439.356C262.316 439.356 259.336 438.123 257.137 435.926Z" fill="#8CB4EB"/>
<path d="M327.832 371.945C327.246 370.417 326.344 369.029 325.187 367.871L305.637 348.32L261.844 392.109C284.852 389.309 307.188 382.483 327.832 371.945Z" fill="#739BD7"/>
<path d="M218.031 435.926L237.586 416.371L169.531 348.32L149.98 367.871C148.891 368.959 148.028 370.251 147.439 371.673C146.85 373.095 146.546 374.619 146.546 376.158C146.546 377.697 146.85 379.221 147.439 380.643C148.028 382.065 148.891 383.357 149.98 384.445L201.457 435.925C203.655 438.122 206.636 439.356 209.744 439.356C212.852 439.356 215.832 438.123 218.031 435.926Z" fill="#8CB4EB"/>
<path d="M213.32 392.109L169.531 348.32L149.98 367.871C148.825 369.028 147.925 370.415 147.339 371.941C167.98 382.481 190.314 389.307 213.32 392.109Z" fill="#739BD7"/>
<path d="M177.98 303.73V356.765L213.324 392.109C229.441 394.083 245.738 394.083 261.855 392.109L297.2 356.766V303.73H177.98Z" fill="#F0C382"/>
<path d="M443.18 204C443.181 211.003 441.106 217.849 437.216 223.672C433.326 229.495 427.797 234.034 421.328 236.715C414.858 239.396 407.739 240.098 400.871 238.732C394.002 237.367 387.693 233.996 382.741 229.044C377.788 224.093 374.416 217.784 373.049 210.916C371.682 204.048 372.383 196.929 375.062 190.459C377.742 183.989 382.28 178.459 388.102 174.568C393.925 170.677 400.77 168.6 407.773 168.6C412.422 168.599 417.026 169.514 421.322 171.293C425.618 173.071 429.521 175.679 432.809 178.966C436.097 182.253 438.705 186.156 440.485 190.451C442.264 194.747 443.18 199.351 443.18 204Z" fill="#F7D291"/>
<path d="M102.813 204C102.814 211.003 100.739 217.849 96.849 223.672C92.9593 229.495 87.4301 234.034 80.9607 236.715C74.4912 239.396 67.3721 240.098 60.5037 238.732C53.6352 237.367 47.3259 233.996 42.3736 229.044C37.4214 224.093 34.0486 217.784 32.6819 210.916C31.3151 204.048 32.0158 196.929 34.6953 190.459C37.3747 183.989 41.9126 178.459 47.7351 174.568C53.5576 170.677 60.4031 168.6 67.406 168.6C72.0554 168.599 76.6594 169.514 80.9551 171.293C85.2509 173.071 89.1542 175.679 92.4421 178.966C95.73 182.253 98.3382 186.156 100.118 190.451C101.897 194.747 102.813 199.351 102.813 204Z" fill="#F0C382"/>
<path d="M416.2 194.063C416.2 229.388 405.724 263.921 386.099 293.292C366.473 322.664 338.578 345.557 305.941 359.075C273.305 372.594 237.393 376.131 202.746 369.239C168.099 362.347 136.274 345.336 111.295 320.358C86.3165 295.379 69.3057 263.554 62.414 228.907C55.5223 194.26 59.0592 158.348 72.5776 125.712C86.096 93.0753 108.989 65.1804 138.361 45.5545C167.732 25.9286 202.265 15.4532 237.59 15.453C284.96 15.453 330.39 34.2708 363.886 67.7667C397.382 101.263 416.2 146.693 416.2 194.063Z" fill="#FFE1A0"/>
<path d="M110.488 194.063C110.492 151.155 125.939 109.681 154.006 77.2259C182.074 44.7706 220.885 23.502 263.344 17.309C239.057 13.7716 214.302 15.2773 190.624 21.7322C166.945 28.1871 144.85 39.4527 125.719 54.826C106.587 70.1992 90.8294 89.3503 79.4282 111.084C68.027 132.818 61.2273 156.669 59.4533 181.147C57.6792 205.626 60.969 230.208 69.1173 253.358C77.2656 276.509 90.0975 297.732 106.812 315.703C123.527 333.674 143.767 348.008 166.267 357.81C188.768 367.611 213.047 372.671 237.59 372.672C246.208 372.671 254.815 372.051 263.344 370.817C176.906 358.328 110.488 283.957 110.488 194.063Z" fill="#F7D291"/>
<path d="M413.586 224.527C416.741 206.254 417.041 187.603 414.477 169.238C420.53 170.403 426.173 173.133 430.844 177.156L430.907 176.98C422.23 77.941 338.84 0 237.59 0C136.371 0 53 77.891 44.281 176.883L44.371 177.125C49.0347 173.115 54.6667 170.396 60.707 169.238C58.1384 187.602 58.4376 206.254 61.594 224.527C72.5259 224.527 83.0099 220.184 90.7399 212.454C98.4699 204.724 102.813 194.24 102.813 183.308V140.66C102.813 137.743 103.972 134.945 106.035 132.882C108.098 130.819 110.896 129.66 113.813 129.66H361.371C364.288 129.66 367.086 130.819 369.149 132.882C371.212 134.945 372.371 137.743 372.371 140.66V183.308C372.37 188.721 373.435 194.081 375.506 199.082C377.577 204.083 380.613 208.627 384.44 212.455C388.267 216.283 392.811 219.319 397.812 221.39C402.813 223.462 408.173 224.528 413.586 224.527Z" fill="#B67F5F"/>
<path d="M113.813 129.66C137.25 63.23 195.875 13.258 267.2 2.266C257.402 0.758026 247.503 0.000490532 237.59 0C136.371 0 53 77.891 44.281 176.883L44.371 177.125C49.0347 173.115 54.6667 170.396 60.707 169.238C58.1384 187.602 58.4376 206.254 61.594 224.527C72.5259 224.527 83.0099 220.184 90.7399 212.454C98.4699 204.724 102.813 194.24 102.813 183.308V140.66C102.813 137.743 103.972 134.945 106.035 132.882C108.098 130.819 110.896 129.66 113.813 129.66Z" fill="#A06E50"/>
<path d="M48.652 151.367H426.527C427.807 151.369 429.071 151.075 430.218 150.508C431.366 149.94 432.366 149.114 433.141 148.095C433.916 147.076 434.445 145.891 434.685 144.634C434.926 143.376 434.871 142.08 434.527 140.847C427.683 116.925 416.292 94.5465 400.976 74.937C400.198 73.9317 399.2 73.1174 398.06 72.5562C396.919 71.9951 395.665 71.7019 394.394 71.699H80.785C79.5132 71.7015 78.2587 71.9947 77.1175 72.556C75.9762 73.1174 74.9783 73.9321 74.2 74.938C58.887 94.5487 47.4969 116.927 40.653 140.848C40.3079 142.081 40.2533 143.377 40.4934 144.635C40.7335 145.892 41.2618 147.077 42.0368 148.097C42.8118 149.116 43.8125 149.941 44.9602 150.509C46.108 151.076 47.3716 151.37 48.652 151.367Z" fill="#8CB4EB"/>
<path d="M92.164 140.848C99.0077 116.926 110.399 94.5475 125.715 74.938C126.492 73.9328 127.489 73.1185 128.629 72.5573C129.769 71.9961 131.022 71.7029 132.293 71.7H80.785C79.5132 71.7024 78.2589 71.9954 77.1176 72.5566C75.9763 73.1178 74.9784 73.9323 74.2 74.938C58.887 94.5486 47.4969 116.927 40.653 140.848C40.3077 142.081 40.253 143.378 40.4931 144.635C40.7331 145.893 41.2615 147.078 42.0366 148.098C42.8118 149.117 43.8126 149.943 44.9606 150.51C46.1086 151.078 47.3724 151.371 48.653 151.368H100.16C98.8799 151.37 97.6167 151.076 96.4695 150.508C95.3222 149.94 94.3221 149.114 93.5475 148.095C92.7728 147.076 92.2448 145.891 92.0048 144.634C91.7648 143.377 91.8193 142.081 92.164 140.848Z" fill="#739BD7"/>
<path d="M396.027 119.031H79.977C77.9879 119.031 76.0802 118.241 74.6737 116.834C73.2672 115.428 72.477 113.52 72.477 111.531C72.477 109.542 73.2672 107.634 74.6737 106.228C76.0802 104.821 77.9879 104.031 79.977 104.031H396.027C398.016 104.031 399.924 104.821 401.33 106.228C402.737 107.634 403.527 109.542 403.527 111.531C403.527 113.52 402.737 115.428 401.33 116.834C399.924 118.241 398.016 119.031 396.027 119.031Z" fill="#739BD7"/>
<path d="M237.59 259.266C232.77 259.258 228.037 257.982 223.866 255.567C219.695 253.153 216.232 249.683 213.824 245.508C213.309 244.653 212.969 243.705 212.826 242.717C212.682 241.73 212.737 240.724 212.986 239.757C213.236 238.791 213.677 237.885 214.281 237.091C214.886 236.298 215.643 235.632 216.508 235.135C217.373 234.637 218.329 234.318 219.319 234.194C220.309 234.07 221.314 234.146 222.275 234.415C223.235 234.685 224.132 235.144 224.914 235.765C225.695 236.386 226.344 237.156 226.824 238.031C227.91 239.925 229.478 241.499 231.367 242.594C233.257 243.688 235.402 244.265 237.585 244.265C239.769 244.265 241.914 243.688 243.804 242.594C245.693 241.499 247.261 239.925 248.347 238.031C249.36 236.35 250.992 235.133 252.892 234.642C254.792 234.15 256.808 234.423 258.51 235.401C260.211 236.38 261.461 237.986 261.991 239.876C262.522 241.765 262.29 243.787 261.347 245.508C258.94 249.682 255.479 253.15 251.309 255.565C247.139 257.98 242.408 259.256 237.59 259.266Z" fill="#5A4650"/>
<path d="M303.2 229.1C301.211 229.1 299.303 228.31 297.897 226.903C296.49 225.497 295.7 223.589 295.7 221.6V209.9C295.7 207.911 296.49 206.003 297.897 204.597C299.303 203.19 301.211 202.4 303.2 202.4C305.189 202.4 307.097 203.19 308.503 204.597C309.91 206.003 310.7 207.911 310.7 209.9V221.6C310.7 223.589 309.91 225.497 308.503 226.903C307.097 228.31 305.189 229.1 303.2 229.1Z" fill="#5A4650"/>
<path d="M171.98 229.1C169.991 229.1 168.083 228.31 166.677 226.903C165.27 225.497 164.48 223.589 164.48 221.6V209.9C164.48 207.911 165.27 206.003 166.677 204.597C168.083 203.19 169.991 202.4 171.98 202.4C173.969 202.4 175.877 203.19 177.283 204.597C178.69 206.003 179.48 207.911 179.48 209.9V221.6C179.48 223.589 178.69 225.497 177.283 226.903C175.877 228.31 173.969 229.1 171.98 229.1Z" fill="#5A4650"/>
<path d="M309.051 251.215H297.351C295.362 251.215 293.454 250.425 292.048 249.018C290.641 247.612 289.851 245.704 289.851 243.715C289.851 241.726 290.641 239.818 292.048 238.412C293.454 237.005 295.362 236.215 297.351 236.215H309.051C311.04 236.215 312.948 237.005 314.354 238.412C315.761 239.818 316.551 241.726 316.551 243.715C316.551 245.704 315.761 247.612 314.354 249.018C312.948 250.425 311.04 251.215 309.051 251.215Z" fill="#E6646E"/>
<path d="M177.828 251.215H166.128C164.139 251.215 162.231 250.425 160.825 249.018C159.418 247.612 158.628 245.704 158.628 243.715C158.628 241.726 159.418 239.818 160.825 238.412C162.231 237.005 164.139 236.215 166.128 236.215H177.828C179.817 236.215 181.725 237.005 183.131 238.412C184.538 239.818 185.328 241.726 185.328 243.715C185.328 245.704 184.538 247.612 183.131 249.018C181.725 250.425 179.817 251.215 177.828 251.215Z" fill="#E6646E"/>
<path d="M467.734 335.264C479.647 347.181 488.233 362.01 492.635 378.275C497.038 394.54 497.105 411.675 492.83 427.974C488.554 444.273 480.085 459.169 468.266 471.179C456.446 483.189 441.687 491.894 425.458 496.429C409.229 500.964 392.096 501.17 375.762 497.027C359.429 492.884 344.465 484.537 332.36 472.815C320.254 461.093 311.429 446.406 306.762 430.214C302.096 414.023 301.75 396.892 305.76 380.525C306.237 378.571 308.688 378.025 309.289 376.1C310.078 373.567 309.063 369.661 310.066 367.187C314.923 355.269 322.107 344.438 331.199 335.329C340.29 326.22 351.107 319.015 363.016 314.135C365.116 313.279 369.393 314.407 371.536 313.706C373.679 313.005 373.688 310.472 375.867 309.924C392.064 305.843 409.042 306.032 425.144 310.474C441.246 314.915 455.921 323.456 467.735 335.264H467.734Z" fill="#5FD9B3"/>
<path d="M402.951 310.451C404.051 309.351 405.164 308.288 406.29 307.238C396.07 306.52 385.802 307.426 375.866 309.923C373.766 310.45 373.598 313.036 371.535 313.705C369.308 314.428 365.195 313.246 363.015 314.134C351.135 319.002 340.342 326.184 331.264 335.263C322.185 344.341 315.003 355.134 310.135 367.014C309.165 369.394 310.355 371.898 309.582 374.333C308.992 376.193 306.398 377.975 305.923 379.861C302.189 394.656 302.015 410.126 305.418 425.001C308.82 439.877 315.701 453.733 325.495 465.434C335.29 477.135 347.719 486.347 361.763 492.314C375.808 498.281 391.066 500.833 406.288 499.761C405.163 498.711 404.046 497.645 402.949 496.548C390.729 484.329 381.036 469.822 374.423 453.856C367.81 437.891 364.406 420.779 364.406 403.498C364.406 386.217 367.81 369.105 374.423 353.14C381.036 337.174 390.729 322.667 402.949 310.448L402.951 310.451Z" fill="#00CE8E"/>
<path d="M412.368 337.28C405.126 335.944 398.453 332.459 393.217 327.28L375.866 309.923C371.489 311.024 367.195 312.431 363.016 314.135L384.686 335.807C391.625 342.694 400.475 347.334 410.086 349.125C419.941 351.048 429.087 355.615 436.547 362.336C444.007 369.056 449.499 377.679 452.436 387.28C455.373 396.882 455.645 407.101 453.222 416.845C450.799 426.589 445.772 435.491 438.68 442.599C431.588 449.706 422.697 454.752 412.958 457.196C403.219 459.64 392.999 459.39 383.391 456.474C373.784 453.557 365.149 448.084 358.412 440.638C351.676 433.193 347.09 424.057 345.145 414.206C343.348 404.557 338.701 395.667 331.804 388.683L310.136 367.015C308.432 371.193 307.025 375.486 305.925 379.862L323.275 397.212C328.472 402.499 331.967 409.221 333.308 416.512C335.671 428.511 341.253 439.641 349.456 448.712C357.658 457.783 368.173 464.452 379.874 468.007C391.576 471.562 404.024 471.867 415.886 468.892C427.748 465.916 438.577 459.771 447.215 451.114C455.854 442.457 461.975 431.615 464.925 419.746C467.875 407.878 467.542 395.431 463.962 383.737C460.383 372.043 453.69 361.543 444.602 353.36C435.513 345.177 424.371 339.62 412.367 337.282L412.368 337.28Z" fill="#EFEDFF"/>
</svg>
