<svg width="544" height="512" viewBox="0 0 544 512" fill="none" xmlns="http://www.w3.org/2000/svg">
<path d="M437 15H177C161.087 15 145.826 21.3214 134.574 32.5736C123.321 43.8258 117 59.087 117 75V452C117 467.913 123.321 483.174 134.574 494.426C145.826 505.679 161.087 512 177 512H437C452.913 512 468.174 505.679 479.426 494.426C490.679 483.174 497 467.913 497 452V75C497 59.087 490.679 43.8258 479.426 32.5736C468.174 21.3214 452.913 15 437 15V15Z" fill="#1C5599"/>
<path d="M227 392V135C227 103.174 239.643 72.6516 262.147 50.1472C284.652 27.6428 315.174 15 347 15L177 15C161.087 15 145.826 21.3214 134.574 32.5736C123.321 43.8258 117 59.087 117 75V452C117 467.913 123.321 483.174 134.574 494.426C145.826 505.679 161.087 512 177 512H347C315.174 512 284.652 499.357 262.147 476.853C239.643 454.348 227 423.826 227 392Z" fill="#00388B"/>
<path d="M180 75V452H437V75H180Z" fill="#EBF3FF"/>
<path d="M227 392V135C226.968 113.934 232.508 93.234 243.058 75H180V452H243.058C232.508 433.766 226.968 413.066 227 392Z" fill="#C1D3F7"/>
<path d="M382.509 324.5C399.077 324.5 412.509 311.069 412.509 294.5C412.509 277.931 399.077 264.5 382.509 264.5C365.94 264.5 352.509 277.931 352.509 294.5C352.509 311.069 365.94 324.5 382.509 324.5Z" fill="#976BCF"/>
<path d="M382.509 404.5C399.077 404.5 412.509 391.069 412.509 374.5C412.509 357.931 399.077 344.5 382.509 344.5C365.94 344.5 352.509 357.931 352.509 374.5C352.509 391.069 365.94 404.5 382.509 404.5Z" fill="#53A3EC"/>
<path d="M308.5 364.5C325.069 364.5 338.5 351.069 338.5 334.5C338.5 317.931 325.069 304.5 308.5 304.5C291.931 304.5 278.5 317.931 278.5 334.5C278.5 351.069 291.931 364.5 308.5 364.5Z" fill="#FFCE71"/>
<path d="M310 60C318.284 60 325 53.2843 325 45C325 36.7157 318.284 30 310 30C301.716 30 295 36.7157 295 45C295 53.2843 301.716 60 310 60Z" fill="#00388B"/>
<path d="M409.862 129.988C407.183 127.006 403.937 124.589 400.312 122.879C396.687 121.168 392.757 120.198 388.753 120.026C380.442 119.675 373.043 125.763 372.539 134.065C372.413 136.083 372.695 138.105 373.37 140.011C374.045 141.917 375.098 143.666 376.466 145.155C377.835 146.643 379.49 147.84 381.332 148.672C383.174 149.505 385.166 149.957 387.187 150C387.165 150 387.141 150 387.117 150H306.223C290.664 150 277.245 161.618 275.767 177.107C275.4 181.168 275.859 185.262 277.118 189.141C278.376 193.02 280.408 196.603 283.089 199.676C285.771 202.748 289.047 205.245 292.72 207.016C296.393 208.787 300.387 209.796 304.461 209.981C273.146 209.981 255.29 209.973 245.007 209.974C241.025 209.976 237.206 211.56 234.392 214.377C231.578 217.194 229.998 221.014 230 224.997C230.002 228.979 231.585 232.797 234.403 235.612C237.22 238.426 241.04 240.006 245.022 240.004C339.882 240.004 320.272 240.004 347.344 240.004C355.211 239.92 362.731 236.749 368.282 231.174C373.834 225.599 376.973 218.066 377.023 210.198C377.074 202.331 374.031 194.758 368.552 189.112C363.073 183.466 355.595 180.199 347.729 180.014L387.118 180.004C392.944 180.081 398.666 178.459 403.586 175.338C408.506 172.216 412.41 167.73 414.822 162.426C417.234 157.122 418.05 151.231 417.169 145.471C416.288 139.712 413.749 134.333 409.862 129.993V129.988Z" fill="#976BCF"/>
<path d="M150 297.667C142.044 297.667 134.413 300.828 128.787 306.454C123.161 312.08 120 319.71 120 327.667C120 319.71 116.839 312.08 111.213 306.454C105.587 300.828 97.9565 297.667 90 297.667C82.0435 297.667 74.4129 300.828 68.7868 306.454C63.1607 312.08 60 319.71 60 327.667C60 323.656 59.1958 319.687 57.635 315.992C56.0742 312.298 53.7885 308.954 50.913 306.158C48.0375 303.362 44.6306 301.171 40.8938 299.715C37.1569 298.259 33.166 297.566 29.157 297.679C12.817 298.126 0 311.944 0 328.291V482C0 489.956 3.16071 497.587 8.7868 503.213C14.4129 508.839 22.0435 512 30 512H120L180 327.667C180 319.71 176.839 312.08 171.213 306.454C165.587 300.828 157.956 297.667 150 297.667Z" fill="#C8866A"/>
<path d="M240 357.667V247.667C240 239.711 236.839 232.08 231.213 226.454C225.587 220.828 217.956 217.667 210 217.667C202.044 217.667 194.413 220.828 188.787 226.454C183.161 232.08 180 239.711 180 247.667V327.667C161.025 345.957 145.932 367.885 135.623 392.14C125.313 416.395 120 442.48 120 468.835V512H270V387.667C270 379.71 266.839 372.08 261.213 366.454C255.587 360.828 247.956 357.667 240 357.667Z" fill="#DB9E82"/>
</svg>
