<svg width="521" height="512" viewBox="0 0 521 512" fill="none" xmlns="http://www.w3.org/2000/svg">
<path d="M496.369 39.147L509.853 52.631C513.071 55.8482 515.624 59.6677 517.365 63.8714C519.107 68.0752 520.003 72.5808 520.003 77.131C520.003 81.6812 519.107 86.1868 517.365 90.3906C515.624 94.5943 513.071 98.4138 509.853 101.631L347.429 264.051L284.949 201.571L447.373 39.147C450.591 35.9295 454.41 33.3772 458.614 31.6358C462.818 29.8945 467.323 28.9983 471.873 28.9983C476.424 28.9983 480.929 29.8945 485.133 31.6358C489.337 33.3772 493.156 35.9295 496.373 39.147H496.369Z" fill="#E1B89A"/>
<path d="M362.722 123.8L284.95 201.57L347.43 264.05L384.671 226.809C368.754 201.943 358.5 155.837 362.722 123.8Z" fill="#DA9B85"/>
<path d="M172.073 233.527C202.042 203.558 253.03 216.773 292.629 256.372C332.228 295.971 345.443 346.959 315.474 376.928C298.728 393.674 258.633 430.995 242.799 467.358C241.301 470.792 239.115 473.881 236.375 476.436C233.635 478.99 230.4 480.955 226.87 482.208C223.34 483.461 219.59 483.975 215.853 483.72C212.115 483.465 208.47 482.445 205.144 480.723C178.857 467.154 151.319 446.187 127.067 421.935C102.815 397.683 81.8475 370.144 68.2785 343.858C66.5564 340.531 65.5358 336.886 65.2801 333.148C65.0244 329.411 65.539 325.66 66.792 322.13C68.045 318.599 70.0098 315.364 72.5644 312.623C75.1191 309.883 78.2093 307.697 81.6435 306.2C118.006 290.364 155.327 250.27 172.073 233.524V233.527Z" fill="#F7EF87"/>
<path d="M165.749 239.918C147.036 258.892 113.968 292.126 81.6433 306.202C78.2096 307.699 75.1199 309.885 72.5656 312.625C70.0112 315.365 68.0467 318.601 66.7938 322.131C65.5408 325.661 65.0261 329.411 65.2814 333.148C65.5368 336.885 66.5568 340.53 68.2783 343.857C81.8473 370.143 102.814 397.682 127.066 421.934C143.821 438.787 162.224 453.915 182 467.092C136.6 409.246 139.075 313.745 165.745 239.918H165.749Z" fill="#F1D88C"/>
<path d="M191.263 410.087C178.952 422.349 168.914 436.697 161.613 452.464C165.695 455.636 169.8 458.678 173.93 461.59C180.603 446.329 190.08 432.456 201.87 420.69C202.571 419.995 203.128 419.168 203.509 418.256C203.89 417.345 204.087 416.368 204.089 415.38C204.091 414.392 203.898 413.414 203.521 412.501C203.144 411.588 202.591 410.759 201.892 410.06C201.194 409.362 200.364 408.808 199.451 408.431C198.539 408.054 197.56 407.862 196.572 407.864C195.585 407.866 194.607 408.063 193.696 408.444C192.785 408.825 191.958 409.383 191.263 410.084V410.087Z" fill="#F1D88C"/>
<path d="M96.5365 387.388C112.304 380.087 126.652 370.048 138.914 357.738C139.616 357.043 140.173 356.216 140.554 355.304C140.935 354.393 141.132 353.416 141.134 352.428C141.136 351.44 140.943 350.462 140.566 349.549C140.189 348.636 139.636 347.807 138.937 347.108C138.239 346.41 137.409 345.856 136.496 345.479C135.583 345.102 134.605 344.91 133.617 344.912C132.63 344.914 131.652 345.111 130.741 345.492C129.83 345.873 129.003 346.43 128.307 347.132C116.542 358.921 102.668 368.399 87.4075 375.072C90.3161 379.196 93.3581 383.301 96.5335 387.388H96.5365Z" fill="#F7EF87"/>
<path d="M316.893 197.739L351.261 232.107C358.269 239.115 362.206 248.62 362.206 258.531C362.206 268.443 358.269 277.948 351.261 284.956L317.895 318.322L230.677 231.1L264.043 197.734C271.051 190.726 280.556 186.789 290.468 186.789C300.379 186.789 309.884 190.726 316.893 197.734V197.739Z" fill="#F1AACB"/>
<path d="M298.962 250.038C260.182 211.258 206.29 201.083 173.014 224.458C171.91 225.223 170.988 226.222 170.311 227.382C169.634 228.543 169.22 229.837 169.098 231.175C168.976 232.513 169.148 233.861 169.603 235.125C170.058 236.389 170.785 237.538 171.731 238.491L310.51 377.269C311.463 378.216 312.612 378.942 313.876 379.397C315.14 379.852 316.489 380.025 317.826 379.902C319.164 379.78 320.459 379.366 321.619 378.689C322.78 378.013 323.778 377.09 324.543 375.986C347.917 342.71 337.742 288.817 298.962 250.038Z" fill="#F5C9D3"/>
<path d="M110.353 323.526C114.151 314.712 115.501 305.037 114.261 295.52C113.022 286.003 109.238 276.997 103.308 269.45C97.3792 261.904 89.5241 256.096 80.571 252.64C71.6178 249.183 61.898 248.205 52.4358 249.81C42.9735 251.414 34.1192 255.541 26.8058 261.755C19.4923 267.97 13.9906 276.042 10.8802 285.121C7.76982 294.201 7.16601 303.951 9.13239 313.345C11.0988 322.738 15.5625 331.428 22.0533 338.497C24.7725 341.403 26.6874 344.967 27.6092 348.839C28.5311 352.71 28.4281 356.755 27.3103 360.575C18.3813 390.075 39.9363 422.893 73.7153 422.893C82.6132 422.893 91.3388 420.44 98.9334 415.804C106.528 411.168 112.698 404.528 116.764 396.614C120.831 388.699 122.637 379.817 121.985 370.943C121.332 362.069 118.246 353.547 113.065 346.313C110.681 343.074 109.178 339.271 108.702 335.277C108.227 331.283 108.796 327.234 110.354 323.526H110.353Z" fill="#FBF1CF"/>
<path d="M110.157 209.528C131.097 209.528 148.074 192.552 148.074 171.611C148.074 150.67 131.097 133.694 110.157 133.694C89.2155 133.694 72.2395 150.67 72.2395 171.611C72.2395 192.552 89.2155 209.528 110.157 209.528Z" fill="#F7DFB7"/>
<path d="M104.658 411.7C61.0584 405.1 57.3074 361.79 70.0044 341.74C70.4502 341.033 70.7426 340.24 70.8628 339.413C70.9829 338.585 70.9281 337.742 70.7019 336.937C70.4757 336.132 70.0832 335.384 69.5496 334.74C69.016 334.097 68.3534 333.572 67.6044 333.201C37.0794 317.61 35.9394 263.157 52.2214 249.868C42.7837 251.504 33.9605 255.65 26.6788 261.873C19.3971 268.096 13.9256 276.165 10.8391 285.232C7.75253 294.3 7.16486 304.031 9.13781 313.404C11.1108 322.777 15.5715 331.446 22.0514 338.5C24.7703 341.407 26.685 344.971 27.6069 348.843C28.5287 352.715 28.4258 356.76 27.3084 360.58C18.3804 390.08 39.9354 422.896 73.7134 422.896C85.0226 422.91 95.9765 418.947 104.658 411.7Z" fill="#F7DFB7"/>
</svg>
