<svg width="522" height="512" viewBox="0 0 522 512" fill="none" xmlns="http://www.w3.org/2000/svg">
<path d="M225.279 97.2019L38.8264 150.666C17.5908 156.756 5.31226 178.907 11.4015 200.142L75.3221 423.06C81.4113 444.296 103.562 456.574 124.798 450.485L311.251 397.02C332.487 390.931 344.765 368.78 338.676 347.544L274.755 124.627C268.666 103.391 246.515 91.1127 225.279 97.2019Z" fill="#6989FF"/>
<path d="M385.57 83.737H132.594C110.502 83.737 92.5938 101.646 92.5938 123.737V423.077C92.5938 445.168 110.502 463.077 132.594 463.077H385.57C407.661 463.077 425.57 445.168 425.57 423.077V123.737C425.57 101.646 407.661 83.737 385.57 83.737Z" fill="#FF89CA"/>
<path d="M482.389 82.1124L231.875 46.9049C209.998 43.8304 189.772 59.0723 186.697 80.9487L145.037 377.376C141.963 399.252 157.205 419.479 179.081 422.553L429.595 457.761C451.471 460.835 471.698 445.593 474.773 423.717L516.433 127.29C519.507 105.414 504.265 85.1869 482.389 82.1124Z" fill="#83DEFF"/>
<path d="M350.084 268.146C349.559 273.832 351.145 279.512 354.54 284.103C357.936 288.694 362.902 291.875 368.492 293.039C374.082 294.203 379.905 293.268 384.851 290.413C389.796 287.558 393.517 282.983 395.305 277.56L395.748 276.198C404.917 248.325 432.948 230.098 459.753 218.15C464.247 216.147 468.27 213.223 471.562 209.567C474.854 205.91 477.342 201.603 478.864 196.925C480.386 192.246 480.909 187.3 480.399 182.407C479.889 177.513 478.357 172.781 475.902 168.518C473.448 164.254 470.125 160.553 466.149 157.654C462.174 154.756 457.634 152.724 452.824 151.691C448.013 150.658 443.04 150.647 438.225 151.658C433.41 152.669 428.861 154.68 424.872 157.56C420.846 161.841 356.203 201.828 350.084 268.146Z" fill="#55C8F2"/>
<path d="M395.603 182.073C376.133 201.026 353.577 230.294 350.085 268.146C349.56 273.832 351.146 279.512 354.541 284.103C357.937 288.694 362.903 291.875 368.493 293.039C374.083 294.203 379.906 293.268 384.851 290.413C389.797 287.558 393.518 282.983 395.306 277.56L395.749 276.198C403.358 253.067 423.961 236.583 446.068 224.815C432.72 206.912 415.459 192.293 395.603 182.074V182.073Z" fill="#4DC1EB"/>
<path d="M308.642 260.839C307.189 266.36 303.755 271.154 298.995 274.305C294.234 277.457 288.48 278.747 282.83 277.928C277.18 277.11 272.029 274.241 268.358 269.868C264.687 265.495 262.755 259.925 262.928 254.218L262.978 252.787C263.895 223.459 243.784 196.742 222.684 176.35C219.146 172.931 216.365 168.807 214.522 164.245C212.679 159.683 211.814 154.785 211.983 149.868C212.153 144.951 213.353 140.124 215.506 135.7C217.659 131.276 220.717 127.354 224.482 124.186C228.247 121.019 232.636 118.678 237.363 117.314C242.09 115.95 247.051 115.593 251.925 116.268C256.798 116.943 261.476 118.633 265.655 121.23C269.834 123.827 273.421 127.273 276.184 131.344C278.506 136.742 325.574 196.428 308.642 260.839Z" fill="#55C8F2"/>
<path d="M295.328 164.431C272.585 167.504 251.146 175.347 233.272 187.296C250.02 205.915 263.741 228.45 262.979 252.787L262.929 254.218C262.755 259.925 264.687 265.497 268.357 269.87C272.028 274.244 277.18 277.114 282.83 277.932C288.481 278.75 294.235 277.46 298.996 274.308C303.756 271.155 307.19 266.361 308.642 260.839C318.3 224.097 307.134 188.899 295.328 164.432V164.431Z" fill="#4DC1EB"/>
<path d="M445.675 306.074C436.163 360.021 376.775 382.901 310.545 371.223C244.315 359.545 196.333 317.732 205.849 263.785C215.365 209.838 276.76 175.572 342.987 187.249C409.214 198.926 455.187 252.126 445.675 306.074Z" fill="white"/>
<path d="M277.793 290.146C279.872 278.377 269.577 266.72 254.799 264.11C240.021 261.499 226.355 268.924 224.276 280.693C222.197 292.461 232.492 304.118 247.27 306.729C262.049 309.339 275.714 301.915 277.793 290.146Z" fill="#FF89CA"/>
<path d="M422.863 315.697C424.942 303.928 414.647 292.271 399.869 289.661C385.09 287.05 371.425 294.475 369.346 306.244C367.267 318.012 377.562 329.669 392.34 332.28C407.118 334.89 420.784 327.466 422.863 315.697Z" fill="#FF89CA"/>
<path d="M329.441 289.81C325.037 289.81 320.708 288.671 316.875 286.503C313.041 284.335 309.834 281.212 307.565 277.438C307.203 276.837 306.963 276.172 306.858 275.478C306.753 274.785 306.787 274.078 306.955 273.397C307.124 272.717 307.425 272.076 307.841 271.512C308.258 270.948 308.781 270.471 309.382 270.109C309.982 269.747 310.648 269.507 311.341 269.402C312.035 269.298 312.742 269.331 313.422 269.5C314.103 269.668 314.744 269.969 315.308 270.386C315.872 270.802 316.349 271.325 316.711 271.926C317.805 273.748 319.278 275.314 321.03 276.518C322.781 277.723 324.771 278.537 326.865 278.906C328.958 279.275 331.106 279.191 333.164 278.658C335.222 278.126 337.142 277.158 338.794 275.82C339.895 274.93 341.305 274.514 342.713 274.664C344.121 274.814 345.412 275.517 346.302 276.619C347.192 277.72 347.608 279.13 347.458 280.538C347.308 281.946 346.605 283.237 345.504 284.127C340.957 287.803 335.287 289.809 329.441 289.81Z" fill="#3E455B"/>
<path d="M398.18 294.96C397.867 294.96 397.554 294.932 397.246 294.878C396.555 294.756 395.895 294.5 395.304 294.123C394.712 293.746 394.201 293.257 393.799 292.682C393.397 292.108 393.111 291.46 392.96 290.775C392.808 290.09 392.793 289.383 392.915 288.692C393.085 287.793 393.075 286.869 392.885 285.974C392.695 285.078 392.33 284.23 391.81 283.477C391.289 282.724 390.625 282.082 389.855 281.588C389.084 281.094 388.224 280.757 387.322 280.599C386.421 280.44 385.497 280.461 384.604 280.662C383.712 280.863 382.868 281.239 382.121 281.769C381.375 282.299 380.741 282.971 380.257 283.748C379.773 284.524 379.447 285.389 379.3 286.292C379.04 287.674 378.246 288.897 377.09 289.697C375.934 290.497 374.508 290.809 373.124 290.565C371.739 290.321 370.507 289.54 369.694 288.393C368.881 287.246 368.554 285.824 368.783 284.437C369.174 282.153 370.013 279.969 371.251 278.01C372.489 276.051 374.102 274.356 375.997 273.022C377.892 271.689 380.032 270.743 382.294 270.238C384.556 269.734 386.895 269.682 389.177 270.084C391.459 270.487 393.639 271.336 395.592 272.583C397.545 273.831 399.232 275.452 400.557 277.353C401.881 279.255 402.817 281.399 403.31 283.663C403.804 285.927 403.845 288.267 403.432 290.547C403.214 291.782 402.568 292.901 401.608 293.708C400.648 294.515 399.434 294.958 398.18 294.96Z" fill="#3E455B"/>
<path d="M279.915 274.736C279.602 274.736 279.29 274.708 278.981 274.654C278.291 274.532 277.631 274.276 277.04 273.899C276.448 273.522 275.937 273.033 275.535 272.458C275.132 271.884 274.847 271.236 274.696 270.551C274.544 269.866 274.529 269.159 274.65 268.468C274.821 267.569 274.811 266.645 274.621 265.75C274.431 264.854 274.066 264.006 273.545 263.253C273.025 262.5 272.361 261.858 271.59 261.364C270.82 260.87 269.959 260.533 269.058 260.375C268.157 260.216 267.233 260.237 266.34 260.438C265.448 260.639 264.603 261.015 263.857 261.545C263.111 262.075 262.477 262.747 261.993 263.524C261.508 264.3 261.183 265.165 261.035 266.068C260.776 267.45 259.982 268.673 258.826 269.473C257.669 270.273 256.244 270.585 254.86 270.341C253.475 270.097 252.243 269.316 251.43 268.169C250.617 267.022 250.29 265.6 250.518 264.213C250.91 261.929 251.749 259.745 252.987 257.786C254.225 255.827 255.838 254.132 257.733 252.798C259.628 251.465 261.768 250.519 264.03 250.014C266.291 249.51 268.631 249.458 270.913 249.86C273.195 250.263 275.375 251.112 277.328 252.359C279.281 253.607 280.968 255.228 282.292 257.129C283.617 259.031 284.553 261.175 285.046 263.439C285.54 265.703 285.581 268.043 285.167 270.323C284.95 271.558 284.304 272.677 283.344 273.484C282.383 274.291 281.17 274.734 279.915 274.736Z" fill="#3E455B"/>
</svg>
