<svg width="513" height="512" viewBox="0 0 513 512" fill="none" xmlns="http://www.w3.org/2000/svg">
<path d="M65.2245 151.3L25.5355 190.985C18.7903 197.73 15.001 206.878 15.001 216.417C15.001 225.957 18.7903 235.105 25.5355 241.85L58.2775 274.592L148.831 184.038L116.089 151.3C112.75 147.96 108.785 145.31 104.421 143.503C100.057 141.695 95.3803 140.765 90.657 140.765C85.9336 140.765 81.2566 141.695 76.8928 143.503C72.5291 145.31 68.5642 147.96 65.2245 151.3Z" fill="#BD9CDE"/>
<path d="M55.5355 160.985L25.5355 190.985C18.7903 197.73 15.001 206.878 15.001 216.417C15.001 225.957 18.7903 235.105 25.5355 241.85L58.2775 274.592L88.2775 244.592L55.5355 211.85C48.7903 205.105 45.001 195.957 45.001 186.417C45.001 176.878 48.7903 167.73 55.5355 160.985Z" fill="#996ACC"/>
<path d="M158.3 58.224L197.989 18.535C204.734 11.7899 213.883 8.00052 223.422 8.00052C232.961 8.00052 242.109 11.7899 248.854 18.535L281.596 51.277L191.042 141.831L158.3 109.089C151.555 102.344 147.766 93.1955 147.766 83.6565C147.766 74.1175 151.555 64.9691 158.3 58.224Z" fill="#BD9CDE"/>
<path d="M188.3 28.224L158.3 58.224C151.555 64.9691 147.766 74.1175 147.766 83.6565C147.766 93.1955 151.555 102.344 158.3 109.089L191.042 141.831L221.042 111.831L188.3 79.089C181.555 72.3439 177.766 63.1955 177.766 53.6565C177.766 44.1175 181.555 34.9691 188.3 28.224Z" fill="#996ACC"/>
<path d="M218.41 60.614L67.6144 211.409C35.3617 243.662 17.2423 287.406 17.2423 333.018C17.2423 378.63 35.3617 422.374 67.6144 454.627C99.8671 486.88 143.611 504.999 189.223 504.999C234.836 504.999 278.58 486.88 310.832 454.627L461.632 303.827C477.647 287.867 490.358 268.905 499.037 248.028C507.716 227.15 512.193 204.766 512.212 182.156C512.231 159.546 507.792 137.154 499.148 116.262C490.504 95.3695 477.826 76.3866 461.838 60.3993C445.85 44.412 426.867 31.7342 405.974 23.0912C385.081 14.4481 362.69 10.0096 340.08 10.0296C317.47 10.0495 295.086 14.5275 274.208 23.2074C253.331 31.8872 234.37 44.5985 218.41 60.614Z" fill="#83DEFF"/>
<path d="M97.6144 424.628C81.6445 408.658 68.9764 389.699 60.3336 368.833C51.6907 347.968 47.2423 325.604 47.2423 303.019C47.2423 280.434 51.6907 258.07 60.3336 237.205C68.9764 216.339 81.6445 197.38 97.6144 181.41L67.6144 211.41C35.3617 243.663 17.2423 287.407 17.2423 333.019C17.2423 378.631 35.3617 422.375 67.6144 454.628C99.8671 486.881 143.611 505 189.223 505C234.836 505 278.58 486.881 310.832 454.628L340.832 424.628C324.862 440.598 305.903 453.266 285.038 461.909C264.172 470.552 241.808 475 219.223 475C196.639 475 174.275 470.552 153.409 461.909C132.543 453.266 113.584 440.598 97.6144 424.628Z" fill="#00B4FD"/>
<path d="M179.3 297.784L163.231 313.853L147.16 297.784C145.235 295.859 142.95 294.332 140.435 293.291C137.92 292.249 135.225 291.713 132.503 291.713C129.78 291.713 127.085 292.249 124.57 293.291C122.055 294.333 119.77 295.86 117.845 297.784C115.92 299.709 114.393 301.995 113.351 304.51C112.31 307.025 111.774 309.72 111.774 312.442C111.774 315.165 112.31 317.86 113.352 320.375C114.394 322.89 115.92 325.175 117.845 327.1L133.914 343.169L117.845 359.238C113.984 363.131 111.821 368.395 111.832 373.878C111.843 379.362 114.026 384.617 117.904 388.495C121.781 392.372 127.037 394.555 132.52 394.566C138.003 394.577 143.268 392.415 147.16 388.553L163.229 372.484L179.3 388.552C183.193 392.414 188.457 394.576 193.941 394.565C199.424 394.554 204.68 392.371 208.557 388.494C212.434 384.616 214.617 379.361 214.628 373.877C214.639 368.394 212.477 363.13 208.615 359.237L192.546 343.168L208.613 327.1C210.561 325.18 212.109 322.894 213.169 320.373C214.229 317.853 214.78 315.147 214.789 312.413C214.799 309.678 214.268 306.969 213.226 304.441C212.184 301.912 210.652 299.615 208.719 297.681C206.785 295.748 204.488 294.216 201.96 293.174C199.432 292.132 196.723 291.6 193.988 291.61C191.254 291.619 188.548 292.169 186.027 293.229C183.507 294.289 181.22 295.837 179.3 297.784Z" fill="#BD9CDE"/>
<path d="M381.466 244.407C399.189 244.407 413.557 230.039 413.557 212.316C413.557 194.593 399.189 180.225 381.466 180.225C363.742 180.225 349.375 194.593 349.375 212.316C349.375 230.039 363.742 244.407 381.466 244.407Z" fill="#BD9CDE"/>
<path d="M282.466 242.407C300.189 242.407 314.557 228.039 314.557 210.316C314.557 192.593 300.189 178.225 282.466 178.225C264.742 178.225 250.375 192.593 250.375 210.316C250.375 228.039 264.742 242.407 282.466 242.407Z" fill="#BD9CDE"/>
<path d="M368.773 215.008C365.379 211.619 362.79 207.511 361.196 202.988C359.602 198.464 359.045 193.64 359.565 188.872C359.299 189.12 359.032 189.366 358.773 189.624C355.144 193.252 352.437 197.698 350.88 202.588C349.323 207.478 348.962 212.671 349.827 217.729C350.692 222.788 352.757 227.566 355.85 231.661C358.943 235.757 362.973 239.051 367.602 241.267C372.231 243.483 377.324 244.556 382.453 244.397C387.583 244.238 392.6 242.851 397.082 240.353C401.565 237.854 405.384 234.317 408.217 230.038C411.05 225.759 412.816 220.863 413.365 215.76C407.286 221.441 399.237 224.538 390.917 224.398C382.598 224.258 374.658 220.891 368.773 215.008Z" fill="#996ACC"/>
<path d="M269.773 213.008C266.379 209.619 263.79 205.511 262.196 200.988C260.602 196.464 260.045 191.64 260.565 186.872C260.299 187.12 260.032 187.366 259.773 187.624C256.144 191.252 253.437 195.698 251.88 200.588C250.323 205.478 249.962 210.671 250.827 215.729C251.692 220.788 253.757 225.566 256.85 229.661C259.943 233.757 263.973 237.051 268.602 239.267C273.231 241.483 278.324 242.556 283.453 242.397C288.583 242.238 293.6 240.851 298.082 238.353C302.565 235.854 306.384 232.317 309.217 228.038C312.05 223.759 313.816 218.863 314.365 213.76C308.286 219.441 300.237 222.538 291.917 222.398C283.598 222.258 275.658 218.891 269.773 213.008Z" fill="#996ACC"/>
<path d="M388.681 146.423C406.405 146.423 420.772 132.055 420.772 114.332C420.772 96.6086 406.405 82.241 388.681 82.241C370.958 82.241 356.59 96.6086 356.59 114.332C356.59 132.055 370.958 146.423 388.681 146.423Z" fill="#BD9CDE"/>
<path d="M289.681 144.423C307.405 144.423 321.772 130.055 321.772 112.332C321.772 94.6086 307.405 80.241 289.681 80.241C271.958 80.241 257.59 94.6086 257.59 112.332C257.59 130.055 271.958 144.423 289.681 144.423Z" fill="#BD9CDE"/>
<path d="M375.99 117.024C372.595 113.635 370.006 109.527 368.412 105.004C366.818 100.48 366.261 95.6559 366.782 90.888C366.516 91.136 366.249 91.382 365.99 91.64C362.36 95.268 359.653 99.7136 358.096 104.604C356.539 109.494 356.178 114.687 357.043 119.745C357.908 124.804 359.973 129.582 363.066 133.677C366.159 137.773 370.189 141.067 374.818 143.283C379.447 145.499 384.54 146.572 389.669 146.413C394.799 146.254 399.816 144.867 404.299 142.369C408.781 139.87 412.6 136.333 415.433 132.054C418.266 127.775 420.032 122.879 420.582 117.776C414.502 123.458 406.453 126.555 398.133 126.415C389.814 126.274 381.874 122.907 375.99 117.024Z" fill="#996ACC"/>
<path d="M276.99 115.024C273.595 111.635 271.006 107.527 269.412 103.004C267.818 98.4799 267.261 93.6559 267.782 88.888C267.516 89.136 267.249 89.382 266.99 89.64C263.36 93.268 260.653 97.7136 259.096 102.604C257.539 107.494 257.178 112.687 258.043 117.745C258.908 122.804 260.973 127.582 264.066 131.677C267.159 135.773 271.189 139.067 275.818 141.283C280.447 143.499 285.54 144.572 290.669 144.413C295.799 144.254 300.816 142.867 305.299 140.369C309.781 137.87 313.6 134.333 316.433 130.054C319.266 125.775 321.032 120.879 321.582 115.776C315.502 121.458 307.453 124.555 299.133 124.415C290.814 124.274 282.874 120.907 276.99 115.024Z" fill="#996ACC"/>
<path d="M298.9 368.733C297.418 368.732 295.969 368.291 294.737 367.467C293.505 366.643 292.545 365.472 291.978 364.102C291.41 362.733 291.262 361.226 291.551 359.772C291.84 358.318 292.553 356.982 293.6 355.933L314.232 335.3C315.65 333.953 317.538 333.214 319.493 333.239C321.448 333.264 323.316 334.051 324.699 335.433C326.082 336.816 326.871 338.683 326.897 340.638C326.923 342.594 326.184 344.481 324.838 345.9L304.2 366.536C303.505 367.234 302.679 367.787 301.77 368.165C300.86 368.542 299.885 368.736 298.9 368.736V368.733Z" fill="#423E4F"/>
<path d="M347.6 320.035C346.118 320.034 344.669 319.593 343.437 318.769C342.205 317.945 341.245 316.774 340.677 315.404C340.11 314.035 339.962 312.528 340.251 311.074C340.54 309.62 341.253 308.284 342.3 307.235L362.93 286.6C364.348 285.254 366.236 284.514 368.191 284.539C370.146 284.564 372.014 285.351 373.397 286.733C374.78 288.116 375.569 289.983 375.595 291.938C375.621 293.893 374.882 295.781 373.536 297.2L352.9 317.838C352.205 318.536 351.379 319.089 350.47 319.467C349.56 319.844 348.585 320.039 347.6 320.038V320.035Z" fill="#423E4F"/>
</svg>
