<svg width="523" height="512" viewBox="0 0 523 512" fill="none" xmlns="http://www.w3.org/2000/svg">
<path d="M19.715 226.406H47.242V330.574H19.715C17.1259 330.574 14.562 330.065 12.1699 329.074C9.77782 328.083 7.6043 326.631 5.77351 324.8C3.94273 322.97 2.49054 320.796 1.49991 318.404C0.509281 316.012 -0.000393844 313.448 2.28343e-07 310.859L2.28343e-07 246.117C1.75037e-07 243.528 0.509973 240.965 1.50079 238.573C2.49161 236.181 3.94387 234.008 5.77463 232.178C7.60539 230.347 9.77879 228.896 12.1707 227.905C14.5626 226.915 17.1262 226.405 19.715 226.406Z" fill="#99DA90"/>
<path d="M271 406.625H85.2002C75.1322 406.624 65.477 402.624 58.3585 395.504C51.24 388.384 47.2414 378.728 47.2422 368.66V140.76C47.2425 126.766 52.8018 113.345 62.6973 103.449C72.5928 93.5536 86.0139 87.9943 100.008 87.994H271C275.986 87.9936 280.922 88.9752 285.528 90.8827C290.134 92.7903 294.32 95.5864 297.845 99.1114C301.37 102.636 304.167 106.821 306.075 111.427C307.983 116.033 308.965 120.97 308.965 125.955V368.66C308.965 373.646 307.984 378.583 306.076 383.189C304.168 387.795 301.371 391.98 297.846 395.506C294.321 399.031 290.135 401.828 285.529 403.736C280.923 405.643 275.986 406.625 271 406.625Z" fill="#99DA90"/>
<path d="M115.3 87.992H100.012C93.0826 87.9917 86.2208 89.3564 79.8186 92.008C73.4164 94.6596 67.5991 98.5462 62.699 103.446C57.7988 108.346 53.9118 114.163 51.2597 120.565C48.6076 126.967 47.2425 133.828 47.2422 140.758V368.658C47.2419 373.644 48.2237 378.581 50.1316 383.187C52.0394 387.793 54.8359 391.978 58.3613 395.504C61.8867 399.029 66.0721 401.826 70.6783 403.734C75.2845 405.641 80.2215 406.623 85.2072 406.623H165.066C106.066 339.656 102.8 180.012 115.3 87.992Z" fill="#69AB8D"/>
<path d="M382.184 493.477C378.737 493.477 375.324 492.798 372.14 491.479C368.956 490.16 366.062 488.227 363.625 485.79C361.188 483.353 359.255 480.459 357.936 477.275C356.617 474.091 355.938 470.678 355.938 467.231C355.938 428.145 337.665 387.305 337.481 386.899C334.621 380.568 334.388 373.362 336.832 366.859C339.276 360.357 344.199 355.089 350.521 352.209C356.843 349.33 364.048 349.074 370.558 351.498C377.068 353.922 382.352 358.828 385.251 365.141C386.196 367.215 408.431 416.512 408.431 467.235C408.431 470.681 407.752 474.094 406.432 477.278C405.113 480.462 403.18 483.355 400.743 485.792C398.305 488.229 395.412 490.162 392.228 491.48C389.043 492.799 385.63 493.477 382.184 493.477Z" fill="#5F75A1"/>
<path d="M355.938 467.234C355.938 474.195 358.703 480.871 363.625 485.793C368.547 490.715 375.223 493.48 382.184 493.48C389.145 493.48 395.821 490.715 400.743 485.793C405.665 480.871 408.43 474.195 408.43 467.234C408.43 462.543 408.239 457.867 407.891 453.234L355.555 457.234C355.8 460.563 355.938 463.9 355.938 467.234Z" fill="#404656"/>
<path d="M270.8 493.48C266.055 493.474 261.4 492.183 257.33 489.742C253.26 487.301 249.928 483.803 247.689 479.619C245.449 475.435 244.385 470.723 244.611 465.983C244.836 461.243 246.342 456.652 248.969 452.7C261.676 433.6 254.832 395.235 251.434 383.3C250.454 379.982 250.139 376.504 250.508 373.064C250.877 369.625 251.923 366.292 253.584 363.258C255.246 360.224 257.491 357.548 260.19 355.385C262.89 353.221 265.99 351.613 269.313 350.652C272.637 349.692 276.117 349.397 279.554 349.786C282.992 350.175 286.318 351.24 289.343 352.919C292.367 354.599 295.03 356.859 297.177 359.571C299.325 362.283 300.915 365.393 301.856 368.722C303.911 375.792 321.106 439.038 292.672 481.773C290.276 485.378 287.025 488.334 283.208 490.377C279.392 492.419 275.129 493.485 270.8 493.48Z" fill="#5F75A1"/>
<path d="M252.836 444.8C251.874 447.581 250.576 450.235 248.969 452.7C247.024 455.569 245.666 458.794 244.974 462.19C244.283 465.587 244.27 469.086 244.938 472.487C245.606 475.888 246.941 479.123 248.866 482.005C250.791 484.888 253.268 487.36 256.154 489.28C259.039 491.2 262.277 492.529 265.679 493.191C269.081 493.853 272.581 493.834 275.976 493.136C279.37 492.439 282.594 491.075 285.459 489.125C288.324 487.175 290.775 484.676 292.669 481.774C295.588 477.364 298.088 472.692 300.138 467.817L252.836 444.8Z" fill="#404656"/>
<path d="M444.887 339.371C439.801 339.371 434.725 338.943 429.711 338.09C403.789 333.69 381.16 318.379 365.992 294.981C364.117 292.089 362.831 288.856 362.205 285.466C361.58 282.077 361.629 278.598 362.348 275.227C363.801 268.419 367.899 262.468 373.74 258.682C379.581 254.896 386.687 253.585 393.494 255.038C400.302 256.491 406.253 260.589 410.039 266.43C419.117 280.43 430.527 284.989 438.496 286.344C443.577 287.233 448.787 287.062 453.799 285.84C458.811 284.618 463.515 282.372 467.617 279.244C470.339 277.106 473.457 275.528 476.791 274.6C480.126 273.672 483.611 273.413 487.046 273.837C490.481 274.261 493.798 275.361 496.806 277.072C499.814 278.784 502.455 281.074 504.574 283.81C506.694 286.546 508.252 289.674 509.158 293.014C510.064 296.355 510.3 299.841 509.853 303.273C509.406 306.706 508.285 310.015 506.553 313.012C504.822 316.009 502.515 318.634 499.765 320.736C484.038 332.849 464.738 339.403 444.887 339.371Z" fill="#A0D9E7"/>
<path d="M479.8 332.352C486.937 329.372 493.651 325.466 499.769 320.735C502.519 318.633 504.826 316.008 506.557 313.011C508.289 310.014 509.41 306.705 509.857 303.272C510.304 299.84 510.068 296.354 509.162 293.013C508.256 289.673 506.698 286.544 504.578 283.808C502.459 281.073 499.819 278.783 496.81 277.071C493.802 275.36 490.485 274.26 487.05 273.836C483.615 273.412 480.13 273.671 476.795 274.599C473.461 275.527 470.343 277.105 467.621 279.243C464.776 281.442 461.617 283.201 458.25 284.462L479.8 332.352Z" fill="#F8DCCC"/>
<path d="M390.859 383.6C386.043 383.6 381.382 381.897 377.7 378.792C374.018 375.688 371.552 371.382 370.738 366.635C369.924 361.888 370.815 357.006 373.253 352.852C375.69 348.699 379.518 345.54 384.059 343.936C398.008 339.006 413.981 329.284 410.84 310.963C408.508 297.381 395.387 282.842 379.567 282.842C374.153 282.842 368.961 280.691 365.132 276.863C361.304 273.035 359.153 267.842 359.153 262.428C359.153 257.014 361.304 251.821 365.132 247.993C368.961 244.165 374.153 242.014 379.567 242.014C413.7 242.014 445.11 269.268 451.075 304.061C455.727 331.178 444.134 366.006 397.657 382.428C395.475 383.204 393.175 383.6 390.859 383.6Z" fill="#69AB8D"/>
<path d="M414.422 315.512C414.422 254.957 371.707 205.867 319.016 205.867C266.325 205.867 223.606 254.957 223.606 315.512C223.606 376.067 266.321 411.918 319.016 411.918C371.711 411.918 414.422 376.066 414.422 315.512Z" fill="#A0D9E7"/>
<path d="M234.359 363.18C250.259 394.391 282.191 411.922 319.015 411.922C355.839 411.922 387.765 394.391 403.671 363.18H234.359Z" fill="#5F75A1"/>
<path d="M512 160.691C512 141.414 493.605 125.791 470.914 125.791C448.223 125.791 429.828 141.416 429.828 160.691C429.828 179.966 448.223 195.591 470.914 195.591C493.605 195.591 512 179.965 512 160.691Z" fill="#F0CDB9"/>
<path d="M208.2 160.691C208.2 141.414 189.805 125.791 167.114 125.791C144.423 125.791 126.032 141.416 126.032 160.691C126.032 179.966 144.427 195.591 167.114 195.591C189.801 195.591 208.2 179.965 208.2 160.691Z" fill="#F8DCCC"/>
<path d="M475.8 160.691C475.8 81.883 405.6 18 319.012 18C232.424 18 162.227 81.887 162.227 160.691C162.227 239.495 232.427 285.359 319.012 285.359C405.597 285.359 475.8 239.5 475.8 160.691Z" fill="#F8DCCC"/>
<path d="M240.988 36.895C193.922 61.52 162.226 107.735 162.226 160.695C162.226 239.495 232.426 285.363 319.011 285.363C326.925 285.363 334.702 284.976 342.3 284.218C183.777 244.961 196.9 104.617 240.988 36.895Z" fill="#F0CDB9"/>
<path d="M258.457 192.645C258.457 177.075 242.605 164.445 223.051 164.445C203.497 164.445 187.641 177.07 187.641 192.645C187.641 208.22 203.493 220.845 223.051 220.845C242.609 220.845 258.457 208.219 258.457 192.645Z" fill="#F8B8BD"/>
<path d="M450.387 192.645C450.387 177.075 434.532 164.445 414.977 164.445C395.422 164.445 379.567 177.07 379.567 192.645C379.567 208.22 395.422 220.845 414.977 220.845C434.532 220.845 450.387 208.219 450.387 192.645Z" fill="#F8B8BD"/>
<path d="M243.684 172.016C241.695 172.016 239.787 171.226 238.381 169.819C236.974 168.413 236.184 166.505 236.184 164.516V152.016C236.184 150.027 236.974 148.119 238.381 146.713C239.787 145.306 241.695 144.516 243.684 144.516C245.673 144.516 247.581 145.306 248.987 146.713C250.394 148.119 251.184 150.027 251.184 152.016V164.516C251.184 166.505 250.394 168.413 248.987 169.819C247.581 171.226 245.673 172.016 243.684 172.016Z" fill="#404656"/>
<path d="M394.34 172.016C392.351 172.016 390.444 171.226 389.037 169.819C387.631 168.413 386.84 166.505 386.84 164.516V152.016C386.84 150.027 387.631 148.119 389.037 146.713C390.444 145.306 392.351 144.516 394.34 144.516C396.329 144.516 398.237 145.306 399.644 146.713C401.05 148.119 401.84 150.027 401.84 152.016V164.516C401.84 166.505 401.05 168.413 399.644 169.819C398.237 171.226 396.329 172.016 394.34 172.016Z" fill="#404656"/>
<path d="M319.012 181.617C314.177 181.617 309.397 180.579 304.996 178.575C300.596 176.571 296.675 173.647 293.5 170C292.837 169.26 292.327 168.395 292.001 167.457C291.675 166.518 291.538 165.524 291.6 164.532C291.661 163.54 291.919 162.57 292.358 161.679C292.797 160.787 293.41 159.992 294.159 159.339C294.908 158.687 295.78 158.189 296.723 157.876C297.666 157.563 298.662 157.441 299.653 157.516C300.644 157.591 301.61 157.863 302.496 158.314C303.381 158.766 304.167 159.39 304.809 160.148C306.576 162.18 308.759 163.809 311.209 164.926C313.66 166.043 316.321 166.62 319.014 166.62C321.707 166.62 324.369 166.043 326.819 164.926C329.27 163.809 331.452 162.18 333.219 160.148C333.86 159.386 334.647 158.759 335.533 158.304C336.419 157.85 337.386 157.576 338.379 157.499C339.372 157.422 340.37 157.543 341.315 157.856C342.261 158.169 343.134 158.667 343.885 159.321C344.636 159.976 345.249 160.773 345.689 161.666C346.128 162.56 346.385 163.532 346.445 164.526C346.505 165.52 346.366 166.516 346.037 167.456C345.707 168.396 345.194 169.261 344.527 170C341.352 173.647 337.431 176.571 333.03 178.575C328.628 180.579 323.848 181.616 319.012 181.617Z" fill="#404656"/>
<path d="M473.953 138.742C462.352 70.355 397.4 18 319.012 18C240.624 18 175.676 70.359 164.074 138.742C189.215 134.527 222.125 113.57 240.293 89.394C240.928 97.6637 243.395 105.688 247.516 112.886C247.94 113.637 248.594 114.233 249.381 114.585C250.169 114.938 251.049 115.028 251.891 114.843C270.891 110.488 311.485 85.343 319.012 67.816C326.543 85.343 367.141 110.488 386.137 114.843C386.98 115.028 387.859 114.937 388.647 114.585C389.434 114.233 390.088 113.637 390.512 112.886C394.633 105.688 397.101 97.6637 397.735 89.394C415.9 113.57 448.813 134.527 473.953 138.742Z" fill="#404656"/>
<path d="M240.984 36.906C200.558 58.058 171.468 95.14 164.074 138.742C179.234 136.199 197.215 127.566 213.086 115.816C216.59 85.977 227.293 57.941 240.984 36.906Z" fill="#353947"/>
<path d="M212.844 383.6C208.029 383.598 203.369 381.895 199.688 378.79C196.007 375.686 193.542 371.38 192.728 366.634C191.915 361.888 192.805 357.007 195.241 352.853C197.678 348.7 201.504 345.541 206.044 343.936C219.993 339.006 235.966 329.284 232.825 310.963C230.493 297.381 217.372 282.842 201.552 282.842C196.138 282.842 190.946 280.691 187.117 276.863C183.289 273.035 181.138 267.842 181.138 262.428C181.138 257.014 183.289 251.821 187.117 247.993C190.946 244.165 196.138 242.014 201.552 242.014C235.685 242.014 267.095 269.268 273.064 304.061C277.712 331.178 266.119 366.006 219.642 382.428C217.46 383.204 215.16 383.6 212.844 383.6Z" fill="#69AB8D"/>
<path d="M258.52 370.492C251.652 370.516 244.817 369.531 238.235 367.57C222.59 362.863 201.247 350.312 188.383 317.242C185.97 310.779 186.199 303.625 189.02 297.329C191.841 291.034 197.027 286.102 203.457 283.601C209.886 281.1 217.042 281.231 223.376 283.966C229.71 286.701 234.712 291.82 237.3 298.215C240.163 305.582 245.277 314.875 253.351 317.305C261.839 319.86 275.062 315.418 289.624 305.125C295.31 301.18 302.324 299.641 309.139 300.842C315.955 302.043 322.02 305.887 326.015 311.538C330.01 317.189 331.611 324.189 330.47 331.015C329.33 337.84 325.539 343.939 319.924 347.984C295.527 365.238 274.758 370.492 258.52 370.492Z" fill="#A0D9E7"/>
<path d="M119.832 364.039H61.6998C57.8645 364.039 54.1863 362.515 51.4743 359.803C48.7623 357.092 47.2388 353.413 47.2388 349.578V295.395H134.29V349.579C134.289 353.413 132.765 357.09 130.054 359.802C127.343 362.513 123.666 364.037 119.832 364.039Z" fill="#F5EA72"/>
<path d="M130.777 313.3H50.7581C49.5172 313.3 48.2885 313.056 47.1421 312.581C45.9957 312.106 44.9541 311.41 44.0766 310.532C43.1992 309.655 42.5032 308.613 42.0283 307.467C41.5535 306.321 41.3091 305.092 41.3091 303.851V297.863C41.3099 292.462 43.4559 287.282 47.2753 283.462C51.0947 279.643 56.2747 277.497 61.6761 277.496H119.856C125.258 277.496 130.438 279.642 134.257 283.462C138.077 287.281 140.223 292.461 140.223 297.863V303.851C140.224 305.092 139.98 306.321 139.506 307.467C139.031 308.614 138.336 309.656 137.458 310.533C136.581 311.411 135.539 312.107 134.393 312.581C133.247 313.056 132.018 313.3 130.777 313.3Z" fill="#EAB65F"/>
<path d="M100.012 87.992C98.4772 87.992 96.9612 88.07 95.4612 88.199C87.5883 97.2578 83.2554 108.857 83.2612 120.859V216.441C83.2612 218.43 84.0514 220.338 85.4579 221.744C86.8645 223.151 88.7721 223.941 90.7612 223.941C92.7504 223.941 94.658 223.151 96.0645 221.744C97.4711 220.338 98.2612 218.43 98.2612 216.441V120.859C98.2708 113.685 100.481 106.687 104.594 100.81C108.707 94.9322 114.525 90.4583 121.261 87.992H100.012Z" fill="#DEDDF5"/>
<path d="M303.211 358.309C309.002 355.233 314.586 351.784 319.93 347.985C325.545 343.94 329.336 337.841 330.476 331.016C331.617 324.19 330.016 317.19 326.021 311.539C322.026 305.888 315.961 302.044 309.145 300.843C302.33 299.642 295.316 301.181 289.63 305.126C285.834 307.835 281.847 310.266 277.7 312.4L303.211 358.309Z" fill="#F8DCCC"/>
</svg>
