<svg width="512" height="512" viewBox="0 0 512 512" fill="none" xmlns="http://www.w3.org/2000/svg">
<path d="M393.832 512.002H91.5002C84.0508 512.002 76.9065 509.043 71.6386 503.776C66.3708 498.509 63.411 491.365 63.4102 483.916V446.232H421.91V483.916C421.91 491.363 418.952 498.506 413.687 503.773C408.421 509.04 401.28 512 393.832 512.002Z" fill="#516980"/>
<path d="M150.141 483.916V446.232H63.418V483.916C63.418 491.364 66.3765 498.507 71.6428 503.774C76.909 509.041 84.0518 512.001 91.5 512.002H178.223C170.775 512.001 163.632 509.041 158.366 503.774C153.099 498.507 150.141 491.364 150.141 483.916Z" fill="#3E4F61"/>
<path d="M252.574 138.522L224.957 118.745L304.906 7.102C306.2 5.27866 307.842 3.72887 309.737 2.54155C311.632 1.35424 313.742 0.552782 315.947 0.183174C318.153 -0.186434 320.409 -0.116916 322.588 0.387738C324.766 0.892392 326.823 1.82225 328.641 3.12394C330.459 4.42564 332.002 6.07354 333.182 7.9731C334.362 9.87265 335.155 11.9865 335.515 14.1932C335.876 16.4 335.797 18.6562 335.284 20.8325C334.77 23.0088 333.832 25.0622 332.523 26.875L252.574 138.522Z" fill="#516980"/>
<path d="M226.238 138.522L253.855 118.745L173.9 7.102C172.602 5.2889 170.959 3.74928 169.066 2.57104C167.172 1.39281 165.066 0.599023 162.865 0.235017C160.665 -0.128989 158.415 -0.0560885 156.243 0.449555C154.071 0.955199 152.02 1.88368 150.207 3.182C148.394 4.48031 146.854 6.12303 145.676 8.01635C144.498 9.90968 143.704 12.0165 143.34 14.2166C142.976 16.4167 143.049 18.667 143.555 20.8389C144.06 23.0108 144.989 25.0619 146.287 26.875L226.238 138.522Z" fill="#516980"/>
<path d="M335.047 152.102H143.766V134.232C143.766 127.588 145.074 121.009 147.616 114.871C150.158 108.733 153.885 103.155 158.582 98.4572C163.28 93.7591 168.857 90.0323 174.995 87.4896C181.133 84.9469 187.712 83.6381 194.356 83.638H284.456C297.874 83.6391 310.742 88.97 320.229 98.4581C329.716 107.946 335.046 120.814 335.046 134.232L335.047 152.102Z" fill="#FF8A98"/>
<path d="M245.086 83.639H194.356C180.939 83.6393 168.071 88.9694 158.584 98.4568C149.096 107.944 143.766 120.812 143.766 134.229V152.096H194.5V134.229C194.5 120.812 199.83 107.945 209.316 98.4582C218.803 88.9709 231.67 83.6403 245.086 83.639Z" fill="#FD5C6F"/>
<path d="M433.875 462.529H44.934C39.0332 462.529 33.1902 461.367 27.7386 459.109C22.2869 456.851 17.3334 453.541 13.1609 449.369C8.9884 445.196 5.67857 440.243 3.42042 434.791C1.16226 429.34 -1.46133e-09 423.497 0 417.596V172.135C-1.46133e-09 166.234 1.16226 160.391 3.42042 154.94C5.67857 149.488 8.9884 144.535 13.1609 140.362C17.3334 136.19 22.2869 132.88 27.7386 130.622C33.1902 128.364 39.0332 127.202 44.934 127.202H433.875C439.776 127.202 445.619 128.364 451.071 130.622C456.522 132.88 461.476 136.19 465.648 140.363C469.821 144.535 473.131 149.489 475.389 154.94C477.647 160.392 478.809 166.235 478.809 172.136V417.596C478.809 423.497 477.647 429.34 475.389 434.791C473.13 440.243 469.821 445.196 465.648 449.369C461.476 453.541 456.522 456.851 451.07 459.109C445.619 461.367 439.776 462.529 433.875 462.529Z" fill="#889CB0"/>
<path d="M105.207 417.596V172.135C105.207 166.234 106.369 160.391 108.627 154.94C110.886 149.488 114.195 144.535 118.368 140.362C122.54 136.19 127.494 132.88 132.946 130.622C138.397 128.364 144.24 127.202 150.141 127.202H44.934C39.0332 127.202 33.1902 128.364 27.7386 130.622C22.2869 132.88 17.3334 136.19 13.1609 140.362C8.9884 144.535 5.67857 149.488 3.42042 154.94C1.16226 160.391 9.66762e-09 166.234 1.1129e-08 172.135V417.596C-0.000131316 423.497 1.16203 429.34 3.42013 434.792C5.67823 440.243 8.98804 445.197 13.1606 449.369C17.3331 453.542 22.2866 456.852 27.7383 459.11C33.1901 461.368 39.0331 462.53 44.934 462.53H150.141C144.24 462.53 138.397 461.368 132.945 459.11C127.494 456.852 122.54 453.542 118.368 449.369C114.195 445.197 110.885 440.243 108.627 434.792C106.369 429.34 105.207 423.497 105.207 417.596Z" fill="#6A829A"/>
<path d="M433.875 127.202H351.348V462.529H433.875C439.776 462.529 445.619 461.367 451.071 459.109C456.523 456.851 461.476 453.541 465.649 449.368C469.821 445.196 473.131 440.242 475.389 434.791C477.647 429.339 478.809 423.496 478.809 417.595V172.135C478.809 166.234 477.647 160.391 475.389 154.94C473.131 149.488 469.821 144.535 465.648 140.362C461.476 136.19 456.522 132.88 451.071 130.622C445.619 128.364 439.776 127.202 433.875 127.202Z" fill="#A7B6C5"/>
<path d="M278.617 410.795H79.6411C75.3185 410.795 71.0381 409.944 67.0444 408.29C63.0507 406.637 59.4219 404.212 56.3651 401.156C53.3084 398.099 50.8836 394.471 49.2292 390.477C47.5748 386.484 46.7233 382.204 46.7231 377.881V209.014C46.7231 200.284 50.1913 191.911 56.3646 185.737C62.5379 179.564 70.9107 176.096 79.6411 176.096H278.617C282.94 176.096 287.22 176.948 291.214 178.602C295.207 180.256 298.836 182.681 301.892 185.738C304.948 188.795 307.373 192.424 309.027 196.417C310.681 200.411 311.532 204.691 311.531 209.014V377.881C311.531 382.203 310.68 386.484 309.026 390.477C307.372 394.47 304.948 398.099 301.891 401.155C298.835 404.212 295.207 406.636 291.213 408.29C287.22 409.944 282.94 410.795 278.617 410.795Z" fill="#C2EAFB"/>
<path d="M79.6411 176.096C70.9114 176.096 62.5392 179.564 56.366 185.736C50.1928 191.908 46.7242 200.28 46.7231 209.01V377.881C46.7233 382.204 47.5748 386.484 49.2292 390.477C50.8836 394.471 53.3084 398.099 56.3651 401.156C59.4219 404.212 63.0507 406.637 67.0444 408.29C71.0381 409.944 75.3185 410.795 79.6411 410.795H105.207V176.095L79.6411 176.096Z" fill="#91D4F2"/>
<path d="M452.93 226.014C452.93 233.5 450.71 240.817 446.551 247.042C442.392 253.266 436.48 258.117 429.564 260.981C422.648 263.846 415.038 264.595 407.696 263.135C400.354 261.674 393.61 258.069 388.317 252.776C383.023 247.483 379.418 240.739 377.958 233.397C376.497 226.055 377.247 218.444 380.111 211.528C382.976 204.612 387.827 198.701 394.051 194.542C400.275 190.383 407.593 188.162 415.078 188.162C420.049 188.162 424.972 189.14 429.564 191.043C434.157 192.945 438.33 195.733 441.845 199.248C445.36 202.763 448.148 206.936 450.05 211.528C451.952 216.121 452.931 221.043 452.93 226.014Z" fill="#F4E74D"/>
<path d="M381.137 259.959C379.613 258.437 378.405 256.63 377.581 254.64C376.756 252.651 376.332 250.519 376.332 248.366C376.332 246.212 376.756 244.08 377.581 242.091C378.405 240.101 379.613 238.294 381.137 236.772L425.837 192.072C428.913 189.006 433.081 187.286 437.424 187.29C441.768 187.294 445.932 189.021 449.004 192.093C452.075 195.165 453.801 199.329 453.805 203.673C453.808 208.017 452.087 212.184 449.021 215.26L404.321 259.96C402.798 261.482 400.991 262.69 399.002 263.514C397.013 264.337 394.881 264.761 392.728 264.761C390.576 264.761 388.444 264.337 386.455 263.513C384.466 262.689 382.659 261.481 381.137 259.959Z" fill="#FCF5AF"/>
<path d="M440.23 373.584H389.93C387.689 373.584 385.54 372.694 383.955 371.109C382.371 369.524 381.48 367.375 381.48 365.134C381.48 362.893 382.371 360.744 383.955 359.159C385.54 357.574 387.689 356.684 389.93 356.684H440.23C442.472 356.684 444.621 357.574 446.206 359.159C447.79 360.744 448.68 362.893 448.68 365.134C448.68 367.375 447.79 369.524 446.206 371.109C444.621 372.694 442.472 373.584 440.23 373.584Z" fill="#6A829A"/>
<path d="M440.23 402.049H389.93C387.689 402.049 385.54 401.159 383.955 399.574C382.371 397.989 381.48 395.84 381.48 393.599C381.48 391.358 382.371 389.209 383.955 387.624C385.54 386.039 387.689 385.149 389.93 385.149H440.23C442.472 385.149 444.621 386.039 446.206 387.624C447.79 389.209 448.68 391.358 448.68 393.599C448.68 395.84 447.79 397.989 446.206 399.574C444.621 401.159 442.472 402.049 440.23 402.049Z" fill="#6A829A"/>
<path d="M440.23 430.51H389.93C387.689 430.51 385.54 429.62 383.955 428.035C382.371 426.45 381.48 424.301 381.48 422.06C381.48 419.819 382.371 417.67 383.955 416.085C385.54 414.5 387.689 413.61 389.93 413.61H440.23C442.472 413.61 444.621 414.5 446.206 416.085C447.79 417.67 448.68 419.819 448.68 422.06C448.68 424.301 447.79 426.45 446.206 428.035C444.621 429.62 442.472 430.51 440.23 430.51Z" fill="#6A829A"/>
<path d="M433.984 307.19C433.982 310.928 432.873 314.581 430.796 317.688C428.719 320.795 425.767 323.217 422.314 324.646C418.86 326.076 415.061 326.45 411.395 325.721C407.729 324.991 404.362 323.191 401.719 320.548C399.076 317.905 397.277 314.538 396.547 310.873C395.818 307.207 396.191 303.407 397.621 299.954C399.051 296.501 401.472 293.549 404.58 291.472C407.687 289.395 411.34 288.285 415.078 288.284C420.092 288.284 424.9 290.276 428.446 293.822C431.991 297.367 433.983 302.176 433.984 307.19Z" fill="#F4E74D"/>
</svg>
