<svg width="512" height="512" viewBox="0 0 512 512" fill="none" xmlns="http://www.w3.org/2000/svg">
<path d="M338.671 512.025H154.29C148.321 512.026 142.548 509.901 138.003 506.031C133.459 502.162 130.441 496.801 129.49 490.908L76.435 162.125C75.9089 158.869 76.0964 155.537 76.9844 152.36C77.8725 149.183 79.44 146.237 81.5785 143.725C83.717 141.213 86.3755 139.196 89.3702 137.813C92.3649 136.429 95.6243 135.713 98.923 135.713H394.038C397.336 135.713 400.595 136.429 403.59 137.813C406.584 139.196 409.242 141.212 411.381 143.724C413.519 146.235 415.087 149.181 415.975 152.357C416.864 155.533 417.051 158.865 416.526 162.121L363.47 490.908C362.519 496.8 359.501 502.161 354.957 506.031C350.413 509.9 344.639 512.025 338.671 512.025Z" fill="#9BD8EB"/>
<path opacity="0.3" d="M122.42 447.082L129.492 490.908C130.443 496.8 133.461 502.162 138.005 506.031C142.55 509.901 148.323 512.026 154.292 512.025H338.671C344.64 512.025 350.413 509.901 354.958 506.031C359.502 502.162 362.52 496.8 363.471 490.908L370.543 447.082H122.42Z" fill="white"/>
<path d="M193.055 302.145L138.89 70.313C137.654 64.9448 134.63 60.1562 130.314 56.7328C125.998 53.3095 120.647 51.4548 115.138 51.473H42.465C40.4851 51.4728 38.5863 50.6861 37.1864 49.2859C35.7865 47.8858 35 45.987 35 44.007V24.466C35 22.4862 35.7865 20.5875 37.1864 19.1875C38.5864 17.7875 40.4852 17.001 42.465 17.001H115.138C128.432 16.9578 141.347 21.4345 151.762 29.6966C162.177 37.9587 169.475 49.5156 172.458 62.471L226.623 294.303L193.055 302.145Z" fill="#59A8ED"/>
<path opacity="0.1" d="M172.458 62.4701C169.475 49.5145 162.177 37.9576 151.762 29.6954C141.347 21.4333 128.432 16.9566 115.138 17.0001V51.4731C120.646 51.455 125.998 53.3098 130.313 56.7332C134.629 60.1565 137.653 64.945 138.889 70.3131L141.977 83.5291H177.377L172.458 62.4701Z" fill="black"/>
<path d="M375.085 245.526C369.456 239.896 362.772 235.431 355.417 232.384C348.062 229.337 340.178 227.769 332.217 227.769C324.256 227.769 316.372 229.337 309.017 232.384C301.662 235.431 294.978 239.896 289.349 245.526C277.98 256.895 262.56 263.282 246.481 263.282C230.402 263.282 214.982 256.895 203.613 245.526C197.984 239.896 191.3 235.431 183.945 232.384C176.59 229.337 168.706 227.769 160.745 227.769C152.784 227.769 144.9 229.337 137.545 232.384C130.19 235.431 123.506 239.896 117.877 245.526C110.772 252.652 101.998 257.889 92.353 260.759L122.42 447.082H370.542L400.61 260.759C390.965 257.889 382.191 252.652 375.085 245.526Z" fill="#E85668"/>
<path opacity="0.5" d="M375.085 245.526C363.716 234.157 348.296 227.77 332.217 227.77C316.138 227.77 300.718 234.157 289.349 245.526C283.72 251.156 277.036 255.621 269.681 258.668C262.326 261.715 254.442 263.283 246.481 263.283C238.52 263.283 230.636 261.715 223.281 258.668C215.926 255.621 209.242 251.156 203.613 245.526C192.244 234.157 176.824 227.77 160.745 227.77C144.666 227.77 129.246 234.157 117.877 245.526C110.772 252.652 101.998 257.889 92.353 260.759L96.471 286.28C104.509 283.247 111.807 278.533 117.877 272.454C123.506 266.824 130.19 262.359 137.545 259.312C144.9 256.265 152.784 254.697 160.745 254.697C168.706 254.697 176.59 256.265 183.945 259.312C191.3 262.359 197.984 266.824 203.613 272.454C214.982 283.823 230.402 290.21 246.481 290.21C262.56 290.21 277.98 283.823 289.349 272.454C294.978 266.824 301.662 262.359 309.017 259.312C316.372 256.265 324.256 254.697 332.217 254.697C340.178 254.697 348.062 256.265 355.417 259.312C362.772 262.359 369.456 266.824 375.085 272.454C381.155 278.533 388.453 283.247 396.491 286.28L400.609 260.759C390.964 257.888 382.19 252.652 375.085 245.526Z" fill="white"/>
<path opacity="0.1" d="M394.038 135.713H320.924C324.222 135.713 327.481 136.429 330.476 137.812C333.47 139.195 336.129 141.212 338.267 143.723C340.406 146.235 341.973 149.18 342.861 152.357C343.75 155.533 343.938 158.865 343.412 162.121L290.355 490.908C289.404 496.801 286.386 502.162 281.842 506.031C277.297 509.901 271.524 512.026 265.555 512.025H338.669C344.638 512.026 350.411 509.901 354.956 506.031C359.5 502.162 362.518 496.801 363.469 490.908L416.526 162.125C417.052 158.869 416.865 155.537 415.977 152.36C415.088 149.183 413.521 146.237 411.382 143.725C409.244 141.213 406.585 139.196 403.591 137.813C400.596 136.429 397.337 135.713 394.038 135.713Z" fill="black"/>
<path opacity="0.15" d="M439.181 367.659C436.062 367.659 433.071 366.42 430.865 364.215C428.66 362.009 427.421 359.018 427.421 355.899C427.421 327.154 442.827 297.634 457.721 285.699C460.16 283.804 463.247 282.945 466.315 283.307C469.382 283.67 472.184 285.224 474.115 287.635C476.046 290.046 476.95 293.12 476.633 296.193C476.316 299.265 474.803 302.09 472.421 304.056C463.64 311.09 450.936 333.598 450.936 355.895C450.937 357.439 450.633 358.969 450.043 360.396C449.452 361.823 448.587 363.119 447.495 364.212C446.404 365.304 445.107 366.171 443.681 366.762C442.254 367.354 440.725 367.658 439.181 367.659Z" fill="white"/>
<path d="M377.212 355.675C395.652 337.236 423.836 333.142 440.922 332.495C442.909 332.417 444.891 332.751 446.743 333.476C448.595 334.201 450.277 335.301 451.683 336.707C453.089 338.113 454.189 339.795 454.914 341.647C455.639 343.499 455.973 345.481 455.895 347.468C455.248 364.554 451.154 392.738 432.715 411.178C414.276 429.618 386.091 433.711 369.005 434.358C367.018 434.436 365.036 434.102 363.184 433.377C361.332 432.652 359.65 431.552 358.244 430.146C356.838 428.74 355.738 427.058 355.013 425.206C354.288 423.354 353.954 421.372 354.032 419.385C354.679 402.299 358.773 374.115 377.212 355.675Z" fill="#60D195"/>
<g style="mix-blend-mode:multiply">
<path d="M387.485 408.406C386.003 408.405 384.554 407.964 383.322 407.14C382.09 406.316 381.129 405.145 380.562 403.775C379.995 402.406 379.846 400.899 380.135 399.445C380.424 397.991 381.137 396.655 382.185 395.606L417.14 360.646C418.552 359.264 420.451 358.495 422.426 358.506C424.402 358.516 426.293 359.306 427.69 360.702C429.087 362.099 429.876 363.99 429.886 365.966C429.897 367.941 429.128 369.841 427.746 371.252L392.788 406.21C392.092 406.907 391.266 407.46 390.356 407.837C389.446 408.214 388.47 408.407 387.485 408.406Z" fill="#55BA85"/>
</g>
<path d="M406.584 384.988C397.09 388.732 386.528 388.732 377.034 384.988C367.406 381.191 356.695 381.192 347.068 384.991C337.441 388.791 329.616 396.105 325.177 405.454C320.157 416.027 317.967 427.722 318.823 439.395C319.679 451.068 323.552 462.319 330.061 472.046L349.667 501.346C351.959 504.768 355.058 507.573 358.692 509.513C362.326 511.452 366.381 512.467 370.5 512.466C373.809 512.466 377.032 511.41 379.7 509.452C383.212 506.874 387.454 505.484 391.81 505.484C396.167 505.484 400.409 506.874 403.921 509.452C406.589 511.41 409.812 512.466 413.121 512.466C417.239 512.466 421.295 511.452 424.928 509.512C428.561 507.573 431.66 504.768 433.952 501.346L453.558 472.046C460.067 462.319 463.939 451.068 464.795 439.396C465.651 427.723 463.462 416.028 458.442 405.455C454.002 396.106 446.178 388.791 436.55 384.992C426.923 381.192 416.212 381.191 406.584 384.988Z" fill="#E85668"/>
</svg>
