<svg width="512" height="512" viewBox="0 0 512 512" fill="none" xmlns="http://www.w3.org/2000/svg">
<path d="M297.162 133.064C295.94 133.064 294.735 132.774 293.646 132.217C292.558 131.661 291.617 130.855 290.901 129.864C290.184 128.874 289.713 127.728 289.526 126.52C289.339 125.312 289.44 124.077 289.823 122.916L321.545 26.725C321.863 25.7614 322.367 24.8699 323.029 24.1012C323.692 23.3326 324.499 22.702 325.405 22.2454C326.311 21.7887 327.298 21.5151 328.31 21.4399C329.322 21.3648 330.339 21.4897 331.302 21.8075C332.266 22.1253 333.157 22.6298 333.926 23.2921C334.695 23.9545 335.325 24.7617 335.782 25.6678C336.239 26.5738 336.512 27.561 336.587 28.5728C336.663 29.5847 336.538 30.6014 336.22 31.565L304.498 127.756C303.988 129.3 303.005 130.643 301.688 131.596C300.371 132.549 298.787 133.063 297.162 133.064Z" fill="#51D09A"/>
<path d="M241.562 165.585L97.562 203.96L144.782 488.247C145.884 494.883 149.306 500.912 154.437 505.261C159.568 509.611 166.075 511.999 172.802 512H310.32C317.047 512 323.556 509.613 328.688 505.263C333.82 500.913 337.242 494.883 338.344 488.247L385.562 203.96L241.562 165.585Z" fill="#51D09A"/>
<path d="M175.684 488.247L128.462 203.96L257.015 169.7L241.562 165.587L97.562 203.961L144.782 488.248C145.885 494.883 149.306 500.913 154.437 505.262C159.568 509.611 166.076 511.999 172.803 512H203.703C196.977 511.999 190.469 509.611 185.338 505.261C180.207 500.912 176.786 494.882 175.684 488.247Z" fill="#42AA7E"/>
<path d="M365.741 266.234H117.383C115.579 266.234 113.796 266.627 112.158 267.385C110.521 268.144 109.068 269.25 107.901 270.627C106.734 272.003 105.881 273.617 105.4 275.357C104.92 277.096 104.824 278.92 105.119 280.7L126.028 406.582C126.51 409.487 128.007 412.126 130.253 414.031C132.499 415.935 135.348 416.98 138.292 416.98H344.832C347.776 416.98 350.625 415.935 352.871 414.032C355.117 412.128 356.614 409.489 357.096 406.585L378.006 280.7C378.301 278.919 378.205 277.096 377.725 275.357C377.244 273.617 376.391 272.003 375.224 270.626C374.057 269.25 372.604 268.144 370.966 267.385C369.329 266.627 367.546 266.234 365.741 266.234Z" fill="#E3E6E8"/>
<path d="M156.933 406.585L136.023 280.7C135.727 278.919 135.823 277.096 136.303 275.356C136.783 273.616 137.636 272.001 138.803 270.624C139.97 269.247 141.423 268.141 143.061 267.382C144.699 266.624 146.482 266.231 148.287 266.231H117.387C115.582 266.23 113.798 266.623 112.16 267.381C110.521 268.14 109.068 269.246 107.9 270.623C106.733 272 105.879 273.614 105.398 275.355C104.918 277.095 104.822 278.919 105.118 280.7L126.028 406.582C126.51 409.487 128.007 412.126 130.253 414.031C132.499 415.935 135.348 416.98 138.292 416.98H169.192C166.249 416.979 163.402 415.933 161.157 414.03C158.912 412.126 157.416 409.488 156.933 406.585Z" fill="#CCCED0"/>
<path d="M294.742 132.673C295.705 132.991 296.722 133.117 297.735 133.042C298.747 132.967 299.734 132.693 300.64 132.236C301.547 131.779 302.354 131.148 303.016 130.379C303.679 129.61 304.183 128.718 304.5 127.754L321.662 75.7H305.395L289.825 122.912C289.506 123.876 289.381 124.893 289.456 125.905C289.53 126.917 289.804 127.905 290.26 128.811C290.717 129.718 291.348 130.526 292.117 131.188C292.886 131.851 293.778 132.355 294.742 132.673Z" fill="#42AA7E"/>
<path d="M369.062 122.533C367.829 116.579 364.581 111.232 359.866 107.393C355.151 103.555 349.256 101.459 343.176 101.459H139.945C133.865 101.46 127.972 103.556 123.257 107.395C118.542 111.233 115.295 116.58 114.062 122.533L107.795 152.795L241.562 165.585L375.332 152.793L369.062 122.533Z" fill="#E3E6E8"/>
<path d="M138.697 152.795L144.964 122.533C146.197 116.579 149.444 111.232 154.16 107.393C158.875 103.554 164.769 101.458 170.85 101.458H139.95C133.869 101.457 127.974 103.553 123.258 107.392C118.543 111.231 115.295 116.579 114.062 122.533L107.795 152.795L241.562 165.587L257.015 164.109L138.697 152.795Z" fill="#CCCED0"/>
<path d="M375.332 178.377L241.562 165.585L107.792 178.377L97.562 203.96H385.562L375.332 178.377Z" fill="#E3E6E8"/>
<path d="M257.014 167.064L241.562 165.587L107.792 178.377L97.562 203.961H128.462L138.696 178.377L257.014 167.064Z" fill="#CCCED0"/>
<path d="M375.332 152.795H107.792C104.399 152.795 101.146 154.143 98.7467 156.542C96.3477 158.941 95 162.194 95 165.587C95 168.98 96.3477 172.233 98.7467 174.632C101.146 177.031 104.399 178.379 107.792 178.379H375.333C378.726 178.379 381.979 177.031 384.378 174.632C386.777 172.233 388.125 168.98 388.125 165.587C388.124 162.194 386.776 158.941 384.377 156.542C381.978 154.143 378.725 152.795 375.332 152.795Z" fill="#CCCED0"/>
<path d="M125.905 165.587C125.906 162.195 127.255 158.943 129.653 156.545C132.052 154.147 135.305 152.8 138.697 152.8H107.792C106.112 152.8 104.449 153.131 102.897 153.774C101.345 154.416 99.9345 155.359 98.7467 156.546C97.5588 157.734 96.6166 159.145 95.9737 160.697C95.3309 162.249 95 163.912 95 165.592C95 167.272 95.3309 168.935 95.9737 170.487C96.6166 172.039 97.5588 173.449 98.7467 174.637C99.9345 175.825 101.345 176.767 102.897 177.41C104.449 178.053 106.112 178.384 107.792 178.384H138.697C137.017 178.384 135.353 178.052 133.801 177.409C132.249 176.766 130.838 175.823 129.651 174.635C128.463 173.446 127.52 172.036 126.878 170.483C126.235 168.931 125.905 167.267 125.905 165.587Z" fill="#B3B5B7"/>
<path d="M345.618 5.98291L328.812 0.569912C327.34 0.0960606 325.789 -0.0832353 324.248 0.042263C322.707 0.167761 321.206 0.595595 319.83 1.30133C318.454 2.00707 317.231 2.97689 316.23 4.15541C315.229 5.33393 314.47 6.69806 313.997 8.16991L304.554 37.4929C304.08 38.9647 303.901 40.5154 304.026 42.0565C304.152 43.5976 304.579 45.0988 305.285 46.4746C305.991 47.8503 306.961 49.0735 308.139 50.0744C309.318 51.0753 310.682 51.8343 312.154 52.3079L328.962 57.7189C330.434 58.1928 331.984 58.3721 333.525 58.2466C335.066 58.1211 336.568 57.6932 337.943 56.9875C339.319 56.2818 340.542 55.3119 341.543 54.1334C342.544 52.9549 343.303 51.5908 343.777 50.1189L353.216 20.7999C353.69 19.3281 353.87 17.7773 353.744 16.2361C353.619 14.6949 353.192 13.1935 352.486 11.8175C351.78 10.4416 350.811 9.21816 349.632 8.21704C348.454 7.21592 347.09 6.45676 345.618 5.98291Z" fill="#42AA7E"/>
</svg>
