<svg width="512" height="512" viewBox="0 0 512 512" fill="none" xmlns="http://www.w3.org/2000/svg">
<path d="M312.509 102.912V63.5569H228.009V102.912C228.009 107.312 226.75 111.62 224.38 115.327C222.011 119.034 218.63 121.986 214.637 123.834L197.05 131.972C185.688 137.23 176.068 145.629 169.325 156.178C162.583 166.727 159 178.985 159 191.505V242.021C159 244.952 160.164 247.763 162.237 249.836C164.31 251.908 167.121 253.073 170.052 253.073H370.467C373.398 253.073 376.209 251.908 378.282 249.836C380.355 247.763 381.519 244.952 381.519 242.021V191.505C381.519 178.985 377.936 166.727 371.194 156.178C364.451 145.629 354.831 137.23 343.469 131.972L325.882 123.834C321.889 121.986 318.508 119.034 316.138 115.327C313.768 111.62 312.509 107.312 312.509 102.912Z" fill="#9BD8EB"/>
<path d="M320.849 63.557H219.669C218.546 63.557 217.435 63.3359 216.397 62.9062C215.36 62.4766 214.418 61.8469 213.624 61.0531C212.83 60.2592 212.2 59.3168 211.771 58.2796C211.341 57.2423 211.12 56.1307 211.12 55.008V8.55C211.12 6.28257 212.021 4.108 213.624 2.50459C215.227 0.901183 217.402 0.000265196 219.669 0H320.849C321.972 -7.68112e-09 323.084 0.22116 324.121 0.65085C325.158 1.08054 326.101 1.71034 326.894 2.5043C327.688 3.29825 328.318 4.2408 328.748 5.27813C329.177 6.31546 329.398 7.42725 329.398 8.55V55.008C329.398 56.1307 329.177 57.2424 328.748 58.2797C328.318 59.317 327.688 60.2595 326.894 61.0533C326.1 61.8472 325.158 62.4769 324.121 62.9065C323.083 63.3361 321.972 63.5571 320.849 63.557Z" fill="#E85668"/>
<g opacity="0.1">
<path opacity="0.1" d="M320.849 0H297.498C298.621 -7.68112e-09 299.733 0.22116 300.77 0.65085C301.807 1.08054 302.75 1.71034 303.543 2.5043C304.337 3.29825 304.967 4.2408 305.397 5.27813C305.826 6.31546 306.047 7.42725 306.047 8.55V55.008C306.047 57.2754 305.146 59.45 303.543 61.0534C301.94 62.6568 299.765 63.5577 297.498 63.558H320.849C321.972 63.558 323.084 63.3368 324.121 62.9072C325.158 62.4775 326.101 61.8477 326.894 61.0537C327.688 60.2598 328.318 59.3172 328.748 58.2799C329.177 57.2425 329.398 56.1308 329.398 55.008V8.55C329.398 7.42725 329.177 6.31546 328.748 5.27813C328.318 4.2408 327.688 3.29825 326.894 2.5043C326.101 1.71034 325.158 1.08054 324.121 0.65085C323.084 0.22116 321.972 -7.68112e-09 320.849 0V0Z" fill="black"/>
</g>
<path d="M224.044 499.406L220.917 505.564C219.934 507.5 218.434 509.126 216.583 510.262C214.733 511.398 212.604 512 210.432 512H203.653C199.897 512 196.202 511.05 192.912 509.238C189.621 507.427 186.843 504.813 184.834 501.639C172.982 482.914 165.915 461.563 164.252 439.465L161.533 403.315C161.461 402.36 161.587 401.401 161.903 400.498C162.219 399.594 162.718 398.765 163.369 398.064C164.02 397.362 164.809 396.802 165.686 396.419C166.564 396.036 167.511 395.839 168.468 395.839H372.049C373.006 395.839 373.953 396.036 374.831 396.419C375.708 396.802 376.497 397.362 377.148 398.064C377.799 398.765 378.298 399.594 378.614 400.498C378.93 401.401 379.056 402.36 378.984 403.315L376.265 439.465C374.603 461.563 367.535 482.914 355.684 501.639C353.675 504.813 350.896 507.427 347.606 509.239C344.315 511.05 340.62 512 336.864 512H330.085C327.913 512 325.784 511.399 323.934 510.263C322.083 509.127 320.583 507.5 319.6 505.564L316.473 499.406C315.222 496.941 313.313 494.872 310.957 493.426C308.601 491.98 305.891 491.214 303.127 491.214C300.364 491.214 297.654 491.98 295.298 493.426C292.942 494.872 291.033 496.941 289.782 499.406L286.655 505.564C285.672 507.5 284.172 509.126 282.321 510.262C280.471 511.398 278.342 512 276.17 512H264.347C262.175 512 260.046 511.399 258.195 510.263C256.345 509.127 254.845 507.5 253.862 505.564L250.735 499.406C249.484 496.941 247.575 494.872 245.219 493.426C242.863 491.98 240.153 491.214 237.389 491.214C234.626 491.214 231.916 491.98 229.56 493.426C227.204 494.872 225.295 496.941 224.044 499.406Z" fill="#937254"/>
<path d="M370.458 253.07H170.048V395.84H370.458V253.07Z" fill="#E85668"/>
<path d="M212.738 372.3H243.279C247.109 372.3 250.782 370.779 253.49 368.071C256.198 365.363 257.719 361.69 257.719 357.86V291.046C257.719 287.216 256.198 283.543 253.49 280.835C250.782 278.127 247.109 276.606 243.279 276.606H212.738C208.908 276.606 205.235 278.127 202.527 280.835C199.819 283.543 198.298 287.216 198.298 291.046V357.864C198.299 361.693 199.821 365.365 202.529 368.072C205.237 370.779 208.909 372.3 212.738 372.3Z" fill="white"/>
<g opacity="0.1">
<path opacity="0.1" d="M372.049 395.839H339.599C340.556 395.839 341.503 396.036 342.381 396.419C343.258 396.802 344.047 397.362 344.698 398.064C345.349 398.765 345.848 399.594 346.164 400.498C346.48 401.401 346.606 402.36 346.534 403.315L343.815 439.465C342.153 461.563 335.085 482.914 323.234 501.639C322.257 503.18 321.095 504.595 319.773 505.852C320.78 507.709 322.27 509.261 324.085 510.343C325.9 511.425 327.973 511.997 330.086 512H336.865C340.621 512 344.316 511.05 347.606 509.238C350.897 507.427 353.675 504.813 355.684 501.639C367.536 482.914 374.603 461.563 376.265 439.465L378.984 403.315C379.056 402.36 378.93 401.401 378.614 400.498C378.298 399.594 377.799 398.765 377.148 398.064C376.497 397.362 375.708 396.802 374.831 396.419C373.953 396.036 373.006 395.839 372.049 395.839Z" fill="black"/>
</g>
<g opacity="0.1">
<path opacity="0.1" d="M170.052 253.072V271.653H338.017V395.839H370.466V253.072H170.052Z" fill="black"/>
</g>
<g opacity="0.1">
<path opacity="0.1" d="M237.808 19.219C235.819 19.219 233.911 20.0092 232.505 21.4157C231.098 22.8222 230.308 24.7299 230.308 26.719V63.556H245.308V26.719C245.308 24.7299 244.518 22.8222 243.111 21.4157C241.705 20.0092 239.797 19.219 237.808 19.219ZM302.708 19.219C300.719 19.219 298.811 20.0092 297.405 21.4157C295.998 22.8222 295.208 24.7299 295.208 26.719V63.556H310.208V26.719C310.208 24.73 309.418 22.8225 308.012 21.416C306.605 20.0096 304.698 19.2193 302.709 19.219H302.708ZM270.258 19.219C268.269 19.219 266.361 20.0092 264.955 21.4157C263.548 22.8222 262.758 24.7299 262.758 26.719V63.556H277.758V26.719C277.758 24.73 276.968 22.8225 275.562 21.416C274.155 20.0096 272.248 19.2193 270.259 19.219H270.258Z" fill="black"/>
</g>
<path d="M343.468 131.972L325.881 123.834C322.994 122.495 320.416 120.573 318.309 118.188H222.209C220.103 120.574 217.524 122.496 214.637 123.834L197.05 131.972C185.688 137.23 176.068 145.629 169.325 156.178C162.583 166.727 159 178.985 159 191.505V242.021C159 244.952 160.164 247.763 162.237 249.836C164.31 251.909 167.121 253.073 170.052 253.073H370.467C373.398 253.073 376.209 251.909 378.282 249.836C380.355 247.763 381.519 244.952 381.519 242.021V191.505C381.519 178.985 377.936 166.727 371.193 156.178C364.451 145.629 354.83 137.23 343.468 131.972Z" fill="#937254"/>
<g opacity="0.1">
<path opacity="0.1" d="M343.468 131.972L325.881 123.834C321.888 121.986 318.507 119.034 316.138 115.327C313.768 111.62 312.509 107.312 312.509 102.912V63.5569H228.009V86.7999H280.059V102.916C280.059 107.316 281.318 111.624 283.688 115.331C286.057 119.038 289.438 121.99 293.431 123.838L311.018 131.976C322.38 137.234 332 145.633 338.743 156.182C345.485 166.731 349.068 178.989 349.068 191.509V242.025C349.068 244.956 347.904 247.767 345.831 249.84C343.758 251.912 340.947 253.077 338.016 253.077H370.466C373.397 253.077 376.208 251.912 378.281 249.84C380.354 247.767 381.518 244.956 381.518 242.025V191.505C381.518 178.985 377.935 166.727 371.193 156.178C364.45 145.629 354.83 137.23 343.468 131.972Z" fill="black"/>
</g>
<g opacity="0.2">
<path opacity="0.2" d="M345.599 434.589C349.785 434.589 353.178 431.196 353.178 427.01C353.178 422.824 349.785 419.431 345.599 419.431C341.413 419.431 338.02 422.824 338.02 427.01C338.02 431.196 341.413 434.589 345.599 434.589Z" fill="white"/>
<path opacity="0.2" d="M206.338 456.939C210.524 456.939 213.917 453.546 213.917 449.36C213.917 445.174 210.524 441.781 206.338 441.781C202.152 441.781 198.759 445.174 198.759 449.36C198.759 453.546 202.152 456.939 206.338 456.939Z" fill="white"/>
<path opacity="0.2" d="M302.709 145.829C306.895 145.829 310.288 142.436 310.288 138.25C310.288 134.064 306.895 130.671 302.709 130.671C298.523 130.671 295.13 134.064 295.13 138.25C295.13 142.436 298.523 145.829 302.709 145.829Z" fill="white"/>
</g>
<path d="M295.129 373.657C293.14 373.657 291.232 372.867 289.826 371.46C288.419 370.054 287.629 368.146 287.629 366.157V333.893C287.629 331.904 288.419 329.996 289.826 328.59C291.232 327.183 293.14 326.393 295.129 326.393C297.118 326.393 299.026 327.183 300.432 328.59C301.839 329.996 302.629 331.904 302.629 333.893V366.157C302.629 368.146 301.839 370.054 300.432 371.46C299.026 372.867 297.118 373.657 295.129 373.657Z" fill="#3E4B58"/>
<path d="M316.923 373.657C314.934 373.657 313.026 372.867 311.62 371.46C310.213 370.054 309.423 368.146 309.423 366.157V289.286C309.423 287.297 310.213 285.389 311.62 283.983C313.026 282.576 314.934 281.786 316.923 281.786C318.912 281.786 320.82 282.576 322.226 283.983C323.633 285.389 324.423 287.297 324.423 289.286V366.157C324.423 368.146 323.633 370.054 322.226 371.46C320.82 372.867 318.912 373.657 316.923 373.657Z" fill="#3E4B58"/>
</svg>
