<svg width="512" height="512" viewBox="0 0 512 512" fill="none" xmlns="http://www.w3.org/2000/svg">
<path d="M388.97 260.913V257.949H122.439V260.913L161.639 494.061C162.482 499.077 165.076 503.631 168.96 506.915C172.843 510.2 177.765 512.001 182.851 512H328.558C333.643 512 338.564 510.198 342.446 506.914C346.328 503.63 348.922 499.077 349.765 494.062L388.97 260.913Z" fill="#F7D9A4"/>
<path d="M122.439 225.021C122.439 207.52 125.886 190.191 132.583 174.022C139.28 157.854 149.097 143.163 161.472 130.788C173.847 118.413 188.538 108.597 204.706 101.899C220.875 95.2022 238.204 91.7551 255.705 91.7551C273.206 91.7551 290.535 95.2022 306.704 101.899C322.872 108.597 337.563 118.413 349.938 130.788C362.313 143.163 372.129 157.854 378.827 174.022C385.524 190.191 388.971 207.52 388.971 225.021H122.439Z" fill="#9BD8EB"/>
<path d="M248.473 246.2L295.24 46.031C296.307 41.3961 298.918 37.2615 302.644 34.3057C306.371 31.3499 310.991 29.7484 315.747 29.764H378.494C380.203 29.764 381.843 29.085 383.052 27.8764C384.26 26.6677 384.94 25.0284 384.94 23.319V6.44603C384.94 5.59953 384.773 4.76132 384.449 3.97925C384.125 3.19719 383.651 2.48658 383.052 1.88802C382.453 1.28945 381.743 0.814643 380.961 0.490701C380.179 0.166759 379.34 2.86132e-05 378.494 2.86132e-05H315.747C304.269 -0.0376403 293.118 3.82744 284.126 10.961C275.133 18.0947 268.832 28.0731 266.257 39.259L219.49 239.425L248.473 246.2Z" fill="#E85668"/>
<g opacity="0.1">
<path opacity="0.1" d="M266.257 39.259C268.832 28.0732 275.133 18.0948 284.126 10.9613C293.118 3.82768 304.269 -0.0374616 315.747 2.60021e-05V29.764C310.991 29.7486 306.371 31.3502 302.645 34.3059C298.918 37.2617 296.307 41.3962 295.24 46.031L292.574 57.442H262.005L266.257 39.259Z" fill="black"/>
</g>
<path d="M362.744 145.627C356.536 148.395 349.704 149.462 342.947 148.719C336.191 147.975 329.754 145.448 324.297 141.396C317.686 136.483 309.669 133.83 301.433 133.83C293.197 133.83 285.18 136.483 278.569 141.396C271.958 146.309 263.941 148.962 255.705 148.962C247.469 148.962 239.452 146.309 232.841 141.396C226.23 136.483 218.213 133.83 209.977 133.83C201.741 133.83 193.724 136.483 187.113 141.396C181.656 145.448 175.219 147.975 168.462 148.718C161.706 149.462 154.874 148.395 148.666 145.627C131.595 168.573 122.395 196.421 122.439 225.021H388.97C389.014 196.421 379.815 168.573 362.744 145.627Z" fill="#F7D9A4"/>
<path d="M324.297 436.35C317.686 431.437 309.669 428.784 301.433 428.784C293.197 428.784 285.18 431.437 278.569 436.35C271.959 441.263 263.941 443.916 255.705 443.916C247.469 443.916 239.452 441.263 232.841 436.35C226.23 431.437 218.213 428.784 209.977 428.784C201.741 428.784 193.724 431.437 187.113 436.35C182.274 439.943 176.657 442.344 170.716 443.359C164.775 444.373 158.679 443.972 152.922 442.187L161.645 494.062C162.487 499.077 165.08 503.631 168.963 506.915C172.845 510.199 177.766 512.001 182.851 512H328.558C333.643 512.001 338.564 510.2 342.447 506.915C346.33 503.631 348.922 499.077 349.765 494.062L358.488 442.187C352.731 443.972 346.635 444.373 340.694 443.359C334.753 442.345 329.136 439.943 324.297 436.35Z" fill="#FDA354"/>
<g opacity="0.1">
<path opacity="0.1" d="M122.439 260.913L127.184 289.133H349.019L314.559 494.062C313.716 499.077 311.124 503.631 307.241 506.915C303.359 510.199 298.438 512.001 293.353 512H328.559C333.644 512.001 338.565 510.199 342.448 506.915C346.331 503.631 348.923 499.077 349.766 494.062L388.966 260.914H122.439V260.913Z" fill="black"/>
</g>
<path d="M405.282 225.021H106.128C104.238 225.021 102.425 225.772 101.088 227.109C99.751 228.446 99 230.259 99 232.149V253.786C99 255.676 99.751 257.49 101.088 258.826C102.425 260.163 104.238 260.914 106.128 260.914H405.281C407.171 260.914 408.985 260.163 410.321 258.826C411.658 257.49 412.409 255.676 412.409 253.786V232.149C412.409 231.213 412.225 230.286 411.867 229.421C411.509 228.557 410.984 227.771 410.322 227.109C409.66 226.447 408.874 225.922 408.01 225.564C407.145 225.205 406.218 225.021 405.282 225.021Z" fill="#9BD8EB"/>
<g opacity="0.1">
<path opacity="0.1" d="M405.282 225.021H369.067C370.957 225.021 372.771 225.772 374.107 227.109C375.444 228.446 376.195 230.259 376.195 232.149V253.786C376.195 255.676 375.444 257.49 374.107 258.826C372.771 260.163 370.957 260.914 369.067 260.914H405.282C407.172 260.914 408.986 260.163 410.322 258.826C411.659 257.49 412.41 255.676 412.41 253.786V232.149C412.41 230.259 411.659 228.446 410.322 227.109C408.986 225.772 407.172 225.021 405.282 225.021Z" fill="black"/>
</g>
<path d="M210.094 188.4C209.109 188.4 208.134 188.206 207.224 187.829C206.315 187.451 205.489 186.898 204.794 186.2L193.994 175.4C192.622 173.986 191.861 172.089 191.876 170.119C191.891 168.148 192.681 166.263 194.075 164.87C195.469 163.478 197.355 162.69 199.326 162.677C201.296 162.664 203.192 163.426 204.605 164.8L215.405 175.6C216.452 176.649 217.166 177.985 217.455 179.439C217.743 180.893 217.595 182.4 217.028 183.769C216.461 185.139 215.5 186.31 214.268 187.134C213.036 187.958 211.587 188.399 210.105 188.4H210.094Z" fill="#937254"/>
<path d="M291.419 207.932C289.937 207.931 288.488 207.49 287.256 206.666C286.023 205.842 285.063 204.671 284.496 203.301C283.929 201.932 283.78 200.425 284.069 198.971C284.358 197.517 285.071 196.181 286.119 195.132L296.919 184.332C298.327 182.936 300.232 182.154 302.215 182.158C304.199 182.162 306.1 182.952 307.502 184.355C308.905 185.757 309.695 187.658 309.699 189.641C309.704 191.625 308.922 193.529 307.526 194.938L296.726 205.738C296.03 206.435 295.202 206.988 294.291 207.365C293.381 207.741 292.404 207.934 291.419 207.932Z" fill="#937254"/>
<path d="M253.495 185.271C251.73 185.273 250.022 184.653 248.669 183.519C247.317 182.386 246.407 180.812 246.101 179.074C245.794 177.336 246.11 175.546 246.993 174.018C247.876 172.491 249.269 171.323 250.928 170.721L263.374 166.191C264.3 165.854 265.283 165.703 266.267 165.746C267.251 165.789 268.218 166.025 269.11 166.442C270.003 166.858 270.805 167.447 271.471 168.173C272.137 168.899 272.652 169.75 272.989 170.676C273.326 171.601 273.478 172.584 273.435 173.569C273.391 174.553 273.155 175.519 272.739 176.412C272.322 177.305 271.734 178.107 271.008 178.773C270.281 179.438 269.431 179.954 268.505 180.291L256.059 184.821C255.237 185.12 254.369 185.272 253.495 185.271Z" fill="#937254"/>
<path d="M348.627 194.851C347.533 194.851 346.453 194.61 345.462 194.146L333.457 188.546C332.564 188.13 331.762 187.542 331.096 186.815C330.43 186.089 329.914 185.239 329.577 184.313C329.24 183.387 329.089 182.404 329.131 181.42C329.174 180.435 329.411 179.469 329.827 178.576C330.243 177.683 330.831 176.881 331.558 176.215C332.284 175.549 333.134 175.033 334.06 174.696C334.986 174.359 335.969 174.208 336.953 174.251C337.938 174.293 338.904 174.53 339.797 174.946L351.802 180.546C353.351 181.267 354.608 182.495 355.364 184.027C356.12 185.559 356.33 187.304 355.96 188.972C355.589 190.64 354.661 192.131 353.327 193.199C351.994 194.268 350.336 194.849 348.627 194.846V194.851Z" fill="#937254"/>
<path d="M166.77 206.938C165.005 206.94 163.297 206.32 161.944 205.186C160.592 204.053 159.682 202.479 159.376 200.741C159.069 199.003 159.385 197.213 160.268 195.685C161.151 194.158 162.544 192.99 164.203 192.388L176.649 187.858C178.519 187.178 180.582 187.268 182.385 188.109C184.189 188.95 185.584 190.473 186.264 192.343C186.945 194.212 186.855 196.276 186.014 198.079C185.173 199.882 183.65 201.278 181.78 201.958L169.334 206.488C168.512 206.787 167.644 206.939 166.77 206.938Z" fill="#937254"/>
<g opacity="0.1">
<path opacity="0.1" d="M255.705 91.7551C251.755 91.7551 247.848 91.9371 243.985 92.2741C277.17 95.2051 308.055 110.459 330.552 135.03C353.05 159.601 365.529 191.706 365.531 225.021H388.97C388.97 207.52 385.523 190.191 378.826 174.023C372.129 157.854 362.313 143.163 349.938 130.788C337.563 118.413 322.872 108.597 306.704 101.899C290.535 95.2022 273.206 91.7551 255.705 91.7551Z" fill="black"/>
</g>
</svg>
