<svg width="512" height="512" viewBox="0 0 512 512" fill="none" xmlns="http://www.w3.org/2000/svg">
<path d="M338.671 512.025H154.29C148.321 512.026 142.548 509.901 138.003 506.031C133.459 502.162 130.441 496.801 129.49 490.908L76.4349 162.125C75.9088 158.869 76.0962 155.537 76.9843 152.36C77.8724 149.183 79.4398 146.237 81.5783 143.725C83.7169 141.213 86.3754 139.196 89.3701 137.813C92.3647 136.429 95.6241 135.713 98.9229 135.713H394.038C397.336 135.713 400.595 136.429 403.59 137.813C406.584 139.196 409.242 141.212 411.381 143.724C413.519 146.235 415.087 149.181 415.975 152.357C416.863 155.533 417.051 158.865 416.526 162.121L363.47 490.908C362.519 496.8 359.501 502.161 354.957 506.031C350.413 509.9 344.639 512.025 338.671 512.025Z" fill="#9BD8EB"/>
<path opacity="0.3" d="M122.42 447.082L129.492 490.908C130.443 496.8 133.461 502.162 138.005 506.031C142.549 509.901 148.323 512.026 154.292 512.025H338.671C344.64 512.025 350.413 509.901 354.958 506.031C359.502 502.162 362.52 496.8 363.471 490.908L370.543 447.082H122.42Z" fill="white"/>
<path d="M193.055 302.145L138.89 70.313C137.654 64.9448 134.63 60.1562 130.314 56.7328C125.998 53.3095 120.647 51.4548 115.138 51.473H42.465C40.4851 51.4728 38.5863 50.6861 37.1864 49.2859C35.7865 47.8858 35 45.987 35 44.007V24.466C35 22.4862 35.7865 20.5875 37.1864 19.1875C38.5864 17.7875 40.4852 17.001 42.465 17.001H115.138C128.432 16.9578 141.347 21.4345 151.762 29.6966C162.177 37.9587 169.475 49.5156 172.458 62.471L226.623 294.303L193.055 302.145Z" fill="#59A8ED"/>
<path opacity="0.1" d="M172.458 62.4701C169.475 49.5145 162.177 37.9576 151.762 29.6954C141.347 21.4333 128.432 16.9566 115.138 17.0001V51.4731C120.646 51.455 125.998 53.3098 130.313 56.7332C134.629 60.1565 137.653 64.945 138.889 70.3131L141.977 83.5291H177.377L172.458 62.4701Z" fill="black"/>
<path d="M375.085 245.526C369.456 239.896 362.772 235.431 355.417 232.384C348.062 229.337 340.178 227.769 332.217 227.769C324.256 227.769 316.372 229.337 309.017 232.384C301.662 235.431 294.978 239.896 289.349 245.526C277.98 256.895 262.56 263.282 246.481 263.282C230.402 263.282 214.982 256.895 203.613 245.526C197.984 239.896 191.3 235.431 183.945 232.384C176.59 229.337 168.706 227.769 160.745 227.769C152.784 227.769 144.9 229.337 137.545 232.384C130.19 235.431 123.506 239.896 117.877 245.526C110.772 252.652 101.998 257.889 92.353 260.759L122.42 447.082H370.542L400.61 260.759C390.965 257.889 382.191 252.652 375.085 245.526Z" fill="#C584E8"/>
<path opacity="0.5" d="M375.085 245.526C363.716 234.157 348.296 227.77 332.217 227.77C316.138 227.77 300.718 234.157 289.349 245.526C283.72 251.156 277.036 255.621 269.681 258.668C262.326 261.715 254.442 263.283 246.481 263.283C238.52 263.283 230.636 261.715 223.281 258.668C215.926 255.621 209.242 251.156 203.613 245.526C192.244 234.157 176.824 227.77 160.745 227.77C144.666 227.77 129.246 234.157 117.877 245.526C110.772 252.652 101.998 257.889 92.353 260.759L96.471 286.28C104.509 283.247 111.807 278.533 117.877 272.454C123.506 266.824 130.19 262.359 137.545 259.312C144.9 256.265 152.784 254.697 160.745 254.697C168.706 254.697 176.59 256.265 183.945 259.312C191.3 262.359 197.984 266.824 203.613 272.454C214.982 283.823 230.402 290.21 246.481 290.21C262.56 290.21 277.98 283.823 289.349 272.454C294.978 266.824 301.662 262.359 309.017 259.312C316.372 256.265 324.256 254.697 332.217 254.697C340.178 254.697 348.062 256.265 355.417 259.312C362.772 262.359 369.456 266.824 375.085 272.454C381.155 278.533 388.453 283.247 396.491 286.28L400.609 260.759C390.964 257.888 382.19 252.652 375.085 245.526Z" fill="#9D69B9"/>
<path opacity="0.1" d="M394.038 135.713H320.924C324.222 135.713 327.481 136.429 330.476 137.812C333.47 139.195 336.129 141.212 338.267 143.723C340.406 146.235 341.973 149.18 342.861 152.357C343.75 155.533 343.938 158.865 343.412 162.121L290.355 490.908C289.404 496.801 286.386 502.162 281.842 506.031C277.297 509.901 271.524 512.026 265.555 512.025H338.669C344.638 512.026 350.411 509.901 354.956 506.031C359.5 502.162 362.518 496.801 363.469 490.908L416.526 162.125C417.052 158.869 416.865 155.537 415.977 152.36C415.088 149.183 413.521 146.237 411.382 143.725C409.244 141.213 406.585 139.196 403.591 137.813C400.596 136.429 397.337 135.713 394.038 135.713Z" fill="black"/>
<path opacity="0.15" d="M439.181 367.659C436.062 367.659 433.071 366.42 430.865 364.215C428.66 362.009 427.421 359.018 427.421 355.899C427.421 327.154 442.827 297.634 457.721 285.699C460.16 283.804 463.247 282.945 466.315 283.307C469.382 283.67 472.184 285.224 474.115 287.635C476.045 290.046 476.95 293.12 476.633 296.193C476.316 299.265 474.803 302.09 472.421 304.056C463.64 311.09 450.936 333.598 450.936 355.895C450.937 357.439 450.633 358.969 450.043 360.396C449.452 361.823 448.587 363.119 447.495 364.212C446.403 365.304 445.107 366.171 443.681 366.762C442.254 367.354 440.725 367.658 439.181 367.659Z" fill="white"/>
<path d="M411.802 389.956C407.6 369.874 396.92 351.727 381.402 338.305C372.356 330.499 362.051 324.79 353.256 322.469C353.681 306.024 350.04 289.122 337.234 274.029C335.947 272.512 334.11 271.569 332.128 271.406C330.145 271.244 328.179 271.876 326.663 273.163C325.146 274.45 324.202 276.286 324.04 278.269C323.877 280.251 324.509 282.217 325.796 283.734C336.916 296.839 339.218 312.2 337.95 327.481C337.87 327.913 337.829 328.351 337.825 328.79C336.725 340.208 333.725 351.544 331 361.822C327.562 374.777 324.847 385.01 326.5 393.056C326.901 395.004 328.06 396.714 329.721 397.808C331.383 398.902 333.41 399.291 335.359 398.89C337.307 398.488 339.016 397.33 340.11 395.669C341.204 394.007 341.593 391.979 341.192 390.031C340.248 385.444 342.792 375.839 345.492 365.669C348.088 356.477 350.196 347.154 351.807 337.739C359.079 340.465 365.787 344.507 371.596 349.662C384.642 360.963 393.615 376.235 397.136 393.131C397.557 395.075 398.733 396.773 400.406 397.85C402.078 398.927 404.11 399.295 406.054 398.874C407.998 398.453 409.696 397.277 410.773 395.605C411.85 393.932 412.218 391.9 411.797 389.956H411.802Z" fill="#937254"/>
<path d="M460.079 512C485.12 512 505.419 491.701 505.419 466.66C505.419 441.619 485.12 421.32 460.079 421.32C435.038 421.32 414.739 441.619 414.739 466.66C414.739 491.701 435.038 512 460.079 512Z" fill="#C584E8"/>
<g opacity="0.1">
<path opacity="0.1" d="M460.079 512C485.12 512 505.419 491.701 505.419 466.66C505.419 441.619 485.12 421.32 460.079 421.32C435.038 421.32 414.739 441.619 414.739 466.66C414.739 491.701 435.038 512 460.079 512Z" fill="black"/>
</g>
<g opacity="0.1">
<path opacity="0.1" d="M464.033 421.5C462.733 421.387 461.411 421.318 460.076 421.318C450.213 421.319 440.619 424.535 432.749 430.48C424.879 436.425 419.162 444.773 416.465 454.26C413.768 463.747 414.238 473.855 417.804 483.051C421.37 492.247 427.836 500.029 436.224 505.218C443.733 498.828 448.952 490.164 451.091 480.54C453.23 470.915 452.171 460.856 448.076 451.887C457.179 444.246 462.911 433.332 464.033 421.5Z" fill="black"/>
</g>
<path d="M392.389 512C417.43 512 437.729 491.701 437.729 466.66C437.729 441.619 417.43 421.32 392.389 421.32C367.348 421.32 347.049 441.619 347.049 466.66C347.049 491.701 367.348 512 392.389 512Z" fill="#C584E8"/>
<g opacity="0.1">
<path opacity="0.1" d="M394.228 421.362C393.618 421.338 393.006 421.316 392.39 421.316C385.668 421.321 379.03 422.82 372.958 425.703C366.885 428.587 361.53 432.784 357.278 437.991C353.026 443.198 349.984 449.285 348.372 455.811C346.76 462.337 346.618 469.14 347.957 475.728C348.567 475.752 349.178 475.775 349.795 475.775C356.518 475.77 363.155 474.271 369.227 471.388C375.3 468.504 380.656 464.306 384.908 459.099C389.16 453.892 392.201 447.806 393.813 441.279C395.425 434.753 395.567 427.95 394.228 421.362Z" fill="black"/>
</g>
<path d="M404.469 458.47C429.51 458.47 449.809 438.171 449.809 413.13C449.809 388.089 429.51 367.79 404.469 367.79C379.429 367.79 359.129 388.089 359.129 413.13C359.129 438.171 379.429 458.47 404.469 458.47Z" fill="#C584E8"/>
<g opacity="0.1">
<path opacity="0.1" d="M404.469 458.47C429.51 458.47 449.809 438.171 449.809 413.13C449.809 388.089 429.51 367.79 404.469 367.79C379.429 367.79 359.129 388.089 359.129 413.13C359.129 438.171 379.429 458.47 404.469 458.47Z" fill="black"/>
</g>
<g opacity="0.1">
<path opacity="0.1" d="M366.54 388.3C362.856 393.924 360.469 400.298 359.553 406.959C358.637 413.62 359.213 420.401 361.241 426.811C363.27 433.221 366.698 439.1 371.279 444.022C375.86 448.943 381.478 452.784 387.727 455.266C391.411 449.642 393.798 443.268 394.714 436.607C395.631 429.947 395.054 423.165 393.026 416.755C390.998 410.345 387.569 404.466 382.988 399.544C378.407 394.623 372.789 390.782 366.54 388.3Z" fill="black"/>
</g>
<path d="M340.169 466.65C365.21 466.65 385.509 446.351 385.509 421.31C385.509 396.27 365.21 375.97 340.169 375.97C315.129 375.97 294.829 396.27 294.829 421.31C294.829 446.351 315.129 466.65 340.169 466.65Z" fill="#C584E8"/>
</svg>
