<svg width="512" height="512" viewBox="0 0 512 512" fill="none" xmlns="http://www.w3.org/2000/svg">
<path d="M394.521 423.468L242.976 405.761L86.2199 423.468C81.0792 423.468 76.1491 425.51 72.5141 429.145C68.879 432.78 66.8369 437.71 66.8369 442.851C66.8369 447.992 68.879 452.922 72.5141 456.557C76.1491 460.192 81.0792 462.234 86.2199 462.234L240.371 487.117L394.521 462.234C399.662 462.234 404.592 460.192 408.227 456.557C411.862 452.922 413.904 447.992 413.904 442.851C413.904 437.71 411.862 432.78 408.227 429.145C404.592 425.51 399.662 423.468 394.521 423.468Z" fill="#68C9E0"/>
<path d="M445.048 372.928H400.364C395.53 372.928 390.894 371.008 387.476 367.589C384.057 364.171 382.137 359.535 382.137 354.701C382.137 349.867 384.057 345.231 387.476 341.813C390.894 338.394 395.53 336.474 400.364 336.474H445.048C453.056 336.474 460.735 333.293 466.398 327.631C472.06 321.968 475.241 314.289 475.241 306.281C475.241 298.273 472.06 290.594 466.398 284.931C460.735 279.269 453.056 276.088 445.048 276.088H400.364C395.53 276.088 390.894 274.168 387.476 270.749C384.057 267.331 382.137 262.695 382.137 257.861C382.137 253.027 384.057 248.391 387.476 244.973C390.894 241.554 395.53 239.634 400.364 239.634H445.048C462.724 239.634 479.676 246.656 492.174 259.154C504.673 271.653 511.695 288.605 511.695 306.281C511.695 323.957 504.673 340.909 492.174 353.408C479.676 365.906 462.724 372.928 445.048 372.928Z" fill="#68C9E0"/>
<path d="M52.5559 215.063C52.5559 345.351 36.2249 370.348 86.2189 423.469H394.519C444.514 370.35 428.182 345.352 428.182 215.063L240.369 195.68L52.5559 215.063Z" fill="#96D7E8"/>
<path d="M114.367 215.063L271.276 198.87L240.376 195.681L52.5559 215.063C52.5559 345.351 36.2249 370.348 86.2189 423.469H148.03C98.0359 370.349 114.367 345.351 114.367 215.063Z" fill="#68C9E0"/>
<path d="M426.098 46.2939L409.137 73.7749L408.637 102.399L427.59 102.528L444.548 75.0459L447.208 42.3049L426.098 46.2939Z" fill="#8B6C52"/>
<path d="M427.59 102.528L395.06 155.242L368.848 139.065L409.14 73.7751L427.59 102.528Z" fill="#FAE7CA"/>
<path d="M462.791 33.687L447.126 24.02C445.727 23.1572 444.042 22.8853 442.443 23.264C440.843 23.6428 439.46 24.6414 438.596 26.04L426.096 46.294L444.548 75.046L464.807 42.217C465.67 40.8184 465.943 39.1342 465.565 37.5347C465.187 35.9352 464.189 34.5513 462.791 33.687Z" fill="#FAE7CA"/>
<path d="M397.185 243.277C397.499 261.441 398.058 277.259 398.538 290.84C400.613 349.607 401.228 366.955 380.482 392.221H100.258C79.5119 366.955 80.1259 349.607 82.2019 290.84C82.6819 277.258 83.2399 261.44 83.5549 243.277H397.185Z" fill="#A37F60"/>
<path d="M124.407 392.221C106.199 358.654 112.677 325.006 114.114 243.276H83.5549C83.2409 261.44 82.6819 277.258 82.2019 290.839C80.1259 349.606 79.5119 366.954 100.258 392.22L124.407 392.221Z" fill="#8B6C52"/>
<path d="M419.048 181.1C431.992 112.4 362.771 107.253 362.771 107.253H117.968C117.968 107.253 48.748 112.4 61.691 181.1H419.048Z" fill="#E2D1B7"/>
<path d="M362.772 107.256C362.772 107.256 308.781 119.642 240.372 119.642C171.963 119.642 117.972 107.256 117.972 107.256C107.638 50.4379 199.579 45.2719 199.579 45.2719C211.8 8.58195 246.689 0.947947 269.157 0.0119468C271.11 -0.0822133 273.058 0.286805 274.841 1.08888C276.624 1.89095 278.192 3.10334 279.417 4.62708C280.643 6.15082 281.49 7.94272 281.891 9.85649C282.292 11.7703 282.234 13.7517 281.723 15.6389C277.384 30.7389 281.165 45.2719 281.165 45.2719C281.165 45.2719 373.106 50.4379 362.772 107.256Z" fill="#FAE7CA"/>
<path d="M113.654 163.167C112.418 163.168 111.201 162.872 110.103 162.304C109.006 161.737 108.061 160.914 107.348 159.905L95.5479 143.24C94.9614 142.412 94.5438 141.476 94.3188 140.487C94.0938 139.498 94.0659 138.474 94.2367 137.473C94.4074 136.473 94.7735 135.517 95.3141 134.658C95.8546 133.799 96.5589 133.055 97.3869 132.469C98.2149 131.882 99.1503 131.465 100.14 131.24C101.129 131.015 102.153 130.987 103.153 131.158C104.153 131.328 105.11 131.694 105.969 132.235C106.828 132.775 107.571 133.48 108.158 134.308L119.958 150.973C120.777 152.129 121.262 153.488 121.36 154.901C121.459 156.314 121.167 157.727 120.517 158.986C119.867 160.245 118.883 161.3 117.673 162.038C116.464 162.775 115.075 163.166 113.658 163.167H113.654Z" fill="#EC8094"/>
<path d="M168.163 92.5631C166.523 92.5638 164.925 92.0427 163.601 91.0752C162.277 90.1078 161.294 88.7441 160.796 87.1815C160.299 85.6189 160.311 83.9384 160.831 82.3831C161.351 80.8278 162.353 79.4784 163.691 78.5301L180.356 66.7301C181.184 66.1436 182.119 65.7259 183.109 65.5009C184.098 65.2759 185.122 65.248 186.122 65.4188C187.123 65.5896 188.079 65.9557 188.938 66.4962C189.797 67.0367 190.541 67.7411 191.127 68.5691C191.713 69.397 192.131 70.3324 192.356 71.3218C192.581 72.3112 192.609 73.3352 192.438 74.3354C192.267 75.3356 191.901 76.2923 191.361 77.151C190.82 78.0097 190.116 78.7536 189.288 79.34L172.622 91.1401C171.32 92.0667 169.761 92.5642 168.163 92.5631Z" fill="#5FBDFF"/>
<path d="M183.613 160.738C181.973 160.739 180.375 160.218 179.051 159.25C177.727 158.283 176.744 156.919 176.246 155.356C175.748 153.794 175.761 152.113 176.281 150.558C176.801 149.003 177.803 147.653 179.141 146.705L195.806 134.905C197.478 133.72 199.552 133.249 201.572 133.594C203.592 133.939 205.392 135.072 206.577 136.744C207.761 138.416 208.233 140.49 207.888 142.51C207.543 144.53 206.41 146.33 204.738 147.515L188.073 159.315C186.77 160.241 185.211 160.739 183.613 160.738Z" fill="#A37F60"/>
<path d="M234.631 89.2089C233.228 89.2067 231.852 88.8227 230.651 88.0981C229.45 87.3734 228.469 86.3355 227.813 85.0956C227.157 83.8557 226.851 82.4606 226.928 81.0599C227.004 79.6593 227.461 78.3059 228.248 77.1449L239.713 60.2449C240.866 58.5545 242.642 57.3903 244.651 57.0077C246.661 56.6251 248.741 57.0552 250.434 58.2039C252.127 59.3525 253.295 61.1257 253.683 63.1347C254.07 65.1436 253.645 67.2241 252.5 68.9199L241.035 85.8199C240.326 86.8658 239.372 87.7217 238.255 88.3126C237.139 88.9035 235.894 89.2112 234.631 89.2089Z" fill="#EC8094"/>
<path d="M367.087 163.167C365.67 163.166 364.281 162.775 363.072 162.038C361.862 161.301 360.878 160.245 360.228 158.987C359.578 157.728 359.286 156.315 359.384 154.902C359.483 153.489 359.968 152.13 360.787 150.974L372.587 134.309C373.772 132.637 375.572 131.503 377.592 131.159C379.612 130.814 381.686 131.285 383.358 132.47C385.03 133.654 386.163 135.455 386.508 137.474C386.853 139.494 386.382 141.569 385.197 143.241L373.397 159.906C372.683 160.915 371.738 161.738 370.64 162.306C369.542 162.873 368.323 163.169 367.087 163.167Z" fill="#EC8094"/>
<path d="M312.579 92.563C310.981 92.5634 309.422 92.0664 308.119 91.141L291.454 79.336C289.795 78.1463 288.674 76.3484 288.336 74.3351C287.998 72.3217 288.471 70.2565 289.651 68.5905C290.831 66.9246 292.622 65.7933 294.634 65.4437C296.645 65.0942 298.713 65.5548 300.386 66.725L317.05 78.525C318.388 79.4735 319.389 80.8229 319.909 82.3781C320.429 83.9333 320.442 85.6136 319.944 87.1761C319.446 88.7387 318.464 90.1023 317.14 91.07C315.816 92.0377 314.219 92.5591 312.579 92.559V92.563Z" fill="#A37F60"/>
<path d="M297.127 160.738C295.529 160.738 293.97 160.241 292.667 159.316L276.002 147.516C274.33 146.331 273.197 144.531 272.852 142.511C272.507 140.491 272.978 138.417 274.163 136.745C275.347 135.073 277.148 133.939 279.168 133.595C281.188 133.25 283.262 133.721 284.934 134.906L301.599 146.706C302.937 147.654 303.939 149.003 304.46 150.559C304.98 152.114 304.992 153.795 304.494 155.357C303.996 156.92 303.014 158.283 301.689 159.251C300.365 160.218 298.767 160.739 297.127 160.738Z" fill="#5FBDFF"/>
<path d="M428.185 176.3H52.5561C47.4159 176.3 42.4862 178.342 38.8513 181.976C35.2164 185.611 33.1739 190.54 33.1731 195.68C33.1731 200.821 35.2152 205.751 38.8502 209.386C42.4853 213.021 47.4154 215.063 52.5561 215.063H428.185C433.326 215.063 438.256 213.021 441.891 209.386C445.526 205.751 447.568 200.821 447.568 195.68C447.567 190.54 445.524 185.611 441.889 181.977C438.254 178.342 433.325 176.301 428.185 176.3Z" fill="#68C9E0"/>
<path d="M21 462.233C21.0003 475.432 26.2436 488.09 35.5767 497.423C44.9098 506.756 57.5681 512 70.767 512H409.974C423.173 512 435.831 506.756 445.164 497.423C454.497 488.09 459.741 475.432 459.741 462.233H21Z" fill="#FAE7CA"/>
</svg>
