<svg width="512" height="512" viewBox="0 0 512 512" fill="none" xmlns="http://www.w3.org/2000/svg">
<path d="M423.993 135.692H170.333C168.058 135.692 165.81 136.179 163.739 137.121C161.668 138.062 159.822 139.436 158.327 141.15C156.831 142.864 155.72 144.879 155.067 147.058C154.415 149.237 154.237 151.531 154.545 153.785L199.876 485.331C200.886 492.72 204.539 499.492 210.158 504.396C215.777 509.299 222.982 512 230.439 512H363.886C371.343 512 378.548 509.299 384.167 504.396C389.786 499.492 393.439 492.72 394.449 485.331L439.78 153.785C440.088 151.531 439.91 149.238 439.258 147.058C438.606 144.879 437.495 142.864 435.999 141.15C434.503 139.436 432.658 138.062 430.587 137.121C428.516 136.179 426.268 135.692 423.993 135.692Z" fill="#9BD8EB"/>
<g opacity="0.3">
<path opacity="0.3" d="M194.565 446.521L199.871 485.331C200.881 492.721 204.534 499.494 210.154 504.397C215.774 509.3 222.981 512.001 230.439 512H363.886C371.343 512 378.548 509.299 384.167 504.395C389.786 499.492 393.439 492.72 394.449 485.331L399.755 446.521H194.565Z" fill="white"/>
</g>
<path d="M248.627 318.651L188.097 59.5781C186.716 53.5792 183.336 48.2279 178.514 44.4021C173.691 40.5763 167.711 38.5033 161.555 38.5231H80.342C78.1296 38.5231 76.0077 37.6442 74.4433 36.0798C72.8789 34.5154 72 32.3935 72 30.1811V8.34211C72 6.12967 72.8789 4.00785 74.4433 2.44342C76.0077 0.878992 78.1296 0.000105737 80.342 0.000105737H161.555C176.412 -0.0484307 190.843 4.95423 202.482 14.1872C214.122 23.4202 222.277 36.3352 225.61 50.8131L286.14 309.887L248.627 318.651Z" fill="#E85668"/>
<g opacity="0.1">
<path opacity="0.1" d="M225.61 50.8131C222.277 36.3352 214.122 23.4202 202.482 14.1872C190.843 4.95423 176.411 -0.0484307 161.555 0.000105737V38.5231C167.711 38.5029 173.691 40.5758 178.514 44.4017C183.337 48.2275 186.716 53.579 188.097 59.5781L191.548 74.3471H231.109L225.61 50.8131Z" fill="black"/>
</g>
<path d="M162.707 213.481L194.565 446.521H399.756L431.619 213.481H162.707Z" fill="#FDA354"/>
<path d="M238.433 177.6L205.755 210.282C203.824 212.214 202.74 214.833 202.74 217.564C202.74 220.294 203.824 222.914 205.755 224.845L238.433 257.523C240.365 259.454 242.984 260.538 245.715 260.538C248.445 260.538 251.065 259.454 252.996 257.523L285.674 224.845C287.605 222.914 288.689 220.294 288.689 217.564C288.689 214.833 287.605 212.214 285.674 210.282L252.996 177.6C251.065 175.669 248.445 174.585 245.715 174.585C242.984 174.585 240.365 175.669 238.433 177.6Z" fill="white"/>
<path d="M338.689 179.189L319.589 220.156C319.03 221.355 318.712 222.652 318.655 223.973C318.597 225.295 318.8 226.615 319.252 227.858C319.705 229.101 320.398 230.242 321.291 231.218C322.185 232.193 323.262 232.982 324.461 233.541L365.428 252.641C366.627 253.2 367.924 253.517 369.245 253.575C370.567 253.633 371.887 253.43 373.13 252.977C374.372 252.525 375.514 251.832 376.489 250.938C377.464 250.045 378.254 248.968 378.813 247.769L397.913 206.802C398.472 205.603 398.79 204.306 398.847 202.985C398.905 201.663 398.702 200.343 398.25 199.1C397.797 197.857 397.104 196.716 396.211 195.741C395.317 194.765 394.24 193.976 393.041 193.417L352.074 174.317C349.653 173.188 346.883 173.068 344.373 173.981C341.862 174.895 339.818 176.768 338.689 179.189Z" fill="white"/>
<g opacity="0.1">
<path opacity="0.1" d="M423.993 135.692H383.819C386.094 135.692 388.342 136.179 390.413 137.121C392.484 138.062 394.33 139.436 395.825 141.15C397.321 142.864 398.432 144.879 399.085 147.058C399.737 149.237 399.915 151.531 399.607 153.785L354.276 485.331C353.266 492.72 349.613 499.493 343.994 504.396C338.375 509.299 331.169 512 323.712 512H363.886C371.343 512 378.548 509.299 384.167 504.396C389.786 499.492 393.439 492.72 394.449 485.331L439.78 153.785C440.088 151.531 439.91 149.238 439.258 147.058C438.606 144.879 437.495 142.864 435.999 141.15C434.503 139.436 432.658 138.062 430.587 137.121C428.516 136.179 426.268 135.692 423.993 135.692Z" fill="black"/>
</g>
<path d="M374.387 310.376H343.112C339.809 310.376 336.641 309.064 334.306 306.728C331.97 304.393 330.658 301.225 330.658 297.922V249.36C330.658 246.057 331.97 242.889 334.306 240.554C336.641 238.218 339.809 236.906 343.112 236.906H374.387C377.69 236.906 380.858 238.218 383.193 240.554C385.529 242.889 386.841 246.057 386.841 249.36V297.922C386.841 301.225 385.529 304.393 383.193 306.728C380.858 309.064 377.69 310.376 374.387 310.376Z" fill="#937254"/>
<path d="M358.75 290.306C356.761 290.306 354.853 289.516 353.447 288.109C352.04 286.703 351.25 284.795 351.25 282.806V264.476C351.25 262.487 352.04 260.579 353.447 259.173C354.853 257.766 356.761 256.976 358.75 256.976C360.739 256.976 362.647 257.766 364.053 259.173C365.46 260.579 366.25 262.487 366.25 264.476V282.806C366.25 284.795 365.46 286.703 364.053 288.109C362.647 289.516 360.739 290.306 358.75 290.306Z" fill="white"/>
<path d="M358.75 244.4C356.761 244.4 354.853 243.61 353.447 242.203C352.04 240.797 351.25 238.889 351.25 236.9V135.691C351.25 133.702 352.04 131.794 353.447 130.388C354.853 128.981 356.761 128.191 358.75 128.191C360.739 128.191 362.647 128.981 364.053 130.388C365.46 131.794 366.25 133.702 366.25 135.691V236.9C366.25 238.889 365.46 240.797 364.053 242.203C362.647 243.61 360.739 244.4 358.75 244.4Z" fill="#3E4B58"/>
</svg>
