<svg width="512" height="512" viewBox="0 0 512 512" fill="none" xmlns="http://www.w3.org/2000/svg">
<path d="M369.35 512H175.884C167.693 512 159.838 508.746 154.046 502.954C148.254 497.162 145 489.307 145 481.116V165.1H400.234V481.12C400.233 489.31 396.979 497.165 391.187 502.956C385.395 508.747 377.54 512 369.35 512Z" fill="#E4E7E9"/>
<path d="M355.311 66.5649H189.925L145 165.1H400.235L355.311 66.5649Z" fill="#E4E7E9"/>
<g opacity="0.1">
<path opacity="0.1" d="M355.311 66.5649H189.925L145 165.1H400.235L355.311 66.5649Z" fill="black"/>
</g>
<path d="M336.925 2.72075e-08H208.308C203.432 2.72075e-08 198.756 1.93699 195.308 5.38484C191.86 8.8327 189.923 13.509 189.923 18.385V66.566H355.309V18.385C355.309 15.9707 354.834 13.5799 353.91 11.3493C352.986 9.11866 351.632 7.09185 349.925 5.38461C348.218 3.67737 346.191 2.32313 343.961 1.39923C341.73 0.475328 339.339 -0.000131323 336.925 2.72075e-08V2.72075e-08Z" fill="#FDA354"/>
<g opacity="0.1">
<path opacity="0.1" d="M280.117 0H265.117V66.56H280.117V0Z" fill="black"/>
<path opacity="0.1" d="M238.297 0H223.297V66.56H238.297V0Z" fill="black"/>
<path opacity="0.1" d="M321.938 0H306.938V66.56H321.938V0Z" fill="black"/>
</g>
<path d="M254.347 355.114C212.247 343.045 173.509 352.49 145.001 371.29V481.116C145.001 489.307 148.255 497.162 154.047 502.954C159.839 508.746 167.694 512 175.885 512H369.352C377.543 512 385.398 508.746 391.19 502.954C396.982 497.162 400.236 489.307 400.236 481.116V324.755C360.261 357.181 300.848 368.444 254.347 355.114Z" fill="#FDA354"/>
<g opacity="0.3">
<path opacity="0.3" d="M254.347 355.114C212.247 343.045 173.509 352.49 145.001 371.29V406.651C173.509 387.851 212.244 378.406 254.347 390.475C300.847 403.805 360.262 392.542 400.235 360.116V324.755C360.261 357.181 300.848 368.444 254.347 355.114Z" fill="white"/>
</g>
<g opacity="0.1">
<path opacity="0.1" d="M279.957 151.648C295.685 151.648 308.435 138.898 308.435 123.17C308.435 107.442 295.685 94.6919 279.957 94.6919C264.229 94.6919 251.479 107.442 251.479 123.17C251.479 138.898 264.229 151.648 279.957 151.648Z" fill="black"/>
</g>
<path d="M272.617 144.308C288.345 144.308 301.095 131.558 301.095 115.83C301.095 100.102 288.345 87.3521 272.617 87.3521C256.889 87.3521 244.139 100.102 244.139 115.83C244.139 131.558 256.889 144.308 272.617 144.308Z" fill="white"/>
<g opacity="0.1">
<path opacity="0.1" d="M272.617 133.352C282.294 133.352 290.139 125.507 290.139 115.83C290.139 106.153 282.294 98.3081 272.617 98.3081C262.94 98.3081 255.095 106.153 255.095 115.83C255.095 125.507 262.94 133.352 272.617 133.352Z" fill="black"/>
</g>
<path d="M342.186 351C360.625 369.44 364.719 397.624 365.366 414.71C365.444 416.697 365.11 418.679 364.385 420.531C363.66 422.383 362.56 424.065 361.154 425.471C359.748 426.877 358.066 427.977 356.214 428.702C354.362 429.427 352.38 429.761 350.393 429.683C333.307 429.036 305.123 424.942 286.683 406.503C268.243 388.064 264.15 359.879 263.503 342.793C263.425 340.806 263.76 338.824 264.484 336.972C265.209 335.121 266.31 333.439 267.716 332.033C269.122 330.626 270.804 329.526 272.656 328.801C274.507 328.076 276.489 327.742 278.476 327.82C295.561 328.467 323.746 332.56 342.186 351Z" fill="#60D195"/>
<g opacity="0.1">
<path opacity="0.1" d="M331.918 403.73C330.933 403.73 329.958 403.536 329.049 403.159C328.139 402.781 327.313 402.228 326.618 401.53L291.66 366.572C290.959 365.877 290.402 365.05 290.021 364.138C289.64 363.227 289.443 362.25 289.44 361.262C289.438 360.274 289.631 359.296 290.008 358.383C290.385 357.47 290.939 356.641 291.637 355.942C292.336 355.244 293.165 354.69 294.078 354.313C294.991 353.937 295.97 353.744 296.957 353.746C297.945 353.748 298.922 353.945 299.834 354.326C300.745 354.707 301.572 355.265 302.267 355.966L337.218 390.927C338.266 391.976 338.979 393.312 339.268 394.766C339.557 396.22 339.408 397.727 338.841 399.096C338.274 400.466 337.314 401.637 336.081 402.461C334.849 403.285 333.401 403.726 331.918 403.727V403.73Z" fill="black"/>
</g>
<g opacity="0.1">
<path opacity="0.1" d="M278.477 327.82C276.49 327.742 274.508 328.076 272.656 328.801C270.805 329.526 269.123 330.626 267.716 332.032C266.31 333.438 265.21 335.12 264.485 336.972C263.76 338.824 263.426 340.806 263.504 342.793C264.151 359.879 268.244 388.063 286.684 406.503C288.238 408.052 289.874 409.517 291.584 410.892C292.542 408.178 293.373 405.454 294.079 402.753C305.859 398.455 316.178 390.902 323.834 380.97C331.49 371.039 336.17 359.139 337.329 346.653C319.077 331.9 294.124 328.412 278.477 327.82Z" fill="black"/>
</g>
<path d="M211.445 375.018C229.885 356.579 258.069 352.485 275.155 351.838C277.142 351.76 279.124 352.094 280.976 352.819C282.828 353.544 284.51 354.644 285.916 356.05C287.322 357.456 288.422 359.138 289.147 360.99C289.872 362.842 290.206 364.824 290.128 366.811C289.481 383.897 285.387 412.081 266.948 430.521C248.509 448.961 220.324 453.054 203.238 453.701C201.251 453.779 199.269 453.445 197.417 452.72C195.565 451.995 193.883 450.895 192.477 449.489C191.071 448.083 189.971 446.401 189.246 444.549C188.521 442.697 188.187 440.715 188.265 438.728C188.912 421.643 193.007 393.458 211.445 375.018Z" fill="#60D195"/>
<g opacity="0.1">
<path opacity="0.1" d="M221.718 427.749C220.236 427.748 218.787 427.307 217.555 426.483C216.323 425.659 215.362 424.488 214.795 423.118C214.228 421.749 214.08 420.242 214.368 418.788C214.657 417.334 215.37 415.998 216.418 414.949L251.376 379.991C252.788 378.609 254.687 377.84 256.662 377.851C258.638 377.861 260.529 378.651 261.926 380.047C263.323 381.444 264.112 383.335 264.122 385.311C264.133 387.286 263.364 389.186 261.982 390.597L227.018 425.552C226.323 426.249 225.496 426.802 224.587 427.179C223.677 427.556 222.703 427.75 221.718 427.749Z" fill="black"/>
</g>
<path d="M263.487 398.79C300.043 398.79 329.677 369.156 329.677 332.6C329.677 296.044 300.043 266.41 263.487 266.41C226.931 266.41 197.297 296.044 197.297 332.6C197.297 369.156 226.931 398.79 263.487 398.79Z" fill="#FDA354"/>
<g opacity="0.1">
<path opacity="0.1" d="M227.627 360.099C231.415 360.099 234.486 357.028 234.486 353.24C234.486 349.452 231.415 346.381 227.627 346.381C223.839 346.381 220.768 349.452 220.768 353.24C220.768 357.028 223.839 360.099 227.627 360.099Z" fill="black"/>
<path opacity="0.1" d="M227.627 332.779C231.415 332.779 234.486 329.708 234.486 325.92C234.486 322.132 231.415 319.061 227.627 319.061C223.839 319.061 220.768 322.132 220.768 325.92C220.768 329.708 223.839 332.779 227.627 332.779Z" fill="black"/>
<path opacity="0.1" d="M253.347 368.329C257.135 368.329 260.206 365.258 260.206 361.47C260.206 357.682 257.135 354.611 253.347 354.611C249.559 354.611 246.488 357.682 246.488 361.47C246.488 365.258 249.559 368.329 253.347 368.329Z" fill="black"/>
<path opacity="0.1" d="M300.998 314.949C304.786 314.949 307.857 311.878 307.857 308.09C307.857 304.302 304.786 301.231 300.998 301.231C297.21 301.231 294.139 304.302 294.139 308.09C294.139 311.878 297.21 314.949 300.998 314.949Z" fill="black"/>
</g>
<path d="M360.218 476.454H300.994C299.005 476.454 297.097 475.664 295.691 474.257C294.284 472.851 293.494 470.943 293.494 468.954C293.494 466.965 294.284 465.057 295.691 463.651C297.097 462.244 299.005 461.454 300.994 461.454H360.218C362.207 461.454 364.115 462.244 365.521 463.651C366.928 465.057 367.718 466.965 367.718 468.954C367.718 470.943 366.928 472.851 365.521 474.257C364.115 475.664 362.207 476.454 360.218 476.454Z" fill="white"/>
<g opacity="0.1">
<path opacity="0.1" d="M355.311 66.5649H316.496L361.418 165.1V481.12C361.417 489.31 358.163 497.164 352.372 502.955C346.58 508.746 338.726 511.999 330.536 512H369.351C377.542 512 385.398 508.746 391.189 502.954C396.981 497.162 400.235 489.307 400.235 481.116V165.1L355.311 66.5649Z" fill="black"/>
</g>
<g opacity="0.1">
<path opacity="0.1" d="M336.926 0H298.111C302.987 0 307.663 1.93699 311.111 5.38484C314.559 8.8327 316.496 13.509 316.496 18.385V66.566H355.311V18.385C355.311 13.509 353.374 8.8327 349.926 5.38484C346.478 1.93699 341.802 0 336.926 0V0Z" fill="black"/>
</g>
</svg>
