<svg width="519" height="512" viewBox="0 0 519 512" fill="none" xmlns="http://www.w3.org/2000/svg">
<path d="M374.127 105.867H81.4L110.291 458.33C110.921 466.018 114.42 473.187 120.092 478.414C125.765 483.64 133.196 486.542 140.909 486.542H347.958C355.671 486.542 363.102 483.64 368.775 478.414C374.447 473.187 377.946 466.018 378.576 458.33L404.744 139.097C405.091 134.865 404.557 130.608 403.176 126.593C401.795 122.578 399.597 118.893 396.72 115.77C393.843 112.648 390.35 110.156 386.461 108.451C382.573 106.747 378.373 105.867 374.127 105.867Z" fill="#96D7E8"/>
<path d="M90.575 217.795C118.664 215.457 144.85 202.656 163.949 181.927C183.048 161.198 193.666 134.053 193.7 105.867H81.4L90.575 217.795Z" fill="#68C9E0"/>
<path d="M81.405 187.268C126.364 187.268 162.81 150.822 162.81 105.863C162.81 60.9043 126.364 24.458 81.405 24.458C36.4463 24.458 0 60.9043 0 105.863C0 150.822 36.4463 187.268 81.405 187.268Z" fill="#E6C468"/>
<path d="M81.405 158.263C110.345 158.263 133.805 134.803 133.805 105.863C133.805 76.9234 110.345 53.4631 81.405 53.4631C52.4653 53.4631 29.005 76.9234 29.005 105.863C29.005 134.803 52.4653 158.263 81.405 158.263Z" fill="#FDD974"/>
<path d="M133.8 98.14H100.053L123.916 74.277C124.641 73.5612 125.217 72.7092 125.611 71.7699C126.005 70.8306 126.21 69.8227 126.213 68.804C126.216 67.7853 126.018 66.7761 125.63 65.8344C125.241 64.8927 124.671 64.037 123.95 63.3167C123.23 62.5964 122.374 62.0257 121.433 61.6373C120.491 61.249 119.482 61.0507 118.463 61.0539C117.444 61.0571 116.436 61.2616 115.497 61.6559C114.558 62.0501 113.706 62.6262 112.99 63.351L89.126 87.213V53.465C89.126 51.416 88.312 49.4508 86.8631 48.0019C85.4142 46.553 83.4491 45.739 81.4 45.739C79.3509 45.739 77.3858 46.553 75.9369 48.0019C74.488 49.4508 73.674 51.416 73.674 53.465V87.213L49.81 63.35C48.358 61.9161 46.3977 61.1149 44.357 61.1212C42.3163 61.1276 40.3611 61.9411 38.9181 63.3841C37.4751 64.8271 36.6616 66.7824 36.6552 68.823C36.6488 70.8637 37.4501 72.824 38.884 74.276L62.747 98.139H29C27.9728 98.1188 26.9519 98.3036 25.997 98.6827C25.0421 99.0618 24.1724 99.6276 23.4388 100.347C22.7051 101.066 22.1224 101.925 21.7245 102.872C21.3267 103.819 21.1218 104.836 21.1218 105.864C21.1218 106.891 21.3267 107.908 21.7245 108.855C22.1224 109.803 22.7051 110.661 23.4388 111.38C24.1724 112.099 25.0421 112.665 25.997 113.044C26.9519 113.423 27.9728 113.608 29 113.588H62.747L38.884 137.454C38.1592 138.17 37.5831 139.022 37.1889 139.961C36.7946 140.9 36.59 141.908 36.5868 142.927C36.5837 143.946 36.7819 144.955 37.1703 145.897C37.5587 146.838 38.1294 147.694 38.8497 148.414C39.57 149.135 40.4256 149.705 41.3674 150.094C42.3091 150.482 43.3183 150.68 44.337 150.677C45.3556 150.674 46.3636 150.469 47.3029 150.075C48.2422 149.681 49.0942 149.105 49.81 148.38L73.673 124.517V158.265C73.673 159.28 73.8728 160.284 74.2611 161.222C74.6494 162.159 75.2185 163.011 75.9359 163.728C76.6533 164.446 77.505 165.015 78.4424 165.403C79.3798 165.791 80.3844 165.991 81.399 165.991C82.4136 165.991 83.4183 165.791 84.3556 165.403C85.293 165.015 86.1447 164.446 86.8621 163.728C87.5795 163.011 88.1486 162.159 88.5369 161.222C88.9252 160.284 89.125 159.28 89.125 158.265V124.518L112.988 148.381C113.704 149.106 114.556 149.682 115.495 150.076C116.434 150.47 117.442 150.675 118.461 150.678C119.48 150.681 120.489 150.483 121.431 150.095C122.372 149.706 123.228 149.136 123.948 148.415C124.669 147.695 125.239 146.839 125.628 145.898C126.016 144.956 126.214 143.947 126.211 142.928C126.208 141.909 126.003 140.901 125.609 139.962C125.215 139.023 124.639 138.171 123.914 137.455L100.051 113.588H133.8C135.849 113.588 137.814 112.774 139.263 111.325C140.712 109.876 141.526 107.911 141.526 105.862C141.526 103.813 140.712 101.848 139.263 100.399C137.814 98.95 135.849 98.136 133.8 98.136V98.14Z" fill="#E6C468"/>
<path d="M439.979 22.177L435.824 5.24604C435.388 3.47254 434.266 1.94466 432.704 0.998394C431.142 0.0521271 429.269 -0.235043 427.495 0.200037L342.855 20.973C334.021 23.1066 325.965 27.6809 319.607 34.1738C313.248 40.6667 308.843 48.8165 306.895 57.693L253.13 298.431L283.585 305.231L337.351 64.488C338.052 61.2933 339.637 58.36 341.925 56.0232C344.214 53.6864 347.114 52.0404 350.293 51.273L434.933 30.5C436.706 30.0653 438.233 28.9443 439.18 27.3835C440.126 25.8226 440.413 23.9499 439.979 22.177Z" fill="#E3E6E8"/>
<path d="M282.132 279.988C222.341 279.988 200.09 251.031 125.974 267.688L141.356 455.33H347.516L363.066 265.621C341.693 272.888 312.909 279.988 282.132 279.988Z" fill="#FDD974"/>
<path d="M125.975 267.695L136.228 392.795L141.355 455.342H172.255L156.182 263.026C146.013 263.848 135.917 265.408 125.975 267.695Z" fill="#E6C468"/>
<path d="M183.929 359.147C181.88 359.147 179.915 358.333 178.466 356.884C177.017 355.435 176.203 353.47 176.203 351.421V340.455C176.203 338.406 177.017 336.441 178.466 334.992C179.915 333.543 181.88 332.729 183.929 332.729C185.978 332.729 187.943 333.543 189.392 334.992C190.841 336.441 191.655 338.406 191.655 340.455V351.421C191.655 353.47 190.841 355.435 189.392 356.884C187.943 358.333 185.978 359.147 183.929 359.147Z" fill="#3B484A"/>
<path d="M305.11 359.147C303.061 359.147 301.096 358.333 299.647 356.884C298.198 355.435 297.384 353.47 297.384 351.421V340.455C297.384 338.406 298.198 336.441 299.647 334.992C301.096 333.543 303.061 332.729 305.11 332.729C307.159 332.729 309.124 333.543 310.573 334.992C312.022 336.441 312.836 338.406 312.836 340.455V351.421C312.836 353.47 312.022 355.435 310.573 356.884C309.124 358.333 307.159 359.147 305.11 359.147Z" fill="#3B484A"/>
<path d="M244.519 367.251C239.952 367.284 235.431 366.34 231.258 364.483C227.086 362.625 223.359 359.896 220.328 356.48C218.979 354.937 218.299 352.922 218.436 350.877C218.573 348.833 219.517 346.927 221.06 345.578C222.603 344.229 224.618 343.549 226.663 343.686C228.707 343.823 230.613 344.767 231.962 346.31C233.564 348.041 235.506 349.422 237.667 350.366C239.828 351.31 242.16 351.798 244.519 351.798C246.877 351.798 249.209 351.31 251.37 350.366C253.531 349.422 255.473 348.041 257.075 346.31C257.743 345.546 258.554 344.921 259.464 344.471C260.373 344.021 261.362 343.754 262.374 343.686C263.387 343.618 264.403 343.75 265.364 344.075C266.325 344.399 267.213 344.91 267.977 345.578C268.741 346.246 269.366 347.057 269.816 347.967C270.266 348.876 270.533 349.865 270.601 350.877C270.669 351.89 270.537 352.906 270.212 353.867C269.888 354.828 269.377 355.716 268.709 356.48C265.678 359.896 261.952 362.625 257.779 364.483C253.607 366.341 249.086 367.284 244.519 367.251Z" fill="#3B484A"/>
<path d="M439.584 299.003C428.571 307.67 423.258 321.95 427.278 335.586C431.298 349.222 443.51 358.333 457.463 359.639C468.476 350.972 473.789 336.692 469.769 323.056C465.749 309.42 453.538 300.308 439.584 299.003Z" fill="#51D09A"/>
<path d="M457.461 367.368C455.794 367.367 454.171 366.826 452.836 365.827C451.501 364.828 450.525 363.424 450.054 361.825L440.5 329.425C440.213 328.452 440.121 327.432 440.228 326.423C440.335 325.414 440.64 324.436 441.126 323.545C441.611 322.654 442.267 321.867 443.056 321.229C443.846 320.592 444.753 320.116 445.726 319.829C446.699 319.542 447.719 319.45 448.728 319.557C449.737 319.664 450.715 319.969 451.606 320.455C452.497 320.94 453.284 321.596 453.922 322.385C454.559 323.175 455.035 324.082 455.322 325.055L464.876 357.455C465.215 358.608 465.281 359.824 465.068 361.006C464.855 362.189 464.37 363.306 463.65 364.268C462.93 365.23 461.996 366.011 460.922 366.549C459.848 367.087 458.663 367.368 457.461 367.368Z" fill="#42AA7E"/>
<path d="M511.117 335.064C499.484 327.248 484.262 326.581 472.523 334.598C460.784 342.615 455.866 357.036 458.912 370.715C470.545 378.531 485.767 379.198 497.506 371.181C509.245 363.164 514.164 348.744 511.117 335.064Z" fill="#42AA7E"/>
<path d="M458.921 378.444C457.27 378.445 455.662 377.917 454.332 376.937C453.003 375.957 452.022 374.578 451.534 373C451.046 371.423 451.076 369.73 451.62 368.171C452.164 366.612 453.193 365.268 454.556 364.336L482.451 345.286C484.144 344.149 486.217 343.727 488.219 344.112C490.221 344.497 491.99 345.658 493.14 347.342C494.29 349.026 494.728 351.096 494.359 353.101C493.989 355.106 492.842 356.884 491.167 358.047L463.272 377.097C461.991 377.974 460.474 378.444 458.921 378.444Z" fill="#3B9870"/>
<path d="M468.006 364.193C439.973 336.16 392.123 338.561 361.13 369.554C330.136 400.548 327.736 448.398 355.768 476.43C383.801 504.463 431.651 502.063 462.645 471.069C493.638 440.076 496.039 392.225 468.006 364.193Z" fill="#E6C468"/>
<path d="M472.958 440.156C441.964 471.15 394.113 473.551 366.08 445.519C350.788 430.227 344.574 409.039 347.096 387.906C330.296 417.289 332.842 453.488 355.778 476.424C383.81 504.456 431.661 502.056 462.656 471.061C476.062 457.831 484.635 440.482 487 421.796C483.156 428.513 478.434 434.687 472.958 440.156Z" fill="#CAAC5C"/>
</svg>
