<svg width="512" height="512" viewBox="0 0 512 512" fill="none" xmlns="http://www.w3.org/2000/svg">
<path d="M195.27 54.1001V85.2531C195.271 100.132 191.578 114.778 184.523 127.877L145.306 200.677C128.042 232.728 119.005 268.564 119.006 304.969V476.994C119.006 486.277 122.694 495.18 129.258 501.745C135.821 508.31 144.724 511.999 154.007 512H357.041C366.326 512 375.23 508.312 381.795 501.747C388.36 495.182 392.048 486.278 392.048 476.993V304.97C392.049 268.565 383.012 232.729 365.748 200.678L326.523 127.877C319.467 114.778 315.773 100.132 315.773 85.2531V54.1001H195.27Z" fill="#E4E7E9"/>
<path d="M186.723 459.539L169.323 442.262C165.197 438.163 162.71 432.7 162.326 426.898C161.943 421.095 163.691 415.352 167.242 410.747C169.159 408.26 170.567 405.42 171.385 402.388C172.203 399.356 172.415 396.193 172.009 393.079C171.603 389.966 170.586 386.963 169.018 384.243C167.449 381.522 165.359 379.138 162.868 377.227C156.739 372.462 149.553 369.241 141.918 367.836C134.282 366.431 126.421 366.884 118.997 369.156V476.993C118.997 481.59 119.903 486.143 121.662 490.39C123.422 494.638 126.001 498.497 129.252 501.748C132.503 504.999 136.363 507.577 140.61 509.336C144.858 511.095 149.411 512 154.008 512H188.008C194.601 504.778 198.149 495.287 197.909 485.511C197.67 475.735 193.662 466.43 186.723 459.539Z" fill="#3E4B58"/>
<path d="M326.528 127.876C322.648 120.668 319.77 112.963 317.976 104.976C311.791 104.678 305.582 104.682 299.347 104.988C292.623 105.324 286.065 107.199 280.18 110.47C274.295 113.74 269.239 118.317 265.402 123.85C258.826 133.332 256.127 144.971 257.86 156.38C259.592 167.788 265.625 178.101 274.719 185.204C281.114 190.198 288.686 193.461 296.708 194.68C304.729 195.899 312.93 195.032 320.519 192.163C329.235 188.868 338.83 188.735 347.634 191.787L364.022 197.468L326.528 127.876Z" fill="#3E4B58"/>
<path d="M313.098 1.98451e-07H197.95C191.935 1.98451e-07 186.167 2.38939 181.914 6.64253C177.66 10.8957 175.271 16.6642 175.271 22.679V41.606C175.271 44.9212 176.588 48.1006 178.932 50.4448C181.276 52.789 184.456 54.106 187.771 54.106H323.279C326.594 54.106 329.774 52.789 332.118 50.4448C334.462 48.1006 335.779 44.9212 335.779 41.606V22.679C335.779 19.7005 335.193 16.7512 334.053 13.9995C332.913 11.2478 331.242 8.74752 329.136 6.64153C327.03 4.53553 324.529 2.86506 321.778 1.72549C319.026 0.585932 316.076 -0.000393815 313.098 1.98451e-07Z" fill="#59A8ED"/>
<path opacity="0.1" d="M313.098 0H283.493C289.508 0 295.276 2.38939 299.53 6.64253C303.783 10.8957 306.172 16.6642 306.172 22.679V41.606C306.172 44.9212 304.855 48.1006 302.511 50.4448C300.167 52.789 296.987 54.106 293.672 54.106H323.277C326.592 54.106 329.772 52.789 332.116 50.4448C334.46 48.1006 335.777 44.9212 335.777 41.606V22.679C335.777 19.7008 335.191 16.7517 334.051 14.0001C332.911 11.2486 331.241 8.74846 329.135 6.64253C327.029 4.53659 324.529 2.86606 321.777 1.72634C319.025 0.58661 316.076 0 313.098 0V0Z" fill="black"/>
<path opacity="0.1" d="M365.745 200.678L326.523 127.876C319.467 114.777 315.773 100.132 315.773 85.2531V54.1001H195.27V81.8381H278.823C279.729 81.8381 280.597 82.1979 281.238 82.8383C281.878 83.4788 282.238 84.3474 282.238 85.2531C282.238 100.132 285.932 114.777 292.988 127.876L332.205 200.676C349.469 232.727 358.506 268.563 358.505 304.968V476.994C358.505 486.278 354.817 495.182 348.252 501.747C341.687 508.312 332.783 512 323.499 512H357.039C366.323 512 375.228 508.312 381.793 501.747C388.358 495.182 392.046 486.278 392.046 476.993V304.97C392.048 268.565 383.01 232.729 365.745 200.678Z" fill="black"/>
<path d="M255.524 369.47C273.274 369.47 287.664 355.08 287.664 337.33C287.664 319.58 273.274 305.19 255.524 305.19C237.774 305.19 223.384 319.58 223.384 337.33C223.384 355.08 237.774 369.47 255.524 369.47Z" fill="#FDA354"/>
<path opacity="0.1" d="M272.2 309.841H238.849C231.752 314.149 226.596 321.036 224.462 329.06C222.327 337.083 223.38 345.622 227.398 352.887H283.651C287.67 345.622 288.722 337.083 286.587 329.06C284.453 321.036 279.297 314.149 272.2 309.841Z" fill="black"/>
<path d="M281.279 222.237H229.769C225.402 222.237 221.154 223.656 217.663 226.28C214.173 228.903 211.629 232.59 210.416 236.785L206.839 249.151C200.962 269.47 197.979 290.516 197.979 311.667V324.775C197.979 326.423 198.304 328.055 198.934 329.578C199.565 331.1 200.489 332.484 201.655 333.649C202.82 334.815 204.204 335.739 205.726 336.37C207.249 337 208.881 337.325 210.529 337.325H300.523C302.171 337.325 303.803 337 305.326 336.37C306.848 335.739 308.232 334.815 309.397 333.649C310.563 332.484 311.487 331.1 312.118 329.578C312.748 328.055 313.073 326.423 313.073 324.775V311.667C313.073 290.516 310.09 269.47 304.213 249.151L300.636 236.785C299.423 232.59 296.879 228.902 293.387 226.278C289.896 223.654 285.646 222.236 281.279 222.237Z" fill="#FDA354"/>
<path opacity="0.1" d="M304.209 249.151L300.632 236.785C299.419 232.59 296.875 228.903 293.385 226.28C289.894 223.656 285.646 222.237 281.279 222.237H262.967C267.334 222.236 271.583 223.655 275.074 226.279C278.565 228.903 281.109 232.59 282.323 236.785L285.9 249.151C291.777 269.47 294.76 290.516 294.76 311.667V324.775C294.76 326.423 294.435 328.055 293.805 329.578C293.174 331.1 292.25 332.484 291.084 333.649C289.919 334.815 288.535 335.739 287.013 336.37C285.49 337 283.858 337.325 282.21 337.325H300.523C302.171 337.325 303.803 337 305.326 336.37C306.848 335.739 308.232 334.815 309.397 333.649C310.563 332.484 311.487 331.1 312.118 329.578C312.748 328.055 313.073 326.423 313.073 324.775V311.667C313.072 290.515 310.088 269.469 304.209 249.151Z" fill="black"/>
<path d="M290.386 397.211L303.673 392.274C309.695 390.037 316.335 390.129 322.291 392.534L338.091 398.912C341.9 400.449 345.286 402.875 347.967 405.988C350.648 409.1 352.546 412.808 353.503 416.803C354.46 420.797 354.447 424.963 353.467 428.952C352.487 432.941 350.567 436.638 347.867 439.734L344.798 443.254C341.841 446.646 338.046 449.205 333.792 450.675C329.538 452.145 324.973 452.475 320.552 451.632L294.533 446.67C287.878 445.401 281.99 441.561 278.145 435.982C274.3 430.403 272.808 423.534 273.991 416.863C274.775 412.443 276.7 408.304 279.576 404.857C282.452 401.41 286.178 398.774 290.386 397.211Z" fill="#3E4B58"/>
</svg>
