<svg width="512" height="512" viewBox="0 0 512 512" fill="none" xmlns="http://www.w3.org/2000/svg">
<path d="M351.665 227.016H136.785V495.711C136.785 500.031 138.502 504.174 141.556 507.229C144.611 510.284 148.754 512 153.074 512H335.374C339.695 512 343.838 510.284 346.892 507.229C349.947 504.174 351.663 500.031 351.663 495.711V227.016H351.665Z" fill="#C584E8"/>
<g opacity="0.3">
<path opacity="0.3" d="M351.665 227.016H136.785V495.711C136.785 500.031 138.502 504.174 141.556 507.229C144.611 510.284 148.754 512 153.074 512H335.374C339.695 512 343.838 510.284 346.892 507.229C349.947 504.174 351.663 500.031 351.663 495.711V227.016H351.665Z" fill="white"/>
</g>
<path d="M296.16 98.3391V52.2581H192.291V98.3391C192.291 99.6289 191.943 100.895 191.284 102.003C190.625 103.112 189.679 104.023 188.546 104.639C151.784 124.639 125.304 163.828 120.095 210.204C119.865 212.324 120.085 214.47 120.74 216.499C121.395 218.529 122.47 220.398 123.896 221.984C125.322 223.57 127.066 224.838 129.015 225.705C130.964 226.572 133.073 227.018 135.206 227.014H353.244C355.377 227.018 357.487 226.572 359.436 225.705C361.384 224.838 363.129 223.57 364.554 221.984C365.98 220.398 367.056 218.529 367.711 216.499C368.366 214.47 368.585 212.324 368.355 210.204C363.147 163.828 336.667 124.641 299.904 104.639C298.772 104.022 297.826 103.112 297.167 102.003C296.508 100.894 296.161 99.6287 296.16 98.3391Z" fill="#C584E8"/>
<g opacity="0.3">
<path opacity="0.3" d="M296.16 98.3391V52.2581H192.291V98.3391C192.291 99.6289 191.943 100.895 191.284 102.003C190.625 103.112 189.679 104.023 188.546 104.639C151.784 124.639 125.304 163.828 120.095 210.204C119.865 212.324 120.085 214.47 120.74 216.499C121.395 218.529 122.47 220.398 123.896 221.984C125.322 223.57 127.066 224.838 129.015 225.705C130.964 226.572 133.073 227.018 135.206 227.014H353.244C355.377 227.018 357.487 226.572 359.436 225.705C361.384 224.838 363.129 223.57 364.554 221.984C365.98 220.398 367.056 218.529 367.711 216.499C368.366 214.47 368.585 212.324 368.355 210.204C363.147 163.828 336.667 124.641 299.904 104.639C298.772 104.022 297.826 103.112 297.167 102.003C296.508 100.894 296.161 99.6287 296.16 98.3391Z" fill="white"/>
</g>
<g opacity="0.1">
<path opacity="0.1" d="M368.355 210.206C363.147 163.83 336.667 124.643 299.904 104.641C298.771 104.025 297.826 103.114 297.167 102.005C296.507 100.897 296.16 99.6309 296.159 98.3411V52.2571H192.291V93.9821H263.649C263.996 93.9821 264.34 94.0504 264.661 94.1833C264.981 94.3161 265.273 94.5108 265.518 94.7562C265.764 95.0016 265.958 95.293 266.091 95.6137C266.224 95.9343 266.292 96.278 266.292 96.6251V98.5141C266.293 99.755 266.629 100.973 267.265 102.038C267.901 103.104 268.813 103.978 269.904 104.568C306.754 124.558 333.304 163.813 338.496 210.276C338.719 212.392 338.493 214.532 337.834 216.555C337.175 218.578 336.097 220.44 334.671 222.019C333.245 223.598 331.502 224.859 329.556 225.72C327.61 226.58 325.505 227.022 323.377 227.015H353.245C355.378 227.019 357.488 226.573 359.436 225.706C361.385 224.84 363.129 223.572 364.555 221.986C365.981 220.4 367.056 218.531 367.711 216.501C368.366 214.471 368.585 212.326 368.355 210.206Z" fill="black"/>
</g>
<path d="M302.981 52.258H185.47C183.178 52.258 180.979 51.3473 179.358 49.7262C177.737 48.1052 176.826 45.9065 176.826 43.614V8.644C176.826 6.35147 177.737 4.15283 179.358 2.53177C180.979 0.910705 183.178 0 185.47 0H302.981C305.274 0 307.472 0.910705 309.093 2.53177C310.714 4.15283 311.625 6.35147 311.625 8.644V43.614C311.625 45.9064 310.714 48.1049 309.093 49.7259C307.472 51.3469 305.274 52.2577 302.981 52.258Z" fill="#E4E7E9"/>
<g opacity="0.1">
<path opacity="0.1" d="M302.981 0H283.763C286.056 0 288.254 0.910705 289.875 2.53177C291.496 4.15283 292.407 6.35147 292.407 8.644V43.614C292.407 45.9065 291.496 48.1052 289.875 49.7262C288.254 51.3473 286.056 52.258 283.763 52.258H302.981C305.274 52.258 307.472 51.3473 309.093 49.7262C310.714 48.1052 311.625 45.9065 311.625 43.614V8.644C311.625 6.35155 310.714 4.15307 309.093 2.53206C307.472 0.911055 305.274 0.000265161 302.981 0V0Z" fill="black"/>
</g>
<path d="M351.665 227.02H136.785V433.55H351.665V227.02Z" fill="#E4E7E9"/>
<path d="M351.665 227.02H136.785V309.965H351.665V227.02Z" fill="#C584E8"/>
<path d="M202.119 400.168H183.498C181.891 400.168 180.3 399.851 178.815 399.236C177.33 398.621 175.981 397.72 174.845 396.584C173.708 395.447 172.807 394.098 172.192 392.613C171.577 391.128 171.26 389.537 171.26 387.93V309.961H214.36V387.93C214.361 389.537 214.044 391.129 213.429 392.614C212.814 394.099 211.912 395.449 210.775 396.585C209.639 397.722 208.289 398.623 206.804 399.238C205.319 399.853 203.727 400.169 202.119 400.168Z" fill="#3E4B58"/>
<path d="M202.119 265.207H183.498C180.253 265.207 177.14 266.496 174.845 268.791C172.55 271.087 171.26 274.199 171.26 277.445V309.961H214.36V277.445C214.361 275.838 214.044 274.246 213.429 272.761C212.814 271.276 211.912 269.926 210.775 268.79C209.639 267.653 208.289 266.752 206.804 266.137C205.319 265.522 203.727 265.206 202.119 265.207Z" fill="white"/>
<path d="M308.499 286.755H252.188C250.199 286.755 248.292 285.965 246.885 284.558C245.479 283.152 244.688 281.244 244.688 279.255C244.688 277.266 245.479 275.358 246.885 273.952C248.292 272.545 250.199 271.755 252.188 271.755H308.499C310.489 271.755 312.396 272.545 313.803 273.952C315.209 275.358 315.999 277.266 315.999 279.255C315.999 281.244 315.209 283.152 313.803 284.558C312.396 285.965 310.489 286.755 308.499 286.755Z" fill="#3E4B58"/>
<path d="M283.558 344.822H252.189C250.2 344.822 248.293 344.032 246.886 342.625C245.48 341.219 244.689 339.311 244.689 337.322C244.689 335.333 245.48 333.425 246.886 332.018C248.293 330.612 250.2 329.822 252.189 329.822H283.558C285.548 329.822 287.455 330.612 288.862 332.018C290.268 333.425 291.058 335.333 291.058 337.322C291.058 339.311 290.268 341.219 288.862 342.625C287.455 344.032 285.548 344.822 283.558 344.822Z" fill="#3E4B58"/>
<path d="M283.558 377.008H252.189C250.2 377.008 248.293 376.218 246.886 374.811C245.48 373.405 244.689 371.497 244.689 369.508C244.689 367.519 245.48 365.611 246.886 364.205C248.293 362.798 250.2 362.008 252.189 362.008H283.558C285.548 362.008 287.455 362.798 288.862 364.205C290.268 365.611 291.058 367.519 291.058 369.508C291.058 371.497 290.268 373.405 288.862 374.811C287.455 376.218 285.548 377.008 283.558 377.008Z" fill="#3E4B58"/>
<path d="M304.574 86.353H183.874C181.885 86.353 179.977 85.5629 178.571 84.1563C177.164 82.7498 176.374 80.8422 176.374 78.853C176.374 76.8639 177.164 74.9563 178.571 73.5497C179.977 72.1432 181.885 71.353 183.874 71.353H304.574C306.563 71.353 308.471 72.1432 309.878 73.5497C311.284 74.9563 312.074 76.8639 312.074 78.853C312.074 80.8422 311.284 82.7498 309.878 84.1563C308.471 85.5629 306.563 86.353 304.574 86.353Z" fill="#C584E8"/>
<g opacity="0.3">
<path opacity="0.3" d="M304.574 86.353H183.874C181.885 86.353 179.977 85.5629 178.571 84.1563C177.164 82.7498 176.374 80.8422 176.374 78.853C176.374 76.8639 177.164 74.9563 178.571 73.5497C179.977 72.1432 181.885 71.353 183.874 71.353H304.574C306.563 71.353 308.471 72.1432 309.878 73.5497C311.284 74.9563 312.074 76.8639 312.074 78.853C312.074 80.8422 311.284 82.7498 309.878 84.1563C308.471 85.5629 306.563 86.353 304.574 86.353Z" fill="white"/>
</g>
<g opacity="0.1">
<path opacity="0.1" d="M207.145 18.6289C205.156 18.6289 203.248 19.4191 201.842 20.8256C200.435 22.2321 199.645 24.1398 199.645 26.1289V52.2579H214.645V26.1289C214.645 24.1398 213.855 22.2321 212.449 20.8256C211.042 19.4191 209.134 18.6289 207.145 18.6289ZM244.225 18.6289C242.236 18.6289 240.328 19.4191 238.922 20.8256C237.515 22.2321 236.725 24.1398 236.725 26.1289V52.2579H251.725V26.1289C251.725 24.1398 250.935 22.2321 249.529 20.8256C248.122 19.4191 246.214 18.6289 244.225 18.6289ZM281.305 18.6289C279.316 18.6289 277.408 19.4191 276.002 20.8256C274.595 22.2321 273.805 24.1398 273.805 26.1289V52.2579H288.805V26.1289C288.805 24.1398 288.015 22.2321 286.609 20.8256C285.202 19.4191 283.294 18.6289 281.305 18.6289Z" fill="black"/>
</g>
<g opacity="0.1">
<path opacity="0.1" d="M136.785 227.016V246.737H322.503V470.223C322.503 474.1 320.963 477.819 318.221 480.561C315.479 483.302 311.761 484.843 307.883 484.843H136.785V495.711C136.785 500.031 138.502 504.174 141.556 507.229C144.611 510.284 148.754 512 153.074 512H335.374C339.695 512 343.838 510.284 346.892 507.229C349.947 504.174 351.663 500.031 351.663 495.711V227.016H136.785Z" fill="black"/>
</g>
</svg>
