<svg width="513" height="512" viewBox="0 0 513 512" fill="none" xmlns="http://www.w3.org/2000/svg">
<path d="M433.227 228.862C464.876 260.511 471.902 308.887 473.013 338.212C473.147 341.623 472.573 345.024 471.329 348.203C470.085 351.381 468.196 354.268 465.783 356.682C463.369 359.095 460.482 360.984 457.304 362.228C454.125 363.472 450.724 364.046 447.313 363.912C417.988 362.802 369.613 355.775 337.963 324.126C306.313 292.477 299.288 244.101 298.177 214.775C298.043 211.364 298.617 207.963 299.861 204.784C301.105 201.605 302.993 198.719 305.407 196.305C307.821 193.891 310.708 192.003 313.886 190.759C317.065 189.515 320.466 188.941 323.877 189.075C353.2 190.19 401.578 197.218 433.227 228.862Z" fill="#60D195"/>
<g opacity="0.1">
<path opacity="0.1" d="M415.6 314C414.615 314 413.64 313.806 412.731 313.429C411.821 313.051 410.995 312.498 410.3 311.8L350.3 251.8C349.572 251.111 348.989 250.284 348.585 249.366C348.182 248.448 347.967 247.459 347.953 246.456C347.939 245.454 348.126 244.459 348.503 243.53C348.88 242.601 349.439 241.757 350.148 241.048C350.857 240.339 351.7 239.779 352.629 239.402C353.558 239.024 354.553 238.837 355.555 238.851C356.557 238.865 357.547 239.079 358.465 239.482C359.383 239.884 360.211 240.467 360.9 241.195L420.9 301.195C421.948 302.244 422.661 303.58 422.95 305.034C423.239 306.488 423.09 307.995 422.523 309.364C421.956 310.734 420.996 311.905 419.763 312.729C418.531 313.553 417.082 313.994 415.6 313.995V314Z" fill="black"/>
</g>
<g opacity="0.1">
<path opacity="0.1" d="M433.227 228.862C401.578 197.213 353.202 190.187 323.876 189.076C320.465 188.942 317.064 189.516 313.885 190.76C310.707 192.004 307.82 193.893 305.406 196.306C302.992 198.72 301.104 201.607 299.86 204.785C298.616 207.964 298.042 211.365 298.176 214.776C299.286 244.101 306.313 292.476 337.962 324.126C350.921 337.085 366.685 345.911 382.797 351.898L392.422 292.262C416.429 291.001 439.572 282.885 459.108 268.875C453.2 254.462 444.888 240.526 433.227 228.862Z" fill="black"/>
</g>
<path d="M385.6 261.82C455.414 261.82 512.01 205.224 512.01 135.41C512.01 65.5957 455.414 9 385.6 9C315.786 9 259.19 65.5957 259.19 135.41C259.19 205.224 315.786 261.82 385.6 261.82Z" fill="#FDA354"/>
<g opacity="0.3">
<path opacity="0.3" d="M385.6 226.35C435.825 226.35 476.54 185.635 476.54 135.41C476.54 85.1852 435.825 44.47 385.6 44.47C335.375 44.47 294.66 85.1852 294.66 135.41C294.66 185.635 335.375 226.35 385.6 226.35Z" fill="white"/>
</g>
<path d="M385.6 112.942C383.611 112.942 381.703 112.152 380.297 110.745C378.89 109.339 378.1 107.431 378.1 105.442V83.252C378.1 81.2628 378.89 79.3552 380.297 77.9487C381.703 76.5421 383.611 75.752 385.6 75.752C387.589 75.752 389.497 76.5421 390.903 77.9487C392.31 79.3552 393.1 81.2628 393.1 83.252V105.442C393.1 107.431 392.31 109.339 390.903 110.745C389.497 112.152 387.589 112.942 385.6 112.942Z" fill="white"/>
<path d="M414.633 113.875C413.151 113.874 411.702 113.433 410.47 112.609C409.238 111.785 408.277 110.614 407.71 109.244C407.143 107.875 406.995 106.368 407.283 104.914C407.572 103.46 408.285 102.124 409.333 101.075L417.179 93.229C418.597 91.8829 420.485 91.1439 422.44 91.1693C424.395 91.1948 426.263 91.9828 427.646 93.3654C429.028 94.748 429.816 96.6159 429.842 98.571C429.867 100.526 429.128 102.414 427.782 103.832L419.936 111.678C419.241 112.376 418.414 112.929 417.504 113.306C416.594 113.683 415.618 113.876 414.633 113.875Z" fill="white"/>
<g opacity="0.1">
<path opacity="0.1" d="M386.86 135.414H259.19C259.19 152.014 262.46 168.452 268.812 183.788C275.165 199.125 284.477 213.06 296.215 224.798C307.953 236.536 321.889 245.846 337.225 252.199C352.562 258.551 369 261.82 385.6 261.819C388.166 261.819 390.712 261.733 393.241 261.582L409.341 161.808C409.866 158.553 409.678 155.223 408.79 152.048C407.902 148.873 406.335 145.928 404.197 143.418C402.059 140.909 399.402 138.893 396.408 137.511C393.415 136.129 390.157 135.413 386.86 135.414Z" fill="black"/>
</g>
<path d="M303.52 511.534H119.23C113.265 511.534 107.494 509.41 102.952 505.542C98.4106 501.675 95.3944 496.316 94.444 490.427L41.414 161.808C40.888 158.553 41.0753 155.223 41.9629 152.047C42.8504 148.872 44.4171 145.927 46.5546 143.416C48.6921 140.906 51.3493 138.889 54.3426 137.507C57.3359 136.124 60.5938 135.408 63.891 135.408H358.858C362.155 135.408 365.413 136.124 368.407 137.506C371.4 138.889 374.057 140.905 376.195 143.416C378.332 145.926 379.899 148.871 380.786 152.047C381.674 155.222 381.861 158.553 381.335 161.808L328.3 490.427C327.35 496.315 324.335 501.673 319.794 505.541C315.254 509.408 309.484 511.533 303.52 511.534Z" fill="#9BD8EB"/>
<g opacity="0.3">
<path opacity="0.3" d="M87.376 446.623L94.445 490.423C95.3954 496.312 98.4117 501.671 102.953 505.538C107.495 509.406 113.266 511.53 119.231 511.53H303.52C309.485 511.53 315.256 509.406 319.798 505.538C324.339 501.671 327.356 496.312 328.306 490.423L335.375 446.623H87.375H87.376Z" fill="white"/>
</g>
<path d="M157.976 301.762L103.838 70.0419C102.603 64.6767 99.5804 59.8906 95.2671 56.4689C90.9538 53.0473 85.6056 51.1932 80.1 51.2109H7.461C5.4823 51.2107 3.58472 50.4245 2.18557 49.0254C0.786418 47.6262 0.000265152 45.7286 0 43.7499L0 24.2179C-1.77696e-08 22.2391 0.786036 20.3412 2.18522 18.9418C3.5844 17.5425 5.48213 16.7562 7.461 16.7559H80.1C93.3876 16.7126 106.295 21.187 116.705 29.445C127.116 37.7029 134.41 49.254 137.391 62.2029L191.529 293.92L157.976 301.762Z" fill="#E85668"/>
<g opacity="0.1">
<path opacity="0.1" d="M137.39 62.2029C134.409 49.2541 127.115 37.703 116.705 29.4451C106.295 21.1871 93.3875 16.7127 80.1 16.7559V51.2109C85.6056 51.1932 90.9538 53.0473 95.267 56.4689C99.5803 59.8906 102.603 64.6767 103.838 70.0419L106.924 83.2519H142.307L137.39 62.2029Z" fill="black"/>
</g>
<path d="M339.915 245.162C334.288 239.535 327.609 235.072 320.257 232.027C312.905 228.981 305.026 227.414 297.068 227.414C289.111 227.414 281.232 228.981 273.88 232.027C266.528 235.072 259.849 239.535 254.222 245.162C248.595 250.789 241.916 255.252 234.564 258.298C227.212 261.343 219.333 262.91 211.375 262.91C203.418 262.91 195.539 261.343 188.187 258.298C180.835 255.252 174.156 250.789 168.529 245.162C162.902 239.535 156.223 235.072 148.871 232.027C141.519 228.981 133.64 227.414 125.682 227.414C117.725 227.414 109.846 228.981 102.494 232.027C95.1424 235.072 88.4626 239.535 82.8359 245.162C75.735 252.286 66.9654 257.522 57.325 260.392L87.3769 446.622H335.377L365.429 260.392C355.787 257.522 347.017 252.287 339.915 245.162Z" fill="#FDA354"/>
<g opacity="0.3">
<path opacity="0.3" d="M339.915 245.162C328.551 233.8 313.139 227.417 297.068 227.417C280.998 227.417 265.586 233.8 254.222 245.162C248.595 250.789 241.916 255.252 234.564 258.297C227.212 261.343 219.333 262.91 211.375 262.91C203.418 262.91 195.539 261.343 188.187 258.297C180.835 255.252 174.156 250.789 168.529 245.162C157.165 233.8 141.753 227.417 125.682 227.417C109.612 227.417 94.2003 233.8 82.8359 245.162C75.7353 252.286 66.9656 257.522 57.325 260.392L61.441 285.9C69.4765 282.869 76.7725 278.158 82.841 272.081C88.4676 266.454 95.1474 261.991 102.499 258.945C109.851 255.9 117.73 254.333 125.687 254.333C133.645 254.333 141.524 255.9 148.876 258.945C156.228 261.991 162.907 266.454 168.534 272.081C174.161 277.708 180.84 282.171 188.192 285.216C195.544 288.262 203.423 289.829 211.38 289.829C219.338 289.829 227.217 288.262 234.569 285.216C241.921 282.171 248.6 277.708 254.227 272.081C259.854 266.454 266.533 261.991 273.885 258.945C281.237 255.9 289.116 254.333 297.073 254.333C305.031 254.333 312.91 255.9 320.262 258.945C327.613 261.991 334.293 266.454 339.92 272.081C345.987 278.157 353.281 282.869 361.315 285.9L365.431 260.392C355.789 257.522 347.017 252.287 339.915 245.162Z" fill="white"/>
</g>
<g opacity="0.1">
<path opacity="0.1" d="M358.859 135.413H285.781C289.078 135.413 292.336 136.129 295.33 137.511C298.323 138.894 300.98 140.91 303.118 143.421C305.255 145.932 306.822 148.876 307.71 152.052C308.597 155.228 308.784 158.558 308.258 161.813L255.228 490.432C254.278 496.321 251.261 501.68 246.72 505.547C242.178 509.415 236.407 511.539 230.442 511.539H303.52C309.485 511.539 315.256 509.415 319.798 505.547C324.339 501.68 327.356 496.321 328.306 490.432L381.336 161.813C381.862 158.558 381.674 155.228 380.787 152.052C379.899 148.877 378.332 145.932 376.195 143.422C374.058 140.911 371.4 138.895 368.407 137.512C365.414 136.129 362.156 135.413 358.859 135.413Z" fill="black"/>
</g>
</svg>
