<svg width="512" height="512" viewBox="0 0 512 512" fill="none" xmlns="http://www.w3.org/2000/svg">
<path d="M0.192008 187.006C5.2401 150.603 22.0336 116.843 48.0208 90.856C74.0079 64.8689 107.768 48.0753 144.171 43.0272C147.046 42.6292 149.973 42.8516 152.755 43.6795C155.537 44.5075 158.109 45.9217 160.299 47.8271C162.489 49.7324 164.245 52.0847 165.449 54.7256C166.653 57.3665 167.278 60.2347 167.281 63.1372V210.116H20.3C17.3976 210.113 14.5296 209.488 11.889 208.284C9.24837 207.079 6.89635 205.323 4.99121 203.133C3.08607 200.944 1.67202 198.372 0.844195 195.59C0.0163733 192.808 -0.20601 189.881 0.192008 187.006Z" fill="#937254"/>
<path d="M23.243 210.115C23.243 171.914 38.4184 135.277 65.4307 108.265C92.4431 81.2525 129.08 66.0771 167.281 66.0771V210.115H23.243Z" fill="#FFDB62"/>
<g opacity="0.1">
<path opacity="0.1" d="M129.9 180.239C128.915 180.24 127.94 180.046 127.03 179.668C126.121 179.29 125.295 178.737 124.6 178.039L89.959 143.399C88.5772 141.988 87.8081 140.088 87.8186 138.113C87.8291 136.137 88.6184 134.246 90.0152 132.849C91.4119 131.453 93.3033 130.663 95.2785 130.653C97.2538 130.642 99.1535 131.411 100.565 132.793L135.208 167.433C136.256 168.482 136.969 169.818 137.258 171.272C137.546 172.726 137.398 174.233 136.831 175.602C136.264 176.972 135.303 178.143 134.071 178.967C132.839 179.791 131.39 180.232 129.908 180.233L129.9 180.239Z" fill="black"/>
<path opacity="0.1" d="M132.831 132.716C131.338 132.717 129.878 132.271 128.64 131.437C127.401 130.603 126.44 129.418 125.879 128.034L117.17 106.573C116.422 104.73 116.437 102.665 117.211 100.833C117.986 99.0004 119.456 97.5508 121.3 96.8027C123.143 96.0547 125.208 96.0695 127.04 96.8439C128.872 97.6184 130.322 99.089 131.07 100.932L139.779 122.393C140.24 123.532 140.415 124.766 140.287 125.988C140.16 127.21 139.735 128.382 139.049 129.401C138.363 130.42 137.438 131.255 136.354 131.833C135.27 132.411 134.06 132.715 132.832 132.716H132.831Z" fill="black"/>
<path opacity="0.1" d="M77.284 187.597C76.477 187.597 75.6754 187.466 74.91 187.21L56.019 180.91C54.132 180.281 52.5723 178.928 51.683 177.148C50.7937 175.369 50.6477 173.309 51.277 171.422C51.9064 169.535 53.2596 167.975 55.0389 167.086C56.8183 166.197 58.878 166.051 60.765 166.68L79.656 172.98C81.3469 173.542 82.7824 174.688 83.7054 176.212C84.6284 177.737 84.9785 179.54 84.6931 181.299C84.4077 183.057 83.5053 184.657 82.1477 185.811C80.7901 186.966 79.0659 187.599 77.284 187.597Z" fill="black"/>
</g>
<g opacity="0.1">
<path opacity="0.1" d="M144.171 43.0272C139.609 43.6525 135.109 44.4595 130.671 45.4482C133.815 47.2081 136.432 49.7748 138.253 52.8835C140.074 55.9923 141.032 59.5305 141.03 63.1332V210.115H167.281V63.1332C167.277 60.231 166.652 57.3632 165.448 54.7228C164.243 52.0825 162.487 49.7307 160.297 47.8258C158.108 45.9208 155.536 44.507 152.754 43.6793C149.972 42.8516 147.046 42.6292 144.171 43.0272Z" fill="black"/>
</g>
<path d="M372.635 512.466H183.248C175.605 512.466 168.209 509.76 162.37 504.828C156.531 499.896 152.627 493.056 151.348 485.521L101.721 193.08C101.049 189.12 101.249 185.061 102.308 181.186C103.366 177.311 105.257 173.714 107.849 170.646C110.441 167.577 113.671 165.111 117.314 163.419C120.957 161.727 124.925 160.851 128.942 160.851H426.942C430.959 160.851 434.927 161.727 438.57 163.419C442.213 165.111 445.443 167.577 448.035 170.646C450.627 173.714 452.518 177.311 453.576 181.186C454.635 185.061 454.835 189.12 454.163 193.08L404.537 485.521C403.258 493.057 399.354 499.897 393.514 504.828C387.675 509.76 380.278 512.466 372.635 512.466Z" fill="#9BD8EB"/>
<path d="M329.826 354.657L392.257 87.448C393.682 81.2609 397.168 75.7418 402.142 71.7961C407.116 67.8504 413.284 65.7125 419.633 65.733H503.4C505.681 65.733 507.868 64.8269 509.481 63.2141C511.094 61.6013 512 59.4139 512 57.133V34.605C512 32.3241 511.094 30.1367 509.481 28.5239C507.868 26.9111 505.681 26.005 503.4 26.005H419.633C404.31 25.9548 389.425 31.1146 377.42 40.6377C365.416 50.1607 357.005 63.4814 353.567 78.414L291.136 345.619L329.826 354.657Z" fill="#E85668"/>
<g opacity="0.1">
<path opacity="0.1" d="M353.566 78.4091C357.004 63.4767 365.415 50.1562 377.42 40.6332C389.424 31.1102 404.309 25.9503 419.632 26.0001V65.7331C413.283 65.7127 407.115 67.8507 402.141 71.7966C397.166 75.7425 393.681 81.2618 392.256 87.4491L388.7 102.682H347.9L353.566 78.4091Z" fill="black"/>
</g>
<path d="M108.2 231.247L145.229 449.46H410.659L447.688 231.247H108.2Z" fill="#FFDB62"/>
<g opacity="0.3">
<path opacity="0.3" d="M145.227 449.46L151.346 485.521C152.625 493.057 156.529 499.896 162.368 504.828C168.207 509.76 175.603 512.466 183.246 512.466H372.635C380.278 512.466 387.674 509.76 393.513 504.828C399.352 499.896 403.256 493.057 404.535 485.521L410.654 449.46H145.227Z" fill="white"/>
</g>
<path d="M363.707 390.204C355.441 384.061 345.417 380.744 335.119 380.744C324.82 380.744 314.796 384.061 306.53 390.204C298.264 396.347 288.24 399.664 277.942 399.664C267.643 399.664 257.619 396.347 249.353 390.204C241.087 384.061 231.063 380.744 220.765 380.744C210.466 380.744 200.442 384.061 192.176 390.204C183.943 396.322 173.964 399.636 163.707 399.66C153.45 399.684 143.456 396.416 135.194 390.337L145.227 449.461H410.657L420.69 390.333C412.429 396.413 402.435 399.681 392.177 399.658C381.92 399.635 371.941 396.321 363.707 390.204Z" fill="#60D195"/>
<g opacity="0.1">
<path opacity="0.1" d="M426.941 160.851H373.95C377.967 160.851 381.935 161.727 385.578 163.419C389.221 165.111 392.451 167.577 395.043 170.646C397.635 173.714 399.526 177.311 400.584 181.186C401.643 185.061 401.843 189.12 401.171 193.08L351.546 485.521C350.267 493.056 346.363 499.896 340.524 504.828C334.685 509.76 327.289 512.466 319.646 512.466H372.636C380.279 512.466 387.675 509.76 393.514 504.828C399.353 499.896 403.257 493.056 404.536 485.521L454.161 193.08C454.833 189.12 454.633 185.061 453.575 181.186C452.517 177.311 450.626 173.714 448.034 170.646C445.442 167.577 442.212 165.111 438.569 163.419C434.926 161.727 430.958 160.851 426.941 160.851Z" fill="black"/>
</g>
<g opacity="0.3">
<path opacity="0.3" d="M108.2 231.247L114.644 269.233H441.244L447.69 231.247H108.2Z" fill="white"/>
</g>
<path d="M80.6499 374.027V385.584L66.2619 397.902V416.594L54.0129 442.337L61.6709 471.2L59.9239 493.242L85.2399 497.107L98.3939 512.366L110.763 508.653L123.131 512.366L136.285 497.11L161.602 493.245L159.857 471.203L167.515 442.34L155.263 416.594V397.902L140.877 385.584V374.027L110.763 365.95L80.6499 374.027Z" fill="#F3E64D"/>
<path d="M161.603 493.242L139.558 471.199L167.613 443.144C169.716 460.71 168.364 478.195 161.603 493.242Z" fill="#F3E64D"/>
<path d="M167.517 442.337L139.173 413.994L155.264 397.902C155.833 399.244 156.382 400.59 156.907 401.927C162.101 414.906 165.664 428.48 167.517 442.337Z" fill="#F3E64D"/>
<path d="M164.567 351.331C160.082 348.441 151.06 344.188 141.58 348.691C141.378 348.784 141.153 348.816 140.933 348.783C140.713 348.749 140.507 348.651 140.342 348.502C140.177 348.353 140.06 348.158 140.005 347.942C139.95 347.726 139.96 347.499 140.033 347.289C141.489 343.089 144.845 334.949 150.533 329.394C150.771 329.164 150.939 328.871 151.016 328.549C151.092 328.227 151.075 327.89 150.965 327.577C150.856 327.265 150.659 326.99 150.398 326.786C150.137 326.582 149.824 326.458 149.494 326.427C143.119 325.84 130.294 326.427 122.387 338.772C122.26 338.969 122.075 339.122 121.857 339.21C121.64 339.298 121.4 339.316 121.172 339.262C120.944 339.207 120.738 339.084 120.583 338.908C120.428 338.732 120.331 338.512 120.306 338.279C119.626 332.009 117.597 319.269 112.016 313.534C111.853 313.365 111.658 313.231 111.443 313.14C111.227 313.048 110.995 313.001 110.761 313.001C110.527 313.001 110.295 313.048 110.079 313.14C109.864 313.231 109.669 313.365 109.506 313.534C103.927 319.268 101.896 332.01 101.216 338.279C101.191 338.512 101.094 338.732 100.939 338.908C100.784 339.084 100.578 339.207 100.35 339.262C100.121 339.316 99.8821 339.298 99.6645 339.21C99.4469 339.122 99.2619 338.969 99.1349 338.772C91.2329 326.429 78.4059 325.839 72.0329 326.426C71.703 326.456 71.3888 326.581 71.1277 326.785C70.8665 326.988 70.6695 327.263 70.56 327.576C70.4505 327.888 70.4332 328.226 70.5101 328.548C70.5871 328.87 70.755 329.164 70.9939 329.393C76.6829 334.948 80.0389 343.087 81.4939 347.288C81.5665 347.498 81.5757 347.725 81.5205 347.94C81.4652 348.156 81.3478 348.35 81.183 348.499C81.0181 348.648 80.8131 348.746 80.5933 348.779C80.3735 348.813 80.1487 348.781 79.9469 348.688C70.4669 344.188 61.4469 348.439 56.9599 351.328C56.6849 351.506 56.4663 351.759 56.3294 352.057C56.1925 352.355 56.1431 352.685 56.1868 353.01C56.2305 353.335 56.3655 353.641 56.5762 353.892C56.7869 354.143 57.0646 354.329 57.3769 354.428C62.3668 355.978 66.9963 358.51 70.9931 361.876C74.9899 365.242 78.2732 369.373 80.6499 374.026H140.877C143.254 369.374 146.537 365.244 150.533 361.88C154.53 358.515 159.159 355.984 164.148 354.435C164.461 354.336 164.74 354.151 164.952 353.899C165.164 353.648 165.299 353.342 165.343 353.016C165.387 352.69 165.338 352.359 165.2 352.061C165.063 351.762 164.843 351.509 164.567 351.331Z" fill="#29CE69"/>
<path d="M64.7429 347.712C61.9914 348.547 59.3713 349.766 56.9599 351.332C56.6849 351.51 56.4663 351.763 56.3295 352.061C56.1927 352.359 56.1433 352.689 56.1871 353.014C56.2309 353.339 56.3661 353.645 56.5769 353.896C56.7877 354.147 57.0655 354.333 57.3779 354.432C62.3675 355.981 66.9968 358.513 70.9934 361.878C74.99 365.244 78.2732 369.374 80.6499 374.027H92.6839C92.6839 374.027 80.3809 354.754 64.7429 347.712Z" fill="#00B72F"/>
<path d="M122.321 374.027L110.763 385.584L99.2059 374.027H122.321Z" fill="#F3E64D"/>
<path d="M110.763 385.583L82.3529 413.993L66.2629 397.9C69.8889 389.363 74.4259 380.851 80.6499 374.025H99.2059L110.763 385.583Z" fill="#F3C13B"/>
<path d="M82.3528 413.993L54.0089 442.337C55.8601 428.48 59.4226 414.906 64.6149 401.925C65.1398 400.588 65.6889 399.243 66.2579 397.902L82.3528 413.993Z" fill="#F3E64D"/>
<path d="M81.9659 471.198L59.9239 493.242C53.1629 478.195 51.8109 460.71 53.9129 443.144L81.9659 471.198Z" fill="#F3E64D"/>
<path d="M110.763 499.993L98.3939 512.362H84.6419C80.4693 512.36 76.367 511.287 72.728 509.245C69.089 507.204 66.0351 504.262 63.8589 500.702C62.3908 498.301 61.0774 495.809 59.9269 493.241L81.9709 471.199L110.763 499.993Z" fill="#F3C13B"/>
<path d="M81.9659 471.198L110.766 442.398L139.566 471.198L110.766 499.998L81.9659 471.198Z" fill="#F3E64D"/>
<path d="M155.263 397.9L139.172 413.991L110.763 385.582L122.321 374.025H140.877C147.1 380.853 151.638 389.364 155.263 397.9Z" fill="#F3C13B"/>
<path d="M82.3528 413.992L110.761 385.584L139.166 413.992L110.757 442.401L82.3528 413.992Z" fill="#F3E64D"/>
<path d="M167.615 443.144L139.561 471.199L110.761 442.399L139.17 413.991L167.515 442.337C167.551 442.607 167.582 442.874 167.615 443.144Z" fill="#F3C13B"/>
<path d="M161.602 493.241C160.452 495.809 159.139 498.301 157.67 500.702C155.494 504.262 152.44 507.204 148.801 509.245C145.162 511.287 141.059 512.36 136.887 512.362H123.132L110.763 499.993L139.563 471.193L161.602 493.241Z" fill="#F3C13B"/>
<path d="M123.132 512.359H98.3939L110.763 499.99L123.132 512.359Z" fill="#F3E64D"/>
<path d="M110.766 442.402L81.9659 471.202L53.9139 443.144C53.9439 442.873 53.9759 442.607 54.0139 442.336L82.3569 413.993L110.766 442.402Z" fill="#F3C13B"/>
<path d="M75.8889 500.7C74.4207 498.299 73.1074 495.807 71.9569 493.239C70.6812 490.389 69.5909 487.46 68.6929 484.469L59.9229 493.239C61.0728 495.807 62.3861 498.3 63.8549 500.7C66.0312 504.261 69.0856 507.204 72.7254 509.246C76.3652 511.288 80.4684 512.361 84.6419 512.362H96.6719C92.4991 512.36 88.3967 511.287 84.7577 509.245C81.1187 507.203 78.0649 504.26 75.8889 500.7Z" fill="#E6A700"/>
<path d="M53.1849 464.267C53.5605 471.331 54.7919 478.323 56.8519 485.09C57.7102 487.867 58.7361 490.59 59.9239 493.243L68.6929 484.473C65.8746 474.685 64.6588 464.505 65.0929 454.328L53.9129 443.144C53.043 450.149 52.799 457.218 53.1839 464.266L53.1849 464.267Z" fill="#F3C13B"/>
<path d="M65.9479 443.144C66.578 437.953 67.4793 432.799 68.6479 427.703L54.0109 442.337C53.9759 442.608 53.9439 442.874 53.9109 443.145L65.0949 454.325C65.2099 450.619 65.5009 446.883 65.9479 443.144Z" fill="#E6A700"/>
<path d="M68.6439 427.703C70.2863 420.526 72.377 413.459 74.9039 406.544L66.2619 397.902C63.5171 404.392 61.1534 411.037 59.1829 417.802C56.8141 425.831 55.0853 434.035 54.0129 442.337L68.6439 427.703Z" fill="#F3C13B"/>
<path d="M74.8999 406.544C75.9586 403.636 77.0892 400.755 78.2919 397.902C81.9169 389.365 86.4549 380.853 92.6779 374.027H80.6479C79.3147 375.496 78.0571 377.031 76.8799 378.627C73.586 383.167 70.7457 388.019 68.3999 393.114C67.6546 394.695 66.9412 396.291 66.2599 397.902L74.8999 406.544Z" fill="#E6A700"/>
</svg>
