<svg width="512" height="512" viewBox="0 0 512 512" fill="none" xmlns="http://www.w3.org/2000/svg">
<path d="M394.634 20.6199L392.259 7.23194C392.058 6.09872 391.637 5.01611 391.018 4.04594C390.399 3.07578 389.594 2.23707 388.651 1.57774C387.708 0.918402 386.644 0.451358 385.52 0.203285C384.397 -0.0447887 383.235 -0.0690303 382.102 0.131945L321.708 10.8509C313.983 12.2487 306.743 15.5953 300.673 20.5738C294.603 25.5522 289.905 31.9978 287.023 39.2999L250.505 132.737L279.488 144.064L316.006 50.6279C316.931 48.2833 318.44 46.2136 320.389 44.615C322.338 43.0165 324.662 41.9418 327.143 41.4929L387.537 30.7779C388.67 30.5772 389.752 30.1552 390.722 29.536C391.692 28.9169 392.531 28.1126 393.19 27.1693C393.849 26.226 394.316 25.162 394.563 24.0383C394.811 22.9145 394.835 21.753 394.634 20.6199Z" fill="#E3E6E8"/>
<path d="M304.602 79.8071C299.867 79.2824 295.085 79.3395 290.364 79.9771C286.553 74.4465 282.05 69.4264 276.964 65.0391L250.507 132.739L279.49 144.066L304.602 79.8071Z" fill="#CCCED0"/>
<path d="M298.191 171.587C316.522 171.587 331.383 156.726 331.383 138.395C331.383 120.063 316.522 105.203 298.191 105.203C279.86 105.203 264.999 120.063 264.999 138.395C264.999 156.726 279.86 171.587 298.191 171.587Z" fill="#BF7CBF"/>
<path d="M285.601 138.4C285.602 131.399 287.816 124.577 291.928 118.91C296.039 113.242 301.837 109.02 308.492 106.846C303.509 105.219 298.211 104.796 293.033 105.611C287.855 106.426 282.943 108.455 278.7 111.534C274.457 114.612 271.003 118.651 268.622 123.321C266.241 127.991 264.999 133.159 264.999 138.401C264.999 143.643 266.241 148.81 268.622 153.48C271.003 158.15 274.457 162.189 278.7 165.267C282.943 168.346 287.855 170.375 293.033 171.19C298.211 172.005 303.509 171.582 308.492 169.955C301.836 167.781 296.039 163.558 291.927 157.891C287.816 152.224 285.602 145.402 285.601 138.4Z" fill="#9F6FAD"/>
<path d="M214.17 171.587C232.501 171.587 247.362 156.726 247.362 138.395C247.362 120.063 232.501 105.203 214.17 105.203C195.839 105.203 180.978 120.063 180.978 138.395C180.978 156.726 195.839 171.587 214.17 171.587Z" fill="#BF7CBF"/>
<path d="M201.581 138.4C201.582 131.399 203.796 124.577 207.908 118.91C212.019 113.242 217.817 109.02 224.472 106.846C219.489 105.219 214.191 104.796 209.013 105.611C203.834 106.426 198.923 108.455 194.68 111.534C190.437 114.612 186.983 118.651 184.602 123.321C182.221 127.991 180.979 133.159 180.979 138.401C180.979 143.643 182.221 148.81 184.602 153.48C186.983 158.15 190.437 162.189 194.68 165.267C198.923 168.346 203.834 170.375 209.013 171.19C214.191 172.005 219.489 171.582 224.472 169.955C217.816 167.781 212.019 163.558 207.907 157.891C203.796 152.224 201.582 145.402 201.581 138.4Z" fill="#9F6FAD"/>
<path d="M225.37 73.1049C215.53 87.1389 214.863 107.623 225.205 124.956C235.547 142.289 253.89 151.43 270.914 149.434C280.754 135.4 281.421 114.916 271.079 97.5829C260.737 80.2499 242.394 71.1089 225.37 73.1049Z" fill="#51D09A"/>
<path d="M270.921 157.161C269.582 157.163 268.266 156.816 267.101 156.156C265.937 155.495 264.964 154.543 264.278 153.393L237.867 109.131C237.343 108.26 236.996 107.293 236.846 106.287C236.695 105.282 236.746 104.256 236.993 103.27C237.24 102.283 237.679 101.355 238.286 100.539C238.893 99.7226 239.655 99.0342 240.528 98.5131C241.401 97.992 242.369 97.6484 243.375 97.502C244.382 97.3557 245.407 97.4095 246.393 97.6603C247.378 97.9112 248.305 98.3541 249.118 98.9638C249.932 99.5734 250.618 100.338 251.136 101.213L277.547 145.475C278.246 146.647 278.623 147.984 278.638 149.349C278.653 150.713 278.306 152.058 277.633 153.245C276.96 154.433 275.984 155.42 274.805 156.108C273.626 156.796 272.286 157.159 270.921 157.161Z" fill="#42AA7E"/>
<path d="M344.868 183L253.068 160.7L167.494 183C150.709 192.098 136.693 205.561 126.925 221.965C117.157 238.37 112.001 257.108 112 276.2V437.651C112 451.041 115.616 464.182 122.467 475.687C129.317 487.192 139.146 496.634 150.918 503.015C161.797 508.912 173.975 512 186.349 512H326.014C338.388 512 350.566 508.912 361.445 503.015C373.217 496.634 383.047 487.192 389.897 475.687C396.747 464.182 400.363 451.041 400.363 437.651V276.206C400.363 257.113 395.207 238.373 385.439 221.968C375.671 205.562 361.654 192.099 344.868 183Z" fill="#96D7E8"/>
<path d="M202.427 503.015C190.655 496.634 180.825 487.192 173.975 475.687C167.125 464.182 163.509 451.041 163.509 437.651V276.206C163.508 257.113 168.664 238.373 178.432 221.968C188.2 205.562 202.217 192.099 219.003 183L279.727 167.174L253.069 160.7L167.494 183C150.709 192.098 136.692 205.561 126.925 221.965C117.157 238.37 112.001 257.108 112 276.2V437.65C112 451.04 115.616 464.181 122.467 475.686C129.317 487.191 139.146 496.633 150.918 503.014C161.796 508.911 173.975 512 186.349 512H237.858C225.484 512.001 213.305 508.913 202.427 503.016V503.015Z" fill="#68C9E0"/>
<path d="M338.644 138.4H167.493C164.564 138.4 161.665 138.977 158.959 140.097C156.253 141.218 153.795 142.861 151.724 144.931C149.654 147.002 148.011 149.461 146.89 152.166C145.77 154.872 145.193 157.771 145.193 160.7C145.193 163.628 145.77 166.528 146.89 169.234C148.011 171.939 149.654 174.398 151.724 176.468C153.795 178.539 156.253 180.182 158.959 181.302C161.665 182.423 164.564 183 167.493 183H338.644C341.572 183 344.472 182.423 347.178 181.302C349.883 180.182 352.342 178.539 354.412 176.468C356.483 174.398 358.126 171.939 359.246 169.234C360.367 166.528 360.944 163.628 360.944 160.7C360.944 157.771 360.367 154.872 359.246 152.166C358.126 149.461 356.483 147.002 354.412 144.931C352.342 142.861 349.883 141.218 347.178 140.097C344.472 138.977 341.572 138.4 338.644 138.4Z" fill="#A6EDFF"/>
<path d="M196.701 160.7C196.701 157.771 197.278 154.872 198.398 152.166C199.519 149.461 201.162 147.002 203.232 144.931C205.303 142.861 207.761 141.218 210.467 140.097C213.173 138.977 216.072 138.4 219.001 138.4H167.493C164.564 138.4 161.665 138.977 158.959 140.097C156.253 141.218 153.795 142.861 151.724 144.931C149.654 147.002 148.011 149.461 146.89 152.166C145.77 154.872 145.193 157.771 145.193 160.7C145.193 163.628 145.77 166.528 146.89 169.234C148.011 171.939 149.654 174.398 151.724 176.468C153.795 178.539 156.253 180.182 158.959 181.302C161.665 182.423 164.564 183 167.493 183H219.002C216.073 183 213.173 182.423 210.468 181.303C207.762 180.182 205.304 178.54 203.233 176.469C201.162 174.398 199.519 171.94 198.398 169.234C197.278 166.528 196.701 163.628 196.701 160.7Z" fill="#68C9E0"/>
<path d="M157.729 231.754C148.231 244.628 143.11 260.208 143.117 276.206V437.651C143.117 443.328 144.235 448.95 146.407 454.195C148.58 459.44 151.764 464.206 155.779 468.22C159.793 472.235 164.559 475.419 169.804 477.591C175.049 479.764 180.671 480.882 186.348 480.882H326.013C331.69 480.882 337.312 479.764 342.557 477.591C347.802 475.418 352.568 472.234 356.582 468.219C360.597 464.205 363.781 459.439 365.953 454.194C368.126 448.949 369.244 443.327 369.244 437.65V276.206C369.251 260.208 364.131 244.629 354.635 231.754H157.729Z" fill="#BF7CBF"/>
<path d="M173.281 231.754H157.729C148.232 244.628 143.111 260.208 143.117 276.206V437.651C143.101 447.418 146.402 456.901 152.479 464.547C158.557 472.194 167.05 477.549 176.569 479.738C168.06 467.352 163.505 452.678 163.507 437.651V276.206C163.506 260.855 166.841 245.688 173.281 231.754Z" fill="#9F6FAD"/>
</svg>
