<svg width="512" height="512" viewBox="0 0 512 512" fill="none" xmlns="http://www.w3.org/2000/svg">
<path d="M387.315 155.275L272.392 139.784L157.469 155.274C157.469 155.274 135.761 176.465 135.019 204.995L272.392 233.819L409.765 205C409.023 176.466 387.315 155.275 387.315 155.275Z" fill="#55C2E3"/>
<path d="M176.227 205C176.969 176.469 198.677 155.278 198.677 155.278L292.992 142.561L272.392 139.784L157.469 155.275C157.469 155.275 135.761 176.466 135.019 205L272.392 233.82L292.992 229.496L176.227 205Z" fill="#45B6D9"/>
<path d="M272.392 397.8L135.001 422.718V429.818C135.001 459.1 157.47 481.032 157.47 481.032L272.392 496.51L387.315 481.029C387.315 481.029 409.784 459.096 409.784 429.815V422.715L272.392 397.8Z" fill="#55C2E3"/>
<path d="M198.677 481.03C198.677 481.03 176.208 459.097 176.208 429.816V422.716L292.997 401.533L272.392 397.8L135.001 422.72V429.82C135.001 459.102 157.47 481.034 157.47 481.034L272.392 496.511L292.992 493.736L198.677 481.03Z" fill="#45B6D9"/>
<path d="M367.555 124.3H177.23C171.988 124.3 166.961 126.382 163.255 130.089C159.548 133.795 157.466 138.822 157.466 144.064V155.274H387.32V144.064C387.32 138.822 385.237 133.795 381.531 130.089C377.824 126.382 372.797 124.3 367.555 124.3Z" fill="#D4D2D3"/>
<path d="M218.437 124.3H177.23C171.988 124.3 166.961 126.382 163.255 130.089C159.548 133.795 157.466 138.822 157.466 144.064V155.274H198.673V144.064C198.673 138.822 200.755 133.795 204.462 130.089C208.168 126.382 213.195 124.3 218.437 124.3Z" fill="#BAB8B9"/>
<path d="M177.23 512H367.557C372.799 512 377.826 509.918 381.532 506.211C385.239 502.505 387.321 497.478 387.321 492.236V481.026H157.466V492.236C157.466 494.831 157.977 497.401 158.97 499.799C159.963 502.197 161.419 504.376 163.255 506.211C165.09 508.047 167.269 509.503 169.667 510.496C172.064 511.489 174.635 512 177.23 512Z" fill="#D4D2D3"/>
<path d="M198.673 492.237V481.027H157.466V492.237C157.466 497.479 159.549 502.505 163.255 506.212C166.962 509.918 171.988 512 177.23 512H218.437C213.195 512 208.169 509.918 204.462 506.212C200.756 502.505 198.673 497.479 198.673 492.237Z" fill="#BAB8B9"/>
<path d="M409.785 206.489V422.718H135V206.489C135 205.989 135.009 205.494 135.02 204.995H409.765C409.774 205.493 409.785 205.992 409.785 206.489Z" fill="#80E2FF"/>
<path d="M176.227 205H135.02C135.011 205.5 135 205.995 135 206.493V422.723H176.207V206.489C176.208 205.992 176.218 205.493 176.227 205Z" fill="#55C2E3"/>
<path d="M237.253 100.428C247.316 100.428 255.473 92.2707 255.473 82.208C255.473 72.1454 247.316 63.988 237.253 63.988C227.19 63.988 219.033 72.1454 219.033 82.208C219.033 92.2707 227.19 100.428 237.253 100.428Z" fill="#55C2E3"/>
<path d="M189.319 62.895C198.003 62.895 205.043 55.8551 205.043 47.171C205.043 38.4869 198.003 31.447 189.319 31.447C180.635 31.447 173.595 38.4869 173.595 47.171C173.595 55.8551 180.635 62.895 189.319 62.895Z" fill="#55C2E3"/>
<path d="M234.379 25.694C241.474 25.694 247.226 19.9422 247.226 12.847C247.226 5.7518 241.474 0 234.379 0C227.284 0 221.532 5.7518 221.532 12.847C221.532 19.9422 227.284 25.694 234.379 25.694Z" fill="#80E2FF"/>
</svg>
