<svg width="512" height="512" viewBox="0 0 512 512" fill="none" xmlns="http://www.w3.org/2000/svg">
<path d="M403.764 295.217L402.348 288.192L406.983 289.479L411.877 295.217H403.764Z" fill="#EEC3CA"/>
<path d="M237.3 314.472L125.758 345.091V378.991L237.3 403.917L348.843 378.995V345.095L237.3 314.472Z" fill="#FDD974"/>
<path d="M166.966 378.991V345.091L257.9 320.127L237.3 314.472L125.758 345.091V378.991L237.3 403.917L257.9 399.317L166.966 378.991Z" fill="#E6C468"/>
<path d="M417.829 346.864C414.621 346.865 411.484 345.925 408.805 344.162C406.125 342.398 404.022 339.888 402.754 336.941C394.463 317.675 399.611 294.472 415.871 277.83C425.544 267.93 437.635 262.023 449.326 256.31C470.073 246.171 478.58 240.703 479.17 227.222C479.594 217.532 474.091 210.182 465.151 208.497C444.761 204.66 421.227 214.118 402.997 222.791C401.052 223.717 398.944 224.251 396.792 224.362C394.641 224.473 392.489 224.159 390.459 223.438C388.429 222.717 386.561 221.604 384.961 220.161C383.361 218.718 382.061 216.975 381.135 215.03C380.21 213.085 379.676 210.976 379.565 208.825C379.454 206.674 379.768 204.521 380.489 202.491C381.209 200.461 382.323 198.593 383.766 196.994C385.208 195.394 386.952 194.094 388.897 193.168C411.623 182.355 441.522 170.668 471.221 176.259C496.34 180.994 513.082 202.541 511.939 228.659C510.439 262.959 483.439 276.153 463.725 285.788C454.114 290.488 445.039 294.92 439.325 300.763C434.061 306.151 429.214 315.463 432.878 323.976C433.951 326.471 434.387 329.193 434.149 331.898C433.91 334.603 433.004 337.207 431.512 339.475C430.019 341.744 427.987 343.607 425.598 344.897C423.208 346.187 420.536 346.863 417.82 346.866L417.829 346.864Z" fill="#FDD974"/>
<path d="M471.227 176.256C441.527 170.656 411.627 182.356 388.903 193.165C384.974 195.034 381.949 198.388 380.493 202.488C379.037 206.587 379.27 211.097 381.139 215.026C383.008 218.954 386.362 221.979 390.461 223.436C394.561 224.892 399.071 224.659 403 222.79C418.4 215.46 437.6 207.573 455.478 207.619C458.449 195.838 463.067 189.459 472.897 183.886L481.188 179.186C477.973 177.88 474.636 176.899 471.227 176.256Z" fill="#E6C468"/>
<path d="M16.9512 156.999C86.3912 196.367 14.2172 286.038 125.759 345.09H348.845C460.388 286.038 388.213 196.367 457.654 156.999L237.3 140.048L16.9512 156.999Z" fill="#E3E6E8"/>
<path d="M58.1572 157L257.9 141.635L237.3 140.05L16.9502 157C86.3912 196.367 14.2172 286.038 125.759 345.09H166.966C55.4242 286.039 127.6 196.367 58.1572 157Z" fill="#CCCED0"/>
<path d="M457.653 123.099H16.951C14.7249 123.099 12.5206 123.537 10.464 124.389C8.40733 125.241 6.53861 126.49 4.96454 128.064C3.39047 129.638 2.14187 131.506 1.29005 133.563C0.43823 135.62 -0.000131306 137.824 2.9503e-08 140.05C2.9503e-08 142.276 0.438451 144.48 1.29032 146.537C2.14219 148.594 3.39079 150.462 4.96483 152.036C6.53888 153.61 8.40754 154.859 10.4641 155.711C12.5207 156.563 14.725 157.001 16.951 157.001H457.651C462.146 157.001 466.457 155.214 469.636 152.036C472.814 148.857 474.6 144.545 474.6 140.05C474.599 135.555 472.814 131.245 469.636 128.066C466.458 124.887 462.148 123.101 457.653 123.099Z" fill="#FDD974"/>
<path d="M41.207 140.05C41.207 135.555 42.9928 131.243 46.1715 128.064C49.3502 124.885 53.6615 123.099 58.157 123.099H16.95C12.4545 123.099 8.14319 124.885 4.96448 128.064C1.78577 131.243 -7.82273e-09 135.555 0 140.05H0C-7.82274e-09 144.546 1.78577 148.857 4.96448 152.036C8.14319 155.215 12.4545 157.001 16.95 157.001H58.157C53.6616 157.001 49.3504 155.214 46.1718 152.036C42.9931 148.857 41.2073 144.546 41.207 140.05Z" fill="#E6C468"/>
<path d="M114.866 182.511H95.8249C92.0374 182.511 88.405 184.016 85.7268 186.694C83.0485 189.372 81.5439 193.004 81.5439 196.792V246.555C81.5439 250.343 83.0485 253.975 85.7268 256.653C88.405 259.331 92.0374 260.836 95.8249 260.836H114.866C118.653 260.836 122.286 259.331 124.964 256.653C127.642 253.975 129.147 250.343 129.147 246.555V196.792C129.147 194.917 128.778 193.059 128.06 191.327C127.343 189.594 126.291 188.02 124.964 186.694C123.638 185.367 122.064 184.315 120.331 183.598C118.598 182.88 116.741 182.511 114.866 182.511Z" fill="#BF7CBF"/>
<path d="M105.346 200.449C104.331 200.449 103.327 200.249 102.389 199.861C101.452 199.473 100.6 198.904 99.8827 198.186C99.1653 197.469 98.5962 196.617 98.208 195.68C97.8197 194.742 97.62 193.738 97.6201 192.723V118.723C97.6201 117.708 97.82 116.704 98.2082 115.766C98.5965 114.829 99.1656 113.977 99.883 113.26C100.6 112.543 101.452 111.973 102.39 111.585C103.327 111.197 104.332 110.997 105.346 110.997C106.361 110.997 107.365 111.197 108.303 111.585C109.24 111.973 110.092 112.543 110.809 113.26C111.527 113.977 112.096 114.829 112.484 115.766C112.872 116.704 113.072 117.708 113.072 118.723V192.723C113.072 193.738 112.872 194.742 112.484 195.68C112.096 196.617 111.527 197.469 110.81 198.186C110.092 198.904 109.24 199.473 108.303 199.861C107.365 200.249 106.361 200.449 105.346 200.449Z" fill="#3B484A"/>
<path d="M459.341 378.991H15.2618C13.6408 378.991 12.0502 379.431 10.6605 380.266C9.27067 381.1 8.134 382.297 7.37216 383.727C6.61032 385.158 6.25202 386.769 6.33563 388.388C6.41923 390.007 6.94159 391.573 7.84677 392.917C17.7868 407.664 37.4548 428.833 68.4558 428.833H406.149C437.149 428.833 456.817 407.663 466.758 392.917C467.663 391.572 468.185 390.007 468.268 388.388C468.351 386.769 467.993 385.158 467.231 383.727C466.469 382.296 465.332 381.1 463.942 380.266C462.552 379.431 460.962 378.991 459.341 378.991Z" fill="#E3E6E8"/>
<path d="M49.0532 392.917C48.1474 391.572 47.6246 390.007 47.5407 388.387C47.4569 386.768 47.8151 385.157 48.577 383.726C49.3389 382.295 50.4758 381.098 51.8659 380.263C53.256 379.429 54.8469 378.988 56.4682 378.989H15.2612C13.6399 378.988 12.049 379.429 10.6589 380.263C9.26876 381.098 8.13186 382.295 7.36996 383.726C6.60805 385.157 6.24986 386.768 6.33375 388.387C6.41764 390.007 6.94045 391.572 7.84617 392.917C17.7862 407.663 37.4542 428.833 68.4552 428.833H109.662C78.6622 428.836 58.9932 407.666 49.0532 392.917Z" fill="#CCCED0"/>
</svg>
