<svg width="512" height="512" viewBox="0 0 512 512" fill="none" xmlns="http://www.w3.org/2000/svg">
<path d="M327.056 512H193.456C188.393 512 183.379 510.998 178.705 509.051C174.031 507.104 169.788 504.25 166.222 500.656C162.656 497.061 159.837 492.796 157.927 488.106C156.017 483.417 155.055 478.395 155.095 473.332L155.703 397.147C155.912 373.18 162.364 349.681 174.423 328.967C178.701 321.619 180.954 313.269 180.953 304.767V252C180.953 236.579 176.826 221.438 169.001 208.15C157.966 189.411 152.818 167.786 154.227 146.085C155.636 124.383 163.536 103.605 176.901 86.45C180.587 81.7176 185.305 77.8886 190.694 75.2546C196.083 72.6206 202.003 71.251 208.001 71.25H312.501C318.5 71.251 324.419 72.6206 329.809 75.2546C335.198 77.8886 339.915 81.7176 343.601 86.45C356.967 103.605 364.867 124.383 366.276 146.085C367.685 167.786 362.537 189.411 351.501 208.15C343.679 221.439 339.554 236.579 339.556 252V304.768C339.555 313.27 341.809 321.62 346.086 328.968C358.146 349.681 364.599 373.181 364.806 397.148L365.414 473.333C365.455 478.396 364.493 483.417 362.583 488.107C360.674 492.796 357.855 497.061 354.289 500.656C350.723 504.25 346.481 507.103 341.807 509.05C337.133 510.997 332.12 512 327.056 512Z" fill="#9BD8EB"/>
<path opacity="0.05" d="M294.038 136.146C312.275 136.146 329.003 130.266 345.18 124.58C350.62 122.668 355.935 120.804 361.088 119.258C359.515 114.48 357.61 109.819 355.388 105.306C350.402 106.847 345.353 108.617 340.201 110.428C325.211 115.697 309.711 121.146 294.033 121.146C292.044 121.146 290.136 121.936 288.73 123.343C287.323 124.749 286.533 126.657 286.533 128.646C286.533 130.635 287.323 132.543 288.73 133.949C290.136 135.356 292.044 136.146 294.033 136.146H294.038ZM226.475 453.3C212.633 453.3 198.794 458.164 184.144 463.314C174.644 466.654 164.934 470.061 155.106 472.114L155.096 473.338C155.055 477.984 155.862 482.599 157.475 486.956C168.406 484.742 178.875 481.068 189.119 477.467C202.528 472.754 215.194 468.302 226.476 468.302C228.465 468.302 230.373 467.512 231.779 466.105C233.186 464.699 233.976 462.791 233.976 460.802C233.976 458.813 233.186 456.905 231.779 455.499C230.373 454.092 228.465 453.302 226.476 453.302L226.475 453.3ZM365.275 455.488C356.784 457.642 348.415 460.255 340.206 463.315C325.216 468.584 309.716 474.032 294.038 474.032C292.049 474.032 290.141 474.822 288.735 476.229C287.328 477.635 286.538 479.543 286.538 481.532C286.538 483.521 287.328 485.429 288.735 486.835C290.141 488.242 292.049 489.032 294.038 489.032C312.275 489.032 329.003 483.152 345.18 477.466C352.151 475.016 358.919 472.642 365.398 470.922L365.275 455.488ZM226.475 100.419C212.633 100.419 198.794 105.283 184.144 110.433C176.157 113.241 168.024 116.091 159.798 118.149C157.989 123.459 156.594 128.902 155.627 134.428C167.227 132.269 178.298 128.388 189.119 124.584C202.528 119.871 215.194 115.419 226.476 115.419C228.465 115.419 230.373 114.629 231.779 113.222C233.186 111.816 233.976 109.908 233.976 107.919C233.976 105.93 233.186 104.022 231.779 102.616C230.373 101.209 228.465 100.419 226.476 100.419H226.475Z" fill="black"/>
<path d="M292.7 0H227.815C224.845 0 221.996 1.18 219.896 3.2804C217.795 5.38081 216.615 8.22958 216.615 11.2V71.259H303.891V11.2C303.891 8.23113 302.712 5.38373 300.614 3.28358C298.516 1.18344 295.669 0.0023857 292.7 0V0Z" fill="#E4E7E9"/>
<path d="M154.697 165.3C156.4 180.431 161.275 195.033 169.003 208.152C176.828 221.44 180.955 236.579 180.956 252V304.768C180.957 313.27 178.704 321.62 174.426 328.968C172.558 332.176 170.842 335.458 169.245 338.791H351.27C349.67 335.458 347.957 332.176 346.089 328.968C341.812 321.62 339.558 313.27 339.559 304.768V252C339.56 236.579 343.686 221.439 351.511 208.15C359.24 195.032 364.115 180.43 365.817 165.3H154.697Z" fill="#59A8ED"/>
<path opacity="0.1" d="M346.09 328.967C341.812 321.619 339.559 313.269 339.56 304.767V256.884C331.983 256.544 324.524 258.848 318.46 263.402C306.26 272.186 291.852 272.186 279.66 263.402C267.46 254.618 253.052 254.618 240.86 263.402C228.66 272.186 214.252 272.186 202.06 263.402C195.995 258.848 188.536 256.543 180.96 256.884V304.772C180.96 313.274 178.707 321.624 174.43 328.972C172.562 332.18 170.846 335.462 169.249 338.795H351.271C349.675 335.457 347.957 332.175 346.09 328.967Z" fill="black"/>
<path d="M297.022 268.743C297.022 253.596 276.561 218.653 266.168 201.879C265.545 200.872 264.675 200.041 263.641 199.464C262.606 198.888 261.442 198.585 260.258 198.585C259.073 198.585 257.909 198.888 256.875 199.464C255.84 200.041 254.97 200.872 254.347 201.879C243.953 218.652 223.493 253.595 223.493 268.743C223.468 273.587 224.4 278.388 226.236 282.871C228.073 287.354 230.777 291.429 234.193 294.864C237.61 298.298 241.671 301.023 246.144 302.883C250.617 304.742 255.413 305.7 260.258 305.7C265.102 305.7 269.898 304.742 274.371 302.883C278.844 301.023 282.906 298.298 286.322 294.864C289.739 291.429 292.443 287.354 294.279 282.871C296.115 278.388 297.047 273.587 297.022 268.743Z" fill="#9BD8EB"/>
<g opacity="0.1">
<path opacity="0.1" d="M245.406 0V71.26" stroke="black" stroke-width="15" stroke-miterlimit="10" stroke-linejoin="round"/>
<path opacity="0.1" d="M275.107 0V71.26" stroke="black" stroke-width="15" stroke-miterlimit="10" stroke-linejoin="round"/>
</g>
<path opacity="0.1" d="M346.089 328.967C341.812 321.619 339.559 313.269 339.559 304.767V252C339.56 236.579 343.686 221.438 351.511 208.15C362.547 189.411 367.695 167.786 366.286 146.085C364.877 124.383 356.977 103.605 343.611 86.45C339.925 81.7176 335.208 77.8886 329.819 75.2546C324.429 72.6206 318.51 71.251 312.511 71.25H279.876C285.875 71.251 291.794 72.6206 297.184 75.2546C302.573 77.8886 307.29 81.7176 310.976 86.45C324.342 103.605 332.242 124.383 333.651 146.085C335.06 167.786 329.912 189.411 318.876 208.15C311.053 221.439 306.927 236.579 306.928 252V304.768C306.928 313.27 309.181 321.62 313.458 328.968C325.518 349.681 331.97 373.181 332.178 397.148L332.786 473.333C332.827 478.396 331.864 483.417 329.954 488.107C328.045 492.796 325.225 497.061 321.659 500.656C318.093 504.251 313.851 507.104 309.176 509.051C304.502 510.998 299.489 512 294.425 512H327.056C332.12 512 337.133 510.998 341.808 509.051C346.482 507.104 350.724 504.25 354.291 500.656C357.857 497.061 360.676 492.796 362.586 488.106C364.495 483.417 365.458 478.395 365.417 473.332L364.809 397.147C364.601 373.18 358.149 349.681 346.089 328.967Z" fill="black"/>
<path opacity="0.1" d="M292.7 0H276.847C279.818 0 282.666 1.18 284.767 3.2804C286.867 5.38081 288.047 8.22958 288.047 11.2V52.04H216.619V71.259H303.895V11.2C303.895 8.23044 302.716 5.38243 300.616 3.28217C298.517 1.18191 295.67 0.0013257 292.7 0V0Z" fill="black"/>
</svg>
