<svg width="512" height="512" viewBox="0 0 512 512" fill="none" xmlns="http://www.w3.org/2000/svg">
<path d="M256.501 264.394H196.724V445.25C196.788 461.062 203.115 476.203 214.318 487.361C225.522 498.519 240.689 504.783 256.501 504.783C272.313 504.783 287.481 498.519 298.684 487.361C309.887 476.203 316.214 461.062 316.279 445.25V264.394H256.501Z" fill="#00CE8E"/>
<path d="M256.501 445.25V264.394H196.724V445.25C196.727 455.741 199.492 466.047 204.741 475.131C209.989 484.215 217.536 491.757 226.623 497C235.71 502.243 246.017 505.003 256.508 505C266.999 504.998 277.305 502.234 286.39 496.987C277.302 491.748 269.755 484.209 264.508 475.126C259.261 466.044 256.499 455.739 256.501 445.25Z" fill="#00B27A"/>
<path d="M264.46 9.94395C262.001 8.66676 259.271 8 256.501 8C253.73 8 251 8.66676 248.542 9.94395C235.41 16.7649 225.202 28.1217 219.815 41.9033C214.428 55.6849 214.228 70.9538 219.252 84.872C222.025 92.5255 227.088 99.139 233.753 103.813C240.418 108.487 248.361 110.994 256.502 110.994C264.642 110.994 272.585 108.487 279.25 103.813C285.915 99.139 290.979 92.5255 293.752 84.872C298.776 70.9538 298.576 55.6849 293.188 41.9033C287.801 28.1217 277.593 16.7649 264.462 9.94395H264.46Z" fill="#00C084"/>
<path d="M320.187 40.363C316.98 38.6975 313.42 37.828 309.807 37.828C306.194 37.828 302.634 38.6975 299.428 40.363C282.303 49.2572 268.99 64.0667 261.964 82.0387C254.938 100.011 254.676 119.923 261.228 138.073C269.399 160.632 289.601 172.135 309.803 172.135C330.005 172.135 350.203 160.635 358.379 138.073C364.93 119.923 364.668 100.011 357.642 82.0387C350.616 64.0667 337.303 49.2572 320.179 40.363H320.187Z" fill="#00CE8E"/>
<path d="M213.574 40.363C210.367 38.6975 206.807 37.828 203.194 37.828C199.581 37.828 196.021 38.6975 192.815 40.363C175.69 49.2573 162.377 64.067 155.351 82.0392C148.325 100.011 148.063 119.923 154.615 138.074C162.786 160.633 182.988 172.136 203.19 172.136C223.392 172.136 243.59 160.636 251.766 138.074C258.317 119.923 258.056 100.011 251.029 82.0392C244.003 64.067 230.69 49.2573 213.566 40.363H213.574Z" fill="#00B27A"/>
<path d="M130.819 120.987C127.374 122.075 124.241 123.976 121.686 126.53C119.131 129.084 117.229 132.215 116.14 135.66C110.33 154.06 111.397 173.944 119.143 191.617C126.888 209.29 140.786 223.55 158.254 231.748C179.99 241.924 202.413 235.78 216.699 221.501C230.985 207.222 237.132 184.809 226.951 163.083C218.741 145.615 204.472 131.72 186.792 123.977C169.112 116.235 149.224 115.171 130.819 120.983V120.987Z" fill="#00B27A"/>
<path d="M382.183 120.987C385.628 122.075 388.76 123.976 391.315 126.53C393.87 129.084 395.773 132.215 396.862 135.66C402.672 154.06 401.605 173.944 393.859 191.617C386.113 209.29 372.215 223.55 354.748 231.748C333.012 241.924 310.589 235.78 296.303 221.501C282.017 207.222 275.87 184.809 286.051 163.083C294.26 145.615 308.53 131.72 326.209 123.977C343.889 116.235 363.778 115.171 382.183 120.983V120.987Z" fill="#00CE8E"/>
<path d="M270.267 114.353C266.014 112.144 261.293 110.991 256.501 110.991C251.709 110.991 246.988 112.144 242.736 114.353C220.025 126.15 202.37 145.791 193.053 169.626C183.736 193.461 183.39 219.869 192.08 243.94C202.916 273.858 229.709 289.114 256.502 289.114C283.295 289.114 310.088 273.858 320.924 243.94C329.613 219.869 329.266 193.461 319.949 169.626C310.631 145.791 292.977 126.15 270.267 114.353Z" fill="#00C084"/>
<path d="M249.868 259.721C238.979 236.556 220.054 218.129 196.607 207.861C173.159 197.594 146.783 196.184 122.375 203.893C117.806 205.336 113.652 207.857 110.263 211.244C106.875 214.631 104.351 218.784 102.907 223.352C95.2018 247.755 96.6173 274.126 106.89 297.564C117.163 321.002 135.595 339.914 158.761 350.787C216.415 377.779 276.873 317.348 249.868 259.721Z" fill="#00B27A"/>
<path d="M263.134 259.721C274.022 236.556 292.947 218.129 316.395 207.861C339.842 197.594 366.218 196.184 390.627 203.893C395.195 205.336 399.349 207.857 402.738 211.244C406.127 214.631 408.65 218.784 410.095 223.352C417.799 247.755 416.384 274.126 406.111 297.564C395.838 321.002 377.407 339.914 354.241 350.787C296.587 377.779 236.129 317.348 263.134 259.721Z" fill="#00CE8E"/>
</svg>
