<svg width="512" height="512" viewBox="0 0 512 512" fill="none" xmlns="http://www.w3.org/2000/svg">
<path d="M315.246 71.957C322.061 48.4853 337.254 28.3312 357.943 15.3183C378.631 2.30539 403.377 -2.66115 427.485 1.36089C451.592 5.38292 473.385 18.1137 488.729 37.1382C504.073 56.1626 511.9 80.1573 510.726 104.57C507.558 169.976 480.152 231.859 433.85 278.162C387.547 324.465 325.664 351.871 260.258 355.039C235.846 356.212 211.852 348.384 192.829 333.04C173.805 317.696 161.075 295.903 157.054 271.795C153.032 247.688 157.999 222.943 171.012 202.255C184.024 181.566 204.178 166.374 227.649 159.559L255.618 168.707L306.231 151.246L321.4 100.105L315.246 71.957Z" fill="#E1966D"/>
<path d="M260.258 355.039C294.023 353.42 327.161 345.311 357.858 331.156C346.298 316.516 331.731 304.527 315.141 295.998C298.551 287.47 280.323 282.6 261.69 281.719C253.492 281.31 245.739 277.869 239.936 272.064C234.133 266.258 230.695 258.503 230.29 250.305C229.972 243.782 229.171 237.292 227.895 230.887L228.168 230.164L225.293 220.215C220.192 202.749 211.508 186.538 199.793 172.615C181.713 184.773 168.11 202.516 161.064 223.133C154.017 243.749 153.913 266.106 160.769 286.788C167.624 307.469 181.062 325.337 199.029 337.662C216.996 349.987 238.504 356.091 260.266 355.041L260.258 355.039Z" fill="#D77C40"/>
<path d="M195.6 228.8C188.788 205.325 173.596 185.168 152.906 172.152C132.216 159.137 107.468 154.169 83.3581 158.191C59.248 162.214 37.4533 174.947 22.1093 193.974C6.76537 213.001 -1.06022 236.999 0.11741 261.414C3.28567 326.82 30.6913 388.703 76.9943 435.006C123.297 481.309 185.181 508.715 250.586 511.883C275.001 513.061 298.999 505.235 318.026 489.891C337.054 474.547 349.787 452.752 353.809 428.642C357.832 404.532 352.864 379.785 339.848 359.095C326.833 338.405 306.675 323.212 283.2 316.4L255.231 325.548L204.618 308.091L189.45 256.946L195.6 228.8Z" fill="#E1966D"/>
<path d="M281.492 480.977C216.087 477.809 154.205 450.403 107.902 404.101C61.5988 357.799 34.1926 295.917 31.0232 230.512C30.0021 209.984 35.3747 189.646 46.4002 172.3C31.4944 181.734 19.3572 194.953 11.2265 210.608C3.09576 226.263 -0.737644 243.794 0.117201 261.414C3.28546 326.82 30.6911 388.703 76.9941 435.006C123.297 481.309 185.181 508.715 250.586 511.883C268.206 512.74 285.737 508.907 301.392 500.777C317.048 492.648 330.266 480.511 339.7 465.605C322.356 476.629 302.018 482 281.492 480.977Z" fill="#D77C40"/>
<path d="M278.395 321.785C272.386 327.772 265.219 332.47 257.332 335.591C249.445 338.713 241.004 340.192 232.526 339.939C224.047 339.686 215.709 337.705 208.023 334.119C200.336 330.532 193.462 325.415 187.821 319.08C182.181 312.745 177.892 305.325 175.217 297.276C172.543 289.226 171.539 280.716 172.267 272.265C172.995 263.814 175.44 255.6 179.452 248.127C183.464 240.653 188.959 234.077 195.6 228.8C197.76 236.293 199.04 244.011 199.416 251.8C200.192 267.671 206.845 282.685 218.08 293.922C229.316 305.158 244.329 311.812 260.2 312.59C267.989 312.962 275.708 314.243 283.2 316.406C281.702 318.289 280.098 320.085 278.395 321.785Z" fill="#FFE8B6"/>
<path d="M232.449 164.941C238.239 170.731 245.113 175.324 252.678 178.457C260.243 181.591 268.351 183.204 276.539 183.204C284.728 183.204 292.836 181.591 300.401 178.457C307.966 175.324 314.839 170.731 320.629 164.941C326.419 159.151 331.012 152.277 334.146 144.712C337.279 137.147 338.892 129.039 338.892 120.851C338.892 112.663 337.279 104.555 334.146 96.9897C331.012 89.4247 326.419 82.551 320.629 76.7611C318.927 75.0611 317.13 73.4585 315.246 71.9611C313.083 79.4529 311.802 87.1719 311.43 94.9611C310.651 110.829 303.997 125.84 292.763 137.074C281.529 148.307 266.518 154.96 250.649 155.738C242.861 156.114 235.142 157.394 227.649 159.554C229.148 161.438 230.75 163.236 232.449 164.941Z" fill="#FFE8B6"/>
</svg>
