<svg width="512" height="512" viewBox="0 0 512 512" fill="none" xmlns="http://www.w3.org/2000/svg">
<path d="M212.1 218.772C229.676 195.052 216.366 158.881 187.692 149.758C175.034 145.668 166.356 133.71 167.754 120.316C170.954 90.945 139.754 65.092 109.98 71.526C95.6592 74.8 82.2432 67.894 72.6462 57.283C53.6862 36.318 29.2912 40.955 13.5142 55.9C-2.26281 70.845 -7.15681 93.95 14.9762 111.91C26.1762 121 33.4762 133.71 30.0122 147.269C23.2192 175.476 50.5122 205.027 81.5212 201.994C95.6602 200.67 108.285 208.894 112.603 220.88C122.235 248.04 160.421 260.648 185.463 244C195.725 237.183 204.736 228.649 212.1 218.772Z" fill="#00C084"/>
<path d="M311.536 244C336.578 260.648 374.764 248.041 384.396 220.88C388.714 208.89 401.339 200.671 415.478 201.994C446.486 205.027 473.778 175.476 466.987 147.269C463.529 133.708 470.821 121 482.023 111.91C504.156 93.951 499.261 70.843 483.485 55.899C467.709 40.955 443.313 36.319 424.353 57.283C414.753 67.894 401.34 74.802 387.023 71.526C357.245 65.092 326.046 90.945 329.249 120.316C330.649 133.709 321.969 145.667 309.311 149.758C280.637 158.881 267.327 195.052 284.903 218.772C292.266 228.649 301.276 237.183 311.536 244Z" fill="#5FD9B3"/>
<path d="M147.355 159.722C146.584 159.097 145.696 158.631 144.743 158.352C143.79 158.073 142.791 157.985 141.804 158.095C140.817 158.205 139.862 158.51 138.994 158.992C138.126 159.473 137.362 160.123 136.747 160.902C136.131 161.682 135.677 162.576 135.41 163.532C135.143 164.488 135.068 165.488 135.191 166.474C135.313 167.459 135.63 168.41 136.123 169.272C136.616 170.134 137.275 170.89 138.062 171.495C183.253 207.164 225.917 248.637 232.037 310.046C232.221 311.896 233.086 313.611 234.463 314.86C235.84 316.108 237.632 316.801 239.491 316.803C239.739 316.803 239.991 316.79 240.244 316.765C242.223 316.568 244.043 315.592 245.303 314.053C246.563 312.514 247.16 310.537 246.963 308.558C240.288 241.577 195.145 197.44 147.355 159.722Z" fill="#D34459"/>
<path d="M360.178 160.962C358.946 159.401 357.144 158.393 355.168 158.161C353.193 157.928 351.206 158.49 349.645 159.722C301.855 197.441 256.712 241.577 250.038 308.558C249.841 310.537 250.438 312.514 251.698 314.053C252.958 315.592 254.778 316.568 256.757 316.765C257.01 316.79 257.261 316.802 257.51 316.803C259.369 316.801 261.161 316.108 262.538 314.86C263.915 313.611 264.78 311.896 264.964 310.046C271.084 248.637 313.747 207.165 358.939 171.495C360.5 170.262 361.507 168.46 361.74 166.485C361.972 164.51 361.41 162.523 360.178 160.962Z" fill="#D34459"/>
<path d="M308.8 80.687C295.4 72.931 290.778 58.139 291.989 43.287C294.382 13.929 272.294 0 248.5 0C224.706 0 202.618 13.929 205.011 43.282C206.222 58.139 201.604 72.931 188.2 80.682C160.621 97.101 157.678 138.882 183.475 158.743C195.191 167.843 198.168 183.061 191.875 195.187C177.515 222.549 196.275 259.332 228.413 264.665C240.091 266.603 246.54 272.487 248.497 279.995C250.454 272.487 256.903 266.603 268.581 264.665C300.719 259.332 319.481 222.548 305.119 195.187C298.83 183.061 301.806 167.845 313.519 158.743C339.319 138.881 336.371 97.1 308.793 80.682L308.8 80.687Z" fill="#00CE8E"/>
<path d="M283.5 311.659C272.178 308.087 260.373 306.28 248.5 306.302C193.271 306.302 148.5 344.358 148.5 391.302C148.5 432.13 182.368 466.229 227.525 474.423L240.301 492.723C241.223 494.043 242.45 495.121 243.877 495.866C245.305 496.611 246.891 496.999 248.501 496.999C250.111 496.999 251.698 496.611 253.125 495.866C254.553 495.121 255.78 494.043 256.701 492.723L269.477 474.423C274.211 473.559 278.885 472.394 283.47 470.934C321.447 458.88 348.5 427.786 348.5 391.3C348.5 354.814 321.464 323.717 283.5 311.657V311.659Z" fill="#EA5B70"/>
<path d="M218.5 391.3C218.5 354.823 245.535 323.717 283.5 311.657C272.178 308.085 260.373 306.278 248.5 306.3C193.271 306.3 148.5 344.356 148.5 391.3C148.5 432.128 182.368 466.227 227.525 474.421L240.301 492.721C241.223 494.041 242.45 495.12 243.877 495.864C245.305 496.609 246.891 496.997 248.501 496.997C250.111 496.997 251.698 496.609 253.125 495.864C254.553 495.12 255.78 494.041 256.701 492.721L269.477 474.421C274.211 473.557 278.885 472.392 283.47 470.932C245.52 458.867 218.5 427.769 218.5 391.3Z" fill="#D34459"/>
<path d="M248.5 164.088C244.522 164.088 240.706 165.668 237.893 168.481C235.08 171.294 233.5 175.11 233.5 179.088V309.3H263.5V179.088C263.5 175.11 261.92 171.294 259.107 168.481C256.294 165.668 252.478 164.088 248.5 164.088Z" fill="#D34459"/>
</svg>
