<svg width="512" height="512" viewBox="0 0 512 512" fill="none" xmlns="http://www.w3.org/2000/svg">
<path d="M181.467 45.525C172.289 43.5 166.051 35.811 161.361 27.574C157.717 21.0136 152.057 15.8017 145.218 12.711C141.22 11.0087 136.906 10.1727 132.561 10.258C113.771 10.258 98.8762 27.948 104.961 51.726C108.04 63.761 106.576 76.537 97.2662 84.733C78.1762 101.974 81.8972 136.685 104.821 149.479C109.741 152.247 113.582 156.596 115.72 161.82C117.858 167.044 118.168 172.838 116.6 178.261C109.367 202.687 129.25 230.337 155.016 230.337C167.487 230.337 173.75 237.351 174.366 246.637L231.69 134.194L181.467 45.525Z" fill="#009D6B"/>
<path d="M331.561 45.2999C340.739 43.2769 346.072 35.8069 350.767 27.5699C354.411 21.0095 360.072 15.7977 366.91 12.7069C370.907 11.0069 375.219 10.1722 379.561 10.2579C398.351 10.2579 413.247 27.9479 407.161 51.7259C404.082 63.7609 405.546 76.5369 414.861 84.7329C433.951 101.974 430.23 136.685 407.306 149.479C402.387 152.247 398.546 156.596 396.408 161.82C394.27 167.044 393.96 172.838 395.527 178.261C402.76 202.687 382.877 230.337 357.111 230.337C344.64 230.337 338.378 237.351 337.762 246.637L280.438 134.191L331.561 45.2999Z" fill="#00CE8E"/>
<path d="M321.673 189.25C321.673 189.199 321.673 189.142 321.673 189.089C321.816 173.514 343.273 110.217 343.273 93.666C343.273 58.487 324.319 30.584 296.565 12.441C284.599 4.619 270.997 0 256.568 0C208.681 0 169.861 43.317 169.861 93.667C169.861 110.218 191.317 173.515 191.461 189.09C191.461 189.142 191.461 189.199 191.461 189.251C191.461 245.12 131.561 293.538 131.561 358.168C131.561 434.843 183.636 497.001 256.561 497.001C270.18 497.045 283.707 494.768 296.561 490.27C347.79 472.229 381.561 419.91 381.561 358.17C381.561 293.539 321.667 249.623 321.667 189.252L321.673 189.25Z" fill="#B0EBD8"/>
<path d="M211.568 358.167C211.568 293.537 271.468 245.12 271.468 189.25C271.468 189.199 271.468 189.142 271.468 189.089C271.325 173.514 249.868 110.217 249.868 93.666C249.868 58.487 268.822 30.584 296.576 12.441C284.599 4.619 270.997 0 256.568 0C208.681 0 169.861 43.317 169.861 93.667C169.861 110.218 191.317 173.515 191.461 189.09C191.461 189.142 191.461 189.199 191.461 189.251C191.461 245.12 131.561 293.538 131.561 358.168C131.561 434.843 183.636 497.001 256.561 497.001C270.18 497.045 283.707 494.768 296.561 490.27C245.333 472.229 211.561 419.909 211.561 358.17L211.568 358.167Z" fill="#5FD9B3"/>
<path d="M296.568 12.442C284.599 4.619 270.996 0 256.568 0C208.681 0 169.861 43.317 169.861 93.667C169.861 110.218 191.317 173.515 191.461 189.09C207.351 167.417 230.628 152.5 256.569 152.5C258.924 152.501 261.276 152.624 263.617 152.871C286.707 155.288 307.241 169.399 321.678 189.09C321.821 173.515 343.278 110.218 343.278 93.667C343.278 58.487 324.325 30.585 296.571 12.442H296.568Z" fill="#00C084"/>
<path d="M296.568 12.442C284.599 4.619 270.996 0 256.568 0C208.681 0 169.861 43.317 169.861 93.667C169.861 110.218 191.317 173.515 191.461 189.09C207.351 167.417 230.628 152.5 256.569 152.5C258.924 152.501 261.276 152.624 263.617 152.871C257.438 129.845 249.862 103.502 249.862 93.671C249.862 58.492 268.816 30.589 296.57 12.446L296.568 12.442Z" fill="#00B27A"/>
<path d="M316.872 107.675C316.64 106.718 316.221 105.816 315.64 105.02C315.06 104.225 314.328 103.552 313.486 103.039C312.645 102.527 311.712 102.185 310.738 102.034C309.765 101.882 308.772 101.924 307.814 102.156L264.067 112.775V93.089L304.653 70.756C306.396 69.797 307.687 68.1849 308.241 66.2744C308.795 64.3638 308.568 62.3114 307.609 60.5685C306.65 58.8256 305.038 57.5351 303.127 56.9808C301.217 56.4266 299.164 56.654 297.421 57.613L264.067 75.967V34.724C264.067 32.7349 263.277 30.8272 261.871 29.4207C260.464 28.0142 258.556 27.224 256.567 27.224C254.578 27.224 252.671 28.0142 251.264 29.4207C249.858 30.8272 249.067 32.7349 249.067 34.724V57.733L215.713 39.379C213.971 38.42 211.918 38.1926 210.008 38.7468C208.097 39.3011 206.485 40.5916 205.526 42.3345C204.567 44.0774 204.339 46.1298 204.894 48.0404C205.448 49.9509 206.739 51.563 208.481 52.522L249.067 74.855V112.775L205.32 102.156C204.363 101.924 203.37 101.882 202.397 102.034C201.423 102.185 200.49 102.527 199.649 103.04C198.807 103.552 198.076 104.226 197.495 105.021C196.914 105.816 196.495 106.718 196.263 107.675C196.031 108.633 195.989 109.626 196.141 110.599C196.292 111.573 196.634 112.506 197.147 113.347C197.659 114.188 198.332 114.92 199.128 115.501C199.923 116.082 200.825 116.501 201.782 116.733L249.067 128.211V160.277H264.067V128.21L311.352 116.732C313.285 116.263 314.953 115.045 315.988 113.347C317.023 111.648 317.341 109.608 316.872 107.675Z" fill="#5FD9B3"/>
</svg>
