<svg width="512" height="512" viewBox="0 0 512 512" fill="none" xmlns="http://www.w3.org/2000/svg">
<path d="M256.5 270L224.31 284.083L96.4998 340L148.29 393.408C166.382 412.066 176.5 438.149 176.5 464.137C176.479 471.008 178.604 477.714 182.58 483.319C186.555 488.923 192.182 493.146 198.674 495.397C236.161 508.2 276.838 508.2 314.326 495.397C320.818 493.146 326.444 488.923 330.42 483.319C334.395 477.714 336.521 471.008 336.5 464.137C336.5 438.148 346.618 412.065 364.71 393.408L416.5 340L256.5 270Z" fill="#5FD9B3"/>
<path d="M228.29 393.408L224.31 389.308V284.083L96.4998 340L148.29 393.408C166.382 412.066 176.5 438.149 176.5 464.137C176.479 471.008 178.604 477.714 182.58 483.319C186.555 488.923 192.182 493.146 198.674 495.397C217.29 501.757 236.827 505.001 256.5 505V464.138C256.5 438.149 246.382 412.066 228.29 393.408Z" fill="#00CE8E"/>
<path d="M438.744 169.12C445.587 155.698 447.988 140.449 445.601 125.573C443.215 110.698 436.164 96.9649 425.466 86.3567C414.768 75.7486 400.976 68.8137 386.081 66.5526C371.186 64.2916 355.958 66.8214 342.594 73.777C336.041 60.0677 326.848 47.7859 315.541 37.635C304.234 27.4841 291.036 19.6636 276.702 14.6214C262.368 9.5792 247.18 7.41436 232.008 8.25088C216.836 9.08741 201.978 12.9089 188.285 19.4964C174.593 26.0839 162.334 35.308 152.212 46.6404C142.089 57.9728 134.302 71.1909 129.296 85.5375C124.29 99.884 122.163 115.077 123.038 130.247C123.913 145.417 127.772 160.265 134.394 173.941C118.764 167.935 101.804 166.258 85.301 169.087C68.798 171.916 53.3645 179.146 40.628 190.015C27.8915 200.884 18.3242 214.989 12.9352 230.841C7.54622 246.694 6.53524 263.707 10.0089 280.087C13.4826 296.466 21.3122 311.604 32.6718 323.905C44.0315 336.206 58.5002 345.213 74.552 349.977C90.6037 354.74 107.644 355.084 123.874 350.971C140.105 346.858 154.925 338.441 166.771 326.608C171.084 342.327 179.452 356.637 191.035 368.104C202.619 379.572 217.012 387.796 232.773 391.951C248.534 396.107 265.111 396.048 280.843 391.782C296.574 387.516 310.909 379.192 322.412 367.643C335.47 376.957 350.325 383.45 366.031 386.707C381.736 389.964 397.948 389.915 413.633 386.562C429.319 383.21 444.134 376.627 457.136 367.233C470.137 357.84 481.04 345.842 489.149 332.003C497.258 318.164 502.397 302.788 504.237 286.854C506.077 270.92 504.578 254.778 499.837 239.455C495.095 224.132 487.214 209.965 476.695 197.855C466.177 185.746 453.252 175.96 438.744 169.12Z" fill="#00CE8E"/>
<path d="M256.5 9.42796C240.004 6.81043 223.136 7.79973 207.059 12.3277C190.982 16.8557 176.077 24.8148 163.372 35.6568C150.667 46.4987 140.462 59.9659 133.462 75.1307C126.462 90.2954 122.831 106.797 122.822 123.5C122.798 140.974 126.755 158.224 134.394 173.941C118.764 167.934 101.803 166.257 85.3002 169.086C68.7969 171.915 53.3629 179.145 40.6261 190.014C27.8893 200.883 18.3218 214.988 12.9326 230.841C7.54344 246.694 6.53241 263.708 10.0061 280.087C13.4799 296.467 21.3096 311.606 32.6696 323.907C44.0295 336.207 58.4985 345.215 74.5506 349.978C90.6027 354.742 107.643 355.085 123.874 350.972C140.105 346.859 154.925 338.441 166.771 326.608C171.084 342.327 179.452 356.637 191.035 368.104C202.619 379.572 217.012 387.796 232.773 391.951C248.534 396.107 265.111 396.048 280.843 391.782C296.574 387.516 310.909 379.192 322.412 367.643C269.225 326.542 233.085 267.253 220.921 201.146C208.757 135.039 221.427 66.7686 256.5 9.42796Z" fill="#00B27A"/>
<path d="M330.999 330.5C335.141 330.5 338.499 327.142 338.499 323C338.499 318.858 335.141 315.5 330.999 315.5C326.857 315.5 323.499 318.858 323.499 323C323.499 327.142 326.857 330.5 330.999 330.5Z" fill="#00B27A"/>
<path d="M389.999 356.5C394.141 356.5 397.499 353.142 397.499 349C397.499 344.858 394.141 341.5 389.999 341.5C385.857 341.5 382.499 344.858 382.499 349C382.499 353.142 385.857 356.5 389.999 356.5Z" fill="#00B27A"/>
<path d="M449.999 326.5C454.141 326.5 457.499 323.142 457.499 319C457.499 314.858 454.141 311.5 449.999 311.5C445.857 311.5 442.499 314.858 442.499 319C442.499 323.142 445.857 326.5 449.999 326.5Z" fill="#00B27A"/>
<path d="M78.9998 291.5C83.142 291.5 86.4998 288.142 86.4998 284C86.4998 279.858 83.142 276.5 78.9998 276.5C74.8577 276.5 71.4998 279.858 71.4998 284C71.4998 288.142 74.8577 291.5 78.9998 291.5Z" fill="#009D6B"/>
<path d="M157 234.5C161.142 234.5 164.5 231.142 164.5 227C164.5 222.858 161.142 219.5 157 219.5C152.858 219.5 149.5 222.858 149.5 227C149.5 231.142 152.858 234.5 157 234.5Z" fill="#009D6B"/>
<path d="M227 169.5C231.142 169.5 234.5 166.142 234.5 162C234.5 157.858 231.142 154.5 227 154.5C222.858 154.5 219.5 157.858 219.5 162C219.5 166.142 222.858 169.5 227 169.5Z" fill="#00B27A"/>
<path d="M178 78.5C182.142 78.5 185.5 75.1421 185.5 71C185.5 66.8579 182.142 63.5 178 63.5C173.858 63.5 170.5 66.8579 170.5 71C170.5 75.1421 173.858 78.5 178 78.5Z" fill="#009D6B"/>
<path d="M317 199.5C321.142 199.5 324.5 196.142 324.5 192C324.5 187.858 321.142 184.5 317 184.5C312.858 184.5 309.5 187.858 309.5 192C309.5 196.142 312.858 199.5 317 199.5Z" fill="#00B27A"/>
<path d="M429 213.5C433.142 213.5 436.5 210.142 436.5 206C436.5 201.858 433.142 198.5 429 198.5C424.858 198.5 421.5 201.858 421.5 206C421.5 210.142 424.858 213.5 429 213.5Z" fill="#00B27A"/>
<path d="M390 156.5C394.142 156.5 397.5 153.142 397.5 149C397.5 144.858 394.142 141.5 390 141.5C385.858 141.5 382.5 144.858 382.5 149C382.5 153.142 385.858 156.5 390 156.5Z" fill="#00B27A"/>
<path d="M260 50.5C264.142 50.5 267.5 47.1421 267.5 43C267.5 38.8579 264.142 35.5 260 35.5C255.858 35.5 252.5 38.8579 252.5 43C252.5 47.1421 255.858 50.5 260 50.5Z" fill="#00B27A"/>
</svg>
