<svg width="512" height="512" viewBox="0 0 512 512" fill="none" xmlns="http://www.w3.org/2000/svg">
<path d="M468.845 193.376C437.698 110.686 357.778 51.699 264.329 51.699C251.468 51.6947 238.631 52.8244 225.968 55.075C221.744 45.9611 218.095 36.5918 215.041 27.022C212.841 20.122 207.991 14.3785 201.556 11.0548C195.122 7.73113 187.63 7.09955 180.73 9.29899C167.136 13.632 158.046 28.225 163.281 44.466C165.682 51.9214 165.525 59.9652 162.833 67.3206C160.141 74.676 155.069 80.9216 148.423 85.066C86.7361 123.824 45.6982 192.544 45.8712 270.664C46.2812 449.939 261.23 535.745 391.098 435.599C479.765 367.225 501.298 279.554 468.842 193.378L468.845 193.376Z" fill="#00CE8E"/>
<path d="M468.845 193.376C437.698 110.686 357.778 51.699 264.329 51.699C251.465 51.6947 238.626 52.8244 225.961 55.075C269 148.035 367.235 203.766 468.845 193.375V193.376Z" fill="#00B27A"/>
<path d="M391.098 435.599C388.366 432.304 384.803 429.798 380.778 428.342C357.534 420.12 341.954 396.46 341.954 370.32C341.919 339.189 329.537 309.344 307.525 287.331C285.512 265.318 255.667 252.935 224.536 252.899C207.884 252.88 191.92 246.257 180.145 234.483C168.371 222.708 161.748 206.744 161.729 190.092C161.702 159.102 149.436 129.377 127.601 107.386C105.765 85.3956 76.1282 72.919 45.1393 72.6719C30.1123 72.5669 17.1293 84.7119 16.9983 99.7389C16.9645 103.372 17.6563 106.975 19.0331 110.337C20.41 113.699 22.4442 116.752 25.0165 119.318C27.5888 121.883 30.6474 123.91 34.013 125.278C37.3786 126.646 40.9835 127.328 44.6163 127.285C58.3363 127.353 66.7933 142.357 60.0163 154.285C40.3263 188.926 29.8209 228.027 29.4983 267.872C28.2623 397.399 133.291 504.178 262.817 504.999C298.857 505.279 334.474 497.228 366.889 481.475C373.305 478.355 379.551 474.957 385.627 471.282C399.047 463.168 400.084 446.108 391.101 435.601L391.098 435.599Z" fill="#00B27A"/>
<path d="M429.85 112.452C424.841 107.279 422.037 100.362 422.028 93.1615C422.019 85.9605 424.807 79.0374 429.803 73.852L430.139 73.51C440.739 62.77 441.256 45.016 430.56 34.372C425.435 29.2717 418.496 26.4125 411.265 26.4213C404.034 26.4301 397.102 29.3063 391.989 34.419C331.28 95.13 331.117 194.069 391.989 254.941C410.962 273.891 421.643 299.594 421.689 326.409C421.735 353.225 411.142 378.963 392.235 397.979C387.255 402.906 384.359 409.559 384.148 416.562C383.936 423.564 386.425 430.38 391.098 435.599C401.03 446.699 418.834 448.763 431.327 436.099C513.465 352.894 519.956 205.98 429.847 112.453L429.85 112.452Z" fill="#5FD9B3"/>
</svg>
