<svg width="512" height="512" viewBox="0 0 512 512" fill="none" xmlns="http://www.w3.org/2000/svg">
<path d="M447.436 8.05898C453.295 6.51337 459.473 6.66269 465.25 8.48957C471.028 10.3165 476.168 13.7458 480.073 18.379C497.607 39.095 489.453 62.765 463.254 69.887C461.719 70.304 460.203 70.764 458.676 71.198C466.056 74.722 473.304 78.5293 480.42 82.62C484.666 85.0244 488.322 88.3457 491.121 92.3419C493.92 96.338 495.793 100.908 496.602 105.72C500.265 129.251 478.076 147.469 456.869 141.554L456.887 141.577C461.491 147.412 463.8 154.73 463.379 162.15C461.326 193.144 423.379 203.315 406.094 180.25C400.861 173.266 395.262 166.564 389.319 160.173C371.828 141.364 341.291 142.991 326.149 163.736L325.881 164.104L308.1 188.568L256 151.857L274.315 126.667C316.614 68.3456 377.776 26.4425 447.436 8.05898Z" fill="#00C084"/>
<path d="M314.024 197.051C300.576 173.214 280.411 153.861 256.042 141.403C231.672 128.945 204.176 123.934 176.978 126.993C149.781 130.052 124.085 141.046 103.092 158.606C82.0984 176.166 66.7363 199.515 58.9193 225.744L2.86535 414.568C-1.17492 428.376 -0.847871 443.096 3.8017 456.711C8.45127 470.326 17.196 482.171 28.8384 490.624C40.4807 499.076 54.4513 503.723 68.837 503.928C83.2227 504.133 97.32 499.886 109.198 491.768L129.509 477.807L271.586 380.144C300.228 360.422 320.463 330.705 328.315 296.827C336.167 262.95 331.07 227.361 314.024 197.05V197.051Z" fill="#FF8F71"/>
<path d="M129.508 477.807C122.002 472.36 116.371 464.719 113.39 455.937C110.408 447.155 110.225 437.665 112.863 428.774L152.884 293.964C162.822 260.625 184.858 232.203 214.67 214.274C244.482 196.344 279.918 190.202 314.025 197.052C302.689 176.89 286.5 159.875 266.925 147.552C207.138 109.758 127.371 123.331 83.4353 178.74C72.3322 192.694 64.0107 208.649 58.9224 225.74L2.86535 414.568C-1.17492 428.376 -0.847871 443.096 3.8017 456.711C8.45127 470.326 17.196 482.171 28.8384 490.624C40.4807 499.076 54.4513 503.723 68.837 503.928C83.2227 504.133 97.32 499.886 109.198 491.768L129.508 477.807Z" fill="#FF6F4D"/>
</svg>
