<svg width="512" height="512" viewBox="0 0 512 512" fill="none" xmlns="http://www.w3.org/2000/svg">
<path d="M56.8523 334.155C16.9383 324.741 5.26231 273.573 37.1373 247.772C37.817 247.222 38.3653 246.527 38.7419 245.738C39.1184 244.949 39.3139 244.086 39.3139 243.211C39.3139 242.337 39.1184 241.474 38.7419 240.685C38.3653 239.896 37.817 239.201 37.1373 238.651C5.26231 212.851 16.9373 161.678 56.8523 152.264C57.7032 152.064 58.4986 151.676 59.1803 151.129C59.8619 150.581 60.4125 149.889 60.7919 149.101C61.1712 148.314 61.3697 147.451 61.3727 146.577C61.3757 145.703 61.1832 144.839 60.8093 144.049C43.2863 106.971 76.0093 65.936 116.055 74.772C116.909 74.9605 117.794 74.9558 118.646 74.7583C119.498 74.5607 120.295 74.1753 120.979 73.6302C121.662 73.0851 122.216 72.3941 122.598 71.6077C122.98 70.8213 123.182 69.9594 123.188 69.085C123.481 28.077 170.77 5.30798 203.016 30.644C203.704 31.184 204.504 31.5636 205.357 31.755C206.21 31.9463 207.096 31.9446 207.948 31.7499C208.801 31.5553 209.599 31.1726 210.285 30.6298C210.97 30.0871 211.526 29.398 211.911 28.613C229.97 -8.20302 282.454 -8.20302 300.516 28.613C300.901 29.3979 301.456 30.087 302.142 30.6297C302.827 31.1724 303.625 31.5551 304.477 31.7498C305.329 31.9445 306.214 31.9462 307.067 31.7549C307.92 31.5636 308.72 31.184 309.407 30.644C341.653 5.30798 388.942 28.078 389.239 69.085C389.245 69.9592 389.446 70.8211 389.828 71.6075C390.21 72.394 390.763 73.0851 391.446 73.6304C392.13 74.1757 392.926 74.5612 393.778 74.7589C394.63 74.9566 395.515 74.9614 396.368 74.773C436.415 65.937 469.138 106.973 451.614 144.05C451.241 144.84 451.049 145.704 451.052 146.578C451.055 147.452 451.254 148.314 451.633 149.102C452.012 149.889 452.563 150.582 453.244 151.129C453.925 151.676 454.721 152.064 455.571 152.265C495.485 161.679 507.165 212.847 475.286 238.652C474.607 239.202 474.06 239.897 473.684 240.686C473.308 241.475 473.113 242.338 473.113 243.212C473.113 244.087 473.308 244.949 473.684 245.738C474.06 246.527 474.607 247.223 475.286 247.773C507.165 273.573 495.486 324.742 455.571 334.156L56.8523 334.155Z" fill="#FFE8B6"/>
<path d="M78.3443 247.772C79.0241 247.222 79.5723 246.527 79.9489 245.738C80.3255 244.949 80.5209 244.086 80.5209 243.211C80.5209 242.337 80.3255 241.474 79.9489 240.685C79.5723 239.896 79.0241 239.201 78.3443 238.651C46.4693 212.851 58.1443 161.678 98.0633 152.264C98.9138 152.063 99.7086 151.675 100.39 151.127C101.071 150.58 101.621 149.887 102 149.1C102.379 148.312 102.577 147.45 102.58 146.576C102.583 145.702 102.39 144.839 102.016 144.049C84.4933 106.971 117.216 65.936 157.262 74.7719C158.116 74.9605 159.001 74.9558 159.853 74.7582C160.705 74.5607 161.502 74.1753 162.186 73.6302C162.869 73.0851 163.423 72.3941 163.805 71.6077C164.187 70.8212 164.389 69.9593 164.395 69.0849C164.395 59.678 167.115 50.4716 172.227 42.5749C177.34 34.6782 184.626 28.4279 193.208 24.5769C161.989 9.92895 123.454 32.0769 123.188 69.0849C123.182 69.9594 122.98 70.8214 122.598 71.608C122.216 72.3945 121.663 73.0856 120.979 73.6309C120.295 74.1761 119.498 74.5616 118.646 74.7592C117.795 74.9568 116.909 74.9615 116.055 74.7729C76.0083 65.937 43.2853 106.973 60.8093 144.05C61.1832 144.84 61.3757 145.704 61.3727 146.578C61.3697 147.452 61.1712 148.315 60.7919 149.102C60.4125 149.89 59.8619 150.582 59.1803 151.13C58.4986 151.677 57.7032 152.065 56.8523 152.265C16.9383 161.679 5.26231 212.847 37.1373 238.652C37.817 239.202 38.3653 239.897 38.7419 240.686C39.1184 241.475 39.3139 242.338 39.3139 243.212C39.3139 244.087 39.1184 244.95 38.7419 245.739C38.3653 246.528 37.817 247.223 37.1373 247.773C5.26231 273.573 16.9373 324.742 56.8523 334.156H98.0633C58.1453 324.741 46.4693 273.569 78.3443 247.772Z" fill="#FAD889"/>
<path d="M159.1 316.382C114.061 278.667 48.4282 291.515 23.1002 298.482C20.065 299.324 17.4096 301.18 15.5761 303.741C13.7426 306.302 12.8417 309.413 13.0232 312.558C25.7702 535.89 256.211 512.28 256.211 512.28L159.1 316.382Z" fill="#00C655"/>
<path d="M43.9262 312.558C43.7422 309.312 44.7032 301.046 46.4922 293.386C38.6105 294.67 30.8023 296.37 23.1002 298.479C20.0642 299.32 17.4081 301.176 15.5745 303.738C13.7409 306.3 12.8405 309.413 13.0232 312.558C24.8082 519.078 222.742 514.433 252.476 512.566C187.637 509.099 53.5632 481.409 43.9262 312.558Z" fill="#00A42C"/>
<path d="M101.191 397.526C100.629 396.681 99.9056 395.956 99.0627 395.391C98.2199 394.826 97.274 394.432 96.279 394.233C95.2841 394.033 94.2596 394.032 93.2641 394.228C92.2685 394.424 91.3214 394.815 90.4768 395.377C88.7711 396.513 87.5865 398.28 87.1835 400.29C86.984 401.285 86.9824 402.309 87.1789 403.305C87.3753 404.3 87.7659 405.247 88.3283 406.092C109.351 437.647 143.621 466.354 190.191 491.416C205.101 499.431 220.432 506.636 236.117 512.999C248.617 513.062 256.211 512.284 256.211 512.284L251.266 502.304C232.83 495.328 214.874 487.146 197.512 477.812C142.316 448.104 114.668 417.753 101.191 397.526Z" fill="#00A42C"/>
<path d="M489.328 298.479C463.996 291.514 398.367 278.667 353.328 316.379L256.215 512.279C256.215 512.279 486.656 535.89 499.4 312.558C499.582 309.414 498.682 306.302 496.849 303.741C495.017 301.179 492.363 299.322 489.328 298.479Z" fill="#00C655"/>
<path d="M424.094 406.093C424.671 405.249 425.075 404.299 425.282 403.298C425.489 402.296 425.495 401.264 425.3 400.261C425.105 399.257 424.713 398.302 424.147 397.451C423.58 396.6 422.85 395.87 421.999 395.303C421.148 394.736 420.193 394.344 419.19 394.149C418.186 393.954 417.154 393.96 416.153 394.167C415.152 394.374 414.201 394.777 413.357 395.354C412.513 395.931 411.792 396.669 411.235 397.527C386.872 434.097 345.544 461.297 315.165 477.672C297.727 487.06 279.688 495.286 261.165 502.297L256.22 512.277C256.22 512.277 263.81 513.054 276.31 512.992C291.998 506.634 307.33 499.432 322.24 491.418C368.8 466.354 403.074 437.647 424.094 406.093Z" fill="#00A42C"/>
<path d="M261.789 202.831C260.035 202.045 258.135 201.639 256.213 201.639C254.291 201.639 252.391 202.045 250.637 202.831C194.149 228.202 154.528 287.39 154.528 356.37C154.528 427.597 196.774 488.386 256.212 512.28C315.652 488.386 357.9 427.599 357.9 356.37C357.9 287.39 318.277 228.199 261.789 202.831Z" fill="#73D98B"/>
<path d="M256.211 332.19C255.196 332.19 254.192 332.39 253.254 332.778C252.316 333.166 251.465 333.735 250.747 334.453C250.029 335.17 249.46 336.022 249.072 336.96C248.684 337.897 248.484 338.902 248.484 339.917V508.917C251.027 510.104 253.602 511.225 256.211 512.28C258.82 511.229 261.396 510.108 263.938 508.917V339.917C263.939 338.902 263.739 337.897 263.351 336.959C262.963 336.022 262.393 335.17 261.676 334.452C260.958 333.735 260.106 333.165 259.169 332.777C258.231 332.389 257.226 332.19 256.211 332.19Z" fill="#00C655"/>
</svg>
