<svg width="513" height="512" viewBox="0 0 513 512" fill="none" xmlns="http://www.w3.org/2000/svg">
<path d="M280.449 151.957C280.449 151.957 151.473 196.719 35.9064 312.289C-10.7806 358.977 -12.0706 420.449 40.7424 473.258C93.5554 526.067 155.023 524.781 201.711 478.094C317.281 362.524 362.043 233.551 362.043 233.551L341.527 172.473L280.449 151.957Z" fill="#73D98B"/>
<path d="M69.5633 408.785C68.2438 408.784 66.9464 408.446 65.7948 407.802C64.6432 407.158 63.6759 406.229 62.9849 405.105C62.2939 403.981 61.9024 402.699 61.8477 401.38C61.793 400.062 62.0769 398.751 62.6723 397.574C89.1133 345.234 140.387 289.25 215.067 231.183C248.349 205.271 283.152 181.375 319.29 159.624C320.168 159.107 321.139 158.77 322.148 158.63C323.157 158.49 324.183 158.551 325.168 158.809C326.153 159.067 327.078 159.517 327.888 160.134C328.699 160.751 329.379 161.522 329.891 162.402C330.402 163.283 330.735 164.256 330.869 165.266C331.003 166.275 330.936 167.301 330.673 168.285C330.409 169.269 329.953 170.19 329.332 170.997C328.711 171.804 327.936 172.48 327.052 172.987C291.452 194.422 257.169 217.972 224.388 243.51C152.641 299.32 101.488 355 76.4653 404.543C75.8206 405.82 74.8339 406.893 73.6152 407.642C72.3965 408.391 70.9938 408.786 69.5633 408.785Z" fill="#29CE69"/>
<path d="M112.945 452.156C111.207 452.157 109.518 451.572 108.153 450.495C106.788 449.419 105.826 447.913 105.423 446.222C105.02 444.53 105.199 442.753 105.931 441.176C106.663 439.598 107.905 438.314 109.457 437.531C229.75 376.766 339.914 188.84 341.012 186.945C342.042 185.173 343.734 183.884 345.714 183.359C347.695 182.835 349.803 183.119 351.575 184.148C353.346 185.178 354.636 186.87 355.161 188.851C355.685 190.831 355.401 192.939 354.371 194.711C332.623 230.85 308.729 265.654 282.816 298.934C224.746 373.614 168.765 424.887 116.421 451.329C115.343 451.873 114.153 452.156 112.945 452.156Z" fill="#29CE69"/>
<path d="M341.527 172.473L328.418 168.073L280.445 151.96C280.445 151.96 268.812 155.999 249.414 164.773C250.202 171.939 252.162 178.926 255.214 185.457C258.948 193.579 264.327 200.838 271.01 206.775C277.694 212.711 285.536 217.196 294.042 219.945C297.386 230.315 303.318 239.663 311.276 247.105L311.417 247.234C315.528 251.016 318.288 256.039 319.277 261.537C320.267 267.035 319.431 272.705 316.897 277.683C292.097 325.847 249.432 395.347 184.197 460.583C140.156 504.621 82.9614 508.25 32.2894 464.2C34.938 467.247 37.7544 470.268 40.7384 473.263C93.5514 526.072 155.023 524.783 201.707 478.099C282.59 397.216 328.785 309.779 349.234 264.572C349.234 264.56 349.246 264.545 349.25 264.533C353.777 254.517 358.32 244.15 362.004 233.67C362.02 233.623 362.024 233.608 362.027 233.592C362.031 233.58 362.037 233.568 362.043 233.557L341.527 172.473Z" fill="#00C655"/>
<path d="M351.574 184.148C349.802 183.119 347.694 182.836 345.714 183.361C343.733 183.886 342.042 185.176 341.012 186.948C340.637 187.593 327.598 209.843 305.812 241.296C307.514 243.343 309.341 245.283 311.281 247.105C313.167 248.87 315.155 250.522 317.234 252.054C340.297 218.839 354.179 195.054 354.375 194.714C355.405 192.941 355.688 190.832 355.163 188.851C354.637 186.87 353.347 185.178 351.574 184.148Z" fill="#00B72F"/>
<path d="M329.852 162.426C329.343 161.549 328.665 160.78 327.859 160.164C327.052 159.549 326.132 159.098 325.151 158.838C324.171 158.578 323.148 158.514 322.142 158.649C321.137 158.784 320.168 159.116 319.29 159.626C318.954 159.826 295.157 173.708 261.935 196.778C265.033 200.989 268.63 204.808 272.646 208.153C304.283 186.282 326.728 173.176 327.052 172.989C327.93 172.479 328.698 171.802 329.314 170.995C329.93 170.189 330.38 169.268 330.64 168.288C330.9 167.307 330.965 166.284 330.829 165.278C330.694 164.273 330.362 163.303 329.852 162.426Z" fill="#00B72F"/>
<path d="M448.738 210.914C449.096 208.928 450.224 207.163 451.877 206.005C453.53 204.848 455.574 204.391 457.562 204.734C486.162 209.675 507.585 179.078 493.162 153.894C492.161 152.142 491.892 150.066 492.414 148.117C492.937 146.168 494.208 144.504 495.951 143.488C521.033 128.894 517.779 91.679 490.541 81.66C488.647 80.9639 487.105 79.5466 486.253 77.7175C485.4 75.8885 485.306 73.7963 485.99 71.898C495.822 44.598 469.408 18.179 442.103 28.011C440.204 28.6944 438.112 28.5996 436.283 27.7471C434.454 26.8946 433.035 25.3536 432.337 23.46C422.317 -3.77802 385.107 -7.04002 370.509 18.05C369.494 19.795 367.83 21.0674 365.879 21.5893C363.929 22.1113 361.852 21.8405 360.1 20.836C334.92 6.41398 304.319 27.836 309.26 56.436C309.603 58.4247 309.146 60.4683 307.988 62.1212C306.831 63.7741 305.066 64.9024 303.08 65.26C274.518 70.397 264.85 106.479 287.018 125.209C288.561 126.511 289.525 128.37 289.701 130.381C289.876 132.391 289.249 134.389 287.956 135.939C269.378 158.239 285.167 192.091 314.186 192.189C316.204 192.196 318.137 193.001 319.564 194.428C320.991 195.855 321.796 197.788 321.803 199.806C321.903 228.829 355.76 244.615 378.053 226.036C379.603 224.744 381.602 224.118 383.612 224.293C385.622 224.469 387.481 225.433 388.783 226.974C407.52 249.145 443.6 239.477 448.738 210.914Z" fill="#00A42C"/>
</svg>
