<svg width="512" height="512" viewBox="0 0 512 512" fill="none" xmlns="http://www.w3.org/2000/svg">
<path d="M435.526 15.5261C426.095 5.97206 410.596 5.34706 401.026 14.6111C398.724 16.8562 396.892 19.5371 395.637 22.4975C394.382 25.4578 393.729 28.6384 393.716 31.8538C393.702 35.0692 394.329 38.255 395.56 41.2256C396.791 44.1962 398.6 46.8921 400.884 49.1561C419.177 67.4461 416.984 89.882 403.129 109.444C400.572 112.958 397.21 115.807 393.325 117.753C389.44 119.699 385.145 120.686 380.8 120.629V183.036H443.03C443.061 175.61 445.581 168.409 450.188 162.585C482.607 121.081 473.5 54.0001 435.526 15.5261Z" fill="#00B27A"/>
<path d="M440.594 178.55C436.273 170.867 431.307 163.567 425.748 156.727C414.455 142.714 400.469 131.105 384.617 122.585C360.355 109.649 332.017 104.232 302.031 107.66C278.111 110.426 255.284 119.219 235.69 133.215C216.096 147.211 200.375 165.951 190 187.681C157.562 255.319 115.987 315.037 67.5125 364.6C54.9451 377.486 46.9268 394.121 44.6756 411.98C42.4244 429.838 46.0633 447.943 55.0395 463.545C64.0158 479.147 77.8388 491.392 94.409 498.422C110.979 505.452 129.391 506.881 146.848 502.493C150.775 501.502 154.683 500.48 158.572 499.427C249.239 475.068 330.672 435.959 399.135 385.813C434.787 359.697 452.946 311.229 458.806 267.43C463.114 235.217 455.181 204.421 440.594 178.548V178.55Z" fill="#FF7B94"/>
<path d="M177.513 414.6C225.987 365.036 267.561 305.317 300 237.679C310.375 215.95 326.096 197.21 345.69 183.214C365.285 169.219 388.111 160.426 412.031 157.66C416.647 157.133 421.219 156.84 425.748 156.726C414.455 142.713 400.469 131.104 384.617 122.584C360.355 109.648 332.017 104.231 302.031 107.659C278.111 110.425 255.284 119.218 235.69 133.214C216.096 147.21 200.375 165.95 190 187.68C157.562 255.318 115.987 315.036 67.5125 364.6C54.9451 377.486 46.9268 394.122 44.6756 411.98C42.4244 429.838 46.0633 447.943 55.0395 463.545C64.0158 479.147 77.8388 491.392 94.409 498.422C110.979 505.452 129.391 506.881 146.848 502.493C150.775 501.502 154.683 500.48 158.572 499.427C153.529 484.925 152.63 469.304 155.976 454.319C159.322 439.334 166.78 425.58 177.513 414.6Z" fill="#EA5B70"/>
</svg>
