<svg width="512" height="512" viewBox="0 0 512 512" fill="none" xmlns="http://www.w3.org/2000/svg">
<path d="M489.896 100.66C499.14 89.9426 503.987 76.1252 503.464 61.9818C502.942 47.8384 497.089 34.4162 487.08 24.4099C477.071 14.4035 463.647 8.55383 449.504 8.03523C435.36 7.51664 421.544 12.3675 410.829 21.614C391.221 5.78099 362.017 2.06399 338.145 19.6C305.004 -1.70001 260.833 15.083 249.475 52.11C241.591 52.0531 233.775 53.5659 226.481 56.5602C219.188 59.5546 212.563 63.9705 206.994 69.5507C201.424 75.1309 197.021 81.7638 194.04 89.0629C191.06 96.3619 189.562 104.181 189.634 112.065V321.825H399.85C407.735 321.892 415.554 320.387 422.851 317.4C430.148 314.412 436.777 310 442.351 304.423C447.925 298.845 452.332 292.213 455.315 284.914C458.298 277.615 459.797 269.795 459.725 261.91C497.09 250.418 513.165 206.173 492.025 173.102C509.454 149.076 505.65 120.128 489.899 100.661L489.896 100.66Z" fill="#FFCE71"/>
<path d="M452.204 8.20004C444.761 7.55769 437.264 8.41398 430.158 10.7183C423.051 13.0226 416.479 16.7282 410.829 21.616C391.221 5.78104 362.017 2.06404 338.15 19.6C305.009 -1.69996 260.838 15.083 249.48 52.11C241.596 52.0532 233.78 53.566 226.486 56.5603C219.193 59.5546 212.568 63.9705 206.999 69.5507C201.429 75.131 197.026 81.7639 194.045 89.0629C191.065 96.362 189.567 104.181 189.639 112.065V321.825H292.439C276.878 305.49 268.211 283.786 268.239 261.225C268.239 260.789 268.249 260.356 268.256 259.925C261.762 255.588 256.604 249.529 253.359 242.426C250.114 235.323 248.912 227.458 249.885 219.71C250.859 211.962 253.97 204.638 258.871 198.558C263.772 192.479 270.269 187.884 277.634 185.289V182.068C277.562 174.184 279.06 166.365 282.04 159.066C285.021 151.767 289.424 145.134 294.994 139.553C300.563 133.973 307.188 129.557 314.481 126.563C321.775 123.569 329.591 122.056 337.475 122.113C348.834 85.081 393.004 68.3 426.15 89.6C426.15 62.079 440.399 31.023 481.588 19.64C473.104 13.0679 462.898 9.09436 452.204 8.20004Z" fill="#FFB357"/>
<path d="M409.816 324.416C266.244 265.375 161.429 302.031 161.429 302.031L73.885 482.557C248.734 562.857 375.357 406.03 415.939 351.457C421.574 343.879 418.55 328.009 409.816 324.416Z" fill="#00CE8E"/>
<path d="M184.995 70.8351C213.875 124.398 276.687 291.506 73.885 482.557C-87.891 320.857 101.797 120.257 158.828 66.6271C160.692 64.8709 162.935 63.5664 165.383 62.8142C167.831 62.0621 170.419 61.8824 172.947 62.289C175.476 62.6956 177.877 63.6777 179.966 65.1594C182.055 66.6412 183.776 68.583 184.995 70.8351Z" fill="#00C084"/>
</svg>
