<svg width="512" height="512" viewBox="0 0 512 512" fill="none" xmlns="http://www.w3.org/2000/svg">
<path d="M483.82 201.169C488.087 192.111 492.136 182.928 495.967 173.619C508.062 144.184 507.968 111.151 495.707 81.7849C483.446 52.4193 460.021 29.1271 430.587 17.0324C401.152 4.93777 368.118 5.03134 338.753 17.2926C309.387 29.5538 286.095 52.9783 274 82.4129C238.3 169.294 170.045 237.426 81.8 274.256C67.2591 280.325 54.056 289.199 42.9446 300.37C31.8331 311.542 23.0309 324.793 17.0404 339.366C11.05 353.94 7.98863 369.551 8.0312 385.307C8.07377 401.064 11.2194 416.658 17.2885 431.198C23.3576 445.739 32.2313 458.942 43.403 470.054C54.5747 481.165 67.8255 489.968 82.399 495.958C96.9725 501.948 112.583 505.01 128.34 504.967C144.096 504.925 159.69 501.779 174.231 495.71C183.754 491.735 193.138 487.539 202.384 483.124C206.589 489.184 212.878 493.483 220.052 495.2C227.225 496.916 234.78 495.929 241.272 492.428C247.764 488.928 252.739 483.158 255.246 476.221C257.754 469.284 257.617 461.667 254.864 454.824C297.037 429.315 335.862 398.645 370.442 363.524C403.084 330.442 431.693 293.611 455.673 253.8C462.546 256.618 470.219 256.786 477.208 254.271C484.198 251.757 490.006 246.739 493.509 240.189C497.011 233.639 497.959 226.023 496.17 218.814C494.38 211.605 489.979 205.316 483.82 201.165V201.169Z" fill="#00CE8E"/>
<path d="M430.589 17.034C404.006 6.11518 374.388 5.09762 347.118 14.1663C319.849 23.235 296.738 41.7878 281.989 66.452C275.6 65.3844 269.037 66.4133 263.281 69.3849C257.526 72.3566 252.886 77.1113 250.057 82.9383C247.228 88.7653 246.361 95.3515 247.585 101.712C248.809 108.073 252.06 113.867 256.85 118.227C243.551 142.442 227.419 164.989 208.795 185.394C203.369 179.676 195.911 176.324 188.033 176.063C180.155 175.801 172.491 178.651 166.698 183.996C160.905 189.341 157.449 196.752 157.077 204.625C156.705 212.498 159.448 220.202 164.711 226.069C139.325 245.725 111.445 261.928 81.7999 274.257C67.259 280.326 54.0558 289.2 42.9442 300.371C31.8327 311.543 23.0304 324.794 17.0399 339.368C11.0494 353.941 7.98802 369.552 8.03058 385.308C8.07314 401.065 11.2188 416.659 17.2879 431.2C17.6049 431.959 17.9369 432.706 18.2669 433.455C12.4793 438.519 8.85779 445.612 8.1506 453.27C7.44341 460.927 9.70457 468.564 14.4669 474.602C19.2293 480.64 26.129 484.618 33.7406 485.715C41.3522 486.811 49.0941 484.942 55.3669 480.493C66.7319 489.115 79.5367 495.652 93.1859 499.8C84.5636 471.35 86.8081 440.713 99.4845 413.824C112.161 386.935 134.367 365.708 161.8 354.256C250.043 317.426 318.3 249.294 354 162.413C361.246 144.709 372.638 129.004 387.218 116.62C369.327 97.662 382.637 66.039 409.034 66.039C416.111 66.0396 422.96 68.5422 428.37 73.1044C433.781 77.6666 437.404 83.9946 438.6 90.97C458.846 86.3746 479.941 87.1408 499.8 93.193C494.65 76.1522 485.766 60.4739 473.793 47.2994C461.82 34.1249 447.061 23.7856 430.589 17.034ZM122.039 352.04C116.105 352.04 110.305 350.281 105.372 346.984C100.438 343.688 96.5932 339.002 94.3225 333.521C92.0519 328.039 91.4578 322.007 92.6154 316.187C93.7729 310.368 96.6301 305.022 100.826 300.827C105.021 296.631 110.367 293.774 116.186 292.616C122.006 291.459 128.038 292.053 133.519 294.324C139.001 296.594 143.687 300.439 146.983 305.373C150.279 310.306 152.039 316.107 152.039 322.04C152.039 329.996 148.878 337.627 143.252 343.253C137.626 348.879 129.995 352.04 122.039 352.04Z" fill="#00B27A"/>
<path d="M317.039 336.039C333.608 336.039 347.039 322.608 347.039 306.039C347.039 289.471 333.608 276.039 317.039 276.039C300.471 276.039 287.039 289.471 287.039 306.039C287.039 322.608 300.471 336.039 317.039 336.039Z" fill="#00B27A"/>
</svg>
