<svg width="513" height="512" viewBox="0 0 513 512" fill="none" xmlns="http://www.w3.org/2000/svg">
<path d="M327.991 95.406C327.991 95.406 257.471 176.106 132.491 190.706C23.1868 203.469 -32.2012 339.215 22.0928 430.414C52.3778 481.297 112.238 512.187 170.941 512.059C230.117 511.934 282.058 479.016 323.175 438.959C377.413 386.119 416.886 320.314 455.554 255.834L461.034 184.826L385.425 109.219L327.991 95.406Z" fill="#827CD1"/>
<path d="M430.132 153.922C426.378 202.618 410.625 249.628 384.28 290.754C357.358 332.762 328.022 373.227 292.268 408.054C251.151 448.109 199.209 481.023 140.034 481.154C101.409 481.236 62.2919 467.888 31.4209 444.259C63.6549 486.841 117.769 512.173 170.937 512.059C230.113 511.93 282.058 479.016 323.175 438.959C377.413 386.119 416.886 320.314 455.554 255.834L461.034 184.826L430.132 153.922Z" fill="#625AC5"/>
<path d="M484.339 260.016C479.179 232.316 516.909 163.774 458.558 133.641C458.558 133.641 498.984 102.981 511.312 72.641C513.017 68.3925 513.433 63.736 512.508 59.2526C511.583 54.7692 509.359 50.6573 506.112 47.43L492.175 33.488C490.445 31.7546 488.323 30.4621 485.989 29.7195C483.655 28.977 481.177 28.806 478.763 29.2209C476.349 29.6359 474.07 30.6247 472.118 32.1041C470.166 33.5835 468.598 35.5102 467.546 37.722C458.441 56.937 443.007 85.128 424.984 100.07C394.851 41.715 326.308 79.449 298.609 74.289C297.685 74.0961 296.727 74.1306 295.819 74.3895C294.911 74.6484 294.08 75.1239 293.396 75.7752C292.713 76.4265 292.198 77.2341 291.895 78.1286C291.593 79.023 291.512 79.9775 291.66 80.91C294.473 96.902 314.223 128.051 367.617 133.578C367.617 133.578 342.535 161.566 362.527 196.098C397.058 216.098 425.05 191.012 425.05 191.012C430.573 244.403 461.722 264.157 477.714 266.965C478.647 267.113 479.601 267.032 480.496 266.73C481.39 266.427 482.198 265.912 482.849 265.229C483.501 264.545 483.977 263.714 484.236 262.806C484.496 261.898 484.531 260.941 484.339 260.016Z" fill="#73D98B"/>
<path d="M463.214 136.258C482.39 170.058 459.652 217.504 463.734 239.41C463.927 240.335 463.893 241.292 463.635 242.201C463.376 243.109 462.9 243.941 462.249 244.625C461.598 245.309 460.79 245.825 459.895 246.127C459.001 246.43 458.046 246.511 457.113 246.363C451.454 245.202 446.069 242.972 441.246 239.793C452.961 257.422 468.086 265.273 477.715 266.965C478.647 267.113 479.602 267.032 480.497 266.73C481.391 266.427 482.199 265.912 482.85 265.229C483.502 264.545 483.978 263.714 484.237 262.806C484.497 261.898 484.532 260.941 484.34 260.016C479.323 233.09 514.823 167.574 463.214 136.258Z" fill="#00C655"/>
</svg>
