<svg width="512" height="512" viewBox="0 0 512 512" fill="none" xmlns="http://www.w3.org/2000/svg">
<path d="M338.887 56.572C331.059 30.41 304.887 6.02102 265.047 8.12702C233.022 11.047 201.817 36.755 195.522 73.098C192.453 87.207 194.148 115.13 213.997 138.086C221.432 146.129 230.197 153.54 241.668 158.326C248.251 161.439 268.105 163.817 270.12 184.434C270.751 191.292 268.707 199.664 263.004 207.278C253.23 220.328 239.222 233.715 239.222 250.02L256.63 259.44L272.53 250.02C272.53 251.27 275.059 237.831 285.946 230.052C301.226 218.107 309.246 204.371 311.946 188.618C313.92 177.153 312.81 165.37 308.731 154.475C302.464 137.835 290.165 124.163 274.279 116.175C259.723 109.157 249.049 105.035 247.864 85.638C247.223 76.748 252.564 66.524 260.377 60.174C278.91 45.014 311.154 53.116 320.936 86.074C321.57 88.2255 322.905 90.1034 324.729 91.4088C326.553 92.7143 328.761 93.3725 331.002 93.2787C333.243 93.1849 335.388 92.3445 337.096 90.8911C338.805 89.4378 339.978 87.455 340.43 85.258C342.307 75.7165 341.778 65.8578 338.89 56.572H338.887Z" fill="#B0EBD8"/>
<path d="M322.216 331.248C314.62 328.733 307.686 324.54 301.93 318.982C290.082 307.421 284.498 290.682 283.381 272.135C283.129 267.587 284.032 263.049 286.006 258.944C286.82 257.231 287.084 255.308 286.761 253.439C286.439 251.571 285.546 249.847 284.205 248.506C282.864 247.166 281.14 246.273 279.271 245.95C277.403 245.628 275.48 245.892 273.767 246.706L267.798 249.543L265.584 243.316C264.949 241.529 263.775 239.983 262.226 238.889C260.676 237.796 258.826 237.209 256.93 237.209C255.033 237.209 253.184 237.796 251.634 238.889C250.085 239.983 248.911 241.529 248.276 243.316L246.062 249.543L240.093 246.706C232.127 242.919 224.102 251.439 227.855 258.945C229.828 263.05 230.731 267.587 230.479 272.134C228.854 299.14 217.759 322.311 191.645 331.248C146.681 346.636 116 377.423 116 412.894C116 463.763 179.1 505 256.931 505C272.06 505.027 287.148 503.418 301.931 500.2C357.698 487.928 397.862 453.475 397.862 412.891C397.862 377.42 367.18 346.633 322.216 331.245V331.248Z" fill="#FFF1D4"/>
<path d="M205.999 412.894C205.999 377.423 236.68 346.636 281.644 331.248C289.241 328.733 296.174 324.541 301.93 318.982C290.082 307.421 284.498 290.682 283.381 272.135C283.129 267.587 284.032 263.049 286.006 258.944C286.82 257.231 287.084 255.308 286.761 253.439C286.439 251.571 285.546 249.847 284.205 248.506C282.864 247.166 281.14 246.273 279.271 245.95C277.403 245.628 275.48 245.892 273.767 246.706L267.798 249.543L265.584 243.316C264.949 241.529 263.775 239.983 262.226 238.889C260.676 237.796 258.826 237.209 256.93 237.209C255.033 237.209 253.184 237.796 251.634 238.889C250.085 239.983 248.911 241.529 248.276 243.316L246.062 249.543L240.093 246.706C232.127 242.919 224.102 251.439 227.855 258.945C229.828 263.05 230.731 267.587 230.479 272.134C228.854 299.14 217.759 322.311 191.645 331.248C146.681 346.636 116 377.423 116 412.894C116 463.763 179.1 505 256.931 505C272.06 505.027 287.148 503.418 301.931 500.2C246.163 487.928 205.999 453.476 205.999 412.891V412.894Z" fill="#FCE3A0"/>
<path d="M337.566 366.565C336.97 365.781 336.225 365.122 335.374 364.626C334.523 364.13 333.583 363.806 332.607 363.673C331.631 363.541 330.639 363.601 329.686 363.852C328.734 364.103 327.84 364.539 327.056 365.135C326.272 365.731 325.613 366.476 325.117 367.327C324.621 368.178 324.297 369.118 324.164 370.094C324.031 371.07 324.092 372.062 324.343 373.015C324.594 373.967 325.03 374.861 325.626 375.645C332.896 385.206 344.426 403.773 344.426 412.895C344.411 426.761 340.9 440.4 334.22 452.551C333.261 454.294 333.034 456.346 333.588 458.257C334.142 460.167 335.433 461.779 337.176 462.738C338.919 463.697 340.971 463.924 342.882 463.37C344.792 462.815 346.404 461.525 347.363 459.782C355.26 445.417 359.411 429.293 359.43 412.9C359.43 395.817 339.804 369.513 337.566 366.57V366.565Z" fill="#FCE3A0"/>
<path d="M186.804 365.135C186.02 364.539 185.126 364.103 184.174 363.852C183.222 363.601 182.229 363.54 181.253 363.673C180.277 363.806 179.337 364.13 178.486 364.626C177.635 365.122 176.89 365.781 176.294 366.565C174.056 369.508 154.43 395.812 154.43 412.9C154.444 429.293 158.589 445.418 166.482 459.786C166.955 460.653 167.594 461.418 168.363 462.037C169.132 462.656 170.015 463.118 170.963 463.395C171.91 463.672 172.903 463.759 173.885 463.651C174.866 463.544 175.817 463.243 176.682 462.767C177.547 462.292 178.309 461.65 178.926 460.879C179.542 460.107 180 459.222 180.274 458.273C180.547 457.325 180.631 456.332 180.519 455.351C180.408 454.37 180.104 453.42 179.625 452.557C172.948 440.403 169.442 426.762 169.43 412.895C169.43 403.795 180.963 385.22 188.23 375.645C188.826 374.861 189.262 373.967 189.513 373.015C189.764 372.062 189.825 371.07 189.692 370.094C189.559 369.118 189.235 368.178 188.739 367.327C188.243 366.476 187.584 365.731 186.8 365.135H186.804Z" fill="#FFCE71"/>
</svg>
