<svg width="512" height="512" viewBox="0 0 512 512" fill="none" xmlns="http://www.w3.org/2000/svg">
<path d="M442.9 63.6851C432.878 62.977 422.817 64.311 413.327 67.6063C403.836 70.9016 395.113 76.0895 387.686 82.8557C380.26 89.6219 374.284 97.8255 370.122 106.969C365.96 116.113 363.698 126.007 363.472 136.051C363.367 140.617 363.672 145.183 364.382 149.694L364.397 149.785C367.597 169.335 362.636 189.173 350.422 205.645C350.372 205.712 350.322 205.774 350.269 205.845C341.325 183.667 324.942 165.292 303.932 153.871C282.922 142.45 258.592 138.695 235.116 143.249C211.64 147.804 190.48 160.384 175.264 178.833C160.049 197.282 151.727 220.45 151.724 244.364C151.724 266.798 158.896 341.987 171.072 424.835C173.828 443.367 182.657 460.459 196.176 473.43C209.695 486.402 227.138 494.518 245.768 496.505C264.397 498.492 283.16 494.238 299.111 484.41C315.061 474.582 327.298 459.737 333.9 442.203C341.239 444.492 348.985 445.168 356.609 444.185C364.233 443.203 371.555 440.584 378.073 436.509C384.591 432.435 390.152 427 394.375 420.576C398.598 414.153 401.383 406.893 402.54 399.294C403.697 391.694 403.198 383.934 401.078 376.546C398.957 369.157 395.266 362.313 390.255 356.483C385.245 350.653 379.034 345.975 372.048 342.768C365.062 339.561 357.465 337.902 349.778 337.903C349.778 337.9 349.778 337.898 349.778 337.895C382.893 330.868 413.681 315.544 439.251 293.36C481.789 256.742 507.415 205.266 511.408 148.416L511.79 142.985C511.931 140.985 511.967 138.995 511.948 137.02C511.74 118.362 504.524 100.465 491.733 86.88C478.942 73.295 461.512 65.0156 442.9 63.6851Z" fill="#E8B5B1"/>
<path d="M261.071 424.832C248.9 341.984 241.723 266.795 241.723 244.361C241.719 225.027 247.157 206.083 257.414 189.694C267.671 173.306 282.333 160.134 299.723 151.687C284.018 144.071 266.635 140.569 249.206 141.51C231.776 142.451 214.872 147.805 200.078 157.068C185.284 166.332 173.086 179.202 164.628 194.47C156.17 209.739 151.73 226.906 151.723 244.361C151.723 247.43 151.858 251.493 152.123 256.422C136.25 236.922 128.517 211.675 132.751 185.831C134.483 175.317 133.345 164.53 129.456 154.609C125.568 144.688 119.073 136.001 110.657 129.465C124.88 124.756 137.093 115.377 145.313 102.851C153.533 90.3254 157.277 75.3884 155.936 60.4663C154.595 45.5443 148.249 31.5138 137.927 20.6539C127.606 9.79398 113.917 2.74251 99.0819 0.644834C84.2473 -1.45284 69.1393 1.5265 56.2117 9.09894C43.284 16.6714 33.2963 28.3921 27.8707 42.3573C22.445 56.3226 21.9003 71.7119 26.3248 86.0259C30.7494 100.34 39.8834 112.737 52.2432 121.205C40.5848 125.871 30.7086 134.118 24.0376 144.757C17.3666 155.396 14.2452 167.878 15.1232 180.405L15.5042 185.834C21.6902 273.924 83.9512 343.168 162.435 361.024C164.93 381.179 167.822 402.735 171.07 424.837C173.131 438.745 178.627 451.919 187.061 463.167C195.495 474.416 206.601 483.384 219.374 489.26C232.147 495.136 246.183 497.734 260.212 496.82C274.242 495.906 287.822 491.508 299.724 484.024C289.381 477.542 280.569 468.893 273.895 458.673C267.222 448.453 262.846 436.906 261.071 424.83V424.832Z" fill="#D6948C"/>
<path d="M442.9 63.6851C432.878 62.977 422.817 64.311 413.326 67.6063C403.835 70.9016 395.112 76.0895 387.686 82.8557C380.259 89.6219 374.284 97.8255 370.122 106.969C365.96 116.113 363.697 126.007 363.472 136.051C363.655 155.537 371.492 174.17 385.292 187.93C399.091 201.689 417.747 209.472 437.234 209.599C456.721 209.726 475.476 202.187 489.454 188.608C503.431 175.03 511.51 156.5 511.948 137.018C511.739 118.361 504.523 100.464 491.732 86.8795C478.941 73.295 461.511 65.0158 442.9 63.6851Z" fill="#FCE3A0"/>
<path d="M455.864 271.935C440.335 268.244 425.67 261.576 412.681 252.3C390.704 236.568 374.433 214.121 366.319 188.34C365.725 186.441 364.402 184.856 362.639 183.933C360.876 183.01 358.819 182.826 356.921 183.419C355.022 184.013 353.437 185.337 352.514 187.1C351.591 188.862 351.406 190.919 352 192.818C361.097 221.718 379.336 246.881 403.972 264.518C418.534 274.915 434.974 282.388 452.382 286.524C453.345 286.767 454.346 286.816 455.328 286.669C456.31 286.522 457.253 286.181 458.103 285.666C458.952 285.152 459.691 284.474 460.276 283.671C460.861 282.869 461.281 281.959 461.511 280.993C461.742 280.027 461.778 279.025 461.619 278.045C461.459 277.065 461.106 276.126 460.581 275.284C460.055 274.441 459.368 273.711 458.558 273.136C457.749 272.561 456.833 272.153 455.864 271.935Z" fill="#CE857A"/>
<path d="M495.61 227.946C494.873 226.098 493.432 224.619 491.605 223.834C489.777 223.049 487.713 223.022 485.865 223.759C467.99 230.928 448.033 230.897 430.181 223.671C428.342 222.959 426.297 223.001 424.489 223.786C422.68 224.571 421.253 226.036 420.517 227.865C419.781 229.694 419.795 231.74 420.555 233.559C421.316 235.378 422.762 236.824 424.581 237.585C446.012 246.259 469.969 246.297 491.427 237.69C493.274 236.953 494.753 235.512 495.538 233.685C496.324 231.858 496.351 229.793 495.614 227.946H495.61Z" fill="#CE857A"/>
<path d="M83.1743 76.953C100.63 87.8725 120.804 93.6639 141.394 93.666C145.71 93.6662 150.023 93.4094 154.308 92.897C155.286 92.7799 156.232 92.4713 157.09 91.9889C157.949 91.5065 158.705 90.8596 159.313 90.0853C159.922 89.3109 160.372 88.4242 160.639 87.4759C160.905 86.5275 160.981 85.536 160.864 84.558C160.747 83.5799 160.439 82.6346 159.956 81.7758C159.474 80.917 158.827 80.1617 158.053 79.5529C157.278 78.9441 156.392 78.4938 155.443 78.2277C154.495 77.9616 153.503 77.8849 152.525 78.002C131.107 80.4744 109.485 75.5799 91.2201 64.1243C72.9548 52.6687 59.1347 35.335 52.0353 14.977C51.7244 14.0338 51.2294 13.1617 50.5788 12.4113C49.9282 11.661 49.1351 11.0473 48.2455 10.6059C47.3559 10.1646 46.3875 9.90425 45.3964 9.84012C44.4054 9.77599 43.4115 9.90932 42.4724 10.2324C41.5333 10.5554 40.6677 11.0618 39.9259 11.722C39.184 12.3822 38.5807 13.1832 38.1509 14.0785C37.7211 14.9738 37.4734 15.9455 37.4221 16.9373C37.3708 17.9291 37.5171 18.9212 37.8523 19.856C46.0118 43.4976 62.0019 63.643 83.1743 76.956V76.953Z" fill="#CE857A"/>
<path d="M137.23 181.059C138.09 180.57 138.845 179.916 139.451 179.134C140.057 178.353 140.502 177.459 140.761 176.504C141.02 175.55 141.088 174.553 140.961 173.572C140.833 172.592 140.513 171.646 140.018 170.789C139.524 169.932 138.865 169.182 138.079 168.581C137.293 167.98 136.396 167.541 135.44 167.288C134.484 167.035 133.487 166.974 132.507 167.108C131.527 167.242 130.583 167.569 129.73 168.069C112.953 177.758 94.2892 183.725 75.0034 185.567C55.7177 187.409 36.2614 185.082 17.954 178.744C16.0736 178.094 14.0119 178.217 12.2225 179.087C11.3364 179.517 10.5439 180.118 9.89006 180.855C9.23626 181.592 8.73403 182.451 8.41203 183.382C8.09003 184.313 7.95457 185.298 8.01338 186.282C8.0722 187.265 8.32414 188.227 8.75481 189.113C9.62461 190.903 11.1696 192.274 13.05 192.924C33.3889 199.967 55.0045 202.552 76.4307 200.506C97.8568 198.459 118.592 191.828 137.23 181.063V181.059Z" fill="#CE857A"/>
<path d="M139.353 222.424C139.979 221.654 140.446 220.768 140.727 219.816C141.008 218.865 141.098 217.867 140.99 216.881C140.883 215.895 140.581 214.939 140.102 214.07C139.623 213.202 138.977 212.436 138.2 211.819C137.423 211.202 136.531 210.745 135.577 210.475C134.622 210.205 133.623 210.127 132.638 210.245C131.653 210.364 130.701 210.677 129.838 211.166C128.975 211.655 128.217 212.31 127.609 213.094C116.743 226.716 102.512 237.267 86.3202 243.705C70.1286 250.142 52.5374 252.244 35.2849 249.802C33.3268 249.542 31.3452 250.065 29.7705 251.258C28.1958 252.45 27.1551 254.216 26.8744 256.171C26.5938 258.127 27.0959 260.114 28.2716 261.701C29.4473 263.288 31.2018 264.348 33.1539 264.649C38.509 265.417 43.9121 265.802 49.3219 265.802C66.6218 265.791 83.6973 261.886 99.2825 254.376C114.868 246.867 128.563 235.947 139.353 222.424Z" fill="#CE857A"/>
<path d="M159.436 254.767C158.997 252.827 157.805 251.14 156.123 250.079C154.441 249.017 152.406 248.667 150.466 249.106C148.526 249.545 146.839 250.736 145.778 252.418C144.716 254.101 144.366 256.136 144.805 258.076C148.27 273.174 145.721 289.027 137.697 302.278C129.674 315.528 116.807 325.134 101.823 329.061C99.9 329.571 98.2587 330.825 97.2601 332.546C96.2615 334.266 95.9873 336.313 96.4978 338.236C97.0084 340.159 98.2618 341.8 99.9825 342.799C101.703 343.797 103.75 344.071 105.673 343.561C124.415 338.649 140.509 326.632 150.545 310.058C160.581 293.484 163.769 273.654 159.436 254.769V254.767Z" fill="#CE857A"/>
<path d="M348.006 330.605C332.74 334.284 319.347 343.42 310.35 356.29C290.396 371.51 267.289 382.071 242.723 387.202C218.157 392.332 192.754 391.9 168.376 385.939C166.447 385.483 164.416 385.809 162.727 386.846C161.038 387.882 159.828 389.546 159.361 391.472C158.895 393.398 159.209 395.431 160.237 397.125C161.264 398.82 162.92 400.04 164.844 400.517C179.127 403.985 193.773 405.741 208.471 405.747C240.555 405.746 272.072 397.294 299.851 381.241C299.703 382.021 299.57 382.806 299.451 383.597C297.643 395.358 299.126 407.391 303.736 418.361C284.259 429.967 262.009 436.097 239.337 436.104C216.664 436.11 194.41 429.992 174.927 418.397C173.221 417.375 171.178 417.073 169.249 417.557C167.319 418.041 165.661 419.272 164.639 420.978C163.617 422.685 163.315 424.727 163.799 426.657C164.283 428.586 165.514 430.244 167.22 431.266C188.996 444.321 213.911 451.213 239.3 451.205C240.53 451.205 241.767 451.188 243 451.156C267.029 450.53 290.493 443.732 311.134 431.415C316.226 438.357 322.654 444.211 330.04 448.635C331.746 449.659 333.788 449.963 335.718 449.481C337.648 448.999 339.307 447.77 340.331 446.064C341.355 444.358 341.659 442.316 341.177 440.386C340.695 438.456 339.466 436.797 337.76 435.773C330.487 431.422 324.453 425.276 320.236 417.924C320.077 417.577 319.891 417.243 319.681 416.924C315.424 409.038 313.379 400.148 313.761 391.195C314.142 382.242 316.938 373.559 321.85 366.064C322.08 365.771 322.288 365.461 322.472 365.137C329.376 355.131 339.729 348.024 351.548 345.176C352.505 344.943 353.407 344.525 354.202 343.944C354.997 343.362 355.67 342.63 356.183 341.789C356.695 340.948 357.037 340.014 357.188 339.041C357.339 338.068 357.298 337.074 357.065 336.117C356.832 335.16 356.414 334.258 355.833 333.463C355.251 332.668 354.519 331.995 353.678 331.482C352.837 330.97 351.903 330.628 350.93 330.477C349.957 330.326 348.963 330.367 348.006 330.6V330.605Z" fill="#CE857A"/>
<path d="M147.432 230.203C148.026 230.989 148.769 231.65 149.618 232.149C150.467 232.648 151.407 232.975 152.382 233.111C153.358 233.246 154.351 233.189 155.304 232.941C156.257 232.693 157.152 232.26 157.938 231.666C183.156 212.613 212.155 199.169 242.992 192.236C273.829 185.303 305.792 185.04 336.738 191.466C337.703 191.666 338.697 191.675 339.664 191.49C340.632 191.306 341.554 190.933 342.377 190.393C343.201 189.853 343.91 189.156 344.464 188.341C345.018 187.527 345.406 186.611 345.606 185.647C345.806 184.683 345.815 183.688 345.631 182.721C345.447 181.753 345.074 180.831 344.533 180.008C343.993 179.184 343.296 178.475 342.481 177.921C341.667 177.367 340.752 176.979 339.787 176.779C306.748 169.921 272.625 170.202 239.704 177.604C206.783 185.006 175.824 199.358 148.9 219.698C147.313 220.897 146.267 222.677 145.993 224.648C145.719 226.618 146.238 228.616 147.437 230.203H147.432Z" fill="#CE857A"/>
<path d="M413.31 309.454C398.206 297.013 385.957 281.468 377.395 263.873C376.965 262.987 376.365 262.193 375.629 261.539C374.893 260.884 374.035 260.381 373.104 260.058C372.174 259.735 371.189 259.599 370.205 259.656C369.222 259.714 368.26 259.965 367.373 260.394C366.487 260.824 365.694 261.424 365.039 262.16C364.384 262.896 363.881 263.754 363.558 264.685C363.235 265.615 363.099 266.6 363.156 267.584C363.214 268.567 363.465 269.53 363.895 270.416C373.405 289.96 387.012 307.228 403.789 321.046C404.55 321.671 405.427 322.14 406.369 322.426C407.311 322.713 408.301 322.81 409.281 322.714C410.261 322.618 411.213 322.33 412.082 321.866C412.951 321.402 413.719 320.771 414.345 320.01C414.97 319.249 415.439 318.372 415.725 317.43C416.011 316.487 416.109 315.498 416.013 314.517C415.917 313.537 415.628 312.586 415.164 311.717C414.7 310.848 414.07 310.079 413.309 309.454H413.31Z" fill="#CE857A"/>
</svg>
