<svg width="512" height="512" viewBox="0 0 512 512" fill="none" xmlns="http://www.w3.org/2000/svg">
<path d="M372 125.97V35H418.854C421.771 35 424.569 36.1589 426.632 38.2218C428.695 40.2847 429.854 43.0826 429.854 46V125.97H372Z" fill="#00B27A"/>
<path d="M492 107.63C492.001 106.238 491.727 104.859 491.195 103.572C490.663 102.285 489.882 101.116 488.897 100.131C487.913 99.1459 486.744 98.3646 485.458 97.8315C484.171 97.2984 482.793 97.024 481.4 97.024H372V154.917H492V107.63Z" fill="#00C084"/>
<path d="M266.466 201.136V36.7C266.466 30.9469 268.75 25.4292 272.817 21.36C276.884 17.2908 282.401 15.0032 288.154 15H363.154C368.907 15.0019 374.424 17.2891 378.491 21.3586C382.558 25.4281 384.842 30.9466 384.841 36.7V201.137L266.466 201.136Z" fill="#009D6B"/>
<path d="M512 163.61C512 157.857 509.715 152.339 505.648 148.27C501.581 144.201 496.065 141.913 490.312 141.91H266.466V260.364H490.312C496.065 260.361 501.582 258.073 505.649 254.003C509.716 249.933 512.001 244.415 512 238.661V163.61Z" fill="#00CE8E"/>
<path d="M429.853 141.909H266.466V260.365H384.979V250.246C384.979 230.126 388.941 210.203 396.641 191.614C404.34 173.026 415.626 156.136 429.853 141.909Z" fill="#00B27A"/>
<path d="M365.508 220.913C342.162 184.33 307.323 156.541 266.466 141.913C266.466 141.913 15 304.577 15 393.545C15 427.921 66.555 485.662 108.176 505.254C117.262 509.531 125.876 512 133.376 512C222.283 512 384.842 260.363 384.842 260.363C379.899 246.529 373.413 233.296 365.509 220.913H365.508Z" fill="#FFF1D4"/>
<path d="M288.969 234.545C299.905 226.714 312.453 221.426 325.696 219.068C338.938 216.709 352.54 217.34 365.508 220.913C342.162 184.33 307.323 156.541 266.466 141.913C266.466 141.913 15 304.577 15 393.545C15 427.921 66.555 485.662 108.176 505.254C94.3 486.943 85 468.138 85 453.545C85 389.311 216.086 286.656 288.969 234.545Z" fill="#FCE3A0"/>
</svg>
