<svg width="512" height="512" viewBox="0 0 512 512" fill="none" xmlns="http://www.w3.org/2000/svg">
<path d="M338.617 164.221C375.716 127.121 382.048 73.3021 352.759 44.0128C323.469 14.7235 269.65 21.0551 232.551 58.1549C195.451 95.2547 189.119 149.074 218.408 178.363C247.698 207.652 301.517 201.321 338.617 164.221Z" fill="#B0EBD8"/>
<path d="M293.233 183.888C315.607 158.21 300.294 108.247 259.03 72.2912C217.766 36.3356 166.177 28.0035 143.802 53.6809C121.428 79.3584 136.742 129.322 178.006 165.278C219.27 201.233 270.859 209.565 293.233 183.888Z" fill="#00CE8E"/>
<path d="M359.537 114.81C348.349 128.274 332.589 137.142 315.607 133.239C280.291 125.593 243.79 158.51 248.027 195.339C248.923 203.245 247.127 211.223 242.931 217.983C238.734 224.743 232.381 229.891 224.898 232.596C188.877 245.259 174.95 294.179 203.151 326.57C219.243 345.052 228.107 368.732 228.107 393.238V520.013C237.366 521.733 246.765 522.592 256.182 522.58C306.438 522.58 347.969 498.805 354.582 467.949L362.64 367.833C367.306 309.853 375.577 253.789 405.97 204.192L430.48 164.192C459.467 116.903 399.609 66.58 359.537 114.81Z" fill="#5FD9B3"/>
<path d="M286.781 439.802V439.808C276.69 441.651 266.453 442.579 256.194 442.58C246.784 442.589 237.389 441.81 228.108 440.25V520.013C237.368 521.733 246.766 522.592 256.183 522.58C306.439 522.58 347.97 498.805 354.583 467.949L360.592 393.293C349.932 415.659 322.056 433.25 286.781 439.802Z" fill="#B0EBD8"/>
<path d="M287.236 232.6C279.754 229.895 273.401 224.747 269.204 217.987C265.007 211.227 263.212 203.249 264.107 195.343C268.344 158.511 231.843 125.594 196.527 133.243C179.545 137.143 163.784 128.278 152.597 114.814C112.524 66.5801 52.6675 116.903 81.6515 164.195L106.161 204.195C136.554 253.795 144.824 309.855 149.491 367.836L151.491 392.69L157.38 465.86C162.525 497.727 204.796 522.583 256.18 522.583C265.52 522.595 274.84 521.75 284.025 520.06V393.241C284.025 368.735 292.889 345.056 308.981 326.573C337.181 294.183 323.255 245.263 287.234 232.6H287.236Z" fill="#00C084"/>
<path d="M151.492 392.687L157.381 465.857C162.526 497.724 204.797 522.58 256.181 522.58C265.52 522.592 274.841 521.747 284.026 520.057V440.28C274.826 441.805 265.518 442.574 256.193 442.58C206.765 442.58 164.805 421.58 151.493 392.687H151.492Z" fill="#5FD9B3"/>
</svg>
