<svg width="512" height="512" viewBox="0 0 512 512" fill="none" xmlns="http://www.w3.org/2000/svg">
<path d="M342.527 339.551C342.527 339.551 373.836 406.567 373.836 464.371C373.836 505.504 343.094 511.062 256 511.062C168.906 511.062 138.164 505.5 138.164 464.371C138.164 406.571 169.473 339.551 169.473 339.551L256 303.176L342.527 339.551Z" fill="#FFE8B6"/>
<path d="M179.371 464.371C179.371 406.571 210.68 339.551 210.68 339.551L276.606 311.84L256 303.176L169.473 339.551C169.473 339.551 138.164 406.567 138.164 464.371C138.164 505.504 168.906 511.062 256 511.062C263.258 511.062 270.113 511.023 276.605 510.929C205.211 509.887 179.371 502.078 179.371 464.371Z" fill="#FAD889"/>
<path d="M488.813 149.4C447.762 59.922 355.168 0 256 0C156.949 0 64.4382 59.434 23.1882 149.4C7.85999 182.845 -0.0503236 219.21 0.000240893 256C0.000240893 301.074 37.7932 339.551 83.5552 339.551H428.445C450.604 339.55 471.856 330.747 487.525 315.079C503.195 299.41 511.998 278.159 512 256C512.051 219.21 504.141 182.845 488.813 149.4Z" fill="#FFF7E5"/>
<path d="M41.2072 256C41.1567 219.21 49.067 182.845 64.3952 149.4C102.766 65.711 185.492 8.457 276.574 0.871C269.758 0.301 262.9 0.0106667 256 0C156.949 0 64.4382 59.434 23.1882 149.4C7.85957 182.845 -0.0507617 219.21 0.000245112 256C0.000245112 301.074 37.7932 339.551 83.5552 339.551H124.762C79.0002 339.551 41.2072 301.074 41.2072 256Z" fill="#FFE8B6"/>
</svg>
