<svg width="512" height="512" viewBox="0 0 512 512" fill="none" xmlns="http://www.w3.org/2000/svg">
<path d="M235.205 249.311C291.993 226.84 343.555 192.934 386.688 149.699C419.152 117.293 446.429 80.0779 467.558 39.364C475.058 24.903 459.613 9.46398 445.152 16.958C349.526 66.6689 274.998 149.151 235.205 249.311Z" fill="#00B27A"/>
<path d="M235.205 249.311C191.162 231.883 151.173 205.587 117.719 172.055C92.5418 146.921 71.387 118.058 54.9994 86.482C49.1844 75.266 61.1614 63.29 72.3764 69.104C103.953 85.4914 132.816 106.647 157.949 131.825C191.482 165.278 217.778 205.268 235.205 249.311Z" fill="#00B27A"/>
<path d="M256.578 263.426C250.18 257.03 242.999 251.468 235.206 246.873C184.16 216.726 110.423 229.588 58.5861 281.425C-1.0589 341.07 -9.1139 429.715 40.5861 479.419C71.8701 510.703 118.586 519.096 163.778 506.154C190.389 498.534 216.478 483.523 238.578 461.42C298.223 401.775 306.278 313.13 256.578 263.426Z" fill="#5FD9B3"/>
<path d="M160.405 291.608C182.505 269.508 208.595 254.494 235.205 246.874C184.159 216.727 110.422 229.589 58.5851 281.426C-1.05988 341.07 -9.11488 429.715 40.5851 479.419C71.8691 510.703 118.585 519.096 163.777 506.154C155.984 501.559 148.803 495.996 142.406 489.599C92.7061 439.899 100.76 351.25 160.406 291.606L160.405 291.608Z" fill="#00CE8E"/>
<path d="M66.1504 453.808C70.2925 453.808 73.6504 450.45 73.6504 446.308C73.6504 442.166 70.2925 438.808 66.1504 438.808C62.0083 438.808 58.6504 442.166 58.6504 446.308C58.6504 450.45 62.0083 453.808 66.1504 453.808Z" fill="#00B27A"/>
<path d="M454.419 237.167C419.449 202.197 374.512 184.967 333.297 186.711C304.217 187.939 276.988 198.611 256.426 219.168C206.726 268.868 214.781 357.516 274.426 417.161C334.071 476.806 422.715 484.861 472.419 435.161C478.006 429.572 482.958 423.384 487.186 416.708C519.599 365.586 507.253 289.999 454.419 237.167Z" fill="#8288CB"/>
<path d="M366.063 366.251C313.229 313.417 300.882 237.832 333.297 186.711C304.217 187.939 276.988 198.611 256.426 219.168C247.674 227.922 240.495 238.119 235.205 249.311C211.278 299.767 225.489 368.225 274.425 417.161C334.07 476.806 422.714 484.861 472.418 435.161C478.005 429.572 482.957 423.384 487.185 416.708C445.971 418.449 401.033 401.222 366.063 366.252V366.251Z" fill="#676FB2"/>
<path d="M446.15 416.246C450.293 416.246 453.65 412.888 453.65 408.746C453.65 404.604 450.293 401.246 446.15 401.246C442.008 401.246 438.65 404.604 438.65 408.746C438.65 412.888 442.008 416.246 446.15 416.246Z" fill="#4C5699"/>
</svg>
