<svg width="512" height="512" viewBox="0 0 512 512" fill="none" xmlns="http://www.w3.org/2000/svg">
<path d="M509.599 204.848C509.908 155.082 478.693 115.063 478.693 115.063L417.374 94.625L188.929 323.074L196.945 358.374C349.062 235.7 457.222 221.375 494.299 220.539C498.391 220.433 502.28 218.734 505.138 215.803C507.996 212.872 509.596 208.941 509.599 204.848Z" fill="#00C655"/>
<path d="M494.299 189.633C457.217 190.469 349.057 204.793 196.944 327.469L194.644 317.352L188.925 323.075L196.941 358.375C349.062 235.7 457.222 221.375 494.299 220.539C498.392 220.431 502.282 218.73 505.139 215.798C507.997 212.866 509.597 208.934 509.599 204.839C509.626 197.059 508.938 189.293 507.544 181.639C506.224 184.01 504.308 185.995 501.985 187.397C499.661 188.799 497.012 189.57 494.299 189.633Z" fill="#00B72F"/>
<path d="M307.155 2.39998C356.921 2.09098 396.94 33.306 396.94 33.306L417.374 94.622L188.929 323.074L153.629 315.054C276.299 162.938 290.624 54.777 291.46 17.7C291.568 13.6069 293.269 9.71745 296.201 6.85979C299.134 4.00212 303.066 2.40196 307.16 2.39998H307.155Z" fill="#00C655"/>
<path d="M510.038 80.605C503.12 68.477 491.589 50.578 476.507 35.5C461.425 20.422 443.522 8.87903 431.399 1.96503C429.649 0.96576 427.714 0.331522 425.711 0.100582C423.709 -0.130358 421.68 0.0467864 419.748 0.621328C417.816 1.19587 416.02 2.1559 414.469 3.44349C412.918 4.73108 411.644 6.31954 410.723 8.11303C332.937 160.047 153.628 315.055 153.628 315.055L196.944 358.371C196.944 358.371 351.952 179.063 503.886 101.277C505.68 100.357 507.268 99.0832 508.555 97.5327C509.843 95.9821 510.803 94.1868 511.378 92.2551C511.953 90.3234 512.131 88.2952 511.9 86.293C511.67 84.2907 511.037 82.3559 510.038 80.605Z" fill="#73D98B"/>
<path d="M177.042 334.957C97.9294 255.84 34.6364 315.074 22.0584 327.657C-29.2416 378.957 26.9414 454.457 12.9414 485.157C12.0951 487.103 11.8542 489.258 12.2498 491.343C12.6455 493.427 13.6595 495.344 15.1598 496.845C16.6601 498.345 18.5772 499.359 20.6618 499.755C22.7463 500.15 24.9017 499.909 26.8474 499.063C57.5474 485.063 133.047 541.247 184.347 489.946C196.925 477.363 256.159 414.074 177.042 334.957Z" fill="#C9AAF2"/>
<path d="M177.042 334.957C173.452 331.363 169.894 328.066 166.37 325.027C230.265 399.109 175.749 457.327 163.745 469.34C116.845 516.24 49.7253 473.313 15.0973 476.301C14.8887 479.353 14.1595 482.347 12.9413 485.153C12.0966 487.099 11.8568 489.254 12.2529 491.338C12.649 493.422 13.6628 495.338 15.1626 496.838C16.6623 498.339 18.5786 499.353 20.6625 499.75C22.7463 500.146 24.9013 499.907 26.8473 499.063C57.5473 485.063 133.047 541.243 184.347 489.942C196.925 477.363 256.159 414.074 177.042 334.957Z" fill="#B28AE4"/>
</svg>
