<svg width="512" height="512" viewBox="0 0 512 512" fill="none" xmlns="http://www.w3.org/2000/svg">
<path d="M393.385 8C389.407 8 385.592 9.58035 382.779 12.3934C379.966 15.2064 378.385 19.0218 378.385 23V82.072H408.385V23C408.385 19.0218 406.805 15.2064 403.992 12.3934C401.179 9.58035 397.364 8 393.385 8V8Z" fill="#00B27A"/>
<path d="M418.056 70.5999L409.35 74.7379L406.12 65.6549C401.896 53.7779 385.099 53.7779 380.876 65.6549L377.646 74.7379L368.94 70.5999C357.555 65.1879 345.678 77.0659 351.09 88.4499L355.228 99.1559L393.5 131.79L431.77 99.1539L435.908 88.4479C441.321 77.0639 429.443 65.1869 418.058 70.5989L418.056 70.5999Z" fill="#00CE8E"/>
<path d="M338.064 122.952C316.362 178.249 283.479 228.471 241.475 270.475C199.471 312.479 149.249 345.361 93.9524 367.064C45.7384 385.955 42.7814 452.921 88.9934 476.286C139.121 501.64 195.976 510.515 251.447 501.645C306.917 492.774 358.169 466.612 397.891 426.89C437.613 387.169 463.775 335.917 472.645 280.446C481.516 224.976 472.641 168.121 447.287 117.993C423.921 71.7801 356.955 74.7371 338.064 122.952Z" fill="#5FD9B3"/>
<path d="M209.317 475C172.221 474.949 135.65 466.221 102.528 449.514C86.3704 441.344 85.8194 425.827 86.0354 421.267C86.2494 416.754 88.2414 401.522 104.895 394.996C164.017 371.744 217.714 336.559 262.636 291.637C307.559 246.715 342.743 193.018 365.995 133.896C372.865 116.363 388.987 114.996 393.766 114.996C399.335 114.92 404.811 116.434 409.549 119.362C414.287 122.29 418.09 126.509 420.513 131.524C438.755 167.606 447.45 207.759 445.769 248.155C444.088 288.55 432.087 327.842 410.911 362.284C389.734 396.725 360.088 425.167 324.799 444.899C289.51 464.631 249.755 474.994 209.324 475H209.317Z" fill="#00B27A"/>
<path d="M386.071 143.449C385.39 143.061 384.703 142.691 384.014 142.331C369.053 134.486 351.618 132.799 335.429 137.628C319.241 142.457 305.58 153.421 297.361 168.181C279.661 199.643 291.543 238.331 322.833 256.134C343.133 267.683 366.599 267.593 385.421 257.525C396.044 251.82 404.806 243.187 410.668 232.651C419.176 217.547 421.363 199.691 416.755 182.98C412.146 166.269 401.115 152.059 386.068 143.451L386.071 143.449Z" fill="#5FD9B3"/>
<path d="M357.361 168.181C363.54 157.154 372.803 148.169 384.014 142.33C369.053 134.485 351.618 132.798 335.429 137.627C319.241 142.456 305.58 153.42 297.361 168.18C279.661 199.642 291.543 238.33 322.833 256.133C343.133 267.682 366.599 267.592 385.421 257.524C384.554 257.078 383.689 256.624 382.833 256.133C351.543 238.333 339.656 199.643 357.361 168.181Z" fill="#00CE8E"/>
<path d="M221.259 338.9C215.299 329.384 207.072 321.496 197.314 315.942C192.195 313.102 186.678 311.048 180.949 309.848C168.375 307.232 155.307 308.402 143.398 313.21C131.489 318.019 121.272 326.249 114.04 336.862C106.807 347.475 102.882 359.994 102.762 372.836C102.641 385.679 106.331 398.269 113.363 409.016C120.396 419.762 130.457 428.183 142.274 433.214C154.09 438.244 167.133 439.659 179.754 437.279C192.375 434.9 204.007 428.832 213.181 419.843C222.354 410.855 228.657 399.349 231.294 386.779C234.943 369.379 230.187 352.758 221.259 338.901V338.9Z" fill="#5FD9B3"/>
<path d="M163.924 360.136C165.883 350.762 169.892 341.938 175.665 334.298C181.438 326.658 188.831 320.391 197.313 315.947C192.194 313.107 186.678 311.053 180.948 309.853C170.755 307.718 160.198 308.064 150.166 310.862C140.135 313.659 130.922 318.827 123.305 325.929C115.688 333.031 109.889 341.86 106.397 351.672C102.905 361.483 101.823 371.99 103.24 382.308C104.657 392.625 108.534 402.451 114.542 410.958C120.551 419.464 128.515 426.402 137.766 431.187C147.016 435.972 157.28 438.464 167.695 438.453C178.109 438.441 188.369 435.928 197.608 431.123C185.013 424.591 174.903 414.116 168.82 401.298C162.738 388.48 161.018 374.023 163.924 360.136Z" fill="#00CE8E"/>
<path d="M337.476 223.394C329.617 217.768 320.936 213.39 311.739 210.415C308.299 209.292 304.801 208.357 301.259 207.615C282.806 203.748 263.621 205.44 246.129 212.478C228.638 219.515 213.626 231.581 202.993 247.15C192.359 262.719 186.581 281.092 186.39 299.945C186.198 318.798 191.602 337.284 201.917 353.066C212.232 368.848 226.996 381.216 244.341 388.607C261.686 395.998 280.833 398.079 299.36 394.588C317.888 391.097 334.965 382.19 348.43 368.993C361.896 355.796 371.145 338.903 375.009 320.449C378.818 302.375 377.299 283.584 370.636 266.357C363.974 249.129 352.455 234.206 337.476 223.397V223.394Z" fill="#5FD9B3"/>
<path d="M248.428 281.363C251.843 265.028 259.488 249.876 270.6 237.425C281.711 224.974 295.898 215.66 311.74 210.415C308.3 209.292 304.802 208.357 301.26 207.615C286.939 204.619 272.121 204.961 257.953 208.612C243.785 212.264 230.648 219.129 219.559 228.674C208.471 238.22 199.729 250.19 194.01 263.657C188.292 277.124 185.751 291.727 186.583 306.335C187.416 320.942 191.6 335.162 198.812 347.892C206.024 360.622 216.069 371.521 228.17 379.745C240.272 387.969 254.104 393.296 268.595 395.314C283.086 397.333 297.847 395.988 311.735 391.384C289.515 384.018 270.782 368.733 259.107 348.443C247.432 328.153 243.631 304.277 248.428 281.364V281.363Z" fill="#00CE8E"/>
</svg>
