<svg width="512" height="512" viewBox="0 0 512 512" fill="none" xmlns="http://www.w3.org/2000/svg">
<path d="M327.52 7.00001C279.107 7.31901 230.854 44.041 225.1 90.854C224.249 97.4339 221.21 103.536 216.472 108.181L256.004 138.181L295.537 108.181C292.76 105.468 290.676 102.127 289.461 98.4401C288.245 94.7529 287.935 90.8275 288.555 86.995C292.169 65.83 304.993 50.233 328.16 50.233C331.04 50.245 333.893 49.6837 336.554 48.5817C339.215 47.4798 341.63 45.8592 343.658 43.8145C345.686 41.7698 347.286 39.3419 348.367 36.6723C349.447 34.0026 349.985 31.1447 349.949 28.265C349.753 16.34 339.543 6.92101 327.52 7.00001Z" fill="#00B27A"/>
<path d="M147.71 136.091C92.5101 136.091 49.8191 191.882 56.7371 254.991L68.8371 365.312C75.7781 428.622 122.511 476.095 177.893 476.095H256V136.095H147.71V136.091Z" fill="#D34459"/>
<path d="M364.291 136.091H256V476.091H334.112C389.494 476.091 436.228 428.618 443.168 365.308L455.268 254.987C462.187 191.887 419.498 136.087 364.296 136.087L364.291 136.091Z" fill="#FF8E9E"/>
<path d="M306 109.36C301.084 108.575 296.114 108.181 291.136 108.182H220.864C156.6 108.182 106.9 173.133 114.956 246.6L129.036 375.033C137.117 448.733 191.522 504 256 504H256.007C273.35 503.978 290.457 499.973 306.007 492.294C346.825 472.31 377.107 428.531 382.971 375.029L397.044 246.6C404.465 178.912 362.857 118.452 306 109.364V109.36Z" fill="#EA5B70"/>
<path d="M229.037 375.03L214.957 246.6C207.536 178.911 249.144 118.451 306.001 109.363C301.085 108.578 296.115 108.184 291.137 108.185H220.865C156.6 108.182 106.9 173.133 114.957 246.6L129.037 375.033C137.117 448.733 191.522 504 256 504H256.007C273.35 503.978 290.457 499.973 306.007 492.294C265.189 472.311 234.907 428.532 229.044 375.03H229.037Z" fill="#D34459"/>
</svg>
