<svg width="512" height="512" viewBox="0 0 512 512" fill="none" xmlns="http://www.w3.org/2000/svg">
<path d="M504.952 174.239C504.217 139.68 493.025 106.155 472.852 78.0841C442.17 35.3981 392.346 7.52306 335.811 8.00606C304.767 8.28139 274.407 17.1608 248.107 33.6572C221.808 50.1535 200.598 73.6204 186.836 101.449C184.99 105.182 183.027 108.838 180.945 112.417C178.384 116.835 175.654 121.135 172.755 125.317C165.385 135.942 156.941 145.779 147.555 154.673C143.634 158.39 139.555 161.936 135.317 165.311C124.824 173.672 113.469 180.89 101.444 186.841C73.6095 200.593 50.1373 221.8 33.6405 248.101C17.1438 274.402 8.26969 304.766 8.00617 335.811C7.20017 430.262 85.5202 505.998 179.9 504.984C180.088 504.984 180.274 504.984 180.462 504.984C266.16 503.812 348.011 469.218 408.573 408.574C424.238 392.922 438.284 375.731 450.5 357.261C453.567 352.62 456.516 347.902 459.346 343.105C466.784 330.51 473.375 317.434 479.076 303.964C495.645 264.869 504.446 222.922 504.987 180.464C505.016 178.38 505.001 176.306 504.956 174.239H504.952Z" fill="#D6948C"/>
<path d="M241.449 256.837C278.508 238.512 308.511 208.508 326.836 171.449C340.369 144.069 361.12 120.902 386.851 104.449C412.583 87.9958 442.318 78.8801 472.85 78.085C442.169 35.398 392.345 7.52403 335.81 8.00703C304.766 8.28237 274.406 17.1618 248.106 33.6581C221.807 50.1545 200.597 73.6214 186.835 101.45C184.989 105.183 183.025 108.839 180.944 112.418C178.383 116.836 175.653 121.136 172.754 125.318C165.384 135.943 156.94 145.78 147.554 154.674C143.633 158.391 139.553 161.937 135.316 165.312C124.823 173.673 113.468 180.891 101.443 186.842C73.6087 200.594 50.1367 221.801 33.6401 248.102C17.1435 274.403 8.26956 304.766 8.00617 335.811C7.20017 430.262 85.5202 505.998 179.9 504.984C158.844 476.235 147.653 441.446 148 405.812C148.263 374.765 157.138 344.4 173.635 318.098C190.133 291.796 213.607 270.589 241.443 256.837H241.449Z" fill="#CE857A"/>
<path d="M480.109 126.787C478.69 125.393 476.776 124.619 474.786 124.637C472.797 124.654 470.896 125.461 469.502 126.88C468.108 128.299 467.334 130.214 467.352 132.203C467.369 134.192 468.176 136.093 469.595 137.487C479.906 147.62 489.599 158.363 498.621 169.658L502.021 173.914C502.192 174.128 502.403 174.306 502.643 174.439C502.883 174.571 503.146 174.655 503.419 174.685C503.691 174.716 503.966 174.692 504.23 174.616C504.493 174.54 504.738 174.413 504.952 174.242C504.785 166.555 504.103 158.888 502.911 151.292C495.676 142.792 488.039 134.582 480.111 126.792L480.109 126.787Z" fill="#C77464"/>
<path d="M318.039 47.0801C319.944 47.6507 321.998 47.4411 323.749 46.4974C325.5 45.5538 326.804 43.9533 327.375 42.0481C327.946 40.1426 327.736 38.0886 326.792 36.3378C325.848 34.587 324.248 33.2828 322.342 32.7121C305.754 27.7504 288.844 23.9367 271.732 21.2981C263.655 24.7335 255.861 28.7998 248.423 33.4591L253.849 34.0591C275.595 36.4525 297.079 40.8106 318.039 47.0801Z" fill="#C77464"/>
<path d="M415.925 294.768C415.147 295.372 414.496 296.124 414.008 296.979C413.521 297.835 413.206 298.779 413.083 299.756C412.96 300.733 413.031 301.725 413.292 302.675C413.552 303.625 413.997 304.514 414.601 305.292C426.794 320.998 438.15 337.336 448.623 354.238L450.494 357.259C453.561 352.618 456.509 347.9 459.34 343.103C449.183 326.945 438.14 311.142 426.448 296.09C425.228 294.519 423.434 293.498 421.46 293.25C419.487 293.002 417.496 293.548 415.925 294.768Z" fill="#C77464"/>
<path d="M203.594 138.307C204.491 138.726 205.463 138.963 206.452 139.005C207.441 139.046 208.429 138.892 209.358 138.549C210.288 138.207 211.14 137.684 211.866 137.011C212.592 136.338 213.178 135.528 213.589 134.627C214.001 133.726 214.229 132.753 214.263 131.763C214.296 130.774 214.133 129.787 213.783 128.861C213.433 127.934 212.903 127.087 212.224 126.366C211.545 125.646 210.729 125.067 209.825 124.663C200.345 120.333 190.635 116.222 180.946 112.417C178.385 116.835 175.655 121.135 172.756 125.317L174.277 125.91C184.107 129.74 193.971 133.912 203.594 138.307Z" fill="#C77464"/>
<path d="M177.779 180.698C178.304 179.862 178.659 178.93 178.822 177.956C178.986 176.983 178.956 175.986 178.734 175.024C178.512 174.062 178.102 173.153 177.528 172.35C176.954 171.547 176.227 170.865 175.388 170.343C168.418 166.013 159.705 160.808 147.56 154.668C143.639 158.385 139.559 161.931 135.322 165.306C146.354 170.635 157.082 176.571 167.457 183.088C169.144 184.135 171.177 184.471 173.111 184.023C175.046 183.575 176.724 182.38 177.779 180.698Z" fill="#C77464"/>
<path d="M235.611 217.63L224.894 207.881C224.165 207.218 223.313 206.706 222.386 206.372C221.459 206.039 220.475 205.891 219.491 205.938C218.507 205.985 217.542 206.225 216.651 206.644C215.76 207.064 214.96 207.655 214.297 208.384C213.634 209.113 213.122 209.965 212.788 210.892C212.455 211.819 212.307 212.803 212.354 213.787C212.401 214.771 212.641 215.736 213.06 216.627C213.48 217.518 214.071 218.318 214.8 218.981L225.045 228.301C225.202 228.444 225.352 228.594 225.497 228.749L234.931 238.92C236.284 240.379 238.16 241.24 240.148 241.315C242.136 241.39 244.072 240.673 245.531 239.32C246.99 237.967 247.851 236.091 247.926 234.103C248.001 232.115 247.284 230.179 245.931 228.72L236.065 218.083C235.92 217.926 235.77 217.777 235.613 217.634L235.611 217.63Z" fill="#C77464"/>
<path d="M312.332 332.119C311.568 330.284 310.107 328.827 308.269 328.068C306.432 327.31 304.368 327.312 302.532 328.074C300.697 328.838 299.239 330.299 298.481 332.136C297.722 333.974 297.724 336.038 298.486 337.874C305.869 355.642 311.704 374.014 315.926 392.786C316.362 394.727 317.551 396.415 319.232 397.479C320.912 398.543 322.946 398.896 324.887 398.46C326.828 398.024 328.515 396.835 329.579 395.154C330.643 393.474 330.996 391.44 330.56 389.499C326.149 369.882 320.053 350.683 312.338 332.115L312.332 332.119Z" fill="#C77464"/>
<path d="M206.143 331.631C205.223 329.901 203.663 328.6 201.797 328.005C199.93 327.411 197.905 327.571 196.154 328.45C194.404 329.33 193.067 330.859 192.429 332.712C191.792 334.564 191.904 336.593 192.743 338.363C203.527 359.845 212.248 382.301 218.789 405.431C219.057 406.379 219.509 407.265 220.119 408.038C220.729 408.811 221.485 409.457 222.345 409.938C223.205 410.419 224.151 410.726 225.129 410.841C226.107 410.956 227.098 410.878 228.046 410.61C228.994 410.342 229.88 409.89 230.653 409.28C231.427 408.67 232.072 407.914 232.553 407.054C233.034 406.195 233.341 405.249 233.456 404.27C233.572 403.292 233.493 402.301 233.225 401.353C226.423 377.309 217.356 353.964 206.146 331.631H206.143Z" fill="#C77464"/>
<path d="M116.024 214.185C114.538 212.863 112.588 212.185 110.602 212.301C108.617 212.417 106.758 213.316 105.436 214.802C104.114 216.288 103.436 218.238 103.552 220.224C103.668 222.209 104.567 224.068 106.053 225.39C113.224 231.771 120.234 238.505 126.887 245.404C127.571 246.113 128.387 246.681 129.29 247.074C130.193 247.468 131.165 247.68 132.15 247.698C133.135 247.716 134.114 247.54 135.03 247.179C135.947 246.819 136.784 246.282 137.493 245.598C138.202 244.914 138.77 244.098 139.163 243.195C139.557 242.292 139.769 241.32 139.787 240.335C139.805 239.35 139.629 238.372 139.268 237.455C138.908 236.538 138.371 235.701 137.687 234.992C130.772 227.818 123.487 220.818 116.03 214.185H116.024Z" fill="#C77464"/>
<path d="M81.2462 309.798C80.72 308.955 80.0315 308.225 79.2208 307.65C78.41 307.075 77.4931 306.668 76.5234 306.45C75.5536 306.233 74.5504 306.211 73.5719 306.384C72.5934 306.558 71.6592 306.925 70.8236 307.463C69.988 308.001 69.2677 308.699 68.7044 309.518C68.1412 310.337 67.7463 311.259 67.5427 312.232C67.339 313.205 67.3308 314.208 67.5183 315.184C67.7059 316.16 68.0855 317.089 68.6352 317.917C83.1192 340.424 94.9804 364.514 103.987 389.717C104.656 391.59 106.042 393.121 107.839 393.972C109.637 394.823 111.699 394.926 113.572 394.257C115.445 393.588 116.976 392.202 117.827 390.405C118.678 388.607 118.781 386.545 118.112 384.672C108.72 358.389 96.351 333.268 81.2462 309.798Z" fill="#C77464"/>
<path d="M325.487 92.818C323.704 91.9741 321.66 91.8666 319.799 92.519C317.937 93.1714 316.407 94.531 315.541 96.3033C314.674 98.0756 314.541 100.118 315.17 101.988C315.799 103.858 317.139 105.404 318.9 106.293C337.823 115.554 356.01 126.25 373.3 138.287C374.932 139.424 376.949 139.866 378.907 139.516C380.865 139.166 382.604 138.052 383.741 136.42C384.878 134.788 385.32 132.771 384.97 130.813C384.62 128.855 383.506 127.116 381.874 125.979C363.952 113.503 345.102 102.416 325.487 92.818Z" fill="#C77464"/>
</svg>
