<svg width="512" height="512" viewBox="0 0 512 512" fill="none" xmlns="http://www.w3.org/2000/svg">
<path d="M328.02 8.00001C279.607 8.31901 231.354 45.041 225.6 91.854C224.749 98.4339 221.71 104.536 216.972 109.181H296.036C293.259 106.468 291.175 103.127 289.959 99.4401C288.744 95.7529 288.434 91.8275 289.054 87.995C292.668 66.83 305.492 51.233 328.659 51.233C331.539 51.245 334.392 50.6837 337.053 49.5817C339.714 48.4798 342.128 46.8592 344.156 44.8145C346.184 42.7698 347.785 40.3419 348.865 37.6723C349.946 35.0026 350.484 32.1447 350.448 29.265C350.253 17.34 340.043 7.92101 328.02 8.00001Z" fill="#00B27A"/>
<path d="M256.5 116.22V493.781C393.743 493.781 505 443.774 505 309.881C505 175.988 393.743 116.22 256.5 116.22Z" fill="#FFCE71"/>
<path d="M8 309.879C8 443.774 119.257 493.779 256.5 493.779V116.22C119.258 116.22 8 175.983 8 309.879Z" fill="#F9973E"/>
<path d="M416.5 310.421C416.5 459.194 344.866 505.001 256.5 505.001C168.134 505.001 96.5 459.194 96.5 310.421C96.5 161.648 168.135 105 256.5 105C344.865 105 416.5 161.648 416.5 310.421Z" fill="#FFB357"/>
</svg>
