<svg width="512" height="512" viewBox="0 0 512 512" fill="none" xmlns="http://www.w3.org/2000/svg">
<path d="M483.247 120.438L483.221 120.428C503.221 114.979 512.355 89.536 498.031 72.271C495.055 68.7715 491.336 65.9799 487.144 64.0995C482.953 62.219 478.394 61.2972 473.801 61.401C466.078 61.501 458.378 61.944 450.711 62.655C451.736 61.567 452.739 60.464 453.778 59.385C486.537 25.391 436.29 -8.69902 411.136 17.008C392.702 35.8481 376.89 57.0866 364.128 80.15C360.358 76.0448 355.656 72.9045 350.42 70.993C345.184 69.0816 339.565 68.4548 334.036 69.1653C328.508 69.8757 323.23 71.9028 318.647 75.076C314.064 78.2493 310.31 82.4761 307.7 87.4014C305.089 92.3267 303.699 97.8065 303.646 103.381C303.592 108.955 304.878 114.46 307.394 119.434C309.909 124.408 313.582 128.706 318.104 131.966C322.625 135.227 327.863 137.354 333.377 138.17V163.37L359.812 189.801C366.02 162.501 387.057 157.973 406.934 159.768C432.578 162.084 452.817 172.918 460.87 176.226C485.97 186.539 511.735 159.999 498.428 133.94C495.185 127.737 489.786 122.933 483.247 120.434V120.438Z" fill="#00C084"/>
<path d="M373.33 159.901C365.366 148.563 355.016 139.106 343.007 132.194C330.999 125.283 317.623 121.083 303.818 119.891C290.014 118.699 276.116 120.543 263.1 125.295C250.085 130.046 238.267 137.588 228.476 147.393L216.139 159.73C146.565 229.313 94.7895 314.643 65.2014 408.489C60.551 423.245 51.2362 436.093 38.6574 445.101C31.6352 450.427 26.6161 457.967 24.4124 466.501C22.2764 474.614 24.4514 477.719 20.3504 483.886C18.4464 486.733 15.8056 489.011 12.7094 490.476C3.90941 494.637 8.62641 506.77 17.2094 504.785C23.3876 503.333 29.0639 500.253 33.6474 495.863C47.7724 482.414 40.1854 471.727 53.5794 466.431C54.1174 466.195 100.869 449.031 101.418 448.824C114.535 443.839 127.502 438.57 140.318 433.015C218.142 399.278 289.918 354.644 350.488 294.078L362.825 281.741C378.641 265.919 388.366 245.024 390.288 222.736C392.209 200.448 386.204 178.196 373.33 159.901Z" fill="#FFF1D4"/>
<path d="M298.475 187.39C308.206 177.644 319.943 170.137 332.87 165.389C345.798 160.642 359.605 158.769 373.329 159.901C365.365 148.563 355.015 139.106 343.006 132.194C330.998 125.283 317.622 121.083 303.817 119.891C290.013 118.699 276.115 120.543 263.099 125.295C250.084 130.046 238.266 137.588 228.475 147.393L216.138 159.73C146.564 229.314 94.7891 314.644 65.2014 408.49C60.5505 423.246 51.2354 436.093 38.6564 445.101C31.6343 450.427 26.6151 457.967 24.4114 466.501C22.2754 474.614 24.4504 477.719 20.3494 483.886C18.4455 486.733 15.8047 489.011 12.7084 490.476C3.90844 494.637 8.62544 506.77 17.2084 504.785C23.3866 503.333 29.0629 500.253 33.6464 495.863C47.7714 482.414 40.1844 471.727 53.5784 466.431C54.1164 466.195 100.868 449.031 101.417 448.824C114.534 443.839 127.501 438.57 140.317 433.015C170.593 345.195 220.459 265.418 286.137 199.728L298.475 187.39Z" fill="#FCE3A0"/>
</svg>
