<svg width="512" height="512" viewBox="0 0 512 512" fill="none" xmlns="http://www.w3.org/2000/svg">
<path d="M500.068 79.3101L494.216 43.5381C493.252 37.6432 491.051 32.0189 487.76 27.0345C484.468 22.0501 480.159 17.8182 475.116 14.6168C470.073 11.4154 464.41 9.31676 458.499 8.45871C452.587 7.60066 446.561 8.00259 440.816 9.6381L440.097 9.8431L378.21 27.4561C349.174 35.7219 322.067 49.6699 298.462 68.4914C274.858 87.3128 255.224 110.633 240.7 137.1L240.6 137.286C234.773 147.88 226.273 156.762 215.945 163.049L324.967 290.556L388.16 364.462C394.462 359.537 400.586 354.345 406.532 348.885C412.438 343.453 419.444 336.447 424.885 330.532C455.642 297.097 478.394 257.106 491.419 213.583C504.444 170.06 507.402 124.145 500.068 79.3101Z" fill="#CE857A"/>
<path d="M440.816 9.63405L440.097 9.83905L378.21 27.4561C349.174 35.7219 322.067 49.6699 298.462 68.4913C274.858 87.3127 255.224 110.633 240.7 137.1L240.6 137.286C234.773 147.88 226.273 156.762 215.945 163.049L324.967 290.556C375.307 236.136 410.869 169.728 428.26 97.6641C432.005 82.0616 439.293 67.5314 449.56 55.2002C459.826 42.869 472.795 33.0682 487.46 26.5581C482.452 19.193 475.249 13.5936 466.877 10.5554C458.504 7.51729 449.387 7.19489 440.82 9.63405H440.816Z" fill="#C77464"/>
<path d="M356.789 207.849C310.35 161.41 251.022 143.549 215.94 163.049C163.8 194.8 190.6 274.435 240.4 324.236C281.327 365.163 348.421 395.116 388.158 364.461C389.807 363.172 391.377 361.784 392.858 360.304C424.998 328.165 408.85 259.904 356.791 207.849H356.789Z" fill="#FFB357"/>
<path d="M303.165 312.536C296.179 302.652 288.359 293.384 279.79 284.836C233.351 238.397 174.023 220.536 138.941 240.036C138.034 240.589 136.741 241.331 136.1 241.685C109.633 256.209 86.3119 275.844 67.4905 299.449C48.669 323.055 34.7213 350.163 26.456 379.2L11.8661 430.448L8.63405 441.8C6.9987 447.545 6.59689 453.571 7.45501 459.482C8.31314 465.394 10.4118 471.057 13.6132 476.1C16.8146 481.142 21.0463 485.451 26.0307 488.743C31.015 492.035 36.6392 494.235 42.534 495.2L78.3061 501.051C157.616 514.023 241.427 495.237 311.156 441.446C312.806 440.157 314.375 438.769 315.856 437.289C342.532 410.613 335.941 359.059 303.165 312.534V312.536Z" fill="#CE857A"/>
<path d="M279.789 284.835C233.35 238.396 174.022 220.535 138.94 240.035C138.033 240.588 136.74 241.33 136.099 241.684C109.632 256.209 86.3115 275.843 67.4903 299.449C48.669 323.055 34.7214 350.163 26.4563 379.2L11.8663 430.448L8.63432 441.8C6.9988 447.545 6.59687 453.571 7.45492 459.483C8.31297 465.394 10.4116 471.057 13.613 476.1C16.8144 481.143 21.0463 485.452 26.0307 488.743C31.0151 492.035 36.6394 494.236 42.5343 495.2L54.2913 497.123C54.2868 478.63 60.4015 460.656 71.682 446.003C82.9625 431.349 98.7748 420.84 116.653 416.114C186.469 397.634 250.573 362.033 303.162 312.534C296.176 302.65 288.355 293.383 279.786 284.834L279.789 284.835Z" fill="#C77464"/>
<path d="M272.773 387.8C272.429 386.877 271.907 386.031 271.236 385.31C270.565 384.589 269.759 384.007 268.863 383.598C267.967 383.188 266.999 382.959 266.015 382.924C265.031 382.888 264.049 383.047 263.126 383.391C262.203 383.735 261.357 384.257 260.636 384.928C259.915 385.599 259.333 386.406 258.924 387.301C258.514 388.197 258.285 389.165 258.25 390.149C258.215 391.133 258.373 392.115 258.717 393.038C263.329 405.427 266.514 418.3 268.21 431.41C268.444 433.216 269.326 434.875 270.693 436.078C272.06 437.281 273.817 437.946 275.638 437.948C275.964 437.948 276.289 437.927 276.611 437.885C278.584 437.63 280.374 436.601 281.588 435.026C282.803 433.451 283.341 431.458 283.086 429.485C281.242 415.244 277.782 401.258 272.773 387.8Z" fill="#AC6757"/>
<path d="M219.876 311.456C218.373 310.173 216.424 309.534 214.453 309.68C212.482 309.826 210.649 310.743 209.351 312.233C208.053 313.724 207.395 315.666 207.521 317.638C207.647 319.61 208.547 321.453 210.024 322.766C212.805 325.189 215.537 327.725 218.144 330.305C219.562 331.683 221.467 332.444 223.444 332.425C225.421 332.405 227.31 331.606 228.701 330.2C230.091 328.795 230.871 326.897 230.87 324.92C230.868 322.943 230.086 321.047 228.694 319.643C225.864 316.841 222.9 314.086 219.876 311.456Z" fill="#AC6757"/>
<path d="M153.326 274.012C145.963 271.672 138.463 269.784 130.87 268.359C129.896 268.164 128.894 268.163 127.92 268.358C126.947 268.553 126.022 268.939 125.199 269.494C124.375 270.05 123.671 270.763 123.125 271.592C122.58 272.422 122.205 273.352 122.021 274.328C121.838 275.303 121.85 276.306 122.058 277.277C122.265 278.248 122.663 279.168 123.228 279.984C123.794 280.8 124.516 281.496 125.352 282.031C126.188 282.566 127.123 282.929 128.101 283.1C135.091 284.41 141.994 286.147 148.772 288.3C150.662 288.884 152.705 288.697 154.458 287.781C156.211 286.865 157.531 285.293 158.131 283.409C158.731 281.524 158.562 279.478 157.661 277.718C156.76 275.957 155.2 274.623 153.321 274.007L153.326 274.012Z" fill="#AC6757"/>
<path d="M491.987 144.252C487.326 133.742 481.428 123.824 474.419 114.71C473.206 113.134 471.416 112.104 469.444 111.847C467.471 111.59 465.478 112.128 463.901 113.341C462.325 114.554 461.295 116.344 461.038 118.317C460.782 120.289 461.319 122.283 462.532 123.859C468.813 132.028 474.099 140.916 478.276 150.335C478.672 151.24 479.244 152.058 479.957 152.742C480.67 153.426 481.511 153.962 482.432 154.319C483.354 154.677 484.336 154.849 485.324 154.826C486.312 154.802 487.285 154.584 488.188 154.183C489.092 153.783 489.907 153.207 490.587 152.491C491.267 151.774 491.799 150.93 492.152 150.007C492.505 149.084 492.672 148.101 492.644 147.113C492.616 146.126 492.392 145.153 491.987 144.252Z" fill="#AC6757"/>
<path d="M377.862 59.465C368.832 58.3427 359.716 58.0702 350.634 58.651C348.659 58.7904 346.818 59.7057 345.515 61.1972C344.211 62.6887 343.551 64.6353 343.677 66.6119C343.804 68.5886 344.708 70.435 346.191 71.7479C347.674 73.0609 349.616 73.7339 351.593 73.62C359.734 73.1003 367.905 73.3447 376 74.35C376.312 74.3889 376.625 74.4086 376.939 74.409C378.85 74.4106 380.689 73.6832 382.081 72.3751C383.473 71.0671 384.314 69.2771 384.431 67.3704C384.549 65.4637 383.934 63.584 382.713 62.1149C381.492 60.6458 379.756 59.698 377.86 59.465H377.862Z" fill="#AC6757"/>
<path d="M125.811 433.518C124.842 433.694 123.917 434.06 123.089 434.594C122.261 435.127 121.547 435.819 120.986 436.629C120.426 437.439 120.03 438.351 119.822 439.314C119.614 440.277 119.598 441.271 119.775 442.24C121.246 450.337 121.986 458.55 121.988 466.779C121.988 468.014 121.971 469.251 121.938 470.491C121.911 471.476 122.079 472.456 122.431 473.376C122.783 474.296 123.313 475.137 123.99 475.852C124.668 476.567 125.479 477.142 126.379 477.543C127.278 477.944 128.248 478.165 129.233 478.191C129.302 478.191 129.371 478.191 129.439 478.191C131.392 478.19 133.269 477.426 134.668 476.063C136.067 474.7 136.879 472.844 136.932 470.891C136.969 469.517 136.988 468.145 136.988 466.775C136.986 457.645 136.164 448.533 134.533 439.55C134.356 438.581 133.991 437.656 133.457 436.828C132.923 436.001 132.232 435.286 131.422 434.726C130.612 434.165 129.699 433.77 128.737 433.562C127.774 433.354 126.78 433.338 125.811 433.514V433.518Z" fill="#AC6757"/>
<path d="M85.6004 352.8C80.7789 348.543 75.6935 344.595 70.3744 340.979C68.7292 339.861 66.7073 339.442 64.7533 339.815C62.7994 340.187 61.0735 341.321 59.9554 342.966C58.8372 344.611 58.4184 346.633 58.791 348.587C59.1636 350.541 60.2972 352.267 61.9424 353.385C66.738 356.646 71.3232 360.206 75.6704 364.044C77.1614 365.361 79.1145 366.031 81.0999 365.908C83.0854 365.785 84.9406 364.878 86.2574 363.387C87.5742 361.896 88.2447 359.943 88.1215 357.957C87.9983 355.972 87.0914 354.117 85.6004 352.8Z" fill="#AC6757"/>
<path d="M449.8 275.2C449.443 274.275 448.906 273.43 448.22 272.714C447.534 271.998 446.713 271.425 445.805 271.028C444.896 270.632 443.918 270.419 442.926 270.403C441.935 270.387 440.95 270.567 440.029 270.934C439.108 271.301 438.269 271.847 437.56 272.54C436.851 273.233 436.287 274.06 435.899 274.973C435.512 275.886 435.31 276.866 435.304 277.857C435.298 278.849 435.489 279.832 435.865 280.749C438.522 287.424 440.891 294.308 442.906 301.212C443.377 302.825 444.378 304.232 445.747 305.206C449.14 300.593 452.393 295.895 455.504 291.114C453.787 285.744 451.875 280.414 449.804 275.2H449.8Z" fill="#AC6757"/>
<path d="M268.1 141.824C269.069 142.017 270.067 142.016 271.036 141.822C272.004 141.628 272.925 141.244 273.745 140.693C274.565 140.142 275.269 139.435 275.814 138.611C276.36 137.788 276.738 136.864 276.926 135.895C277.114 134.925 277.108 133.927 276.909 132.959C276.711 131.991 276.323 131.072 275.768 130.255C275.213 129.438 274.502 128.738 273.676 128.196C272.849 127.654 271.924 127.281 270.953 127.098C263.586 125.671 256.053 124.598 248.553 123.857C245.792 128.171 243.172 132.585 240.694 137.099L240.594 137.285C240.558 137.35 240.519 137.414 240.483 137.485C241.43 138.028 242.483 138.356 243.57 138.447C251.802 139.131 259.991 140.26 268.101 141.829L268.1 141.824Z" fill="#AC6757"/>
</svg>
