<svg width="512" height="512" viewBox="0 0 512 512" fill="none" xmlns="http://www.w3.org/2000/svg">
<path d="M318.849 3.28467e-05C313.961 0.0388099 309.086 0.514706 304.283 1.42203C264.859 8.82203 236.371 43.453 235.349 83.553L235.187 89.903L287.23 97.866V70.166C287.167 64.2487 288.401 58.3895 290.845 53C295.889 42.2 305.267 35.077 319.365 35.077C321.702 35.0865 324.017 34.6308 326.176 33.7366C328.334 32.8423 330.293 31.5273 331.939 29.8683C333.584 28.2093 334.883 26.2394 335.76 24.0733C336.636 21.9073 337.073 19.5885 337.044 17.252C336.888 7.57803 328.6 -0.0639672 318.849 3.28467e-05Z" fill="#00B27A"/>
<path d="M296.117 83.1051L281.817 89.9051L276.511 74.9851C270.485 58.0421 246.522 58.0421 240.497 74.9851L235.188 89.9001L220.888 83.1001C204.646 75.3801 187.701 92.3231 195.422 108.564L201.553 121.464L258.505 151.464L315.457 121.464L321.588 108.564C329.306 92.3231 312.362 75.3801 296.12 83.1001L296.117 83.1051Z" fill="#00CE8E"/>
<path d="M460.272 166.643C431.309 137.343 391.139 116.909 346.99 117.001C314.271 116.964 283.879 128.24 258.5 147.586C233.123 128.242 202.73 116.964 170.01 117.001C125.862 116.908 85.6921 137.342 56.7281 166.642C27.7391 196.308 9.95708 234.839 10.0001 279.4C10.0801 323.8 27.5001 368.923 56.0511 406.5C68.4061 422.789 82.9763 437.272 99.3391 449.529C142.259 481.174 200.38 497 258.5 497C284.699 497.046 310.797 493.76 336.166 487.22C366.214 479.375 394.209 466.82 417.66 449.52C434.023 437.263 448.593 422.78 460.949 406.491C489.5 368.92 506.92 323.8 507 279.4C507.043 234.841 489.26 196.31 460.272 166.645V166.643Z" fill="#FF7B94"/>
<path d="M212.216 353.974C201.108 318.54 199.537 280.804 207.663 244.569C215.789 208.335 233.324 174.883 258.5 147.586C233.123 128.242 202.73 116.964 170.01 117.001C125.862 116.908 85.6921 137.342 56.7281 166.642C27.7391 196.308 9.95708 234.839 10.0001 279.4C10.0801 323.8 27.5001 368.923 56.0511 406.5C68.4061 422.789 82.9763 437.272 99.3391 449.529C142.259 481.174 200.38 497 258.5 497C284.699 497.046 310.797 493.76 336.166 487.22C306.88 475.653 280.551 457.685 259.105 434.631C237.659 411.576 221.638 384.019 212.216 353.974Z" fill="#EA5B70"/>
</svg>
