<svg width="513" height="512" viewBox="0 0 513 512" fill="none" xmlns="http://www.w3.org/2000/svg">
<path d="M41.367 326.354C41.367 242.077 137.461 173.754 256 173.754C374.539 173.754 470.633 242.074 470.633 326.354H41.367Z" fill="#EFD176"/>
<path d="M185.035 326.354C167.945 286.217 167.551 232.264 186.91 181.834C102.27 202.283 41.367 259.26 41.367 326.354H185.035Z" fill="#E3B72E"/>
<path d="M394.84 279.811C393.358 279.81 391.909 279.369 390.677 278.545C389.445 277.721 388.484 276.55 387.917 275.18C387.35 273.81 387.202 272.303 387.49 270.849C387.779 269.395 388.492 268.06 389.54 267.011L400.993 255.558C402.406 254.185 404.303 253.423 406.273 253.436C408.243 253.45 410.129 254.239 411.523 255.632C412.916 257.025 413.705 258.911 413.72 260.881C413.734 262.852 412.973 264.748 411.6 266.162L400.147 277.615C399.451 278.312 398.623 278.866 397.713 279.242C396.802 279.619 395.826 279.813 394.84 279.811Z" fill="#E3B72E"/>
<path d="M107.664 280.557C106.182 280.556 104.733 280.115 103.501 279.291C102.269 278.467 101.308 277.296 100.741 275.926C100.174 274.556 100.026 273.05 100.314 271.596C100.603 270.142 101.316 268.806 102.364 267.757L113.816 256.302C115.231 254.936 117.125 254.18 119.092 254.197C121.058 254.214 122.939 255.003 124.33 256.393C125.72 257.784 126.509 259.665 126.526 261.631C126.543 263.598 125.787 265.492 124.421 266.907L112.968 278.36C112.272 279.058 111.446 279.611 110.535 279.988C109.625 280.365 108.649 280.558 107.664 280.557Z" fill="#EFD176"/>
<path d="M290.453 269.131C288.971 269.13 287.522 268.689 286.29 267.865C285.058 267.041 284.097 265.87 283.53 264.5C282.963 263.13 282.815 261.624 283.103 260.17C283.392 258.716 284.105 257.38 285.153 256.331L294.333 247.155C295.748 245.789 297.642 245.033 299.609 245.05C301.575 245.067 303.456 245.856 304.847 247.246C306.237 248.637 307.026 250.518 307.043 252.484C307.06 254.451 306.304 256.345 304.938 257.76L295.762 266.94C295.064 267.636 294.236 268.188 293.326 268.564C292.415 268.94 291.438 269.132 290.453 269.131Z" fill="#E3B72E"/>
<path d="M462.418 362.283H49.578L78.816 418.611C81.4719 423.728 85.4818 428.017 90.4084 431.01C95.335 434.004 100.989 435.588 106.754 435.588H405.246C411.011 435.588 416.665 434.004 421.592 431.01C426.518 428.017 430.528 423.728 433.184 418.611L462.418 362.283Z" fill="#A3DEFE"/>
<path d="M49.578 362.287L78.816 418.611C81.4719 423.728 85.4818 428.017 90.4084 431.01C95.335 434.004 100.989 435.587 106.754 435.588H256C238.262 421.443 227.379 393.936 229.359 362.288L49.578 362.287Z" fill="#7ACEFA"/>
<path d="M72.336 406.127L78.816 418.611C81.4719 423.728 85.4818 428.017 90.4084 431.01C95.335 434.004 100.989 435.588 106.754 435.588H405.246C411.011 435.588 416.665 434.004 421.592 431.01C426.518 428.017 430.528 423.728 433.184 418.611L439.661 406.127H72.336Z" fill="#8EAFE2"/>
<path d="M78.816 418.611C81.4719 423.728 85.4818 428.017 90.4084 431.01C95.335 434.004 100.989 435.588 106.754 435.588H256C247.281 428.631 240.223 418.443 235.531 406.127H72.336L78.816 418.611Z" fill="#6A96D7"/>
<path d="M454.828 289.557C442.597 289.433 430.553 292.56 419.928 298.62C415.437 301.252 410.325 302.639 405.12 302.639C399.914 302.639 394.802 301.252 390.311 298.62C379.639 292.676 367.626 289.557 355.411 289.557C343.196 289.557 331.183 292.676 320.511 298.62C316.02 301.252 310.908 302.639 305.703 302.639C300.497 302.639 295.385 301.252 290.894 298.62C280.222 292.676 268.209 289.557 255.994 289.557C243.779 289.557 231.766 292.676 221.094 298.62C216.603 301.252 211.491 302.639 206.286 302.639C201.08 302.639 195.968 301.252 191.477 298.62C180.805 292.676 168.792 289.557 156.577 289.557C144.362 289.557 132.349 292.676 121.677 298.62C117.186 301.252 112.074 302.639 106.868 302.639C101.663 302.639 96.5512 301.252 92.06 298.62C81.4351 292.56 69.3908 289.433 57.16 289.558C25.6 289.557 0 309.049 0 333.096C0 357.143 25.6 376.639 57.172 376.639C69.4025 376.762 81.4464 373.635 92.072 367.577C96.5626 364.943 101.674 363.555 106.881 363.555C112.087 363.555 117.198 364.943 121.689 367.577C132.362 373.518 144.374 376.636 156.589 376.636C168.804 376.636 180.816 373.518 191.489 367.577C195.98 364.943 201.091 363.555 206.298 363.555C211.504 363.555 216.615 364.943 221.106 367.577C231.779 373.518 243.791 376.636 256.006 376.636C268.221 376.636 280.233 373.518 290.906 367.577C295.397 364.943 300.508 363.555 305.715 363.555C310.921 363.555 316.032 364.943 320.523 367.577C331.196 373.518 343.208 376.636 355.423 376.636C367.638 376.636 379.65 373.518 390.323 367.577C394.814 364.943 399.925 363.555 405.132 363.555C410.338 363.555 415.449 364.943 419.94 367.577C430.566 373.633 442.61 376.76 454.84 376.636C486.414 376.636 512.012 357.136 512.012 333.093C512.012 309.05 486.4 289.557 454.828 289.557Z" fill="#D2996F"/>
<path d="M256 240.272C258.478 240.272 260.931 239.784 263.221 238.835C265.51 237.887 267.59 236.497 269.342 234.745C271.094 232.992 272.483 230.912 273.431 228.623C274.379 226.333 274.867 223.88 274.867 221.402V174.35C268.648 173.963 262.359 173.765 256 173.756C249.641 173.747 243.35 173.945 237.129 174.35V221.402C237.13 226.407 239.118 231.206 242.657 234.745C246.196 238.284 250.995 240.272 256 240.272Z" fill="#E3748E"/>
<path d="M175.7 240.272C178.178 240.273 180.633 239.785 182.923 238.837C185.213 237.889 187.293 236.499 189.046 234.747C190.799 232.994 192.189 230.914 193.137 228.624C194.086 226.335 194.574 223.88 194.574 221.402V180.107C181.746 182.811 169.133 186.45 156.836 190.994V221.402C156.835 226.406 158.823 231.205 162.36 234.744C165.898 238.282 170.696 240.271 175.7 240.272Z" fill="#E3748E"/>
<path d="M336.293 240.272C341.298 240.272 346.097 238.284 349.636 234.745C353.175 231.206 355.163 226.407 355.164 221.402V190.994C342.865 186.451 330.251 182.812 317.422 180.107V221.402C317.423 226.407 319.411 231.206 322.95 234.745C326.489 238.284 331.288 240.272 336.293 240.272Z" fill="#E3748E"/>
<path d="M173.207 240.088C175.106 220.145 179.715 200.555 186.907 181.858C176.714 184.308 166.674 187.359 156.841 190.995V221.402C156.842 225.971 158.502 230.383 161.513 233.82C164.523 237.257 168.678 239.484 173.207 240.088Z" fill="#DE5C6E"/>
<path d="M121.688 367.576C132.359 373.519 144.37 376.639 156.585 376.639C168.799 376.639 180.81 373.519 191.481 367.576C195.972 364.942 201.085 363.554 206.292 363.554C211.498 363.554 216.611 364.942 221.102 367.576C231.727 373.634 243.77 376.762 256 376.639C263.775 376.663 271.503 375.435 278.887 373.002C255.035 349.802 256.375 310.631 269.787 290.838C265.241 289.983 260.625 289.555 256 289.557C243.771 289.434 231.729 292.56 221.105 298.616C216.614 301.25 211.501 302.638 206.294 302.638C201.088 302.638 195.975 301.25 191.484 298.616C180.812 292.675 168.801 289.557 156.587 289.557C144.374 289.557 132.362 292.675 121.691 298.616C117.2 301.25 112.087 302.638 106.881 302.638C101.674 302.638 96.5613 301.25 92.07 298.616C81.4457 292.56 69.4036 289.434 57.175 289.557C25.6 289.557 0 309.049 0 333.096C0 357.143 25.6 376.639 57.172 376.639C69.4009 376.761 81.4429 373.634 92.067 367.577C96.5582 364.943 101.671 363.554 106.877 363.554C112.084 363.554 117.197 364.942 121.688 367.576Z" fill="#C47B46"/>
<path d="M226.758 138.432C225.276 138.431 223.827 137.99 222.595 137.166C221.363 136.342 220.402 135.171 219.835 133.801C219.268 132.432 219.119 130.925 219.408 129.471C219.697 128.017 220.41 126.681 221.458 125.632C226.107 120.973 228.718 114.659 228.718 108.077C228.718 101.495 226.107 95.1823 221.458 90.5229C214.001 83.0477 209.813 72.9198 209.813 62.3609C209.813 51.802 214.001 41.6742 221.458 34.1989C222.146 33.4688 222.974 32.8843 223.893 32.48C224.811 32.0756 225.802 31.8597 226.805 31.845C227.808 31.8304 228.805 32.0172 229.734 32.3945C230.664 32.7717 231.509 33.3318 232.219 34.0414C232.928 34.7511 233.488 35.5959 233.865 36.5259C234.242 37.4558 234.429 38.452 234.414 39.4554C234.399 40.4588 234.183 41.449 233.778 42.3674C233.374 43.2858 232.789 44.1136 232.059 44.8019C227.41 49.4613 224.799 55.7745 224.799 62.3564C224.799 68.9384 227.41 75.2515 232.059 79.9109C239.518 87.3845 243.707 97.512 243.707 108.071C243.707 118.63 239.518 128.757 232.059 136.231C231.364 136.929 230.538 137.484 229.629 137.861C228.719 138.239 227.743 138.433 226.758 138.432Z" fill="#F2D98D"/>
<path d="M285.242 138.432C283.76 138.431 282.311 137.99 281.079 137.166C279.847 136.342 278.886 135.171 278.319 133.801C277.752 132.432 277.603 130.925 277.892 129.471C278.181 128.017 278.894 126.681 279.942 125.632C284.591 120.973 287.202 114.659 287.202 108.077C287.202 101.495 284.591 95.1823 279.942 90.5229C272.485 83.0477 268.297 72.9198 268.297 62.3609C268.297 51.802 272.485 41.6742 279.942 34.1989C280.63 33.4688 281.458 32.8843 282.377 32.48C283.295 32.0756 284.286 31.8597 285.289 31.845C286.292 31.8304 287.288 32.0172 288.218 32.3945C289.148 32.7717 289.993 33.3318 290.703 34.0414C291.412 34.7511 291.972 35.5959 292.349 36.5259C292.726 37.4558 292.913 38.452 292.898 39.4554C292.883 40.4588 292.667 41.449 292.262 42.3674C291.858 43.2858 291.273 44.1136 290.543 44.8019C285.894 49.4613 283.283 55.7745 283.283 62.3564C283.283 68.9384 285.894 75.2515 290.543 79.9109C298 87.3854 302.188 97.5126 302.188 108.071C302.188 118.629 298 128.756 290.543 136.231C289.848 136.929 289.022 137.483 288.112 137.861C287.203 138.239 286.227 138.433 285.242 138.432Z" fill="#F2D98D"/>
</svg>
