<svg width="512" height="512" viewBox="0 0 512 512" fill="none" xmlns="http://www.w3.org/2000/svg">
<path d="M371.293 110.34C371.293 121.992 355.093 130.94 351.68 141.453C348.145 152.353 355.868 169.09 349.266 178.16C342.598 187.32 324.25 185.113 315.09 191.781C306.02 198.381 302.485 216.551 291.59 220.081C281.078 223.495 267.59 210.987 255.934 210.987C244.278 210.987 230.786 223.495 220.274 220.081C209.374 216.546 205.84 198.374 196.774 191.772C187.614 185.104 169.266 187.311 162.598 178.151C155.998 169.081 163.723 152.342 160.184 141.451C156.77 130.935 140.571 121.986 140.571 110.338C140.571 98.6901 156.771 89.7381 160.184 79.2211C163.723 68.3261 155.997 51.5881 162.598 42.5211C169.266 33.3611 187.614 35.5681 196.774 28.9001C205.836 22.3001 209.371 4.1291 220.27 0.590098C230.782 -2.8239 244.278 9.6901 255.926 9.6901C267.574 9.6901 281.07 -2.8239 291.586 0.590098C302.481 4.1291 306.016 22.3011 315.086 28.8991C324.246 35.5671 342.598 33.3601 349.266 42.5201C355.866 51.5901 348.141 68.3291 351.68 79.2271C355.094 89.7381 371.293 98.6881 371.293 110.34Z" fill="#73DA8C"/>
<path d="M268.875 62.5511C264.172 60.2914 259.992 57.0746 256.604 53.1068C253.216 49.1389 250.693 44.5073 249.197 39.5084C247.702 34.5095 247.267 29.2534 247.919 24.0766C248.572 18.8998 250.299 13.9163 252.988 9.44508C242.055 7.72308 229.91 -2.53892 220.27 0.59008C209.375 4.12908 205.84 22.3001 196.77 28.9001C187.61 35.5681 169.258 33.3611 162.59 42.5211C155.99 51.5911 163.715 68.3301 160.176 79.2281C156.762 89.7381 140.563 98.6881 140.563 110.34C140.563 121.992 156.763 130.94 160.176 141.453C163.715 152.348 155.989 169.086 162.59 178.153C169.258 187.313 187.61 185.11 196.77 191.774C205.84 198.374 209.375 216.547 220.27 220.083C230.786 223.497 244.278 210.989 255.93 210.989C267.582 210.989 281.075 223.497 291.586 220.083C302.486 216.548 306.02 198.383 315.086 191.783C321.75 186.931 333.286 186.783 341.637 183.525C334.488 108.613 297.066 76.2271 268.875 62.5511Z" fill="#29CE69"/>
<path d="M369.691 429.168V149.031C369.691 114.793 333.836 92.492 303.054 107.488C250.527 133.078 180.034 180.988 142.163 264.07V429.17L369.691 429.168Z" fill="#FFAA75"/>
<path d="M353.117 176.359C353.117 183.289 351.062 190.064 347.212 195.826C343.362 201.588 337.889 206.079 331.487 208.731C325.084 211.383 318.039 212.077 311.242 210.725C304.445 209.373 298.202 206.036 293.302 201.135C288.401 196.235 285.064 189.992 283.712 183.195C282.36 176.398 283.054 169.353 285.706 162.95C288.358 156.548 292.849 151.075 298.611 147.225C304.374 143.375 311.148 141.32 318.078 141.32C322.679 141.32 327.236 142.226 331.487 143.987C335.738 145.748 339.601 148.329 342.854 151.583C346.108 154.836 348.689 158.699 350.45 162.95C352.211 167.201 353.117 171.758 353.117 176.359Z" fill="#DB2A17"/>
<path d="M334.406 125.273C334.406 132.203 332.351 138.977 328.501 144.74C324.651 150.502 319.178 154.993 312.776 157.645C306.373 160.297 299.328 160.991 292.531 159.639C285.734 158.287 279.491 154.949 274.591 150.049C269.69 145.149 266.353 138.906 265.001 132.109C263.649 125.312 264.343 118.267 266.995 111.864C269.647 105.462 274.138 99.9892 279.9 96.139C285.662 92.2889 292.437 90.2339 299.367 90.2339C308.66 90.2347 317.571 93.9265 324.142 100.497C330.713 107.068 334.405 115.98 334.406 125.273Z" fill="#F54432"/>
<path d="M313.156 136.133C310.93 129.148 306.986 122.833 301.687 117.766C296.388 112.7 289.902 109.044 282.824 107.133C272.953 104.453 264.914 97.528 259.972 88.571C255.273 80.0444 247.872 73.3223 238.934 69.4629C229.996 65.6034 220.029 64.8256 210.6 67.2519C201.172 69.6782 192.818 75.1708 186.853 82.8653C180.888 90.5598 177.651 100.019 177.652 109.755C177.652 133.993 261.629 198.673 284.715 191.294C295.801 187.75 305.025 179.947 310.358 169.603C315.692 159.259 316.698 147.219 313.156 136.133Z" fill="#E7896E"/>
<path d="M142.164 429.168V149.031C142.164 114.793 178.019 92.492 208.801 107.488C261.328 133.078 331.821 180.988 369.692 264.07V429.17L142.164 429.168Z" fill="#FFE4D3"/>
<path d="M369.691 327.387C338.664 284.969 286.296 266.375 249.391 258.287C236.505 255.432 224.712 248.933 215.416 239.563C206.121 230.193 199.716 218.347 196.965 205.439C192.914 186.611 189.246 169.259 189.465 169.259C182.324 121.384 225.535 116.548 226.203 116.478C220.25 113.224 214.41 110.22 208.803 107.49C178.022 92.49 142.166 114.79 142.166 149.033V429.168H369.691V327.387Z" fill="#FFC7A4"/>
<path d="M322.395 512H189.461C181.652 512 173.92 510.462 166.706 507.474C159.492 504.486 152.937 500.106 147.415 494.585C141.894 489.063 137.514 482.508 134.526 475.294C131.538 468.08 130 460.348 130 452.539V344.676C129.989 333.513 133.729 322.671 140.621 313.889C147.512 305.108 157.155 298.897 168 296.254C188.2 291.363 217.035 287.047 255.93 287.047C294.825 287.047 323.66 291.363 343.856 296.254C354.701 298.897 364.344 305.108 371.236 313.889C378.127 322.671 381.867 333.513 381.856 344.676V452.539C381.856 460.348 380.318 468.08 377.33 475.294C374.342 482.508 369.962 489.063 364.441 494.585C358.919 500.106 352.364 504.486 345.15 507.474C337.936 510.462 330.204 512 322.395 512Z" fill="#00D2CE"/>
<path d="M381.855 344.676V452.539C381.855 460.348 380.317 468.08 377.329 475.294C374.341 482.508 369.961 489.063 364.44 494.584C358.918 500.106 352.364 504.486 345.15 507.474C337.935 510.462 330.203 512 322.395 512H189.461C230.367 359.93 381.855 344.676 381.855 344.676Z" fill="#76E7E7"/>
<path d="M130 344.676V452.539C130 460.348 131.538 468.08 134.526 475.294C137.514 482.508 141.894 489.063 147.415 494.585C152.937 500.106 159.492 504.486 166.706 507.474C173.92 510.462 181.652 512 189.461 512H322.395C281.488 359.93 130 344.676 130 344.676Z" fill="#B0F0EF"/>
</svg>
