<svg width="512" height="512" viewBox="0 0 512 512" fill="none" xmlns="http://www.w3.org/2000/svg">
<path d="M442.192 460.664L256.153 440.453L70.1136 460.664L63.6136 488.125C62.9397 490.975 62.9195 493.94 63.5545 496.799C64.1894 499.658 65.463 502.336 67.2799 504.633C69.0968 506.93 71.4098 508.785 74.0457 510.061C76.6816 511.337 79.5721 512 82.5006 512H429.801C432.729 512 435.62 511.337 438.255 510.061C440.891 508.785 443.204 506.93 445.021 504.633C446.838 502.336 448.112 499.658 448.747 496.799C449.382 493.94 449.361 490.975 448.688 488.125L442.192 460.664Z" fill="#F4E74D"/>
<path d="M176.157 460.664V449.144L70.1136 460.664L63.6136 488.125C62.9397 490.975 62.9195 493.94 63.5545 496.799C64.1894 499.658 65.463 502.336 67.2799 504.633C69.0968 506.929 71.4098 508.785 74.0457 510.061C76.6816 511.337 79.5721 512 82.5006 512H165.681C159.841 489.7 176.157 460.664 176.157 460.664Z" fill="#EEDB00"/>
<path d="M455.181 202.422C461.173 58.5591 408.607 50.1721 408.607 50.1721H103.701C103.701 50.1721 51.1338 58.5591 57.1298 202.422C63.1258 346.285 30.1528 386.222 70.1138 460.664H442.192C482.153 386.219 449.185 346.285 455.181 202.422Z" fill="#73DA8C"/>
<path d="M173.064 278.586C180.181 257.375 181.197 228.379 180.033 202.461C179.328 186.944 184.45 171.723 194.392 159.788C204.333 147.853 218.378 140.065 233.767 137.953C312.251 127.082 359.857 92.0081 359.857 92.0081V50.1721H103.701C103.701 50.1721 51.1338 58.5591 57.1298 202.422C63.1258 346.285 30.1528 386.222 70.1138 460.664H176.157C135.138 398.113 159.601 318.7 173.064 278.586Z" fill="#29CE69"/>
<path d="M256.153 30.3672C191.169 30.3672 138.43 40.6912 103.7 50.1672C87.9458 54.4672 87.9458 76.8432 103.7 81.1442C138.43 90.6242 191.169 100.944 256.153 100.944C321.137 100.944 373.88 90.6202 408.606 81.1442C424.36 76.8442 424.36 54.4642 408.606 50.1672C373.88 40.6912 321.142 30.3672 256.153 30.3672Z" fill="#6B7D8E"/>
<path d="M256.153 100.953C261.753 100.953 267.258 100.879 272.669 100.73C272.669 62.882 240.369 69.351 227.286 26.492C211.907 -23.875 164.086 21.933 164.086 21.933C164.086 21.933 134.201 45.953 149.767 91.527C184.877 97.8286 220.481 100.983 256.153 100.953Z" fill="#EEDB00"/>
<path d="M236.829 46.738L236.642 47.031C236.642 47.031 225.478 71.75 200.642 98.422C217.919 100.008 236.474 100.953 256.158 100.953C261.758 100.953 267.263 100.879 272.674 100.73C272.669 70.316 251.81 68.512 236.829 46.738Z" fill="#DFCA00"/>
<path d="M256.153 100.953C290.913 100.979 325.61 97.9866 359.853 92.0081C367.653 17.9851 319.541 4.98109 319.541 4.98109C319.541 4.98109 282.174 -11.9189 265.271 16.5471C249.416 43.2541 257.822 76.2311 241.298 100.774C246.179 100.891 251.131 100.95 256.153 100.953Z" fill="#F9EE80"/>
<path d="M155.22 313.965C154.349 313.443 153.385 313.097 152.381 312.948C151.377 312.799 150.354 312.849 149.369 313.096C148.385 313.343 147.458 313.781 146.644 314.386C145.829 314.991 145.141 315.75 144.62 316.621C142.704 319.826 139.79 322.313 136.325 323.703C132.86 325.093 129.035 325.307 125.436 324.314C121.837 323.321 118.663 321.175 116.401 318.205C114.139 315.234 112.914 311.604 112.913 307.871V275.855C112.913 272.201 114.086 268.643 116.26 265.706C118.434 262.769 121.494 260.608 124.989 259.54C128.484 258.473 132.229 258.556 135.673 259.777C139.117 260.998 142.078 263.293 144.12 266.324C145.288 267.969 147.055 269.092 149.04 269.452C151.026 269.812 153.074 269.381 154.746 268.251C156.418 267.121 157.582 265.381 157.988 263.404C158.394 261.427 158.011 259.37 156.92 257.672C153.025 251.9 147.381 247.531 140.818 245.208C134.254 242.884 127.118 242.729 120.46 244.765C113.802 246.801 107.973 250.921 103.831 256.518C99.69 262.115 97.4547 268.893 97.4546 275.856V307.872C97.4558 314.986 99.7899 321.903 104.099 327.563C108.408 333.224 114.455 337.314 121.312 339.209C128.169 341.103 135.458 340.696 142.062 338.051C148.666 335.406 154.22 330.667 157.873 324.563C158.926 322.806 159.238 320.702 158.74 318.715C158.243 316.727 156.976 315.019 155.22 313.965Z" fill="#FFFCDC"/>
<path d="M258.754 243.344C257.74 243.344 256.735 243.544 255.797 243.932C254.86 244.32 254.008 244.889 253.29 245.607C252.573 246.324 252.004 247.176 251.615 248.114C251.227 249.051 251.027 250.056 251.027 251.071V332.657C251.05 334.691 251.875 336.634 253.321 338.064C254.768 339.494 256.72 340.296 258.754 340.296C260.788 340.296 262.74 339.494 264.186 338.064C265.633 336.634 266.457 334.691 266.48 332.657V251.07C266.48 249.021 265.665 247.056 264.217 245.608C262.768 244.159 260.803 243.345 258.754 243.344Z" fill="#FFFCDC"/>
<path d="M223.445 243.344C221.396 243.345 219.431 244.159 217.982 245.608C216.533 247.057 215.719 249.022 215.718 251.071V284.137H190.788V251.07C190.765 249.036 189.941 247.093 188.495 245.663C187.048 244.233 185.096 243.431 183.062 243.431C181.028 243.431 179.076 244.233 177.629 245.663C176.183 247.093 175.359 249.036 175.335 251.07V332.656C175.359 334.69 176.183 336.633 177.629 338.063C179.076 339.493 181.028 340.295 183.062 340.295C185.096 340.295 187.048 339.493 188.495 338.063C189.941 336.633 190.765 334.69 190.788 332.656V299.59H215.718V332.656C215.742 334.69 216.566 336.633 218.012 338.063C219.459 339.493 221.411 340.295 223.445 340.295C225.479 340.295 227.431 339.493 228.878 338.063C230.324 336.633 231.148 334.69 231.171 332.656V251.07C231.171 249.021 230.356 247.056 228.908 245.608C227.459 244.159 225.494 243.345 223.445 243.344Z" fill="#FFFCDC"/>
<path d="M310.45 243.344H294.06C292.01 243.345 290.045 244.159 288.596 245.608C287.147 247.057 286.333 249.022 286.333 251.071V332.657C286.356 334.691 287.18 336.634 288.626 338.064C290.073 339.494 292.025 340.296 294.059 340.296C296.093 340.296 298.045 339.494 299.492 338.064C300.938 336.634 301.762 334.691 301.786 332.657V310.117H310.45C319.273 310.069 327.718 306.53 333.939 300.274C340.161 294.018 343.654 285.554 343.654 276.73C343.654 267.907 340.161 259.443 333.939 253.187C327.718 246.931 319.273 243.392 310.45 243.344ZM310.45 294.664H301.786V258.8H310.45C315.183 258.835 319.71 260.74 323.044 264.1C326.378 267.459 328.25 272 328.25 276.733C328.25 281.467 326.378 286.008 323.044 289.367C319.71 292.727 315.183 294.632 310.45 294.667V294.664Z" fill="#FFFCDC"/>
<path d="M388.708 284.137H381.782C375.887 284.137 371.095 278.453 371.095 271.469C371.095 264.485 375.888 258.797 381.783 258.797H407.123C409.157 258.774 411.099 257.95 412.53 256.503C413.96 255.057 414.762 253.105 414.762 251.07C414.762 249.036 413.96 247.084 412.53 245.638C411.099 244.191 409.157 243.367 407.123 243.344H381.783C367.369 243.344 355.642 255.961 355.642 271.469C355.642 286.977 367.369 299.59 381.783 299.59H388.709C394.604 299.59 399.397 305.278 399.397 312.262C399.397 319.246 394.601 324.93 388.708 324.93H363.368C361.334 324.953 359.391 325.777 357.961 327.224C356.531 328.67 355.729 330.622 355.729 332.656C355.729 334.691 356.531 336.643 357.961 338.089C359.391 339.536 361.334 340.36 363.368 340.383H388.708C403.122 340.383 414.849 327.77 414.849 312.262C414.849 296.754 403.122 284.137 388.708 284.137Z" fill="#FFFCDC"/>
</svg>
