<svg width="512" height="512" viewBox="0 0 512 512" fill="none" xmlns="http://www.w3.org/2000/svg">
<path d="M256 48.52C132.574 48.52 32.52 148.574 32.52 272C32.52 395.426 132.574 495.48 256 495.48C379.426 495.48 479.48 395.426 479.48 272C479.48 148.574 379.426 48.52 256 48.52ZM256 348.387C240.892 348.387 226.123 343.907 213.562 335.513C201 327.12 191.209 315.19 185.428 301.232C179.646 287.274 178.133 271.915 181.081 257.098C184.028 242.28 191.303 228.669 201.986 217.986C212.669 207.303 226.28 200.028 241.098 197.081C255.915 194.133 271.274 195.646 285.232 201.428C299.19 207.209 311.12 217 319.513 229.562C327.907 242.123 332.387 256.892 332.387 272C332.387 282.031 330.411 291.964 326.573 301.232C322.734 310.5 317.107 318.921 310.014 326.014C302.921 333.107 294.5 338.734 285.232 342.573C275.964 346.411 266.031 348.387 256 348.387Z" fill="#FFE4D3"/>
<path d="M256 48.5198C132.574 48.5198 32.52 148.574 32.52 272C32.52 378.734 107.352 467.992 207.411 490.184C191.511 448.364 219.427 399.884 267.157 395.067C364.557 385.247 386.13 320.255 386.13 320.255V90.2928C348.212 63.057 302.686 48.4425 256 48.5198ZM256 348.387C240.892 348.387 226.123 343.907 213.562 335.513C201 327.12 191.209 315.19 185.428 301.232C179.646 287.274 178.133 271.915 181.081 257.097C184.028 242.28 191.303 228.669 201.986 217.986C212.669 207.303 226.28 200.028 241.098 197.081C255.915 194.133 271.274 195.646 285.232 201.427C299.19 207.209 311.12 217 319.513 229.561C327.907 242.123 332.387 256.892 332.387 272C332.387 282.031 330.411 291.964 326.573 301.232C322.734 310.5 317.107 318.921 310.014 326.014C302.921 333.107 294.5 338.734 285.232 342.573C275.964 346.411 266.031 348.387 256 348.387Z" fill="#FFC7A4"/>
<path d="M437.016 90.977C401.213 55.1756 355.598 30.7949 305.94 20.9179C256.281 11.0408 204.808 16.1111 158.031 35.4874C111.253 54.8638 71.2722 87.676 43.143 129.775C15.0138 171.874 -6.46152e-05 221.368 2.75213e-07 272C2.75213e-07 274.5 -0.0590019 333.063 54.461 333.063C68.0091 333.084 81.1753 328.575 91.867 320.254C96.738 316.498 102.716 314.461 108.867 314.461C115.018 314.461 120.996 316.498 125.867 320.254C136.559 328.575 149.725 333.084 163.273 333.063C176.304 333.063 188.117 328.676 198.152 321.863C188.591 310.777 182.418 297.176 180.366 282.681C178.315 268.186 180.472 253.407 186.58 240.103C192.689 226.799 202.492 215.531 214.823 207.639C227.153 199.748 241.491 195.566 256.131 195.591C270.77 195.617 285.094 199.848 297.397 207.782C309.7 215.716 319.464 227.019 325.527 240.344C331.589 253.669 333.695 268.455 331.593 282.943C329.492 297.431 323.271 311.01 313.672 322.063C324.363 329.526 337.16 333.376 350.194 333.052C363.228 332.729 375.818 328.247 386.125 320.263C390.996 316.507 396.974 314.47 403.125 314.47C409.276 314.47 415.254 316.507 420.125 320.263C430.817 328.584 443.983 333.093 457.531 333.072C512 333.063 512 274.5 512 272C512.092 238.367 505.512 205.05 492.641 173.977C479.77 142.904 460.864 114.693 437.016 90.977Z" fill="#FFABCD"/>
<path d="M96.6561 257.879C96.6561 261.444 95.5988 264.93 93.618 267.894C91.6371 270.859 88.8217 273.169 85.5277 274.534C82.2337 275.898 78.6091 276.255 75.1122 275.56C71.6153 274.864 68.4032 273.147 65.882 270.626C63.3609 268.105 61.644 264.893 60.9484 261.396C60.2529 257.899 60.6099 254.274 61.9743 250.98C63.3387 247.686 65.6493 244.871 68.6138 242.89C71.5783 240.909 75.0637 239.852 78.6291 239.852C80.9964 239.852 83.3406 240.318 85.5278 241.224C87.715 242.13 89.7024 243.458 91.3764 245.132C93.0504 246.806 94.3782 248.793 95.2841 250.98C96.19 253.167 96.6562 255.512 96.6561 257.879Z" fill="#FB695B"/>
<path d="M164.688 207.535C164.688 211.1 163.631 214.586 161.65 217.55C159.669 220.515 156.853 222.825 153.559 224.19C150.265 225.554 146.641 225.911 143.144 225.216C139.647 224.52 136.435 222.803 133.914 220.282C131.393 217.761 129.676 214.549 128.98 211.052C128.285 207.555 128.642 203.93 130.006 200.636C131.37 197.342 133.681 194.527 136.646 192.546C139.61 190.565 143.095 189.508 146.661 189.508C151.442 189.509 156.026 191.408 159.407 194.789C162.787 198.169 164.687 202.754 164.688 207.535Z" fill="#A4E7FF"/>
<path d="M245.688 139.535C245.688 143.1 244.631 146.586 242.65 149.55C240.669 152.515 237.853 154.825 234.559 156.19C231.265 157.554 227.641 157.911 224.144 157.216C220.647 156.52 217.435 154.803 214.914 152.282C212.393 149.761 210.676 146.549 209.98 143.052C209.285 139.555 209.642 135.93 211.006 132.636C212.37 129.342 214.681 126.527 217.646 124.546C220.61 122.565 224.095 121.508 227.661 121.508C232.442 121.509 237.026 123.408 240.407 126.789C243.787 130.169 245.687 134.754 245.688 139.535Z" fill="#A4E7FF"/>
<path d="M96.6561 174.531C96.6553 178.096 95.5973 181.581 93.616 184.545C91.6347 187.509 88.819 189.819 85.5249 191.183C82.2308 192.547 78.6063 192.903 75.1097 192.207C71.6131 191.511 68.4013 189.794 65.8806 187.273C63.3599 184.751 61.6434 181.539 60.9482 178.042C60.2529 174.546 60.6101 170.921 61.9747 167.627C63.3392 164.334 65.6498 161.518 68.6142 159.538C71.5786 157.557 75.0638 156.5 78.6291 156.5C80.9968 156.5 83.3413 156.966 85.5288 157.872C87.7162 158.778 89.7037 160.107 91.3778 161.781C93.0518 163.456 94.3796 165.443 95.2853 167.631C96.1909 169.819 96.6567 172.163 96.6561 174.531Z" fill="#F9EE80"/>
<path d="M164.656 103.531C164.655 107.096 163.597 110.581 161.616 113.545C159.635 116.509 156.819 118.819 153.525 120.183C150.231 121.547 146.606 121.903 143.11 121.207C139.613 120.511 136.401 118.794 133.881 116.273C131.36 113.751 129.643 110.539 128.948 107.042C128.253 103.546 128.61 99.9212 129.975 96.6274C131.339 93.3337 133.65 90.5185 136.614 88.5378C139.579 86.5572 143.064 85.5 146.629 85.5C148.997 85.4999 151.341 85.9662 153.529 86.8723C155.716 87.7785 157.704 89.1067 159.378 90.7811C161.052 92.4555 162.38 94.4433 163.285 96.631C164.191 98.8186 164.657 101.163 164.656 103.531Z" fill="#F9EE80"/>
<path d="M451.4 257.879C451.4 261.444 450.343 264.93 448.362 267.894C446.381 270.859 443.566 273.169 440.272 274.534C436.978 275.898 433.353 276.255 429.856 275.56C426.359 274.864 423.147 273.147 420.626 270.626C418.105 268.105 416.388 264.893 415.693 261.396C414.997 257.899 415.354 254.274 416.718 250.98C418.083 247.686 420.393 244.871 423.358 242.89C426.322 240.909 429.808 239.852 433.373 239.852C435.741 239.852 438.085 240.318 440.272 241.224C442.459 242.13 444.447 243.458 446.12 245.132C447.794 246.806 449.122 248.793 450.028 250.98C450.934 253.167 451.4 255.512 451.4 257.879Z" fill="#F9EE80"/>
<path d="M256.4 48.879C256.4 52.4444 255.343 55.9298 253.362 58.8943C251.381 61.8588 248.566 64.1694 245.272 65.5338C241.978 66.8983 238.353 67.2553 234.856 66.5597C231.359 65.8641 228.147 64.1472 225.626 61.6261C223.105 59.1049 221.388 55.8928 220.693 52.3959C219.997 48.899 220.354 45.2744 221.718 41.9804C223.083 38.6864 225.393 35.871 228.358 33.8901C231.322 31.9093 234.808 30.8521 238.373 30.8521C240.741 30.8519 243.085 31.3181 245.272 32.224C247.459 33.1299 249.447 34.4578 251.12 36.1317C252.794 37.8057 254.122 39.7931 255.028 41.9803C255.934 44.1675 256.4 46.5117 256.4 48.879Z" fill="#F9EE80"/>
<path d="M383.367 207.535C383.367 211.1 382.31 214.586 380.329 217.55C378.348 220.515 375.533 222.825 372.239 224.19C368.945 225.554 365.32 225.911 361.823 225.216C358.326 224.52 355.114 222.803 352.593 220.282C350.072 217.761 348.355 214.549 347.659 211.052C346.964 207.555 347.321 203.93 348.685 200.636C350.05 197.342 352.36 194.527 355.325 192.546C358.289 190.565 361.775 189.508 365.34 189.508C370.121 189.509 374.706 191.408 378.086 194.789C381.467 198.169 383.366 202.754 383.367 207.535Z" fill="#FB695B"/>
<path d="M326.367 114.535C326.367 118.1 325.31 121.586 323.329 124.55C321.348 127.515 318.533 129.825 315.239 131.19C311.945 132.554 308.32 132.911 304.823 132.216C301.326 131.52 298.114 129.803 295.593 127.282C293.072 124.761 291.355 121.549 290.659 118.052C289.964 114.555 290.321 110.93 291.685 107.636C293.05 104.342 295.36 101.527 298.325 99.5462C301.289 97.5653 304.775 96.5081 308.34 96.5081C313.121 96.5089 317.706 98.4084 321.086 101.789C324.467 105.169 326.366 109.754 326.367 114.535Z" fill="#FB695B"/>
<path d="M451.4 174.531C451.399 178.096 450.342 181.581 448.36 184.545C446.379 187.509 443.563 189.819 440.27 191.183C436.976 192.547 433.351 192.903 429.855 192.207C426.358 191.511 423.146 189.794 420.625 187.273C418.105 184.752 416.388 181.54 415.693 178.044C414.997 174.547 415.354 170.923 416.718 167.629C418.082 164.335 420.393 161.52 423.357 159.539C426.321 157.558 429.806 156.5 433.371 156.5C435.739 156.5 438.084 156.966 440.272 157.872C442.459 158.778 444.447 160.106 446.121 161.78C447.795 163.455 449.123 165.443 450.029 167.631C450.935 169.818 451.401 172.163 451.4 174.531Z" fill="#A4E7FF"/>
<path d="M407.4 138.531C407.399 142.096 406.342 145.581 404.36 148.545C402.379 151.509 399.563 153.819 396.27 155.183C392.976 156.547 389.351 156.903 385.855 156.207C382.358 155.511 379.146 153.794 376.625 151.273C374.105 148.752 372.388 145.54 371.693 142.044C370.997 138.547 371.354 134.923 372.718 131.629C374.082 128.335 376.393 125.52 379.357 123.539C382.321 121.558 385.806 120.5 389.371 120.5C391.739 120.5 394.084 120.966 396.272 121.872C398.459 122.778 400.447 124.106 402.121 125.78C403.795 127.455 405.123 129.443 406.029 131.631C406.935 133.818 407.401 136.163 407.4 138.531Z" fill="#A4E7FF"/>
</svg>
