<svg width="512" height="512" viewBox="0 0 512 512" fill="none" xmlns="http://www.w3.org/2000/svg">
<path d="M304.031 114.132L313.695 71.8321C317.076 56.9444 324.455 43.2616 335.038 32.2582C345.621 21.2548 359.006 13.348 373.75 9.39007L405.961 0.699074C408.524 0.00786114 411.198 -0.171813 413.83 0.17031C416.462 0.512434 419.001 1.36965 421.302 2.69303C423.603 4.0164 425.621 5.78001 427.24 7.88317C428.859 9.98632 430.049 12.3878 430.74 14.9506C431.431 17.5133 431.611 20.1871 431.268 22.8193C430.926 25.4515 430.069 27.9905 428.746 30.2914C427.422 32.5923 425.659 34.61 423.556 36.2293C421.453 37.8486 419.051 39.0379 416.488 39.7291L384.277 48.4171C376.623 50.4719 369.675 54.5764 364.181 60.2883C358.687 66.0001 354.856 73.1028 353.1 80.8311L343.44 123.131L304.031 114.132Z" fill="#2EDDDA"/>
<path d="M190.719 187.581L218.227 459.647C219.676 473.998 226.403 487.299 237.103 496.972C247.803 506.645 261.713 512 276.137 511.999H371.337C385.761 511.999 399.67 506.644 410.37 496.971C421.07 487.298 427.797 473.998 429.247 459.647L456.755 187.581H190.719Z" fill="#FB695B"/>
<path d="M367.738 215.199V187.581H190.719L218.227 459.647C219.678 473.997 226.405 487.298 237.104 496.971C247.804 506.643 261.713 511.999 276.137 511.999H363.793C375.273 412.663 352.609 336.425 336.367 296.96C333.22 289.205 332.333 280.718 333.808 272.481C335.282 264.243 339.059 256.591 344.7 250.409C358.637 234.933 367.738 215.199 367.738 215.199Z" fill="#F54432"/>
<path d="M330.438 342.972C277.407 349.304 237.93 361.98 209.985 378.14L218.227 459.648C219.03 467.682 221.502 475.46 225.485 482.484C238.122 468.461 271.157 440.449 337.669 433.523C372.376 430.079 405.801 418.586 435.286 399.957L450.653 247.969C445.664 257.862 422.215 332.011 330.438 342.972Z" fill="#FCF5AF"/>
<path d="M350.859 339.272C344.134 340.925 337.314 342.16 330.437 342.972C277.406 349.304 237.929 361.98 209.984 378.14L218.226 459.648C219.029 467.682 221.501 475.46 225.484 482.484C238.121 468.461 271.156 440.449 337.668 433.523C347.191 432.537 356.645 430.97 365.977 428.832C364.07 398.534 359.003 368.518 350.859 339.272Z" fill="#F4E74D"/>
<path d="M406.535 92.8191H240.941C231.572 92.8194 222.502 96.1166 215.32 102.133C208.138 108.149 203.302 116.501 201.66 125.725L194.426 166.37H453.047L445.817 125.725C444.175 116.501 439.339 108.149 432.157 102.133C424.974 96.1162 415.904 92.8191 406.535 92.8191Z" fill="#76E7E7"/>
<path d="M302.086 92.8191H240.941C231.572 92.8194 222.502 96.1166 215.32 102.133C208.138 108.149 203.302 116.501 201.66 125.725L194.426 166.37H255.57L262.804 125.725C264.446 116.501 269.282 108.149 276.464 102.133C283.647 96.1162 292.717 92.8191 302.086 92.8191Z" fill="#2EDDDA"/>
<path d="M443.8 215.37H203.672C194.145 215.37 185.008 211.585 178.271 204.849C171.535 198.112 167.75 188.975 167.75 179.448C167.75 169.921 171.535 160.784 178.271 154.047C185.008 147.311 194.145 143.526 203.672 143.526H443.8C453.327 143.526 462.464 147.311 469.201 154.047C475.937 160.784 479.722 169.921 479.722 179.448C479.722 188.975 475.937 198.112 469.201 204.849C462.464 211.585 453.327 215.37 443.8 215.37Z" fill="#B0F0EF"/>
<path d="M235.8 179.448C235.8 174.731 236.729 170.06 238.534 165.701C240.339 161.343 242.985 157.383 246.321 154.047C249.657 150.711 253.617 148.065 257.975 146.26C262.333 144.455 267.005 143.526 271.722 143.526H203.672C194.145 143.526 185.008 147.311 178.271 154.047C171.535 160.784 167.75 169.921 167.75 179.448C167.75 188.975 171.535 198.112 178.271 204.849C185.008 211.585 194.145 215.37 203.672 215.37H271.723C267.006 215.37 262.334 214.441 257.976 212.636C253.617 210.831 249.657 208.185 246.321 204.849C242.986 201.514 240.339 197.554 238.534 193.195C236.729 188.837 235.8 184.166 235.8 179.448Z" fill="#76E7E7"/>
<path d="M262.953 511.999H73.164C65.5866 511.999 58.3196 508.989 52.9616 503.631C47.6036 498.273 44.5935 491.006 44.5935 483.429C44.5935 475.851 47.6036 468.584 52.9616 463.226C58.3196 457.868 65.5866 454.858 73.164 454.858H262.953C270.53 454.858 277.797 457.868 283.155 463.226C288.513 468.584 291.523 475.851 291.523 483.429C291.523 491.006 288.513 498.273 283.155 503.631C277.797 508.989 270.53 511.999 262.953 511.999Z" fill="#FFC7A4"/>
<path d="M261.082 454.858H75.035C63.6209 454.858 52.6743 450.324 44.6033 442.253C36.5323 434.182 31.998 423.235 31.998 411.821C31.998 400.407 36.5323 389.46 44.6033 381.389C52.6743 373.318 63.6209 368.784 75.035 368.784H261.082C272.496 368.784 283.443 373.318 291.514 381.389C299.585 389.46 304.119 400.407 304.119 411.821C304.119 423.235 299.585 434.182 291.514 442.253C283.443 450.324 272.496 454.858 261.082 454.858Z" fill="#C8866A"/>
<path d="M93.2661 354.823C93.2661 354.823 139.766 370.839 169.614 425.878C170.981 428.414 173.009 430.532 175.483 432.009C177.956 433.485 180.783 434.265 183.664 434.265C186.545 434.265 189.372 433.485 191.846 432.009C194.319 430.532 196.347 428.414 197.714 425.878C227.558 370.839 274.062 354.823 274.062 354.823H93.2661Z" fill="#F9EE80"/>
<path d="M78.6291 374.987C48.7421 374.987 29.1061 344.007 41.6131 316.862C52.7727 292.63 70.6649 272.117 93.1572 257.77C115.649 243.422 141.793 235.845 168.471 235.942C195.15 236.038 221.238 243.804 243.626 258.313C266.014 272.823 283.758 293.464 294.742 317.776C306.871 344.616 286.773 374.987 257.32 374.987H78.6291Z" fill="#FFC7A4"/>
<path d="M134.7 294.46C134.7 295.988 134.247 297.482 133.398 298.753C132.549 300.024 131.342 301.014 129.93 301.599C128.518 302.184 126.965 302.337 125.466 302.039C123.967 301.741 122.59 301.005 121.509 299.924C120.429 298.843 119.693 297.467 119.395 295.968C119.096 294.469 119.249 292.915 119.834 291.503C120.419 290.091 121.41 288.884 122.68 288.035C123.951 287.186 125.445 286.733 126.973 286.733C129.022 286.734 130.987 287.548 132.436 288.997C133.885 290.446 134.7 292.411 134.7 294.46Z" fill="#FFFCDC"/>
<path d="M175.785 330.866C175.785 332.394 175.332 333.888 174.483 335.159C173.634 336.43 172.427 337.42 171.015 338.005C169.603 338.59 168.049 338.743 166.551 338.445C165.052 338.147 163.675 337.411 162.594 336.33C161.514 335.249 160.778 333.872 160.48 332.374C160.181 330.875 160.334 329.321 160.919 327.909C161.504 326.497 162.494 325.29 163.765 324.441C165.036 323.592 166.53 323.139 168.058 323.139C169.073 323.139 170.078 323.338 171.016 323.727C171.953 324.115 172.805 324.684 173.523 325.401C174.24 326.119 174.809 326.971 175.198 327.909C175.586 328.846 175.785 329.851 175.785 330.866Z" fill="#FFFCDC"/>
<path d="M183.664 283.749C183.664 285.277 183.211 286.771 182.362 288.042C181.513 289.313 180.306 290.303 178.894 290.888C177.482 291.473 175.929 291.626 174.43 291.328C172.931 291.029 171.554 290.294 170.473 289.213C169.393 288.132 168.657 286.755 168.359 285.257C168.061 283.758 168.214 282.204 168.798 280.792C169.383 279.38 170.374 278.173 171.644 277.324C172.915 276.475 174.409 276.022 175.937 276.022C176.952 276.022 177.957 276.222 178.894 276.61C179.832 276.998 180.684 277.567 181.401 278.285C182.119 279.003 182.688 279.854 183.076 280.792C183.465 281.729 183.664 282.734 183.664 283.749Z" fill="#FFFCDC"/>
<path d="M225.664 309.913C225.664 311.441 225.211 312.935 224.362 314.206C223.513 315.477 222.306 316.467 220.894 317.052C219.482 317.637 217.929 317.79 216.43 317.492C214.931 317.193 213.554 316.457 212.473 315.377C211.393 314.296 210.657 312.919 210.359 311.42C210.061 309.922 210.214 308.368 210.798 306.956C211.383 305.544 212.374 304.337 213.644 303.488C214.915 302.639 216.409 302.186 217.937 302.186C218.952 302.186 219.957 302.386 220.894 302.774C221.832 303.162 222.684 303.731 223.401 304.449C224.119 305.166 224.688 306.018 225.076 306.956C225.465 307.893 225.664 308.898 225.664 309.913Z" fill="#FFFCDC"/>
</svg>
