<svg width="512" height="512" viewBox="0 0 512 512" fill="none" xmlns="http://www.w3.org/2000/svg">
<path d="M456.782 193.535C463.968 175.251 467.628 155.771 467.567 136.125C467.567 60.945 415.665 0 351.638 0C287.611 0 235.712 60.945 235.712 136.125C235.652 155.771 239.311 175.25 246.497 193.535C262.442 233.652 262.442 278.348 246.497 318.465C239.311 336.75 235.652 356.229 235.712 375.875C235.712 451.055 287.612 512 351.638 512C415.664 512 467.568 451.055 467.568 375.875C467.628 356.229 463.969 336.749 456.783 318.465C440.833 278.349 440.833 233.651 456.782 193.535Z" fill="#E1966D"/>
<path d="M235.712 136.125C235.651 155.771 239.31 175.251 246.497 193.535C262.442 233.652 262.442 278.348 246.497 318.465C239.311 336.75 235.652 356.229 235.712 375.875C235.712 422.063 255.306 462.875 285.263 487.48C309.482 456.804 322.763 417.425 322.763 375.875C322.841 352.325 318.442 328.974 309.801 307.066C296.734 274.275 296.734 237.724 309.801 204.933C318.444 183.026 322.842 159.675 322.762 136.124C322.762 94.573 309.481 55.194 285.262 24.519C255.301 49.129 235.712 89.938 235.712 136.125Z" fill="#D77C40"/>
<path d="M281.071 193.535C288.257 175.251 291.917 155.771 291.856 136.125C291.856 60.945 239.954 0 175.931 0C111.908 0 60.0007 60.945 60.0007 136.125C59.9406 155.771 63.6 175.25 70.7857 193.535C86.735 233.651 86.735 278.349 70.7857 318.465C63.6 336.75 59.9406 356.229 60.0007 375.875C60.0007 451.055 111.901 512 175.931 512C239.961 512 291.857 451.055 291.857 375.875C291.917 356.229 288.258 336.749 281.072 318.465C265.122 278.349 265.122 233.651 281.071 193.535Z" fill="#E1966D"/>
<path d="M175.931 226.707C158.531 226.707 141.731 218.234 128.631 202.852C113.744 185.372 105.545 161.676 105.545 136.125C105.545 110.574 113.745 86.879 128.631 69.398C141.731 54.015 158.531 45.543 175.931 45.543C193.331 45.543 210.131 54.016 223.231 69.398C238.118 86.878 246.317 110.574 246.317 136.125C246.317 161.676 238.117 185.371 223.231 202.852C210.13 218.234 193.329 226.707 175.931 226.707Z" fill="#FFD1BA"/>
<path d="M233.532 182.246C220.432 197.633 203.632 206.101 186.232 206.101C168.832 206.101 152.032 197.632 138.932 182.246C124.044 164.77 115.849 141.07 115.849 115.52C115.8 102.706 117.97 89.9804 122.263 77.907C111.435 94.227 105.544 114.507 105.544 136.126C105.544 161.677 113.744 185.372 128.63 202.853C141.73 218.236 158.53 226.708 175.93 226.708C193.33 226.708 210.13 218.235 223.23 202.853C230.491 194.23 236.138 184.368 239.901 173.742C237.949 176.701 235.822 179.541 233.532 182.246Z" fill="#FFBC9A"/>
<path d="M175.931 466.457C158.531 466.457 141.731 457.984 128.631 442.602C113.744 425.122 105.545 401.426 105.545 375.875C105.545 350.324 113.745 326.629 128.631 309.148C141.731 293.765 158.531 285.296 175.931 285.296C193.331 285.296 210.131 293.765 223.231 309.148C238.118 326.628 246.317 350.328 246.317 375.875C246.317 401.422 238.117 425.121 223.231 442.602C210.13 457.984 193.329 466.457 175.931 466.457Z" fill="#FFD1BA"/>
<path d="M233.532 422C220.432 437.383 203.632 445.855 186.232 445.855C168.832 445.855 152.032 437.382 138.932 422C124.045 404.52 115.85 380.824 115.85 355.273C115.8 342.459 117.97 329.733 122.264 317.66C111.436 333.98 105.545 354.26 105.545 375.879C105.545 401.43 113.745 425.125 128.631 442.606C141.731 457.989 158.531 466.461 175.931 466.461C193.331 466.461 210.131 457.988 223.231 442.606C230.492 433.982 236.139 424.12 239.901 413.492C237.949 416.452 235.822 419.293 233.532 422Z" fill="#FFBC9A"/>
</svg>
