<svg width="512" height="512" viewBox="0 0 512 512" fill="none" xmlns="http://www.w3.org/2000/svg">
<path d="M443.293 301.242C419.267 243.022 383.971 190.124 339.435 145.588C294.9 101.052 242.001 65.7567 183.781 41.73L53.5513 356.129C36.8673 396.41 68.5823 436.734 107.57 436C109.654 435.96 111.724 436.335 113.661 437.104C115.597 437.873 117.361 439.021 118.849 440.48C120.337 441.939 121.519 443.679 122.326 445.6C123.133 447.521 123.55 449.584 123.55 451.668V490.887C123.55 496.487 125.775 501.857 129.734 505.816C133.694 509.776 139.064 512 144.664 512C150.263 512 155.634 509.776 159.593 505.816C163.553 501.857 165.777 496.487 165.777 490.887V426.668C165.777 423.567 166.696 420.536 168.418 417.958C170.14 415.38 172.589 413.37 175.453 412.184L295.117 362.618C296.816 361.915 298.661 361.642 300.49 361.822C302.319 362.003 304.075 362.631 305.604 363.653C307.132 364.674 308.384 366.056 309.251 367.677C310.117 369.298 310.57 371.108 310.57 372.946V401.282C310.57 406.882 312.795 412.252 316.754 416.211C320.714 420.171 326.084 422.395 331.684 422.395C337.283 422.395 342.654 420.171 346.613 416.211C350.573 412.252 352.797 406.882 352.797 401.282V352.613C352.797 348.503 354.015 344.484 356.298 341.067C358.582 337.649 361.828 334.986 365.625 333.413L443.293 301.242Z" fill="#F7EF87"/>
<path d="M151.164 120.473L53.5513 356.129C36.8673 396.41 68.5823 436.734 107.57 436C109.654 435.96 111.724 436.335 113.661 437.104C115.597 437.873 117.361 439.021 118.849 440.48C120.337 441.939 121.519 443.68 122.326 445.601C123.133 447.522 123.55 449.584 123.55 451.668V490.887C123.55 496.487 125.775 501.857 129.734 505.817C133.694 509.776 139.064 512.001 144.664 512.001C150.263 512.001 155.634 509.776 159.593 505.817C163.553 501.857 165.777 496.487 165.777 490.887V426.668C165.777 423.568 166.696 420.536 168.418 417.958C170.14 415.38 172.589 413.371 175.453 412.184L262.082 376.3C186.738 339.41 144.66 227.309 151.164 120.473Z" fill="#EFD176"/>
<path d="M270.633 326.547C261.522 317.436 249.165 312.317 236.28 312.317C223.395 312.317 211.037 317.436 201.926 326.547C192.815 335.658 187.697 348.016 187.697 360.901C187.697 373.786 192.815 386.143 201.926 395.254C203.381 396.699 204.924 398.052 206.547 399.305L284.465 367.032C285.41 359.675 284.654 352.2 282.256 345.181C279.858 338.163 275.882 331.788 270.633 326.547Z" fill="#E3748E"/>
<path d="M206.543 399.3L262.082 376.3C239.465 365.226 219.832 347.39 203.621 324.933C203.047 325.456 202.48 325.992 201.921 326.546C192.81 335.657 187.692 348.015 187.692 360.9C187.692 373.785 192.81 386.142 201.921 395.253C203.377 396.696 204.921 398.047 206.543 399.3Z" fill="#DE5C6E"/>
<path d="M164.758 163.887C157.701 156.808 148.623 152.092 138.774 150.387L102.489 237.987C112.437 244.974 124.643 247.977 136.697 246.404C148.752 244.83 159.778 238.794 167.599 229.487C175.419 220.181 179.467 208.28 178.941 196.135C178.415 183.99 173.355 172.483 164.759 163.887H164.758Z" fill="#E3748E"/>
<path d="M150.7 154.094C146.9 152.354 142.892 151.11 138.774 150.394L102.489 237.994C111.404 244.253 122.164 247.335 133.042 246.744C143.919 246.153 154.282 241.924 162.466 234.736C155.512 208.386 151.565 181.333 150.7 154.094Z" fill="#DE5C6E"/>
<path d="M374.891 254.141C365.78 263.252 360.662 275.61 360.662 288.495C360.662 301.38 365.78 313.737 374.891 322.848C376.535 324.485 378.292 326.005 380.149 327.395L443.294 301.243C434.561 280.147 424.346 259.696 412.724 240.043C405.775 239.537 398.799 240.534 392.27 242.967C385.742 245.399 379.814 249.211 374.891 254.141Z" fill="#E3748E"/>
<path d="M228.495 119.745C219.384 128.856 207.027 133.974 194.142 133.974C181.257 133.974 168.9 128.856 159.788 119.745C158.151 118.101 156.632 116.344 155.241 114.487L181.393 51.342C202.489 60.0751 222.94 70.2906 242.593 81.912C243.1 88.8609 242.103 95.8372 239.67 102.366C237.237 108.895 233.426 114.822 228.495 119.745Z" fill="#E3748E"/>
<path d="M124.465 313.7C118.268 307.498 110.507 303.088 102.006 300.94C93.5044 298.793 84.5804 298.986 76.1804 301.5L53.5514 356.129C51.1441 361.885 49.6661 367.987 49.1724 374.207C52.8457 379.958 57.6893 384.87 63.3876 388.624C69.0859 392.378 75.5111 394.889 82.2447 395.995C88.9783 397.1 95.8692 396.775 102.469 395.039C109.068 393.304 115.228 390.198 120.547 385.924C125.866 381.649 130.225 376.302 133.34 370.231C136.454 364.159 138.255 357.5 138.625 350.686C138.995 343.873 137.925 337.057 135.485 330.685C133.046 324.312 129.291 318.525 124.465 313.7Z" fill="#DE5C6E"/>
<path d="M178.711 76.188C280.229 123.277 361.772 204.823 408.855 306.344C411.16 311.321 415.3 315.215 420.409 317.211C425.518 319.208 431.201 319.151 436.269 317.055L471.843 302.321C474.494 301.224 476.896 299.603 478.905 297.557C480.915 295.51 482.492 293.079 483.541 290.41C484.59 287.74 485.09 284.886 485.011 282.018C484.932 279.151 484.276 276.329 483.081 273.721C427.835 153.609 331.45 57.2178 211.34 1.96504C208.731 0.76496 205.906 0.103772 203.036 0.0210613C200.165 -0.0616492 197.307 0.435819 194.633 1.48368C191.959 2.53154 189.524 4.10824 187.473 6.11938C185.423 8.13051 183.8 10.5347 182.7 13.188L167.965 48.75C165.869 53.8263 165.817 59.5165 167.82 64.6304C169.823 69.7442 173.725 73.8856 178.711 76.188Z" fill="#D2996F"/>
<path d="M148.121 209.141C148.121 210.61 147.685 212.046 146.868 213.267C146.052 214.489 144.892 215.44 143.534 216.002C142.177 216.564 140.683 216.711 139.242 216.424C137.801 216.137 136.478 215.429 135.44 214.39C134.401 213.351 133.694 212.027 133.408 210.586C133.121 209.145 133.269 207.652 133.832 206.295C134.394 204.937 135.347 203.778 136.568 202.962C137.79 202.146 139.226 201.711 140.695 201.711C141.671 201.711 142.637 201.903 143.538 202.276C144.44 202.65 145.258 203.197 145.948 203.887C146.638 204.577 147.185 205.396 147.558 206.298C147.93 207.199 148.122 208.165 148.121 209.141Z" fill="#E3748E"/>
<path d="M261.754 342.707C261.754 344.176 261.318 345.612 260.501 346.834C259.685 348.055 258.524 349.007 257.167 349.568C255.809 350.13 254.316 350.277 252.875 349.99C251.434 349.703 250.111 348.995 249.072 347.956C248.034 346.917 247.327 345.593 247.041 344.152C246.754 342.711 246.902 341.218 247.464 339.861C248.027 338.504 248.979 337.344 250.201 336.528C251.423 335.712 252.859 335.277 254.328 335.277C256.298 335.278 258.187 336.061 259.58 337.454C260.972 338.848 261.754 340.737 261.754 342.707Z" fill="#DE5C6E"/>
<path d="M228.867 372.313C228.867 373.783 228.432 375.219 227.615 376.441C226.799 377.663 225.638 378.615 224.281 379.177C222.923 379.74 221.429 379.887 219.988 379.6C218.547 379.314 217.223 378.606 216.184 377.567C215.144 376.528 214.437 375.204 214.15 373.763C213.863 372.321 214.011 370.827 214.573 369.47C215.135 368.112 216.088 366.952 217.309 366.135C218.531 365.319 219.968 364.883 221.437 364.883C222.413 364.883 223.38 365.074 224.281 365.448C225.183 365.821 226.002 366.368 226.692 367.058C227.382 367.748 227.93 368.567 228.303 369.469C228.676 370.371 228.868 371.337 228.867 372.313Z" fill="#E3748E"/>
<path d="M91.8003 372.34C91.7999 373.809 91.364 375.245 90.5477 376.466C89.7313 377.687 88.5712 378.639 87.214 379.201C85.8568 379.763 84.3634 379.91 82.9227 379.623C81.482 379.337 80.1587 378.629 79.12 377.59C78.0812 376.552 77.3738 375.228 77.0872 373.788C76.8005 372.347 76.9474 370.854 77.5094 369.496C78.0713 368.139 79.0231 366.979 80.2443 366.163C81.4655 365.346 82.9014 364.91 84.3703 364.91C85.3461 364.91 86.3123 365.102 87.2138 365.475C88.1153 365.849 88.9345 366.396 89.6244 367.086C90.3144 367.776 90.8617 368.595 91.235 369.497C91.6084 370.398 91.8005 371.364 91.8003 372.34Z" fill="#E3748E"/>
<path d="M107.949 332.648C107.95 334.118 107.515 335.555 106.699 336.777C105.883 337.999 104.723 338.952 103.365 339.515C102.008 340.078 100.514 340.226 99.0723 339.94C97.6307 339.654 96.3065 338.946 95.267 337.907C94.2275 336.868 93.5194 335.544 93.2324 334.103C92.9454 332.662 93.0923 331.168 93.6546 329.81C94.2168 328.452 95.1691 327.291 96.3911 326.475C97.613 325.658 99.0497 325.222 100.519 325.222C102.489 325.222 104.379 326.004 105.772 327.397C107.165 328.789 107.949 330.678 107.949 332.648Z" fill="#E3748E"/>
<path d="M422.664 263.992H409.394C407.405 263.992 405.497 263.202 404.091 261.795C402.684 260.389 401.894 258.481 401.894 256.492C401.894 254.503 402.684 252.595 404.091 251.189C405.497 249.782 407.405 248.992 409.394 248.992H422.664C424.653 248.992 426.561 249.782 427.968 251.189C429.374 252.595 430.164 254.503 430.164 256.492C430.164 258.481 429.374 260.389 427.968 261.795C426.561 263.202 424.653 263.992 422.664 263.992Z" fill="#C47B46"/>
<path d="M260.082 71.77H244.148C242.159 71.77 240.251 70.9798 238.845 69.5733C237.438 68.1668 236.648 66.2591 236.648 64.27C236.648 62.2809 237.438 60.3732 238.845 58.9667C240.251 57.5602 242.159 56.77 244.148 56.77H260.086C262.075 56.77 263.983 57.5602 265.389 58.9667C266.796 60.3732 267.586 62.2809 267.586 64.27C267.586 66.2591 266.796 68.1668 265.389 69.5733C263.983 70.9798 262.075 71.77 260.086 71.77H260.082Z" fill="#C47B46"/>
<path d="M432.887 240.871H420.422C418.433 240.871 416.526 240.081 415.119 238.674C413.713 237.268 412.922 235.36 412.922 233.371C412.922 231.382 413.713 229.474 415.119 228.068C416.526 226.661 418.433 225.871 420.422 225.871H432.887C434.876 225.871 436.784 226.661 438.191 228.068C439.597 229.474 440.387 231.382 440.387 233.371C440.387 235.36 439.597 237.268 438.191 238.674C436.784 240.081 434.876 240.871 432.887 240.871Z" fill="#C47B46"/>
<path d="M268 274C294.51 274 316 252.51 316 226C316 199.49 294.51 178 268 178C241.491 178 220 199.49 220 226C220 252.51 241.491 274 268 274Z" fill="#E3748E"/>
<path d="M282.754 216.707C282.754 218.176 282.318 219.612 281.501 220.834C280.685 222.055 279.524 223.007 278.167 223.568C276.809 224.13 275.316 224.277 273.875 223.99C272.434 223.703 271.111 222.995 270.072 221.956C269.034 220.917 268.327 219.593 268.041 218.152C267.754 216.711 267.902 215.218 268.464 213.861C269.027 212.504 269.979 211.344 271.201 210.528C272.423 209.712 273.859 209.277 275.328 209.277C277.298 209.278 279.187 210.061 280.58 211.454C281.972 212.848 282.754 214.737 282.754 216.707Z" fill="#DE5C6E"/>
</svg>
