<svg width="512" height="512" viewBox="0 0 512 512" fill="none" xmlns="http://www.w3.org/2000/svg">
<path d="M272.727 4.94592C270.876 4.24005 268.897 3.93216 266.919 4.04233C264.941 4.1525 263.008 4.67826 261.247 5.58533C259.486 6.4924 257.935 7.76043 256.697 9.30677C255.459 10.8531 254.56 12.6431 254.06 14.5599C249.203 32.8189 231.547 51.5759 231.547 51.5759L271.91 76.7779L312.272 51.5779C312.273 25.2179 289.676 11.5159 272.727 4.94592Z" fill="#F3F5E6"/>
<path d="M312.273 51.5759H231.548C222.112 51.5759 213.063 55.3242 206.391 61.9962C199.719 68.6682 195.971 77.7173 195.971 87.1529V99.9209L271.91 129.237L347.849 99.9209V87.1529C347.849 82.4809 346.929 77.8547 345.141 73.5383C343.353 69.2219 340.733 65.2999 337.429 61.9963C334.126 58.6926 330.204 56.072 325.887 54.2841C321.571 52.4962 316.945 51.5759 312.273 51.5759Z" fill="#D7D9CC"/>
<path d="M347.849 99.9219H195.972C183.926 99.9219 172.374 104.707 163.856 113.225C155.339 121.742 150.554 133.294 150.554 145.34V158.554L271.91 195.069L393.267 158.553V145.339C393.267 139.375 392.092 133.469 389.809 127.958C387.527 122.448 384.181 117.441 379.964 113.224C375.746 109.006 370.74 105.661 365.229 103.379C359.719 101.096 353.813 99.9217 347.849 99.9219Z" fill="#F3F5E6"/>
<path d="M129.103 60.3579C115.179 75.5819 109.703 100.264 116.785 124.939C123.867 149.614 141.601 167.634 161.485 173.155C175.41 157.932 180.885 133.249 173.803 108.575C166.721 83.9009 148.982 65.8779 129.103 60.3579Z" fill="#2AAC92"/>
<path d="M74.6546 96.566C69.8546 116.63 77.0206 140.875 95.1726 159.027C113.325 177.179 137.573 184.349 157.634 179.545C162.434 159.481 155.268 135.236 137.116 117.084C118.964 98.932 94.7186 91.763 74.6546 96.566Z" fill="#4CC7B3"/>
<path d="M464.644 288.119L496.665 447.083C498.349 455.436 498.157 464.059 496.103 472.33C494.048 480.6 490.183 488.31 484.785 494.904C479.388 501.499 472.593 506.812 464.892 510.46C457.191 514.108 448.776 516 440.255 516H103.565C95.043 516.001 86.6277 514.108 78.9265 510.46C71.2253 506.812 64.4305 501.499 59.033 494.904C53.6355 488.31 49.77 480.599 47.7158 472.329C45.6616 464.059 45.4699 455.435 47.1546 447.082L79.1756 288.118L134.137 233.157H414.971L464.644 288.119Z" fill="#FEEA61"/>
<path d="M165.376 516C156.854 516 148.439 514.108 140.738 510.46C133.037 506.812 126.242 501.499 120.844 494.905C115.447 488.311 111.581 480.6 109.527 472.33C107.473 464.06 107.281 455.436 108.966 447.083L152.057 233.158H134.137L79.1756 288.119L49.1286 437.291L47.1556 447.083C46.494 450.357 46.1153 453.681 46.0236 457.02C45.662 470.804 50.2822 484.255 59.0366 494.908C60.3443 496.506 61.7363 498.033 63.2066 499.482C73.9486 510.104 88.458 516.042 103.565 516H165.376Z" fill="#FEC300"/>
<path d="M464.644 288.119C458.645 285.496 452.054 284.525 445.554 285.306C439.054 286.088 432.882 288.593 427.676 292.563C421.284 297.441 413.466 300.083 405.426 300.083C397.385 300.083 389.568 297.441 383.176 292.563C376.782 287.686 368.963 285.044 360.922 285.044C352.88 285.044 345.061 287.686 338.668 292.563C332.274 297.44 324.455 300.082 316.414 300.082C308.372 300.082 300.553 297.44 294.16 292.563C287.768 287.685 279.95 285.043 271.91 285.043C263.869 285.043 256.052 287.685 249.66 292.563C243.266 297.44 235.447 300.082 227.406 300.082C219.364 300.082 211.545 297.44 205.152 292.563C198.758 287.686 190.939 285.044 182.898 285.044C174.856 285.044 167.037 287.686 160.644 292.563C154.252 297.441 146.434 300.083 138.394 300.083C130.353 300.083 122.536 297.441 116.144 292.563C110.938 288.592 104.765 286.086 98.2645 285.305C91.764 284.524 85.1729 285.496 79.1747 288.12L96.3397 202.94C98.8608 190.418 105.639 179.156 115.522 171.065C125.405 162.974 137.785 158.554 150.558 158.555H393.273C406.046 158.554 418.425 162.974 428.308 171.065C438.192 179.156 444.97 190.418 447.491 202.94L464.644 288.119Z" fill="#A8503C"/>
<path d="M327.828 132.625C326.274 132.625 324.757 132.157 323.473 131.282C322.19 130.407 321.2 129.165 320.633 127.719C320.066 126.273 319.948 124.689 320.294 123.175C320.64 121.661 321.435 120.286 322.575 119.23C363.3 81.5 360.923 41.042 360.894 40.639C360.779 39.0187 361.177 37.4034 362.033 36.0225C362.889 34.6417 364.158 33.5657 365.66 32.9473C367.162 32.3289 368.821 32.1996 370.4 32.5778C371.98 32.956 373.4 33.8224 374.46 35.054C392.66 56.22 394.101 76.654 392.108 90.059C390.861 98.8208 387.754 107.214 382.995 114.676C382.414 115.508 381.675 116.217 380.82 116.764C379.965 117.31 379.011 117.683 378.012 117.861C377.013 118.038 375.989 118.017 374.998 117.799C374.007 117.581 373.069 117.17 372.237 116.589C371.405 116.008 370.695 115.269 370.149 114.414C369.602 113.559 369.23 112.605 369.052 111.606C368.693 109.589 369.151 107.511 370.324 105.831C374.233 99.4612 376.586 92.2601 377.194 84.8111C377.801 77.3621 376.645 69.8748 373.819 62.956C369.735 80.769 359.319 106.256 333.076 130.567C331.649 131.892 329.774 132.627 327.828 132.625Z" fill="#DE4B51"/>
<path d="M380.182 158.558C398.769 158.558 413.837 143.49 413.837 124.903C413.837 106.316 398.769 91.248 380.182 91.248C361.594 91.248 346.527 106.316 346.527 124.903C346.527 143.49 361.594 158.558 380.182 158.558Z" fill="#F9545B"/>
<path d="M327.829 158.558C346.416 158.558 361.484 143.49 361.484 124.903C361.484 106.316 346.416 91.248 327.829 91.248C309.241 91.248 294.174 106.316 294.174 124.903C294.174 143.49 309.241 158.558 327.829 158.558Z" fill="#FA7578"/>
<path d="M95.9666 204.762L79.1766 288.119C85.1749 285.495 91.766 284.523 98.2664 285.304C104.767 286.085 110.94 288.591 116.146 292.562C122.534 297.445 130.354 300.088 138.395 300.081H138.578L158.145 202.941C160.666 190.42 167.443 179.158 177.325 171.067C187.207 162.976 199.586 158.556 212.358 158.556H150.558C138.621 158.547 127.003 162.403 117.44 169.547C107.878 176.691 100.886 186.739 97.5096 198.188C97.0523 199.741 96.6606 201.324 96.3346 202.939L95.9666 204.762Z" fill="#993E29"/>
</svg>
