<svg width="512" height="512" viewBox="0 0 512 512" fill="none" xmlns="http://www.w3.org/2000/svg">
<path d="M158.93 193.907V182.001C158.93 178.871 160.141 175.862 162.308 173.604C164.475 171.346 167.432 170.013 170.559 169.884L460.895 157.923C462.528 157.856 464.159 158.119 465.688 158.698C467.216 159.276 468.613 160.158 469.792 161.29C470.972 162.421 471.911 163.78 472.552 165.284C473.193 166.787 473.524 168.405 473.524 170.04V205.868C473.524 207.503 473.193 209.12 472.552 210.624C471.911 212.128 470.972 213.487 469.792 214.618C468.613 215.75 467.216 216.632 465.688 217.21C464.159 217.789 462.528 218.052 460.895 217.985L170.559 206.024C167.432 205.895 164.476 204.562 162.308 202.303C160.141 200.045 158.931 197.037 158.93 193.907Z" fill="#D2996F"/>
<path d="M325.824 180.454C303.207 179.899 288.976 196.142 281.824 210.606L298.633 211.297C304.164 202.949 312.766 195.442 324.754 195.442C324.988 195.442 325.227 195.442 325.461 195.45C335.699 195.7 347.832 201.536 356.899 213.7L374.93 214.442C365.262 196.481 348.043 181.001 325.824 180.454Z" fill="#C47B46"/>
<path d="M473.52 182.101C436.129 187.421 426.231 174.55 421.739 159.535L406.38 160.168C408.751 169.344 412.86 180.074 422.271 187.75C430.904 194.793 442.671 198.293 457.912 198.293C463.132 198.264 468.346 197.907 473.521 197.223L473.52 182.101Z" fill="#C47B46"/>
<path d="M369.844 512.001H139.008C135.537 512 132.107 511.252 128.951 509.807C125.795 508.362 122.987 506.254 120.719 503.626L98.519 477.896C60.1243 433.399 39.0008 376.585 39 317.814C39 316.241 39.3099 314.683 39.9119 313.229C40.514 311.776 41.3964 310.455 42.5089 309.343C43.6213 308.23 44.942 307.348 46.3955 306.746C47.8489 306.144 49.4068 305.834 50.98 305.834H457.875C459.448 305.834 461.006 306.144 462.46 306.746C463.913 307.348 465.234 308.23 466.346 309.343C467.459 310.455 468.341 311.776 468.943 313.229C469.545 314.683 469.855 316.241 469.855 317.814C469.854 376.586 448.73 433.399 410.335 477.896L388.135 503.626C385.867 506.254 383.059 508.362 379.902 509.807C376.746 511.253 373.315 512.001 369.844 512.001Z" fill="#FCF2D0"/>
<path d="M199.285 305.833H50.98C49.4067 305.833 47.8488 306.143 46.3952 306.745C44.9417 307.347 43.621 308.23 42.5085 309.342C41.396 310.455 40.5136 311.775 39.9116 313.229C39.3096 314.683 38.9999 316.241 39 317.814C39.001 376.586 60.125 433.399 98.52 477.896L120.72 503.626C122.987 506.255 125.794 508.364 128.95 509.809C132.106 511.254 135.537 512.002 139.008 512.001H244.608C208.9 472.907 185.2 362.774 199.285 305.833Z" fill="#F2D98D"/>
<path d="M90.113 467.575C92.8164 471.079 95.6184 474.519 98.519 477.895L120.719 503.625C122.986 506.254 125.793 508.363 128.949 509.809C132.106 511.254 135.537 512.002 139.008 512.001H369.844C373.315 512.002 376.746 511.254 379.902 509.809C383.058 508.363 385.866 506.255 388.133 503.626L410.333 477.896C413.239 474.529 416.041 471.089 418.739 467.576C355.868 469.033 332.071 479.994 254.427 479.994C176.783 479.994 152.984 469.032 90.113 467.575Z" fill="#A3DEFE"/>
<path d="M90.113 467.575C92.8164 471.079 95.6184 474.519 98.519 477.895L120.719 503.625C122.986 506.254 125.793 508.363 128.949 509.809C132.106 511.254 135.537 512.002 139.008 512.001H244.608C237.159 503.845 230.237 492.591 224.065 479.376C169.152 477.044 143.965 468.825 90.113 467.575Z" fill="#7ACEFA"/>
<path d="M267.461 152.591H183.293C179.323 152.591 175.391 153.373 171.723 154.892C168.055 156.411 164.722 158.638 161.914 161.446C159.106 164.253 156.879 167.586 155.36 171.255C153.841 174.923 153.059 178.854 153.059 182.825V305.833H297.7V182.825C297.7 178.854 296.918 174.922 295.398 171.254C293.878 167.585 291.651 164.252 288.843 161.445C286.035 158.637 282.701 156.41 279.032 154.891C275.364 153.372 271.432 152.59 267.461 152.591Z" fill="#FCF2D0"/>
<path d="M217.875 152.591H232.875V305.833H217.875V152.591Z" fill="#F2D98D"/>
<path d="M181.719 152.591H196.719V305.833H181.719V152.591Z" fill="#F2D98D"/>
<path d="M254.035 152.591H269.035V305.833H254.035V152.591Z" fill="#F2D98D"/>
<path d="M380.469 279.201L321.176 338.501C320.215 339.462 319.075 340.225 317.819 340.745C316.564 341.265 315.218 341.533 313.859 341.533C312.501 341.533 311.155 341.265 309.899 340.745C308.644 340.225 307.504 339.462 306.543 338.501L276.273 308.235C274.333 306.293 273.244 303.661 273.244 300.916C273.244 298.172 274.333 295.539 276.273 293.598L335.566 234.301C336.527 233.339 337.668 232.577 338.924 232.057C340.179 231.536 341.525 231.269 342.884 231.269C344.244 231.269 345.59 231.536 346.845 232.057C348.101 232.577 349.242 233.339 350.203 234.301L380.469 264.567C382.41 266.507 383.5 269.139 383.5 271.884C383.5 274.628 382.41 277.26 380.469 279.201Z" fill="#89D47F"/>
<path d="M323.223 246.646L276.274 293.595C275.313 294.556 274.55 295.697 274.03 296.953C273.51 298.208 273.242 299.554 273.242 300.913C273.242 302.273 273.51 303.619 274.03 304.874C274.55 306.13 275.313 307.271 276.274 308.232L306.539 338.501C307.5 339.462 308.641 340.225 309.897 340.745C311.152 341.265 312.498 341.533 313.858 341.533C315.217 341.533 316.563 341.265 317.818 340.745C319.074 340.225 320.215 339.462 321.176 338.501L344.25 315.427C331.617 303.794 322.277 269.161 323.223 246.646Z" fill="#5EC783"/>
<path d="M125.07 102.524C129.049 101.203 133.263 100.739 137.435 101.164C141.606 101.589 145.64 102.893 149.271 104.989C152.903 107.086 156.049 109.927 158.502 113.327C160.956 116.727 162.662 120.608 163.508 124.715C163.96 126.914 165.111 128.908 166.789 130.399C169.922 133.185 172.43 136.602 174.148 140.427C175.865 144.252 176.753 148.398 176.753 152.59C176.753 156.783 175.865 160.928 174.148 164.753C172.43 168.578 169.922 171.996 166.789 174.782C165.111 176.272 163.96 178.264 163.508 180.462C162.663 184.569 160.957 188.45 158.504 191.851C156.05 195.251 152.904 198.093 149.273 200.19C145.641 202.286 141.607 203.589 137.435 204.014C133.264 204.439 129.049 203.975 125.07 202.653C122.941 201.945 120.64 201.945 118.511 202.653C114.532 203.974 110.318 204.438 106.146 204.013C101.975 203.588 97.9408 202.285 94.3096 200.188C90.6784 198.092 87.5324 195.25 85.0787 191.85C82.6251 188.45 80.9194 184.569 80.074 180.462C79.6217 178.264 78.4708 176.272 76.793 174.782C73.6596 171.996 71.1517 168.578 69.4343 164.753C67.7169 160.928 66.829 156.783 66.829 152.59C66.829 148.398 67.7169 144.252 69.4343 140.427C71.1517 136.602 73.6596 133.185 76.793 130.399C78.4712 128.908 79.6221 126.914 80.074 124.715C80.9198 120.608 82.6258 116.727 85.0796 113.327C87.5334 109.927 90.6795 107.086 94.3107 104.989C97.942 102.893 101.976 101.589 106.147 101.164C110.319 100.739 114.533 101.203 118.512 102.524C120.641 103.231 122.941 103.231 125.07 102.524Z" fill="#EDA1AB"/>
<path d="M120.051 181.056C112.422 181.047 105.108 178.012 99.7139 172.617C94.3197 167.222 91.2859 159.908 91.278 152.279C91.2854 145.778 93.8711 139.546 98.4679 134.949C103.065 130.352 109.297 127.766 115.798 127.759C119.029 127.748 122.219 128.483 125.12 129.908C128.02 131.333 130.551 133.409 132.517 135.974C133.707 137.55 134.227 139.532 133.965 141.489C133.702 143.447 132.678 145.221 131.115 146.429C129.552 147.636 127.576 148.178 125.616 147.937C123.656 147.696 121.87 146.692 120.646 145.142C120.076 144.398 119.342 143.796 118.501 143.383C117.66 142.97 116.735 142.756 115.798 142.759C113.274 142.761 110.854 143.765 109.069 145.55C107.284 147.335 106.28 149.755 106.278 152.279C106.282 155.931 107.734 159.432 110.316 162.015C112.898 164.598 116.399 166.051 120.051 166.056C125.115 166.051 129.971 164.037 133.551 160.456C137.132 156.875 139.146 152.02 139.151 146.956C139.151 144.967 139.941 143.059 141.348 141.653C142.754 140.246 144.662 139.456 146.651 139.456C148.64 139.456 150.548 140.246 151.954 141.653C153.361 143.059 154.151 144.967 154.151 146.956C154.141 155.997 150.545 164.665 144.152 171.057C137.76 177.45 129.092 181.046 120.051 181.056Z" fill="#E3748E"/>
<path d="M457.875 305.833H50.98C49.4067 305.833 47.8488 306.143 46.3952 306.745C44.9417 307.347 43.621 308.23 42.5085 309.342C41.396 310.455 40.5136 311.775 39.9116 313.229C39.3096 314.683 38.9999 316.241 39 317.814C39.0034 340.054 42.0339 362.191 48.008 383.614C96.485 381.645 100.824 369.014 144.578 369.014C192.031 369.014 193.125 383.873 254.426 383.873C315.727 383.873 316.826 369.014 364.278 369.014C408.032 369.014 412.372 381.647 460.844 383.614C466.822 362.191 469.853 340.055 469.856 317.814C469.856 316.24 469.546 314.682 468.944 313.229C468.342 311.775 467.46 310.454 466.347 309.342C465.235 308.229 463.914 307.347 462.46 306.745C461.006 306.143 459.448 305.833 457.875 305.833Z" fill="#8EAFE2"/>
<path d="M208.863 242.88L200.445 234.462C198.232 232.249 196.959 229.266 196.895 226.137C196.83 223.008 197.977 219.975 200.097 217.673L396.941 3.91488C398.048 2.71128 399.387 1.74402 400.877 1.07131C402.368 0.398592 403.979 0.0343217 405.614 0.00041036C407.248 -0.033501 408.873 0.263648 410.39 0.873979C411.907 1.48431 413.285 2.39521 414.441 3.55188L439.777 28.8879C440.933 30.0439 441.844 31.4219 442.454 32.9389C443.064 34.4559 443.361 36.0806 443.327 37.7153C443.293 39.35 442.929 40.961 442.257 42.4514C441.584 43.9418 440.617 45.2808 439.414 46.3879L225.652 243.228C223.349 245.347 220.316 246.494 217.188 246.429C214.059 246.364 211.076 245.092 208.863 242.88Z" fill="#D2996F"/>
<path d="M250.1 182.567C257.87 182.567 265.319 181.403 272.334 177.801C284.35 171.637 293.26 159.012 296.17 144.024C297.994 134.404 297.429 124.484 294.525 115.133L282 128.728C282.411 132.879 282.223 137.068 281.441 141.166C279.398 151.666 273.433 160.377 265.48 164.459C259.98 167.283 253.64 167.865 246.316 167.479L233.574 181.321C239.052 182.069 244.571 182.485 250.1 182.567Z" fill="#C47B46"/>
<path d="M372.2 60.509C351.145 77.209 346.493 110.579 346.481 131.966L362.344 117.353C364.074 101.053 369.067 82.138 381.524 72.259C390.212 65.364 402.016 63.724 416.696 67.306L429.544 55.474C405.965 47.329 386.688 49.013 372.2 60.509Z" fill="#C47B46"/>
<path d="M50.98 305.833C49.4067 305.833 47.8488 306.143 46.3952 306.745C44.9417 307.347 43.621 308.23 42.5085 309.342C41.396 310.455 40.5136 311.775 39.9116 313.229C39.3096 314.683 38.9999 316.241 39 317.814C39.0034 340.054 42.0339 362.191 48.008 383.614C96.485 381.645 100.821 369.014 144.578 369.014C169.808 369.014 181.933 373.214 196.969 377.147C194.078 350.495 194.516 325.12 199.285 305.847H50.98V305.833Z" fill="#6A96D7"/>
</svg>
