<svg width="512" height="512" viewBox="0 0 512 512" fill="none" xmlns="http://www.w3.org/2000/svg">
<path d="M10.3097 501.692C7.04115 498.424 4.44838 494.545 2.67943 490.275C0.910476 486.005 0 481.429 0 476.807C0 472.185 0.910476 467.609 2.67943 463.339C4.44838 459.069 7.04115 455.19 10.3097 451.922L451.919 10.3101C458.557 3.89559 467.449 0.345497 476.68 0.424635C485.911 0.503774 494.741 4.20581 501.269 10.7332C507.796 17.2606 511.498 26.0908 511.577 35.3216C511.656 44.5523 508.106 53.4448 501.692 60.0831L60.0827 501.692C56.8147 504.961 52.9349 507.553 48.6649 509.322C44.3948 511.091 39.8181 512.002 35.1962 512.002C30.5742 512.002 25.9975 511.091 21.7275 509.322C17.4574 507.553 13.5776 504.961 10.3097 501.692Z" fill="#FFE4D3"/>
<path d="M268.388 320.931C268.388 336.223 263.853 351.171 255.358 363.885C246.862 376.6 234.787 386.51 220.659 392.362C206.532 398.214 190.986 399.745 175.988 396.761C160.99 393.778 147.214 386.415 136.401 375.602C125.588 364.789 118.225 351.012 115.241 336.015C112.258 321.017 113.789 305.471 119.641 291.343C125.493 277.216 135.403 265.141 148.117 256.645C160.832 248.15 175.78 243.615 191.072 243.615C211.577 243.615 231.243 251.761 245.742 266.26C260.242 280.76 268.388 300.426 268.388 320.931Z" fill="#FB695B"/>
<path d="M246.161 375.181C253.807 367.401 259.721 358.091 263.513 347.863C267.305 337.635 268.89 326.721 268.164 315.836C267.437 304.952 264.416 294.345 259.298 284.711C254.18 275.078 247.082 266.637 238.469 259.942C229.857 253.247 219.925 248.451 209.327 245.868C198.728 243.285 187.704 242.974 176.977 244.955C166.25 246.936 156.063 251.165 147.087 257.364C138.111 263.562 130.547 271.59 124.895 280.919C142.125 280.341 160.86 279.837 187.633 298.868C224.821 325.301 240.017 356.134 246.161 375.181Z" fill="#F54432"/>
<path d="M266.845 332.419C261.572 285.692 226.458 248.845 179.587 245.157C173.023 244.721 166.611 242.987 160.723 240.054C154.835 237.122 149.588 233.05 145.285 228.074C140.982 223.098 137.71 217.318 135.659 211.068C133.607 204.818 132.816 198.224 133.332 191.666C133.849 185.108 135.662 178.718 138.666 172.866C141.67 167.015 145.806 161.818 150.835 157.576C155.863 153.335 161.683 150.134 167.957 148.159C174.232 146.184 180.836 145.474 187.387 146.071C233.531 149.703 276.865 169.68 309.595 202.41C342.325 235.14 362.303 278.474 365.935 324.618C366.967 337.757 362.739 350.769 354.179 360.791C345.619 370.813 333.429 377.024 320.29 378.059C305.201 379.247 271.001 369.181 266.845 332.419Z" fill="#FFAA75"/>
<path d="M309.595 202.411C276.857 169.693 233.528 149.717 187.388 146.071C180.837 145.474 174.233 146.184 167.958 148.159C161.684 150.134 155.864 153.335 150.836 157.576C145.808 161.818 141.672 167.015 138.667 172.866C135.663 178.718 133.85 185.108 133.334 191.666C132.817 198.224 133.608 204.818 135.66 211.068C137.712 217.318 140.984 223.098 145.286 228.074C149.589 233.05 154.836 237.122 160.724 240.054C166.613 242.987 173.024 244.721 179.588 245.157C191.737 246.082 203.588 249.377 214.471 254.857C219.115 249.386 225.561 245.755 232.646 244.616C239.732 243.477 246.991 244.906 253.116 248.646C290.229 271.052 319.139 254.705 319.139 254.705L336.987 236.857C329.19 224.375 320 212.819 309.595 202.411Z" fill="#FF8C42"/>
<path d="M253.567 115.755C246.028 133.376 240.098 157.724 243.598 187.876C245.085 200.634 250.031 212.742 257.902 222.891C265.772 233.041 276.268 240.846 288.254 245.462C314.867 255.681 353.692 264.442 395.184 255.333C418.555 250.2 432.629 226.212 426.348 203.122C415.239 162.301 385.892 101.833 308.901 86.5562C297.729 84.3674 286.145 86.0712 276.077 91.3839C266.009 96.6967 258.065 105.298 253.567 115.755Z" fill="#E7896E"/>
<path d="M344.301 187.774C381.856 215.501 425.564 228.001 425.564 228.001C428.312 219.975 428.585 211.309 426.349 203.126C415.239 162.301 385.896 101.833 308.901 86.556C297.729 84.3667 286.144 86.0704 276.076 91.3834C266.007 96.6964 258.063 105.298 253.565 115.756C246.026 133.377 240.096 157.725 243.596 187.877C245.082 200.618 250.017 212.711 257.871 222.853C265.725 232.995 276.198 240.801 288.162 245.428C289.039 232.687 290.74 220.015 293.256 207.494C294.322 202.14 296.723 197.143 300.237 192.965C303.751 188.788 308.264 185.566 313.356 183.598C318.448 181.631 323.955 180.982 329.364 181.712C334.774 182.442 339.912 184.527 344.301 187.774Z" fill="#DD6642"/>
<path d="M418.95 181.739L330.263 93.0522C321.039 83.8282 315.857 71.3178 315.856 58.273C315.856 45.2283 321.038 32.7178 330.262 23.4937C339.486 14.2696 351.997 9.0875 365.041 9.0874C378.086 9.08731 390.597 14.2692 399.821 23.4932L488.509 112.181C497.733 121.405 502.915 133.916 502.915 146.961C502.915 160.006 497.733 172.516 488.509 181.74C479.285 190.964 466.774 196.146 453.729 196.146C440.684 196.146 428.174 190.964 418.95 181.74V181.739Z" fill="#73DA8C"/>
<path d="M374.329 67.5601C383.554 58.3363 396.065 53.1545 409.11 53.1545C422.155 53.1545 434.666 58.3363 443.892 67.5601L399.825 23.4931C390.6 14.269 378.09 9.08691 365.045 9.08691C352 9.08691 339.49 14.269 330.266 23.4931C321.041 32.7172 315.859 45.2277 315.859 58.2726C315.859 71.3174 321.041 83.828 330.266 93.0521L374.332 137.118C369.764 132.551 366.141 127.129 363.669 121.162C361.197 115.195 359.924 108.799 359.924 102.34C359.923 95.8806 361.195 89.4847 363.667 83.5172C366.139 77.5497 369.761 72.1274 374.329 67.5601Z" fill="#29CE69"/>
</svg>
