<svg width="512" height="512" viewBox="0 0 512 512" fill="none" xmlns="http://www.w3.org/2000/svg">
<path d="M409.872 315.652L399.692 325.836C397.014 328.513 393.406 330.051 389.62 330.129C385.835 330.207 382.166 328.818 379.38 326.254L120.794 88.1331C119.34 86.7936 118.171 85.1739 117.359 83.3713C116.546 81.5687 116.106 79.6205 116.066 77.6436C116.025 75.6668 116.385 73.7021 117.123 71.8677C117.861 70.0333 118.962 68.3671 120.36 66.9691L151.001 36.3201C152.4 34.9215 154.066 33.8202 155.901 33.0822C157.736 32.3443 159.701 31.9849 161.679 32.0258C163.656 32.0668 165.605 32.5071 167.407 33.3203C169.21 34.1335 170.83 35.3029 172.169 36.7581L410.29 295.34C412.856 298.125 414.246 301.794 414.168 305.58C414.09 309.366 412.551 312.975 409.872 315.652Z" fill="#D2996F"/>
<path d="M189.801 55.9001L172.173 36.7581C170.834 35.3027 169.214 34.1331 167.411 33.3198C165.607 32.5064 163.658 32.066 161.681 32.0251C159.703 31.9842 157.738 32.3436 155.902 33.0817C154.067 33.8198 152.4 34.9213 151.001 36.3201L120.36 66.9691C118.962 68.3674 117.861 70.034 117.123 71.8687C116.384 73.7035 116.025 75.6684 116.065 77.6456C116.106 79.6228 116.546 81.5714 117.358 83.3743C118.171 85.1772 119.34 86.7973 120.794 88.1371L196.204 157.578C187.595 126.969 185.423 87.2001 189.801 55.9001Z" fill="#C47B46"/>
<path d="M213.06 124.066C194.353 112.636 166.415 111.449 149.775 114.82L164.357 128.25C177.657 127.813 194.267 130.164 205.24 136.867C215.385 143.067 221.588 150.637 223.674 159.375C225.213 165.82 224.569 173.105 221.791 181.137L233.619 192.032C239.319 178.962 240.881 166.848 238.264 155.891C235.216 143.129 226.735 132.422 213.06 124.066Z" fill="#C47B46"/>
<path d="M359.009 239.648C335.173 237.461 317.177 230.406 305.349 218.566C289.708 202.914 286.189 180.613 285.771 160.117L270.927 144C270.127 169.637 270.627 205.043 294.736 229.172C311.736 246.184 338.193 254.972 373.486 255.372L359.009 239.648Z" fill="#C47B46"/>
<path d="M245.407 512C226.961 512.049 208.687 508.459 191.631 501.434C174.575 494.409 159.072 484.088 146.011 471.062C132.951 458.036 122.588 442.561 115.518 425.524C108.447 408.487 104.808 390.222 104.808 371.776C104.808 353.329 108.447 335.065 115.518 318.027C122.588 300.99 132.951 285.515 146.011 272.489C159.072 259.463 174.575 249.142 191.631 242.117C208.687 235.092 226.961 231.502 245.407 231.551H326.301V512H245.407Z" fill="#4E5660"/>
<path d="M466.528 371.773C466.529 399.508 458.306 426.619 442.898 449.68C427.49 472.741 405.59 490.715 379.967 501.329C354.344 511.944 326.149 514.721 298.947 509.311C271.746 503.901 246.759 490.546 227.148 470.935C207.536 451.324 194.18 426.338 188.769 399.137C183.358 371.935 186.135 343.74 196.748 318.117C207.361 292.493 225.334 270.592 248.395 255.184C271.455 239.775 298.567 231.551 326.301 231.551C363.491 231.551 399.158 246.324 425.455 272.621C451.753 298.917 466.527 334.583 466.528 371.773Z" fill="#FCF2D0"/>
<path d="M396.001 493.477C274.61 461.012 254.962 315.957 289.567 236.422C270.345 241.645 252.455 250.903 237.09 263.58C221.725 276.257 209.236 292.062 200.456 309.942C191.676 327.823 186.806 347.368 186.17 367.278C185.533 387.187 189.146 407.004 196.766 425.408C204.386 443.813 215.84 460.383 230.364 474.015C244.889 487.647 262.151 498.029 281 504.469C299.85 510.909 319.856 513.26 339.685 511.364C359.515 509.469 378.713 503.371 396.001 493.477Z" fill="#F2D98D"/>
<path d="M399.29 371.773C399.29 386.209 395.01 400.32 386.99 412.323C378.97 424.326 367.571 433.681 354.234 439.205C340.897 444.729 326.222 446.175 312.063 443.359C297.905 440.542 284.9 433.591 274.692 423.384C264.485 413.176 257.533 400.171 254.717 386.013C251.901 371.855 253.346 357.179 258.87 343.842C264.394 330.506 273.749 319.106 285.752 311.086C297.754 303.066 311.866 298.785 326.301 298.785C345.659 298.785 364.224 306.475 377.912 320.163C391.6 333.851 399.29 352.415 399.29 371.773Z" fill="#EFD176"/>
<path d="M300.146 303.633C342.474 354.754 334.396 403.324 311.693 443.301C296.223 440.138 282.195 432.044 271.715 420.233C261.234 408.423 254.866 393.532 253.565 377.795C252.264 362.059 256.1 346.325 264.499 332.953C272.898 319.582 285.406 309.294 300.146 303.633Z" fill="#89D47F"/>
<path d="M274.353 320.543C265.12 329.897 258.585 341.57 255.438 354.331C252.291 367.091 252.649 380.465 256.473 393.039C260.298 405.613 267.448 416.92 277.167 425.767C286.887 434.614 298.815 440.672 311.692 443.3C312.38 442.093 313.052 440.878 313.708 439.655C287.255 405.824 275.189 362.176 274.353 320.543Z" fill="#5EC783"/>
<path d="M287.728 433.73C302.287 369.96 364.755 358.46 399.013 365.601C399.185 367.636 399.29 369.691 399.29 371.773C399.293 384.792 395.813 397.574 389.211 408.795C382.609 420.015 373.126 429.266 361.744 435.586C350.363 441.907 337.498 445.068 324.483 444.742C311.469 444.415 298.778 440.613 287.728 433.73Z" fill="#E3748E"/>
<path d="M295.801 411.2C292.183 418.346 289.47 425.917 287.727 433.735C296.74 439.363 306.879 442.943 317.427 444.223C308.94 434.108 301.681 423.023 295.801 411.2Z" fill="#DE5C6E"/>
<path d="M396.446 386.363C384.286 385.601 365.962 386.718 347.68 396.328C329.723 405.766 316.58 420.879 308.614 441.25C308.458 441.658 308.337 442.079 308.251 442.508C313.209 443.772 318.287 444.51 323.399 444.708C340.504 403.95 378.368 400.808 393.087 401.231C395.172 396.529 396.747 391.617 397.787 386.579C397.348 386.467 396.899 386.394 396.446 386.363Z" fill="#DE5C6E"/>
<path d="M224.392 337.535C222.404 337.533 220.497 336.742 219.092 335.335L215.447 331.687C214.04 330.281 213.25 328.373 213.25 326.384C213.249 324.395 214.039 322.487 215.445 321.08C216.852 319.673 218.759 318.883 220.748 318.882C222.738 318.882 224.645 319.672 226.052 321.078L229.7 324.726C230.748 325.775 231.461 327.111 231.75 328.565C232.039 330.019 231.89 331.526 231.323 332.895C230.756 334.265 229.796 335.436 228.564 336.26C227.331 337.084 225.883 337.525 224.4 337.526L224.392 337.535Z" fill="#FCF2D0"/>
<path d="M215.743 404.25C214.261 404.249 212.812 403.808 211.58 402.984C210.348 402.16 209.388 400.989 208.82 399.619C208.253 398.25 208.105 396.743 208.394 395.289C208.682 393.835 209.396 392.499 210.443 391.45L214.22 387.669C215.627 386.262 217.534 385.472 219.523 385.471C221.513 385.471 223.42 386.261 224.827 387.667C226.234 389.073 227.025 390.981 227.025 392.97C227.025 394.959 226.236 396.867 224.829 398.274L221.052 402.055C220.356 402.753 219.528 403.306 218.617 403.682C217.706 404.059 216.729 404.252 215.743 404.25Z" fill="#FCF2D0"/>
<path d="M272.864 471.227C271.382 471.226 269.933 470.785 268.701 469.961C267.469 469.137 266.509 467.966 265.942 466.596C265.374 465.227 265.226 463.72 265.515 462.266C265.804 460.812 266.517 459.476 267.564 458.427L272.252 453.736C273.659 452.329 275.566 451.539 277.555 451.538C279.545 451.538 281.453 452.328 282.859 453.734C284.266 455.14 285.057 457.048 285.057 459.037C285.058 461.026 284.268 462.934 282.861 464.341L278.17 469.032C277.474 469.729 276.647 470.282 275.736 470.658C274.826 471.035 273.85 471.228 272.864 471.227Z" fill="#FCF2D0"/>
<path d="M401.101 468.883H397.481C395.492 468.883 393.585 468.093 392.178 466.686C390.771 465.28 389.981 463.372 389.981 461.383C389.981 459.394 390.771 457.486 392.178 456.08C393.585 454.673 395.492 453.883 397.481 453.883H401.101C403.09 453.883 404.998 454.673 406.405 456.08C407.811 457.486 408.601 459.394 408.601 461.383C408.601 463.372 407.811 465.28 406.405 466.686C404.998 468.093 403.09 468.883 401.101 468.883Z" fill="#F2D98D"/>
<path d="M429.751 377.148C428.269 377.147 426.82 376.706 425.588 375.882C424.356 375.058 423.396 373.887 422.828 372.517C422.261 371.148 422.113 369.641 422.402 368.187C422.691 366.733 423.404 365.397 424.451 364.348L429.232 359.571C430.647 358.205 432.541 357.449 434.508 357.466C436.474 357.483 438.355 358.272 439.746 359.662C441.137 361.053 441.925 362.934 441.942 364.901C441.959 366.867 441.204 368.762 439.837 370.176L435.06 374.953C434.364 375.651 433.536 376.204 432.625 376.58C431.714 376.957 430.737 377.15 429.751 377.148Z" fill="#F2D98D"/>
<path d="M396.751 303.148C395.269 303.147 393.82 302.706 392.588 301.882C391.356 301.058 390.396 299.887 389.828 298.517C389.261 297.148 389.113 295.641 389.402 294.187C389.691 292.733 390.404 291.397 391.451 290.348L396.232 285.571C397.647 284.205 399.541 283.449 401.508 283.466C403.474 283.483 405.355 284.272 406.746 285.662C408.137 287.053 408.925 288.934 408.942 290.901C408.959 292.867 408.204 294.762 406.837 296.176L402.06 300.953C401.364 301.651 400.536 302.204 399.625 302.58C398.714 302.957 397.737 303.15 396.751 303.148Z" fill="#F2D98D"/>
<path d="M341.744 274.752C340.732 275.835 339.422 276.594 337.979 276.933C336.535 277.272 335.024 277.176 333.636 276.656C332.247 276.137 331.044 275.218 330.178 274.015C329.311 272.812 328.821 271.38 328.768 269.898L328.535 263.144C328.5 261.177 329.24 259.276 330.593 257.85C331.947 256.423 333.807 255.585 335.772 255.517C337.737 255.448 339.651 256.154 341.101 257.483C342.551 258.811 343.421 260.656 343.524 262.62L343.759 269.372C343.794 270.357 343.634 271.34 343.288 272.263C342.942 273.186 342.418 274.032 341.744 274.752Z" fill="#F2D98D"/>
<path d="M121.544 380.566H107.144C103.358 380.566 99.718 379.103 96.9859 376.481C94.2539 373.86 92.6412 370.283 92.4853 366.5L78.0133 15.273C77.9322 13.2972 78.2513 11.3255 78.9515 9.47618C79.6517 7.62687 80.7185 5.9382 82.0878 4.51162C83.4571 3.08503 85.1007 1.94999 86.9198 1.17469C88.7389 0.399382 90.6959 -0.000182737 92.6733 6.26941e-08H136.017C137.994 0.000215944 139.951 0.400083 141.77 1.17558C143.589 1.95108 145.232 3.0862 146.601 4.51275C147.97 5.93931 149.036 7.62785 149.736 9.47695C150.436 11.3261 150.755 13.2975 150.673 15.273L136.201 366.5C136.045 370.283 134.433 373.859 131.701 376.48C128.97 379.102 125.33 380.566 121.544 380.566Z" fill="#D2996F"/>
<path d="M89.3604 290.641L90.0874 308.321C98.6933 303.288 106.069 296.4 111.677 288.157C122.189 272.641 125.572 253.598 121.732 231.557C118.197 211.257 107.755 186.975 97.6584 163.491C92.3224 151.091 86.9204 138.511 82.6034 126.675L84.4164 170.675C94.0024 192.975 103.783 215.917 106.955 234.136C112.243 264.5 100.532 281.555 89.3604 290.641Z" fill="#C47B46"/>
<path d="M145.201 148.023C135.271 123.984 129.036 94.0079 127.61 78.3479C124.575 44.9479 137.301 24.8319 150.653 15.7619L150.673 15.2739C150.778 12.6958 150.2 10.1357 148.998 7.85282C147.795 5.56994 146.011 3.64534 143.825 2.27393C136.359 7.04121 129.997 13.3486 125.165 20.7739C114.901 36.3319 110.579 56.7109 112.673 79.7069C116.489 121.637 131.716 158.68 143.989 177.461L145.201 148.023Z" fill="#C47B46"/>
</svg>
