<svg width="512" height="512" viewBox="0 0 512 512" fill="none" xmlns="http://www.w3.org/2000/svg">
<path d="M133.348 354.219V322.489C133.348 275.189 152.138 229.827 185.584 196.381C219.03 162.935 264.392 144.145 311.692 144.145C358.992 144.145 404.354 162.935 437.8 196.381C471.246 229.827 490.036 275.189 490.036 322.489V364.438C490.037 372.194 488.511 379.873 485.543 387.039C482.576 394.205 478.227 400.715 472.743 406.2C467.26 411.684 460.749 416.035 453.584 419.003C446.419 421.972 438.74 423.5 430.984 423.5H64.0781C82.451 423.498 100.071 416.198 113.061 403.205C126.052 390.213 133.349 372.592 133.348 354.219Z" fill="#FF8C42"/>
<path d="M96.645 201.074C96.6446 210.631 93.8103 219.973 88.5005 227.919C83.1907 235.866 75.6439 242.059 66.8143 245.716C57.9848 249.373 48.2691 250.33 38.8957 248.465C29.5224 246.601 20.9124 241.999 14.1545 235.241C7.39667 228.483 2.7944 219.874 0.929711 210.5C-0.93498 201.127 0.0216455 191.411 3.67862 182.582C7.3356 173.752 13.5287 166.205 21.4748 160.895C29.4208 155.585 38.763 152.751 48.32 152.75C54.6662 152.75 60.9502 153.999 66.8134 156.428C72.6766 158.856 78.004 162.415 82.4915 166.903C86.9789 171.39 90.5385 176.718 92.967 182.581C95.3955 188.444 96.6453 194.728 96.645 201.074Z" fill="#F54432"/>
<path d="M344.02 98.32C344.02 107.877 341.186 117.219 335.877 125.165C330.567 133.111 323.02 139.305 314.191 142.962C305.362 146.619 295.646 147.576 286.273 145.712C276.9 143.847 268.29 139.245 261.532 132.487C254.775 125.73 250.173 117.12 248.308 107.747C246.444 98.3736 247.401 88.6581 251.058 79.8287C254.715 70.9994 260.909 63.4529 268.855 58.1434C276.801 52.8339 286.143 50 295.7 50C308.515 50.0005 320.805 55.0915 329.867 64.1532C338.928 73.2148 344.019 85.5049 344.02 98.32Z" fill="#F54432"/>
<path d="M512 307.531C512 317.088 509.167 326.431 503.857 334.378C498.548 342.325 491.001 348.519 482.171 352.176C473.341 355.834 463.625 356.791 454.251 354.927C444.878 353.062 436.267 348.46 429.509 341.702C422.751 334.944 418.149 326.333 416.284 316.96C414.42 307.586 415.377 297.87 419.035 289.04C422.692 280.21 428.886 272.663 436.833 267.354C444.78 262.044 454.123 259.211 463.68 259.211C470.025 259.211 476.309 260.461 482.171 262.889C488.034 265.317 493.361 268.876 497.848 273.363C502.335 277.85 505.894 283.177 508.322 289.04C510.75 294.902 512 301.185 512 307.531Z" fill="#DB2A17"/>
<path d="M462.57 209.043C459.22 206.817 456.614 203.637 455.089 199.916C453.563 196.194 453.188 192.101 454.011 188.164C455.502 180.761 455.241 173.111 453.247 165.827C451.252 158.543 447.581 151.827 442.526 146.216C437.471 140.604 431.173 136.254 424.136 133.513C417.099 130.772 409.518 129.716 402 130.43C398.031 130.756 394.057 129.851 390.621 127.837C387.185 125.823 384.454 122.799 382.8 119.176C378.096 109.241 370.15 101.202 360.27 96.3841C350.39 91.5657 339.164 90.2541 328.439 92.6652C317.714 95.0762 308.13 101.066 301.262 109.65C294.395 118.233 290.654 128.898 290.655 139.891C290.655 166.621 409.124 297.791 435.855 297.791C446.256 297.792 456.38 294.443 464.728 288.239C473.076 282.035 479.204 273.306 482.202 263.347C485.2 253.388 484.91 242.727 481.375 232.946C477.839 223.164 471.247 214.782 462.574 209.041L462.57 209.043Z" fill="#E7896E"/>
<path d="M416.254 248.844C406.227 243.696 400.531 232.571 403.117 221.598C405.723 210.553 405.65 199.045 402.905 188.035C400.159 177.024 394.821 166.829 387.335 158.3C379.849 149.772 370.432 143.157 359.87 139.007C349.308 134.858 337.906 133.294 326.617 134.446C321.05 135.026 315.449 133.714 310.718 130.722C305.987 127.73 302.402 123.233 300.539 117.954C296.605 106.895 289.999 96.9803 281.307 89.092C272.615 81.2037 262.108 75.5866 250.72 72.7406C239.333 69.8946 227.419 69.908 216.038 72.7797C204.657 75.6513 194.162 81.2921 185.488 89.1999C181.283 93.0433 175.863 95.2917 170.172 95.5544C164.481 95.8171 158.878 94.0775 154.336 90.6379C145.359 83.7502 134.87 79.1011 123.738 77.0758C112.606 75.0505 101.152 75.7074 90.3246 78.9921C79.4972 82.2767 69.6085 88.0945 61.478 95.9633C53.3475 103.832 47.2095 113.525 43.5725 124.24C39.9355 134.954 38.9044 146.381 40.5645 157.573C42.2247 168.765 46.5283 179.4 53.1188 188.598C59.7092 197.795 68.3967 205.289 78.4612 210.459C88.5257 215.629 99.6774 218.326 110.992 218.326C138.183 218.326 344.437 383.42 383.762 383.42C399.74 383.418 415.253 378.042 427.807 368.157C440.36 358.272 449.225 344.453 452.975 328.921C456.725 313.39 455.142 297.048 448.482 282.524C441.822 268 430.471 256.139 416.254 248.846V248.844Z" fill="#73DA8C"/>
<path d="M356.9 354.219V322.489C356.788 275.263 337.949 230.009 304.515 196.654C271.081 163.299 225.783 144.567 178.556 144.567C131.33 144.567 86.0313 163.299 52.5975 196.654C19.1638 230.009 0.324721 275.263 0.212891 322.489V364.438C0.211972 372.194 1.73873 379.874 4.70598 387.039C7.67324 394.205 12.0229 400.716 17.5065 406.2C22.9902 411.685 29.5004 416.035 36.6655 419.004C43.8306 421.972 51.5103 423.5 59.2659 423.5H426.172C407.799 423.498 390.179 416.198 377.188 403.206C364.197 390.213 356.899 372.592 356.9 354.219Z" fill="#FFC7A4"/>
<path d="M67.8479 338.895C37.7229 249.063 95.4769 164.633 95.4769 164.633C66.7247 179.771 42.6541 202.476 25.8646 230.296C9.07505 258.116 0.204538 289.994 0.210941 322.488V364.437C0.210547 372.192 1.73778 379.872 4.70543 387.037C7.67308 394.202 12.023 400.712 17.5069 406.196C22.9907 411.68 29.501 416.03 36.6661 418.998C43.8312 421.965 51.5106 423.492 59.2659 423.492H155.145C123.293 398.594 88.5819 400.73 67.8479 338.895Z" fill="#FFAA75"/>
<path d="M193.387 201.074C193.387 204.654 192.325 208.153 190.337 211.13C188.348 214.106 185.521 216.426 182.214 217.796C178.906 219.166 175.267 219.525 171.756 218.826C168.245 218.128 165.02 216.404 162.488 213.873C159.957 211.341 158.233 208.116 157.535 204.605C156.836 201.094 157.195 197.455 158.565 194.148C159.935 190.84 162.255 188.013 165.231 186.025C168.208 184.036 171.707 182.974 175.287 182.974C180.087 182.974 184.691 184.881 188.086 188.275C191.48 191.67 193.387 196.274 193.387 201.074Z" fill="#FFAA75"/>
<path d="M139.387 249.395C139.387 252.975 138.325 256.474 136.337 259.451C134.348 262.428 131.521 264.747 128.214 266.117C124.906 267.487 121.267 267.846 117.756 267.147C114.245 266.449 111.02 264.725 108.488 262.194C105.957 259.662 104.233 256.437 103.535 252.926C102.836 249.415 103.195 245.776 104.565 242.469C105.935 239.161 108.255 236.334 111.231 234.346C114.208 232.357 117.707 231.295 121.287 231.295C126.087 231.295 130.691 233.202 134.086 236.597C137.48 239.991 139.387 244.595 139.387 249.395Z" fill="#FFAA75"/>
<path d="M231.289 253.008C231.289 256.588 230.227 260.087 228.238 263.064C226.25 266.041 223.423 268.36 220.115 269.73C216.808 271.1 213.169 271.459 209.658 270.76C206.147 270.062 202.922 268.338 200.39 265.807C197.859 263.275 196.135 260.05 195.437 256.539C194.738 253.028 195.097 249.389 196.467 246.082C197.837 242.774 200.157 239.947 203.133 237.959C206.11 235.97 209.609 234.908 213.189 234.908C217.989 234.908 222.593 236.815 225.988 240.21C229.382 243.604 231.289 248.208 231.289 253.008Z" fill="#FFAA75"/>
</svg>
