<svg width="512" height="512" viewBox="0 0 512 512" fill="none" xmlns="http://www.w3.org/2000/svg">
<path d="M256.001 483.562C386.285 483.562 491.901 380.238 491.901 252.781C491.901 125.324 386.285 22 256.001 22C125.717 22 20.101 125.324 20.101 252.781C20.101 380.238 125.717 483.562 256.001 483.562Z" fill="#A2DDFD"/>
<path d="M414.375 423.822C86.8549 443.822 58.3939 190.322 191.716 30.6709C92.6719 58.0499 20.101 147.123 20.101 252.781C20.101 380.238 125.717 483.562 256.001 483.562C314.33 483.73 370.689 462.471 414.375 423.822Z" fill="#7ACDF9"/>
<path d="M123.229 264.956C150.285 264.956 172.219 247.489 172.219 225.943C172.219 204.397 150.285 186.93 123.229 186.93C96.1726 186.93 74.239 204.397 74.239 225.943C74.239 247.489 96.1726 264.956 123.229 264.956Z" fill="#6A95D6"/>
<path d="M388.773 264.956C415.829 264.956 437.763 247.489 437.763 225.943C437.763 204.397 415.829 186.93 388.773 186.93C361.717 186.93 339.783 204.397 339.783 225.943C339.783 247.489 361.717 264.956 388.773 264.956Z" fill="#6A95D6"/>
<path d="M300.225 217.38C300.227 212.365 298.932 207.434 296.465 203.068C293.998 198.701 290.444 195.047 286.147 192.46C277.039 187.001 266.62 184.118 256.001 184.118C245.382 184.118 234.963 187.001 225.855 192.46C221.558 195.047 218.004 198.701 215.537 203.068C213.07 207.434 211.775 212.365 211.777 217.38V358.107C211.777 369.836 216.436 381.084 224.73 389.378C233.024 397.672 244.272 402.331 256.001 402.331C267.73 402.331 278.979 397.672 287.272 389.378C295.566 381.084 300.225 369.836 300.225 358.107V217.38Z" fill="#4E5660"/>
<path d="M151.43 205.813C177.363 205.813 198.385 184.791 198.385 158.858C198.385 132.926 177.363 111.903 151.43 111.903C125.498 111.903 104.475 132.926 104.475 158.858C104.475 184.791 125.498 205.813 151.43 205.813Z" fill="white"/>
<path d="M360.572 205.813C386.505 205.813 407.527 184.791 407.527 158.858C407.527 132.926 386.505 111.903 360.572 111.903C334.64 111.903 313.617 132.926 313.617 158.858C313.617 184.791 334.64 205.813 360.572 205.813Z" fill="white"/>
<path d="M163.278 158.858C163.278 156.515 162.583 154.224 161.281 152.276C159.979 150.327 158.129 148.809 155.964 147.912C153.799 147.015 151.417 146.781 149.119 147.238C146.82 147.695 144.709 148.823 143.052 150.48C141.395 152.137 140.267 154.248 139.81 156.547C139.353 158.845 139.587 161.227 140.484 163.392C141.381 165.557 142.899 167.407 144.848 168.709C146.796 170.011 149.087 170.706 151.43 170.706C152.986 170.706 154.527 170.4 155.964 169.804C157.402 169.209 158.708 168.336 159.808 167.236C160.908 166.136 161.781 164.83 162.376 163.392C162.972 161.955 163.278 160.414 163.278 158.858Z" fill="#4E5660"/>
<path d="M348.725 158.858C348.725 156.515 349.42 154.224 350.722 152.276C352.024 150.327 353.874 148.809 356.039 147.912C358.204 147.015 360.586 146.781 362.885 147.238C365.183 147.695 367.294 148.823 368.951 150.48C370.608 152.137 371.736 154.248 372.193 156.547C372.651 158.845 372.416 161.227 371.519 163.392C370.622 165.557 369.104 167.407 367.155 168.709C365.207 170.011 362.916 170.706 360.573 170.706C359.017 170.706 357.477 170.4 356.039 169.804C354.602 169.209 353.296 168.336 352.195 167.236C351.095 166.136 350.222 164.83 349.627 163.392C349.032 161.955 348.725 160.414 348.725 158.858Z" fill="#4E5660"/>
<path d="M70.851 283.852L102.801 312.264C123.97 331.305 130.487 336.064 138.338 345.714C167.15 380.401 165.638 417.414 166.076 419.348C167.476 443.218 167.587 445.141 168.264 456.693C168.682 463.844 167.634 471.005 165.185 477.736C162.736 484.468 158.937 490.628 154.022 495.839C149.107 501.049 143.179 505.201 136.601 508.038C130.024 510.876 122.937 512.34 115.773 512.34C108.61 512.34 101.523 510.876 94.9455 508.038C88.3683 505.201 82.4402 501.049 77.525 495.839C72.6098 490.628 68.8111 484.468 66.362 477.736C63.913 471.005 62.8652 463.844 63.283 456.693C63.29 456.551 65.468 419.153 65.53 418.63C66.0474 415.534 65.9441 412.366 65.226 409.31C64.5079 406.254 63.1893 403.372 61.347 400.83L53.38 391.867L10.759 343.942C3.54572 335.828 -0.294424 325.265 0.0242138 314.413C0.342851 303.561 4.79619 293.241 12.4731 285.564C20.15 277.887 30.4701 273.434 41.3221 273.116C52.174 272.798 62.7374 276.638 70.851 283.852Z" fill="#A2DDFD"/>
<path d="M441.151 283.852L409.201 312.264C388.032 331.305 381.515 336.064 373.664 345.714C344.852 380.401 346.364 417.414 345.926 419.348C344.526 443.218 344.415 445.141 343.738 456.693C343.32 463.844 344.368 471.005 346.817 477.737C349.266 484.468 353.065 490.628 357.98 495.839C362.895 501.05 368.823 505.201 375.4 508.039C381.978 510.876 389.065 512.34 396.228 512.34C403.392 512.34 410.479 510.876 417.056 508.039C423.634 505.201 429.562 501.05 434.477 495.839C439.392 490.628 443.191 484.468 445.64 477.737C448.089 471.005 449.137 463.844 448.719 456.693C448.712 456.551 446.534 419.153 446.472 418.63C445.954 415.534 446.058 412.366 446.776 409.31C447.494 406.254 448.813 403.372 450.655 400.83L458.622 391.867L501.24 343.946C508.453 335.832 512.293 325.269 511.975 314.417C511.656 303.565 507.203 293.245 499.526 285.568C491.849 277.892 481.529 273.439 470.677 273.12C459.825 272.802 449.262 276.643 441.148 283.856L441.151 283.852Z" fill="#7ACDF9"/>
</svg>
