<svg width="512" height="512" viewBox="0 0 512 512" fill="none" xmlns="http://www.w3.org/2000/svg">
<path d="M256.001 483.562C386.285 483.562 491.901 380.238 491.901 252.781C491.901 125.324 386.285 22 256.001 22C125.717 22 20.1006 125.324 20.1006 252.781C20.1006 380.238 125.717 483.562 256.001 483.562Z" fill="#F6EE86"/>
<path d="M414.375 423.822C86.8546 443.822 58.3936 190.322 191.716 30.6709C92.6716 58.0499 20.1006 147.123 20.1006 252.781C20.1006 380.238 125.717 483.562 256.001 483.562C314.329 483.73 370.688 462.471 414.375 423.822Z" fill="#EED076"/>
<path d="M123.229 264.956C150.285 264.956 172.219 247.489 172.219 225.943C172.219 204.397 150.285 186.93 123.229 186.93C96.1723 186.93 74.2388 204.397 74.2388 225.943C74.2388 247.489 96.1723 264.956 123.229 264.956Z" fill="#E7889D"/>
<path d="M388.773 264.956C415.829 264.956 437.763 247.489 437.763 225.943C437.763 204.397 415.829 186.93 388.773 186.93C361.716 186.93 339.783 204.397 339.783 225.943C339.783 247.489 361.716 264.956 388.773 264.956Z" fill="#E7889D"/>
<path d="M296.845 338.447C307.045 338.447 316.511 334.821 321.765 328.883C327.06 322.899 330.107 315.895 330.107 308.404C330.107 300.913 327.06 293.904 321.765 287.925C316.51 281.987 307.044 278.361 296.845 278.361H226.118C201.694 278.361 181.894 291.812 181.894 308.404C181.894 324.996 201.694 338.447 226.118 338.447H296.845Z" fill="#4E5660"/>
<path d="M151.43 205.813C177.362 205.813 198.385 184.791 198.385 158.858C198.385 132.926 177.362 111.903 151.43 111.903C125.497 111.903 104.475 132.926 104.475 158.858C104.475 184.791 125.497 205.813 151.43 205.813Z" fill="white"/>
<path d="M360.572 205.813C386.504 205.813 407.527 184.791 407.527 158.858C407.527 132.926 386.504 111.903 360.572 111.903C334.639 111.903 313.617 132.926 313.617 158.858C313.617 184.791 334.639 205.813 360.572 205.813Z" fill="white"/>
<path d="M163.278 170.858C163.278 168.515 162.583 166.224 161.281 164.276C159.979 162.327 158.129 160.809 155.964 159.912C153.799 159.015 151.416 158.781 149.118 159.238C146.82 159.695 144.709 160.823 143.052 162.48C141.395 164.137 140.266 166.248 139.809 168.547C139.352 170.845 139.587 173.227 140.483 175.392C141.38 177.557 142.899 179.407 144.847 180.709C146.796 182.011 149.086 182.706 151.43 182.706C152.985 182.706 154.526 182.4 155.964 181.804C157.401 181.209 158.707 180.336 159.807 179.236C160.908 178.136 161.78 176.83 162.376 175.392C162.971 173.955 163.278 172.414 163.278 170.858Z" fill="#4E5660"/>
<path d="M348.725 170.858C348.725 168.515 349.419 166.224 350.721 164.276C352.023 162.327 353.874 160.809 356.039 159.912C358.204 159.015 360.586 158.781 362.884 159.238C365.182 159.695 367.293 160.823 368.95 162.48C370.607 164.137 371.736 166.248 372.193 168.547C372.65 170.845 372.415 173.227 371.519 175.392C370.622 177.557 369.103 179.407 367.155 180.709C365.207 182.011 362.916 182.706 360.573 182.706C359.017 182.706 357.476 182.4 356.039 181.804C354.601 181.209 353.295 180.336 352.195 179.236C351.095 178.136 350.222 176.83 349.626 175.392C349.031 173.955 348.725 172.414 348.725 170.858Z" fill="#4E5660"/>
</svg>
