<svg width="512" height="512" viewBox="0 0 512 512" fill="none" xmlns="http://www.w3.org/2000/svg">
<path d="M240.88 488C361.212 488 458.76 392.569 458.76 274.849C458.76 157.129 361.212 61.698 240.88 61.698C120.548 61.698 23 157.129 23 274.849C23 392.569 120.548 488 240.88 488Z" fill="#F6EE86"/>
<path d="M387.154 432.824C84.655 451.293 58.367 217.162 181.5 69.708C90.027 94.995 23 177.263 23 274.849C23 392.574 120.548 488.001 240.88 488.001C294.752 488.156 346.805 468.521 387.154 432.824Z" fill="#EED076"/>
<path d="M99.589 362.289C128.878 362.289 152.622 343.381 152.622 320.056C152.622 296.731 128.878 277.823 99.589 277.823C70.2997 277.823 46.556 296.731 46.556 320.056C46.556 343.381 70.2997 362.289 99.589 362.289Z" fill="#E7889D"/>
<path d="M387.045 362.289C416.334 362.289 440.078 343.381 440.078 320.056C440.078 296.731 416.334 277.823 387.045 277.823C357.756 277.823 334.012 296.731 334.012 320.056C334.012 343.381 357.756 362.289 387.045 362.289Z" fill="#E7889D"/>
<path d="M243.317 337.096C263.604 337.096 280.049 317.043 280.049 292.306C280.049 267.569 263.604 247.516 243.317 247.516C223.031 247.516 206.585 267.569 206.585 292.306C206.585 317.043 223.031 337.096 243.317 337.096Z" fill="#4E5660"/>
<path d="M130.503 294.905C127.625 294.905 124.864 293.761 122.829 291.726C120.793 289.691 119.65 286.93 119.65 284.052V265.324C119.65 262.446 120.793 259.685 122.829 257.65C124.864 255.614 127.625 254.471 130.503 254.471C133.381 254.471 136.142 255.614 138.177 257.65C140.213 259.685 141.356 262.446 141.356 265.324V284.052C141.356 285.477 141.076 286.889 140.53 288.205C139.985 289.522 139.185 290.719 138.178 291.726C137.17 292.734 135.973 293.534 134.656 294.079C133.34 294.624 131.928 294.905 130.503 294.905Z" fill="#4E5660"/>
<path d="M356.142 294.905C353.264 294.905 350.503 293.761 348.468 291.726C346.433 289.691 345.289 286.93 345.289 284.052V265.324C345.289 262.446 346.433 259.685 348.468 257.65C350.503 255.614 353.264 254.471 356.142 254.471C359.02 254.471 361.781 255.614 363.816 257.65C365.852 259.685 366.995 262.446 366.995 265.324V284.052C366.995 285.477 366.715 286.889 366.169 288.206C365.624 289.522 364.825 290.719 363.817 291.727C362.809 292.735 361.612 293.534 360.296 294.079C358.979 294.625 357.567 294.905 356.142 294.905Z" fill="#4E5660"/>
<path d="M151.868 267.003C150.917 267.002 149.971 266.877 149.052 266.631L105.576 254.981C104.199 254.612 102.909 253.976 101.778 253.108C100.647 252.24 99.6986 251.158 98.986 249.924C98.2734 248.689 97.8109 247.327 97.6249 245.914C97.4389 244.501 97.5331 243.065 97.902 241.688C98.271 240.311 98.9075 239.021 99.7752 237.89C100.643 236.759 101.725 235.81 102.959 235.098C104.194 234.385 105.556 233.923 106.969 233.737C108.382 233.551 109.818 233.645 111.195 234.014L154.671 245.664C157.214 246.345 159.422 247.928 160.885 250.116C162.348 252.305 162.965 254.95 162.623 257.56C162.28 260.17 161.001 262.567 159.023 264.304C157.045 266.041 154.503 267 151.871 267.002L151.868 267.003Z" fill="#4E5660"/>
<path d="M334.779 267.003C332.146 267.001 329.604 266.042 327.626 264.304C325.648 262.567 324.369 260.17 324.026 257.56C323.684 254.95 324.302 252.304 325.765 250.116C327.228 247.927 329.436 246.345 331.979 245.663L375.455 234.013C378.235 233.268 381.198 233.658 383.691 235.097C386.184 236.536 388.003 238.907 388.748 241.687C389.493 244.467 389.103 247.43 387.664 249.923C386.225 252.416 383.854 254.235 381.074 254.98L337.598 266.63C336.679 266.877 335.731 267.003 334.779 267.003Z" fill="#4E5660"/>
<path d="M450.136 23.37C440.972 23.076 431.884 25.1094 423.72 29.28C422.681 29.8033 421.507 29.9927 420.357 29.8223C419.207 29.6519 418.137 29.1299 417.296 28.328C408.886 20.3972 397.759 15.986 386.2 16C352.772 16 331.448 50.624 344.783 80.067C345.344 81.2966 345.434 82.6895 345.036 83.981C341.881 93.9987 341.399 104.667 343.638 114.928C345.877 125.19 350.758 134.688 357.799 142.481C358.416 143.157 358.761 144.038 358.766 144.953V185.443C358.766 187.475 359.368 189.462 360.498 191.152C361.627 192.842 363.232 194.159 365.109 194.936C366.987 195.714 369.053 195.918 371.046 195.521C373.04 195.125 374.871 194.146 376.308 192.709L405.772 163.245C406.39 162.633 407.205 162.259 408.072 162.188C417.378 161.347 426.362 158.355 434.314 153.449C442.267 148.543 448.972 141.857 453.9 133.918C454.317 133.253 454.871 132.684 455.525 132.248C456.179 131.812 456.917 131.52 457.692 131.39C470.981 129.101 482.946 121.959 491.269 111.349C499.592 100.739 503.679 87.4167 502.738 73.9648C501.797 60.5128 495.895 47.8893 486.176 38.5414C476.458 29.1935 463.614 23.787 450.136 23.37Z" fill="#EDA1AB"/>
<path d="M114.057 47.2753C109.202 39.342 101.883 33.2169 93.2185 29.8367C84.5538 26.4564 75.0205 26.007 66.0762 28.5572C57.132 31.1074 49.2691 36.5168 43.69 43.9583C38.1108 51.3998 35.1224 60.4638 35.1817 69.7643C27.3482 70.8091 20.2378 74.8868 15.3799 81.1202C10.522 87.3537 8.30483 95.2448 9.20532 103.096C10.1058 110.948 14.052 118.132 20.195 123.104C26.3381 128.075 34.1871 130.437 42.0537 129.681C46.2889 137.613 52.2939 144.463 59.6031 149.7C66.9122 154.938 75.3293 158.421 84.2017 159.881C85.1625 160.032 86.0518 160.48 86.7437 161.163L116.264 190.683C117.513 191.932 119.104 192.783 120.836 193.128C122.569 193.472 124.364 193.296 125.996 192.62C127.628 191.944 129.023 190.799 130.004 189.33C130.985 187.861 131.509 186.135 131.509 184.368V148.863C131.514 148.213 131.655 147.57 131.924 146.977C132.192 146.384 132.581 145.854 133.067 145.42C140.496 138.664 146.062 130.109 149.228 120.579C152.394 111.049 153.054 100.864 151.144 91.0053C149.234 81.1463 144.819 71.9448 138.324 64.286C131.829 56.6273 123.472 50.7691 114.057 47.2753Z" fill="#EDA1AB"/>
<path d="M443.023 146.9C363.843 150.893 373.946 81.5997 385.066 67.3487C371.988 65.6387 361.057 32.2997 383.286 16.0938C351.552 18.0347 331.842 51.4817 344.776 80.0567C345.341 81.2888 345.432 82.6856 345.033 83.9808C341.878 93.9984 341.396 104.667 343.635 114.928C345.874 125.189 350.755 134.687 357.796 142.481C358.413 143.157 358.757 144.038 358.763 144.953V185.443C358.763 187.475 359.366 189.462 360.495 191.152C361.624 192.841 363.229 194.158 365.107 194.936C366.984 195.714 369.05 195.917 371.044 195.521C373.037 195.124 374.868 194.146 376.305 192.709L405.771 163.243C406.387 162.633 407.198 162.259 408.062 162.188C421.067 161.025 433.34 155.659 443.023 146.9Z" fill="#E58996"/>
<path d="M69.3709 92.7668C47.7759 87.2868 40.2259 49.0618 60.5589 30.5518C52.9647 33.8993 46.5157 39.3953 42.0065 46.3628C37.4973 53.3303 35.125 61.4647 35.1819 69.7638C27.3427 70.8019 20.2248 74.8773 15.3611 81.1123C10.4974 87.3473 8.27695 95.2431 9.17797 103.099C10.079 110.955 14.0294 118.143 20.1784 123.115C26.3275 128.087 34.1832 130.445 42.0539 129.682C46.2499 137.536 52.1818 144.33 59.3984 149.546C66.6149 154.763 74.9262 158.265 83.6999 159.787C54.3749 146.952 53.7559 112.758 70.2999 96.1288C70.5521 95.8787 70.7332 95.566 70.8245 95.2227C70.9158 94.8795 70.9141 94.5182 70.8195 94.1758C70.7249 93.8335 70.5408 93.5225 70.2863 93.2749C70.0317 93.0272 69.7157 92.8518 69.3709 92.7668Z" fill="#E58996"/>
</svg>
