<svg width="524" height="512" viewBox="0 0 524 512" fill="none" xmlns="http://www.w3.org/2000/svg">
<path d="M459.991 90.7338C458.002 90.7338 456.094 89.9436 454.687 88.5371C453.281 87.1306 452.491 85.2229 452.491 83.2338V55.8198C452.491 53.8307 453.281 51.923 454.687 50.5165C456.094 49.11 458.002 48.3198 459.991 48.3198C461.98 48.3198 463.888 49.11 465.294 50.5165C466.701 51.923 467.491 53.8307 467.491 55.8198V83.2338C467.491 85.2229 466.701 87.1306 465.294 88.5371C463.888 89.9436 461.98 90.7338 459.991 90.7338Z" fill="#A2DDFD"/>
<path d="M261.218 511.774C398.901 511.774 510.515 402.582 510.515 267.887C510.515 133.192 398.901 24 261.218 24C123.535 24 11.9207 133.192 11.9207 267.887C11.9207 402.582 123.535 511.774 261.218 511.774Z" fill="#F6EE86"/>
<path d="M428.586 448.642C82.4667 469.773 52.3857 201.881 193.286 33.1641C88.6136 62.0971 11.9207 156.229 11.9207 267.887C11.9207 402.587 123.535 511.774 261.221 511.774C322.861 511.952 382.419 489.486 428.586 448.642Z" fill="#EED076"/>
<path d="M129.862 314.402C156.63 314.402 178.33 297.122 178.33 275.805C178.33 254.488 156.63 237.208 129.862 237.208C103.093 237.208 81.3936 254.488 81.3936 275.805C81.3936 297.122 103.093 314.402 129.862 314.402Z" fill="#E7889D"/>
<path d="M392.574 314.402C419.343 314.402 441.042 297.122 441.042 275.805C441.042 254.488 419.343 237.208 392.574 237.208C365.806 237.208 344.106 254.488 344.106 275.805C344.106 297.122 365.806 314.402 392.574 314.402Z" fill="#E7889D"/>
<path d="M304.966 293.727C303.755 293.729 302.562 293.437 301.488 292.877C300.415 292.317 299.493 291.504 298.803 290.51C289.189 276.691 275.49 268.765 261.219 268.765C246.948 268.765 233.248 276.691 223.635 290.51C223.072 291.318 222.356 292.008 221.527 292.54C220.698 293.072 219.772 293.435 218.803 293.609C217.833 293.783 216.839 293.764 215.877 293.554C214.915 293.344 214.003 292.946 213.195 292.384C212.386 291.821 211.696 291.105 211.165 290.276C210.633 289.447 210.27 288.521 210.096 287.552C209.922 286.583 209.94 285.588 210.15 284.626C210.361 283.664 210.758 282.752 211.321 281.944C223.779 264.036 241.966 253.766 261.221 253.766C280.476 253.766 298.659 264.037 311.121 281.944C311.903 283.068 312.362 284.385 312.449 285.752C312.536 287.118 312.247 288.483 311.613 289.697C310.979 290.911 310.026 291.928 308.855 292.639C307.684 293.349 306.341 293.725 304.972 293.727H304.966Z" fill="#4E5660"/>
<path d="M154.511 249.06C148.106 249.058 141.777 247.683 135.949 245.029C130.12 242.374 124.929 238.501 120.724 233.671C120.076 232.928 119.582 232.066 119.268 231.132C118.954 230.198 118.828 229.212 118.895 228.23C118.962 227.247 119.223 226.287 119.661 225.405C120.099 224.523 120.707 223.736 121.45 223.089C122.192 222.442 123.055 221.947 123.988 221.633C124.922 221.32 125.908 221.193 126.891 221.26C127.874 221.328 128.833 221.588 129.715 222.026C130.597 222.465 131.384 223.072 132.032 223.815C134.828 227.031 138.281 229.61 142.159 231.377C146.037 233.144 150.249 234.059 154.511 234.059C158.772 234.059 162.984 233.144 166.862 231.377C170.74 229.61 174.194 227.031 176.99 223.815C177.637 223.072 178.424 222.465 179.306 222.026C180.188 221.588 181.147 221.327 182.13 221.26C183.113 221.192 184.099 221.319 185.033 221.633C185.966 221.946 186.829 222.441 187.572 223.088C188.314 223.735 188.922 224.522 189.36 225.404C189.799 226.286 190.059 227.246 190.127 228.228C190.194 229.211 190.068 230.197 189.754 231.131C189.44 232.065 188.946 232.927 188.299 233.67C184.093 238.501 178.902 242.374 173.073 245.029C167.245 247.683 160.915 249.058 154.511 249.06Z" fill="#4E5660"/>
<path d="M367.926 249.06C361.521 249.058 355.192 247.684 349.363 245.029C343.535 242.375 338.344 238.501 334.139 233.671C332.832 232.171 332.174 230.214 332.311 228.229C332.447 226.245 333.366 224.396 334.866 223.089C336.365 221.782 338.323 221.124 340.307 221.261C342.292 221.397 344.141 222.316 345.448 223.816C348.244 227.032 351.697 229.611 355.575 231.378C359.453 233.146 363.665 234.06 367.926 234.06C372.188 234.06 376.4 233.146 380.278 231.378C384.155 229.611 387.609 227.032 390.405 223.816C391.712 222.316 393.561 221.397 395.546 221.261C397.53 221.125 399.488 221.782 400.987 223.089C402.487 224.396 403.406 226.246 403.542 228.23C403.678 230.215 403.021 232.172 401.714 233.672C397.508 238.502 392.316 242.374 386.488 245.029C380.66 247.683 374.33 249.058 367.926 249.06Z" fill="#4E5660"/>
<path d="M18.9998 212.458C17.0106 212.458 15.103 211.668 13.6965 210.261C12.2899 208.855 11.4998 206.947 11.4998 204.958V177.544C11.4998 175.555 12.2899 173.647 13.6965 172.241C15.103 170.834 17.0106 170.044 18.9998 170.044C20.9889 170.044 22.8965 170.834 24.3031 172.241C25.7096 173.647 26.4998 175.555 26.4998 177.544V204.958C26.4998 206.947 25.7096 208.855 24.3031 210.261C22.8965 211.668 20.9889 212.458 18.9998 212.458Z" fill="#A2DDFD"/>
<path d="M84.6267 414.921C82.6376 414.921 80.7299 414.131 79.3234 412.724C77.9169 411.318 77.1267 409.41 77.1267 407.421V380.007C77.1267 378.018 77.9169 376.11 79.3234 374.704C80.7299 373.297 82.6376 372.507 84.6267 372.507C86.6158 372.507 88.5235 373.297 89.93 374.704C91.3365 376.11 92.1267 378.018 92.1267 380.007V407.421C92.1267 409.41 91.3365 411.318 89.93 412.724C88.5235 414.131 86.6158 414.921 84.6267 414.921Z" fill="#A2DDFD"/>
<path d="M43.7349 461.66C41.7457 461.66 39.8381 460.87 38.4316 459.463C37.025 458.057 36.2349 456.149 36.2349 454.16V426.746C36.2349 424.757 37.025 422.849 38.4316 421.443C39.8381 420.036 41.7457 419.246 43.7349 419.246C45.724 419.246 47.6316 420.036 49.0382 421.443C50.4447 422.849 51.2349 424.757 51.2349 426.746V454.16C51.2349 456.149 50.4447 458.057 49.0382 459.463C47.6316 460.87 45.724 461.66 43.7349 461.66Z" fill="#A2DDFD"/>
<path d="M496.584 163.023C494.595 163.023 492.687 162.233 491.28 160.826C489.874 159.42 489.084 157.512 489.084 155.523V128.11C489.084 126.121 489.874 124.213 491.28 122.807C492.687 121.4 494.595 120.61 496.584 120.61C498.573 120.61 500.481 121.4 501.887 122.807C503.294 124.213 504.084 126.121 504.084 128.11V155.524C504.083 157.513 503.293 159.42 501.887 160.827C500.48 162.233 498.573 163.023 496.584 163.023Z" fill="#A2DDFD"/>
<path d="M496.584 465.618C494.595 465.618 492.687 464.828 491.28 463.421C489.874 462.015 489.084 460.107 489.084 458.118V430.7C489.084 428.711 489.874 426.803 491.28 425.397C492.687 423.99 494.595 423.2 496.584 423.2C498.573 423.2 500.481 423.99 501.887 425.397C503.294 426.803 504.084 428.711 504.084 430.7V458.114C504.084 459.099 503.891 460.075 503.514 460.985C503.137 461.896 502.585 462.723 501.888 463.42C501.192 464.117 500.365 464.67 499.455 465.047C498.545 465.424 497.569 465.618 496.584 465.618Z" fill="#A2DDFD"/>
<path d="M450.379 414.921C448.39 414.921 446.482 414.131 445.075 412.724C443.669 411.318 442.879 409.41 442.879 407.421V380.007C442.879 378.018 443.669 376.11 445.075 374.704C446.482 373.297 448.39 372.507 450.379 372.507C452.368 372.507 454.275 373.297 455.682 374.704C457.088 376.11 457.879 378.018 457.879 380.007V407.421C457.879 409.41 457.088 411.318 455.682 412.724C454.275 414.131 452.368 414.921 450.379 414.921Z" fill="#A2DDFD"/>
<path d="M39.4167 143.9C34.1862 143.891 29.0097 142.841 24.1892 140.811C19.3686 138.781 15.0003 135.811 11.339 132.076C7.67763 128.34 4.79647 123.914 2.86343 119.053C0.930388 114.193 -0.0158609 108.997 0.07984 103.767C0.175541 98.5371 1.31128 93.3788 3.42085 88.5925C5.53042 83.8062 8.57161 79.4877 12.3672 75.8887C16.1627 72.2897 20.6367 69.4823 25.5283 67.63C30.4199 65.7777 35.6313 64.9176 40.8587 65.0999C41.3103 49.17 47.4251 33.9227 58.1055 22.0951C68.7859 10.2675 83.3324 2.63406 99.1338 0.565191C114.935 -1.50368 130.957 2.12747 144.322 10.8068C157.687 19.4861 167.521 32.6452 172.059 47.9219C172.146 47.9219 172.231 47.9159 172.318 47.9159C185.046 47.9159 197.252 52.9721 206.253 61.9721C215.253 70.9722 220.309 83.1789 220.309 95.9069C220.309 108.635 215.253 120.842 206.253 129.842C197.252 138.842 185.046 143.898 172.318 143.898L39.4167 143.9Z" fill="#8DAEE1"/>
</svg>
