<svg width="512" height="512" viewBox="0 0 512 512" fill="none" xmlns="http://www.w3.org/2000/svg">
<path d="M240.88 488C361.212 488 458.76 392.569 458.76 274.849C458.76 157.129 361.212 61.698 240.88 61.698C120.548 61.698 23 157.129 23 274.849C23 392.569 120.548 488 240.88 488Z" fill="#F6EE86"/>
<path d="M387.154 432.824C84.655 451.293 58.367 217.162 181.5 69.708C90.027 94.995 23 177.263 23 274.849C23 392.574 120.548 488.001 240.88 488.001C294.752 488.156 346.805 468.521 387.154 432.824Z" fill="#EED076"/>
<path d="M104.032 362.402C132.75 362.402 156.03 343.863 156.03 320.994C156.03 298.125 132.75 279.586 104.032 279.586C75.3143 279.586 52.034 298.125 52.034 320.994C52.034 343.863 75.3143 362.402 104.032 362.402Z" fill="#E7889D"/>
<path d="M385.875 362.402C414.593 362.402 437.873 343.863 437.873 320.994C437.873 298.125 414.593 279.586 385.875 279.586C357.157 279.586 333.877 298.125 333.877 320.994C333.877 343.863 357.157 362.402 385.875 362.402Z" fill="#E7889D"/>
<path d="M134.335 292.772C132.807 292.772 131.293 292.471 129.881 291.886C128.469 291.301 127.185 290.444 126.105 289.363C125.024 288.283 124.167 286.999 123.582 285.587C122.997 284.175 122.696 282.661 122.696 281.133V259.878C122.696 258.35 122.997 256.836 123.582 255.424C124.167 254.012 125.024 252.729 126.105 251.648C127.186 250.567 128.469 249.71 129.881 249.125C131.293 248.54 132.807 248.239 134.335 248.239C135.863 248.239 137.377 248.54 138.789 249.125C140.201 249.71 141.484 250.567 142.565 251.648C143.646 252.729 144.503 254.012 145.088 255.424C145.673 256.836 145.974 258.35 145.974 259.878V281.133C145.974 284.22 144.748 287.18 142.565 289.363C140.382 291.546 137.422 292.772 134.335 292.772Z" fill="#4E5660"/>
<path d="M355.57 292.772C352.484 292.771 349.525 291.544 347.343 289.362C345.161 287.179 343.936 284.219 343.936 281.133V259.878C343.936 256.791 345.162 253.831 347.345 251.648C349.528 249.465 352.488 248.239 355.575 248.239C358.662 248.239 361.622 249.465 363.805 251.648C365.988 253.831 367.214 256.791 367.214 259.878V281.133C367.214 282.662 366.913 284.176 366.328 285.588C365.742 287.001 364.885 288.284 363.803 289.365C362.722 290.446 361.438 291.303 360.026 291.887C358.613 292.472 357.099 292.773 355.57 292.772Z" fill="#4E5660"/>
<path d="M134.335 253.982C125.224 253.986 116.283 251.512 108.47 246.825C105.849 245.223 103.968 242.65 103.236 239.667C102.504 236.684 102.981 233.532 104.563 230.9C106.144 228.267 108.703 226.366 111.681 225.611C114.658 224.857 117.813 225.31 120.458 226.872C124.652 229.38 129.447 230.705 134.333 230.705C139.22 230.705 144.015 229.38 148.209 226.872C149.519 226.085 150.971 225.563 152.483 225.337C153.995 225.111 155.536 225.185 157.019 225.555C158.502 225.925 159.898 226.583 161.127 227.492C162.356 228.401 163.393 229.543 164.18 230.853C164.968 232.164 165.489 233.616 165.715 235.128C165.941 236.639 165.867 238.181 165.498 239.664C165.128 241.147 164.47 242.543 163.56 243.771C162.651 245 161.509 246.038 160.199 246.825C152.386 251.512 143.446 253.986 134.335 253.982Z" fill="#4E5660"/>
<path d="M274.111 305.428C272.602 305.427 271.107 305.132 269.711 304.559C252.679 297.597 226.991 297.659 215.995 297.599H215.789C212.702 297.599 209.742 296.373 207.559 294.19C205.376 292.007 204.15 289.047 204.15 285.96C204.15 282.873 205.376 279.913 207.559 277.73C209.742 275.547 212.702 274.321 215.789 274.321H215.995C229.374 274.281 257.254 274.321 278.519 283.013C281.016 284.034 283.081 285.891 284.361 288.266C285.641 290.641 286.056 293.387 285.535 296.035C285.015 298.682 283.59 301.066 281.506 302.78C279.422 304.493 276.808 305.43 274.11 305.429L274.111 305.428Z" fill="#4E5660"/>
<path d="M29.657 157.855C34.0471 157.855 37.606 154.296 37.606 149.906C37.606 145.516 34.0471 141.957 29.657 141.957C25.2669 141.957 21.708 145.516 21.708 149.906C21.708 154.296 25.2669 157.855 29.657 157.855Z" fill="#6A95D6"/>
<path d="M40.483 127.664C39.2774 127.664 38.0896 127.373 37.0202 126.817C35.9508 126.26 35.0314 125.454 34.3398 124.466C33.6482 123.479 33.2049 122.339 33.0474 121.144C32.8899 119.949 33.0228 118.733 33.435 117.6L43.055 91.1691C34.514 86.113 28.0983 78.1289 24.9997 68.6996C21.9011 59.2703 22.3301 49.0369 26.207 39.9001C30.3733 30.0742 38.2135 22.2648 48.0557 18.1372C57.8979 14.0096 68.9632 13.8904 78.892 17.805C88.8208 21.7197 96.8274 29.3584 101.204 39.0922C105.581 48.8261 105.982 59.8848 102.322 69.9101C101.642 71.7798 100.246 73.3027 98.443 74.1437C96.6398 74.9848 94.5763 75.075 92.7065 74.3946C90.8367 73.7142 89.3138 72.3188 88.4728 70.5156C87.6318 68.7123 87.5416 66.6488 88.222 64.7791C88.6352 63.6405 88.9694 62.4747 89.222 61.2901C90.2533 56.426 89.8639 51.368 88.1002 46.7191C86.3365 42.0702 83.2729 38.0267 79.2748 35.0707C75.2767 32.1147 70.5128 30.371 65.5511 30.0476C60.5895 29.7241 55.6394 30.8344 51.2914 33.2463C46.9433 35.6581 43.3806 39.2696 41.0282 43.6501C38.6758 48.0306 37.633 52.9953 38.024 57.9521C38.415 62.9089 40.2234 67.6486 43.2335 71.6061C46.2437 75.5636 50.3285 78.5718 55.001 80.2721C56.8701 80.9525 58.3924 82.3475 59.2329 84.1503C60.0734 85.9531 60.1634 88.0159 59.483 89.8851L47.531 122.727C47.0049 124.174 46.0464 125.424 44.7855 126.307C43.5246 127.19 42.0224 127.664 40.483 127.664Z" fill="#6A95D6"/>
<path d="M425.646 76.9789C426.183 78.4562 426.271 80.0598 425.897 81.5869C425.523 83.114 424.705 84.4959 423.546 85.558C422.387 86.6201 420.939 87.3146 419.385 87.5538C417.831 87.793 416.242 87.566 414.817 86.9016C413.392 86.2372 412.196 85.1653 411.381 83.8213C410.565 82.4773 410.166 80.9216 410.235 79.351C410.303 77.7803 410.836 76.2653 411.765 74.9974C412.695 73.7295 413.98 72.7657 415.457 72.2279C416.438 71.8706 417.479 71.7101 418.522 71.7556C419.565 71.801 420.589 72.0515 421.536 72.4927C422.482 72.9339 423.332 73.5571 424.037 74.3269C424.742 75.0967 425.289 75.9978 425.646 76.9789Z" fill="#7ACDF9"/>
<path d="M450.501 209.4C443.072 209.405 435.782 207.387 429.414 203.562C423.046 199.737 417.839 194.25 414.354 187.69C413.461 186.005 412.686 184.261 412.034 182.47C411.353 180.6 411.444 178.537 412.285 176.733C413.126 174.93 414.649 173.535 416.518 172.854C418.388 172.174 420.452 172.264 422.255 173.105C424.058 173.946 425.453 175.469 426.134 177.339C426.548 178.479 427.041 179.59 427.61 180.662C429.948 185.049 433.498 188.672 437.837 191.097C442.176 193.523 447.121 194.65 452.083 194.344C457.045 194.037 461.814 192.31 465.821 189.369C469.829 186.428 472.906 182.396 474.686 177.754C476.466 173.112 476.874 168.057 475.861 163.19C474.848 158.323 472.456 153.85 468.972 150.305C465.487 146.759 461.057 144.29 456.208 143.193C451.36 142.095 446.298 142.415 441.626 144.114C439.757 144.794 437.694 144.704 435.891 143.864C434.088 143.023 432.693 141.501 432.013 139.632L420.06 106.79C419.379 104.92 419.47 102.857 420.311 101.053C421.152 99.2502 422.675 97.8549 424.544 97.1745C426.414 96.494 428.478 96.5843 430.281 97.4253C432.084 98.2663 433.479 99.7892 434.16 101.659L443.78 128.09C453.572 126.473 463.618 128.466 472.053 133.697C480.487 138.928 486.736 147.042 489.64 156.533C491.504 162.65 491.91 169.119 490.823 175.421C489.737 181.723 487.189 187.683 483.384 192.823C479.578 197.962 474.622 202.139 468.912 205.018C463.201 207.897 456.896 209.397 450.501 209.4Z" fill="#7ACDF9"/>
<path d="M330.138 27.3571C329.026 28.4687 327.61 29.2258 326.068 29.5324C324.526 29.8391 322.928 29.6816 321.475 29.08C320.023 28.4783 318.781 27.4595 317.908 26.1523C317.035 24.8451 316.568 23.3083 316.568 21.7361C316.568 20.164 317.035 18.6271 317.908 17.3199C318.781 16.0128 320.023 14.9939 321.475 14.3923C322.928 13.7906 324.526 13.6331 326.068 13.9398C327.61 14.2465 329.026 15.0035 330.138 16.1151C331.629 17.606 332.466 19.6279 332.466 21.7361C332.466 23.8443 331.629 25.8662 330.138 27.3571Z" fill="#7ACDF9"/>
<path d="M257.736 129.417C250.127 129.432 242.664 127.323 236.188 123.327C229.713 119.331 224.481 113.607 221.082 106.799C217.683 99.9908 216.251 92.3691 216.949 84.7917C217.647 77.2143 220.445 69.9821 225.03 63.909C226.18 62.3878 227.433 60.948 228.781 59.6C230.197 58.2403 232.09 57.49 234.053 57.5104C236.017 57.5308 237.893 58.3201 239.281 59.709C240.669 61.0978 241.457 62.9754 241.475 64.9385C241.494 66.9017 240.742 68.794 239.381 70.209C238.523 71.066 237.726 71.9815 236.995 72.949C234.007 76.9217 232.224 81.67 231.859 86.6278C231.494 91.5856 232.562 96.5438 234.937 100.911C237.311 105.279 240.891 108.871 245.251 111.261C249.61 113.65 254.565 114.735 259.524 114.387C264.483 114.039 269.237 112.272 273.22 109.297C277.203 106.322 280.246 102.265 281.987 97.6085C283.728 92.9521 284.093 87.8933 283.039 83.0351C281.985 78.1768 279.556 73.7242 276.042 70.208C275.346 69.5116 274.793 68.6847 274.416 67.7748C274.039 66.8648 273.845 65.8895 273.845 64.9045C273.845 63.9195 274.039 62.9442 274.416 62.0342C274.793 61.1243 275.346 60.2974 276.042 59.601L300.755 34.888C302.162 33.4808 304.071 32.6902 306.061 32.6902C308.051 32.6902 309.96 33.4808 311.367 34.888C312.774 36.2952 313.565 38.2039 313.565 40.194C313.565 42.1841 312.774 44.0928 311.367 45.5L291.478 65.384C295.698 71.5261 298.159 78.7049 298.595 86.1443C299.031 93.5837 297.425 101.001 293.951 107.594C290.477 114.186 285.267 119.704 278.884 123.551C272.501 127.397 265.188 129.426 257.736 129.417Z" fill="#7ACDF9"/>
</svg>
