<svg width="512" height="512" viewBox="0 0 512 512" fill="none" xmlns="http://www.w3.org/2000/svg">
<path d="M378.452 67.3489L370.152 82.9059C369.38 84.3519 368.23 85.5611 366.824 86.4043C365.419 87.2474 363.811 87.6928 362.172 87.6928C360.533 87.6928 358.924 87.2474 357.519 86.4043C356.113 85.5611 354.963 84.3519 354.192 82.9059L345.892 67.3489C345.048 65.7659 343.752 64.4699 342.169 63.6259L326.612 55.3259C325.166 54.5543 323.956 53.4043 323.113 51.9987C322.27 50.5932 321.825 48.9849 321.825 47.3459C321.825 45.7069 322.27 44.0986 323.113 42.6931C323.956 41.2875 325.166 40.1375 326.612 39.3659L342.169 31.0659C343.752 30.2219 345.048 28.9259 345.892 27.3429L354.192 11.7859C354.963 10.3399 356.113 9.13065 357.519 8.28752C358.924 7.44439 360.533 6.99902 362.172 6.99902C363.811 6.99902 365.419 7.44439 366.824 8.28752C368.23 9.13065 369.38 10.3399 370.152 11.7859L378.452 27.3429C379.296 28.9259 380.592 30.2219 382.175 31.0659L397.732 39.3659C399.178 40.1375 400.387 41.2875 401.23 42.6931C402.073 44.0986 402.518 45.7069 402.518 47.3459C402.518 48.9849 402.073 50.5932 401.23 51.9987C400.387 53.4043 399.178 54.5543 397.732 55.3259L382.175 63.6259C380.592 64.4699 379.296 65.7659 378.452 67.3489Z" fill="#A2DDFD"/>
<path d="M255.978 511.778C389.582 511.778 497.889 405.821 497.889 275.116C497.889 144.411 389.582 38.4539 255.978 38.4539C122.375 38.4539 14.0674 144.411 14.0674 275.116C14.0674 405.821 122.375 511.778 255.978 511.778Z" fill="#F6EE86"/>
<path d="M418.388 450.515C82.5234 471.021 53.3364 211.066 190.055 47.3469C88.4884 75.4229 14.0674 166.766 14.0674 275.116C14.0674 405.816 122.374 511.778 255.978 511.778C315.793 511.95 373.589 490.149 418.388 450.515Z" fill="#EED076"/>
<path d="M160.335 296.628C160.347 321.228 135.318 341.177 104.435 341.193C73.5524 341.209 48.4944 321.282 48.4824 296.689C48.4704 272.096 73.4994 252.139 104.387 252.123C135.275 252.107 160.322 272.03 160.335 296.628Z" fill="#E7889D"/>
<path d="M351.623 296.531C351.636 321.131 376.685 341.055 407.572 341.04C438.459 341.025 463.489 321.072 463.472 296.475C463.455 271.878 438.41 251.95 407.523 251.965C376.636 251.98 351.611 271.934 351.623 296.531Z" fill="#E7889D"/>
<path d="M307.824 297.196C307.808 265.148 284.59 262.149 255.951 262.163C227.312 262.177 204.097 265.2 204.113 297.248C204.129 329.296 227.359 355.262 255.998 355.248C284.637 355.234 307.84 329.243 307.824 297.196Z" fill="#4E5660"/>
<path d="M116.226 270.962L92.7727 290.347C89.8498 292.763 86.3824 294.43 82.6703 295.205C78.9582 295.979 75.1133 295.838 71.4682 294.793C67.8231 293.747 64.4874 291.83 61.7499 289.206C59.0124 286.582 56.9553 283.331 55.7567 279.733L46.1397 250.865C44.443 245.771 41.0419 241.418 36.5097 238.54L10.8257 222.225C7.62496 220.192 4.96776 217.409 3.08399 214.118C1.20021 210.827 0.146573 207.127 0.0142235 203.337C-0.118126 199.547 0.674795 195.782 2.3244 192.368C3.974 188.954 6.43061 185.993 9.48172 183.741L33.9647 165.674C38.2848 162.486 41.3737 157.907 42.7107 152.707L50.2907 123.238C51.2353 119.565 53.0604 116.178 55.6082 113.37C58.156 110.561 61.3497 108.415 64.9131 107.119C68.4764 105.822 72.3021 105.412 76.0592 105.926C79.8162 106.44 83.3915 107.862 86.4757 110.068L111.225 127.768C115.592 130.891 120.901 132.414 126.26 132.079L156.629 130.179C160.413 129.942 164.199 130.632 167.657 132.187C171.115 133.742 174.143 136.116 176.477 139.104C178.812 142.093 180.383 145.605 181.056 149.336C181.728 153.068 181.481 156.908 180.336 160.523L171.148 189.531C169.527 194.649 169.72 200.169 171.694 205.162L182.883 233.462C184.278 236.988 184.793 240.802 184.383 244.572C183.973 248.342 182.65 251.956 180.53 255.1C178.409 258.244 175.554 260.824 172.212 262.617C168.87 264.41 165.142 265.361 161.35 265.389L130.923 265.614C125.553 265.654 120.362 267.543 116.223 270.964L116.226 270.962Z" fill="#8DAEE1"/>
<path d="M182.618 251.271C85.7175 229.671 53.1935 173.852 48.4295 130.478L42.7115 152.707C41.3745 157.906 38.2856 162.486 33.9655 165.674L9.48152 183.741C6.43019 185.992 3.97338 188.953 2.32364 192.368C0.673892 195.782 -0.119106 199.547 0.0132464 203.337C0.145599 207.127 1.19932 210.827 3.08324 214.118C4.96716 217.409 7.62455 220.192 10.8255 222.225L36.5095 238.54C41.0412 241.419 44.4422 245.771 46.1395 250.865L55.7565 279.733C56.9551 283.33 59.0121 286.582 61.7497 289.206C64.4872 291.83 67.8228 293.747 71.468 294.793C75.1131 295.838 78.958 295.979 82.6701 295.205C86.3822 294.43 89.8496 292.763 92.7725 290.347L116.226 270.962C120.364 267.541 125.556 265.651 130.926 265.612L161.351 265.389C165.885 265.365 170.315 264.016 174.093 261.508C177.871 259 180.834 255.443 182.618 251.273V251.271Z" fill="#6A95D6"/>
<path d="M395.773 270.962L419.226 290.347C422.149 292.763 425.617 294.43 429.329 295.205C433.041 295.979 436.886 295.838 440.531 294.793C444.176 293.747 447.512 291.83 450.249 289.206C452.987 286.582 455.044 283.331 456.242 279.733L465.859 250.865C467.556 245.771 470.957 241.418 475.489 238.54L501.173 222.225C504.374 220.192 507.031 217.409 508.915 214.118C510.799 210.827 511.852 207.127 511.985 203.337C512.117 199.547 511.324 195.782 509.675 192.368C508.025 188.954 505.568 185.993 502.517 183.741L478.034 165.674C473.714 162.486 470.625 157.907 469.288 152.707L461.708 123.238C460.764 119.565 458.939 116.178 456.391 113.37C453.843 110.561 450.649 108.415 447.086 107.119C443.523 105.822 439.697 105.412 435.94 105.926C432.183 106.44 428.608 107.862 425.523 110.068L400.774 127.768C396.407 130.891 391.098 132.414 385.739 132.079L355.37 130.179C351.586 129.942 347.8 130.632 344.342 132.187C340.884 133.742 337.856 136.116 335.521 139.104C333.187 142.093 331.615 145.604 330.943 149.336C330.271 153.068 330.517 156.908 331.662 160.523L340.85 189.531C342.471 194.649 342.278 200.169 340.304 205.162L329.115 233.462C327.72 236.988 327.205 240.802 327.615 244.572C328.025 248.342 329.348 251.956 331.468 255.1C333.589 258.244 336.444 260.824 339.786 262.617C343.128 264.41 346.856 265.361 350.648 265.389L381.075 265.614C386.444 265.653 391.635 267.542 395.773 270.962Z" fill="#8DAEE1"/>
<path d="M456.242 279.734L463.32 258.488C409.536 235.78 387.032 175.488 392.984 131.379C390.621 131.991 388.175 132.227 385.738 132.079L355.369 130.179C351.585 129.942 347.799 130.632 344.341 132.187C340.883 133.742 337.855 136.116 335.521 139.105C333.186 142.093 331.615 145.605 330.942 149.337C330.27 153.068 330.517 156.908 331.662 160.523L340.85 189.53C342.471 194.648 342.278 200.169 340.304 205.162L329.115 233.462C327.72 236.988 327.205 240.802 327.615 244.572C328.025 248.342 329.348 251.956 331.468 255.1C333.589 258.244 336.444 260.824 339.786 262.617C343.128 264.41 346.856 265.361 350.648 265.389L381.075 265.614C386.445 265.654 391.636 267.543 395.775 270.964L419.228 290.349C422.151 292.765 425.618 294.433 429.331 295.207C433.043 295.982 436.888 295.841 440.533 294.796C444.178 293.751 447.514 291.833 450.251 289.209C452.989 286.585 455.046 283.334 456.244 279.736L456.242 279.734Z" fill="#6A95D6"/>
<path d="M440.432 464.889L432.132 480.446C431.36 481.892 430.21 483.101 428.804 483.944C427.399 484.787 425.791 485.233 424.152 485.233C422.513 485.233 420.904 484.787 419.499 483.944C418.093 483.101 416.943 481.892 416.172 480.446L407.872 464.889C407.028 463.306 405.732 462.01 404.149 461.166L388.592 452.866C387.146 452.094 385.936 450.944 385.093 449.539C384.25 448.133 383.805 446.525 383.805 444.886C383.805 443.247 384.25 441.639 385.093 440.233C385.936 438.828 387.146 437.678 388.592 436.906L404.149 428.606C405.732 427.762 407.028 426.466 407.872 424.883L416.172 409.326C416.943 407.88 418.093 406.671 419.499 405.828C420.904 404.984 422.513 404.539 424.152 404.539C425.791 404.539 427.399 404.984 428.804 405.828C430.21 406.671 431.36 407.88 432.132 409.326L440.432 424.883C441.276 426.466 442.572 427.762 444.155 428.606L459.712 436.906C461.158 437.678 462.367 438.828 463.21 440.233C464.053 441.639 464.498 443.247 464.498 444.886C464.498 446.525 464.053 448.133 463.21 449.539C462.367 450.944 461.158 452.094 459.712 452.866L444.155 461.166C442.572 462.01 441.276 463.306 440.432 464.889Z" fill="#A2DDFD"/>
<path d="M77.2494 412.796L68.9494 428.353C68.1778 429.799 67.0278 431.008 65.6222 431.851C64.2167 432.694 62.6085 433.14 60.9694 433.14C59.3304 433.14 57.7222 432.694 56.3166 431.851C54.9111 431.008 53.761 429.799 52.9894 428.353L44.6894 412.796C43.8454 411.213 42.5494 409.917 40.9664 409.073L25.4094 400.773C23.9634 400.001 22.7542 398.851 21.9111 397.446C21.0679 396.04 20.6226 394.432 20.6226 392.793C20.6226 391.154 21.0679 389.546 21.9111 388.14C22.7542 386.735 23.9634 385.585 25.4094 384.813L40.9664 376.513C42.5494 375.669 43.8454 374.373 44.6894 372.79L52.9894 357.233C53.761 355.787 54.9111 354.578 56.3166 353.735C57.7222 352.891 59.3304 352.446 60.9694 352.446C62.6085 352.446 64.2167 352.891 65.6222 353.735C67.0278 354.578 68.1778 355.787 68.9494 357.233L77.2494 372.79C78.0934 374.373 79.3895 375.669 80.9724 376.513L96.5304 384.813C97.9765 385.585 99.1857 386.735 100.029 388.14C100.872 389.546 101.317 391.154 101.317 392.793C101.317 394.432 100.872 396.04 100.029 397.446C99.1857 398.851 97.9765 400.001 96.5304 400.773L80.9724 409.073C79.3895 409.917 78.0934 411.213 77.2494 412.796Z" fill="#A2DDFD"/>
</svg>
