<svg width="512" height="512" viewBox="0 0 512 512" fill="none" xmlns="http://www.w3.org/2000/svg">
<path d="M256 511.89C397.385 511.89 512 399.762 512 261.445C512 123.128 397.385 11 256 11C114.615 11 0 123.128 0 261.445C0 399.762 114.615 511.89 256 511.89Z" fill="#F6EE86"/>
<path d="M427.868 447.06C72.442 468.76 41.556 193.66 186.237 20.4109C78.755 50.1219 0 146.785 0 261.445C0 399.762 114.615 511.89 256 511.89C319.298 512.073 380.46 489.002 427.868 447.06Z" fill="#EED076"/>
<path d="M154.793 281.145C154.806 307.174 128.32 328.288 95.634 328.304C62.948 328.32 36.441 307.233 36.428 281.204C36.415 255.175 62.9 234.064 95.587 234.045C128.274 234.026 154.78 255.119 154.793 281.145Z" fill="#E7889D"/>
<path d="M357.217 281.045C357.23 307.074 383.738 328.161 416.423 328.145C449.108 328.129 475.595 307.015 475.582 280.986C475.569 254.957 449.061 233.869 416.376 233.886C383.691 233.903 357.2 255.018 357.217 281.045Z" fill="#E7889D"/>
<path d="M314.007 259.762C313.989 223.909 288.015 220.554 255.975 220.57C223.935 220.586 197.964 223.97 197.982 259.821C198 295.672 223.988 324.721 256.027 324.708C288.066 324.695 314.025 295.614 314.007 259.762Z" fill="#4E5660"/>
<path d="M383.264 234.615H383.249C382.264 234.613 381.289 234.417 380.38 234.038C379.471 233.66 378.645 233.106 377.95 232.408C377.255 231.71 376.704 230.882 376.329 229.971C375.954 229.061 375.762 228.085 375.764 227.1L375.809 203.855C375.813 201.869 376.605 199.965 378.011 198.562C379.417 197.158 381.322 196.37 383.309 196.37H383.324C384.309 196.372 385.284 196.568 386.193 196.947C387.102 197.325 387.928 197.88 388.623 198.577C389.318 199.275 389.869 200.103 390.244 201.014C390.619 201.925 390.811 202.9 390.809 203.885L390.764 227.13C390.76 229.117 389.968 231.02 388.562 232.424C387.156 233.827 385.25 234.615 383.264 234.615Z" fill="#4E5660"/>
<path d="M167.142 190.187H167.125C166.14 190.189 165.165 190.385 164.256 190.764C163.347 191.143 162.521 191.698 161.827 192.396C161.132 193.094 160.581 193.922 160.206 194.833C159.831 195.743 159.64 196.719 159.642 197.704C159.648 202.938 157.576 207.961 153.883 211.67C150.19 215.378 145.176 217.471 139.942 217.487H139.9C134.673 217.481 129.662 215.405 125.962 211.713C122.263 208.021 120.177 203.014 120.161 197.787C120.157 195.801 119.365 193.897 117.959 192.494C116.553 191.091 114.647 190.303 112.661 190.303H112.644C111.659 190.305 110.684 190.501 109.775 190.88C108.866 191.259 108.04 191.813 107.345 192.511C106.65 193.209 106.1 194.037 105.725 194.948C105.35 195.858 105.158 196.834 105.16 197.819C105.189 207.017 108.861 215.829 115.371 222.327C121.882 228.824 130.702 232.478 139.9 232.488H139.977C149.187 232.457 158.01 228.774 164.508 222.247C171.007 215.72 174.651 206.882 174.641 197.671C174.637 195.685 173.845 193.781 172.439 192.378C171.033 190.975 169.127 190.187 167.141 190.187H167.142Z" fill="#4E5660"/>
<path d="M210.747 362.81C210.747 368.859 211.96 374.847 214.314 380.419C216.668 385.991 220.115 391.034 224.452 395.251C228.789 399.468 233.928 402.772 239.564 404.969C245.2 407.166 251.219 408.21 257.266 408.04C281.912 407.364 301.242 386.523 301.242 361.868V310.415C301.255 307.028 300.496 303.684 299.023 300.634C297.55 297.585 295.402 294.911 292.742 292.815C283.395 285.515 272.842 281.172 255.99 281.172C239.138 281.172 228.59 285.517 219.238 292.815C216.578 294.911 214.43 297.585 212.957 300.634C211.484 303.684 210.725 307.028 210.738 310.415V362.81H210.747Z" fill="#E7889D"/>
<path d="M255.994 281.178C253.339 281.178 250.856 281.298 248.494 281.508V344.618C248.494 346.607 249.284 348.515 250.691 349.921C252.097 351.328 254.005 352.118 255.994 352.118C257.983 352.118 259.891 351.328 261.297 349.921C262.704 348.515 263.494 346.607 263.494 344.618V281.508C261.133 281.298 258.65 281.178 255.994 281.178Z" fill="#E16E7E"/>
</svg>
