<svg width="512" height="512" viewBox="0 0 512 512" fill="none" xmlns="http://www.w3.org/2000/svg">
<path d="M98.674 152.49C147.095 152.49 186.348 123.279 186.348 87.245C186.348 51.2112 147.095 22 98.674 22C50.253 22 11 51.2112 11 87.245C11 123.279 50.253 152.49 98.674 152.49Z" fill="#A2DDFD"/>
<path d="M72.021 25.0801C36.635 33.4751 11 58.1281 11 87.2451C11 123.279 50.253 152.49 98.674 152.49C123.998 152.49 146.8 144.49 162.805 131.713C65.183 133.057 48.088 50.8001 72.021 25.0801Z" fill="#7ACDF9"/>
<path d="M256.218 500.774C393.901 500.774 505.515 391.582 505.515 256.887C505.515 122.192 393.901 13 256.218 13C118.535 13 6.9209 122.192 6.9209 256.887C6.9209 391.582 118.535 500.774 256.218 500.774Z" fill="#F6EE86"/>
<path d="M423.586 437.642C77.4669 458.773 47.3859 190.881 188.286 22.1641C83.6139 51.0971 6.9209 145.229 6.9209 256.887C6.9209 391.587 118.535 500.774 256.221 500.774C317.861 500.952 377.42 478.486 423.586 437.642Z" fill="#EED076"/>
<path d="M124.862 328.402C151.63 328.402 173.33 311.122 173.33 289.805C173.33 268.488 151.63 251.208 124.862 251.208C98.0939 251.208 76.394 268.488 76.394 289.805C76.394 311.122 98.0939 328.402 124.862 328.402Z" fill="#E7889D"/>
<path d="M387.575 328.402C414.343 328.402 436.043 311.122 436.043 289.805C436.043 268.488 414.343 251.208 387.575 251.208C360.807 251.208 339.107 268.488 339.107 289.805C339.107 311.122 360.807 328.402 387.575 328.402Z" fill="#E7889D"/>
<path d="M299.966 307.727C298.755 307.729 297.562 307.437 296.489 306.877C295.415 306.317 294.494 305.504 293.803 304.51C284.189 290.691 270.49 282.765 256.219 282.765C241.948 282.765 228.248 290.691 218.635 304.51C218.073 305.318 217.357 306.008 216.528 306.54C215.698 307.072 214.773 307.435 213.803 307.609C212.834 307.783 211.84 307.764 210.877 307.554C209.915 307.344 209.004 306.946 208.195 306.384C207.387 305.821 206.697 305.105 206.165 304.276C205.633 303.447 205.27 302.521 205.096 301.552C204.922 300.583 204.941 299.588 205.151 298.626C205.361 297.664 205.759 296.752 206.321 295.944C218.779 278.036 236.966 267.766 256.221 267.766C275.476 267.766 293.659 278.037 306.121 295.944C306.903 297.068 307.363 298.385 307.449 299.752C307.536 301.118 307.247 302.483 306.614 303.697C305.98 304.911 305.026 305.928 303.855 306.639C302.685 307.349 301.342 307.725 299.972 307.727H299.966Z" fill="#4E5660"/>
<path d="M149.511 263.06C143.107 263.058 136.777 261.683 130.949 259.029C125.121 256.374 119.929 252.501 115.724 247.671C115.077 246.928 114.582 246.066 114.269 245.132C113.955 244.198 113.828 243.212 113.896 242.23C113.963 241.247 114.223 240.287 114.662 239.405C115.1 238.523 115.708 237.736 116.45 237.089C117.193 236.442 118.055 235.947 118.989 235.633C119.923 235.32 120.909 235.193 121.891 235.26C122.874 235.328 123.834 235.588 124.716 236.026C125.598 236.465 126.385 237.072 127.032 237.815C129.828 241.031 133.282 243.61 137.16 245.377C141.038 247.144 145.25 248.059 149.511 248.059C153.773 248.059 157.985 247.144 161.863 245.377C165.741 243.61 169.194 241.031 171.99 237.815C172.637 237.072 173.424 236.465 174.306 236.026C175.188 235.588 176.148 235.327 177.131 235.26C178.113 235.192 179.099 235.319 180.033 235.633C180.967 235.946 181.83 236.441 182.572 237.088C183.315 237.735 183.923 238.522 184.361 239.404C184.799 240.286 185.06 241.246 185.127 242.228C185.195 243.211 185.068 244.197 184.754 245.131C184.441 246.065 183.946 246.927 183.299 247.67C179.094 252.501 173.902 256.374 168.074 259.029C162.245 261.683 155.916 263.058 149.511 263.06Z" fill="#4E5660"/>
<path d="M362.926 263.06C356.522 263.058 350.192 261.684 344.364 259.029C338.536 256.375 333.344 252.501 329.139 247.671C327.832 246.171 327.175 244.214 327.311 242.229C327.447 240.245 328.367 238.396 329.866 237.089C331.366 235.782 333.323 235.124 335.308 235.261C337.292 235.397 339.141 236.316 340.448 237.816C343.244 241.032 346.697 243.611 350.575 245.378C354.453 247.146 358.665 248.06 362.927 248.06C367.188 248.06 371.4 247.146 375.278 245.378C379.156 243.611 382.609 241.032 385.405 237.816C386.712 236.316 388.561 235.397 390.546 235.261C392.531 235.125 394.488 235.782 395.988 237.089C397.487 238.396 398.406 240.246 398.543 242.23C398.679 244.215 398.021 246.172 396.714 247.672C392.509 252.502 387.317 256.374 381.488 259.029C375.66 261.683 369.331 263.058 362.926 263.06Z" fill="#4E5660"/>
<path d="M451.913 462.165L441.513 484.041C440.419 486.344 438.78 488.345 436.738 489.872C434.696 491.399 432.313 492.406 429.794 492.804C427.276 493.203 424.698 492.982 422.285 492.161C419.871 491.34 417.694 489.943 415.941 488.091L399.292 470.5C397.847 468.973 395.919 467.991 393.834 467.719L369.815 464.589C367.287 464.26 364.877 463.319 362.794 461.849C360.711 460.379 359.017 458.423 357.86 456.151C356.702 453.88 356.116 451.36 356.151 448.811C356.186 446.262 356.842 443.759 358.061 441.52L369.647 420.248C370.653 418.402 370.991 416.265 370.605 414.198L366.16 390.387C365.692 387.881 365.842 385.298 366.596 382.863C367.351 380.427 368.687 378.213 370.49 376.41C372.293 374.607 374.508 373.271 376.943 372.516C379.378 371.762 381.961 371.612 384.467 372.08L408.278 376.525C410.345 376.911 412.482 376.573 414.328 375.567L435.6 363.98C437.839 362.761 440.342 362.105 442.891 362.07C445.44 362.035 447.96 362.621 450.232 363.779C452.503 364.936 454.459 366.63 455.929 368.713C457.399 370.796 458.34 373.206 458.669 375.734L461.799 399.753C462.071 401.838 463.053 403.766 464.58 405.211L482.172 421.861C484.024 423.614 485.421 425.791 486.242 428.205C487.063 430.618 487.284 433.196 486.885 435.714C486.486 438.232 485.48 440.615 483.953 442.657C482.426 444.699 480.425 446.338 478.122 447.433L456.246 457.833C454.347 458.736 452.816 460.267 451.913 462.166V462.165Z" fill="#BFACE1"/>
<path d="M441.514 484.041L449.568 467.097C427.713 448.224 408.196 404.508 409.506 376.66C409.094 376.643 408.683 376.597 408.277 376.524L384.466 372.079C381.96 371.611 379.377 371.761 376.942 372.515C374.507 373.27 372.292 374.606 370.489 376.409C368.686 378.212 367.35 380.427 366.595 382.862C365.841 385.297 365.691 387.88 366.159 390.386L370.6 414.2C370.986 416.267 370.648 418.404 369.642 420.25L358.06 441.519C356.841 443.758 356.185 446.261 356.15 448.81C356.115 451.359 356.701 453.879 357.859 456.151C359.016 458.422 360.71 460.378 362.793 461.848C364.876 463.318 367.286 464.259 369.814 464.588L393.833 467.718C395.918 467.99 397.846 468.972 399.291 470.499L415.941 488.091C417.694 489.943 419.871 491.34 422.285 492.161C424.699 492.983 427.276 493.203 429.795 492.805C432.313 492.406 434.696 491.399 436.738 489.872C438.78 488.345 440.42 486.344 441.514 484.041Z" fill="#9F9BDB"/>
<path d="M489.949 68.0623C489.543 59.6226 486.748 51.4718 481.891 44.5582C477.034 37.6445 470.313 32.2522 462.511 29.0085C454.709 25.7649 446.146 24.8033 437.819 26.2356C429.492 27.6679 421.743 31.4352 415.473 37.0992C413.604 38.7875 411.231 39.8141 408.721 40.0206C406.211 40.2272 403.702 39.6023 401.582 38.2422C394.616 33.7753 386.541 31.3439 378.267 31.2222C368.983 31.0702 359.882 33.8179 352.233 39.0825C344.584 44.3472 338.767 51.8666 335.594 60.5933C332.42 69.3199 332.048 78.8191 334.528 87.7674C337.008 96.7158 342.218 104.668 349.431 110.515C350.864 111.702 351.987 113.218 352.705 114.933C353.424 116.649 353.716 118.513 353.556 120.366C352.954 128.539 354.043 136.748 356.757 144.481C359.47 152.214 363.749 159.304 369.326 165.308C374.903 171.312 381.658 176.102 389.17 179.378C396.682 182.654 404.788 184.346 412.983 184.347C450.737 184.347 478.329 149.899 471.596 113.915C471.254 111.983 471.414 109.995 472.059 108.142C472.705 106.289 473.815 104.633 475.284 103.331C480.192 98.9097 484.055 93.451 486.592 87.3512C489.128 81.2514 490.275 74.6634 489.949 68.0653V68.0623Z" fill="#8FD9A9"/>
<path d="M455.867 166.086C400.929 163.814 392.759 122.566 397.067 103.627C397.485 101.642 397.203 99.5721 396.268 97.7707C395.333 95.9694 393.804 94.5474 391.939 93.7464C370.625 84.1154 363.039 52.0664 376.878 31.2324C367.713 31.366 358.811 34.319 351.383 39.6899C343.955 45.0608 338.361 52.589 335.363 61.2508C332.364 69.9127 332.105 79.2879 334.623 88.1018C337.14 96.9157 342.31 104.741 349.431 110.512C350.852 111.675 351.971 113.165 352.691 114.854C353.412 116.543 353.712 118.382 353.568 120.212C352.626 132.444 355.484 144.667 361.751 155.213C368.018 165.759 377.389 174.112 388.583 179.132C399.776 184.151 412.247 185.591 424.29 183.256C436.333 180.921 447.362 174.924 455.868 166.084L455.867 166.086Z" fill="#6AC65E"/>
</svg>
