<svg width="513" height="512" viewBox="0 0 513 512" fill="none" xmlns="http://www.w3.org/2000/svg">
<path d="M257 506.892C398.385 506.892 513 394.763 513 256.446C513 118.128 398.385 6 257 6C115.615 6 1 118.128 1 256.446C1 394.763 115.615 506.892 257 506.892Z" fill="#F6EE86"/>
<path d="M428.869 442.06C73.4431 463.76 42.5551 188.668 187.237 15.4109C79.7551 45.1219 0.99707 141.785 0.99707 256.445C0.99707 394.762 115.613 506.891 256.997 506.891C320.296 507.074 381.458 484.003 428.866 442.06H428.869Z" fill="#EED076"/>
<path d="M155.786 279.211C155.799 305.241 129.312 326.355 96.626 326.372C63.94 326.389 37.431 305.301 37.418 279.272C37.405 253.243 63.892 232.127 96.578 232.111C129.264 232.095 155.773 253.181 155.786 279.211Z" fill="#E7889D"/>
<path d="M358.214 279.112C358.227 305.142 384.736 326.23 417.422 326.212C450.108 326.194 476.595 305.081 476.582 279.052C476.569 253.023 450.06 231.933 417.374 231.952C384.688 231.971 358.201 253.083 358.214 279.113V279.112Z" fill="#E7889D"/>
<path d="M315.008 257.823C314.99 221.969 289.015 218.614 256.974 218.63C224.933 218.646 198.962 222.03 198.98 257.882C198.998 293.734 224.987 322.782 257.027 322.771C289.067 322.76 315.022 293.676 315.008 257.823Z" fill="#4E5660"/>
<path d="M102.899 236.972C100.506 236.973 98.2112 236.025 96.5182 234.334C94.8251 232.643 93.873 230.349 93.8711 227.957C93.8685 223.073 94.828 218.235 96.6948 213.722C98.5616 209.208 101.299 205.107 104.751 201.651C108.203 198.196 112.302 195.454 116.814 193.583C121.326 191.711 126.162 190.747 131.046 190.745H131.065C140.923 190.755 150.374 194.675 157.346 201.643C164.318 208.611 168.242 218.06 168.258 227.918C168.259 229.103 168.026 230.276 167.573 231.371C167.12 232.466 166.456 233.461 165.619 234.3C164.781 235.138 163.787 235.803 162.693 236.257C161.598 236.711 160.425 236.945 159.24 236.946C156.848 236.946 154.553 235.996 152.861 234.305C151.169 232.614 150.218 230.32 150.217 227.928C150.209 222.853 148.19 217.988 144.601 214.4C141.012 210.812 136.146 208.793 131.071 208.787H131.061C128.547 208.788 126.057 209.284 123.734 210.248C121.412 211.211 119.301 212.622 117.524 214.401C115.747 216.18 114.337 218.291 113.376 220.615C112.415 222.938 111.921 225.428 111.922 227.943C111.923 230.336 110.974 232.631 109.282 234.324C107.591 236.017 105.297 236.969 102.904 236.97L102.899 236.972Z" fill="#4E5660"/>
<path d="M354.71 236.846C352.318 236.846 350.023 235.896 348.331 234.205C346.639 232.514 345.688 230.22 345.687 227.828C345.693 217.967 349.611 208.512 356.579 201.536C363.548 194.56 372.999 190.633 382.86 190.616H382.879C392.737 190.626 402.188 194.545 409.16 201.514C416.132 208.482 420.056 217.931 420.072 227.789C420.073 228.974 419.84 230.147 419.387 231.242C418.934 232.337 418.27 233.332 417.433 234.171C416.595 235.009 415.601 235.674 414.507 236.128C413.412 236.582 412.239 236.816 411.054 236.817C408.662 236.817 406.367 235.867 404.675 234.176C402.983 232.485 402.032 230.191 402.031 227.799C402.023 222.724 400.002 217.86 396.413 214.273C392.824 210.685 387.959 208.667 382.884 208.661H382.874C377.797 208.669 372.931 210.69 369.343 214.282C365.756 217.873 363.739 222.741 363.736 227.818C363.737 229.003 363.504 230.176 363.051 231.271C362.598 232.366 361.934 233.361 361.097 234.199C360.259 235.038 359.265 235.703 358.171 236.157C357.076 236.611 355.903 236.844 354.718 236.845L354.71 236.846Z" fill="#4E5660"/>
</svg>
