<svg width="513" height="512" viewBox="0 0 513 512" fill="none" xmlns="http://www.w3.org/2000/svg">
<path d="M1.14283 415.707C3.82483 448.043 34.8238 471.687 56.3798 483.93C59.7695 485.857 63.602 486.871 67.5013 486.871C71.4007 486.871 75.2331 485.857 78.6228 483.93C100.179 471.687 131.178 448.043 133.86 415.707C135.774 392.632 118.284 372.181 95.1298 372.045C84.8017 371.971 74.8657 375.996 67.4998 383.236C60.1343 375.996 50.1987 371.971 39.8708 372.045C16.7178 372.181 -0.772175 392.632 1.14183 415.707H1.14283Z" fill="#E16E7E"/>
<path d="M52.6128 42.168C55.1998 73.4 85.1408 96.232 105.959 108.056C109.233 109.917 112.934 110.896 116.7 110.896C120.466 110.896 124.167 109.917 127.441 108.056C148.259 96.232 178.2 73.4 180.787 42.168C182.635 19.883 165.744 0.13198 143.383 -2.04484e-05C133.408 -0.0710317 123.813 3.81605 116.7 10.809C109.587 3.81605 99.9913 -0.0710317 90.0168 -2.04484e-05C67.6548 0.13098 50.7638 19.882 52.6128 42.168Z" fill="#E16E7E"/>
<path d="M263.283 501.975C401.198 501.975 513 392.599 513 257.677C513 122.755 401.198 13.3789 263.283 13.3789C125.368 13.3789 13.5659 122.755 13.5659 257.677C13.5659 392.599 125.368 501.975 263.283 501.975Z" fill="#F6EE86"/>
<path d="M430.933 438.736C84.2299 459.9 54.0999 191.56 195.232 22.5579C90.3869 51.5399 13.5659 145.83 13.5659 257.677C13.5659 392.599 125.366 501.977 263.283 501.977C325.028 502.155 384.688 479.651 430.933 438.738V438.736Z" fill="#EED076"/>
<path d="M164.553 279.882C164.566 305.273 138.729 325.869 106.845 325.882C74.961 325.895 49.1 305.331 49.09 279.94C49.08 254.549 74.914 233.952 106.798 233.94C138.682 233.928 164.54 254.495 164.553 279.886V279.882Z" fill="#E7889D"/>
<path d="M362.013 279.783C362.026 305.174 387.884 325.744 419.768 325.728C451.652 325.712 477.489 305.116 477.476 279.728C477.463 254.34 451.606 233.766 419.722 233.782C387.838 233.798 362 254.395 362.013 279.782V279.783Z" fill="#E7889D"/>
<path d="M311.755 260.82C311.74 230.858 290.033 228.053 263.255 228.067C236.477 228.081 214.775 230.907 214.79 260.867C214.805 290.827 236.523 315.107 263.299 315.093C290.075 315.079 311.768 290.78 311.753 260.818L311.755 260.82Z" fill="#4E5660"/>
<path d="M22.2509 213.443C41.2629 254.7 93.3659 270.962 127.588 276.743C132.97 277.656 138.496 277.156 143.626 275.29C148.756 273.424 153.314 270.257 156.851 266.1C179.351 239.671 208.808 193.722 196.851 149.9C188.319 118.626 155.517 100.095 124.991 111C111.369 115.848 100.224 125.899 93.9999 138.95C80.8453 132.953 65.8499 132.416 52.2999 137.456C21.8999 148.722 8.68391 184 22.2509 213.443Z" fill="#E7889D"/>
<path d="M504.357 213.443C485.345 254.7 433.242 270.962 399.02 276.743C393.638 277.656 388.111 277.156 382.981 275.29C377.851 273.424 373.294 270.257 369.757 266.1C347.257 239.671 317.8 193.722 329.757 149.9C338.289 118.626 371.09 100.095 401.617 111C415.236 115.85 426.378 125.9 432.6 138.95C445.757 132.951 460.755 132.414 474.307 137.456C504.707 148.722 517.92 184.002 504.353 213.443H504.357Z" fill="#E7889D"/>
<path d="M369.508 109.759C359.967 112.421 351.285 117.522 344.314 124.559C337.344 131.596 332.326 140.327 329.755 149.893C317.8 193.718 347.26 239.667 369.755 266.093C373.292 270.251 377.848 273.419 382.978 275.286C388.108 277.154 393.635 277.656 399.018 276.744C414.434 274.138 433.474 269.394 451.487 261.209C374.141 243.385 356.421 153.773 369.508 109.759Z" fill="#E16E7E"/>
<path d="M156.851 266.1C163.069 258.807 168.841 251.146 174.137 243.159C81.7368 240.914 59.5048 176.078 64.1268 134.527C60.0879 135.062 56.1211 136.045 52.2998 137.458C21.8998 148.723 8.68482 184 22.2518 213.444C41.2638 254.701 93.3668 270.963 127.589 276.744C132.97 277.657 138.497 277.156 143.627 275.29C148.756 273.424 153.313 270.257 156.851 266.1Z" fill="#E16E7E"/>
<path d="M373.33 443.272C375.92 474.501 405.858 497.336 426.676 509.16C429.95 511.021 433.651 512 437.417 512C441.183 512 444.884 511.021 448.158 509.16C468.977 497.336 498.914 474.502 501.504 443.272C503.352 420.986 486.461 401.235 464.104 401.105C454.13 401.034 444.534 404.92 437.421 411.913C430.308 404.92 420.712 401.034 410.738 401.105C388.373 401.236 371.482 420.987 373.33 443.272Z" fill="#E16E7E"/>
</svg>
