<svg width="512" height="512" viewBox="0 0 512 512" fill="none" xmlns="http://www.w3.org/2000/svg">
<path d="M256.147 460.36C371.308 460.36 464.665 369.029 464.665 256.366C464.665 143.703 371.308 52.3721 256.147 52.3721C140.986 52.3721 47.6289 143.703 47.6289 256.366C47.6289 369.029 140.986 460.36 256.147 460.36Z" fill="#F6EE86"/>
<path d="M396.139 407.554C106.635 425.229 81.4759 201.157 199.326 60.0381C111.777 84.2381 47.6259 162.973 47.6259 256.366C47.6259 369.028 140.983 460.36 256.144 460.36C307.702 460.509 357.52 441.717 396.135 407.554H396.139Z" fill="#EED076"/>
<path d="M173.707 274.909C173.718 296.109 152.143 313.309 125.52 313.323C98.8969 313.337 77.3039 296.16 77.2939 274.958C77.2839 253.756 98.8579 236.558 125.481 236.544C152.104 236.53 173.696 253.707 173.707 274.909Z" fill="#E7889D"/>
<path d="M338.589 274.825C338.6 296.025 360.189 313.204 386.815 313.19C413.441 313.176 435.013 295.975 435.003 274.775C434.993 253.575 413.403 236.396 386.777 236.409C360.151 236.422 338.577 253.621 338.59 274.823L338.589 274.825Z" fill="#E7889D"/>
<path d="M303.394 257.488C303.379 228.288 282.222 225.551 256.124 225.564C230.026 225.577 208.872 228.332 208.886 257.536C208.9 286.74 230.069 310.402 256.167 310.389C282.265 310.376 303.409 286.689 303.394 257.489V257.488Z" fill="#4E5660"/>
<path d="M130.628 240.504C128.68 240.505 126.81 239.733 125.431 238.356C124.052 236.98 123.276 235.112 123.274 233.164C123.272 229.186 124.053 225.246 125.574 221.569C127.095 217.893 129.324 214.552 132.136 211.738C134.948 208.923 138.287 206.69 141.962 205.166C145.636 203.641 149.575 202.856 153.554 202.854H153.57C161.599 202.863 169.297 206.055 174.976 211.731C180.655 217.407 183.851 225.104 183.864 233.133C183.864 234.098 183.675 235.054 183.306 235.946C182.937 236.837 182.396 237.648 181.714 238.331C181.032 239.013 180.222 239.555 179.331 239.925C178.44 240.295 177.484 240.485 176.519 240.486C174.571 240.486 172.702 239.712 171.324 238.335C169.946 236.958 169.171 235.089 169.17 233.141C169.163 229.007 167.517 225.044 164.592 222.122C161.668 219.2 157.704 217.557 153.57 217.553H153.562C149.426 217.556 145.461 219.201 142.538 222.126C139.615 225.051 137.973 229.018 137.973 233.153C137.973 234.118 137.784 235.074 137.415 235.966C137.046 236.857 136.505 237.668 135.823 238.351C135.141 239.033 134.331 239.575 133.44 239.945C132.549 240.315 131.593 240.505 130.628 240.506V240.504Z" fill="#4E5660"/>
<path d="M335.734 240.401C333.786 240.401 331.917 239.627 330.539 238.25C329.161 236.873 328.386 235.004 328.385 233.056C328.39 225.024 331.581 217.322 337.258 211.64C342.934 205.958 350.633 202.759 358.665 202.746H358.681C366.71 202.755 374.408 205.947 380.087 211.623C385.766 217.299 388.962 224.996 388.975 233.025C388.975 233.99 388.786 234.946 388.417 235.838C388.048 236.73 387.507 237.54 386.825 238.223C386.143 238.906 385.333 239.447 384.442 239.817C383.551 240.187 382.595 240.378 381.63 240.378C379.682 240.378 377.813 239.604 376.435 238.227C375.057 236.85 374.282 234.981 374.281 233.033C374.274 228.899 372.628 224.936 369.703 222.014C366.779 219.092 362.815 217.449 358.681 217.445H358.673C354.539 217.452 350.576 219.098 347.654 222.022C344.731 224.947 343.088 228.911 343.085 233.045C343.085 234.01 342.896 234.966 342.527 235.858C342.158 236.75 341.617 237.56 340.935 238.243C340.253 238.926 339.443 239.467 338.552 239.837C337.661 240.207 336.705 240.398 335.74 240.398L335.734 240.401Z" fill="#4E5660"/>
<path d="M395.329 357.447C396.883 323.016 419.021 309.188 421.108 276.21C421.246 274.086 421.923 272.031 423.074 270.24C424.226 268.45 425.814 266.982 427.69 265.975C429.566 264.968 431.667 264.455 433.796 264.485C435.925 264.515 438.011 265.086 439.858 266.145C470.234 283.59 507 321.287 507 361.297C507 376.092 501.132 390.284 490.684 400.759C480.235 411.234 466.059 417.137 451.264 417.175C419.057 417.254 393.877 389.622 395.329 357.447Z" fill="#A2DDFD"/>
<path d="M505.375 374.68C435.075 384.611 411.527 340.971 411.997 308.258C404.941 323.012 396.28 336.37 395.329 357.447C393.877 389.622 419.057 417.254 451.264 417.173C463.73 417.139 475.828 412.938 485.632 405.239C495.437 397.539 502.386 386.783 505.375 374.68Z" fill="#7ACDF9"/>
<path d="M116.967 357.447C115.413 323.016 93.2749 309.188 91.1879 276.21C91.0499 274.086 90.3733 272.031 89.2217 270.24C88.0702 268.45 86.4816 266.982 84.6058 265.975C82.7299 264.968 80.6286 264.455 78.4998 264.485C76.371 264.515 74.2848 265.086 72.4379 266.145C42.0619 283.589 5.29492 321.285 5.29492 361.3C5.29487 376.095 11.1625 390.287 21.611 400.762C32.0594 411.237 46.2358 417.14 61.0309 417.178C93.2379 417.254 118.419 389.622 116.967 357.447Z" fill="#A2DDFD"/>
<path d="M113.395 380.281C39.6479 389.141 26.5869 331.904 34.2249 297.255C17.7949 315.451 5.29492 337.975 5.29492 361.295C5.29487 376.09 11.1625 390.282 21.611 400.757C32.0594 411.232 46.2358 417.136 61.0309 417.173C85.2179 417.234 105.439 401.666 113.395 380.281Z" fill="#7ACDF9"/>
</svg>
