<svg width="513" height="512" viewBox="0 0 513 512" fill="none" xmlns="http://www.w3.org/2000/svg">
<path d="M242.096 471.728C375.25 471.728 483.192 366.128 483.192 235.864C483.192 105.6 375.25 0 242.096 0C108.942 0 1 105.6 1 235.864C1 366.128 108.942 471.728 242.096 471.728Z" fill="#F6EE86"/>
<path d="M403.958 410.673C69.2251 431.109 40.1361 172.03 176.396 8.86304C75.1701 36.845 0.996094 127.879 0.996094 235.864C0.996094 366.128 108.938 471.728 242.096 471.728C301.709 471.9 359.31 450.173 403.958 410.673Z" fill="#EED076"/>
<path d="M91.0359 349.674C121.819 349.674 146.774 329.801 146.774 305.287C146.774 280.773 121.819 260.9 91.0359 260.9C60.2526 260.9 35.2979 280.773 35.2979 305.287C35.2979 329.801 60.2526 349.674 91.0359 349.674Z" fill="#E7889D"/>
<path d="M393.156 349.674C423.939 349.674 448.894 329.801 448.894 305.287C448.894 280.773 423.939 260.9 393.156 260.9C362.373 260.9 337.418 280.773 337.418 305.287C337.418 329.801 362.373 349.674 393.156 349.674Z" fill="#E7889D"/>
<path d="M269.711 507.434C283.641 502.697 298.555 501.623 313.02 504.315L324.52 506.455C327.467 507.003 330.508 506.717 333.302 505.631C336.095 504.545 338.53 502.7 340.333 500.306C342.136 497.911 343.235 495.061 343.507 492.076C343.778 489.091 343.212 486.09 341.871 483.409C322.161 443.782 302.286 324.518 302.286 276.619C302.286 248.449 275.339 225.613 242.099 225.613C208.859 225.613 181.912 248.449 181.912 276.619C181.912 324.519 162.037 443.781 142.327 483.409C140.986 486.09 140.42 489.091 140.691 492.076C140.963 495.061 142.062 497.911 143.865 500.306C145.668 502.7 148.103 504.545 150.896 505.631C153.69 506.717 156.731 507.003 159.678 506.455L171.178 504.315C185.643 501.623 200.557 502.697 214.487 507.434C232.394 513.522 251.81 513.522 269.717 507.434H269.711Z" fill="#8EAFE2"/>
<path d="M181.909 276.618C181.909 324.518 162.034 443.78 142.324 483.408C140.983 486.089 140.417 489.09 140.688 492.075C140.96 495.06 142.059 497.91 143.862 500.305C145.665 502.699 148.1 504.544 150.893 505.63C153.687 506.716 156.728 507.002 159.675 506.454L171.175 504.315C177.834 503.088 184.614 502.655 191.375 503.023C217.369 449.5 221.375 288.739 221.875 228.573C198.585 235.614 181.912 254.463 181.912 276.618H181.909Z" fill="#E16E7E"/>
<path d="M302.283 276.618C302.283 324.518 322.158 443.78 341.868 483.408C343.209 486.089 343.775 489.09 343.504 492.075C343.232 495.06 342.133 497.91 340.33 500.305C338.527 502.699 336.092 504.544 333.299 505.63C330.505 506.716 327.464 507.002 324.517 506.454L313.017 504.315C306.358 503.088 299.578 502.655 292.817 503.023C266.824 449.5 262.817 288.739 262.317 228.573C285.607 235.614 302.28 254.463 302.28 276.618H302.283Z" fill="#8EE2CF"/>
<path d="M129.939 244.884L143.011 231.812C144.393 230.401 145.162 228.501 145.151 226.526C145.141 224.55 144.351 222.659 142.955 221.262C141.558 219.866 139.667 219.076 137.691 219.066C135.716 219.055 133.816 219.824 132.405 221.206L119.332 234.278L106.26 221.206C105.566 220.497 104.739 219.933 103.826 219.547C102.913 219.16 101.932 218.958 100.94 218.953C99.9487 218.947 98.9659 219.139 98.0487 219.516C97.1316 219.893 96.2983 220.448 95.5971 221.149C94.8959 221.851 94.3407 222.684 93.9637 223.601C93.5866 224.518 93.3952 225.501 93.4005 226.493C93.4058 227.484 93.6077 228.465 93.9944 229.378C94.3812 230.291 94.9453 231.118 95.6539 231.812L108.726 244.884L95.6539 257.956C94.9453 258.65 94.3812 259.477 93.9944 260.39C93.6077 261.303 93.4058 262.284 93.4005 263.276C93.3952 264.267 93.5866 265.25 93.9637 266.167C94.3407 267.084 94.8959 267.918 95.5971 268.619C96.2983 269.32 97.1316 269.875 98.0487 270.252C98.9659 270.629 99.9487 270.821 100.94 270.815C101.932 270.81 102.913 270.608 103.826 270.222C104.739 269.835 105.566 269.271 106.26 268.562L119.332 255.49L132.405 268.562C133.816 269.944 135.716 270.713 137.691 270.703C139.667 270.692 141.558 269.903 142.955 268.506C144.351 267.109 145.141 265.218 145.151 263.243C145.162 261.267 144.393 259.368 143.011 257.956L129.939 244.884Z" fill="#4E5660"/>
<path d="M375.466 244.884L388.539 231.812C389.935 230.403 390.716 228.499 390.712 226.516C390.708 224.532 389.918 222.631 388.515 221.229C387.113 219.826 385.212 219.037 383.228 219.032C381.245 219.028 379.34 219.81 377.932 221.206L364.86 234.278L351.787 221.206C351.093 220.497 350.266 219.933 349.353 219.547C348.44 219.16 347.459 218.958 346.467 218.953C345.476 218.947 344.493 219.139 343.576 219.516C342.658 219.893 341.825 220.448 341.124 221.149C340.423 221.851 339.868 222.684 339.491 223.601C339.114 224.518 338.922 225.501 338.927 226.493C338.933 227.484 339.135 228.465 339.521 229.378C339.908 230.291 340.472 231.118 341.181 231.812L354.253 244.884L341.181 257.956C340.472 258.65 339.908 259.477 339.521 260.39C339.135 261.303 338.933 262.284 338.927 263.276C338.922 264.267 339.114 265.25 339.491 266.167C339.868 267.084 340.423 267.918 341.124 268.619C341.825 269.32 342.658 269.875 343.576 270.252C344.493 270.629 345.476 270.821 346.467 270.815C347.459 270.81 348.44 270.608 349.353 270.222C350.266 269.835 351.093 269.271 351.787 268.562L364.86 255.49L377.932 268.562C379.343 269.944 381.243 270.713 383.218 270.703C385.193 270.692 387.085 269.903 388.482 268.506C389.878 267.109 390.668 265.218 390.678 263.243C390.689 261.267 389.92 259.368 388.538 257.956L375.466 244.884Z" fill="#4E5660"/>
<path d="M89.4911 191C87.7267 191.001 86.0183 190.381 84.6662 189.247C83.3142 188.113 82.4051 186.539 82.0988 184.802C81.7925 183.064 82.1085 181.274 82.9914 179.747C83.8744 178.219 85.2676 177.052 86.9261 176.45L133.65 159.444C134.576 159.107 135.559 158.956 136.543 158.999C137.528 159.042 138.494 159.279 139.386 159.695C140.279 160.111 141.081 160.7 141.747 161.426C142.412 162.153 142.928 163.003 143.265 163.929C143.602 164.855 143.753 165.838 143.71 166.822C143.667 167.806 143.43 168.772 143.014 169.665C142.597 170.558 142.009 171.36 141.283 172.026C140.556 172.691 139.706 173.207 138.78 173.544L92.0561 190.548C91.2356 190.846 90.3692 190.999 89.4961 191H89.4911Z" fill="#EED076"/>
<path d="M394.702 191C393.827 191 392.959 190.846 392.137 190.546L345.413 173.54C344.487 173.203 343.637 172.687 342.911 172.022C342.184 171.356 341.596 170.554 341.179 169.661C340.763 168.768 340.526 167.802 340.483 166.818C340.44 165.834 340.591 164.851 340.928 163.925C341.265 162.999 341.781 162.149 342.446 161.422C343.112 160.696 343.914 160.108 344.807 159.691C345.7 159.275 346.666 159.038 347.65 158.995C348.634 158.952 349.617 159.103 350.543 159.44L397.267 176.446C398.929 177.046 400.325 178.213 401.21 179.742C402.095 181.27 402.412 183.062 402.106 184.802C401.799 186.541 400.888 188.117 399.534 189.251C398.18 190.384 396.469 191.004 394.702 191Z" fill="#EED076"/>
</svg>
