<svg width="512" height="512" viewBox="0 0 512 512" fill="none" xmlns="http://www.w3.org/2000/svg">
<path d="M256 506.89C397.385 506.89 512 394.762 512 256.445C512 118.128 397.385 6 256 6C114.615 6 0 118.128 0 256.445C0 394.762 114.615 506.89 256 506.89Z" fill="#F6EE86"/>
<path d="M427.868 442.06C72.442 463.76 41.556 188.66 186.237 15.4109C78.755 45.1219 0 141.785 0 256.445C0 394.762 114.615 506.89 256 506.89C319.298 507.073 380.46 484.002 427.868 442.06Z" fill="#EED076"/>
<path d="M109.637 349.747C139.463 349.747 163.642 330.492 163.642 306.74C163.642 282.988 139.463 263.733 109.637 263.733C79.8109 263.733 55.6321 282.988 55.6321 306.74C55.6321 330.492 79.8109 349.747 109.637 349.747Z" fill="#E7889D"/>
<path d="M402.362 349.747C432.188 349.747 456.367 330.492 456.367 306.74C456.367 282.988 432.188 263.733 402.362 263.733C372.536 263.733 348.357 282.988 348.357 306.74C348.357 330.492 372.536 349.747 402.362 349.747Z" fill="#E7889D"/>
<path d="M304.744 283.045C303.533 283.043 302.34 283.335 301.267 283.895C300.193 284.455 299.272 285.267 298.581 286.262C287.706 301.892 272.181 310.862 256 310.862C239.819 310.862 224.294 301.897 213.419 286.262C212.863 285.439 212.148 284.735 211.318 284.191C210.487 283.647 209.556 283.273 208.58 283.091C207.604 282.91 206.601 282.923 205.63 283.132C204.659 283.341 203.739 283.741 202.924 284.308C202.109 284.875 201.414 285.599 200.881 286.436C200.347 287.274 199.986 288.21 199.817 289.188C199.648 290.167 199.675 291.169 199.896 292.138C200.118 293.106 200.529 294.02 201.107 294.828C214.827 314.547 234.835 325.857 256.001 325.857C277.167 325.857 297.175 314.547 310.895 294.828C311.677 293.704 312.137 292.387 312.223 291.02C312.31 289.653 312.021 288.288 311.387 287.074C310.753 285.86 309.799 284.843 308.628 284.132C307.457 283.422 306.114 283.046 304.744 283.045Z" fill="#4E5660"/>
<path d="M137.1 276.085C130.087 276.083 123.155 274.577 116.773 271.67C110.39 268.762 104.705 264.521 100.1 259.231C98.793 257.731 98.1351 255.774 98.2713 253.789C98.4074 251.804 99.3264 249.955 100.826 248.648C102.326 247.341 104.283 246.683 106.268 246.819C108.253 246.955 110.102 247.874 111.409 249.374C114.605 253.05 118.552 255.997 122.984 258.017C127.416 260.037 132.23 261.083 137.101 261.083C141.972 261.083 146.786 260.037 151.218 258.017C155.65 255.997 159.598 253.05 162.793 249.374C164.1 247.874 165.95 246.955 167.934 246.819C169.919 246.683 171.876 247.341 173.376 248.648C174.876 249.955 175.795 251.804 175.931 253.789C176.067 255.774 175.409 257.731 174.102 259.231C169.497 264.521 163.812 268.763 157.43 271.67C151.047 274.577 144.116 276.083 137.102 276.085H137.1Z" fill="#4E5660"/>
<path d="M374.9 276.085C367.887 276.083 360.955 274.577 354.573 271.67C348.19 268.762 342.505 264.521 337.9 259.231C336.593 257.731 335.935 255.774 336.071 253.789C336.207 251.805 337.126 249.956 338.625 248.648C340.125 247.341 342.082 246.683 344.067 246.819C346.052 246.956 347.901 247.874 349.208 249.374C352.404 253.05 356.351 255.997 360.783 258.017C365.215 260.037 370.029 261.083 374.9 261.083C379.771 261.083 384.585 260.037 389.017 258.017C393.449 255.997 397.397 253.05 400.592 249.374C401.899 247.874 403.748 246.955 405.733 246.819C407.718 246.683 409.675 247.341 411.175 248.648C412.675 249.955 413.594 251.804 413.73 253.789C413.866 255.774 413.208 257.731 411.901 259.231C407.296 264.521 401.611 268.763 395.229 271.67C388.846 274.577 381.915 276.083 374.901 276.085H374.9Z" fill="#4E5660"/>
<path d="M422.545 222.497C421.56 222.497 420.585 222.303 419.675 221.926C418.766 221.548 417.94 220.995 417.245 220.297C412.271 215.324 388.117 198.207 374.567 195.046C372.684 194.545 371.069 193.33 370.066 191.659C369.063 189.989 368.75 187.993 369.192 186.095C369.635 184.197 370.799 182.546 372.437 181.491C374.076 180.437 376.061 180.062 377.972 180.445C395.621 184.563 421.942 203.792 427.847 209.696C428.894 210.745 429.608 212.081 429.897 213.535C430.185 214.989 430.037 216.496 429.47 217.865C428.903 219.235 427.942 220.406 426.71 221.23C425.478 222.054 424.029 222.495 422.547 222.496L422.545 222.497Z" fill="#EED076"/>
<path d="M89.4551 222.497C87.9727 222.496 86.5239 222.055 85.2918 221.231C84.0596 220.407 83.0993 219.236 82.5322 217.866C81.9651 216.497 81.8166 214.99 82.1054 213.536C82.3943 212.082 83.1075 210.746 84.1551 209.697C90.0551 203.797 116.381 184.564 134.03 180.446C135.967 179.994 138.005 180.33 139.694 181.38C141.383 182.43 142.586 184.109 143.038 186.046C143.49 187.983 143.154 190.02 142.104 191.71C141.053 193.399 139.375 194.602 137.438 195.054C123.888 198.216 99.7381 215.332 94.7601 220.305C94.0652 221.003 93.2392 221.556 92.3297 221.934C91.4201 222.311 90.4449 222.506 89.4601 222.505L89.4551 222.497Z" fill="#EED076"/>
</svg>
