<svg width="512" height="512" viewBox="0 0 512 512" fill="none" xmlns="http://www.w3.org/2000/svg">
<path d="M256 506.89C397.385 506.89 512 394.762 512 256.445C512 118.128 397.385 6 256 6C114.615 6 0 118.128 0 256.445C0 394.762 114.615 506.89 256 506.89Z" fill="#F6EE86"/>
<path d="M427.868 442.06C72.442 463.76 41.556 188.66 186.237 15.4109C78.755 45.1219 0 141.785 0 256.445C0 394.762 114.615 506.89 256 506.89C319.298 507.073 380.46 484.002 427.868 442.06Z" fill="#EED076"/>
<path d="M109.637 349.747C139.463 349.747 163.642 330.492 163.642 306.74C163.642 282.988 139.463 263.733 109.637 263.733C79.8109 263.733 55.6321 282.988 55.6321 306.74C55.6321 330.492 79.8109 349.747 109.637 349.747Z" fill="#E7889D"/>
<path d="M402.362 349.747C432.188 349.747 456.367 330.492 456.367 306.74C456.367 282.988 432.188 263.733 402.362 263.733C372.536 263.733 348.357 282.988 348.357 306.74C348.357 330.492 372.536 349.747 402.362 349.747Z" fill="#E7889D"/>
<path d="M304.744 325.853C303.533 325.855 302.34 325.563 301.267 325.003C300.193 324.443 299.272 323.631 298.581 322.636C287.706 307.005 272.181 298.036 256 298.036C239.819 298.036 224.294 307.001 213.419 322.636C212.862 323.459 212.148 324.162 211.317 324.707C210.487 325.251 209.556 325.625 208.58 325.807C207.603 325.988 206.601 325.974 205.63 325.766C204.659 325.557 203.739 325.157 202.924 324.59C202.108 324.023 201.414 323.299 200.881 322.461C200.347 321.624 199.985 320.688 199.816 319.71C199.647 318.731 199.674 317.729 199.896 316.76C200.118 315.792 200.529 314.878 201.107 314.07C214.827 294.35 234.835 283.04 256.001 283.04C277.167 283.04 297.175 294.35 310.895 314.07C311.677 315.194 312.136 316.511 312.223 317.878C312.31 319.245 312.021 320.61 311.387 321.824C310.753 323.038 309.799 324.055 308.628 324.766C307.457 325.476 306.114 325.852 304.744 325.853Z" fill="#4E5660"/>
<path d="M137.1 276.083C130.087 276.081 123.155 274.575 116.773 271.668C110.39 268.761 104.705 264.52 100.1 259.23C98.793 257.73 98.1353 255.773 98.2715 253.788C98.4078 251.804 99.3268 249.955 100.826 248.648C102.326 247.341 104.284 246.683 106.268 246.819C108.253 246.955 110.102 247.874 111.409 249.374C114.605 253.05 118.552 255.997 122.984 258.017C127.416 260.037 132.23 261.082 137.101 261.082C141.972 261.082 146.786 260.037 151.218 258.017C155.65 255.997 159.597 253.05 162.793 249.374C164.1 247.874 165.949 246.955 167.934 246.819C169.918 246.683 171.876 247.341 173.375 248.648C174.875 249.955 175.794 251.804 175.93 253.788C176.067 255.773 175.409 257.73 174.102 259.23C169.497 264.52 163.812 268.761 157.429 271.668C151.047 274.576 144.115 276.081 137.102 276.083H137.1Z" fill="#4E5660"/>
<path d="M374.9 276.083C367.887 276.081 360.955 274.575 354.573 271.668C348.19 268.761 342.505 264.52 337.9 259.23C336.593 257.731 335.935 255.773 336.071 253.789C336.207 251.804 337.126 249.955 338.626 248.648C340.125 247.341 342.083 246.683 344.067 246.819C346.052 246.956 347.901 247.875 349.208 249.374C352.404 253.05 356.351 255.997 360.783 258.017C365.215 260.037 370.029 261.082 374.9 261.082C379.771 261.082 384.585 260.037 389.017 258.017C393.449 255.997 397.396 253.05 400.592 249.374C401.899 247.874 403.748 246.955 405.733 246.819C407.717 246.683 409.675 247.341 411.174 248.648C412.674 249.955 413.593 251.804 413.729 253.788C413.866 255.773 413.208 257.73 411.901 259.23C407.296 264.52 401.611 268.762 395.228 271.669C388.846 274.576 381.914 276.081 374.901 276.083H374.9Z" fill="#4E5660"/>
<path d="M422.545 222.497C421.56 222.497 420.585 222.303 419.675 221.926C418.766 221.548 417.94 220.995 417.245 220.297C412.271 215.324 388.117 198.207 374.567 195.046C372.684 194.545 371.069 193.33 370.066 191.659C369.063 189.989 368.75 187.993 369.192 186.095C369.635 184.197 370.799 182.546 372.437 181.491C374.076 180.437 376.061 180.062 377.972 180.445C395.621 184.563 421.942 203.792 427.847 209.696C428.894 210.745 429.608 212.081 429.897 213.535C430.185 214.989 430.037 216.496 429.47 217.865C428.903 219.235 427.942 220.406 426.71 221.23C425.478 222.054 424.029 222.495 422.547 222.496L422.545 222.497Z" fill="#EED076"/>
<path d="M89.4551 222.497C87.9727 222.496 86.5239 222.055 85.2918 221.231C84.0596 220.407 83.0993 219.236 82.5322 217.866C81.9651 216.497 81.8166 214.99 82.1054 213.536C82.3943 212.082 83.1075 210.746 84.1551 209.697C90.0551 203.797 116.381 184.564 134.03 180.446C135.967 179.994 138.005 180.33 139.694 181.38C141.383 182.43 142.586 184.109 143.038 186.046C143.49 187.983 143.154 190.02 142.104 191.71C141.053 193.399 139.375 194.602 137.438 195.054C123.888 198.216 99.7381 215.332 94.7601 220.305C94.0652 221.003 93.2392 221.556 92.3297 221.934C91.4201 222.311 90.4449 222.506 89.4601 222.505L89.4551 222.497Z" fill="#EED076"/>
<path d="M45.532 418.755C45.532 386.683 76.013 353.48 95.626 323.59C96.8367 321.748 98.4862 320.236 100.426 319.19C102.366 318.143 104.536 317.595 106.74 317.595C108.944 317.595 111.114 318.143 113.054 319.19C114.994 320.236 116.643 321.748 117.854 323.59C137.466 353.48 167.948 386.683 167.948 418.755C167.948 434.988 161.499 450.557 150.021 462.036C138.542 473.514 122.973 479.963 106.74 479.963C90.5066 479.963 74.9381 473.514 63.4594 462.036C51.9807 450.557 45.532 434.988 45.532 418.755Z" fill="#A2DDFD"/>
<path d="M162.027 445.034C89.841 457.349 66.927 397.192 69.45 360.869C56.466 379.934 45.531 399.545 45.531 418.755C45.5301 432.65 50.2564 446.131 58.9331 456.984C67.6097 467.837 79.7204 475.414 93.2746 478.472C106.829 481.529 121.02 479.884 133.515 473.808C146.011 467.731 156.067 457.584 162.031 445.034H162.027Z" fill="#7ACDF9"/>
</svg>
