<svg width="512" height="512" viewBox="0 0 512 512" fill="none" xmlns="http://www.w3.org/2000/svg">
<path d="M256.001 483.562C386.285 483.562 491.901 380.238 491.901 252.781C491.901 125.324 386.285 22 256.001 22C125.717 22 20.1006 125.324 20.1006 252.781C20.1006 380.238 125.717 483.562 256.001 483.562Z" fill="#F6EE86"/>
<path d="M414.375 423.822C86.8546 443.822 58.3936 190.322 191.716 30.6709C92.6716 58.0499 20.1006 147.123 20.1006 252.781C20.1006 380.238 125.717 483.562 256.001 483.562C314.329 483.73 370.688 462.471 414.375 423.822Z" fill="#EED076"/>
<path d="M123.229 264.956C150.285 264.956 172.219 247.489 172.219 225.943C172.219 204.397 150.285 186.93 123.229 186.93C96.1721 186.93 74.2385 204.397 74.2385 225.943C74.2385 247.489 96.1721 264.956 123.229 264.956Z" fill="#E7889D"/>
<path d="M388.772 264.956C415.829 264.956 437.762 247.489 437.762 225.943C437.762 204.397 415.829 186.93 388.772 186.93C361.716 186.93 339.782 204.397 339.782 225.943C339.782 247.489 361.716 264.956 388.772 264.956Z" fill="#E7889D"/>
<path d="M300.225 217.38C300.227 212.365 298.931 207.434 296.465 203.068C293.998 198.701 290.443 195.047 286.147 192.46C277.039 187.001 266.619 184.118 256.001 184.118C245.382 184.118 234.963 187.001 225.855 192.46C221.558 195.047 218.004 198.701 215.537 203.068C213.07 207.434 211.775 212.365 211.777 217.38V288.107C211.777 299.836 216.436 311.084 224.73 319.378C233.023 327.672 244.272 332.331 256.001 332.331C267.73 332.331 278.978 327.672 287.272 319.378C295.565 311.084 300.225 299.836 300.225 288.107V217.38Z" fill="#4E5660"/>
<path d="M151.43 205.813C177.362 205.813 198.385 184.791 198.385 158.858C198.385 132.926 177.362 111.903 151.43 111.903C125.497 111.903 104.475 132.926 104.475 158.858C104.475 184.791 125.497 205.813 151.43 205.813Z" fill="white"/>
<path d="M360.572 205.813C386.504 205.813 407.527 184.791 407.527 158.858C407.527 132.926 386.504 111.903 360.572 111.903C334.639 111.903 313.617 132.926 313.617 158.858C313.617 184.791 334.639 205.813 360.572 205.813Z" fill="white"/>
<path d="M163.278 158.858C163.278 156.515 162.583 154.224 161.281 152.276C159.979 150.327 158.129 148.809 155.964 147.912C153.799 147.015 151.416 146.781 149.118 147.238C146.82 147.695 144.709 148.823 143.052 150.48C141.395 152.137 140.266 154.248 139.809 156.547C139.352 158.845 139.587 161.227 140.483 163.392C141.38 165.557 142.899 167.407 144.847 168.709C146.796 170.011 149.086 170.706 151.43 170.706C152.985 170.706 154.526 170.4 155.964 169.804C157.401 169.209 158.707 168.336 159.807 167.236C160.908 166.136 161.78 164.83 162.376 163.392C162.971 161.955 163.278 160.414 163.278 158.858Z" fill="#4E5660"/>
<path d="M348.725 158.858C348.725 156.515 349.419 154.224 350.721 152.276C352.023 150.327 353.874 148.809 356.039 147.912C358.204 147.015 360.586 146.781 362.884 147.238C365.182 147.695 367.293 148.823 368.95 150.48C370.607 152.137 371.736 154.248 372.193 156.547C372.65 158.845 372.415 161.227 371.519 163.392C370.622 165.557 369.103 167.407 367.155 168.709C365.207 170.011 362.916 170.706 360.573 170.706C359.017 170.706 357.476 170.4 356.039 169.804C354.601 169.209 353.295 168.336 352.195 167.236C351.095 166.136 350.222 164.83 349.626 163.392C349.031 161.955 348.725 160.414 348.725 158.858Z" fill="#4E5660"/>
</svg>
