<svg width="512" height="512" viewBox="0 0 512 512" fill="none" xmlns="http://www.w3.org/2000/svg">
<path d="M262.218 511.774C399.901 511.774 511.515 402.582 511.515 267.887C511.515 133.192 399.901 24 262.218 24C124.535 24 12.9211 133.192 12.9211 267.887C12.9211 402.582 124.535 511.774 262.218 511.774Z" fill="#F6EE86"/>
<path d="M429.586 448.642C83.4672 469.773 53.3861 201.881 194.286 33.1641C89.6141 62.0971 12.9211 156.229 12.9211 267.887C12.9211 402.587 124.535 511.774 262.221 511.774C323.861 511.952 383.42 489.486 429.586 448.642Z" fill="#EED076"/>
<path d="M130.862 374.402C157.63 374.402 179.33 357.122 179.33 335.805C179.33 314.488 157.63 297.208 130.862 297.208C104.094 297.208 82.394 314.488 82.394 335.805C82.394 357.122 104.094 374.402 130.862 374.402Z" fill="#E7889D"/>
<path d="M393.575 374.402C420.343 374.402 442.043 357.122 442.043 335.805C442.043 314.488 420.343 297.208 393.575 297.208C366.807 297.208 345.107 314.488 345.107 335.805C345.107 357.122 366.807 374.402 393.575 374.402Z" fill="#E7889D"/>
<path d="M305.966 353.727C304.755 353.729 303.562 353.437 302.489 352.877C301.415 352.317 300.494 351.504 299.803 350.51C290.189 336.691 276.49 328.765 262.219 328.765C247.948 328.765 234.248 336.691 224.635 350.51C224.073 351.318 223.357 352.008 222.528 352.54C221.698 353.072 220.773 353.435 219.803 353.609C218.834 353.783 217.84 353.764 216.877 353.554C215.915 353.344 215.004 352.946 214.195 352.384C213.387 351.821 212.697 351.105 212.165 350.276C211.633 349.447 211.27 348.521 211.096 347.552C210.922 346.583 210.941 345.588 211.151 344.626C211.361 343.664 211.759 342.752 212.321 341.944C224.779 324.036 242.966 313.766 262.221 313.766C281.476 313.766 299.659 324.037 312.121 341.944C312.903 343.068 313.363 344.385 313.449 345.752C313.536 347.118 313.247 348.483 312.614 349.697C311.98 350.911 311.026 351.928 309.855 352.639C308.685 353.349 307.342 353.725 305.972 353.727H305.966Z" fill="#4E5660"/>
<path d="M155.511 309.06C149.107 309.058 142.777 307.683 136.949 305.029C131.121 302.374 125.929 298.501 121.724 293.671C121.077 292.928 120.582 292.066 120.269 291.132C119.955 290.198 119.828 289.212 119.896 288.23C119.963 287.247 120.223 286.287 120.662 285.405C121.1 284.523 121.708 283.736 122.45 283.089C123.193 282.442 124.055 281.947 124.989 281.633C125.923 281.32 126.909 281.193 127.891 281.26C128.874 281.328 129.834 281.588 130.716 282.026C131.598 282.465 132.385 283.072 133.032 283.815C135.828 287.031 139.282 289.61 143.16 291.377C147.038 293.144 151.25 294.059 155.511 294.059C159.773 294.059 163.985 293.144 167.863 291.377C171.741 289.61 175.194 287.031 177.99 283.815C178.637 283.072 179.424 282.465 180.306 282.026C181.188 281.588 182.148 281.327 183.131 281.26C184.113 281.192 185.099 281.319 186.033 281.633C186.967 281.946 187.83 282.441 188.572 283.088C189.315 283.735 189.923 284.522 190.361 285.404C190.799 286.286 191.06 287.246 191.127 288.228C191.195 289.211 191.068 290.197 190.754 291.131C190.441 292.065 189.946 292.927 189.299 293.67C185.094 298.501 179.902 302.374 174.074 305.029C168.245 307.683 161.916 309.058 155.511 309.06Z" fill="#4E5660"/>
<path d="M368.926 309.06C362.522 309.058 356.192 307.684 350.364 305.029C344.536 302.375 339.344 298.501 335.139 293.671C333.832 292.171 333.175 290.214 333.311 288.229C333.447 286.245 334.367 284.396 335.866 283.089C337.366 281.782 339.323 281.124 341.308 281.261C343.292 281.397 345.141 282.316 346.448 283.816C349.244 287.032 352.697 289.611 356.575 291.378C360.453 293.146 364.665 294.06 368.927 294.06C373.188 294.06 377.4 293.146 381.278 291.378C385.156 289.611 388.609 287.032 391.405 283.816C392.712 282.316 394.561 281.397 396.546 281.261C398.531 281.125 400.488 281.782 401.988 283.089C403.487 284.396 404.406 286.246 404.543 288.23C404.679 290.215 404.021 292.172 402.714 293.672C398.509 298.502 393.317 302.374 387.488 305.029C381.66 307.683 375.331 309.058 368.926 309.06Z" fill="#4E5660"/>
<path d="M49.5 117.897C27.7788 147.267 12.6751 180.992 5.22705 216.754C37.6271 202.834 143.266 171.454 262.211 171.454C357.562 171.454 444.364 191.621 491.738 206.792C494.462 207.67 497.376 207.775 500.156 207.097C502.936 206.418 505.473 204.981 507.486 202.947C509.498 200.913 510.907 198.36 511.556 195.573C512.204 192.785 512.067 189.873 511.16 187.159C501.017 157.351 485.445 129.677 465.231 105.535C407.686 91.859 335.3 81.002 262.211 81.002C195.111 81.002 128.604 90.153 73.6291 102.233C63.9541 104.359 55.3799 109.925 49.5 117.897Z" fill="#8DAEE1"/>
<path d="M465.232 105.534C407.687 91.86 335.3 81.002 262.212 81.002C230.726 81.0767 199.269 82.93 167.992 86.553C118.834 108.091 70.9484 132.424 24.57 159.432C15.8349 177.69 9.34003 196.937 5.22705 216.754C37.6271 202.834 143.266 171.454 262.211 171.454C277.211 171.454 292.004 171.954 306.464 172.854C362.751 152.421 420.398 135.947 478.982 123.554C474.661 117.35 470.077 111.344 465.232 105.535V105.534Z" fill="#6A95D6"/>
<path d="M465.186 105.479C442.724 78.6414 415.131 56.5582 384.023 40.524C377.079 36.9603 369.036 36.1823 361.538 38.349C298.988 56.3296 237.708 78.4669 178.108 104.613C118.678 130.674 62.5081 159.925 12.0221 190.963C4.03865 215.823 -0.0174522 241.776 5.64412e-05 267.887C5.64412e-05 272.46 0.123056 277.004 0.369056 281.52C0.487533 283.957 1.25206 286.319 2.58426 288.364C3.91645 290.408 5.76839 292.062 7.95022 293.155C10.132 294.248 12.5653 294.741 15.0004 294.583C17.4356 294.426 19.7851 293.624 21.8081 292.259C77.5001 254.487 143.3 218.641 214.432 187.449C296.744 151.349 382.759 123.276 465.186 105.479Z" fill="#A2DDFD"/>
</svg>
