<svg width="512" height="512" viewBox="0 0 512 512" fill="none" xmlns="http://www.w3.org/2000/svg">
<path d="M249.461 512.181C363.486 512.181 455.922 421.751 455.922 310.2C455.922 198.649 363.486 108.219 249.461 108.219C135.436 108.219 43 198.649 43 310.2C43 421.751 135.436 512.181 249.461 512.181Z" fill="#F6EE86"/>
<path d="M388.071 459.896C101.424 477.397 76.514 255.536 193.2 115.809C106.515 139.77 43 217.727 43 310.2C43 421.751 135.436 512.181 249.461 512.181C300.511 512.329 349.837 493.723 388.071 459.896Z" fill="#EED076"/>
<path d="M120.102 373.487C146.463 373.487 167.833 356.469 167.833 335.476C167.833 314.483 146.463 297.465 120.102 297.465C93.741 297.465 72.3711 314.483 72.3711 335.476C72.3711 356.469 93.741 373.487 120.102 373.487Z" fill="#E7889D"/>
<path d="M378.821 373.243C405.182 373.243 426.552 356.225 426.552 335.232C426.552 314.239 405.182 297.221 378.821 297.221C352.46 297.221 331.09 314.239 331.09 335.232C331.09 356.225 352.46 373.243 378.821 373.243Z" fill="#E7889D"/>
<path d="M249.445 342.19C261.238 342.19 270.798 331.226 270.798 317.701C270.798 304.176 261.238 293.212 249.445 293.212C237.652 293.212 228.092 304.176 228.092 317.701C228.092 331.226 237.652 342.19 249.445 342.19Z" fill="#4E5660"/>
<path d="M147.862 279.941C143.645 279.942 139.477 280.846 135.638 282.592C131.799 284.338 128.379 286.886 125.607 290.064C124.299 291.562 123.64 293.519 123.774 295.504C123.909 297.488 124.826 299.338 126.325 300.646C127.823 301.955 129.78 302.614 131.764 302.479C133.749 302.345 135.599 301.427 136.907 299.929C138.272 298.364 139.955 297.109 141.845 296.248C143.735 295.388 145.787 294.942 147.863 294.941H147.876C149.955 294.944 152.009 295.393 153.899 296.257C155.79 297.121 157.473 298.38 158.836 299.95C160.143 301.445 161.99 302.36 163.971 302.495C165.952 302.631 167.906 301.975 169.404 300.671C170.903 299.368 171.823 297.524 171.963 295.543C172.104 293.562 171.453 291.606 170.153 290.105C167.384 286.918 163.964 284.362 160.124 282.609C156.283 280.856 152.112 279.946 147.89 279.941H147.863H147.862Z" fill="#4E5660"/>
<path d="M350.944 280.133C346.727 280.134 342.56 281.038 338.721 282.784C334.883 284.529 331.463 287.077 328.691 290.255C327.383 291.753 326.724 293.71 326.858 295.695C326.993 297.679 327.91 299.529 329.409 300.837C330.907 302.145 332.864 302.805 334.848 302.67C336.833 302.536 338.683 301.618 339.991 300.12C341.355 298.555 343.039 297.3 344.928 296.44C346.818 295.58 348.87 295.134 350.946 295.133H350.96C353.039 295.136 355.092 295.585 356.983 296.448C358.873 297.312 360.556 298.571 361.919 300.141C363.225 301.642 365.073 302.562 367.057 302.701C369.041 302.839 370.999 302.183 372.5 300.878C374.001 299.572 374.922 297.724 375.06 295.74C375.198 293.756 374.542 291.798 373.237 290.297C370.468 287.11 367.048 284.554 363.208 282.801C359.367 281.047 355.196 280.138 350.974 280.133H350.945H350.944Z" fill="#4E5660"/>
<path d="M407.383 158.736C407.383 141.323 425.277 135.096 425.277 103.823C425.277 90.2909 419.902 77.3133 410.333 67.7448C400.765 58.1763 387.787 52.8008 374.255 52.8008C360.724 52.8008 347.746 58.1763 338.177 67.7448C328.609 77.3133 323.233 90.2909 323.233 103.823C323.233 135.096 341.127 141.323 341.127 158.736H407.383Z" fill="#F6EE86"/>
<path d="M409.126 177.893H339.384L349.115 215.531C350.279 220.034 352.907 224.023 356.585 226.871C360.262 229.719 364.782 231.264 369.434 231.264H379.076C383.727 231.263 388.247 229.718 391.925 226.87C395.603 224.023 398.23 220.034 399.395 215.531L409.126 177.893Z" fill="#4E5660"/>
<path d="M407.911 158.736H340.6C336.951 158.736 333.452 160.186 330.872 162.766C328.292 165.346 326.843 168.845 326.843 172.493V184.181C326.843 187.83 328.292 191.329 330.872 193.909C333.452 196.489 336.951 197.938 340.6 197.938H407.911C411.559 197.938 415.058 196.489 417.638 193.909C420.218 191.329 421.668 187.83 421.668 184.181V172.493C421.668 168.845 420.218 165.346 417.638 162.766C415.058 160.186 411.559 158.736 407.911 158.736Z" fill="#8DE1E0"/>
<path d="M340.6 197.936H407.911C411.559 197.936 415.058 196.487 417.638 193.907C420.218 191.327 421.668 187.828 421.668 184.179V172.491C421.664 171.931 421.627 171.371 421.556 170.815C412.547 176.463 397.974 181.854 374.256 181.854C350.538 181.854 335.964 176.463 326.956 170.814C326.884 171.371 326.847 171.931 326.844 172.491V184.179C326.844 187.828 328.293 191.327 330.873 193.907C333.453 196.487 336.952 197.936 340.601 197.936H340.6Z" fill="#6FCD90"/>
<path d="M374.256 27.532C372.266 27.532 370.359 26.7418 368.952 25.3353C367.546 23.9288 366.756 22.0211 366.756 20.032V7.5C366.756 5.51088 367.546 3.60322 368.952 2.1967C370.359 0.790176 372.266 0 374.256 0C376.245 0 378.152 0.790176 379.559 2.1967C380.965 3.60322 381.756 5.51088 381.756 7.5V20.032C381.756 22.0211 380.965 23.9288 379.559 25.3353C378.152 26.7418 376.245 27.532 374.256 27.532Z" fill="#EED076"/>
<path d="M298.311 75.913C297.217 75.9124 296.136 75.6718 295.146 75.208L283.789 69.908C281.998 69.06 280.615 67.5378 279.943 65.6737C279.271 63.8096 279.363 61.7552 280.201 59.9593C281.039 58.1635 282.553 56.772 284.413 56.089C286.273 55.406 288.328 55.4869 290.129 56.314L301.486 61.614C303.035 62.3348 304.291 63.5629 305.047 65.0951C305.804 66.6273 306.014 68.3717 305.644 70.0397C305.273 71.7076 304.344 73.1992 303.011 74.2674C301.677 75.3356 300.019 75.9166 298.311 75.914V75.913Z" fill="#8DE1E0"/>
<path d="M450.199 75.9129C448.49 75.9155 446.832 75.3346 445.498 74.2663C444.165 73.1981 443.236 71.7065 442.866 70.0386C442.495 68.3706 442.706 66.6262 443.462 65.094C444.218 63.5618 445.475 62.3337 447.024 61.6129L458.382 56.3129C459.275 55.8899 460.243 55.6477 461.231 55.6002C462.218 55.5527 463.205 55.7009 464.135 56.0363C465.065 56.3717 465.92 56.8876 466.65 57.5543C467.38 58.2211 467.97 59.0256 468.388 59.9215C468.806 60.8174 469.043 61.7871 469.084 62.7748C469.126 63.7625 468.972 64.7487 468.631 65.6767C468.291 66.6047 467.77 67.4562 467.099 68.1821C466.428 68.9081 465.62 69.4943 464.722 69.9069L453.364 75.2069C452.373 75.6716 451.293 75.9126 450.199 75.9129Z" fill="#EDA1AB"/>
<path d="M374.256 119.761C372.267 119.761 370.359 118.97 368.953 117.564C367.546 116.157 366.756 114.25 366.756 112.261V105.768C366.756 103.778 367.546 101.871 368.953 100.464C370.359 99.0578 372.267 98.2676 374.256 98.2676C376.245 98.2676 378.153 99.0578 379.559 100.464C380.966 101.871 381.756 103.778 381.756 105.768V112.261C381.756 114.25 380.966 116.157 379.559 117.564C378.153 118.97 376.245 119.761 374.256 119.761Z" fill="#EED076"/>
</svg>
