<svg width="513" height="512" viewBox="0 0 513 512" fill="none" xmlns="http://www.w3.org/2000/svg">
<path d="M250.218 511.774C387.901 511.774 499.515 402.582 499.515 267.887C499.515 133.192 387.901 24 250.218 24C112.535 24 0.920898 133.192 0.920898 267.887C0.920898 402.582 112.535 511.774 250.218 511.774Z" fill="#F6EE86"/>
<path d="M417.586 448.642C71.4669 469.773 41.3859 201.881 182.286 33.1641C77.6139 62.0971 0.920898 156.229 0.920898 267.887C0.920898 402.587 112.535 511.774 250.221 511.774C311.861 511.952 371.42 489.486 417.586 448.642Z" fill="#EED076"/>
<path d="M118.862 314.402C145.63 314.402 167.33 297.122 167.33 275.805C167.33 254.488 145.63 237.208 118.862 237.208C92.0938 237.208 70.3939 254.488 70.3939 275.805C70.3939 297.122 92.0938 314.402 118.862 314.402Z" fill="#E7889D"/>
<path d="M381.575 314.402C408.343 314.402 430.043 297.122 430.043 275.805C430.043 254.488 408.343 237.208 381.575 237.208C354.807 237.208 333.107 254.488 333.107 275.805C333.107 297.122 354.807 314.402 381.575 314.402Z" fill="#E7889D"/>
<path d="M293.966 293.727C292.755 293.729 291.562 293.437 290.488 292.877C289.415 292.317 288.494 291.504 287.803 290.51C278.189 276.691 264.49 268.765 250.219 268.765C235.948 268.765 222.248 276.691 212.635 290.51C212.072 291.318 211.356 292.008 210.527 292.54C209.698 293.072 208.772 293.435 207.803 293.609C206.834 293.783 205.839 293.764 204.877 293.554C203.915 293.344 203.003 292.946 202.195 292.384C201.386 291.821 200.696 291.105 200.165 290.276C199.633 289.447 199.27 288.521 199.096 287.552C198.922 286.583 198.94 285.588 199.15 284.626C199.361 283.664 199.758 282.752 200.321 281.944C212.779 264.036 230.966 253.766 250.221 253.766C269.476 253.766 287.659 264.037 300.121 281.944C300.903 283.068 301.362 284.385 301.449 285.752C301.536 287.118 301.247 288.483 300.613 289.697C299.98 290.911 299.026 291.928 297.855 292.639C296.684 293.349 295.341 293.725 293.972 293.727H293.966Z" fill="#4E5660"/>
<path d="M143.511 249.06C137.107 249.058 130.777 247.683 124.949 245.029C119.121 242.374 113.929 238.501 109.724 233.671C109.077 232.928 108.582 232.066 108.268 231.132C107.955 230.198 107.828 229.212 107.895 228.23C107.963 227.247 108.223 226.287 108.661 225.405C109.1 224.523 109.707 223.736 110.45 223.089C111.192 222.442 112.055 221.947 112.989 221.633C113.922 221.32 114.909 221.193 115.891 221.26C116.874 221.328 117.834 221.588 118.716 222.026C119.598 222.465 120.385 223.072 121.032 223.815C123.828 227.031 127.281 229.61 131.159 231.377C135.037 233.144 139.249 234.059 143.511 234.059C147.772 234.059 151.984 233.144 155.862 231.377C159.74 229.61 163.194 227.031 165.99 223.815C166.637 223.072 167.424 222.465 168.306 222.026C169.188 221.588 170.148 221.327 171.13 221.26C172.113 221.192 173.099 221.319 174.033 221.633C174.967 221.946 175.829 222.441 176.572 223.088C177.314 223.735 177.922 224.522 178.361 225.404C178.799 226.286 179.059 227.246 179.127 228.228C179.194 229.211 179.068 230.197 178.754 231.131C178.44 232.065 177.946 232.927 177.299 233.67C173.094 238.501 167.902 242.374 162.074 245.029C156.245 247.683 149.915 249.058 143.511 249.06Z" fill="#4E5660"/>
<path d="M356.926 249.06C350.521 249.058 344.192 247.684 338.364 245.029C332.535 242.375 327.344 238.501 323.139 233.671C321.832 232.171 321.174 230.214 321.311 228.229C321.447 226.245 322.366 224.396 323.866 223.089C325.366 221.782 327.323 221.124 329.307 221.261C331.292 221.397 333.141 222.316 334.448 223.816C337.244 227.032 340.697 229.611 344.575 231.378C348.453 233.146 352.665 234.06 356.926 234.06C361.188 234.06 365.4 233.146 369.278 231.378C373.156 229.611 376.609 227.032 379.405 223.816C380.712 222.316 382.561 221.397 384.546 221.261C386.53 221.125 388.488 221.782 389.987 223.089C391.487 224.396 392.406 226.246 392.542 228.23C392.679 230.215 392.021 232.172 390.714 233.672C386.508 238.502 381.316 242.374 375.488 245.029C369.66 247.683 363.33 249.058 356.926 249.06Z" fill="#4E5660"/>
</svg>
