<svg width="512" height="512" viewBox="0 0 512 512" fill="none" xmlns="http://www.w3.org/2000/svg">
<path d="M118.635 87.366L106.621 109.888C105.504 111.981 103.839 113.73 101.805 114.95C99.7706 116.17 97.4431 116.815 95.071 116.815C92.6989 116.815 90.3714 116.17 88.3371 114.95C86.3028 113.73 84.6382 111.981 83.521 109.888L71.5 87.366C70.2773 85.0748 68.4012 83.1987 66.11 81.976L43.59 69.962C41.4975 68.8449 39.7478 67.1802 38.5278 65.1459C37.3078 63.1116 36.6634 60.7841 36.6634 58.412C36.6634 56.0399 37.3078 53.7124 38.5278 51.6781C39.7478 49.6438 41.4975 47.9792 43.59 46.862L66.112 34.843C68.4036 33.6209 70.2799 31.7446 71.502 29.453L83.517 6.93102C84.6342 4.8385 86.2988 3.08878 88.3331 1.86879C90.3674 0.648809 92.6949 0.00439453 95.067 0.00439453C97.4391 0.00439453 99.7666 0.648809 101.801 1.86879C103.835 3.08878 105.5 4.8385 106.617 6.93102L118.631 29.453C119.854 31.7442 121.73 33.6203 124.021 34.843L146.543 46.857C148.635 47.9744 150.385 49.6392 151.604 51.6734C152.824 53.7077 153.469 56.0351 153.469 58.407C153.469 60.779 152.824 63.1063 151.604 65.1406C150.385 67.1749 148.635 68.8396 146.543 69.957L124.026 81.976C121.734 83.1985 119.858 85.0747 118.635 87.366Z" fill="#6A95D6"/>
<path d="M250.681 512C389.128 512 501.362 402.202 501.362 266.759C501.362 131.316 389.128 21.5181 250.681 21.5181C112.234 21.5181 0 131.316 0 266.759C0 402.202 112.234 512 250.681 512Z" fill="#F6EE86"/>
<path d="M418.977 448.517C70.937 469.766 40.692 200.387 182.367 30.7341C77.118 59.8281 0 154.481 0 266.759C0 402.2 112.234 512 250.681 512C312.664 512.179 372.554 489.588 418.977 448.517Z" fill="#EED076"/>
<path d="M89.08 375.454C122.011 375.454 148.707 354.195 148.707 327.97C148.707 301.745 122.011 280.486 89.08 280.486C56.1489 280.486 29.453 301.745 29.453 327.97C29.453 354.195 56.1489 375.454 89.08 375.454Z" fill="#E7889D"/>
<path d="M412.281 375.454C445.212 375.454 471.908 354.195 471.908 327.97C471.908 301.745 445.212 280.486 412.281 280.486C379.35 280.486 352.654 301.745 352.654 327.97C352.654 354.195 379.35 375.454 412.281 375.454Z" fill="#E7889D"/>
<path d="M250.681 304.271C243.27 304.269 235.945 302.679 229.2 299.607C222.455 296.535 216.447 292.053 211.581 286.463C210.926 285.722 210.424 284.858 210.103 283.922C209.783 282.986 209.652 281.996 209.716 281.009C209.78 280.022 210.039 279.057 210.478 278.17C210.916 277.283 211.526 276.492 212.272 275.842C213.018 275.192 213.885 274.696 214.823 274.382C215.761 274.069 216.752 273.944 217.739 274.015C218.726 274.086 219.689 274.352 220.573 274.797C221.456 275.242 222.243 275.857 222.888 276.607C226.344 280.583 230.614 283.771 235.408 285.956C240.202 288.14 245.409 289.271 250.677 289.271C255.945 289.271 261.152 288.14 265.946 285.956C270.74 283.771 275.01 280.583 278.466 276.607C279.773 275.107 281.622 274.188 283.606 274.052C285.591 273.916 287.548 274.573 289.048 275.88C290.548 277.187 291.467 279.036 291.603 281.021C291.739 283.005 291.082 284.962 289.775 286.462C284.909 292.052 278.901 296.534 272.156 299.606C265.411 302.678 258.086 304.268 250.675 304.27L250.681 304.271Z" fill="#4E5660"/>
<path d="M149.871 205.737H99.971C95.0605 205.737 90.2121 206.835 85.7807 208.95C81.3494 211.066 77.4473 214.146 74.3603 217.965C71.2732 221.783 69.0793 226.244 67.9392 231.021C66.799 235.797 66.7416 240.768 67.771 245.569L70.535 258.458C72.7889 268.971 78.5796 278.393 86.9411 285.152C95.3026 291.912 105.729 295.599 116.481 295.6H133.354C144.106 295.6 154.533 291.912 162.894 285.153C171.256 278.394 177.046 268.971 179.3 258.458L182.064 245.569C183.094 240.768 183.037 235.798 181.897 231.022C180.757 226.246 178.564 221.785 175.478 217.967C172.391 214.148 168.49 211.068 164.059 208.952C159.629 206.836 154.781 205.737 149.871 205.737Z" fill="#4E5660"/>
<path d="M351.491 205.737H401.391C406.301 205.737 411.15 206.835 415.581 208.95C420.013 211.066 423.915 214.146 427.002 217.965C430.089 221.783 432.283 226.244 433.423 231.021C434.563 235.797 434.62 240.768 433.591 245.569L430.827 258.458C428.573 268.971 422.782 278.393 414.42 285.153C406.059 291.912 395.632 295.6 384.88 295.6H368.006C357.254 295.6 346.827 291.913 338.465 285.154C330.103 278.395 324.312 268.972 322.058 258.459L319.294 245.57C318.264 240.769 318.322 235.798 319.462 231.021C320.602 226.245 322.796 221.784 325.883 217.965C328.97 214.146 332.872 211.066 337.303 208.951C341.735 206.835 346.583 205.737 351.494 205.738L351.491 205.737Z" fill="#4E5660"/>
<path d="M401.395 198.237H351.495C341.368 198.22 331.608 202.023 324.163 208.888C275.401 202.279 225.969 202.279 177.207 208.888C169.762 202.023 160.002 198.22 149.875 198.237H99.975C93.9469 198.237 87.9951 199.586 82.5553 202.183C77.1156 204.781 72.3255 208.562 68.5359 213.25C64.7462 217.938 62.0528 223.414 60.6529 229.277C59.253 235.141 59.182 241.243 60.445 247.137L63.2 260.031C65.8616 272.198 72.5902 283.095 82.2763 290.924C91.9623 298.754 104.027 303.048 116.482 303.1H133.356C145.81 303.048 157.875 298.754 167.561 290.924C177.247 283.095 183.975 272.199 186.637 260.032L189.402 247.142C191.169 238.972 190.349 230.453 187.055 222.77C229.319 217.652 272.046 217.652 314.31 222.77C311.015 230.454 310.194 238.973 311.962 247.144L314.726 260.033C317.388 272.2 324.117 283.096 333.803 290.925C343.489 298.754 355.554 303.048 368.008 303.1H384.882C397.336 303.048 409.401 298.754 419.087 290.924C428.773 283.095 435.501 272.199 438.163 260.032L440.927 247.142C442.19 241.248 442.119 235.145 440.719 229.282C439.319 223.419 436.625 217.942 432.835 213.255C429.045 208.567 424.255 204.785 418.815 202.188C413.375 199.59 407.423 198.242 401.395 198.242V198.237ZM174.734 244L171.969 256.89C170.039 265.707 165.162 273.603 158.143 279.277C151.123 284.95 142.38 288.062 133.354 288.1H116.48C107.454 288.062 98.7104 284.949 91.6908 279.275C84.6711 273.601 79.7945 265.705 77.865 256.887L75.1 244C74.3051 240.293 74.3494 236.454 75.2296 232.766C76.1099 229.078 77.8038 225.633 80.1875 222.684C82.5711 219.735 85.584 217.356 89.0057 215.722C92.4274 214.088 96.1712 213.24 99.963 213.24H149.863C153.655 213.239 157.4 214.087 160.823 215.72C164.245 217.354 167.259 219.732 169.644 222.681C172.028 225.63 173.723 229.075 174.604 232.764C175.484 236.453 175.529 240.292 174.734 244ZM426.258 244L423.494 256.89C421.564 265.707 416.687 273.603 409.668 279.276C402.649 284.95 393.905 288.062 384.88 288.1H368.006C358.98 288.062 350.236 284.949 343.217 279.275C336.197 273.601 331.321 265.705 329.391 256.887L326.627 244C325.832 240.293 325.876 236.454 326.757 232.766C327.637 229.078 329.331 225.633 331.714 222.684C334.098 219.735 337.111 217.356 340.533 215.722C343.954 214.088 347.698 213.24 351.49 213.24H401.39C405.182 213.239 408.927 214.086 412.349 215.72C415.772 217.354 418.786 219.732 421.17 222.681C423.554 225.63 425.249 229.076 426.129 232.764C427.009 236.453 427.053 240.292 426.258 244Z" fill="#6A95D6"/>
<path d="M473.152 212.6L459.757 237.711C458.511 240.045 456.655 241.996 454.387 243.357C452.118 244.717 449.522 245.436 446.877 245.436C444.232 245.436 441.636 244.717 439.368 243.357C437.099 241.996 435.243 240.045 433.997 237.711L420.6 212.6C419.237 210.045 417.145 207.953 414.59 206.59L389.479 193.19C387.145 191.944 385.194 190.088 383.833 187.82C382.473 185.551 381.754 182.955 381.754 180.31C381.754 177.665 382.473 175.069 383.833 172.801C385.194 170.532 387.145 168.676 389.479 167.43L414.59 154.03C417.145 152.667 419.237 150.575 420.6 148.02L434 122.921C435.246 120.587 437.102 118.636 439.371 117.275C441.639 115.915 444.235 115.196 446.88 115.196C449.525 115.196 452.121 115.915 454.39 117.275C456.658 118.636 458.514 120.587 459.76 122.921L473.155 148.032C474.518 150.587 476.61 152.679 479.165 154.042L504.276 167.442C506.61 168.688 508.561 170.544 509.922 172.813C511.282 175.081 512.001 177.677 512.001 180.322C512.001 182.967 511.282 185.563 509.922 187.832C508.561 190.1 506.61 191.956 504.276 193.202L479.165 206.602C476.61 207.965 474.518 210.057 473.155 212.612L473.152 212.6Z" fill="#A2DDFD"/>
<path d="M107 482.547L94.982 505.069C93.865 507.162 92.2002 508.913 90.1654 510.134C88.1306 511.354 85.8023 511.999 83.4295 511.999C81.0567 511.999 78.7284 511.354 76.6936 510.134C74.6588 508.913 72.994 507.162 71.877 505.069L59.863 482.547C58.6412 480.255 56.7648 478.379 54.473 477.157L31.951 465.143C29.8575 464.026 28.1069 462.361 26.8862 460.326C25.6656 458.292 25.0208 455.963 25.0208 453.59C25.0208 451.218 25.6656 448.889 26.8862 446.855C28.1069 444.82 29.8575 443.155 31.951 442.038L54.473 430.024C56.7648 428.802 58.6412 426.926 59.863 424.634L71.877 402.112C72.9942 400.019 74.6588 398.27 76.6931 397.05C78.7274 395.83 81.0549 395.185 83.427 395.185C85.7991 395.185 88.1266 395.83 90.1609 397.05C92.1952 398.27 93.8598 400.019 94.977 402.112L107 424.634C108.222 426.926 110.098 428.802 112.39 430.024L134.912 442.038C137.005 443.155 138.756 444.82 139.977 446.855C141.197 448.889 141.842 451.218 141.842 453.59C141.842 455.963 141.197 458.292 139.977 460.326C138.756 462.361 137.005 464.026 134.912 465.143L112.39 477.157C110.098 478.379 108.222 480.255 107 482.547Z" fill="#7ACDF9"/>
</svg>
