<svg width="512" height="512" viewBox="0 0 512 512" fill="none" xmlns="http://www.w3.org/2000/svg">
<path d="M301.399 210.326C297.979 186.172 292.751 162.309 285.758 138.938C285.145 136.902 284.524 134.911 283.899 132.943L256.499 116.864L229.099 132.943C228.474 134.911 227.851 136.902 227.24 138.938C212.323 188.485 205.861 240.489 205.824 292.16C205.775 361.185 216.485 433.045 246.284 495.875C249.161 501.969 251.695 506.757 253.554 510.021L253.609 510.121C253.857 510.681 254.262 511.157 254.775 511.491C255.288 511.825 255.887 512.002 256.499 512.002C257.112 512.002 257.711 511.825 258.224 511.491C258.737 511.157 259.142 510.681 259.39 510.121C259.409 510.089 259.426 510.056 259.445 510.021C261.306 506.756 263.838 501.968 266.715 495.875C296.415 432.99 307.315 361.227 307.175 292.16C307.172 264.78 305.241 237.435 301.399 210.326Z" fill="#D2D2D2"/>
<path d="M209.899 223.038C207.172 245.977 205.81 269.058 205.821 292.158C205.817 297.691 205.886 303.242 206.029 308.809C222.314 310.36 239.269 311.17 256.497 311.17C273.725 311.17 290.691 310.359 306.981 308.807C307.114 303.244 307.178 297.694 307.172 292.157C307.152 269.056 305.776 245.977 303.054 223.037H209.899V223.038Z" fill="#B8B8B8"/>
<path d="M390.11 186.781C358.433 173.975 310.347 165.812 256.5 165.812C202.653 165.812 154.567 173.975 122.89 186.781C118.661 188.504 115.043 191.45 112.499 195.241C109.955 199.033 108.601 203.498 108.611 208.064V238.021C108.602 242.588 109.956 247.053 112.501 250.845C115.045 254.637 118.664 257.583 122.893 259.306C154.57 272.106 202.654 280.267 256.499 280.267C310.344 280.267 358.428 272.104 390.105 259.306C394.334 257.584 397.953 254.638 400.498 250.846C403.042 247.053 404.397 242.588 404.387 238.021V208.064C404.397 203.498 403.043 199.033 400.5 195.241C397.956 191.45 394.338 188.504 390.11 186.781Z" fill="#C86D5C"/>
<path d="M256.499 479.347C205.982 479.347 158.28 463.316 122.182 434.209C84.6198 403.92 63.9338 363.209 63.9338 319.565C63.9338 313.393 66.3855 307.475 70.7495 303.111C75.1134 298.747 81.0322 296.295 87.2038 296.295C93.3754 296.295 99.2942 298.747 103.658 303.111C108.022 307.475 110.474 313.393 110.474 319.565C110.474 382.008 175.981 432.809 256.501 432.809C337.021 432.809 402.528 382.009 402.528 319.565C402.528 313.393 404.979 307.475 409.343 303.111C413.707 298.747 419.626 296.295 425.798 296.295C431.969 296.295 437.888 298.747 442.252 303.111C446.616 307.475 449.068 313.393 449.068 319.565C449.068 363.206 428.381 403.919 390.82 434.209C354.717 463.317 307.016 479.347 256.499 479.347Z" fill="#B8B8B8"/>
<path d="M110.472 319.565C110.472 313.393 108.02 307.475 103.656 303.111C99.2923 298.747 93.3735 296.295 87.2019 296.295C81.0303 296.295 75.1115 298.747 70.7475 303.111C66.3835 307.475 63.9319 313.393 63.9319 319.565C63.9685 344.651 70.8578 369.25 83.8559 390.706L103.933 377.22L130.184 376.332C117.657 359.632 110.472 340.238 110.472 319.565Z" fill="#9E9E9E"/>
<path d="M138.007 322.742L82.8209 276.6C81.1568 275.209 79.1672 274.262 77.038 273.849C74.9087 273.435 72.7094 273.568 70.6456 274.235C68.5817 274.903 66.7207 276.082 65.2366 277.664C63.7524 279.246 62.6935 281.178 62.1589 283.28L44.4209 352.99C43.7791 355.508 43.9171 358.162 44.8165 360.6C45.7159 363.037 47.3344 365.145 49.4577 366.643C51.5811 368.141 54.1092 368.958 56.7076 368.988C59.3059 369.017 61.852 368.257 64.0089 366.808L90.9989 348.679C92.9921 347.341 95.3205 346.588 97.7199 346.506L130.214 345.406C132.81 345.317 135.317 344.443 137.406 342.898C139.494 341.354 141.064 339.212 141.908 336.755C142.753 334.299 142.832 331.645 142.136 329.142C141.439 326.64 139.999 324.408 138.007 322.742Z" fill="#D2D2D2"/>
<path d="M425.799 296.3C419.627 296.3 413.709 298.751 409.345 303.115C404.981 307.479 402.529 313.398 402.529 319.57C402.529 340.243 395.343 359.637 382.815 376.337L409.066 377.225L429.143 390.711C442.141 369.255 449.03 344.656 449.067 319.57C449.067 316.514 448.466 313.488 447.297 310.665C446.127 307.841 444.414 305.276 442.253 303.115C440.092 300.954 437.527 299.24 434.704 298.071C431.881 296.902 428.855 296.3 425.799 296.3Z" fill="#9E9E9E"/>
<path d="M374.992 322.742L430.178 276.6C431.842 275.209 433.831 274.262 435.961 273.849C438.09 273.435 440.289 273.568 442.353 274.235C444.417 274.903 446.278 276.082 447.762 277.664C449.246 279.246 450.305 281.178 450.84 283.28L468.578 352.99C469.218 355.508 469.08 358.161 468.18 360.598C467.28 363.035 465.661 365.142 463.538 366.639C461.415 368.136 458.887 368.954 456.29 368.983C453.692 369.013 451.146 368.253 448.99 366.804L421.999 348.679C420.006 347.341 417.677 346.588 415.278 346.506L382.784 345.406C380.188 345.318 377.68 344.443 375.591 342.899C373.503 341.354 371.933 339.212 371.088 336.756C370.244 334.299 370.165 331.644 370.862 329.142C371.559 326.64 372.999 324.408 374.992 322.742Z" fill="#D2D2D2"/>
<path d="M256.499 0C242.794 0 229.398 4.06385 218.003 11.6776C206.608 19.2914 197.727 30.1132 192.482 42.7745C187.238 55.4358 185.866 69.3679 188.539 82.809C191.213 96.2501 197.812 108.597 207.503 118.287C217.193 127.978 229.54 134.577 242.981 137.251C256.422 139.924 270.354 138.552 283.015 133.308C295.677 128.063 306.498 119.182 314.112 107.787C321.726 96.3922 325.79 82.9955 325.79 69.291C325.79 50.9139 318.49 33.2894 305.495 20.2949C292.5 7.30028 274.876 0 256.499 0V0ZM256.499 99.283C250.567 99.283 244.768 97.524 239.836 94.2284C234.904 90.9329 231.06 86.2488 228.79 80.7684C226.52 75.2881 225.926 69.2577 227.083 63.4398C228.24 57.622 231.097 52.2779 235.291 48.0835C239.486 43.889 244.83 41.0325 250.648 39.8753C256.466 38.718 262.496 39.312 267.976 41.582C273.457 43.852 278.141 47.6962 281.436 52.6283C284.732 57.5605 286.491 63.3591 286.491 69.291C286.491 77.2454 283.331 84.874 277.706 90.4985C272.082 96.1231 264.453 99.283 256.499 99.283Z" fill="#B8B8B8"/>
</svg>
