<svg width="513" height="512" viewBox="0 0 513 512" fill="none" xmlns="http://www.w3.org/2000/svg">
<path d="M246.457 0H177.419L136.242 33.166L79.234 256L125.873 470.542L188.8 512H254.178L278.234 256L246.457 0Z" fill="#B35948"/>
<path d="M420.226 33.166L379.049 0H310.011L278.234 256L302.29 512H367.668L430.591 470.542L477.234 256L420.226 33.166Z" fill="#B35948"/>
<path d="M291.11 152.265H450.694L442.634 120.781H295.019L291.11 152.265Z" fill="#AD4F3D"/>
<path d="M105.774 152.265H265.358L261.449 120.781H113.834L105.774 152.265Z" fill="#AD4F3D"/>
<path d="M512.468 256C512.468 360.048 476.317 452.633 420.111 512H367.668C406.742 441.667 430.59 347.922 430.59 244.972C430.59 152.439 411.323 67.337 379.048 0H398.315C405.525 0.00378916 412.641 1.63377 419.134 4.7686C425.626 7.90343 431.328 12.4624 435.815 18.106C482.962 77.349 512.468 162.005 512.468 256Z" fill="#C86D5C"/>
<path d="M338.234 241.687C338.234 340.894 325.071 433.521 302.29 512H254.178C231.398 433.521 218.234 340.894 218.234 241.687C218.234 154.294 228.443 72 246.456 0H310.01C328.025 72 338.234 154.294 338.234 241.687Z" fill="#C86D5C"/>
<path d="M188.8 512H136.357C80.151 452.633 44 360.048 44 256C44 162.005 73.507 77.349 120.655 18.106C125.141 12.4624 130.843 7.9035 137.335 4.76865C143.827 1.63381 150.943 0.00380519 158.152 0L177.419 0C145.144 67.338 125.877 152.439 125.877 244.972C125.877 347.922 149.726 441.667 188.8 512Z" fill="#C86D5C"/>
<path d="M496.326 105.586C490.224 89.2117 482.96 73.2942 474.59 57.9549C473.616 56.1776 472.181 54.695 470.437 53.6626C468.693 52.6302 466.703 52.086 464.676 52.0869H91.792C89.7651 52.086 87.7753 52.6302 86.0311 53.6626C84.2868 54.695 82.8524 56.1776 81.878 57.9549C73.508 73.2942 66.2442 89.2117 60.142 105.586C59.5112 107.293 59.3026 109.127 59.5342 110.933C59.7658 112.738 60.4306 114.46 61.4719 115.953C62.5132 117.445 63.9001 118.664 65.5143 119.504C67.1285 120.345 68.9221 120.783 70.742 120.78H485.724C487.544 120.783 489.338 120.346 490.952 119.505C492.567 118.665 493.954 117.446 494.996 115.953C496.037 114.461 496.702 112.738 496.934 110.933C497.165 109.128 496.957 107.293 496.326 105.586Z" fill="#F2C42C"/>
<path d="M496.326 406.414C490.224 422.788 482.96 438.705 474.59 454.045C473.616 455.822 472.181 457.305 470.437 458.337C468.693 459.369 466.703 459.914 464.676 459.913H91.792C89.7651 459.914 87.7753 459.369 86.0311 458.337C84.2868 457.305 82.8524 455.822 81.878 454.045C73.508 438.705 66.2442 422.788 60.142 406.414C59.5112 404.707 59.3026 402.872 59.5342 401.067C59.7658 399.262 60.4306 397.54 61.4719 396.047C62.5132 394.554 63.9001 393.336 65.5143 392.495C67.1285 391.655 68.9221 391.217 70.742 391.22H485.724C487.544 391.217 489.338 391.654 490.952 392.495C492.567 393.335 493.954 394.554 494.996 396.046C496.037 397.539 496.702 399.261 496.934 401.067C497.165 402.872 496.957 404.706 496.326 406.414Z" fill="#F2C42C"/>
<path d="M490.718 120.781H418.528C420.595 131.093 422.406 141.587 423.963 152.265H499.945C497.267 141.505 494.191 131.011 490.718 120.781Z" fill="#B35948"/>
<path d="M221.868 152.265H334.601C333.729 141.653 332.706 131.159 331.533 120.781H224.934C223.763 131.156 222.741 141.651 221.868 152.265Z" fill="#B35948"/>
<path d="M65.7499 120.781C62.2833 131.001 59.2076 141.495 56.5229 152.265H132.505C134.059 141.598 135.871 131.103 137.94 120.781H65.7499Z" fill="#B35948"/>
<path d="M297.395 459.913L300.354 491.4H398.934L430.586 470.546L432.896 459.917L297.395 459.913Z" fill="#AD4F3D"/>
<path d="M259.073 459.913H123.567L125.877 470.542L157.529 491.4H256.114L259.073 459.913Z" fill="#AD4F3D"/>
<path d="M437.749 491.4C445.55 481.355 452.727 470.841 459.24 459.917H392.098C387.821 470.789 383.239 481.283 378.353 491.4H437.749Z" fill="#B35948"/>
<path d="M248.511 491.4H307.956C310.639 481.118 313.159 470.624 315.516 459.917H240.95C243.306 470.617 245.826 481.111 248.511 491.4Z" fill="#B35948"/>
<path d="M118.719 491.4H178.119C173.233 481.301 168.651 470.807 164.374 459.917H97.234C103.744 470.842 110.919 481.356 118.719 491.4Z" fill="#B35948"/>
</svg>
