<svg width="512" height="512" viewBox="0 0 512 512" fill="none" xmlns="http://www.w3.org/2000/svg">
<path d="M213.979 511.7C332.156 511.7 427.958 415.898 427.958 297.721C427.958 179.543 332.156 83.7417 213.979 83.7417C95.8017 83.7417 0 179.543 0 297.721C0 415.898 95.8017 511.7 213.979 511.7Z" fill="#3A484A"/>
<path d="M420.17 240.45C410.279 204.902 391.371 172.512 365.279 146.421C339.188 120.33 306.798 101.422 271.25 91.5308C267.337 98.9219 265.256 107.145 265.182 115.508C264.982 125.121 267.03 135.535 271.27 146.463C278.488 165.063 292.04 184.889 309.426 202.275C337.139 229.987 369.091 246.532 394.899 246.532C403.701 246.673 412.396 244.581 420.17 240.45Z" fill="#506366"/>
<path d="M409.056 210.599C395.911 223.744 361.09 210.233 331.279 180.423C301.468 150.613 287.959 115.79 301.1 102.65L360.6 43.1499L468.557 151.098L409.056 210.599Z" fill="#3A484A"/>
<path d="M299.619 212.083C275.375 187.839 242.494 174.219 208.208 174.219C173.922 174.219 141.041 187.839 116.797 212.083C92.797 236.083 88.03 259.361 95.05 282.602C96.3789 286.942 96.5046 291.562 95.4138 295.969C94.3229 300.375 92.0564 304.403 88.856 307.622L85.424 311.05C77.576 318.898 77.095 331.686 84.724 339.75C86.5948 341.729 88.8433 343.312 91.3367 344.407C93.83 345.502 96.5176 346.086 99.2404 346.124C101.963 346.162 104.666 345.654 107.189 344.63C109.712 343.605 112.004 342.085 113.93 340.16C110.128 343.983 107.997 349.159 108.005 354.551C108.013 359.943 110.158 365.112 113.971 368.925C117.784 372.738 122.953 374.883 128.345 374.891C133.737 374.899 138.912 372.768 142.736 368.966C138.934 372.789 136.803 377.965 136.811 383.357C136.819 388.749 138.964 393.918 142.777 397.731C146.59 401.544 151.759 403.689 157.151 403.697C162.543 403.705 167.718 401.574 171.542 397.772C169.617 399.697 168.097 401.99 167.073 404.513C166.048 407.036 165.54 409.739 165.578 412.461C165.617 415.184 166.2 417.872 167.295 420.365C168.39 422.858 169.973 425.107 171.952 426.978C180.012 434.608 192.8 434.127 200.652 426.278L204.082 422.85C207.3 419.648 211.327 417.381 215.733 416.289C220.139 415.197 224.759 415.321 229.1 416.65C252.342 423.67 275.619 418.903 299.619 394.903C323.861 370.659 337.48 337.778 337.48 303.493C337.48 269.208 323.861 236.327 299.619 212.083Z" fill="#EFEDEE"/>
<path d="M132.777 292.925C131.249 292.925 129.755 292.472 128.485 291.623C127.214 290.774 126.224 289.567 125.639 288.155C125.055 286.744 124.902 285.19 125.2 283.692C125.498 282.193 126.234 280.816 127.314 279.736L137.878 269.171C138.59 268.43 139.443 267.838 140.386 267.431C141.33 267.023 142.345 266.808 143.373 266.798C144.4 266.788 145.42 266.983 146.371 267.372C147.322 267.76 148.187 268.335 148.913 269.062C149.64 269.789 150.214 270.653 150.602 271.605C150.991 272.556 151.185 273.575 151.175 274.603C151.164 275.631 150.949 276.646 150.541 277.589C150.133 278.533 149.541 279.385 148.8 280.097L138.235 290.662C137.519 291.38 136.668 291.949 135.732 292.338C134.795 292.726 133.791 292.926 132.777 292.925Z" fill="#3A484A"/>
<path d="M226.505 386.65C224.977 386.65 223.483 386.197 222.213 385.348C220.942 384.499 219.952 383.292 219.367 381.88C218.783 380.469 218.63 378.915 218.928 377.417C219.226 375.918 219.962 374.541 221.042 373.461L231.607 362.896C232.323 362.171 233.175 361.595 234.114 361.201C235.053 360.806 236.061 360.602 237.08 360.599C238.099 360.595 239.108 360.794 240.05 361.182C240.991 361.57 241.847 362.141 242.567 362.862C243.288 363.582 243.858 364.437 244.247 365.379C244.635 366.321 244.833 367.33 244.83 368.349C244.827 369.367 244.622 370.375 244.228 371.315C243.834 372.254 243.258 373.106 242.533 373.822L231.968 384.39C231.251 385.108 230.399 385.677 229.462 386.065C228.524 386.452 227.52 386.651 226.505 386.65Z" fill="#3A484A"/>
<path d="M468.557 151.099C481.702 137.954 468.191 103.132 438.38 73.3205C408.569 43.5095 373.746 29.9987 360.602 43.1433C347.457 56.288 360.968 91.1105 390.779 120.922C420.59 150.733 455.412 164.243 468.557 151.099Z" fill="#506366"/>
<path d="M410.315 101.361C407.367 98.4035 405.536 94.5149 405.135 90.3583C404.734 86.2017 405.787 82.0346 408.115 78.5679C434.785 38.8599 467.032 21.0059 487.826 13.1559C490.346 12.2109 493.047 11.8479 495.727 12.0941C498.407 12.3403 500.997 13.1893 503.303 14.5776C505.608 15.9659 507.57 17.8575 509.042 20.111C510.513 22.3645 511.456 24.9216 511.8 27.5909L511.85 27.9759C512.357 31.9717 511.504 36.0218 509.429 39.4738C507.353 42.9259 504.177 45.579 500.41 47.0059C485.184 52.8499 459.683 66.7169 438.381 98.1839C432.991 106.146 422.366 109.062 414.051 104.233C412.688 103.44 411.432 102.475 410.315 101.361Z" fill="#EFEDEE"/>
<path d="M511.851 27.9749L511.801 27.5899C511.39 24.39 510.12 21.3612 508.125 18.8256C506.13 16.29 503.485 14.3424 500.472 13.1899C500.974 14.5115 501.319 15.8877 501.499 17.2899L501.549 17.6749C502.056 21.6707 501.203 25.7208 499.128 29.1728C497.052 32.6249 493.876 35.278 490.109 36.7049C474.884 42.5519 449.383 56.4159 428.081 87.8829C425.782 91.3597 422.381 93.9627 418.424 95.2736C414.468 96.5845 410.185 96.5272 406.265 95.1109C407.163 97.4555 408.543 99.5854 410.316 101.363C411.432 102.478 412.688 103.442 414.053 104.233C422.368 109.061 432.993 106.147 438.383 98.1839C459.683 66.7169 485.183 52.8519 500.41 47.0049C504.177 45.5786 507.354 42.9257 509.43 39.4735C511.505 36.0213 512.358 31.9709 511.851 27.9749Z" fill="#D2D2D2"/>
</svg>
