<svg width="512" height="512" viewBox="0 0 512 512" fill="none" xmlns="http://www.w3.org/2000/svg">
<path d="M260.417 2.3599C259.797 1.62123 259.024 1.02725 258.15 0.619709C257.276 0.212171 256.324 0.000976563 255.36 0.000976562C254.396 0.000976563 253.443 0.212171 252.57 0.619709C251.696 1.02725 250.922 1.62123 250.303 2.3599C240.691 13.8009 220.738 40.3049 220.738 63.1389C220.738 67.6855 221.633 72.1876 223.373 76.3882C225.113 80.5887 227.663 84.4054 230.878 87.6204C234.093 90.8353 237.91 93.3855 242.111 95.1255C246.311 96.8654 250.813 97.7609 255.36 97.7609C259.906 97.7609 264.409 96.8654 268.609 95.1255C272.81 93.3855 276.626 90.8353 279.841 87.6204C283.056 84.4054 285.606 80.5887 287.346 76.3882C289.086 72.1876 289.982 67.6855 289.982 63.1389C289.977 40.3049 270.027 13.7999 260.417 2.3599Z" fill="#FADC60"/>
<path d="M241.341 63.1389C241.341 43.9329 255.457 22.1389 265.661 8.88192C263.734 6.38192 261.943 4.18192 260.416 2.35892C259.796 1.62026 259.023 1.02627 258.149 0.618733C257.275 0.211195 256.323 0 255.359 0C254.395 0 253.442 0.211195 252.569 0.618733C251.695 1.02627 250.921 1.62026 250.302 2.35892C240.691 13.7999 220.737 40.2999 220.737 63.1369C220.741 68.5643 222.02 73.9149 224.471 78.7574C226.922 83.5999 230.476 87.7989 234.847 91.0159C239.218 94.233 244.284 96.3782 249.637 97.2787C254.989 98.1791 260.478 97.8096 265.661 96.1999C258.612 94.0016 252.451 89.6079 248.076 83.6603C243.7 77.7127 241.341 70.5224 241.341 63.1389Z" fill="#F2C42C"/>
<path d="M255.359 177.588C253.31 177.588 251.345 176.774 249.896 175.325C248.447 173.876 247.633 171.911 247.633 169.862V76.6327C247.633 74.5837 248.447 72.6185 249.896 71.1696C251.345 69.7207 253.31 68.9067 255.359 68.9067C257.408 68.9067 259.373 69.7207 260.822 71.1696C262.271 72.6185 263.085 74.5837 263.085 76.6327V169.86C263.085 170.875 262.885 171.879 262.497 172.817C262.109 173.755 261.54 174.607 260.823 175.324C260.105 176.042 259.253 176.611 258.316 176.999C257.378 177.388 256.374 177.588 255.359 177.588Z" fill="#3A484A"/>
<path d="M308.078 147.945H204.267V404.254H308.078V147.945Z" fill="#D2D2D2"/>
<path d="M349.449 371.249V392.931C324.842 392.931 312.476 468.638 312.476 468.638L256.177 490.32L199.877 468.639C199.877 468.639 187.512 392.932 162.904 392.932V371.25H349.449V371.249Z" fill="#FADC60"/>
<path d="M241.086 468.637C241.086 468.637 228.721 392.93 204.113 392.93V371.249H162.906V392.93C187.513 392.93 199.879 468.637 199.879 468.637L256.177 490.319L276.777 482.385L241.086 468.637Z" fill="#F2C42C"/>
<path d="M349.449 349.568H162.906C158.422 349.568 154.122 351.349 150.952 354.52C147.781 357.69 146 361.99 146 366.474V376.025C146 380.509 147.781 384.809 150.952 387.979C154.122 391.15 158.422 392.931 162.906 392.931H349.449C351.669 392.931 353.868 392.494 355.919 391.644C357.97 390.794 359.833 389.549 361.403 387.979C362.973 386.409 364.219 384.546 365.068 382.495C365.918 380.443 366.355 378.245 366.355 376.025V366.474C366.355 361.99 364.573 357.69 361.403 354.52C358.233 351.349 353.933 349.568 349.449 349.568Z" fill="#F2C42C"/>
<path d="M187.208 376.025V366.474C187.208 364.254 187.645 362.055 188.495 360.004C189.344 357.953 190.59 356.089 192.16 354.52C193.729 352.95 195.593 351.704 197.644 350.855C199.695 350.005 201.894 349.568 204.114 349.568H162.907C158.423 349.568 154.123 351.349 150.953 354.52C147.782 357.69 146.001 361.99 146.001 366.474V376.025C146.001 380.509 147.782 384.809 150.953 387.979C154.123 391.15 158.423 392.931 162.907 392.931H204.114C199.63 392.931 195.33 391.149 192.16 387.979C188.989 384.809 187.208 380.509 187.208 376.025Z" fill="#E0B629"/>
<path d="M312.477 468.637H199.877C195.394 468.638 191.096 470.42 187.927 473.59C184.757 476.761 182.977 481.06 182.977 485.543V495.094C182.977 499.576 184.757 503.876 187.927 507.046C191.096 510.216 195.394 511.998 199.877 512H312.477C316.961 512 321.261 510.219 324.431 507.048C327.602 503.878 329.383 499.577 329.383 495.094V485.543C329.383 481.059 327.602 476.759 324.431 473.589C321.261 470.418 316.961 468.637 312.477 468.637Z" fill="#F2C42C"/>
<path d="M224.177 495.094V485.543C224.177 481.059 225.958 476.759 229.129 473.588C232.299 470.418 236.599 468.637 241.083 468.637H199.877C195.394 468.638 191.096 470.42 187.927 473.59C184.757 476.761 182.977 481.06 182.977 485.543V495.094C182.977 499.576 184.757 503.876 187.927 507.046C191.096 510.216 195.394 511.998 199.877 512H241.084C238.864 512 236.665 511.563 234.614 510.713C232.563 509.864 230.699 508.619 229.129 507.049C227.559 505.479 226.313 503.615 225.464 501.564C224.614 499.512 224.177 497.314 224.177 495.094Z" fill="#E0B629"/>
<path d="M303.157 129.719H209.198C203.797 129.719 198.617 131.864 194.798 135.683C190.979 139.502 188.834 144.682 188.834 150.083V188.6C188.834 200.772 198.299 211.139 210.464 211.571C213.479 211.681 216.485 211.182 219.303 210.104C222.12 209.026 224.692 207.391 226.864 205.298C229.035 203.204 230.763 200.693 231.943 197.917C233.123 195.14 233.731 192.155 233.731 189.138V209.727C233.731 221.899 243.196 232.266 255.361 232.698C258.376 232.808 261.382 232.309 264.2 231.231C267.017 230.153 269.589 228.518 271.761 226.424C273.932 224.331 275.66 221.82 276.84 219.044C278.02 216.267 278.628 213.282 278.628 210.265V168.011C278.628 171.028 279.236 174.014 280.416 176.79C281.596 179.567 283.323 182.077 285.495 184.171C287.667 186.265 290.239 187.899 293.056 188.977C295.874 190.055 298.88 190.554 301.895 190.444C314.059 190.011 323.525 179.644 323.525 167.473V150.081C323.523 144.68 321.376 139.501 317.557 135.683C313.737 131.864 308.558 129.719 303.157 129.719Z" fill="#EFEDEE"/>
</svg>
