<svg width="513" height="512" viewBox="0 0 513 512" fill="none" xmlns="http://www.w3.org/2000/svg">
<path d="M84.5086 195.1C83.037 195.1 81.5971 194.672 80.3646 193.868L33.6166 163.454C30.624 161.507 26.9805 160.829 23.4877 161.568C19.9948 162.307 16.9387 164.404 14.9916 167.396C13.8883 169.083 12.1614 170.262 10.1896 170.677C8.21771 171.092 6.16184 170.708 4.47273 169.609C2.78363 168.51 1.59915 166.787 1.17902 164.816C0.75889 162.845 1.1374 160.788 2.23156 159.096C6.38072 152.72 12.893 148.252 20.3359 146.677C27.7788 145.102 35.5426 146.548 41.9196 150.696L88.6676 181.11C90.0437 182.005 91.0935 183.322 91.6603 184.862C92.2272 186.403 92.2808 188.085 91.813 189.659C91.3452 191.233 90.3812 192.613 89.0648 193.594C87.7484 194.574 86.1502 195.103 84.5086 195.101V195.1Z" fill="#EFEDEE"/>
<path d="M88.6666 181.108L41.9196 150.694C38.4792 148.449 34.5954 146.971 30.5326 146.362L22.3326 158.962C21.5496 160.17 20.8445 161.427 20.2216 162.725C21.2552 162.202 22.3519 161.814 23.4846 161.57C25.2138 161.2 26.9993 161.176 28.7379 161.499C30.4765 161.823 32.1336 162.488 33.6136 163.456L80.3616 193.87C82.0536 194.941 84.0992 195.301 86.0553 194.874C88.0113 194.447 89.7202 193.266 90.8119 191.588C91.9035 189.909 92.29 187.868 91.8875 185.907C91.485 183.946 90.326 182.222 88.6616 181.109L88.6666 181.108Z" fill="#D2D2D2"/>
<path d="M49.5606 154.332L39.3476 170.032C38.4137 171.468 37.7717 173.073 37.4582 174.756C37.1447 176.44 37.1658 178.168 37.5205 179.843C37.8751 181.519 38.5563 183.108 39.525 184.519C40.4938 185.931 41.7312 187.139 43.1666 188.072L87.2076 216.726L111.642 179.17L67.5996 150.517C64.7014 148.632 61.1729 147.974 57.7901 148.689C54.4072 149.405 51.447 151.435 49.5606 154.332Z" fill="#3A484A"/>
<path d="M45.5206 249.427C47.6557 259.514 51.8097 269.063 57.7326 277.502C63.6554 285.941 71.2246 293.094 79.9845 298.53C88.7444 303.967 98.5137 307.574 108.705 309.136C118.895 310.698 129.297 310.181 139.283 307.617L468.6 223.069L477.744 157.916L442.991 102.09L107.662 158.235C97.4933 159.938 87.7747 163.68 79.0908 169.237C70.4069 174.794 62.9373 182.051 57.1316 190.571C51.326 199.091 47.3044 208.697 45.309 218.812C43.3135 228.927 43.3855 239.341 45.5206 249.427Z" fill="#506366"/>
<path d="M468.6 196.683L139.28 281.232C129.294 283.796 118.892 284.312 108.701 282.751C98.5105 281.189 88.7411 277.581 79.9812 272.144C71.2213 266.708 63.6521 259.555 57.7293 251.116C51.8065 242.677 47.6526 233.127 45.5176 223.041C45.3266 222.141 45.1766 221.241 45.0176 220.341C43.3144 229.977 43.4842 239.852 45.5176 249.424C47.6523 259.511 51.8062 269.062 57.7292 277.501C63.6522 285.94 71.2217 293.094 79.9821 298.53C88.7424 303.967 98.5124 307.575 108.704 309.137C118.895 310.698 129.297 310.181 139.284 307.617L468.6 223.069L477.744 157.916L474.722 153.062L468.6 196.683Z" fill="#3A484A"/>
<path d="M107.662 158.235L139.283 307.617C140.516 313.439 144.011 318.532 149 321.776C153.988 325.02 160.061 326.15 165.883 324.917C168.765 324.307 171.5 323.135 173.93 321.468C176.36 319.801 178.438 317.672 180.044 315.202C181.651 312.731 182.756 309.969 183.295 307.072C183.835 304.175 183.798 301.2 183.188 298.317L151.566 148.941C150.332 143.12 146.837 138.027 141.848 134.783C136.86 131.538 130.787 130.408 124.966 131.641C119.145 132.874 114.052 136.368 110.807 141.355C107.562 146.342 106.43 152.414 107.662 158.235Z" fill="#FADC60"/>
<path d="M314.66 123.592L342.564 255.417C343.797 261.239 347.292 266.332 352.281 269.576C357.269 272.82 363.342 273.95 369.164 272.717C374.985 271.484 380.078 267.988 383.322 263C386.567 258.012 387.697 251.939 386.464 246.117L358.564 114.295C357.953 111.412 356.781 108.678 355.114 106.248C353.447 103.818 351.318 101.74 348.848 100.133C346.378 98.5263 343.615 97.4217 340.718 96.8824C337.821 96.3431 334.846 96.3797 331.964 96.9902C329.081 97.6005 326.346 98.7727 323.916 100.44C321.486 102.107 319.408 104.237 317.801 106.707C316.195 109.177 315.09 111.94 314.551 114.837C314.012 117.734 314.049 120.709 314.66 123.592Z" fill="#FADC60"/>
<path d="M442.995 102.09L468.6 223.07C469.21 225.953 470.382 228.688 472.049 231.117C473.716 233.547 475.845 235.625 478.315 237.232C480.785 238.839 483.548 239.944 486.445 240.483C489.342 241.022 492.317 240.986 495.2 240.375C501.021 239.142 506.114 235.646 509.358 230.658C512.603 225.67 513.733 219.597 512.5 213.775L486.9 92.7962C486.289 89.9132 485.117 87.1788 483.45 84.7488C481.783 82.3189 479.654 80.2412 477.184 78.6342C474.714 77.0273 471.951 75.9227 469.054 75.3834C466.157 74.8441 463.182 74.8807 460.3 75.4912C457.417 76.1013 454.682 77.2734 452.253 78.9404C449.823 80.6073 447.745 82.7366 446.138 85.2066C444.531 87.6765 443.427 90.4388 442.887 93.3357C442.348 96.2326 442.384 99.2074 442.995 102.09Z" fill="#FADC60"/>
<path d="M468.6 223.069C469.21 225.952 470.382 228.686 472.049 231.116C473.716 233.546 475.845 235.624 478.315 237.231C480.785 238.838 483.548 239.943 486.445 240.482C489.342 241.021 492.317 240.985 495.2 240.374C501.021 239.141 506.114 235.645 509.358 230.657C512.603 225.668 513.733 219.596 512.5 213.774L507.585 190.517C508.321 196.117 506.917 201.789 503.655 206.399C500.392 211.01 495.51 214.22 489.984 215.389C484.163 216.622 478.09 215.492 473.102 212.248C468.113 209.003 464.618 203.91 463.385 198.089L468.6 223.069Z" fill="#F2C42C"/>
<path d="M329.276 192.641L342.564 255.417C343.145 258.328 344.298 261.095 345.956 263.557C347.614 266.019 349.744 268.127 352.223 269.76C354.702 271.393 357.48 272.518 360.397 273.07C363.313 273.622 366.31 273.589 369.214 272.975C372.118 272.36 374.871 271.175 377.314 269.488C379.757 267.802 381.841 265.648 383.445 263.15C385.05 260.653 386.143 257.862 386.661 254.939C387.179 252.017 387.112 249.02 386.464 246.123L373.1 182.986L329.276 192.641Z" fill="#F2C42C"/>
<path d="M139.284 307.617C140.517 313.439 144.012 318.532 149.001 321.776C153.989 325.02 160.062 326.15 165.884 324.917C171.705 323.684 176.798 320.188 180.042 315.2C183.287 310.212 184.417 304.139 183.184 298.317L168.322 228.097L124.494 237.751L139.284 307.617Z" fill="#F2C42C"/>
<path d="M383.255 211.926L126.564 268.473C120.008 269.917 114.142 273.556 109.937 278.789C105.731 284.021 103.439 290.532 103.439 297.245V383.875L395.931 319.441C402.486 317.997 408.352 314.358 412.557 309.125C416.763 303.893 419.055 297.382 419.056 290.669V240.699C419.056 236.292 418.067 231.941 416.162 227.966C414.257 223.992 411.485 220.495 408.05 217.734C404.614 214.973 400.603 213.018 396.312 212.013C392.021 211.008 387.559 210.978 383.255 211.926Z" fill="#C86D5C"/>
<path d="M103.44 437.833C133.241 437.833 157.4 413.674 157.4 383.873C157.4 354.072 133.241 329.913 103.44 329.913C73.6383 329.913 49.4796 354.072 49.4796 383.873C49.4796 413.674 73.6383 437.833 103.44 437.833Z" fill="#3A484A"/>
<path d="M103.44 407.367C116.415 407.367 126.934 396.848 126.934 383.873C126.934 370.898 116.415 360.379 103.44 360.379C90.4642 360.379 79.9456 370.898 79.9456 383.873C79.9456 396.848 90.4642 407.367 103.44 407.367Z" fill="#B8B8B8"/>
<path d="M335.722 437.834C372.905 437.834 403.048 407.691 403.048 370.508C403.048 333.325 372.905 303.182 335.722 303.182C298.538 303.182 268.396 333.325 268.396 370.508C268.396 407.691 298.538 437.834 335.722 437.834Z" fill="#3A484A"/>
<path d="M335.722 399.818C351.909 399.818 365.032 386.696 365.032 370.508C365.032 354.321 351.909 341.198 335.722 341.198C319.534 341.198 306.412 354.321 306.412 370.508C306.412 386.696 319.534 399.818 335.722 399.818Z" fill="#B8B8B8"/>
</svg>
