<svg width="512" height="512" viewBox="0 0 512 512" fill="none" xmlns="http://www.w3.org/2000/svg">
<path d="M176.404 366.425H140.742C140.742 366.425 53.3082 398.8 68.9422 512H111.499L119.225 505.026L126.955 512H176.404L200.098 442.155L176.404 366.425Z" fill="#506366"/>
<path d="M163.403 366.425H140.742C140.742 366.425 53.3082 398.8 68.9422 512H91.6102C75.9722 398.8 163.403 366.425 163.403 366.425Z" fill="#3A484A"/>
<path d="M304.301 499.531L213.642 430.588H176.404V512H291.78L304.301 499.531Z" fill="#EFEDEE"/>
<path d="M371.747 366.425H336.082L312.388 442.154L336.082 512H385.532L393.258 504.339L400.984 512H443.542C459.178 398.8 371.747 366.425 371.747 366.425Z" fill="#506366"/>
<path d="M111.503 512V456.542C111.503 455.527 111.703 454.523 112.091 453.585C112.479 452.648 113.048 451.796 113.766 451.079C114.483 450.361 115.335 449.792 116.272 449.404C117.21 449.016 118.214 448.816 119.229 448.816C120.244 448.816 121.248 449.016 122.186 449.404C123.123 449.792 123.975 450.361 124.692 451.079C125.409 451.796 125.979 452.648 126.367 453.585C126.755 454.523 126.955 455.527 126.955 456.542V512H111.503Z" fill="#3A484A"/>
<path d="M385.532 512V456.542C385.532 454.493 386.346 452.528 387.795 451.079C389.244 449.63 391.209 448.816 393.258 448.816C395.307 448.816 397.272 449.63 398.721 451.079C400.17 452.528 400.984 454.493 400.984 456.542V512H385.532Z" fill="#3A484A"/>
<path d="M336.082 387.551V366.425H182.556C187.839 373.769 193.517 380.821 199.565 387.55H176.403L200.097 430.588L294.342 481.026H336.082V387.551Z" fill="#EFEDEE"/>
<path d="M228.613 416C205.313 395.9 190.499 377.55 182.557 366.426H176.405V430.59C182.314 436.59 188.896 442.854 196.225 449.271C222.014 471.669 250.403 490.883 280.78 506.501C284.404 508.38 288.08 510.201 291.78 512.001H336.08V481.029C287.001 460.646 251.849 436.049 228.613 416Z" fill="#C86D5C"/>
<path d="M65.2172 274.061C86.605 274.061 103.943 256.723 103.943 235.335C103.943 213.947 86.605 196.609 65.2172 196.609C43.8294 196.609 26.4912 213.947 26.4912 235.335C26.4912 256.723 43.8294 274.061 65.2172 274.061Z" fill="#FBC4AC"/>
<path d="M447.269 274.061C468.657 274.061 485.995 256.723 485.995 235.335C485.995 213.947 468.657 196.609 447.269 196.609C425.881 196.609 408.543 213.947 408.543 235.335C408.543 256.723 425.881 274.061 447.269 274.061Z" fill="#FBC4AC"/>
<path d="M424.422 162.769H88.409V216.382C88.189 219.86 88.063 223.364 88.063 226.896C88.063 318.511 163.363 392.781 256.242 392.781C349.121 392.781 424.421 318.512 424.421 226.9C424.421 223.368 424.295 219.864 424.075 216.386H424.421V162.769H424.422Z" fill="#FBC4AC"/>
<path d="M156.327 257.91C155.312 257.91 154.308 257.711 153.37 257.322C152.433 256.934 151.581 256.365 150.864 255.648C150.146 254.93 149.577 254.078 149.189 253.141C148.801 252.204 148.601 251.199 148.601 250.184V224.632C148.601 222.583 149.415 220.618 150.864 219.169C152.313 217.72 154.278 216.906 156.327 216.906C158.376 216.906 160.341 217.72 161.79 219.169C163.239 220.618 164.053 222.583 164.053 224.632V250.184C164.053 251.199 163.853 252.204 163.465 253.141C163.077 254.078 162.508 254.93 161.79 255.648C161.073 256.365 160.221 256.934 159.284 257.322C158.346 257.711 157.342 257.91 156.327 257.91Z" fill="#3A484A"/>
<path d="M165.569 204.4L156.327 189.037L147.085 204.4C143.664 204.4 140.383 205.759 137.963 208.178C135.544 210.598 134.185 213.879 134.185 217.3C134.185 220.721 135.544 224.003 137.963 226.422C140.383 228.841 143.664 230.2 147.085 230.2H165.569C168.99 230.2 172.272 228.841 174.691 226.422C177.11 224.003 178.469 220.721 178.469 217.3C178.469 213.879 177.11 210.598 174.691 208.178C172.272 205.759 168.99 204.4 165.569 204.4Z" fill="#FD6F71"/>
<path d="M356.159 257.91C355.144 257.91 354.14 257.711 353.202 257.322C352.265 256.934 351.413 256.365 350.696 255.648C349.978 254.93 349.409 254.078 349.021 253.141C348.633 252.204 348.433 251.199 348.433 250.184V224.632C348.433 222.583 349.247 220.618 350.696 219.169C352.145 217.72 354.11 216.906 356.159 216.906C358.208 216.906 360.173 217.72 361.622 219.169C363.071 220.618 363.885 222.583 363.885 224.632V250.184C363.885 251.199 363.685 252.204 363.297 253.141C362.909 254.078 362.34 254.93 361.622 255.648C360.905 256.365 360.053 256.934 359.116 257.322C358.178 257.711 357.174 257.91 356.159 257.91Z" fill="#3A484A"/>
<path d="M346.918 204.4L356.16 189.037L365.402 204.4C368.823 204.4 372.104 205.759 374.524 208.178C376.943 210.598 378.302 213.879 378.302 217.3C378.302 220.721 376.943 224.003 374.524 226.422C372.104 228.841 368.823 230.2 365.402 230.2H346.919C343.498 230.2 340.217 228.841 337.797 226.422C335.378 224.003 334.019 220.721 334.019 217.3C334.018 215.606 334.351 213.928 334.999 212.363C335.647 210.797 336.597 209.375 337.795 208.177C338.993 206.979 340.415 206.029 341.981 205.381C343.546 204.733 345.224 204.399 346.918 204.4Z" fill="#FD6F71"/>
<path d="M65.5981 204.4C29.3191 143 -2.33692 101.13 48.4891 101.13C136.399 101.13 123.489 0 256.242 0C388.995 0 376.087 101.13 463.997 101.13C514.824 101.13 483.168 143.003 446.889 204.402H65.5981V204.4Z" fill="#C86D5C"/>
<path d="M64.6423 99.854C59.3028 100.719 53.9014 101.145 48.4923 101.128C-2.33668 101.128 29.3193 143 65.5983 204.4H108.412C79.4713 155.422 56.7423 117.557 64.6423 99.854Z" fill="#AD4F3D"/>
<path d="M447.265 216.343C447.265 212.331 447.137 208.35 446.881 204.401H404.074C404.074 296.692 359.261 303.901 359.261 303.901C318.054 313.173 297.961 270.42 256.243 270.42C214.525 270.42 194.432 313.175 153.225 303.9C153.225 303.9 108.412 296.689 108.412 204.4H65.6053C65.3546 208.349 65.2266 212.33 65.2212 216.342C65.2063 235.584 68.1777 254.711 74.0293 273.042C74.0293 344.942 94.1362 381.742 114.582 342.736C133.654 388.206 169.024 439.777 176.406 387.551C197.525 433.923 252.124 483.981 256.245 404.759C260.366 483.981 314.965 433.922 336.084 387.551C343.467 439.778 378.837 388.207 397.908 342.736C418.354 381.741 438.461 344.936 438.461 273.042C444.312 254.712 447.282 235.584 447.265 216.343Z" fill="#FD6F71"/>
<path d="M256.242 316.9C251.507 316.935 246.819 315.957 242.493 314.031C238.167 312.105 234.303 309.277 231.16 305.735C230.485 304.972 229.967 304.083 229.637 303.12C229.307 302.156 229.17 301.137 229.236 300.121C229.301 299.104 229.566 298.111 230.017 297.197C230.467 296.284 231.094 295.468 231.861 294.798C232.627 294.128 233.519 293.616 234.485 293.291C235.45 292.967 236.47 292.836 237.486 292.908C238.502 292.979 239.494 293.25 240.405 293.706C241.316 294.162 242.127 294.794 242.793 295.565C244.508 297.42 246.588 298.9 248.903 299.913C251.217 300.925 253.717 301.448 256.243 301.448C258.769 301.448 261.268 300.925 263.583 299.913C265.898 298.9 267.978 297.42 269.693 295.565C270.359 294.794 271.17 294.162 272.081 293.706C272.992 293.25 273.984 292.979 275 292.908C276.016 292.836 277.036 292.967 278.001 293.291C278.967 293.616 279.858 294.128 280.625 294.798C281.392 295.468 282.019 296.284 282.469 297.197C282.92 298.111 283.185 299.104 283.25 300.121C283.315 301.137 283.179 302.156 282.849 303.12C282.518 304.083 282.001 304.972 281.326 305.735C278.183 309.277 274.319 312.106 269.992 314.032C265.666 315.958 260.977 316.935 256.242 316.9Z" fill="#3A484A"/>
<path d="M301.366 139.639L271.913 106.355L301.366 73.0719C303.124 74.8164 305.299 76.0816 307.685 76.747C310.07 77.4123 312.586 77.4555 314.993 76.8725C317.4 76.2896 319.618 75.0998 321.434 73.4167C323.251 71.7336 324.606 69.6133 325.371 67.2578C326.136 64.9023 326.285 62.3902 325.803 59.9609C325.322 57.5316 324.226 55.2661 322.621 53.3804C321.015 51.4947 318.954 50.0516 316.632 49.1887C314.311 48.3257 311.807 48.0718 309.36 48.4509C309.736 46.0059 309.48 43.5054 308.616 41.1873C307.752 38.8693 306.31 36.8109 304.425 35.2084C302.541 33.6058 300.277 32.5123 297.851 32.032C295.424 31.5518 292.915 31.7008 290.562 32.4648C288.209 33.2288 286.091 34.5824 284.409 36.3967C282.728 38.211 281.539 40.4256 280.955 42.8296C280.372 45.2335 280.413 47.7468 281.076 50.1301C281.739 52.5134 283.001 54.6874 284.742 56.4449L256.242 88.6459L227.742 56.4459C229.486 54.6881 230.752 52.5128 231.417 50.1273C232.082 47.7418 232.125 45.2256 231.542 42.8187C230.959 40.4117 229.77 38.1942 228.087 36.3775C226.404 34.5608 224.283 33.2054 221.928 32.4407C219.572 31.6759 217.06 31.5271 214.631 32.0086C212.202 32.4901 209.936 33.5858 208.05 35.1912C206.165 36.7966 204.722 38.8582 203.859 41.1796C202.996 43.5009 202.742 46.0046 203.121 48.4519C200.676 48.0762 198.176 48.3326 195.858 49.1966C193.54 50.0606 191.483 51.5035 189.88 53.3879C188.278 55.2722 187.185 57.5354 186.705 59.9618C186.224 62.3883 186.373 64.8972 187.137 67.2498C187.901 69.6024 189.254 71.7203 191.068 73.4019C192.882 75.0835 195.096 76.2728 197.5 76.8565C199.904 77.4402 202.417 77.399 204.8 76.7367C207.183 76.0744 209.357 74.8131 211.115 73.0729L240.568 106.356L211.115 139.64C209.357 137.895 207.182 136.63 204.796 135.965C202.411 135.3 199.895 135.256 197.488 135.839C195.081 136.422 192.863 137.612 191.046 139.295C189.23 140.978 187.874 143.099 187.11 145.454C186.345 147.81 186.196 150.322 186.678 152.751C187.159 155.18 188.255 157.446 189.86 159.331C191.466 161.217 193.527 162.66 195.849 163.523C198.17 164.386 200.674 164.64 203.121 164.261C202.745 166.706 203.002 169.206 203.866 171.524C204.73 173.841 206.172 175.899 208.057 177.502C209.941 179.104 212.204 180.197 214.631 180.677C217.057 181.157 219.566 181.008 221.919 180.245C224.271 179.481 226.389 178.127 228.071 176.314C229.752 174.5 230.942 172.285 231.525 169.882C232.109 167.478 232.068 164.965 231.406 162.582C230.743 160.199 229.482 158.025 227.742 156.267L256.242 124.067L284.742 156.267C282.997 158.025 281.732 160.2 281.067 162.586C280.402 164.971 280.358 167.487 280.941 169.894C281.524 172.301 282.714 174.519 284.397 176.335C286.08 178.152 288.201 179.507 290.556 180.272C292.912 181.037 295.424 181.186 297.853 180.704C300.282 180.223 302.548 179.127 304.433 177.522C306.319 175.916 307.762 173.855 308.625 171.533C309.488 169.212 309.742 166.708 309.363 164.261C311.808 164.637 314.308 164.381 316.626 163.517C318.944 162.653 321.002 161.21 322.605 159.326C324.207 157.442 325.301 155.179 325.781 152.752C326.261 150.325 326.112 147.816 325.348 145.464C324.585 143.111 323.231 140.993 321.417 139.311C319.603 137.63 317.389 136.44 314.985 135.857C312.581 135.273 310.068 135.314 307.685 135.977C305.302 136.639 303.128 137.901 301.37 139.641L301.366 139.639Z" fill="#EFEDEE"/>
</svg>
