<svg width="513" height="512" viewBox="0 0 513 512" fill="none" xmlns="http://www.w3.org/2000/svg">
<path d="M346.761 78.3818L181.523 122.762V211.522L346.761 255.902L512 211.522V122.762L346.761 78.3818Z" fill="#FADC60"/>
<path d="M346.761 255.902L181.523 300.283V389.043L346.761 437.928L512 389.043V300.283L346.761 255.902Z" fill="#FADC60"/>
<path d="M181.523 300.283V389.043L341.158 436.27C375.221 397.596 393.994 347.817 393.952 296.281C393.95 286.847 393.323 277.424 392.075 268.073L346.761 255.902L181.523 300.283Z" fill="#F2C42C"/>
<path d="M181.523 389.043V477.802H491.023C496.587 477.8 501.922 475.589 505.856 471.655C509.789 467.72 511.999 462.385 512 456.821V389.042H181.523V389.043Z" fill="#F2C42C"/>
<path d="M512.01 211.522H181.528V300.282H512.01V211.522Z" fill="#F2C42C"/>
<path d="M387.658 244.919C379.619 212.951 364.282 183.281 342.85 158.237C321.417 133.193 294.473 113.456 264.131 100.575L181.522 122.762V211.522L346.761 255.902L387.658 244.919Z" fill="#F2C42C"/>
<path d="M491.018 34.002H202.5C196.936 34.0033 191.601 36.2142 187.667 40.1484C183.733 44.0827 181.523 49.4183 181.522 54.982V122.761H512V54.982C511.999 49.4176 509.788 44.0814 505.853 40.147C501.919 36.2126 496.582 34.0022 491.018 34.002Z" fill="#F2C42C"/>
<path d="M181.523 389.043V477.802H291.765C326.63 456.538 354.68 425.738 372.6 389.042L181.523 389.043Z" fill="#E0B629"/>
<path d="M181.523 300.283H393.9C393.925 298.951 393.95 297.619 393.95 296.283C393.979 267.113 387.965 238.254 376.287 211.524H181.523V300.283Z" fill="#E0B629"/>
<path d="M181.523 83.8532V122.761H303.929C268.154 97.4019 225.374 83.8039 181.523 83.8532Z" fill="#E0B629"/>
<path d="M181.528 477.814C281.783 477.814 363.056 396.541 363.056 296.286C363.056 196.031 281.783 114.758 181.528 114.758C81.2729 114.758 0 196.031 0 296.286C0 396.541 81.2729 477.814 181.528 477.814Z" fill="#FADC60"/>
<path d="M181.528 437.936C259.759 437.936 323.178 374.517 323.178 296.286C323.178 218.055 259.759 154.636 181.528 154.636C103.297 154.636 39.8779 218.055 39.8779 296.286C39.8779 374.517 103.297 437.936 181.528 437.936Z" fill="#F2C42C"/>
<path d="M67.691 296.281C67.6928 261.122 80.7694 227.22 104.378 201.166C127.987 175.113 160.441 158.77 195.43 155.315C190.854 154.869 186.218 154.642 181.523 154.634C143.956 154.634 107.927 169.557 81.3634 196.121C54.7995 222.685 39.876 258.714 39.876 296.281C39.876 333.848 54.7995 369.876 81.3634 396.44C107.927 423.004 143.956 437.928 181.523 437.928C186.216 437.928 190.851 437.701 195.43 437.248C160.441 433.793 127.987 417.45 104.378 391.396C80.769 365.342 67.6926 331.44 67.691 296.281Z" fill="#E0B629"/>
<path d="M272.517 302.024C272.517 277.891 262.93 254.746 245.866 237.681C228.801 220.617 205.656 211.03 181.523 211.03C157.39 211.03 134.245 220.617 117.181 237.681C100.116 254.746 90.5291 277.891 90.5291 302.024C90.5291 330.535 103.65 344.9 124.174 352V367.2C124.174 371.002 125.685 374.649 128.373 377.338C131.062 380.026 134.709 381.537 138.511 381.537C142.313 381.537 145.96 380.026 148.649 377.338C151.338 374.649 152.848 371.002 152.848 367.2C152.848 371.002 154.359 374.649 157.047 377.338C159.736 380.026 163.383 381.537 167.185 381.537C170.987 381.537 174.634 380.026 177.323 377.338C180.012 374.649 181.522 371.002 181.522 367.2C181.522 369.083 181.893 370.947 182.613 372.686C183.334 374.426 184.39 376.006 185.721 377.338C187.053 378.669 188.633 379.725 190.373 380.445C192.112 381.166 193.976 381.537 195.859 381.537C197.742 381.537 199.606 381.166 201.346 380.445C203.085 379.725 204.666 378.669 205.997 377.338C207.328 376.006 208.384 374.426 209.105 372.686C209.825 370.947 210.196 369.083 210.196 367.2C210.196 371.002 211.707 374.649 214.395 377.338C217.084 380.026 220.731 381.537 224.533 381.537C228.335 381.537 231.982 380.026 234.671 377.338C237.36 374.649 238.87 371.002 238.87 367.2V352.002C259.395 344.902 272.517 330.534 272.517 302.024Z" fill="#FADC60"/>
<path d="M133.35 331.068C132.335 331.068 131.331 330.868 130.393 330.48C129.456 330.092 128.604 329.523 127.887 328.805C127.169 328.088 126.6 327.236 126.212 326.299C125.824 325.361 125.624 324.357 125.624 323.342V314.624C125.624 312.575 126.438 310.61 127.887 309.161C129.336 307.712 131.301 306.898 133.35 306.898C135.399 306.898 137.364 307.712 138.813 309.161C140.262 310.61 141.076 312.575 141.076 314.624V323.342C141.076 325.391 140.262 327.356 138.813 328.805C137.364 330.254 135.399 331.068 133.35 331.068Z" fill="#F2C42C"/>
<path d="M229.7 331.068C228.685 331.068 227.681 330.868 226.743 330.48C225.806 330.092 224.954 329.523 224.237 328.805C223.519 328.088 222.95 327.236 222.562 326.299C222.174 325.361 221.974 324.357 221.974 323.342V314.624C221.974 312.575 222.788 310.61 224.237 309.161C225.686 307.712 227.651 306.898 229.7 306.898C231.749 306.898 233.714 307.712 235.163 309.161C236.612 310.61 237.426 312.575 237.426 314.624V323.342C237.426 324.357 237.227 325.361 236.838 326.299C236.45 327.236 235.881 328.088 235.164 328.805C234.446 329.523 233.594 330.092 232.657 330.48C231.719 330.868 230.715 331.068 229.7 331.068Z" fill="#F2C42C"/>
</svg>
