<svg width="512" height="512" viewBox="0 0 512 512" fill="none" xmlns="http://www.w3.org/2000/svg">
<path d="M256.239 97.236C228.371 97.236 205.698 75.426 205.698 48.618C205.698 21.81 228.371 0 256.239 0C284.107 0 306.78 21.81 306.78 48.618C306.78 75.426 284.107 97.236 256.239 97.236ZM256.239 27.468C243.516 27.468 233.166 36.956 233.166 48.619C233.166 60.282 243.516 69.769 256.239 69.769C268.962 69.769 279.312 60.281 279.312 48.618C279.312 36.955 268.961 27.468 256.239 27.468Z" fill="#F2C42C"/>
<path d="M279.312 48.618C279.312 60.28 268.961 69.769 256.239 69.769C243.517 69.769 233.166 60.281 233.166 48.618C233.224 45.0165 234.218 41.4921 236.05 38.3907C237.881 35.2893 240.488 32.7176 243.614 30.928C231.547 31.5111 219.536 32.9416 207.669 35.209C206.364 39.5592 205.7 44.0763 205.698 48.618C205.698 75.425 228.37 97.236 256.239 97.236C284.108 97.236 306.78 75.426 306.78 48.618C306.779 44.0762 306.115 39.559 304.809 35.209C292.942 32.9412 280.931 31.5106 268.863 30.928C271.989 32.7173 274.596 35.289 276.428 38.3904C278.26 41.4918 279.254 45.0164 279.312 48.618Z" fill="#E0B629"/>
<path d="M256.239 512C380.635 512 481.478 411.157 481.478 286.761C481.478 162.365 380.635 61.522 256.239 61.522C131.843 61.522 31 162.365 31 286.761C31 411.157 131.843 512 256.239 512Z" fill="#C86D5C"/>
<path d="M256.239 470.247C357.575 470.247 439.725 388.097 439.725 286.761C439.725 185.424 357.575 103.275 256.239 103.275C154.902 103.275 72.7529 185.424 72.7529 286.761C72.7529 388.097 154.902 470.247 256.239 470.247Z" fill="#EFEDEE"/>
<path d="M113.962 286.764C113.962 192.395 185.208 114.678 276.843 104.437C270.003 103.669 263.126 103.282 256.243 103.279C207.58 103.279 160.91 122.61 126.5 157.02C92.0895 191.43 72.7581 238.101 72.7581 286.764C72.7581 335.427 92.0895 382.097 126.5 416.507C160.91 450.917 207.58 470.249 256.243 470.249C263.126 470.245 270.003 469.859 276.843 469.091C185.207 458.849 113.962 381.133 113.962 286.764Z" fill="#D2D2D2"/>
<path d="M345.75 201.848C346.174 201.21 346.364 200.445 346.288 199.682C346.212 198.92 345.875 198.207 345.333 197.665C344.791 197.123 344.078 196.786 343.316 196.71C342.553 196.634 341.788 196.824 341.15 197.248L236.039 266.565L166.727 371.68C166.303 372.318 166.112 373.084 166.188 373.846C166.265 374.609 166.602 375.321 167.144 375.863C167.686 376.405 168.398 376.743 169.161 376.819C169.923 376.895 170.689 376.704 171.327 376.28L276.439 306.963L345.75 201.848Z" fill="#E0B629"/>
<path d="M341.156 376.276C341.794 376.7 342.559 376.891 343.322 376.814C344.084 376.738 344.797 376.401 345.339 375.859C345.881 375.317 346.218 374.605 346.294 373.842C346.37 373.08 346.18 372.314 345.756 371.676L276.439 266.565L171.323 197.252C170.685 196.828 169.92 196.638 169.157 196.714C168.395 196.79 167.682 197.127 167.14 197.669C166.598 198.211 166.261 198.924 166.185 199.686C166.109 200.449 166.299 201.214 166.723 201.852L236.039 306.964L341.156 376.276Z" fill="#E0B629"/>
<path d="M259.488 163.425C259.335 162.676 258.928 162.003 258.336 161.519C257.744 161.036 257.003 160.771 256.238 160.771C255.474 160.771 254.732 161.036 254.14 161.519C253.548 162.003 253.141 162.676 252.988 163.425L227.672 286.764L252.989 410.1C253.142 410.849 253.549 411.523 254.141 412.006C254.733 412.49 255.475 412.754 256.239 412.754C257.004 412.754 257.745 412.49 258.337 412.006C258.929 411.523 259.336 410.849 259.489 410.1L284.806 286.761L259.488 163.425Z" fill="#F2C42C"/>
<path d="M379.578 290.013C380.327 289.86 381 289.453 381.484 288.861C381.968 288.269 382.232 287.528 382.232 286.763C382.232 285.999 381.968 285.258 381.484 284.665C381 284.073 380.327 283.666 379.578 283.513L256.239 258.2L132.9 283.514C132.151 283.667 131.478 284.074 130.994 284.666C130.51 285.259 130.246 286 130.246 286.764C130.246 287.529 130.51 288.27 130.994 288.862C131.478 289.454 132.151 289.861 132.9 290.014L256.239 315.33L379.578 290.013Z" fill="#F2C42C"/>
<path d="M256.239 315.328C272.016 315.328 284.806 302.538 284.806 286.761C284.806 270.984 272.016 258.194 256.239 258.194C240.462 258.194 227.672 270.984 227.672 286.761C227.672 302.538 240.462 315.328 256.239 315.328Z" fill="#FD6F71"/>
<path d="M256.239 103.279C250.039 103.279 243.919 103.583 237.878 104.191L247.857 123.799C248.643 125.347 249.842 126.647 251.321 127.555C252.801 128.463 254.503 128.944 256.239 128.944C257.975 128.944 259.677 128.463 261.157 127.555C262.636 126.647 263.835 125.347 264.621 123.799L274.6 104.191C268.559 103.591 262.439 103.287 256.239 103.279Z" fill="#F2C42C"/>
<path d="M372.351 144.693L365.551 165.604C365.012 167.254 364.94 169.021 365.344 170.71C365.748 172.398 366.612 173.942 367.84 175.169C369.067 176.397 370.611 177.26 372.299 177.664C373.987 178.068 375.755 177.997 377.405 177.458L398.315 170.658C390.545 161.161 381.847 152.463 372.351 144.693Z" fill="#E0B629"/>
<path d="M419.203 295.146L438.811 305.125C439.411 299.085 439.715 292.964 439.723 286.764C439.731 280.563 439.427 274.443 438.811 268.403L419.203 278.382C417.657 279.169 416.358 280.369 415.452 281.848C414.545 283.327 414.065 285.029 414.065 286.764C414.065 288.499 414.545 290.2 415.452 291.68C416.358 293.159 417.657 294.359 419.203 295.146Z" fill="#F2C42C"/>
<path d="M398.309 402.876L377.399 396.076C375.749 395.537 373.982 395.465 372.293 395.869C370.605 396.273 369.061 397.137 367.834 398.365C366.606 399.592 365.743 401.136 365.339 402.824C364.935 404.512 365.006 406.28 365.545 407.93L372.345 428.841C381.841 421.07 390.539 412.372 398.309 402.876Z" fill="#E0B629"/>
<path d="M256.239 470.249C262.439 470.249 268.559 469.945 274.6 469.337L264.621 449.729C263.835 448.181 262.636 446.881 261.157 445.972C259.677 445.064 257.975 444.583 256.239 444.583C254.503 444.583 252.801 445.064 251.321 445.972C249.842 446.881 248.643 448.181 247.857 449.729L237.878 469.337C243.919 469.938 250.039 470.242 256.239 470.249Z" fill="#F2C42C"/>
<path d="M135.078 396.071L114.167 402.871C121.936 412.365 130.632 421.061 140.126 428.829L146.926 407.918C147.463 406.269 147.533 404.503 147.128 402.817C146.723 401.13 145.86 399.589 144.634 398.362C143.407 397.136 141.866 396.273 140.179 395.868C138.493 395.464 136.727 395.534 135.078 396.071Z" fill="#E0B629"/>
<path d="M73.6661 305.125L93.2741 295.146C94.8221 294.36 96.1223 293.161 97.0305 291.682C97.9387 290.202 98.4194 288.5 98.4194 286.764C98.4194 285.028 97.9387 283.326 97.0305 281.846C96.1223 280.367 94.8221 279.168 93.2741 278.382L73.6661 268.4C73.0661 274.44 72.7621 280.56 72.7541 286.761C72.7461 292.962 73.0501 299.083 73.6661 305.125Z" fill="#F2C42C"/>
<path d="M114.169 170.653L135.08 177.453C136.73 177.993 138.498 178.066 140.187 177.662C141.876 177.259 143.421 176.395 144.649 175.168C145.877 173.94 146.741 172.396 147.146 170.707C147.55 169.019 147.478 167.251 146.939 165.6L140.139 144.689C130.64 152.458 121.94 161.156 114.169 170.653Z" fill="#E0B629"/>
</svg>
