<svg width="512" height="512" viewBox="0 0 512 512" fill="none" xmlns="http://www.w3.org/2000/svg">
<path d="M271 95.0029H241.001V417.007H271V95.0029Z" fill="#AD4F3D"/>
<path d="M252.893 409.495V87.4941H222.894V409.495H252.893Z" fill="#AD4F3D"/>
<path d="M417.007 241.001H95.0031V271H417.007V241.001Z" fill="#AD4F3D"/>
<path d="M233.499 76.8955V398.896H263.498V76.8955H233.499Z" fill="#AD4F3D"/>
<path d="M256 5.05128e-07C252.196 0.000664567 248.433 0.798278 244.956 2.34145C241.479 3.88463 238.363 6.13915 235.81 8.95975C233.257 11.7804 231.323 15.1045 230.133 18.718C228.943 22.3315 228.523 26.1543 228.9 29.94L235.916 100.332H276.094L283.11 29.94C283.487 26.1535 283.067 22.3299 281.876 18.7156C280.686 15.1014 278.751 11.7768 276.197 8.95605C273.643 6.13528 270.526 3.88097 267.047 2.33841C263.569 0.795853 259.805 -0.000732292 256 5.05128e-07Z" fill="#C86D5C"/>
<path d="M437.019 74.9809C434.329 72.2902 431.105 70.1928 427.555 68.8241C424.005 67.4553 420.207 66.8455 416.407 67.0339C412.607 67.2223 408.888 68.2048 405.491 69.918C402.093 71.6313 399.093 74.0373 396.682 76.9809L351.868 131.718L380.278 160.128L435.015 115.314C437.958 112.903 440.364 109.903 442.077 106.506C443.79 103.109 444.773 99.3915 444.961 95.5918C445.15 91.7922 444.541 87.9951 443.173 84.4452C441.805 80.8953 439.709 77.6714 437.019 74.9809Z" fill="#C86D5C"/>
<path d="M512 256C511.999 252.195 511.202 248.433 509.659 244.956C508.115 241.478 505.861 238.363 503.04 235.81C500.22 233.257 496.895 231.323 493.282 230.133C489.668 228.943 485.846 228.523 482.06 228.9L411.668 235.916V276.094L482.06 283.11C485.847 283.487 489.67 283.067 493.284 281.876C496.899 280.686 500.223 278.751 503.044 276.197C505.865 273.642 508.119 270.526 509.662 267.047C511.204 263.568 512.001 259.805 512 256Z" fill="#C86D5C"/>
<path d="M437.019 437.019C439.709 434.329 441.806 431.104 443.175 427.554C444.543 424.004 445.152 420.206 444.964 416.406C444.775 412.606 443.792 408.887 442.078 405.49C440.364 402.093 437.958 399.093 435.014 396.682L380.277 351.868L351.867 380.278L396.681 435.015C399.091 437.959 402.092 440.365 405.489 442.079C408.887 443.793 412.605 444.775 416.405 444.964C420.206 445.153 424.003 444.544 427.554 443.175C431.104 441.807 434.328 439.71 437.019 437.019Z" fill="#C86D5C"/>
<path d="M256 512C259.805 512 263.568 511.203 267.046 509.66C270.524 508.117 273.64 505.863 276.193 503.042C278.747 500.221 280.681 496.897 281.872 493.283C283.062 489.669 283.482 485.846 283.105 482.06L276.089 411.668H235.911L228.9 482.06C228.523 485.846 228.943 489.668 230.133 493.282C231.323 496.895 233.257 500.22 235.81 503.04C238.363 505.861 241.479 508.115 244.956 509.659C248.433 511.202 252.196 511.999 256 512Z" fill="#C86D5C"/>
<path d="M74.981 437.019C77.6715 439.71 80.8957 441.807 84.4461 443.175C87.9964 444.543 91.794 445.153 95.5942 444.964C99.3944 444.775 103.113 443.792 106.51 442.078C109.907 440.365 112.908 437.958 115.318 435.014L160.132 380.277L131.722 351.867L76.986 396.682C74.0418 399.092 71.6353 402.093 69.9216 405.49C68.2078 408.887 67.2248 412.606 67.0359 416.406C66.847 420.206 67.4564 424.004 68.8248 427.554C70.1933 431.105 72.2904 434.329 74.981 437.019Z" fill="#C86D5C"/>
<path d="M1.10587e-09 256C-3.42826e-05 259.805 0.797065 263.567 2.33993 267.045C3.8828 270.523 6.13722 273.64 8.9579 276.193C11.7786 278.747 15.103 280.681 18.7168 281.872C22.3307 283.062 26.1539 283.482 29.94 283.105L100.332 276.089V235.911L29.94 228.9C26.1543 228.523 22.3315 228.943 18.718 230.133C15.1045 231.323 11.7804 233.257 8.95975 235.81C6.13915 238.363 3.88463 241.478 2.34145 244.956C0.798277 248.433 0.000664063 252.195 1.10588e-09 256H1.10587e-09Z" fill="#C86D5C"/>
<path d="M74.9811 74.9811C72.2903 77.6712 70.1929 80.8952 68.8242 84.4454C67.4554 87.9955 66.8456 91.793 67.034 95.5932C67.2225 99.3934 68.2049 103.112 69.9182 106.509C71.6314 109.907 74.0374 112.907 76.9811 115.318L131.718 160.132L160.128 131.722L115.318 76.9861C112.908 74.042 109.907 71.6355 106.51 69.9217C103.113 68.2079 99.3946 67.2249 95.5943 67.036C91.7941 66.8471 87.9964 67.4565 84.446 68.825C80.8957 70.1934 77.6714 72.2905 74.9811 74.9811Z" fill="#C86D5C"/>
<path d="M83.457 120.616L131.722 160.132L160.132 131.722L120.615 83.457C106.797 94.3237 94.3233 106.798 83.457 120.616Z" fill="#AD4F3D"/>
<path d="M38.174 282.284L100.333 276.084V235.912L38.174 229.712C36.0673 247.171 36.0673 264.821 38.174 282.28V282.284Z" fill="#AD4F3D"/>
<path d="M120.616 428.543L160.133 380.278L131.723 351.868L83.458 391.384C94.3238 405.203 106.798 417.677 120.616 428.543Z" fill="#AD4F3D"/>
<path d="M282.284 473.826L276.084 411.667H235.912L229.712 473.825C247.171 475.931 264.821 475.931 282.28 473.825L282.284 473.826Z" fill="#AD4F3D"/>
<path d="M428.543 391.384L380.278 351.868L351.868 380.278L391.384 428.543C405.202 417.677 417.677 405.203 428.543 391.384Z" fill="#AD4F3D"/>
<path d="M411.667 276.089L473.826 282.289C475.933 264.829 475.933 247.179 473.826 229.72L411.667 235.92V276.089Z" fill="#AD4F3D"/>
<path d="M391.384 83.457L351.868 131.722L380.278 160.132L428.543 120.616C417.677 106.798 405.202 94.3234 391.384 83.457Z" fill="#AD4F3D"/>
<path d="M229.716 38.174L235.916 100.333H276.093L282.293 38.175C264.834 36.069 247.184 36.069 229.725 38.175L229.716 38.174Z" fill="#AD4F3D"/>
<path d="M256 444.5C152.061 444.5 67.5 359.94 67.5 256C67.5 152.06 152.061 67.5 256 67.5C359.939 67.5 444.5 152.061 444.5 256C444.5 359.939 359.939 444.5 256 444.5ZM256 122.5C182.387 122.5 122.5 182.388 122.5 256C122.5 329.612 182.387 389.5 256 389.5C329.613 389.5 389.5 329.613 389.5 256C389.5 182.387 329.613 122.5 256 122.5Z" fill="#C86D5C"/>
<path d="M256 104.669C261.338 104.669 265.666 100.341 265.666 95.0029C265.666 89.6645 261.338 85.3369 256 85.3369C250.662 85.3369 246.334 89.6645 246.334 95.0029C246.334 100.341 250.662 104.669 256 104.669Z" fill="#FADC60"/>
<path d="M369.845 151.821C375.183 151.821 379.511 147.493 379.511 142.155C379.511 136.816 375.183 132.489 369.845 132.489C364.507 132.489 360.179 136.816 360.179 142.155C360.179 147.493 364.507 151.821 369.845 151.821Z" fill="#FADC60"/>
<path d="M416.997 265.666C422.335 265.666 426.663 261.338 426.663 256C426.663 250.662 422.335 246.334 416.997 246.334C411.659 246.334 407.331 250.662 407.331 256C407.331 261.338 411.659 265.666 416.997 265.666Z" fill="#FADC60"/>
<path d="M369.845 379.511C375.183 379.511 379.511 375.183 379.511 369.845C379.511 364.506 375.183 360.179 369.845 360.179C364.507 360.179 360.179 364.506 360.179 369.845C360.179 375.183 364.507 379.511 369.845 379.511Z" fill="#FADC60"/>
<path d="M256 426.663C261.338 426.663 265.666 422.335 265.666 416.997C265.666 411.659 261.338 407.331 256 407.331C250.662 407.331 246.334 411.659 246.334 416.997C246.334 422.335 250.662 426.663 256 426.663Z" fill="#FADC60"/>
<path d="M142.155 379.511C147.493 379.511 151.821 375.183 151.821 369.845C151.821 364.506 147.493 360.179 142.155 360.179C136.817 360.179 132.489 364.506 132.489 369.845C132.489 375.183 136.817 379.511 142.155 379.511Z" fill="#FADC60"/>
<path d="M95.003 265.666C100.341 265.666 104.669 261.338 104.669 256C104.669 250.662 100.341 246.334 95.003 246.334C89.6647 246.334 85.337 250.662 85.337 256C85.337 261.338 89.6647 265.666 95.003 265.666Z" fill="#FADC60"/>
<path d="M142.155 151.821C147.493 151.821 151.821 147.493 151.821 142.155C151.821 136.816 147.493 132.489 142.155 132.489C136.817 132.489 132.489 136.816 132.489 142.155C132.489 147.493 136.817 151.821 142.155 151.821Z" fill="#FADC60"/>
<path d="M256 335.005C299.633 335.005 335.005 299.633 335.005 256C335.005 212.367 299.633 176.995 256 176.995C212.367 176.995 176.995 212.367 176.995 256C176.995 299.633 212.367 335.005 256 335.005Z" fill="#C86D5C"/>
</svg>
