<svg width="512" height="512" viewBox="0 0 512 512" fill="none" xmlns="http://www.w3.org/2000/svg">
<path d="M183.878 363.6C183.878 363.6 129.878 394.789 129.878 467.73L255.59 489.867L381.298 467.734C381.298 394.793 327.298 363.604 327.298 363.604L255.59 344.24L183.878 363.6Z" fill="#FADC60"/>
<path d="M160.79 467.733C160.79 394.792 214.79 363.603 214.79 363.603L271.049 348.412L255.59 344.24L183.878 363.6C183.878 363.6 129.878 394.789 129.878 467.73L255.59 489.867L271.043 487.146L160.79 467.733Z" fill="#F2C42C"/>
<path d="M222.874 336.475C222.874 336 222.892 325.348 222.912 324.875C223.82 304.189 227.206 283.77 234.759 264.417C249.304 227.152 274.388 201.361 304.973 176.679C323.779 161.502 331.595 135.479 329.136 112.044C326.464 86.593 308.19 63.489 285.156 53.1C268.367 45.542 249.455 44.1306 231.731 49.113C212.102 54.8197 195.371 67.7651 184.92 85.333C178.097 97.3532 174.258 110.835 173.727 124.647C173.476 129.662 171.275 134.381 167.592 137.795C163.91 141.209 159.039 143.049 154.019 142.92C148.999 142.792 144.228 140.706 140.725 137.108C137.222 133.51 135.265 128.686 135.271 123.664C135.127 103.477 139.852 83.552 149.046 65.579C163.332 37.944 188.79 16.47 218.19 6.50003C246.105 -2.85062 276.42 -2.08245 303.826 8.67003C333.59 20.345 357.911 43.72 371.634 72.487C376.262 82.3146 379.617 92.6928 381.617 103.37C387.574 134.391 380.842 168.456 363.871 195.326C353.815 211.247 338.65 222.732 325.421 235.809C313.559 247.392 304.159 261.251 297.782 276.555C291.405 291.858 288.183 308.291 288.309 324.87V336.555L222.874 336.475Z" fill="#D2D2D2"/>
<path d="M288.307 324.87C288.286 314.457 289.537 304.08 292.032 293.97H226.379C224.487 304.174 223.329 314.501 222.912 324.87C222.891 325.341 222.875 335.993 222.874 336.47L288.306 336.551L288.307 324.87Z" fill="#B8B8B8"/>
<path d="M293.827 324.877H217.352C208.474 324.877 199.96 328.404 193.682 334.681C187.405 340.959 183.878 349.473 183.878 358.351V363.605H327.3V358.351C327.3 353.955 326.435 349.602 324.753 345.541C323.07 341.48 320.605 337.789 317.497 334.681C314.388 331.573 310.698 329.107 306.637 327.425C302.576 325.743 298.223 324.877 293.827 324.877Z" fill="#F2C42C"/>
<path d="M248.258 324.877H217.358C208.48 324.877 199.966 328.404 193.688 334.681C187.411 340.959 183.884 349.473 183.884 358.351V363.6H214.784V358.347C214.784 353.951 215.65 349.599 217.332 345.538C219.015 341.477 221.481 337.787 224.589 334.679C227.697 331.571 231.387 329.106 235.448 327.424C239.51 325.742 243.862 324.877 248.258 324.877Z" fill="#E0B629"/>
<path d="M381.297 467.733H129.882C120.631 467.733 111.758 471.408 105.217 477.95C98.6751 484.491 95 493.364 95 502.615V512H416.182V502.615C416.181 493.363 412.505 484.491 405.963 477.95C399.421 471.408 390.548 467.733 381.297 467.733Z" fill="#F2C42C"/>
<path d="M160.79 467.733H129.89C125.309 467.732 120.772 468.633 116.539 470.386C112.306 472.138 108.459 474.708 105.22 477.947C101.98 481.186 99.4095 485.032 97.656 489.264C95.9025 493.497 95 498.033 95 502.615V512H125.9V502.615C125.9 498.033 126.803 493.497 128.556 489.264C130.309 485.032 132.88 481.186 136.12 477.947C139.359 474.708 143.206 472.138 147.439 470.386C151.672 468.633 156.209 467.732 160.79 467.733Z" fill="#E0B629"/>
</svg>
