<svg width="512" height="512" viewBox="0 0 512 512" fill="none" xmlns="http://www.w3.org/2000/svg">
<path d="M207.66 296.277L197.798 255.327L156.848 245.465C130.497 271.816 127.348 280.642 96.492 311.499C65.636 342.356 56.808 345.505 30.458 371.856L43.248 409.878L81.27 422.668C107.621 396.317 110.77 387.491 141.627 356.634C172.484 325.777 181.309 322.627 207.66 296.277Z" fill="#C86D5C"/>
<path d="M52.311 393.709C78.662 367.358 87.488 364.209 118.345 333.352C149.202 302.495 152.351 293.668 178.702 267.318L202.04 272.939L197.8 255.327L156.85 245.465C130.499 271.816 127.35 280.642 96.493 311.499C65.636 342.356 56.809 345.505 30.459 371.856L43.249 409.878L59.602 415.378L52.311 393.709Z" fill="#AD4F3D"/>
<path d="M510.043 112.632C437.722 28.278 294.358 29.8801 174.811 201.252L197.8 255.327L251.875 278.315C277.581 201.227 347.624 198.459 371.706 199.915C374.176 200.066 376.642 199.562 378.854 198.454C381.067 197.347 382.947 195.674 384.306 193.606C417.373 143.07 477.265 129.598 504.865 126.025C506.323 125.837 507.704 125.258 508.861 124.351C510.018 123.443 510.908 122.241 511.439 120.869C511.969 119.498 512.119 118.008 511.873 116.559C511.628 115.109 510.995 113.752 510.043 112.632Z" fill="#D2D2D2"/>
<path d="M203.948 230.39C309.891 78.519 434.53 59.993 511.861 116.448C511.608 115.036 510.98 113.718 510.043 112.632C437.722 28.277 294.358 29.88 174.81 201.252L197.8 255.327L218.246 264.019L203.948 230.39Z" fill="#B8B8B8"/>
<path d="M69.78 200.843C66.6785 197.742 64.5753 193.785 63.7407 189.48C62.906 185.175 63.3782 180.718 65.0964 176.684C66.8147 172.649 69.7005 169.22 73.3827 166.839C77.065 164.457 81.3755 163.231 85.76 163.319C119.241 163.926 151.174 177.528 174.809 201.251L251.873 278.315C267.489 293.99 288.59 302.978 310.713 303.379C313.599 303.436 316.446 304.062 319.09 305.22C321.735 306.378 324.125 308.045 326.125 310.126C328.125 312.208 329.696 314.663 330.747 317.352C331.798 320.04 332.31 322.91 332.252 325.796C332.194 328.682 331.569 331.529 330.411 334.173C329.253 336.817 327.586 339.208 325.504 341.208C323.423 343.208 320.968 344.779 318.279 345.83C315.59 346.881 312.721 347.393 309.835 347.335C276.354 346.728 244.421 333.126 220.786 309.403L143.722 232.339C128.105 216.664 107.005 207.676 84.882 207.275C79.2048 207.168 73.7905 204.863 69.78 200.843Z" fill="#FADC60"/>
<path d="M81.2692 422.667L30.4572 371.855C27.111 368.509 22.573 366.63 17.8412 366.63C13.1094 366.63 8.57133 368.509 5.22519 371.855C1.87953 375.201 0 379.739 0 384.471C0 389.203 1.87953 393.741 5.22519 397.087L56.0372 447.899C59.3832 451.245 63.9213 453.125 68.6532 453.125C73.3851 453.125 77.9232 451.245 81.2692 447.899C82.926 446.242 84.2403 444.276 85.137 442.111C86.0337 439.946 86.4952 437.626 86.4952 435.283C86.4952 432.94 86.0337 430.62 85.137 428.455C84.2403 426.291 82.926 424.324 81.2692 422.667Z" fill="#FADC60"/>
<path d="M27.0801 393.709C30.4263 390.363 34.9643 388.484 39.6961 388.484C44.428 388.484 48.966 390.363 52.3121 393.709L30.4591 371.856C27.113 368.51 22.575 366.631 17.8431 366.631C13.1113 366.631 8.57328 368.51 5.22714 371.856C1.88148 375.202 0.00195312 379.74 0.00195312 384.472C0.00195313 389.204 1.88148 393.742 5.22714 397.088L27.0801 418.942C25.423 417.285 24.1085 415.319 23.2117 413.154C22.3148 410.989 21.8532 408.669 21.8532 406.326C21.8532 403.982 22.3148 401.662 23.2117 399.497C24.1085 397.333 25.423 395.366 27.0801 393.709Z" fill="#F2C42C"/>
</svg>
