<svg width="512" height="512" viewBox="0 0 512 512" fill="none" xmlns="http://www.w3.org/2000/svg">
<path d="M155.758 432.168L128 512H385.116L357.358 432.168L256.558 416.223L155.758 432.168Z" fill="#EFEDEE"/>
<path d="M272.011 418.667L256.558 416.222L155.758 432.168L128 512H158.9L186.658 432.168L272.011 418.667Z" fill="#D2D2D2"/>
<path d="M276.336 0H236.779C226.711 0 217.055 3.99945 209.936 11.1185C202.817 18.2376 198.818 27.8931 198.818 37.961L256.558 53.911L314.298 37.961C314.298 27.893 310.298 18.2375 303.179 11.1185C296.059 3.99942 286.404 -3.4931e-09 276.336 0V0Z" fill="#FD6F71"/>
<path d="M229.724 37.961C229.724 27.8931 233.723 18.2376 240.842 11.1185C247.962 3.99945 257.617 0 267.685 0L236.785 0C226.717 0 217.062 3.99945 209.942 11.1185C202.823 18.2376 198.824 27.8931 198.824 37.961L256.558 53.911L272.011 49.642L229.724 37.961Z" fill="#E34B4C"/>
<path d="M189.248 117.393L198.818 69.8621L256.558 53.9111L314.298 69.8621L323.868 117.393L256.558 133.344L189.248 117.393Z" fill="#FD6F71"/>
<path d="M220.158 117.393L229.729 69.8621L272.016 58.1811L256.558 53.9111L198.818 69.8621L189.248 117.393L256.558 133.344L272.011 129.681L220.158 117.393Z" fill="#E34B4C"/>
<path d="M323.865 149.294L239.013 167.157L179.394 223.157L167.47 312.522L250.117 313.756L334.268 227.242L323.865 149.294Z" fill="#EFEDEE"/>
<path d="M344.479 303.784L250.117 313.755L155.758 400.27L256.558 416.223L357.358 400.27L344.479 303.784Z" fill="#EFEDEE"/>
<path d="M198.314 312.982L198.375 312.521L210.3 223.156L214.729 189.966L179.394 223.156L175.42 252.944L167.47 312.521L198.314 312.982Z" fill="#D2D2D2"/>
<path d="M323.865 149.294L179.394 223.156L189.251 149.294L256.558 133.34L323.865 149.294Z" fill="#FD6F71"/>
<path d="M155.758 400.269L256.558 416.222L272.011 413.776L186.658 400.269L190.969 367.983L155.758 400.269Z" fill="#D2D2D2"/>
<path d="M344.479 303.784L155.758 400.27L167.472 312.521L334.272 227.241L344.479 303.784Z" fill="#FD6F71"/>
<path d="M200.639 295.563L167.47 312.521L159.661 371.021L155.761 400.27L188.931 383.313L198.38 312.522L200.639 295.563Z" fill="#E34B4C"/>
<path d="M272.01 137L256.558 133.34L189.251 149.293L179.394 223.156L212.563 206.2L220.157 149.3L272.01 137Z" fill="#E34B4C"/>
<path d="M323.868 117.393H189.248C185.018 117.393 180.961 119.074 177.97 122.065C174.979 125.056 173.298 129.113 173.298 133.343C173.298 137.573 174.979 141.63 177.97 144.621C180.961 147.613 185.018 149.293 189.248 149.293H323.867C328.097 149.293 332.154 147.613 335.145 144.621C338.137 141.63 339.817 137.573 339.817 133.343C339.817 129.113 338.137 125.056 335.145 122.065C332.154 119.074 328.097 117.393 323.867 117.393H323.868Z" fill="#EFEDEE"/>
<path d="M204.203 133.344C204.203 129.114 205.883 125.057 208.875 122.066C211.866 119.074 215.923 117.394 220.153 117.394H189.253C185.023 117.394 180.966 119.074 177.975 122.066C174.983 125.057 173.303 129.114 173.303 133.344C173.303 137.574 174.983 141.631 177.975 144.622C180.966 147.614 185.023 149.294 189.253 149.294H220.153C218.058 149.294 215.984 148.882 214.049 148.08C212.114 147.279 210.355 146.104 208.874 144.623C207.393 143.142 206.218 141.383 205.417 139.448C204.615 137.513 204.203 135.439 204.203 133.344Z" fill="#D2D2D2"/>
<path d="M314.298 37.9609H198.818C194.588 37.9609 190.531 39.6414 187.54 42.6326C184.548 45.6238 182.868 49.6807 182.868 53.9109C182.868 58.1411 184.548 62.1981 187.54 65.1893C190.531 68.1805 194.588 69.8609 198.818 69.8609H314.298C318.528 69.8609 322.585 68.1805 325.576 65.1893C328.567 62.1981 330.248 58.1411 330.248 53.9109C330.248 49.6807 328.567 45.6238 325.576 42.6326C322.585 39.6414 318.528 37.9609 314.298 37.9609Z" fill="#EFEDEE"/>
<path d="M213.774 53.9109C213.774 49.6807 215.454 45.6238 218.446 42.6326C221.437 39.6414 225.494 37.9609 229.724 37.9609H198.818C194.588 37.9609 190.531 39.6414 187.54 42.6326C184.548 45.6238 182.868 49.6807 182.868 53.9109C182.868 58.1411 184.548 62.1981 187.54 65.1893C190.531 68.1805 194.588 69.8609 198.818 69.8609H229.718C225.489 69.8599 221.433 68.1789 218.443 65.1878C215.453 62.1966 213.773 58.1403 213.774 53.9109Z" fill="#D2D2D2"/>
<path d="M357.358 400.268H155.758C151.528 400.268 147.471 401.948 144.48 404.94C141.489 407.931 139.808 411.988 139.808 416.218C139.808 420.448 141.489 424.505 144.48 427.496C147.471 430.488 151.528 432.168 155.758 432.168H357.364C361.594 432.168 365.651 430.488 368.642 427.496C371.634 424.505 373.314 420.448 373.314 416.218C373.314 411.988 371.634 407.931 368.642 404.94C365.651 401.948 361.594 400.268 357.364 400.268H357.358Z" fill="#FD6F71"/>
<path d="M170.708 416.218C170.708 411.988 172.389 407.931 175.38 404.94C178.371 401.948 182.428 400.268 186.658 400.268H155.758C151.528 400.268 147.471 401.948 144.48 404.94C141.489 407.931 139.808 411.988 139.808 416.218C139.808 420.448 141.489 424.505 144.48 427.496C147.471 430.488 151.528 432.168 155.758 432.168H186.658C182.428 432.168 178.371 430.488 175.38 427.496C172.389 424.505 170.708 420.448 170.708 416.218Z" fill="#E34B4C"/>
</svg>
