<svg width="512" height="512" viewBox="0 0 512 512" fill="none" xmlns="http://www.w3.org/2000/svg">
<path d="M356.887 118.413L313.723 127.664L301.766 173.534L259.621 215.679L281.199 237.257L378.464 139.992L380.173 125.036L356.887 118.413Z" fill="#D2D2D2"/>
<path d="M358.437 11.117C354.315 28.562 362.918 44.557 350.537 56.94L349.547 91.84L384.447 90.85C396.832 78.465 412.825 87.069 430.27 82.95C441.401 80.32 445.125 66.288 437.037 58.2L383.188 4.35005C375.1 -3.73796 361.067 -0.0139551 358.437 11.117Z" fill="#D2D2D2"/>
<path d="M132.557 447.214L93.877 479.87C94.729 483.017 95.569 486.01 96.377 488.831C98.5502 496.433 103.466 502.959 110.173 507.147C116.88 511.335 124.901 512.886 132.686 511.501L155.497 507.431C163.698 505.967 171.002 501.355 175.85 494.579C180.697 487.804 182.704 479.402 181.442 471.167C181.115 469.007 180.788 466.758 180.487 464.431L132.557 447.214Z" fill="#F2C42C"/>
<path d="M175.317 413.325C188.159 417.663 202.198 416.721 214.346 410.708C226.493 404.694 235.755 394.102 240.092 381.26C244.43 368.418 243.489 354.379 237.475 342.231C231.462 330.083 220.869 320.822 208.027 316.484L215.278 295.014C224.456 298.114 232.934 302.992 240.228 309.368C247.521 315.745 253.487 323.496 257.785 332.178C262.084 340.86 264.629 350.304 265.278 359.97C265.926 369.636 264.664 379.336 261.564 388.514C258.464 397.693 253.586 406.171 247.21 413.464C240.833 420.758 233.082 426.724 224.4 431.022C215.718 435.32 206.274 437.866 196.608 438.514C186.942 439.162 177.242 437.9 168.064 434.8L175.317 413.325Z" fill="#FADC60"/>
<path d="M173.133 344.249C173.119 344.234 173.198 344.327 173.194 344.349C173.19 344.371 173.176 344.388 173.264 344.515C177.672 350.886 183.31 356.31 189.846 360.47C196.06 364.545 203.475 366.386 210.873 365.692C212.478 365.55 214.082 365.983 215.397 366.915C216.713 367.847 217.653 369.216 218.051 370.778C218.449 372.34 218.279 373.992 217.57 375.44C216.861 376.887 215.661 378.036 214.183 378.679C206.587 382.007 198.248 383.277 190.005 382.359C176.555 380.838 161.74 374.8 151.374 365.987C151.22 365.857 151.226 365.873 151.211 365.858C149.752 364.427 148.593 362.72 147.801 360.837C147.009 358.954 146.6 356.932 146.598 354.889C146.596 352.845 147 350.822 147.788 348.937C148.576 347.052 149.731 345.343 151.187 343.909C152.642 342.475 154.368 341.345 156.265 340.585C158.161 339.825 160.19 339.451 162.233 339.483C164.276 339.516 166.292 339.955 168.163 340.775C170.034 341.594 171.724 342.778 173.133 344.258V344.249Z" fill="#F2C42C"/>
<path d="M208.028 316.482C219.636 320.37 229.447 328.327 235.648 338.882L252.007 322.523C243.021 309.661 230.148 300.018 215.279 295.01L208.028 316.482Z" fill="#F2C42C"/>
<path d="M175.317 413.325L168.066 434.794C179.597 438.717 191.923 439.708 203.932 437.678C203.56 429.949 203.58 422.206 203.992 414.478C194.521 416.859 184.566 416.458 175.317 413.325Z" fill="#F2C42C"/>
<path d="M126.187 281.288L94.7999 312.675C63.1889 344.286 80.4109 430.294 93.8769 479.875L180.486 464.435C175.313 424.998 174.586 363.535 210.751 327.364L277.12 260.995C286.806 251.308 294.182 239.561 298.7 226.629C303.217 213.696 304.76 199.911 303.212 186.3L301.764 173.533L126.187 281.288Z" fill="#C86D5C"/>
<path d="M353.929 98.793L356.886 118.415L378.464 139.993C380.674 142.203 383.671 143.444 386.796 143.444C389.921 143.444 392.918 142.203 395.128 139.993C397.338 137.783 398.579 134.786 398.579 131.661C398.579 128.536 397.338 125.539 395.128 123.329L373.55 101.751L353.929 98.793Z" fill="#9E9E9E"/>
<path d="M350.534 56.9409L384.446 90.8529L163.752 311.547L126.187 281.288L350.534 56.9409Z" fill="#B8B8B8"/>
<path d="M216.593 220.49L125.009 312.074C122.772 314.311 120.998 316.966 119.788 319.888C118.577 322.81 117.954 325.942 117.954 329.105C117.954 332.268 118.577 335.4 119.788 338.322C120.998 341.245 122.772 343.9 125.009 346.136C127.246 348.373 129.901 350.147 132.823 351.357C135.745 352.568 138.877 353.191 142.04 353.191C145.203 353.191 148.335 352.568 151.257 351.357C154.179 350.147 156.835 348.373 159.071 346.136L250.655 254.552C252.892 252.316 254.666 249.661 255.876 246.738C257.087 243.816 257.71 240.684 257.71 237.521C257.71 234.358 257.087 231.226 255.876 228.304C254.666 225.382 252.892 222.727 250.655 220.49C248.419 218.254 245.763 216.479 242.841 215.269C239.919 214.059 236.787 213.436 233.624 213.436C230.461 213.436 227.329 214.059 224.407 215.269C221.485 216.479 218.83 218.254 216.593 220.49Z" fill="#D2D2D2"/>
<path d="M120.7 211.563C118.289 211.561 115.968 212.477 114.207 214.123C112.445 215.769 111.376 218.023 111.215 220.429C110.215 235.413 105.115 264.301 80.659 266.094C78.2233 266.312 75.9656 267.462 74.356 269.303C72.7463 271.144 71.9086 273.535 72.0172 275.978C72.1258 278.421 73.1724 280.728 74.9391 282.419C76.7058 284.11 79.0565 285.054 81.502 285.056C91.602 285.056 103.437 282.905 112.464 288.497C116.085 290.821 119.41 293.577 122.364 296.705C126.729 301.189 129.726 307.097 134.064 311.44C136.024 313.4 138.358 314.947 140.927 315.99C143.496 317.032 146.248 317.549 149.02 317.509C151.792 317.469 154.528 316.873 157.066 315.757C159.604 314.641 161.892 313.027 163.795 311.011C171.588 302.766 170.985 289.684 162.939 281.687C139.889 258.774 128.716 258.479 130.203 245.103V221.068C130.204 219.82 129.958 218.584 129.481 217.43C129.004 216.277 128.304 215.229 127.421 214.346C126.539 213.463 125.491 212.763 124.338 212.286C123.184 211.808 121.948 211.563 120.7 211.563Z" fill="#9E9E9E"/>
</svg>
