<svg width="513" height="512" viewBox="0 0 513 512" fill="none" xmlns="http://www.w3.org/2000/svg">
<path d="M482.763 36.623H49.016V378.55H482.763C490.574 378.55 498.066 375.448 503.589 369.925C509.113 364.402 512.217 356.911 512.218 349.1V66.078C512.218 62.2099 511.456 58.3797 509.976 54.806C508.496 51.2322 506.326 47.9851 503.591 45.2499C500.856 42.5147 497.609 40.3451 494.035 38.8649C490.461 37.3847 486.631 36.6229 482.763 36.623Z" fill="#3A484A"/>
<path d="M75.099 59.311V13.26C75.099 9.74323 73.702 6.3705 71.2153 3.88376C68.7285 1.39703 65.3558 0 61.839 0L36.194 0C32.6772 0 29.3045 1.39703 26.8178 3.88376C24.3311 6.3705 22.934 9.74323 22.934 13.26V512H75.098V355.864L65.709 341.93L75.098 328V87.179L65.38 73.245L75.099 59.311Z" fill="#C86D5C"/>
<path d="M22.934 59.311C19.2386 59.3113 15.6945 60.7794 13.0815 63.3925C10.4684 66.0056 9.00027 69.5496 9 73.245C9.00027 76.9405 10.4684 80.4845 13.0815 83.0976C15.6945 85.7106 19.2386 87.1788 22.934 87.179H75.098V59.311H22.934Z" fill="#EFEDEE"/>
<path d="M22.934 327.994C19.2386 327.994 15.6945 329.463 13.0815 332.076C10.4684 334.689 9.00027 338.233 9 341.928C9.00027 345.624 10.4684 349.168 13.0815 351.781C15.6945 354.394 19.2386 355.862 22.934 355.862H75.098V327.994H22.934Z" fill="#EFEDEE"/>
<path d="M389.474 293.753C388.913 294.316 388.388 294.914 387.901 295.543L192.909 100.549C195.578 98.4802 197.645 95.7348 198.895 92.5976C200.145 89.4604 200.533 86.0459 200.018 82.7083C199.503 79.3708 198.104 76.2319 195.966 73.6175C193.829 71.003 191.03 69.0083 187.862 67.8404C184.693 66.6725 181.27 66.3739 177.947 66.9757C174.624 67.5774 171.522 69.0575 168.964 71.2624C166.406 73.4674 164.485 76.3167 163.4 79.5147C162.315 82.7127 162.106 86.1428 162.794 89.449C159.586 88.7816 156.26 88.9586 153.142 89.9626C150.023 90.9666 147.218 92.7632 145.002 95.1765C142.786 97.5898 141.235 100.537 140.5 103.73C139.765 106.923 139.872 110.252 140.81 113.391C141.748 116.53 143.485 119.372 145.851 121.639C148.217 123.905 151.131 125.518 154.307 126.32C157.484 127.123 160.815 127.086 163.973 126.215C167.131 125.343 170.009 123.667 172.325 121.349C172.886 120.786 173.411 120.188 173.898 119.559L368.891 314.555C366.222 316.624 364.155 319.369 362.905 322.506C361.655 325.644 361.267 329.058 361.782 332.396C362.297 335.733 363.696 338.872 365.834 341.486C367.971 344.101 370.77 346.096 373.938 347.264C377.107 348.431 380.53 348.73 383.853 348.128C387.176 347.527 390.278 346.046 392.836 343.841C395.393 341.637 397.315 338.787 398.4 335.589C399.485 332.391 399.694 328.961 399.006 325.655C402.213 326.321 405.539 326.143 408.657 325.139C411.775 324.134 414.579 322.337 416.794 319.924C419.009 317.511 420.56 314.564 421.294 311.372C422.029 308.179 421.922 304.851 420.984 301.712C420.047 298.573 418.31 295.732 415.945 293.465C413.579 291.199 410.666 289.586 407.49 288.783C404.314 287.981 400.984 288.016 397.826 288.887C394.668 289.757 391.79 291.433 389.474 293.749V293.753Z" fill="#D2D2D2"/>
<path d="M172.323 293.753C172.884 294.316 173.409 294.914 173.896 295.543L368.891 100.548C366.222 98.4792 364.155 95.7338 362.905 92.5966C361.655 89.4595 361.267 86.0449 361.782 82.7074C362.297 79.3698 363.696 76.2309 365.834 73.6165C367.971 71.0021 370.77 69.0074 373.938 67.8394C377.107 66.6715 380.53 66.3729 383.853 66.9747C387.176 67.5764 390.278 69.0566 392.836 71.2615C395.394 73.4664 397.315 76.3157 398.4 79.5137C399.485 82.7117 399.694 86.1418 399.006 89.448C402.214 88.7806 405.54 88.9576 408.658 89.9616C411.777 90.9656 414.582 92.7622 416.798 95.1755C419.014 97.5888 420.565 100.536 421.3 103.729C422.035 106.922 421.928 110.251 420.99 113.39C420.052 116.529 418.315 119.371 415.949 121.638C413.583 123.904 410.669 125.517 407.493 126.319C404.316 127.122 400.985 127.085 397.827 126.214C394.669 125.342 391.791 123.666 389.475 121.348C388.914 120.785 388.389 120.187 387.902 119.558L192.909 314.553C195.578 316.622 197.645 319.367 198.895 322.504C200.145 325.642 200.533 329.056 200.018 332.394C199.503 335.731 198.104 338.87 195.966 341.484C193.829 344.099 191.03 346.094 187.862 347.262C184.693 348.429 181.27 348.728 177.947 348.126C174.624 347.525 171.522 346.044 168.964 343.84C166.406 341.635 164.485 338.785 163.4 335.587C162.315 332.389 162.106 328.959 162.794 325.653C159.587 326.32 156.261 326.143 153.143 325.139C150.024 324.134 147.22 322.338 145.004 319.925C142.789 317.512 141.238 314.564 140.503 311.372C139.768 308.179 139.875 304.851 140.813 301.712C141.751 298.573 143.487 295.731 145.853 293.465C148.219 291.199 151.132 289.585 154.309 288.783C157.485 287.981 160.815 288.017 163.973 288.888C167.131 289.76 170.009 291.436 172.325 293.753H172.323Z" fill="#D2D2D2"/>
<path d="M280.899 105.512C252.014 105.512 224.312 116.987 203.887 137.412C183.462 157.837 171.987 185.539 171.987 214.424C171.987 243.024 183.014 259.724 201.042 269.389C204.42 271.184 207.248 273.862 209.223 277.138C211.198 280.413 212.247 284.164 212.257 287.989V292.078C212.223 296.59 213.943 300.939 217.055 304.207C220.167 307.474 224.427 309.404 228.936 309.589C231.229 309.654 233.512 309.258 235.65 308.425C237.787 307.591 239.736 306.338 241.381 304.739C243.026 303.14 244.333 301.227 245.226 299.114C246.119 297 246.579 294.729 246.579 292.435C246.579 296.987 248.387 301.352 251.605 304.57C254.824 307.788 259.189 309.596 263.74 309.596C268.291 309.596 272.656 307.788 275.875 304.57C279.093 301.352 280.901 296.987 280.901 292.435C280.901 296.987 282.709 301.352 285.927 304.57C289.146 307.788 293.511 309.596 298.062 309.596C302.613 309.596 306.978 307.788 310.197 304.57C313.415 301.352 315.223 296.987 315.223 292.435C315.223 294.729 315.683 297 316.576 299.113C317.469 301.227 318.777 303.139 320.421 304.739C322.066 306.338 324.015 307.591 326.152 308.424C328.29 309.257 330.573 309.654 332.866 309.589C337.374 309.404 341.634 307.474 344.746 304.206C347.859 300.939 349.579 296.59 349.545 292.078V287.989C349.555 284.164 350.604 280.413 352.579 277.138C354.554 273.862 357.382 271.184 360.76 269.389C378.787 259.725 389.815 243.019 389.815 214.424C389.813 185.539 378.337 157.837 357.912 137.412C337.487 116.988 309.784 105.513 280.899 105.512Z" fill="#EFEDEE"/>
<path d="M225.064 256.186C223.015 256.186 221.05 255.372 219.601 253.923C218.152 252.474 217.338 250.509 217.338 248.46V235.873C217.338 233.824 218.152 231.859 219.601 230.41C221.05 228.961 223.015 228.147 225.064 228.147C227.113 228.147 229.078 228.961 230.527 230.41C231.976 231.859 232.79 233.824 232.79 235.873V248.46C232.79 250.509 231.976 252.474 230.527 253.923C229.078 255.372 227.113 256.186 225.064 256.186Z" fill="#3A484A"/>
<path d="M336.735 256.186C334.686 256.186 332.721 255.372 331.272 253.923C329.823 252.474 329.009 250.509 329.009 248.46V235.873C329.009 233.824 329.823 231.859 331.272 230.41C332.721 228.961 334.686 228.147 336.735 228.147C338.784 228.147 340.749 228.961 342.198 230.41C343.647 231.859 344.461 233.824 344.461 235.873V248.46C344.461 249.475 344.261 250.479 343.873 251.417C343.485 252.354 342.916 253.206 342.198 253.923C341.481 254.641 340.629 255.21 339.692 255.598C338.754 255.986 337.75 256.186 336.735 256.186Z" fill="#3A484A"/>
<path d="M75.098 87.1738H22.934V118.926H75.098V87.1738Z" fill="#AD4F3D"/>
<path d="M75.098 355.866H22.934V387.618H75.098V355.866Z" fill="#AD4F3D"/>
</svg>
