<svg width="512" height="512" viewBox="0 0 512 512" fill="none" xmlns="http://www.w3.org/2000/svg">
<path d="M169.323 382.567L158.283 383.754C138.339 386.328 118.686 390.804 99.594 397.12C56.325 411.3 24.556 431.894 5.16205 458.347C3.31981 460.883 2.23233 463.889 2.02513 467.016C1.81793 470.144 2.49945 473.267 3.99105 476.024C8.29105 484.518 18.856 490.686 29.108 490.686C34.8216 490.771 40.3498 488.659 44.551 484.786C72.951 458.486 120.19 439.533 162.085 437.613L172.953 437.113L169.323 382.567Z" fill="#ED5564"/>
<path d="M511.049 128.5C508.378 77.158 496.167 40.291 495.649 38.76L482.629 0L475.071 40.161C467.826 78.605 450.103 108.961 422.418 130.369C401.556 146.499 382.475 151.309 382.318 151.34L374.323 153.26L374.151 161.489C373.451 193.437 361.893 224.87 339.783 254.913C321.683 279.491 296.56 303.195 265.119 325.383C210.936 363.609 156.252 384.158 155.719 384.346L162.09 437.609C308.871 430.879 411.258 386.672 466.363 306.209C484.695 279.444 497.64 248.652 504.824 214.709C510.518 187.723 512.61 158.726 511.049 128.5Z" fill="#CCD1D9"/>
<path opacity="0.3" d="M511.049 128.5C508.378 77.158 496.167 40.291 495.649 38.76L482.629 0L475.071 40.161C475.04 40.349 474.993 40.536 474.946 40.723C477.57 49.123 487.376 83.164 489.718 128.495C491.385 157.38 489.296 186.358 483.503 214.705C476.319 248.652 463.374 279.444 445.026 306.205C392.626 382.751 297.436 426.473 161.926 436.342L162.082 437.607C308.863 430.877 411.25 386.67 466.355 306.207C484.687 279.442 497.632 248.65 504.816 214.707C510.518 187.723 512.61 158.726 511.049 128.5Z" fill="white"/>
<path d="M68.0601 467.185C74.1231 463.46 80.3892 460.077 86.8291 457.051L64.0861 411.451C57.6917 414.58 51.4703 418.052 45.4491 421.851L68.0601 467.185Z" fill="#DA4453"/>
<path d="M95.9011 398.338L105.434 449.338C112.163 446.905 119.011 444.815 125.952 443.076L116.427 392.094C111.087 393.531 105.442 395.186 99.5941 397.121C98.3531 397.526 97.1271 397.933 95.9011 398.338Z" fill="#DA4453"/>
<path d="M160.649 357.974L160.602 357.99C160.131 356.674 159.404 355.465 158.463 354.431C157.523 353.397 156.387 352.559 155.122 351.966C153.857 351.372 152.486 351.034 151.09 350.972C149.694 350.91 148.299 351.124 146.986 351.602C145.673 352.081 144.467 352.814 143.438 353.76C142.409 354.706 141.577 355.846 140.99 357.114C140.404 358.383 140.073 359.755 140.018 361.151C139.963 362.548 140.185 363.941 140.67 365.252L140.623 365.268C153.498 400.621 156.644 429.352 149.96 450.651C144.76 467.265 133.596 478.883 116.771 485.223C99.9931 491.531 77.8581 492 57.5661 486.472C53.8826 485.477 50.2637 484.257 46.7301 482.818C45.9961 483.474 45.2621 484.13 44.5521 484.786C40.3508 488.659 34.8226 490.771 29.1091 490.686C22.0031 490.567 15.1654 487.953 9.79309 483.3C18.6861 493.528 33.5361 502.022 51.9541 507.05C63.1451 510.102 74.6914 511.656 86.2911 511.672C99.2407 511.784 112.106 509.583 124.282 505.172C147.228 496.522 163.148 479.872 170.307 457.016C178.419 431.146 175.171 397.823 160.649 357.974Z" fill="#FFCE54"/>
</svg>
