<svg width="512" height="512" viewBox="0 0 512 512" fill="none" xmlns="http://www.w3.org/2000/svg">
<path d="M511.686 155.505C509.629 147.419 505.377 140.058 499.4 134.236C493.423 128.415 485.953 124.358 477.815 122.516C469.677 120.673 461.188 121.115 453.286 123.794C445.384 126.473 438.376 131.283 433.036 137.695C435.093 145.781 439.345 153.142 445.322 158.963C451.299 164.785 458.77 168.841 466.907 170.684C475.045 172.527 483.534 172.085 491.436 169.406C499.338 166.727 506.346 161.916 511.686 155.505Z" fill="#E34B4C"/>
<path d="M435.277 253.3L438.843 176.49L452.075 185.564V241.495L435.277 253.3Z" fill="#E3B098"/>
<path d="M65.651 253.3L62.088 176.49L48.856 185.564V241.495L65.651 253.3Z" fill="#E3B098"/>
<path d="M113.62 378.756C88.8848 396.516 52.9038 436.035 63.3978 512H113.619L150.67 454.381L113.62 378.756Z" fill="#E3B098"/>
<path d="M387.309 378.756L350.257 454.381L387.309 512H437.53C448.025 436.035 412.043 396.516 387.309 378.756Z" fill="#E3B098"/>
<path d="M356.957 388.017H147.057L113.618 402.956V439.307L250.463 457.479L387.307 439.307V402.956L356.957 388.017Z" fill="#EFEDEE"/>
<path d="M250.465 457.479L113.62 475.649V512H387.309V475.649L250.465 457.479Z" fill="#EFEDEE"/>
<path d="M387.309 378.756V402.956H113.62V378.756C125.699 370.082 135.103 366.605 135.103 366.605H365.825C365.825 366.605 375.23 370.083 387.309 378.756Z" fill="#FD6F71"/>
<path d="M387.307 439.31H113.619V475.655H387.307V439.31Z" fill="#FD6F71"/>
<path d="M490.058 80.672C482.121 78.0977 473.628 77.7674 465.515 79.7173C457.402 81.6673 449.986 85.8217 444.086 91.7217C438.186 97.6217 434.032 105.038 432.082 113.15C430.132 121.263 430.462 129.757 433.036 137.694C440.973 140.268 449.467 140.599 457.58 138.649C465.693 136.699 473.109 132.544 479.009 126.644C484.909 120.744 489.063 113.328 491.013 105.216C492.963 97.1027 492.632 88.6088 490.058 80.672Z" fill="#E34B4C"/>
<path d="M418.436 163.2H82.843V216.746C82.623 220.22 82.498 223.718 82.498 227.246C82.498 318.746 157.698 392.926 250.469 392.926C343.24 392.926 418.44 318.749 418.44 227.246C418.44 223.718 418.315 220.219 418.095 216.746H418.44V163.2H418.436Z" fill="#E3B098"/>
<path d="M150.672 258.233C149.657 258.233 148.652 258.034 147.715 257.645C146.778 257.257 145.926 256.688 145.208 255.971C144.491 255.253 143.922 254.401 143.534 253.464C143.145 252.527 142.946 251.522 142.946 250.507V224.987C142.946 222.938 143.76 220.973 145.209 219.524C146.658 218.075 148.623 217.261 150.672 217.261C152.721 217.261 154.686 218.075 156.135 219.524C157.584 220.973 158.398 222.938 158.398 224.987V250.507C158.398 251.522 158.198 252.527 157.81 253.464C157.422 254.401 156.853 255.253 156.135 255.971C155.418 256.688 154.566 257.257 153.629 257.645C152.691 258.034 151.686 258.233 150.672 258.233Z" fill="#3A484A"/>
<path d="M159.903 204.782L150.673 189.437L141.443 204.782C138.027 204.782 134.751 206.139 132.336 208.554C129.921 210.969 128.564 214.245 128.564 217.661C128.564 221.077 129.921 224.353 132.336 226.768C134.751 229.183 138.027 230.54 141.443 230.54H159.904C163.32 230.54 166.596 229.183 169.011 226.768C171.426 224.353 172.783 221.077 172.783 217.661C172.783 214.245 171.426 210.969 169.01 208.554C166.595 206.139 163.319 204.782 159.903 204.782Z" fill="#EFEDEE"/>
<path d="M350.257 258.233C349.242 258.233 348.237 258.034 347.3 257.645C346.363 257.257 345.511 256.688 344.793 255.971C344.076 255.253 343.507 254.401 343.119 253.464C342.73 252.527 342.531 251.522 342.531 250.507V224.987C342.531 222.938 343.345 220.973 344.794 219.524C346.243 218.075 348.208 217.261 350.257 217.261C352.306 217.261 354.271 218.075 355.72 219.524C357.169 220.973 357.983 222.938 357.983 224.987V250.507C357.983 251.522 357.783 252.527 357.395 253.464C357.007 254.401 356.438 255.253 355.72 255.971C355.003 256.688 354.151 257.257 353.214 257.645C352.276 258.034 351.271 258.233 350.257 258.233Z" fill="#3A484A"/>
<path d="M341.027 204.782L350.257 189.437L359.487 204.782C362.903 204.782 366.179 206.139 368.594 208.554C371.009 210.969 372.366 214.245 372.366 217.661C372.366 221.077 371.009 224.353 368.594 226.768C366.179 229.183 362.903 230.54 359.487 230.54H341.026C339.334 230.541 337.659 230.208 336.096 229.561C334.533 228.914 333.113 227.965 331.917 226.769C330.72 225.573 329.771 224.153 329.124 222.591C328.476 221.028 328.143 219.353 328.143 217.661C328.143 215.969 328.477 214.294 329.124 212.731C329.772 211.169 330.721 209.749 331.917 208.553C333.114 207.357 334.534 206.408 336.097 205.761C337.66 205.114 339.335 204.781 341.027 204.782Z" fill="#EFEDEE"/>
<path d="M250.468 444.091C282.005 444.091 307.571 418.986 307.571 388.018C307.571 357.05 282.005 331.945 250.468 331.945C218.931 331.945 193.365 357.05 193.365 388.018C193.365 418.986 218.931 444.091 250.468 444.091Z" fill="#E3B098"/>
<path d="M398.112 204.782C398.112 296.958 353.355 304.16 353.355 304.16C312.198 313.42 292.135 270.72 250.465 270.72C208.795 270.72 188.73 313.42 147.575 304.16C147.575 304.16 102.818 296.96 102.818 204.782H60.0632C59.8125 208.728 59.6845 212.703 59.6792 216.709C59.6792 320.64 145.096 404.892 250.465 404.892C355.834 404.892 441.251 320.64 441.251 216.709C441.251 212.703 441.123 208.728 440.867 204.782H398.112Z" fill="#EFEDEE"/>
<path d="M80.2822 216.709C80.2822 212.703 80.4102 208.728 80.6662 204.782H60.0632C59.8125 208.728 59.6845 212.703 59.6792 216.709C59.6792 320.64 145.096 404.892 250.465 404.892C253.921 404.892 257.355 404.801 260.765 404.617C160.189 399.337 80.2822 317.23 80.2822 216.709Z" fill="#D2D2D2"/>
<path d="M250.465 317.146C245.734 317.181 241.051 316.204 236.729 314.28C232.407 312.356 228.547 309.53 225.407 305.991C224.082 304.445 223.422 302.438 223.568 300.408C223.715 298.377 224.657 296.486 226.19 295.147C227.723 293.807 229.723 293.126 231.755 293.252C233.787 293.378 235.687 294.302 237.042 295.821C238.753 297.672 240.829 299.15 243.139 300.16C245.449 301.17 247.943 301.692 250.464 301.692C252.985 301.692 255.479 301.17 257.789 300.16C260.099 299.15 262.175 297.672 263.886 295.821C265.241 294.302 267.141 293.378 269.173 293.252C271.205 293.126 273.205 293.807 274.738 295.147C276.271 296.486 277.213 298.377 277.359 300.408C277.506 302.438 276.845 304.445 275.521 305.991C272.382 309.53 268.522 312.356 264.2 314.28C259.878 316.204 255.195 317.181 250.465 317.146Z" fill="#3A484A"/>
<path d="M31.4561 204.782H469.475C463.185 90.815 367.361 0 250.465 0C133.569 0 37.7431 90.815 31.4561 204.782Z" fill="#FD6F71"/>
<path d="M271.068 0.958C264.284 0.330667 257.416 0.0113333 250.465 0C133.568 0 37.7431 90.815 31.4561 204.781H80.6671C86.5811 97.588 163.703 10.887 271.068 0.958Z" fill="#E34B4C"/>
<path d="M441.251 176.407C440.441 176.407 439.639 176.44 438.841 176.489C442.987 202.064 441.774 228.221 435.278 253.302C440.543 254.119 445.921 253.84 451.073 252.482C456.226 251.123 461.042 248.715 465.22 245.407C469.398 242.1 472.847 237.965 475.352 233.262C477.857 228.559 479.363 223.389 479.775 218.076C480.188 212.764 479.498 207.423 477.75 202.389C476.002 197.356 473.232 192.738 469.615 188.825C465.998 184.912 461.611 181.789 456.73 179.651C451.849 177.513 446.579 176.407 441.251 176.402V176.407Z" fill="#E3B098"/>
<path d="M59.678 206.407C59.678 196.386 60.4839 186.381 62.088 176.49C61.288 176.441 60.488 176.408 59.678 176.408C49.42 176.408 39.5821 180.483 32.3285 187.736C25.075 194.99 21 204.828 21 215.086C21 225.344 25.075 235.182 32.3285 242.435C39.5821 249.689 49.42 253.764 59.678 253.764C61.6778 253.763 63.6747 253.61 65.651 253.304C61.6749 237.989 59.6677 222.229 59.678 206.407Z" fill="#E3B098"/>
</svg>
