<svg width="512" height="512" viewBox="0 0 512 512" fill="none" xmlns="http://www.w3.org/2000/svg">
<path d="M332.047 357.75H206.308L163.575 450.641L206.308 511.614H332.047L374.78 450.641L332.047 357.75Z" fill="#C86D5C"/>
<path d="M124.367 370.614C98.1915 389.407 60.1165 431.228 71.2215 511.614H124.367L163.576 450.641L124.367 370.614Z" fill="#C86D5C"/>
<path d="M413.988 370.614L374.779 450.642L413.988 511.615H467.133C478.238 431.227 440.163 389.407 413.988 370.614Z" fill="#C86D5C"/>
<path d="M413.994 370.614V511.614H332.047V357.75H391.254C391.254 357.75 401.206 361.435 413.994 370.614Z" fill="#506366"/>
<path d="M124.367 370.614C122.581 371.897 120.737 373.291 118.858 374.793C122.858 378.145 126.949 381.355 131.132 384.421L124.367 370.614Z" fill="#B35948"/>
<path d="M206.308 357.75V511.615H124.361V370.615C137.149 361.436 147.101 357.751 147.101 357.751L206.308 357.75Z" fill="#506366"/>
<path d="M181.236 412.251C237.692 434.818 300.662 434.818 357.118 412.251L332.045 357.751H206.308L181.236 412.251Z" fill="#B35948"/>
<path d="M314.514 357.75C314.514 355.701 313.7 353.736 312.251 352.287C310.802 350.838 308.837 350.024 306.788 350.024C304.739 350.024 302.774 350.838 301.325 352.287C299.876 353.736 299.062 355.701 299.062 357.75C299.062 387.604 279.517 422.49 269.177 438.85C258.838 422.485 239.294 387.6 239.294 357.75C239.294 355.701 238.48 353.736 237.031 352.287C235.582 350.838 233.617 350.024 231.568 350.024C229.519 350.024 227.554 350.838 226.105 352.287C224.656 353.736 223.842 355.701 223.842 357.75C223.842 403.2 261.342 455.142 262.935 457.331L262.942 457.34C263.118 457.58 263.308 457.81 263.511 458.028C263.566 458.087 263.624 458.139 263.681 458.197C263.821 458.338 263.964 458.477 264.117 458.61C264.217 458.694 264.317 458.772 264.417 458.851C264.489 458.908 264.555 458.968 264.629 459.022C264.664 459.048 264.703 459.064 264.739 459.089C265.024 459.292 265.323 459.475 265.634 459.638C265.661 459.651 265.685 459.669 265.711 459.682C266.032 459.841 266.364 459.978 266.705 460.09C266.82 460.129 266.937 460.16 267.053 460.19C267.288 460.257 267.524 460.313 267.763 460.358C267.888 460.381 268.01 460.405 268.135 460.423C268.451 460.467 268.77 460.491 269.089 460.496C269.117 460.496 269.146 460.502 269.173 460.502C269.531 460.499 269.888 460.472 270.242 460.42C270.349 460.406 270.454 460.384 270.561 460.364C270.823 460.317 271.082 460.256 271.337 460.181C271.437 460.152 271.537 460.126 271.637 460.093C271.988 459.978 272.33 459.838 272.661 459.673L272.671 459.668C273.007 459.494 273.33 459.296 273.638 459.076C273.668 459.054 273.701 459.041 273.73 459.019C273.793 458.973 273.848 458.919 273.91 458.874C274.027 458.782 274.145 458.692 274.257 458.593C274.385 458.482 274.504 458.363 274.624 458.246C274.702 458.169 274.783 458.096 274.858 458.014C275.052 457.804 275.235 457.583 275.405 457.352L275.424 457.329C277.017 455.142 314.514 403.198 314.514 357.75Z" fill="#F2C42C"/>
<path d="M98.2587 145.527L63.6737 135.437C63.6737 135.437 61.6997 245.197 21.3997 327.892C20.1437 330.49 19.8078 333.437 20.4472 336.251C21.0866 339.065 22.6633 341.578 24.9187 343.378C36.8006 353.069 51.6718 358.347 67.0047 358.314C69.8507 358.3 72.6116 357.342 74.8537 355.589C77.0958 353.836 78.6921 351.388 79.3917 348.629C86.9527 318.453 109.956 217.273 98.2587 145.527Z" fill="#4DB8CC"/>
<path d="M86.3438 114.592L52.2368 102.992C52.2368 102.992 45.4318 212.555 1.52776 293.395C0.158658 295.935 -0.306676 298.865 0.208074 301.704C0.722823 304.543 2.1871 307.123 4.36076 309.021C15.8039 319.226 30.4278 325.153 45.7468 325.796C48.5903 325.908 51.3903 325.071 53.7071 323.419C56.0239 321.766 57.7262 319.391 58.5468 316.666C67.4308 286.853 94.8688 186.783 86.3438 114.592Z" fill="#57D0E6"/>
<path d="M75.502 145.152C97.1791 145.152 114.752 127.579 114.752 105.902C114.752 84.2247 97.1791 66.6519 75.502 66.6519C53.8248 66.6519 36.252 84.2247 36.252 105.902C36.252 127.579 53.8248 145.152 75.502 145.152Z" fill="#4DB8CC"/>
<path d="M67.2806 249.242C89.885 249.242 108.21 230.917 108.21 208.313C108.21 185.708 89.885 167.384 67.2806 167.384C44.6761 167.384 26.3516 185.708 26.3516 208.313C26.3516 230.917 44.6761 249.242 67.2806 249.242Z" fill="#B35948"/>
<path d="M471.071 249.242C493.675 249.242 512 230.917 512 208.313C512 185.708 493.675 167.384 471.071 167.384C448.466 167.384 430.142 185.708 430.142 208.313C430.142 230.917 448.466 249.242 471.071 249.242Z" fill="#B35948"/>
<path d="M419.5 374.793C417.622 373.293 415.778 371.893 413.991 370.614L407.226 384.422C411.408 381.362 415.5 378.152 419.5 374.793Z" fill="#B35948"/>
<path d="M332.047 357.75V420.727C361.857 412.517 389.721 398.419 413.994 379.265V370.614C401.206 361.435 391.254 357.75 391.254 357.75H332.047Z" fill="#3A484A"/>
<path d="M124.362 370.614V379.266C148.635 398.42 176.498 412.518 206.309 420.728V357.75H147.1C147.1 357.75 137.149 361.435 124.362 370.614Z" fill="#3A484A"/>
<path d="M269.176 398.268C380.679 398.268 471.071 309.113 471.071 199.134C471.071 89.1553 380.679 0 269.176 0C157.672 0 67.2808 89.1553 67.2808 199.134C67.2808 309.113 157.672 398.268 269.176 398.268Z" fill="#C86D5C"/>
<path d="M457.12 100.721C450.314 88.1254 442.245 76.2555 433.035 65.2949C431.745 63.7655 430.136 62.5368 428.322 61.695C426.507 60.8532 424.53 60.4187 422.53 60.4219H115.824C113.824 60.4194 111.848 60.8543 110.034 61.6961C108.22 62.5379 106.613 63.7662 105.324 65.2949C96.1129 76.2549 88.0429 88.1249 81.2386 100.721C80.1135 102.814 79.5507 105.164 79.6052 107.54C79.6597 109.916 80.3296 112.237 81.5495 114.277C82.7694 116.317 84.4976 118.005 86.5651 119.177C88.6327 120.349 90.9689 120.965 93.3456 120.964H445.014C447.39 120.965 449.726 120.349 451.794 119.177C453.861 118.005 455.589 116.316 456.809 114.276C458.029 112.237 458.699 109.916 458.753 107.54C458.807 105.164 458.245 102.814 457.12 100.721Z" fill="#57D0E6"/>
<path d="M385.812 220.216C383.763 220.216 381.798 219.402 380.349 217.953C378.9 216.504 378.086 214.539 378.086 212.49V189.812C378.086 187.763 378.9 185.798 380.349 184.349C381.798 182.9 383.763 182.086 385.812 182.086C387.861 182.086 389.826 182.9 391.275 184.349C392.724 185.798 393.538 187.763 393.538 189.812V212.49C393.538 213.505 393.338 214.509 392.95 215.447C392.562 216.384 391.993 217.236 391.275 217.953C390.558 218.671 389.706 219.24 388.769 219.628C387.831 220.016 386.827 220.216 385.812 220.216Z" fill="#3A484A"/>
<path d="M401.257 253.55H370.369C368.319 253.55 366.354 252.736 364.905 251.287C363.457 249.838 362.643 247.873 362.643 245.824C362.643 243.775 363.457 241.81 364.905 240.361C366.354 238.912 368.319 238.098 370.369 238.098H401.257C403.306 238.098 405.271 238.912 406.72 240.361C408.169 241.81 408.983 243.775 408.983 245.824C408.983 247.873 408.169 249.838 406.72 251.287C405.271 252.736 403.306 253.55 401.257 253.55Z" fill="#F98084"/>
<path d="M152.543 220.216C150.494 220.216 148.529 219.402 147.08 217.953C145.631 216.504 144.817 214.539 144.817 212.49V189.812C144.817 187.763 145.631 185.798 147.08 184.349C148.529 182.9 150.494 182.086 152.543 182.086C154.592 182.086 156.557 182.9 158.006 184.349C159.455 185.798 160.269 187.763 160.269 189.812V212.49C160.269 213.505 160.069 214.509 159.681 215.447C159.293 216.384 158.724 217.236 158.006 217.953C157.289 218.671 156.437 219.24 155.5 219.628C154.562 220.016 153.558 220.216 152.543 220.216Z" fill="#3A484A"/>
<path d="M167.987 253.55H137.1C135.05 253.55 133.085 252.736 131.636 251.287C130.188 249.838 129.374 247.873 129.374 245.824C129.374 243.775 130.188 241.81 131.636 240.361C133.085 238.912 135.05 238.098 137.1 238.098H167.988C170.037 238.098 172.002 238.912 173.451 240.361C174.9 241.81 175.714 243.775 175.714 245.824C175.714 247.873 174.9 249.838 173.451 251.287C172.002 252.736 170.037 253.55 167.988 253.55H167.987Z" fill="#F98084"/>
<path d="M269.177 253.358C264.141 253.396 259.155 252.356 254.554 250.308C249.953 248.261 245.843 245.253 242.5 241.487C241.832 240.723 241.321 239.835 240.996 238.874C240.672 237.913 240.54 236.897 240.608 235.884C240.676 234.872 240.942 233.883 241.393 232.974C241.843 232.064 242.468 231.253 243.232 230.585C243.995 229.917 244.883 229.406 245.845 229.082C246.806 228.757 247.822 228.625 248.834 228.693C249.847 228.761 250.836 229.028 251.745 229.478C252.654 229.928 253.466 230.553 254.134 231.317C256.05 233.394 258.377 235.052 260.966 236.186C263.555 237.32 266.351 237.905 269.178 237.905C272.004 237.905 274.8 237.32 277.389 236.186C279.978 235.052 282.305 233.394 284.222 231.317C284.889 230.553 285.701 229.928 286.61 229.478C287.52 229.028 288.509 228.761 289.521 228.693C290.533 228.625 291.549 228.757 292.51 229.082C293.472 229.406 294.36 229.917 295.124 230.585C295.887 231.253 296.512 232.064 296.963 232.974C297.413 233.883 297.679 234.872 297.747 235.884C297.815 236.897 297.683 237.913 297.359 238.874C297.034 239.835 296.523 240.723 295.856 241.487C292.513 245.254 288.402 248.262 283.801 250.31C279.199 252.357 274.213 253.397 269.177 253.358Z" fill="#3A484A"/>
<path d="M269.176 471.275C279.393 471.275 287.676 462.992 287.676 452.775C287.676 442.558 279.393 434.275 269.176 434.275C258.959 434.275 250.676 442.558 250.676 452.775C250.676 462.992 258.959 471.275 269.176 471.275Z" fill="#FADC60"/>
</svg>
