<svg width="512" height="512" viewBox="0 0 512 512" fill="none" xmlns="http://www.w3.org/2000/svg">
<path d="M49.449 512C76.7589 512 98.898 489.861 98.898 462.551C98.898 435.241 76.7589 413.102 49.449 413.102C22.1391 413.102 0 435.241 0 462.551C0 489.861 22.1391 512 49.449 512Z" fill="#FADC60"/>
<path d="M235.746 392.25L334.539 293.45L218.545 177.461L119.75 276.254L111.366 319.414L134.794 377.206L181.262 398.682L235.746 392.25Z" fill="#F2C42C"/>
<path d="M360.311 287.989L464.181 184.119L327.881 47.8188L224.011 151.689L209.378 204.219L239.445 272.555L312.466 301.841L360.311 287.989Z" fill="#F2C42C"/>
<path d="M36.958 432.87C31.3656 438.462 28.2238 446.047 28.2238 453.956C28.2238 461.865 31.3656 469.45 36.958 475.043C39.7271 477.812 43.0145 480.009 46.6325 481.507C50.2505 483.006 54.1283 483.777 58.0445 483.777C61.9606 483.777 65.8385 483.006 69.4565 481.507C73.0745 480.009 76.3619 477.812 79.131 475.043L155.882 398.292L113.709 356.119L36.958 432.87Z" fill="#F2C42C"/>
<path d="M206.121 189.885L170.23 225.776C171.669 256.075 184.352 284.75 205.801 306.2C227.25 327.649 255.925 340.332 286.225 341.771L322.117 305.879L242.266 269.735L206.121 189.885Z" fill="#E0B629"/>
<path d="M255.25 120.45C237.255 138.541 227.169 163.03 227.204 188.547C227.238 214.063 237.389 238.525 255.432 256.568C273.475 274.611 297.937 284.762 323.453 284.797C348.97 284.831 373.459 274.745 391.55 256.75L360.311 287.989C342.22 305.984 317.731 316.07 292.214 316.036C266.698 316.001 242.236 305.85 224.193 287.807C206.15 269.764 195.999 245.302 195.965 219.786C195.93 194.269 206.016 169.78 224.011 151.689L255.25 120.45Z" fill="#FADC60"/>
<path d="M83.423 386.4C93.243 404.14 107.86 418.757 125.6 428.577L155.885 398.292L113.712 356.119L83.423 386.4Z" fill="#E0B629"/>
<path d="M150.99 245.015C143.373 252.632 137.331 261.674 133.209 271.626C129.087 281.577 126.966 292.244 126.966 303.015C126.966 313.787 129.087 324.453 133.209 334.405C137.331 344.356 143.373 353.398 150.99 361.015C158.607 368.632 167.649 374.674 177.601 378.796C187.552 382.918 198.218 385.04 208.99 385.04C219.762 385.04 230.428 382.918 240.379 378.796C250.331 374.674 259.373 368.632 266.99 361.015L235.751 392.254C220.369 407.637 199.507 416.279 177.753 416.279C155.999 416.28 135.136 407.639 119.754 392.257C104.371 376.875 95.7289 356.012 95.7284 334.258C95.7279 312.505 104.369 291.642 119.751 276.259L150.99 245.015Z" fill="#FADC60"/>
<path d="M254.48 121.219C255.757 156.961 270.527 190.892 295.817 216.182C321.107 241.472 355.038 256.242 390.78 257.519L464.18 184.119L327.88 47.8188L254.48 121.219Z" fill="#E0B629"/>
<path d="M396.033 231.934C460.08 231.934 512 180.014 512 115.967C512 51.9202 460.08 0 396.033 0C331.986 0 280.066 51.9202 280.066 115.967C280.066 180.014 331.986 231.934 396.033 231.934Z" fill="#FADC60"/>
<path d="M396.033 197.99C441.333 197.99 478.056 161.267 478.056 115.967C478.056 70.667 441.333 33.9441 396.033 33.9441C350.733 33.9441 314.01 70.667 314.01 115.967C314.01 161.267 350.733 197.99 396.033 197.99Z" fill="#57D0E6"/>
<path d="M352.6 159.4C338.484 145.279 330.004 126.494 328.75 106.567C327.496 86.6406 333.553 66.9405 345.787 51.1611C336.566 58.2853 328.969 67.2924 323.501 77.5827C318.034 87.8729 314.822 99.2101 314.079 110.839C313.336 122.468 315.08 134.121 319.193 145.024C323.307 155.926 329.697 165.827 337.936 174.066C346.176 182.306 356.077 188.695 366.979 192.808C377.882 196.921 389.535 198.665 401.164 197.921C412.793 197.178 424.13 193.966 434.42 188.498C444.71 183.03 453.717 175.432 460.841 166.211C445.062 178.446 425.361 184.504 405.434 183.25C385.507 181.996 366.721 173.516 352.6 159.4Z" fill="#4DB8CC"/>
</svg>
