<svg width="512" height="512" viewBox="0 0 512 512" fill="none" xmlns="http://www.w3.org/2000/svg">
<path d="M128 10.0029L18.426 48.7379C13.0374 50.6429 8.37194 54.1717 5.07204 58.8382C1.77214 63.5047 0.00012242 69.0795 0 74.7949L0 463.321C3.81454e-05 467.742 1.06091 472.1 3.09354 476.026C5.12617 479.953 8.07122 483.334 11.6814 485.887C15.2916 488.44 19.4616 490.089 23.8413 490.697C28.2209 491.304 32.6823 490.852 36.851 489.378L128 457.153L192 256.203L128 10.0029Z" fill="#FADC60"/>
<path d="M384 10.0029L256 55.2529L192 256.203L256 502.403L384 457.153L448 256.203L384 10.0029Z" fill="#FADC60"/>
<path d="M128 457.153L256 502.403V55.2529L128 10.0029V457.153Z" fill="#F2C42C"/>
<path d="M493.574 48.7379L384 10.0029V457.153L475.149 489.378C479.318 490.852 483.779 491.304 488.159 490.696C492.538 490.089 496.708 488.439 500.318 485.887C503.928 483.334 506.873 479.952 508.906 476.026C510.939 472.099 512 467.742 512 463.321V74.7949C512 69.0795 510.228 63.5047 506.928 58.8382C503.628 54.1717 498.963 50.6429 493.574 48.7379Z" fill="#F2C42C"/>
<path d="M128 59.1709L57.371 84.1419C54.15 85.2777 51.3609 87.3849 49.3883 90.173C47.4157 92.9611 46.357 96.2926 46.358 99.7079V413.491C46.3584 416.133 46.9929 418.737 48.208 421.083C49.4232 423.429 51.1835 425.45 53.3413 426.975C55.4991 428.5 57.9913 429.485 60.6087 429.847C63.226 430.21 65.8921 429.938 68.383 429.057L128 407.98L192 256.203L128 59.1709Z" fill="#57D0E6"/>
<path d="M384 59.1709L256 104.426L192 256.203L256 453.235L384 407.98L448 256.203L384 59.1709Z" fill="#57D0E6"/>
<path d="M256 104.426V453.235L128 407.98V59.1709L256 104.426Z" fill="#4DB8CC"/>
<path d="M384 59.1709V407.98L443.617 429.058C446.108 429.939 448.774 430.211 451.391 429.848C454.009 429.486 456.501 428.501 458.659 426.976C460.816 425.451 462.577 423.43 463.792 421.084C465.007 418.738 465.642 416.134 465.642 413.492V99.7029C465.643 96.2876 464.584 92.9561 462.612 90.168C460.639 87.3799 457.85 85.2726 454.629 84.1369L384 59.1709Z" fill="#4DB8CC"/>
<path d="M78.3 190.273C76.5167 190.273 74.7882 189.656 73.4077 188.527C72.0273 187.398 71.0798 185.827 70.726 184.079C70.3722 182.331 70.6339 180.515 71.4666 178.938C72.2994 177.361 73.652 176.12 75.295 175.427C79.811 173.514 84.4232 171.838 89.113 170.403C90.0924 170.076 91.1274 169.948 92.1569 170.028C93.1864 170.108 94.1895 170.393 95.1069 170.867C96.0243 171.341 96.8374 171.994 97.4982 172.787C98.1589 173.581 98.6539 174.498 98.9539 175.487C99.2538 176.475 99.3527 177.513 99.2446 178.54C99.1365 179.567 98.8237 180.561 98.3245 181.465C97.8254 182.369 97.1502 183.164 96.3387 183.803C95.5272 184.441 94.596 184.91 93.6 185.183C89.4228 186.464 85.3147 187.96 81.292 189.665C80.3453 190.065 79.3279 190.272 78.3 190.273Z" fill="#EFEDEE"/>
<path d="M261.361 261.053C259.337 261.051 257.394 260.254 255.951 258.835C254.508 257.415 253.679 255.486 253.644 253.462C253.609 251.438 254.369 249.481 255.762 248.012C257.154 246.543 259.068 245.679 261.091 245.606C268.791 245.331 276.798 243.433 285.579 239.806C286.52 239.403 287.531 239.191 288.554 239.182C289.577 239.173 290.592 239.367 291.539 239.753C292.487 240.14 293.348 240.71 294.073 241.432C294.798 242.154 295.373 243.013 295.764 243.958C296.154 244.904 296.353 245.918 296.349 246.941C296.345 247.964 296.137 248.976 295.739 249.919C295.34 250.861 294.758 251.715 294.027 252.431C293.296 253.146 292.43 253.71 291.479 254.088C282.025 258.161 271.921 260.519 261.64 261.05C261.549 261.052 261.455 261.053 261.361 261.053ZM234.192 255.485C233.075 255.484 231.972 255.241 230.959 254.772C222.85 251.03 214.913 245.687 205.977 237.956C204.427 236.615 203.474 234.714 203.326 232.67C203.178 230.626 203.848 228.608 205.189 227.058C206.53 225.508 208.431 224.555 210.475 224.407C212.519 224.259 214.537 224.929 216.087 226.27C223.895 233.026 230.677 237.624 237.433 240.741C239.032 241.479 240.331 242.742 241.115 244.32C241.898 245.898 242.119 247.696 241.741 249.416C241.363 251.137 240.408 252.676 239.035 253.78C237.662 254.884 235.954 255.485 234.192 255.485ZM313.582 242.063C311.838 242.064 310.146 241.476 308.779 240.393C307.412 239.311 306.451 237.798 306.053 236.1C305.655 234.403 305.843 232.62 306.586 231.043C307.329 229.466 308.584 228.186 310.146 227.412C318.794 223.084 327.7 219.289 336.812 216.049C337.774 215.695 338.797 215.535 339.822 215.58C340.846 215.625 341.852 215.874 342.779 216.312C343.706 216.749 344.537 217.367 345.224 218.129C345.91 218.891 346.438 219.782 346.776 220.75C347.115 221.718 347.257 222.743 347.195 223.767C347.133 224.79 346.868 225.791 346.415 226.711C345.962 227.631 345.331 228.452 344.558 229.126C343.785 229.799 342.885 230.312 341.912 230.635C333.4 233.666 325.08 237.214 317 241.259C315.938 241.787 314.768 242.062 313.582 242.063ZM394.4 225.589C393.728 225.589 393.058 225.501 392.409 225.327C385.249 223.427 376.844 223.066 367.54 224.271C365.52 224.509 363.487 223.942 361.883 222.691C360.278 221.44 359.232 219.607 358.971 217.59C358.709 215.572 359.254 213.533 360.487 211.915C361.72 210.297 363.541 209.23 365.555 208.946C376.865 207.482 387.266 207.97 396.38 210.393C398.196 210.872 399.775 211.996 400.822 213.555C401.869 215.114 402.313 217.001 402.071 218.863C401.828 220.725 400.916 222.436 399.504 223.674C398.092 224.913 396.278 225.595 394.4 225.593V225.589ZM190.707 220.489C188.676 220.492 186.726 219.692 185.282 218.264C178.892 211.789 172.181 205.641 165.173 199.841C163.575 198.558 162.552 196.693 162.329 194.657C162.106 192.62 162.701 190.577 163.984 188.979C165.266 187.381 167.131 186.358 169.168 186.135C171.205 185.912 173.247 186.507 174.845 187.79C182.266 193.915 189.37 200.414 196.131 207.261C197.223 208.337 197.969 209.713 198.276 211.215C198.584 212.717 198.437 214.276 197.855 215.694C197.274 217.112 196.284 218.325 195.011 219.179C193.738 220.033 192.24 220.489 190.707 220.489ZM146.218 186.903C145.192 186.904 144.176 186.7 143.23 186.303C135.534 183.033 127.268 181.317 118.906 181.252C117.891 181.247 116.888 181.041 115.952 180.648C115.017 180.255 114.168 179.682 113.455 178.96C112.741 178.239 112.176 177.384 111.793 176.445C111.41 175.506 111.215 174.5 111.221 173.485C111.226 172.471 111.431 171.467 111.824 170.532C112.217 169.597 112.791 168.748 113.512 168.034C114.233 167.32 115.088 166.756 116.027 166.373C116.967 165.989 117.972 165.795 118.987 165.8H119.073C129.433 165.879 139.676 168.004 149.212 172.054C150.857 172.745 152.213 173.984 153.048 175.562C153.884 177.139 154.148 178.956 153.795 180.706C153.442 182.456 152.495 184.029 151.114 185.159C149.733 186.29 148.003 186.907 146.218 186.907V186.903Z" fill="#EFEDEE"/>
<path d="M424.817 252.321C423.142 252.32 421.513 251.774 420.174 250.767C418.836 249.759 417.862 248.344 417.398 246.734C416.151 243.366 414.324 240.242 412 237.503C410.707 235.922 410.093 233.893 410.291 231.861C410.489 229.828 411.484 227.956 413.059 226.655C414.633 225.354 416.659 224.729 418.692 224.917C420.726 225.105 422.603 226.09 423.912 227.658C427.611 232.008 430.439 237.028 432.243 242.445C432.524 243.42 432.611 244.441 432.498 245.449C432.384 246.457 432.074 247.433 431.583 248.322C431.093 249.21 430.432 249.993 429.639 250.626C428.846 251.258 427.936 251.729 426.961 252.01C426.265 252.215 425.543 252.32 424.817 252.321Z" fill="#EFEDEE"/>
<path d="M435.748 291.465L443.097 284.116C443.814 283.398 444.383 282.547 444.772 281.609C445.16 280.672 445.36 279.667 445.36 278.653C445.36 277.638 445.16 276.633 444.771 275.696C444.383 274.759 443.814 273.907 443.096 273.189C442.379 272.472 441.527 271.903 440.59 271.515C439.652 271.127 438.648 270.927 437.633 270.927C436.619 270.927 435.614 271.127 434.676 271.515C433.739 271.903 432.887 272.472 432.17 273.19L424.821 280.539L417.472 273.19C416.755 272.472 415.903 271.903 414.966 271.515C414.028 271.127 413.023 270.927 412.009 270.927C410.994 270.927 409.99 271.127 409.052 271.515C408.115 271.903 407.263 272.472 406.546 273.189C405.828 273.907 405.259 274.759 404.871 275.696C404.482 276.633 404.282 277.638 404.282 278.653C404.282 279.667 404.482 280.672 404.87 281.609C405.259 282.547 405.828 283.398 406.545 284.116L413.894 291.465L406.545 298.814C405.122 300.268 404.33 302.226 404.341 304.261C404.352 306.295 405.165 308.244 406.604 309.683C408.043 311.122 409.992 311.935 412.027 311.945C414.062 311.956 416.019 311.164 417.473 309.74L424.822 302.391L432.171 309.74C432.887 310.463 433.739 311.038 434.678 311.431C435.617 311.824 436.624 312.028 437.642 312.03C438.66 312.033 439.668 311.834 440.609 311.446C441.55 311.058 442.405 310.488 443.125 309.768C443.845 309.048 444.415 308.194 444.804 307.253C445.192 306.312 445.391 305.304 445.389 304.286C445.387 303.268 445.183 302.261 444.79 301.322C444.398 300.382 443.823 299.53 443.1 298.814L435.748 291.465Z" fill="#E34B4C"/>
</svg>
