<svg width="512" height="512" viewBox="0 0 512 512" fill="none" xmlns="http://www.w3.org/2000/svg">
<path d="M473.853 222.29L511.61 165.217C511.61 165.217 516.389 23.339 426.337 16H85.32C-4.731 23.339 0.047 165.216 0.047 165.216L37.976 221.742L0 325.083L42.629 495.662L469.029 495.724L511.674 325.124L473.853 222.29Z" fill="#A85D5D"/>
<g opacity="0.2">
<path opacity="0.2" d="M0.592906 166.013C3.18591 126.426 16.7709 42.904 85.3199 37.299H426.336C494.887 42.905 508.486 126.461 511.064 166.029L511.61 165.217C511.61 165.217 516.389 23.339 426.337 16H85.3199C-4.73109 23.339 0.0469061 165.216 0.0469061 165.216L0.592906 166.013Z" fill="white"/>
</g>
<path d="M511.672 325.126L0 325.083L37.976 221.743L473.853 222.29L511.672 325.126Z" fill="#723F3F"/>
<path d="M473.853 222.29L37.9759 221.743L0.046875 165.216H511.609L473.853 222.29Z" fill="#8C4C4C"/>
<path d="M266.485 410.341C266.486 412.449 265.863 414.511 264.692 416.265C263.522 418.018 261.857 419.386 259.91 420.193C257.962 421.001 255.819 421.212 253.751 420.802C251.683 420.391 249.783 419.375 248.292 417.885C246.801 416.394 245.786 414.494 245.375 412.426C244.964 410.358 245.176 408.215 245.984 406.267C246.791 404.319 248.158 402.655 249.912 401.485C251.666 400.314 253.727 399.69 255.836 399.692C258.659 399.696 261.365 400.82 263.361 402.816C265.357 404.812 266.48 407.518 266.485 410.341Z" fill="black"/>
<path d="M170.251 295.071C157.993 295.071 146.172 292.371 137.803 287.671C131.416 284.08 127.622 279.629 127.622 275.757C127.622 267.887 144.237 256.442 170.251 256.442C182.508 256.442 194.345 259.142 202.714 263.859C209.085 267.434 212.895 271.885 212.895 275.759C212.9 283.641 196.28 295.071 170.251 295.071Z" fill="#FFCE54"/>
<path d="M255.524 295.071C243.266 295.071 231.445 292.371 223.06 287.671C216.689 284.08 212.895 279.629 212.895 275.757C212.895 267.887 229.495 256.442 255.524 256.442C267.781 256.442 279.602 259.142 287.987 263.859C294.358 267.434 298.152 271.885 298.152 275.759C298.152 283.641 281.555 295.071 255.524 295.071Z" fill="#FFCE54"/>
<path d="M340.8 295.071C328.542 295.071 316.706 292.371 308.337 287.671C301.966 284.08 298.155 279.629 298.155 275.757C298.155 267.887 314.77 256.442 340.8 256.442C353.058 256.442 364.878 259.142 373.248 263.859C379.619 267.434 383.429 271.885 383.429 275.759C383.426 283.641 366.813 295.071 340.8 295.071Z" fill="#FFCE54"/>
<path d="M212.9 265.091C200.642 265.091 188.806 262.405 180.436 257.691C174.065 254.099 170.255 249.665 170.255 245.791C170.255 237.906 186.869 226.459 212.9 226.459C225.142 226.459 236.978 229.176 245.348 233.876C251.719 237.452 255.529 241.918 255.529 245.791C255.524 253.66 238.909 265.091 212.9 265.091Z" fill="#FFCE54"/>
<path d="M298.152 265.091C285.91 265.091 274.074 262.405 265.705 257.691C259.334 254.099 255.524 249.665 255.524 245.791C255.524 237.906 272.139 226.459 298.152 226.459C310.41 226.459 322.246 229.176 330.616 233.876C336.987 237.452 340.797 241.918 340.797 245.791C340.8 253.66 324.184 265.091 298.152 265.091Z" fill="#FFCE54"/>
<path d="M255.524 235.126C243.266 235.126 231.445 232.426 223.06 227.709C216.689 224.134 212.895 219.683 212.895 215.809C212.895 207.939 229.495 196.494 255.524 196.494C267.781 196.494 279.602 199.194 287.987 203.911C294.358 207.487 298.152 211.937 298.152 215.811C298.152 223.679 281.555 235.126 255.524 235.126Z" fill="#FFCE54"/>
<path d="M91.6291 325.126H164.145C168.298 322.003 170.562 318.615 170.562 315.711C170.562 311.838 166.752 307.403 160.381 303.811C152.011 299.096 140.175 296.411 127.918 296.411C101.903 296.411 85.2891 307.842 85.2891 315.711C85.2891 318.744 87.6001 322.1 91.6291 325.126Z" fill="#FFCE54"/>
<path d="M176.9 325.126H249.416C253.569 322.003 255.816 318.615 255.816 315.711C255.816 311.838 252.022 307.403 245.651 303.811C237.281 299.096 225.445 296.411 213.187 296.411C187.157 296.411 170.558 307.842 170.558 315.711C170.563 318.744 172.874 322.1 176.9 325.126Z" fill="#FFCE54"/>
<path d="M302.856 325.132H206.586V423.882H302.856V325.132Z" fill="#CCD1D9"/>
<path d="M262.16 325.126H334.676C338.83 322.003 341.094 318.615 341.094 315.711C341.094 311.838 337.294 307.403 330.929 303.811C322.543 299.096 310.723 296.411 298.465 296.411C272.436 296.411 255.82 307.842 255.82 315.711C255.82 318.744 258.147 322.1 262.16 325.126Z" fill="#FFCE54"/>
<path d="M347.434 325.126H419.95C424.104 322.003 426.368 318.615 426.368 315.711C426.368 311.838 422.558 307.403 416.187 303.811C407.817 299.096 395.981 296.411 383.739 296.411C357.71 296.411 341.094 307.842 341.094 315.711C341.094 318.744 343.4 322.1 347.434 325.126Z" fill="#FFCE54"/>
<path d="M434.331 325.126C436.061 322.287 436.993 319.035 437.031 315.711C437.031 300.532 416.931 287.979 390.873 286.011C392.928 282.981 394.046 279.413 394.09 275.752C394.09 261.245 375.758 249.159 351.43 246.38C351.43 246.18 351.446 245.974 351.446 245.787C351.446 231.265 333.13 219.179 308.786 216.4C308.802 216.212 308.817 216.009 308.817 215.806C308.817 199.254 284.957 185.826 255.523 185.826C226.089 185.826 202.229 199.255 202.229 215.806C202.229 216.006 202.245 216.212 202.26 216.4C177.916 219.179 159.599 231.265 159.599 245.787C159.599 245.975 159.615 246.177 159.615 246.38C135.287 249.159 116.955 261.245 116.955 275.752C116.997 279.437 118.127 283.028 120.203 286.073C94.423 288.166 74.623 300.641 74.623 315.711C74.6606 319.035 75.5933 322.288 77.323 325.126H434.331ZM236.989 320.026C230.389 322.837 221.936 324.382 213.189 324.382C204.442 324.382 196 322.834 189.41 320.026C186.791 318.993 184.358 317.537 182.21 315.716C184.366 313.914 186.797 312.47 189.41 311.438C196 308.626 204.448 307.065 213.192 307.065C221.335 306.955 229.42 308.441 236.992 311.438C239.601 312.478 242.031 313.922 244.192 315.716C242.037 317.529 239.605 318.985 236.989 320.026ZM231.727 280.052C229.113 279.014 226.683 277.564 224.527 275.758C224.827 275.492 225.183 275.211 225.589 274.9C234.094 273.853 242.34 271.282 249.933 267.31C251.776 267.185 253.649 267.11 255.523 267.11C257.397 267.11 259.271 267.188 261.097 267.31C268.696 271.28 276.947 273.851 285.456 274.9C285.862 275.212 286.222 275.493 286.518 275.758C284.363 277.565 281.932 279.014 279.318 280.052C263.989 285.882 247.054 285.882 231.725 280.052H231.727ZM322.246 320.026C315.657 322.837 307.209 324.382 298.465 324.382C289.721 324.382 281.274 322.836 274.665 320.026C272.05 318.984 269.619 317.529 267.465 315.716C269.626 313.922 272.056 312.478 274.665 311.438C282.237 308.44 290.322 306.955 298.465 307.065C307.209 307.065 315.657 308.627 322.246 311.438C324.859 312.47 327.29 313.914 329.446 315.716C327.298 317.537 324.865 318.993 322.246 320.026ZM407.52 311.438C410.133 312.47 412.564 313.914 414.72 315.716C412.571 317.536 410.139 318.992 407.52 320.026C400.931 322.837 392.467 324.382 383.739 324.382C374.995 324.382 366.548 322.836 359.939 320.026C357.32 318.992 354.888 317.536 352.739 315.716C354.895 313.915 357.326 312.47 359.939 311.438C367.511 308.44 375.596 306.955 383.739 307.065C392.467 307.063 400.931 308.626 407.52 311.436V311.438ZM340.8 267.104C349.544 267.104 357.992 268.651 364.582 271.461C367.197 272.497 369.628 273.947 371.782 275.755C369.632 277.569 367.2 279.019 364.582 280.049C357.992 282.86 349.544 284.421 340.8 284.421C332.657 284.531 324.572 283.046 317 280.049C314.382 279.02 311.95 277.569 309.8 275.755C310.1 275.489 310.455 275.208 310.862 274.897C319.367 273.85 327.613 271.279 335.206 267.307C337.05 267.182 338.908 267.104 340.8 267.104ZM298.152 237.126C306.896 237.126 315.344 238.672 321.952 241.482C324.571 242.516 327.004 243.972 329.152 245.792C328.852 246.042 328.496 246.338 328.09 246.651C319.589 247.707 311.345 250.271 303.745 254.224C301.903 254.365 300.045 254.443 298.155 254.443C296.282 254.443 294.424 254.365 292.581 254.224C284.975 250.274 276.727 247.709 268.222 246.651C267.816 246.339 267.472 246.042 267.175 245.792C267.475 245.511 267.816 245.23 268.222 244.917C276.728 243.866 284.978 241.302 292.581 237.344C294.4 237.202 296.279 237.126 298.152 237.126ZM231.727 211.517C238.327 208.706 246.78 207.161 255.527 207.161C264.274 207.161 272.719 208.707 279.327 211.517C281.941 212.555 284.372 214.004 286.527 215.811C286.227 216.077 285.871 216.373 285.465 216.686C276.961 217.74 268.713 220.299 261.106 224.244C259.28 224.4 257.406 224.462 255.532 224.462C253.658 224.462 251.784 224.4 249.942 224.244C242.342 220.297 234.098 217.737 225.598 216.686C225.192 216.374 224.833 216.077 224.536 215.811C226.689 214.005 229.116 212.555 231.727 211.515V211.517ZM189.1 241.48C195.7 238.669 204.153 237.124 212.9 237.124C214.774 237.124 216.632 237.202 218.474 237.343C226.077 241.301 234.327 243.865 242.833 244.916C243.197 245.19 243.546 245.482 243.879 245.791C243.579 246.041 243.239 246.337 242.833 246.65C234.328 247.706 226.079 250.27 218.474 254.223C216.632 254.364 214.774 254.442 212.9 254.442C211.01 254.442 209.152 254.364 207.31 254.223C199.711 250.27 191.467 247.705 182.966 246.65C182.56 246.338 182.201 246.041 181.904 245.791C184.051 243.971 186.482 242.514 189.1 241.48ZM146.471 271.462C153.06 268.651 161.508 267.105 170.253 267.105C172.142 267.105 174.001 267.183 175.843 267.305C183.436 271.277 191.682 273.849 200.187 274.895C200.593 275.207 200.952 275.488 201.249 275.753C199.096 277.564 196.665 279.014 194.049 280.047C178.725 285.877 161.794 285.877 146.47 280.047C143.852 279.017 141.42 277.567 139.27 275.753C141.424 273.946 143.855 272.497 146.469 271.462H146.471ZM104.136 311.436C110.726 308.624 119.189 307.063 127.918 307.063C136.061 306.953 144.146 308.439 151.718 311.436C154.332 312.468 156.762 313.912 158.918 315.714C156.769 317.534 154.337 318.99 151.718 320.024C145.118 322.835 136.665 324.38 127.918 324.38C119.171 324.38 110.726 322.834 104.136 320.024C101.517 318.991 99.0844 317.535 96.936 315.714C99.0921 313.913 101.523 312.468 104.136 311.436Z" fill="#F6BB42"/>
<path d="M266.187 383.642H244.856V410.344H266.187V383.642Z" fill="#AAB2BC"/>
<path d="M270.936 370.008C270.939 373.035 270.045 375.996 268.365 378.515C266.686 381.033 264.297 382.997 261.5 384.158C258.704 385.318 255.627 385.623 252.657 385.033C249.688 384.444 246.96 382.987 244.819 380.847C242.678 378.706 241.22 375.979 240.63 373.01C240.039 370.04 240.343 366.963 241.503 364.166C242.662 361.37 244.625 358.98 247.143 357.3C249.661 355.619 252.622 354.724 255.649 354.726C259.702 354.727 263.589 356.337 266.456 359.203C269.322 362.068 270.934 365.955 270.936 370.008Z" fill="#434A54"/>
<path d="M319.467 165.216C319.475 165.208 319.481 165.197 319.483 165.185V122.556C319.479 119.731 318.353 117.022 316.354 115.026C314.355 113.029 311.645 111.907 308.819 111.907H202.23C199.404 111.907 196.694 113.029 194.695 115.026C192.695 117.022 191.569 119.731 191.565 122.556V165.216H319.467Z" fill="#CCD1D9"/>
<path d="M212.9 165.216V133.226H298.157V165.216H319.471C319.471 143.416 319.487 122.556 319.487 122.556C319.483 119.731 318.357 117.022 316.358 115.026C314.359 113.029 311.649 111.907 308.823 111.907H202.23C199.404 111.907 196.694 113.029 194.695 115.026C192.695 117.022 191.569 119.731 191.565 122.556V165.216H212.9Z" fill="#AAB2BC"/>
<path d="M55.1519 325.083L92.8939 495.677H114.723L76.9999 325.083H55.1519Z" fill="#AAB2BC"/>
<path d="M434.159 325.114L396.387 495.726H418.217L455.989 325.116L434.159 325.114Z" fill="#AAB2BC"/>
<path d="M298.152 325.114V421.007H212.9V325.099H191.57V431.672C191.573 434.498 192.697 437.207 194.696 439.204C196.695 441.202 199.404 442.325 202.23 442.326H308.818C311.643 442.326 314.353 441.204 316.353 439.208C318.352 437.211 319.478 434.503 319.482 431.677V325.114H298.152Z" fill="#AAB2BC"/>
<path d="M255.836 335.733C249.51 335.73 243.326 337.603 238.065 341.116C232.804 344.628 228.703 349.621 226.28 355.464C223.858 361.307 223.222 367.738 224.454 373.942C225.687 380.146 228.731 385.846 233.203 390.32C237.675 394.794 243.373 397.841 249.577 399.076C255.78 400.311 262.211 399.679 268.055 397.259C273.899 394.839 278.895 390.74 282.409 385.481C285.924 380.221 287.8 374.038 287.8 367.712C287.8 359.234 284.432 351.102 278.438 345.105C272.444 339.109 264.314 335.738 255.836 335.733ZM255.836 378.362C253.727 378.364 251.666 377.74 249.912 376.57C248.158 375.399 246.791 373.735 245.984 371.787C245.176 369.84 244.964 367.696 245.375 365.628C245.786 363.56 246.801 361.661 248.292 360.17C249.783 358.679 251.683 357.664 253.751 357.253C255.819 356.842 257.962 357.054 259.91 357.861C261.857 358.669 263.522 360.036 264.692 361.79C265.863 363.543 266.486 365.605 266.485 367.713C266.48 370.536 265.357 373.242 263.361 375.238C261.365 377.235 258.659 378.358 255.836 378.362Z" fill="#AAB2BC"/>
<path opacity="0.1" d="M0 325.083L7.823 303.753H503.8L511.669 325.083H0Z" fill="black"/>
</svg>
